<?xml version="1.0" encoding="UTF-8" standalone="no"?>
<!-- Generator: Adobe Illustrator 13.0.0, SVG Export Plug-In . SVG Version: 6.00 Build 14948)  -->

<svg
   xmlns:dc="http://purl.org/dc/elements/1.1/"
   xmlns:cc="http://creativecommons.org/ns#"
   xmlns:rdf="http://www.w3.org/1999/02/22-rdf-syntax-ns#"
   xmlns:svg="http://www.w3.org/2000/svg"
   xmlns="http://www.w3.org/2000/svg"
   xmlns:sodipodi="http://sodipodi.sourceforge.net/DTD/sodipodi-0.dtd"
   xmlns:inkscape="http://www.inkscape.org/namespaces/inkscape"
   version="1.1"
   id="Layer_1"
   x="0px"
   y="0px"
   width="744.09448"
   height="1052.3622"
   viewBox="0 0 744.09449 1052.3622"
   enable-background="new 0 0 2027.125 1244.648"
   xml:space="preserve"
   inkscape:version="0.91 r13725"
   sodipodi:docname="EuclideanSequencer.svg"><metadata
     id="metadata1346"><rdf:RDF><cc:Work
         rdf:about=""><dc:format>image/svg+xml</dc:format><dc:type
           rdf:resource="http://purl.org/dc/dcmitype/StillImage" /><dc:title /></cc:Work></rdf:RDF></metadata><defs
     id="defs1344"><clipPath
       clipPathUnits="userSpaceOnUse"
       id="clipPath18264"><g
         transform="matrix(3.5433072,0,0,3.5433072,1054.6498,451.95045)"
         id="g18266"
         style="fill:none;stroke:#000000;stroke-width:0.1"><rect
           x="0"
           y="0"
           width="50.5"
           height="128.5"
           id="rect18268" /><circle
           sodipodi:ry="4.5"
           sodipodi:rx="4.5"
           sodipodi:cy="64.25"
           sodipodi:cx="12.55"
           cx="12.55"
           cy="64.25"
           r="4.5"
           id="circle18270" /><circle
           sodipodi:ry="4.5"
           sodipodi:rx="4.5"
           sodipodi:cy="64.25"
           sodipodi:cx="37.950001"
           cx="37.950001"
           cy="64.25"
           r="4.5"
           id="circle18272" /><circle
           sodipodi:ry="4.5"
           sodipodi:rx="4.5"
           sodipodi:cy="45.200001"
           sodipodi:cx="12.55"
           cx="12.55"
           cy="45.200001"
           r="4.5"
           id="circle18274" /><circle
           sodipodi:ry="4.5"
           sodipodi:rx="4.5"
           sodipodi:cy="45.200001"
           sodipodi:cx="37.950001"
           cx="37.950001"
           cy="45.200001"
           r="4.5"
           id="circle18276" /><circle
           sodipodi:ry="4.5"
           sodipodi:rx="4.5"
           sodipodi:cy="26.15"
           sodipodi:cx="12.55"
           cx="12.55"
           cy="26.15"
           r="4.5"
           id="circle18278" /><circle
           sodipodi:ry="4.5"
           sodipodi:rx="4.5"
           sodipodi:cy="26.15"
           sodipodi:cx="37.950001"
           cx="37.950001"
           cy="26.15"
           r="4.5"
           id="circle18280" /><circle
           sodipodi:ry="1.5"
           sodipodi:rx="1.5"
           sodipodi:cy="70.599998"
           sodipodi:cx="25.25"
           cx="25.25"
           cy="70.599998"
           r="1.5"
           id="circle18282" /><circle
           sodipodi:ry="1.5"
           sodipodi:rx="1.5"
           sodipodi:cy="83.300003"
           sodipodi:cx="12.55"
           cx="12.55"
           cy="83.300003"
           r="1.5"
           id="circle18284" /><circle
           sodipodi:ry="1.5"
           sodipodi:rx="1.5"
           sodipodi:cy="83.300003"
           sodipodi:cx="37.950001"
           cx="37.950001"
           cy="83.300003"
           r="1.5"
           id="circle18286" /><circle
           sodipodi:ry="3"
           sodipodi:rx="3"
           sodipodi:cy="83.300003"
           sodipodi:cx="25.25"
           cx="25.25"
           cy="83.300003"
           r="3"
           id="circle18288" /><circle
           sodipodi:ry="3"
           sodipodi:rx="3"
           sodipodi:cy="96"
           sodipodi:cx="12.55"
           cx="12.55"
           cy="96"
           r="3"
           id="circle18290" /><circle
           sodipodi:ry="3"
           sodipodi:rx="3"
           sodipodi:cy="96"
           sodipodi:cx="37.950001"
           cx="37.950001"
           cy="96"
           r="3"
           id="circle18292" /><circle
           sodipodi:ry="3"
           sodipodi:rx="3"
           sodipodi:cy="96"
           sodipodi:cx="25.25"
           cx="25.25"
           cy="96"
           r="3"
           id="circle18294" /><circle
           sodipodi:ry="3"
           sodipodi:rx="3"
           sodipodi:cy="108.7"
           sodipodi:cx="18.9"
           cx="18.9"
           cy="108.7"
           r="3"
           id="circle18296" /><circle
           sodipodi:ry="3"
           sodipodi:rx="3"
           sodipodi:cy="108.7"
           sodipodi:cx="31.6"
           cx="31.6"
           cy="108.7"
           r="3"
           id="circle18298" /><circle
           sodipodi:ry="3"
           sodipodi:rx="3"
           sodipodi:cy="108.7"
           sodipodi:cx="6.1999998"
           cx="6.1999998"
           cy="108.7"
           r="3"
           id="circle18300" /><circle
           sodipodi:ry="3"
           sodipodi:rx="3"
           sodipodi:cy="108.7"
           sodipodi:cx="44.299999"
           cx="44.299999"
           cy="108.7"
           r="3"
           id="circle18302" /></g></clipPath></defs><sodipodi:namedview
     pagecolor="#ffffff"
     bordercolor="#666666"
     borderopacity="1"
     objecttolerance="10"
     gridtolerance="10"
     guidetolerance="10"
     inkscape:pageopacity="0"
     inkscape:pageshadow="2"
     inkscape:window-width="1623"
     inkscape:window-height="1026"
     id="namedview1342"
     showgrid="false"
     inkscape:zoom="1.3614563"
     inkscape:cx="-80.771687"
     inkscape:cy="763.15069"
     inkscape:window-x="57"
     inkscape:window-y="24"
     inkscape:window-maximized="1"
     inkscape:current-layer="layer2"
     inkscape:snap-object-midpoints="false"
     inkscape:snap-center="false"
     showguides="true"
     inkscape:guide-bbox="true"
     inkscape:object-paths="true"
     inkscape:snap-nodes="true"
     inkscape:document-units="mm"><inkscape:grid
       type="xygrid"
       id="grid18395"
       empspacing="5"
       visible="true"
       enabled="true"
       snapvisiblegridlinesonly="true"
       units="in"
       spacingx="0.25in"
       spacingy="0.25in"
       originx="25.25mm"
       originy="64.25mm" /></sodipodi:namedview><g
     inkscape:groupmode="layer"
     id="layer1"
     inkscape:label="Cut"
     style="display:inline"
     transform="translate(0,-192.28575)"><g
       transform="matrix(3.5433071,0,0,3.5433071,4.5188976e-4,192.28573)"
       style="fill:none;stroke:#ff0000;stroke-width:0.05"
       id="g5452"><rect
         x="0"
         y="0"
         width="50.5"
         height="128.5"
         id="rect5454" /><circle
         cx="7.5"
         cy="3"
         r="1.6"
         id="circle5456" /><circle
         cx="7.5"
         cy="125.5"
         r="1.6"
         id="circle5458" /><circle
         cx="43.060001"
         cy="3"
         r="1.6"
         id="circle5460" /><circle
         cx="43.060001"
         cy="125.5"
         r="1.6"
         id="circle5462" /><path
         inkscape:connector-curvature="0"
         d="m 12.55,59.5 c -2.6129013,0 -4.7375971,2.115556 -4.7375971,4.727735 0,2.135913 1.421033,3.945767 3.3650681,4.5331 l 0,2.107204 2.632936,1.41e-4 0,-2.079677 c 1.996054,-0.554631 3.466996,-2.388302 3.466996,-4.561134 C 17.277741,61.61519 15.162198,59.5 12.55,59.5 Z"
         style="fill:none;stroke:#ff0000"
         id="path5464" /><path
         inkscape:connector-curvature="0"
         d="m 37.95,59.5 c -2.612901,0 -4.737597,2.115556 -4.737597,4.727735 0,2.135913 1.421033,3.945767 3.365068,4.5331 l 0,2.107204 2.632936,1.41e-4 0,-2.079677 c 1.996054,-0.554631 3.466996,-2.388302 3.466996,-4.561134 C 42.677741,61.61519 40.562198,59.5 37.95,59.5 Z"
         style="fill:none;stroke:#ff0000"
         id="path5466" /><path
         inkscape:connector-curvature="0"
         d="m 12.55,40.45 c -2.6129013,0 -4.7375971,2.115556 -4.7375971,4.727735 0,2.135913 1.421033,3.945767 3.3650681,4.5331 l 0,2.107204 2.632936,1.41e-4 0,-2.079677 c 1.996054,-0.554631 3.466996,-2.388302 3.466996,-4.561134 C 17.277741,42.56519 15.162198,40.45 12.55,40.45 Z"
         style="fill:none;stroke:#ff0000"
         id="path5468" /><path
         inkscape:connector-curvature="0"
         d="m 37.95,40.45 c -2.612901,0 -4.737597,2.115556 -4.737597,4.727735 0,2.135913 1.421033,3.945767 3.365068,4.5331 l 0,2.107204 2.632936,1.41e-4 0,-2.079677 c 1.996054,-0.554631 3.466996,-2.388302 3.466996,-4.561134 C 42.677741,42.56519 40.562198,40.45 37.95,40.45 Z"
         style="fill:none;stroke:#ff0000"
         id="path5470" /><path
         inkscape:connector-curvature="0"
         d="m 12.55,21.4 c -2.6129013,0 -4.7375971,2.115556 -4.7375971,4.727735 0,2.135913 1.421033,3.945767 3.3650681,4.5331 l 0,2.107204 2.632936,1.41e-4 0,-2.079677 c 1.996054,-0.554631 3.466996,-2.388302 3.466996,-4.561134 C 17.277741,23.51519 15.162198,21.4 12.55,21.4 Z"
         style="fill:none;stroke:#ff0000"
         id="path5472" /><path
         inkscape:connector-curvature="0"
         d="m 37.95,21.4 c -2.612901,0 -4.737597,2.115556 -4.737597,4.727735 0,2.135913 1.421033,3.945767 3.365068,4.5331 l 0,2.107204 2.632936,1.41e-4 0,-2.079677 c 1.996054,-0.554631 3.466996,-2.388302 3.466996,-4.561134 C 42.677741,23.51519 40.562198,21.4 37.95,21.4 Z"
         style="fill:none;stroke:#ff0000"
         id="path5474" /><circle
         cx="25.25"
         cy="70.599998"
         r="1.5"
         style="fill:none;stroke:#ff0000"
         id="circle5476" /><circle
         cx="12.55"
         cy="83.300003"
         r="1.5"
         style="fill:none;stroke:#ff0000"
         id="circle5478" /><circle
         cx="37.950001"
         cy="83.300003"
         r="1.5"
         style="fill:none;stroke:#ff0000"
         id="circle5480" /><circle
         cx="25.25"
         cy="83.300003"
         r="3.25"
         style="fill:none;stroke:#ff0000"
         id="circle5482" /><circle
         cx="12.55"
         cy="96"
         r="3.25"
         style="fill:none;stroke:#ff0000"
         id="circle5484" /><circle
         cx="37.950001"
         cy="96"
         r="3.25"
         style="fill:none;stroke:#ff0000"
         id="circle5486" /><circle
         cx="25.25"
         cy="96"
         r="3.25"
         style="fill:none;stroke:#ff0000"
         id="circle5488" /><circle
         cx="18.9"
         cy="108.7"
         r="3.25"
         style="fill:none;stroke:#ff0000"
         id="circle5490" /><circle
         cx="31.6"
         cy="108.7"
         r="3.25"
         style="fill:none;stroke:#ff0000"
         id="circle5492" /><circle
         cx="6.1999998"
         cy="108.7"
         r="3.25"
         style="fill:none;stroke:#ff0000"
         id="circle5494" /><circle
         cx="44.299999"
         cy="108.7"
         r="3.25"
         style="fill:none;stroke:#ff0000"
         id="circle5496" /></g></g><g
     inkscape:groupmode="layer"
     id="layer2"
     inkscape:label="Print"
     style="display:inline"
     transform="translate(0,-192.28575)"><g
       id="g240"
       clip-path="url(#clipPath18264)"
       transform="translate(-1055.0041,-259.6639)"><path
         d="m 1224.367,672.158 c 0,114.65 -93.271,207.588 -208.331,207.588 -115.062,0 -208.337,-92.938 -208.337,-207.588 0,-114.65 93.273,-207.587 208.337,-207.587 115.063,0 208.331,92.937 208.331,207.587 z"
         id="path242"
         inkscape:connector-curvature="0"
         style="fill:none;stroke:#000000;stroke-width:0.5" /><path
         d="m 1153.896,670.01 c 0,76.123 -61.707,137.83 -137.834,137.83 -76.122,0 -137.837,-61.707 -137.837,-137.83 0,-76.13 61.714,-137.84 137.837,-137.84 76.126,0.002 137.834,61.712 137.834,137.84 z"
         id="path244"
         inkscape:connector-curvature="0"
         style="fill:none;stroke:#000000;stroke-width:0.5" /><path
         d="m 1153.896,671.035 c 0,32.99 -61.707,59.739 -137.834,59.739 -76.122,0 -137.837,-26.749 -137.837,-59.739 0,-32.987 61.714,-59.733 137.837,-59.733 76.126,0 137.834,26.746 137.834,59.733 z"
         id="path246"
         inkscape:connector-curvature="0"
         style="fill:none;stroke:#000000;stroke-width:0.5" /><path
         d="m 1223.342,671.031 c 0,48.251 -93.04,87.372 -207.808,87.372 -114.771,0 -207.812,-39.121 -207.812,-87.372 0,-48.25 93.041,-87.364 207.812,-87.364 114.768,0 207.808,39.114 207.808,87.364 z"
         id="path248"
         inkscape:connector-curvature="0"
         style="fill:none;stroke:#000000;stroke-width:0.4996063;stroke-miterlimit:4;stroke-dasharray:none" /><path
         d="m 1149.391,600.824 c 53.646,101.861 37.697,215.746 -35.639,254.373 -73.335,38.618 -176.271,-12.642 -229.923,-114.501 -53.648,-101.861 -37.69,-215.75 35.643,-254.376 73.336,-38.624 176.266,12.649 229.919,114.504 z"
         id="path250"
         inkscape:connector-curvature="0"
         style="fill:none;stroke:#000000;stroke-width:0.5" /><path
         d="m 1127.623,525.263 c 91.025,69.454 114.867,191.219 53.26,271.956 -61.623,80.744 -185.353,89.893 -276.376,20.428 -91.02,-69.462 -114.863,-191.224 -53.252,-271.961 61.612,-80.743 185.349,-89.885 276.368,-20.423 z"
         id="path252"
         inkscape:connector-curvature="0"
         style="fill:none;stroke:#000000;stroke-width:0.5" /><line
         x1="1070.578"
         y1="586.40503"
         x2="962.15002"
         y2="755.36902"
         id="line254"
         style="fill:none;stroke:#000000;stroke-width:0.5" /><line
         x1="852.229"
         y1="617.04498"
         x2="1181.282"
         y2="723.62903"
         id="line256"
         style="fill:none;stroke:#000000;stroke-width:0.5" /><line
         x1="1181.119"
         y1="723.41498"
         x2="815.89099"
         y2="646.98602"
         id="line258"
         style="fill:none;stroke:#000000;stroke-width:0.5" /><line
         x1="815.737"
         y1="646.51703"
         x2="1215.245"
         y2="694.13"
         id="line260"
         style="fill:none;stroke:#000000;stroke-width:0.5" /><line
         x1="1016.627"
         y1="670.10999"
         x2="1015.552"
         y2="480.17999"
         id="line262"
         style="fill:none;stroke:#000000;stroke-width:0.5" /><line
         x1="1015.052"
         y1="479.77301"
         x2="1079.218"
         y2="516.38599"
         id="line264"
         style="fill:none;stroke:#000000;stroke-width:0.5" /><line
         x1="1079.218"
         y1="516.38599"
         x2="1094.0699"
         y2="503.655"
         id="line266"
         style="fill:none;stroke:#000000;stroke-width:0.5" /><line
         x1="1094.0699"
         y1="503.655"
         x2="1016.1"
         y2="480.315"
         id="line268"
         style="fill:none;stroke:#000000;stroke-width:0.5" /><line
         x1="1094.0699"
         y1="503.655"
         x2="1158.259"
         y2="553.52197"
         id="line270"
         style="fill:none;stroke:#000000;stroke-width:0.5" /><line
         x1="1158.259"
         y1="553.52197"
         x2="1133.326"
         y2="574.20801"
         id="line272"
         style="fill:none;stroke:#000000;stroke-width:0.5" /><line
         x1="1133.326"
         y1="574.20801"
         x2="1079.218"
         y2="516.38599"
         id="line274"
         style="fill:none;stroke:#000000;stroke-width:0.5" /><line
         x1="1133.326"
         y1="574.20801"
         x2="1168.869"
         y2="647.41101"
         id="line276"
         style="fill:none;stroke:#000000;stroke-width:0.5" /><line
         x1="1168.869"
         y1="647.41101"
         x2="1200.938"
         y2="621.54602"
         id="line278"
         style="fill:none;stroke:#000000;stroke-width:0.5" /><line
         x1="1200.791"
         y1="620.96198"
         x2="1158.259"
         y2="553.52197"
         id="line280"
         style="fill:none;stroke:#000000;stroke-width:0.5" /><line
         x1="1016.807"
         y1="670.28998"
         x2="1193.269"
         y2="673.40002"
         id="line282"
         style="fill:none;stroke:#000000;stroke-width:0.5" /><line
         x1="1193.269"
         y1="673.40002"
         x2="1215.179"
         y2="695.04901"
         id="line284"
         style="fill:none;stroke:#000000;stroke-width:0.5" /><line
         x1="1201.0649"
         y1="621.66199"
         x2="1202.7061"
         y2="692.51599"
         id="line286"
         style="fill:none;stroke:#000000;stroke-width:0.5" /><line
         x1="1202.7061"
         y1="692.51599"
         x2="1169.567"
         y2="719.802"
         id="line288"
         style="fill:none;stroke:#000000;stroke-width:0.5" /><line
         x1="1169.401"
         y1="719.966"
         x2="1168.869"
         y2="647.41101"
         id="line290"
         style="fill:none;stroke:#000000;stroke-width:0.5" /><line
         x1="1168.869"
         y1="647.41101"
         x2="1181.447"
         y2="723.35999"
         id="line292"
         style="fill:none;stroke:#000000;stroke-width:0.5" /><line
         x1="1181.604"
         y1="723.26599"
         x2="1202.938"
         y2="692.57898"
         id="line294"
         style="fill:none;stroke:#000000;stroke-width:0.5" /><line
         x1="1193.269"
         y1="673.40002"
         x2="1181.604"
         y2="723.26599"
         id="line296"
         style="fill:none;stroke:#000000;stroke-width:0.5" /></g><g
       id="g9046"
       transform="translate(-0.23942484,0)"><path
         inkscape:connector-curvature="0"
         id="path298"
         d="m 15.377902,623.37008 -0.398,3.653 -0.362,-3.653 0,-15.019 7.898,0 0,10.105 -1.885,0.951 1.885,0.979 0,2.976 -0.399,3.661 -0.36,-3.653 0,-2.514 -2.797,-1.474 2.797,-1.395 0,-8.877 -6.376,0 -0.003,14.26 0,0 z m 4.759,-12.638 0,6.255 -3.143,1.588 0,-7.843 3.143,0 z m -2.781,16.292 -0.362,-3.64 0,-3.089 3.143,1.603 0,1.469 -0.399,3.657 -0.36,-3.653 0,-1.01 -1.618,-0.836 0,1.846 -0.404,3.653 z m 2.019,-15.531 -1.618,0 0,5.829 1.618,-0.814 0,-5.015 z" /><path
         inkscape:connector-curvature="0"
         id="path300"
         d="m 32.432902,623.37008 -0.399,3.653 -0.36,-3.653 0,-2.359 -4.759,0 0,-3.159 4.759,0 0,-1.599 -4.759,0 0,-5.54 3.142,0 0,2.38 1.617,0 0,-3.979 -6.376,0 0,14.257 -0.399,3.653 -0.361,-3.653 0,-15.019 7.898,0 0,5.501 -3.141,0 0,-2.379 -1.618,0 0,4.018 4.759,0 0,3.12 -4.759,0 0,1.637 4.759,0 -0.003,3.121 0,0 z" /><path
         inkscape:connector-curvature="0"
         id="path302"
         d="m 42.291902,623.36608 -0.4,3.657 -0.36,-3.651 0,-4.89 -2.788,-1.465 2.788,-1.396 0,-6.51 -6.376,0 0,14.257 -0.398,3.653 -0.361,-3.653 0,-15.019 7.898,0 0,7.737 -1.876,0.948 1.876,0.975 -0.003,5.357 0,0 z m -2.379,-12.634 0,3.875 -3.142,1.589 0,-5.464 3.142,0 z m 0,8.764 0,1.495 -3.142,0 0,-3.085 3.142,1.59 z m -0.763,-8.003 -1.618,0 0,3.465 1.618,-0.816 0,-2.649 z m 0,8.472 -1.618,-0.818 0,1.086 1.618,0 0,-0.268 z" /><path
         inkscape:connector-curvature="0"
         id="path304"
         d="m 52.207902,623.37008 -0.4,3.653 -0.359,-3.653 0,-2.359 -4.759,0 0,-3.159 4.759,0 0,-1.599 -4.759,0 0,-5.54 3.141,0 0,2.38 1.618,0 0,-3.979 -6.377,0 0,14.257 -0.398,3.653 -0.361,-3.653 0,-15.019 7.898,0 0,5.501 -3.142,0 0,-2.379 -1.617,0 0,4.018 4.759,0 0,3.12 -4.759,0 0,1.637 4.759,0 -0.003,3.121 0,0 z" /><path
         inkscape:connector-curvature="0"
         id="path306"
         d="m 59.686902,623.37008 -0.4,3.653 -0.36,-3.653 0,-2.359 -2.379,0 0,-11.896 -1.618,0 0,14.257 -0.398,3.653 -0.361,-3.653 0,-15.019 3.142,0 0,11.896 2.38,0 0,3.123 -0.006,0 0,0 z" /><path
         inkscape:connector-curvature="0"
         id="path308"
         d="m 76.360862,623.37008 -0.399,3.653 -0.36096,-3.653 0,-12.658 2.37996,0 0,-1.599 -6.37596,0 0,1.599 2.379,0 0,12.658 -0.398,3.653 -0.36,-3.653 0,-11.896 -2.38,0 0,-3.122 7.89696,0 0,3.122 -2.379,0 0,11.896 0,0 z" /><path
         inkscape:connector-curvature="0"
         id="path310"
         d="m 88.409862,623.37008 -0.399,3.653 -0.36,-3.653 0,-2.359 -4.761,0 0,-3.159 4.761,0 0,-1.599 -4.761,0 0,-5.54 3.143,0 0,2.38 1.618,0 0,-3.979 -6.377,0 0,14.257 -0.398,3.653 -0.362,-3.653 0,-15.019 7.899,0 0,5.501 -3.142,0 0,-2.379 -1.618,0 0,4.018 4.76,0 0,3.12 -4.76,0 0,1.637 4.76,0 0,3.121 0,0 z" /><path
         inkscape:connector-curvature="0"
         id="path312"
         d="m 98.267862,623.37008 -0.399,3.653 -0.36,-3.653 0,-4.737 -1.618,0 0,2.378 -3.142,0 0,-10.298 3.142,0 0,2.38 1.618,0 0,-3.979 -6.377,0 0,14.257 -0.398,3.653 -0.362,-3.653 0,-15.019 7.899,0 0,5.501 -3.142,0 0,-2.379 -1.618,0 0,8.772 1.618,0 0,-2.379 3.142,0 0,5.503 0,0 z" /><path
         inkscape:connector-curvature="0"
         id="path314"
         d="m 108.09086,623.37008 -0.398,3.653 -0.36,-3.653 0,-14.257 -1.618,0 0,9.52 -3.142,0 0,-9.52 -1.617,0 0,14.257 -0.399,3.653 -0.361,-3.653 0,-15.019 3.143,0 0,9.518 1.617,0 0,-9.518 3.141,0 0,15.019 -0.01,0 z m -2.379,0 -0.4,3.653 -0.36,-3.653 0,-2.379 -1.617,0 0,2.379 -0.399,3.653 -0.36,-3.653 0,-3.14 3.142,0 0,3.14 -0.01,0 z" /><path
         inkscape:connector-curvature="0"
         id="path316"
         d="m 118.00886,623.37008 -0.399,3.653 -0.361,-3.653 0,-14.257 -1.638,0 0,8.762 -3.019,-8.762 -1.723,0 0,14.257 -0.397,3.653 -0.362,-3.653 0,-15.019 3.026,0 1.713,5.007 0,-5.007 3.16,0 0,15.019 0,0 z m -2.266,-0.01 -0.402,3.663 -0.365,-3.653 -1.727,-5.007 0,5.007 -0.398,3.653 -0.361,-3.653 0,-9.477 3.253,9.467 z" /><path
         inkscape:connector-curvature="0"
         id="path318"
         d="m 127.92486,623.37008 -0.399,3.653 -0.361,-3.653 0,-14.257 -6.377,0 0,14.257 -0.397,3.653 -0.362,-3.653 0,-15.019 7.899,0 0,15.019 0,0 z m -2.38,-12.638 0,10.26 -3.142,0 0,-10.26 3.142,0 z m -0.763,0.761 -1.616,0 0,8.737 1.616,0 0,-8.737 z" /><path
         inkscape:connector-curvature="0"
         id="path320"
         d="m 135.46186,623.37008 -0.4,3.653 -0.36,-3.653 0,-2.359 -2.379,0 0,-11.896 -1.618,0 0,14.257 -0.398,3.653 -0.361,-3.653 0,-15.019 3.143,0 0,11.896 2.379,0 0,3.123 -0.01,0 0,0 z" /><path
         inkscape:connector-curvature="0"
         id="path322"
         d="m 144.99886,623.37008 -0.4,3.653 -0.36,-3.653 0,-14.257 -6.377,0 0,14.257 -0.398,3.653 -0.361,-3.653 0,-15.019 7.899,0 0,15.019 0,0 z m -2.381,-12.638 0,10.26 -3.143,0 0,-10.26 3.143,0 z m -0.762,0.761 -1.618,0 0,8.737 1.618,0 0,-8.737 z" /><path
         inkscape:connector-curvature="0"
         id="path324"
         d="m 154.91486,623.37008 -0.4,3.653 -0.36,-3.653 0,-7.117 -1.618,0 0,4.758 -3.143,0 0,-10.297 3.143,0 0,2.379 1.618,0 0,-3.979 -6.377,0 0,14.257 -0.398,3.653 -0.362,-3.653 0,-15.019 7.899,0 0,5.501 -3.142,0 0,-2.379 -1.618,0 0,8.772 1.618,0 0,-4.757 3.142,0 0,7.881 0,0 z" /><path
         inkscape:connector-curvature="0"
         id="path326"
         d="m 164.79286,623.37008 -0.399,3.653 -0.361,-3.653 0,-14.257 -1.617,0 0,7.139 -3.143,0 0,-7.139 -1.616,0 0,8.736 4.759,0 0,3.159 -4.759,0 0,2.359 -0.397,3.653 -0.362,-3.653 0,-3.122 4.758,0 0,-1.637 -4.758,0 0,-10.26 3.141,0 0,7.14 1.617,0 0,-7.14 3.143,0 0,15.02 -0.01,0 0,0 z" /></g><line
       x1="44.038998"
       y1="532.95416"
       x2="66.615051"
       y2="577.44318"
       id="line378"
       style="fill:none;stroke:#000000;stroke-width:2;stroke-linecap:round" /><line
       x1="134.19104"
       y1="532.95416"
       x2="111.61511"
       y2="577.44318"
       id="line380"
       style="fill:none;stroke:#000000;stroke-width:2;stroke-linecap:round" /><polyline
       points="1115.64,827.951 1112.609,810.755 1103.841,815.076 "
       id="polyline406"
       transform="translate(-1054.557,-261.28373)" /><polyline
       points="1171.827,827.951 1174.854,810.755 1183.626,815.076 "
       id="polyline408"
       transform="translate(-1054.967,-261.28373)" /><line
       x1="89.047852"
       y1="511.16412"
       x2="21.054867"
       y2="578.90411"
       id="line424"
       style="fill:none;stroke:#000000;stroke-width:2;stroke-linecap:round" /><polyline
       points="1128.687,785.776 1113.71,794.756 1120.882,801.397 "
       id="polyline426"
       transform="translate(-1055.0041,-259.6639)" /><line
       x1="89.055969"
       y1="511.16412"
       x2="157.04895"
       y2="578.90411"
       id="line428"
       style="fill:none;stroke:#000000;stroke-width:2;stroke-linecap:round" /><polyline
       points="1159.425,785.776 1174.4,794.756 1167.229,801.397 "
       id="polyline430"
       transform="translate(-1055.0041,-259.6639)" /><circle
       cx="88.922882"
       cy="511.16409"
       r="4.75"
       id="circle438" /><g
       id="g440"
       transform="matrix(1.218549,0,0,1.218549,-1314.9013,-379.2159)"><path
         d="m 1176.438,568.025 c -7.882,-4.429 -13.207,-12.868 -13.207,-22.551 0,-14.275 11.573,-25.849 25.85,-25.849 14.273,0 25.847,11.572 25.847,25.849 0,9.689 -5.332,18.137 -13.225,22.562"
         id="path442"
         inkscape:connector-curvature="0"
         style="fill:none;stroke:#030303;stroke-width:0.41032407" /><line
         x1="1181.724"
         y1="518.09998"
         x2="1182.369"
         y2="520.51001"
         id="line444"
         style="fill:none;stroke:#030303;stroke-width:0.61548615" /><line
         x1="1173.714"
         y1="518.89899"
         x2="1176.1379"
         y2="523.09601"
         id="line446"
         style="fill:none;stroke:#030303;stroke-width:0.82064813" /><line
         x1="1169.021"
         y1="525.44202"
         x2="1170.7841"
         y2="527.20599"
         id="line448"
         style="fill:none;stroke:#030303;stroke-width:0.61548615" /><line
         x1="1162.5291"
         y1="530.164"
         x2="1166.6801"
         y2="532.56097"
         id="line450"
         style="fill:none;stroke:#030303;stroke-width:0.82064813" /><line
         x1="1161.6899"
         y1="538.15002"
         x2="1164.103"
         y2="538.79797"
         id="line452"
         style="fill:none;stroke:#030303;stroke-width:0.61548615" /><line
         x1="1158.4091"
         y1="545.487"
         x2="1163.224"
         y2="545.487"
         id="line454"
         style="fill:none;stroke:#030303;stroke-width:0.82064813" /><line
         x1="1161.696"
         y1="552.82202"
         x2="1164.1071"
         y2="552.177"
         id="line456"
         style="fill:none;stroke:#030303;stroke-width:0.61548615" /><line
         x1="1162.522"
         y1="560.81598"
         x2="1166.691"
         y2="558.409"
         id="line458"
         style="fill:none;stroke:#030303;stroke-width:0.82064813" /><line
         x1="1169.038"
         y1="565.52502"
         x2="1170.803"
         y2="563.76099"
         id="line460"
         style="fill:none;stroke:#030303;stroke-width:0.61548615" /><line
         x1="1173.83"
         y1="571.89502"
         x2="1176.156"
         y2="567.86603"
         id="line462"
         style="fill:none;stroke:#030303;stroke-width:0.82064813" /><line
         x1="1204.354"
         y1="571.92499"
         x2="1202.006"
         y2="567.85303"
         id="line464"
         style="fill:none;stroke:#030303;stroke-width:0.82064813" /><line
         x1="1209.12"
         y1="565.508"
         x2="1207.3571"
         y2="563.74402"
         id="line466"
         style="fill:none;stroke:#030303;stroke-width:0.61548615" /><line
         x1="1215.535"
         y1="560.73999"
         x2="1211.462"
         y2="558.38702"
         id="line468"
         style="fill:none;stroke:#030303;stroke-width:0.82064813" /><line
         x1="1216.449"
         y1="552.79999"
         x2="1214.041"
         y2="552.15198"
         id="line470"
         style="fill:none;stroke:#030303;stroke-width:0.61548615" /><line
         x1="1219.578"
         y1="545.46301"
         x2="1214.918"
         y2="545.46301"
         id="line472"
         style="fill:none;stroke:#030303;stroke-width:0.82064813" /><line
         x1="1216.443"
         y1="538.12598"
         x2="1214.033"
         y2="538.77301"
         id="line474"
         style="fill:none;stroke:#030303;stroke-width:0.61548615" /><line
         x1="1215.506"
         y1="530.198"
         x2="1211.45"
         y2="532.539"
         id="line476"
         style="fill:none;stroke:#030303;stroke-width:0.82064813" /><line
         x1="1209.104"
         y1="525.42603"
         x2="1207.3409"
         y2="527.18799"
         id="line478"
         style="fill:none;stroke:#030303;stroke-width:0.61548615" /><line
         x1="1204.407"
         y1="518.88898"
         x2="1201.985"
         y2="523.08197"
         id="line480"
         style="fill:none;stroke:#030303;stroke-width:0.82064813" /><line
         x1="1196.396"
         y1="518.09497"
         x2="1195.748"
         y2="520.505"
         id="line482"
         style="fill:none;stroke:#030303;stroke-width:0.61548615" /><line
         x1="1189.059"
         y1="514.85303"
         x2="1189.059"
         y2="519.62598"
         id="line484"
         style="fill:none;stroke:#030303;stroke-width:0.82064813" /><circle
         cx="1189.163"
         cy="545.40198"
         r="25.851"
         id="circle486"
         style="fill:none" /></g><g
       id="g488"
       transform="matrix(1.2185466,0,0,1.2185466,-1294.4847,-379.4293)"><path
         d="m 1085.827,568.204 c -7.882,-4.429 -13.207,-12.866 -13.207,-22.551 0,-14.275 11.573,-25.848 25.85,-25.848 14.273,0 25.848,11.572 25.848,25.848 0,9.691 -5.333,18.137 -13.226,22.562"
         id="path490"
         inkscape:connector-curvature="0"
         style="fill:none;stroke:#030303;stroke-width:0.41032487" /><line
         x1="1091.11"
         y1="518.27802"
         x2="1091.7581"
         y2="520.68799"
         id="line492"
         style="fill:none;stroke:#030303;stroke-width:0.61548734" /><line
         x1="1083.103"
         y1="519.07703"
         x2="1085.524"
         y2="523.27399"
         id="line494"
         style="fill:none;stroke:#030303;stroke-width:0.82064974" /><line
         x1="1078.408"
         y1="525.62097"
         x2="1080.173"
         y2="527.38501"
         id="line496"
         style="fill:none;stroke:#030303;stroke-width:0.61548734" /><line
         x1="1071.917"
         y1="530.34399"
         x2="1076.066"
         y2="532.73901"
         id="line498"
         style="fill:none;stroke:#030303;stroke-width:0.82064974" /><line
         x1="1071.078"
         y1="538.32898"
         x2="1073.488"
         y2="538.974"
         id="line500"
         style="fill:none;stroke:#030303;stroke-width:0.61548734" /><line
         x1="1067.798"
         y1="545.66498"
         x2="1072.61"
         y2="545.66498"
         id="line502"
         style="fill:none;stroke:#030303;stroke-width:0.82064974" /><line
         x1="1071.085"
         y1="553.00098"
         x2="1073.495"
         y2="552.354"
         id="line504"
         style="fill:none;stroke:#030303;stroke-width:0.61548734" /><line
         x1="1071.91"
         y1="560.99402"
         x2="1076.079"
         y2="558.58899"
         id="line506"
         style="fill:none;stroke:#030303;stroke-width:0.82064974" /><line
         x1="1078.427"
         y1="565.703"
         x2="1080.188"
         y2="563.93903"
         id="line508"
         style="fill:none;stroke:#030303;stroke-width:0.61548734" /><line
         x1="1083.219"
         y1="572.073"
         x2="1085.545"
         y2="568.04602"
         id="line510"
         style="fill:none;stroke:#030303;stroke-width:0.82064974" /><line
         x1="1113.7419"
         y1="572.10101"
         x2="1111.394"
         y2="568.03101"
         id="line512"
         style="fill:none;stroke:#030303;stroke-width:0.82064974" /><line
         x1="1118.509"
         y1="565.68402"
         x2="1116.745"
         y2="563.92401"
         id="line514"
         style="fill:none;stroke:#030303;stroke-width:0.61548734" /><line
         x1="1124.925"
         y1="560.91998"
         x2="1120.85"
         y2="558.565"
         id="line516"
         style="fill:none;stroke:#030303;stroke-width:0.82064974" /><line
         x1="1125.838"
         y1="552.97601"
         x2="1123.4301"
         y2="552.33002"
         id="line518"
         style="fill:none;stroke:#030303;stroke-width:0.61548734" /><line
         x1="1128.967"
         y1="545.64001"
         x2="1124.307"
         y2="545.64001"
         id="line520"
         style="fill:none;stroke:#030303;stroke-width:0.82064974" /><line
         x1="1125.8311"
         y1="538.30402"
         x2="1123.422"
         y2="538.95099"
         id="line522"
         style="fill:none;stroke:#030303;stroke-width:0.61548734" /><line
         x1="1124.896"
         y1="530.37598"
         x2="1120.839"
         y2="532.71899"
         id="line524"
         style="fill:none;stroke:#030303;stroke-width:0.82064974" /><line
         x1="1118.4919"
         y1="525.60303"
         x2="1116.729"
         y2="527.36603"
         id="line526"
         style="fill:none;stroke:#030303;stroke-width:0.61548734" /><line
         x1="1113.796"
         y1="519.06702"
         x2="1111.373"
         y2="523.26001"
         id="line528"
         style="fill:none;stroke:#030303;stroke-width:0.82064974" /><line
         x1="1105.782"
         y1="518.27301"
         x2="1105.137"
         y2="520.68201"
         id="line530"
         style="fill:none;stroke:#030303;stroke-width:0.61548734" /><line
         x1="1098.4449"
         y1="515.03101"
         x2="1098.4449"
         y2="519.80402"
         id="line532"
         style="fill:none;stroke:#030303;stroke-width:0.82064974" /><circle
         cx="1098.552"
         cy="545.578"
         r="25.851"
         id="circle534"
         style="fill:none" /></g><g
       id="g824"
       transform="matrix(1.2185682,0,0,1.2185682,-1314.9001,-409.57131)"><path
         d="m 1176.419,703.717 c -7.883,-4.43 -13.207,-12.867 -13.207,-22.553 0,-14.273 11.572,-25.848 25.849,-25.848 14.274,0 25.847,11.573 25.847,25.848 0,9.691 -5.332,18.139 -13.225,22.562"
         id="path826"
         inkscape:connector-curvature="0"
         style="fill:none;stroke:#030303;stroke-width:0.41031763" /><line
         x1="1181.701"
         y1="653.78998"
         x2="1182.349"
         y2="656.20001"
         id="line828"
         style="fill:none;stroke:#030303;stroke-width:0.61547643" /><line
         x1="1173.691"
         y1="654.591"
         x2="1176.115"
         y2="658.78601"
         id="line830"
         style="fill:none;stroke:#030303;stroke-width:0.82063526" /><line
         x1="1168.999"
         y1="661.13397"
         x2="1170.764"
         y2="662.896"
         id="line832"
         style="fill:none;stroke:#030303;stroke-width:0.61547643" /><line
         x1="1162.509"
         y1="665.854"
         x2="1166.657"
         y2="668.25098"
         id="line834"
         style="fill:none;stroke:#030303;stroke-width:0.82063526" /><line
         x1="1161.67"
         y1="673.84198"
         x2="1164.079"
         y2="674.48602"
         id="line836"
         style="fill:none;stroke:#030303;stroke-width:0.61547643" /><line
         x1="1158.389"
         y1="681.177"
         x2="1163.201"
         y2="681.177"
         id="line838"
         style="fill:none;stroke:#030303;stroke-width:0.82063526" /><line
         x1="1161.676"
         y1="688.51202"
         x2="1164.087"
         y2="687.86603"
         id="line840"
         style="fill:none;stroke:#030303;stroke-width:0.61547643" /><line
         x1="1162.501"
         y1="696.508"
         x2="1166.671"
         y2="694.09998"
         id="line842"
         style="fill:none;stroke:#030303;stroke-width:0.82063526" /><line
         x1="1169.0179"
         y1="701.21698"
         x2="1170.78"
         y2="699.45099"
         id="line844"
         style="fill:none;stroke:#030303;stroke-width:0.61547643" /><line
         x1="1173.8101"
         y1="707.586"
         x2="1176.136"
         y2="703.55701"
         id="line846"
         style="fill:none;stroke:#030303;stroke-width:0.82063526" /><line
         x1="1204.333"
         y1="707.61298"
         x2="1201.983"
         y2="703.54498"
         id="line848"
         style="fill:none;stroke:#030303;stroke-width:0.82063526" /><line
         x1="1209.1"
         y1="701.19501"
         x2="1207.337"
         y2="699.43402"
         id="line850"
         style="fill:none;stroke:#030303;stroke-width:0.61547643" /><line
         x1="1215.516"
         y1="696.42999"
         x2="1211.438"
         y2="694.07599"
         id="line852"
         style="fill:none;stroke:#030303;stroke-width:0.82063526" /><line
         x1="1216.428"
         y1="688.48798"
         x2="1214.021"
         y2="687.84399"
         id="line854"
         style="fill:none;stroke:#030303;stroke-width:0.61547643" /><line
         x1="1219.557"
         y1="681.151"
         x2="1214.896"
         y2="681.151"
         id="line856"
         style="fill:none;stroke:#030303;stroke-width:0.82063526" /><line
         x1="1216.422"
         y1="673.81598"
         x2="1214.012"
         y2="674.46503"
         id="line858"
         style="fill:none;stroke:#030303;stroke-width:0.61547643" /><line
         x1="1215.484"
         y1="665.888"
         x2="1211.4301"
         y2="668.229"
         id="line860"
         style="fill:none;stroke:#030303;stroke-width:0.82063526" /><line
         x1="1209.083"
         y1="661.11401"
         x2="1207.318"
         y2="662.88"
         id="line862"
         style="fill:none;stroke:#030303;stroke-width:0.61547643" /><line
         x1="1204.387"
         y1="654.57898"
         x2="1201.965"
         y2="658.771"
         id="line864"
         style="fill:none;stroke:#030303;stroke-width:0.82063526" /><line
         x1="1196.373"
         y1="653.78497"
         x2="1195.728"
         y2="656.19299"
         id="line866"
         style="fill:none;stroke:#030303;stroke-width:0.61547643" /><line
         x1="1189.036"
         y1="650.54498"
         x2="1189.036"
         y2="655.31598"
         id="line868"
         style="fill:none;stroke:#030303;stroke-width:0.82063526" /><circle
         cx="1189.1429"
         cy="681.09003"
         r="25.851"
         id="circle870"
         style="fill:none" /></g><g
       id="g872"
       transform="matrix(1.2185466,0,0,1.2185466,-1294.6431,-409.87378)"><path
         d="m 1085.957,703.975 c -7.882,-4.428 -13.206,-12.867 -13.206,-22.55 0,-14.275 11.572,-25.85 25.849,-25.85 14.273,0 25.848,11.573 25.848,25.85 0,9.689 -5.333,18.136 -13.226,22.56"
         id="path874"
         inkscape:connector-curvature="0"
         style="fill:none;stroke:#030303;stroke-width:0.41032487" /><line
         x1="1091.24"
         y1="654.052"
         x2="1091.8879"
         y2="656.46198"
         id="line876"
         style="fill:none;stroke:#030303;stroke-width:0.61548734" /><line
         x1="1083.229"
         y1="654.849"
         x2="1085.6541"
         y2="659.04797"
         id="line878"
         style="fill:none;stroke:#030303;stroke-width:0.82064974" /><line
         x1="1078.538"
         y1="661.39301"
         x2="1080.303"
         y2="663.15601"
         id="line880"
         style="fill:none;stroke:#030303;stroke-width:0.61548734" /><line
         x1="1072.048"
         y1="666.11401"
         x2="1076.196"
         y2="668.51099"
         id="line882"
         style="fill:none;stroke:#030303;stroke-width:0.82064974" /><line
         x1="1071.208"
         y1="674.10101"
         x2="1073.618"
         y2="674.74597"
         id="line884"
         style="fill:none;stroke:#030303;stroke-width:0.61548734" /><line
         x1="1067.928"
         y1="681.43701"
         x2="1072.74"
         y2="681.43701"
         id="line886"
         style="fill:none;stroke:#030303;stroke-width:0.82064974" /><line
         x1="1071.215"
         y1="688.771"
         x2="1073.626"
         y2="688.12598"
         id="line888"
         style="fill:none;stroke:#030303;stroke-width:0.61548734" /><line
         x1="1072.04"
         y1="696.76599"
         x2="1076.21"
         y2="694.35901"
         id="line890"
         style="fill:none;stroke:#030303;stroke-width:0.82064974" /><line
         x1="1078.557"
         y1="701.47498"
         x2="1080.319"
         y2="699.71301"
         id="line892"
         style="fill:none;stroke:#030303;stroke-width:0.61548734" /><line
         x1="1083.349"
         y1="707.84399"
         x2="1085.675"
         y2="703.81598"
         id="line894"
         style="fill:none;stroke:#030303;stroke-width:0.82064974" /><line
         x1="1113.8719"
         y1="707.87299"
         x2="1111.522"
         y2="703.80298"
         id="line896"
         style="fill:none;stroke:#030303;stroke-width:0.82064974" /><line
         x1="1118.639"
         y1="701.45502"
         x2="1116.876"
         y2="699.69299"
         id="line898"
         style="fill:none;stroke:#030303;stroke-width:0.61548734" /><line
         x1="1125.0551"
         y1="696.68903"
         x2="1120.979"
         y2="694.33801"
         id="line900"
         style="fill:none;stroke:#030303;stroke-width:0.82064974" /><line
         x1="1125.968"
         y1="688.74799"
         x2="1123.5601"
         y2="688.10199"
         id="line902"
         style="fill:none;stroke:#030303;stroke-width:0.61548734" /><line
         x1="1129.097"
         y1="681.41199"
         x2="1124.437"
         y2="681.41199"
         id="line904"
         style="fill:none;stroke:#030303;stroke-width:0.82064974" /><line
         x1="1125.962"
         y1="674.07599"
         x2="1123.552"
         y2="674.72302"
         id="line906"
         style="fill:none;stroke:#030303;stroke-width:0.61548734" /><line
         x1="1125.022"
         y1="666.14801"
         x2="1120.969"
         y2="668.48901"
         id="line908"
         style="fill:none;stroke:#030303;stroke-width:0.82064974" /><line
         x1="1118.6219"
         y1="661.37598"
         x2="1116.8571"
         y2="663.138"
         id="line910"
         style="fill:none;stroke:#030303;stroke-width:0.61548734" /><line
         x1="1113.926"
         y1="654.841"
         x2="1111.504"
         y2="659.03198"
         id="line912"
         style="fill:none;stroke:#030303;stroke-width:0.82064974" /><line
         x1="1105.912"
         y1="654.047"
         x2="1105.267"
         y2="656.45398"
         id="line914"
         style="fill:none;stroke:#030303;stroke-width:0.61548734" /><line
         x1="1098.575"
         y1="650.80298"
         x2="1098.575"
         y2="655.57599"
         id="line916"
         style="fill:none;stroke:#030303;stroke-width:0.82064974" /><circle
         cx="1098.682"
         cy="681.34998"
         r="25.851"
         id="circle918"
         style="fill:none" /></g><g
       id="g1054"
       transform="matrix(0.6,0,0,0.6,-597.28862,-63.650964)"><g
         id="g1056"><path
           style="fill:none;stroke:#030303;stroke-width:1.66666663"
           inkscape:connector-curvature="0"
           id="path1058"
           d="m 1138.17,553.937 c -3.603,-2.024 -6.035,-5.878 -6.035,-10.302 0,-6.522 5.288,-11.812 11.812,-11.812 6.521,0 11.81,5.288 11.81,11.812 0,4.427 -2.437,8.285 -6.043,10.306" /><path
           style="fill:none;stroke:#030303;stroke-width:1.66666663"
           inkscape:connector-curvature="0"
           id="path1060"
           d="M 1133.716,549.545" /><path
           style="fill:none;stroke:#030303;stroke-width:1.66666663"
           inkscape:connector-curvature="0"
           id="path1062"
           d="M 1138.039,553.864" /><path
           style="fill:none;stroke:#030303;stroke-width:1.66666663"
           inkscape:connector-curvature="0"
           id="path1064"
           d="M 1136.978,555.705" /><circle
           style="fill:none"
           id="circle1066"
           r="11.81"
           cy="543.59998"
           cx="1143.9821" /></g><polygon
         style="fill:#030303"
         id="polygon1068"
         points="1142.022,556.364 1137.868,550.251 1135.022,553.947 " /><polygon
         style="fill:#030303"
         id="polygon1070"
         points="1146.326,556.373 1150.437,550.228 1153.31,553.903 " /></g><g
       id="g1072"
       transform="matrix(0.6,0,0,0.6,-596.88202,-38.036194)"><line
         style="fill:none;stroke:#030303;stroke-width:1.66666663"
         id="line1074"
         y2="624.229"
         x2="1132.702"
         y1="602.53601"
         x1="1132.702" /><line
         style="fill:none;stroke:#030303;stroke-width:1.66666663"
         id="line1076"
         y2="624.11499"
         x2="1155.226"
         y1="602.59399"
         x1="1155.226" /><path
         style="fill:none;stroke:#030303;stroke-width:1.66666663"
         inkscape:connector-curvature="0"
         id="path1078"
         d="M 1155.11,613.299" /><line
         style="fill:none;stroke:#030303;stroke-width:1.66666663"
         id="line1080"
         y2="613.29901"
         x2="1149.759"
         y1="613.29901"
         x1="1132.931" /><polygon
         style="fill:#030303"
         id="polygon1082"
         points="1147.078,610.646 1147.021,616.055 1155.104,613.322 " /></g><g
       id="g1084"
       transform="matrix(0.6,0,0,0.6,-597.26332,-11.294004)"><line
         style="fill:none;stroke:#030303;stroke-width:1.66666663"
         id="line1086"
         y2="681.19202"
         x2="1155.001"
         y1="681.19202"
         x1="1132.927" /><g
         id="g1088"><line
           style="fill:none;stroke:#030303;stroke-width:1.66666663"
           id="line1090"
           y2="691.86298"
           x2="1133.262"
           y1="670.578"
           x1="1133.262" /><line
           style="fill:none;stroke:#030303;stroke-width:1.66666663"
           id="line1092"
           y2="691.86298"
           x2="1143.965"
           y1="670.578"
           x1="1143.965" /><line
           style="fill:none;stroke:#030303;stroke-width:1.66666663"
           id="line1094"
           y2="691.86298"
           x2="1147.233"
           y1="670.578"
           x1="1147.233" /><line
           style="fill:none;stroke:#030303;stroke-width:1.66666663"
           id="line1096"
           y2="691.86298"
           x2="1149.3149"
           y1="670.578"
           x1="1149.3149" /><line
           style="fill:none;stroke:#030303;stroke-width:1.66666663"
           id="line1098"
           y2="691.86298"
           x2="1150.803"
           y1="670.578"
           x1="1150.803" /><line
           style="fill:none;stroke:#030303;stroke-width:1.66666663"
           id="line1100"
           y2="691.86298"
           x2="1151.99"
           y1="670.578"
           x1="1151.99" /><line
           style="fill:none;stroke:#030303;stroke-width:1.66666663"
           id="line1102"
           y2="691.86298"
           x2="1153.182"
           y1="670.578"
           x1="1153.182" /><line
           style="fill:none;stroke:#030303;stroke-width:1.66666663"
           id="line1104"
           y2="691.86298"
           x2="1153.774"
           y1="670.578"
           x1="1153.774" /><line
           style="fill:none;stroke:#030303;stroke-width:1.66666663"
           id="line1106"
           y2="691.86298"
           x2="1154.667"
           y1="670.578"
           x1="1154.667" /><line
           style="fill:none;stroke:#030303;stroke-width:1.66666663"
           id="line1108"
           y2="691.86298"
           x2="1140.396"
           y1="670.578"
           x1="1140.396" /></g></g><g
       id="g1110"
       transform="translate(-1054.9419,-261.50278)"><path
         d="m 1146.288,728.301 -0.039,0.155 -0.061,0.207 -0.15,0.246 -0.188,0 -0.171,0.05 -0.159,-0.05 -0.21,-0.04 -0.221,-0.04 -0.12,0 -0.141,0 0,0.07 0.021,0.152 0,0.173 0.047,0.202 0.022,0.231 -0.069,0.243 -0.069,0.192 -0.08,0.15 -0.101,0.053 -0.149,0.028 -0.149,0 -0.148,-0.08 -0.102,-0.09 -0.131,-0.12 -0.1,-0.148 -0.07,-0.13 0.07,-0.25 0,-0.172 0,-0.21 0,-0.17 0,-0.08 -0.071,0 -0.151,0.03 -0.172,0 -0.203,0.053 -0.231,0.027 -0.243,-0.08 -0.191,-0.08 -0.151,-0.082 -0.052,-0.102 -0.029,-0.153 0,-0.153 0.08,-0.146 0.09,-0.099 0.119,-0.128 0.149,-0.099 0.13,-0.07 0.25,0.07 0.171,-0.01 0.21,0.01 0.189,0 -0.011,-0.069 -0.04,-0.118 0,-0.158 0,-0.189 -0.029,-0.146 0.08,-0.248 0.061,-0.278 0.141,-0.119 0.141,-0.09 0.21,-0.089 0.151,0.039 0.199,0.061 0.238,0.15 0,0.188 0.061,0.17 -0.061,0.16 -0.021,0.21 -0.052,0.222 0,0.119 0,0.069 0.182,-0.04 0.159,0 0.189,0 0.149,-0.029 0.25,0.078 0.279,0.061 0.119,0.138 0.09,0.138 0.089,0.21 z"
         id="path1112"
         inkscape:connector-curvature="0" /></g><g
       id="g1246"
       transform="matrix(1.7082655,0,0,1.7082655,-1784.696,-604.9101)"><g
         id="g1248"><g
           id="g1250"><path
             d="m 1123.19,483.47 c -0.054,-0.011 -0.28,-0.03 -0.508,-0.044 -0.229,-0.015 -0.424,-0.042 -0.438,-0.062 -0.016,-0.021 -0.059,-0.038 -0.103,-0.038 -0.087,10e-4 -0.157,-0.104 -0.517,-0.777 -0.137,-0.254 -0.281,-0.586 -0.32,-0.738 -0.037,-0.151 -0.137,-0.494 -0.218,-0.763 -0.083,-0.271 -0.146,-0.544 -0.147,-0.611 0,-0.067 -0.028,-0.198 -0.062,-0.292 -0.032,-0.094 -0.086,-0.253 -0.116,-0.354 -0.034,-0.119 -0.094,-0.199 -0.163,-0.237 -0.104,-0.054 -0.295,-0.382 -0.559,-0.972 -0.055,-0.113 -0.147,-0.312 -0.215,-0.439 -0.066,-0.129 -0.155,-0.355 -0.192,-0.505 -0.131,-0.49 -0.234,-0.608 -0.521,-0.582 -0.142,0.013 -0.157,0.027 -0.2,0.183 -0.021,0.093 -0.085,0.255 -0.137,0.36 -0.049,0.104 -0.09,0.212 -0.09,0.239 0,0.024 -0.03,0.069 -0.063,0.101 -0.036,0.029 -0.062,0.115 -0.062,0.192 10e-4,0.121 -0.14,0.593 -0.25,0.845 -0.02,0.046 -0.074,0.208 -0.119,0.357 -0.086,0.287 -0.509,1.412 -0.65,1.729 -0.046,0.1 -0.249,0.52 -0.452,0.934 -0.2,0.412 -0.444,0.908 -0.54,1.103 l -0.173,0.351 -0.239,-0.024 c -0.214,-0.022 -0.244,-0.018 -0.284,0.06 -0.024,0.045 -0.036,0.092 -0.025,0.102 0.011,0.013 0.03,0.1 0.041,0.192 l 0.024,0.172 -0.309,0.119 c -0.372,0.146 -0.433,0.197 -0.368,0.315 0.034,0.062 0.087,0.084 0.184,0.079 0.16,-0.011 0.818,-0.192 0.89,-0.246 0.126,-0.101 0.817,-0.232 1.198,-0.231 0.338,10e-4 0.347,-10e-4 0.375,-0.105 0.029,-0.125 -0.043,-0.313 -0.122,-0.312 -0.031,0 -0.079,-0.039 -0.111,-0.088 -0.048,-0.077 -0.08,-0.085 -0.244,-0.062 -0.306,0.049 -0.306,0.051 0.107,-1.075 l 0.178,-0.488 0.725,-0.015 c 0.396,-0.011 0.926,-0.022 1.182,-0.029 l 0.461,-0.013 0.1,0.273 c 0.056,0.15 0.102,0.334 0.103,0.408 0.01,0.222 0.091,0.568 0.208,0.828 0.081,0.181 0.098,0.257 0.062,0.292 -0.029,0.026 -0.229,0.05 -0.504,0.054 l -0.453,0.006 -0.016,0.11 c -0.019,0.181 0.162,0.268 0.527,0.253 0.175,-0.006 0.316,0.008 0.332,0.032 0.016,0.022 0.182,0.042 0.377,0.042 0.304,-0.002 0.361,0.01 0.433,0.085 0.068,0.075 0.107,0.084 0.25,0.056 0.093,-0.018 0.28,-0.034 0.416,-0.038 0.163,-0.004 0.265,-0.028 0.295,-0.07 0.104,-0.128 0.354,-0.223 0.714,-0.27 0.317,-0.042 0.366,-0.06 0.348,-0.122 -0.016,-0.04 -0.01,-0.084 0.021,-0.1 0.068,-0.05 0.039,-0.15 -0.061,-0.17 z m -3.032,-2.147 c -0.054,0.056 -1.062,0.035 -1.332,-0.024 -0.146,-0.033 -0.396,-0.072 -0.557,-0.087 -0.294,-0.028 -0.364,-0.064 -0.293,-0.155 0.046,-0.054 0.316,-0.747 0.568,-1.45 0.085,-0.233 0.188,-0.47 0.228,-0.525 l 0.076,-0.102 0.342,0.669 c 0.32,0.632 0.571,1.047 0.866,1.424 0.135,0.171 0.148,0.201 0.102,0.25 z"
             id="path1252"
             inkscape:connector-curvature="0" /></g></g><path
         id="path11424_1_"
         d="m 1114.244,483.965 c -0.045,0.022 -0.113,0.075 -0.151,0.117 -0.057,0.056 -0.169,0.082 -0.414,0.099 l -0.341,0.022 -0.044,0.184 c -0.079,0.342 -0.276,0.359 -0.424,0.039 l -0.103,-0.228 -0.395,-0.03 c -0.218,-0.018 -0.51,-0.026 -0.649,-0.021 -0.399,0.012 -0.448,-0.01 -0.437,-0.192 0.019,-0.217 0.2,-0.319 0.646,-0.359 0.332,-0.031 0.656,-0.081 0.656,-0.102 0,-0.006 -0.031,-0.071 -0.072,-0.147 -0.059,-0.119 -0.064,-0.242 -0.049,-0.868 0.012,-0.4 0.049,-0.858 0.08,-1.02 0.145,-0.674 0.189,-1.098 0.208,-1.856 0.011,-0.442 0.022,-0.841 0.023,-0.888 0,-0.047 10e-4,-0.177 0,-0.286 -0.01,-0.176 -0.024,-0.211 -0.14,-0.279 -0.069,-0.043 -0.24,-0.09 -0.376,-0.104 -0.289,-0.031 -0.638,-0.226 -0.639,-0.354 -10e-4,-0.101 0.093,-0.134 0.341,-0.126 0.104,0.003 0.245,-0.024 0.314,-0.062 0.188,-0.099 1.021,-0.146 1.396,-0.084 0.491,0.084 0.562,0.161 0.42,0.454 -0.09,0.185 -0.175,0.242 -0.352,0.244 -0.149,0.002 -0.154,0.007 -0.184,0.192 -0.017,0.104 -0.021,1.227 -0.013,2.495 0.011,1.268 0.01,2.399 -0.011,2.521 l -0.031,0.214 0.371,0.026 c 0.199,0.015 0.386,0.037 0.404,0.049 0.087,0.039 0.055,0.302 -0.03,0.35 l 0,0 z"
         inkscape:connector-curvature="0" /><path
         id="path11416_1_"
         d="m 1110.188,482.958 c -0.041,0.099 -0.094,0.201 -0.115,0.233 -0.023,0.033 -0.089,0.146 -0.146,0.25 -0.057,0.105 -0.165,0.274 -0.239,0.375 -0.076,0.103 -0.138,0.211 -0.138,0.245 0,0.034 -0.048,0.083 -0.105,0.11 -0.141,0.063 -0.306,-0.011 -0.341,-0.152 -0.025,-0.093 -0.052,-0.107 -0.205,-0.105 -0.312,0.006 -1.164,0.084 -1.213,0.115 -0.026,0.018 -0.146,0.037 -0.266,0.045 -0.119,0.011 -0.314,0.04 -0.437,0.064 -0.12,0.023 -0.338,0.044 -0.485,0.042 -0.473,-0.006 -1.148,0.055 -1.357,0.123 -0.198,0.062 -0.207,0.062 -0.309,-0.031 -0.073,-0.068 -0.103,-0.141 -0.103,-0.253 0,-0.138 0.017,-0.165 0.148,-0.229 0.081,-0.04 0.267,-0.09 0.407,-0.108 0.14,-0.021 0.271,-0.057 0.291,-0.076 0.045,-0.043 0.042,-1.871 0,-2.296 -0.023,-0.24 -0.048,-0.3 -0.132,-0.354 -0.123,-0.081 -0.132,-0.233 -0.02,-0.339 0.08,-0.072 0.083,-0.125 0.065,-1.191 -0.017,-1.065 -0.013,-1.121 0.064,-1.18 0.077,-0.058 0.072,-0.062 -0.066,-0.061 -0.082,0 -0.263,-0.036 -0.396,-0.082 -0.133,-0.046 -0.3,-0.083 -0.362,-0.083 -0.164,0 -0.255,-0.144 -0.229,-0.356 0.013,-0.091 0.029,-0.172 0.038,-0.181 0.062,-0.063 1.435,-0.191 2.221,-0.206 0.197,-0.004 0.653,0.003 1.016,0.018 0.359,0.015 0.937,0.024 1.277,0.024 0.543,10e-4 0.623,0.01 0.642,0.072 0.031,0.101 0.098,1.352 0.083,1.529 -0.016,0.173 -0.067,0.254 -0.173,0.255 -0.113,0 -0.154,-0.074 -0.265,-0.486 l -0.101,-0.377 -0.227,-0.108 c -0.124,-0.059 -0.248,-0.108 -0.272,-0.11 -0.027,-0.002 -0.166,-0.033 -0.308,-0.067 -0.312,-0.078 -1.026,-0.078 -1.447,0 -0.171,0.032 -0.318,0.068 -0.332,0.083 -0.047,0.048 -0.132,0.939 -0.136,1.404 0,0.686 -0.01,0.654 0.091,0.654 0.052,0 0.103,0.039 0.126,0.103 0.046,0.119 -0.064,0.104 1.7,0.245 0.318,0.024 0.299,0.048 0.369,-0.381 0.056,-0.351 0.181,-0.706 0.265,-0.762 0.089,-0.057 0.189,0.038 0.271,0.26 0.085,0.229 0.108,1.061 0.033,1.185 -0.031,0.053 -0.087,0.096 -0.116,0.097 -0.043,0 -0.065,0.09 -0.084,0.328 -0.028,0.375 -0.078,0.501 -0.201,0.535 -0.164,0.043 -0.241,-0.082 -0.243,-0.393 0,-0.424 -0.01,-0.425 -1.202,-0.405 -0.524,0.008 -0.959,0.014 -0.96,0.014 0,0 -0.024,0.312 -0.053,0.688 -0.042,0.562 -0.066,0.705 -0.129,0.775 -0.068,0.075 -0.08,0.159 -0.078,0.62 l 0,0.533 0.169,0.037 c 0.254,0.054 2.059,-0.04 2.656,-0.138 0.152,-0.025 0.166,-0.041 0.339,-0.416 0.098,-0.211 0.2,-0.459 0.229,-0.549 0.053,-0.161 0.23,-0.41 0.299,-0.411 0.041,0 0.148,0.224 0.184,0.379 0.012,0.058 0.033,0.143 0.046,0.188 0.019,0.047 10e-4,0.163 -0.039,0.258 l 0,0 z"
         inkscape:connector-curvature="0" /><path
         id="path11414_1_"
         d="m 1108.771,477.657 c -0.082,0 -0.147,0.019 -0.146,0.04 0,0.04 0.242,0.086 0.274,0.051 0.053,-0.057 0.01,-0.092 -0.128,-0.091 z"
         inkscape:connector-curvature="0" /><path
         id="path11412_1_"
         d="m 1108.486,477.674 c -0.034,0.014 -0.022,0.022 0.025,0.023 0.044,0.002 0.07,-0.009 0.056,-0.021 -0.011,-0.015 -0.048,-0.017 -0.081,-0.002 l 0,0 z"
         inkscape:connector-curvature="0" /><path
         id="path11406_1_"
         d="m 1103.542,477.67 c -0.125,0.104 -0.153,0.109 -0.396,0.087 l -0.261,-0.026 -0.122,0.154 c -0.066,0.086 -0.169,0.206 -0.228,0.269 -0.061,0.062 -0.208,0.237 -0.333,0.392 -0.123,0.149 -0.236,0.283 -0.255,0.297 -0.018,0.012 -0.089,0.126 -0.161,0.254 -0.07,0.128 -0.364,0.486 -0.653,0.799 -0.291,0.311 -0.525,0.575 -0.525,0.587 0,0.011 0.043,0.102 0.101,0.198 0.236,0.413 0.391,0.656 0.581,0.913 0.109,0.149 0.255,0.369 0.316,0.482 0.062,0.117 0.175,0.28 0.25,0.366 0.077,0.083 0.29,0.345 0.475,0.577 0.187,0.234 0.367,0.428 0.404,0.431 0.037,0.002 0.146,0 0.241,-0.005 0.181,-0.011 0.222,0.018 0.25,0.169 0.012,0.049 0.041,0.119 0.072,0.155 0.111,0.132 -0.02,0.39 -0.199,0.392 -0.149,10e-4 -0.229,0.046 -0.229,0.13 0,0.125 -0.079,0.14 -0.262,0.046 -0.156,-0.081 -0.231,-0.089 -0.752,-0.073 -0.569,0.016 -0.581,0.014 -0.758,-0.102 -0.142,-0.092 -0.178,-0.142 -0.178,-0.237 0,-0.175 0.188,-0.323 0.455,-0.361 0.116,-0.016 0.225,-0.045 0.235,-0.064 0.011,-0.019 -0.038,-0.089 -0.11,-0.155 -0.066,-0.066 -0.198,-0.228 -0.28,-0.354 -0.083,-0.129 -0.254,-0.354 -0.375,-0.506 -0.245,-0.306 -0.403,-0.541 -0.595,-0.884 -0.07,-0.127 -0.161,-0.238 -0.201,-0.245 -0.077,-0.014 -0.49,0.406 -0.692,0.702 -0.394,0.576 -0.808,1.219 -0.808,1.252 0,0.021 0.031,0.036 0.072,0.031 0.163,-0.019 0.213,0.007 0.288,0.146 0.063,0.12 0.069,0.155 0.022,0.21 -0.049,0.062 -0.032,0.067 0.118,0.066 0.183,-10e-4 0.261,0.071 0.261,0.243 0,0.129 -0.156,0.178 -0.548,0.163 -0.196,-0.008 -0.74,-0.014 -1.21,-0.013 -0.811,0 -0.854,-0.003 -0.994,-0.095 -0.229,-0.152 -0.207,-0.381 0.034,-0.383 0.107,0 0.124,-0.018 0.122,-0.125 0,-0.163 0.077,-0.207 0.313,-0.181 0.229,0.028 0.545,-0.054 0.545,-0.143 0,-0.033 0.062,-0.123 0.141,-0.199 0.079,-0.076 0.158,-0.169 0.181,-0.204 0.019,-0.036 0.141,-0.187 0.268,-0.334 0.221,-0.256 0.346,-0.391 1.275,-1.376 0.221,-0.232 0.4,-0.455 0.4,-0.487 0,-0.035 -0.203,-0.329 -0.449,-0.653 -0.245,-0.324 -0.608,-0.845 -0.812,-1.158 -0.196,-0.312 -0.387,-0.603 -0.418,-0.645 -0.05,-0.062 -0.146,-0.081 -0.531,-0.101 -0.444,-0.02 -0.553,-0.051 -0.602,-0.168 -0.01,-0.019 -0.103,-0.081 -0.205,-0.137 -0.146,-0.078 -0.195,-0.131 -0.206,-0.218 -0.01,-0.072 0.01,-0.119 0.041,-0.123 0.032,-0.003 0.086,-0.012 0.119,-0.016 0.037,-0.004 0.12,0.021 0.189,0.058 0.09,0.044 0.234,0.06 0.48,0.052 0.195,-0.006 0.37,-0.021 0.387,-0.032 0.018,-0.011 0.276,-0.033 0.574,-0.048 0.301,-0.017 0.56,-0.039 0.572,-0.048 0.066,-0.039 0.596,0.039 0.65,0.096 0.104,0.104 0.077,0.224 -0.061,0.25 -0.077,0.018 -0.116,0.046 -0.104,0.079 0.013,0.029 -0.01,0.064 -0.046,0.079 -0.088,0.036 -0.062,0.17 0.141,0.751 0.107,0.312 0.247,0.609 0.381,0.812 0.114,0.177 0.256,0.396 0.312,0.487 0.057,0.094 0.117,0.168 0.136,0.168 0.033,0 0.597,-0.745 0.743,-0.985 0.052,-0.089 0.132,-0.187 0.176,-0.217 0.152,-0.106 0.585,-0.637 0.584,-0.712 -10e-4,-0.07 -0.21,-0.164 -0.373,-0.163 -0.028,0 -0.11,-0.029 -0.183,-0.064 -0.117,-0.062 -0.127,-0.081 -0.104,-0.211 0.018,-0.084 0.01,-0.146 -0.014,-0.146 -0.136,0.001 -0.242,-0.303 -0.122,-0.348 0.028,-0.011 0.231,-0.011 0.454,0 0.408,0.02 0.867,0.018 1.246,-0.005 0.114,-0.007 0.268,0.009 0.338,0.036 0.07,0.024 0.219,0.06 0.328,0.071 0.261,0.032 0.284,0.127 0.084,0.3 l 0,0 z"
         inkscape:connector-curvature="0" /><path
         id="path11404_1_"
         d="m 1100.929,481.817 c -0.016,0.015 -0.017,0.051 0,0.081 0.016,0.034 0.023,0.023 0.025,-0.026 10e-4,-0.045 -0.01,-0.069 -0.021,-0.055 l 0,0 z"
         inkscape:connector-curvature="0" /><path
         id="path11402_1_"
         d="m 1098.213,483.112 c -0.021,0.016 -0.04,0.048 -0.04,0.076 10e-4,0.031 0.018,0.025 0.04,-0.013 0.054,-0.081 0.054,-0.097 0,-0.063 z"
         inkscape:connector-curvature="0" /><path
         id="path11394_1_"
         d="m 1095.071,477.554 c -0.06,-0.017 -0.182,-0.015 -0.274,0.002 -0.16,0.024 -0.167,0.035 -0.165,0.185 0,0.123 -0.023,0.168 -0.104,0.211 -0.058,0.031 -0.112,0.094 -0.122,0.139 -0.021,0.076 -0.03,0.08 -0.15,0.018 -0.069,-0.037 -0.138,-0.064 -0.146,-0.064 -0.01,0 -0.015,0.402 -0.01,0.896 0.01,0.534 -0.01,0.949 -0.032,1.026 -0.023,0.069 -0.047,0.214 -0.054,0.317 -0.01,0.104 -0.036,0.465 -0.069,0.806 -0.034,0.337 -0.068,0.871 -0.08,1.188 -0.021,0.672 0.01,0.771 0.34,1.109 0.199,0.203 0.204,0.207 0.409,0.18 0.23,-0.028 0.286,-0.006 0.215,0.082 -0.025,0.032 -0.038,0.094 -0.023,0.141 0.012,0.046 0.01,0.098 -0.018,0.109 -0.02,0.012 -0.023,0.07 -0.01,0.126 0.018,0.073 0.01,0.109 -0.042,0.13 -0.038,0.014 -0.068,0.052 -0.067,0.085 0,0.079 -0.13,0.074 -0.25,-0.01 -0.09,-0.062 -0.14,-0.062 -0.438,-0.017 -0.257,0.041 -0.348,0.043 -0.396,0.004 -0.041,-0.033 -0.143,-0.04 -0.304,-0.021 -0.135,0.018 -0.434,0.042 -0.666,0.057 -0.393,0.026 -0.432,0.021 -0.539,-0.062 -0.063,-0.05 -0.117,-0.128 -0.117,-0.174 -10e-4,-0.082 0.043,-0.109 0.356,-0.21 0.206,-0.064 0.549,-0.339 0.735,-0.585 l 0.139,-0.184 -0.033,-0.749 c -0.02,-0.414 -0.041,-0.815 -0.05,-0.896 -0.107,-1.021 -0.12,-1.297 -0.082,-1.972 0.047,-0.803 0.114,-1.241 0.196,-1.272 0.028,-0.012 0.054,-0.058 0.054,-0.103 0,-0.068 -0.033,-0.079 -0.247,-0.078 -0.207,10e-4 -0.261,-0.017 -0.342,-0.101 -0.053,-0.055 -0.146,-0.109 -0.21,-0.124 -0.065,-0.012 -0.142,-0.067 -0.177,-0.134 -0.059,-0.104 -0.057,-0.119 0.03,-0.188 0.075,-0.062 0.216,-0.082 0.771,-0.11 0.372,-0.021 0.687,-0.049 0.696,-0.066 0.028,-0.045 1.133,-0.059 1.251,-0.017 0.074,0.027 0.102,0.074 0.109,0.194 0.019,0.148 0.014,0.156 -0.087,0.132 l 0,0 z"
         inkscape:connector-curvature="0" /><g
         id="g1262"><g
           id="g1264"><path
             d="m 1090.562,478.936 c -0.1,-0.142 -0.2,-0.324 -0.224,-0.402 -0.026,-0.1 -0.085,-0.169 -0.188,-0.225 -0.082,-0.044 -0.218,-0.141 -0.298,-0.217 -0.248,-0.226 -0.905,-0.642 -1.062,-0.667 -0.081,-0.017 -0.426,-0.064 -0.763,-0.111 -0.338,-0.045 -0.688,-0.104 -0.774,-0.13 -0.15,-0.042 -0.187,-0.034 -0.382,0.077 -0.118,0.065 -0.272,0.166 -0.343,0.217 -0.068,0.053 -0.205,0.134 -0.299,0.182 -0.286,0.146 -0.858,0.751 -1.03,1.095 -0.174,0.346 -0.335,0.743 -0.439,1.101 -0.116,0.398 -0.097,1.124 0.046,1.585 0.062,0.197 0.136,0.438 0.16,0.536 0.027,0.098 0.067,0.188 0.092,0.202 0.021,0.014 0.119,0.188 0.219,0.392 0.24,0.502 0.636,1.14 0.731,1.183 0.019,0.008 0.031,0.034 0.032,0.062 10e-4,0.026 0.037,0.095 0.083,0.154 0.07,0.09 0.095,0.098 0.165,0.054 0.072,-0.046 0.103,-0.027 0.256,0.171 0.123,0.157 0.224,0.238 0.341,0.276 0.205,0.064 0.57,0.037 0.764,-0.062 0.081,-0.041 0.271,-0.103 0.421,-0.138 0.283,-0.066 0.466,-0.14 0.515,-0.209 0.017,-0.021 0.101,-0.037 0.185,-0.033 0.104,0.002 0.187,-0.022 0.248,-0.082 0.049,-0.048 0.194,-0.157 0.321,-0.242 0.129,-0.084 0.294,-0.208 0.369,-0.272 0.074,-0.066 0.164,-0.12 0.197,-0.121 0.081,0 0.274,-0.244 0.272,-0.345 0,-0.046 0.074,-0.242 0.167,-0.436 0.094,-0.192 0.167,-0.372 0.167,-0.396 0,-0.025 0.104,-0.291 0.233,-0.591 0.129,-0.299 0.248,-0.601 0.267,-0.671 0.119,-0.475 -0.111,-1.459 -0.449,-1.937 z m -0.843,2.452 c -0.024,0.045 -0.059,0.197 -0.071,0.334 -0.019,0.137 -0.047,0.29 -0.063,0.339 -0.018,0.048 -0.058,0.175 -0.086,0.279 -0.12,0.43 -0.381,0.76 -0.861,1.09 -0.501,0.346 -0.586,0.375 -1.005,0.369 -0.303,-0.004 -0.394,-0.022 -0.467,-0.086 -0.046,-0.044 -0.173,-0.12 -0.277,-0.169 -0.386,-0.185 -0.462,-0.238 -0.604,-0.444 -0.081,-0.115 -0.207,-0.296 -0.282,-0.4 -0.166,-0.231 -0.263,-0.645 -0.3,-1.288 -0.025,-0.473 0.031,-0.883 0.216,-1.544 0.032,-0.128 0.079,-0.351 0.102,-0.496 0.03,-0.221 0.173,-0.614 0.248,-0.688 0.012,-0.012 0.046,-0.069 0.075,-0.128 0.029,-0.059 0.141,-0.171 0.244,-0.251 0.103,-0.08 0.216,-0.198 0.247,-0.265 0.033,-0.062 0.104,-0.131 0.156,-0.146 0.051,-0.016 0.127,-0.07 0.165,-0.12 0.062,-0.08 0.114,-0.091 0.444,-0.093 0.393,-0.002 0.415,0.004 0.931,0.28 0.763,0.407 1.109,0.858 1.209,1.566 0.1,0.729 0.089,1.649 -0.021,1.861 z"
             id="path1266"
             inkscape:connector-curvature="0" /></g></g><path
         id="path11380_1_"
         d="m 1085.469,479.891 c -0.024,0.015 -0.042,0.058 -0.041,0.098 0,0.062 0.01,0.062 0.042,0.008 0.051,-0.083 0.051,-0.139 -10e-4,-0.106 z"
         inkscape:connector-curvature="0" /><path
         id="path11370_1_"
         d="m 1083.442,478.097 c -0.016,0.037 -0.072,0.045 -0.195,0.024 -0.157,-0.022 -0.169,-0.02 -0.137,0.055 0.021,0.044 0.045,0.157 0.055,0.25 0.023,0.222 -0.078,0.33 -0.277,0.292 -0.125,-0.024 -0.143,-0.047 -0.229,-0.344 -0.076,-0.255 -0.113,-0.321 -0.201,-0.354 -0.103,-0.039 -0.758,-0.016 -1.219,0.042 -0.15,0.019 -0.261,0.01 -0.33,-0.025 -0.055,-0.028 -0.112,-0.043 -0.127,-0.026 -0.014,0.014 0,0.146 0.022,0.295 0.025,0.146 0.05,0.416 0.051,0.595 10e-4,0.179 0.035,0.701 0.074,1.159 0.069,0.822 0.066,1.245 -0.015,1.396 -0.021,0.044 -0.024,0.176 -0.01,0.309 0.019,0.126 0.02,0.41 0,0.631 -0.013,0.22 -0.022,0.587 -0.025,0.812 l -10e-4,0.413 0.215,-10e-4 c 0.17,-0.002 0.229,0.02 0.308,0.102 0.09,0.095 0.105,0.099 0.296,0.054 0.181,-0.042 0.209,-0.039 0.285,0.037 0.07,0.07 0.079,0.104 0.043,0.198 -0.022,0.062 -0.075,0.112 -0.117,0.114 -0.234,0.012 -0.417,0.051 -0.571,0.125 -0.161,0.076 -0.288,0.089 -1.288,0.108 -0.993,0.021 -1.114,0.016 -1.172,-0.047 -0.09,-0.096 -0.082,-0.158 0.021,-0.192 0.08,-0.023 0.082,-0.031 0.021,-0.101 -0.152,-0.166 -0.062,-0.28 0.247,-0.317 0.116,-0.013 0.276,-0.044 0.359,-0.068 0.081,-0.024 0.207,-0.047 0.28,-0.047 0.188,0 0.184,0.085 0.118,-1.396 -0.02,-0.43 -0.045,-0.906 -0.062,-1.059 -0.019,-0.223 -0.011,-0.288 0.042,-0.333 0.057,-0.049 0.064,-0.229 0.059,-1.384 l -0.01,-1.325 -0.221,0.005 c -0.122,0.002 -0.563,0.027 -0.98,0.059 l -0.763,0.055 -0.021,0.316 c -0.029,0.408 -0.178,0.713 -0.28,0.583 -0.072,-0.088 -0.114,-1.023 -0.06,-1.27 0.135,-0.591 0.141,-0.602 0.25,-0.603 0.08,0 0.11,0.03 0.146,0.133 0.038,0.129 0.053,0.138 0.316,0.163 0.188,0.021 0.515,-0.003 1.058,-0.073 0.892,-0.113 1.712,-0.168 2.403,-0.154 0.363,0.007 0.511,-0.006 0.604,-0.057 0.27,-0.141 0.567,-0.065 0.521,0.128 -0.036,0.146 0.021,0.217 0.28,0.346 0.233,0.112 0.299,0.217 0.231,0.377 l 0,0 z"
         inkscape:connector-curvature="0" /><path
         id="path11348_1_"
         d="m 1075.892,482.698 c -0.016,0.163 -0.04,0.319 -0.057,0.347 -0.017,0.024 -0.038,0.13 -0.052,0.229 -0.021,0.188 -0.114,0.334 -0.207,0.335 -0.054,0 -0.197,0.207 -0.316,0.445 -0.086,0.175 -0.27,0.191 -0.439,0.043 -0.123,-0.106 -0.143,-0.109 -0.466,-0.08 -0.188,0.017 -0.491,0.06 -0.677,0.094 -0.405,0.075 -1.667,0.17 -2.196,0.165 -0.287,-0.003 -0.457,-0.029 -0.678,-0.105 -0.335,-0.116 -0.387,-0.199 -0.238,-0.39 0.049,-0.062 0.089,-0.131 0.089,-0.156 0,-0.023 0.062,-0.104 0.135,-0.177 0.164,-0.161 0.942,-1.049 1.062,-1.212 0.047,-0.062 0.18,-0.219 0.291,-0.344 0.2,-0.224 0.483,-0.636 0.483,-0.705 0,-0.019 -0.042,-0.053 -0.094,-0.075 -0.059,-0.023 -0.105,-0.094 -0.123,-0.179 -0.018,-0.075 -0.106,-0.236 -0.2,-0.357 -0.188,-0.239 -0.639,-0.938 -0.764,-1.18 -0.261,-0.501 -0.598,-1.071 -0.679,-1.145 -0.067,-0.062 -0.103,-0.159 -0.123,-0.352 -0.027,-0.234 -0.023,-0.264 0.042,-0.265 0.044,0 0.119,0.048 0.172,0.107 l 0.095,0.109 0.062,-0.148 c 0.055,-0.132 0.084,-0.151 0.252,-0.18 0.104,-0.016 0.21,-0.017 0.234,-0.002 0.023,0.016 0.25,-0.024 0.5,-0.09 0.379,-0.096 0.552,-0.117 1.036,-0.123 0.518,-0.006 0.585,0.002 0.637,0.073 0.033,0.043 0.077,0.064 0.1,0.052 0.039,-0.023 0.966,-0.041 1.267,-0.025 0.072,0.005 0.156,0.029 0.19,0.057 0.031,0.023 0.11,0.058 0.175,0.071 0.063,0.015 0.134,0.062 0.156,0.104 0.021,0.043 0.047,0.378 0.056,0.745 0.014,0.609 0.01,0.673 -0.062,0.727 -0.104,0.076 -0.168,0.074 -0.237,-0.008 -0.05,-0.061 -0.061,-0.06 -0.11,0.009 -0.101,0.14 -0.165,-0.016 -0.237,-0.546 -0.037,-0.272 -0.082,-0.512 -0.098,-0.527 -0.037,-0.036 -0.49,-0.032 -1.248,0.013 -1.047,0.062 -1.394,0.089 -1.394,0.108 0,0.014 0.043,0.08 0.097,0.154 0.097,0.133 0.151,0.233 0.493,0.859 0.104,0.188 0.288,0.454 0.415,0.592 0.129,0.139 0.233,0.288 0.234,0.331 0,0.112 0.174,0.293 0.303,0.323 0.072,0.017 0.116,0.06 0.131,0.127 0.018,0.084 -0.069,0.188 -0.499,0.626 -0.284,0.289 -0.684,0.734 -0.885,0.994 -0.204,0.256 -0.507,0.617 -0.677,0.806 l -0.309,0.34 0.119,0.033 c 0.066,0.019 0.452,0.044 0.86,0.055 0.606,0.019 0.806,0.006 1.119,-0.057 0.227,-0.046 0.595,-0.08 0.906,-0.084 l 0.526,-0.011 0.233,-0.48 c 0.282,-0.583 0.399,-0.695 0.562,-0.534 0.037,0.036 0.065,0.088 0.062,0.115 0,0.03 -0.018,0.186 -0.029,0.349 l 0,0 z"
         inkscape:connector-curvature="0" /></g><g
       id="g1318"
       transform="translate(-1053.0979,-270.11279)"><g
         id="g1320"><path
           d="m 1101.103,510.848 c 0.051,0.75 -0.461,0.938 -0.897,1.198 -1.84,-1.727 0.241,-4.675 0.3,-7.188 l -1.498,0 c 0.03,0.929 -0.136,1.661 -0.6,2.096 -0.336,-0.762 -0.732,-1.46 -1.195,-2.096 -8.162,-0.881 -2.699,13.513 1.795,6.587 0.271,0.63 0.467,1.332 0.898,1.796 1.037,0.03 1.959,-1.606 1.197,-2.393 z m -4.791,1.797 c -2.396,-0.494 -2.494,-6.712 0,-7.186 2.859,0.952 2.203,5.898 0,7.186 z"
           id="path1322"
           inkscape:connector-curvature="0"
           style="fill:#231f20" /></g></g><path
       d="m 133.79606,231.88386 c 0.679,0 2.113,-0.062 2.113,0.035 2.789,0.154 2.101,4.118 0.819,5.452 4.168,1.704 0.38,9.211 -3.779,6.108 -0.322,1.425 0.873,4.363 -1.165,4.071 -0.027,-4.777 -1.865,-13.819 2.012,-15.666 z m -0.844,10.724 c 0.707,0.552 1.438,1.082 2.907,0.872 1.507,-1.035 1.438,-4.421 0.292,-5.817 -0.246,-0.627 -1.854,0.109 -2.036,-0.581 0.446,-1.028 1.292,0.148 2.036,-0.583 0.468,-1.076 0.423,-3.043 -0.292,-3.781 -4.494,-1.331 -2.45,6.229 -2.907,9.89 z"
       id="path1324"
       inkscape:connector-curvature="0"
       style="fill:#231f20" /><g
       id="g1326"
       transform="translate(-1054.9419,-261.50278)"><g
         id="g1328"><path
           d="m 1141.06,730.592 c 0.052,0.75 -0.459,0.938 -0.896,1.196 -1.84,-1.725 0.241,-4.673 0.3,-7.187 l -1.498,0 c 0.03,0.929 -0.136,1.661 -0.6,2.096 -0.336,-0.762 -0.732,-1.459 -1.195,-2.096 -8.162,-0.881 -2.7,13.513 1.795,6.588 0.271,0.629 0.466,1.331 0.898,1.796 1.037,0.028 1.959,-1.609 1.196,-2.393 z m -4.789,1.795 c -2.395,-0.494 -2.494,-6.713 0,-7.188 2.858,0.954 2.202,5.901 0,7.188 z"
           id="path1330"
           inkscape:connector-curvature="0"
           style="fill:#231f20" /></g></g><path
       d="m 95.697062,458.73421 c 0.68,0 2.114,-0.062 2.114,0.034 2.788998,0.154 2.1,4.118 0.818,5.452 4.167998,1.704 0.38,9.212 -3.779,6.106 -0.321,1.427 0.873,4.365 -1.164,4.072 -0.028,-4.775 -1.866,-13.819 2.011,-15.664 z m -0.847,10.725 c 0.707,0.552 1.438,1.08 2.907,0.871 1.507,-1.034 1.438,-4.423 0.292,-5.816 -0.246,-0.627 -1.854,0.107 -2.036,-0.581 0.447,-1.027 1.292,0.147 2.036,-0.582 0.469,-1.076 0.423,-3.044 -0.292,-3.781 -4.494,-1.333 -2.45,6.229 -2.907,9.889 z"
       id="path1332"
       inkscape:connector-curvature="0"
       style="fill:#231f20" /><path
       style="fill:none;stroke:#000000;stroke-width:1px;stroke-linecap:butt;stroke-linejoin:miter;stroke-opacity:1"
       d="m 140.79456,515.94321 3.5984,0 0,-6 2.8539,0 0,6 2.8539,0 0,-6 3.102,0 0,6 3.4743,0"
       id="path4323"
       inkscape:connector-curvature="0"
       sodipodi:nodetypes="cccccccccc" /><path
       sodipodi:nodetypes="cccccc"
       inkscape:connector-curvature="0"
       id="path4325"
       d="m 140.85666,554.94318 3.4743,0 0,-6 c 2.9366,10e-5 5.8732,-2e-4 8.8098,-4e-4 l 0,6.0004 3.4743,0"
       style="fill:none;stroke:#000000;stroke-width:1px;stroke-linecap:butt;stroke-linejoin:miter;stroke-opacity:1" /><path
       sodipodi:nodetypes="cccccccccc"
       inkscape:connector-curvature="0"
       id="path4327"
       d="m 21.615042,515.94321 3.5984,0 0,-6 2.8539,0 0,6 2.8539,0 0,-6 3.102,0 0,6 3.4743,0"
       style="fill:none;stroke:#000000;stroke-width:1px;stroke-linecap:butt;stroke-linejoin:miter;stroke-opacity:1" /><path
       style="fill:none;stroke:#000000;stroke-width:1px;stroke-linecap:butt;stroke-linejoin:miter;stroke-opacity:1"
       d="m 21.677092,554.94318 3.4743,0 0,-6 c 2.9366,10e-5 5.8732,-2e-4 8.8098,-4e-4 l 0,6.0004 3.4743,0"
       id="path4329"
       inkscape:connector-curvature="0"
       sodipodi:nodetypes="cccccc" /><g
       id="g4377"
       transform="translate(-1029.6969,87.298226)"><g
         id="g4379"><path
           id="path4381"
           d="m 1101.103,510.848 c 0.051,0.75 -0.461,0.938 -0.897,1.198 -1.84,-1.727 0.241,-4.675 0.3,-7.188 l -1.498,0 c 0.03,0.929 -0.136,1.661 -0.6,2.096 -0.336,-0.762 -0.732,-1.46 -1.195,-2.096 -8.162,-0.881 -2.699,13.513 1.795,6.587 0.271,0.63 0.467,1.332 0.898,1.796 1.037,0.03 1.959,-1.606 1.197,-2.393 z m -4.791,1.797 c -2.396,-0.494 -2.494,-6.712 0,-7.186 2.859,0.952 2.203,5.898 0,7.186 z"
           inkscape:connector-curvature="0"
           style="fill:#231f20" /></g></g><path
       id="path4383"
       d="m 111.29606,590.19348 c 0.679,0 2.113,-0.062 2.113,0.035 2.789,0.154 2.101,4.118 0.819,5.452 4.168,1.704 0.38,9.211 -3.779,6.108 -0.322,1.425 0.873,4.363 -1.165,4.071 -0.027,-4.777 -1.865,-13.819 2.012,-15.666 z m -0.844,10.724 c 0.707,0.552 1.438,1.082 2.907,0.872 1.507,-1.035 1.438,-4.421 0.292,-5.817 -0.246,-0.627 -1.854,0.109 -2.036,-0.581 0.446,-1.028 1.292,0.148 2.036,-0.583 0.468,-1.076 0.423,-3.043 -0.292,-3.781 -4.494,-1.331 -2.45,6.229 -2.907,9.89 z"
       inkscape:connector-curvature="0"
       style="fill:#231f20" /><g
       id="g18493"
       transform="matrix(1.2185466,0,0,1.2185466,-1204.6431,-477.37378)"><path
         d="m 1085.957,703.975 c -7.882,-4.428 -13.206,-12.867 -13.206,-22.55 0,-14.275 11.572,-25.85 25.849,-25.85 14.273,0 25.848,11.573 25.848,25.85 0,9.689 -5.333,18.136 -13.226,22.56"
         id="path18495"
         inkscape:connector-curvature="0"
         style="fill:none;stroke:#030303;stroke-width:0.41032487" /><line
         x1="1091.24"
         y1="654.052"
         x2="1091.8879"
         y2="656.46198"
         id="line18497"
         style="fill:none;stroke:#030303;stroke-width:0.61548734" /><line
         x1="1083.229"
         y1="654.849"
         x2="1085.6541"
         y2="659.04797"
         id="line18499"
         style="fill:none;stroke:#030303;stroke-width:0.82064974" /><line
         x1="1078.538"
         y1="661.39301"
         x2="1080.303"
         y2="663.15601"
         id="line18501"
         style="fill:none;stroke:#030303;stroke-width:0.61548734" /><line
         x1="1072.048"
         y1="666.11401"
         x2="1076.196"
         y2="668.51099"
         id="line18503"
         style="fill:none;stroke:#030303;stroke-width:0.82064974" /><line
         x1="1071.208"
         y1="674.10101"
         x2="1073.618"
         y2="674.74597"
         id="line18505"
         style="fill:none;stroke:#030303;stroke-width:0.61548734" /><line
         x1="1067.928"
         y1="681.43701"
         x2="1072.74"
         y2="681.43701"
         id="line18507"
         style="fill:none;stroke:#030303;stroke-width:0.82064974" /><line
         x1="1071.215"
         y1="688.771"
         x2="1073.626"
         y2="688.12598"
         id="line18509"
         style="fill:none;stroke:#030303;stroke-width:0.61548734" /><line
         x1="1072.04"
         y1="696.76599"
         x2="1076.21"
         y2="694.35901"
         id="line18511"
         style="fill:none;stroke:#030303;stroke-width:0.82064974" /><line
         x1="1078.557"
         y1="701.47498"
         x2="1080.319"
         y2="699.71301"
         id="line18513"
         style="fill:none;stroke:#030303;stroke-width:0.61548734" /><line
         x1="1083.349"
         y1="707.84399"
         x2="1085.675"
         y2="703.81598"
         id="line18515"
         style="fill:none;stroke:#030303;stroke-width:0.82064974" /><line
         x1="1113.8719"
         y1="707.87299"
         x2="1111.522"
         y2="703.80298"
         id="line18517"
         style="fill:none;stroke:#030303;stroke-width:0.82064974" /><line
         x1="1118.639"
         y1="701.45502"
         x2="1116.876"
         y2="699.69299"
         id="line18519"
         style="fill:none;stroke:#030303;stroke-width:0.61548734" /><line
         x1="1125.0551"
         y1="696.68903"
         x2="1120.979"
         y2="694.33801"
         id="line18521"
         style="fill:none;stroke:#030303;stroke-width:0.82064974" /><line
         x1="1125.968"
         y1="688.74799"
         x2="1123.5601"
         y2="688.10199"
         id="line18523"
         style="fill:none;stroke:#030303;stroke-width:0.61548734" /><line
         x1="1129.097"
         y1="681.41199"
         x2="1124.437"
         y2="681.41199"
         id="line18525"
         style="fill:none;stroke:#030303;stroke-width:0.82064974" /><line
         x1="1125.962"
         y1="674.07599"
         x2="1123.552"
         y2="674.72302"
         id="line18527"
         style="fill:none;stroke:#030303;stroke-width:0.61548734" /><line
         x1="1125.022"
         y1="666.14801"
         x2="1120.969"
         y2="668.48901"
         id="line18529"
         style="fill:none;stroke:#030303;stroke-width:0.82064974" /><line
         x1="1118.6219"
         y1="661.37598"
         x2="1116.8571"
         y2="663.138"
         id="line18531"
         style="fill:none;stroke:#030303;stroke-width:0.61548734" /><line
         x1="1113.926"
         y1="654.841"
         x2="1111.504"
         y2="659.03198"
         id="line18533"
         style="fill:none;stroke:#030303;stroke-width:0.82064974" /><line
         x1="1105.912"
         y1="654.047"
         x2="1105.267"
         y2="656.45398"
         id="line18535"
         style="fill:none;stroke:#030303;stroke-width:0.61548734" /><line
         x1="1098.575"
         y1="650.80298"
         x2="1098.575"
         y2="655.57599"
         id="line18537"
         style="fill:none;stroke:#030303;stroke-width:0.82064974" /><circle
         cx="1098.682"
         cy="681.34998"
         r="25.851"
         id="circle18539"
         style="fill:none" /></g><path
       style="fill:none;stroke:#000000;stroke-width:1px;stroke-linecap:butt;stroke-linejoin:miter;stroke-opacity:1"
       d="m 151.96196,599.94068 3.5984,0 0,-6 2.8539,0 0,6 2.8539,0"
       id="path5227"
       inkscape:connector-curvature="0"
       sodipodi:nodetypes="cccccc" /><g
       id="g5249"
       transform="translate(129.01276,-608.99035)"><line
         x1="-45.483688"
         y1="1156.1982"
         x2="-45.483688"
         y2="1164.179"
         id="line5235"
         style="fill:none;stroke:#030303;stroke-width:1;stroke-miterlimit:4;stroke-dasharray:none" /><path
         d="M -45.404197,1160.1512"
         id="path5237"
         inkscape:connector-curvature="0"
         style="fill:none;stroke:#030303;stroke-width:0.68556148" /><line
         x1="-33.28978"
         y1="1160.1512"
         x2="-41.735779"
         y2="1160.1512"
         id="line5239"
         style="fill:none;stroke:#030303;stroke-width:1;stroke-miterlimit:4;stroke-dasharray:none" /><polygon
         transform="matrix(-0.68556145,0,0,0.68556145,746.49469,739.69709)"
         points="1147.078,610.646 1147.021,616.055 1155.104,613.322 "
         id="polygon5241"
         style="fill:#030303" /></g><path
       sodipodi:nodetypes="cccccc"
       inkscape:connector-curvature="0"
       id="path7514"
       d="m 16.961932,599.94068 3.5984,0 0,-6 2.8539,0 0,6 2.85391,0"
       style="fill:none;stroke:#000000;stroke-width:1px;stroke-linecap:butt;stroke-linejoin:miter;stroke-opacity:1" /><g
       transform="matrix(1.2185466,0,0,1.2185466,-1294.6431,-477.37378)"
       id="g8547"><path
         style="fill:none;stroke:#030303;stroke-width:0.41032487"
         inkscape:connector-curvature="0"
         id="path8549"
         d="m 1085.957,703.975 c -7.882,-4.428 -13.206,-12.867 -13.206,-22.55 0,-14.275 11.572,-25.85 25.849,-25.85 14.273,0 25.848,11.573 25.848,25.85 0,9.689 -5.333,18.136 -13.226,22.56" /><line
         style="fill:none;stroke:#030303;stroke-width:0.61548734"
         id="line8551"
         y2="656.46198"
         x2="1091.8879"
         y1="654.052"
         x1="1091.24" /><line
         style="fill:none;stroke:#030303;stroke-width:0.82064974"
         id="line8553"
         y2="659.04797"
         x2="1085.6541"
         y1="654.849"
         x1="1083.229" /><line
         style="fill:none;stroke:#030303;stroke-width:0.61548734"
         id="line8555"
         y2="663.15601"
         x2="1080.303"
         y1="661.39301"
         x1="1078.538" /><line
         style="fill:none;stroke:#030303;stroke-width:0.82064974"
         id="line8557"
         y2="668.51099"
         x2="1076.196"
         y1="666.11401"
         x1="1072.048" /><line
         style="fill:none;stroke:#030303;stroke-width:0.61548734"
         id="line8559"
         y2="674.74597"
         x2="1073.618"
         y1="674.10101"
         x1="1071.208" /><line
         style="fill:none;stroke:#030303;stroke-width:0.82064974"
         id="line8561"
         y2="681.43701"
         x2="1072.74"
         y1="681.43701"
         x1="1067.928" /><line
         style="fill:none;stroke:#030303;stroke-width:0.61548734"
         id="line8563"
         y2="688.12598"
         x2="1073.626"
         y1="688.771"
         x1="1071.215" /><line
         style="fill:none;stroke:#030303;stroke-width:0.82064974"
         id="line8565"
         y2="694.35901"
         x2="1076.21"
         y1="696.76599"
         x1="1072.04" /><line
         style="fill:none;stroke:#030303;stroke-width:0.61548734"
         id="line8567"
         y2="699.71301"
         x2="1080.319"
         y1="701.47498"
         x1="1078.557" /><line
         style="fill:none;stroke:#030303;stroke-width:0.82064974"
         id="line8569"
         y2="703.81598"
         x2="1085.675"
         y1="707.84399"
         x1="1083.349" /><line
         style="fill:none;stroke:#030303;stroke-width:0.82064974"
         id="line8571"
         y2="703.80298"
         x2="1111.522"
         y1="707.87299"
         x1="1113.8719" /><line
         style="fill:none;stroke:#030303;stroke-width:0.61548734"
         id="line8573"
         y2="699.69299"
         x2="1116.876"
         y1="701.45502"
         x1="1118.639" /><line
         style="fill:none;stroke:#030303;stroke-width:0.82064974"
         id="line8575"
         y2="694.33801"
         x2="1120.979"
         y1="696.68903"
         x1="1125.0551" /><line
         style="fill:none;stroke:#030303;stroke-width:0.61548734"
         id="line8577"
         y2="688.10199"
         x2="1123.5601"
         y1="688.74799"
         x1="1125.968" /><line
         style="fill:none;stroke:#030303;stroke-width:0.82064974"
         id="line8579"
         y2="681.41199"
         x2="1124.437"
         y1="681.41199"
         x1="1129.097" /><line
         style="fill:none;stroke:#030303;stroke-width:0.61548734"
         id="line8581"
         y2="674.72302"
         x2="1123.552"
         y1="674.07599"
         x1="1125.962" /><line
         style="fill:none;stroke:#030303;stroke-width:0.82064974"
         id="line8583"
         y2="668.48901"
         x2="1120.969"
         y1="666.14801"
         x1="1125.022" /><line
         style="fill:none;stroke:#030303;stroke-width:0.61548734"
         id="line8585"
         y2="663.138"
         x2="1116.8571"
         y1="661.37598"
         x1="1118.6219" /><line
         style="fill:none;stroke:#030303;stroke-width:0.82064974"
         id="line8587"
         y2="659.03198"
         x2="1111.504"
         y1="654.841"
         x1="1113.926" /><line
         style="fill:none;stroke:#030303;stroke-width:0.61548734"
         id="line8589"
         y2="656.45398"
         x2="1105.267"
         y1="654.047"
         x1="1105.912" /><line
         style="fill:none;stroke:#030303;stroke-width:0.82064974"
         id="line8591"
         y2="655.57599"
         x2="1098.575"
         y1="650.80298"
         x1="1098.575" /><circle
         style="fill:none"
         id="circle8593"
         r="25.851"
         cy="681.34998"
         cx="1098.682" /></g></g></svg>