999
DXF created by Inkscape
  0
SECTION
  2
HEADER
  9
$ACADVER
  1
AC1014
  9
$HANDSEED
  5
FFFF
  9
$MEASUREMENT
 70
     1
  0
ENDSEC
  0
SECTION
  2
TABLES
  0
TABLE
  2
VPORT
  5
8
330
0
100
AcDbSymbolTable
 70
     4
  0
VPORT
  5
2E
330
8
100
AcDbSymbolTableRecord
100
AcDbViewportTableRecord
  2
*ACTIVE
 70
     0
 10
0.0
 20
0.0
 11
1.0
 21
1.0
 12
210.0
 22
148.5
 13
0.0
 23
0.0
 14
10.0
 24
10.0
 15
10.0
 25
10.0
 16
0.0
 26
0.0
 36
1.0
 17
0.0
 27
0.0
 37
0.0
 40
341.0
 41
1.24
 42
50.0
 43
0.0
 44
0.0
 50
0.0
 51
0.0
 71
     0
 72
   100
 73
     1
 74
     3
 75
     0
 76
     0
 77
     0
 78
     0
  0
ENDTAB
  0
TABLE
  2
LTYPE
  5
5
330
0
100
AcDbSymbolTable
 70
     1
  0
LTYPE
  5
14
330
5
100
AcDbSymbolTableRecord
100
AcDbLinetypeTableRecord
  2
BYBLOCK
 70
     0
  3

 72
    65
 73
     0
 40
0.0
  0
LTYPE
  5
15
330
5
100
AcDbSymbolTableRecord
100
AcDbLinetypeTableRecord
  2
BYLAYER
 70
     0
  3

 72
    65
 73
     0
 40
0.0
  0
LTYPE
  5
16
330
5
100
AcDbSymbolTableRecord
100
AcDbLinetypeTableRecord
  2
CONTINUOUS
 70
     0
  3
Solid line
 72
    65
 73
     0
 40
0.0
  0
ENDTAB
  0
TABLE
  2
LAYER
  5
2
100
AcDbSymbolTable
 70
2
  0
LAYER
  5
50
100
AcDbSymbolTableRecord
100
AcDbLayerTableRecord
  2
0
 70
0
  6
CONTINUOUS
  0
LAYER
  5
51
100
AcDbSymbolTableRecord
100
AcDbLayerTableRecord
  2
Cut
 70
0
  6
CONTINUOUS
  0
ENDTAB
  0
TABLE
  2
STYLE
  5
3
330
0
100
AcDbSymbolTable
 70
     1
  0
STYLE
  5
11
330
3
100
AcDbSymbolTableRecord
100
AcDbTextStyleTableRecord
  2
STANDARD
 70
     0
 40
0.0
 41
1.0
 50
0.0
 71
     0
 42
2.5
  3
txt
  4

  0
ENDTAB
  0
TABLE
  2
VIEW
  5
6
330
0
100
AcDbSymbolTable
 70
     0
  0
ENDTAB
  0
TABLE
  2
UCS
  5
7
330
0
100
AcDbSymbolTable
 70
     0
  0
ENDTAB
  0
TABLE
  2
APPID
  5
9
330
0
100
AcDbSymbolTable
 70
     2
  0
APPID
  5
12
330
9
100
AcDbSymbolTableRecord
100
AcDbRegAppTableRecord
  2
ACAD
 70
     0
  0
ENDTAB
  0
TABLE
  2
DIMSTYLE
  5
A
330
0
100
AcDbSymbolTable
 70
     1
  0
DIMSTYLE
105
27
330
A
100
AcDbSymbolTableRecord
100
AcDbDimStyleTableRecord
  2
ISO-25
 70
     0
  3

  4

  5

  6

  7

 40
1.0
 41
2.5
 42
0.625
 43
3.75
 44
1.25
 45
0.0
 46
0.0
 47
0.0
 48
0.0
140
2.5
141
2.5
142
0.0
143
0.03937007874016
144
1.0
145
0.0
146
1.0
147
0.625
 71
     0
 72
     0
 73
     0
 74
     0
 75
     0
 76
     0
 77
     1
 78
     8
170
     0
171
     3
172
     1
173
     0
174
     0
175
     0
176
     0
177
     0
178
     0
270
     2
271
     2
272
     2
273
     2
274
     3
340
11
275
     0
280
     0
281
     0
282
     0
283
     0
284
     8
285
     0
286
     0
287
     3
288
     0
  0
ENDTAB
  0
TABLE
  2
BLOCK_RECORD
  5
1
330
0
100
AcDbSymbolTable
 70
     1
  0
BLOCK_RECORD
  5
1F
330
1
100
AcDbSymbolTableRecord
100
AcDbBlockTableRecord
  2
*MODEL_SPACE
  0
BLOCK_RECORD
  5
1B
330
1
100
AcDbSymbolTableRecord
100
AcDbBlockTableRecord
  2
*PAPER_SPACE
  0
ENDTAB
  0
ENDSEC
  0
SECTION
  2
BLOCKS
  0
BLOCK
  5
20
330
1F
100
AcDbEntity
  8
0
100
AcDbBlockBegin
  2
*MODEL_SPACE
 70
     0
 10
0.0
 20
0.0
 30
0.0
  3
*MODEL_SPACE
  1

  0
ENDBLK
  5
21
330
1F
100
AcDbEntity
  8
0
100
AcDbBlockEnd
  0
BLOCK
  5
1C
330
1B
100
AcDbEntity
 67
     1
  8
0
100
AcDbBlockBegin
  2
*PAPER_SPACE
  1

  0
ENDBLK
  5
1D
330
1B
100
AcDbEntity
 67
     1
  8
0
100
AcDbBlockEnd
  0
ENDSEC
  0
SECTION
  2
ENTITIES
  0
LWPOLYLINE
  5
100
100
AcDbEntity
  8
Cut
 62
7
100
AcDbPolyline
 90
14
 70
0
 10
0.052917
 20
128.549894
 30
0.0
 10
0.052917
 20
128.496977
 30
0.0
 10
0.052917
 20
-0.002314
 30
0.0
 10
0.052917
 20
-0.046426
 30
0.0
 10
0.097014
 20
-0.046426
 30
0.0
 10
50.597153
 20
-0.046426
 30
0.0
 10
50.650069
 20
-0.046426
 30
0.0
 10
50.650069
 20
-0.002314
 30
0.0
 10
50.650069
 20
128.496977
 30
0.0
 10
50.650069
 20
128.549894
 30
0.0
 10
50.597153
 20
128.549894
 30
0.0
 10
0.097014
 20
128.549894
 30
0.0
 10
0.052917
 20
128.549894
 30
0.0
 10
0.052917
 20
128.549894
 30
0.0
  0
SPLINE
  5
101
100
AcDbEntity
  8
Cut
 62
7
100
AcDbSpline
 70
8
 71
3
 72
8
 73
4
 74
0
 40
0
 40
0
 40
0
 40
0
 40
1
 40
1
 40
1
 40
1
 10
7.602361
 20
127.147602
 30
0.0
 10
6.691684
 20
127.147602
 30
0.0
 10
5.953125
 20
126.409044
 30
0.0
 10
5.953125
 20
125.498366
 30
0.0
  0
SPLINE
  5
102
100
AcDbEntity
  8
Cut
 62
7
100
AcDbSpline
 70
8
 71
3
 72
8
 73
4
 74
0
 40
0
 40
0
 40
0
 40
0
 40
1
 40
1
 40
1
 40
1
 10
5.953125
 20
125.498366
 30
0.0
 10
5.953125
 20
124.587689
 30
0.0
 10
6.691684
 20
123.849130
 30
0.0
 10
7.602361
 20
123.849130
 30
0.0
  0
SPLINE
  5
103
100
AcDbEntity
  8
Cut
 62
7
100
AcDbSpline
 70
8
 71
3
 72
8
 73
4
 74
0
 40
0
 40
0
 40
0
 40
0
 40
1
 40
1
 40
1
 40
1
 10
7.602361
 20
123.849130
 30
0.0
 10
8.513039
 20
123.849130
 30
0.0
 10
9.251597
 20
124.587689
 30
0.0
 10
9.251597
 20
125.498366
 30
0.0
  0
SPLINE
  5
104
100
AcDbEntity
  8
Cut
 62
7
100
AcDbSpline
 70
8
 71
3
 72
8
 73
4
 74
0
 40
0
 40
0
 40
0
 40
0
 40
1
 40
1
 40
1
 40
1
 10
9.251597
 20
125.498366
 30
0.0
 10
9.251597
 20
126.409044
 30
0.0
 10
8.513039
 20
127.147602
 30
0.0
 10
7.602361
 20
127.147602
 30
0.0
  0
LWPOLYLINE
  5
105
100
AcDbEntity
  8
Cut
 62
7
100
AcDbPolyline
 90
6
 70
0
 10
0.149931
 20
128.452880
 30
0.0
 10
50.553056
 20
128.452880
 30
0.0
 10
50.553056
 20
0.050574
 30
0.0
 10
0.149931
 20
0.050574
 30
0.0
 10
0.149931
 20
128.452880
 30
0.0
 10
0.149931
 20
128.452880
 30
0.0
  0
SPLINE
  5
106
100
AcDbEntity
  8
Cut
 62
7
100
AcDbSpline
 70
8
 71
3
 72
8
 73
4
 74
0
 40
0
 40
0
 40
0
 40
0
 40
1
 40
1
 40
1
 40
1
 10
7.602361
 20
127.050588
 30
0.0
 10
8.458995
 20
127.050588
 30
0.0
 10
9.145764
 20
126.354998
 30
0.0
 10
9.145764
 20
125.498366
 30
0.0
  0
SPLINE
  5
107
100
AcDbEntity
  8
Cut
 62
7
100
AcDbSpline
 70
8
 71
3
 72
8
 73
4
 74
0
 40
0
 40
0
 40
0
 40
0
 40
1
 40
1
 40
1
 40
1
 10
9.145764
 20
125.498366
 30
0.0
 10
9.145764
 20
124.641734
 30
0.0
 10
8.458995
 20
123.946144
 30
0.0
 10
7.602361
 20
123.946144
 30
0.0
  0
SPLINE
  5
108
100
AcDbEntity
  8
Cut
 62
7
100
AcDbSpline
 70
8
 71
3
 72
8
 73
4
 74
0
 40
0
 40
0
 40
0
 40
0
 40
1
 40
1
 40
1
 40
1
 10
7.602361
 20
123.946144
 30
0.0
 10
6.745727
 20
123.946144
 30
0.0
 10
6.050139
 20
124.641734
 30
0.0
 10
6.050139
 20
125.498366
 30
0.0
  0
SPLINE
  5
109
100
AcDbEntity
  8
Cut
 62
7
100
AcDbSpline
 70
8
 71
3
 72
8
 73
4
 74
0
 40
0
 40
0
 40
0
 40
0
 40
1
 40
1
 40
1
 40
1
 10
6.050139
 20
125.498366
 30
0.0
 10
6.050139
 20
126.354998
 30
0.0
 10
6.745727
 20
127.050588
 30
0.0
 10
7.602361
 20
127.050588
 30
0.0
  0
LWPOLYLINE
  5
10a
100
AcDbEntity
  8
Cut
 62
7
100
AcDbPolyline
 90
2
 70
0
 10
7.602361
 20
127.147602
 30
0.0
 10
7.602361
 20
127.147602
 30
0.0
  0
SPLINE
  5
10b
100
AcDbEntity
  8
Cut
 62
7
100
AcDbSpline
 70
8
 71
3
 72
8
 73
4
 74
0
 40
0
 40
0
 40
0
 40
0
 40
1
 40
1
 40
1
 40
1
 10
7.602361
 20
4.654352
 30
0.0
 10
6.691684
 20
4.654352
 30
0.0
 10
5.953125
 20
3.906972
 30
0.0
 10
5.953125
 20
2.996297
 30
0.0
  0
SPLINE
  5
10c
100
AcDbEntity
  8
Cut
 62
7
100
AcDbSpline
 70
8
 71
3
 72
8
 73
4
 74
0
 40
0
 40
0
 40
0
 40
0
 40
1
 40
1
 40
1
 40
1
 10
5.953125
 20
2.996297
 30
0.0
 10
5.953125
 20
2.085594
 30
0.0
 10
6.691684
 20
1.347047
 30
0.0
 10
7.602361
 20
1.347047
 30
0.0
  0
SPLINE
  5
10d
100
AcDbEntity
  8
Cut
 62
7
100
AcDbSpline
 70
8
 71
3
 72
8
 73
4
 74
0
 40
0
 40
0
 40
0
 40
0
 40
1
 40
1
 40
1
 40
1
 10
7.602361
 20
1.347047
 30
0.0
 10
8.513039
 20
1.347047
 30
0.0
 10
9.251597
 20
2.085594
 30
0.0
 10
9.251597
 20
2.996297
 30
0.0
  0
SPLINE
  5
10e
100
AcDbEntity
  8
Cut
 62
7
100
AcDbSpline
 70
8
 71
3
 72
8
 73
4
 74
0
 40
0
 40
0
 40
0
 40
0
 40
1
 40
1
 40
1
 40
1
 10
9.251597
 20
2.996297
 30
0.0
 10
9.251597
 20
3.906972
 30
0.0
 10
8.513039
 20
4.654352
 30
0.0
 10
7.602361
 20
4.654352
 30
0.0
  0
LWPOLYLINE
  5
10f
100
AcDbEntity
  8
Cut
 62
7
100
AcDbPolyline
 90
2
 70
0
 10
7.602361
 20
127.050588
 30
0.0
 10
7.602361
 20
127.050588
 30
0.0
  0
SPLINE
  5
110
100
AcDbEntity
  8
Cut
 62
7
100
AcDbSpline
 70
8
 71
3
 72
8
 73
4
 74
0
 40
0
 40
0
 40
0
 40
0
 40
1
 40
1
 40
1
 40
1
 10
7.602361
 20
4.548519
 30
0.0
 10
8.458995
 20
4.548519
 30
0.0
 10
9.145764
 20
3.852926
 30
0.0
 10
9.145764
 20
2.996297
 30
0.0
  0
SPLINE
  5
111
100
AcDbEntity
  8
Cut
 62
7
100
AcDbSpline
 70
8
 71
3
 72
8
 73
4
 74
0
 40
0
 40
0
 40
0
 40
0
 40
1
 40
1
 40
1
 40
1
 10
9.145764
 20
2.996297
 30
0.0
 10
9.145764
 20
2.139640
 30
0.0
 10
8.458995
 20
1.452880
 30
0.0
 10
7.602361
 20
1.452880
 30
0.0
  0
SPLINE
  5
112
100
AcDbEntity
  8
Cut
 62
7
100
AcDbSpline
 70
8
 71
3
 72
8
 73
4
 74
0
 40
0
 40
0
 40
0
 40
0
 40
1
 40
1
 40
1
 40
1
 10
7.602361
 20
1.452880
 30
0.0
 10
6.745727
 20
1.452880
 30
0.0
 10
6.050139
 20
2.139640
 30
0.0
 10
6.050139
 20
2.996297
 30
0.0
  0
SPLINE
  5
113
100
AcDbEntity
  8
Cut
 62
7
100
AcDbSpline
 70
8
 71
3
 72
8
 73
4
 74
0
 40
0
 40
0
 40
0
 40
0
 40
1
 40
1
 40
1
 40
1
 10
6.050139
 20
2.996297
 30
0.0
 10
6.050139
 20
3.852926
 30
0.0
 10
6.745727
 20
4.548519
 30
0.0
 10
7.602361
 20
4.548519
 30
0.0
  0
LWPOLYLINE
  5
114
100
AcDbEntity
  8
Cut
 62
7
100
AcDbPolyline
 90
2
 70
0
 10
7.602361
 20
4.654352
 30
0.0
 10
7.602361
 20
4.654352
 30
0.0
  0
SPLINE
  5
115
100
AcDbEntity
  8
Cut
 62
7
100
AcDbSpline
 70
8
 71
3
 72
8
 73
4
 74
0
 40
0
 40
0
 40
0
 40
0
 40
1
 40
1
 40
1
 40
1
 10
43.162361
 20
127.147602
 30
0.0
 10
42.251684
 20
127.147602
 30
0.0
 10
41.513125
 20
126.409044
 30
0.0
 10
41.513125
 20
125.498366
 30
0.0
  0
SPLINE
  5
116
100
AcDbEntity
  8
Cut
 62
7
100
AcDbSpline
 70
8
 71
3
 72
8
 73
4
 74
0
 40
0
 40
0
 40
0
 40
0
 40
1
 40
1
 40
1
 40
1
 10
41.513125
 20
125.498366
 30
0.0
 10
41.513125
 20
124.587689
 30
0.0
 10
42.251684
 20
123.849130
 30
0.0
 10
43.162361
 20
123.849130
 30
0.0
  0
SPLINE
  5
117
100
AcDbEntity
  8
Cut
 62
7
100
AcDbSpline
 70
8
 71
3
 72
8
 73
4
 74
0
 40
0
 40
0
 40
0
 40
0
 40
1
 40
1
 40
1
 40
1
 10
43.162361
 20
123.849130
 30
0.0
 10
44.073041
 20
123.849130
 30
0.0
 10
44.811597
 20
124.587689
 30
0.0
 10
44.811597
 20
125.498366
 30
0.0
  0
SPLINE
  5
118
100
AcDbEntity
  8
Cut
 62
7
100
AcDbSpline
 70
8
 71
3
 72
8
 73
4
 74
0
 40
0
 40
0
 40
0
 40
0
 40
1
 40
1
 40
1
 40
1
 10
44.811597
 20
125.498366
 30
0.0
 10
44.811597
 20
126.409044
 30
0.0
 10
44.073041
 20
127.147602
 30
0.0
 10
43.162361
 20
127.147602
 30
0.0
  0
LWPOLYLINE
  5
119
100
AcDbEntity
  8
Cut
 62
7
100
AcDbPolyline
 90
2
 70
0
 10
7.602361
 20
4.548519
 30
0.0
 10
7.602361
 20
4.548519
 30
0.0
  0
SPLINE
  5
11a
100
AcDbEntity
  8
Cut
 62
7
100
AcDbSpline
 70
8
 71
3
 72
8
 73
4
 74
0
 40
0
 40
0
 40
0
 40
0
 40
1
 40
1
 40
1
 40
1
 10
43.162361
 20
127.050588
 30
0.0
 10
44.018996
 20
127.050588
 30
0.0
 10
44.705764
 20
126.354998
 30
0.0
 10
44.705764
 20
125.498366
 30
0.0
  0
SPLINE
  5
11b
100
AcDbEntity
  8
Cut
 62
7
100
AcDbSpline
 70
8
 71
3
 72
8
 73
4
 74
0
 40
0
 40
0
 40
0
 40
0
 40
1
 40
1
 40
1
 40
1
 10
44.705764
 20
125.498366
 30
0.0
 10
44.705764
 20
124.641734
 30
0.0
 10
44.018996
 20
123.946144
 30
0.0
 10
43.162361
 20
123.946144
 30
0.0
  0
SPLINE
  5
11c
100
AcDbEntity
  8
Cut
 62
7
100
AcDbSpline
 70
8
 71
3
 72
8
 73
4
 74
0
 40
0
 40
0
 40
0
 40
0
 40
1
 40
1
 40
1
 40
1
 10
43.162361
 20
123.946144
 30
0.0
 10
42.305729
 20
123.946144
 30
0.0
 10
41.610139
 20
124.641734
 30
0.0
 10
41.610139
 20
125.498366
 30
0.0
  0
SPLINE
  5
11d
100
AcDbEntity
  8
Cut
 62
7
100
AcDbSpline
 70
8
 71
3
 72
8
 73
4
 74
0
 40
0
 40
0
 40
0
 40
0
 40
1
 40
1
 40
1
 40
1
 10
41.610139
 20
125.498366
 30
0.0
 10
41.610139
 20
126.354998
 30
0.0
 10
42.305729
 20
127.050588
 30
0.0
 10
43.162361
 20
127.050588
 30
0.0
  0
LWPOLYLINE
  5
11e
100
AcDbEntity
  8
Cut
 62
7
100
AcDbPolyline
 90
2
 70
0
 10
43.162361
 20
127.147602
 30
0.0
 10
43.162361
 20
127.147602
 30
0.0
  0
SPLINE
  5
11f
100
AcDbEntity
  8
Cut
 62
7
100
AcDbSpline
 70
8
 71
3
 72
8
 73
4
 74
0
 40
0
 40
0
 40
0
 40
0
 40
1
 40
1
 40
1
 40
1
 10
43.162361
 20
4.654352
 30
0.0
 10
42.251684
 20
4.654352
 30
0.0
 10
41.513125
 20
3.906972
 30
0.0
 10
41.513125
 20
2.996297
 30
0.0
  0
SPLINE
  5
120
100
AcDbEntity
  8
Cut
 62
7
100
AcDbSpline
 70
8
 71
3
 72
8
 73
4
 74
0
 40
0
 40
0
 40
0
 40
0
 40
1
 40
1
 40
1
 40
1
 10
41.513125
 20
2.996297
 30
0.0
 10
41.513125
 20
2.085594
 30
0.0
 10
42.251684
 20
1.347047
 30
0.0
 10
43.162361
 20
1.347047
 30
0.0
  0
SPLINE
  5
121
100
AcDbEntity
  8
Cut
 62
7
100
AcDbSpline
 70
8
 71
3
 72
8
 73
4
 74
0
 40
0
 40
0
 40
0
 40
0
 40
1
 40
1
 40
1
 40
1
 10
43.162361
 20
1.347047
 30
0.0
 10
44.073041
 20
1.347047
 30
0.0
 10
44.811597
 20
2.085594
 30
0.0
 10
44.811597
 20
2.996297
 30
0.0
  0
SPLINE
  5
122
100
AcDbEntity
  8
Cut
 62
7
100
AcDbSpline
 70
8
 71
3
 72
8
 73
4
 74
0
 40
0
 40
0
 40
0
 40
0
 40
1
 40
1
 40
1
 40
1
 10
44.811597
 20
2.996297
 30
0.0
 10
44.811597
 20
3.906972
 30
0.0
 10
44.073041
 20
4.654352
 30
0.0
 10
43.162361
 20
4.654352
 30
0.0
  0
LWPOLYLINE
  5
123
100
AcDbEntity
  8
Cut
 62
7
100
AcDbPolyline
 90
2
 70
0
 10
43.162361
 20
127.050588
 30
0.0
 10
43.162361
 20
127.050588
 30
0.0
  0
SPLINE
  5
124
100
AcDbEntity
  8
Cut
 62
7
100
AcDbSpline
 70
8
 71
3
 72
8
 73
4
 74
0
 40
0
 40
0
 40
0
 40
0
 40
1
 40
1
 40
1
 40
1
 10
43.162361
 20
4.548519
 30
0.0
 10
44.018996
 20
4.548519
 30
0.0
 10
44.705764
 20
3.852926
 30
0.0
 10
44.705764
 20
2.996297
 30
0.0
  0
SPLINE
  5
125
100
AcDbEntity
  8
Cut
 62
7
100
AcDbSpline
 70
8
 71
3
 72
8
 73
4
 74
0
 40
0
 40
0
 40
0
 40
0
 40
1
 40
1
 40
1
 40
1
 10
44.705764
 20
2.996297
 30
0.0
 10
44.705764
 20
2.139640
 30
0.0
 10
44.018996
 20
1.452880
 30
0.0
 10
43.162361
 20
1.452880
 30
0.0
  0
SPLINE
  5
126
100
AcDbEntity
  8
Cut
 62
7
100
AcDbSpline
 70
8
 71
3
 72
8
 73
4
 74
0
 40
0
 40
0
 40
0
 40
0
 40
1
 40
1
 40
1
 40
1
 10
43.162361
 20
1.452880
 30
0.0
 10
42.305729
 20
1.452880
 30
0.0
 10
41.610139
 20
2.139640
 30
0.0
 10
41.610139
 20
2.996297
 30
0.0
  0
SPLINE
  5
127
100
AcDbEntity
  8
Cut
 62
7
100
AcDbSpline
 70
8
 71
3
 72
8
 73
4
 74
0
 40
0
 40
0
 40
0
 40
0
 40
1
 40
1
 40
1
 40
1
 10
41.610139
 20
2.996297
 30
0.0
 10
41.610139
 20
3.852926
 30
0.0
 10
42.305729
 20
4.548519
 30
0.0
 10
43.162361
 20
4.548519
 30
0.0
  0
LWPOLYLINE
  5
128
100
AcDbEntity
  8
Cut
 62
7
100
AcDbPolyline
 90
2
 70
0
 10
43.162361
 20
4.654352
 30
0.0
 10
43.162361
 20
4.654352
 30
0.0
  0
SPLINE
  5
129
100
AcDbEntity
  8
Cut
 62
7
100
AcDbSpline
 70
8
 71
3
 72
8
 73
4
 74
0
 40
0
 40
0
 40
0
 40
0
 40
1
 40
1
 40
1
 40
1
 10
12.647083
 20
68.798158
 30
0.0
 10
10.134780
 20
68.798158
 30
0.0
 10
8.096250
 20
66.759610
 30
0.0
 10
8.096250
 20
64.247324
 30
0.0
  0
SPLINE
  5
12a
100
AcDbEntity
  8
Cut
 62
7
100
AcDbSpline
 70
8
 71
3
 72
8
 73
4
 74
0
 40
0
 40
0
 40
0
 40
0
 40
1
 40
1
 40
1
 40
1
 10
8.096250
 20
64.247324
 30
0.0
 10
8.096250
 20
61.735039
 30
0.0
 10
10.134780
 20
59.696491
 30
0.0
 10
12.647083
 20
59.696491
 30
0.0
  0
SPLINE
  5
12b
100
AcDbEntity
  8
Cut
 62
7
100
AcDbSpline
 70
8
 71
3
 72
8
 73
4
 74
0
 40
0
 40
0
 40
0
 40
0
 40
1
 40
1
 40
1
 40
1
 10
12.647083
 20
59.696491
 30
0.0
 10
15.159387
 20
59.696491
 30
0.0
 10
17.197917
 20
61.735039
 30
0.0
 10
17.197917
 20
64.247324
 30
0.0
  0
SPLINE
  5
12c
100
AcDbEntity
  8
Cut
 62
7
100
AcDbSpline
 70
8
 71
3
 72
8
 73
4
 74
0
 40
0
 40
0
 40
0
 40
0
 40
1
 40
1
 40
1
 40
1
 10
17.197917
 20
64.247324
 30
0.0
 10
17.197917
 20
66.759610
 30
0.0
 10
15.159387
 20
68.798158
 30
0.0
 10
12.647083
 20
68.798158
 30
0.0
  0
LWPOLYLINE
  5
12d
100
AcDbEntity
  8
Cut
 62
7
100
AcDbPolyline
 90
2
 70
0
 10
43.162361
 20
4.548519
 30
0.0
 10
43.162361
 20
4.548519
 30
0.0
  0
SPLINE
  5
12e
100
AcDbEntity
  8
Cut
 62
7
100
AcDbSpline
 70
8
 71
3
 72
8
 73
4
 74
0
 40
0
 40
0
 40
0
 40
0
 40
1
 40
1
 40
1
 40
1
 10
12.647083
 20
68.701130
 30
0.0
 10
15.105343
 20
68.701130
 30
0.0
 10
17.100903
 20
66.705593
 30
0.0
 10
17.100903
 20
64.247324
 30
0.0
  0
SPLINE
  5
12f
100
AcDbEntity
  8
Cut
 62
7
100
AcDbSpline
 70
8
 71
3
 72
8
 73
4
 74
0
 40
0
 40
0
 40
0
 40
0
 40
1
 40
1
 40
1
 40
1
 10
17.100903
 20
64.247324
 30
0.0
 10
17.100903
 20
61.789056
 30
0.0
 10
15.105343
 20
59.802324
 30
0.0
 10
12.647083
 20
59.802324
 30
0.0
  0
SPLINE
  5
130
100
AcDbEntity
  8
Cut
 62
7
100
AcDbSpline
 70
8
 71
3
 72
8
 73
4
 74
0
 40
0
 40
0
 40
0
 40
0
 40
1
 40
1
 40
1
 40
1
 10
12.647083
 20
59.802324
 30
0.0
 10
10.188824
 20
59.802324
 30
0.0
 10
8.202083
 20
61.789056
 30
0.0
 10
8.202083
 20
64.247324
 30
0.0
  0
SPLINE
  5
131
100
AcDbEntity
  8
Cut
 62
7
100
AcDbSpline
 70
8
 71
3
 72
8
 73
4
 74
0
 40
0
 40
0
 40
0
 40
0
 40
1
 40
1
 40
1
 40
1
 10
8.202083
 20
64.247324
 30
0.0
 10
8.202083
 20
66.705593
 30
0.0
 10
10.188824
 20
68.701130
 30
0.0
 10
12.647083
 20
68.701130
 30
0.0
  0
LWPOLYLINE
  5
132
100
AcDbEntity
  8
Cut
 62
7
100
AcDbPolyline
 90
2
 70
0
 10
12.647083
 20
68.798158
 30
0.0
 10
12.647083
 20
68.798158
 30
0.0
  0
SPLINE
  5
133
100
AcDbEntity
  8
Cut
 62
7
100
AcDbSpline
 70
8
 71
3
 72
8
 73
4
 74
0
 40
0
 40
0
 40
0
 40
0
 40
1
 40
1
 40
1
 40
1
 10
38.047083
 20
68.798158
 30
0.0
 10
35.534778
 20
68.798158
 30
0.0
 10
33.496250
 20
66.759610
 30
0.0
 10
33.496250
 20
64.247324
 30
0.0
  0
SPLINE
  5
134
100
AcDbEntity
  8
Cut
 62
7
100
AcDbSpline
 70
8
 71
3
 72
8
 73
4
 74
0
 40
0
 40
0
 40
0
 40
0
 40
1
 40
1
 40
1
 40
1
 10
33.496250
 20
64.247324
 30
0.0
 10
33.496250
 20
61.735039
 30
0.0
 10
35.534778
 20
59.696491
 30
0.0
 10
38.047083
 20
59.696491
 30
0.0
  0
SPLINE
  5
135
100
AcDbEntity
  8
Cut
 62
7
100
AcDbSpline
 70
8
 71
3
 72
8
 73
4
 74
0
 40
0
 40
0
 40
0
 40
0
 40
1
 40
1
 40
1
 40
1
 10
38.047083
 20
59.696491
 30
0.0
 10
40.559389
 20
59.696491
 30
0.0
 10
42.597917
 20
61.735039
 30
0.0
 10
42.597917
 20
64.247324
 30
0.0
  0
SPLINE
  5
136
100
AcDbEntity
  8
Cut
 62
7
100
AcDbSpline
 70
8
 71
3
 72
8
 73
4
 74
0
 40
0
 40
0
 40
0
 40
0
 40
1
 40
1
 40
1
 40
1
 10
42.597917
 20
64.247324
 30
0.0
 10
42.597917
 20
66.759610
 30
0.0
 10
40.559389
 20
68.798158
 30
0.0
 10
38.047083
 20
68.798158
 30
0.0
  0
LWPOLYLINE
  5
137
100
AcDbEntity
  8
Cut
 62
7
100
AcDbPolyline
 90
2
 70
0
 10
12.647083
 20
68.701130
 30
0.0
 10
12.647083
 20
68.701130
 30
0.0
  0
SPLINE
  5
138
100
AcDbEntity
  8
Cut
 62
7
100
AcDbSpline
 70
8
 71
3
 72
8
 73
4
 74
0
 40
0
 40
0
 40
0
 40
0
 40
1
 40
1
 40
1
 40
1
 10
38.047083
 20
68.701130
 30
0.0
 10
40.505343
 20
68.701130
 30
0.0
 10
42.500903
 20
66.705593
 30
0.0
 10
42.500903
 20
64.247324
 30
0.0
  0
SPLINE
  5
139
100
AcDbEntity
  8
Cut
 62
7
100
AcDbSpline
 70
8
 71
3
 72
8
 73
4
 74
0
 40
0
 40
0
 40
0
 40
0
 40
1
 40
1
 40
1
 40
1
 10
42.500903
 20
64.247324
 30
0.0
 10
42.500903
 20
61.789056
 30
0.0
 10
40.505343
 20
59.802324
 30
0.0
 10
38.047083
 20
59.802324
 30
0.0
  0
SPLINE
  5
13a
100
AcDbEntity
  8
Cut
 62
7
100
AcDbSpline
 70
8
 71
3
 72
8
 73
4
 74
0
 40
0
 40
0
 40
0
 40
0
 40
1
 40
1
 40
1
 40
1
 10
38.047083
 20
59.802324
 30
0.0
 10
35.588823
 20
59.802324
 30
0.0
 10
33.602083
 20
61.789056
 30
0.0
 10
33.602083
 20
64.247324
 30
0.0
  0
SPLINE
  5
13b
100
AcDbEntity
  8
Cut
 62
7
100
AcDbSpline
 70
8
 71
3
 72
8
 73
4
 74
0
 40
0
 40
0
 40
0
 40
0
 40
1
 40
1
 40
1
 40
1
 10
33.602083
 20
64.247324
 30
0.0
 10
33.602083
 20
66.705593
 30
0.0
 10
35.588823
 20
68.701130
 30
0.0
 10
38.047083
 20
68.701130
 30
0.0
  0
LWPOLYLINE
  5
13c
100
AcDbEntity
  8
Cut
 62
7
100
AcDbPolyline
 90
2
 70
0
 10
38.047083
 20
68.798158
 30
0.0
 10
38.047083
 20
68.798158
 30
0.0
  0
SPLINE
  5
13d
100
AcDbEntity
  8
Cut
 62
7
100
AcDbSpline
 70
8
 71
3
 72
8
 73
4
 74
0
 40
0
 40
0
 40
0
 40
0
 40
1
 40
1
 40
1
 40
1
 10
12.647083
 20
87.848158
 30
0.0
 10
10.134780
 20
87.848158
 30
0.0
 10
8.096250
 20
85.809630
 30
0.0
 10
8.096250
 20
83.297324
 30
0.0
  0
SPLINE
  5
13e
100
AcDbEntity
  8
Cut
 62
7
100
AcDbSpline
 70
8
 71
3
 72
8
 73
4
 74
0
 40
0
 40
0
 40
0
 40
0
 40
1
 40
1
 40
1
 40
1
 10
8.096250
 20
83.297324
 30
0.0
 10
8.096250
 20
80.785022
 30
0.0
 10
10.134780
 20
78.746491
 30
0.0
 10
12.647083
 20
78.746491
 30
0.0
  0
SPLINE
  5
13f
100
AcDbEntity
  8
Cut
 62
7
100
AcDbSpline
 70
8
 71
3
 72
8
 73
4
 74
0
 40
0
 40
0
 40
0
 40
0
 40
1
 40
1
 40
1
 40
1
 10
12.647083
 20
78.746491
 30
0.0
 10
15.159387
 20
78.746491
 30
0.0
 10
17.197917
 20
80.785022
 30
0.0
 10
17.197917
 20
83.297324
 30
0.0
  0
SPLINE
  5
140
100
AcDbEntity
  8
Cut
 62
7
100
AcDbSpline
 70
8
 71
3
 72
8
 73
4
 74
0
 40
0
 40
0
 40
0
 40
0
 40
1
 40
1
 40
1
 40
1
 10
17.197917
 20
83.297324
 30
0.0
 10
17.197917
 20
85.809630
 30
0.0
 10
15.159387
 20
87.848158
 30
0.0
 10
12.647083
 20
87.848158
 30
0.0
  0
LWPOLYLINE
  5
141
100
AcDbEntity
  8
Cut
 62
7
100
AcDbPolyline
 90
2
 70
0
 10
38.047083
 20
68.701130
 30
0.0
 10
38.047083
 20
68.701130
 30
0.0
  0
SPLINE
  5
142
100
AcDbEntity
  8
Cut
 62
7
100
AcDbSpline
 70
8
 71
3
 72
8
 73
4
 74
0
 40
0
 40
0
 40
0
 40
0
 40
1
 40
1
 40
1
 40
1
 10
12.647083
 20
87.751144
 30
0.0
 10
15.105343
 20
87.751144
 30
0.0
 10
17.100903
 20
85.755584
 30
0.0
 10
17.100903
 20
83.297324
 30
0.0
  0
SPLINE
  5
143
100
AcDbEntity
  8
Cut
 62
7
100
AcDbSpline
 70
8
 71
3
 72
8
 73
4
 74
0
 40
0
 40
0
 40
0
 40
0
 40
1
 40
1
 40
1
 40
1
 10
17.100903
 20
83.297324
 30
0.0
 10
17.100903
 20
80.839067
 30
0.0
 10
15.105343
 20
78.852324
 30
0.0
 10
12.647083
 20
78.852324
 30
0.0
  0
SPLINE
  5
144
100
AcDbEntity
  8
Cut
 62
7
100
AcDbSpline
 70
8
 71
3
 72
8
 73
4
 74
0
 40
0
 40
0
 40
0
 40
0
 40
1
 40
1
 40
1
 40
1
 10
12.647083
 20
78.852324
 30
0.0
 10
10.188824
 20
78.852324
 30
0.0
 10
8.202083
 20
80.839067
 30
0.0
 10
8.202083
 20
83.297324
 30
0.0
  0
SPLINE
  5
145
100
AcDbEntity
  8
Cut
 62
7
100
AcDbSpline
 70
8
 71
3
 72
8
 73
4
 74
0
 40
0
 40
0
 40
0
 40
0
 40
1
 40
1
 40
1
 40
1
 10
8.202083
 20
83.297324
 30
0.0
 10
8.202083
 20
85.755584
 30
0.0
 10
10.188824
 20
87.751144
 30
0.0
 10
12.647083
 20
87.751144
 30
0.0
  0
LWPOLYLINE
  5
146
100
AcDbEntity
  8
Cut
 62
7
100
AcDbPolyline
 90
2
 70
0
 10
12.647083
 20
87.848158
 30
0.0
 10
12.647083
 20
87.848158
 30
0.0
  0
SPLINE
  5
147
100
AcDbEntity
  8
Cut
 62
7
100
AcDbSpline
 70
8
 71
3
 72
8
 73
4
 74
0
 40
0
 40
0
 40
0
 40
0
 40
1
 40
1
 40
1
 40
1
 10
38.047083
 20
87.848158
 30
0.0
 10
35.534778
 20
87.848158
 30
0.0
 10
33.496250
 20
85.809630
 30
0.0
 10
33.496250
 20
83.297324
 30
0.0
  0
SPLINE
  5
148
100
AcDbEntity
  8
Cut
 62
7
100
AcDbSpline
 70
8
 71
3
 72
8
 73
4
 74
0
 40
0
 40
0
 40
0
 40
0
 40
1
 40
1
 40
1
 40
1
 10
33.496250
 20
83.297324
 30
0.0
 10
33.496250
 20
80.785022
 30
0.0
 10
35.534778
 20
78.746491
 30
0.0
 10
38.047083
 20
78.746491
 30
0.0
  0
SPLINE
  5
149
100
AcDbEntity
  8
Cut
 62
7
100
AcDbSpline
 70
8
 71
3
 72
8
 73
4
 74
0
 40
0
 40
0
 40
0
 40
0
 40
1
 40
1
 40
1
 40
1
 10
38.047083
 20
78.746491
 30
0.0
 10
40.559389
 20
78.746491
 30
0.0
 10
42.597917
 20
80.785022
 30
0.0
 10
42.597917
 20
83.297324
 30
0.0
  0
SPLINE
  5
14a
100
AcDbEntity
  8
Cut
 62
7
100
AcDbSpline
 70
8
 71
3
 72
8
 73
4
 74
0
 40
0
 40
0
 40
0
 40
0
 40
1
 40
1
 40
1
 40
1
 10
42.597917
 20
83.297324
 30
0.0
 10
42.597917
 20
85.809630
 30
0.0
 10
40.559389
 20
87.848158
 30
0.0
 10
38.047083
 20
87.848158
 30
0.0
  0
LWPOLYLINE
  5
14b
100
AcDbEntity
  8
Cut
 62
7
100
AcDbPolyline
 90
2
 70
0
 10
12.647083
 20
87.751144
 30
0.0
 10
12.647083
 20
87.751144
 30
0.0
  0
SPLINE
  5
14c
100
AcDbEntity
  8
Cut
 62
7
100
AcDbSpline
 70
8
 71
3
 72
8
 73
4
 74
0
 40
0
 40
0
 40
0
 40
0
 40
1
 40
1
 40
1
 40
1
 10
38.047083
 20
87.751144
 30
0.0
 10
40.505343
 20
87.751144
 30
0.0
 10
42.500903
 20
85.755584
 30
0.0
 10
42.500903
 20
83.297324
 30
0.0
  0
SPLINE
  5
14d
100
AcDbEntity
  8
Cut
 62
7
100
AcDbSpline
 70
8
 71
3
 72
8
 73
4
 74
0
 40
0
 40
0
 40
0
 40
0
 40
1
 40
1
 40
1
 40
1
 10
42.500903
 20
83.297324
 30
0.0
 10
42.500903
 20
80.839067
 30
0.0
 10
40.505343
 20
78.852324
 30
0.0
 10
38.047083
 20
78.852324
 30
0.0
  0
SPLINE
  5
14e
100
AcDbEntity
  8
Cut
 62
7
100
AcDbSpline
 70
8
 71
3
 72
8
 73
4
 74
0
 40
0
 40
0
 40
0
 40
0
 40
1
 40
1
 40
1
 40
1
 10
38.047083
 20
78.852324
 30
0.0
 10
35.588823
 20
78.852324
 30
0.0
 10
33.602083
 20
80.839067
 30
0.0
 10
33.602083
 20
83.297324
 30
0.0
  0
SPLINE
  5
14f
100
AcDbEntity
  8
Cut
 62
7
100
AcDbSpline
 70
8
 71
3
 72
8
 73
4
 74
0
 40
0
 40
0
 40
0
 40
0
 40
1
 40
1
 40
1
 40
1
 10
33.602083
 20
83.297324
 30
0.0
 10
33.602083
 20
85.755584
 30
0.0
 10
35.588823
 20
87.751144
 30
0.0
 10
38.047083
 20
87.751144
 30
0.0
  0
LWPOLYLINE
  5
150
100
AcDbEntity
  8
Cut
 62
7
100
AcDbPolyline
 90
2
 70
0
 10
38.047083
 20
87.848158
 30
0.0
 10
38.047083
 20
87.848158
 30
0.0
  0
SPLINE
  5
151
100
AcDbEntity
  8
Cut
 62
7
100
AcDbSpline
 70
8
 71
3
 72
8
 73
4
 74
0
 40
0
 40
0
 40
0
 40
0
 40
1
 40
1
 40
1
 40
1
 10
12.647083
 20
106.898158
 30
0.0
 10
10.134780
 20
106.898158
 30
0.0
 10
8.096250
 20
104.859627
 30
0.0
 10
8.096250
 20
102.347324
 30
0.0
  0
SPLINE
  5
152
100
AcDbEntity
  8
Cut
 62
7
100
AcDbSpline
 70
8
 71
3
 72
8
 73
4
 74
0
 40
0
 40
0
 40
0
 40
0
 40
1
 40
1
 40
1
 40
1
 10
8.096250
 20
102.347324
 30
0.0
 10
8.096250
 20
99.835019
 30
0.0
 10
10.134780
 20
97.796491
 30
0.0
 10
12.647083
 20
97.796491
 30
0.0
  0
SPLINE
  5
153
100
AcDbEntity
  8
Cut
 62
7
100
AcDbSpline
 70
8
 71
3
 72
8
 73
4
 74
0
 40
0
 40
0
 40
0
 40
0
 40
1
 40
1
 40
1
 40
1
 10
12.647083
 20
97.796491
 30
0.0
 10
15.159387
 20
97.796491
 30
0.0
 10
17.197917
 20
99.835019
 30
0.0
 10
17.197917
 20
102.347324
 30
0.0
  0
SPLINE
  5
154
100
AcDbEntity
  8
Cut
 62
7
100
AcDbSpline
 70
8
 71
3
 72
8
 73
4
 74
0
 40
0
 40
0
 40
0
 40
0
 40
1
 40
1
 40
1
 40
1
 10
17.197917
 20
102.347324
 30
0.0
 10
17.197917
 20
104.859627
 30
0.0
 10
15.159387
 20
106.898158
 30
0.0
 10
12.647083
 20
106.898158
 30
0.0
  0
LWPOLYLINE
  5
155
100
AcDbEntity
  8
Cut
 62
7
100
AcDbPolyline
 90
2
 70
0
 10
38.047083
 20
87.751144
 30
0.0
 10
38.047083
 20
87.751144
 30
0.0
  0
SPLINE
  5
156
100
AcDbEntity
  8
Cut
 62
7
100
AcDbSpline
 70
8
 71
3
 72
8
 73
4
 74
0
 40
0
 40
0
 40
0
 40
0
 40
1
 40
1
 40
1
 40
1
 10
12.647083
 20
106.801144
 30
0.0
 10
15.105343
 20
106.801144
 30
0.0
 10
17.100903
 20
104.805582
 30
0.0
 10
17.100903
 20
102.347324
 30
0.0
  0
SPLINE
  5
157
100
AcDbEntity
  8
Cut
 62
7
100
AcDbSpline
 70
8
 71
3
 72
8
 73
4
 74
0
 40
0
 40
0
 40
0
 40
0
 40
1
 40
1
 40
1
 40
1
 10
17.100903
 20
102.347324
 30
0.0
 10
17.100903
 20
99.889064
 30
0.0
 10
15.105343
 20
97.902324
 30
0.0
 10
12.647083
 20
97.902324
 30
0.0
  0
SPLINE
  5
158
100
AcDbEntity
  8
Cut
 62
7
100
AcDbSpline
 70
8
 71
3
 72
8
 73
4
 74
0
 40
0
 40
0
 40
0
 40
0
 40
1
 40
1
 40
1
 40
1
 10
12.647083
 20
97.902324
 30
0.0
 10
10.188824
 20
97.902324
 30
0.0
 10
8.202083
 20
99.889064
 30
0.0
 10
8.202083
 20
102.347324
 30
0.0
  0
SPLINE
  5
159
100
AcDbEntity
  8
Cut
 62
7
100
AcDbSpline
 70
8
 71
3
 72
8
 73
4
 74
0
 40
0
 40
0
 40
0
 40
0
 40
1
 40
1
 40
1
 40
1
 10
8.202083
 20
102.347324
 30
0.0
 10
8.202083
 20
104.805582
 30
0.0
 10
10.188824
 20
106.801144
 30
0.0
 10
12.647083
 20
106.801144
 30
0.0
  0
LWPOLYLINE
  5
15a
100
AcDbEntity
  8
Cut
 62
7
100
AcDbPolyline
 90
2
 70
0
 10
12.647083
 20
106.898158
 30
0.0
 10
12.647083
 20
106.898158
 30
0.0
  0
SPLINE
  5
15b
100
AcDbEntity
  8
Cut
 62
7
100
AcDbSpline
 70
8
 71
3
 72
8
 73
4
 74
0
 40
0
 40
0
 40
0
 40
0
 40
1
 40
1
 40
1
 40
1
 10
38.047083
 20
106.898158
 30
0.0
 10
35.534778
 20
106.898158
 30
0.0
 10
33.496250
 20
104.859627
 30
0.0
 10
33.496250
 20
102.347324
 30
0.0
  0
SPLINE
  5
15c
100
AcDbEntity
  8
Cut
 62
7
100
AcDbSpline
 70
8
 71
3
 72
8
 73
4
 74
0
 40
0
 40
0
 40
0
 40
0
 40
1
 40
1
 40
1
 40
1
 10
33.496250
 20
102.347324
 30
0.0
 10
33.496250
 20
99.835019
 30
0.0
 10
35.534778
 20
97.796491
 30
0.0
 10
38.047083
 20
97.796491
 30
0.0
  0
SPLINE
  5
15d
100
AcDbEntity
  8
Cut
 62
7
100
AcDbSpline
 70
8
 71
3
 72
8
 73
4
 74
0
 40
0
 40
0
 40
0
 40
0
 40
1
 40
1
 40
1
 40
1
 10
38.047083
 20
97.796491
 30
0.0
 10
40.559389
 20
97.796491
 30
0.0
 10
42.597917
 20
99.835019
 30
0.0
 10
42.597917
 20
102.347324
 30
0.0
  0
SPLINE
  5
15e
100
AcDbEntity
  8
Cut
 62
7
100
AcDbSpline
 70
8
 71
3
 72
8
 73
4
 74
0
 40
0
 40
0
 40
0
 40
0
 40
1
 40
1
 40
1
 40
1
 10
42.597917
 20
102.347324
 30
0.0
 10
42.597917
 20
104.859627
 30
0.0
 10
40.559389
 20
106.898158
 30
0.0
 10
38.047083
 20
106.898158
 30
0.0
  0
LWPOLYLINE
  5
15f
100
AcDbEntity
  8
Cut
 62
7
100
AcDbPolyline
 90
2
 70
0
 10
12.647083
 20
106.801144
 30
0.0
 10
12.647083
 20
106.801144
 30
0.0
  0
SPLINE
  5
160
100
AcDbEntity
  8
Cut
 62
7
100
AcDbSpline
 70
8
 71
3
 72
8
 73
4
 74
0
 40
0
 40
0
 40
0
 40
0
 40
1
 40
1
 40
1
 40
1
 10
38.047083
 20
106.801144
 30
0.0
 10
40.505343
 20
106.801144
 30
0.0
 10
42.500903
 20
104.805582
 30
0.0
 10
42.500903
 20
102.347324
 30
0.0
  0
SPLINE
  5
161
100
AcDbEntity
  8
Cut
 62
7
100
AcDbSpline
 70
8
 71
3
 72
8
 73
4
 74
0
 40
0
 40
0
 40
0
 40
0
 40
1
 40
1
 40
1
 40
1
 10
42.500903
 20
102.347324
 30
0.0
 10
42.500903
 20
99.889064
 30
0.0
 10
40.505343
 20
97.902324
 30
0.0
 10
38.047083
 20
97.902324
 30
0.0
  0
SPLINE
  5
162
100
AcDbEntity
  8
Cut
 62
7
100
AcDbSpline
 70
8
 71
3
 72
8
 73
4
 74
0
 40
0
 40
0
 40
0
 40
0
 40
1
 40
1
 40
1
 40
1
 10
38.047083
 20
97.902324
 30
0.0
 10
35.588823
 20
97.902324
 30
0.0
 10
33.602083
 20
99.889064
 30
0.0
 10
33.602083
 20
102.347324
 30
0.0
  0
SPLINE
  5
163
100
AcDbEntity
  8
Cut
 62
7
100
AcDbSpline
 70
8
 71
3
 72
8
 73
4
 74
0
 40
0
 40
0
 40
0
 40
0
 40
1
 40
1
 40
1
 40
1
 10
33.602083
 20
102.347324
 30
0.0
 10
33.602083
 20
104.805582
 30
0.0
 10
35.588823
 20
106.801144
 30
0.0
 10
38.047083
 20
106.801144
 30
0.0
  0
LWPOLYLINE
  5
164
100
AcDbEntity
  8
Cut
 62
7
100
AcDbPolyline
 90
2
 70
0
 10
38.047083
 20
106.898158
 30
0.0
 10
38.047083
 20
106.898158
 30
0.0
  0
SPLINE
  5
165
100
AcDbEntity
  8
Cut
 62
7
100
AcDbSpline
 70
8
 71
3
 72
8
 73
4
 74
0
 40
0
 40
0
 40
0
 40
0
 40
1
 40
1
 40
1
 40
1
 10
25.347083
 20
59.449547
 30
0.0
 10
24.491634
 20
59.449547
 30
0.0
 10
23.803681
 20
58.752768
 30
0.0
 10
23.803681
 20
57.897324
 30
0.0
  0
SPLINE
  5
166
100
AcDbEntity
  8
Cut
 62
7
100
AcDbSpline
 70
8
 71
3
 72
8
 73
4
 74
0
 40
0
 40
0
 40
0
 40
0
 40
1
 40
1
 40
1
 40
1
 10
23.803681
 20
57.897324
 30
0.0
 10
23.803681
 20
57.041881
 30
0.0
 10
24.491634
 20
56.353908
 30
0.0
 10
25.347083
 20
56.353908
 30
0.0
  0
SPLINE
  5
167
100
AcDbEntity
  8
Cut
 62
7
100
AcDbSpline
 70
8
 71
3
 72
8
 73
4
 74
0
 40
0
 40
0
 40
0
 40
0
 40
1
 40
1
 40
1
 40
1
 10
25.347083
 20
56.353908
 30
0.0
 10
26.202533
 20
56.353908
 30
0.0
 10
26.899306
 20
57.041881
 30
0.0
 10
26.899306
 20
57.897324
 30
0.0
  0
SPLINE
  5
168
100
AcDbEntity
  8
Cut
 62
7
100
AcDbSpline
 70
8
 71
3
 72
8
 73
4
 74
0
 40
0
 40
0
 40
0
 40
0
 40
1
 40
1
 40
1
 40
1
 10
26.899306
 20
57.897324
 30
0.0
 10
26.899306
 20
58.752768
 30
0.0
 10
26.202533
 20
59.449547
 30
0.0
 10
25.347083
 20
59.449547
 30
0.0
  0
LWPOLYLINE
  5
169
100
AcDbEntity
  8
Cut
 62
7
100
AcDbPolyline
 90
2
 70
0
 10
38.047083
 20
106.801144
 30
0.0
 10
38.047083
 20
106.801144
 30
0.0
  0
SPLINE
  5
16a
100
AcDbEntity
  8
Cut
 62
7
100
AcDbSpline
 70
8
 71
3
 72
8
 73
4
 74
0
 40
0
 40
0
 40
0
 40
0
 40
1
 40
1
 40
1
 40
1
 10
25.347083
 20
59.352519
 30
0.0
 10
26.148488
 20
59.352519
 30
0.0
 10
26.802292
 20
58.698751
 30
0.0
 10
26.802292
 20
57.897324
 30
0.0
  0
SPLINE
  5
16b
100
AcDbEntity
  8
Cut
 62
7
100
AcDbSpline
 70
8
 71
3
 72
8
 73
4
 74
0
 40
0
 40
0
 40
0
 40
0
 40
1
 40
1
 40
1
 40
1
 10
26.802292
 20
57.897324
 30
0.0
 10
26.802292
 20
57.095898
 30
0.0
 10
26.148488
 20
56.450936
 30
0.0
 10
25.347083
 20
56.450936
 30
0.0
  0
SPLINE
  5
16c
100
AcDbEntity
  8
Cut
 62
7
100
AcDbSpline
 70
8
 71
3
 72
8
 73
4
 74
0
 40
0
 40
0
 40
0
 40
0
 40
1
 40
1
 40
1
 40
1
 10
25.347083
 20
56.450936
 30
0.0
 10
24.545679
 20
56.450936
 30
0.0
 10
23.900694
 20
57.095898
 30
0.0
 10
23.900694
 20
57.897324
 30
0.0
  0
SPLINE
  5
16d
100
AcDbEntity
  8
Cut
 62
7
100
AcDbSpline
 70
8
 71
3
 72
8
 73
4
 74
0
 40
0
 40
0
 40
0
 40
0
 40
1
 40
1
 40
1
 40
1
 10
23.900694
 20
57.897324
 30
0.0
 10
23.900694
 20
58.698751
 30
0.0
 10
24.545679
 20
59.352519
 30
0.0
 10
25.347083
 20
59.352519
 30
0.0
  0
LWPOLYLINE
  5
16e
100
AcDbEntity
  8
Cut
 62
7
100
AcDbPolyline
 90
2
 70
0
 10
25.347083
 20
59.449547
 30
0.0
 10
25.347083
 20
59.449547
 30
0.0
  0
SPLINE
  5
16f
100
AcDbEntity
  8
Cut
 62
7
100
AcDbSpline
 70
8
 71
3
 72
8
 73
4
 74
0
 40
0
 40
0
 40
0
 40
0
 40
1
 40
1
 40
1
 40
1
 10
12.647083
 20
46.749547
 30
0.0
 10
11.791635
 20
46.749547
 30
0.0
 10
11.103681
 20
46.052768
 30
0.0
 10
11.103681
 20
45.197324
 30
0.0
  0
SPLINE
  5
170
100
AcDbEntity
  8
Cut
 62
7
100
AcDbSpline
 70
8
 71
3
 72
8
 73
4
 74
0
 40
0
 40
0
 40
0
 40
0
 40
1
 40
1
 40
1
 40
1
 10
11.103681
 20
45.197324
 30
0.0
 10
11.103681
 20
44.341881
 30
0.0
 10
11.791634
 20
43.653908
 30
0.0
 10
12.647083
 20
43.653908
 30
0.0
  0
SPLINE
  5
171
100
AcDbEntity
  8
Cut
 62
7
100
AcDbSpline
 70
8
 71
3
 72
8
 73
4
 74
0
 40
0
 40
0
 40
0
 40
0
 40
1
 40
1
 40
1
 40
1
 10
12.647083
 20
43.653908
 30
0.0
 10
13.502532
 20
43.653908
 30
0.0
 10
14.199306
 20
44.341881
 30
0.0
 10
14.199306
 20
45.197324
 30
0.0
  0
SPLINE
  5
172
100
AcDbEntity
  8
Cut
 62
7
100
AcDbSpline
 70
8
 71
3
 72
8
 73
4
 74
0
 40
0
 40
0
 40
0
 40
0
 40
1
 40
1
 40
1
 40
1
 10
14.199306
 20
45.197324
 30
0.0
 10
14.199306
 20
46.052768
 30
0.0
 10
13.502531
 20
46.749547
 30
0.0
 10
12.647083
 20
46.749547
 30
0.0
  0
LWPOLYLINE
  5
173
100
AcDbEntity
  8
Cut
 62
7
100
AcDbPolyline
 90
2
 70
0
 10
25.347083
 20
59.352519
 30
0.0
 10
25.347083
 20
59.352519
 30
0.0
  0
SPLINE
  5
174
100
AcDbEntity
  8
Cut
 62
7
100
AcDbSpline
 70
8
 71
3
 72
8
 73
4
 74
0
 40
0
 40
0
 40
0
 40
0
 40
1
 40
1
 40
1
 40
1
 10
12.647083
 20
46.652519
 30
0.0
 10
13.448489
 20
46.652519
 30
0.0
 10
14.102292
 20
45.998751
 30
0.0
 10
14.102292
 20
45.197324
 30
0.0
  0
SPLINE
  5
175
100
AcDbEntity
  8
Cut
 62
7
100
AcDbSpline
 70
8
 71
3
 72
8
 73
4
 74
0
 40
0
 40
0
 40
0
 40
0
 40
1
 40
1
 40
1
 40
1
 10
14.102292
 20
45.197324
 30
0.0
 10
14.102292
 20
44.395898
 30
0.0
 10
13.448488
 20
43.750936
 30
0.0
 10
12.647083
 20
43.750936
 30
0.0
  0
SPLINE
  5
176
100
AcDbEntity
  8
Cut
 62
7
100
AcDbSpline
 70
8
 71
3
 72
8
 73
4
 74
0
 40
0
 40
0
 40
0
 40
0
 40
1
 40
1
 40
1
 40
1
 10
12.647083
 20
43.750936
 30
0.0
 10
11.845678
 20
43.750936
 30
0.0
 10
11.200694
 20
44.395898
 30
0.0
 10
11.200694
 20
45.197324
 30
0.0
  0
SPLINE
  5
177
100
AcDbEntity
  8
Cut
 62
7
100
AcDbSpline
 70
8
 71
3
 72
8
 73
4
 74
0
 40
0
 40
0
 40
0
 40
0
 40
1
 40
1
 40
1
 40
1
 10
11.200694
 20
45.197324
 30
0.0
 10
11.200694
 20
45.998751
 30
0.0
 10
11.845677
 20
46.652519
 30
0.0
 10
12.647083
 20
46.652519
 30
0.0
  0
LWPOLYLINE
  5
178
100
AcDbEntity
  8
Cut
 62
7
100
AcDbPolyline
 90
2
 70
0
 10
12.647083
 20
46.749547
 30
0.0
 10
12.647083
 20
46.749547
 30
0.0
  0
SPLINE
  5
179
100
AcDbEntity
  8
Cut
 62
7
100
AcDbSpline
 70
8
 71
3
 72
8
 73
4
 74
0
 40
0
 40
0
 40
0
 40
0
 40
1
 40
1
 40
1
 40
1
 10
38.047083
 20
46.749547
 30
0.0
 10
37.191637
 20
46.749547
 30
0.0
 10
36.503681
 20
46.052768
 30
0.0
 10
36.503681
 20
45.197324
 30
0.0
  0
SPLINE
  5
17a
100
AcDbEntity
  8
Cut
 62
7
100
AcDbSpline
 70
8
 71
3
 72
8
 73
4
 74
0
 40
0
 40
0
 40
0
 40
0
 40
1
 40
1
 40
1
 40
1
 10
36.503681
 20
45.197324
 30
0.0
 10
36.503681
 20
44.341881
 30
0.0
 10
37.191634
 20
43.653908
 30
0.0
 10
38.047083
 20
43.653908
 30
0.0
  0
SPLINE
  5
17b
100
AcDbEntity
  8
Cut
 62
7
100
AcDbSpline
 70
8
 71
3
 72
8
 73
4
 74
0
 40
0
 40
0
 40
0
 40
0
 40
1
 40
1
 40
1
 40
1
 10
38.047083
 20
43.653908
 30
0.0
 10
38.902533
 20
43.653908
 30
0.0
 10
39.599306
 20
44.341881
 30
0.0
 10
39.599306
 20
45.197324
 30
0.0
  0
SPLINE
  5
17c
100
AcDbEntity
  8
Cut
 62
7
100
AcDbSpline
 70
8
 71
3
 72
8
 73
4
 74
0
 40
0
 40
0
 40
0
 40
0
 40
1
 40
1
 40
1
 40
1
 10
39.599306
 20
45.197324
 30
0.0
 10
39.599306
 20
46.052768
 30
0.0
 10
38.902530
 20
46.749547
 30
0.0
 10
38.047083
 20
46.749547
 30
0.0
  0
LWPOLYLINE
  5
17d
100
AcDbEntity
  8
Cut
 62
7
100
AcDbPolyline
 90
2
 70
0
 10
12.647083
 20
46.652519
 30
0.0
 10
12.647083
 20
46.652519
 30
0.0
  0
SPLINE
  5
17e
100
AcDbEntity
  8
Cut
 62
7
100
AcDbSpline
 70
8
 71
3
 72
8
 73
4
 74
0
 40
0
 40
0
 40
0
 40
0
 40
1
 40
1
 40
1
 40
1
 10
38.047083
 20
46.652519
 30
0.0
 10
38.848490
 20
46.652519
 30
0.0
 10
39.502292
 20
45.998751
 30
0.0
 10
39.502292
 20
45.197324
 30
0.0
  0
SPLINE
  5
17f
100
AcDbEntity
  8
Cut
 62
7
100
AcDbSpline
 70
8
 71
3
 72
8
 73
4
 74
0
 40
0
 40
0
 40
0
 40
0
 40
1
 40
1
 40
1
 40
1
 10
39.502292
 20
45.197324
 30
0.0
 10
39.502292
 20
44.395898
 30
0.0
 10
38.848487
 20
43.750936
 30
0.0
 10
38.047083
 20
43.750936
 30
0.0
  0
SPLINE
  5
180
100
AcDbEntity
  8
Cut
 62
7
100
AcDbSpline
 70
8
 71
3
 72
8
 73
4
 74
0
 40
0
 40
0
 40
0
 40
0
 40
1
 40
1
 40
1
 40
1
 10
38.047083
 20
43.750936
 30
0.0
 10
37.245679
 20
43.750936
 30
0.0
 10
36.600694
 20
44.395898
 30
0.0
 10
36.600694
 20
45.197324
 30
0.0
  0
SPLINE
  5
181
100
AcDbEntity
  8
Cut
 62
7
100
AcDbSpline
 70
8
 71
3
 72
8
 73
4
 74
0
 40
0
 40
0
 40
0
 40
0
 40
1
 40
1
 40
1
 40
1
 10
36.600694
 20
45.197324
 30
0.0
 10
36.600694
 20
45.998751
 30
0.0
 10
37.245677
 20
46.652519
 30
0.0
 10
38.047083
 20
46.652519
 30
0.0
  0
LWPOLYLINE
  5
182
100
AcDbEntity
  8
Cut
 62
7
100
AcDbPolyline
 90
2
 70
0
 10
38.047083
 20
46.749547
 30
0.0
 10
38.047083
 20
46.749547
 30
0.0
  0
SPLINE
  5
183
100
AcDbEntity
  8
Cut
 62
7
100
AcDbSpline
 70
8
 71
3
 72
8
 73
4
 74
0
 40
0
 40
0
 40
0
 40
0
 40
1
 40
1
 40
1
 40
1
 10
25.347083
 20
48.248852
 30
0.0
 10
23.663207
 20
48.248852
 30
0.0
 10
22.304375
 20
46.881175
 30
0.0
 10
22.304375
 20
45.197324
 30
0.0
  0
SPLINE
  5
184
100
AcDbEntity
  8
Cut
 62
7
100
AcDbSpline
 70
8
 71
3
 72
8
 73
4
 74
0
 40
0
 40
0
 40
0
 40
0
 40
1
 40
1
 40
1
 40
1
 10
22.304375
 20
45.197324
 30
0.0
 10
22.304375
 20
43.513446
 30
0.0
 10
23.663208
 20
42.145797
 30
0.0
 10
25.347083
 20
42.145797
 30
0.0
  0
SPLINE
  5
185
100
AcDbEntity
  8
Cut
 62
7
100
AcDbSpline
 70
8
 71
3
 72
8
 73
4
 74
0
 40
0
 40
0
 40
0
 40
0
 40
1
 40
1
 40
1
 40
1
 10
25.347083
 20
42.145797
 30
0.0
 10
27.030959
 20
42.145797
 30
0.0
 10
28.398611
 20
43.513446
 30
0.0
 10
28.398611
 20
45.197324
 30
0.0
  0
SPLINE
  5
186
100
AcDbEntity
  8
Cut
 62
7
100
AcDbSpline
 70
8
 71
3
 72
8
 73
4
 74
0
 40
0
 40
0
 40
0
 40
0
 40
1
 40
1
 40
1
 40
1
 10
28.398611
 20
45.197324
 30
0.0
 10
28.398611
 20
46.881175
 30
0.0
 10
27.030960
 20
48.248852
 30
0.0
 10
25.347083
 20
48.248852
 30
0.0
  0
LWPOLYLINE
  5
187
100
AcDbEntity
  8
Cut
 62
7
100
AcDbPolyline
 90
2
 70
0
 10
38.047083
 20
46.652519
 30
0.0
 10
38.047083
 20
46.652519
 30
0.0
  0
SPLINE
  5
188
100
AcDbEntity
  8
Cut
 62
7
100
AcDbSpline
 70
8
 71
3
 72
8
 73
4
 74
0
 40
0
 40
0
 40
0
 40
0
 40
1
 40
1
 40
1
 40
1
 10
25.347083
 20
48.151852
 30
0.0
 10
26.976915
 20
48.151852
 30
0.0
 10
28.301597
 20
46.827158
 30
0.0
 10
28.301597
 20
45.197324
 30
0.0
  0
SPLINE
  5
189
100
AcDbEntity
  8
Cut
 62
7
100
AcDbSpline
 70
8
 71
3
 72
8
 73
4
 74
0
 40
0
 40
0
 40
0
 40
0
 40
1
 40
1
 40
1
 40
1
 10
28.301597
 20
45.197324
 30
0.0
 10
28.301597
 20
43.567463
 30
0.0
 10
26.976916
 20
42.251630
 30
0.0
 10
25.347083
 20
42.251630
 30
0.0
  0
SPLINE
  5
18a
100
AcDbEntity
  8
Cut
 62
7
100
AcDbSpline
 70
8
 71
3
 72
8
 73
4
 74
0
 40
0
 40
0
 40
0
 40
0
 40
1
 40
1
 40
1
 40
1
 10
25.347083
 20
42.251630
 30
0.0
 10
23.717251
 20
42.251630
 30
0.0
 10
22.401389
 20
43.567463
 30
0.0
 10
22.401389
 20
45.197324
 30
0.0
  0
SPLINE
  5
18b
100
AcDbEntity
  8
Cut
 62
7
100
AcDbSpline
 70
8
 71
3
 72
8
 73
4
 74
0
 40
0
 40
0
 40
0
 40
0
 40
1
 40
1
 40
1
 40
1
 10
22.401389
 20
45.197324
 30
0.0
 10
22.401389
 20
46.827158
 30
0.0
 10
23.717251
 20
48.151824
 30
0.0
 10
25.347083
 20
48.151852
 30
0.0
  0
LWPOLYLINE
  5
18c
100
AcDbEntity
  8
Cut
 62
7
100
AcDbPolyline
 90
2
 70
0
 10
25.347083
 20
48.248852
 30
0.0
 10
25.347083
 20
48.248852
 30
0.0
  0
SPLINE
  5
18d
100
AcDbEntity
  8
Cut
 62
7
100
AcDbSpline
 70
8
 71
3
 72
8
 73
4
 74
0
 40
0
 40
0
 40
0
 40
0
 40
1
 40
1
 40
1
 40
1
 10
12.647083
 20
35.548852
 30
0.0
 10
10.963207
 20
35.548852
 30
0.0
 10
9.604375
 20
34.181175
 30
0.0
 10
9.604375
 20
32.497324
 30
0.0
  0
SPLINE
  5
18e
100
AcDbEntity
  8
Cut
 62
7
100
AcDbSpline
 70
8
 71
3
 72
8
 73
4
 74
0
 40
0
 40
0
 40
0
 40
0
 40
1
 40
1
 40
1
 40
1
 10
9.604375
 20
32.497324
 30
0.0
 10
9.604375
 20
30.813446
 30
0.0
 10
10.963208
 20
29.445797
 30
0.0
 10
12.647083
 20
29.445797
 30
0.0
  0
SPLINE
  5
18f
100
AcDbEntity
  8
Cut
 62
7
100
AcDbSpline
 70
8
 71
3
 72
8
 73
4
 74
0
 40
0
 40
0
 40
0
 40
0
 40
1
 40
1
 40
1
 40
1
 10
12.647083
 20
29.445797
 30
0.0
 10
14.330959
 20
29.445797
 30
0.0
 10
15.698611
 20
30.813446
 30
0.0
 10
15.698611
 20
32.497324
 30
0.0
  0
SPLINE
  5
190
100
AcDbEntity
  8
Cut
 62
7
100
AcDbSpline
 70
8
 71
3
 72
8
 73
4
 74
0
 40
0
 40
0
 40
0
 40
0
 40
1
 40
1
 40
1
 40
1
 10
15.698611
 20
32.497324
 30
0.0
 10
15.698611
 20
34.181175
 30
0.0
 10
14.330959
 20
35.548852
 30
0.0
 10
12.647083
 20
35.548852
 30
0.0
  0
LWPOLYLINE
  5
191
100
AcDbEntity
  8
Cut
 62
7
100
AcDbPolyline
 90
2
 70
0
 10
25.347083
 20
48.151852
 30
0.0
 10
25.347083
 20
48.151852
 30
0.0
  0
SPLINE
  5
192
100
AcDbEntity
  8
Cut
 62
7
100
AcDbSpline
 70
8
 71
3
 72
8
 73
4
 74
0
 40
0
 40
0
 40
0
 40
0
 40
1
 40
1
 40
1
 40
1
 10
12.647083
 20
35.451852
 30
0.0
 10
14.276915
 20
35.451852
 30
0.0
 10
15.601597
 20
34.127158
 30
0.0
 10
15.601597
 20
32.497324
 30
0.0
  0
SPLINE
  5
193
100
AcDbEntity
  8
Cut
 62
7
100
AcDbSpline
 70
8
 71
3
 72
8
 73
4
 74
0
 40
0
 40
0
 40
0
 40
0
 40
1
 40
1
 40
1
 40
1
 10
15.601597
 20
32.497324
 30
0.0
 10
15.601597
 20
30.867463
 30
0.0
 10
14.276916
 20
29.551630
 30
0.0
 10
12.647083
 20
29.551630
 30
0.0
  0
SPLINE
  5
194
100
AcDbEntity
  8
Cut
 62
7
100
AcDbSpline
 70
8
 71
3
 72
8
 73
4
 74
0
 40
0
 40
0
 40
0
 40
0
 40
1
 40
1
 40
1
 40
1
 10
12.647083
 20
29.551630
 30
0.0
 10
11.017251
 20
29.551630
 30
0.0
 10
9.701389
 20
30.867463
 30
0.0
 10
9.701389
 20
32.497324
 30
0.0
  0
SPLINE
  5
195
100
AcDbEntity
  8
Cut
 62
7
100
AcDbSpline
 70
8
 71
3
 72
8
 73
4
 74
0
 40
0
 40
0
 40
0
 40
0
 40
1
 40
1
 40
1
 40
1
 10
9.701389
 20
32.497324
 30
0.0
 10
9.701389
 20
34.127158
 30
0.0
 10
11.017251
 20
35.451824
 30
0.0
 10
12.647083
 20
35.451852
 30
0.0
  0
LWPOLYLINE
  5
196
100
AcDbEntity
  8
Cut
 62
7
100
AcDbPolyline
 90
2
 70
0
 10
12.647083
 20
35.548852
 30
0.0
 10
12.647083
 20
35.548852
 30
0.0
  0
SPLINE
  5
197
100
AcDbEntity
  8
Cut
 62
7
100
AcDbSpline
 70
8
 71
3
 72
8
 73
4
 74
0
 40
0
 40
0
 40
0
 40
0
 40
1
 40
1
 40
1
 40
1
 10
38.047083
 20
35.548852
 30
0.0
 10
36.363207
 20
35.548852
 30
0.0
 10
35.004375
 20
34.181175
 30
0.0
 10
35.004375
 20
32.497324
 30
0.0
  0
SPLINE
  5
198
100
AcDbEntity
  8
Cut
 62
7
100
AcDbSpline
 70
8
 71
3
 72
8
 73
4
 74
0
 40
0
 40
0
 40
0
 40
0
 40
1
 40
1
 40
1
 40
1
 10
35.004375
 20
32.497324
 30
0.0
 10
35.004375
 20
30.813446
 30
0.0
 10
36.363207
 20
29.445797
 30
0.0
 10
38.047083
 20
29.445797
 30
0.0
  0
SPLINE
  5
199
100
AcDbEntity
  8
Cut
 62
7
100
AcDbSpline
 70
8
 71
3
 72
8
 73
4
 74
0
 40
0
 40
0
 40
0
 40
0
 40
1
 40
1
 40
1
 40
1
 10
38.047083
 20
29.445797
 30
0.0
 10
39.730959
 20
29.445797
 30
0.0
 10
41.098611
 20
30.813446
 30
0.0
 10
41.098611
 20
32.497324
 30
0.0
  0
SPLINE
  5
19a
100
AcDbEntity
  8
Cut
 62
7
100
AcDbSpline
 70
8
 71
3
 72
8
 73
4
 74
0
 40
0
 40
0
 40
0
 40
0
 40
1
 40
1
 40
1
 40
1
 10
41.098611
 20
32.497324
 30
0.0
 10
41.098611
 20
34.181175
 30
0.0
 10
39.730959
 20
35.548852
 30
0.0
 10
38.047083
 20
35.548852
 30
0.0
  0
LWPOLYLINE
  5
19b
100
AcDbEntity
  8
Cut
 62
7
100
AcDbPolyline
 90
2
 70
0
 10
12.647083
 20
35.451852
 30
0.0
 10
12.647083
 20
35.451852
 30
0.0
  0
SPLINE
  5
19c
100
AcDbEntity
  8
Cut
 62
7
100
AcDbSpline
 70
8
 71
3
 72
8
 73
4
 74
0
 40
0
 40
0
 40
0
 40
0
 40
1
 40
1
 40
1
 40
1
 10
38.047083
 20
35.451852
 30
0.0
 10
39.676914
 20
35.451852
 30
0.0
 10
41.001597
 20
34.127158
 30
0.0
 10
41.001597
 20
32.497324
 30
0.0
  0
SPLINE
  5
19d
100
AcDbEntity
  8
Cut
 62
7
100
AcDbSpline
 70
8
 71
3
 72
8
 73
4
 74
0
 40
0
 40
0
 40
0
 40
0
 40
1
 40
1
 40
1
 40
1
 10
41.001597
 20
32.497324
 30
0.0
 10
41.001597
 20
30.867463
 30
0.0
 10
39.676914
 20
29.551630
 30
0.0
 10
38.047083
 20
29.551630
 30
0.0
  0
SPLINE
  5
19e
100
AcDbEntity
  8
Cut
 62
7
100
AcDbSpline
 70
8
 71
3
 72
8
 73
4
 74
0
 40
0
 40
0
 40
0
 40
0
 40
1
 40
1
 40
1
 40
1
 10
38.047083
 20
29.551630
 30
0.0
 10
36.417253
 20
29.551630
 30
0.0
 10
35.101389
 20
30.867463
 30
0.0
 10
35.101389
 20
32.497324
 30
0.0
  0
SPLINE
  5
19f
100
AcDbEntity
  8
Cut
 62
7
100
AcDbSpline
 70
8
 71
3
 72
8
 73
4
 74
0
 40
0
 40
0
 40
0
 40
0
 40
1
 40
1
 40
1
 40
1
 10
35.101389
 20
32.497324
 30
0.0
 10
35.101389
 20
34.127158
 30
0.0
 10
36.417253
 20
35.451852
 30
0.0
 10
38.047083
 20
35.451852
 30
0.0
  0
LWPOLYLINE
  5
1a0
100
AcDbEntity
  8
Cut
 62
7
100
AcDbPolyline
 90
2
 70
0
 10
38.047083
 20
35.548852
 30
0.0
 10
38.047083
 20
35.548852
 30
0.0
  0
SPLINE
  5
1a1
100
AcDbEntity
  8
Cut
 62
7
100
AcDbSpline
 70
8
 71
3
 72
8
 73
4
 74
0
 40
0
 40
0
 40
0
 40
0
 40
1
 40
1
 40
1
 40
1
 10
25.347083
 20
35.548852
 30
0.0
 10
23.663207
 20
35.548852
 30
0.0
 10
22.304375
 20
34.181175
 30
0.0
 10
22.304375
 20
32.497324
 30
0.0
  0
SPLINE
  5
1a2
100
AcDbEntity
  8
Cut
 62
7
100
AcDbSpline
 70
8
 71
3
 72
8
 73
4
 74
0
 40
0
 40
0
 40
0
 40
0
 40
1
 40
1
 40
1
 40
1
 10
22.304375
 20
32.497324
 30
0.0
 10
22.304375
 20
30.813446
 30
0.0
 10
23.663208
 20
29.445797
 30
0.0
 10
25.347083
 20
29.445797
 30
0.0
  0
SPLINE
  5
1a3
100
AcDbEntity
  8
Cut
 62
7
100
AcDbSpline
 70
8
 71
3
 72
8
 73
4
 74
0
 40
0
 40
0
 40
0
 40
0
 40
1
 40
1
 40
1
 40
1
 10
25.347083
 20
29.445797
 30
0.0
 10
27.030959
 20
29.445797
 30
0.0
 10
28.398611
 20
30.813446
 30
0.0
 10
28.398611
 20
32.497324
 30
0.0
  0
SPLINE
  5
1a4
100
AcDbEntity
  8
Cut
 62
7
100
AcDbSpline
 70
8
 71
3
 72
8
 73
4
 74
0
 40
0
 40
0
 40
0
 40
0
 40
1
 40
1
 40
1
 40
1
 10
28.398611
 20
32.497324
 30
0.0
 10
28.398611
 20
34.181175
 30
0.0
 10
27.030960
 20
35.548852
 30
0.0
 10
25.347083
 20
35.548852
 30
0.0
  0
LWPOLYLINE
  5
1a5
100
AcDbEntity
  8
Cut
 62
7
100
AcDbPolyline
 90
2
 70
0
 10
38.047083
 20
35.451852
 30
0.0
 10
38.047083
 20
35.451852
 30
0.0
  0
SPLINE
  5
1a6
100
AcDbEntity
  8
Cut
 62
7
100
AcDbSpline
 70
8
 71
3
 72
8
 73
4
 74
0
 40
0
 40
0
 40
0
 40
0
 40
1
 40
1
 40
1
 40
1
 10
25.347083
 20
35.451852
 30
0.0
 10
26.976915
 20
35.451852
 30
0.0
 10
28.301597
 20
34.127158
 30
0.0
 10
28.301597
 20
32.497324
 30
0.0
  0
SPLINE
  5
1a7
100
AcDbEntity
  8
Cut
 62
7
100
AcDbSpline
 70
8
 71
3
 72
8
 73
4
 74
0
 40
0
 40
0
 40
0
 40
0
 40
1
 40
1
 40
1
 40
1
 10
28.301597
 20
32.497324
 30
0.0
 10
28.301597
 20
30.867463
 30
0.0
 10
26.976916
 20
29.551630
 30
0.0
 10
25.347083
 20
29.551630
 30
0.0
  0
SPLINE
  5
1a8
100
AcDbEntity
  8
Cut
 62
7
100
AcDbSpline
 70
8
 71
3
 72
8
 73
4
 74
0
 40
0
 40
0
 40
0
 40
0
 40
1
 40
1
 40
1
 40
1
 10
25.347083
 20
29.551630
 30
0.0
 10
23.717251
 20
29.551630
 30
0.0
 10
22.401389
 20
30.867463
 30
0.0
 10
22.401389
 20
32.497324
 30
0.0
  0
SPLINE
  5
1a9
100
AcDbEntity
  8
Cut
 62
7
100
AcDbSpline
 70
8
 71
3
 72
8
 73
4
 74
0
 40
0
 40
0
 40
0
 40
0
 40
1
 40
1
 40
1
 40
1
 10
22.401389
 20
32.497324
 30
0.0
 10
22.401389
 20
34.127158
 30
0.0
 10
23.717251
 20
35.451824
 30
0.0
 10
25.347083
 20
35.451852
 30
0.0
  0
LWPOLYLINE
  5
1aa
100
AcDbEntity
  8
Cut
 62
7
100
AcDbPolyline
 90
2
 70
0
 10
25.347083
 20
35.548852
 30
0.0
 10
25.347083
 20
35.548852
 30
0.0
  0
SPLINE
  5
1ab
100
AcDbEntity
  8
Cut
 62
7
100
AcDbSpline
 70
8
 71
3
 72
8
 73
4
 74
0
 40
0
 40
0
 40
0
 40
0
 40
1
 40
1
 40
1
 40
1
 10
18.997083
 20
22.848852
 30
0.0
 10
17.313207
 20
22.848852
 30
0.0
 10
15.954375
 20
21.481203
 30
0.0
 10
15.954375
 20
19.797324
 30
0.0
  0
SPLINE
  5
1ac
100
AcDbEntity
  8
Cut
 62
7
100
AcDbSpline
 70
8
 71
3
 72
8
 73
4
 74
0
 40
0
 40
0
 40
0
 40
0
 40
1
 40
1
 40
1
 40
1
 10
15.954375
 20
19.797324
 30
0.0
 10
15.954375
 20
18.113474
 30
0.0
 10
17.313206
 20
16.745797
 30
0.0
 10
18.997083
 20
16.745797
 30
0.0
  0
SPLINE
  5
1ad
100
AcDbEntity
  8
Cut
 62
7
100
AcDbSpline
 70
8
 71
3
 72
8
 73
4
 74
0
 40
0
 40
0
 40
0
 40
0
 40
1
 40
1
 40
1
 40
1
 10
18.997083
 20
16.745797
 30
0.0
 10
20.680960
 20
16.745797
 30
0.0
 10
22.048611
 20
18.113474
 30
0.0
 10
22.048611
 20
19.797324
 30
0.0
  0
SPLINE
  5
1ae
100
AcDbEntity
  8
Cut
 62
7
100
AcDbSpline
 70
8
 71
3
 72
8
 73
4
 74
0
 40
0
 40
0
 40
0
 40
0
 40
1
 40
1
 40
1
 40
1
 10
22.048611
 20
19.797324
 30
0.0
 10
22.048611
 20
21.481203
 30
0.0
 10
20.680959
 20
22.848852
 30
0.0
 10
18.997083
 20
22.848852
 30
0.0
  0
LWPOLYLINE
  5
1af
100
AcDbEntity
  8
Cut
 62
7
100
AcDbPolyline
 90
2
 70
0
 10
25.347083
 20
35.451852
 30
0.0
 10
25.347083
 20
35.451852
 30
0.0
  0
SPLINE
  5
1b0
100
AcDbEntity
  8
Cut
 62
7
100
AcDbSpline
 70
8
 71
3
 72
8
 73
4
 74
0
 40
0
 40
0
 40
0
 40
0
 40
1
 40
1
 40
1
 40
1
 10
18.997083
 20
22.751852
 30
0.0
 10
20.626916
 20
22.751852
 30
0.0
 10
21.951597
 20
21.427186
 30
0.0
 10
21.951597
 20
19.797324
 30
0.0
  0
SPLINE
  5
1b1
100
AcDbEntity
  8
Cut
 62
7
100
AcDbSpline
 70
8
 71
3
 72
8
 73
4
 74
0
 40
0
 40
0
 40
0
 40
0
 40
1
 40
1
 40
1
 40
1
 10
21.951597
 20
19.797324
 30
0.0
 10
21.951597
 20
18.167491
 30
0.0
 10
20.626915
 20
16.851630
 30
0.0
 10
18.997083
 20
16.851630
 30
0.0
  0
SPLINE
  5
1b2
100
AcDbEntity
  8
Cut
 62
7
100
AcDbSpline
 70
8
 71
3
 72
8
 73
4
 74
0
 40
0
 40
0
 40
0
 40
0
 40
1
 40
1
 40
1
 40
1
 10
18.997083
 20
16.851630
 30
0.0
 10
17.367251
 20
16.851630
 30
0.0
 10
16.051389
 20
18.167491
 30
0.0
 10
16.051389
 20
19.797324
 30
0.0
  0
SPLINE
  5
1b3
100
AcDbEntity
  8
Cut
 62
7
100
AcDbSpline
 70
8
 71
3
 72
8
 73
4
 74
0
 40
0
 40
0
 40
0
 40
0
 40
1
 40
1
 40
1
 40
1
 10
16.051389
 20
19.797324
 30
0.0
 10
16.051389
 20
21.427186
 30
0.0
 10
17.367250
 20
22.751852
 30
0.0
 10
18.997083
 20
22.751852
 30
0.0
  0
LWPOLYLINE
  5
1b4
100
AcDbEntity
  8
Cut
 62
7
100
AcDbPolyline
 90
2
 70
0
 10
18.997083
 20
22.848852
 30
0.0
 10
18.997083
 20
22.848852
 30
0.0
  0
SPLINE
  5
1b5
100
AcDbEntity
  8
Cut
 62
7
100
AcDbSpline
 70
8
 71
3
 72
8
 73
4
 74
0
 40
0
 40
0
 40
0
 40
0
 40
1
 40
1
 40
1
 40
1
 10
31.697083
 20
22.848852
 30
0.0
 10
30.013204
 20
22.848852
 30
0.0
 10
28.654375
 20
21.481203
 30
0.0
 10
28.654375
 20
19.797324
 30
0.0
  0
SPLINE
  5
1b6
100
AcDbEntity
  8
Cut
 62
7
100
AcDbSpline
 70
8
 71
3
 72
8
 73
4
 74
0
 40
0
 40
0
 40
0
 40
0
 40
1
 40
1
 40
1
 40
1
 10
28.654375
 20
19.797324
 30
0.0
 10
28.654375
 20
18.113474
 30
0.0
 10
30.013204
 20
16.745797
 30
0.0
 10
31.697083
 20
16.745797
 30
0.0
  0
SPLINE
  5
1b7
100
AcDbEntity
  8
Cut
 62
7
100
AcDbSpline
 70
8
 71
3
 72
8
 73
4
 74
0
 40
0
 40
0
 40
0
 40
0
 40
1
 40
1
 40
1
 40
1
 10
31.697083
 20
16.745797
 30
0.0
 10
33.380959
 20
16.745797
 30
0.0
 10
34.748611
 20
18.113474
 30
0.0
 10
34.748611
 20
19.797324
 30
0.0
  0
SPLINE
  5
1b8
100
AcDbEntity
  8
Cut
 62
7
100
AcDbSpline
 70
8
 71
3
 72
8
 73
4
 74
0
 40
0
 40
0
 40
0
 40
0
 40
1
 40
1
 40
1
 40
1
 10
34.748611
 20
19.797324
 30
0.0
 10
34.748611
 20
21.481203
 30
0.0
 10
33.380959
 20
22.848852
 30
0.0
 10
31.697083
 20
22.848852
 30
0.0
  0
LWPOLYLINE
  5
1b9
100
AcDbEntity
  8
Cut
 62
7
100
AcDbPolyline
 90
2
 70
0
 10
18.997083
 20
22.751852
 30
0.0
 10
18.997083
 20
22.751852
 30
0.0
  0
SPLINE
  5
1ba
100
AcDbEntity
  8
Cut
 62
7
100
AcDbSpline
 70
8
 71
3
 72
8
 73
4
 74
0
 40
0
 40
0
 40
0
 40
0
 40
1
 40
1
 40
1
 40
1
 10
31.697083
 20
22.751852
 30
0.0
 10
33.326914
 20
22.751852
 30
0.0
 10
34.651597
 20
21.427186
 30
0.0
 10
34.651597
 20
19.797324
 30
0.0
  0
SPLINE
  5
1bb
100
AcDbEntity
  8
Cut
 62
7
100
AcDbSpline
 70
8
 71
3
 72
8
 73
4
 74
0
 40
0
 40
0
 40
0
 40
0
 40
1
 40
1
 40
1
 40
1
 10
34.651597
 20
19.797324
 30
0.0
 10
34.651597
 20
18.167491
 30
0.0
 10
33.326914
 20
16.851630
 30
0.0
 10
31.697083
 20
16.851630
 30
0.0
  0
SPLINE
  5
1bc
100
AcDbEntity
  8
Cut
 62
7
100
AcDbSpline
 70
8
 71
3
 72
8
 73
4
 74
0
 40
0
 40
0
 40
0
 40
0
 40
1
 40
1
 40
1
 40
1
 10
31.697083
 20
16.851630
 30
0.0
 10
30.067250
 20
16.851630
 30
0.0
 10
28.751389
 20
18.167491
 30
0.0
 10
28.751389
 20
19.797324
 30
0.0
  0
SPLINE
  5
1bd
100
AcDbEntity
  8
Cut
 62
7
100
AcDbSpline
 70
8
 71
3
 72
8
 73
4
 74
0
 40
0
 40
0
 40
0
 40
0
 40
1
 40
1
 40
1
 40
1
 10
28.751389
 20
19.797324
 30
0.0
 10
28.751389
 20
21.427186
 30
0.0
 10
30.067250
 20
22.751852
 30
0.0
 10
31.697083
 20
22.751852
 30
0.0
  0
LWPOLYLINE
  5
1be
100
AcDbEntity
  8
Cut
 62
7
100
AcDbPolyline
 90
2
 70
0
 10
31.697083
 20
22.848852
 30
0.0
 10
31.697083
 20
22.848852
 30
0.0
  0
SPLINE
  5
1bf
100
AcDbEntity
  8
Cut
 62
7
100
AcDbSpline
 70
8
 71
3
 72
8
 73
4
 74
0
 40
0
 40
0
 40
0
 40
0
 40
1
 40
1
 40
1
 40
1
 10
6.297083
 20
22.848852
 30
0.0
 10
4.613208
 20
22.848852
 30
0.0
 10
3.254375
 20
21.481203
 30
0.0
 10
3.254375
 20
19.797324
 30
0.0
  0
SPLINE
  5
1c0
100
AcDbEntity
  8
Cut
 62
7
100
AcDbSpline
 70
8
 71
3
 72
8
 73
4
 74
0
 40
0
 40
0
 40
0
 40
0
 40
1
 40
1
 40
1
 40
1
 10
3.254375
 20
19.797324
 30
0.0
 10
3.254375
 20
18.113474
 30
0.0
 10
4.613207
 20
16.745797
 30
0.0
 10
6.297083
 20
16.745797
 30
0.0
  0
SPLINE
  5
1c1
100
AcDbEntity
  8
Cut
 62
7
100
AcDbSpline
 70
8
 71
3
 72
8
 73
4
 74
0
 40
0
 40
0
 40
0
 40
0
 40
1
 40
1
 40
1
 40
1
 10
6.297083
 20
16.745797
 30
0.0
 10
7.980960
 20
16.745797
 30
0.0
 10
9.348611
 20
18.113474
 30
0.0
 10
9.348611
 20
19.797324
 30
0.0
  0
SPLINE
  5
1c2
100
AcDbEntity
  8
Cut
 62
7
100
AcDbSpline
 70
8
 71
3
 72
8
 73
4
 74
0
 40
0
 40
0
 40
0
 40
0
 40
1
 40
1
 40
1
 40
1
 10
9.348611
 20
19.797324
 30
0.0
 10
9.348611
 20
21.481203
 30
0.0
 10
7.980959
 20
22.848852
 30
0.0
 10
6.297083
 20
22.848852
 30
0.0
  0
LWPOLYLINE
  5
1c3
100
AcDbEntity
  8
Cut
 62
7
100
AcDbPolyline
 90
2
 70
0
 10
31.697083
 20
22.751852
 30
0.0
 10
31.697083
 20
22.751852
 30
0.0
  0
SPLINE
  5
1c4
100
AcDbEntity
  8
Cut
 62
7
100
AcDbSpline
 70
8
 71
3
 72
8
 73
4
 74
0
 40
0
 40
0
 40
0
 40
0
 40
1
 40
1
 40
1
 40
1
 10
6.297083
 20
22.751852
 30
0.0
 10
7.926916
 20
22.751852
 30
0.0
 10
9.251597
 20
21.427186
 30
0.0
 10
9.251597
 20
19.797324
 30
0.0
  0
SPLINE
  5
1c5
100
AcDbEntity
  8
Cut
 62
7
100
AcDbSpline
 70
8
 71
3
 72
8
 73
4
 74
0
 40
0
 40
0
 40
0
 40
0
 40
1
 40
1
 40
1
 40
1
 10
9.251597
 20
19.797324
 30
0.0
 10
9.251597
 20
18.167491
 30
0.0
 10
7.926916
 20
16.851630
 30
0.0
 10
6.297083
 20
16.851630
 30
0.0
  0
SPLINE
  5
1c6
100
AcDbEntity
  8
Cut
 62
7
100
AcDbSpline
 70
8
 71
3
 72
8
 73
4
 74
0
 40
0
 40
0
 40
0
 40
0
 40
1
 40
1
 40
1
 40
1
 10
6.297083
 20
16.851630
 30
0.0
 10
4.667251
 20
16.851630
 30
0.0
 10
3.351389
 20
18.167491
 30
0.0
 10
3.351389
 20
19.797324
 30
0.0
  0
SPLINE
  5
1c7
100
AcDbEntity
  8
Cut
 62
7
100
AcDbSpline
 70
8
 71
3
 72
8
 73
4
 74
0
 40
0
 40
0
 40
0
 40
0
 40
1
 40
1
 40
1
 40
1
 10
3.351389
 20
19.797324
 30
0.0
 10
3.351389
 20
21.427186
 30
0.0
 10
4.667251
 20
22.751852
 30
0.0
 10
6.297083
 20
22.751852
 30
0.0
  0
LWPOLYLINE
  5
1c8
100
AcDbEntity
  8
Cut
 62
7
100
AcDbPolyline
 90
2
 70
0
 10
6.297083
 20
22.848852
 30
0.0
 10
6.297083
 20
22.848852
 30
0.0
  0
SPLINE
  5
1c9
100
AcDbEntity
  8
Cut
 62
7
100
AcDbSpline
 70
8
 71
3
 72
8
 73
4
 74
0
 40
0
 40
0
 40
0
 40
0
 40
1
 40
1
 40
1
 40
1
 10
44.397083
 20
22.848852
 30
0.0
 10
42.713207
 20
22.848852
 30
0.0
 10
41.354375
 20
21.481203
 30
0.0
 10
41.354375
 20
19.797324
 30
0.0
  0
SPLINE
  5
1ca
100
AcDbEntity
  8
Cut
 62
7
100
AcDbSpline
 70
8
 71
3
 72
8
 73
4
 74
0
 40
0
 40
0
 40
0
 40
0
 40
1
 40
1
 40
1
 40
1
 10
41.354375
 20
19.797324
 30
0.0
 10
41.354375
 20
18.113474
 30
0.0
 10
42.713207
 20
16.745797
 30
0.0
 10
44.397083
 20
16.745797
 30
0.0
  0
SPLINE
  5
1cb
100
AcDbEntity
  8
Cut
 62
7
100
AcDbSpline
 70
8
 71
3
 72
8
 73
4
 74
0
 40
0
 40
0
 40
0
 40
0
 40
1
 40
1
 40
1
 40
1
 10
44.397083
 20
16.745797
 30
0.0
 10
46.080962
 20
16.745797
 30
0.0
 10
47.448611
 20
18.113474
 30
0.0
 10
47.448611
 20
19.797324
 30
0.0
  0
SPLINE
  5
1cc
100
AcDbEntity
  8
Cut
 62
7
100
AcDbSpline
 70
8
 71
3
 72
8
 73
4
 74
0
 40
0
 40
0
 40
0
 40
0
 40
1
 40
1
 40
1
 40
1
 10
47.448611
 20
19.797324
 30
0.0
 10
47.448611
 20
21.481203
 30
0.0
 10
46.080962
 20
22.848852
 30
0.0
 10
44.397083
 20
22.848852
 30
0.0
  0
LWPOLYLINE
  5
1cd
100
AcDbEntity
  8
Cut
 62
7
100
AcDbPolyline
 90
2
 70
0
 10
6.297083
 20
22.751852
 30
0.0
 10
6.297083
 20
22.751852
 30
0.0
  0
SPLINE
  5
1ce
100
AcDbEntity
  8
Cut
 62
7
100
AcDbSpline
 70
8
 71
3
 72
8
 73
4
 74
0
 40
0
 40
0
 40
0
 40
0
 40
1
 40
1
 40
1
 40
1
 10
44.397083
 20
22.751852
 30
0.0
 10
46.026917
 20
22.751852
 30
0.0
 10
47.351597
 20
21.427186
 30
0.0
 10
47.351597
 20
19.797324
 30
0.0
  0
SPLINE
  5
1cf
100
AcDbEntity
  8
Cut
 62
7
100
AcDbSpline
 70
8
 71
3
 72
8
 73
4
 74
0
 40
0
 40
0
 40
0
 40
0
 40
1
 40
1
 40
1
 40
1
 10
47.351597
 20
19.797324
 30
0.0
 10
47.351597
 20
18.167491
 30
0.0
 10
46.026917
 20
16.851630
 30
0.0
 10
44.397083
 20
16.851630
 30
0.0
  0
SPLINE
  5
1d0
100
AcDbEntity
  8
Cut
 62
7
100
AcDbSpline
 70
8
 71
3
 72
8
 73
4
 74
0
 40
0
 40
0
 40
0
 40
0
 40
1
 40
1
 40
1
 40
1
 10
44.397083
 20
16.851630
 30
0.0
 10
42.767253
 20
16.851630
 30
0.0
 10
41.451389
 20
18.167491
 30
0.0
 10
41.451389
 20
19.797324
 30
0.0
  0
SPLINE
  5
1d1
100
AcDbEntity
  8
Cut
 62
7
100
AcDbSpline
 70
8
 71
3
 72
8
 73
4
 74
0
 40
0
 40
0
 40
0
 40
0
 40
1
 40
1
 40
1
 40
1
 10
41.451389
 20
19.797324
 30
0.0
 10
41.451389
 20
21.427186
 30
0.0
 10
42.767253
 20
22.751852
 30
0.0
 10
44.397083
 20
22.751852
 30
0.0
  0
LWPOLYLINE
  5
1d2
100
AcDbEntity
  8
Cut
 62
7
100
AcDbPolyline
 90
2
 70
0
 10
44.397083
 20
22.848852
 30
0.0
 10
44.397083
 20
22.848852
 30
0.0
  0
LWPOLYLINE
  5
1d3
100
AcDbEntity
  8
Cut
 62
7
100
AcDbPolyline
 90
2
 70
0
 10
44.397083
 20
22.751852
 30
0.0
 10
44.397083
 20
22.751852
 30
0.0
  0
ENDSEC
  0
SECTION
  2
OBJECTS
  0
DICTIONARY
  5
C
330
0
100
AcDbDictionary
  3
ACAD_GROUP
350
D
  3
ACAD_MLINESTYLE
350
17
  0
DICTIONARY
  5
D
330
C
100
AcDbDictionary
  0
DICTIONARY
  5
1A
330
C
100
AcDbDictionary
  0
DICTIONARY
  5
17
330
C
100
AcDbDictionary
  3
STANDARD
350
18
  0
DICTIONARY
  5
19
330
C
100
AcDbDictionary
  0
ENDSEC
  0
EOF
