<?xml version="1.0" encoding="UTF-8" standalone="no"?>
<!-- Generator: Adobe Illustrator 13.0.0, SVG Export Plug-In . SVG Version: 6.00 Build 14948)  -->

<svg
   xmlns:dc="http://purl.org/dc/elements/1.1/"
   xmlns:cc="http://creativecommons.org/ns#"
   xmlns:rdf="http://www.w3.org/1999/02/22-rdf-syntax-ns#"
   xmlns:svg="http://www.w3.org/2000/svg"
   xmlns="http://www.w3.org/2000/svg"
   xmlns:sodipodi="http://sodipodi.sourceforge.net/DTD/sodipodi-0.dtd"
   xmlns:inkscape="http://www.inkscape.org/namespaces/inkscape"
   version="1.1"
   id="Layer_1"
   inkscape:version="0.91 r13725"
   sodipodi:docname="Klasmata.svg"
   x="0px"
   y="0px"
   width="210mm"
   height="297mm"
   viewBox="0 0 744.09448 1052.3622"
   enable-background="new 0 0 2027.125 1244.648"
   xml:space="preserve"><metadata
     id="metadata8359"><rdf:RDF><cc:Work
         rdf:about=""><dc:format>image/svg+xml</dc:format><dc:type
           rdf:resource="http://purl.org/dc/dcmitype/StillImage" /><dc:title></dc:title></cc:Work></rdf:RDF></metadata><defs
     id="defs8357" /><sodipodi:namedview
     objecttolerance="10"
     pagecolor="#ffffff"
     borderopacity="1"
     bordercolor="#666666"
     inkscape:cx="120.25908"
     inkscape:pageopacity="0"
     inkscape:pageshadow="2"
     inkscape:window-width="1440"
     guidetolerance="10"
     inkscape:cy="818.14761"
     inkscape:window-x="67"
     inkscape:snap-to-guides="false"
     inkscape:window-height="852"
     showgrid="false"
     gridtolerance="10"
     inkscape:zoom="1.0915233"
     showguides="true"
     inkscape:guide-bbox="true"
     inkscape:object-paths="true"
     inkscape:snap-nodes="false"
     inkscape:snap-center="false"
     inkscape:snap-grids="true"
     inkscape:current-layer="Layer_1"
     inkscape:window-y="34"
     id="namedview1342"
     inkscape:window-maximized="0"
     inkscape:snap-object-midpoints="false"
     units="mm"
     inkscape:document-units="mm"><inkscape:grid
       units="in"
       type="xygrid"
       empspacing="5"
       spacingx="0.25in"
       spacingy="0.25in"
       enabled="true"
       originy="64.25mm"
       id="grid18395"
       originx="25.25mm"
       visible="true"
       snapvisiblegridlinesonly="true" /></sodipodi:namedview><path
     d="m 143.16994,371.42298 c -1.633,-1.525 -3.251,-3.067 -4.834,-4.645 -37.656,-37.521 -60.945001,-89.354 -60.945001,-146.611 0,-57.255 23.289001,-109.087 60.945001,-146.608995 1.545,-1.54 3.123,-3.046 4.717,-4.538 0.033,-0.032 0.067,-0.062 0.102,-0.093 10e-4,-0.099 0.01,-0.199 0.012,-0.298 0,-0.123 -0.011,-0.245 -0.01,-0.367 -40.764,37.932995 -66.268001,91.942995 -66.268001,151.904995 0,59.971 25.499001,113.996 66.271001,151.931 -0.01,-0.225 -0.01,-0.45 0.01,-0.675 z"
     id="path7963"
     inkscape:connector-curvature="0" /><path
     d="m 143.17194,282.63298 c -1.707,-0.671 -3.395,-1.349 -5.046,-2.043 -18.782,-7.896 -33.974,-17.298 -44.456001,-27.72 -10.485,-10.423 -16.258,-21.852 -16.258,-33.83 0,-11.978 5.772,-23.406 16.258,-33.829 11.423001,-11.36 28.441001,-21.497 49.600001,-29.802 -0.014,-0.175 -0.02,-0.35 -0.018,-0.526 -1.8,0.705 -3.58,1.419 -5.32,2.15 -18.824,7.914 -34.066,17.339 -44.615001,27.823 -10.547,10.481 -16.404,22.037 -16.404,34.183 0,12.146 5.857,23.702 16.404,34.186 11.508001,11.432 28.604001,21.612 49.838001,29.943 0,-0.178 10e-4,-0.356 0.017,-0.535 z"
     id="path7965"
     inkscape:connector-curvature="0" /><path
     d="m 143.19594,267.84798 c -0.052,-0.357 -0.083,-0.719 -0.067,-1.081 -14.381,-33.838 -21.359,-68.302 -21.359,-100.3 10e-4,-32.646 7.32,-62.658 21.367,-86.878995 -0.025,-0.333 -0.02,-0.668 0.012,-1.001 -14.387,24.439995 -21.88,54.827995 -21.879,87.879995 0,32.53 7.195,67.589 22.023,101.951 -0.042,-0.187 -0.074,-0.378 -0.097,-0.57 z"
     id="path7967"
     inkscape:connector-curvature="0" /><path
     d="m 143.12894,337.07498 c -36.838,-40.434 -56.407001,-90.956 -56.406001,-139.994 0,-36.903 11.068,-72.957 34.172001,-103.233995 6.738,-8.831 14.239,-16.777 22.342,-23.882 -0.035,-0.205 -0.057,-0.411 -0.07,-0.619 -0.037,0.032 -0.076,0.064 -0.113,0.097 -8.186,7.161 -15.754,15.188 -22.555,24.101 -23.174001,30.368995 -34.276001,66.534995 -34.275001,103.537995 0,49.342 19.754001,100.164 56.922001,140.756 -0.025,-0.254 -0.028,-0.509 -0.017,-0.763 z"
     id="path7969"
     inkscape:connector-curvature="0" /><path
     d="m 143.21194,171.76998 -21.465,-6.953 -0.154,0.476 21.593,6.994 c -10e-4,-0.173 0.01,-0.345 0.026,-0.517 z"
     id="path7971"
     inkscape:connector-curvature="0" /><path
     d="m 143.19694,206.84998 -57.816001,-12.099 -0.104,0.489 57.914001,12.119 c -0.01,-0.17 0,-0.34 0.01,-0.509 z"
     id="path7973"
     inkscape:connector-curvature="0" /><path
     d="m 143.22594,201.19298 -58.018001,-6.915 -0.061,0.496 58.079001,6.922 c -0.01,-0.168 -0.01,-0.335 0,-0.503 z"
     id="path7975"
     inkscape:connector-curvature="0" /><path
     d="m 88.364939,75.839985 c -1.973,-1.109 -3.303,-3.216 -3.303,-5.637 0,-1.786 0.723,-3.397 1.894,-4.569 1.171,-1.17 2.784,-1.893 4.569,-1.893 1.785,0 3.396,0.722 4.568,1.893 1.17,1.171 1.893,2.783 1.893,4.569 0,2.423 -1.332,4.531 -3.306,5.639 l 0.611,1.09 c 2.353,-1.318 3.944,-3.839 3.944,-6.729 0,-4.26 -3.453,-7.711 -7.711,-7.712 -4.259,0 -7.713,3.453 -7.713,7.712 0,2.888 1.588,5.406 3.939,6.727 l 0.615,-1.09 z"
     id="path7977"
     inkscape:connector-curvature="0"
     style="fill:#030303" /><polygon
     points="1027.18,471.425 1031.379,472.875 1028.887,469.207 "
     id="polygon7979"
     style="fill:#030303"
     transform="translate(-941.01006,-395.03402)" /><polygon
     points="1038.152,471.398 1033.963,472.88 1036.429,469.193 "
     id="polygon7981"
     style="fill:#030303"
     transform="translate(-941.01006,-395.03402)" /><polyline
     points="1024.569,526.193 1024.569,539.209 1025.819,539.209 1025.819,526.193 "
     id="polyline7983"
     style="fill:#030303"
     transform="translate(-941.01006,-395.03402)" /><polyline
     points="1038.084,526.228 1038.084,539.141 1039.334,539.141 1039.334,526.228 "
     id="polyline7985"
     style="fill:#030303"
     transform="translate(-941.01006,-395.03402)" /><polyline
     points="1025.332,533.275 1035.428,533.275 1035.428,532.025 1025.332,532.025 "
     id="polyline7987"
     style="fill:#030303"
     transform="translate(-941.01006,-395.03402)" /><polygon
     points="1038.635,532.664 1033.82,531.059 1033.785,534.305 "
     id="polygon7989"
     style="fill:#030303"
     transform="translate(-941.01006,-395.03402)" /><polyline
     points="1024.947,600.754 1038.192,600.754 1038.192,599.504 1024.947,599.504 "
     id="polyline7991"
     style="fill:#030303"
     transform="translate(-941.01006,-395.03402)" /><polyline
     points="1024.523,593.761 1024.523,606.531 1025.773,606.531 1025.773,593.761 "
     id="polyline7993"
     style="fill:#030303"
     transform="translate(-941.01006,-395.03402)" /><polyline
     points="1030.945,593.761 1030.945,606.531 1032.195,606.531 1032.195,593.761 "
     id="polyline7995"
     style="fill:#030303"
     transform="translate(-941.01006,-395.03402)" /><polyline
     points="1032.906,593.761 1032.906,606.531 1034.156,606.531 1034.156,593.761 "
     id="polyline7997"
     style="fill:#030303"
     transform="translate(-941.01006,-395.03402)" /><polyline
     points="1034.156,593.761 1034.156,606.531 1035.406,606.531 1035.406,593.761 "
     id="polyline7999"
     style="fill:#030303"
     transform="translate(-941.01006,-395.03402)" /><polyline
     points="1035.049,593.761 1035.049,606.531 1036.299,606.531 1036.299,593.761 "
     id="polyline8001"
     style="fill:#030303"
     transform="translate(-941.01006,-395.03402)" /><polyline
     points="1035.761,593.761 1035.761,606.531 1037.011,606.531 1037.011,593.761 "
     id="polyline8003"
     style="fill:#030303"
     transform="translate(-941.01006,-395.03402)" /><polyline
     points="1036.477,593.761 1036.477,606.531 1037.727,606.531 1037.727,593.761 "
     id="polyline8005"
     style="fill:#030303"
     transform="translate(-941.01006,-395.03402)" /><polyline
     points="1036.832,593.761 1036.832,606.531 1038.082,606.531 1038.082,593.761 "
     id="polyline8007"
     style="fill:#030303"
     transform="translate(-941.01006,-395.03402)" /><polyline
     points="1037.367,593.761 1037.367,606.531 1038.617,606.531 1038.617,593.761 "
     id="polyline8009"
     style="fill:#030303"
     transform="translate(-941.01006,-395.03402)" /><polyline
     points="1028.805,593.761 1028.805,606.531 1030.055,606.531 1030.055,593.761 "
     id="polyline8011"
     style="fill:#030303"
     transform="translate(-941.01006,-395.03402)" /><path
     d="m 136.98894,29.588985 c -0.374,-0.004 -0.688,-0.157 -0.849,-0.423 -0.274,-0.436 -1.043,-1.991 -1.464,-2.959 -0.4,-0.938 -0.521,-1.231 -0.69,-1.783 -0.374,-1.227 -0.753,-2.354 -0.824,-2.435 -0.037,-0.047 -0.07,-0.308 -0.072,-0.569 -0.001,-0.264 -0.038,-0.547 -0.09,-0.625 -0.045,-0.078 -0.142,-0.295 -0.213,-0.48 -0.068,-0.188 -0.217,-0.407 -0.33,-0.487 -0.104,-0.079 -0.255,-0.265 -0.325,-0.403 -0.184,-0.355 -0.312,-0.508 -0.439,-0.508 -0.124,0 -0.438,0.271 -0.438,0.383 0,0.036 -0.104,0.313 -0.218,0.614 -0.144,0.362 -0.267,0.562 -0.373,0.614 -0.181,0.077 -0.399,0.477 -0.4,0.729 0,0.161 -0.021,0.204 -0.249,0.658 -0.129,0.258 -0.278,0.679 -0.355,1.016 -0.026,0.108 -0.074,0.18 -0.113,0.158 l -0.064,0.047 c 0,0.047 -0.107,0.319 -0.245,0.595 -0.132,0.271 -0.312,0.679 -0.401,0.894 -0.085,0.217 -0.181,0.459 -0.212,0.537 -0.029,0.076 -0.161,0.41 -0.279,0.751 -0.341,0.902 -0.568,1.479 -0.784,1.959 -0.107,0.232 -0.216,0.506 -0.252,0.604 -0.03,0.094 -0.146,0.375 -0.254,0.619 -0.167,0.376 -0.229,0.452 -0.376,0.452 -0.103,0 -0.271,0.053 -0.396,0.119 -0.254,0.146 -0.675,0.837 -0.616,1.021 0.048,0.164 0.271,0.24 0.442,0.146 0.067,-0.036 0.25,-0.09 0.396,-0.109 0.149,-0.025 0.313,-0.062 0.351,-0.087 0.036,-0.031 0.339,-0.044 0.666,-0.044 0.425,0.002 0.618,-0.023 0.681,-0.095 0.041,-0.06 0.16,-0.104 0.254,-0.104 0.188,0 0.456,-0.117 0.542,-0.244 0.103,-0.149 0.051,-0.396 -0.102,-0.472 -0.081,-0.042 -0.313,-0.073 -0.518,-0.063 -0.63,0.022 -0.65,-0.003 -0.396,-0.519 0.078,-0.167 0.141,-0.324 0.141,-0.348 0,-0.029 0.037,-0.146 0.086,-0.255 0.039,-0.108 0.153,-0.399 0.244,-0.651 0.188,-0.526 0.365,-0.818 0.459,-0.762 0.037,0.021 0.33,-0.007 0.653,-0.067 0.329,-0.06 0.863,-0.156 1.202,-0.218 0.328,-0.062 0.854,-0.138 1.165,-0.173 l 0.56,-0.063 0.212,0.243 c 0.206,0.237 0.41,0.322 0.41,0.167 l 0.108,-0.05 c 0.059,0.012 0.237,0.312 0.397,0.666 0.159,0.351 0.412,0.896 0.565,1.211 0.273,0.564 0.327,0.739 0.226,0.756 -0.03,0.003 -0.176,0.018 -0.323,0.033 -0.146,0.017 -0.353,0.094 -0.457,0.174 -0.104,0.082 -0.229,0.147 -0.276,0.147 -0.126,0 -0.312,0.264 -0.278,0.408 l 0.031,0.208 c 0.013,0.196 0.329,0.254 0.742,0.134 0.352,-0.104 1.366,-0.238 2.146,-0.288 0.271,-0.02 0.479,0.021 0.766,0.138 l 0.125,-0.055 c 0,-0.061 0.095,-0.119 0.214,-0.149 0.133,-0.026 0.238,-0.104 0.276,-0.203 0.086,-0.264 -0.11,-0.51 -0.389,-0.51 z m -5.947,-3.717 c -0.526,0.001 -1.069,0.037 -1.209,0.078 -0.331,0.104 -0.571,0.099 -0.571,-0.021 0,-0.264 1.636,-3.756 1.781,-3.812 0.077,-0.032 0.137,0.134 0.258,0.729 0.058,0.271 0.183,0.771 0.282,1.104 0.104,0.329 0.258,0.86 0.354,1.188 0.099,0.322 0.178,0.601 0.178,0.619 -0.01,0.096 -0.16,0.113 -1.073,0.115 z"
     id="path8013"
     inkscape:connector-curvature="0" /><path
     d="m 125.66994,19.724985 -0.213,0.28 c -0.115,0.116 -0.128,0.206 -0.092,0.688 0.04,0.571 -0.034,0.771 -0.271,0.771 -0.235,0 -0.347,-0.218 -0.428,-0.867 -0.029,-0.229 -0.083,-0.348 -0.168,-0.379 -0.101,-0.031 -1.055,-0.017 -2.332,0.034 -0.047,0.002 -0.106,0.544 -0.16,1.518 -0.108,1.957 -0.108,2.296 0.021,2.501 0.087,0.128 0.096,0.271 0.038,0.768 -0.036,0.329 -0.083,1.469 -0.107,2.521 -0.056,2.399 -0.021,2.5 0.801,2.521 0.126,0.006 0.297,-0.035 0.375,-0.082 0.199,-0.121 0.386,0.011 0.414,0.311 0.023,0.262 -0.118,0.42 -0.384,0.42 -0.087,0 -0.287,0.066 -0.453,0.146 -0.269,0.131 -0.345,0.138 -0.74,0.063 -0.281,-0.048 -0.766,-0.062 -1.347,-0.029 -0.778,0.041 -0.938,0.036 -1.087,-0.065 -0.103,-0.06 -0.221,-0.113 -0.276,-0.113 -0.123,0 -0.332,-0.227 -0.332,-0.364 0,-0.151 0.303,-0.413 0.475,-0.413 0.079,0 0.267,-0.102 0.425,-0.214 0.153,-0.113 0.329,-0.215 0.398,-0.215 0.092,-0.002 0.111,-0.051 0.09,-0.23 -0.016,-0.128 -0.04,-0.766 -0.064,-1.411 -0.023,-0.646 -0.066,-1.693 -0.106,-2.313 -0.034,-0.625 -0.038,-1.171 0,-1.208 0.035,-0.035 0.101,-0.931 0.148,-1.979 0.082,-1.646 0.078,-1.921 -0.01,-2.001 -0.071,-0.066 -0.398,-0.109 -1.062,-0.142 -0.979,-0.044 -1.724,0.019 -1.857,0.153 -0.041,0.039 -0.1,0.374 -0.109,0.741 -0.034,0.667 -0.133,0.911 -0.351,0.911 l -0.098,0.069 c 0,0.038 -0.081,0.07 -0.185,0.07 -0.099,0 -0.192,0.05 -0.223,0.112 -0.104,0.258 -0.166,-0.113 -0.166,-0.979 -0.001,-0.884 -0.001,-0.896 -0.184,-0.989 -0.297,-0.159 -0.327,-0.569 -0.037,-0.569 0.07,0 0.183,-0.104 0.256,-0.238 l 0.124,-0.242 0.79,-0.022 c 1.927,-0.059 4.953,-0.028 5.525,0.055 0.332,0.044 0.87,0.105 1.199,0.121 0.572,0.037 0.586,0.032 0.586,-0.125 0,-0.37 0.336,-0.439 0.568,-0.115 0.104,0.147 0.207,0.213 0.349,0.213 0.262,-0.007 0.366,0.12 0.265,0.317 z"
     id="path8015"
     inkscape:connector-curvature="0" /><path
     d="m 121.18494,20.318985 -0.065,0.188 c 0.037,0.094 0.062,0.091 0.181,-0.016 0.153,-0.143 0.052,-0.313 -0.116,-0.172 z"
     id="path8017"
     inkscape:connector-curvature="0" /><path
     d="m 117.65094,29.980985 -0.036,-0.21 c 0.104,-0.253 -0.066,-0.302 -0.754,-0.234 -0.352,0.036 -0.693,0.044 -0.752,0.021 -0.12,-0.042 -0.431,-0.688 -1.212,-2.51 -0.594,-1.384 -0.706,-1.711 -1.106,-3.159 -0.256,-0.912 -0.757,-2.229 -0.938,-2.477 -0.103,-0.121 -0.301,-0.111 -0.41,0.022 -0.086,0.103 -0.104,0.097 -0.187,-0.054 -0.046,-0.09 -0.094,-0.266 -0.095,-0.396 0,-0.121 -0.033,-0.303 -0.065,-0.396 -0.034,-0.09 -0.138,-0.393 -0.224,-0.676 -0.086,-0.283 -0.213,-0.563 -0.279,-0.622 -0.113,-0.109 -0.146,-0.102 -0.381,0.13 -0.221,0.211 -0.252,0.283 -0.221,0.483 0.033,0.188 -0.044,0.403 -0.388,1.101 -0.235,0.474 -0.546,1.183 -0.691,1.565 -0.426,1.154 -0.677,1.73 -1.09,2.519 -0.76,1.451 -0.979,1.892 -1.183,2.354 -0.939,2.192 -0.918,2.147 -1.205,2.252 -0.305,0.105 -0.906,0.567 -0.906,0.696 0,0.146 0.232,0.307 0.534,0.354 0.155,0.027 0.476,0.088 0.708,0.14 0.351,0.073 0.462,0.073 0.604,-0.004 0.104,-0.05 0.39,-0.096 0.632,-0.096 0.469,0 0.659,-0.065 0.902,-0.296 l 0.285,-0.244 c 0.145,-0.106 0.145,-0.106 0,-0.215 -0.08,-0.063 -0.252,-0.104 -0.394,-0.092 -0.14,0.007 -0.316,-0.024 -0.393,-0.066 -0.335,-0.189 -0.338,-0.193 -0.258,-0.488 0.039,-0.148 0.126,-0.499 0.19,-0.771 0.062,-0.271 0.19,-0.692 0.289,-0.936 l 0.178,-0.434 0.399,-0.045 c 0.226,-0.022 0.708,-0.092 1.082,-0.152 0.374,-0.056 1.129,-0.126 1.688,-0.155 l 1.007,-0.042 0.181,0.194 c 0.104,0.109 0.275,0.361 0.396,0.564 0.109,0.196 0.256,0.406 0.321,0.463 l 0.114,0.213 c 0,0.146 0.241,0.912 0.309,0.979 0.138,0.14 0.019,0.29 -0.372,0.474 -0.234,0.107 -0.482,0.194 -0.562,0.194 -0.221,0 -0.334,0.185 -0.237,0.393 0.103,0.229 0.38,0.299 1.281,0.314 0.409,0.01 0.771,0.034 0.809,0.053 0.104,0.062 0.41,0.085 0.41,0.025 0,-0.031 0.145,-0.037 0.317,-0.017 0.181,0.021 0.381,0.009 0.444,-0.025 0.072,-0.032 0.244,-0.062 0.382,-0.062 0.203,-0.001 0.254,-0.036 0.269,-0.159 0.021,-0.107 0.104,-0.181 0.284,-0.244 0.146,-0.042 0.289,-0.101 0.326,-0.113 l 0,-0.113 z m -6.377,-3.669 c -0.233,0 -0.769,0.037 -1.19,0.085 -0.499,0.058 -0.793,0.062 -0.837,0.021 -0.041,-0.046 0.044,-0.323 0.258,-0.781 0.179,-0.396 0.4,-0.906 0.504,-1.135 0.102,-0.24 0.228,-0.51 0.274,-0.608 0.054,-0.098 0.267,-0.521 0.475,-0.944 0.202,-0.421 0.393,-0.74 0.419,-0.709 0.021,0.032 0.165,0.438 0.31,0.908 0.315,1.018 0.531,1.577 0.906,2.359 0.151,0.323 0.276,0.618 0.276,0.648 -0.01,0.068 -0.722,0.154 -1.395,0.156 z"
     id="path8019"
     inkscape:connector-curvature="0" /><path
     d="m 103.70094,30.776985 c -0.051,0.082 -0.259,0.146 -0.516,0.156 -0.065,0.003 -0.155,0.082 -0.205,0.182 -0.091,0.165 -0.105,0.171 -1.312,0.182 -1.174,0.009 -1.229,0.001 -1.418,-0.151 -0.105,-0.092 -0.269001,-0.221 -0.373001,-0.292 -0.375,-0.268 -0.146,-0.563 0.498001,-0.649 0.688,-0.097 0.631,0.04 0.573,-1.396 -0.039,-0.854 -0.021,-1.629 0.038,-2.395 0.054,-0.622 0.102,-1.612 0.102,-2.2 0,-1.271 -0.041,-2.812 -0.071,-2.812 -0.04,0 -0.854,1.512 -1.222001,2.279 -0.443,0.917 -0.604,1.239 -1.479,2.956 -0.968,1.889 -1.248,2.559 -1.248,2.937 0,0.394 -0.24,0.875 -0.425,0.875 -0.185,0 -0.354,-0.183 -0.48,-0.491 -0.131,-0.318 -0.494,-0.915 -1.315,-2.179 -0.659,-1.012 -1.023,-1.713 -1.257,-2.435 -0.195,-0.604 -0.768,-1.826 -0.98,-2.117 -0.146,-0.196 -0.185,-0.105 -0.219,0.438 -0.014,0.264 -0.041,0.805 -0.069,1.196 -0.025,0.396 -0.056,1.264 -0.071,1.931 -0.012,0.669 -0.06,1.543 -0.102,1.939 -0.097,0.859 -0.043,1.358 0.136,1.358 0.224,0 0.769,0.221 0.897,0.362 0.104,0.105 0.107,0.182 0.058,0.368 -0.038,0.135 -0.114,0.229 -0.183,0.231 -0.124,0.002 -0.48,0.182 -0.48,0.245 0,0.086 -2.458,0.034 -2.625,-0.061 -0.218,-0.112 -0.184,-0.366 0.081,-0.489 l 0.2,-0.102 -0.183,-0.168 c -0.21,-0.193 -0.225,-0.267 -0.069,-0.42 0.078,-0.076 0.248,-0.106 0.534,-0.106 l 0.422,0 0,-0.521 c 0,-0.281 0.065,-0.914 0.146,-1.408 0.191,-1.146 0.199,-3.476 0.032,-6.906 -0.035,-0.625 -0.11,-0.784 -0.396,-0.784 -0.201,0 -0.495,-0.279 -0.495,-0.477 0,-0.262 0.272,-0.357 0.713,-0.252 0.192,0.049 0.396,0.065 0.438,0.036 0.104,-0.058 1.896,-0.118 2.039,-0.062 0.073,0.025 0.074,0.063 0.014,0.184 -0.062,0.122 -0.038,0.225 0.136,0.587 0.214,0.437 1.084,2.854 1.407,3.9 0.191,0.641 0.868,2.021 1.167,2.396 0.109,0.146 0.265,0.427 0.337,0.617 0.073,0.194 0.164,0.354 0.198,0.349 0.036,-0.003 0.261,-0.383 0.494,-0.834 0.236,-0.458 0.538,-1.016 0.672,-1.237 0.133,-0.229 0.337,-0.591 0.461,-0.808 0.111,-0.214 0.381,-0.68 0.587,-1.033 0.444,-0.766 1.071,-2.045 1.303001,-2.635 l 0.162,-0.428 -0.19,-0.153 c -0.235001,-0.188 -0.190001,-0.351 0.13,-0.485 0.126,-0.054 0.271,-0.164 0.322,-0.247 0.104,-0.16 0.307,-0.188 0.521,-0.075 0.104,0.055 0.18,0.044 0.312,-0.038 0.154,-0.105 0.197,-0.107 0.405,-0.008 0.127,0.06 0.446,0.12 0.698,0.143 0.588,0.042 0.872,0.176 0.823,0.369 l -0.034,0.223 c 0,0.044 -0.2,0.104 -0.475,0.132 l -0.473,0.051 0.048,1.261 c 0.029,0.69 0.062,1.784 0.075,2.435 0.014,0.69 0.055,1.271 0.104,1.394 0.062,0.151 0.078,0.826 0.062,2.425 l -0.029,2.21 0.4,-0.026 c 0.224,-0.013 0.473,0.015 0.556,0.056 0.152,0.077 0.197,0.312 0.093,0.477 z"
     id="path8021"
     inkscape:connector-curvature="0" /><path
     d="m 87.804939,27.524985 c -0.031,0.059 -0.106,0.37 -0.175,0.697 -0.063,0.329 -0.134,0.622 -0.147,0.653 -0.02,0.032 -0.1,0.358 -0.171,0.739 -0.074,0.377 -0.189,0.768 -0.265,0.873 -0.072,0.102 -0.185,0.269 -0.244,0.375 -0.229,0.399 -0.44,0.574 -0.709,0.574 -0.292,0 -0.457,-0.135 -0.53,-0.441 -0.041,-0.194 -0.05,-0.198 -0.581,-0.19 -0.45,0.011 -0.546,0.035 -0.631,0.158 -0.103,0.134 -0.111,0.137 -0.349,0.027 -0.139,-0.062 -0.387,-0.114 -0.556,-0.114 -0.358,0.001 -0.84,0.121 -0.84,0.209 0,0.037 -0.138,0.034 -0.305,-0.008 -0.306,-0.068 -1.653,-0.1 -3.478,-0.066 -0.535,0.008 -1.021,-0.007 -1.088,-0.039 -0.093,-0.035 -0.116,-0.104 -0.106,-0.262 0.021,-0.185 0.062,-0.229 0.255,-0.278 0.143,-0.038 0.255,-0.119 0.294,-0.219 0.035,-0.086 0.188,-0.258 0.353,-0.396 0.161,-0.127 0.491,-0.491 0.732,-0.816 0.245,-0.325 0.965,-1.105 1.604,-1.736 0.643,-0.63 1.164,-1.201 1.164,-1.271 0,-0.243 -0.582,-1.143 -1.247,-1.931 -0.629,-0.75 -1.049,-1.293 -1.349,-1.774 -0.149,-0.235 -0.604,-0.76 -1.013,-1.159 -0.541,-0.537 -0.735,-0.775 -0.735,-0.909 0,-0.254 0.227,-0.354 0.49,-0.217 0.109,0.059 0.229,0.081 0.252,0.046 0.072,-0.116 1.063,-0.322 1.538,-0.315 0.256,0.005 0.948,0.012 1.542,0.02 1.127,0.01 2.202,0.135 2.726,0.322 0.406,0.144 0.785,0.142 0.947,-0.01 0.071,-0.063 0.267,-0.127 0.434,-0.139 0.169,-0.009 0.417,-0.035 0.562,-0.066 0.219,-0.034 0.275,-0.021 0.374,0.119 0.064,0.093 0.118,0.235 0.118,0.326 0,0.106 0.044,0.164 0.15,0.182 0.224,0.033 0.229,0.143 0.025,0.438 l -0.177,0.261 0.098,0.798 c 0.107,0.859 0.098,0.956 -0.107,1.021 -0.346,0.104 -0.641,-0.287 -0.771,-1.044 -0.112,-0.662 -0.136,-0.705 -0.312,-0.705 l -0.234,-0.074 c -0.036,-0.038 -0.536,-0.134 -1.102,-0.206 -0.563,-0.073 -1.105,-0.149 -1.198,-0.179 -0.615,-0.146 -1.12,-0.2 -1.709,-0.188 -0.37,0.004 -0.685,0.021 -0.689,0.036 -0.08,0.077 1.021,1.708 1.506,2.234 0.316,0.341 0.626,0.729 0.694,0.869 0.068,0.139 0.353,0.457 0.622,0.696 0.54,0.494 0.688,0.827 0.476,1.063 l -0.146,0.246 -0.14,0.089 c -0.104,-0.038 -3.382,3.138 -3.312,3.21 0.021,0.024 0.325,0.071 0.674,0.107 1.5,0.158 2.093,0.225 2.633,0.291 0.317,0.035 0.975,0.062 1.456,0.048 l 0.88,-0.021 0.336,-0.752 c 0.288,-0.646 0.372,-0.762 0.595,-0.879 0.141,-0.073 0.303,-0.22 0.36,-0.327 0.058,-0.106 0.172,-0.217 0.253,-0.242 0.177,-0.044 0.35,0.103 0.273,0.246 z"
     id="path8023"
     inkscape:connector-curvature="0" /><path
     d="m 82.152939,24.686985 c -0.155,-0.209 -0.299,-0.36 -0.32,-0.34 l 0.672,1.038 c 0.091,-0.004 -0.088,-0.357 -0.352,-0.698 z"
     id="path8025"
     inkscape:connector-curvature="0" /><path
     d="m 76.436939,30.124985 c -0.126,-0.128 -0.364,-0.146 -0.63,-0.044 -0.248,0.098 -0.332,0.049 -0.548,-0.286 -0.196,-0.305 -0.256,-0.438 -0.842,-2.023 -0.204,-0.545 -0.463,-1.19 -0.571,-1.422 -0.259,-0.565 -0.428,-0.946 -0.716,-1.672 -0.127,-0.334 -0.309,-0.72 -0.392,-0.854 -0.082,-0.141 -0.254,-0.589 -0.385,-0.995 -0.131,-0.411 -0.276,-0.842 -0.329,-0.964 -0.044,-0.114 -0.143,-0.438 -0.206,-0.706 -0.059,-0.272 -0.188,-0.614 -0.287,-0.751 -0.208,-0.31 -0.468,-0.896 -0.468,-1.067 0,-0.114 -0.132,-0.215 -0.286,-0.215 -0.129,0 -0.729,0.716 -0.936,1.115 -0.112,0.229 -0.247,0.447 -0.281,0.481 l -0.066,0.213 c 0,0.081 -0.073,0.335 -0.17,0.571 -0.094,0.239 -0.309,0.796 -0.473,1.25 -0.262,0.7 -0.625,1.54 -1.388,3.167 -0.354,0.763 -0.522,1.146 -0.564,1.315 -0.031,0.102 -0.28,0.65 -0.56,1.229 l -0.516,1.053 -0.472,0 c -0.597,0 -0.702,0.095 -0.682,0.559 0.018,0.312 0.039,0.345 0.37,0.566 0.257,0.171 0.4,0.224 0.522,0.188 0.1,-0.026 0.654,-0.054 1.242,-0.073 0.594,-0.017 1.085,-0.043 1.107,-0.063 0.021,-0.021 0.043,-0.143 0.062,-0.27 0.024,-0.201 -0.015,-0.255 -0.22,-0.396 -0.169,-0.111 -0.295,-0.15 -0.399,-0.117 -0.083,0.025 -0.27,0.025 -0.409,0 l -0.254,-0.047 0.161,-0.12 c 0.18,-0.131 0.417,-0.615 0.617,-1.216 0.11,-0.36 0.393,-1.021 0.533,-1.283 0.041,-0.08 0.172,-0.104 0.512,-0.098 0.255,0.008 0.6,0.008 0.772,0 0.767,-0.027 1.637,0.018 2.031,0.101 0.235,0.049 0.541,0.088 0.677,0.086 l 0.25,-0.007 0.604,1.201 c 0.327,0.657 0.576,1.227 0.55,1.267 -0.021,0.037 -0.234,0.089 -0.473,0.109 -0.653,0.056 -0.845,0.311 -0.522,0.688 l 0.179,0.209 1.047,-0.013 c 0.933,-0.016 1.067,0 1.252,0.118 0.142,0.101 0.367,0.146 0.772,0.172 0.569,0.036 0.582,0.033 0.742,-0.175 0.18,-0.248 0.206,-0.618 0.043,-0.781 z m -4.5,-4.005 c -0.125,0.037 -2.534,0.081 -3.171,0.055 -0.328,-0.01 -0.335,-0.014 -0.294,-0.208 0.028,-0.107 0.093,-0.271 0.138,-0.373 0.046,-0.097 0.207,-0.471 0.354,-0.818 0.66,-1.604 1.245,-2.778 1.385,-2.778 0.062,0 0.182,0.209 0.306,0.536 0.11,0.295 0.314,0.792 0.441,1.104 0.134,0.317 0.399,0.963 0.606,1.438 0.199,0.476 0.362,0.901 0.362,0.938 l -0.127,0.106 z"
     id="path8027"
     inkscape:connector-curvature="0" /><path
     d="m 62.585939,30.921985 c -0.182,0.113 -0.42,0.108 -0.728,-0.016 -0.182,-0.074 -0.447,-0.095 -0.983,-0.072 -1.612,0.062 -3.061,0.048 -3.166,-0.039 -0.182,-0.146 -0.111,-0.312 0.227,-0.598 l 0.329,-0.275 0.688,0.012 c 0.537,0.017 0.712,-0.011 0.779,-0.09 0.068,-0.082 -0.013,-0.317 -0.418,-1.212 -0.271,-0.614 -0.504,-1.137 -0.504,-1.169 0,-0.033 -0.146,-0.295 -0.319,-0.587 -0.179,-0.292 -0.316,-0.585 -0.325,-0.652 l -0.135,-0.164 c -0.213,-0.064 -0.766,-1.089 -1.522,-2.834 -0.065,-0.146 -0.148,-0.262 -0.188,-0.262 -0.036,0 -0.198,0.259 -0.352,0.587 -0.352,0.737 -0.579,1.246 -0.579,1.287 0,0.021 -0.091,0.24 -0.204,0.488 -0.111,0.247 -0.229,0.52 -0.253,0.604 -0.028,0.088 -0.243,0.547 -0.479,1.034 -0.438,0.883 -0.663,1.45 -0.763,1.907 -0.036,0.138 -0.109,0.353 -0.173,0.476 -0.139,0.257 -0.156,0.472 -0.046,0.669 0.059,0.109 0.15,0.138 0.434,0.138 0.195,0 0.425,0.033 0.503,0.078 0.646,0.344 0.646,0.888 0.001,0.869 -0.146,-0.007 -0.31,0.021 -0.361,0.046 -0.057,0.036 -0.212,0.011 -0.355,-0.052 -0.169,-0.071 -0.565,-0.116 -1.183,-0.137 -1.023,-0.032 -1.361,-0.128 -1.438,-0.434 -0.064,-0.259 0.163,-0.44 0.646,-0.509 0.46,-0.062 0.604,-0.169 0.64,-0.472 0.034,-0.292 0.105,-0.501 0.292,-0.84 0.188,-0.363 0.426,-0.83 0.801,-1.616 0.443,-0.922 1.055,-2.153 1.139,-2.31 0.108,-0.196 0.443,-0.934 0.443,-0.981 0,-0.026 0.107,-0.275 0.243,-0.562 0.359,-0.771 0.587,-1.349 0.646,-1.616 0.029,-0.133 0.119,-0.401 0.215,-0.595 0.136,-0.3 0.149,-0.384 0.082,-0.564 -0.078,-0.209 -0.067,-0.234 0.253,-0.518 0.185,-0.166 0.336,-0.337 0.336,-0.387 l 0.137,-0.15 c 0.195,-0.107 0.472,0.138 0.562,0.511 0.043,0.174 0.179,0.452 0.293,0.624 0.117,0.176 0.281,0.544 0.369,0.813 0.084,0.273 0.211,0.686 0.284,0.908 0.071,0.229 0.132,0.454 0.132,0.506 0,0.099 0.11,0.367 0.513,1.264 0.082,0.18 0.397,0.818 0.696,1.426 0.59,1.179 1.14,2.424 1.14,2.577 0,0.101 0.188,0.562 0.538,1.312 0.193,0.426 0.209,0.438 0.578,0.53 0.326,0.078 0.396,0.123 0.521,0.366 0.194,0.348 0.196,0.572 0.014,0.681 z"
     id="path8029"
     inkscape:connector-curvature="0" /><path
     d="m 47.763939,30.728985 c -0.578,0.003 -1.445,0.121 -2.016,0.271 -0.15,0.038 -0.508,0.094 -0.791,0.118 -0.446,0.04 -0.548,0.028 -0.825,-0.11 -0.229,-0.114 -0.458,-0.169 -0.817,-0.178 -1.081,-0.032 -1.414,-0.161 -1.26,-0.499 0.081,-0.18 0.185,-0.204 0.597,-0.184 0.231,0.02 0.331,-0.145 0.36,-0.566 0.019,-0.312 0.017,-0.312 -0.457,-0.634 -0.659,-0.449 -0.838,-0.629 -1,-0.996 -0.148,-0.331 -0.312,-0.509 -0.821,-0.875 -0.167,-0.121 -0.302,-0.242 -0.302,-0.265 0,-0.02 -0.289,-0.298 -0.644,-0.605 -0.456,-0.401 -0.638,-0.616 -0.638,-0.729 0,-0.193 -0.107,-0.216 -0.162,-0.032 -0.05,0.189 0.014,3.691 0.073,4.072 0.041,0.273 0.074,0.325 0.242,0.338 0.107,0.018 0.229,0.068 0.274,0.125 0.046,0.055 0.175,0.106 0.282,0.106 0.104,0 0.24,0.046 0.291,0.107 0.053,0.062 0.172,0.146 0.264,0.184 0.146,0.053 0.162,0.095 0.114,0.295 -0.063,0.299 -0.057,0.293 -0.327,0.203 -0.131,-0.039 -0.41,-0.094 -0.619,-0.111 -0.334,-0.035 -0.385,-0.02 -0.417,0.107 -0.036,0.163 -0.104,0.18 -0.31,0.067 -0.104,-0.05 -0.239,-0.042 -0.497,0.036 -0.348,0.107 -0.566,0.093 -0.566,-0.036 0,-0.088 -0.261,-0.082 -0.318,0.009 -0.026,0.033 -0.141,0.068 -0.25,0.068 -0.115,0 -0.229,-0.036 -0.256,-0.068 -0.024,-0.037 -0.262,-0.073 -0.538,-0.073 -0.589,0 -0.993,-0.188 -0.993,-0.475 0,-0.26 0.256,-0.369 0.952,-0.407 0.348,-0.021 0.64,-0.042 0.646,-0.062 0.038,-0.044 0.205,-1.852 0.23,-2.477 0.039,-0.871 0.059,-3.383 0.039,-4.025 -0.009,-0.271 -0.014,-0.598 -0.007,-0.715 0.016,-0.329 -0.172,-1.87 -0.241,-1.971 -0.043,-0.074 -0.076,-0.064 -0.129,0.028 -0.081,0.137 -0.28,0.176 -0.28,0.055 l 0.079,-0.205 c 0.116,-0.187 0.034,-0.341 -0.216,-0.4 -0.334,-0.071 -0.791,-0.437 -0.791,-0.627 0,-0.22 0.211,-0.398 0.474,-0.398 0.106,0 0.301,-0.049 0.408,-0.107 0.27,-0.145 0.397,-0.136 0.842,0.038 0.367,0.146 0.606,0.148 1.126,0.029 0.124,-0.032 0.256,0.01 0.43,0.125 0.187,0.128 0.322,0.165 0.515,0.142 0.416,-0.046 0.479,0.002 0.396,0.304 -0.044,0.139 -0.123,0.252 -0.177,0.252 -0.053,0 -0.235,0.108 -0.401,0.235 l -0.313,0.229 -0.041,0.683 c -0.063,0.934 -0.062,2.99 0.009,2.99 0.031,0 0.214,-0.133 0.401,-0.286 0.487,-0.394 0.443,-0.357 0.996,-0.771 0.775,-0.583 1.272,-0.979 1.608,-1.294 0.817,-0.764 1.055,-1.013 1.133,-1.214 0.081,-0.188 0.075,-0.235 -0.043,-0.353 -0.074,-0.076 -0.259,-0.182 -0.419,-0.235 -0.317,-0.109 -0.396,-0.276 -0.218,-0.473 0.092,-0.104 0.272,-0.141 0.818,-0.179 0.391,-0.023 0.948,-0.093 1.248,-0.146 0.373,-0.071 0.604,-0.082 0.727,-0.037 0.1,0.037 0.308,0.07 0.463,0.07 0.268,0 0.362,0.079 0.201,0.182 l -0.037,0.146 c 0.041,0.105 -0.167,0.277 -1.106,0.919 -0.286,0.193 -0.565,0.4 -0.625,0.466 -0.335,0.321 -1.385,1.229 -1.828,1.584 -0.562,0.45 -1.59,1.479 -1.692,1.694 -0.14,0.297 0.671,1.305 2.095,2.606 0.67,0.616 1.361,1.361 1.382,1.49 0.012,0.083 0.097,0.149 0.229,0.18 0.112,0.024 0.333,0.164 0.489,0.31 0.158,0.146 0.531,0.412 0.829,0.582 0.306,0.18 0.562,0.376 0.579,0.443 0.042,0.169 0.61,0.298 1.391,0.329 0.326,0.012 0.604,0.034 0.618,0.05 0.021,0.021 0.057,0.15 0.083,0.299 l 0.049,0.264 -0.594,-0.012 z"
     id="path8031"
     inkscape:connector-curvature="0" /><polygon
     points="979.08,421.743 979.047,421.646 979.043,421.783 "
     id="polygon8033"
     transform="translate(-941.01006,-395.03402)" /><polygon
     points="979.08,420.458 979.047,420.364 979.043,420.503 "
     id="polygon8035"
     transform="translate(-941.01006,-395.03402)" /><g
     id="g8361"><path
       inkscape:connector-curvature="0"
       id="path8037"
       d="m 25.404939,429.49998 -0.398,3.653 -0.357,-3.653 0,-15.021 7.896,0 0,10.105 -1.886,0.951 1.886,0.979 0,2.979 -0.396,3.658 -0.36,-3.65 0,-2.518 -2.8,-1.473 2.799,-1.396 0,-8.878 -6.378,0 -0.006,14.264 z m 4.76,-12.638 0,6.255 -3.142,1.588 0,-7.843 3.142,0 z m -2.779,16.292 -0.359,-3.64 0,-3.089 3.142,1.604 0,1.472 -0.396,3.653 -0.361,-3.649 0,-1.01 -1.616,-0.836 0,1.846 -0.41,3.649 z m 2.016,-15.531 -1.616,0 0,5.829 1.616,-0.814 0,-5.015 z" /><polygon
       transform="translate(-941.01006,-395.03402)"
       id="polygon8039"
       points="977.956,817.417 977.956,811.877 981.098,811.877 981.098,814.257 982.715,814.257 982.715,810.278 976.338,810.278 976.338,824.535 975.942,828.188 975.581,824.535 975.581,809.514 983.477,809.514 983.477,815.015 980.334,815.015 980.334,812.636 978.718,812.636 978.718,816.657 983.477,816.657 983.477,819.777 978.718,819.777 978.718,821.414 983.477,821.414 983.472,824.534 983.076,828.188 982.715,824.534 982.715,822.175 977.956,822.175 977.956,819.016 982.715,819.016 982.715,817.417 " /><path
       inkscape:connector-curvature="0"
       id="path8041"
       d="m 52.319939,429.49598 -0.399,3.657 -0.356,-3.651 0,-4.89 -2.789,-1.469 2.789,-1.396 0,-6.511 -6.377,0 0,14.258 -0.398,3.649 -0.361,-3.649 0,-15.021 7.898,0 0,7.737 -1.877,0.948 1.877,0.975 -0.007,5.363 z m -2.38,-12.634 0,3.875 -3.146,1.589 0,-5.464 3.146,0 z m 0,8.764 0,1.495 -3.146,0 0,-3.085 3.146,1.59 z m -0.762,-8.003 -1.613,0 0,3.465 1.613,-0.816 0,-2.649 z m 0,8.472 -1.613,-0.818 0,1.09 1.613,0 0,-0.272 z" /><polygon
       transform="translate(-941.01006,-395.03402)"
       id="polygon8043"
       points="997.727,817.417 997.727,811.877 1000.872,811.877 1000.872,814.257 1002.49,814.257 1002.49,810.278 996.113,810.278 996.113,824.535 995.714,828.188 995.353,824.535 995.353,809.514 1003.252,809.514 1003.252,815.015 1000.105,815.015 1000.105,812.636 998.493,812.636 998.493,816.657 1003.252,816.657 1003.252,819.777 998.493,819.777 998.493,821.414 1003.252,821.414 1003.246,824.534 1002.847,828.188 1002.49,824.534 1002.49,822.175 997.727,822.175 997.727,819.016 1002.49,819.016 1002.49,817.417 " /><polygon
       transform="translate(-941.01006,-395.03402)"
       id="polygon8045"
       points="1005.578,828.189 1005.216,824.536 1005.216,809.515 1008.361,809.515 1008.361,821.411 1010.742,821.411 1010.742,824.534 1010.727,824.534 1010.331,828.188 1009.971,824.534 1009.971,822.175 1007.592,822.175 1007.592,810.279 1005.974,810.279 1005.974,824.536 " /><polygon
       transform="translate(-941.01006,-395.03402)"
       id="polygon8047"
       points="1025.025,811.876 1025.025,824.534 1024.629,828.188 1024.268,824.534 1024.268,812.638 1021.888,812.638 1021.888,809.516 1029.787,809.516 1029.787,812.638 1027.407,812.638 1027.401,824.534 1027.001,828.188 1026.641,824.534 1026.641,811.876 1029.021,811.876 1029.021,810.277 1022.644,810.277 1022.644,811.876 " /><polygon
       transform="translate(-941.01006,-395.03402)"
       id="polygon8049"
       points="1033.929,817.417 1033.929,811.877 1037.074,811.877 1037.074,814.257 1038.692,814.257 1038.692,810.278 1032.311,810.278 1032.311,824.535 1031.915,828.188 1031.554,824.535 1031.554,809.514 1039.453,809.514 1039.453,815.015 1036.307,815.015 1036.307,812.636 1034.693,812.636 1034.693,816.657 1039.453,816.657 1039.453,819.777 1034.693,819.777 1034.693,821.414 1039.453,821.414 1039.448,824.534 1039.049,828.188 1038.692,824.534 1038.692,822.175 1033.929,822.175 1033.929,819.016 1038.692,819.016 1038.692,817.417 " /><polygon
       transform="translate(-941.01006,-395.03402)"
       id="polygon8051"
       points="1046.936,811.877 1046.936,814.257 1048.553,814.257 1048.553,810.278 1042.176,810.278 1042.176,824.535 1041.78,828.188 1041.418,824.535 1041.418,809.514 1049.318,809.514 1049.318,815.015 1046.172,815.015 1046.172,812.636 1044.556,812.636 1044.556,821.408 1046.172,821.408 1046.172,819.029 1049.318,819.029 1049.309,824.534 1048.913,828.188 1048.553,824.534 1048.553,819.797 1046.936,819.797 1046.936,822.175 1043.793,822.175 1043.793,811.877 " /><path
       inkscape:connector-curvature="0"
       id="path8053"
       d="m 118.11994,429.49998 -0.396,3.653 -0.36,-3.653 0,-14.257 -1.618,0 0,9.52 -3.141,0 0,-9.52 -1.618,0 0,14.257 -0.398,3.653 -0.357,-3.653 0,-15.021 3.142,0 0,9.521 1.616,0 0,-9.521 3.143,0 0,15.021 -0.013,0 z m -2.381,0 -0.399,3.653 -0.355,-3.653 0,-2.379 -1.618,0 0,2.379 -0.396,3.653 -0.36,-3.653 0,-3.144 3.142,0 0,3.144 -0.014,0 z" /></g><polyline
     points="1083.905,463.759 1083.905,394.934 941.01,394.934 941.01,394.983 941.06,394.983 941.06,395.033   1083.806,395.033 1083.806,463.759 "
     id="polyline8055"
     transform="translate(-941.01006,-395.03402)" /><polygon
     points="1083.905,850.349 1083.905,463.759 1083.806,463.759 1083.806,850.249 941.109,850.249 941.109,394.983 941.06,394.983 941.06,395.033 941.06,394.983 941.01,394.983 941.01,850.349 "
     id="polygon8057"
     transform="translate(-941.01006,-395.03402)" /><path
     d="m 26.624939,4.9099849 0,0.05 c 1.552,0 2.956,0.629 3.973,1.646 1.017,1.017 1.646,2.421 1.646,3.9730001 0,1.552 -0.629,2.956 -1.646,3.973 -1.017,1.017 -2.421,1.646 -3.973,1.646 -1.552,0 -2.957,-0.629 -3.974,-1.646 -1.017,-1.017 -1.646,-2.421 -1.646,-3.973 0,-1.5520001 0.629,-2.9560001 1.646,-3.9730001 1.017,-1.017 2.422,-1.646 3.974,-1.646 l 0,-0.05 0,-0.05 c -3.159,0 -5.72,2.56 -5.72,5.7190001 0,3.158 2.561,5.719 5.72,5.719 3.159,0 5.719,-2.561 5.719,-5.719 0,-3.1590001 -2.56,-5.7190001 -5.719,-5.7190001 l 0,0.05 z"
     id="path8059"
     inkscape:connector-curvature="0" /><path
     d="m 26.624939,438.96498 0,0.05 c 1.552,0 2.956,0.629 3.973,1.646 1.017,1.017 1.646,2.421 1.646,3.974 0,1.552 -0.629,2.956 -1.646,3.974 -1.017,1.017 -2.421,1.646 -3.973,1.646 -1.552,0 -2.957,-0.629 -3.974,-1.646 -1.017,-1.018 -1.646,-2.422 -1.646,-3.974 0,-1.553 0.629,-2.957 1.646,-3.974 1.017,-1.018 2.422,-1.646 3.974,-1.646 l 0,-0.05 0,-0.05 c -3.159,0 -5.72,2.561 -5.72,5.72 0,3.158 2.561,5.719 5.72,5.719 3.159,0 5.719,-2.561 5.719,-5.719 0,-3.159 -2.56,-5.72 -5.719,-5.72 l 0,0.05 z"
     id="path8061"
     inkscape:connector-curvature="0" /><path
     d="m 44.446939,345.77698 0,-0.05 c -9.317,0 -16.897,7.545 -16.897,16.862 0,7.619 5.067,14.073 12.004,16.17 l 0.015,-0.048 -0.05,0 0,9.546 9.465,0 0,-9.446 -0.05,0 0.013,0.048 c 7.118,-1.979 12.367,-8.518 12.367,-16.27 0,-9.317 -7.548,-16.862 -16.866,-16.862 l 0,0.05 0,0.05 c 9.264,0 16.764,7.5 16.767,16.763 0,7.705 -5.218,14.206 -12.293,16.174 l -0.037,0.01 0,9.385 -9.266,0 0,-9.483 -0.035,-0.011 c -6.896,-2.085 -11.934,-8.5 -11.934,-16.074 0,-4.631 1.884,-8.821 4.925,-11.854 3.042,-3.033 7.241,-4.908 11.873,-4.908 l 0,-0.052 z"
     id="path8063"
     inkscape:connector-curvature="0" /><path
     d="m 29.585939,389.40998 c -9.301,-5.196 -15.583,-15.13 -15.583,-26.548 0,-8.396 3.414,-16.005 8.934,-21.516 5.52,-5.511 13.145,-8.922 21.567,-8.922 8.421,0 16.046,3.411 21.566,8.922 5.521,5.511 8.936,13.119 8.936,21.516 0,11.418 -6.293,21.352 -15.608,26.584 l 0.069,0.123 c 9.357,-5.256 15.679,-15.236 15.679,-26.707 0,-16.87 -13.723,-30.578 -30.643,-30.578 -16.923,0 -30.642,13.708 -30.642,30.578 0,11.471 6.312,21.451 15.655,26.671 l 0.07,-0.123 z"
     id="path8065"
     inkscape:connector-curvature="0"
     style="fill:#030303" /><polyline
     points="976.709,725.604 977.475,728.475 977.679,728.42 976.914,725.55 "
     id="polyline8067"
     style="fill:#030303"
     transform="translate(-941.01006,-395.03402)" /><polyline
     points="967.218,726.608 970.081,731.568 970.326,731.428 967.463,726.467 "
     id="polyline8069"
     style="fill:#030303"
     transform="translate(-941.01006,-395.03402)" /><polyline
     points="961.713,734.338 963.8,736.428 963.95,736.277 961.863,734.188 "
     id="polyline8071"
     style="fill:#030303"
     transform="translate(-941.01006,-395.03402)" /><polyline
     points="954.042,739.944 958.95,742.779 959.091,742.533 954.184,739.698 "
     id="polyline8073"
     style="fill:#030303"
     transform="translate(-941.01006,-395.03402)" /><polyline
     points="953.089,749.353 955.939,750.133 955.995,749.928 953.145,749.147 "
     id="polyline8075"
     style="fill:#030303"
     transform="translate(-941.01006,-395.03402)" /><polyline
     points="949.237,758.069 954.928,758.069 954.928,757.786 949.237,757.786 "
     id="polyline8077"
     style="fill:#030303"
     transform="translate(-941.01006,-395.03402)" /><polyline
     points="953.156,766.676 956.004,765.896 955.949,765.691 953.1,766.471 "
     id="polyline8079"
     style="fill:#030303"
     transform="translate(-941.01006,-395.03402)" /><polyline
     points="954.173,776.125 959.105,773.291 958.965,773.045 954.032,775.879 "
     id="polyline8081"
     style="fill:#030303"
     transform="translate(-941.01006,-395.03402)" /><polyline
     points="961.885,781.637 963.968,779.547 963.817,779.396 961.734,781.486 "
     id="polyline8083"
     style="fill:#030303"
     transform="translate(-941.01006,-395.03402)" /><polyline
     points="967.601,789.145 970.351,784.396 970.106,784.254 967.356,789.002 "
     id="polyline8085"
     style="fill:#030303"
     transform="translate(-941.01006,-395.03402)" /><polyline
     points="1003.701,789.039 1000.922,784.224 1000.677,784.364 1003.456,789.18 "
     id="polyline8087"
     style="fill:#030303"
     transform="translate(-941.01006,-395.03402)" /><polyline
     points="1009.289,781.455 1007.202,779.399 1007.054,779.55 1009.141,781.605 "
     id="polyline8089"
     style="fill:#030303"
     transform="translate(-941.01006,-395.03402)" /><polyline
     points="1016.873,775.806 1012.054,773.007 1011.911,773.251 1016.73,776.05 "
     id="polyline8091"
     style="fill:#030303"
     transform="translate(-941.01006,-395.03402)" /><polyline
     points="1017.91,766.439 1015.061,765.66 1015.006,765.865 1017.854,766.645 "
     id="polyline8093"
     style="fill:#030303"
     transform="translate(-941.01006,-395.03402)" /><polyline
     points="1021.585,757.755 1016.071,757.755 1016.071,758.038 1021.585,758.038 "
     id="polyline8095"
     style="fill:#030303"
     transform="translate(-941.01006,-395.03402)" /><polyline
     points="1017.848,749.109 1014.998,749.889 1015.055,750.094 1017.902,749.314 "
     id="polyline8097"
     style="fill:#030303"
     transform="translate(-941.01006,-395.03402)" /><polyline
     points="1016.699,739.734 1011.901,742.498 1012.042,742.744 1016.84,739.98 "
     id="polyline8099"
     style="fill:#030303"
     transform="translate(-941.01006,-395.03402)" /><polyline
     points="1009.119,734.148 1007.035,736.238 1007.186,736.389 1009.27,734.299 "
     id="polyline8101"
     style="fill:#030303"
     transform="translate(-941.01006,-395.03402)" /><polyline
     points="1003.519,726.467 1000.653,731.392 1000.898,731.534 1003.764,726.609 "
     id="polyline8103"
     style="fill:#030303"
     transform="translate(-941.01006,-395.03402)" /><polyline
     points="994.061,725.55 993.299,728.385 993.503,728.439 994.265,725.604 "
     id="polyline8105"
     style="fill:#030303"
     transform="translate(-941.01006,-395.03402)" /><polyline
     points="985.344,721.754 985.344,727.389 985.627,727.389 985.627,721.754 "
     id="polyline8107"
     style="fill:#030303"
     transform="translate(-941.01006,-395.03402)" /><path
     d="m 44.446939,278.27698 0,-0.05 c -9.317,0 -16.897,7.545 -16.897,16.862 0,7.619 5.067,14.073 12.004,16.17 l 0.015,-0.048 -0.05,0 0,9.546 9.465,0 0,-9.446 -0.05,0 0.013,0.048 c 7.118,-1.979 12.367,-8.518 12.367,-16.27 0,-9.317 -7.548,-16.862 -16.866,-16.862 l 0,0.05 0,0.05 c 9.264,0 16.764,7.5 16.767,16.763 0,7.705 -5.218,14.206 -12.293,16.174 l -0.037,0.01 0,9.385 -9.266,0 0,-9.483 -0.035,-0.011 c -6.896,-2.085 -11.934,-8.5 -11.934,-16.074 0,-4.631 1.884,-8.821 4.925,-11.854 3.042,-3.033 7.241,-4.908 11.873,-4.908 l 0,-0.052 z"
     id="path8109"
     inkscape:connector-curvature="0" /><path
     d="m 29.585939,321.90998 c -9.301,-5.196 -15.583,-15.13 -15.583,-26.548 0,-8.396 3.414,-16.005 8.934,-21.516 5.52,-5.511 13.145,-8.922 21.567,-8.922 8.421,0 16.046,3.411 21.566,8.922 5.521,5.511 8.936,13.119 8.936,21.516 0,11.418 -6.293,21.352 -15.608,26.584 l 0.069,0.123 c 9.357,-5.256 15.679,-15.236 15.679,-26.707 0,-16.87 -13.723,-30.578 -30.643,-30.578 -16.923,0 -30.642,13.708 -30.642,30.578 0,11.471 6.312,21.451 15.655,26.671 l 0.07,-0.123 z"
     id="path8111"
     inkscape:connector-curvature="0"
     style="fill:#030303" /><polyline
     points="976.709,658.104 977.475,660.975 977.679,660.92 976.914,658.05 "
     id="polyline8113"
     style="fill:#030303"
     transform="translate(-941.01006,-395.03402)" /><polyline
     points="967.218,659.108 970.081,664.068 970.326,663.928 967.463,658.967 "
     id="polyline8115"
     style="fill:#030303"
     transform="translate(-941.01006,-395.03402)" /><polyline
     points="961.713,666.838 963.8,668.928 963.95,668.777 961.863,666.688 "
     id="polyline8117"
     style="fill:#030303"
     transform="translate(-941.01006,-395.03402)" /><polyline
     points="954.042,672.444 958.95,675.279 959.091,675.033 954.184,672.198 "
     id="polyline8119"
     style="fill:#030303"
     transform="translate(-941.01006,-395.03402)" /><polyline
     points="953.089,681.853 955.939,682.633 955.995,682.428 953.145,681.647 "
     id="polyline8121"
     style="fill:#030303"
     transform="translate(-941.01006,-395.03402)" /><polyline
     points="949.237,690.569 954.928,690.569 954.928,690.286 949.237,690.286 "
     id="polyline8123"
     style="fill:#030303"
     transform="translate(-941.01006,-395.03402)" /><polyline
     points="953.156,699.176 956.004,698.396 955.949,698.191 953.1,698.971 "
     id="polyline8125"
     style="fill:#030303"
     transform="translate(-941.01006,-395.03402)" /><polyline
     points="954.173,708.625 959.105,705.791 958.965,705.545 954.032,708.379 "
     id="polyline8127"
     style="fill:#030303"
     transform="translate(-941.01006,-395.03402)" /><polyline
     points="961.885,714.137 963.968,712.047 963.817,711.896 961.734,713.986 "
     id="polyline8129"
     style="fill:#030303"
     transform="translate(-941.01006,-395.03402)" /><polyline
     points="967.601,721.645 970.351,716.896 970.106,716.754 967.356,721.502 "
     id="polyline8131"
     style="fill:#030303"
     transform="translate(-941.01006,-395.03402)" /><polyline
     points="1003.701,721.539 1000.922,716.724 1000.677,716.864 1003.456,721.68 "
     id="polyline8133"
     style="fill:#030303"
     transform="translate(-941.01006,-395.03402)" /><polyline
     points="1009.289,713.955 1007.202,711.899 1007.054,712.05 1009.141,714.105 "
     id="polyline8135"
     style="fill:#030303"
     transform="translate(-941.01006,-395.03402)" /><polyline
     points="1016.873,708.306 1012.054,705.507 1011.911,705.751 1016.73,708.55 "
     id="polyline8137"
     style="fill:#030303"
     transform="translate(-941.01006,-395.03402)" /><polyline
     points="1017.91,698.939 1015.061,698.16 1015.006,698.365 1017.854,699.145 "
     id="polyline8139"
     style="fill:#030303"
     transform="translate(-941.01006,-395.03402)" /><polyline
     points="1021.585,690.255 1016.071,690.255 1016.071,690.538 1021.585,690.538 "
     id="polyline8141"
     style="fill:#030303"
     transform="translate(-941.01006,-395.03402)" /><polyline
     points="1017.848,681.609 1014.998,682.389 1015.055,682.594 1017.902,681.814 "
     id="polyline8143"
     style="fill:#030303"
     transform="translate(-941.01006,-395.03402)" /><polyline
     points="1016.699,672.234 1011.901,674.998 1012.042,675.244 1016.84,672.48 "
     id="polyline8145"
     style="fill:#030303"
     transform="translate(-941.01006,-395.03402)" /><polyline
     points="1009.119,666.648 1007.035,668.738 1007.186,668.889 1009.27,666.799 "
     id="polyline8147"
     style="fill:#030303"
     transform="translate(-941.01006,-395.03402)" /><polyline
     points="1003.519,658.967 1000.653,663.892 1000.898,664.034 1003.764,659.109 "
     id="polyline8149"
     style="fill:#030303"
     transform="translate(-941.01006,-395.03402)" /><polyline
     points="994.061,658.05 993.299,660.885 993.503,660.939 994.265,658.104 "
     id="polyline8151"
     style="fill:#030303"
     transform="translate(-941.01006,-395.03402)" /><polyline
     points="985.344,654.254 985.344,659.889 985.627,659.889 985.627,654.254 "
     id="polyline8153"
     style="fill:#030303"
     transform="translate(-941.01006,-395.03402)" /><path
     d="m 44.446939,210.77698 0,-0.05 c -9.317,0 -16.897,7.545 -16.897,16.862 0,7.619 5.067,14.073 12.004,16.17 l 0.015,-0.048 -0.05,0 0,9.546 9.465,0 0,-9.446 -0.05,0 0.013,0.048 c 7.118,-1.979 12.367,-8.518 12.367,-16.27 0,-9.317 -7.548,-16.862 -16.866,-16.862 l 0,0.05 0,0.05 c 9.264,0 16.764,7.5 16.767,16.763 0,7.705 -5.218,14.206 -12.293,16.174 l -0.037,0.01 0,9.385 -9.266,0 0,-9.483 -0.035,-0.011 c -6.896,-2.085 -11.934,-8.5 -11.934,-16.074 0,-4.631 1.884,-8.821 4.925,-11.854 3.042,-3.033 7.241,-4.908 11.873,-4.908 l 0,-0.052 z"
     id="path8155"
     inkscape:connector-curvature="0" /><path
     d="m 29.585939,254.40998 c -9.301,-5.196 -15.583,-15.13 -15.583,-26.548 0,-8.396 3.414,-16.005 8.934,-21.516 5.52,-5.51 13.145,-8.922 21.567,-8.922 8.421,0 16.046,3.412 21.566,8.922 5.521,5.511 8.936,13.119 8.936,21.516 0,11.418 -6.293,21.352 -15.608,26.584 l 0.069,0.123 c 9.357,-5.256 15.679,-15.236 15.679,-26.707 0,-16.87 -13.723,-30.578 -30.643,-30.578 -16.923,0 -30.642,13.708 -30.642,30.578 0,11.471 6.312,21.451 15.655,26.671 l 0.07,-0.123 z"
     id="path8157"
     inkscape:connector-curvature="0"
     style="fill:#030303" /><polyline
     points="976.709,590.604 977.475,593.475 977.679,593.42 976.914,590.55 "
     id="polyline8159"
     style="fill:#030303"
     transform="translate(-941.01006,-395.03402)" /><polyline
     points="967.218,591.609 970.081,596.569 970.326,596.427 967.463,591.467 "
     id="polyline8161"
     style="fill:#030303"
     transform="translate(-941.01006,-395.03402)" /><polyline
     points="961.713,599.337 963.8,601.427 963.95,601.278 961.863,599.188 "
     id="polyline8163"
     style="fill:#030303"
     transform="translate(-941.01006,-395.03402)" /><polyline
     points="954.042,604.944 958.95,607.779 959.091,607.534 954.184,604.699 "
     id="polyline8165"
     style="fill:#030303"
     transform="translate(-941.01006,-395.03402)" /><polyline
     points="953.089,614.353 955.939,615.133 955.995,614.928 953.145,614.147 "
     id="polyline8167"
     style="fill:#030303"
     transform="translate(-941.01006,-395.03402)" /><polyline
     points="949.237,623.069 954.928,623.069 954.928,622.786 949.237,622.786 "
     id="polyline8169"
     style="fill:#030303"
     transform="translate(-941.01006,-395.03402)" /><polyline
     points="953.156,631.676 956.004,630.896 955.949,630.691 953.1,631.471 "
     id="polyline8171"
     style="fill:#030303"
     transform="translate(-941.01006,-395.03402)" /><polyline
     points="954.173,641.125 959.105,638.291 958.965,638.045 954.032,640.879 "
     id="polyline8173"
     style="fill:#030303"
     transform="translate(-941.01006,-395.03402)" /><polyline
     points="961.885,646.637 963.968,644.547 963.817,644.396 961.734,646.486 "
     id="polyline8175"
     style="fill:#030303"
     transform="translate(-941.01006,-395.03402)" /><polyline
     points="967.601,654.145 970.351,649.396 970.106,649.254 967.356,654.002 "
     id="polyline8177"
     style="fill:#030303"
     transform="translate(-941.01006,-395.03402)" /><polyline
     points="1003.701,654.039 1000.922,649.224 1000.677,649.364 1003.456,654.18 "
     id="polyline8179"
     style="fill:#030303"
     transform="translate(-941.01006,-395.03402)" /><polyline
     points="1009.289,646.455 1007.202,644.399 1007.054,644.55 1009.141,646.605 "
     id="polyline8181"
     style="fill:#030303"
     transform="translate(-941.01006,-395.03402)" /><polyline
     points="1016.873,640.806 1012.054,638.007 1011.911,638.251 1016.73,641.05 "
     id="polyline8183"
     style="fill:#030303"
     transform="translate(-941.01006,-395.03402)" /><polyline
     points="1017.91,631.439 1015.061,630.66 1015.006,630.865 1017.854,631.645 "
     id="polyline8185"
     style="fill:#030303"
     transform="translate(-941.01006,-395.03402)" /><polyline
     points="1021.585,622.755 1016.071,622.755 1016.071,623.038 1021.585,623.038 "
     id="polyline8187"
     style="fill:#030303"
     transform="translate(-941.01006,-395.03402)" /><polyline
     points="1017.848,614.108 1014.998,614.889 1015.055,615.094 1017.902,614.313 "
     id="polyline8189"
     style="fill:#030303"
     transform="translate(-941.01006,-395.03402)" /><polyline
     points="1016.699,604.735 1011.901,607.499 1012.042,607.744 1016.84,604.98 "
     id="polyline8191"
     style="fill:#030303"
     transform="translate(-941.01006,-395.03402)" /><polyline
     points="1009.119,599.149 1007.035,601.239 1007.186,601.388 1009.27,599.298 "
     id="polyline8193"
     style="fill:#030303"
     transform="translate(-941.01006,-395.03402)" /><polyline
     points="1003.519,591.467 1000.653,596.392 1000.898,596.534 1003.764,591.609 "
     id="polyline8195"
     style="fill:#030303"
     transform="translate(-941.01006,-395.03402)" /><polyline
     points="994.061,590.55 993.299,593.385 993.503,593.439 994.265,590.604 "
     id="polyline8197"
     style="fill:#030303"
     transform="translate(-941.01006,-395.03402)" /><polyline
     points="985.344,586.754 985.344,592.389 985.627,592.389 985.627,586.754 "
     id="polyline8199"
     style="fill:#030303"
     transform="translate(-941.01006,-395.03402)" /><path
     d="m 44.446939,143.27698 0,-0.05 c -9.317,0 -16.897,7.544 -16.897,16.862 0,7.619 5.067,14.073 12.004,16.17 l 0.015,-0.048 -0.05,0 0,9.546 9.465,0 0,-9.446 -0.05,0 0.013,0.048 c 7.118,-1.979 12.367,-8.518 12.367,-16.27 0,-9.317 -7.548,-16.862 -16.866,-16.862 l 0,0.05 0,0.05 c 9.264,0 16.764,7.5 16.767,16.763 0,7.706 -5.218,14.206 -12.293,16.173 l -0.037,0.01 0,9.385 -9.266,0 0,-9.483 -0.035,-0.011 c -6.896,-2.084 -11.934,-8.5 -11.934,-16.074 0,-4.631 1.884,-8.822 4.925,-11.854 3.042,-3.033 7.241,-4.908 11.873,-4.908 l 0,-0.051 z"
     id="path8201"
     inkscape:connector-curvature="0" /><path
     d="m 29.585939,186.90998 c -9.301,-5.196 -15.583,-15.13 -15.583,-26.548 0,-8.396 3.414,-16.005 8.934,-21.516 5.52,-5.51 13.145,-8.922 21.567,-8.922 8.421,0 16.046,3.412 21.566,8.922 5.521,5.511 8.936,13.119 8.936,21.516 0,11.418 -6.293,21.352 -15.608,26.584 l 0.069,0.123 c 9.357,-5.256 15.679,-15.236 15.679,-26.707 0,-16.87 -13.723,-30.578 -30.643,-30.578 -16.923,0 -30.642,13.708 -30.642,30.578 0,11.471 6.312,21.451 15.655,26.671 l 0.07,-0.123 z"
     id="path8203"
     inkscape:connector-curvature="0"
     style="fill:#030303" /><polyline
     points="976.709,523.104 977.475,525.975 977.679,525.92 976.914,523.05 "
     id="polyline8205"
     style="fill:#030303"
     transform="translate(-941.01006,-395.03402)" /><polyline
     points="967.218,524.109 970.081,529.069 970.326,528.927 967.463,523.967 "
     id="polyline8207"
     style="fill:#030303"
     transform="translate(-941.01006,-395.03402)" /><polyline
     points="961.713,531.836 963.8,533.927 963.95,533.778 961.863,531.687 "
     id="polyline8209"
     style="fill:#030303"
     transform="translate(-941.01006,-395.03402)" /><polyline
     points="954.042,537.444 958.95,540.279 959.091,540.034 954.184,537.199 "
     id="polyline8211"
     style="fill:#030303"
     transform="translate(-941.01006,-395.03402)" /><polyline
     points="953.089,546.852 955.939,547.632 955.995,547.428 953.145,546.648 "
     id="polyline8213"
     style="fill:#030303"
     transform="translate(-941.01006,-395.03402)" /><polyline
     points="949.237,555.569 954.928,555.569 954.928,555.286 949.237,555.286 "
     id="polyline8215"
     style="fill:#030303"
     transform="translate(-941.01006,-395.03402)" /><polyline
     points="953.156,564.175 956.004,563.396 955.949,563.192 953.1,563.971 "
     id="polyline8217"
     style="fill:#030303"
     transform="translate(-941.01006,-395.03402)" /><polyline
     points="954.173,573.625 959.105,570.791 958.965,570.545 954.032,573.379 "
     id="polyline8219"
     style="fill:#030303"
     transform="translate(-941.01006,-395.03402)" /><polyline
     points="961.885,579.136 963.968,577.046 963.817,576.897 961.734,578.987 "
     id="polyline8221"
     style="fill:#030303"
     transform="translate(-941.01006,-395.03402)" /><polyline
     points="967.601,586.644 970.351,581.896 970.106,581.754 967.356,586.502 "
     id="polyline8223"
     style="fill:#030303"
     transform="translate(-941.01006,-395.03402)" /><polyline
     points="1003.701,586.539 1000.922,581.723 1000.677,581.865 1003.456,586.68 "
     id="polyline8225"
     style="fill:#030303"
     transform="translate(-941.01006,-395.03402)" /><polyline
     points="1009.289,578.955 1007.202,576.899 1007.054,577.05 1009.141,579.105 "
     id="polyline8227"
     style="fill:#030303"
     transform="translate(-941.01006,-395.03402)" /><polyline
     points="1016.873,573.305 1012.054,570.506 1011.911,570.751 1016.73,573.55 "
     id="polyline8229"
     style="fill:#030303"
     transform="translate(-941.01006,-395.03402)" /><polyline
     points="1017.91,563.94 1015.061,563.16 1015.006,563.364 1017.854,564.144 "
     id="polyline8231"
     style="fill:#030303"
     transform="translate(-941.01006,-395.03402)" /><polyline
     points="1021.585,555.255 1016.071,555.255 1016.071,555.538 1021.585,555.538 "
     id="polyline8233"
     style="fill:#030303"
     transform="translate(-941.01006,-395.03402)" /><polyline
     points="1017.848,546.609 1014.998,547.389 1015.055,547.593 1017.902,546.813 "
     id="polyline8235"
     style="fill:#030303"
     transform="translate(-941.01006,-395.03402)" /><polyline
     points="1016.699,537.235 1011.901,539.999 1012.042,540.244 1016.84,537.48 "
     id="polyline8237"
     style="fill:#030303"
     transform="translate(-941.01006,-395.03402)" /><polyline
     points="1009.119,531.649 1007.035,533.739 1007.186,533.888 1009.27,531.798 "
     id="polyline8239"
     style="fill:#030303"
     transform="translate(-941.01006,-395.03402)" /><polyline
     points="1003.519,523.967 1000.653,528.892 1000.898,529.034 1003.764,524.109 "
     id="polyline8241"
     style="fill:#030303"
     transform="translate(-941.01006,-395.03402)" /><polyline
     points="994.061,523.05 993.299,525.885 993.503,525.939 994.265,523.104 "
     id="polyline8243"
     style="fill:#030303"
     transform="translate(-941.01006,-395.03402)" /><polyline
     points="985.344,519.254 985.344,524.889 985.627,524.889 985.627,519.254 "
     id="polyline8245"
     style="fill:#030303"
     transform="translate(-941.01006,-395.03402)" /><path
     d="m 44.446939,75.776985 0,-0.05 c -9.317,0 -16.897,7.544 -16.897,16.862 0,7.618995 5.067,14.072995 12.004,16.169995 l 0.015,-0.048 -0.05,0 0,9.546 9.465,0 0,-9.446 -0.05,0 0.013,0.048 c 7.118,-1.979 12.367,-8.518 12.367,-16.269995 0,-9.317 -7.548,-16.862 -16.866,-16.862 l 0,0.05 0,0.05 c 9.264,0 16.764,7.5 16.767,16.763 0,7.705995 -5.218,14.205995 -12.293,16.172995 l -0.037,0.01 0,9.385 -9.266,0 0,-9.483 -0.035,-0.011 c -6.896,-2.084 -11.934,-8.5 -11.934,-16.073995 0,-4.631 1.884,-8.822 4.925,-11.854 3.042,-3.033 7.241,-4.908 11.873,-4.908 l 0,-0.051 z"
     id="path8247"
     inkscape:connector-curvature="0" /><path
     d="m 29.585939,119.40998 c -9.301,-5.196 -15.583,-15.13 -15.583,-26.547995 0,-8.396 3.414,-16.005 8.934,-21.516 5.52,-5.511 13.145,-8.922 21.567,-8.922 8.421,0 16.046,3.411 21.566,8.922 5.521,5.511 8.936,13.119 8.936,21.516 0,11.417995 -6.293,21.351995 -15.608,26.583995 l 0.069,0.123 c 9.357,-5.256 15.679,-15.236 15.679,-26.706995 0,-16.87 -13.723,-30.578 -30.643,-30.578 -16.923,0 -30.642,13.708 -30.642,30.578 0,11.470995 6.312,21.450995 15.655,26.670995 l 0.07,-0.123 z"
     id="path8249"
     inkscape:connector-curvature="0"
     style="fill:#030303" /><polyline
     points="976.709,455.604 977.475,458.475 977.679,458.42 976.914,455.55 "
     id="polyline8251"
     style="fill:#030303"
     transform="translate(-941.01006,-395.03402)" /><polyline
     points="967.218,456.609 970.081,461.569 970.326,461.427 967.463,456.467 "
     id="polyline8253"
     style="fill:#030303"
     transform="translate(-941.01006,-395.03402)" /><polyline
     points="961.713,464.336 963.8,466.427 963.95,466.278 961.863,464.187 "
     id="polyline8255"
     style="fill:#030303"
     transform="translate(-941.01006,-395.03402)" /><polyline
     points="954.042,469.944 958.95,472.779 959.091,472.534 954.184,469.699 "
     id="polyline8257"
     style="fill:#030303"
     transform="translate(-941.01006,-395.03402)" /><polyline
     points="953.089,479.352 955.939,480.132 955.995,479.928 953.145,479.148 "
     id="polyline8259"
     style="fill:#030303"
     transform="translate(-941.01006,-395.03402)" /><polyline
     points="949.237,488.069 954.928,488.069 954.928,487.786 949.237,487.786 "
     id="polyline8261"
     style="fill:#030303"
     transform="translate(-941.01006,-395.03402)" /><polyline
     points="953.156,496.675 956.004,495.896 955.949,495.692 953.1,496.471 "
     id="polyline8263"
     style="fill:#030303"
     transform="translate(-941.01006,-395.03402)" /><polyline
     points="954.173,506.125 959.105,503.291 958.965,503.045 954.032,505.879 "
     id="polyline8265"
     style="fill:#030303"
     transform="translate(-941.01006,-395.03402)" /><polyline
     points="961.885,511.636 963.968,509.546 963.817,509.397 961.734,511.487 "
     id="polyline8267"
     style="fill:#030303"
     transform="translate(-941.01006,-395.03402)" /><polyline
     points="967.601,519.144 970.351,514.396 970.106,514.254 967.356,519.002 "
     id="polyline8269"
     style="fill:#030303"
     transform="translate(-941.01006,-395.03402)" /><polyline
     points="1003.701,519.039 1000.922,514.223 1000.677,514.365 1003.456,519.18 "
     id="polyline8271"
     style="fill:#030303"
     transform="translate(-941.01006,-395.03402)" /><polyline
     points="1009.289,511.455 1007.202,509.399 1007.054,509.55 1009.141,511.605 "
     id="polyline8273"
     style="fill:#030303"
     transform="translate(-941.01006,-395.03402)" /><polyline
     points="1016.873,505.805 1012.054,503.006 1011.911,503.251 1016.73,506.05 "
     id="polyline8275"
     style="fill:#030303"
     transform="translate(-941.01006,-395.03402)" /><polyline
     points="1017.91,496.44 1015.061,495.66 1015.006,495.864 1017.854,496.644 "
     id="polyline8277"
     style="fill:#030303"
     transform="translate(-941.01006,-395.03402)" /><polyline
     points="1021.585,487.755 1016.071,487.755 1016.071,488.038 1021.585,488.038 "
     id="polyline8279"
     style="fill:#030303"
     transform="translate(-941.01006,-395.03402)" /><polyline
     points="1017.848,479.109 1014.998,479.889 1015.055,480.093 1017.902,479.313 "
     id="polyline8281"
     style="fill:#030303"
     transform="translate(-941.01006,-395.03402)" /><polyline
     points="1016.699,469.735 1011.901,472.499 1012.042,472.744 1016.84,469.98 "
     id="polyline8283"
     style="fill:#030303"
     transform="translate(-941.01006,-395.03402)" /><polyline
     points="1009.119,464.149 1007.035,466.239 1007.186,466.388 1009.27,464.298 "
     id="polyline8285"
     style="fill:#030303"
     transform="translate(-941.01006,-395.03402)" /><polyline
     points="1003.519,456.467 1000.653,461.392 1000.898,461.534 1003.764,456.609 "
     id="polyline8287"
     style="fill:#030303"
     transform="translate(-941.01006,-395.03402)" /><polyline
     points="994.061,455.55 993.299,458.385 993.503,458.439 994.265,455.604 "
     id="polyline8289"
     style="fill:#030303"
     transform="translate(-941.01006,-395.03402)" /><polyline
     points="985.344,451.754 985.344,457.389 985.627,457.389 985.627,451.754 "
     id="polyline8291"
     style="fill:#030303"
     transform="translate(-941.01006,-395.03402)" /><path
     d="m 80.446939,379.79198 0,0.05 c 1.454,0 2.77,0.589 3.723,1.542 0.953,0.953 1.543,2.269 1.543,3.723 0,1.454 -0.59,2.771 -1.543,3.724 -0.953,0.952 -2.269,1.542 -3.723,1.542 -1.454,0 -2.77,-0.59 -3.723,-1.542 -0.953,-0.953 -1.542,-2.27 -1.542,-3.724 0,-1.454 0.589,-2.77 1.542,-3.723 0.953,-0.953 2.269,-1.542 3.723,-1.542 l 0,-0.05 0,-0.05 c -2.963,0 -5.364,2.401 -5.364,5.364 0,2.963 2.401,5.365 5.364,5.365 2.963,0 5.365,-2.402 5.365,-5.365 0,-2.963 -2.402,-5.364 -5.365,-5.364 l 0,0.05 z"
     id="path8293"
     inkscape:connector-curvature="0" /><path
     d="m 80.446939,244.79198 0,0.05 c 1.454,0 2.77,0.589 3.723,1.542 0.953,0.953 1.543,2.269 1.543,3.723 0,1.454 -0.59,2.771 -1.543,3.724 -0.953,0.952 -2.269,1.542 -3.723,1.542 -1.454,0 -2.77,-0.59 -3.723,-1.542 -0.953,-0.953 -1.542,-2.27 -1.542,-3.724 0,-1.454 0.589,-2.77 1.542,-3.723 0.953,-0.953 2.269,-1.542 3.723,-1.542 l 0,-0.05 0,-0.05 c -2.963,0 -5.364,2.401 -5.364,5.364 0,2.963 2.401,5.365 5.364,5.365 2.963,0 5.365,-2.402 5.365,-5.365 0,-2.963 -2.402,-5.364 -5.365,-5.364 l 0,0.05 z"
     id="path8295"
     inkscape:connector-curvature="0" /><path
     d="m 116.44694,148.59098 0,0.05 c 3.166,0 6.033,1.284 8.107,3.358 2.075,2.075 3.358,4.941 3.358,8.107 0,3.167 -1.283,6.033 -3.358,8.107 -2.074,2.075 -4.941,3.358 -8.107,3.358 -3.166,0 -6.032,-1.283 -8.107,-3.358 -2.074,-2.075 -3.358,-4.941 -3.358,-8.107 0,-3.166 1.284,-6.032 3.358,-8.107 2.075,-2.075 4.941,-3.358 8.107,-3.358 l 0,-0.05 0,-0.05 c -6.387,0 -11.565,5.178 -11.565,11.565 0,6.388 5.179,11.565 11.565,11.565 6.389,0 11.565,-5.177 11.565,-11.565 0,-6.387 -5.177,-11.565 -11.565,-11.565 l 0,0.05 z"
     id="path8297"
     inkscape:connector-curvature="0" /><path
     d="m 116.44694,373.59098 0,0.05 c 3.166,0 6.033,1.283 8.107,3.358 2.075,2.075 3.358,4.941 3.358,8.107 0,3.167 -1.283,6.032 -3.358,8.107 -2.074,2.075 -4.941,3.358 -8.107,3.358 -3.166,0 -6.032,-1.283 -8.107,-3.358 -2.074,-2.075 -3.358,-4.94 -3.358,-8.107 0,-3.166 1.284,-6.032 3.358,-8.107 2.075,-2.075 4.941,-3.358 8.107,-3.358 l 0,-0.05 0,-0.05 c -6.387,0 -11.565,5.179 -11.565,11.565 0,6.388 5.179,11.565 11.565,11.565 6.389,0 11.565,-5.178 11.565,-11.565 0,-6.387 -5.177,-11.565 -11.565,-11.565 l 0,0.05 z"
     id="path8299"
     inkscape:connector-curvature="0" /><path
     d="m 116.44694,328.59098 0,0.05 c 3.166,0 6.033,1.283 8.107,3.358 2.075,2.075 3.358,4.941 3.358,8.107 0,3.166 -1.283,6.032 -3.358,8.107 -2.074,2.075 -4.941,3.358 -8.107,3.358 -3.166,0 -6.032,-1.283 -8.107,-3.358 -2.074,-2.075 -3.358,-4.941 -3.358,-8.107 0,-3.166 1.284,-6.032 3.358,-8.107 2.075,-2.075 4.941,-3.358 8.107,-3.358 l 0,-0.05 0,-0.05 c -6.387,0 -11.565,5.179 -11.565,11.565 0,6.388 5.179,11.565 11.565,11.565 6.389,0 11.565,-5.178 11.565,-11.565 0,-6.387 -5.177,-11.565 -11.565,-11.565 l 0,0.05 z"
     id="path8301"
     inkscape:connector-curvature="0" /><path
     d="m 116.44694,283.59098 0,0.05 c 3.166,0 6.033,1.283 8.107,3.358 2.075,2.075 3.358,4.941 3.358,8.107 0,3.166 -1.283,6.032 -3.358,8.107 -2.074,2.075 -4.941,3.358 -8.107,3.358 -3.166,0 -6.032,-1.283 -8.107,-3.358 -2.074,-2.075 -3.358,-4.941 -3.358,-8.107 0,-3.166 1.284,-6.032 3.358,-8.107 2.075,-2.075 4.941,-3.358 8.107,-3.358 l 0,-0.05 0,-0.05 c -6.387,0 -11.565,5.179 -11.565,11.565 0,6.388 5.179,11.565 11.565,11.565 6.389,0 11.565,-5.178 11.565,-11.565 0,-6.387 -5.177,-11.565 -11.565,-11.565 l 0,0.05 z"
     id="path8303"
     inkscape:connector-curvature="0" /><path
     d="m 116.44694,238.59098 0,0.05 c 3.166,0 6.033,1.283 8.107,3.358 2.075,2.075 3.358,4.941 3.358,8.107 0,3.166 -1.283,6.032 -3.358,8.107 -2.074,2.075 -4.941,3.358 -8.107,3.358 -3.166,0 -6.032,-1.283 -8.107,-3.358 -2.074,-2.075 -3.358,-4.941 -3.358,-8.107 0,-3.166 1.284,-6.032 3.358,-8.107 2.075,-2.075 4.941,-3.358 8.107,-3.358 l 0,-0.05 0,-0.05 c -6.387,0 -11.565,5.179 -11.565,11.565 0,6.388 5.179,11.565 11.565,11.565 6.389,0 11.565,-5.178 11.565,-11.565 0,-6.387 -5.177,-11.565 -11.565,-11.565 l 0,0.05 z"
     id="path8305"
     inkscape:connector-curvature="0" /><path
     d="m 116.44694,193.59098 0,0.05 c 3.166,0 6.033,1.284 8.107,3.358 2.075,2.075 3.358,4.941 3.358,8.107 0,3.167 -1.283,6.033 -3.358,8.107 -2.074,2.075 -4.941,3.358 -8.107,3.358 -3.166,0 -6.032,-1.283 -8.107,-3.358 -2.074,-2.075 -3.358,-4.941 -3.358,-8.107 0,-3.166 1.284,-6.032 3.358,-8.107 2.075,-2.075 4.941,-3.358 8.107,-3.358 l 0,-0.05 0,-0.05 c -6.387,0 -11.565,5.178 -11.565,11.565 0,6.388 5.179,11.565 11.565,11.565 6.389,0 11.565,-5.177 11.565,-11.565 0,-6.387 -5.177,-11.565 -11.565,-11.565 l 0,0.05 z"
     id="path8307"
     inkscape:connector-curvature="0" /><polygon
     points="1059.828,796.148 1055.974,796.148 1055.974,802.148 1052.873,802.148 1052.873,803.148 1056.974,803.148 1056.974,797.148 1058.828,797.148 1058.828,803.148 1062.182,803.148 1062.182,802.148 1059.828,802.148 "
     id="polygon8309"
     transform="translate(-941.01006,-395.03402)" /><polyline
     points="1051.168,617.432 1051.168,625.414 1052.168,625.414 1052.168,617.432 "
     id="polyline8311"
     style="fill:#030303"
     transform="translate(-941.01006,-395.03402)" /><polyline
     points="1063.862,620.885 1055.416,620.885 1055.416,621.885 1063.862,621.885 "
     id="polyline8313"
     style="fill:#030303"
     transform="translate(-941.01006,-395.03402)" /><polygon
     points="1051.752,621.4 1057.254,619.566 1057.293,623.274 "
     id="polygon8315"
     style="fill:#030303"
     transform="translate(-941.01006,-395.03402)" /><path
     d="m 108.34594,184.85098 3.977,0 0,-6.5 -0.5,0 0,0.5 c 2.937,0 5.873,0 8.81,0 l 0,-0.5 -0.5,0 0,6.5 3.976,0 0,-1 -2.976,0 0,-6 -0.5,0 c -2.937,0 -5.873,0 -8.81,0 l -0.5,0 0,6 -2.977,0 0,1 z"
     id="path8317"
     inkscape:connector-curvature="0" /><path
     d="m 45.032939,297.01298 72.660001,0 -0.258,-1.21 c -0.023,-0.099 -14.037,-65.457 -71.627001,-136.129 l -1.551,1.264 c 28.655,35.161 46.467,69.004 57.111001,94.049 5.322,12.521 8.852,22.843 11.051,30.028 1.1,3.592 1.865,6.4 2.355,8.308 0.246,0.953 0.422,1.682 0.537,2.17 0.058,0.244 0.1,0.428 0.127,0.551 0.027,0.122 0.039,0.179 0.039,0.18 l 0.979,-0.21 0,-1 -71.424001,0 0,1.999 z"
     id="path8319"
     inkscape:connector-curvature="0" /><path
     d="m 45.647939,364.04298 71.746001,-22.971 -0.291,-0.944 c -0.012,-0.037 -5.617,-18.251 -17.338001,-41.383 -11.725,-23.131 -29.555,-51.188 -54.106,-70.899 l -1.252,1.561 c 24.203,19.417 41.931,47.257 53.574,70.242 5.823001,11.492 10.130001,21.769 12.978001,29.167 1.424,3.699 2.483,6.679 3.187,8.731 0.352,1.026 0.614,1.821 0.788,2.357 0.174,0.537 0.258,0.811 0.258,0.812 l 0.956,-0.294 -0.305,-0.952 -70.804001,22.669 0.609,1.904 z"
     id="path8321"
     inkscape:connector-curvature="0" /><path
     d="m 40.026939,43.626985 0.298,-0.046 c 0,0 -0.046,-1.627 1.191,-1.65 1.237,-0.022 1.421,1.283 2.359,6.552 0,0 -0.894,2.018 -0.871,2.43 0.023,0.413 -0.366,1.901 0.458,1.993 0.824,0.091 1.031,-1.398 1.008,-1.535 -0.022,-0.138 0.022,-2.817 -0.138,-3.047 -0.161,-0.229 3.551,-7.492 3.551,-7.492 l -1.764,0 -1.833,6.231 c 0,0 -0.458,-6.828 -2.658,-6.415 -2.199,0.413 -1.601,2.818 -1.601,2.979 z"
     id="path8323"
     inkscape:connector-curvature="0" /><path
     d="m 112.02694,268.62698 0.298,-0.046 c 0,0 -0.046,-1.627 1.191,-1.65 1.237,-0.021 1.421,1.283 2.359,6.553 0,0 -0.894,2.018 -0.871,2.431 0.023,0.412 -0.366,1.9 0.458,1.991 0.825,0.093 1.031,-1.396 1.008,-1.534 -0.022,-0.138 0.022,-2.816 -0.138,-3.047 -0.161,-0.229 3.551,-7.492 3.551,-7.492 l -1.764,0 -1.833,6.231 c 0,0 -0.458,-6.828 -2.658,-6.415 -2.199,0.413 -1.601,2.817 -1.601,2.978 z"
     id="path8325"
     inkscape:connector-curvature="0" /><polyline
     points="1050.569,706.193 1050.569,719.209 1051.819,719.209 1051.819,706.193 "
     id="polyline8327"
     style="fill:#030303"
     transform="translate(-941.01006,-395.03402)" /><polyline
     points="1064.084,706.228 1064.084,719.141 1065.334,719.141 1065.334,706.228 "
     id="polyline8329"
     style="fill:#030303"
     transform="translate(-941.01006,-395.03402)" /><polyline
     points="1051.332,713.275 1061.428,713.275 1061.428,712.025 1051.332,712.025 "
     id="polyline8331"
     style="fill:#030303"
     transform="translate(-941.01006,-395.03402)" /><polygon
     points="1064.635,712.664 1059.82,711.059 1059.785,714.305 "
     id="polygon8333"
     style="fill:#030303"
     transform="translate(-941.01006,-395.03402)" /><polyline
     points="1051.057,758.219 1064.302,758.219 1064.302,756.969 1051.057,756.969 "
     id="polyline8335"
     style="fill:#030303"
     transform="translate(-941.01006,-395.03402)" /><polyline
     points="1050.633,751.226 1050.633,763.996 1051.883,763.996 1051.883,751.226 "
     id="polyline8337"
     style="fill:#030303"
     transform="translate(-941.01006,-395.03402)" /><polyline
     points="1057.055,751.226 1057.055,763.996 1058.305,763.996 1058.305,751.226 "
     id="polyline8339"
     style="fill:#030303"
     transform="translate(-941.01006,-395.03402)" /><polyline
     points="1059.016,751.226 1059.016,763.996 1060.266,763.996 1060.266,751.226 "
     id="polyline8341"
     style="fill:#030303"
     transform="translate(-941.01006,-395.03402)" /><polyline
     points="1060.266,751.226 1060.266,763.996 1061.516,763.996 1061.516,751.226 "
     id="polyline8343"
     style="fill:#030303"
     transform="translate(-941.01006,-395.03402)" /><polyline
     points="1061.158,751.226 1061.158,763.996 1062.408,763.996 1062.408,751.226 "
     id="polyline8345"
     style="fill:#030303"
     transform="translate(-941.01006,-395.03402)" /><polyline
     points="1061.87,751.226 1061.87,763.996 1063.12,763.996 1063.12,751.226 "
     id="polyline8347"
     style="fill:#030303"
     transform="translate(-941.01006,-395.03402)" /><polyline
     points="1062.585,751.226 1062.585,763.996 1063.835,763.996 1063.835,751.226 "
     id="polyline8349"
     style="fill:#030303"
     transform="translate(-941.01006,-395.03402)" /><polyline
     points="1062.939,751.226 1062.939,763.996 1064.189,763.996 1064.189,751.226 "
     id="polyline8351"
     style="fill:#030303"
     transform="translate(-941.01006,-395.03402)" /><polyline
     points="1063.477,751.226 1063.477,763.996 1064.727,763.996 1064.727,751.226 "
     id="polyline8353"
     style="fill:#030303"
     transform="translate(-941.01006,-395.03402)" /><polyline
     points="1054.914,751.226 1054.914,763.996 1056.164,763.996 1056.164,751.226 "
     id="polyline8355"
     style="fill:#030303"
     transform="translate(-941.01006,-395.03402)" /></svg>