  0
SECTION
  2
HEADER
  9
$ACADVER
  1
AC1014
  9
$HANDSEED
  5
FFFF
  9
$MEASUREMENT
 70
     1
  0
ENDSEC
  0
SECTION
  2
TABLES
  0
TABLE
  2
VPORT
  5
8
330
0
100
AcDbSymbolTable
 70
     4
  0
VPORT
  5
2E
330
8
100
AcDbSymbolTableRecord
100
AcDbViewportTableRecord
  2
*ACTIVE
 70
     0
 10
0.0
 20
0.0
 11
1.0
 21
1.0
 12
210.0
 22
148.5
 13
0.0
 23
0.0
 14
10.0
 24
10.0
 15
10.0
 25
10.0
 16
0.0
 26
0.0
 36
1.0
 17
0.0
 27
0.0
 37
0.0
 40
341.0
 41
1.24
 42
50.0
 43
0.0
 44
0.0
 50
0.0
 51
0.0
 71
     0
 72
   100
 73
     1
 74
     3
 75
     0
 76
     0
 77
     0
 78
     0
  0
ENDTAB
  0
TABLE
  2
LTYPE
  5
5
330
0
100
AcDbSymbolTable
 70
     1
  0
LTYPE
  5
14
330
5
100
AcDbSymbolTableRecord
100
AcDbLinetypeTableRecord
  2
BYBLOCK
 70
     0
  3

 72
    65
 73
     0
 40
0.0
  0
LTYPE
  5
15
330
5
100
AcDbSymbolTableRecord
100
AcDbLinetypeTableRecord
  2
BYLAYER
 70
     0
  3

 72
    65
 73
     0
 40
0.0
  0
LTYPE
  5
16
330
5
100
AcDbSymbolTableRecord
100
AcDbLinetypeTableRecord
  2
CONTINUOUS
 70
     0
  3
Solid line
 72
    65
 73
     0
 40
0.0
  0
ENDTAB
  0
TABLE
  2
LAYER
  5
2
100
AcDbSymbolTable
 70
2
  0
LAYER
  5
50
100
AcDbSymbolTableRecord
100
AcDbLayerTableRecord
  2
0
 70
0
  6
CONTINUOUS
  0
LAYER
  5
51
100
AcDbSymbolTableRecord
100
AcDbLayerTableRecord
  2
Layer_1
 70
0
  6
CONTINUOUS
  0
ENDTAB
  0
TABLE
  2
STYLE
  5
3
330
0
100
AcDbSymbolTable
 70
     1
  0
STYLE
  5
11
330
3
100
AcDbSymbolTableRecord
100
AcDbTextStyleTableRecord
  2
STANDARD
 70
     0
 40
0.0
 41
1.0
 50
0.0
 71
     0
 42
2.5
  3
txt
  4

  0
ENDTAB
  0
TABLE
  2
VIEW
  5
6
330
0
100
AcDbSymbolTable
 70
     0
  0
ENDTAB
  0
TABLE
  2
UCS
  5
7
330
0
100
AcDbSymbolTable
 70
     0
  0
ENDTAB
  0
TABLE
  2
APPID
  5
9
330
0
100
AcDbSymbolTable
 70
     2
  0
APPID
  5
12
330
9
100
AcDbSymbolTableRecord
100
AcDbRegAppTableRecord
  2
ACAD
 70
     0
  0
ENDTAB
  0
TABLE
  2
DIMSTYLE
  5
A
330
0
100
AcDbSymbolTable
 70
     1
  0
DIMSTYLE
105
27
330
A
100
AcDbSymbolTableRecord
100
AcDbDimStyleTableRecord
  2
ISO-25
 70
     0
  3

  4

  5

  6

  7

 40
1.0
 41
2.5
 42
0.625
 43
3.75
 44
1.25
 45
0.0
 46
0.0
 47
0.0
 48
0.0
140
2.5
141
2.5
142
0.0
143
0.03937007874016
144
1.0
145
0.0
146
1.0
147
0.625
 71
     0
 72
     0
 73
     0
 74
     0
 75
     0
 76
     0
 77
     1
 78
     8
170
     0
171
     3
172
     1
173
     0
174
     0
175
     0
176
     0
177
     0
178
     0
270
     2
271
     2
272
     2
273
     2
274
     3
340
11
275
     0
280
     0
281
     0
282
     0
283
     0
284
     8
285
     0
286
     0
287
     3
288
     0
  0
ENDTAB
  0
TABLE
  2
BLOCK_RECORD
  5
1
330
0
100
AcDbSymbolTable
 70
     1
  0
BLOCK_RECORD
  5
1F
330
1
100
AcDbSymbolTableRecord
100
AcDbBlockTableRecord
  2
*MODEL_SPACE
  0
BLOCK_RECORD
  5
1B
330
1
100
AcDbSymbolTableRecord
100
AcDbBlockTableRecord
  2
*PAPER_SPACE
  0
ENDTAB
  0
ENDSEC
  0
SECTION
  2
BLOCKS
  0
BLOCK
  5
20
330
1F
100
AcDbEntity
  8
0
100
AcDbBlockBegin
  2
*MODEL_SPACE
 70
     0
 10
0.0
 20
0.0
 30
0.0
  3
*MODEL_SPACE
  1

  0
ENDBLK
  5
21
330
1F
100
AcDbEntity
  8
0
100
AcDbBlockEnd
  0
BLOCK
  5
1C
330
1B
100
AcDbEntity
 67
     1
  8
0
100
AcDbBlockBegin
  2
*PAPER_SPACE
  1

  0
ENDBLK
  5
1D
330
1B
100
AcDbEntity
 67
     1
  8
0
100
AcDbBlockEnd
  0
ENDSEC
  0
SECTION
  2
ENTITIES
  0
SPLINE
  5
100
100
AcDbEntity
  8
Layer_1
 62
7
100
AcDbSpline
 70
8
 71
3
 72
8
 73
4
 74
0
 40
0
 40
0
 40
0
 40
0
 40
1
 40
1
 40
1
 40
1
 10
133.024604
 20
200.748418
 30
0.0
 10
133.024604
 20
199.864763
 30
0.0
 10
132.308260
 20
199.148418
 30
0.0
 10
131.424605
 20
199.148418
 30
0.0
  0
SPLINE
  5
101
100
AcDbEntity
  8
Layer_1
 62
7
100
AcDbSpline
 70
8
 71
3
 72
8
 73
4
 74
0
 40
0
 40
0
 40
0
 40
0
 40
1
 40
1
 40
1
 40
1
 10
131.424605
 20
199.148418
 30
0.0
 10
130.540949
 20
199.148418
 30
0.0
 10
129.824605
 20
199.864763
 30
0.0
 10
129.824605
 20
200.748418
 30
0.0
  0
SPLINE
  5
102
100
AcDbEntity
  8
Layer_1
 62
7
100
AcDbSpline
 70
8
 71
3
 72
8
 73
4
 74
0
 40
0
 40
0
 40
0
 40
0
 40
1
 40
1
 40
1
 40
1
 10
129.824605
 20
200.748418
 30
0.0
 10
129.824605
 20
201.632074
 30
0.0
 10
130.540949
 20
202.348418
 30
0.0
 10
131.424605
 20
202.348418
 30
0.0
  0
SPLINE
  5
103
100
AcDbEntity
  8
Layer_1
 62
7
100
AcDbSpline
 70
8
 71
3
 72
8
 73
4
 74
0
 40
0
 40
0
 40
0
 40
0
 40
1
 40
1
 40
1
 40
1
 10
131.424605
 20
202.348418
 30
0.0
 10
132.308260
 20
202.348418
 30
0.0
 10
133.024604
 20
201.632074
 30
0.0
 10
133.024604
 20
200.748418
 30
0.0
  0
LWPOLYLINE
  5
104
100
AcDbEntity
  8
Layer_1
 62
7
100
AcDbPolyline
 90
5
 70
0
 10
123.924605
 20
203.748418
 30
0.0
 10
174.424603
 20
203.748418
 30
0.0
 10
174.424603
 20
75.248422
 30
0.0
 10
123.924605
 20
75.248422
 30
0.0
 10
123.924605
 20
203.748418
 30
0.0
  0
SPLINE
  5
105
100
AcDbEntity
  8
Layer_1
 62
7
100
AcDbSpline
 70
8
 71
3
 72
8
 73
4
 74
0
 40
0
 40
0
 40
0
 40
0
 40
1
 40
1
 40
1
 40
1
 10
133.024604
 20
78.248421
 30
0.0
 10
133.024604
 20
77.364761
 30
0.0
 10
132.308260
 20
76.648421
 30
0.0
 10
131.424605
 20
76.648421
 30
0.0
  0
SPLINE
  5
106
100
AcDbEntity
  8
Layer_1
 62
7
100
AcDbSpline
 70
8
 71
3
 72
8
 73
4
 74
0
 40
0
 40
0
 40
0
 40
0
 40
1
 40
1
 40
1
 40
1
 10
131.424605
 20
76.648421
 30
0.0
 10
130.540949
 20
76.648421
 30
0.0
 10
129.824605
 20
77.364761
 30
0.0
 10
129.824605
 20
78.248421
 30
0.0
  0
SPLINE
  5
107
100
AcDbEntity
  8
Layer_1
 62
7
100
AcDbSpline
 70
8
 71
3
 72
8
 73
4
 74
0
 40
0
 40
0
 40
0
 40
0
 40
1
 40
1
 40
1
 40
1
 10
129.824605
 20
78.248421
 30
0.0
 10
129.824605
 20
79.132081
 30
0.0
 10
130.540949
 20
79.848421
 30
0.0
 10
131.424605
 20
79.848421
 30
0.0
  0
SPLINE
  5
108
100
AcDbEntity
  8
Layer_1
 62
7
100
AcDbSpline
 70
8
 71
3
 72
8
 73
4
 74
0
 40
0
 40
0
 40
0
 40
0
 40
1
 40
1
 40
1
 40
1
 10
131.424605
 20
79.848421
 30
0.0
 10
132.308260
 20
79.848421
 30
0.0
 10
133.024604
 20
79.132081
 30
0.0
 10
133.024604
 20
78.248421
 30
0.0
  0
LWPOLYLINE
  5
109
100
AcDbEntity
  8
Layer_1
 62
7
100
AcDbPolyline
 90
2
 70
0
 10
133.024604
 20
200.748418
 30
0.0
 10
133.024604
 20
200.748418
 30
0.0
  0
SPLINE
  5
10a
100
AcDbEntity
  8
Layer_1
 62
7
100
AcDbSpline
 70
8
 71
3
 72
8
 73
4
 74
0
 40
0
 40
0
 40
0
 40
0
 40
1
 40
1
 40
1
 40
1
 10
168.584605
 20
200.748418
 30
0.0
 10
168.584605
 20
199.864763
 30
0.0
 10
167.868261
 20
199.148418
 30
0.0
 10
166.984605
 20
199.148418
 30
0.0
  0
SPLINE
  5
10b
100
AcDbEntity
  8
Layer_1
 62
7
100
AcDbSpline
 70
8
 71
3
 72
8
 73
4
 74
0
 40
0
 40
0
 40
0
 40
0
 40
1
 40
1
 40
1
 40
1
 10
166.984605
 20
199.148418
 30
0.0
 10
166.100950
 20
199.148418
 30
0.0
 10
165.384605
 20
199.864763
 30
0.0
 10
165.384605
 20
200.748418
 30
0.0
  0
SPLINE
  5
10c
100
AcDbEntity
  8
Layer_1
 62
7
100
AcDbSpline
 70
8
 71
3
 72
8
 73
4
 74
0
 40
0
 40
0
 40
0
 40
0
 40
1
 40
1
 40
1
 40
1
 10
165.384605
 20
200.748418
 30
0.0
 10
165.384605
 20
201.632074
 30
0.0
 10
166.100950
 20
202.348418
 30
0.0
 10
166.984605
 20
202.348418
 30
0.0
  0
SPLINE
  5
10d
100
AcDbEntity
  8
Layer_1
 62
7
100
AcDbSpline
 70
8
 71
3
 72
8
 73
4
 74
0
 40
0
 40
0
 40
0
 40
0
 40
1
 40
1
 40
1
 40
1
 10
166.984605
 20
202.348418
 30
0.0
 10
167.868261
 20
202.348418
 30
0.0
 10
168.584605
 20
201.632074
 30
0.0
 10
168.584605
 20
200.748418
 30
0.0
  0
LWPOLYLINE
  5
10e
100
AcDbEntity
  8
Layer_1
 62
7
100
AcDbPolyline
 90
2
 70
0
 10
133.024604
 20
78.248421
 30
0.0
 10
133.024604
 20
78.248421
 30
0.0
  0
SPLINE
  5
10f
100
AcDbEntity
  8
Layer_1
 62
7
100
AcDbSpline
 70
8
 71
3
 72
8
 73
4
 74
0
 40
0
 40
0
 40
0
 40
0
 40
1
 40
1
 40
1
 40
1
 10
168.584605
 20
78.248421
 30
0.0
 10
168.584605
 20
77.364761
 30
0.0
 10
167.868261
 20
76.648421
 30
0.0
 10
166.984605
 20
76.648421
 30
0.0
  0
SPLINE
  5
110
100
AcDbEntity
  8
Layer_1
 62
7
100
AcDbSpline
 70
8
 71
3
 72
8
 73
4
 74
0
 40
0
 40
0
 40
0
 40
0
 40
1
 40
1
 40
1
 40
1
 10
166.984605
 20
76.648421
 30
0.0
 10
166.100950
 20
76.648421
 30
0.0
 10
165.384605
 20
77.364761
 30
0.0
 10
165.384605
 20
78.248421
 30
0.0
  0
SPLINE
  5
111
100
AcDbEntity
  8
Layer_1
 62
7
100
AcDbSpline
 70
8
 71
3
 72
8
 73
4
 74
0
 40
0
 40
0
 40
0
 40
0
 40
1
 40
1
 40
1
 40
1
 10
165.384605
 20
78.248421
 30
0.0
 10
165.384605
 20
79.132081
 30
0.0
 10
166.100950
 20
79.848421
 30
0.0
 10
166.984605
 20
79.848421
 30
0.0
  0
SPLINE
  5
112
100
AcDbEntity
  8
Layer_1
 62
7
100
AcDbSpline
 70
8
 71
3
 72
8
 73
4
 74
0
 40
0
 40
0
 40
0
 40
0
 40
1
 40
1
 40
1
 40
1
 10
166.984605
 20
79.848421
 30
0.0
 10
167.868261
 20
79.848421
 30
0.0
 10
168.584605
 20
79.132081
 30
0.0
 10
168.584605
 20
78.248421
 30
0.0
  0
LWPOLYLINE
  5
113
100
AcDbEntity
  8
Layer_1
 62
7
100
AcDbPolyline
 90
2
 70
0
 10
168.584605
 20
200.748418
 30
0.0
 10
168.584605
 20
200.748418
 30
0.0
  0
SPLINE
  5
114
100
AcDbEntity
  8
Layer_1
 62
7
100
AcDbSpline
 70
8
 71
3
 72
8
 73
4
 74
0
 40
0
 40
0
 40
0
 40
0
 40
1
 40
1
 40
1
 40
1
 10
136.474604
 20
144.248420
 30
0.0
 10
133.852586
 20
144.248420
 30
0.0
 10
131.719907
 20
142.125056
 30
0.0
 10
131.719907
 20
139.503052
 30
0.0
  0
SPLINE
  5
115
100
AcDbEntity
  8
Layer_1
 62
7
100
AcDbSpline
 70
8
 71
3
 72
8
 73
4
 74
0
 40
0
 40
0
 40
0
 40
0
 40
1
 40
1
 40
1
 40
1
 10
131.719907
 20
139.503052
 30
0.0
 10
131.719907
 20
137.359256
 30
0.0
 10
133.146102
 20
135.542701
 30
0.0
 10
135.097508
 20
134.953072
 30
0.0
  0
LWPOLYLINE
  5
116
100
AcDbEntity
  8
Layer_1
 62
7
100
AcDbPolyline
 90
2
 70
0
 10
168.584605
 20
78.248421
 30
0.0
 10
168.584605
 20
78.248421
 30
0.0
  0
SPLINE
  5
117
100
AcDbEntity
  8
Layer_1
 62
7
100
AcDbSpline
 70
8
 71
3
 72
8
 73
4
 74
0
 40
0
 40
0
 40
0
 40
0
 40
1
 40
1
 40
1
 40
1
 10
137.740044
 20
134.925160
 30
0.0
 10
139.743528
 20
135.481740
 30
0.0
 10
141.220000
 20
137.322227
 30
0.0
 10
141.220000
 20
139.503052
 30
0.0
  0
SPLINE
  5
118
100
AcDbEntity
  8
Layer_1
 62
7
100
AcDbSpline
 70
8
 71
3
 72
8
 73
4
 74
0
 40
0
 40
0
 40
0
 40
0
 40
1
 40
1
 40
1
 40
1
 10
141.220000
 20
139.503052
 30
0.0
 10
141.220000
 20
142.125056
 30
0.0
 10
139.096631
 20
144.248420
 30
0.0
 10
136.474604
 20
144.248420
 30
0.0
  0
LWPOLYLINE
  5
119
100
AcDbEntity
  8
Layer_1
 62
7
100
AcDbPolyline
 90
4
 70
0
 10
135.097508
 20
134.953072
 30
0.0
 10
135.097508
 20
132.273326
 30
0.0
 10
137.740044
 20
132.273326
 30
0.0
 10
137.740044
 20
134.925160
 30
0.0
  0
SPLINE
  5
11a
100
AcDbEntity
  8
Layer_1
 62
7
100
AcDbSpline
 70
8
 71
3
 72
8
 73
4
 74
0
 40
0
 40
0
 40
0
 40
0
 40
1
 40
1
 40
1
 40
1
 10
161.874604
 20
144.248420
 30
0.0
 10
159.252585
 20
144.248420
 30
0.0
 10
157.119907
 20
142.125056
 30
0.0
 10
157.119907
 20
139.503052
 30
0.0
  0
SPLINE
  5
11b
100
AcDbEntity
  8
Layer_1
 62
7
100
AcDbSpline
 70
8
 71
3
 72
8
 73
4
 74
0
 40
0
 40
0
 40
0
 40
0
 40
1
 40
1
 40
1
 40
1
 10
157.119907
 20
139.503052
 30
0.0
 10
157.119907
 20
137.359256
 30
0.0
 10
158.546102
 20
135.542701
 30
0.0
 10
160.497508
 20
134.953072
 30
0.0
  0
LWPOLYLINE
  5
11c
100
AcDbEntity
  8
Layer_1
 62
7
100
AcDbPolyline
 90
2
 70
0
 10
136.474604
 20
144.248420
 30
0.0
 10
136.474604
 20
144.248420
 30
0.0
  0
SPLINE
  5
11d
100
AcDbEntity
  8
Layer_1
 62
7
100
AcDbSpline
 70
8
 71
3
 72
8
 73
4
 74
0
 40
0
 40
0
 40
0
 40
0
 40
1
 40
1
 40
1
 40
1
 10
163.140044
 20
134.925160
 30
0.0
 10
165.143528
 20
135.481740
 30
0.0
 10
166.620000
 20
137.322227
 30
0.0
 10
166.620000
 20
139.503052
 30
0.0
  0
SPLINE
  5
11e
100
AcDbEntity
  8
Layer_1
 62
7
100
AcDbSpline
 70
8
 71
3
 72
8
 73
4
 74
0
 40
0
 40
0
 40
0
 40
0
 40
1
 40
1
 40
1
 40
1
 10
166.620000
 20
139.503052
 30
0.0
 10
166.620000
 20
142.125056
 30
0.0
 10
164.496631
 20
144.248420
 30
0.0
 10
161.874604
 20
144.248420
 30
0.0
  0
LWPOLYLINE
  5
11f
100
AcDbEntity
  8
Layer_1
 62
7
100
AcDbPolyline
 90
4
 70
0
 10
160.497508
 20
134.953072
 30
0.0
 10
160.497508
 20
132.273326
 30
0.0
 10
163.140044
 20
132.273326
 30
0.0
 10
163.140044
 20
134.925160
 30
0.0
  0
SPLINE
  5
120
100
AcDbEntity
  8
Layer_1
 62
7
100
AcDbSpline
 70
8
 71
3
 72
8
 73
4
 74
0
 40
0
 40
0
 40
0
 40
0
 40
1
 40
1
 40
1
 40
1
 10
136.474604
 20
163.298419
 30
0.0
 10
133.852586
 20
163.298419
 30
0.0
 10
131.719907
 20
161.175055
 30
0.0
 10
131.719907
 20
158.553051
 30
0.0
  0
SPLINE
  5
121
100
AcDbEntity
  8
Layer_1
 62
7
100
AcDbSpline
 70
8
 71
3
 72
8
 73
4
 74
0
 40
0
 40
0
 40
0
 40
0
 40
1
 40
1
 40
1
 40
1
 10
131.719907
 20
158.553051
 30
0.0
 10
131.719907
 20
156.409256
 30
0.0
 10
133.146102
 20
154.592701
 30
0.0
 10
135.097508
 20
154.003072
 30
0.0
  0
LWPOLYLINE
  5
122
100
AcDbEntity
  8
Layer_1
 62
7
100
AcDbPolyline
 90
2
 70
0
 10
161.874604
 20
144.248420
 30
0.0
 10
161.874604
 20
144.248420
 30
0.0
  0
SPLINE
  5
123
100
AcDbEntity
  8
Layer_1
 62
7
100
AcDbSpline
 70
8
 71
3
 72
8
 73
4
 74
0
 40
0
 40
0
 40
0
 40
0
 40
1
 40
1
 40
1
 40
1
 10
137.740044
 20
153.975160
 30
0.0
 10
139.743528
 20
154.531740
 30
0.0
 10
141.220000
 20
156.372227
 30
0.0
 10
141.220000
 20
158.553051
 30
0.0
  0
SPLINE
  5
124
100
AcDbEntity
  8
Layer_1
 62
7
100
AcDbSpline
 70
8
 71
3
 72
8
 73
4
 74
0
 40
0
 40
0
 40
0
 40
0
 40
1
 40
1
 40
1
 40
1
 10
141.220000
 20
158.553051
 30
0.0
 10
141.220000
 20
161.175055
 30
0.0
 10
139.096631
 20
163.298419
 30
0.0
 10
136.474604
 20
163.298419
 30
0.0
  0
LWPOLYLINE
  5
125
100
AcDbEntity
  8
Layer_1
 62
7
100
AcDbPolyline
 90
4
 70
0
 10
135.097508
 20
154.003072
 30
0.0
 10
135.097508
 20
151.323326
 30
0.0
 10
137.740044
 20
151.323326
 30
0.0
 10
137.740044
 20
153.975160
 30
0.0
  0
SPLINE
  5
126
100
AcDbEntity
  8
Layer_1
 62
7
100
AcDbSpline
 70
8
 71
3
 72
8
 73
4
 74
0
 40
0
 40
0
 40
0
 40
0
 40
1
 40
1
 40
1
 40
1
 10
161.874604
 20
163.298419
 30
0.0
 10
159.252585
 20
163.298419
 30
0.0
 10
157.119907
 20
161.175055
 30
0.0
 10
157.119907
 20
158.553051
 30
0.0
  0
SPLINE
  5
127
100
AcDbEntity
  8
Layer_1
 62
7
100
AcDbSpline
 70
8
 71
3
 72
8
 73
4
 74
0
 40
0
 40
0
 40
0
 40
0
 40
1
 40
1
 40
1
 40
1
 10
157.119907
 20
158.553051
 30
0.0
 10
157.119907
 20
156.409256
 30
0.0
 10
158.546102
 20
154.592701
 30
0.0
 10
160.497508
 20
154.003072
 30
0.0
  0
LWPOLYLINE
  5
128
100
AcDbEntity
  8
Layer_1
 62
7
100
AcDbPolyline
 90
2
 70
0
 10
136.474604
 20
163.298419
 30
0.0
 10
136.474604
 20
163.298419
 30
0.0
  0
SPLINE
  5
129
100
AcDbEntity
  8
Layer_1
 62
7
100
AcDbSpline
 70
8
 71
3
 72
8
 73
4
 74
0
 40
0
 40
0
 40
0
 40
0
 40
1
 40
1
 40
1
 40
1
 10
163.140044
 20
153.975160
 30
0.0
 10
165.143528
 20
154.531740
 30
0.0
 10
166.620000
 20
156.372227
 30
0.0
 10
166.620000
 20
158.553051
 30
0.0
  0
SPLINE
  5
12a
100
AcDbEntity
  8
Layer_1
 62
7
100
AcDbSpline
 70
8
 71
3
 72
8
 73
4
 74
0
 40
0
 40
0
 40
0
 40
0
 40
1
 40
1
 40
1
 40
1
 10
166.620000
 20
158.553051
 30
0.0
 10
166.620000
 20
161.175055
 30
0.0
 10
164.496631
 20
163.298419
 30
0.0
 10
161.874604
 20
163.298419
 30
0.0
  0
LWPOLYLINE
  5
12b
100
AcDbEntity
  8
Layer_1
 62
7
100
AcDbPolyline
 90
4
 70
0
 10
160.497508
 20
154.003072
 30
0.0
 10
160.497508
 20
151.323326
 30
0.0
 10
163.140044
 20
151.323326
 30
0.0
 10
163.140044
 20
153.975160
 30
0.0
  0
SPLINE
  5
12c
100
AcDbEntity
  8
Layer_1
 62
7
100
AcDbSpline
 70
8
 71
3
 72
8
 73
4
 74
0
 40
0
 40
0
 40
0
 40
0
 40
1
 40
1
 40
1
 40
1
 10
136.474604
 20
182.348419
 30
0.0
 10
133.852586
 20
182.348419
 30
0.0
 10
131.719907
 20
180.225055
 30
0.0
 10
131.719907
 20
177.603051
 30
0.0
  0
SPLINE
  5
12d
100
AcDbEntity
  8
Layer_1
 62
7
100
AcDbSpline
 70
8
 71
3
 72
8
 73
4
 74
0
 40
0
 40
0
 40
0
 40
0
 40
1
 40
1
 40
1
 40
1
 10
131.719907
 20
177.603051
 30
0.0
 10
131.719907
 20
175.459255
 30
0.0
 10
133.146102
 20
173.642700
 30
0.0
 10
135.097508
 20
173.053071
 30
0.0
  0
LWPOLYLINE
  5
12e
100
AcDbEntity
  8
Layer_1
 62
7
100
AcDbPolyline
 90
2
 70
0
 10
161.874604
 20
163.298419
 30
0.0
 10
161.874604
 20
163.298419
 30
0.0
  0
SPLINE
  5
12f
100
AcDbEntity
  8
Layer_1
 62
7
100
AcDbSpline
 70
8
 71
3
 72
8
 73
4
 74
0
 40
0
 40
0
 40
0
 40
0
 40
1
 40
1
 40
1
 40
1
 10
137.740044
 20
173.025159
 30
0.0
 10
139.743528
 20
173.581739
 30
0.0
 10
141.220000
 20
175.422226
 30
0.0
 10
141.220000
 20
177.603051
 30
0.0
  0
SPLINE
  5
130
100
AcDbEntity
  8
Layer_1
 62
7
100
AcDbSpline
 70
8
 71
3
 72
8
 73
4
 74
0
 40
0
 40
0
 40
0
 40
0
 40
1
 40
1
 40
1
 40
1
 10
141.220000
 20
177.603051
 30
0.0
 10
141.220000
 20
180.225055
 30
0.0
 10
139.096631
 20
182.348419
 30
0.0
 10
136.474604
 20
182.348419
 30
0.0
  0
LWPOLYLINE
  5
131
100
AcDbEntity
  8
Layer_1
 62
7
100
AcDbPolyline
 90
4
 70
0
 10
135.097508
 20
173.053071
 30
0.0
 10
135.097508
 20
170.373325
 30
0.0
 10
137.740044
 20
170.373325
 30
0.0
 10
137.740044
 20
173.025159
 30
0.0
  0
SPLINE
  5
132
100
AcDbEntity
  8
Layer_1
 62
7
100
AcDbSpline
 70
8
 71
3
 72
8
 73
4
 74
0
 40
0
 40
0
 40
0
 40
0
 40
1
 40
1
 40
1
 40
1
 10
161.874604
 20
182.348419
 30
0.0
 10
159.252585
 20
182.348419
 30
0.0
 10
157.119907
 20
180.225055
 30
0.0
 10
157.119907
 20
177.603051
 30
0.0
  0
SPLINE
  5
133
100
AcDbEntity
  8
Layer_1
 62
7
100
AcDbSpline
 70
8
 71
3
 72
8
 73
4
 74
0
 40
0
 40
0
 40
0
 40
0
 40
1
 40
1
 40
1
 40
1
 10
157.119907
 20
177.603051
 30
0.0
 10
157.119907
 20
175.459255
 30
0.0
 10
158.546102
 20
173.642700
 30
0.0
 10
160.497508
 20
173.053071
 30
0.0
  0
LWPOLYLINE
  5
134
100
AcDbEntity
  8
Layer_1
 62
7
100
AcDbPolyline
 90
2
 70
0
 10
136.474604
 20
182.348419
 30
0.0
 10
136.474604
 20
182.348419
 30
0.0
  0
SPLINE
  5
135
100
AcDbEntity
  8
Layer_1
 62
7
100
AcDbSpline
 70
8
 71
3
 72
8
 73
4
 74
0
 40
0
 40
0
 40
0
 40
0
 40
1
 40
1
 40
1
 40
1
 10
163.140044
 20
173.025159
 30
0.0
 10
165.143528
 20
173.581739
 30
0.0
 10
166.620000
 20
175.422226
 30
0.0
 10
166.620000
 20
177.603051
 30
0.0
  0
SPLINE
  5
136
100
AcDbEntity
  8
Layer_1
 62
7
100
AcDbSpline
 70
8
 71
3
 72
8
 73
4
 74
0
 40
0
 40
0
 40
0
 40
0
 40
1
 40
1
 40
1
 40
1
 10
166.620000
 20
177.603051
 30
0.0
 10
166.620000
 20
180.225055
 30
0.0
 10
164.496631
 20
182.348419
 30
0.0
 10
161.874604
 20
182.348419
 30
0.0
  0
LWPOLYLINE
  5
137
100
AcDbEntity
  8
Layer_1
 62
7
100
AcDbPolyline
 90
4
 70
0
 10
160.497508
 20
173.053071
 30
0.0
 10
160.497508
 20
170.373325
 30
0.0
 10
163.140044
 20
170.373325
 30
0.0
 10
163.140044
 20
173.025159
 30
0.0
  0
SPLINE
  5
138
100
AcDbEntity
  8
Layer_1
 62
7
100
AcDbSpline
 70
8
 71
3
 72
8
 73
4
 74
0
 40
0
 40
0
 40
0
 40
0
 40
1
 40
1
 40
1
 40
1
 10
150.674604
 20
133.148422
 30
0.0
 10
150.674604
 20
132.319994
 30
0.0
 10
150.003031
 20
131.648422
 30
0.0
 10
149.174604
 20
131.648422
 30
0.0
  0
SPLINE
  5
139
100
AcDbEntity
  8
Layer_1
 62
7
100
AcDbSpline
 70
8
 71
3
 72
8
 73
4
 74
0
 40
0
 40
0
 40
0
 40
0
 40
1
 40
1
 40
1
 40
1
 10
149.174604
 20
131.648422
 30
0.0
 10
148.346177
 20
131.648422
 30
0.0
 10
147.674604
 20
132.319994
 30
0.0
 10
147.674604
 20
133.148422
 30
0.0
  0
SPLINE
  5
13a
100
AcDbEntity
  8
Layer_1
 62
7
100
AcDbSpline
 70
8
 71
3
 72
8
 73
4
 74
0
 40
0
 40
0
 40
0
 40
0
 40
1
 40
1
 40
1
 40
1
 10
147.674604
 20
133.148422
 30
0.0
 10
147.674604
 20
133.976849
 30
0.0
 10
148.346177
 20
134.648422
 30
0.0
 10
149.174604
 20
134.648422
 30
0.0
  0
SPLINE
  5
13b
100
AcDbEntity
  8
Layer_1
 62
7
100
AcDbSpline
 70
8
 71
3
 72
8
 73
4
 74
0
 40
0
 40
0
 40
0
 40
0
 40
1
 40
1
 40
1
 40
1
 10
149.174604
 20
134.648422
 30
0.0
 10
150.003031
 20
134.648422
 30
0.0
 10
150.674604
 20
133.976849
 30
0.0
 10
150.674604
 20
133.148422
 30
0.0
  0
LWPOLYLINE
  5
13c
100
AcDbEntity
  8
Layer_1
 62
7
100
AcDbPolyline
 90
2
 70
0
 10
161.874604
 20
182.348419
 30
0.0
 10
161.874604
 20
182.348419
 30
0.0
  0
SPLINE
  5
13d
100
AcDbEntity
  8
Layer_1
 62
7
100
AcDbSpline
 70
8
 71
3
 72
8
 73
4
 74
0
 40
0
 40
0
 40
0
 40
0
 40
1
 40
1
 40
1
 40
1
 10
137.974604
 20
120.448417
 30
0.0
 10
137.974604
 20
119.619990
 30
0.0
 10
137.303031
 20
118.948417
 30
0.0
 10
136.474604
 20
118.948417
 30
0.0
  0
SPLINE
  5
13e
100
AcDbEntity
  8
Layer_1
 62
7
100
AcDbSpline
 70
8
 71
3
 72
8
 73
4
 74
0
 40
0
 40
0
 40
0
 40
0
 40
1
 40
1
 40
1
 40
1
 10
136.474604
 20
118.948417
 30
0.0
 10
135.646177
 20
118.948417
 30
0.0
 10
134.974604
 20
119.619990
 30
0.0
 10
134.974604
 20
120.448417
 30
0.0
  0
SPLINE
  5
13f
100
AcDbEntity
  8
Layer_1
 62
7
100
AcDbSpline
 70
8
 71
3
 72
8
 73
4
 74
0
 40
0
 40
0
 40
0
 40
0
 40
1
 40
1
 40
1
 40
1
 10
134.974604
 20
120.448417
 30
0.0
 10
134.974604
 20
121.276844
 30
0.0
 10
135.646177
 20
121.948417
 30
0.0
 10
136.474604
 20
121.948417
 30
0.0
  0
SPLINE
  5
140
100
AcDbEntity
  8
Layer_1
 62
7
100
AcDbSpline
 70
8
 71
3
 72
8
 73
4
 74
0
 40
0
 40
0
 40
0
 40
0
 40
1
 40
1
 40
1
 40
1
 10
136.474604
 20
121.948417
 30
0.0
 10
137.303031
 20
121.948417
 30
0.0
 10
137.974604
 20
121.276844
 30
0.0
 10
137.974604
 20
120.448417
 30
0.0
  0
LWPOLYLINE
  5
141
100
AcDbEntity
  8
Layer_1
 62
7
100
AcDbPolyline
 90
2
 70
0
 10
150.674604
 20
133.148422
 30
0.0
 10
150.674604
 20
133.148422
 30
0.0
  0
SPLINE
  5
142
100
AcDbEntity
  8
Layer_1
 62
7
100
AcDbSpline
 70
8
 71
3
 72
8
 73
4
 74
0
 40
0
 40
0
 40
0
 40
0
 40
1
 40
1
 40
1
 40
1
 10
163.374605
 20
120.448417
 30
0.0
 10
163.374605
 20
119.619990
 30
0.0
 10
162.703032
 20
118.948417
 30
0.0
 10
161.874605
 20
118.948417
 30
0.0
  0
SPLINE
  5
143
100
AcDbEntity
  8
Layer_1
 62
7
100
AcDbSpline
 70
8
 71
3
 72
8
 73
4
 74
0
 40
0
 40
0
 40
0
 40
0
 40
1
 40
1
 40
1
 40
1
 10
161.874605
 20
118.948417
 30
0.0
 10
161.046178
 20
118.948417
 30
0.0
 10
160.374605
 20
119.619990
 30
0.0
 10
160.374605
 20
120.448417
 30
0.0
  0
SPLINE
  5
144
100
AcDbEntity
  8
Layer_1
 62
7
100
AcDbSpline
 70
8
 71
3
 72
8
 73
4
 74
0
 40
0
 40
0
 40
0
 40
0
 40
1
 40
1
 40
1
 40
1
 10
160.374605
 20
120.448417
 30
0.0
 10
160.374605
 20
121.276844
 30
0.0
 10
161.046178
 20
121.948417
 30
0.0
 10
161.874605
 20
121.948417
 30
0.0
  0
SPLINE
  5
145
100
AcDbEntity
  8
Layer_1
 62
7
100
AcDbSpline
 70
8
 71
3
 72
8
 73
4
 74
0
 40
0
 40
0
 40
0
 40
0
 40
1
 40
1
 40
1
 40
1
 10
161.874605
 20
121.948417
 30
0.0
 10
162.703032
 20
121.948417
 30
0.0
 10
163.374605
 20
121.276844
 30
0.0
 10
163.374605
 20
120.448417
 30
0.0
  0
LWPOLYLINE
  5
146
100
AcDbEntity
  8
Layer_1
 62
7
100
AcDbPolyline
 90
2
 70
0
 10
137.974604
 20
120.448417
 30
0.0
 10
137.974604
 20
120.448417
 30
0.0
  0
SPLINE
  5
147
100
AcDbEntity
  8
Layer_1
 62
7
100
AcDbSpline
 70
8
 71
3
 72
8
 73
4
 74
0
 40
0
 40
0
 40
0
 40
0
 40
1
 40
1
 40
1
 40
1
 10
152.424604
 20
120.448417
 30
0.0
 10
152.424604
 20
118.653492
 30
0.0
 10
150.969529
 20
117.198417
 30
0.0
 10
149.174604
 20
117.198417
 30
0.0
  0
SPLINE
  5
148
100
AcDbEntity
  8
Layer_1
 62
7
100
AcDbSpline
 70
8
 71
3
 72
8
 73
4
 74
0
 40
0
 40
0
 40
0
 40
0
 40
1
 40
1
 40
1
 40
1
 10
149.174604
 20
117.198417
 30
0.0
 10
147.379679
 20
117.198417
 30
0.0
 10
145.924604
 20
118.653492
 30
0.0
 10
145.924604
 20
120.448417
 30
0.0
  0
SPLINE
  5
149
100
AcDbEntity
  8
Layer_1
 62
7
100
AcDbSpline
 70
8
 71
3
 72
8
 73
4
 74
0
 40
0
 40
0
 40
0
 40
0
 40
1
 40
1
 40
1
 40
1
 10
145.924604
 20
120.448417
 30
0.0
 10
145.924604
 20
122.243342
 30
0.0
 10
147.379679
 20
123.698417
 30
0.0
 10
149.174604
 20
123.698417
 30
0.0
  0
SPLINE
  5
14a
100
AcDbEntity
  8
Layer_1
 62
7
100
AcDbSpline
 70
8
 71
3
 72
8
 73
4
 74
0
 40
0
 40
0
 40
0
 40
0
 40
1
 40
1
 40
1
 40
1
 10
149.174604
 20
123.698417
 30
0.0
 10
150.969529
 20
123.698417
 30
0.0
 10
152.424604
 20
122.243342
 30
0.0
 10
152.424604
 20
120.448417
 30
0.0
  0
LWPOLYLINE
  5
14b
100
AcDbEntity
  8
Layer_1
 62
7
100
AcDbPolyline
 90
2
 70
0
 10
163.374605
 20
120.448417
 30
0.0
 10
163.374605
 20
120.448417
 30
0.0
  0
SPLINE
  5
14c
100
AcDbEntity
  8
Layer_1
 62
7
100
AcDbSpline
 70
8
 71
3
 72
8
 73
4
 74
0
 40
0
 40
0
 40
0
 40
0
 40
1
 40
1
 40
1
 40
1
 10
139.724604
 20
107.748421
 30
0.0
 10
139.724604
 20
105.953496
 30
0.0
 10
138.269530
 20
104.498421
 30
0.0
 10
136.474604
 20
104.498421
 30
0.0
  0
SPLINE
  5
14d
100
AcDbEntity
  8
Layer_1
 62
7
100
AcDbSpline
 70
8
 71
3
 72
8
 73
4
 74
0
 40
0
 40
0
 40
0
 40
0
 40
1
 40
1
 40
1
 40
1
 10
136.474604
 20
104.498421
 30
0.0
 10
134.679679
 20
104.498421
 30
0.0
 10
133.224605
 20
105.953496
 30
0.0
 10
133.224605
 20
107.748421
 30
0.0
  0
SPLINE
  5
14e
100
AcDbEntity
  8
Layer_1
 62
7
100
AcDbSpline
 70
8
 71
3
 72
8
 73
4
 74
0
 40
0
 40
0
 40
0
 40
0
 40
1
 40
1
 40
1
 40
1
 10
133.224605
 20
107.748421
 30
0.0
 10
133.224605
 20
109.543346
 30
0.0
 10
134.679679
 20
110.998421
 30
0.0
 10
136.474604
 20
110.998421
 30
0.0
  0
SPLINE
  5
14f
100
AcDbEntity
  8
Layer_1
 62
7
100
AcDbSpline
 70
8
 71
3
 72
8
 73
4
 74
0
 40
0
 40
0
 40
0
 40
0
 40
1
 40
1
 40
1
 40
1
 10
136.474604
 20
110.998421
 30
0.0
 10
138.269530
 20
110.998421
 30
0.0
 10
139.724604
 20
109.543346
 30
0.0
 10
139.724604
 20
107.748421
 30
0.0
  0
LWPOLYLINE
  5
150
100
AcDbEntity
  8
Layer_1
 62
7
100
AcDbPolyline
 90
2
 70
0
 10
152.424604
 20
120.448417
 30
0.0
 10
152.424604
 20
120.448417
 30
0.0
  0
SPLINE
  5
151
100
AcDbEntity
  8
Layer_1
 62
7
100
AcDbSpline
 70
8
 71
3
 72
8
 73
4
 74
0
 40
0
 40
0
 40
0
 40
0
 40
1
 40
1
 40
1
 40
1
 10
165.124605
 20
107.748421
 30
0.0
 10
165.124605
 20
105.953496
 30
0.0
 10
163.669530
 20
104.498421
 30
0.0
 10
161.874605
 20
104.498421
 30
0.0
  0
SPLINE
  5
152
100
AcDbEntity
  8
Layer_1
 62
7
100
AcDbSpline
 70
8
 71
3
 72
8
 73
4
 74
0
 40
0
 40
0
 40
0
 40
0
 40
1
 40
1
 40
1
 40
1
 10
161.874605
 20
104.498421
 30
0.0
 10
160.079679
 20
104.498421
 30
0.0
 10
158.624605
 20
105.953496
 30
0.0
 10
158.624605
 20
107.748421
 30
0.0
  0
SPLINE
  5
153
100
AcDbEntity
  8
Layer_1
 62
7
100
AcDbSpline
 70
8
 71
3
 72
8
 73
4
 74
0
 40
0
 40
0
 40
0
 40
0
 40
1
 40
1
 40
1
 40
1
 10
158.624605
 20
107.748421
 30
0.0
 10
158.624605
 20
109.543346
 30
0.0
 10
160.079679
 20
110.998421
 30
0.0
 10
161.874605
 20
110.998421
 30
0.0
  0
SPLINE
  5
154
100
AcDbEntity
  8
Layer_1
 62
7
100
AcDbSpline
 70
8
 71
3
 72
8
 73
4
 74
0
 40
0
 40
0
 40
0
 40
0
 40
1
 40
1
 40
1
 40
1
 10
161.874605
 20
110.998421
 30
0.0
 10
163.669530
 20
110.998421
 30
0.0
 10
165.124605
 20
109.543346
 30
0.0
 10
165.124605
 20
107.748421
 30
0.0
  0
LWPOLYLINE
  5
155
100
AcDbEntity
  8
Layer_1
 62
7
100
AcDbPolyline
 90
2
 70
0
 10
139.724604
 20
107.748421
 30
0.0
 10
139.724604
 20
107.748421
 30
0.0
  0
SPLINE
  5
156
100
AcDbEntity
  8
Layer_1
 62
7
100
AcDbSpline
 70
8
 71
3
 72
8
 73
4
 74
0
 40
0
 40
0
 40
0
 40
0
 40
1
 40
1
 40
1
 40
1
 10
152.424604
 20
107.748421
 30
0.0
 10
152.424604
 20
105.953496
 30
0.0
 10
150.969529
 20
104.498421
 30
0.0
 10
149.174604
 20
104.498421
 30
0.0
  0
SPLINE
  5
157
100
AcDbEntity
  8
Layer_1
 62
7
100
AcDbSpline
 70
8
 71
3
 72
8
 73
4
 74
0
 40
0
 40
0
 40
0
 40
0
 40
1
 40
1
 40
1
 40
1
 10
149.174604
 20
104.498421
 30
0.0
 10
147.379679
 20
104.498421
 30
0.0
 10
145.924604
 20
105.953496
 30
0.0
 10
145.924604
 20
107.748421
 30
0.0
  0
SPLINE
  5
158
100
AcDbEntity
  8
Layer_1
 62
7
100
AcDbSpline
 70
8
 71
3
 72
8
 73
4
 74
0
 40
0
 40
0
 40
0
 40
0
 40
1
 40
1
 40
1
 40
1
 10
145.924604
 20
107.748421
 30
0.0
 10
145.924604
 20
109.543346
 30
0.0
 10
147.379679
 20
110.998421
 30
0.0
 10
149.174604
 20
110.998421
 30
0.0
  0
SPLINE
  5
159
100
AcDbEntity
  8
Layer_1
 62
7
100
AcDbSpline
 70
8
 71
3
 72
8
 73
4
 74
0
 40
0
 40
0
 40
0
 40
0
 40
1
 40
1
 40
1
 40
1
 10
149.174604
 20
110.998421
 30
0.0
 10
150.969529
 20
110.998421
 30
0.0
 10
152.424604
 20
109.543346
 30
0.0
 10
152.424604
 20
107.748421
 30
0.0
  0
LWPOLYLINE
  5
15a
100
AcDbEntity
  8
Layer_1
 62
7
100
AcDbPolyline
 90
2
 70
0
 10
165.124605
 20
107.748421
 30
0.0
 10
165.124605
 20
107.748421
 30
0.0
  0
SPLINE
  5
15b
100
AcDbEntity
  8
Layer_1
 62
7
100
AcDbSpline
 70
8
 71
3
 72
8
 73
4
 74
0
 40
0
 40
0
 40
0
 40
0
 40
1
 40
1
 40
1
 40
1
 10
146.074604
 20
95.048421
 30
0.0
 10
146.074604
 20
93.253501
 30
0.0
 10
144.619529
 20
91.798421
 30
0.0
 10
142.824604
 20
91.798421
 30
0.0
  0
SPLINE
  5
15c
100
AcDbEntity
  8
Layer_1
 62
7
100
AcDbSpline
 70
8
 71
3
 72
8
 73
4
 74
0
 40
0
 40
0
 40
0
 40
0
 40
1
 40
1
 40
1
 40
1
 10
142.824604
 20
91.798421
 30
0.0
 10
141.029678
 20
91.798421
 30
0.0
 10
139.574604
 20
93.253501
 30
0.0
 10
139.574604
 20
95.048421
 30
0.0
  0
SPLINE
  5
15d
100
AcDbEntity
  8
Layer_1
 62
7
100
AcDbSpline
 70
8
 71
3
 72
8
 73
4
 74
0
 40
0
 40
0
 40
0
 40
0
 40
1
 40
1
 40
1
 40
1
 10
139.574604
 20
95.048421
 30
0.0
 10
139.574604
 20
96.843351
 30
0.0
 10
141.029678
 20
98.298421
 30
0.0
 10
142.824604
 20
98.298421
 30
0.0
  0
SPLINE
  5
15e
100
AcDbEntity
  8
Layer_1
 62
7
100
AcDbSpline
 70
8
 71
3
 72
8
 73
4
 74
0
 40
0
 40
0
 40
0
 40
0
 40
1
 40
1
 40
1
 40
1
 10
142.824604
 20
98.298421
 30
0.0
 10
144.619529
 20
98.298421
 30
0.0
 10
146.074604
 20
96.843351
 30
0.0
 10
146.074604
 20
95.048421
 30
0.0
  0
LWPOLYLINE
  5
15f
100
AcDbEntity
  8
Layer_1
 62
7
100
AcDbPolyline
 90
2
 70
0
 10
152.424604
 20
107.748421
 30
0.0
 10
152.424604
 20
107.748421
 30
0.0
  0
SPLINE
  5
160
100
AcDbEntity
  8
Layer_1
 62
7
100
AcDbSpline
 70
8
 71
3
 72
8
 73
4
 74
0
 40
0
 40
0
 40
0
 40
0
 40
1
 40
1
 40
1
 40
1
 10
158.774604
 20
95.048421
 30
0.0
 10
158.774604
 20
93.253501
 30
0.0
 10
157.319530
 20
91.798421
 30
0.0
 10
155.524604
 20
91.798421
 30
0.0
  0
SPLINE
  5
161
100
AcDbEntity
  8
Layer_1
 62
7
100
AcDbSpline
 70
8
 71
3
 72
8
 73
4
 74
0
 40
0
 40
0
 40
0
 40
0
 40
1
 40
1
 40
1
 40
1
 10
155.524604
 20
91.798421
 30
0.0
 10
153.729679
 20
91.798421
 30
0.0
 10
152.274604
 20
93.253501
 30
0.0
 10
152.274604
 20
95.048421
 30
0.0
  0
SPLINE
  5
162
100
AcDbEntity
  8
Layer_1
 62
7
100
AcDbSpline
 70
8
 71
3
 72
8
 73
4
 74
0
 40
0
 40
0
 40
0
 40
0
 40
1
 40
1
 40
1
 40
1
 10
152.274604
 20
95.048421
 30
0.0
 10
152.274604
 20
96.843351
 30
0.0
 10
153.729679
 20
98.298421
 30
0.0
 10
155.524604
 20
98.298421
 30
0.0
  0
SPLINE
  5
163
100
AcDbEntity
  8
Layer_1
 62
7
100
AcDbSpline
 70
8
 71
3
 72
8
 73
4
 74
0
 40
0
 40
0
 40
0
 40
0
 40
1
 40
1
 40
1
 40
1
 10
155.524604
 20
98.298421
 30
0.0
 10
157.319530
 20
98.298421
 30
0.0
 10
158.774604
 20
96.843351
 30
0.0
 10
158.774604
 20
95.048421
 30
0.0
  0
LWPOLYLINE
  5
164
100
AcDbEntity
  8
Layer_1
 62
7
100
AcDbPolyline
 90
2
 70
0
 10
146.074604
 20
95.048421
 30
0.0
 10
146.074604
 20
95.048421
 30
0.0
  0
SPLINE
  5
165
100
AcDbEntity
  8
Layer_1
 62
7
100
AcDbSpline
 70
8
 71
3
 72
8
 73
4
 74
0
 40
0
 40
0
 40
0
 40
0
 40
1
 40
1
 40
1
 40
1
 10
133.374604
 20
95.048421
 30
0.0
 10
133.374604
 20
93.253501
 30
0.0
 10
131.919530
 20
91.798421
 30
0.0
 10
130.124604
 20
91.798421
 30
0.0
  0
SPLINE
  5
166
100
AcDbEntity
  8
Layer_1
 62
7
100
AcDbSpline
 70
8
 71
3
 72
8
 73
4
 74
0
 40
0
 40
0
 40
0
 40
0
 40
1
 40
1
 40
1
 40
1
 10
130.124604
 20
91.798421
 30
0.0
 10
128.329679
 20
91.798421
 30
0.0
 10
126.874604
 20
93.253501
 30
0.0
 10
126.874604
 20
95.048421
 30
0.0
  0
SPLINE
  5
167
100
AcDbEntity
  8
Layer_1
 62
7
100
AcDbSpline
 70
8
 71
3
 72
8
 73
4
 74
0
 40
0
 40
0
 40
0
 40
0
 40
1
 40
1
 40
1
 40
1
 10
126.874604
 20
95.048421
 30
0.0
 10
126.874604
 20
96.843351
 30
0.0
 10
128.329679
 20
98.298421
 30
0.0
 10
130.124604
 20
98.298421
 30
0.0
  0
SPLINE
  5
168
100
AcDbEntity
  8
Layer_1
 62
7
100
AcDbSpline
 70
8
 71
3
 72
8
 73
4
 74
0
 40
0
 40
0
 40
0
 40
0
 40
1
 40
1
 40
1
 40
1
 10
130.124604
 20
98.298421
 30
0.0
 10
131.919530
 20
98.298421
 30
0.0
 10
133.374604
 20
96.843351
 30
0.0
 10
133.374604
 20
95.048421
 30
0.0
  0
LWPOLYLINE
  5
169
100
AcDbEntity
  8
Layer_1
 62
7
100
AcDbPolyline
 90
2
 70
0
 10
158.774604
 20
95.048421
 30
0.0
 10
158.774604
 20
95.048421
 30
0.0
  0
SPLINE
  5
16a
100
AcDbEntity
  8
Layer_1
 62
7
100
AcDbSpline
 70
8
 71
3
 72
8
 73
4
 74
0
 40
0
 40
0
 40
0
 40
0
 40
1
 40
1
 40
1
 40
1
 10
171.474603
 20
95.048421
 30
0.0
 10
171.474603
 20
93.253501
 30
0.0
 10
170.019529
 20
91.798421
 30
0.0
 10
168.224603
 20
91.798421
 30
0.0
  0
SPLINE
  5
16b
100
AcDbEntity
  8
Layer_1
 62
7
100
AcDbSpline
 70
8
 71
3
 72
8
 73
4
 74
0
 40
0
 40
0
 40
0
 40
0
 40
1
 40
1
 40
1
 40
1
 10
168.224603
 20
91.798421
 30
0.0
 10
166.429678
 20
91.798421
 30
0.0
 10
164.974603
 20
93.253501
 30
0.0
 10
164.974603
 20
95.048421
 30
0.0
  0
SPLINE
  5
16c
100
AcDbEntity
  8
Layer_1
 62
7
100
AcDbSpline
 70
8
 71
3
 72
8
 73
4
 74
0
 40
0
 40
0
 40
0
 40
0
 40
1
 40
1
 40
1
 40
1
 10
164.974603
 20
95.048421
 30
0.0
 10
164.974603
 20
96.843351
 30
0.0
 10
166.429678
 20
98.298421
 30
0.0
 10
168.224603
 20
98.298421
 30
0.0
  0
SPLINE
  5
16d
100
AcDbEntity
  8
Layer_1
 62
7
100
AcDbSpline
 70
8
 71
3
 72
8
 73
4
 74
0
 40
0
 40
0
 40
0
 40
0
 40
1
 40
1
 40
1
 40
1
 10
168.224603
 20
98.298421
 30
0.0
 10
170.019529
 20
98.298421
 30
0.0
 10
171.474603
 20
96.843351
 30
0.0
 10
171.474603
 20
95.048421
 30
0.0
  0
LWPOLYLINE
  5
16e
100
AcDbEntity
  8
Layer_1
 62
7
100
AcDbPolyline
 90
2
 70
0
 10
133.374604
 20
95.048421
 30
0.0
 10
133.374604
 20
95.048421
 30
0.0
  0
LWPOLYLINE
  5
16f
100
AcDbEntity
  8
Layer_1
 62
7
100
AcDbPolyline
 90
2
 70
0
 10
171.474603
 20
95.048421
 30
0.0
 10
171.474603
 20
95.048421
 30
0.0
  0
ENDSEC
  0
SECTION
  2
OBJECTS
  0
DICTIONARY
  5
C
330
0
100
AcDbDictionary
  3
ACAD_GROUP
350
D
  3
ACAD_MLINESTYLE
350
17
  0
DICTIONARY
  5
D
330
C
100
AcDbDictionary
  0
DICTIONARY
  5
1A
330
C
100
AcDbDictionary
  0
DICTIONARY
  5
17
330
C
100
AcDbDictionary
  3
STANDARD
350
18
  0
DICTIONARY
  5
19
330
C
100
AcDbDictionary
  0
ENDSEC
  0
EOF
