999
DXF created by Inkscape
  0
SECTION
  2
HEADER
  9
$ACADVER
  1
AC1014
  9
$HANDSEED
  5
FFFF
  9
$MEASUREMENT
 70
     1
  0
ENDSEC
  0
SECTION
  2
TABLES
  0
TABLE
  2
VPORT
  5
8
330
0
100
AcDbSymbolTable
 70
     4
  0
VPORT
  5
2E
330
8
100
AcDbSymbolTableRecord
100
AcDbViewportTableRecord
  2
*ACTIVE
 70
     0
 10
0.0
 20
0.0
 11
1.0
 21
1.0
 12
210.0
 22
148.5
 13
0.0
 23
0.0
 14
10.0
 24
10.0
 15
10.0
 25
10.0
 16
0.0
 26
0.0
 36
1.0
 17
0.0
 27
0.0
 37
0.0
 40
341.0
 41
1.24
 42
50.0
 43
0.0
 44
0.0
 50
0.0
 51
0.0
 71
     0
 72
   100
 73
     1
 74
     3
 75
     0
 76
     0
 77
     0
 78
     0
  0
ENDTAB
  0
TABLE
  2
LTYPE
  5
5
330
0
100
AcDbSymbolTable
 70
     1
  0
LTYPE
  5
14
330
5
100
AcDbSymbolTableRecord
100
AcDbLinetypeTableRecord
  2
BYBLOCK
 70
     0
  3

 72
    65
 73
     0
 40
0.0
  0
LTYPE
  5
15
330
5
100
AcDbSymbolTableRecord
100
AcDbLinetypeTableRecord
  2
BYLAYER
 70
     0
  3

 72
    65
 73
     0
 40
0.0
  0
LTYPE
  5
16
330
5
100
AcDbSymbolTableRecord
100
AcDbLinetypeTableRecord
  2
CONTINUOUS
 70
     0
  3
Solid line
 72
    65
 73
     0
 40
0.0
  0
ENDTAB
  0
TABLE
  2
LAYER
  5
2
100
AcDbSymbolTable
 70
2
  0
LAYER
  5
50
100
AcDbSymbolTableRecord
100
AcDbLayerTableRecord
  2
0
 70
0
  6
CONTINUOUS
  0
LAYER
  5
51
100
AcDbSymbolTableRecord
100
AcDbLayerTableRecord
  2
Layer_1
 70
0
  6
CONTINUOUS
  0
ENDTAB
  0
TABLE
  2
STYLE
  5
3
330
0
100
AcDbSymbolTable
 70
     1
  0
STYLE
  5
11
330
3
100
AcDbSymbolTableRecord
100
AcDbTextStyleTableRecord
  2
STANDARD
 70
     0
 40
0.0
 41
1.0
 50
0.0
 71
     0
 42
2.5
  3
txt
  4

  0
ENDTAB
  0
TABLE
  2
VIEW
  5
6
330
0
100
AcDbSymbolTable
 70
     0
  0
ENDTAB
  0
TABLE
  2
UCS
  5
7
330
0
100
AcDbSymbolTable
 70
     0
  0
ENDTAB
  0
TABLE
  2
APPID
  5
9
330
0
100
AcDbSymbolTable
 70
     2
  0
APPID
  5
12
330
9
100
AcDbSymbolTableRecord
100
AcDbRegAppTableRecord
  2
ACAD
 70
     0
  0
ENDTAB
  0
TABLE
  2
DIMSTYLE
  5
A
330
0
100
AcDbSymbolTable
 70
     1
  0
DIMSTYLE
105
27
330
A
100
AcDbSymbolTableRecord
100
AcDbDimStyleTableRecord
  2
ISO-25
 70
     0
  3

  4

  5

  6

  7

 40
1.0
 41
2.5
 42
0.625
 43
3.75
 44
1.25
 45
0.0
 46
0.0
 47
0.0
 48
0.0
140
2.5
141
2.5
142
0.0
143
0.03937007874016
144
1.0
145
0.0
146
1.0
147
0.625
 71
     0
 72
     0
 73
     0
 74
     0
 75
     0
 76
     0
 77
     1
 78
     8
170
     0
171
     3
172
     1
173
     0
174
     0
175
     0
176
     0
177
     0
178
     0
270
     2
271
     2
272
     2
273
     2
274
     3
340
11
275
     0
280
     0
281
     0
282
     0
283
     0
284
     8
285
     0
286
     0
287
     3
288
     0
  0
ENDTAB
  0
TABLE
  2
BLOCK_RECORD
  5
1
330
0
100
AcDbSymbolTable
 70
     1
  0
BLOCK_RECORD
  5
1F
330
1
100
AcDbSymbolTableRecord
100
AcDbBlockTableRecord
  2
*MODEL_SPACE
  0
BLOCK_RECORD
  5
1B
330
1
100
AcDbSymbolTableRecord
100
AcDbBlockTableRecord
  2
*PAPER_SPACE
  0
ENDTAB
  0
ENDSEC
  0
SECTION
  2
BLOCKS
  0
BLOCK
  5
20
330
1F
100
AcDbEntity
  8
0
100
AcDbBlockBegin
  2
*MODEL_SPACE
 70
     0
 10
0.0
 20
0.0
 30
0.0
  3
*MODEL_SPACE
  1

  0
ENDBLK
  5
21
330
1F
100
AcDbEntity
  8
0
100
AcDbBlockEnd
  0
BLOCK
  5
1C
330
1B
100
AcDbEntity
 67
     1
  8
0
100
AcDbBlockBegin
  2
*PAPER_SPACE
  1

  0
ENDBLK
  5
1D
330
1B
100
AcDbEntity
 67
     1
  8
0
100
AcDbBlockEnd
  0
ENDSEC
  0
SECTION
  2
ENTITIES
  0
SPLINE
  5
100
100
AcDbEntity
  8
Layer_1
 62
7
100
AcDbSpline
 70
8
 71
3
 72
8
 73
4
 74
0
 40
0
 40
0
 40
0
 40
0
 40
1
 40
1
 40
1
 40
1
 10
82.627779
 20
208.005560
 30
0.0
 10
82.627779
 20
207.121904
 30
0.0
 10
81.911434
 20
206.405560
 30
0.0
 10
81.027779
 20
206.405560
 30
0.0
  0
SPLINE
  5
101
100
AcDbEntity
  8
Layer_1
 62
7
100
AcDbSpline
 70
8
 71
3
 72
8
 73
4
 74
0
 40
0
 40
0
 40
0
 40
0
 40
1
 40
1
 40
1
 40
1
 10
81.027779
 20
206.405560
 30
0.0
 10
80.144123
 20
206.405560
 30
0.0
 10
79.427779
 20
207.121904
 30
0.0
 10
79.427779
 20
208.005560
 30
0.0
  0
SPLINE
  5
102
100
AcDbEntity
  8
Layer_1
 62
7
100
AcDbSpline
 70
8
 71
3
 72
8
 73
4
 74
0
 40
0
 40
0
 40
0
 40
0
 40
1
 40
1
 40
1
 40
1
 10
79.427779
 20
208.005560
 30
0.0
 10
79.427779
 20
208.889215
 30
0.0
 10
80.144123
 20
209.605560
 30
0.0
 10
81.027779
 20
209.605560
 30
0.0
  0
SPLINE
  5
103
100
AcDbEntity
  8
Layer_1
 62
7
100
AcDbSpline
 70
8
 71
3
 72
8
 73
4
 74
0
 40
0
 40
0
 40
0
 40
0
 40
1
 40
1
 40
1
 40
1
 10
81.027779
 20
209.605560
 30
0.0
 10
81.911434
 20
209.605560
 30
0.0
 10
82.627779
 20
208.889215
 30
0.0
 10
82.627779
 20
208.005560
 30
0.0
  0
LWPOLYLINE
  5
104
100
AcDbEntity
  8
Layer_1
 62
7
100
AcDbPolyline
 90
5
 70
0
 10
73.527779
 20
211.005560
 30
0.0
 10
124.027778
 20
211.005560
 30
0.0
 10
124.027778
 20
82.505563
 30
0.0
 10
73.527779
 20
82.505563
 30
0.0
 10
73.527779
 20
211.005560
 30
0.0
  0
SPLINE
  5
105
100
AcDbEntity
  8
Layer_1
 62
7
100
AcDbSpline
 70
8
 71
3
 72
8
 73
4
 74
0
 40
0
 40
0
 40
0
 40
0
 40
1
 40
1
 40
1
 40
1
 10
82.627779
 20
85.505563
 30
0.0
 10
82.627779
 20
84.621903
 30
0.0
 10
81.911434
 20
83.905563
 30
0.0
 10
81.027779
 20
83.905563
 30
0.0
  0
SPLINE
  5
106
100
AcDbEntity
  8
Layer_1
 62
7
100
AcDbSpline
 70
8
 71
3
 72
8
 73
4
 74
0
 40
0
 40
0
 40
0
 40
0
 40
1
 40
1
 40
1
 40
1
 10
81.027779
 20
83.905563
 30
0.0
 10
80.144123
 20
83.905563
 30
0.0
 10
79.427779
 20
84.621903
 30
0.0
 10
79.427779
 20
85.505563
 30
0.0
  0
SPLINE
  5
107
100
AcDbEntity
  8
Layer_1
 62
7
100
AcDbSpline
 70
8
 71
3
 72
8
 73
4
 74
0
 40
0
 40
0
 40
0
 40
0
 40
1
 40
1
 40
1
 40
1
 10
79.427779
 20
85.505563
 30
0.0
 10
79.427779
 20
86.389223
 30
0.0
 10
80.144123
 20
87.105563
 30
0.0
 10
81.027779
 20
87.105563
 30
0.0
  0
SPLINE
  5
108
100
AcDbEntity
  8
Layer_1
 62
7
100
AcDbSpline
 70
8
 71
3
 72
8
 73
4
 74
0
 40
0
 40
0
 40
0
 40
0
 40
1
 40
1
 40
1
 40
1
 10
81.027779
 20
87.105563
 30
0.0
 10
81.911434
 20
87.105563
 30
0.0
 10
82.627779
 20
86.389223
 30
0.0
 10
82.627779
 20
85.505563
 30
0.0
  0
LWPOLYLINE
  5
109
100
AcDbEntity
  8
Layer_1
 62
7
100
AcDbPolyline
 90
2
 70
0
 10
82.627779
 20
208.005560
 30
0.0
 10
82.627779
 20
208.005560
 30
0.0
  0
SPLINE
  5
10a
100
AcDbEntity
  8
Layer_1
 62
7
100
AcDbSpline
 70
8
 71
3
 72
8
 73
4
 74
0
 40
0
 40
0
 40
0
 40
0
 40
1
 40
1
 40
1
 40
1
 10
118.187779
 20
208.005560
 30
0.0
 10
118.187779
 20
207.121904
 30
0.0
 10
117.471435
 20
206.405560
 30
0.0
 10
116.587779
 20
206.405560
 30
0.0
  0
SPLINE
  5
10b
100
AcDbEntity
  8
Layer_1
 62
7
100
AcDbSpline
 70
8
 71
3
 72
8
 73
4
 74
0
 40
0
 40
0
 40
0
 40
0
 40
1
 40
1
 40
1
 40
1
 10
116.587779
 20
206.405560
 30
0.0
 10
115.704124
 20
206.405560
 30
0.0
 10
114.987779
 20
207.121904
 30
0.0
 10
114.987779
 20
208.005560
 30
0.0
  0
SPLINE
  5
10c
100
AcDbEntity
  8
Layer_1
 62
7
100
AcDbSpline
 70
8
 71
3
 72
8
 73
4
 74
0
 40
0
 40
0
 40
0
 40
0
 40
1
 40
1
 40
1
 40
1
 10
114.987779
 20
208.005560
 30
0.0
 10
114.987779
 20
208.889215
 30
0.0
 10
115.704124
 20
209.605560
 30
0.0
 10
116.587779
 20
209.605560
 30
0.0
  0
SPLINE
  5
10d
100
AcDbEntity
  8
Layer_1
 62
7
100
AcDbSpline
 70
8
 71
3
 72
8
 73
4
 74
0
 40
0
 40
0
 40
0
 40
0
 40
1
 40
1
 40
1
 40
1
 10
116.587779
 20
209.605560
 30
0.0
 10
117.471435
 20
209.605560
 30
0.0
 10
118.187779
 20
208.889215
 30
0.0
 10
118.187779
 20
208.005560
 30
0.0
  0
LWPOLYLINE
  5
10e
100
AcDbEntity
  8
Layer_1
 62
7
100
AcDbPolyline
 90
2
 70
0
 10
82.627779
 20
85.505563
 30
0.0
 10
82.627779
 20
85.505563
 30
0.0
  0
SPLINE
  5
10f
100
AcDbEntity
  8
Layer_1
 62
7
100
AcDbSpline
 70
8
 71
3
 72
8
 73
4
 74
0
 40
0
 40
0
 40
0
 40
0
 40
1
 40
1
 40
1
 40
1
 10
118.187779
 20
85.505563
 30
0.0
 10
118.187779
 20
84.621903
 30
0.0
 10
117.471435
 20
83.905563
 30
0.0
 10
116.587779
 20
83.905563
 30
0.0
  0
SPLINE
  5
110
100
AcDbEntity
  8
Layer_1
 62
7
100
AcDbSpline
 70
8
 71
3
 72
8
 73
4
 74
0
 40
0
 40
0
 40
0
 40
0
 40
1
 40
1
 40
1
 40
1
 10
116.587779
 20
83.905563
 30
0.0
 10
115.704124
 20
83.905563
 30
0.0
 10
114.987779
 20
84.621903
 30
0.0
 10
114.987779
 20
85.505563
 30
0.0
  0
SPLINE
  5
111
100
AcDbEntity
  8
Layer_1
 62
7
100
AcDbSpline
 70
8
 71
3
 72
8
 73
4
 74
0
 40
0
 40
0
 40
0
 40
0
 40
1
 40
1
 40
1
 40
1
 10
114.987779
 20
85.505563
 30
0.0
 10
114.987779
 20
86.389223
 30
0.0
 10
115.704124
 20
87.105563
 30
0.0
 10
116.587779
 20
87.105563
 30
0.0
  0
SPLINE
  5
112
100
AcDbEntity
  8
Layer_1
 62
7
100
AcDbSpline
 70
8
 71
3
 72
8
 73
4
 74
0
 40
0
 40
0
 40
0
 40
0
 40
1
 40
1
 40
1
 40
1
 10
116.587779
 20
87.105563
 30
0.0
 10
117.471435
 20
87.105563
 30
0.0
 10
118.187779
 20
86.389223
 30
0.0
 10
118.187779
 20
85.505563
 30
0.0
  0
LWPOLYLINE
  5
113
100
AcDbEntity
  8
Layer_1
 62
7
100
AcDbPolyline
 90
2
 70
0
 10
118.187779
 20
208.005560
 30
0.0
 10
118.187779
 20
208.005560
 30
0.0
  0
SPLINE
  5
114
100
AcDbEntity
  8
Layer_1
 62
7
100
AcDbSpline
 70
8
 71
3
 72
8
 73
4
 74
0
 40
0
 40
0
 40
0
 40
0
 40
1
 40
1
 40
1
 40
1
 10
90.827778
 20
146.755561
 30
0.0
 10
90.827778
 20
144.132208
 30
0.0
 10
88.701132
 20
142.005561
 30
0.0
 10
86.077779
 20
142.005561
 30
0.0
  0
SPLINE
  5
115
100
AcDbEntity
  8
Layer_1
 62
7
100
AcDbSpline
 70
8
 71
3
 72
8
 73
4
 74
0
 40
0
 40
0
 40
0
 40
0
 40
1
 40
1
 40
1
 40
1
 10
86.077779
 20
142.005561
 30
0.0
 10
83.454426
 20
142.005561
 30
0.0
 10
81.327779
 20
144.132208
 30
0.0
 10
81.327779
 20
146.755561
 30
0.0
  0
SPLINE
  5
116
100
AcDbEntity
  8
Layer_1
 62
7
100
AcDbSpline
 70
8
 71
3
 72
8
 73
4
 74
0
 40
0
 40
0
 40
0
 40
0
 40
1
 40
1
 40
1
 40
1
 10
81.327779
 20
146.755561
 30
0.0
 10
81.327779
 20
149.378914
 30
0.0
 10
83.454426
 20
151.505561
 30
0.0
 10
86.077779
 20
151.505561
 30
0.0
  0
SPLINE
  5
117
100
AcDbEntity
  8
Layer_1
 62
7
100
AcDbSpline
 70
8
 71
3
 72
8
 73
4
 74
0
 40
0
 40
0
 40
0
 40
0
 40
1
 40
1
 40
1
 40
1
 10
86.077779
 20
151.505561
 30
0.0
 10
88.701132
 20
151.505561
 30
0.0
 10
90.827778
 20
149.378914
 30
0.0
 10
90.827778
 20
146.755561
 30
0.0
  0
LWPOLYLINE
  5
118
100
AcDbEntity
  8
Layer_1
 62
7
100
AcDbPolyline
 90
2
 70
0
 10
118.187779
 20
85.505563
 30
0.0
 10
118.187779
 20
85.505563
 30
0.0
  0
SPLINE
  5
119
100
AcDbEntity
  8
Layer_1
 62
7
100
AcDbSpline
 70
8
 71
3
 72
8
 73
4
 74
0
 40
0
 40
0
 40
0
 40
0
 40
1
 40
1
 40
1
 40
1
 10
116.227779
 20
146.755561
 30
0.0
 10
116.227779
 20
144.132208
 30
0.0
 10
114.101131
 20
142.005561
 30
0.0
 10
111.477779
 20
142.005561
 30
0.0
  0
SPLINE
  5
11a
100
AcDbEntity
  8
Layer_1
 62
7
100
AcDbSpline
 70
8
 71
3
 72
8
 73
4
 74
0
 40
0
 40
0
 40
0
 40
0
 40
1
 40
1
 40
1
 40
1
 10
111.477779
 20
142.005561
 30
0.0
 10
108.854426
 20
142.005561
 30
0.0
 10
106.727779
 20
144.132208
 30
0.0
 10
106.727779
 20
146.755561
 30
0.0
  0
SPLINE
  5
11b
100
AcDbEntity
  8
Layer_1
 62
7
100
AcDbSpline
 70
8
 71
3
 72
8
 73
4
 74
0
 40
0
 40
0
 40
0
 40
0
 40
1
 40
1
 40
1
 40
1
 10
106.727779
 20
146.755561
 30
0.0
 10
106.727779
 20
149.378914
 30
0.0
 10
108.854426
 20
151.505561
 30
0.0
 10
111.477779
 20
151.505561
 30
0.0
  0
SPLINE
  5
11c
100
AcDbEntity
  8
Layer_1
 62
7
100
AcDbSpline
 70
8
 71
3
 72
8
 73
4
 74
0
 40
0
 40
0
 40
0
 40
0
 40
1
 40
1
 40
1
 40
1
 10
111.477779
 20
151.505561
 30
0.0
 10
114.101131
 20
151.505561
 30
0.0
 10
116.227779
 20
149.378914
 30
0.0
 10
116.227779
 20
146.755561
 30
0.0
  0
LWPOLYLINE
  5
11d
100
AcDbEntity
  8
Layer_1
 62
7
100
AcDbPolyline
 90
2
 70
0
 10
90.827778
 20
146.755561
 30
0.0
 10
90.827778
 20
146.755561
 30
0.0
  0
SPLINE
  5
11e
100
AcDbEntity
  8
Layer_1
 62
7
100
AcDbSpline
 70
8
 71
3
 72
8
 73
4
 74
0
 40
0
 40
0
 40
0
 40
0
 40
1
 40
1
 40
1
 40
1
 10
90.827778
 20
165.805560
 30
0.0
 10
90.827778
 20
163.182208
 30
0.0
 10
88.701132
 20
161.055560
 30
0.0
 10
86.077779
 20
161.055560
 30
0.0
  0
SPLINE
  5
11f
100
AcDbEntity
  8
Layer_1
 62
7
100
AcDbSpline
 70
8
 71
3
 72
8
 73
4
 74
0
 40
0
 40
0
 40
0
 40
0
 40
1
 40
1
 40
1
 40
1
 10
86.077779
 20
161.055560
 30
0.0
 10
83.454426
 20
161.055560
 30
0.0
 10
81.327779
 20
163.182208
 30
0.0
 10
81.327779
 20
165.805560
 30
0.0
  0
SPLINE
  5
120
100
AcDbEntity
  8
Layer_1
 62
7
100
AcDbSpline
 70
8
 71
3
 72
8
 73
4
 74
0
 40
0
 40
0
 40
0
 40
0
 40
1
 40
1
 40
1
 40
1
 10
81.327779
 20
165.805560
 30
0.0
 10
81.327779
 20
168.428913
 30
0.0
 10
83.454426
 20
170.555560
 30
0.0
 10
86.077779
 20
170.555560
 30
0.0
  0
SPLINE
  5
121
100
AcDbEntity
  8
Layer_1
 62
7
100
AcDbSpline
 70
8
 71
3
 72
8
 73
4
 74
0
 40
0
 40
0
 40
0
 40
0
 40
1
 40
1
 40
1
 40
1
 10
86.077779
 20
170.555560
 30
0.0
 10
88.701132
 20
170.555560
 30
0.0
 10
90.827778
 20
168.428913
 30
0.0
 10
90.827778
 20
165.805560
 30
0.0
  0
LWPOLYLINE
  5
122
100
AcDbEntity
  8
Layer_1
 62
7
100
AcDbPolyline
 90
2
 70
0
 10
116.227779
 20
146.755561
 30
0.0
 10
116.227779
 20
146.755561
 30
0.0
  0
SPLINE
  5
123
100
AcDbEntity
  8
Layer_1
 62
7
100
AcDbSpline
 70
8
 71
3
 72
8
 73
4
 74
0
 40
0
 40
0
 40
0
 40
0
 40
1
 40
1
 40
1
 40
1
 10
116.227779
 20
165.805560
 30
0.0
 10
116.227779
 20
163.182208
 30
0.0
 10
114.101131
 20
161.055560
 30
0.0
 10
111.477779
 20
161.055560
 30
0.0
  0
SPLINE
  5
124
100
AcDbEntity
  8
Layer_1
 62
7
100
AcDbSpline
 70
8
 71
3
 72
8
 73
4
 74
0
 40
0
 40
0
 40
0
 40
0
 40
1
 40
1
 40
1
 40
1
 10
111.477779
 20
161.055560
 30
0.0
 10
108.854426
 20
161.055560
 30
0.0
 10
106.727779
 20
163.182208
 30
0.0
 10
106.727779
 20
165.805560
 30
0.0
  0
SPLINE
  5
125
100
AcDbEntity
  8
Layer_1
 62
7
100
AcDbSpline
 70
8
 71
3
 72
8
 73
4
 74
0
 40
0
 40
0
 40
0
 40
0
 40
1
 40
1
 40
1
 40
1
 10
106.727779
 20
165.805560
 30
0.0
 10
106.727779
 20
168.428913
 30
0.0
 10
108.854426
 20
170.555560
 30
0.0
 10
111.477779
 20
170.555560
 30
0.0
  0
SPLINE
  5
126
100
AcDbEntity
  8
Layer_1
 62
7
100
AcDbSpline
 70
8
 71
3
 72
8
 73
4
 74
0
 40
0
 40
0
 40
0
 40
0
 40
1
 40
1
 40
1
 40
1
 10
111.477779
 20
170.555560
 30
0.0
 10
114.101131
 20
170.555560
 30
0.0
 10
116.227779
 20
168.428913
 30
0.0
 10
116.227779
 20
165.805560
 30
0.0
  0
LWPOLYLINE
  5
127
100
AcDbEntity
  8
Layer_1
 62
7
100
AcDbPolyline
 90
2
 70
0
 10
90.827778
 20
165.805560
 30
0.0
 10
90.827778
 20
165.805560
 30
0.0
  0
SPLINE
  5
128
100
AcDbEntity
  8
Layer_1
 62
7
100
AcDbSpline
 70
8
 71
3
 72
8
 73
4
 74
0
 40
0
 40
0
 40
0
 40
0
 40
1
 40
1
 40
1
 40
1
 10
90.827778
 20
184.855560
 30
0.0
 10
90.827778
 20
182.232208
 30
0.0
 10
88.701132
 20
180.105560
 30
0.0
 10
86.077779
 20
180.105560
 30
0.0
  0
SPLINE
  5
129
100
AcDbEntity
  8
Layer_1
 62
7
100
AcDbSpline
 70
8
 71
3
 72
8
 73
4
 74
0
 40
0
 40
0
 40
0
 40
0
 40
1
 40
1
 40
1
 40
1
 10
86.077779
 20
180.105560
 30
0.0
 10
83.454426
 20
180.105560
 30
0.0
 10
81.327779
 20
182.232208
 30
0.0
 10
81.327779
 20
184.855560
 30
0.0
  0
SPLINE
  5
12a
100
AcDbEntity
  8
Layer_1
 62
7
100
AcDbSpline
 70
8
 71
3
 72
8
 73
4
 74
0
 40
0
 40
0
 40
0
 40
0
 40
1
 40
1
 40
1
 40
1
 10
81.327779
 20
184.855560
 30
0.0
 10
81.327779
 20
187.478913
 30
0.0
 10
83.454426
 20
189.605560
 30
0.0
 10
86.077779
 20
189.605560
 30
0.0
  0
SPLINE
  5
12b
100
AcDbEntity
  8
Layer_1
 62
7
100
AcDbSpline
 70
8
 71
3
 72
8
 73
4
 74
0
 40
0
 40
0
 40
0
 40
0
 40
1
 40
1
 40
1
 40
1
 10
86.077779
 20
189.605560
 30
0.0
 10
88.701132
 20
189.605560
 30
0.0
 10
90.827778
 20
187.478913
 30
0.0
 10
90.827778
 20
184.855560
 30
0.0
  0
LWPOLYLINE
  5
12c
100
AcDbEntity
  8
Layer_1
 62
7
100
AcDbPolyline
 90
2
 70
0
 10
116.227779
 20
165.805560
 30
0.0
 10
116.227779
 20
165.805560
 30
0.0
  0
SPLINE
  5
12d
100
AcDbEntity
  8
Layer_1
 62
7
100
AcDbSpline
 70
8
 71
3
 72
8
 73
4
 74
0
 40
0
 40
0
 40
0
 40
0
 40
1
 40
1
 40
1
 40
1
 10
116.227779
 20
184.855560
 30
0.0
 10
116.227779
 20
182.232208
 30
0.0
 10
114.101131
 20
180.105560
 30
0.0
 10
111.477779
 20
180.105560
 30
0.0
  0
SPLINE
  5
12e
100
AcDbEntity
  8
Layer_1
 62
7
100
AcDbSpline
 70
8
 71
3
 72
8
 73
4
 74
0
 40
0
 40
0
 40
0
 40
0
 40
1
 40
1
 40
1
 40
1
 10
111.477779
 20
180.105560
 30
0.0
 10
108.854426
 20
180.105560
 30
0.0
 10
106.727779
 20
182.232208
 30
0.0
 10
106.727779
 20
184.855560
 30
0.0
  0
SPLINE
  5
12f
100
AcDbEntity
  8
Layer_1
 62
7
100
AcDbSpline
 70
8
 71
3
 72
8
 73
4
 74
0
 40
0
 40
0
 40
0
 40
0
 40
1
 40
1
 40
1
 40
1
 10
106.727779
 20
184.855560
 30
0.0
 10
106.727779
 20
187.478913
 30
0.0
 10
108.854426
 20
189.605560
 30
0.0
 10
111.477779
 20
189.605560
 30
0.0
  0
SPLINE
  5
130
100
AcDbEntity
  8
Layer_1
 62
7
100
AcDbSpline
 70
8
 71
3
 72
8
 73
4
 74
0
 40
0
 40
0
 40
0
 40
0
 40
1
 40
1
 40
1
 40
1
 10
111.477779
 20
189.605560
 30
0.0
 10
114.101131
 20
189.605560
 30
0.0
 10
116.227779
 20
187.478913
 30
0.0
 10
116.227779
 20
184.855560
 30
0.0
  0
LWPOLYLINE
  5
131
100
AcDbEntity
  8
Layer_1
 62
7
100
AcDbPolyline
 90
2
 70
0
 10
90.827778
 20
184.855560
 30
0.0
 10
90.827778
 20
184.855560
 30
0.0
  0
SPLINE
  5
132
100
AcDbEntity
  8
Layer_1
 62
7
100
AcDbSpline
 70
8
 71
3
 72
8
 73
4
 74
0
 40
0
 40
0
 40
0
 40
0
 40
1
 40
1
 40
1
 40
1
 10
100.277778
 20
140.405563
 30
0.0
 10
100.277778
 20
139.577135
 30
0.0
 10
99.606205
 20
138.905563
 30
0.0
 10
98.777778
 20
138.905563
 30
0.0
  0
SPLINE
  5
133
100
AcDbEntity
  8
Layer_1
 62
7
100
AcDbSpline
 70
8
 71
3
 72
8
 73
4
 74
0
 40
0
 40
0
 40
0
 40
0
 40
1
 40
1
 40
1
 40
1
 10
98.777778
 20
138.905563
 30
0.0
 10
97.949351
 20
138.905563
 30
0.0
 10
97.277778
 20
139.577135
 30
0.0
 10
97.277778
 20
140.405563
 30
0.0
  0
SPLINE
  5
134
100
AcDbEntity
  8
Layer_1
 62
7
100
AcDbSpline
 70
8
 71
3
 72
8
 73
4
 74
0
 40
0
 40
0
 40
0
 40
0
 40
1
 40
1
 40
1
 40
1
 10
97.277778
 20
140.405563
 30
0.0
 10
97.277778
 20
141.233990
 30
0.0
 10
97.949351
 20
141.905563
 30
0.0
 10
98.777778
 20
141.905563
 30
0.0
  0
SPLINE
  5
135
100
AcDbEntity
  8
Layer_1
 62
7
100
AcDbSpline
 70
8
 71
3
 72
8
 73
4
 74
0
 40
0
 40
0
 40
0
 40
0
 40
1
 40
1
 40
1
 40
1
 10
98.777778
 20
141.905563
 30
0.0
 10
99.606205
 20
141.905563
 30
0.0
 10
100.277778
 20
141.233990
 30
0.0
 10
100.277778
 20
140.405563
 30
0.0
  0
LWPOLYLINE
  5
136
100
AcDbEntity
  8
Layer_1
 62
7
100
AcDbPolyline
 90
2
 70
0
 10
116.227779
 20
184.855560
 30
0.0
 10
116.227779
 20
184.855560
 30
0.0
  0
SPLINE
  5
137
100
AcDbEntity
  8
Layer_1
 62
7
100
AcDbSpline
 70
8
 71
3
 72
8
 73
4
 74
0
 40
0
 40
0
 40
0
 40
0
 40
1
 40
1
 40
1
 40
1
 10
87.577779
 20
127.705559
 30
0.0
 10
87.577779
 20
126.877132
 30
0.0
 10
86.906206
 20
126.205559
 30
0.0
 10
86.077779
 20
126.205559
 30
0.0
  0
SPLINE
  5
138
100
AcDbEntity
  8
Layer_1
 62
7
100
AcDbSpline
 70
8
 71
3
 72
8
 73
4
 74
0
 40
0
 40
0
 40
0
 40
0
 40
1
 40
1
 40
1
 40
1
 10
86.077779
 20
126.205559
 30
0.0
 10
85.249352
 20
126.205559
 30
0.0
 10
84.577779
 20
126.877132
 30
0.0
 10
84.577779
 20
127.705559
 30
0.0
  0
SPLINE
  5
139
100
AcDbEntity
  8
Layer_1
 62
7
100
AcDbSpline
 70
8
 71
3
 72
8
 73
4
 74
0
 40
0
 40
0
 40
0
 40
0
 40
1
 40
1
 40
1
 40
1
 10
84.577779
 20
127.705559
 30
0.0
 10
84.577779
 20
128.533986
 30
0.0
 10
85.249352
 20
129.205559
 30
0.0
 10
86.077779
 20
129.205559
 30
0.0
  0
SPLINE
  5
13a
100
AcDbEntity
  8
Layer_1
 62
7
100
AcDbSpline
 70
8
 71
3
 72
8
 73
4
 74
0
 40
0
 40
0
 40
0
 40
0
 40
1
 40
1
 40
1
 40
1
 10
86.077779
 20
129.205559
 30
0.0
 10
86.906206
 20
129.205559
 30
0.0
 10
87.577779
 20
128.533986
 30
0.0
 10
87.577779
 20
127.705559
 30
0.0
  0
LWPOLYLINE
  5
13b
100
AcDbEntity
  8
Layer_1
 62
7
100
AcDbPolyline
 90
2
 70
0
 10
100.277778
 20
140.405563
 30
0.0
 10
100.277778
 20
140.405563
 30
0.0
  0
SPLINE
  5
13c
100
AcDbEntity
  8
Layer_1
 62
7
100
AcDbSpline
 70
8
 71
3
 72
8
 73
4
 74
0
 40
0
 40
0
 40
0
 40
0
 40
1
 40
1
 40
1
 40
1
 10
112.977779
 20
127.705559
 30
0.0
 10
112.977779
 20
126.877132
 30
0.0
 10
112.306206
 20
126.205559
 30
0.0
 10
111.477779
 20
126.205559
 30
0.0
  0
SPLINE
  5
13d
100
AcDbEntity
  8
Layer_1
 62
7
100
AcDbSpline
 70
8
 71
3
 72
8
 73
4
 74
0
 40
0
 40
0
 40
0
 40
0
 40
1
 40
1
 40
1
 40
1
 10
111.477779
 20
126.205559
 30
0.0
 10
110.649352
 20
126.205559
 30
0.0
 10
109.977779
 20
126.877132
 30
0.0
 10
109.977779
 20
127.705559
 30
0.0
  0
SPLINE
  5
13e
100
AcDbEntity
  8
Layer_1
 62
7
100
AcDbSpline
 70
8
 71
3
 72
8
 73
4
 74
0
 40
0
 40
0
 40
0
 40
0
 40
1
 40
1
 40
1
 40
1
 10
109.977779
 20
127.705559
 30
0.0
 10
109.977779
 20
128.533986
 30
0.0
 10
110.649352
 20
129.205559
 30
0.0
 10
111.477779
 20
129.205559
 30
0.0
  0
SPLINE
  5
13f
100
AcDbEntity
  8
Layer_1
 62
7
100
AcDbSpline
 70
8
 71
3
 72
8
 73
4
 74
0
 40
0
 40
0
 40
0
 40
0
 40
1
 40
1
 40
1
 40
1
 10
111.477779
 20
129.205559
 30
0.0
 10
112.306206
 20
129.205559
 30
0.0
 10
112.977779
 20
128.533986
 30
0.0
 10
112.977779
 20
127.705559
 30
0.0
  0
LWPOLYLINE
  5
140
100
AcDbEntity
  8
Layer_1
 62
7
100
AcDbPolyline
 90
2
 70
0
 10
87.577779
 20
127.705559
 30
0.0
 10
87.577779
 20
127.705559
 30
0.0
  0
SPLINE
  5
141
100
AcDbEntity
  8
Layer_1
 62
7
100
AcDbSpline
 70
8
 71
3
 72
8
 73
4
 74
0
 40
0
 40
0
 40
0
 40
0
 40
1
 40
1
 40
1
 40
1
 10
102.027778
 20
127.705559
 30
0.0
 10
102.027778
 20
125.910634
 30
0.0
 10
100.572703
 20
124.455559
 30
0.0
 10
98.777778
 20
124.455559
 30
0.0
  0
SPLINE
  5
142
100
AcDbEntity
  8
Layer_1
 62
7
100
AcDbSpline
 70
8
 71
3
 72
8
 73
4
 74
0
 40
0
 40
0
 40
0
 40
0
 40
1
 40
1
 40
1
 40
1
 10
98.777778
 20
124.455559
 30
0.0
 10
96.982853
 20
124.455559
 30
0.0
 10
95.527778
 20
125.910634
 30
0.0
 10
95.527778
 20
127.705559
 30
0.0
  0
SPLINE
  5
143
100
AcDbEntity
  8
Layer_1
 62
7
100
AcDbSpline
 70
8
 71
3
 72
8
 73
4
 74
0
 40
0
 40
0
 40
0
 40
0
 40
1
 40
1
 40
1
 40
1
 10
95.527778
 20
127.705559
 30
0.0
 10
95.527778
 20
129.500484
 30
0.0
 10
96.982853
 20
130.955559
 30
0.0
 10
98.777778
 20
130.955559
 30
0.0
  0
SPLINE
  5
144
100
AcDbEntity
  8
Layer_1
 62
7
100
AcDbSpline
 70
8
 71
3
 72
8
 73
4
 74
0
 40
0
 40
0
 40
0
 40
0
 40
1
 40
1
 40
1
 40
1
 10
98.777778
 20
130.955559
 30
0.0
 10
100.572703
 20
130.955559
 30
0.0
 10
102.027778
 20
129.500484
 30
0.0
 10
102.027778
 20
127.705559
 30
0.0
  0
LWPOLYLINE
  5
145
100
AcDbEntity
  8
Layer_1
 62
7
100
AcDbPolyline
 90
2
 70
0
 10
112.977779
 20
127.705559
 30
0.0
 10
112.977779
 20
127.705559
 30
0.0
  0
SPLINE
  5
146
100
AcDbEntity
  8
Layer_1
 62
7
100
AcDbSpline
 70
8
 71
3
 72
8
 73
4
 74
0
 40
0
 40
0
 40
0
 40
0
 40
1
 40
1
 40
1
 40
1
 10
89.327779
 20
115.005562
 30
0.0
 10
89.327779
 20
113.210637
 30
0.0
 10
87.872705
 20
111.755562
 30
0.0
 10
86.077779
 20
111.755562
 30
0.0
  0
SPLINE
  5
147
100
AcDbEntity
  8
Layer_1
 62
7
100
AcDbSpline
 70
8
 71
3
 72
8
 73
4
 74
0
 40
0
 40
0
 40
0
 40
0
 40
1
 40
1
 40
1
 40
1
 10
86.077779
 20
111.755562
 30
0.0
 10
84.282854
 20
111.755562
 30
0.0
 10
82.827779
 20
113.210637
 30
0.0
 10
82.827779
 20
115.005562
 30
0.0
  0
SPLINE
  5
148
100
AcDbEntity
  8
Layer_1
 62
7
100
AcDbSpline
 70
8
 71
3
 72
8
 73
4
 74
0
 40
0
 40
0
 40
0
 40
0
 40
1
 40
1
 40
1
 40
1
 10
82.827779
 20
115.005562
 30
0.0
 10
82.827779
 20
116.800487
 30
0.0
 10
84.282854
 20
118.255562
 30
0.0
 10
86.077779
 20
118.255562
 30
0.0
  0
SPLINE
  5
149
100
AcDbEntity
  8
Layer_1
 62
7
100
AcDbSpline
 70
8
 71
3
 72
8
 73
4
 74
0
 40
0
 40
0
 40
0
 40
0
 40
1
 40
1
 40
1
 40
1
 10
86.077779
 20
118.255562
 30
0.0
 10
87.872705
 20
118.255562
 30
0.0
 10
89.327779
 20
116.800487
 30
0.0
 10
89.327779
 20
115.005562
 30
0.0
  0
LWPOLYLINE
  5
14a
100
AcDbEntity
  8
Layer_1
 62
7
100
AcDbPolyline
 90
2
 70
0
 10
102.027778
 20
127.705559
 30
0.0
 10
102.027778
 20
127.705559
 30
0.0
  0
SPLINE
  5
14b
100
AcDbEntity
  8
Layer_1
 62
7
100
AcDbSpline
 70
8
 71
3
 72
8
 73
4
 74
0
 40
0
 40
0
 40
0
 40
0
 40
1
 40
1
 40
1
 40
1
 10
114.727779
 20
115.005562
 30
0.0
 10
114.727779
 20
113.210637
 30
0.0
 10
113.272704
 20
111.755562
 30
0.0
 10
111.477779
 20
111.755562
 30
0.0
  0
SPLINE
  5
14c
100
AcDbEntity
  8
Layer_1
 62
7
100
AcDbSpline
 70
8
 71
3
 72
8
 73
4
 74
0
 40
0
 40
0
 40
0
 40
0
 40
1
 40
1
 40
1
 40
1
 10
111.477779
 20
111.755562
 30
0.0
 10
109.682853
 20
111.755562
 30
0.0
 10
108.227779
 20
113.210637
 30
0.0
 10
108.227779
 20
115.005562
 30
0.0
  0
SPLINE
  5
14d
100
AcDbEntity
  8
Layer_1
 62
7
100
AcDbSpline
 70
8
 71
3
 72
8
 73
4
 74
0
 40
0
 40
0
 40
0
 40
0
 40
1
 40
1
 40
1
 40
1
 10
108.227779
 20
115.005562
 30
0.0
 10
108.227779
 20
116.800487
 30
0.0
 10
109.682853
 20
118.255562
 30
0.0
 10
111.477779
 20
118.255562
 30
0.0
  0
SPLINE
  5
14e
100
AcDbEntity
  8
Layer_1
 62
7
100
AcDbSpline
 70
8
 71
3
 72
8
 73
4
 74
0
 40
0
 40
0
 40
0
 40
0
 40
1
 40
1
 40
1
 40
1
 10
111.477779
 20
118.255562
 30
0.0
 10
113.272704
 20
118.255562
 30
0.0
 10
114.727779
 20
116.800487
 30
0.0
 10
114.727779
 20
115.005562
 30
0.0
  0
LWPOLYLINE
  5
14f
100
AcDbEntity
  8
Layer_1
 62
7
100
AcDbPolyline
 90
2
 70
0
 10
89.327779
 20
115.005562
 30
0.0
 10
89.327779
 20
115.005562
 30
0.0
  0
SPLINE
  5
150
100
AcDbEntity
  8
Layer_1
 62
7
100
AcDbSpline
 70
8
 71
3
 72
8
 73
4
 74
0
 40
0
 40
0
 40
0
 40
0
 40
1
 40
1
 40
1
 40
1
 10
102.027778
 20
115.005562
 30
0.0
 10
102.027778
 20
113.210637
 30
0.0
 10
100.572703
 20
111.755562
 30
0.0
 10
98.777778
 20
111.755562
 30
0.0
  0
SPLINE
  5
151
100
AcDbEntity
  8
Layer_1
 62
7
100
AcDbSpline
 70
8
 71
3
 72
8
 73
4
 74
0
 40
0
 40
0
 40
0
 40
0
 40
1
 40
1
 40
1
 40
1
 10
98.777778
 20
111.755562
 30
0.0
 10
96.982853
 20
111.755562
 30
0.0
 10
95.527778
 20
113.210637
 30
0.0
 10
95.527778
 20
115.005562
 30
0.0
  0
SPLINE
  5
152
100
AcDbEntity
  8
Layer_1
 62
7
100
AcDbSpline
 70
8
 71
3
 72
8
 73
4
 74
0
 40
0
 40
0
 40
0
 40
0
 40
1
 40
1
 40
1
 40
1
 10
95.527778
 20
115.005562
 30
0.0
 10
95.527778
 20
116.800487
 30
0.0
 10
96.982853
 20
118.255562
 30
0.0
 10
98.777778
 20
118.255562
 30
0.0
  0
SPLINE
  5
153
100
AcDbEntity
  8
Layer_1
 62
7
100
AcDbSpline
 70
8
 71
3
 72
8
 73
4
 74
0
 40
0
 40
0
 40
0
 40
0
 40
1
 40
1
 40
1
 40
1
 10
98.777778
 20
118.255562
 30
0.0
 10
100.572703
 20
118.255562
 30
0.0
 10
102.027778
 20
116.800487
 30
0.0
 10
102.027778
 20
115.005562
 30
0.0
  0
LWPOLYLINE
  5
154
100
AcDbEntity
  8
Layer_1
 62
7
100
AcDbPolyline
 90
2
 70
0
 10
114.727779
 20
115.005562
 30
0.0
 10
114.727779
 20
115.005562
 30
0.0
  0
SPLINE
  5
155
100
AcDbEntity
  8
Layer_1
 62
7
100
AcDbSpline
 70
8
 71
3
 72
8
 73
4
 74
0
 40
0
 40
0
 40
0
 40
0
 40
1
 40
1
 40
1
 40
1
 10
95.677778
 20
102.305562
 30
0.0
 10
95.677778
 20
100.510642
 30
0.0
 10
94.222703
 20
99.055562
 30
0.0
 10
92.427778
 20
99.055562
 30
0.0
  0
SPLINE
  5
156
100
AcDbEntity
  8
Layer_1
 62
7
100
AcDbSpline
 70
8
 71
3
 72
8
 73
4
 74
0
 40
0
 40
0
 40
0
 40
0
 40
1
 40
1
 40
1
 40
1
 10
92.427778
 20
99.055562
 30
0.0
 10
90.632852
 20
99.055562
 30
0.0
 10
89.177779
 20
100.510642
 30
0.0
 10
89.177779
 20
102.305562
 30
0.0
  0
SPLINE
  5
157
100
AcDbEntity
  8
Layer_1
 62
7
100
AcDbSpline
 70
8
 71
3
 72
8
 73
4
 74
0
 40
0
 40
0
 40
0
 40
0
 40
1
 40
1
 40
1
 40
1
 10
89.177779
 20
102.305562
 30
0.0
 10
89.177779
 20
104.100492
 30
0.0
 10
90.632852
 20
105.555562
 30
0.0
 10
92.427778
 20
105.555562
 30
0.0
  0
SPLINE
  5
158
100
AcDbEntity
  8
Layer_1
 62
7
100
AcDbSpline
 70
8
 71
3
 72
8
 73
4
 74
0
 40
0
 40
0
 40
0
 40
0
 40
1
 40
1
 40
1
 40
1
 10
92.427778
 20
105.555562
 30
0.0
 10
94.222703
 20
105.555562
 30
0.0
 10
95.677778
 20
104.100492
 30
0.0
 10
95.677778
 20
102.305562
 30
0.0
  0
LWPOLYLINE
  5
159
100
AcDbEntity
  8
Layer_1
 62
7
100
AcDbPolyline
 90
2
 70
0
 10
102.027778
 20
115.005562
 30
0.0
 10
102.027778
 20
115.005562
 30
0.0
  0
SPLINE
  5
15a
100
AcDbEntity
  8
Layer_1
 62
7
100
AcDbSpline
 70
8
 71
3
 72
8
 73
4
 74
0
 40
0
 40
0
 40
0
 40
0
 40
1
 40
1
 40
1
 40
1
 10
108.377778
 20
102.305562
 30
0.0
 10
108.377778
 20
100.510642
 30
0.0
 10
106.922704
 20
99.055562
 30
0.0
 10
105.127778
 20
99.055562
 30
0.0
  0
SPLINE
  5
15b
100
AcDbEntity
  8
Layer_1
 62
7
100
AcDbSpline
 70
8
 71
3
 72
8
 73
4
 74
0
 40
0
 40
0
 40
0
 40
0
 40
1
 40
1
 40
1
 40
1
 10
105.127778
 20
99.055562
 30
0.0
 10
103.332853
 20
99.055562
 30
0.0
 10
101.877778
 20
100.510642
 30
0.0
 10
101.877778
 20
102.305562
 30
0.0
  0
SPLINE
  5
15c
100
AcDbEntity
  8
Layer_1
 62
7
100
AcDbSpline
 70
8
 71
3
 72
8
 73
4
 74
0
 40
0
 40
0
 40
0
 40
0
 40
1
 40
1
 40
1
 40
1
 10
101.877778
 20
102.305562
 30
0.0
 10
101.877778
 20
104.100492
 30
0.0
 10
103.332853
 20
105.555562
 30
0.0
 10
105.127778
 20
105.555562
 30
0.0
  0
SPLINE
  5
15d
100
AcDbEntity
  8
Layer_1
 62
7
100
AcDbSpline
 70
8
 71
3
 72
8
 73
4
 74
0
 40
0
 40
0
 40
0
 40
0
 40
1
 40
1
 40
1
 40
1
 10
105.127778
 20
105.555562
 30
0.0
 10
106.922704
 20
105.555562
 30
0.0
 10
108.377778
 20
104.100492
 30
0.0
 10
108.377778
 20
102.305562
 30
0.0
  0
LWPOLYLINE
  5
15e
100
AcDbEntity
  8
Layer_1
 62
7
100
AcDbPolyline
 90
2
 70
0
 10
95.677778
 20
102.305562
 30
0.0
 10
95.677778
 20
102.305562
 30
0.0
  0
SPLINE
  5
15f
100
AcDbEntity
  8
Layer_1
 62
7
100
AcDbSpline
 70
8
 71
3
 72
8
 73
4
 74
0
 40
0
 40
0
 40
0
 40
0
 40
1
 40
1
 40
1
 40
1
 10
82.977778
 20
102.305562
 30
0.0
 10
82.977778
 20
100.510642
 30
0.0
 10
81.522704
 20
99.055562
 30
0.0
 10
79.727779
 20
99.055562
 30
0.0
  0
SPLINE
  5
160
100
AcDbEntity
  8
Layer_1
 62
7
100
AcDbSpline
 70
8
 71
3
 72
8
 73
4
 74
0
 40
0
 40
0
 40
0
 40
0
 40
1
 40
1
 40
1
 40
1
 10
79.727779
 20
99.055562
 30
0.0
 10
77.932853
 20
99.055562
 30
0.0
 10
76.477779
 20
100.510642
 30
0.0
 10
76.477779
 20
102.305562
 30
0.0
  0
SPLINE
  5
161
100
AcDbEntity
  8
Layer_1
 62
7
100
AcDbSpline
 70
8
 71
3
 72
8
 73
4
 74
0
 40
0
 40
0
 40
0
 40
0
 40
1
 40
1
 40
1
 40
1
 10
76.477779
 20
102.305562
 30
0.0
 10
76.477779
 20
104.100492
 30
0.0
 10
77.932853
 20
105.555562
 30
0.0
 10
79.727779
 20
105.555562
 30
0.0
  0
SPLINE
  5
162
100
AcDbEntity
  8
Layer_1
 62
7
100
AcDbSpline
 70
8
 71
3
 72
8
 73
4
 74
0
 40
0
 40
0
 40
0
 40
0
 40
1
 40
1
 40
1
 40
1
 10
79.727779
 20
105.555562
 30
0.0
 10
81.522704
 20
105.555562
 30
0.0
 10
82.977778
 20
104.100492
 30
0.0
 10
82.977778
 20
102.305562
 30
0.0
  0
LWPOLYLINE
  5
163
100
AcDbEntity
  8
Layer_1
 62
7
100
AcDbPolyline
 90
2
 70
0
 10
108.377778
 20
102.305562
 30
0.0
 10
108.377778
 20
102.305562
 30
0.0
  0
SPLINE
  5
164
100
AcDbEntity
  8
Layer_1
 62
7
100
AcDbSpline
 70
8
 71
3
 72
8
 73
4
 74
0
 40
0
 40
0
 40
0
 40
0
 40
1
 40
1
 40
1
 40
1
 10
121.077777
 20
102.305562
 30
0.0
 10
121.077777
 20
100.510642
 30
0.0
 10
119.622703
 20
99.055562
 30
0.0
 10
117.827777
 20
99.055562
 30
0.0
  0
SPLINE
  5
165
100
AcDbEntity
  8
Layer_1
 62
7
100
AcDbSpline
 70
8
 71
3
 72
8
 73
4
 74
0
 40
0
 40
0
 40
0
 40
0
 40
1
 40
1
 40
1
 40
1
 10
117.827777
 20
99.055562
 30
0.0
 10
116.032852
 20
99.055562
 30
0.0
 10
114.577777
 20
100.510642
 30
0.0
 10
114.577777
 20
102.305562
 30
0.0
  0
SPLINE
  5
166
100
AcDbEntity
  8
Layer_1
 62
7
100
AcDbSpline
 70
8
 71
3
 72
8
 73
4
 74
0
 40
0
 40
0
 40
0
 40
0
 40
1
 40
1
 40
1
 40
1
 10
114.577777
 20
102.305562
 30
0.0
 10
114.577777
 20
104.100492
 30
0.0
 10
116.032852
 20
105.555562
 30
0.0
 10
117.827777
 20
105.555562
 30
0.0
  0
SPLINE
  5
167
100
AcDbEntity
  8
Layer_1
 62
7
100
AcDbSpline
 70
8
 71
3
 72
8
 73
4
 74
0
 40
0
 40
0
 40
0
 40
0
 40
1
 40
1
 40
1
 40
1
 10
117.827777
 20
105.555562
 30
0.0
 10
119.622703
 20
105.555562
 30
0.0
 10
121.077777
 20
104.100492
 30
0.0
 10
121.077777
 20
102.305562
 30
0.0
  0
LWPOLYLINE
  5
168
100
AcDbEntity
  8
Layer_1
 62
7
100
AcDbPolyline
 90
2
 70
0
 10
82.977778
 20
102.305562
 30
0.0
 10
82.977778
 20
102.305562
 30
0.0
  0
LWPOLYLINE
  5
169
100
AcDbEntity
  8
Layer_1
 62
7
100
AcDbPolyline
 90
2
 70
0
 10
121.077777
 20
102.305562
 30
0.0
 10
121.077777
 20
102.305562
 30
0.0
  0
ENDSEC
  0
SECTION
  2
OBJECTS
  0
DICTIONARY
  5
C
330
0
100
AcDbDictionary
  3
ACAD_GROUP
350
D
  3
ACAD_MLINESTYLE
350
17
  0
DICTIONARY
  5
D
330
C
100
AcDbDictionary
  0
DICTIONARY
  5
1A
330
C
100
AcDbDictionary
  0
DICTIONARY
  5
17
330
C
100
AcDbDictionary
  3
STANDARD
350
18
  0
DICTIONARY
  5
19
330
C
100
AcDbDictionary
  0
ENDSEC
  0
EOF
