<?xml version="1.0" encoding="UTF-8" standalone="no"?>
<!-- Created with Inkscape (http://www.inkscape.org/) -->

<svg
   xmlns:dc="http://purl.org/dc/elements/1.1/"
   xmlns:cc="http://creativecommons.org/ns#"
   xmlns:rdf="http://www.w3.org/1999/02/22-rdf-syntax-ns#"
   xmlns:svg="http://www.w3.org/2000/svg"
   xmlns="http://www.w3.org/2000/svg"
   xmlns:xlink="http://www.w3.org/1999/xlink"
   xmlns:sodipodi="http://sodipodi.sourceforge.net/DTD/sodipodi-0.dtd"
   xmlns:inkscape="http://www.inkscape.org/namespaces/inkscape"
   id="svg4373"
   version="1.1"
   inkscape:version="0.92.4 (5da689c313, 2019-01-14)"
   width="210mm"
   height="297mm"
   xml:space="preserve"
   sodipodi:docname="StoicheiaLabels.svg"><metadata
     id="metadata4379"><rdf:RDF><cc:Work
         rdf:about=""><dc:format>image/svg+xml</dc:format><dc:type
           rdf:resource="http://purl.org/dc/dcmitype/StillImage" /><dc:title /></cc:Work></rdf:RDF></metadata><defs
     id="defs4377"><clipPath
       clipPathUnits="userSpaceOnUse"
       id="clipPath4387"><path
         d="M 0,0 H 595.276 V 841.89 H 0 Z"
         id="path4389"
         inkscape:connector-curvature="0" /></clipPath><clipPath
       clipPathUnits="userSpaceOnUse"
       id="clipPath4421"><path
         d="M 0,0 H 595.276 V 841.89 H 0 Z"
         id="path4423"
         inkscape:connector-curvature="0" /></clipPath><clipPath
       clipPathUnits="userSpaceOnUse"
       id="clipPath4443"><path
         d="M 0,0 H 595.276 V 841.89 H 0 Z"
         id="path4445"
         inkscape:connector-curvature="0" /></clipPath><clipPath
       clipPathUnits="userSpaceOnUse"
       id="clipPath7941"><path
         inkscape:connector-curvature="0"
         d="M 0,0 H 595.276 V 841.89 H 0 Z"
         id="path7943" /></clipPath><clipPath
       clipPathUnits="userSpaceOnUse"
       id="clipPath7975"><path
         inkscape:connector-curvature="0"
         d="M 0,0 H 595.276 V 841.89 H 0 Z"
         id="path7977" /></clipPath><clipPath
       clipPathUnits="userSpaceOnUse"
       id="clipPath7997"><path
         inkscape:connector-curvature="0"
         d="M 0,0 H 595.276 V 841.89 H 0 Z"
         id="path7999" /></clipPath></defs><sodipodi:namedview
     pagecolor="#ffffff"
     bordercolor="#666666"
     borderopacity="1"
     objecttolerance="10"
     gridtolerance="10"
     guidetolerance="10"
     inkscape:pageopacity="0"
     inkscape:pageshadow="2"
     inkscape:window-width="1920"
     inkscape:window-height="1016"
     id="namedview4375"
     showgrid="false"
     inkscape:zoom="2.2105334"
     inkscape:cx="176.1119"
     inkscape:cy="137.71538"
     inkscape:window-x="0"
     inkscape:window-y="27"
     inkscape:window-maximized="1"
     inkscape:current-layer="flowRoot3001"
     inkscape:document-units="mm"
     showguides="false"
     inkscape:guide-bbox="true"
     units="mm" /><g
     id="g4381"
     inkscape:groupmode="layer"
     inkscape:label="Label Planet LP21 70 Portrait"
     transform="matrix(1.25,0,0,-1.25,0,1122.5196)"><g
       id="g4685"
       transform="matrix(1.0000045,0,0,1,2.1271094,-719.21062)"
       inkscape:tile-cx="123.85937"
       inkscape:tile-cy="977.36505"
       inkscape:tile-w="203.15552"
       inkscape:tile-h="129.62935"
       inkscape:tile-x0="22.281616"
       inkscape:tile-y0="912.55037"><g
         id="flowRoot2985"
         style="font-style:normal;font-variant:normal;font-weight:normal;font-stretch:normal;font-size:40px;line-height:125%;font-family:'More than human';-inkscape-font-specification:'More than human';text-align:start;letter-spacing:0px;word-spacing:0px;writing-mode:lr-tb;text-anchor:start;fill:#000000;fill-opacity:1;stroke:none"
         transform="matrix(0.68631727,0,0,-0.68631727,-31.837369,883.75758)"><path
           id="path3134"
           style="font-size:30px;line-height:125%;font-family:'More than human';-inkscape-font-specification:'More than human'"
           d="m 79.5375,81.455617 h -2.55 v 9.21 l 2.55,-1.29 v -7.92 m 1.2,-1.2 v 9.87 l -4.95,2.49 v -12.36 h 4.95 m -7.5,19.920003 -0.63,5.76 -0.57,-5.76 V 76.505617 h 12.45 v 15.93 l -2.97,1.5 2.97,1.56 v 4.680003 l -0.63,5.76 -0.57,-5.76 v -3.960003 l -4.38,-2.31 4.38,-2.19 v -14.01 h -10.05 v 22.470003 m 3.75,0 -0.63,5.76 -0.57,-5.76 v -4.890003 l 4.95,2.58 v 2.310003 l -0.63,5.76 -0.57,-5.76 v -1.590003 l -2.52,-1.32 v 2.910003 h -0.03"
           inkscape:connector-curvature="0" /><path
           id="path3136"
           style="font-size:30px;line-height:125%;font-family:'More than human';-inkscape-font-specification:'More than human'"
           d="m 100.13203,102.57562 -0.629999,5.76 -0.57,-5.76 v -6.120003 h -7.5 v -4.98 h 7.5 v -2.52 h -7.5 v -8.73 h 4.95 v 3.75 h 2.55 v -6.27 h -10.05 v 23.070003 l -0.63,5.76 -0.57,-5.76 V 76.505617 h 12.449999 v 8.67 h -4.949999 v -3.75 h -2.55 v 6.33 h 7.499999 v 4.92 h -7.499999 v 2.58 h 7.499999 v 7.320003"
           inkscape:connector-curvature="0" /><path
           id="path3139"
           style="font-size:30px;line-height:125%;font-family:'More than human';-inkscape-font-specification:'More than human'"
           d="m 110.70937,81.455617 h -2.55 v 5.46 l 2.55,-1.29 v -4.17 m 1.2,-1.2 v 6.12 l -4.95,2.49 v -8.61 h 4.95 m -1.2,14.55 -2.55,-1.29 v 1.71 h 2.55 v -0.42 m 1.2,-0.75 v 2.37 h -4.95 v -4.86 l 4.95,2.49 m 3.75,5.82 -0.62999,5.760003 -0.57001,-5.760003 v -7.41 l -4.37999,-2.31 4.37999,-2.19 v -10.26 h -10.05 v 24.570003 l -0.62999,5.76 -0.57001,-5.76 V 76.505617 h 12.45 v 12.18 l -2.97,1.5 2.97,1.56 v 8.13"
           inkscape:connector-curvature="0" /><path
           id="path3141"
           style="font-size:30px;line-height:125%;font-family:'More than human';-inkscape-font-specification:'More than human'"
           d="m 131.30391,102.57562 -0.63,5.76 -0.57,-5.76 v -6.120003 h -7.5 v -4.98 h 7.5 v -2.52 h -7.5 v -8.73 h 4.95 v 3.75 h 2.55 v -6.27 h -10.05 v 23.070003 l -0.63,5.76 -0.57,-5.76 V 76.505617 h 12.45 v 8.67 h -4.95 v -3.75 h -2.55 v 6.33 h 7.5 v 4.92 h -7.5 v 2.58 h 7.5 v 7.320003"
           inkscape:connector-curvature="0" /><path
           id="path3143"
           style="font-size:30px;line-height:125%;font-family:'More than human';-inkscape-font-specification:'More than human'"
           d="m 143.08125,99.575617 -0.63,5.760003 -0.57,-5.760003 v -3.12 h -3.75 v -18.75 h -2.55 v 24.570003 l -0.63,5.76 -0.57,-5.76 V 76.505617 h 4.95 v 18.75 h 3.75 v 4.32"
           inkscape:connector-curvature="0" /><path
           id="path3145"
           style="font-size:30px;line-height:125%;font-family:'More than human';-inkscape-font-specification:'More than human'"
           d="m 169.38984,100.17562 -0.63,5.76 -0.57,-5.76 V 80.225617 h 3.75 v -2.52 h -10.05 v 2.52 h 3.75 v 19.950003 l -0.63,5.76 -0.57,-5.76 V 81.425617 h -3.75 v -4.92 h 12.45 v 4.92 h -3.75 v 18.750003"
           inkscape:connector-curvature="0" /><path
           id="path3147"
           style="font-size:30px;line-height:125%;font-family:'More than human';-inkscape-font-specification:'More than human'"
           d="m 188.37422,102.57562 -0.63,5.76 -0.57,-5.76 v -6.120003 h -7.5 v -4.98 h 7.5 v -2.52 h -7.5 v -8.73 h 4.95 v 3.75 h 2.55 v -6.27 h -10.05 v 23.070003 l -0.63,5.76 -0.57,-5.76 V 76.505617 h 12.45 v 8.67 h -4.95 v -3.75 h -2.55 v 6.33 h 7.5 v 4.92 h -7.5 v 2.58 h 7.5 v 7.320003"
           inkscape:connector-curvature="0" /><path
           id="path3149"
           style="font-size:30px;line-height:125%;font-family:'More than human';-inkscape-font-specification:'More than human'"
           d="m 203.90156,102.27562 -0.63,5.76 -0.57,-5.76 v -9.570003 h -2.55 v 3.75 h -4.95 v -16.23 h 4.95 v 3.75 h 2.55 v -6.27 h -10.05 v 22.17 l -0.63,5.760003 -0.57,-5.760003 v -23.37 h 12.45 v 8.67 h -4.95 v -3.75 h -2.55 v 13.83 h 2.55 v -3.75 h 4.95 v 10.770003"
           inkscape:connector-curvature="0" /><path
           id="path3151"
           style="font-size:30px;line-height:125%;font-family:'More than human';-inkscape-font-specification:'More than human'"
           d="m 219.37031,100.77562 -0.63,5.76 -0.57,-5.76 V 77.705617 h -2.55 v 15 h -4.95 v -15 h -2.55 v 22.17 l -0.63,5.760003 -0.57,-5.760003 v -23.37 h 4.95 v 15 h 2.55 v -15 h 4.95 v 24.270003 m -3.75,-1.500003 -0.63,5.760003 -0.57,-5.760003 v -2.85 h -2.55 v 7.050003 l -0.63,5.76 -0.57,-5.76 v -8.250003 h 4.95 v 4.05"
           inkscape:connector-curvature="0" /><path
           id="path3153"
           style="font-size:30px;line-height:125%;font-family:'More than human';-inkscape-font-specification:'More than human'"
           d="m 231.44484,100.17562 -0.63,5.76 -0.57,-5.76 -2.7,-7.890003 v 7.29 l -0.63,5.760003 -0.57,-5.760003 h -0.03 l 0.03,-14.43 5.1,15.030003 m 3.57,0.9 -0.63,5.76 -0.57,-5.76 V 77.705617 h -2.58 v 13.83 l -4.77,-13.83 h -2.7 v 25.770003 l -0.63,5.76 -0.57,-5.76 V 76.505617 h 4.77 l 2.7,7.89 v -7.89 h 4.98 v 24.570003"
           inkscape:connector-curvature="0" /><path
           id="path3155"
           style="font-size:30px;line-height:125%;font-family:'More than human';-inkscape-font-specification:'More than human'"
           d="m 245.70937,81.455617 h -2.55 v 13.77 h 2.55 v -13.77 m 1.2,-1.2 v 16.17 h -4.95 v -16.17 h 4.95 m 3.75,19.62 -0.63,5.760003 -0.57,-5.760003 v -22.17 h -10.05 v 25.470003 l -0.63,5.76 -0.57,-5.76 V 76.505617 h 12.45 v 23.37"
           inkscape:connector-curvature="0" /><path
           id="path3157"
           style="font-size:30px;line-height:125%;font-family:'More than human';-inkscape-font-specification:'More than human'"
           d="m 262.55391,99.575617 -0.63,5.760003 -0.57,-5.760003 v -3.12 h -3.75 v -18.75 h -2.55 v 24.570003 l -0.63,5.76 -0.57,-5.76 V 76.505617 h 4.95 v 18.75 h 3.75 v 4.32"
           inkscape:connector-curvature="0" /><path
           id="path3159"
           style="font-size:30px;line-height:125%;font-family:'More than human';-inkscape-font-specification:'More than human'"
           d="m 272.6625,81.455617 h -2.55 v 13.77 h 2.55 v -13.77 m 1.2,-1.2 v 16.17 h -4.95 v -16.17 h 4.95 m 3.75,19.62 -0.63,5.760003 -0.57,-5.760003 v -22.17 h -10.05 v 25.470003 l -0.63,5.76 -0.57,-5.76 V 76.505617 h 12.45 v 23.37"
           inkscape:connector-curvature="0" /><path
           id="path3161"
           style="font-size:30px;line-height:125%;font-family:'More than human';-inkscape-font-specification:'More than human'"
           d="m 293.25703,101.97562 -0.63,5.76 -0.57,-5.76 V 88.955617 h -2.55 v 7.5 h -4.95 v -16.23 h 4.95 v 3.75 h 2.55 v -6.27 h -10.05 v 21.87 l -0.63,5.760003 -0.57,-5.760003 v -23.07 h 12.45 v 8.67 h -4.95 v -3.75 h -2.55 v 13.83 h 2.55 v -7.5 h 4.95 v 14.220003"
           inkscape:connector-curvature="0" /><path
           id="path3163"
           style="font-size:30px;line-height:125%;font-family:'More than human';-inkscape-font-specification:'More than human'"
           d="m 308.84297,99.575617 -0.63,5.760003 -0.57,-5.760003 v -21.87 h -2.55 v 11.25 h -4.95 v -11.25 h -2.55 v 13.77 h 7.5 v 4.98 h -7.5 v 7.320003 l -0.63,5.76 -0.57,-5.76 v -8.520003 h 7.5 v -2.58 h -7.5 v -16.17 h 4.95 v 11.25 h 2.55 v -11.25 h 4.95 v 23.07"
           inkscape:connector-curvature="0" /></g><g
         id="flowRoot3001"
         style="font-style:normal;font-variant:normal;font-weight:normal;font-stretch:normal;font-size:12px;line-height:125%;font-family:Sans;-inkscape-font-specification:Sans;text-align:start;letter-spacing:0px;word-spacing:0px;writing-mode:lr-tb;text-anchor:start;fill:#000000;fill-opacity:1;stroke:none"
         transform="matrix(0.68631727,0,0,-0.68631727,5.38946,925.0153)"><path
   id="path3213"
   style="font-size:10px;line-height:125%;font-family:Sans;-inkscape-font-specification:Sans"
   d="m 23.426757,260.72726 c 0.21159,0.0716 0.41666,0.22462 0.61524,0.45899 0.20181,0.23437 0.40364,0.55664 0.60547,0.96679 l 1.00097,1.99219 h -1.05957 l -0.93261,-1.87012 c -0.24089,-0.48827 -0.47527,-0.81217 -0.70313,-0.97168 -0.22461,-0.1595 -0.53223,-0.23925 -0.92285,-0.23925 h -1.07422 v 3.08105 h -0.98633 v -7.29004 h 2.22656 c 0.83333,1e-5 1.45508,0.17416 1.86524,0.52246 0.41015,0.34832 0.61523,0.87403 0.61523,1.57715 0,0.45899 -0.10742,0.83985 -0.32226,1.14258 -0.2116,0.30274 -0.52084,0.5127 -0.92774,0.62988 m -2.4707,-3.06152 v 2.58789 h 1.24023 c 0.47526,0 0.83333,-0.10905 1.07422,-0.32715 0.24414,-0.22135 0.36621,-0.54524 0.36621,-0.97168 0,-0.42642 -0.12207,-0.74706 -0.36621,-0.96191 -0.24089,-0.21809 -0.59896,-0.32714 -1.07422,-0.32715 h -1.24023"
   inkscape:connector-curvature="0" /><path
   id="path3215"
   style="font-size:10px;line-height:125%;font-family:Sans;-inkscape-font-specification:Sans"
   d="m 31.112307,261.18625 v 0.43945 h -4.13086 c 0.0391,0.61849 0.22461,1.0905 0.55664,1.41602 0.33529,0.32226 0.80078,0.4834 1.39649,0.48339 0.34504,1e-5 0.6787,-0.0423 1.00097,-0.12695 0.32552,-0.0846 0.64778,-0.21159 0.9668,-0.38086 v 0.84961 c -0.32227,0.13672 -0.65268,0.24089 -0.99121,0.3125 -0.33855,0.0716 -0.68197,0.10742 -1.03028,0.10742 -0.87239,0 -1.56413,-0.2539 -2.07519,-0.76172 -0.50781,-0.50781 -0.76172,-1.19466 -0.76172,-2.06054 0,-0.89518 0.24088,-1.60482 0.72266,-2.12891 0.48502,-0.52734 1.13769,-0.79101 1.958,-0.79101 0.73568,0 1.31673,0.23763 1.74317,0.71289 0.42968,0.47201 0.64452,1.11491 0.64453,1.92871 m -0.89844,-0.26367 c -0.007,-0.49154 -0.14486,-0.88379 -0.41504,-1.17676 -0.26693,-0.29297 -0.62175,-0.43945 -1.06445,-0.43946 -0.5013,1e-5 -0.90332,0.14161 -1.20605,0.42481 -0.29949,0.28321 -0.47201,0.68197 -0.51758,1.19629 l 3.20312,-0.005"
   inkscape:connector-curvature="0" /><path
   id="path3217"
   style="font-size:10px;line-height:125%;font-family:Sans;-inkscape-font-specification:Sans"
   d="m 36.512697,261.41574 c 0,-0.6608 -0.13672,-1.17838 -0.41016,-1.55273 -0.27018,-0.3776 -0.6429,-0.56641 -1.11816,-0.56641 -0.47526,0 -0.84961,0.18881 -1.12305,0.56641 -0.27018,0.37435 -0.40527,0.89193 -0.40527,1.55273 0,0.66081 0.13509,1.18001 0.40527,1.55762 0.27344,0.37435 0.64779,0.56152 1.12305,0.56152 0.47526,0 0.84798,-0.18717 1.11816,-0.56152 0.27344,-0.37761 0.41016,-0.89681 0.41016,-1.55762 m -3.05664,-1.90918 c 0.1888,-0.32552 0.42643,-0.5664 0.71289,-0.72266 0.28971,-0.1595 0.63476,-0.23925 1.03516,-0.23925 0.66405,0 1.20279,0.26367 1.61621,0.79101 0.41666,0.52735 0.62499,1.22071 0.625,2.08008 -1e-5,0.85938 -0.20834,1.55273 -0.625,2.08008 -0.41342,0.52734 -0.95216,0.79101 -1.61621,0.79101 -0.4004,0 -0.74545,-0.0781 -1.03516,-0.23437 -0.28646,-0.15951 -0.52409,-0.40202 -0.71289,-0.72754 v 0.82031 h -0.90332 v -7.59765 h 0.90332 v 2.95898"
   inkscape:connector-curvature="0" /><path
   id="path3219"
   style="font-size:10px;line-height:125%;font-family:Sans;-inkscape-font-specification:Sans"
   d="m 43.612307,261.18625 v 0.43945 h -4.13086 c 0.0391,0.61849 0.22461,1.0905 0.55664,1.41602 0.33529,0.32226 0.80078,0.4834 1.39649,0.48339 0.34504,1e-5 0.6787,-0.0423 1.00097,-0.12695 0.32552,-0.0846 0.64778,-0.21159 0.9668,-0.38086 v 0.84961 c -0.32227,0.13672 -0.65268,0.24089 -0.99121,0.3125 -0.33855,0.0716 -0.68197,0.10742 -1.03028,0.10742 -0.87239,0 -1.56413,-0.2539 -2.07519,-0.76172 -0.50781,-0.50781 -0.76172,-1.19466 -0.76172,-2.06054 0,-0.89518 0.24088,-1.60482 0.72266,-2.12891 0.48502,-0.52734 1.13769,-0.79101 1.958,-0.79101 0.73568,0 1.31673,0.23763 1.74317,0.71289 0.42968,0.47201 0.64452,1.11491 0.64453,1.92871 m -0.89844,-0.26367 c -0.007,-0.49154 -0.14486,-0.88379 -0.41504,-1.17676 -0.26693,-0.29297 -0.62175,-0.43945 -1.06445,-0.43946 -0.5013,1e-5 -0.90332,0.14161 -1.20605,0.42481 -0.29949,0.28321 -0.47201,0.68197 -0.51758,1.19629 l 3.20312,-0.005"
   inkscape:connector-curvature="0" /><path
   id="path3221"
   style="font-size:10px;line-height:125%;font-family:Sans;-inkscape-font-specification:Sans"
   d="m 45.086917,256.54758 h 0.89844 v 7.59765 h -0.89844 v -7.59765"
   inkscape:connector-curvature="0" /><path
   id="path3223"
   style="font-size:10px;line-height:125%;font-family:Sans;-inkscape-font-specification:Sans"
   d="m 50.072267,256.85519 h 6.16699 v 0.83008 h -2.58789 v 6.45996 h -0.99121 v -6.45996 h -2.58789 v -0.83008"
   inkscape:connector-curvature="0" /><path
   id="path3225"
   style="font-size:10px;line-height:125%;font-family:Sans;-inkscape-font-specification:Sans"
   d="m 60.135747,261.18625 v 0.43945 h -4.13086 c 0.0391,0.61849 0.22461,1.0905 0.55664,1.41602 0.33528,0.32226 0.80078,0.4834 1.39648,0.48339 0.34505,1e-5 0.67871,-0.0423 1.00098,-0.12695 0.32552,-0.0846 0.64778,-0.21159 0.9668,-0.38086 v 0.84961 c -0.32227,0.13672 -0.65268,0.24089 -0.99121,0.3125 -0.33855,0.0716 -0.68197,0.10742 -1.03028,0.10742 -0.8724,0 -1.56413,-0.2539 -2.07519,-0.76172 -0.50782,-0.50781 -0.76172,-1.19466 -0.76172,-2.06054 0,-0.89518 0.24088,-1.60482 0.72265,-2.12891 0.48503,-0.52734 1.1377,-0.79101 1.95801,-0.79101 0.73567,0 1.31673,0.23763 1.74317,0.71289 0.42968,0.47201 0.64452,1.11491 0.64453,1.92871 m -0.89844,-0.26367 c -0.007,-0.49154 -0.14486,-0.88379 -0.41504,-1.17676 -0.26693,-0.29297 -0.62175,-0.43945 -1.06445,-0.43946 -0.50131,1e-5 -0.90333,0.14161 -1.20606,0.42481 -0.29948,0.28321 -0.472,0.68197 -0.51758,1.19629 l 3.20313,-0.005"
   inkscape:connector-curvature="0" /><path
   id="path3227"
   style="font-size:10px;line-height:125%;font-family:Sans;-inkscape-font-specification:Sans"
   d="m 65.545897,258.88644 v 0.83985 c -0.25391,-0.13997 -0.50944,-0.24414 -0.7666,-0.3125 -0.25391,-0.0716 -0.51107,-0.10742 -0.77148,-0.10743 -0.58269,1e-5 -1.03516,0.18556 -1.35742,0.55665 -0.32227,0.36784 -0.4834,0.88542 -0.4834,1.55273 0,0.66732 0.16113,1.18652 0.4834,1.55762 0.32226,0.36784 0.77473,0.55176 1.35742,0.55175 0.26041,1e-5 0.51757,-0.0342 0.77148,-0.10253 0.25716,-0.0716 0.51269,-0.17741 0.7666,-0.31739 v 0.83008 c -0.25065,0.11719 -0.51107,0.20508 -0.78125,0.26367 -0.26693,0.0586 -0.55176,0.0879 -0.85449,0.0879 -0.82357,0 -1.47787,-0.25879 -1.96289,-0.77636 -0.48503,-0.51758 -0.72754,-1.21582 -0.72754,-2.09473 0,-0.89192 0.24414,-1.59342 0.73242,-2.10449 0.49154,-0.51107 1.16374,-0.7666 2.0166,-0.7666 0.27669,0 0.54688,0.0293 0.81055,0.0879 0.26367,0.0553 0.5192,0.13998 0.7666,0.2539"
   inkscape:connector-curvature="0" /><path
   id="path3229"
   style="font-size:10px;line-height:125%;font-family:Sans;-inkscape-font-specification:Sans"
   d="m 71.664067,260.84445 v 3.30078 h -0.89844 v -3.27148 c 0,-0.51758 -0.10092,-0.90495 -0.30273,-1.16211 -0.20183,-0.25716 -0.50457,-0.38574 -0.90821,-0.38574 -0.48503,0 -0.86751,0.15462 -1.14746,0.46386 -0.27995,0.30925 -0.41992,0.7308 -0.41992,1.26465 v 3.09082 h -0.90332 v -7.59765 h 0.90332 v 2.97851 c 0.21484,-0.32877 0.46712,-0.57454 0.75684,-0.7373 0.29296,-0.16276 0.62988,-0.24414 1.01074,-0.24414 0.62825,0 1.10351,0.19531 1.42578,0.58593 0.32226,0.38738 0.48339,0.95867 0.4834,1.71387"
   inkscape:connector-curvature="0" /><path
   id="path3231"
   style="font-size:10px;line-height:125%;font-family:Sans;-inkscape-font-specification:Sans"
   d="m 78.011717,260.84445 v 3.30078 h -0.89843 v -3.27148 c -1e-5,-0.51758 -0.10092,-0.90495 -0.30274,-1.16211 -0.20183,-0.25716 -0.50456,-0.38574 -0.9082,-0.38574 -0.48503,0 -0.86752,0.15462 -1.14746,0.46386 -0.27995,0.30925 -0.41993,0.7308 -0.41992,1.26465 v 3.09082 h -0.90332 v -5.46875 h 0.90332 v 0.84961 c 0.21484,-0.32877 0.46712,-0.57454 0.75683,-0.7373 0.29297,-0.16276 0.62988,-0.24414 1.01074,-0.24414 0.62826,0 1.10352,0.19531 1.42579,0.58593 0.32226,0.38738 0.48339,0.95867 0.48339,1.71387"
   inkscape:connector-curvature="0" /><path
   id="path3233"
   style="font-size:10px;line-height:125%;font-family:Sans;-inkscape-font-specification:Sans"
   d="m 81.932617,259.30636 c -0.48177,1e-5 -0.86263,0.18881 -1.14258,0.56641 -0.27995,0.37435 -0.41992,0.88868 -0.41992,1.54297 0,0.6543 0.13835,1.17025 0.41504,1.54785 0.27995,0.37435 0.66243,0.56153 1.14746,0.56152 0.47851,1e-5 0.85775,-0.1888 1.1377,-0.5664 0.27994,-0.3776 0.41991,-0.89193 0.41992,-1.54297 -10e-6,-0.64778 -0.13998,-1.16048 -0.41992,-1.53809 -0.27995,-0.38085 -0.65919,-0.57128 -1.1377,-0.57129 m 0,-0.76171 c 0.78125,0 1.39485,0.25391 1.84082,0.76171 0.44596,0.50782 0.66894,1.21095 0.66895,2.10938 -1e-5,0.89518 -0.22299,1.59831 -0.66895,2.10937 -0.44597,0.50782 -1.05957,0.76172 -1.84082,0.76172 -0.78451,0 -1.39974,-0.2539 -1.8457,-0.76172 -0.44271,-0.51106 -0.66406,-1.21419 -0.66406,-2.10937 0,-0.89843 0.22135,-1.60156 0.66406,-2.10938 0.44596,-0.5078 1.06119,-0.76171 1.8457,-0.76171"
   inkscape:connector-curvature="0" /><path
   id="path3235"
   style="font-size:10px;line-height:125%;font-family:Sans;-inkscape-font-specification:Sans"
   d="m 85.926757,256.54758 h 0.89844 v 7.59765 h -0.89844 v -7.59765"
   inkscape:connector-curvature="0" /><path
   id="path3237"
   style="font-size:10px;line-height:125%;font-family:Sans;-inkscape-font-specification:Sans"
   d="m 90.819337,259.30636 c -0.48177,1e-5 -0.86263,0.18881 -1.14258,0.56641 -0.27995,0.37435 -0.41992,0.88868 -0.41992,1.54297 0,0.6543 0.13835,1.17025 0.41504,1.54785 0.27995,0.37435 0.66243,0.56153 1.14746,0.56152 0.47851,1e-5 0.85774,-0.1888 1.1377,-0.5664 0.27994,-0.3776 0.41991,-0.89193 0.41992,-1.54297 -1e-5,-0.64778 -0.13998,-1.16048 -0.41992,-1.53809 -0.27996,-0.38085 -0.65919,-0.57128 -1.1377,-0.57129 m 0,-0.76171 c 0.78125,0 1.39485,0.25391 1.84082,0.76171 0.44596,0.50782 0.66894,1.21095 0.66895,2.10938 -10e-6,0.89518 -0.22299,1.59831 -0.66895,2.10937 -0.44597,0.50782 -1.05957,0.76172 -1.84082,0.76172 -0.78451,0 -1.39974,-0.2539 -1.8457,-0.76172 -0.44271,-0.51106 -0.66407,-1.21419 -0.66406,-2.10937 -1e-5,-0.89843 0.22135,-1.60156 0.66406,-2.10938 0.44596,-0.5078 1.06119,-0.76171 1.8457,-0.76171"
   inkscape:connector-curvature="0" /><path
   id="path3239"
   style="font-size:10px;line-height:125%;font-family:Sans;-inkscape-font-specification:Sans"
   d="m 98.412107,261.34738 c 0,-0.65104 -0.13509,-1.15559 -0.40527,-1.51367 -0.26693,-0.35807 -0.64291,-0.53711 -1.12793,-0.53711 -0.48177,0 -0.85775,0.17904 -1.12793,0.53711 -0.26693,0.35808 -0.40039,0.86263 -0.40039,1.51367 0,0.64779 0.13346,1.15072 0.40039,1.50879 0.27018,0.35807 0.64616,0.53711 1.12793,0.53711 0.48502,0 0.861,-0.17904 1.12793,-0.53711 0.27018,-0.35807 0.40527,-0.861 0.40527,-1.50879 m 0.89844,2.11914 c 0,0.93099 -0.20671,1.62272 -0.62012,2.0752 -0.41341,0.45572 -1.04655,0.68359 -1.89941,0.68359 -0.31576,0 -0.61361,-0.0244 -0.89355,-0.0732 -0.27995,-0.0456 -0.55176,-0.11719 -0.81543,-0.21485 v -0.87402 c 0.26367,0.14323 0.52408,0.24902 0.78125,0.31738 0.25716,0.0684 0.5192,0.10254 0.78613,0.10254 0.58919,0 1.03027,-0.15462 1.32324,-0.46386 0.29297,-0.306 0.43945,-0.76986 0.43945,-1.39161 v -0.44433 c -0.18555,0.32226 -0.42318,0.56315 -0.71289,0.72265 -0.28971,0.15951 -0.63639,0.23926 -1.04004,0.23926 -0.67057,0 -1.21093,-0.25553 -1.62109,-0.7666 -0.41016,-0.51107 -0.61523,-1.18815 -0.61523,-2.03125 0,-0.84635 0.20507,-1.52506 0.61523,-2.03613 0.41016,-0.51107 0.95052,-0.7666 1.62109,-0.7666 0.40365,0 0.75033,0.0797 1.04004,0.23925 0.28971,0.15951 0.52734,0.4004 0.71289,0.72266 v -0.83008 h 0.89844 v 4.79004"
   inkscape:connector-curvature="0" /><path
   id="path3241"
   style="font-size:10px;line-height:125%;font-family:Sans;-inkscape-font-specification:Sans"
   d="m 103.43653,264.65304 c -0.25391,0.65104 -0.50131,1.07585 -0.74219,1.27442 -0.24089,0.19856 -0.56315,0.29785 -0.9668,0.29785 h -0.71777 v -0.75195 h 0.52734 c 0.2474,0 0.43946,-0.0586 0.57618,-0.17578 0.13671,-0.11719 0.28808,-0.39389 0.4541,-0.83008 l 0.16113,-0.41016 -2.21191,-5.38086 h 0.95214 l 1.70899,4.27735 1.70898,-4.27735 h 0.95215 l -2.40234,5.97656"
   inkscape:connector-curvature="0" /><text
   xml:space="preserve"
   style="font-style:normal;font-weight:normal;font-size:9.94596863px;line-height:125%;font-family:Sans;letter-spacing:0px;word-spacing:0px;fill:#000000;fill-opacity:1;stroke:none"
   x="19.010704"
   y="277.37735"
   id="text6700"><tspan
     sodipodi:role="line"
     id="tspan6702"
     x="19.010704"
     y="277.37735">stoicheia</tspan></text>



<g
   transform="matrix(1.0666576,0,0,1.0666578,166.34742,245.48639)"
   style="fill:#000000;stroke-width:0.93750787"
   id="barcode"><rect
     height="24"
     width="1"
     id="barcode_bar1"
     y="0"
     x="0"
     style="stroke-width:0.93750787" /><rect
     height="24"
     width="1"
     id="barcode_bar3"
     y="0"
     x="2"
     style="stroke-width:0.93750787" /><rect
     height="20"
     width="2"
     id="barcode_bar5"
     y="0"
     x="6"
     style="stroke-width:0.93750787" /><rect
     height="20"
     width="1"
     id="barcode_bar7"
     y="0"
     x="9"
     style="stroke-width:0.93750787" /><rect
     height="20"
     width="1"
     id="barcode_bar9"
     y="0"
     x="14"
     style="stroke-width:0.93750787" /><rect
     height="20"
     width="1"
     id="barcode_bar11"
     y="0"
     x="16"
     style="stroke-width:0.93750787" /><rect
     height="20"
     width="1"
     id="barcode_bar13"
     y="0"
     x="18"
     style="stroke-width:0.93750787" /><rect
     height="20"
     width="3"
     id="barcode_bar15"
     y="0"
     x="21"
     style="stroke-width:0.93750787" /><rect
     height="20"
     width="2"
     id="barcode_bar17"
     y="0"
     x="25"
     style="stroke-width:0.93750787" /><rect
     height="20"
     width="1"
     id="barcode_bar19"
     y="0"
     x="30"
     style="stroke-width:0.93750787" /><rect
     height="20"
     width="1"
     id="barcode_bar21"
     y="0"
     x="33"
     style="stroke-width:0.93750787" /><rect
     height="20"
     width="2"
     id="barcode_bar23"
     y="0"
     x="36"
     style="stroke-width:0.93750787" /><rect
     height="20"
     width="1"
     id="barcode_bar25"
     y="0"
     x="39"
     style="stroke-width:0.93750787" /><rect
     height="20"
     width="3"
     id="barcode_bar27"
     y="0"
     x="42"
     style="stroke-width:0.93750787" /><rect
     height="24"
     width="1"
     id="barcode_bar29"
     y="0"
     x="46"
     style="stroke-width:0.93750787" /><rect
     height="24"
     width="1"
     id="barcode_bar31"
     y="0"
     x="48"
     style="stroke-width:0.93750787" /><rect
     height="20"
     width="1"
     id="barcode_bar33"
     y="0"
     x="50"
     style="stroke-width:0.93750787" /><rect
     height="20"
     width="1"
     id="barcode_bar35"
     y="0"
     x="55"
     style="stroke-width:0.93750787" /><rect
     height="20"
     width="2"
     id="barcode_bar37"
     y="0"
     x="57"
     style="stroke-width:0.93750787" /><rect
     height="20"
     width="2"
     id="barcode_bar39"
     y="0"
     x="61"
     style="stroke-width:0.93750787" /><rect
     height="20"
     width="3"
     id="barcode_bar41"
     y="0"
     x="64"
     style="stroke-width:0.93750787" /><rect
     height="20"
     width="1"
     id="barcode_bar43"
     y="0"
     x="69"
     style="stroke-width:0.93750787" /><rect
     height="20"
     width="3"
     id="barcode_bar45"
     y="0"
     x="71"
     style="stroke-width:0.93750787" /><rect
     height="20"
     width="1"
     id="barcode_bar47"
     y="0"
     x="76"
     style="stroke-width:0.93750787" /><rect
     height="20"
     width="3"
     id="barcode_bar49"
     y="0"
     x="78"
     style="stroke-width:0.93750787" /><rect
     height="20"
     width="1"
     id="barcode_bar51"
     y="0"
     x="83"
     style="stroke-width:0.93750787" /><rect
     height="20"
     width="1"
     id="barcode_bar53"
     y="0"
     x="85"
     style="stroke-width:0.93750787" /><rect
     height="20"
     width="1"
     id="barcode_bar55"
     y="0"
     x="88"
     style="stroke-width:0.93750787" /><rect
     height="24"
     width="1"
     id="barcode_bar57"
     y="0"
     x="92"
     style="stroke-width:0.93750787" /><rect
     height="24"
     width="1"
     id="barcode_bar59"
     y="0"
     x="94"
     style="stroke-width:0.93750787" /><text
     id="barcode_text"
     xml:space="preserve"
     style="font-size:9px;text-align:center;text-anchor:middle;stroke-width:0.93750787"
     y="29"
     x="47">5    060520     310008       </text>
</g></g><g
         style="display:inline"
         id="g1246"
         transform="matrix(2.989809,0,0,-2.989809,-3180.2579,2219.4605)"><g
           id="g1248"><g
             id="g1250"><path
               d="m 1123.19,483.47 c -0.054,-0.011 -0.28,-0.03 -0.508,-0.044 -0.229,-0.015 -0.424,-0.042 -0.438,-0.062 -0.016,-0.021 -0.059,-0.038 -0.103,-0.038 -0.087,10e-4 -0.157,-0.104 -0.517,-0.777 -0.137,-0.254 -0.281,-0.586 -0.32,-0.738 -0.037,-0.151 -0.137,-0.494 -0.218,-0.763 -0.083,-0.271 -0.146,-0.544 -0.147,-0.611 0,-0.067 -0.028,-0.198 -0.062,-0.292 -0.032,-0.094 -0.086,-0.253 -0.116,-0.354 -0.034,-0.119 -0.094,-0.199 -0.163,-0.237 -0.104,-0.054 -0.295,-0.382 -0.559,-0.972 -0.055,-0.113 -0.147,-0.312 -0.215,-0.439 -0.066,-0.129 -0.155,-0.355 -0.192,-0.505 -0.131,-0.49 -0.234,-0.608 -0.521,-0.582 -0.142,0.013 -0.157,0.027 -0.2,0.183 -0.021,0.093 -0.085,0.255 -0.137,0.36 -0.049,0.104 -0.09,0.212 -0.09,0.239 0,0.024 -0.03,0.069 -0.063,0.101 -0.036,0.029 -0.062,0.115 -0.062,0.192 10e-4,0.121 -0.14,0.593 -0.25,0.845 -0.02,0.046 -0.074,0.208 -0.119,0.357 -0.086,0.287 -0.509,1.412 -0.65,1.729 -0.046,0.1 -0.249,0.52 -0.452,0.934 -0.2,0.412 -0.444,0.908 -0.54,1.103 l -0.173,0.351 -0.239,-0.024 c -0.214,-0.022 -0.244,-0.018 -0.284,0.06 -0.024,0.045 -0.036,0.092 -0.025,0.102 0.011,0.013 0.03,0.1 0.041,0.192 l 0.024,0.172 -0.309,0.119 c -0.372,0.146 -0.433,0.197 -0.368,0.315 0.034,0.062 0.087,0.084 0.184,0.079 0.16,-0.011 0.818,-0.192 0.89,-0.246 0.126,-0.101 0.817,-0.232 1.198,-0.231 0.338,10e-4 0.347,-10e-4 0.375,-0.105 0.029,-0.125 -0.043,-0.313 -0.122,-0.312 -0.031,0 -0.079,-0.039 -0.111,-0.088 -0.048,-0.077 -0.08,-0.085 -0.244,-0.062 -0.306,0.049 -0.306,0.051 0.107,-1.075 l 0.178,-0.488 0.725,-0.015 c 0.396,-0.011 0.926,-0.022 1.182,-0.029 l 0.461,-0.013 0.1,0.273 c 0.056,0.15 0.102,0.334 0.103,0.408 0.01,0.222 0.091,0.568 0.208,0.828 0.081,0.181 0.098,0.257 0.062,0.292 -0.029,0.026 -0.229,0.05 -0.504,0.054 l -0.453,0.006 -0.016,0.11 c -0.019,0.181 0.162,0.268 0.527,0.253 0.175,-0.006 0.316,0.008 0.332,0.032 0.016,0.022 0.182,0.042 0.377,0.042 0.304,-0.002 0.361,0.01 0.433,0.085 0.068,0.075 0.107,0.084 0.25,0.056 0.093,-0.018 0.28,-0.034 0.416,-0.038 0.163,-0.004 0.265,-0.028 0.295,-0.07 0.104,-0.128 0.354,-0.223 0.714,-0.27 0.317,-0.042 0.366,-0.06 0.348,-0.122 -0.016,-0.04 -0.01,-0.084 0.021,-0.1 0.068,-0.05 0.039,-0.15 -0.061,-0.17 z m -3.032,-2.147 c -0.054,0.056 -1.062,0.035 -1.332,-0.024 -0.146,-0.033 -0.396,-0.072 -0.557,-0.087 -0.294,-0.028 -0.364,-0.064 -0.293,-0.155 0.046,-0.054 0.316,-0.747 0.568,-1.45 0.085,-0.233 0.188,-0.47 0.228,-0.525 l 0.076,-0.102 0.342,0.669 c 0.32,0.632 0.571,1.047 0.866,1.424 0.135,0.171 0.148,0.201 0.102,0.25 z"
               id="path1252"
               inkscape:connector-curvature="0" /></g></g><path
           id="path11424_1_"
           d="m 1114.244,483.965 c -0.045,0.022 -0.113,0.075 -0.151,0.117 -0.057,0.056 -0.169,0.082 -0.414,0.099 l -0.341,0.022 -0.044,0.184 c -0.079,0.342 -0.276,0.359 -0.424,0.039 l -0.103,-0.228 -0.395,-0.03 c -0.218,-0.018 -0.51,-0.026 -0.649,-0.021 -0.399,0.012 -0.448,-0.01 -0.437,-0.192 0.019,-0.217 0.2,-0.319 0.646,-0.359 0.332,-0.031 0.656,-0.081 0.656,-0.102 0,-0.006 -0.031,-0.071 -0.072,-0.147 -0.059,-0.119 -0.064,-0.242 -0.049,-0.868 0.012,-0.4 0.049,-0.858 0.08,-1.02 0.145,-0.674 0.189,-1.098 0.208,-1.856 0.011,-0.442 0.022,-0.841 0.023,-0.888 0,-0.047 10e-4,-0.177 0,-0.286 -0.01,-0.176 -0.024,-0.211 -0.14,-0.279 -0.069,-0.043 -0.24,-0.09 -0.376,-0.104 -0.289,-0.031 -0.638,-0.226 -0.639,-0.354 -10e-4,-0.101 0.093,-0.134 0.341,-0.126 0.104,0.003 0.245,-0.024 0.314,-0.062 0.188,-0.099 1.021,-0.146 1.396,-0.084 0.491,0.084 0.562,0.161 0.42,0.454 -0.09,0.185 -0.175,0.242 -0.352,0.244 -0.149,0.002 -0.154,0.007 -0.184,0.192 -0.017,0.104 -0.021,1.227 -0.013,2.495 0.011,1.268 0.01,2.399 -0.011,2.521 l -0.031,0.214 0.371,0.026 c 0.199,0.015 0.386,0.037 0.404,0.049 0.087,0.039 0.055,0.302 -0.03,0.35 v 0 z"
           inkscape:connector-curvature="0" /><path
           id="path11416_1_"
           d="m 1110.188,482.958 c -0.041,0.099 -0.094,0.201 -0.115,0.233 -0.023,0.033 -0.089,0.146 -0.146,0.25 -0.057,0.105 -0.165,0.274 -0.239,0.375 -0.076,0.103 -0.138,0.211 -0.138,0.245 0,0.034 -0.048,0.083 -0.105,0.11 -0.141,0.063 -0.306,-0.011 -0.341,-0.152 -0.025,-0.093 -0.052,-0.107 -0.205,-0.105 -0.312,0.006 -1.164,0.084 -1.213,0.115 -0.026,0.018 -0.146,0.037 -0.266,0.045 -0.119,0.011 -0.314,0.04 -0.437,0.064 -0.12,0.023 -0.338,0.044 -0.485,0.042 -0.473,-0.006 -1.148,0.055 -1.357,0.123 -0.198,0.062 -0.207,0.062 -0.309,-0.031 -0.073,-0.068 -0.103,-0.141 -0.103,-0.253 0,-0.138 0.017,-0.165 0.148,-0.229 0.081,-0.04 0.267,-0.09 0.407,-0.108 0.14,-0.021 0.271,-0.057 0.291,-0.076 0.045,-0.043 0.042,-1.871 0,-2.296 -0.023,-0.24 -0.048,-0.3 -0.132,-0.354 -0.123,-0.081 -0.132,-0.233 -0.02,-0.339 0.08,-0.072 0.083,-0.125 0.065,-1.191 -0.017,-1.065 -0.013,-1.121 0.064,-1.18 0.077,-0.058 0.072,-0.062 -0.066,-0.061 -0.082,0 -0.263,-0.036 -0.396,-0.082 -0.133,-0.046 -0.3,-0.083 -0.362,-0.083 -0.164,0 -0.255,-0.144 -0.229,-0.356 0.013,-0.091 0.029,-0.172 0.038,-0.181 0.062,-0.063 1.435,-0.191 2.221,-0.206 0.197,-0.004 0.653,0.003 1.016,0.018 0.359,0.015 0.937,0.024 1.277,0.024 0.543,10e-4 0.623,0.01 0.642,0.072 0.031,0.101 0.098,1.352 0.083,1.529 -0.016,0.173 -0.067,0.254 -0.173,0.255 -0.113,0 -0.154,-0.074 -0.265,-0.486 l -0.101,-0.377 -0.227,-0.108 c -0.124,-0.059 -0.248,-0.108 -0.272,-0.11 -0.027,-0.002 -0.166,-0.033 -0.308,-0.067 -0.312,-0.078 -1.026,-0.078 -1.447,0 -0.171,0.032 -0.318,0.068 -0.332,0.083 -0.047,0.048 -0.132,0.939 -0.136,1.404 0,0.686 -0.01,0.654 0.091,0.654 0.052,0 0.103,0.039 0.126,0.103 0.046,0.119 -0.064,0.104 1.7,0.245 0.318,0.024 0.299,0.048 0.369,-0.381 0.056,-0.351 0.181,-0.706 0.265,-0.762 0.089,-0.057 0.189,0.038 0.271,0.26 0.085,0.229 0.108,1.061 0.033,1.185 -0.031,0.053 -0.087,0.096 -0.116,0.097 -0.043,0 -0.065,0.09 -0.084,0.328 -0.028,0.375 -0.078,0.501 -0.201,0.535 -0.164,0.043 -0.241,-0.082 -0.243,-0.393 0,-0.424 -0.01,-0.425 -1.202,-0.405 -0.524,0.008 -0.959,0.014 -0.96,0.014 0,0 -0.024,0.312 -0.053,0.688 -0.042,0.562 -0.066,0.705 -0.129,0.775 -0.068,0.075 -0.08,0.159 -0.078,0.62 v 0.533 l 0.169,0.037 c 0.254,0.054 2.059,-0.04 2.656,-0.138 0.152,-0.025 0.166,-0.041 0.339,-0.416 0.098,-0.211 0.2,-0.459 0.229,-0.549 0.053,-0.161 0.23,-0.41 0.299,-0.411 0.041,0 0.148,0.224 0.184,0.379 0.012,0.058 0.033,0.143 0.046,0.188 0.019,0.047 10e-4,0.163 -0.039,0.258 v 0 z"
           inkscape:connector-curvature="0" /><path
           id="path11414_1_"
           d="m 1108.771,477.657 c -0.082,0 -0.147,0.019 -0.146,0.04 0,0.04 0.242,0.086 0.274,0.051 0.053,-0.057 0.01,-0.092 -0.128,-0.091 z"
           inkscape:connector-curvature="0" /><path
           id="path11412_1_"
           d="m 1108.486,477.674 c -0.034,0.014 -0.022,0.022 0.025,0.023 0.044,0.002 0.07,-0.009 0.056,-0.021 -0.011,-0.015 -0.048,-0.017 -0.081,-0.002 z"
           inkscape:connector-curvature="0" /><path
           id="path11406_1_"
           d="m 1103.542,477.67 c -0.125,0.104 -0.153,0.109 -0.396,0.087 l -0.261,-0.026 -0.122,0.154 c -0.066,0.086 -0.169,0.206 -0.228,0.269 -0.061,0.062 -0.208,0.237 -0.333,0.392 -0.123,0.149 -0.236,0.283 -0.255,0.297 -0.018,0.012 -0.089,0.126 -0.161,0.254 -0.07,0.128 -0.364,0.486 -0.653,0.799 -0.291,0.311 -0.525,0.575 -0.525,0.587 0,0.011 0.043,0.102 0.101,0.198 0.236,0.413 0.391,0.656 0.581,0.913 0.109,0.149 0.255,0.369 0.316,0.482 0.062,0.117 0.175,0.28 0.25,0.366 0.077,0.083 0.29,0.345 0.475,0.577 0.187,0.234 0.367,0.428 0.404,0.431 0.037,0.002 0.146,0 0.241,-0.005 0.181,-0.011 0.222,0.018 0.25,0.169 0.012,0.049 0.041,0.119 0.072,0.155 0.111,0.132 -0.02,0.39 -0.199,0.392 -0.149,10e-4 -0.229,0.046 -0.229,0.13 0,0.125 -0.079,0.14 -0.262,0.046 -0.156,-0.081 -0.231,-0.089 -0.752,-0.073 -0.569,0.016 -0.581,0.014 -0.758,-0.102 -0.142,-0.092 -0.178,-0.142 -0.178,-0.237 0,-0.175 0.188,-0.323 0.455,-0.361 0.116,-0.016 0.225,-0.045 0.235,-0.064 0.011,-0.019 -0.038,-0.089 -0.11,-0.155 -0.066,-0.066 -0.198,-0.228 -0.28,-0.354 -0.083,-0.129 -0.254,-0.354 -0.375,-0.506 -0.245,-0.306 -0.403,-0.541 -0.595,-0.884 -0.07,-0.127 -0.161,-0.238 -0.201,-0.245 -0.077,-0.014 -0.49,0.406 -0.692,0.702 -0.394,0.576 -0.808,1.219 -0.808,1.252 0,0.021 0.031,0.036 0.072,0.031 0.163,-0.019 0.213,0.007 0.288,0.146 0.063,0.12 0.069,0.155 0.022,0.21 -0.049,0.062 -0.032,0.067 0.118,0.066 0.183,-10e-4 0.261,0.071 0.261,0.243 0,0.129 -0.156,0.178 -0.548,0.163 -0.196,-0.008 -0.74,-0.014 -1.21,-0.013 -0.811,0 -0.854,-0.003 -0.994,-0.095 -0.229,-0.152 -0.207,-0.381 0.034,-0.383 0.107,0 0.124,-0.018 0.122,-0.125 0,-0.163 0.077,-0.207 0.313,-0.181 0.229,0.028 0.545,-0.054 0.545,-0.143 0,-0.033 0.062,-0.123 0.141,-0.199 0.079,-0.076 0.158,-0.169 0.181,-0.204 0.019,-0.036 0.141,-0.187 0.268,-0.334 0.221,-0.256 0.346,-0.391 1.275,-1.376 0.221,-0.232 0.4,-0.455 0.4,-0.487 0,-0.035 -0.203,-0.329 -0.449,-0.653 -0.245,-0.324 -0.608,-0.845 -0.812,-1.158 -0.196,-0.312 -0.387,-0.603 -0.418,-0.645 -0.05,-0.062 -0.146,-0.081 -0.531,-0.101 -0.444,-0.02 -0.553,-0.051 -0.602,-0.168 -0.01,-0.019 -0.103,-0.081 -0.205,-0.137 -0.146,-0.078 -0.195,-0.131 -0.206,-0.218 -0.01,-0.072 0.01,-0.119 0.041,-0.123 0.032,-0.003 0.086,-0.012 0.119,-0.016 0.037,-0.004 0.12,0.021 0.189,0.058 0.09,0.044 0.234,0.06 0.48,0.052 0.195,-0.006 0.37,-0.021 0.387,-0.032 0.018,-0.011 0.276,-0.033 0.574,-0.048 0.301,-0.017 0.56,-0.039 0.572,-0.048 0.066,-0.039 0.596,0.039 0.65,0.096 0.104,0.104 0.077,0.224 -0.061,0.25 -0.077,0.018 -0.116,0.046 -0.104,0.079 0.013,0.029 -0.01,0.064 -0.046,0.079 -0.088,0.036 -0.062,0.17 0.141,0.751 0.107,0.312 0.247,0.609 0.381,0.812 0.114,0.177 0.256,0.396 0.312,0.487 0.057,0.094 0.117,0.168 0.136,0.168 0.033,0 0.597,-0.745 0.743,-0.985 0.052,-0.089 0.132,-0.187 0.176,-0.217 0.152,-0.106 0.585,-0.637 0.584,-0.712 -10e-4,-0.07 -0.21,-0.164 -0.373,-0.163 -0.028,0 -0.11,-0.029 -0.183,-0.064 -0.117,-0.062 -0.127,-0.081 -0.104,-0.211 0.018,-0.084 0.01,-0.146 -0.014,-0.146 -0.136,0.001 -0.242,-0.303 -0.122,-0.348 0.028,-0.011 0.231,-0.011 0.454,0 0.408,0.02 0.867,0.018 1.246,-0.005 0.114,-0.007 0.268,0.009 0.338,0.036 0.07,0.024 0.219,0.06 0.328,0.071 0.261,0.032 0.284,0.127 0.084,0.3 z"
           inkscape:connector-curvature="0" /><path
           id="path11404_1_"
           d="m 1100.929,481.817 c -0.016,0.015 -0.017,0.051 0,0.081 0.016,0.034 0.023,0.023 0.025,-0.026 10e-4,-0.045 -0.01,-0.069 -0.021,-0.055 v 0 z"
           inkscape:connector-curvature="0" /><path
           id="path11402_1_"
           d="m 1098.213,483.112 c -0.021,0.016 -0.04,0.048 -0.04,0.076 10e-4,0.031 0.018,0.025 0.04,-0.013 0.054,-0.081 0.054,-0.097 0,-0.063 z"
           inkscape:connector-curvature="0" /><path
           id="path11394_1_"
           d="m 1095.071,477.554 c -0.06,-0.017 -0.182,-0.015 -0.274,0.002 -0.16,0.024 -0.167,0.035 -0.165,0.185 0,0.123 -0.023,0.168 -0.104,0.211 -0.058,0.031 -0.112,0.094 -0.122,0.139 -0.021,0.076 -0.03,0.08 -0.15,0.018 -0.069,-0.037 -0.138,-0.064 -0.146,-0.064 -0.01,0 -0.015,0.402 -0.01,0.896 0.01,0.534 -0.01,0.949 -0.032,1.026 -0.023,0.069 -0.047,0.214 -0.054,0.317 -0.01,0.104 -0.036,0.465 -0.069,0.806 -0.034,0.337 -0.068,0.871 -0.08,1.188 -0.021,0.672 0.01,0.771 0.34,1.109 0.199,0.203 0.204,0.207 0.409,0.18 0.23,-0.028 0.286,-0.006 0.215,0.082 -0.025,0.032 -0.038,0.094 -0.023,0.141 0.012,0.046 0.01,0.098 -0.018,0.109 -0.02,0.012 -0.023,0.07 -0.01,0.126 0.018,0.073 0.01,0.109 -0.042,0.13 -0.038,0.014 -0.068,0.052 -0.067,0.085 0,0.079 -0.13,0.074 -0.25,-0.01 -0.09,-0.062 -0.14,-0.062 -0.438,-0.017 -0.257,0.041 -0.348,0.043 -0.396,0.004 -0.041,-0.033 -0.143,-0.04 -0.304,-0.021 -0.135,0.018 -0.434,0.042 -0.666,0.057 -0.393,0.026 -0.432,0.021 -0.539,-0.062 -0.063,-0.05 -0.117,-0.128 -0.117,-0.174 -10e-4,-0.082 0.043,-0.109 0.356,-0.21 0.206,-0.064 0.549,-0.339 0.735,-0.585 l 0.139,-0.184 -0.033,-0.749 c -0.02,-0.414 -0.041,-0.815 -0.05,-0.896 -0.107,-1.021 -0.12,-1.297 -0.082,-1.972 0.047,-0.803 0.114,-1.241 0.196,-1.272 0.028,-0.012 0.054,-0.058 0.054,-0.103 0,-0.068 -0.033,-0.079 -0.247,-0.078 -0.207,10e-4 -0.261,-0.017 -0.342,-0.101 -0.053,-0.055 -0.146,-0.109 -0.21,-0.124 -0.065,-0.012 -0.142,-0.067 -0.177,-0.134 -0.059,-0.104 -0.057,-0.119 0.03,-0.188 0.075,-0.062 0.216,-0.082 0.771,-0.11 0.372,-0.021 0.687,-0.049 0.696,-0.066 0.028,-0.045 1.133,-0.059 1.251,-0.017 0.074,0.027 0.102,0.074 0.109,0.194 0.019,0.148 0.014,0.156 -0.087,0.132 v 0 z"
           inkscape:connector-curvature="0" /><g
           id="g1262"><g
             id="g1264"><path
               d="m 1090.562,478.936 c -0.1,-0.142 -0.2,-0.324 -0.224,-0.402 -0.026,-0.1 -0.085,-0.169 -0.188,-0.225 -0.082,-0.044 -0.218,-0.141 -0.298,-0.217 -0.248,-0.226 -0.905,-0.642 -1.062,-0.667 -0.081,-0.017 -0.426,-0.064 -0.763,-0.111 -0.338,-0.045 -0.688,-0.104 -0.774,-0.13 -0.15,-0.042 -0.187,-0.034 -0.382,0.077 -0.118,0.065 -0.272,0.166 -0.343,0.217 -0.068,0.053 -0.205,0.134 -0.299,0.182 -0.286,0.146 -0.858,0.751 -1.03,1.095 -0.174,0.346 -0.335,0.743 -0.439,1.101 -0.116,0.398 -0.097,1.124 0.046,1.585 0.062,0.197 0.136,0.438 0.16,0.536 0.027,0.098 0.067,0.188 0.092,0.202 0.021,0.014 0.119,0.188 0.219,0.392 0.24,0.502 0.636,1.14 0.731,1.183 0.019,0.008 0.031,0.034 0.032,0.062 10e-4,0.026 0.037,0.095 0.083,0.154 0.07,0.09 0.095,0.098 0.165,0.054 0.072,-0.046 0.103,-0.027 0.256,0.171 0.123,0.157 0.224,0.238 0.341,0.276 0.205,0.064 0.57,0.037 0.764,-0.062 0.081,-0.041 0.271,-0.103 0.421,-0.138 0.283,-0.066 0.466,-0.14 0.515,-0.209 0.017,-0.021 0.101,-0.037 0.185,-0.033 0.104,0.002 0.187,-0.022 0.248,-0.082 0.049,-0.048 0.194,-0.157 0.321,-0.242 0.129,-0.084 0.294,-0.208 0.369,-0.272 0.074,-0.066 0.164,-0.12 0.197,-0.121 0.081,0 0.274,-0.244 0.272,-0.345 0,-0.046 0.074,-0.242 0.167,-0.436 0.094,-0.192 0.167,-0.372 0.167,-0.396 0,-0.025 0.104,-0.291 0.233,-0.591 0.129,-0.299 0.248,-0.601 0.267,-0.671 0.119,-0.475 -0.111,-1.459 -0.449,-1.937 z m -0.843,2.452 c -0.024,0.045 -0.059,0.197 -0.071,0.334 -0.019,0.137 -0.047,0.29 -0.063,0.339 -0.018,0.048 -0.058,0.175 -0.086,0.279 -0.12,0.43 -0.381,0.76 -0.861,1.09 -0.501,0.346 -0.586,0.375 -1.005,0.369 -0.303,-0.004 -0.394,-0.022 -0.467,-0.086 -0.046,-0.044 -0.173,-0.12 -0.277,-0.169 -0.386,-0.185 -0.462,-0.238 -0.604,-0.444 -0.081,-0.115 -0.207,-0.296 -0.282,-0.4 -0.166,-0.231 -0.263,-0.645 -0.3,-1.288 -0.025,-0.473 0.031,-0.883 0.216,-1.544 0.032,-0.128 0.079,-0.351 0.102,-0.496 0.03,-0.221 0.173,-0.614 0.248,-0.688 0.012,-0.012 0.046,-0.069 0.075,-0.128 0.029,-0.059 0.141,-0.171 0.244,-0.251 0.103,-0.08 0.216,-0.198 0.247,-0.265 0.033,-0.062 0.104,-0.131 0.156,-0.146 0.051,-0.016 0.127,-0.07 0.165,-0.12 0.062,-0.08 0.114,-0.091 0.444,-0.093 0.393,-0.002 0.415,0.004 0.931,0.28 0.763,0.407 1.109,0.858 1.209,1.566 0.1,0.729 0.089,1.649 -0.021,1.861 z"
               id="path1266"
               inkscape:connector-curvature="0" /></g></g><path
           id="path11380_1_"
           d="m 1085.469,479.891 c -0.024,0.015 -0.042,0.058 -0.041,0.098 0,0.062 0.01,0.062 0.042,0.008 0.051,-0.083 0.051,-0.139 -10e-4,-0.106 z"
           inkscape:connector-curvature="0" /><path
           id="path11370_1_"
           d="m 1083.442,478.097 c -0.016,0.037 -0.072,0.045 -0.195,0.024 -0.157,-0.022 -0.169,-0.02 -0.137,0.055 0.021,0.044 0.045,0.157 0.055,0.25 0.023,0.222 -0.078,0.33 -0.277,0.292 -0.125,-0.024 -0.143,-0.047 -0.229,-0.344 -0.076,-0.255 -0.113,-0.321 -0.201,-0.354 -0.103,-0.039 -0.758,-0.016 -1.219,0.042 -0.15,0.019 -0.261,0.01 -0.33,-0.025 -0.055,-0.028 -0.112,-0.043 -0.127,-0.026 -0.014,0.014 0,0.146 0.022,0.295 0.025,0.146 0.05,0.416 0.051,0.595 10e-4,0.179 0.035,0.701 0.074,1.159 0.069,0.822 0.066,1.245 -0.015,1.396 -0.021,0.044 -0.024,0.176 -0.01,0.309 0.019,0.126 0.02,0.41 0,0.631 -0.013,0.22 -0.022,0.587 -0.025,0.812 l -10e-4,0.413 0.215,-10e-4 c 0.17,-0.002 0.229,0.02 0.308,0.102 0.09,0.095 0.105,0.099 0.296,0.054 0.181,-0.042 0.209,-0.039 0.285,0.037 0.07,0.07 0.079,0.104 0.043,0.198 -0.022,0.062 -0.075,0.112 -0.117,0.114 -0.234,0.012 -0.417,0.051 -0.571,0.125 -0.161,0.076 -0.288,0.089 -1.288,0.108 -0.993,0.021 -1.114,0.016 -1.172,-0.047 -0.09,-0.096 -0.082,-0.158 0.021,-0.192 0.08,-0.023 0.082,-0.031 0.021,-0.101 -0.152,-0.166 -0.062,-0.28 0.247,-0.317 0.116,-0.013 0.276,-0.044 0.359,-0.068 0.081,-0.024 0.207,-0.047 0.28,-0.047 0.188,0 0.184,0.085 0.118,-1.396 -0.02,-0.43 -0.045,-0.906 -0.062,-1.059 -0.019,-0.223 -0.011,-0.288 0.042,-0.333 0.057,-0.049 0.064,-0.229 0.059,-1.384 l -0.01,-1.325 -0.221,0.005 c -0.122,0.002 -0.563,0.027 -0.98,0.059 l -0.763,0.055 -0.021,0.316 c -0.029,0.408 -0.178,0.713 -0.28,0.583 -0.072,-0.088 -0.114,-1.023 -0.06,-1.27 0.135,-0.591 0.141,-0.602 0.25,-0.603 0.08,0 0.11,0.03 0.146,0.133 0.038,0.129 0.053,0.138 0.316,0.163 0.188,0.021 0.515,-0.003 1.058,-0.073 0.892,-0.113 1.712,-0.168 2.403,-0.154 0.363,0.007 0.511,-0.006 0.604,-0.057 0.27,-0.141 0.567,-0.065 0.521,0.128 -0.036,0.146 0.021,0.217 0.28,0.346 0.233,0.112 0.299,0.217 0.231,0.377 v 0 z"
           inkscape:connector-curvature="0" /><path
           id="path11348_1_"
           d="m 1075.892,482.698 c -0.016,0.163 -0.04,0.319 -0.057,0.347 -0.017,0.024 -0.038,0.13 -0.052,0.229 -0.021,0.188 -0.114,0.334 -0.207,0.335 -0.054,0 -0.197,0.207 -0.316,0.445 -0.086,0.175 -0.27,0.191 -0.439,0.043 -0.123,-0.106 -0.143,-0.109 -0.466,-0.08 -0.188,0.017 -0.491,0.06 -0.677,0.094 -0.405,0.075 -1.667,0.17 -2.196,0.165 -0.287,-0.003 -0.457,-0.029 -0.678,-0.105 -0.335,-0.116 -0.387,-0.199 -0.238,-0.39 0.049,-0.062 0.089,-0.131 0.089,-0.156 0,-0.023 0.062,-0.104 0.135,-0.177 0.164,-0.161 0.942,-1.049 1.062,-1.212 0.047,-0.062 0.18,-0.219 0.291,-0.344 0.2,-0.224 0.483,-0.636 0.483,-0.705 0,-0.019 -0.042,-0.053 -0.094,-0.075 -0.059,-0.023 -0.105,-0.094 -0.123,-0.179 -0.018,-0.075 -0.106,-0.236 -0.2,-0.357 -0.188,-0.239 -0.639,-0.938 -0.764,-1.18 -0.261,-0.501 -0.598,-1.071 -0.679,-1.145 -0.067,-0.062 -0.103,-0.159 -0.123,-0.352 -0.027,-0.234 -0.023,-0.264 0.042,-0.265 0.044,0 0.119,0.048 0.172,0.107 l 0.095,0.109 0.062,-0.148 c 0.055,-0.132 0.084,-0.151 0.252,-0.18 0.104,-0.016 0.21,-0.017 0.234,-0.002 0.023,0.016 0.25,-0.024 0.5,-0.09 0.379,-0.096 0.552,-0.117 1.036,-0.123 0.518,-0.006 0.585,0.002 0.637,0.073 0.033,0.043 0.077,0.064 0.1,0.052 0.039,-0.023 0.966,-0.041 1.267,-0.025 0.072,0.005 0.156,0.029 0.19,0.057 0.031,0.023 0.11,0.058 0.175,0.071 0.063,0.015 0.134,0.062 0.156,0.104 0.021,0.043 0.047,0.378 0.056,0.745 0.014,0.609 0.01,0.673 -0.062,0.727 -0.104,0.076 -0.168,0.074 -0.237,-0.008 -0.05,-0.061 -0.061,-0.06 -0.11,0.009 -0.101,0.14 -0.165,-0.016 -0.237,-0.546 -0.037,-0.272 -0.082,-0.512 -0.098,-0.527 -0.037,-0.036 -0.49,-0.032 -1.248,0.013 -1.047,0.062 -1.394,0.089 -1.394,0.108 0,0.014 0.043,0.08 0.097,0.154 0.097,0.133 0.151,0.233 0.493,0.859 0.104,0.188 0.288,0.454 0.415,0.592 0.129,0.139 0.233,0.288 0.234,0.331 0,0.112 0.174,0.293 0.303,0.323 0.072,0.017 0.116,0.06 0.131,0.127 0.018,0.084 -0.069,0.188 -0.499,0.626 -0.284,0.289 -0.684,0.734 -0.885,0.994 -0.204,0.256 -0.507,0.617 -0.677,0.806 l -0.309,0.34 0.119,0.033 c 0.066,0.019 0.452,0.044 0.86,0.055 0.606,0.019 0.806,0.006 1.119,-0.057 0.227,-0.046 0.595,-0.08 0.906,-0.084 l 0.526,-0.011 0.233,-0.48 c 0.282,-0.583 0.399,-0.695 0.562,-0.534 0.037,0.036 0.065,0.088 0.062,0.115 0,0.03 -0.018,0.186 -0.029,0.349 z"
           inkscape:connector-curvature="0" /></g></g><use
       x="0"
       y="0"
       inkscape:tiled-clone-of="#g4685"
       xlink:href="#g4685"
       transform="translate(-1.9051075,127.90078)"
       id="use8245"
       width="100%"
       height="100%" /><use
       x="0"
       y="0"
       inkscape:tiled-clone-of="#g4685"
       xlink:href="#g4685"
       transform="translate(-1.9051075,255.80078)"
       id="use8247"
       width="100%"
       height="100%" /><use
       x="0"
       y="0"
       inkscape:tiled-clone-of="#g4685"
       xlink:href="#g4685"
       transform="translate(-1.9051075,383.70078)"
       id="use8249"
       width="100%"
       height="100%" /><use
       x="0"
       y="0"
       inkscape:tiled-clone-of="#g4685"
       xlink:href="#g4685"
       transform="translate(-1.9051075,511.60078)"
       id="use8251"
       width="100%"
       height="100%" /><use
       x="0"
       y="0"
       inkscape:tiled-clone-of="#g4685"
       xlink:href="#g4685"
       transform="translate(-1.9051075,639.50078)"
       id="use8253"
       width="100%"
       height="100%" /><use
       x="0"
       y="0"
       inkscape:tiled-clone-of="#g4685"
       xlink:href="#g4685"
       transform="translate(-1.9051075,767.40158)"
       id="use8255"
       width="100%"
       height="100%" /><use
       x="0"
       y="0"
       inkscape:tiled-clone-of="#g4685"
       xlink:href="#g4685"
       transform="translate(212.364,-2.45775)"
       id="use8257"
       width="100%"
       height="100%" /><use
       x="0"
       y="0"
       inkscape:tiled-clone-of="#g4685"
       xlink:href="#g4685"
       transform="translate(212.364,127.90078)"
       id="use8259"
       width="100%"
       height="100%" /><use
       x="0"
       y="0"
       inkscape:tiled-clone-of="#g4685"
       xlink:href="#g4685"
       transform="translate(212.364,255.80078)"
       id="use8261"
       width="100%"
       height="100%" /><use
       x="0"
       y="0"
       inkscape:tiled-clone-of="#g4685"
       xlink:href="#g4685"
       transform="translate(212.364,383.70078)"
       id="use8263"
       width="100%"
       height="100%" /><use
       x="0"
       y="0"
       inkscape:tiled-clone-of="#g4685"
       xlink:href="#g4685"
       transform="translate(212.364,511.60078)"
       id="use8265"
       width="100%"
       height="100%" /><use
       x="0"
       y="0"
       inkscape:tiled-clone-of="#g4685"
       xlink:href="#g4685"
       transform="translate(212.364,639.50078)"
       id="use8267"
       width="100%"
       height="100%" /><use
       x="0"
       y="0"
       inkscape:tiled-clone-of="#g4685"
       xlink:href="#g4685"
       transform="translate(212.364,767.40158)"
       id="use8269"
       width="100%"
       height="100%" /><use
       x="0"
       y="0"
       inkscape:tiled-clone-of="#g4685"
       xlink:href="#g4685"
       transform="translate(424.728,-2.45775)"
       id="use8271"
       width="100%"
       height="100%" /><use
       x="0"
       y="0"
       inkscape:tiled-clone-of="#g4685"
       xlink:href="#g4685"
       transform="translate(424.728,127.90078)"
       id="use8273"
       width="100%"
       height="100%" /><use
       x="0"
       y="0"
       inkscape:tiled-clone-of="#g4685"
       xlink:href="#g4685"
       transform="translate(424.728,255.80078)"
       id="use8275"
       width="100%"
       height="100%" /><use
       x="0"
       y="0"
       inkscape:tiled-clone-of="#g4685"
       xlink:href="#g4685"
       transform="translate(424.728,383.70078)"
       id="use8277"
       width="100%"
       height="100%" /><use
       x="0"
       y="0"
       inkscape:tiled-clone-of="#g4685"
       xlink:href="#g4685"
       transform="translate(424.728,511.60078)"
       id="use8279"
       width="100%"
       height="100%" /><use
       x="0"
       y="0"
       inkscape:tiled-clone-of="#g4685"
       xlink:href="#g4685"
       transform="translate(424.728,639.50078)"
       id="use8281"
       width="100%"
       height="100%" /><use
       x="0"
       y="0"
       inkscape:tiled-clone-of="#g4685"
       xlink:href="#g4685"
       transform="translate(424.728,767.40158)"
       id="use8283"
       width="100%"
       height="100%" /></g></svg>