<?xml version="1.0" encoding="UTF-8" standalone="no"?>
<!-- Created with Inkscape (http://www.inkscape.org/) -->

<svg
   xmlns:dc="http://purl.org/dc/elements/1.1/"
   xmlns:cc="http://creativecommons.org/ns#"
   xmlns:rdf="http://www.w3.org/1999/02/22-rdf-syntax-ns#"
   xmlns:svg="http://www.w3.org/2000/svg"
   xmlns="http://www.w3.org/2000/svg"
   xmlns:sodipodi="http://sodipodi.sourceforge.net/DTD/sodipodi-0.dtd"
   xmlns:inkscape="http://www.inkscape.org/namespaces/inkscape"
   width="210mm"
   height="297mm"
   id="svg4978"
   version="1.1"
   inkscape:version="0.48.3.1 r9886"
   sodipodi:docname="VoltageControlledEuclideanSequencer.svg">
  <defs
     id="defs3" />
  <sodipodi:namedview
     inkscape:document-units="mm"
     id="base"
     pagecolor="#ffffff"
     bordercolor="#666666"
     borderopacity="1.0"
     inkscape:pageopacity="0.0"
     inkscape:pageshadow="2"
     inkscape:zoom="1.437446"
     inkscape:cx="45.860514"
     inkscape:cy="866.97749"
     inkscape:current-layer="layer1"
     showgrid="false"
     inkscape:window-width="1440"
     inkscape:window-height="852"
     inkscape:window-x="0"
     inkscape:window-y="0"
     inkscape:window-maximized="1" />
  <metadata
     id="metadata4">
    <rdf:RDF>
      <cc:Work
         rdf:about="">
        <dc:format>image/svg+xml</dc:format>
        <dc:type
           rdf:resource="http://purl.org/dc/dcmitype/StillImage" />
        <dc:title></dc:title>
      </cc:Work>
    </rdf:RDF>
  </metadata>
  <g
     inkscape:label="Layer 1"
     inkscape:groupmode="layer"
     id="layer1">
    <g
       id="g5066"
       style="fill:none;stroke:#000000;stroke-width:0.1"
       transform="matrix(3.543307,0,0,3.543307,0.20297674,0.16358871)">
      <path
         d="m 0,0 40.299999,0 0,128.5 L 0,128.5 z"
         id="rect5068"
         inkscape:connector-curvature="0" />
      <path
         d="M 9.1,3 C 9.1,3.8836556 8.3836556,4.6 7.5,4.6 6.6163444,4.6 5.9,3.8836556 5.9,3 5.9,2.1163444 6.6163444,1.4 7.5,1.4 8.3836556,1.4 9.1,2.1163444 9.1,3 z"
         id="circle5070"
         inkscape:connector-curvature="0" />
      <path
         d="m 9.1,125.5 c 0,0.88366 -0.7163444,1.6 -1.6,1.6 -0.8836556,0 -1.6,-0.71634 -1.6,-1.6 0,-0.88366 0.7163444,-1.6 1.6,-1.6 0.8836556,0 1.6,0.71634 1.6,1.6 z"
         id="circle5072"
         inkscape:connector-curvature="0" />
      <path
         id="path5074"
         inkscape:connector-curvature="0"
         style="fill:none;stroke:#000000;stroke-width:0.09990668"
         d="m 12.53,97.6 c -2.6220187,0 -4.7546972,2.123364 -4.7546972,4.74537 0,2.14379 1.4261951,3.96035 3.3776012,4.54998 l 0,2.67974 2.642536,0 0,-2.65183 c 2.003484,-0.55658 3.479956,-2.39707 3.479956,-4.57789 C 17.275396,99.723364 15.152027,97.6 12.53,97.6 z" />
      <path
         id="path5076"
         inkscape:connector-curvature="0"
         style="fill:none;stroke:#000000;stroke-width:0.09990668"
         d="m 12.53,78.55 c -2.6220187,0 -4.7546972,2.123364 -4.7546972,4.745368 0,2.143796 1.4261951,3.960351 3.3776012,4.54998 l 0,2.679746 2.642536,0 0,-2.651834 c 2.003484,-0.55658 3.479956,-2.397067 3.479956,-4.577892 C 17.275396,80.673364 15.152027,78.55 12.53,78.55 z" />
      <path
         id="path5078"
         inkscape:connector-curvature="0"
         style="fill:none;stroke:#000000;stroke-width:0.09990668"
         d="m 12.53,59.5 c -2.6220187,0 -4.7546972,2.123364 -4.7546972,4.745368 0,2.143796 1.4261951,3.960351 3.3776012,4.54998 l 0,2.679746 2.642536,0 0,-2.651834 c 2.003484,-0.55658 3.479956,-2.397067 3.479956,-4.577892 C 17.275396,61.623364 15.152027,59.5 12.53,59.5 z" />
      <path
         id="path5080"
         inkscape:connector-curvature="0"
         style="fill:none;stroke:#000000;stroke-width:0.09990668"
         d="m 12.53,40.45 c -2.6220187,0 -4.7546972,2.123364 -4.7546972,4.745368 0,2.143796 1.4261951,3.960351 3.3776012,4.54998 l 0,2.679746 2.642536,0 0,-2.651834 c 2.003484,-0.55658 3.479956,-2.397067 3.479956,-4.577892 C 17.275396,42.573364 15.152027,40.45 12.53,40.45 z" />
      <path
         id="path5082"
         inkscape:connector-curvature="0"
         style="fill:none;stroke:#000000;stroke-width:0.09990668"
         d="m 12.53,21.4 c -2.6220187,0 -4.7546972,2.123364 -4.7546972,4.745368 0,2.143796 1.4261951,3.960351 3.3776012,4.54998 l 0,2.679746 2.642536,0 0,-2.651834 c 2.003484,-0.55658 3.479956,-2.397067 3.479956,-4.577892 C 17.275396,23.523364 15.152027,21.4 12.53,21.4 z" />
      <path
         d="m 24.190001,108.7 c 0,0.82842 -0.671573,1.5 -1.5,1.5 -0.828428,0 -1.5,-0.67158 -1.5,-1.5 0,-0.82843 0.671572,-1.5 1.5,-1.5 0.828427,0 1.5,0.67157 1.5,1.5 z"
         id="circle5084"
         inkscape:connector-curvature="0" />
      <path
         d="m 24.190001,70.599998 c 0,0.828428 -0.671573,1.5 -1.5,1.5 -0.828428,0 -1.5,-0.671572 -1.5,-1.5 0,-0.828427 0.671572,-1.5 1.5,-1.5 0.828427,0 1.5,0.671573 1.5,1.5 z"
         id="circle5086"
         inkscape:connector-curvature="0" />
      <path
         d="m 36.099998,45.200001 c 0,1.794925 -1.455074,3.25 -3.25,3.25 -1.794925,0 -3.25,-1.455075 -3.25,-3.25 0,-1.794926 1.455075,-3.25 3.25,-3.25 1.794926,0 3.25,1.455074 3.25,3.25 z"
         id="circle5088"
         inkscape:connector-curvature="0" />
      <path
         d="m 36.099998,108.7 c 0,1.79492 -1.455074,3.25 -3.25,3.25 -1.794925,0 -3.25,-1.45508 -3.25,-3.25 0,-1.79493 1.455075,-3.25 3.25,-3.25 1.794926,0 3.25,1.45507 3.25,3.25 z"
         id="circle5090"
         inkscape:connector-curvature="0" />
      <path
         d="m 36.099998,96 c 0,1.794925 -1.455074,3.25 -3.25,3.25 -1.794925,0 -3.25,-1.455075 -3.25,-3.25 0,-1.794925 1.455075,-3.25 3.25,-3.25 1.794926,0 3.25,1.455075 3.25,3.25 z"
         id="circle5092"
         inkscape:connector-curvature="0" />
      <path
         d="m 36.099998,83.300003 c 0,1.794925 -1.455074,3.25 -3.25,3.25 -1.794925,0 -3.25,-1.455075 -3.25,-3.25 0,-1.794925 1.455075,-3.25 3.25,-3.25 1.794926,0 3.25,1.455075 3.25,3.25 z"
         id="circle5094"
         inkscape:connector-curvature="0" />
      <path
         d="m 36.099998,70.599998 c 0,1.794926 -1.455074,3.25 -3.25,3.25 -1.794925,0 -3.25,-1.455074 -3.25,-3.25 0,-1.794925 1.455075,-3.25 3.25,-3.25 1.794926,0 3.25,1.455075 3.25,3.25 z"
         id="circle5096"
         inkscape:connector-curvature="0" />
      <path
         d="m 36.099998,57.900002 c 0,1.794925 -1.455074,3.25 -3.25,3.25 -1.794925,0 -3.25,-1.455075 -3.25,-3.25 0,-1.794926 1.455075,-3.25 3.25,-3.25 1.794926,0 3.25,1.455074 3.25,3.25 z"
         id="circle5098"
         inkscape:connector-curvature="0" />
    </g>
  </g>
</svg>
