<?xml version="1.0" encoding="UTF-8" standalone="no"?>
<svg
   xmlns:dc="http://purl.org/dc/elements/1.1/"
   xmlns:cc="http://creativecommons.org/ns#"
   xmlns:rdf="http://www.w3.org/1999/02/22-rdf-syntax-ns#"
   xmlns:svg="http://www.w3.org/2000/svg"
   xmlns="http://www.w3.org/2000/svg"
   xmlns:sodipodi="http://sodipodi.sourceforge.net/DTD/sodipodi-0.dtd"
   xmlns:inkscape="http://www.inkscape.org/namespaces/inkscape"
   version="1.1"
   width="297mm"
   height="420mm"
   viewBox="0 0 297 420"
   id="svg5776"
   inkscape:version="0.91 r13725"
   sodipodi:docname="EffectsBoxProtoCase.svg">
  <metadata
     id="metadata5832">
    <rdf:RDF>
      <cc:Work
         rdf:about="">
        <dc:format>image/svg+xml</dc:format>
        <dc:type
           rdf:resource="http://purl.org/dc/dcmitype/StillImage" />
        <dc:title></dc:title>
      </cc:Work>
    </rdf:RDF>
  </metadata>
  <sodipodi:namedview
     id="base"
     inkscape:document-units="mm"
     units="mm"
     showgrid="false"
     inkscape:zoom="0.98757368"
     inkscape:cx="514.68768"
     inkscape:cy="1075.089"
     inkscape:window-width="1615"
     inkscape:window-height="1026"
     inkscape:window-x="65"
     inkscape:window-y="24"
     inkscape:window-maximized="1"
     inkscape:current-layer="g5782" />
  <defs
     id="defs5779">
    <g
       id="potgrading" />
  </defs>
  <g
     style="fill:none;stroke:#ff0000;stroke-width:0.05"
     id="g5782"
     transform="translate(0,123)">
    <path
       style="stroke-width:0.1;stroke-miterlimit:4;stroke-dasharray:none;stroke:#000000"
       d="m 98.500006,-106.49997 25.000004,0 0,-3 50,0 0,3 25,0 0,37.499998 3,0 0,99.999999 -3,0 0,37.5 -25,0 0,3 -50,0 0,-3 -25.000004,0 0,-37.5 -3,0 10e-7,-99.999999 3,0 z"
       id="rect5784"
       inkscape:connector-curvature="0"
       sodipodi:nodetypes="ccccccccccccccccccccc" />
    <path
       inkscape:connector-curvature="0"
       d="m 123.10001,-71.699971 c -2.6129,0 -4.7376,2.115556 -4.7376,4.727735 0,2.135913 1.42103,3.945767 3.36507,4.5331 l 0,2.107204 2.63293,1.41e-4 0,-2.079677 c 1.99606,-0.554631 3.467,-2.388302 3.467,-4.561134 3.4e-4,-2.612179 -2.1152,-4.727369 -4.7274,-4.727369 z"
       style="fill:none;stroke:#000000;stroke-width:0.1;stroke-miterlimit:4;stroke-dasharray:none"
       id="path5794" />
    <path
       inkscape:connector-curvature="0"
       d="m 148.50001,-71.699971 c -2.6129,0 -4.73759,2.115556 -4.73759,4.727735 0,2.135913 1.42103,3.945767 3.36506,4.5331 l 0,2.107204 2.63294,1.41e-4 0,-2.079677 c 1.99605,-0.554631 3.467,-2.388302 3.467,-4.561134 3.3e-4,-2.612179 -2.11521,-4.727369 -4.72741,-4.727369 z"
       style="fill:none;stroke:#000000;stroke-width:0.1;stroke-miterlimit:4;stroke-dasharray:none"
       id="path5796" />
    <path
       inkscape:connector-curvature="0"
       d="m 173.90001,-71.699971 c -2.6129,0 -4.73759,2.115556 -4.73759,4.727735 0,2.135913 1.42103,3.945767 3.36506,4.5331 l 0,2.107204 2.63294,1.41e-4 0,-2.079677 c 1.99605,-0.554631 3.467,-2.388302 3.467,-4.561134 3.3e-4,-2.612179 -2.11521,-4.727369 -4.72741,-4.727369 z"
       style="fill:none;stroke:#000000;stroke-width:0.1;stroke-miterlimit:4;stroke-dasharray:none"
       id="path5798" />
    <path
       inkscape:connector-curvature="0"
       d="m 123.10001,-46.299973 c -2.6129,0 -4.7376,2.11556 -4.7376,4.72774 0,2.13591 1.42103,3.94576 3.36507,4.5331 l 0,2.1072 2.63293,1.4e-4 0,-2.07967 c 1.99606,-0.55464 3.467,-2.38831 3.467,-4.56114 3.4e-4,-2.61218 -2.1152,-4.72737 -4.7274,-4.72737 z"
       style="fill:none;stroke:#000000;stroke-width:0.1;stroke-miterlimit:4;stroke-dasharray:none"
       id="path5800" />
    <path
       inkscape:connector-curvature="0"
       d="m 148.50001,-46.299973 c -2.6129,0 -4.73759,2.11556 -4.73759,4.72774 0,2.13591 1.42103,3.94576 3.36506,4.5331 l 0,2.1072 2.63294,1.4e-4 0,-2.07967 c 1.99605,-0.55464 3.467,-2.38831 3.467,-4.56114 3.3e-4,-2.61218 -2.11521,-4.72737 -4.72741,-4.72737 z"
       style="fill:none;stroke:#000000;stroke-width:0.1;stroke-miterlimit:4;stroke-dasharray:none"
       id="path5802" />
    <path
       inkscape:connector-curvature="0"
       d="m 173.90001,-46.299973 c -2.6129,0 -4.73759,2.11556 -4.73759,4.72774 0,2.13591 1.42103,3.94576 3.36506,4.5331 l 0,2.1072 2.63294,1.4e-4 0,-2.07967 c 1.99605,-0.55464 3.467,-2.38831 3.467,-4.56114 3.3e-4,-2.61218 -2.11521,-4.72737 -4.72741,-4.72737 z"
       style="fill:none;stroke:#000000;stroke-width:0.1;stroke-miterlimit:4;stroke-dasharray:none"
       id="path5804" />
    <path
       inkscape:connector-curvature="0"
       d="m 148.50001,-20.899973 c -2.6129,0 -4.73759,2.11556 -4.73759,4.72774 0,2.13591 1.42103,3.94576 3.36506,4.5331 l 0,2.1072 2.63294,1.4e-4 0,-2.07967 c 1.99605,-0.55464 3.467,-2.38831 3.467,-4.56114 3.3e-4,-2.61218 -2.11521,-4.72737 -4.72741,-4.72737 z"
       style="fill:none;stroke:#000000;stroke-width:0.1;stroke-miterlimit:4;stroke-dasharray:none"
       id="path5806" />
    <path
       style="fill:none;stroke:#000000;stroke-width:0.1;stroke-miterlimit:4;stroke-dasharray:none"
       d="m 125.50001,-22.499973 a 2.4000001,2.4000001 0 0 1 -2.4,2.4 2.4000001,2.4000001 0 0 1 -2.4,-2.4 2.4000001,2.4000001 0 0 1 2.4,-2.4 2.4000001,2.4000001 0 0 1 2.4,2.4 z"
       id="circle5808"
       inkscape:connector-curvature="0" />
    <path
       style="fill:none;stroke:#000000;stroke-width:0.1;stroke-miterlimit:4;stroke-dasharray:none"
       d="m 125.50001,-9.799973 a 2.4000001,2.4000001 0 0 1 -2.4,2.4 2.4000001,2.4000001 0 0 1 -2.4,-2.4 2.4000001,2.4000001 0 0 1 2.4,-2.4 2.4000001,2.4000001 0 0 1 2.4,2.4 z"
       id="circle5810"
       inkscape:connector-curvature="0" />
    <path
       style="fill:none;stroke:#000000;stroke-width:0.1;stroke-miterlimit:4;stroke-dasharray:none"
       d="m 178.5,-16.149963 a 4.5999999,4.5999999 0 0 1 -4.6,4.6 4.5999999,4.5999999 0 0 1 -4.6,-4.6 4.5999999,4.5999999 0 0 1 4.6,-4.6 4.5999999,4.5999999 0 0 1 4.6,4.6 z"
       id="circle5812"
       inkscape:connector-curvature="0" />
    <path
       style="fill:none;stroke:#000000;stroke-width:0.1;stroke-miterlimit:4;stroke-dasharray:none"
       d="m 120.35001,9.250027 a 3.5999999,3.5999999 0 0 1 -3.6,3.6 3.5999999,3.5999999 0 0 1 -3.6,-3.6 3.5999999,3.5999999 0 0 1 3.6,-3.6 3.5999999,3.5999999 0 0 1 3.6,3.6 z"
       id="circle5814"
       inkscape:connector-curvature="0" />
    <path
       style="fill:none;stroke:#000000;stroke-width:0.1;stroke-miterlimit:4;stroke-dasharray:none"
       d="m 133.05001,9.250027 a 3.5999999,3.5999999 0 0 1 -3.6,3.6 3.5999999,3.5999999 0 0 1 -3.6,-3.6 3.5999999,3.5999999 0 0 1 3.6,-3.6 3.5999999,3.5999999 0 0 1 3.6,3.6 z"
       id="circle5816"
       inkscape:connector-curvature="0" />
    <path
       style="fill:none;stroke:#000000;stroke-width:0.1;stroke-miterlimit:4;stroke-dasharray:none"
       d="m 145.75001,9.250027 a 3.5999999,3.5999999 0 0 1 -3.6,3.6 3.5999999,3.5999999 0 0 1 -3.6,-3.6 3.5999999,3.5999999 0 0 1 3.6,-3.6 3.5999999,3.5999999 0 0 1 3.6,3.6 z"
       id="circle5818"
       inkscape:connector-curvature="0" />
    <path
       style="fill:none;stroke:#000000;stroke-width:0.1;stroke-miterlimit:4;stroke-dasharray:none"
       d="m 158.45001,9.250027 a 3.5999999,3.5999999 0 0 1 -3.6,3.6 3.5999999,3.5999999 0 0 1 -3.6,-3.6 3.5999999,3.5999999 0 0 1 3.6,-3.6 3.5999999,3.5999999 0 0 1 3.6,3.6 z"
       id="circle5820"
       inkscape:connector-curvature="0" />
    <path
       style="fill:none;stroke:#000000;stroke-width:0.1;stroke-miterlimit:4;stroke-dasharray:none"
       d="m 171.15001,9.250027 a 3.5999999,3.5999999 0 0 1 -3.6,3.6 3.5999999,3.5999999 0 0 1 -3.6,-3.6 3.5999999,3.5999999 0 0 1 3.6,-3.6 3.5999999,3.5999999 0 0 1 3.6,3.6 z"
       id="circle5822"
       inkscape:connector-curvature="0" />
    <path
       style="fill:none;stroke:#000000;stroke-width:0.1;stroke-miterlimit:4;stroke-dasharray:none"
       d="m 183.85001,9.250027 a 3.5999999,3.5999999 0 0 1 -3.6,3.6 3.5999999,3.5999999 0 0 1 -3.6,-3.6 3.5999999,3.5999999 0 0 1 3.6,-3.6 3.5999999,3.5999999 0 0 1 3.6,3.6 z"
       id="circle5824"
       inkscape:connector-curvature="0" />
    <path
       style="fill:none;stroke:#000000;stroke-width:0.1;stroke-miterlimit:4;stroke-dasharray:none"
       d="m 121.75001,50.525027 a 5,5 0 0 1 -5,5 5,5 0 0 1 -5,-5 5,5 0 0 1 5,-5 5,5 0 0 1 5,5 z"
       id="circle5826"
       inkscape:connector-curvature="0" />
    <path
       style="fill:none;stroke:#000000;stroke-width:0.1;stroke-miterlimit:4;stroke-dasharray:none"
       d="m 185.25001,50.525027 a 5,5 0 0 1 -5,5 5,5 0 0 1 -5,-5 5,5 0 0 1 5,-5 5,5 0 0 1 5,5 z"
       id="circle5828"
       inkscape:connector-curvature="0" />
    <path
       style="fill:none;stroke:#000000;stroke-width:0.1;stroke-miterlimit:4;stroke-dasharray:none"
       d="m 129.974,21.717037 37.05201,0 0,19.516 -37.05201,0 z"
       id="rect5830"
       inkscape:connector-curvature="0" />
    <path
       sodipodi:nodetypes="ccccccccccccccccccccc"
       inkscape:connector-curvature="0"
       id="path5943"
       d="m 207.49986,-106.49997 18.50015,0 0,-3 25.00002,0 0,3 12.49997,0 0,37.499998 -2.99968,0 0,99.999999 2.99968,0 0,37.5 -12.49997,0 0,3 -25.00002,0 0,-3 -18.50015,0 0,-37.5 3.00029,0 0,-99.999999 -3.00029,0 z"
       style="stroke-width:0.1;stroke-miterlimit:4;stroke-dasharray:none;stroke:#000000" />
    <path
       sodipodi:nodetypes="ccccccccccccccccccccc"
       inkscape:connector-curvature="0"
       id="path5945"
       d="m 98.500006,138.00004 25.000004,0 0,-3 50,0 0,3 25,0 0,37.49997 3,0 0,99.99999 -3,0 0,37.5 -25,0 0,3 -50,0 0,-3 -25.000004,0 0,-37.5 -3,0 10e-7,-99.99999 3,0 z"
       style="stroke:#000000;stroke-width:0.1;stroke-miterlimit:4;stroke-dasharray:none" />
    <path
       style="stroke-width:0.1;stroke-miterlimit:4;stroke-dasharray:none;stroke:#000000"
       d="m 89.500146,-106.49997 -18.50012,0 0,-3 -25.000042,0 0,3 -12.499978,0 0,37.499998 2.999684,0 0,99.999999 -2.999684,0 0,37.5 12.499978,0 0,3 25.000042,0 0,-3 18.50012,0 0,-37.5 -3.00029,0 0,-99.999999 3.00029,0 z"
       id="path5947"
       inkscape:connector-curvature="0"
       sodipodi:nodetypes="ccccccccccccccccccccc" />
    <path
       sodipodi:nodetypes="ccccccccccccccccccccc"
       inkscape:connector-curvature="0"
       id="path5949"
       d="m 201.50001,132.00003 0,-12.5 -3,0 0,-25.000053 3,0 0,-18.499819 -28,0 0,2.99968 -50,0 0,-2.99968 -28.000004,0 0,18.499819 3,0 0,25.000053 -3,0 0,12.5 28.000004,0 0,-3.00029 50,0 0,3.00029 z"
       style="stroke-width:0.1;stroke-miterlimit:4;stroke-dasharray:none;stroke:#000000" />
    <path
       style="stroke-width:0.1;stroke-miterlimit:4;stroke-dasharray:none;stroke:#000000"
       d="m 201.50001,-111.99985 0,-18.50014 -3,0 0,-25.00006 3,0 0,-12.49998 -28,0 0,2.99968 -50,0 0,-2.99968 -28.000004,0 0,12.49998 3,0 0,25.00006 -3,0 0,18.50014 28.000004,0 0,-3.0003 50,0 0,3.0003 z"
       id="path5951"
       inkscape:connector-curvature="0"
       sodipodi:nodetypes="ccccccccccccccccccccc" />
    <path
       style="opacity:0.98000004;fill:none;fill-opacity:1;fill-rule:nonzero;stroke:#000000;stroke-width:0.1;stroke-miterlimit:4;stroke-dasharray:none;stroke-dashoffset:0;stroke-opacity:1"
       d="m 193,-160.99999 -9,0 0,11.99999 9,0 z"
       id="rect4319"
       inkscape:connector-curvature="0" />
    <circle
       style="opacity:0.98000004;fill:#ffffff;fill-opacity:1;fill-rule:nonzero;stroke:#000000;stroke-width:0.1;stroke-miterlimit:4;stroke-dasharray:none;stroke-dashoffset:0;stroke-opacity:1"
       id="path4224"
       cx="112.5"
       cy="-133"
       r="6" />
    <circle
       r="6"
       cy="-153"
       cx="112.5"
       id="circle4230"
       style="opacity:0.98000004;fill:#ffffff;fill-opacity:1;fill-rule:nonzero;stroke:#000000;stroke-width:0.1;stroke-miterlimit:4;stroke-dasharray:none;stroke-dashoffset:0;stroke-opacity:1" />
    <circle
       r="6"
       cy="-133"
       cx="140.44"
       id="circle4232"
       style="opacity:0.98000004;fill:#ffffff;fill-opacity:1;fill-rule:nonzero;stroke:#000000;stroke-width:0.1;stroke-miterlimit:4;stroke-dasharray:none;stroke-dashoffset:0;stroke-opacity:1" />
    <circle
       style="opacity:0.98000004;fill:#ffffff;fill-opacity:1;fill-rule:nonzero;stroke:#000000;stroke-width:0.1;stroke-miterlimit:4;stroke-dasharray:none;stroke-dashoffset:0;stroke-opacity:1"
       id="circle4234"
       cx="140.44"
       cy="-153"
       r="6" />
  </g>
</svg>
