<?xml version="1.0" encoding="UTF-8" standalone="no"?>
<svg
   xmlns:dc="http://purl.org/dc/elements/1.1/"
   xmlns:cc="http://creativecommons.org/ns#"
   xmlns:rdf="http://www.w3.org/1999/02/22-rdf-syntax-ns#"
   xmlns:svg="http://www.w3.org/2000/svg"
   xmlns="http://www.w3.org/2000/svg"
   xmlns:sodipodi="http://sodipodi.sourceforge.net/DTD/sodipodi-0.dtd"
   xmlns:inkscape="http://www.inkscape.org/namespaces/inkscape"
   version="1.1"
   width="210mm"
   height="297mm"
   viewBox="0 0 210 297"
   id="svg5399"
   inkscape:version="0.92.2 (5c3e80d, 2017-08-06)"
   sodipodi:docname="BelaCore.svg">
  <metadata
     id="metadata5655">
    <rdf:RDF>
      <cc:Work
         rdf:about="">
        <dc:format>image/svg+xml</dc:format>
        <dc:type
           rdf:resource="http://purl.org/dc/dcmitype/StillImage" />
        <dc:title></dc:title>
      </cc:Work>
    </rdf:RDF>
  </metadata>
  <sodipodi:namedview
     id="base"
     inkscape:document-units="mm"
     units="mm"
     showgrid="false"
     inkscape:zoom="2.5371829"
     inkscape:cx="-27.687276"
     inkscape:cy="638.74932"
     inkscape:window-width="1920"
     inkscape:window-height="1017"
     inkscape:window-x="-8"
     inkscape:window-y="-8"
     inkscape:window-maximized="1"
     inkscape:current-layer="svg5399" />
  <defs
     id="defs5402">
    <g
       id="potgrading" />
    <clipPath
       id="clipPath4662"
       clipPathUnits="userSpaceOnUse">
      <path
         inkscape:connector-curvature="0"
         id="path4664"
         d="m 16.8,17.04 0,808.08 561.6,0 0,-808.08 -561.6,0 z" />
    </clipPath>
    <clipPath
       id="clipPath4676"
       clipPathUnits="userSpaceOnUse">
      <path
         inkscape:connector-curvature="0"
         id="path4678"
         d="m 16.8,647.28 0,177.84 321.36,0 0,-177.84 -321.36,0 z" />
    </clipPath>
  </defs>
  <rect
     style="fill:none;stroke:#ff0000;stroke-width:0.05"
     id="rect5407"
     height="128.5"
     width="60.599998"
     y="1.0583333"
     x="1.0583332" />
  <circle
     style="fill:none;stroke:#ff0000;stroke-width:0.05"
     id="circle5409"
     r="1.6"
     cy="4.0583334"
     cx="8.5583334" />
  <circle
     style="fill:none;stroke:#ff0000;stroke-width:0.05"
     id="circle5411"
     r="1.6"
     cy="126.55833"
     cx="8.5583334" />
  <circle
     style="fill:none;stroke:#ff0000;stroke-width:0.05"
     id="circle5413"
     r="1.6"
     cy="4.0583334"
     cx="54.278336" />
  <circle
     style="fill:none;stroke:#ff0000;stroke-width:0.05"
     id="circle5415"
     r="1.6"
     cy="126.55833"
     cx="54.278336" />
  <path
     id="path5417"
     style="fill:none;stroke:#ff0000;stroke-width:0.05"
     d="m 18.658334,20.108338 c -2.612901,0 -4.737597,2.115556 -4.737597,4.727735 0,2.135913 1.421033,3.945767 3.365068,4.5331 v 2.107204 l 2.632936,1.41e-4 v -2.079677 c 1.996054,-0.554631 3.466996,-2.388302 3.466996,-4.561134 3.38e-4,-2.612179 -2.115205,-4.727369 -4.727403,-4.727369 z"
     inkscape:connector-curvature="0" />
  <g
     style="fill:none;stroke:#0000ff;stroke-width:0.05;stroke-opacity:1"
     id="g5419"
     transform="translate(18.658334,24.858338)">
    <g
       id="g5421"
       style="stroke:#0000ff;stroke-opacity:1">
      <path
         inkscape:connector-curvature="0"
         id="path5423"
         d="M -4.2037748,7.5814929 C -6.8346316,6.1114925 -8.6120123,3.3014922 -8.6120123,0.07148931 c 0,-4.75000381 3.8628404,-8.61000481 8.6282233,-8.61000481 4.764047,0 8.627555,3.8600011 8.627555,8.61000481 0,3.23000299 -1.780051,6.04000329 -4.414579,7.52000359"
         style="fill:none;stroke:#0000ff;stroke-width:0.212;stroke-opacity:1" />
      <path
         inkscape:connector-curvature="0"
         id="path5425"
         d="m -2.440413,-9.0485165 0.216323,0.810001"
         style="fill:none;stroke:#0000ff;stroke-width:0.212;stroke-opacity:1" />
      <path
         inkscape:connector-curvature="0"
         id="path5427"
         d="m -5.1129926,-8.7785155 0.8080822,1.4000001"
         style="fill:none;stroke:#0000ff;stroke-width:0.28299999;stroke-opacity:1" />
      <path
         inkscape:connector-curvature="0"
         id="path5429"
         d="m -6.6800914,-6.5985155 0.5891225,0.59"
         style="fill:none;stroke:#0000ff;stroke-width:0.212;stroke-opacity:1" />
      <path
         inkscape:connector-curvature="0"
         id="path5431"
         d="m -8.8466601,-5.0285155 1.3848552,0.8000013"
         style="fill:none;stroke:#0000ff;stroke-width:0.28299999;stroke-opacity:1" />
      <path
         inkscape:connector-curvature="0"
         id="path5433"
         d="m -9.1267017,-2.3685125 0.8044106,0.2200004"
         style="fill:none;stroke:#0000ff;stroke-width:0.212;stroke-opacity:1" />
      <path
         inkscape:connector-curvature="0"
         id="path5435"
         d="m -10.221501,0.08148931 h 1.6061507"
         style="fill:none;stroke:#0000ff;stroke-width:0.28299999;stroke-opacity:1" />
      <path
         inkscape:connector-curvature="0"
         id="path5437"
         d="M -9.1243652,2.5214918 -8.3199546,2.3014913"
         style="fill:none;stroke:#0000ff;stroke-width:0.212;stroke-opacity:1" />
      <path
         inkscape:connector-curvature="0"
         id="path5439"
         d="M -8.8489964,5.181492 -7.4574658,4.3814921"
         style="fill:none;stroke:#0000ff;stroke-width:0.28299999;stroke-opacity:1" />
      <path
         inkscape:connector-curvature="0"
         id="path5441"
         d="m -6.6737496,6.7514925 0.5877873,-0.59"
         style="fill:none;stroke:#0000ff;stroke-width:0.212;stroke-opacity:1" />
      <path
         inkscape:connector-curvature="0"
         id="path5443"
         d="m -5.0742739,8.871494 0.776373,-1.3400011"
         style="fill:none;stroke:#0000ff;stroke-width:0.28299999;stroke-opacity:1" />
      <path
         inkscape:connector-curvature="0"
         id="path5445"
         d="M 5.113671,8.8814939 4.329988,7.5214929"
         style="fill:none;stroke:#0000ff;stroke-width:0.28299999;stroke-opacity:1" />
      <path
         inkscape:connector-curvature="0"
         id="path5447"
         d="m 6.704836,6.7414925 -0.588789,-0.58"
         style="fill:none;stroke:#0000ff;stroke-width:0.212;stroke-opacity:1" />
      <path
         inkscape:connector-curvature="0"
         id="path5449"
         d="m 8.846371,5.1614921 -1.360155,-0.79"
         style="fill:none;stroke:#0000ff;stroke-width:0.28299999;stroke-opacity:1" />
      <path
         inkscape:connector-curvature="0"
         id="path5451"
         d="M 9.151112,2.5114918 8.347402,2.2914913"
         style="fill:none;stroke:#0000ff;stroke-width:0.212;stroke-opacity:1" />
      <path
         inkscape:connector-curvature="0"
         id="path5453"
         d="M 10.195511,0.07148931 H 8.640094"
         style="fill:none;stroke:#0000ff;stroke-width:0.28299999;stroke-opacity:1" />
      <path
         inkscape:connector-curvature="0"
         id="path5455"
         d="M 9.148809,-2.3785126 8.344698,-2.1585121"
         style="fill:none;stroke:#0000ff;stroke-width:0.212;stroke-opacity:1" />
      <path
         inkscape:connector-curvature="0"
         id="path5457"
         d="M 8.836691,-5.0185155 7.482544,-4.2385142"
         style="fill:none;stroke:#0000ff;stroke-width:0.28299999;stroke-opacity:1" />
      <path
         inkscape:connector-curvature="0"
         id="path5459"
         d="m 6.699128,-6.6085155 -0.588421,0.59"
         style="fill:none;stroke:#0000ff;stroke-width:0.212;stroke-opacity:1" />
      <path
         inkscape:connector-curvature="0"
         id="path5461"
         d="m 5.131729,-8.7785155 -0.80875,1.39"
         style="fill:none;stroke:#0000ff;stroke-width:0.28299999;stroke-opacity:1" />
      <path
         inkscape:connector-curvature="0"
         id="path5463"
         d="m 2.456813,-9.0485165 -0.215288,0.800001"
         style="fill:none;stroke:#0000ff;stroke-width:0.212;stroke-opacity:1" />
      <path
         inkscape:connector-curvature="0"
         id="path5465"
         d="m 0.007833,-10.128517 v 1.5900015"
         style="fill:none;stroke:#0000ff;stroke-width:0.28299999;stroke-opacity:1" />
    </g>
  </g>
  <path
     id="path5467"
     style="fill:none;stroke:#ff0000;stroke-width:0.05"
     d="m 44.058334,20.108338 c -2.612901,0 -4.737597,2.115556 -4.737597,4.727735 0,2.135913 1.421033,3.945767 3.365068,4.5331 v 2.107204 l 2.632936,1.41e-4 v -2.079677 c 1.996054,-0.554631 3.466996,-2.388302 3.466996,-4.561134 3.38e-4,-2.612179 -2.115205,-4.727369 -4.727403,-4.727369 z"
     inkscape:connector-curvature="0" />
  <g
     style="fill:none;stroke:#0000ff;stroke-width:0.05;stroke-opacity:1"
     id="g5469"
     transform="translate(44.058334,24.858338)">
    <g
       id="g5471"
       style="stroke:#0000ff;stroke-opacity:1">
      <path
         inkscape:connector-curvature="0"
         id="path5473"
         d="M -4.2037748,7.5814929 C -6.8346316,6.1114925 -8.6120123,3.3014922 -8.6120123,0.07148931 c 0,-4.75000381 3.8628404,-8.61000481 8.6282233,-8.61000481 4.764047,0 8.627555,3.8600011 8.627555,8.61000481 0,3.23000299 -1.780051,6.04000329 -4.414579,7.52000359"
         style="fill:none;stroke:#0000ff;stroke-width:0.212;stroke-opacity:1" />
      <path
         inkscape:connector-curvature="0"
         id="path5475"
         d="m -2.440413,-9.0485165 0.216323,0.810001"
         style="fill:none;stroke:#0000ff;stroke-width:0.212;stroke-opacity:1" />
      <path
         inkscape:connector-curvature="0"
         id="path5477"
         d="m -5.1129926,-8.7785155 0.8080822,1.4000001"
         style="fill:none;stroke:#0000ff;stroke-width:0.28299999;stroke-opacity:1" />
      <path
         inkscape:connector-curvature="0"
         id="path5479"
         d="m -6.6800914,-6.5985155 0.5891225,0.59"
         style="fill:none;stroke:#0000ff;stroke-width:0.212;stroke-opacity:1" />
      <path
         inkscape:connector-curvature="0"
         id="path5481"
         d="m -8.8466601,-5.0285155 1.3848552,0.8000013"
         style="fill:none;stroke:#0000ff;stroke-width:0.28299999;stroke-opacity:1" />
      <path
         inkscape:connector-curvature="0"
         id="path5483"
         d="m -9.1267017,-2.3685125 0.8044106,0.2200004"
         style="fill:none;stroke:#0000ff;stroke-width:0.212;stroke-opacity:1" />
      <path
         inkscape:connector-curvature="0"
         id="path5485"
         d="m -10.221501,0.08148931 h 1.6061507"
         style="fill:none;stroke:#0000ff;stroke-width:0.28299999;stroke-opacity:1" />
      <path
         inkscape:connector-curvature="0"
         id="path5487"
         d="M -9.1243652,2.5214918 -8.3199546,2.3014913"
         style="fill:none;stroke:#0000ff;stroke-width:0.212;stroke-opacity:1" />
      <path
         inkscape:connector-curvature="0"
         id="path5489"
         d="M -8.8489964,5.181492 -7.4574658,4.3814921"
         style="fill:none;stroke:#0000ff;stroke-width:0.28299999;stroke-opacity:1" />
      <path
         inkscape:connector-curvature="0"
         id="path5491"
         d="m -6.6737496,6.7514925 0.5877873,-0.59"
         style="fill:none;stroke:#0000ff;stroke-width:0.212;stroke-opacity:1" />
      <path
         inkscape:connector-curvature="0"
         id="path5493"
         d="m -5.0742739,8.871494 0.776373,-1.3400011"
         style="fill:none;stroke:#0000ff;stroke-width:0.28299999;stroke-opacity:1" />
      <path
         inkscape:connector-curvature="0"
         id="path5495"
         d="M 5.113671,8.8814939 4.329988,7.5214929"
         style="fill:none;stroke:#0000ff;stroke-width:0.28299999;stroke-opacity:1" />
      <path
         inkscape:connector-curvature="0"
         id="path5497"
         d="m 6.704836,6.7414925 -0.588789,-0.58"
         style="fill:none;stroke:#0000ff;stroke-width:0.212;stroke-opacity:1" />
      <path
         inkscape:connector-curvature="0"
         id="path5499"
         d="m 8.846371,5.1614921 -1.360155,-0.79"
         style="fill:none;stroke:#0000ff;stroke-width:0.28299999;stroke-opacity:1" />
      <path
         inkscape:connector-curvature="0"
         id="path5501"
         d="M 9.151112,2.5114918 8.347402,2.2914913"
         style="fill:none;stroke:#0000ff;stroke-width:0.212;stroke-opacity:1" />
      <path
         inkscape:connector-curvature="0"
         id="path5503"
         d="M 10.195511,0.07148931 H 8.640094"
         style="fill:none;stroke:#0000ff;stroke-width:0.28299999;stroke-opacity:1" />
      <path
         inkscape:connector-curvature="0"
         id="path5505"
         d="M 9.148809,-2.3785126 8.344698,-2.1585121"
         style="fill:none;stroke:#0000ff;stroke-width:0.212;stroke-opacity:1" />
      <path
         inkscape:connector-curvature="0"
         id="path5507"
         d="M 8.836691,-5.0185155 7.482544,-4.2385142"
         style="fill:none;stroke:#0000ff;stroke-width:0.28299999;stroke-opacity:1" />
      <path
         inkscape:connector-curvature="0"
         id="path5509"
         d="m 6.699128,-6.6085155 -0.588421,0.59"
         style="fill:none;stroke:#0000ff;stroke-width:0.212;stroke-opacity:1" />
      <path
         inkscape:connector-curvature="0"
         id="path5511"
         d="m 5.131729,-8.7785155 -0.80875,1.39"
         style="fill:none;stroke:#0000ff;stroke-width:0.28299999;stroke-opacity:1" />
      <path
         inkscape:connector-curvature="0"
         id="path5513"
         d="m 2.456813,-9.0485165 -0.215288,0.800001"
         style="fill:none;stroke:#0000ff;stroke-width:0.212;stroke-opacity:1" />
      <path
         inkscape:connector-curvature="0"
         id="path5515"
         d="m 0.007833,-10.128517 v 1.5900015"
         style="fill:none;stroke:#0000ff;stroke-width:0.28299999;stroke-opacity:1" />
    </g>
  </g>
  <path
     id="path5517"
     style="fill:none;stroke:#ff0000;stroke-width:0.05"
     d="m 18.658334,45.508338 c -2.612901,0 -4.737597,2.115556 -4.737597,4.727735 0,2.135913 1.421033,3.945767 3.365068,4.5331 v 2.107204 l 2.632936,1.41e-4 v -2.079677 c 1.996054,-0.554631 3.466996,-2.388302 3.466996,-4.561134 3.38e-4,-2.612179 -2.115205,-4.727369 -4.727403,-4.727369 z"
     inkscape:connector-curvature="0" />
  <g
     style="fill:none;stroke:#0000ff;stroke-width:0.05;stroke-opacity:1"
     id="g5519"
     transform="translate(18.658334,50.258338)">
    <g
       id="g5521"
       style="stroke:#0000ff;stroke-opacity:1">
      <path
         inkscape:connector-curvature="0"
         id="path5523"
         d="M -4.2037748,7.5814929 C -6.8346316,6.1114925 -8.6120123,3.3014922 -8.6120123,0.07148931 c 0,-4.75000381 3.8628404,-8.61000481 8.6282233,-8.61000481 4.764047,0 8.627555,3.8600011 8.627555,8.61000481 0,3.23000299 -1.780051,6.04000329 -4.414579,7.52000359"
         style="fill:none;stroke:#0000ff;stroke-width:0.212;stroke-opacity:1" />
      <path
         inkscape:connector-curvature="0"
         id="path5525"
         d="m -2.440413,-9.0485165 0.216323,0.810001"
         style="fill:none;stroke:#0000ff;stroke-width:0.212;stroke-opacity:1" />
      <path
         inkscape:connector-curvature="0"
         id="path5527"
         d="m -5.1129926,-8.7785155 0.8080822,1.4000001"
         style="fill:none;stroke:#0000ff;stroke-width:0.28299999;stroke-opacity:1" />
      <path
         inkscape:connector-curvature="0"
         id="path5529"
         d="m -6.6800914,-6.5985155 0.5891225,0.59"
         style="fill:none;stroke:#0000ff;stroke-width:0.212;stroke-opacity:1" />
      <path
         inkscape:connector-curvature="0"
         id="path5531"
         d="m -8.8466601,-5.0285155 1.3848552,0.8000013"
         style="fill:none;stroke:#0000ff;stroke-width:0.28299999;stroke-opacity:1" />
      <path
         inkscape:connector-curvature="0"
         id="path5533"
         d="m -9.1267017,-2.3685125 0.8044106,0.2200004"
         style="fill:none;stroke:#0000ff;stroke-width:0.212;stroke-opacity:1" />
      <path
         inkscape:connector-curvature="0"
         id="path5535"
         d="m -10.221501,0.08148931 h 1.6061507"
         style="fill:none;stroke:#0000ff;stroke-width:0.28299999;stroke-opacity:1" />
      <path
         inkscape:connector-curvature="0"
         id="path5537"
         d="M -9.1243652,2.5214918 -8.3199546,2.3014913"
         style="fill:none;stroke:#0000ff;stroke-width:0.212;stroke-opacity:1" />
      <path
         inkscape:connector-curvature="0"
         id="path5539"
         d="M -8.8489964,5.181492 -7.4574658,4.3814921"
         style="fill:none;stroke:#0000ff;stroke-width:0.28299999;stroke-opacity:1" />
      <path
         inkscape:connector-curvature="0"
         id="path5541"
         d="m -6.6737496,6.7514925 0.5877873,-0.59"
         style="fill:none;stroke:#0000ff;stroke-width:0.212;stroke-opacity:1" />
      <path
         inkscape:connector-curvature="0"
         id="path5543"
         d="m -5.0742739,8.871494 0.776373,-1.3400011"
         style="fill:none;stroke:#0000ff;stroke-width:0.28299999;stroke-opacity:1" />
      <path
         inkscape:connector-curvature="0"
         id="path5545"
         d="M 5.113671,8.8814939 4.329988,7.5214929"
         style="fill:none;stroke:#0000ff;stroke-width:0.28299999;stroke-opacity:1" />
      <path
         inkscape:connector-curvature="0"
         id="path5547"
         d="m 6.704836,6.7414925 -0.588789,-0.58"
         style="fill:none;stroke:#0000ff;stroke-width:0.212;stroke-opacity:1" />
      <path
         inkscape:connector-curvature="0"
         id="path5549"
         d="m 8.846371,5.1614921 -1.360155,-0.79"
         style="fill:none;stroke:#0000ff;stroke-width:0.28299999;stroke-opacity:1" />
      <path
         inkscape:connector-curvature="0"
         id="path5551"
         d="M 9.151112,2.5114918 8.347402,2.2914913"
         style="fill:none;stroke:#0000ff;stroke-width:0.212;stroke-opacity:1" />
      <path
         inkscape:connector-curvature="0"
         id="path5553"
         d="M 10.195511,0.07148931 H 8.640094"
         style="fill:none;stroke:#0000ff;stroke-width:0.28299999;stroke-opacity:1" />
      <path
         inkscape:connector-curvature="0"
         id="path5555"
         d="M 9.148809,-2.3785126 8.344698,-2.1585121"
         style="fill:none;stroke:#0000ff;stroke-width:0.212;stroke-opacity:1" />
      <path
         inkscape:connector-curvature="0"
         id="path5557"
         d="M 8.836691,-5.0185155 7.482544,-4.2385142"
         style="fill:none;stroke:#0000ff;stroke-width:0.28299999;stroke-opacity:1" />
      <path
         inkscape:connector-curvature="0"
         id="path5559"
         d="m 6.699128,-6.6085155 -0.588421,0.59"
         style="fill:none;stroke:#0000ff;stroke-width:0.212;stroke-opacity:1" />
      <path
         inkscape:connector-curvature="0"
         id="path5561"
         d="m 5.131729,-8.7785155 -0.80875,1.39"
         style="fill:none;stroke:#0000ff;stroke-width:0.28299999;stroke-opacity:1" />
      <path
         inkscape:connector-curvature="0"
         id="path5563"
         d="m 2.456813,-9.0485165 -0.215288,0.800001"
         style="fill:none;stroke:#0000ff;stroke-width:0.212;stroke-opacity:1" />
      <path
         inkscape:connector-curvature="0"
         id="path5565"
         d="m 0.007833,-10.128517 v 1.5900015"
         style="fill:none;stroke:#0000ff;stroke-width:0.28299999;stroke-opacity:1" />
    </g>
  </g>
  <path
     id="path5567"
     style="fill:none;stroke:#ff0000;stroke-width:0.05;stroke-miterlimit:4;stroke-dasharray:none"
     d="m 44.058334,45.508338 c -2.612901,0 -4.737597,2.115556 -4.737597,4.727735 0,2.135913 1.421033,3.945767 3.365068,4.5331 v 2.107204 l 2.632936,1.41e-4 v -2.079677 c 1.996054,-0.554631 3.466996,-2.388302 3.466996,-4.561134 3.38e-4,-2.612179 -2.115205,-4.727369 -4.727403,-4.727369 z"
     inkscape:connector-curvature="0" />
  <g
     style="fill:none;stroke:#0000ff;stroke-width:0.05;stroke-opacity:1"
     id="g5569"
     transform="translate(44.058334,50.258338)">
    <g
       id="g5571"
       style="stroke:#0000ff;stroke-opacity:1">
      <path
         inkscape:connector-curvature="0"
         id="path5573"
         d="M -4.2037748,7.5814929 C -6.8346316,6.1114925 -8.6120123,3.3014922 -8.6120123,0.07148931 c 0,-4.75000381 3.8628404,-8.61000481 8.6282233,-8.61000481 4.764047,0 8.627555,3.8600011 8.627555,8.61000481 0,3.23000299 -1.780051,6.04000329 -4.414579,7.52000359"
         style="fill:none;stroke:#0000ff;stroke-width:0.212;stroke-opacity:1" />
      <path
         inkscape:connector-curvature="0"
         id="path5575"
         d="m -2.440413,-9.0485165 0.216323,0.810001"
         style="fill:none;stroke:#0000ff;stroke-width:0.212;stroke-opacity:1" />
      <path
         inkscape:connector-curvature="0"
         id="path5577"
         d="m -5.1129926,-8.7785155 0.8080822,1.4000001"
         style="fill:none;stroke:#0000ff;stroke-width:0.28299999;stroke-opacity:1" />
      <path
         inkscape:connector-curvature="0"
         id="path5579"
         d="m -6.6800914,-6.5985155 0.5891225,0.59"
         style="fill:none;stroke:#0000ff;stroke-width:0.212;stroke-opacity:1" />
      <path
         inkscape:connector-curvature="0"
         id="path5581"
         d="m -8.8466601,-5.0285155 1.3848552,0.8000013"
         style="fill:none;stroke:#0000ff;stroke-width:0.28299999;stroke-opacity:1" />
      <path
         inkscape:connector-curvature="0"
         id="path5583"
         d="m -9.1267017,-2.3685125 0.8044106,0.2200004"
         style="fill:none;stroke:#0000ff;stroke-width:0.212;stroke-opacity:1" />
      <path
         inkscape:connector-curvature="0"
         id="path5585"
         d="m -10.221501,0.08148931 h 1.6061507"
         style="fill:none;stroke:#0000ff;stroke-width:0.28299999;stroke-opacity:1" />
      <path
         inkscape:connector-curvature="0"
         id="path5587"
         d="M -9.1243652,2.5214918 -8.3199546,2.3014913"
         style="fill:none;stroke:#0000ff;stroke-width:0.212;stroke-opacity:1" />
      <path
         inkscape:connector-curvature="0"
         id="path5589"
         d="M -8.8489964,5.181492 -7.4574658,4.3814921"
         style="fill:none;stroke:#0000ff;stroke-width:0.28299999;stroke-opacity:1" />
      <path
         inkscape:connector-curvature="0"
         id="path5591"
         d="m -6.6737496,6.7514925 0.5877873,-0.59"
         style="fill:none;stroke:#0000ff;stroke-width:0.212;stroke-opacity:1" />
      <path
         inkscape:connector-curvature="0"
         id="path5593"
         d="m -5.0742739,8.871494 0.776373,-1.3400011"
         style="fill:none;stroke:#0000ff;stroke-width:0.28299999;stroke-opacity:1" />
      <path
         inkscape:connector-curvature="0"
         id="path5595"
         d="M 5.113671,8.8814939 4.329988,7.5214929"
         style="fill:none;stroke:#0000ff;stroke-width:0.28299999;stroke-opacity:1" />
      <path
         inkscape:connector-curvature="0"
         id="path5597"
         d="m 6.704836,6.7414925 -0.588789,-0.58"
         style="fill:none;stroke:#0000ff;stroke-width:0.212;stroke-opacity:1" />
      <path
         inkscape:connector-curvature="0"
         id="path5599"
         d="m 8.846371,5.1614921 -1.360155,-0.79"
         style="fill:none;stroke:#0000ff;stroke-width:0.28299999;stroke-opacity:1" />
      <path
         inkscape:connector-curvature="0"
         id="path5601"
         d="M 9.151112,2.5114918 8.347402,2.2914913"
         style="fill:none;stroke:#0000ff;stroke-width:0.212;stroke-opacity:1" />
      <path
         inkscape:connector-curvature="0"
         id="path5603"
         d="M 10.195511,0.07148931 H 8.640094"
         style="fill:none;stroke:#0000ff;stroke-width:0.28299999;stroke-opacity:1" />
      <path
         inkscape:connector-curvature="0"
         id="path5605"
         d="M 9.148809,-2.3785126 8.344698,-2.1585121"
         style="fill:none;stroke:#0000ff;stroke-width:0.212;stroke-opacity:1" />
      <path
         inkscape:connector-curvature="0"
         id="path5607"
         d="M 8.836691,-5.0185155 7.482544,-4.2385142"
         style="fill:none;stroke:#0000ff;stroke-width:0.28299999;stroke-opacity:1" />
      <path
         inkscape:connector-curvature="0"
         id="path5609"
         d="m 6.699128,-6.6085155 -0.588421,0.59"
         style="fill:none;stroke:#0000ff;stroke-width:0.212;stroke-opacity:1" />
      <path
         inkscape:connector-curvature="0"
         id="path5611"
         d="m 5.131729,-8.7785155 -0.80875,1.39"
         style="fill:none;stroke:#0000ff;stroke-width:0.28299999;stroke-opacity:1" />
      <path
         inkscape:connector-curvature="0"
         id="path5613"
         d="m 2.456813,-9.0485165 -0.215288,0.800001"
         style="fill:none;stroke:#0000ff;stroke-width:0.212;stroke-opacity:1" />
      <path
         inkscape:connector-curvature="0"
         id="path5615"
         d="m 0.007833,-10.128517 v 1.5900015"
         style="fill:none;stroke:#0000ff;stroke-width:0.28299999;stroke-opacity:1" />
    </g>
  </g>
  <rect
     id="rect5621"
     style="fill:none;stroke:#ff0000;stroke-width:0.05;stroke-miterlimit:4;stroke-dasharray:none"
     height="11.995665"
     width="12.995664"
     y="100.4105"
     x="5.8105025" />
  <circle
     id="circle5623"
     style="fill:none;stroke:#ff0000;stroke-width:0.05"
     r="3.25"
     cy="75.658333"
     cx="5.9583335" />
  <circle
     id="circle5625"
     style="fill:none;stroke:#ff0000;stroke-width:0.05"
     r="3.25"
     cy="88.358337"
     cx="5.9583335" />
  <circle
     id="circle5627"
     style="fill:none;stroke:#ff0000;stroke-width:0.05"
     r="3.25"
     cy="75.658333"
     cx="18.658335" />
  <circle
     id="circle5629"
     style="fill:none;stroke:#ff0000;stroke-width:0.05"
     r="3.25"
     cy="88.358337"
     cx="18.658335" />
  <circle
     id="circle5631"
     style="fill:none;stroke:#ff0000;stroke-width:0.05"
     r="3.25"
     cy="75.658333"
     cx="31.358335" />
  <circle
     id="circle5633"
     style="fill:none;stroke:#ff0000;stroke-width:0.05"
     r="3.25"
     cy="88.358337"
     cx="31.358335" />
  <circle
     id="circle5635"
     style="fill:none;stroke:#ff0000;stroke-width:0.05"
     r="3.25"
     cy="101.05833"
     cx="31.358335" />
  <circle
     id="circle5637"
     style="fill:none;stroke:#ff0000;stroke-width:0.05"
     r="3.25"
     cy="113.75832"
     cx="31.358335" />
  <circle
     id="circle5639"
     style="fill:none;stroke:#ff0000;stroke-width:0.05"
     r="3.25"
     cy="75.658333"
     cx="44.058334" />
  <circle
     id="circle5641"
     style="fill:none;stroke:#ff0000;stroke-width:0.05"
     r="3.25"
     cy="88.358337"
     cx="44.058334" />
  <circle
     id="circle5643"
     style="fill:none;stroke:#ff0000;stroke-width:0.05"
     r="3.25"
     cy="101.05833"
     cx="44.058334" />
  <circle
     id="circle5645"
     style="fill:none;stroke:#ff0000;stroke-width:0.05"
     r="3.25"
     cy="113.75832"
     cx="44.058334" />
  <circle
     id="circle5647"
     style="fill:none;stroke:#ff0000;stroke-width:0.05"
     r="3.25"
     cy="75.658333"
     cx="56.758335" />
  <circle
     id="circle5649"
     style="fill:none;stroke:#ff0000;stroke-width:0.05"
     r="3.25"
     cy="88.358337"
     cx="56.758335" />
  <circle
     id="circle5651"
     style="fill:none;stroke:#ff0000;stroke-width:0.05"
     r="3.25"
     cy="101.05833"
     cx="56.758335" />
  <circle
     id="circle5653"
     style="fill:none;stroke:#ff0000;stroke-width:0.05"
     r="3.25"
     cy="113.75832"
     cx="56.758335" />
  <g
     id="g4656"
     transform="matrix(0,-0.35277778,-0.35277778,0,289.77295,129.50888)" />
  <g
     id="g4658"
     transform="matrix(0,-0.35277778,-0.35277778,0,289.77295,129.50888)">
    <g
       id="g4660"
       clip-path="url(#clipPath4662)">
      <g
         id="g4666"
         transform="matrix(0.24,0,0,-0.24,16.8,825.12)" />
    </g>
  </g>
  <path
     style="fill:none;stroke:#ff0000;stroke-width:0.05;stroke-linecap:round;stroke-linejoin:round;stroke-miterlimit:10;stroke-dasharray:none;stroke-opacity:1"
     d="m 44.077834,59.245097 c -2.126764,0 -3.850737,1.724437 -3.850737,3.851039 0,2.126605 1.723973,3.850436 3.850737,3.850436 2.126756,0 3.850738,-1.723831 3.850738,-3.850436 0,-2.126602 -1.723982,-3.851039 -3.850738,-3.851039 z"
     id="path6118-0"
     inkscape:connector-curvature="0" />
  <path
     style="fill:none;stroke:#ff0000;stroke-width:0.05;stroke-linecap:round;stroke-linejoin:round;stroke-miterlimit:10;stroke-dasharray:none;stroke-opacity:1"
     d="m 18.741834,59.245097 c -2.126763,0 -3.850737,1.724437 -3.850737,3.851039 0,2.126605 1.723974,3.850436 3.850737,3.850436 2.126756,0 3.850737,-1.723831 3.850737,-3.850436 0,-2.126602 -1.723981,-3.851039 -3.850737,-3.851039 z"
     id="path6118-0-4"
     inkscape:connector-curvature="0" />
</svg>
