<?xml version="1.0" encoding="UTF-8" standalone="no"?>
<svg
   xmlns:dc="http://purl.org/dc/elements/1.1/"
   xmlns:cc="http://creativecommons.org/ns#"
   xmlns:rdf="http://www.w3.org/1999/02/22-rdf-syntax-ns#"
   xmlns:svg="http://www.w3.org/2000/svg"
   xmlns="http://www.w3.org/2000/svg"
   xmlns:sodipodi="http://sodipodi.sourceforge.net/DTD/sodipodi-0.dtd"
   xmlns:inkscape="http://www.inkscape.org/namespaces/inkscape"
   version="1.1"
   width="210mm"
   height="297mm"
   viewBox="0 0 210 297"
   id="svg2"
   inkscape:version="0.91 r13725"
   sodipodi:docname="BelaExpander.svg">
  <metadata
     id="metadata250">
    <rdf:RDF>
      <cc:Work
         rdf:about="">
        <dc:format>image/svg+xml</dc:format>
        <dc:type
           rdf:resource="http://purl.org/dc/dcmitype/StillImage" />
        <dc:title />
      </cc:Work>
    </rdf:RDF>
  </metadata>
  <sodipodi:namedview
     id="base"
     inkscape:document-units="mm"
     units="mm"
     showgrid="false"
     inkscape:zoom="1.7940591"
     inkscape:cx="-62.576294"
     inkscape:cy="946.7547"
     inkscape:window-width="1615"
     inkscape:window-height="1026"
     inkscape:window-x="65"
     inkscape:window-y="24"
     inkscape:window-maximized="1"
     inkscape:current-layer="svg2" />
  <defs
     id="defs5">
    <g
       id="potgrading" />
    <g
       id="potgrading-6" />
    <clipPath
       id="clipPath4307"
       clipPathUnits="userSpaceOnUse">
      <path
         inkscape:connector-curvature="0"
         id="path4309"
         d="m 16.8,17.04003 0,561.35997 808.32,0 0,-561.35997 -808.32,0 z" />
    </clipPath>
    <clipPath
       id="clipPath4321"
       clipPathUnits="userSpaceOnUse">
      <path
         inkscape:connector-curvature="0"
         id="path4323"
         d="m 16.8,419.76 0,158.64 325.68,0 0,-158.64 -325.68,0 z" />
    </clipPath>
  </defs>
  <rect
     style="fill:none;stroke:#ff0000;stroke-width:0.05"
     id="rect10"
     height="128.5"
     width="50.5"
     y="0.52916652"
     x="0.52916652" />
  <circle
     style="fill:none;stroke:#ff0000;stroke-width:0.05"
     id="circle12"
     r="1.6"
     cy="3.5291669"
     cx="8.0291672" />
  <circle
     style="fill:none;stroke:#ff0000;stroke-width:0.05"
     id="circle14"
     r="1.6"
     cy="126.02917"
     cx="8.0291672" />
  <circle
     style="fill:none;stroke:#ff0000;stroke-width:0.05"
     id="circle16"
     r="1.6"
     cy="3.5291669"
     cx="43.589169" />
  <circle
     style="fill:none;stroke:#ff0000;stroke-width:0.05"
     id="circle18"
     r="1.6"
     cy="126.02917"
     cx="43.589169" />
  <path
     id="path20"
     style="fill:none;stroke:#ff0000;stroke-width:0.05"
     d="m 13.079167,19.579166 c -2.612902,0 -4.737597,2.115556 -4.737597,4.727735 0,2.135913 1.421033,3.945767 3.365068,4.5331 v 2.107204 l 2.632936,1.41e-4 v -2.079677 c 1.996054,-0.554631 3.466996,-2.388302 3.466996,-4.561134 3.38e-4,-2.612179 -2.115205,-4.727369 -4.727403,-4.727369 z"
     inkscape:connector-curvature="0" />
  <g
     style="fill:none;stroke:#0000ff;stroke-width:0.05;stroke-opacity:1"
     id="g22"
     transform="translate(13.079167,24.329166)">
    <g
       id="g24"
       style="stroke:#0000ff;stroke-opacity:1">
      <path
         inkscape:connector-curvature="0"
         id="path26"
         d="M -4.2037748,7.5814929 C -6.8346316,6.1114925 -8.6120123,3.3014922 -8.6120123,0.07148931 c 0,-4.75000381 3.8628404,-8.61000481 8.6282233,-8.61000481 4.764047,0 8.627555,3.8600011 8.627555,8.61000481 0,3.23000299 -1.780051,6.04000329 -4.414579,7.52000359"
         style="fill:none;stroke:#0000ff;stroke-width:0.212;stroke-opacity:1" />
      <path
         inkscape:connector-curvature="0"
         id="path28"
         d="m -2.440413,-9.0485165 0.216323,0.810001"
         style="fill:none;stroke:#0000ff;stroke-width:0.212;stroke-opacity:1" />
      <path
         inkscape:connector-curvature="0"
         id="path30"
         d="m -5.1129926,-8.7785155 0.8080822,1.4000001"
         style="fill:none;stroke:#0000ff;stroke-width:0.28299999;stroke-opacity:1" />
      <path
         inkscape:connector-curvature="0"
         id="path32"
         d="m -6.6800914,-6.5985155 0.5891225,0.59"
         style="fill:none;stroke:#0000ff;stroke-width:0.212;stroke-opacity:1" />
      <path
         inkscape:connector-curvature="0"
         id="path34"
         d="m -8.8466601,-5.0285155 1.3848552,0.8000013"
         style="fill:none;stroke:#0000ff;stroke-width:0.28299999;stroke-opacity:1" />
      <path
         inkscape:connector-curvature="0"
         id="path36"
         d="m -9.1267017,-2.3685125 0.8044106,0.2200004"
         style="fill:none;stroke:#0000ff;stroke-width:0.212;stroke-opacity:1" />
      <path
         inkscape:connector-curvature="0"
         id="path38"
         d="m -10.221501,0.08148931 h 1.6061507"
         style="fill:none;stroke:#0000ff;stroke-width:0.28299999;stroke-opacity:1" />
      <path
         inkscape:connector-curvature="0"
         id="path40"
         d="M -9.1243652,2.5214918 -8.3199546,2.3014913"
         style="fill:none;stroke:#0000ff;stroke-width:0.212;stroke-opacity:1" />
      <path
         inkscape:connector-curvature="0"
         id="path42"
         d="M -8.8489964,5.181492 -7.4574658,4.3814921"
         style="fill:none;stroke:#0000ff;stroke-width:0.28299999;stroke-opacity:1" />
      <path
         inkscape:connector-curvature="0"
         id="path44"
         d="m -6.6737496,6.7514925 0.5877873,-0.59"
         style="fill:none;stroke:#0000ff;stroke-width:0.212;stroke-opacity:1" />
      <path
         inkscape:connector-curvature="0"
         id="path46"
         d="m -5.0742739,8.871494 0.776373,-1.3400011"
         style="fill:none;stroke:#0000ff;stroke-width:0.28299999;stroke-opacity:1" />
      <path
         inkscape:connector-curvature="0"
         id="path48"
         d="M 5.113671,8.8814939 4.329988,7.5214929"
         style="fill:none;stroke:#0000ff;stroke-width:0.28299999;stroke-opacity:1" />
      <path
         inkscape:connector-curvature="0"
         id="path50"
         d="m 6.704836,6.7414925 -0.588789,-0.58"
         style="fill:none;stroke:#0000ff;stroke-width:0.212;stroke-opacity:1" />
      <path
         inkscape:connector-curvature="0"
         id="path52"
         d="m 8.846371,5.1614921 -1.360155,-0.79"
         style="fill:none;stroke:#0000ff;stroke-width:0.28299999;stroke-opacity:1" />
      <path
         inkscape:connector-curvature="0"
         id="path54"
         d="M 9.151112,2.5114918 8.347402,2.2914913"
         style="fill:none;stroke:#0000ff;stroke-width:0.212;stroke-opacity:1" />
      <path
         inkscape:connector-curvature="0"
         id="path56"
         d="M 10.195511,0.07148931 H 8.640094"
         style="fill:none;stroke:#0000ff;stroke-width:0.28299999;stroke-opacity:1" />
      <path
         inkscape:connector-curvature="0"
         id="path58"
         d="M 9.148809,-2.3785126 8.344698,-2.1585121"
         style="fill:none;stroke:#0000ff;stroke-width:0.212;stroke-opacity:1" />
      <path
         inkscape:connector-curvature="0"
         id="path60"
         d="M 8.836691,-5.0185155 7.482544,-4.2385142"
         style="fill:none;stroke:#0000ff;stroke-width:0.28299999;stroke-opacity:1" />
      <path
         inkscape:connector-curvature="0"
         id="path62"
         d="m 6.699128,-6.6085155 -0.588421,0.59"
         style="fill:none;stroke:#0000ff;stroke-width:0.212;stroke-opacity:1" />
      <path
         inkscape:connector-curvature="0"
         id="path64"
         d="m 5.131729,-8.7785155 -0.80875,1.39"
         style="fill:none;stroke:#0000ff;stroke-width:0.28299999;stroke-opacity:1" />
      <path
         inkscape:connector-curvature="0"
         id="path66"
         d="m 2.456813,-9.0485165 -0.215288,0.800001"
         style="fill:none;stroke:#0000ff;stroke-width:0.212;stroke-opacity:1" />
      <path
         inkscape:connector-curvature="0"
         id="path68"
         d="m 0.007833,-10.128517 v 1.5900015"
         style="fill:none;stroke:#0000ff;stroke-width:0.28299999;stroke-opacity:1" />
    </g>
  </g>
  <path
     id="path70"
     style="fill:none;stroke:#ff0000;stroke-width:0.05"
     d="m 38.479167,19.579166 c -2.612901,0 -4.737597,2.115556 -4.737597,4.727735 0,2.135913 1.421033,3.945767 3.365068,4.5331 v 2.107204 l 2.632936,1.41e-4 v -2.079677 c 1.996054,-0.554631 3.466996,-2.388302 3.466996,-4.561134 3.38e-4,-2.612179 -2.115205,-4.727369 -4.727403,-4.727369 z"
     inkscape:connector-curvature="0" />
  <g
     style="fill:none;stroke:#0000ff;stroke-width:0.05;stroke-opacity:1"
     id="g72"
     transform="translate(38.479167,24.329166)">
    <g
       id="g74"
       style="stroke:#0000ff;stroke-opacity:1">
      <path
         inkscape:connector-curvature="0"
         id="path76"
         d="M -4.2037748,7.5814929 C -6.8346316,6.1114925 -8.6120123,3.3014922 -8.6120123,0.07148931 c 0,-4.75000381 3.8628404,-8.61000481 8.6282233,-8.61000481 4.764047,0 8.627555,3.8600011 8.627555,8.61000481 0,3.23000299 -1.780051,6.04000329 -4.414579,7.52000359"
         style="fill:none;stroke:#0000ff;stroke-width:0.212;stroke-opacity:1" />
      <path
         inkscape:connector-curvature="0"
         id="path78"
         d="m -2.440413,-9.0485165 0.216323,0.810001"
         style="fill:none;stroke:#0000ff;stroke-width:0.212;stroke-opacity:1" />
      <path
         inkscape:connector-curvature="0"
         id="path80"
         d="m -5.1129926,-8.7785155 0.8080822,1.4000001"
         style="fill:none;stroke:#0000ff;stroke-width:0.28299999;stroke-opacity:1" />
      <path
         inkscape:connector-curvature="0"
         id="path82"
         d="m -6.6800914,-6.5985155 0.5891225,0.59"
         style="fill:none;stroke:#0000ff;stroke-width:0.212;stroke-opacity:1" />
      <path
         inkscape:connector-curvature="0"
         id="path84"
         d="m -8.8466601,-5.0285155 1.3848552,0.8000013"
         style="fill:none;stroke:#0000ff;stroke-width:0.28299999;stroke-opacity:1" />
      <path
         inkscape:connector-curvature="0"
         id="path86"
         d="m -9.1267017,-2.3685125 0.8044106,0.2200004"
         style="fill:none;stroke:#0000ff;stroke-width:0.212;stroke-opacity:1" />
      <path
         inkscape:connector-curvature="0"
         id="path88"
         d="m -10.221501,0.08148931 h 1.6061507"
         style="fill:none;stroke:#0000ff;stroke-width:0.28299999;stroke-opacity:1" />
      <path
         inkscape:connector-curvature="0"
         id="path90"
         d="M -9.1243652,2.5214918 -8.3199546,2.3014913"
         style="fill:none;stroke:#0000ff;stroke-width:0.212;stroke-opacity:1" />
      <path
         inkscape:connector-curvature="0"
         id="path92"
         d="M -8.8489964,5.181492 -7.4574658,4.3814921"
         style="fill:none;stroke:#0000ff;stroke-width:0.28299999;stroke-opacity:1" />
      <path
         inkscape:connector-curvature="0"
         id="path94"
         d="m -6.6737496,6.7514925 0.5877873,-0.59"
         style="fill:none;stroke:#0000ff;stroke-width:0.212;stroke-opacity:1" />
      <path
         inkscape:connector-curvature="0"
         id="path96"
         d="m -5.0742739,8.871494 0.776373,-1.3400011"
         style="fill:none;stroke:#0000ff;stroke-width:0.28299999;stroke-opacity:1" />
      <path
         inkscape:connector-curvature="0"
         id="path98"
         d="M 5.113671,8.8814939 4.329988,7.5214929"
         style="fill:none;stroke:#0000ff;stroke-width:0.28299999;stroke-opacity:1" />
      <path
         inkscape:connector-curvature="0"
         id="path100"
         d="m 6.704836,6.7414925 -0.588789,-0.58"
         style="fill:none;stroke:#0000ff;stroke-width:0.212;stroke-opacity:1" />
      <path
         inkscape:connector-curvature="0"
         id="path102"
         d="m 8.846371,5.1614921 -1.360155,-0.79"
         style="fill:none;stroke:#0000ff;stroke-width:0.28299999;stroke-opacity:1" />
      <path
         inkscape:connector-curvature="0"
         id="path104"
         d="M 9.151112,2.5114918 8.347402,2.2914913"
         style="fill:none;stroke:#0000ff;stroke-width:0.212;stroke-opacity:1" />
      <path
         inkscape:connector-curvature="0"
         id="path106"
         d="M 10.195511,0.07148931 H 8.640094"
         style="fill:none;stroke:#0000ff;stroke-width:0.28299999;stroke-opacity:1" />
      <path
         inkscape:connector-curvature="0"
         id="path108"
         d="M 9.148809,-2.3785126 8.344698,-2.1585121"
         style="fill:none;stroke:#0000ff;stroke-width:0.212;stroke-opacity:1" />
      <path
         inkscape:connector-curvature="0"
         id="path110"
         d="M 8.836691,-5.0185155 7.482544,-4.2385142"
         style="fill:none;stroke:#0000ff;stroke-width:0.28299999;stroke-opacity:1" />
      <path
         inkscape:connector-curvature="0"
         id="path112"
         d="m 6.699128,-6.6085155 -0.588421,0.59"
         style="fill:none;stroke:#0000ff;stroke-width:0.212;stroke-opacity:1" />
      <path
         inkscape:connector-curvature="0"
         id="path114"
         d="m 5.131729,-8.7785155 -0.80875,1.39"
         style="fill:none;stroke:#0000ff;stroke-width:0.28299999;stroke-opacity:1" />
      <path
         inkscape:connector-curvature="0"
         id="path116"
         d="m 2.456813,-9.0485165 -0.215288,0.800001"
         style="fill:none;stroke:#0000ff;stroke-width:0.212;stroke-opacity:1" />
      <path
         inkscape:connector-curvature="0"
         id="path118"
         d="m 0.007833,-10.128517 v 1.5900015"
         style="fill:none;stroke:#0000ff;stroke-width:0.28299999;stroke-opacity:1" />
    </g>
  </g>
  <path
     id="path120"
     style="fill:none;stroke:#ff0000;stroke-width:0.05"
     d="m 13.079167,44.979166 c -2.612902,0 -4.737597,2.115556 -4.737597,4.727735 0,2.135913 1.421033,3.945767 3.365068,4.5331 v 2.107204 l 2.632936,1.41e-4 v -2.079677 c 1.996054,-0.554631 3.466996,-2.388302 3.466996,-4.561134 3.38e-4,-2.612179 -2.115205,-4.727369 -4.727403,-4.727369 z"
     inkscape:connector-curvature="0" />
  <g
     style="fill:none;stroke:#0000ff;stroke-width:0.05;stroke-opacity:1"
     id="g122"
     transform="translate(13.079167,49.729166)">
    <g
       id="g124"
       style="stroke:#0000ff;stroke-opacity:1">
      <path
         inkscape:connector-curvature="0"
         id="path126"
         d="M -4.2037748,7.5814929 C -6.8346316,6.1114925 -8.6120123,3.3014922 -8.6120123,0.07148931 c 0,-4.75000381 3.8628404,-8.61000481 8.6282233,-8.61000481 4.764047,0 8.627555,3.8600011 8.627555,8.61000481 0,3.23000299 -1.780051,6.04000329 -4.414579,7.52000359"
         style="fill:none;stroke:#0000ff;stroke-width:0.212;stroke-opacity:1" />
      <path
         inkscape:connector-curvature="0"
         id="path128"
         d="m -2.440413,-9.0485165 0.216323,0.810001"
         style="fill:none;stroke:#0000ff;stroke-width:0.212;stroke-opacity:1" />
      <path
         inkscape:connector-curvature="0"
         id="path130"
         d="m -5.1129926,-8.7785155 0.8080822,1.4000001"
         style="fill:none;stroke:#0000ff;stroke-width:0.28299999;stroke-opacity:1" />
      <path
         inkscape:connector-curvature="0"
         id="path132"
         d="m -6.6800914,-6.5985155 0.5891225,0.59"
         style="fill:none;stroke:#0000ff;stroke-width:0.212;stroke-opacity:1" />
      <path
         inkscape:connector-curvature="0"
         id="path134"
         d="m -8.8466601,-5.0285155 1.3848552,0.8000013"
         style="fill:none;stroke:#0000ff;stroke-width:0.28299999;stroke-opacity:1" />
      <path
         inkscape:connector-curvature="0"
         id="path136"
         d="m -9.1267017,-2.3685125 0.8044106,0.2200004"
         style="fill:none;stroke:#0000ff;stroke-width:0.212;stroke-opacity:1" />
      <path
         inkscape:connector-curvature="0"
         id="path138"
         d="m -10.221501,0.08148931 h 1.6061507"
         style="fill:none;stroke:#0000ff;stroke-width:0.28299999;stroke-opacity:1" />
      <path
         inkscape:connector-curvature="0"
         id="path140"
         d="M -9.1243652,2.5214918 -8.3199546,2.3014913"
         style="fill:none;stroke:#0000ff;stroke-width:0.212;stroke-opacity:1" />
      <path
         inkscape:connector-curvature="0"
         id="path142"
         d="M -8.8489964,5.181492 -7.4574658,4.3814921"
         style="fill:none;stroke:#0000ff;stroke-width:0.28299999;stroke-opacity:1" />
      <path
         inkscape:connector-curvature="0"
         id="path144"
         d="m -6.6737496,6.7514925 0.5877873,-0.59"
         style="fill:none;stroke:#0000ff;stroke-width:0.212;stroke-opacity:1" />
      <path
         inkscape:connector-curvature="0"
         id="path146"
         d="m -5.0742739,8.871494 0.776373,-1.3400011"
         style="fill:none;stroke:#0000ff;stroke-width:0.28299999;stroke-opacity:1" />
      <path
         inkscape:connector-curvature="0"
         id="path148"
         d="M 5.113671,8.8814939 4.329988,7.5214929"
         style="fill:none;stroke:#0000ff;stroke-width:0.28299999;stroke-opacity:1" />
      <path
         inkscape:connector-curvature="0"
         id="path150"
         d="m 6.704836,6.7414925 -0.588789,-0.58"
         style="fill:none;stroke:#0000ff;stroke-width:0.212;stroke-opacity:1" />
      <path
         inkscape:connector-curvature="0"
         id="path152"
         d="m 8.846371,5.1614921 -1.360155,-0.79"
         style="fill:none;stroke:#0000ff;stroke-width:0.28299999;stroke-opacity:1" />
      <path
         inkscape:connector-curvature="0"
         id="path154"
         d="M 9.151112,2.5114918 8.347402,2.2914913"
         style="fill:none;stroke:#0000ff;stroke-width:0.212;stroke-opacity:1" />
      <path
         inkscape:connector-curvature="0"
         id="path156"
         d="M 10.195511,0.07148931 H 8.640094"
         style="fill:none;stroke:#0000ff;stroke-width:0.28299999;stroke-opacity:1" />
      <path
         inkscape:connector-curvature="0"
         id="path158"
         d="M 9.148809,-2.3785126 8.344698,-2.1585121"
         style="fill:none;stroke:#0000ff;stroke-width:0.212;stroke-opacity:1" />
      <path
         inkscape:connector-curvature="0"
         id="path160"
         d="M 8.836691,-5.0185155 7.482544,-4.2385142"
         style="fill:none;stroke:#0000ff;stroke-width:0.28299999;stroke-opacity:1" />
      <path
         inkscape:connector-curvature="0"
         id="path162"
         d="m 6.699128,-6.6085155 -0.588421,0.59"
         style="fill:none;stroke:#0000ff;stroke-width:0.212;stroke-opacity:1" />
      <path
         inkscape:connector-curvature="0"
         id="path164"
         d="m 5.131729,-8.7785155 -0.80875,1.39"
         style="fill:none;stroke:#0000ff;stroke-width:0.28299999;stroke-opacity:1" />
      <path
         inkscape:connector-curvature="0"
         id="path166"
         d="m 2.456813,-9.0485165 -0.215288,0.800001"
         style="fill:none;stroke:#0000ff;stroke-width:0.212;stroke-opacity:1" />
      <path
         inkscape:connector-curvature="0"
         id="path168"
         d="m 0.007833,-10.128517 v 1.5900015"
         style="fill:none;stroke:#0000ff;stroke-width:0.28299999;stroke-opacity:1" />
    </g>
  </g>
  <path
     id="path170"
     style="fill:none;stroke:#ff0000;stroke-width:0.05;stroke-miterlimit:4;stroke-dasharray:none"
     d="m 38.479167,44.979166 c -2.612901,0 -4.737597,2.115556 -4.737597,4.727735 0,2.135913 1.421033,3.945767 3.365068,4.5331 v 2.107204 l 2.632936,1.41e-4 v -2.079677 c 1.996054,-0.554631 3.466996,-2.388302 3.466996,-4.561134 3.38e-4,-2.612179 -2.115205,-4.727369 -4.727403,-4.727369 z"
     inkscape:connector-curvature="0" />
  <g
     style="fill:none;stroke:#0000ff;stroke-width:0.05;stroke-opacity:1"
     id="g172"
     transform="translate(38.479167,49.729166)">
    <g
       id="g174"
       style="stroke:#0000ff;stroke-opacity:1">
      <path
         inkscape:connector-curvature="0"
         id="path176"
         d="M -4.2037748,7.5814929 C -6.8346316,6.1114925 -8.6120123,3.3014922 -8.6120123,0.07148931 c 0,-4.75000381 3.8628404,-8.61000481 8.6282233,-8.61000481 4.764047,0 8.627555,3.8600011 8.627555,8.61000481 0,3.23000299 -1.780051,6.04000329 -4.414579,7.52000359"
         style="fill:none;stroke:#0000ff;stroke-width:0.212;stroke-opacity:1" />
      <path
         inkscape:connector-curvature="0"
         id="path178"
         d="m -2.440413,-9.0485165 0.216323,0.810001"
         style="fill:none;stroke:#0000ff;stroke-width:0.212;stroke-opacity:1" />
      <path
         inkscape:connector-curvature="0"
         id="path180"
         d="m -5.1129926,-8.7785155 0.8080822,1.4000001"
         style="fill:none;stroke:#0000ff;stroke-width:0.28299999;stroke-opacity:1" />
      <path
         inkscape:connector-curvature="0"
         id="path182"
         d="m -6.6800914,-6.5985155 0.5891225,0.59"
         style="fill:none;stroke:#0000ff;stroke-width:0.212;stroke-opacity:1" />
      <path
         inkscape:connector-curvature="0"
         id="path184"
         d="m -8.8466601,-5.0285155 1.3848552,0.8000013"
         style="fill:none;stroke:#0000ff;stroke-width:0.28299999;stroke-opacity:1" />
      <path
         inkscape:connector-curvature="0"
         id="path186"
         d="m -9.1267017,-2.3685125 0.8044106,0.2200004"
         style="fill:none;stroke:#0000ff;stroke-width:0.212;stroke-opacity:1" />
      <path
         inkscape:connector-curvature="0"
         id="path188"
         d="m -10.221501,0.08148931 h 1.6061507"
         style="fill:none;stroke:#0000ff;stroke-width:0.28299999;stroke-opacity:1" />
      <path
         inkscape:connector-curvature="0"
         id="path190"
         d="M -9.1243652,2.5214918 -8.3199546,2.3014913"
         style="fill:none;stroke:#0000ff;stroke-width:0.212;stroke-opacity:1" />
      <path
         inkscape:connector-curvature="0"
         id="path192"
         d="M -8.8489964,5.181492 -7.4574658,4.3814921"
         style="fill:none;stroke:#0000ff;stroke-width:0.28299999;stroke-opacity:1" />
      <path
         inkscape:connector-curvature="0"
         id="path194"
         d="m -6.6737496,6.7514925 0.5877873,-0.59"
         style="fill:none;stroke:#0000ff;stroke-width:0.212;stroke-opacity:1" />
      <path
         inkscape:connector-curvature="0"
         id="path196"
         d="m -5.0742739,8.871494 0.776373,-1.3400011"
         style="fill:none;stroke:#0000ff;stroke-width:0.28299999;stroke-opacity:1" />
      <path
         inkscape:connector-curvature="0"
         id="path198"
         d="M 5.113671,8.8814939 4.329988,7.5214929"
         style="fill:none;stroke:#0000ff;stroke-width:0.28299999;stroke-opacity:1" />
      <path
         inkscape:connector-curvature="0"
         id="path200"
         d="m 6.704836,6.7414925 -0.588789,-0.58"
         style="fill:none;stroke:#0000ff;stroke-width:0.212;stroke-opacity:1" />
      <path
         inkscape:connector-curvature="0"
         id="path202"
         d="m 8.846371,5.1614921 -1.360155,-0.79"
         style="fill:none;stroke:#0000ff;stroke-width:0.28299999;stroke-opacity:1" />
      <path
         inkscape:connector-curvature="0"
         id="path204"
         d="M 9.151112,2.5114918 8.347402,2.2914913"
         style="fill:none;stroke:#0000ff;stroke-width:0.212;stroke-opacity:1" />
      <path
         inkscape:connector-curvature="0"
         id="path206"
         d="M 10.195511,0.07148931 H 8.640094"
         style="fill:none;stroke:#0000ff;stroke-width:0.28299999;stroke-opacity:1" />
      <path
         inkscape:connector-curvature="0"
         id="path208"
         d="M 9.148809,-2.3785126 8.344698,-2.1585121"
         style="fill:none;stroke:#0000ff;stroke-width:0.212;stroke-opacity:1" />
      <path
         inkscape:connector-curvature="0"
         id="path210"
         d="M 8.836691,-5.0185155 7.482544,-4.2385142"
         style="fill:none;stroke:#0000ff;stroke-width:0.28299999;stroke-opacity:1" />
      <path
         inkscape:connector-curvature="0"
         id="path212"
         d="m 6.699128,-6.6085155 -0.588421,0.59"
         style="fill:none;stroke:#0000ff;stroke-width:0.212;stroke-opacity:1" />
      <path
         inkscape:connector-curvature="0"
         id="path214"
         d="m 5.131729,-8.7785155 -0.80875,1.39"
         style="fill:none;stroke:#0000ff;stroke-width:0.28299999;stroke-opacity:1" />
      <path
         inkscape:connector-curvature="0"
         id="path216"
         d="m 2.456813,-9.0485165 -0.215288,0.800001"
         style="fill:none;stroke:#0000ff;stroke-width:0.212;stroke-opacity:1" />
      <path
         inkscape:connector-curvature="0"
         id="path218"
         d="m 0.007833,-10.128517 v 1.5900015"
         style="fill:none;stroke:#0000ff;stroke-width:0.28299999;stroke-opacity:1" />
    </g>
  </g>
  <rect
     id="rect224"
     style="fill:none;stroke:#ff0000;stroke-width:0.05"
     height="7"
     width="14.75"
     y="101.77916"
     x="31.10417" />
  <circle
     id="circle226"
     style="fill:none;stroke:#ff0000;stroke-width:0.05"
     r="3.25"
     cy="75.129166"
     cx="44.829166" />
  <circle
     id="circle228"
     style="fill:none;stroke:#ff0000;stroke-width:0.05"
     r="3.25"
     cy="75.129166"
     cx="32.129166" />
  <circle
     id="circle230"
     style="fill:none;stroke:#ff0000;stroke-width:0.05"
     r="3.25"
     cy="75.129166"
     cx="19.429167" />
  <circle
     id="circle232"
     style="fill:none;stroke:#ff0000;stroke-width:0.05"
     r="3.25"
     cy="75.129166"
     cx="6.729167" />
  <circle
     id="circle234"
     style="fill:none;stroke:#ff0000;stroke-width:0.05"
     r="3.25"
     cy="87.82917"
     cx="44.829166" />
  <circle
     id="circle236"
     style="fill:none;stroke:#ff0000;stroke-width:0.05"
     r="3.25"
     cy="87.82917"
     cx="32.129166" />
  <circle
     id="circle238"
     style="fill:none;stroke:#ff0000;stroke-width:0.05"
     r="3.25"
     cy="87.82917"
     cx="19.429167" />
  <circle
     id="circle240"
     style="fill:none;stroke:#ff0000;stroke-width:0.05"
     r="3.25"
     cy="87.82917"
     cx="6.729167" />
  <circle
     id="circle242"
     style="fill:none;stroke:#ff0000;stroke-width:0.05"
     r="3.25"
     cy="100.52916"
     cx="19.429167" />
  <circle
     id="circle244"
     style="fill:none;stroke:#ff0000;stroke-width:0.05"
     r="3.25"
     cy="100.52916"
     cx="6.729167" />
  <circle
     id="circle246"
     style="fill:none;stroke:#ff0000;stroke-width:0.05"
     r="3.25"
     cy="113.22916"
     cx="19.429167" />
  <circle
     id="circle248"
     style="fill:none;stroke:#ff0000;stroke-width:0.05"
     r="3.25"
     cy="113.22916"
     cx="6.729167" />
  <path
     style="fill:none;stroke:#ff0000;stroke-width:0.05;stroke-linecap:round;stroke-linejoin:round;stroke-miterlimit:10;stroke-dasharray:none;stroke-opacity:1"
     d="m 13.058179,60.565962 c -2.126761,0 -3.850239,1.724737 -3.850239,3.85134 0,2.126604 1.723478,3.850239 3.850239,3.850239 2.126756,0 3.85079,-1.723635 3.85079,-3.850239 0,-2.126603 -1.724034,-3.85134 -3.85079,-3.85134 z m 25.33606,0 c -2.126768,0 -3.85079,1.724737 -3.85079,3.85134 0,2.126604 1.724022,3.850239 3.85079,3.850239 2.126753,0 3.850789,-1.723635 3.850789,-3.850239 0,-2.126603 -1.724036,-3.85134 -3.850789,-3.85134 z"
     id="path6118-0"
     inkscape:connector-curvature="0" />
</svg>
