<?xml version="1.0"?>
<svg xmlns="http://www.w3.org/2000/svg" xmlns:dc="http://purl.org/dc/elements/1.1/" xmlns:cc="http://creativecommons.org/ns#" xmlns:rdf="http://www.w3.org/1999/02/22-rdf-syntax-ns#" xmlns:xlink="http://www.w3.org/1999/xlink" xmlns:svg="http://www.w3.org/2000/svg" xmlns:sodipodi="http://sodipodi.sourceforge.net/DTD/sodipodi-0.dtd" xmlns:inkscape="http://www.inkscape.org/namespaces/inkscape" xmlns:exslt="http://exslt.org/common" version="1.1" width="210mm" height="297mm" viewBox="0 0 210 297">
  <sodipodi:namedview id="base" inkscape:document-units="mm" units="mm"/>
  <defs>
    <g id="potgrading"/>
  </defs>
  <g style="fill:none;stroke-width:0.05;stroke:#ff0000"><rect x="0.0" y="0.0" width="60.60" height="128.50"/><svg:circle cx="7.5" cy="3" r="1.6"/><svg:circle cx="7.5" cy="125.5" r="1.6"/><svg:circle cx="53.22" cy="3" r="1.6"/><svg:circle cx="53.22" cy="125.5" r="1.6"/>

  
  <path inkscape:connector-curvature="0" d="m 17.6,15.05 c -2.6129013,0 -4.7375971,2.115556 -4.7375971,4.727735 0,2.135913 1.421033,3.945767 3.3650681,4.5331 l 0,2.107204 2.632936,1.41e-4 0,-2.079677 c 1.996054,-0.554631 3.466996,-2.388302 3.466996,-4.561134 3.38e-4,-2.612179 -2.115205,-4.727369 -4.727403,-4.727369 z" style="fill:none;stroke:#ff0000"/><g transform="translate(17.6,19.8)"><g transform="scale(1.0)"><path style="fill:none;stroke:#030303;stroke-width:0.212" d="M -4.2037748,7.5814929 C -6.8346316,6.1114925 -8.6120123,3.3014922 -8.6120123,0.07148931 c 0,-4.75000381 3.8628404,-8.61000481 8.6282233,-8.61000481 4.764047,0 8.627555,3.8600011 8.627555,8.61000481 0,3.23000299 -1.780051,6.04000329 -4.414579,7.52000359"/><path style="fill:none;stroke:#030303;stroke-width:0.212" d="m -2.440413,-9.0485165 0.216323,0.810001"/><path style="fill:none;stroke:#030303;stroke-width:0.283" d="m -5.1129926,-8.7785155 0.8080822,1.4000001"/><path style="fill:none;stroke:#030303;stroke-width:0.212" d="m -6.6800914,-6.5985155 0.5891225,0.59"/><path style="fill:none;stroke:#030303;stroke-width:0.283" d="m -8.8466601,-5.0285155 1.3848552,0.8000013"/><path style="fill:none;stroke:#030303;stroke-width:0.212" d="m -9.1267017,-2.3685125 0.8044106,0.2200004"/><path style="fill:none;stroke:#030303;stroke-width:0.283" d="m -10.221501,0.08148931 1.6061507,0"/><path style="fill:none;stroke:#030303;stroke-width:0.212" d="M -9.1243652,2.5214918 -8.3199546,2.3014913"/><path style="fill:none;stroke:#030303;stroke-width:0.283" d="M -8.8489964,5.181492 -7.4574658,4.3814921"/><path style="fill:none;stroke:#030303;stroke-width:0.212" d="m -6.6737496,6.7514925 0.5877873,-0.59"/><path style="fill:none;stroke:#030303;stroke-width:0.283" d="m -5.0742739,8.871494 0.776373,-1.3400011"/><path style="fill:none;stroke:#030303;stroke-width:0.283" d="M 5.113671,8.8814939 4.329988,7.5214929"/><path style="fill:none;stroke:#030303;stroke-width:0.212" d="m 6.704836,6.7414925 -0.588789,-0.58"/><path style="fill:none;stroke:#030303;stroke-width:0.283" d="m 8.846371,5.1614921 -1.360155,-0.79"/><path style="fill:none;stroke:#030303;stroke-width:0.212" d="M 9.151112,2.5114918 8.347402,2.2914913"/><path style="fill:none;stroke:#030303;stroke-width:0.283" d="m 10.195511,0.07148931 -1.555417,0"/><path style="fill:none;stroke:#030303;stroke-width:0.212" d="M 9.148809,-2.3785126 8.344698,-2.1585121"/><path style="fill:none;stroke:#030303;stroke-width:0.283" d="M 8.836691,-5.0185155 7.482544,-4.2385142"/><path style="fill:none;stroke:#030303;stroke-width:0.212" d="m 6.699128,-6.6085155 -0.588421,0.59"/><path style="fill:none;stroke:#030303;stroke-width:0.283" d="m 5.131729,-8.7785155 -0.80875,1.39"/><path style="fill:none;stroke:#030303;stroke-width:0.212" d="m 2.456813,-9.0485165 -0.215288,0.800001"/><path style="fill:none;stroke:#030303;stroke-width:0.283" d="m 0.007833,-10.128517 0,1.5900015"/></g></g>
  <path inkscape:connector-curvature="0" d="m 43,15.05 c -2.6129013,0 -4.7375971,2.115556 -4.7375971,4.727735 0,2.135913 1.421033,3.945767 3.3650681,4.5331 l 0,2.107204 2.632936,1.41e-4 0,-2.079677 c 1.996054,-0.554631 3.466996,-2.388302 3.466996,-4.561134 3.38e-4,-2.612179 -2.115205,-4.727369 -4.727403,-4.727369 z" style="fill:none;stroke:#ff0000"/><g transform="translate(43,19.8)"><g transform="scale(1.0)"><path style="fill:none;stroke:#030303;stroke-width:0.212" d="M -4.2037748,7.5814929 C -6.8346316,6.1114925 -8.6120123,3.3014922 -8.6120123,0.07148931 c 0,-4.75000381 3.8628404,-8.61000481 8.6282233,-8.61000481 4.764047,0 8.627555,3.8600011 8.627555,8.61000481 0,3.23000299 -1.780051,6.04000329 -4.414579,7.52000359"/><path style="fill:none;stroke:#030303;stroke-width:0.212" d="m -2.440413,-9.0485165 0.216323,0.810001"/><path style="fill:none;stroke:#030303;stroke-width:0.283" d="m -5.1129926,-8.7785155 0.8080822,1.4000001"/><path style="fill:none;stroke:#030303;stroke-width:0.212" d="m -6.6800914,-6.5985155 0.5891225,0.59"/><path style="fill:none;stroke:#030303;stroke-width:0.283" d="m -8.8466601,-5.0285155 1.3848552,0.8000013"/><path style="fill:none;stroke:#030303;stroke-width:0.212" d="m -9.1267017,-2.3685125 0.8044106,0.2200004"/><path style="fill:none;stroke:#030303;stroke-width:0.283" d="m -10.221501,0.08148931 1.6061507,0"/><path style="fill:none;stroke:#030303;stroke-width:0.212" d="M -9.1243652,2.5214918 -8.3199546,2.3014913"/><path style="fill:none;stroke:#030303;stroke-width:0.283" d="M -8.8489964,5.181492 -7.4574658,4.3814921"/><path style="fill:none;stroke:#030303;stroke-width:0.212" d="m -6.6737496,6.7514925 0.5877873,-0.59"/><path style="fill:none;stroke:#030303;stroke-width:0.283" d="m -5.0742739,8.871494 0.776373,-1.3400011"/><path style="fill:none;stroke:#030303;stroke-width:0.283" d="M 5.113671,8.8814939 4.329988,7.5214929"/><path style="fill:none;stroke:#030303;stroke-width:0.212" d="m 6.704836,6.7414925 -0.588789,-0.58"/><path style="fill:none;stroke:#030303;stroke-width:0.283" d="m 8.846371,5.1614921 -1.360155,-0.79"/><path style="fill:none;stroke:#030303;stroke-width:0.212" d="M 9.151112,2.5114918 8.347402,2.2914913"/><path style="fill:none;stroke:#030303;stroke-width:0.283" d="m 10.195511,0.07148931 -1.555417,0"/><path style="fill:none;stroke:#030303;stroke-width:0.212" d="M 9.148809,-2.3785126 8.344698,-2.1585121"/><path style="fill:none;stroke:#030303;stroke-width:0.283" d="M 8.836691,-5.0185155 7.482544,-4.2385142"/><path style="fill:none;stroke:#030303;stroke-width:0.212" d="m 6.699128,-6.6085155 -0.588421,0.59"/><path style="fill:none;stroke:#030303;stroke-width:0.283" d="m 5.131729,-8.7785155 -0.80875,1.39"/><path style="fill:none;stroke:#030303;stroke-width:0.212" d="m 2.456813,-9.0485165 -0.215288,0.800001"/><path style="fill:none;stroke:#030303;stroke-width:0.283" d="m 0.007833,-10.128517 0,1.5900015"/></g></g>
  <path inkscape:connector-curvature="0" d="m 17.6,40.45 c -2.6129013,0 -4.7375971,2.115556 -4.7375971,4.727735 0,2.135913 1.421033,3.945767 3.3650681,4.5331 l 0,2.107204 2.632936,1.41e-4 0,-2.079677 c 1.996054,-0.554631 3.466996,-2.388302 3.466996,-4.561134 3.38e-4,-2.612179 -2.115205,-4.727369 -4.727403,-4.727369 z" style="fill:none;stroke:#ff0000"/><g transform="translate(17.6,45.2)"><g transform="scale(1.0)"><path style="fill:none;stroke:#030303;stroke-width:0.212" d="M -4.2037748,7.5814929 C -6.8346316,6.1114925 -8.6120123,3.3014922 -8.6120123,0.07148931 c 0,-4.75000381 3.8628404,-8.61000481 8.6282233,-8.61000481 4.764047,0 8.627555,3.8600011 8.627555,8.61000481 0,3.23000299 -1.780051,6.04000329 -4.414579,7.52000359"/><path style="fill:none;stroke:#030303;stroke-width:0.212" d="m -2.440413,-9.0485165 0.216323,0.810001"/><path style="fill:none;stroke:#030303;stroke-width:0.283" d="m -5.1129926,-8.7785155 0.8080822,1.4000001"/><path style="fill:none;stroke:#030303;stroke-width:0.212" d="m -6.6800914,-6.5985155 0.5891225,0.59"/><path style="fill:none;stroke:#030303;stroke-width:0.283" d="m -8.8466601,-5.0285155 1.3848552,0.8000013"/><path style="fill:none;stroke:#030303;stroke-width:0.212" d="m -9.1267017,-2.3685125 0.8044106,0.2200004"/><path style="fill:none;stroke:#030303;stroke-width:0.283" d="m -10.221501,0.08148931 1.6061507,0"/><path style="fill:none;stroke:#030303;stroke-width:0.212" d="M -9.1243652,2.5214918 -8.3199546,2.3014913"/><path style="fill:none;stroke:#030303;stroke-width:0.283" d="M -8.8489964,5.181492 -7.4574658,4.3814921"/><path style="fill:none;stroke:#030303;stroke-width:0.212" d="m -6.6737496,6.7514925 0.5877873,-0.59"/><path style="fill:none;stroke:#030303;stroke-width:0.283" d="m -5.0742739,8.871494 0.776373,-1.3400011"/><path style="fill:none;stroke:#030303;stroke-width:0.283" d="M 5.113671,8.8814939 4.329988,7.5214929"/><path style="fill:none;stroke:#030303;stroke-width:0.212" d="m 6.704836,6.7414925 -0.588789,-0.58"/><path style="fill:none;stroke:#030303;stroke-width:0.283" d="m 8.846371,5.1614921 -1.360155,-0.79"/><path style="fill:none;stroke:#030303;stroke-width:0.212" d="M 9.151112,2.5114918 8.347402,2.2914913"/><path style="fill:none;stroke:#030303;stroke-width:0.283" d="m 10.195511,0.07148931 -1.555417,0"/><path style="fill:none;stroke:#030303;stroke-width:0.212" d="M 9.148809,-2.3785126 8.344698,-2.1585121"/><path style="fill:none;stroke:#030303;stroke-width:0.283" d="M 8.836691,-5.0185155 7.482544,-4.2385142"/><path style="fill:none;stroke:#030303;stroke-width:0.212" d="m 6.699128,-6.6085155 -0.588421,0.59"/><path style="fill:none;stroke:#030303;stroke-width:0.283" d="m 5.131729,-8.7785155 -0.80875,1.39"/><path style="fill:none;stroke:#030303;stroke-width:0.212" d="m 2.456813,-9.0485165 -0.215288,0.800001"/><path style="fill:none;stroke:#030303;stroke-width:0.283" d="m 0.007833,-10.128517 0,1.5900015"/></g></g>
  <path inkscape:connector-curvature="0" d="m 43,40.45 c -2.6129013,0 -4.7375971,2.115556 -4.7375971,4.727735 0,2.135913 1.421033,3.945767 3.3650681,4.5331 l 0,2.107204 2.632936,1.41e-4 0,-2.079677 c 1.996054,-0.554631 3.466996,-2.388302 3.466996,-4.561134 3.38e-4,-2.612179 -2.115205,-4.727369 -4.727403,-4.727369 z" style="fill:none;stroke:#ff0000"/><g transform="translate(43,45.2)"><g transform="scale(1.0)"><path style="fill:none;stroke:#030303;stroke-width:0.212" d="M -4.2037748,7.5814929 C -6.8346316,6.1114925 -8.6120123,3.3014922 -8.6120123,0.07148931 c 0,-4.75000381 3.8628404,-8.61000481 8.6282233,-8.61000481 4.764047,0 8.627555,3.8600011 8.627555,8.61000481 0,3.23000299 -1.780051,6.04000329 -4.414579,7.52000359"/><path style="fill:none;stroke:#030303;stroke-width:0.212" d="m -2.440413,-9.0485165 0.216323,0.810001"/><path style="fill:none;stroke:#030303;stroke-width:0.283" d="m -5.1129926,-8.7785155 0.8080822,1.4000001"/><path style="fill:none;stroke:#030303;stroke-width:0.212" d="m -6.6800914,-6.5985155 0.5891225,0.59"/><path style="fill:none;stroke:#030303;stroke-width:0.283" d="m -8.8466601,-5.0285155 1.3848552,0.8000013"/><path style="fill:none;stroke:#030303;stroke-width:0.212" d="m -9.1267017,-2.3685125 0.8044106,0.2200004"/><path style="fill:none;stroke:#030303;stroke-width:0.283" d="m -10.221501,0.08148931 1.6061507,0"/><path style="fill:none;stroke:#030303;stroke-width:0.212" d="M -9.1243652,2.5214918 -8.3199546,2.3014913"/><path style="fill:none;stroke:#030303;stroke-width:0.283" d="M -8.8489964,5.181492 -7.4574658,4.3814921"/><path style="fill:none;stroke:#030303;stroke-width:0.212" d="m -6.6737496,6.7514925 0.5877873,-0.59"/><path style="fill:none;stroke:#030303;stroke-width:0.283" d="m -5.0742739,8.871494 0.776373,-1.3400011"/><path style="fill:none;stroke:#030303;stroke-width:0.283" d="M 5.113671,8.8814939 4.329988,7.5214929"/><path style="fill:none;stroke:#030303;stroke-width:0.212" d="m 6.704836,6.7414925 -0.588789,-0.58"/><path style="fill:none;stroke:#030303;stroke-width:0.283" d="m 8.846371,5.1614921 -1.360155,-0.79"/><path style="fill:none;stroke:#030303;stroke-width:0.212" d="M 9.151112,2.5114918 8.347402,2.2914913"/><path style="fill:none;stroke:#030303;stroke-width:0.283" d="m 10.195511,0.07148931 -1.555417,0"/><path style="fill:none;stroke:#030303;stroke-width:0.212" d="M 9.148809,-2.3785126 8.344698,-2.1585121"/><path style="fill:none;stroke:#030303;stroke-width:0.283" d="M 8.836691,-5.0185155 7.482544,-4.2385142"/><path style="fill:none;stroke:#030303;stroke-width:0.212" d="m 6.699128,-6.6085155 -0.588421,0.59"/><path style="fill:none;stroke:#030303;stroke-width:0.283" d="m 5.131729,-8.7785155 -0.80875,1.39"/><path style="fill:none;stroke:#030303;stroke-width:0.212" d="m 2.456813,-9.0485165 -0.215288,0.800001"/><path style="fill:none;stroke:#030303;stroke-width:0.283" d="m 0.007833,-10.128517 0,1.5900015"/></g></g>

  
  <circle cx="17.6" cy="61.075" r="1.5" style="fill:none;stroke:#ff0000"/>
  <circle cx="43" cy="61.075" r="1.5" style="fill:none;stroke:#ff0000"/>

  
  <rect x="5.250000000000004" y="96.85" width="12" height="11" style="fill:none;stroke:#ff0000"/>

  
  <circle cx="4.900000000000002" cy="70.6" r="3.25" style="fill:none;stroke:#ff0000"/>
  <circle cx="4.900000000000002" cy="83.3" r="3.25" style="fill:none;stroke:#ff0000"/>

  <circle cx="17.6" cy="70.6" r="3.25" style="fill:none;stroke:#ff0000"/>
  <circle cx="17.6" cy="83.3" r="3.25" style="fill:none;stroke:#ff0000"/>

  <circle cx="30.3" cy="70.6" r="3.25" style="fill:none;stroke:#ff0000"/>
  <circle cx="30.3" cy="83.3" r="3.25" style="fill:none;stroke:#ff0000"/>
  <circle cx="30.3" cy="96" r="3.25" style="fill:none;stroke:#ff0000"/>
  <circle cx="30.3" cy="108.7" r="3.25" style="fill:none;stroke:#ff0000"/>

  <circle cx="43" cy="70.6" r="3.25" style="fill:none;stroke:#ff0000"/>
  <circle cx="43" cy="83.3" r="3.25" style="fill:none;stroke:#ff0000"/>
  <circle cx="43" cy="96" r="3.25" style="fill:none;stroke:#ff0000"/>
  <circle cx="43" cy="108.7" r="3.25" style="fill:none;stroke:#ff0000"/>

  <circle cx="55.7" cy="70.6" r="3.25" style="fill:none;stroke:#ff0000"/>
  <circle cx="55.7" cy="83.3" r="3.25" style="fill:none;stroke:#ff0000"/>
  <circle cx="55.7" cy="96" r="3.25" style="fill:none;stroke:#ff0000"/>
  <circle cx="55.7" cy="108.7" r="3.25" style="fill:none;stroke:#ff0000"/>

  
  
  
  
  
  
  
  

</g>
</svg>
