<?xml version="1.0" encoding="UTF-8" standalone="no"?>
<!-- Created with Inkscape (http://www.inkscape.org/) -->

<svg
   xmlns:dc="http://purl.org/dc/elements/1.1/"
   xmlns:cc="http://creativecommons.org/ns#"
   xmlns:rdf="http://www.w3.org/1999/02/22-rdf-syntax-ns#"
   xmlns:svg="http://www.w3.org/2000/svg"
   xmlns="http://www.w3.org/2000/svg"
   xmlns:sodipodi="http://sodipodi.sourceforge.net/DTD/sodipodi-0.dtd"
   xmlns:inkscape="http://www.inkscape.org/namespaces/inkscape"
   id="svg2"
   version="1.1"
   inkscape:version="0.91 r13725"
   xml:space="preserve"
   width="744.09375"
   height="1052.3625"
   viewBox="0 0 744.09375 1052.3625"
   sodipodi:docname="salt_acrylic_02.svg"><metadata
     id="metadata8"><rdf:RDF><cc:Work
         rdf:about=""><dc:format>image/svg+xml</dc:format><dc:type
           rdf:resource="http://purl.org/dc/dcmitype/StillImage" /><dc:title></dc:title></cc:Work></rdf:RDF></metadata><defs
     id="defs6"><clipPath
       clipPathUnits="userSpaceOnUse"
       id="clipPath18"><path
         d="m 0,841.89 595.275,0 L 595.275,0 0,0 0,841.89 Z"
         id="path20"
         inkscape:connector-curvature="0" /></clipPath></defs><sodipodi:namedview
     pagecolor="#ffffff"
     bordercolor="#666666"
     borderopacity="1"
     objecttolerance="10"
     gridtolerance="10"
     guidetolerance="10"
     inkscape:pageopacity="0"
     inkscape:pageshadow="2"
     inkscape:window-width="1283"
     inkscape:window-height="781"
     id="namedview4"
     showgrid="false"
     inkscape:zoom="0.89702926"
     inkscape:cx="451.41581"
     inkscape:cy="794.81066"
     inkscape:window-x="0"
     inkscape:window-y="0"
     inkscape:window-maximized="0"
     inkscape:current-layer="g10" /><g
     id="g10"
     inkscape:groupmode="layer"
     inkscape:label="salt_acrylic_02"
     transform="matrix(1.25,0,0,-1.25,0,1052.3625)"><path
       d="m 325.761,838.89 -171.779,0 0,-364.252 171.779,0 0,364.252 z"
       style="fill:none;stroke:#ff0000;stroke-width:0.05;stroke-linecap:butt;stroke-linejoin:miter;stroke-miterlimit:4;stroke-dasharray:none;stroke-opacity:1"
       id="path12"
       inkscape:connector-curvature="0" /><g
       id="g22"
       transform="translate(304.501,834.9214)"><path
         d="m 0,0 c -2.505,0 -4.535,-2.031 -4.535,-4.535 0,-2.505 2.03,-4.535 4.535,-4.535 2.504,0 4.534,2.03 4.534,4.535 C 4.534,-2.031 2.504,0 0,0 Z"
         style="fill:none;stroke:#ff0000;stroke-width:0.1;stroke-linecap:butt;stroke-linejoin:miter;stroke-miterlimit:4;stroke-dasharray:none;stroke-opacity:1"
         id="path24"
         inkscape:connector-curvature="0" /></g><g
       id="g26"
       transform="translate(304.501,487.6772)"><path
         d="m 0,0 c -2.505,0 -4.535,-2.03 -4.535,-4.535 0,-2.505 2.03,-4.535 4.535,-4.535 2.504,0 4.534,2.03 4.534,4.535 C 4.534,-2.03 2.504,0 0,0 Z"
         style="fill:none;stroke:#ff0000;stroke-width:0.1;stroke-linecap:butt;stroke-linejoin:miter;stroke-miterlimit:4;stroke-dasharray:none;stroke-opacity:1"
         id="path28"
         inkscape:connector-curvature="0" /></g><g
       id="g30"
       transform="translate(174.9004,834.9214)"><path
         d="m 0,0 c -2.505,0 -4.535,-2.031 -4.535,-4.535 0,-2.505 2.03,-4.535 4.535,-4.535 2.505,0 4.535,2.03 4.535,4.535 C 4.535,-2.031 2.505,0 0,0 Z"
         style="fill:none;stroke:#ff0000;stroke-width:0.1;stroke-linecap:butt;stroke-linejoin:miter;stroke-miterlimit:4;stroke-dasharray:none;stroke-opacity:1"
         id="path32"
         inkscape:connector-curvature="0" /></g><g
       id="g34"
       transform="translate(174.9004,487.6772)"><path
         d="m 0,0 c -2.505,0 -4.535,-2.03 -4.535,-4.535 0,-2.505 2.03,-4.535 4.535,-4.535 2.505,0 4.535,2.03 4.535,4.535 C 4.535,-2.03 2.505,0 0,0 Z"
         style="fill:none;stroke:#ff0000;stroke-width:0.1;stroke-linecap:butt;stroke-linejoin:miter;stroke-miterlimit:4;stroke-dasharray:none;stroke-opacity:1"
         id="path36"
         inkscape:connector-curvature="0" /></g><g
       id="g38"
       transform="translate(275.8701,784.8901)"><path
         d="m 0,0 c 7.407,0 13.431,-5.997 13.431,-13.401 0,-6.055 -4.029,-11.185 -9.539,-12.85 l 0,-5.974 -7.463,0 0,5.895 c -5.658,1.572 -9.828,6.77 -9.828,12.929 C -13.4,-5.996 -7.403,0 0,0 Z"
         style="fill:none;stroke:#ff0000;stroke-width:0.1;stroke-linecap:butt;stroke-linejoin:miter;stroke-miterlimit:4;stroke-dasharray:none;stroke-opacity:1"
         id="path40"
         inkscape:connector-curvature="0" /></g><g
       id="g42"
       transform="translate(203.8701,784.8901)"><path
         d="m 0,0 c 7.407,0 13.431,-5.997 13.431,-13.401 0,-6.055 -4.029,-11.185 -9.539,-12.85 l 0,-5.974 -7.463,0 0,5.895 c -5.658,1.572 -9.828,6.77 -9.828,12.929 C -13.4,-5.996 -7.403,0 0,0 Z"
         style="fill:none;stroke:#ff0000;stroke-width:0.1;stroke-linecap:butt;stroke-linejoin:miter;stroke-miterlimit:4;stroke-dasharray:none;stroke-opacity:1"
         id="path44"
         inkscape:connector-curvature="0" /></g><g
       id="g46"
       transform="translate(275.8701,712.8901)"><path
         d="m 0,0 c 7.407,0 13.431,-5.997 13.431,-13.401 0,-6.055 -4.029,-11.185 -9.539,-12.85 l 0,-5.974 -7.463,0 0,5.895 c -5.658,1.572 -9.828,6.77 -9.828,12.929 C -13.4,-5.996 -7.403,0 0,0 Z"
         style="fill:none;stroke:#ff0000;stroke-width:0.1;stroke-linecap:butt;stroke-linejoin:miter;stroke-miterlimit:4;stroke-dasharray:none;stroke-opacity:1"
         id="path48"
         inkscape:connector-curvature="0" /></g><g
       id="g50"
       transform="translate(203.8701,712.8901)"><path
         d="m 0,0 c 7.407,0 13.431,-5.997 13.431,-13.401 0,-6.055 -4.029,-11.185 -9.539,-12.85 l 0,-5.974 -7.463,0 0,5.895 c -5.658,1.572 -9.828,6.77 -9.828,12.929 C -13.4,-5.996 -7.403,0 0,0 Z"
         style="fill:none;stroke:#ff0000;stroke-width:0.1;stroke-linecap:butt;stroke-linejoin:miter;stroke-miterlimit:4;stroke-dasharray:none;stroke-opacity:1"
         id="path52"
         inkscape:connector-curvature="0" /></g><path
       d="m 312.297,555.85 -36.852,0 0,-31.181 36.852,0 0,31.181 z"
       style="fill:none;stroke:#ff0000;stroke-width:0.1;stroke-linecap:butt;stroke-linejoin:miter;stroke-miterlimit:4;stroke-dasharray:none;stroke-opacity:1"
       id="path54"
       inkscape:connector-curvature="0" /><g
       id="g56"
       transform="translate(311.8701,636.6382)"><path
         d="m 0,0 c -5.088,0 -9.213,-4.125 -9.213,-9.213 0,-5.088 4.125,-9.213 9.213,-9.213 5.089,0 9.214,4.125 9.214,9.213 C 9.214,-4.125 5.089,0 0,0 Z"
         style="fill:none;stroke:#ff0000;stroke-width:0.1;stroke-linecap:butt;stroke-linejoin:miter;stroke-miterlimit:4;stroke-dasharray:none;stroke-opacity:1"
         id="path58"
         inkscape:connector-curvature="0" /></g><g
       id="g60"
       transform="translate(311.8701,600.6382)"><path
         d="m 0,0 c -5.088,0 -9.213,-4.125 -9.213,-9.213 0,-5.088 4.125,-9.213 9.213,-9.213 5.089,0 9.214,4.125 9.214,9.213 C 9.214,-4.125 5.089,0 0,0 Z"
         style="fill:none;stroke:#ff0000;stroke-width:0.1;stroke-linecap:butt;stroke-linejoin:miter;stroke-miterlimit:4;stroke-dasharray:none;stroke-opacity:1"
         id="path62"
         inkscape:connector-curvature="0" /></g><g
       id="g64"
       transform="translate(275.8701,636.6382)"><path
         d="m 0,0 c -5.088,0 -9.213,-4.125 -9.213,-9.213 0,-5.088 4.125,-9.213 9.213,-9.213 5.089,0 9.214,4.125 9.214,9.213 C 9.214,-4.125 5.089,0 0,0 Z"
         style="fill:none;stroke:#ff0000;stroke-width:0.1;stroke-linecap:butt;stroke-linejoin:miter;stroke-miterlimit:4;stroke-dasharray:none;stroke-opacity:1"
         id="path66"
         inkscape:connector-curvature="0" /></g><g
       id="g68"
       transform="translate(275.8701,600.6382)"><path
         d="m 0,0 c -5.088,0 -9.213,-4.125 -9.213,-9.213 0,-5.088 4.125,-9.213 9.213,-9.213 5.089,0 9.214,4.125 9.214,9.213 C 9.214,-4.125 5.089,0 0,0 Z"
         style="fill:none;stroke:#ff0000;stroke-width:0.1;stroke-linecap:butt;stroke-linejoin:miter;stroke-miterlimit:4;stroke-dasharray:none;stroke-opacity:1"
         id="path70"
         inkscape:connector-curvature="0" /></g><g
       id="g72"
       transform="translate(239.8701,636.6382)"><path
         d="m 0,0 c -5.088,0 -9.213,-4.125 -9.213,-9.213 0,-5.088 4.125,-9.213 9.213,-9.213 5.089,0 9.213,4.125 9.213,9.213 C 9.213,-4.125 5.089,0 0,0 Z"
         style="fill:none;stroke:#ff0000;stroke-width:0.1;stroke-linecap:butt;stroke-linejoin:miter;stroke-miterlimit:4;stroke-dasharray:none;stroke-opacity:1"
         id="path74"
         inkscape:connector-curvature="0" /></g><g
       id="g76"
       transform="translate(239.8701,600.6382)"><path
         d="m 0,0 c -5.088,0 -9.213,-4.125 -9.213,-9.213 0,-5.088 4.125,-9.213 9.213,-9.213 5.089,0 9.213,4.125 9.213,9.213 C 9.213,-4.125 5.089,0 0,0 Z"
         style="fill:none;stroke:#ff0000;stroke-width:0.1;stroke-linecap:butt;stroke-linejoin:miter;stroke-miterlimit:4;stroke-dasharray:none;stroke-opacity:1"
         id="path78"
         inkscape:connector-curvature="0" /></g><g
       id="g80"
       transform="translate(239.8701,564.6382)"><path
         d="m 0,0 c -5.088,0 -9.213,-4.125 -9.213,-9.213 0,-5.088 4.125,-9.213 9.213,-9.213 5.089,0 9.213,4.125 9.213,9.213 C 9.213,-4.125 5.089,0 0,0 Z"
         style="fill:none;stroke:#ff0000;stroke-width:0.1;stroke-linecap:butt;stroke-linejoin:miter;stroke-miterlimit:4;stroke-dasharray:none;stroke-opacity:1"
         id="path82"
         inkscape:connector-curvature="0" /></g><g
       id="g84"
       transform="translate(239.8701,528.6382)"><path
         d="m 0,0 c -5.088,0 -9.213,-4.125 -9.213,-9.213 0,-5.088 4.125,-9.213 9.213,-9.213 5.089,0 9.213,4.125 9.213,9.213 C 9.213,-4.125 5.089,0 0,0 Z"
         style="fill:none;stroke:#ff0000;stroke-width:0.1;stroke-linecap:butt;stroke-linejoin:miter;stroke-miterlimit:4;stroke-dasharray:none;stroke-opacity:1"
         id="path86"
         inkscape:connector-curvature="0" /></g><g
       id="g88"
       transform="translate(203.8701,636.6382)"><path
         d="m 0,0 c -5.088,0 -9.213,-4.125 -9.213,-9.213 0,-5.088 4.125,-9.213 9.213,-9.213 5.089,0 9.213,4.125 9.213,9.213 C 9.213,-4.125 5.089,0 0,0 Z"
         style="fill:none;stroke:#ff0000;stroke-width:0.1;stroke-linecap:butt;stroke-linejoin:miter;stroke-miterlimit:4;stroke-dasharray:none;stroke-opacity:1"
         id="path90"
         inkscape:connector-curvature="0" /></g><g
       id="g92"
       transform="translate(203.8701,600.6382)"><path
         d="m 0,0 c -5.088,0 -9.213,-4.125 -9.213,-9.213 0,-5.088 4.125,-9.213 9.213,-9.213 5.089,0 9.213,4.125 9.213,9.213 C 9.213,-4.125 5.089,0 0,0 Z"
         style="fill:none;stroke:#ff0000;stroke-width:0.1;stroke-linecap:butt;stroke-linejoin:miter;stroke-miterlimit:4;stroke-dasharray:none;stroke-opacity:1"
         id="path94"
         inkscape:connector-curvature="0" /></g><g
       id="g96"
       transform="translate(203.8701,564.6382)"><path
         d="m 0,0 c -5.088,0 -9.213,-4.125 -9.213,-9.213 0,-5.088 4.125,-9.213 9.213,-9.213 5.089,0 9.213,4.125 9.213,9.213 C 9.213,-4.125 5.089,0 0,0 Z"
         style="fill:none;stroke:#ff0000;stroke-width:0.1;stroke-linecap:butt;stroke-linejoin:miter;stroke-miterlimit:4;stroke-dasharray:none;stroke-opacity:1"
         id="path98"
         inkscape:connector-curvature="0" /></g><g
       id="g100"
       transform="translate(203.8701,528.6382)"><path
         d="m 0,0 c -5.088,0 -9.213,-4.125 -9.213,-9.213 0,-5.088 4.125,-9.213 9.213,-9.213 5.089,0 9.213,4.125 9.213,9.213 C 9.213,-4.125 5.089,0 0,0 Z"
         style="fill:none;stroke:#ff0000;stroke-width:0.1;stroke-linecap:butt;stroke-linejoin:miter;stroke-miterlimit:4;stroke-dasharray:none;stroke-opacity:1"
         id="path102"
         inkscape:connector-curvature="0" /></g><g
       id="g104"
       transform="translate(167.8701,636.6382)"><path
         d="m 0,0 c -5.088,0 -9.213,-4.125 -9.213,-9.213 0,-5.088 4.125,-9.213 9.213,-9.213 5.089,0 9.213,4.125 9.213,9.213 C 9.213,-4.125 5.089,0 0,0 Z"
         style="fill:none;stroke:#ff0000;stroke-width:0.1;stroke-linecap:butt;stroke-linejoin:miter;stroke-miterlimit:4;stroke-dasharray:none;stroke-opacity:1"
         id="path106"
         inkscape:connector-curvature="0" /></g><g
       id="g108"
       transform="translate(167.8701,600.6382)"><path
         d="m 0,0 c -5.088,0 -9.213,-4.125 -9.213,-9.213 0,-5.088 4.125,-9.213 9.213,-9.213 5.089,0 9.213,4.125 9.213,9.213 C 9.213,-4.125 5.089,0 0,0 Z"
         style="fill:none;stroke:#ff0000;stroke-width:0.1;stroke-linecap:butt;stroke-linejoin:miter;stroke-miterlimit:4;stroke-dasharray:none;stroke-opacity:1"
         id="path110"
         inkscape:connector-curvature="0" /></g><g
       id="g112"
       transform="translate(167.8701,564.6382)"><path
         d="m 0,0 c -5.088,0 -9.213,-4.125 -9.213,-9.213 0,-5.088 4.125,-9.213 9.213,-9.213 5.089,0 9.213,4.125 9.213,9.213 C 9.213,-4.125 5.089,0 0,0 Z"
         style="fill:none;stroke:#ff0000;stroke-width:0.1;stroke-linecap:butt;stroke-linejoin:miter;stroke-miterlimit:4;stroke-dasharray:none;stroke-opacity:1"
         id="path114"
         inkscape:connector-curvature="0" /></g><g
       id="g116"
       transform="translate(167.8701,528.6382)"><path
         d="m 0,0 c -5.088,0 -9.213,-4.125 -9.213,-9.213 0,-5.088 4.125,-9.213 9.213,-9.213 5.089,0 9.213,4.125 9.213,9.213 C 9.213,-4.125 5.089,0 0,0 Z"
         style="fill:none;stroke:#ff0000;stroke-width:0.1;stroke-linecap:butt;stroke-linejoin:miter;stroke-miterlimit:4;stroke-dasharray:none;stroke-opacity:1"
         id="path118"
         inkscape:connector-curvature="0" /></g><g
       id="g120"
       transform="translate(203.8154,668.2822)"><path
         d="m 0,0 c 6.028,0 10.915,-4.888 10.915,-10.916 0,-6.028 -4.887,-10.915 -10.915,-10.915 -6.029,0 -10.916,4.886 -10.916,10.915 C -10.916,-4.887 -6.029,0 0,0 Z"
         style="fill:none;stroke:#ff0000;stroke-width:0.1;stroke-linecap:round;stroke-linejoin:round;stroke-miterlimit:10;stroke-dasharray:none;stroke-opacity:1"
         id="path122"
         inkscape:connector-curvature="0" /></g><g
       id="g124"
       transform="translate(275.6348,668.2822)"><path
         d="m 0,0 c 6.027,0 10.915,-4.888 10.915,-10.916 0,-6.028 -4.888,-10.915 -10.915,-10.915 -6.029,0 -10.916,4.886 -10.916,10.915 C -10.916,-4.887 -6.029,0 0,0 Z"
         style="fill:none;stroke:#ff0000;stroke-width:0.1;stroke-linecap:round;stroke-linejoin:round;stroke-miterlimit:10;stroke-dasharray:none;stroke-opacity:1"
         id="path126"
         inkscape:connector-curvature="0" /></g><path
       d="m 147.61,838.89 -143.149,0 0,-364.251 143.149,0 0,364.251 z"
       style="fill:none;stroke:#ff0000;stroke-width:0.05;stroke-linecap:butt;stroke-linejoin:miter;stroke-miterlimit:4;stroke-dasharray:none;stroke-opacity:1"
       id="path128"
       inkscape:connector-curvature="0" /><g
       id="g130"
       transform="translate(126.3506,834.9214)"><path
         d="m 0,0 c -2.505,0 -4.535,-2.03 -4.535,-4.535 0,-2.505 2.03,-4.536 4.535,-4.536 2.505,0 4.535,2.031 4.535,4.536 C 4.535,-2.03 2.505,0 0,0 Z"
         style="fill:none;stroke:#ff0000;stroke-width:0.05;stroke-linecap:butt;stroke-linejoin:miter;stroke-miterlimit:4;stroke-dasharray:none;stroke-opacity:1"
         id="path132"
         inkscape:connector-curvature="0" /></g><g
       id="g134"
       transform="translate(126.3506,487.6777)"><path
         d="m 0,0 c -2.505,0 -4.535,-2.031 -4.535,-4.535 0,-2.506 2.03,-4.535 4.535,-4.535 2.505,0 4.535,2.029 4.535,4.535 C 4.535,-2.031 2.505,0 0,0 Z"
         style="fill:none;stroke:#ff0000;stroke-width:0.05;stroke-linecap:butt;stroke-linejoin:miter;stroke-miterlimit:4;stroke-dasharray:none;stroke-opacity:1"
         id="path136"
         inkscape:connector-curvature="0" /></g><g
       id="g138"
       transform="translate(25.5508,834.9214)"><path
         d="m 0,0 c -2.505,0 -4.535,-2.03 -4.535,-4.535 0,-2.505 2.03,-4.536 4.535,-4.536 2.505,0 4.535,2.031 4.535,4.536 C 4.535,-2.03 2.505,0 0,0 Z"
         style="fill:none;stroke:#ff0000;stroke-width:0.05;stroke-linecap:butt;stroke-linejoin:miter;stroke-miterlimit:4;stroke-dasharray:none;stroke-opacity:1"
         id="path140"
         inkscape:connector-curvature="0" /></g><g
       id="g142"
       transform="translate(25.5508,487.6777)"><path
         d="m 0,0 c -2.505,0 -4.535,-2.031 -4.535,-4.535 0,-2.506 2.03,-4.535 4.535,-4.535 2.505,0 4.535,2.029 4.535,4.535 C 4.535,-2.031 2.505,0 0,0 Z"
         style="fill:none;stroke:#ff0000;stroke-width:0.05;stroke-linecap:butt;stroke-linejoin:miter;stroke-miterlimit:4;stroke-dasharray:none;stroke-opacity:1"
         id="path144"
         inkscape:connector-curvature="0" /></g><g
       id="g146"
       transform="translate(112.0361,784.8901)"><path
         d="m 0,0 c 7.406,0 13.429,-5.997 13.429,-13.401 0,-6.055 -4.028,-11.185 -9.538,-12.85 l 0,-5.974 -7.464,0 0,5.895 C -9.231,-24.757 -13.4,-19.56 -13.4,-13.4 -13.401,-5.996 -7.405,0 0,0 Z"
         style="fill:none;stroke:#ff0000;stroke-width:0.05;stroke-linecap:butt;stroke-linejoin:miter;stroke-miterlimit:4;stroke-dasharray:none;stroke-opacity:1"
         id="path148"
         inkscape:connector-curvature="0" /></g><g
       id="g150"
       transform="translate(40.0361,784.8901)"><path
         d="m 0,0 c 7.406,0 13.429,-5.997 13.429,-13.401 0,-6.055 -4.028,-11.185 -9.538,-12.85 l 0,-5.974 -7.464,0 0,5.895 C -9.231,-24.757 -13.4,-19.56 -13.4,-13.4 -13.401,-5.996 -7.405,0 0,0 Z"
         style="fill:none;stroke:#ff0000;stroke-width:0.05;stroke-linecap:butt;stroke-linejoin:miter;stroke-miterlimit:4;stroke-dasharray:none;stroke-opacity:1"
         id="path152"
         inkscape:connector-curvature="0" /></g><g
       id="g154"
       transform="translate(112.0361,712.8901)"><path
         d="m 0,0 c 7.406,0 13.429,-5.997 13.429,-13.401 0,-6.055 -4.028,-11.185 -9.538,-12.85 l 0,-5.974 -7.464,0 0,5.895 C -9.231,-24.757 -13.4,-19.56 -13.4,-13.4 -13.401,-5.996 -7.405,0 0,0 Z"
         style="fill:none;stroke:#ff0000;stroke-width:0.05;stroke-linecap:butt;stroke-linejoin:miter;stroke-miterlimit:4;stroke-dasharray:none;stroke-opacity:1"
         id="path156"
         inkscape:connector-curvature="0" /></g><g
       id="g158"
       transform="translate(40.0361,712.8901)"><path
         d="m 0,0 c 7.406,0 13.429,-5.997 13.429,-13.401 0,-6.055 -4.028,-11.185 -9.538,-12.85 l 0,-5.974 -7.464,0 0,5.895 C -9.231,-24.757 -13.4,-19.56 -13.4,-13.4 -13.401,-5.996 -7.405,0 0,0 Z"
         style="fill:none;stroke:#ff0000;stroke-width:0.05;stroke-linecap:butt;stroke-linejoin:miter;stroke-miterlimit:4;stroke-dasharray:none;stroke-opacity:1"
         id="path160"
         inkscape:connector-curvature="0" /></g><path
       d="m 58.461,550.465 -36.851,0 0,-17.008 36.851,0 0,17.008 z"
       style="fill:none;stroke:#ff0000;stroke-width:0.05;stroke-linecap:butt;stroke-linejoin:miter;stroke-miterlimit:4;stroke-dasharray:none;stroke-opacity:1"
       id="path162"
       inkscape:connector-curvature="0" /><g
       id="g164"
       transform="translate(22.0361,636.6382)"><path
         d="m 0,0 c -5.088,0 -9.213,-4.125 -9.213,-9.212 0,-5.089 4.125,-9.213 9.213,-9.213 5.088,0 9.212,4.124 9.212,9.213 C 9.212,-4.125 5.088,0 0,0 Z"
         style="fill:none;stroke:#ff0000;stroke-width:0.05;stroke-linecap:butt;stroke-linejoin:miter;stroke-miterlimit:4;stroke-dasharray:none;stroke-opacity:1"
         id="path166"
         inkscape:connector-curvature="0" /></g><g
       id="g168"
       transform="translate(58.0361,636.6382)"><path
         d="m 0,0 c -5.088,0 -9.213,-4.125 -9.213,-9.212 0,-5.089 4.125,-9.213 9.213,-9.213 5.088,0 9.212,4.124 9.212,9.213 C 9.212,-4.125 5.088,0 0,0 Z"
         style="fill:none;stroke:#ff0000;stroke-width:0.05;stroke-linecap:butt;stroke-linejoin:miter;stroke-miterlimit:4;stroke-dasharray:none;stroke-opacity:1"
         id="path170"
         inkscape:connector-curvature="0" /></g><g
       id="g172"
       transform="translate(94.0361,636.6382)"><path
         d="m 0,0 c -5.088,0 -9.213,-4.125 -9.213,-9.212 0,-5.089 4.125,-9.213 9.213,-9.213 5.088,0 9.212,4.124 9.212,9.213 C 9.212,-4.125 5.088,0 0,0 Z"
         style="fill:none;stroke:#ff0000;stroke-width:0.05;stroke-linecap:butt;stroke-linejoin:miter;stroke-miterlimit:4;stroke-dasharray:none;stroke-opacity:1"
         id="path174"
         inkscape:connector-curvature="0" /></g><g
       id="g176"
       transform="translate(130.0361,636.6382)"><path
         d="m 0,0 c -5.088,0 -9.213,-4.125 -9.213,-9.212 0,-5.089 4.125,-9.213 9.213,-9.213 5.088,0 9.212,4.124 9.212,9.213 C 9.212,-4.125 5.088,0 0,0 Z"
         style="fill:none;stroke:#ff0000;stroke-width:0.05;stroke-linecap:butt;stroke-linejoin:miter;stroke-miterlimit:4;stroke-dasharray:none;stroke-opacity:1"
         id="path178"
         inkscape:connector-curvature="0" /></g><g
       id="g180"
       transform="translate(22.0361,600.6382)"><path
         d="m 0,0 c -5.088,0 -9.213,-4.125 -9.213,-9.213 0,-5.088 4.125,-9.212 9.213,-9.212 5.088,0 9.212,4.124 9.212,9.212 C 9.212,-4.125 5.088,0 0,0 Z"
         style="fill:none;stroke:#ff0000;stroke-width:0.05;stroke-linecap:butt;stroke-linejoin:miter;stroke-miterlimit:4;stroke-dasharray:none;stroke-opacity:1"
         id="path182"
         inkscape:connector-curvature="0" /></g><g
       id="g184"
       transform="translate(58.0361,600.6382)"><path
         d="m 0,0 c -5.088,0 -9.213,-4.125 -9.213,-9.213 0,-5.088 4.125,-9.212 9.213,-9.212 5.088,0 9.212,4.124 9.212,9.212 C 9.212,-4.125 5.088,0 0,0 Z"
         style="fill:none;stroke:#ff0000;stroke-width:0.05;stroke-linecap:butt;stroke-linejoin:miter;stroke-miterlimit:4;stroke-dasharray:none;stroke-opacity:1"
         id="path186"
         inkscape:connector-curvature="0" /></g><g
       id="g188"
       transform="translate(94.0361,600.6382)"><path
         d="m 0,0 c -5.088,0 -9.213,-4.125 -9.213,-9.213 0,-5.088 4.125,-9.212 9.213,-9.212 5.088,0 9.212,4.124 9.212,9.212 C 9.212,-4.125 5.088,0 0,0 Z"
         style="fill:none;stroke:#ff0000;stroke-width:0.05;stroke-linecap:butt;stroke-linejoin:miter;stroke-miterlimit:4;stroke-dasharray:none;stroke-opacity:1"
         id="path190"
         inkscape:connector-curvature="0" /></g><g
       id="g192"
       transform="translate(130.0361,600.6382)"><path
         d="m 0,0 c -5.088,0 -9.213,-4.125 -9.213,-9.213 0,-5.088 4.125,-9.212 9.213,-9.212 5.088,0 9.212,4.124 9.212,9.212 C 9.212,-4.125 5.088,0 0,0 Z"
         style="fill:none;stroke:#ff0000;stroke-width:0.05;stroke-linecap:butt;stroke-linejoin:miter;stroke-miterlimit:4;stroke-dasharray:none;stroke-opacity:1"
         id="path194"
         inkscape:connector-curvature="0" /></g><g
       id="g196"
       transform="translate(94.0361,564.6382)"><path
         d="m 0,0 c -5.088,0 -9.213,-4.125 -9.213,-9.212 0,-5.089 4.125,-9.213 9.213,-9.213 5.088,0 9.212,4.124 9.212,9.213 C 9.212,-4.125 5.088,0 0,0 Z"
         style="fill:none;stroke:#ff0000;stroke-width:0.05;stroke-linecap:butt;stroke-linejoin:miter;stroke-miterlimit:4;stroke-dasharray:none;stroke-opacity:1"
         id="path198"
         inkscape:connector-curvature="0" /></g><g
       id="g200"
       transform="translate(130.0361,564.6382)"><path
         d="m 0,0 c -5.088,0 -9.213,-4.125 -9.213,-9.212 0,-5.089 4.125,-9.213 9.213,-9.213 5.088,0 9.212,4.124 9.212,9.213 C 9.212,-4.125 5.088,0 0,0 Z"
         style="fill:none;stroke:#ff0000;stroke-width:0.05;stroke-linecap:butt;stroke-linejoin:miter;stroke-miterlimit:4;stroke-dasharray:none;stroke-opacity:1"
         id="path202"
         inkscape:connector-curvature="0" /></g><g
       id="g204"
       transform="translate(94.0361,528.6387)"><path
         d="m 0,0 c -5.088,0 -9.213,-4.125 -9.213,-9.213 0,-5.088 4.125,-9.213 9.213,-9.213 5.088,0 9.212,4.125 9.212,9.213 C 9.212,-4.125 5.088,0 0,0 Z"
         style="fill:none;stroke:#ff0000;stroke-width:0.05;stroke-linecap:butt;stroke-linejoin:miter;stroke-miterlimit:4;stroke-dasharray:none;stroke-opacity:1"
         id="path206"
         inkscape:connector-curvature="0" /></g><g
       id="g208"
       transform="translate(130.0361,528.6387)"><path
         d="m 0,0 c -5.088,0 -9.213,-4.125 -9.213,-9.213 0,-5.088 4.125,-9.213 9.213,-9.213 5.088,0 9.212,4.125 9.212,9.213 C 9.212,-4.125 5.088,0 0,0 Z"
         style="fill:none;stroke:#ff0000;stroke-width:0.05;stroke-linecap:butt;stroke-linejoin:miter;stroke-miterlimit:4;stroke-dasharray:none;stroke-opacity:1"
         id="path210"
         inkscape:connector-curvature="0" /></g><g
       id="g212"
       transform="translate(29.3613,657.7886)"><path
         d="m 0,0 c 0,-6.028 4.887,-10.914 10.915,-10.914 6.028,0 10.916,4.886 10.916,10.914 0,6.028 -4.888,10.917 -10.916,10.917 C 4.887,10.917 0,6.028 0,0 Z m 71.818,0 c 0,-6.028 4.887,-10.914 10.916,-10.914 6.029,0 10.914,4.886 10.914,10.914 0,6.028 -4.885,10.917 -10.914,10.917 C 76.705,10.917 71.818,6.028 71.818,0 Z"
         style="fill:none;stroke:#ff0000;stroke-width:0.05;stroke-linecap:round;stroke-linejoin:round;stroke-miterlimit:10;stroke-dasharray:none;stroke-opacity:1"
         id="path214"
         inkscape:connector-curvature="0" /></g><g
       id="g216"
       transform="translate(287.3442,482.8657)"><path
         d="m 0,0 -1.11,0 c -0.56,0 -0.702,-0.29 -0.702,-0.808 0,-0.468 0.258,-0.666 0.702,-0.666 L 0,-1.474 0,0 Z m 0,2.09 -1.11,0 c -0.56,0 -0.702,-0.29 -0.702,-0.808 0,-0.469 0.258,-0.666 0.702,-0.666 l 1.11,0 0,1.474 z m 0.616,-4.18 -1.726,0 c -0.783,0 -1.319,0.475 -1.319,1.282 0,0.456 0.055,0.783 0.407,1.116 -0.327,0.29 -0.407,0.617 -0.407,0.974 0,0.869 0.413,1.424 1.319,1.424 l 1.726,0 0,-4.796 z"
         style="fill:#000000;fill-opacity:1;fill-rule:nonzero;stroke:none"
         id="path218"
         inkscape:connector-curvature="0" /></g><g
       id="g220"
       transform="translate(282.9092,481.3921)"><path
         d="m 0,0 0,1.474 -0.906,0 c -0.16,0 -0.308,0.086 -0.308,0.308 0,0.222 0.148,0.308 0.308,0.308 l 0.906,0 0,1.473 -2.121,0 c -0.16,0 -0.308,0.086 -0.308,0.309 0,0.222 0.148,0.308 0.308,0.308 l 2.737,0 0,-4.796 -2.737,0 c -0.16,0 -0.308,0.086 -0.308,0.308 0,0.222 0.148,0.308 0.308,0.308 L 0,0 Z"
         style="fill:#000000;fill-opacity:1;fill-rule:nonzero;stroke:none"
         id="path222"
         inkscape:connector-curvature="0" /></g><g
       id="g224"
       transform="translate(278.4741,481.3921)"><path
         d="M 0,0 0,3.872 C 0,4.069 0.086,4.18 0.308,4.18 0.53,4.18 0.616,4.069 0.616,3.872 l 0,-4.488 -2.737,0 c -0.16,0 -0.308,0.086 -0.308,0.308 0,0.222 0.148,0.308 0.308,0.308 L 0,0 Z"
         style="fill:#000000;fill-opacity:1;fill-rule:nonzero;stroke:none"
         id="path226"
         inkscape:connector-curvature="0" /></g><g
       id="g228"
       transform="translate(272.6519,482.4404)"><path
         d="M 0,0 0.968,0 0.487,1.67 0.475,1.67 0,0 Z M 2.003,-1.356 C 2.047,-1.504 1.88,-1.665 1.708,-1.665 c -0.191,0 -0.29,0.161 -0.333,0.309 l -0.234,0.739 -1.313,0 -0.228,-0.739 c -0.044,-0.148 -0.142,-0.309 -0.333,-0.309 -0.173,0 -0.34,0.161 -0.296,0.309 l 1.19,4.173 c 0.043,0.161 0.116,0.314 0.32,0.314 0.197,0 0.265,-0.148 0.314,-0.314 l 1.208,-4.173 z"
         style="fill:#000000;fill-opacity:1;fill-rule:nonzero;stroke:none"
         id="path230"
         inkscape:connector-curvature="0" /></g><g
       id="g232"
       transform="translate(264.0283,481.688)"><path
         d="m 0,0 0.345,-0.296 0.5,0 c 0.326,0 0.296,0.093 0.296,0.247 l 0,0.345 L 0.666,0.715 0,0 Z m 0.617,1.56 0.524,0.579 0,0.216 c 0,0.241 0.043,0.389 -0.247,0.389 l -0.684,0 c -0.309,0 -0.272,-0.124 -0.272,-0.389 l 0,-0.216 L 0.617,1.56 Z M -1.128,0.167 c -0.08,0.067 -0.16,0.154 -0.16,0.265 0,0.172 0.142,0.32 0.314,0.32 0.148,0 0.29,-0.154 0.395,-0.24 L -0.462,0.413 0.197,1.11 -0.462,1.677 c -0.179,0.154 -0.216,0.166 -0.216,0.401 l 0,0.431 c 0,0.536 0.37,0.851 0.888,0.851 l 0.684,0 c 0.512,0 0.863,-0.339 0.863,-0.851 l 0,-0.431 c 0,-0.136 0,-0.185 -0.092,-0.29 L 1.085,1.166 1.584,0.728 C 1.757,0.58 1.757,0.555 1.757,0.339 l 0,-0.388 C 1.757,-0.302 1.695,-0.524 1.498,-0.708 1.319,-0.875 1.116,-0.912 0.882,-0.912 l -0.561,0 c -0.192,0 -0.21,0.018 -0.352,0.136 l -0.388,0.326 -0.314,-0.326 c -0.075,-0.08 -0.148,-0.136 -0.259,-0.136 -0.179,0 -0.296,0.136 -0.296,0.308 0,0.142 0.179,0.321 0.271,0.413 l 0.136,0.142 -0.247,0.216 z"
         style="fill:#000000;fill-opacity:1;fill-rule:nonzero;stroke:none"
         id="path234"
         inkscape:connector-curvature="0" /></g><g
       id="g236"
       transform="translate(256.2983,484.9556)"><path
         d="M 0,0 -1.375,0 C -1.56,0 -1.812,-0.031 -1.812,-0.277 l 0,-0.426 c 0,-0.246 0.271,-0.259 0.443,-0.259 L 0,-0.962 0,0 Z m 0,-1.578 -0.142,0 -1.701,-2.429 c -0.068,-0.098 -0.148,-0.173 -0.272,-0.173 -0.172,0 -0.314,0.118 -0.314,0.29 0,0.117 0.086,0.234 0.154,0.327 l 1.387,1.985 -0.567,0 c -0.493,0 -0.974,0.296 -0.974,0.875 l 0,0.426 c 0,0.548 0.487,0.893 0.974,0.893 l 2.071,0 0,-4.488 C 0.616,-4.069 0.53,-4.18 0.308,-4.18 0.086,-4.18 0,-4.069 0,-3.872 l 0,2.294 z"
         style="fill:#000000;fill-opacity:1;fill-rule:nonzero;stroke:none"
         id="path238"
         inkscape:connector-curvature="0" /></g><g
       id="g240"
       transform="translate(251.8633,481.3921)"><path
         d="m 0,0 0,1.474 -0.906,0 c -0.16,0 -0.308,0.086 -0.308,0.308 0,0.222 0.148,0.308 0.308,0.308 l 0.906,0 0,1.473 -2.121,0 c -0.16,0 -0.308,0.086 -0.308,0.309 0,0.222 0.148,0.308 0.308,0.308 l 2.737,0 0,-4.796 -2.737,0 c -0.16,0 -0.308,0.086 -0.308,0.308 0,0.222 0.148,0.308 0.308,0.308 L 0,0 Z"
         style="fill:#000000;fill-opacity:1;fill-rule:nonzero;stroke:none"
         id="path242"
         inkscape:connector-curvature="0" /></g><g
       id="g244"
       transform="translate(247.4282,482.8657)"><path
         d="m 0,0 -1.11,0 c -0.56,0 -0.702,-0.29 -0.702,-0.808 0,-0.468 0.258,-0.666 0.702,-0.666 L 0,-1.474 0,0 Z m 0,2.09 -1.11,0 c -0.56,0 -0.702,-0.29 -0.702,-0.808 0,-0.469 0.258,-0.666 0.702,-0.666 l 1.11,0 0,1.474 z m 0.616,-4.18 -1.726,0 c -0.783,0 -1.319,0.475 -1.319,1.282 0,0.456 0.055,0.783 0.407,1.116 -0.327,0.29 -0.407,0.617 -0.407,0.974 0,0.869 0.413,1.424 1.319,1.424 l 1.726,0 0,-4.796 z"
         style="fill:#000000;fill-opacity:1;fill-rule:nonzero;stroke:none"
         id="path246"
         inkscape:connector-curvature="0" /></g><g
       id="g248"
       transform="translate(242.9932,481.3921)"><path
         d="m 0,0 0,1.474 -0.906,0 c -0.16,0 -0.308,0.086 -0.308,0.308 0,0.222 0.148,0.308 0.308,0.308 l 0.906,0 0,1.473 -2.121,0 c -0.16,0 -0.308,0.086 -0.308,0.309 0,0.222 0.148,0.308 0.308,0.308 l 2.737,0 0,-4.796 -2.737,0 c -0.16,0 -0.308,0.086 -0.308,0.308 0,0.222 0.148,0.308 0.308,0.308 L 0,0 Z"
         style="fill:#000000;fill-opacity:1;fill-rule:nonzero;stroke:none"
         id="path250"
         inkscape:connector-curvature="0" /></g><g
       id="g252"
       transform="translate(238.5581,481.3921)"><path
         d="M 0,0 0,3.872 C 0,4.069 0.086,4.18 0.308,4.18 0.53,4.18 0.616,4.069 0.616,3.872 l 0,-4.488 -2.737,0 c -0.16,0 -0.308,0.086 -0.308,0.308 0,0.222 0.148,0.308 0.308,0.308 L 0,0 Z"
         style="fill:#000000;fill-opacity:1;fill-rule:nonzero;stroke:none"
         id="path254"
         inkscape:connector-curvature="0" /></g><g
       id="g256"
       transform="translate(233.5249,484.9556)"><path
         d="m 0,0 0,-3.872 c 0,-0.197 -0.086,-0.308 -0.308,-0.308 -0.222,0 -0.308,0.111 -0.308,0.308 l 0,3.872 -0.598,0 0,-0.222 c 0,-0.197 -0.087,-0.308 -0.308,-0.308 -0.223,0 -0.309,0.111 -0.309,0.308 l 0,0.838 3.045,0 0,-0.838 c 0,-0.197 -0.086,-0.308 -0.308,-0.308 -0.221,0 -0.308,0.111 -0.308,0.308 L 0.598,0 0,0 Z"
         style="fill:#000000;fill-opacity:1;fill-rule:nonzero;stroke:none"
         id="path258"
         inkscape:connector-curvature="0" /></g><g
       id="g260"
       transform="translate(229.688,481.3921)"><path
         d="m 0,0 0,1.474 -0.906,0 c -0.16,0 -0.308,0.086 -0.308,0.308 0,0.222 0.148,0.308 0.308,0.308 l 0.906,0 0,1.473 -2.121,0 c -0.16,0 -0.308,0.086 -0.308,0.309 0,0.222 0.148,0.308 0.308,0.308 l 2.737,0 0,-4.796 -2.737,0 c -0.16,0 -0.308,0.086 -0.308,0.308 0,0.222 0.148,0.308 0.308,0.308 L 0,0 Z"
         style="fill:#000000;fill-opacity:1;fill-rule:nonzero;stroke:none"
         id="path262"
         inkscape:connector-curvature="0" /></g><g
       id="g264"
       transform="translate(223.1323,480.7759)"><path
         d="m 0,0 c -0.142,0 -0.308,0.086 -0.308,0.308 0,0.234 0.172,0.308 0.308,0.308 l 1.005,0 c 0.277,0 0.339,0.019 0.462,0.272 l 0.524,1.066 c 0.074,0.148 0.13,0.253 0.13,0.425 0,0.192 -0.05,0.303 -0.13,0.469 L 1.455,3.921 C 1.337,4.155 1.294,4.18 1.029,4.18 L 0,4.18 c -0.142,0 -0.308,0.086 -0.308,0.308 0,0.234 0.172,0.308 0.308,0.308 l 1.048,0 c 0.474,0 0.74,-0.167 0.949,-0.592 L 2.564,3.064 C 2.688,2.817 2.737,2.651 2.737,2.379 2.737,2.139 2.675,1.942 2.571,1.732 L 2.003,0.585 C 1.806,0.185 1.541,0 1.079,0 L 0,0 Z"
         style="fill:#000000;fill-opacity:1;fill-rule:nonzero;stroke:none"
         id="path266"
         inkscape:connector-curvature="0" /></g><g
       id="g268"
       transform="translate(219.0054,482.8657)"><path
         d="m 0,0 0,-1.782 c 0,-0.197 -0.086,-0.308 -0.308,-0.308 -0.222,0 -0.308,0.111 -0.308,0.308 l 0,4.18 c 0,0.197 0.086,0.308 0.308,0.308 C -0.086,2.706 0,2.595 0,2.398 l 0,-1.782 1.812,0 0,1.782 c 0,0.197 0.087,0.308 0.309,0.308 0.222,0 0.308,-0.111 0.308,-0.308 l 0,-4.18 c 0,-0.197 -0.086,-0.308 -0.308,-0.308 -0.222,0 -0.309,0.111 -0.309,0.308 L 1.812,0 0,0 Z"
         style="fill:#000000;fill-opacity:1;fill-rule:nonzero;stroke:none"
         id="path270"
         inkscape:connector-curvature="0" /></g><g
       id="g272"
       transform="translate(214.5698,481.8301)"><path
         d="m 0,0 0.012,0 -0.006,0 1.609,3.742 0.814,0 0,-4.488 c 0,-0.197 -0.086,-0.308 -0.308,-0.308 -0.222,0 -0.309,0.111 -0.309,0.308 l 0,3.391 -0.012,0 0,-0.007 -1.609,-3.699 -0.814,0 0,4.488 c 0,0.198 0.087,0.309 0.309,0.309 0.222,0 0.308,-0.111 0.308,-0.309 L 0,0 Z"
         style="fill:#000000;fill-opacity:1;fill-rule:nonzero;stroke:none"
         id="path274"
         inkscape:connector-curvature="0" /></g><g
       id="g276"
       transform="translate(210.2764,483.6548)"><path
         d="m 0,0 c -0.092,-0.179 -0.142,-0.296 -0.142,-0.5 0,-0.16 0.038,-0.271 0.105,-0.406 l 0.592,-1.172 c 0.043,-0.086 0.087,-0.185 0.21,-0.185 0.123,0 0.166,0.099 0.209,0.185 l 0.592,1.172 c 0.068,0.135 0.105,0.246 0.105,0.406 0,0.204 -0.049,0.321 -0.142,0.5 L 0.974,1.116 C 0.925,1.214 0.894,1.301 0.765,1.301 0.635,1.301 0.604,1.214 0.555,1.116 L 0,0 Z m 0.019,1.412 c 0.148,0.289 0.4,0.505 0.746,0.505 0.345,0 0.598,-0.216 0.746,-0.505 L 2.127,0.185 c 0.117,-0.241 0.16,-0.419 0.16,-0.685 0,-0.295 -0.08,-0.48 -0.203,-0.733 L 1.517,-2.367 C 1.369,-2.663 1.122,-2.879 0.765,-2.879 c -0.358,0 -0.604,0.216 -0.752,0.512 l -0.568,1.134 c -0.123,0.253 -0.203,0.438 -0.203,0.733 0,0.266 0.043,0.444 0.16,0.685 l 0.617,1.227 z"
         style="fill:#000000;fill-opacity:1;fill-rule:nonzero;stroke:none"
         id="path278"
         inkscape:connector-curvature="0" /></g><g
       id="g280"
       transform="translate(207.5122,481.3921)"><path
         d="M 0,0 0,3.872 C 0,4.069 0.086,4.18 0.308,4.18 0.53,4.18 0.616,4.069 0.616,3.872 l 0,-4.488 -2.737,0 c -0.16,0 -0.308,0.086 -0.308,0.308 0,0.222 0.148,0.308 0.308,0.308 L 0,0 Z"
         style="fill:#000000;fill-opacity:1;fill-rule:nonzero;stroke:none"
         id="path282"
         inkscape:connector-curvature="0" /></g><g
       id="g284"
       transform="translate(201.4062,483.6548)"><path
         d="m 0,0 c -0.092,-0.179 -0.142,-0.296 -0.142,-0.5 0,-0.16 0.038,-0.271 0.105,-0.406 l 0.592,-1.172 c 0.043,-0.086 0.087,-0.185 0.21,-0.185 0.123,0 0.166,0.099 0.209,0.185 l 0.592,1.172 c 0.068,0.135 0.105,0.246 0.105,0.406 0,0.204 -0.049,0.321 -0.142,0.5 L 0.974,1.116 C 0.925,1.214 0.894,1.301 0.765,1.301 0.635,1.301 0.604,1.214 0.555,1.116 L 0,0 Z m 0.019,1.412 c 0.148,0.289 0.4,0.505 0.746,0.505 0.345,0 0.598,-0.216 0.746,-0.505 L 2.127,0.185 c 0.117,-0.241 0.16,-0.419 0.16,-0.685 0,-0.295 -0.08,-0.48 -0.203,-0.733 L 1.517,-2.367 C 1.369,-2.663 1.122,-2.879 0.765,-2.879 c -0.358,0 -0.604,0.216 -0.752,0.512 l -0.568,1.134 c -0.123,0.253 -0.203,0.438 -0.203,0.733 0,0.266 0.043,0.444 0.16,0.685 l 0.617,1.227 z"
         style="fill:#000000;fill-opacity:1;fill-rule:nonzero;stroke:none"
         id="path286"
         inkscape:connector-curvature="0" /></g><g
       id="g288"
       transform="translate(196.8296,482.3418)"><path
         d="M 0,0 0,-0.629 C 0,-0.9 0.185,-0.95 0.407,-0.95 l 0.98,0 c 0.351,0 0.425,0.105 0.425,0.445 l 0,1.208 c 0,0.302 0,0.561 -0.19,0.801 L 0.949,2.361 C 0.746,2.62 0.771,2.614 0.432,2.614 l -0.74,0 c -0.16,0 -0.308,0.086 -0.308,0.308 0,0.222 0.148,0.308 0.308,0.308 l 0.826,0 c 0.4,0 0.616,-0.105 0.863,-0.419 L 2.108,1.88 C 2.343,1.578 2.429,1.375 2.429,0.98 l 0,-1.541 c 0,-0.308 -0.043,-0.536 -0.29,-0.758 C 1.923,-1.517 1.714,-1.566 1.43,-1.566 l -1.06,0 c -0.586,0 -0.986,0.37 -0.986,0.968 l 0,1.214 1.214,0 C 0.758,0.616 0.906,0.53 0.906,0.308 0.906,0.086 0.758,0 0.598,0 L 0,0 Z"
         style="fill:#000000;fill-opacity:1;fill-rule:nonzero;stroke:none"
         id="path290"
         inkscape:connector-curvature="0" /></g><g
       id="g292"
       transform="translate(192.9927,483.0566)"><path
         d="m 0,0 -1.214,1.578 0,0.629 c 0,0.197 0.086,0.308 0.308,0.308 0.221,0 0.308,-0.111 0.308,-0.308 l 0,-0.419 0.906,-1.178 0.906,1.178 0,0.419 c 0,0.197 0.087,0.308 0.308,0.308 0.223,0 0.309,-0.111 0.309,-0.308 l 0,-0.629 L 0.616,0 l 0,-1.973 C 0.616,-2.17 0.53,-2.281 0.308,-2.281 0.086,-2.281 0,-2.17 0,-1.973 L 0,0 Z"
         style="fill:#000000;fill-opacity:1;fill-rule:nonzero;stroke:none"
         id="path294"
         inkscape:connector-curvature="0" /></g></g></svg>