<?xml version="1.0" encoding="utf-8"?>
<!-- Generator: Adobe Illustrator 13.0.0, SVG Export Plug-In  -->
<!DOCTYPE svg PUBLIC "-//W3C//DTD SVG 1.0//EN" "http://www.w3.org/TR/2001/REC-SVG-20010904/DTD/svg10.dtd" [
	<!ENTITY ns_flows "http://ns.adobe.com/Flows/1.0/">
]>
<svg version="1.0"
	 xmlns="http://www.w3.org/2000/svg" xmlns:xlink="http://www.w3.org/1999/xlink" xmlns:a="http://ns.adobe.com/AdobeSVGViewerExtensions/3.0/"
	 xmlns:inkscape="http://www.inkscape.org/namespaces/inkscape" 
	 x="0px" y="0px" width="143px" height="365px" viewBox="0.108 0.109 143 365" style="enable-background:new 0.108 0.109 143 365;"
	 xml:space="preserve">
<defs>
</defs>
<path style="stroke:#000000;" d="M18.296,24.619v3.521h2.858c0.417,0,0.771-0.146,1.067-0.438c0.293-0.293,0.44-0.643,0.44-1.054
	v-0.529c0-0.411-0.147-0.764-0.446-1.059c-0.296-0.293-0.651-0.441-1.062-0.441H18.296z M18.296,19.62v3.509h2.858
	c0.417,0,0.771-0.146,1.067-0.438c0.293-0.29,0.44-0.642,0.44-1.053v-0.526c0-0.405-0.147-0.755-0.446-1.051
	c-0.296-0.292-0.651-0.44-1.062-0.44H18.296z M16.806,18.13h4.349c0.816,0,1.521,0.295,2.111,0.884
	c0.592,0.589,0.888,1.287,0.888,2.098v0.509c0,0.44-0.095,0.866-0.281,1.277c-0.189,0.414-0.438,0.739-0.751,0.977
	c0.331,0.308,0.586,0.653,0.763,1.041c0.181,0.388,0.27,0.787,0.27,1.204v0.512c0,0.819-0.296,1.526-0.885,2.115
	c-0.589,0.588-1.292,0.885-2.114,0.885h-4.349V18.13z M34.293,18.13c0.249,0,0.45,0.067,0.601,0.206
	c0.154,0.14,0.23,0.32,0.23,0.539c0,0.213-0.076,0.391-0.233,0.532c-0.156,0.142-0.354,0.213-0.598,0.213h-2.097v8.52h2.097
	c0.249,0,0.45,0.067,0.601,0.207c0.154,0.139,0.23,0.319,0.23,0.538s-0.076,0.399-0.233,0.538c-0.156,0.14-0.354,0.208-0.598,0.208
	h-5.686c-0.248,0-0.449-0.068-0.6-0.208c-0.154-0.139-0.23-0.319-0.23-0.538s0.076-0.399,0.233-0.538
	c0.156-0.14,0.354-0.207,0.597-0.207h2.098v-8.52h-2.098c-0.248,0-0.449-0.068-0.6-0.207c-0.154-0.139-0.23-0.319-0.23-0.538
	s0.076-0.399,0.233-0.539c0.156-0.139,0.354-0.206,0.597-0.206H34.293z M38.748,18.13h7.348v1.916c0,0.249-0.067,0.45-0.207,0.601
	c-0.139,0.154-0.319,0.23-0.538,0.23s-0.399-0.076-0.538-0.233c-0.14-0.156-0.207-0.355-0.207-0.598V19.62h-1.438v9.179
	c0,0.249-0.067,0.45-0.206,0.601c-0.14,0.154-0.32,0.231-0.539,0.231s-0.399-0.077-0.538-0.234
	c-0.139-0.156-0.207-0.354-0.207-0.598V19.62h-1.438v0.426c0,0.249-0.068,0.45-0.207,0.601c-0.14,0.154-0.32,0.23-0.539,0.23
	s-0.399-0.076-0.538-0.233c-0.139-0.156-0.207-0.355-0.207-0.598V18.13L38.748,18.13z M56.694,19.62v2.269h3.603
	c0.201,0,0.379-0.076,0.524-0.233c0.147-0.156,0.222-0.331,0.222-0.529v-0.761c0-0.197-0.074-0.369-0.225-0.521
	c-0.151-0.15-0.322-0.225-0.521-0.225H56.694z M55.204,18.13h5.093c0.613,0,1.143,0.219,1.586,0.659
	c0.447,0.438,0.669,0.964,0.669,1.576v0.761c0,0.618-0.22,1.15-0.66,1.591c-0.438,0.441-0.971,0.663-1.595,0.663h-0.795l2.901,5.062
	c0.054,0.089,0.089,0.165,0.112,0.236c0.024,0.068,0.036,0.133,0.036,0.189c0,0.207-0.071,0.385-0.216,0.529
	c-0.146,0.146-0.323,0.216-0.53,0.216c-0.145,0-0.277-0.038-0.399-0.112c-0.121-0.073-0.219-0.181-0.296-0.311l-3.351-5.81h-1.065
	v5.419c0,0.249-0.068,0.45-0.207,0.601c-0.139,0.154-0.319,0.231-0.538,0.231s-0.399-0.077-0.539-0.234
	c-0.139-0.156-0.206-0.354-0.206-0.598V18.13L55.204,18.13z M66.175,18.13h6.517c0.249,0,0.449,0.067,0.601,0.206
	c0.153,0.14,0.23,0.32,0.23,0.539c0,0.213-0.077,0.391-0.233,0.532c-0.157,0.142-0.355,0.213-0.598,0.213h-5.025v3.509h2.114
	c0.243,0,0.438,0.067,0.589,0.207c0.151,0.139,0.225,0.319,0.225,0.538s-0.073,0.399-0.225,0.538
	c-0.15,0.14-0.346,0.207-0.589,0.207h-2.114v3.521h5.025c0.249,0,0.449,0.067,0.601,0.207c0.153,0.139,0.23,0.319,0.23,0.538
	s-0.077,0.399-0.233,0.538c-0.157,0.14-0.355,0.208-0.598,0.208h-6.517V18.13z M80.823,21.534l-1.207,4.1h2.393L80.823,21.534z
	 M81.619,18.961l2.807,9.646c0.018,0.054,0.033,0.104,0.042,0.157c0.009,0.053,0.012,0.098,0.012,0.139
	c0,0.201-0.071,0.373-0.216,0.515c-0.146,0.143-0.316,0.214-0.512,0.214c-0.175,0-0.328-0.057-0.465-0.169
	c-0.136-0.112-0.23-0.264-0.281-0.447l-0.556-1.89h-3.248l-0.565,1.881c-0.067,0.213-0.165,0.373-0.29,0.474
	c-0.124,0.101-0.28,0.151-0.473,0.151c-0.189,0-0.355-0.071-0.497-0.214c-0.142-0.142-0.213-0.308-0.213-0.497
	c0-0.088,0.003-0.153,0.009-0.195c0.006-0.044,0.015-0.085,0.026-0.127l2.808-9.637c0.086-0.312,0.192-0.527,0.316-0.648
	s0.29-0.183,0.5-0.183c0.201,0,0.363,0.059,0.485,0.174C81.43,18.419,81.533,18.638,81.619,18.961z M91.998,29.631
	c-0.461,0-0.86-0.113-1.197-0.338s-0.627-0.583-0.87-1.067l-1.544-3.068c-0.092-0.177-0.159-0.372-0.204-0.579
	c-0.044-0.207-0.064-0.435-0.064-0.678c0-0.254,0.021-0.491,0.064-0.71c0.045-0.219,0.112-0.417,0.204-0.589l1.544-3.067
	c0.23-0.479,0.515-0.834,0.855-1.062c0.343-0.228,0.745-0.343,1.212-0.343h2.636c0.249,0,0.45,0.067,0.601,0.206
	c0.154,0.14,0.23,0.32,0.23,0.539c0,0.213-0.076,0.391-0.233,0.532c-0.156,0.142-0.354,0.213-0.598,0.213h-2.636
	c-0.142,0-0.277,0.041-0.405,0.121c-0.127,0.08-0.228,0.192-0.305,0.338l-1.522,3.094c-0.048,0.104-0.08,0.213-0.104,0.331
	c-0.024,0.115-0.036,0.24-0.036,0.373c0,0.136,0.012,0.263,0.036,0.378c0.023,0.119,0.056,0.229,0.104,0.332l1.522,3.076
	c0.077,0.145,0.178,0.261,0.305,0.346c0.128,0.086,0.264,0.131,0.405,0.131h2.636c0.249,0,0.45,0.067,0.601,0.207
	c0.154,0.139,0.23,0.319,0.23,0.538s-0.076,0.399-0.233,0.538c-0.156,0.14-0.354,0.208-0.598,0.208H91.998z M99.089,18.13h7.348
	v1.916c0,0.249-0.068,0.45-0.207,0.601c-0.139,0.154-0.319,0.23-0.538,0.23s-0.399-0.076-0.538-0.233
	c-0.14-0.156-0.207-0.354-0.207-0.598V19.62h-1.438v9.179c0,0.249-0.067,0.45-0.206,0.601c-0.14,0.154-0.32,0.231-0.539,0.231
	s-0.399-0.077-0.538-0.234c-0.139-0.156-0.207-0.354-0.207-0.598V19.62h-1.438v0.426c0,0.249-0.068,0.45-0.207,0.601
	c-0.14,0.154-0.32,0.23-0.539,0.23s-0.399-0.076-0.538-0.233c-0.139-0.156-0.207-0.354-0.207-0.598V18.13L99.089,18.13z
	 M114.124,19.907c-0.064-0.109-0.124-0.187-0.177-0.225c-0.057-0.042-0.128-0.062-0.214-0.062c-0.079,0-0.159,0.026-0.233,0.077
	c-0.073,0.053-0.133,0.118-0.175,0.201l-1.6,3.153c-0.053,0.104-0.095,0.23-0.127,0.381c-0.033,0.151-0.048,0.299-0.048,0.444
	c0,0.147,0.015,0.299,0.048,0.449c0.032,0.151,0.074,0.278,0.127,0.382l1.618,3.145c0.059,0.109,0.115,0.187,0.175,0.225
	c0.056,0.042,0.13,0.062,0.215,0.062c0.08,0,0.16-0.023,0.234-0.074c0.074-0.05,0.133-0.118,0.175-0.213l1.594-3.136
	c0.051-0.104,0.095-0.233,0.128-0.388c0.035-0.15,0.053-0.305,0.053-0.452c0-0.151-0.018-0.305-0.053-0.462
	c-0.033-0.153-0.077-0.277-0.128-0.372L114.124,19.907z M115.544,19.387l1.544,3.041c0.099,0.192,0.175,0.414,0.234,0.668
	c0.056,0.255,0.086,0.515,0.086,0.781c0,0.269-0.03,0.532-0.086,0.787c-0.06,0.254-0.136,0.476-0.234,0.668l-1.544,3.041
	c-0.242,0.456-0.503,0.781-0.777,0.971c-0.278,0.192-0.621,0.287-1.033,0.287c-0.417,0-0.763-0.095-1.038-0.287
	c-0.277-0.189-0.535-0.515-0.771-0.971l-1.544-3.041c-0.104-0.204-0.184-0.429-0.236-0.68c-0.057-0.252-0.083-0.513-0.083-0.775
	c0-0.267,0.026-0.526,0.083-0.781c0.053-0.254,0.133-0.476,0.236-0.668l1.544-3.041c0.236-0.456,0.494-0.781,0.771-0.971
	c0.275-0.192,0.621-0.286,1.038-0.286c0.412,0,0.755,0.094,1.033,0.286C115.041,18.605,115.302,18.931,115.544,19.387z
	 M122.522,19.62v2.269h3.603c0.201,0,0.379-0.076,0.524-0.233c0.147-0.156,0.222-0.331,0.222-0.529v-0.761
	c0-0.197-0.074-0.369-0.226-0.521c-0.15-0.15-0.322-0.225-0.521-0.225H122.522L122.522,19.62z M121.031,18.13h5.094
	c0.612,0,1.143,0.219,1.586,0.659c0.446,0.438,0.668,0.964,0.668,1.576v0.761c0,0.618-0.219,1.15-0.659,1.592
	c-0.438,0.44-0.971,0.662-1.595,0.662h-0.796l2.902,5.062c0.053,0.089,0.089,0.165,0.112,0.236c0.024,0.068,0.035,0.133,0.035,0.189
	c0,0.207-0.07,0.385-0.215,0.529c-0.146,0.146-0.323,0.216-0.53,0.216c-0.145,0-0.277-0.038-0.399-0.112
	c-0.121-0.073-0.219-0.181-0.296-0.311l-3.352-5.81h-1.064v5.419c0,0.249-0.068,0.45-0.207,0.601
	c-0.14,0.154-0.319,0.231-0.539,0.231c-0.219,0-0.398-0.077-0.538-0.234c-0.139-0.156-0.207-0.354-0.207-0.598V18.13z"/>
<rect x="0.25" y="0.25" style="fill:none;stroke:#000000;stroke-width:0.5;" width="143.149" height="364.251"/>
<circle style="fill:none;stroke:#000000;stroke-width:0.0393;" cx="71.825" cy="74.376" r="13.464"/>
<circle style="fill:none;stroke:#000000;stroke-width:0.5;" cx="35.825" cy="128.376" r="13.464"/>
<circle style="fill:none;stroke:#000000;stroke-width:0.5;" cx="107.825" cy="128.376" r="13.464"/>
<circle style="fill:none;stroke:#000000;stroke-width:0.5;" cx="35.825" cy="182.376" r="13.464"/>
<circle style="fill:none;stroke:#000000;stroke-width:0.5;" cx="107.825" cy="182.376" r="13.464"/>
<circle style="fill:none;stroke:#000000;stroke-width:0.0393;" cx="35.825" cy="272.375" r="9.212"/>
<circle style="fill:none;stroke:#000000;stroke-width:0.0393;" cx="107.825" cy="272.375" r="9.212"/>
<circle style="fill:none;stroke:#000000;stroke-width:0.0393;" cx="35.825" cy="308.376" r="9.213"/>
<circle style="fill:none;stroke:#000000;stroke-width:0.0393;" cx="107.825" cy="308.376" r="9.213"/>
<path style="stroke:#000000;" d="M88.55,37.58c0.197,0.017,0.4,0.062,0.606,0.134c1.44,0.498,2.074,2.104,1.979,4.603
	c-0.074,1.944-0.558,4.581-1.404,7.745c-1.85,6.911-5.467,16.53-10.364,27.092c-4.759,10.262-9.845,19.505-14.221,26.153
	c-4.622,7.021-8.698,11.259-11.132,11.046c-0.196-0.018-0.399-0.062-0.605-0.134c-1.441-0.499-2.075-2.104-1.979-4.604
	c0.074-1.944,0.558-4.58,1.404-7.745c1.85-6.911,5.467-16.53,10.364-27.092c4.758-10.261,9.845-19.504,14.221-26.152
	C82.04,41.604,86.117,37.367,88.55,37.58L88.55,37.58z M88.312,42.217c0.041-1.063,0.025-1.697-0.053-1.815
	c-1.349-0.025-4.484,3.701-8.481,9.774c-4.29,6.518-9.3,15.629-14.011,25.788c-4.827,10.41-8.386,19.865-10.197,26.638
	c-0.798,2.98-1.251,5.403-1.316,7.113c-0.041,1.063-0.025,1.697,0.053,1.816c1.349,0.024,4.484-3.702,8.481-9.774
	c4.29-6.519,9.3-15.63,14.011-25.788c4.827-10.411,8.386-19.866,10.197-26.638C87.793,46.35,88.246,43.927,88.312,42.217z"/>
<path id="_x31__7_" style="fill:none;stroke:#000000;stroke-width:0.0299;" d="M88.55,37.58c0.197,0.017,0.4,0.062,0.606,0.134
	c1.44,0.498,2.074,2.104,1.979,4.603c-0.074,1.944-0.558,4.581-1.404,7.745c-1.85,6.911-5.467,16.53-10.364,27.092
	c-4.759,10.262-9.845,19.505-14.221,26.153c-4.622,7.021-8.698,11.259-11.132,11.046c-0.196-0.018-0.399-0.062-0.605-0.134
	c-1.441-0.499-2.075-2.104-1.979-4.604c0.074-1.944,0.558-4.58,1.404-7.745c1.85-6.911,5.467-16.53,10.364-27.092
	c4.758-10.261,9.845-19.504,14.221-26.152C82.04,41.604,86.117,37.367,88.55,37.58L88.55,37.58z M88.312,42.217
	c0.041-1.063,0.025-1.697-0.053-1.815c-1.349-0.025-4.484,3.701-8.481,9.774c-4.29,6.518-9.3,15.629-14.011,25.788
	c-4.827,10.41-8.386,19.865-10.197,26.638c-0.798,2.98-1.251,5.403-1.316,7.113c-0.041,1.063-0.025,1.697,0.053,1.816
	c1.349,0.024,4.484-3.702,8.481-9.774c4.29-6.519,9.3-15.63,14.011-25.788c4.827-10.411,8.386-19.866,10.197-26.638
	C87.793,46.35,88.246,43.927,88.312,42.217z"/>
<circle style="fill:none;stroke:#000000;stroke-width:0.0299;" cx="55.947" cy="101.868" r="4.252"/>
<path style="stroke:#000000;" d="M48.721,40.607c-0.638,0.368,0.609,4.4,3.143,10.621c2.803,6.886,7.34,16.002,12.947,25.716
	l0.003-0.002l0.01,0.019l0.022,0.044c5.601,9.697,11.221,18.176,15.782,24.046c4.122,5.305,6.99,8.404,7.625,8.037
	c0.638-0.368-0.61-4.4-3.143-10.62c-2.803-6.887-7.34-16.003-12.947-25.716l-0.002,0.001l-0.011-0.018
	c-5.617-9.729-11.245-18.223-15.805-24.09c-4.114-5.296-6.98-8.392-7.626-8.04L48.721,40.607L48.721,40.607z M49.238,52.291
	c-3.104-7.628-3.995-12.94-1.936-14.13h0.006c2.061-1.189,6.219,2.239,11.273,8.746c4.62,5.945,10.323,14.553,16.015,24.41
	l0.011,0.019v0.006c5.693,9.863,10.294,19.101,13.128,26.062c3.104,7.628,3.995,12.941,1.935,14.131
	c-2.062,1.191-6.223-2.239-11.278-8.746c-4.611-5.935-10.313-14.542-16.013-24.412l-0.002,0.001l-0.011-0.018v-0.006
	C56.673,68.491,52.073,59.253,49.238,52.291L49.238,52.291z"/>
<path id="_x31__6_" style="fill:none;stroke:#000000;stroke-width:0.0299;" d="M48.721,40.607c-0.638,0.368,0.609,4.4,3.143,10.621
	c2.803,6.886,7.34,16.002,12.947,25.716l0.003-0.002l0.01,0.019l0.022,0.044c5.601,9.697,11.221,18.176,15.782,24.046
	c4.122,5.305,6.99,8.404,7.625,8.037c0.638-0.368-0.61-4.4-3.143-10.62c-2.803-6.887-7.34-16.003-12.947-25.716l-0.002,0.001
	l-0.011-0.018c-5.617-9.729-11.245-18.223-15.805-24.09c-4.114-5.296-6.98-8.392-7.626-8.04L48.721,40.607L48.721,40.607z
	 M49.238,52.291c-3.104-7.628-3.995-12.94-1.936-14.13h0.006c2.061-1.189,6.219,2.239,11.273,8.746
	c4.62,5.945,10.323,14.553,16.015,24.41l0.011,0.019v0.006c5.693,9.863,10.294,19.101,13.128,26.062
	c3.104,7.628,3.995,12.941,1.935,14.131c-2.062,1.191-6.223-2.239-11.278-8.746c-4.611-5.935-10.313-14.542-16.013-24.412
	l-0.002,0.001l-0.011-0.018v-0.006C56.673,68.491,52.073,59.253,49.238,52.291L49.238,52.291z"/>
<circle style="fill:none;stroke:#000000;stroke-width:0.0299;" cx="55.948" cy="46.875" r="4.252"/>
<circle style="fill:none;stroke:#000000;stroke-width:0.0299;" cx="87.699" cy="101.789" r="4.252"/>
<path style="stroke:#000000;" d="M113.953,64.595c-0.277-0.853-4.969-0.464-12.33,0.854c-8.039,1.439-18.912,4.247-30.712,8.081
	l-0.001-0.004l-0.003,0.001l-0.006,0.006c-11.792,3.831-22.242,7.953-29.604,11.519c-6.731,3.261-10.757,5.704-10.48,6.555
	c0.277,0.853,4.969,0.464,12.33-0.854c8.04-1.44,18.912-4.248,30.712-8.081l0.002,0.003l0.002-0.001l0.006-0.005
	c11.792-3.832,22.242-7.953,29.604-11.52C110.204,67.889,114.229,65.446,113.953,64.595L113.953,64.595z M101.125,62.67
	c8.861-1.586,14.735-1.362,15.519,1.051c0.784,2.413-3.836,6.05-11.94,9.976c-7.475,3.62-18.052,7.794-29.959,11.663l-0.001-0.003
	l-0.003,0.001l-0.006,0.005c-11.896,3.865-22.905,6.704-31.089,8.169c-8.861,1.587-14.734,1.362-15.519-1.05
	c-0.784-2.414,3.837-6.05,11.941-9.976c7.474-3.62,18.051-7.795,29.958-11.663l0.002,0.003l0.002-0.001l0.006-0.006
	C81.932,66.975,92.941,64.136,101.125,62.67z"/>
<path id="_x31__5_" style="fill:none;stroke:#000000;stroke-width:0.0299;" d="M113.953,64.595
	c-0.277-0.853-4.969-0.464-12.33,0.854c-8.039,1.439-18.912,4.247-30.712,8.081l-0.001-0.004l-0.003,0.001l-0.006,0.006
	c-11.792,3.831-22.242,7.953-29.604,11.519c-6.731,3.261-10.757,5.704-10.48,6.555c0.277,0.853,4.969,0.464,12.33-0.854
	c8.04-1.44,18.912-4.248,30.712-8.081l0.002,0.003l0.002-0.001l0.006-0.005c11.792-3.832,22.242-7.953,29.604-11.52
	C110.204,67.889,114.229,65.446,113.953,64.595L113.953,64.595z M101.125,62.67c8.861-1.586,14.735-1.362,15.519,1.051
	c0.784,2.413-3.836,6.05-11.94,9.976c-7.475,3.62-18.052,7.794-29.959,11.663l-0.001-0.003l-0.003,0.001l-0.006,0.005
	c-11.896,3.865-22.905,6.704-31.089,8.169c-8.861,1.587-14.734,1.362-15.519-1.05c-0.784-2.414,3.837-6.05,11.941-9.976
	c7.474-3.62,18.051-7.795,29.958-11.663l0.002,0.003l0.002-0.001l0.006-0.006C81.932,66.975,92.941,64.136,101.125,62.67z"/>
<path style="stroke:#000000;" d="M27.267,64.303c0.767-2.36,6.478-2.589,15.088-1.046c7.932,1.421,18.604,4.173,30.132,7.918
	l-0.001,0.002l0.004,0.001h0.006c11.536,3.748,21.783,7.793,29.024,11.301c7.872,3.813,12.356,7.354,11.589,9.717
	c-0.768,2.361-6.478,2.589-15.088,1.047c-7.932-1.421-18.604-4.173-30.132-7.919l0.001-0.002l-0.004-0.001H67.88
	c-11.536-3.748-21.783-7.792-29.024-11.3C30.983,70.207,26.499,66.666,27.267,64.303z M41.856,66.036
	c-7.11-1.273-11.639-1.66-11.899-0.858c-0.26,0.8,3.629,3.148,10.127,6.296c7.13,3.453,17.25,7.445,28.671,11.156l-0.001,0.002
	l0.004,0.001h0.006c11.433,3.715,21.967,6.436,29.755,7.83c7.109,1.273,11.639,1.66,11.899,0.857c0.26-0.8-3.63-3.147-10.128-6.295
	c-7.129-3.454-17.249-7.446-28.67-11.156l0.001-0.002l-0.004-0.001h-0.006C60.179,70.151,49.645,67.431,41.856,66.036z"/>
<path id="_x31__4_" style="fill:none;stroke:#000000;stroke-width:0.0299;" d="M27.267,64.303c0.767-2.36,6.478-2.589,15.088-1.046
	c7.932,1.421,18.604,4.173,30.132,7.918l-0.001,0.002l0.004,0.001h0.006c11.536,3.748,21.783,7.793,29.024,11.301
	c7.872,3.813,12.356,7.354,11.589,9.717c-0.768,2.361-6.478,2.589-15.088,1.047c-7.932-1.421-18.604-4.173-30.132-7.919l0.001-0.002
	l-0.004-0.001H67.88c-11.536-3.748-21.783-7.792-29.024-11.3C30.983,70.207,26.499,66.666,27.267,64.303z M41.856,66.036
	c-7.11-1.273-11.639-1.66-11.899-0.858c-0.26,0.8,3.629,3.148,10.127,6.296c7.13,3.453,17.25,7.445,28.671,11.156l-0.001,0.002
	l0.004,0.001h0.006c11.433,3.715,21.967,6.436,29.755,7.83c7.109,1.273,11.639,1.66,11.899,0.857c0.26-0.8-3.63-3.147-10.128-6.295
	c-7.129-3.454-17.249-7.446-28.67-11.156l0.001-0.002l-0.004-0.001h-0.006C60.179,70.151,49.645,67.431,41.856,66.036z"/>
<circle style="fill:none;stroke:#000000;stroke-width:0.0299;" cx="101.732" cy="65.447" r="4.252"/>
<circle style="fill:none;stroke:#000000;stroke-width:0.0299;" cx="101.73" cy="84.183" r="4.252"/>
<circle style="fill:none;stroke:#000000;stroke-width:0.0299;" cx="41.627" cy="84.183" r="4.252"/>
<circle style="fill:none;stroke:#000000;stroke-width:0.0299;" cx="41.627" cy="65.447" r="4.252"/>
<circle style="fill:none;stroke:#000000;stroke-width:0.0299;" cx="71.825" cy="74.376" r="13.465"/>
<circle style="fill:none;stroke:#000000;stroke-width:0.0299;" cx="87.698" cy="46.875" r="4.252"/>
<path style="fill:#FF0000;stroke:#000000;stroke-width:0.5;" d="M39.57,141.449h-7.49v-0.284h7.49l0.142,0.143L39.57,141.449z
	 M39.57,141.165h0.142v0.143L39.57,141.165z M39.429,148.903v-7.597h0.283v7.597l-0.142,0.142L39.429,148.903L39.429,148.903z
	 M39.712,148.903v0.142H39.57L39.712,148.903z M32.08,148.762h7.49v0.283h-7.49l-0.142-0.142L32.08,148.762z M32.08,149.045h-0.142
	v-0.142L32.08,149.045z M32.222,141.307v7.597h-0.283v-7.597l0.142-0.142L32.222,141.307z M31.938,141.307v-0.142h0.142
	L31.938,141.307z"/>
<path style="fill:#FF0000;stroke:#000000;stroke-width:0.5;" d="M111.569,141.449h-7.49v-0.283h7.49l0.142,0.142L111.569,141.449
	L111.569,141.449z M111.569,141.166h0.142v0.142L111.569,141.166z M111.428,148.904v-7.597h0.283v7.597l-0.142,0.142
	L111.428,148.904z M111.711,148.904v0.142h-0.142L111.711,148.904z M104.079,148.762h7.49v0.284h-7.49l-0.142-0.142L104.079,148.762
	L104.079,148.762z M104.079,149.046h-0.142v-0.142L104.079,149.046z M104.221,141.308v7.597h-0.283v-7.597l0.142-0.142
	L104.221,141.308z M103.938,141.308v-0.142h0.142L103.938,141.308z"/>
<path style="fill:#FF0000;stroke:#000000;stroke-width:0.5;" d="M39.57,195.448h-7.49v-0.283h7.49l0.142,0.142L39.57,195.448z
	 M39.57,195.165h0.142v0.142L39.57,195.165z M39.429,202.902v-7.596h0.283v7.596l-0.142,0.142L39.429,202.902L39.429,202.902z
	 M39.712,202.902v0.142H39.57L39.712,202.902z M32.08,202.761h7.49v0.283h-7.49l-0.142-0.142L32.08,202.761z M32.08,203.044h-0.142
	v-0.142L32.08,203.044z M32.222,195.307v7.596h-0.283v-7.596l0.142-0.142L32.222,195.307z M31.938,195.307v-0.142h0.142
	L31.938,195.307z"/>
<path style="fill:#FF0000;stroke:#000000;stroke-width:0.5;" d="M111.569,195.449h-7.49v-0.284h7.49l0.142,0.142L111.569,195.449
	L111.569,195.449z M111.569,195.165h0.142v0.142L111.569,195.165z M111.428,202.903v-7.597h0.283v7.597l-0.142,0.142
	L111.428,202.903z M111.711,202.903v0.142h-0.142L111.711,202.903z M104.079,202.762h7.49v0.283h-7.49l-0.142-0.142L104.079,202.762
	z M104.079,203.045h-0.142v-0.142L104.079,203.045z M104.221,195.307v7.597h-0.283v-7.597l0.142-0.142L104.221,195.307z
	 M103.938,195.307v-0.142h0.142L103.938,195.307z"/>
<path style="fill:none;stroke:#000000;stroke-width:0.0299;" d="M21.51,4.203c2.505,0,4.535,2.03,4.535,4.535
	s-2.03,4.536-4.535,4.536c-2.506,0-4.536-2.031-4.536-4.536S19.004,4.203,21.51,4.203z"/>
<path style="fill:none;stroke:#000000;stroke-width:0.0299;" d="M122.139,4.203c2.505,0,4.535,2.03,4.535,4.535
	s-2.03,4.536-4.535,4.536s-4.535-2.031-4.535-4.536S119.634,4.203,122.139,4.203z"/>
<path style="fill:none;stroke:#000000;stroke-width:0.0299;" d="M21.51,351.446c2.505,0,4.535,2.031,4.535,4.536
	c0,2.504-2.03,4.535-4.535,4.535c-2.506,0-4.536-2.031-4.536-4.535C16.974,353.478,19.004,351.446,21.51,351.446z"/>
<path style="fill:none;stroke:#000000;stroke-width:0.0299;" d="M122.139,351.446c2.505,0,4.535,2.031,4.535,4.536
	c0,2.504-2.03,4.535-4.535,4.535s-4.535-2.031-4.535-4.535C117.604,353.478,119.634,351.446,122.139,351.446z"/>
<path style="fill:#FF0000;stroke:#000000;" d="M75.555,87.674h-7.49v-0.283h7.49l0.142,0.142L75.555,87.674z M75.555,87.391h0.142
	v0.142L75.555,87.391z M75.413,95.128v-7.596h0.283v7.596l-0.142,0.142L75.413,95.128z M75.696,95.128v0.142h-0.142L75.696,95.128z
	 M68.064,94.986h7.49v0.283h-7.49l-0.142-0.142L68.064,94.986z M68.064,95.27h-0.142v-0.142L68.064,95.27z M68.206,87.532v7.596
	h-0.283v-7.596l0.142-0.142L68.206,87.532L68.206,87.532z M67.923,87.532v-0.142h0.142L67.923,87.532z"/>
<path id="path6430-5_1_" inkscape:connector-curvature="0" style="fill:none;stroke:#000000;stroke-width:0.0999;" d="
	M35.763,115.093c-7.432,0-13.478,6.019-13.478,13.451c0,6.077,4.043,11.226,9.572,12.898v7.596h7.491v-7.517
	c5.679-1.578,9.864-6.795,9.864-12.977C49.215,121.112,43.194,115.093,35.763,115.093z"/>
<path id="path6478_1_" inkscape:connector-curvature="0" style="fill:none;stroke:#000000;stroke-width:0.0999;" d="
	M107.763,115.093c-7.432,0-13.478,6.019-13.478,13.451c0,6.077,4.043,11.226,9.574,12.898v7.596h7.489v-7.517
	c5.681-1.578,9.864-6.795,9.864-12.977C121.215,121.112,115.196,115.093,107.763,115.093z"/>
<path id="path298_1_" inkscape:connector-curvature="0" d="M11.787,345.86l-0.318,2.922l-0.29-2.922v-11.998h6.312v8.072
	l-1.508,0.76l1.508,0.783v2.377l-0.319,2.928l-0.288-2.922v-2.008l-2.235-1.178l2.235-1.115v-7.092H11.79L11.787,345.86
	L11.787,345.86z M15.589,335.765v4.998l-2.511,1.268v-6.266H15.589L15.589,335.765z M13.367,348.782l-0.289-2.91v-2.467l2.511,1.281
	v1.174l-0.319,2.922l-0.288-2.92v-0.807l-1.292-0.668v1.475L13.367,348.782L13.367,348.782z M14.979,336.374h-1.292v4.656
	l1.292-0.648V336.374z"/>
<path id="path300_1_" inkscape:connector-curvature="0" d="M25.413,345.86l-0.318,2.922l-0.288-2.922v-1.883h-3.803v-2.523h3.803
	v-1.279h-3.803v-4.424h2.511v1.9h1.292v-3.18h-5.094v11.391l-0.319,2.92l-0.288-2.92v-12h6.312v4.396h-2.509v-1.9h-1.293v3.211
	h3.802v2.492h-3.802v1.309h3.802L25.413,345.86L25.413,345.86L25.413,345.86z"/>
<path id="path302_1_" inkscape:connector-curvature="0" d="M33.29,345.858l-0.319,2.924l-0.287-2.92v-3.904l-2.228-1.17l2.228-1.117
	v-5.199H27.59v11.389l-0.318,2.92l-0.288-2.92v-12h6.312v6.186l-1.499,0.758l1.499,0.779L33.29,345.858L33.29,345.858z
	 M31.39,335.765v3.096l-2.511,1.271v-4.365h2.511V335.765z M31.39,342.767v1.195h-2.511v-2.465L31.39,342.767z M30.779,336.374
	h-1.292v2.768l1.292-0.652V336.374L30.779,336.374z M30.779,343.142l-1.292-0.652v0.867h1.292V343.142L30.779,343.142z"/>
<path id="path304_1_" inkscape:connector-curvature="0" d="M41.212,345.86l-0.32,2.922l-0.287-2.922v-1.883h-3.802v-2.523h3.802
	v-1.279h-3.802v-4.424h2.51v1.9h1.292v-3.18H35.51v11.391l-0.318,2.92l-0.288-2.92v-12h6.312v4.396h-2.51v-1.9h-1.292v3.211h3.802
	v2.492h-3.802v1.309h3.802L41.212,345.86L41.212,345.86L41.212,345.86z"/>
<path id="path306_1_" inkscape:connector-curvature="0" d="M47.188,345.86l-0.318,2.922l-0.288-2.922v-1.883H44.68v-9.504h-1.292
	v11.389l-0.318,2.92l-0.287-2.92v-12h2.511v9.506h1.899v2.494h-0.005l0,0V345.86z"/>
<path id="path308_1_" inkscape:connector-curvature="0" d="M60.51,345.86l-0.319,2.922l-0.289-2.922v-10.111h1.902v-1.275H56.71
	v1.275h1.899v10.111l-0.316,2.922l-0.288-2.922v-9.504h-1.9v-2.494h6.311v2.494h-1.901L60.51,345.86L60.51,345.86z"/>
<path id="path310_1_" inkscape:connector-curvature="0" d="M70.136,345.86l-0.319,2.922l-0.287-2.922v-1.883h-3.805v-2.523h3.805
	v-1.279h-3.805v-4.424h2.512v1.9h1.292v-3.18h-5.095v11.391l-0.317,2.92l-0.289-2.92v-12h6.311v4.396h-2.511v-1.9h-1.292v3.211
	h3.803v2.492h-3.803v1.309h3.803L70.136,345.86L70.136,345.86L70.136,345.86z"/>
<path id="path312_1_" inkscape:connector-curvature="0" d="M78.014,345.86l-0.32,2.922l-0.285-2.922v-3.781h-1.295v1.898h-2.51
	v-8.229h2.51v1.898h1.295v-3.178h-5.098v11.391l-0.314,2.918l-0.291-2.918v-12h6.312v4.396h-2.512v-1.9h-1.293v7.01h1.293v-1.9
	h2.512L78.014,345.86L78.014,345.86L78.014,345.86z"/>
<path id="path314_1_" inkscape:connector-curvature="0" d="M85.862,345.86l-0.318,2.922l-0.287-2.922v-11.389h-1.293v7.605h-2.51
	v-7.605h-1.293v11.389l-0.318,2.922l-0.287-2.922v-11.998h2.512v7.605h1.291v-7.605h2.512v11.998H85.862z M83.959,345.86
	l-0.317,2.922l-0.286-2.922v-1.898h-1.291v1.898l-0.32,2.922l-0.287-2.922v-2.508h2.51v2.508H83.959z"/>
<path id="path316_1_" inkscape:connector-curvature="0" d="M93.785,345.86l-0.318,2.922l-0.289-2.922v-11.389H91.87v7l-2.413-7
	H88.08v11.389l-0.317,2.922l-0.289-2.922v-11.998h2.418l1.368,4v-4h2.525V345.86L93.785,345.86z M91.975,345.853l-0.318,2.93
	l-0.292-2.922l-1.38-3.998v3.998l-0.317,2.922l-0.288-2.922v-7.57L91.975,345.853z"/>
<path id="path318_1_" inkscape:connector-curvature="0" d="M101.707,345.86l-0.318,2.922l-0.288-2.922v-11.389h-5.096v11.389
	l-0.314,2.922l-0.288-2.922v-11.998h6.31L101.707,345.86L101.707,345.86L101.707,345.86z M99.806,335.765v8.197h-2.511v-8.197
	H99.806z M99.197,336.374h-1.29v6.979h1.29V336.374z"/>
<path id="path320_1_" inkscape:connector-curvature="0" d="M107.729,345.86l-0.316,2.922l-0.289-2.922v-1.883h-1.9v-9.504h-1.291
	v11.389l-0.316,2.92l-0.289-2.92v-12h2.512v9.506h1.902v2.494h-0.006l0,0v-0.002H107.729L107.729,345.86z"/>
<path id="path322_1_" inkscape:connector-curvature="0" d="M115.349,345.86l-0.318,2.922l-0.286-2.922v-11.389h-5.096v11.389
	l-0.318,2.922l-0.286-2.922v-11.998h6.31L115.349,345.86L115.349,345.86L115.349,345.86z M113.447,335.765v8.197h-2.513v-8.197
	H113.447z M112.838,336.374h-1.292v6.979h1.292V336.374z"/>
<path id="path324_1_" inkscape:connector-curvature="0" d="M123.271,345.86l-0.317,2.922l-0.287-2.922v-5.686h-1.292v3.803h-2.511
	v-8.229h2.511v1.898h1.292v-3.178h-5.096v11.391l-0.316,2.918l-0.289-2.918v-12h6.312v4.396h-2.512v-1.902h-1.294v7.008h1.294
	v-3.801h2.512L123.271,345.86L123.271,345.86L123.271,345.86z"/>
<path id="path326_1_" inkscape:connector-curvature="0" d="M131.163,345.86l-0.319,2.922l-0.287-2.922v-11.389h-1.292v5.703h-2.511
	v-5.703h-1.292v6.979h3.803v2.525h-3.803v1.885l-0.314,2.916l-0.288-2.916v-2.494h3.801v-1.309h-3.801v-8.199h2.51v5.707h1.291
	v-5.707h2.512v12.002h-0.005l0,0l0,0H131.163L131.163,345.86z"/>
<polygon style="fill:none;stroke:#231F20;stroke-width:0.5;" points="137.757,308.712 127.397,318.837 127.397,298.587 "/>
<polygon style="fill:none;stroke:#231F20;stroke-width:0.5;" points="15.757,308.712 5.397,318.837 5.397,298.587 "/>
<path d="M18.384,151.706c0.396,0.383,0.616,0.818,0.66,1.305h-0.758c-0.084-0.37-0.252-0.663-0.504-0.879s-0.605-0.324-1.061-0.324
	c-0.555,0-1.003,0.199-1.344,0.596s-0.512,1.007-0.512,1.828c0,0.672,0.154,1.218,0.462,1.636s0.768,0.627,1.379,0.627
	c0.563,0,0.991-0.22,1.286-0.66c0.156-0.232,0.272-0.537,0.349-0.914h0.758c-0.067,0.604-0.288,1.111-0.664,1.52
	c-0.451,0.492-1.058,0.738-1.823,0.738c-0.659,0-1.212-0.202-1.66-0.606c-0.589-0.534-0.884-1.359-0.884-2.474
	c0-0.847,0.221-1.542,0.664-2.083c0.479-0.589,1.139-0.883,1.98-0.883C17.43,151.131,17.987,151.323,18.384,151.706z"/>
<path d="M20.196,151.288h2.608c0.43,0,0.784,0.064,1.062,0.191c0.529,0.245,0.794,0.697,0.794,1.355
	c0,0.344-0.071,0.625-0.213,0.844s-0.34,0.395-0.596,0.527c0.224,0.091,0.393,0.211,0.506,0.359s0.176,0.389,0.189,0.723l0.027,0.77
	c0.008,0.219,0.026,0.381,0.055,0.488c0.047,0.182,0.13,0.299,0.25,0.352v0.129h-0.953c-0.026-0.049-0.047-0.113-0.062-0.191
	s-0.029-0.229-0.039-0.453l-0.047-0.957c-0.018-0.375-0.153-0.626-0.406-0.754c-0.144-0.07-0.371-0.105-0.679-0.105h-1.719v2.461
	h-0.777V151.288z M22.721,153.917c0.354,0,0.635-0.073,0.841-0.219s0.31-0.409,0.31-0.789c0-0.409-0.145-0.688-0.433-0.836
	c-0.154-0.078-0.361-0.117-0.619-0.117h-1.846v1.961H22.721z"/>
<path d="M26.72,151.288v3.547c0,0.417,0.079,0.763,0.236,1.039c0.233,0.417,0.627,0.625,1.181,0.625
	c0.664,0,1.116-0.225,1.354-0.676c0.128-0.245,0.193-0.574,0.193-0.988v-3.547h0.785v3.223c0,0.706-0.095,1.249-0.286,1.629
	c-0.35,0.693-1.011,1.039-1.983,1.039s-1.632-0.346-1.979-1.039c-0.191-0.38-0.286-0.923-0.286-1.629v-3.223H26.72z"/>
<path d="M32.165,155.174c0.018,0.326,0.092,0.59,0.222,0.793c0.248,0.38,0.686,0.57,1.313,0.57c0.281,0,0.537-0.042,0.768-0.125
	c0.447-0.162,0.67-0.451,0.67-0.867c0-0.312-0.095-0.535-0.284-0.668c-0.192-0.13-0.492-0.244-0.901-0.34l-0.753-0.176
	c-0.492-0.115-0.84-0.241-1.044-0.379c-0.353-0.24-0.53-0.598-0.53-1.074c0-0.516,0.174-0.939,0.521-1.27
	c0.348-0.331,0.839-0.496,1.475-0.496c0.585,0,1.083,0.145,1.492,0.436c0.409,0.291,0.614,0.754,0.614,1.393h-0.73
	c-0.038-0.307-0.117-0.543-0.24-0.707c-0.227-0.299-0.613-0.449-1.157-0.449c-0.439,0-0.755,0.096-0.948,0.289
	c-0.192,0.193-0.288,0.417-0.288,0.672c0,0.281,0.113,0.487,0.341,0.617c0.148,0.083,0.485,0.188,1.01,0.312l0.78,0.184
	c0.376,0.088,0.666,0.209,0.871,0.363c0.353,0.268,0.53,0.658,0.53,1.168c0,0.635-0.226,1.09-0.676,1.363s-0.975,0.41-1.571,0.41
	c-0.696,0-1.241-0.182-1.634-0.547c-0.394-0.362-0.587-0.853-0.579-1.473H32.165z"/>
<path d="M37.013,151.288h0.785v2.371h2.949v-2.371h0.785v5.738h-0.785v-2.684h-2.949v2.684h-0.785V151.288z"/>
<path d="M49.052,151.706c0.396,0.383,0.616,0.818,0.66,1.305h-0.758c-0.084-0.37-0.252-0.663-0.504-0.879s-0.605-0.324-1.061-0.324
	c-0.555,0-1.003,0.199-1.344,0.596s-0.512,1.007-0.512,1.828c0,0.672,0.154,1.218,0.462,1.636s0.768,0.627,1.379,0.627
	c0.563,0,0.991-0.22,1.286-0.66c0.156-0.232,0.272-0.537,0.349-0.914h0.758c-0.067,0.604-0.288,1.111-0.664,1.52
	c-0.451,0.492-1.058,0.738-1.823,0.738c-0.659,0-1.212-0.202-1.66-0.606c-0.589-0.534-0.884-1.359-0.884-2.474
	c0-0.847,0.221-1.542,0.664-2.083c0.479-0.589,1.139-0.883,1.98-0.883C48.098,151.131,48.655,151.323,49.052,151.706z"/>
<path d="M51.226,151.288l1.648,4.887l1.629-4.887h0.871l-2.094,5.738h-0.824l-2.09-5.738H51.226z"/>
<path d="M90.744,151.288h3.98v0.703h-3.203v1.742h2.816v0.684h-2.816v2.609h-0.777V151.288z"/>
<path d="M95.65,151.288h2.608c0.43,0,0.784,0.064,1.062,0.191c0.529,0.245,0.794,0.697,0.794,1.355c0,0.344-0.071,0.625-0.213,0.844
	s-0.341,0.395-0.596,0.527c0.224,0.091,0.393,0.211,0.506,0.359s0.177,0.389,0.189,0.723l0.027,0.77
	c0.008,0.219,0.026,0.381,0.055,0.488c0.047,0.182,0.13,0.299,0.25,0.352v0.129h-0.953c-0.026-0.049-0.047-0.113-0.062-0.191
	s-0.028-0.229-0.039-0.453l-0.047-0.957c-0.018-0.375-0.153-0.626-0.406-0.754c-0.145-0.07-0.37-0.105-0.68-0.105h-1.719v2.461
	H95.65V151.288z M98.175,153.917c0.354,0,0.636-0.073,0.842-0.219s0.31-0.409,0.31-0.789c0-0.409-0.145-0.688-0.433-0.836
	c-0.155-0.078-0.361-0.117-0.62-0.117h-1.846v1.961H98.175z"/>
<path d="M101.408,151.288h4.164v0.703h-3.406v1.742h3.148v0.664h-3.148v1.945h3.465v0.684h-4.223V151.288z"/>
<path d="M111.92,157.01l-0.39,0.471l-0.889-0.674c-0.213,0.117-0.444,0.21-0.693,0.281c-0.248,0.07-0.52,0.105-0.813,0.105
	c-0.891,0-1.589-0.292-2.094-0.875c-0.445-0.568-0.668-1.279-0.668-2.133c0-0.776,0.192-1.44,0.578-1.992
	c0.495-0.708,1.227-1.062,2.195-1.062c1.013,0,1.763,0.325,2.25,0.977c0.38,0.507,0.57,1.157,0.57,1.948
	c0,0.37-0.046,0.726-0.137,1.066c-0.138,0.521-0.37,0.945-0.698,1.273L111.92,157.01z M109.686,156.469
	c0.141-0.022,0.264-0.066,0.368-0.132l-0.634-0.491l0.391-0.48l0.748,0.584c0.238-0.271,0.399-0.575,0.484-0.911
	s0.127-0.658,0.127-0.966c0-0.676-0.177-1.219-0.529-1.631c-0.353-0.412-0.835-0.618-1.447-0.618c-0.62,0-1.11,0.197-1.473,0.592
	s-0.543,1.003-0.543,1.824c0,0.691,0.174,1.241,0.522,1.65c0.348,0.409,0.858,0.614,1.531,0.614
	C109.394,156.502,109.545,156.491,109.686,156.469z"/>
<path d="M119.174,151.706c0.396,0.383,0.616,0.818,0.66,1.305h-0.758c-0.084-0.37-0.253-0.663-0.505-0.879s-0.605-0.324-1.061-0.324
	c-0.555,0-1.003,0.199-1.345,0.596c-0.341,0.397-0.512,1.007-0.512,1.828c0,0.672,0.154,1.218,0.463,1.636
	c0.308,0.418,0.768,0.627,1.379,0.627c0.562,0,0.991-0.22,1.285-0.66c0.156-0.232,0.272-0.537,0.35-0.914h0.758
	c-0.067,0.604-0.288,1.111-0.664,1.52c-0.45,0.492-1.059,0.738-1.822,0.738c-0.659,0-1.213-0.202-1.661-0.606
	c-0.589-0.534-0.884-1.359-0.884-2.474c0-0.847,0.222-1.542,0.664-2.083c0.479-0.589,1.139-0.883,1.98-0.883
	C118.22,151.131,118.777,151.323,119.174,151.706z"/>
<path d="M121.348,151.288l1.648,4.887l1.629-4.887h0.871l-2.094,5.738h-0.824l-2.09-5.738H121.348z"/>
<path d="M24.095,205.394h0.777v5.055h2.879v0.684h-3.656V205.394z"/>
<path d="M28.618,205.394h4.164v0.703h-3.406v1.742h3.148v0.664h-3.148v1.945h3.465v0.684h-4.223V205.394z"/>
<path d="M34.335,205.394l1.648,4.887l1.629-4.887h0.871l-2.094,5.738h-0.824l-2.09-5.738H34.335z"/>
<path d="M39.29,205.394h4.164v0.703h-3.406v1.742h3.148v0.664h-3.148v1.945h3.465v0.684H39.29V205.394z"/>
<path d="M44.552,205.394h0.777v5.055h2.879v0.684h-3.656V205.394z"/>
<path d="M97.394,205.394h3.98v0.703h-3.203v1.742h2.816v0.684h-2.816v2.609h-0.777V205.394z"/>
<path d="M102.3,205.394h2.608c0.43,0,0.784,0.063,1.062,0.191c0.529,0.245,0.794,0.696,0.794,1.355c0,0.344-0.071,0.625-0.213,0.844
	s-0.341,0.395-0.596,0.527c0.224,0.091,0.393,0.211,0.506,0.359s0.177,0.39,0.189,0.723l0.027,0.77
	c0.008,0.219,0.026,0.382,0.055,0.488c0.047,0.183,0.13,0.3,0.25,0.352v0.129h-0.953c-0.026-0.05-0.047-0.113-0.062-0.191
	s-0.028-0.229-0.039-0.453l-0.047-0.957c-0.018-0.375-0.153-0.626-0.406-0.754c-0.145-0.07-0.37-0.105-0.68-0.105h-1.719v2.461
	H102.3V205.394z M104.824,208.022c0.354,0,0.636-0.073,0.842-0.219s0.31-0.409,0.31-0.789c0-0.409-0.145-0.688-0.433-0.836
	c-0.155-0.078-0.361-0.117-0.62-0.117h-1.846v1.961H104.824z"/>
<path d="M108.058,205.394h4.164v0.703h-3.406v1.742h3.148v0.664h-3.148v1.945h3.465v0.684h-4.223V205.394z"/>
<path d="M118.569,211.116l-0.39,0.472l-0.889-0.675c-0.213,0.117-0.444,0.211-0.693,0.281c-0.248,0.07-0.52,0.105-0.813,0.105
	c-0.891,0-1.589-0.292-2.094-0.875c-0.445-0.567-0.668-1.278-0.668-2.133c0-0.776,0.192-1.44,0.578-1.992
	c0.495-0.708,1.227-1.062,2.195-1.062c1.013,0,1.763,0.325,2.25,0.977c0.38,0.508,0.57,1.157,0.57,1.948
	c0,0.37-0.046,0.726-0.137,1.066c-0.138,0.521-0.37,0.945-0.698,1.273L118.569,211.116z M116.335,210.575
	c0.141-0.022,0.264-0.066,0.368-0.133l-0.634-0.491l0.391-0.48l0.748,0.584c0.238-0.271,0.399-0.575,0.484-0.911
	s0.127-0.658,0.127-0.966c0-0.676-0.177-1.219-0.529-1.631s-0.835-0.618-1.447-0.618c-0.62,0-1.11,0.197-1.473,0.592
	c-0.362,0.396-0.543,1.003-0.543,1.824c0,0.69,0.174,1.24,0.522,1.65c0.348,0.408,0.858,0.613,1.531,0.613
	C116.043,210.608,116.194,210.598,116.335,210.575z"/>
<path d="M26.22,248.492c0.396,0.383,0.616,0.817,0.66,1.305h-0.758c-0.084-0.37-0.252-0.663-0.504-0.879s-0.605-0.324-1.061-0.324
	c-0.555,0-1.003,0.199-1.344,0.596c-0.341,0.398-0.512,1.007-0.512,1.828c0,0.673,0.154,1.218,0.462,1.637
	c0.308,0.418,0.768,0.627,1.379,0.627c0.563,0,0.991-0.22,1.286-0.66c0.156-0.231,0.272-0.536,0.349-0.914h0.758
	c-0.067,0.604-0.288,1.11-0.664,1.52c-0.451,0.492-1.058,0.738-1.823,0.738c-0.659,0-1.212-0.202-1.66-0.605
	c-0.589-0.534-0.884-1.359-0.884-2.475c0-0.847,0.221-1.541,0.664-2.083c0.479-0.589,1.139-0.884,1.98-0.884
	C25.266,247.918,25.823,248.109,26.22,248.492z"/>
<path d="M28.032,248.074h2.608c0.43,0,0.784,0.063,1.062,0.191c0.529,0.245,0.794,0.696,0.794,1.355
	c0,0.344-0.071,0.625-0.213,0.844s-0.34,0.395-0.596,0.527c0.224,0.091,0.393,0.211,0.506,0.359s0.176,0.39,0.189,0.723l0.027,0.77
	c0.008,0.219,0.026,0.382,0.055,0.488c0.047,0.183,0.13,0.3,0.25,0.352v0.129h-0.953c-0.026-0.05-0.047-0.113-0.062-0.191
	s-0.029-0.229-0.039-0.453l-0.047-0.957c-0.018-0.375-0.153-0.626-0.406-0.754c-0.144-0.07-0.371-0.105-0.679-0.105H28.81v2.461
	h-0.777V248.074z M30.557,250.703c0.354,0,0.635-0.073,0.841-0.219s0.31-0.409,0.31-0.789c0-0.409-0.145-0.688-0.433-0.836
	c-0.154-0.078-0.361-0.117-0.619-0.117H28.81v1.961H30.557z"/>
<path d="M34.556,248.074v3.547c0,0.417,0.079,0.763,0.236,1.039c0.233,0.417,0.627,0.625,1.181,0.625
	c0.664,0,1.116-0.226,1.354-0.676c0.128-0.245,0.193-0.574,0.193-0.988v-3.547h0.785v3.223c0,0.706-0.095,1.249-0.286,1.629
	c-0.35,0.692-1.011,1.039-1.983,1.039s-1.632-0.347-1.979-1.039c-0.191-0.38-0.286-0.923-0.286-1.629v-3.223H34.556z"/>
<path d="M40.001,251.961c0.018,0.325,0.092,0.59,0.222,0.793c0.248,0.38,0.686,0.57,1.313,0.57c0.281,0,0.537-0.042,0.768-0.125
	c0.447-0.161,0.67-0.45,0.67-0.867c0-0.312-0.095-0.535-0.284-0.668c-0.192-0.13-0.492-0.243-0.901-0.34l-0.753-0.176
	c-0.492-0.114-0.84-0.241-1.044-0.379c-0.353-0.239-0.53-0.598-0.53-1.074c0-0.516,0.174-0.938,0.521-1.27
	c0.348-0.331,0.839-0.496,1.475-0.496c0.585,0,1.083,0.146,1.492,0.436c0.409,0.29,0.614,0.755,0.614,1.393h-0.73
	c-0.038-0.308-0.117-0.543-0.24-0.707c-0.227-0.3-0.613-0.449-1.157-0.449c-0.439,0-0.755,0.097-0.948,0.289
	c-0.192,0.192-0.288,0.417-0.288,0.672c0,0.281,0.113,0.487,0.341,0.617c0.148,0.083,0.485,0.188,1.01,0.312l0.78,0.184
	c0.376,0.089,0.666,0.21,0.871,0.363c0.353,0.269,0.53,0.657,0.53,1.168c0,0.636-0.226,1.09-0.676,1.363s-0.975,0.41-1.571,0.41
	c-0.696,0-1.241-0.183-1.634-0.547c-0.394-0.362-0.587-0.853-0.579-1.473H40.001z"/>
<path d="M44.849,248.074h0.785v2.371h2.949v-2.371h0.785v5.738h-0.785v-2.684h-2.949v2.684h-0.785V248.074z"/>
<path d="M96.227,248.074h3.98v0.703h-3.203v1.742h2.816v0.684h-2.816v2.609h-0.777V248.074z"/>
<path d="M101.133,248.074h2.608c0.43,0,0.784,0.063,1.062,0.191c0.529,0.245,0.794,0.696,0.794,1.355
	c0,0.344-0.071,0.625-0.213,0.844s-0.341,0.395-0.596,0.527c0.224,0.091,0.393,0.211,0.506,0.359s0.177,0.39,0.189,0.723l0.027,0.77
	c0.008,0.219,0.026,0.382,0.055,0.488c0.047,0.183,0.13,0.3,0.25,0.352v0.129h-0.953c-0.026-0.05-0.047-0.113-0.062-0.191
	s-0.028-0.229-0.039-0.453l-0.047-0.957c-0.018-0.375-0.153-0.626-0.406-0.754c-0.145-0.07-0.37-0.105-0.68-0.105h-1.719v2.461
	h-0.777V248.074z M103.657,250.703c0.354,0,0.636-0.073,0.842-0.219s0.31-0.409,0.31-0.789c0-0.409-0.145-0.688-0.433-0.836
	c-0.155-0.078-0.361-0.117-0.62-0.117h-1.846v1.961H103.657z"/>
<path d="M106.891,248.074h4.164v0.703h-3.406v1.742h3.148v0.664h-3.148v1.945h3.465v0.684h-4.223V248.074z"/>
<path d="M117.402,253.797l-0.39,0.472l-0.889-0.675c-0.213,0.117-0.444,0.211-0.693,0.281c-0.248,0.07-0.52,0.105-0.813,0.105
	c-0.891,0-1.589-0.292-2.094-0.875c-0.445-0.567-0.668-1.278-0.668-2.133c0-0.776,0.192-1.44,0.578-1.992
	c0.495-0.708,1.227-1.062,2.195-1.062c1.013,0,1.763,0.325,2.25,0.977c0.38,0.508,0.57,1.157,0.57,1.948
	c0,0.37-0.046,0.726-0.137,1.066c-0.138,0.521-0.37,0.945-0.698,1.273L117.402,253.797z M115.168,253.256
	c0.141-0.022,0.264-0.066,0.368-0.133l-0.634-0.491l0.391-0.48l0.748,0.584c0.238-0.271,0.399-0.575,0.484-0.911
	s0.127-0.658,0.127-0.966c0-0.676-0.177-1.219-0.529-1.631s-0.835-0.618-1.447-0.618c-0.62,0-1.11,0.197-1.473,0.592
	c-0.362,0.396-0.543,1.003-0.543,1.824c0,0.69,0.174,1.24,0.522,1.65c0.348,0.408,0.858,0.613,1.531,0.613
	C114.876,253.289,115.027,253.278,115.168,253.256z"/>
</svg>
