  0
SECTION
  2
HEADER
  9
$ACADVER
  1
AC1009
  9
$EXTMIN
 10
0.0
 20
0.0
 30
0.0
  9
$EXTMAX
 10
1000.0
 20
1000.0
 30
0.0
  9
$FILLMODE
 70
 0
  9
$SPLFRAME
 70
 1
  0
ENDSEC
  0
SECTION
  2
TABLES
  0
TABLE
  2
LAYER
 70
1
  0
LAYER
  2
0
 70
     0
 62
     7
  6
CONTINUOUS
  0
ENDTAB
  0
ENDSEC
  0
SECTION
  2
ENTITIES
  0
LINE
  8
0
 62
     0
 10
17.3413
 20
64.3407
 30
0.0
 11
17.2434
 21
65.2985
 31
0.0
  0
LINE
  8
0
 62
     0
 10
17.2434
 20
65.2985
 30
0.0
 11
16.9678
 21
66.1899
 31
0.0
  0
LINE
  8
0
 62
     0
 10
16.9678
 20
66.1899
 30
0.0
 11
16.5296
 21
66.996
 31
0.0
  0
LINE
  8
0
 62
     0
 10
16.5296
 20
66.996
 30
0.0
 11
15.9494
 21
67.7002
 31
0.0
  0
LINE
  8
0
 62
     0
 10
15.9494
 20
67.7002
 30
0.0
 11
15.2466
 21
68.2805
 31
0.0
  0
LINE
  8
0
 62
     0
 10
15.2466
 20
68.2805
 30
0.0
 11
14.4405
 21
68.7186
 31
0.0
  0
LINE
  8
0
 62
     0
 10
14.4405
 20
68.7186
 30
0.0
 11
13.5489
 21
68.9942
 31
0.0
  0
LINE
  8
0
 62
     0
 10
13.5489
 20
68.9942
 30
0.0
 11
12.5925
 21
69.0908
 31
0.0
  0
LINE
  8
0
 62
     0
 10
12.5925
 20
69.0908
 30
0.0
 11
11.6348
 21
68.9942
 31
0.0
  0
LINE
  8
0
 62
     0
 10
11.6348
 20
68.9942
 30
0.0
 11
10.7432
 21
68.7186
 31
0.0
  0
LINE
  8
0
 62
     0
 10
10.7432
 20
68.7186
 30
0.0
 11
9.93567
 21
68.2805
 31
0.0
  0
LINE
  8
0
 62
     0
 10
9.93567
 20
68.2805
 30
0.0
 11
9.23286
 21
67.7002
 31
0.0
  0
LINE
  8
0
 62
     0
 10
9.23286
 20
67.7002
 30
0.0
 11
8.65269
 21
66.996
 31
0.0
  0
LINE
  8
0
 62
     0
 10
8.65269
 20
66.996
 30
0.0
 11
8.2145
 21
66.1899
 31
0.0
  0
LINE
  8
0
 62
     0
 10
8.2145
 20
66.1899
 30
0.0
 11
7.93888
 21
65.2985
 31
0.0
  0
LINE
  8
0
 62
     0
 10
7.93888
 20
65.2985
 30
0.0
 11
7.84243
 21
64.3407
 31
0.0
  0
LINE
  8
0
 62
     0
 10
7.84243
 20
64.3407
 30
0.0
 11
8.12768
 21
62.7144
 31
0.0
  0
LINE
  8
0
 62
     0
 10
8.12768
 20
62.7144
 30
0.0
 11
8.91868
 21
61.3297
 31
0.0
  0
LINE
  8
0
 62
     0
 10
8.91868
 20
61.3297
 30
0.0
 11
10.1121
 21
60.289
 31
0.0
  0
LINE
  8
0
 62
     0
 10
10.1121
 20
60.289
 30
0.0
 11
11.61
 21
59.6925
 31
0.0
  0
LINE
  8
0
 62
     0
 10
11.61
 20
59.6925
 30
0.0
 11
11.61
 21
57.9025
 31
0.0
  0
LINE
  8
0
 62
     0
 10
11.61
 20
57.9025
 30
0.0
 11
13.6095
 21
57.9025
 31
0.0
  0
LINE
  8
0
 62
     0
 10
13.6095
 20
57.9025
 30
0.0
 11
13.6095
 21
59.7034
 31
0.0
  0
LINE
  8
0
 62
     0
 10
13.6095
 20
59.7034
 30
0.0
 11
15.0923
 21
60.3056
 31
0.0
  0
LINE
  8
0
 62
     0
 10
15.0923
 20
60.3056
 30
0.0
 11
16.2746
 21
61.3449
 31
0.0
  0
LINE
  8
0
 62
     0
 10
16.2746
 20
61.3449
 30
0.0
 11
17.0574
 21
62.7228
 31
0.0
  0
LINE
  8
0
 62
     0
 10
17.0574
 20
62.7228
 30
0.0
 11
17.3413
 21
64.3407
 31
0.0
  0
LINE
  8
0
 62
     0
 10
17.3523
 20
83.3684
 30
0.0
 11
17.2544
 21
84.3262
 31
0.0
  0
LINE
  8
0
 62
     0
 10
17.2544
 20
84.3262
 30
0.0
 11
16.9788
 21
85.2181
 31
0.0
  0
LINE
  8
0
 62
     0
 10
16.9788
 20
85.2181
 30
0.0
 11
16.5406
 21
86.0242
 31
0.0
  0
LINE
  8
0
 62
     0
 10
16.5406
 20
86.0242
 30
0.0
 11
15.9604
 21
86.7283
 31
0.0
  0
LINE
  8
0
 62
     0
 10
15.9604
 20
86.7283
 30
0.0
 11
15.2576
 21
87.3083
 31
0.0
  0
LINE
  8
0
 62
     0
 10
15.2576
 20
87.3083
 30
0.0
 11
14.4515
 21
87.7464
 31
0.0
  0
LINE
  8
0
 62
     0
 10
14.4515
 20
87.7464
 30
0.0
 11
13.5599
 21
88.0223
 31
0.0
  0
LINE
  8
0
 62
     0
 10
13.5599
 20
88.0223
 30
0.0
 11
12.6036
 21
88.1186
 31
0.0
  0
LINE
  8
0
 62
     0
 10
12.6036
 20
88.1186
 30
0.0
 11
11.6458
 21
88.0223
 31
0.0
  0
LINE
  8
0
 62
     0
 10
11.6458
 20
88.0223
 30
0.0
 11
10.7542
 21
87.7464
 31
0.0
  0
LINE
  8
0
 62
     0
 10
10.7542
 20
87.7464
 30
0.0
 11
9.94668
 21
87.3083
 31
0.0
  0
LINE
  8
0
 62
     0
 10
9.94668
 20
87.3083
 30
0.0
 11
9.24387
 21
86.7283
 31
0.0
  0
LINE
  8
0
 62
     0
 10
9.24387
 20
86.7283
 30
0.0
 11
8.66373
 21
86.0242
 31
0.0
  0
LINE
  8
0
 62
     0
 10
8.66373
 20
86.0242
 30
0.0
 11
8.22551
 21
85.2181
 31
0.0
  0
LINE
  8
0
 62
     0
 10
8.22551
 20
85.2181
 30
0.0
 11
7.94992
 21
84.3262
 31
0.0
  0
LINE
  8
0
 62
     0
 10
7.94992
 20
84.3262
 30
0.0
 11
7.85343
 21
83.3684
 31
0.0
  0
LINE
  8
0
 62
     0
 10
7.85343
 20
83.3684
 30
0.0
 11
8.13869
 21
81.7425
 31
0.0
  0
LINE
  8
0
 62
     0
 10
8.13869
 20
81.7425
 30
0.0
 11
8.92969
 21
80.3575
 31
0.0
  0
LINE
  8
0
 62
     0
 10
8.92969
 20
80.3575
 30
0.0
 11
10.1231
 21
79.3171
 31
0.0
  0
LINE
  8
0
 62
     0
 10
10.1231
 20
79.3171
 30
0.0
 11
11.621
 21
78.7217
 31
0.0
  0
LINE
  8
0
 62
     0
 10
11.621
 20
78.7217
 30
0.0
 11
11.621
 21
76.9303
 31
0.0
  0
LINE
  8
0
 62
     0
 10
11.621
 20
76.9303
 30
0.0
 11
13.6205
 21
76.9303
 31
0.0
  0
LINE
  8
0
 62
     0
 10
13.6205
 20
76.9303
 30
0.0
 11
13.6205
 21
78.7315
 31
0.0
  0
LINE
  8
0
 62
     0
 10
13.6205
 20
78.7315
 30
0.0
 11
15.1033
 21
79.3337
 31
0.0
  0
LINE
  8
0
 62
     0
 10
15.1033
 20
79.3337
 30
0.0
 11
16.2857
 21
80.3727
 31
0.0
  0
LINE
  8
0
 62
     0
 10
16.2857
 20
80.3727
 30
0.0
 11
17.0684
 21
81.7506
 31
0.0
  0
LINE
  8
0
 62
     0
 10
17.0684
 20
81.7506
 30
0.0
 11
17.3523
 21
83.3684
 31
0.0
  0
LINE
  8
0
 62
     0
 10
42.7496
 20
83.3684
 30
0.0
 11
42.6515
 21
84.3262
 31
0.0
  0
LINE
  8
0
 62
     0
 10
42.6515
 20
84.3262
 30
0.0
 11
42.376
 21
85.2181
 31
0.0
  0
LINE
  8
0
 62
     0
 10
42.376
 20
85.2181
 30
0.0
 11
41.9379
 21
86.0242
 31
0.0
  0
LINE
  8
0
 62
     0
 10
41.9379
 20
86.0242
 30
0.0
 11
41.3576
 21
86.7283
 31
0.0
  0
LINE
  8
0
 62
     0
 10
41.3576
 20
86.7283
 30
0.0
 11
40.6548
 21
87.3083
 31
0.0
  0
LINE
  8
0
 62
     0
 10
40.6548
 20
87.3083
 30
0.0
 11
39.8473
 21
87.7464
 31
0.0
  0
LINE
  8
0
 62
     0
 10
39.8473
 20
87.7464
 30
0.0
 11
38.9558
 21
88.0223
 31
0.0
  0
LINE
  8
0
 62
     0
 10
38.9558
 20
88.0223
 30
0.0
 11
37.9995
 21
88.1186
 31
0.0
  0
LINE
  8
0
 62
     0
 10
37.9995
 20
88.1186
 30
0.0
 11
37.0417
 21
88.0223
 31
0.0
  0
LINE
  8
0
 62
     0
 10
37.0417
 20
88.0223
 30
0.0
 11
36.1502
 21
87.7464
 31
0.0
  0
LINE
  8
0
 62
     0
 10
36.1502
 20
87.7464
 30
0.0
 11
35.3427
 21
87.3083
 31
0.0
  0
LINE
  8
0
 62
     0
 10
35.3427
 20
87.3083
 30
0.0
 11
34.6397
 21
86.7283
 31
0.0
  0
LINE
  8
0
 62
     0
 10
34.6397
 20
86.7283
 30
0.0
 11
34.0596
 21
86.0242
 31
0.0
  0
LINE
  8
0
 62
     0
 10
34.0596
 20
86.0242
 30
0.0
 11
33.6214
 21
85.2181
 31
0.0
  0
LINE
  8
0
 62
     0
 10
33.6214
 20
85.2181
 30
0.0
 11
33.3458
 21
84.3262
 31
0.0
  0
LINE
  8
0
 62
     0
 10
33.3458
 20
84.3262
 30
0.0
 11
33.2493
 21
83.3684
 31
0.0
  0
LINE
  8
0
 62
     0
 10
33.2493
 20
83.3684
 30
0.0
 11
33.5346
 21
81.7425
 31
0.0
  0
LINE
  8
0
 62
     0
 10
33.5346
 20
81.7425
 30
0.0
 11
34.3256
 21
80.3575
 31
0.0
  0
LINE
  8
0
 62
     0
 10
34.3256
 20
80.3575
 30
0.0
 11
35.5205
 21
79.3171
 31
0.0
  0
LINE
  8
0
 62
     0
 10
35.5205
 20
79.3171
 30
0.0
 11
37.0184
 21
78.7217
 31
0.0
  0
LINE
  8
0
 62
     0
 10
37.0184
 20
78.7217
 30
0.0
 11
37.0184
 21
76.9303
 31
0.0
  0
LINE
  8
0
 62
     0
 10
37.0184
 20
76.9303
 30
0.0
 11
39.0179
 21
76.9303
 31
0.0
  0
LINE
  8
0
 62
     0
 10
39.0179
 20
76.9303
 30
0.0
 11
39.0179
 21
78.7315
 31
0.0
  0
LINE
  8
0
 62
     0
 10
39.0179
 20
78.7315
 30
0.0
 11
40.5007
 21
79.3337
 31
0.0
  0
LINE
  8
0
 62
     0
 10
40.5007
 20
79.3337
 30
0.0
 11
41.6828
 21
80.3727
 31
0.0
  0
LINE
  8
0
 62
     0
 10
41.6828
 20
80.3727
 30
0.0
 11
42.4656
 21
81.7506
 31
0.0
  0
LINE
  8
0
 62
     0
 10
42.4656
 20
81.7506
 30
0.0
 11
42.7496
 21
83.3684
 31
0.0
  0
LINE
  8
0
 62
     0
 10
42.7383
 20
64.3407
 30
0.0
 11
42.6406
 21
65.2985
 31
0.0
  0
LINE
  8
0
 62
     0
 10
42.6406
 20
65.2985
 30
0.0
 11
42.3651
 21
66.1899
 31
0.0
  0
LINE
  8
0
 62
     0
 10
42.3651
 20
66.1899
 30
0.0
 11
41.9269
 21
66.996
 31
0.0
  0
LINE
  8
0
 62
     0
 10
41.9269
 20
66.996
 30
0.0
 11
41.3466
 21
67.6988
 31
0.0
  0
LINE
  8
0
 62
     0
 10
41.3466
 20
67.6988
 30
0.0
 11
40.6439
 21
68.2791
 31
0.0
  0
LINE
  8
0
 62
     0
 10
40.6439
 20
68.2791
 30
0.0
 11
39.8364
 21
68.7172
 31
0.0
  0
LINE
  8
0
 62
     0
 10
39.8364
 20
68.7172
 30
0.0
 11
38.9449
 21
68.9928
 31
0.0
  0
LINE
  8
0
 62
     0
 10
38.9449
 20
68.9928
 30
0.0
 11
37.9885
 21
69.0894
 31
0.0
  0
LINE
  8
0
 62
     0
 10
37.9885
 20
69.0894
 30
0.0
 11
37.0307
 21
68.9928
 31
0.0
  0
LINE
  8
0
 62
     0
 10
37.0307
 20
68.9928
 30
0.0
 11
36.1389
 21
68.7172
 31
0.0
  0
LINE
  8
0
 62
     0
 10
36.1389
 20
68.7172
 30
0.0
 11
35.3314
 21
68.2791
 31
0.0
  0
LINE
  8
0
 62
     0
 10
35.3314
 20
68.2791
 30
0.0
 11
34.6287
 21
67.6988
 31
0.0
  0
LINE
  8
0
 62
     0
 10
34.6287
 20
67.6988
 30
0.0
 11
34.0486
 21
66.996
 31
0.0
  0
LINE
  8
0
 62
     0
 10
34.0486
 20
66.996
 30
0.0
 11
33.6103
 21
66.1899
 31
0.0
  0
LINE
  8
0
 62
     0
 10
33.6103
 20
66.1899
 30
0.0
 11
33.3347
 21
65.2985
 31
0.0
  0
LINE
  8
0
 62
     0
 10
33.3347
 20
65.2985
 30
0.0
 11
33.2383
 21
64.3407
 31
0.0
  0
LINE
  8
0
 62
     0
 10
33.2383
 20
64.3407
 30
0.0
 11
33.5235
 21
62.7133
 31
0.0
  0
LINE
  8
0
 62
     0
 10
33.5235
 20
62.7133
 30
0.0
 11
34.3145
 21
61.3297
 31
0.0
  0
LINE
  8
0
 62
     0
 10
34.3145
 20
61.3297
 30
0.0
 11
35.5092
 21
60.289
 31
0.0
  0
LINE
  8
0
 62
     0
 10
35.5092
 20
60.289
 30
0.0
 11
37.0071
 21
59.6925
 31
0.0
  0
LINE
  8
0
 62
     0
 10
37.0071
 20
59.6925
 30
0.0
 11
37.0071
 21
57.9025
 31
0.0
  0
LINE
  8
0
 62
     0
 10
37.0071
 20
57.9025
 30
0.0
 11
39.0066
 21
57.9025
 31
0.0
  0
LINE
  8
0
 62
     0
 10
39.0066
 20
57.9025
 30
0.0
 11
39.0066
 21
59.702
 31
0.0
  0
LINE
  8
0
 62
     0
 10
39.0066
 20
59.702
 30
0.0
 11
40.4894
 21
60.3042
 31
0.0
  0
LINE
  8
0
 62
     0
 10
40.4894
 20
60.3042
 30
0.0
 11
41.6719
 21
61.3449
 31
0.0
  0
LINE
  8
0
 62
     0
 10
41.6719
 20
61.3449
 30
0.0
 11
42.4547
 21
62.7228
 31
0.0
  0
LINE
  8
0
 62
     0
 10
42.4547
 20
62.7228
 30
0.0
 11
42.7383
 21
64.3407
 31
0.0
  0
LINE
  8
0
 62
     0
 10
30.0495
 20
102.397
 30
0.0
 11
29.9516
 21
103.354
 31
0.0
  0
LINE
  8
0
 62
     0
 10
29.9516
 20
103.354
 30
0.0
 11
29.6761
 21
104.246
 31
0.0
  0
LINE
  8
0
 62
     0
 10
29.6761
 20
104.246
 30
0.0
 11
29.2378
 21
105.052
 31
0.0
  0
LINE
  8
0
 62
     0
 10
29.2378
 20
105.052
 30
0.0
 11
28.6577
 21
105.755
 31
0.0
  0
LINE
  8
0
 62
     0
 10
28.6577
 20
105.755
 30
0.0
 11
27.9549
 21
106.335
 31
0.0
  0
LINE
  8
0
 62
     0
 10
27.9549
 20
106.335
 30
0.0
 11
27.1473
 21
106.773
 31
0.0
  0
LINE
  8
0
 62
     0
 10
27.1473
 20
106.773
 30
0.0
 11
26.2558
 21
107.049
 31
0.0
  0
LINE
  8
0
 62
     0
 10
26.2558
 20
107.049
 30
0.0
 11
25.2994
 21
107.145
 31
0.0
  0
LINE
  8
0
 62
     0
 10
25.2994
 20
107.145
 30
0.0
 11
24.3417
 21
107.049
 31
0.0
  0
LINE
  8
0
 62
     0
 10
24.3417
 20
107.049
 30
0.0
 11
23.4501
 21
106.773
 31
0.0
  0
LINE
  8
0
 62
     0
 10
23.4501
 20
106.773
 30
0.0
 11
22.6425
 21
106.335
 31
0.0
  0
LINE
  8
0
 62
     0
 10
22.6425
 20
106.335
 30
0.0
 11
21.9397
 21
105.755
 31
0.0
  0
LINE
  8
0
 62
     0
 10
21.9397
 20
105.755
 30
0.0
 11
21.3596
 21
105.052
 31
0.0
  0
LINE
  8
0
 62
     0
 10
21.3596
 20
105.052
 30
0.0
 11
20.9214
 21
104.246
 31
0.0
  0
LINE
  8
0
 62
     0
 10
20.9214
 20
104.246
 30
0.0
 11
20.6458
 21
103.354
 31
0.0
  0
LINE
  8
0
 62
     0
 10
20.6458
 20
103.354
 30
0.0
 11
20.5493
 21
102.397
 31
0.0
  0
LINE
  8
0
 62
     0
 10
20.5493
 20
102.397
 30
0.0
 11
20.8346
 21
100.769
 31
0.0
  0
LINE
  8
0
 62
     0
 10
20.8346
 20
100.769
 30
0.0
 11
21.6256
 21
99.3856
 31
0.0
  0
LINE
  8
0
 62
     0
 10
21.6256
 20
99.3856
 30
0.0
 11
22.8203
 21
98.3449
 31
0.0
  0
LINE
  8
0
 62
     0
 10
22.8203
 20
98.3449
 30
0.0
 11
24.3169
 21
97.7498
 31
0.0
  0
LINE
  8
0
 62
     0
 10
24.3169
 20
97.7498
 30
0.0
 11
24.3169
 21
95.9584
 31
0.0
  0
LINE
  8
0
 62
     0
 10
24.3169
 20
95.9584
 30
0.0
 11
26.3178
 21
95.9584
 31
0.0
  0
LINE
  8
0
 62
     0
 10
26.3178
 20
95.9584
 30
0.0
 11
26.3178
 21
97.7579
 31
0.0
  0
LINE
  8
0
 62
     0
 10
26.3178
 20
97.7579
 30
0.0
 11
27.8005
 21
98.3601
 31
0.0
  0
LINE
  8
0
 62
     0
 10
27.8005
 20
98.3601
 30
0.0
 11
28.9829
 21
99.4008
 31
0.0
  0
LINE
  8
0
 62
     0
 10
28.9829
 20
99.4008
 30
0.0
 11
29.7656
 21
100.779
 31
0.0
  0
LINE
  8
0
 62
     0
 10
29.7656
 20
100.779
 30
0.0
 11
30.0495
 21
102.397
 31
0.0
  0
LINE
  8
0
 62
     0
 10
0.0496094
 20
128.546
 30
0.0
 11
50.5492
 21
128.546
 31
0.0
  0
LINE
  8
0
 62
     0
 10
50.5492
 20
128.546
 30
0.0
 11
50.5492
 21
0.0454752
 31
0.0
  0
LINE
  8
0
 62
     0
 10
50.5492
 20
0.0454752
 30
0.0
 11
0.0496094
 21
0.0454752
 31
0.0
  0
LINE
  8
0
 62
     0
 10
0.0496094
 20
0.0454752
 30
0.0
 11
0.0496094
 21
128.546
 31
0.0
  0
LINE
  8
0
 62
     0
 10
15.8488
 20
32.5465
 30
0.0
 11
15.5925
 21
31.2815
 31
0.0
  0
LINE
  8
0
 62
     0
 10
15.5925
 20
31.2815
 30
0.0
 11
14.8966
 21
30.2493
 31
0.0
  0
LINE
  8
0
 62
     0
 10
14.8966
 20
30.2493
 30
0.0
 11
13.8631
 21
29.5534
 31
0.0
  0
LINE
  8
0
 62
     0
 10
13.8631
 20
29.5534
 30
0.0
 11
12.5994
 21
29.2971
 31
0.0
  0
LINE
  8
0
 62
     0
 10
12.5994
 20
29.2971
 30
0.0
 11
11.3344
 21
29.5534
 31
0.0
  0
LINE
  8
0
 62
     0
 10
11.3344
 20
29.5534
 30
0.0
 11
10.3008
 21
30.2493
 31
0.0
  0
LINE
  8
0
 62
     0
 10
10.3008
 20
30.2493
 30
0.0
 11
9.60494
 21
31.2815
 31
0.0
  0
LINE
  8
0
 62
     0
 10
9.60494
 20
31.2815
 30
0.0
 11
9.34999
 21
32.5465
 31
0.0
  0
LINE
  8
0
 62
     0
 10
9.34999
 20
32.5465
 30
0.0
 11
9.60494
 21
33.8116
 31
0.0
  0
LINE
  8
0
 62
     0
 10
9.60494
 20
33.8116
 30
0.0
 11
10.3008
 21
34.8451
 31
0.0
  0
LINE
  8
0
 62
     0
 10
10.3008
 20
34.8451
 30
0.0
 11
11.3344
 21
35.541
 31
0.0
  0
LINE
  8
0
 62
     0
 10
11.3344
 20
35.541
 30
0.0
 11
12.5994
 21
35.796
 31
0.0
  0
LINE
  8
0
 62
     0
 10
12.5994
 20
35.796
 30
0.0
 11
13.8631
 21
35.541
 31
0.0
  0
LINE
  8
0
 62
     0
 10
13.8631
 20
35.541
 30
0.0
 11
14.8966
 21
34.8451
 31
0.0
  0
LINE
  8
0
 62
     0
 10
14.8966
 20
34.8451
 30
0.0
 11
15.5925
 21
33.8116
 31
0.0
  0
LINE
  8
0
 62
     0
 10
15.5925
 20
33.8116
 30
0.0
 11
15.8488
 21
32.5465
 31
0.0
  0
LINE
  8
0
 62
     0
 10
41.2503
 20
32.5465
 30
0.0
 11
40.9938
 21
31.2815
 31
0.0
  0
LINE
  8
0
 62
     0
 10
40.9938
 20
31.2815
 30
0.0
 11
40.2978
 21
30.2493
 31
0.0
  0
LINE
  8
0
 62
     0
 10
40.2978
 20
30.2493
 30
0.0
 11
39.2645
 21
29.5534
 31
0.0
  0
LINE
  8
0
 62
     0
 10
39.2645
 20
29.5534
 30
0.0
 11
37.9995
 21
29.2971
 31
0.0
  0
LINE
  8
0
 62
     0
 10
37.9995
 20
29.2971
 30
0.0
 11
36.7344
 21
29.5534
 31
0.0
  0
LINE
  8
0
 62
     0
 10
36.7344
 20
29.5534
 30
0.0
 11
35.7008
 21
30.2493
 31
0.0
  0
LINE
  8
0
 62
     0
 10
35.7008
 20
30.2493
 30
0.0
 11
35.0049
 21
31.2815
 31
0.0
  0
LINE
  8
0
 62
     0
 10
35.0049
 20
31.2815
 30
0.0
 11
34.75
 21
32.5465
 31
0.0
  0
LINE
  8
0
 62
     0
 10
34.75
 20
32.5465
 30
0.0
 11
35.0049
 21
33.8116
 31
0.0
  0
LINE
  8
0
 62
     0
 10
35.0049
 20
33.8116
 30
0.0
 11
35.7008
 21
34.8451
 31
0.0
  0
LINE
  8
0
 62
     0
 10
35.7008
 20
34.8451
 30
0.0
 11
36.7344
 21
35.541
 31
0.0
  0
LINE
  8
0
 62
     0
 10
36.7344
 20
35.541
 30
0.0
 11
37.9995
 21
35.796
 31
0.0
  0
LINE
  8
0
 62
     0
 10
37.9995
 20
35.796
 30
0.0
 11
39.2645
 21
35.541
 31
0.0
  0
LINE
  8
0
 62
     0
 10
39.2645
 20
35.541
 30
0.0
 11
40.2978
 21
34.8451
 31
0.0
  0
LINE
  8
0
 62
     0
 10
40.2978
 20
34.8451
 30
0.0
 11
40.9938
 21
33.8116
 31
0.0
  0
LINE
  8
0
 62
     0
 10
40.9938
 20
33.8116
 30
0.0
 11
41.2503
 21
32.5465
 31
0.0
  0
LINE
  8
0
 62
     0
 10
15.8502
 20
19.8465
 30
0.0
 11
15.5939
 21
18.5815
 31
0.0
  0
LINE
  8
0
 62
     0
 10
15.5939
 20
18.5815
 30
0.0
 11
14.898
 21
17.5479
 31
0.0
  0
LINE
  8
0
 62
     0
 10
14.898
 20
17.5479
 30
0.0
 11
13.8644
 21
16.852
 31
0.0
  0
LINE
  8
0
 62
     0
 10
13.8644
 20
16.852
 30
0.0
 11
12.5994
 21
16.5957
 31
0.0
  0
LINE
  8
0
 62
     0
 10
12.5994
 20
16.5957
 30
0.0
 11
11.333
 21
16.852
 31
0.0
  0
LINE
  8
0
 62
     0
 10
11.333
 20
16.852
 30
0.0
 11
10.2995
 21
17.5479
 31
0.0
  0
LINE
  8
0
 62
     0
 10
10.2995
 20
17.5479
 30
0.0
 11
9.60356
 21
18.5815
 31
0.0
  0
LINE
  8
0
 62
     0
 10
9.60356
 20
18.5815
 30
0.0
 11
9.34861
 21
19.8465
 31
0.0
  0
LINE
  8
0
 62
     0
 10
9.34861
 20
19.8465
 30
0.0
 11
9.60356
 21
21.1116
 31
0.0
  0
LINE
  8
0
 62
     0
 10
9.60356
 20
21.1116
 30
0.0
 11
10.2995
 21
22.1451
 31
0.0
  0
LINE
  8
0
 62
     0
 10
10.2995
 20
22.1451
 30
0.0
 11
11.333
 21
22.841
 31
0.0
  0
LINE
  8
0
 62
     0
 10
11.333
 20
22.841
 30
0.0
 11
12.5994
 21
23.0959
 31
0.0
  0
LINE
  8
0
 62
     0
 10
12.5994
 20
23.0959
 30
0.0
 11
13.8644
 21
22.841
 31
0.0
  0
LINE
  8
0
 62
     0
 10
13.8644
 20
22.841
 30
0.0
 11
14.898
 21
22.1451
 31
0.0
  0
LINE
  8
0
 62
     0
 10
14.898
 20
22.1451
 30
0.0
 11
15.5939
 21
21.1116
 31
0.0
  0
LINE
  8
0
 62
     0
 10
15.5939
 20
21.1116
 30
0.0
 11
15.8502
 21
19.8465
 31
0.0
  0
LINE
  8
0
 62
     0
 10
41.2503
 20
19.8465
 30
0.0
 11
40.9938
 21
18.5815
 31
0.0
  0
LINE
  8
0
 62
     0
 10
40.9938
 20
18.5815
 30
0.0
 11
40.2978
 21
17.5479
 31
0.0
  0
LINE
  8
0
 62
     0
 10
40.2978
 20
17.5479
 30
0.0
 11
39.2645
 21
16.852
 31
0.0
  0
LINE
  8
0
 62
     0
 10
39.2645
 20
16.852
 30
0.0
 11
37.9995
 21
16.5957
 31
0.0
  0
LINE
  8
0
 62
     0
 10
37.9995
 20
16.5957
 30
0.0
 11
36.7344
 21
16.852
 31
0.0
  0
LINE
  8
0
 62
     0
 10
36.7344
 20
16.852
 30
0.0
 11
35.7008
 21
17.5479
 31
0.0
  0
LINE
  8
0
 62
     0
 10
35.7008
 20
17.5479
 30
0.0
 11
35.0049
 21
18.5815
 31
0.0
  0
LINE
  8
0
 62
     0
 10
35.0049
 20
18.5815
 30
0.0
 11
34.75
 21
19.8465
 31
0.0
  0
LINE
  8
0
 62
     0
 10
34.75
 20
19.8465
 30
0.0
 11
35.0049
 21
21.1116
 31
0.0
  0
LINE
  8
0
 62
     0
 10
35.0049
 20
21.1116
 30
0.0
 11
35.7008
 21
22.1451
 31
0.0
  0
LINE
  8
0
 62
     0
 10
35.7008
 20
22.1451
 30
0.0
 11
36.7344
 21
22.841
 31
0.0
  0
LINE
  8
0
 62
     0
 10
36.7344
 20
22.841
 30
0.0
 11
37.9995
 21
23.0959
 31
0.0
  0
LINE
  8
0
 62
     0
 10
37.9995
 20
23.0959
 30
0.0
 11
39.2645
 21
22.841
 31
0.0
  0
LINE
  8
0
 62
     0
 10
39.2645
 20
22.841
 30
0.0
 11
40.2978
 21
22.1451
 31
0.0
  0
LINE
  8
0
 62
     0
 10
40.2978
 20
22.1451
 30
0.0
 11
40.9938
 21
21.1116
 31
0.0
  0
LINE
  8
0
 62
     0
 10
40.9938
 20
21.1116
 30
0.0
 11
41.2503
 21
19.8465
 31
0.0
  0
LINE
  8
0
 62
     0
 10
21.248
 20
92.698
 30
0.0
 11
21.1253
 21
92.0944
 31
0.0
  0
LINE
  8
0
 62
     0
 10
21.1253
 20
92.0944
 30
0.0
 11
20.7932
 21
91.6023
 31
0.0
  0
LINE
  8
0
 62
     0
 10
20.7932
 20
91.6023
 30
0.0
 11
20.3013
 21
91.2703
 31
0.0
  0
LINE
  8
0
 62
     0
 10
20.3013
 20
91.2703
 30
0.0
 11
19.6977
 21
91.1475
 31
0.0
  0
LINE
  8
0
 62
     0
 10
19.6977
 20
91.1475
 30
0.0
 11
19.0941
 21
91.2703
 31
0.0
  0
LINE
  8
0
 62
     0
 10
19.0941
 20
91.2703
 30
0.0
 11
18.6008
 21
91.6023
 31
0.0
  0
LINE
  8
0
 62
     0
 10
18.6008
 20
91.6023
 30
0.0
 11
18.2687
 21
92.0944
 31
0.0
  0
LINE
  8
0
 62
     0
 10
18.2687
 20
92.0944
 30
0.0
 11
18.1474
 21
92.698
 31
0.0
  0
LINE
  8
0
 62
     0
 10
18.1474
 20
92.698
 30
0.0
 11
18.2687
 21
93.3016
 31
0.0
  0
LINE
  8
0
 62
     0
 10
18.2687
 20
93.3016
 30
0.0
 11
18.6008
 21
93.7948
 31
0.0
  0
LINE
  8
0
 62
     0
 10
18.6008
 20
93.7948
 30
0.0
 11
19.0941
 21
94.1268
 31
0.0
  0
LINE
  8
0
 62
     0
 10
19.0941
 20
94.1268
 30
0.0
 11
19.6977
 21
94.2481
 31
0.0
  0
LINE
  8
0
 62
     0
 10
19.6977
 20
94.2481
 30
0.0
 11
20.3013
 21
94.1268
 31
0.0
  0
LINE
  8
0
 62
     0
 10
20.3013
 20
94.1268
 30
0.0
 11
20.7932
 21
93.7948
 31
0.0
  0
LINE
  8
0
 62
     0
 10
20.7932
 20
93.7948
 30
0.0
 11
21.1253
 21
93.3016
 31
0.0
  0
LINE
  8
0
 62
     0
 10
21.1253
 20
93.3016
 30
0.0
 11
21.248
 21
92.698
 31
0.0
  0
LINE
  8
0
 62
     0
 10
21.248
 20
112.098
 30
0.0
 11
21.1253
 21
111.496
 31
0.0
  0
LINE
  8
0
 62
     0
 10
21.1253
 20
111.496
 30
0.0
 11
20.7932
 21
111.002
 31
0.0
  0
LINE
  8
0
 62
     0
 10
20.7932
 20
111.002
 30
0.0
 11
20.3013
 21
110.67
 31
0.0
  0
LINE
  8
0
 62
     0
 10
20.3013
 20
110.67
 30
0.0
 11
19.699
 21
110.548
 31
0.0
  0
LINE
  8
0
 62
     0
 10
19.699
 20
110.548
 30
0.0
 11
19.0941
 21
110.67
 31
0.0
  0
LINE
  8
0
 62
     0
 10
19.0941
 20
110.67
 30
0.0
 11
18.6021
 21
111.002
 31
0.0
  0
LINE
  8
0
 62
     0
 10
18.6021
 20
111.002
 30
0.0
 11
18.27
 21
111.496
 31
0.0
  0
LINE
  8
0
 62
     0
 10
18.27
 20
111.496
 30
0.0
 11
18.1488
 21
112.098
 31
0.0
  0
LINE
  8
0
 62
     0
 10
18.1488
 20
112.098
 30
0.0
 11
18.27
 21
112.702
 31
0.0
  0
LINE
  8
0
 62
     0
 10
18.27
 20
112.702
 30
0.0
 11
18.6021
 21
113.195
 31
0.0
  0
LINE
  8
0
 62
     0
 10
18.6021
 20
113.195
 30
0.0
 11
19.0941
 21
113.527
 31
0.0
  0
LINE
  8
0
 62
     0
 10
19.0941
 20
113.527
 30
0.0
 11
19.699
 21
113.648
 31
0.0
  0
LINE
  8
0
 62
     0
 10
19.699
 20
113.648
 30
0.0
 11
20.3013
 21
113.527
 31
0.0
  0
LINE
  8
0
 62
     0
 10
20.3013
 20
113.527
 30
0.0
 11
20.7932
 21
113.195
 31
0.0
  0
LINE
  8
0
 62
     0
 10
20.7932
 20
113.195
 30
0.0
 11
21.1253
 21
112.702
 31
0.0
  0
LINE
  8
0
 62
     0
 10
21.1253
 20
112.702
 30
0.0
 11
21.248
 21
112.098
 31
0.0
  0
LINE
  8
0
 62
     0
 10
32.4501
 20
92.7255
 30
0.0
 11
32.3274
 21
92.1233
 31
0.0
  0
LINE
  8
0
 62
     0
 10
32.3274
 20
92.1233
 30
0.0
 11
31.9953
 21
91.6298
 31
0.0
  0
LINE
  8
0
 62
     0
 10
31.9953
 20
91.6298
 30
0.0
 11
31.502
 21
91.2978
 31
0.0
  0
LINE
  8
0
 62
     0
 10
31.502
 20
91.2978
 30
0.0
 11
30.8997
 21
91.1751
 31
0.0
  0
LINE
  8
0
 62
     0
 10
30.8997
 20
91.1751
 30
0.0
 11
30.2962
 21
91.2978
 31
0.0
  0
LINE
  8
0
 62
     0
 10
30.2962
 20
91.2978
 30
0.0
 11
29.8028
 21
91.6298
 31
0.0
  0
LINE
  8
0
 62
     0
 10
29.8028
 20
91.6298
 30
0.0
 11
29.4707
 21
92.1233
 31
0.0
  0
LINE
  8
0
 62
     0
 10
29.4707
 20
92.1233
 30
0.0
 11
29.3495
 21
92.7255
 31
0.0
  0
LINE
  8
0
 62
     0
 10
29.3495
 20
92.7255
 30
0.0
 11
29.4707
 21
93.3291
 31
0.0
  0
LINE
  8
0
 62
     0
 10
29.4707
 20
93.3291
 30
0.0
 11
29.8028
 21
93.8223
 31
0.0
  0
LINE
  8
0
 62
     0
 10
29.8028
 20
93.8223
 30
0.0
 11
30.2962
 21
94.1546
 31
0.0
  0
LINE
  8
0
 62
     0
 10
30.2962
 20
94.1546
 30
0.0
 11
30.8997
 21
94.2756
 31
0.0
  0
LINE
  8
0
 62
     0
 10
30.8997
 20
94.2756
 30
0.0
 11
31.502
 21
94.1546
 31
0.0
  0
LINE
  8
0
 62
     0
 10
31.502
 20
94.1546
 30
0.0
 11
31.9953
 21
93.8223
 31
0.0
  0
LINE
  8
0
 62
     0
 10
31.9953
 20
93.8223
 30
0.0
 11
32.3274
 21
93.3291
 31
0.0
  0
LINE
  8
0
 62
     0
 10
32.3274
 20
93.3291
 30
0.0
 11
32.4501
 21
92.7255
 31
0.0
  0
LINE
  8
0
 62
     0
 10
37.4001
 20
105.545
 30
0.0
 11
37.2773
 21
104.943
 31
0.0
  0
LINE
  8
0
 62
     0
 10
37.2773
 20
104.943
 30
0.0
 11
36.9454
 21
104.451
 31
0.0
  0
LINE
  8
0
 62
     0
 10
36.9454
 20
104.451
 30
0.0
 11
36.4532
 21
104.119
 31
0.0
  0
LINE
  8
0
 62
     0
 10
36.4532
 20
104.119
 30
0.0
 11
35.8496
 21
103.996
 31
0.0
  0
LINE
  8
0
 62
     0
 10
35.8496
 20
103.996
 30
0.0
 11
35.2461
 21
104.119
 31
0.0
  0
LINE
  8
0
 62
     0
 10
35.2461
 20
104.119
 30
0.0
 11
34.7541
 21
104.451
 31
0.0
  0
LINE
  8
0
 62
     0
 10
34.7541
 20
104.451
 30
0.0
 11
34.422
 21
104.943
 31
0.0
  0
LINE
  8
0
 62
     0
 10
34.422
 20
104.943
 30
0.0
 11
34.3008
 21
105.545
 31
0.0
  0
LINE
  8
0
 62
     0
 10
34.3008
 20
105.545
 30
0.0
 11
34.422
 21
106.15
 31
0.0
  0
LINE
  8
0
 62
     0
 10
34.422
 20
106.15
 30
0.0
 11
34.7541
 21
106.642
 31
0.0
  0
LINE
  8
0
 62
     0
 10
34.7541
 20
106.642
 30
0.0
 11
35.2461
 21
106.974
 31
0.0
  0
LINE
  8
0
 62
     0
 10
35.2461
 20
106.974
 30
0.0
 11
35.8496
 21
107.096
 31
0.0
  0
LINE
  8
0
 62
     0
 10
35.8496
 20
107.096
 30
0.0
 11
36.4532
 21
106.974
 31
0.0
  0
LINE
  8
0
 62
     0
 10
36.4532
 20
106.974
 30
0.0
 11
36.9454
 21
106.642
 31
0.0
  0
LINE
  8
0
 62
     0
 10
36.9454
 20
106.642
 30
0.0
 11
37.2773
 21
106.15
 31
0.0
  0
LINE
  8
0
 62
     0
 10
37.2773
 20
106.15
 30
0.0
 11
37.4001
 21
105.545
 31
0.0
  0
LINE
  8
0
 62
     0
 10
37.4001
 20
98.9362
 30
0.0
 11
37.2773
 21
98.334
 31
0.0
  0
LINE
  8
0
 62
     0
 10
37.2773
 20
98.334
 30
0.0
 11
36.9454
 21
97.8408
 31
0.0
  0
LINE
  8
0
 62
     0
 10
36.9454
 20
97.8408
 30
0.0
 11
36.4518
 21
97.5085
 31
0.0
  0
LINE
  8
0
 62
     0
 10
36.4518
 20
97.5085
 30
0.0
 11
35.8496
 21
97.3861
 31
0.0
  0
LINE
  8
0
 62
     0
 10
35.8496
 20
97.3861
 30
0.0
 11
35.2461
 21
97.5085
 31
0.0
  0
LINE
  8
0
 62
     0
 10
35.2461
 20
97.5085
 30
0.0
 11
34.7527
 21
97.8408
 31
0.0
  0
LINE
  8
0
 62
     0
 10
34.7527
 20
97.8408
 30
0.0
 11
34.4206
 21
98.334
 31
0.0
  0
LINE
  8
0
 62
     0
 10
34.4206
 20
98.334
 30
0.0
 11
34.2994
 21
98.9362
 31
0.0
  0
LINE
  8
0
 62
     0
 10
34.2994
 20
98.9362
 30
0.0
 11
34.4206
 21
99.5398
 31
0.0
  0
LINE
  8
0
 62
     0
 10
34.4206
 20
99.5398
 30
0.0
 11
34.7527
 21
100.033
 31
0.0
  0
LINE
  8
0
 62
     0
 10
34.7527
 20
100.033
 30
0.0
 11
35.2461
 21
100.365
 31
0.0
  0
LINE
  8
0
 62
     0
 10
35.2461
 20
100.365
 30
0.0
 11
35.8496
 21
100.487
 31
0.0
  0
LINE
  8
0
 62
     0
 10
35.8496
 20
100.487
 30
0.0
 11
36.4518
 21
100.365
 31
0.0
  0
LINE
  8
0
 62
     0
 10
36.4518
 20
100.365
 30
0.0
 11
36.9454
 21
100.033
 31
0.0
  0
LINE
  8
0
 62
     0
 10
36.9454
 20
100.033
 30
0.0
 11
37.2773
 21
99.5398
 31
0.0
  0
LINE
  8
0
 62
     0
 10
37.2773
 20
99.5398
 30
0.0
 11
37.4001
 21
98.9362
 31
0.0
  0
LINE
  8
0
 62
     0
 10
16.1961
 20
98.9362
 30
0.0
 11
16.0734
 21
98.334
 31
0.0
  0
LINE
  8
0
 62
     0
 10
16.0734
 20
98.334
 30
0.0
 11
15.7413
 21
97.8408
 31
0.0
  0
LINE
  8
0
 62
     0
 10
15.7413
 20
97.8408
 30
0.0
 11
15.2494
 21
97.5085
 31
0.0
  0
LINE
  8
0
 62
     0
 10
15.2494
 20
97.5085
 30
0.0
 11
14.6458
 21
97.3861
 31
0.0
  0
LINE
  8
0
 62
     0
 10
14.6458
 20
97.3861
 30
0.0
 11
14.0422
 21
97.5085
 31
0.0
  0
LINE
  8
0
 62
     0
 10
14.0422
 20
97.5085
 30
0.0
 11
13.5489
 21
97.8408
 31
0.0
  0
LINE
  8
0
 62
     0
 10
13.5489
 20
97.8408
 30
0.0
 11
13.2167
 21
98.334
 31
0.0
  0
LINE
  8
0
 62
     0
 10
13.2167
 20
98.334
 30
0.0
 11
13.0955
 21
98.9362
 31
0.0
  0
LINE
  8
0
 62
     0
 10
13.0955
 20
98.9362
 30
0.0
 11
13.2167
 21
99.5398
 31
0.0
  0
LINE
  8
0
 62
     0
 10
13.2167
 20
99.5398
 30
0.0
 11
13.5489
 21
100.033
 31
0.0
  0
LINE
  8
0
 62
     0
 10
13.5489
 20
100.033
 30
0.0
 11
14.0422
 21
100.365
 31
0.0
  0
LINE
  8
0
 62
     0
 10
14.0422
 20
100.365
 30
0.0
 11
14.6458
 21
100.487
 31
0.0
  0
LINE
  8
0
 62
     0
 10
14.6458
 20
100.487
 30
0.0
 11
15.2494
 21
100.365
 31
0.0
  0
LINE
  8
0
 62
     0
 10
15.2494
 20
100.365
 30
0.0
 11
15.7413
 21
100.033
 31
0.0
  0
LINE
  8
0
 62
     0
 10
15.7413
 20
100.033
 30
0.0
 11
16.0734
 21
99.5398
 31
0.0
  0
LINE
  8
0
 62
     0
 10
16.0734
 20
99.5398
 30
0.0
 11
16.1961
 21
98.9362
 31
0.0
  0
LINE
  8
0
 62
     0
 10
16.1961
 20
105.545
 30
0.0
 11
16.0734
 21
104.943
 31
0.0
  0
LINE
  8
0
 62
     0
 10
16.0734
 20
104.943
 30
0.0
 11
15.7413
 21
104.451
 31
0.0
  0
LINE
  8
0
 62
     0
 10
15.7413
 20
104.451
 30
0.0
 11
15.2494
 21
104.119
 31
0.0
  0
LINE
  8
0
 62
     0
 10
15.2494
 20
104.119
 30
0.0
 11
14.6458
 21
103.996
 31
0.0
  0
LINE
  8
0
 62
     0
 10
14.6458
 20
103.996
 30
0.0
 11
14.0422
 21
104.119
 31
0.0
  0
LINE
  8
0
 62
     0
 10
14.0422
 20
104.119
 30
0.0
 11
13.5489
 21
104.451
 31
0.0
  0
LINE
  8
0
 62
     0
 10
13.5489
 20
104.451
 30
0.0
 11
13.2167
 21
104.943
 31
0.0
  0
LINE
  8
0
 62
     0
 10
13.2167
 20
104.943
 30
0.0
 11
13.0955
 21
105.545
 31
0.0
  0
LINE
  8
0
 62
     0
 10
13.0955
 20
105.545
 30
0.0
 11
13.2167
 21
106.15
 31
0.0
  0
LINE
  8
0
 62
     0
 10
13.2167
 20
106.15
 30
0.0
 11
13.5489
 21
106.642
 31
0.0
  0
LINE
  8
0
 62
     0
 10
13.5489
 20
106.642
 30
0.0
 11
14.0422
 21
106.974
 31
0.0
  0
LINE
  8
0
 62
     0
 10
14.0422
 20
106.974
 30
0.0
 11
14.6458
 21
107.096
 31
0.0
  0
LINE
  8
0
 62
     0
 10
14.6458
 20
107.096
 30
0.0
 11
15.2494
 21
106.974
 31
0.0
  0
LINE
  8
0
 62
     0
 10
15.2494
 20
106.974
 30
0.0
 11
15.7413
 21
106.642
 31
0.0
  0
LINE
  8
0
 62
     0
 10
15.7413
 20
106.642
 30
0.0
 11
16.0734
 21
106.15
 31
0.0
  0
LINE
  8
0
 62
     0
 10
16.0734
 20
106.15
 30
0.0
 11
16.1961
 21
105.545
 31
0.0
  0
LINE
  8
0
 62
     0
 10
32.4487
 20
112.098
 30
0.0
 11
32.326
 21
111.496
 31
0.0
  0
LINE
  8
0
 62
     0
 10
32.326
 20
111.496
 30
0.0
 11
31.9939
 21
111.002
 31
0.0
  0
LINE
  8
0
 62
     0
 10
31.9939
 20
111.002
 30
0.0
 11
31.502
 21
110.67
 31
0.0
  0
LINE
  8
0
 62
     0
 10
31.502
 20
110.67
 30
0.0
 11
30.8984
 21
110.548
 31
0.0
  0
LINE
  8
0
 62
     0
 10
30.8984
 20
110.548
 30
0.0
 11
30.2948
 21
110.67
 31
0.0
  0
LINE
  8
0
 62
     0
 10
30.2948
 20
110.67
 30
0.0
 11
29.8028
 21
111.002
 31
0.0
  0
LINE
  8
0
 62
     0
 10
29.8028
 20
111.002
 30
0.0
 11
29.4707
 21
111.496
 31
0.0
  0
LINE
  8
0
 62
     0
 10
29.4707
 20
111.496
 30
0.0
 11
29.3495
 21
112.098
 31
0.0
  0
LINE
  8
0
 62
     0
 10
29.3495
 20
112.098
 30
0.0
 11
29.4707
 21
112.702
 31
0.0
  0
LINE
  8
0
 62
     0
 10
29.4707
 20
112.702
 30
0.0
 11
29.8028
 21
113.195
 31
0.0
  0
LINE
  8
0
 62
     0
 10
29.8028
 20
113.195
 30
0.0
 11
30.2948
 21
113.527
 31
0.0
  0
LINE
  8
0
 62
     0
 10
30.2948
 20
113.527
 30
0.0
 11
30.8984
 21
113.648
 31
0.0
  0
LINE
  8
0
 62
     0
 10
30.8984
 20
113.648
 30
0.0
 11
31.502
 21
113.527
 31
0.0
  0
LINE
  8
0
 62
     0
 10
31.502
 20
113.527
 30
0.0
 11
31.9939
 21
113.195
 31
0.0
  0
LINE
  8
0
 62
     0
 10
31.9939
 20
113.195
 30
0.0
 11
32.326
 21
112.702
 31
0.0
  0
LINE
  8
0
 62
     0
 10
32.326
 20
112.702
 30
0.0
 11
32.4487
 21
112.098
 31
0.0
  0
LINE
  8
0
 62
     0
 10
7.54888
 20
127.201
 30
0.0
 11
8.19108
 21
127.072
 31
0.0
  0
LINE
  8
0
 62
     0
 10
8.19108
 20
127.072
 30
0.0
 11
8.71608
 21
126.719
 31
0.0
  0
LINE
  8
0
 62
     0
 10
8.71608
 20
126.719
 30
0.0
 11
9.06886
 21
126.194
 31
0.0
  0
LINE
  8
0
 62
     0
 10
9.06886
 20
126.194
 30
0.0
 11
9.19977
 21
125.552
 31
0.0
  0
LINE
  8
0
 62
     0
 10
9.19977
 20
125.552
 30
0.0
 11
9.06886
 21
124.909
 31
0.0
  0
LINE
  8
0
 62
     0
 10
9.06886
 20
124.909
 30
0.0
 11
8.71608
 21
124.386
 31
0.0
  0
LINE
  8
0
 62
     0
 10
8.71608
 20
124.386
 30
0.0
 11
8.19108
 21
124.032
 31
0.0
  0
LINE
  8
0
 62
     0
 10
8.19108
 20
124.032
 30
0.0
 11
7.54888
 21
123.901
 31
0.0
  0
LINE
  8
0
 62
     0
 10
7.54888
 20
123.901
 30
0.0
 11
6.90672
 21
124.032
 31
0.0
  0
LINE
  8
0
 62
     0
 10
6.90672
 20
124.032
 30
0.0
 11
6.38168
 21
124.385
 31
0.0
  0
LINE
  8
0
 62
     0
 10
6.38168
 20
124.385
 30
0.0
 11
6.0289
 21
124.909
 31
0.0
  0
LINE
  8
0
 62
     0
 10
6.0289
 20
124.909
 30
0.0
 11
5.8994
 21
125.552
 31
0.0
  0
LINE
  8
0
 62
     0
 10
5.8994
 20
125.552
 30
0.0
 11
6.0289
 21
126.194
 31
0.0
  0
LINE
  8
0
 62
     0
 10
6.0289
 20
126.194
 30
0.0
 11
6.38168
 21
126.719
 31
0.0
  0
LINE
  8
0
 62
     0
 10
6.38168
 20
126.719
 30
0.0
 11
6.90672
 21
127.072
 31
0.0
  0
LINE
  8
0
 62
     0
 10
6.90672
 20
127.072
 30
0.0
 11
7.54888
 21
127.201
 31
0.0
  0
LINE
  8
0
 62
     0
 10
43.0498
 20
127.201
 30
0.0
 11
43.6908
 21
127.072
 31
0.0
  0
LINE
  8
0
 62
     0
 10
43.6908
 20
127.072
 30
0.0
 11
44.2158
 21
126.719
 31
0.0
  0
LINE
  8
0
 62
     0
 10
44.2158
 20
126.719
 30
0.0
 11
44.5685
 21
126.194
 31
0.0
  0
LINE
  8
0
 62
     0
 10
44.5685
 20
126.194
 30
0.0
 11
44.6994
 21
125.552
 31
0.0
  0
LINE
  8
0
 62
     0
 10
44.6994
 20
125.552
 30
0.0
 11
44.5685
 21
124.909
 31
0.0
  0
LINE
  8
0
 62
     0
 10
44.5685
 20
124.909
 30
0.0
 11
44.2158
 21
124.385
 31
0.0
  0
LINE
  8
0
 62
     0
 10
44.2158
 20
124.385
 30
0.0
 11
43.6908
 21
124.032
 31
0.0
  0
LINE
  8
0
 62
     0
 10
43.6908
 20
124.032
 30
0.0
 11
43.0498
 21
123.901
 31
0.0
  0
LINE
  8
0
 62
     0
 10
43.0498
 20
123.901
 30
0.0
 11
42.4064
 21
124.032
 31
0.0
  0
LINE
  8
0
 62
     0
 10
42.4064
 20
124.032
 30
0.0
 11
41.8828
 21
124.385
 31
0.0
  0
LINE
  8
0
 62
     0
 10
41.8828
 20
124.385
 30
0.0
 11
41.5286
 21
124.909
 31
0.0
  0
LINE
  8
0
 62
     0
 10
41.5286
 20
124.909
 30
0.0
 11
41.3992
 21
125.552
 31
0.0
  0
LINE
  8
0
 62
     0
 10
41.3992
 20
125.552
 30
0.0
 11
41.5286
 21
126.194
 31
0.0
  0
LINE
  8
0
 62
     0
 10
41.5286
 20
126.194
 30
0.0
 11
41.8828
 21
126.719
 31
0.0
  0
LINE
  8
0
 62
     0
 10
41.8828
 20
126.719
 30
0.0
 11
42.4064
 21
127.072
 31
0.0
  0
LINE
  8
0
 62
     0
 10
42.4064
 20
127.072
 30
0.0
 11
43.0498
 21
127.201
 31
0.0
  0
LINE
  8
0
 62
     0
 10
7.54888
 20
4.70186
 30
0.0
 11
8.19108
 21
4.57232
 31
0.0
  0
LINE
  8
0
 62
     0
 10
8.19108
 20
4.57232
 30
0.0
 11
8.7147
 21
4.21954
 31
0.0
  0
LINE
  8
0
 62
     0
 10
8.7147
 20
4.21954
 30
0.0
 11
9.06886
 21
3.69454
 31
0.0
  0
LINE
  8
0
 62
     0
 10
9.06886
 20
3.69454
 30
0.0
 11
9.1984
 21
3.05098
 31
0.0
  0
LINE
  8
0
 62
     0
 10
9.1984
 20
3.05098
 30
0.0
 11
9.06886
 21
2.41019
 31
0.0
  0
LINE
  8
0
 62
     0
 10
9.06886
 20
2.41019
 30
0.0
 11
8.7147
 21
1.88516
 31
0.0
  0
LINE
  8
0
 62
     0
 10
8.7147
 20
1.88516
 30
0.0
 11
8.19108
 21
1.53238
 31
0.0
  0
LINE
  8
0
 62
     0
 10
8.19108
 20
1.53238
 30
0.0
 11
7.54888
 21
1.40147
 31
0.0
  0
LINE
  8
0
 62
     0
 10
7.54888
 20
1.40147
 30
0.0
 11
6.90672
 21
1.53238
 31
0.0
  0
LINE
  8
0
 62
     0
 10
6.90672
 20
1.53238
 30
0.0
 11
6.38168
 21
1.88516
 31
0.0
  0
LINE
  8
0
 62
     0
 10
6.38168
 20
1.88516
 30
0.0
 11
6.0289
 21
2.41019
 31
0.0
  0
LINE
  8
0
 62
     0
 10
6.0289
 20
2.41019
 30
0.0
 11
5.8994
 21
3.05098
 31
0.0
  0
LINE
  8
0
 62
     0
 10
5.8994
 20
3.05098
 30
0.0
 11
6.0289
 21
3.69454
 31
0.0
  0
LINE
  8
0
 62
     0
 10
6.0289
 20
3.69454
 30
0.0
 11
6.38168
 21
4.21816
 31
0.0
  0
LINE
  8
0
 62
     0
 10
6.38168
 20
4.21816
 30
0.0
 11
6.90672
 21
4.57232
 31
0.0
  0
LINE
  8
0
 62
     0
 10
6.90672
 20
4.57232
 30
0.0
 11
7.54888
 21
4.70186
 31
0.0
  0
LINE
  8
0
 62
     0
 10
43.0498
 20
4.70186
 30
0.0
 11
43.6908
 21
4.57232
 31
0.0
  0
LINE
  8
0
 62
     0
 10
43.6908
 20
4.57232
 30
0.0
 11
44.2158
 21
4.21954
 31
0.0
  0
LINE
  8
0
 62
     0
 10
44.2158
 20
4.21954
 30
0.0
 11
44.5685
 21
3.69454
 31
0.0
  0
LINE
  8
0
 62
     0
 10
44.5685
 20
3.69454
 30
0.0
 11
44.6994
 21
3.05098
 31
0.0
  0
LINE
  8
0
 62
     0
 10
44.6994
 20
3.05098
 30
0.0
 11
44.5685
 21
2.41019
 31
0.0
  0
LINE
  8
0
 62
     0
 10
44.5685
 20
2.41019
 30
0.0
 11
44.2158
 21
1.88516
 31
0.0
  0
LINE
  8
0
 62
     0
 10
44.2158
 20
1.88516
 30
0.0
 11
43.6908
 21
1.53238
 31
0.0
  0
LINE
  8
0
 62
     0
 10
43.6908
 20
1.53238
 30
0.0
 11
43.0498
 21
1.40147
 31
0.0
  0
LINE
  8
0
 62
     0
 10
43.0498
 20
1.40147
 30
0.0
 11
42.4064
 21
1.53238
 31
0.0
  0
LINE
  8
0
 62
     0
 10
42.4064
 20
1.53238
 30
0.0
 11
41.8828
 21
1.88516
 31
0.0
  0
LINE
  8
0
 62
     0
 10
41.8828
 20
1.88516
 30
0.0
 11
41.5286
 21
2.41019
 31
0.0
  0
LINE
  8
0
 62
     0
 10
41.5286
 20
2.41019
 30
0.0
 11
41.4002
 21
3.05098
 31
0.0
  0
LINE
  8
0
 62
     0
 10
41.4002
 20
3.05098
 30
0.0
 11
41.5286
 21
3.69454
 31
0.0
  0
LINE
  8
0
 62
     0
 10
41.5286
 20
3.69454
 30
0.0
 11
41.8828
 21
4.21816
 31
0.0
  0
LINE
  8
0
 62
     0
 10
41.8828
 20
4.21816
 30
0.0
 11
42.4064
 21
4.57232
 31
0.0
  0
LINE
  8
0
 62
     0
 10
42.4064
 20
4.57232
 30
0.0
 11
43.0498
 21
4.70186
 31
0.0
  0
ENDSEC
  0
EOF
