<?xml version="1.0" encoding="UTF-8" standalone="no"?>
<svg
   xmlns:dc="http://purl.org/dc/elements/1.1/"
   xmlns:cc="http://creativecommons.org/ns#"
   xmlns:rdf="http://www.w3.org/1999/02/22-rdf-syntax-ns#"
   xmlns:svg="http://www.w3.org/2000/svg"
   xmlns="http://www.w3.org/2000/svg"
   xmlns:sodipodi="http://sodipodi.sourceforge.net/DTD/sodipodi-0.dtd"
   xmlns:inkscape="http://www.inkscape.org/namespaces/inkscape"
   version="1.1"
   width="210mm"
   height="297mm"
   viewBox="0 0 210 297"
   id="svg3461"
   inkscape:version="0.48.4 r9939"
   sodipodi:docname="Tesseract-proto.svg">
  <metadata
     id="metadata3703">
    <rdf:RDF>
      <cc:Work
         rdf:about="">
        <dc:format>image/svg+xml</dc:format>
        <dc:type
           rdf:resource="http://purl.org/dc/dcmitype/StillImage" />
        <dc:title />
      </cc:Work>
    </rdf:RDF>
  </metadata>
  <sodipodi:namedview
     id="base"
     inkscape:document-units="mm"
     units="mm"
     showgrid="false"
     inkscape:zoom="2.4206235"
     inkscape:cx="251.00764"
     inkscape:cy="913.61859"
     inkscape:window-width="1680"
     inkscape:window-height="1002"
     inkscape:window-x="0"
     inkscape:window-y="0"
     inkscape:window-maximized="1"
     inkscape:current-layer="g3467" />
  <defs
     id="defs3464">
    <g
       id="potgrading" />
    <sodipodi:namedview
       units="mm"
       id="base-7"
       inkscape:window-maximized="1"
       showgrid="false"
       inkscape:document-units="mm"
       inkscape:zoom="1.2685914"
       inkscape:cx="167.81717"
       inkscape:cy="824.33003"
       inkscape:window-width="1280"
       inkscape:window-height="974"
       inkscape:window-x="0"
       inkscape:window-y="0"
       inkscape:current-layer="svg5197" />
  </defs>
  <g
     style="fill:none;stroke-width:0.05;stroke:#ff0000"
     id="g3467">
    <rect
       x="0.0"
       y="0.0"
       width="60.60"
       height="128.50"
       id="rect3469" />
    <circle
       cx="7.5"
       cy="3"
       r="1.6"
       id="circle3471"
       d="M 9.1,3 C 9.1,3.8836556 8.3836556,4.6 7.5,4.6 6.6163444,4.6 5.9,3.8836556 5.9,3 5.9,2.1163444 6.6163444,1.4 7.5,1.4 8.3836556,1.4 9.1,2.1163444 9.1,3 z" />
    <circle
       cx="7.5"
       cy="125.5"
       r="1.6"
       id="circle3473"
       d="m 9.1,125.5 c 0,0.88366 -0.7163444,1.6 -1.6,1.6 -0.8836556,0 -1.6,-0.71634 -1.6,-1.6 0,-0.88366 0.7163444,-1.6 1.6,-1.6 0.8836556,0 1.6,0.71634 1.6,1.6 z" />
    <circle
       cx="53.22"
       cy="3"
       r="1.6"
       id="circle3475"
       d="m 54.820001,3 c 0,0.8836556 -0.716344,1.6 -1.6,1.6 -0.883655,0 -1.6,-0.7163444 -1.6,-1.6 0,-0.8836556 0.716345,-1.6 1.6,-1.6 0.883656,0 1.6,0.7163444 1.6,1.6 z" />
    <circle
       cx="53.22"
       cy="125.5"
       r="1.6"
       id="circle3477"
       d="m 54.820001,125.5 c 0,0.88366 -0.716344,1.6 -1.6,1.6 -0.883655,0 -1.6,-0.71634 -1.6,-1.6 0,-0.88366 0.716345,-1.6 1.6,-1.6 0.883656,0 1.6,0.71634 1.6,1.6 z" />
    <path
       inkscape:connector-curvature="0"
       d="m 30.3,17.59 c -2.6129013,0 -4.7375971,2.115556 -4.7375971,4.727735 0,2.135913 1.421033,3.945767 3.3650681,4.5331 l 0,2.107204 2.632936,1.41e-4 0,-2.079677 c 1.996054,-0.554631 3.466996,-2.388302 3.466996,-4.561134 3.38e-4,-2.612179 -2.115205,-4.727369 -4.727403,-4.727369 z"
       style="fill:none;stroke:#ff0000"
       id="path3479" />
    <path
       inkscape:connector-curvature="0"
       d="m 11.25,34.1 c -2.6129013,0 -4.7375971,2.115556 -4.7375971,4.727735 0,2.135913 1.421033,3.945767 3.3650681,4.5331 l 0,2.107204 2.632936,1.41e-4 0,-2.079677 c 1.996054,-0.554631 3.466996,-2.388302 3.466996,-4.561134 3.38e-4,-2.612179 -2.115205,-4.727369 -4.727403,-4.727369 z"
       style="fill:none;stroke:#ff0000"
       id="path3529" />
    <path
       inkscape:connector-curvature="0"
       d="m 49.35,34.1 c -2.6129013,0 -4.7375971,2.115556 -4.7375971,4.727735 0,2.135913 1.421033,3.945767 3.3650681,4.5331 l 0,2.107204 2.632936,1.41e-4 0,-2.079677 c 1.996054,-0.554631 3.466996,-2.388302 3.466996,-4.561134 3.38e-4,-2.612179 -2.115205,-4.727369 -4.727403,-4.727369 z"
       style="fill:none;stroke:#ff0000"
       id="path3579" />
    <path
       inkscape:connector-curvature="0"
       d="m 30.3,55.69 c -2.6129013,0 -4.7375971,2.115556 -4.7375971,4.727735 0,2.135913 1.421033,3.945767 3.3650681,4.5331 l 0,2.107204 2.632936,1.41e-4 0,-2.079677 c 1.996054,-0.554631 3.466996,-2.388302 3.466996,-4.561134 3.38e-4,-2.612179 -2.115205,-4.727369 -4.727403,-4.727369 z"
       style="fill:none;stroke:#ff0000"
       id="path3629" />
    <circle
       cx="6.170000000000002"
       cy="83.3"
       r="2.4"
       style="fill:none;stroke:#ff0000"
       id="circle3681"
       d="m 8.5700002,83.300003 c 0,1.325484 -1.0745167,2.4 -2.4000001,2.4 -1.3254835,0 -2.4000001,-1.074516 -2.4000001,-2.4 0,-1.325483 1.0745166,-2.4 2.4000001,-2.4 1.3254834,0 2.4000001,1.074517 2.4000001,2.4 z" />
    <circle
       cx="54.43"
       cy="83.3"
       r="2.4"
       style="fill:none;stroke:#ff0000"
       id="circle3683"
       d="m 56.83,83.300003 c 0,1.325484 -1.074516,2.4 -2.4,2.4 -1.325483,0 -2.4,-1.074516 -2.4,-2.4 0,-1.325483 1.074517,-2.4 2.4,-2.4 1.325484,0 2.4,1.074517 2.4,2.4 z" />
    <circle
       cx="30.3"
       cy="83.3"
       r="3.25"
       style="fill:none;stroke:#ff0000"
       id="circle3685"
       d="m 33.549999,83.300003 c 0,1.794925 -1.455074,3.25 -3.25,3.25 -1.794925,0 -3.25,-1.455075 -3.25,-3.25 0,-1.794925 1.455075,-3.25 3.25,-3.25 1.794926,0 3.25,1.455075 3.25,3.25 z" />
    <circle
       cx="17.6"
       cy="93.46"
       r="3.25"
       style="fill:none;stroke:#ff0000"
       id="circle3687"
       d="m 20.85,93.459999 c 0,1.794926 -1.455074,3.25 -3.25,3.25 -1.794925,0 -3.25,-1.455074 -3.25,-3.25 0,-1.794925 1.455075,-3.25 3.25,-3.25 1.794926,0 3.25,1.455075 3.25,3.25 z" />
    <circle
       cx="43"
       cy="93.46"
       r="3.25"
       style="fill:none;stroke:#ff0000"
       id="circle3689"
       d="m 46.25,93.459999 c 0,1.794926 -1.455075,3.25 -3.25,3.25 -1.794925,0 -3.25,-1.455074 -3.25,-3.25 0,-1.794925 1.455075,-3.25 3.25,-3.25 1.794925,0 3.25,1.455075 3.25,3.25 z" />
    <circle
       cx="30.3"
       cy="96"
       r="3.25"
       style="fill:none;stroke:#ff0000"
       id="circle3691"
       d="m 33.549999,96 c 0,1.794925 -1.455074,3.25 -3.25,3.25 -1.794925,0 -3.25,-1.455075 -3.25,-3.25 0,-1.794925 1.455075,-3.25 3.25,-3.25 1.794926,0 3.25,1.455075 3.25,3.25 z" />
    <circle
       cx="6.170000000000002"
       cy="96"
       r="3.25"
       style="fill:none;stroke:#ff0000"
       id="circle3693"
       d="m 9.4200001,96 c 0,1.794925 -1.4550746,3.25 -3.25,3.25 -1.7949255,0 -3.25,-1.455075 -3.25,-3.25 0,-1.794925 1.4550745,-3.25 3.25,-3.25 1.7949254,0 3.25,1.455075 3.25,3.25 z" />
    <circle
       cx="54.43"
       cy="96"
       r="3.25"
       style="fill:none;stroke:#ff0000"
       id="circle3695"
       d="m 57.68,96 c 0,1.794925 -1.455074,3.25 -3.25,3.25 -1.794925,0 -3.25,-1.455075 -3.25,-3.25 0,-1.794925 1.455075,-3.25 3.25,-3.25 1.794926,0 3.25,1.455075 3.25,3.25 z" />
    <circle
       cx="6.170000000000002"
       cy="108.7"
       r="3.25"
       style="fill:none;stroke:#ff0000"
       id="circle3697"
       d="m 9.4200001,108.7 c 0,1.79492 -1.4550746,3.25 -3.25,3.25 -1.7949255,0 -3.25,-1.45508 -3.25,-3.25 0,-1.79493 1.4550745,-3.25 3.25,-3.25 1.7949254,0 3.25,1.45507 3.25,3.25 z" />
    <circle
       cx="30.3"
       cy="108.7"
       r="3.25"
       style="fill:none;stroke:#ff0000"
       id="circle3699"
       d="m 33.549999,108.7 c 0,1.79492 -1.455074,3.25 -3.25,3.25 -1.794925,0 -3.25,-1.45508 -3.25,-3.25 0,-1.79493 1.455075,-3.25 3.25,-3.25 1.794926,0 3.25,1.45507 3.25,3.25 z" />
    <circle
       cx="54.43"
       cy="108.7"
       r="3.25"
       style="fill:none;stroke:#ff0000"
       id="circle3701"
       d="m 57.68,108.7 c 0,1.79492 -1.455074,3.25 -3.25,3.25 -1.794925,0 -3.25,-1.45508 -3.25,-3.25 0,-1.79493 1.455075,-3.25 3.25,-3.25 1.794926,0 3.25,1.45507 3.25,3.25 z" />
    <rect
       style="fill:none;stroke:#ff0000;stroke-width:0.05;stroke-miterlimit:4;stroke-opacity:1;stroke-dasharray:none"
       id="rect15923"
       width="4.9999795"
       height="8.0000696"
       x="27.800009"
       y="37.389965" />
    <path
       sodipodi:nodetypes="ccccccccc"
       inkscape:connector-curvature="0"
       id="path16004"
       d="m 83.937777,6.9701943 c 1.44313,0 6.556855,0 8.000005,0 l 0,2.0196752 2.000005,0 -4.000005,8.0787005 -4.000005,0 -4,-8.0787005 2,0 z"
       style="fill:none;stroke:#ff0000;stroke-width:0.0099338;stroke-miterlimit:4;stroke-opacity:1" />
    <text
       xml:space="preserve"
       style="font-size:2.82222223px;font-style:normal;font-variant:normal;font-weight:normal;font-stretch:normal;line-height:125%;letter-spacing:0px;word-spacing:0px;fill:#000000;fill-opacity:1;stroke:none;font-family:Helvetica LT Std;-inkscape-font-specification:Helvetica LT Std"
       x="84.488403"
       y="-5.3978672"
       id="text16008"
       sodipodi:linespacing="125%"><tspan
         sodipodi:role="line"
         id="tspan16010"
         x="84.488403"
         y="-5.3978672">5mm</tspan></text>
    <text
       xml:space="preserve"
       style="font-size:10px;font-style:normal;font-variant:normal;font-weight:normal;font-stretch:normal;line-height:125%;letter-spacing:0px;word-spacing:0px;fill:#000000;fill-opacity:1;stroke:none;font-family:Helvetica LT Std;-inkscape-font-specification:Helvetica LT Std"
       x="85.533813"
       y="-17.921295"
       id="text16012"
       sodipodi:linespacing="125%"
       transform="matrix(0.28222223,0,0,0.28222223,-1.3919578e-6,0)"><tspan
         sodipodi:role="line"
         id="tspan16014"
         x="85.533813"
         y="-17.921295">2mm</tspan></text>
    <path
       style="fill:none;stroke:#ff0000;stroke-width:0.0099338;stroke-miterlimit:4;stroke-opacity:1"
       d="m 83.937777,56.845415 c 1.44313,0 6.556865,0 8.000005,0 l 0,2.098 1,0 -3.5,8 -3.000005,0 -3.5,-8 1,0 z"
       id="path16016"
       inkscape:connector-curvature="0"
       sodipodi:nodetypes="ccccccccc" />
    <path
       style="fill:none;stroke:#ff0000;stroke-width:0.0099338;stroke-miterlimit:4;stroke-opacity:1"
       d="m 83.937777,24.241972 c 0.36078,0 0.95098,-1.293536 1.65588,-1.293536 0.7049,0 1.5245,1.293536 2.344115,1.293536 0.81961,0 1.63922,-1.293536 2.34412,-1.293536 0.7049,0 1.2951,1.293536 1.65589,1.293536 l 0,2.019675 2.000005,0 -4.000005,8.078701 -4.000005,0 -4,-8.078701 2,0 z"
       id="path16018"
       inkscape:connector-curvature="0"
       sodipodi:nodetypes="cssscccccccc" />
    <path
       style="fill:none;stroke:#ff0000;stroke-width:0.0099338;stroke-miterlimit:4;stroke-opacity:1"
       d="m 83.937777,40.784664 1.65588,-1.128889 2.344115,1.128889 2.34412,-1.128889 1.65589,1.128889 0,2.019675 2.000005,0 -4.000005,8.078701 -4.000005,0 -4,-8.078701 2,0 z"
       id="path16020"
       inkscape:connector-curvature="0"
       sodipodi:nodetypes="cccccccccccc" />
    <path
       sodipodi:nodetypes="ccccccccccc"
       inkscape:connector-curvature="0"
       id="path5393"
       d="m 106.51555,7.0685724 2,-4.0004351 3.99999,0 2.00001,4.0004351 0,2 1,0 -3.5,7.9999976 -3,0 -3.5,-7.9999976 1,0 z"
       style="fill:none;stroke:#ff0000;stroke-width:0.0099338;stroke-miterlimit:4;stroke-opacity:1" />
    <path
       style="fill:none;stroke:#ff0000;stroke-width:0.0099338;stroke-miterlimit:4;stroke-opacity:1"
       d="m 106.51555,24.340349 3.69333,-5.000001 0.61334,0 3.69333,5.000001 0,2.000004 1,0 -3.5,7.999995 -3,0 -3.5,-7.999995 1,0 z"
       id="path5395"
       inkscape:connector-curvature="0"
       sodipodi:nodetypes="ccccccccccc" />
  </g>
</svg>
