<?xml version="1.0" encoding="UTF-8" standalone="no"?>
<svg
   xmlns:dc="http://purl.org/dc/elements/1.1/"
   xmlns:cc="http://creativecommons.org/ns#"
   xmlns:rdf="http://www.w3.org/1999/02/22-rdf-syntax-ns#"
   xmlns:svg="http://www.w3.org/2000/svg"
   xmlns="http://www.w3.org/2000/svg"
   xmlns:sodipodi="http://sodipodi.sourceforge.net/DTD/sodipodi-0.dtd"
   xmlns:inkscape="http://www.inkscape.org/namespaces/inkscape"
   version="1.1"
   width="210mm"
   height="297mm"
   viewBox="0 0 210 297"
   id="svg5197"
   inkscape:version="0.48.4 r9939"
   sodipodi:docname="ToneWolf.svg">
  <metadata
     id="metadata5473">
    <rdf:RDF>
      <cc:Work
         rdf:about="">
        <dc:format>image/svg+xml</dc:format>
        <dc:type
           rdf:resource="http://purl.org/dc/dcmitype/StillImage" />
        <dc:title></dc:title>
      </cc:Work>
    </rdf:RDF>
  </metadata>
  <sodipodi:namedview
     id="base"
     inkscape:document-units="mm"
     units="mm"
     showgrid="false"
     inkscape:zoom="1.2685914"
     inkscape:cx="167.81717"
     inkscape:cy="824.33003"
     inkscape:window-width="1280"
     inkscape:window-height="974"
     inkscape:window-x="0"
     inkscape:window-y="0"
     inkscape:window-maximized="1"
     inkscape:current-layer="svg5197" />
  <defs
     id="defs5200">
    <g
       id="potgrading">
      <path
         d="M 22.469177,65.29487 C 12.864593,59.897939 6.3758317,49.616792 6.3758317,37.815007 c 0,-17.395119 14.1022403,-31.4975588 31.4994303,-31.4975588 17.392315,0 31.496992,14.1012398 31.496992,31.4975588 0,11.809085 -6.498509,22.101133 -16.116497,27.493263"
         style="fill:none;stroke:#030303;stroke-width:0.41032487"
         id="path5203" />
      <path
         d="m 28.906759,4.4567034 0.78974,2.9366707"
         style="fill:none;stroke:#030303;stroke-width:0.75"
         id="path5205" />
      <path
         d="M 19.149856,5.4303268 22.099957,10.54465"
         style="fill:none;stroke:#030303;stroke-width:1.0"
         id="path5207" />
      <path
         d="m 13.42878,13.404619 2.150735,2.149652"
         style="fill:none;stroke:#030303;stroke-width:0.75"
         id="path5209" />
      <path
         d="m 5.5191934,19.159858 5.0557506,2.91857"
         style="fill:none;stroke:#030303;stroke-width:1.0"
         id="path5211" />
      <path
         d="m 4.4968328,28.890192 2.9366973,0.786019"
         style="fill:none;stroke:#030303;stroke-width:0.75"
         id="path5213" />
      <path
         d="m 0.49999997,37.829608 5.86364623,0"
         style="fill:none;stroke:#030303;stroke-width:1.0"
         id="path5215" />
      <path
         d="M 4.5053627,46.769023 7.44206,45.980604"
         style="fill:none;stroke:#030303;stroke-width:0.75"
         id="path5217" />
      <path
         d="M 5.5106636,56.509058 10.590785,53.578387"
         style="fill:none;stroke:#030303;stroke-width:1.0"
         id="path5219" />
      <path
         d="m 13.451932,62.247196 2.145861,-2.149452"
         style="fill:none;stroke:#030303;stroke-width:0.75"
         id="path5221" />
      <path
         d="m 19.291208,70.009583 2.834339,-4.907218"
         style="fill:none;stroke:#030303;stroke-width:1.0"
         id="path5223" />
      <path
         d="m 56.484784,70.043684 -2.861026,-4.95962"
         style="fill:none;stroke:#030303;stroke-width:1.0"
         id="path5225" />
      <path
         d="M 62.293717,62.224096 60.144201,60.079444"
         style="fill:none;stroke:#030303;stroke-width:0.75"
         id="path5227" />
      <path
         d="m 70.111912,56.418856 -4.965577,-2.86977"
         style="fill:none;stroke:#030303;stroke-width:1.0"
         id="path5229" />
      <path
         d="M 71.224445,46.738522 68.290307,45.951403"
         style="fill:none;stroke:#030303;stroke-width:0.75"
         id="path5231" />
      <path
         d="m 75.037277,37.799107 -5.678427,0"
         style="fill:none;stroke:#030303;stroke-width:1.0"
         id="path5233" />
      <path
         d="M 71.216037,28.859791 68.280436,29.64821"
         style="fill:none;stroke:#030303;stroke-width:0.75"
         id="path5235" />
      <path
         d="m 70.076574,19.198959 -4.943643,2.855068"
         style="fill:none;stroke:#030303;stroke-width:1.0"
         id="path5237" />
      <path
         d="M 62.27288,13.382718 60.124704,15.53107"
         style="fill:none;stroke:#030303;stroke-width:0.75"
         id="path5239" />
      <path
         d="M 56.550707,5.4181265 53.598168,10.52765"
         style="fill:none;stroke:#030303;stroke-width:1.0"
         id="path5241" />
      <path
         d="M 46.785274,4.4507032 45.999312,7.386174"
         style="fill:none;stroke:#030303;stroke-width:0.75"
         id="path5243" />
      <path
         d="m 37.844676,0.500008 0,5.8162402"
         style="fill:none;stroke:#030303;stroke-width:1.0"
         id="path5245" />
      <path
         d="m 69.475831,37.723605 c 0,17.397619 -14.103337,31.501159 -31.500648,31.501159 -17.397312,0 -31.500649,-14.10354 -31.500649,-31.501159 0,-17.397619 14.103337,-31.5012591 31.500649,-31.5012591 17.397311,0 31.500648,14.1036401 31.500648,31.5012591 z"
         style="fill:none"
         id="path5247" />
    </g>
  </defs>
  <g
     style="fill:none;stroke-width:0.1;stroke:black"
     id="g5249">
    <rect
       x="0.0"
       y="0.0"
       width="60.60"
       height="128.50"
       id="rect5251" />
    <circle
       cx="7.5"
       cy="3"
       r="1.6"
       id="circle5253" />
    <circle
       cx="7.5"
       cy="125.5"
       r="1.6"
       id="circle5255" />
    <circle
       cx="53.22"
       cy="3"
       r="1.6"
       id="circle5257" />
    <circle
       cx="53.22"
       cy="125.5"
       r="1.6"
       id="circle5259" />
    <path
       d="m 30.3,21.4 c -2.6220187,0 -4.7546972,2.123364 -4.7546972,4.745368 0,2.143796 1.4261951,3.960351 3.3776012,4.54998 l 0,2.679746 2.642536,0 0,-2.651834 c 2.003484,-0.55658 3.479956,-2.397067 3.479956,-4.577892 0,-2.622004 -2.123369,-4.745368 -4.745396,-4.745368 z"
       style="fill:none;stroke:#000000;stroke-width:0.09990668;"
       inkscape:connector-curvature="0"
       id="path5261" />
    <g
       transform="translate(30.3,26.15)"
       style="fill:none;stroke:#000000;stroke-width:0.237;stroke-miterlimit:4;stroke-opacity:1;stroke-dasharray:none"
       id="g5263">
      <path
         d="M -4.2037748,7.5814929 C -6.8346316,6.1114925 -8.6120123,3.3014922 -8.6120123,0.07148931 c 0,-4.75000381 3.8628404,-8.61000481 8.6282233,-8.61000481 4.764047,0 8.627555,3.8600011 8.627555,8.61000481 0,3.23000299 -1.780051,6.04000329 -4.414579,7.52000359"
         style="fill:none;stroke:#030303;stroke-width:0.1411"
         id="path5265" />
      <path
         style="fill:none;stroke:#030303;stroke-width:0.2117"
         d="m -2.440413,-9.0485165 0.216323,0.810001"
         id="path5267" />
      <path
         style="fill:none;stroke:#030303;stroke-width:0.2832"
         d="m -5.1129926,-8.7785155 0.8080822,1.4000001"
         id="path5269" />
      <path
         style="fill:none;stroke:#030303;stroke-width:0.2117"
         d="m -6.6800914,-6.5985155 0.5891225,0.59"
         id="path5271" />
      <path
         style="fill:none;stroke:#030303;stroke-width:0.2832"
         d="m -8.8466601,-5.0285155 1.3848552,0.8000013"
         id="path5273" />
      <path
         style="fill:none;stroke:#030303;stroke-width:0.2117"
         d="m -9.1267017,-2.3685125 0.8044106,0.2200004"
         id="path5275" />
      <path
         style="fill:none;stroke:#030303;stroke-width:0.2832"
         d="m -10.221501,0.08148931 1.6061507,0"
         id="path5277" />
      <path
         style="fill:none;stroke:#030303;stroke-width:0.2117"
         d="M -9.1243652,2.5214918 -8.3199546,2.3014913"
         id="path5279" />
      <path
         style="fill:none;stroke:#030303;stroke-width:0.2832"
         d="M -8.8489964,5.181492 -7.4574658,4.3814921"
         id="path5281" />
      <path
         style="fill:none;stroke:#030303;stroke-width:0.2117"
         d="m -6.6737496,6.7514925 0.5877873,-0.59"
         id="path5283" />
      <path
         style="fill:none;stroke:#030303;stroke-width:0.2832"
         d="m -5.0742739,8.871494 0.776373,-1.3400011"
         id="path5285" />
      <path
         style="fill:none;stroke:#030303;stroke-width:0.2832"
         d="M 5.113671,8.8814939 4.329988,7.5214929"
         id="path5287" />
      <path
         style="fill:none;stroke:#030303;stroke-width:0.2117"
         d="m 6.704836,6.7414925 -0.588789,-0.58"
         id="path5289" />
      <path
         style="fill:none;stroke:#030303;stroke-width:0.2832"
         d="m 8.846371,5.1614921 -1.360155,-0.79"
         id="path5291" />
      <path
         style="fill:none;stroke:#030303;stroke-width:0.2117"
         d="M 9.151112,2.5114918 8.347402,2.2914913"
         id="path5293" />
      <path
         style="fill:none;stroke:#030303;stroke-width:0.2832"
         d="m 10.195511,0.07148931 -1.555417,0"
         id="path5295" />
      <path
         style="fill:none;stroke:#030303;stroke-width:0.2117"
         d="M 9.148809,-2.3785126 8.344698,-2.1585121"
         id="path5297" />
      <path
         style="fill:none;stroke:#030303;stroke-width:0.2832"
         d="M 8.836691,-5.0185155 7.482544,-4.2385142"
         id="path5299" />
      <path
         style="fill:none;stroke:#030303;stroke-width:0.2117"
         d="m 6.699128,-6.6085155 -0.588421,0.59"
         id="path5301" />
      <path
         style="fill:none;stroke:#030303;stroke-width:0.2832"
         d="m 5.131729,-8.7785155 -0.80875,1.39"
         id="path5303" />
      <path
         style="fill:none;stroke:#030303;stroke-width:0.2117"
         d="m 2.456813,-9.0485165 -0.215288,0.800001"
         id="path5305" />
      <path
         style="fill:none;stroke:#030303;stroke-width:0.2832"
         d="m 0.007833,-10.128517 0,1.5900015"
         id="path5307" />
    </g>
    <path
       d="m 11.25,34.1 c -2.6220187,0 -4.7546972,2.123364 -4.7546972,4.745368 0,2.143796 1.4261951,3.960351 3.3776012,4.54998 l 0,2.679746 2.642536,0 0,-2.651834 c 2.003484,-0.55658 3.479956,-2.397067 3.479956,-4.577892 0,-2.622004 -2.123369,-4.745368 -4.745396,-4.745368 z"
       style="fill:none;stroke:#000000;stroke-width:0.09990668;"
       inkscape:connector-curvature="0"
       id="path5309" />
    <g
       transform="translate(11.25,38.85)"
       style="fill:none;stroke:#000000;stroke-width:0.237;stroke-miterlimit:4;stroke-opacity:1;stroke-dasharray:none"
       id="g5311">
      <path
         d="M -4.2037748,7.5814929 C -6.8346316,6.1114925 -8.6120123,3.3014922 -8.6120123,0.07148931 c 0,-4.75000381 3.8628404,-8.61000481 8.6282233,-8.61000481 4.764047,0 8.627555,3.8600011 8.627555,8.61000481 0,3.23000299 -1.780051,6.04000329 -4.414579,7.52000359"
         style="fill:none;stroke:#030303;stroke-width:0.1411"
         id="path5313" />
      <path
         style="fill:none;stroke:#030303;stroke-width:0.2117"
         d="m -2.440413,-9.0485165 0.216323,0.810001"
         id="path5315" />
      <path
         style="fill:none;stroke:#030303;stroke-width:0.2832"
         d="m -5.1129926,-8.7785155 0.8080822,1.4000001"
         id="path5317" />
      <path
         style="fill:none;stroke:#030303;stroke-width:0.2117"
         d="m -6.6800914,-6.5985155 0.5891225,0.59"
         id="path5319" />
      <path
         style="fill:none;stroke:#030303;stroke-width:0.2832"
         d="m -8.8466601,-5.0285155 1.3848552,0.8000013"
         id="path5321" />
      <path
         style="fill:none;stroke:#030303;stroke-width:0.2117"
         d="m -9.1267017,-2.3685125 0.8044106,0.2200004"
         id="path5323" />
      <path
         style="fill:none;stroke:#030303;stroke-width:0.2832"
         d="m -10.221501,0.08148931 1.6061507,0"
         id="path5325" />
      <path
         style="fill:none;stroke:#030303;stroke-width:0.2117"
         d="M -9.1243652,2.5214918 -8.3199546,2.3014913"
         id="path5327" />
      <path
         style="fill:none;stroke:#030303;stroke-width:0.2832"
         d="M -8.8489964,5.181492 -7.4574658,4.3814921"
         id="path5329" />
      <path
         style="fill:none;stroke:#030303;stroke-width:0.2117"
         d="m -6.6737496,6.7514925 0.5877873,-0.59"
         id="path5331" />
      <path
         style="fill:none;stroke:#030303;stroke-width:0.2832"
         d="m -5.0742739,8.871494 0.776373,-1.3400011"
         id="path5333" />
      <path
         style="fill:none;stroke:#030303;stroke-width:0.2832"
         d="M 5.113671,8.8814939 4.329988,7.5214929"
         id="path5335" />
      <path
         style="fill:none;stroke:#030303;stroke-width:0.2117"
         d="m 6.704836,6.7414925 -0.588789,-0.58"
         id="path5337" />
      <path
         style="fill:none;stroke:#030303;stroke-width:0.2832"
         d="m 8.846371,5.1614921 -1.360155,-0.79"
         id="path5339" />
      <path
         style="fill:none;stroke:#030303;stroke-width:0.2117"
         d="M 9.151112,2.5114918 8.347402,2.2914913"
         id="path5341" />
      <path
         style="fill:none;stroke:#030303;stroke-width:0.2832"
         d="m 10.195511,0.07148931 -1.555417,0"
         id="path5343" />
      <path
         style="fill:none;stroke:#030303;stroke-width:0.2117"
         d="M 9.148809,-2.3785126 8.344698,-2.1585121"
         id="path5345" />
      <path
         style="fill:none;stroke:#030303;stroke-width:0.2832"
         d="M 8.836691,-5.0185155 7.482544,-4.2385142"
         id="path5347" />
      <path
         style="fill:none;stroke:#030303;stroke-width:0.2117"
         d="m 6.699128,-6.6085155 -0.588421,0.59"
         id="path5349" />
      <path
         style="fill:none;stroke:#030303;stroke-width:0.2832"
         d="m 5.131729,-8.7785155 -0.80875,1.39"
         id="path5351" />
      <path
         style="fill:none;stroke:#030303;stroke-width:0.2117"
         d="m 2.456813,-9.0485165 -0.215288,0.800001"
         id="path5353" />
      <path
         style="fill:none;stroke:#030303;stroke-width:0.2832"
         d="m 0.007833,-10.128517 0,1.5900015"
         id="path5355" />
    </g>
    <path
       d="m 49.35,34.1 c -2.6220187,0 -4.7546972,2.123364 -4.7546972,4.745368 0,2.143796 1.4261951,3.960351 3.3776012,4.54998 l 0,2.679746 2.642536,0 0,-2.651834 c 2.003484,-0.55658 3.479956,-2.397067 3.479956,-4.577892 0,-2.622004 -2.123369,-4.745368 -4.745396,-4.745368 z"
       style="fill:none;stroke:#000000;stroke-width:0.09990668;"
       inkscape:connector-curvature="0"
       id="path5357" />
    <g
       transform="translate(49.35,38.85)"
       style="fill:none;stroke:#000000;stroke-width:0.237;stroke-miterlimit:4;stroke-opacity:1;stroke-dasharray:none"
       id="g5359">
      <path
         d="M -4.2037748,7.5814929 C -6.8346316,6.1114925 -8.6120123,3.3014922 -8.6120123,0.07148931 c 0,-4.75000381 3.8628404,-8.61000481 8.6282233,-8.61000481 4.764047,0 8.627555,3.8600011 8.627555,8.61000481 0,3.23000299 -1.780051,6.04000329 -4.414579,7.52000359"
         style="fill:none;stroke:#030303;stroke-width:0.1411"
         id="path5361" />
      <path
         style="fill:none;stroke:#030303;stroke-width:0.2117"
         d="m -2.440413,-9.0485165 0.216323,0.810001"
         id="path5363" />
      <path
         style="fill:none;stroke:#030303;stroke-width:0.2832"
         d="m -5.1129926,-8.7785155 0.8080822,1.4000001"
         id="path5365" />
      <path
         style="fill:none;stroke:#030303;stroke-width:0.2117"
         d="m -6.6800914,-6.5985155 0.5891225,0.59"
         id="path5367" />
      <path
         style="fill:none;stroke:#030303;stroke-width:0.2832"
         d="m -8.8466601,-5.0285155 1.3848552,0.8000013"
         id="path5369" />
      <path
         style="fill:none;stroke:#030303;stroke-width:0.2117"
         d="m -9.1267017,-2.3685125 0.8044106,0.2200004"
         id="path5371" />
      <path
         style="fill:none;stroke:#030303;stroke-width:0.2832"
         d="m -10.221501,0.08148931 1.6061507,0"
         id="path5373" />
      <path
         style="fill:none;stroke:#030303;stroke-width:0.2117"
         d="M -9.1243652,2.5214918 -8.3199546,2.3014913"
         id="path5375" />
      <path
         style="fill:none;stroke:#030303;stroke-width:0.2832"
         d="M -8.8489964,5.181492 -7.4574658,4.3814921"
         id="path5377" />
      <path
         style="fill:none;stroke:#030303;stroke-width:0.2117"
         d="m -6.6737496,6.7514925 0.5877873,-0.59"
         id="path5379" />
      <path
         style="fill:none;stroke:#030303;stroke-width:0.2832"
         d="m -5.0742739,8.871494 0.776373,-1.3400011"
         id="path5381" />
      <path
         style="fill:none;stroke:#030303;stroke-width:0.2832"
         d="M 5.113671,8.8814939 4.329988,7.5214929"
         id="path5383" />
      <path
         style="fill:none;stroke:#030303;stroke-width:0.2117"
         d="m 6.704836,6.7414925 -0.588789,-0.58"
         id="path5385" />
      <path
         style="fill:none;stroke:#030303;stroke-width:0.2832"
         d="m 8.846371,5.1614921 -1.360155,-0.79"
         id="path5387" />
      <path
         style="fill:none;stroke:#030303;stroke-width:0.2117"
         d="M 9.151112,2.5114918 8.347402,2.2914913"
         id="path5389" />
      <path
         style="fill:none;stroke:#030303;stroke-width:0.2832"
         d="m 10.195511,0.07148931 -1.555417,0"
         id="path5391" />
      <path
         style="fill:none;stroke:#030303;stroke-width:0.2117"
         d="M 9.148809,-2.3785126 8.344698,-2.1585121"
         id="path5393" />
      <path
         style="fill:none;stroke:#030303;stroke-width:0.2832"
         d="M 8.836691,-5.0185155 7.482544,-4.2385142"
         id="path5395" />
      <path
         style="fill:none;stroke:#030303;stroke-width:0.2117"
         d="m 6.699128,-6.6085155 -0.588421,0.59"
         id="path5397" />
      <path
         style="fill:none;stroke:#030303;stroke-width:0.2832"
         d="m 5.131729,-8.7785155 -0.80875,1.39"
         id="path5399" />
      <path
         style="fill:none;stroke:#030303;stroke-width:0.2117"
         d="m 2.456813,-9.0485165 -0.215288,0.800001"
         id="path5401" />
      <path
         style="fill:none;stroke:#030303;stroke-width:0.2832"
         d="m 0.007833,-10.128517 0,1.5900015"
         id="path5403" />
    </g>
    <path
       d="m 30.3,55.69 c -2.6220187,0 -4.7546972,2.123364 -4.7546972,4.745368 0,2.143796 1.4261951,3.960351 3.3776012,4.54998 l 0,2.679746 2.642536,0 0,-2.651834 c 2.003484,-0.55658 3.479956,-2.397067 3.479956,-4.577892 0,-2.622004 -2.123369,-4.745368 -4.745396,-4.745368 z"
       style="fill:none;stroke:#000000;stroke-width:0.09990668;"
       inkscape:connector-curvature="0"
       id="path5405" />
    <g
       transform="translate(30.3,60.44)"
       style="fill:none;stroke:#000000;stroke-width:0.237;stroke-miterlimit:4;stroke-opacity:1;stroke-dasharray:none"
       id="g5407">
      <path
         d="M -4.2037748,7.5814929 C -6.8346316,6.1114925 -8.6120123,3.3014922 -8.6120123,0.07148931 c 0,-4.75000381 3.8628404,-8.61000481 8.6282233,-8.61000481 4.764047,0 8.627555,3.8600011 8.627555,8.61000481 0,3.23000299 -1.780051,6.04000329 -4.414579,7.52000359"
         style="fill:none;stroke:#030303;stroke-width:0.1411"
         id="path5409" />
      <path
         style="fill:none;stroke:#030303;stroke-width:0.2117"
         d="m -2.440413,-9.0485165 0.216323,0.810001"
         id="path5411" />
      <path
         style="fill:none;stroke:#030303;stroke-width:0.2832"
         d="m -5.1129926,-8.7785155 0.8080822,1.4000001"
         id="path5413" />
      <path
         style="fill:none;stroke:#030303;stroke-width:0.2117"
         d="m -6.6800914,-6.5985155 0.5891225,0.59"
         id="path5415" />
      <path
         style="fill:none;stroke:#030303;stroke-width:0.2832"
         d="m -8.8466601,-5.0285155 1.3848552,0.8000013"
         id="path5417" />
      <path
         style="fill:none;stroke:#030303;stroke-width:0.2117"
         d="m -9.1267017,-2.3685125 0.8044106,0.2200004"
         id="path5419" />
      <path
         style="fill:none;stroke:#030303;stroke-width:0.2832"
         d="m -10.221501,0.08148931 1.6061507,0"
         id="path5421" />
      <path
         style="fill:none;stroke:#030303;stroke-width:0.2117"
         d="M -9.1243652,2.5214918 -8.3199546,2.3014913"
         id="path5423" />
      <path
         style="fill:none;stroke:#030303;stroke-width:0.2832"
         d="M -8.8489964,5.181492 -7.4574658,4.3814921"
         id="path5425" />
      <path
         style="fill:none;stroke:#030303;stroke-width:0.2117"
         d="m -6.6737496,6.7514925 0.5877873,-0.59"
         id="path5427" />
      <path
         style="fill:none;stroke:#030303;stroke-width:0.2832"
         d="m -5.0742739,8.871494 0.776373,-1.3400011"
         id="path5429" />
      <path
         style="fill:none;stroke:#030303;stroke-width:0.2832"
         d="M 5.113671,8.8814939 4.329988,7.5214929"
         id="path5431" />
      <path
         style="fill:none;stroke:#030303;stroke-width:0.2117"
         d="m 6.704836,6.7414925 -0.588789,-0.58"
         id="path5433" />
      <path
         style="fill:none;stroke:#030303;stroke-width:0.2832"
         d="m 8.846371,5.1614921 -1.360155,-0.79"
         id="path5435" />
      <path
         style="fill:none;stroke:#030303;stroke-width:0.2117"
         d="M 9.151112,2.5114918 8.347402,2.2914913"
         id="path5437" />
      <path
         style="fill:none;stroke:#030303;stroke-width:0.2832"
         d="m 10.195511,0.07148931 -1.555417,0"
         id="path5439" />
      <path
         style="fill:none;stroke:#030303;stroke-width:0.2117"
         d="M 9.148809,-2.3785126 8.344698,-2.1585121"
         id="path5441" />
      <path
         style="fill:none;stroke:#030303;stroke-width:0.2832"
         d="M 8.836691,-5.0185155 7.482544,-4.2385142"
         id="path5443" />
      <path
         style="fill:none;stroke:#030303;stroke-width:0.2117"
         d="m 6.699128,-6.6085155 -0.588421,0.59"
         id="path5445" />
      <path
         style="fill:none;stroke:#030303;stroke-width:0.2832"
         d="m 5.131729,-8.7785155 -0.80875,1.39"
         id="path5447" />
      <path
         style="fill:none;stroke:#030303;stroke-width:0.2117"
         d="m 2.456813,-9.0485165 -0.215288,0.800001"
         id="path5449" />
      <path
         style="fill:none;stroke:#030303;stroke-width:0.2832"
         d="m 0.007833,-10.128517 0,1.5900015"
         id="path5451" />
    </g>
    <circle
       cx="30.3"
       cy="42.66"
       r="2.5"
       id="circle5453" />
    <circle
       cx="30.3"
       cy="83.3"
       r="3.25"
       id="circle5455" />
    <circle
       cx="17.6"
       cy="93.46"
       r="3.25"
       id="circle5457" />
    <circle
       cx="43"
       cy="93.46"
       r="3.25"
       id="circle5459" />
    <circle
       cx="30.3"
       cy="96"
       r="3.25"
       id="circle5461" />
    <circle
       cx="6.170000000000002"
       cy="96"
       r="3.25"
       id="circle5463" />
    <circle
       cx="54.43"
       cy="96"
       r="3.25"
       id="circle5465" />
    <circle
       cx="6.170000000000002"
       cy="108.7"
       r="3.25"
       id="circle5467" />
    <circle
       cx="30.3"
       cy="108.7"
       r="3.25"
       id="circle5469" />
    <circle
       cx="54.43"
       cy="108.7"
       r="3.25"
       id="circle5471" />
  </g>
</svg>
