<?xml version="1.0" encoding="UTF-8" standalone="no"?>
<!-- Created with Inkscape (http://www.inkscape.org/) -->

<svg
   xmlns:dc="http://purl.org/dc/elements/1.1/"
   xmlns:cc="http://creativecommons.org/ns#"
   xmlns:rdf="http://www.w3.org/1999/02/22-rdf-syntax-ns#"
   xmlns:svg="http://www.w3.org/2000/svg"
   xmlns="http://www.w3.org/2000/svg"
   xmlns:xlink="http://www.w3.org/1999/xlink"
   xmlns:sodipodi="http://sodipodi.sourceforge.net/DTD/sodipodi-0.dtd"
   xmlns:inkscape="http://www.inkscape.org/namespaces/inkscape"
   id="svg4373"
   version="1.1"
   inkscape:version="0.48.4 r9939"
   width="744.095"
   height="1052.3625"
   xml:space="preserve"
   sodipodi:docname="ChronosLabels.svg"><metadata
     id="metadata4379"><rdf:RDF><cc:Work
         rdf:about=""><dc:format>image/svg+xml</dc:format><dc:type
           rdf:resource="http://purl.org/dc/dcmitype/StillImage" /><dc:title></dc:title></cc:Work></rdf:RDF></metadata><defs
     id="defs4377"><clipPath
       clipPathUnits="userSpaceOnUse"
       id="clipPath4387"><path
         d="m 0,0 595.276,0 0,841.89 L 0,841.89 0,0 z"
         id="path4389" /></clipPath><clipPath
       clipPathUnits="userSpaceOnUse"
       id="clipPath4421"><path
         d="m 0,0 595.276,0 0,841.89 L 0,841.89 0,0 z"
         id="path4423" /></clipPath><clipPath
       clipPathUnits="userSpaceOnUse"
       id="clipPath4443"><path
         d="m 0,0 595.276,0 0,841.89 L 0,841.89 0,0 z"
         id="path4445" /></clipPath><clipPath
       clipPathUnits="userSpaceOnUse"
       id="clipPath7941"><path
         inkscape:connector-curvature="0"
         d="m 0,0 595.276,0 0,841.89 L 0,841.89 0,0 z"
         id="path7943" /></clipPath><clipPath
       clipPathUnits="userSpaceOnUse"
       id="clipPath7975"><path
         inkscape:connector-curvature="0"
         d="m 0,0 595.276,0 0,841.89 L 0,841.89 0,0 z"
         id="path7977" /></clipPath><clipPath
       clipPathUnits="userSpaceOnUse"
       id="clipPath7997"><path
         inkscape:connector-curvature="0"
         d="m 0,0 595.276,0 0,841.89 L 0,841.89 0,0 z"
         id="path7999" /></clipPath></defs><sodipodi:namedview
     pagecolor="#ffffff"
     bordercolor="#666666"
     borderopacity="1"
     objecttolerance="10"
     gridtolerance="10"
     guidetolerance="10"
     inkscape:pageopacity="0"
     inkscape:pageshadow="2"
     inkscape:window-width="1680"
     inkscape:window-height="1000"
     id="namedview4375"
     showgrid="false"
     inkscape:zoom="0.78316849"
     inkscape:cx="114.16323"
     inkscape:cy="482.49056"
     inkscape:window-x="0"
     inkscape:window-y="0"
     inkscape:window-maximized="1"
     inkscape:current-layer="g6976"
     inkscape:document-units="mm"
     showguides="false"
     inkscape:guide-bbox="true" /><g
     id="g4381"
     inkscape:groupmode="layer"
     inkscape:label="Label Planet LP21 70 Portrait"
     transform="matrix(1.25,0,0,-1.25,0,1052.3625)"><g
       id="g4685"
       transform="matrix(1.0000045,0,0,1,0.22200192,-721.66836)"
       inkscape:tile-cx="123.85937"
       inkscape:tile-cy="977.36505"
       inkscape:tile-w="203.15552"
       inkscape:tile-h="129.62935"
       inkscape:tile-x0="22.281616"
       inkscape:tile-y0="912.55037"><g
         id="flowRoot2985"
         style="font-size:40px;font-style:normal;font-variant:normal;font-weight:normal;font-stretch:normal;text-align:start;line-height:125%;letter-spacing:0px;word-spacing:0px;writing-mode:lr-tb;text-anchor:start;fill:#000000;fill-opacity:1;stroke:none;font-family:More than human;-inkscape-font-specification:More than human"
         transform="matrix(0.68631727,0,0,-0.68631727,-31.837369,883.75758)"><path
           id="path3134"
           style="font-size:30px;line-height:125%;font-family:More than human;-inkscape-font-specification:More than human"
           d="m 79.5375,81.455617 -2.55,0 0,9.21 2.55,-1.29 0,-7.92 m 1.2,-1.2 0,9.87 -4.95,2.49 0,-12.36 4.95,0 m -7.5,19.920003 -0.63,5.76 -0.57,-5.76 0,-23.670003 12.45,0 0,15.93 -2.97,1.5 2.97,1.56 0,4.680003 -0.63,5.76 -0.57,-5.76 0,-3.960003 -4.38,-2.31 4.38,-2.19 0,-14.01 -10.05,0 0,22.470003 m 3.75,0 -0.63,5.76 -0.57,-5.76 0,-4.890003 4.95,2.58 0,2.310003 -0.63,5.76 -0.57,-5.76 0,-1.590003 -2.52,-1.32 0,2.910003 -0.03,0"
           inkscape:connector-curvature="0" /><path
           id="path3136"
           style="font-size:30px;line-height:125%;font-family:More than human;-inkscape-font-specification:More than human"
           d="m 100.13203,102.57562 -0.629999,5.76 -0.57,-5.76 0,-6.120003 -7.5,0 0,-4.98 7.5,0 0,-2.52 -7.5,0 0,-8.73 4.95,0 0,3.75 2.55,0 0,-6.27 -10.05,0 0,23.070003 -0.63,5.76 -0.57,-5.76 0,-24.270003 12.449999,0 0,8.67 -4.949999,0 0,-3.75 -2.55,0 0,6.33 7.499999,0 0,4.92 -7.499999,0 0,2.58 7.499999,0 0,7.320003"
           inkscape:connector-curvature="0" /><path
           id="path3139"
           style="font-size:30px;line-height:125%;font-family:More than human;-inkscape-font-specification:More than human"
           d="m 110.70937,81.455617 -2.55,0 0,5.46 2.55,-1.29 0,-4.17 m 1.2,-1.2 0,6.12 -4.95,2.49 0,-8.61 4.95,0 m -1.2,14.55 -2.55,-1.29 0,1.71 2.55,0 0,-0.42 m 1.2,-0.75 0,2.37 -4.95,0 0,-4.86 4.95,2.49 m 3.75,5.82 -0.62999,5.760003 -0.57001,-5.760003 0,-7.41 -4.37999,-2.31 4.37999,-2.19 0,-10.26 -10.05,0 0,24.570003 -0.62999,5.76 -0.57001,-5.76 0,-25.770003 12.45,0 0,12.18 -2.97,1.5 2.97,1.56 0,8.13"
           inkscape:connector-curvature="0" /><path
           id="path3141"
           style="font-size:30px;line-height:125%;font-family:More than human;-inkscape-font-specification:More than human"
           d="m 131.30391,102.57562 -0.63,5.76 -0.57,-5.76 0,-6.120003 -7.5,0 0,-4.98 7.5,0 0,-2.52 -7.5,0 0,-8.73 4.95,0 0,3.75 2.55,0 0,-6.27 -10.05,0 0,23.070003 -0.63,5.76 -0.57,-5.76 0,-24.270003 12.45,0 0,8.67 -4.95,0 0,-3.75 -2.55,0 0,6.33 7.5,0 0,4.92 -7.5,0 0,2.58 7.5,0 0,7.320003"
           inkscape:connector-curvature="0" /><path
           id="path3143"
           style="font-size:30px;line-height:125%;font-family:More than human;-inkscape-font-specification:More than human"
           d="m 143.08125,99.575617 -0.63,5.760003 -0.57,-5.760003 0,-3.12 -3.75,0 0,-18.75 -2.55,0 0,24.570003 -0.63,5.76 -0.57,-5.76 0,-25.770003 4.95,0 0,18.75 3.75,0 0,4.32"
           inkscape:connector-curvature="0" /><path
           id="path3145"
           style="font-size:30px;line-height:125%;font-family:More than human;-inkscape-font-specification:More than human"
           d="m 169.38984,100.17562 -0.63,5.76 -0.57,-5.76 0,-19.950003 3.75,0 0,-2.52 -10.05,0 0,2.52 3.75,0 0,19.950003 -0.63,5.76 -0.57,-5.76 0,-18.750003 -3.75,0 0,-4.92 12.45,0 0,4.92 -3.75,0 0,18.750003"
           inkscape:connector-curvature="0" /><path
           id="path3147"
           style="font-size:30px;line-height:125%;font-family:More than human;-inkscape-font-specification:More than human"
           d="m 188.37422,102.57562 -0.63,5.76 -0.57,-5.76 0,-6.120003 -7.5,0 0,-4.98 7.5,0 0,-2.52 -7.5,0 0,-8.73 4.95,0 0,3.75 2.55,0 0,-6.27 -10.05,0 0,23.070003 -0.63,5.76 -0.57,-5.76 0,-24.270003 12.45,0 0,8.67 -4.95,0 0,-3.75 -2.55,0 0,6.33 7.5,0 0,4.92 -7.5,0 0,2.58 7.5,0 0,7.320003"
           inkscape:connector-curvature="0" /><path
           id="path3149"
           style="font-size:30px;line-height:125%;font-family:More than human;-inkscape-font-specification:More than human"
           d="m 203.90156,102.27562 -0.63,5.76 -0.57,-5.76 0,-9.570003 -2.55,0 0,3.75 -4.95,0 0,-16.23 4.95,0 0,3.75 2.55,0 0,-6.27 -10.05,0 0,22.17 -0.63,5.760003 -0.57,-5.760003 0,-23.37 12.45,0 0,8.67 -4.95,0 0,-3.75 -2.55,0 0,13.83 2.55,0 0,-3.75 4.95,0 0,10.770003"
           inkscape:connector-curvature="0" /><path
           id="path3151"
           style="font-size:30px;line-height:125%;font-family:More than human;-inkscape-font-specification:More than human"
           d="m 219.37031,100.77562 -0.63,5.76 -0.57,-5.76 0,-23.070003 -2.55,0 0,15 -4.95,0 0,-15 -2.55,0 0,22.17 -0.63,5.760003 -0.57,-5.760003 0,-23.37 4.95,0 0,15 2.55,0 0,-15 4.95,0 0,24.270003 m -3.75,-1.500003 -0.63,5.760003 -0.57,-5.760003 0,-2.85 -2.55,0 0,7.050003 -0.63,5.76 -0.57,-5.76 0,-8.250003 4.95,0 0,4.05"
           inkscape:connector-curvature="0" /><path
           id="path3153"
           style="font-size:30px;line-height:125%;font-family:More than human;-inkscape-font-specification:More than human"
           d="m 231.44484,100.17562 -0.63,5.76 -0.57,-5.76 -2.7,-7.890003 0,7.29 -0.63,5.760003 -0.57,-5.760003 -0.03,0 0.03,-14.43 5.1,15.030003 m 3.57,0.9 -0.63,5.76 -0.57,-5.76 0,-23.370003 -2.58,0 0,13.83 -4.77,-13.83 -2.7,0 0,25.770003 -0.63,5.76 -0.57,-5.76 0,-26.970003 4.77,0 2.7,7.89 0,-7.89 4.98,0 0,24.570003"
           inkscape:connector-curvature="0" /><path
           id="path3155"
           style="font-size:30px;line-height:125%;font-family:More than human;-inkscape-font-specification:More than human"
           d="m 245.70937,81.455617 -2.55,0 0,13.77 2.55,0 0,-13.77 m 1.2,-1.2 0,16.17 -4.95,0 0,-16.17 4.95,0 m 3.75,19.62 -0.63,5.760003 -0.57,-5.760003 0,-22.17 -10.05,0 0,25.470003 -0.63,5.76 -0.57,-5.76 0,-26.670003 12.45,0 0,23.37"
           inkscape:connector-curvature="0" /><path
           id="path3157"
           style="font-size:30px;line-height:125%;font-family:More than human;-inkscape-font-specification:More than human"
           d="m 262.55391,99.575617 -0.63,5.760003 -0.57,-5.760003 0,-3.12 -3.75,0 0,-18.75 -2.55,0 0,24.570003 -0.63,5.76 -0.57,-5.76 0,-25.770003 4.95,0 0,18.75 3.75,0 0,4.32"
           inkscape:connector-curvature="0" /><path
           id="path3159"
           style="font-size:30px;line-height:125%;font-family:More than human;-inkscape-font-specification:More than human"
           d="m 272.6625,81.455617 -2.55,0 0,13.77 2.55,0 0,-13.77 m 1.2,-1.2 0,16.17 -4.95,0 0,-16.17 4.95,0 m 3.75,19.62 -0.63,5.760003 -0.57,-5.760003 0,-22.17 -10.05,0 0,25.470003 -0.63,5.76 -0.57,-5.76 0,-26.670003 12.45,0 0,23.37"
           inkscape:connector-curvature="0" /><path
           id="path3161"
           style="font-size:30px;line-height:125%;font-family:More than human;-inkscape-font-specification:More than human"
           d="m 293.25703,101.97562 -0.63,5.76 -0.57,-5.76 0,-13.020003 -2.55,0 0,7.5 -4.95,0 0,-16.23 4.95,0 0,3.75 2.55,0 0,-6.27 -10.05,0 0,21.87 -0.63,5.760003 -0.57,-5.760003 0,-23.07 12.45,0 0,8.67 -4.95,0 0,-3.75 -2.55,0 0,13.83 2.55,0 0,-7.5 4.95,0 0,14.220003"
           inkscape:connector-curvature="0" /><path
           id="path3163"
           style="font-size:30px;line-height:125%;font-family:More than human;-inkscape-font-specification:More than human"
           d="m 308.84297,99.575617 -0.63,5.760003 -0.57,-5.760003 0,-21.87 -2.55,0 0,11.25 -4.95,0 0,-11.25 -2.55,0 0,13.77 7.5,0 0,4.98 -7.5,0 0,7.320003 -0.63,5.76 -0.57,-5.76 0,-8.520003 7.5,0 0,-2.58 -7.5,0 0,-16.17 4.95,0 0,11.25 2.55,0 0,-11.25 4.95,0 0,23.07"
           inkscape:connector-curvature="0" /></g><g
         id="flowRoot3001"
         style="font-size:12px;font-style:normal;font-variant:normal;font-weight:normal;font-stretch:normal;text-align:start;line-height:125%;letter-spacing:0px;word-spacing:0px;writing-mode:lr-tb;text-anchor:start;fill:#000000;fill-opacity:1;stroke:none;font-family:Sans;-inkscape-font-specification:Sans"
         transform="matrix(0.68631727,0,0,-0.68631727,5.38946,925.0153)"><path
           id="path3166"
           style="font-size:10px;line-height:125%;font-family:Sans;-inkscape-font-specification:Sans"
           d="m 24.632812,257.41671 0,0.96191 c -0.374353,-0.17903 -0.727543,-0.31249 -1.05957,-0.40039 -0.332035,-0.0879 -0.652673,-0.13183 -0.961914,-0.13183 -0.537112,0 -0.952151,0.10417 -1.245117,0.3125 -0.289715,0.20834 -0.434572,0.50456 -0.43457,0.88867 -2e-6,0.32227 0.09603,0.56641 0.288086,0.73242 0.19531,0.16277 0.563148,0.2946 1.103515,0.39551 l 0.595703,0.12207 c 0.735673,0.13998 1.277665,0.38737 1.625977,0.74219 0.351557,0.35156 0.527338,0.82357 0.527344,1.41601 -6e-6,0.70638 -0.237636,1.24187 -0.712891,1.60645 -0.47201,0.36458 -1.165368,0.54687 -2.080078,0.54687 -0.345055,0 -0.712893,-0.0391 -1.103516,-0.11718 -0.387371,-0.0781 -0.789389,-0.19369 -1.206054,-0.34668 l 0,-1.01563 c 0.400389,0.22461 0.792641,0.39388 1.176757,0.50781 0.384113,0.11394 0.761716,0.1709 1.132813,0.1709 0.563147,0 0.997717,-0.11067 1.303711,-0.33203 0.305985,-0.22135 0.458979,-0.53711 0.458984,-0.94726 -5e-6,-0.35808 -0.110682,-0.63802 -0.332031,-0.83985 -0.218103,-0.20182 -0.577803,-0.35319 -1.079102,-0.4541 l -0.600586,-0.11719 c -0.735679,-0.14648 -1.267905,-0.37597 -1.596679,-0.68847 -0.328777,-0.3125 -0.493165,-0.74707 -0.493164,-1.30372 -10e-7,-0.64452 0.226236,-1.15233 0.678711,-1.52343 0.455727,-0.37109 1.082354,-0.55664 1.879882,-0.55664 0.341794,0 0.690101,0.0309 1.044922,0.0928 0.354813,0.0619 0.717769,0.15463 1.088867,0.27832"
           inkscape:connector-curvature="0" /><path
           id="path3169"
           style="font-size:10px;line-height:125%;font-family:Sans;-inkscape-font-specification:Sans"
           d="m 26.610352,257.17745 0.986328,0 0,3.08106 3.271484,-3.08106 1.269531,0 -3.618164,3.39844 3.876953,3.8916 -1.298828,0 -3.500976,-3.51074 0,3.51074 -0.986328,0 0,-7.29004"
           inkscape:connector-curvature="0" /><path
           id="path3171"
           style="font-size:10px;line-height:125%;font-family:Sans;-inkscape-font-specification:Sans"
           d="m 32.787109,257.17745 0.991211,0 0,4.42871 c -2e-6,0.78126 0.1416,1.34441 0.424805,1.68946 0.283201,0.34179 0.742184,0.51269 1.376953,0.51269 0.631506,0 1.088863,-0.1709 1.37207,-0.51269 0.283198,-0.34505 0.4248,-0.9082 0.424805,-1.68946 l 0,-4.42871 0.991211,0 0,4.55078 c -6e-6,0.95053 -0.236009,1.6683 -0.708008,2.15332 -0.468755,0.48503 -1.162114,0.72754 -2.080078,0.72754 -0.921227,0 -1.61784,-0.24251 -2.089844,-0.72754 -0.468751,-0.48502 -0.703125,-1.20279 -0.703125,-2.15332 l 0,-4.55078"
           inkscape:connector-curvature="0" /><path
           id="path3173"
           style="font-size:10px;line-height:125%;font-family:Sans;-inkscape-font-specification:Sans"
           d="m 40.414062,263.22726 1.030274,0 0,1.24023 -1.030274,0 0,-1.24023 m 0,-3.93067 1.030274,0 0,1.24024 -1.030274,0 0,-1.24024"
           inkscape:connector-curvature="0" /><path
           id="path3187"
           style="font-size:10px;line-height:125%;font-family:Sans;-inkscape-font-specification:Sans"
           d="m 20.262695,269.67745 1.469727,0 1.860351,4.96094 1.870118,-4.96094 1.469726,0 0,7.29004 -0.961914,0 0,-6.40137 -1.879883,5 -0.991211,0 -1.879882,-5 0,6.40137 -0.957032,0 0,-7.29004"
           inkscape:connector-curvature="0" /><path
           id="path3189"
           style="font-size:10px;line-height:125%;font-family:Sans;-inkscape-font-specification:Sans"
           d="m 31.341797,274.21847 c -0.725914,0 -1.228843,0.083 -1.508789,0.24902 -0.27995,0.16602 -0.419924,0.44922 -0.419922,0.84961 -2e-6,0.31901 0.104165,0.57292 0.3125,0.76172 0.211586,0.18555 0.498045,0.27832 0.859375,0.27832 0.498044,0 0.896806,-0.17578 1.196289,-0.52734 0.30273,-0.35482 0.454097,-0.8252 0.454102,-1.41114 l 0,-0.20019 -0.893555,0 m 1.791992,-0.3711 0,3.12012 -0.898437,0 0,-0.83008 c -0.205083,0.33204 -0.460616,0.5778 -0.766602,0.73731 -0.305993,0.15625 -0.680341,0.23437 -1.123047,0.23437 -0.559898,0 -1.005861,-0.15625 -1.337891,-0.46875 -0.328776,-0.31575 -0.493164,-0.7373 -0.493164,-1.26465 0,-0.61523 0.205078,-1.07909 0.615235,-1.3916 0.41341,-0.31249 1.028643,-0.46874 1.845703,-0.46875 l 1.259766,0 0,-0.0879 c -5e-6,-0.4134 -0.136723,-0.73242 -0.410157,-0.95703 -0.270186,-0.22786 -0.651045,-0.34179 -1.142578,-0.3418 -0.312502,1e-5 -0.616864,0.0374 -0.913086,0.11231 -0.296225,0.0749 -0.581056,0.18718 -0.854492,0.33691 l 0,-0.83007 c 0.328775,-0.12695 0.647785,-0.22135 0.957031,-0.28321 0.309243,-0.0651 0.610349,-0.0976 0.903321,-0.0976 0.791012,0 1.381831,0.20508 1.772461,0.61523 0.39062,0.41016 0.585932,1.03191 0.585937,1.86523"
           inkscape:connector-curvature="0" /><path
           id="path3191"
           style="font-size:10px;line-height:125%;font-family:Sans;-inkscape-font-specification:Sans"
           d="m 39.535156,273.66671 0,3.30078 -0.898437,0 0,-3.27148 c -5e-6,-0.51758 -0.100916,-0.90495 -0.302735,-1.16211 -0.201827,-0.25716 -0.504561,-0.38574 -0.908203,-0.38574 -0.485029,0 -0.867515,0.15462 -1.147461,0.46386 -0.27995,0.30925 -0.419923,0.7308 -0.419922,1.26465 l 0,3.09082 -0.90332,0 0,-5.46875 0.90332,0 0,0.84961 c 0.214842,-0.32877 0.467121,-0.57454 0.756836,-0.7373 0.292966,-0.16276 0.62988,-0.24414 1.010743,-0.24414 0.628251,0 1.103511,0.19531 1.425781,0.58593 0.32226,0.38738 0.483393,0.95867 0.483398,1.71387"
           inkscape:connector-curvature="0" /><path
           id="path3193"
           style="font-size:10px;line-height:125%;font-family:Sans;-inkscape-font-specification:Sans"
           d="m 41.244141,274.80929 0,-3.31055 0.898437,0 0,3.27637 c -2e-6,0.51758 0.10091,0.90658 0.302734,1.16699 0.201821,0.25716 0.504555,0.38574 0.908204,0.38574 0.485022,0 0.867509,-0.15462 1.147461,-0.46386 0.283198,-0.30925 0.4248,-0.7308 0.424804,-1.26465 l 0,-3.10059 0.898438,0 0,5.46875 -0.898438,0 0,-0.83984 c -0.218103,0.33203 -0.472009,0.57943 -0.761719,0.74219 -0.286461,0.1595 -0.62012,0.23925 -1.000976,0.23925 -0.628257,0 -1.105145,-0.19531 -1.430664,-0.58593 -0.325522,-0.39063 -0.488282,-0.96192 -0.488281,-1.71387 m 2.260742,-3.44238 0,0"
           inkscape:connector-curvature="0" /><path
           id="path3195"
           style="font-size:10px;line-height:125%;font-family:Sans;-inkscape-font-specification:Sans"
           d="m 50.453125,269.36984 0,0.74707 -0.859375,0 c -0.322268,0 -0.546877,0.0651 -0.673828,0.19531 -0.1237,0.13021 -0.185549,0.36459 -0.185547,0.70312 l 0,0.4834 1.479492,0 0,0.69824 -1.479492,0 0,4.77051 -0.90332,0 0,-4.77051 -0.859375,0 0,-0.69824 0.859375,0 0,-0.38086 c -10e-7,-0.60872 0.1416,-1.05142 0.424804,-1.32812 0.283202,-0.27994 0.73242,-0.41992 1.347657,-0.41992 l 0.849609,0"
           inkscape:connector-curvature="0" /><path
           id="path3197"
           style="font-size:10px;line-height:125%;font-family:Sans;-inkscape-font-specification:Sans"
           d="m 53.685547,274.21847 c -0.725914,0 -1.228843,0.083 -1.508789,0.24902 -0.27995,0.16602 -0.419924,0.44922 -0.419922,0.84961 -2e-6,0.31901 0.104165,0.57292 0.3125,0.76172 0.211586,0.18555 0.498045,0.27832 0.859375,0.27832 0.498044,0 0.896806,-0.17578 1.196289,-0.52734 0.30273,-0.35482 0.454097,-0.8252 0.454102,-1.41114 l 0,-0.20019 -0.893555,0 m 1.791992,-0.3711 0,3.12012 -0.898437,0 0,-0.83008 c -0.205083,0.33204 -0.460616,0.5778 -0.766602,0.73731 -0.305993,0.15625 -0.680341,0.23437 -1.123047,0.23437 -0.559898,0 -1.005861,-0.15625 -1.337891,-0.46875 -0.328776,-0.31575 -0.493164,-0.7373 -0.493164,-1.26465 0,-0.61523 0.205078,-1.07909 0.615235,-1.3916 0.41341,-0.31249 1.028643,-0.46874 1.845703,-0.46875 l 1.259766,0 0,-0.0879 c -5e-6,-0.4134 -0.136723,-0.73242 -0.410157,-0.95703 -0.270186,-0.22786 -0.651045,-0.34179 -1.142578,-0.3418 -0.312502,1e-5 -0.616864,0.0374 -0.913086,0.11231 -0.296225,0.0749 -0.581056,0.18718 -0.854492,0.33691 l 0,-0.83007 c 0.328775,-0.12695 0.647785,-0.22135 0.957031,-0.28321 0.309243,-0.0651 0.610349,-0.0976 0.903321,-0.0976 0.791012,0 1.381831,0.20508 1.772461,0.61523 0.39062,0.41016 0.585932,1.03191 0.585937,1.86523"
           inkscape:connector-curvature="0" /><path
           id="path3199"
           style="font-size:10px;line-height:125%;font-family:Sans;-inkscape-font-specification:Sans"
           d="m 61.268555,271.7087 0,0.83985 c -0.253911,-0.13997 -0.509445,-0.24414 -0.766602,-0.3125 -0.25391,-0.0716 -0.511071,-0.10742 -0.771484,-0.10743 -0.582685,10e-6 -1.035159,0.18556 -1.357422,0.55665 -0.322267,0.36784 -0.4834,0.88542 -0.483399,1.55273 -1e-6,0.66732 0.161132,1.18652 0.483399,1.55762 0.322263,0.36784 0.774737,0.55176 1.357422,0.55175 0.260413,10e-6 0.517574,-0.0342 0.771484,-0.10253 0.257157,-0.0716 0.512691,-0.17741 0.766602,-0.31739 l 0,0.83008 c -0.250656,0.11719 -0.511072,0.20508 -0.78125,0.26367 -0.266931,0.0586 -0.551762,0.0879 -0.854493,0.0879 -0.82357,0 -1.477866,-0.25879 -1.96289,-0.77636 -0.485027,-0.51758 -0.72754,-1.21582 -0.727539,-2.09473 -10e-7,-0.89192 0.24414,-1.59342 0.732422,-2.10449 0.491534,-0.51107 1.163734,-0.7666 2.016601,-0.7666 0.276689,0 0.546871,0.0293 0.810547,0.0879 0.263668,0.0553 0.519201,0.13998 0.766602,0.2539"
           inkscape:connector-curvature="0" /><path
           id="path3201"
           style="font-size:10px;line-height:125%;font-family:Sans;-inkscape-font-specification:Sans"
           d="m 63.729492,269.94601 0,1.55273 1.850586,0 0,0.69824 -1.850586,0 0,2.96875 c -2e-6,0.44597 0.06022,0.73243 0.180664,0.85938 0.123696,0.12695 0.372719,0.19043 0.747071,0.19043 l 0.922851,0 0,0.75195 -0.922851,0 c -0.693362,0 -1.171877,-0.12858 -1.435547,-0.38574 -0.263673,-0.26042 -0.395509,-0.73242 -0.395508,-1.41602 l 0,-2.96875 -0.65918,0 0,-0.69824 0.65918,0 0,-1.55273 0.90332,0"
           inkscape:connector-curvature="0" /><path
           id="path3203"
           style="font-size:10px;line-height:125%;font-family:Sans;-inkscape-font-specification:Sans"
           d="m 66.673828,274.80929 0,-3.31055 0.898438,0 0,3.27637 c -2e-6,0.51758 0.100909,0.90658 0.302734,1.16699 0.201821,0.25716 0.504555,0.38574 0.908203,0.38574 0.485023,0 0.867509,-0.15462 1.147461,-0.46386 0.283199,-0.30925 0.4248,-0.7308 0.424805,-1.26465 l 0,-3.10059 0.898437,0 0,5.46875 -0.898437,0 0,-0.83984 c -0.218104,0.33203 -0.47201,0.57943 -0.761719,0.74219 -0.286462,0.1595 -0.62012,0.23925 -1.000977,0.23925 -0.628257,0 -1.105144,-0.19531 -1.430664,-0.58593 -0.325521,-0.39063 -0.488282,-0.96192 -0.488281,-1.71387 m 2.260742,-3.44238 0,0"
           inkscape:connector-curvature="0" /><path
           id="path3205"
           style="font-size:10px;line-height:125%;font-family:Sans;-inkscape-font-specification:Sans"
           d="m 76.283203,272.33859 c -0.100915,-0.0586 -0.211592,-0.10091 -0.332031,-0.12696 -0.117191,-0.0293 -0.247399,-0.0439 -0.390625,-0.0439 -0.507816,0 -0.89844,0.16602 -1.171875,0.49804 -0.270184,0.32878 -0.405275,0.80242 -0.405274,1.4209 l 0,2.88086 -0.90332,0 0,-5.46875 0.90332,0 0,0.84961 c 0.188801,-0.33203 0.434569,-0.57779 0.737305,-0.7373 0.302732,-0.16276 0.67057,-0.24414 1.103516,-0.24414 0.06185,0 0.130204,0.005 0.205078,0.0146 0.07487,0.007 0.157873,0.0179 0.249023,0.0342 l 0.0049,0.92286"
           inkscape:connector-curvature="0" /><path
           id="path3207"
           style="font-size:10px;line-height:125%;font-family:Sans;-inkscape-font-specification:Sans"
           d="m 81.698242,274.00851 0,0.43945 -4.130859,0 c 0.03906,0.61849 0.224607,1.0905 0.55664,1.41602 0.335285,0.32226 0.800779,0.4834 1.396485,0.48339 0.345048,10e-6 0.678707,-0.0423 1.000976,-0.12695 0.325516,-0.0846 0.647782,-0.21159 0.966797,-0.38086 l 0,0.84961 c -0.32227,0.13672 -0.652674,0.24089 -0.991211,0.3125 -0.338545,0.0716 -0.68197,0.10742 -1.030273,0.10742 -0.872398,0 -1.56413,-0.2539 -2.075195,-0.76172 -0.507814,-0.50781 -0.76172,-1.19466 -0.761719,-2.06054 -1e-6,-0.89518 0.240884,-1.60482 0.722656,-2.12891 0.485024,-0.52734 1.137693,-0.79101 1.958008,-0.79101 0.735673,0 1.316727,0.23763 1.743164,0.71289 0.429682,0.47201 0.644526,1.11491 0.644531,1.92871 m -0.898437,-0.26367 c -0.0065,-0.49154 -0.144862,-0.88379 -0.415039,-1.17676 -0.266931,-0.29297 -0.621749,-0.43945 -1.064454,-0.43946 -0.501304,10e-6 -0.903322,0.14161 -1.206054,0.42481 -0.299481,0.28321 -0.472007,0.68197 -0.517578,1.19629 l 3.203125,-0.005"
           inkscape:connector-curvature="0" /><path
           id="path3209"
           style="font-size:10px;line-height:125%;font-family:Sans;-inkscape-font-specification:Sans"
           d="m 86.341797,272.33859 c -0.100916,-0.0586 -0.211593,-0.10091 -0.332031,-0.12696 -0.117192,-0.0293 -0.2474,-0.0439 -0.390625,-0.0439 -0.507816,0 -0.89844,0.16602 -1.171875,0.49804 -0.270185,0.32878 -0.405276,0.80242 -0.405274,1.4209 l 0,2.88086 -0.90332,0 0,-5.46875 0.90332,0 0,0.84961 c 0.1888,-0.33203 0.434568,-0.57779 0.737305,-0.7373 0.302731,-0.16276 0.67057,-0.24414 1.103515,-0.24414 0.06185,0 0.130205,0.005 0.205079,0.0146 0.07487,0.007 0.157873,0.0179 0.249023,0.0342 l 0.0049,0.92286"
           inkscape:connector-curvature="0" /><path
           id="path3211"
           style="font-size:10px;line-height:125%;font-family:Sans;-inkscape-font-specification:Sans"
           d="m 87.347656,275.72726 1.030274,0 0,1.24023 -1.030274,0 0,-1.24023 m 0,-3.93067 1.030274,0 0,1.24024 -1.030274,0 0,-1.24024"
           inkscape:connector-curvature="0" /><path
           id="path3213"
           style="font-size:10px;line-height:125%;font-family:Sans;-inkscape-font-specification:Sans"
           d="m 109.91113,273.54952 c 0.21159,0.0716 0.41666,0.22462 0.61524,0.45899 0.20181,0.23437 0.40364,0.55664 0.60547,0.96679 l 1.00097,1.99219 -1.05957,0 -0.93261,-1.87012 c -0.24089,-0.48827 -0.47527,-0.81217 -0.70313,-0.97168 -0.22461,-0.1595 -0.53223,-0.23925 -0.92285,-0.23925 l -1.07422,0 0,3.08105 -0.98633,0 0,-7.29004 2.22656,0 c 0.83333,10e-6 1.45508,0.17416 1.86524,0.52246 0.41015,0.34832 0.61523,0.87403 0.61523,1.57715 0,0.45899 -0.10742,0.83985 -0.32226,1.14258 -0.2116,0.30274 -0.52084,0.5127 -0.92774,0.62988 m -2.4707,-3.06152 0,2.58789 1.24023,0 c 0.47526,0 0.83333,-0.10905 1.07422,-0.32715 0.24414,-0.22135 0.36621,-0.54524 0.36621,-0.97168 0,-0.42642 -0.12207,-0.74706 -0.36621,-0.96191 -0.24089,-0.21809 -0.59896,-0.32714 -1.07422,-0.32715 l -1.24023,0"
           inkscape:connector-curvature="0" /><path
           id="path3215"
           style="font-size:10px;line-height:125%;font-family:Sans;-inkscape-font-specification:Sans"
           d="m 117.59668,274.00851 0,0.43945 -4.13086,0 c 0.0391,0.61849 0.22461,1.0905 0.55664,1.41602 0.33529,0.32226 0.80078,0.4834 1.39649,0.48339 0.34504,10e-6 0.6787,-0.0423 1.00097,-0.12695 0.32552,-0.0846 0.64778,-0.21159 0.9668,-0.38086 l 0,0.84961 c -0.32227,0.13672 -0.65268,0.24089 -0.99121,0.3125 -0.33855,0.0716 -0.68197,0.10742 -1.03028,0.10742 -0.87239,0 -1.56413,-0.2539 -2.07519,-0.76172 -0.50781,-0.50781 -0.76172,-1.19466 -0.76172,-2.06054 0,-0.89518 0.24088,-1.60482 0.72266,-2.12891 0.48502,-0.52734 1.13769,-0.79101 1.958,-0.79101 0.73568,0 1.31673,0.23763 1.74317,0.71289 0.42968,0.47201 0.64452,1.11491 0.64453,1.92871 m -0.89844,-0.26367 c -0.007,-0.49154 -0.14486,-0.88379 -0.41504,-1.17676 -0.26693,-0.29297 -0.62175,-0.43945 -1.06445,-0.43946 -0.5013,10e-6 -0.90332,0.14161 -1.20605,0.42481 -0.29949,0.28321 -0.47201,0.68197 -0.51758,1.19629 l 3.20312,-0.005"
           inkscape:connector-curvature="0" /><path
           id="path3217"
           style="font-size:10px;line-height:125%;font-family:Sans;-inkscape-font-specification:Sans"
           d="m 122.99707,274.238 c 0,-0.6608 -0.13672,-1.17838 -0.41016,-1.55273 -0.27018,-0.3776 -0.6429,-0.56641 -1.11816,-0.56641 -0.47526,0 -0.84961,0.18881 -1.12305,0.56641 -0.27018,0.37435 -0.40527,0.89193 -0.40527,1.55273 0,0.66081 0.13509,1.18001 0.40527,1.55762 0.27344,0.37435 0.64779,0.56152 1.12305,0.56152 0.47526,0 0.84798,-0.18717 1.11816,-0.56152 0.27344,-0.37761 0.41016,-0.89681 0.41016,-1.55762 m -3.05664,-1.90918 c 0.1888,-0.32552 0.42643,-0.5664 0.71289,-0.72266 0.28971,-0.1595 0.63476,-0.23925 1.03516,-0.23925 0.66405,0 1.20279,0.26367 1.61621,0.79101 0.41666,0.52735 0.62499,1.22071 0.625,2.08008 -10e-6,0.85938 -0.20834,1.55273 -0.625,2.08008 -0.41342,0.52734 -0.95216,0.79101 -1.61621,0.79101 -0.4004,0 -0.74545,-0.0781 -1.03516,-0.23437 -0.28646,-0.15951 -0.52409,-0.40202 -0.71289,-0.72754 l 0,0.82031 -0.90332,0 0,-7.59765 0.90332,0 0,2.95898"
           inkscape:connector-curvature="0" /><path
           id="path3219"
           style="font-size:10px;line-height:125%;font-family:Sans;-inkscape-font-specification:Sans"
           d="m 130.09668,274.00851 0,0.43945 -4.13086,0 c 0.0391,0.61849 0.22461,1.0905 0.55664,1.41602 0.33529,0.32226 0.80078,0.4834 1.39649,0.48339 0.34504,10e-6 0.6787,-0.0423 1.00097,-0.12695 0.32552,-0.0846 0.64778,-0.21159 0.9668,-0.38086 l 0,0.84961 c -0.32227,0.13672 -0.65268,0.24089 -0.99121,0.3125 -0.33855,0.0716 -0.68197,0.10742 -1.03028,0.10742 -0.87239,0 -1.56413,-0.2539 -2.07519,-0.76172 -0.50781,-0.50781 -0.76172,-1.19466 -0.76172,-2.06054 0,-0.89518 0.24088,-1.60482 0.72266,-2.12891 0.48502,-0.52734 1.13769,-0.79101 1.958,-0.79101 0.73568,0 1.31673,0.23763 1.74317,0.71289 0.42968,0.47201 0.64452,1.11491 0.64453,1.92871 m -0.89844,-0.26367 c -0.007,-0.49154 -0.14486,-0.88379 -0.41504,-1.17676 -0.26693,-0.29297 -0.62175,-0.43945 -1.06445,-0.43946 -0.5013,10e-6 -0.90332,0.14161 -1.20605,0.42481 -0.29949,0.28321 -0.47201,0.68197 -0.51758,1.19629 l 3.20312,-0.005"
           inkscape:connector-curvature="0" /><path
           id="path3221"
           style="font-size:10px;line-height:125%;font-family:Sans;-inkscape-font-specification:Sans"
           d="m 131.57129,269.36984 0.89844,0 0,7.59765 -0.89844,0 0,-7.59765"
           inkscape:connector-curvature="0" /><path
           id="path3223"
           style="font-size:10px;line-height:125%;font-family:Sans;-inkscape-font-specification:Sans"
           d="m 136.55664,269.67745 6.16699,0 0,0.83008 -2.58789,0 0,6.45996 -0.99121,0 0,-6.45996 -2.58789,0 0,-0.83008"
           inkscape:connector-curvature="0" /><path
           id="path3225"
           style="font-size:10px;line-height:125%;font-family:Sans;-inkscape-font-specification:Sans"
           d="m 146.62012,274.00851 0,0.43945 -4.13086,0 c 0.0391,0.61849 0.22461,1.0905 0.55664,1.41602 0.33528,0.32226 0.80078,0.4834 1.39648,0.48339 0.34505,10e-6 0.67871,-0.0423 1.00098,-0.12695 0.32552,-0.0846 0.64778,-0.21159 0.9668,-0.38086 l 0,0.84961 c -0.32227,0.13672 -0.65268,0.24089 -0.99121,0.3125 -0.33855,0.0716 -0.68197,0.10742 -1.03028,0.10742 -0.8724,0 -1.56413,-0.2539 -2.07519,-0.76172 -0.50782,-0.50781 -0.76172,-1.19466 -0.76172,-2.06054 0,-0.89518 0.24088,-1.60482 0.72265,-2.12891 0.48503,-0.52734 1.1377,-0.79101 1.95801,-0.79101 0.73567,0 1.31673,0.23763 1.74317,0.71289 0.42968,0.47201 0.64452,1.11491 0.64453,1.92871 m -0.89844,-0.26367 c -0.007,-0.49154 -0.14486,-0.88379 -0.41504,-1.17676 -0.26693,-0.29297 -0.62175,-0.43945 -1.06445,-0.43946 -0.50131,10e-6 -0.90333,0.14161 -1.20606,0.42481 -0.29948,0.28321 -0.472,0.68197 -0.51758,1.19629 l 3.20313,-0.005"
           inkscape:connector-curvature="0" /><path
           id="path3227"
           style="font-size:10px;line-height:125%;font-family:Sans;-inkscape-font-specification:Sans"
           d="m 152.03027,271.7087 0,0.83985 c -0.25391,-0.13997 -0.50944,-0.24414 -0.7666,-0.3125 -0.25391,-0.0716 -0.51107,-0.10742 -0.77148,-0.10743 -0.58269,10e-6 -1.03516,0.18556 -1.35742,0.55665 -0.32227,0.36784 -0.4834,0.88542 -0.4834,1.55273 0,0.66732 0.16113,1.18652 0.4834,1.55762 0.32226,0.36784 0.77473,0.55176 1.35742,0.55175 0.26041,10e-6 0.51757,-0.0342 0.77148,-0.10253 0.25716,-0.0716 0.51269,-0.17741 0.7666,-0.31739 l 0,0.83008 c -0.25065,0.11719 -0.51107,0.20508 -0.78125,0.26367 -0.26693,0.0586 -0.55176,0.0879 -0.85449,0.0879 -0.82357,0 -1.47787,-0.25879 -1.96289,-0.77636 -0.48503,-0.51758 -0.72754,-1.21582 -0.72754,-2.09473 0,-0.89192 0.24414,-1.59342 0.73242,-2.10449 0.49154,-0.51107 1.16374,-0.7666 2.0166,-0.7666 0.27669,0 0.54688,0.0293 0.81055,0.0879 0.26367,0.0553 0.5192,0.13998 0.7666,0.2539"
           inkscape:connector-curvature="0" /><path
           id="path3229"
           style="font-size:10px;line-height:125%;font-family:Sans;-inkscape-font-specification:Sans"
           d="m 158.14844,273.66671 0,3.30078 -0.89844,0 0,-3.27148 c 0,-0.51758 -0.10092,-0.90495 -0.30273,-1.16211 -0.20183,-0.25716 -0.50457,-0.38574 -0.90821,-0.38574 -0.48503,0 -0.86751,0.15462 -1.14746,0.46386 -0.27995,0.30925 -0.41992,0.7308 -0.41992,1.26465 l 0,3.09082 -0.90332,0 0,-7.59765 0.90332,0 0,2.97851 c 0.21484,-0.32877 0.46712,-0.57454 0.75684,-0.7373 0.29296,-0.16276 0.62988,-0.24414 1.01074,-0.24414 0.62825,0 1.10351,0.19531 1.42578,0.58593 0.32226,0.38738 0.48339,0.95867 0.4834,1.71387"
           inkscape:connector-curvature="0" /><path
           id="path3231"
           style="font-size:10px;line-height:125%;font-family:Sans;-inkscape-font-specification:Sans"
           d="m 164.49609,273.66671 0,3.30078 -0.89843,0 0,-3.27148 c -1e-5,-0.51758 -0.10092,-0.90495 -0.30274,-1.16211 -0.20183,-0.25716 -0.50456,-0.38574 -0.9082,-0.38574 -0.48503,0 -0.86752,0.15462 -1.14746,0.46386 -0.27995,0.30925 -0.41993,0.7308 -0.41992,1.26465 l 0,3.09082 -0.90332,0 0,-5.46875 0.90332,0 0,0.84961 c 0.21484,-0.32877 0.46712,-0.57454 0.75683,-0.7373 0.29297,-0.16276 0.62988,-0.24414 1.01074,-0.24414 0.62826,0 1.10352,0.19531 1.42579,0.58593 0.32226,0.38738 0.48339,0.95867 0.48339,1.71387"
           inkscape:connector-curvature="0" /><path
           id="path3233"
           style="font-size:10px;line-height:125%;font-family:Sans;-inkscape-font-specification:Sans"
           d="m 168.41699,272.12862 c -0.48177,10e-6 -0.86263,0.18881 -1.14258,0.56641 -0.27995,0.37435 -0.41992,0.88868 -0.41992,1.54297 0,0.6543 0.13835,1.17025 0.41504,1.54785 0.27995,0.37435 0.66243,0.56153 1.14746,0.56152 0.47851,10e-6 0.85775,-0.1888 1.1377,-0.5664 0.27994,-0.3776 0.41991,-0.89193 0.41992,-1.54297 -1e-5,-0.64778 -0.13998,-1.16048 -0.41992,-1.53809 -0.27995,-0.38085 -0.65919,-0.57128 -1.1377,-0.57129 m 0,-0.76171 c 0.78125,0 1.39485,0.25391 1.84082,0.76171 0.44596,0.50782 0.66894,1.21095 0.66895,2.10938 -1e-5,0.89518 -0.22299,1.59831 -0.66895,2.10937 -0.44597,0.50782 -1.05957,0.76172 -1.84082,0.76172 -0.78451,0 -1.39974,-0.2539 -1.8457,-0.76172 -0.44271,-0.51106 -0.66406,-1.21419 -0.66406,-2.10937 0,-0.89843 0.22135,-1.60156 0.66406,-2.10938 0.44596,-0.5078 1.06119,-0.76171 1.8457,-0.76171"
           inkscape:connector-curvature="0" /><path
           id="path3235"
           style="font-size:10px;line-height:125%;font-family:Sans;-inkscape-font-specification:Sans"
           d="m 172.41113,269.36984 0.89844,0 0,7.59765 -0.89844,0 0,-7.59765"
           inkscape:connector-curvature="0" /><path
           id="path3237"
           style="font-size:10px;line-height:125%;font-family:Sans;-inkscape-font-specification:Sans"
           d="m 177.30371,272.12862 c -0.48177,10e-6 -0.86263,0.18881 -1.14258,0.56641 -0.27995,0.37435 -0.41992,0.88868 -0.41992,1.54297 0,0.6543 0.13835,1.17025 0.41504,1.54785 0.27995,0.37435 0.66243,0.56153 1.14746,0.56152 0.47851,10e-6 0.85774,-0.1888 1.1377,-0.5664 0.27994,-0.3776 0.41991,-0.89193 0.41992,-1.54297 -1e-5,-0.64778 -0.13998,-1.16048 -0.41992,-1.53809 -0.27996,-0.38085 -0.65919,-0.57128 -1.1377,-0.57129 m 0,-0.76171 c 0.78125,0 1.39485,0.25391 1.84082,0.76171 0.44596,0.50782 0.66894,1.21095 0.66895,2.10938 -1e-5,0.89518 -0.22299,1.59831 -0.66895,2.10937 -0.44597,0.50782 -1.05957,0.76172 -1.84082,0.76172 -0.78451,0 -1.39974,-0.2539 -1.8457,-0.76172 -0.44271,-0.51106 -0.66407,-1.21419 -0.66406,-2.10937 -1e-5,-0.89843 0.22135,-1.60156 0.66406,-2.10938 0.44596,-0.5078 1.06119,-0.76171 1.8457,-0.76171"
           inkscape:connector-curvature="0" /><path
           id="path3239"
           style="font-size:10px;line-height:125%;font-family:Sans;-inkscape-font-specification:Sans"
           d="m 184.89648,274.16964 c 0,-0.65104 -0.13509,-1.15559 -0.40527,-1.51367 -0.26693,-0.35807 -0.64291,-0.53711 -1.12793,-0.53711 -0.48177,0 -0.85775,0.17904 -1.12793,0.53711 -0.26693,0.35808 -0.40039,0.86263 -0.40039,1.51367 0,0.64779 0.13346,1.15072 0.40039,1.50879 0.27018,0.35807 0.64616,0.53711 1.12793,0.53711 0.48502,0 0.861,-0.17904 1.12793,-0.53711 0.27018,-0.35807 0.40527,-0.861 0.40527,-1.50879 m 0.89844,2.11914 c 0,0.93099 -0.20671,1.62272 -0.62012,2.0752 -0.41341,0.45572 -1.04655,0.68359 -1.89941,0.68359 -0.31576,0 -0.61361,-0.0244 -0.89355,-0.0732 -0.27995,-0.0456 -0.55176,-0.11719 -0.81543,-0.21485 l 0,-0.87402 c 0.26367,0.14323 0.52408,0.24902 0.78125,0.31738 0.25716,0.0684 0.5192,0.10254 0.78613,0.10254 0.58919,0 1.03027,-0.15462 1.32324,-0.46386 0.29297,-0.306 0.43945,-0.76986 0.43945,-1.39161 l 0,-0.44433 c -0.18555,0.32226 -0.42318,0.56315 -0.71289,0.72265 -0.28971,0.15951 -0.63639,0.23926 -1.04004,0.23926 -0.67057,0 -1.21093,-0.25553 -1.62109,-0.7666 -0.41016,-0.51107 -0.61523,-1.18815 -0.61523,-2.03125 0,-0.84635 0.20507,-1.52506 0.61523,-2.03613 0.41016,-0.51107 0.95052,-0.7666 1.62109,-0.7666 0.40365,0 0.75033,0.0797 1.04004,0.23925 0.28971,0.15951 0.52734,0.4004 0.71289,0.72266 l 0,-0.83008 0.89844,0 0,4.79004"
           inkscape:connector-curvature="0" /><path
           id="path3241"
           style="font-size:10px;line-height:125%;font-family:Sans;-inkscape-font-specification:Sans"
           d="m 189.9209,277.4753 c -0.25391,0.65104 -0.50131,1.07585 -0.74219,1.27442 -0.24089,0.19856 -0.56315,0.29785 -0.9668,0.29785 l -0.71777,0 0,-0.75195 0.52734,0 c 0.2474,0 0.43946,-0.0586 0.57618,-0.17578 0.13671,-0.11719 0.28808,-0.39389 0.4541,-0.83008 l 0.16113,-0.41016 -2.21191,-5.38086 0.95214,0 1.70899,4.27735 1.70898,-4.27735 0.95215,0 -2.40234,5.97656"
           inkscape:connector-curvature="0" /><text
           xml:space="preserve"
           style="font-size:9.94596863px;font-style:normal;font-weight:normal;line-height:125%;letter-spacing:0px;word-spacing:0px;fill:#000000;fill-opacity:1;stroke:none;font-family:Sans"
           x="105.51527"
           y="264.32703"
           id="text6700"
           sodipodi:linespacing="125%"><tspan
             sodipodi:role="line"
             id="tspan6702"
             x="105.51527"
             y="264.32703">chronos</tspan></text>
</g><g
         id="g6976"
         transform="matrix(2.4062261,0,0,-2.406237,-255.28049,1401.9257)"><g
           transform="matrix(1.0022808,0,0,1.0022808,-152.33321,-1.7327385)"
           id="g7064"><g
             id="g7066"><path
               clip-rule="evenodd"
               d="m 325.55,254.111 c -0.021,0.69 0.371,1.216 0.337,1.814 -0.014,0.207 -0.213,0.45 -0.034,0.739 -0.146,0.141 -0.354,0.26 -0.604,0.201 -0.222,-0.3 0.065,-0.645 -0.034,-1.007 -0.034,-0.128 -0.192,-0.184 -0.303,-0.337 -0.134,-0.186 -0.229,-0.418 -0.471,-0.503 -1.078,0.103 -2.027,0.054 -3.023,0.034 0.297,0.409 0.529,0.815 0.773,1.243 0.394,0.69 1.127,1.166 1.344,2.015 -0.117,0.197 -0.336,0.291 -0.369,0.572 -0.133,-0.01 -0.103,0.143 -0.235,0.133 -0.531,0.981 -1.215,1.808 -1.746,2.789 0.521,-0.244 1.068,0.125 1.612,0.101 0.26,-0.012 0.567,-0.137 0.873,-0.134 0.439,0.003 0.854,0.182 1.174,0.067 0.452,-0.161 0.486,-0.907 0.707,-1.377 0.177,-0.013 0.272,-0.109 0.471,-0.101 0.331,0.753 0.017,1.696 -0.035,2.519 -0.012,0.205 0.098,0.406 -0.066,0.571 -0.322,0.143 -0.562,-0.157 -0.772,-0.202 -0.55,-0.117 -1.277,0.094 -1.848,0.035 -0.245,-0.027 -0.546,-0.058 -0.84,0 -0.313,0.061 -0.653,0.162 -1.007,0.235 -0.133,0.026 -0.317,0.088 -0.438,0.101 -0.44,0.044 -0.852,-0.278 -1.242,-0.033 -0.141,0.016 -0.069,-0.177 -0.2,-0.168 -0.155,-0.03 -0.211,0.037 -0.236,0.134 -0.206,-0.118 -0.562,-0.089 -0.672,-0.303 0.145,-0.275 0.125,-0.506 0.269,-0.772 0.1,-0.052 0.229,-0.113 0.336,-0.067 0.71,-0.917 1.453,-2.219 2.184,-3.124 0.146,-0.184 0.291,-0.187 0.302,-0.336 0.015,-0.19 -0.412,-0.61 -0.604,-0.873 -0.255,-0.351 -0.371,-0.574 -0.605,-0.875 -0.308,-0.396 -0.852,-0.85 -1.108,-1.275 -0.149,-0.25 -0.201,-0.646 -0.335,-0.874 -0.178,-0.304 -0.665,-0.497 -0.437,-0.974 0.204,0.025 0.284,-0.074 0.471,-0.067 0.121,-0.046 0.082,-0.253 0.201,-0.302 0.187,0.004 0.171,0.209 0.336,0.235 2.045,-0.114 3.989,0.243 5.874,0.166 z"
               id="path7068"
               inkscape:connector-curvature="0"
               style="fill-rule:evenodd" /><path
               clip-rule="evenodd"
               d="m 308.554,254.01 c 0.119,0.162 0.092,0.583 -0.067,0.672 -1.097,-0.246 -1.247,1.298 -1.175,2.284 0.055,0.764 0.107,1.472 0.167,2.284 0.056,0.749 -0.035,1.502 0,2.083 0.048,0.783 0.354,1.728 0,2.284 -0.399,-0.025 -0.355,-0.496 -0.771,-0.504 -0.363,-0.87 -1.305,-1.159 -1.813,-1.881 -1.467,-1.232 -2.431,-2.967 -3.595,-4.5 -0.008,1.365 -0.175,3.429 -0.034,4.971 0.065,0.722 0.518,1.208 1.243,1.143 0.093,0.213 0.128,0.527 0,0.705 -0.42,-0.064 -0.705,0.116 -1.075,0.067 -0.443,-0.059 -0.796,-0.371 -1.21,-0.335 -0.37,0.031 -0.667,0.309 -1.072,0.1 -0.089,-0.152 -0.038,-0.454 0,-0.672 0.104,-0.103 0.468,0.036 0.671,-0.033 0.066,-0.023 0.457,-0.428 0.503,-0.538 0.096,-0.236 -0.001,-0.493 -0.034,-0.706 -0.015,-0.099 0.038,-0.228 0.034,-0.336 -0.007,-0.144 -0.087,-0.281 -0.102,-0.437 -0.028,-0.315 0.066,-0.677 0.067,-1.041 10e-4,-0.67 0.067,-1.461 0.067,-2.251 0,-1.021 -0.19,-1.973 -0.84,-2.418 -0.282,0.068 -0.792,-0.217 -0.805,-0.437 -0.024,-0.383 0.568,-0.234 0.772,-0.504 0.443,0.325 1.406,0.426 2.081,0.303 0.265,0.317 0.297,0.868 0.673,1.074 0.307,0.658 0.81,1.214 1.275,1.78 0.37,0.45 0.663,0.954 1.008,1.411 0.523,0.692 1.206,1.269 1.915,1.78 0.166,-0.314 0.012,-0.738 -0.034,-1.176 -0.104,-1.003 -0.07,-2.306 -0.066,-3.358 0.002,-0.491 -0.017,-0.995 -0.471,-1.042 -0.204,-0.021 -0.391,0.105 -0.57,0.135 -0.126,-0.179 -0.167,-0.5 -0.102,-0.772 0.689,-0.168 1.429,0.091 2.184,-0.034 -0.014,-0.081 0.062,-0.073 0.033,-0.168 0.36,0.167 0.748,0.152 1.143,0.067 z"
               id="path7070"
               inkscape:connector-curvature="0"
               style="fill-rule:evenodd" /><path
               clip-rule="evenodd"
               d="m 283.765,259.217 c -0.124,0.582 -0.085,1.197 -0.101,1.747 -0.007,0.256 -0.04,0.552 0,0.739 0.121,0.564 0.615,0.678 1.076,1.007 -0.012,0.156 -0.024,0.313 -0.067,0.437 -0.309,0.07 -0.802,0.05 -1.008,-0.168 -0.742,0.111 -1.861,0.101 -2.452,0.471 -0.159,-0.182 -0.363,-0.259 -0.335,-0.504 0.04,-0.358 0.926,-0.471 1.276,-0.571 0.154,-0.243 0.032,-0.545 0.033,-0.874 0.002,-0.667 0.143,-1.456 0.202,-2.216 0.051,-0.673 -0.133,-1.316 -0.134,-1.915 0,-0.129 0.07,-0.429 0.067,-0.57 -0.006,-0.224 -0.091,-0.651 -0.134,-0.974 -0.056,-0.425 0.009,-0.93 -0.504,-0.941 -0.258,-0.005 -0.62,0.104 -0.806,0.101 -0.194,-0.202 -0.246,-0.69 0.033,-0.839 1.115,-0.138 2.655,0 4.064,0 1.068,0 1.891,0.288 2.552,0.738 0.043,0.171 0.183,0.244 0.27,0.37 0.176,1.261 -0.285,2.917 -1.074,3.527 -0.252,0.194 -0.854,0.46 -1.178,0.437 -0.201,-0.015 -0.394,-0.18 -0.604,-0.202 -0.437,-0.046 -0.802,0.006 -1.176,0.2 z m 1.981,-1.579 c 0.087,-0.399 0.284,-0.824 0.269,-1.277 -0.034,-1.035 -0.838,-1.673 -2.015,-1.377 -0.23,1.09 -0.239,2.231 -0.067,3.325 0.632,0.06 1.577,-0.114 1.813,-0.671 z"
               id="path7072"
               inkscape:connector-curvature="0"
               style="fill-rule:evenodd" /><path
               clip-rule="evenodd"
               d="m 290.45,255.521 c 0.106,-0.049 0.197,-0.114 0.368,-0.101 0.463,-0.445 0.901,-0.911 1.579,-1.142 0.725,-0.08 1.28,-0.3 2.115,-0.168 0.28,0.044 0.586,0.221 0.841,0.335 0.426,0.192 0.784,0.523 1.175,0.673 0.244,0.436 0.487,0.883 0.738,1.376 0.166,0.322 0.299,0.586 0.438,0.974 0.025,0.07 -0.003,0.152 0.035,0.235 0.701,1.609 0.146,3.519 -1.009,4.803 -0.055,0.061 -0.161,0.062 -0.237,0.134 -0.067,0.067 -0.073,0.186 -0.134,0.235 -0.709,0.586 -1.741,0.615 -3.021,0.672 -0.464,0.021 -0.916,0.08 -1.343,-0.067 -0.969,-0.333 -1.308,-1.264 -1.982,-2.015 -0.018,-0.51 -0.562,-0.782 -0.672,-1.31 -0.138,-0.653 0.047,-1.402 0.134,-1.982 0.041,-0.273 0.032,-0.55 0.101,-0.772 0.138,-0.443 0.468,-0.813 0.471,-1.209 0.133,-0.046 0.227,-0.131 0.337,-0.201 0.068,-0.109 -0.011,-0.364 0.066,-0.47 z m 5.776,1.412 c -0.088,-0.346 -0.296,-0.691 -0.436,-0.941 -0.066,-0.118 -0.103,-0.271 -0.168,-0.37 -0.646,-0.973 -2.437,-0.939 -3.225,-0.335 -0.385,0.294 -0.847,0.972 -1.041,1.444 -0.104,0.249 -0.103,0.544 -0.169,0.805 -0.105,0.415 -0.26,0.672 -0.201,1.176 0.033,0.288 0.082,0.621 0.1,0.974 0.022,0.387 0.086,0.917 0.169,1.343 0.06,0.301 0.194,0.784 0.303,0.941 0.069,0.101 0.611,0.529 0.706,0.571 0.093,0.041 0.265,0.011 0.437,0.067 0.34,0.11 0.595,0.34 1.074,0.302 0.423,-0.033 1.086,-0.26 1.377,-0.504 0.291,-0.243 0.565,-0.786 0.773,-1.243 0.342,-0.758 0.373,-1.632 0.47,-2.552 -0.157,-0.572 -0.04,-1.182 -0.169,-1.678 z"
               id="path7074"
               inkscape:connector-curvature="0"
               style="fill-rule:evenodd" /><path
               clip-rule="evenodd"
               d="m 313.525,254.648 c 0.874,-0.128 1.793,0.442 2.149,0.94 0.202,0.28 0.62,0.953 0.706,1.377 0.086,0.426 -0.021,0.675 -0.033,1.041 -0.027,0.869 0.396,1.703 0.135,2.52 -0.112,0.35 -0.672,0.958 -0.976,1.276 -0.56,0.589 -1.584,1.118 -2.82,0.806 -0.432,-0.109 -1.133,-0.62 -1.312,-1.109 -0.095,-0.264 -0.167,-0.685 -0.234,-1.041 -0.243,-1.295 -0.248,-2.924 0.168,-3.997 0.221,-0.569 0.443,-1.026 1.008,-1.31 0.121,-0.061 0.275,-0.059 0.404,-0.135 0.085,-0.052 0.15,-0.156 0.234,-0.202 0.13,-0.068 0.399,-0.14 0.571,-0.166 z"
               id="path7076"
               inkscape:connector-curvature="0"
               style="fill:#ffffff;fill-rule:evenodd" /><path
               clip-rule="evenodd"
               d="m 296.395,258.612 c -0.097,0.92 -0.128,1.794 -0.47,2.552 -0.208,0.457 -0.482,1 -0.773,1.243 -0.291,0.244 -0.954,0.471 -1.377,0.504 -0.479,0.038 -0.734,-0.192 -1.074,-0.302 -0.172,-0.056 -0.344,-0.026 -0.437,-0.067 -0.095,-0.042 -0.637,-0.471 -0.706,-0.571 -0.108,-0.157 -0.243,-0.64 -0.303,-0.941 -0.083,-0.426 -0.146,-0.956 -0.169,-1.343 -0.018,-0.354 -0.066,-0.687 -0.1,-0.974 -0.059,-0.504 0.096,-0.762 0.201,-1.176 0.066,-0.261 0.065,-0.557 0.169,-0.805 0.194,-0.472 0.656,-1.15 1.041,-1.444 0.788,-0.604 2.578,-0.637 3.225,0.335 0.065,0.099 0.102,0.252 0.168,0.37 0.14,0.25 0.348,0.595 0.436,0.941 0.129,0.495 0.012,1.105 0.169,1.678 z"
               id="path7078"
               inkscape:connector-curvature="0"
               style="fill:#ffffff;fill-rule:evenodd" /><path
               clip-rule="evenodd"
               d="m 283.933,258.31 c -0.172,-1.094 -0.163,-2.235 0.067,-3.325 1.177,-0.296 1.981,0.342 2.015,1.377 0.016,0.453 -0.182,0.877 -0.269,1.277 -0.236,0.556 -1.181,0.73 -1.813,0.671 z"
               id="path7080"
               inkscape:connector-curvature="0"
               style="fill:#ffffff;fill-rule:evenodd" /><path
               clip-rule="evenodd"
               d="m 270.464,254.111 c 0.189,-0.254 0.69,0.004 0.906,0.135 0.317,-0.159 0.76,0.094 1.008,-0.168 0.228,0.028 0.467,0.011 0.638,-0.101 0.31,0.138 0.807,0.089 1.108,0.236 -0.118,0.159 -0.324,0.643 -0.201,0.94 0.192,0.469 0.708,1.324 0.974,1.68 0.12,0.16 0.407,0.475 0.571,0.47 0.168,-0.005 0.745,-0.63 0.907,-0.806 0.294,-0.321 0.333,-0.739 0.706,-0.907 0.044,-0.07 -0.016,-0.1 0.033,-0.202 0.159,-0.097 0.291,-0.225 0.336,-0.436 -0.152,-0.442 -0.827,-0.36 -0.975,-0.806 0.112,-0.121 0.211,0.002 0.336,0 0.28,-0.004 0.742,-0.168 1.007,-0.067 0.226,0.085 0.363,0.218 0.605,0.168 0.223,-0.046 0.526,-0.166 0.907,-0.135 0.014,0.076 0.072,0.106 0.101,0.168 -0.041,0.172 -0.277,0.327 -0.436,0.268 -1.096,1.078 -2.174,2.171 -2.99,3.528 0.294,0.734 0.673,1.386 1.142,1.948 0.371,1.133 1.382,1.907 2.25,2.654 0.152,-0.019 0.202,0.067 0.303,0.101 0.038,0.062 -0.024,0.249 0,0.403 -1.081,0.39 -2.35,-0.028 -3.931,0.102 -0.44,-0.506 0.414,-0.585 0.706,-0.773 0.124,-0.434 -0.22,-0.576 -0.403,-0.839 -0.085,-0.124 -0.103,-0.288 -0.167,-0.403 -0.332,-0.592 -0.849,-1.044 -1.109,-1.646 -0.305,-0.014 -0.331,0.251 -0.571,0.302 -0.533,0.67 -1.25,1.32 -1.646,2.015 -0.243,0.979 0.904,0.525 0.706,1.378 -0.929,0.38 -2.243,-0.227 -3.292,0 -0.009,-0.069 -0.089,-0.067 -0.134,-0.102 -0.207,-0.809 1.033,-0.699 1.546,-1.007 0.25,-0.287 0.517,-0.502 0.806,-0.772 0.703,-0.659 1.226,-1.653 1.914,-2.385 0.141,-1.197 -0.869,-1.753 -1.276,-2.621 -0.351,-0.442 -0.737,-0.852 -1.007,-1.376 -0.138,-0.109 -0.219,-0.274 -0.335,-0.403 -0.037,-0.086 0.145,-0.118 0.033,-0.168 -0.073,-0.072 -0.072,0.009 -0.067,0.101 -0.364,-0.145 -0.522,-0.301 -1.009,-0.474 z"
               id="path7082"
               inkscape:connector-curvature="0"
               style="fill-rule:evenodd" /><path
               clip-rule="evenodd"
               d="m 267.575,252.936 c 20.175,0 40.353,0 60.528,0 0,4.02 0,8.039 0,12.059 -20.187,0 -40.376,0 -60.562,0 0,-3.986 0,-7.972 0,-11.958 -0.002,-0.048 -0.005,-0.096 0.034,-0.101 z m 52.097,1.007 c -0.165,-0.026 -0.149,-0.231 -0.336,-0.235 -0.119,0.049 -0.08,0.256 -0.201,0.302 -0.187,-0.006 -0.267,0.092 -0.471,0.067 -0.229,0.478 0.259,0.67 0.437,0.974 0.134,0.228 0.186,0.624 0.335,0.874 0.257,0.425 0.801,0.88 1.108,1.275 0.234,0.3 0.351,0.524 0.605,0.875 0.192,0.263 0.619,0.683 0.604,0.873 -0.011,0.149 -0.155,0.152 -0.302,0.336 -0.73,0.904 -1.474,2.207 -2.184,3.124 -0.106,-0.046 -0.236,0.015 -0.336,0.067 -0.144,0.266 -0.124,0.497 -0.269,0.772 0.11,0.213 0.466,0.185 0.672,0.303 0.025,-0.098 0.081,-0.164 0.236,-0.134 0.131,-0.008 0.06,0.184 0.2,0.168 0.391,-0.245 0.802,0.078 1.242,0.033 0.12,-0.013 0.305,-0.074 0.438,-0.101 0.354,-0.073 0.693,-0.174 1.007,-0.235 0.294,-0.058 0.595,-0.027 0.84,0 0.57,0.059 1.298,-0.151 1.848,-0.035 0.21,0.045 0.45,0.345 0.772,0.202 0.164,-0.165 0.055,-0.366 0.066,-0.571 0.052,-0.823 0.366,-1.766 0.035,-2.519 -0.198,-0.008 -0.294,0.087 -0.471,0.101 -0.221,0.47 -0.255,1.216 -0.707,1.377 -0.32,0.115 -0.734,-0.063 -1.174,-0.067 -0.306,-0.003 -0.613,0.123 -0.873,0.134 -0.544,0.025 -1.091,-0.345 -1.612,-0.101 0.531,-0.98 1.215,-1.807 1.746,-2.789 0.133,0.01 0.103,-0.143 0.235,-0.133 0.033,-0.281 0.252,-0.375 0.369,-0.572 -0.217,-0.85 -0.95,-1.325 -1.344,-2.015 -0.244,-0.428 -0.477,-0.833 -0.773,-1.243 0.996,0.021 1.945,0.069 3.023,-0.034 0.241,0.085 0.337,0.317 0.471,0.503 0.11,0.153 0.269,0.208 0.303,0.337 0.1,0.362 -0.188,0.708 0.034,1.007 0.25,0.059 0.459,-0.06 0.604,-0.201 -0.179,-0.289 0.021,-0.532 0.034,-0.739 0.034,-0.598 -0.357,-1.124 -0.337,-1.814 -1.881,0.079 -3.825,-0.278 -5.874,-0.166 z m -8.497,0.571 c -0.6,0.743 -1.583,1.518 -1.748,2.822 -0.047,0.362 -0.064,0.798 -0.101,1.209 -0.062,0.721 -0.057,1.61 0.134,2.149 0.133,0.374 0.439,0.767 0.64,1.142 0.17,0.323 0.265,0.691 0.537,0.84 0.506,-0.045 0.719,0.256 1.142,0.47 0.266,0.136 0.586,0.33 0.874,0.403 0.231,0.06 0.525,0.046 0.805,0.067 0.91,0.068 1.316,-0.068 1.915,-0.335 0.434,-0.195 0.824,-0.495 1.142,-0.773 0.721,-1.139 1.978,-2.221 1.915,-3.963 -0.03,-0.853 -0.403,-1.521 -0.402,-2.385 -0.458,-0.371 -0.701,-0.957 -1.177,-1.31 -1.12,-0.291 -1.839,-1.156 -3.09,-1.041 -0.352,0.032 -0.785,0.062 -1.04,0.033 -0.359,0.381 -1.023,0.458 -1.546,0.672 z m -3.764,-0.571 c 0.028,0.095 -0.047,0.087 -0.033,0.168 -0.755,0.125 -1.494,-0.135 -2.184,0.034 -0.065,0.273 -0.024,0.594 0.102,0.772 0.18,-0.03 0.366,-0.156 0.57,-0.135 0.454,0.048 0.473,0.551 0.471,1.042 -0.004,1.052 -0.037,2.355 0.066,3.358 0.046,0.438 0.2,0.862 0.034,1.176 -0.709,-0.512 -1.392,-1.088 -1.915,-1.78 -0.345,-0.457 -0.638,-0.961 -1.008,-1.411 -0.466,-0.566 -0.969,-1.122 -1.275,-1.78 -0.376,-0.206 -0.408,-0.756 -0.673,-1.074 -0.675,0.123 -1.638,0.022 -2.081,-0.303 -0.204,0.27 -0.797,0.121 -0.772,0.504 0.013,0.22 0.522,0.505 0.805,0.437 0.649,0.445 0.84,1.396 0.84,2.418 0,0.79 -0.066,1.581 -0.067,2.251 -10e-4,0.364 -0.096,0.726 -0.067,1.041 0.015,0.156 0.095,0.293 0.102,0.437 0.004,0.108 -0.049,0.237 -0.034,0.336 0.033,0.213 0.13,0.47 0.034,0.706 -0.046,0.11 -0.437,0.515 -0.503,0.538 -0.203,0.068 -0.566,-0.07 -0.671,0.033 -0.038,0.219 -0.089,0.52 0,0.672 0.405,0.209 0.702,-0.069 1.072,-0.1 0.414,-0.036 0.767,0.277 1.21,0.335 0.37,0.048 0.655,-0.132 1.075,-0.067 0.128,-0.178 0.093,-0.492 0,-0.705 -0.726,0.065 -1.178,-0.421 -1.243,-1.143 -0.141,-1.542 0.026,-3.606 0.034,-4.971 1.164,1.534 2.128,3.268 3.595,4.5 0.509,0.722 1.45,1.012 1.813,1.881 0.416,0.008 0.372,0.479 0.771,0.504 0.354,-0.556 0.048,-1.501 0,-2.284 -0.035,-0.581 0.056,-1.334 0,-2.083 -0.06,-0.812 -0.112,-1.52 -0.167,-2.284 -0.072,-0.986 0.078,-2.53 1.175,-2.284 0.159,-0.088 0.187,-0.51 0.067,-0.672 -0.395,0.085 -0.783,0.1 -1.143,-0.067 z m -35.94,0.639 c -0.005,-0.092 -0.006,-0.173 0.067,-0.101 0.111,0.05 -0.07,0.082 -0.033,0.168 0.117,0.129 0.198,0.294 0.335,0.403 0.271,0.524 0.656,0.934 1.007,1.376 0.407,0.867 1.417,1.423 1.276,2.621 -0.688,0.732 -1.21,1.726 -1.914,2.385 -0.289,0.27 -0.557,0.485 -0.806,0.772 -0.513,0.308 -1.752,0.199 -1.546,1.007 0.045,0.035 0.125,0.032 0.134,0.102 1.049,-0.227 2.363,0.38 3.292,0 0.198,-0.853 -0.949,-0.399 -0.706,-1.378 0.396,-0.695 1.113,-1.345 1.646,-2.015 0.241,-0.051 0.266,-0.316 0.571,-0.302 0.26,0.602 0.777,1.054 1.109,1.646 0.064,0.115 0.083,0.279 0.167,0.403 0.183,0.263 0.526,0.406 0.403,0.839 -0.292,0.188 -1.146,0.267 -0.706,0.773 1.581,-0.13 2.85,0.288 3.931,-0.102 -0.024,-0.154 0.038,-0.341 0,-0.403 -0.101,-0.033 -0.15,-0.119 -0.303,-0.101 -0.868,-0.747 -1.879,-1.521 -2.25,-2.654 -0.469,-0.562 -0.848,-1.213 -1.142,-1.948 0.815,-1.357 1.894,-2.45 2.99,-3.528 0.159,0.059 0.396,-0.096 0.436,-0.268 -0.029,-0.062 -0.087,-0.092 -0.101,-0.168 -0.38,-0.031 -0.684,0.088 -0.907,0.135 -0.242,0.05 -0.379,-0.083 -0.605,-0.168 -0.265,-0.101 -0.727,0.063 -1.007,0.067 -0.125,0.002 -0.224,-0.121 -0.336,0 0.147,0.446 0.822,0.364 0.975,0.806 -0.045,0.211 -0.177,0.339 -0.336,0.436 -0.049,0.102 0.011,0.131 -0.033,0.202 -0.372,0.168 -0.411,0.586 -0.706,0.907 -0.162,0.176 -0.739,0.801 -0.907,0.806 -0.164,0.005 -0.451,-0.31 -0.571,-0.47 -0.265,-0.356 -0.781,-1.21 -0.974,-1.68 -0.124,-0.298 0.083,-0.781 0.201,-0.94 -0.301,-0.147 -0.798,-0.098 -1.108,-0.236 -0.171,0.112 -0.41,0.129 -0.638,0.101 -0.248,0.263 -0.69,0.009 -1.008,0.168 -0.216,-0.13 -0.717,-0.389 -0.906,-0.135 0.489,0.176 0.647,0.332 1.009,0.474 z m 13.469,4.433 c 0.21,0.022 0.403,0.188 0.604,0.202 0.324,0.023 0.926,-0.243 1.178,-0.437 0.789,-0.61 1.25,-2.266 1.074,-3.527 -0.087,-0.125 -0.227,-0.199 -0.27,-0.37 -0.661,-0.45 -1.484,-0.738 -2.552,-0.738 -1.41,0 -2.95,-0.138 -4.064,0 -0.279,0.149 -0.228,0.637 -0.033,0.839 0.186,0.003 0.548,-0.106 0.806,-0.101 0.513,0.012 0.448,0.517 0.504,0.941 0.043,0.323 0.128,0.75 0.134,0.974 0.003,0.142 -0.067,0.441 -0.067,0.57 10e-4,0.599 0.186,1.242 0.134,1.915 -0.059,0.76 -0.199,1.549 -0.202,2.216 -10e-4,0.329 0.121,0.631 -0.033,0.874 -0.351,0.1 -1.236,0.213 -1.276,0.571 -0.028,0.246 0.176,0.323 0.335,0.504 0.591,-0.37 1.71,-0.36 2.452,-0.471 0.206,0.218 0.7,0.238 1.008,0.168 0.043,-0.124 0.055,-0.281 0.067,-0.437 -0.46,-0.329 -0.955,-0.443 -1.076,-1.007 -0.04,-0.187 -0.007,-0.482 0,-0.739 0.016,-0.55 -0.022,-1.165 0.101,-1.747 0.375,-0.192 0.74,-0.244 1.176,-0.2 z m 5.443,-3.023 c -0.11,0.07 -0.204,0.155 -0.337,0.201 -0.003,0.396 -0.333,0.767 -0.471,1.209 -0.068,0.223 -0.06,0.499 -0.101,0.772 -0.087,0.58 -0.271,1.329 -0.134,1.982 0.11,0.528 0.654,0.8 0.672,1.31 0.675,0.751 1.014,1.682 1.982,2.015 0.427,0.147 0.879,0.088 1.343,0.067 1.28,-0.057 2.312,-0.086 3.021,-0.672 0.061,-0.049 0.066,-0.168 0.134,-0.235 0.076,-0.073 0.183,-0.074 0.237,-0.134 1.154,-1.285 1.71,-3.194 1.009,-4.803 -0.038,-0.083 -0.01,-0.166 -0.035,-0.235 -0.139,-0.387 -0.271,-0.651 -0.438,-0.974 -0.251,-0.494 -0.494,-0.941 -0.738,-1.376 -0.391,-0.149 -0.749,-0.481 -1.175,-0.673 -0.255,-0.114 -0.561,-0.292 -0.841,-0.335 -0.835,-0.132 -1.391,0.088 -2.115,0.168 -0.678,0.23 -1.116,0.697 -1.579,1.142 -0.171,-0.014 -0.262,0.052 -0.368,0.101 -0.076,0.105 0.003,0.36 -0.066,0.47 z"
               id="path7084"
               inkscape:connector-curvature="0"
               style="fill:#ffffff;fill-rule:evenodd" /><path
               clip-rule="evenodd"
               d="m 312.72,253.842 c 0.255,0.029 0.688,-0.001 1.04,-0.033 1.251,-0.115 1.97,0.75 3.09,1.041 0.476,0.353 0.719,0.939 1.177,1.31 -10e-4,0.864 0.372,1.533 0.402,2.385 0.062,1.742 -1.194,2.824 -1.915,3.963 -0.317,0.279 -0.708,0.579 -1.142,0.773 -0.599,0.267 -1.005,0.404 -1.915,0.335 -0.279,-0.021 -0.573,-0.008 -0.805,-0.067 -0.288,-0.073 -0.608,-0.268 -0.874,-0.403 -0.423,-0.214 -0.636,-0.515 -1.142,-0.47 -0.272,-0.149 -0.367,-0.518 -0.537,-0.84 -0.2,-0.375 -0.507,-0.768 -0.64,-1.142 -0.19,-0.54 -0.196,-1.429 -0.134,-2.149 0.036,-0.411 0.054,-0.848 0.101,-1.209 0.165,-1.304 1.148,-2.079 1.748,-2.822 0.524,-0.214 1.188,-0.291 1.546,-0.672 z m 0.234,0.974 c -0.084,0.046 -0.149,0.149 -0.234,0.202 -0.129,0.076 -0.283,0.074 -0.404,0.135 -0.564,0.284 -0.787,0.741 -1.008,1.31 -0.416,1.073 -0.411,2.702 -0.168,3.997 0.067,0.356 0.14,0.777 0.234,1.041 0.179,0.489 0.88,1 1.312,1.109 1.236,0.312 2.261,-0.217 2.82,-0.806 0.304,-0.318 0.863,-0.927 0.976,-1.276 0.261,-0.817 -0.162,-1.651 -0.135,-2.52 0.012,-0.365 0.119,-0.614 0.033,-1.041 -0.086,-0.424 -0.504,-1.097 -0.706,-1.377 -0.356,-0.498 -1.275,-1.069 -2.149,-0.94 -0.172,0.024 -0.441,0.096 -0.571,0.166 z"
               id="path7086"
               inkscape:connector-curvature="0"
               style="fill-rule:evenodd" /></g></g></g></g><use
       x="0"
       y="0"
       inkscape:tiled-clone-of="#g4685"
       xlink:href="#g4685"
       transform="translate(0,119.90715)"
       id="use8245" /><use
       x="0"
       y="0"
       inkscape:tiled-clone-of="#g4685"
       xlink:href="#g4685"
       transform="translate(0,239.8143)"
       id="use8247" /><use
       x="0"
       y="0"
       inkscape:tiled-clone-of="#g4685"
       xlink:href="#g4685"
       transform="translate(0,359.72145)"
       id="use8249" /><use
       x="0"
       y="0"
       inkscape:tiled-clone-of="#g4685"
       xlink:href="#g4685"
       transform="translate(0,479.6286)"
       id="use8251" /><use
       x="0"
       y="0"
       inkscape:tiled-clone-of="#g4685"
       xlink:href="#g4685"
       transform="translate(0,599.53575)"
       id="use8253" /><use
       x="0"
       y="0"
       inkscape:tiled-clone-of="#g4685"
       xlink:href="#g4685"
       transform="translate(0,719.44289)"
       id="use8255" /><use
       x="0"
       y="0"
       inkscape:tiled-clone-of="#g4685"
       xlink:href="#g4685"
       transform="translate(199.09241,0)"
       id="use8257" /><use
       x="0"
       y="0"
       inkscape:tiled-clone-of="#g4685"
       xlink:href="#g4685"
       transform="translate(199.09241,119.90715)"
       id="use8259" /><use
       x="0"
       y="0"
       inkscape:tiled-clone-of="#g4685"
       xlink:href="#g4685"
       transform="translate(199.09241,239.8143)"
       id="use8261" /><use
       x="0"
       y="0"
       inkscape:tiled-clone-of="#g4685"
       xlink:href="#g4685"
       transform="translate(199.09241,359.72145)"
       id="use8263" /><use
       x="0"
       y="0"
       inkscape:tiled-clone-of="#g4685"
       xlink:href="#g4685"
       transform="translate(199.09241,479.6286)"
       id="use8265" /><use
       x="0"
       y="0"
       inkscape:tiled-clone-of="#g4685"
       xlink:href="#g4685"
       transform="translate(199.09241,599.53575)"
       id="use8267" /><use
       x="0"
       y="0"
       inkscape:tiled-clone-of="#g4685"
       xlink:href="#g4685"
       transform="translate(199.09241,719.44289)"
       id="use8269" /><use
       x="0"
       y="0"
       inkscape:tiled-clone-of="#g4685"
       xlink:href="#g4685"
       transform="translate(398.18482,0)"
       id="use8271" /><use
       x="0"
       y="0"
       inkscape:tiled-clone-of="#g4685"
       xlink:href="#g4685"
       transform="translate(398.18482,119.90715)"
       id="use8273" /><use
       x="0"
       y="0"
       inkscape:tiled-clone-of="#g4685"
       xlink:href="#g4685"
       transform="translate(398.18482,239.8143)"
       id="use8275" /><use
       x="0"
       y="0"
       inkscape:tiled-clone-of="#g4685"
       xlink:href="#g4685"
       transform="translate(398.18482,359.72145)"
       id="use8277" /><use
       x="0"
       y="0"
       inkscape:tiled-clone-of="#g4685"
       xlink:href="#g4685"
       transform="translate(398.18482,479.6286)"
       id="use8279" /><use
       x="0"
       y="0"
       inkscape:tiled-clone-of="#g4685"
       xlink:href="#g4685"
       transform="translate(398.18482,599.53575)"
       id="use8281" /><use
       x="0"
       y="0"
       inkscape:tiled-clone-of="#g4685"
       xlink:href="#g4685"
       transform="translate(398.18482,719.44289)"
       id="use8283" /></g></svg>