<?xml version="1.0" encoding="UTF-8" standalone="no"?>
<svg
   xmlns:dc="http://purl.org/dc/elements/1.1/"
   xmlns:cc="http://creativecommons.org/ns#"
   xmlns:rdf="http://www.w3.org/1999/02/22-rdf-syntax-ns#"
   xmlns:svg="http://www.w3.org/2000/svg"
   xmlns="http://www.w3.org/2000/svg"
   xmlns:sodipodi="http://sodipodi.sourceforge.net/DTD/sodipodi-0.dtd"
   xmlns:inkscape="http://www.inkscape.org/namespaces/inkscape"
   version="1.1"
   width="210mm"
   height="297mm"
   viewBox="0 0 210 297"
   id="svg4849"
   inkscape:version="0.48.4 r9939"
   sodipodi:docname="fmosc.svg">
  <metadata
     id="metadata5315">
    <rdf:RDF>
      <cc:Work
         rdf:about="">
        <dc:format>image/svg+xml</dc:format>
        <dc:type
           rdf:resource="http://purl.org/dc/dcmitype/StillImage" />
      </cc:Work>
    </rdf:RDF>
  </metadata>
  <sodipodi:namedview
     id="base"
     inkscape:document-units="mm"
     units="mm"
     showgrid="false"
     inkscape:zoom="1.7563421"
     inkscape:cx="143.32678"
     inkscape:cy="824.70471"
     inkscape:window-width="1680"
     inkscape:window-height="1000"
     inkscape:window-x="0"
     inkscape:window-y="0"
     inkscape:window-maximized="1"
     inkscape:current-layer="svg4849" />
  <defs
     id="defs4852">
    <g
       id="potgrading" />
  </defs>
  <g
     style="fill:none;stroke-width:0.05;stroke:#ff0000"
     id="g4855">
    <rect
       x="0.0"
       y="0.0"
       width="80.90"
       height="128.50"
       id="rect4857" />
    <circle
       cx="7.5"
       cy="3"
       r="1.6"
       id="circle4859" />
    <circle
       cx="7.5"
       cy="125.5"
       r="1.6"
       id="circle4861" />
    <circle
       cx="73.54"
       cy="3"
       r="1.6"
       id="circle4863" />
    <circle
       cx="73.54"
       cy="125.5"
       r="1.6"
       id="circle4865" />
    <path
       inkscape:connector-curvature="0"
       d="m 11.875,21.4 c -2.6129013,0 -4.7375971,2.115556 -4.7375971,4.727735 0,2.135913 1.421033,3.945767 3.3650681,4.5331 l 0,2.107204 2.632936,1.41e-4 0,-2.079677 c 1.996054,-0.554631 3.466996,-2.388302 3.466996,-4.561134 3.38e-4,-2.612179 -2.115205,-4.727369 -4.727403,-4.727369 z"
       style="fill:none;stroke:#ff0000"
       id="path4867" />
    <g
       transform="translate(11.875,26.15)"
       id="g4869">
      <g
         transform="scale(0.78)"
         id="g4871">
        <path
           d="M -4.2037748,7.5814929 C -6.8346316,6.1114925 -8.6120123,3.3014922 -8.6120123,0.07148931 c 0,-4.75000381 3.8628404,-8.61000481 8.6282233,-8.61000481 4.764047,0 8.627555,3.8600011 8.627555,8.61000481 0,3.23000299 -1.780051,6.04000329 -4.414579,7.52000359"
           style="fill:none;stroke:#030303;stroke-width:0.33974358974359"
           id="path4873" />
        <path
           style="fill:none;stroke:#030303;stroke-width:0.33974358974359"
           d="m -2.440413,-9.0485165 0.216323,0.810001"
           id="path4875" />
        <path
           style="fill:none;stroke:#030303;stroke-width:0.452564102564103"
           d="m -5.1129926,-8.7785155 0.8080822,1.4000001"
           id="path4877" />
        <path
           style="fill:none;stroke:#030303;stroke-width:0.33974358974359"
           d="m -6.6800914,-6.5985155 0.5891225,0.59"
           id="path4879" />
        <path
           style="fill:none;stroke:#030303;stroke-width:0.452564102564103"
           d="m -8.8466601,-5.0285155 1.3848552,0.8000013"
           id="path4881" />
        <path
           style="fill:none;stroke:#030303;stroke-width:0.33974358974359"
           d="m -9.1267017,-2.3685125 0.8044106,0.2200004"
           id="path4883" />
        <path
           style="fill:none;stroke:#030303;stroke-width:0.452564102564103"
           d="m -10.221501,0.08148931 1.6061507,0"
           id="path4885" />
        <path
           style="fill:none;stroke:#030303;stroke-width:0.33974358974359"
           d="M -9.1243652,2.5214918 -8.3199546,2.3014913"
           id="path4887" />
        <path
           style="fill:none;stroke:#030303;stroke-width:0.452564102564103"
           d="M -8.8489964,5.181492 -7.4574658,4.3814921"
           id="path4889" />
        <path
           style="fill:none;stroke:#030303;stroke-width:0.33974358974359"
           d="m -6.6737496,6.7514925 0.5877873,-0.59"
           id="path4891" />
        <path
           style="fill:none;stroke:#030303;stroke-width:0.452564102564103"
           d="m -5.0742739,8.871494 0.776373,-1.3400011"
           id="path4893" />
        <path
           style="fill:none;stroke:#030303;stroke-width:0.452564102564103"
           d="M 5.113671,8.8814939 4.329988,7.5214929"
           id="path4895" />
        <path
           style="fill:none;stroke:#030303;stroke-width:0.33974358974359"
           d="m 6.704836,6.7414925 -0.588789,-0.58"
           id="path4897" />
        <path
           style="fill:none;stroke:#030303;stroke-width:0.452564102564103"
           d="m 8.846371,5.1614921 -1.360155,-0.79"
           id="path4899" />
        <path
           style="fill:none;stroke:#030303;stroke-width:0.33974358974359"
           d="M 9.151112,2.5114918 8.347402,2.2914913"
           id="path4901" />
        <path
           style="fill:none;stroke:#030303;stroke-width:0.452564102564103"
           d="m 10.195511,0.07148931 -1.555417,0"
           id="path4903" />
        <path
           style="fill:none;stroke:#030303;stroke-width:0.33974358974359"
           d="M 9.148809,-2.3785126 8.344698,-2.1585121"
           id="path4905" />
        <path
           style="fill:none;stroke:#030303;stroke-width:0.452564102564103"
           d="M 8.836691,-5.0185155 7.482544,-4.2385142"
           id="path4907" />
        <path
           style="fill:none;stroke:#030303;stroke-width:0.33974358974359"
           d="m 6.699128,-6.6085155 -0.588421,0.59"
           id="path4909" />
        <path
           style="fill:none;stroke:#030303;stroke-width:0.452564102564103"
           d="m 5.131729,-8.7785155 -0.80875,1.39"
           id="path4911" />
        <path
           style="fill:none;stroke:#030303;stroke-width:0.33974358974359"
           d="m 2.456813,-9.0485165 -0.215288,0.800001"
           id="path4913" />
        <path
           style="fill:none;stroke:#030303;stroke-width:0.452564102564103"
           d="m 0.007833,-10.128517 0,1.5900015"
           id="path4915" />
      </g>
    </g>
    <path
       inkscape:connector-curvature="0"
       d="m 30.925,15.05 c -2.6129013,0 -4.7375971,2.115556 -4.7375971,4.727735 0,2.135913 1.421033,3.945767 3.3650681,4.5331 l 0,2.107204 2.632936,1.41e-4 0,-2.079677 c 1.996054,-0.554631 3.466996,-2.388302 3.466996,-4.561134 3.38e-4,-2.612179 -2.115205,-4.727369 -4.727403,-4.727369 z"
       style="fill:none;stroke:#ff0000"
       id="path4917" />
    <g
       transform="translate(30.925,19.8)"
       id="g4919">
      <g
         transform="scale(0.78)"
         id="g4921">
        <path
           d="M -4.2037748,7.5814929 C -6.8346316,6.1114925 -8.6120123,3.3014922 -8.6120123,0.07148931 c 0,-4.75000381 3.8628404,-8.61000481 8.6282233,-8.61000481 4.764047,0 8.627555,3.8600011 8.627555,8.61000481 0,3.23000299 -1.780051,6.04000329 -4.414579,7.52000359"
           style="fill:none;stroke:#030303;stroke-width:0.33974358974359"
           id="path4923" />
        <path
           style="fill:none;stroke:#030303;stroke-width:0.33974358974359"
           d="m -2.440413,-9.0485165 0.216323,0.810001"
           id="path4925" />
        <path
           style="fill:none;stroke:#030303;stroke-width:0.452564102564103"
           d="m -5.1129926,-8.7785155 0.8080822,1.4000001"
           id="path4927" />
        <path
           style="fill:none;stroke:#030303;stroke-width:0.33974358974359"
           d="m -6.6800914,-6.5985155 0.5891225,0.59"
           id="path4929" />
        <path
           style="fill:none;stroke:#030303;stroke-width:0.452564102564103"
           d="m -8.8466601,-5.0285155 1.3848552,0.8000013"
           id="path4931" />
        <path
           style="fill:none;stroke:#030303;stroke-width:0.33974358974359"
           d="m -9.1267017,-2.3685125 0.8044106,0.2200004"
           id="path4933" />
        <path
           style="fill:none;stroke:#030303;stroke-width:0.452564102564103"
           d="m -10.221501,0.08148931 1.6061507,0"
           id="path4935" />
        <path
           style="fill:none;stroke:#030303;stroke-width:0.33974358974359"
           d="M -9.1243652,2.5214918 -8.3199546,2.3014913"
           id="path4937" />
        <path
           style="fill:none;stroke:#030303;stroke-width:0.452564102564103"
           d="M -8.8489964,5.181492 -7.4574658,4.3814921"
           id="path4939" />
        <path
           style="fill:none;stroke:#030303;stroke-width:0.33974358974359"
           d="m -6.6737496,6.7514925 0.5877873,-0.59"
           id="path4941" />
        <path
           style="fill:none;stroke:#030303;stroke-width:0.452564102564103"
           d="m -5.0742739,8.871494 0.776373,-1.3400011"
           id="path4943" />
        <path
           style="fill:none;stroke:#030303;stroke-width:0.452564102564103"
           d="M 5.113671,8.8814939 4.329988,7.5214929"
           id="path4945" />
        <path
           style="fill:none;stroke:#030303;stroke-width:0.33974358974359"
           d="m 6.704836,6.7414925 -0.588789,-0.58"
           id="path4947" />
        <path
           style="fill:none;stroke:#030303;stroke-width:0.452564102564103"
           d="m 8.846371,5.1614921 -1.360155,-0.79"
           id="path4949" />
        <path
           style="fill:none;stroke:#030303;stroke-width:0.33974358974359"
           d="M 9.151112,2.5114918 8.347402,2.2914913"
           id="path4951" />
        <path
           style="fill:none;stroke:#030303;stroke-width:0.452564102564103"
           d="m 10.195511,0.07148931 -1.555417,0"
           id="path4953" />
        <path
           style="fill:none;stroke:#030303;stroke-width:0.33974358974359"
           d="M 9.148809,-2.3785126 8.344698,-2.1585121"
           id="path4955" />
        <path
           style="fill:none;stroke:#030303;stroke-width:0.452564102564103"
           d="M 8.836691,-5.0185155 7.482544,-4.2385142"
           id="path4957" />
        <path
           style="fill:none;stroke:#030303;stroke-width:0.33974358974359"
           d="m 6.699128,-6.6085155 -0.588421,0.59"
           id="path4959" />
        <path
           style="fill:none;stroke:#030303;stroke-width:0.452564102564103"
           d="m 5.131729,-8.7785155 -0.80875,1.39"
           id="path4961" />
        <path
           style="fill:none;stroke:#030303;stroke-width:0.33974358974359"
           d="m 2.456813,-9.0485165 -0.215288,0.800001"
           id="path4963" />
        <path
           style="fill:none;stroke:#030303;stroke-width:0.452564102564103"
           d="m 0.007833,-10.128517 0,1.5900015"
           id="path4965" />
      </g>
    </g>
    <path
       inkscape:connector-curvature="0"
       d="m 49.975,15.05 c -2.6129013,0 -4.7375971,2.115556 -4.7375971,4.727735 0,2.135913 1.421033,3.945767 3.3650681,4.5331 l 0,2.107204 2.632936,1.41e-4 0,-2.079677 c 1.996054,-0.554631 3.466996,-2.388302 3.466996,-4.561134 3.38e-4,-2.612179 -2.115205,-4.727369 -4.727403,-4.727369 z"
       style="fill:none;stroke:#ff0000"
       id="path4967" />
    <g
       transform="translate(49.975,19.8)"
       id="g4969">
      <g
         transform="scale(0.78)"
         id="g4971">
        <path
           d="M -4.2037748,7.5814929 C -6.8346316,6.1114925 -8.6120123,3.3014922 -8.6120123,0.07148931 c 0,-4.75000381 3.8628404,-8.61000481 8.6282233,-8.61000481 4.764047,0 8.627555,3.8600011 8.627555,8.61000481 0,3.23000299 -1.780051,6.04000329 -4.414579,7.52000359"
           style="fill:none;stroke:#030303;stroke-width:0.33974358974359"
           id="path4973" />
        <path
           style="fill:none;stroke:#030303;stroke-width:0.33974358974359"
           d="m -2.440413,-9.0485165 0.216323,0.810001"
           id="path4975" />
        <path
           style="fill:none;stroke:#030303;stroke-width:0.452564102564103"
           d="m -5.1129926,-8.7785155 0.8080822,1.4000001"
           id="path4977" />
        <path
           style="fill:none;stroke:#030303;stroke-width:0.33974358974359"
           d="m -6.6800914,-6.5985155 0.5891225,0.59"
           id="path4979" />
        <path
           style="fill:none;stroke:#030303;stroke-width:0.452564102564103"
           d="m -8.8466601,-5.0285155 1.3848552,0.8000013"
           id="path4981" />
        <path
           style="fill:none;stroke:#030303;stroke-width:0.33974358974359"
           d="m -9.1267017,-2.3685125 0.8044106,0.2200004"
           id="path4983" />
        <path
           style="fill:none;stroke:#030303;stroke-width:0.452564102564103"
           d="m -10.221501,0.08148931 1.6061507,0"
           id="path4985" />
        <path
           style="fill:none;stroke:#030303;stroke-width:0.33974358974359"
           d="M -9.1243652,2.5214918 -8.3199546,2.3014913"
           id="path4987" />
        <path
           style="fill:none;stroke:#030303;stroke-width:0.452564102564103"
           d="M -8.8489964,5.181492 -7.4574658,4.3814921"
           id="path4989" />
        <path
           style="fill:none;stroke:#030303;stroke-width:0.33974358974359"
           d="m -6.6737496,6.7514925 0.5877873,-0.59"
           id="path4991" />
        <path
           style="fill:none;stroke:#030303;stroke-width:0.452564102564103"
           d="m -5.0742739,8.871494 0.776373,-1.3400011"
           id="path4993" />
        <path
           style="fill:none;stroke:#030303;stroke-width:0.452564102564103"
           d="M 5.113671,8.8814939 4.329988,7.5214929"
           id="path4995" />
        <path
           style="fill:none;stroke:#030303;stroke-width:0.33974358974359"
           d="m 6.704836,6.7414925 -0.588789,-0.58"
           id="path4997" />
        <path
           style="fill:none;stroke:#030303;stroke-width:0.452564102564103"
           d="m 8.846371,5.1614921 -1.360155,-0.79"
           id="path4999" />
        <path
           style="fill:none;stroke:#030303;stroke-width:0.33974358974359"
           d="M 9.151112,2.5114918 8.347402,2.2914913"
           id="path5001" />
        <path
           style="fill:none;stroke:#030303;stroke-width:0.452564102564103"
           d="m 10.195511,0.07148931 -1.555417,0"
           id="path5003" />
        <path
           style="fill:none;stroke:#030303;stroke-width:0.33974358974359"
           d="M 9.148809,-2.3785126 8.344698,-2.1585121"
           id="path5005" />
        <path
           style="fill:none;stroke:#030303;stroke-width:0.452564102564103"
           d="M 8.836691,-5.0185155 7.482544,-4.2385142"
           id="path5007" />
        <path
           style="fill:none;stroke:#030303;stroke-width:0.33974358974359"
           d="m 6.699128,-6.6085155 -0.588421,0.59"
           id="path5009" />
        <path
           style="fill:none;stroke:#030303;stroke-width:0.452564102564103"
           d="m 5.131729,-8.7785155 -0.80875,1.39"
           id="path5011" />
        <path
           style="fill:none;stroke:#030303;stroke-width:0.33974358974359"
           d="m 2.456813,-9.0485165 -0.215288,0.800001"
           id="path5013" />
        <path
           style="fill:none;stroke:#030303;stroke-width:0.452564102564103"
           d="m 0.007833,-10.128517 0,1.5900015"
           id="path5015" />
      </g>
    </g>
    <path
       inkscape:connector-curvature="0"
       d="m 69.025,21.4 c -2.6129013,0 -4.7375971,2.115556 -4.7375971,4.727735 0,2.135913 1.421033,3.945767 3.3650681,4.5331 l 0,2.107204 2.632936,1.41e-4 0,-2.079677 c 1.996054,-0.554631 3.466996,-2.388302 3.466996,-4.561134 3.38e-4,-2.612179 -2.115205,-4.727369 -4.727403,-4.727369 z"
       style="fill:none;stroke:#ff0000"
       id="path5017" />
    <g
       transform="translate(69.025,26.15)"
       id="g5019">
      <g
         transform="scale(0.78)"
         id="g5021">
        <path
           d="M -4.2037748,7.5814929 C -6.8346316,6.1114925 -8.6120123,3.3014922 -8.6120123,0.07148931 c 0,-4.75000381 3.8628404,-8.61000481 8.6282233,-8.61000481 4.764047,0 8.627555,3.8600011 8.627555,8.61000481 0,3.23000299 -1.780051,6.04000329 -4.414579,7.52000359"
           style="fill:none;stroke:#030303;stroke-width:0.33974358974359"
           id="path5023" />
        <path
           style="fill:none;stroke:#030303;stroke-width:0.33974358974359"
           d="m -2.440413,-9.0485165 0.216323,0.810001"
           id="path5025" />
        <path
           style="fill:none;stroke:#030303;stroke-width:0.452564102564103"
           d="m -5.1129926,-8.7785155 0.8080822,1.4000001"
           id="path5027" />
        <path
           style="fill:none;stroke:#030303;stroke-width:0.33974358974359"
           d="m -6.6800914,-6.5985155 0.5891225,0.59"
           id="path5029" />
        <path
           style="fill:none;stroke:#030303;stroke-width:0.452564102564103"
           d="m -8.8466601,-5.0285155 1.3848552,0.8000013"
           id="path5031" />
        <path
           style="fill:none;stroke:#030303;stroke-width:0.33974358974359"
           d="m -9.1267017,-2.3685125 0.8044106,0.2200004"
           id="path5033" />
        <path
           style="fill:none;stroke:#030303;stroke-width:0.452564102564103"
           d="m -10.221501,0.08148931 1.6061507,0"
           id="path5035" />
        <path
           style="fill:none;stroke:#030303;stroke-width:0.33974358974359"
           d="M -9.1243652,2.5214918 -8.3199546,2.3014913"
           id="path5037" />
        <path
           style="fill:none;stroke:#030303;stroke-width:0.452564102564103"
           d="M -8.8489964,5.181492 -7.4574658,4.3814921"
           id="path5039" />
        <path
           style="fill:none;stroke:#030303;stroke-width:0.33974358974359"
           d="m -6.6737496,6.7514925 0.5877873,-0.59"
           id="path5041" />
        <path
           style="fill:none;stroke:#030303;stroke-width:0.452564102564103"
           d="m -5.0742739,8.871494 0.776373,-1.3400011"
           id="path5043" />
        <path
           style="fill:none;stroke:#030303;stroke-width:0.452564102564103"
           d="M 5.113671,8.8814939 4.329988,7.5214929"
           id="path5045" />
        <path
           style="fill:none;stroke:#030303;stroke-width:0.33974358974359"
           d="m 6.704836,6.7414925 -0.588789,-0.58"
           id="path5047" />
        <path
           style="fill:none;stroke:#030303;stroke-width:0.452564102564103"
           d="m 8.846371,5.1614921 -1.360155,-0.79"
           id="path5049" />
        <path
           style="fill:none;stroke:#030303;stroke-width:0.33974358974359"
           d="M 9.151112,2.5114918 8.347402,2.2914913"
           id="path5051" />
        <path
           style="fill:none;stroke:#030303;stroke-width:0.452564102564103"
           d="m 10.195511,0.07148931 -1.555417,0"
           id="path5053" />
        <path
           style="fill:none;stroke:#030303;stroke-width:0.33974358974359"
           d="M 9.148809,-2.3785126 8.344698,-2.1585121"
           id="path5055" />
        <path
           style="fill:none;stroke:#030303;stroke-width:0.452564102564103"
           d="M 8.836691,-5.0185155 7.482544,-4.2385142"
           id="path5057" />
        <path
           style="fill:none;stroke:#030303;stroke-width:0.33974358974359"
           d="m 6.699128,-6.6085155 -0.588421,0.59"
           id="path5059" />
        <path
           style="fill:none;stroke:#030303;stroke-width:0.452564102564103"
           d="m 5.131729,-8.7785155 -0.80875,1.39"
           id="path5061" />
        <path
           style="fill:none;stroke:#030303;stroke-width:0.33974358974359"
           d="m 2.456813,-9.0485165 -0.215288,0.800001"
           id="path5063" />
        <path
           style="fill:none;stroke:#030303;stroke-width:0.452564102564103"
           d="m 0.007833,-10.128517 0,1.5900015"
           id="path5065" />
      </g>
    </g>
    <path
       inkscape:connector-curvature="0"
       d="m 11.875,56.325 c -2.6129013,0 -4.7375971,2.115556 -4.7375971,4.727735 0,2.135913 1.421033,3.945767 3.3650681,4.5331 l 0,2.107204 2.632936,1.41e-4 0,-2.079677 c 1.996054,-0.554631 3.466996,-2.388302 3.466996,-4.561134 3.38e-4,-2.612179 -2.115205,-4.727369 -4.727403,-4.727369 z"
       style="fill:none;stroke:#ff0000"
       id="path5067" />
    <g
       transform="translate(11.875,61.075)"
       id="g5069">
      <g
         transform="scale(0.78)"
         id="g5071">
        <path
           d="M -4.2037748,7.5814929 C -6.8346316,6.1114925 -8.6120123,3.3014922 -8.6120123,0.07148931 c 0,-4.75000381 3.8628404,-8.61000481 8.6282233,-8.61000481 4.764047,0 8.627555,3.8600011 8.627555,8.61000481 0,3.23000299 -1.780051,6.04000329 -4.414579,7.52000359"
           style="fill:none;stroke:#030303;stroke-width:0.33974358974359"
           id="path5073" />
        <path
           style="fill:none;stroke:#030303;stroke-width:0.33974358974359"
           d="m -2.440413,-9.0485165 0.216323,0.810001"
           id="path5075" />
        <path
           style="fill:none;stroke:#030303;stroke-width:0.452564102564103"
           d="m -5.1129926,-8.7785155 0.8080822,1.4000001"
           id="path5077" />
        <path
           style="fill:none;stroke:#030303;stroke-width:0.33974358974359"
           d="m -6.6800914,-6.5985155 0.5891225,0.59"
           id="path5079" />
        <path
           style="fill:none;stroke:#030303;stroke-width:0.452564102564103"
           d="m -8.8466601,-5.0285155 1.3848552,0.8000013"
           id="path5081" />
        <path
           style="fill:none;stroke:#030303;stroke-width:0.33974358974359"
           d="m -9.1267017,-2.3685125 0.8044106,0.2200004"
           id="path5083" />
        <path
           style="fill:none;stroke:#030303;stroke-width:0.452564102564103"
           d="m -10.221501,0.08148931 1.6061507,0"
           id="path5085" />
        <path
           style="fill:none;stroke:#030303;stroke-width:0.33974358974359"
           d="M -9.1243652,2.5214918 -8.3199546,2.3014913"
           id="path5087" />
        <path
           style="fill:none;stroke:#030303;stroke-width:0.452564102564103"
           d="M -8.8489964,5.181492 -7.4574658,4.3814921"
           id="path5089" />
        <path
           style="fill:none;stroke:#030303;stroke-width:0.33974358974359"
           d="m -6.6737496,6.7514925 0.5877873,-0.59"
           id="path5091" />
        <path
           style="fill:none;stroke:#030303;stroke-width:0.452564102564103"
           d="m -5.0742739,8.871494 0.776373,-1.3400011"
           id="path5093" />
        <path
           style="fill:none;stroke:#030303;stroke-width:0.452564102564103"
           d="M 5.113671,8.8814939 4.329988,7.5214929"
           id="path5095" />
        <path
           style="fill:none;stroke:#030303;stroke-width:0.33974358974359"
           d="m 6.704836,6.7414925 -0.588789,-0.58"
           id="path5097" />
        <path
           style="fill:none;stroke:#030303;stroke-width:0.452564102564103"
           d="m 8.846371,5.1614921 -1.360155,-0.79"
           id="path5099" />
        <path
           style="fill:none;stroke:#030303;stroke-width:0.33974358974359"
           d="M 9.151112,2.5114918 8.347402,2.2914913"
           id="path5101" />
        <path
           style="fill:none;stroke:#030303;stroke-width:0.452564102564103"
           d="m 10.195511,0.07148931 -1.555417,0"
           id="path5103" />
        <path
           style="fill:none;stroke:#030303;stroke-width:0.33974358974359"
           d="M 9.148809,-2.3785126 8.344698,-2.1585121"
           id="path5105" />
        <path
           style="fill:none;stroke:#030303;stroke-width:0.452564102564103"
           d="M 8.836691,-5.0185155 7.482544,-4.2385142"
           id="path5107" />
        <path
           style="fill:none;stroke:#030303;stroke-width:0.33974358974359"
           d="m 6.699128,-6.6085155 -0.588421,0.59"
           id="path5109" />
        <path
           style="fill:none;stroke:#030303;stroke-width:0.452564102564103"
           d="m 5.131729,-8.7785155 -0.80875,1.39"
           id="path5111" />
        <path
           style="fill:none;stroke:#030303;stroke-width:0.33974358974359"
           d="m 2.456813,-9.0485165 -0.215288,0.800001"
           id="path5113" />
        <path
           style="fill:none;stroke:#030303;stroke-width:0.452564102564103"
           d="m 0.007833,-10.128517 0,1.5900015"
           id="path5115" />
      </g>
    </g>
    <path
       inkscape:connector-curvature="0"
       d="m 30.925,49.975 c -2.6129013,0 -4.7375971,2.115556 -4.7375971,4.727735 0,2.135913 1.421033,3.945767 3.3650681,4.5331 l 0,2.107204 2.632936,1.41e-4 0,-2.079677 c 1.996054,-0.554631 3.466996,-2.388302 3.466996,-4.561134 3.38e-4,-2.612179 -2.115205,-4.727369 -4.727403,-4.727369 z"
       style="fill:none;stroke:#ff0000"
       id="path5117" />
    <g
       transform="translate(30.925,54.725)"
       id="g5119">
      <g
         transform="scale(0.78)"
         id="g5121">
        <path
           d="M -4.2037748,7.5814929 C -6.8346316,6.1114925 -8.6120123,3.3014922 -8.6120123,0.07148931 c 0,-4.75000381 3.8628404,-8.61000481 8.6282233,-8.61000481 4.764047,0 8.627555,3.8600011 8.627555,8.61000481 0,3.23000299 -1.780051,6.04000329 -4.414579,7.52000359"
           style="fill:none;stroke:#030303;stroke-width:0.33974358974359"
           id="path5123" />
        <path
           style="fill:none;stroke:#030303;stroke-width:0.33974358974359"
           d="m -2.440413,-9.0485165 0.216323,0.810001"
           id="path5125" />
        <path
           style="fill:none;stroke:#030303;stroke-width:0.452564102564103"
           d="m -5.1129926,-8.7785155 0.8080822,1.4000001"
           id="path5127" />
        <path
           style="fill:none;stroke:#030303;stroke-width:0.33974358974359"
           d="m -6.6800914,-6.5985155 0.5891225,0.59"
           id="path5129" />
        <path
           style="fill:none;stroke:#030303;stroke-width:0.452564102564103"
           d="m -8.8466601,-5.0285155 1.3848552,0.8000013"
           id="path5131" />
        <path
           style="fill:none;stroke:#030303;stroke-width:0.33974358974359"
           d="m -9.1267017,-2.3685125 0.8044106,0.2200004"
           id="path5133" />
        <path
           style="fill:none;stroke:#030303;stroke-width:0.452564102564103"
           d="m -10.221501,0.08148931 1.6061507,0"
           id="path5135" />
        <path
           style="fill:none;stroke:#030303;stroke-width:0.33974358974359"
           d="M -9.1243652,2.5214918 -8.3199546,2.3014913"
           id="path5137" />
        <path
           style="fill:none;stroke:#030303;stroke-width:0.452564102564103"
           d="M -8.8489964,5.181492 -7.4574658,4.3814921"
           id="path5139" />
        <path
           style="fill:none;stroke:#030303;stroke-width:0.33974358974359"
           d="m -6.6737496,6.7514925 0.5877873,-0.59"
           id="path5141" />
        <path
           style="fill:none;stroke:#030303;stroke-width:0.452564102564103"
           d="m -5.0742739,8.871494 0.776373,-1.3400011"
           id="path5143" />
        <path
           style="fill:none;stroke:#030303;stroke-width:0.452564102564103"
           d="M 5.113671,8.8814939 4.329988,7.5214929"
           id="path5145" />
        <path
           style="fill:none;stroke:#030303;stroke-width:0.33974358974359"
           d="m 6.704836,6.7414925 -0.588789,-0.58"
           id="path5147" />
        <path
           style="fill:none;stroke:#030303;stroke-width:0.452564102564103"
           d="m 8.846371,5.1614921 -1.360155,-0.79"
           id="path5149" />
        <path
           style="fill:none;stroke:#030303;stroke-width:0.33974358974359"
           d="M 9.151112,2.5114918 8.347402,2.2914913"
           id="path5151" />
        <path
           style="fill:none;stroke:#030303;stroke-width:0.452564102564103"
           d="m 10.195511,0.07148931 -1.555417,0"
           id="path5153" />
        <path
           style="fill:none;stroke:#030303;stroke-width:0.33974358974359"
           d="M 9.148809,-2.3785126 8.344698,-2.1585121"
           id="path5155" />
        <path
           style="fill:none;stroke:#030303;stroke-width:0.452564102564103"
           d="M 8.836691,-5.0185155 7.482544,-4.2385142"
           id="path5157" />
        <path
           style="fill:none;stroke:#030303;stroke-width:0.33974358974359"
           d="m 6.699128,-6.6085155 -0.588421,0.59"
           id="path5159" />
        <path
           style="fill:none;stroke:#030303;stroke-width:0.452564102564103"
           d="m 5.131729,-8.7785155 -0.80875,1.39"
           id="path5161" />
        <path
           style="fill:none;stroke:#030303;stroke-width:0.33974358974359"
           d="m 2.456813,-9.0485165 -0.215288,0.800001"
           id="path5163" />
        <path
           style="fill:none;stroke:#030303;stroke-width:0.452564102564103"
           d="m 0.007833,-10.128517 0,1.5900015"
           id="path5165" />
      </g>
    </g>
    <path
       inkscape:connector-curvature="0"
       d="m 49.975,49.975 c -2.6129013,0 -4.7375971,2.115556 -4.7375971,4.727735 0,2.135913 1.421033,3.945767 3.3650681,4.5331 l 0,2.107204 2.632936,1.41e-4 0,-2.079677 c 1.996054,-0.554631 3.466996,-2.388302 3.466996,-4.561134 3.38e-4,-2.612179 -2.115205,-4.727369 -4.727403,-4.727369 z"
       style="fill:none;stroke:#ff0000"
       id="path5167" />
    <g
       transform="translate(49.975,54.725)"
       id="g5169">
      <g
         transform="scale(0.78)"
         id="g5171">
        <path
           d="M -4.2037748,7.5814929 C -6.8346316,6.1114925 -8.6120123,3.3014922 -8.6120123,0.07148931 c 0,-4.75000381 3.8628404,-8.61000481 8.6282233,-8.61000481 4.764047,0 8.627555,3.8600011 8.627555,8.61000481 0,3.23000299 -1.780051,6.04000329 -4.414579,7.52000359"
           style="fill:none;stroke:#030303;stroke-width:0.33974358974359"
           id="path5173" />
        <path
           style="fill:none;stroke:#030303;stroke-width:0.33974358974359"
           d="m -2.440413,-9.0485165 0.216323,0.810001"
           id="path5175" />
        <path
           style="fill:none;stroke:#030303;stroke-width:0.452564102564103"
           d="m -5.1129926,-8.7785155 0.8080822,1.4000001"
           id="path5177" />
        <path
           style="fill:none;stroke:#030303;stroke-width:0.33974358974359"
           d="m -6.6800914,-6.5985155 0.5891225,0.59"
           id="path5179" />
        <path
           style="fill:none;stroke:#030303;stroke-width:0.452564102564103"
           d="m -8.8466601,-5.0285155 1.3848552,0.8000013"
           id="path5181" />
        <path
           style="fill:none;stroke:#030303;stroke-width:0.33974358974359"
           d="m -9.1267017,-2.3685125 0.8044106,0.2200004"
           id="path5183" />
        <path
           style="fill:none;stroke:#030303;stroke-width:0.452564102564103"
           d="m -10.221501,0.08148931 1.6061507,0"
           id="path5185" />
        <path
           style="fill:none;stroke:#030303;stroke-width:0.33974358974359"
           d="M -9.1243652,2.5214918 -8.3199546,2.3014913"
           id="path5187" />
        <path
           style="fill:none;stroke:#030303;stroke-width:0.452564102564103"
           d="M -8.8489964,5.181492 -7.4574658,4.3814921"
           id="path5189" />
        <path
           style="fill:none;stroke:#030303;stroke-width:0.33974358974359"
           d="m -6.6737496,6.7514925 0.5877873,-0.59"
           id="path5191" />
        <path
           style="fill:none;stroke:#030303;stroke-width:0.452564102564103"
           d="m -5.0742739,8.871494 0.776373,-1.3400011"
           id="path5193" />
        <path
           style="fill:none;stroke:#030303;stroke-width:0.452564102564103"
           d="M 5.113671,8.8814939 4.329988,7.5214929"
           id="path5195" />
        <path
           style="fill:none;stroke:#030303;stroke-width:0.33974358974359"
           d="m 6.704836,6.7414925 -0.588789,-0.58"
           id="path5197" />
        <path
           style="fill:none;stroke:#030303;stroke-width:0.452564102564103"
           d="m 8.846371,5.1614921 -1.360155,-0.79"
           id="path5199" />
        <path
           style="fill:none;stroke:#030303;stroke-width:0.33974358974359"
           d="M 9.151112,2.5114918 8.347402,2.2914913"
           id="path5201" />
        <path
           style="fill:none;stroke:#030303;stroke-width:0.452564102564103"
           d="m 10.195511,0.07148931 -1.555417,0"
           id="path5203" />
        <path
           style="fill:none;stroke:#030303;stroke-width:0.33974358974359"
           d="M 9.148809,-2.3785126 8.344698,-2.1585121"
           id="path5205" />
        <path
           style="fill:none;stroke:#030303;stroke-width:0.452564102564103"
           d="M 8.836691,-5.0185155 7.482544,-4.2385142"
           id="path5207" />
        <path
           style="fill:none;stroke:#030303;stroke-width:0.33974358974359"
           d="m 6.699128,-6.6085155 -0.588421,0.59"
           id="path5209" />
        <path
           style="fill:none;stroke:#030303;stroke-width:0.452564102564103"
           d="m 5.131729,-8.7785155 -0.80875,1.39"
           id="path5211" />
        <path
           style="fill:none;stroke:#030303;stroke-width:0.33974358974359"
           d="m 2.456813,-9.0485165 -0.215288,0.800001"
           id="path5213" />
        <path
           style="fill:none;stroke:#030303;stroke-width:0.452564102564103"
           d="m 0.007833,-10.128517 0,1.5900015"
           id="path5215" />
      </g>
    </g>
    <path
       inkscape:connector-curvature="0"
       d="m 69.025,56.325 c -2.6129013,0 -4.7375971,2.115556 -4.7375971,4.727735 0,2.135913 1.421033,3.945767 3.3650681,4.5331 l 0,2.107204 2.632936,1.41e-4 0,-2.079677 c 1.996054,-0.554631 3.466996,-2.388302 3.466996,-4.561134 3.38e-4,-2.612179 -2.115205,-4.727369 -4.727403,-4.727369 z"
       style="fill:none;stroke:#ff0000"
       id="path5217" />
    <g
       transform="translate(69.025,61.075)"
       id="g5219">
      <g
         transform="scale(0.78)"
         id="g5221">
        <path
           d="M -4.2037748,7.5814929 C -6.8346316,6.1114925 -8.6120123,3.3014922 -8.6120123,0.07148931 c 0,-4.75000381 3.8628404,-8.61000481 8.6282233,-8.61000481 4.764047,0 8.627555,3.8600011 8.627555,8.61000481 0,3.23000299 -1.780051,6.04000329 -4.414579,7.52000359"
           style="fill:none;stroke:#030303;stroke-width:0.33974358974359"
           id="path5223" />
        <path
           style="fill:none;stroke:#030303;stroke-width:0.33974358974359"
           d="m -2.440413,-9.0485165 0.216323,0.810001"
           id="path5225" />
        <path
           style="fill:none;stroke:#030303;stroke-width:0.452564102564103"
           d="m -5.1129926,-8.7785155 0.8080822,1.4000001"
           id="path5227" />
        <path
           style="fill:none;stroke:#030303;stroke-width:0.33974358974359"
           d="m -6.6800914,-6.5985155 0.5891225,0.59"
           id="path5229" />
        <path
           style="fill:none;stroke:#030303;stroke-width:0.452564102564103"
           d="m -8.8466601,-5.0285155 1.3848552,0.8000013"
           id="path5231" />
        <path
           style="fill:none;stroke:#030303;stroke-width:0.33974358974359"
           d="m -9.1267017,-2.3685125 0.8044106,0.2200004"
           id="path5233" />
        <path
           style="fill:none;stroke:#030303;stroke-width:0.452564102564103"
           d="m -10.221501,0.08148931 1.6061507,0"
           id="path5235" />
        <path
           style="fill:none;stroke:#030303;stroke-width:0.33974358974359"
           d="M -9.1243652,2.5214918 -8.3199546,2.3014913"
           id="path5237" />
        <path
           style="fill:none;stroke:#030303;stroke-width:0.452564102564103"
           d="M -8.8489964,5.181492 -7.4574658,4.3814921"
           id="path5239" />
        <path
           style="fill:none;stroke:#030303;stroke-width:0.33974358974359"
           d="m -6.6737496,6.7514925 0.5877873,-0.59"
           id="path5241" />
        <path
           style="fill:none;stroke:#030303;stroke-width:0.452564102564103"
           d="m -5.0742739,8.871494 0.776373,-1.3400011"
           id="path5243" />
        <path
           style="fill:none;stroke:#030303;stroke-width:0.452564102564103"
           d="M 5.113671,8.8814939 4.329988,7.5214929"
           id="path5245" />
        <path
           style="fill:none;stroke:#030303;stroke-width:0.33974358974359"
           d="m 6.704836,6.7414925 -0.588789,-0.58"
           id="path5247" />
        <path
           style="fill:none;stroke:#030303;stroke-width:0.452564102564103"
           d="m 8.846371,5.1614921 -1.360155,-0.79"
           id="path5249" />
        <path
           style="fill:none;stroke:#030303;stroke-width:0.33974358974359"
           d="M 9.151112,2.5114918 8.347402,2.2914913"
           id="path5251" />
        <path
           style="fill:none;stroke:#030303;stroke-width:0.452564102564103"
           d="m 10.195511,0.07148931 -1.555417,0"
           id="path5253" />
        <path
           style="fill:none;stroke:#030303;stroke-width:0.33974358974359"
           d="M 9.148809,-2.3785126 8.344698,-2.1585121"
           id="path5255" />
        <path
           style="fill:none;stroke:#030303;stroke-width:0.452564102564103"
           d="M 8.836691,-5.0185155 7.482544,-4.2385142"
           id="path5257" />
        <path
           style="fill:none;stroke:#030303;stroke-width:0.33974358974359"
           d="m 6.699128,-6.6085155 -0.588421,0.59"
           id="path5259" />
        <path
           style="fill:none;stroke:#030303;stroke-width:0.452564102564103"
           d="m 5.131729,-8.7785155 -0.80875,1.39"
           id="path5261" />
        <path
           style="fill:none;stroke:#030303;stroke-width:0.33974358974359"
           d="m 2.456813,-9.0485165 -0.215288,0.800001"
           id="path5263" />
        <path
           style="fill:none;stroke:#030303;stroke-width:0.452564102564103"
           d="m 0.007833,-10.128517 0,1.5900015"
           id="path5265" />
      </g>
    </g>
    <circle
       cx="11.875"
       cy="43.6125"
       r="3.25"
       style="fill:none;stroke:#ff0000"
       id="circle5267" />
    <circle
       cx="30.925"
       cy="37.2625"
       r="3.25"
       style="fill:none;stroke:#ff0000"
       id="circle5269" />
    <circle
       cx="49.975"
       cy="37.2625"
       r="3.25"
       style="fill:none;stroke:#ff0000"
       id="circle5271" />
    <circle
       cx="69.025"
       cy="43.6125"
       r="3.25"
       style="fill:none;stroke:#ff0000"
       id="circle5273" />
    <circle
       cx="11.875"
       cy="73.14"
       r="1.50"
       style="fill:none;stroke:#ff0000"
       id="circle5275" />
    <circle
       cx="30.925"
       cy="73.14"
       r="1.50"
       style="fill:none;stroke:#ff0000"
       id="circle5277" />
    <circle
       cx="49.975"
       cy="73.14"
       r="1.50"
       style="fill:none;stroke:#ff0000"
       id="circle5279" />
    <circle
       cx="69.025"
       cy="73.14"
       r="1.50"
       style="fill:none;stroke:#ff0000"
       id="circle5281" />
    <circle
       cx="8.700000000000003"
       cy="89.65"
       r="3.25"
       style="fill:none;stroke:#ff0000"
       id="circle5283" />
    <circle
       cx="8.700000000000003"
       cy="102.35"
       r="3.25"
       style="fill:none;stroke:#ff0000"
       id="circle5285" />
    <circle
       cx="21.4"
       cy="83.3"
       r="3.25"
       style="fill:none;stroke:#ff0000"
       id="circle5287" />
    <circle
       cx="34.1"
       cy="83.3"
       r="3.25"
       style="fill:none;stroke:#ff0000"
       id="circle5289" />
    <circle
       cx="46.8"
       cy="83.3"
       r="3.25"
       style="fill:none;stroke:#ff0000"
       id="circle5291" />
    <circle
       cx="59.5"
       cy="83.3"
       r="3.25"
       style="fill:none;stroke:#ff0000"
       id="circle5293" />
    <circle
       cx="21.4"
       cy="96"
       r="3.25"
       style="fill:none;stroke:#ff0000"
       id="circle5295" />
    <circle
       cx="34.1"
       cy="96"
       r="3.25"
       style="fill:none;stroke:#ff0000"
       id="circle5297" />
    <circle
       cx="46.8"
       cy="96"
       r="3.25"
       style="fill:none;stroke:#ff0000"
       id="circle5299" />
    <circle
       cx="59.5"
       cy="96"
       r="3.25"
       style="fill:none;stroke:#ff0000"
       id="circle5301" />
    <circle
       cx="21.4"
       cy="108.7"
       r="3.25"
       style="fill:none;stroke:#ff0000"
       id="circle5303" />
    <circle
       cx="34.1"
       cy="108.7"
       r="3.25"
       style="fill:none;stroke:#ff0000"
       id="circle5305" />
    <circle
       cx="46.8"
       cy="108.7"
       r="3.25"
       style="fill:none;stroke:#ff0000"
       id="circle5307" />
    <circle
       cx="59.5"
       cy="108.7"
       r="3.25"
       style="fill:none;stroke:#ff0000"
       id="circle5309" />
    <circle
       cx="72.2"
       cy="102.35"
       r="3.25"
       style="fill:none;stroke:#ff0000"
       id="circle5311" />
    <circle
       cx="72.2"
       cy="89.65"
       r="3.25"
       style="fill:none;stroke:#ff0000"
       id="circle5313" />
  </g>
  <text
     xml:space="preserve"
     style="font-size:2.82222223px;font-style:normal;font-weight:normal;line-height:125%;letter-spacing:0px;word-spacing:0px;fill:#000000;fill-opacity:1;stroke:none;font-family:Sans"
     x="37.221947"
     y="28.577644"
     id="text5317"
     sodipodi:linespacing="125%"><tspan
       sodipodi:role="line"
       id="tspan5319"
       x="37.221947"
       y="28.577644">Tune</tspan></text>
  <text
     xml:space="preserve"
     style="font-size:2.82222223px;font-style:normal;font-weight:normal;line-height:125%;letter-spacing:0px;word-spacing:0px;fill:#000000;fill-opacity:1;stroke:none;font-family:Sans"
     x="35.992737"
     y="41.193657"
     id="text5321"
     sodipodi:linespacing="125%"><tspan
       sodipodi:role="line"
       id="tspan5323"
       x="35.992737"
       y="41.193657">Toggle</tspan></text>
  <text
     xml:space="preserve"
     style="font-size:2.82222223px;font-style:normal;font-weight:normal;line-height:125%;letter-spacing:0px;word-spacing:0px;fill:#000000;fill-opacity:1;stroke:none;font-family:Sans"
     x="34.925446"
     y="63.842442"
     id="text5325"
     sodipodi:linespacing="125%"><tspan
       sodipodi:role="line"
       id="tspan5327"
       x="34.925446"
       y="63.842442">Amount</tspan></text>
  <text
     xml:space="preserve"
     style="font-size:2.82222223px;font-style:normal;font-weight:normal;line-height:125%;letter-spacing:0px;word-spacing:0px;fill:#000000;fill-opacity:1;stroke:none;font-family:Sans"
     x="34.757324"
     y="89.156837"
     id="text5329"
     sodipodi:linespacing="125%"><tspan
       sodipodi:role="line"
       id="tspan5331"
       x="34.757324"
       y="89.156837">Tune CV</tspan></text>
  <text
     xml:space="preserve"
     style="font-size:2.82222223px;font-style:normal;font-weight:normal;line-height:125%;letter-spacing:0px;word-spacing:0px;fill:#000000;fill-opacity:1;stroke:none;font-family:Sans"
     x="34.945427"
     y="101.5257"
     id="text5333"
     sodipodi:linespacing="125%"><tspan
       sodipodi:role="line"
       id="tspan5335"
       x="34.945427"
       y="101.5257">Mod CV</tspan></text>
  <text
     xml:space="preserve"
     style="font-size:2.82222223px;font-style:normal;font-weight:normal;line-height:125%;letter-spacing:0px;word-spacing:0px;fill:#000000;fill-opacity:1;stroke:none;font-family:Sans"
     x="35.298206"
     y="114.61561"
     id="text5337"
     sodipodi:linespacing="125%"><tspan
       sodipodi:role="line"
       id="tspan5339"
       x="35.298206"
       y="114.61561">Env CV</tspan></text>
  <text
     xml:space="preserve"
     style="font-size:2.82222223px;font-style:normal;font-weight:normal;line-height:125%;letter-spacing:0px;word-spacing:0px;fill:#000000;fill-opacity:1;stroke:none;font-family:Sans"
     x="7.5563879"
     y="96.622696"
     id="text5341"
     sodipodi:linespacing="125%"><tspan
       sodipodi:role="line"
       id="tspan5343"
       x="7.5563879"
       y="96.622696">In</tspan></text>
  <text
     xml:space="preserve"
     style="font-size:2.82222223px;font-style:normal;font-weight:normal;line-height:125%;letter-spacing:0px;word-spacing:0px;fill:#000000;fill-opacity:1;stroke:none;font-family:Sans"
     x="69.412918"
     y="96.462006"
     id="text5345"
     sodipodi:linespacing="125%"><tspan
       sodipodi:role="line"
       id="tspan5347"
       x="69.412918"
       y="96.462006">Out</tspan></text>
  <text
     xml:space="preserve"
     style="font-size:2.82222223px;font-style:normal;font-weight:normal;line-height:125%;letter-spacing:0px;word-spacing:0px;fill:#000000;fill-opacity:1;stroke:none;font-family:Sans"
     x="37.629845"
     y="75.438713"
     id="text5349"
     sodipodi:linespacing="125%"><tspan
       sodipodi:role="line"
       id="tspan5351"
       x="37.629845"
       y="75.438713">LED</tspan></text>
</svg>
