<?xml version="1.0" encoding="UTF-8" standalone="no"?>
<svg
   xmlns:dc="http://purl.org/dc/elements/1.1/"
   xmlns:cc="http://creativecommons.org/ns#"
   xmlns:rdf="http://www.w3.org/1999/02/22-rdf-syntax-ns#"
   xmlns:svg="http://www.w3.org/2000/svg"
   xmlns="http://www.w3.org/2000/svg"
   xmlns:sodipodi="http://sodipodi.sourceforge.net/DTD/sodipodi-0.dtd"
   xmlns:inkscape="http://www.inkscape.org/namespaces/inkscape"
   version="1.1"
   width="210mm"
   height="297mm"
   viewBox="0 0 210 297"
   id="svg7762"
   inkscape:version="0.48.4 r9939"
   sodipodi:docname="QuadFM.svg">
  <metadata
     id="metadata8234">
    <rdf:RDF>
      <cc:Work
         rdf:about="">
        <dc:format>image/svg+xml</dc:format>
        <dc:type
           rdf:resource="http://purl.org/dc/dcmitype/StillImage" />
      </cc:Work>
    </rdf:RDF>
  </metadata>
  <sodipodi:namedview
     id="base"
     inkscape:document-units="mm"
     units="mm"
     showgrid="false"
     inkscape:zoom="1.8090324"
     inkscape:cx="199.47077"
     inkscape:cy="851.33963"
     inkscape:window-width="1680"
     inkscape:window-height="1002"
     inkscape:window-x="0"
     inkscape:window-y="0"
     inkscape:window-maximized="1"
     inkscape:current-layer="g7768" />
  <defs
     id="defs7765">
    <g
       id="potgrading" />
  </defs>
  <g
     style="fill:none;stroke-width:0.05;stroke:#ff0000"
     id="g7768">
    <rect
       x="0.0"
       y="0.0"
       width="80.90"
       height="128.50"
       id="rect7770" />
    <circle
       cx="7.5"
       cy="3"
       r="1.6"
       id="circle7772" />
    <circle
       cx="7.5"
       cy="125.5"
       r="1.6"
       id="circle7774" />
    <circle
       cx="73.54"
       cy="3"
       r="1.6"
       id="circle7776" />
    <circle
       cx="73.54"
       cy="125.5"
       r="1.6"
       id="circle7778" />
    <path
       inkscape:connector-curvature="0"
       d="m 11.875,21.4 c -2.6129013,0 -4.7375971,2.115556 -4.7375971,4.727735 0,2.135913 1.421033,3.945767 3.3650681,4.5331 l 0,2.107204 2.632936,1.41e-4 0,-2.079677 c 1.996054,-0.554631 3.466996,-2.388302 3.466996,-4.561134 3.38e-4,-2.612179 -2.115205,-4.727369 -4.727403,-4.727369 z"
       style="fill:none;stroke:#ff0000"
       id="path7780" />
    <g
       transform="translate(11.875,26.15)"
       id="g7782">
      <g
         transform="scale(0.78)"
         id="g7784">
        <path
           style="fill:none;stroke:#030303;stroke-width:0.212"
           d="M -4.2037748,7.5814929 C -6.8346316,6.1114925 -8.6120123,3.3014922 -8.6120123,0.07148931 c 0,-4.75000381 3.8628404,-8.61000481 8.6282233,-8.61000481 4.764047,0 8.627555,3.8600011 8.627555,8.61000481 0,3.23000299 -1.780051,6.04000329 -4.414579,7.52000359"
           id="path7786" />
        <path
           style="fill:none;stroke:#030303;stroke-width:0.212"
           d="m -2.440413,-9.0485165 0.216323,0.810001"
           id="path7788" />
        <path
           style="fill:none;stroke:#030303;stroke-width:0.283"
           d="m -5.1129926,-8.7785155 0.8080822,1.4000001"
           id="path7790" />
        <path
           style="fill:none;stroke:#030303;stroke-width:0.212"
           d="m -6.6800914,-6.5985155 0.5891225,0.59"
           id="path7792" />
        <path
           style="fill:none;stroke:#030303;stroke-width:0.283"
           d="m -8.8466601,-5.0285155 1.3848552,0.8000013"
           id="path7794" />
        <path
           style="fill:none;stroke:#030303;stroke-width:0.212"
           d="m -9.1267017,-2.3685125 0.8044106,0.2200004"
           id="path7796" />
        <path
           style="fill:none;stroke:#030303;stroke-width:0.283"
           d="m -10.221501,0.08148931 1.6061507,0"
           id="path7798" />
        <path
           style="fill:none;stroke:#030303;stroke-width:0.212"
           d="M -9.1243652,2.5214918 -8.3199546,2.3014913"
           id="path7800" />
        <path
           style="fill:none;stroke:#030303;stroke-width:0.283"
           d="M -8.8489964,5.181492 -7.4574658,4.3814921"
           id="path7802" />
        <path
           style="fill:none;stroke:#030303;stroke-width:0.212"
           d="m -6.6737496,6.7514925 0.5877873,-0.59"
           id="path7804" />
        <path
           style="fill:none;stroke:#030303;stroke-width:0.283"
           d="m -5.0742739,8.871494 0.776373,-1.3400011"
           id="path7806" />
        <path
           style="fill:none;stroke:#030303;stroke-width:0.283"
           d="M 5.113671,8.8814939 4.329988,7.5214929"
           id="path7808" />
        <path
           style="fill:none;stroke:#030303;stroke-width:0.212"
           d="m 6.704836,6.7414925 -0.588789,-0.58"
           id="path7810" />
        <path
           style="fill:none;stroke:#030303;stroke-width:0.283"
           d="m 8.846371,5.1614921 -1.360155,-0.79"
           id="path7812" />
        <path
           style="fill:none;stroke:#030303;stroke-width:0.212"
           d="M 9.151112,2.5114918 8.347402,2.2914913"
           id="path7814" />
        <path
           style="fill:none;stroke:#030303;stroke-width:0.283"
           d="m 10.195511,0.07148931 -1.555417,0"
           id="path7816" />
        <path
           style="fill:none;stroke:#030303;stroke-width:0.212"
           d="M 9.148809,-2.3785126 8.344698,-2.1585121"
           id="path7818" />
        <path
           style="fill:none;stroke:#030303;stroke-width:0.283"
           d="M 8.836691,-5.0185155 7.482544,-4.2385142"
           id="path7820" />
        <path
           style="fill:none;stroke:#030303;stroke-width:0.212"
           d="m 6.699128,-6.6085155 -0.588421,0.59"
           id="path7822" />
        <path
           style="fill:none;stroke:#030303;stroke-width:0.283"
           d="m 5.131729,-8.7785155 -0.80875,1.39"
           id="path7824" />
        <path
           style="fill:none;stroke:#030303;stroke-width:0.212"
           d="m 2.456813,-9.0485165 -0.215288,0.800001"
           id="path7826" />
        <path
           style="fill:none;stroke:#030303;stroke-width:0.283"
           d="m 0.007833,-10.128517 0,1.5900015"
           id="path7828" />
      </g>
    </g>
    <path
       inkscape:connector-curvature="0"
       d="m 30.925,15.05 c -2.6129013,0 -4.7375971,2.115556 -4.7375971,4.727735 0,2.135913 1.421033,3.945767 3.3650681,4.5331 l 0,2.107204 2.632936,1.41e-4 0,-2.079677 c 1.996054,-0.554631 3.466996,-2.388302 3.466996,-4.561134 3.38e-4,-2.612179 -2.115205,-4.727369 -4.727403,-4.727369 z"
       style="fill:none;stroke:#ff0000"
       id="path7830" />
    <g
       transform="translate(30.925,19.8)"
       id="g7832">
      <g
         transform="scale(0.78)"
         id="g7834">
        <path
           style="fill:none;stroke:#030303;stroke-width:0.212"
           d="M -4.2037748,7.5814929 C -6.8346316,6.1114925 -8.6120123,3.3014922 -8.6120123,0.07148931 c 0,-4.75000381 3.8628404,-8.61000481 8.6282233,-8.61000481 4.764047,0 8.627555,3.8600011 8.627555,8.61000481 0,3.23000299 -1.780051,6.04000329 -4.414579,7.52000359"
           id="path7836" />
        <path
           style="fill:none;stroke:#030303;stroke-width:0.212"
           d="m -2.440413,-9.0485165 0.216323,0.810001"
           id="path7838" />
        <path
           style="fill:none;stroke:#030303;stroke-width:0.283"
           d="m -5.1129926,-8.7785155 0.8080822,1.4000001"
           id="path7840" />
        <path
           style="fill:none;stroke:#030303;stroke-width:0.212"
           d="m -6.6800914,-6.5985155 0.5891225,0.59"
           id="path7842" />
        <path
           style="fill:none;stroke:#030303;stroke-width:0.283"
           d="m -8.8466601,-5.0285155 1.3848552,0.8000013"
           id="path7844" />
        <path
           style="fill:none;stroke:#030303;stroke-width:0.212"
           d="m -9.1267017,-2.3685125 0.8044106,0.2200004"
           id="path7846" />
        <path
           style="fill:none;stroke:#030303;stroke-width:0.283"
           d="m -10.221501,0.08148931 1.6061507,0"
           id="path7848" />
        <path
           style="fill:none;stroke:#030303;stroke-width:0.212"
           d="M -9.1243652,2.5214918 -8.3199546,2.3014913"
           id="path7850" />
        <path
           style="fill:none;stroke:#030303;stroke-width:0.283"
           d="M -8.8489964,5.181492 -7.4574658,4.3814921"
           id="path7852" />
        <path
           style="fill:none;stroke:#030303;stroke-width:0.212"
           d="m -6.6737496,6.7514925 0.5877873,-0.59"
           id="path7854" />
        <path
           style="fill:none;stroke:#030303;stroke-width:0.283"
           d="m -5.0742739,8.871494 0.776373,-1.3400011"
           id="path7856" />
        <path
           style="fill:none;stroke:#030303;stroke-width:0.283"
           d="M 5.113671,8.8814939 4.329988,7.5214929"
           id="path7858" />
        <path
           style="fill:none;stroke:#030303;stroke-width:0.212"
           d="m 6.704836,6.7414925 -0.588789,-0.58"
           id="path7860" />
        <path
           style="fill:none;stroke:#030303;stroke-width:0.283"
           d="m 8.846371,5.1614921 -1.360155,-0.79"
           id="path7862" />
        <path
           style="fill:none;stroke:#030303;stroke-width:0.212"
           d="M 9.151112,2.5114918 8.347402,2.2914913"
           id="path7864" />
        <path
           style="fill:none;stroke:#030303;stroke-width:0.283"
           d="m 10.195511,0.07148931 -1.555417,0"
           id="path7866" />
        <path
           style="fill:none;stroke:#030303;stroke-width:0.212"
           d="M 9.148809,-2.3785126 8.344698,-2.1585121"
           id="path7868" />
        <path
           style="fill:none;stroke:#030303;stroke-width:0.283"
           d="M 8.836691,-5.0185155 7.482544,-4.2385142"
           id="path7870" />
        <path
           style="fill:none;stroke:#030303;stroke-width:0.212"
           d="m 6.699128,-6.6085155 -0.588421,0.59"
           id="path7872" />
        <path
           style="fill:none;stroke:#030303;stroke-width:0.283"
           d="m 5.131729,-8.7785155 -0.80875,1.39"
           id="path7874" />
        <path
           style="fill:none;stroke:#030303;stroke-width:0.212"
           d="m 2.456813,-9.0485165 -0.215288,0.800001"
           id="path7876" />
        <path
           style="fill:none;stroke:#030303;stroke-width:0.283"
           d="m 0.007833,-10.128517 0,1.5900015"
           id="path7878" />
      </g>
    </g>
    <path
       inkscape:connector-curvature="0"
       d="m 49.975,15.05 c -2.6129013,0 -4.7375971,2.115556 -4.7375971,4.727735 0,2.135913 1.421033,3.945767 3.3650681,4.5331 l 0,2.107204 2.632936,1.41e-4 0,-2.079677 c 1.996054,-0.554631 3.466996,-2.388302 3.466996,-4.561134 3.38e-4,-2.612179 -2.115205,-4.727369 -4.727403,-4.727369 z"
       style="fill:none;stroke:#ff0000"
       id="path7880" />
    <g
       transform="translate(49.975,19.8)"
       id="g7882">
      <g
         transform="scale(0.78)"
         id="g7884">
        <path
           style="fill:none;stroke:#030303;stroke-width:0.212"
           d="M -4.2037748,7.5814929 C -6.8346316,6.1114925 -8.6120123,3.3014922 -8.6120123,0.07148931 c 0,-4.75000381 3.8628404,-8.61000481 8.6282233,-8.61000481 4.764047,0 8.627555,3.8600011 8.627555,8.61000481 0,3.23000299 -1.780051,6.04000329 -4.414579,7.52000359"
           id="path7886" />
        <path
           style="fill:none;stroke:#030303;stroke-width:0.212"
           d="m -2.440413,-9.0485165 0.216323,0.810001"
           id="path7888" />
        <path
           style="fill:none;stroke:#030303;stroke-width:0.283"
           d="m -5.1129926,-8.7785155 0.8080822,1.4000001"
           id="path7890" />
        <path
           style="fill:none;stroke:#030303;stroke-width:0.212"
           d="m -6.6800914,-6.5985155 0.5891225,0.59"
           id="path7892" />
        <path
           style="fill:none;stroke:#030303;stroke-width:0.283"
           d="m -8.8466601,-5.0285155 1.3848552,0.8000013"
           id="path7894" />
        <path
           style="fill:none;stroke:#030303;stroke-width:0.212"
           d="m -9.1267017,-2.3685125 0.8044106,0.2200004"
           id="path7896" />
        <path
           style="fill:none;stroke:#030303;stroke-width:0.283"
           d="m -10.221501,0.08148931 1.6061507,0"
           id="path7898" />
        <path
           style="fill:none;stroke:#030303;stroke-width:0.212"
           d="M -9.1243652,2.5214918 -8.3199546,2.3014913"
           id="path7900" />
        <path
           style="fill:none;stroke:#030303;stroke-width:0.283"
           d="M -8.8489964,5.181492 -7.4574658,4.3814921"
           id="path7902" />
        <path
           style="fill:none;stroke:#030303;stroke-width:0.212"
           d="m -6.6737496,6.7514925 0.5877873,-0.59"
           id="path7904" />
        <path
           style="fill:none;stroke:#030303;stroke-width:0.283"
           d="m -5.0742739,8.871494 0.776373,-1.3400011"
           id="path7906" />
        <path
           style="fill:none;stroke:#030303;stroke-width:0.283"
           d="M 5.113671,8.8814939 4.329988,7.5214929"
           id="path7908" />
        <path
           style="fill:none;stroke:#030303;stroke-width:0.212"
           d="m 6.704836,6.7414925 -0.588789,-0.58"
           id="path7910" />
        <path
           style="fill:none;stroke:#030303;stroke-width:0.283"
           d="m 8.846371,5.1614921 -1.360155,-0.79"
           id="path7912" />
        <path
           style="fill:none;stroke:#030303;stroke-width:0.212"
           d="M 9.151112,2.5114918 8.347402,2.2914913"
           id="path7914" />
        <path
           style="fill:none;stroke:#030303;stroke-width:0.283"
           d="m 10.195511,0.07148931 -1.555417,0"
           id="path7916" />
        <path
           style="fill:none;stroke:#030303;stroke-width:0.212"
           d="M 9.148809,-2.3785126 8.344698,-2.1585121"
           id="path7918" />
        <path
           style="fill:none;stroke:#030303;stroke-width:0.283"
           d="M 8.836691,-5.0185155 7.482544,-4.2385142"
           id="path7920" />
        <path
           style="fill:none;stroke:#030303;stroke-width:0.212"
           d="m 6.699128,-6.6085155 -0.588421,0.59"
           id="path7922" />
        <path
           style="fill:none;stroke:#030303;stroke-width:0.283"
           d="m 5.131729,-8.7785155 -0.80875,1.39"
           id="path7924" />
        <path
           style="fill:none;stroke:#030303;stroke-width:0.212"
           d="m 2.456813,-9.0485165 -0.215288,0.800001"
           id="path7926" />
        <path
           style="fill:none;stroke:#030303;stroke-width:0.283"
           d="m 0.007833,-10.128517 0,1.5900015"
           id="path7928" />
      </g>
    </g>
    <path
       inkscape:connector-curvature="0"
       d="m 69.025,21.4 c -2.6129013,0 -4.7375971,2.115556 -4.7375971,4.727735 0,2.135913 1.421033,3.945767 3.3650681,4.5331 l 0,2.107204 2.632936,1.41e-4 0,-2.079677 c 1.996054,-0.554631 3.466996,-2.388302 3.466996,-4.561134 3.38e-4,-2.612179 -2.115205,-4.727369 -4.727403,-4.727369 z"
       style="fill:none;stroke:#ff0000"
       id="path7930" />
    <g
       transform="translate(69.025,26.15)"
       id="g7932">
      <g
         transform="scale(0.78)"
         id="g7934">
        <path
           style="fill:none;stroke:#030303;stroke-width:0.212"
           d="M -4.2037748,7.5814929 C -6.8346316,6.1114925 -8.6120123,3.3014922 -8.6120123,0.07148931 c 0,-4.75000381 3.8628404,-8.61000481 8.6282233,-8.61000481 4.764047,0 8.627555,3.8600011 8.627555,8.61000481 0,3.23000299 -1.780051,6.04000329 -4.414579,7.52000359"
           id="path7936" />
        <path
           style="fill:none;stroke:#030303;stroke-width:0.212"
           d="m -2.440413,-9.0485165 0.216323,0.810001"
           id="path7938" />
        <path
           style="fill:none;stroke:#030303;stroke-width:0.283"
           d="m -5.1129926,-8.7785155 0.8080822,1.4000001"
           id="path7940" />
        <path
           style="fill:none;stroke:#030303;stroke-width:0.212"
           d="m -6.6800914,-6.5985155 0.5891225,0.59"
           id="path7942" />
        <path
           style="fill:none;stroke:#030303;stroke-width:0.283"
           d="m -8.8466601,-5.0285155 1.3848552,0.8000013"
           id="path7944" />
        <path
           style="fill:none;stroke:#030303;stroke-width:0.212"
           d="m -9.1267017,-2.3685125 0.8044106,0.2200004"
           id="path7946" />
        <path
           style="fill:none;stroke:#030303;stroke-width:0.283"
           d="m -10.221501,0.08148931 1.6061507,0"
           id="path7948" />
        <path
           style="fill:none;stroke:#030303;stroke-width:0.212"
           d="M -9.1243652,2.5214918 -8.3199546,2.3014913"
           id="path7950" />
        <path
           style="fill:none;stroke:#030303;stroke-width:0.283"
           d="M -8.8489964,5.181492 -7.4574658,4.3814921"
           id="path7952" />
        <path
           style="fill:none;stroke:#030303;stroke-width:0.212"
           d="m -6.6737496,6.7514925 0.5877873,-0.59"
           id="path7954" />
        <path
           style="fill:none;stroke:#030303;stroke-width:0.283"
           d="m -5.0742739,8.871494 0.776373,-1.3400011"
           id="path7956" />
        <path
           style="fill:none;stroke:#030303;stroke-width:0.283"
           d="M 5.113671,8.8814939 4.329988,7.5214929"
           id="path7958" />
        <path
           style="fill:none;stroke:#030303;stroke-width:0.212"
           d="m 6.704836,6.7414925 -0.588789,-0.58"
           id="path7960" />
        <path
           style="fill:none;stroke:#030303;stroke-width:0.283"
           d="m 8.846371,5.1614921 -1.360155,-0.79"
           id="path7962" />
        <path
           style="fill:none;stroke:#030303;stroke-width:0.212"
           d="M 9.151112,2.5114918 8.347402,2.2914913"
           id="path7964" />
        <path
           style="fill:none;stroke:#030303;stroke-width:0.283"
           d="m 10.195511,0.07148931 -1.555417,0"
           id="path7966" />
        <path
           style="fill:none;stroke:#030303;stroke-width:0.212"
           d="M 9.148809,-2.3785126 8.344698,-2.1585121"
           id="path7968" />
        <path
           style="fill:none;stroke:#030303;stroke-width:0.283"
           d="M 8.836691,-5.0185155 7.482544,-4.2385142"
           id="path7970" />
        <path
           style="fill:none;stroke:#030303;stroke-width:0.212"
           d="m 6.699128,-6.6085155 -0.588421,0.59"
           id="path7972" />
        <path
           style="fill:none;stroke:#030303;stroke-width:0.283"
           d="m 5.131729,-8.7785155 -0.80875,1.39"
           id="path7974" />
        <path
           style="fill:none;stroke:#030303;stroke-width:0.212"
           d="m 2.456813,-9.0485165 -0.215288,0.800001"
           id="path7976" />
        <path
           style="fill:none;stroke:#030303;stroke-width:0.283"
           d="m 0.007833,-10.128517 0,1.5900015"
           id="path7978" />
      </g>
    </g>
    <path
       inkscape:connector-curvature="0"
       d="m 11.875,56.325 c -2.6129013,0 -4.7375971,2.115556 -4.7375971,4.727735 0,2.135913 1.421033,3.945767 3.3650681,4.5331 l 0,2.107204 2.632936,1.41e-4 0,-2.079677 c 1.996054,-0.554631 3.466996,-2.388302 3.466996,-4.561134 3.38e-4,-2.612179 -2.115205,-4.727369 -4.727403,-4.727369 z"
       style="fill:none;stroke:#ff0000"
       id="path7980" />
    <g
       transform="translate(11.875,61.075)"
       id="g7982">
      <g
         transform="scale(0.78)"
         id="g7984">
        <path
           style="fill:none;stroke:#030303;stroke-width:0.212"
           d="M -4.2037748,7.5814929 C -6.8346316,6.1114925 -8.6120123,3.3014922 -8.6120123,0.07148931 c 0,-4.75000381 3.8628404,-8.61000481 8.6282233,-8.61000481 4.764047,0 8.627555,3.8600011 8.627555,8.61000481 0,3.23000299 -1.780051,6.04000329 -4.414579,7.52000359"
           id="path7986" />
        <path
           style="fill:none;stroke:#030303;stroke-width:0.212"
           d="m -2.440413,-9.0485165 0.216323,0.810001"
           id="path7988" />
        <path
           style="fill:none;stroke:#030303;stroke-width:0.283"
           d="m -5.1129926,-8.7785155 0.8080822,1.4000001"
           id="path7990" />
        <path
           style="fill:none;stroke:#030303;stroke-width:0.212"
           d="m -6.6800914,-6.5985155 0.5891225,0.59"
           id="path7992" />
        <path
           style="fill:none;stroke:#030303;stroke-width:0.283"
           d="m -8.8466601,-5.0285155 1.3848552,0.8000013"
           id="path7994" />
        <path
           style="fill:none;stroke:#030303;stroke-width:0.212"
           d="m -9.1267017,-2.3685125 0.8044106,0.2200004"
           id="path7996" />
        <path
           style="fill:none;stroke:#030303;stroke-width:0.283"
           d="m -10.221501,0.08148931 1.6061507,0"
           id="path7998" />
        <path
           style="fill:none;stroke:#030303;stroke-width:0.212"
           d="M -9.1243652,2.5214918 -8.3199546,2.3014913"
           id="path8000" />
        <path
           style="fill:none;stroke:#030303;stroke-width:0.283"
           d="M -8.8489964,5.181492 -7.4574658,4.3814921"
           id="path8002" />
        <path
           style="fill:none;stroke:#030303;stroke-width:0.212"
           d="m -6.6737496,6.7514925 0.5877873,-0.59"
           id="path8004" />
        <path
           style="fill:none;stroke:#030303;stroke-width:0.283"
           d="m -5.0742739,8.871494 0.776373,-1.3400011"
           id="path8006" />
        <path
           style="fill:none;stroke:#030303;stroke-width:0.283"
           d="M 5.113671,8.8814939 4.329988,7.5214929"
           id="path8008" />
        <path
           style="fill:none;stroke:#030303;stroke-width:0.212"
           d="m 6.704836,6.7414925 -0.588789,-0.58"
           id="path8010" />
        <path
           style="fill:none;stroke:#030303;stroke-width:0.283"
           d="m 8.846371,5.1614921 -1.360155,-0.79"
           id="path8012" />
        <path
           style="fill:none;stroke:#030303;stroke-width:0.212"
           d="M 9.151112,2.5114918 8.347402,2.2914913"
           id="path8014" />
        <path
           style="fill:none;stroke:#030303;stroke-width:0.283"
           d="m 10.195511,0.07148931 -1.555417,0"
           id="path8016" />
        <path
           style="fill:none;stroke:#030303;stroke-width:0.212"
           d="M 9.148809,-2.3785126 8.344698,-2.1585121"
           id="path8018" />
        <path
           style="fill:none;stroke:#030303;stroke-width:0.283"
           d="M 8.836691,-5.0185155 7.482544,-4.2385142"
           id="path8020" />
        <path
           style="fill:none;stroke:#030303;stroke-width:0.212"
           d="m 6.699128,-6.6085155 -0.588421,0.59"
           id="path8022" />
        <path
           style="fill:none;stroke:#030303;stroke-width:0.283"
           d="m 5.131729,-8.7785155 -0.80875,1.39"
           id="path8024" />
        <path
           style="fill:none;stroke:#030303;stroke-width:0.212"
           d="m 2.456813,-9.0485165 -0.215288,0.800001"
           id="path8026" />
        <path
           style="fill:none;stroke:#030303;stroke-width:0.283"
           d="m 0.007833,-10.128517 0,1.5900015"
           id="path8028" />
      </g>
    </g>
    <path
       inkscape:connector-curvature="0"
       d="m 30.925,49.975 c -2.6129013,0 -4.7375971,2.115556 -4.7375971,4.727735 0,2.135913 1.421033,3.945767 3.3650681,4.5331 l 0,2.107204 2.632936,1.41e-4 0,-2.079677 c 1.996054,-0.554631 3.466996,-2.388302 3.466996,-4.561134 3.38e-4,-2.612179 -2.115205,-4.727369 -4.727403,-4.727369 z"
       style="fill:none;stroke:#ff0000"
       id="path8030" />
    <g
       transform="translate(30.925,54.725)"
       id="g8032">
      <g
         transform="scale(0.78)"
         id="g8034">
        <path
           style="fill:none;stroke:#030303;stroke-width:0.212"
           d="M -4.2037748,7.5814929 C -6.8346316,6.1114925 -8.6120123,3.3014922 -8.6120123,0.07148931 c 0,-4.75000381 3.8628404,-8.61000481 8.6282233,-8.61000481 4.764047,0 8.627555,3.8600011 8.627555,8.61000481 0,3.23000299 -1.780051,6.04000329 -4.414579,7.52000359"
           id="path8036" />
        <path
           style="fill:none;stroke:#030303;stroke-width:0.212"
           d="m -2.440413,-9.0485165 0.216323,0.810001"
           id="path8038" />
        <path
           style="fill:none;stroke:#030303;stroke-width:0.283"
           d="m -5.1129926,-8.7785155 0.8080822,1.4000001"
           id="path8040" />
        <path
           style="fill:none;stroke:#030303;stroke-width:0.212"
           d="m -6.6800914,-6.5985155 0.5891225,0.59"
           id="path8042" />
        <path
           style="fill:none;stroke:#030303;stroke-width:0.283"
           d="m -8.8466601,-5.0285155 1.3848552,0.8000013"
           id="path8044" />
        <path
           style="fill:none;stroke:#030303;stroke-width:0.212"
           d="m -9.1267017,-2.3685125 0.8044106,0.2200004"
           id="path8046" />
        <path
           style="fill:none;stroke:#030303;stroke-width:0.283"
           d="m -10.221501,0.08148931 1.6061507,0"
           id="path8048" />
        <path
           style="fill:none;stroke:#030303;stroke-width:0.212"
           d="M -9.1243652,2.5214918 -8.3199546,2.3014913"
           id="path8050" />
        <path
           style="fill:none;stroke:#030303;stroke-width:0.283"
           d="M -8.8489964,5.181492 -7.4574658,4.3814921"
           id="path8052" />
        <path
           style="fill:none;stroke:#030303;stroke-width:0.212"
           d="m -6.6737496,6.7514925 0.5877873,-0.59"
           id="path8054" />
        <path
           style="fill:none;stroke:#030303;stroke-width:0.283"
           d="m -5.0742739,8.871494 0.776373,-1.3400011"
           id="path8056" />
        <path
           style="fill:none;stroke:#030303;stroke-width:0.283"
           d="M 5.113671,8.8814939 4.329988,7.5214929"
           id="path8058" />
        <path
           style="fill:none;stroke:#030303;stroke-width:0.212"
           d="m 6.704836,6.7414925 -0.588789,-0.58"
           id="path8060" />
        <path
           style="fill:none;stroke:#030303;stroke-width:0.283"
           d="m 8.846371,5.1614921 -1.360155,-0.79"
           id="path8062" />
        <path
           style="fill:none;stroke:#030303;stroke-width:0.212"
           d="M 9.151112,2.5114918 8.347402,2.2914913"
           id="path8064" />
        <path
           style="fill:none;stroke:#030303;stroke-width:0.283"
           d="m 10.195511,0.07148931 -1.555417,0"
           id="path8066" />
        <path
           style="fill:none;stroke:#030303;stroke-width:0.212"
           d="M 9.148809,-2.3785126 8.344698,-2.1585121"
           id="path8068" />
        <path
           style="fill:none;stroke:#030303;stroke-width:0.283"
           d="M 8.836691,-5.0185155 7.482544,-4.2385142"
           id="path8070" />
        <path
           style="fill:none;stroke:#030303;stroke-width:0.212"
           d="m 6.699128,-6.6085155 -0.588421,0.59"
           id="path8072" />
        <path
           style="fill:none;stroke:#030303;stroke-width:0.283"
           d="m 5.131729,-8.7785155 -0.80875,1.39"
           id="path8074" />
        <path
           style="fill:none;stroke:#030303;stroke-width:0.212"
           d="m 2.456813,-9.0485165 -0.215288,0.800001"
           id="path8076" />
        <path
           style="fill:none;stroke:#030303;stroke-width:0.283"
           d="m 0.007833,-10.128517 0,1.5900015"
           id="path8078" />
      </g>
    </g>
    <path
       inkscape:connector-curvature="0"
       d="m 49.975,49.975 c -2.6129013,0 -4.7375971,2.115556 -4.7375971,4.727735 0,2.135913 1.421033,3.945767 3.3650681,4.5331 l 0,2.107204 2.632936,1.41e-4 0,-2.079677 c 1.996054,-0.554631 3.466996,-2.388302 3.466996,-4.561134 3.38e-4,-2.612179 -2.115205,-4.727369 -4.727403,-4.727369 z"
       style="fill:none;stroke:#ff0000"
       id="path8080" />
    <g
       transform="translate(49.975,54.725)"
       id="g8082">
      <g
         transform="scale(0.78)"
         id="g8084">
        <path
           style="fill:none;stroke:#030303;stroke-width:0.212"
           d="M -4.2037748,7.5814929 C -6.8346316,6.1114925 -8.6120123,3.3014922 -8.6120123,0.07148931 c 0,-4.75000381 3.8628404,-8.61000481 8.6282233,-8.61000481 4.764047,0 8.627555,3.8600011 8.627555,8.61000481 0,3.23000299 -1.780051,6.04000329 -4.414579,7.52000359"
           id="path8086" />
        <path
           style="fill:none;stroke:#030303;stroke-width:0.212"
           d="m -2.440413,-9.0485165 0.216323,0.810001"
           id="path8088" />
        <path
           style="fill:none;stroke:#030303;stroke-width:0.283"
           d="m -5.1129926,-8.7785155 0.8080822,1.4000001"
           id="path8090" />
        <path
           style="fill:none;stroke:#030303;stroke-width:0.212"
           d="m -6.6800914,-6.5985155 0.5891225,0.59"
           id="path8092" />
        <path
           style="fill:none;stroke:#030303;stroke-width:0.283"
           d="m -8.8466601,-5.0285155 1.3848552,0.8000013"
           id="path8094" />
        <path
           style="fill:none;stroke:#030303;stroke-width:0.212"
           d="m -9.1267017,-2.3685125 0.8044106,0.2200004"
           id="path8096" />
        <path
           style="fill:none;stroke:#030303;stroke-width:0.283"
           d="m -10.221501,0.08148931 1.6061507,0"
           id="path8098" />
        <path
           style="fill:none;stroke:#030303;stroke-width:0.212"
           d="M -9.1243652,2.5214918 -8.3199546,2.3014913"
           id="path8100" />
        <path
           style="fill:none;stroke:#030303;stroke-width:0.283"
           d="M -8.8489964,5.181492 -7.4574658,4.3814921"
           id="path8102" />
        <path
           style="fill:none;stroke:#030303;stroke-width:0.212"
           d="m -6.6737496,6.7514925 0.5877873,-0.59"
           id="path8104" />
        <path
           style="fill:none;stroke:#030303;stroke-width:0.283"
           d="m -5.0742739,8.871494 0.776373,-1.3400011"
           id="path8106" />
        <path
           style="fill:none;stroke:#030303;stroke-width:0.283"
           d="M 5.113671,8.8814939 4.329988,7.5214929"
           id="path8108" />
        <path
           style="fill:none;stroke:#030303;stroke-width:0.212"
           d="m 6.704836,6.7414925 -0.588789,-0.58"
           id="path8110" />
        <path
           style="fill:none;stroke:#030303;stroke-width:0.283"
           d="m 8.846371,5.1614921 -1.360155,-0.79"
           id="path8112" />
        <path
           style="fill:none;stroke:#030303;stroke-width:0.212"
           d="M 9.151112,2.5114918 8.347402,2.2914913"
           id="path8114" />
        <path
           style="fill:none;stroke:#030303;stroke-width:0.283"
           d="m 10.195511,0.07148931 -1.555417,0"
           id="path8116" />
        <path
           style="fill:none;stroke:#030303;stroke-width:0.212"
           d="M 9.148809,-2.3785126 8.344698,-2.1585121"
           id="path8118" />
        <path
           style="fill:none;stroke:#030303;stroke-width:0.283"
           d="M 8.836691,-5.0185155 7.482544,-4.2385142"
           id="path8120" />
        <path
           style="fill:none;stroke:#030303;stroke-width:0.212"
           d="m 6.699128,-6.6085155 -0.588421,0.59"
           id="path8122" />
        <path
           style="fill:none;stroke:#030303;stroke-width:0.283"
           d="m 5.131729,-8.7785155 -0.80875,1.39"
           id="path8124" />
        <path
           style="fill:none;stroke:#030303;stroke-width:0.212"
           d="m 2.456813,-9.0485165 -0.215288,0.800001"
           id="path8126" />
        <path
           style="fill:none;stroke:#030303;stroke-width:0.283"
           d="m 0.007833,-10.128517 0,1.5900015"
           id="path8128" />
      </g>
    </g>
    <path
       inkscape:connector-curvature="0"
       d="m 69.025,56.325 c -2.6129013,0 -4.7375971,2.115556 -4.7375971,4.727735 0,2.135913 1.421033,3.945767 3.3650681,4.5331 l 0,2.107204 2.632936,1.41e-4 0,-2.079677 c 1.996054,-0.554631 3.466996,-2.388302 3.466996,-4.561134 3.38e-4,-2.612179 -2.115205,-4.727369 -4.727403,-4.727369 z"
       style="fill:none;stroke:#ff0000"
       id="path8130" />
    <g
       transform="translate(69.025,61.075)"
       id="g8132">
      <g
         transform="scale(0.78)"
         id="g8134">
        <path
           style="fill:none;stroke:#030303;stroke-width:0.212"
           d="M -4.2037748,7.5814929 C -6.8346316,6.1114925 -8.6120123,3.3014922 -8.6120123,0.07148931 c 0,-4.75000381 3.8628404,-8.61000481 8.6282233,-8.61000481 4.764047,0 8.627555,3.8600011 8.627555,8.61000481 0,3.23000299 -1.780051,6.04000329 -4.414579,7.52000359"
           id="path8136" />
        <path
           style="fill:none;stroke:#030303;stroke-width:0.212"
           d="m -2.440413,-9.0485165 0.216323,0.810001"
           id="path8138" />
        <path
           style="fill:none;stroke:#030303;stroke-width:0.283"
           d="m -5.1129926,-8.7785155 0.8080822,1.4000001"
           id="path8140" />
        <path
           style="fill:none;stroke:#030303;stroke-width:0.212"
           d="m -6.6800914,-6.5985155 0.5891225,0.59"
           id="path8142" />
        <path
           style="fill:none;stroke:#030303;stroke-width:0.283"
           d="m -8.8466601,-5.0285155 1.3848552,0.8000013"
           id="path8144" />
        <path
           style="fill:none;stroke:#030303;stroke-width:0.212"
           d="m -9.1267017,-2.3685125 0.8044106,0.2200004"
           id="path8146" />
        <path
           style="fill:none;stroke:#030303;stroke-width:0.283"
           d="m -10.221501,0.08148931 1.6061507,0"
           id="path8148" />
        <path
           style="fill:none;stroke:#030303;stroke-width:0.212"
           d="M -9.1243652,2.5214918 -8.3199546,2.3014913"
           id="path8150" />
        <path
           style="fill:none;stroke:#030303;stroke-width:0.283"
           d="M -8.8489964,5.181492 -7.4574658,4.3814921"
           id="path8152" />
        <path
           style="fill:none;stroke:#030303;stroke-width:0.212"
           d="m -6.6737496,6.7514925 0.5877873,-0.59"
           id="path8154" />
        <path
           style="fill:none;stroke:#030303;stroke-width:0.283"
           d="m -5.0742739,8.871494 0.776373,-1.3400011"
           id="path8156" />
        <path
           style="fill:none;stroke:#030303;stroke-width:0.283"
           d="M 5.113671,8.8814939 4.329988,7.5214929"
           id="path8158" />
        <path
           style="fill:none;stroke:#030303;stroke-width:0.212"
           d="m 6.704836,6.7414925 -0.588789,-0.58"
           id="path8160" />
        <path
           style="fill:none;stroke:#030303;stroke-width:0.283"
           d="m 8.846371,5.1614921 -1.360155,-0.79"
           id="path8162" />
        <path
           style="fill:none;stroke:#030303;stroke-width:0.212"
           d="M 9.151112,2.5114918 8.347402,2.2914913"
           id="path8164" />
        <path
           style="fill:none;stroke:#030303;stroke-width:0.283"
           d="m 10.195511,0.07148931 -1.555417,0"
           id="path8166" />
        <path
           style="fill:none;stroke:#030303;stroke-width:0.212"
           d="M 9.148809,-2.3785126 8.344698,-2.1585121"
           id="path8168" />
        <path
           style="fill:none;stroke:#030303;stroke-width:0.283"
           d="M 8.836691,-5.0185155 7.482544,-4.2385142"
           id="path8170" />
        <path
           style="fill:none;stroke:#030303;stroke-width:0.212"
           d="m 6.699128,-6.6085155 -0.588421,0.59"
           id="path8172" />
        <path
           style="fill:none;stroke:#030303;stroke-width:0.283"
           d="m 5.131729,-8.7785155 -0.80875,1.39"
           id="path8174" />
        <path
           style="fill:none;stroke:#030303;stroke-width:0.212"
           d="m 2.456813,-9.0485165 -0.215288,0.800001"
           id="path8176" />
        <path
           style="fill:none;stroke:#030303;stroke-width:0.283"
           d="m 0.007833,-10.128517 0,1.5900015"
           id="path8178" />
      </g>
    </g>
    <circle
       cx="11.875"
       cy="43.6125"
       r="2.4"
       style="fill:none;stroke:#ff0000"
       id="circle8180" />
    <circle
       cx="30.925"
       cy="37.2625"
       r="2.4"
       style="fill:none;stroke:#ff0000"
       id="circle8182" />
    <circle
       cx="49.975"
       cy="37.2625"
       r="2.4"
       style="fill:none;stroke:#ff0000"
       id="circle8184" />
    <circle
       cx="69.025"
       cy="43.6125"
       r="2.4"
       style="fill:none;stroke:#ff0000"
       id="circle8186" />
    <circle
       cx="72.2"
       cy="83.3"
       r="2.4"
       style="fill:none;stroke:#ff0000"
       id="circle8188" />
    <circle
       cx="8.700000000000003"
       cy="83.3"
       r="2.4"
       style="fill:none;stroke:#ff0000"
       id="circle8190" />
    <rect
       x="-22.125624"
       y="69.342598"
       width="3"
       height="6"
       style="fill:none;stroke:#ff0000;stroke-width:0.05"
       id="rect8192"
       transform="matrix(0.8709044,-0.49145246,0.49145246,0.8709044,0,0)" />
    <rect
       x="20.12866"
       y="68.21035"
       width="3"
       height="6"
       style="fill:none;stroke:#ff0000"
       id="rect8194"
       transform="matrix(0.98690946,-0.1612753,0.1612753,0.98690946,0,0)" />
    <rect
       x="58.105392"
       y="53.734699"
       width="3"
       height="6"
       style="fill:none;stroke:#ff0000;stroke-width:0.05"
       id="rect8196"
       transform="matrix(0.98270915,0.18515593,-0.18515593,0.98270915,0,0)" />
    <rect
       x="88.100975"
       y="33.459301"
       width="3"
       height="6"
       style="fill:none;stroke:#ff0000;stroke-width:0.05"
       id="rect8198"
       transform="matrix(0.89117479,0.45366011,-0.45366011,0.89117479,0,0)" />
    <circle
       cx="8.700000000000003"
       cy="96"
       r="3.25"
       style="fill:none;stroke:#ff0000"
       id="circle8200" />
    <circle
       cx="8.700000000000003"
       cy="108.7"
       r="3.25"
       style="fill:none;stroke:#ff0000"
       id="circle8202" />
    <circle
       cx="21.4"
       cy="83.3"
       r="3.25"
       style="fill:none;stroke:#ff0000"
       id="circle8204" />
    <circle
       cx="59.5"
       cy="83.3"
       r="3.25"
       style="fill:none;stroke:#ff0000"
       id="circle8206" />
    <circle
       cx="21.4"
       cy="96"
       r="3.25"
       style="fill:none;stroke:#ff0000"
       id="circle8208" />
    <circle
       cx="34.1"
       cy="76.95"
       r="3.25"
       style="fill:none;stroke:#ff0000"
       id="circle8210" />
    <circle
       cx="46.8"
       cy="76.95"
       r="3.25"
       style="fill:none;stroke:#ff0000"
       id="circle8212" />
    <circle
       cx="34.1"
       cy="89.65"
       r="3.25"
       style="fill:none;stroke:#ff0000"
       id="circle8214" />
    <circle
       cx="46.8"
       cy="89.65"
       r="3.25"
       style="fill:none;stroke:#ff0000"
       id="circle8216" />
    <circle
       cx="34.1"
       cy="102.35"
       r="3.25"
       style="fill:none;stroke:#ff0000"
       id="circle8218" />
    <circle
       cx="46.8"
       cy="102.35"
       r="3.25"
       style="fill:none;stroke:#ff0000"
       id="circle8220" />
    <circle
       cx="59.5"
       cy="96"
       r="3.25"
       style="fill:none;stroke:#ff0000"
       id="circle8222" />
    <circle
       cx="21.4"
       cy="108.7"
       r="3.25"
       style="fill:none;stroke:#ff0000"
       id="circle8224" />
    <circle
       cx="59.5"
       cy="108.7"
       r="3.25"
       style="fill:none;stroke:#ff0000"
       id="circle8226" />
    <circle
       cx="72.2"
       cy="96"
       r="3.25"
       style="fill:none;stroke:#ff0000"
       id="circle8228" />
    <circle
       cx="72.2"
       cy="108.7"
       r="3.25"
       style="fill:none;stroke:#ff0000"
       id="circle8230" />
    <rect
       x="33.075"
       y="109.01"
       width="14.75"
       height="7"
       style="fill:none;stroke:#ff0000"
       id="rect8232" />
  </g>
</svg>
