<?xml version="1.0" encoding="UTF-8" standalone="no"?>
<svg
   xmlns:dc="http://purl.org/dc/elements/1.1/"
   xmlns:cc="http://creativecommons.org/ns#"
   xmlns:rdf="http://www.w3.org/1999/02/22-rdf-syntax-ns#"
   xmlns:svg="http://www.w3.org/2000/svg"
   xmlns="http://www.w3.org/2000/svg"
   xmlns:sodipodi="http://sodipodi.sourceforge.net/DTD/sodipodi-0.dtd"
   xmlns:inkscape="http://www.inkscape.org/namespaces/inkscape"
   version="1.1"
   width="210mm"
   height="297mm"
   viewBox="0 0 210 297"
   id="svg2"
   inkscape:version="0.48.4 r9939"
   sodipodi:docname="QuadFM.svg">
  <metadata
     id="metadata474">
    <rdf:RDF>
      <cc:Work
         rdf:about="">
        <dc:format>image/svg+xml</dc:format>
        <dc:type
           rdf:resource="http://purl.org/dc/dcmitype/StillImage" />
      </cc:Work>
    </rdf:RDF>
  </metadata>
  <sodipodi:namedview
     id="base"
     inkscape:document-units="mm"
     units="mm"
     showgrid="false"
     inkscape:zoom="1.7563421"
     inkscape:cx="143.32678"
     inkscape:cy="824.70471"
     inkscape:window-width="1680"
     inkscape:window-height="1000"
     inkscape:window-x="0"
     inkscape:window-y="0"
     inkscape:window-maximized="1"
     inkscape:current-layer="g8" />
  <defs
     id="defs5">
    <g
       id="potgrading" />
  </defs>
  <g
     style="fill:none;stroke-width:0.05;stroke:#ff0000"
     id="g8">
    <rect
       x="0.0"
       y="0.0"
       width="80.90"
       height="128.50"
       id="rect10" />
    <circle
       cx="7.5"
       cy="3"
       r="1.6"
       id="circle12" />
    <circle
       cx="7.5"
       cy="125.5"
       r="1.6"
       id="circle14" />
    <circle
       cx="73.54"
       cy="3"
       r="1.6"
       id="circle16" />
    <circle
       cx="73.54"
       cy="125.5"
       r="1.6"
       id="circle18" />
    <path
       inkscape:connector-curvature="0"
       d="m 11.875,21.4 c -2.6129013,0 -4.7375971,2.115556 -4.7375971,4.727735 0,2.135913 1.421033,3.945767 3.3650681,4.5331 l 0,2.107204 2.632936,1.41e-4 0,-2.079677 c 1.996054,-0.554631 3.466996,-2.388302 3.466996,-4.561134 3.38e-4,-2.612179 -2.115205,-4.727369 -4.727403,-4.727369 z"
       style="fill:none;stroke:#ff0000"
       id="path20" />
    <path
       inkscape:connector-curvature="0"
       d="m 30.925,15.05 c -2.6129013,0 -4.7375971,2.115556 -4.7375971,4.727735 0,2.135913 1.421033,3.945767 3.3650681,4.5331 l 0,2.107204 2.632936,1.41e-4 0,-2.079677 c 1.996054,-0.554631 3.466996,-2.388302 3.466996,-4.561134 3.38e-4,-2.612179 -2.115205,-4.727369 -4.727403,-4.727369 z"
       style="fill:none;stroke:#ff0000"
       id="path70" />
    <path
       inkscape:connector-curvature="0"
       d="m 49.975,15.05 c -2.6129013,0 -4.7375971,2.115556 -4.7375971,4.727735 0,2.135913 1.421033,3.945767 3.3650681,4.5331 l 0,2.107204 2.632936,1.41e-4 0,-2.079677 c 1.996054,-0.554631 3.466996,-2.388302 3.466996,-4.561134 3.38e-4,-2.612179 -2.115205,-4.727369 -4.727403,-4.727369 z"
       style="fill:none;stroke:#ff0000"
       id="path120" />
    <path
       inkscape:connector-curvature="0"
       d="m 69.025,21.4 c -2.6129013,0 -4.7375971,2.115556 -4.7375971,4.727735 0,2.135913 1.421033,3.945767 3.3650681,4.5331 l 0,2.107204 2.632936,1.41e-4 0,-2.079677 c 1.996054,-0.554631 3.466996,-2.388302 3.466996,-4.561134 3.38e-4,-2.612179 -2.115205,-4.727369 -4.727403,-4.727369 z"
       style="fill:none;stroke:#ff0000"
       id="path170" />
    <path
       inkscape:connector-curvature="0"
       d="m 11.875,56.325 c -2.6129013,0 -4.7375971,2.115556 -4.7375971,4.727735 0,2.135913 1.421033,3.945767 3.3650681,4.5331 l 0,2.107204 2.632936,1.41e-4 0,-2.079677 c 1.996054,-0.554631 3.466996,-2.388302 3.466996,-4.561134 3.38e-4,-2.612179 -2.115205,-4.727369 -4.727403,-4.727369 z"
       style="fill:none;stroke:#ff0000"
       id="path220" />
    <path
       inkscape:connector-curvature="0"
       d="m 30.925,49.975 c -2.6129013,0 -4.7375971,2.115556 -4.7375971,4.727735 0,2.135913 1.421033,3.945767 3.3650681,4.5331 l 0,2.107204 2.632936,1.41e-4 0,-2.079677 c 1.996054,-0.554631 3.466996,-2.388302 3.466996,-4.561134 3.38e-4,-2.612179 -2.115205,-4.727369 -4.727403,-4.727369 z"
       style="fill:none;stroke:#ff0000"
       id="path270" />
    <path
       inkscape:connector-curvature="0"
       d="m 49.975,49.975 c -2.6129013,0 -4.7375971,2.115556 -4.7375971,4.727735 0,2.135913 1.421033,3.945767 3.3650681,4.5331 l 0,2.107204 2.632936,1.41e-4 0,-2.079677 c 1.996054,-0.554631 3.466996,-2.388302 3.466996,-4.561134 3.38e-4,-2.612179 -2.115205,-4.727369 -4.727403,-4.727369 z"
       style="fill:none;stroke:#ff0000"
       id="path320" />
    <path
       inkscape:connector-curvature="0"
       d="m 69.025,56.325 c -2.6129013,0 -4.7375971,2.115556 -4.7375971,4.727735 0,2.135913 1.421033,3.945767 3.3650681,4.5331 l 0,2.107204 2.632936,1.41e-4 0,-2.079677 c 1.996054,-0.554631 3.466996,-2.388302 3.466996,-4.561134 3.38e-4,-2.612179 -2.115205,-4.727369 -4.727403,-4.727369 z"
       style="fill:none;stroke:#ff0000"
       id="path370" />
    <circle
       cx="11.875"
       cy="43.6125"
       r="3.25"
       style="fill:none;stroke:#ff0000"
       id="circle420" />
    <circle
       cx="30.925"
       cy="37.2625"
       r="3.25"
       style="fill:none;stroke:#ff0000"
       id="circle422" />
    <circle
       cx="49.975"
       cy="37.2625"
       r="3.25"
       style="fill:none;stroke:#ff0000"
       id="circle424" />
    <circle
       cx="69.025"
       cy="43.6125"
       r="3.25"
       style="fill:none;stroke:#ff0000"
       id="circle426" />
    <circle
       cx="72.2"
       cy="83.3"
       r="3.25"
       style="fill:none;stroke:#ff0000"
       id="circle428" />
    <circle
       cx="8.700000000000003"
       cy="83.3"
       r="3.25"
       style="fill:none;stroke:#ff0000"
       id="circle430" />
    <circle
       cx="17.59"
       cy="73.14"
       r="1.50"
       style="fill:none;stroke:#ff0000"
       id="circle432" />
    <circle
       cx="32.83"
       cy="66.79"
       r="1.50"
       style="fill:none;stroke:#ff0000"
       id="circle434" />
    <circle
       cx="48.07"
       cy="66.79"
       r="1.50"
       style="fill:none;stroke:#ff0000"
       id="circle436" />
    <circle
       cx="63.31"
       cy="73.14"
       r="1.50"
       style="fill:none;stroke:#ff0000"
       id="circle438" />
    <circle
       cx="8.700000000000003"
       cy="96"
       r="3.25"
       style="fill:none;stroke:#ff0000"
       id="circle440" />
    <circle
       cx="8.700000000000003"
       cy="108.7"
       r="3.25"
       style="fill:none;stroke:#ff0000"
       id="circle442" />
    <circle
       cx="21.4"
       cy="83.3"
       r="3.25"
       style="fill:none;stroke:#ff0000"
       id="circle444" />
    <circle
       cx="59.5"
       cy="83.3"
       r="3.25"
       style="fill:none;stroke:#ff0000"
       id="circle446" />
    <circle
       cx="21.4"
       cy="96"
       r="3.25"
       style="fill:none;stroke:#ff0000"
       id="circle448" />
    <circle
       cx="34.1"
       cy="76.95"
       r="3.25"
       style="fill:none;stroke:#ff0000"
       id="circle450" />
    <circle
       cx="46.8"
       cy="76.95"
       r="3.25"
       style="fill:none;stroke:#ff0000"
       id="circle452" />
    <circle
       cx="34.1"
       cy="89.65"
       r="3.25"
       style="fill:none;stroke:#ff0000"
       id="circle454" />
    <circle
       cx="46.8"
       cy="89.65"
       r="3.25"
       style="fill:none;stroke:#ff0000"
       id="circle456" />
    <circle
       cx="34.1"
       cy="102.35"
       r="3.25"
       style="fill:none;stroke:#ff0000"
       id="circle458" />
    <circle
       cx="46.8"
       cy="102.35"
       r="3.25"
       style="fill:none;stroke:#ff0000"
       id="circle460" />
    <circle
       cx="59.5"
       cy="96"
       r="3.25"
       style="fill:none;stroke:#ff0000"
       id="circle462" />
    <circle
       cx="21.4"
       cy="108.7"
       r="3.25"
       style="fill:none;stroke:#ff0000"
       id="circle464" />
    <circle
       cx="59.5"
       cy="108.7"
       r="3.25"
       style="fill:none;stroke:#ff0000"
       id="circle466" />
    <circle
       cx="72.2"
       cy="96"
       r="3.25"
       style="fill:none;stroke:#ff0000"
       id="circle468" />
    <circle
       cx="72.2"
       cy="108.7"
       r="3.25"
       style="fill:none;stroke:#ff0000"
       id="circle470" />
  </g>
</svg>
