<?xml version="1.0" encoding="UTF-8" standalone="no"?>
<svg
   xmlns:dc="http://purl.org/dc/elements/1.1/"
   xmlns:cc="http://creativecommons.org/ns#"
   xmlns:rdf="http://www.w3.org/1999/02/22-rdf-syntax-ns#"
   xmlns:svg="http://www.w3.org/2000/svg"
   xmlns="http://www.w3.org/2000/svg"
   xmlns:sodipodi="http://sodipodi.sourceforge.net/DTD/sodipodi-0.dtd"
   xmlns:inkscape="http://www.inkscape.org/namespaces/inkscape"
   version="1.1"
   width="210mm"
   height="297mm"
   viewBox="0 0 210 297"
   id="svg5995"
   inkscape:version="0.48.4 r9939"
   sodipodi:docname="EuroOwl.svg">
  <metadata
     id="metadata6470">
    <rdf:RDF>
      <cc:Work
         rdf:about="">
        <dc:format>image/svg+xml</dc:format>
        <dc:type
           rdf:resource="http://purl.org/dc/dcmitype/StillImage" />
        <dc:title />
      </cc:Work>
    </rdf:RDF>
  </metadata>
  <sodipodi:namedview
     pagecolor="#ffffff"
     bordercolor="#666666"
     borderopacity="1"
     objecttolerance="10"
     gridtolerance="10"
     guidetolerance="10"
     inkscape:pageopacity="0"
     inkscape:pageshadow="2"
     inkscape:window-width="1280"
     inkscape:window-height="976"
     id="namedview6468"
     showgrid="false"
     inkscape:zoom="1.6700709"
     inkscape:cx="179.46867"
     inkscape:cy="824.70464"
     inkscape:window-x="0"
     inkscape:window-y="0"
     inkscape:window-maximized="1"
     inkscape:current-layer="svg5995" />
  <defs
     id="defs5997">
    <g
       id="potgrading">
      <path
         d="M 22.469177,65.29487 C 12.864593,59.897939 6.3758317,49.616792 6.3758317,37.815007 c 0,-17.395119 14.1022403,-31.4975588 31.4994303,-31.4975588 17.392315,0 31.496992,14.1012398 31.496992,31.4975588 0,11.809085 -6.498509,22.101133 -16.116497,27.493263"
         style="fill:none;stroke:#030303;stroke-width:0.41032487"
         id="path6000" />
      <path
         d="m 28.906759,4.4567034 0.78974,2.9366707"
         style="fill:none;stroke:#030303;stroke-width:0.75"
         id="path6002" />
      <path
         d="M 19.149856,5.4303268 22.099957,10.54465"
         style="fill:none;stroke:#030303;stroke-width:1.0"
         id="path6004" />
      <path
         d="m 13.42878,13.404619 2.150735,2.149652"
         style="fill:none;stroke:#030303;stroke-width:0.75"
         id="path6006" />
      <path
         d="m 5.5191934,19.159858 5.0557506,2.91857"
         style="fill:none;stroke:#030303;stroke-width:1.0"
         id="path6008" />
      <path
         d="m 4.4968328,28.890192 2.9366973,0.786019"
         style="fill:none;stroke:#030303;stroke-width:0.75"
         id="path6010" />
      <path
         d="m 0.49999997,37.829608 5.86364623,0"
         style="fill:none;stroke:#030303;stroke-width:1.0"
         id="path6012" />
      <path
         d="M 4.5053627,46.769023 7.44206,45.980604"
         style="fill:none;stroke:#030303;stroke-width:0.75"
         id="path6014" />
      <path
         d="M 5.5106636,56.509058 10.590785,53.578387"
         style="fill:none;stroke:#030303;stroke-width:1.0"
         id="path6016" />
      <path
         d="m 13.451932,62.247196 2.145861,-2.149452"
         style="fill:none;stroke:#030303;stroke-width:0.75"
         id="path6018" />
      <path
         d="m 19.291208,70.009583 2.834339,-4.907218"
         style="fill:none;stroke:#030303;stroke-width:1.0"
         id="path6020" />
      <path
         d="m 56.484784,70.043684 -2.861026,-4.95962"
         style="fill:none;stroke:#030303;stroke-width:1.0"
         id="path6022" />
      <path
         d="M 62.293717,62.224096 60.144201,60.079444"
         style="fill:none;stroke:#030303;stroke-width:0.75"
         id="path6024" />
      <path
         d="m 70.111912,56.418856 -4.965577,-2.86977"
         style="fill:none;stroke:#030303;stroke-width:1.0"
         id="path6026" />
      <path
         d="M 71.224445,46.738522 68.290307,45.951403"
         style="fill:none;stroke:#030303;stroke-width:0.75"
         id="path6028" />
      <path
         d="m 75.037277,37.799107 -5.678427,0"
         style="fill:none;stroke:#030303;stroke-width:1.0"
         id="path6030" />
      <path
         d="M 71.216037,28.859791 68.280436,29.64821"
         style="fill:none;stroke:#030303;stroke-width:0.75"
         id="path6032" />
      <path
         d="m 70.076574,19.198959 -4.943643,2.855068"
         style="fill:none;stroke:#030303;stroke-width:1.0"
         id="path6034" />
      <path
         d="M 62.27288,13.382718 60.124704,15.53107"
         style="fill:none;stroke:#030303;stroke-width:0.75"
         id="path6036" />
      <path
         d="M 56.550707,5.4181265 53.598168,10.52765"
         style="fill:none;stroke:#030303;stroke-width:1.0"
         id="path6038" />
      <path
         d="M 46.785274,4.4507032 45.999312,7.386174"
         style="fill:none;stroke:#030303;stroke-width:0.75"
         id="path6040" />
      <path
         d="m 37.844676,0.500008 0,5.8162402"
         style="fill:none;stroke:#030303;stroke-width:1.0"
         id="path6042" />
      <path
         d="m 69.475831,37.723605 c 0,17.397619 -14.103337,31.501159 -31.500648,31.501159 -17.397312,0 -31.500649,-14.10354 -31.500649,-31.501159 0,-17.397619 14.103337,-31.5012591 31.500649,-31.5012591 17.397311,0 31.500648,14.1036401 31.500648,31.5012591 z"
         style="fill:none"
         id="path6044" />
    </g>
    <g
       id="potgrading-9">
      <path
         id="path6132-2"
         style="fill:none;stroke:#030303;stroke-width:0.41032487"
         d="M 22.469177,65.29487 C 12.864593,59.897939 6.3758317,49.616792 6.3758317,37.815007 c 0,-17.395119 14.1022403,-31.4975588 31.4994303,-31.4975588 17.392315,0 31.496992,14.1012398 31.496992,31.4975588 0,11.809085 -6.498509,22.101133 -16.116497,27.493263" />
      <path
         id="path6134-3"
         style="fill:none;stroke:#030303;stroke-width:0.75"
         d="m 28.906759,4.4567034 0.78974,2.9366707" />
      <path
         id="path6136-6"
         style="fill:none;stroke:#030303;stroke-width:1.0"
         d="M 19.149856,5.4303268 22.099957,10.54465" />
      <path
         id="path6138-8"
         style="fill:none;stroke:#030303;stroke-width:0.75"
         d="m 13.42878,13.404619 2.150735,2.149652" />
      <path
         id="path6140-1"
         style="fill:none;stroke:#030303;stroke-width:1.0"
         d="m 5.5191934,19.159858 5.0557506,2.91857" />
      <path
         id="path6142-2"
         style="fill:none;stroke:#030303;stroke-width:0.75"
         d="m 4.4968328,28.890192 2.9366973,0.786019" />
      <path
         id="path6144-1"
         style="fill:none;stroke:#030303;stroke-width:1.0"
         d="m 0.49999997,37.829608 5.86364623,0" />
      <path
         id="path6146-6"
         style="fill:none;stroke:#030303;stroke-width:0.75"
         d="M 4.5053627,46.769023 7.44206,45.980604" />
      <path
         id="path6148-8"
         style="fill:none;stroke:#030303;stroke-width:1.0"
         d="M 5.5106636,56.509058 10.590785,53.578387" />
      <path
         id="path6150-3"
         style="fill:none;stroke:#030303;stroke-width:0.75"
         d="m 13.451932,62.247196 2.145861,-2.149452" />
      <path
         id="path6152-8"
         style="fill:none;stroke:#030303;stroke-width:1.0"
         d="m 19.291208,70.009583 2.834339,-4.907218" />
      <path
         id="path6154-1"
         style="fill:none;stroke:#030303;stroke-width:1.0"
         d="m 56.484784,70.043684 -2.861026,-4.95962" />
      <path
         id="path6156"
         style="fill:none;stroke:#030303;stroke-width:0.75"
         d="M 62.293717,62.224096 60.144201,60.079444" />
      <path
         id="path6158-6"
         style="fill:none;stroke:#030303;stroke-width:1.0"
         d="m 70.111912,56.418856 -4.965577,-2.86977" />
      <path
         id="path6160-4"
         style="fill:none;stroke:#030303;stroke-width:0.75"
         d="M 71.224445,46.738522 68.290307,45.951403" />
      <path
         id="path6162-4"
         style="fill:none;stroke:#030303;stroke-width:1.0"
         d="m 75.037277,37.799107 -5.678427,0" />
      <path
         id="path6164-9"
         style="fill:none;stroke:#030303;stroke-width:0.75"
         d="M 71.216037,28.859791 68.280436,29.64821" />
      <path
         id="path6166-8"
         style="fill:none;stroke:#030303;stroke-width:1.0"
         d="m 70.076574,19.198959 -4.943643,2.855068" />
      <path
         id="path6168-3"
         style="fill:none;stroke:#030303;stroke-width:0.75"
         d="M 62.27288,13.382718 60.124704,15.53107" />
      <path
         id="path6170-1"
         style="fill:none;stroke:#030303;stroke-width:1.0"
         d="M 56.550707,5.4181265 53.598168,10.52765" />
      <path
         id="path6172-6"
         style="fill:none;stroke:#030303;stroke-width:0.75"
         d="M 46.785274,4.4507032 45.999312,7.386174" />
      <path
         id="path6174-5"
         style="fill:none;stroke:#030303;stroke-width:1.0"
         d="m 37.844676,0.500008 0,5.8162402" />
      <path
         id="path6176-7"
         style="fill:none"
         d="m 69.475831,37.723605 c 0,17.397619 -14.103337,31.501159 -31.500648,31.501159 -17.397312,0 -31.500649,-14.10354 -31.500649,-31.501159 0,-17.397619 14.103337,-31.5012591 31.500649,-31.5012591 17.397311,0 31.500648,14.1036401 31.500648,31.5012591 z" />
    </g>
  </defs>
  <g
     id="layer1"
     inkscape:label="Layer 1"
     transform="matrix(0.04890085,0,0,0.04890085,25.347079,87.098406)">
    <path
       inkscape:connector-curvature="0"
       id="path3810"
       d="m 866.43498,707.58569 c -0.37004,-4.34548 -0.6728,-14.13298 -0.6728,-21.75 l 0,-13.84912 12,0 12,0 0,-4 0,-4 -12,0 -12,0 0,-26.5 0,-26.5 8,0 8,0 0,18.5 0,18.5 4,0 4,0 0,-18.5 0,-18.5 8,0 8,0 -0.007,38.25 c -0.008,41.39923 -0.59256,53.82912 -2.33759,49.67984 -0.61487,-1.46174 -1.18568,-18.66548 -1.43281,-43.17984 l -0.41079,-40.75 -3.90591,0 -3.9059,0 0,18.5 0,18.5 -8,0 -8,0 0,-18.5 0,-18.5 -4,0 -4,0 0,22.5 0,22.5 12,0 12,0 0,8 0,8 -11.85352,0 -11.85352,0 -0.5943,16.75 c -0.72495,20.43221 -2.01241,26.75029 -3.02586,14.84912 z m -239,-1 c -0.37004,-4.34548 -0.6728,-27.65191 -0.6728,-51.79206 l 0,-43.89119 7.75,0.29207 7.75,0.29206 4.18188,12 4.18189,12 0.0681,-12.25 0.0681,-12.25 8,0 8,0 -0.007,40.75 c -0.004,22.4125 -0.30669,43.9 -0.67285,47.75 -1.4858,15.62261 -2.62044,0.12398 -3.05649,-41.75 l -0.44529,-42.75 -3.88968,0 -3.88969,0 -0.2695,21.71024 -0.2695,21.71025 -7.40703,-21.71025 -7.40703,-21.71024 -4.26527,0 -4.26527,0 -0.41544,46.75 c -0.23916,26.91214 -0.83531,48.02302 -1.4049,49.75 -0.87912,2.66548 -1.06448,2.119 -1.66226,-4.90088 z m -39.02191,-1.20089 c -0.35799,-4.23499 -0.65089,-13.48209 -0.65089,-20.54911 l 0,-12.84912 8,0 8,0 -0.007,6.75 c -0.01,9.49939 -1.13181,20.28217 -2.051,19.71409 -0.42584,-0.26319 -1.09487,-5.42527 -1.48672,-11.4713 l -0.71259,-10.99279 -3.72003,0 -3.72004,0 -0.56928,17.61797 c -0.61656,19.08134 -2.01388,24.42148 -3.08245,11.78026 z m 90.01095,0.12955 c -0.36401,-4.30624 -0.66184,-27.33664 -0.66184,-51.17866 l 0,-43.34912 20,0 20,0 -0.007,38.75 c -0.008,41.88153 -0.58822,54.3375 -2.33873,50.17984 -0.61752,-1.46641 -1.18525,-18.78545 -1.43197,-43.67984 l -0.40881,-41.25 -15.82189,0 -15.82189,0 -0.38922,46.75 c -0.24187,29.05051 -0.78063,47.66949 -1.42302,49.17866 -0.87425,2.05385 -1.13593,1.22036 -1.69563,-5.40088 z m 87,0 c -0.36401,-4.30624 -0.66184,-27.33664 -0.66184,-51.17866 l 0,-43.34912 20,0 20,0 -0.007,38.75 c -0.008,41.88153 -0.58822,54.3375 -2.33873,50.17984 -0.61752,-1.46641 -1.18525,-18.78545 -1.43197,-43.67984 l -0.40881,-41.25 -15.82189,0 -15.82189,0 -0.38922,46.75 c -0.24187,29.05051 -0.78063,47.66949 -1.42302,49.17866 -0.87425,2.05385 -1.13593,1.22036 -1.69563,-5.40088 z m -536.91819,2.97222 c -0.38784,-1.65 -1.00879,-9.6375 -1.37988,-17.75 l -0.6747,-14.75 -11.84454,0 -11.84453,0 0,-8 0,-8 12,0 12,0 0,-4 0,-4 -12,0 -12,0 0,-14.5 0,-14.5 8,0 8,0 0,6 0,6 4,0 4,0 0,-10 0,-10 -15.90919,0 -15.90918,0 -0.40308,42.75 c -0.24534,26.02124 -0.80452,43.70037 -1.42897,45.17866 -1.73201,4.10026 -2.34958,-9.71981 -2.34958,-52.57954 l 0,-39.34912 20,0 20,0 0,14 0,14 -8,0 -8,0 0,-6 0,-6 -4,0 -4,0 0,10.5 0,10.5 12,0 12,0 0,8 0,8 -12,0 -12,0 0,4 0,4 12,0 12,0 -0.0989,14.25 c -0.0544,7.8375 -0.40341,16.725 -0.77559,19.75 -0.60587,4.92435 -0.7505,5.18601 -1.38186,2.5 z m 101,0 c -0.38784,-1.65 -1.00879,-9.6375 -1.37988,-17.75 l -0.6747,-14.75 -11.84454,0 -11.84453,0 0,-8 0,-8 12,0 12,0 0,-4 0,-4 -12,0 -12,0 0,-14.5 0,-14.5 8,0 8,0 0,6 0,6 4,0 4,0 0,-10 0,-10 -15.90919,0 -15.90918,0 -0.40308,42.75 c -0.24534,26.02124 -0.80452,43.70037 -1.42897,45.17866 -1.73201,4.10026 -2.34958,-9.71981 -2.34958,-52.57954 l 0,-39.34912 20,0 20,0 0,14 0,14 -8,0 -8,0 0,-6 0,-6 -4,0 -4,0 0,10.5 0,10.5 12,0 12,0 0,8 0,8 -12,0 -12,0 0,4 0,4 12,0 12,0 -0.0989,14.25 c -0.0544,7.8375 -0.40341,16.725 -0.77559,19.75 -0.60587,4.92435 -0.7505,5.18601 -1.38186,2.5 z m 184,0 c -0.38784,-1.65 -1.00879,-9.6375 -1.37988,-17.75 l -0.6747,-14.75 -11.84454,0 -11.84453,0 0,-8 0,-8 12,0 12,0 0,-4 0,-4 -12,0 -12,0 0,-14.5 0,-14.5 8,0 8,0 0,6 0,6 4,0 4,0 0,-10 0,-10 -15.90919,0 -15.90918,0 -0.40308,42.75 c -0.24534,26.02124 -0.80452,43.70037 -1.42897,45.17866 -1.73201,4.10026 -2.34958,-9.71981 -2.34958,-52.57954 l 0,-39.34912 20,0 20,0 0,14 0,14 -8,0 -8,0 0,-6 0,-6 -4,0 -4,0 0,10.5 0,10.5 12,0 12,0 0,8 0,8 -12,0 -12,0 0,4 0,4 12,0 12,0 -0.0989,14.25 c -0.0544,7.8375 -0.40341,16.725 -0.77559,19.75 -0.60587,4.92435 -0.7505,5.18601 -1.38186,2.5 z m -272.08181,-5.97222 c -0.36401,-4.30624 -0.66184,-26.66164 -0.66184,-49.67866 l 0,-41.84912 20,0 20,0 0,20 c 0,11 -0.3375,20.00231 -0.75,20.00512 -0.4125,0.003 -2.53568,1.08597 -4.71817,2.40701 l -3.96817,2.40187 4.71817,2.29227 4.71817,2.29226 -0.0989,15.55074 c -0.0544,8.5529 -0.40988,18.02573 -0.78997,21.05073 -0.68874,5.48138 -0.69392,5.48821 -1.53145,2.01832 -0.4622,-1.91493 -1.11921,-10.91493 -1.46002,-20 l -0.61966,-16.51832 -5.68738,-3.02071 c -3.12805,-1.66139 -5.9936,-3.32693 -6.36787,-3.70121 -0.37428,-0.37427 2.29754,-2.14904 5.93737,-3.94392 l 6.61788,-3.26342 0,-16.78537 0,-16.78537 -15.913,0 -15.913,0 -0.39419,45.25 c -0.24318,27.91564 -0.78913,46.18037 -1.42516,47.67866 -0.87092,2.05162 -1.13372,1.21318 -1.69281,-5.40088 z m 101,0 c -0.36401,-4.30624 -0.66184,-26.66164 -0.66184,-49.67866 l 0,-41.84912 8,0 8,0 0,30.5 0,30.5 6,0 6,0 -0.007,7.25 c -0.01,10.12329 -1.13853,21.00688 -2.07922,20.05066 -0.43332,-0.44036 -1.10516,-5.86316 -1.4931,-12.05066 l -0.70533,-11.25 -5.85768,0 -5.85767,0 0,-30.5 0,-30.5 -3.913,0 -3.913,0 -0.39419,45.25 c -0.24318,27.91564 -0.78913,46.18037 -1.42516,47.67866 -0.87092,2.05162 -1.13372,1.21318 -1.69281,-5.40088 z m 221.03741,4.97222 c -0.41226,-1.65 -1.02768,-12.1125 -1.3676,-23.25 l -0.61804,-20.25 -3.8568,0 -3.85681,0 0,6 0,6 -8,0 -8,0 0,-26.5 0,-26.5 8,0 8,0 0,6 0,6 4,0 4,0 0,-10 0,-10 -15.90675,0 -15.90674,0 -0.40881,41.25 c -0.2466,24.88259 -0.81457,42.21366 -1.43142,43.67866 -1.7153,4.07379 -2.34628,-9.66289 -2.34628,-51.07954 l 0,-37.84912 20,0 20,0 0,14 0,14 -8,0 -8,0 0,-6 0,-6 -4,0 -4,0 0,22.5 0,22.5 4,0 4,0 0,-6 0,-6 8,0 8,0 -0.0989,19.75 c -0.0544,10.8625 -0.40341,22.225 -0.77559,25.25 -0.61438,4.9935 -0.74572,5.22373 -1.42626,2.5 z m 165.96259,-4.97222 c -0.36401,-4.30624 -0.66184,-26.66164 -0.66184,-49.67866 l 0,-41.84912 8,0 8,0 0,30.5 0,30.5 6,0 6,0 -0.007,7.25 c -0.01,10.12329 -1.13853,21.00688 -2.07922,20.05066 -0.43332,-0.44036 -1.10516,-5.86316 -1.4931,-12.05066 l -0.70533,-11.25 -5.85768,0 -5.85767,0 0,-30.5 0,-30.5 -3.913,0 -3.913,0 -0.39419,45.25 c -0.24318,27.91564 -0.78913,46.18037 -1.42516,47.67866 -0.87092,2.05162 -1.13372,1.21318 -1.69281,-5.40088 z m 124.00693,3.97222 c -0.42903,-1.65 -1.03726,-14.5875 -1.35163,-28.75 l -0.57158,-25.75 -3.87278,0 -3.87278,0 0,12 0,12 -8,0 -8,0 0,-26.5 0,-26.5 8,0 8,0 0,6 0,6 4,0 4,0 0,-10 0,-10 -15.91359,0 -15.91359,0 -0.39287,40.75 c -0.2395,24.84244 -0.79561,41.69807 -1.42457,43.17866 -1.72146,4.05236 -2.35538,-9.5604 -2.35538,-50.57954 l 0,-37.34912 20,0 20,0 0,14 0,14 -8,0 -8,0 0,-6 0,-6 -4,0 -4,0 0,22.5 0,22.5 4,0 4,0 0,-12 0,-12 8,0 8,0 -0.0989,25.25 c -0.0544,13.8875 -0.40341,27.725 -0.77559,30.75 -0.61984,5.03788 -0.74223,5.24793 -1.45674,2.5 z m -240.06673,-3.5 c -0.47613,-1.375 -1.07546,-21.7375 -1.33183,-45.25 l -0.46613,-42.75 -3.90204,0 -3.90204,0 0,24.5 0,24.5 -8,0 -8,0 0,-24.5 0,-24.5 -3.91439,0 -3.91438,0 -0.43331,41.25 c -0.24049,22.89444 -0.86926,42.58495 -1.41301,44.25 -1.63848,5.01732 -2.31229,-10.0197 -2.31892,-51.75 l -0.006,-37.75 8,0 8,0 0,24.5 0,24.5 4,0 4,0 0,-24.5 0,-24.5 8,0 8,0 -0.0989,41.75 c -0.10159,42.88659 -0.65562,54.99597 -2.29906,50.25 z m 39.06047,-6.5 c -0.47016,-5.14925 -2.23281,-12.4543 -4.94648,-20.5 l -4.21603,-12.5 -0.6209,15 c -0.34149,8.25 -0.67899,16.5525 -0.75,18.45 -0.10026,2.67925 -0.39662,3.18248 -1.32655,2.25255 -0.84673,-0.84673 -1.3189,-8.88634 -1.61213,-27.45 -0.22808,-14.4389 -0.23958,-27.37755 -0.0255,-28.75255 0.25575,-1.64303 3.09371,5.55551 8.27906,21 8.11939,24.18347 8.51749,26.36011 6.67562,36.5 -0.66614,3.66728 -0.78734,3.33456 -1.45704,-4 z m -512.00067,-0.97222 c -0.36401,-4.30624 -0.66184,-25.08664 -0.66184,-46.17866 l 0,-38.34912 20,0 20,0 0,25.98083 0,25.98084 -4.74667,2.41232 -4.74666,2.41232 4.74666,2.30611 4.74667,2.30611 -0.0989,10.05074 c -0.0544,5.5279 -0.41945,12.52573 -0.81124,15.55073 -0.69499,5.36596 -0.72952,5.4147 -1.41689,2 -0.3875,-1.925 -1.03494,-8.45 -1.43875,-14.5 l -0.73422,-11 -5.68738,-3.02071 c -3.12805,-1.66139 -5.9936,-3.32693 -6.36787,-3.70121 -0.37428,-0.37427 2.29754,-2.14904 5.93737,-3.94392 l 6.61788,-3.26342 0,-22.78537 0,-22.78537 -15.90757,0 -15.90758,0 -0.40686,41.75 c -0.24618,25.26232 -0.81114,42.70911 -1.43059,44.17866 -0.86236,2.04585 -1.12804,1.19456 -1.68556,-5.40088 z m 11.98905,-1.12954 c -0.35799,-4.235 -0.65089,-11.03773 -0.65089,-15.11719 l 0,-7.4172 7.99901,4.31808 c 7.94911,4.29113 7.99898,4.34303 7.9929,8.31807 -0.0107,7.01069 -1.24939,17.4589 -2.01378,16.98649 -0.40591,-0.25087 -1.05411,-4.67229 -1.44046,-9.82538 l -0.70244,-9.36926 -3.45154,-1.64592 c -1.89835,-0.90526 -3.595,-1.64593 -3.77033,-1.64593 -0.17534,0 -0.63148,4.8364 -1.01364,10.74757 -0.38217,5.91116 -1.05555,11.10826 -1.4964,11.54911 -0.44085,0.44085 -1.09444,-2.66345 -1.45243,-6.89844 z m 287,0 c -0.35799,-4.235 -0.65089,-21.1321 -0.65089,-37.54912 l 0,-29.84912 -6,0 -6,0 0,-8 0,-8 20,0 20,0 0,8 0,8 -6,0 -6,0 -0.007,30.75 c -0.008,33.84451 -0.62577,45.01684 -2.39223,43.25114 -0.75018,-0.74986 -1.21164,-13.34382 -1.44918,-39.55067 l -0.34862,-38.45047 6.09851,0 6.09852,0 0,-4 0,-4 -16,0 -16,0 0,4 0,4 6.09061,0 6.0906,0 -0.3406,38.45074 c -0.23195,26.18383 -0.69126,38.80115 -1.43972,39.54911 -0.79872,0.79819 -1.277,-1.00605 -1.75,-6.60161 z m -186.65089,-26.4094 0,-8.01116 8,4.02232 c 7.99067,4.01763 8,4.02697 8,8.01116 l 0,3.98884 -8,0 -8,0 0,-8.01116 z m 12,3.19637 c 0,-0.70808 -6.25929,-4.18521 -7.53393,-4.18521 -0.25634,0 -0.46607,1.125 -0.46607,2.5 0,2.25 0.4,2.5 4,2.5 2.2,0 4,-0.36665 4,-0.81479 z m 425,-21.68521 0,-26.5 8,0 8,0 0,26.5 0,26.5 -8,0 -8,0 0,-26.5 z m 12,0 0,-22.5 -4,0 -4,0 0,22.5 0,22.5 4,0 4,0 0,-22.5 z m 75,0 0,-26.5 8,0 8,0 0,26.5 0,26.5 -8,0 -8,0 0,-26.5 z m 12,0 0,-22.5 -4,0 -4,0 0,22.5 0,22.5 4,0 4,0 0,-22.5 z m -637,-6.5 0,-20 8,0 8,0 0,15.90961 0,15.90962 -7.4529,4.09038 c -4.09909,2.24972 -7.69909,4.09039 -8,4.09039 -0.3009,0 -0.5471,-9 -0.5471,-20 z m 12,-3.02032 0,-12.97968 -4,0 -4,0 0,15.02032 0,15.02033 4,-2.04065 4,-2.04065 0,-12.97967 z m 89,-2.96852 0,-14.01116 8,0 8,0 0,9.98884 0,9.98884 -8,4.02232 -8,4.02232 0,-14.01116 z m 12,-3.03148 0,-6.97968 -4,0 -4,0 0,9.02032 0,9.02033 4,-2.04065 4,-2.04065 0,-6.97967 z"
       style="fill:#000000" />
  </g>
  <path
     style="fill:none;stroke:#000000;stroke-width:0.28222224px;stroke-linecap:butt;stroke-linejoin:miter;stroke-opacity:1"
     d="m 2.3332373,98.158661 0,5.222009 1.9999187,-2.33324 c 0,0 -3.99983759,-5.777543 -1.9999187,-2.888769 z"
     id="path6591"
     inkscape:connector-curvature="0" />
  <path
     inkscape:connector-curvature="0"
     id="path6595"
     d="m 97.159893,98.158661 0,5.222009 1.99992,-2.33324 c 0,0 -3.999834,-5.777543 -1.99992,-2.888769 z"
     style="fill:none;stroke:#000000;stroke-width:0.28222224px;stroke-linecap:butt;stroke-linejoin:miter;stroke-opacity:1" />
  <g
     transform="matrix(0.28222223,0,0,0.28222223,2.0278567,12.436137)"
     style="font-size:10px;font-style:normal;font-weight:normal;line-height:125%;letter-spacing:0px;word-spacing:0px;fill:#000000;fill-opacity:1;stroke:none;font-family:Sans"
     id="flowRoot6597">
    <path
       d="m 26.137695,265.86495 0.986328,0 0,6.45996 3.549805,0 0,0.83008 -4.536133,0 0,-7.29004"
       style=""
       id="path7557" />
  </g>
  <g
     transform="matrix(0.28222223,0,0,0.28222223,83.307855,12.436137)"
     style="font-size:10px;font-style:normal;font-weight:normal;line-height:125%;letter-spacing:0px;word-spacing:0px;fill:#000000;fill-opacity:1;stroke:none;font-family:Sans"
     id="flowRoot6605">
    <path
       d="m 26.137695,265.86495 0.986328,0 0,6.45996 3.549805,0 0,0.83008 -4.536133,0 0,-7.29004"
       style=""
       id="path7560" />
  </g>
  <g
     transform="matrix(0.28222223,0,0,0.28222223,2.0278567,25.318359)"
     style="font-size:10px;font-style:normal;font-weight:normal;line-height:125%;letter-spacing:0px;word-spacing:0px;fill:#000000;fill-opacity:1;stroke:none;font-family:Sans"
     id="flowRoot6613">
    <path
       d="m 29.594727,269.73702 c 0.211583,0.0716 0.416661,0.22462 0.615234,0.45899 0.201818,0.23437 0.40364,0.55664 0.605469,0.96679 l 1.000976,1.99219 -1.05957,0 -0.932617,-1.87012 c -0.24089,-0.48827 -0.475265,-0.81217 -0.703125,-0.97168 -0.224613,-0.1595 -0.53223,-0.23925 -0.922852,-0.23925 l -1.074219,0 0,3.08105 -0.986328,0 0,-7.29004 2.226563,0 c 0.833329,10e-6 1.455073,0.17416 1.865234,0.52246 0.410151,0.34832 0.615229,0.87403 0.615235,1.57715 -6e-6,0.45899 -0.107428,0.83985 -0.322266,1.14258 -0.211594,0.30274 -0.520838,0.5127 -0.927734,0.62988 m -2.470704,-3.06152 0,2.58789 1.240235,0 c 0.475257,0 0.833329,-0.10905 1.074219,-0.32715 0.244136,-0.22135 0.366206,-0.54524 0.36621,-0.97168 -4e-6,-0.42642 -0.122074,-0.74706 -0.36621,-0.96191 -0.24089,-0.21809 -0.598962,-0.32714 -1.074219,-0.32715 l -1.240235,0"
       style=""
       id="path7563" />
  </g>
  <g
     transform="matrix(0.28222223,0,0,0.28222223,83.307362,25.318359)"
     style="font-size:10px;font-style:normal;font-weight:normal;line-height:125%;letter-spacing:0px;word-spacing:0px;fill:#000000;fill-opacity:1;stroke:none;font-family:Sans"
     id="flowRoot6621">
    <path
       d="m 29.594727,269.73702 c 0.211583,0.0716 0.416661,0.22462 0.615234,0.45899 0.201818,0.23437 0.40364,0.55664 0.605469,0.96679 l 1.000976,1.99219 -1.05957,0 -0.932617,-1.87012 c -0.24089,-0.48827 -0.475265,-0.81217 -0.703125,-0.97168 -0.224613,-0.1595 -0.53223,-0.23925 -0.922852,-0.23925 l -1.074219,0 0,3.08105 -0.986328,0 0,-7.29004 2.226563,0 c 0.833329,10e-6 1.455073,0.17416 1.865234,0.52246 0.410151,0.34832 0.615229,0.87403 0.615235,1.57715 -6e-6,0.45899 -0.107428,0.83985 -0.322266,1.14258 -0.211594,0.30274 -0.520838,0.5127 -0.927734,0.62988 m -2.470704,-3.06152 0,2.58789 1.240235,0 c 0.475257,0 0.833329,-0.10905 1.074219,-0.32715 0.244136,-0.22135 0.366206,-0.54524 0.36621,-0.97168 -4e-6,-0.42642 -0.122074,-0.74706 -0.36621,-0.96191 -0.24089,-0.21809 -0.598962,-0.32714 -1.074219,-0.32715 l -1.240235,0"
       style=""
       id="path7566" />
  </g>
  <g
     transform="matrix(0.28222223,0,0,0.28222223,30.270676,25.318359)"
     style="font-size:10px;font-style:normal;font-weight:normal;line-height:125%;letter-spacing:0px;word-spacing:0px;fill:#000000;fill-opacity:1;stroke:none;font-family:Sans"
     id="flowRoot6629">
    <path
       d="m 26.137695,265.86495 0.986328,0 0,7.29004 -0.986328,0 0,-7.29004"
       style=""
       id="path7569" />
  </g>
  <g
     transform="matrix(0.28222223,0,0,0.28222223,42.403361,25.318359)"
     style="font-size:10px;font-style:normal;font-weight:normal;line-height:125%;letter-spacing:0px;word-spacing:0px;fill:#000000;fill-opacity:1;stroke:none;font-family:Sans"
     id="flowRoot6637">
    <path
       d="m 26.137695,265.86495 4.609375,0 0,0.83008 -3.623047,0 0,2.1582 3.47168,0 0,0.83008 -3.47168,0 0,2.6416 3.710938,0 0,0.83008 -4.697266,0 0,-7.29004"
       style=""
       id="path7572" />
  </g>
  <g
     transform="matrix(0.28222223,0,0,0.28222223,55.069804,25.318359)"
     style="font-size:10px;font-style:normal;font-weight:normal;line-height:125%;letter-spacing:0px;word-spacing:0px;fill:#000000;fill-opacity:1;stroke:none;font-family:Sans"
     id="flowRoot6645">
    <path
       d="m 29.09668,266.5339 c -0.716149,0 -1.28581,0.26693 -1.708985,0.80078 -0.419923,0.53386 -0.629884,1.2614 -0.629883,2.18262 -1e-6,0.91797 0.20996,1.64388 0.629883,2.17773 0.423175,0.53386 0.992836,0.80078 1.708985,0.80078 0.716141,0 1.282547,-0.26692 1.699218,-0.80078 0.419916,-0.53385 0.629877,-1.25976 0.629883,-2.17773 -6e-6,-0.92122 -0.209967,-1.64876 -0.629883,-2.18262 -0.416671,-0.53385 -0.983077,-0.80078 -1.699218,-0.80078 m 0,-0.80078 c 1.02213,0 1.839187,0.34343 2.451172,1.03027 0.611972,0.6836 0.917961,1.60157 0.917968,2.75391 -7e-6,1.14909 -0.305996,2.06706 -0.917968,2.7539 -0.611985,0.6836 -1.429042,1.02539 -2.451172,1.02539 -1.025394,0 -1.845706,-0.34179 -2.460938,-1.02539 -0.61198,-0.68359 -0.917969,-1.60156 -0.917969,-2.7539 0,-1.15234 0.305989,-2.07031 0.917969,-2.75391 0.615232,-0.68684 1.435544,-1.03027 2.460938,-1.03027"
       style=""
       id="path7575" />
  </g>
  <g
     transform="matrix(0.28222223,0,0,0.28222223,61.378621,12.436585)"
     style="font-size:10px;font-style:normal;font-weight:normal;line-height:125%;letter-spacing:0px;word-spacing:0px;fill:#000000;fill-opacity:1;stroke:none;font-family:Sans"
     id="flowRoot6653">
    <path
       d="m 27.124023,266.6755 0,5.66894 1.191407,0 c 1.005855,10e-6 1.741531,-0.22786 2.207031,-0.68359 0.468744,-0.45573 0.703119,-1.17513 0.703125,-2.1582 -6e-6,-0.97656 -0.234381,-1.69108 -0.703125,-2.14356 -0.4655,-0.45572 -1.201176,-0.68358 -2.207031,-0.68359 l -1.191407,0 m -0.986328,-0.81055 2.026367,0 c 1.412756,10e-6 2.449539,0.29461 3.110352,0.88379 0.660801,0.58594 0.991204,1.50391 0.991211,2.75391 -7e-6,1.25651 -0.332038,2.17936 -0.996094,2.76855 -0.664068,0.5892 -1.699223,0.88379 -3.105469,0.88379 l -2.026367,0 0,-7.29004"
       style=""
       id="path7578" />
  </g>
  <g
     transform="matrix(0.28222223,0,0,0.28222223,48.876238,12.436585)"
     style="font-size:10px;font-style:normal;font-weight:normal;line-height:125%;letter-spacing:0px;word-spacing:0px;fill:#000000;fill-opacity:1;stroke:none;font-family:Sans"
     id="flowRoot6661">
    <path
       d="m 31.59668,266.42648 0,1.04004 c -0.332038,-0.30924 -0.686855,-0.54036 -1.064453,-0.69336 -0.374354,-0.15299 -0.773117,-0.22949 -1.19629,-0.2295 -0.833336,1e-5 -1.471356,0.25554 -1.914062,0.76661 -0.44271,0.50781 -0.664064,1.24349 -0.664063,2.20703 -1e-6,0.96029 0.221353,1.69596 0.664063,2.20703 0.442706,0.50781 1.080726,0.76172 1.914062,0.76172 0.423173,0 0.821936,-0.0765 1.19629,-0.2295 0.377598,-0.15299 0.732415,-0.38411 1.064453,-0.69336 l 0,1.03028 c -0.345058,0.23437 -0.711269,0.41015 -1.098633,0.52734 -0.38412,0.11719 -0.79102,0.17578 -1.220703,0.17578 -1.103519,0 -1.972659,-0.33691 -2.607422,-1.01074 -0.634767,-0.67708 -0.952149,-1.59993 -0.952149,-2.76855 0,-1.17187 0.317382,-2.09472 0.952149,-2.76856 0.634763,-0.67707 1.503903,-1.01562 2.607422,-1.01562 0.436193,0 0.846349,0.0586 1.230468,0.17578 0.387365,0.11394 0.75032,0.28646 1.088868,0.51758"
       style=""
       id="path7581" />
  </g>
  <g
     transform="matrix(0.28222223,0,0,0.28222223,35.950399,12.436585)"
     style="font-size:10px;font-style:normal;font-weight:normal;line-height:125%;letter-spacing:0px;word-spacing:0px;fill:#000000;fill-opacity:1;stroke:none;font-family:Sans"
     id="flowRoot6669">
    <path
       d="m 27.124023,269.67355 0,2.67089 1.582032,0 c 0.530595,10e-6 0.922847,-0.10904 1.176757,-0.32714 0.257157,-0.22136 0.385738,-0.55827 0.385743,-1.01075 -5e-6,-0.45572 -0.128586,-0.79101 -0.385743,-1.00586 -0.25391,-0.21809 -0.646162,-0.32714 -1.176757,-0.32714 l -1.582032,0 m 0,-2.99805 0,2.19727 1.459961,0 c 0.481767,0 0.83984,-0.0895 1.074219,-0.26856 0.237626,-0.18229 0.356441,-0.45898 0.356445,-0.83008 -4e-6,-0.36783 -0.118819,-0.6429 -0.356445,-0.82519 -0.234379,-0.18229 -0.592452,-0.27343 -1.074219,-0.27344 l -1.459961,0 m -0.986328,-0.81055 2.519532,0 c 0.751948,10e-6 1.331375,0.15626 1.738281,0.46875 0.406895,0.31251 0.610346,0.75684 0.610351,1.33301 -5e-6,0.44597 -0.104172,0.80079 -0.3125,1.06445 -0.208338,0.26368 -0.514328,0.42807 -0.917968,0.49317 0.485021,0.10417 0.860997,0.32227 1.127929,0.65429 0.270177,0.32878 0.405268,0.74057 0.405274,1.23536 -6e-6,0.65104 -0.22136,1.15397 -0.664063,1.50879 -0.442713,0.35481 -1.072595,0.53222 -1.889648,0.53222 l -2.617188,0 0,-7.29004"
       style=""
       id="path7584" />
  </g>
  <g
     transform="matrix(0.28222223,0,0,0.28222223,23.423361,12.436585)"
     style="font-size:10px;font-style:normal;font-weight:normal;line-height:125%;letter-spacing:0px;word-spacing:0px;fill:#000000;fill-opacity:1;stroke:none;font-family:Sans"
     id="flowRoot6677">
    <path
       d="m 28.574219,266.83663 -1.337891,3.62793 2.680664,0 -1.342773,-3.62793 m -0.556641,-0.97168 1.118164,0 2.77832,7.29004 -1.02539,0 -0.664063,-1.87012 -3.286132,0 -0.664063,1.87012 -1.040039,0 2.783203,-7.29004"
       style=""
       id="path7587" />
  </g>
  <g
     transform="matrix(0.28222223,0,0,0.28222223,80.485127,-43.843263)"
     style="font-size:10px;font-style:normal;font-weight:normal;line-height:125%;letter-spacing:0px;word-spacing:0px;fill:#000000;fill-opacity:1;stroke:none;font-family:Sans"
     id="flowRoot6685">
    <path
       d="m 27.124023,266.6755 0,5.66894 1.191407,0 c 1.005855,10e-6 1.741531,-0.22786 2.207031,-0.68359 0.468744,-0.45573 0.703119,-1.17513 0.703125,-2.1582 -6e-6,-0.97656 -0.234381,-1.69108 -0.703125,-2.14356 -0.4655,-0.45572 -1.201176,-0.68358 -2.207031,-0.68359 l -1.191407,0 m -0.986328,-0.81055 2.026367,0 c 1.412756,10e-6 2.449539,0.29461 3.110352,0.88379 0.660801,0.58594 0.991204,1.50391 0.991211,2.75391 -7e-6,1.25651 -0.332038,2.17936 -0.996094,2.76855 -0.664068,0.5892 -1.699223,0.88379 -3.105469,0.88379 l -2.026367,0 0,-7.29004"
       id="path7590"
       inkscape:connector-curvature="0" />
  </g>
  <g
     transform="matrix(0.28222223,0,0,0.28222223,55.184873,-43.843263)"
     style="font-size:10px;font-style:normal;font-weight:normal;line-height:125%;letter-spacing:0px;word-spacing:0px;fill:#000000;fill-opacity:1;stroke:none;font-family:Sans"
     id="flowRoot6693">
    <path
       d="m 31.59668,266.42648 0,1.04004 c -0.332038,-0.30924 -0.686855,-0.54036 -1.064453,-0.69336 -0.374354,-0.15299 -0.773117,-0.22949 -1.19629,-0.2295 -0.833336,1e-5 -1.471356,0.25554 -1.914062,0.76661 -0.44271,0.50781 -0.664064,1.24349 -0.664063,2.20703 -1e-6,0.96029 0.221353,1.69596 0.664063,2.20703 0.442706,0.50781 1.080726,0.76172 1.914062,0.76172 0.423173,0 0.821936,-0.0765 1.19629,-0.2295 0.377598,-0.15299 0.732415,-0.38411 1.064453,-0.69336 l 0,1.03028 c -0.345058,0.23437 -0.711269,0.41015 -1.098633,0.52734 -0.38412,0.11719 -0.79102,0.17578 -1.220703,0.17578 -1.103519,0 -1.972659,-0.33691 -2.607422,-1.01074 -0.634767,-0.67708 -0.952149,-1.59993 -0.952149,-2.76855 0,-1.17187 0.317382,-2.09472 0.952149,-2.76856 0.634763,-0.67707 1.503903,-1.01562 2.607422,-1.01562 0.436193,0 0.846349,0.0586 1.230468,0.17578 0.387365,0.11394 0.75032,0.28646 1.088868,0.51758"
       id="path7593"
       inkscape:connector-curvature="0" />
  </g>
  <g
     transform="matrix(0.28222223,0,0,0.28222223,29.849361,-43.843263)"
     style="font-size:10px;font-style:normal;font-weight:normal;line-height:125%;letter-spacing:0px;word-spacing:0px;fill:#000000;fill-opacity:1;stroke:none;font-family:Sans"
     id="flowRoot6701">
    <path
       d="m 27.124023,269.67355 0,2.67089 1.582032,0 c 0.530595,10e-6 0.922847,-0.10904 1.176757,-0.32714 0.257157,-0.22136 0.385738,-0.55827 0.385743,-1.01075 -5e-6,-0.45572 -0.128586,-0.79101 -0.385743,-1.00586 -0.25391,-0.21809 -0.646162,-0.32714 -1.176757,-0.32714 l -1.582032,0 m 0,-2.99805 0,2.19727 1.459961,0 c 0.481767,0 0.83984,-0.0895 1.074219,-0.26856 0.237626,-0.18229 0.356441,-0.45898 0.356445,-0.83008 -4e-6,-0.36783 -0.118819,-0.6429 -0.356445,-0.82519 -0.234379,-0.18229 -0.592452,-0.27343 -1.074219,-0.27344 l -1.459961,0 m -0.986328,-0.81055 2.519532,0 c 0.751948,10e-6 1.331375,0.15626 1.738281,0.46875 0.406895,0.31251 0.610346,0.75684 0.610351,1.33301 -5e-6,0.44597 -0.104172,0.80079 -0.3125,1.06445 -0.208338,0.26368 -0.514328,0.42807 -0.917968,0.49317 0.485021,0.10417 0.860997,0.32227 1.127929,0.65429 0.270177,0.32878 0.405268,0.74057 0.405274,1.23536 -6e-6,0.65104 -0.22136,1.15397 -0.664063,1.50879 -0.442713,0.35481 -1.072595,0.53222 -1.889648,0.53222 l -2.617188,0 0,-7.29004"
       id="path7596"
       inkscape:connector-curvature="0" />
  </g>
  <g
     transform="matrix(0.28222223,0,0,0.28222223,4.4322973,-43.843263)"
     style="font-size:10px;font-style:normal;font-weight:normal;line-height:125%;letter-spacing:0px;word-spacing:0px;fill:#000000;fill-opacity:1;stroke:none;font-family:Sans"
     id="flowRoot6709">
    <path
       d="m 28.574219,266.83663 -1.337891,3.62793 2.680664,0 -1.342773,-3.62793 m -0.556641,-0.97168 1.118164,0 2.77832,7.29004 -1.02539,0 -0.664063,-1.87012 -3.286132,0 -0.664063,1.87012 -1.040039,0 2.783203,-7.29004"
       id="path7599"
       inkscape:connector-curvature="0" />
  </g>
  <g
     id="g6178"
     style="fill:none;stroke:#000000;stroke-width:0.1"
     transform="translate(4.5274405e-5,1.8682808e-5)">
    <rect
       id="rect6180"
       height="128.5"
       width="101.3"
       y="0"
       x="0" />
    <circle
       id="circle6182"
       r="1.6"
       cy="3"
       cx="7.5"
       sodipodi:cx="7.5"
       sodipodi:cy="3"
       sodipodi:rx="1.6"
       sodipodi:ry="1.6"
       d="M 9.1,3 C 9.1,3.8836556 8.3836556,4.6 7.5,4.6 6.6163444,4.6 5.9,3.8836556 5.9,3 5.9,2.1163444 6.6163444,1.4 7.5,1.4 8.3836556,1.4 9.1,2.1163444 9.1,3 z" />
    <circle
       id="circle6184"
       r="1.6"
       cy="125.5"
       cx="7.5"
       sodipodi:cx="7.5"
       sodipodi:cy="125.5"
       sodipodi:rx="1.6"
       sodipodi:ry="1.6"
       d="m 9.1,125.5 c 0,0.88366 -0.7163444,1.6 -1.6,1.6 -0.8836556,0 -1.6,-0.71634 -1.6,-1.6 0,-0.88366 0.7163444,-1.6 1.6,-1.6 0.8836556,0 1.6,0.71634 1.6,1.6 z" />
    <circle
       id="circle6186"
       r="1.6"
       cy="3"
       cx="93.860001"
       sodipodi:cx="93.860001"
       sodipodi:cy="3"
       sodipodi:rx="1.6"
       sodipodi:ry="1.6"
       d="m 95.460001,3 c 0,0.8836556 -0.716345,1.6 -1.6,1.6 -0.883656,0 -1.6,-0.7163444 -1.6,-1.6 0,-0.8836556 0.716344,-1.6 1.6,-1.6 0.883655,0 1.6,0.7163444 1.6,1.6 z" />
    <circle
       id="circle6188"
       r="1.6"
       cy="125.5"
       cx="93.860001"
       sodipodi:cx="93.860001"
       sodipodi:cy="125.5"
       sodipodi:rx="1.6"
       sodipodi:ry="1.6"
       d="m 95.460001,125.5 c 0,0.88366 -0.716345,1.6 -1.6,1.6 -0.883656,0 -1.6,-0.71634 -1.6,-1.6 0,-0.88366 0.716344,-1.6 1.6,-1.6 0.883655,0 1.6,0.71634 1.6,1.6 z" />
    <path
       id="path6190-0"
       inkscape:connector-curvature="0"
       style="fill:none;stroke:#000000;stroke-width:0.09990668"
       d="m 12.55,15.05 c -2.6220187,0 -4.7546972,2.123364 -4.7546972,4.745368 0,2.143796 1.4261951,3.960351 3.3776012,4.54998 l 0,2.679746 2.642536,0 0,-2.651834 c 2.003484,-0.55658 3.479956,-2.397067 3.479956,-4.577892 C 17.295396,17.173364 15.172027,15.05 12.55,15.05 z" />
    <g
       id="g6192"
       style="fill:none;stroke:#000000;stroke-width:0.237;stroke-miterlimit:4;stroke-opacity:1;stroke-dasharray:none"
       transform="translate(12.55,19.8)">
      <path
         id="path6194-1"
         style="fill:none;stroke:#030303;stroke-width:0.1411"
         d="M -4.2037748,7.5814929 C -6.8346316,6.1114925 -8.6120123,3.3014922 -8.6120123,0.07148931 c 0,-4.75000381 3.8628404,-8.61000481 8.6282233,-8.61000481 4.764047,0 8.627555,3.8600011 8.627555,8.61000481 0,3.23000299 -1.780051,6.04000329 -4.414579,7.52000359"
         inkscape:connector-curvature="0" />
      <path
         id="path6196-3"
         d="m -2.440413,-9.0485165 0.216323,0.810001"
         style="fill:none;stroke:#030303;stroke-width:0.21170001"
         inkscape:connector-curvature="0" />
      <path
         id="path6198-3"
         d="m -5.1129926,-8.7785155 0.8080822,1.4000001"
         style="fill:none;stroke:#030303;stroke-width:0.2832"
         inkscape:connector-curvature="0" />
      <path
         id="path6200-2"
         d="m -6.6800914,-6.5985155 0.5891225,0.59"
         style="fill:none;stroke:#030303;stroke-width:0.21170001"
         inkscape:connector-curvature="0" />
      <path
         id="path6202-7"
         d="m -8.8466601,-5.0285155 1.3848552,0.8000013"
         style="fill:none;stroke:#030303;stroke-width:0.2832"
         inkscape:connector-curvature="0" />
      <path
         id="path6204"
         d="m -9.1267017,-2.3685125 0.8044106,0.2200004"
         style="fill:none;stroke:#030303;stroke-width:0.21170001"
         inkscape:connector-curvature="0" />
      <path
         id="path6206-3"
         d="m -10.221501,0.08148931 1.6061507,0"
         style="fill:none;stroke:#030303;stroke-width:0.2832"
         inkscape:connector-curvature="0" />
      <path
         id="path6208-8"
         d="M -9.1243652,2.5214918 -8.3199546,2.3014913"
         style="fill:none;stroke:#030303;stroke-width:0.21170001"
         inkscape:connector-curvature="0" />
      <path
         id="path6210-1"
         d="M -8.8489964,5.181492 -7.4574658,4.3814921"
         style="fill:none;stroke:#030303;stroke-width:0.2832"
         inkscape:connector-curvature="0" />
      <path
         id="path6212-5"
         d="m -6.6737496,6.7514925 0.5877873,-0.59"
         style="fill:none;stroke:#030303;stroke-width:0.21170001"
         inkscape:connector-curvature="0" />
      <path
         id="path6214-8"
         d="m -5.0742739,8.871494 0.776373,-1.3400011"
         style="fill:none;stroke:#030303;stroke-width:0.2832"
         inkscape:connector-curvature="0" />
      <path
         id="path6216-5"
         d="M 5.113671,8.8814939 4.329988,7.5214929"
         style="fill:none;stroke:#030303;stroke-width:0.2832"
         inkscape:connector-curvature="0" />
      <path
         id="path6218-3"
         d="m 6.704836,6.7414925 -0.588789,-0.58"
         style="fill:none;stroke:#030303;stroke-width:0.21170001"
         inkscape:connector-curvature="0" />
      <path
         id="path6220-4"
         d="m 8.846371,5.1614921 -1.360155,-0.79"
         style="fill:none;stroke:#030303;stroke-width:0.2832"
         inkscape:connector-curvature="0" />
      <path
         id="path6222-4"
         d="M 9.151112,2.5114918 8.347402,2.2914913"
         style="fill:none;stroke:#030303;stroke-width:0.21170001"
         inkscape:connector-curvature="0" />
      <path
         id="path6224-1"
         d="m 10.195511,0.07148931 -1.555417,0"
         style="fill:none;stroke:#030303;stroke-width:0.2832"
         inkscape:connector-curvature="0" />
      <path
         id="path6226-6"
         d="M 9.148809,-2.3785126 8.344698,-2.1585121"
         style="fill:none;stroke:#030303;stroke-width:0.21170001"
         inkscape:connector-curvature="0" />
      <path
         id="path6228-0"
         d="M 8.836691,-5.0185155 7.482544,-4.2385142"
         style="fill:none;stroke:#030303;stroke-width:0.2832"
         inkscape:connector-curvature="0" />
      <path
         id="path6230-4"
         d="m 6.699128,-6.6085155 -0.588421,0.59"
         style="fill:none;stroke:#030303;stroke-width:0.21170001"
         inkscape:connector-curvature="0" />
      <path
         id="path6232-0"
         d="m 5.131729,-8.7785155 -0.80875,1.39"
         style="fill:none;stroke:#030303;stroke-width:0.2832"
         inkscape:connector-curvature="0" />
      <path
         id="path6234-5"
         d="m 2.456813,-9.0485165 -0.215288,0.800001"
         style="fill:none;stroke:#030303;stroke-width:0.21170001"
         inkscape:connector-curvature="0" />
      <path
         id="path6236-9"
         d="m 0.007833,-10.128517 0,1.5900015"
         style="fill:none;stroke:#030303;stroke-width:0.2832"
         inkscape:connector-curvature="0" />
    </g>
    <path
       id="path6238-0"
       inkscape:connector-curvature="0"
       style="fill:none;stroke:#000000;stroke-width:0.09990668"
       d="m 37.95,15.05 c -2.622019,0 -4.754697,2.123364 -4.754697,4.745368 0,2.143796 1.426195,3.960351 3.377601,4.54998 l 0,2.679746 2.642536,0 0,-2.651834 c 2.003484,-0.55658 3.479956,-2.397067 3.479956,-4.577892 C 42.695396,17.173364 40.572027,15.05 37.95,15.05 z" />
    <g
       id="g6240"
       style="fill:none;stroke:#000000;stroke-width:0.237;stroke-miterlimit:4;stroke-opacity:1;stroke-dasharray:none"
       transform="translate(37.95,19.8)">
      <path
         id="path6242-4"
         style="fill:none;stroke:#030303;stroke-width:0.1411"
         d="M -4.2037748,7.5814929 C -6.8346316,6.1114925 -8.6120123,3.3014922 -8.6120123,0.07148931 c 0,-4.75000381 3.8628404,-8.61000481 8.6282233,-8.61000481 4.764047,0 8.627555,3.8600011 8.627555,8.61000481 0,3.23000299 -1.780051,6.04000329 -4.414579,7.52000359"
         inkscape:connector-curvature="0" />
      <path
         id="path6244-7"
         d="m -2.440413,-9.0485165 0.216323,0.810001"
         style="fill:none;stroke:#030303;stroke-width:0.21170001"
         inkscape:connector-curvature="0" />
      <path
         id="path6246-6"
         d="m -5.1129926,-8.7785155 0.8080822,1.4000001"
         style="fill:none;stroke:#030303;stroke-width:0.2832"
         inkscape:connector-curvature="0" />
      <path
         id="path6248-3"
         d="m -6.6800914,-6.5985155 0.5891225,0.59"
         style="fill:none;stroke:#030303;stroke-width:0.21170001"
         inkscape:connector-curvature="0" />
      <path
         id="path6250-1"
         d="m -8.8466601,-5.0285155 1.3848552,0.8000013"
         style="fill:none;stroke:#030303;stroke-width:0.2832"
         inkscape:connector-curvature="0" />
      <path
         id="path6252"
         d="m -9.1267017,-2.3685125 0.8044106,0.2200004"
         style="fill:none;stroke:#030303;stroke-width:0.21170001"
         inkscape:connector-curvature="0" />
      <path
         id="path6254-5"
         d="m -10.221501,0.08148931 1.6061507,0"
         style="fill:none;stroke:#030303;stroke-width:0.2832"
         inkscape:connector-curvature="0" />
      <path
         id="path6256-1"
         d="M -9.1243652,2.5214918 -8.3199546,2.3014913"
         style="fill:none;stroke:#030303;stroke-width:0.21170001"
         inkscape:connector-curvature="0" />
      <path
         id="path6258-9"
         d="M -8.8489964,5.181492 -7.4574658,4.3814921"
         style="fill:none;stroke:#030303;stroke-width:0.2832"
         inkscape:connector-curvature="0" />
      <path
         id="path6260-5"
         d="m -6.6737496,6.7514925 0.5877873,-0.59"
         style="fill:none;stroke:#030303;stroke-width:0.21170001"
         inkscape:connector-curvature="0" />
      <path
         id="path6262-5"
         d="m -5.0742739,8.871494 0.776373,-1.3400011"
         style="fill:none;stroke:#030303;stroke-width:0.2832"
         inkscape:connector-curvature="0" />
      <path
         id="path6264-0"
         d="M 5.113671,8.8814939 4.329988,7.5214929"
         style="fill:none;stroke:#030303;stroke-width:0.2832"
         inkscape:connector-curvature="0" />
      <path
         id="path6266-5"
         d="m 6.704836,6.7414925 -0.588789,-0.58"
         style="fill:none;stroke:#030303;stroke-width:0.21170001"
         inkscape:connector-curvature="0" />
      <path
         id="path6268-9"
         d="m 8.846371,5.1614921 -1.360155,-0.79"
         style="fill:none;stroke:#030303;stroke-width:0.2832"
         inkscape:connector-curvature="0" />
      <path
         id="path6270-5"
         d="M 9.151112,2.5114918 8.347402,2.2914913"
         style="fill:none;stroke:#030303;stroke-width:0.21170001"
         inkscape:connector-curvature="0" />
      <path
         id="path6272-8"
         d="m 10.195511,0.07148931 -1.555417,0"
         style="fill:none;stroke:#030303;stroke-width:0.2832"
         inkscape:connector-curvature="0" />
      <path
         id="path6274-5"
         d="M 9.148809,-2.3785126 8.344698,-2.1585121"
         style="fill:none;stroke:#030303;stroke-width:0.21170001"
         inkscape:connector-curvature="0" />
      <path
         id="path6276-9"
         d="M 8.836691,-5.0185155 7.482544,-4.2385142"
         style="fill:none;stroke:#030303;stroke-width:0.2832"
         inkscape:connector-curvature="0" />
      <path
         id="path6278-5"
         d="m 6.699128,-6.6085155 -0.588421,0.59"
         style="fill:none;stroke:#030303;stroke-width:0.21170001"
         inkscape:connector-curvature="0" />
      <path
         id="path6280-3"
         d="m 5.131729,-8.7785155 -0.80875,1.39"
         style="fill:none;stroke:#030303;stroke-width:0.2832"
         inkscape:connector-curvature="0" />
      <path
         id="path6282-9"
         d="m 2.456813,-9.0485165 -0.215288,0.800001"
         style="fill:none;stroke:#030303;stroke-width:0.21170001"
         inkscape:connector-curvature="0" />
      <path
         id="path6284-8"
         d="m 0.007833,-10.128517 0,1.5900015"
         style="fill:none;stroke:#030303;stroke-width:0.2832"
         inkscape:connector-curvature="0" />
    </g>
    <path
       id="path6286-1"
       inkscape:connector-curvature="0"
       style="fill:none;stroke:#000000;stroke-width:0.09990668"
       d="m 63.35,15.05 c -2.622019,0 -4.754697,2.123364 -4.754697,4.745368 0,2.143796 1.426195,3.960351 3.377601,4.54998 l 0,2.679746 2.642536,0 0,-2.651834 c 2.003484,-0.55658 3.479956,-2.397067 3.479956,-4.577892 C 68.095396,17.173364 65.972027,15.05 63.35,15.05 z" />
    <g
       id="g6288"
       style="fill:none;stroke:#000000;stroke-width:0.237;stroke-miterlimit:4;stroke-opacity:1;stroke-dasharray:none"
       transform="translate(63.35,19.8)">
      <path
         id="path6290-9"
         style="fill:none;stroke:#030303;stroke-width:0.1411"
         d="M -4.2037748,7.5814929 C -6.8346316,6.1114925 -8.6120123,3.3014922 -8.6120123,0.07148931 c 0,-4.75000381 3.8628404,-8.61000481 8.6282233,-8.61000481 4.764047,0 8.627555,3.8600011 8.627555,8.61000481 0,3.23000299 -1.780051,6.04000329 -4.414579,7.52000359"
         inkscape:connector-curvature="0" />
      <path
         id="path6292-9"
         d="m -2.440413,-9.0485165 0.216323,0.810001"
         style="fill:none;stroke:#030303;stroke-width:0.21170001"
         inkscape:connector-curvature="0" />
      <path
         id="path6294-1"
         d="m -5.1129926,-8.7785155 0.8080822,1.4000001"
         style="fill:none;stroke:#030303;stroke-width:0.2832"
         inkscape:connector-curvature="0" />
      <path
         id="path6296-7"
         d="m -6.6800914,-6.5985155 0.5891225,0.59"
         style="fill:none;stroke:#030303;stroke-width:0.21170001"
         inkscape:connector-curvature="0" />
      <path
         id="path6298-9"
         d="m -8.8466601,-5.0285155 1.3848552,0.8000013"
         style="fill:none;stroke:#030303;stroke-width:0.2832"
         inkscape:connector-curvature="0" />
      <path
         id="path6300"
         d="m -9.1267017,-2.3685125 0.8044106,0.2200004"
         style="fill:none;stroke:#030303;stroke-width:0.21170001"
         inkscape:connector-curvature="0" />
      <path
         id="path6302-0"
         d="m -10.221501,0.08148931 1.6061507,0"
         style="fill:none;stroke:#030303;stroke-width:0.2832"
         inkscape:connector-curvature="0" />
      <path
         id="path6304-4"
         d="M -9.1243652,2.5214918 -8.3199546,2.3014913"
         style="fill:none;stroke:#030303;stroke-width:0.21170001"
         inkscape:connector-curvature="0" />
      <path
         id="path6306-6"
         d="M -8.8489964,5.181492 -7.4574658,4.3814921"
         style="fill:none;stroke:#030303;stroke-width:0.2832"
         inkscape:connector-curvature="0" />
      <path
         id="path6308-6"
         d="m -6.6737496,6.7514925 0.5877873,-0.59"
         style="fill:none;stroke:#030303;stroke-width:0.21170001"
         inkscape:connector-curvature="0" />
      <path
         id="path6310-8"
         d="m -5.0742739,8.871494 0.776373,-1.3400011"
         style="fill:none;stroke:#030303;stroke-width:0.2832"
         inkscape:connector-curvature="0" />
      <path
         id="path6312-4"
         d="M 5.113671,8.8814939 4.329988,7.5214929"
         style="fill:none;stroke:#030303;stroke-width:0.2832"
         inkscape:connector-curvature="0" />
      <path
         id="path6314-1"
         d="m 6.704836,6.7414925 -0.588789,-0.58"
         style="fill:none;stroke:#030303;stroke-width:0.21170001"
         inkscape:connector-curvature="0" />
      <path
         id="path6316-6"
         d="m 8.846371,5.1614921 -1.360155,-0.79"
         style="fill:none;stroke:#030303;stroke-width:0.2832"
         inkscape:connector-curvature="0" />
      <path
         id="path6318-3"
         d="M 9.151112,2.5114918 8.347402,2.2914913"
         style="fill:none;stroke:#030303;stroke-width:0.21170001"
         inkscape:connector-curvature="0" />
      <path
         id="path6320-1"
         d="m 10.195511,0.07148931 -1.555417,0"
         style="fill:none;stroke:#030303;stroke-width:0.2832"
         inkscape:connector-curvature="0" />
      <path
         id="path6322-6"
         d="M 9.148809,-2.3785126 8.344698,-2.1585121"
         style="fill:none;stroke:#030303;stroke-width:0.21170001"
         inkscape:connector-curvature="0" />
      <path
         id="path6324-1"
         d="M 8.836691,-5.0185155 7.482544,-4.2385142"
         style="fill:none;stroke:#030303;stroke-width:0.2832"
         inkscape:connector-curvature="0" />
      <path
         id="path6326-5"
         d="m 6.699128,-6.6085155 -0.588421,0.59"
         style="fill:none;stroke:#030303;stroke-width:0.21170001"
         inkscape:connector-curvature="0" />
      <path
         id="path6328-2"
         d="m 5.131729,-8.7785155 -0.80875,1.39"
         style="fill:none;stroke:#030303;stroke-width:0.2832"
         inkscape:connector-curvature="0" />
      <path
         id="path6330-3"
         d="m 2.456813,-9.0485165 -0.215288,0.800001"
         style="fill:none;stroke:#030303;stroke-width:0.21170001"
         inkscape:connector-curvature="0" />
      <path
         id="path6332-4"
         d="m 0.007833,-10.128517 0,1.5900015"
         style="fill:none;stroke:#030303;stroke-width:0.2832"
         inkscape:connector-curvature="0" />
    </g>
    <path
       id="path6334-2"
       inkscape:connector-curvature="0"
       style="fill:none;stroke:#000000;stroke-width:0.09990668"
       d="m 88.75,15.05 c -2.622019,0 -4.754697,2.123364 -4.754697,4.745368 0,2.143796 1.426195,3.960351 3.377601,4.54998 l 0,2.679746 2.642536,0 0,-2.651834 c 2.003484,-0.55658 3.479956,-2.397067 3.479956,-4.577892 C 93.495396,17.173364 91.372027,15.05 88.75,15.05 z" />
    <g
       id="g6336"
       style="fill:none;stroke:#000000;stroke-width:0.237;stroke-miterlimit:4;stroke-opacity:1;stroke-dasharray:none"
       transform="translate(88.75,19.8)">
      <path
         id="path6338-1"
         style="fill:none;stroke:#030303;stroke-width:0.1411"
         d="M -4.2037748,7.5814929 C -6.8346316,6.1114925 -8.6120123,3.3014922 -8.6120123,0.07148931 c 0,-4.75000381 3.8628404,-8.61000481 8.6282233,-8.61000481 4.764047,0 8.627555,3.8600011 8.627555,8.61000481 0,3.23000299 -1.780051,6.04000329 -4.414579,7.52000359"
         inkscape:connector-curvature="0" />
      <path
         id="path6340-3"
         d="m -2.440413,-9.0485165 0.216323,0.810001"
         style="fill:none;stroke:#030303;stroke-width:0.21170001"
         inkscape:connector-curvature="0" />
      <path
         id="path6342-1"
         d="m -5.1129926,-8.7785155 0.8080822,1.4000001"
         style="fill:none;stroke:#030303;stroke-width:0.2832"
         inkscape:connector-curvature="0" />
      <path
         id="path6344-0"
         d="m -6.6800914,-6.5985155 0.5891225,0.59"
         style="fill:none;stroke:#030303;stroke-width:0.21170001"
         inkscape:connector-curvature="0" />
      <path
         id="path6346-4"
         d="m -8.8466601,-5.0285155 1.3848552,0.8000013"
         style="fill:none;stroke:#030303;stroke-width:0.2832"
         inkscape:connector-curvature="0" />
      <path
         id="path6348"
         d="m -9.1267017,-2.3685125 0.8044106,0.2200004"
         style="fill:none;stroke:#030303;stroke-width:0.21170001"
         inkscape:connector-curvature="0" />
      <path
         id="path6350-5"
         d="m -10.221501,0.08148931 1.6061507,0"
         style="fill:none;stroke:#030303;stroke-width:0.2832"
         inkscape:connector-curvature="0" />
      <path
         id="path6352-8"
         d="M -9.1243652,2.5214918 -8.3199546,2.3014913"
         style="fill:none;stroke:#030303;stroke-width:0.21170001"
         inkscape:connector-curvature="0" />
      <path
         id="path6354-8"
         d="M -8.8489964,5.181492 -7.4574658,4.3814921"
         style="fill:none;stroke:#030303;stroke-width:0.2832"
         inkscape:connector-curvature="0" />
      <path
         id="path6356-1"
         d="m -6.6737496,6.7514925 0.5877873,-0.59"
         style="fill:none;stroke:#030303;stroke-width:0.21170001"
         inkscape:connector-curvature="0" />
      <path
         id="path6358-8"
         d="m -5.0742739,8.871494 0.776373,-1.3400011"
         style="fill:none;stroke:#030303;stroke-width:0.2832"
         inkscape:connector-curvature="0" />
      <path
         id="path6360-3"
         d="M 5.113671,8.8814939 4.329988,7.5214929"
         style="fill:none;stroke:#030303;stroke-width:0.2832"
         inkscape:connector-curvature="0" />
      <path
         id="path6362-3"
         d="m 6.704836,6.7414925 -0.588789,-0.58"
         style="fill:none;stroke:#030303;stroke-width:0.21170001"
         inkscape:connector-curvature="0" />
      <path
         id="path6364-9"
         d="m 8.846371,5.1614921 -1.360155,-0.79"
         style="fill:none;stroke:#030303;stroke-width:0.2832"
         inkscape:connector-curvature="0" />
      <path
         id="path6366-7"
         d="M 9.151112,2.5114918 8.347402,2.2914913"
         style="fill:none;stroke:#030303;stroke-width:0.21170001"
         inkscape:connector-curvature="0" />
      <path
         id="path6368-1"
         d="m 10.195511,0.07148931 -1.555417,0"
         style="fill:none;stroke:#030303;stroke-width:0.2832"
         inkscape:connector-curvature="0" />
      <path
         id="path6370-8"
         d="M 9.148809,-2.3785126 8.344698,-2.1585121"
         style="fill:none;stroke:#030303;stroke-width:0.21170001"
         inkscape:connector-curvature="0" />
      <path
         id="path6372-1"
         d="M 8.836691,-5.0185155 7.482544,-4.2385142"
         style="fill:none;stroke:#030303;stroke-width:0.2832"
         inkscape:connector-curvature="0" />
      <path
         id="path6374-7"
         d="m 6.699128,-6.6085155 -0.588421,0.59"
         style="fill:none;stroke:#030303;stroke-width:0.21170001"
         inkscape:connector-curvature="0" />
      <path
         id="path6376-2"
         d="m 5.131729,-8.7785155 -0.80875,1.39"
         style="fill:none;stroke:#030303;stroke-width:0.2832"
         inkscape:connector-curvature="0" />
      <path
         id="path6378-1"
         d="m 2.456813,-9.0485165 -0.215288,0.800001"
         style="fill:none;stroke:#030303;stroke-width:0.21170001"
         inkscape:connector-curvature="0" />
      <path
         id="path6380-1"
         d="m 0.007833,-10.128517 0,1.5900015"
         style="fill:none;stroke:#030303;stroke-width:0.2832"
         inkscape:connector-curvature="0" />
    </g>
    <path
       id="path6382-1"
       inkscape:connector-curvature="0"
       style="fill:none;stroke:#000000;stroke-width:0.09990668"
       d="m 12.55,40.45 c -2.6220187,0 -4.7546972,2.123364 -4.7546972,4.745368 0,2.143796 1.4261951,3.960351 3.3776012,4.54998 l 0,2.679746 2.642536,0 0,-2.651834 c 2.003484,-0.55658 3.479956,-2.397067 3.479956,-4.577892 C 17.295396,42.573364 15.172027,40.45 12.55,40.45 z" />
    <g
       id="g6384"
       style="fill:none;stroke:#000000;stroke-width:0.237;stroke-miterlimit:4;stroke-opacity:1;stroke-dasharray:none"
       transform="translate(12.55,45.2)">
      <path
         id="path6386-0"
         style="fill:none;stroke:#030303;stroke-width:0.1411"
         d="M -4.2037748,7.5814929 C -6.8346316,6.1114925 -8.6120123,3.3014922 -8.6120123,0.07148931 c 0,-4.75000381 3.8628404,-8.61000481 8.6282233,-8.61000481 4.764047,0 8.627555,3.8600011 8.627555,8.61000481 0,3.23000299 -1.780051,6.04000329 -4.414579,7.52000359"
         inkscape:connector-curvature="0" />
      <path
         id="path6388-0"
         d="m -2.440413,-9.0485165 0.216323,0.810001"
         style="fill:none;stroke:#030303;stroke-width:0.21170001"
         inkscape:connector-curvature="0" />
      <path
         id="path6390-5"
         d="m -5.1129926,-8.7785155 0.8080822,1.4000001"
         style="fill:none;stroke:#030303;stroke-width:0.2832"
         inkscape:connector-curvature="0" />
      <path
         id="path6392-8"
         d="m -6.6800914,-6.5985155 0.5891225,0.59"
         style="fill:none;stroke:#030303;stroke-width:0.21170001"
         inkscape:connector-curvature="0" />
      <path
         id="path6394-0"
         d="m -8.8466601,-5.0285155 1.3848552,0.8000013"
         style="fill:none;stroke:#030303;stroke-width:0.2832"
         inkscape:connector-curvature="0" />
      <path
         id="path6396"
         d="m -9.1267017,-2.3685125 0.8044106,0.2200004"
         style="fill:none;stroke:#030303;stroke-width:0.21170001"
         inkscape:connector-curvature="0" />
      <path
         id="path6398-4"
         d="m -10.221501,0.08148931 1.6061507,0"
         style="fill:none;stroke:#030303;stroke-width:0.2832"
         inkscape:connector-curvature="0" />
      <path
         id="path6400-4"
         d="M -9.1243652,2.5214918 -8.3199546,2.3014913"
         style="fill:none;stroke:#030303;stroke-width:0.21170001"
         inkscape:connector-curvature="0" />
      <path
         id="path6402-2"
         d="M -8.8489964,5.181492 -7.4574658,4.3814921"
         style="fill:none;stroke:#030303;stroke-width:0.2832"
         inkscape:connector-curvature="0" />
      <path
         id="path6404-6"
         d="m -6.6737496,6.7514925 0.5877873,-0.59"
         style="fill:none;stroke:#030303;stroke-width:0.21170001"
         inkscape:connector-curvature="0" />
      <path
         id="path6406-9"
         d="m -5.0742739,8.871494 0.776373,-1.3400011"
         style="fill:none;stroke:#030303;stroke-width:0.2832"
         inkscape:connector-curvature="0" />
      <path
         id="path6408-8"
         d="M 5.113671,8.8814939 4.329988,7.5214929"
         style="fill:none;stroke:#030303;stroke-width:0.2832"
         inkscape:connector-curvature="0" />
      <path
         id="path6410-8"
         d="m 6.704836,6.7414925 -0.588789,-0.58"
         style="fill:none;stroke:#030303;stroke-width:0.21170001"
         inkscape:connector-curvature="0" />
      <path
         id="path6412-4"
         d="m 8.846371,5.1614921 -1.360155,-0.79"
         style="fill:none;stroke:#030303;stroke-width:0.2832"
         inkscape:connector-curvature="0" />
      <path
         id="path6414-1"
         d="M 9.151112,2.5114918 8.347402,2.2914913"
         style="fill:none;stroke:#030303;stroke-width:0.21170001"
         inkscape:connector-curvature="0" />
      <path
         id="path6416-8"
         d="m 10.195511,0.07148931 -1.555417,0"
         style="fill:none;stroke:#030303;stroke-width:0.2832"
         inkscape:connector-curvature="0" />
      <path
         id="path6418-0"
         d="M 9.148809,-2.3785126 8.344698,-2.1585121"
         style="fill:none;stroke:#030303;stroke-width:0.21170001"
         inkscape:connector-curvature="0" />
      <path
         id="path6420-3"
         d="M 8.836691,-5.0185155 7.482544,-4.2385142"
         style="fill:none;stroke:#030303;stroke-width:0.2832"
         inkscape:connector-curvature="0" />
      <path
         id="path6422-9"
         d="m 6.699128,-6.6085155 -0.588421,0.59"
         style="fill:none;stroke:#030303;stroke-width:0.21170001"
         inkscape:connector-curvature="0" />
      <path
         id="path6424-5"
         d="m 5.131729,-8.7785155 -0.80875,1.39"
         style="fill:none;stroke:#030303;stroke-width:0.2832"
         inkscape:connector-curvature="0" />
      <path
         id="path6426-6"
         d="m 2.456813,-9.0485165 -0.215288,0.800001"
         style="fill:none;stroke:#030303;stroke-width:0.21170001"
         inkscape:connector-curvature="0" />
      <path
         id="path6428-8"
         d="m 0.007833,-10.128517 0,1.5900015"
         style="fill:none;stroke:#030303;stroke-width:0.2832"
         inkscape:connector-curvature="0" />
    </g>
    <path
       id="path6430-5"
       inkscape:connector-curvature="0"
       style="fill:none;stroke:#000000;stroke-width:0.09990668"
       d="m 37.95,40.45 c -2.622019,0 -4.754697,2.123364 -4.754697,4.745368 0,2.143796 1.426195,3.960351 3.377601,4.54998 l 0,2.679746 2.642536,0 0,-2.651834 c 2.003484,-0.55658 3.479956,-2.397067 3.479956,-4.577892 C 42.695396,42.573364 40.572027,40.45 37.95,40.45 z" />
    <g
       id="g6432"
       style="fill:none;stroke:#000000;stroke-width:0.237;stroke-miterlimit:4;stroke-opacity:1;stroke-dasharray:none"
       transform="translate(37.95,45.2)">
      <path
         id="path6434-2"
         style="fill:none;stroke:#030303;stroke-width:0.1411"
         d="M -4.2037748,7.5814929 C -6.8346316,6.1114925 -8.6120123,3.3014922 -8.6120123,0.07148931 c 0,-4.75000381 3.8628404,-8.61000481 8.6282233,-8.61000481 4.764047,0 8.627555,3.8600011 8.627555,8.61000481 0,3.23000299 -1.780051,6.04000329 -4.414579,7.52000359"
         inkscape:connector-curvature="0" />
      <path
         id="path6436-9"
         d="m -2.440413,-9.0485165 0.216323,0.810001"
         style="fill:none;stroke:#030303;stroke-width:0.21170001"
         inkscape:connector-curvature="0" />
      <path
         id="path6438-9"
         d="m -5.1129926,-8.7785155 0.8080822,1.4000001"
         style="fill:none;stroke:#030303;stroke-width:0.2832"
         inkscape:connector-curvature="0" />
      <path
         id="path6440-5"
         d="m -6.6800914,-6.5985155 0.5891225,0.59"
         style="fill:none;stroke:#030303;stroke-width:0.21170001"
         inkscape:connector-curvature="0" />
      <path
         id="path6442"
         d="m -8.8466601,-5.0285155 1.3848552,0.8000013"
         style="fill:none;stroke:#030303;stroke-width:0.2832"
         inkscape:connector-curvature="0" />
      <path
         id="path6444"
         d="m -9.1267017,-2.3685125 0.8044106,0.2200004"
         style="fill:none;stroke:#030303;stroke-width:0.21170001"
         inkscape:connector-curvature="0" />
      <path
         id="path6446"
         d="m -10.221501,0.08148931 1.6061507,0"
         style="fill:none;stroke:#030303;stroke-width:0.2832"
         inkscape:connector-curvature="0" />
      <path
         id="path6448"
         d="M -9.1243652,2.5214918 -8.3199546,2.3014913"
         style="fill:none;stroke:#030303;stroke-width:0.21170001"
         inkscape:connector-curvature="0" />
      <path
         id="path6450"
         d="M -8.8489964,5.181492 -7.4574658,4.3814921"
         style="fill:none;stroke:#030303;stroke-width:0.2832"
         inkscape:connector-curvature="0" />
      <path
         id="path6452"
         d="m -6.6737496,6.7514925 0.5877873,-0.59"
         style="fill:none;stroke:#030303;stroke-width:0.21170001"
         inkscape:connector-curvature="0" />
      <path
         id="path6454"
         d="m -5.0742739,8.871494 0.776373,-1.3400011"
         style="fill:none;stroke:#030303;stroke-width:0.2832"
         inkscape:connector-curvature="0" />
      <path
         id="path6456"
         d="M 5.113671,8.8814939 4.329988,7.5214929"
         style="fill:none;stroke:#030303;stroke-width:0.2832"
         inkscape:connector-curvature="0" />
      <path
         id="path6458"
         d="m 6.704836,6.7414925 -0.588789,-0.58"
         style="fill:none;stroke:#030303;stroke-width:0.21170001"
         inkscape:connector-curvature="0" />
      <path
         id="path6460"
         d="m 8.846371,5.1614921 -1.360155,-0.79"
         style="fill:none;stroke:#030303;stroke-width:0.2832"
         inkscape:connector-curvature="0" />
      <path
         id="path6462"
         d="M 9.151112,2.5114918 8.347402,2.2914913"
         style="fill:none;stroke:#030303;stroke-width:0.21170001"
         inkscape:connector-curvature="0" />
      <path
         id="path6464"
         d="m 10.195511,0.07148931 -1.555417,0"
         style="fill:none;stroke:#030303;stroke-width:0.2832"
         inkscape:connector-curvature="0" />
      <path
         id="path6466"
         d="M 9.148809,-2.3785126 8.344698,-2.1585121"
         style="fill:none;stroke:#030303;stroke-width:0.21170001"
         inkscape:connector-curvature="0" />
      <path
         id="path6468"
         d="M 8.836691,-5.0185155 7.482544,-4.2385142"
         style="fill:none;stroke:#030303;stroke-width:0.2832"
         inkscape:connector-curvature="0" />
      <path
         id="path6470"
         d="m 6.699128,-6.6085155 -0.588421,0.59"
         style="fill:none;stroke:#030303;stroke-width:0.21170001"
         inkscape:connector-curvature="0" />
      <path
         id="path6472"
         d="m 5.131729,-8.7785155 -0.80875,1.39"
         style="fill:none;stroke:#030303;stroke-width:0.2832"
         inkscape:connector-curvature="0" />
      <path
         id="path6474"
         d="m 2.456813,-9.0485165 -0.215288,0.800001"
         style="fill:none;stroke:#030303;stroke-width:0.21170001"
         inkscape:connector-curvature="0" />
      <path
         id="path6476"
         d="m 0.007833,-10.128517 0,1.5900015"
         style="fill:none;stroke:#030303;stroke-width:0.2832"
         inkscape:connector-curvature="0" />
    </g>
    <path
       id="path6478"
       inkscape:connector-curvature="0"
       style="fill:none;stroke:#000000;stroke-width:0.09990668"
       d="m 63.35,40.45 c -2.622019,0 -4.754697,2.123364 -4.754697,4.745368 0,2.143796 1.426195,3.960351 3.377601,4.54998 l 0,2.679746 2.642536,0 0,-2.651834 c 2.003484,-0.55658 3.479956,-2.397067 3.479956,-4.577892 C 68.095396,42.573364 65.972027,40.45 63.35,40.45 z" />
    <g
       id="g6480"
       style="fill:none;stroke:#000000;stroke-width:0.237;stroke-miterlimit:4;stroke-opacity:1;stroke-dasharray:none"
       transform="translate(63.35,45.2)">
      <path
         id="path6482"
         style="fill:none;stroke:#030303;stroke-width:0.1411"
         d="M -4.2037748,7.5814929 C -6.8346316,6.1114925 -8.6120123,3.3014922 -8.6120123,0.07148931 c 0,-4.75000381 3.8628404,-8.61000481 8.6282233,-8.61000481 4.764047,0 8.627555,3.8600011 8.627555,8.61000481 0,3.23000299 -1.780051,6.04000329 -4.414579,7.52000359"
         inkscape:connector-curvature="0" />
      <path
         id="path6484"
         d="m -2.440413,-9.0485165 0.216323,0.810001"
         style="fill:none;stroke:#030303;stroke-width:0.21170001"
         inkscape:connector-curvature="0" />
      <path
         id="path6486"
         d="m -5.1129926,-8.7785155 0.8080822,1.4000001"
         style="fill:none;stroke:#030303;stroke-width:0.2832"
         inkscape:connector-curvature="0" />
      <path
         id="path6488"
         d="m -6.6800914,-6.5985155 0.5891225,0.59"
         style="fill:none;stroke:#030303;stroke-width:0.21170001"
         inkscape:connector-curvature="0" />
      <path
         id="path6490"
         d="m -8.8466601,-5.0285155 1.3848552,0.8000013"
         style="fill:none;stroke:#030303;stroke-width:0.2832"
         inkscape:connector-curvature="0" />
      <path
         id="path6492"
         d="m -9.1267017,-2.3685125 0.8044106,0.2200004"
         style="fill:none;stroke:#030303;stroke-width:0.21170001"
         inkscape:connector-curvature="0" />
      <path
         id="path6494"
         d="m -10.221501,0.08148931 1.6061507,0"
         style="fill:none;stroke:#030303;stroke-width:0.2832"
         inkscape:connector-curvature="0" />
      <path
         id="path6496"
         d="M -9.1243652,2.5214918 -8.3199546,2.3014913"
         style="fill:none;stroke:#030303;stroke-width:0.21170001"
         inkscape:connector-curvature="0" />
      <path
         id="path6498"
         d="M -8.8489964,5.181492 -7.4574658,4.3814921"
         style="fill:none;stroke:#030303;stroke-width:0.2832"
         inkscape:connector-curvature="0" />
      <path
         id="path6500"
         d="m -6.6737496,6.7514925 0.5877873,-0.59"
         style="fill:none;stroke:#030303;stroke-width:0.21170001"
         inkscape:connector-curvature="0" />
      <path
         id="path6502"
         d="m -5.0742739,8.871494 0.776373,-1.3400011"
         style="fill:none;stroke:#030303;stroke-width:0.2832"
         inkscape:connector-curvature="0" />
      <path
         id="path6504"
         d="M 5.113671,8.8814939 4.329988,7.5214929"
         style="fill:none;stroke:#030303;stroke-width:0.2832"
         inkscape:connector-curvature="0" />
      <path
         id="path6506"
         d="m 6.704836,6.7414925 -0.588789,-0.58"
         style="fill:none;stroke:#030303;stroke-width:0.21170001"
         inkscape:connector-curvature="0" />
      <path
         id="path6508"
         d="m 8.846371,5.1614921 -1.360155,-0.79"
         style="fill:none;stroke:#030303;stroke-width:0.2832"
         inkscape:connector-curvature="0" />
      <path
         id="path6510"
         d="M 9.151112,2.5114918 8.347402,2.2914913"
         style="fill:none;stroke:#030303;stroke-width:0.21170001"
         inkscape:connector-curvature="0" />
      <path
         id="path6512"
         d="m 10.195511,0.07148931 -1.555417,0"
         style="fill:none;stroke:#030303;stroke-width:0.2832"
         inkscape:connector-curvature="0" />
      <path
         id="path6514"
         d="M 9.148809,-2.3785126 8.344698,-2.1585121"
         style="fill:none;stroke:#030303;stroke-width:0.21170001"
         inkscape:connector-curvature="0" />
      <path
         id="path6516"
         d="M 8.836691,-5.0185155 7.482544,-4.2385142"
         style="fill:none;stroke:#030303;stroke-width:0.2832"
         inkscape:connector-curvature="0" />
      <path
         id="path6518"
         d="m 6.699128,-6.6085155 -0.588421,0.59"
         style="fill:none;stroke:#030303;stroke-width:0.21170001"
         inkscape:connector-curvature="0" />
      <path
         id="path6520"
         d="m 5.131729,-8.7785155 -0.80875,1.39"
         style="fill:none;stroke:#030303;stroke-width:0.2832"
         inkscape:connector-curvature="0" />
      <path
         id="path6522"
         d="m 2.456813,-9.0485165 -0.215288,0.800001"
         style="fill:none;stroke:#030303;stroke-width:0.21170001"
         inkscape:connector-curvature="0" />
      <path
         id="path6524"
         d="m 0.007833,-10.128517 0,1.5900015"
         style="fill:none;stroke:#030303;stroke-width:0.2832"
         inkscape:connector-curvature="0" />
    </g>
    <path
       id="path6526"
       inkscape:connector-curvature="0"
       style="fill:none;stroke:#000000;stroke-width:0.09990668"
       d="m 88.75,40.45 c -2.622019,0 -4.754697,2.123364 -4.754697,4.745368 0,2.143796 1.426195,3.960351 3.377601,4.54998 l 0,2.679746 2.642536,0 0,-2.651834 c 2.003484,-0.55658 3.479956,-2.397067 3.479956,-4.577892 C 93.495396,42.573364 91.372027,40.45 88.75,40.45 z" />
    <g
       id="g6528"
       style="fill:none;stroke:#000000;stroke-width:0.237;stroke-miterlimit:4;stroke-opacity:1;stroke-dasharray:none"
       transform="translate(88.75,45.2)">
      <path
         id="path6530"
         style="fill:none;stroke:#030303;stroke-width:0.1411"
         d="M -4.2037748,7.5814929 C -6.8346316,6.1114925 -8.6120123,3.3014922 -8.6120123,0.07148931 c 0,-4.75000381 3.8628404,-8.61000481 8.6282233,-8.61000481 4.764047,0 8.627555,3.8600011 8.627555,8.61000481 0,3.23000299 -1.780051,6.04000329 -4.414579,7.52000359"
         inkscape:connector-curvature="0" />
      <path
         id="path6532"
         d="m -2.440413,-9.0485165 0.216323,0.810001"
         style="fill:none;stroke:#030303;stroke-width:0.21170001"
         inkscape:connector-curvature="0" />
      <path
         id="path6534"
         d="m -5.1129926,-8.7785155 0.8080822,1.4000001"
         style="fill:none;stroke:#030303;stroke-width:0.2832"
         inkscape:connector-curvature="0" />
      <path
         id="path6536"
         d="m -6.6800914,-6.5985155 0.5891225,0.59"
         style="fill:none;stroke:#030303;stroke-width:0.21170001"
         inkscape:connector-curvature="0" />
      <path
         id="path6538"
         d="m -8.8466601,-5.0285155 1.3848552,0.8000013"
         style="fill:none;stroke:#030303;stroke-width:0.2832"
         inkscape:connector-curvature="0" />
      <path
         id="path6540"
         d="m -9.1267017,-2.3685125 0.8044106,0.2200004"
         style="fill:none;stroke:#030303;stroke-width:0.21170001"
         inkscape:connector-curvature="0" />
      <path
         id="path6542"
         d="m -10.221501,0.08148931 1.6061507,0"
         style="fill:none;stroke:#030303;stroke-width:0.2832"
         inkscape:connector-curvature="0" />
      <path
         id="path6544"
         d="M -9.1243652,2.5214918 -8.3199546,2.3014913"
         style="fill:none;stroke:#030303;stroke-width:0.21170001"
         inkscape:connector-curvature="0" />
      <path
         id="path6546"
         d="M -8.8489964,5.181492 -7.4574658,4.3814921"
         style="fill:none;stroke:#030303;stroke-width:0.2832"
         inkscape:connector-curvature="0" />
      <path
         id="path6548"
         d="m -6.6737496,6.7514925 0.5877873,-0.59"
         style="fill:none;stroke:#030303;stroke-width:0.21170001"
         inkscape:connector-curvature="0" />
      <path
         id="path6550"
         d="m -5.0742739,8.871494 0.776373,-1.3400011"
         style="fill:none;stroke:#030303;stroke-width:0.2832"
         inkscape:connector-curvature="0" />
      <path
         id="path6552"
         d="M 5.113671,8.8814939 4.329988,7.5214929"
         style="fill:none;stroke:#030303;stroke-width:0.2832"
         inkscape:connector-curvature="0" />
      <path
         id="path6554"
         d="m 6.704836,6.7414925 -0.588789,-0.58"
         style="fill:none;stroke:#030303;stroke-width:0.21170001"
         inkscape:connector-curvature="0" />
      <path
         id="path6556"
         d="m 8.846371,5.1614921 -1.360155,-0.79"
         style="fill:none;stroke:#030303;stroke-width:0.2832"
         inkscape:connector-curvature="0" />
      <path
         id="path6558"
         d="M 9.151112,2.5114918 8.347402,2.2914913"
         style="fill:none;stroke:#030303;stroke-width:0.21170001"
         inkscape:connector-curvature="0" />
      <path
         id="path6560"
         d="m 10.195511,0.07148931 -1.555417,0"
         style="fill:none;stroke:#030303;stroke-width:0.2832"
         inkscape:connector-curvature="0" />
      <path
         id="path6562"
         d="M 9.148809,-2.3785126 8.344698,-2.1585121"
         style="fill:none;stroke:#030303;stroke-width:0.21170001"
         inkscape:connector-curvature="0" />
      <path
         id="path6564"
         d="M 8.836691,-5.0185155 7.482544,-4.2385142"
         style="fill:none;stroke:#030303;stroke-width:0.2832"
         inkscape:connector-curvature="0" />
      <path
         id="path6566"
         d="m 6.699128,-6.6085155 -0.588421,0.59"
         style="fill:none;stroke:#030303;stroke-width:0.21170001"
         inkscape:connector-curvature="0" />
      <path
         id="path6568"
         d="m 5.131729,-8.7785155 -0.80875,1.39"
         style="fill:none;stroke:#030303;stroke-width:0.2832"
         inkscape:connector-curvature="0" />
      <path
         id="path6570"
         d="m 2.456813,-9.0485165 -0.215288,0.800001"
         style="fill:none;stroke:#030303;stroke-width:0.21170001"
         inkscape:connector-curvature="0" />
      <path
         id="path6572"
         d="m 0.007833,-10.128517 0,1.5900015"
         style="fill:none;stroke:#030303;stroke-width:0.2832"
         inkscape:connector-curvature="0" />
    </g>
    <circle
       id="circle6574"
       r="3.5"
       cy="68.059998"
       cx="50.650002"
       sodipodi:cx="50.650002"
       sodipodi:cy="68.059998"
       sodipodi:rx="3.5"
       sodipodi:ry="3.5"
       d="m 54.150002,68.059998 c 0,1.932996 -1.567004,3.5 -3.5,3.5 -1.932997,0 -3.5,-1.567004 -3.5,-3.5 0,-1.932997 1.567003,-3.5 3.5,-3.5 1.932996,0 3.5,1.567003 3.5,3.5 z" />
    <rect
       id="rect6576"
       height="11"
       width="12"
       y="75.894997"
       x="44.650002" />
    <circle
       id="circle6578"
       r="3.25"
       cy="94.730003"
       cx="10.01"
       sodipodi:cx="10.01"
       sodipodi:cy="94.730003"
       sodipodi:rx="3.25"
       sodipodi:ry="3.25"
       d="m 13.26,94.730003 c 0,1.794926 -1.455074,3.25 -3.25,3.25 -1.7949252,0 -3.2499998,-1.455074 -3.2499998,-3.25 0,-1.794925 1.4550746,-3.25 3.2499998,-3.25 1.794926,0 3.25,1.455075 3.25,3.25 z" />
    <circle
       id="circle6580"
       r="3.25"
       cy="94.730003"
       cx="31.6"
       sodipodi:cx="31.6"
       sodipodi:cy="94.730003"
       sodipodi:rx="3.25"
       sodipodi:ry="3.25"
       d="m 34.85,94.730003 c 0,1.794926 -1.455074,3.25 -3.25,3.25 -1.794925,0 -3.25,-1.455074 -3.25,-3.25 0,-1.794925 1.455075,-3.25 3.25,-3.25 1.794926,0 3.25,1.455075 3.25,3.25 z" />
    <circle
       id="circle6582"
       r="3.25"
       cy="94.730003"
       cx="44.299999"
       sodipodi:cx="44.299999"
       sodipodi:cy="94.730003"
       sodipodi:rx="3.25"
       sodipodi:ry="3.25"
       d="m 47.549999,94.730003 c 0,1.794926 -1.455074,3.25 -3.25,3.25 -1.794925,0 -3.25,-1.455074 -3.25,-3.25 0,-1.794925 1.455075,-3.25 3.25,-3.25 1.794926,0 3.25,1.455075 3.25,3.25 z" />
    <circle
       id="circle6584"
       r="3.25"
       cy="94.730003"
       cx="57"
       sodipodi:cx="57"
       sodipodi:cy="94.730003"
       sodipodi:rx="3.25"
       sodipodi:ry="3.25"
       d="m 60.25,94.730003 c 0,1.794926 -1.455075,3.25 -3.25,3.25 -1.794925,0 -3.25,-1.455074 -3.25,-3.25 0,-1.794925 1.455075,-3.25 3.25,-3.25 1.794925,0 3.25,1.455075 3.25,3.25 z" />
    <circle
       id="circle6586"
       r="3.25"
       cy="94.730003"
       cx="69.699997"
       sodipodi:cx="69.699997"
       sodipodi:cy="94.730003"
       sodipodi:rx="3.25"
       sodipodi:ry="3.25"
       d="m 72.949997,94.730003 c 0,1.794926 -1.455075,3.25 -3.25,3.25 -1.794925,0 -3.25,-1.455074 -3.25,-3.25 0,-1.794925 1.455075,-3.25 3.25,-3.25 1.794925,0 3.25,1.455075 3.25,3.25 z" />
    <circle
       id="circle6588"
       r="3.25"
       cy="94.730003"
       cx="91.290001"
       sodipodi:cx="91.290001"
       sodipodi:cy="94.730003"
       sodipodi:rx="3.25"
       sodipodi:ry="3.25"
       d="m 94.540001,94.730003 c 0,1.794926 -1.455075,3.25 -3.25,3.25 -1.794926,0 -3.25,-1.455074 -3.25,-3.25 0,-1.794925 1.455074,-3.25 3.25,-3.25 1.794925,0 3.25,1.455075 3.25,3.25 z" />
    <circle
       id="circle6590"
       r="3.25"
       cy="107.43"
       cx="10.01"
       sodipodi:cx="10.01"
       sodipodi:cy="107.43"
       sodipodi:rx="3.25"
       sodipodi:ry="3.25"
       d="m 13.26,107.43 c 0,1.79493 -1.455074,3.25 -3.25,3.25 -1.7949252,0 -3.2499998,-1.45507 -3.2499998,-3.25 0,-1.79493 1.4550746,-3.25 3.2499998,-3.25 1.794926,0 3.25,1.45507 3.25,3.25 z" />
    <circle
       id="circle6592"
       r="3.25"
       cy="107.43"
       cx="37.950001"
       sodipodi:cx="37.950001"
       sodipodi:cy="107.43"
       sodipodi:rx="3.25"
       sodipodi:ry="3.25"
       d="m 41.200001,107.43 c 0,1.79493 -1.455075,3.25 -3.25,3.25 -1.794926,0 -3.25,-1.45507 -3.25,-3.25 0,-1.79493 1.455074,-3.25 3.25,-3.25 1.794925,0 3.25,1.45507 3.25,3.25 z" />
    <circle
       id="circle6594"
       r="3.25"
       cy="107.43"
       cx="50.650002"
       sodipodi:cx="50.650002"
       sodipodi:cy="107.43"
       sodipodi:rx="3.25"
       sodipodi:ry="3.25"
       d="m 53.900002,107.43 c 0,1.79493 -1.455075,3.25 -3.25,3.25 -1.794926,0 -3.25,-1.45507 -3.25,-3.25 0,-1.79493 1.455074,-3.25 3.25,-3.25 1.794925,0 3.25,1.45507 3.25,3.25 z" />
    <circle
       id="circle6596"
       r="3.25"
       cy="107.43"
       cx="63.349998"
       sodipodi:cx="63.349998"
       sodipodi:cy="107.43"
       sodipodi:rx="3.25"
       sodipodi:ry="3.25"
       d="m 66.599998,107.43 c 0,1.79493 -1.455074,3.25 -3.25,3.25 -1.794925,0 -3.25,-1.45507 -3.25,-3.25 0,-1.79493 1.455075,-3.25 3.25,-3.25 1.794926,0 3.25,1.45507 3.25,3.25 z" />
    <circle
       id="circle6598"
       r="3.25"
       cy="107.43"
       cx="91.290001"
       sodipodi:cx="91.290001"
       sodipodi:cy="107.43"
       sodipodi:rx="3.25"
       sodipodi:ry="3.25"
       d="m 94.540001,107.43 c 0,1.79493 -1.455075,3.25 -3.25,3.25 -1.794926,0 -3.25,-1.45507 -3.25,-3.25 0,-1.79493 1.455074,-3.25 3.25,-3.25 1.794925,0 3.25,1.45507 3.25,3.25 z" />
  </g>
</svg>
