  0
SECTION
  2
HEADER
  9
$ACADVER
  1
AC1009
  9
$EXTMIN
 10
0.0
 20
0.0
 30
0.0
  9
$EXTMAX
 10
1000.0
 20
1000.0
 30
0.0
  9
$FILLMODE
 70
 0
  9
$SPLFRAME
 70
 1
  0
ENDSEC
  0
SECTION
  2
TABLES
  0
TABLE
  2
LAYER
 70
1
  0
LAYER
  2
0
 70
     0
 62
     7
  6
CONTINUOUS
  0
ENDTAB
  0
ENDSEC
  0
SECTION
  2
ENTITIES
  0
LINE
  8
0
 62
     0
 10
0.0620116
 20
128.563
 30
0.0
 11
101.363
 21
128.563
 31
0.0
  0
LINE
  8
0
 62
     0
 10
101.363
 20
128.563
 30
0.0
 11
101.363
 21
0.0620116
 31
0.0
  0
LINE
  8
0
 62
     0
 10
101.363
 20
0.0620116
 30
0.0
 11
0.0620116
 21
0.0620116
 31
0.0
  0
LINE
  8
0
 62
     0
 10
0.0620116
 20
0.0620116
 30
0.0
 11
0.0620116
 21
128.563
 31
0.0
  0
LINE
  8
0
 62
     0
 10
9.16259
 20
125.563
 30
0.0
 11
9.0358
 21
124.94
 31
0.0
  0
LINE
  8
0
 62
     0
 10
9.0358
 20
124.94
 30
0.0
 11
8.69266
 21
124.431
 31
0.0
  0
LINE
  8
0
 62
     0
 10
8.69266
 20
124.431
 30
0.0
 11
8.18416
 21
124.09
 31
0.0
  0
LINE
  8
0
 62
     0
 10
8.18416
 20
124.09
 30
0.0
 11
7.56267
 21
123.963
 31
0.0
  0
LINE
  8
0
 62
     0
 10
7.56267
 20
123.963
 30
0.0
 11
6.93981
 21
124.09
 31
0.0
  0
LINE
  8
0
 62
     0
 10
6.93981
 20
124.09
 30
0.0
 11
6.43132
 21
124.431
 31
0.0
  0
LINE
  8
0
 62
     0
 10
6.43132
 20
124.431
 30
0.0
 11
6.08817
 21
124.94
 31
0.0
  0
LINE
  8
0
 62
     0
 10
6.08817
 20
124.94
 30
0.0
 11
5.96276
 21
125.563
 31
0.0
  0
LINE
  8
0
 62
     0
 10
5.96276
 20
125.563
 30
0.0
 11
6.08817
 21
126.185
 31
0.0
  0
LINE
  8
0
 62
     0
 10
6.08817
 20
126.185
 30
0.0
 11
6.43132
 21
126.694
 31
0.0
  0
LINE
  8
0
 62
     0
 10
6.43132
 20
126.694
 30
0.0
 11
6.93981
 21
127.037
 31
0.0
  0
LINE
  8
0
 62
     0
 10
6.93981
 20
127.037
 30
0.0
 11
7.56267
 21
127.163
 31
0.0
  0
LINE
  8
0
 62
     0
 10
7.56267
 20
127.163
 30
0.0
 11
8.18416
 21
127.037
 31
0.0
  0
LINE
  8
0
 62
     0
 10
8.18416
 20
127.037
 30
0.0
 11
8.69266
 21
126.694
 31
0.0
  0
LINE
  8
0
 62
     0
 10
8.69266
 20
126.694
 30
0.0
 11
9.0358
 21
126.185
 31
0.0
  0
LINE
  8
0
 62
     0
 10
9.0358
 20
126.185
 30
0.0
 11
9.16259
 21
125.563
 31
0.0
  0
LINE
  8
0
 62
     0
 10
9.16259
 20
3.062
 30
0.0
 11
9.0358
 21
2.44051
 31
0.0
  0
LINE
  8
0
 62
     0
 10
9.0358
 20
2.44051
 30
0.0
 11
8.69266
 21
1.93201
 31
0.0
  0
LINE
  8
0
 62
     0
 10
8.69266
 20
1.93201
 30
0.0
 11
8.18416
 21
1.58888
 31
0.0
  0
LINE
  8
0
 62
     0
 10
8.18416
 20
1.58888
 30
0.0
 11
7.56267
 21
1.4621
 31
0.0
  0
LINE
  8
0
 62
     0
 10
7.56267
 20
1.4621
 30
0.0
 11
6.93981
 21
1.58888
 31
0.0
  0
LINE
  8
0
 62
     0
 10
6.93981
 20
1.58888
 30
0.0
 11
6.43132
 21
1.93201
 31
0.0
  0
LINE
  8
0
 62
     0
 10
6.43132
 20
1.93201
 30
0.0
 11
6.08817
 21
2.44051
 31
0.0
  0
LINE
  8
0
 62
     0
 10
6.08817
 20
2.44051
 30
0.0
 11
5.96276
 21
3.062
 31
0.0
  0
LINE
  8
0
 62
     0
 10
5.96276
 20
3.062
 30
0.0
 11
6.08817
 21
3.68487
 31
0.0
  0
LINE
  8
0
 62
     0
 10
6.08817
 20
3.68487
 30
0.0
 11
6.43132
 21
4.19336
 31
0.0
  0
LINE
  8
0
 62
     0
 10
6.43132
 20
4.19336
 30
0.0
 11
6.93981
 21
4.53651
 31
0.0
  0
LINE
  8
0
 62
     0
 10
6.93981
 20
4.53651
 30
0.0
 11
7.56267
 21
4.66189
 31
0.0
  0
LINE
  8
0
 62
     0
 10
7.56267
 20
4.66189
 30
0.0
 11
8.18416
 21
4.53651
 31
0.0
  0
LINE
  8
0
 62
     0
 10
8.18416
 20
4.53651
 30
0.0
 11
8.69266
 21
4.19336
 31
0.0
  0
LINE
  8
0
 62
     0
 10
8.69266
 20
4.19336
 30
0.0
 11
9.0358
 21
3.68487
 31
0.0
  0
LINE
  8
0
 62
     0
 10
9.0358
 20
3.68487
 30
0.0
 11
9.16259
 21
3.062
 31
0.0
  0
LINE
  8
0
 62
     0
 10
95.5227
 20
125.563
 30
0.0
 11
95.3961
 21
124.94
 31
0.0
  0
LINE
  8
0
 62
     0
 10
95.3961
 20
124.94
 30
0.0
 11
95.0528
 21
124.431
 31
0.0
  0
LINE
  8
0
 62
     0
 10
95.0528
 20
124.431
 30
0.0
 11
94.5444
 21
124.09
 31
0.0
  0
LINE
  8
0
 62
     0
 10
94.5444
 20
124.09
 30
0.0
 11
93.9229
 21
123.963
 31
0.0
  0
LINE
  8
0
 62
     0
 10
93.9229
 20
123.963
 30
0.0
 11
93.2988
 21
124.09
 31
0.0
  0
LINE
  8
0
 62
     0
 10
93.2988
 20
124.09
 30
0.0
 11
92.7901
 21
124.431
 31
0.0
  0
LINE
  8
0
 62
     0
 10
92.7901
 20
124.431
 30
0.0
 11
92.4486
 21
124.94
 31
0.0
  0
LINE
  8
0
 62
     0
 10
92.4486
 20
124.94
 30
0.0
 11
92.323
 21
125.563
 31
0.0
  0
LINE
  8
0
 62
     0
 10
92.323
 20
125.563
 30
0.0
 11
92.4486
 21
126.185
 31
0.0
  0
LINE
  8
0
 62
     0
 10
92.4486
 20
126.185
 30
0.0
 11
92.7901
 21
126.694
 31
0.0
  0
LINE
  8
0
 62
     0
 10
92.7901
 20
126.694
 30
0.0
 11
93.2988
 21
127.037
 31
0.0
  0
LINE
  8
0
 62
     0
 10
93.2988
 20
127.037
 30
0.0
 11
93.9229
 21
127.163
 31
0.0
  0
LINE
  8
0
 62
     0
 10
93.9229
 20
127.163
 30
0.0
 11
94.5444
 21
127.037
 31
0.0
  0
LINE
  8
0
 62
     0
 10
94.5444
 20
127.037
 30
0.0
 11
95.0528
 21
126.694
 31
0.0
  0
LINE
  8
0
 62
     0
 10
95.0528
 20
126.694
 30
0.0
 11
95.3961
 21
126.185
 31
0.0
  0
LINE
  8
0
 62
     0
 10
95.3961
 20
126.185
 30
0.0
 11
95.5227
 21
125.563
 31
0.0
  0
LINE
  8
0
 62
     0
 10
95.5227
 20
3.062
 30
0.0
 11
95.3961
 21
2.44051
 31
0.0
  0
LINE
  8
0
 62
     0
 10
95.3961
 20
2.44051
 30
0.0
 11
95.0528
 21
1.93201
 31
0.0
  0
LINE
  8
0
 62
     0
 10
95.0528
 20
1.93201
 30
0.0
 11
94.5444
 21
1.58888
 31
0.0
  0
LINE
  8
0
 62
     0
 10
94.5444
 20
1.58888
 30
0.0
 11
93.9229
 21
1.4621
 31
0.0
  0
LINE
  8
0
 62
     0
 10
93.9229
 20
1.4621
 30
0.0
 11
93.2988
 21
1.58888
 31
0.0
  0
LINE
  8
0
 62
     0
 10
93.2988
 20
1.58888
 30
0.0
 11
92.7901
 21
1.93201
 31
0.0
  0
LINE
  8
0
 62
     0
 10
92.7901
 20
1.93201
 30
0.0
 11
92.4486
 21
2.44051
 31
0.0
  0
LINE
  8
0
 62
     0
 10
92.4486
 20
2.44051
 30
0.0
 11
92.323
 21
3.062
 31
0.0
  0
LINE
  8
0
 62
     0
 10
92.323
 20
3.062
 30
0.0
 11
92.4486
 21
3.68487
 31
0.0
  0
LINE
  8
0
 62
     0
 10
92.4486
 20
3.68487
 30
0.0
 11
92.7901
 21
4.19336
 31
0.0
  0
LINE
  8
0
 62
     0
 10
92.7901
 20
4.19336
 30
0.0
 11
93.2988
 21
4.53651
 31
0.0
  0
LINE
  8
0
 62
     0
 10
93.2988
 20
4.53651
 30
0.0
 11
93.9229
 21
4.66189
 31
0.0
  0
LINE
  8
0
 62
     0
 10
93.9229
 20
4.66189
 30
0.0
 11
94.5444
 21
4.53651
 31
0.0
  0
LINE
  8
0
 62
     0
 10
94.5444
 20
4.53651
 30
0.0
 11
95.0528
 21
4.19336
 31
0.0
  0
LINE
  8
0
 62
     0
 10
95.0528
 20
4.19336
 30
0.0
 11
95.3961
 21
3.68487
 31
0.0
  0
LINE
  8
0
 62
     0
 10
95.3961
 20
3.68487
 30
0.0
 11
95.5227
 21
3.062
 31
0.0
  0
LINE
  8
0
 62
     0
 10
12.6132
 20
113.512
 30
0.0
 11
11.6555
 21
113.417
 31
0.0
  0
LINE
  8
0
 62
     0
 10
11.6555
 20
113.417
 30
0.0
 11
10.7625
 21
113.14
 31
0.0
  0
LINE
  8
0
 62
     0
 10
10.7625
 20
113.14
 30
0.0
 11
9.95497
 21
112.703
 31
0.0
  0
LINE
  8
0
 62
     0
 10
9.95497
 20
112.703
 30
0.0
 11
9.25079
 21
112.123
 31
0.0
  0
LINE
  8
0
 62
     0
 10
9.25079
 20
112.123
 30
0.0
 11
8.67061
 21
111.421
 31
0.0
  0
LINE
  8
0
 62
     0
 10
8.67061
 20
111.421
 30
0.0
 11
8.23101
 21
110.615
 31
0.0
  0
LINE
  8
0
 62
     0
 10
8.23101
 20
110.615
 30
0.0
 11
7.95405
 21
109.725
 31
0.0
  0
LINE
  8
0
 62
     0
 10
7.95405
 20
109.725
 30
0.0
 11
7.85756
 21
108.767
 31
0.0
  0
LINE
  8
0
 62
     0
 10
7.85756
 20
108.767
 30
0.0
 11
8.10976
 21
107.235
 31
0.0
  0
LINE
  8
0
 62
     0
 10
8.10976
 20
107.235
 30
0.0
 11
8.81394
 21
105.909
 31
0.0
  0
LINE
  8
0
 62
     0
 10
8.81394
 20
105.909
 30
0.0
 11
9.88328
 21
104.876
 31
0.0
  0
LINE
  8
0
 62
     0
 10
9.88328
 20
104.876
 30
0.0
 11
11.2352
 21
104.217
 31
0.0
  0
LINE
  8
0
 62
     0
 10
11.2352
 20
104.217
 30
0.0
 11
11.2352
 21
102.19
 31
0.0
  0
LINE
  8
0
 62
     0
 10
11.2352
 20
102.19
 30
0.0
 11
13.8782
 21
102.19
 31
0.0
  0
LINE
  8
0
 62
     0
 10
13.8782
 20
102.19
 30
0.0
 11
13.8782
 21
104.189
 31
0.0
  0
LINE
  8
0
 62
     0
 10
13.8782
 20
104.189
 30
0.0
 11
15.2659
 21
104.833
 31
0.0
  0
LINE
  8
0
 62
     0
 10
15.2659
 20
104.833
 30
0.0
 11
16.3683
 21
105.869
 31
0.0
  0
LINE
  8
0
 62
     0
 10
16.3683
 20
105.869
 30
0.0
 11
17.0946
 21
107.21
 31
0.0
  0
LINE
  8
0
 62
     0
 10
17.0946
 20
107.21
 30
0.0
 11
17.3578
 21
108.767
 31
0.0
  0
LINE
  8
0
 62
     0
 10
17.3578
 20
108.767
 30
0.0
 11
17.2613
 21
109.725
 31
0.0
  0
LINE
  8
0
 62
     0
 10
17.2613
 20
109.725
 30
0.0
 11
16.9843
 21
110.615
 31
0.0
  0
LINE
  8
0
 62
     0
 10
16.9843
 20
110.615
 30
0.0
 11
16.5475
 21
111.421
 31
0.0
  0
LINE
  8
0
 62
     0
 10
16.5475
 20
111.421
 30
0.0
 11
15.9673
 21
112.123
 31
0.0
  0
LINE
  8
0
 62
     0
 10
15.9673
 20
112.123
 30
0.0
 11
15.2659
 21
112.703
 31
0.0
  0
LINE
  8
0
 62
     0
 10
15.2659
 20
112.703
 30
0.0
 11
14.4598
 21
113.14
 31
0.0
  0
LINE
  8
0
 62
     0
 10
14.4598
 20
113.14
 30
0.0
 11
13.5695
 21
113.417
 31
0.0
  0
LINE
  8
0
 62
     0
 10
13.5695
 20
113.417
 30
0.0
 11
12.6132
 21
113.512
 31
0.0
  0
LINE
  8
0
 62
     0
 10
38.0132
 20
113.512
 30
0.0
 11
37.0554
 21
113.417
 31
0.0
  0
LINE
  8
0
 62
     0
 10
37.0554
 20
113.417
 30
0.0
 11
36.1625
 21
113.14
 31
0.0
  0
LINE
  8
0
 62
     0
 10
36.1625
 20
113.14
 30
0.0
 11
35.355
 21
112.703
 31
0.0
  0
LINE
  8
0
 62
     0
 10
35.355
 20
112.703
 30
0.0
 11
34.6508
 21
112.123
 31
0.0
  0
LINE
  8
0
 62
     0
 10
34.6508
 20
112.123
 30
0.0
 11
34.0706
 21
111.421
 31
0.0
  0
LINE
  8
0
 62
     0
 10
34.0706
 20
111.421
 30
0.0
 11
33.631
 21
110.615
 31
0.0
  0
LINE
  8
0
 62
     0
 10
33.631
 20
110.615
 30
0.0
 11
33.354
 21
109.725
 31
0.0
  0
LINE
  8
0
 62
     0
 10
33.354
 20
109.725
 30
0.0
 11
33.2576
 21
108.767
 31
0.0
  0
LINE
  8
0
 62
     0
 10
33.2576
 20
108.767
 30
0.0
 11
33.5098
 21
107.235
 31
0.0
  0
LINE
  8
0
 62
     0
 10
33.5098
 20
107.235
 30
0.0
 11
34.2139
 21
105.909
 31
0.0
  0
LINE
  8
0
 62
     0
 10
34.2139
 20
105.909
 30
0.0
 11
35.2834
 21
104.876
 31
0.0
  0
LINE
  8
0
 62
     0
 10
35.2834
 20
104.876
 30
0.0
 11
36.6353
 21
104.217
 31
0.0
  0
LINE
  8
0
 62
     0
 10
36.6353
 20
104.217
 30
0.0
 11
36.6353
 21
102.19
 31
0.0
  0
LINE
  8
0
 62
     0
 10
36.6353
 20
102.19
 30
0.0
 11
39.2783
 21
102.19
 31
0.0
  0
LINE
  8
0
 62
     0
 10
39.2783
 20
102.19
 30
0.0
 11
39.2783
 21
104.189
 31
0.0
  0
LINE
  8
0
 62
     0
 10
39.2783
 20
104.189
 30
0.0
 11
40.6658
 21
104.833
 31
0.0
  0
LINE
  8
0
 62
     0
 10
40.6658
 20
104.833
 30
0.0
 11
41.7682
 21
105.869
 31
0.0
  0
LINE
  8
0
 62
     0
 10
41.7682
 20
105.869
 30
0.0
 11
42.4946
 21
107.21
 31
0.0
  0
LINE
  8
0
 62
     0
 10
42.4946
 20
107.21
 30
0.0
 11
42.7577
 21
108.767
 31
0.0
  0
LINE
  8
0
 62
     0
 10
42.7577
 20
108.767
 30
0.0
 11
42.6614
 21
109.725
 31
0.0
  0
LINE
  8
0
 62
     0
 10
42.6614
 20
109.725
 30
0.0
 11
42.3845
 21
110.615
 31
0.0
  0
LINE
  8
0
 62
     0
 10
42.3845
 20
110.615
 30
0.0
 11
41.9474
 21
111.421
 31
0.0
  0
LINE
  8
0
 62
     0
 10
41.9474
 20
111.421
 30
0.0
 11
41.3674
 21
112.123
 31
0.0
  0
LINE
  8
0
 62
     0
 10
41.3674
 20
112.123
 30
0.0
 11
40.6658
 21
112.703
 31
0.0
  0
LINE
  8
0
 62
     0
 10
40.6658
 20
112.703
 30
0.0
 11
39.8597
 21
113.14
 31
0.0
  0
LINE
  8
0
 62
     0
 10
39.8597
 20
113.14
 30
0.0
 11
38.9696
 21
113.417
 31
0.0
  0
LINE
  8
0
 62
     0
 10
38.9696
 20
113.417
 30
0.0
 11
38.0132
 21
113.512
 31
0.0
  0
LINE
  8
0
 62
     0
 10
63.4132
 20
113.512
 30
0.0
 11
62.4554
 21
113.417
 31
0.0
  0
LINE
  8
0
 62
     0
 10
62.4554
 20
113.417
 30
0.0
 11
61.5625
 21
113.14
 31
0.0
  0
LINE
  8
0
 62
     0
 10
61.5625
 20
113.14
 30
0.0
 11
60.755
 21
112.703
 31
0.0
  0
LINE
  8
0
 62
     0
 10
60.755
 20
112.703
 30
0.0
 11
60.0509
 21
112.123
 31
0.0
  0
LINE
  8
0
 62
     0
 10
60.0509
 20
112.123
 30
0.0
 11
59.4706
 21
111.421
 31
0.0
  0
LINE
  8
0
 62
     0
 10
59.4706
 20
111.421
 30
0.0
 11
59.031
 21
110.615
 31
0.0
  0
LINE
  8
0
 62
     0
 10
59.031
 20
110.615
 30
0.0
 11
58.7541
 21
109.725
 31
0.0
  0
LINE
  8
0
 62
     0
 10
58.7541
 20
109.725
 30
0.0
 11
58.6574
 21
108.767
 31
0.0
  0
LINE
  8
0
 62
     0
 10
58.6574
 20
108.767
 30
0.0
 11
58.9097
 21
107.235
 31
0.0
  0
LINE
  8
0
 62
     0
 10
58.9097
 20
107.235
 30
0.0
 11
59.6138
 21
105.909
 31
0.0
  0
LINE
  8
0
 62
     0
 10
59.6138
 20
105.909
 30
0.0
 11
60.6834
 21
104.876
 31
0.0
  0
LINE
  8
0
 62
     0
 10
60.6834
 20
104.876
 30
0.0
 11
62.0353
 21
104.217
 31
0.0
  0
LINE
  8
0
 62
     0
 10
62.0353
 20
104.217
 30
0.0
 11
62.0353
 21
102.19
 31
0.0
  0
LINE
  8
0
 62
     0
 10
62.0353
 20
102.19
 30
0.0
 11
64.6783
 21
102.19
 31
0.0
  0
LINE
  8
0
 62
     0
 10
64.6783
 20
102.19
 30
0.0
 11
64.6783
 21
104.189
 31
0.0
  0
LINE
  8
0
 62
     0
 10
64.6783
 20
104.189
 30
0.0
 11
66.0658
 21
104.833
 31
0.0
  0
LINE
  8
0
 62
     0
 10
66.0658
 20
104.833
 30
0.0
 11
67.1682
 21
105.869
 31
0.0
  0
LINE
  8
0
 62
     0
 10
67.1682
 20
105.869
 30
0.0
 11
67.8946
 21
107.21
 31
0.0
  0
LINE
  8
0
 62
     0
 10
67.8946
 20
107.21
 30
0.0
 11
68.1577
 21
108.767
 31
0.0
  0
LINE
  8
0
 62
     0
 10
68.1577
 20
108.767
 30
0.0
 11
68.0614
 21
109.725
 31
0.0
  0
LINE
  8
0
 62
     0
 10
68.0614
 20
109.725
 30
0.0
 11
67.7845
 21
110.615
 31
0.0
  0
LINE
  8
0
 62
     0
 10
67.7845
 20
110.615
 30
0.0
 11
67.3474
 21
111.421
 31
0.0
  0
LINE
  8
0
 62
     0
 10
67.3474
 20
111.421
 30
0.0
 11
66.7674
 21
112.123
 31
0.0
  0
LINE
  8
0
 62
     0
 10
66.7674
 20
112.123
 30
0.0
 11
66.0658
 21
112.703
 31
0.0
  0
LINE
  8
0
 62
     0
 10
66.0658
 20
112.703
 30
0.0
 11
65.2597
 21
113.14
 31
0.0
  0
LINE
  8
0
 62
     0
 10
65.2597
 20
113.14
 30
0.0
 11
64.3696
 21
113.417
 31
0.0
  0
LINE
  8
0
 62
     0
 10
64.3696
 20
113.417
 30
0.0
 11
63.4132
 21
113.512
 31
0.0
  0
LINE
  8
0
 62
     0
 10
88.8132
 20
113.512
 30
0.0
 11
87.8554
 21
113.417
 31
0.0
  0
LINE
  8
0
 62
     0
 10
87.8554
 20
113.417
 30
0.0
 11
86.9625
 21
113.14
 31
0.0
  0
LINE
  8
0
 62
     0
 10
86.9625
 20
113.14
 30
0.0
 11
86.155
 21
112.703
 31
0.0
  0
LINE
  8
0
 62
     0
 10
86.155
 20
112.703
 30
0.0
 11
85.4509
 21
112.123
 31
0.0
  0
LINE
  8
0
 62
     0
 10
85.4509
 20
112.123
 30
0.0
 11
84.8706
 21
111.421
 31
0.0
  0
LINE
  8
0
 62
     0
 10
84.8706
 20
111.421
 30
0.0
 11
84.431
 21
110.615
 31
0.0
  0
LINE
  8
0
 62
     0
 10
84.431
 20
110.615
 30
0.0
 11
84.1541
 21
109.725
 31
0.0
  0
LINE
  8
0
 62
     0
 10
84.1541
 20
109.725
 30
0.0
 11
84.0574
 21
108.767
 31
0.0
  0
LINE
  8
0
 62
     0
 10
84.0574
 20
108.767
 30
0.0
 11
84.3097
 21
107.235
 31
0.0
  0
LINE
  8
0
 62
     0
 10
84.3097
 20
107.235
 30
0.0
 11
85.0138
 21
105.909
 31
0.0
  0
LINE
  8
0
 62
     0
 10
85.0138
 20
105.909
 30
0.0
 11
86.0834
 21
104.876
 31
0.0
  0
LINE
  8
0
 62
     0
 10
86.0834
 20
104.876
 30
0.0
 11
87.4353
 21
104.217
 31
0.0
  0
LINE
  8
0
 62
     0
 10
87.4353
 20
104.217
 30
0.0
 11
87.4353
 21
102.19
 31
0.0
  0
LINE
  8
0
 62
     0
 10
87.4353
 20
102.19
 30
0.0
 11
90.0783
 21
102.19
 31
0.0
  0
LINE
  8
0
 62
     0
 10
90.0783
 20
102.19
 30
0.0
 11
90.0783
 21
104.189
 31
0.0
  0
LINE
  8
0
 62
     0
 10
90.0783
 20
104.189
 30
0.0
 11
91.4658
 21
104.833
 31
0.0
  0
LINE
  8
0
 62
     0
 10
91.4658
 20
104.833
 30
0.0
 11
92.5682
 21
105.869
 31
0.0
  0
LINE
  8
0
 62
     0
 10
92.5682
 20
105.869
 30
0.0
 11
93.2946
 21
107.21
 31
0.0
  0
LINE
  8
0
 62
     0
 10
93.2946
 20
107.21
 30
0.0
 11
93.5577
 21
108.767
 31
0.0
  0
LINE
  8
0
 62
     0
 10
93.5577
 20
108.767
 30
0.0
 11
93.4614
 21
109.725
 31
0.0
  0
LINE
  8
0
 62
     0
 10
93.4614
 20
109.725
 30
0.0
 11
93.1845
 21
110.615
 31
0.0
  0
LINE
  8
0
 62
     0
 10
93.1845
 20
110.615
 30
0.0
 11
92.7474
 21
111.421
 31
0.0
  0
LINE
  8
0
 62
     0
 10
92.7474
 20
111.421
 30
0.0
 11
92.1674
 21
112.123
 31
0.0
  0
LINE
  8
0
 62
     0
 10
92.1674
 20
112.123
 30
0.0
 11
91.4658
 21
112.703
 31
0.0
  0
LINE
  8
0
 62
     0
 10
91.4658
 20
112.703
 30
0.0
 11
90.6597
 21
113.14
 31
0.0
  0
LINE
  8
0
 62
     0
 10
90.6597
 20
113.14
 30
0.0
 11
89.7696
 21
113.417
 31
0.0
  0
LINE
  8
0
 62
     0
 10
89.7696
 20
113.417
 30
0.0
 11
88.8132
 21
113.512
 31
0.0
  0
LINE
  8
0
 62
     0
 10
12.6132
 20
88.1119
 30
0.0
 11
11.6555
 21
88.0166
 31
0.0
  0
LINE
  8
0
 62
     0
 10
11.6555
 20
88.0166
 30
0.0
 11
10.7625
 21
87.7397
 31
0.0
  0
LINE
  8
0
 62
     0
 10
10.7625
 20
87.7397
 30
0.0
 11
9.95497
 21
87.303
 31
0.0
  0
LINE
  8
0
 62
     0
 10
9.95497
 20
87.303
 30
0.0
 11
9.25079
 21
86.7227
 31
0.0
  0
LINE
  8
0
 62
     0
 10
9.25079
 20
86.7227
 30
0.0
 11
8.67061
 21
86.0213
 31
0.0
  0
LINE
  8
0
 62
     0
 10
8.67061
 20
86.0213
 30
0.0
 11
8.23101
 21
85.2152
 31
0.0
  0
LINE
  8
0
 62
     0
 10
8.23101
 20
85.2152
 30
0.0
 11
7.95405
 21
84.3248
 31
0.0
  0
LINE
  8
0
 62
     0
 10
7.95405
 20
84.3248
 30
0.0
 11
7.85756
 21
83.367
 31
0.0
  0
LINE
  8
0
 62
     0
 10
7.85756
 20
83.367
 30
0.0
 11
8.10976
 21
81.8349
 31
0.0
  0
LINE
  8
0
 62
     0
 10
8.10976
 20
81.8349
 30
0.0
 11
8.81394
 21
80.5092
 31
0.0
  0
LINE
  8
0
 62
     0
 10
8.81394
 20
80.5092
 30
0.0
 11
9.88328
 21
79.4755
 31
0.0
  0
LINE
  8
0
 62
     0
 10
9.88328
 20
79.4755
 30
0.0
 11
11.2352
 21
78.8169
 31
0.0
  0
LINE
  8
0
 62
     0
 10
11.2352
 20
78.8169
 30
0.0
 11
11.2352
 21
76.7898
 31
0.0
  0
LINE
  8
0
 62
     0
 10
11.2352
 20
76.7898
 30
0.0
 11
13.8782
 21
76.7898
 31
0.0
  0
LINE
  8
0
 62
     0
 10
13.8782
 20
76.7898
 30
0.0
 11
13.8782
 21
78.7894
 31
0.0
  0
LINE
  8
0
 62
     0
 10
13.8782
 20
78.7894
 30
0.0
 11
15.2659
 21
79.4329
 31
0.0
  0
LINE
  8
0
 62
     0
 10
15.2659
 20
79.4329
 30
0.0
 11
16.3683
 21
80.4693
 31
0.0
  0
LINE
  8
0
 62
     0
 10
16.3683
 20
80.4693
 30
0.0
 11
17.0946
 21
81.8099
 31
0.0
  0
LINE
  8
0
 62
     0
 10
17.0946
 20
81.8099
 30
0.0
 11
17.3578
 21
83.367
 31
0.0
  0
LINE
  8
0
 62
     0
 10
17.3578
 20
83.367
 30
0.0
 11
17.2613
 21
84.3248
 31
0.0
  0
LINE
  8
0
 62
     0
 10
17.2613
 20
84.3248
 30
0.0
 11
16.9843
 21
85.2152
 31
0.0
  0
LINE
  8
0
 62
     0
 10
16.9843
 20
85.2152
 30
0.0
 11
16.5475
 21
86.0213
 31
0.0
  0
LINE
  8
0
 62
     0
 10
16.5475
 20
86.0213
 30
0.0
 11
15.9673
 21
86.7227
 31
0.0
  0
LINE
  8
0
 62
     0
 10
15.9673
 20
86.7227
 30
0.0
 11
15.2659
 21
87.303
 31
0.0
  0
LINE
  8
0
 62
     0
 10
15.2659
 20
87.303
 30
0.0
 11
14.4598
 21
87.7397
 31
0.0
  0
LINE
  8
0
 62
     0
 10
14.4598
 20
87.7397
 30
0.0
 11
13.5695
 21
88.0166
 31
0.0
  0
LINE
  8
0
 62
     0
 10
13.5695
 20
88.0166
 30
0.0
 11
12.6132
 21
88.1119
 31
0.0
  0
LINE
  8
0
 62
     0
 10
38.0132
 20
88.1119
 30
0.0
 11
37.0554
 21
88.0166
 31
0.0
  0
LINE
  8
0
 62
     0
 10
37.0554
 20
88.0166
 30
0.0
 11
36.1625
 21
87.7397
 31
0.0
  0
LINE
  8
0
 62
     0
 10
36.1625
 20
87.7397
 30
0.0
 11
35.355
 21
87.303
 31
0.0
  0
LINE
  8
0
 62
     0
 10
35.355
 20
87.303
 30
0.0
 11
34.6508
 21
86.7227
 31
0.0
  0
LINE
  8
0
 62
     0
 10
34.6508
 20
86.7227
 30
0.0
 11
34.0706
 21
86.0213
 31
0.0
  0
LINE
  8
0
 62
     0
 10
34.0706
 20
86.0213
 30
0.0
 11
33.631
 21
85.2152
 31
0.0
  0
LINE
  8
0
 62
     0
 10
33.631
 20
85.2152
 30
0.0
 11
33.354
 21
84.3248
 31
0.0
  0
LINE
  8
0
 62
     0
 10
33.354
 20
84.3248
 30
0.0
 11
33.2576
 21
83.367
 31
0.0
  0
LINE
  8
0
 62
     0
 10
33.2576
 20
83.367
 30
0.0
 11
33.5098
 21
81.8349
 31
0.0
  0
LINE
  8
0
 62
     0
 10
33.5098
 20
81.8349
 30
0.0
 11
34.2139
 21
80.5092
 31
0.0
  0
LINE
  8
0
 62
     0
 10
34.2139
 20
80.5092
 30
0.0
 11
35.2834
 21
79.4755
 31
0.0
  0
LINE
  8
0
 62
     0
 10
35.2834
 20
79.4755
 30
0.0
 11
36.6353
 21
78.8169
 31
0.0
  0
LINE
  8
0
 62
     0
 10
36.6353
 20
78.8169
 30
0.0
 11
36.6353
 21
76.7898
 31
0.0
  0
LINE
  8
0
 62
     0
 10
36.6353
 20
76.7898
 30
0.0
 11
39.2783
 21
76.7898
 31
0.0
  0
LINE
  8
0
 62
     0
 10
39.2783
 20
76.7898
 30
0.0
 11
39.2783
 21
78.7894
 31
0.0
  0
LINE
  8
0
 62
     0
 10
39.2783
 20
78.7894
 30
0.0
 11
40.6658
 21
79.4329
 31
0.0
  0
LINE
  8
0
 62
     0
 10
40.6658
 20
79.4329
 30
0.0
 11
41.7682
 21
80.4693
 31
0.0
  0
LINE
  8
0
 62
     0
 10
41.7682
 20
80.4693
 30
0.0
 11
42.4946
 21
81.8099
 31
0.0
  0
LINE
  8
0
 62
     0
 10
42.4946
 20
81.8099
 30
0.0
 11
42.7577
 21
83.367
 31
0.0
  0
LINE
  8
0
 62
     0
 10
42.7577
 20
83.367
 30
0.0
 11
42.6614
 21
84.3248
 31
0.0
  0
LINE
  8
0
 62
     0
 10
42.6614
 20
84.3248
 30
0.0
 11
42.3845
 21
85.2152
 31
0.0
  0
LINE
  8
0
 62
     0
 10
42.3845
 20
85.2152
 30
0.0
 11
41.9474
 21
86.0213
 31
0.0
  0
LINE
  8
0
 62
     0
 10
41.9474
 20
86.0213
 30
0.0
 11
41.3674
 21
86.7227
 31
0.0
  0
LINE
  8
0
 62
     0
 10
41.3674
 20
86.7227
 30
0.0
 11
40.6658
 21
87.303
 31
0.0
  0
LINE
  8
0
 62
     0
 10
40.6658
 20
87.303
 30
0.0
 11
39.8597
 21
87.7397
 31
0.0
  0
LINE
  8
0
 62
     0
 10
39.8597
 20
87.7397
 30
0.0
 11
38.9696
 21
88.0166
 31
0.0
  0
LINE
  8
0
 62
     0
 10
38.9696
 20
88.0166
 30
0.0
 11
38.0132
 21
88.1119
 31
0.0
  0
LINE
  8
0
 62
     0
 10
63.4132
 20
88.1119
 30
0.0
 11
62.4554
 21
88.0166
 31
0.0
  0
LINE
  8
0
 62
     0
 10
62.4554
 20
88.0166
 30
0.0
 11
61.5625
 21
87.7397
 31
0.0
  0
LINE
  8
0
 62
     0
 10
61.5625
 20
87.7397
 30
0.0
 11
60.755
 21
87.303
 31
0.0
  0
LINE
  8
0
 62
     0
 10
60.755
 20
87.303
 30
0.0
 11
60.0509
 21
86.7227
 31
0.0
  0
LINE
  8
0
 62
     0
 10
60.0509
 20
86.7227
 30
0.0
 11
59.4706
 21
86.0213
 31
0.0
  0
LINE
  8
0
 62
     0
 10
59.4706
 20
86.0213
 30
0.0
 11
59.031
 21
85.2152
 31
0.0
  0
LINE
  8
0
 62
     0
 10
59.031
 20
85.2152
 30
0.0
 11
58.7541
 21
84.3248
 31
0.0
  0
LINE
  8
0
 62
     0
 10
58.7541
 20
84.3248
 30
0.0
 11
58.6574
 21
83.367
 31
0.0
  0
LINE
  8
0
 62
     0
 10
58.6574
 20
83.367
 30
0.0
 11
58.9097
 21
81.8349
 31
0.0
  0
LINE
  8
0
 62
     0
 10
58.9097
 20
81.8349
 30
0.0
 11
59.6138
 21
80.5092
 31
0.0
  0
LINE
  8
0
 62
     0
 10
59.6138
 20
80.5092
 30
0.0
 11
60.6834
 21
79.4755
 31
0.0
  0
LINE
  8
0
 62
     0
 10
60.6834
 20
79.4755
 30
0.0
 11
62.0353
 21
78.8169
 31
0.0
  0
LINE
  8
0
 62
     0
 10
62.0353
 20
78.8169
 30
0.0
 11
62.0353
 21
76.7898
 31
0.0
  0
LINE
  8
0
 62
     0
 10
62.0353
 20
76.7898
 30
0.0
 11
64.6783
 21
76.7898
 31
0.0
  0
LINE
  8
0
 62
     0
 10
64.6783
 20
76.7898
 30
0.0
 11
64.6783
 21
78.7894
 31
0.0
  0
LINE
  8
0
 62
     0
 10
64.6783
 20
78.7894
 30
0.0
 11
66.0658
 21
79.4329
 31
0.0
  0
LINE
  8
0
 62
     0
 10
66.0658
 20
79.4329
 30
0.0
 11
67.1682
 21
80.4693
 31
0.0
  0
LINE
  8
0
 62
     0
 10
67.1682
 20
80.4693
 30
0.0
 11
67.8946
 21
81.8099
 31
0.0
  0
LINE
  8
0
 62
     0
 10
67.8946
 20
81.8099
 30
0.0
 11
68.1577
 21
83.367
 31
0.0
  0
LINE
  8
0
 62
     0
 10
68.1577
 20
83.367
 30
0.0
 11
68.0614
 21
84.3248
 31
0.0
  0
LINE
  8
0
 62
     0
 10
68.0614
 20
84.3248
 30
0.0
 11
67.7845
 21
85.2152
 31
0.0
  0
LINE
  8
0
 62
     0
 10
67.7845
 20
85.2152
 30
0.0
 11
67.3474
 21
86.0213
 31
0.0
  0
LINE
  8
0
 62
     0
 10
67.3474
 20
86.0213
 30
0.0
 11
66.7674
 21
86.7227
 31
0.0
  0
LINE
  8
0
 62
     0
 10
66.7674
 20
86.7227
 30
0.0
 11
66.0658
 21
87.303
 31
0.0
  0
LINE
  8
0
 62
     0
 10
66.0658
 20
87.303
 30
0.0
 11
65.2597
 21
87.7397
 31
0.0
  0
LINE
  8
0
 62
     0
 10
65.2597
 20
87.7397
 30
0.0
 11
64.3696
 21
88.0166
 31
0.0
  0
LINE
  8
0
 62
     0
 10
64.3696
 20
88.0166
 30
0.0
 11
63.4132
 21
88.1119
 31
0.0
  0
LINE
  8
0
 62
     0
 10
88.8132
 20
88.1119
 30
0.0
 11
87.8554
 21
88.0166
 31
0.0
  0
LINE
  8
0
 62
     0
 10
87.8554
 20
88.0166
 30
0.0
 11
86.9625
 21
87.7397
 31
0.0
  0
LINE
  8
0
 62
     0
 10
86.9625
 20
87.7397
 30
0.0
 11
86.155
 21
87.303
 31
0.0
  0
LINE
  8
0
 62
     0
 10
86.155
 20
87.303
 30
0.0
 11
85.4509
 21
86.7227
 31
0.0
  0
LINE
  8
0
 62
     0
 10
85.4509
 20
86.7227
 30
0.0
 11
84.8706
 21
86.0213
 31
0.0
  0
LINE
  8
0
 62
     0
 10
84.8706
 20
86.0213
 30
0.0
 11
84.431
 21
85.2152
 31
0.0
  0
LINE
  8
0
 62
     0
 10
84.431
 20
85.2152
 30
0.0
 11
84.1541
 21
84.3248
 31
0.0
  0
LINE
  8
0
 62
     0
 10
84.1541
 20
84.3248
 30
0.0
 11
84.0574
 21
83.367
 31
0.0
  0
LINE
  8
0
 62
     0
 10
84.0574
 20
83.367
 30
0.0
 11
84.3097
 21
81.8349
 31
0.0
  0
LINE
  8
0
 62
     0
 10
84.3097
 20
81.8349
 30
0.0
 11
85.0138
 21
80.5092
 31
0.0
  0
LINE
  8
0
 62
     0
 10
85.0138
 20
80.5092
 30
0.0
 11
86.0834
 21
79.4755
 31
0.0
  0
LINE
  8
0
 62
     0
 10
86.0834
 20
79.4755
 30
0.0
 11
87.4353
 21
78.8169
 31
0.0
  0
LINE
  8
0
 62
     0
 10
87.4353
 20
78.8169
 30
0.0
 11
87.4353
 21
76.7898
 31
0.0
  0
LINE
  8
0
 62
     0
 10
87.4353
 20
76.7898
 30
0.0
 11
90.0783
 21
76.7898
 31
0.0
  0
LINE
  8
0
 62
     0
 10
90.0783
 20
76.7898
 30
0.0
 11
90.0783
 21
78.7894
 31
0.0
  0
LINE
  8
0
 62
     0
 10
90.0783
 20
78.7894
 30
0.0
 11
91.4658
 21
79.4329
 31
0.0
  0
LINE
  8
0
 62
     0
 10
91.4658
 20
79.4329
 30
0.0
 11
92.5682
 21
80.4693
 31
0.0
  0
LINE
  8
0
 62
     0
 10
92.5682
 20
80.4693
 30
0.0
 11
93.2946
 21
81.8099
 31
0.0
  0
LINE
  8
0
 62
     0
 10
93.2946
 20
81.8099
 30
0.0
 11
93.5577
 21
83.367
 31
0.0
  0
LINE
  8
0
 62
     0
 10
93.5577
 20
83.367
 30
0.0
 11
93.4614
 21
84.3248
 31
0.0
  0
LINE
  8
0
 62
     0
 10
93.4614
 20
84.3248
 30
0.0
 11
93.1845
 21
85.2152
 31
0.0
  0
LINE
  8
0
 62
     0
 10
93.1845
 20
85.2152
 30
0.0
 11
92.7474
 21
86.0213
 31
0.0
  0
LINE
  8
0
 62
     0
 10
92.7474
 20
86.0213
 30
0.0
 11
92.1674
 21
86.7227
 31
0.0
  0
LINE
  8
0
 62
     0
 10
92.1674
 20
86.7227
 30
0.0
 11
91.4658
 21
87.303
 31
0.0
  0
LINE
  8
0
 62
     0
 10
91.4658
 20
87.303
 30
0.0
 11
90.6597
 21
87.7397
 31
0.0
  0
LINE
  8
0
 62
     0
 10
90.6597
 20
87.7397
 30
0.0
 11
89.7696
 21
88.0166
 31
0.0
  0
LINE
  8
0
 62
     0
 10
89.7696
 20
88.0166
 30
0.0
 11
88.8132
 21
88.1119
 31
0.0
  0
LINE
  8
0
 62
     0
 10
54.2121
 20
57.9617
 30
0.0
 11
53.9365
 21
56.6
 31
0.0
  0
LINE
  8
0
 62
     0
 10
53.9365
 20
56.6
 30
0.0
 11
53.1869
 21
55.4881
 31
0.0
  0
LINE
  8
0
 62
     0
 10
53.1869
 20
55.4881
 30
0.0
 11
52.0746
 21
54.7384
 31
0.0
  0
LINE
  8
0
 62
     0
 10
52.0746
 20
54.7384
 30
0.0
 11
50.7132
 21
54.4629
 31
0.0
  0
LINE
  8
0
 62
     0
 10
50.7132
 20
54.4629
 30
0.0
 11
49.3504
 21
54.7384
 31
0.0
  0
LINE
  8
0
 62
     0
 10
49.3504
 20
54.7384
 30
0.0
 11
48.2367
 21
55.4881
 31
0.0
  0
LINE
  8
0
 62
     0
 10
48.2367
 20
55.4881
 30
0.0
 11
47.4871
 21
56.6
 31
0.0
  0
LINE
  8
0
 62
     0
 10
47.4871
 20
56.6
 30
0.0
 11
47.213
 21
57.9617
 31
0.0
  0
LINE
  8
0
 62
     0
 10
47.213
 20
57.9617
 30
0.0
 11
47.4871
 21
59.3245
 31
0.0
  0
LINE
  8
0
 62
     0
 10
47.4871
 20
59.3245
 30
0.0
 11
48.2367
 21
60.4379
 31
0.0
  0
LINE
  8
0
 62
     0
 10
48.2367
 20
60.4379
 30
0.0
 11
49.3504
 21
61.1875
 31
0.0
  0
LINE
  8
0
 62
     0
 10
49.3504
 20
61.1875
 30
0.0
 11
50.7132
 21
61.462
 31
0.0
  0
LINE
  8
0
 62
     0
 10
50.7132
 20
61.462
 30
0.0
 11
52.0746
 21
61.1875
 31
0.0
  0
LINE
  8
0
 62
     0
 10
52.0746
 20
61.1875
 30
0.0
 11
53.1869
 21
60.4379
 31
0.0
  0
LINE
  8
0
 62
     0
 10
53.1869
 20
60.4379
 30
0.0
 11
53.9365
 21
59.3245
 31
0.0
  0
LINE
  8
0
 62
     0
 10
53.9365
 20
59.3245
 30
0.0
 11
54.2121
 21
57.9617
 31
0.0
  0
LINE
  8
0
 62
     0
 10
44.7118
 20
40.1327
 30
0.0
 11
56.7133
 21
40.1327
 31
0.0
  0
LINE
  8
0
 62
     0
 10
56.7133
 20
40.1327
 30
0.0
 11
56.7133
 21
29.1317
 31
0.0
  0
LINE
  8
0
 62
     0
 10
56.7133
 20
29.1317
 30
0.0
 11
44.7118
 21
29.1317
 31
0.0
  0
LINE
  8
0
 62
     0
 10
44.7118
 20
29.1317
 30
0.0
 11
44.7118
 21
40.1327
 31
0.0
  0
LINE
  8
0
 62
     0
 10
13.3229
 20
33.8322
 30
0.0
 11
13.0666
 21
32.5672
 31
0.0
  0
LINE
  8
0
 62
     0
 10
13.0666
 20
32.5672
 30
0.0
 11
12.3706
 21
31.535
 31
0.0
  0
LINE
  8
0
 62
     0
 10
12.3706
 20
31.535
 30
0.0
 11
11.3371
 21
30.8391
 31
0.0
  0
LINE
  8
0
 62
     0
 10
11.3371
 20
30.8391
 30
0.0
 11
10.0721
 21
30.5828
 31
0.0
  0
LINE
  8
0
 62
     0
 10
10.0721
 20
30.5828
 30
0.0
 11
8.80703
 21
30.8391
 31
0.0
  0
LINE
  8
0
 62
     0
 10
8.80703
 20
30.8391
 30
0.0
 11
7.77353
 21
31.535
 31
0.0
  0
LINE
  8
0
 62
     0
 10
7.77353
 20
31.535
 30
0.0
 11
7.0776
 21
32.5672
 31
0.0
  0
LINE
  8
0
 62
     0
 10
7.0776
 20
32.5672
 30
0.0
 11
6.82265
 21
33.8322
 31
0.0
  0
LINE
  8
0
 62
     0
 10
6.82265
 20
33.8322
 30
0.0
 11
7.0776
 21
35.0986
 31
0.0
  0
LINE
  8
0
 62
     0
 10
7.0776
 20
35.0986
 30
0.0
 11
7.77353
 21
36.1308
 31
0.0
  0
LINE
  8
0
 62
     0
 10
7.77353
 20
36.1308
 30
0.0
 11
8.80703
 21
36.8268
 31
0.0
  0
LINE
  8
0
 62
     0
 10
8.80703
 20
36.8268
 30
0.0
 11
10.0721
 21
37.0815
 31
0.0
  0
LINE
  8
0
 62
     0
 10
10.0721
 20
37.0815
 30
0.0
 11
11.3371
 21
36.8268
 31
0.0
  0
LINE
  8
0
 62
     0
 10
11.3371
 20
36.8268
 30
0.0
 11
12.3706
 21
36.1308
 31
0.0
  0
LINE
  8
0
 62
     0
 10
12.3706
 20
36.1308
 30
0.0
 11
13.0666
 21
35.0986
 31
0.0
  0
LINE
  8
0
 62
     0
 10
13.0666
 20
35.0986
 30
0.0
 11
13.3229
 21
33.8322
 31
0.0
  0
LINE
  8
0
 62
     0
 10
28.5626
 20
33.8322
 30
0.0
 11
28.3063
 21
32.5672
 31
0.0
  0
LINE
  8
0
 62
     0
 10
28.3063
 20
32.5672
 30
0.0
 11
27.6104
 21
31.535
 31
0.0
  0
LINE
  8
0
 62
     0
 10
27.6104
 20
31.535
 30
0.0
 11
26.5768
 21
30.8391
 31
0.0
  0
LINE
  8
0
 62
     0
 10
26.5768
 20
30.8391
 30
0.0
 11
25.3132
 21
30.5828
 31
0.0
  0
LINE
  8
0
 62
     0
 10
25.3132
 20
30.5828
 30
0.0
 11
24.0468
 21
30.8391
 31
0.0
  0
LINE
  8
0
 62
     0
 10
24.0468
 20
30.8391
 30
0.0
 11
23.0132
 21
31.535
 31
0.0
  0
LINE
  8
0
 62
     0
 10
23.0132
 20
31.535
 30
0.0
 11
22.3173
 21
32.5672
 31
0.0
  0
LINE
  8
0
 62
     0
 10
22.3173
 20
32.5672
 30
0.0
 11
22.0624
 21
33.8322
 31
0.0
  0
LINE
  8
0
 62
     0
 10
22.0624
 20
33.8322
 30
0.0
 11
22.3173
 21
35.0986
 31
0.0
  0
LINE
  8
0
 62
     0
 10
22.3173
 20
35.0986
 30
0.0
 11
23.0132
 21
36.1308
 31
0.0
  0
LINE
  8
0
 62
     0
 10
23.0132
 20
36.1308
 30
0.0
 11
24.0468
 21
36.8268
 31
0.0
  0
LINE
  8
0
 62
     0
 10
24.0468
 20
36.8268
 30
0.0
 11
25.3132
 21
37.0815
 31
0.0
  0
LINE
  8
0
 62
     0
 10
25.3132
 20
37.0815
 30
0.0
 11
26.5768
 21
36.8268
 31
0.0
  0
LINE
  8
0
 62
     0
 10
26.5768
 20
36.8268
 30
0.0
 11
27.6104
 21
36.1308
 31
0.0
  0
LINE
  8
0
 62
     0
 10
27.6104
 20
36.1308
 30
0.0
 11
28.3063
 21
35.0986
 31
0.0
  0
LINE
  8
0
 62
     0
 10
28.3063
 20
35.0986
 30
0.0
 11
28.5626
 21
33.8322
 31
0.0
  0
LINE
  8
0
 62
     0
 10
41.2627
 20
33.8322
 30
0.0
 11
41.0062
 21
32.5672
 31
0.0
  0
LINE
  8
0
 62
     0
 10
41.0062
 20
32.5672
 30
0.0
 11
40.3105
 21
31.535
 31
0.0
  0
LINE
  8
0
 62
     0
 10
40.3105
 20
31.535
 30
0.0
 11
39.2769
 21
30.8391
 31
0.0
  0
LINE
  8
0
 62
     0
 10
39.2769
 20
30.8391
 30
0.0
 11
38.0132
 21
30.5828
 31
0.0
  0
LINE
  8
0
 62
     0
 10
38.0132
 20
30.5828
 30
0.0
 11
36.7467
 21
30.8391
 31
0.0
  0
LINE
  8
0
 62
     0
 10
36.7467
 20
30.8391
 30
0.0
 11
35.7131
 21
31.535
 31
0.0
  0
LINE
  8
0
 62
     0
 10
35.7131
 20
31.535
 30
0.0
 11
35.0173
 21
32.5672
 31
0.0
  0
LINE
  8
0
 62
     0
 10
35.0173
 20
32.5672
 30
0.0
 11
34.7624
 21
33.8322
 31
0.0
  0
LINE
  8
0
 62
     0
 10
34.7624
 20
33.8322
 30
0.0
 11
35.0173
 21
35.0986
 31
0.0
  0
LINE
  8
0
 62
     0
 10
35.0173
 20
35.0986
 30
0.0
 11
35.7131
 21
36.1308
 31
0.0
  0
LINE
  8
0
 62
     0
 10
35.7131
 20
36.1308
 30
0.0
 11
36.7467
 21
36.8268
 31
0.0
  0
LINE
  8
0
 62
     0
 10
36.7467
 20
36.8268
 30
0.0
 11
38.0132
 21
37.0815
 31
0.0
  0
LINE
  8
0
 62
     0
 10
38.0132
 20
37.0815
 30
0.0
 11
39.2769
 21
36.8268
 31
0.0
  0
LINE
  8
0
 62
     0
 10
39.2769
 20
36.8268
 30
0.0
 11
40.3105
 21
36.1308
 31
0.0
  0
LINE
  8
0
 62
     0
 10
40.3105
 20
36.1308
 30
0.0
 11
41.0062
 21
35.0986
 31
0.0
  0
LINE
  8
0
 62
     0
 10
41.0062
 20
35.0986
 30
0.0
 11
41.2627
 21
33.8322
 31
0.0
  0
LINE
  8
0
 62
     0
 10
66.6627
 20
33.8322
 30
0.0
 11
66.4062
 21
32.5672
 31
0.0
  0
LINE
  8
0
 62
     0
 10
66.4062
 20
32.5672
 30
0.0
 11
65.7105
 21
31.535
 31
0.0
  0
LINE
  8
0
 62
     0
 10
65.7105
 20
31.535
 30
0.0
 11
64.6769
 21
30.8391
 31
0.0
  0
LINE
  8
0
 62
     0
 10
64.6769
 20
30.8391
 30
0.0
 11
63.4132
 21
30.5828
 31
0.0
  0
LINE
  8
0
 62
     0
 10
63.4132
 20
30.5828
 30
0.0
 11
62.1467
 21
30.8391
 31
0.0
  0
LINE
  8
0
 62
     0
 10
62.1467
 20
30.8391
 30
0.0
 11
61.1131
 21
31.535
 31
0.0
  0
LINE
  8
0
 62
     0
 10
61.1131
 20
31.535
 30
0.0
 11
60.4174
 21
32.5672
 31
0.0
  0
LINE
  8
0
 62
     0
 10
60.4174
 20
32.5672
 30
0.0
 11
60.1624
 21
33.8322
 31
0.0
  0
LINE
  8
0
 62
     0
 10
60.1624
 20
33.8322
 30
0.0
 11
60.4174
 21
35.0986
 31
0.0
  0
LINE
  8
0
 62
     0
 10
60.4174
 20
35.0986
 30
0.0
 11
61.1131
 21
36.1308
 31
0.0
  0
LINE
  8
0
 62
     0
 10
61.1131
 20
36.1308
 30
0.0
 11
62.1467
 21
36.8268
 31
0.0
  0
LINE
  8
0
 62
     0
 10
62.1467
 20
36.8268
 30
0.0
 11
63.4132
 21
37.0815
 31
0.0
  0
LINE
  8
0
 62
     0
 10
63.4132
 20
37.0815
 30
0.0
 11
64.6769
 21
36.8268
 31
0.0
  0
LINE
  8
0
 62
     0
 10
64.6769
 20
36.8268
 30
0.0
 11
65.7105
 21
36.1308
 31
0.0
  0
LINE
  8
0
 62
     0
 10
65.7105
 20
36.1308
 30
0.0
 11
66.4062
 21
35.0986
 31
0.0
  0
LINE
  8
0
 62
     0
 10
66.4062
 20
35.0986
 30
0.0
 11
66.6627
 21
33.8322
 31
0.0
  0
LINE
  8
0
 62
     0
 10
79.3627
 20
33.8322
 30
0.0
 11
79.1062
 21
32.5672
 31
0.0
  0
LINE
  8
0
 62
     0
 10
79.1062
 20
32.5672
 30
0.0
 11
78.4105
 21
31.535
 31
0.0
  0
LINE
  8
0
 62
     0
 10
78.4105
 20
31.535
 30
0.0
 11
77.3769
 21
30.8391
 31
0.0
  0
LINE
  8
0
 62
     0
 10
77.3769
 20
30.8391
 30
0.0
 11
76.1132
 21
30.5828
 31
0.0
  0
LINE
  8
0
 62
     0
 10
76.1132
 20
30.5828
 30
0.0
 11
74.8467
 21
30.8391
 31
0.0
  0
LINE
  8
0
 62
     0
 10
74.8467
 20
30.8391
 30
0.0
 11
73.8131
 21
31.535
 31
0.0
  0
LINE
  8
0
 62
     0
 10
73.8131
 20
31.535
 30
0.0
 11
73.1174
 21
32.5672
 31
0.0
  0
LINE
  8
0
 62
     0
 10
73.1174
 20
32.5672
 30
0.0
 11
72.8624
 21
33.8322
 31
0.0
  0
LINE
  8
0
 62
     0
 10
72.8624
 20
33.8322
 30
0.0
 11
73.1174
 21
35.0986
 31
0.0
  0
LINE
  8
0
 62
     0
 10
73.1174
 20
35.0986
 30
0.0
 11
73.8131
 21
36.1308
 31
0.0
  0
LINE
  8
0
 62
     0
 10
73.8131
 20
36.1308
 30
0.0
 11
74.8467
 21
36.8268
 31
0.0
  0
LINE
  8
0
 62
     0
 10
74.8467
 20
36.8268
 30
0.0
 11
76.1132
 21
37.0815
 31
0.0
  0
LINE
  8
0
 62
     0
 10
76.1132
 20
37.0815
 30
0.0
 11
77.3769
 21
36.8268
 31
0.0
  0
LINE
  8
0
 62
     0
 10
77.3769
 20
36.8268
 30
0.0
 11
78.4105
 21
36.1308
 31
0.0
  0
LINE
  8
0
 62
     0
 10
78.4105
 20
36.1308
 30
0.0
 11
79.1062
 21
35.0986
 31
0.0
  0
LINE
  8
0
 62
     0
 10
79.1062
 20
35.0986
 30
0.0
 11
79.3627
 21
33.8322
 31
0.0
  0
LINE
  8
0
 62
     0
 10
94.6023
 20
33.8322
 30
0.0
 11
94.3462
 21
32.5672
 31
0.0
  0
LINE
  8
0
 62
     0
 10
94.3462
 20
32.5672
 30
0.0
 11
93.6502
 21
31.535
 31
0.0
  0
LINE
  8
0
 62
     0
 10
93.6502
 20
31.535
 30
0.0
 11
92.6165
 21
30.8391
 31
0.0
  0
LINE
  8
0
 62
     0
 10
92.6165
 20
30.8391
 30
0.0
 11
91.3529
 21
30.5828
 31
0.0
  0
LINE
  8
0
 62
     0
 10
91.3529
 20
30.5828
 30
0.0
 11
90.0864
 21
30.8391
 31
0.0
  0
LINE
  8
0
 62
     0
 10
90.0864
 20
30.8391
 30
0.0
 11
89.0531
 21
31.535
 31
0.0
  0
LINE
  8
0
 62
     0
 10
89.0531
 20
31.535
 30
0.0
 11
88.3571
 21
32.5672
 31
0.0
  0
LINE
  8
0
 62
     0
 10
88.3571
 20
32.5672
 30
0.0
 11
88.102
 21
33.8322
 31
0.0
  0
LINE
  8
0
 62
     0
 10
88.102
 20
33.8322
 30
0.0
 11
88.3571
 21
35.0986
 31
0.0
  0
LINE
  8
0
 62
     0
 10
88.3571
 20
35.0986
 30
0.0
 11
89.0531
 21
36.1308
 31
0.0
  0
LINE
  8
0
 62
     0
 10
89.0531
 20
36.1308
 30
0.0
 11
90.0864
 21
36.8268
 31
0.0
  0
LINE
  8
0
 62
     0
 10
90.0864
 20
36.8268
 30
0.0
 11
91.3529
 21
37.0815
 31
0.0
  0
LINE
  8
0
 62
     0
 10
91.3529
 20
37.0815
 30
0.0
 11
92.6165
 21
36.8268
 31
0.0
  0
LINE
  8
0
 62
     0
 10
92.6165
 20
36.8268
 30
0.0
 11
93.6502
 21
36.1308
 31
0.0
  0
LINE
  8
0
 62
     0
 10
93.6502
 20
36.1308
 30
0.0
 11
94.3462
 21
35.0986
 31
0.0
  0
LINE
  8
0
 62
     0
 10
94.3462
 20
35.0986
 30
0.0
 11
94.6023
 21
33.8322
 31
0.0
  0
LINE
  8
0
 62
     0
 10
13.3229
 20
21.1322
 30
0.0
 11
13.0666
 21
19.8672
 31
0.0
  0
LINE
  8
0
 62
     0
 10
13.0666
 20
19.8672
 30
0.0
 11
12.3706
 21
18.835
 31
0.0
  0
LINE
  8
0
 62
     0
 10
12.3706
 20
18.835
 30
0.0
 11
11.3371
 21
18.1391
 31
0.0
  0
LINE
  8
0
 62
     0
 10
11.3371
 20
18.1391
 30
0.0
 11
10.0721
 21
17.8828
 31
0.0
  0
LINE
  8
0
 62
     0
 10
10.0721
 20
17.8828
 30
0.0
 11
8.80703
 21
18.1391
 31
0.0
  0
LINE
  8
0
 62
     0
 10
8.80703
 20
18.1391
 30
0.0
 11
7.77353
 21
18.835
 31
0.0
  0
LINE
  8
0
 62
     0
 10
7.77353
 20
18.835
 30
0.0
 11
7.0776
 21
19.8672
 31
0.0
  0
LINE
  8
0
 62
     0
 10
7.0776
 20
19.8672
 30
0.0
 11
6.82265
 21
21.1322
 31
0.0
  0
LINE
  8
0
 62
     0
 10
6.82265
 20
21.1322
 30
0.0
 11
7.0776
 21
22.3986
 31
0.0
  0
LINE
  8
0
 62
     0
 10
7.0776
 20
22.3986
 30
0.0
 11
7.77353
 21
23.4308
 31
0.0
  0
LINE
  8
0
 62
     0
 10
7.77353
 20
23.4308
 30
0.0
 11
8.80703
 21
24.1267
 31
0.0
  0
LINE
  8
0
 62
     0
 10
8.80703
 20
24.1267
 30
0.0
 11
10.0721
 21
24.3816
 31
0.0
  0
LINE
  8
0
 62
     0
 10
10.0721
 20
24.3816
 30
0.0
 11
11.3371
 21
24.1267
 31
0.0
  0
LINE
  8
0
 62
     0
 10
11.3371
 20
24.1267
 30
0.0
 11
12.3706
 21
23.4308
 31
0.0
  0
LINE
  8
0
 62
     0
 10
12.3706
 20
23.4308
 30
0.0
 11
13.0666
 21
22.3986
 31
0.0
  0
LINE
  8
0
 62
     0
 10
13.0666
 20
22.3986
 30
0.0
 11
13.3229
 21
21.1322
 31
0.0
  0
LINE
  8
0
 62
     0
 10
41.2627
 20
21.1322
 30
0.0
 11
41.0062
 21
19.8672
 31
0.0
  0
LINE
  8
0
 62
     0
 10
41.0062
 20
19.8672
 30
0.0
 11
40.3105
 21
18.835
 31
0.0
  0
LINE
  8
0
 62
     0
 10
40.3105
 20
18.835
 30
0.0
 11
39.2769
 21
18.1391
 31
0.0
  0
LINE
  8
0
 62
     0
 10
39.2769
 20
18.1391
 30
0.0
 11
38.0132
 21
17.8828
 31
0.0
  0
LINE
  8
0
 62
     0
 10
38.0132
 20
17.8828
 30
0.0
 11
36.7467
 21
18.1391
 31
0.0
  0
LINE
  8
0
 62
     0
 10
36.7467
 20
18.1391
 30
0.0
 11
35.7131
 21
18.835
 31
0.0
  0
LINE
  8
0
 62
     0
 10
35.7131
 20
18.835
 30
0.0
 11
35.0173
 21
19.8672
 31
0.0
  0
LINE
  8
0
 62
     0
 10
35.0173
 20
19.8672
 30
0.0
 11
34.7624
 21
21.1322
 31
0.0
  0
LINE
  8
0
 62
     0
 10
34.7624
 20
21.1322
 30
0.0
 11
35.0173
 21
22.3986
 31
0.0
  0
LINE
  8
0
 62
     0
 10
35.0173
 20
22.3986
 30
0.0
 11
35.7131
 21
23.4308
 31
0.0
  0
LINE
  8
0
 62
     0
 10
35.7131
 20
23.4308
 30
0.0
 11
36.7467
 21
24.1267
 31
0.0
  0
LINE
  8
0
 62
     0
 10
36.7467
 20
24.1267
 30
0.0
 11
38.0132
 21
24.3816
 31
0.0
  0
LINE
  8
0
 62
     0
 10
38.0132
 20
24.3816
 30
0.0
 11
39.2769
 21
24.1267
 31
0.0
  0
LINE
  8
0
 62
     0
 10
39.2769
 20
24.1267
 30
0.0
 11
40.3105
 21
23.4308
 31
0.0
  0
LINE
  8
0
 62
     0
 10
40.3105
 20
23.4308
 30
0.0
 11
41.0062
 21
22.3986
 31
0.0
  0
LINE
  8
0
 62
     0
 10
41.0062
 20
22.3986
 30
0.0
 11
41.2627
 21
21.1322
 31
0.0
  0
LINE
  8
0
 62
     0
 10
53.9627
 20
21.1322
 30
0.0
 11
53.7062
 21
19.8672
 31
0.0
  0
LINE
  8
0
 62
     0
 10
53.7062
 20
19.8672
 30
0.0
 11
53.0105
 21
18.835
 31
0.0
  0
LINE
  8
0
 62
     0
 10
53.0105
 20
18.835
 30
0.0
 11
51.9769
 21
18.1391
 31
0.0
  0
LINE
  8
0
 62
     0
 10
51.9769
 20
18.1391
 30
0.0
 11
50.7132
 21
17.8828
 31
0.0
  0
LINE
  8
0
 62
     0
 10
50.7132
 20
17.8828
 30
0.0
 11
49.4467
 21
18.1391
 31
0.0
  0
LINE
  8
0
 62
     0
 10
49.4467
 20
18.1391
 30
0.0
 11
48.4131
 21
18.835
 31
0.0
  0
LINE
  8
0
 62
     0
 10
48.4131
 20
18.835
 30
0.0
 11
47.7174
 21
19.8672
 31
0.0
  0
LINE
  8
0
 62
     0
 10
47.7174
 20
19.8672
 30
0.0
 11
47.4624
 21
21.1322
 31
0.0
  0
LINE
  8
0
 62
     0
 10
47.4624
 20
21.1322
 30
0.0
 11
47.7174
 21
22.3986
 31
0.0
  0
LINE
  8
0
 62
     0
 10
47.7174
 20
22.3986
 30
0.0
 11
48.4131
 21
23.4308
 31
0.0
  0
LINE
  8
0
 62
     0
 10
48.4131
 20
23.4308
 30
0.0
 11
49.4467
 21
24.1267
 31
0.0
  0
LINE
  8
0
 62
     0
 10
49.4467
 20
24.1267
 30
0.0
 11
50.7132
 21
24.3816
 31
0.0
  0
LINE
  8
0
 62
     0
 10
50.7132
 20
24.3816
 30
0.0
 11
51.9769
 21
24.1267
 31
0.0
  0
LINE
  8
0
 62
     0
 10
51.9769
 20
24.1267
 30
0.0
 11
53.0105
 21
23.4308
 31
0.0
  0
LINE
  8
0
 62
     0
 10
53.0105
 20
23.4308
 30
0.0
 11
53.7062
 21
22.3986
 31
0.0
  0
LINE
  8
0
 62
     0
 10
53.7062
 20
22.3986
 30
0.0
 11
53.9627
 21
21.1322
 31
0.0
  0
LINE
  8
0
 62
     0
 10
66.6627
 20
21.1322
 30
0.0
 11
66.4062
 21
19.8672
 31
0.0
  0
LINE
  8
0
 62
     0
 10
66.4062
 20
19.8672
 30
0.0
 11
65.7105
 21
18.835
 31
0.0
  0
LINE
  8
0
 62
     0
 10
65.7105
 20
18.835
 30
0.0
 11
64.6769
 21
18.1391
 31
0.0
  0
LINE
  8
0
 62
     0
 10
64.6769
 20
18.1391
 30
0.0
 11
63.4132
 21
17.8828
 31
0.0
  0
LINE
  8
0
 62
     0
 10
63.4132
 20
17.8828
 30
0.0
 11
62.1467
 21
18.1391
 31
0.0
  0
LINE
  8
0
 62
     0
 10
62.1467
 20
18.1391
 30
0.0
 11
61.1131
 21
18.835
 31
0.0
  0
LINE
  8
0
 62
     0
 10
61.1131
 20
18.835
 30
0.0
 11
60.4174
 21
19.8672
 31
0.0
  0
LINE
  8
0
 62
     0
 10
60.4174
 20
19.8672
 30
0.0
 11
60.1624
 21
21.1322
 31
0.0
  0
LINE
  8
0
 62
     0
 10
60.1624
 20
21.1322
 30
0.0
 11
60.4174
 21
22.3986
 31
0.0
  0
LINE
  8
0
 62
     0
 10
60.4174
 20
22.3986
 30
0.0
 11
61.1131
 21
23.4308
 31
0.0
  0
LINE
  8
0
 62
     0
 10
61.1131
 20
23.4308
 30
0.0
 11
62.1467
 21
24.1267
 31
0.0
  0
LINE
  8
0
 62
     0
 10
62.1467
 20
24.1267
 30
0.0
 11
63.4132
 21
24.3816
 31
0.0
  0
LINE
  8
0
 62
     0
 10
63.4132
 20
24.3816
 30
0.0
 11
64.6769
 21
24.1267
 31
0.0
  0
LINE
  8
0
 62
     0
 10
64.6769
 20
24.1267
 30
0.0
 11
65.7105
 21
23.4308
 31
0.0
  0
LINE
  8
0
 62
     0
 10
65.7105
 20
23.4308
 30
0.0
 11
66.4062
 21
22.3986
 31
0.0
  0
LINE
  8
0
 62
     0
 10
66.4062
 20
22.3986
 30
0.0
 11
66.6627
 21
21.1322
 31
0.0
  0
LINE
  8
0
 62
     0
 10
94.6023
 20
21.1322
 30
0.0
 11
94.3462
 21
19.8672
 31
0.0
  0
LINE
  8
0
 62
     0
 10
94.3462
 20
19.8672
 30
0.0
 11
93.6502
 21
18.835
 31
0.0
  0
LINE
  8
0
 62
     0
 10
93.6502
 20
18.835
 30
0.0
 11
92.6165
 21
18.1391
 31
0.0
  0
LINE
  8
0
 62
     0
 10
92.6165
 20
18.1391
 30
0.0
 11
91.3529
 21
17.8828
 31
0.0
  0
LINE
  8
0
 62
     0
 10
91.3529
 20
17.8828
 30
0.0
 11
90.0864
 21
18.1391
 31
0.0
  0
LINE
  8
0
 62
     0
 10
90.0864
 20
18.1391
 30
0.0
 11
89.0531
 21
18.835
 31
0.0
  0
LINE
  8
0
 62
     0
 10
89.0531
 20
18.835
 30
0.0
 11
88.3571
 21
19.8672
 31
0.0
  0
LINE
  8
0
 62
     0
 10
88.3571
 20
19.8672
 30
0.0
 11
88.102
 21
21.1322
 31
0.0
  0
LINE
  8
0
 62
     0
 10
88.102
 20
21.1322
 30
0.0
 11
88.3571
 21
22.3986
 31
0.0
  0
LINE
  8
0
 62
     0
 10
88.3571
 20
22.3986
 30
0.0
 11
89.0531
 21
23.4308
 31
0.0
  0
LINE
  8
0
 62
     0
 10
89.0531
 20
23.4308
 30
0.0
 11
90.0864
 21
24.1267
 31
0.0
  0
LINE
  8
0
 62
     0
 10
90.0864
 20
24.1267
 30
0.0
 11
91.3529
 21
24.3816
 31
0.0
  0
LINE
  8
0
 62
     0
 10
91.3529
 20
24.3816
 30
0.0
 11
92.6165
 21
24.1267
 31
0.0
  0
LINE
  8
0
 62
     0
 10
92.6165
 20
24.1267
 30
0.0
 11
93.6502
 21
23.4308
 31
0.0
  0
LINE
  8
0
 62
     0
 10
93.6502
 20
23.4308
 30
0.0
 11
94.3462
 21
22.3986
 31
0.0
  0
LINE
  8
0
 62
     0
 10
94.3462
 20
22.3986
 30
0.0
 11
94.6023
 21
21.1322
 31
0.0
  0
ENDSEC
  0
EOF
