<?xml version="1.0" encoding="UTF-8" standalone="no"?>
<svg
   xmlns:dc="http://purl.org/dc/elements/1.1/"
   xmlns:cc="http://creativecommons.org/ns#"
   xmlns:rdf="http://www.w3.org/1999/02/22-rdf-syntax-ns#"
   xmlns:svg="http://www.w3.org/2000/svg"
   xmlns="http://www.w3.org/2000/svg"
   xmlns:xlink="http://www.w3.org/1999/xlink"
   xmlns:sodipodi="http://sodipodi.sourceforge.net/DTD/sodipodi-0.dtd"
   xmlns:inkscape="http://www.inkscape.org/namespaces/inkscape"
   id="svg4373"
   version="1.1"
   inkscape:version="1.0.2 (e86c870879, 2021-01-15)"
   width="210mm"
   height="297mm"
   xml:space="preserve"
   sodipodi:docname="KlasmataBlackLabels.svg"><sodipodi:namedview
     pagecolor="#ffffff"
     bordercolor="#666666"
     borderopacity="1"
     objecttolerance="10"
     gridtolerance="10"
     guidetolerance="10"
     inkscape:pageopacity="0"
     inkscape:pageshadow="2"
     inkscape:window-width="1920"
     inkscape:window-height="1016"
     id="namedview4375"
     showgrid="false"
     inkscape:zoom="0.76206268"
     inkscape:cx="396.20493"
     inkscape:cy="794.25551"
     inkscape:window-x="0"
     inkscape:window-y="0"
     inkscape:window-maximized="1"
     inkscape:current-layer="g11221"
     inkscape:document-units="mm"
     showguides="false"
     inkscape:guide-bbox="true"
     units="mm"
     inkscape:document-rotation="0" /><metadata
     id="metadata4379"><rdf:RDF><cc:Work
         rdf:about=""><dc:format>image/svg+xml</dc:format><dc:type
           rdf:resource="http://purl.org/dc/dcmitype/StillImage" /><dc:title /></cc:Work></rdf:RDF></metadata><defs
     id="defs4377"><clipPath
       id="clipPath4387"
       clipPathUnits="userSpaceOnUse"><path
         id="path4389"
         d="M 0,0 H 595.276 V 841.89 H 0 Z"
         inkscape:connector-curvature="0" /></clipPath><clipPath
       id="clipPath4421"
       clipPathUnits="userSpaceOnUse"><path
         id="path4423"
         d="M 0,0 H 595.276 V 841.89 H 0 Z"
         inkscape:connector-curvature="0" /></clipPath><clipPath
       id="clipPath4443"
       clipPathUnits="userSpaceOnUse"><path
         id="path4445"
         d="M 0,0 H 595.276 V 841.89 H 0 Z"
         inkscape:connector-curvature="0" /></clipPath><clipPath
       id="clipPath7941"
       clipPathUnits="userSpaceOnUse"><path
         id="path7943"
         d="M 0,0 H 595.276 V 841.89 H 0 Z"
         inkscape:connector-curvature="0" /></clipPath><clipPath
       id="clipPath7975"
       clipPathUnits="userSpaceOnUse"><path
         id="path7977"
         d="M 0,0 H 595.276 V 841.89 H 0 Z"
         inkscape:connector-curvature="0" /></clipPath><clipPath
       id="clipPath7997"
       clipPathUnits="userSpaceOnUse"><path
         id="path7999"
         d="M 0,0 H 595.276 V 841.89 H 0 Z"
         inkscape:connector-curvature="0" /></clipPath></defs><g
     transform="matrix(1.25,0,0,-1.25,0,1122.5196)"
     inkscape:label="Label Planet LP21 70 Portrait"
     inkscape:groupmode="layer"
     id="g4381"
     style="display:inline"><g
       inkscape:tile-y0="912.55037"
       inkscape:tile-x0="22.281616"
       inkscape:tile-h="129.62935"
       inkscape:tile-w="203.15552"
       inkscape:tile-cy="977.36505"
       inkscape:tile-cx="123.85937"
       transform="matrix(1.0000045,0,0,1,0.22200192,-721.66836)"
       id="g4685"><g
         transform="matrix(0.68631727,0,0,-0.68631727,-29.93227,885.93549)"
         style="font-style:normal;font-variant:normal;font-weight:normal;font-stretch:normal;font-size:40px;line-height:125%;font-family:'More than human';-inkscape-font-specification:'More than human';text-align:start;letter-spacing:0px;word-spacing:0px;writing-mode:lr-tb;text-anchor:start;fill:#000000;fill-opacity:1;stroke:none"
         id="flowRoot2985"><path
           inkscape:connector-curvature="0"
           d="m 79.5375,81.455617 h -2.55 v 9.21 l 2.55,-1.29 v -7.92 m 1.2,-1.2 v 9.87 l -4.95,2.49 v -12.36 h 4.95 m -7.5,19.920003 -0.63,5.76 -0.57,-5.76 V 76.505617 h 12.45 v 15.93 l -2.97,1.5 2.97,1.56 v 4.680003 l -0.63,5.76 -0.57,-5.76 v -3.960003 l -4.38,-2.31 4.38,-2.19 v -14.01 h -10.05 v 22.470003 m 3.75,0 -0.63,5.76 -0.57,-5.76 v -4.890003 l 4.95,2.58 v 2.310003 l -0.63,5.76 -0.57,-5.76 v -1.590003 l -2.52,-1.32 v 2.910003 h -0.03"
           style="font-size:30px;line-height:125%;font-family:'More than human';-inkscape-font-specification:'More than human'"
           id="path3134" /><path
           inkscape:connector-curvature="0"
           d="m 100.13203,102.57562 -0.629999,5.76 -0.57,-5.76 v -6.120003 h -7.5 v -4.98 h 7.5 v -2.52 h -7.5 v -8.73 h 4.95 v 3.75 h 2.55 v -6.27 h -10.05 v 23.070003 l -0.63,5.76 -0.57,-5.76 V 76.505617 h 12.449999 v 8.67 h -4.949999 v -3.75 h -2.55 v 6.33 h 7.499999 v 4.92 h -7.499999 v 2.58 h 7.499999 v 7.320003"
           style="font-size:30px;line-height:125%;font-family:'More than human';-inkscape-font-specification:'More than human'"
           id="path3136" /><path
           inkscape:connector-curvature="0"
           d="m 110.70937,81.455617 h -2.55 v 5.46 l 2.55,-1.29 v -4.17 m 1.2,-1.2 v 6.12 l -4.95,2.49 v -8.61 h 4.95 m -1.2,14.55 -2.55,-1.29 v 1.71 h 2.55 v -0.42 m 1.2,-0.75 v 2.37 h -4.95 v -4.86 l 4.95,2.49 m 3.75,5.82 -0.62999,5.760003 -0.57001,-5.760003 v -7.41 l -4.37999,-2.31 4.37999,-2.19 v -10.26 h -10.05 v 24.570003 l -0.62999,5.76 -0.57001,-5.76 V 76.505617 h 12.45 v 12.18 l -2.97,1.5 2.97,1.56 v 8.13"
           style="font-size:30px;line-height:125%;font-family:'More than human';-inkscape-font-specification:'More than human'"
           id="path3139" /><path
           inkscape:connector-curvature="0"
           d="m 131.30391,102.57562 -0.63,5.76 -0.57,-5.76 v -6.120003 h -7.5 v -4.98 h 7.5 v -2.52 h -7.5 v -8.73 h 4.95 v 3.75 h 2.55 v -6.27 h -10.05 v 23.070003 l -0.63,5.76 -0.57,-5.76 V 76.505617 h 12.45 v 8.67 h -4.95 v -3.75 h -2.55 v 6.33 h 7.5 v 4.92 h -7.5 v 2.58 h 7.5 v 7.320003"
           style="font-size:30px;line-height:125%;font-family:'More than human';-inkscape-font-specification:'More than human'"
           id="path3141" /><path
           inkscape:connector-curvature="0"
           d="m 143.08125,99.575617 -0.63,5.760003 -0.57,-5.760003 v -3.12 h -3.75 v -18.75 h -2.55 v 24.570003 l -0.63,5.76 -0.57,-5.76 V 76.505617 h 4.95 v 18.75 h 3.75 v 4.32"
           style="font-size:30px;line-height:125%;font-family:'More than human';-inkscape-font-specification:'More than human'"
           id="path3143" /><path
           inkscape:connector-curvature="0"
           d="m 169.38984,100.17562 -0.63,5.76 -0.57,-5.76 V 80.225617 h 3.75 v -2.52 h -10.05 v 2.52 h 3.75 v 19.950003 l -0.63,5.76 -0.57,-5.76 V 81.425617 h -3.75 v -4.92 h 12.45 v 4.92 h -3.75 v 18.750003"
           style="font-size:30px;line-height:125%;font-family:'More than human';-inkscape-font-specification:'More than human'"
           id="path3145" /><path
           inkscape:connector-curvature="0"
           d="m 188.37422,102.57562 -0.63,5.76 -0.57,-5.76 v -6.120003 h -7.5 v -4.98 h 7.5 v -2.52 h -7.5 v -8.73 h 4.95 v 3.75 h 2.55 v -6.27 h -10.05 v 23.070003 l -0.63,5.76 -0.57,-5.76 V 76.505617 h 12.45 v 8.67 h -4.95 v -3.75 h -2.55 v 6.33 h 7.5 v 4.92 h -7.5 v 2.58 h 7.5 v 7.320003"
           style="font-size:30px;line-height:125%;font-family:'More than human';-inkscape-font-specification:'More than human'"
           id="path3147" /><path
           inkscape:connector-curvature="0"
           d="m 203.90156,102.27562 -0.63,5.76 -0.57,-5.76 v -9.570003 h -2.55 v 3.75 h -4.95 v -16.23 h 4.95 v 3.75 h 2.55 v -6.27 h -10.05 v 22.17 l -0.63,5.760003 -0.57,-5.760003 v -23.37 h 12.45 v 8.67 h -4.95 v -3.75 h -2.55 v 13.83 h 2.55 v -3.75 h 4.95 v 10.770003"
           style="font-size:30px;line-height:125%;font-family:'More than human';-inkscape-font-specification:'More than human'"
           id="path3149" /><path
           inkscape:connector-curvature="0"
           d="m 219.37031,100.77562 -0.63,5.76 -0.57,-5.76 V 77.705617 h -2.55 v 15 h -4.95 v -15 h -2.55 v 22.17 l -0.63,5.760003 -0.57,-5.760003 v -23.37 h 4.95 v 15 h 2.55 v -15 h 4.95 v 24.270003 m -3.75,-1.500003 -0.63,5.760003 -0.57,-5.760003 v -2.85 h -2.55 v 7.050003 l -0.63,5.76 -0.57,-5.76 v -8.250003 h 4.95 v 4.05"
           style="font-size:30px;line-height:125%;font-family:'More than human';-inkscape-font-specification:'More than human'"
           id="path3151" /><path
           inkscape:connector-curvature="0"
           d="m 231.44484,100.17562 -0.63,5.76 -0.57,-5.76 -2.7,-7.890003 v 7.29 l -0.63,5.760003 -0.57,-5.760003 h -0.03 l 0.03,-14.43 5.1,15.030003 m 3.57,0.9 -0.63,5.76 -0.57,-5.76 V 77.705617 h -2.58 v 13.83 l -4.77,-13.83 h -2.7 v 25.770003 l -0.63,5.76 -0.57,-5.76 V 76.505617 h 4.77 l 2.7,7.89 v -7.89 h 4.98 v 24.570003"
           style="font-size:30px;line-height:125%;font-family:'More than human';-inkscape-font-specification:'More than human'"
           id="path3153" /><path
           inkscape:connector-curvature="0"
           d="m 245.70937,81.455617 h -2.55 v 13.77 h 2.55 v -13.77 m 1.2,-1.2 v 16.17 h -4.95 v -16.17 h 4.95 m 3.75,19.62 -0.63,5.760003 -0.57,-5.760003 v -22.17 h -10.05 v 25.470003 l -0.63,5.76 -0.57,-5.76 V 76.505617 h 12.45 v 23.37"
           style="font-size:30px;line-height:125%;font-family:'More than human';-inkscape-font-specification:'More than human'"
           id="path3155" /><path
           inkscape:connector-curvature="0"
           d="m 262.55391,99.575617 -0.63,5.760003 -0.57,-5.760003 v -3.12 h -3.75 v -18.75 h -2.55 v 24.570003 l -0.63,5.76 -0.57,-5.76 V 76.505617 h 4.95 v 18.75 h 3.75 v 4.32"
           style="font-size:30px;line-height:125%;font-family:'More than human';-inkscape-font-specification:'More than human'"
           id="path3157" /><path
           inkscape:connector-curvature="0"
           d="m 272.6625,81.455617 h -2.55 v 13.77 h 2.55 v -13.77 m 1.2,-1.2 v 16.17 h -4.95 v -16.17 h 4.95 m 3.75,19.62 -0.63,5.760003 -0.57,-5.760003 v -22.17 h -10.05 v 25.470003 l -0.63,5.76 -0.57,-5.76 V 76.505617 h 12.45 v 23.37"
           style="font-size:30px;line-height:125%;font-family:'More than human';-inkscape-font-specification:'More than human'"
           id="path3159" /><path
           inkscape:connector-curvature="0"
           d="m 293.25703,101.97562 -0.63,5.76 -0.57,-5.76 V 88.955617 h -2.55 v 7.5 h -4.95 v -16.23 h 4.95 v 3.75 h 2.55 v -6.27 h -10.05 v 21.87 l -0.63,5.760003 -0.57,-5.760003 v -23.07 h 12.45 v 8.67 h -4.95 v -3.75 h -2.55 v 13.83 h 2.55 v -7.5 h 4.95 v 14.220003"
           style="font-size:30px;line-height:125%;font-family:'More than human';-inkscape-font-specification:'More than human'"
           id="path3161" /><path
           inkscape:connector-curvature="0"
           d="m 308.84297,99.575617 -0.63,5.760003 -0.57,-5.760003 v -21.87 h -2.55 v 11.25 h -4.95 v -11.25 h -2.55 v 13.77 h 7.5 v 4.98 h -7.5 v 7.320003 l -0.63,5.76 -0.57,-5.76 v -8.520003 h 7.5 v -2.58 h -7.5 v -16.17 h 4.95 v 11.25 h 2.55 v -11.25 h 4.95 v 23.07"
           style="font-size:30px;line-height:125%;font-family:'More than human';-inkscape-font-specification:'More than human'"
           id="path3163" /></g><g
         transform="matrix(0.68631727,0,0,-0.68631727,7.5635983,927.12595)"
         style="font-style:normal;font-variant:normal;font-weight:normal;font-stretch:normal;font-size:12px;line-height:125%;font-family:Sans;-inkscape-font-specification:Sans;text-align:start;letter-spacing:0px;word-spacing:0px;writing-mode:lr-tb;text-anchor:start;fill:#000000;fill-opacity:1;stroke:none"
         id="flowRoot3001"><text
   xml:space="preserve"
   style="font-style:normal;font-variant:normal;font-weight:normal;font-stretch:normal;line-height:0%;font-family:sans-serif;-inkscape-font-specification:Sans;text-align:start;letter-spacing:0px;word-spacing:0px;writing-mode:lr-tb;text-anchor:start;fill:#000000;fill-opacity:1;stroke:none"
   x="19.716322"
   y="269.83459"
   id="text6700"><tspan
     sodipodi:role="line"
     id="tspan6702"
     x="19.716322"
     y="269.83459"
     style="font-size:9.94597px;line-height:1.25;font-family:sans-serif">klasmata black</tspan></text>








<text
   id="text3207"
   y="253.66774"
   x="19.716322"
   style="font-style:normal;font-variant:normal;font-weight:normal;font-stretch:normal;line-height:0%;font-family:sans-serif;-inkscape-font-specification:Sans;text-align:start;letter-spacing:0px;word-spacing:0px;writing-mode:lr-tb;text-anchor:start;fill:#000000;fill-opacity:1;stroke:none"
   xml:space="preserve"><tspan
     y="253.66774"
     x="19.716322"
     id="tspan3209"
     sodipodi:role="line"
     style="font-size:9.94597px;line-height:1.25;font-family:sans-serif">Rebel Technology</tspan></text>








<g
   id="barcode1"
   style="fill:#000000"
   transform="translate(158.98433,241.983)"><rect
     x="0"
     y="0"
     id="barcode1_bar1"
     width="1"
     height="24" /><rect
     x="2"
     y="0"
     id="barcode1_bar3"
     width="1"
     height="24" /><rect
     x="6"
     y="0"
     id="barcode1_bar5"
     width="2"
     height="20" /><rect
     x="9"
     y="0"
     id="barcode1_bar7"
     width="1"
     height="20" /><rect
     x="14"
     y="0"
     id="barcode1_bar9"
     width="1"
     height="20" /><rect
     x="16"
     y="0"
     id="barcode1_bar11"
     width="1"
     height="20" /><rect
     x="18"
     y="0"
     id="barcode1_bar13"
     width="1"
     height="20" /><rect
     x="21"
     y="0"
     id="barcode1_bar15"
     width="3"
     height="20" /><rect
     x="25"
     y="0"
     id="barcode1_bar17"
     width="2"
     height="20" /><rect
     x="30"
     y="0"
     id="barcode1_bar19"
     width="1"
     height="20" /><rect
     x="33"
     y="0"
     id="barcode1_bar21"
     width="1"
     height="20" /><rect
     x="36"
     y="0"
     id="barcode1_bar23"
     width="2"
     height="20" /><rect
     x="39"
     y="0"
     id="barcode1_bar25"
     width="1"
     height="20" /><rect
     x="42"
     y="0"
     id="barcode1_bar27"
     width="3"
     height="20" /><rect
     x="46"
     y="0"
     id="barcode1_bar29"
     width="1"
     height="24" /><rect
     x="48"
     y="0"
     id="barcode1_bar31"
     width="1"
     height="24" /><rect
     x="50"
     y="0"
     id="barcode1_bar33"
     width="1"
     height="20" /><rect
     x="55"
     y="0"
     id="barcode1_bar35"
     width="1"
     height="20" /><rect
     x="57"
     y="0"
     id="barcode1_bar37"
     width="2"
     height="20" /><rect
     x="61"
     y="0"
     id="barcode1_bar39"
     width="2"
     height="20" /><rect
     x="64"
     y="0"
     id="barcode1_bar41"
     width="3"
     height="20" /><rect
     x="69"
     y="0"
     id="barcode1_bar43"
     width="1"
     height="20" /><rect
     x="71"
     y="0"
     id="barcode1_bar45"
     width="2"
     height="20" /><rect
     x="74"
     y="0"
     id="barcode1_bar47"
     width="2"
     height="20" /><rect
     x="78"
     y="0"
     id="barcode1_bar49"
     width="1"
     height="20" /><rect
     x="83"
     y="0"
     id="barcode1_bar51"
     width="1"
     height="20" /><rect
     x="85"
     y="0"
     id="barcode1_bar53"
     width="1"
     height="20" /><rect
     x="89"
     y="0"
     id="barcode1_bar55"
     width="1"
     height="20" /><rect
     x="92"
     y="0"
     id="barcode1_bar57"
     width="1"
     height="24" /><rect
     x="94"
     y="0"
     id="barcode1_bar59"
     width="1"
     height="24" /><text
     x="47"
     y="29"
     style="font-size:9px;text-align:center;text-anchor:middle"
     xml:space="preserve"
     id="barcode1_text">5    060520     310237       </text></g></g><g
         id="g11221"
         transform="matrix(1.544467,0,0,-1.5444739,-32.202386,827.63785)"
         style="stroke-width:0.69046164;stroke-miterlimit:4;stroke-dasharray:none;stroke:#000000;stroke-opacity:1;fill:none"><path
           inkscape:connector-curvature="0"
           id="path8013"
           d="m 136.98894,29.588985 c -0.374,-0.004 -0.688,-0.157 -0.849,-0.423 -0.274,-0.436 -1.043,-1.991 -1.464,-2.959 -0.4,-0.938 -0.521,-1.231 -0.69,-1.783 -0.374,-1.227 -0.753,-2.354 -0.824,-2.435 -0.037,-0.047 -0.07,-0.308 -0.072,-0.569 -0.001,-0.264 -0.038,-0.547 -0.09,-0.625 -0.045,-0.078 -0.142,-0.295 -0.213,-0.48 -0.068,-0.188 -0.217,-0.407 -0.33,-0.487 -0.104,-0.079 -0.255,-0.265 -0.325,-0.403 -0.184,-0.355 -0.312,-0.508 -0.439,-0.508 -0.124,0 -0.438,0.271 -0.438,0.383 0,0.036 -0.104,0.313 -0.218,0.614 -0.144,0.362 -0.267,0.562 -0.373,0.614 -0.181,0.077 -0.399,0.477 -0.4,0.729 0,0.161 -0.021,0.204 -0.249,0.658 -0.129,0.258 -0.278,0.679 -0.355,1.016 -0.026,0.108 -0.074,0.18 -0.113,0.158 l -0.064,0.047 c 0,0.047 -0.107,0.319 -0.245,0.595 -0.132,0.271 -0.312,0.679 -0.401,0.894 -0.085,0.217 -0.181,0.459 -0.212,0.537 -0.029,0.076 -0.161,0.41 -0.279,0.751 -0.341,0.902 -0.568,1.479 -0.784,1.959 -0.107,0.232 -0.216,0.506 -0.252,0.604 -0.03,0.094 -0.146,0.375 -0.254,0.619 -0.167,0.376 -0.229,0.452 -0.376,0.452 -0.103,0 -0.271,0.053 -0.396,0.119 -0.254,0.146 -0.675,0.837 -0.616,1.021 0.048,0.164 0.271,0.24 0.442,0.146 0.067,-0.036 0.25,-0.09 0.396,-0.109 0.149,-0.025 0.313,-0.062 0.351,-0.087 0.036,-0.031 0.339,-0.044 0.666,-0.044 0.425,0.002 0.618,-0.023 0.681,-0.095 0.041,-0.06 0.16,-0.104 0.254,-0.104 0.188,0 0.456,-0.117 0.542,-0.244 0.103,-0.149 0.051,-0.396 -0.102,-0.472 -0.081,-0.042 -0.313,-0.073 -0.518,-0.063 -0.63,0.022 -0.65,-0.003 -0.396,-0.519 0.078,-0.167 0.141,-0.324 0.141,-0.348 0,-0.029 0.037,-0.146 0.086,-0.255 0.039,-0.108 0.153,-0.399 0.244,-0.651 0.188,-0.526 0.365,-0.818 0.459,-0.762 0.037,0.021 0.33,-0.007 0.653,-0.067 0.329,-0.06 0.863,-0.156 1.202,-0.218 0.328,-0.062 0.854,-0.138 1.165,-0.173 l 0.56,-0.063 0.212,0.243 c 0.206,0.237 0.41,0.322 0.41,0.167 l 0.108,-0.05 c 0.059,0.012 0.237,0.312 0.397,0.666 0.159,0.351 0.412,0.896 0.565,1.211 0.273,0.564 0.327,0.739 0.226,0.756 -0.03,0.003 -0.176,0.018 -0.323,0.033 -0.146,0.017 -0.353,0.094 -0.457,0.174 -0.104,0.082 -0.229,0.147 -0.276,0.147 -0.126,0 -0.312,0.264 -0.278,0.408 l 0.031,0.208 c 0.013,0.196 0.329,0.254 0.742,0.134 0.352,-0.104 1.366,-0.238 2.146,-0.288 0.271,-0.02 0.479,0.021 0.766,0.138 l 0.125,-0.055 c 0,-0.061 0.095,-0.119 0.214,-0.149 0.133,-0.026 0.238,-0.104 0.276,-0.203 0.086,-0.264 -0.11,-0.51 -0.389,-0.51 z m -5.947,-3.717 c -0.526,0.001 -1.069,0.037 -1.209,0.078 -0.331,0.104 -0.571,0.099 -0.571,-0.021 0,-0.264 1.636,-3.756 1.781,-3.812 0.077,-0.032 0.137,0.134 0.258,0.729 0.058,0.271 0.183,0.771 0.282,1.104 0.104,0.329 0.258,0.86 0.354,1.188 0.099,0.322 0.178,0.601 0.178,0.619 -0.01,0.096 -0.16,0.113 -1.073,0.115 z"
           style="stroke-width:0.69046164;stroke-miterlimit:4;stroke-dasharray:none;stroke:#000000;stroke-opacity:1;fill:none" /><path
           inkscape:connector-curvature="0"
           id="path8015"
           d="m 125.66994,19.724985 -0.213,0.28 c -0.115,0.116 -0.128,0.206 -0.092,0.688 0.04,0.571 -0.034,0.771 -0.271,0.771 -0.235,0 -0.347,-0.218 -0.428,-0.867 -0.029,-0.229 -0.083,-0.348 -0.168,-0.379 -0.101,-0.031 -1.055,-0.017 -2.332,0.034 -0.047,0.002 -0.106,0.544 -0.16,1.518 -0.108,1.957 -0.108,2.296 0.021,2.501 0.087,0.128 0.096,0.271 0.038,0.768 -0.036,0.329 -0.083,1.469 -0.107,2.521 -0.056,2.399 -0.021,2.5 0.801,2.521 0.126,0.006 0.297,-0.035 0.375,-0.082 0.199,-0.121 0.386,0.011 0.414,0.311 0.023,0.262 -0.118,0.42 -0.384,0.42 -0.087,0 -0.287,0.066 -0.453,0.146 -0.269,0.131 -0.345,0.138 -0.74,0.063 -0.281,-0.048 -0.766,-0.062 -1.347,-0.029 -0.778,0.041 -0.938,0.036 -1.087,-0.065 -0.103,-0.06 -0.221,-0.113 -0.276,-0.113 -0.123,0 -0.332,-0.227 -0.332,-0.364 0,-0.151 0.303,-0.413 0.475,-0.413 0.079,0 0.267,-0.102 0.425,-0.214 0.153,-0.113 0.329,-0.215 0.398,-0.215 0.092,-0.002 0.111,-0.051 0.09,-0.23 -0.016,-0.128 -0.04,-0.766 -0.064,-1.411 -0.023,-0.646 -0.066,-1.693 -0.106,-2.313 -0.034,-0.625 -0.038,-1.171 0,-1.208 0.035,-0.035 0.101,-0.931 0.148,-1.979 0.082,-1.646 0.078,-1.921 -0.01,-2.001 -0.071,-0.066 -0.398,-0.109 -1.062,-0.142 -0.979,-0.044 -1.724,0.019 -1.857,0.153 -0.041,0.039 -0.1,0.374 -0.109,0.741 -0.034,0.667 -0.133,0.911 -0.351,0.911 l -0.098,0.069 c 0,0.038 -0.081,0.07 -0.185,0.07 -0.099,0 -0.192,0.05 -0.223,0.112 -0.104,0.258 -0.166,-0.113 -0.166,-0.979 -0.001,-0.884 -0.001,-0.896 -0.184,-0.989 -0.297,-0.159 -0.327,-0.569 -0.037,-0.569 0.07,0 0.183,-0.104 0.256,-0.238 l 0.124,-0.242 0.79,-0.022 c 1.927,-0.059 4.953,-0.028 5.525,0.055 0.332,0.044 0.87,0.105 1.199,0.121 0.572,0.037 0.586,0.032 0.586,-0.125 0,-0.37 0.336,-0.439 0.568,-0.115 0.104,0.147 0.207,0.213 0.349,0.213 0.262,-0.007 0.366,0.12 0.265,0.317 z"
           style="stroke-width:0.69046164;stroke-miterlimit:4;stroke-dasharray:none;stroke:#000000;stroke-opacity:1;fill:none" /><path
           inkscape:connector-curvature="0"
           id="path8019"
           d="m 117.65094,29.980985 -0.036,-0.21 c 0.104,-0.253 -0.066,-0.302 -0.754,-0.234 -0.352,0.036 -0.693,0.044 -0.752,0.021 -0.12,-0.042 -0.431,-0.688 -1.212,-2.51 -0.594,-1.384 -0.706,-1.711 -1.106,-3.159 -0.256,-0.912 -0.757,-2.229 -0.938,-2.477 -0.103,-0.121 -0.301,-0.111 -0.41,0.022 -0.086,0.103 -0.104,0.097 -0.187,-0.054 -0.046,-0.09 -0.094,-0.266 -0.095,-0.396 0,-0.121 -0.033,-0.303 -0.065,-0.396 -0.034,-0.09 -0.138,-0.393 -0.224,-0.676 -0.086,-0.283 -0.213,-0.563 -0.279,-0.622 -0.113,-0.109 -0.146,-0.102 -0.381,0.13 -0.221,0.211 -0.252,0.283 -0.221,0.483 0.033,0.188 -0.044,0.403 -0.388,1.101 -0.235,0.474 -0.546,1.183 -0.691,1.565 -0.426,1.154 -0.677,1.73 -1.09,2.519 -0.76,1.451 -0.979,1.892 -1.183,2.354 -0.939,2.192 -0.918,2.147 -1.205,2.252 -0.305,0.105 -0.906,0.567 -0.906,0.696 0,0.146 0.232,0.307 0.534,0.354 0.155,0.027 0.476,0.088 0.708,0.14 0.351,0.073 0.462,0.073 0.604,-0.004 0.104,-0.05 0.39,-0.096 0.632,-0.096 0.469,0 0.659,-0.065 0.902,-0.296 l 0.285,-0.244 c 0.145,-0.106 0.145,-0.106 0,-0.215 -0.08,-0.063 -0.252,-0.104 -0.394,-0.092 -0.14,0.007 -0.316,-0.024 -0.393,-0.066 -0.335,-0.189 -0.338,-0.193 -0.258,-0.488 0.039,-0.148 0.126,-0.499 0.19,-0.771 0.062,-0.271 0.19,-0.692 0.289,-0.936 l 0.178,-0.434 0.399,-0.045 c 0.226,-0.022 0.708,-0.092 1.082,-0.152 0.374,-0.056 1.129,-0.126 1.688,-0.155 l 1.007,-0.042 0.181,0.194 c 0.104,0.109 0.275,0.361 0.396,0.564 0.109,0.196 0.256,0.406 0.321,0.463 l 0.114,0.213 c 0,0.146 0.241,0.912 0.309,0.979 0.138,0.14 0.019,0.29 -0.372,0.474 -0.234,0.107 -0.482,0.194 -0.562,0.194 -0.221,0 -0.334,0.185 -0.237,0.393 0.103,0.229 0.38,0.299 1.281,0.314 0.409,0.01 0.771,0.034 0.809,0.053 0.104,0.062 0.41,0.085 0.41,0.025 0,-0.031 0.145,-0.037 0.317,-0.017 0.181,0.021 0.381,0.009 0.444,-0.025 0.072,-0.032 0.244,-0.062 0.382,-0.062 0.203,-0.001 0.254,-0.036 0.269,-0.159 0.021,-0.107 0.104,-0.181 0.284,-0.244 0.146,-0.042 0.289,-0.101 0.326,-0.113 v -0.113 z m -6.377,-3.669 c -0.233,0 -0.769,0.037 -1.19,0.085 -0.499,0.058 -0.793,0.062 -0.837,0.021 -0.041,-0.046 0.044,-0.323 0.258,-0.781 0.179,-0.396 0.4,-0.906 0.504,-1.135 0.102,-0.24 0.228,-0.51 0.274,-0.608 0.054,-0.098 0.267,-0.521 0.475,-0.944 0.202,-0.421 0.393,-0.74 0.419,-0.709 0.021,0.032 0.165,0.438 0.31,0.908 0.315,1.018 0.531,1.577 0.906,2.359 0.151,0.323 0.276,0.618 0.276,0.648 -0.01,0.068 -0.722,0.154 -1.395,0.156 z"
           style="stroke-width:0.69046164;stroke-miterlimit:4;stroke-dasharray:none;stroke:#000000;stroke-opacity:1;fill:none" /><path
           inkscape:connector-curvature="0"
           id="path8021"
           d="m 103.70094,30.776985 c -0.051,0.082 -0.259,0.146 -0.516,0.156 -0.065,0.003 -0.155,0.082 -0.205,0.182 -0.091,0.165 -0.105,0.171 -1.312,0.182 -1.174,0.009 -1.229,0.001 -1.418,-0.151 -0.105,-0.092 -0.269001,-0.221 -0.373001,-0.292 -0.375,-0.268 -0.146,-0.563 0.498001,-0.649 0.688,-0.097 0.631,0.04 0.573,-1.396 -0.039,-0.854 -0.021,-1.629 0.038,-2.395 0.054,-0.622 0.102,-1.612 0.102,-2.2 0,-1.271 -0.041,-2.812 -0.071,-2.812 -0.04,0 -0.854,1.512 -1.222001,2.279 -0.443,0.917 -0.604,1.239 -1.479,2.956 -0.968,1.889 -1.248,2.559 -1.248,2.937 0,0.394 -0.24,0.875 -0.425,0.875 -0.185,0 -0.354,-0.183 -0.48,-0.491 -0.131,-0.318 -0.494,-0.915 -1.315,-2.179 -0.659,-1.012 -1.023,-1.713 -1.257,-2.435 -0.195,-0.604 -0.768,-1.826 -0.98,-2.117 -0.146,-0.196 -0.185,-0.105 -0.219,0.438 -0.014,0.264 -0.041,0.805 -0.069,1.196 -0.025,0.396 -0.056,1.264 -0.071,1.931 -0.012,0.669 -0.06,1.543 -0.102,1.939 -0.097,0.859 -0.043,1.358 0.136,1.358 0.224,0 0.769,0.221 0.897,0.362 0.104,0.105 0.107,0.182 0.058,0.368 -0.038,0.135 -0.114,0.229 -0.183,0.231 -0.124,0.002 -0.48,0.182 -0.48,0.245 0,0.086 -2.458,0.034 -2.625,-0.061 -0.218,-0.112 -0.184,-0.366 0.081,-0.489 l 0.2,-0.102 -0.183,-0.168 c -0.21,-0.193 -0.225,-0.267 -0.069,-0.42 0.078,-0.076 0.248,-0.106 0.534,-0.106 h 0.422 v -0.521 c 0,-0.281 0.065,-0.914 0.146,-1.408 0.191,-1.146 0.199,-3.476 0.032,-6.906 -0.035,-0.625 -0.11,-0.784 -0.396,-0.784 -0.201,0 -0.495,-0.279 -0.495,-0.477 0,-0.262 0.272,-0.357 0.713,-0.252 0.192,0.049 0.396,0.065 0.438,0.036 0.104,-0.058 1.896,-0.118 2.039,-0.062 0.073,0.025 0.074,0.063 0.014,0.184 -0.062,0.122 -0.038,0.225 0.136,0.587 0.214,0.437 1.084,2.854 1.407,3.9 0.191,0.641 0.868,2.021 1.167,2.396 0.109,0.146 0.265,0.427 0.337,0.617 0.073,0.194 0.164,0.354 0.198,0.349 0.036,-0.003 0.261,-0.383 0.494,-0.834 0.236,-0.458 0.538,-1.016 0.672,-1.237 0.133,-0.229 0.337,-0.591 0.461,-0.808 0.111,-0.214 0.381,-0.68 0.587,-1.033 0.444,-0.766 1.071,-2.045 1.303001,-2.635 l 0.162,-0.428 -0.19,-0.153 c -0.235001,-0.188 -0.190001,-0.351 0.13,-0.485 0.126,-0.054 0.271,-0.164 0.322,-0.247 0.104,-0.16 0.307,-0.188 0.521,-0.075 0.104,0.055 0.18,0.044 0.312,-0.038 0.154,-0.105 0.197,-0.107 0.405,-0.008 0.127,0.06 0.446,0.12 0.698,0.143 0.588,0.042 0.872,0.176 0.823,0.369 l -0.034,0.223 c 0,0.044 -0.2,0.104 -0.475,0.132 l -0.473,0.051 0.048,1.261 c 0.029,0.69 0.062,1.784 0.075,2.435 0.014,0.69 0.055,1.271 0.104,1.394 0.062,0.151 0.078,0.826 0.062,2.425 l -0.029,2.21 0.4,-0.026 c 0.224,-0.013 0.473,0.015 0.556,0.056 0.152,0.077 0.197,0.312 0.093,0.477 z"
           style="stroke-width:0.69046164;stroke-miterlimit:4;stroke-dasharray:none;stroke:#000000;stroke-opacity:1;fill:none" /><path
           inkscape:connector-curvature="0"
           id="path8023"
           d="m 87.804939,27.524985 c -0.031,0.059 -0.106,0.37 -0.175,0.697 -0.063,0.329 -0.134,0.622 -0.147,0.653 -0.02,0.032 -0.1,0.358 -0.171,0.739 -0.074,0.377 -0.189,0.768 -0.265,0.873 -0.072,0.102 -0.185,0.269 -0.244,0.375 -0.229,0.399 -0.44,0.574 -0.709,0.574 -0.292,0 -0.457,-0.135 -0.53,-0.441 -0.041,-0.194 -0.05,-0.198 -0.581,-0.19 -0.45,0.011 -0.546,0.035 -0.631,0.158 -0.103,0.134 -0.111,0.137 -0.349,0.027 -0.139,-0.062 -0.387,-0.114 -0.556,-0.114 -0.358,0.001 -0.84,0.121 -0.84,0.209 0,0.037 -0.138,0.034 -0.305,-0.008 -0.306,-0.068 -1.653,-0.1 -3.478,-0.066 -0.535,0.008 -1.021,-0.007 -1.088,-0.039 -0.093,-0.035 -0.116,-0.104 -0.106,-0.262 0.021,-0.185 0.062,-0.229 0.255,-0.278 0.143,-0.038 0.255,-0.119 0.294,-0.219 0.035,-0.086 0.188,-0.258 0.353,-0.396 0.161,-0.127 0.491,-0.491 0.732,-0.816 0.245,-0.325 0.965,-1.105 1.604,-1.736 0.643,-0.63 1.164,-1.201 1.164,-1.271 0,-0.243 -0.582,-1.143 -1.247,-1.931 -0.629,-0.75 -1.049,-1.293 -1.349,-1.774 -0.149,-0.235 -0.604,-0.76 -1.013,-1.159 -0.541,-0.537 -0.735,-0.775 -0.735,-0.909 0,-0.254 0.227,-0.354 0.49,-0.217 0.109,0.059 0.229,0.081 0.252,0.046 0.072,-0.116 1.063,-0.322 1.538,-0.315 0.256,0.005 0.948,0.012 1.542,0.02 1.127,0.01 2.202,0.135 2.726,0.322 0.406,0.144 0.785,0.142 0.947,-0.01 0.071,-0.063 0.267,-0.127 0.434,-0.139 0.169,-0.009 0.417,-0.035 0.562,-0.066 0.219,-0.034 0.275,-0.021 0.374,0.119 0.064,0.093 0.118,0.235 0.118,0.326 0,0.106 0.044,0.164 0.15,0.182 0.224,0.033 0.229,0.143 0.025,0.438 l -0.177,0.261 0.098,0.798 c 0.107,0.859 0.098,0.956 -0.107,1.021 -0.346,0.104 -0.641,-0.287 -0.771,-1.044 -0.112,-0.662 -0.136,-0.705 -0.312,-0.705 l -0.234,-0.074 c -0.036,-0.038 -0.536,-0.134 -1.102,-0.206 -0.563,-0.073 -1.105,-0.149 -1.198,-0.179 -0.615,-0.146 -1.12,-0.2 -1.709,-0.188 -0.37,0.004 -0.685,0.021 -0.689,0.036 -0.08,0.077 1.021,1.708 1.506,2.234 0.316,0.341 0.626,0.729 0.694,0.869 0.068,0.139 0.353,0.457 0.622,0.696 0.54,0.494 0.688,0.827 0.476,1.063 l -0.146,0.246 -0.14,0.089 c -0.104,-0.038 -3.382,3.138 -3.312,3.21 0.021,0.024 0.325,0.071 0.674,0.107 1.5,0.158 2.093,0.225 2.633,0.291 0.317,0.035 0.975,0.062 1.456,0.048 l 0.88,-0.021 0.336,-0.752 c 0.288,-0.646 0.372,-0.762 0.595,-0.879 0.141,-0.073 0.303,-0.22 0.36,-0.327 0.058,-0.106 0.172,-0.217 0.253,-0.242 0.177,-0.044 0.35,0.103 0.273,0.246 z"
           style="stroke-width:0.69046164;stroke-miterlimit:4;stroke-dasharray:none;stroke:#000000;stroke-opacity:1;fill:none" /><path
           inkscape:connector-curvature="0"
           id="path8027"
           d="m 76.436939,30.124985 c -0.126,-0.128 -0.364,-0.146 -0.63,-0.044 -0.248,0.098 -0.332,0.049 -0.548,-0.286 -0.196,-0.305 -0.256,-0.438 -0.842,-2.023 -0.204,-0.545 -0.463,-1.19 -0.571,-1.422 -0.259,-0.565 -0.428,-0.946 -0.716,-1.672 -0.127,-0.334 -0.309,-0.72 -0.392,-0.854 -0.082,-0.141 -0.254,-0.589 -0.385,-0.995 -0.131,-0.411 -0.276,-0.842 -0.329,-0.964 -0.044,-0.114 -0.143,-0.438 -0.206,-0.706 -0.059,-0.272 -0.188,-0.614 -0.287,-0.751 -0.208,-0.31 -0.468,-0.896 -0.468,-1.067 0,-0.114 -0.132,-0.215 -0.286,-0.215 -0.129,0 -0.729,0.716 -0.936,1.115 -0.112,0.229 -0.247,0.447 -0.281,0.481 l -0.066,0.213 c 0,0.081 -0.073,0.335 -0.17,0.571 -0.094,0.239 -0.309,0.796 -0.473,1.25 -0.262,0.7 -0.625,1.54 -1.388,3.167 -0.354,0.763 -0.522,1.146 -0.564,1.315 -0.031,0.102 -0.28,0.65 -0.56,1.229 l -0.516,1.053 h -0.472 c -0.597,0 -0.702,0.095 -0.682,0.559 0.018,0.312 0.039,0.345 0.37,0.566 0.257,0.171 0.4,0.224 0.522,0.188 0.1,-0.026 0.654,-0.054 1.242,-0.073 0.594,-0.017 1.085,-0.043 1.107,-0.063 0.021,-0.021 0.043,-0.143 0.062,-0.27 0.024,-0.201 -0.015,-0.255 -0.22,-0.396 -0.169,-0.111 -0.295,-0.15 -0.399,-0.117 -0.083,0.025 -0.27,0.025 -0.409,0 l -0.254,-0.047 0.161,-0.12 c 0.18,-0.131 0.417,-0.615 0.617,-1.216 0.11,-0.36 0.393,-1.021 0.533,-1.283 0.041,-0.08 0.172,-0.104 0.512,-0.098 0.255,0.008 0.6,0.008 0.772,0 0.767,-0.027 1.637,0.018 2.031,0.101 0.235,0.049 0.541,0.088 0.677,0.086 l 0.25,-0.007 0.604,1.201 c 0.327,0.657 0.576,1.227 0.55,1.267 -0.021,0.037 -0.234,0.089 -0.473,0.109 -0.653,0.056 -0.845,0.311 -0.522,0.688 l 0.179,0.209 1.047,-0.013 c 0.933,-0.016 1.067,0 1.252,0.118 0.142,0.101 0.367,0.146 0.772,0.172 0.569,0.036 0.582,0.033 0.742,-0.175 0.18,-0.248 0.206,-0.618 0.043,-0.781 z m -4.5,-4.005 c -0.125,0.037 -2.534,0.081 -3.171,0.055 -0.328,-0.01 -0.335,-0.014 -0.294,-0.208 0.028,-0.107 0.093,-0.271 0.138,-0.373 0.046,-0.097 0.207,-0.471 0.354,-0.818 0.66,-1.604 1.245,-2.778 1.385,-2.778 0.062,0 0.182,0.209 0.306,0.536 0.11,0.295 0.314,0.792 0.441,1.104 0.134,0.317 0.399,0.963 0.606,1.438 0.199,0.476 0.362,0.901 0.362,0.938 z"
           style="stroke-width:0.69046164;stroke-miterlimit:4;stroke-dasharray:none;stroke:#000000;stroke-opacity:1;fill:none" /><path
           inkscape:connector-curvature="0"
           id="path8029"
           d="m 62.585939,30.921985 c -0.182,0.113 -0.42,0.108 -0.728,-0.016 -0.182,-0.074 -0.447,-0.095 -0.983,-0.072 -1.612,0.062 -3.061,0.048 -3.166,-0.039 -0.182,-0.146 -0.111,-0.312 0.227,-0.598 l 0.329,-0.275 0.688,0.012 c 0.537,0.017 0.712,-0.011 0.779,-0.09 0.068,-0.082 -0.013,-0.317 -0.418,-1.212 -0.271,-0.614 -0.504,-1.137 -0.504,-1.169 0,-0.033 -0.146,-0.295 -0.319,-0.587 -0.179,-0.292 -0.316,-0.585 -0.325,-0.652 l -0.135,-0.164 c -0.213,-0.064 -0.766,-1.089 -1.522,-2.834 -0.065,-0.146 -0.148,-0.262 -0.188,-0.262 -0.036,0 -0.198,0.259 -0.352,0.587 -0.352,0.737 -0.579,1.246 -0.579,1.287 0,0.021 -0.091,0.24 -0.204,0.488 -0.111,0.247 -0.229,0.52 -0.253,0.604 -0.028,0.088 -0.243,0.547 -0.479,1.034 -0.438,0.883 -0.663,1.45 -0.763,1.907 -0.036,0.138 -0.109,0.353 -0.173,0.476 -0.139,0.257 -0.156,0.472 -0.046,0.669 0.059,0.109 0.15,0.138 0.434,0.138 0.195,0 0.425,0.033 0.503,0.078 0.646,0.344 0.646,0.888 0.001,0.869 -0.146,-0.007 -0.31,0.021 -0.361,0.046 -0.057,0.036 -0.212,0.011 -0.355,-0.052 -0.169,-0.071 -0.565,-0.116 -1.183,-0.137 -1.023,-0.032 -1.361,-0.128 -1.438,-0.434 -0.064,-0.259 0.163,-0.44 0.646,-0.509 0.46,-0.062 0.604,-0.169 0.64,-0.472 0.034,-0.292 0.105,-0.501 0.292,-0.84 0.188,-0.363 0.426,-0.83 0.801,-1.616 0.443,-0.922 1.055,-2.153 1.139,-2.31 0.108,-0.196 0.443,-0.934 0.443,-0.981 0,-0.026 0.107,-0.275 0.243,-0.562 0.359,-0.771 0.587,-1.349 0.646,-1.616 0.029,-0.133 0.119,-0.401 0.215,-0.595 0.136,-0.3 0.149,-0.384 0.082,-0.564 -0.078,-0.209 -0.067,-0.234 0.253,-0.518 0.185,-0.166 0.336,-0.337 0.336,-0.387 l 0.137,-0.15 c 0.195,-0.107 0.472,0.138 0.562,0.511 0.043,0.174 0.179,0.452 0.293,0.624 0.117,0.176 0.281,0.544 0.369,0.813 0.084,0.273 0.211,0.686 0.284,0.908 0.071,0.229 0.132,0.454 0.132,0.506 0,0.099 0.11,0.367 0.513,1.264 0.082,0.18 0.397,0.818 0.696,1.426 0.59,1.179 1.14,2.424 1.14,2.577 0,0.101 0.188,0.562 0.538,1.312 0.193,0.426 0.209,0.438 0.578,0.53 0.326,0.078 0.396,0.123 0.521,0.366 0.194,0.348 0.196,0.572 0.014,0.681 z"
           style="stroke-width:0.69046164;stroke-miterlimit:4;stroke-dasharray:none;stroke:#000000;stroke-opacity:1;fill:none" /><path
           inkscape:connector-curvature="0"
           id="path8031"
           d="m 47.763939,30.728985 c -0.578,0.003 -1.445,0.121 -2.016,0.271 -0.15,0.038 -0.508,0.094 -0.791,0.118 -0.446,0.04 -0.548,0.028 -0.825,-0.11 -0.229,-0.114 -0.458,-0.169 -0.817,-0.178 -1.081,-0.032 -1.414,-0.161 -1.26,-0.499 0.081,-0.18 0.185,-0.204 0.597,-0.184 0.231,0.02 0.331,-0.145 0.36,-0.566 0.019,-0.312 0.017,-0.312 -0.457,-0.634 -0.659,-0.449 -0.838,-0.629 -1,-0.996 -0.148,-0.331 -0.312,-0.509 -0.821,-0.875 -0.167,-0.121 -0.302,-0.242 -0.302,-0.265 0,-0.02 -0.289,-0.298 -0.644,-0.605 -0.456,-0.401 -0.638,-0.616 -0.638,-0.729 0,-0.193 -0.107,-0.216 -0.162,-0.032 -0.05,0.189 0.014,3.691 0.073,4.072 0.041,0.273 0.074,0.325 0.242,0.338 0.107,0.018 0.229,0.068 0.274,0.125 0.046,0.055 0.175,0.106 0.282,0.106 0.104,0 0.24,0.046 0.291,0.107 0.053,0.062 0.172,0.146 0.264,0.184 0.146,0.053 0.162,0.095 0.114,0.295 -0.063,0.299 -0.057,0.293 -0.327,0.203 -0.131,-0.039 -0.41,-0.094 -0.619,-0.111 -0.334,-0.035 -0.385,-0.02 -0.417,0.107 -0.036,0.163 -0.104,0.18 -0.31,0.067 -0.104,-0.05 -0.239,-0.042 -0.497,0.036 -0.348,0.107 -0.566,0.093 -0.566,-0.036 0,-0.088 -0.261,-0.082 -0.318,0.009 -0.026,0.033 -0.141,0.068 -0.25,0.068 -0.115,0 -0.229,-0.036 -0.256,-0.068 -0.024,-0.037 -0.262,-0.073 -0.538,-0.073 -0.589,0 -0.993,-0.188 -0.993,-0.475 0,-0.26 0.256,-0.369 0.952,-0.407 0.348,-0.021 0.64,-0.042 0.646,-0.062 0.038,-0.044 0.205,-1.852 0.23,-2.477 0.039,-0.871 0.059,-3.383 0.039,-4.025 -0.009,-0.271 -0.014,-0.598 -0.007,-0.715 0.016,-0.329 -0.172,-1.87 -0.241,-1.971 -0.043,-0.074 -0.076,-0.064 -0.129,0.028 -0.081,0.137 -0.28,0.176 -0.28,0.055 l 0.079,-0.205 c 0.116,-0.187 0.034,-0.341 -0.216,-0.4 -0.334,-0.071 -0.791,-0.437 -0.791,-0.627 0,-0.22 0.211,-0.398 0.474,-0.398 0.106,0 0.301,-0.049 0.408,-0.107 0.27,-0.145 0.397,-0.136 0.842,0.038 0.367,0.146 0.606,0.148 1.126,0.029 0.124,-0.032 0.256,0.01 0.43,0.125 0.187,0.128 0.322,0.165 0.515,0.142 0.416,-0.046 0.479,0.002 0.396,0.304 -0.044,0.139 -0.123,0.252 -0.177,0.252 -0.053,0 -0.235,0.108 -0.401,0.235 l -0.313,0.229 -0.041,0.683 c -0.063,0.934 -0.062,2.99 0.009,2.99 0.031,0 0.214,-0.133 0.401,-0.286 0.487,-0.394 0.443,-0.357 0.996,-0.771 0.775,-0.583 1.272,-0.979 1.608,-1.294 0.817,-0.764 1.055,-1.013 1.133,-1.214 0.081,-0.188 0.075,-0.235 -0.043,-0.353 -0.074,-0.076 -0.259,-0.182 -0.419,-0.235 -0.317,-0.109 -0.396,-0.276 -0.218,-0.473 0.092,-0.104 0.272,-0.141 0.818,-0.179 0.391,-0.023 0.948,-0.093 1.248,-0.146 0.373,-0.071 0.604,-0.082 0.727,-0.037 0.1,0.037 0.308,0.07 0.463,0.07 0.268,0 0.362,0.079 0.201,0.182 l -0.037,0.146 c 0.041,0.105 -0.167,0.277 -1.106,0.919 -0.286,0.193 -0.565,0.4 -0.625,0.466 -0.335,0.321 -1.385,1.229 -1.828,1.584 -0.562,0.45 -1.59,1.479 -1.692,1.694 -0.14,0.297 0.671,1.305 2.095,2.606 0.67,0.616 1.361,1.361 1.382,1.49 0.012,0.083 0.097,0.149 0.229,0.18 0.112,0.024 0.333,0.164 0.489,0.31 0.158,0.146 0.531,0.412 0.829,0.582 0.306,0.18 0.562,0.376 0.579,0.443 0.042,0.169 0.61,0.298 1.391,0.329 0.326,0.012 0.604,0.034 0.618,0.05 0.021,0.021 0.057,0.15 0.083,0.299 l 0.049,0.264 z"
           style="stroke-width:0.69046164;stroke-miterlimit:4;stroke-dasharray:none;stroke:#000000;stroke-opacity:1;fill:none" /></g></g><use
       id="use8245"
       transform="translate(0,127.9008)"
       xlink:href="#g4685"
       inkscape:tiled-clone-of="#g4685"
       y="0"
       x="0"
       width="100%"
       height="100%" /><use
       id="use8247"
       transform="translate(0,255.8008)"
       xlink:href="#g4685"
       inkscape:tiled-clone-of="#g4685"
       y="0"
       x="0"
       width="100%"
       height="100%" /><use
       id="use8249"
       transform="translate(0,383.7008)"
       xlink:href="#g4685"
       inkscape:tiled-clone-of="#g4685"
       y="0"
       x="0"
       width="100%"
       height="100%" /><use
       id="use8251"
       transform="translate(0,511.6008)"
       xlink:href="#g4685"
       inkscape:tiled-clone-of="#g4685"
       y="0"
       x="0"
       width="100%"
       height="100%" /><use
       id="use8253"
       transform="translate(0,639.5008)"
       xlink:href="#g4685"
       inkscape:tiled-clone-of="#g4685"
       y="0"
       x="0"
       width="100%"
       height="100%" /><use
       id="use8255"
       transform="translate(0,767.4016)"
       xlink:href="#g4685"
       inkscape:tiled-clone-of="#g4685"
       y="0"
       x="0"
       width="100%"
       height="100%" /><use
       id="use8257"
       transform="translate(212.364)"
       xlink:href="#g4685"
       inkscape:tiled-clone-of="#g4685"
       y="0"
       x="0"
       width="100%"
       height="100%" /><use
       id="use8259"
       transform="translate(212.364,127.9008)"
       xlink:href="#g4685"
       inkscape:tiled-clone-of="#g4685"
       y="0"
       x="0"
       width="100%"
       height="100%" /><use
       id="use8261"
       transform="translate(212.364,255.8008)"
       xlink:href="#g4685"
       inkscape:tiled-clone-of="#g4685"
       y="0"
       x="0"
       width="100%"
       height="100%" /><use
       id="use8263"
       transform="translate(212.364,383.7008)"
       xlink:href="#g4685"
       inkscape:tiled-clone-of="#g4685"
       y="0"
       x="0"
       width="100%"
       height="100%" /><use
       id="use8265"
       transform="translate(212.364,511.6008)"
       xlink:href="#g4685"
       inkscape:tiled-clone-of="#g4685"
       y="0"
       x="0"
       width="100%"
       height="100%" /><use
       id="use8267"
       transform="translate(212.364,639.5008)"
       xlink:href="#g4685"
       inkscape:tiled-clone-of="#g4685"
       y="0"
       x="0"
       width="100%"
       height="100%" /><use
       id="use8269"
       transform="translate(212.364,767.4016)"
       xlink:href="#g4685"
       inkscape:tiled-clone-of="#g4685"
       y="0"
       x="0"
       width="100%"
       height="100%" /><use
       id="use8271"
       transform="translate(424.728)"
       xlink:href="#g4685"
       inkscape:tiled-clone-of="#g4685"
       y="0"
       x="0"
       width="100%"
       height="100%" /><use
       id="use8273"
       transform="translate(424.728,127.9008)"
       xlink:href="#g4685"
       inkscape:tiled-clone-of="#g4685"
       y="0"
       x="0"
       width="100%"
       height="100%" /><use
       id="use8275"
       transform="translate(424.728,255.8008)"
       xlink:href="#g4685"
       inkscape:tiled-clone-of="#g4685"
       y="0"
       x="0"
       width="100%"
       height="100%" /><use
       id="use8277"
       transform="translate(424.728,383.7008)"
       xlink:href="#g4685"
       inkscape:tiled-clone-of="#g4685"
       y="0"
       x="0"
       width="100%"
       height="100%" /><use
       id="use8279"
       transform="translate(424.728,511.6008)"
       xlink:href="#g4685"
       inkscape:tiled-clone-of="#g4685"
       y="0"
       x="0"
       width="100%"
       height="100%" /><use
       id="use8281"
       transform="translate(424.728,639.5008)"
       xlink:href="#g4685"
       inkscape:tiled-clone-of="#g4685"
       y="0"
       x="0"
       width="100%"
       height="100%" /><use
       id="use8283"
       transform="translate(424.728,767.4016)"
       xlink:href="#g4685"
       inkscape:tiled-clone-of="#g4685"
       y="0"
       x="0"
       width="100%"
       height="100%" /></g></svg>
