  0
SECTION
  2
HEADER
  9
$ACADVER
  1
AC1014
  9
$HANDSEED
  5
FFFF
  9
$MEASUREMENT
 70
     1
  0
ENDSEC
  0
SECTION
  2
TABLES
  0
TABLE
  2
VPORT
  5
8
330
0
100
AcDbSymbolTable
 70
     4
  0
VPORT
  5
2E
330
8
100
AcDbSymbolTableRecord
100
AcDbViewportTableRecord
  2
*ACTIVE
 70
     0
 10
0.0
 20
0.0
 11
1.0
 21
1.0
 12
210.0
 22
148.5
 13
0.0
 23
0.0
 14
10.0
 24
10.0
 15
10.0
 25
10.0
 16
0.0
 26
0.0
 36
1.0
 17
0.0
 27
0.0
 37
0.0
 40
341.0
 41
1.24
 42
50.0
 43
0.0
 44
0.0
 50
0.0
 51
0.0
 71
     0
 72
   100
 73
     1
 74
     3
 75
     0
 76
     0
 77
     0
 78
     0
  0
ENDTAB
  0
TABLE
  2
LTYPE
  5
5
330
0
100
AcDbSymbolTable
 70
     1
  0
LTYPE
  5
14
330
5
100
AcDbSymbolTableRecord
100
AcDbLinetypeTableRecord
  2
BYBLOCK
 70
     0
  3

 72
    65
 73
     0
 40
0.0
  0
LTYPE
  5
15
330
5
100
AcDbSymbolTableRecord
100
AcDbLinetypeTableRecord
  2
BYLAYER
 70
     0
  3

 72
    65
 73
     0
 40
0.0
  0
LTYPE
  5
16
330
5
100
AcDbSymbolTableRecord
100
AcDbLinetypeTableRecord
  2
CONTINUOUS
 70
     0
  3
Solid line
 72
    65
 73
     0
 40
0.0
  0
ENDTAB
  0
TABLE
  2
LAYER
  5
2
100
AcDbSymbolTable
 70
2
  0
LAYER
  5
50
100
AcDbSymbolTableRecord
100
AcDbLayerTableRecord
  2
0
 70
0
  6
CONTINUOUS
  0
LAYER
  5
51
100
AcDbSymbolTableRecord
100
AcDbLayerTableRecord
  2
Layer_1
 70
0
  6
CONTINUOUS
  0
ENDTAB
  0
TABLE
  2
STYLE
  5
3
330
0
100
AcDbSymbolTable
 70
     1
  0
STYLE
  5
11
330
3
100
AcDbSymbolTableRecord
100
AcDbTextStyleTableRecord
  2
STANDARD
 70
     0
 40
0.0
 41
1.0
 50
0.0
 71
     0
 42
2.5
  3
txt
  4

  0
ENDTAB
  0
TABLE
  2
VIEW
  5
6
330
0
100
AcDbSymbolTable
 70
     0
  0
ENDTAB
  0
TABLE
  2
UCS
  5
7
330
0
100
AcDbSymbolTable
 70
     0
  0
ENDTAB
  0
TABLE
  2
APPID
  5
9
330
0
100
AcDbSymbolTable
 70
     2
  0
APPID
  5
12
330
9
100
AcDbSymbolTableRecord
100
AcDbRegAppTableRecord
  2
ACAD
 70
     0
  0
ENDTAB
  0
TABLE
  2
DIMSTYLE
  5
A
330
0
100
AcDbSymbolTable
 70
     1
  0
DIMSTYLE
105
27
330
A
100
AcDbSymbolTableRecord
100
AcDbDimStyleTableRecord
  2
ISO-25
 70
     0
  3

  4

  5

  6

  7

 40
1.0
 41
2.5
 42
0.625
 43
3.75
 44
1.25
 45
0.0
 46
0.0
 47
0.0
 48
0.0
140
2.5
141
2.5
142
0.0
143
0.03937007874016
144
1.0
145
0.0
146
1.0
147
0.625
 71
     0
 72
     0
 73
     0
 74
     0
 75
     0
 76
     0
 77
     1
 78
     8
170
     0
171
     3
172
     1
173
     0
174
     0
175
     0
176
     0
177
     0
178
     0
270
     2
271
     2
272
     2
273
     2
274
     3
340
11
275
     0
280
     0
281
     0
282
     0
283
     0
284
     8
285
     0
286
     0
287
     3
288
     0
  0
ENDTAB
  0
TABLE
  2
BLOCK_RECORD
  5
1
330
0
100
AcDbSymbolTable
 70
     1
  0
BLOCK_RECORD
  5
1F
330
1
100
AcDbSymbolTableRecord
100
AcDbBlockTableRecord
  2
*MODEL_SPACE
  0
BLOCK_RECORD
  5
1B
330
1
100
AcDbSymbolTableRecord
100
AcDbBlockTableRecord
  2
*PAPER_SPACE
  0
ENDTAB
  0
ENDSEC
  0
SECTION
  2
BLOCKS
  0
BLOCK
  5
20
330
1F
100
AcDbEntity
  8
0
100
AcDbBlockBegin
  2
*MODEL_SPACE
 70
     0
 10
0.0
 20
0.0
 30
0.0
  3
*MODEL_SPACE
  1

  0
ENDBLK
  5
21
330
1F
100
AcDbEntity
  8
0
100
AcDbBlockEnd
  0
BLOCK
  5
1C
330
1B
100
AcDbEntity
 67
     1
  8
0
100
AcDbBlockBegin
  2
*PAPER_SPACE
  1

  0
ENDBLK
  5
1D
330
1B
100
AcDbEntity
 67
     1
  8
0
100
AcDbBlockEnd
  0
ENDSEC
  0
SECTION
  2
ENTITIES
  0
SPLINE
  5
100
100
AcDbEntity
  8
Layer_1
 62
7
100
AcDbSpline
 70
8
 71
3
 72
8
 73
4
 74
0
 40
0
 40
0
 40
0
 40
0
 40
1
 40
1
 40
1
 40
1
 10
9.157284
 20
293.953832
 30
0.0
 10
9.157284
 20
293.070176
 30
0.0
 10
8.440940
 20
292.353832
 30
0.0
 10
7.557284
 20
292.353832
 30
0.0
  0
SPLINE
  5
101
100
AcDbEntity
  8
Layer_1
 62
7
100
AcDbSpline
 70
8
 71
3
 72
8
 73
4
 74
0
 40
0
 40
0
 40
0
 40
0
 40
1
 40
1
 40
1
 40
1
 10
7.557284
 20
292.353832
 30
0.0
 10
6.673629
 20
292.353832
 30
0.0
 10
5.957284
 20
293.070176
 30
0.0
 10
5.957284
 20
293.953832
 30
0.0
  0
SPLINE
  5
102
100
AcDbEntity
  8
Layer_1
 62
7
100
AcDbSpline
 70
8
 71
3
 72
8
 73
4
 74
0
 40
0
 40
0
 40
0
 40
0
 40
1
 40
1
 40
1
 40
1
 10
5.957284
 20
293.953832
 30
0.0
 10
5.957284
 20
294.837487
 30
0.0
 10
6.673629
 20
295.553832
 30
0.0
 10
7.557284
 20
295.553832
 30
0.0
  0
SPLINE
  5
103
100
AcDbEntity
  8
Layer_1
 62
7
100
AcDbSpline
 70
8
 71
3
 72
8
 73
4
 74
0
 40
0
 40
0
 40
0
 40
0
 40
1
 40
1
 40
1
 40
1
 10
7.557284
 20
295.553832
 30
0.0
 10
8.440940
 20
295.553832
 30
0.0
 10
9.157284
 20
294.837487
 30
0.0
 10
9.157284
 20
293.953832
 30
0.0
  0
LWPOLYLINE
  5
104
100
AcDbEntity
  8
Layer_1
 62
7
100
AcDbPolyline
 90
5
 70
0
 10
0.057285
 20
296.953832
 30
0.0
 10
40.357283
 20
296.953832
 30
0.0
 10
40.357283
 20
168.453835
 30
0.0
 10
0.057285
 20
168.453835
 30
0.0
 10
0.057285
 20
296.953832
 30
0.0
  0
SPLINE
  5
105
100
AcDbEntity
  8
Layer_1
 62
7
100
AcDbSpline
 70
8
 71
3
 72
8
 73
4
 74
0
 40
0
 40
0
 40
0
 40
0
 40
1
 40
1
 40
1
 40
1
 10
9.157284
 20
171.453835
 30
0.0
 10
9.157284
 20
170.570175
 30
0.0
 10
8.440940
 20
169.853835
 30
0.0
 10
7.557284
 20
169.853835
 30
0.0
  0
SPLINE
  5
106
100
AcDbEntity
  8
Layer_1
 62
7
100
AcDbSpline
 70
8
 71
3
 72
8
 73
4
 74
0
 40
0
 40
0
 40
0
 40
0
 40
1
 40
1
 40
1
 40
1
 10
7.557284
 20
169.853835
 30
0.0
 10
6.673629
 20
169.853835
 30
0.0
 10
5.957284
 20
170.570175
 30
0.0
 10
5.957284
 20
171.453835
 30
0.0
  0
SPLINE
  5
107
100
AcDbEntity
  8
Layer_1
 62
7
100
AcDbSpline
 70
8
 71
3
 72
8
 73
4
 74
0
 40
0
 40
0
 40
0
 40
0
 40
1
 40
1
 40
1
 40
1
 10
5.957284
 20
171.453835
 30
0.0
 10
5.957284
 20
172.337495
 30
0.0
 10
6.673629
 20
173.053835
 30
0.0
 10
7.557284
 20
173.053835
 30
0.0
  0
SPLINE
  5
108
100
AcDbEntity
  8
Layer_1
 62
7
100
AcDbSpline
 70
8
 71
3
 72
8
 73
4
 74
0
 40
0
 40
0
 40
0
 40
0
 40
1
 40
1
 40
1
 40
1
 10
7.557284
 20
173.053835
 30
0.0
 10
8.440940
 20
173.053835
 30
0.0
 10
9.157284
 20
172.337495
 30
0.0
 10
9.157284
 20
171.453835
 30
0.0
  0
LWPOLYLINE
  5
109
100
AcDbEntity
  8
Layer_1
 62
7
100
AcDbPolyline
 90
2
 70
0
 10
9.157284
 20
293.953832
 30
0.0
 10
9.157284
 20
293.953832
 30
0.0
  0
SPLINE
  5
10a
100
AcDbEntity
  8
Layer_1
 62
7
100
AcDbSpline
 70
8
 71
3
 72
8
 73
4
 74
0
 40
0
 40
0
 40
0
 40
0
 40
1
 40
1
 40
1
 40
1
 10
12.587284
 20
199.353834
 30
0.0
 10
9.965266
 20
199.353834
 30
0.0
 10
7.832587
 20
197.230470
 30
0.0
 10
7.832587
 20
194.608464
 30
0.0
  0
SPLINE
  5
10b
100
AcDbEntity
  8
Layer_1
 62
7
100
AcDbSpline
 70
8
 71
3
 72
8
 73
4
 74
0
 40
0
 40
0
 40
0
 40
0
 40
1
 40
1
 40
1
 40
1
 10
7.832587
 20
194.608464
 30
0.0
 10
7.832587
 20
192.464674
 30
0.0
 10
9.258782
 20
190.648114
 30
0.0
 10
11.210188
 20
190.058484
 30
0.0
  0
LWPOLYLINE
  5
10c
100
AcDbEntity
  8
Layer_1
 62
7
100
AcDbPolyline
 90
2
 70
0
 10
9.157284
 20
171.453835
 30
0.0
 10
9.157284
 20
171.453835
 30
0.0
  0
SPLINE
  5
10d
100
AcDbEntity
  8
Layer_1
 62
7
100
AcDbSpline
 70
8
 71
3
 72
8
 73
4
 74
0
 40
0
 40
0
 40
0
 40
0
 40
1
 40
1
 40
1
 40
1
 10
13.852724
 20
190.030574
 30
0.0
 10
15.856208
 20
190.587154
 30
0.0
 10
17.332680
 20
192.427644
 30
0.0
 10
17.332680
 20
194.608464
 30
0.0
  0
SPLINE
  5
10e
100
AcDbEntity
  8
Layer_1
 62
7
100
AcDbSpline
 70
8
 71
3
 72
8
 73
4
 74
0
 40
0
 40
0
 40
0
 40
0
 40
1
 40
1
 40
1
 40
1
 10
17.332680
 20
194.608464
 30
0.0
 10
17.332680
 20
197.230470
 30
0.0
 10
15.209311
 20
199.353834
 30
0.0
 10
12.587284
 20
199.353834
 30
0.0
  0
LWPOLYLINE
  5
10f
100
AcDbEntity
  8
Layer_1
 62
7
100
AcDbPolyline
 90
4
 70
0
 10
11.210188
 20
190.058484
 30
0.0
 10
11.210188
 20
187.378744
 30
0.0
 10
13.852724
 20
187.378744
 30
0.0
 10
13.852724
 20
190.030574
 30
0.0
  0
SPLINE
  5
110
100
AcDbEntity
  8
Layer_1
 62
7
100
AcDbSpline
 70
8
 71
3
 72
8
 73
4
 74
0
 40
0
 40
0
 40
0
 40
0
 40
1
 40
1
 40
1
 40
1
 10
12.587284
 20
218.403834
 30
0.0
 10
9.965266
 20
218.403834
 30
0.0
 10
7.832587
 20
216.280470
 30
0.0
 10
7.832587
 20
213.658466
 30
0.0
  0
SPLINE
  5
111
100
AcDbEntity
  8
Layer_1
 62
7
100
AcDbSpline
 70
8
 71
3
 72
8
 73
4
 74
0
 40
0
 40
0
 40
0
 40
0
 40
1
 40
1
 40
1
 40
1
 10
7.832587
 20
213.658466
 30
0.0
 10
7.832587
 20
211.514670
 30
0.0
 10
9.258782
 20
209.698115
 30
0.0
 10
11.210188
 20
209.108486
 30
0.0
  0
LWPOLYLINE
  5
112
100
AcDbEntity
  8
Layer_1
 62
7
100
AcDbPolyline
 90
2
 70
0
 10
12.587284
 20
199.353834
 30
0.0
 10
12.587284
 20
199.353834
 30
0.0
  0
SPLINE
  5
113
100
AcDbEntity
  8
Layer_1
 62
7
100
AcDbSpline
 70
8
 71
3
 72
8
 73
4
 74
0
 40
0
 40
0
 40
0
 40
0
 40
1
 40
1
 40
1
 40
1
 10
13.852724
 20
209.080574
 30
0.0
 10
15.856208
 20
209.637154
 30
0.0
 10
17.332680
 20
211.477641
 30
0.0
 10
17.332680
 20
213.658466
 30
0.0
  0
SPLINE
  5
114
100
AcDbEntity
  8
Layer_1
 62
7
100
AcDbSpline
 70
8
 71
3
 72
8
 73
4
 74
0
 40
0
 40
0
 40
0
 40
0
 40
1
 40
1
 40
1
 40
1
 10
17.332680
 20
213.658466
 30
0.0
 10
17.332680
 20
216.280470
 30
0.0
 10
15.209311
 20
218.403834
 30
0.0
 10
12.587284
 20
218.403834
 30
0.0
  0
LWPOLYLINE
  5
115
100
AcDbEntity
  8
Layer_1
 62
7
100
AcDbPolyline
 90
4
 70
0
 10
11.210188
 20
209.108486
 30
0.0
 10
11.210188
 20
206.428740
 30
0.0
 10
13.852724
 20
206.428740
 30
0.0
 10
13.852724
 20
209.080574
 30
0.0
  0
SPLINE
  5
116
100
AcDbEntity
  8
Layer_1
 62
7
100
AcDbSpline
 70
8
 71
3
 72
8
 73
4
 74
0
 40
0
 40
0
 40
0
 40
0
 40
1
 40
1
 40
1
 40
1
 10
12.587284
 20
237.453833
 30
0.0
 10
9.965266
 20
237.453833
 30
0.0
 10
7.832587
 20
235.330469
 30
0.0
 10
7.832587
 20
232.708465
 30
0.0
  0
SPLINE
  5
117
100
AcDbEntity
  8
Layer_1
 62
7
100
AcDbSpline
 70
8
 71
3
 72
8
 73
4
 74
0
 40
0
 40
0
 40
0
 40
0
 40
1
 40
1
 40
1
 40
1
 10
7.832587
 20
232.708465
 30
0.0
 10
7.832587
 20
230.564669
 30
0.0
 10
9.258782
 20
228.748114
 30
0.0
 10
11.210188
 20
228.158485
 30
0.0
  0
LWPOLYLINE
  5
118
100
AcDbEntity
  8
Layer_1
 62
7
100
AcDbPolyline
 90
2
 70
0
 10
12.587284
 20
218.403834
 30
0.0
 10
12.587284
 20
218.403834
 30
0.0
  0
SPLINE
  5
119
100
AcDbEntity
  8
Layer_1
 62
7
100
AcDbSpline
 70
8
 71
3
 72
8
 73
4
 74
0
 40
0
 40
0
 40
0
 40
0
 40
1
 40
1
 40
1
 40
1
 10
13.852724
 20
228.130573
 30
0.0
 10
15.856208
 20
228.687153
 30
0.0
 10
17.332680
 20
230.527640
 30
0.0
 10
17.332680
 20
232.708465
 30
0.0
  0
SPLINE
  5
11a
100
AcDbEntity
  8
Layer_1
 62
7
100
AcDbSpline
 70
8
 71
3
 72
8
 73
4
 74
0
 40
0
 40
0
 40
0
 40
0
 40
1
 40
1
 40
1
 40
1
 10
17.332680
 20
232.708465
 30
0.0
 10
17.332680
 20
235.330469
 30
0.0
 10
15.209311
 20
237.453833
 30
0.0
 10
12.587284
 20
237.453833
 30
0.0
  0
LWPOLYLINE
  5
11b
100
AcDbEntity
  8
Layer_1
 62
7
100
AcDbPolyline
 90
4
 70
0
 10
11.210188
 20
228.158485
 30
0.0
 10
11.210188
 20
225.478739
 30
0.0
 10
13.852724
 20
225.478739
 30
0.0
 10
13.852724
 20
228.130573
 30
0.0
  0
SPLINE
  5
11c
100
AcDbEntity
  8
Layer_1
 62
7
100
AcDbSpline
 70
8
 71
3
 72
8
 73
4
 74
0
 40
0
 40
0
 40
0
 40
0
 40
1
 40
1
 40
1
 40
1
 10
12.587284
 20
256.503833
 30
0.0
 10
9.965266
 20
256.503833
 30
0.0
 10
7.832587
 20
254.380469
 30
0.0
 10
7.832587
 20
251.758465
 30
0.0
  0
SPLINE
  5
11d
100
AcDbEntity
  8
Layer_1
 62
7
100
AcDbSpline
 70
8
 71
3
 72
8
 73
4
 74
0
 40
0
 40
0
 40
0
 40
0
 40
1
 40
1
 40
1
 40
1
 10
7.832587
 20
251.758465
 30
0.0
 10
7.832587
 20
249.614669
 30
0.0
 10
9.258782
 20
247.798114
 30
0.0
 10
11.210188
 20
247.208485
 30
0.0
  0
LWPOLYLINE
  5
11e
100
AcDbEntity
  8
Layer_1
 62
7
100
AcDbPolyline
 90
2
 70
0
 10
12.587284
 20
237.453833
 30
0.0
 10
12.587284
 20
237.453833
 30
0.0
  0
SPLINE
  5
11f
100
AcDbEntity
  8
Layer_1
 62
7
100
AcDbSpline
 70
8
 71
3
 72
8
 73
4
 74
0
 40
0
 40
0
 40
0
 40
0
 40
1
 40
1
 40
1
 40
1
 10
13.852724
 20
247.180573
 30
0.0
 10
15.856208
 20
247.737153
 30
0.0
 10
17.332680
 20
249.577640
 30
0.0
 10
17.332680
 20
251.758465
 30
0.0
  0
SPLINE
  5
120
100
AcDbEntity
  8
Layer_1
 62
7
100
AcDbSpline
 70
8
 71
3
 72
8
 73
4
 74
0
 40
0
 40
0
 40
0
 40
0
 40
1
 40
1
 40
1
 40
1
 10
17.332680
 20
251.758465
 30
0.0
 10
17.332680
 20
254.380469
 30
0.0
 10
15.209311
 20
256.503833
 30
0.0
 10
12.587284
 20
256.503833
 30
0.0
  0
LWPOLYLINE
  5
121
100
AcDbEntity
  8
Layer_1
 62
7
100
AcDbPolyline
 90
4
 70
0
 10
11.210188
 20
247.208485
 30
0.0
 10
11.210188
 20
244.528739
 30
0.0
 10
13.852724
 20
244.528739
 30
0.0
 10
13.852724
 20
247.180573
 30
0.0
  0
SPLINE
  5
122
100
AcDbEntity
  8
Layer_1
 62
7
100
AcDbSpline
 70
8
 71
3
 72
8
 73
4
 74
0
 40
0
 40
0
 40
0
 40
0
 40
1
 40
1
 40
1
 40
1
 10
12.587284
 20
275.553832
 30
0.0
 10
9.965266
 20
275.553832
 30
0.0
 10
7.832587
 20
273.430468
 30
0.0
 10
7.832587
 20
270.808464
 30
0.0
  0
SPLINE
  5
123
100
AcDbEntity
  8
Layer_1
 62
7
100
AcDbSpline
 70
8
 71
3
 72
8
 73
4
 74
0
 40
0
 40
0
 40
0
 40
0
 40
1
 40
1
 40
1
 40
1
 10
7.832587
 20
270.808464
 30
0.0
 10
7.832587
 20
268.664668
 30
0.0
 10
9.258782
 20
266.848113
 30
0.0
 10
11.210188
 20
266.258484
 30
0.0
  0
LWPOLYLINE
  5
124
100
AcDbEntity
  8
Layer_1
 62
7
100
AcDbPolyline
 90
2
 70
0
 10
12.587284
 20
256.503833
 30
0.0
 10
12.587284
 20
256.503833
 30
0.0
  0
SPLINE
  5
125
100
AcDbEntity
  8
Layer_1
 62
7
100
AcDbSpline
 70
8
 71
3
 72
8
 73
4
 74
0
 40
0
 40
0
 40
0
 40
0
 40
1
 40
1
 40
1
 40
1
 10
13.852724
 20
266.230572
 30
0.0
 10
15.856208
 20
266.787152
 30
0.0
 10
17.332680
 20
268.627639
 30
0.0
 10
17.332680
 20
270.808464
 30
0.0
  0
SPLINE
  5
126
100
AcDbEntity
  8
Layer_1
 62
7
100
AcDbSpline
 70
8
 71
3
 72
8
 73
4
 74
0
 40
0
 40
0
 40
0
 40
0
 40
1
 40
1
 40
1
 40
1
 10
17.332680
 20
270.808464
 30
0.0
 10
17.332680
 20
273.430468
 30
0.0
 10
15.209311
 20
275.553832
 30
0.0
 10
12.587284
 20
275.553832
 30
0.0
  0
LWPOLYLINE
  5
127
100
AcDbEntity
  8
Layer_1
 62
7
100
AcDbPolyline
 90
4
 70
0
 10
11.210188
 20
266.258484
 30
0.0
 10
11.210188
 20
263.578738
 30
0.0
 10
13.852724
 20
263.578738
 30
0.0
 10
13.852724
 20
266.230572
 30
0.0
  0
SPLINE
  5
128
100
AcDbEntity
  8
Layer_1
 62
7
100
AcDbSpline
 70
8
 71
3
 72
8
 73
4
 74
0
 40
0
 40
0
 40
0
 40
0
 40
1
 40
1
 40
1
 40
1
 10
24.247285
 20
188.253834
 30
0.0
 10
24.247285
 20
187.425414
 30
0.0
 10
23.575712
 20
186.753834
 30
0.0
 10
22.747285
 20
186.753834
 30
0.0
  0
SPLINE
  5
129
100
AcDbEntity
  8
Layer_1
 62
7
100
AcDbSpline
 70
8
 71
3
 72
8
 73
4
 74
0
 40
0
 40
0
 40
0
 40
0
 40
1
 40
1
 40
1
 40
1
 10
22.747285
 20
186.753834
 30
0.0
 10
21.918857
 20
186.753834
 30
0.0
 10
21.247285
 20
187.425414
 30
0.0
 10
21.247285
 20
188.253834
 30
0.0
  0
SPLINE
  5
12a
100
AcDbEntity
  8
Layer_1
 62
7
100
AcDbSpline
 70
8
 71
3
 72
8
 73
4
 74
0
 40
0
 40
0
 40
0
 40
0
 40
1
 40
1
 40
1
 40
1
 10
21.247285
 20
188.253834
 30
0.0
 10
21.247285
 20
189.082264
 30
0.0
 10
21.918857
 20
189.753834
 30
0.0
 10
22.747285
 20
189.753834
 30
0.0
  0
SPLINE
  5
12b
100
AcDbEntity
  8
Layer_1
 62
7
100
AcDbSpline
 70
8
 71
3
 72
8
 73
4
 74
0
 40
0
 40
0
 40
0
 40
0
 40
1
 40
1
 40
1
 40
1
 10
22.747285
 20
189.753834
 30
0.0
 10
23.575712
 20
189.753834
 30
0.0
 10
24.247285
 20
189.082264
 30
0.0
 10
24.247285
 20
188.253834
 30
0.0
  0
LWPOLYLINE
  5
12c
100
AcDbEntity
  8
Layer_1
 62
7
100
AcDbPolyline
 90
2
 70
0
 10
12.587284
 20
275.553832
 30
0.0
 10
12.587284
 20
275.553832
 30
0.0
  0
SPLINE
  5
12d
100
AcDbEntity
  8
Layer_1
 62
7
100
AcDbSpline
 70
8
 71
3
 72
8
 73
4
 74
0
 40
0
 40
0
 40
0
 40
0
 40
1
 40
1
 40
1
 40
1
 10
24.247285
 20
226.353835
 30
0.0
 10
24.247285
 20
225.525407
 30
0.0
 10
23.575712
 20
224.853835
 30
0.0
 10
22.747285
 20
224.853835
 30
0.0
  0
SPLINE
  5
12e
100
AcDbEntity
  8
Layer_1
 62
7
100
AcDbSpline
 70
8
 71
3
 72
8
 73
4
 74
0
 40
0
 40
0
 40
0
 40
0
 40
1
 40
1
 40
1
 40
1
 10
22.747285
 20
224.853835
 30
0.0
 10
21.918857
 20
224.853835
 30
0.0
 10
21.247285
 20
225.525407
 30
0.0
 10
21.247285
 20
226.353835
 30
0.0
  0
SPLINE
  5
12f
100
AcDbEntity
  8
Layer_1
 62
7
100
AcDbSpline
 70
8
 71
3
 72
8
 73
4
 74
0
 40
0
 40
0
 40
0
 40
0
 40
1
 40
1
 40
1
 40
1
 10
21.247285
 20
226.353835
 30
0.0
 10
21.247285
 20
227.182262
 30
0.0
 10
21.918857
 20
227.853835
 30
0.0
 10
22.747285
 20
227.853835
 30
0.0
  0
SPLINE
  5
130
100
AcDbEntity
  8
Layer_1
 62
7
100
AcDbSpline
 70
8
 71
3
 72
8
 73
4
 74
0
 40
0
 40
0
 40
0
 40
0
 40
1
 40
1
 40
1
 40
1
 10
22.747285
 20
227.853835
 30
0.0
 10
23.575712
 20
227.853835
 30
0.0
 10
24.247285
 20
227.182262
 30
0.0
 10
24.247285
 20
226.353835
 30
0.0
  0
LWPOLYLINE
  5
131
100
AcDbEntity
  8
Layer_1
 62
7
100
AcDbPolyline
 90
2
 70
0
 10
24.247285
 20
188.253834
 30
0.0
 10
24.247285
 20
188.253834
 30
0.0
  0
SPLINE
  5
132
100
AcDbEntity
  8
Layer_1
 62
7
100
AcDbSpline
 70
8
 71
3
 72
8
 73
4
 74
0
 40
0
 40
0
 40
0
 40
0
 40
1
 40
1
 40
1
 40
1
 10
36.157282
 20
251.753832
 30
0.0
 10
36.157282
 20
249.958907
 30
0.0
 10
34.702208
 20
248.503832
 30
0.0
 10
32.907282
 20
248.503832
 30
0.0
  0
SPLINE
  5
133
100
AcDbEntity
  8
Layer_1
 62
7
100
AcDbSpline
 70
8
 71
3
 72
8
 73
4
 74
0
 40
0
 40
0
 40
0
 40
0
 40
1
 40
1
 40
1
 40
1
 10
32.907282
 20
248.503832
 30
0.0
 10
31.112357
 20
248.503832
 30
0.0
 10
29.657282
 20
249.958907
 30
0.0
 10
29.657282
 20
251.753832
 30
0.0
  0
SPLINE
  5
134
100
AcDbEntity
  8
Layer_1
 62
7
100
AcDbSpline
 70
8
 71
3
 72
8
 73
4
 74
0
 40
0
 40
0
 40
0
 40
0
 40
1
 40
1
 40
1
 40
1
 10
29.657282
 20
251.753832
 30
0.0
 10
29.657282
 20
253.548758
 30
0.0
 10
31.112357
 20
255.003832
 30
0.0
 10
32.907282
 20
255.003832
 30
0.0
  0
SPLINE
  5
135
100
AcDbEntity
  8
Layer_1
 62
7
100
AcDbSpline
 70
8
 71
3
 72
8
 73
4
 74
0
 40
0
 40
0
 40
0
 40
0
 40
1
 40
1
 40
1
 40
1
 10
32.907282
 20
255.003832
 30
0.0
 10
34.702208
 20
255.003832
 30
0.0
 10
36.157282
 20
253.548758
 30
0.0
 10
36.157282
 20
251.753832
 30
0.0
  0
LWPOLYLINE
  5
136
100
AcDbEntity
  8
Layer_1
 62
7
100
AcDbPolyline
 90
2
 70
0
 10
24.247285
 20
226.353835
 30
0.0
 10
24.247285
 20
226.353835
 30
0.0
  0
SPLINE
  5
137
100
AcDbEntity
  8
Layer_1
 62
7
100
AcDbSpline
 70
8
 71
3
 72
8
 73
4
 74
0
 40
0
 40
0
 40
0
 40
0
 40
1
 40
1
 40
1
 40
1
 10
36.157282
 20
188.253834
 30
0.0
 10
36.157282
 20
186.458914
 30
0.0
 10
34.702208
 20
185.003834
 30
0.0
 10
32.907282
 20
185.003834
 30
0.0
  0
SPLINE
  5
138
100
AcDbEntity
  8
Layer_1
 62
7
100
AcDbSpline
 70
8
 71
3
 72
8
 73
4
 74
0
 40
0
 40
0
 40
0
 40
0
 40
1
 40
1
 40
1
 40
1
 10
32.907282
 20
185.003834
 30
0.0
 10
31.112357
 20
185.003834
 30
0.0
 10
29.657282
 20
186.458914
 30
0.0
 10
29.657282
 20
188.253834
 30
0.0
  0
SPLINE
  5
139
100
AcDbEntity
  8
Layer_1
 62
7
100
AcDbSpline
 70
8
 71
3
 72
8
 73
4
 74
0
 40
0
 40
0
 40
0
 40
0
 40
1
 40
1
 40
1
 40
1
 10
29.657282
 20
188.253834
 30
0.0
 10
29.657282
 20
190.048764
 30
0.0
 10
31.112357
 20
191.503834
 30
0.0
 10
32.907282
 20
191.503834
 30
0.0
  0
SPLINE
  5
13a
100
AcDbEntity
  8
Layer_1
 62
7
100
AcDbSpline
 70
8
 71
3
 72
8
 73
4
 74
0
 40
0
 40
0
 40
0
 40
0
 40
1
 40
1
 40
1
 40
1
 10
32.907282
 20
191.503834
 30
0.0
 10
34.702208
 20
191.503834
 30
0.0
 10
36.157282
 20
190.048764
 30
0.0
 10
36.157282
 20
188.253834
 30
0.0
  0
LWPOLYLINE
  5
13b
100
AcDbEntity
  8
Layer_1
 62
7
100
AcDbPolyline
 90
2
 70
0
 10
36.157282
 20
251.753832
 30
0.0
 10
36.157282
 20
251.753832
 30
0.0
  0
SPLINE
  5
13c
100
AcDbEntity
  8
Layer_1
 62
7
100
AcDbSpline
 70
8
 71
3
 72
8
 73
4
 74
0
 40
0
 40
0
 40
0
 40
0
 40
1
 40
1
 40
1
 40
1
 10
36.157282
 20
200.953834
 30
0.0
 10
36.157282
 20
199.158909
 30
0.0
 10
34.702208
 20
197.703834
 30
0.0
 10
32.907282
 20
197.703834
 30
0.0
  0
SPLINE
  5
13d
100
AcDbEntity
  8
Layer_1
 62
7
100
AcDbSpline
 70
8
 71
3
 72
8
 73
4
 74
0
 40
0
 40
0
 40
0
 40
0
 40
1
 40
1
 40
1
 40
1
 10
32.907282
 20
197.703834
 30
0.0
 10
31.112357
 20
197.703834
 30
0.0
 10
29.657282
 20
199.158909
 30
0.0
 10
29.657282
 20
200.953834
 30
0.0
  0
SPLINE
  5
13e
100
AcDbEntity
  8
Layer_1
 62
7
100
AcDbSpline
 70
8
 71
3
 72
8
 73
4
 74
0
 40
0
 40
0
 40
0
 40
0
 40
1
 40
1
 40
1
 40
1
 10
29.657282
 20
200.953834
 30
0.0
 10
29.657282
 20
202.748759
 30
0.0
 10
31.112357
 20
204.203834
 30
0.0
 10
32.907282
 20
204.203834
 30
0.0
  0
SPLINE
  5
13f
100
AcDbEntity
  8
Layer_1
 62
7
100
AcDbSpline
 70
8
 71
3
 72
8
 73
4
 74
0
 40
0
 40
0
 40
0
 40
0
 40
1
 40
1
 40
1
 40
1
 10
32.907282
 20
204.203834
 30
0.0
 10
34.702208
 20
204.203834
 30
0.0
 10
36.157282
 20
202.748759
 30
0.0
 10
36.157282
 20
200.953834
 30
0.0
  0
LWPOLYLINE
  5
140
100
AcDbEntity
  8
Layer_1
 62
7
100
AcDbPolyline
 90
2
 70
0
 10
36.157282
 20
188.253834
 30
0.0
 10
36.157282
 20
188.253834
 30
0.0
  0
SPLINE
  5
141
100
AcDbEntity
  8
Layer_1
 62
7
100
AcDbSpline
 70
8
 71
3
 72
8
 73
4
 74
0
 40
0
 40
0
 40
0
 40
0
 40
1
 40
1
 40
1
 40
1
 10
36.157282
 20
213.653831
 30
0.0
 10
36.157282
 20
211.858906
 30
0.0
 10
34.702208
 20
210.403831
 30
0.0
 10
32.907282
 20
210.403831
 30
0.0
  0
SPLINE
  5
142
100
AcDbEntity
  8
Layer_1
 62
7
100
AcDbSpline
 70
8
 71
3
 72
8
 73
4
 74
0
 40
0
 40
0
 40
0
 40
0
 40
1
 40
1
 40
1
 40
1
 10
32.907282
 20
210.403831
 30
0.0
 10
31.112357
 20
210.403831
 30
0.0
 10
29.657282
 20
211.858906
 30
0.0
 10
29.657282
 20
213.653831
 30
0.0
  0
SPLINE
  5
143
100
AcDbEntity
  8
Layer_1
 62
7
100
AcDbSpline
 70
8
 71
3
 72
8
 73
4
 74
0
 40
0
 40
0
 40
0
 40
0
 40
1
 40
1
 40
1
 40
1
 10
29.657282
 20
213.653831
 30
0.0
 10
29.657282
 20
215.448756
 30
0.0
 10
31.112357
 20
216.903831
 30
0.0
 10
32.907282
 20
216.903831
 30
0.0
  0
SPLINE
  5
144
100
AcDbEntity
  8
Layer_1
 62
7
100
AcDbSpline
 70
8
 71
3
 72
8
 73
4
 74
0
 40
0
 40
0
 40
0
 40
0
 40
1
 40
1
 40
1
 40
1
 10
32.907282
 20
216.903831
 30
0.0
 10
34.702208
 20
216.903831
 30
0.0
 10
36.157282
 20
215.448756
 30
0.0
 10
36.157282
 20
213.653831
 30
0.0
  0
LWPOLYLINE
  5
145
100
AcDbEntity
  8
Layer_1
 62
7
100
AcDbPolyline
 90
2
 70
0
 10
36.157282
 20
200.953834
 30
0.0
 10
36.157282
 20
200.953834
 30
0.0
  0
SPLINE
  5
146
100
AcDbEntity
  8
Layer_1
 62
7
100
AcDbSpline
 70
8
 71
3
 72
8
 73
4
 74
0
 40
0
 40
0
 40
0
 40
0
 40
1
 40
1
 40
1
 40
1
 10
36.157282
 20
226.353835
 30
0.0
 10
36.157282
 20
224.558909
 30
0.0
 10
34.702208
 20
223.103835
 30
0.0
 10
32.907282
 20
223.103835
 30
0.0
  0
SPLINE
  5
147
100
AcDbEntity
  8
Layer_1
 62
7
100
AcDbSpline
 70
8
 71
3
 72
8
 73
4
 74
0
 40
0
 40
0
 40
0
 40
0
 40
1
 40
1
 40
1
 40
1
 10
32.907282
 20
223.103835
 30
0.0
 10
31.112357
 20
223.103835
 30
0.0
 10
29.657282
 20
224.558909
 30
0.0
 10
29.657282
 20
226.353835
 30
0.0
  0
SPLINE
  5
148
100
AcDbEntity
  8
Layer_1
 62
7
100
AcDbSpline
 70
8
 71
3
 72
8
 73
4
 74
0
 40
0
 40
0
 40
0
 40
0
 40
1
 40
1
 40
1
 40
1
 10
29.657282
 20
226.353835
 30
0.0
 10
29.657282
 20
228.148760
 30
0.0
 10
31.112357
 20
229.603835
 30
0.0
 10
32.907282
 20
229.603835
 30
0.0
  0
SPLINE
  5
149
100
AcDbEntity
  8
Layer_1
 62
7
100
AcDbSpline
 70
8
 71
3
 72
8
 73
4
 74
0
 40
0
 40
0
 40
0
 40
0
 40
1
 40
1
 40
1
 40
1
 10
32.907282
 20
229.603835
 30
0.0
 10
34.702208
 20
229.603835
 30
0.0
 10
36.157282
 20
228.148760
 30
0.0
 10
36.157282
 20
226.353835
 30
0.0
  0
LWPOLYLINE
  5
14a
100
AcDbEntity
  8
Layer_1
 62
7
100
AcDbPolyline
 90
2
 70
0
 10
36.157282
 20
213.653831
 30
0.0
 10
36.157282
 20
213.653831
 30
0.0
  0
SPLINE
  5
14b
100
AcDbEntity
  8
Layer_1
 62
7
100
AcDbSpline
 70
8
 71
3
 72
8
 73
4
 74
0
 40
0
 40
0
 40
0
 40
0
 40
1
 40
1
 40
1
 40
1
 10
36.157282
 20
239.053831
 30
0.0
 10
36.157282
 20
237.258906
 30
0.0
 10
34.702208
 20
235.803831
 30
0.0
 10
32.907282
 20
235.803831
 30
0.0
  0
SPLINE
  5
14c
100
AcDbEntity
  8
Layer_1
 62
7
100
AcDbSpline
 70
8
 71
3
 72
8
 73
4
 74
0
 40
0
 40
0
 40
0
 40
0
 40
1
 40
1
 40
1
 40
1
 10
32.907282
 20
235.803831
 30
0.0
 10
31.112357
 20
235.803831
 30
0.0
 10
29.657282
 20
237.258906
 30
0.0
 10
29.657282
 20
239.053831
 30
0.0
  0
SPLINE
  5
14d
100
AcDbEntity
  8
Layer_1
 62
7
100
AcDbSpline
 70
8
 71
3
 72
8
 73
4
 74
0
 40
0
 40
0
 40
0
 40
0
 40
1
 40
1
 40
1
 40
1
 10
29.657282
 20
239.053831
 30
0.0
 10
29.657282
 20
240.848757
 30
0.0
 10
31.112357
 20
242.303831
 30
0.0
 10
32.907282
 20
242.303831
 30
0.0
  0
SPLINE
  5
14e
100
AcDbEntity
  8
Layer_1
 62
7
100
AcDbSpline
 70
8
 71
3
 72
8
 73
4
 74
0
 40
0
 40
0
 40
0
 40
0
 40
1
 40
1
 40
1
 40
1
 10
32.907282
 20
242.303831
 30
0.0
 10
34.702208
 20
242.303831
 30
0.0
 10
36.157282
 20
240.848757
 30
0.0
 10
36.157282
 20
239.053831
 30
0.0
  0
LWPOLYLINE
  5
14f
100
AcDbEntity
  8
Layer_1
 62
7
100
AcDbPolyline
 90
2
 70
0
 10
36.157282
 20
226.353835
 30
0.0
 10
36.157282
 20
226.353835
 30
0.0
  0
LWPOLYLINE
  5
150
100
AcDbEntity
  8
Layer_1
 62
7
100
AcDbPolyline
 90
2
 70
0
 10
36.157282
 20
239.053831
 30
0.0
 10
36.157282
 20
239.053831
 30
0.0
  0
ENDSEC
  0
SECTION
  2
OBJECTS
  0
DICTIONARY
  5
C
330
0
100
AcDbDictionary
  3
ACAD_GROUP
350
D
  3
ACAD_MLINESTYLE
350
17
  0
DICTIONARY
  5
D
330
C
100
AcDbDictionary
  0
DICTIONARY
  5
1A
330
C
100
AcDbDictionary
  0
DICTIONARY
  5
17
330
C
100
AcDbDictionary
  3
STANDARD
350
18
  0
DICTIONARY
  5
19
330
C
100
AcDbDictionary
  0
ENDSEC
  0
EOF
