999
DXF created by Inkscape
  0
SECTION
  2
HEADER
  9
$ACADVER
  1
AC1014
  9
$HANDSEED
  5
FFFF
  9
$MEASUREMENT
 70
     1
  0
ENDSEC
  0
SECTION
  2
TABLES
  0
TABLE
  2
VPORT
  5
8
330
0
100
AcDbSymbolTable
 70
     4
  0
VPORT
  5
2E
330
8
100
AcDbSymbolTableRecord
100
AcDbViewportTableRecord
  2
*ACTIVE
 70
     0
 10
0.0
 20
0.0
 11
1.0
 21
1.0
 12
210.0
 22
148.5
 13
0.0
 23
0.0
 14
10.0
 24
10.0
 15
10.0
 25
10.0
 16
0.0
 26
0.0
 36
1.0
 17
0.0
 27
0.0
 37
0.0
 40
341.0
 41
1.24
 42
50.0
 43
0.0
 44
0.0
 50
0.0
 51
0.0
 71
     0
 72
   100
 73
     1
 74
     3
 75
     0
 76
     0
 77
     0
 78
     0
  0
ENDTAB
  0
TABLE
  2
LTYPE
  5
5
330
0
100
AcDbSymbolTable
 70
     1
  0
LTYPE
  5
14
330
5
100
AcDbSymbolTableRecord
100
AcDbLinetypeTableRecord
  2
BYBLOCK
 70
     0
  3

 72
    65
 73
     0
 40
0.0
  0
LTYPE
  5
15
330
5
100
AcDbSymbolTableRecord
100
AcDbLinetypeTableRecord
  2
BYLAYER
 70
     0
  3

 72
    65
 73
     0
 40
0.0
  0
LTYPE
  5
16
330
5
100
AcDbSymbolTableRecord
100
AcDbLinetypeTableRecord
  2
CONTINUOUS
 70
     0
  3
Solid line
 72
    65
 73
     0
 40
0.0
  0
ENDTAB
  0
TABLE
  2
LAYER
  5
2
100
AcDbSymbolTable
 70
2
  0
LAYER
  5
50
100
AcDbSymbolTableRecord
100
AcDbLayerTableRecord
  2
0
 70
0
  6
CONTINUOUS
  0
LAYER
  5
51
100
AcDbSymbolTableRecord
100
AcDbLayerTableRecord
  2
Cut
 70
0
  6
CONTINUOUS
  0
ENDTAB
  0
TABLE
  2
STYLE
  5
3
330
0
100
AcDbSymbolTable
 70
     1
  0
STYLE
  5
11
330
3
100
AcDbSymbolTableRecord
100
AcDbTextStyleTableRecord
  2
STANDARD
 70
     0
 40
0.0
 41
1.0
 50
0.0
 71
     0
 42
2.5
  3
txt
  4

  0
ENDTAB
  0
TABLE
  2
VIEW
  5
6
330
0
100
AcDbSymbolTable
 70
     0
  0
ENDTAB
  0
TABLE
  2
UCS
  5
7
330
0
100
AcDbSymbolTable
 70
     0
  0
ENDTAB
  0
TABLE
  2
APPID
  5
9
330
0
100
AcDbSymbolTable
 70
     2
  0
APPID
  5
12
330
9
100
AcDbSymbolTableRecord
100
AcDbRegAppTableRecord
  2
ACAD
 70
     0
  0
ENDTAB
  0
TABLE
  2
DIMSTYLE
  5
A
330
0
100
AcDbSymbolTable
 70
     1
  0
DIMSTYLE
105
27
330
A
100
AcDbSymbolTableRecord
100
AcDbDimStyleTableRecord
  2
ISO-25
 70
     0
  3

  4

  5

  6

  7

 40
1.0
 41
2.5
 42
0.625
 43
3.75
 44
1.25
 45
0.0
 46
0.0
 47
0.0
 48
0.0
140
2.5
141
2.5
142
0.0
143
0.03937007874016
144
1.0
145
0.0
146
1.0
147
0.625
 71
     0
 72
     0
 73
     0
 74
     0
 75
     0
 76
     0
 77
     1
 78
     8
170
     0
171
     3
172
     1
173
     0
174
     0
175
     0
176
     0
177
     0
178
     0
270
     2
271
     2
272
     2
273
     2
274
     3
340
11
275
     0
280
     0
281
     0
282
     0
283
     0
284
     8
285
     0
286
     0
287
     3
288
     0
  0
ENDTAB
  0
TABLE
  2
BLOCK_RECORD
  5
1
330
0
100
AcDbSymbolTable
 70
     1
  0
BLOCK_RECORD
  5
1F
330
1
100
AcDbSymbolTableRecord
100
AcDbBlockTableRecord
  2
*MODEL_SPACE
  0
BLOCK_RECORD
  5
1B
330
1
100
AcDbSymbolTableRecord
100
AcDbBlockTableRecord
  2
*PAPER_SPACE
  0
ENDTAB
  0
ENDSEC
  0
SECTION
  2
BLOCKS
  0
BLOCK
  5
20
330
1F
100
AcDbEntity
  8
0
100
AcDbBlockBegin
  2
*MODEL_SPACE
 70
     0
 10
0.0
 20
0.0
 30
0.0
  3
*MODEL_SPACE
  1

  0
ENDBLK
  5
21
330
1F
100
AcDbEntity
  8
0
100
AcDbBlockEnd
  0
BLOCK
  5
1C
330
1B
100
AcDbEntity
 67
     1
  8
0
100
AcDbBlockBegin
  2
*PAPER_SPACE
  1

  0
ENDBLK
  5
1D
330
1B
100
AcDbEntity
 67
     1
  8
0
100
AcDbBlockEnd
  0
ENDSEC
  0
SECTION
  2
ENTITIES
  0
SPLINE
  5
100
100
AcDbEntity
  8
Cut
 62
7
100
AcDbSpline
 70
8
 71
3
 72
8
 73
4
 74
0
 40
0
 40
0
 40
0
 40
0
 40
1
 40
1
 40
1
 40
1
 10
9.149989
 20
268.775143
 30
0.0
 10
9.149989
 20
267.891487
 30
0.0
 10
8.433644
 20
267.175143
 30
0.0
 10
7.549989
 20
267.175143
 30
0.0
  0
SPLINE
  5
101
100
AcDbEntity
  8
Cut
 62
7
100
AcDbSpline
 70
8
 71
3
 72
8
 73
4
 74
0
 40
0
 40
0
 40
0
 40
0
 40
1
 40
1
 40
1
 40
1
 10
7.549989
 20
267.175143
 30
0.0
 10
6.666333
 20
267.175143
 30
0.0
 10
5.949989
 20
267.891487
 30
0.0
 10
5.949989
 20
268.775143
 30
0.0
  0
SPLINE
  5
102
100
AcDbEntity
  8
Cut
 62
7
100
AcDbSpline
 70
8
 71
3
 72
8
 73
4
 74
0
 40
0
 40
0
 40
0
 40
0
 40
1
 40
1
 40
1
 40
1
 10
5.949989
 20
268.775143
 30
0.0
 10
5.949989
 20
269.658798
 30
0.0
 10
6.666333
 20
270.375143
 30
0.0
 10
7.549989
 20
270.375143
 30
0.0
  0
SPLINE
  5
103
100
AcDbEntity
  8
Cut
 62
7
100
AcDbSpline
 70
8
 71
3
 72
8
 73
4
 74
0
 40
0
 40
0
 40
0
 40
0
 40
1
 40
1
 40
1
 40
1
 10
7.549989
 20
270.375143
 30
0.0
 10
8.433644
 20
270.375143
 30
0.0
 10
9.149989
 20
269.658798
 30
0.0
 10
9.149989
 20
268.775143
 30
0.0
  0
LWPOLYLINE
  5
104
100
AcDbEntity
  8
Cut
 62
7
100
AcDbPolyline
 90
5
 70
0
 10
0.049988
 20
271.775140
 30
0.0
 10
50.549991
 20
271.775140
 30
0.0
 10
50.549991
 20
143.275137
 30
0.0
 10
0.049988
 20
143.275137
 30
0.0
 10
0.049988
 20
271.775140
 30
0.0
  0
SPLINE
  5
105
100
AcDbEntity
  8
Cut
 62
7
100
AcDbSpline
 70
8
 71
3
 72
8
 73
4
 74
0
 40
0
 40
0
 40
0
 40
0
 40
1
 40
1
 40
1
 40
1
 10
9.149989
 20
146.275139
 30
0.0
 10
9.149989
 20
145.391479
 30
0.0
 10
8.433644
 20
144.675139
 30
0.0
 10
7.549989
 20
144.675139
 30
0.0
  0
SPLINE
  5
106
100
AcDbEntity
  8
Cut
 62
7
100
AcDbSpline
 70
8
 71
3
 72
8
 73
4
 74
0
 40
0
 40
0
 40
0
 40
0
 40
1
 40
1
 40
1
 40
1
 10
7.549989
 20
144.675139
 30
0.0
 10
6.666333
 20
144.675139
 30
0.0
 10
5.949989
 20
145.391479
 30
0.0
 10
5.949989
 20
146.275139
 30
0.0
  0
SPLINE
  5
107
100
AcDbEntity
  8
Cut
 62
7
100
AcDbSpline
 70
8
 71
3
 72
8
 73
4
 74
0
 40
0
 40
0
 40
0
 40
0
 40
1
 40
1
 40
1
 40
1
 10
5.949989
 20
146.275139
 30
0.0
 10
5.949989
 20
147.158799
 30
0.0
 10
6.666333
 20
147.875139
 30
0.0
 10
7.549989
 20
147.875139
 30
0.0
  0
SPLINE
  5
108
100
AcDbEntity
  8
Cut
 62
7
100
AcDbSpline
 70
8
 71
3
 72
8
 73
4
 74
0
 40
0
 40
0
 40
0
 40
0
 40
1
 40
1
 40
1
 40
1
 10
7.549989
 20
147.875139
 30
0.0
 10
8.433644
 20
147.875139
 30
0.0
 10
9.149989
 20
147.158799
 30
0.0
 10
9.149989
 20
146.275139
 30
0.0
  0
LWPOLYLINE
  5
109
100
AcDbEntity
  8
Cut
 62
7
100
AcDbPolyline
 90
2
 70
0
 10
9.149989
 20
268.775143
 30
0.0
 10
9.149989
 20
268.775143
 30
0.0
  0
SPLINE
  5
10a
100
AcDbEntity
  8
Cut
 62
7
100
AcDbSpline
 70
8
 71
3
 72
8
 73
4
 74
0
 40
0
 40
0
 40
0
 40
0
 40
1
 40
1
 40
1
 40
1
 10
44.709991
 20
268.775143
 30
0.0
 10
44.709991
 20
267.891487
 30
0.0
 10
43.993647
 20
267.175143
 30
0.0
 10
43.109991
 20
267.175143
 30
0.0
  0
SPLINE
  5
10b
100
AcDbEntity
  8
Cut
 62
7
100
AcDbSpline
 70
8
 71
3
 72
8
 73
4
 74
0
 40
0
 40
0
 40
0
 40
0
 40
1
 40
1
 40
1
 40
1
 10
43.109991
 20
267.175143
 30
0.0
 10
42.226336
 20
267.175143
 30
0.0
 10
41.509991
 20
267.891487
 30
0.0
 10
41.509991
 20
268.775143
 30
0.0
  0
SPLINE
  5
10c
100
AcDbEntity
  8
Cut
 62
7
100
AcDbSpline
 70
8
 71
3
 72
8
 73
4
 74
0
 40
0
 40
0
 40
0
 40
0
 40
1
 40
1
 40
1
 40
1
 10
41.509991
 20
268.775143
 30
0.0
 10
41.509991
 20
269.658798
 30
0.0
 10
42.226336
 20
270.375143
 30
0.0
 10
43.109991
 20
270.375143
 30
0.0
  0
SPLINE
  5
10d
100
AcDbEntity
  8
Cut
 62
7
100
AcDbSpline
 70
8
 71
3
 72
8
 73
4
 74
0
 40
0
 40
0
 40
0
 40
0
 40
1
 40
1
 40
1
 40
1
 10
43.109991
 20
270.375143
 30
0.0
 10
43.993647
 20
270.375143
 30
0.0
 10
44.709991
 20
269.658798
 30
0.0
 10
44.709991
 20
268.775143
 30
0.0
  0
LWPOLYLINE
  5
10e
100
AcDbEntity
  8
Cut
 62
7
100
AcDbPolyline
 90
2
 70
0
 10
9.149989
 20
146.275139
 30
0.0
 10
9.149989
 20
146.275139
 30
0.0
  0
SPLINE
  5
10f
100
AcDbEntity
  8
Cut
 62
7
100
AcDbSpline
 70
8
 71
3
 72
8
 73
4
 74
0
 40
0
 40
0
 40
0
 40
0
 40
1
 40
1
 40
1
 40
1
 10
44.709991
 20
146.275139
 30
0.0
 10
44.709991
 20
145.391479
 30
0.0
 10
43.993647
 20
144.675139
 30
0.0
 10
43.109991
 20
144.675139
 30
0.0
  0
SPLINE
  5
110
100
AcDbEntity
  8
Cut
 62
7
100
AcDbSpline
 70
8
 71
3
 72
8
 73
4
 74
0
 40
0
 40
0
 40
0
 40
0
 40
1
 40
1
 40
1
 40
1
 10
43.109991
 20
144.675139
 30
0.0
 10
42.226336
 20
144.675139
 30
0.0
 10
41.509991
 20
145.391479
 30
0.0
 10
41.509991
 20
146.275139
 30
0.0
  0
SPLINE
  5
111
100
AcDbEntity
  8
Cut
 62
7
100
AcDbSpline
 70
8
 71
3
 72
8
 73
4
 74
0
 40
0
 40
0
 40
0
 40
0
 40
1
 40
1
 40
1
 40
1
 10
41.509991
 20
146.275139
 30
0.0
 10
41.509991
 20
147.158799
 30
0.0
 10
42.226336
 20
147.875139
 30
0.0
 10
43.109991
 20
147.875139
 30
0.0
  0
SPLINE
  5
112
100
AcDbEntity
  8
Cut
 62
7
100
AcDbSpline
 70
8
 71
3
 72
8
 73
4
 74
0
 40
0
 40
0
 40
0
 40
0
 40
1
 40
1
 40
1
 40
1
 10
43.109991
 20
147.875139
 30
0.0
 10
43.993647
 20
147.875139
 30
0.0
 10
44.709991
 20
147.158799
 30
0.0
 10
44.709991
 20
146.275139
 30
0.0
  0
LWPOLYLINE
  5
113
100
AcDbEntity
  8
Cut
 62
7
100
AcDbPolyline
 90
2
 70
0
 10
44.709991
 20
268.775143
 30
0.0
 10
44.709991
 20
268.775143
 30
0.0
  0
SPLINE
  5
114
100
AcDbEntity
  8
Cut
 62
7
100
AcDbSpline
 70
8
 71
3
 72
8
 73
4
 74
0
 40
0
 40
0
 40
0
 40
0
 40
1
 40
1
 40
1
 40
1
 10
12.603217
 20
250.438079
 30
0.0
 10
9.981245
 20
250.438079
 30
0.0
 10
7.848610
 20
248.314749
 30
0.0
 10
7.848610
 20
245.692775
 30
0.0
  0
SPLINE
  5
115
100
AcDbEntity
  8
Cut
 62
7
100
AcDbSpline
 70
8
 71
3
 72
8
 73
4
 74
0
 40
0
 40
0
 40
0
 40
0
 40
1
 40
1
 40
1
 40
1
 10
7.848610
 20
245.692775
 30
0.0
 10
7.848610
 20
243.549032
 30
0.0
 10
9.274778
 20
241.732497
 30
0.0
 10
11.226149
 20
241.142867
 30
0.0
  0
LWPOLYLINE
  5
116
100
AcDbEntity
  8
Cut
 62
7
100
AcDbPolyline
 90
2
 70
0
 10
44.709991
 20
146.275139
 30
0.0
 10
44.709991
 20
146.275139
 30
0.0
  0
SPLINE
  5
117
100
AcDbEntity
  8
Cut
 62
7
100
AcDbSpline
 70
8
 71
3
 72
8
 73
4
 74
0
 40
0
 40
0
 40
0
 40
0
 40
1
 40
1
 40
1
 40
1
 10
13.868631
 20
241.114955
 30
0.0
 10
15.872074
 20
241.671548
 30
0.0
 10
17.348519
 20
243.512007
 30
0.0
 10
17.348519
 20
245.692775
 30
0.0
  0
SPLINE
  5
118
100
AcDbEntity
  8
Cut
 62
7
100
AcDbSpline
 70
8
 71
3
 72
8
 73
4
 74
0
 40
0
 40
0
 40
0
 40
0
 40
1
 40
1
 40
1
 40
1
 10
17.348519
 20
245.692775
 30
0.0
 10
17.348519
 20
248.314749
 30
0.0
 10
15.225189
 20
250.438079
 30
0.0
 10
12.603217
 20
250.438079
 30
0.0
  0
LWPOLYLINE
  5
119
100
AcDbEntity
  8
Cut
 62
7
100
AcDbPolyline
 90
4
 70
0
 10
11.226149
 20
241.142867
 30
0.0
 10
11.226149
 20
238.463167
 30
0.0
 10
13.868631
 20
238.463167
 30
0.0
 10
13.868631
 20
241.114955
 30
0.0
  0
SPLINE
  5
11a
100
AcDbEntity
  8
Cut
 62
7
100
AcDbSpline
 70
8
 71
3
 72
8
 73
4
 74
0
 40
0
 40
0
 40
0
 40
0
 40
1
 40
1
 40
1
 40
1
 10
26.799989
 20
213.875139
 30
0.0
 10
26.799989
 20
213.046712
 30
0.0
 10
26.128416
 20
212.375139
 30
0.0
 10
25.299989
 20
212.375139
 30
0.0
  0
SPLINE
  5
11b
100
AcDbEntity
  8
Cut
 62
7
100
AcDbSpline
 70
8
 71
3
 72
8
 73
4
 74
0
 40
0
 40
0
 40
0
 40
0
 40
1
 40
1
 40
1
 40
1
 10
25.299989
 20
212.375139
 30
0.0
 10
24.471562
 20
212.375139
 30
0.0
 10
23.799989
 20
213.046712
 30
0.0
 10
23.799989
 20
213.875139
 30
0.0
  0
SPLINE
  5
11c
100
AcDbEntity
  8
Cut
 62
7
100
AcDbSpline
 70
8
 71
3
 72
8
 73
4
 74
0
 40
0
 40
0
 40
0
 40
0
 40
1
 40
1
 40
1
 40
1
 10
23.799989
 20
213.875139
 30
0.0
 10
23.799989
 20
214.703567
 30
0.0
 10
24.471562
 20
215.375139
 30
0.0
 10
25.299989
 20
215.375139
 30
0.0
  0
SPLINE
  5
11d
100
AcDbEntity
  8
Cut
 62
7
100
AcDbSpline
 70
8
 71
3
 72
8
 73
4
 74
0
 40
0
 40
0
 40
0
 40
0
 40
1
 40
1
 40
1
 40
1
 10
25.299989
 20
215.375139
 30
0.0
 10
26.128416
 20
215.375139
 30
0.0
 10
26.799989
 20
214.703567
 30
0.0
 10
26.799989
 20
213.875139
 30
0.0
  0
LWPOLYLINE
  5
11e
100
AcDbEntity
  8
Cut
 62
7
100
AcDbPolyline
 90
2
 70
0
 10
12.603217
 20
250.438079
 30
0.0
 10
12.603217
 20
250.438079
 30
0.0
  0
SPLINE
  5
11f
100
AcDbEntity
  8
Cut
 62
7
100
AcDbSpline
 70
8
 71
3
 72
8
 73
4
 74
0
 40
0
 40
0
 40
0
 40
0
 40
1
 40
1
 40
1
 40
1
 10
14.099989
 20
201.175143
 30
0.0
 10
14.099989
 20
200.346715
 30
0.0
 10
13.428416
 20
199.675143
 30
0.0
 10
12.599989
 20
199.675143
 30
0.0
  0
SPLINE
  5
120
100
AcDbEntity
  8
Cut
 62
7
100
AcDbSpline
 70
8
 71
3
 72
8
 73
4
 74
0
 40
0
 40
0
 40
0
 40
0
 40
1
 40
1
 40
1
 40
1
 10
12.599989
 20
199.675143
 30
0.0
 10
11.771562
 20
199.675143
 30
0.0
 10
11.099989
 20
200.346715
 30
0.0
 10
11.099989
 20
201.175143
 30
0.0
  0
SPLINE
  5
121
100
AcDbEntity
  8
Cut
 62
7
100
AcDbSpline
 70
8
 71
3
 72
8
 73
4
 74
0
 40
0
 40
0
 40
0
 40
0
 40
1
 40
1
 40
1
 40
1
 10
11.099989
 20
201.175143
 30
0.0
 10
11.099989
 20
202.003570
 30
0.0
 10
11.771562
 20
202.675143
 30
0.0
 10
12.599989
 20
202.675143
 30
0.0
  0
SPLINE
  5
122
100
AcDbEntity
  8
Cut
 62
7
100
AcDbSpline
 70
8
 71
3
 72
8
 73
4
 74
0
 40
0
 40
0
 40
0
 40
0
 40
1
 40
1
 40
1
 40
1
 10
12.599989
 20
202.675143
 30
0.0
 10
13.428416
 20
202.675143
 30
0.0
 10
14.099989
 20
202.003570
 30
0.0
 10
14.099989
 20
201.175143
 30
0.0
  0
LWPOLYLINE
  5
123
100
AcDbEntity
  8
Cut
 62
7
100
AcDbPolyline
 90
2
 70
0
 10
26.799989
 20
213.875139
 30
0.0
 10
26.799989
 20
213.875139
 30
0.0
  0
SPLINE
  5
124
100
AcDbEntity
  8
Cut
 62
7
100
AcDbSpline
 70
8
 71
3
 72
8
 73
4
 74
0
 40
0
 40
0
 40
0
 40
0
 40
1
 40
1
 40
1
 40
1
 10
39.499991
 20
201.175143
 30
0.0
 10
39.499991
 20
200.346715
 30
0.0
 10
38.828418
 20
199.675143
 30
0.0
 10
37.999991
 20
199.675143
 30
0.0
  0
SPLINE
  5
125
100
AcDbEntity
  8
Cut
 62
7
100
AcDbSpline
 70
8
 71
3
 72
8
 73
4
 74
0
 40
0
 40
0
 40
0
 40
0
 40
1
 40
1
 40
1
 40
1
 10
37.999991
 20
199.675143
 30
0.0
 10
37.171564
 20
199.675143
 30
0.0
 10
36.499990
 20
200.346715
 30
0.0
 10
36.499990
 20
201.175143
 30
0.0
  0
SPLINE
  5
126
100
AcDbEntity
  8
Cut
 62
7
100
AcDbSpline
 70
8
 71
3
 72
8
 73
4
 74
0
 40
0
 40
0
 40
0
 40
0
 40
1
 40
1
 40
1
 40
1
 10
36.499990
 20
201.175143
 30
0.0
 10
36.499990
 20
202.003570
 30
0.0
 10
37.171564
 20
202.675143
 30
0.0
 10
37.999991
 20
202.675143
 30
0.0
  0
SPLINE
  5
127
100
AcDbEntity
  8
Cut
 62
7
100
AcDbSpline
 70
8
 71
3
 72
8
 73
4
 74
0
 40
0
 40
0
 40
0
 40
0
 40
1
 40
1
 40
1
 40
1
 10
37.999991
 20
202.675143
 30
0.0
 10
38.828418
 20
202.675143
 30
0.0
 10
39.499991
 20
202.003570
 30
0.0
 10
39.499991
 20
201.175143
 30
0.0
  0
LWPOLYLINE
  5
128
100
AcDbEntity
  8
Cut
 62
7
100
AcDbPolyline
 90
2
 70
0
 10
14.099989
 20
201.175143
 30
0.0
 10
14.099989
 20
201.175143
 30
0.0
  0
SPLINE
  5
129
100
AcDbEntity
  8
Cut
 62
7
100
AcDbSpline
 70
8
 71
3
 72
8
 73
4
 74
0
 40
0
 40
0
 40
0
 40
0
 40
1
 40
1
 40
1
 40
1
 10
28.549889
 20
201.175143
 30
0.0
 10
28.549889
 20
199.380272
 30
0.0
 10
27.094859
 20
197.925243
 30
0.0
 10
25.299989
 20
197.925243
 30
0.0
  0
SPLINE
  5
12a
100
AcDbEntity
  8
Cut
 62
7
100
AcDbSpline
 70
8
 71
3
 72
8
 73
4
 74
0
 40
0
 40
0
 40
0
 40
0
 40
1
 40
1
 40
1
 40
1
 10
25.299989
 20
197.925243
 30
0.0
 10
23.505119
 20
197.925243
 30
0.0
 10
22.050089
 20
199.380272
 30
0.0
 10
22.050089
 20
201.175143
 30
0.0
  0
SPLINE
  5
12b
100
AcDbEntity
  8
Cut
 62
7
100
AcDbSpline
 70
8
 71
3
 72
8
 73
4
 74
0
 40
0
 40
0
 40
0
 40
0
 40
1
 40
1
 40
1
 40
1
 10
22.050089
 20
201.175143
 30
0.0
 10
22.050089
 20
202.970013
 30
0.0
 10
23.505119
 20
204.425043
 30
0.0
 10
25.299989
 20
204.425043
 30
0.0
  0
SPLINE
  5
12c
100
AcDbEntity
  8
Cut
 62
7
100
AcDbSpline
 70
8
 71
3
 72
8
 73
4
 74
0
 40
0
 40
0
 40
0
 40
0
 40
1
 40
1
 40
1
 40
1
 10
25.299989
 20
204.425043
 30
0.0
 10
27.094859
 20
204.425043
 30
0.0
 10
28.549889
 20
202.970013
 30
0.0
 10
28.549889
 20
201.175143
 30
0.0
  0
LWPOLYLINE
  5
12d
100
AcDbEntity
  8
Cut
 62
7
100
AcDbPolyline
 90
2
 70
0
 10
39.499991
 20
201.175143
 30
0.0
 10
39.499991
 20
201.175143
 30
0.0
  0
SPLINE
  5
12e
100
AcDbEntity
  8
Cut
 62
7
100
AcDbSpline
 70
8
 71
3
 72
8
 73
4
 74
0
 40
0
 40
0
 40
0
 40
0
 40
1
 40
1
 40
1
 40
1
 10
15.849889
 20
188.475137
 30
0.0
 10
15.849889
 20
186.680267
 30
0.0
 10
14.394859
 20
185.225237
 30
0.0
 10
12.599989
 20
185.225237
 30
0.0
  0
SPLINE
  5
12f
100
AcDbEntity
  8
Cut
 62
7
100
AcDbSpline
 70
8
 71
3
 72
8
 73
4
 74
0
 40
0
 40
0
 40
0
 40
0
 40
1
 40
1
 40
1
 40
1
 10
12.599989
 20
185.225237
 30
0.0
 10
10.805119
 20
185.225237
 30
0.0
 10
9.350089
 20
186.680267
 30
0.0
 10
9.350089
 20
188.475137
 30
0.0
  0
SPLINE
  5
130
100
AcDbEntity
  8
Cut
 62
7
100
AcDbSpline
 70
8
 71
3
 72
8
 73
4
 74
0
 40
0
 40
0
 40
0
 40
0
 40
1
 40
1
 40
1
 40
1
 10
9.350089
 20
188.475137
 30
0.0
 10
9.350089
 20
190.270007
 30
0.0
 10
10.805119
 20
191.725037
 30
0.0
 10
12.599989
 20
191.725037
 30
0.0
  0
SPLINE
  5
131
100
AcDbEntity
  8
Cut
 62
7
100
AcDbSpline
 70
8
 71
3
 72
8
 73
4
 74
0
 40
0
 40
0
 40
0
 40
0
 40
1
 40
1
 40
1
 40
1
 10
12.599989
 20
191.725037
 30
0.0
 10
14.394859
 20
191.725037
 30
0.0
 10
15.849889
 20
190.270007
 30
0.0
 10
15.849889
 20
188.475137
 30
0.0
  0
LWPOLYLINE
  5
132
100
AcDbEntity
  8
Cut
 62
7
100
AcDbPolyline
 90
2
 70
0
 10
28.549889
 20
201.175143
 30
0.0
 10
28.549889
 20
201.175143
 30
0.0
  0
SPLINE
  5
133
100
AcDbEntity
  8
Cut
 62
7
100
AcDbSpline
 70
8
 71
3
 72
8
 73
4
 74
0
 40
0
 40
0
 40
0
 40
0
 40
1
 40
1
 40
1
 40
1
 10
41.249891
 20
188.475137
 30
0.0
 10
41.249891
 20
186.680267
 30
0.0
 10
39.794861
 20
185.225237
 30
0.0
 10
37.999991
 20
185.225237
 30
0.0
  0
SPLINE
  5
134
100
AcDbEntity
  8
Cut
 62
7
100
AcDbSpline
 70
8
 71
3
 72
8
 73
4
 74
0
 40
0
 40
0
 40
0
 40
0
 40
1
 40
1
 40
1
 40
1
 10
37.999991
 20
185.225237
 30
0.0
 10
36.205121
 20
185.225237
 30
0.0
 10
34.750091
 20
186.680267
 30
0.0
 10
34.750091
 20
188.475137
 30
0.0
  0
SPLINE
  5
135
100
AcDbEntity
  8
Cut
 62
7
100
AcDbSpline
 70
8
 71
3
 72
8
 73
4
 74
0
 40
0
 40
0
 40
0
 40
0
 40
1
 40
1
 40
1
 40
1
 10
34.750091
 20
188.475137
 30
0.0
 10
34.750091
 20
190.270007
 30
0.0
 10
36.205121
 20
191.725037
 30
0.0
 10
37.999991
 20
191.725037
 30
0.0
  0
SPLINE
  5
136
100
AcDbEntity
  8
Cut
 62
7
100
AcDbSpline
 70
8
 71
3
 72
8
 73
4
 74
0
 40
0
 40
0
 40
0
 40
0
 40
1
 40
1
 40
1
 40
1
 10
37.999991
 20
191.725037
 30
0.0
 10
39.794861
 20
191.725037
 30
0.0
 10
41.249891
 20
190.270007
 30
0.0
 10
41.249891
 20
188.475137
 30
0.0
  0
LWPOLYLINE
  5
137
100
AcDbEntity
  8
Cut
 62
7
100
AcDbPolyline
 90
2
 70
0
 10
15.849889
 20
188.475137
 30
0.0
 10
15.849889
 20
188.475137
 30
0.0
  0
SPLINE
  5
138
100
AcDbEntity
  8
Cut
 62
7
100
AcDbSpline
 70
8
 71
3
 72
8
 73
4
 74
0
 40
0
 40
0
 40
0
 40
0
 40
1
 40
1
 40
1
 40
1
 10
15.849889
 20
175.775140
 30
0.0
 10
15.849889
 20
173.980270
 30
0.0
 10
14.394859
 20
172.525240
 30
0.0
 10
12.599989
 20
172.525240
 30
0.0
  0
SPLINE
  5
139
100
AcDbEntity
  8
Cut
 62
7
100
AcDbSpline
 70
8
 71
3
 72
8
 73
4
 74
0
 40
0
 40
0
 40
0
 40
0
 40
1
 40
1
 40
1
 40
1
 10
12.599989
 20
172.525240
 30
0.0
 10
10.805119
 20
172.525240
 30
0.0
 10
9.350089
 20
173.980270
 30
0.0
 10
9.350089
 20
175.775140
 30
0.0
  0
SPLINE
  5
13a
100
AcDbEntity
  8
Cut
 62
7
100
AcDbSpline
 70
8
 71
3
 72
8
 73
4
 74
0
 40
0
 40
0
 40
0
 40
0
 40
1
 40
1
 40
1
 40
1
 10
9.350089
 20
175.775140
 30
0.0
 10
9.350089
 20
177.570010
 30
0.0
 10
10.805119
 20
179.025040
 30
0.0
 10
12.599989
 20
179.025040
 30
0.0
  0
SPLINE
  5
13b
100
AcDbEntity
  8
Cut
 62
7
100
AcDbSpline
 70
8
 71
3
 72
8
 73
4
 74
0
 40
0
 40
0
 40
0
 40
0
 40
1
 40
1
 40
1
 40
1
 10
12.599989
 20
179.025040
 30
0.0
 10
14.394859
 20
179.025040
 30
0.0
 10
15.849889
 20
177.570010
 30
0.0
 10
15.849889
 20
175.775140
 30
0.0
  0
LWPOLYLINE
  5
13c
100
AcDbEntity
  8
Cut
 62
7
100
AcDbPolyline
 90
2
 70
0
 10
41.249891
 20
188.475137
 30
0.0
 10
41.249891
 20
188.475137
 30
0.0
  0
SPLINE
  5
13d
100
AcDbEntity
  8
Cut
 62
7
100
AcDbSpline
 70
8
 71
3
 72
8
 73
4
 74
0
 40
0
 40
0
 40
0
 40
0
 40
1
 40
1
 40
1
 40
1
 10
28.549889
 20
175.775140
 30
0.0
 10
28.549889
 20
173.980270
 30
0.0
 10
27.094859
 20
172.525240
 30
0.0
 10
25.299989
 20
172.525240
 30
0.0
  0
SPLINE
  5
13e
100
AcDbEntity
  8
Cut
 62
7
100
AcDbSpline
 70
8
 71
3
 72
8
 73
4
 74
0
 40
0
 40
0
 40
0
 40
0
 40
1
 40
1
 40
1
 40
1
 10
25.299989
 20
172.525240
 30
0.0
 10
23.505119
 20
172.525240
 30
0.0
 10
22.050089
 20
173.980270
 30
0.0
 10
22.050089
 20
175.775140
 30
0.0
  0
SPLINE
  5
13f
100
AcDbEntity
  8
Cut
 62
7
100
AcDbSpline
 70
8
 71
3
 72
8
 73
4
 74
0
 40
0
 40
0
 40
0
 40
0
 40
1
 40
1
 40
1
 40
1
 10
22.050089
 20
175.775140
 30
0.0
 10
22.050089
 20
177.570010
 30
0.0
 10
23.505119
 20
179.025040
 30
0.0
 10
25.299989
 20
179.025040
 30
0.0
  0
SPLINE
  5
140
100
AcDbEntity
  8
Cut
 62
7
100
AcDbSpline
 70
8
 71
3
 72
8
 73
4
 74
0
 40
0
 40
0
 40
0
 40
0
 40
1
 40
1
 40
1
 40
1
 10
25.299989
 20
179.025040
 30
0.0
 10
27.094859
 20
179.025040
 30
0.0
 10
28.549889
 20
177.570010
 30
0.0
 10
28.549889
 20
175.775140
 30
0.0
  0
LWPOLYLINE
  5
141
100
AcDbEntity
  8
Cut
 62
7
100
AcDbPolyline
 90
2
 70
0
 10
15.849889
 20
175.775140
 30
0.0
 10
15.849889
 20
175.775140
 30
0.0
  0
SPLINE
  5
142
100
AcDbEntity
  8
Cut
 62
7
100
AcDbSpline
 70
8
 71
3
 72
8
 73
4
 74
0
 40
0
 40
0
 40
0
 40
0
 40
1
 40
1
 40
1
 40
1
 10
41.249891
 20
175.775140
 30
0.0
 10
41.249891
 20
173.980270
 30
0.0
 10
39.794861
 20
172.525240
 30
0.0
 10
37.999991
 20
172.525240
 30
0.0
  0
SPLINE
  5
143
100
AcDbEntity
  8
Cut
 62
7
100
AcDbSpline
 70
8
 71
3
 72
8
 73
4
 74
0
 40
0
 40
0
 40
0
 40
0
 40
1
 40
1
 40
1
 40
1
 10
37.999991
 20
172.525240
 30
0.0
 10
36.205121
 20
172.525240
 30
0.0
 10
34.750091
 20
173.980270
 30
0.0
 10
34.750091
 20
175.775140
 30
0.0
  0
SPLINE
  5
144
100
AcDbEntity
  8
Cut
 62
7
100
AcDbSpline
 70
8
 71
3
 72
8
 73
4
 74
0
 40
0
 40
0
 40
0
 40
0
 40
1
 40
1
 40
1
 40
1
 10
34.750091
 20
175.775140
 30
0.0
 10
34.750091
 20
177.570010
 30
0.0
 10
36.205121
 20
179.025040
 30
0.0
 10
37.999991
 20
179.025040
 30
0.0
  0
SPLINE
  5
145
100
AcDbEntity
  8
Cut
 62
7
100
AcDbSpline
 70
8
 71
3
 72
8
 73
4
 74
0
 40
0
 40
0
 40
0
 40
0
 40
1
 40
1
 40
1
 40
1
 10
37.999991
 20
179.025040
 30
0.0
 10
39.794861
 20
179.025040
 30
0.0
 10
41.249891
 20
177.570010
 30
0.0
 10
41.249891
 20
175.775140
 30
0.0
  0
LWPOLYLINE
  5
146
100
AcDbEntity
  8
Cut
 62
7
100
AcDbPolyline
 90
2
 70
0
 10
28.549889
 20
175.775140
 30
0.0
 10
28.549889
 20
175.775140
 30
0.0
  0
SPLINE
  5
147
100
AcDbEntity
  8
Cut
 62
7
100
AcDbSpline
 70
8
 71
3
 72
8
 73
4
 74
0
 40
0
 40
0
 40
0
 40
0
 40
1
 40
1
 40
1
 40
1
 10
15.849889
 20
163.075139
 30
0.0
 10
15.849889
 20
161.280274
 30
0.0
 10
14.394859
 20
159.825239
 30
0.0
 10
12.599989
 20
159.825239
 30
0.0
  0
SPLINE
  5
148
100
AcDbEntity
  8
Cut
 62
7
100
AcDbSpline
 70
8
 71
3
 72
8
 73
4
 74
0
 40
0
 40
0
 40
0
 40
0
 40
1
 40
1
 40
1
 40
1
 10
12.599989
 20
159.825239
 30
0.0
 10
10.805119
 20
159.825239
 30
0.0
 10
9.350089
 20
161.280274
 30
0.0
 10
9.350089
 20
163.075139
 30
0.0
  0
SPLINE
  5
149
100
AcDbEntity
  8
Cut
 62
7
100
AcDbSpline
 70
8
 71
3
 72
8
 73
4
 74
0
 40
0
 40
0
 40
0
 40
0
 40
1
 40
1
 40
1
 40
1
 10
9.350089
 20
163.075139
 30
0.0
 10
9.350089
 20
164.870016
 30
0.0
 10
10.805119
 20
166.325040
 30
0.0
 10
12.599989
 20
166.325040
 30
0.0
  0
SPLINE
  5
14a
100
AcDbEntity
  8
Cut
 62
7
100
AcDbSpline
 70
8
 71
3
 72
8
 73
4
 74
0
 40
0
 40
0
 40
0
 40
0
 40
1
 40
1
 40
1
 40
1
 10
12.599989
 20
166.325040
 30
0.0
 10
14.394859
 20
166.325040
 30
0.0
 10
15.849889
 20
164.870016
 30
0.0
 10
15.849889
 20
163.075139
 30
0.0
  0
LWPOLYLINE
  5
14b
100
AcDbEntity
  8
Cut
 62
7
100
AcDbPolyline
 90
2
 70
0
 10
41.249891
 20
175.775140
 30
0.0
 10
41.249891
 20
175.775140
 30
0.0
  0
SPLINE
  5
14c
100
AcDbEntity
  8
Cut
 62
7
100
AcDbSpline
 70
8
 71
3
 72
8
 73
4
 74
0
 40
0
 40
0
 40
0
 40
0
 40
1
 40
1
 40
1
 40
1
 10
28.549889
 20
163.075139
 30
0.0
 10
28.549889
 20
161.280274
 30
0.0
 10
27.094859
 20
159.825239
 30
0.0
 10
25.299989
 20
159.825239
 30
0.0
  0
SPLINE
  5
14d
100
AcDbEntity
  8
Cut
 62
7
100
AcDbSpline
 70
8
 71
3
 72
8
 73
4
 74
0
 40
0
 40
0
 40
0
 40
0
 40
1
 40
1
 40
1
 40
1
 10
25.299989
 20
159.825239
 30
0.0
 10
23.505119
 20
159.825239
 30
0.0
 10
22.050089
 20
161.280274
 30
0.0
 10
22.050089
 20
163.075139
 30
0.0
  0
SPLINE
  5
14e
100
AcDbEntity
  8
Cut
 62
7
100
AcDbSpline
 70
8
 71
3
 72
8
 73
4
 74
0
 40
0
 40
0
 40
0
 40
0
 40
1
 40
1
 40
1
 40
1
 10
22.050089
 20
163.075139
 30
0.0
 10
22.050089
 20
164.870016
 30
0.0
 10
23.505119
 20
166.325040
 30
0.0
 10
25.299989
 20
166.325040
 30
0.0
  0
SPLINE
  5
14f
100
AcDbEntity
  8
Cut
 62
7
100
AcDbSpline
 70
8
 71
3
 72
8
 73
4
 74
0
 40
0
 40
0
 40
0
 40
0
 40
1
 40
1
 40
1
 40
1
 10
25.299989
 20
166.325040
 30
0.0
 10
27.094859
 20
166.325040
 30
0.0
 10
28.549889
 20
164.870016
 30
0.0
 10
28.549889
 20
163.075139
 30
0.0
  0
LWPOLYLINE
  5
150
100
AcDbEntity
  8
Cut
 62
7
100
AcDbPolyline
 90
2
 70
0
 10
15.849889
 20
163.075139
 30
0.0
 10
15.849889
 20
163.075139
 30
0.0
  0
SPLINE
  5
151
100
AcDbEntity
  8
Cut
 62
7
100
AcDbSpline
 70
8
 71
3
 72
8
 73
4
 74
0
 40
0
 40
0
 40
0
 40
0
 40
1
 40
1
 40
1
 40
1
 10
41.249891
 20
163.075139
 30
0.0
 10
41.249891
 20
161.280274
 30
0.0
 10
39.794861
 20
159.825239
 30
0.0
 10
37.999991
 20
159.825239
 30
0.0
  0
SPLINE
  5
152
100
AcDbEntity
  8
Cut
 62
7
100
AcDbSpline
 70
8
 71
3
 72
8
 73
4
 74
0
 40
0
 40
0
 40
0
 40
0
 40
1
 40
1
 40
1
 40
1
 10
37.999991
 20
159.825239
 30
0.0
 10
36.205121
 20
159.825239
 30
0.0
 10
34.750091
 20
161.280274
 30
0.0
 10
34.750091
 20
163.075139
 30
0.0
  0
SPLINE
  5
153
100
AcDbEntity
  8
Cut
 62
7
100
AcDbSpline
 70
8
 71
3
 72
8
 73
4
 74
0
 40
0
 40
0
 40
0
 40
0
 40
1
 40
1
 40
1
 40
1
 10
34.750091
 20
163.075139
 30
0.0
 10
34.750091
 20
164.870016
 30
0.0
 10
36.205121
 20
166.325040
 30
0.0
 10
37.999991
 20
166.325040
 30
0.0
  0
SPLINE
  5
154
100
AcDbEntity
  8
Cut
 62
7
100
AcDbSpline
 70
8
 71
3
 72
8
 73
4
 74
0
 40
0
 40
0
 40
0
 40
0
 40
1
 40
1
 40
1
 40
1
 10
37.999991
 20
166.325040
 30
0.0
 10
39.794861
 20
166.325040
 30
0.0
 10
41.249891
 20
164.870016
 30
0.0
 10
41.249891
 20
163.075139
 30
0.0
  0
LWPOLYLINE
  5
155
100
AcDbEntity
  8
Cut
 62
7
100
AcDbPolyline
 90
2
 70
0
 10
28.549889
 20
163.075139
 30
0.0
 10
28.549889
 20
163.075139
 30
0.0
  0
SPLINE
  5
156
100
AcDbEntity
  8
Cut
 62
7
100
AcDbSpline
 70
8
 71
3
 72
8
 73
4
 74
0
 40
0
 40
0
 40
0
 40
0
 40
1
 40
1
 40
1
 40
1
 10
38.007076
 20
250.438079
 30
0.0
 10
35.385104
 20
250.438079
 30
0.0
 10
33.252469
 20
248.314749
 30
0.0
 10
33.252469
 20
245.692775
 30
0.0
  0
SPLINE
  5
157
100
AcDbEntity
  8
Cut
 62
7
100
AcDbSpline
 70
8
 71
3
 72
8
 73
4
 74
0
 40
0
 40
0
 40
0
 40
0
 40
1
 40
1
 40
1
 40
1
 10
33.252469
 20
245.692775
 30
0.0
 10
33.252469
 20
243.549032
 30
0.0
 10
34.678637
 20
241.732497
 30
0.0
 10
36.630006
 20
241.142867
 30
0.0
  0
LWPOLYLINE
  5
158
100
AcDbEntity
  8
Cut
 62
7
100
AcDbPolyline
 90
2
 70
0
 10
41.249891
 20
163.075139
 30
0.0
 10
41.249891
 20
163.075139
 30
0.0
  0
SPLINE
  5
159
100
AcDbEntity
  8
Cut
 62
7
100
AcDbSpline
 70
8
 71
3
 72
8
 73
4
 74
0
 40
0
 40
0
 40
0
 40
0
 40
1
 40
1
 40
1
 40
1
 10
39.272489
 20
241.114955
 30
0.0
 10
41.275934
 20
241.671548
 30
0.0
 10
42.752377
 20
243.512007
 30
0.0
 10
42.752377
 20
245.692775
 30
0.0
  0
SPLINE
  5
15a
100
AcDbEntity
  8
Cut
 62
7
100
AcDbSpline
 70
8
 71
3
 72
8
 73
4
 74
0
 40
0
 40
0
 40
0
 40
0
 40
1
 40
1
 40
1
 40
1
 10
42.752377
 20
245.692775
 30
0.0
 10
42.752377
 20
248.314749
 30
0.0
 10
40.629050
 20
250.438079
 30
0.0
 10
38.007076
 20
250.438079
 30
0.0
  0
LWPOLYLINE
  5
15b
100
AcDbEntity
  8
Cut
 62
7
100
AcDbPolyline
 90
4
 70
0
 10
36.630006
 20
241.142867
 30
0.0
 10
36.630006
 20
238.463167
 30
0.0
 10
39.272489
 20
238.463167
 30
0.0
 10
39.272489
 20
241.114955
 30
0.0
  0
SPLINE
  5
15c
100
AcDbEntity
  8
Cut
 62
7
100
AcDbSpline
 70
8
 71
3
 72
8
 73
4
 74
0
 40
0
 40
0
 40
0
 40
0
 40
1
 40
1
 40
1
 40
1
 10
12.607074
 20
231.396266
 30
0.0
 10
9.985104
 20
231.396266
 30
0.0
 10
7.852468
 20
229.272936
 30
0.0
 10
7.852468
 20
226.650962
 30
0.0
  0
SPLINE
  5
15d
100
AcDbEntity
  8
Cut
 62
7
100
AcDbSpline
 70
8
 71
3
 72
8
 73
4
 74
0
 40
0
 40
0
 40
0
 40
0
 40
1
 40
1
 40
1
 40
1
 10
7.852468
 20
226.650962
 30
0.0
 10
7.852468
 20
224.507219
 30
0.0
 10
9.278637
 20
222.690684
 30
0.0
 10
11.230006
 20
222.101054
 30
0.0
  0
LWPOLYLINE
  5
15e
100
AcDbEntity
  8
Cut
 62
7
100
AcDbPolyline
 90
2
 70
0
 10
38.007076
 20
250.438079
 30
0.0
 10
38.007076
 20
250.438079
 30
0.0
  0
SPLINE
  5
15f
100
AcDbEntity
  8
Cut
 62
7
100
AcDbSpline
 70
8
 71
3
 72
8
 73
4
 74
0
 40
0
 40
0
 40
0
 40
0
 40
1
 40
1
 40
1
 40
1
 10
13.872488
 20
222.073143
 30
0.0
 10
15.875933
 20
222.629736
 30
0.0
 10
17.352377
 20
224.470194
 30
0.0
 10
17.352377
 20
226.650962
 30
0.0
  0
SPLINE
  5
160
100
AcDbEntity
  8
Cut
 62
7
100
AcDbSpline
 70
8
 71
3
 72
8
 73
4
 74
0
 40
0
 40
0
 40
0
 40
0
 40
1
 40
1
 40
1
 40
1
 10
17.352377
 20
226.650962
 30
0.0
 10
17.352377
 20
229.272936
 30
0.0
 10
15.229048
 20
231.396266
 30
0.0
 10
12.607074
 20
231.396266
 30
0.0
  0
LWPOLYLINE
  5
161
100
AcDbEntity
  8
Cut
 62
7
100
AcDbPolyline
 90
4
 70
0
 10
11.230006
 20
222.101054
 30
0.0
 10
11.230006
 20
219.421354
 30
0.0
 10
13.872488
 20
219.421354
 30
0.0
 10
13.872488
 20
222.073143
 30
0.0
  0
SPLINE
  5
162
100
AcDbEntity
  8
Cut
 62
7
100
AcDbSpline
 70
8
 71
3
 72
8
 73
4
 74
0
 40
0
 40
0
 40
0
 40
0
 40
1
 40
1
 40
1
 40
1
 10
38.007076
 20
231.388079
 30
0.0
 10
35.385104
 20
231.388079
 30
0.0
 10
33.252469
 20
229.264749
 30
0.0
 10
33.252469
 20
226.642775
 30
0.0
  0
SPLINE
  5
163
100
AcDbEntity
  8
Cut
 62
7
100
AcDbSpline
 70
8
 71
3
 72
8
 73
4
 74
0
 40
0
 40
0
 40
0
 40
0
 40
1
 40
1
 40
1
 40
1
 10
33.252469
 20
226.642775
 30
0.0
 10
33.252469
 20
224.499032
 30
0.0
 10
34.678637
 20
222.682497
 30
0.0
 10
36.630006
 20
222.092867
 30
0.0
  0
LWPOLYLINE
  5
164
100
AcDbEntity
  8
Cut
 62
7
100
AcDbPolyline
 90
2
 70
0
 10
12.607074
 20
231.396266
 30
0.0
 10
12.607074
 20
231.396266
 30
0.0
  0
SPLINE
  5
165
100
AcDbEntity
  8
Cut
 62
7
100
AcDbSpline
 70
8
 71
3
 72
8
 73
4
 74
0
 40
0
 40
0
 40
0
 40
0
 40
1
 40
1
 40
1
 40
1
 10
39.272489
 20
222.064955
 30
0.0
 10
41.275934
 20
222.621548
 30
0.0
 10
42.752377
 20
224.462007
 30
0.0
 10
42.752377
 20
226.642775
 30
0.0
  0
SPLINE
  5
166
100
AcDbEntity
  8
Cut
 62
7
100
AcDbSpline
 70
8
 71
3
 72
8
 73
4
 74
0
 40
0
 40
0
 40
0
 40
0
 40
1
 40
1
 40
1
 40
1
 10
42.752377
 20
226.642775
 30
0.0
 10
42.752377
 20
229.264749
 30
0.0
 10
40.629050
 20
231.388079
 30
0.0
 10
38.007076
 20
231.388079
 30
0.0
  0
LWPOLYLINE
  5
167
100
AcDbEntity
  8
Cut
 62
7
100
AcDbPolyline
 90
4
 70
0
 10
36.630006
 20
222.092867
 30
0.0
 10
36.630006
 20
219.413167
 30
0.0
 10
39.272489
 20
219.413167
 30
0.0
 10
39.272489
 20
222.064955
 30
0.0
  0
LWPOLYLINE
  5
168
100
AcDbEntity
  8
Cut
 62
7
100
AcDbPolyline
 90
2
 70
0
 10
38.007076
 20
231.388079
 30
0.0
 10
38.007076
 20
231.388079
 30
0.0
  0
ENDSEC
  0
SECTION
  2
OBJECTS
  0
DICTIONARY
  5
C
330
0
100
AcDbDictionary
  3
ACAD_GROUP
350
D
  3
ACAD_MLINESTYLE
350
17
  0
DICTIONARY
  5
D
330
C
100
AcDbDictionary
  0
DICTIONARY
  5
1A
330
C
100
AcDbDictionary
  0
DICTIONARY
  5
17
330
C
100
AcDbDictionary
  3
STANDARD
350
18
  0
DICTIONARY
  5
19
330
C
100
AcDbDictionary
  0
ENDSEC
  0
EOF
