<?xml version="1.0" encoding="UTF-8" standalone="no"?>
<!-- Created with Inkscape (http://www.inkscape.org/) -->

<svg
   xmlns:dc="http://purl.org/dc/elements/1.1/"
   xmlns:cc="http://creativecommons.org/ns#"
   xmlns:rdf="http://www.w3.org/1999/02/22-rdf-syntax-ns#"
   xmlns:svg="http://www.w3.org/2000/svg"
   xmlns="http://www.w3.org/2000/svg"
   xmlns:xlink="http://www.w3.org/1999/xlink"
   xmlns:sodipodi="http://sodipodi.sourceforge.net/DTD/sodipodi-0.dtd"
   xmlns:inkscape="http://www.inkscape.org/namespaces/inkscape"
   id="svg4373"
   version="1.1"
   inkscape:version="0.92.4 (5da689c313, 2019-01-14)"
   width="210mm"
   height="297mm"
   xml:space="preserve"
   sodipodi:docname="LogoiLabels.svg"><sodipodi:namedview
     pagecolor="#ffffff"
     bordercolor="#666666"
     borderopacity="1"
     objecttolerance="10"
     gridtolerance="10"
     guidetolerance="10"
     inkscape:pageopacity="0"
     inkscape:pageshadow="2"
     inkscape:window-width="1920"
     inkscape:window-height="1043"
     id="namedview4375"
     showgrid="false"
     inkscape:zoom="3.724952"
     inkscape:cx="80.319306"
     inkscape:cy="106.93686"
     inkscape:window-x="0"
     inkscape:window-y="0"
     inkscape:window-maximized="1"
     inkscape:current-layer="flowRoot3001"
     inkscape:document-units="mm"
     showguides="false"
     inkscape:guide-bbox="true"
     units="mm" /><metadata
     id="metadata4379"><rdf:RDF><cc:Work
         rdf:about=""><dc:format>image/svg+xml</dc:format><dc:type
           rdf:resource="http://purl.org/dc/dcmitype/StillImage" /><dc:title /></cc:Work></rdf:RDF></metadata><defs
     id="defs4377"><clipPath
       id="clipPath4387"
       clipPathUnits="userSpaceOnUse"><path
         id="path4389"
         d="M 0,0 H 595.276 V 841.89 H 0 Z"
         inkscape:connector-curvature="0" /></clipPath><clipPath
       id="clipPath4421"
       clipPathUnits="userSpaceOnUse"><path
         id="path4423"
         d="M 0,0 H 595.276 V 841.89 H 0 Z"
         inkscape:connector-curvature="0" /></clipPath><clipPath
       id="clipPath4443"
       clipPathUnits="userSpaceOnUse"><path
         id="path4445"
         d="M 0,0 H 595.276 V 841.89 H 0 Z"
         inkscape:connector-curvature="0" /></clipPath><clipPath
       id="clipPath7941"
       clipPathUnits="userSpaceOnUse"><path
         id="path7943"
         d="M 0,0 H 595.276 V 841.89 H 0 Z"
         inkscape:connector-curvature="0" /></clipPath><clipPath
       id="clipPath7975"
       clipPathUnits="userSpaceOnUse"><path
         id="path7977"
         d="M 0,0 H 595.276 V 841.89 H 0 Z"
         inkscape:connector-curvature="0" /></clipPath><clipPath
       id="clipPath7997"
       clipPathUnits="userSpaceOnUse"><path
         id="path7999"
         d="M 0,0 H 595.276 V 841.89 H 0 Z"
         inkscape:connector-curvature="0" /></clipPath></defs><g
     transform="matrix(1.25,0,0,-1.25,0,1122.5196)"
     inkscape:label="Label Planet LP21 70 Portrait"
     inkscape:groupmode="layer"
     id="g4381"
     style="display:inline"><g
       inkscape:tile-y0="912.55037"
       inkscape:tile-x0="22.281616"
       inkscape:tile-h="129.62935"
       inkscape:tile-w="203.15552"
       inkscape:tile-cy="977.36505"
       inkscape:tile-cx="123.85937"
       transform="matrix(1.0000045,0,0,1,0.22200192,-721.66836)"
       id="g4685"><g
         transform="matrix(0.68631727,0,0,-0.68631727,-29.93227,885.93549)"
         style="font-style:normal;font-variant:normal;font-weight:normal;font-stretch:normal;font-size:40px;line-height:125%;font-family:'More than human';-inkscape-font-specification:'More than human';text-align:start;letter-spacing:0px;word-spacing:0px;writing-mode:lr-tb;text-anchor:start;fill:#000000;fill-opacity:1;stroke:none"
         id="flowRoot2985"><path
           inkscape:connector-curvature="0"
           d="m 79.5375,81.455617 h -2.55 v 9.21 l 2.55,-1.29 v -7.92 m 1.2,-1.2 v 9.87 l -4.95,2.49 v -12.36 h 4.95 m -7.5,19.920003 -0.63,5.76 -0.57,-5.76 V 76.505617 h 12.45 v 15.93 l -2.97,1.5 2.97,1.56 v 4.680003 l -0.63,5.76 -0.57,-5.76 v -3.960003 l -4.38,-2.31 4.38,-2.19 v -14.01 h -10.05 v 22.470003 m 3.75,0 -0.63,5.76 -0.57,-5.76 v -4.890003 l 4.95,2.58 v 2.310003 l -0.63,5.76 -0.57,-5.76 v -1.590003 l -2.52,-1.32 v 2.910003 h -0.03"
           style="font-size:30px;line-height:125%;font-family:'More than human';-inkscape-font-specification:'More than human'"
           id="path3134" /><path
           inkscape:connector-curvature="0"
           d="m 100.13203,102.57562 -0.629999,5.76 -0.57,-5.76 v -6.120003 h -7.5 v -4.98 h 7.5 v -2.52 h -7.5 v -8.73 h 4.95 v 3.75 h 2.55 v -6.27 h -10.05 v 23.070003 l -0.63,5.76 -0.57,-5.76 V 76.505617 h 12.449999 v 8.67 h -4.949999 v -3.75 h -2.55 v 6.33 h 7.499999 v 4.92 h -7.499999 v 2.58 h 7.499999 v 7.320003"
           style="font-size:30px;line-height:125%;font-family:'More than human';-inkscape-font-specification:'More than human'"
           id="path3136" /><path
           inkscape:connector-curvature="0"
           d="m 110.70937,81.455617 h -2.55 v 5.46 l 2.55,-1.29 v -4.17 m 1.2,-1.2 v 6.12 l -4.95,2.49 v -8.61 h 4.95 m -1.2,14.55 -2.55,-1.29 v 1.71 h 2.55 v -0.42 m 1.2,-0.75 v 2.37 h -4.95 v -4.86 l 4.95,2.49 m 3.75,5.82 -0.62999,5.760003 -0.57001,-5.760003 v -7.41 l -4.37999,-2.31 4.37999,-2.19 v -10.26 h -10.05 v 24.570003 l -0.62999,5.76 -0.57001,-5.76 V 76.505617 h 12.45 v 12.18 l -2.97,1.5 2.97,1.56 v 8.13"
           style="font-size:30px;line-height:125%;font-family:'More than human';-inkscape-font-specification:'More than human'"
           id="path3139" /><path
           inkscape:connector-curvature="0"
           d="m 131.30391,102.57562 -0.63,5.76 -0.57,-5.76 v -6.120003 h -7.5 v -4.98 h 7.5 v -2.52 h -7.5 v -8.73 h 4.95 v 3.75 h 2.55 v -6.27 h -10.05 v 23.070003 l -0.63,5.76 -0.57,-5.76 V 76.505617 h 12.45 v 8.67 h -4.95 v -3.75 h -2.55 v 6.33 h 7.5 v 4.92 h -7.5 v 2.58 h 7.5 v 7.320003"
           style="font-size:30px;line-height:125%;font-family:'More than human';-inkscape-font-specification:'More than human'"
           id="path3141" /><path
           inkscape:connector-curvature="0"
           d="m 143.08125,99.575617 -0.63,5.760003 -0.57,-5.760003 v -3.12 h -3.75 v -18.75 h -2.55 v 24.570003 l -0.63,5.76 -0.57,-5.76 V 76.505617 h 4.95 v 18.75 h 3.75 v 4.32"
           style="font-size:30px;line-height:125%;font-family:'More than human';-inkscape-font-specification:'More than human'"
           id="path3143" /><path
           inkscape:connector-curvature="0"
           d="m 169.38984,100.17562 -0.63,5.76 -0.57,-5.76 V 80.225617 h 3.75 v -2.52 h -10.05 v 2.52 h 3.75 v 19.950003 l -0.63,5.76 -0.57,-5.76 V 81.425617 h -3.75 v -4.92 h 12.45 v 4.92 h -3.75 v 18.750003"
           style="font-size:30px;line-height:125%;font-family:'More than human';-inkscape-font-specification:'More than human'"
           id="path3145" /><path
           inkscape:connector-curvature="0"
           d="m 188.37422,102.57562 -0.63,5.76 -0.57,-5.76 v -6.120003 h -7.5 v -4.98 h 7.5 v -2.52 h -7.5 v -8.73 h 4.95 v 3.75 h 2.55 v -6.27 h -10.05 v 23.070003 l -0.63,5.76 -0.57,-5.76 V 76.505617 h 12.45 v 8.67 h -4.95 v -3.75 h -2.55 v 6.33 h 7.5 v 4.92 h -7.5 v 2.58 h 7.5 v 7.320003"
           style="font-size:30px;line-height:125%;font-family:'More than human';-inkscape-font-specification:'More than human'"
           id="path3147" /><path
           inkscape:connector-curvature="0"
           d="m 203.90156,102.27562 -0.63,5.76 -0.57,-5.76 v -9.570003 h -2.55 v 3.75 h -4.95 v -16.23 h 4.95 v 3.75 h 2.55 v -6.27 h -10.05 v 22.17 l -0.63,5.760003 -0.57,-5.760003 v -23.37 h 12.45 v 8.67 h -4.95 v -3.75 h -2.55 v 13.83 h 2.55 v -3.75 h 4.95 v 10.770003"
           style="font-size:30px;line-height:125%;font-family:'More than human';-inkscape-font-specification:'More than human'"
           id="path3149" /><path
           inkscape:connector-curvature="0"
           d="m 219.37031,100.77562 -0.63,5.76 -0.57,-5.76 V 77.705617 h -2.55 v 15 h -4.95 v -15 h -2.55 v 22.17 l -0.63,5.760003 -0.57,-5.760003 v -23.37 h 4.95 v 15 h 2.55 v -15 h 4.95 v 24.270003 m -3.75,-1.500003 -0.63,5.760003 -0.57,-5.760003 v -2.85 h -2.55 v 7.050003 l -0.63,5.76 -0.57,-5.76 v -8.250003 h 4.95 v 4.05"
           style="font-size:30px;line-height:125%;font-family:'More than human';-inkscape-font-specification:'More than human'"
           id="path3151" /><path
           inkscape:connector-curvature="0"
           d="m 231.44484,100.17562 -0.63,5.76 -0.57,-5.76 -2.7,-7.890003 v 7.29 l -0.63,5.760003 -0.57,-5.760003 h -0.03 l 0.03,-14.43 5.1,15.030003 m 3.57,0.9 -0.63,5.76 -0.57,-5.76 V 77.705617 h -2.58 v 13.83 l -4.77,-13.83 h -2.7 v 25.770003 l -0.63,5.76 -0.57,-5.76 V 76.505617 h 4.77 l 2.7,7.89 v -7.89 h 4.98 v 24.570003"
           style="font-size:30px;line-height:125%;font-family:'More than human';-inkscape-font-specification:'More than human'"
           id="path3153" /><path
           inkscape:connector-curvature="0"
           d="m 245.70937,81.455617 h -2.55 v 13.77 h 2.55 v -13.77 m 1.2,-1.2 v 16.17 h -4.95 v -16.17 h 4.95 m 3.75,19.62 -0.63,5.760003 -0.57,-5.760003 v -22.17 h -10.05 v 25.470003 l -0.63,5.76 -0.57,-5.76 V 76.505617 h 12.45 v 23.37"
           style="font-size:30px;line-height:125%;font-family:'More than human';-inkscape-font-specification:'More than human'"
           id="path3155" /><path
           inkscape:connector-curvature="0"
           d="m 262.55391,99.575617 -0.63,5.760003 -0.57,-5.760003 v -3.12 h -3.75 v -18.75 h -2.55 v 24.570003 l -0.63,5.76 -0.57,-5.76 V 76.505617 h 4.95 v 18.75 h 3.75 v 4.32"
           style="font-size:30px;line-height:125%;font-family:'More than human';-inkscape-font-specification:'More than human'"
           id="path3157" /><path
           inkscape:connector-curvature="0"
           d="m 272.6625,81.455617 h -2.55 v 13.77 h 2.55 v -13.77 m 1.2,-1.2 v 16.17 h -4.95 v -16.17 h 4.95 m 3.75,19.62 -0.63,5.760003 -0.57,-5.760003 v -22.17 h -10.05 v 25.470003 l -0.63,5.76 -0.57,-5.76 V 76.505617 h 12.45 v 23.37"
           style="font-size:30px;line-height:125%;font-family:'More than human';-inkscape-font-specification:'More than human'"
           id="path3159" /><path
           inkscape:connector-curvature="0"
           d="m 293.25703,101.97562 -0.63,5.76 -0.57,-5.76 V 88.955617 h -2.55 v 7.5 h -4.95 v -16.23 h 4.95 v 3.75 h 2.55 v -6.27 h -10.05 v 21.87 l -0.63,5.760003 -0.57,-5.760003 v -23.07 h 12.45 v 8.67 h -4.95 v -3.75 h -2.55 v 13.83 h 2.55 v -7.5 h 4.95 v 14.220003"
           style="font-size:30px;line-height:125%;font-family:'More than human';-inkscape-font-specification:'More than human'"
           id="path3161" /><path
           inkscape:connector-curvature="0"
           d="m 308.84297,99.575617 -0.63,5.760003 -0.57,-5.760003 v -21.87 h -2.55 v 11.25 h -4.95 v -11.25 h -2.55 v 13.77 h 7.5 v 4.98 h -7.5 v 7.320003 l -0.63,5.76 -0.57,-5.76 v -8.520003 h 7.5 v -2.58 h -7.5 v -16.17 h 4.95 v 11.25 h 2.55 v -11.25 h 4.95 v 23.07"
           style="font-size:30px;line-height:125%;font-family:'More than human';-inkscape-font-specification:'More than human'"
           id="path3163" /></g><g
         transform="matrix(0.68631727,0,0,-0.68631727,7.294559,927.19321)"
         style="font-style:normal;font-variant:normal;font-weight:normal;font-stretch:normal;font-size:12px;line-height:125%;font-family:Sans;-inkscape-font-specification:Sans;text-align:start;letter-spacing:0px;word-spacing:0px;writing-mode:lr-tb;text-anchor:start;fill:#000000;fill-opacity:1;stroke:none"
         id="flowRoot3001"><text
   xml:space="preserve"
   style="font-style:normal;font-variant:normal;font-weight:normal;font-stretch:normal;line-height:0%;font-family:sans-serif;-inkscape-font-specification:Sans;text-align:start;letter-spacing:0px;word-spacing:0px;writing-mode:lr-tb;text-anchor:start;fill:#000000;fill-opacity:1;stroke:none"
   x="19.716322"
   y="269.83459"
   id="text6700"><tspan
     sodipodi:role="line"
     id="tspan6702"
     x="19.716322"
     y="269.83459"
     style="font-size:9.94596863px;line-height:1.25;font-family:sans-serif">logoi</tspan></text>








<text
   id="text3207"
   y="253.66774"
   x="19.716322"
   style="font-style:normal;font-variant:normal;font-weight:normal;font-stretch:normal;line-height:0%;font-family:sans-serif;-inkscape-font-specification:Sans;text-align:start;letter-spacing:0px;word-spacing:0px;writing-mode:lr-tb;text-anchor:start;fill:#000000;fill-opacity:1;stroke:none"
   xml:space="preserve"><tspan
     y="253.66774"
     x="19.716322"
     id="tspan3209"
     sodipodi:role="line"
     style="font-size:9.94596863px;line-height:1.25;font-family:sans-serif">Rebel Technology</tspan></text>








<g
   transform="translate(158.98468,241.98305)"
   style="fill:#000000"
   id="barcode"><rect
     height="30"
     width="1"
     id="barcode_bar1"
     y="0"
     x="0" /><rect
     height="30"
     width="1"
     id="barcode_bar3"
     y="0"
     x="2" /><rect
     height="26"
     width="2"
     id="barcode_bar5"
     y="0"
     x="6" /><rect
     height="26"
     width="1"
     id="barcode_bar7"
     y="0"
     x="9" /><rect
     height="26"
     width="1"
     id="barcode_bar9"
     y="0"
     x="14" /><rect
     height="26"
     width="1"
     id="barcode_bar11"
     y="0"
     x="16" /><rect
     height="26"
     width="1"
     id="barcode_bar13"
     y="0"
     x="18" /><rect
     height="26"
     width="3"
     id="barcode_bar15"
     y="0"
     x="21" /><rect
     height="26"
     width="2"
     id="barcode_bar17"
     y="0"
     x="25" /><rect
     height="26"
     width="1"
     id="barcode_bar19"
     y="0"
     x="30" /><rect
     height="26"
     width="1"
     id="barcode_bar21"
     y="0"
     x="33" /><rect
     height="26"
     width="2"
     id="barcode_bar23"
     y="0"
     x="36" /><rect
     height="26"
     width="1"
     id="barcode_bar25"
     y="0"
     x="39" /><rect
     height="26"
     width="3"
     id="barcode_bar27"
     y="0"
     x="42" /><rect
     height="30"
     width="1"
     id="barcode_bar29"
     y="0"
     x="46" /><rect
     height="30"
     width="1"
     id="barcode_bar31"
     y="0"
     x="48" /><rect
     height="26"
     width="1"
     id="barcode_bar33"
     y="0"
     x="50" /><rect
     height="26"
     width="1"
     id="barcode_bar35"
     y="0"
     x="55" /><rect
     height="26"
     width="2"
     id="barcode_bar37"
     y="0"
     x="57" /><rect
     height="26"
     width="2"
     id="barcode_bar39"
     y="0"
     x="61" /><rect
     height="26"
     width="3"
     id="barcode_bar41"
     y="0"
     x="64" /><rect
     height="26"
     width="1"
     id="barcode_bar43"
     y="0"
     x="69" /><rect
     height="26"
     width="3"
     id="barcode_bar45"
     y="0"
     x="71" /><rect
     height="26"
     width="1"
     id="barcode_bar47"
     y="0"
     x="76" /><rect
     height="26"
     width="2"
     id="barcode_bar49"
     y="0"
     x="78" /><rect
     height="26"
     width="2"
     id="barcode_bar51"
     y="0"
     x="82" /><rect
     height="26"
     width="1"
     id="barcode_bar53"
     y="0"
     x="85" /><rect
     height="26"
     width="3"
     id="barcode_bar55"
     y="0"
     x="88" /><rect
     height="30"
     width="1"
     id="barcode_bar57"
     y="0"
     x="92" /><rect
     height="30"
     width="1"
     id="barcode_bar59"
     y="0"
     x="94" /><text
     id="barcode_text"
     xml:space="preserve"
     style="font-size:9px;text-align:center;text-anchor:middle"
     y="35"
     x="47">5    060520     310015       </text>
</g></g><g
         style="display:inline;stroke-width:0.37958309"
         id="g1271"
         transform="matrix(3.9432928,0,0,-3.9433105,-3470.595,2684.8815)"
         inkscape:export-filename="/Users/mars/devel/RebelTechnology/ClockDelay/drawings/g240.png"
         inkscape:export-xdpi="90"
         inkscape:export-ydpi="90"><path
           id="path11422_1_"
           d="m 921.08,477.848 c -0.078,0.139 -0.155,0.145 -0.345,0.021 -0.077,-0.05 -0.143,-0.072 -0.143,-0.054 -10e-4,0.05 -0.294,0.348 -0.341,0.347 -0.062,-10e-4 -0.071,0.109 -0.093,1.278 -0.019,1.022 -0.012,1.147 0.059,1.299 0.043,0.093 0.091,0.197 0.106,0.233 0.017,0.036 0.023,0.493 0.019,1.016 -0.007,0.523 -10e-4,1.016 0.012,1.091 0.014,0.077 0.002,0.182 -0.026,0.229 -0.036,0.067 -0.038,0.132 -10e-4,0.26 0.042,0.148 0.063,0.17 0.172,0.173 0.087,0.001 0.164,0.051 0.267,0.165 0.309,0.35 0.071,0.556 -0.467,0.403 -0.203,-0.056 -0.345,-0.068 -0.604,-0.047 -0.426,0.032 -0.624,0.021 -0.893,-0.047 -0.117,-0.031 -0.229,-0.051 -0.25,-0.045 -0.072,0.019 -0.193,-0.141 -0.191,-0.253 0.003,-0.198 0.124,-0.29 0.419,-0.324 0.146,-0.02 0.282,-0.045 0.3,-0.062 0.051,-0.048 0.052,-1.266 0.005,-2.727 -0.024,-0.728 -0.041,-1.579 -0.038,-1.896 0.004,-0.313 -0.008,-0.595 -0.023,-0.622 -0.018,-0.024 -0.071,-0.067 -0.119,-0.096 -0.052,-0.025 -0.101,-0.104 -0.113,-0.174 -0.021,-0.119 -0.032,-0.125 -0.301,-0.147 -0.32,-0.024 -0.431,-0.102 -0.387,-0.268 0.022,-0.083 0.069,-0.113 0.232,-0.147 0.11,-0.021 0.259,-0.041 0.329,-0.034 0.07,0.004 0.286,-0.023 0.479,-0.062 0.27,-0.05 0.493,-0.06 0.938,-0.038 0.531,0.026 0.602,0.04 0.793,0.146 0.188,0.104 0.274,0.185 0.271,0.245 0,0.013 -0.03,0.074 -0.066,0.137 z"
           inkscape:connector-curvature="0"
           style="stroke-width:0.37958309" /><g
           id="g1274"
           style="stroke-width:0.37958309"><g
             id="g1276"
             style="stroke-width:0.37958309"><path
               d="m 917.1,479.689 c -0.066,-0.088 -0.148,-0.354 -0.146,-0.486 0.002,-0.107 -0.025,-0.194 -0.203,-0.609 -0.146,-0.353 -0.687,-0.847 -1.021,-0.938 -0.071,-0.02 -0.243,-0.08 -0.38,-0.134 -0.165,-0.065 -0.302,-0.092 -0.411,-0.079 -0.111,0.013 -0.252,-0.015 -0.451,-0.093 -0.22,-0.085 -0.4,-0.119 -0.767,-0.145 l -0.479,-0.029 -0.218,0.13 c -0.118,0.071 -0.238,0.129 -0.265,0.128 -0.025,0 -0.254,0.203 -0.505,0.451 -0.252,0.248 -0.508,0.486 -0.566,0.533 -0.26,0.194 -0.453,0.626 -0.621,1.381 -0.08,0.359 -0.087,0.47 -0.058,0.871 0.06,0.777 0.157,1.171 0.438,1.771 0.204,0.437 0.478,0.849 0.562,0.853 0.093,0.002 0.437,0.287 0.603,0.505 0.343,0.444 0.916,0.707 1.328,0.601 0.094,-0.022 0.164,-0.023 0.178,-10e-4 0.04,0.065 0.309,0.049 0.458,-0.027 0.076,-0.04 0.332,-0.213 0.571,-0.385 0.235,-0.171 0.567,-0.398 0.738,-0.509 0.327,-0.208 0.791,-0.665 0.793,-0.781 10e-4,-0.038 0.053,-0.135 0.112,-0.215 0.259,-0.334 0.446,-0.896 0.505,-1.499 0.065,-0.693 0.017,-1.018 -0.195,-1.294 z m -1.188,1.486 c -0.131,1.077 -0.358,1.584 -0.976,2.167 -0.555,0.525 -0.808,0.625 -1.278,0.495 -0.438,-0.123 -0.521,-0.176 -0.724,-0.473 -0.269,-0.39 -0.55,-1.016 -0.546,-1.215 0,-0.038 -0.046,-0.221 -0.104,-0.406 -0.087,-0.282 -0.104,-0.414 -0.094,-0.83 0.005,-0.308 0.034,-0.59 0.079,-0.748 0.039,-0.139 0.092,-0.451 0.116,-0.694 0.025,-0.243 0.066,-0.516 0.093,-0.604 0.07,-0.248 0.393,-0.727 0.591,-0.881 0.352,-0.271 0.417,-0.296 0.801,-0.308 0.346,-0.012 0.367,-0.007 0.472,0.102 0.062,0.062 0.23,0.156 0.379,0.208 0.147,0.052 0.315,0.128 0.374,0.17 0.059,0.043 0.188,0.094 0.289,0.112 0.147,0.027 0.199,0.062 0.274,0.19 0.133,0.222 0.195,0.479 0.229,0.945 0.042,0.498 0.053,1.537 0.025,1.77 z"
               id="path1278"
               inkscape:connector-curvature="0"
               style="stroke-width:0.37958309" /></g></g><path
           id="path11400_1_"
           d="m 910.774,477.548 c -0.021,0.012 -0.031,0.166 -0.025,0.342 0.006,0.176 -0.008,0.354 -0.03,0.394 -0.021,0.042 -0.03,0.209 -0.02,0.373 0.02,0.249 0.008,0.326 -0.062,0.458 -0.047,0.086 -0.118,0.157 -0.156,0.156 -0.096,-0.001 -0.209,-0.139 -0.206,-0.251 0,-0.05 -0.021,-0.227 -0.046,-0.391 -0.036,-0.24 -0.061,-0.302 -0.122,-0.303 -0.041,-0.001 -0.174,-0.042 -0.297,-0.091 -0.157,-0.062 -0.397,-0.104 -0.838,-0.141 -0.339,-0.028 -0.767,-0.083 -0.949,-0.123 -0.477,-0.104 -0.615,-0.098 -0.661,0.019 -0.067,0.169 -0.197,1.313 -0.208,1.837 -0.034,1.601 -0.031,3.55 0.006,3.66 0.033,0.105 0.069,0.134 0.208,0.159 0.249,0.045 0.702,0.18 0.828,0.247 0.134,0.071 0.187,0.272 0.087,0.345 -0.036,0.027 -0.089,0.04 -0.117,0.029 -0.027,-0.012 -0.203,0.01 -0.391,0.049 -0.268,0.055 -0.522,0.066 -1.193,0.055 l -0.854,-0.017 -0.177,-0.121 c -0.098,-0.064 -0.177,-0.141 -0.175,-0.164 0,-0.042 0.169,-0.418 0.188,-0.422 0.005,-10e-4 0.159,-0.016 0.342,-0.031 0.184,-0.016 0.335,-0.037 0.341,-0.045 0.007,-0.008 0.003,-0.273 -0.005,-0.59 -0.013,-0.457 0.037,-2.836 0.08,-3.971 0.005,-0.112 -0.012,-0.31 -0.036,-0.438 -0.022,-0.128 -0.063,-0.337 -0.088,-0.464 -0.064,-0.34 -0.073,-0.346 -0.307,-0.249 -0.198,0.084 -0.291,0.077 -0.405,-0.03 -0.036,-0.03 -0.104,-0.093 -0.158,-0.134 -0.104,-0.084 -0.09,-0.242 0.022,-0.284 0.189,-0.067 0.988,-0.091 2.425,-0.067 1.219,0.019 1.718,0.011 2.037,-0.032 0.545,-0.073 0.561,-0.073 0.799,0.04 0.194,0.093 0.241,0.151 0.163,0.196 z"
           inkscape:connector-curvature="0"
           style="stroke-width:0.37958309" /><g
           id="g1281"
           style="stroke-width:0.37958309"><g
             id="g1283"
             style="stroke-width:0.37958309"><path
               d="m 904.055,479.579 c -0.046,-0.103 -0.085,-0.207 -0.085,-0.229 0.002,-0.124 -0.303,-0.671 -0.494,-0.894 -0.549,-0.629 -1.332,-0.982 -2.279,-1.03 -0.104,-0.004 -0.276,-0.045 -0.381,-0.088 -0.171,-0.07 -0.231,-0.074 -0.574,-0.034 -0.245,0.027 -0.518,0.097 -0.748,0.188 -0.422,0.165 -0.543,0.239 -0.839,0.508 -0.12,0.109 -0.268,0.209 -0.329,0.223 -0.086,0.018 -0.134,0.076 -0.207,0.247 -0.158,0.375 -0.229,0.781 -0.271,1.581 -0.032,0.613 -0.028,0.845 0.022,1.171 0.086,0.552 0.115,0.666 0.238,0.952 0.06,0.136 0.106,0.279 0.105,0.319 0.001,0.04 0.042,0.15 0.097,0.244 0.056,0.095 0.148,0.277 0.213,0.404 0.062,0.127 0.229,0.354 0.367,0.508 0.214,0.229 0.312,0.301 0.613,0.43 0.195,0.084 0.376,0.155 0.4,0.156 0.024,10e-4 0.155,0.062 0.293,0.132 0.367,0.19 0.537,0.205 0.917,0.08 0.177,-0.059 0.481,-0.129 0.677,-0.158 0.258,-0.038 0.416,-0.089 0.577,-0.188 0.313,-0.191 0.63,-0.452 0.7,-0.577 0.031,-0.059 0.135,-0.19 0.23,-0.293 0.094,-0.103 0.207,-0.254 0.251,-0.336 0.044,-0.082 0.112,-0.196 0.152,-0.254 0.04,-0.061 0.089,-0.172 0.105,-0.253 0.02,-0.082 0.103,-0.346 0.188,-0.584 0.084,-0.239 0.172,-0.562 0.194,-0.721 0.102,-0.682 0.067,-1.07 -0.132,-1.504 z m -0.996,2.688 c -0.126,0.317 -0.217,0.498 -0.295,0.585 -0.093,0.103 -1.225,0.922 -1.383,1.001 -0.148,0.073 -0.659,0.118 -0.862,0.076 -0.154,-0.032 -0.648,-0.351 -0.848,-0.544 -0.065,-0.063 -0.157,-0.192 -0.203,-0.285 -0.132,-0.271 -0.271,-0.84 -0.269,-1.094 0.001,-0.138 -0.042,-0.379 -0.103,-0.576 -0.096,-0.312 -0.104,-0.4 -0.091,-1.048 0.008,-0.39 0.036,-0.79 0.063,-0.895 0.079,-0.29 0.278,-0.744 0.389,-0.88 0.354,-0.442 0.444,-0.52 0.781,-0.667 0.055,-0.021 0.28,-0.051 0.5,-0.061 0.322,-0.017 0.438,-0.005 0.604,0.061 0.396,0.153 0.781,0.424 1.146,0.8 0.346,0.354 0.365,0.389 0.431,0.671 0.038,0.165 0.094,0.4 0.125,0.523 0.03,0.123 0.064,0.401 0.073,0.618 0.045,0.984 0.029,1.496 -0.058,1.715 z"
               id="path1285"
               inkscape:connector-curvature="0"
               style="stroke-width:0.37958309" /></g></g><path
           id="path11378_1_"
           d="m 897.481,484.104 c -0.037,0.029 -0.125,0.041 -0.202,0.028 -0.161,-0.026 -0.415,0.08 -0.418,0.176 -10e-4,0.067 -0.147,0.208 -0.214,0.207 -0.021,0 -0.075,-0.068 -0.123,-0.15 l -0.084,-0.148 -0.375,-0.014 c -0.865,-0.027 -0.92,-0.031 -0.935,-0.082 -0.01,-0.025 -0.062,-0.104 -0.118,-0.172 -0.259,-0.311 -0.177,-0.399 0.357,-0.391 l 0.401,0.007 -0.098,-0.183 c -0.177,-0.323 -0.218,-0.395 -0.271,-0.453 -0.029,-0.032 -0.054,-0.078 -0.052,-0.102 0,-0.021 -0.044,-0.111 -0.099,-0.199 -0.218,-0.359 -0.729,-1.331 -0.771,-1.473 -0.026,-0.081 -0.062,-0.168 -0.076,-0.19 -0.051,-0.068 -0.236,-0.688 -0.264,-0.864 -0.047,-0.329 -0.187,-0.977 -0.224,-1.052 -0.036,-0.071 -0.05,-0.066 -0.147,0.061 -0.146,0.189 -0.289,0.46 -0.424,0.816 -0.063,0.162 -0.167,0.428 -0.229,0.591 -0.172,0.438 -0.382,1.034 -0.384,1.084 0,0.025 -0.027,0.104 -0.062,0.178 -0.181,0.396 -0.421,1.487 -0.347,1.579 0.022,0.032 0.036,0.129 0.025,0.217 l -0.017,0.162 0.242,0.026 c 0.176,0.018 0.259,0.05 0.302,0.107 0.109,0.154 0.022,0.248 -0.326,0.358 -0.179,0.055 -0.355,0.127 -0.396,0.161 -0.062,0.052 -0.119,0.046 -0.44,-0.046 -0.2,-0.06 -0.425,-0.114 -0.493,-0.124 -0.069,-0.012 -0.206,-0.042 -0.301,-0.068 -0.146,-0.04 -0.201,-0.034 -0.404,0.057 -0.317,0.138 -0.348,0.145 -0.456,0.103 -0.066,-0.027 -0.096,-0.073 -0.094,-0.153 0.002,-0.062 0.017,-0.102 0.03,-0.086 0.017,0.019 0.059,0.002 0.098,-0.027 0.038,-0.033 0.229,-0.141 0.425,-0.238 0.766,-0.383 0.729,-0.351 0.938,-0.839 0.325,-0.756 0.521,-1.196 0.665,-1.487 0.584,-1.182 1.349,-2.883 1.351,-3.007 0,-0.021 0.048,-0.088 0.107,-0.155 0.061,-0.065 0.111,-0.167 0.111,-0.223 0,-0.056 0.042,-0.145 0.09,-0.193 0.049,-0.051 0.1,-0.134 0.115,-0.187 0.035,-0.137 0.199,-0.125 0.287,0.017 0.038,0.062 0.133,0.264 0.207,0.453 0.078,0.19 0.229,0.503 0.34,0.696 0.191,0.336 0.385,0.73 0.397,0.822 0.013,0.089 0.627,1.422 0.743,1.611 0.051,0.084 0.12,0.24 0.154,0.345 0.056,0.177 0.125,0.354 0.248,0.638 0.022,0.058 0.149,0.31 0.28,0.558 0.131,0.25 0.236,0.494 0.235,0.544 -0.002,0.12 0.062,0.166 0.316,0.23 0.267,0.066 0.495,0.244 0.396,0.307 -0.044,0.028 -0.048,0.042 -0.011,0.043 0.079,-0.001 0.074,0.061 -0.005,0.124 z"
           inkscape:connector-curvature="0"
           style="stroke-width:0.37958309" /><path
           id="path11376_1_"
           d="m 893.794,478.136 c -0.015,0.014 -0.018,0.051 -0.006,0.081 0.015,0.032 0.023,0.022 0.026,-0.025 0.003,-0.045 -0.005,-0.071 -0.02,-0.056 z"
           inkscape:connector-curvature="0"
           style="stroke-width:0.37958309" /></g></g><use
       id="use8245"
       transform="translate(0,127.9008)"
       xlink:href="#g4685"
       inkscape:tiled-clone-of="#g4685"
       y="0"
       x="0"
       width="100%"
       height="100%" /><use
       id="use8247"
       transform="translate(0,255.8008)"
       xlink:href="#g4685"
       inkscape:tiled-clone-of="#g4685"
       y="0"
       x="0"
       width="100%"
       height="100%" /><use
       id="use8249"
       transform="translate(0,383.7008)"
       xlink:href="#g4685"
       inkscape:tiled-clone-of="#g4685"
       y="0"
       x="0"
       width="100%"
       height="100%" /><use
       id="use8251"
       transform="translate(0,511.6008)"
       xlink:href="#g4685"
       inkscape:tiled-clone-of="#g4685"
       y="0"
       x="0"
       width="100%"
       height="100%" /><use
       id="use8253"
       transform="translate(0,639.5008)"
       xlink:href="#g4685"
       inkscape:tiled-clone-of="#g4685"
       y="0"
       x="0"
       width="100%"
       height="100%" /><use
       id="use8255"
       transform="translate(0,767.4016)"
       xlink:href="#g4685"
       inkscape:tiled-clone-of="#g4685"
       y="0"
       x="0"
       width="100%"
       height="100%" /><use
       id="use8257"
       transform="translate(212.364)"
       xlink:href="#g4685"
       inkscape:tiled-clone-of="#g4685"
       y="0"
       x="0"
       width="100%"
       height="100%" /><use
       id="use8259"
       transform="translate(212.364,127.9008)"
       xlink:href="#g4685"
       inkscape:tiled-clone-of="#g4685"
       y="0"
       x="0"
       width="100%"
       height="100%" /><use
       id="use8261"
       transform="translate(212.364,255.8008)"
       xlink:href="#g4685"
       inkscape:tiled-clone-of="#g4685"
       y="0"
       x="0"
       width="100%"
       height="100%" /><use
       id="use8263"
       transform="translate(212.364,383.7008)"
       xlink:href="#g4685"
       inkscape:tiled-clone-of="#g4685"
       y="0"
       x="0"
       width="100%"
       height="100%" /><use
       id="use8265"
       transform="translate(212.364,511.6008)"
       xlink:href="#g4685"
       inkscape:tiled-clone-of="#g4685"
       y="0"
       x="0"
       width="100%"
       height="100%" /><use
       id="use8267"
       transform="translate(212.364,639.5008)"
       xlink:href="#g4685"
       inkscape:tiled-clone-of="#g4685"
       y="0"
       x="0"
       width="100%"
       height="100%" /><use
       id="use8269"
       transform="translate(212.364,767.4016)"
       xlink:href="#g4685"
       inkscape:tiled-clone-of="#g4685"
       y="0"
       x="0"
       width="100%"
       height="100%" /><use
       id="use8271"
       transform="translate(424.728)"
       xlink:href="#g4685"
       inkscape:tiled-clone-of="#g4685"
       y="0"
       x="0"
       width="100%"
       height="100%" /><use
       id="use8273"
       transform="translate(424.728,127.9008)"
       xlink:href="#g4685"
       inkscape:tiled-clone-of="#g4685"
       y="0"
       x="0"
       width="100%"
       height="100%" /><use
       id="use8275"
       transform="translate(424.728,255.8008)"
       xlink:href="#g4685"
       inkscape:tiled-clone-of="#g4685"
       y="0"
       x="0"
       width="100%"
       height="100%" /><use
       id="use8277"
       transform="translate(424.728,383.7008)"
       xlink:href="#g4685"
       inkscape:tiled-clone-of="#g4685"
       y="0"
       x="0"
       width="100%"
       height="100%" /><use
       id="use8279"
       transform="translate(424.728,511.6008)"
       xlink:href="#g4685"
       inkscape:tiled-clone-of="#g4685"
       y="0"
       x="0"
       width="100%"
       height="100%" /><use
       id="use8281"
       transform="translate(424.728,639.5008)"
       xlink:href="#g4685"
       inkscape:tiled-clone-of="#g4685"
       y="0"
       x="0"
       width="100%"
       height="100%" /><use
       id="use8283"
       transform="translate(424.728,767.4016)"
       xlink:href="#g4685"
       inkscape:tiled-clone-of="#g4685"
       y="0"
       x="0"
       width="100%"
       height="100%" /></g></svg>