<?xml version="1.0" encoding="UTF-8" standalone="no"?>
<!-- Created with Inkscape (http://www.inkscape.org/) -->

<svg
   xmlns:dc="http://purl.org/dc/elements/1.1/"
   xmlns:cc="http://creativecommons.org/ns#"
   xmlns:rdf="http://www.w3.org/1999/02/22-rdf-syntax-ns#"
   xmlns:svg="http://www.w3.org/2000/svg"
   xmlns="http://www.w3.org/2000/svg"
   xmlns:sodipodi="http://sodipodi.sourceforge.net/DTD/sodipodi-0.dtd"
   xmlns:inkscape="http://www.inkscape.org/namespaces/inkscape"
   id="svg2"
   version="1.1"
   inkscape:version="0.48.4 r9939"
   width="1594.4882"
   height="1417.3228"
   xml:space="preserve"
   sodipodi:docname="subrack.svg"><metadata
     id="metadata8"><rdf:RDF><cc:Work
         rdf:about=""><dc:format>image/svg+xml</dc:format><dc:type
           rdf:resource="http://purl.org/dc/dcmitype/StillImage" /><dc:title></dc:title></cc:Work></rdf:RDF></metadata><defs
     id="defs6" /><sodipodi:namedview
     pagecolor="#ffffff"
     bordercolor="#666666"
     borderopacity="1"
     objecttolerance="10"
     gridtolerance="10"
     guidetolerance="10"
     inkscape:pageopacity="0"
     inkscape:pageshadow="2"
     inkscape:window-width="1280"
     inkscape:window-height="974"
     id="namedview4"
     showgrid="false"
     inkscape:zoom="0.3871627"
     inkscape:cx="657.76008"
     inkscape:cy="596.44665"
     inkscape:window-x="0"
     inkscape:window-y="0"
     inkscape:window-maximized="1"
     inkscape:current-layer="layer2"
     units="mm"
     inkscape:document-units="mm"
     showborder="true"
     borderlayer="false"
     inkscape:showpageshadow="false" /><g
     inkscape:groupmode="layer"
     id="layer3"
     inkscape:label="Cut2"
     style="display:inline"><path
       transform="matrix(0.125,0,0,-0.125,0,1417.3225)"
       d="m 3.4022955,8386.1492 12203.1487045,0 0,2692.9128 -12203.1487045,0 0,-2692.9128 z"
       style="fill:none;stroke:#ff0000;stroke-width:6.80413294;stroke-linecap:butt;stroke-linejoin:miter;stroke-miterlimit:10;stroke-opacity:1;stroke-dasharray:none;display:inline"
       id="path52"
       inkscape:connector-curvature="0" /><path
       transform="matrix(0.125,0,0,-0.125,0,1417.3225)"
       d="m 3.4022955,4192.7167 12203.1487045,0 0,4070.5829 -12203.1487045,0 0,-4070.5829 z"
       style="fill:none;stroke:#ff0000;stroke-width:6.80413294;stroke-linecap:butt;stroke-linejoin:miter;stroke-miterlimit:10;stroke-opacity:1;stroke-dasharray:none;display:inline"
       id="path186"
       inkscape:connector-curvature="0" /><path
       transform="matrix(0.125,0,0,-0.125,0,1417.3225)"
       inkscape:connector-curvature="0"
       d="m 3.4020665,3.4000353 12203.1489335,0 0,4070.5829647 -12203.1489335,0 0,-4070.5829647 z"
       style="fill:none;stroke:#ff0000;stroke-width:6.80413294;stroke-linecap:butt;stroke-linejoin:miter;stroke-miterlimit:10;stroke-opacity:1;stroke-dasharray:none;display:inline"
       id="path186-8" /></g><g
     inkscape:groupmode="layer"
     id="layer2"
     inkscape:label="Cut1"
     style="display:inline"><path
       transform="matrix(0.125,0,0,-0.125,0,1417.3225)"
       d="m 11139.427,9093.3872 c 0,-15.65 12.7,-28.34 28.4,-28.34 l 739.8,0 c 15.7,0 28.4,12.69 28.4,28.34 l 0,1278.4308 c 0,15.65 -12.7,28.34 -28.4,28.34 l -739.8,0 c -15.7,0 -28.4,-12.69 -28.4,-28.34 l 0,-1278.4308"
       style="fill:none;fill-opacity:1;fill-rule:nonzero;stroke:#ff0000;display:inline"
       id="path34"
       inkscape:connector-curvature="0" /><path
       transform="matrix(0.125,0,0,-0.125,0,1417.3225)"
       d="m 11139.427,9093.3872 c 0,-15.65 12.7,-28.34 28.4,-28.34 l 739.8,0 c 15.7,0 28.4,12.69 28.4,28.34 l 0,1278.4308 c 0,15.65 -12.7,28.34 -28.4,28.34 l -739.8,0 c -15.7,0 -28.4,-12.69 -28.4,-28.34 l 0,-1278.4308 z"
       style="fill:none;stroke:#ff0000;stroke-width:10;stroke-linecap:butt;stroke-linejoin:miter;stroke-miterlimit:10;stroke-opacity:1;stroke-dasharray:none;display:inline"
       id="path36"
       inkscape:connector-curvature="0" /><path
       transform="matrix(0.125,0,0,-0.125,0,1417.3225)"
       d="m 11489.527,10526.308 c 0,-26.62 21.6,-48.2 48.2,-48.2 26.6,0 48.2,21.58 48.2,48.2 0,26.61 -21.6,48.19 -48.2,48.19 -26.6,0 -48.2,-21.58 -48.2,-48.19"
       style="fill:#ffffff;fill-opacity:1;fill-rule:nonzero;stroke:#ff0000;display:inline"
       id="path38"
       inkscape:connector-curvature="0" /><path
       transform="matrix(0.125,0,0,-0.125,0,1417.3225)"
       d="m 11489.527,10526.308 c 0,-26.62 21.6,-48.2 48.2,-48.2 26.6,0 48.2,21.58 48.2,48.2 0,26.61 -21.6,48.19 -48.2,48.19 -26.6,0 -48.2,-21.58 -48.2,-48.19 z"
       style="fill:none;stroke:#ff0000;stroke-width:10;stroke-linecap:butt;stroke-linejoin:miter;stroke-miterlimit:10;stroke-opacity:1;stroke-dasharray:none;display:inline"
       id="path40"
       inkscape:connector-curvature="0" /><path
       transform="matrix(0.125,0,0,-0.125,0,1417.3225)"
       d="m 11489.527,8938.8972 c 0,-26.61 21.6,-48.19 48.2,-48.19 26.6,0 48.2,21.58 48.2,48.19 0,26.62 -21.6,48.2 -48.2,48.2 -26.6,0 -48.2,-21.58 -48.2,-48.2"
       style="fill:#ffffff;fill-opacity:1;fill-rule:nonzero;stroke:#ff0000;display:inline"
       id="path42"
       inkscape:connector-curvature="0" /><path
       transform="matrix(0.125,0,0,-0.125,0,1417.3225)"
       d="m 11489.527,8938.8972 c 0,-26.61 21.6,-48.19 48.2,-48.19 26.6,0 48.2,21.58 48.2,48.19 0,26.62 -21.6,48.2 -48.2,48.2 -26.6,0 -48.2,-21.58 -48.2,-48.2 z"
       style="fill:none;stroke:#ff0000;stroke-width:10;stroke-linecap:butt;stroke-linejoin:miter;stroke-miterlimit:10;stroke-opacity:1;stroke-dasharray:none;display:inline"
       id="path44"
       inkscape:connector-curvature="0" /><path
       transform="matrix(0.125,0,0,-0.125,0,1417.3225)"
       d="m 12038.433,11008.198 c 0,-19.57 15.9,-35.44 35.5,-35.44 19.5,0 35.4,15.87 35.4,35.44 0,19.57 -15.9,35.43 -35.4,35.43 -19.6,0 -35.5,-15.86 -35.5,-35.43 z"
       style="fill:none;stroke:#ff0000;stroke-width:6.81202984000000011;stroke-linecap:butt;stroke-linejoin:miter;stroke-miterlimit:10;stroke-opacity:1;stroke-dasharray:none;display:inline"
       id="path54"
       inkscape:connector-curvature="0" /><path
       transform="matrix(0.125,0,0,-0.125,0,1417.3225)"
       d="m 12038.433,8457.0172 c 0,-19.57 15.9,-35.44 35.5,-35.44 19.5,0 35.4,15.87 35.4,35.44 0,19.57 -15.9,35.43 -35.4,35.43 -19.6,0 -35.5,-15.86 -35.5,-35.43 z"
       style="fill:none;stroke:#ff0000;stroke-width:6.81202984000000011;stroke-linecap:butt;stroke-linejoin:miter;stroke-miterlimit:10;stroke-opacity:1;stroke-dasharray:none;display:inline"
       id="path56"
       inkscape:connector-curvature="0" /><path
       transform="matrix(0.125,0,0,-0.125,0,1417.3225)"
       d="m 6141.5568,11008.198 c 0,-19.57 15.86,-35.44 35.43,-35.44 19.57,0 35.43,15.87 35.43,35.44 0,19.57 -15.86,35.43 -35.43,35.43 -19.57,0 -35.43,-15.86 -35.43,-35.43 z"
       style="fill:none;stroke:#ff0000;stroke-width:6.81202984000000011;stroke-linecap:butt;stroke-linejoin:miter;stroke-miterlimit:10;stroke-opacity:1;stroke-dasharray:none;display:inline"
       id="path58"
       inkscape:connector-curvature="0" /><path
       transform="matrix(0.125,0,0,-0.125,0,1417.3225)"
       d="m 6141.5568,8457.0172 c 0,-19.57 15.86,-35.44 35.43,-35.44 19.57,0 35.43,15.87 35.43,35.44 0,19.57 -15.86,35.43 -35.43,35.43 -19.57,0 -35.43,-15.86 -35.43,-35.43 z"
       style="fill:none;stroke:#ff0000;stroke-width:6.81202984000000011;stroke-linecap:butt;stroke-linejoin:miter;stroke-miterlimit:10;stroke-opacity:1;stroke-dasharray:none;display:inline"
       id="path60"
       inkscape:connector-curvature="0" /><path
       transform="matrix(0.125,0,0,-0.125,0,1417.3225)"
       d="m 100.63435,11008.198 c 0,-19.57 15.859,-35.44 35.425,-35.44 19.575,0 35.434,15.87 35.434,35.44 0,19.57 -15.859,35.43 -35.434,35.43 -19.566,0 -35.425,-15.86 -35.425,-35.43 z"
       style="fill:none;stroke:#ff0000;stroke-width:6.81202984000000011;stroke-linecap:butt;stroke-linejoin:miter;stroke-miterlimit:10;stroke-opacity:1;stroke-dasharray:none;display:inline"
       id="path62"
       inkscape:connector-curvature="0" /><path
       transform="matrix(0.125,0,0,-0.125,0,1417.3225)"
       d="m 100.63435,8141.4077 c 0,-19.57 15.859,-35.44 35.425,-35.44 19.575,0 35.434,15.87 35.434,35.44 0,19.57 -15.859,35.43 -35.434,35.43 -19.566,0 -35.425,-15.86 -35.425,-35.43 z"
       style="fill:none;stroke:#ff0000;stroke-width:6.81202984000000011;stroke-linecap:butt;stroke-linejoin:miter;stroke-miterlimit:10;stroke-opacity:1;stroke-dasharray:none;display:inline"
       id="path64"
       inkscape:connector-curvature="0" /><path
       transform="matrix(0.125,0,0,-0.125,0,1417.3225)"
       d="m 100.63435,4314.6177 c 0,-19.5 15.859,-35.4 35.425,-35.4 19.575,0 35.434,15.9 35.434,35.4 0,19.6 -15.859,35.46 -35.434,35.46 -19.566,0 -35.425,-15.86 -35.425,-35.46 z"
       style="fill:none;stroke:#ff0000;stroke-width:6.81202984000000011;stroke-linecap:butt;stroke-linejoin:miter;stroke-miterlimit:10;stroke-opacity:1;stroke-dasharray:none;display:inline"
       id="path66"
       inkscape:connector-curvature="0" /><path
       transform="matrix(0.125,0,0,-0.125,0,1417.3225)"
       d="m 12038.433,8141.4077 c 0,-19.57 15.9,-35.44 35.5,-35.44 19.5,0 35.4,15.87 35.4,35.44 0,19.57 -15.9,35.43 -35.4,35.43 -19.6,0 -35.5,-15.86 -35.5,-35.43 z"
       style="fill:none;stroke:#ff0000;stroke-width:6.81202984000000011;stroke-linecap:butt;stroke-linejoin:miter;stroke-miterlimit:10;stroke-opacity:1;stroke-dasharray:none;display:inline"
       id="path68"
       inkscape:connector-curvature="0" /><path
       transform="matrix(0.125,0,0,-0.125,0,1417.3225)"
       d="m 12038.433,4314.6177 c 0,-19.5 15.9,-35.4 35.5,-35.4 19.5,0 35.4,15.9 35.4,35.4 0,19.6 -15.9,35.46 -35.4,35.46 -19.6,0 -35.5,-15.86 -35.5,-35.46 z"
       style="fill:none;stroke:#ff0000;stroke-width:6.81202984000000011;stroke-linecap:butt;stroke-linejoin:miter;stroke-miterlimit:10;stroke-opacity:1;stroke-dasharray:none;display:inline"
       id="path70"
       inkscape:connector-curvature="0" /><path
       transform="matrix(0.125,0,0,-0.125,0,1417.3225)"
       d="m 6141.5568,8141.4077 c 0,-19.57 15.86,-35.44 35.43,-35.44 19.57,0 35.43,15.87 35.43,35.44 0,19.57 -15.86,35.43 -35.43,35.43 -19.57,0 -35.43,-15.86 -35.43,-35.43 z"
       style="fill:none;stroke:#ff0000;stroke-width:6.81202984000000011;stroke-linecap:butt;stroke-linejoin:miter;stroke-miterlimit:10;stroke-opacity:1;stroke-dasharray:none;display:inline"
       id="path72"
       inkscape:connector-curvature="0" /><path
       transform="matrix(0.125,0,0,-0.125,0,1417.3225)"
       d="m 6141.5568,4314.6177 c 0,-19.5 15.86,-35.4 35.43,-35.4 19.57,0 35.43,15.9 35.43,35.4 0,19.6 -15.86,35.46 -35.43,35.46 -19.57,0 -35.43,-15.86 -35.43,-35.46 z"
       style="fill:none;stroke:#ff0000;stroke-width:6.81202984000000011;stroke-linecap:butt;stroke-linejoin:miter;stroke-miterlimit:10;stroke-opacity:1;stroke-dasharray:none;display:inline"
       id="path74"
       inkscape:connector-curvature="0" /><path
       transform="matrix(0.125,0,0,-0.125,0,1417.3225)"
       d="m 100.63435,8457.0172 c 0,-19.57 15.859,-35.44 35.425,-35.44 19.575,0 35.434,15.87 35.434,35.44 0,19.57 -15.859,35.43 -35.434,35.43 -19.566,0 -35.425,-15.86 -35.425,-35.43 z"
       style="fill:none;stroke:#ff0000;stroke-width:6.81202984000000011;stroke-linecap:butt;stroke-linejoin:miter;stroke-miterlimit:10;stroke-opacity:1;stroke-dasharray:none;display:inline"
       id="path76"
       inkscape:connector-curvature="0" /><path
       transform="matrix(0.125,0,0,-0.125,0,1417.3225)"
       d="m 7790.1168,8668.4572 c 0,-23.48 19.03,-42.52 42.52,-42.52 23.47,0 42.52,19.04 42.52,42.52 0,23.49 -19.05,42.52 -42.52,42.52 -23.49,0 -42.52,-19.03 -42.52,-42.52 z"
       style="fill:none;stroke:#ff0000;stroke-width:7.08660984000000038;stroke-linecap:round;stroke-linejoin:round;stroke-miterlimit:10;stroke-opacity:1;stroke-dasharray:none;display:inline"
       id="path122"
       inkscape:connector-curvature="0" /><path
       transform="matrix(0.125,0,0,-0.125,0,1417.3225)"
       d="m 6854.1068,9748.4572 c 0,-23.48 19.03,-42.52 42.52,-42.52 23.49,0 42.52,19.04 42.52,42.52 0,23.49 -19.03,42.52 -42.52,42.52 -23.49,0 -42.52,-19.03 -42.52,-42.52 z"
       style="fill:none;stroke:#ff0000;stroke-width:7.08660984000000038;stroke-linecap:round;stroke-linejoin:round;stroke-miterlimit:10;stroke-opacity:1;stroke-dasharray:none;display:inline"
       id="path124"
       inkscape:connector-curvature="0" /><path
       transform="matrix(0.125,0,0,-0.125,0,1417.3225)"
       d="m 5918.1168,8668.4572 c 0,-23.48 19.03,-42.52 42.51,-42.52 23.49,0 42.52,19.04 42.52,42.52 0,23.49 -19.03,42.52 -42.52,42.52 -23.48,0 -42.51,-19.03 -42.51,-42.52 z"
       style="fill:none;stroke:#ff0000;stroke-width:7.08660984000000038;stroke-linecap:round;stroke-linejoin:round;stroke-miterlimit:10;stroke-opacity:1;stroke-dasharray:none;display:inline"
       id="path126"
       inkscape:connector-curvature="0" /><path
       transform="matrix(0.125,0,0,-0.125,0,1417.3225)"
       d="m 4982.1068,9748.4572 c 0,-23.48 19.03,-42.52 42.52,-42.52 23.49,0 42.52,19.04 42.52,42.52 0,23.49 -19.03,42.52 -42.52,42.52 -23.49,0 -42.52,-19.03 -42.52,-42.52 z"
       style="fill:none;stroke:#ff0000;stroke-width:7.08660984000000038;stroke-linecap:round;stroke-linejoin:round;stroke-miterlimit:10;stroke-opacity:1;stroke-dasharray:none;display:inline"
       id="path128"
       inkscape:connector-curvature="0" /><path
       transform="matrix(0.125,0,0,-0.125,0,1417.3225)"
       d="m 3704.7168,8668.4572 c 0,-23.48 19.03,-42.52 42.52,-42.52 23.47,0 42.52,19.04 42.52,42.52 0,23.49 -19.05,42.52 -42.52,42.52 -23.49,0 -42.52,-19.03 -42.52,-42.52 z"
       style="fill:none;stroke:#ff0000;stroke-width:7.08660984000000038;stroke-linecap:round;stroke-linejoin:round;stroke-miterlimit:10;stroke-opacity:1;stroke-dasharray:none;display:inline"
       id="path158"
       inkscape:connector-curvature="0" /><path
       transform="matrix(0.125,0,0,-0.125,0,1417.3225)"
       d="m 2768.7068,9748.4572 c 0,-23.48 19.03,-42.52 42.52,-42.52 23.49,0 42.52,19.04 42.52,42.52 0,23.49 -19.03,42.52 -42.52,42.52 -23.49,0 -42.52,-19.03 -42.52,-42.52 z"
       style="fill:none;stroke:#ff0000;stroke-width:7.08660984000000038;stroke-linecap:round;stroke-linejoin:round;stroke-miterlimit:10;stroke-opacity:1;stroke-dasharray:none;display:inline"
       id="path160"
       inkscape:connector-curvature="0" /><path
       transform="matrix(0.125,0,0,-0.125,0,1417.3225)"
       d="m 1832.7068,8668.4572 c 0,-23.48 19.04,-42.52 42.52,-42.52 23.49,0 42.52,19.04 42.52,42.52 0,23.49 -19.03,42.52 -42.52,42.52 -23.48,0 -42.52,-19.03 -42.52,-42.52 z"
       style="fill:none;stroke:#ff0000;stroke-width:7.08660984000000038;stroke-linecap:round;stroke-linejoin:round;stroke-miterlimit:10;stroke-opacity:1;stroke-dasharray:none;display:inline"
       id="path162"
       inkscape:connector-curvature="0" /><path
       transform="matrix(0.125,0,0,-0.125,0,1417.3225)"
       d="m 896.70572,9748.4572 c 0,-23.48 19.031,-42.52 42.519,-42.52 23.489,0 42.52,19.04 42.52,42.52 0,23.49 -19.031,42.52 -42.52,42.52 -23.488,0 -42.519,-19.03 -42.519,-42.52 z"
       style="fill:none;stroke:#ff0000;stroke-width:7.08660984000000038;stroke-linecap:round;stroke-linejoin:round;stroke-miterlimit:10;stroke-opacity:1;stroke-dasharray:none;display:inline"
       id="path164"
       inkscape:connector-curvature="0" /><path
       transform="matrix(0.125,0,0,-0.125,0,1417.3225)"
       d="m 8929.7968,8670.3172 c 0,-23.49 -19.03,-42.52 -42.51,-42.52 -23.49,0 -42.52,19.03 -42.52,42.52 0,23.49 19.03,42.52 42.52,42.52 23.48,0 42.51,-19.03 42.51,-42.52 z"
       style="fill:none;stroke:#ff0000;stroke-width:7.08660984000000038;stroke-linecap:round;stroke-linejoin:round;stroke-miterlimit:10;stroke-opacity:1;stroke-dasharray:none;display:inline"
       id="path178"
       inkscape:connector-curvature="0" /><path
       transform="matrix(0.125,0,0,-0.125,0,1417.3225)"
       d="m 10369.827,8670.3172 c 0,-23.49 -19,-42.52 -42.5,-42.52 -23.5,0 -42.6,19.03 -42.6,42.52 0,23.49 19.1,42.52 42.6,42.52 23.5,0 42.5,-19.03 42.5,-42.52 z"
       style="fill:none;stroke:#ff0000;stroke-width:7.08660984000000038;stroke-linecap:round;stroke-linejoin:round;stroke-miterlimit:10;stroke-opacity:1;stroke-dasharray:none;display:inline"
       id="path180"
       inkscape:connector-curvature="0" /><path
       transform="matrix(0.125,0,0,-0.125,0,1417.3225)"
       d="m 10369.827,10830.318 c 0,-23.49 -19,-42.52 -42.5,-42.52 -23.5,0 -42.6,19.03 -42.6,42.52 0,23.49 19.1,42.52 42.6,42.52 23.5,0 42.5,-19.03 42.5,-42.52 z"
       style="fill:none;stroke:#ff0000;stroke-width:7.08660984000000038;stroke-linecap:round;stroke-linejoin:round;stroke-miterlimit:10;stroke-opacity:1;stroke-dasharray:none;display:inline"
       id="path182"
       inkscape:connector-curvature="0" /><path
       transform="matrix(0.125,0,0,-0.125,0,1417.3225)"
       d="m 8929.7968,10830.318 c 0,-23.49 -19.03,-42.52 -42.51,-42.52 -23.49,0 -42.52,19.03 -42.52,42.52 0,23.49 19.03,42.52 42.52,42.52 23.48,0 42.51,-19.03 42.51,-42.52 z"
       style="fill:none;stroke:#ff0000;stroke-width:7.08660984000000038;stroke-linecap:round;stroke-linejoin:round;stroke-miterlimit:10;stroke-opacity:1;stroke-dasharray:none;display:inline"
       id="path184"
       inkscape:connector-curvature="0" /><path
       transform="matrix(0.125,0,0,-0.125,0,1417.3225)"
       d="m 100.63407,3952.094 c 0,-19.57 15.859,-35.44 35.425,-35.44 19.575,0 35.434,15.87 35.434,35.44 0,19.57 -15.859,35.43 -35.434,35.43 -19.566,0 -35.425,-15.86 -35.425,-35.43 z"
       style="fill:none;stroke:#ff0000;stroke-width:6.81202984000000011;stroke-linecap:butt;stroke-linejoin:miter;stroke-miterlimit:10;stroke-opacity:1;stroke-dasharray:none;display:inline"
       id="path64-5"
       inkscape:connector-curvature="0" /><path
       transform="matrix(0.125,0,0,-0.125,0,1417.3225)"
       d="m 100.63407,125.30398 c 0,-19.5 15.859,-35.399996 35.425,-35.399996 19.575,0 35.434,15.899996 35.434,35.399996 0,19.6 -15.859,35.46 -35.434,35.46 -19.566,0 -35.425,-15.86 -35.425,-35.46 z"
       style="fill:none;stroke:#ff0000;stroke-width:6.81202984000000011;stroke-linecap:butt;stroke-linejoin:miter;stroke-miterlimit:10;stroke-opacity:1;stroke-dasharray:none;display:inline"
       id="path66-4"
       inkscape:connector-curvature="0" /><path
       transform="matrix(0.125,0,0,-0.125,0,1417.3225)"
       d="m 12038.433,3952.094 c 0,-19.57 15.9,-35.44 35.5,-35.44 19.5,0 35.4,15.87 35.4,35.44 0,19.57 -15.9,35.43 -35.4,35.43 -19.6,0 -35.5,-15.86 -35.5,-35.43 z"
       style="fill:none;stroke:#ff0000;stroke-width:6.81202984000000011;stroke-linecap:butt;stroke-linejoin:miter;stroke-miterlimit:10;stroke-opacity:1;stroke-dasharray:none;display:inline"
       id="path68-9"
       inkscape:connector-curvature="0" /><path
       transform="matrix(0.125,0,0,-0.125,0,1417.3225)"
       d="m 12038.433,125.30398 c 0,-19.5 15.9,-35.399996 35.5,-35.399996 19.5,0 35.4,15.899996 35.4,35.399996 0,19.6 -15.9,35.46 -35.4,35.46 -19.6,0 -35.5,-15.86 -35.5,-35.46 z"
       style="fill:none;stroke:#ff0000;stroke-width:6.81202984000000011;stroke-linecap:butt;stroke-linejoin:miter;stroke-miterlimit:10;stroke-opacity:1;stroke-dasharray:none;display:inline"
       id="path70-7"
       inkscape:connector-curvature="0" /><path
       transform="matrix(0.125,0,0,-0.125,0,1417.3225)"
       inkscape:connector-curvature="0"
       d="m 6141.5566,3952.094 c 0,-19.57 15.86,-35.44 35.43,-35.44 19.57,0 35.43,15.87 35.43,35.44 0,19.57 -15.86,35.43 -35.43,35.43 -19.57,0 -35.43,-15.86 -35.43,-35.43 z"
       style="fill:none;stroke:#ff0000;stroke-width:6.81202984000000011;stroke-linecap:butt;stroke-linejoin:miter;stroke-miterlimit:10;stroke-opacity:1;stroke-dasharray:none;display:inline"
       id="path72-1" /><path
       transform="matrix(0.125,0,0,-0.125,0,1417.3225)"
       inkscape:connector-curvature="0"
       d="m 6141.5566,125.30398 c 0,-19.5 15.86,-35.399996 35.43,-35.399996 19.57,0 35.43,15.899996 35.43,35.399996 0,19.6 -15.86,35.46 -35.43,35.46 -19.57,0 -35.43,-15.86 -35.43,-35.46 z"
       style="fill:none;stroke:#ff0000;stroke-width:6.81202984000000011;stroke-linecap:butt;stroke-linejoin:miter;stroke-miterlimit:10;stroke-opacity:1;stroke-dasharray:none;display:inline"
       id="path74-0" /></g><g
     id="g10"
     inkscape:groupmode="layer"
     inkscape:label="Engrave"
     transform="matrix(1.25,0,0,-1.25,0,1417.3225)"
     style="display:inline"><g
       id="g12"
       transform="scale(0.1,0.1)"><path
         d="m 4814.9768,10605.508 0,34.9 -40,0 0,-90.2 20,10.2 20,10.2 0,34.9 z m -60,-15.15 0,70.05 80,0 0,-99.88 -40,-20.12 -40,-20.11 0,70.06 z m -445,-14.85 0,64.9 -40,0 0,-150.2 20,10.2 20,10.2 0,64.9 z m -60,-15.1 0,100 80,0 0,-159.1 -37.27,-20.45 c -20.48,-11.25 -38.48,-20.45 -40,-20.45 -1.5,0 -2.73,45 -2.73,100 z m 3185.02,-32.5 0,112.5 -40,0 0,-225 40,0 0,112.5 z m -60,0 0,132.5 80,0 0,-265 -80,0 0,132.5 z m -375.02,0 0,112.5 -40,0 0,-225 40,0 0,112.5 z m -60,0 0,132.5 80,0 0,-265 -80,0 0,132.5 z m -2125,-108.42 c 0,3.54 -31.29,20.92 -37.67,20.92 -1.27,0 -2.33,-5.62 -2.33,-12.5 0,-11.25 2,-12.5 20,-12.5 11.01,0 20,1.84 20,4.08 z m -60,15.98 0,40.06 40,-20.12 c 39.96,-20.08 40,-20.13 40,-40.05 l 0,-19.95 -80,0 0,40.06 z m 933.26,-132.05 c -1.79,21.17 -3.25,105.67 -3.25,187.75 l 0,149.24 -60,0 0,80 200,0 0,-80 -60,0 -0.04,-153.75 c -0.04,-169.22 -3.12,-225.07 -11.96,-216.25 -3.75,3.75 -6.06,66.72 -7.25,197.75 l -1.74,192.25 60.98,0 0,40 -160,0 0,-40 60.91,0 -1.7,-192.25 c -1.16,-130.91 -3.46,-194 -7.2,-197.75 -3.99,-3.98 -6.38,5.04 -8.75,33.01 l 0,0 z m -1435,0 c -1.79,21.17 -3.26,55.2 -3.26,75.59 l 0,37.09 40,-21.6 c 39.75,-21.45 39.99,-21.71 39.96,-41.59 -0.05,-35.05 -6.24,-87.28 -10.07,-84.92 -2.03,1.25 -5.27,23.36 -7.19,49.12 l -3.52,46.84 -17.26,8.23 c -9.49,4.52 -17.97,8.23 -18.85,8.23 -0.87,0 -3.16,-24.18 -5.07,-53.73 -1.91,-29.57 -5.27,-55.54 -7.48,-57.75 -2.2,-2.21 -5.47,13.32 -7.26,34.49 l 0,0 z m -59.95,-5.64 c -1.82,21.52 -3.31,125.43 -3.31,230.89 l 0,191.74 200,0 0,-259.8 -23.73,-12.07 -23.73,-12.05 23.73,-11.55 23.73,-11.52 -0.49,-50.25 c -0.27,-27.64 -2.1,-62.64 -4.06,-77.76 -3.47,-26.83 -3.64,-27.07 -7.08,-10 -1.93,9.63 -5.18,42.25 -7.2,72.5 l -3.67,55 -28.44,15.1 c -15.63,8.31 -29.96,16.64 -31.83,18.52 -1.88,1.86 11.48,10.74 29.68,19.71 l 33.09,16.32 0,227.85 -159.07,0 -2.03,-208.75 c -1.23,-126.3 -4.07,-213.53 -7.16,-220.89 -4.31,-10.22 -5.64,-5.96 -8.43,27.01 l 0,0 z m 2560.01,-4.87 c -2.34,25.75 -11.15,62.27 -24.73,102.5 l -21.07,62.5 -3.11,-75 c -1.71,-41.25 -3.39,-82.75 -3.75,-92.24 -0.5,-13.4 -1.99,-15.92 -6.64,-11.27 -4.23,4.24 -6.6,44.43 -8.06,137.24 -1.14,72.2 -1.19,136.9 -0.12,143.77 1.27,8.22 15.47,-27.77 41.39,-105 40.6,-120.91 42.59,-131.79 33.38,-182.5 -3.32,-18.34 -3.93,-16.68 -7.29,20 l 0,0 z m -195.29,-32.5 c -2.39,6.88 -5.39,108.7 -6.66,226.25 l -2.35,213.75 -39.02,0 0,-245 -80,0 0,245 -39.14,0 -2.17,-206.25 c -1.19,-114.47 -4.33,-212.93 -7.05,-221.25 -8.2,-25.07 -11.56,50.1 -11.6,258.75 l -0.02,188.75 80,0 0,-245 40,0 0,245 80,0 -0.51,-208.75 c -0.51,-214.43 -3.28,-274.98 -11.48,-251.25 l 0,0 z m 1200.33,-17.5 c -2.15,8.25 -5.2,72.93 -6.76,143.75 l -2.87,128.75 -38.73,0 0,-120 -80,0 0,265 80,0 0,-60 40,0 0,100 -159.12,0 -1.97,-203.75 c -1.19,-124.22 -3.99,-208.49 -7.13,-215.89 -8.6,-20.26 -11.78,47.81 -11.78,252.9 l 0,186.74 200,0 0,-140 -80,0 0,60 -40,0 0,-225 40,0 0,120 80,0 -0.49,-126.25 c -0.27,-69.43 -2.01,-138.63 -3.87,-153.75 -3.1,-25.19 -3.71,-26.23 -7.28,-12.5 z m -620.04,19.87 c -1.82,21.52 -3.32,133.3 -3.32,248.39 l 0,209.24 80.02,0 0,-305 60,0 -0.04,-36.25 c -0.06,-50.62 -5.7,-105.04 -10.41,-100.25 -2.17,2.21 -5.51,29.32 -7.46,60.25 l -3.52,56.25 -58.57,0 0,305 -39.14,0 -1.97,-226.25 c -1.21,-139.57 -3.95,-230.89 -7.13,-238.39 -4.36,-10.26 -5.67,-6.06 -8.46,27.01 l 0,0 z m -829.8,-24.87 c -2.07,8.25 -5.16,60.57 -6.86,116.25 l -3.09,101.25 -38.57,0 0,-60 -80,0 0,265 80,0 0,-60 40,0 0,100 -159.06,0 -2.03,-206.25 c -1.25,-124.41 -4.09,-211.07 -7.17,-218.39 -8.58,-20.38 -11.72,48.32 -11.72,255.4 l 0,189.24 200,0 0,-140 -80,0 0,60 -40,0 0,-225 40,0 0,60 80,0 -0.51,-98.75 c -0.27,-54.31 -2.01,-111.13 -3.87,-126.25 -3.08,-24.96 -3.73,-26.11 -7.12,-12.5 l 0,0 z m -1105.21,24.87 c -1.82,21.52 -3.31,133.3 -3.31,248.39 l 0,209.24 80,0 0,-305 60,0 -0.03,-36.25 c -0.05,-50.62 -5.69,-105.04 -10.4,-100.25 -2.17,2.21 -5.53,29.32 -7.46,60.25 l -3.53,56.25 -58.58,0 0,305 -39.13,0 -1.96,-226.25 c -1.22,-139.57 -3.95,-230.89 -7.13,-238.39 -4.36,-10.26 -5.68,-6.06 -8.47,27.01 l 0,0 z m -505,0 c -1.82,21.52 -3.31,133.3 -3.31,248.39 l 0,209.24 200,0 0,-100 c 0,-55 -1.68,-100.02 -3.75,-100.03 -2.06,-0.01 -12.68,-5.43 -23.58,-12.03 l -19.85,-12.01 23.6,-11.45 23.58,-11.47 -0.49,-77.75 c -0.27,-42.76 -2.05,-90.14 -3.95,-105.26 -3.44,-27.4 -3.47,-27.44 -7.66,-10.09 -2.3,9.59 -5.59,54.59 -7.29,100 l -3.11,82.59 -28.44,15.1 c -15.63,8.31 -29.96,16.64 -31.83,18.52 -1.88,1.86 11.48,10.74 29.68,19.71 l 33.09,16.32 0,167.85 -159.13,0 -1.96,-226.25 c -1.22,-139.57 -3.95,-230.89 -7.13,-238.39 -4.36,-10.26 -5.68,-6.06 -8.47,27.01 l 0,0 z m 1360.41,-29.87 c -1.93,8.25 -5.04,48.19 -6.89,88.75 l -3.38,73.75 -118.45,0 0,80 120,0 0,40 -120,0 0,145 80,0 0,-60 40,0 0,100 -159.09,0 -2.01,-213.75 c -1.23,-130.09 -4.03,-218.49 -7.15,-225.89 -8.65,-20.49 -11.75,48.61 -11.75,262.9 l 0,196.74 200,0 0,-140 -80,0 0,60 -40,0 0,-105 120,0 0,-80 -120,0 0,-40 120,0 -0.49,-71.25 c -0.27,-39.18 -2.02,-83.63 -3.87,-98.75 -3.03,-24.63 -3.75,-25.93 -6.92,-12.5 l 0,0 z m -920,0 c -1.93,8.25 -5.04,48.19 -6.89,88.75 l -3.38,73.75 -118.45,0 0,80 120,0 0,40 -120,0 0,145 80,0 0,-60 40,0 0,100 -159.09,0 -2.01,-213.75 c -1.23,-130.09 -4.03,-218.49 -7.15,-225.89 -8.65,-20.49 -11.75,48.61 -11.75,262.9 l 0,196.74 200,0 0,-140 -80,0 0,60 -40,0 0,-105 120,0 0,-80 -120,0 0,-40 120,0 -0.49,-71.25 c -0.27,-39.18 -2.02,-83.63 -3.87,-98.75 -3.04,-24.63 -3.76,-25.93 -6.92,-12.5 l 0,0 z m -505,0 c -1.93,8.25 -5.04,48.19 -6.89,88.75 l -3.38,73.75 -118.45,0 0,80 120,0 0,40 -120,0 0,145 80,0 0,-60 40,0 0,100 -159.09,0 -2.01,-213.75 c -1.23,-130.09 -4.03,-218.49 -7.15,-225.89 -8.65,-20.49 -11.75,48.61 -11.75,262.9 l 0,196.74 200,0 0,-140 -80,0 0,60 -40,0 0,-105 120,0 0,-80 -120,0 0,-40 120,0 -0.49,-71.25 c -0.27,-39.18 -2.02,-83.63 -3.87,-98.75 -3.04,-24.63 -3.76,-25.93 -6.92,-12.5 z m 2684.6,14.87 c -1.82,21.52 -3.3,136.68 -3.3,255.89 l 0,216.74 200,0 -0.04,-193.75 c -0.04,-209.41 -2.95,-271.68 -11.7,-250.89 -3.08,7.32 -5.92,93.92 -7.17,218.39 l -2.03,206.25 -158.22,0 -1.95,-233.75 c -1.21,-145.25 -3.91,-238.34 -7.11,-245.89 -4.38,-10.26 -5.69,-6.1 -8.48,27.01 l 0,0 z m -435,0 c -1.82,21.52 -3.32,136.68 -3.32,255.89 l 0,216.74 200,0 -0.02,-193.75 c -0.04,-209.41 -2.95,-271.68 -11.7,-250.89 -3.08,7.32 -5.92,93.92 -7.17,218.39 l -2.03,206.25 -158.22,0 -1.95,-233.75 c -1.21,-145.25 -3.91,-238.34 -7.11,-245.89 -4.38,-10.26 -5.69,-6.1 -8.48,27.01 l 0,0 z m -450.06,0.64 c -1.79,21.17 -3.24,67.42 -3.24,102.76 l 0,64.23 80,0 -0.04,-33.75 c -0.06,-47.5 -5.66,-101.4 -10.25,-98.57 -2.13,1.33 -5.49,27.13 -7.44,57.36 l -3.56,54.96 -37.21,0 -2.85,-88.08 c -3.08,-95.41 -10.06,-122.11 -15.41,-58.91 z m 195.12,-5.99 c -1.86,21.71 -3.36,138.25 -3.36,258.94 l 0,219.46 38.75,-1.45 38.75,-1.47 20.9,-60 20.92,-60 0.33,61.25 0.35,61.25 80,0 -0.04,-203.75 c -0.02,-112.07 -1.54,-219.49 -3.38,-238.75 -7.42,-78.1 -13.08,-0.62 -15.27,208.75 l -2.23,213.75 -38.9,0 -1.35,-108.55 -1.35,-108.56 -37.03,108.56 -37.03,108.55 -42.66,0 -2.07,-233.75 c -1.19,-134.55 -4.18,-240.11 -7.03,-248.75 -4.39,-13.32 -5.31,-10.58 -8.3,24.52 l 0,0 z m 1195,-5 c -1.86,21.71 -3.36,70.66 -3.36,108.75 l 0,69.23 120,0 0,40 -120,0 0,265 80,0 0,-185 40,0 0,185 80,0 -0.04,-191.25 c -0.04,-206.99 -2.97,-269.14 -11.7,-248.39 -3.06,7.3 -5.92,93.32 -7.15,215.89 l -2.07,203.75 -39.04,0 0,-185 -80,0 0,185 -40,0 0,-225 120,0 0,-80 -118.54,0 -2.98,-83.75 c -3.62,-102.16 -10.06,-133.75 -15.12,-74.23 z"
         style="fill:#000000;fill-opacity:1;stroke:#231f20;stroke-width:1.25;stroke-linecap:butt;stroke-linejoin:miter;stroke-miterlimit:10;stroke-opacity:1;stroke-dasharray:none"
         id="path46"
         inkscape:connector-curvature="0" /><path
         d="m 9786.3826,6631.3777 0,99.61 114.16,0 0,-257.43 -57.08,29.12 -57.08,29.1 0,99.6 z m 171.24,-43.25 0,199.93 -228.3098,0 0,-285.04 114.1498,-57.41 114.16,-57.41 0,199.93 z m 1269.9474,-42.36 0,185.22 114.152,0 0,-428.66 -57.078,29.12 -57.074,29.1 0,185.22 z m 171.226,-43.09 0,285.38 -228.303,0 0,-454.04 106.35,-58.36 c 58.465,-32.1 109.828,-58.36 114.148,-58.36 4.293,0 7.805,128.43 7.805,285.38 z m -9089.4632,-92.74 0,321.05 114.14,0 0,-642.11 -114.14,0 0,321.06 z m 171.23,0 0,378.12 -228.32,0 0,-756.26 228.32,0 0,378.14 z m 1070.24,0 0,321.05 114.14,0 0,-642.11 -114.14,0 0,321.06 z m 171.23,0 0,378.12 -228.32,0 0,-756.26 228.32,0 0,378.14 z m 6064.3498,-309.43 c 0,10.11 89.3,59.71 107.5,59.71 3.65,0 6.66,-16.04 6.66,-35.66 0,-32.11 -5.71,-35.68 -57.08,-35.68 -31.41,0 -57.08,5.24 -57.08,11.63 z m 171.24,45.61 0,114.33 -114.16,-57.42 c -114.0398,-57.32 -114.1498,-57.46 -114.1498,-114.31 l 0,-56.92 228.3098,0 0,114.32 z m -2663.3598,-376.84 c 5.12,60.41 9.28,301.55 9.28,535.79 l 0,425.92 171.22,0 0,228.3 -570.76,0 0,-228.3 171.23,0 0.11,-438.78 c 0.11,-482.92 8.92,-642.33 34.14,-617.13 10.7,10.7 17.28,190.41 20.68,564.32 l 4.96,548.66 -174.01,0 0,114.16 456.61,0 0,-114.16 -173.83,0 4.85,-548.66 c 3.32,-373.58 9.87,-553.62 20.55,-564.32 11.39,-11.37 18.22,14.38 24.97,94.2 l 0,0 z m 4095.2252,0 c 5.128,60.41 9.308,157.51 9.308,215.71 l 0,105.84 -114.152,-61.64 c -113.431,-61.2 -114.121,-61.96 -114.041,-118.67 0.14,-100.05 17.81,-249.1 28.73,-242.35 5.8,3.57 15.05,66.66 20.54,140.18 l 10.036,133.66 49.243,23.5 c 27.089,12.9 51.308,23.49 53.82,23.49 2.476,0 8.996,-69 14.461,-153.34 5.433,-84.38 15.051,-158.52 21.347,-164.81 6.27,-6.31 15.606,38.01 20.708,98.43 l 0,0 z m 171.089,-16.11 c 5.188,61.43 9.45,357.95 9.45,658.91 l 0,547.21 -570.764,0 0,-741.43 67.72,-34.44 67.73,-34.4 -67.73,-32.94 -67.72,-32.88 1.39,-143.42 c 0.78,-78.87 5.99,-178.76 11.59,-221.89 9.9,-76.59 10.4,-77.26 20.21,-28.55 5.52,27.48 14.77,120.57 20.54,206.91 l 10.48,156.96 81.16,43.09 c 44.62,23.71 85.499,47.49 90.851,52.84 5.347,5.32 -32.781,30.65 -84.721,56.27 l -94.42,46.56 0,650.25 453.961,0 5.797,-595.74 c 3.512,-360.46 11.59,-609.38 20.426,-630.4 12.289,-29.15 16.082,-17 24.05,77.09 l 0,0 z m -7305.8142,-13.89 c 6.7,73.47 31.84,177.7 70.57,292.52 l 60.16,178.37 8.84,-214.04 c 4.91,-117.71 9.71,-236.16 10.71,-263.25 1.44,-38.23 5.68,-45.43 18.96,-32.16 12.09,12.09 18.83,126.81 23.01,391.67 3.24,206.05 3.4,390.67 0.33,410.29 -3.61,23.44 -44.14,-79.25 -118.1,-299.65 -115.88,-345.07 -121.57,-376.12 -95.26,-520.82 9.48,-52.34 11.21,-47.59 20.78,57.07 l 0,0 z m 557.35,-92.74 c 6.79,19.62 15.37,310.19 19,645.67 l 6.68,610.01 111.37,0 0,-699.19 228.32,0 0,699.19 111.7,0 6.17,-588.6 c 3.4,-326.68 12.38,-607.67 20.14,-631.41 23.39,-71.57 32.98,142.97 33.1,738.43 l 0.06,538.65 -228.32,0 0,-699.18 -114.14,0 0,699.18 -228.32,0 1.46,-595.73 c 1.45,-611.95 9.36,-784.74 32.78,-717.02 l 0,0 z m -3425.52,-49.94 c 6.1,23.52 14.8,208.12 19.3,410.23 l 8.2,367.44 110.5,0 0,-342.47 228.3,0 0,756.26 -228.3,0 0,-171.22 -114.2,0 0,285.38 454.1,0 5.7,-581.47 c 3.4,-354.49 11.4,-595 20.3,-616.13 24.5,-57.8 33.6,136.45 33.6,721.74 l 0,532.93 -570.7,0 0,-399.53 228.3,0 0,171.23 114.1,0 0,-642.11 -114.1,0 0,342.46 -228.3,0 1.4,-360.3 c 0.7,-198.14 5.7,-395.62 11,-438.77 8.9,-71.9 10.6,-74.86 20.8,-35.67 z m 1769.46,56.69 c 5.18,61.41 9.48,380.41 9.48,708.85 l 0,597.15 -228.36,0 0,-870.41 -171.23,0 0.11,-103.45 c 0.16,-144.48 16.27,-299.76 29.71,-286.11 6.19,6.3 15.72,83.67 21.29,171.96 l 10.04,160.52 167.15,0 0,870.42 111.7,0 5.64,-645.68 c 3.46,-398.3 11.25,-658.93 20.33,-680.34 12.44,-29.27 16.17,-17.29 24.14,77.09 l 0,0 z m 2368.11,-70.96 c 5.92,23.52 14.72,172.84 19.57,331.76 l 8.81,288.94 110.08,0 0,-171.23 228.3,0 0,756.26 -228.3,0 0,-171.22 -114.15,0 0,285.38 453.94,0 5.79,-588.6 c 3.56,-355.06 11.65,-602.36 20.46,-623.27 24.47,-58.14 33.43,137.9 33.43,728.87 l 0,540.07 -570.76,0 0,-399.53 228.32,0 0,171.23 114.14,0 0,-642.11 -114.14,0 0,171.23 -228.32,0 1.46,-281.81 c 0.78,-155.01 5.74,-317.16 11.04,-360.29 8.8,-71.24 10.64,-74.53 20.33,-35.68 l 0,0 z m 3154.06,70.96 c 5.18,61.41 9.44,380.41 9.44,708.85 l 0,597.15 -228.3,0 0,-870.41 -171.23,0 0.09,-103.45 c 0.13,-144.48 16.24,-299.76 29.67,-286.11 6.2,6.3 15.78,83.67 21.3,171.96 l 10.06,160.52 167.19,0 0,870.42 111.67,0 5.6,-645.68 c 3.49,-398.3 11.26,-658.93 20.35,-680.34 12.43,-29.27 16.19,-17.29 24.16,77.09 l 0,0 z m 1441.1802,0 c 5.18,61.41 9.45,380.41 9.45,708.85 l 0,597.15 -570.7702,0 0,-285.38 c 0,-156.96 4.79,-285.44 10.7,-285.47 5.88,-0.01 36.18,-15.48 67.31,-34.32 l 56.63,-34.29 -67.34,-32.68 -67.3,-32.73 1.4,-221.89 c 0.77,-122.01 5.85,-257.23 11.28,-300.37 9.81,-78.21 9.89,-78.31 21.85,-28.82 6.58,27.37 15.97,155.79 20.82,285.38 l 8.86,235.72 81.16,43.09 c 44.6098,23.71 85.4998,47.49 90.8498,52.84 5.35,5.32 -32.77,30.65 -84.7198,56.26 l -94.42,46.57 0,479.02 454.1302,0 5.6,-645.68 c 3.48,-398.3 11.26,-658.93 20.34,-680.34 12.43,-29.27 16.19,-17.29 24.17,77.09 l 0,0 z m -3882.3702,-85.23 c 5.52,23.52 14.38,137.5 19.68,253.28 l 9.64,210.46 338.03,0 0,228.31 -342.46,0 0,114.16 342.46,0 0,413.79 -228.31,0 0,-171.22 -114.15,0 0,285.38 454.02,0 5.74,-610.01 c 3.51,-371.27 11.48,-623.54 20.4,-644.66 24.69,-58.48 33.53,138.73 33.53,750.26 l 0,561.48 -570.76,0 0,-399.53 228.3,0 0,171.23 114.15,0 0,-299.65 -342.45,0 0,-228.31 342.45,0 0,-114.15 -342.45,0 1.39,-203.34 c 0.77,-111.8 5.77,-238.67 11.06,-281.8 8.64,-70.3 10.7,-74.03 19.73,-35.68 l 0,0 z m 2625.52,0 c 5.51,23.52 14.38,137.5 19.67,253.28 l 9.64,210.46 338.03,0 0,228.31 -342.46,0 0,114.16 342.46,0 0,413.79 -228.3,0 0,-171.22 -114.16,0 0,285.38 454.02,0 5.75,-610.01 c 3.51,-371.27 11.47,-623.54 20.4,-644.66 24.69,-58.48 33.52,138.73 33.52,750.26 l 0,561.48 -570.77,0 0,-399.53 228.31,0 0,171.23 114.16,0 0,-299.65 -342.47,0 0,-228.31 342.47,0 0,-114.15 -342.47,0 1.4,-203.34 c 0.78,-111.8 5.77,-238.67 11.07,-281.8 8.66,-70.3 10.72,-74.03 19.73,-35.68 l 0,0 z m 1441.1702,0 c 5.52,23.52 14.38,137.5 19.68,253.28 l 9.65,210.46 338.02,0 0,228.31 -342.46,0 0,114.16 342.46,0 0,413.79 -228.3,0 0,-171.22 -114.16,0 0,285.38 454.02,0 5.74,-610.01 c 3.51,-371.27 11.48,-623.54 20.4,-644.66 24.69,-58.48 33.53,138.73 33.53,750.26 l 0,561.48 -570.76,0 0,-399.53 228.3,0 0,171.23 114.15,0 0,-299.65 -342.45,0 0,-228.31 342.45,0 0,-114.15 -342.45,0 1.39,-203.34 c 0.78,-111.8 5.77,-238.67 11.06,-281.8 8.67,-70.3 10.73,-74.03 19.73,-35.68 z m -7661.3602,42.42 c 5.2,61.42 9.42,390.05 9.42,730.26 l 0,618.55 -570.79,0 0.1,-552.92 c 0.2,-597.63 8.5,-775.33 33.4,-716.02 8.8,20.91 16.9,268.05 20.5,623.27 l 5.8,588.6 451.51,0 5.59,-667.08 c 3.46,-414.53 11.15,-680.18 20.29,-701.75 12.48,-29.26 16.21,-17.39 24.18,77.09 l 0,0 z m 1241.41,0 c 5.19,61.42 9.49,390.05 9.49,730.26 l 0,618.55 -570.78,0 0.06,-552.92 c 0.11,-597.63 8.42,-775.33 33.4,-716.02 8.8,20.91 16.87,268.05 20.44,623.27 l 5.81,588.6 451.54,0 5.57,-667.08 c 3.45,-414.53 11.15,-680.18 20.29,-701.75 12.48,-29.26 16.21,-17.39 24.18,77.09 l 0,0 z m 1284.39,1.83 c 5.12,60.43 9.26,192.41 9.26,293.24 l 0,183.33 -228.32,0 0.12,-96.31 c 0.17,-135.56 16.17,-289.4 29.25,-281.31 6.08,3.79 15.67,77.42 21.25,163.7 l 10.14,156.84 106.19,0 8.13,-251.37 c 8.81,-272.29 28.71,-348.48 43.98,-168.12 z m -556.83,-17.11 c 5.29,61.99 9.59,394.55 9.59,738.99 l 0,626.31 -110.59,-4.15 -110.59,-4.18 -59.62,-171.23 -59.71,-171.24 -0.94,174.8 -1.01,174.79 -228.31,0 0.12,-581.46 c 0.06,-319.82 4.4,-626.39 9.63,-681.35 21.19,-222.9 37.36,-1.79 43.59,595.73 l 6.35,610.01 111.04,0 3.84,-309.79 3.85,-309.81 105.69,309.81 105.68,309.79 121.74,0 5.9,-667.08 c 3.39,-383.98 11.93,-685.25 20.05,-709.89 12.56,-38.02 15.18,-30.2 23.7,69.95 l 0,0 z m -3410.34,-14.26 c 5.3,61.98 9.6,201.66 9.6,310.35 l 0,197.59 -342.40008,0 0,114.15 342.40008,0 0,756.26 -228.30008,0 0,-527.95 -114.1,0 0,527.95 -228.29996,0 0.1,-545.79 c 0.1,-590.72 8.4,-768.07 33.3,-708.88 8.8,20.85 16.9,266.32 20.5,616.13 l 5.9,581.47 111.39996,0 0,-527.95 228.30008,0 0,527.95 114.1,0 0,-642.11 -342.40008,0 0,-228.31 338.30008,0 8.5,-239 c 10.3,-291.57 28.7,-381.7 43.1,-211.86 z"
         style="fill:#000000;fill-opacity:1;stroke:#231f20;stroke-width:1.25;stroke-linecap:butt;stroke-linejoin:miter;stroke-miterlimit:10;stroke-opacity:1;stroke-dasharray:none"
         id="path48"
         inkscape:connector-curvature="0" /><path
         d="m 2423.5368,2442.0639 0,99.6101 -114.16,0 0,-257.4301 57.08,29.12 57.08,29.1 0,99.6 z m -171.24,-43.25 0,199.9301 228.3101,0 0,-285.0401 -114.1501,-57.41 -114.16,-57.41 0,199.93 z m -1269.94623,-42.36 0,185.2201 -114.152,0 0,-428.6601 57.077,29.12 57.075,29.1 0,185.22 z m -171.227,-43.09 0,285.3801 228.30303,0 0,-454.0401 -106.35003,-58.36 c -58.465,-32.1 -109.828,-58.36 -114.148,-58.36 -4.293,0 -7.805,128.43 -7.805,285.38 z m 9089.46323,-92.74 0,321.0501 -114.14,0 0,-642.1101 114.14,0 0,321.06 z m -171.23,0 0,378.1201 228.32,0 0,-756.2601 -228.32,0 0,378.14 z m -1070.24,0 0,321.0501 -114.14,0 0,-642.1101 114.14,0 0,321.06 z m -171.23,0 0,378.1201 228.32,0 0,-756.2601 -228.32,0 0,378.14 z m -6064.35,-309.43 c 0,10.11 -89.3,59.71 -107.5,59.71 -3.65,0 -6.66,-16.04 -6.66,-35.66 0,-32.11 5.71,-35.68 57.08,-35.68 31.41,0 57.08,5.24 57.08,11.63 z m -171.24,45.61 0,114.33 114.16,-57.42 c 114.0401,-57.32 114.1501,-57.46 114.1501,-114.31 l 0,-56.92 -228.3101,0 0,114.32 z m 2663.36,-376.84 c -5.12,60.41 -9.2799,301.55 -9.2799,535.79 l 0,425.9201 -171.22,0 0,228.3 570.7599,0 0,-228.3 -171.23,0 -0.1104,-438.7801 c -0.1096,-482.92 -8.92,-642.33 -34.14,-617.13 -10.7,10.7 -17.28,190.41 -20.68,564.32 l -4.96,548.6601 174.01,0 0,114.16 -456.6095,0 0,-114.16 173.8295,0 -4.85,-548.6601 c -3.32,-373.58 -9.87,-553.62 -20.55,-564.32 -11.39,-11.37 -18.22,14.38 -24.97,94.2 l 0,0 z m -4095.22523,0 c -5.128,60.41 -9.308,157.51 -9.308,215.71 l 0,105.84 114.152,-61.64 c 113.43103,-61.2 114.12103,-61.96 114.04103,-118.67 -0.136,-100.05 -17.81,-249.1 -28.73,-242.35 -5.8,3.57 -15.05003,66.66 -20.54003,140.18 l -10.036,133.66 -49.243,23.5 c -27.089,12.9 -51.308,23.49 -53.82,23.49 -2.476,0 -8.996,-69 -14.461,-153.34 -5.432,-84.38 -15.051,-158.52 -21.347,-164.81 -6.269,-6.31 -15.605,38.01 -20.708,98.43 l 0,0 z m -171.089,-16.11 c -5.188,61.43 -9.45,357.95 -9.45,658.91 l 0,547.2101 570.76403,0 0,-741.4301 -67.72,-34.44 -67.73,-34.4 67.73,-32.94 67.72,-32.88 -1.39,-143.42 c -0.784,-78.87 -5.99,-178.76 -11.59,-221.89 -9.9,-76.59 -10.4,-77.26 -20.21,-28.55 -5.52,27.48 -14.77,120.57 -20.54,206.91 l -10.48,156.96 -81.16,43.09 c -44.62,23.71 -85.49903,47.49 -90.85103,52.84 -5.347,5.32 32.78103,30.65 84.72103,56.27 l 94.42,46.56 0,650.2501 -453.96103,0 -5.797,-595.7401 c -3.512,-360.46 -11.59,-609.38 -20.426,-630.4 -12.289,-29.15 -16.082,-17 -24.05,77.09 l 0,0 z m 7305.81423,-13.89 c -6.7,73.47 -31.84,177.7 -70.57,292.52 l -60.16,178.37 -8.84,-214.04 c -4.91,-117.71 -9.71,-236.16 -10.71,-263.25 -1.44,-38.23 -5.68,-45.43 -18.96,-32.16 -12.09,12.09 -18.83,126.81 -23.01,391.67 -3.24,206.05 -3.4,390.67 -0.3296,410.29 3.61,23.44 44.14,-79.25 118.1,-299.65 115.88,-345.07 121.57,-376.12 95.26,-520.82 -9.48,-52.34 -11.21,-47.59 -20.78,57.07 l 0,0 z m -557.35,-92.74 c -6.79,19.62 -15.37,310.19 -19,645.67 l -6.68,610.0101 -111.37,0 0,-699.1901 -228.32,0 0,699.1901 -111.7,0 -6.17,-588.6001 c -3.4,-326.68 -12.38,-607.67 -20.14,-631.41 -23.39,-71.57 -32.98,142.97 -33.1,738.43 l -0.056,538.6501 228.32,0 0,-699.1801 114.14,0 0,699.1801 228.32,0 -1.46,-595.7301 c -1.45,-611.95 -9.36,-784.74 -32.78,-717.02 l 0,0 z m 3425.5202,-49.94 c -6.1,23.52 -14.8,208.12 -19.3,410.23 l -8.2,367.44 -110.5,0 0,-342.47 -228.3,0 0,756.2601 228.3,0 0,-171.2201 114.2,0 0,285.3801 -454.1,0 -5.7,-581.4701 c -3.4,-354.49 -11.4,-595 -20.3,-616.13 -24.5,-57.8 -33.6,136.45 -33.6,721.74 l 0,532.9301 570.7,0 0,-399.5301 -228.3,0 0,171.2301 -114.1,0 0,-642.1101 114.1,0 0,342.46 228.3,0 -1.4,-360.3 c -0.7,-198.14 -5.7,-395.62 -11,-438.77 -8.9,-71.9 -10.6,-74.86 -20.8,-35.67 z m -1769.4602,56.69 c -5.18,61.41 -9.48,380.41 -9.48,708.85 l 0,597.1501 228.36,0 0,-870.4101 171.23,0 -0.1096,-103.45 c -0.16,-144.48 -16.27,-299.76 -29.71,-286.11 -6.19,6.3 -15.72,83.67 -21.29,171.96 l -10.04,160.52 -167.15,0 0,870.4201 -111.7,0 -5.64,-645.6801 c -3.46,-398.3 -11.25,-658.93 -20.33,-680.34 -12.44,-29.27 -16.17,-17.29 -24.14,77.09 l 0,0 z m -2368.11,-70.96 c -5.92,23.52 -14.72,172.84 -19.57,331.76 l -8.81,288.94 -110.08,0 0,-171.23 -228.3,0 0,756.2601 228.3,0 0,-171.2201 114.15,0 0,285.3801 -453.94,0 -5.79,-588.6001 c -3.56,-355.06 -11.65,-602.36 -20.46,-623.27 -24.47,-58.14 -33.43,137.9 -33.43,728.87 l 0,540.0701 570.76,0 0,-399.5301 -228.32,0 0,171.2301 -114.14,0 0,-642.1101 114.14,0 0,171.23 228.32,0 -1.46,-281.81 c -0.78,-155.01 -5.74,-317.16 -11.04,-360.29 -8.8,-71.24 -10.64,-74.53 -20.33,-35.68 l 0,0 z m -3154.0599,70.96 c -5.18,61.41 -9.44,380.41 -9.44,708.85 l 0,597.1501 228.3,0 0,-870.4101 171.23,0 -0.09,-103.45 c -0.128,-144.48 -16.24,-299.76 -29.669,-286.11 -6.2,6.3 -15.78,83.67 -21.3,171.96 l -10.06,160.52 -167.191,0 0,870.4201 -111.669,0 -5.6,-645.6801 c -3.491,-398.3 -11.26,-658.93 -20.351,-680.34 -12.429,-29.27 -16.189,-17.29 -24.16,77.09 l 0,0 z m -1441.1803,0 c -5.18,61.41 -9.45,380.41 -9.45,708.85 l 0,597.1501 570.7703,0 0,-285.38 c 0,-156.9601 -4.79,-285.4401 -10.7,-285.4701 -5.88,0 -36.18,-15.48 -67.31,-34.32 l -56.63,-34.29 67.34,-32.68 67.3,-32.73 -1.4,-221.89 c -0.768,-122.01 -5.85,-257.23 -11.28,-300.37 -9.81,-78.21 -9.89,-78.31 -21.85,-28.82 -6.58,27.37 -15.97,155.79 -20.82,285.38 l -8.86,235.72 -81.16,43.09 c -44.6101,23.71 -85.5001,47.49 -90.8501,52.84 -5.35,5.32 32.77,30.65 84.7201,56.26 l 94.42,46.57 0,479.0201 -454.1303,0 -5.6,-645.6801 c -3.48,-398.3 -11.26,-658.93 -20.34,-680.34 -12.43,-29.27 -16.19,-17.29 -24.17,77.09 l 0,0 z m 3882.3702,-85.23 c -5.52,23.52 -14.38,137.5 -19.68,253.28 l -9.64,210.46 -338.03,0 0,228.31 342.46,0 0,114.16 -342.46,0 0,413.7901 228.31,0 0,-171.2201 114.15,0 0,285.3801 -454.02,0 -5.74,-610.0101 c -3.51,-371.27 -11.48,-623.54 -20.4,-644.66 -24.69,-58.48 -33.53,138.73 -33.53,750.26 l 0,561.4801 570.76,0 0,-399.5301 -228.3,0 0,171.2301 -114.15,0 0,-299.6501 342.45,0 0,-228.31 -342.45,0 0,-114.15 342.45,0 -1.39,-203.34 c -0.7704,-111.8 -5.77,-238.67 -11.06,-281.8 -8.64,-70.3 -10.7,-74.03 -19.73,-35.68 l 0,0 z m -2625.5199,0 c -5.51,23.52 -14.38,137.5 -19.67,253.28 l -9.64,210.46 -338.03,0 0,228.31 342.46,0 0,114.16 -342.46,0 0,413.7901 228.3,0 0,-171.2201 114.16,0 0,285.3801 -454.02,0 -5.75,-610.0101 c -3.51,-371.27 -11.47,-623.54 -20.4,-644.66 -24.69,-58.48 -33.52,138.73 -33.52,750.26 l 0,561.4801 570.77,0 0,-399.5301 -228.31,0 0,171.2301 -114.16,0 0,-299.6501 342.47,0 0,-228.31 -342.47,0 0,-114.15 342.47,0 -1.4,-203.34 c -0.776,-111.8 -5.77,-238.67 -11.07,-281.8 -8.66,-70.3 -10.72,-74.03 -19.73,-35.68 l 0,0 z m -1441.1703,0 c -5.52,23.52 -14.38,137.5 -19.68,253.28 l -9.65,210.46 -338.02,0 0,228.31 342.46,0 0,114.16 -342.46,0 0,413.7901 228.3,0 0,-171.2201 114.16,0 0,285.3801 -454.02,0 -5.74,-610.0101 c -3.51,-371.27 -11.48,-623.54 -20.4,-644.66 -24.69,-58.48 -33.53,138.73 -33.53,750.26 l 0,561.4801 570.76,0 0,-399.5301 -228.3,0 0,171.2301 -114.15,0 0,-299.6501 342.45,0 0,-228.31 -342.45,0 0,-114.15 342.45,0 -1.39,-203.34 c -0.776,-111.8 -5.77,-238.67 -11.06,-281.8 -8.67,-70.3 -10.73,-74.03 -19.73,-35.68 z m 7661.3602,42.42 c -5.2,61.42 -9.42,390.05 -9.42,730.26 l 0,618.5501 570.7902,0 -0.1,-552.9201 c -0.2,-597.63 -8.5,-775.33 -33.4,-716.02 -8.8,20.91 -16.9,268.05 -20.5,623.27 l -5.8,588.6001 -451.5102,0 -5.59,-667.0801 c -3.46,-414.53 -11.15,-680.18 -20.29,-701.75 -12.48,-29.26 -16.21,-17.39 -24.18,77.09 l 0,0 z m -1241.41,0 c -5.19,61.42 -9.49,390.05 -9.49,730.26 l 0,618.5501 570.78,0 -0.056,-552.9201 c -0.1104,-597.63 -8.42,-775.33 -33.4,-716.02 -8.8,20.91 -16.87,268.05 -20.44,623.27 l -5.81,588.6001 -451.54,0 -5.57,-667.0801 c -3.45,-414.53 -11.15,-680.18 -20.29,-701.75 -12.48,-29.26 -16.21,-17.39 -24.18,77.09 l 0,0 z m -1284.39,1.83 c -5.12,60.43 -9.26,192.41 -9.26,293.24 l 0,183.33 228.32,0 -0.12,-96.31 c -0.1704,-135.56 -16.17,-289.4 -29.25,-281.31 -6.08,3.79 -15.67,77.42 -21.25,163.7 l -10.14,156.84 -106.19,0 -8.13,-251.37 c -8.81,-272.29 -28.71,-348.48 -43.98,-168.12 z m 556.83,-17.11 c -5.29,61.99 -9.59,394.55 -9.59,738.99 l 0,626.3101 110.59,-4.15 110.59,-4.18 59.62,-171.23 59.71,-171.2401 0.94,174.8001 1.01,174.79 228.31,0 -0.12,-581.4601 c -0.056,-319.82 -4.4,-626.39 -9.63,-681.35 -21.19,-222.9 -37.36,-1.79 -43.59,595.73 l -6.35,610.0101 -111.04,0 -3.84,-309.7901 -3.85,-309.81 -105.69,309.81 -105.68,309.7901 -121.74,0 -5.9,-667.0801 c -3.39,-383.98 -11.93,-685.25 -20.05,-709.89 -12.56,-38.02 -15.18,-30.2 -23.7,69.95 l 0,0 z m 3410.3402,-14.26 c -5.3,61.98 -9.6,201.66 -9.6,310.35 l 0,197.59 342.4,0 0,114.15 -342.4,0 0,756.2601 228.3,0 0,-527.9501 114.1,0 0,527.9501 228.3,0 -0.1,-545.7901 c -0.1,-590.72 -8.4,-768.07 -33.3,-708.88 -8.8,20.85 -16.9,266.32 -20.5,616.13 l -5.9,581.4701 -111.4,0 0,-527.9501 -228.3,0 0,527.9501 -114.1,0 0,-642.1101 342.4,0 0,-228.31 -338.3,0 -8.5,-239 c -10.3,-291.57 -28.7,-381.7 -43.1,-211.86 z"
         style="fill:#000000;fill-opacity:1;stroke:#231f20;stroke-width:1.25;stroke-linecap:butt;stroke-linejoin:miter;stroke-miterlimit:10;stroke-opacity:1;stroke-dasharray:none"
         id="path48-7"
         inkscape:connector-curvature="0" /><g
         transform="matrix(8,0,0,-8,2.2886811,11402.58)"
         style="font-size:12px;font-style:normal;font-weight:normal;line-height:125%;letter-spacing:0px;word-spacing:0px;fill:#000000;fill-opacity:1;stroke:none;font-family:Sans"
         id="flowRoot3031"><path
           d="m 523.38281,176.80533 0,-17.17968 7.30078,0 c 1.83593,1e-5 3.16796,0.15626 3.9961,0.46875 0.83592,0.3047 1.50389,0.85158 2.0039,1.64062 0.49999,0.78908 0.74999,1.69142 0.75,2.70703 -10e-6,1.28908 -0.37892,2.35548 -1.13672,3.19922 -0.75782,0.83595 -1.89063,1.36329 -3.39843,1.58203 0.74999,0.43751 1.36717,0.91798 1.85156,1.44141 0.49217,0.52344 1.15233,1.45313 1.98047,2.78906 l 2.09765,3.35156 -4.14843,0 -2.50782,-3.73828 c -0.89063,-1.33593 -1.5,-2.17577 -1.82812,-2.51953 -0.32813,-0.35155 -0.67579,-0.58984 -1.04297,-0.71484 -0.36719,-0.13281 -0.94922,-0.19921 -1.74609,-0.19922 l -0.70313,0 0,7.17187 -3.46875,0 m 3.46875,-9.91406 2.56641,0 c 1.66405,1e-5 2.70311,-0.0703 3.11719,-0.21094 0.41405,-0.14061 0.73827,-0.3828 0.97265,-0.72656 0.23437,-0.34374 0.35155,-0.77342 0.35156,-1.28906 -10e-6,-0.57811 -0.15626,-1.04296 -0.46875,-1.39453 -0.30469,-0.35936 -0.73829,-0.58593 -1.30078,-0.67969 -0.28126,-0.039 -1.12501,-0.0586 -2.53125,-0.0586 l -2.70703,0 0,4.35937"
           style="font-size:24px;font-variant:normal;font-weight:bold;font-stretch:normal;font-family:Arial;-inkscape-font-specification:Arial Bold"
           id="path3816"
           inkscape:connector-curvature="0" /><path
           d="m 540.71484,176.80533 0,-17.17968 12.73828,0 0,2.90625 -9.26953,0 0,3.80859 8.625,0 0,2.89453 -8.625,0 0,4.67578 9.59766,0 0,2.89453 -13.06641,0"
           style="font-size:24px;font-variant:normal;font-weight:bold;font-stretch:normal;font-family:Arial;-inkscape-font-specification:Arial Bold"
           id="path3818"
           inkscape:connector-curvature="0" /><path
           d="m 556.75781,159.62565 6.86719,0 c 1.35937,1e-5 2.37108,0.0586 3.03516,0.17578 0.67186,0.10939 1.26951,0.34376 1.79296,0.70312 0.53124,0.35939 0.97265,0.83986 1.32422,1.44141 0.35155,0.59376 0.52733,1.26173 0.52735,2.00391 -2e-5,0.8047 -0.21877,1.54298 -0.65625,2.21484 -0.4297,0.67188 -1.01564,1.17579 -1.75782,1.51172 1.04687,0.30469 1.85155,0.82423 2.41407,1.55859 0.56248,0.73438 0.84373,1.59766 0.84375,2.58985 -2e-5,0.78125 -0.18361,1.54297 -0.55078,2.28515 -0.35939,0.73438 -0.85549,1.32422 -1.48829,1.76953 -0.62501,0.4375 -1.39845,0.70703 -2.32031,0.8086 -0.57813,0.0625 -1.97266,0.10156 -4.18359,0.11718 l -5.84766,0 0,-17.17968 m 3.46875,2.85937 0,3.97266 2.27344,0 c 1.35155,1e-5 2.1914,-0.0195 2.51953,-0.0586 0.59374,-0.0703 1.05858,-0.27342 1.39453,-0.60937 0.34374,-0.34374 0.51562,-0.79296 0.51563,-1.34766 -1e-5,-0.53123 -0.14845,-0.96092 -0.44532,-1.28906 -0.28907,-0.33592 -0.72266,-0.53905 -1.30078,-0.60937 -0.34376,-0.0391 -1.33204,-0.0586 -2.96484,-0.0586 l -1.99219,0 m 0,6.83203 0,4.59375 3.21094,0 c 1.24999,1e-5 2.04296,-0.0351 2.37891,-0.10547 0.51561,-0.0937 0.93358,-0.3203 1.2539,-0.67968 0.32812,-0.36719 0.49218,-0.85547 0.49219,-1.46485 -10e-6,-0.51562 -0.12501,-0.95312 -0.375,-1.3125 -0.25001,-0.35937 -0.61329,-0.62108 -1.08984,-0.78515 -0.46876,-0.16406 -1.4922,-0.24609 -3.07032,-0.2461 l -2.80078,0"
           style="font-size:24px;font-variant:normal;font-weight:bold;font-stretch:normal;font-family:Arial;-inkscape-font-specification:Arial Bold"
           id="path3820"
           inkscape:connector-curvature="0" /><path
           d="m 574.08984,176.80533 0,-17.17968 12.73828,0 0,2.90625 -9.26953,0 0,3.80859 8.625,0 0,2.89453 -8.625,0 0,4.67578 9.59766,0 0,2.89453 -13.06641,0"
           style="font-size:24px;font-variant:normal;font-weight:bold;font-stretch:normal;font-family:Arial;-inkscape-font-specification:Arial Bold"
           id="path3822"
           inkscape:connector-curvature="0" /><path
           d="m 590.21484,176.80533 0,-17.03906 3.46875,0 0,14.14453 8.625,0 0,2.89453 -12.09375,0"
           style="font-size:24px;font-variant:normal;font-weight:bold;font-stretch:normal;font-family:Arial;-inkscape-font-specification:Arial Bold"
           id="path3824"
           inkscape:connector-curvature="0" /><path
           d="m 611.08594,159.62565 6.86718,0 c 1.35937,1e-5 2.37109,0.0586 3.03516,0.17578 0.67186,0.10939 1.26952,0.34376 1.79297,0.70312 0.53124,0.35939 0.97264,0.83986 1.32422,1.44141 0.35155,0.59376 0.52733,1.26173 0.52734,2.00391 -10e-6,0.8047 -0.21876,1.54298 -0.65625,2.21484 -0.4297,0.67188 -1.01564,1.17579 -1.75781,1.51172 1.04686,0.30469 1.85155,0.82423 2.41406,1.55859 0.56249,0.73438 0.84374,1.59766 0.84375,2.58985 -10e-6,0.78125 -0.18361,1.54297 -0.55078,2.28515 -0.35939,0.73438 -0.85548,1.32422 -1.48828,1.76953 -0.62501,0.4375 -1.39845,0.70703 -2.32031,0.8086 -0.57814,0.0625 -1.97267,0.10156 -4.1836,0.11718 l -5.84765,0 0,-17.17968 m 3.46875,2.85937 0,3.97266 2.27343,0 c 1.35156,1e-5 2.1914,-0.0195 2.51954,-0.0586 0.59374,-0.0703 1.05858,-0.27342 1.39453,-0.60937 0.34374,-0.34374 0.51561,-0.79296 0.51562,-1.34766 -10e-6,-0.53123 -0.14845,-0.96092 -0.44531,-1.28906 -0.28907,-0.33592 -0.72267,-0.53905 -1.30078,-0.60937 -0.34376,-0.0391 -1.33204,-0.0586 -2.96485,-0.0586 l -1.99218,0 m 0,6.83203 0,4.59375 3.21093,0 c 1.25,1e-5 2.04296,-0.0351 2.37891,-0.10547 0.51561,-0.0937 0.93358,-0.3203 1.25391,-0.67968 0.32811,-0.36719 0.49217,-0.85547 0.49218,-1.46485 -10e-6,-0.51562 -0.12501,-0.95312 -0.375,-1.3125 -0.25001,-0.35937 -0.61329,-0.62108 -1.08984,-0.78515 -0.46876,-0.16406 -1.4922,-0.24609 -3.07031,-0.2461 l -2.80078,0"
           style="font-size:24px;font-variant:normal;font-weight:bold;font-stretch:normal;font-family:Arial;-inkscape-font-specification:Arial Bold"
           id="path3826"
           inkscape:connector-curvature="0" /><path
           d="m 643.91016,176.80533 -3.77344,0 -1.5,-3.90234 -6.86719,0 -1.41797,3.90234 -3.67969,0 6.69141,-17.17968 3.66797,0 6.87891,17.17968 m -6.38672,-6.79687 -2.36719,-6.375 -2.32031,6.375 4.6875,0"
           style="font-size:24px;font-variant:normal;font-weight:bold;font-stretch:normal;font-family:Arial;-inkscape-font-specification:Arial Bold"
           id="path3828"
           inkscape:connector-curvature="0" /><path
           d="m 644.88281,171.21549 3.375,-0.32812 c 0.20312,1.13281 0.61328,1.96484 1.23047,2.49609 0.625,0.53125 1.46484,0.79688 2.51953,0.79687 1.11718,1e-5 1.95702,-0.23437 2.51953,-0.70312 0.57031,-0.47656 0.85546,-1.03125 0.85547,-1.66406 -10e-6,-0.40625 -0.1211,-0.75 -0.36328,-1.03125 -0.23438,-0.28906 -0.64845,-0.53906 -1.24219,-0.75 -0.40626,-0.14062 -1.33204,-0.39062 -2.77734,-0.75 -1.85938,-0.46093 -3.16407,-1.02734 -3.91406,-1.69922 -1.05469,-0.9453 -1.58204,-2.09765 -1.58203,-3.45703 -10e-6,-0.87499 0.24609,-1.69139 0.73828,-2.44922 0.49999,-0.76561 1.21484,-1.34764 2.14453,-1.7461 0.93749,-0.39842 2.0664,-0.59763 3.38672,-0.59765 2.15624,2e-5 3.77733,0.47267 4.86328,1.41797 1.09374,0.94532 1.66795,2.20704 1.72265,3.78515 l -3.46875,0.15235 c -0.14844,-0.8828 -0.46876,-1.51561 -0.96093,-1.89844 -0.48439,-0.39061 -1.21485,-0.58592 -2.19141,-0.58594 -1.00782,2e-5 -1.79688,0.20705 -2.36719,0.6211 -0.36719,0.26563 -0.55078,0.6211 -0.55078,1.0664 0,0.40626 0.17187,0.75392 0.51563,1.04297 0.43749,0.3672 1.49999,0.75001 3.1875,1.14844 1.68749,0.39845 2.93358,0.81251 3.73828,1.24219 0.81249,0.42188 1.4453,1.00391 1.89844,1.74609 0.46092,0.73438 0.69139,1.64454 0.6914,2.73047 -10e-6,0.98438 -0.27345,1.90625 -0.82031,2.76562 -0.54689,0.85938 -1.32033,1.5 -2.32031,1.92188 -1.00001,0.41406 -2.24611,0.62109 -3.73828,0.62109 -2.17188,0 -3.83985,-0.5 -5.00391,-1.5 -1.16406,-1.00781 -1.85938,-2.47265 -2.08594,-4.39453"
           style="font-size:24px;font-variant:normal;font-weight:bold;font-stretch:normal;font-family:Arial;-inkscape-font-specification:Arial Bold"
           id="path3830"
           inkscape:connector-curvature="0" /><path
           d="m 661.79297,176.80533 0,-17.17968 12.73828,0 0,2.90625 -9.26953,0 0,3.80859 8.625,0 0,2.89453 -8.625,0 0,4.67578 9.59765,0 0,2.89453 -13.0664,0"
           style="font-size:24px;font-variant:normal;font-weight:bold;font-stretch:normal;font-family:Arial;-inkscape-font-specification:Arial Bold"
           id="path3832"
           inkscape:connector-curvature="0" /></g><g
         transform="matrix(8,0,0,-8,1073.8824,10579.703)"
         style="font-size:24px;font-style:normal;font-weight:normal;line-height:125%;letter-spacing:0px;word-spacing:0px;fill:#000000;fill-opacity:1;stroke:none;font-family:Sans"
         id="flowRoot3807"><path
           d="m 366.56641,-84.73427 -12.09375,4.300781 12.09375,4.277344 0,2.132812 -15.02344,-5.449218 0,-1.945313 15.02344,-5.449219 0,2.132813"
           id="path3835"
           inkscape:connector-curvature="0" /><path
           d="m 370.28125,-80.456926 6.31641,0 0,1.921875 -6.31641,0 0,-1.921875"
           id="path3837"
           inkscape:connector-curvature="0" /><path
           d="m 378.95312,-80.456926 6.31641,0 0,1.921875 -6.31641,0 0,-1.921875"
           id="path3839"
           inkscape:connector-curvature="0" /><path
           d="m 403.83203,-82.355364 c 1.1328,0.242197 2.01561,0.746103 2.64844,1.511719 0.64061,0.765632 0.96092,1.710944 0.96094,2.835937 -2e-5,1.726566 -0.59377,3.062502 -1.78125,4.007813 -1.18751,0.945312 -2.87501,1.417968 -5.0625,1.417969 -0.73438,-10e-7 -1.4922,-0.07422 -2.27344,-0.222657 -0.77344,-0.140625 -1.57422,-0.355468 -2.40235,-0.644531 l 0,-2.285156 c 0.65625,0.382815 1.375,0.671877 2.15625,0.867187 0.78125,0.195315 1.59766,0.292971 2.44922,0.292969 1.48437,2e-6 2.61328,-0.292967 3.38672,-0.878906 0.78124,-0.585935 1.17187,-1.437496 1.17188,-2.554688 -10e-6,-1.031244 -0.36329,-1.83593 -1.08985,-2.414062 -0.71876,-0.58593 -1.72266,-0.878898 -3.01172,-0.878906 l -2.03906,0 0,-1.945313 2.13281,0 c 1.16406,10e-6 2.05468,-0.230458 2.67188,-0.691406 0.61718,-0.468739 0.92577,-1.140613 0.92578,-2.015625 -10e-6,-0.898424 -0.32032,-1.585923 -0.96094,-2.0625 -0.63282,-0.48436 -1.54297,-0.726547 -2.73047,-0.726563 -0.64844,1.6e-5 -1.34375,0.07033 -2.08593,0.210938 -0.74219,0.14064 -1.5586,0.35939 -2.44922,0.65625 l 0,-2.109375 c 0.89843,-0.249983 1.73828,-0.437483 2.51953,-0.5625 0.78906,-0.124982 1.53124,-0.187482 2.22656,-0.1875 1.79687,1.8e-5 3.21874,0.410174 4.26563,1.230469 1.04686,0.812515 1.5703,1.914077 1.57031,3.304687 -10e-6,0.968762 -0.27736,1.789074 -0.83203,2.460938 -0.5547,0.664072 -1.34376,1.125009 -2.36719,1.382812"
           id="path3841"
           inkscape:connector-curvature="0" /><path
           d="m 421.36328,-74.89052 0,6.960937 -2.16797,0 0,-18.117187 2.16797,0 0,1.992187 c 0.45312,-0.781238 1.02343,-1.359362 1.71094,-1.734375 0.6953,-0.382799 1.52343,-0.574205 2.48437,-0.574218 1.59374,1.3e-5 2.88671,0.632825 3.87891,1.898437 0.99999,1.265635 1.49999,2.929696 1.5,4.992188 -10e-6,2.062504 -0.50001,3.726565 -1.5,4.992187 -0.9922,1.265625 -2.28517,1.898437 -3.87891,1.898438 -0.96094,-10e-7 -1.78907,-0.187501 -2.48437,-0.5625 -0.68751,-0.382812 -1.25782,-0.964843 -1.71094,-1.746094 m 7.33594,-4.582031 c -1e-5,-1.58593 -0.32814,-2.828116 -0.98438,-3.726563 -0.64844,-0.906239 -1.54297,-1.359363 -2.68359,-1.359375 -1.14063,1.2e-5 -2.03907,0.453136 -2.69531,1.359375 -0.64844,0.898447 -0.97266,2.140633 -0.97266,3.726563 0,1.585942 0.32422,2.832035 0.97266,3.738281 0.65624,0.898439 1.55468,1.347658 2.69531,1.347656 1.14062,2e-6 2.03515,-0.449217 2.68359,-1.347656 0.65624,-0.906246 0.98437,-2.152339 0.98438,-3.738281"
           id="path3843"
           inkscape:connector-curvature="0" /><path
           d="m 440.47656,-79.519426 c -1.74219,6e-6 -2.94922,0.199225 -3.62109,0.597656 -0.67188,0.398443 -1.00782,1.07813 -1.00781,2.039062 -1e-5,0.765629 0.24999,1.375003 0.75,1.828125 0.5078,0.445315 1.1953,0.667971 2.0625,0.667969 1.1953,2e-6 2.15233,-0.421873 2.87109,-1.265625 0.72655,-0.851559 1.08983,-1.980464 1.08984,-3.386719 l 0,-0.480468 -2.14453,0 m 4.30078,-0.890625 0,7.488281 -2.15625,0 0,-1.992188 c -0.49219,0.796877 -1.10547,1.38672 -1.83984,1.769532 -0.73438,0.374999 -1.63282,0.562499 -2.69531,0.5625 -1.34376,-10e-7 -2.41407,-0.375 -3.21094,-1.125 -0.78906,-0.757811 -1.1836,-1.769529 -1.18359,-3.035157 -1e-5,-1.476557 0.49218,-2.589837 1.47656,-3.339843 0.99218,-0.749992 2.46874,-1.124992 4.42969,-1.125 l 3.02343,0 0,-0.210938 c -10e-6,-0.992178 -0.32813,-1.757802 -0.98437,-2.296875 -0.64845,-0.546864 -1.56251,-0.820301 -2.74219,-0.820312 -0.75,1.1e-5 -1.48047,0.08986 -2.19141,0.269531 -0.71094,0.179699 -1.39453,0.44923 -2.05078,0.808594 l 0,-1.992188 c 0.78906,-0.304675 1.55469,-0.531237 2.29688,-0.679687 0.74218,-0.156237 1.46484,-0.234362 2.16797,-0.234375 1.89843,1.3e-5 3.31639,0.4922 4.2539,1.476562 0.93749,0.984386 1.40624,2.476572 1.40625,4.476563"
           id="path3845"
           inkscape:connector-curvature="0" /><path
           d="m 460.14062,-80.843645 0,7.921875 -2.15625,0 0,-7.851563 c -1e-5,-1.242178 -0.24219,-2.171865 -0.72656,-2.789062 -0.48438,-0.617176 -1.21094,-0.92577 -2.17969,-0.925781 -1.16406,1.1e-5 -2.08203,0.371105 -2.7539,1.113281 -0.67188,0.742197 -1.00782,1.753915 -1.00781,3.035156 l 0,7.417969 -2.16797,0 0,-13.125 2.16797,0 0,2.039062 c 0.51562,-0.78905 1.12108,-1.378893 1.8164,-1.769531 0.70312,-0.390612 1.51171,-0.585924 2.42578,-0.585937 1.50781,1.3e-5 2.64843,0.468763 3.42188,1.40625 0.77342,0.929698 1.16014,2.300791 1.16015,4.113281"
           id="path3847"
           inkscape:connector-curvature="0" /><path
           d="m 475.69141,-80.023333 0,1.054688 -9.91407,0 c 0.0937,1.484379 0.53906,2.617191 1.33594,3.398437 0.80468,0.77344 1.92187,1.160158 3.35156,1.160157 0.82812,10e-7 1.6289,-0.101561 2.40235,-0.304688 0.78124,-0.203123 1.55467,-0.50781 2.32031,-0.914062 l 0,2.039062 c -0.77345,0.328125 -1.56642,0.578125 -2.37891,0.75 -0.81251,0.171875 -1.63672,0.257812 -2.47265,0.257813 -2.09376,-10e-7 -3.75391,-0.609375 -4.98047,-1.828125 -1.21875,-1.218748 -1.82813,-2.867184 -1.82813,-4.945313 0,-2.148429 0.57813,-3.851552 1.73438,-5.109375 1.16406,-1.265612 2.73046,-1.898424 4.69922,-1.898437 1.76561,1.3e-5 3.16014,0.570325 4.18359,1.710937 1.03124,1.132823 1.54686,2.67579 1.54688,4.628906 m -2.15625,-0.632812 c -0.0156,-1.179679 -0.34767,-2.121084 -0.9961,-2.824219 -0.64063,-0.703114 -1.49219,-1.054676 -2.55469,-1.054687 -1.20313,1.1e-5 -2.16797,0.339855 -2.89453,1.019531 -0.71875,0.679697 -1.13281,1.636728 -1.24218,2.871094 l 7.6875,-0.01172"
           id="path3849"
           inkscape:connector-curvature="0" /><path
           d="m 479.23047,-91.156145 2.15625,0 0,18.234375 -2.15625,0 0,-18.234375"
           id="path3851"
           inkscape:connector-curvature="0" /><path
           d="m 494.25391,-85.660051 0,2.039062 c -0.60939,-0.312489 -1.2422,-0.546864 -1.89844,-0.703125 -0.65626,-0.156238 -1.33595,-0.234363 -2.03906,-0.234375 -1.07032,1.2e-5 -1.87501,0.164074 -2.41407,0.492188 -0.53125,0.328135 -0.79687,0.820322 -0.79687,1.476562 0,0.500009 0.1914,0.89454 0.57422,1.183594 0.38281,0.281258 1.15234,0.550789 2.30859,0.808594 l 0.73828,0.164062 c 1.53124,0.328132 2.61718,0.792976 3.25781,1.394531 0.64843,0.593756 0.97265,1.425786 0.97266,2.496094 -10e-6,1.218753 -0.48438,2.183595 -1.45312,2.894531 -0.96095,0.710938 -2.28517,1.066406 -3.97266,1.066407 -0.70313,-10e-7 -1.4375,-0.07031 -2.20313,-0.210938 -0.75781,-0.132812 -1.55859,-0.335937 -2.40234,-0.609375 l 0,-2.226562 c 0.79687,0.414064 1.58203,0.726564 2.35547,0.9375 0.77343,0.203126 1.53906,0.304689 2.29687,0.304687 1.01562,2e-6 1.79687,-0.171873 2.34375,-0.515625 0.54687,-0.35156 0.82031,-0.843747 0.82032,-1.476562 -10e-6,-0.585934 -0.19923,-1.035152 -0.59766,-1.347657 -0.39063,-0.312495 -1.25391,-0.613275 -2.58984,-0.902343 l -0.75,-0.175782 c -1.33594,-0.281243 -2.30079,-0.710931 -2.89453,-1.289062 -0.59376,-0.58593 -0.89063,-1.38671 -0.89063,-2.402344 0,-1.234364 0.4375,-2.187488 1.3125,-2.859375 0.875,-0.671862 2.11718,-1.007799 3.72656,-1.007812 0.79687,1.3e-5 1.54687,0.05861 2.25,0.175781 0.70312,0.117201 1.35156,0.292982 1.94532,0.527344"
           id="path3853"
           inkscape:connector-curvature="0" /><path
           d="m 498.95312,-75.898333 2.47266,0 0,2.015625 -1.92187,3.75 -1.51172,0 0.96093,-3.75 0,-2.015625"
           id="path3855"
           inkscape:connector-curvature="0" /><path
           d="m 520.49219,-88.355364 -5.97657,9.339844 5.97657,0 0,-9.339844 m -0.6211,-2.0625 2.97657,0 0,11.402344 2.49609,0 0,1.96875 -2.49609,0 0,4.125 -2.35547,0 0,-4.125 -7.89844,0 0,-2.285156 7.27734,-11.085938"
           id="path3857"
           inkscape:connector-curvature="0" /><path
           d="m 536.44141,-82.355364 c 1.1328,0.242197 2.01561,0.746103 2.64843,1.511719 0.64062,0.765632 0.96093,1.710944 0.96094,2.835937 -10e-6,1.726566 -0.59376,3.062502 -1.78125,4.007813 -1.18751,0.945312 -2.87501,1.417968 -5.0625,1.417969 -0.73438,-10e-7 -1.49219,-0.07422 -2.27344,-0.222657 -0.77344,-0.140625 -1.57422,-0.355468 -2.40234,-0.644531 l 0,-2.285156 c 0.65625,0.382815 1.375,0.671877 2.15625,0.867187 0.78125,0.195315 1.59765,0.292971 2.44922,0.292969 1.48437,2e-6 2.61327,-0.292967 3.38672,-0.878906 0.78124,-0.585935 1.17186,-1.437496 1.17187,-2.554688 -10e-6,-1.031244 -0.36329,-1.83593 -1.08984,-2.414062 -0.71876,-0.58593 -1.72267,-0.878898 -3.01172,-0.878906 l -2.03906,0 0,-1.945313 2.13281,0 c 1.16405,10e-6 2.05468,-0.230458 2.67187,-0.691406 0.61718,-0.468739 0.92578,-1.140613 0.92579,-2.015625 -10e-6,-0.898424 -0.32033,-1.585923 -0.96094,-2.0625 -0.63282,-0.48436 -1.54298,-0.726547 -2.73047,-0.726563 -0.64844,1.6e-5 -1.34376,0.07033 -2.08594,0.210938 -0.74219,0.14064 -1.55859,0.35939 -2.44922,0.65625 l 0,-2.109375 c 0.89844,-0.249983 1.73828,-0.437483 2.51953,-0.5625 0.78906,-0.124982 1.53125,-0.187482 2.22657,-0.1875 1.79686,1.8e-5 3.21874,0.410174 4.26562,1.230469 1.04687,0.812515 1.5703,1.914077 1.57031,3.304687 -10e-6,0.968762 -0.27735,1.789074 -0.83203,2.460938 -0.5547,0.664072 -1.34376,1.125009 -2.36718,1.382812"
           id="path3859"
           inkscape:connector-curvature="0" /><path
           d="m 549.61328,-88.85927 c -1.21876,1.6e-5 -2.13672,0.601578 -2.75391,1.804687 -0.60937,1.195326 -0.91406,2.996105 -0.91406,5.402344 0,2.398444 0.30469,4.199223 0.91406,5.402344 0.61719,1.195314 1.53515,1.79297 2.75391,1.792969 1.22655,10e-7 2.14452,-0.597655 2.75391,-1.792969 0.61717,-1.203121 0.92577,-3.0039 0.92578,-5.402344 -10e-6,-2.406239 -0.30861,-4.207018 -0.92578,-5.402344 -0.60939,-1.203109 -1.52736,-1.804671 -2.75391,-1.804687 m 0,-1.875 c 1.96093,1.8e-5 3.45702,0.777361 4.48828,2.332031 1.03905,1.546889 1.55858,3.796887 1.5586,6.75 -2e-5,2.945318 -0.51955,5.195316 -1.5586,6.75 -1.03126,1.546876 -2.52735,2.320312 -4.48828,2.320313 -1.96094,-10e-7 -3.46094,-0.773437 -4.5,-2.320313 -1.03125,-1.554684 -1.54688,-3.804682 -1.54687,-6.75 -10e-6,-2.953113 0.51562,-5.203111 1.54687,-6.75 1.03906,-1.55467 2.53906,-2.332013 4.5,-2.332031"
           id="path3861"
           inkscape:connector-curvature="0" /><path
           d="m 559.83203,-75.898333 2.47266,0 0,2.976563 -2.47266,0 0,-2.976563"
           id="path3863"
           inkscape:connector-curvature="0" /><path
           d="m 567.49609,-90.417864 9.29297,0 0,1.992188 -7.125,0 0,4.289062 c 0.34375,-0.117176 0.6875,-0.203113 1.03125,-0.257812 0.34375,-0.06249 0.6875,-0.09374 1.03125,-0.09375 1.95312,1.1e-5 3.49999,0.535167 4.64063,1.605468 1.14061,1.070322 1.71092,2.519539 1.71093,4.347657 -10e-6,1.882816 -0.58595,3.347658 -1.75781,4.394531 -1.17188,1.039063 -2.82422,1.558593 -4.95703,1.558594 -0.73438,-10e-7 -1.48438,-0.0625 -2.25,-0.1875 -0.75781,-0.125 -1.54297,-0.3125 -2.35547,-0.5625 l 0,-2.378907 c 0.70312,0.382815 1.42969,0.667971 2.17969,0.855469 0.75,0.187502 1.54296,0.281252 2.37891,0.28125 1.35155,2e-6 2.42186,-0.355467 3.21093,-1.066406 0.78906,-0.710934 1.18359,-1.675777 1.1836,-2.894531 -1e-5,-1.218744 -0.39454,-2.183586 -1.1836,-2.894532 -0.78907,-0.710928 -1.85938,-1.066396 -3.21093,-1.066406 -0.63282,10e-6 -1.26563,0.07032 -1.89844,0.210938 -0.62501,0.140634 -1.26563,0.359384 -1.92188,0.65625 l 0,-8.789063"
           id="path3865"
           inkscape:connector-curvature="0" /><path
           d="m 592.66797,-83.527239 c 0.53905,-0.968738 1.18358,-1.683581 1.93359,-2.144531 0.74999,-0.460924 1.6328,-0.691393 2.64844,-0.691406 1.36717,1.3e-5 2.42186,0.480481 3.16406,1.441406 0.74217,0.953136 1.11326,2.31251 1.11328,4.078125 l 0,7.921875 -2.16797,0 0,-7.851563 c -10e-6,-1.257803 -0.22267,-2.191396 -0.66796,-2.800781 -0.44533,-0.609364 -1.12502,-0.914051 -2.03907,-0.914062 -1.1172,1.1e-5 -2.00001,0.371105 -2.64843,1.113281 -0.64845,0.742197 -0.97267,1.753915 -0.97266,3.035156 l 0,7.417969 -2.16797,0 0,-7.851563 c -10e-6,-1.265616 -0.22267,-2.199208 -0.66797,-2.800781 -0.44532,-0.609364 -1.13282,-0.914051 -2.0625,-0.914062 -1.10157,1.1e-5 -1.97657,0.375011 -2.625,1.125 -0.64844,0.742197 -0.97266,1.750008 -0.97265,3.023437 l 0,7.417969 -2.16797,0 0,-13.125 2.16797,0 0,2.039062 c 0.49218,-0.804675 1.08202,-1.398425 1.76953,-1.78125 0.68749,-0.382799 1.5039,-0.574205 2.44922,-0.574218 0.95311,1.3e-5 1.7617,0.2422 2.42578,0.726562 0.67186,0.484387 1.16795,1.187512 1.48828,2.109375"
           id="path3867"
           inkscape:connector-curvature="0" /><path
           d="m 616.05859,-83.527239 c 0.53905,-0.968738 1.18358,-1.683581 1.9336,-2.144531 0.74998,-0.460924 1.63279,-0.691393 2.64843,-0.691406 1.36717,1.3e-5 2.42186,0.480481 3.16407,1.441406 0.74216,0.953136 1.11326,2.31251 1.11328,4.078125 l 0,7.921875 -2.16797,0 0,-7.851563 c -2e-5,-1.257803 -0.22268,-2.191396 -0.66797,-2.800781 -0.44533,-0.609364 -1.12502,-0.914051 -2.03906,-0.914062 -1.1172,1.1e-5 -2.00002,0.371105 -2.64844,1.113281 -0.64845,0.742197 -0.97267,1.753915 -0.97266,3.035156 l 0,7.417969 -2.16796,0 0,-7.851563 c -10e-6,-1.265616 -0.22267,-2.199208 -0.66797,-2.800781 -0.44532,-0.609364 -1.13282,-0.914051 -2.0625,-0.914062 -1.10157,1.1e-5 -1.97657,0.375011 -2.625,1.125 -0.64844,0.742197 -0.97266,1.750008 -0.97266,3.023437 l 0,7.417969 -2.16797,0 0,-13.125 2.16797,0 0,2.039062 c 0.49218,-0.804675 1.08203,-1.398425 1.76953,-1.78125 0.6875,-0.382799 1.5039,-0.574205 2.44922,-0.574218 0.95312,1.3e-5 1.76171,0.2422 2.42578,0.726562 0.67187,0.484387 1.16796,1.187512 1.48828,2.109375"
           id="path3869"
           inkscape:connector-curvature="0" /><path
           d="m 635.61719,-86.04677 2.15625,0 2.69531,10.242187 2.68359,-10.242187 2.54297,0 2.69531,10.242187 2.6836,-10.242187 2.15625,0 -3.4336,13.125 -2.54296,0 -2.82422,-10.757813 -2.83594,10.757813 -2.54297,0 -3.43359,-13.125"
           id="path3871"
           inkscape:connector-curvature="0" /><path
           d="m 656.51172,-86.04677 2.15625,0 0,13.125 -2.15625,0 0,-13.125 m 0,-5.109375 2.15625,0 0,2.730469 -2.15625,0 0,-2.730469"
           id="path3873"
           inkscape:connector-curvature="0" /><path
           d="m 671.80469,-84.054583 0,-7.101562 2.15625,0 0,18.234375 -2.15625,0 0,-1.96875 c -0.45314,0.781251 -1.02736,1.363282 -1.72266,1.746094 -0.68751,0.374999 -1.51563,0.562499 -2.48437,0.5625 -1.58595,-10e-7 -2.87891,-0.632813 -3.87891,-1.898438 -0.99219,-1.265622 -1.48828,-2.929683 -1.48828,-4.992187 0,-2.062492 0.49609,-3.726553 1.48828,-4.992188 1,-1.265612 2.29296,-1.898424 3.87891,-1.898437 0.96874,1.3e-5 1.79686,0.191419 2.48437,0.574218 0.6953,0.375013 1.26952,0.953137 1.72266,1.734375 m -7.34766,4.582032 c 0,1.585942 0.32422,2.832035 0.97266,3.738281 0.65624,0.898439 1.55468,1.347658 2.69531,1.347656 1.14062,2e-6 2.03905,-0.449217 2.69531,-1.347656 0.65624,-0.906246 0.98437,-2.152339 0.98438,-3.738281 -1e-5,-1.58593 -0.32814,-2.828116 -0.98438,-3.726563 -0.65626,-0.906239 -1.55469,-1.359363 -2.69531,-1.359375 -1.14063,1.2e-5 -2.03907,0.453136 -2.69531,1.359375 -0.64844,0.898447 -0.97266,2.140633 -0.97266,3.726563"
           id="path3875"
           inkscape:connector-curvature="0" /><path
           d="m 689.62891,-80.023333 0,1.054688 -9.91407,0 c 0.0937,1.484379 0.53906,2.617191 1.33594,3.398437 0.80468,0.77344 1.92187,1.160158 3.35156,1.160157 0.82812,10e-7 1.6289,-0.101561 2.40235,-0.304688 0.78124,-0.203123 1.55467,-0.50781 2.32031,-0.914062 l 0,2.039062 c -0.77345,0.328125 -1.56642,0.578125 -2.37891,0.75 -0.81251,0.171875 -1.63672,0.257812 -2.47265,0.257813 -2.09376,-10e-7 -3.75391,-0.609375 -4.98047,-1.828125 -1.21875,-1.218748 -1.82813,-2.867184 -1.82813,-4.945313 0,-2.148429 0.57813,-3.851552 1.73438,-5.109375 1.16406,-1.265612 2.73046,-1.898424 4.69922,-1.898437 1.76561,1.3e-5 3.16014,0.570325 4.18359,1.710937 1.03124,1.132823 1.54686,2.67579 1.54688,4.628906 m -2.15625,-0.632812 c -0.0156,-1.179679 -0.34767,-2.121084 -0.9961,-2.824219 -0.64063,-0.703114 -1.49219,-1.054676 -2.55469,-1.054687 -1.20313,1.1e-5 -2.16797,0.339855 -2.89453,1.019531 -0.71875,0.679697 -1.13281,1.636728 -1.24218,2.871094 l 7.6875,-0.01172"
           id="path3877"
           inkscape:connector-curvature="0" /><path
           d="m 693.71875,-75.898333 2.47266,0 0,2.015625 -1.92188,3.75 -1.51172,0 0.96094,-3.75 0,-2.015625"
           id="path3879"
           inkscape:connector-curvature="0" /><path
           d="m 715.92578,-82.355364 c 1.1328,0.242197 2.01561,0.746103 2.64844,1.511719 0.64061,0.765632 0.96092,1.710944 0.96094,2.835937 -2e-5,1.726566 -0.59377,3.062502 -1.78125,4.007813 -1.18751,0.945312 -2.87501,1.417968 -5.0625,1.417969 -0.73438,-10e-7 -1.4922,-0.07422 -2.27344,-0.222657 -0.77344,-0.140625 -1.57422,-0.355468 -2.40235,-0.644531 l 0,-2.285156 c 0.65625,0.382815 1.375,0.671877 2.15625,0.867187 0.78125,0.195315 1.59766,0.292971 2.44922,0.292969 1.48437,2e-6 2.61328,-0.292967 3.38672,-0.878906 0.78124,-0.585935 1.17187,-1.437496 1.17188,-2.554688 -1e-5,-1.031244 -0.36329,-1.83593 -1.08985,-2.414062 -0.71876,-0.58593 -1.72266,-0.878898 -3.01172,-0.878906 l -2.03906,0 0,-1.945313 2.13281,0 c 1.16406,10e-6 2.05468,-0.230458 2.67188,-0.691406 0.61718,-0.468739 0.92577,-1.140613 0.92578,-2.015625 -10e-6,-0.898424 -0.32032,-1.585923 -0.96094,-2.0625 -0.63282,-0.48436 -1.54297,-0.726547 -2.73047,-0.726563 -0.64844,1.6e-5 -1.34375,0.07033 -2.08593,0.210938 -0.74219,0.14064 -1.5586,0.35939 -2.44922,0.65625 l 0,-2.109375 c 0.89843,-0.249983 1.73828,-0.437483 2.51953,-0.5625 0.78906,-0.124982 1.53124,-0.187482 2.22656,-0.1875 1.79687,1.8e-5 3.21874,0.410174 4.26563,1.230469 1.04686,0.812515 1.5703,1.914077 1.57031,3.304687 -10e-6,0.968762 -0.27736,1.789074 -0.83203,2.460938 -0.5547,0.664072 -1.34376,1.125009 -2.36719,1.382812"
           id="path3881"
           inkscape:connector-curvature="0" /><path
           d="m 733.94922,-83.527239 c 0.53905,-0.968738 1.18358,-1.683581 1.93359,-2.144531 0.74999,-0.460924 1.6328,-0.691393 2.64844,-0.691406 1.36717,1.3e-5 2.42186,0.480481 3.16406,1.441406 0.74217,0.953136 1.11326,2.31251 1.11328,4.078125 l 0,7.921875 -2.16797,0 0,-7.851563 c -10e-6,-1.257803 -0.22267,-2.191396 -0.66796,-2.800781 -0.44533,-0.609364 -1.12502,-0.914051 -2.03907,-0.914062 -1.1172,1.1e-5 -2.00001,0.371105 -2.64843,1.113281 -0.64845,0.742197 -0.97267,1.753915 -0.97266,3.035156 l 0,7.417969 -2.16797,0 0,-7.851563 c -10e-6,-1.265616 -0.22267,-2.199208 -0.66797,-2.800781 -0.44532,-0.609364 -1.13282,-0.914051 -2.0625,-0.914062 -1.10157,1.1e-5 -1.97657,0.375011 -2.625,1.125 -0.64844,0.742197 -0.97266,1.750008 -0.97265,3.023437 l 0,7.417969 -2.16797,0 0,-13.125 2.16797,0 0,2.039062 c 0.49218,-0.804675 1.08202,-1.398425 1.76953,-1.78125 0.68749,-0.382799 1.5039,-0.574205 2.44922,-0.574218 0.95311,1.3e-5 1.7617,0.2422 2.42578,0.726562 0.67186,0.484387 1.16795,1.187512 1.48828,2.109375"
           id="path3883"
           inkscape:connector-curvature="0" /><path
           d="m 757.33984,-83.527239 c 0.53905,-0.968738 1.18358,-1.683581 1.9336,-2.144531 0.74998,-0.460924 1.63279,-0.691393 2.64843,-0.691406 1.36717,1.3e-5 2.42186,0.480481 3.16407,1.441406 0.74216,0.953136 1.11326,2.31251 1.11328,4.078125 l 0,7.921875 -2.16797,0 0,-7.851563 c -2e-5,-1.257803 -0.22268,-2.191396 -0.66797,-2.800781 -0.44533,-0.609364 -1.12502,-0.914051 -2.03906,-0.914062 -1.1172,1.1e-5 -2.00002,0.371105 -2.64844,1.113281 -0.64845,0.742197 -0.97267,1.753915 -0.97266,3.035156 l 0,7.417969 -2.16796,0 0,-7.851563 c -10e-6,-1.265616 -0.22267,-2.199208 -0.66797,-2.800781 -0.44532,-0.609364 -1.13282,-0.914051 -2.0625,-0.914062 -1.10157,1.1e-5 -1.97657,0.375011 -2.625,1.125 -0.64844,0.742197 -0.97266,1.750008 -0.97266,3.023437 l 0,7.417969 -2.16797,0 0,-13.125 2.16797,0 0,2.039062 c 0.49218,-0.804675 1.08203,-1.398425 1.76953,-1.78125 0.6875,-0.382799 1.5039,-0.574205 2.44922,-0.574218 0.95312,1.3e-5 1.76171,0.2422 2.42578,0.726562 0.67187,0.484387 1.16796,1.187512 1.48828,2.109375"
           id="path3885"
           inkscape:connector-curvature="0" /><path
           d="m 780.23828,-74.89052 0,6.960937 -2.16797,0 0,-18.117187 2.16797,0 0,1.992187 c 0.45312,-0.781238 1.02343,-1.359362 1.71094,-1.734375 0.6953,-0.382799 1.52343,-0.574205 2.48437,-0.574218 1.59374,1.3e-5 2.88671,0.632825 3.87891,1.898437 0.99999,1.265635 1.49999,2.929696 1.5,4.992188 -10e-6,2.062504 -0.50001,3.726565 -1.5,4.992187 -0.9922,1.265625 -2.28517,1.898437 -3.87891,1.898438 -0.96094,-10e-7 -1.78907,-0.187501 -2.48437,-0.5625 -0.68751,-0.382812 -1.25782,-0.964843 -1.71094,-1.746094 m 7.33594,-4.582031 c -10e-6,-1.58593 -0.32814,-2.828116 -0.98438,-3.726563 -0.64844,-0.906239 -1.54297,-1.359363 -2.68359,-1.359375 -1.14063,1.2e-5 -2.03907,0.453136 -2.69531,1.359375 -0.64844,0.898447 -0.97266,2.140633 -0.97266,3.726563 0,1.585942 0.32422,2.832035 0.97266,3.738281 0.65624,0.898439 1.55468,1.347658 2.69531,1.347656 1.14062,2e-6 2.03515,-0.449217 2.68359,-1.347656 0.65624,-0.906246 0.98437,-2.152339 0.98438,-3.738281"
           id="path3887"
           inkscape:connector-curvature="0" /><path
           d="m 804.61328,-80.023333 0,1.054688 -9.91406,0 c 0.0937,1.484379 0.53906,2.617191 1.33594,3.398437 0.80468,0.77344 1.92186,1.160158 3.35156,1.160157 0.82811,10e-7 1.6289,-0.101561 2.40234,-0.304688 0.78124,-0.203123 1.55468,-0.50781 2.32031,-0.914062 l 0,2.039062 c -0.77344,0.328125 -1.56641,0.578125 -2.3789,0.75 -0.81251,0.171875 -1.63673,0.257812 -2.47266,0.257813 -2.09375,-10e-7 -3.75391,-0.609375 -4.98047,-1.828125 -1.21875,-1.218748 -1.82812,-2.867184 -1.82812,-4.945313 0,-2.148429 0.57812,-3.851552 1.73437,-5.109375 1.16406,-1.265612 2.73047,-1.898424 4.69922,-1.898437 1.76562,1.3e-5 3.16015,0.570325 4.1836,1.710937 1.03123,1.132823 1.54686,2.67579 1.54687,4.628906 m -2.15625,-0.632812 c -0.0156,-1.179679 -0.34767,-2.121084 -0.99609,-2.824219 -0.64064,-0.703114 -1.4922,-1.054676 -2.55469,-1.054687 -1.20313,1.1e-5 -2.16797,0.339855 -2.89453,1.019531 -0.71876,0.679697 -1.13282,1.636728 -1.24219,2.871094 l 7.6875,-0.01172"
           id="path3889"
           inkscape:connector-curvature="0" /><path
           d="m 815.75781,-84.031145 c -0.24219,-0.140614 -0.50782,-0.242176 -0.79687,-0.304688 -0.28126,-0.0703 -0.59376,-0.105457 -0.9375,-0.105468 -1.21876,1.1e-5 -2.15626,0.398448 -2.8125,1.195312 -0.64844,0.789072 -0.97266,1.92579 -0.97266,3.410156 l 0,6.914063 -2.16797,0 0,-13.125 2.16797,0 0,2.039062 c 0.45312,-0.796863 1.04296,-1.386706 1.76953,-1.769531 0.72656,-0.390612 1.60937,-0.585924 2.64844,-0.585937 0.14843,1.3e-5 0.31249,0.01173 0.49219,0.03516 0.17968,0.01564 0.37889,0.04298 0.59765,0.08203 l 0.0117,2.214844"
           id="path3891"
           inkscape:connector-curvature="0" /><path
           d="m 826.41016,-85.660051 0,2.039062 c -0.60939,-0.312489 -1.2422,-0.546864 -1.89844,-0.703125 -0.65626,-0.156238 -1.33595,-0.234363 -2.03906,-0.234375 -1.07032,1.2e-5 -1.87501,0.164074 -2.41407,0.492188 -0.53125,0.328135 -0.79687,0.820322 -0.79687,1.476562 0,0.500009 0.1914,0.89454 0.57422,1.183594 0.38281,0.281258 1.15234,0.550789 2.30859,0.808594 l 0.73828,0.164062 c 1.53124,0.328132 2.61718,0.792976 3.25781,1.394531 0.64843,0.593756 0.97265,1.425786 0.97266,2.496094 -10e-6,1.218753 -0.48438,2.183595 -1.45312,2.894531 -0.96095,0.710938 -2.28517,1.066406 -3.97266,1.066407 -0.70313,-10e-7 -1.4375,-0.07031 -2.20313,-0.210938 -0.75781,-0.132812 -1.55859,-0.335937 -2.40234,-0.609375 l 0,-2.226562 c 0.79687,0.414064 1.58203,0.726564 2.35547,0.9375 0.77343,0.203126 1.53906,0.304689 2.29687,0.304687 1.01562,2e-6 1.79687,-0.171873 2.34375,-0.515625 0.54687,-0.35156 0.82031,-0.843747 0.82032,-1.476562 -1e-5,-0.585934 -0.19923,-1.035152 -0.59766,-1.347657 -0.39063,-0.312495 -1.25391,-0.613275 -2.58984,-0.902343 l -0.75,-0.175782 c -1.33594,-0.281243 -2.30079,-0.710931 -2.89453,-1.289062 -0.59376,-0.58593 -0.89063,-1.38671 -0.89063,-2.402344 0,-1.234364 0.4375,-2.187488 1.3125,-2.859375 0.875,-0.671862 2.11718,-1.007799 3.72656,-1.007812 0.79687,1.3e-5 1.54687,0.05861 2.25,0.175781 0.70312,0.117201 1.35156,0.292982 1.94532,0.527344"
           id="path3893"
           inkscape:connector-curvature="0" /><path
           d="m 832.64453,-74.89052 0,6.960937 -2.16797,0 0,-18.117187 2.16797,0 0,1.992187 c 0.45312,-0.781238 1.02343,-1.359362 1.71094,-1.734375 0.6953,-0.382799 1.52343,-0.574205 2.48437,-0.574218 1.59374,1.3e-5 2.88671,0.632825 3.87891,1.898437 0.99999,1.265635 1.49999,2.929696 1.5,4.992188 -10e-6,2.062504 -0.50001,3.726565 -1.5,4.992187 -0.9922,1.265625 -2.28517,1.898437 -3.87891,1.898438 -0.96094,-10e-7 -1.78907,-0.187501 -2.48437,-0.5625 -0.68751,-0.382812 -1.25782,-0.964843 -1.71094,-1.746094 m 7.33594,-4.582031 c -10e-6,-1.58593 -0.32814,-2.828116 -0.98438,-3.726563 -0.64844,-0.906239 -1.54297,-1.359363 -2.68359,-1.359375 -1.14063,1.2e-5 -2.03907,0.453136 -2.69531,1.359375 -0.64844,0.898447 -0.97266,2.140633 -0.97266,3.726563 0,1.585942 0.32422,2.832035 0.97266,3.738281 0.65624,0.898439 1.55468,1.347658 2.69531,1.347656 1.14062,2e-6 2.03515,-0.449217 2.68359,-1.347656 0.65624,-0.906246 0.98437,-2.152339 0.98438,-3.738281"
           id="path3895"
           inkscape:connector-curvature="0" /><path
           d="m 857.01953,-80.023333 0,1.054688 -9.91406,0 c 0.0937,1.484379 0.53906,2.617191 1.33594,3.398437 0.80468,0.77344 1.92186,1.160158 3.35156,1.160157 0.82811,10e-7 1.6289,-0.101561 2.40234,-0.304688 0.78124,-0.203123 1.55468,-0.50781 2.32031,-0.914062 l 0,2.039062 c -0.77344,0.328125 -1.56641,0.578125 -2.3789,0.75 -0.81251,0.171875 -1.63673,0.257812 -2.47266,0.257813 -2.09375,-10e-7 -3.75391,-0.609375 -4.98047,-1.828125 -1.21875,-1.218748 -1.82812,-2.867184 -1.82812,-4.945313 0,-2.148429 0.57812,-3.851552 1.73437,-5.109375 1.16406,-1.265612 2.73047,-1.898424 4.69922,-1.898437 1.76562,1.3e-5 3.16015,0.570325 4.1836,1.710937 1.03123,1.132823 1.54686,2.67579 1.54687,4.628906 m -2.15625,-0.632812 c -0.0156,-1.179679 -0.34767,-2.121084 -0.99609,-2.824219 -0.64064,-0.703114 -1.4922,-1.054676 -2.55469,-1.054687 -1.20313,1.1e-5 -2.16797,0.339855 -2.89453,1.019531 -0.71876,0.679697 -1.13282,1.636728 -1.24219,2.871094 l 7.6875,-0.01172"
           id="path3897"
           inkscape:connector-curvature="0" /><path
           d="m 871.04687,-86.04677 -4.74609,6.386719 4.99219,6.738281 -2.54297,0 -3.82031,-5.15625 -3.82032,5.15625 -2.54296,0 5.09765,-6.867188 L 859,-86.04677 l 2.54297,0 3.48047,4.675781 3.48047,-4.675781 2.54296,0"
           id="path3899"
           inkscape:connector-curvature="0" /><path
           d="m 880.89062,-80.456926 6.31641,0 0,1.921875 -6.31641,0 0,-1.921875"
           id="path3901"
           inkscape:connector-curvature="0" /><path
           d="m 889.5625,-80.456926 6.31641,0 0,1.921875 -6.31641,0 0,-1.921875"
           id="path3903"
           inkscape:connector-curvature="0" /><path
           d="m 899.60547,-84.73427 0,-2.132813 15.02344,5.449219 0,1.945313 -15.02344,5.449218 0,-2.132812 12.07031,-4.277344 -12.07031,-4.300781"
           id="path3905"
           inkscape:connector-curvature="0" /></g></g></g></svg>