<?xml version="1.0" encoding="UTF-8" standalone="no"?>
<!-- Created with Inkscape (http://www.inkscape.org/) -->

<svg
   xmlns:dc="http://purl.org/dc/elements/1.1/"
   xmlns:cc="http://creativecommons.org/ns#"
   xmlns:rdf="http://www.w3.org/1999/02/22-rdf-syntax-ns#"
   xmlns:svg="http://www.w3.org/2000/svg"
   xmlns="http://www.w3.org/2000/svg"
   xmlns:sodipodi="http://sodipodi.sourceforge.net/DTD/sodipodi-0.dtd"
   xmlns:inkscape="http://www.inkscape.org/namespaces/inkscape"
   width="210mm"
   height="297mm"
   viewBox="0 0 210 297"
   version="1.1"
   id="svg8"
   inkscape:version="0.91 r13725"
   sodipodi:docname="Magus.svg">
  <defs
     id="defs2" />
  <sodipodi:namedview
     id="base"
     pagecolor="#ffffff"
     bordercolor="#666666"
     borderopacity="1.0"
     inkscape:pageopacity="0.0"
     inkscape:pageshadow="2"
     inkscape:zoom="1.4420545"
     inkscape:cx="406.80203"
     inkscape:cy="608.45767"
     inkscape:document-units="mm"
     inkscape:current-layer="layer1"
     showgrid="false"
     inkscape:window-width="1615"
     inkscape:window-height="1026"
     inkscape:window-x="65"
     inkscape:window-y="24"
     inkscape:window-maximized="1"
     inkscape:snap-page="true"
     showguides="false" />
  <metadata
     id="metadata5">
    <rdf:RDF>
      <cc:Work
         rdf:about="">
        <dc:format>image/svg+xml</dc:format>
        <dc:type
           rdf:resource="http://purl.org/dc/dcmitype/StillImage" />
        <dc:title />
      </cc:Work>
    </rdf:RDF>
  </metadata>
  <g
     inkscape:label="Layer 1"
     inkscape:groupmode="layer"
     id="layer1">
    <text
       xml:space="preserve"
       style="font-style:normal;font-weight:normal;font-size:10.58333302px;line-height:1.25;font-family:sans-serif;letter-spacing:0px;word-spacing:0px;fill:#000000;fill-opacity:1;stroke:#ffffff;stroke-width:0.26458332;stroke-opacity:1"
       x="59.180794"
       y="79.918182"
       id="text4871"><tspan
         sodipodi:role="line"
         id="tspan4869"
         x="59.180794"
         y="89.573677"
         style="font-style:normal;font-variant:normal;font-weight:normal;font-stretch:normal;font-family:'Showcard Gothic';-inkscape-font-specification:'Showcard Gothic';stroke:#ffffff;stroke-width:0.26458332;stroke-opacity:1" /></text>
    <rect
       style="fill:#000000;fill-opacity:1;stroke:#000909;stroke-width:0.28942803;stroke-miterlimit:4;stroke-dasharray:none;stroke-opacity:1"
       id="rect4863"
       width="100.7362"
       height="127.99768"
       x="49.903198"
       y="59.467266" />
    <g
       id="g4861"
       transform="matrix(2.2614058,0,0,2.2614058,-21.184879,-196.77557)"
       style="stroke:#ffffff;stroke-width:0.05527534;stroke-miterlimit:4;stroke-dasharray:none;stroke-opacity:1">
      <ellipse
         style="fill:none;stroke:#ffffff;stroke-width:0.05527534;stroke-miterlimit:4;stroke-dasharray:none;stroke-opacity:1"
         ry="45.735119"
         rx="45.357143"
         cy="130.83035"
         cx="53.927418"
         id="path10" />
      <path
         inkscape:connector-curvature="0"
         id="path4523"
         d="M 53.927413,176.37648 53.738423,85.095229 31.43783,170.13987"
         style="fill:none;stroke:#ffffff;stroke-width:0.05527534;stroke-linecap:butt;stroke-linejoin:miter;stroke-miterlimit:4;stroke-dasharray:none;stroke-opacity:1" />
      <path
         inkscape:connector-curvature="0"
         id="path4525"
         d="M 14.806878,153.31993 53.738423,85.095229 8.381282,130.64136"
         style="fill:none;stroke:#ffffff;stroke-width:0.05527534;stroke-linecap:butt;stroke-linejoin:miter;stroke-miterlimit:4;stroke-dasharray:none;stroke-opacity:1" />
      <path
         inkscape:connector-curvature="0"
         id="path4527"
         d="M 14.617889,108.15178 53.738423,85.095229 31.248842,91.520825"
         style="fill:none;stroke:#ffffff;stroke-width:0.05527534;stroke-linecap:butt;stroke-linejoin:miter;stroke-miterlimit:4;stroke-dasharray:none;stroke-opacity:1" />
      <path
         inkscape:connector-curvature="0"
         id="path4529"
         d="M 76.416996,169.95088 53.738423,85.095229 92.858956,153.50892"
         style="fill:none;stroke:#ffffff;stroke-width:0.05527534;stroke-linecap:butt;stroke-linejoin:miter;stroke-miterlimit:4;stroke-dasharray:none;stroke-opacity:1" />
      <path
         inkscape:connector-curvature="0"
         id="path4531"
         d="M 53.738423,85.095229 98.906576,130.83034"
         style="fill:none;stroke:#ffffff;stroke-width:0.05527534;stroke-linecap:butt;stroke-linejoin:miter;stroke-miterlimit:4;stroke-dasharray:none;stroke-opacity:1" />
      <path
         inkscape:connector-curvature="0"
         id="path4533"
         d="M 92.669976,107.96279 53.738423,85.095229 76.228008,91.709813"
         style="fill:none;stroke:#ffffff;stroke-width:0.05527534;stroke-linecap:butt;stroke-linejoin:miter;stroke-miterlimit:4;stroke-dasharray:none;stroke-opacity:1" />
      <path
         inkscape:connector-curvature="0"
         id="path4535"
         d="m 76.416996,169.95088 -22.489583,6.4256 38.931543,-22.86756"
         style="fill:none;stroke:#ffffff;stroke-width:0.05527534;stroke-linecap:butt;stroke-linejoin:miter;stroke-miterlimit:4;stroke-dasharray:none;stroke-opacity:1" />
      <path
         inkscape:connector-curvature="0"
         id="path4537"
         d="M 98.906576,130.83034 53.927413,176.37648 92.669976,107.96279"
         style="fill:none;stroke:#ffffff;stroke-width:0.05527534;stroke-linecap:butt;stroke-linejoin:miter;stroke-miterlimit:4;stroke-dasharray:none;stroke-opacity:1" />
      <path
         inkscape:connector-curvature="0"
         id="path4539"
         d="M 76.228006,91.709812 53.927413,176.37648 31.248842,91.520825"
         style="fill:none;stroke:#ffffff;stroke-width:0.05527534;stroke-linecap:butt;stroke-linejoin:miter;stroke-miterlimit:4;stroke-dasharray:none;stroke-opacity:1" />
      <path
         inkscape:connector-curvature="0"
         id="path4541"
         d="M 14.617889,108.15178 53.927413,176.37648 8.381282,130.64136"
         style="fill:none;stroke:#ffffff;stroke-width:0.05527534;stroke-linecap:butt;stroke-linejoin:miter;stroke-miterlimit:4;stroke-dasharray:none;stroke-opacity:1" />
      <path
         inkscape:connector-curvature="0"
         id="path4543"
         d="M 14.806878,153.31993 53.927413,176.37648 31.43783,170.13987"
         style="fill:none;stroke:#ffffff;stroke-width:0.05527534;stroke-linecap:butt;stroke-linejoin:miter;stroke-miterlimit:4;stroke-dasharray:none;stroke-opacity:1" />
      <path
         inkscape:connector-curvature="0"
         id="path4545"
         d="M 14.617889,108.15178 8.381281,130.64136 31.248842,91.520825"
         style="fill:none;stroke:#ffffff;stroke-width:0.05527534;stroke-linecap:butt;stroke-linejoin:miter;stroke-miterlimit:4;stroke-dasharray:none;stroke-opacity:1" />
      <path
         inkscape:connector-curvature="0"
         id="path4547"
         d="M 76.228006,91.709812 8.381281,130.64136 92.669976,107.96279"
         style="fill:none;stroke:#ffffff;stroke-width:0.05527534;stroke-linecap:butt;stroke-linejoin:miter;stroke-miterlimit:4;stroke-dasharray:none;stroke-opacity:1" />
      <path
         inkscape:connector-curvature="0"
         id="path4549"
         d="M 98.906576,130.83034 8.381281,130.64136 92.858956,153.50892"
         style="fill:none;stroke:#ffffff;stroke-width:0.05527534;stroke-linecap:butt;stroke-linejoin:miter;stroke-miterlimit:4;stroke-dasharray:none;stroke-opacity:1" />
      <path
         inkscape:connector-curvature="0"
         id="path4551"
         d="M 76.416996,169.95088 8.381281,130.64136 31.43783,170.13987"
         style="fill:none;stroke:#ffffff;stroke-width:0.05527534;stroke-linecap:butt;stroke-linejoin:miter;stroke-miterlimit:4;stroke-dasharray:none;stroke-opacity:1" />
      <path
         inkscape:connector-curvature="0"
         id="path4553"
         d="m 8.381281,130.64136 6.425597,22.67857"
         style="fill:none;stroke:#ffffff;stroke-width:0.05527534;stroke-linecap:butt;stroke-linejoin:miter;stroke-miterlimit:4;stroke-dasharray:none;stroke-opacity:1" />
      <path
         inkscape:connector-curvature="0"
         id="path4555"
         d="m 92.669976,107.96279 6.2366,22.86755 -22.678568,-39.120527"
         style="fill:none;stroke:#ffffff;stroke-width:0.05527534;stroke-linecap:butt;stroke-linejoin:miter;stroke-miterlimit:4;stroke-dasharray:none;stroke-opacity:1" />
      <path
         inkscape:connector-curvature="0"
         id="path4557"
         d="M 31.24884,91.520823 98.906576,130.83034 14.617889,108.15178"
         style="fill:none;stroke:#ffffff;stroke-width:0.05527534;stroke-linecap:butt;stroke-linejoin:miter;stroke-miterlimit:4;stroke-dasharray:none;stroke-opacity:1" />
      <path
         inkscape:connector-curvature="0"
         id="path4559"
         d="M 14.806878,153.31993 98.906576,130.83034 31.43783,170.13987"
         style="fill:none;stroke:#ffffff;stroke-width:0.05527534;stroke-linecap:butt;stroke-linejoin:miter;stroke-miterlimit:4;stroke-dasharray:none;stroke-opacity:1" />
      <path
         inkscape:connector-curvature="0"
         id="path4561"
         d="m 76.416996,169.95088 22.48958,-39.12054 -6.04762,22.67858"
         style="fill:none;stroke:#ffffff;stroke-width:0.05527534;stroke-linecap:butt;stroke-linejoin:miter;stroke-miterlimit:4;stroke-dasharray:none;stroke-opacity:1" />
      <path
         inkscape:connector-curvature="0"
         id="path4563"
         d="M 76.228006,91.709812 31.24884,91.520823"
         style="fill:none;stroke:#ffffff;stroke-width:0.05527534;stroke-linecap:butt;stroke-linejoin:miter;stroke-miterlimit:4;stroke-dasharray:none;stroke-opacity:1" />
      <path
         inkscape:connector-curvature="0"
         id="path4565"
         d="M 14.617889,108.15178 76.228006,91.709812 14.806878,153.31993"
         style="fill:none;stroke:#ffffff;stroke-width:0.05527534;stroke-linecap:butt;stroke-linejoin:miter;stroke-miterlimit:4;stroke-dasharray:none;stroke-opacity:1" />
      <path
         inkscape:connector-curvature="0"
         id="path4567"
         d="m 31.43783,170.13987 44.790176,-78.430058 0.18899,78.241068"
         style="fill:none;stroke:#ffffff;stroke-width:0.05527534;stroke-linecap:butt;stroke-linejoin:miter;stroke-miterlimit:4;stroke-dasharray:none;stroke-opacity:1" />
      <path
         inkscape:connector-curvature="0"
         id="path4569"
         d="M 92.858956,153.50892 76.228006,91.709812 92.669976,107.96279"
         style="fill:none;stroke:#ffffff;stroke-width:0.05527534;stroke-linecap:butt;stroke-linejoin:miter;stroke-miterlimit:4;stroke-dasharray:none;stroke-opacity:1" />
      <path
         inkscape:connector-curvature="0"
         id="path4571"
         d="M 92.669976,107.96279 31.24884,91.520823 92.858956,153.50892"
         style="fill:none;stroke:#ffffff;stroke-width:0.05527534;stroke-linecap:butt;stroke-linejoin:miter;stroke-miterlimit:4;stroke-dasharray:none;stroke-opacity:1" />
      <path
         inkscape:connector-curvature="0"
         id="path4573"
         d="M 31.24884,91.520823 76.416996,169.95088"
         style="fill:none;stroke:#ffffff;stroke-width:0.05527534;stroke-linecap:butt;stroke-linejoin:miter;stroke-miterlimit:4;stroke-dasharray:none;stroke-opacity:1" />
      <path
         inkscape:connector-curvature="0"
         id="path4575"
         d="M 31.43783,170.13987 31.24884,91.520823 14.806878,153.31993"
         style="fill:none;stroke:#ffffff;stroke-width:0.05527534;stroke-linecap:butt;stroke-linejoin:miter;stroke-miterlimit:4;stroke-dasharray:none;stroke-opacity:1" />
      <path
         inkscape:connector-curvature="0"
         id="path4577"
         d="M 31.24884,91.520823 14.617889,108.15178 92.669976,107.96279"
         style="fill:none;stroke:#ffffff;stroke-width:0.05527534;stroke-linecap:butt;stroke-linejoin:miter;stroke-miterlimit:4;stroke-dasharray:none;stroke-opacity:1" />
      <path
         inkscape:connector-curvature="0"
         id="path4579"
         d="m 14.617889,108.15178 78.241067,45.35714"
         style="fill:none;stroke:#ffffff;stroke-width:0.05527534;stroke-linecap:butt;stroke-linejoin:miter;stroke-miterlimit:4;stroke-dasharray:none;stroke-opacity:1" />
      <path
         inkscape:connector-curvature="0"
         id="path4581"
         d="M 76.416996,169.95088 14.617889,108.15178 31.43783,170.13987"
         style="fill:none;stroke:#ffffff;stroke-width:0.05527534;stroke-linecap:butt;stroke-linejoin:miter;stroke-miterlimit:4;stroke-dasharray:none;stroke-opacity:1" />
      <path
         inkscape:connector-curvature="0"
         id="path4583"
         d="m 14.617889,108.15178 0.188989,45.16815"
         style="fill:none;stroke:#ffffff;stroke-width:0.05527534;stroke-linecap:butt;stroke-linejoin:miter;stroke-miterlimit:4;stroke-dasharray:none;stroke-opacity:1" />
      <path
         inkscape:connector-curvature="0"
         id="path4585"
         d="M 92.669976,107.96279 14.806878,153.31993"
         style="fill:none;stroke:#ffffff;stroke-width:0.05527534;stroke-linecap:butt;stroke-linejoin:miter;stroke-miterlimit:4;stroke-dasharray:none;stroke-opacity:1" />
      <path
         inkscape:connector-curvature="0"
         id="path4587"
         d="M 92.669976,107.96279 31.43783,170.13987"
         style="fill:none;stroke:#ffffff;stroke-width:0.05527534;stroke-linecap:butt;stroke-linejoin:miter;stroke-miterlimit:4;stroke-dasharray:none;stroke-opacity:1" />
      <path
         inkscape:connector-curvature="0"
         id="path4589"
         d="m 92.669976,107.96279 -16.25298,61.98809"
         style="fill:none;stroke:#ffffff;stroke-width:0.05527534;stroke-linecap:butt;stroke-linejoin:miter;stroke-miterlimit:4;stroke-dasharray:none;stroke-opacity:1" />
      <path
         inkscape:connector-curvature="0"
         id="path4591"
         d="m 92.669976,107.96279 0.18898,45.54613"
         style="fill:none;stroke:#ffffff;stroke-width:0.05527534;stroke-linecap:butt;stroke-linejoin:miter;stroke-miterlimit:4;stroke-dasharray:none;stroke-opacity:1" />
      <path
         inkscape:connector-curvature="0"
         id="path4776"
         d="m 14.806878,153.31993 78.052076,0.18899"
         style="fill:none;stroke:#ffffff;stroke-width:0.05527534;stroke-linecap:butt;stroke-linejoin:miter;stroke-miterlimit:4;stroke-dasharray:none;stroke-opacity:1" />
      <path
         inkscape:connector-curvature="0"
         id="path4778"
         d="m 31.437828,170.13987 44.979166,-0.18899"
         style="fill:none;stroke:#ffffff;stroke-width:0.05527534;stroke-linecap:butt;stroke-linejoin:miter;stroke-miterlimit:4;stroke-dasharray:none;stroke-opacity:1" />
      <path
         inkscape:connector-curvature="0"
         id="path4780"
         d="m 76.416994,169.95088 16.44196,-16.44196"
         style="fill:none;stroke:#ffffff;stroke-width:0.05527534;stroke-linecap:butt;stroke-linejoin:miter;stroke-miterlimit:4;stroke-dasharray:none;stroke-opacity:1" />
      <path
         inkscape:connector-curvature="0"
         id="path4782"
         d="M 31.437828,170.13987 14.806878,153.31993"
         style="fill:none;stroke:#ffffff;stroke-width:0.05527534;stroke-linecap:butt;stroke-linejoin:miter;stroke-miterlimit:4;stroke-dasharray:none;stroke-opacity:1" />
    </g>
    <text
       xml:space="preserve"
       style="font-style:normal;font-variant:normal;font-weight:normal;font-stretch:normal;font-size:10.83189869px;line-height:1.25;font-family:'Typographer Uncialgotisch';-inkscape-font-specification:'Typographer Uncialgotisch';letter-spacing:0px;word-spacing:0px;fill:#ffffff;fill-opacity:1;stroke:none;stroke-width:0.27079746"
       x="85.07177"
       y="69.392853"
       id="text61"><tspan
         sodipodi:role="line"
         id="tspan59"
         x="85.07177"
         y="69.392853"
         style="font-style:normal;font-variant:normal;font-weight:normal;font-stretch:normal;font-size:10.83184719px;font-family:Megadeth;-inkscape-font-specification:'Megadeth, Normal';font-variant-ligatures:normal;font-variant-caps:normal;font-variant-numeric:normal;font-feature-settings:normal;text-align:start;writing-mode:lr-tb;text-anchor:start;fill:#ffffff;stroke-width:0.27079746"><tspan
           style="font-size:11.28888889px;stroke-width:0.27079746"
           id="tspan124">M</tspan><tspan
           style="font-size:9.87777778px;stroke-width:0.27079746"
           id="tspan122">agu</tspan><tspan
           style="font-size:11.28888889px;stroke-width:0.27079746"
           id="tspan126">S</tspan></tspan></text>
    <g
       transform="matrix(0.12439837,0,0,0.12439837,33.095946,-48.186796)"
       id="g656-0_1_-6-4"
       style="fill:#ffffff">
      <path
         d="m 379.623,1857.944 -0.912,8.363 -0.828,-8.363 v -34.359 h 18.071 v 23.126 l -4.311,2.176 4.311,2.231 v 6.81 l -0.916,8.379 -0.828,-8.363 v -5.747 l -6.4,-3.375 6.4,-3.183 v -20.31 h -14.59 v 32.615 z m 10.889,-28.917 v 14.312 l -7.186,3.635 v -17.946 h 7.186 z m -6.356,37.283 -0.828,-8.329 v -7.07 l 7.186,3.673 v 3.358 l -0.916,8.371 -0.828,-8.363 v -2.303 l -3.701,-1.921 v 4.224 z m 4.615,-35.539 h -3.701 v 13.337 l 3.701,-1.869 z"
         inkscape:connector-curvature="0"
         id="path658-4_1_-1-0"
         style="fill:#ffffff" />
      <path
         d="m 418.645,1857.944 -0.915,8.363 -0.828,-8.363 v -5.398 h -10.889 v -7.231 h 10.889 v -3.657 h -10.889 v -12.673 h 7.186 v 5.442 h 3.703 v -9.102 h -14.591 v 32.618 l -0.912,8.363 -0.828,-8.363 v -34.359 h 18.071 v 12.584 h -7.186 v -5.442 h -3.701 v 9.185 h 10.887 v 7.145 h -10.887 v 3.745 h 10.887 v 7.142 h 0.003 z"
         inkscape:connector-curvature="0"
         id="path660-80_1_-5-6"
         style="fill:#ffffff" />
      <path
         d="m 441.202,1857.936 -0.914,8.371 -0.828,-8.357 v -11.189 l -6.378,-3.35 6.378,-3.192 v -14.893 h -14.59 v 32.618 l -0.914,8.363 -0.825,-8.363 v -34.359 h 18.071 v 17.706 l -4.296,2.17 4.296,2.223 z m -5.442,-28.909 v 8.867 l -7.186,3.635 v -12.501 h 7.186 z m 0,20.053 v 3.421 h -7.186 v -7.056 z m -1.744,-18.309 h -3.698 v 7.926 l 3.698,-1.874 z m 0,19.378 -3.698,-1.871 v 2.483 h 3.698 z"
         inkscape:connector-curvature="0"
         id="path662-4_1_-9-2"
         style="fill:#ffffff" />
      <path
         d="m 463.893,1857.944 -0.916,8.363 -0.828,-8.363 v -5.398 h -10.887 v -7.231 h 10.887 v -3.657 h -10.887 v -12.673 h 7.186 v 5.442 h 3.701 v -9.102 h -14.591 v 32.618 l -0.911,8.363 -0.828,-8.363 v -34.359 h 18.071 v 12.584 h -7.186 v -5.442 H 453 v 9.185 h 10.89 v 7.145 H 453 v 3.745 h 10.89 v 7.142 h 0.003 z"
         inkscape:connector-curvature="0"
         id="path664-2_1_-4-9"
         style="fill:#ffffff" />
      <path
         d="m 481.009,1857.944 -0.916,8.363 -0.828,-8.363 v -5.398 h -5.442 v -27.22 h -3.704 v 32.618 l -0.911,8.363 -0.828,-8.363 v -34.359 h 7.186 v 27.22 h 5.442 v 7.139 z"
         inkscape:connector-curvature="0"
         id="path666-9_1_-9-9"
         style="fill:#ffffff" />
      <path
         d="m 519.158,1857.944 -0.916,8.363 -0.828,-8.363 v -28.958 h 5.442 v -3.66 h -14.591 v 3.66 h 5.442 v 28.958 l -0.911,8.363 -0.828,-8.363 v -27.217 h -5.442 v -7.145 h 18.071 v 7.145 h -5.442 v 27.217 z"
         inkscape:connector-curvature="0"
         id="path668-6_1_-0-0"
         style="fill:#ffffff" />
      <path
         d="m 546.721,1857.944 -0.916,8.363 -0.828,-8.363 v -5.398 H 534.09 v -7.231 h 10.887 v -3.657 H 534.09 v -12.673 h 7.186 v 5.442 h 3.701 v -9.102 h -14.589 v 32.618 l -0.914,8.363 -0.828,-8.363 v -34.359 h 18.071 v 12.584 h -7.186 v -5.442 h -3.701 v 9.185 h 10.887 v 7.145 H 535.83 v 3.745 h 10.887 v 7.142 h 0.004 z"
         inkscape:connector-curvature="0"
         id="path670-1_1_-9-8"
         style="fill:#ffffff" />
      <path
         d="m 569.282,1857.944 -0.916,8.363 -0.825,-8.363 v -10.843 h -3.704 v 5.445 h -7.184 v -23.56 h 7.184 v 5.442 h 3.704 v -9.102 h -14.589 v 32.618 l -0.914,8.363 -0.828,-8.363 v -34.359 h 18.074 v 12.584 h -7.186 v -5.442 h -3.701 v 20.075 h 3.701 v -5.442 h 7.186 v 12.584 z"
         inkscape:connector-curvature="0"
         id="path672-0_1_-1-1"
         style="fill:#ffffff" />
      <path
         d="m 591.749,1857.944 -0.914,8.363 -0.828,-8.363 v -32.618 h -3.701 v 21.775 h -7.186 v -21.775 h -3.701 v 32.618 l -0.914,8.363 -0.828,-8.363 v -34.359 h 7.184 v 21.778 h 3.704 v -21.778 h 7.184 z m -5.44,0 -0.916,8.363 -0.825,-8.363 v -5.442 h -3.704 v 5.442 l -0.914,8.363 -0.828,-8.363 v -7.184 h 7.186 v 7.184 z"
         inkscape:connector-curvature="0"
         id="path674-4_1_-7-3"
         style="fill:#ffffff" />
      <path
         d="m 614.44,1857.944 -0.914,8.363 -0.825,-8.363 v -32.618 h -3.745 v 20.047 l -6.909,-20.047 h -3.939 v 32.618 l -0.914,8.363 -0.828,-8.363 v -34.359 h 6.923 l 3.92,11.452 v -11.452 h 7.231 z m -5.182,-0.017 -0.919,8.382 -0.833,-8.363 -3.953,-11.455 v 11.455 l -0.914,8.363 -0.828,-8.363 v -21.681 z"
         inkscape:connector-curvature="0"
         id="path676-2_1_-7-1"
         style="fill:#ffffff" />
      <path
         d="m 637.128,1857.944 -0.914,8.363 -0.825,-8.363 v -32.618 h -14.591 v 32.618 l -0.914,8.363 -0.828,-8.363 v -34.359 h 18.074 v 34.359 z m -5.445,-28.917 v 23.474 h -7.181 v -23.474 z m -1.738,1.744 h -3.704 v 19.989 h 3.704 z"
         inkscape:connector-curvature="0"
         id="path678-2_1_-1-1"
         style="fill:#ffffff" />
      <path
         d="m 654.374,1857.944 -0.914,8.363 -0.825,-8.363 v -5.398 h -5.445 v -27.22 h -3.704 v 32.618 l -0.911,8.363 -0.828,-8.363 v -34.359 h 7.181 v 27.22 h 5.445 v 7.139 z"
         inkscape:connector-curvature="0"
         id="path680-20_1_-1-0"
         style="fill:#ffffff" />
      <path
         d="m 676.19,1857.944 -0.914,8.363 -0.828,-8.363 v -32.618 h -14.586 v 32.618 l -0.914,8.363 -0.828,-8.363 v -34.359 h 18.071 v 34.359 z m -5.439,-28.917 v 23.474 h -7.186 v -23.474 z m -1.744,1.744 h -3.704 v 19.989 h 3.704 z"
         inkscape:connector-curvature="0"
         id="path682-5_1_-5-3"
         style="fill:#ffffff" />
      <path
         d="m 698.879,1857.944 -0.914,8.363 -0.825,-8.363 v -16.285 h -3.704 v 10.887 h -7.186 v -23.56 h 7.186 v 5.442 h 3.704 v -9.102 h -14.588 v 32.618 l -0.914,8.363 -0.828,-8.363 v -34.359 h 18.071 v 12.584 h -7.183 v -5.442 h -3.704 v 20.075 h 3.704 v -10.89 h 7.183 v 18.032 z"
         inkscape:connector-curvature="0"
         id="path684-5_1_-9-4"
         style="fill:#ffffff" />
      <path
         d="m 721.484,1857.944 -0.914,8.363 -0.828,-8.363 v -32.618 h -3.701 v 16.333 h -7.186 v -16.333 h -3.704 v 19.989 h 10.89 v 7.231 h -10.89 v 5.398 l -0.911,8.363 -0.828,-8.363 v -7.142 H 714.3 v -3.745 h -10.887 v -23.472 h 7.181 v 16.33 h 3.707 v -16.33 h 7.183 z"
         inkscape:connector-curvature="0"
         id="path686-2_1_-7-0"
         style="fill:#ffffff" />
    </g>
    <g
       transform="translate(49.903199,58.964945)"
       style="fill:none;stroke:#ffffff;stroke-width:0.05;stroke-opacity:1"
       id="g8443">
      <rect
         x="0"
         y="0"
         width="101.3"
         height="128.5"
         id="rect8445"
         style="fill:none;stroke:#ffffff;stroke-opacity:1" />
      <circle
         cx="7.5"
         cy="3"
         r="1.6"
         id="circle8447"
         style="fill:#ffffff;stroke:#ffffff;stroke-opacity:1" />
      <circle
         cx="7.5"
         cy="125.5"
         r="1.6"
         id="circle8449"
         style="fill:#ffffff;stroke:#ffffff;stroke-opacity:1" />
      <circle
         cx="93.860001"
         cy="3"
         r="1.6"
         id="circle8451"
         style="fill:#ffffff;stroke:#ffffff;stroke-opacity:1" />
      <circle
         cx="93.860001"
         cy="125.5"
         r="1.6"
         id="circle8453"
         style="fill:#ffffff;stroke:#ffffff;stroke-opacity:1" />
      <rect
         x="32.124001"
         y="30.362"
         width="37.051998"
         height="19.516001"
         style="fill:#ffffff;stroke:#ffffff;stroke-opacity:1"
         id="rect8455" />
      <circle
         cx="12.55"
         cy="40.119999"
         r="3.75"
         style="fill:#ffffff;stroke:#ffffff;stroke-opacity:1"
         id="circle8457" />
      <circle
         cx="88.75"
         cy="40.119999"
         r="3.75"
         style="fill:#ffffff;stroke:#ffffff;stroke-opacity:1"
         id="circle8459" />
      <circle
         cx="12.55"
         cy="65.519997"
         r="3.75"
         style="fill:#ffffff;stroke:#ffffff;stroke-opacity:1"
         id="circle8461" />
      <circle
         cx="37.950001"
         cy="65.519997"
         r="3.75"
         style="fill:#ffffff;stroke:#ffffff;stroke-opacity:1"
         id="circle8463" />
      <circle
         cx="63.349998"
         cy="65.519997"
         r="3.75"
         style="fill:#ffffff;stroke:#ffffff;stroke-opacity:1"
         id="circle8465" />
      <circle
         cx="88.75"
         cy="65.519997"
         r="3.75"
         style="fill:#ffffff;stroke:#ffffff;stroke-opacity:1"
         id="circle8467" />
      <rect
         x="4.6999998"
         y="83.07"
         width="3"
         height="3"
         style="fill:#ffffff;stroke:#ffffff;stroke-opacity:1"
         id="rect8469" />
      <rect
         x="17.4"
         y="83.07"
         width="3"
         height="3"
         style="fill:#ffffff;stroke:#ffffff;stroke-opacity:1"
         id="rect8471" />
      <rect
         x="30.1"
         y="83.07"
         width="3"
         height="3"
         style="fill:#ffffff;stroke:#ffffff;stroke-opacity:1"
         id="rect8473" />
      <rect
         x="42.799999"
         y="83.07"
         width="3"
         height="3"
         style="fill:#ffffff;stroke:#ffffff;stroke-opacity:1"
         id="rect8475" />
      <rect
         x="55.5"
         y="83.07"
         width="3"
         height="3"
         style="fill:#ffffff;stroke:#ffffff;stroke-opacity:1"
         id="rect8477" />
      <rect
         x="68.199997"
         y="83.07"
         width="3"
         height="3"
         style="fill:#ffffff;stroke:#ffffff;stroke-opacity:1"
         id="rect8479" />
      <rect
         x="80.900002"
         y="83.07"
         width="3"
         height="3"
         style="fill:#ffffff;stroke:#ffffff;stroke-opacity:1"
         id="rect8481" />
      <rect
         x="93.599998"
         y="83.07"
         width="3"
         height="3"
         style="fill:#ffffff;stroke:#ffffff;stroke-opacity:1"
         id="rect8483" />
      <rect
         x="4.6999998"
         y="111.01"
         width="3"
         height="3"
         style="fill:#ffffff;stroke:#ffffff;stroke-opacity:1"
         id="rect8485" />
      <rect
         x="17.4"
         y="111.01"
         width="3"
         height="3"
         style="fill:#ffffff;stroke:#ffffff;stroke-opacity:1"
         id="rect8487" />
      <rect
         x="30.1"
         y="111.01"
         width="3"
         height="3"
         style="fill:#ffffff;stroke:#ffffff;stroke-opacity:1"
         id="rect8489" />
      <rect
         x="42.799999"
         y="111.01"
         width="3"
         height="3"
         style="fill:#ffffff;stroke:#ffffff;stroke-opacity:1"
         id="rect8491" />
      <rect
         x="55.5"
         y="111.01"
         width="3"
         height="3"
         style="fill:#ffffff;stroke:#ffffff;stroke-opacity:1"
         id="rect8493" />
      <rect
         x="68.199997"
         y="111.01"
         width="3"
         height="3"
         style="fill:#ffffff;stroke:#ffffff;stroke-opacity:1"
         id="rect8495" />
      <rect
         x="80.900002"
         y="111.01"
         width="3"
         height="3"
         style="fill:#ffffff;stroke:#ffffff;stroke-opacity:1"
         id="rect8497" />
      <rect
         x="93.599998"
         y="111.01"
         width="3"
         height="3"
         style="fill:#ffffff;stroke:#ffffff;stroke-opacity:1"
         id="rect8499" />
      <circle
         cx="6.1999998"
         cy="19.799999"
         r="3.25"
         style="fill:#ffffff;stroke:#ffffff;stroke-opacity:1"
         id="circle8501" />
      <circle
         cx="18.9"
         cy="19.799999"
         r="3.25"
         style="fill:#ffffff;stroke:#ffffff;stroke-opacity:1"
         id="circle8503" />
      <circle
         cx="31.6"
         cy="19.799999"
         r="3.25"
         style="fill:#ffffff;stroke:#ffffff;stroke-opacity:1"
         id="circle8505" />
      <circle
         cx="44.299999"
         cy="19.799999"
         r="3.25"
         style="fill:#ffffff;stroke:#ffffff;stroke-opacity:1"
         id="circle8507" />
      <circle
         cx="57"
         cy="19.799999"
         r="3.25"
         style="fill:#ffffff;stroke:#ffffff;stroke-opacity:1"
         id="circle8509" />
      <circle
         cx="69.699997"
         cy="19.799999"
         r="3.25"
         style="fill:#ffffff;stroke:#ffffff;stroke-opacity:1"
         id="circle8511" />
      <circle
         cx="82.400002"
         cy="19.799999"
         r="3.25"
         style="fill:#ffffff;stroke:#ffffff;stroke-opacity:1"
         id="circle8513" />
      <circle
         cx="95.099998"
         cy="19.799999"
         r="3.25"
         style="fill:#ffffff;stroke:#ffffff;stroke-opacity:1"
         id="circle8515" />
      <circle
         cx="6.1999998"
         cy="92.190002"
         r="3.25"
         style="fill:#ffffff;stroke:#ffffff;stroke-opacity:1"
         id="circle8517" />
      <circle
         cx="18.9"
         cy="92.190002"
         r="3.25"
         style="fill:#ffffff;stroke:#ffffff;stroke-opacity:1"
         id="circle8519" />
      <circle
         cx="31.6"
         cy="92.190002"
         r="3.25"
         style="fill:#ffffff;stroke:#ffffff;stroke-opacity:1"
         id="circle8521" />
      <circle
         cx="44.299999"
         cy="92.190002"
         r="3.25"
         style="fill:#ffffff;stroke:#ffffff;stroke-opacity:1"
         id="circle8523" />
      <circle
         cx="57"
         cy="92.190002"
         r="3.25"
         style="fill:#ffffff;stroke:#ffffff;stroke-opacity:1"
         id="circle8525" />
      <circle
         cx="69.699997"
         cy="92.190002"
         r="3.25"
         style="fill:#ffffff;stroke:#ffffff;stroke-opacity:1"
         id="circle8527" />
      <circle
         cx="82.400002"
         cy="92.190002"
         r="3.25"
         style="fill:#ffffff;stroke:#ffffff;stroke-opacity:1"
         id="circle8529" />
      <circle
         cx="95.099998"
         cy="92.190002"
         r="3.25"
         style="fill:#ffffff;stroke:#ffffff;stroke-opacity:1"
         id="circle8531" />
      <circle
         cx="6.1999998"
         cy="104.89"
         r="3.25"
         style="fill:#ffffff;stroke:#ffffff;stroke-opacity:1"
         id="circle8533" />
      <circle
         cx="18.9"
         cy="104.89"
         r="3.25"
         style="fill:#ffffff;stroke:#ffffff;stroke-opacity:1"
         id="circle8535" />
      <circle
         cx="31.6"
         cy="104.89"
         r="3.25"
         style="fill:#ffffff;stroke:#ffffff;stroke-opacity:1"
         id="circle8537" />
      <circle
         cx="44.299999"
         cy="104.89"
         r="3.25"
         style="fill:#ffffff;stroke:#ffffff;stroke-opacity:1"
         id="circle8539" />
      <circle
         cx="57"
         cy="104.89"
         r="3.25"
         style="fill:#ffffff;stroke:#ffffff;stroke-opacity:1"
         id="circle8541" />
      <circle
         cx="69.699997"
         cy="104.89"
         r="3.25"
         style="fill:#ffffff;stroke:#ffffff;stroke-opacity:1"
         id="circle8543" />
      <circle
         cx="82.400002"
         cy="104.89"
         r="3.25"
         style="fill:#ffffff;stroke:#ffffff;stroke-opacity:1"
         id="circle8545" />
      <circle
         cx="95.099998"
         cy="104.89"
         r="3.25"
         style="fill:#ffffff;stroke:#ffffff;stroke-opacity:1"
         id="circle8547" />
    </g>
    <path
       style="fill:none;fill-rule:evenodd;stroke:#ffffff;stroke-width:1.00000001;stroke-linecap:butt;stroke-linejoin:miter;stroke-opacity:1;stroke-miterlimit:4;stroke-dasharray:none"
       d="m 56.266173,151.19722 12.427486,12.8189"
       id="path4251"
       inkscape:connector-curvature="0" />
    <path
       inkscape:connector-curvature="0"
       id="path4253"
       d="m 68.693659,151.19722 -12.427486,12.8189"
       style="fill:none;fill-rule:evenodd;stroke:#ffffff;stroke-width:1;stroke-linecap:butt;stroke-linejoin:miter;stroke-miterlimit:4;stroke-dasharray:none;stroke-opacity:1" />
    <path
       style="fill:none;fill-rule:evenodd;stroke:#ffffff;stroke-width:1.00000001;stroke-linecap:butt;stroke-linejoin:miter;stroke-opacity:1;stroke-miterlimit:4;stroke-dasharray:none"
       d="m 81.610414,78.687246 12.721048,0"
       id="path4259"
       inkscape:connector-curvature="0" />
    <path
       inkscape:connector-curvature="0"
       id="path4263"
       d="m 94.02819,78.687246 12.72104,0"
       style="fill:none;fill-rule:evenodd;stroke:#ffffff;stroke-width:1;stroke-linecap:butt;stroke-linejoin:miter;stroke-miterlimit:4;stroke-dasharray:none;stroke-opacity:1" />
    <path
       style="fill:none;fill-rule:evenodd;stroke:#ffffff;stroke-width:1;stroke-linecap:butt;stroke-linejoin:miter;stroke-miterlimit:4;stroke-dasharray:none;stroke-opacity:1"
       d="m 107.57484,78.687246 12.72103,0"
       id="path4265"
       inkscape:connector-curvature="0" />
    <path
       inkscape:connector-curvature="0"
       id="path4273"
       d="m 81.666165,151.19722 12.427486,12.8189"
       style="fill:none;fill-rule:evenodd;stroke:#ffffff;stroke-width:1;stroke-linecap:butt;stroke-linejoin:miter;stroke-miterlimit:4;stroke-dasharray:none;stroke-opacity:1" />
    <path
       style="fill:none;fill-rule:evenodd;stroke:#ffffff;stroke-width:1;stroke-linecap:butt;stroke-linejoin:miter;stroke-miterlimit:4;stroke-dasharray:none;stroke-opacity:1"
       d="m 94.093651,151.19722 -12.427486,12.8189"
       id="path4275"
       inkscape:connector-curvature="0" />
    <path
       style="fill:none;fill-rule:evenodd;stroke:#ffffff;stroke-width:1;stroke-linecap:butt;stroke-linejoin:miter;stroke-miterlimit:4;stroke-dasharray:none;stroke-opacity:1"
       d="m 107.06611,151.19722 12.42747,12.8189"
       id="path4277"
       inkscape:connector-curvature="0" />
    <path
       inkscape:connector-curvature="0"
       id="path4279"
       d="m 119.49358,151.19722 -12.42747,12.8189"
       style="fill:none;fill-rule:evenodd;stroke:#ffffff;stroke-width:1;stroke-linecap:butt;stroke-linejoin:miter;stroke-miterlimit:4;stroke-dasharray:none;stroke-opacity:1" />
    <path
       inkscape:connector-curvature="0"
       id="path4281"
       d="m 132.46607,151.19722 12.42747,12.8189"
       style="fill:none;fill-rule:evenodd;stroke:#ffffff;stroke-width:1;stroke-linecap:butt;stroke-linejoin:miter;stroke-miterlimit:4;stroke-dasharray:none;stroke-opacity:1" />
    <path
       style="fill:none;fill-rule:evenodd;stroke:#ffffff;stroke-width:1;stroke-linecap:butt;stroke-linejoin:miter;stroke-miterlimit:4;stroke-dasharray:none;stroke-opacity:1"
       d="m 144.89354,151.19722 -12.42747,12.8189"
       id="path4283"
       inkscape:connector-curvature="0" />
  </g>
</svg>
