<?xml version="1.0" encoding="UTF-8" standalone="no"?>
<!-- Generator: Adobe Illustrator 13.0.0, SVG Export Plug-In . SVG Version: 6.00 Build 14948)  -->

<svg
   xmlns:dc="http://purl.org/dc/elements/1.1/"
   xmlns:cc="http://creativecommons.org/ns#"
   xmlns:rdf="http://www.w3.org/1999/02/22-rdf-syntax-ns#"
   xmlns:svg="http://www.w3.org/2000/svg"
   xmlns="http://www.w3.org/2000/svg"
   xmlns:sodipodi="http://sodipodi.sourceforge.net/DTD/sodipodi-0.dtd"
   xmlns:inkscape="http://www.inkscape.org/namespaces/inkscape"
   version="1.1"
   id="Layer_1"
   x="0px"
   y="0px"
   width="2027.125px"
   height="1244.648px"
   viewBox="0 0 2027.125 1244.648"
   enable-background="new 0 0 2027.125 1244.648"
   xml:space="preserve"
   inkscape:version="0.48.2 r9819"
   sodipodi:docname="ClockDelay.svg"><metadata
   id="metadata1346"><rdf:RDF><cc:Work
       rdf:about=""><dc:format>image/svg+xml</dc:format><dc:type
         rdf:resource="http://purl.org/dc/dcmitype/StillImage" /><dc:title></dc:title></cc:Work></rdf:RDF></metadata><defs
   id="defs1344">
	
	
	

		
		
		
		
		
	
	
	
	
	
	
	
	
	
	
	
	
	
	
	
	
	
	
	
	
	
	
	
	
	
	
	
	
	
	
	

		
	
			
			
		
		
	
			
			
		
		
	
	
	
	
	
	
	
	
	
	
	
	
	
	
	
	
	
	
	
	
	
	
	
	
	
	
	
	
	

			
			
		
		
		
		
		
		
	<clipPath
   clipPathUnits="userSpaceOnUse"
   id="clipPath12741"><g
     transform="matrix(3.5433072,0,0,3.5433072,874.65065,451.94963)"
     style="fill:none;stroke:#000000;stroke-width:0.1"
     id="g12743"><g
       inkscape:label="#g5762"
       id="g12745"><rect
         id="rect12747"
         height="128.5"
         width="50.5"
         y="0"
         x="0"
         style="stroke-width:0.1" /><circle
         id="circle12749"
         r="1.6"
         cy="3"
         cx="7.5"
         sodipodi:cx="7.5"
         sodipodi:cy="3"
         sodipodi:rx="1.6"
         sodipodi:ry="1.6"
         d="M 9.1,3 C 9.1,3.8836556 8.3836556,4.6 7.5,4.6 6.6163444,4.6 5.9,3.8836556 5.9,3 5.9,2.1163444 6.6163444,1.4 7.5,1.4 8.3836556,1.4 9.1,2.1163444 9.1,3 z"
         style="stroke-width:0.1" /><circle
         id="circle12751"
         r="1.6"
         cy="125.5"
         cx="7.5"
         sodipodi:cx="7.5"
         sodipodi:cy="125.5"
         sodipodi:rx="1.6"
         sodipodi:ry="1.6"
         d="m 9.1,125.5 c 0,0.88366 -0.7163444,1.6 -1.6,1.6 -0.8836556,0 -1.6,-0.71634 -1.6,-1.6 0,-0.88366 0.7163444,-1.6 1.6,-1.6 0.8836556,0 1.6,0.71634 1.6,1.6 z"
         style="stroke-width:0.1" /><circle
         id="circle12753"
         r="1.6"
         cy="3"
         cx="43.060001"
         sodipodi:cx="43.060001"
         sodipodi:cy="3"
         sodipodi:rx="1.6"
         sodipodi:ry="1.6"
         d="m 44.660001,3 c 0,0.8836556 -0.716344,1.6 -1.6,1.6 -0.883655,0 -1.6,-0.7163444 -1.6,-1.6 0,-0.8836556 0.716345,-1.6 1.6,-1.6 0.883656,0 1.6,0.7163444 1.6,1.6 z"
         style="stroke-width:0.1" /><circle
         id="circle12755"
         r="1.6"
         cy="125.5"
         cx="43.060001"
         sodipodi:cx="43.060001"
         sodipodi:cy="125.5"
         sodipodi:rx="1.6"
         sodipodi:ry="1.6"
         d="m 44.660001,125.5 c 0,0.88366 -0.716344,1.6 -1.6,1.6 -0.883655,0 -1.6,-0.71634 -1.6,-1.6 0,-0.88366 0.716345,-1.6 1.6,-1.6 0.883656,0 1.6,0.71634 1.6,1.6 z"
         style="stroke-width:0.1" /><circle
         id="circle12757"
         r="4.5"
         cy="45.200001"
         cx="12.55"
         sodipodi:cx="12.55"
         sodipodi:cy="45.200001"
         sodipodi:rx="4.5"
         sodipodi:ry="4.5"
         d="m 17.05,45.200001 c 0,2.485281 -2.014718,4.5 -4.5,4.5 -2.485281,0 -4.4999998,-2.014719 -4.4999998,-4.5 0,-2.485282 2.0147188,-4.5 4.4999998,-4.5 2.485282,0 4.5,2.014718 4.5,4.5 z"
         style="stroke-width:0.1" /><circle
         id="circle12759"
         r="4.5"
         cy="45.200001"
         cx="37.950001"
         sodipodi:cx="37.950001"
         sodipodi:cy="45.200001"
         sodipodi:rx="4.5"
         sodipodi:ry="4.5"
         d="m 42.450001,45.200001 c 0,2.485281 -2.014719,4.5 -4.5,4.5 -2.485282,0 -4.5,-2.014719 -4.5,-4.5 0,-2.485282 2.014718,-4.5 4.5,-4.5 2.485281,0 4.5,2.014718 4.5,4.5 z"
         style="stroke-width:0.1" /><circle
         id="circle12761"
         r="4.5"
         cy="26.15"
         cx="12.55"
         sodipodi:cx="12.55"
         sodipodi:cy="26.15"
         sodipodi:rx="4.5"
         sodipodi:ry="4.5"
         d="m 17.05,26.15 c 0,2.485281 -2.014718,4.5 -4.5,4.5 -2.485281,0 -4.4999998,-2.014719 -4.4999998,-4.5 0,-2.485282 2.0147188,-4.5 4.4999998,-4.5 2.485282,0 4.5,2.014718 4.5,4.5 z"
         style="stroke-width:0.1" /><circle
         id="circle12763"
         r="4.5"
         cy="26.15"
         cx="37.950001"
         sodipodi:cx="37.950001"
         sodipodi:cy="26.15"
         sodipodi:rx="4.5"
         sodipodi:ry="4.5"
         d="m 42.450001,26.15 c 0,2.485281 -2.014719,4.5 -4.5,4.5 -2.485282,0 -4.5,-2.014719 -4.5,-4.5 0,-2.485282 2.014718,-4.5 4.5,-4.5 2.485281,0 4.5,2.014718 4.5,4.5 z"
         style="stroke-width:0.1" /><circle
         id="circle12765"
         r="1.5"
         cy="57.900002"
         cx="25.25"
         sodipodi:cx="25.25"
         sodipodi:cy="57.900002"
         sodipodi:rx="1.5"
         sodipodi:ry="1.5"
         d="m 26.75,57.900002 c 0,0.828427 -0.671573,1.5 -1.5,1.5 -0.828427,0 -1.5,-0.671573 -1.5,-1.5 0,-0.828428 0.671573,-1.5 1.5,-1.5 0.828427,0 1.5,0.671572 1.5,1.5 z"
         style="stroke-width:0.1" /><circle
         id="circle12767"
         r="1.5"
         cy="70.599998"
         cx="12.55"
         sodipodi:cx="12.55"
         sodipodi:cy="70.599998"
         sodipodi:rx="1.5"
         sodipodi:ry="1.5"
         d="m 14.05,70.599998 c 0,0.828428 -0.671573,1.5 -1.5,1.5 -0.828427,0 -1.5,-0.671572 -1.5,-1.5 0,-0.828427 0.671573,-1.5 1.5,-1.5 0.828427,0 1.5,0.671573 1.5,1.5 z"
         style="stroke-width:0.1" /><circle
         id="circle12769"
         r="1.5"
         cy="70.599998"
         cx="37.950001"
         sodipodi:cx="37.950001"
         sodipodi:cy="70.599998"
         sodipodi:rx="1.5"
         sodipodi:ry="1.5"
         d="m 39.450001,70.599998 c 0,0.828428 -0.671573,1.5 -1.5,1.5 -0.828427,0 -1.5,-0.671572 -1.5,-1.5 0,-0.828427 0.671573,-1.5 1.5,-1.5 0.828427,0 1.5,0.671573 1.5,1.5 z"
         style="stroke-width:0.1" /><circle
         id="circle12771"
         r="3"
         cy="70.599998"
         cx="25.25"
         sodipodi:cx="25.25"
         sodipodi:cy="70.599998"
         sodipodi:rx="3"
         sodipodi:ry="3"
         d="m 28.25,70.599998 c 0,1.656855 -1.343146,3 -3,3 -1.656854,0 -3,-1.343145 -3,-3 0,-1.656854 1.343146,-3 3,-3 1.656854,0 3,1.343146 3,3 z"
         style="stroke-width:0.1" /><circle
         id="circle12773"
         r="3"
         cy="83.300003"
         cx="12.55"
         sodipodi:cx="12.55"
         sodipodi:cy="83.300003"
         sodipodi:rx="3"
         sodipodi:ry="3"
         d="m 15.55,83.300003 c 0,1.656854 -1.343146,3 -3,3 -1.656854,0 -2.9999998,-1.343146 -2.9999998,-3 0,-1.656854 1.3431458,-3 2.9999998,-3 1.656854,0 3,1.343146 3,3 z"
         style="stroke-width:0.1" /><circle
         id="circle12775"
         r="3"
         cy="83.300003"
         cx="37.950001"
         sodipodi:cx="37.950001"
         sodipodi:cy="83.300003"
         sodipodi:rx="3"
         sodipodi:ry="3"
         d="m 40.950001,83.300003 c 0,1.656854 -1.343146,3 -3,3 -1.656854,0 -3,-1.343146 -3,-3 0,-1.656854 1.343146,-3 3,-3 1.656854,0 3,1.343146 3,3 z"
         style="stroke-width:0.1" /><circle
         id="circle12777"
         r="3"
         cy="96"
         cx="12.55"
         sodipodi:cx="12.55"
         sodipodi:cy="96"
         sodipodi:rx="3"
         sodipodi:ry="3"
         d="m 15.55,96 c 0,1.656854 -1.343146,3 -3,3 -1.656854,0 -2.9999998,-1.343146 -2.9999998,-3 0,-1.656854 1.3431458,-3 2.9999998,-3 1.656854,0 3,1.343146 3,3 z"
         style="stroke-width:0.1" /><circle
         id="circle12779"
         r="3"
         cy="96"
         cx="25.25"
         sodipodi:cx="25.25"
         sodipodi:cy="96"
         sodipodi:rx="3"
         sodipodi:ry="3"
         d="m 28.25,96 c 0,1.656854 -1.343146,3 -3,3 -1.656854,0 -3,-1.343146 -3,-3 0,-1.656854 1.343146,-3 3,-3 1.656854,0 3,1.343146 3,3 z"
         style="stroke-width:0.1" /><circle
         id="circle12781"
         r="3"
         cy="96"
         cx="37.950001"
         sodipodi:cx="37.950001"
         sodipodi:cy="96"
         sodipodi:rx="3"
         sodipodi:ry="3"
         d="m 40.950001,96 c 0,1.656854 -1.343146,3 -3,3 -1.656854,0 -3,-1.343146 -3,-3 0,-1.656854 1.343146,-3 3,-3 1.656854,0 3,1.343146 3,3 z"
         style="stroke-width:0.1" /><circle
         id="circle12783"
         r="3"
         cy="108.7"
         cx="12.55"
         sodipodi:cx="12.55"
         sodipodi:cy="108.7"
         sodipodi:rx="3"
         sodipodi:ry="3"
         d="m 15.55,108.7 c 0,1.65685 -1.343146,3 -3,3 -1.656854,0 -2.9999998,-1.34315 -2.9999998,-3 0,-1.65686 1.3431458,-3 2.9999998,-3 1.656854,0 3,1.34314 3,3 z"
         style="stroke-width:0.1" /><circle
         id="circle12785"
         r="3"
         cy="108.7"
         cx="25.25"
         sodipodi:cx="25.25"
         sodipodi:cy="108.7"
         sodipodi:rx="3"
         sodipodi:ry="3"
         d="m 28.25,108.7 c 0,1.65685 -1.343146,3 -3,3 -1.656854,0 -3,-1.34315 -3,-3 0,-1.65686 1.343146,-3 3,-3 1.656854,0 3,1.34314 3,3 z"
         style="stroke-width:0.1" /><circle
         id="circle12787"
         r="3"
         cy="108.7"
         cx="37.950001"
         sodipodi:cx="37.950001"
         sodipodi:cy="108.7"
         sodipodi:rx="3"
         sodipodi:ry="3"
         d="m 40.950001,108.7 c 0,1.65685 -1.343146,3 -3,3 -1.656854,0 -3,-1.34315 -3,-3 0,-1.65686 1.343146,-3 3,-3 1.656854,0 3,1.34314 3,3 z"
         style="stroke-width:0.1" /></g></g></clipPath></defs><sodipodi:namedview
   pagecolor="#ffffff"
   bordercolor="#666666"
   borderopacity="1"
   objecttolerance="10"
   gridtolerance="10"
   guidetolerance="10"
   inkscape:pageopacity="0"
   inkscape:pageshadow="2"
   inkscape:window-width="1440"
   inkscape:window-height="852"
   id="namedview1342"
   showgrid="true"
   inkscape:zoom="1.3979437"
   inkscape:cx="523.38401"
   inkscape:cy="559.57357"
   inkscape:window-x="0"
   inkscape:window-y="0"
   inkscape:window-maximized="1"
   inkscape:current-layer="layer2"
   inkscape:snap-object-midpoints="false"
   inkscape:snap-center="false"
   showguides="true"
   inkscape:guide-bbox="true"
   inkscape:object-paths="true"
   inkscape:snap-nodes="false"
   inkscape:snap-grids="true"
   inkscape:snap-to-guides="false"><inkscape:grid
     type="xygrid"
     id="grid18395"
     empspacing="5"
     visible="true"
     enabled="true"
     snapvisiblegridlinesonly="true"
     units="in"
     spacingx="0.25in"
     spacingy="0.25in"
     originx="25.25mm"
     originy="64.25mm" /></sodipodi:namedview>



















































































































<g
   inkscape:groupmode="layer"
   id="layer1"
   inkscape:label="Cut"
   style="display:inline" /><g
   inkscape:groupmode="layer"
   id="layer2"
   inkscape:label="Print"
   style="display:inline"><g
     id="g240"
     clip-path="url(#clipPath12741)"
     transform="translate(-874.47353,-170.28442)">
	<path
   d="m 1224.367,672.158 c 0,114.65 -93.271,207.588 -208.331,207.588 -115.062,0 -208.337,-92.938 -208.337,-207.588 0,-114.65 93.273,-207.587 208.337,-207.587 115.063,0 208.331,92.937 208.331,207.587 z"
   id="path242"
   inkscape:connector-curvature="0"
   style="fill:none;stroke:#000000;stroke-width:0.5" />
	<path
   d="m 1153.896,670.01 c 0,76.123 -61.707,137.83 -137.834,137.83 -76.122,0 -137.837,-61.707 -137.837,-137.83 0,-76.13 61.714,-137.84 137.837,-137.84 76.126,0.002 137.834,61.712 137.834,137.84 z"
   id="path244"
   inkscape:connector-curvature="0"
   style="fill:none;stroke:#000000;stroke-width:0.5" />
	<path
   d="m 1153.896,671.035 c 0,32.99 -61.707,59.739 -137.834,59.739 -76.122,0 -137.837,-26.749 -137.837,-59.739 0,-32.987 61.714,-59.733 137.837,-59.733 76.126,0 137.834,26.746 137.834,59.733 z"
   id="path246"
   inkscape:connector-curvature="0"
   style="fill:none;stroke:#000000;stroke-width:0.5" />
	<path
   d="m 1223.342,671.031 c 0,48.251 -93.04,87.372 -207.808,87.372 -114.771,0 -207.812,-39.121 -207.812,-87.372 0,-48.25 93.041,-87.364 207.812,-87.364 114.768,0 207.808,39.114 207.808,87.364 z"
   id="path248"
   inkscape:connector-curvature="0"
   style="fill:none;stroke:#000000;stroke-width:0.5" />
	<path
   d="m 1149.391,600.824 c 53.646,101.861 37.697,215.746 -35.639,254.373 -73.335,38.618 -176.271,-12.642 -229.923,-114.501 -53.648,-101.861 -37.69,-215.75 35.643,-254.376 73.336,-38.624 176.266,12.649 229.919,114.504 z"
   id="path250"
   inkscape:connector-curvature="0"
   style="fill:none;stroke:#000000;stroke-width:0.5" />
	<path
   d="m 1127.623,525.263 c 91.025,69.454 114.867,191.219 53.26,271.956 -61.623,80.744 -185.353,89.893 -276.376,20.428 -91.02,-69.462 -114.863,-191.224 -53.252,-271.961 61.612,-80.743 185.349,-89.885 276.368,-20.423 z"
   id="path252"
   inkscape:connector-curvature="0"
   style="fill:none;stroke:#000000;stroke-width:0.5" />
	<line
   x1="1070.578"
   y1="586.40503"
   x2="962.15002"
   y2="755.36902"
   id="line254"
   style="fill:none;stroke:#000000;stroke-width:0.5" />
	<line
   x1="852.229"
   y1="617.04498"
   x2="1181.282"
   y2="723.62903"
   id="line256"
   style="fill:none;stroke:#000000;stroke-width:0.5" />
	<line
   x1="1181.119"
   y1="723.41498"
   x2="815.89099"
   y2="646.98602"
   id="line258"
   style="fill:none;stroke:#000000;stroke-width:0.5" />
	<line
   x1="815.737"
   y1="646.51703"
   x2="1215.245"
   y2="694.13"
   id="line260"
   style="fill:none;stroke:#000000;stroke-width:0.5" />
	<line
   x1="1016.627"
   y1="670.10999"
   x2="1015.552"
   y2="480.17999"
   id="line262"
   style="fill:none;stroke:#000000;stroke-width:0.5" />
	<line
   x1="1015.052"
   y1="479.77301"
   x2="1079.218"
   y2="516.38599"
   id="line264"
   style="fill:none;stroke:#000000;stroke-width:0.5" />
	<line
   x1="1079.218"
   y1="516.38599"
   x2="1094.0699"
   y2="503.655"
   id="line266"
   style="fill:none;stroke:#000000;stroke-width:0.5" />
	<line
   x1="1094.0699"
   y1="503.655"
   x2="1016.1"
   y2="480.315"
   id="line268"
   style="fill:none;stroke:#000000;stroke-width:0.5" />
	<line
   x1="1094.0699"
   y1="503.655"
   x2="1158.259"
   y2="553.52197"
   id="line270"
   style="fill:none;stroke:#000000;stroke-width:0.5" />
	<line
   x1="1158.259"
   y1="553.52197"
   x2="1133.326"
   y2="574.20801"
   id="line272"
   style="fill:none;stroke:#000000;stroke-width:0.5" />
	<line
   x1="1133.326"
   y1="574.20801"
   x2="1079.218"
   y2="516.38599"
   id="line274"
   style="fill:none;stroke:#000000;stroke-width:0.5" />
	<line
   x1="1133.326"
   y1="574.20801"
   x2="1168.869"
   y2="647.41101"
   id="line276"
   style="fill:none;stroke:#000000;stroke-width:0.5" />
	<line
   x1="1168.869"
   y1="647.41101"
   x2="1200.938"
   y2="621.54602"
   id="line278"
   style="fill:none;stroke:#000000;stroke-width:0.5" />
	<line
   x1="1200.791"
   y1="620.96198"
   x2="1158.259"
   y2="553.52197"
   id="line280"
   style="fill:none;stroke:#000000;stroke-width:0.5" />
	<line
   x1="1016.807"
   y1="670.28998"
   x2="1193.269"
   y2="673.40002"
   id="line282"
   style="fill:none;stroke:#000000;stroke-width:0.5" />
	<line
   x1="1193.269"
   y1="673.40002"
   x2="1215.179"
   y2="695.04901"
   id="line284"
   style="fill:none;stroke:#000000;stroke-width:0.5" />
	<line
   x1="1201.0649"
   y1="621.66199"
   x2="1202.7061"
   y2="692.51599"
   id="line286"
   style="fill:none;stroke:#000000;stroke-width:0.5" />
	<line
   x1="1202.7061"
   y1="692.51599"
   x2="1169.567"
   y2="719.802"
   id="line288"
   style="fill:none;stroke:#000000;stroke-width:0.5" />
	<line
   x1="1169.401"
   y1="719.966"
   x2="1168.869"
   y2="647.41101"
   id="line290"
   style="fill:none;stroke:#000000;stroke-width:0.5" />
	<line
   x1="1168.869"
   y1="647.41101"
   x2="1181.447"
   y2="723.35999"
   id="line292"
   style="fill:none;stroke:#000000;stroke-width:0.5" />
	<line
   x1="1181.604"
   y1="723.26599"
   x2="1202.938"
   y2="692.57898"
   id="line294"
   style="fill:none;stroke:#000000;stroke-width:0.5" />
	<line
   x1="1193.269"
   y1="673.40002"
   x2="1181.604"
   y2="723.26599"
   id="line296"
   style="fill:none;stroke:#000000;stroke-width:0.5" />
</g><rect
     style="fill:none"
     id="rect17"
     height="1118.519"
     width="790.39899"
     y="126.12896"
     x="128.33913" /><rect
     style="fill:none"
     id="rect129"
     height="1118.519"
     width="790.39899"
     y="126.12896"
     x="128.33913" /><rect
     style="fill:none"
     id="rect233"
     height="1118.519"
     width="790.39899"
     y="126.12896"
     x="128.33913" /><path
     d="m 14.471794,711.15029 -0.398,3.653 -0.361,-3.653 v -15.019 h 7.899 v 10.105 l -1.886,0.951 1.886,0.979 v 2.976 l -0.399,3.661 -0.36,-3.653 v -2.514 l -2.799,-1.474 2.799,-1.395 v -8.877 h -6.378 l -0.003,14.26 0,0 z m 4.76,-12.638 v 6.255 l -3.142,1.588 v -7.843 h 3.142 z m -2.779,16.292 -0.361,-3.64 v -3.089 l 3.142,1.603 v 1.469 l -0.399,3.657 -0.361,-3.653 v -1.01 l -1.616,-0.836 v 1.846 l -0.405,3.653 z m 2.016,-15.531 h -1.616 v 5.829 l 1.616,-0.814 v -5.015 z"
     id="path328"
     inkscape:connector-curvature="0" /><path
     d="m 31.528794,711.15029 -0.399,3.653 -0.361,-3.653 v -2.359 h -4.759 v -3.159 h 4.759 v -1.599 h -4.759 v -5.54 h 3.142 v 2.38 h 1.617 v -3.979 h -6.377 v 14.257 l -0.398,3.653 -0.361,-3.653 v -15.019 h 7.899 v 5.501 h -3.143 v -2.379 h -1.616 v 4.018 h 4.759 v 3.12 h -4.759 v 1.637 h 4.759 l -0.003,3.121 0,0 z"
     id="path330"
     inkscape:connector-curvature="0" /><path
     d="m 41.386794,711.14629 -0.399,3.657 -0.36,-3.651 v -4.89 l -2.789,-1.465 2.789,-1.396 v -6.51 h -6.377 v 14.257 l -0.398,3.653 -0.362,-3.653 v -15.019 h 7.899 v 7.737 l -1.877,0.948 1.877,0.975 -0.003,5.357 0,0 z m -2.38,-12.634 v 3.875 l -3.142,1.589 v -5.464 h 3.142 z m 0,8.764 v 1.495 h -3.142 v -3.085 l 3.142,1.59 z m -0.762,-8.003 h -1.617 v 3.465 l 1.617,-0.816 v -2.649 z m 0,8.472 -1.617,-0.818 v 1.086 h 1.617 v -0.268 z"
     id="path332"
     inkscape:connector-curvature="0" /><path
     d="m 51.302794,711.15029 -0.399,3.653 -0.36,-3.653 v -2.359 h -4.76 v -3.159 h 4.76 v -1.599 h -4.76 v -5.54 h 3.142 v 2.38 h 1.618 v -3.979 h -6.377 v 14.257 l -0.399,3.653 -0.361,-3.653 v -15.019 h 7.899 v 5.501 h -3.143 v -2.379 h -1.616 v 4.018 h 4.759 v 3.12 h -4.759 v 1.637 h 4.759 l -0.003,3.121 0,0 z"
     id="path334"
     inkscape:connector-curvature="0" /><path
     d="m 58.783794,711.15029 -0.399,3.653 -0.36,-3.653 v -2.359 h -2.379 v -11.896 h -1.618 v 14.257 l -0.398,3.653 -0.362,-3.653 v -15.019 h 3.143 v 11.896 h 2.38 v 3.123 l -0.007,0 0,0 z"
     id="path336"
     inkscape:connector-curvature="0" /><path
     d="m 75.455794,711.15029 -0.4,3.653 -0.36,-3.653 v -12.658 h 2.38 v -1.599 h -6.377 v 1.599 h 2.379 v 12.658 l -0.397,3.653 -0.361,-3.653 v -11.896 h -2.38 v -3.122 h 7.899 v 3.122 h -2.38 l -0.003,11.896 0,0 z"
     id="path338"
     inkscape:connector-curvature="0" /><path
     d="m 87.504784,711.15029 -0.399,3.653 -0.36,-3.653 v -2.359 h -4.76 v -3.159 h 4.76 v -1.599 h -4.76 v -5.54 h 3.142 v 2.38 h 1.618 v -3.979 h -6.378 v 14.257 l -0.398,3.653 -0.36099,-3.653 v -15.019 h 7.89899 v 5.501 h -3.143 v -2.379 h -1.617 v 4.018 h 4.76 v 3.12 h -4.76 v 1.637 h 4.76 l -0.003,3.121 0,0 z"
     id="path340"
     inkscape:connector-curvature="0" /><path
     d="m 97.365784,711.15029 -0.399,3.653 -0.36,-3.653 v -4.737 h -1.618 v 2.378 h -3.142 v -10.298 h 3.142 v 2.38 h 1.618 v -3.979 h -6.377 v 14.257 l -0.398,3.653 -0.362,-3.653 v -15.019 h 7.9 v 5.501 h -3.144 v -2.379 h -1.616 v 8.772 h 1.616 v -2.379 h 3.144 l -0.004,5.503 0,0 z"
     id="path342"
     inkscape:connector-curvature="0" /><path
     d="m 107.18679,711.15029 -0.4,3.653 -0.36,-3.653 v -14.257 h -1.618 v 9.52 h -3.141 v -9.52 h -1.618 v 14.257 l -0.398006,3.653 -0.361,-3.653 v -15.019 h 3.142006 v 9.518 h 1.618 v -9.518 h 3.142 v 15.019 h -0.006 z m -2.381,0 -0.399,3.653 -0.359,-3.653 v -2.379 h -1.618 v 2.379 l -0.398,3.653 -0.361,-3.653 v -3.14 h 3.142 v 3.14 h -0.007 z"
     id="path344"
     inkscape:connector-curvature="0" /><path
     d="m 117.10379,711.15029 -0.399,3.653 -0.361,-3.653 v -14.257 h -1.639 v 8.762 l -3.018,-8.762 h -1.723 v 14.257 l -0.398,3.653 -0.362,-3.653 v -15.019 h 3.027 l 1.714,5.007 v -5.007 h 3.159 v 15.019 l 0,0 z m -2.266,-0.01 -0.402,3.663 -0.364,-3.653 -1.728,-5.007 v 5.007 l -0.398,3.653 -0.361,-3.653 v -9.477 l 3.253,9.467 z"
     id="path346"
     inkscape:connector-curvature="0" /><path
     d="m 127.01979,711.15029 -0.399,3.653 -0.361,-3.653 v -14.257 h -6.377 v 14.257 l -0.398,3.653 -0.361,-3.653 v -15.019 h 7.899 l -0.003,15.019 0,0 z m -2.381,-12.638 v 10.26 h -3.141 v -10.26 h 3.141 z m -0.761,0.761 h -1.618 v 8.737 h 1.618 v -8.737 z"
     id="path348"
     inkscape:connector-curvature="0" /><path
     d="m 134.55779,711.15029 -0.4,3.653 -0.36,-3.653 v -2.359 h -2.38 v -11.896 h -1.618 v 14.257 l -0.397,3.653 -0.361,-3.653 v -15.019 h 3.141 v 11.896 h 2.381 v 3.123 l -0.006,0 0,0 z"
     id="path350"
     inkscape:connector-curvature="0" /><path
     d="m 144.09279,711.15029 -0.399,3.653 -0.36,-3.653 v -14.257 h -6.377 v 14.257 l -0.399,3.653 -0.361,-3.653 v -15.019 h 7.899 l -0.003,15.019 0,0 z m -2.38,-12.638 v 10.26 h -3.142 v -10.26 h 3.142 z m -0.76,0.761 h -1.616 v 8.737 h 1.616 v -8.737 z"
     id="path352"
     inkscape:connector-curvature="0" /><path
     d="m 154.00878,711.15029 -0.399,3.653 -0.36,-3.653 v -7.117 h -1.61799 v 4.758 h -3.142 v -10.297 h 3.142 v 2.379 h 1.61799 v -3.979 h -6.37699 v 14.257 l -0.399,3.653 -0.361,-3.653 v -15.019 h 7.89899 v 5.501 h -3.14299 v -2.379 h -1.616 v 8.772 h 1.616 v -4.757 h 3.14299 l -0.003,7.881 0,0 z"
     id="path354"
     inkscape:connector-curvature="0" /><path
     d="m 163.88779,711.15029 -0.399,3.653 -0.36001,-3.653 v -14.257 h -1.618 v 7.139 h -3.142 v -7.139 h -1.61699 v 8.736 h 4.759 v 3.159 h -4.759 v 2.359 l -0.398,3.653 -0.362,-3.653 v -3.122 h 4.76 v -1.637 h -4.76 v -10.26 h 3.143 v 7.14 h 1.616 v -7.14 h 3.144 v 15.02 l -0.007,0 0,0 z"
     id="path356"
     inkscape:connector-curvature="0" /><path
     d="m 43.66979,441.01131 c 0,0 -55.273,51.32598 0,134.89598"
     id="path372"
     inkscape:connector-curvature="0"
     style="fill:none;stroke:#000000;stroke-width:2;stroke-linecap:round" /><path
     d="m 136.08078,441.01131 c 0,0 55.273,51.32598 0,134.89598"
     id="path374"
     inkscape:connector-curvature="0"
     style="fill:none;stroke:#000000;stroke-width:2;stroke-linecap:round" /><path
     d="M 44.45279,531.18729"
     id="path376"
     inkscape:connector-curvature="0"
     style="fill:none;stroke:#000000;stroke-width:2;stroke-linecap:round" /><line
     x1="22.14563"
     y1="600.86603"
     x2="89.613808"
     y2="667.21246"
     id="line382"
     style="fill:none;stroke:#000000;stroke-width:1.99999988;stroke-linecap:round" /><line
     x1="157.14563"
     y1="601.02081"
     x2="89.834816"
     y2="667.21246"
     id="line384"
     style="fill:none;stroke:#000000;stroke-width:1.99999988;stroke-linecap:round" /><polyline
     points="899.681,642.148 890.434,656.964 899.845,659.61 "
     id="polyline398"
     transform="matrix(0.78232519,-0.62287021,0.62287021,0.78232519,-1079.6408,594.98799)" /><polyline
     points="952.886,827.664 944.276,812.472 937.46,819.478 "
     id="polyline402"
     transform="translate(-872.94323,-169.88369)" /><polyline
     points="976.452,827.664 985.061,812.472 991.879,819.478 "
     id="polyline404"
     transform="translate(-876.94323,-169.88369)" /><path
     d="M 107.05779,632.86229"
     id="path418"
     inkscape:connector-curvature="0" /><line
     x1="88.894814"
     y1="598.94452"
     x2="44.115784"
     y2="666.68451"
     id="line420"
     style="fill:none;stroke:#000000;stroke-width:2;stroke-linecap:round" /><polyline
     points="950.542,790.481 937.744,802.362 946.136,807.381 "
     id="polyline422"
     transform="translate(-874.94323,-171.88369)" /><line
     x1="90.114784"
     y1="598.94452"
     x2="134.89482"
     y2="666.68451"
     id="line432"
     style="fill:none;stroke:#000000;stroke-width:2;stroke-linecap:round" /><polyline
     points="978.354,790.481 991.151,802.362 982.761,807.381 "
     id="polyline434"
     transform="translate(-874.94323,-171.88369)" /><circle
     d="m 969.42603,770.578 c 0,2.62336 -2.12665,4.75 -4.75,4.75 -2.62336,0 -4.75,-2.12664 -4.75,-4.75 0,-2.62335 2.12664,-4.75 4.75,-4.75 2.62335,0 4.75,2.12665 4.75,4.75 z"
     cx="964.67603"
     cy="770.578"
     r="4.75"
     id="circle436"
     sodipodi:cx="964.67603"
     sodipodi:cy="770.578"
     sodipodi:rx="4.75"
     sodipodi:ry="4.75"
     transform="translate(-874.94323,-171.88369)" /><g
     id="g1168"
     transform="translate(-874.94323,-171.88369)">
	<path
   d="m 960.606,857.361 c 0.005,0.058 0.008,0.104 0.008,0.145 0,0.101 -0.016,0.19 -0.045,0.275 -0.011,0.035 -0.03,0.075 -0.061,0.12 -0.069,0.115 -0.109,0.188 -0.12,0.21 -0.029,0.065 -0.055,0.118 -0.074,0.158 -0.04,0.074 -0.08,0.147 -0.12,0.217 -0.021,0.04 -0.036,0.069 -0.048,0.087 -0.014,0.02 -0.031,0.033 -0.058,0.049 -0.021,0.04 -0.037,0.104 -0.053,0.193 -0.015,0.089 -0.027,0.157 -0.038,0.207 -0.01,0.049 -0.032,0.088 -0.066,0.118 -0.01,0.01 -0.042,0.028 -0.098,0.059 l -0.099,-0.045 c -0.075,-0.03 -0.138,-0.05 -0.188,-0.061 -0.021,-0.011 -0.051,-0.017 -0.091,-0.017 -0.04,0 -0.064,0 -0.074,0 -0.035,0.006 -0.077,0.015 -0.124,0.022 -0.048,0.009 -0.126,0.032 -0.235,0.064 -0.021,0.007 -0.053,0.012 -0.098,0.017 -0.045,0.006 -0.086,0.013 -0.124,0.021 -0.038,0.009 -0.087,0.021 -0.149,0.03 -0.063,0.009 -0.109,0.018 -0.14,0.021 -0.024,0.005 -0.061,0.005 -0.104,-0.002 -0.045,-0.01 -0.069,-0.013 -0.075,-0.013 -0.04,0.003 -0.098,0.006 -0.172,0.009 -0.075,0.003 -0.133,0.006 -0.172,0.006 l -0.255,-0.044 c -0.04,0 -0.114,-0.006 -0.222,-0.016 -0.106,-0.01 -0.168,-0.015 -0.185,-0.015 l -0.404,-0.03 c -0.021,-0.016 -0.035,-0.029 -0.046,-0.041 -0.01,-0.013 -0.02,-0.021 -0.029,-0.021 -0.011,-0.021 -0.024,-0.028 -0.045,-0.028 -0.011,0.04 -0.024,0.06 -0.045,0.06 l -0.165,-0.015 c -0.024,-0.005 -0.05,-0.021 -0.07,-0.041 -0.022,-0.023 -0.039,-0.034 -0.05,-0.034 l -0.21,-0.03 c -0.034,-0.005 -0.054,-0.021 -0.054,-0.056 0,-0.035 -0.002,-0.052 -0.007,-0.057 -0.029,-0.025 -0.051,-0.064 -0.063,-0.116 -0.013,-0.054 -0.021,-0.104 -0.025,-0.154 -0.011,-0.021 -0.034,-0.036 -0.071,-0.049 -0.038,-0.013 -0.067,-0.025 -0.09,-0.037 -0.021,-0.013 -0.055,-0.037 -0.097,-0.072 -0.042,-0.034 -0.082,-0.067 -0.116,-0.104 -0.01,-0.013 -0.021,-0.038 -0.03,-0.083 -0.009,-0.045 -0.021,-0.072 -0.029,-0.082 -0.131,-0.131 -0.245,-0.271 -0.346,-0.421 -0.035,-0.052 -0.06,-0.089 -0.074,-0.112 -0.03,-0.04 -0.056,-0.083 -0.075,-0.128 -0.034,-0.056 -0.069,-0.11 -0.104,-0.165 -0.01,-0.03 -0.015,-0.065 -0.015,-0.104 0,-0.079 0,-0.159 0,-0.239 -0.03,-0.08 -0.062,-0.16 -0.091,-0.24 -0.021,-0.12 -0.029,-0.268 -0.029,-0.443 0,-0.068 0,-0.129 0,-0.177 0,-0.047 0,-0.096 0,-0.146 l 0.06,-0.138 c -0.02,-0.04 -0.029,-0.068 -0.029,-0.09 0.011,-0.063 0.021,-0.124 0.029,-0.177 0.011,-0.053 0.03,-0.129 0.061,-0.229 0.011,-0.034 0.026,-0.071 0.054,-0.111 0.069,-0.115 0.106,-0.18 0.111,-0.188 l 0.194,-0.346 c 0.011,-0.021 0.021,-0.053 0.03,-0.099 0.009,-0.045 0.021,-0.076 0.03,-0.099 l 0.225,-0.285 c 0.04,-0.045 0.094,-0.093 0.161,-0.143 0.067,-0.05 0.119,-0.088 0.153,-0.112 0.109,-0.091 0.245,-0.176 0.405,-0.256 l 0.255,-0.12 c 0.114,-0.05 0.229,-0.1 0.346,-0.148 0.13,-0.012 0.229,-0.017 0.3,-0.017 0.09,-0.01 0.149,-0.016 0.18,-0.016 0.051,-0.021 0.085,-0.034 0.105,-0.045 0.045,-0.029 0.08,-0.045 0.104,-0.045 h 0.248 c 0.021,0.009 0.037,0.013 0.053,0.013 0.064,0.019 0.119,0.027 0.165,0.032 l 0.181,0.038 0.21,0.042 c 0.024,0.007 0.063,0.01 0.119,0.01 0.051,0 0.101,0 0.149,0 0.051,0 0.101,-0.002 0.15,-0.007 h 0.075 c 0.063,0.01 0.123,0.027 0.176,0.06 0.053,0.03 0.086,0.045 0.103,0.045 h 0.09 c 0.046,0 0.075,-0.006 0.091,-0.019 0.015,-0.014 0.029,-0.037 0.045,-0.075 0.015,-0.037 0.031,-0.056 0.052,-0.056 0.085,0 0.155,0.045 0.21,0.135 0.04,0.03 0.08,0.06 0.12,0.09 0.021,0.05 0.036,0.099 0.049,0.145 0.013,0.045 0.021,0.079 0.026,0.106 0.005,0.028 0.007,0.08 0.007,0.158 0,0.077 0.004,0.138 0.011,0.18 0.008,0.043 0.022,0.104 0.045,0.188 0.022,0.082 0.036,0.134 0.043,0.151 l 0.029,0.138 v 0.412 c -0.04,0.021 -0.078,0.039 -0.111,0.06 -0.069,0 -0.122,-0.015 -0.153,-0.045 -0.033,-0.029 -0.064,-0.058 -0.095,-0.082 l -0.12,-0.255 v 0.03 c -0.016,-0.021 -0.028,-0.056 -0.042,-0.104 -0.013,-0.048 -0.022,-0.079 -0.033,-0.094 l -0.165,-0.227 c -0.03,0.012 -0.05,0.012 -0.061,0 -0.051,-0.086 -0.101,-0.171 -0.149,-0.256 -0.011,-0.01 -0.025,-0.015 -0.045,-0.015 -0.021,0 -0.035,-0.005 -0.045,-0.016 -0.11,-0.097 -0.227,-0.17 -0.346,-0.227 -0.056,-0.03 -0.127,-0.055 -0.218,-0.075 -0.09,-0.02 -0.178,-0.033 -0.263,-0.045 l -0.24,-0.021 c -0.05,0 -0.099,0 -0.146,0 -0.047,0 -0.094,0 -0.14,0 -0.015,0 -0.037,0.017 -0.065,0.049 -0.03,0.033 -0.048,0.049 -0.054,0.049 h -0.256 c -0.085,0.05 -0.148,0.082 -0.194,0.094 -0.045,0.015 -0.1,0.034 -0.16,0.064 -0.063,0.029 -0.111,0.054 -0.146,0.071 -0.034,0.017 -0.063,0.041 -0.09,0.069 -0.05,0.062 -0.08,0.094 -0.09,0.1 -0.01,0.005 -0.026,0.039 -0.048,0.102 -0.022,0.063 -0.039,0.102 -0.05,0.116 -0.045,0.005 -0.09,0.01 -0.136,0.015 -0.01,0.013 -0.012,0.042 -0.007,0.096 0.005,0.053 10e-4,0.088 -0.011,0.104 -0.014,0.019 -0.039,0.05 -0.079,0.099 -0.04,0.048 -0.067,0.089 -0.083,0.123 -0.015,0.035 -0.027,0.106 -0.038,0.216 -0.01,0.106 -0.021,0.174 -0.03,0.197 -0.01,0.025 -0.025,0.044 -0.052,0.059 -0.024,0.013 -0.04,0.03 -0.045,0.056 l -0.03,0.12 c -0.01,0.025 -0.01,0.087 0,0.185 0.011,0.1 0.011,0.161 0,0.191 l -0.045,0.104 c -0.02,0.017 -0.04,0.023 -0.06,0.026 -0.021,0.002 -0.038,0.004 -0.053,0.004 0.02,0.011 0.033,0.02 0.043,0.022 0.062,0.045 0.098,0.08 0.104,0.104 0.007,0.025 0.012,0.06 0.012,0.099 0,0.04 0,0.084 0,0.129 0,0.113 0,0.21 0,0.284 0,0.074 0,0.119 0.004,0.137 0.002,0.015 0.015,0.025 0.033,0.036 0.021,0.012 0.03,0.021 0.03,0.029 l 0.03,0.12 c 0.005,0.016 0.022,0.038 0.053,0.067 0.031,0.029 0.047,0.053 0.053,0.066 l 0.062,0.195 0.09,0.194 c 0.01,0.056 0.021,0.108 0.03,0.166 0.023,0.055 0.051,0.102 0.078,0.139 0.026,0.037 0.06,0.076 0.095,0.116 l 0.188,0.211 c 0.021,0.02 0.06,0.055 0.113,0.104 0.055,0.053 0.098,0.087 0.128,0.105 0.075,0.015 0.127,0.034 0.158,0.057 0.03,0.022 0.062,0.05 0.098,0.078 0.065,0 0.113,0.007 0.145,0.021 0.029,0.013 0.084,0.021 0.161,0.032 0.078,0.012 0.122,0.019 0.133,0.021 0.023,0.035 0.05,0.07 0.074,0.104 0.051,0.016 0.11,0.024 0.185,0.029 0.072,0.005 0.136,0.007 0.19,0.007 0.069,0 0.134,-0.005 0.188,-0.015 0.054,-0.01 0.104,-0.02 0.146,-0.026 0.042,-0.006 0.1,-0.026 0.17,-0.062 0.068,-0.035 0.138,-0.066 0.202,-0.094 0.064,-0.028 0.12,-0.057 0.165,-0.084 0.045,-0.026 0.104,-0.069 0.182,-0.131 0.01,-0.005 0.018,-0.022 0.021,-0.058 0.006,-0.031 0.015,-0.053 0.022,-0.062 l 0.195,-0.165 0.061,-0.017 0.18,-0.193 c -0.005,-0.045 -0.01,-0.091 -0.015,-0.136 0.045,-0.051 0.093,-0.099 0.143,-0.144 0.075,-0.061 0.152,-0.122 0.232,-0.188 0.01,-0.034 0.021,-0.069 0.03,-0.104 0.05,-0.056 0.088,-0.101 0.115,-0.132 0.026,-0.032 0.052,-0.049 0.07,-0.049 0.075,0 0.138,0.043 0.188,0.128 0.011,0.05 0.029,0.092 0.048,0.151 z"
   id="path1170"
   inkscape:connector-curvature="0" />
	<path
   d="m 967.604,853.707 c 0.02,0.013 0.021,0.03 0.004,0.062 -0.019,0.03 -0.025,0.05 -0.025,0.061 v 0.091 c 0,0.092 -0.018,0.146 -0.051,0.161 -0.033,0.02 -0.072,0.026 -0.119,0.026 -0.046,0 -0.118,-0.009 -0.219,-0.026 -0.101,-0.017 -0.157,-0.021 -0.174,-0.011 -0.046,0.04 -0.076,0.08 -0.092,0.12 -0.005,0.024 -0.007,0.055 -0.007,0.09 0,0.035 0.002,0.07 0.007,0.104 v 0.255 c 0,0.096 -0.011,0.171 -0.033,0.226 -0.023,0.057 -0.041,0.104 -0.057,0.145 -0.005,0.022 0.009,0.049 0.042,0.069 0.031,0.022 0.048,0.041 0.048,0.058 v 0.271 c 0,0.096 0,0.189 0,0.285 -0.021,0.09 -0.037,0.157 -0.045,0.202 l -0.03,0.308 c -0.02,0.045 -0.04,0.092 -0.06,0.137 0,0.039 0.015,0.08 0.045,0.118 0.029,0.04 0.045,0.072 0.045,0.1 0,0.05 -0.011,0.095 -0.03,0.135 -0.021,0.04 -0.04,0.083 -0.061,0.128 0.011,0.017 0.021,0.035 0.034,0.062 0.014,0.023 0.021,0.061 0.029,0.104 0.008,0.045 0.013,0.122 0.016,0.232 0.003,0.107 0.007,0.185 0.012,0.225 v 0.675 c 0,0.03 0.009,0.062 0.025,0.09 0.019,0.03 0.029,0.055 0.034,0.068 0.024,0.09 0.049,0.162 0.07,0.217 0.021,0.058 0.055,0.1 0.095,0.128 0.029,0.005 0.058,0.01 0.083,0.012 0.024,0.004 0.047,0.014 0.066,0.029 0.021,0.019 0.044,0.045 0.07,0.083 0.026,0.037 0.044,0.062 0.05,0.071 0.05,0.06 0.074,0.122 0.074,0.188 0,0.024 -0.008,0.057 -0.021,0.092 -0.016,0.033 -0.022,0.06 -0.022,0.073 -0.114,0 -0.21,0.014 -0.285,0.037 -0.021,0.005 -0.05,0.016 -0.09,0.026 -0.04,0.01 -0.08,0.019 -0.12,0.019 -0.064,0 -0.127,0 -0.188,0 -0.08,-0.015 -0.138,-0.023 -0.173,-0.028 l -0.194,-0.037 -0.474,-0.045 c -0.149,0.015 -0.297,0.025 -0.441,0.037 -0.104,-0.017 -0.157,-0.08 -0.157,-0.194 0,-0.12 0.076,-0.181 0.229,-0.181 0.065,0 0.136,0 0.207,0 0.021,-0.006 0.038,-0.021 0.055,-0.051 0.016,-0.025 0.029,-0.056 0.046,-0.086 0.036,-0.028 0.064,-0.057 0.088,-0.078 0.022,-0.021 0.044,-0.061 0.064,-0.111 0.021,-0.053 0.037,-0.109 0.051,-0.173 0.013,-0.062 0.02,-0.121 0.02,-0.178 0,-0.023 -0.003,-0.048 -0.012,-0.065 -0.007,-0.021 -0.021,-0.043 -0.042,-0.067 v -0.458 -0.192 c 0,-0.053 0.01,-0.123 0.024,-0.22 0.018,-0.095 0.036,-0.153 0.058,-0.18 l -0.029,-0.436 0.029,-0.165 v -0.512 c -0.04,-0.045 -0.066,-0.073 -0.083,-0.09 -0.016,-0.016 -0.042,-0.021 -0.083,-0.021 -0.035,0 -0.066,0.027 -0.098,0.09 -0.01,0.02 -0.038,0.098 -0.083,0.23 l -0.164,0.437 c -0.016,0.04 -0.038,0.078 -0.067,0.112 -0.01,0.011 -0.027,0.023 -0.053,0.046 -0.021,0.04 -0.041,0.087 -0.062,0.143 -0.021,0.056 -0.042,0.101 -0.058,0.135 -0.029,0.085 -0.057,0.16 -0.079,0.227 -0.021,0.063 -0.042,0.115 -0.061,0.153 -0.018,0.036 -0.056,0.086 -0.115,0.146 -0.03,0.03 -0.056,0.062 -0.075,0.098 -0.005,0.025 -0.011,0.062 -0.02,0.112 -0.007,0.051 -0.025,0.115 -0.056,0.195 -0.051,0.068 -0.101,0.141 -0.15,0.21 l -0.12,0.313 c -0.034,0.057 -0.069,0.109 -0.104,0.165 -0.011,0.021 -0.016,0.053 -0.016,0.099 0,0.051 -0.006,0.082 -0.016,0.098 -0.041,0.075 -0.086,0.149 -0.139,0.227 -0.053,0.074 -0.104,0.139 -0.15,0.188 -0.046,0.049 -0.113,0.075 -0.198,0.075 -0.046,-0.006 -0.08,-0.009 -0.104,-0.009 -0.104,0 -0.192,-0.09 -0.264,-0.271 -0.069,-0.18 -0.138,-0.356 -0.202,-0.532 -0.01,-0.02 -0.02,-0.079 -0.025,-0.18 -0.007,-0.102 -0.03,-0.208 -0.07,-0.322 -0.016,-0.029 -0.051,-0.089 -0.104,-0.177 -0.056,-0.087 -0.097,-0.158 -0.124,-0.214 -0.028,-0.056 -0.048,-0.108 -0.061,-0.161 -0.014,-0.053 -0.025,-0.094 -0.042,-0.124 l -0.226,-0.465 c -0.035,-0.069 -0.073,-0.142 -0.116,-0.215 -0.042,-0.071 -0.068,-0.116 -0.078,-0.136 -0.011,-0.018 -0.057,-0.12 -0.14,-0.312 -0.083,-0.189 -0.15,-0.317 -0.206,-0.382 h -0.067 c -0.005,0.022 -0.013,0.07 -0.021,0.139 -0.011,0.066 -0.016,0.134 -0.016,0.198 l -0.029,0.465 c 0,0.086 -0.007,0.199 -0.02,0.342 -0.014,0.144 -0.02,0.249 -0.02,0.318 v 0.893 0.15 c 0,0.09 -0.005,0.147 -0.016,0.18 -0.01,0.03 -0.025,0.062 -0.049,0.095 -0.021,0.032 -0.034,0.058 -0.034,0.07 0,0.12 0.064,0.192 0.195,0.218 0.104,0.011 0.193,0.019 0.266,0.021 0.073,0.003 0.145,0.021 0.215,0.053 0.069,0.032 0.104,0.116 0.104,0.251 0,0.025 0.005,0.062 0.015,0.107 0.011,0.049 0.006,0.079 -0.015,0.095 -0.011,0.011 -0.039,0.017 -0.087,0.02 -0.047,0.003 -0.082,0.007 -0.107,0.012 -0.05,0.006 -0.131,0 -0.243,-0.016 -0.112,-0.016 -0.18,-0.018 -0.199,-0.008 -0.04,0.01 -0.069,0.016 -0.09,0.016 -0.045,0 -0.101,-0.008 -0.165,-0.021 -0.064,-0.016 -0.104,-0.021 -0.12,-0.016 -0.034,0.011 -0.083,0.041 -0.146,0.094 -0.062,0.052 -0.115,0.078 -0.161,0.078 -0.06,0 -0.138,-0.035 -0.232,-0.105 -0.055,-0.04 -0.092,-0.062 -0.111,-0.066 v -0.238 c 0.101,-0.115 0.18,-0.184 0.235,-0.203 0.059,-0.021 0.106,-0.04 0.15,-0.061 0.041,-0.021 0.063,-0.048 0.063,-0.083 0,-0.05 -0.026,-0.188 -0.079,-0.412 -0.053,-0.226 -0.079,-0.366 -0.079,-0.427 0,-0.012 0.009,-0.033 0.025,-0.067 0.018,-0.034 0.031,-0.079 0.041,-0.136 0.011,-0.056 0.017,-0.118 0.02,-0.19 0.002,-0.072 0.007,-0.124 0.012,-0.157 0.005,-0.031 0.007,-0.057 0.007,-0.073 0,-0.018 0,-0.028 0,-0.034 0,-0.039 -0.002,-0.075 -0.007,-0.107 -0.005,-0.033 -0.014,-0.062 -0.021,-0.087 0,-0.01 0.016,-0.06 0.045,-0.146 0.03,-0.088 0.055,-0.165 0.07,-0.231 0.018,-0.067 0.026,-0.129 0.026,-0.185 0,-0.08 -0.013,-0.143 -0.037,-0.186 -0.023,-0.042 -0.051,-0.083 -0.076,-0.123 0,-0.021 0.013,-0.047 0.037,-0.079 0.024,-0.031 0.045,-0.072 0.062,-0.122 0.016,-0.052 0.025,-0.101 0.029,-0.146 0.005,-0.049 0.008,-0.1 0.008,-0.154 -0.016,-0.08 -0.021,-0.158 -0.021,-0.238 0.039,-0.035 0.066,-0.062 0.083,-0.075 0.038,-0.034 0.06,-0.074 0.06,-0.119 l -0.022,-0.293 0.03,-0.104 -0.045,-0.18 0.037,-0.271 c 0.005,-0.016 -0.013,-0.061 -0.053,-0.136 -0.01,-0.021 -0.029,-0.055 -0.061,-0.104 -0.01,-0.005 -0.049,0 -0.115,0.015 -0.066,0.016 -0.116,0.021 -0.146,0.021 -0.08,0 -0.143,-0.019 -0.188,-0.053 -0.021,-0.011 -0.048,-0.048 -0.083,-0.112 -0.016,-0.028 -0.034,-0.068 -0.057,-0.119 -0.021,-0.051 -0.039,-0.093 -0.049,-0.128 0,-0.01 0.005,-0.021 0.015,-0.029 0.045,-0.045 0.075,-0.087 0.091,-0.127 0.016,-0.04 0.032,-0.089 0.053,-0.144 0.056,-0.096 0.131,-0.144 0.226,-0.144 0.021,0 0.1,0.025 0.235,0.079 0.138,0.052 0.265,0.104 0.379,0.152 0.164,0.074 0.25,0.111 0.255,0.111 0.069,0.035 0.122,0.07 0.156,0.104 0.035,0.035 0.062,0.066 0.083,0.099 0.021,0.028 0.061,0.115 0.12,0.255 0.035,0.075 0.069,0.15 0.104,0.226 0.021,0.08 0.042,0.162 0.066,0.244 0.024,0.083 0.054,0.127 0.083,0.132 0,0.113 0.033,0.223 0.099,0.322 0.09,0.14 0.146,0.236 0.165,0.293 0.005,0.023 0.002,0.062 -0.008,0.107 -0.011,0.048 -0.008,0.084 0.008,0.107 0.05,0.104 0.1,0.194 0.146,0.271 0.046,0.077 0.075,0.128 0.086,0.157 0.035,0.141 0.069,0.277 0.104,0.413 0.045,0.055 0.077,0.095 0.099,0.119 0.074,0.091 0.114,0.144 0.119,0.157 l 0.022,0.181 0.074,0.211 c 0.016,0.074 0.031,0.135 0.053,0.18 0.005,0.005 0.021,0.017 0.049,0.03 0.028,0.013 0.054,0.05 0.079,0.104 0.005,0.018 0.026,0.089 0.066,0.219 0.024,0.08 0.056,0.165 0.09,0.256 0.035,0.091 0.075,0.136 0.12,0.136 0.056,0 0.093,-0.015 0.111,-0.042 0.021,-0.027 0.056,-0.116 0.105,-0.267 0.01,-0.029 0.028,-0.067 0.057,-0.115 0.027,-0.049 0.048,-0.084 0.062,-0.109 0.046,-0.068 0.095,-0.146 0.146,-0.229 0.053,-0.082 0.086,-0.141 0.102,-0.172 0.016,-0.033 0.025,-0.078 0.034,-0.137 0.007,-0.057 0.017,-0.104 0.025,-0.143 0.01,-0.037 0.021,-0.086 0.038,-0.146 0.016,-0.061 0.04,-0.131 0.075,-0.211 0.01,-0.021 0.032,-0.047 0.067,-0.078 0.034,-0.032 0.057,-0.06 0.062,-0.079 0.007,-0.021 0.016,-0.062 0.025,-0.127 0.011,-0.064 0.019,-0.104 0.021,-0.12 l 0.09,-0.227 c 0.025,-0.061 0.052,-0.104 0.079,-0.139 0.027,-0.032 0.062,-0.067 0.102,-0.104 0.04,-0.038 0.068,-0.064 0.086,-0.084 0.018,-0.017 0.034,-0.043 0.049,-0.077 0.039,-0.125 0.079,-0.25 0.119,-0.375 0.045,-0.075 0.091,-0.149 0.136,-0.227 -0.011,-0.061 -0.021,-0.12 -0.03,-0.181 0.035,-0.045 0.062,-0.081 0.079,-0.111 0.019,-0.03 0.054,-0.066 0.108,-0.112 0.03,-0.021 0.061,-0.034 0.091,-0.045 0.024,-0.024 0.05,-0.083 0.074,-0.173 0.024,-0.09 0.054,-0.165 0.083,-0.225 0.03,-0.062 0.061,-0.108 0.091,-0.145 0.05,-0.056 0.099,-0.088 0.146,-0.098 0.048,-0.011 0.092,-0.017 0.132,-0.017 0.079,0.006 0.144,0.009 0.188,0.009 0.044,0 0.069,0 0.075,0 0.005,-0.017 0.006,-0.03 0.004,-0.046 -0.002,-0.016 10e-4,-0.024 0.011,-0.029 l 0.217,-0.029 c 0.025,0 0.078,0.019 0.158,0.053 0.08,0.033 0.136,0.057 0.165,0.062 0.03,0.008 0.062,0.013 0.099,0.015 0.043,-0.011 0.067,-0.005 0.076,0.005 z"
   id="path1172"
   inkscape:connector-curvature="0" />
	<path
   d="m 972.486,857.336 -0.036,0.388 -0.055,0.224 -0.11,0.134 -0.068,0.149 0.029,0.18 -0.329,0.312 -0.15,0.061 v 0.074 l -0.09,0.045 -0.122,0.134 -0.167,0.045 -0.016,-0.09 -0.151,0.09 h -0.364 l -0.062,-0.033 -0.167,-0.012 v 0.034 l -0.375,0.011 -0.271,0.062 h -0.556 l -0.181,0.075 -0.21,0.016 -0.061,-0.045 -0.029,0.045 h -0.479 l -0.149,0.074 h -0.181 l -0.181,-0.148 -0.104,-0.225 0.031,-0.181 0.229,-0.179 0.123,-0.09 0.366,-0.045 0.061,-0.074 v -0.344 l -0.061,-0.074 v -0.12 l -0.165,-0.179 0.045,-0.135 0.12,-0.238 -0.061,-0.09 v -0.479 l -0.045,-0.119 -0.029,-0.254 0.09,-0.179 -0.045,-0.164 -0.03,-0.148 0.12,-0.478 0.016,-0.432 -0.016,-0.358 0.016,-0.148 v -0.209 l 0.075,-0.028 0.09,-0.074 -0.12,-0.104 h -0.074 l -0.12,0.128 -0.12,-0.02 -0.074,-0.057 -0.016,0.075 -0.136,-0.025 -0.164,-0.104 -0.105,-0.135 0.016,-0.225 v -0.195 l 0.091,-0.06 0.149,-0.068 h 0.314 l 0.271,0.068 0.075,0.027 h 0.404 l 0.12,0.062 0.104,-0.09 H 970 l 0.211,-0.046 0.257,-0.022 h 0.271 l 0.182,0.068 0.196,-0.068 0.227,0.121 0.166,0.06 0.166,0.03 0.189,0.15 0.016,0.091 0.103,0.045 0.073,0.136 0.103,0.315 0.059,0.148 v 0.12 l -0.09,0.271 0.016,0.313 -0.165,0.228 -0.165,0.091 -0.045,0.12 -0.091,0.015 -0.029,0.182 0.029,0.092 0.091,-0.062 0.045,0.075 0.073,-0.03 0.146,0.228 0.131,0.255 0.028,-0.045 0.132,0.312 0.073,0.238 v 0.373 l 0.088,0.138 z m -1.184,-2.643 -0.06,-0.029 -0.016,-0.147 -0.073,-0.148 -0.044,-0.164 -0.134,-0.191 h -0.104 l -0.191,-0.099 -0.117,-0.062 -0.134,-0.049 -0.163,0.016 v 0.045 l -0.149,0.045 -0.17,-0.03 h -0.14 l -0.046,0.137 -0.124,0.053 v 0.486 l -0.029,0.045 v 0.196 l 0.074,0.093 -0.074,0.074 0.074,0.184 -0.024,0.137 -0.05,0.046 v 0.229 l 0.029,0.149 0.135,0.152 0.163,0.061 h 0.135 0.417 l 0.252,-0.163 0.015,0.045 0.119,-0.074 0.238,-0.253 0.029,-0.193 0.135,-0.163 0.027,-0.428 z m 0.359,2.617 -0.104,-0.091 0.03,-0.21 -0.135,-0.104 -0.066,-0.075 -0.084,-0.028 -0.104,-0.104 -0.181,-0.135 -0.015,-0.12 h -0.255 l -0.136,-0.104 h -0.405 l -0.09,0.061 -0.061,0.045 -0.09,-0.045 -0.045,0.045 h -0.24 v 0.075 l -0.074,0.091 v 0.151 l 0.029,0.073 0.045,0.197 0.075,0.544 -0.12,0.196 0.045,0.166 0.098,0.016 0.017,0.138 0.112,0.137 0.113,0.104 0.097,-0.015 v 0.095 l 0.226,0.19 h 0.149 0.136 l 0.135,-0.095 0.226,-0.079 0.075,-0.144 h 0.045 l 0.104,-0.075 0.165,-0.06 0.075,-0.09 -0.016,-0.12 0.091,-0.045 0.015,-0.12 0.091,-0.12 0.027,-0.345 z"
   id="path1174"
   inkscape:connector-curvature="0" />
</g><g
     id="g1232"
     transform="translate(-784.73457,-176.18315)">
	<path
   d="m 924.434,504.724 c 0.101,0.096 0.19,0.181 0.273,0.255 0.055,0.099 0.033,0.196 -0.061,0.294 -0.095,0.097 -0.191,0.173 -0.29,0.229 -0.071,0.037 -0.155,0.064 -0.252,0.08 -0.098,0.019 -0.18,0.03 -0.248,0.04 -0.017,0.036 -0.038,0.065 -0.062,0.09 -0.025,0.021 -0.052,0.042 -0.08,0.057 -0.093,0.051 -0.229,0.036 -0.41,-0.044 -0.182,-0.079 -0.372,-0.092 -0.571,-0.037 -0.21,-0.032 -0.365,-0.054 -0.462,-0.062 -0.315,-0.039 -0.497,-0.054 -0.545,-0.04 -0.049,0.014 -0.103,0.017 -0.16,0.012 -0.059,-0.005 -0.103,-0.006 -0.133,-0.003 -0.031,0.003 -0.103,0.026 -0.215,0.075 -0.11,0.048 -0.183,0.072 -0.21,0.078 -0.028,0.009 -0.082,-10e-4 -0.157,-0.021 -0.077,-0.022 -0.118,-0.031 -0.125,-0.027 -0.429,0.061 -0.659,0.09 -0.696,0.091 -0.126,0.007 -0.22,-0.018 -0.283,-0.062 l -0.1,0.095 c -0.031,-0.057 -0.094,-0.086 -0.188,-0.09 -0.291,0.021 -0.555,0.032 -0.792,0.033 -0.237,0.002 -0.462,0.005 -0.674,0.011 -0.212,0.006 -0.343,0.021 -0.393,0.049 -0.031,-0.057 -0.125,-0.097 -0.285,-0.12 -0.159,-0.021 -0.265,-0.057 -0.315,-0.102 -0.208,-0.18 -0.404,-0.22 -0.587,-0.119 -0.017,0.035 -0.029,0.062 -0.04,0.076 -0.052,0.073 -0.112,0.13 -0.183,0.168 -0.12,0.066 -0.252,0.06 -0.396,-0.018 -0.144,-0.078 -0.311,-0.065 -0.5,0.037 l -0.052,0.028 c -0.114,0.062 -0.269,0.077 -0.464,0.047 -0.194,-0.03 -0.331,-0.117 -0.407,-0.259 -0.047,-0.085 -0.053,-0.193 -0.021,-0.325 0.033,-0.133 0.099,-0.226 0.197,-0.277 0.07,-0.038 0.17,-0.059 0.3,-0.056 0.13,0.002 0.203,0.003 0.222,0.003 0.084,-0.046 0.169,-0.092 0.254,-0.139 0.062,0.013 0.175,0.011 0.341,-0.006 0.092,-0.017 0.188,-0.025 0.283,-0.032 0.029,0.003 0.111,0.023 0.248,0.064 0.138,0.04 0.256,0.062 0.361,0.068 0.256,0.018 0.444,0.021 0.565,0.007 0.058,-0.012 0.125,-0.021 0.207,-0.021 0.08,-0.004 0.186,0.02 0.312,0.069 0.128,0.049 0.206,0.073 0.234,0.075 0.104,0.01 0.175,-10e-4 0.212,-0.024 0.037,-0.024 0.073,-0.046 0.107,-0.065 0.098,-0.007 0.168,-0.001 0.216,0.021 0.048,0.02 0.096,0.029 0.142,0.031 0.048,0.004 0.076,-0.008 0.089,-0.026 0.012,-0.021 0.025,-0.03 0.045,-0.031 0.123,0.025 0.236,0.026 0.345,0.004 0.092,-0.032 0.189,-0.062 0.293,-0.091 l 1.251,0.004 1.033,-0.041 c 0.059,-0.014 0.216,-0.004 0.478,0.028 0.26,0.032 0.429,0.025 0.506,-0.018 0.034,-0.037 0.066,-0.066 0.1,-0.095 0.031,-0.026 0.051,-0.05 0.058,-0.072 l 0.481,-0.05 0.715,0.094 0.489,0.06 z"
   id="path1234"
   inkscape:connector-curvature="0" />
	<path
   d="m 918.891,500.73 c 0.095,-0.103 0.179,-0.194 0.25,-0.278 0.099,-0.056 0.195,-0.036 0.295,0.058 0.099,0.093 0.176,0.188 0.231,0.287 0.039,0.068 0.068,0.151 0.086,0.25 0.02,0.097 0.032,0.179 0.043,0.245 0.037,0.018 0.066,0.036 0.089,0.062 0.022,0.024 0.043,0.051 0.059,0.078 0.053,0.092 0.04,0.229 -0.036,0.411 -0.077,0.183 -0.086,0.373 -0.027,0.571 -0.029,0.212 -0.049,0.365 -0.058,0.465 -0.033,0.313 -0.043,0.498 -0.03,0.546 0.015,0.048 0.019,0.102 0.015,0.157 -0.004,0.061 -0.004,0.104 -10e-4,0.135 0.003,0.028 0.03,0.102 0.079,0.213 0.049,0.108 0.078,0.181 0.084,0.209 0.007,0.029 0,0.082 -0.021,0.158 -0.021,0.075 -0.03,0.117 -0.025,0.126 0.065,0.427 0.1,0.655 0.103,0.692 0.007,0.126 -0.015,0.223 -0.062,0.284 l 0.097,0.098 c -0.057,0.032 -0.085,0.097 -0.087,0.188 0.024,0.291 0.041,0.554 0.047,0.791 0.005,0.237 0.012,0.462 0.021,0.673 0.01,0.212 0.028,0.343 0.056,0.392 -0.057,0.032 -0.095,0.129 -0.114,0.286 -0.021,0.16 -0.054,0.268 -0.097,0.318 -0.178,0.21 -0.214,0.407 -0.109,0.589 0.036,0.016 0.062,0.028 0.077,0.039 0.073,0.05 0.132,0.11 0.171,0.179 0.067,0.12 0.062,0.252 -0.013,0.396 -0.075,0.144 -0.061,0.311 0.048,0.5 l 0.028,0.052 c 0.063,0.112 0.081,0.266 0.054,0.462 -0.027,0.195 -0.111,0.333 -0.25,0.412 -0.084,0.047 -0.192,0.056 -0.325,0.025 -0.134,-0.032 -0.228,-0.098 -0.283,-0.194 -0.04,-0.069 -0.058,-0.169 -0.058,-0.298 0,-0.13 0,-0.204 0,-0.222 -0.049,-0.085 -0.097,-0.171 -0.145,-0.254 0.012,-0.062 0.008,-0.175 -0.012,-0.34 -0.017,-0.092 -0.028,-0.187 -0.037,-0.281 0.002,-0.029 0.021,-0.112 0.061,-0.249 0.038,-0.14 0.06,-0.26 0.063,-0.362 0.012,-0.256 0.012,-0.445 -10e-4,-0.567 -0.014,-0.056 -0.022,-0.124 -0.025,-0.205 -0.006,-0.081 0.017,-0.186 0.063,-0.312 0.047,-0.128 0.071,-0.207 0.073,-0.235 0.006,-0.104 -0.004,-0.175 -0.029,-0.211 -0.024,-0.037 -0.047,-0.073 -0.067,-0.105 -0.009,-0.1 -0.004,-0.169 0.017,-0.219 0.021,-0.048 0.029,-0.096 0.031,-0.143 0.002,-0.047 -0.009,-0.075 -0.028,-0.087 -0.021,-0.012 -0.031,-0.025 -0.032,-0.045 0.022,-0.123 0.021,-0.238 -10e-4,-0.347 -0.034,-0.092 -0.064,-0.188 -0.097,-0.292 l -0.018,-1.251 -0.058,-1.031 c -0.016,-0.06 -0.009,-0.218 0.021,-0.479 0.027,-0.26 0.021,-0.428 -0.022,-0.506 -0.038,-0.033 -0.069,-0.064 -0.098,-0.098 -0.025,-0.03 -0.052,-0.049 -0.072,-0.057 l -0.059,-0.479 0.082,-0.717 0.053,-0.483 z"
   id="path1236"
   inkscape:connector-curvature="0" />
</g><g
     id="g1238"
     transform="translate(-964.64593,-176.18315)">
	<path
   d="m 1014.22,505.804 c -0.088,0.043 -0.213,0.066 -0.371,0.073 -0.146,-0.009 -0.287,-0.013 -0.422,-0.014 -0.141,0.019 -0.291,0.019 -0.451,0.002 -0.159,-0.015 -0.301,-0.024 -0.422,-0.03 -0.12,-0.008 -0.272,0.011 -0.461,0.051 -0.188,0.039 -0.292,0.062 -0.314,0.068 -0.22,0.032 -0.416,0.048 -0.59,0.046 -0.176,-0.005 -0.354,-0.007 -0.543,-0.01 -0.046,-0.096 -0.092,-0.137 -0.139,-0.124 -0.095,0.056 -0.19,0.098 -0.293,0.126 -0.093,0.028 -0.193,0.043 -0.304,0.049 -0.107,0.004 -0.245,-0.019 -0.411,-0.061 -0.125,-0.021 -0.271,-0.033 -0.436,-0.034 -0.166,-0.001 -0.396,0.022 -0.696,0.07 -0.066,0.003 -0.146,-0.021 -0.242,-0.066 -0.096,-0.048 -0.167,-0.066 -0.216,-0.062 -0.13,-0.012 -0.328,0.001 -0.592,0.039 -0.264,0.037 -0.426,0.056 -0.483,0.057 -0.197,-0.008 -0.391,-0.018 -0.579,-0.028 -0.019,-0.003 -0.079,0.017 -0.182,0.057 -0.104,0.039 -0.17,0.059 -0.204,0.061 -0.399,0.021 -0.624,0.029 -0.67,0.031 -0.046,10e-4 -0.177,-0.004 -0.393,-0.016 -0.278,0 -0.562,0 -0.85,0.003 -0.1,-0.021 -0.183,-0.143 -0.248,-0.357 0.01,-0.035 0.012,-0.073 0.018,-0.113 0,-0.039 0,-0.086 -0.018,-0.141 -0.035,-0.116 -0.076,-0.195 -0.122,-0.236 -0.046,-0.041 -0.064,-0.074 -0.058,-0.104 0.041,-0.004 0.079,-0.037 0.11,-0.097 0.032,-0.062 0.073,-0.097 0.122,-0.103 0.099,-0.013 0.218,-0.01 0.358,0.006 0.411,0.045 0.666,0.066 0.769,0.062 0.101,-0.005 0.207,-0.003 0.319,0.005 0.358,0.036 0.557,0.052 0.594,0.049 0.037,-0.003 0.096,-0.016 0.173,-0.04 0.125,-0.038 0.215,-0.062 0.269,-0.081 0.022,-0.007 0.048,-0.014 0.07,-0.021 0.034,0.006 0.069,0.007 0.104,0.005 0.032,-0.002 0.151,0.011 0.354,0.039 0.125,0.02 0.214,0.025 0.268,0.021 0.055,-0.004 0.102,-0.013 0.14,-0.022 0.108,-0.033 0.177,-0.048 0.202,-0.048 l 0.896,0.061 0.602,0.009 c 0.117,-10e-4 0.206,-0.007 0.263,-0.016 0.243,-0.006 0.409,-0.02 0.498,-0.036 0.115,-0.009 0.236,-0.01 0.362,-0.001 0.126,0.009 0.244,0.017 0.356,0.025 l 0.646,-0.007 c 0.118,-0.025 0.238,-0.051 0.359,-0.068 0.111,0.008 0.255,0.016 0.427,0.021 0.021,0.003 0.209,0.005 0.574,0.005 0.094,0.031 0.188,0.062 0.283,0.095 0.018,0.003 0.07,-0.015 0.161,-0.05 0.093,-0.036 0.154,-0.056 0.188,-0.058 0.096,-0.021 0.187,-0.039 0.271,-0.056 0.084,-0.019 0.198,-0.031 0.345,-0.041 0.146,-0.01 0.254,-0.017 0.326,-0.018 0.071,0 0.163,0.033 0.276,0.103 0.01,0.015 0.01,0.055 0,0.119 0,0.062 0.015,0.146 0.043,0.248 0.021,0.062 0.047,0.106 0.082,0.14 0.037,0.031 0.08,0.064 0.136,0.1 0.028,0.102 0.053,0.18 0.067,0.232 0.021,0.07 0.01,0.112 -0.037,0.126 -0.048,0.022 -0.147,0.005 -0.288,-0.045 z"
   id="path1240"
   inkscape:connector-curvature="0" />
	<path
   d="m 1009.659,510.34 c -0.087,0.031 -0.149,0.05 -0.189,0.05 -0.065,0 -0.117,-0.004 -0.149,-0.01 -0.101,-0.027 -0.186,-0.051 -0.255,-0.066 -0.07,-0.016 -0.134,-0.041 -0.19,-0.074 -0.057,-0.034 -0.118,-0.084 -0.185,-0.149 -0.01,-0.009 -0.032,-0.021 -0.075,-0.04 -0.043,-0.021 -0.064,-0.059 -0.064,-0.11 -0.086,-0.161 -0.131,-0.325 -0.131,-0.493 0,-0.04 0.01,-0.094 0.021,-0.16 0.033,-0.188 0.117,-0.353 0.25,-0.493 0.021,0.009 0.043,0.014 0.065,0.017 0.022,0.004 0.042,-0.035 0.055,-0.115 0.105,-0.087 0.221,-0.145 0.341,-0.171 0.054,0 0.095,0 0.121,0 0.116,0 0.241,0.021 0.378,0.06 0.021,-0.006 0.048,0.01 0.081,0.041 0.055,0.021 0.097,0.039 0.128,0.062 0.03,0.021 0.079,0.06 0.147,0.12 0.088,0.1 0.135,0.151 0.144,0.16 0.032,0.06 0.054,0.1 0.062,0.117 -0.021,0.021 -0.03,0.041 -0.03,0.062 0,0.02 0.018,0.029 0.052,0.029 0.032,0.021 0.05,0.051 0.05,0.091 0,0.054 0,0.087 0,0.101 0,0.061 -0.013,0.117 -0.035,0.174 -0.022,0.059 -0.049,0.119 -0.073,0.188 -0.01,0.053 -0.017,0.104 -0.024,0.16 -0.011,0.053 -0.028,0.1 -0.056,0.14 l -0.102,0.07 c -0.106,0.087 -0.217,0.17 -0.337,0.239 z"
   id="path1242"
   inkscape:connector-curvature="0" />
	<path
   d="m 1009.635,502.673 c -0.087,0.031 -0.149,0.05 -0.189,0.05 -0.066,0 -0.117,-0.003 -0.15,-0.01 -0.1,-0.027 -0.185,-0.051 -0.255,-0.065 -0.069,-0.017 -0.134,-0.042 -0.189,-0.076 -0.058,-0.033 -0.117,-0.083 -0.186,-0.148 -0.01,-0.009 -0.031,-0.021 -0.074,-0.041 -0.044,-0.021 -0.064,-0.059 -0.064,-0.11 -0.087,-0.161 -0.131,-0.325 -0.131,-0.493 0,-0.041 0.01,-0.094 0.021,-0.161 0.033,-0.188 0.116,-0.352 0.25,-0.493 0.021,0.009 0.042,0.014 0.065,0.017 0.022,0.003 0.042,-0.035 0.055,-0.115 0.106,-0.087 0.221,-0.145 0.34,-0.171 0.055,0 0.096,0 0.122,0 0.115,0 0.241,0.02 0.377,0.06 0.021,-0.006 0.049,0.009 0.081,0.04 0.056,0.021 0.099,0.04 0.128,0.062 0.03,0.02 0.079,0.06 0.147,0.12 0.088,0.1 0.136,0.151 0.143,0.16 0.034,0.06 0.056,0.1 0.062,0.118 -0.021,0.021 -0.03,0.04 -0.03,0.062 0,0.02 0.018,0.03 0.051,0.03 0.033,0.02 0.051,0.05 0.051,0.09 0,0.053 0,0.086 0,0.1 0,0.062 -0.013,0.118 -0.035,0.175 -0.022,0.059 -0.048,0.118 -0.074,0.187 -0.01,0.053 -0.016,0.104 -0.025,0.16 -0.01,0.053 -0.026,0.1 -0.055,0.14 l -0.101,0.07 c -0.105,0.09 -0.215,0.173 -0.335,0.242 z"
   id="path1244"
   inkscape:connector-curvature="0" />
</g><g
     id="g1271"
     transform="matrix(1.7540789,0,0,1.7540789,-1500.4435,-537.25592)">
	<path
   id="path11422_1_"
   d="m 921.08,477.848 c -0.078,0.139 -0.155,0.145 -0.345,0.021 -0.077,-0.05 -0.143,-0.072 -0.143,-0.054 -10e-4,0.05 -0.294,0.348 -0.341,0.347 -0.062,-10e-4 -0.071,0.109 -0.093,1.278 -0.019,1.022 -0.012,1.147 0.059,1.299 0.043,0.093 0.091,0.197 0.106,0.233 0.017,0.036 0.023,0.493 0.019,1.016 -0.007,0.523 -10e-4,1.016 0.012,1.091 0.014,0.077 0.002,0.182 -0.026,0.229 -0.036,0.067 -0.038,0.132 -10e-4,0.26 0.042,0.148 0.063,0.17 0.172,0.173 0.087,0.001 0.164,0.051 0.267,0.165 0.309,0.35 0.071,0.556 -0.467,0.403 -0.203,-0.056 -0.345,-0.068 -0.604,-0.047 -0.426,0.032 -0.624,0.021 -0.893,-0.047 -0.117,-0.031 -0.229,-0.051 -0.25,-0.045 -0.072,0.019 -0.193,-0.141 -0.191,-0.253 0.003,-0.198 0.124,-0.29 0.419,-0.324 0.146,-0.02 0.282,-0.045 0.3,-0.062 0.051,-0.048 0.052,-1.266 0.005,-2.727 -0.024,-0.728 -0.041,-1.579 -0.038,-1.896 0.004,-0.313 -0.008,-0.595 -0.023,-0.622 -0.018,-0.024 -0.071,-0.067 -0.119,-0.096 -0.052,-0.025 -0.101,-0.104 -0.113,-0.174 -0.021,-0.119 -0.032,-0.125 -0.301,-0.147 -0.32,-0.024 -0.431,-0.102 -0.387,-0.268 0.022,-0.083 0.069,-0.113 0.232,-0.147 0.11,-0.021 0.259,-0.041 0.329,-0.034 0.07,0.004 0.286,-0.023 0.479,-0.062 0.27,-0.05 0.493,-0.06 0.938,-0.038 0.531,0.026 0.602,0.04 0.793,0.146 0.188,0.104 0.274,0.185 0.271,0.245 0,0.013 -0.03,0.074 -0.066,0.137 l 0,0 z"
   inkscape:connector-curvature="0" />
	<g
   id="g1274">
		<g
   id="g1276">
			<path
   d="m 917.1,479.689 c -0.066,-0.088 -0.148,-0.354 -0.146,-0.486 0.002,-0.107 -0.025,-0.194 -0.203,-0.609 -0.146,-0.353 -0.687,-0.847 -1.021,-0.938 -0.071,-0.02 -0.243,-0.08 -0.38,-0.134 -0.165,-0.065 -0.302,-0.092 -0.411,-0.079 -0.111,0.013 -0.252,-0.015 -0.451,-0.093 -0.22,-0.085 -0.4,-0.119 -0.767,-0.145 l -0.479,-0.029 -0.218,0.13 c -0.118,0.071 -0.238,0.129 -0.265,0.128 -0.025,0 -0.254,0.203 -0.505,0.451 -0.252,0.248 -0.508,0.486 -0.566,0.533 -0.26,0.194 -0.453,0.626 -0.621,1.381 -0.08,0.359 -0.087,0.47 -0.058,0.871 0.06,0.777 0.157,1.171 0.438,1.771 0.204,0.437 0.478,0.849 0.562,0.853 0.093,0.002 0.437,0.287 0.603,0.505 0.343,0.444 0.916,0.707 1.328,0.601 0.094,-0.022 0.164,-0.023 0.178,-10e-4 0.04,0.065 0.309,0.049 0.458,-0.027 0.076,-0.04 0.332,-0.213 0.571,-0.385 0.235,-0.171 0.567,-0.398 0.738,-0.509 0.327,-0.208 0.791,-0.665 0.793,-0.781 10e-4,-0.038 0.053,-0.135 0.112,-0.215 0.259,-0.334 0.446,-0.896 0.505,-1.499 0.065,-0.693 0.017,-1.018 -0.195,-1.294 z m -1.188,1.486 c -0.131,1.077 -0.358,1.584 -0.976,2.167 -0.555,0.525 -0.808,0.625 -1.278,0.495 -0.438,-0.123 -0.521,-0.176 -0.724,-0.473 -0.269,-0.39 -0.55,-1.016 -0.546,-1.215 0,-0.038 -0.046,-0.221 -0.104,-0.406 -0.087,-0.282 -0.104,-0.414 -0.094,-0.83 0.005,-0.308 0.034,-0.59 0.079,-0.748 0.039,-0.139 0.092,-0.451 0.116,-0.694 0.025,-0.243 0.066,-0.516 0.093,-0.604 0.07,-0.248 0.393,-0.727 0.591,-0.881 0.352,-0.271 0.417,-0.296 0.801,-0.308 0.346,-0.012 0.367,-0.007 0.472,0.102 0.062,0.062 0.23,0.156 0.379,0.208 0.147,0.052 0.315,0.128 0.374,0.17 0.059,0.043 0.188,0.094 0.289,0.112 0.147,0.027 0.199,0.062 0.274,0.19 0.133,0.222 0.195,0.479 0.229,0.945 0.042,0.498 0.053,1.537 0.025,1.77 z"
   id="path1278"
   inkscape:connector-curvature="0" />
		</g>
	</g>
	<path
   id="path11400_1_"
   d="m 910.774,477.548 c -0.021,0.012 -0.031,0.166 -0.025,0.342 0.006,0.176 -0.008,0.354 -0.03,0.394 -0.021,0.042 -0.03,0.209 -0.02,0.373 0.02,0.249 0.008,0.326 -0.062,0.458 -0.047,0.086 -0.118,0.157 -0.156,0.156 -0.096,-0.001 -0.209,-0.139 -0.206,-0.251 0,-0.05 -0.021,-0.227 -0.046,-0.391 -0.036,-0.24 -0.061,-0.302 -0.122,-0.303 -0.041,-0.001 -0.174,-0.042 -0.297,-0.091 -0.157,-0.062 -0.397,-0.104 -0.838,-0.141 -0.339,-0.028 -0.767,-0.083 -0.949,-0.123 -0.477,-0.104 -0.615,-0.098 -0.661,0.019 -0.067,0.169 -0.197,1.313 -0.208,1.837 -0.034,1.601 -0.031,3.55 0.006,3.66 0.033,0.105 0.069,0.134 0.208,0.159 0.249,0.045 0.702,0.18 0.828,0.247 0.134,0.071 0.187,0.272 0.087,0.345 -0.036,0.027 -0.089,0.04 -0.117,0.029 -0.027,-0.012 -0.203,0.01 -0.391,0.049 -0.268,0.055 -0.522,0.066 -1.193,0.055 l -0.854,-0.017 -0.177,-0.121 c -0.098,-0.064 -0.177,-0.141 -0.175,-0.164 0,-0.042 0.169,-0.418 0.188,-0.422 0.005,-10e-4 0.159,-0.016 0.342,-0.031 0.184,-0.016 0.335,-0.037 0.341,-0.045 0.007,-0.008 0.003,-0.273 -0.005,-0.59 -0.013,-0.457 0.037,-2.836 0.08,-3.971 0.005,-0.112 -0.012,-0.31 -0.036,-0.438 -0.022,-0.128 -0.063,-0.337 -0.088,-0.464 -0.064,-0.34 -0.073,-0.346 -0.307,-0.249 -0.198,0.084 -0.291,0.077 -0.405,-0.03 -0.036,-0.03 -0.104,-0.093 -0.158,-0.134 -0.104,-0.084 -0.09,-0.242 0.022,-0.284 0.189,-0.067 0.988,-0.091 2.425,-0.067 1.219,0.019 1.718,0.011 2.037,-0.032 0.545,-0.073 0.561,-0.073 0.799,0.04 0.194,0.093 0.241,0.151 0.163,0.196 l 0,0 z"
   inkscape:connector-curvature="0" />
	<g
   id="g1281">
		<g
   id="g1283">
			<path
   d="m 904.055,479.579 c -0.046,-0.103 -0.085,-0.207 -0.085,-0.229 0.002,-0.124 -0.303,-0.671 -0.494,-0.894 -0.549,-0.629 -1.332,-0.982 -2.279,-1.03 -0.104,-0.004 -0.276,-0.045 -0.381,-0.088 -0.171,-0.07 -0.231,-0.074 -0.574,-0.034 -0.245,0.027 -0.518,0.097 -0.748,0.188 -0.422,0.165 -0.543,0.239 -0.839,0.508 -0.12,0.109 -0.268,0.209 -0.329,0.223 -0.086,0.018 -0.134,0.076 -0.207,0.247 -0.158,0.375 -0.229,0.781 -0.271,1.581 -0.032,0.613 -0.028,0.845 0.022,1.171 0.086,0.552 0.115,0.666 0.238,0.952 0.06,0.136 0.106,0.279 0.105,0.319 0.001,0.04 0.042,0.15 0.097,0.244 0.056,0.095 0.148,0.277 0.213,0.404 0.062,0.127 0.229,0.354 0.367,0.508 0.214,0.229 0.312,0.301 0.613,0.43 0.195,0.084 0.376,0.155 0.4,0.156 0.024,10e-4 0.155,0.062 0.293,0.132 0.367,0.19 0.537,0.205 0.917,0.08 0.177,-0.059 0.481,-0.129 0.677,-0.158 0.258,-0.038 0.416,-0.089 0.577,-0.188 0.313,-0.191 0.63,-0.452 0.7,-0.577 0.031,-0.059 0.135,-0.19 0.23,-0.293 0.094,-0.103 0.207,-0.254 0.251,-0.336 0.044,-0.082 0.112,-0.196 0.152,-0.254 0.04,-0.061 0.089,-0.172 0.105,-0.253 0.02,-0.082 0.103,-0.346 0.188,-0.584 0.084,-0.239 0.172,-0.562 0.194,-0.721 0.102,-0.682 0.067,-1.07 -0.132,-1.504 z m -0.996,2.688 c -0.126,0.317 -0.217,0.498 -0.295,0.585 -0.093,0.103 -1.225,0.922 -1.383,1.001 -0.148,0.073 -0.659,0.118 -0.862,0.076 -0.154,-0.032 -0.648,-0.351 -0.848,-0.544 -0.065,-0.063 -0.157,-0.192 -0.203,-0.285 -0.132,-0.271 -0.271,-0.84 -0.269,-1.094 0.001,-0.138 -0.042,-0.379 -0.103,-0.576 -0.096,-0.312 -0.104,-0.4 -0.091,-1.048 0.008,-0.39 0.036,-0.79 0.063,-0.895 0.079,-0.29 0.278,-0.744 0.389,-0.88 0.354,-0.442 0.444,-0.52 0.781,-0.667 0.055,-0.021 0.28,-0.051 0.5,-0.061 0.322,-0.017 0.438,-0.005 0.604,0.061 0.396,0.153 0.781,0.424 1.146,0.8 0.346,0.354 0.365,0.389 0.431,0.671 0.038,0.165 0.094,0.4 0.125,0.523 0.03,0.123 0.064,0.401 0.073,0.618 0.045,0.984 0.029,1.496 -0.058,1.715 z"
   id="path1285"
   inkscape:connector-curvature="0" />
		</g>
	</g>
	<path
   id="path11378_1_"
   d="m 897.481,484.104 c -0.037,0.029 -0.125,0.041 -0.202,0.028 -0.161,-0.026 -0.415,0.08 -0.418,0.176 -10e-4,0.067 -0.147,0.208 -0.214,0.207 -0.021,0 -0.075,-0.068 -0.123,-0.15 l -0.084,-0.148 -0.375,-0.014 c -0.865,-0.027 -0.92,-0.031 -0.935,-0.082 -0.01,-0.025 -0.062,-0.104 -0.118,-0.172 -0.259,-0.311 -0.177,-0.399 0.357,-0.391 l 0.401,0.007 -0.098,-0.183 c -0.177,-0.323 -0.218,-0.395 -0.271,-0.453 -0.029,-0.032 -0.054,-0.078 -0.052,-0.102 0,-0.021 -0.044,-0.111 -0.099,-0.199 -0.218,-0.359 -0.729,-1.331 -0.771,-1.473 -0.026,-0.081 -0.062,-0.168 -0.076,-0.19 -0.051,-0.068 -0.236,-0.688 -0.264,-0.864 -0.047,-0.329 -0.187,-0.977 -0.224,-1.052 -0.036,-0.071 -0.05,-0.066 -0.147,0.061 -0.146,0.189 -0.289,0.46 -0.424,0.816 -0.063,0.162 -0.167,0.428 -0.229,0.591 -0.172,0.438 -0.382,1.034 -0.384,1.084 0,0.025 -0.027,0.104 -0.062,0.178 -0.181,0.396 -0.421,1.487 -0.347,1.579 0.022,0.032 0.036,0.129 0.025,0.217 l -0.017,0.162 0.242,0.026 c 0.176,0.018 0.259,0.05 0.302,0.107 0.109,0.154 0.022,0.248 -0.326,0.358 -0.179,0.055 -0.355,0.127 -0.396,0.161 -0.062,0.052 -0.119,0.046 -0.44,-0.046 -0.2,-0.06 -0.425,-0.114 -0.493,-0.124 -0.069,-0.012 -0.206,-0.042 -0.301,-0.068 -0.146,-0.04 -0.201,-0.034 -0.404,0.057 -0.317,0.138 -0.348,0.145 -0.456,0.103 -0.066,-0.027 -0.096,-0.073 -0.094,-0.153 0.002,-0.062 0.017,-0.102 0.03,-0.086 0.017,0.019 0.059,0.002 0.098,-0.027 0.038,-0.033 0.229,-0.141 0.425,-0.238 0.766,-0.383 0.729,-0.351 0.938,-0.839 0.325,-0.756 0.521,-1.196 0.665,-1.487 0.584,-1.182 1.349,-2.883 1.351,-3.007 0,-0.021 0.048,-0.088 0.107,-0.155 0.061,-0.065 0.111,-0.167 0.111,-0.223 0,-0.056 0.042,-0.145 0.09,-0.193 0.049,-0.051 0.1,-0.134 0.115,-0.187 0.035,-0.137 0.199,-0.125 0.287,0.017 0.038,0.062 0.133,0.264 0.207,0.453 0.078,0.19 0.229,0.503 0.34,0.696 0.191,0.336 0.385,0.73 0.397,0.822 0.013,0.089 0.627,1.422 0.743,1.611 0.051,0.084 0.12,0.24 0.154,0.345 0.056,0.177 0.125,0.354 0.248,0.638 0.022,0.058 0.149,0.31 0.28,0.558 0.131,0.25 0.236,0.494 0.235,0.544 -0.002,0.12 0.062,0.166 0.316,0.23 0.267,0.066 0.495,0.244 0.396,0.307 -0.044,0.028 -0.048,0.042 -0.011,0.043 0.079,-0.001 0.074,0.061 -0.005,0.124 l 0,0 z"
   inkscape:connector-curvature="0" />
	<path
   id="path11376_1_"
   d="m 893.794,478.136 c -0.015,0.014 -0.018,0.051 -0.006,0.081 0.015,0.032 0.023,0.022 0.026,-0.025 0.003,-0.045 -0.005,-0.071 -0.02,-0.056 l 0,0 z"
   inkscape:connector-curvature="0" />
</g><g
     transform="translate(-964.50733,135.79671)"
     id="g4393">
	<path
   inkscape:connector-curvature="0"
   id="path4395"
   d="m 1014.22,505.804 c -0.088,0.043 -0.213,0.066 -0.371,0.073 -0.146,-0.009 -0.287,-0.013 -0.422,-0.014 -0.141,0.019 -0.291,0.019 -0.451,0.002 -0.159,-0.015 -0.301,-0.024 -0.422,-0.03 -0.12,-0.008 -0.272,0.011 -0.461,0.051 -0.188,0.039 -0.292,0.062 -0.314,0.068 -0.22,0.032 -0.416,0.048 -0.59,0.046 -0.176,-0.005 -0.354,-0.007 -0.543,-0.01 -0.046,-0.096 -0.092,-0.137 -0.139,-0.124 -0.095,0.056 -0.19,0.098 -0.293,0.126 -0.093,0.028 -0.193,0.043 -0.304,0.049 -0.107,0.004 -0.245,-0.019 -0.411,-0.061 -0.125,-0.021 -0.271,-0.033 -0.436,-0.034 -0.166,-0.001 -0.396,0.022 -0.696,0.07 -0.066,0.003 -0.146,-0.021 -0.242,-0.066 -0.096,-0.048 -0.167,-0.066 -0.216,-0.062 -0.13,-0.012 -0.328,0.001 -0.592,0.039 -0.264,0.037 -0.426,0.056 -0.483,0.057 -0.197,-0.008 -0.391,-0.018 -0.579,-0.028 -0.019,-0.003 -0.079,0.017 -0.182,0.057 -0.104,0.039 -0.17,0.059 -0.204,0.061 -0.399,0.021 -0.624,0.029 -0.67,0.031 -0.046,10e-4 -0.177,-0.004 -0.393,-0.016 -0.278,0 -0.562,0 -0.85,0.003 -0.1,-0.021 -0.183,-0.143 -0.248,-0.357 0.01,-0.035 0.012,-0.073 0.018,-0.113 0,-0.039 0,-0.086 -0.018,-0.141 -0.035,-0.116 -0.076,-0.195 -0.122,-0.236 -0.046,-0.041 -0.064,-0.074 -0.058,-0.104 0.041,-0.004 0.079,-0.037 0.11,-0.097 0.032,-0.062 0.073,-0.097 0.122,-0.103 0.099,-0.013 0.218,-0.01 0.358,0.006 0.411,0.045 0.666,0.066 0.769,0.062 0.101,-0.005 0.207,-0.003 0.319,0.005 0.358,0.036 0.557,0.052 0.594,0.049 0.037,-0.003 0.096,-0.016 0.173,-0.04 0.125,-0.038 0.215,-0.062 0.269,-0.081 0.022,-0.007 0.048,-0.014 0.07,-0.021 0.034,0.006 0.069,0.007 0.104,0.005 0.032,-0.002 0.151,0.011 0.354,0.039 0.125,0.02 0.214,0.025 0.268,0.021 0.055,-0.004 0.102,-0.013 0.14,-0.022 0.108,-0.033 0.177,-0.048 0.202,-0.048 l 0.896,0.061 0.602,0.009 c 0.117,-10e-4 0.206,-0.007 0.263,-0.016 0.243,-0.006 0.409,-0.02 0.498,-0.036 0.115,-0.009 0.236,-0.01 0.362,-0.001 0.126,0.009 0.244,0.017 0.356,0.025 l 0.646,-0.007 c 0.118,-0.025 0.238,-0.051 0.359,-0.068 0.111,0.008 0.255,0.016 0.427,0.021 0.021,0.003 0.209,0.005 0.574,0.005 0.094,0.031 0.188,0.062 0.283,0.095 0.018,0.003 0.07,-0.015 0.161,-0.05 0.093,-0.036 0.154,-0.056 0.188,-0.058 0.096,-0.021 0.187,-0.039 0.271,-0.056 0.084,-0.019 0.198,-0.031 0.345,-0.041 0.146,-0.01 0.254,-0.017 0.326,-0.018 0.071,0 0.163,0.033 0.276,0.103 0.01,0.015 0.01,0.055 0,0.119 0,0.062 0.015,0.146 0.043,0.248 0.021,0.062 0.047,0.106 0.082,0.14 0.037,0.031 0.08,0.064 0.136,0.1 0.028,0.102 0.053,0.18 0.067,0.232 0.021,0.07 0.01,0.112 -0.037,0.126 -0.048,0.022 -0.147,0.005 -0.288,-0.045 z" />
	<path
   inkscape:connector-curvature="0"
   id="path4397"
   d="m 1009.659,510.34 c -0.087,0.031 -0.149,0.05 -0.189,0.05 -0.065,0 -0.117,-0.004 -0.149,-0.01 -0.101,-0.027 -0.186,-0.051 -0.255,-0.066 -0.07,-0.016 -0.134,-0.041 -0.19,-0.074 -0.057,-0.034 -0.118,-0.084 -0.185,-0.149 -0.01,-0.009 -0.032,-0.021 -0.075,-0.04 -0.043,-0.021 -0.064,-0.059 -0.064,-0.11 -0.086,-0.161 -0.131,-0.325 -0.131,-0.493 0,-0.04 0.01,-0.094 0.021,-0.16 0.033,-0.188 0.117,-0.353 0.25,-0.493 0.021,0.009 0.043,0.014 0.065,0.017 0.022,0.004 0.042,-0.035 0.055,-0.115 0.105,-0.087 0.221,-0.145 0.341,-0.171 0.054,0 0.095,0 0.121,0 0.116,0 0.241,0.021 0.378,0.06 0.021,-0.006 0.048,0.01 0.081,0.041 0.055,0.021 0.097,0.039 0.128,0.062 0.03,0.021 0.079,0.06 0.147,0.12 0.088,0.1 0.135,0.151 0.144,0.16 0.032,0.06 0.054,0.1 0.062,0.117 -0.021,0.021 -0.03,0.041 -0.03,0.062 0,0.02 0.018,0.029 0.052,0.029 0.032,0.021 0.05,0.051 0.05,0.091 0,0.054 0,0.087 0,0.101 0,0.061 -0.013,0.117 -0.035,0.174 -0.022,0.059 -0.049,0.119 -0.073,0.188 -0.01,0.053 -0.017,0.104 -0.024,0.16 -0.011,0.053 -0.028,0.1 -0.056,0.14 l -0.102,0.07 c -0.106,0.087 -0.217,0.17 -0.337,0.239 z" />
	<path
   inkscape:connector-curvature="0"
   id="path4399"
   d="m 1009.635,502.673 c -0.087,0.031 -0.149,0.05 -0.189,0.05 -0.066,0 -0.117,-0.003 -0.15,-0.01 -0.1,-0.027 -0.185,-0.051 -0.255,-0.065 -0.069,-0.017 -0.134,-0.042 -0.189,-0.076 -0.058,-0.033 -0.117,-0.083 -0.186,-0.148 -0.01,-0.009 -0.031,-0.021 -0.074,-0.041 -0.044,-0.021 -0.064,-0.059 -0.064,-0.11 -0.087,-0.161 -0.131,-0.325 -0.131,-0.493 0,-0.041 0.01,-0.094 0.021,-0.161 0.033,-0.188 0.116,-0.352 0.25,-0.493 0.021,0.009 0.042,0.014 0.065,0.017 0.022,0.003 0.042,-0.035 0.055,-0.115 0.106,-0.087 0.221,-0.145 0.34,-0.171 0.055,0 0.096,0 0.122,0 0.115,0 0.241,0.02 0.377,0.06 0.021,-0.006 0.049,0.009 0.081,0.04 0.056,0.021 0.099,0.04 0.128,0.062 0.03,0.02 0.079,0.06 0.147,0.12 0.088,0.1 0.136,0.151 0.143,0.16 0.034,0.06 0.056,0.1 0.062,0.118 -0.021,0.021 -0.03,0.04 -0.03,0.062 0,0.02 0.018,0.03 0.051,0.03 0.033,0.02 0.051,0.05 0.051,0.09 0,0.053 0,0.086 0,0.1 0,0.062 -0.013,0.118 -0.035,0.175 -0.022,0.059 -0.048,0.118 -0.074,0.187 -0.01,0.053 -0.016,0.104 -0.025,0.16 -0.01,0.053 -0.026,0.1 -0.055,0.14 l -0.101,0.07 c -0.105,0.09 -0.215,0.173 -0.335,0.242 z" />
</g><g
     transform="translate(-784.44937,135.36171)"
     id="g4401">
	<path
   inkscape:connector-curvature="0"
   id="path4403"
   d="m 924.434,504.724 c 0.101,0.096 0.19,0.181 0.273,0.255 0.055,0.099 0.033,0.196 -0.061,0.294 -0.095,0.097 -0.191,0.173 -0.29,0.229 -0.071,0.037 -0.155,0.064 -0.252,0.08 -0.098,0.019 -0.18,0.03 -0.248,0.04 -0.017,0.036 -0.038,0.065 -0.062,0.09 -0.025,0.021 -0.052,0.042 -0.08,0.057 -0.093,0.051 -0.229,0.036 -0.41,-0.044 -0.182,-0.079 -0.372,-0.092 -0.571,-0.037 -0.21,-0.032 -0.365,-0.054 -0.462,-0.062 -0.315,-0.039 -0.497,-0.054 -0.545,-0.04 -0.049,0.014 -0.103,0.017 -0.16,0.012 -0.059,-0.005 -0.103,-0.006 -0.133,-0.003 -0.031,0.003 -0.103,0.026 -0.215,0.075 -0.11,0.048 -0.183,0.072 -0.21,0.078 -0.028,0.009 -0.082,-10e-4 -0.157,-0.021 -0.077,-0.022 -0.118,-0.031 -0.125,-0.027 -0.429,0.061 -0.659,0.09 -0.696,0.091 -0.126,0.007 -0.22,-0.018 -0.283,-0.062 l -0.1,0.095 c -0.031,-0.057 -0.094,-0.086 -0.188,-0.09 -0.291,0.021 -0.555,0.032 -0.792,0.033 -0.237,0.002 -0.462,0.005 -0.674,0.011 -0.212,0.006 -0.343,0.021 -0.393,0.049 -0.031,-0.057 -0.125,-0.097 -0.285,-0.12 -0.159,-0.021 -0.265,-0.057 -0.315,-0.102 -0.208,-0.18 -0.404,-0.22 -0.587,-0.119 -0.017,0.035 -0.029,0.062 -0.04,0.076 -0.052,0.073 -0.112,0.13 -0.183,0.168 -0.12,0.066 -0.252,0.06 -0.396,-0.018 -0.144,-0.078 -0.311,-0.065 -0.5,0.037 l -0.052,0.028 c -0.114,0.062 -0.269,0.077 -0.464,0.047 -0.194,-0.03 -0.331,-0.117 -0.407,-0.259 -0.047,-0.085 -0.053,-0.193 -0.021,-0.325 0.033,-0.133 0.099,-0.226 0.197,-0.277 0.07,-0.038 0.17,-0.059 0.3,-0.056 0.13,0.002 0.203,0.003 0.222,0.003 0.084,-0.046 0.169,-0.092 0.254,-0.139 0.062,0.013 0.175,0.011 0.341,-0.006 0.092,-0.017 0.188,-0.025 0.283,-0.032 0.029,0.003 0.111,0.023 0.248,0.064 0.138,0.04 0.256,0.062 0.361,0.068 0.256,0.018 0.444,0.021 0.565,0.007 0.058,-0.012 0.125,-0.021 0.207,-0.021 0.08,-0.004 0.186,0.02 0.312,0.069 0.128,0.049 0.206,0.073 0.234,0.075 0.104,0.01 0.175,-10e-4 0.212,-0.024 0.037,-0.024 0.073,-0.046 0.107,-0.065 0.098,-0.007 0.168,-0.001 0.216,0.021 0.048,0.02 0.096,0.029 0.142,0.031 0.048,0.004 0.076,-0.008 0.089,-0.026 0.012,-0.021 0.025,-0.03 0.045,-0.031 0.123,0.025 0.236,0.026 0.345,0.004 0.092,-0.032 0.189,-0.062 0.293,-0.091 l 1.251,0.004 1.033,-0.041 c 0.059,-0.014 0.216,-0.004 0.478,0.028 0.26,0.032 0.429,0.025 0.506,-0.018 0.034,-0.037 0.066,-0.066 0.1,-0.095 0.031,-0.026 0.051,-0.05 0.058,-0.072 l 0.481,-0.05 0.715,0.094 0.489,0.06 z" />
	<path
   inkscape:connector-curvature="0"
   id="path4405"
   d="m 918.891,500.73 c 0.095,-0.103 0.179,-0.194 0.25,-0.278 0.099,-0.056 0.195,-0.036 0.295,0.058 0.099,0.093 0.176,0.188 0.231,0.287 0.039,0.068 0.068,0.151 0.086,0.25 0.02,0.097 0.032,0.179 0.043,0.245 0.037,0.018 0.066,0.036 0.089,0.062 0.022,0.024 0.043,0.051 0.059,0.078 0.053,0.092 0.04,0.229 -0.036,0.411 -0.077,0.183 -0.086,0.373 -0.027,0.571 -0.029,0.212 -0.049,0.365 -0.058,0.465 -0.033,0.313 -0.043,0.498 -0.03,0.546 0.015,0.048 0.019,0.102 0.015,0.157 -0.004,0.061 -0.004,0.104 -10e-4,0.135 0.003,0.028 0.03,0.102 0.079,0.213 0.049,0.108 0.078,0.181 0.084,0.209 0.007,0.029 0,0.082 -0.021,0.158 -0.021,0.075 -0.03,0.117 -0.025,0.126 0.065,0.427 0.1,0.655 0.103,0.692 0.007,0.126 -0.015,0.223 -0.062,0.284 l 0.097,0.098 c -0.057,0.032 -0.085,0.097 -0.087,0.188 0.024,0.291 0.041,0.554 0.047,0.791 0.005,0.237 0.012,0.462 0.021,0.673 0.01,0.212 0.028,0.343 0.056,0.392 -0.057,0.032 -0.095,0.129 -0.114,0.286 -0.021,0.16 -0.054,0.268 -0.097,0.318 -0.178,0.21 -0.214,0.407 -0.109,0.589 0.036,0.016 0.062,0.028 0.077,0.039 0.073,0.05 0.132,0.11 0.171,0.179 0.067,0.12 0.062,0.252 -0.013,0.396 -0.075,0.144 -0.061,0.311 0.048,0.5 l 0.028,0.052 c 0.063,0.112 0.081,0.266 0.054,0.462 -0.027,0.195 -0.111,0.333 -0.25,0.412 -0.084,0.047 -0.192,0.056 -0.325,0.025 -0.134,-0.032 -0.228,-0.098 -0.283,-0.194 -0.04,-0.069 -0.058,-0.169 -0.058,-0.298 0,-0.13 0,-0.204 0,-0.222 -0.049,-0.085 -0.097,-0.171 -0.145,-0.254 0.012,-0.062 0.008,-0.175 -0.012,-0.34 -0.017,-0.092 -0.028,-0.187 -0.037,-0.281 0.002,-0.029 0.021,-0.112 0.061,-0.249 0.038,-0.14 0.06,-0.26 0.063,-0.362 0.012,-0.256 0.012,-0.445 -10e-4,-0.567 -0.014,-0.056 -0.022,-0.124 -0.025,-0.205 -0.006,-0.081 0.017,-0.186 0.063,-0.312 0.047,-0.128 0.071,-0.207 0.073,-0.235 0.006,-0.104 -0.004,-0.175 -0.029,-0.211 -0.024,-0.037 -0.047,-0.073 -0.067,-0.105 -0.009,-0.1 -0.004,-0.169 0.017,-0.219 0.021,-0.048 0.029,-0.096 0.031,-0.143 0.002,-0.047 -0.009,-0.075 -0.028,-0.087 -0.021,-0.012 -0.031,-0.025 -0.032,-0.045 0.022,-0.123 0.021,-0.238 -10e-4,-0.347 -0.034,-0.092 -0.064,-0.188 -0.097,-0.292 l -0.018,-1.251 -0.058,-1.031 c -0.016,-0.06 -0.009,-0.218 0.021,-0.479 0.027,-0.26 0.021,-0.428 -0.022,-0.506 -0.038,-0.033 -0.069,-0.064 -0.098,-0.098 -0.025,-0.03 -0.052,-0.049 -0.072,-0.057 l -0.059,-0.479 0.082,-0.717 0.053,-0.483 z" />
</g><g
     id="g5657"
     style="fill:none;stroke:#000000;stroke-width:0.1"
     transform="matrix(3.5433072,0,0,3.5433072,0.17712401,281.66521)"><g
       id="module"
       inkscape:label="#g5762"
       style="stroke-width:0.1"><rect
         style="stroke-width:0.1"
         x="0"
         y="0"
         width="50.5"
         height="128.5"
         id="rect5659" /><circle
         style="stroke-width:0.1"
         d="M 9.1,3 C 9.1,3.8836556 8.3836556,4.6 7.5,4.6 6.6163444,4.6 5.9,3.8836556 5.9,3 5.9,2.1163444 6.6163444,1.4 7.5,1.4 8.3836556,1.4 9.1,2.1163444 9.1,3 z"
         sodipodi:ry="1.6"
         sodipodi:rx="1.6"
         sodipodi:cy="3"
         sodipodi:cx="7.5"
         cx="7.5"
         cy="3"
         r="1.6"
         id="circle5661" /><circle
         style="stroke-width:0.1"
         d="m 9.1,125.5 c 0,0.88366 -0.7163444,1.6 -1.6,1.6 -0.8836556,0 -1.6,-0.71634 -1.6,-1.6 0,-0.88366 0.7163444,-1.6 1.6,-1.6 0.8836556,0 1.6,0.71634 1.6,1.6 z"
         sodipodi:ry="1.6"
         sodipodi:rx="1.6"
         sodipodi:cy="125.5"
         sodipodi:cx="7.5"
         cx="7.5"
         cy="125.5"
         r="1.6"
         id="circle5663" /><circle
         style="stroke-width:0.1"
         d="m 44.660001,3 c 0,0.8836556 -0.716344,1.6 -1.6,1.6 -0.883655,0 -1.6,-0.7163444 -1.6,-1.6 0,-0.8836556 0.716345,-1.6 1.6,-1.6 0.883656,0 1.6,0.7163444 1.6,1.6 z"
         sodipodi:ry="1.6"
         sodipodi:rx="1.6"
         sodipodi:cy="3"
         sodipodi:cx="43.060001"
         cx="43.060001"
         cy="3"
         r="1.6"
         id="circle5665" /><circle
         style="stroke-width:0.1"
         d="m 44.660001,125.5 c 0,0.88366 -0.716344,1.6 -1.6,1.6 -0.883655,0 -1.6,-0.71634 -1.6,-1.6 0,-0.88366 0.716345,-1.6 1.6,-1.6 0.883656,0 1.6,0.71634 1.6,1.6 z"
         sodipodi:ry="1.6"
         sodipodi:rx="1.6"
         sodipodi:cy="125.5"
         sodipodi:cx="43.060001"
         cx="43.060001"
         cy="125.5"
         r="1.6"
         id="circle5667" /><circle
         style="stroke-width:0.1"
         d="m 17.05,45.200001 c 0,2.485281 -2.014718,4.5 -4.5,4.5 -2.485281,0 -4.4999998,-2.014719 -4.4999998,-4.5 0,-2.485282 2.0147188,-4.5 4.4999998,-4.5 2.485282,0 4.5,2.014718 4.5,4.5 z"
         sodipodi:ry="4.5"
         sodipodi:rx="4.5"
         sodipodi:cy="45.200001"
         sodipodi:cx="12.55"
         cx="12.55"
         cy="45.200001"
         r="4.5"
         id="circle5669" /><circle
         style="stroke-width:0.1"
         d="m 42.450001,45.200001 c 0,2.485281 -2.014719,4.5 -4.5,4.5 -2.485282,0 -4.5,-2.014719 -4.5,-4.5 0,-2.485282 2.014718,-4.5 4.5,-4.5 2.485281,0 4.5,2.014718 4.5,4.5 z"
         sodipodi:ry="4.5"
         sodipodi:rx="4.5"
         sodipodi:cy="45.200001"
         sodipodi:cx="37.950001"
         cx="37.950001"
         cy="45.200001"
         r="4.5"
         id="circle5671" /><circle
         style="stroke-width:0.1"
         d="m 17.05,26.15 c 0,2.485281 -2.014718,4.5 -4.5,4.5 -2.485281,0 -4.4999998,-2.014719 -4.4999998,-4.5 0,-2.485282 2.0147188,-4.5 4.4999998,-4.5 2.485282,0 4.5,2.014718 4.5,4.5 z"
         sodipodi:ry="4.5"
         sodipodi:rx="4.5"
         sodipodi:cy="26.15"
         sodipodi:cx="12.55"
         cx="12.55"
         cy="26.15"
         r="4.5"
         id="circle5673" /><circle
         style="stroke-width:0.1"
         d="m 42.450001,26.15 c 0,2.485281 -2.014719,4.5 -4.5,4.5 -2.485282,0 -4.5,-2.014719 -4.5,-4.5 0,-2.485282 2.014718,-4.5 4.5,-4.5 2.485281,0 4.5,2.014718 4.5,4.5 z"
         sodipodi:ry="4.5"
         sodipodi:rx="4.5"
         sodipodi:cy="26.15"
         sodipodi:cx="37.950001"
         cx="37.950001"
         cy="26.15"
         r="4.5"
         id="circle5675" /><circle
         style="stroke-width:0.1"
         d="m 26.75,57.900002 c 0,0.828427 -0.671573,1.5 -1.5,1.5 -0.828427,0 -1.5,-0.671573 -1.5,-1.5 0,-0.828428 0.671573,-1.5 1.5,-1.5 0.828427,0 1.5,0.671572 1.5,1.5 z"
         sodipodi:ry="1.5"
         sodipodi:rx="1.5"
         sodipodi:cy="57.900002"
         sodipodi:cx="25.25"
         cx="25.25"
         cy="57.900002"
         r="1.5"
         id="circle5677" /><circle
         style="stroke-width:0.1"
         d="m 14.05,70.599998 c 0,0.828428 -0.671573,1.5 -1.5,1.5 -0.828427,0 -1.5,-0.671572 -1.5,-1.5 0,-0.828427 0.671573,-1.5 1.5,-1.5 0.828427,0 1.5,0.671573 1.5,1.5 z"
         sodipodi:ry="1.5"
         sodipodi:rx="1.5"
         sodipodi:cy="70.599998"
         sodipodi:cx="12.55"
         cx="12.55"
         cy="70.599998"
         r="1.5"
         id="circle5679" /><circle
         style="stroke-width:0.1"
         d="m 39.450001,70.599998 c 0,0.828428 -0.671573,1.5 -1.5,1.5 -0.828427,0 -1.5,-0.671572 -1.5,-1.5 0,-0.828427 0.671573,-1.5 1.5,-1.5 0.828427,0 1.5,0.671573 1.5,1.5 z"
         sodipodi:ry="1.5"
         sodipodi:rx="1.5"
         sodipodi:cy="70.599998"
         sodipodi:cx="37.950001"
         cx="37.950001"
         cy="70.599998"
         r="1.5"
         id="circle5681" /><circle
         style="stroke-width:0.1"
         d="m 28.25,70.599998 c 0,1.656855 -1.343146,3 -3,3 -1.656854,0 -3,-1.343145 -3,-3 0,-1.656854 1.343146,-3 3,-3 1.656854,0 3,1.343146 3,3 z"
         sodipodi:ry="3"
         sodipodi:rx="3"
         sodipodi:cy="70.599998"
         sodipodi:cx="25.25"
         cx="25.25"
         cy="70.599998"
         r="3"
         id="circle5683" /><circle
         style="stroke-width:0.1"
         d="m 15.55,83.300003 c 0,1.656854 -1.343146,3 -3,3 -1.656854,0 -2.9999998,-1.343146 -2.9999998,-3 0,-1.656854 1.3431458,-3 2.9999998,-3 1.656854,0 3,1.343146 3,3 z"
         sodipodi:ry="3"
         sodipodi:rx="3"
         sodipodi:cy="83.300003"
         sodipodi:cx="12.55"
         cx="12.55"
         cy="83.300003"
         r="3"
         id="circle5685" /><circle
         style="stroke-width:0.1"
         d="m 40.950001,83.300003 c 0,1.656854 -1.343146,3 -3,3 -1.656854,0 -3,-1.343146 -3,-3 0,-1.656854 1.343146,-3 3,-3 1.656854,0 3,1.343146 3,3 z"
         sodipodi:ry="3"
         sodipodi:rx="3"
         sodipodi:cy="83.300003"
         sodipodi:cx="37.950001"
         cx="37.950001"
         cy="83.300003"
         r="3"
         id="circle5687" /><circle
         style="stroke-width:0.1"
         d="m 15.55,96 c 0,1.656854 -1.343146,3 -3,3 -1.656854,0 -2.9999998,-1.343146 -2.9999998,-3 0,-1.656854 1.3431458,-3 2.9999998,-3 1.656854,0 3,1.343146 3,3 z"
         sodipodi:ry="3"
         sodipodi:rx="3"
         sodipodi:cy="96"
         sodipodi:cx="12.55"
         cx="12.55"
         cy="96"
         r="3"
         id="circle5689" /><circle
         style="stroke-width:0.1"
         d="m 28.25,96 c 0,1.656854 -1.343146,3 -3,3 -1.656854,0 -3,-1.343146 -3,-3 0,-1.656854 1.343146,-3 3,-3 1.656854,0 3,1.343146 3,3 z"
         sodipodi:ry="3"
         sodipodi:rx="3"
         sodipodi:cy="96"
         sodipodi:cx="25.25"
         cx="25.25"
         cy="96"
         r="3"
         id="circle5691" /><circle
         style="stroke-width:0.1"
         d="m 40.950001,96 c 0,1.656854 -1.343146,3 -3,3 -1.656854,0 -3,-1.343146 -3,-3 0,-1.656854 1.343146,-3 3,-3 1.656854,0 3,1.343146 3,3 z"
         sodipodi:ry="3"
         sodipodi:rx="3"
         sodipodi:cy="96"
         sodipodi:cx="37.950001"
         cx="37.950001"
         cy="96"
         r="3"
         id="circle5693" /><circle
         style="stroke-width:0.1"
         d="m 15.55,108.7 c 0,1.65685 -1.343146,3 -3,3 -1.656854,0 -2.9999998,-1.34315 -2.9999998,-3 0,-1.65686 1.3431458,-3 2.9999998,-3 1.656854,0 3,1.34314 3,3 z"
         sodipodi:ry="3"
         sodipodi:rx="3"
         sodipodi:cy="108.7"
         sodipodi:cx="12.55"
         cx="12.55"
         cy="108.7"
         r="3"
         id="circle5695" /><circle
         style="stroke-width:0.1"
         d="m 28.25,108.7 c 0,1.65685 -1.343146,3 -3,3 -1.656854,0 -3,-1.34315 -3,-3 0,-1.65686 1.343146,-3 3,-3 1.656854,0 3,1.34314 3,3 z"
         sodipodi:ry="3"
         sodipodi:rx="3"
         sodipodi:cy="108.7"
         sodipodi:cx="25.25"
         cx="25.25"
         cy="108.7"
         r="3"
         id="circle5697" /><circle
         style="stroke-width:0.1"
         d="m 40.950001,108.7 c 0,1.65685 -1.343146,3 -3,3 -1.656854,0 -3,-1.34315 -3,-3 0,-1.65686 1.343146,-3 3,-3 1.656854,0 3,1.34314 3,3 z"
         sodipodi:ry="3"
         sodipodi:rx="3"
         sodipodi:cy="108.7"
         sodipodi:cx="37.950001"
         cx="37.950001"
         cy="108.7"
         r="3"
         id="circle5699" /></g></g><polyline
     transform="matrix(-0.78232519,-0.62287021,-0.62287021,0.78232519,1259.2,595.16679)"
     id="polyline12243"
     points="899.681,642.148 890.434,656.964 899.845,659.61 " /><polyline
     transform="translate(-829.46773,-216.65081)"
     id="polyline12245"
     points="976.452,827.664 985.061,812.472 991.879,819.478 " /><polyline
     transform="translate(-920.54933,-216.77637)"
     id="polyline12247"
     points="952.886,827.664 944.276,812.472 937.46,819.478 " /><g
     transform="translate(129.5434,-519.61087)"
     id="g12249"><line
       style="fill:none;stroke:#030303;stroke-width:1;stroke-miterlimit:4;stroke-dasharray:none"
       id="line12251"
       y2="1164.179"
       x2="-45.483688"
       y1="1156.1982"
       x1="-45.483688" /><path
       style="fill:none;stroke:#030303;stroke-width:0.68556148"
       inkscape:connector-curvature="0"
       id="path12253"
       d="M -45.404197,1160.1512" /><line
       style="fill:none;stroke:#030303;stroke-width:1;stroke-miterlimit:4;stroke-dasharray:none"
       id="line12255"
       y2="1160.1512"
       x2="-41.735779"
       y1="1160.1512"
       x1="-33.28978" /><polygon
       style="fill:#030303"
       id="polygon12257"
       points="1155.104,613.322 1147.078,610.646 1147.021,616.055 "
       transform="matrix(-0.68556145,0,0,0.68556145,746.49469,739.69709)" /></g><path
     style="fill:none;stroke:#000000;stroke-width:1px;stroke-linecap:butt;stroke-linejoin:miter;stroke-opacity:1"
     d="m 39.67143,689.32019 3.5984,0 0,-6 2.8539,0 0,6 2.85391,0"
     id="path12259"
     inkscape:connector-curvature="0"
     sodipodi:nodetypes="cccccc" /><path
     sodipodi:nodetypes="cccccc"
     inkscape:connector-curvature="0"
     id="path12261"
     d="m 129.7144,689.32019 3.5984,0 0,-6 2.8539,0 0,6 2.85391,0"
     style="fill:none;stroke:#000000;stroke-width:1px;stroke-linecap:butt;stroke-linejoin:miter;stroke-opacity:1" /><g
     transform="matrix(1.218549,0,0,1.218549,-1314.151,-290.28816)"
     id="g12372">
	<path
   style="fill:none;stroke:#030303;stroke-width:0.41032407"
   inkscape:connector-curvature="0"
   id="path12374"
   d="m 1176.438,568.025 c -7.882,-4.429 -13.207,-12.868 -13.207,-22.551 0,-14.275 11.573,-25.849 25.85,-25.849 14.273,0 25.847,11.572 25.847,25.849 0,9.689 -5.332,18.137 -13.225,22.562" />
	<line
   style="fill:none;stroke:#030303;stroke-width:0.61548615"
   id="line12376"
   y2="520.51001"
   x2="1182.369"
   y1="518.09998"
   x1="1181.724" />
	<line
   style="fill:none;stroke:#030303;stroke-width:0.82064813"
   id="line12378"
   y2="523.09601"
   x2="1176.1379"
   y1="518.89899"
   x1="1173.714" />
	<line
   style="fill:none;stroke:#030303;stroke-width:0.61548615"
   id="line12380"
   y2="527.20599"
   x2="1170.7841"
   y1="525.44202"
   x1="1169.021" />
	<line
   style="fill:none;stroke:#030303;stroke-width:0.82064813"
   id="line12382"
   y2="532.56097"
   x2="1166.6801"
   y1="530.164"
   x1="1162.5291" />
	<line
   style="fill:none;stroke:#030303;stroke-width:0.61548615"
   id="line12384"
   y2="538.79797"
   x2="1164.103"
   y1="538.15002"
   x1="1161.6899" />
	<line
   style="fill:none;stroke:#030303;stroke-width:0.82064813"
   id="line12386"
   y2="545.487"
   x2="1163.224"
   y1="545.487"
   x1="1158.4091" />
	<line
   style="fill:none;stroke:#030303;stroke-width:0.61548615"
   id="line12388"
   y2="552.177"
   x2="1164.1071"
   y1="552.82202"
   x1="1161.696" />
	<line
   style="fill:none;stroke:#030303;stroke-width:0.82064813"
   id="line12390"
   y2="558.409"
   x2="1166.691"
   y1="560.81598"
   x1="1162.522" />
	<line
   style="fill:none;stroke:#030303;stroke-width:0.61548615"
   id="line12392"
   y2="563.76099"
   x2="1170.803"
   y1="565.52502"
   x1="1169.038" />
	<line
   style="fill:none;stroke:#030303;stroke-width:0.82064813"
   id="line12394"
   y2="567.86603"
   x2="1176.156"
   y1="571.89502"
   x1="1173.83" />
	<line
   style="fill:none;stroke:#030303;stroke-width:0.82064813"
   id="line12396"
   y2="567.85303"
   x2="1202.006"
   y1="571.92499"
   x1="1204.354" />
	<line
   style="fill:none;stroke:#030303;stroke-width:0.61548615"
   id="line12398"
   y2="563.74402"
   x2="1207.3571"
   y1="565.508"
   x1="1209.12" />
	<line
   style="fill:none;stroke:#030303;stroke-width:0.82064813"
   id="line12400"
   y2="558.38702"
   x2="1211.462"
   y1="560.73999"
   x1="1215.535" />
	<line
   style="fill:none;stroke:#030303;stroke-width:0.61548615"
   id="line12402"
   y2="552.15198"
   x2="1214.041"
   y1="552.79999"
   x1="1216.449" />
	<line
   style="fill:none;stroke:#030303;stroke-width:0.82064813"
   id="line12404"
   y2="545.46301"
   x2="1214.918"
   y1="545.46301"
   x1="1219.578" />
	<line
   style="fill:none;stroke:#030303;stroke-width:0.61548615"
   id="line12406"
   y2="538.77301"
   x2="1214.033"
   y1="538.12598"
   x1="1216.443" />
	<line
   style="fill:none;stroke:#030303;stroke-width:0.82064813"
   id="line12408"
   y2="532.539"
   x2="1211.45"
   y1="530.198"
   x1="1215.506" />
	<line
   style="fill:none;stroke:#030303;stroke-width:0.61548615"
   id="line12410"
   y2="527.18799"
   x2="1207.3409"
   y1="525.42603"
   x1="1209.104" />
	<line
   style="fill:none;stroke:#030303;stroke-width:0.82064813"
   id="line12412"
   y2="523.08197"
   x2="1201.985"
   y1="518.88898"
   x1="1204.407" />
	<line
   style="fill:none;stroke:#030303;stroke-width:0.61548615"
   id="line12414"
   y2="520.505"
   x2="1195.748"
   y1="518.09497"
   x1="1196.396" />
	<line
   style="fill:none;stroke:#030303;stroke-width:0.82064813"
   id="line12416"
   y2="519.62598"
   x2="1189.059"
   y1="514.85303"
   x1="1189.059" />
	<circle
   d="m 1215.014,545.40198 c 0,14.27711 -11.5739,25.851 -25.851,25.851 -14.2771,0 -25.851,-11.57389 -25.851,-25.851 0,-14.27712 11.5739,-25.851 25.851,-25.851 14.2771,0 25.851,11.57388 25.851,25.851 z"
   style="fill:none"
   sodipodi:ry="25.851"
   sodipodi:rx="25.851"
   sodipodi:cy="545.40198"
   sodipodi:cx="1189.163"
   id="circle12418"
   r="25.851"
   cy="545.40198"
   cx="1189.163" />
</g><g
     transform="matrix(1.2185466,0,0,1.2185466,-1293.7344,-290.50156)"
     id="g12420">
	<path
   style="fill:none;stroke:#030303;stroke-width:0.41032487"
   inkscape:connector-curvature="0"
   id="path12422"
   d="m 1085.827,568.204 c -7.882,-4.429 -13.207,-12.866 -13.207,-22.551 0,-14.275 11.573,-25.848 25.85,-25.848 14.273,0 25.848,11.572 25.848,25.848 0,9.691 -5.333,18.137 -13.226,22.562" />
	<line
   style="fill:none;stroke:#030303;stroke-width:0.61548734"
   id="line12424"
   y2="520.68799"
   x2="1091.7581"
   y1="518.27802"
   x1="1091.11" />
	<line
   style="fill:none;stroke:#030303;stroke-width:0.82064974"
   id="line12426"
   y2="523.27399"
   x2="1085.524"
   y1="519.07703"
   x1="1083.103" />
	<line
   style="fill:none;stroke:#030303;stroke-width:0.61548734"
   id="line12428"
   y2="527.38501"
   x2="1080.173"
   y1="525.62097"
   x1="1078.408" />
	<line
   style="fill:none;stroke:#030303;stroke-width:0.82064974"
   id="line12430"
   y2="532.73901"
   x2="1076.066"
   y1="530.34399"
   x1="1071.917" />
	<line
   style="fill:none;stroke:#030303;stroke-width:0.61548734"
   id="line12432"
   y2="538.974"
   x2="1073.488"
   y1="538.32898"
   x1="1071.078" />
	<line
   style="fill:none;stroke:#030303;stroke-width:0.82064974"
   id="line12434"
   y2="545.66498"
   x2="1072.61"
   y1="545.66498"
   x1="1067.798" />
	<line
   style="fill:none;stroke:#030303;stroke-width:0.61548734"
   id="line12436"
   y2="552.354"
   x2="1073.495"
   y1="553.00098"
   x1="1071.085" />
	<line
   style="fill:none;stroke:#030303;stroke-width:0.82064974"
   id="line12438"
   y2="558.58899"
   x2="1076.079"
   y1="560.99402"
   x1="1071.91" />
	<line
   style="fill:none;stroke:#030303;stroke-width:0.61548734"
   id="line12440"
   y2="563.93903"
   x2="1080.188"
   y1="565.703"
   x1="1078.427" />
	<line
   style="fill:none;stroke:#030303;stroke-width:0.82064974"
   id="line12442"
   y2="568.04602"
   x2="1085.545"
   y1="572.073"
   x1="1083.219" />
	<line
   style="fill:none;stroke:#030303;stroke-width:0.82064974"
   id="line12444"
   y2="568.03101"
   x2="1111.394"
   y1="572.10101"
   x1="1113.7419" />
	<line
   style="fill:none;stroke:#030303;stroke-width:0.61548734"
   id="line12446"
   y2="563.92401"
   x2="1116.745"
   y1="565.68402"
   x1="1118.509" />
	<line
   style="fill:none;stroke:#030303;stroke-width:0.82064974"
   id="line12448"
   y2="558.565"
   x2="1120.85"
   y1="560.91998"
   x1="1124.925" />
	<line
   style="fill:none;stroke:#030303;stroke-width:0.61548734"
   id="line12450"
   y2="552.33002"
   x2="1123.4301"
   y1="552.97601"
   x1="1125.838" />
	<line
   style="fill:none;stroke:#030303;stroke-width:0.82064974"
   id="line12452"
   y2="545.64001"
   x2="1124.307"
   y1="545.64001"
   x1="1128.967" />
	<line
   style="fill:none;stroke:#030303;stroke-width:0.61548734"
   id="line12454"
   y2="538.95099"
   x2="1123.422"
   y1="538.30402"
   x1="1125.8311" />
	<line
   style="fill:none;stroke:#030303;stroke-width:0.82064974"
   id="line12456"
   y2="532.71899"
   x2="1120.839"
   y1="530.37598"
   x1="1124.896" />
	<line
   style="fill:none;stroke:#030303;stroke-width:0.61548734"
   id="line12458"
   y2="527.36603"
   x2="1116.729"
   y1="525.60303"
   x1="1118.4919" />
	<line
   style="fill:none;stroke:#030303;stroke-width:0.82064974"
   id="line12460"
   y2="523.26001"
   x2="1111.373"
   y1="519.06702"
   x1="1113.796" />
	<line
   style="fill:none;stroke:#030303;stroke-width:0.61548734"
   id="line12462"
   y2="520.68201"
   x2="1105.137"
   y1="518.27301"
   x1="1105.782" />
	<line
   style="fill:none;stroke:#030303;stroke-width:0.82064974"
   id="line12464"
   y2="519.80402"
   x2="1098.4449"
   y1="515.03101"
   x1="1098.4449" />
	<circle
   d="m 1124.403,545.578 c 0,14.27712 -11.5739,25.851 -25.851,25.851 -14.2771,0 -25.851,-11.57388 -25.851,-25.851 0,-14.27711 11.5739,-25.851 25.851,-25.851 14.2771,0 25.851,11.57389 25.851,25.851 z"
   style="fill:none"
   sodipodi:ry="25.851"
   sodipodi:rx="25.851"
   sodipodi:cy="545.578"
   sodipodi:cx="1098.552"
   id="circle12466"
   r="25.851"
   cy="545.578"
   cx="1098.552" />
</g><g
     transform="matrix(1.2185466,0,0,1.2185466,-1203.8928,-388.44604)"
     id="g12468">
	<path
   style="fill:none;stroke:#030303;stroke-width:0.41032487"
   inkscape:connector-curvature="0"
   id="path12470"
   d="m 1085.957,703.975 c -7.882,-4.428 -13.206,-12.867 -13.206,-22.55 0,-14.275 11.572,-25.85 25.849,-25.85 14.273,0 25.848,11.573 25.848,25.85 0,9.689 -5.333,18.136 -13.226,22.56" />
	<line
   style="fill:none;stroke:#030303;stroke-width:0.61548734"
   id="line12472"
   y2="656.46198"
   x2="1091.8879"
   y1="654.052"
   x1="1091.24" />
	<line
   style="fill:none;stroke:#030303;stroke-width:0.82064974"
   id="line12474"
   y2="659.04797"
   x2="1085.6541"
   y1="654.849"
   x1="1083.229" />
	<line
   style="fill:none;stroke:#030303;stroke-width:0.61548734"
   id="line12476"
   y2="663.15601"
   x2="1080.303"
   y1="661.39301"
   x1="1078.538" />
	<line
   style="fill:none;stroke:#030303;stroke-width:0.82064974"
   id="line12478"
   y2="668.51099"
   x2="1076.196"
   y1="666.11401"
   x1="1072.048" />
	<line
   style="fill:none;stroke:#030303;stroke-width:0.61548734"
   id="line12480"
   y2="674.74597"
   x2="1073.618"
   y1="674.10101"
   x1="1071.208" />
	<line
   style="fill:none;stroke:#030303;stroke-width:0.82064974"
   id="line12482"
   y2="681.43701"
   x2="1072.74"
   y1="681.43701"
   x1="1067.928" />
	<line
   style="fill:none;stroke:#030303;stroke-width:0.61548734"
   id="line12484"
   y2="688.12598"
   x2="1073.626"
   y1="688.771"
   x1="1071.215" />
	<line
   style="fill:none;stroke:#030303;stroke-width:0.82064974"
   id="line12486"
   y2="694.35901"
   x2="1076.21"
   y1="696.76599"
   x1="1072.04" />
	<line
   style="fill:none;stroke:#030303;stroke-width:0.61548734"
   id="line12488"
   y2="699.71301"
   x2="1080.319"
   y1="701.47498"
   x1="1078.557" />
	<line
   style="fill:none;stroke:#030303;stroke-width:0.82064974"
   id="line12490"
   y2="703.81598"
   x2="1085.675"
   y1="707.84399"
   x1="1083.349" />
	<line
   style="fill:none;stroke:#030303;stroke-width:0.82064974"
   id="line12492"
   y2="703.80298"
   x2="1111.522"
   y1="707.87299"
   x1="1113.8719" />
	<line
   style="fill:none;stroke:#030303;stroke-width:0.61548734"
   id="line12494"
   y2="699.69299"
   x2="1116.876"
   y1="701.45502"
   x1="1118.639" />
	<line
   style="fill:none;stroke:#030303;stroke-width:0.82064974"
   id="line12496"
   y2="694.33801"
   x2="1120.979"
   y1="696.68903"
   x1="1125.0551" />
	<line
   style="fill:none;stroke:#030303;stroke-width:0.61548734"
   id="line12498"
   y2="688.10199"
   x2="1123.5601"
   y1="688.74799"
   x1="1125.968" />
	<line
   style="fill:none;stroke:#030303;stroke-width:0.82064974"
   id="line12500"
   y2="681.41199"
   x2="1124.437"
   y1="681.41199"
   x1="1129.097" />
	<line
   style="fill:none;stroke:#030303;stroke-width:0.61548734"
   id="line12502"
   y2="674.72302"
   x2="1123.552"
   y1="674.07599"
   x1="1125.962" />
	<line
   style="fill:none;stroke:#030303;stroke-width:0.82064974"
   id="line12504"
   y2="668.48901"
   x2="1120.969"
   y1="666.14801"
   x1="1125.022" />
	<line
   style="fill:none;stroke:#030303;stroke-width:0.61548734"
   id="line12506"
   y2="663.138"
   x2="1116.8571"
   y1="661.37598"
   x1="1118.6219" />
	<line
   style="fill:none;stroke:#030303;stroke-width:0.82064974"
   id="line12508"
   y2="659.03198"
   x2="1111.504"
   y1="654.841"
   x1="1113.926" />
	<line
   style="fill:none;stroke:#030303;stroke-width:0.61548734"
   id="line12510"
   y2="656.45398"
   x2="1105.267"
   y1="654.047"
   x1="1105.912" />
	<line
   style="fill:none;stroke:#030303;stroke-width:0.82064974"
   id="line12512"
   y2="655.57599"
   x2="1098.575"
   y1="650.80298"
   x1="1098.575" />
	<circle
   d="m 1124.533,681.34998 c 0,14.27711 -11.5739,25.851 -25.851,25.851 -14.2771,0 -25.851,-11.57389 -25.851,-25.851 0,-14.27712 11.5739,-25.851 25.851,-25.851 14.2771,0 25.851,11.57388 25.851,25.851 z"
   style="fill:none"
   sodipodi:ry="25.851"
   sodipodi:rx="25.851"
   sodipodi:cy="681.34998"
   sodipodi:cx="1098.682"
   id="circle12514"
   r="25.851"
   cy="681.34998"
   cx="1098.682" />
</g><g
     id="g12516"
     transform="matrix(1.2185466,0,0,1.2185466,-1293.8928,-388.44604)">
	<path
   d="m 1085.957,703.975 c -7.882,-4.428 -13.206,-12.867 -13.206,-22.55 0,-14.275 11.572,-25.85 25.849,-25.85 14.273,0 25.848,11.573 25.848,25.85 0,9.689 -5.333,18.136 -13.226,22.56"
   id="path12518"
   inkscape:connector-curvature="0"
   style="fill:none;stroke:#030303;stroke-width:0.41032487" />
	<line
   x1="1091.24"
   y1="654.052"
   x2="1091.8879"
   y2="656.46198"
   id="line12520"
   style="fill:none;stroke:#030303;stroke-width:0.61548734" />
	<line
   x1="1083.229"
   y1="654.849"
   x2="1085.6541"
   y2="659.04797"
   id="line12522"
   style="fill:none;stroke:#030303;stroke-width:0.82064974" />
	<line
   x1="1078.538"
   y1="661.39301"
   x2="1080.303"
   y2="663.15601"
   id="line12524"
   style="fill:none;stroke:#030303;stroke-width:0.61548734" />
	<line
   x1="1072.048"
   y1="666.11401"
   x2="1076.196"
   y2="668.51099"
   id="line12526"
   style="fill:none;stroke:#030303;stroke-width:0.82064974" />
	<line
   x1="1071.208"
   y1="674.10101"
   x2="1073.618"
   y2="674.74597"
   id="line12528"
   style="fill:none;stroke:#030303;stroke-width:0.61548734" />
	<line
   x1="1067.928"
   y1="681.43701"
   x2="1072.74"
   y2="681.43701"
   id="line12530"
   style="fill:none;stroke:#030303;stroke-width:0.82064974" />
	<line
   x1="1071.215"
   y1="688.771"
   x2="1073.626"
   y2="688.12598"
   id="line12532"
   style="fill:none;stroke:#030303;stroke-width:0.61548734" />
	<line
   x1="1072.04"
   y1="696.76599"
   x2="1076.21"
   y2="694.35901"
   id="line12534"
   style="fill:none;stroke:#030303;stroke-width:0.82064974" />
	<line
   x1="1078.557"
   y1="701.47498"
   x2="1080.319"
   y2="699.71301"
   id="line12536"
   style="fill:none;stroke:#030303;stroke-width:0.61548734" />
	<line
   x1="1083.349"
   y1="707.84399"
   x2="1085.675"
   y2="703.81598"
   id="line12538"
   style="fill:none;stroke:#030303;stroke-width:0.82064974" />
	<line
   x1="1113.8719"
   y1="707.87299"
   x2="1111.522"
   y2="703.80298"
   id="line12540"
   style="fill:none;stroke:#030303;stroke-width:0.82064974" />
	<line
   x1="1118.639"
   y1="701.45502"
   x2="1116.876"
   y2="699.69299"
   id="line12542"
   style="fill:none;stroke:#030303;stroke-width:0.61548734" />
	<line
   x1="1125.0551"
   y1="696.68903"
   x2="1120.979"
   y2="694.33801"
   id="line12544"
   style="fill:none;stroke:#030303;stroke-width:0.82064974" />
	<line
   x1="1125.968"
   y1="688.74799"
   x2="1123.5601"
   y2="688.10199"
   id="line12546"
   style="fill:none;stroke:#030303;stroke-width:0.61548734" />
	<line
   x1="1129.097"
   y1="681.41199"
   x2="1124.437"
   y2="681.41199"
   id="line12548"
   style="fill:none;stroke:#030303;stroke-width:0.82064974" />
	<line
   x1="1125.962"
   y1="674.07599"
   x2="1123.552"
   y2="674.72302"
   id="line12550"
   style="fill:none;stroke:#030303;stroke-width:0.61548734" />
	<line
   x1="1125.022"
   y1="666.14801"
   x2="1120.969"
   y2="668.48901"
   id="line12552"
   style="fill:none;stroke:#030303;stroke-width:0.82064974" />
	<line
   x1="1118.6219"
   y1="661.37598"
   x2="1116.8571"
   y2="663.138"
   id="line12554"
   style="fill:none;stroke:#030303;stroke-width:0.61548734" />
	<line
   x1="1113.926"
   y1="654.841"
   x2="1111.504"
   y2="659.03198"
   id="line12556"
   style="fill:none;stroke:#030303;stroke-width:0.82064974" />
	<line
   x1="1105.912"
   y1="654.047"
   x2="1105.267"
   y2="656.45398"
   id="line12558"
   style="fill:none;stroke:#030303;stroke-width:0.61548734" />
	<line
   x1="1098.575"
   y1="650.80298"
   x2="1098.575"
   y2="655.57599"
   id="line12560"
   style="fill:none;stroke:#030303;stroke-width:0.82064974" />
	<circle
   cx="1098.682"
   cy="681.34998"
   r="25.851"
   id="circle12562"
   sodipodi:cx="1098.682"
   sodipodi:cy="681.34998"
   sodipodi:rx="25.851"
   sodipodi:ry="25.851"
   style="fill:none"
   d="m 1124.533,681.34998 c 0,14.27711 -11.5739,25.851 -25.851,25.851 -14.2771,0 -25.851,-11.57389 -25.851,-25.851 0,-14.27712 11.5739,-25.851 25.851,-25.851 14.2771,0 25.851,11.57388 25.851,25.851 z" />
</g><path
     style="fill:none;stroke:#030303;stroke-width:1"
     inkscape:connector-curvature="0"
     id="path12622"
     d="M 97.88046,510.88579" /><line
     style="fill:none;stroke:#030303;stroke-width:1"
     id="line12618"
     y2="560.5274"
     x2="83.18177"
     y1="547.51166"
     x1="83.18177" /><line
     style="fill:none;stroke:#030303;stroke-width:1"
     id="line12624"
     y2="560.06915"
     x2="93.41597"
     y1="560.06915"
     x1="83.319168" /><polygon
     style="fill:#030303"
     id="polygon12626"
     points="1147.078,610.646 1147.021,616.055 1155.104,613.322 "
     transform="matrix(0.6,0,0,0.6,-596.43945,191.99003)" /><path
     style="fill:none;stroke:#030303;stroke-width:0.99999988"
     d="m 83.182121,502.78239 0,13.0026"
     id="line12666"
     inkscape:connector-curvature="0" /><path
     style="fill:none;stroke:#030303;stroke-width:1"
     d="m 83.230106,503.24479 c 4.220352,0.065 9.960333,2.4982 10.186218,9.21"
     id="line12668"
     inkscape:connector-curvature="0"
     sodipodi:nodetypes="cc" /><polygon
     transform="matrix(0,0.6,-0.6,0,461.46055,-177.17822)"
     points="1147.021,616.055 1155.104,613.322 1147.078,610.646 "
     id="polygon12670"
     style="fill:#030303" /><line
     x1="83.319168"
     y1="515.26923"
     x2="93.41597"
     y2="515.26923"
     id="line13075"
     style="fill:none;stroke:#030303;stroke-width:1" /></g></svg>