<?xml version="1.0" encoding="UTF-8" standalone="no"?>
<!-- Generator: Adobe Illustrator 13.0.0, SVG Export Plug-In . SVG Version: 6.00 Build 14948)  -->

<svg
   xmlns:dc="http://purl.org/dc/elements/1.1/"
   xmlns:cc="http://creativecommons.org/ns#"
   xmlns:rdf="http://www.w3.org/1999/02/22-rdf-syntax-ns#"
   xmlns:svg="http://www.w3.org/2000/svg"
   xmlns="http://www.w3.org/2000/svg"
   xmlns:sodipodi="http://sodipodi.sourceforge.net/DTD/sodipodi-0.dtd"
   xmlns:inkscape="http://www.inkscape.org/namespaces/inkscape"
   version="1.1"
   id="Layer_1"
   x="0px"
   y="0px"
   width="210mm"
   height="297mm"
   viewBox="0 0 744.09448 1052.3622"
   enable-background="new 0 0 2027.125 1244.648"
   xml:space="preserve"
   inkscape:version="0.91 r13725"
   sodipodi:docname="Logoi.svg"><metadata
     id="metadata1346"><rdf:RDF><cc:Work
         rdf:about=""><dc:format>image/svg+xml</dc:format><dc:type
           rdf:resource="http://purl.org/dc/dcmitype/StillImage" /><dc:title></dc:title></cc:Work></rdf:RDF></metadata><defs
     id="defs1344"><clipPath
       clipPathUnits="userSpaceOnUse"
       id="clipPath12741"><g
         transform="matrix(3.5433072,0,0,3.5433072,874.65065,451.94963)"
         style="fill:none;stroke:#000000;stroke-width:0.1"
         id="g12743"><g
           inkscape:label="#g5762"
           id="g12745"><rect
             id="rect12747"
             height="128.5"
             width="50.5"
             y="0"
             x="0"
             style="stroke-width:0.1" /><circle
             id="circle12749"
             r="1.6"
             cy="3"
             cx="7.5"
             style="stroke-width:0.1" /><circle
             id="circle12751"
             r="1.6"
             cy="125.5"
             cx="7.5"
             style="stroke-width:0.1" /><circle
             id="circle12753"
             r="1.6"
             cy="3"
             cx="43.060001"
             style="stroke-width:0.1" /><circle
             id="circle12755"
             r="1.6"
             cy="125.5"
             cx="43.060001"
             style="stroke-width:0.1" /><circle
             id="circle12757"
             r="4.5"
             cy="45.200001"
             cx="12.55"
             style="stroke-width:0.1" /><circle
             id="circle12759"
             r="4.5"
             cy="45.200001"
             cx="37.950001"
             style="stroke-width:0.1" /><circle
             id="circle12761"
             r="4.5"
             cy="26.15"
             cx="12.55"
             style="stroke-width:0.1" /><circle
             id="circle12763"
             r="4.5"
             cy="26.15"
             cx="37.950001"
             style="stroke-width:0.1" /><circle
             id="circle12765"
             r="1.5"
             cy="57.900002"
             cx="25.25"
             style="stroke-width:0.1" /><circle
             id="circle12767"
             r="1.5"
             cy="70.599998"
             cx="12.55"
             style="stroke-width:0.1" /><circle
             id="circle12769"
             r="1.5"
             cy="70.599998"
             cx="37.950001"
             style="stroke-width:0.1" /><circle
             id="circle12771"
             r="3"
             cy="70.599998"
             cx="25.25"
             style="stroke-width:0.1" /><circle
             id="circle12773"
             r="3"
             cy="83.300003"
             cx="12.55"
             style="stroke-width:0.1" /><circle
             id="circle12775"
             r="3"
             cy="83.300003"
             cx="37.950001"
             style="stroke-width:0.1" /><circle
             id="circle12777"
             r="3"
             cy="96"
             cx="12.55"
             style="stroke-width:0.1" /><circle
             id="circle12779"
             r="3"
             cy="96"
             cx="25.25"
             style="stroke-width:0.1" /><circle
             id="circle12781"
             r="3"
             cy="96"
             cx="37.950001"
             style="stroke-width:0.1" /><circle
             id="circle12783"
             r="3"
             cy="108.7"
             cx="12.55"
             style="stroke-width:0.1" /><circle
             id="circle12785"
             r="3"
             cy="108.7"
             cx="25.25"
             style="stroke-width:0.1" /><circle
             id="circle12787"
             r="3"
             cy="108.7"
             cx="37.950001"
             style="stroke-width:0.1" /></g></g></clipPath><g
       id="potgrading" /></defs><sodipodi:namedview
     pagecolor="#ffffff"
     bordercolor="#666666"
     borderopacity="1"
     objecttolerance="10"
     gridtolerance="10"
     guidetolerance="10"
     inkscape:pageopacity="0"
     inkscape:pageshadow="2"
     inkscape:window-width="1623"
     inkscape:window-height="1026"
     id="namedview1342"
     showgrid="false"
     inkscape:zoom="1.92539"
     inkscape:cx="89.46941"
     inkscape:cy="824.70472"
     inkscape:window-x="57"
     inkscape:window-y="24"
     inkscape:window-maximized="1"
     inkscape:current-layer="layer2"
     inkscape:snap-object-midpoints="false"
     inkscape:snap-center="false"
     showguides="false"
     inkscape:guide-bbox="true"
     inkscape:object-paths="true"
     inkscape:snap-nodes="false"
     inkscape:snap-grids="true"
     inkscape:snap-to-guides="false"
     units="mm"
     inkscape:document-units="mm"><inkscape:grid
       type="xygrid"
       id="grid18395"
       empspacing="5"
       visible="true"
       enabled="true"
       snapvisiblegridlinesonly="true"
       units="in"
       spacingx="0.25in"
       spacingy="0.25in"
       originx="25.25mm"
       originy="64.25mm" /></sodipodi:namedview><g
     inkscape:groupmode="layer"
     id="layer1"
     inkscape:label="Cut"
     style="display:inline"
     transform="translate(0,-192.28573)"><g
       id="g4383"
       style="fill:none;stroke:#ff0000;stroke-width:0.05"
       transform="matrix(3.5433071,0,0,3.5433071,9.0527559e-4,192.28573)"><rect
         id="rect4385"
         height="128.5"
         width="50.5"
         y="0"
         x="0" /><circle
         id="circle4387"
         r="1.6"
         cy="3"
         cx="7.5" /><circle
         id="circle4389"
         r="1.6"
         cy="125.5"
         cx="7.5" /><circle
         id="circle4391"
         r="1.6"
         cy="3"
         cx="43.060001" /><circle
         id="circle4393"
         r="1.6"
         cy="125.5"
         cx="43.060001" /><path
         id="path4395-2"
         style="fill:none;stroke:#ff0000"
         d="m 12.55,40.45 c -2.6129013,0 -4.7375971,2.115556 -4.7375971,4.727735 0,2.135913 1.421033,3.945767 3.3650681,4.5331 l 0,2.107204 2.632936,1.41e-4 0,-2.079677 c 1.996054,-0.554631 3.466996,-2.388302 3.466996,-4.561134 C 17.277741,42.56519 15.162198,40.45 12.55,40.45 Z"
         inkscape:connector-curvature="0" /><path
         id="path4445"
         style="fill:none;stroke:#ff0000"
         d="m 37.95,40.45 c -2.612901,0 -4.737597,2.115556 -4.737597,4.727735 0,2.135913 1.421033,3.945767 3.365068,4.5331 l 0,2.107204 2.632936,1.41e-4 0,-2.079677 c 1.996054,-0.554631 3.466996,-2.388302 3.466996,-4.561134 C 42.677741,42.56519 40.562198,40.45 37.95,40.45 Z"
         inkscape:connector-curvature="0" /><path
         id="path4495"
         style="fill:none;stroke:#ff0000"
         d="m 12.55,21.4 c -2.6129013,0 -4.7375971,2.115556 -4.7375971,4.727735 0,2.135913 1.421033,3.945767 3.3650681,4.5331 l 0,2.107204 2.632936,1.41e-4 0,-2.079677 c 1.996054,-0.554631 3.466996,-2.388302 3.466996,-4.561134 C 17.277741,23.51519 15.162198,21.4 12.55,21.4 Z"
         inkscape:connector-curvature="0" /><path
         id="path4545"
         style="fill:none;stroke:#ff0000"
         d="m 37.95,21.4 c -2.612901,0 -4.737597,2.115556 -4.737597,4.727735 0,2.135913 1.421033,3.945767 3.365068,4.5331 l 0,2.107204 2.632936,1.41e-4 0,-2.079677 c 1.996054,-0.554631 3.466996,-2.388302 3.466996,-4.561134 C 42.677741,23.51519 40.562198,21.4 37.95,21.4 Z"
         inkscape:connector-curvature="0" /><circle
         id="circle4595"
         style="fill:none;stroke:#ff0000"
         r="1.5"
         cy="57.900002"
         cx="25.25" /><circle
         id="circle4597"
         style="fill:none;stroke:#ff0000"
         r="1.5"
         cy="70.599998"
         cx="12.55" /><circle
         id="circle4599"
         style="fill:none;stroke:#ff0000"
         r="1.5"
         cy="70.599998"
         cx="37.950001" /><circle
         id="circle4601"
         style="fill:none;stroke:#ff0000"
         r="3.25"
         cy="70.599998"
         cx="25.25" /><circle
         id="circle4603"
         style="fill:none;stroke:#ff0000"
         r="3.25"
         cy="83.300003"
         cx="12.55" /><circle
         id="circle4605"
         style="fill:none;stroke:#ff0000"
         r="3.25"
         cy="83.300003"
         cx="37.950001" /><circle
         id="circle4607"
         style="fill:none;stroke:#ff0000"
         r="3.25"
         cy="96"
         cx="12.55" /><circle
         id="circle4609"
         style="fill:none;stroke:#ff0000"
         r="3.25"
         cy="96"
         cx="25.25" /><circle
         id="circle4611"
         style="fill:none;stroke:#ff0000"
         r="3.25"
         cy="96"
         cx="37.950001" /><circle
         id="circle4613"
         style="fill:none;stroke:#ff0000"
         r="3.25"
         cy="108.7"
         cx="12.55" /><circle
         id="circle4615"
         style="fill:none;stroke:#ff0000"
         r="3.25"
         cy="108.7"
         cx="25.25" /><circle
         id="circle4617"
         style="fill:none;stroke:#ff0000"
         r="3.25"
         cy="108.7"
         cx="37.950001" /></g></g><g
     inkscape:groupmode="layer"
     id="layer2"
     inkscape:label="Print"
     style="display:inline"
     transform="translate(0,-192.28573)"><g
       id="g240"
       clip-path="url(#clipPath12741)"
       transform="translate(-874.5612,-259.75292)"
       inkscape:export-xdpi="90"
       inkscape:export-ydpi="90"><path
         d="m 1224.367,672.158 c 0,114.65 -93.271,207.588 -208.331,207.588 -115.062,0 -208.337,-92.938 -208.337,-207.588 0,-114.65 93.273,-207.587 208.337,-207.587 115.063,0 208.331,92.937 208.331,207.587 z"
         id="path242"
         inkscape:connector-curvature="0"
         style="fill:none;stroke:#000000;stroke-width:0.5" /><path
         d="m 1153.896,670.01 c 0,76.123 -61.707,137.83 -137.834,137.83 -76.122,0 -137.837,-61.707 -137.837,-137.83 0,-76.13 61.714,-137.84 137.837,-137.84 76.126,0.002 137.834,61.712 137.834,137.84 z"
         id="path244"
         inkscape:connector-curvature="0"
         style="fill:none;stroke:#000000;stroke-width:0.5" /><path
         d="m 1153.896,671.035 c 0,32.99 -61.707,59.739 -137.834,59.739 -76.122,0 -137.837,-26.749 -137.837,-59.739 0,-32.987 61.714,-59.733 137.837,-59.733 76.126,0 137.834,26.746 137.834,59.733 z"
         id="path246"
         inkscape:connector-curvature="0"
         style="fill:none;stroke:#000000;stroke-width:0.5" /><path
         d="m 1223.342,671.031 c 0,48.251 -93.04,87.372 -207.808,87.372 -114.771,0 -207.812,-39.121 -207.812,-87.372 0,-48.25 93.041,-87.364 207.812,-87.364 114.768,0 207.808,39.114 207.808,87.364 z"
         id="path248"
         inkscape:connector-curvature="0"
         style="fill:none;stroke:#000000;stroke-width:0.5" /><path
         d="m 1149.391,600.824 c 53.646,101.861 37.697,215.746 -35.639,254.373 -73.335,38.618 -176.271,-12.642 -229.923,-114.501 -53.648,-101.861 -37.69,-215.75 35.643,-254.376 73.336,-38.624 176.266,12.649 229.919,114.504 z"
         id="path250"
         inkscape:connector-curvature="0"
         style="fill:none;stroke:#000000;stroke-width:0.5" /><path
         d="m 1127.623,525.263 c 91.025,69.454 114.867,191.219 53.26,271.956 -61.623,80.744 -185.353,89.893 -276.376,20.428 -91.02,-69.462 -114.863,-191.224 -53.252,-271.961 61.612,-80.743 185.349,-89.885 276.368,-20.423 z"
         id="path252"
         inkscape:connector-curvature="0"
         style="fill:none;stroke:#000000;stroke-width:0.5" /><line
         x1="1070.578"
         y1="586.40503"
         x2="962.15002"
         y2="755.36902"
         id="line254"
         style="fill:none;stroke:#000000;stroke-width:0.5" /><line
         x1="852.229"
         y1="617.04498"
         x2="1181.282"
         y2="723.62903"
         id="line256"
         style="fill:none;stroke:#000000;stroke-width:0.5" /><line
         x1="1181.119"
         y1="723.41498"
         x2="815.89099"
         y2="646.98602"
         id="line258"
         style="fill:none;stroke:#000000;stroke-width:0.5" /><line
         x1="815.737"
         y1="646.51703"
         x2="1215.245"
         y2="694.13"
         id="line260"
         style="fill:none;stroke:#000000;stroke-width:0.5" /><line
         x1="1016.627"
         y1="670.10999"
         x2="1015.552"
         y2="480.17999"
         id="line262"
         style="fill:none;stroke:#000000;stroke-width:0.5" /><line
         x1="1015.052"
         y1="479.77301"
         x2="1079.218"
         y2="516.38599"
         id="line264"
         style="fill:none;stroke:#000000;stroke-width:0.5" /><line
         x1="1079.218"
         y1="516.38599"
         x2="1094.0699"
         y2="503.655"
         id="line266"
         style="fill:none;stroke:#000000;stroke-width:0.5" /><line
         x1="1094.0699"
         y1="503.655"
         x2="1016.1"
         y2="480.315"
         id="line268"
         style="fill:none;stroke:#000000;stroke-width:0.5" /><line
         x1="1094.0699"
         y1="503.655"
         x2="1158.259"
         y2="553.52197"
         id="line270"
         style="fill:none;stroke:#000000;stroke-width:0.5" /><line
         x1="1158.259"
         y1="553.52197"
         x2="1133.326"
         y2="574.20801"
         id="line272"
         style="fill:none;stroke:#000000;stroke-width:0.5" /><line
         x1="1133.326"
         y1="574.20801"
         x2="1079.218"
         y2="516.38599"
         id="line274"
         style="fill:none;stroke:#000000;stroke-width:0.5" /><line
         x1="1133.326"
         y1="574.20801"
         x2="1168.869"
         y2="647.41101"
         id="line276"
         style="fill:none;stroke:#000000;stroke-width:0.5" /><line
         x1="1168.869"
         y1="647.41101"
         x2="1200.938"
         y2="621.54602"
         id="line278"
         style="fill:none;stroke:#000000;stroke-width:0.5" /><line
         x1="1200.791"
         y1="620.96198"
         x2="1158.259"
         y2="553.52197"
         id="line280"
         style="fill:none;stroke:#000000;stroke-width:0.5" /><line
         x1="1016.807"
         y1="670.28998"
         x2="1193.269"
         y2="673.40002"
         id="line282"
         style="fill:none;stroke:#000000;stroke-width:0.5" /><line
         x1="1193.269"
         y1="673.40002"
         x2="1215.179"
         y2="695.04901"
         id="line284"
         style="fill:none;stroke:#000000;stroke-width:0.5" /><line
         x1="1201.0649"
         y1="621.66199"
         x2="1202.7061"
         y2="692.51599"
         id="line286"
         style="fill:none;stroke:#000000;stroke-width:0.5" /><line
         x1="1202.7061"
         y1="692.51599"
         x2="1169.567"
         y2="719.802"
         id="line288"
         style="fill:none;stroke:#000000;stroke-width:0.5" /><line
         x1="1169.401"
         y1="719.966"
         x2="1168.869"
         y2="647.41101"
         id="line290"
         style="fill:none;stroke:#000000;stroke-width:0.5" /><line
         x1="1168.869"
         y1="647.41101"
         x2="1181.447"
         y2="723.35999"
         id="line292"
         style="fill:none;stroke:#000000;stroke-width:0.5" /><line
         x1="1181.604"
         y1="723.26599"
         x2="1202.938"
         y2="692.57898"
         id="line294"
         style="fill:none;stroke:#000000;stroke-width:0.5" /><line
         x1="1193.269"
         y1="673.40002"
         x2="1181.604"
         y2="723.26599"
         id="line296"
         style="fill:none;stroke:#000000;stroke-width:0.5" /></g><g
       id="g10555"
       transform="translate(-281.82421,-296.8357)"><path
         inkscape:export-ydpi="90"
         inkscape:export-xdpi="90"
         inkscape:export-filename="/Users/mars/devel/RebelTechnology/ClockDelay/drawings/g240.png"
         inkscape:connector-curvature="0"
         id="path328"
         d="m 296.96195,920.20541 -0.398,3.653 -0.361,-3.653 0,-15.019 7.899,0 0,10.105 -1.886,0.951 1.886,0.979 0,2.976 -0.399,3.661 -0.36,-3.653 0,-2.514 -2.799,-1.474 2.799,-1.395 0,-8.877 -6.378,0 -0.003,14.26 0,0 z m 4.76,-12.638 0,6.255 -3.142,1.588 0,-7.843 3.142,0 z m -2.779,16.292 -0.361,-3.64 0,-3.089 3.142,1.603 0,1.469 -0.399,3.657 -0.361,-3.653 0,-1.01 -1.616,-0.836 0,1.846 -0.405,3.653 z m 2.016,-15.531 -1.616,0 0,5.829 1.616,-0.814 0,-5.015 z" /><path
         inkscape:export-ydpi="90"
         inkscape:export-xdpi="90"
         inkscape:export-filename="/Users/mars/devel/RebelTechnology/ClockDelay/drawings/g240.png"
         inkscape:connector-curvature="0"
         id="path330"
         d="m 314.01895,920.20541 -0.399,3.653 -0.361,-3.653 0,-2.359 -4.759,0 0,-3.159 4.759,0 0,-1.599 -4.759,0 0,-5.54 3.142,0 0,2.38 1.617,0 0,-3.979 -6.377,0 0,14.257 -0.398,3.653 -0.361,-3.653 0,-15.019 7.899,0 0,5.501 -3.143,0 0,-2.379 -1.616,0 0,4.018 4.759,0 0,3.12 -4.759,0 0,1.637 4.759,0 -0.003,3.121 0,0 z" /><path
         inkscape:export-ydpi="90"
         inkscape:export-xdpi="90"
         inkscape:export-filename="/Users/mars/devel/RebelTechnology/ClockDelay/drawings/g240.png"
         inkscape:connector-curvature="0"
         id="path332"
         d="m 323.87695,920.20141 -0.399,3.657 -0.36,-3.651 0,-4.89 -2.789,-1.465 2.789,-1.396 0,-6.51 -6.377,0 0,14.257 -0.398,3.653 -0.362,-3.653 0,-15.019 7.899,0 0,7.737 -1.877,0.948 1.877,0.975 -0.003,5.357 0,0 z m -2.38,-12.634 0,3.875 -3.142,1.589 0,-5.464 3.142,0 z m 0,8.764 0,1.495 -3.142,0 0,-3.085 3.142,1.59 z m -0.762,-8.003 -1.617,0 0,3.465 1.617,-0.816 0,-2.649 z m 0,8.472 -1.617,-0.818 0,1.086 1.617,0 0,-0.268 z" /><path
         inkscape:export-ydpi="90"
         inkscape:export-xdpi="90"
         inkscape:export-filename="/Users/mars/devel/RebelTechnology/ClockDelay/drawings/g240.png"
         inkscape:connector-curvature="0"
         id="path334"
         d="m 333.79295,920.20541 -0.399,3.653 -0.36,-3.653 0,-2.359 -4.76,0 0,-3.159 4.76,0 0,-1.599 -4.76,0 0,-5.54 3.142,0 0,2.38 1.618,0 0,-3.979 -6.377,0 0,14.257 -0.399,3.653 -0.361,-3.653 0,-15.019 7.899,0 0,5.501 -3.143,0 0,-2.379 -1.616,0 0,4.018 4.759,0 0,3.12 -4.759,0 0,1.637 4.759,0 -0.003,3.121 0,0 z" /><path
         inkscape:export-ydpi="90"
         inkscape:export-xdpi="90"
         inkscape:export-filename="/Users/mars/devel/RebelTechnology/ClockDelay/drawings/g240.png"
         inkscape:connector-curvature="0"
         id="path336"
         d="m 341.27395,920.20541 -0.399,3.653 -0.36,-3.653 0,-2.359 -2.379,0 0,-11.896 -1.618,0 0,14.257 -0.398,3.653 -0.362,-3.653 0,-15.019 3.143,0 0,11.896 2.38,0 0,3.123 -0.007,0 0,0 z" /><path
         inkscape:export-ydpi="90"
         inkscape:export-xdpi="90"
         inkscape:export-filename="/Users/mars/devel/RebelTechnology/ClockDelay/drawings/g240.png"
         inkscape:connector-curvature="0"
         id="path338"
         d="m 357.94595,920.20541 -0.4,3.653 -0.36,-3.653 0,-12.658 2.38,0 0,-1.599 -6.377,0 0,1.599 2.379,0 0,12.658 -0.397,3.653 -0.361,-3.653 0,-11.896 -2.38,0 0,-3.122 7.899,0 0,3.122 -2.38,0 -0.003,11.896 0,0 z" /><path
         inkscape:export-ydpi="90"
         inkscape:export-xdpi="90"
         inkscape:export-filename="/Users/mars/devel/RebelTechnology/ClockDelay/drawings/g240.png"
         inkscape:connector-curvature="0"
         id="path340"
         d="m 369.99494,920.20541 -0.399,3.653 -0.36,-3.653 0,-2.359 -4.76,0 0,-3.159 4.76,0 0,-1.599 -4.76,0 0,-5.54 3.142,0 0,2.38 1.618,0 0,-3.979 -6.378,0 0,14.257 -0.398,3.653 -0.36099,-3.653 0,-15.019 7.89899,0 0,5.501 -3.143,0 0,-2.379 -1.617,0 0,4.018 4.76,0 0,3.12 -4.76,0 0,1.637 4.76,0 -0.003,3.121 0,0 z" /><path
         inkscape:export-ydpi="90"
         inkscape:export-xdpi="90"
         inkscape:export-filename="/Users/mars/devel/RebelTechnology/ClockDelay/drawings/g240.png"
         inkscape:connector-curvature="0"
         id="path342"
         d="m 379.85594,920.20541 -0.399,3.653 -0.36,-3.653 0,-4.737 -1.618,0 0,2.378 -3.142,0 0,-10.298 3.142,0 0,2.38 1.618,0 0,-3.979 -6.377,0 0,14.257 -0.398,3.653 -0.362,-3.653 0,-15.019 7.9,0 0,5.501 -3.144,0 0,-2.379 -1.616,0 0,8.772 1.616,0 0,-2.379 3.144,0 -0.004,5.503 0,0 z" /><path
         inkscape:export-ydpi="90"
         inkscape:export-xdpi="90"
         inkscape:export-filename="/Users/mars/devel/RebelTechnology/ClockDelay/drawings/g240.png"
         inkscape:connector-curvature="0"
         id="path344"
         d="m 389.67695,920.20541 -0.4,3.653 -0.36,-3.653 0,-14.257 -1.618,0 0,9.52 -3.141,0 0,-9.52 -1.618,0 0,14.257 -0.39801,3.653 -0.361,-3.653 0,-15.019 3.14201,0 0,9.518 1.618,0 0,-9.518 3.142,0 0,15.019 -0.006,0 z m -2.381,0 -0.399,3.653 -0.359,-3.653 0,-2.379 -1.618,0 0,2.379 -0.398,3.653 -0.361,-3.653 0,-3.14 3.142,0 0,3.14 -0.007,0 z" /><path
         inkscape:export-ydpi="90"
         inkscape:export-xdpi="90"
         inkscape:export-filename="/Users/mars/devel/RebelTechnology/ClockDelay/drawings/g240.png"
         inkscape:connector-curvature="0"
         id="path346"
         d="m 399.59395,920.20541 -0.399,3.653 -0.361,-3.653 0,-14.257 -1.639,0 0,8.762 -3.018,-8.762 -1.723,0 0,14.257 -0.398,3.653 -0.362,-3.653 0,-15.019 3.027,0 1.714,5.007 0,-5.007 3.159,0 0,15.019 0,0 z m -2.266,-0.01 -0.402,3.663 -0.364,-3.653 -1.728,-5.007 0,5.007 -0.398,3.653 -0.361,-3.653 0,-9.477 3.253,9.467 z" /><path
         inkscape:export-ydpi="90"
         inkscape:export-xdpi="90"
         inkscape:export-filename="/Users/mars/devel/RebelTechnology/ClockDelay/drawings/g240.png"
         inkscape:connector-curvature="0"
         id="path348"
         d="m 409.50995,920.20541 -0.399,3.653 -0.361,-3.653 0,-14.257 -6.377,0 0,14.257 -0.398,3.653 -0.361,-3.653 0,-15.019 7.899,0 -0.003,15.019 0,0 z m -2.381,-12.638 0,10.26 -3.141,0 0,-10.26 3.141,0 z m -0.761,0.761 -1.618,0 0,8.737 1.618,0 0,-8.737 z" /><path
         inkscape:export-ydpi="90"
         inkscape:export-xdpi="90"
         inkscape:export-filename="/Users/mars/devel/RebelTechnology/ClockDelay/drawings/g240.png"
         inkscape:connector-curvature="0"
         id="path350"
         d="m 417.04795,920.20541 -0.4,3.653 -0.36,-3.653 0,-2.359 -2.38,0 0,-11.896 -1.618,0 0,14.257 -0.397,3.653 -0.361,-3.653 0,-15.019 3.141,0 0,11.896 2.381,0 0,3.123 -0.006,0 0,0 z" /><path
         inkscape:export-ydpi="90"
         inkscape:export-xdpi="90"
         inkscape:export-filename="/Users/mars/devel/RebelTechnology/ClockDelay/drawings/g240.png"
         inkscape:connector-curvature="0"
         id="path352"
         d="m 426.58295,920.20541 -0.399,3.653 -0.36,-3.653 0,-14.257 -6.377,0 0,14.257 -0.399,3.653 -0.361,-3.653 0,-15.019 7.899,0 -0.003,15.019 0,0 z m -2.38,-12.638 0,10.26 -3.142,0 0,-10.26 3.142,0 z m -0.76,0.761 -1.616,0 0,8.737 1.616,0 0,-8.737 z" /><path
         inkscape:export-ydpi="90"
         inkscape:export-xdpi="90"
         inkscape:export-filename="/Users/mars/devel/RebelTechnology/ClockDelay/drawings/g240.png"
         inkscape:connector-curvature="0"
         id="path354"
         d="m 436.49894,920.20541 -0.399,3.653 -0.36,-3.653 0,-7.117 -1.61799,0 0,4.758 -3.142,0 0,-10.297 3.142,0 0,2.379 1.61799,0 0,-3.979 -6.37699,0 0,14.257 -0.399,3.653 -0.361,-3.653 0,-15.019 7.89899,0 0,5.501 -3.14299,0 0,-2.379 -1.616,0 0,8.772 1.616,0 0,-4.757 3.14299,0 -0.003,7.881 0,0 z" /><path
         inkscape:export-ydpi="90"
         inkscape:export-xdpi="90"
         inkscape:export-filename="/Users/mars/devel/RebelTechnology/ClockDelay/drawings/g240.png"
         inkscape:connector-curvature="0"
         id="path356"
         d="m 446.37795,920.20541 -0.399,3.653 -0.36001,-3.653 0,-14.257 -1.618,0 0,7.139 -3.142,0 0,-7.139 -1.61699,0 0,8.736 4.759,0 0,3.159 -4.759,0 0,2.359 -0.398,3.653 -0.362,-3.653 0,-3.122 4.76,0 0,-1.637 -4.76,0 0,-10.26 3.143,0 0,7.14 1.616,0 0,-7.14 3.144,0 0,15.02 -0.007,0 0,0 z" /></g><path
       d="m 43.582115,351.54281 c 0,0 -55.273,51.32598 0,134.89595"
       id="path372"
       inkscape:connector-curvature="0"
       style="fill:none;stroke:#000000;stroke-width:2;stroke-linecap:round"
       inkscape:export-filename="/Users/mars/devel/RebelTechnology/ClockDelay/drawings/g240.png"
       inkscape:export-xdpi="90"
       inkscape:export-ydpi="90" /><path
       d="m 135.99311,351.54281 c 0,0 55.273,51.32598 0,134.89595"
       id="path374"
       inkscape:connector-curvature="0"
       style="fill:none;stroke:#000000;stroke-width:2;stroke-linecap:round"
       inkscape:export-filename="/Users/mars/devel/RebelTechnology/ClockDelay/drawings/g240.png"
       inkscape:export-xdpi="90"
       inkscape:export-ydpi="90" /><path
       d="M 44.365115,441.71876"
       id="path376"
       inkscape:connector-curvature="0"
       style="fill:none;stroke:#000000;stroke-width:2;stroke-linecap:round"
       inkscape:export-filename="/Users/mars/devel/RebelTechnology/ClockDelay/drawings/g240.png"
       inkscape:export-xdpi="90"
       inkscape:export-ydpi="90" /><polyline
       points="899.681,642.148 890.434,656.964 899.845,659.61 "
       id="polyline398"
       transform="matrix(0.78232519,-0.62287021,0.62287021,0.78232519,-1079.7285,505.51946)"
       inkscape:export-filename="/Users/mars/devel/RebelTechnology/ClockDelay/drawings/g240.png"
       inkscape:export-xdpi="90"
       inkscape:export-ydpi="90" /><path
       d="M 106.97012,543.39376"
       id="path418"
       inkscape:connector-curvature="0"
       inkscape:export-filename="/Users/mars/devel/RebelTechnology/ClockDelay/drawings/g240.png"
       inkscape:export-xdpi="90"
       inkscape:export-ydpi="90" /><g
       id="g1232"
       transform="translate(-784.82224,-265.65165)"
       style="fill:#000000;fill-opacity:1;stroke:#000000;stroke-width:0.60000002;stroke-miterlimit:4;stroke-dasharray:none;stroke-opacity:1"
       inkscape:export-filename="/Users/mars/devel/RebelTechnology/ClockDelay/drawings/g240.png"
       inkscape:export-xdpi="90"
       inkscape:export-ydpi="90"><path
         d="m 924.434,504.724 c 0.101,0.096 0.19,0.181 0.273,0.255 0.055,0.099 0.033,0.196 -0.061,0.294 -0.095,0.097 -0.191,0.173 -0.29,0.229 -0.071,0.037 -0.155,0.064 -0.252,0.08 -0.098,0.019 -0.18,0.03 -0.248,0.04 -0.017,0.036 -0.038,0.065 -0.062,0.09 -0.025,0.021 -0.052,0.042 -0.08,0.057 -0.093,0.051 -0.229,0.036 -0.41,-0.044 -0.182,-0.079 -0.372,-0.092 -0.571,-0.037 -0.21,-0.032 -0.365,-0.054 -0.462,-0.062 -0.315,-0.039 -0.497,-0.054 -0.545,-0.04 -0.049,0.014 -0.103,0.017 -0.16,0.012 -0.059,-0.005 -0.103,-0.006 -0.133,-0.003 -0.031,0.003 -0.103,0.026 -0.215,0.075 -0.11,0.048 -0.183,0.072 -0.21,0.078 -0.028,0.009 -0.082,-10e-4 -0.157,-0.021 -0.077,-0.022 -0.118,-0.031 -0.125,-0.027 -0.429,0.061 -0.659,0.09 -0.696,0.091 -0.126,0.007 -0.22,-0.018 -0.283,-0.062 l -0.1,0.095 c -0.031,-0.057 -0.094,-0.086 -0.188,-0.09 -0.291,0.021 -0.555,0.032 -0.792,0.033 -0.237,0.002 -0.462,0.005 -0.674,0.011 -0.212,0.006 -0.343,0.021 -0.393,0.049 -0.031,-0.057 -0.125,-0.097 -0.285,-0.12 -0.159,-0.021 -0.265,-0.057 -0.315,-0.102 -0.208,-0.18 -0.404,-0.22 -0.587,-0.119 -0.017,0.035 -0.029,0.062 -0.04,0.076 -0.052,0.073 -0.112,0.13 -0.183,0.168 -0.12,0.066 -0.252,0.06 -0.396,-0.018 -0.144,-0.078 -0.311,-0.065 -0.5,0.037 l -0.052,0.028 c -0.114,0.062 -0.269,0.077 -0.464,0.047 -0.194,-0.03 -0.331,-0.117 -0.407,-0.259 -0.047,-0.085 -0.053,-0.193 -0.021,-0.325 0.033,-0.133 0.099,-0.226 0.197,-0.277 0.07,-0.038 0.17,-0.059 0.3,-0.056 0.13,0.002 0.203,0.003 0.222,0.003 0.084,-0.046 0.169,-0.092 0.254,-0.139 0.062,0.013 0.175,0.011 0.341,-0.006 0.092,-0.017 0.188,-0.025 0.283,-0.032 0.029,0.003 0.111,0.023 0.248,0.064 0.138,0.04 0.256,0.062 0.361,0.068 0.256,0.018 0.444,0.021 0.565,0.007 0.058,-0.012 0.125,-0.021 0.207,-0.021 0.08,-0.004 0.186,0.02 0.312,0.069 0.128,0.049 0.206,0.073 0.234,0.075 0.104,0.01 0.175,-10e-4 0.212,-0.024 0.037,-0.024 0.073,-0.046 0.107,-0.065 0.098,-0.007 0.168,-0.001 0.216,0.021 0.048,0.02 0.096,0.029 0.142,0.031 0.048,0.004 0.076,-0.008 0.089,-0.026 0.012,-0.021 0.025,-0.03 0.045,-0.031 0.123,0.025 0.236,0.026 0.345,0.004 0.092,-0.032 0.189,-0.062 0.293,-0.091 l 1.251,0.004 1.033,-0.041 c 0.059,-0.014 0.216,-0.004 0.478,0.028 0.26,0.032 0.429,0.025 0.506,-0.018 0.034,-0.037 0.066,-0.066 0.1,-0.095 0.031,-0.026 0.051,-0.05 0.058,-0.072 l 0.481,-0.05 0.715,0.094 0.489,0.06 z"
         id="path1234"
         inkscape:connector-curvature="0"
         style="fill:#000000;fill-opacity:1;stroke:#000000;stroke-width:0.60000002;stroke-miterlimit:4;stroke-dasharray:none;stroke-opacity:1" /><path
         d="m 918.891,500.73 c 0.095,-0.103 0.179,-0.194 0.25,-0.278 0.099,-0.056 0.195,-0.036 0.295,0.058 0.099,0.093 0.176,0.188 0.231,0.287 0.039,0.068 0.068,0.151 0.086,0.25 0.02,0.097 0.032,0.179 0.043,0.245 0.037,0.018 0.066,0.036 0.089,0.062 0.022,0.024 0.043,0.051 0.059,0.078 0.053,0.092 0.04,0.229 -0.036,0.411 -0.077,0.183 -0.086,0.373 -0.027,0.571 -0.029,0.212 -0.049,0.365 -0.058,0.465 -0.033,0.313 -0.043,0.498 -0.03,0.546 0.015,0.048 0.019,0.102 0.015,0.157 -0.004,0.061 -0.004,0.104 -10e-4,0.135 0.003,0.028 0.03,0.102 0.079,0.213 0.049,0.108 0.078,0.181 0.084,0.209 0.007,0.029 0,0.082 -0.021,0.158 -0.021,0.075 -0.03,0.117 -0.025,0.126 0.065,0.427 0.1,0.655 0.103,0.692 0.007,0.126 -0.015,0.223 -0.062,0.284 l 0.097,0.098 c -0.057,0.032 -0.085,0.097 -0.087,0.188 0.024,0.291 0.041,0.554 0.047,0.791 0.005,0.237 0.012,0.462 0.021,0.673 0.01,0.212 0.028,0.343 0.056,0.392 -0.057,0.032 -0.095,0.129 -0.114,0.286 -0.021,0.16 -0.054,0.268 -0.097,0.318 -0.178,0.21 -0.214,0.407 -0.109,0.589 0.036,0.016 0.062,0.028 0.077,0.039 0.073,0.05 0.132,0.11 0.171,0.179 0.067,0.12 0.062,0.252 -0.013,0.396 -0.075,0.144 -0.061,0.311 0.048,0.5 l 0.028,0.052 c 0.063,0.112 0.081,0.266 0.054,0.462 -0.027,0.195 -0.111,0.333 -0.25,0.412 -0.084,0.047 -0.192,0.056 -0.325,0.025 -0.134,-0.032 -0.228,-0.098 -0.283,-0.194 -0.04,-0.069 -0.058,-0.169 -0.058,-0.298 0,-0.13 0,-0.204 0,-0.222 -0.049,-0.085 -0.097,-0.171 -0.145,-0.254 0.012,-0.062 0.008,-0.175 -0.012,-0.34 -0.017,-0.092 -0.028,-0.187 -0.037,-0.281 0.002,-0.029 0.021,-0.112 0.061,-0.249 0.038,-0.14 0.06,-0.26 0.063,-0.362 0.012,-0.256 0.012,-0.445 -10e-4,-0.567 -0.014,-0.056 -0.022,-0.124 -0.025,-0.205 -0.006,-0.081 0.017,-0.186 0.063,-0.312 0.047,-0.128 0.071,-0.207 0.073,-0.235 0.006,-0.104 -0.004,-0.175 -0.029,-0.211 -0.024,-0.037 -0.047,-0.073 -0.067,-0.105 -0.009,-0.1 -0.004,-0.169 0.017,-0.219 0.021,-0.048 0.029,-0.096 0.031,-0.143 0.002,-0.047 -0.009,-0.075 -0.028,-0.087 -0.021,-0.012 -0.031,-0.025 -0.032,-0.045 0.022,-0.123 0.021,-0.238 -10e-4,-0.347 -0.034,-0.092 -0.064,-0.188 -0.097,-0.292 l -0.018,-1.251 -0.058,-1.031 c -0.016,-0.06 -0.009,-0.218 0.021,-0.479 0.027,-0.26 0.021,-0.428 -0.022,-0.506 -0.038,-0.033 -0.069,-0.064 -0.098,-0.098 -0.025,-0.03 -0.052,-0.049 -0.072,-0.057 l -0.059,-0.479 0.082,-0.717 0.053,-0.483 z"
         id="path1236"
         inkscape:connector-curvature="0"
         style="fill:#000000;fill-opacity:1;stroke:#000000;stroke-width:0.60000002;stroke-miterlimit:4;stroke-dasharray:none;stroke-opacity:1" /></g><g
       id="g1238"
       transform="translate(-964.7336,-265.65165)"
       style="fill:#000000;fill-opacity:1;stroke:#000000;stroke-width:0.60000002;stroke-miterlimit:4;stroke-dasharray:none;stroke-opacity:1"
       inkscape:export-filename="/Users/mars/devel/RebelTechnology/ClockDelay/drawings/g240.png"
       inkscape:export-xdpi="90"
       inkscape:export-ydpi="90"><path
         d="m 1014.22,505.804 c -0.088,0.043 -0.213,0.066 -0.371,0.073 -0.146,-0.009 -0.287,-0.013 -0.422,-0.014 -0.141,0.019 -0.291,0.019 -0.451,0.002 -0.159,-0.015 -0.301,-0.024 -0.422,-0.03 -0.12,-0.008 -0.272,0.011 -0.461,0.051 -0.188,0.039 -0.292,0.062 -0.314,0.068 -0.22,0.032 -0.416,0.048 -0.59,0.046 -0.176,-0.005 -0.354,-0.007 -0.543,-0.01 -0.046,-0.096 -0.092,-0.137 -0.139,-0.124 -0.095,0.056 -0.19,0.098 -0.293,0.126 -0.093,0.028 -0.193,0.043 -0.304,0.049 -0.107,0.004 -0.245,-0.019 -0.411,-0.061 -0.125,-0.021 -0.271,-0.033 -0.436,-0.034 -0.166,-0.001 -0.396,0.022 -0.696,0.07 -0.066,0.003 -0.146,-0.021 -0.242,-0.066 -0.096,-0.048 -0.167,-0.066 -0.216,-0.062 -0.13,-0.012 -0.328,0.001 -0.592,0.039 -0.264,0.037 -0.426,0.056 -0.483,0.057 -0.197,-0.008 -0.391,-0.018 -0.579,-0.028 -0.019,-0.003 -0.079,0.017 -0.182,0.057 -0.104,0.039 -0.17,0.059 -0.204,0.061 -0.399,0.021 -0.624,0.029 -0.67,0.031 -0.046,10e-4 -0.177,-0.004 -0.393,-0.016 -0.278,0 -0.562,0 -0.85,0.003 -0.1,-0.021 -0.183,-0.143 -0.248,-0.357 0.01,-0.035 0.012,-0.073 0.018,-0.113 0,-0.039 0,-0.086 -0.018,-0.141 -0.035,-0.116 -0.076,-0.195 -0.122,-0.236 -0.046,-0.041 -0.064,-0.074 -0.058,-0.104 0.041,-0.004 0.079,-0.037 0.11,-0.097 0.032,-0.062 0.073,-0.097 0.122,-0.103 0.099,-0.013 0.218,-0.01 0.358,0.006 0.411,0.045 0.666,0.066 0.769,0.062 0.101,-0.005 0.207,-0.003 0.319,0.005 0.358,0.036 0.557,0.052 0.594,0.049 0.037,-0.003 0.096,-0.016 0.173,-0.04 0.125,-0.038 0.215,-0.062 0.269,-0.081 0.022,-0.007 0.048,-0.014 0.07,-0.021 0.034,0.006 0.069,0.007 0.104,0.005 0.032,-0.002 0.151,0.011 0.354,0.039 0.125,0.02 0.214,0.025 0.268,0.021 0.055,-0.004 0.102,-0.013 0.14,-0.022 0.108,-0.033 0.177,-0.048 0.202,-0.048 l 0.896,0.061 0.602,0.009 c 0.117,-10e-4 0.206,-0.007 0.263,-0.016 0.243,-0.006 0.409,-0.02 0.498,-0.036 0.115,-0.009 0.236,-0.01 0.362,-0.001 0.126,0.009 0.244,0.017 0.356,0.025 l 0.646,-0.007 c 0.118,-0.025 0.238,-0.051 0.359,-0.068 0.111,0.008 0.255,0.016 0.427,0.021 0.021,0.003 0.209,0.005 0.574,0.005 0.094,0.031 0.188,0.062 0.283,0.095 0.018,0.003 0.07,-0.015 0.161,-0.05 0.093,-0.036 0.154,-0.056 0.188,-0.058 0.096,-0.021 0.187,-0.039 0.271,-0.056 0.084,-0.019 0.198,-0.031 0.345,-0.041 0.146,-0.01 0.254,-0.017 0.326,-0.018 0.071,0 0.163,0.033 0.276,0.103 0.01,0.015 0.01,0.055 0,0.119 0,0.062 0.015,0.146 0.043,0.248 0.021,0.062 0.047,0.106 0.082,0.14 0.037,0.031 0.08,0.064 0.136,0.1 0.028,0.102 0.053,0.18 0.067,0.232 0.021,0.07 0.01,0.112 -0.037,0.126 -0.048,0.022 -0.147,0.005 -0.288,-0.045 z"
         id="path1240"
         inkscape:connector-curvature="0"
         style="fill:#000000;fill-opacity:1;stroke:#000000;stroke-width:0.60000002;stroke-miterlimit:4;stroke-dasharray:none;stroke-opacity:1" /><path
         d="m 1009.659,510.34 c -0.087,0.031 -0.149,0.05 -0.189,0.05 -0.065,0 -0.117,-0.004 -0.149,-0.01 -0.101,-0.027 -0.186,-0.051 -0.255,-0.066 -0.07,-0.016 -0.134,-0.041 -0.19,-0.074 -0.057,-0.034 -0.118,-0.084 -0.185,-0.149 -0.01,-0.009 -0.032,-0.021 -0.075,-0.04 -0.043,-0.021 -0.064,-0.059 -0.064,-0.11 -0.086,-0.161 -0.131,-0.325 -0.131,-0.493 0,-0.04 0.01,-0.094 0.021,-0.16 0.033,-0.188 0.117,-0.353 0.25,-0.493 0.021,0.009 0.043,0.014 0.065,0.017 0.022,0.004 0.042,-0.035 0.055,-0.115 0.105,-0.087 0.221,-0.145 0.341,-0.171 0.054,0 0.095,0 0.121,0 0.116,0 0.241,0.021 0.378,0.06 0.021,-0.006 0.048,0.01 0.081,0.041 0.055,0.021 0.097,0.039 0.128,0.062 0.03,0.021 0.079,0.06 0.147,0.12 0.088,0.1 0.135,0.151 0.144,0.16 0.032,0.06 0.054,0.1 0.062,0.117 -0.021,0.021 -0.03,0.041 -0.03,0.062 0,0.02 0.018,0.029 0.052,0.029 0.032,0.021 0.05,0.051 0.05,0.091 0,0.054 0,0.087 0,0.101 0,0.061 -0.013,0.117 -0.035,0.174 -0.022,0.059 -0.049,0.119 -0.073,0.188 -0.01,0.053 -0.017,0.104 -0.024,0.16 -0.011,0.053 -0.028,0.1 -0.056,0.14 l -0.102,0.07 c -0.106,0.087 -0.217,0.17 -0.337,0.239 z"
         id="path1242"
         inkscape:connector-curvature="0"
         style="fill:#000000;fill-opacity:1;stroke:#000000;stroke-width:0.60000002;stroke-miterlimit:4;stroke-dasharray:none;stroke-opacity:1" /><path
         d="m 1009.635,502.673 c -0.087,0.031 -0.149,0.05 -0.189,0.05 -0.066,0 -0.117,-0.003 -0.15,-0.01 -0.1,-0.027 -0.185,-0.051 -0.255,-0.065 -0.069,-0.017 -0.134,-0.042 -0.189,-0.076 -0.058,-0.033 -0.117,-0.083 -0.186,-0.148 -0.01,-0.009 -0.031,-0.021 -0.074,-0.041 -0.044,-0.021 -0.064,-0.059 -0.064,-0.11 -0.087,-0.161 -0.131,-0.325 -0.131,-0.493 0,-0.041 0.01,-0.094 0.021,-0.161 0.033,-0.188 0.116,-0.352 0.25,-0.493 0.021,0.009 0.042,0.014 0.065,0.017 0.022,0.003 0.042,-0.035 0.055,-0.115 0.106,-0.087 0.221,-0.145 0.34,-0.171 0.055,0 0.096,0 0.122,0 0.115,0 0.241,0.02 0.377,0.06 0.021,-0.006 0.049,0.009 0.081,0.04 0.056,0.021 0.099,0.04 0.128,0.062 0.03,0.02 0.079,0.06 0.147,0.12 0.088,0.1 0.136,0.151 0.143,0.16 0.034,0.06 0.056,0.1 0.062,0.118 -0.021,0.021 -0.03,0.04 -0.03,0.062 0,0.02 0.018,0.03 0.051,0.03 0.033,0.02 0.051,0.05 0.051,0.09 0,0.053 0,0.086 0,0.1 0,0.062 -0.013,0.118 -0.035,0.175 -0.022,0.059 -0.048,0.118 -0.074,0.187 -0.01,0.053 -0.016,0.104 -0.025,0.16 -0.01,0.053 -0.026,0.1 -0.055,0.14 l -0.101,0.07 c -0.105,0.09 -0.215,0.173 -0.335,0.242 z"
         id="path1244"
         inkscape:connector-curvature="0"
         style="fill:#000000;fill-opacity:1;stroke:#000000;stroke-width:0.60000002;stroke-miterlimit:4;stroke-dasharray:none;stroke-opacity:1" /></g><g
       id="g1271"
       transform="matrix(1.7540789,0,0,1.7540789,-1500.5311,-626.72442)"
       inkscape:export-filename="/Users/mars/devel/RebelTechnology/ClockDelay/drawings/g240.png"
       inkscape:export-xdpi="90"
       inkscape:export-ydpi="90"><path
         id="path11422_1_"
         d="m 921.08,477.848 c -0.078,0.139 -0.155,0.145 -0.345,0.021 -0.077,-0.05 -0.143,-0.072 -0.143,-0.054 -10e-4,0.05 -0.294,0.348 -0.341,0.347 -0.062,-10e-4 -0.071,0.109 -0.093,1.278 -0.019,1.022 -0.012,1.147 0.059,1.299 0.043,0.093 0.091,0.197 0.106,0.233 0.017,0.036 0.023,0.493 0.019,1.016 -0.007,0.523 -10e-4,1.016 0.012,1.091 0.014,0.077 0.002,0.182 -0.026,0.229 -0.036,0.067 -0.038,0.132 -10e-4,0.26 0.042,0.148 0.063,0.17 0.172,0.173 0.087,0.001 0.164,0.051 0.267,0.165 0.309,0.35 0.071,0.556 -0.467,0.403 -0.203,-0.056 -0.345,-0.068 -0.604,-0.047 -0.426,0.032 -0.624,0.021 -0.893,-0.047 -0.117,-0.031 -0.229,-0.051 -0.25,-0.045 -0.072,0.019 -0.193,-0.141 -0.191,-0.253 0.003,-0.198 0.124,-0.29 0.419,-0.324 0.146,-0.02 0.282,-0.045 0.3,-0.062 0.051,-0.048 0.052,-1.266 0.005,-2.727 -0.024,-0.728 -0.041,-1.579 -0.038,-1.896 0.004,-0.313 -0.008,-0.595 -0.023,-0.622 -0.018,-0.024 -0.071,-0.067 -0.119,-0.096 -0.052,-0.025 -0.101,-0.104 -0.113,-0.174 -0.021,-0.119 -0.032,-0.125 -0.301,-0.147 -0.32,-0.024 -0.431,-0.102 -0.387,-0.268 0.022,-0.083 0.069,-0.113 0.232,-0.147 0.11,-0.021 0.259,-0.041 0.329,-0.034 0.07,0.004 0.286,-0.023 0.479,-0.062 0.27,-0.05 0.493,-0.06 0.938,-0.038 0.531,0.026 0.602,0.04 0.793,0.146 0.188,0.104 0.274,0.185 0.271,0.245 0,0.013 -0.03,0.074 -0.066,0.137 l 0,0 z"
         inkscape:connector-curvature="0" /><g
         id="g1274"><g
           id="g1276"><path
             d="m 917.1,479.689 c -0.066,-0.088 -0.148,-0.354 -0.146,-0.486 0.002,-0.107 -0.025,-0.194 -0.203,-0.609 -0.146,-0.353 -0.687,-0.847 -1.021,-0.938 -0.071,-0.02 -0.243,-0.08 -0.38,-0.134 -0.165,-0.065 -0.302,-0.092 -0.411,-0.079 -0.111,0.013 -0.252,-0.015 -0.451,-0.093 -0.22,-0.085 -0.4,-0.119 -0.767,-0.145 l -0.479,-0.029 -0.218,0.13 c -0.118,0.071 -0.238,0.129 -0.265,0.128 -0.025,0 -0.254,0.203 -0.505,0.451 -0.252,0.248 -0.508,0.486 -0.566,0.533 -0.26,0.194 -0.453,0.626 -0.621,1.381 -0.08,0.359 -0.087,0.47 -0.058,0.871 0.06,0.777 0.157,1.171 0.438,1.771 0.204,0.437 0.478,0.849 0.562,0.853 0.093,0.002 0.437,0.287 0.603,0.505 0.343,0.444 0.916,0.707 1.328,0.601 0.094,-0.022 0.164,-0.023 0.178,-10e-4 0.04,0.065 0.309,0.049 0.458,-0.027 0.076,-0.04 0.332,-0.213 0.571,-0.385 0.235,-0.171 0.567,-0.398 0.738,-0.509 0.327,-0.208 0.791,-0.665 0.793,-0.781 10e-4,-0.038 0.053,-0.135 0.112,-0.215 0.259,-0.334 0.446,-0.896 0.505,-1.499 0.065,-0.693 0.017,-1.018 -0.195,-1.294 z m -1.188,1.486 c -0.131,1.077 -0.358,1.584 -0.976,2.167 -0.555,0.525 -0.808,0.625 -1.278,0.495 -0.438,-0.123 -0.521,-0.176 -0.724,-0.473 -0.269,-0.39 -0.55,-1.016 -0.546,-1.215 0,-0.038 -0.046,-0.221 -0.104,-0.406 -0.087,-0.282 -0.104,-0.414 -0.094,-0.83 0.005,-0.308 0.034,-0.59 0.079,-0.748 0.039,-0.139 0.092,-0.451 0.116,-0.694 0.025,-0.243 0.066,-0.516 0.093,-0.604 0.07,-0.248 0.393,-0.727 0.591,-0.881 0.352,-0.271 0.417,-0.296 0.801,-0.308 0.346,-0.012 0.367,-0.007 0.472,0.102 0.062,0.062 0.23,0.156 0.379,0.208 0.147,0.052 0.315,0.128 0.374,0.17 0.059,0.043 0.188,0.094 0.289,0.112 0.147,0.027 0.199,0.062 0.274,0.19 0.133,0.222 0.195,0.479 0.229,0.945 0.042,0.498 0.053,1.537 0.025,1.77 z"
             id="path1278"
             inkscape:connector-curvature="0" /></g></g><path
         id="path11400_1_"
         d="m 910.774,477.548 c -0.021,0.012 -0.031,0.166 -0.025,0.342 0.006,0.176 -0.008,0.354 -0.03,0.394 -0.021,0.042 -0.03,0.209 -0.02,0.373 0.02,0.249 0.008,0.326 -0.062,0.458 -0.047,0.086 -0.118,0.157 -0.156,0.156 -0.096,-0.001 -0.209,-0.139 -0.206,-0.251 0,-0.05 -0.021,-0.227 -0.046,-0.391 -0.036,-0.24 -0.061,-0.302 -0.122,-0.303 -0.041,-0.001 -0.174,-0.042 -0.297,-0.091 -0.157,-0.062 -0.397,-0.104 -0.838,-0.141 -0.339,-0.028 -0.767,-0.083 -0.949,-0.123 -0.477,-0.104 -0.615,-0.098 -0.661,0.019 -0.067,0.169 -0.197,1.313 -0.208,1.837 -0.034,1.601 -0.031,3.55 0.006,3.66 0.033,0.105 0.069,0.134 0.208,0.159 0.249,0.045 0.702,0.18 0.828,0.247 0.134,0.071 0.187,0.272 0.087,0.345 -0.036,0.027 -0.089,0.04 -0.117,0.029 -0.027,-0.012 -0.203,0.01 -0.391,0.049 -0.268,0.055 -0.522,0.066 -1.193,0.055 l -0.854,-0.017 -0.177,-0.121 c -0.098,-0.064 -0.177,-0.141 -0.175,-0.164 0,-0.042 0.169,-0.418 0.188,-0.422 0.005,-10e-4 0.159,-0.016 0.342,-0.031 0.184,-0.016 0.335,-0.037 0.341,-0.045 0.007,-0.008 0.003,-0.273 -0.005,-0.59 -0.013,-0.457 0.037,-2.836 0.08,-3.971 0.005,-0.112 -0.012,-0.31 -0.036,-0.438 -0.022,-0.128 -0.063,-0.337 -0.088,-0.464 -0.064,-0.34 -0.073,-0.346 -0.307,-0.249 -0.198,0.084 -0.291,0.077 -0.405,-0.03 -0.036,-0.03 -0.104,-0.093 -0.158,-0.134 -0.104,-0.084 -0.09,-0.242 0.022,-0.284 0.189,-0.067 0.988,-0.091 2.425,-0.067 1.219,0.019 1.718,0.011 2.037,-0.032 0.545,-0.073 0.561,-0.073 0.799,0.04 0.194,0.093 0.241,0.151 0.163,0.196 l 0,0 z"
         inkscape:connector-curvature="0" /><g
         id="g1281"><g
           id="g1283"><path
             d="m 904.055,479.579 c -0.046,-0.103 -0.085,-0.207 -0.085,-0.229 0.002,-0.124 -0.303,-0.671 -0.494,-0.894 -0.549,-0.629 -1.332,-0.982 -2.279,-1.03 -0.104,-0.004 -0.276,-0.045 -0.381,-0.088 -0.171,-0.07 -0.231,-0.074 -0.574,-0.034 -0.245,0.027 -0.518,0.097 -0.748,0.188 -0.422,0.165 -0.543,0.239 -0.839,0.508 -0.12,0.109 -0.268,0.209 -0.329,0.223 -0.086,0.018 -0.134,0.076 -0.207,0.247 -0.158,0.375 -0.229,0.781 -0.271,1.581 -0.032,0.613 -0.028,0.845 0.022,1.171 0.086,0.552 0.115,0.666 0.238,0.952 0.06,0.136 0.106,0.279 0.105,0.319 0.001,0.04 0.042,0.15 0.097,0.244 0.056,0.095 0.148,0.277 0.213,0.404 0.062,0.127 0.229,0.354 0.367,0.508 0.214,0.229 0.312,0.301 0.613,0.43 0.195,0.084 0.376,0.155 0.4,0.156 0.024,10e-4 0.155,0.062 0.293,0.132 0.367,0.19 0.537,0.205 0.917,0.08 0.177,-0.059 0.481,-0.129 0.677,-0.158 0.258,-0.038 0.416,-0.089 0.577,-0.188 0.313,-0.191 0.63,-0.452 0.7,-0.577 0.031,-0.059 0.135,-0.19 0.23,-0.293 0.094,-0.103 0.207,-0.254 0.251,-0.336 0.044,-0.082 0.112,-0.196 0.152,-0.254 0.04,-0.061 0.089,-0.172 0.105,-0.253 0.02,-0.082 0.103,-0.346 0.188,-0.584 0.084,-0.239 0.172,-0.562 0.194,-0.721 0.102,-0.682 0.067,-1.07 -0.132,-1.504 z m -0.996,2.688 c -0.126,0.317 -0.217,0.498 -0.295,0.585 -0.093,0.103 -1.225,0.922 -1.383,1.001 -0.148,0.073 -0.659,0.118 -0.862,0.076 -0.154,-0.032 -0.648,-0.351 -0.848,-0.544 -0.065,-0.063 -0.157,-0.192 -0.203,-0.285 -0.132,-0.271 -0.271,-0.84 -0.269,-1.094 0.001,-0.138 -0.042,-0.379 -0.103,-0.576 -0.096,-0.312 -0.104,-0.4 -0.091,-1.048 0.008,-0.39 0.036,-0.79 0.063,-0.895 0.079,-0.29 0.278,-0.744 0.389,-0.88 0.354,-0.442 0.444,-0.52 0.781,-0.667 0.055,-0.021 0.28,-0.051 0.5,-0.061 0.322,-0.017 0.438,-0.005 0.604,0.061 0.396,0.153 0.781,0.424 1.146,0.8 0.346,0.354 0.365,0.389 0.431,0.671 0.038,0.165 0.094,0.4 0.125,0.523 0.03,0.123 0.064,0.401 0.073,0.618 0.045,0.984 0.029,1.496 -0.058,1.715 z"
             id="path1285"
             inkscape:connector-curvature="0" /></g></g><path
         id="path11378_1_"
         d="m 897.481,484.104 c -0.037,0.029 -0.125,0.041 -0.202,0.028 -0.161,-0.026 -0.415,0.08 -0.418,0.176 -10e-4,0.067 -0.147,0.208 -0.214,0.207 -0.021,0 -0.075,-0.068 -0.123,-0.15 l -0.084,-0.148 -0.375,-0.014 c -0.865,-0.027 -0.92,-0.031 -0.935,-0.082 -0.01,-0.025 -0.062,-0.104 -0.118,-0.172 -0.259,-0.311 -0.177,-0.399 0.357,-0.391 l 0.401,0.007 -0.098,-0.183 c -0.177,-0.323 -0.218,-0.395 -0.271,-0.453 -0.029,-0.032 -0.054,-0.078 -0.052,-0.102 0,-0.021 -0.044,-0.111 -0.099,-0.199 -0.218,-0.359 -0.729,-1.331 -0.771,-1.473 -0.026,-0.081 -0.062,-0.168 -0.076,-0.19 -0.051,-0.068 -0.236,-0.688 -0.264,-0.864 -0.047,-0.329 -0.187,-0.977 -0.224,-1.052 -0.036,-0.071 -0.05,-0.066 -0.147,0.061 -0.146,0.189 -0.289,0.46 -0.424,0.816 -0.063,0.162 -0.167,0.428 -0.229,0.591 -0.172,0.438 -0.382,1.034 -0.384,1.084 0,0.025 -0.027,0.104 -0.062,0.178 -0.181,0.396 -0.421,1.487 -0.347,1.579 0.022,0.032 0.036,0.129 0.025,0.217 l -0.017,0.162 0.242,0.026 c 0.176,0.018 0.259,0.05 0.302,0.107 0.109,0.154 0.022,0.248 -0.326,0.358 -0.179,0.055 -0.355,0.127 -0.396,0.161 -0.062,0.052 -0.119,0.046 -0.44,-0.046 -0.2,-0.06 -0.425,-0.114 -0.493,-0.124 -0.069,-0.012 -0.206,-0.042 -0.301,-0.068 -0.146,-0.04 -0.201,-0.034 -0.404,0.057 -0.317,0.138 -0.348,0.145 -0.456,0.103 -0.066,-0.027 -0.096,-0.073 -0.094,-0.153 0.002,-0.062 0.017,-0.102 0.03,-0.086 0.017,0.019 0.059,0.002 0.098,-0.027 0.038,-0.033 0.229,-0.141 0.425,-0.238 0.766,-0.383 0.729,-0.351 0.938,-0.839 0.325,-0.756 0.521,-1.196 0.665,-1.487 0.584,-1.182 1.349,-2.883 1.351,-3.007 0,-0.021 0.048,-0.088 0.107,-0.155 0.061,-0.065 0.111,-0.167 0.111,-0.223 0,-0.056 0.042,-0.145 0.09,-0.193 0.049,-0.051 0.1,-0.134 0.115,-0.187 0.035,-0.137 0.199,-0.125 0.287,0.017 0.038,0.062 0.133,0.264 0.207,0.453 0.078,0.19 0.229,0.503 0.34,0.696 0.191,0.336 0.385,0.73 0.397,0.822 0.013,0.089 0.627,1.422 0.743,1.611 0.051,0.084 0.12,0.24 0.154,0.345 0.056,0.177 0.125,0.354 0.248,0.638 0.022,0.058 0.149,0.31 0.28,0.558 0.131,0.25 0.236,0.494 0.235,0.544 -0.002,0.12 0.062,0.166 0.316,0.23 0.267,0.066 0.495,0.244 0.396,0.307 -0.044,0.028 -0.048,0.042 -0.011,0.043 0.079,-0.001 0.074,0.061 -0.005,0.124 l 0,0 z"
         inkscape:connector-curvature="0" /><path
         id="path11376_1_"
         d="m 893.794,478.136 c -0.015,0.014 -0.018,0.051 -0.006,0.081 0.015,0.032 0.023,0.022 0.026,-0.025 0.003,-0.045 -0.005,-0.071 -0.02,-0.056 l 0,0 z"
         inkscape:connector-curvature="0" /></g><g
       transform="translate(-964.595,46.328213)"
       id="g4393"
       style="fill:#000000;fill-opacity:1;stroke:#000000;stroke-width:0.60000002;stroke-miterlimit:4;stroke-dasharray:none;stroke-opacity:1"
       inkscape:export-filename="/Users/mars/devel/RebelTechnology/ClockDelay/drawings/g240.png"
       inkscape:export-xdpi="90"
       inkscape:export-ydpi="90"><path
         inkscape:connector-curvature="0"
         id="path4395"
         d="m 1014.22,505.804 c -0.088,0.043 -0.213,0.066 -0.371,0.073 -0.146,-0.009 -0.287,-0.013 -0.422,-0.014 -0.141,0.019 -0.291,0.019 -0.451,0.002 -0.159,-0.015 -0.301,-0.024 -0.422,-0.03 -0.12,-0.008 -0.272,0.011 -0.461,0.051 -0.188,0.039 -0.292,0.062 -0.314,0.068 -0.22,0.032 -0.416,0.048 -0.59,0.046 -0.176,-0.005 -0.354,-0.007 -0.543,-0.01 -0.046,-0.096 -0.092,-0.137 -0.139,-0.124 -0.095,0.056 -0.19,0.098 -0.293,0.126 -0.093,0.028 -0.193,0.043 -0.304,0.049 -0.107,0.004 -0.245,-0.019 -0.411,-0.061 -0.125,-0.021 -0.271,-0.033 -0.436,-0.034 -0.166,-0.001 -0.396,0.022 -0.696,0.07 -0.066,0.003 -0.146,-0.021 -0.242,-0.066 -0.096,-0.048 -0.167,-0.066 -0.216,-0.062 -0.13,-0.012 -0.328,0.001 -0.592,0.039 -0.264,0.037 -0.426,0.056 -0.483,0.057 -0.197,-0.008 -0.391,-0.018 -0.579,-0.028 -0.019,-0.003 -0.079,0.017 -0.182,0.057 -0.104,0.039 -0.17,0.059 -0.204,0.061 -0.399,0.021 -0.624,0.029 -0.67,0.031 -0.046,10e-4 -0.177,-0.004 -0.393,-0.016 -0.278,0 -0.562,0 -0.85,0.003 -0.1,-0.021 -0.183,-0.143 -0.248,-0.357 0.01,-0.035 0.012,-0.073 0.018,-0.113 0,-0.039 0,-0.086 -0.018,-0.141 -0.035,-0.116 -0.076,-0.195 -0.122,-0.236 -0.046,-0.041 -0.064,-0.074 -0.058,-0.104 0.041,-0.004 0.079,-0.037 0.11,-0.097 0.032,-0.062 0.073,-0.097 0.122,-0.103 0.099,-0.013 0.218,-0.01 0.358,0.006 0.411,0.045 0.666,0.066 0.769,0.062 0.101,-0.005 0.207,-0.003 0.319,0.005 0.358,0.036 0.557,0.052 0.594,0.049 0.037,-0.003 0.096,-0.016 0.173,-0.04 0.125,-0.038 0.215,-0.062 0.269,-0.081 0.022,-0.007 0.048,-0.014 0.07,-0.021 0.034,0.006 0.069,0.007 0.104,0.005 0.032,-0.002 0.151,0.011 0.354,0.039 0.125,0.02 0.214,0.025 0.268,0.021 0.055,-0.004 0.102,-0.013 0.14,-0.022 0.108,-0.033 0.177,-0.048 0.202,-0.048 l 0.896,0.061 0.602,0.009 c 0.117,-10e-4 0.206,-0.007 0.263,-0.016 0.243,-0.006 0.409,-0.02 0.498,-0.036 0.115,-0.009 0.236,-0.01 0.362,-0.001 0.126,0.009 0.244,0.017 0.356,0.025 l 0.646,-0.007 c 0.118,-0.025 0.238,-0.051 0.359,-0.068 0.111,0.008 0.255,0.016 0.427,0.021 0.021,0.003 0.209,0.005 0.574,0.005 0.094,0.031 0.188,0.062 0.283,0.095 0.018,0.003 0.07,-0.015 0.161,-0.05 0.093,-0.036 0.154,-0.056 0.188,-0.058 0.096,-0.021 0.187,-0.039 0.271,-0.056 0.084,-0.019 0.198,-0.031 0.345,-0.041 0.146,-0.01 0.254,-0.017 0.326,-0.018 0.071,0 0.163,0.033 0.276,0.103 0.01,0.015 0.01,0.055 0,0.119 0,0.062 0.015,0.146 0.043,0.248 0.021,0.062 0.047,0.106 0.082,0.14 0.037,0.031 0.08,0.064 0.136,0.1 0.028,0.102 0.053,0.18 0.067,0.232 0.021,0.07 0.01,0.112 -0.037,0.126 -0.048,0.022 -0.147,0.005 -0.288,-0.045 z"
         style="fill:#000000;fill-opacity:1;stroke:#000000;stroke-width:0.60000002;stroke-miterlimit:4;stroke-dasharray:none;stroke-opacity:1" /><path
         inkscape:connector-curvature="0"
         id="path4397"
         d="m 1009.659,510.34 c -0.087,0.031 -0.149,0.05 -0.189,0.05 -0.065,0 -0.117,-0.004 -0.149,-0.01 -0.101,-0.027 -0.186,-0.051 -0.255,-0.066 -0.07,-0.016 -0.134,-0.041 -0.19,-0.074 -0.057,-0.034 -0.118,-0.084 -0.185,-0.149 -0.01,-0.009 -0.032,-0.021 -0.075,-0.04 -0.043,-0.021 -0.064,-0.059 -0.064,-0.11 -0.086,-0.161 -0.131,-0.325 -0.131,-0.493 0,-0.04 0.01,-0.094 0.021,-0.16 0.033,-0.188 0.117,-0.353 0.25,-0.493 0.021,0.009 0.043,0.014 0.065,0.017 0.022,0.004 0.042,-0.035 0.055,-0.115 0.105,-0.087 0.221,-0.145 0.341,-0.171 0.054,0 0.095,0 0.121,0 0.116,0 0.241,0.021 0.378,0.06 0.021,-0.006 0.048,0.01 0.081,0.041 0.055,0.021 0.097,0.039 0.128,0.062 0.03,0.021 0.079,0.06 0.147,0.12 0.088,0.1 0.135,0.151 0.144,0.16 0.032,0.06 0.054,0.1 0.062,0.117 -0.021,0.021 -0.03,0.041 -0.03,0.062 0,0.02 0.018,0.029 0.052,0.029 0.032,0.021 0.05,0.051 0.05,0.091 0,0.054 0,0.087 0,0.101 0,0.061 -0.013,0.117 -0.035,0.174 -0.022,0.059 -0.049,0.119 -0.073,0.188 -0.01,0.053 -0.017,0.104 -0.024,0.16 -0.011,0.053 -0.028,0.1 -0.056,0.14 l -0.102,0.07 c -0.106,0.087 -0.217,0.17 -0.337,0.239 z"
         style="fill:#000000;fill-opacity:1;stroke:#000000;stroke-width:0.60000002;stroke-miterlimit:4;stroke-dasharray:none;stroke-opacity:1" /><path
         inkscape:connector-curvature="0"
         id="path4399"
         d="m 1009.635,502.673 c -0.087,0.031 -0.149,0.05 -0.189,0.05 -0.066,0 -0.117,-0.003 -0.15,-0.01 -0.1,-0.027 -0.185,-0.051 -0.255,-0.065 -0.069,-0.017 -0.134,-0.042 -0.189,-0.076 -0.058,-0.033 -0.117,-0.083 -0.186,-0.148 -0.01,-0.009 -0.031,-0.021 -0.074,-0.041 -0.044,-0.021 -0.064,-0.059 -0.064,-0.11 -0.087,-0.161 -0.131,-0.325 -0.131,-0.493 0,-0.041 0.01,-0.094 0.021,-0.161 0.033,-0.188 0.116,-0.352 0.25,-0.493 0.021,0.009 0.042,0.014 0.065,0.017 0.022,0.003 0.042,-0.035 0.055,-0.115 0.106,-0.087 0.221,-0.145 0.34,-0.171 0.055,0 0.096,0 0.122,0 0.115,0 0.241,0.02 0.377,0.06 0.021,-0.006 0.049,0.009 0.081,0.04 0.056,0.021 0.099,0.04 0.128,0.062 0.03,0.02 0.079,0.06 0.147,0.12 0.088,0.1 0.136,0.151 0.143,0.16 0.034,0.06 0.056,0.1 0.062,0.118 -0.021,0.021 -0.03,0.04 -0.03,0.062 0,0.02 0.018,0.03 0.051,0.03 0.033,0.02 0.051,0.05 0.051,0.09 0,0.053 0,0.086 0,0.1 0,0.062 -0.013,0.118 -0.035,0.175 -0.022,0.059 -0.048,0.118 -0.074,0.187 -0.01,0.053 -0.016,0.104 -0.025,0.16 -0.01,0.053 -0.026,0.1 -0.055,0.14 l -0.101,0.07 c -0.105,0.09 -0.215,0.173 -0.335,0.242 z"
         style="fill:#000000;fill-opacity:1;stroke:#000000;stroke-width:0.60000002;stroke-miterlimit:4;stroke-dasharray:none;stroke-opacity:1" /></g><g
       transform="translate(-784.53704,45.893213)"
       id="g4401"
       style="fill:#000000;fill-opacity:1;stroke:#000000;stroke-width:0.60000002;stroke-miterlimit:4;stroke-dasharray:none;stroke-opacity:1"
       inkscape:export-filename="/Users/mars/devel/RebelTechnology/ClockDelay/drawings/g240.png"
       inkscape:export-xdpi="90"
       inkscape:export-ydpi="90"><path
         inkscape:connector-curvature="0"
         id="path4403"
         d="m 924.434,504.724 c 0.101,0.096 0.19,0.181 0.273,0.255 0.055,0.099 0.033,0.196 -0.061,0.294 -0.095,0.097 -0.191,0.173 -0.29,0.229 -0.071,0.037 -0.155,0.064 -0.252,0.08 -0.098,0.019 -0.18,0.03 -0.248,0.04 -0.017,0.036 -0.038,0.065 -0.062,0.09 -0.025,0.021 -0.052,0.042 -0.08,0.057 -0.093,0.051 -0.229,0.036 -0.41,-0.044 -0.182,-0.079 -0.372,-0.092 -0.571,-0.037 -0.21,-0.032 -0.365,-0.054 -0.462,-0.062 -0.315,-0.039 -0.497,-0.054 -0.545,-0.04 -0.049,0.014 -0.103,0.017 -0.16,0.012 -0.059,-0.005 -0.103,-0.006 -0.133,-0.003 -0.031,0.003 -0.103,0.026 -0.215,0.075 -0.11,0.048 -0.183,0.072 -0.21,0.078 -0.028,0.009 -0.082,-10e-4 -0.157,-0.021 -0.077,-0.022 -0.118,-0.031 -0.125,-0.027 -0.429,0.061 -0.659,0.09 -0.696,0.091 -0.126,0.007 -0.22,-0.018 -0.283,-0.062 l -0.1,0.095 c -0.031,-0.057 -0.094,-0.086 -0.188,-0.09 -0.291,0.021 -0.555,0.032 -0.792,0.033 -0.237,0.002 -0.462,0.005 -0.674,0.011 -0.212,0.006 -0.343,0.021 -0.393,0.049 -0.031,-0.057 -0.125,-0.097 -0.285,-0.12 -0.159,-0.021 -0.265,-0.057 -0.315,-0.102 -0.208,-0.18 -0.404,-0.22 -0.587,-0.119 -0.017,0.035 -0.029,0.062 -0.04,0.076 -0.052,0.073 -0.112,0.13 -0.183,0.168 -0.12,0.066 -0.252,0.06 -0.396,-0.018 -0.144,-0.078 -0.311,-0.065 -0.5,0.037 l -0.052,0.028 c -0.114,0.062 -0.269,0.077 -0.464,0.047 -0.194,-0.03 -0.331,-0.117 -0.407,-0.259 -0.047,-0.085 -0.053,-0.193 -0.021,-0.325 0.033,-0.133 0.099,-0.226 0.197,-0.277 0.07,-0.038 0.17,-0.059 0.3,-0.056 0.13,0.002 0.203,0.003 0.222,0.003 0.084,-0.046 0.169,-0.092 0.254,-0.139 0.062,0.013 0.175,0.011 0.341,-0.006 0.092,-0.017 0.188,-0.025 0.283,-0.032 0.029,0.003 0.111,0.023 0.248,0.064 0.138,0.04 0.256,0.062 0.361,0.068 0.256,0.018 0.444,0.021 0.565,0.007 0.058,-0.012 0.125,-0.021 0.207,-0.021 0.08,-0.004 0.186,0.02 0.312,0.069 0.128,0.049 0.206,0.073 0.234,0.075 0.104,0.01 0.175,-10e-4 0.212,-0.024 0.037,-0.024 0.073,-0.046 0.107,-0.065 0.098,-0.007 0.168,-0.001 0.216,0.021 0.048,0.02 0.096,0.029 0.142,0.031 0.048,0.004 0.076,-0.008 0.089,-0.026 0.012,-0.021 0.025,-0.03 0.045,-0.031 0.123,0.025 0.236,0.026 0.345,0.004 0.092,-0.032 0.189,-0.062 0.293,-0.091 l 1.251,0.004 1.033,-0.041 c 0.059,-0.014 0.216,-0.004 0.478,0.028 0.26,0.032 0.429,0.025 0.506,-0.018 0.034,-0.037 0.066,-0.066 0.1,-0.095 0.031,-0.026 0.051,-0.05 0.058,-0.072 l 0.481,-0.05 0.715,0.094 0.489,0.06 z"
         style="fill:#000000;fill-opacity:1;stroke:#000000;stroke-width:0.60000002;stroke-miterlimit:4;stroke-dasharray:none;stroke-opacity:1" /><path
         inkscape:connector-curvature="0"
         id="path4405"
         d="m 918.891,500.73 c 0.095,-0.103 0.179,-0.194 0.25,-0.278 0.099,-0.056 0.195,-0.036 0.295,0.058 0.099,0.093 0.176,0.188 0.231,0.287 0.039,0.068 0.068,0.151 0.086,0.25 0.02,0.097 0.032,0.179 0.043,0.245 0.037,0.018 0.066,0.036 0.089,0.062 0.022,0.024 0.043,0.051 0.059,0.078 0.053,0.092 0.04,0.229 -0.036,0.411 -0.077,0.183 -0.086,0.373 -0.027,0.571 -0.029,0.212 -0.049,0.365 -0.058,0.465 -0.033,0.313 -0.043,0.498 -0.03,0.546 0.015,0.048 0.019,0.102 0.015,0.157 -0.004,0.061 -0.004,0.104 -10e-4,0.135 0.003,0.028 0.03,0.102 0.079,0.213 0.049,0.108 0.078,0.181 0.084,0.209 0.007,0.029 0,0.082 -0.021,0.158 -0.021,0.075 -0.03,0.117 -0.025,0.126 0.065,0.427 0.1,0.655 0.103,0.692 0.007,0.126 -0.015,0.223 -0.062,0.284 l 0.097,0.098 c -0.057,0.032 -0.085,0.097 -0.087,0.188 0.024,0.291 0.041,0.554 0.047,0.791 0.005,0.237 0.012,0.462 0.021,0.673 0.01,0.212 0.028,0.343 0.056,0.392 -0.057,0.032 -0.095,0.129 -0.114,0.286 -0.021,0.16 -0.054,0.268 -0.097,0.318 -0.178,0.21 -0.214,0.407 -0.109,0.589 0.036,0.016 0.062,0.028 0.077,0.039 0.073,0.05 0.132,0.11 0.171,0.179 0.067,0.12 0.062,0.252 -0.013,0.396 -0.075,0.144 -0.061,0.311 0.048,0.5 l 0.028,0.052 c 0.063,0.112 0.081,0.266 0.054,0.462 -0.027,0.195 -0.111,0.333 -0.25,0.412 -0.084,0.047 -0.192,0.056 -0.325,0.025 -0.134,-0.032 -0.228,-0.098 -0.283,-0.194 -0.04,-0.069 -0.058,-0.169 -0.058,-0.298 0,-0.13 0,-0.204 0,-0.222 -0.049,-0.085 -0.097,-0.171 -0.145,-0.254 0.012,-0.062 0.008,-0.175 -0.012,-0.34 -0.017,-0.092 -0.028,-0.187 -0.037,-0.281 0.002,-0.029 0.021,-0.112 0.061,-0.249 0.038,-0.14 0.06,-0.26 0.063,-0.362 0.012,-0.256 0.012,-0.445 -10e-4,-0.567 -0.014,-0.056 -0.022,-0.124 -0.025,-0.205 -0.006,-0.081 0.017,-0.186 0.063,-0.312 0.047,-0.128 0.071,-0.207 0.073,-0.235 0.006,-0.104 -0.004,-0.175 -0.029,-0.211 -0.024,-0.037 -0.047,-0.073 -0.067,-0.105 -0.009,-0.1 -0.004,-0.169 0.017,-0.219 0.021,-0.048 0.029,-0.096 0.031,-0.143 0.002,-0.047 -0.009,-0.075 -0.028,-0.087 -0.021,-0.012 -0.031,-0.025 -0.032,-0.045 0.022,-0.123 0.021,-0.238 -10e-4,-0.347 -0.034,-0.092 -0.064,-0.188 -0.097,-0.292 l -0.018,-1.251 -0.058,-1.031 c -0.016,-0.06 -0.009,-0.218 0.021,-0.479 0.027,-0.26 0.021,-0.428 -0.022,-0.506 -0.038,-0.033 -0.069,-0.064 -0.098,-0.098 -0.025,-0.03 -0.052,-0.049 -0.072,-0.057 l -0.059,-0.479 0.082,-0.717 0.053,-0.483 z"
         style="fill:#000000;fill-opacity:1;stroke:#000000;stroke-width:0.60000002;stroke-miterlimit:4;stroke-dasharray:none;stroke-opacity:1" /></g><polyline
       transform="matrix(-0.78232519,-0.62287021,-0.62287021,0.78232519,1259.1124,505.69826)"
       id="polyline12243"
       points="899.681,642.148 890.434,656.964 899.845,659.61 "
       inkscape:export-filename="/Users/mars/devel/RebelTechnology/ClockDelay/drawings/g240.png"
       inkscape:export-xdpi="90"
       inkscape:export-ydpi="90" /><g
       transform="translate(129.45573,-609.07937)"
       id="g12249"
       style="fill:#000000;fill-opacity:1"
       inkscape:export-filename="/Users/mars/devel/RebelTechnology/ClockDelay/drawings/g240.png"
       inkscape:export-xdpi="90"
       inkscape:export-ydpi="90"><line
         style="fill:#000000;fill-opacity:1;stroke:#030303;stroke-width:1;stroke-miterlimit:4;stroke-dasharray:none"
         id="line12251"
         y2="1164.179"
         x2="-45.483688"
         y1="1156.1982"
         x1="-45.483688" /><path
         style="fill:#000000;fill-opacity:1;stroke:#030303;stroke-width:0.68556148"
         inkscape:connector-curvature="0"
         id="path12253"
         d="M -45.404197,1160.1512" /><line
         style="fill:#000000;fill-opacity:1;stroke:#030303;stroke-width:1;stroke-miterlimit:4;stroke-dasharray:none"
         id="line12255"
         y2="1160.1512"
         x2="-41.735779"
         y1="1160.1512"
         x1="-33.28978" /><polygon
         style="fill:#000000;fill-opacity:1"
         id="polygon12257"
         points="1147.021,616.055 1155.104,613.322 1147.078,610.646 "
         transform="matrix(-0.68556145,0,0,0.68556145,746.49469,739.69709)" /></g><path
       style="fill:none;stroke:#000000;stroke-width:1px;stroke-linecap:butt;stroke-linejoin:miter;stroke-opacity:1"
       d="m 39.583755,599.85166 3.5984,0 0,-6 2.8539,0 0,6 2.85391,0"
       id="path12259"
       inkscape:connector-curvature="0"
       sodipodi:nodetypes="cccccc"
       inkscape:export-filename="/Users/mars/devel/RebelTechnology/ClockDelay/drawings/g240.png"
       inkscape:export-xdpi="90"
       inkscape:export-ydpi="90" /><path
       sodipodi:nodetypes="cccccc"
       inkscape:connector-curvature="0"
       id="path12261"
       d="m 129.62673,599.85166 3.5984,0 0,-6 2.8539,0 0,6 2.85391,0"
       style="fill:none;stroke:#000000;stroke-width:1px;stroke-linecap:butt;stroke-linejoin:miter;stroke-opacity:1"
       inkscape:export-filename="/Users/mars/devel/RebelTechnology/ClockDelay/drawings/g240.png"
       inkscape:export-xdpi="90"
       inkscape:export-ydpi="90" /><g
       style="display:inline;fill:none;stroke:#ff0000;stroke-width:0.05"
       id="g4397"
       transform="matrix(3.5433071,0,0,3.5433071,44.469405,352.44321)"><g
         id="g4399"><path
           id="path4401"
           d="M -4.2037748,7.5814929 C -6.8346316,6.1114925 -8.6120123,3.3014922 -8.6120123,0.07148931 c 0,-4.75000381 3.8628404,-8.61000481 8.6282233,-8.61000481 4.764047,0 8.627555,3.8600011 8.627555,8.61000481 0,3.23000299 -1.780051,6.04000329 -4.414579,7.52000359"
           style="fill:none;stroke:#030303;stroke-width:0.212"
           inkscape:connector-curvature="0" /><path
           id="path4403-8"
           d="m -2.440413,-9.0485165 0.216323,0.810001"
           style="fill:none;stroke:#030303;stroke-width:0.212"
           inkscape:connector-curvature="0" /><path
           id="path4405-5"
           d="m -5.1129926,-8.7785155 0.8080822,1.4000001"
           style="fill:none;stroke:#030303;stroke-width:0.28299999"
           inkscape:connector-curvature="0" /><path
           id="path4407"
           d="m -6.6800914,-6.5985155 0.5891225,0.59"
           style="fill:none;stroke:#030303;stroke-width:0.212"
           inkscape:connector-curvature="0" /><path
           id="path4409"
           d="m -8.8466601,-5.0285155 1.3848552,0.8000013"
           style="fill:none;stroke:#030303;stroke-width:0.28299999"
           inkscape:connector-curvature="0" /><path
           id="path4411"
           d="m -9.1267017,-2.3685125 0.8044106,0.2200004"
           style="fill:none;stroke:#030303;stroke-width:0.212"
           inkscape:connector-curvature="0" /><path
           id="path4413"
           d="m -10.221501,0.08148931 1.6061507,0"
           style="fill:none;stroke:#030303;stroke-width:0.28299999"
           inkscape:connector-curvature="0" /><path
           id="path4415"
           d="M -9.1243652,2.5214918 -8.3199546,2.3014913"
           style="fill:none;stroke:#030303;stroke-width:0.212"
           inkscape:connector-curvature="0" /><path
           id="path4417"
           d="M -8.8489964,5.181492 -7.4574658,4.3814921"
           style="fill:none;stroke:#030303;stroke-width:0.28299999"
           inkscape:connector-curvature="0" /><path
           id="path4419"
           d="m -6.6737496,6.7514925 0.5877873,-0.59"
           style="fill:none;stroke:#030303;stroke-width:0.212"
           inkscape:connector-curvature="0" /><path
           id="path4421"
           d="m -5.0742739,8.871494 0.776373,-1.3400011"
           style="fill:none;stroke:#030303;stroke-width:0.28299999"
           inkscape:connector-curvature="0" /><path
           id="path4423"
           d="M 5.113671,8.8814939 4.329988,7.5214929"
           style="fill:none;stroke:#030303;stroke-width:0.28299999"
           inkscape:connector-curvature="0" /><path
           id="path4425"
           d="m 6.704836,6.7414925 -0.588789,-0.58"
           style="fill:none;stroke:#030303;stroke-width:0.212"
           inkscape:connector-curvature="0" /><path
           id="path4427"
           d="m 8.846371,5.1614921 -1.360155,-0.79"
           style="fill:none;stroke:#030303;stroke-width:0.28299999"
           inkscape:connector-curvature="0" /><path
           id="path4429"
           d="M 9.151112,2.5114918 8.347402,2.2914913"
           style="fill:none;stroke:#030303;stroke-width:0.212"
           inkscape:connector-curvature="0" /><path
           id="path4431"
           d="m 10.195511,0.07148931 -1.555417,0"
           style="fill:none;stroke:#030303;stroke-width:0.28299999"
           inkscape:connector-curvature="0" /><path
           id="path4433"
           d="M 9.148809,-2.3785126 8.344698,-2.1585121"
           style="fill:none;stroke:#030303;stroke-width:0.212"
           inkscape:connector-curvature="0" /><path
           id="path4435"
           d="M 8.836691,-5.0185155 7.482544,-4.2385142"
           style="fill:none;stroke:#030303;stroke-width:0.28299999"
           inkscape:connector-curvature="0" /><path
           id="path4437"
           d="m 6.699128,-6.6085155 -0.588421,0.59"
           style="fill:none;stroke:#030303;stroke-width:0.212"
           inkscape:connector-curvature="0" /><path
           id="path4439"
           d="m 5.131729,-8.7785155 -0.80875,1.39"
           style="fill:none;stroke:#030303;stroke-width:0.28299999"
           inkscape:connector-curvature="0" /><path
           id="path4441"
           d="m 2.456813,-9.0485165 -0.215288,0.800001"
           style="fill:none;stroke:#030303;stroke-width:0.212"
           inkscape:connector-curvature="0" /><path
           id="path4443"
           d="m 0.007833,-10.128517 0,1.5900015"
           style="fill:none;stroke:#030303;stroke-width:0.28299999"
           inkscape:connector-curvature="0" /></g></g><g
       style="display:inline;fill:none;stroke:#ff0000;stroke-width:0.05"
       id="g4447"
       transform="matrix(3.5433071,0,0,3.5433071,134.46942,352.44321)"><g
         id="g4449"><path
           id="path4451"
           d="M -4.2037748,7.5814929 C -6.8346316,6.1114925 -8.6120123,3.3014922 -8.6120123,0.07148931 c 0,-4.75000381 3.8628404,-8.61000481 8.6282233,-8.61000481 4.764047,0 8.627555,3.8600011 8.627555,8.61000481 0,3.23000299 -1.780051,6.04000329 -4.414579,7.52000359"
           style="fill:none;stroke:#030303;stroke-width:0.212"
           inkscape:connector-curvature="0" /><path
           id="path4453"
           d="m -2.440413,-9.0485165 0.216323,0.810001"
           style="fill:none;stroke:#030303;stroke-width:0.212"
           inkscape:connector-curvature="0" /><path
           id="path4455"
           d="m -5.1129926,-8.7785155 0.8080822,1.4000001"
           style="fill:none;stroke:#030303;stroke-width:0.28299999"
           inkscape:connector-curvature="0" /><path
           id="path4457"
           d="m -6.6800914,-6.5985155 0.5891225,0.59"
           style="fill:none;stroke:#030303;stroke-width:0.212"
           inkscape:connector-curvature="0" /><path
           id="path4459"
           d="m -8.8466601,-5.0285155 1.3848552,0.8000013"
           style="fill:none;stroke:#030303;stroke-width:0.28299999"
           inkscape:connector-curvature="0" /><path
           id="path4461"
           d="m -9.1267017,-2.3685125 0.8044106,0.2200004"
           style="fill:none;stroke:#030303;stroke-width:0.212"
           inkscape:connector-curvature="0" /><path
           id="path4463"
           d="m -10.221501,0.08148931 1.6061507,0"
           style="fill:none;stroke:#030303;stroke-width:0.28299999"
           inkscape:connector-curvature="0" /><path
           id="path4465"
           d="M -9.1243652,2.5214918 -8.3199546,2.3014913"
           style="fill:none;stroke:#030303;stroke-width:0.212"
           inkscape:connector-curvature="0" /><path
           id="path4467"
           d="M -8.8489964,5.181492 -7.4574658,4.3814921"
           style="fill:none;stroke:#030303;stroke-width:0.28299999"
           inkscape:connector-curvature="0" /><path
           id="path4469"
           d="m -6.6737496,6.7514925 0.5877873,-0.59"
           style="fill:none;stroke:#030303;stroke-width:0.212"
           inkscape:connector-curvature="0" /><path
           id="path4471"
           d="m -5.0742739,8.871494 0.776373,-1.3400011"
           style="fill:none;stroke:#030303;stroke-width:0.28299999"
           inkscape:connector-curvature="0" /><path
           id="path4473"
           d="M 5.113671,8.8814939 4.329988,7.5214929"
           style="fill:none;stroke:#030303;stroke-width:0.28299999"
           inkscape:connector-curvature="0" /><path
           id="path4475"
           d="m 6.704836,6.7414925 -0.588789,-0.58"
           style="fill:none;stroke:#030303;stroke-width:0.212"
           inkscape:connector-curvature="0" /><path
           id="path4477"
           d="m 8.846371,5.1614921 -1.360155,-0.79"
           style="fill:none;stroke:#030303;stroke-width:0.28299999"
           inkscape:connector-curvature="0" /><path
           id="path4479"
           d="M 9.151112,2.5114918 8.347402,2.2914913"
           style="fill:none;stroke:#030303;stroke-width:0.212"
           inkscape:connector-curvature="0" /><path
           id="path4481"
           d="m 10.195511,0.07148931 -1.555417,0"
           style="fill:none;stroke:#030303;stroke-width:0.28299999"
           inkscape:connector-curvature="0" /><path
           id="path4483"
           d="M 9.148809,-2.3785126 8.344698,-2.1585121"
           style="fill:none;stroke:#030303;stroke-width:0.212"
           inkscape:connector-curvature="0" /><path
           id="path4485"
           d="M 8.836691,-5.0185155 7.482544,-4.2385142"
           style="fill:none;stroke:#030303;stroke-width:0.28299999"
           inkscape:connector-curvature="0" /><path
           id="path4487"
           d="m 6.699128,-6.6085155 -0.588421,0.59"
           style="fill:none;stroke:#030303;stroke-width:0.212"
           inkscape:connector-curvature="0" /><path
           id="path4489"
           d="m 5.131729,-8.7785155 -0.80875,1.39"
           style="fill:none;stroke:#030303;stroke-width:0.28299999"
           inkscape:connector-curvature="0" /><path
           id="path4491"
           d="m 2.456813,-9.0485165 -0.215288,0.800001"
           style="fill:none;stroke:#030303;stroke-width:0.212"
           inkscape:connector-curvature="0" /><path
           id="path4493"
           d="m 0.007833,-10.128517 0,1.5900015"
           style="fill:none;stroke:#030303;stroke-width:0.28299999"
           inkscape:connector-curvature="0" /></g></g><g
       style="display:inline;fill:none;stroke:#ff0000;stroke-width:0.05"
       id="g4497"
       transform="matrix(3.5433071,0,0,3.5433071,44.469405,284.94321)"><g
         id="g4499"><path
           id="path4501"
           d="M -4.2037748,7.5814929 C -6.8346316,6.1114925 -8.6120123,3.3014922 -8.6120123,0.07148931 c 0,-4.75000381 3.8628404,-8.61000481 8.6282233,-8.61000481 4.764047,0 8.627555,3.8600011 8.627555,8.61000481 0,3.23000299 -1.780051,6.04000329 -4.414579,7.52000359"
           style="fill:none;stroke:#030303;stroke-width:0.212"
           inkscape:connector-curvature="0" /><path
           id="path4503"
           d="m -2.440413,-9.0485165 0.216323,0.810001"
           style="fill:none;stroke:#030303;stroke-width:0.212"
           inkscape:connector-curvature="0" /><path
           id="path4505"
           d="m -5.1129926,-8.7785155 0.8080822,1.4000001"
           style="fill:none;stroke:#030303;stroke-width:0.28299999"
           inkscape:connector-curvature="0" /><path
           id="path4507"
           d="m -6.6800914,-6.5985155 0.5891225,0.59"
           style="fill:none;stroke:#030303;stroke-width:0.212"
           inkscape:connector-curvature="0" /><path
           id="path4509"
           d="m -8.8466601,-5.0285155 1.3848552,0.8000013"
           style="fill:none;stroke:#030303;stroke-width:0.28299999"
           inkscape:connector-curvature="0" /><path
           id="path4511"
           d="m -9.1267017,-2.3685125 0.8044106,0.2200004"
           style="fill:none;stroke:#030303;stroke-width:0.212"
           inkscape:connector-curvature="0" /><path
           id="path4513"
           d="m -10.221501,0.08148931 1.6061507,0"
           style="fill:none;stroke:#030303;stroke-width:0.28299999"
           inkscape:connector-curvature="0" /><path
           id="path4515"
           d="M -9.1243652,2.5214918 -8.3199546,2.3014913"
           style="fill:none;stroke:#030303;stroke-width:0.212"
           inkscape:connector-curvature="0" /><path
           id="path4517"
           d="M -8.8489964,5.181492 -7.4574658,4.3814921"
           style="fill:none;stroke:#030303;stroke-width:0.28299999"
           inkscape:connector-curvature="0" /><path
           id="path4519"
           d="m -6.6737496,6.7514925 0.5877873,-0.59"
           style="fill:none;stroke:#030303;stroke-width:0.212"
           inkscape:connector-curvature="0" /><path
           id="path4521"
           d="m -5.0742739,8.871494 0.776373,-1.3400011"
           style="fill:none;stroke:#030303;stroke-width:0.28299999"
           inkscape:connector-curvature="0" /><path
           id="path4523"
           d="M 5.113671,8.8814939 4.329988,7.5214929"
           style="fill:none;stroke:#030303;stroke-width:0.28299999"
           inkscape:connector-curvature="0" /><path
           id="path4525"
           d="m 6.704836,6.7414925 -0.588789,-0.58"
           style="fill:none;stroke:#030303;stroke-width:0.212"
           inkscape:connector-curvature="0" /><path
           id="path4527"
           d="m 8.846371,5.1614921 -1.360155,-0.79"
           style="fill:none;stroke:#030303;stroke-width:0.28299999"
           inkscape:connector-curvature="0" /><path
           id="path4529"
           d="M 9.151112,2.5114918 8.347402,2.2914913"
           style="fill:none;stroke:#030303;stroke-width:0.212"
           inkscape:connector-curvature="0" /><path
           id="path4531"
           d="m 10.195511,0.07148931 -1.555417,0"
           style="fill:none;stroke:#030303;stroke-width:0.28299999"
           inkscape:connector-curvature="0" /><path
           id="path4533"
           d="M 9.148809,-2.3785126 8.344698,-2.1585121"
           style="fill:none;stroke:#030303;stroke-width:0.212"
           inkscape:connector-curvature="0" /><path
           id="path4535"
           d="M 8.836691,-5.0185155 7.482544,-4.2385142"
           style="fill:none;stroke:#030303;stroke-width:0.28299999"
           inkscape:connector-curvature="0" /><path
           id="path4537"
           d="m 6.699128,-6.6085155 -0.588421,0.59"
           style="fill:none;stroke:#030303;stroke-width:0.212"
           inkscape:connector-curvature="0" /><path
           id="path4539"
           d="m 5.131729,-8.7785155 -0.80875,1.39"
           style="fill:none;stroke:#030303;stroke-width:0.28299999"
           inkscape:connector-curvature="0" /><path
           id="path4541"
           d="m 2.456813,-9.0485165 -0.215288,0.800001"
           style="fill:none;stroke:#030303;stroke-width:0.212"
           inkscape:connector-curvature="0" /><path
           id="path4543"
           d="m 0.007833,-10.128517 0,1.5900015"
           style="fill:none;stroke:#030303;stroke-width:0.28299999"
           inkscape:connector-curvature="0" /></g></g><g
       style="display:inline;fill:none;stroke:#ff0000;stroke-width:0.05"
       id="g4547"
       transform="matrix(3.5433071,0,0,3.5433071,134.46942,284.94321)"><g
         id="g4549"><path
           id="path4551"
           d="M -4.2037748,7.5814929 C -6.8346316,6.1114925 -8.6120123,3.3014922 -8.6120123,0.07148931 c 0,-4.75000381 3.8628404,-8.61000481 8.6282233,-8.61000481 4.764047,0 8.627555,3.8600011 8.627555,8.61000481 0,3.23000299 -1.780051,6.04000329 -4.414579,7.52000359"
           style="fill:none;stroke:#030303;stroke-width:0.212"
           inkscape:connector-curvature="0" /><path
           id="path4553"
           d="m -2.440413,-9.0485165 0.216323,0.810001"
           style="fill:none;stroke:#030303;stroke-width:0.212"
           inkscape:connector-curvature="0" /><path
           id="path4555"
           d="m -5.1129926,-8.7785155 0.8080822,1.4000001"
           style="fill:none;stroke:#030303;stroke-width:0.28299999"
           inkscape:connector-curvature="0" /><path
           id="path4557"
           d="m -6.6800914,-6.5985155 0.5891225,0.59"
           style="fill:none;stroke:#030303;stroke-width:0.212"
           inkscape:connector-curvature="0" /><path
           id="path4559"
           d="m -8.8466601,-5.0285155 1.3848552,0.8000013"
           style="fill:none;stroke:#030303;stroke-width:0.28299999"
           inkscape:connector-curvature="0" /><path
           id="path4561"
           d="m -9.1267017,-2.3685125 0.8044106,0.2200004"
           style="fill:none;stroke:#030303;stroke-width:0.212"
           inkscape:connector-curvature="0" /><path
           id="path4563"
           d="m -10.221501,0.08148931 1.6061507,0"
           style="fill:none;stroke:#030303;stroke-width:0.28299999"
           inkscape:connector-curvature="0" /><path
           id="path4565"
           d="M -9.1243652,2.5214918 -8.3199546,2.3014913"
           style="fill:none;stroke:#030303;stroke-width:0.212"
           inkscape:connector-curvature="0" /><path
           id="path4567"
           d="M -8.8489964,5.181492 -7.4574658,4.3814921"
           style="fill:none;stroke:#030303;stroke-width:0.28299999"
           inkscape:connector-curvature="0" /><path
           id="path4569"
           d="m -6.6737496,6.7514925 0.5877873,-0.59"
           style="fill:none;stroke:#030303;stroke-width:0.212"
           inkscape:connector-curvature="0" /><path
           id="path4571"
           d="m -5.0742739,8.871494 0.776373,-1.3400011"
           style="fill:none;stroke:#030303;stroke-width:0.28299999"
           inkscape:connector-curvature="0" /><path
           id="path4573"
           d="M 5.113671,8.8814939 4.329988,7.5214929"
           style="fill:none;stroke:#030303;stroke-width:0.28299999"
           inkscape:connector-curvature="0" /><path
           id="path4575"
           d="m 6.704836,6.7414925 -0.588789,-0.58"
           style="fill:none;stroke:#030303;stroke-width:0.212"
           inkscape:connector-curvature="0" /><path
           id="path4577"
           d="m 8.846371,5.1614921 -1.360155,-0.79"
           style="fill:none;stroke:#030303;stroke-width:0.28299999"
           inkscape:connector-curvature="0" /><path
           id="path4579"
           d="M 9.151112,2.5114918 8.347402,2.2914913"
           style="fill:none;stroke:#030303;stroke-width:0.212"
           inkscape:connector-curvature="0" /><path
           id="path4581"
           d="m 10.195511,0.07148931 -1.555417,0"
           style="fill:none;stroke:#030303;stroke-width:0.28299999"
           inkscape:connector-curvature="0" /><path
           id="path4583"
           d="M 9.148809,-2.3785126 8.344698,-2.1585121"
           style="fill:none;stroke:#030303;stroke-width:0.212"
           inkscape:connector-curvature="0" /><path
           id="path4585"
           d="M 8.836691,-5.0185155 7.482544,-4.2385142"
           style="fill:none;stroke:#030303;stroke-width:0.28299999"
           inkscape:connector-curvature="0" /><path
           id="path4587"
           d="m 6.699128,-6.6085155 -0.588421,0.59"
           style="fill:none;stroke:#030303;stroke-width:0.212"
           inkscape:connector-curvature="0" /><path
           id="path4589"
           d="m 5.131729,-8.7785155 -0.80875,1.39"
           style="fill:none;stroke:#030303;stroke-width:0.28299999"
           inkscape:connector-curvature="0" /><path
           id="path4591"
           d="m 2.456813,-9.0485165 -0.215288,0.800001"
           style="fill:none;stroke:#030303;stroke-width:0.212"
           inkscape:connector-curvature="0" /><path
           id="path4593"
           d="m 0.007833,-10.128517 0,1.5900015"
           style="fill:none;stroke:#030303;stroke-width:0.28299999"
           inkscape:connector-curvature="0" /></g></g><path
       id="path32"
       d="m 24.935685,577.17706 c -0.10502,0.2963 -0.43625,0.3801 -0.64628,0.575 -0.20251,0.1888 -0.36255,0.4251 -0.55379,0.6201 -0.48253,0.4938 -1.24882,0.9588 -1.70385,1.5051 -0.32627,0.39 -0.56878,0.8688 -1.10756,1.1075 -0.28127,0.7351 -1.08131,1.0526 -1.7051,1.5489 -0.54878,0.4387 -1.09006,0.8875 -1.61259,1.3725 -0.1875,-0.1587 -0.58879,-0.1149 -0.55378,-0.4862 -0.34629,-0.17 -0.75755,-0.2751 -0.87506,-0.6638 0.74005,-0.7213 1.86511,-1.0701 2.5339,-1.8601 0.76379,-0.2313 1.35258,-0.8588 1.93636,-1.3726 0.43625,-0.3813 1.04256,-0.6575 1.52259,-1.0176 0.50628,-0.3812 0.8813,-0.78 1.24382,-1.2388 -0.59879,-1.035 -1.77635,-1.4251 -2.67391,-2.1676 -0.54503,-0.4525 -1.16631,-1.1701 -1.98136,-1.4188 -0.65503,-0.7713 -1.7376,-1.1351 -2.49014,-1.8139 0.0737,-0.55 0.8988,-0.3788 0.92255,-0.9738 0.30129,0.082 0.2775,-0.145 0.46128,-0.1788 0.58628,0.4313 1.03381,1.0213 1.61259,1.4614 0.28751,0.2212 0.62004,0.3375 0.87505,0.5325 0.31626,0.2413 0.48878,0.5713 0.7838,0.885 0.9363,0.9964 2.03511,1.8589 2.95016,2.8777 0.12629,0.046 0.44002,0.2025 0.50629,0.4425 0.22377,0.051 0.34753,0.1976 0.55503,0.2638 z m -7.8367,-5.8878 c -0.0288,0.1625 0.095,0.1737 0.23126,0.1775 -0.002,-0.061 0.0226,-0.096 0.045,-0.1325 -0.0713,-0.053 -0.17877,-0.1425 -0.27627,-0.045 z m 4.28649,3.5877 c -0.11627,-0.087 -0.25376,-0.1038 -0.32378,0.044 0.13,-0.036 0.11999,0.062 0.23125,0.044 0.0102,-0.034 0.001,-0.087 0.0462,-0.087 0,0.024 0.0376,0.05 0.0462,0 z"
       inkscape:connector-curvature="0"
       style="clip-rule:evenodd;fill:#231f20;fill-rule:evenodd" /><path
       style="clip-rule:evenodd;fill:#231f20;fill-rule:evenodd"
       inkscape:connector-curvature="0"
       d="m 16.178525,532.46716 c 0.10502,0.2963 0.43625,0.3801 0.64629,0.5751 0.20251,0.1887 0.3625,0.425 0.55378,0.62 0.48253,0.4938 1.24882,0.9588 1.70385,1.5051 0.32626,0.39 0.56878,0.8688 1.10756,1.1076 0.28127,0.735 1.08131,1.0525 1.7051,1.5488 0.54878,0.4388 1.09006,0.8875 1.61259,1.3726 0.1875,-0.1588 0.58878,-0.115 0.55378,-0.4863 0.34629,-0.17 0.75755,-0.275 0.87505,-0.6638 -0.74004,-0.7213 -1.86511,-1.0701 -2.53389,-1.8601 -0.7638,-0.2313 -1.35258,-0.8588 -1.93636,-1.3726 -0.4363,-0.3813 -1.04256,-0.6575 -1.52259,-1.0175 -0.50628,-0.3813 -0.8813,-0.7801 -1.24382,-1.2389 0.59878,-1.035 1.77635,-1.425 2.6739,-2.1676 0.54503,-0.4525 1.16632,-1.1701 1.98136,-1.4188 0.65504,-0.7713 1.7376,-1.1351 2.49014,-1.8139 -0.0738,-0.55 -0.89879,-0.3787 -0.92255,-0.9738 -0.30129,0.082 -0.2775,-0.145 -0.46128,-0.1787 -0.58628,0.4312 -1.0338,1.0213 -1.61258,1.4613 -0.28752,0.2212 -0.62004,0.3375 -0.87506,0.5325 -0.31625,0.2413 -0.48878,0.5713 -0.78379,0.8851 -0.93631,0.9963 -2.03512,1.8588 -2.95017,2.8776 -0.12624,0.046 -0.44002,0.2025 -0.50628,0.4426 -0.22377,0.051 -0.34753,0.1975 -0.55503,0.2637 z m 7.8367,-5.8878 c 0.0288,0.1625 -0.095,0.1738 -0.23126,0.1775 0.002,-0.061 -0.0226,-0.096 -0.045,-0.1325 0.0713,-0.053 0.17877,-0.1425 0.27626,-0.045 z m -4.2865,3.5877 c 0.11627,-0.088 0.25376,-0.1038 0.32379,0.044 -0.13,-0.036 -0.11999,0.062 -0.23126,0.044 -0.0102,-0.034 -0.001,-0.087 -0.0462,-0.087 0,0.024 -0.0376,0.05 -0.0462,0 z"
       id="path4307" /><path
       style="clip-rule:evenodd;fill:#231f20;fill-rule:evenodd"
       inkscape:connector-curvature="0"
       d="m 153.2427,577.17706 c 0.10502,0.2963 0.43625,0.3801 0.64628,0.575 0.20251,0.1888 0.36255,0.4251 0.55379,0.6201 0.48253,0.4938 1.24882,0.9588 1.70385,1.5051 0.32627,0.39 0.56878,0.8688 1.10756,1.1075 0.28127,0.7351 1.08131,1.0526 1.7051,1.5489 0.54878,0.4387 1.09006,0.8875 1.61259,1.3725 0.1875,-0.1587 0.58879,-0.1149 0.55378,-0.4862 0.34629,-0.17 0.75755,-0.2751 0.87506,-0.6638 -0.74005,-0.7213 -1.86511,-1.0701 -2.5339,-1.8601 -0.76379,-0.2313 -1.35258,-0.8588 -1.93636,-1.3726 -0.43625,-0.3813 -1.04256,-0.6575 -1.52259,-1.0176 -0.50628,-0.3812 -0.8813,-0.78 -1.24382,-1.2388 0.59879,-1.035 1.77635,-1.4251 2.67391,-2.1676 0.54503,-0.4525 1.16631,-1.1701 1.98136,-1.4188 0.65503,-0.7713 1.7376,-1.1351 2.49014,-1.8139 -0.0737,-0.55 -0.8988,-0.3788 -0.92255,-0.9738 -0.30129,0.082 -0.2775,-0.145 -0.46128,-0.1788 -0.58628,0.4313 -1.03381,1.0213 -1.61259,1.4614 -0.28751,0.2212 -0.62004,0.3375 -0.87505,0.5325 -0.31626,0.2413 -0.48878,0.5713 -0.7838,0.885 -0.9363,0.9964 -2.03511,1.8589 -2.95016,2.8777 -0.12629,0.046 -0.44002,0.2025 -0.50629,0.4425 -0.22377,0.051 -0.34753,0.1976 -0.55503,0.2638 z m 7.8367,-5.8878 c 0.0288,0.1625 -0.095,0.1737 -0.23126,0.1775 0.002,-0.061 -0.0226,-0.096 -0.045,-0.1325 0.0713,-0.053 0.17877,-0.1425 0.27627,-0.045 z m -4.28649,3.5877 c 0.11627,-0.087 0.25376,-0.1038 0.32378,0.044 -0.13,-0.036 -0.11999,0.062 -0.23125,0.044 -0.0102,-0.034 -10e-4,-0.087 -0.0462,-0.087 0,0.024 -0.0376,0.05 -0.0462,0 z"
       id="path5915" /><path
       id="path5917"
       d="m 161.99986,532.46716 c -0.10502,0.2963 -0.43625,0.3801 -0.64629,0.5751 -0.20251,0.1887 -0.3625,0.425 -0.55378,0.62 -0.48253,0.4938 -1.24882,0.9588 -1.70385,1.5051 -0.32626,0.39 -0.56878,0.8688 -1.10756,1.1076 -0.28127,0.735 -1.08131,1.0525 -1.7051,1.5488 -0.54878,0.4388 -1.09006,0.8875 -1.61259,1.3726 -0.1875,-0.1588 -0.58878,-0.115 -0.55378,-0.4863 -0.34629,-0.17 -0.75755,-0.275 -0.87505,-0.6638 0.74004,-0.7213 1.86511,-1.0701 2.53389,-1.8601 0.7638,-0.2313 1.35258,-0.8588 1.93636,-1.3726 0.4363,-0.3813 1.04256,-0.6575 1.52259,-1.0175 0.50628,-0.3813 0.8813,-0.7801 1.24382,-1.2389 -0.59878,-1.035 -1.77635,-1.425 -2.6739,-2.1676 -0.54503,-0.4525 -1.16632,-1.1701 -1.98136,-1.4188 -0.65504,-0.7713 -1.7376,-1.1351 -2.49014,-1.8139 0.0738,-0.55 0.89879,-0.3787 0.92255,-0.9738 0.30129,0.082 0.2775,-0.145 0.46128,-0.1787 0.58628,0.4312 1.0338,1.0213 1.61258,1.4613 0.28752,0.2212 0.62004,0.3375 0.87506,0.5325 0.31625,0.2413 0.48878,0.5713 0.78379,0.8851 0.93631,0.9963 2.03512,1.8588 2.95017,2.8776 0.12624,0.046 0.44002,0.2025 0.50628,0.4426 0.22377,0.051 0.34753,0.1975 0.55503,0.2637 z m -7.8367,-5.8878 c -0.0288,0.1625 0.095,0.1738 0.23126,0.1775 -0.002,-0.061 0.0226,-0.096 0.045,-0.1325 -0.0713,-0.053 -0.17877,-0.1425 -0.27626,-0.045 z m 4.2865,3.5877 c -0.11627,-0.088 -0.25376,-0.1038 -0.32379,0.044 0.13,-0.036 0.11999,0.062 0.23126,0.044 0.0102,-0.034 10e-4,-0.087 0.0462,-0.087 0,0.024 0.0376,0.05 0.0462,0 z"
       inkscape:connector-curvature="0"
       style="clip-rule:evenodd;fill:#231f20;fill-rule:evenodd" /><path
       inkscape:export-ydpi="90"
       inkscape:export-xdpi="90"
       inkscape:export-filename="/Users/mars/devel/RebelTechnology/ClockDelay/drawings/g240.png"
       style="fill:none;stroke:#000000;stroke-width:2;stroke-linecap:round"
       inkscape:connector-curvature="0"
       id="path5929"
       d="m 52.811915,541.22176 27.91639,27.5347"
       sodipodi:nodetypes="cc" /><polyline
       inkscape:export-ydpi="90"
       inkscape:export-xdpi="90"
       inkscape:export-filename="/Users/mars/devel/RebelTechnology/ClockDelay/drawings/g240.png"
       transform="matrix(-0.48583318,0.87405156,-0.87405156,-0.48583318,1073.3375,88.678553)"
       id="polyline5931"
       points="899.681,642.148 890.434,656.964 899.845,659.61 " /><path
       sodipodi:nodetypes="cc"
       d="m 126.14519,541.22176 -27.916395,27.5347"
       id="path5933"
       inkscape:connector-curvature="0"
       style="fill:none;stroke:#000000;stroke-width:2;stroke-linecap:round"
       inkscape:export-filename="/Users/mars/devel/RebelTechnology/ClockDelay/drawings/g240.png"
       inkscape:export-xdpi="90"
       inkscape:export-ydpi="90" /><polyline
       points="899.681,642.148 890.434,656.964 899.845,659.61 "
       id="polyline5935"
       transform="matrix(0.48583318,0.87405156,0.87405156,-0.48583318,-894.38036,88.678553)"
       inkscape:export-filename="/Users/mars/devel/RebelTechnology/ClockDelay/drawings/g240.png"
       inkscape:export-xdpi="90"
       inkscape:export-ydpi="90" /></g></svg>