%
M48
M72
T01C0.0236
T02C0.0315
T03C0.0320
T04C0.0394
T05C0.0400
T06C0.0787
T07C0.0790
T08C0.0866
T09C0.1102
%
T01
X14430Y13180
X30430Y5680
T02
X26230Y13330
X25230Y13330
X24230Y13330
X14180Y17180
X12180Y17180
X9180Y17180
X7180Y17180
T03
X12680Y16180
X13680Y15680
X15180Y16180
X16180Y16180
X17180Y16180
X13680Y14680
X12680Y13180
X11680Y13180
X11180Y12430
X12180Y12430
X9430Y13180
X6430Y13180
X5430Y10430
X2430Y10430
X6930Y7180
X9930Y7180
X10680Y7180
X12180Y7180
X12930Y7680
X12180Y8180
X13680Y8180
X16680Y8180
X17405Y6755
X15180Y6680
X13680Y5680
X13680Y4680
X15180Y3680
X12180Y2680
X11430Y3180
X9680Y3180
X9680Y2180
X11430Y2180
X13930Y2180
X16930Y2180
X6680Y2180
X6680Y3180
X5430Y5430
X2430Y5430
X10680Y10180
X15180Y13180
X16180Y13180
X17180Y13180
X18680Y10680
X18680Y9680
X17405Y9755
X22180Y8430
X23180Y8430
X24180Y8430
X25180Y8430
X26180Y8430
X27180Y8430
X28180Y8430
X29180Y8430
X30180Y8430
X31180Y8430
X32180Y8430
X33180Y8430
X34180Y8430
X35180Y8430
X36430Y8430
X36430Y11430
X37180Y11430
X35180Y11430
X34180Y11430
X33180Y11430
X32180Y11430
X31180Y11430
X30180Y11430
X29180Y11430
X28180Y11430
X27180Y11430
X26180Y11430
X25180Y11430
X24180Y11430
X23180Y11430
X22180Y11430
X24655Y7180
X26655Y7180
X39180Y11430
X23680Y17430
X19930Y18930
X19180Y18430
X18180Y18430
X18180Y19430
X19180Y19430
X15180Y19430
X15180Y18430
X23680Y19430
T04
X19180Y17180
X18227Y16164
X18227Y15180
X18227Y14196
X15180Y17180
X25727Y16164
X25727Y15180
X25727Y14196
X33227Y14196
X33227Y15180
X33227Y16164
X33227Y6164
X33227Y5180
X33227Y4196
X25727Y4196
X25727Y5180
X25727Y6164
X18227Y6164
X18227Y5180
X18227Y4196
X10680Y930
X6680Y930
T05
X7155Y18630
X8155Y18630
X9155Y18630
X10155Y18630
X11155Y18630
X12155Y18630
X13155Y18630
X14155Y18630
X14155Y19630
X13155Y19630
X12155Y19630
X11155Y19630
X10155Y19630
X9155Y19630
X8155Y19630
X7155Y19630
X32180Y18680
X33180Y18680
X34180Y18680
X35180Y18680
X36180Y18680
X37180Y18680
T06
X36180Y16952
X36180Y13408
X28680Y13408
X21180Y13408
X21180Y16952
X28680Y16952
X28680Y6952
X21180Y6952
X21180Y3408
X28680Y3408
X36180Y3408
X36180Y6952
T07
X39430Y19180
T08
X15530Y10180
X13680Y10180
X11830Y10180
X10530Y15180
X8680Y15180
X6830Y15180
X6830Y5180
X8680Y5180
X10530Y5180
T09
X2223Y2326
X5412Y2286
X3129Y4176
X2223Y7326
X5412Y7286
X9034Y8723
X7184Y9629
X3129Y9176
X9074Y11912
X5412Y12286
X2223Y12326
X3129Y14176
X5412Y17286
X2223Y17326
X3129Y19176
M30
