%
M48
M72
T01C0.0236
T02C0.0315
T03C0.0320
T04C0.0394
T05C0.0400
T06C0.0787
T07C0.0790
T08C0.0866
T09C0.1102
%
T01
X15058Y23930
X19058Y22930
X16058Y30430
X6308Y17180
X8558Y14430
T02
X8658Y26230
X8658Y25230
X8658Y24230
X4558Y13680
X4558Y11680
X4558Y9180
X4558Y7180
T03
X10308Y39180
X10308Y37180
X10308Y36430
X10308Y35180
X10308Y34180
X10308Y33180
X10308Y32180
X10308Y31180
X10308Y30180
X10308Y29180
X10308Y28180
X10308Y27180
X10308Y26180
X10308Y25180
X10308Y24180
X10308Y23180
X10308Y22180
X13308Y22180
X13308Y23180
X13308Y24180
X13308Y25180
X13308Y26180
X13308Y27180
X13308Y28180
X13308Y29180
X13308Y30180
X13308Y31180
X13308Y32180
X13308Y33180
X13308Y34180
X13308Y35180
X13308Y36430
X15583Y24680
X17583Y24680
X12058Y18680
X11058Y18680
X8558Y17180
X8558Y16180
X8558Y15180
X7058Y13680
X6058Y13680
X5558Y15180
X5558Y16180
X5558Y17180
X3308Y16180
X2308Y16180
X2308Y19180
X2308Y20180
X2808Y20930
X3308Y20180
X3308Y19180
X2308Y23930
X4308Y23930
X13558Y16680
X15058Y16180
X15058Y15180
X16058Y13680
X17058Y13680
X18058Y15180
X18058Y16180
X19558Y16680
X19558Y13680
X19058Y12930
X18558Y12180
X19558Y12180
X19558Y11180
X18558Y9680
X19558Y8180
X18558Y6680
X16558Y5680
X14558Y6680
X13808Y8180
X14558Y9680
X13808Y11180
X13558Y12180
X14058Y12930
X14558Y12180
X13558Y13680
X9558Y12180
X9058Y12930
X8558Y12180
X8558Y11180
X9308Y9680
X8558Y8180
X9308Y6680
X11558Y5680
X11558Y2680
X16558Y2680
T04
X5574Y33227
X6558Y33227
X7542Y33227
X7542Y25727
X6558Y25727
X5574Y25727
X4558Y18805
X5574Y18227
X6558Y18227
X7542Y18227
X4558Y14805
X11558Y10617
X11558Y7349
X11558Y6515
X9058Y5617
X9058Y2349
X9058Y1515
X14058Y1515
X14058Y2349
X14058Y5617
X19058Y5617
X20558Y6680
X19058Y2349
X19058Y1515
X20558Y10680
X17542Y18227
X16558Y18227
X15574Y18227
X15574Y25727
X16558Y25727
X17542Y25727
X17542Y33227
X16558Y33227
X15574Y33227
X4058Y5617
X4058Y2349
X4058Y1515
T05
X3058Y37180
X3058Y36180
X3058Y35180
X3058Y34180
X3058Y33180
X3058Y32180
X19808Y28180
X19808Y27180
X19808Y26180
X19808Y25180
X19808Y24180
X19808Y23180
X3108Y7155
X2108Y7155
X2108Y8155
X3108Y8155
X3108Y9155
X2108Y9155
X2108Y10155
X2108Y11155
X2108Y12155
X3108Y12155
X3108Y11155
X3108Y10155
X3108Y13155
X2108Y13155
X2108Y14155
X3108Y14155
T06
X4787Y36180
X8330Y36180
X14787Y36180
X18330Y36180
X18330Y28680
X14787Y28680
X8330Y28680
X4787Y28680
X4787Y21180
X8330Y21180
X14787Y21180
X18330Y21180
T07
X19308Y38930
T08
X11558Y15530
X11558Y13680
X11558Y11830
X6558Y8680
X6558Y6830
X16558Y6830
X16558Y8680
X16558Y10530
X6558Y10530
T09
X11558Y8680
X9058Y3680
X14058Y3680
X19058Y3680
X4058Y3680
M30
