G75*
G70*
%OFA0B0*%
%FSLAX24Y24*%
%IPPOS*%
%LPD*%
%AMOC8*
5,1,8,0,0,1.08239X$1,22.5*
%
%ADD10C,0.0120*%
%ADD11C,0.0000*%
%ADD12C,0.1221*%
%ADD13C,0.0560*%
%ADD14C,0.0780*%
%ADD15OC8,0.0560*%
%ADD16C,0.0820*%
%ADD17OC8,0.1621*%
%ADD18C,0.0800*%
%ADD19C,0.1615*%
%ADD20OC8,0.0780*%
%ADD21C,0.1221*%
%ADD22C,0.0790*%
%ADD23OC8,0.0790*%
D10*
X002055Y000305D02*
X039905Y000305D01*
X039954Y000308D01*
X040003Y000315D01*
X040051Y000325D01*
X040099Y000339D01*
X040145Y000356D01*
X040190Y000377D01*
X040233Y000401D01*
X040274Y000428D01*
X040313Y000458D01*
X040350Y000492D01*
X040384Y000527D01*
X040415Y000565D01*
X040444Y000606D01*
X040469Y000648D01*
X040491Y000692D01*
X040510Y000738D01*
X040525Y000785D01*
X040537Y000833D01*
X040545Y000881D01*
X040549Y000931D01*
X040550Y000980D01*
X040550Y019355D01*
X040549Y019410D01*
X040544Y019465D01*
X040536Y019520D01*
X040524Y019574D01*
X040508Y019627D01*
X040489Y019679D01*
X040466Y019729D01*
X040440Y019778D01*
X040410Y019825D01*
X040378Y019869D01*
X040342Y019912D01*
X040304Y019952D01*
X040263Y019989D01*
X040219Y020023D01*
X040174Y020054D01*
X040126Y020082D01*
X040076Y020107D01*
X040025Y020128D01*
X039973Y020146D01*
X039919Y020160D01*
X039865Y020170D01*
X039810Y020177D01*
X039755Y020180D01*
X002180Y020180D01*
X002120Y020178D01*
X002059Y020173D01*
X002000Y020164D01*
X001941Y020151D01*
X001882Y020135D01*
X001825Y020115D01*
X001770Y020092D01*
X001715Y020065D01*
X001663Y020036D01*
X001612Y020003D01*
X001563Y019967D01*
X001517Y019929D01*
X001473Y019887D01*
X001431Y019843D01*
X001393Y019797D01*
X001357Y019748D01*
X001324Y019697D01*
X001295Y019645D01*
X001268Y019590D01*
X001245Y019535D01*
X001225Y019478D01*
X001209Y019419D01*
X001196Y019360D01*
X001187Y019301D01*
X001182Y019240D01*
X001180Y019180D01*
X001180Y001180D01*
X001182Y001123D01*
X001187Y001066D01*
X001197Y001009D01*
X001210Y000954D01*
X001226Y000899D01*
X001247Y000845D01*
X001270Y000793D01*
X001297Y000743D01*
X001327Y000694D01*
X001361Y000647D01*
X001397Y000603D01*
X001436Y000561D01*
X001478Y000522D01*
X001522Y000486D01*
X001569Y000452D01*
X001617Y000422D01*
X001668Y000395D01*
X001720Y000372D01*
X001774Y000351D01*
X001829Y000335D01*
X001884Y000322D01*
X001941Y000312D01*
X001998Y000307D01*
X002055Y000305D01*
D11*
X038589Y002680D02*
X038591Y002728D01*
X038597Y002776D01*
X038607Y002823D01*
X038620Y002869D01*
X038638Y002914D01*
X038658Y002958D01*
X038683Y003000D01*
X038711Y003039D01*
X038741Y003076D01*
X038775Y003110D01*
X038812Y003142D01*
X038850Y003171D01*
X038891Y003196D01*
X038934Y003218D01*
X038979Y003236D01*
X039025Y003250D01*
X039072Y003261D01*
X039120Y003268D01*
X039168Y003271D01*
X039216Y003270D01*
X039264Y003265D01*
X039312Y003256D01*
X039358Y003244D01*
X039403Y003227D01*
X039447Y003207D01*
X039489Y003184D01*
X039529Y003157D01*
X039567Y003127D01*
X039602Y003094D01*
X039634Y003058D01*
X039664Y003020D01*
X039690Y002979D01*
X039712Y002936D01*
X039732Y002892D01*
X039747Y002847D01*
X039759Y002800D01*
X039767Y002752D01*
X039771Y002704D01*
X039771Y002656D01*
X039767Y002608D01*
X039759Y002560D01*
X039747Y002513D01*
X039732Y002468D01*
X039712Y002424D01*
X039690Y002381D01*
X039664Y002340D01*
X039634Y002302D01*
X039602Y002266D01*
X039567Y002233D01*
X039529Y002203D01*
X039489Y002176D01*
X039447Y002153D01*
X039403Y002133D01*
X039358Y002116D01*
X039312Y002104D01*
X039264Y002095D01*
X039216Y002090D01*
X039168Y002089D01*
X039120Y002092D01*
X039072Y002099D01*
X039025Y002110D01*
X038979Y002124D01*
X038934Y002142D01*
X038891Y002164D01*
X038850Y002189D01*
X038812Y002218D01*
X038775Y002250D01*
X038741Y002284D01*
X038711Y002321D01*
X038683Y002360D01*
X038658Y002402D01*
X038638Y002446D01*
X038620Y002491D01*
X038607Y002537D01*
X038597Y002584D01*
X038591Y002632D01*
X038589Y002680D01*
X038589Y017680D02*
X038591Y017728D01*
X038597Y017776D01*
X038607Y017823D01*
X038620Y017869D01*
X038638Y017914D01*
X038658Y017958D01*
X038683Y018000D01*
X038711Y018039D01*
X038741Y018076D01*
X038775Y018110D01*
X038812Y018142D01*
X038850Y018171D01*
X038891Y018196D01*
X038934Y018218D01*
X038979Y018236D01*
X039025Y018250D01*
X039072Y018261D01*
X039120Y018268D01*
X039168Y018271D01*
X039216Y018270D01*
X039264Y018265D01*
X039312Y018256D01*
X039358Y018244D01*
X039403Y018227D01*
X039447Y018207D01*
X039489Y018184D01*
X039529Y018157D01*
X039567Y018127D01*
X039602Y018094D01*
X039634Y018058D01*
X039664Y018020D01*
X039690Y017979D01*
X039712Y017936D01*
X039732Y017892D01*
X039747Y017847D01*
X039759Y017800D01*
X039767Y017752D01*
X039771Y017704D01*
X039771Y017656D01*
X039767Y017608D01*
X039759Y017560D01*
X039747Y017513D01*
X039732Y017468D01*
X039712Y017424D01*
X039690Y017381D01*
X039664Y017340D01*
X039634Y017302D01*
X039602Y017266D01*
X039567Y017233D01*
X039529Y017203D01*
X039489Y017176D01*
X039447Y017153D01*
X039403Y017133D01*
X039358Y017116D01*
X039312Y017104D01*
X039264Y017095D01*
X039216Y017090D01*
X039168Y017089D01*
X039120Y017092D01*
X039072Y017099D01*
X039025Y017110D01*
X038979Y017124D01*
X038934Y017142D01*
X038891Y017164D01*
X038850Y017189D01*
X038812Y017218D01*
X038775Y017250D01*
X038741Y017284D01*
X038711Y017321D01*
X038683Y017360D01*
X038658Y017402D01*
X038638Y017446D01*
X038620Y017491D01*
X038607Y017537D01*
X038597Y017584D01*
X038591Y017632D01*
X038589Y017680D01*
D12*
X039180Y017680D03*
X039180Y002680D03*
D13*
X035180Y008170D02*
X035180Y008690D01*
X034180Y008690D02*
X034180Y008170D01*
X033180Y008170D02*
X033180Y008690D01*
X032180Y008690D02*
X032180Y008170D01*
X031180Y008170D02*
X031180Y008690D01*
X030180Y008690D02*
X030180Y008170D01*
X029180Y008170D02*
X029180Y008690D01*
X028180Y008690D02*
X028180Y008170D01*
X027180Y008170D02*
X027180Y008690D01*
X026180Y008690D02*
X026180Y008170D01*
X025180Y008170D02*
X025180Y008690D01*
X024180Y008690D02*
X024180Y008170D01*
X023180Y008170D02*
X023180Y008690D01*
X022180Y008690D02*
X022180Y008170D01*
X022180Y011170D02*
X022180Y011690D01*
X023180Y011690D02*
X023180Y011170D01*
X024180Y011170D02*
X024180Y011690D01*
X025180Y011690D02*
X025180Y011170D01*
X026180Y011170D02*
X026180Y011690D01*
X027180Y011690D02*
X027180Y011170D01*
X028180Y011170D02*
X028180Y011690D01*
X029180Y011690D02*
X029180Y011170D01*
X030180Y011170D02*
X030180Y011690D01*
X031180Y011690D02*
X031180Y011170D01*
X032180Y011170D02*
X032180Y011690D01*
X033180Y011690D02*
X033180Y011170D01*
X034180Y011170D02*
X034180Y011690D01*
X035180Y011690D02*
X035180Y011170D01*
D14*
X026230Y013330D03*
X025230Y013330D03*
X024230Y013330D03*
X018680Y010680D03*
X018680Y009680D03*
X013680Y005680D03*
X013680Y004680D03*
X013680Y014680D03*
X013680Y015680D03*
X032180Y018680D03*
X033180Y018680D03*
X034180Y018680D03*
X035180Y018680D03*
X036180Y018680D03*
X037180Y018680D03*
D15*
X036930Y011930D03*
X036430Y011430D03*
X038930Y011930D03*
X036430Y008430D03*
X026655Y007180D03*
X024655Y007180D03*
X017405Y006755D03*
X015180Y006680D03*
X012930Y007680D03*
X012180Y007180D03*
X010680Y007180D03*
X009930Y007180D03*
X012180Y008180D03*
X013680Y008180D03*
X016680Y008180D03*
X017405Y009755D03*
X012430Y012130D03*
X011680Y012630D03*
X012430Y013130D03*
X010180Y013180D03*
X007180Y013180D03*
X005180Y015605D03*
X002180Y015605D03*
X008180Y017405D03*
X011180Y017405D03*
X012130Y017455D03*
X011630Y016705D03*
X012630Y016705D03*
X014905Y016830D03*
X015755Y016830D03*
X016555Y017480D03*
X017305Y016155D03*
X016555Y014480D03*
X015755Y013830D03*
X014905Y013830D03*
X017305Y013155D03*
X010680Y010180D03*
X005430Y010430D03*
X002430Y010430D03*
X006930Y007180D03*
X005430Y005430D03*
X002430Y005430D03*
X007180Y002680D03*
X007180Y001680D03*
X010180Y001680D03*
X012180Y001680D03*
X012930Y002180D03*
X013930Y002180D03*
X012180Y002680D03*
X010180Y002680D03*
X015180Y003680D03*
X016930Y002180D03*
D16*
X016180Y018180D03*
X016180Y019180D03*
X020180Y019180D03*
X020180Y018180D03*
D17*
X009074Y011912D03*
X005412Y012286D03*
X002223Y012326D03*
X003129Y014176D03*
X005412Y017286D03*
X002223Y017326D03*
X003129Y019176D03*
X007184Y009629D03*
X009034Y008723D03*
X005412Y007286D03*
X002223Y007326D03*
X003129Y009176D03*
X003129Y004176D03*
X002223Y002326D03*
X005412Y002286D03*
D18*
X018227Y004196D03*
X018227Y005180D03*
X018227Y006164D03*
X025727Y006164D03*
X025727Y005180D03*
X025727Y004196D03*
X033227Y004196D03*
X033227Y005180D03*
X033227Y006164D03*
X033227Y014196D03*
X033227Y015180D03*
X033227Y016164D03*
X025727Y016164D03*
X025727Y015180D03*
X025727Y014196D03*
X018227Y014196D03*
X018227Y015180D03*
X018227Y016164D03*
D19*
X021180Y016952D03*
X028680Y016952D03*
X028680Y013408D03*
X021180Y013408D03*
X021180Y006952D03*
X028680Y006952D03*
X028680Y003408D03*
X021180Y003408D03*
X036180Y003408D03*
X036180Y006952D03*
X036180Y013408D03*
X036180Y016952D03*
D20*
X014155Y018380D03*
X013155Y018380D03*
X012155Y018380D03*
X011155Y018380D03*
X010155Y018380D03*
X009155Y018380D03*
X008155Y018380D03*
X007155Y018380D03*
X007155Y019380D03*
X008155Y019380D03*
X009155Y019380D03*
X010155Y019380D03*
X011155Y019380D03*
X012155Y019380D03*
X013155Y019380D03*
X014155Y019380D03*
D21*
X010727Y015771D02*
X010727Y014589D01*
X008680Y014589D02*
X008680Y015771D01*
X006633Y015771D02*
X006633Y014589D01*
X011633Y010771D02*
X011633Y009589D01*
X013680Y009589D02*
X013680Y010771D01*
X015727Y010771D02*
X015727Y009589D01*
X010727Y005771D02*
X010727Y004589D01*
X008680Y004589D02*
X008680Y005771D01*
X006633Y005771D02*
X006633Y004589D01*
D22*
X023930Y017430D03*
D23*
X023930Y019430D03*
M02*
