G75*
%MOIN*%
%OFA0B0*%
%FSLAX24Y24*%
%IPPOS*%
%LPD*%
%AMOC8*
5,1,8,0,0,1.08239X$1,22.5*
%
%ADD10C,0.0120*%
%ADD11C,0.0000*%
D10*
X001558Y001680D02*
X001558Y039255D01*
X001561Y039301D01*
X001568Y039347D01*
X001579Y039392D01*
X001593Y039436D01*
X001611Y039479D01*
X001633Y039520D01*
X001658Y039559D01*
X001685Y039596D01*
X001716Y039630D01*
X001750Y039662D01*
X001786Y039691D01*
X001824Y039717D01*
X001865Y039739D01*
X001907Y039759D01*
X001950Y039774D01*
X001995Y039786D01*
X002041Y039795D01*
X002087Y039799D01*
X002133Y039800D01*
X020758Y039800D01*
X020759Y039800D02*
X020806Y039801D01*
X020853Y039797D01*
X020900Y039790D01*
X020946Y039778D01*
X020991Y039763D01*
X021034Y039744D01*
X021076Y039722D01*
X021116Y039697D01*
X021153Y039668D01*
X021188Y039636D01*
X021221Y039601D01*
X021250Y039564D01*
X021276Y039525D01*
X021299Y039483D01*
X021318Y039440D01*
X021334Y039395D01*
X021346Y039349D01*
X021354Y039303D01*
X021358Y039255D01*
X021358Y001680D01*
X021362Y001629D01*
X021361Y001579D01*
X021358Y001528D01*
X021350Y001478D01*
X021339Y001428D01*
X021324Y001380D01*
X021305Y001333D01*
X021283Y001287D01*
X021257Y001243D01*
X021229Y001201D01*
X021197Y001161D01*
X021162Y001124D01*
X021125Y001090D01*
X021085Y001058D01*
X021043Y001030D01*
X020999Y001004D01*
X020954Y000982D01*
X020906Y000964D01*
X020858Y000949D01*
X020808Y000938D01*
X020758Y000930D01*
X002133Y000930D01*
X002134Y000931D02*
X002084Y000939D01*
X002036Y000951D01*
X001988Y000967D01*
X001942Y000986D01*
X001898Y001008D01*
X001855Y001034D01*
X001814Y001063D01*
X001776Y001095D01*
X001740Y001130D01*
X001706Y001167D01*
X001676Y001207D01*
X001649Y001248D01*
X001625Y001292D01*
X001604Y001338D01*
X001586Y001384D01*
X001573Y001432D01*
X001562Y001481D01*
X001556Y001531D01*
X001553Y001581D01*
X001554Y001631D01*
X001559Y001680D01*
D11*
X003507Y003680D02*
X003509Y003727D01*
X003515Y003773D01*
X003525Y003819D01*
X003538Y003864D01*
X003556Y003907D01*
X003577Y003949D01*
X003601Y003989D01*
X003629Y004026D01*
X003660Y004061D01*
X003694Y004094D01*
X003730Y004123D01*
X003769Y004149D01*
X003810Y004172D01*
X003853Y004191D01*
X003897Y004207D01*
X003942Y004219D01*
X003988Y004227D01*
X004035Y004231D01*
X004081Y004231D01*
X004128Y004227D01*
X004174Y004219D01*
X004219Y004207D01*
X004263Y004191D01*
X004306Y004172D01*
X004347Y004149D01*
X004386Y004123D01*
X004422Y004094D01*
X004456Y004061D01*
X004487Y004026D01*
X004515Y003989D01*
X004539Y003949D01*
X004560Y003907D01*
X004578Y003864D01*
X004591Y003819D01*
X004601Y003773D01*
X004607Y003727D01*
X004609Y003680D01*
X004607Y003633D01*
X004601Y003587D01*
X004591Y003541D01*
X004578Y003496D01*
X004560Y003453D01*
X004539Y003411D01*
X004515Y003371D01*
X004487Y003334D01*
X004456Y003299D01*
X004422Y003266D01*
X004386Y003237D01*
X004347Y003211D01*
X004306Y003188D01*
X004263Y003169D01*
X004219Y003153D01*
X004174Y003141D01*
X004128Y003133D01*
X004081Y003129D01*
X004035Y003129D01*
X003988Y003133D01*
X003942Y003141D01*
X003897Y003153D01*
X003853Y003169D01*
X003810Y003188D01*
X003769Y003211D01*
X003730Y003237D01*
X003694Y003266D01*
X003660Y003299D01*
X003629Y003334D01*
X003601Y003371D01*
X003577Y003411D01*
X003556Y003453D01*
X003538Y003496D01*
X003525Y003541D01*
X003515Y003587D01*
X003509Y003633D01*
X003507Y003680D01*
X008507Y003680D02*
X008509Y003727D01*
X008515Y003773D01*
X008525Y003819D01*
X008538Y003864D01*
X008556Y003907D01*
X008577Y003949D01*
X008601Y003989D01*
X008629Y004026D01*
X008660Y004061D01*
X008694Y004094D01*
X008730Y004123D01*
X008769Y004149D01*
X008810Y004172D01*
X008853Y004191D01*
X008897Y004207D01*
X008942Y004219D01*
X008988Y004227D01*
X009035Y004231D01*
X009081Y004231D01*
X009128Y004227D01*
X009174Y004219D01*
X009219Y004207D01*
X009263Y004191D01*
X009306Y004172D01*
X009347Y004149D01*
X009386Y004123D01*
X009422Y004094D01*
X009456Y004061D01*
X009487Y004026D01*
X009515Y003989D01*
X009539Y003949D01*
X009560Y003907D01*
X009578Y003864D01*
X009591Y003819D01*
X009601Y003773D01*
X009607Y003727D01*
X009609Y003680D01*
X009607Y003633D01*
X009601Y003587D01*
X009591Y003541D01*
X009578Y003496D01*
X009560Y003453D01*
X009539Y003411D01*
X009515Y003371D01*
X009487Y003334D01*
X009456Y003299D01*
X009422Y003266D01*
X009386Y003237D01*
X009347Y003211D01*
X009306Y003188D01*
X009263Y003169D01*
X009219Y003153D01*
X009174Y003141D01*
X009128Y003133D01*
X009081Y003129D01*
X009035Y003129D01*
X008988Y003133D01*
X008942Y003141D01*
X008897Y003153D01*
X008853Y003169D01*
X008810Y003188D01*
X008769Y003211D01*
X008730Y003237D01*
X008694Y003266D01*
X008660Y003299D01*
X008629Y003334D01*
X008601Y003371D01*
X008577Y003411D01*
X008556Y003453D01*
X008538Y003496D01*
X008525Y003541D01*
X008515Y003587D01*
X008509Y003633D01*
X008507Y003680D01*
X011007Y008680D02*
X011009Y008727D01*
X011015Y008773D01*
X011025Y008819D01*
X011038Y008864D01*
X011056Y008907D01*
X011077Y008949D01*
X011101Y008989D01*
X011129Y009026D01*
X011160Y009061D01*
X011194Y009094D01*
X011230Y009123D01*
X011269Y009149D01*
X011310Y009172D01*
X011353Y009191D01*
X011397Y009207D01*
X011442Y009219D01*
X011488Y009227D01*
X011535Y009231D01*
X011581Y009231D01*
X011628Y009227D01*
X011674Y009219D01*
X011719Y009207D01*
X011763Y009191D01*
X011806Y009172D01*
X011847Y009149D01*
X011886Y009123D01*
X011922Y009094D01*
X011956Y009061D01*
X011987Y009026D01*
X012015Y008989D01*
X012039Y008949D01*
X012060Y008907D01*
X012078Y008864D01*
X012091Y008819D01*
X012101Y008773D01*
X012107Y008727D01*
X012109Y008680D01*
X012107Y008633D01*
X012101Y008587D01*
X012091Y008541D01*
X012078Y008496D01*
X012060Y008453D01*
X012039Y008411D01*
X012015Y008371D01*
X011987Y008334D01*
X011956Y008299D01*
X011922Y008266D01*
X011886Y008237D01*
X011847Y008211D01*
X011806Y008188D01*
X011763Y008169D01*
X011719Y008153D01*
X011674Y008141D01*
X011628Y008133D01*
X011581Y008129D01*
X011535Y008129D01*
X011488Y008133D01*
X011442Y008141D01*
X011397Y008153D01*
X011353Y008169D01*
X011310Y008188D01*
X011269Y008211D01*
X011230Y008237D01*
X011194Y008266D01*
X011160Y008299D01*
X011129Y008334D01*
X011101Y008371D01*
X011077Y008411D01*
X011056Y008453D01*
X011038Y008496D01*
X011025Y008541D01*
X011015Y008587D01*
X011009Y008633D01*
X011007Y008680D01*
X013507Y003680D02*
X013509Y003727D01*
X013515Y003773D01*
X013525Y003819D01*
X013538Y003864D01*
X013556Y003907D01*
X013577Y003949D01*
X013601Y003989D01*
X013629Y004026D01*
X013660Y004061D01*
X013694Y004094D01*
X013730Y004123D01*
X013769Y004149D01*
X013810Y004172D01*
X013853Y004191D01*
X013897Y004207D01*
X013942Y004219D01*
X013988Y004227D01*
X014035Y004231D01*
X014081Y004231D01*
X014128Y004227D01*
X014174Y004219D01*
X014219Y004207D01*
X014263Y004191D01*
X014306Y004172D01*
X014347Y004149D01*
X014386Y004123D01*
X014422Y004094D01*
X014456Y004061D01*
X014487Y004026D01*
X014515Y003989D01*
X014539Y003949D01*
X014560Y003907D01*
X014578Y003864D01*
X014591Y003819D01*
X014601Y003773D01*
X014607Y003727D01*
X014609Y003680D01*
X014607Y003633D01*
X014601Y003587D01*
X014591Y003541D01*
X014578Y003496D01*
X014560Y003453D01*
X014539Y003411D01*
X014515Y003371D01*
X014487Y003334D01*
X014456Y003299D01*
X014422Y003266D01*
X014386Y003237D01*
X014347Y003211D01*
X014306Y003188D01*
X014263Y003169D01*
X014219Y003153D01*
X014174Y003141D01*
X014128Y003133D01*
X014081Y003129D01*
X014035Y003129D01*
X013988Y003133D01*
X013942Y003141D01*
X013897Y003153D01*
X013853Y003169D01*
X013810Y003188D01*
X013769Y003211D01*
X013730Y003237D01*
X013694Y003266D01*
X013660Y003299D01*
X013629Y003334D01*
X013601Y003371D01*
X013577Y003411D01*
X013556Y003453D01*
X013538Y003496D01*
X013525Y003541D01*
X013515Y003587D01*
X013509Y003633D01*
X013507Y003680D01*
X018507Y003680D02*
X018509Y003727D01*
X018515Y003773D01*
X018525Y003819D01*
X018538Y003864D01*
X018556Y003907D01*
X018577Y003949D01*
X018601Y003989D01*
X018629Y004026D01*
X018660Y004061D01*
X018694Y004094D01*
X018730Y004123D01*
X018769Y004149D01*
X018810Y004172D01*
X018853Y004191D01*
X018897Y004207D01*
X018942Y004219D01*
X018988Y004227D01*
X019035Y004231D01*
X019081Y004231D01*
X019128Y004227D01*
X019174Y004219D01*
X019219Y004207D01*
X019263Y004191D01*
X019306Y004172D01*
X019347Y004149D01*
X019386Y004123D01*
X019422Y004094D01*
X019456Y004061D01*
X019487Y004026D01*
X019515Y003989D01*
X019539Y003949D01*
X019560Y003907D01*
X019578Y003864D01*
X019591Y003819D01*
X019601Y003773D01*
X019607Y003727D01*
X019609Y003680D01*
X019607Y003633D01*
X019601Y003587D01*
X019591Y003541D01*
X019578Y003496D01*
X019560Y003453D01*
X019539Y003411D01*
X019515Y003371D01*
X019487Y003334D01*
X019456Y003299D01*
X019422Y003266D01*
X019386Y003237D01*
X019347Y003211D01*
X019306Y003188D01*
X019263Y003169D01*
X019219Y003153D01*
X019174Y003141D01*
X019128Y003133D01*
X019081Y003129D01*
X019035Y003129D01*
X018988Y003133D01*
X018942Y003141D01*
X018897Y003153D01*
X018853Y003169D01*
X018810Y003188D01*
X018769Y003211D01*
X018730Y003237D01*
X018694Y003266D01*
X018660Y003299D01*
X018629Y003334D01*
X018601Y003371D01*
X018577Y003411D01*
X018556Y003453D01*
X018538Y003496D01*
X018525Y003541D01*
X018515Y003587D01*
X018509Y003633D01*
X018507Y003680D01*
M02*
