G75*
%MOIN*%
%OFA0B0*%
%FSLAX24Y24*%
%IPPOS*%
%LPD*%
%AMOC8*
5,1,8,0,0,1.08239X$1,22.5*
%
%ADD10C,0.0120*%
%ADD11C,0.0520*%
%ADD12C,0.0740*%
%ADD13OC8,0.0520*%
%ADD14C,0.0780*%
%ADD15R,0.0740X0.0740*%
%ADD16C,0.0594*%
%ADD17C,0.0000*%
%ADD18C,0.0760*%
%ADD19OC8,0.1181*%
%ADD20OC8,0.0740*%
%ADD21OC8,0.1266*%
%ADD22C,0.0750*%
%ADD23OC8,0.0750*%
%ADD24OC8,0.1240*%
%ADD25C,0.0160*%
%ADD26C,0.0356*%
%ADD27C,0.0320*%
%ADD28C,0.0240*%
D10*
X001558Y001680D02*
X001558Y039255D01*
X001558Y039299D01*
X001562Y039342D01*
X001569Y039384D01*
X001579Y039426D01*
X001593Y039467D01*
X001611Y039507D01*
X001631Y039545D01*
X001655Y039581D01*
X001681Y039615D01*
X001711Y039647D01*
X001742Y039677D01*
X001776Y039703D01*
X001813Y039727D01*
X001851Y039747D01*
X001890Y039765D01*
X001931Y039779D01*
X001973Y039790D01*
X002015Y039797D01*
X002058Y039801D01*
X002058Y039800D02*
X020758Y039800D01*
X020800Y039796D01*
X020842Y039788D01*
X020884Y039777D01*
X020924Y039762D01*
X020962Y039745D01*
X021000Y039724D01*
X021035Y039700D01*
X021068Y039673D01*
X021099Y039644D01*
X021127Y039612D01*
X021153Y039578D01*
X021176Y039542D01*
X021195Y039504D01*
X021212Y039464D01*
X021225Y039424D01*
X021235Y039382D01*
X021241Y039340D01*
X021244Y039298D01*
X021243Y039255D01*
X021243Y001680D01*
X021244Y001681D02*
X021252Y001634D01*
X021257Y001587D01*
X021258Y001540D01*
X021256Y001493D01*
X021250Y001446D01*
X021240Y001399D01*
X021227Y001354D01*
X021211Y001309D01*
X021192Y001266D01*
X021169Y001225D01*
X021143Y001185D01*
X021115Y001148D01*
X021084Y001112D01*
X021050Y001079D01*
X021014Y001049D01*
X020975Y001021D01*
X020935Y000997D01*
X020893Y000975D01*
X020849Y000957D01*
X020804Y000942D01*
X020759Y000930D01*
X020758Y000930D02*
X002058Y000930D01*
X002012Y000941D01*
X001966Y000956D01*
X001922Y000974D01*
X001880Y000995D01*
X001839Y001019D01*
X001799Y001046D01*
X001762Y001077D01*
X001728Y001109D01*
X001696Y001145D01*
X001667Y001182D01*
X001640Y001222D01*
X001617Y001263D01*
X001597Y001306D01*
X001580Y001351D01*
X001566Y001397D01*
X001556Y001443D01*
X001549Y001490D01*
X001546Y001538D01*
X001547Y001585D01*
X001551Y001633D01*
X001558Y001680D01*
D11*
X010048Y022180D02*
X010568Y022180D01*
X010568Y023180D02*
X010048Y023180D01*
X010048Y024180D02*
X010568Y024180D01*
X010568Y025180D02*
X010048Y025180D01*
X010048Y026180D02*
X010568Y026180D01*
X010568Y027180D02*
X010048Y027180D01*
X010048Y028180D02*
X010568Y028180D01*
X010568Y029180D02*
X010048Y029180D01*
X010048Y030180D02*
X010568Y030180D01*
X010568Y031180D02*
X010048Y031180D01*
X010048Y032180D02*
X010568Y032180D01*
X010568Y033180D02*
X010048Y033180D01*
X010048Y034180D02*
X010568Y034180D01*
X010568Y035180D02*
X010048Y035180D01*
X013048Y035180D02*
X013568Y035180D01*
X013568Y034180D02*
X013048Y034180D01*
X013048Y033180D02*
X013568Y033180D01*
X013568Y032180D02*
X013048Y032180D01*
X013048Y031180D02*
X013568Y031180D01*
X013568Y030180D02*
X013048Y030180D01*
X013048Y029180D02*
X013568Y029180D01*
X013568Y028180D02*
X013048Y028180D01*
X013048Y027180D02*
X013568Y027180D01*
X013568Y026180D02*
X013048Y026180D01*
X013048Y025180D02*
X013568Y025180D01*
X013568Y024180D02*
X013048Y024180D01*
X013048Y023180D02*
X013568Y023180D01*
X013568Y022180D02*
X013048Y022180D01*
D12*
X012058Y018680D03*
X008658Y024230D03*
X008658Y025230D03*
X008658Y026230D03*
X003058Y032180D03*
X003058Y033180D03*
X003058Y034180D03*
X003058Y035180D03*
X003058Y036180D03*
X003058Y037180D03*
X019808Y028180D03*
X019808Y027180D03*
X019808Y026180D03*
X019808Y025180D03*
X019808Y024180D03*
X019808Y023180D03*
X017058Y013680D03*
X007058Y013680D03*
X004558Y013680D03*
X004558Y011680D03*
X004558Y009180D03*
X004558Y007180D03*
D13*
X008558Y008180D03*
X009308Y006680D03*
X011558Y005680D03*
X013808Y008180D03*
X014558Y006680D03*
X016558Y005680D03*
X018558Y006680D03*
X019558Y008180D03*
X018558Y009680D03*
X019558Y011180D03*
X019558Y012180D03*
X019058Y012930D03*
X018558Y012180D03*
X019558Y013680D03*
X018058Y015180D03*
X018058Y016180D03*
X019558Y016680D03*
X015058Y016180D03*
X015058Y015180D03*
X013558Y013680D03*
X014058Y012930D03*
X013558Y012180D03*
X014558Y012180D03*
X013808Y011180D03*
X014558Y009680D03*
X009558Y012180D03*
X009058Y012930D03*
X008558Y012180D03*
X008558Y011180D03*
X009308Y009680D03*
X008558Y015180D03*
X008558Y016180D03*
X008558Y017180D03*
X005558Y017180D03*
X005558Y016180D03*
X005558Y015180D03*
X003308Y016180D03*
X002308Y016180D03*
X002308Y019180D03*
X002308Y020180D03*
X002808Y020930D03*
X003308Y020180D03*
X003308Y019180D03*
X013558Y016680D03*
X015583Y024680D03*
X017583Y024680D03*
X013308Y036430D03*
X010308Y036430D03*
X010308Y037180D03*
X010308Y039180D03*
X011558Y002680D03*
X016558Y002680D03*
D14*
X020558Y006680D03*
X020558Y010680D03*
X004558Y014805D03*
X004558Y018805D03*
D15*
X006058Y013680D03*
X011058Y018680D03*
X016058Y013680D03*
D16*
X011558Y010617D03*
X011558Y007349D03*
X011558Y006515D03*
X009058Y005617D03*
X009058Y002349D03*
X009058Y001515D03*
X014058Y001515D03*
X014058Y002349D03*
X014058Y005617D03*
X019058Y005617D03*
X019058Y002349D03*
X019058Y001515D03*
X004058Y001515D03*
X004058Y002349D03*
X004058Y005617D03*
D17*
X003507Y003680D02*
X003509Y003727D01*
X003515Y003773D01*
X003525Y003819D01*
X003538Y003864D01*
X003556Y003907D01*
X003577Y003949D01*
X003601Y003989D01*
X003629Y004026D01*
X003660Y004061D01*
X003694Y004094D01*
X003730Y004123D01*
X003769Y004149D01*
X003810Y004172D01*
X003853Y004191D01*
X003897Y004207D01*
X003942Y004219D01*
X003988Y004227D01*
X004035Y004231D01*
X004081Y004231D01*
X004128Y004227D01*
X004174Y004219D01*
X004219Y004207D01*
X004263Y004191D01*
X004306Y004172D01*
X004347Y004149D01*
X004386Y004123D01*
X004422Y004094D01*
X004456Y004061D01*
X004487Y004026D01*
X004515Y003989D01*
X004539Y003949D01*
X004560Y003907D01*
X004578Y003864D01*
X004591Y003819D01*
X004601Y003773D01*
X004607Y003727D01*
X004609Y003680D01*
X004607Y003633D01*
X004601Y003587D01*
X004591Y003541D01*
X004578Y003496D01*
X004560Y003453D01*
X004539Y003411D01*
X004515Y003371D01*
X004487Y003334D01*
X004456Y003299D01*
X004422Y003266D01*
X004386Y003237D01*
X004347Y003211D01*
X004306Y003188D01*
X004263Y003169D01*
X004219Y003153D01*
X004174Y003141D01*
X004128Y003133D01*
X004081Y003129D01*
X004035Y003129D01*
X003988Y003133D01*
X003942Y003141D01*
X003897Y003153D01*
X003853Y003169D01*
X003810Y003188D01*
X003769Y003211D01*
X003730Y003237D01*
X003694Y003266D01*
X003660Y003299D01*
X003629Y003334D01*
X003601Y003371D01*
X003577Y003411D01*
X003556Y003453D01*
X003538Y003496D01*
X003525Y003541D01*
X003515Y003587D01*
X003509Y003633D01*
X003507Y003680D01*
X008507Y003680D02*
X008509Y003727D01*
X008515Y003773D01*
X008525Y003819D01*
X008538Y003864D01*
X008556Y003907D01*
X008577Y003949D01*
X008601Y003989D01*
X008629Y004026D01*
X008660Y004061D01*
X008694Y004094D01*
X008730Y004123D01*
X008769Y004149D01*
X008810Y004172D01*
X008853Y004191D01*
X008897Y004207D01*
X008942Y004219D01*
X008988Y004227D01*
X009035Y004231D01*
X009081Y004231D01*
X009128Y004227D01*
X009174Y004219D01*
X009219Y004207D01*
X009263Y004191D01*
X009306Y004172D01*
X009347Y004149D01*
X009386Y004123D01*
X009422Y004094D01*
X009456Y004061D01*
X009487Y004026D01*
X009515Y003989D01*
X009539Y003949D01*
X009560Y003907D01*
X009578Y003864D01*
X009591Y003819D01*
X009601Y003773D01*
X009607Y003727D01*
X009609Y003680D01*
X009607Y003633D01*
X009601Y003587D01*
X009591Y003541D01*
X009578Y003496D01*
X009560Y003453D01*
X009539Y003411D01*
X009515Y003371D01*
X009487Y003334D01*
X009456Y003299D01*
X009422Y003266D01*
X009386Y003237D01*
X009347Y003211D01*
X009306Y003188D01*
X009263Y003169D01*
X009219Y003153D01*
X009174Y003141D01*
X009128Y003133D01*
X009081Y003129D01*
X009035Y003129D01*
X008988Y003133D01*
X008942Y003141D01*
X008897Y003153D01*
X008853Y003169D01*
X008810Y003188D01*
X008769Y003211D01*
X008730Y003237D01*
X008694Y003266D01*
X008660Y003299D01*
X008629Y003334D01*
X008601Y003371D01*
X008577Y003411D01*
X008556Y003453D01*
X008538Y003496D01*
X008525Y003541D01*
X008515Y003587D01*
X008509Y003633D01*
X008507Y003680D01*
X011007Y008680D02*
X011009Y008727D01*
X011015Y008773D01*
X011025Y008819D01*
X011038Y008864D01*
X011056Y008907D01*
X011077Y008949D01*
X011101Y008989D01*
X011129Y009026D01*
X011160Y009061D01*
X011194Y009094D01*
X011230Y009123D01*
X011269Y009149D01*
X011310Y009172D01*
X011353Y009191D01*
X011397Y009207D01*
X011442Y009219D01*
X011488Y009227D01*
X011535Y009231D01*
X011581Y009231D01*
X011628Y009227D01*
X011674Y009219D01*
X011719Y009207D01*
X011763Y009191D01*
X011806Y009172D01*
X011847Y009149D01*
X011886Y009123D01*
X011922Y009094D01*
X011956Y009061D01*
X011987Y009026D01*
X012015Y008989D01*
X012039Y008949D01*
X012060Y008907D01*
X012078Y008864D01*
X012091Y008819D01*
X012101Y008773D01*
X012107Y008727D01*
X012109Y008680D01*
X012107Y008633D01*
X012101Y008587D01*
X012091Y008541D01*
X012078Y008496D01*
X012060Y008453D01*
X012039Y008411D01*
X012015Y008371D01*
X011987Y008334D01*
X011956Y008299D01*
X011922Y008266D01*
X011886Y008237D01*
X011847Y008211D01*
X011806Y008188D01*
X011763Y008169D01*
X011719Y008153D01*
X011674Y008141D01*
X011628Y008133D01*
X011581Y008129D01*
X011535Y008129D01*
X011488Y008133D01*
X011442Y008141D01*
X011397Y008153D01*
X011353Y008169D01*
X011310Y008188D01*
X011269Y008211D01*
X011230Y008237D01*
X011194Y008266D01*
X011160Y008299D01*
X011129Y008334D01*
X011101Y008371D01*
X011077Y008411D01*
X011056Y008453D01*
X011038Y008496D01*
X011025Y008541D01*
X011015Y008587D01*
X011009Y008633D01*
X011007Y008680D01*
X013507Y003680D02*
X013509Y003727D01*
X013515Y003773D01*
X013525Y003819D01*
X013538Y003864D01*
X013556Y003907D01*
X013577Y003949D01*
X013601Y003989D01*
X013629Y004026D01*
X013660Y004061D01*
X013694Y004094D01*
X013730Y004123D01*
X013769Y004149D01*
X013810Y004172D01*
X013853Y004191D01*
X013897Y004207D01*
X013942Y004219D01*
X013988Y004227D01*
X014035Y004231D01*
X014081Y004231D01*
X014128Y004227D01*
X014174Y004219D01*
X014219Y004207D01*
X014263Y004191D01*
X014306Y004172D01*
X014347Y004149D01*
X014386Y004123D01*
X014422Y004094D01*
X014456Y004061D01*
X014487Y004026D01*
X014515Y003989D01*
X014539Y003949D01*
X014560Y003907D01*
X014578Y003864D01*
X014591Y003819D01*
X014601Y003773D01*
X014607Y003727D01*
X014609Y003680D01*
X014607Y003633D01*
X014601Y003587D01*
X014591Y003541D01*
X014578Y003496D01*
X014560Y003453D01*
X014539Y003411D01*
X014515Y003371D01*
X014487Y003334D01*
X014456Y003299D01*
X014422Y003266D01*
X014386Y003237D01*
X014347Y003211D01*
X014306Y003188D01*
X014263Y003169D01*
X014219Y003153D01*
X014174Y003141D01*
X014128Y003133D01*
X014081Y003129D01*
X014035Y003129D01*
X013988Y003133D01*
X013942Y003141D01*
X013897Y003153D01*
X013853Y003169D01*
X013810Y003188D01*
X013769Y003211D01*
X013730Y003237D01*
X013694Y003266D01*
X013660Y003299D01*
X013629Y003334D01*
X013601Y003371D01*
X013577Y003411D01*
X013556Y003453D01*
X013538Y003496D01*
X013525Y003541D01*
X013515Y003587D01*
X013509Y003633D01*
X013507Y003680D01*
X018507Y003680D02*
X018509Y003727D01*
X018515Y003773D01*
X018525Y003819D01*
X018538Y003864D01*
X018556Y003907D01*
X018577Y003949D01*
X018601Y003989D01*
X018629Y004026D01*
X018660Y004061D01*
X018694Y004094D01*
X018730Y004123D01*
X018769Y004149D01*
X018810Y004172D01*
X018853Y004191D01*
X018897Y004207D01*
X018942Y004219D01*
X018988Y004227D01*
X019035Y004231D01*
X019081Y004231D01*
X019128Y004227D01*
X019174Y004219D01*
X019219Y004207D01*
X019263Y004191D01*
X019306Y004172D01*
X019347Y004149D01*
X019386Y004123D01*
X019422Y004094D01*
X019456Y004061D01*
X019487Y004026D01*
X019515Y003989D01*
X019539Y003949D01*
X019560Y003907D01*
X019578Y003864D01*
X019591Y003819D01*
X019601Y003773D01*
X019607Y003727D01*
X019609Y003680D01*
X019607Y003633D01*
X019601Y003587D01*
X019591Y003541D01*
X019578Y003496D01*
X019560Y003453D01*
X019539Y003411D01*
X019515Y003371D01*
X019487Y003334D01*
X019456Y003299D01*
X019422Y003266D01*
X019386Y003237D01*
X019347Y003211D01*
X019306Y003188D01*
X019263Y003169D01*
X019219Y003153D01*
X019174Y003141D01*
X019128Y003133D01*
X019081Y003129D01*
X019035Y003129D01*
X018988Y003133D01*
X018942Y003141D01*
X018897Y003153D01*
X018853Y003169D01*
X018810Y003188D01*
X018769Y003211D01*
X018730Y003237D01*
X018694Y003266D01*
X018660Y003299D01*
X018629Y003334D01*
X018601Y003371D01*
X018577Y003411D01*
X018556Y003453D01*
X018538Y003496D01*
X018525Y003541D01*
X018515Y003587D01*
X018509Y003633D01*
X018507Y003680D01*
D18*
X017542Y018227D03*
X016558Y018227D03*
X015574Y018227D03*
X015574Y025727D03*
X016558Y025727D03*
X017542Y025727D03*
X017542Y033227D03*
X016558Y033227D03*
X015574Y033227D03*
X007542Y033227D03*
X006558Y033227D03*
X005574Y033227D03*
X005574Y025727D03*
X006558Y025727D03*
X007542Y025727D03*
X007542Y018227D03*
X006558Y018227D03*
X005574Y018227D03*
D19*
X004787Y021180D03*
X008330Y021180D03*
X014787Y021180D03*
X018330Y021180D03*
X018330Y028680D03*
X014787Y028680D03*
X008330Y028680D03*
X004787Y028680D03*
X004787Y036180D03*
X008330Y036180D03*
X014787Y036180D03*
X018330Y036180D03*
D20*
X003108Y014155D03*
X002108Y014155D03*
X002108Y013155D03*
X003108Y013155D03*
X003108Y012155D03*
X002108Y012155D03*
X002108Y011155D03*
X002108Y010155D03*
X002108Y009155D03*
X003108Y009155D03*
X003108Y010155D03*
X003108Y011155D03*
X003108Y008155D03*
X002108Y008155D03*
X002108Y007155D03*
X003108Y007155D03*
D21*
X006558Y006830D03*
X006558Y008680D03*
X006558Y010530D03*
X011558Y011830D03*
X011558Y013680D03*
X011558Y015530D03*
X016558Y010530D03*
X016558Y008680D03*
X016558Y006830D03*
D22*
X004308Y023930D03*
D23*
X002308Y023930D03*
D24*
X019308Y038930D03*
D25*
X019228Y038903D02*
X010682Y038903D01*
X010768Y038989D02*
X010768Y039371D01*
X010599Y039540D01*
X018787Y039540D01*
X018508Y039261D01*
X018508Y039010D01*
X019228Y039010D01*
X019228Y038850D01*
X018508Y038850D01*
X018508Y038599D01*
X018977Y038130D01*
X019228Y038130D01*
X019228Y038850D01*
X019388Y038850D01*
X019388Y038130D01*
X019640Y038130D01*
X020108Y038599D01*
X020108Y038850D01*
X019388Y038850D01*
X019388Y039010D01*
X020108Y039010D01*
X020108Y039261D01*
X019830Y039540D01*
X020746Y039540D01*
X020793Y039533D01*
X020883Y039489D01*
X020949Y039415D01*
X020982Y039320D01*
X020983Y039281D01*
X020983Y039263D01*
X020981Y039218D01*
X020983Y039211D01*
X020983Y011061D01*
X020930Y011115D01*
X020857Y011168D01*
X020777Y011208D01*
X020692Y011236D01*
X020603Y011250D01*
X020577Y011250D01*
X020577Y010698D01*
X020540Y010698D01*
X020540Y010662D01*
X019988Y010662D01*
X019988Y010635D01*
X020002Y010547D01*
X020030Y010461D01*
X020071Y010381D01*
X020123Y010309D01*
X020187Y010245D01*
X020259Y010192D01*
X020339Y010152D01*
X020425Y010124D01*
X020513Y010110D01*
X020540Y010110D01*
X020540Y010662D01*
X020577Y010662D01*
X020577Y010110D01*
X020603Y010110D01*
X020692Y010124D01*
X020777Y010152D01*
X020857Y010192D01*
X020930Y010245D01*
X020983Y010299D01*
X020983Y007089D01*
X020892Y007180D01*
X020676Y007270D01*
X020441Y007270D01*
X020224Y007180D01*
X020058Y007014D01*
X019968Y006797D01*
X019968Y006563D01*
X020058Y006346D01*
X020224Y006180D01*
X020441Y006090D01*
X020676Y006090D01*
X020892Y006180D01*
X020983Y006271D01*
X020983Y001704D01*
X020978Y001676D01*
X020983Y001652D01*
X020983Y001628D01*
X020991Y001609D01*
X020997Y001568D01*
X020985Y001452D01*
X020938Y001346D01*
X020860Y001259D01*
X020760Y001201D01*
X020723Y001190D01*
X019408Y001190D01*
X019422Y001204D01*
X019466Y001265D01*
X019500Y001332D01*
X019523Y001403D01*
X019535Y001477D01*
X019535Y001496D01*
X019077Y001496D01*
X019077Y001533D01*
X019535Y001533D01*
X019535Y001552D01*
X019523Y001626D01*
X019500Y001698D01*
X019466Y001765D01*
X019422Y001825D01*
X019369Y001878D01*
X019315Y001918D01*
X019340Y001928D01*
X019479Y002068D01*
X019555Y002250D01*
X019555Y002448D01*
X020983Y002448D01*
X020983Y002290D02*
X019555Y002290D01*
X019555Y002448D02*
X019479Y002631D01*
X019340Y002770D01*
X019157Y002846D01*
X018959Y002846D01*
X018777Y002770D01*
X018637Y002631D01*
X018561Y002448D01*
X016948Y002448D01*
X016998Y002498D02*
X016998Y002680D01*
X016558Y002680D01*
X016118Y002680D01*
X016118Y002498D01*
X016376Y002240D01*
X016558Y002240D01*
X016558Y002680D01*
X016558Y002680D01*
X016118Y002680D01*
X016118Y002862D01*
X016376Y003120D01*
X016558Y003120D01*
X016558Y002680D01*
X016558Y002680D01*
X016558Y002680D01*
X016558Y003120D01*
X016740Y003120D01*
X016998Y002862D01*
X016998Y002680D01*
X016558Y002680D01*
X016558Y002240D01*
X016740Y002240D01*
X016998Y002498D01*
X016998Y002607D02*
X018627Y002607D01*
X018561Y002448D02*
X018561Y002250D01*
X018637Y002068D01*
X018777Y001928D01*
X018802Y001918D01*
X018748Y001878D01*
X018695Y001825D01*
X018650Y001765D01*
X018616Y001698D01*
X018593Y001626D01*
X018581Y001552D01*
X018581Y001533D01*
X019040Y001533D01*
X019040Y001496D01*
X018581Y001496D01*
X018581Y001477D01*
X018593Y001403D01*
X018616Y001332D01*
X018650Y001265D01*
X018695Y001204D01*
X018709Y001190D01*
X014408Y001190D01*
X014422Y001204D01*
X014466Y001265D01*
X014500Y001332D01*
X014523Y001403D01*
X014535Y001477D01*
X014535Y001496D01*
X014077Y001496D01*
X014077Y001533D01*
X014535Y001533D01*
X014535Y001552D01*
X014523Y001626D01*
X014500Y001698D01*
X014466Y001765D01*
X014422Y001825D01*
X014369Y001878D01*
X014315Y001918D01*
X014340Y001928D01*
X014479Y002068D01*
X014555Y002250D01*
X014555Y002448D01*
X016168Y002448D01*
X016118Y002607D02*
X014489Y002607D01*
X014479Y002631D02*
X014340Y002770D01*
X014157Y002846D01*
X013959Y002846D01*
X013777Y002770D01*
X013637Y002631D01*
X013561Y002448D01*
X011948Y002448D01*
X011998Y002498D02*
X011998Y002680D01*
X011558Y002680D01*
X011118Y002680D01*
X011118Y002498D01*
X011376Y002240D01*
X011558Y002240D01*
X011558Y002680D01*
X011558Y002680D01*
X011118Y002680D01*
X011118Y002862D01*
X011376Y003120D01*
X011558Y003120D01*
X011558Y002680D01*
X011558Y002680D01*
X011558Y002680D01*
X011558Y003120D01*
X011740Y003120D01*
X011998Y002862D01*
X011998Y002680D01*
X011558Y002680D01*
X011558Y002240D01*
X011740Y002240D01*
X011998Y002498D01*
X011998Y002607D02*
X013627Y002607D01*
X013561Y002448D02*
X013561Y002250D01*
X013637Y002068D01*
X013777Y001928D01*
X013802Y001918D01*
X013748Y001878D01*
X013695Y001825D01*
X013650Y001765D01*
X013616Y001698D01*
X013593Y001626D01*
X013581Y001552D01*
X013581Y001533D01*
X014040Y001533D01*
X014040Y001496D01*
X013581Y001496D01*
X013581Y001477D01*
X013593Y001403D01*
X013616Y001332D01*
X013650Y001265D01*
X013695Y001204D01*
X013709Y001190D01*
X009408Y001190D01*
X009422Y001204D01*
X009466Y001265D01*
X009500Y001332D01*
X009523Y001403D01*
X009535Y001477D01*
X009535Y001496D01*
X009077Y001496D01*
X009077Y001533D01*
X009535Y001533D01*
X009535Y001552D01*
X009523Y001626D01*
X009500Y001698D01*
X009466Y001765D01*
X009422Y001825D01*
X009369Y001878D01*
X009315Y001918D01*
X009340Y001928D01*
X009479Y002068D01*
X009555Y002250D01*
X009555Y002448D01*
X011168Y002448D01*
X011118Y002607D02*
X009489Y002607D01*
X009479Y002631D02*
X009340Y002770D01*
X009157Y002846D01*
X008959Y002846D01*
X008777Y002770D01*
X008637Y002631D01*
X008561Y002448D01*
X004555Y002448D01*
X004479Y002631D01*
X004340Y002770D01*
X004157Y002846D01*
X003959Y002846D01*
X003777Y002770D01*
X003637Y002631D01*
X003561Y002448D01*
X001818Y002448D01*
X001818Y002290D02*
X003561Y002290D01*
X003561Y002250D02*
X003637Y002068D01*
X003777Y001928D01*
X003802Y001918D01*
X003748Y001878D01*
X003695Y001825D01*
X003650Y001765D01*
X003616Y001698D01*
X003593Y001626D01*
X003581Y001552D01*
X003581Y001533D01*
X004040Y001533D01*
X004040Y001496D01*
X003581Y001496D01*
X003581Y001477D01*
X003593Y001403D01*
X003616Y001332D01*
X003650Y001265D01*
X003695Y001204D01*
X003709Y001190D01*
X002091Y001190D01*
X002052Y001201D01*
X001949Y001259D01*
X001869Y001346D01*
X001820Y001453D01*
X001806Y001570D01*
X001811Y001611D01*
X001818Y001628D01*
X001818Y001654D01*
X001823Y001680D01*
X001818Y001705D01*
X001818Y006639D01*
X001872Y006585D01*
X002344Y006585D01*
X002554Y006795D01*
X002662Y006795D01*
X002872Y006585D01*
X003344Y006585D01*
X003528Y006769D01*
X003528Y005811D01*
X003565Y005724D01*
X003561Y005716D01*
X003561Y005518D01*
X003637Y005336D01*
X003777Y005196D01*
X003959Y005120D01*
X004157Y005120D01*
X004340Y005196D01*
X004479Y005336D01*
X004555Y005518D01*
X004555Y005716D01*
X004479Y005898D01*
X004340Y006038D01*
X004157Y006114D01*
X004088Y006114D01*
X004088Y006844D01*
X004235Y006697D01*
X004445Y006610D01*
X004672Y006610D01*
X004881Y006697D01*
X005041Y006857D01*
X005128Y007067D01*
X005128Y007293D01*
X005041Y007503D01*
X004881Y007663D01*
X004672Y007750D01*
X004445Y007750D01*
X004235Y007663D01*
X004088Y007516D01*
X004088Y008844D01*
X004235Y008697D01*
X004445Y008610D01*
X004672Y008610D01*
X004881Y008697D01*
X005041Y008857D01*
X005128Y009067D01*
X005128Y009293D01*
X005041Y009503D01*
X004881Y009663D01*
X004672Y009750D01*
X004445Y009750D01*
X004235Y009663D01*
X004088Y009516D01*
X004088Y011344D01*
X004235Y011197D01*
X004445Y011110D01*
X004672Y011110D01*
X004881Y011197D01*
X005041Y011357D01*
X005128Y011567D01*
X005128Y011793D01*
X005041Y012003D01*
X004881Y012163D01*
X004672Y012250D01*
X004445Y012250D01*
X004235Y012163D01*
X004088Y012016D01*
X004088Y013344D01*
X004235Y013197D01*
X004445Y013110D01*
X004672Y013110D01*
X004881Y013197D01*
X005041Y013357D01*
X005128Y013567D01*
X005128Y013793D01*
X005041Y014003D01*
X004881Y014163D01*
X004716Y014232D01*
X004892Y014305D01*
X005058Y014471D01*
X005148Y014688D01*
X005148Y014922D01*
X005136Y014952D01*
X005368Y014720D01*
X005749Y014720D01*
X006018Y014989D01*
X006018Y015371D01*
X005918Y015471D01*
X005918Y015889D01*
X006018Y015989D01*
X006018Y016371D01*
X005749Y016640D01*
X005368Y016640D01*
X005098Y016371D01*
X005098Y015989D01*
X005198Y015889D01*
X005198Y015471D01*
X005098Y015371D01*
X005098Y015043D01*
X005058Y015139D01*
X004892Y015305D01*
X004676Y015395D01*
X004441Y015395D01*
X004224Y015305D01*
X004088Y015169D01*
X004088Y015861D01*
X004046Y015964D01*
X003967Y016042D01*
X003768Y016241D01*
X003768Y016371D01*
X003499Y016640D01*
X003118Y016640D01*
X002848Y016371D01*
X002848Y015989D01*
X003118Y015720D01*
X003497Y015720D01*
X003528Y015689D01*
X003528Y014541D01*
X003344Y014725D01*
X002872Y014725D01*
X002662Y014515D01*
X002554Y014515D01*
X002344Y014725D01*
X001872Y014725D01*
X001818Y014671D01*
X001818Y023635D01*
X002078Y023375D01*
X002308Y023375D01*
X002308Y023930D01*
X002308Y024485D01*
X002078Y024485D01*
X001818Y024225D01*
X001818Y039209D01*
X001820Y039215D01*
X001818Y039261D01*
X001818Y039271D01*
X001821Y039318D01*
X001856Y039414D01*
X001925Y039490D01*
X002018Y039533D01*
X002068Y039540D01*
X010018Y039540D01*
X009848Y039371D01*
X009848Y038989D01*
X010118Y038720D01*
X010499Y038720D01*
X010768Y038989D01*
X010768Y039062D02*
X018508Y039062D01*
X018508Y039220D02*
X010768Y039220D01*
X010760Y039379D02*
X018625Y039379D01*
X018784Y039537D02*
X010602Y039537D01*
X010015Y039537D02*
X002047Y039537D01*
X001843Y039379D02*
X009856Y039379D01*
X009848Y039220D02*
X001820Y039220D01*
X001818Y039062D02*
X009848Y039062D01*
X009935Y038903D02*
X001818Y038903D01*
X001818Y038745D02*
X010093Y038745D01*
X010523Y038745D02*
X018508Y038745D01*
X018521Y038586D02*
X001818Y038586D01*
X001818Y038428D02*
X018679Y038428D01*
X018838Y038269D02*
X001818Y038269D01*
X001818Y038111D02*
X020983Y038111D01*
X020983Y038269D02*
X019779Y038269D01*
X019937Y038428D02*
X020983Y038428D01*
X020983Y038586D02*
X020096Y038586D01*
X020108Y038745D02*
X020983Y038745D01*
X020983Y038903D02*
X019388Y038903D01*
X019388Y038745D02*
X019228Y038745D01*
X019228Y038586D02*
X019388Y038586D01*
X019388Y038428D02*
X019228Y038428D01*
X019228Y038269D02*
X019388Y038269D01*
X020108Y039062D02*
X020983Y039062D01*
X020981Y039220D02*
X020108Y039220D01*
X019991Y039379D02*
X020961Y039379D01*
X020765Y039537D02*
X019833Y039537D01*
X020983Y037952D02*
X001818Y037952D01*
X001818Y037794D02*
X020983Y037794D01*
X020983Y037635D02*
X010504Y037635D01*
X010499Y037640D02*
X010118Y037640D01*
X009848Y037371D01*
X009848Y036989D01*
X010033Y036805D01*
X009848Y036621D01*
X009848Y036239D01*
X010118Y035970D01*
X010499Y035970D01*
X010768Y036239D01*
X010768Y036621D01*
X010584Y036805D01*
X010768Y036989D01*
X010768Y037371D01*
X010499Y037640D01*
X010662Y037477D02*
X020983Y037477D01*
X020983Y037318D02*
X010768Y037318D01*
X010768Y037160D02*
X020983Y037160D01*
X020983Y037001D02*
X010768Y037001D01*
X010621Y036843D02*
X013070Y036843D01*
X013118Y036890D02*
X012848Y036621D01*
X012848Y036239D01*
X013118Y035970D01*
X013499Y035970D01*
X013768Y036239D01*
X013768Y036621D01*
X013499Y036890D01*
X013118Y036890D01*
X012912Y036684D02*
X010705Y036684D01*
X010768Y036526D02*
X012848Y036526D01*
X012848Y036367D02*
X010768Y036367D01*
X010737Y036209D02*
X012879Y036209D01*
X013038Y036050D02*
X010579Y036050D01*
X010660Y035640D02*
X010829Y035570D01*
X010958Y035441D01*
X011028Y035271D01*
X011028Y035088D01*
X010958Y034919D01*
X010829Y034790D01*
X010660Y034720D01*
X009957Y034720D01*
X009788Y034790D01*
X009658Y034919D01*
X009588Y035088D01*
X009588Y035271D01*
X009658Y035441D01*
X009788Y035570D01*
X009957Y035640D01*
X010660Y035640D01*
X010818Y035575D02*
X012799Y035575D01*
X012788Y035570D02*
X012658Y035441D01*
X012588Y035271D01*
X012588Y035088D01*
X012658Y034919D01*
X012788Y034790D01*
X012957Y034720D01*
X013660Y034720D01*
X013829Y034790D01*
X013939Y034900D01*
X014942Y034900D01*
X016177Y033666D01*
X016067Y033556D01*
X016066Y033555D01*
X016066Y033556D01*
X015903Y033719D01*
X015689Y033807D01*
X015459Y033807D01*
X015245Y033719D01*
X015082Y033556D01*
X014994Y033343D01*
X014994Y033112D01*
X015082Y032899D01*
X015245Y032736D01*
X015459Y032647D01*
X015689Y032647D01*
X015903Y032736D01*
X016066Y032899D01*
X016066Y032900D01*
X016067Y032899D01*
X016230Y032736D01*
X016443Y032647D01*
X016674Y032647D01*
X016887Y032736D01*
X017050Y032899D01*
X017064Y032933D01*
X017115Y032862D01*
X017178Y032800D01*
X017249Y032748D01*
X017328Y032708D01*
X017411Y032681D01*
X017498Y032667D01*
X017524Y032667D01*
X017524Y033209D01*
X017561Y033209D01*
X017561Y033246D01*
X017524Y033246D01*
X017524Y033787D01*
X017498Y033787D01*
X017411Y033773D01*
X017328Y033746D01*
X017249Y033706D01*
X017178Y033654D01*
X017115Y033592D01*
X017064Y033522D01*
X017050Y033556D01*
X016887Y033719D01*
X016837Y033740D01*
X016796Y033839D01*
X015296Y035339D01*
X015217Y035417D01*
X015144Y035448D01*
X015557Y035861D01*
X015557Y036100D01*
X014867Y036100D01*
X014867Y036260D01*
X015557Y036260D01*
X015557Y036499D01*
X015106Y036951D01*
X014867Y036951D01*
X014867Y036260D01*
X014707Y036260D01*
X014707Y036951D01*
X014467Y036951D01*
X014016Y036499D01*
X014016Y036260D01*
X014707Y036260D01*
X014707Y036100D01*
X014016Y036100D01*
X014016Y035861D01*
X014417Y035460D01*
X013939Y035460D01*
X013829Y035570D01*
X013660Y035640D01*
X012957Y035640D01*
X012788Y035570D01*
X012648Y035416D02*
X010968Y035416D01*
X011028Y035258D02*
X012588Y035258D01*
X012588Y035099D02*
X011028Y035099D01*
X010967Y034941D02*
X012650Y034941D01*
X012807Y034782D02*
X010810Y034782D01*
X010699Y034624D02*
X012917Y034624D01*
X012957Y034640D02*
X012788Y034570D01*
X012658Y034441D01*
X012588Y034271D01*
X012588Y034088D01*
X012658Y033919D01*
X012788Y033790D01*
X012957Y033720D01*
X013660Y033720D01*
X013829Y033790D01*
X013958Y033919D01*
X014028Y034088D01*
X014028Y034271D01*
X013958Y034441D01*
X013829Y034570D01*
X013660Y034640D01*
X012957Y034640D01*
X012683Y034465D02*
X010934Y034465D01*
X010958Y034441D02*
X010829Y034570D01*
X010660Y034640D01*
X009957Y034640D01*
X009788Y034570D01*
X009678Y034460D01*
X009503Y034460D01*
X009400Y034417D01*
X008091Y033108D01*
X008102Y033183D01*
X008102Y033209D01*
X007561Y033209D01*
X007561Y033246D01*
X007524Y033246D01*
X007524Y033787D01*
X007498Y033787D01*
X007411Y033773D01*
X007328Y033746D01*
X007249Y033706D01*
X007178Y033654D01*
X007115Y033592D01*
X007064Y033522D01*
X007050Y033556D01*
X006887Y033719D01*
X006674Y033807D01*
X006443Y033807D01*
X006230Y033719D01*
X006067Y033556D01*
X006066Y033555D01*
X006066Y033556D01*
X005903Y033719D01*
X005689Y033807D01*
X005459Y033807D01*
X005245Y033719D01*
X005082Y033556D01*
X004994Y033343D01*
X004994Y033112D01*
X005057Y032960D01*
X004674Y032960D01*
X003610Y034024D01*
X003628Y034067D01*
X003628Y034293D01*
X003541Y034503D01*
X003381Y034663D01*
X003341Y034680D01*
X003381Y034697D01*
X003541Y034857D01*
X003628Y035067D01*
X003628Y035293D01*
X003541Y035503D01*
X003381Y035663D01*
X003312Y035692D01*
X003347Y035710D01*
X003417Y035760D01*
X003478Y035822D01*
X003529Y035892D01*
X003568Y035969D01*
X003595Y036051D01*
X003608Y036137D01*
X003608Y036160D01*
X003078Y036160D01*
X003078Y036200D01*
X003038Y036200D01*
X003038Y036160D01*
X002508Y036160D01*
X002508Y036137D01*
X002522Y036051D01*
X002549Y035969D01*
X002588Y035892D01*
X002639Y035822D01*
X002700Y035760D01*
X002770Y035710D01*
X002805Y035692D01*
X002735Y035663D01*
X002575Y035503D01*
X002488Y035293D01*
X002488Y035067D01*
X002575Y034857D01*
X002735Y034697D01*
X002776Y034680D01*
X002735Y034663D01*
X002575Y034503D01*
X002488Y034293D01*
X002488Y034067D01*
X002575Y033857D01*
X002735Y033697D01*
X002776Y033680D01*
X002735Y033663D01*
X002575Y033503D01*
X002488Y033293D01*
X002488Y033067D01*
X002575Y032857D01*
X002735Y032697D01*
X002776Y032680D01*
X002735Y032663D01*
X002575Y032503D01*
X002488Y032293D01*
X002488Y032067D01*
X002575Y031857D01*
X002735Y031697D01*
X002945Y031610D01*
X003172Y031610D01*
X003381Y031697D01*
X003541Y031857D01*
X003628Y032067D01*
X003628Y032214D01*
X004150Y031693D01*
X004253Y031650D01*
X008364Y031650D01*
X008467Y031693D01*
X008546Y031771D01*
X009674Y032900D01*
X009678Y032900D01*
X009788Y032790D01*
X009957Y032720D01*
X010660Y032720D01*
X010829Y032790D01*
X010958Y032919D01*
X011028Y033088D01*
X011028Y033271D01*
X010958Y033441D01*
X010829Y033570D01*
X010660Y033640D01*
X009957Y033640D01*
X009788Y033570D01*
X009678Y033460D01*
X009503Y033460D01*
X009400Y033417D01*
X008192Y032210D01*
X004424Y032210D01*
X003610Y033024D01*
X003628Y033067D01*
X003628Y033214D01*
X004321Y032521D01*
X004400Y032443D01*
X004503Y032400D01*
X008114Y032400D01*
X008217Y032443D01*
X008296Y032521D01*
X009674Y033900D01*
X009678Y033900D01*
X009788Y033790D01*
X009957Y033720D01*
X010660Y033720D01*
X010829Y033790D01*
X010958Y033919D01*
X011028Y034088D01*
X011028Y034271D01*
X010958Y034441D01*
X011014Y034307D02*
X012603Y034307D01*
X012588Y034148D02*
X011028Y034148D01*
X010987Y033990D02*
X012629Y033990D01*
X012747Y033831D02*
X010870Y033831D01*
X010885Y033514D02*
X012732Y033514D01*
X012788Y033570D02*
X012658Y033441D01*
X012588Y033271D01*
X012588Y033088D01*
X012658Y032919D01*
X012788Y032790D01*
X012957Y032720D01*
X013622Y032720D01*
X013732Y032610D01*
X013660Y032640D01*
X012957Y032640D01*
X012788Y032570D01*
X012658Y032441D01*
X012588Y032271D01*
X012588Y032088D01*
X012658Y031919D01*
X012788Y031790D01*
X012957Y031720D01*
X013660Y031720D01*
X013829Y031790D01*
X013958Y031919D01*
X014028Y032088D01*
X014255Y032088D01*
X014400Y031943D02*
X013998Y032344D01*
X014028Y032271D01*
X014028Y032088D01*
X014028Y032246D02*
X014096Y032246D01*
X013962Y031929D02*
X014432Y031929D01*
X014400Y031943D02*
X014503Y031900D01*
X015442Y031900D01*
X016278Y031064D01*
X016278Y030745D01*
X016272Y030751D01*
X016133Y030808D01*
X015983Y030808D01*
X015844Y030751D01*
X015804Y030710D01*
X014424Y030710D01*
X014028Y031106D01*
X014028Y031271D01*
X013958Y031441D01*
X013829Y031570D01*
X013660Y031640D01*
X012957Y031640D01*
X012788Y031570D01*
X012658Y031441D01*
X012588Y031271D01*
X012588Y031088D01*
X012658Y030919D01*
X012788Y030790D01*
X012957Y030720D01*
X013622Y030720D01*
X013732Y030610D01*
X013660Y030640D01*
X012957Y030640D01*
X012788Y030570D01*
X012678Y030460D01*
X011924Y030460D01*
X011546Y030839D01*
X011467Y030917D01*
X011364Y030960D01*
X010975Y030960D01*
X011028Y031088D01*
X011028Y031271D01*
X010958Y031441D01*
X010829Y031570D01*
X010660Y031640D01*
X009957Y031640D01*
X009788Y031570D01*
X009658Y031441D01*
X009588Y031271D01*
X009588Y031088D01*
X009641Y030960D01*
X007753Y030960D01*
X007650Y030917D01*
X006900Y030167D01*
X006821Y030089D01*
X006778Y029986D01*
X006778Y027546D01*
X006692Y027460D01*
X005253Y027460D01*
X005150Y027417D01*
X004650Y026917D01*
X004571Y026839D01*
X004528Y026736D01*
X004528Y024874D01*
X004571Y024771D01*
X006278Y023064D01*
X006278Y018739D01*
X006230Y018719D01*
X006067Y018556D01*
X006066Y018555D01*
X006066Y018556D01*
X005903Y018719D01*
X005689Y018807D01*
X005459Y018807D01*
X005245Y018719D01*
X005082Y018556D01*
X004994Y018343D01*
X004994Y018112D01*
X005082Y017899D01*
X005245Y017736D01*
X005459Y017647D01*
X005689Y017647D01*
X005903Y017736D01*
X006066Y017899D01*
X006066Y017900D01*
X006067Y017899D01*
X006230Y017736D01*
X006443Y017647D01*
X006674Y017647D01*
X006887Y017736D01*
X007050Y017899D01*
X007064Y017933D01*
X007115Y017862D01*
X007178Y017800D01*
X007249Y017748D01*
X007328Y017708D01*
X007411Y017681D01*
X007498Y017667D01*
X007524Y017667D01*
X007524Y018209D01*
X007561Y018209D01*
X007561Y018246D01*
X007524Y018246D01*
X007524Y018787D01*
X007498Y018787D01*
X007411Y018773D01*
X007328Y018746D01*
X007249Y018706D01*
X007178Y018654D01*
X007115Y018592D01*
X007064Y018522D01*
X007050Y018556D01*
X006887Y018719D01*
X006838Y018739D01*
X006838Y023236D01*
X006796Y023339D01*
X006717Y023417D01*
X005088Y025046D01*
X005088Y025393D01*
X005245Y025236D01*
X005459Y025147D01*
X005689Y025147D01*
X005903Y025236D01*
X006066Y025399D01*
X006066Y025400D01*
X006067Y025399D01*
X006230Y025236D01*
X006443Y025147D01*
X006674Y025147D01*
X006887Y025236D01*
X007050Y025399D01*
X007064Y025433D01*
X007115Y025362D01*
X007178Y025300D01*
X007249Y025248D01*
X007328Y025208D01*
X007411Y025181D01*
X007498Y025167D01*
X007524Y025167D01*
X007524Y025709D01*
X007561Y025709D01*
X007561Y025746D01*
X007524Y025746D01*
X007524Y026287D01*
X007498Y026287D01*
X007411Y026273D01*
X007328Y026246D01*
X007249Y026206D01*
X007178Y026154D01*
X007115Y026092D01*
X007064Y026022D01*
X007050Y026056D01*
X006887Y026219D01*
X006674Y026307D01*
X006443Y026307D01*
X006230Y026219D01*
X006067Y026056D01*
X006066Y026055D01*
X006066Y026056D01*
X005903Y026219D01*
X005689Y026307D01*
X005459Y026307D01*
X005245Y026219D01*
X005088Y026062D01*
X005088Y026564D01*
X005424Y026900D01*
X006864Y026900D01*
X006967Y026943D01*
X007046Y027021D01*
X007296Y027271D01*
X007338Y027374D01*
X007338Y029814D01*
X007924Y030400D01*
X009641Y030400D01*
X009588Y030271D01*
X009588Y030088D01*
X009658Y029919D01*
X009788Y029790D01*
X009957Y029720D01*
X010660Y029720D01*
X010829Y029790D01*
X010958Y029919D01*
X011028Y030088D01*
X011028Y030271D01*
X010975Y030400D01*
X011192Y030400D01*
X011650Y029943D01*
X011753Y029900D01*
X012678Y029900D01*
X012788Y029790D01*
X012957Y029720D01*
X013660Y029720D01*
X013829Y029790D01*
X013958Y029919D01*
X014028Y030088D01*
X014028Y030271D01*
X013998Y030344D01*
X014150Y030193D01*
X014253Y030150D01*
X015804Y030150D01*
X015844Y030109D01*
X015983Y030052D01*
X016133Y030052D01*
X016272Y030109D01*
X016278Y030115D01*
X016278Y026239D01*
X016230Y026219D01*
X016067Y026056D01*
X016066Y026055D01*
X016066Y026056D01*
X015903Y026219D01*
X015689Y026307D01*
X015459Y026307D01*
X015245Y026219D01*
X015082Y026056D01*
X014994Y025843D01*
X014994Y025612D01*
X015057Y025460D01*
X013939Y025460D01*
X013829Y025570D01*
X013660Y025640D01*
X012957Y025640D01*
X012788Y025570D01*
X012658Y025441D01*
X012588Y025271D01*
X012588Y025088D01*
X012658Y024919D01*
X012788Y024790D01*
X012957Y024720D01*
X013660Y024720D01*
X013829Y024790D01*
X013939Y024900D01*
X015153Y024900D01*
X015123Y024871D01*
X015123Y024489D01*
X015393Y024220D01*
X015774Y024220D01*
X016043Y024489D01*
X016043Y024871D01*
X016014Y024900D01*
X017181Y024900D01*
X017143Y024862D01*
X017143Y024680D01*
X017143Y024498D01*
X017401Y024240D01*
X017583Y024240D01*
X017583Y024680D01*
X017143Y024680D01*
X017583Y024680D01*
X017583Y024680D01*
X017583Y024680D01*
X017583Y024240D01*
X017765Y024240D01*
X018023Y024498D01*
X018023Y024680D01*
X018023Y024862D01*
X017985Y024900D01*
X019307Y024900D01*
X019325Y024857D01*
X019485Y024697D01*
X019526Y024680D01*
X019485Y024663D01*
X019325Y024503D01*
X019238Y024293D01*
X019238Y024210D01*
X015313Y024210D01*
X015272Y024251D01*
X015133Y024308D01*
X014983Y024308D01*
X014844Y024251D01*
X014738Y024144D01*
X014680Y024005D01*
X014680Y023855D01*
X014738Y023716D01*
X014744Y023710D01*
X014674Y023710D01*
X014046Y024339D01*
X013969Y024416D01*
X013958Y024441D01*
X013829Y024570D01*
X013660Y024640D01*
X012957Y024640D01*
X012788Y024570D01*
X012658Y024441D01*
X012588Y024271D01*
X012588Y024088D01*
X012658Y023919D01*
X012788Y023790D01*
X012957Y023720D01*
X013660Y023720D01*
X013810Y023782D01*
X014400Y023193D01*
X014503Y023150D01*
X018442Y023150D01*
X018645Y022947D01*
X018614Y022960D01*
X013975Y022960D01*
X014028Y023088D01*
X014028Y023271D01*
X013958Y023441D01*
X013829Y023570D01*
X013660Y023640D01*
X012957Y023640D01*
X012801Y023576D01*
X012796Y023589D01*
X012046Y024339D01*
X011967Y024417D01*
X011864Y024460D01*
X010939Y024460D01*
X010829Y024570D01*
X010660Y024640D01*
X010083Y024640D01*
X010153Y024720D01*
X010660Y024720D01*
X010829Y024790D01*
X010958Y024919D01*
X011028Y025088D01*
X011028Y025271D01*
X010958Y025441D01*
X010829Y025570D01*
X010660Y025640D01*
X009957Y025640D01*
X009788Y025570D01*
X009678Y025461D01*
X009678Y025722D01*
X009767Y025811D01*
X009788Y025790D01*
X009957Y025720D01*
X010660Y025720D01*
X010829Y025790D01*
X010958Y025919D01*
X011028Y026088D01*
X011028Y026271D01*
X010958Y026441D01*
X010829Y026570D01*
X010660Y026640D01*
X009957Y026640D01*
X009788Y026570D01*
X009718Y026500D01*
X009620Y026500D01*
X009502Y026451D01*
X009228Y026178D01*
X009228Y026343D01*
X009227Y026346D01*
X009729Y026848D01*
X009788Y026790D01*
X009957Y026720D01*
X010660Y026720D01*
X010829Y026790D01*
X010958Y026919D01*
X011028Y027088D01*
X011028Y027271D01*
X010958Y027441D01*
X010829Y027570D01*
X010660Y027640D01*
X009957Y027640D01*
X009788Y027570D01*
X009718Y027500D01*
X009545Y027500D01*
X009427Y027451D01*
X008774Y026799D01*
X008772Y026800D01*
X008545Y026800D01*
X008335Y026713D01*
X008175Y026553D01*
X008088Y026343D01*
X008088Y026117D01*
X008175Y025907D01*
X008335Y025747D01*
X008405Y025718D01*
X008370Y025700D01*
X008300Y025650D01*
X008239Y025588D01*
X008188Y025518D01*
X008149Y025441D01*
X008122Y025359D01*
X008108Y025273D01*
X008108Y025230D01*
X008108Y025187D01*
X008122Y025101D01*
X008149Y025019D01*
X008188Y024942D01*
X008239Y024872D01*
X008300Y024810D01*
X008370Y024760D01*
X008405Y024742D01*
X008335Y024713D01*
X008175Y024553D01*
X008088Y024343D01*
X008088Y024117D01*
X008175Y023907D01*
X008335Y023747D01*
X008545Y023660D01*
X008772Y023660D01*
X008981Y023747D01*
X009028Y023794D01*
X009028Y021571D01*
X008649Y021951D01*
X008410Y021951D01*
X008410Y021260D01*
X008250Y021260D01*
X008250Y021951D01*
X008011Y021951D01*
X007559Y021499D01*
X007559Y021260D01*
X008250Y021260D01*
X008250Y021100D01*
X008410Y021100D01*
X008410Y020409D01*
X008649Y020409D01*
X009028Y020789D01*
X009028Y017296D01*
X009018Y017286D01*
X009018Y017371D01*
X008749Y017640D01*
X008368Y017640D01*
X008098Y017371D01*
X008098Y016989D01*
X008164Y016923D01*
X008150Y016917D01*
X008071Y016839D01*
X007571Y016339D01*
X007528Y016236D01*
X007528Y014016D01*
X007381Y014163D01*
X007172Y014250D01*
X006945Y014250D01*
X006735Y014163D01*
X006628Y014056D01*
X006628Y014133D01*
X006588Y014173D01*
X006588Y016925D01*
X006629Y016966D01*
X006686Y017105D01*
X006686Y017255D01*
X006629Y017394D01*
X006522Y017501D01*
X006383Y017558D01*
X006233Y017558D01*
X006094Y017501D01*
X005988Y017394D01*
X005981Y017379D01*
X005740Y017620D01*
X005558Y017620D01*
X005376Y017620D01*
X005118Y017362D01*
X005118Y017180D01*
X005118Y016998D01*
X005376Y016740D01*
X005558Y016740D01*
X005558Y017180D01*
X005118Y017180D01*
X005558Y017180D01*
X005558Y017180D01*
X005558Y017180D01*
X005558Y017620D01*
X005558Y017180D01*
X005558Y017180D01*
X005558Y016740D01*
X005740Y016740D01*
X005981Y016981D01*
X005988Y016966D01*
X006028Y016925D01*
X006028Y014250D01*
X005605Y014250D01*
X005488Y014133D01*
X005488Y013227D01*
X005605Y013110D01*
X006511Y013110D01*
X006628Y013227D01*
X006628Y013304D01*
X006735Y013197D01*
X006945Y013110D01*
X007172Y013110D01*
X007381Y013197D01*
X007528Y013344D01*
X007528Y011896D01*
X006949Y011317D01*
X006903Y011363D01*
X006213Y011363D01*
X005725Y010875D01*
X005725Y010185D01*
X006213Y009697D01*
X006903Y009697D01*
X007391Y010185D01*
X007391Y010875D01*
X007345Y010921D01*
X007778Y011354D01*
X007778Y008546D01*
X006895Y007663D01*
X006213Y007663D01*
X005725Y007175D01*
X005725Y006485D01*
X006213Y005997D01*
X006903Y005997D01*
X007391Y006485D01*
X007391Y007175D01*
X007295Y007271D01*
X008118Y008094D01*
X008118Y007998D01*
X008376Y007740D01*
X008558Y007740D01*
X008558Y008180D01*
X008558Y008620D01*
X008376Y008620D01*
X008338Y008582D01*
X008338Y010749D01*
X008368Y010720D01*
X008749Y010720D01*
X009018Y010989D01*
X009018Y011371D01*
X008749Y011640D01*
X008368Y011640D01*
X008338Y011611D01*
X008338Y011778D01*
X008376Y011740D01*
X008558Y011740D01*
X008558Y012180D01*
X008558Y012180D01*
X008558Y012620D01*
X008376Y012620D01*
X008338Y012582D01*
X008338Y013814D01*
X008576Y014052D01*
X008633Y014052D01*
X008772Y014109D01*
X008879Y014216D01*
X008936Y014355D01*
X008936Y014505D01*
X008879Y014644D01*
X008776Y014747D01*
X009018Y014989D01*
X009018Y015324D01*
X009528Y014814D01*
X009528Y012640D01*
X009419Y012640D01*
X009518Y012739D01*
X009518Y013121D01*
X009249Y013390D01*
X008868Y013390D01*
X008598Y013121D01*
X008598Y012739D01*
X008718Y012620D01*
X008558Y012620D01*
X008558Y012180D01*
X008558Y012180D01*
X008558Y011740D01*
X008740Y011740D01*
X008998Y011998D01*
X008998Y012180D01*
X008558Y012180D01*
X008998Y012180D01*
X008998Y012362D01*
X008890Y012470D01*
X009198Y012470D01*
X009098Y012371D01*
X009098Y011989D01*
X009368Y011720D01*
X009749Y011720D01*
X010018Y011989D01*
X010018Y012244D01*
X010046Y012271D01*
X010088Y012374D01*
X010088Y014986D01*
X010046Y015089D01*
X009967Y015167D01*
X009018Y016116D01*
X009018Y016371D01*
X008952Y016437D01*
X008967Y016443D01*
X009046Y016521D01*
X009546Y017021D01*
X009588Y017124D01*
X009588Y024075D01*
X009592Y024079D01*
X009658Y023919D01*
X009788Y023790D01*
X009957Y023720D01*
X010660Y023720D01*
X010829Y023790D01*
X010939Y023900D01*
X011692Y023900D01*
X012278Y023314D01*
X012278Y022856D01*
X011796Y023339D01*
X011717Y023417D01*
X011614Y023460D01*
X010939Y023460D01*
X010829Y023570D01*
X010660Y023640D01*
X009957Y023640D01*
X009788Y023570D01*
X009658Y023441D01*
X009588Y023271D01*
X009588Y023088D01*
X009658Y022919D01*
X009788Y022790D01*
X009957Y022720D01*
X010660Y022720D01*
X010829Y022790D01*
X010939Y022900D01*
X011442Y022900D01*
X011895Y022447D01*
X011864Y022460D01*
X010939Y022460D01*
X010829Y022570D01*
X010660Y022640D01*
X009957Y022640D01*
X009788Y022570D01*
X009658Y022441D01*
X009588Y022271D01*
X009588Y022088D01*
X009658Y021919D01*
X009788Y021790D01*
X009957Y021720D01*
X010660Y021720D01*
X010829Y021790D01*
X010939Y021900D01*
X011692Y021900D01*
X011778Y021814D01*
X011778Y020124D01*
X011821Y020021D01*
X013278Y018564D01*
X013278Y017051D01*
X013098Y016871D01*
X013098Y016489D01*
X013368Y016220D01*
X013749Y016220D01*
X013778Y016249D01*
X013778Y014111D01*
X013749Y014140D01*
X013368Y014140D01*
X013098Y013871D01*
X013098Y013489D01*
X013368Y013220D01*
X013698Y013220D01*
X013598Y013121D01*
X013598Y012739D01*
X013718Y012620D01*
X013558Y012620D01*
X013376Y012620D01*
X013118Y012362D01*
X013118Y012180D01*
X013118Y011998D01*
X013376Y011740D01*
X013558Y011740D01*
X013558Y012180D01*
X013118Y012180D01*
X013558Y012180D01*
X013558Y012180D01*
X013558Y012180D01*
X013558Y012620D01*
X013558Y012180D01*
X013558Y012180D01*
X013558Y011740D01*
X013740Y011740D01*
X013998Y011998D01*
X013998Y012180D01*
X013998Y012362D01*
X013890Y012470D01*
X014198Y012470D01*
X014098Y012371D01*
X014098Y011989D01*
X014368Y011720D01*
X014749Y011720D01*
X015018Y011989D01*
X015018Y012371D01*
X014749Y012640D01*
X014419Y012640D01*
X014518Y012739D01*
X014518Y013074D01*
X016229Y011363D01*
X016213Y011363D01*
X015725Y010875D01*
X015725Y010185D01*
X016213Y009697D01*
X016903Y009697D01*
X017278Y010072D01*
X017278Y009110D01*
X016895Y009493D01*
X016638Y009493D01*
X016638Y008760D01*
X016478Y008760D01*
X016478Y008600D01*
X015745Y008600D01*
X015745Y008343D01*
X016221Y007867D01*
X016478Y007867D01*
X016478Y008600D01*
X016638Y008600D01*
X016638Y007867D01*
X016895Y007867D01*
X017278Y008250D01*
X017278Y007546D01*
X017149Y007417D01*
X016903Y007663D01*
X016213Y007663D01*
X015725Y007175D01*
X015725Y006485D01*
X016213Y005997D01*
X016225Y005997D01*
X016098Y005871D01*
X016098Y005489D01*
X016368Y005220D01*
X016749Y005220D01*
X017018Y005489D01*
X017018Y005871D01*
X016892Y005997D01*
X016903Y005997D01*
X017391Y006485D01*
X017391Y006867D01*
X017796Y007271D01*
X017838Y007374D01*
X017838Y010986D01*
X017796Y011089D01*
X017717Y011167D01*
X015774Y013110D01*
X016511Y013110D01*
X016628Y013227D01*
X016628Y013304D01*
X016735Y013197D01*
X016945Y013110D01*
X017172Y013110D01*
X017381Y013197D01*
X017541Y013357D01*
X017559Y013400D01*
X017864Y013400D01*
X017967Y013443D01*
X020217Y015693D01*
X020296Y015771D01*
X020338Y015874D01*
X020338Y021986D01*
X020296Y022089D01*
X019752Y022632D01*
X019765Y022630D01*
X019788Y022630D01*
X019788Y023160D01*
X019828Y023160D01*
X019828Y022630D01*
X019852Y022630D01*
X019937Y022644D01*
X020019Y022670D01*
X020097Y022710D01*
X020167Y022760D01*
X020228Y022822D01*
X020279Y022892D01*
X020318Y022969D01*
X020345Y023051D01*
X020358Y023137D01*
X020358Y023160D01*
X019828Y023160D01*
X019828Y023200D01*
X020358Y023200D01*
X020358Y023223D01*
X020345Y023309D01*
X020318Y023391D01*
X020279Y023468D01*
X020228Y023538D01*
X020167Y023600D01*
X020097Y023650D01*
X020062Y023668D01*
X020131Y023697D01*
X020291Y023857D01*
X020378Y024067D01*
X020378Y024293D01*
X020291Y024503D01*
X020131Y024663D01*
X020091Y024680D01*
X020131Y024697D01*
X020291Y024857D01*
X020378Y025067D01*
X020378Y025293D01*
X020291Y025503D01*
X020131Y025663D01*
X020091Y025680D01*
X020131Y025697D01*
X020291Y025857D01*
X020378Y026067D01*
X020378Y026293D01*
X020291Y026503D01*
X020131Y026663D01*
X020091Y026680D01*
X020131Y026697D01*
X020291Y026857D01*
X020983Y026857D01*
X020983Y026699D02*
X020133Y026699D01*
X020254Y026540D02*
X020983Y026540D01*
X020983Y026382D02*
X020342Y026382D01*
X020378Y026223D02*
X020983Y026223D01*
X020983Y026065D02*
X020377Y026065D01*
X020312Y025906D02*
X020983Y025906D01*
X020983Y025748D02*
X020182Y025748D01*
X020205Y025589D02*
X020983Y025589D01*
X020983Y025431D02*
X020321Y025431D01*
X020378Y025272D02*
X020983Y025272D01*
X020983Y025114D02*
X020378Y025114D01*
X020332Y024955D02*
X020983Y024955D01*
X020983Y024797D02*
X020231Y024797D01*
X020156Y024638D02*
X020983Y024638D01*
X020983Y024480D02*
X020301Y024480D01*
X020367Y024321D02*
X020983Y024321D01*
X020983Y024163D02*
X020378Y024163D01*
X020352Y024004D02*
X020983Y024004D01*
X020983Y023846D02*
X020280Y023846D01*
X020108Y023687D02*
X020983Y023687D01*
X020983Y023529D02*
X020235Y023529D01*
X020325Y023370D02*
X020983Y023370D01*
X020983Y023212D02*
X020358Y023212D01*
X020345Y023053D02*
X020983Y023053D01*
X020983Y022895D02*
X020280Y022895D01*
X020133Y022736D02*
X020983Y022736D01*
X020983Y022578D02*
X019807Y022578D01*
X019788Y022736D02*
X019828Y022736D01*
X019828Y022895D02*
X019788Y022895D01*
X019788Y023053D02*
X019828Y023053D01*
X019965Y022419D02*
X020983Y022419D01*
X020983Y022261D02*
X020124Y022261D01*
X020282Y022102D02*
X020983Y022102D01*
X020983Y021944D02*
X020338Y021944D01*
X020338Y021785D02*
X020983Y021785D01*
X020983Y021627D02*
X020338Y021627D01*
X020338Y021468D02*
X020983Y021468D01*
X020983Y021310D02*
X020338Y021310D01*
X020338Y021151D02*
X020983Y021151D01*
X020983Y020993D02*
X020338Y020993D01*
X020338Y020834D02*
X020983Y020834D01*
X020983Y020676D02*
X020338Y020676D01*
X020338Y020517D02*
X020983Y020517D01*
X020983Y020359D02*
X020338Y020359D01*
X020338Y020200D02*
X020983Y020200D01*
X020983Y020042D02*
X020338Y020042D01*
X020338Y019883D02*
X020983Y019883D01*
X020983Y019725D02*
X020338Y019725D01*
X020338Y019566D02*
X020983Y019566D01*
X020983Y019408D02*
X020338Y019408D01*
X020338Y019249D02*
X020983Y019249D01*
X020983Y019091D02*
X020338Y019091D01*
X020338Y018932D02*
X020983Y018932D01*
X020983Y018774D02*
X020338Y018774D01*
X020338Y018615D02*
X020983Y018615D01*
X020983Y018457D02*
X020338Y018457D01*
X020338Y018298D02*
X020983Y018298D01*
X020983Y018140D02*
X020338Y018140D01*
X020338Y017981D02*
X020983Y017981D01*
X020983Y017823D02*
X020338Y017823D01*
X020338Y017664D02*
X020983Y017664D01*
X020983Y017506D02*
X020338Y017506D01*
X020338Y017347D02*
X020983Y017347D01*
X020983Y017189D02*
X020338Y017189D01*
X020338Y017030D02*
X020983Y017030D01*
X020983Y016872D02*
X020338Y016872D01*
X020338Y016713D02*
X020983Y016713D01*
X020983Y016555D02*
X020338Y016555D01*
X020338Y016396D02*
X020983Y016396D01*
X020983Y016238D02*
X020338Y016238D01*
X020338Y016079D02*
X020983Y016079D01*
X020983Y015921D02*
X020338Y015921D01*
X020286Y015762D02*
X020983Y015762D01*
X020983Y015604D02*
X020128Y015604D01*
X020217Y015693D02*
X020217Y015693D01*
X020058Y015930D02*
X020058Y021930D01*
X019058Y022930D01*
X018558Y023430D01*
X014558Y023430D01*
X013808Y024180D01*
X013308Y024180D01*
X012952Y024638D02*
X010664Y024638D01*
X010835Y024797D02*
X012781Y024797D01*
X012644Y024955D02*
X010973Y024955D01*
X011028Y025114D02*
X012588Y025114D01*
X012588Y025272D02*
X011028Y025272D01*
X010962Y025431D02*
X012654Y025431D01*
X012834Y025589D02*
X010783Y025589D01*
X010726Y025748D02*
X012890Y025748D01*
X012957Y025720D02*
X013660Y025720D01*
X013829Y025790D01*
X013958Y025919D01*
X014028Y026088D01*
X014028Y026271D01*
X013958Y026441D01*
X013829Y026570D01*
X013660Y026640D01*
X012957Y026640D01*
X012788Y026570D01*
X012658Y026441D01*
X012588Y026271D01*
X012588Y026088D01*
X012658Y025919D01*
X012788Y025790D01*
X012957Y025720D01*
X012672Y025906D02*
X010945Y025906D01*
X011018Y026065D02*
X012598Y026065D01*
X012588Y026223D02*
X011028Y026223D01*
X010983Y026382D02*
X012634Y026382D01*
X012758Y026540D02*
X010859Y026540D01*
X010896Y026857D02*
X012721Y026857D01*
X012658Y026919D02*
X012788Y026790D01*
X012957Y026720D01*
X013660Y026720D01*
X013829Y026790D01*
X013958Y026919D01*
X014028Y027088D01*
X014028Y027271D01*
X013958Y027441D01*
X013829Y027570D01*
X013660Y027640D01*
X012957Y027640D01*
X012788Y027570D01*
X012658Y027441D01*
X012588Y027271D01*
X012588Y027088D01*
X012658Y026919D01*
X012618Y027016D02*
X010998Y027016D01*
X011028Y027174D02*
X012588Y027174D01*
X012614Y027333D02*
X011003Y027333D01*
X010908Y027491D02*
X012709Y027491D01*
X012788Y027790D02*
X012758Y027820D01*
X012737Y027820D01*
X012604Y027875D01*
X011659Y028820D01*
X010859Y028820D01*
X010829Y028790D01*
X010660Y028720D01*
X009957Y028720D01*
X009788Y028790D01*
X009658Y028919D01*
X009588Y029088D01*
X009588Y029271D01*
X009658Y029441D01*
X009788Y029570D01*
X009957Y029640D01*
X010660Y029640D01*
X010829Y029570D01*
X010859Y029540D01*
X011880Y029540D01*
X012012Y029485D01*
X012113Y029384D01*
X012886Y028611D01*
X012957Y028640D01*
X013660Y028640D01*
X013829Y028570D01*
X013958Y028441D01*
X014028Y028271D01*
X014028Y028088D01*
X013958Y027919D01*
X013829Y027790D01*
X013660Y027720D01*
X012957Y027720D01*
X012788Y027790D01*
X012770Y027808D02*
X010805Y027808D01*
X010799Y027804D02*
X010855Y027844D01*
X010904Y027893D01*
X010945Y027949D01*
X010976Y028011D01*
X010997Y028077D01*
X011008Y028145D01*
X011008Y028180D01*
X010308Y028180D01*
X009608Y028180D01*
X009608Y028145D01*
X009619Y028077D01*
X009640Y028011D01*
X009672Y027949D01*
X009713Y027893D01*
X009762Y027844D01*
X009818Y027804D01*
X009879Y027772D01*
X009945Y027751D01*
X010014Y027740D01*
X010308Y027740D01*
X010308Y028180D01*
X010308Y028180D01*
X009608Y028180D01*
X009608Y028215D01*
X009619Y028283D01*
X009640Y028349D01*
X009672Y028411D01*
X009713Y028467D01*
X009762Y028516D01*
X009818Y028556D01*
X009879Y028588D01*
X009945Y028609D01*
X010014Y028620D01*
X010308Y028620D01*
X010308Y028180D01*
X010308Y028180D01*
X010308Y028180D01*
X010308Y027740D01*
X010603Y027740D01*
X010671Y027751D01*
X010737Y027772D01*
X010799Y027804D01*
X010953Y027967D02*
X012513Y027967D01*
X012354Y028125D02*
X011005Y028125D01*
X011008Y028180D02*
X011008Y028215D01*
X010997Y028283D01*
X010976Y028349D01*
X010945Y028411D01*
X010904Y028467D01*
X010855Y028516D01*
X010799Y028556D01*
X010737Y028588D01*
X010671Y028609D01*
X010603Y028620D01*
X010308Y028620D01*
X010308Y028180D01*
X011008Y028180D01*
X010997Y028284D02*
X012196Y028284D01*
X012037Y028442D02*
X010922Y028442D01*
X010698Y028601D02*
X011879Y028601D01*
X011720Y028759D02*
X010754Y028759D01*
X010308Y028601D02*
X010308Y028601D01*
X010308Y028442D02*
X010308Y028442D01*
X010308Y028284D02*
X010308Y028284D01*
X010308Y028180D02*
X010308Y028180D01*
X010308Y028125D02*
X010308Y028125D01*
X010308Y027967D02*
X010308Y027967D01*
X010308Y027808D02*
X010308Y027808D01*
X009919Y028601D02*
X008410Y028601D01*
X008410Y028600D02*
X008410Y028760D01*
X009100Y028760D01*
X009100Y028999D01*
X008649Y029451D01*
X008410Y029451D01*
X008410Y028760D01*
X008250Y028760D01*
X008250Y029451D01*
X008011Y029451D01*
X007559Y028999D01*
X007559Y028760D01*
X008250Y028760D01*
X008250Y028600D01*
X008410Y028600D01*
X009100Y028600D01*
X009100Y028361D01*
X008649Y027909D01*
X008410Y027909D01*
X008410Y028600D01*
X008410Y028442D02*
X008250Y028442D01*
X008250Y028600D02*
X008250Y027909D01*
X008011Y027909D01*
X007559Y028361D01*
X007559Y028600D01*
X008250Y028600D01*
X008250Y028601D02*
X007338Y028601D01*
X007338Y028759D02*
X008250Y028759D01*
X008250Y028918D02*
X008410Y028918D01*
X008410Y029076D02*
X008250Y029076D01*
X008250Y029235D02*
X008410Y029235D01*
X008410Y029393D02*
X008250Y029393D01*
X007953Y029393D02*
X007338Y029393D01*
X007338Y029235D02*
X007795Y029235D01*
X007636Y029076D02*
X007338Y029076D01*
X007338Y028918D02*
X007559Y028918D01*
X007559Y028442D02*
X007338Y028442D01*
X007338Y028284D02*
X007637Y028284D01*
X007795Y028125D02*
X007338Y028125D01*
X007338Y027967D02*
X007954Y027967D01*
X008250Y027967D02*
X008410Y027967D01*
X008410Y028125D02*
X008250Y028125D01*
X008250Y028284D02*
X008410Y028284D01*
X008706Y027967D02*
X009663Y027967D01*
X009611Y028125D02*
X008865Y028125D01*
X009023Y028284D02*
X009619Y028284D01*
X009695Y028442D02*
X009100Y028442D01*
X009100Y028918D02*
X009660Y028918D01*
X009593Y029076D02*
X009024Y029076D01*
X008865Y029235D02*
X009588Y029235D01*
X009639Y029393D02*
X008707Y029393D01*
X008410Y028759D02*
X009862Y028759D01*
X009769Y029552D02*
X007338Y029552D01*
X007338Y029710D02*
X016278Y029710D01*
X016278Y029552D02*
X013805Y029552D01*
X013799Y029556D02*
X013737Y029588D01*
X013671Y029609D01*
X013603Y029620D01*
X013308Y029620D01*
X013014Y029620D01*
X012945Y029609D01*
X012879Y029588D01*
X012818Y029556D01*
X012762Y029516D01*
X012713Y029467D01*
X012672Y029411D01*
X012640Y029349D01*
X012619Y029283D01*
X012608Y029215D01*
X012608Y029180D01*
X012608Y029145D01*
X012619Y029077D01*
X012640Y029011D01*
X012672Y028949D01*
X012713Y028893D01*
X012762Y028844D01*
X012818Y028804D01*
X012879Y028772D01*
X012945Y028751D01*
X013014Y028740D01*
X013308Y028740D01*
X013308Y029180D01*
X012608Y029180D01*
X013308Y029180D01*
X013308Y029180D01*
X013308Y029180D01*
X013308Y029620D01*
X013308Y029180D01*
X013308Y029180D01*
X013308Y028740D01*
X013603Y028740D01*
X013671Y028751D01*
X013737Y028772D01*
X013799Y028804D01*
X013855Y028844D01*
X013904Y028893D01*
X013945Y028949D01*
X013976Y029011D01*
X013997Y029077D01*
X014008Y029145D01*
X014008Y029180D01*
X013308Y029180D01*
X014008Y029180D01*
X014008Y029215D01*
X013997Y029283D01*
X013976Y029349D01*
X013945Y029411D01*
X013904Y029467D01*
X013855Y029516D01*
X013799Y029556D01*
X013954Y029393D02*
X014410Y029393D01*
X014467Y029451D02*
X014016Y028999D01*
X014016Y028760D01*
X014707Y028760D01*
X014707Y029451D01*
X014467Y029451D01*
X014707Y029393D02*
X014867Y029393D01*
X014867Y029451D02*
X015106Y029451D01*
X015557Y028999D01*
X015557Y028760D01*
X014867Y028760D01*
X014867Y028600D01*
X015557Y028600D01*
X015557Y028361D01*
X015106Y027909D01*
X014867Y027909D01*
X014867Y028600D01*
X014707Y028600D01*
X014707Y027909D01*
X014467Y027909D01*
X014016Y028361D01*
X014016Y028600D01*
X014707Y028600D01*
X014707Y028760D01*
X014867Y028760D01*
X014867Y029451D01*
X014867Y029235D02*
X014707Y029235D01*
X014707Y029076D02*
X014867Y029076D01*
X014867Y028918D02*
X014707Y028918D01*
X014707Y028759D02*
X013697Y028759D01*
X013755Y028601D02*
X014707Y028601D01*
X014707Y028442D02*
X014867Y028442D01*
X014867Y028284D02*
X014707Y028284D01*
X014707Y028125D02*
X014867Y028125D01*
X014867Y027967D02*
X014707Y027967D01*
X014410Y027967D02*
X013978Y027967D01*
X014028Y028125D02*
X014252Y028125D01*
X014093Y028284D02*
X014023Y028284D01*
X014016Y028442D02*
X013957Y028442D01*
X013921Y028918D02*
X014016Y028918D01*
X013997Y029076D02*
X014093Y029076D01*
X014005Y029235D02*
X014251Y029235D01*
X013907Y029869D02*
X016278Y029869D01*
X016278Y030027D02*
X014003Y030027D01*
X014028Y030186D02*
X014167Y030186D01*
X013998Y030344D02*
X013998Y030344D01*
X014308Y030430D02*
X013558Y031180D01*
X013308Y031180D01*
X012889Y031612D02*
X010727Y031612D01*
X010660Y031720D02*
X010829Y031790D01*
X010958Y031919D01*
X011028Y032088D01*
X012589Y032088D01*
X012588Y032246D02*
X011028Y032246D01*
X011028Y032271D02*
X010958Y032441D01*
X010829Y032570D01*
X010660Y032640D01*
X009957Y032640D01*
X009788Y032570D01*
X009658Y032441D01*
X009588Y032271D01*
X009588Y032088D01*
X009658Y031919D01*
X009788Y031790D01*
X009957Y031720D01*
X010660Y031720D01*
X010782Y031771D02*
X012835Y031771D01*
X012654Y031929D02*
X010962Y031929D01*
X011028Y032088D02*
X011028Y032271D01*
X010973Y032405D02*
X012643Y032405D01*
X012781Y032563D02*
X010836Y032563D01*
X010663Y032722D02*
X012953Y032722D01*
X012698Y032880D02*
X010919Y032880D01*
X011008Y033039D02*
X012609Y033039D01*
X012588Y033197D02*
X011028Y033197D01*
X010993Y033356D02*
X012623Y033356D01*
X012788Y033570D02*
X012957Y033640D01*
X013660Y033640D01*
X013829Y033570D01*
X013958Y033441D01*
X014028Y033271D01*
X014028Y033106D01*
X014674Y032460D01*
X015614Y032460D01*
X015717Y032417D01*
X015796Y032339D01*
X016796Y031339D01*
X016838Y031236D01*
X016838Y026239D01*
X016887Y026219D01*
X017050Y026056D01*
X017064Y026022D01*
X017115Y026092D01*
X017178Y026154D01*
X017249Y026206D01*
X017328Y026246D01*
X017411Y026273D01*
X017498Y026287D01*
X017524Y026287D01*
X017524Y025746D01*
X017561Y025746D01*
X017561Y026287D01*
X017587Y026287D01*
X017674Y026273D01*
X017757Y026246D01*
X017836Y026206D01*
X017907Y026154D01*
X017970Y026092D01*
X018021Y026021D01*
X018061Y025942D01*
X018089Y025858D01*
X018102Y025771D01*
X018102Y025746D01*
X017561Y025746D01*
X017561Y025709D01*
X018102Y025709D01*
X018102Y025683D01*
X018089Y025596D01*
X018061Y025512D01*
X018035Y025460D01*
X019307Y025460D01*
X019325Y025503D01*
X019485Y025663D01*
X019526Y025680D01*
X019485Y025697D01*
X019325Y025857D01*
X019238Y026067D01*
X019238Y026293D01*
X019325Y026503D01*
X019485Y026663D01*
X019526Y026680D01*
X019485Y026697D01*
X019325Y026857D01*
X016838Y026857D01*
X016838Y026699D02*
X019484Y026699D01*
X019362Y026540D02*
X016838Y026540D01*
X016838Y026382D02*
X019275Y026382D01*
X019238Y026223D02*
X017803Y026223D01*
X017561Y026223D02*
X017524Y026223D01*
X017524Y026065D02*
X017561Y026065D01*
X017561Y025906D02*
X017524Y025906D01*
X017524Y025748D02*
X017561Y025748D01*
X017990Y026065D02*
X019239Y026065D01*
X019305Y025906D02*
X018073Y025906D01*
X018102Y025748D02*
X019435Y025748D01*
X019411Y025589D02*
X018086Y025589D01*
X018023Y024797D02*
X019386Y024797D01*
X019460Y024638D02*
X018023Y024638D01*
X018023Y024680D02*
X017583Y024680D01*
X018023Y024680D01*
X018005Y024480D02*
X019315Y024480D01*
X019250Y024321D02*
X017847Y024321D01*
X017583Y024321D02*
X017583Y024321D01*
X017583Y024480D02*
X017583Y024480D01*
X017583Y024638D02*
X017583Y024638D01*
X017583Y024680D02*
X017583Y024680D01*
X017143Y024638D02*
X016043Y024638D01*
X016043Y024797D02*
X017143Y024797D01*
X017161Y024480D02*
X016033Y024480D01*
X015875Y024321D02*
X017320Y024321D01*
X018539Y023053D02*
X014014Y023053D01*
X014028Y023212D02*
X014381Y023212D01*
X014222Y023370D02*
X013987Y023370D01*
X014064Y023529D02*
X013870Y023529D01*
X013905Y023687D02*
X012697Y023687D01*
X012732Y023846D02*
X012539Y023846D01*
X012623Y024004D02*
X012380Y024004D01*
X012222Y024163D02*
X012588Y024163D01*
X012609Y024321D02*
X012063Y024321D01*
X011808Y024180D02*
X010308Y024180D01*
X010884Y023846D02*
X011747Y023846D01*
X011905Y023687D02*
X009588Y023687D01*
X009588Y023529D02*
X009746Y023529D01*
X009629Y023370D02*
X009588Y023370D01*
X009588Y023212D02*
X009588Y023212D01*
X009588Y023053D02*
X009603Y023053D01*
X009588Y022895D02*
X009683Y022895D01*
X009588Y022736D02*
X009918Y022736D01*
X009806Y022578D02*
X009588Y022578D01*
X009588Y022419D02*
X009649Y022419D01*
X009588Y022261D02*
X009588Y022261D01*
X009588Y022102D02*
X009588Y022102D01*
X009588Y021944D02*
X009648Y021944D01*
X009588Y021785D02*
X009800Y021785D01*
X009588Y021627D02*
X011778Y021627D01*
X011778Y021785D02*
X010817Y021785D01*
X010308Y022180D02*
X011808Y022180D01*
X012058Y021930D01*
X012058Y020180D01*
X013558Y018680D01*
X013558Y016680D01*
X013258Y017030D02*
X009549Y017030D01*
X009588Y017189D02*
X013278Y017189D01*
X013278Y017347D02*
X009588Y017347D01*
X009588Y017506D02*
X013278Y017506D01*
X013278Y017664D02*
X009588Y017664D01*
X009588Y017823D02*
X013278Y017823D01*
X013278Y017981D02*
X009588Y017981D01*
X009588Y018140D02*
X010576Y018140D01*
X010605Y018110D02*
X011511Y018110D01*
X011628Y018227D01*
X011628Y018304D01*
X011735Y018197D01*
X011945Y018110D01*
X012172Y018110D01*
X012381Y018197D01*
X012541Y018357D01*
X012628Y018567D01*
X012628Y018793D01*
X012541Y019003D01*
X012381Y019163D01*
X012172Y019250D01*
X011945Y019250D01*
X011735Y019163D01*
X011628Y019056D01*
X011628Y019133D01*
X011511Y019250D01*
X010605Y019250D01*
X010488Y019133D01*
X010488Y018227D01*
X010605Y018110D01*
X010488Y018298D02*
X009588Y018298D01*
X009588Y018457D02*
X010488Y018457D01*
X010488Y018615D02*
X009588Y018615D01*
X009588Y018774D02*
X010488Y018774D01*
X010488Y018932D02*
X009588Y018932D01*
X009588Y019091D02*
X010488Y019091D01*
X010604Y019249D02*
X009588Y019249D01*
X009588Y019408D02*
X012435Y019408D01*
X012276Y019566D02*
X009588Y019566D01*
X009588Y019725D02*
X012118Y019725D01*
X011959Y019883D02*
X009588Y019883D01*
X009588Y020042D02*
X011813Y020042D01*
X011778Y020200D02*
X009588Y020200D01*
X009588Y020359D02*
X011778Y020359D01*
X011778Y020517D02*
X009588Y020517D01*
X009588Y020676D02*
X011778Y020676D01*
X011778Y020834D02*
X009588Y020834D01*
X009588Y020993D02*
X011778Y020993D01*
X011778Y021151D02*
X009588Y021151D01*
X009588Y021310D02*
X011778Y021310D01*
X011778Y021468D02*
X009588Y021468D01*
X009028Y021627D02*
X008973Y021627D01*
X009028Y021785D02*
X008815Y021785D01*
X008656Y021944D02*
X009028Y021944D01*
X009028Y022102D02*
X006838Y022102D01*
X006838Y021944D02*
X008004Y021944D01*
X007845Y021785D02*
X006838Y021785D01*
X006838Y021627D02*
X007687Y021627D01*
X007559Y021468D02*
X006838Y021468D01*
X006838Y021310D02*
X007559Y021310D01*
X007559Y021100D02*
X007559Y020861D01*
X008011Y020409D01*
X008250Y020409D01*
X008250Y021100D01*
X007559Y021100D01*
X007559Y020993D02*
X006838Y020993D01*
X006838Y021151D02*
X008250Y021151D01*
X008250Y020993D02*
X008410Y020993D01*
X008410Y020834D02*
X008250Y020834D01*
X008250Y020676D02*
X008410Y020676D01*
X008410Y020517D02*
X008250Y020517D01*
X007903Y020517D02*
X006838Y020517D01*
X006838Y020359D02*
X009028Y020359D01*
X009028Y020517D02*
X008757Y020517D01*
X008915Y020676D02*
X009028Y020676D01*
X009028Y020200D02*
X006838Y020200D01*
X006838Y020042D02*
X009028Y020042D01*
X009028Y019883D02*
X006838Y019883D01*
X006838Y019725D02*
X009028Y019725D01*
X009028Y019566D02*
X006838Y019566D01*
X006838Y019408D02*
X009028Y019408D01*
X009028Y019249D02*
X006838Y019249D01*
X006838Y019091D02*
X009028Y019091D01*
X009028Y018932D02*
X006838Y018932D01*
X006838Y018774D02*
X007412Y018774D01*
X007524Y018774D02*
X007561Y018774D01*
X007561Y018787D02*
X007561Y018246D01*
X008102Y018246D01*
X008102Y018271D01*
X008089Y018358D01*
X008061Y018442D01*
X008021Y018521D01*
X007970Y018592D01*
X007907Y018654D01*
X007836Y018706D01*
X007757Y018746D01*
X007674Y018773D01*
X007587Y018787D01*
X007561Y018787D01*
X007673Y018774D02*
X009028Y018774D01*
X009028Y018615D02*
X007947Y018615D01*
X008054Y018457D02*
X009028Y018457D01*
X009028Y018298D02*
X008098Y018298D01*
X008102Y018209D02*
X007561Y018209D01*
X007561Y017667D01*
X007587Y017667D01*
X007674Y017681D01*
X007757Y017708D01*
X007836Y017748D01*
X007907Y017800D01*
X007970Y017862D01*
X008021Y017934D01*
X008061Y018012D01*
X008089Y018096D01*
X008102Y018183D01*
X008102Y018209D01*
X008096Y018140D02*
X009028Y018140D01*
X009028Y017981D02*
X008046Y017981D01*
X007930Y017823D02*
X009028Y017823D01*
X009028Y017664D02*
X006714Y017664D01*
X006510Y017506D02*
X008233Y017506D01*
X008098Y017347D02*
X006648Y017347D01*
X006686Y017189D02*
X008098Y017189D01*
X008098Y017030D02*
X006655Y017030D01*
X006588Y016872D02*
X008104Y016872D01*
X007945Y016713D02*
X006588Y016713D01*
X006588Y016555D02*
X007787Y016555D01*
X007628Y016396D02*
X006588Y016396D01*
X006588Y016238D02*
X007529Y016238D01*
X007528Y016079D02*
X006588Y016079D01*
X006588Y015921D02*
X007528Y015921D01*
X007528Y015762D02*
X006588Y015762D01*
X006588Y015604D02*
X007528Y015604D01*
X007528Y015445D02*
X006588Y015445D01*
X006588Y015287D02*
X007528Y015287D01*
X007528Y015128D02*
X006588Y015128D01*
X006588Y014970D02*
X007528Y014970D01*
X007528Y014811D02*
X006588Y014811D01*
X006588Y014653D02*
X007528Y014653D01*
X007528Y014494D02*
X006588Y014494D01*
X006588Y014336D02*
X007528Y014336D01*
X007528Y014177D02*
X007348Y014177D01*
X007526Y014019D02*
X007528Y014019D01*
X008058Y013930D02*
X008558Y014430D01*
X008840Y014177D02*
X009528Y014177D01*
X009528Y014019D02*
X008543Y014019D01*
X008384Y013860D02*
X009528Y013860D01*
X009528Y013702D02*
X008338Y013702D01*
X008338Y013543D02*
X009528Y013543D01*
X009528Y013385D02*
X009254Y013385D01*
X009413Y013226D02*
X009528Y013226D01*
X009518Y013068D02*
X009528Y013068D01*
X009518Y012909D02*
X009528Y012909D01*
X009518Y012751D02*
X009528Y012751D01*
X009808Y012430D02*
X009558Y012180D01*
X009808Y012430D02*
X009808Y014930D01*
X008558Y016180D01*
X009018Y016238D02*
X011088Y016238D01*
X011213Y016363D02*
X010725Y015875D01*
X010725Y015185D01*
X011213Y014697D01*
X011903Y014697D01*
X012391Y015185D01*
X012391Y015875D01*
X011903Y016363D01*
X011213Y016363D01*
X010929Y016079D02*
X009055Y016079D01*
X009214Y015921D02*
X010771Y015921D01*
X010725Y015762D02*
X009372Y015762D01*
X009531Y015604D02*
X010725Y015604D01*
X010725Y015445D02*
X009689Y015445D01*
X009848Y015287D02*
X010725Y015287D01*
X010782Y015128D02*
X010006Y015128D01*
X010088Y014970D02*
X010941Y014970D01*
X011099Y014811D02*
X010088Y014811D01*
X010088Y014653D02*
X013778Y014653D01*
X013778Y014811D02*
X012017Y014811D01*
X012176Y014970D02*
X013778Y014970D01*
X013778Y015128D02*
X012334Y015128D01*
X012391Y015287D02*
X013778Y015287D01*
X013778Y015445D02*
X012391Y015445D01*
X012391Y015604D02*
X013778Y015604D01*
X013778Y015762D02*
X012391Y015762D01*
X012346Y015921D02*
X013778Y015921D01*
X013778Y016079D02*
X012187Y016079D01*
X012029Y016238D02*
X013350Y016238D01*
X013192Y016396D02*
X008993Y016396D01*
X009079Y016555D02*
X013098Y016555D01*
X013098Y016713D02*
X009237Y016713D01*
X009396Y016872D02*
X013099Y016872D01*
X013766Y016238D02*
X013778Y016238D01*
X014588Y016238D02*
X014598Y016238D01*
X014598Y016371D02*
X014598Y015989D01*
X014868Y015720D01*
X015249Y015720D01*
X015518Y015989D01*
X015518Y016371D01*
X015249Y016640D01*
X014868Y016640D01*
X014598Y016371D01*
X014588Y016396D02*
X014624Y016396D01*
X014588Y016555D02*
X014782Y016555D01*
X014588Y016713D02*
X019098Y016713D01*
X019098Y016871D02*
X019098Y016489D01*
X019368Y016220D01*
X019749Y016220D01*
X019778Y016249D01*
X019778Y016046D01*
X017692Y013960D01*
X017559Y013960D01*
X017541Y014003D01*
X017381Y014163D01*
X017172Y014250D01*
X016945Y014250D01*
X016735Y014163D01*
X016628Y014056D01*
X016628Y014133D01*
X016511Y014250D01*
X015605Y014250D01*
X015488Y014133D01*
X015488Y013396D01*
X014588Y014296D01*
X014588Y018986D01*
X014546Y019089D01*
X014467Y019167D01*
X012838Y020796D01*
X012838Y021769D01*
X012957Y021720D01*
X013660Y021720D01*
X013829Y021790D01*
X013958Y021919D01*
X014028Y022088D01*
X014028Y022271D01*
X013975Y022400D01*
X018442Y022400D01*
X019278Y021564D01*
X019278Y017051D01*
X019098Y016871D01*
X019099Y016872D02*
X014588Y016872D01*
X014588Y017030D02*
X019258Y017030D01*
X019278Y017189D02*
X014588Y017189D01*
X014588Y017347D02*
X019278Y017347D01*
X019278Y017506D02*
X014588Y017506D01*
X014588Y017664D02*
X015418Y017664D01*
X015459Y017647D02*
X015689Y017647D01*
X015903Y017736D01*
X016066Y017899D01*
X016066Y017900D01*
X016067Y017899D01*
X016230Y017736D01*
X016443Y017647D01*
X016674Y017647D01*
X016887Y017736D01*
X017050Y017899D01*
X017064Y017933D01*
X017115Y017862D01*
X017178Y017800D01*
X017249Y017748D01*
X017328Y017708D01*
X017411Y017681D01*
X017498Y017667D01*
X017524Y017667D01*
X017524Y018209D01*
X017561Y018209D01*
X017561Y018246D01*
X017524Y018246D01*
X017524Y018787D01*
X017498Y018787D01*
X017411Y018773D01*
X017328Y018746D01*
X017249Y018706D01*
X017178Y018654D01*
X017115Y018592D01*
X017064Y018522D01*
X017050Y018556D01*
X016887Y018719D01*
X016674Y018807D01*
X016443Y018807D01*
X016230Y018719D01*
X016067Y018556D01*
X016066Y018555D01*
X016066Y018556D01*
X015903Y018719D01*
X015689Y018807D01*
X015459Y018807D01*
X015245Y018719D01*
X015082Y018556D01*
X014994Y018343D01*
X014994Y018112D01*
X015082Y017899D01*
X015245Y017736D01*
X015459Y017647D01*
X015730Y017664D02*
X016402Y017664D01*
X016143Y017823D02*
X015990Y017823D01*
X016006Y018615D02*
X016126Y018615D01*
X016361Y018774D02*
X015771Y018774D01*
X015377Y018774D02*
X014588Y018774D01*
X014588Y018932D02*
X019278Y018932D01*
X019278Y018774D02*
X017673Y018774D01*
X017674Y018773D02*
X017587Y018787D01*
X017561Y018787D01*
X017561Y018246D01*
X018102Y018246D01*
X018102Y018271D01*
X018089Y018358D01*
X018061Y018442D01*
X018021Y018521D01*
X017970Y018592D01*
X017907Y018654D01*
X017836Y018706D01*
X017757Y018746D01*
X017674Y018773D01*
X017561Y018774D02*
X017524Y018774D01*
X017412Y018774D02*
X016755Y018774D01*
X016991Y018615D02*
X017138Y018615D01*
X017524Y018615D02*
X017561Y018615D01*
X017561Y018457D02*
X017524Y018457D01*
X017524Y018298D02*
X017561Y018298D01*
X017561Y018209D02*
X018102Y018209D01*
X018102Y018183D01*
X018089Y018096D01*
X018061Y018012D01*
X018021Y017934D01*
X017970Y017862D01*
X017907Y017800D01*
X017836Y017748D01*
X017757Y017708D01*
X017674Y017681D01*
X017587Y017667D01*
X017561Y017667D01*
X017561Y018209D01*
X017561Y018140D02*
X017524Y018140D01*
X017524Y017981D02*
X017561Y017981D01*
X017561Y017823D02*
X017524Y017823D01*
X017155Y017823D02*
X016974Y017823D01*
X016714Y017664D02*
X019278Y017664D01*
X019278Y017823D02*
X017930Y017823D01*
X018046Y017981D02*
X019278Y017981D01*
X019278Y018140D02*
X018096Y018140D01*
X018098Y018298D02*
X019278Y018298D01*
X019278Y018457D02*
X018054Y018457D01*
X017947Y018615D02*
X019278Y018615D01*
X019278Y019091D02*
X014544Y019091D01*
X014385Y019249D02*
X019278Y019249D01*
X019278Y019408D02*
X014227Y019408D01*
X014068Y019566D02*
X019278Y019566D01*
X019278Y019725D02*
X013910Y019725D01*
X013751Y019883D02*
X019278Y019883D01*
X019278Y020042D02*
X013593Y020042D01*
X013434Y020200D02*
X019278Y020200D01*
X019278Y020359D02*
X013276Y020359D01*
X013117Y020517D02*
X014360Y020517D01*
X014467Y020409D02*
X014016Y020861D01*
X014016Y021100D01*
X014707Y021100D01*
X014867Y021100D01*
X014867Y021260D01*
X015557Y021260D01*
X015557Y021499D01*
X015106Y021951D01*
X014867Y021951D01*
X014867Y021260D01*
X014707Y021260D01*
X014707Y021951D01*
X014467Y021951D01*
X014016Y021499D01*
X014016Y021260D01*
X014707Y021260D01*
X014707Y021100D01*
X014707Y020409D01*
X014467Y020409D01*
X014707Y020517D02*
X014867Y020517D01*
X014867Y020409D02*
X015106Y020409D01*
X015557Y020861D01*
X015557Y021100D01*
X014867Y021100D01*
X014867Y020409D01*
X014867Y020676D02*
X014707Y020676D01*
X014707Y020834D02*
X014867Y020834D01*
X014867Y020993D02*
X014707Y020993D01*
X014707Y021151D02*
X012838Y021151D01*
X012838Y020993D02*
X014016Y020993D01*
X014043Y020834D02*
X012838Y020834D01*
X012959Y020676D02*
X014201Y020676D01*
X014016Y021310D02*
X012838Y021310D01*
X012838Y021468D02*
X014016Y021468D01*
X014143Y021627D02*
X012838Y021627D01*
X013308Y022180D02*
X013808Y022680D01*
X018558Y022680D01*
X019558Y021680D01*
X019558Y016680D01*
X019192Y016396D02*
X018464Y016396D01*
X018498Y016362D02*
X018240Y016620D01*
X018058Y016620D01*
X017876Y016620D01*
X017618Y016362D01*
X017618Y016180D01*
X017618Y015998D01*
X017876Y015740D01*
X018058Y015740D01*
X018058Y016180D01*
X017618Y016180D01*
X018058Y016180D01*
X018058Y016180D01*
X018058Y016180D01*
X018058Y016620D01*
X018058Y016180D01*
X018058Y016180D01*
X018058Y015740D01*
X018240Y015740D01*
X018498Y015998D01*
X018498Y016180D01*
X018498Y016362D01*
X018498Y016238D02*
X019350Y016238D01*
X019098Y016555D02*
X018306Y016555D01*
X018058Y016555D02*
X018058Y016555D01*
X018058Y016396D02*
X018058Y016396D01*
X018058Y016238D02*
X018058Y016238D01*
X018058Y016180D02*
X018498Y016180D01*
X018058Y016180D01*
X018058Y016180D01*
X018058Y016079D02*
X018058Y016079D01*
X018058Y015921D02*
X018058Y015921D01*
X018058Y015762D02*
X018058Y015762D01*
X018058Y015620D02*
X017876Y015620D01*
X017618Y015362D01*
X017618Y015180D01*
X017618Y014998D01*
X017876Y014740D01*
X018058Y014740D01*
X018058Y015180D01*
X017618Y015180D01*
X018058Y015180D01*
X018058Y015180D01*
X018058Y015180D01*
X018058Y015620D01*
X018240Y015620D01*
X018498Y015362D01*
X018498Y015180D01*
X018058Y015180D01*
X018058Y015180D01*
X018058Y014740D01*
X018240Y014740D01*
X018498Y014998D01*
X018498Y015180D01*
X018058Y015180D01*
X018058Y015620D01*
X018058Y015604D02*
X018058Y015604D01*
X018058Y015445D02*
X018058Y015445D01*
X018058Y015287D02*
X018058Y015287D01*
X018058Y015180D02*
X018058Y015180D01*
X018058Y015128D02*
X018058Y015128D01*
X018058Y014970D02*
X018058Y014970D01*
X018058Y014811D02*
X018058Y014811D01*
X017805Y014811D02*
X015340Y014811D01*
X015249Y014720D02*
X015518Y014989D01*
X015518Y015371D01*
X015249Y015640D01*
X014868Y015640D01*
X014598Y015371D01*
X014598Y014989D01*
X014868Y014720D01*
X015249Y014720D01*
X015498Y014970D02*
X017646Y014970D01*
X017618Y015128D02*
X015518Y015128D01*
X015518Y015287D02*
X017618Y015287D01*
X017701Y015445D02*
X015444Y015445D01*
X015285Y015604D02*
X017860Y015604D01*
X017854Y015762D02*
X015291Y015762D01*
X015449Y015921D02*
X017695Y015921D01*
X017618Y016079D02*
X015518Y016079D01*
X015518Y016238D02*
X017618Y016238D01*
X017652Y016396D02*
X015493Y016396D01*
X015334Y016555D02*
X017811Y016555D01*
X018498Y016079D02*
X019778Y016079D01*
X019766Y016238D02*
X019778Y016238D01*
X019653Y015921D02*
X018421Y015921D01*
X018263Y015762D02*
X019494Y015762D01*
X019336Y015604D02*
X018257Y015604D01*
X018415Y015445D02*
X019177Y015445D01*
X019019Y015287D02*
X018498Y015287D01*
X018498Y015128D02*
X018860Y015128D01*
X018702Y014970D02*
X018470Y014970D01*
X018543Y014811D02*
X018312Y014811D01*
X018385Y014653D02*
X014588Y014653D01*
X014588Y014811D02*
X014777Y014811D01*
X014618Y014970D02*
X014588Y014970D01*
X014588Y015128D02*
X014598Y015128D01*
X014588Y015287D02*
X014598Y015287D01*
X014588Y015445D02*
X014673Y015445D01*
X014588Y015604D02*
X014831Y015604D01*
X014826Y015762D02*
X014588Y015762D01*
X014588Y015921D02*
X014667Y015921D01*
X014598Y016079D02*
X014588Y016079D01*
X014588Y014494D02*
X018226Y014494D01*
X018068Y014336D02*
X014588Y014336D01*
X014707Y014177D02*
X015532Y014177D01*
X015488Y014019D02*
X014866Y014019D01*
X015024Y013860D02*
X015488Y013860D01*
X015488Y013702D02*
X015183Y013702D01*
X015341Y013543D02*
X015488Y013543D01*
X015817Y013068D02*
X018598Y013068D01*
X018598Y013121D02*
X018598Y012739D01*
X018718Y012620D01*
X018558Y012620D01*
X018376Y012620D01*
X018118Y012362D01*
X018118Y012180D01*
X018118Y011998D01*
X018376Y011740D01*
X018558Y011740D01*
X018558Y012180D01*
X018118Y012180D01*
X018558Y012180D01*
X018558Y012180D01*
X018558Y012180D01*
X018558Y012620D01*
X018558Y012180D01*
X018558Y012180D01*
X018558Y011740D01*
X018740Y011740D01*
X018998Y011998D01*
X018998Y012180D01*
X018998Y012362D01*
X018890Y012470D01*
X019198Y012470D01*
X019098Y012371D01*
X019098Y011989D01*
X019368Y011720D01*
X019749Y011720D01*
X020018Y011989D01*
X020018Y012371D01*
X019749Y012640D01*
X019419Y012640D01*
X019518Y012739D01*
X019518Y013121D01*
X019419Y013220D01*
X019749Y013220D01*
X020018Y013489D01*
X020018Y013871D01*
X019749Y014140D01*
X019368Y014140D01*
X019098Y013871D01*
X019098Y013489D01*
X019198Y013390D01*
X018868Y013390D01*
X018598Y013121D01*
X018704Y013226D02*
X017410Y013226D01*
X017553Y013385D02*
X018862Y013385D01*
X019098Y013543D02*
X018067Y013543D01*
X018226Y013702D02*
X019098Y013702D01*
X019098Y013860D02*
X018384Y013860D01*
X018543Y014019D02*
X019246Y014019D01*
X018860Y014336D02*
X020983Y014336D01*
X020983Y014494D02*
X019018Y014494D01*
X019177Y014653D02*
X020983Y014653D01*
X020983Y014811D02*
X019335Y014811D01*
X019494Y014970D02*
X020983Y014970D01*
X020983Y015128D02*
X019652Y015128D01*
X019811Y015287D02*
X020983Y015287D01*
X020983Y015445D02*
X019969Y015445D01*
X020058Y015930D02*
X017808Y013680D01*
X017058Y013680D01*
X016706Y013226D02*
X016627Y013226D01*
X016134Y012751D02*
X018598Y012751D01*
X018598Y012909D02*
X015975Y012909D01*
X016292Y012592D02*
X018348Y012592D01*
X018558Y012592D02*
X018558Y012592D01*
X018558Y012434D02*
X018558Y012434D01*
X018558Y012275D02*
X018558Y012275D01*
X018558Y012180D02*
X018998Y012180D01*
X018558Y012180D01*
X018558Y012180D01*
X018558Y012117D02*
X018558Y012117D01*
X018558Y011958D02*
X018558Y011958D01*
X018558Y011800D02*
X018558Y011800D01*
X018316Y011800D02*
X017085Y011800D01*
X016926Y011958D02*
X018158Y011958D01*
X018118Y012117D02*
X016768Y012117D01*
X016609Y012275D02*
X018118Y012275D01*
X018190Y012434D02*
X016451Y012434D01*
X015793Y011800D02*
X014828Y011800D01*
X014987Y011958D02*
X015634Y011958D01*
X015476Y012117D02*
X015018Y012117D01*
X015018Y012275D02*
X015317Y012275D01*
X015159Y012434D02*
X014955Y012434D01*
X015000Y012592D02*
X014797Y012592D01*
X014842Y012751D02*
X014518Y012751D01*
X014518Y012909D02*
X014683Y012909D01*
X014525Y013068D02*
X014518Y013068D01*
X014161Y012434D02*
X013927Y012434D01*
X013998Y012275D02*
X014098Y012275D01*
X013998Y012180D02*
X013558Y012180D01*
X013558Y012180D01*
X013998Y012180D01*
X013998Y012117D02*
X014098Y012117D01*
X014130Y011958D02*
X013959Y011958D01*
X013800Y011800D02*
X014288Y011800D01*
X013999Y011640D02*
X013618Y011640D01*
X013348Y011371D01*
X013348Y010989D01*
X013618Y010720D01*
X013999Y010720D01*
X014268Y010989D01*
X014268Y011371D01*
X013999Y011640D01*
X014156Y011483D02*
X016110Y011483D01*
X016174Y011324D02*
X014268Y011324D01*
X014268Y011166D02*
X016016Y011166D01*
X015857Y011007D02*
X014268Y011007D01*
X014127Y010849D02*
X015725Y010849D01*
X015725Y010690D02*
X012055Y010690D01*
X012055Y010716D02*
X011979Y010898D01*
X011881Y010997D01*
X011903Y010997D01*
X012391Y011485D01*
X012391Y012175D01*
X011903Y012663D01*
X011213Y012663D01*
X010725Y012175D01*
X010725Y011485D01*
X011213Y010997D01*
X011236Y010997D01*
X011137Y010898D01*
X011061Y010716D01*
X011061Y010518D01*
X011137Y010336D01*
X011277Y010196D01*
X011459Y010120D01*
X011657Y010120D01*
X011840Y010196D01*
X011979Y010336D01*
X012055Y010518D01*
X012055Y010716D01*
X012000Y010849D02*
X013489Y010849D01*
X013348Y011007D02*
X011913Y011007D01*
X012072Y011166D02*
X013348Y011166D01*
X013348Y011324D02*
X012230Y011324D01*
X012389Y011483D02*
X013460Y011483D01*
X013558Y011800D02*
X013558Y011800D01*
X013558Y011958D02*
X013558Y011958D01*
X013558Y012117D02*
X013558Y012117D01*
X013558Y012275D02*
X013558Y012275D01*
X013558Y012434D02*
X013558Y012434D01*
X013558Y012592D02*
X013558Y012592D01*
X013598Y012751D02*
X010088Y012751D01*
X010088Y012909D02*
X011179Y012909D01*
X011221Y012867D02*
X011478Y012867D01*
X011478Y013600D01*
X010745Y013600D01*
X010745Y013343D01*
X011221Y012867D01*
X011478Y012909D02*
X011638Y012909D01*
X011638Y012867D02*
X011895Y012867D01*
X012371Y013343D01*
X012371Y013600D01*
X011638Y013600D01*
X011638Y012867D01*
X011638Y013068D02*
X011478Y013068D01*
X011478Y013226D02*
X011638Y013226D01*
X011638Y013385D02*
X011478Y013385D01*
X011478Y013543D02*
X011638Y013543D01*
X011638Y013600D02*
X011478Y013600D01*
X011478Y013760D01*
X010745Y013760D01*
X010745Y014017D01*
X011221Y014493D01*
X011478Y014493D01*
X011478Y013760D01*
X011638Y013760D01*
X011638Y014493D01*
X011895Y014493D01*
X012371Y014017D01*
X012371Y013760D01*
X011638Y013760D01*
X011638Y013600D01*
X011638Y013702D02*
X013098Y013702D01*
X013098Y013860D02*
X012371Y013860D01*
X012370Y014019D02*
X013246Y014019D01*
X013098Y013543D02*
X012371Y013543D01*
X012371Y013385D02*
X013203Y013385D01*
X013362Y013226D02*
X012254Y013226D01*
X012096Y013068D02*
X013598Y013068D01*
X013598Y012909D02*
X011937Y012909D01*
X011974Y012592D02*
X013348Y012592D01*
X013190Y012434D02*
X012133Y012434D01*
X012291Y012275D02*
X013118Y012275D01*
X013118Y012117D02*
X012391Y012117D01*
X012391Y011958D02*
X013158Y011958D01*
X013316Y011800D02*
X012391Y011800D01*
X012391Y011641D02*
X015951Y011641D01*
X016558Y011430D02*
X016558Y010530D01*
X015725Y010532D02*
X012055Y010532D01*
X011995Y010373D02*
X015725Y010373D01*
X015725Y010215D02*
X011858Y010215D01*
X011258Y010215D02*
X008338Y010215D01*
X008338Y010373D02*
X011122Y010373D01*
X011061Y010532D02*
X008338Y010532D01*
X008338Y010690D02*
X011061Y010690D01*
X011116Y010849D02*
X008877Y010849D01*
X009018Y011007D02*
X011203Y011007D01*
X011045Y011166D02*
X009018Y011166D01*
X009018Y011324D02*
X010886Y011324D01*
X010728Y011483D02*
X008906Y011483D01*
X008800Y011800D02*
X009288Y011800D01*
X009130Y011958D02*
X008959Y011958D01*
X008998Y012117D02*
X009098Y012117D01*
X009098Y012275D02*
X008998Y012275D01*
X008927Y012434D02*
X009161Y012434D01*
X009828Y011800D02*
X010725Y011800D01*
X010725Y011958D02*
X009987Y011958D01*
X010018Y012117D02*
X010725Y012117D01*
X010825Y012275D02*
X010047Y012275D01*
X010088Y012434D02*
X010984Y012434D01*
X011142Y012592D02*
X010088Y012592D01*
X010088Y013068D02*
X011021Y013068D01*
X010862Y013226D02*
X010088Y013226D01*
X010088Y013385D02*
X010745Y013385D01*
X010745Y013543D02*
X010088Y013543D01*
X010088Y013702D02*
X011478Y013702D01*
X011478Y013860D02*
X011638Y013860D01*
X011638Y014019D02*
X011478Y014019D01*
X011478Y014177D02*
X011638Y014177D01*
X011638Y014336D02*
X011478Y014336D01*
X011064Y014336D02*
X010088Y014336D01*
X010088Y014494D02*
X013778Y014494D01*
X013778Y014336D02*
X012053Y014336D01*
X012211Y014177D02*
X013778Y014177D01*
X014058Y013930D02*
X014058Y018680D01*
X012308Y020430D01*
X012308Y022430D01*
X011558Y023180D01*
X010308Y023180D01*
X010698Y022736D02*
X011606Y022736D01*
X011448Y022895D02*
X010933Y022895D01*
X010811Y022578D02*
X011765Y022578D01*
X012240Y022895D02*
X012278Y022895D01*
X012278Y023053D02*
X012081Y023053D01*
X011923Y023212D02*
X012278Y023212D01*
X012222Y023370D02*
X011764Y023370D01*
X012064Y023529D02*
X010870Y023529D01*
X010919Y024480D02*
X012697Y024480D01*
X013308Y025180D02*
X019808Y025180D01*
X019808Y024180D02*
X019558Y023930D01*
X015058Y023930D01*
X014756Y024163D02*
X014222Y024163D01*
X014063Y024321D02*
X015292Y024321D01*
X015133Y024480D02*
X013919Y024480D01*
X013664Y024638D02*
X015123Y024638D01*
X015123Y024797D02*
X013835Y024797D01*
X013783Y025589D02*
X015003Y025589D01*
X014994Y025748D02*
X013726Y025748D01*
X013945Y025906D02*
X015020Y025906D01*
X015091Y026065D02*
X014018Y026065D01*
X014028Y026223D02*
X015255Y026223D01*
X015893Y026223D02*
X016240Y026223D01*
X016278Y026382D02*
X013983Y026382D01*
X013859Y026540D02*
X016278Y026540D01*
X016278Y026699D02*
X009579Y026699D01*
X009421Y026540D02*
X009758Y026540D01*
X009432Y026382D02*
X009262Y026382D01*
X009274Y026223D02*
X009228Y026223D01*
X009703Y025748D02*
X009890Y025748D01*
X009834Y025589D02*
X009678Y025589D01*
X010183Y025180D02*
X009308Y024180D01*
X009308Y017180D01*
X008808Y016680D01*
X008308Y016680D01*
X007808Y016180D01*
X007808Y011780D01*
X006558Y010530D01*
X006016Y011166D02*
X004806Y011166D01*
X005008Y011324D02*
X006174Y011324D01*
X005857Y011007D02*
X004088Y011007D01*
X004088Y010849D02*
X005725Y010849D01*
X005725Y010690D02*
X004088Y010690D01*
X004088Y010532D02*
X005725Y010532D01*
X005725Y010373D02*
X004088Y010373D01*
X004088Y010215D02*
X005725Y010215D01*
X005854Y010056D02*
X004088Y010056D01*
X004088Y009898D02*
X006013Y009898D01*
X006171Y009739D02*
X004698Y009739D01*
X004418Y009739D02*
X004088Y009739D01*
X004088Y009581D02*
X004153Y009581D01*
X004144Y008788D02*
X004088Y008788D01*
X004088Y008630D02*
X004398Y008630D01*
X004719Y008630D02*
X006478Y008630D01*
X006478Y008600D02*
X005745Y008600D01*
X005745Y008343D01*
X006221Y007867D01*
X006478Y007867D01*
X006478Y008600D01*
X006478Y008760D01*
X005745Y008760D01*
X005745Y009017D01*
X006221Y009493D01*
X006478Y009493D01*
X006478Y008760D01*
X006638Y008760D01*
X006638Y009493D01*
X006895Y009493D01*
X007371Y009017D01*
X007371Y008760D01*
X006638Y008760D01*
X006638Y008600D01*
X006638Y007867D01*
X006895Y007867D01*
X007371Y008343D01*
X007371Y008600D01*
X006638Y008600D01*
X006478Y008600D01*
X006478Y008471D02*
X006638Y008471D01*
X006638Y008313D02*
X006478Y008313D01*
X006478Y008154D02*
X006638Y008154D01*
X006638Y007996D02*
X006478Y007996D01*
X006093Y007996D02*
X004088Y007996D01*
X004088Y008154D02*
X005934Y008154D01*
X005776Y008313D02*
X004088Y008313D01*
X004088Y008471D02*
X005745Y008471D01*
X005745Y008788D02*
X004972Y008788D01*
X005078Y008947D02*
X005745Y008947D01*
X005833Y009105D02*
X005128Y009105D01*
X005128Y009264D02*
X005992Y009264D01*
X006150Y009422D02*
X005075Y009422D01*
X004964Y009581D02*
X007778Y009581D01*
X007778Y009739D02*
X006945Y009739D01*
X007104Y009898D02*
X007778Y009898D01*
X007778Y010056D02*
X007262Y010056D01*
X007391Y010215D02*
X007778Y010215D01*
X007778Y010373D02*
X007391Y010373D01*
X007391Y010532D02*
X007778Y010532D01*
X007778Y010690D02*
X007391Y010690D01*
X007391Y010849D02*
X007778Y010849D01*
X007778Y011007D02*
X007431Y011007D01*
X007590Y011166D02*
X007778Y011166D01*
X007778Y011324D02*
X007748Y011324D01*
X007273Y011641D02*
X005128Y011641D01*
X005126Y011800D02*
X007432Y011800D01*
X007528Y011958D02*
X005060Y011958D01*
X004928Y012117D02*
X007528Y012117D01*
X007528Y012275D02*
X004088Y012275D01*
X004088Y012117D02*
X004189Y012117D01*
X004088Y012434D02*
X007528Y012434D01*
X007528Y012592D02*
X004088Y012592D01*
X004088Y012751D02*
X007528Y012751D01*
X007528Y012909D02*
X004088Y012909D01*
X004088Y013068D02*
X007528Y013068D01*
X007528Y013226D02*
X007410Y013226D01*
X006706Y013226D02*
X006627Y013226D01*
X006058Y013680D02*
X006308Y013930D01*
X006308Y017180D01*
X006106Y017506D02*
X005855Y017506D01*
X005730Y017664D02*
X006402Y017664D01*
X006143Y017823D02*
X005990Y017823D01*
X005558Y017506D02*
X005558Y017506D01*
X005558Y017347D02*
X005558Y017347D01*
X005558Y017189D02*
X005558Y017189D01*
X005558Y017030D02*
X005558Y017030D01*
X005558Y016872D02*
X005558Y016872D01*
X005244Y016872D02*
X001818Y016872D01*
X001818Y017030D02*
X005118Y017030D01*
X005118Y017189D02*
X001818Y017189D01*
X001818Y017347D02*
X005118Y017347D01*
X005262Y017506D02*
X001818Y017506D01*
X001818Y017664D02*
X005418Y017664D01*
X005158Y017823D02*
X001818Y017823D01*
X001818Y017981D02*
X005048Y017981D01*
X004994Y018140D02*
X001818Y018140D01*
X001818Y018298D02*
X004298Y018298D01*
X004259Y018317D02*
X004339Y018277D01*
X004425Y018249D01*
X004513Y018235D01*
X004540Y018235D01*
X004540Y018787D01*
X003988Y018787D01*
X003988Y018760D01*
X004002Y018672D01*
X004030Y018586D01*
X004071Y018506D01*
X004123Y018434D01*
X004187Y018370D01*
X004259Y018317D01*
X004107Y018457D02*
X001818Y018457D01*
X001818Y018615D02*
X004021Y018615D01*
X003988Y018774D02*
X003552Y018774D01*
X003499Y018720D02*
X003768Y018989D01*
X003768Y019371D01*
X003499Y019640D01*
X003118Y019640D01*
X002848Y019371D01*
X002848Y018989D01*
X003118Y018720D01*
X003499Y018720D01*
X003711Y018932D02*
X004001Y018932D01*
X004002Y018938D02*
X003988Y018850D01*
X003988Y018823D01*
X004540Y018823D01*
X004540Y018787D01*
X004577Y018787D01*
X004577Y018823D01*
X005128Y018823D01*
X005128Y018850D01*
X005114Y018938D01*
X005086Y019024D01*
X005046Y019104D01*
X004993Y019176D01*
X004930Y019240D01*
X004857Y019293D01*
X004777Y019333D01*
X004692Y019361D01*
X004603Y019375D01*
X004577Y019375D01*
X004577Y018823D01*
X004540Y018823D01*
X004540Y019375D01*
X004513Y019375D01*
X004425Y019361D01*
X004339Y019333D01*
X004259Y019293D01*
X004187Y019240D01*
X004123Y019176D01*
X004071Y019104D01*
X004030Y019024D01*
X004002Y018938D01*
X004064Y019091D02*
X003768Y019091D01*
X003768Y019249D02*
X004200Y019249D01*
X004540Y019249D02*
X004577Y019249D01*
X004577Y019091D02*
X004540Y019091D01*
X004540Y018932D02*
X004577Y018932D01*
X004577Y018787D02*
X005128Y018787D01*
X005128Y018760D01*
X005114Y018672D01*
X005086Y018586D01*
X005046Y018506D01*
X004993Y018434D01*
X004930Y018370D01*
X004857Y018317D01*
X004777Y018277D01*
X004692Y018249D01*
X004603Y018235D01*
X004577Y018235D01*
X004577Y018787D01*
X004577Y018774D02*
X004540Y018774D01*
X004540Y018615D02*
X004577Y018615D01*
X004577Y018457D02*
X004540Y018457D01*
X004540Y018298D02*
X004577Y018298D01*
X004819Y018298D02*
X004994Y018298D01*
X005010Y018457D02*
X005041Y018457D01*
X005096Y018615D02*
X005142Y018615D01*
X005128Y018774D02*
X005377Y018774D01*
X005115Y018932D02*
X006278Y018932D01*
X006278Y018774D02*
X005771Y018774D01*
X006006Y018615D02*
X006126Y018615D01*
X006278Y019091D02*
X005052Y019091D01*
X004917Y019249D02*
X006278Y019249D01*
X006278Y019408D02*
X003731Y019408D01*
X003573Y019566D02*
X006278Y019566D01*
X006278Y019725D02*
X003503Y019725D01*
X003499Y019720D02*
X003768Y019989D01*
X003768Y020371D01*
X003499Y020640D01*
X003169Y020640D01*
X003268Y020739D01*
X003268Y021121D01*
X002999Y021390D01*
X002618Y021390D01*
X002348Y021121D01*
X002348Y020739D01*
X002468Y020620D01*
X002308Y020620D01*
X002126Y020620D01*
X001868Y020362D01*
X001868Y020180D01*
X001868Y019998D01*
X002126Y019740D01*
X002308Y019740D01*
X002308Y020180D01*
X001868Y020180D01*
X002308Y020180D01*
X002308Y020180D01*
X002308Y020180D01*
X002308Y020620D01*
X002308Y020180D01*
X002308Y020180D01*
X002308Y019740D01*
X002490Y019740D01*
X002748Y019998D01*
X002748Y020180D01*
X002308Y020180D01*
X002748Y020180D01*
X002748Y020362D01*
X002640Y020470D01*
X002948Y020470D01*
X002848Y020371D01*
X002848Y019989D01*
X003118Y019720D01*
X003499Y019720D01*
X003662Y019883D02*
X006278Y019883D01*
X006278Y020042D02*
X003768Y020042D01*
X003768Y020200D02*
X006278Y020200D01*
X006278Y020359D02*
X003768Y020359D01*
X003622Y020517D02*
X004360Y020517D01*
X004467Y020409D02*
X004016Y020861D01*
X004016Y021100D01*
X004707Y021100D01*
X004867Y021100D01*
X004867Y021260D01*
X005557Y021260D01*
X005557Y021499D01*
X005106Y021951D01*
X004867Y021951D01*
X004867Y021260D01*
X004707Y021260D01*
X004707Y021951D01*
X004467Y021951D01*
X004016Y021499D01*
X004016Y021260D01*
X004707Y021260D01*
X004707Y021100D01*
X004707Y020409D01*
X004467Y020409D01*
X004707Y020517D02*
X004867Y020517D01*
X004867Y020409D02*
X005106Y020409D01*
X005557Y020861D01*
X005557Y021100D01*
X004867Y021100D01*
X004867Y020409D01*
X004867Y020676D02*
X004707Y020676D01*
X004707Y020834D02*
X004867Y020834D01*
X004867Y020993D02*
X004707Y020993D01*
X004707Y021151D02*
X003238Y021151D01*
X003268Y020993D02*
X004016Y020993D01*
X004043Y020834D02*
X003268Y020834D01*
X003204Y020676D02*
X004201Y020676D01*
X004867Y021151D02*
X006278Y021151D01*
X006278Y020993D02*
X005557Y020993D01*
X005530Y020834D02*
X006278Y020834D01*
X006278Y020676D02*
X005372Y020676D01*
X005213Y020517D02*
X006278Y020517D01*
X006838Y020676D02*
X007745Y020676D01*
X007586Y020834D02*
X006838Y020834D01*
X006278Y021310D02*
X005557Y021310D01*
X005557Y021468D02*
X006278Y021468D01*
X006278Y021627D02*
X005430Y021627D01*
X005271Y021785D02*
X006278Y021785D01*
X006278Y021944D02*
X005113Y021944D01*
X004867Y021944D02*
X004707Y021944D01*
X004707Y021785D02*
X004867Y021785D01*
X004867Y021627D02*
X004707Y021627D01*
X004707Y021468D02*
X004867Y021468D01*
X004867Y021310D02*
X004707Y021310D01*
X004302Y021785D02*
X001818Y021785D01*
X001818Y021627D02*
X004143Y021627D01*
X004016Y021468D02*
X001818Y021468D01*
X001818Y021310D02*
X002537Y021310D01*
X002379Y021151D02*
X001818Y021151D01*
X001818Y020993D02*
X002348Y020993D01*
X002348Y020834D02*
X001818Y020834D01*
X001818Y020676D02*
X002412Y020676D01*
X002308Y020517D02*
X002308Y020517D01*
X002308Y020359D02*
X002308Y020359D01*
X002308Y020200D02*
X002308Y020200D01*
X002308Y020180D02*
X002308Y020180D01*
X002308Y020042D02*
X002308Y020042D01*
X002308Y019883D02*
X002308Y019883D01*
X002118Y019640D02*
X001848Y019371D01*
X001848Y018989D01*
X002118Y018720D01*
X002499Y018720D01*
X002768Y018989D01*
X002768Y019371D01*
X002499Y019640D01*
X002118Y019640D01*
X002044Y019566D02*
X001818Y019566D01*
X001818Y019408D02*
X001885Y019408D01*
X001848Y019249D02*
X001818Y019249D01*
X001818Y019091D02*
X001848Y019091D01*
X001818Y018932D02*
X001906Y018932D01*
X001818Y018774D02*
X002064Y018774D01*
X002552Y018774D02*
X003064Y018774D01*
X002906Y018932D02*
X002711Y018932D01*
X002768Y019091D02*
X002848Y019091D01*
X002848Y019249D02*
X002768Y019249D01*
X002731Y019408D02*
X002885Y019408D01*
X003044Y019566D02*
X002573Y019566D01*
X002634Y019883D02*
X002955Y019883D01*
X002848Y020042D02*
X002748Y020042D01*
X002748Y020200D02*
X002848Y020200D01*
X002848Y020359D02*
X002748Y020359D01*
X003113Y019725D02*
X001818Y019725D01*
X001818Y019883D02*
X001983Y019883D01*
X001868Y020042D02*
X001818Y020042D01*
X001818Y020200D02*
X001868Y020200D01*
X001868Y020359D02*
X001818Y020359D01*
X001818Y020517D02*
X002023Y020517D01*
X003079Y021310D02*
X004016Y021310D01*
X004460Y021944D02*
X001818Y021944D01*
X001818Y022102D02*
X006278Y022102D01*
X006278Y022261D02*
X001818Y022261D01*
X001818Y022419D02*
X006278Y022419D01*
X006278Y022578D02*
X001818Y022578D01*
X001818Y022736D02*
X006278Y022736D01*
X006278Y022895D02*
X001818Y022895D01*
X001818Y023053D02*
X006278Y023053D01*
X006131Y023212D02*
X001818Y023212D01*
X001818Y023370D02*
X004158Y023370D01*
X004194Y023355D02*
X004423Y023355D01*
X004634Y023443D01*
X004796Y023604D01*
X004883Y023816D01*
X004883Y024044D01*
X004796Y024256D01*
X004634Y024417D01*
X004423Y024505D01*
X004194Y024505D01*
X003983Y024417D01*
X003821Y024256D01*
X003733Y024044D01*
X003733Y023816D01*
X003821Y023604D01*
X003983Y023443D01*
X004194Y023355D01*
X004459Y023370D02*
X005972Y023370D01*
X005814Y023529D02*
X004720Y023529D01*
X004830Y023687D02*
X005655Y023687D01*
X005497Y023846D02*
X004883Y023846D01*
X004883Y024004D02*
X005338Y024004D01*
X005180Y024163D02*
X004834Y024163D01*
X004730Y024321D02*
X005021Y024321D01*
X004863Y024480D02*
X004484Y024480D01*
X004704Y024638D02*
X001818Y024638D01*
X001818Y024480D02*
X002073Y024480D01*
X001914Y024321D02*
X001818Y024321D01*
X002308Y024321D02*
X002308Y024321D01*
X002308Y024163D02*
X002308Y024163D01*
X002308Y024004D02*
X002308Y024004D01*
X002308Y023930D02*
X002308Y023930D01*
X002308Y023930D01*
X002308Y024485D01*
X002538Y024485D01*
X002863Y024160D01*
X002863Y023930D01*
X002308Y023930D01*
X002308Y023375D01*
X002538Y023375D01*
X002863Y023700D01*
X002863Y023930D01*
X002308Y023930D01*
X002308Y023930D01*
X002308Y023846D02*
X002308Y023846D01*
X002308Y023687D02*
X002308Y023687D01*
X002308Y023529D02*
X002308Y023529D01*
X001925Y023529D02*
X001818Y023529D01*
X002692Y023529D02*
X003897Y023529D01*
X003787Y023687D02*
X002850Y023687D01*
X002863Y023846D02*
X003733Y023846D01*
X003733Y024004D02*
X002863Y024004D01*
X002861Y024163D02*
X003782Y024163D01*
X003886Y024321D02*
X002702Y024321D01*
X002544Y024480D02*
X004132Y024480D01*
X004560Y024797D02*
X001818Y024797D01*
X001818Y024955D02*
X004528Y024955D01*
X004528Y025114D02*
X001818Y025114D01*
X001818Y025272D02*
X004528Y025272D01*
X004528Y025431D02*
X001818Y025431D01*
X001818Y025589D02*
X004528Y025589D01*
X004528Y025748D02*
X001818Y025748D01*
X001818Y025906D02*
X004528Y025906D01*
X004528Y026065D02*
X001818Y026065D01*
X001818Y026223D02*
X004528Y026223D01*
X004528Y026382D02*
X001818Y026382D01*
X001818Y026540D02*
X004528Y026540D01*
X004528Y026699D02*
X001818Y026699D01*
X001818Y026857D02*
X004589Y026857D01*
X004748Y027016D02*
X001818Y027016D01*
X001818Y027174D02*
X004906Y027174D01*
X005065Y027333D02*
X001818Y027333D01*
X001818Y027491D02*
X006723Y027491D01*
X006778Y027650D02*
X001818Y027650D01*
X001818Y027808D02*
X006778Y027808D01*
X006778Y027967D02*
X005163Y027967D01*
X005106Y027909D02*
X005557Y028361D01*
X005557Y028600D01*
X004867Y028600D01*
X004867Y028760D01*
X005557Y028760D01*
X005557Y028999D01*
X005106Y029451D01*
X004867Y029451D01*
X004867Y028760D01*
X004707Y028760D01*
X004707Y029451D01*
X004467Y029451D01*
X004016Y028999D01*
X004016Y028760D01*
X004707Y028760D01*
X004707Y028600D01*
X004867Y028600D01*
X004867Y027909D01*
X005106Y027909D01*
X004867Y027967D02*
X004707Y027967D01*
X004707Y027909D02*
X004707Y028600D01*
X004016Y028600D01*
X004016Y028361D01*
X004467Y027909D01*
X004707Y027909D01*
X004707Y028125D02*
X004867Y028125D01*
X004867Y028284D02*
X004707Y028284D01*
X004707Y028442D02*
X004867Y028442D01*
X004867Y028601D02*
X006778Y028601D01*
X006778Y028759D02*
X004867Y028759D01*
X004867Y028918D02*
X004707Y028918D01*
X004707Y029076D02*
X004867Y029076D01*
X004867Y029235D02*
X004707Y029235D01*
X004707Y029393D02*
X004867Y029393D01*
X005163Y029393D02*
X006778Y029393D01*
X006778Y029235D02*
X005322Y029235D01*
X005480Y029076D02*
X006778Y029076D01*
X006778Y028918D02*
X005557Y028918D01*
X005557Y028442D02*
X006778Y028442D01*
X006778Y028284D02*
X005480Y028284D01*
X005321Y028125D02*
X006778Y028125D01*
X007338Y027808D02*
X009812Y027808D01*
X009523Y027491D02*
X007338Y027491D01*
X007338Y027650D02*
X016278Y027650D01*
X016278Y027808D02*
X013847Y027808D01*
X013908Y027491D02*
X016278Y027491D01*
X016278Y027333D02*
X014003Y027333D01*
X014028Y027174D02*
X016278Y027174D01*
X016278Y027016D02*
X013998Y027016D01*
X013896Y026857D02*
X016278Y026857D01*
X016075Y026065D02*
X016057Y026065D01*
X016558Y025727D02*
X016558Y031180D01*
X015558Y032180D01*
X014558Y032180D01*
X013558Y033180D01*
X013308Y033180D01*
X013885Y033514D02*
X015065Y033514D01*
X014999Y033356D02*
X013993Y033356D01*
X014028Y033197D02*
X014994Y033197D01*
X015024Y033039D02*
X014096Y033039D01*
X014254Y032880D02*
X015101Y032880D01*
X015279Y032722D02*
X014413Y032722D01*
X014571Y032563D02*
X020983Y032563D01*
X020983Y032405D02*
X015730Y032405D01*
X015888Y032246D02*
X020983Y032246D01*
X020983Y032088D02*
X016047Y032088D01*
X016205Y031929D02*
X020983Y031929D01*
X020983Y031771D02*
X016364Y031771D01*
X016522Y031612D02*
X020983Y031612D01*
X020983Y031454D02*
X016681Y031454D01*
X016814Y031295D02*
X020983Y031295D01*
X020983Y031137D02*
X016838Y031137D01*
X016838Y030978D02*
X020983Y030978D01*
X020983Y030820D02*
X016838Y030820D01*
X016838Y030661D02*
X020983Y030661D01*
X020983Y030503D02*
X016838Y030503D01*
X016838Y030344D02*
X020983Y030344D01*
X020983Y030186D02*
X016838Y030186D01*
X016838Y030027D02*
X020983Y030027D01*
X020983Y029869D02*
X016838Y029869D01*
X016838Y029710D02*
X020983Y029710D01*
X020983Y029552D02*
X016838Y029552D01*
X016838Y029393D02*
X017953Y029393D01*
X018011Y029451D02*
X017559Y028999D01*
X017559Y028760D01*
X018250Y028760D01*
X018250Y029451D01*
X018011Y029451D01*
X018250Y029393D02*
X018410Y029393D01*
X018410Y029451D02*
X018410Y028760D01*
X019100Y028760D01*
X019100Y028999D01*
X018649Y029451D01*
X018410Y029451D01*
X018410Y029235D02*
X018250Y029235D01*
X018250Y029076D02*
X018410Y029076D01*
X018410Y028918D02*
X018250Y028918D01*
X018250Y028760D02*
X018410Y028760D01*
X018410Y028600D01*
X019100Y028600D01*
X019100Y028361D01*
X018649Y027909D01*
X018410Y027909D01*
X018410Y028600D01*
X018250Y028600D01*
X018250Y027909D01*
X018011Y027909D01*
X017559Y028361D01*
X017559Y028600D01*
X018250Y028600D01*
X018250Y028760D01*
X018250Y028759D02*
X016838Y028759D01*
X016838Y028601D02*
X018250Y028601D01*
X018250Y028442D02*
X018410Y028442D01*
X018410Y028284D02*
X018250Y028284D01*
X018250Y028125D02*
X018410Y028125D01*
X018410Y027967D02*
X018250Y027967D01*
X017954Y027967D02*
X016838Y027967D01*
X016838Y028125D02*
X017795Y028125D01*
X017637Y028284D02*
X016838Y028284D01*
X016838Y028442D02*
X017559Y028442D01*
X017559Y028918D02*
X016838Y028918D01*
X016838Y029076D02*
X017636Y029076D01*
X017795Y029235D02*
X016838Y029235D01*
X016278Y029235D02*
X015322Y029235D01*
X015163Y029393D02*
X016278Y029393D01*
X016278Y029076D02*
X015480Y029076D01*
X015557Y028918D02*
X016278Y028918D01*
X016278Y028759D02*
X014867Y028759D01*
X014867Y028601D02*
X016278Y028601D01*
X016278Y028442D02*
X015557Y028442D01*
X015480Y028284D02*
X016278Y028284D01*
X016278Y028125D02*
X015321Y028125D01*
X015163Y027967D02*
X016278Y027967D01*
X016838Y027808D02*
X019374Y027808D01*
X019325Y027857D02*
X019485Y027697D01*
X019526Y027680D01*
X019485Y027663D01*
X019325Y027503D01*
X019238Y027293D01*
X019238Y027067D01*
X019325Y026857D01*
X019259Y027016D02*
X016838Y027016D01*
X016838Y027174D02*
X019238Y027174D01*
X019254Y027333D02*
X016838Y027333D01*
X016838Y027491D02*
X019320Y027491D01*
X019472Y027650D02*
X016838Y027650D01*
X016877Y026223D02*
X017282Y026223D01*
X017095Y026065D02*
X017041Y026065D01*
X018706Y027967D02*
X019280Y027967D01*
X019238Y028067D02*
X019325Y027857D01*
X019238Y028067D02*
X019238Y028293D01*
X019325Y028503D01*
X019485Y028663D01*
X019695Y028750D01*
X019922Y028750D01*
X020131Y028663D01*
X020291Y028503D01*
X020378Y028293D01*
X020378Y028067D01*
X020291Y027857D01*
X020131Y027697D01*
X020091Y027680D01*
X020131Y027663D01*
X020291Y027503D01*
X020378Y027293D01*
X020378Y027067D01*
X020291Y026857D01*
X020357Y027016D02*
X020983Y027016D01*
X020983Y027174D02*
X020378Y027174D01*
X020362Y027333D02*
X020983Y027333D01*
X020983Y027491D02*
X020296Y027491D01*
X020145Y027650D02*
X020983Y027650D01*
X020983Y027808D02*
X020242Y027808D01*
X020337Y027967D02*
X020983Y027967D01*
X020983Y028125D02*
X020378Y028125D01*
X020378Y028284D02*
X020983Y028284D01*
X020983Y028442D02*
X020317Y028442D01*
X020194Y028601D02*
X020983Y028601D01*
X020983Y028759D02*
X018410Y028759D01*
X018410Y028601D02*
X019423Y028601D01*
X019300Y028442D02*
X019100Y028442D01*
X019023Y028284D02*
X019238Y028284D01*
X019238Y028125D02*
X018865Y028125D01*
X019100Y028918D02*
X020983Y028918D01*
X020983Y029076D02*
X019024Y029076D01*
X018865Y029235D02*
X020983Y029235D01*
X020983Y029393D02*
X018707Y029393D01*
X016278Y030820D02*
X014315Y030820D01*
X014156Y030978D02*
X016278Y030978D01*
X016206Y031137D02*
X014028Y031137D01*
X014018Y031295D02*
X016047Y031295D01*
X015889Y031454D02*
X013945Y031454D01*
X013727Y031612D02*
X015730Y031612D01*
X015572Y031771D02*
X013782Y031771D01*
X013681Y030661D02*
X011723Y030661D01*
X011565Y030820D02*
X012758Y030820D01*
X012634Y030978D02*
X010982Y030978D01*
X011028Y031137D02*
X012588Y031137D01*
X012598Y031295D02*
X011018Y031295D01*
X010945Y031454D02*
X012671Y031454D01*
X012720Y030503D02*
X011882Y030503D01*
X011808Y030180D02*
X011308Y030680D01*
X007808Y030680D01*
X007058Y029930D01*
X007058Y027430D01*
X006808Y027180D01*
X005308Y027180D01*
X004808Y026680D01*
X004808Y024930D01*
X006558Y023180D01*
X006558Y018227D01*
X006974Y017823D02*
X007155Y017823D01*
X007524Y017823D02*
X007561Y017823D01*
X007561Y017981D02*
X007524Y017981D01*
X007524Y018140D02*
X007561Y018140D01*
X007561Y018298D02*
X007524Y018298D01*
X007524Y018457D02*
X007561Y018457D01*
X007561Y018615D02*
X007524Y018615D01*
X007138Y018615D02*
X006991Y018615D01*
X006028Y016872D02*
X005872Y016872D01*
X006028Y016713D02*
X001818Y016713D01*
X001818Y016555D02*
X002061Y016555D01*
X002126Y016620D02*
X001868Y016362D01*
X001868Y016180D01*
X001868Y015998D01*
X002126Y015740D01*
X002308Y015740D01*
X002308Y016180D01*
X001868Y016180D01*
X002308Y016180D01*
X002308Y016180D01*
X002308Y016620D01*
X002126Y016620D01*
X002308Y016620D02*
X002308Y016180D01*
X002308Y016180D01*
X002308Y016180D01*
X002308Y015740D01*
X002490Y015740D01*
X002748Y015998D01*
X002748Y016180D01*
X002308Y016180D01*
X002748Y016180D01*
X002748Y016362D01*
X002490Y016620D01*
X002308Y016620D01*
X002308Y016555D02*
X002308Y016555D01*
X002308Y016396D02*
X002308Y016396D01*
X002308Y016238D02*
X002308Y016238D01*
X002308Y016180D02*
X002308Y016180D01*
X002308Y016079D02*
X002308Y016079D01*
X002308Y015921D02*
X002308Y015921D01*
X002308Y015762D02*
X002308Y015762D01*
X002104Y015762D02*
X001818Y015762D01*
X001818Y015604D02*
X003528Y015604D01*
X003528Y015445D02*
X001818Y015445D01*
X001818Y015287D02*
X003528Y015287D01*
X003528Y015128D02*
X001818Y015128D01*
X001818Y014970D02*
X003528Y014970D01*
X003528Y014811D02*
X001818Y014811D01*
X002417Y014653D02*
X002800Y014653D01*
X003417Y014653D02*
X003528Y014653D01*
X004088Y015287D02*
X004205Y015287D01*
X004088Y015445D02*
X005173Y015445D01*
X005198Y015604D02*
X004088Y015604D01*
X004088Y015762D02*
X005198Y015762D01*
X005167Y015921D02*
X004063Y015921D01*
X003930Y016079D02*
X005098Y016079D01*
X005098Y016238D02*
X003772Y016238D01*
X003743Y016396D02*
X005124Y016396D01*
X005282Y016555D02*
X003584Y016555D01*
X003433Y016180D02*
X003808Y015805D01*
X003808Y005867D01*
X004058Y005617D01*
X003561Y005618D02*
X001818Y005618D01*
X001818Y005460D02*
X003586Y005460D01*
X003672Y005301D02*
X001818Y005301D01*
X001818Y005143D02*
X003905Y005143D01*
X004211Y005143D02*
X008905Y005143D01*
X008959Y005120D02*
X009157Y005120D01*
X009340Y005196D01*
X009479Y005336D01*
X009555Y005518D01*
X009555Y005716D01*
X009479Y005898D01*
X009340Y006038D01*
X009157Y006114D01*
X008959Y006114D01*
X008777Y006038D01*
X008637Y005898D01*
X008561Y005716D01*
X008561Y005518D01*
X008637Y005336D01*
X008777Y005196D01*
X008959Y005120D01*
X009211Y005143D02*
X013905Y005143D01*
X013959Y005120D02*
X013777Y005196D01*
X013637Y005336D01*
X013561Y005518D01*
X013561Y005716D01*
X013637Y005898D01*
X013777Y006038D01*
X013959Y006114D01*
X014157Y006114D01*
X014340Y006038D01*
X014479Y005898D01*
X014555Y005716D01*
X014555Y005518D01*
X014479Y005336D01*
X014340Y005196D01*
X014157Y005120D01*
X013959Y005120D01*
X014211Y005143D02*
X018905Y005143D01*
X018959Y005120D02*
X019157Y005120D01*
X019340Y005196D01*
X019479Y005336D01*
X019555Y005518D01*
X019555Y005716D01*
X019479Y005898D01*
X019340Y006038D01*
X019157Y006114D01*
X018959Y006114D01*
X018777Y006038D01*
X018637Y005898D01*
X018561Y005716D01*
X018561Y005518D01*
X018637Y005336D01*
X018777Y005196D01*
X018959Y005120D01*
X019211Y005143D02*
X020983Y005143D01*
X020983Y005301D02*
X019445Y005301D01*
X019531Y005460D02*
X020983Y005460D01*
X020983Y005618D02*
X019555Y005618D01*
X019530Y005777D02*
X020983Y005777D01*
X020983Y005935D02*
X019443Y005935D01*
X019206Y006094D02*
X020432Y006094D01*
X020684Y006094D02*
X020983Y006094D01*
X020983Y006252D02*
X020965Y006252D01*
X020152Y006252D02*
X018781Y006252D01*
X018749Y006220D02*
X019018Y006489D01*
X019018Y006871D01*
X018749Y007140D01*
X018368Y007140D01*
X018098Y006871D01*
X018098Y006489D01*
X018368Y006220D01*
X018749Y006220D01*
X018910Y006094D02*
X017000Y006094D01*
X016954Y005935D02*
X018674Y005935D01*
X018587Y005777D02*
X017018Y005777D01*
X017018Y005618D02*
X018561Y005618D01*
X018586Y005460D02*
X016988Y005460D01*
X016830Y005301D02*
X018672Y005301D01*
X018909Y004431D02*
X018633Y004317D01*
X018421Y004106D01*
X018307Y003829D01*
X018307Y003531D01*
X018421Y003254D01*
X018633Y003043D01*
X018909Y002929D01*
X019208Y002929D01*
X019484Y003043D01*
X019695Y003254D01*
X019809Y003531D01*
X019809Y003829D01*
X019695Y004106D01*
X019484Y004317D01*
X019208Y004431D01*
X018909Y004431D01*
X018713Y004350D02*
X014404Y004350D01*
X014484Y004317D02*
X014208Y004431D01*
X013909Y004431D01*
X013633Y004317D01*
X013421Y004106D01*
X013307Y003829D01*
X013307Y003531D01*
X013421Y003254D01*
X013633Y003043D01*
X013909Y002929D01*
X014208Y002929D01*
X014484Y003043D01*
X014695Y003254D01*
X014809Y003531D01*
X014809Y003829D01*
X014695Y004106D01*
X014484Y004317D01*
X014609Y004192D02*
X018507Y004192D01*
X018391Y004033D02*
X014725Y004033D01*
X014791Y003875D02*
X018326Y003875D01*
X018307Y003716D02*
X014809Y003716D01*
X014809Y003558D02*
X018307Y003558D01*
X018362Y003399D02*
X014755Y003399D01*
X014681Y003241D02*
X018435Y003241D01*
X018594Y003082D02*
X016778Y003082D01*
X016558Y003082D02*
X016558Y003082D01*
X016558Y002924D02*
X016558Y002924D01*
X016558Y002765D02*
X016558Y002765D01*
X016558Y002680D02*
X016558Y002680D01*
X016558Y002607D02*
X016558Y002607D01*
X016558Y002448D02*
X016558Y002448D01*
X016558Y002290D02*
X016558Y002290D01*
X016326Y002290D02*
X014555Y002290D01*
X014555Y002448D02*
X014479Y002631D01*
X014345Y002765D02*
X016118Y002765D01*
X016179Y002924D02*
X011937Y002924D01*
X011998Y002765D02*
X013771Y002765D01*
X013594Y003082D02*
X011778Y003082D01*
X011558Y003082D02*
X011558Y003082D01*
X011558Y002924D02*
X011558Y002924D01*
X011558Y002765D02*
X011558Y002765D01*
X011558Y002680D02*
X011558Y002680D01*
X011558Y002607D02*
X011558Y002607D01*
X011558Y002448D02*
X011558Y002448D01*
X011558Y002290D02*
X011558Y002290D01*
X011326Y002290D02*
X009555Y002290D01*
X009555Y002448D02*
X009479Y002631D01*
X009345Y002765D02*
X011118Y002765D01*
X011179Y002924D02*
X001818Y002924D01*
X001818Y003082D02*
X003594Y003082D01*
X003633Y003043D02*
X003909Y002929D01*
X004208Y002929D01*
X004484Y003043D01*
X004695Y003254D01*
X004809Y003531D01*
X004809Y003829D01*
X004695Y004106D01*
X004484Y004317D01*
X004208Y004431D01*
X003909Y004431D01*
X003633Y004317D01*
X003421Y004106D01*
X003307Y003829D01*
X003307Y003531D01*
X003421Y003254D01*
X003633Y003043D01*
X003435Y003241D02*
X001818Y003241D01*
X001818Y003399D02*
X003362Y003399D01*
X003307Y003558D02*
X001818Y003558D01*
X001818Y003716D02*
X003307Y003716D01*
X003326Y003875D02*
X001818Y003875D01*
X001818Y004033D02*
X003391Y004033D01*
X003507Y004192D02*
X001818Y004192D01*
X001818Y004350D02*
X003713Y004350D01*
X004404Y004350D02*
X008713Y004350D01*
X008633Y004317D02*
X008909Y004431D01*
X009208Y004431D01*
X009484Y004317D01*
X009695Y004106D01*
X009809Y003829D01*
X009809Y003531D01*
X009695Y003254D01*
X009484Y003043D01*
X009208Y002929D01*
X008909Y002929D01*
X008633Y003043D01*
X008421Y003254D01*
X008307Y003531D01*
X008307Y003829D01*
X008421Y004106D01*
X008633Y004317D01*
X008507Y004192D02*
X004609Y004192D01*
X004725Y004033D02*
X008391Y004033D01*
X008326Y003875D02*
X004791Y003875D01*
X004809Y003716D02*
X008307Y003716D01*
X008307Y003558D02*
X004809Y003558D01*
X004755Y003399D02*
X008362Y003399D01*
X008435Y003241D02*
X004681Y003241D01*
X004523Y003082D02*
X008594Y003082D01*
X008771Y002765D02*
X004345Y002765D01*
X004489Y002607D02*
X008627Y002607D01*
X008561Y002448D02*
X008561Y002250D01*
X008637Y002068D01*
X008777Y001928D01*
X008802Y001918D01*
X008748Y001878D01*
X008695Y001825D01*
X008650Y001765D01*
X008616Y001698D01*
X008593Y001626D01*
X008581Y001552D01*
X008581Y001533D01*
X009040Y001533D01*
X009040Y001496D01*
X008581Y001496D01*
X008581Y001477D01*
X008593Y001403D01*
X008616Y001332D01*
X008650Y001265D01*
X008695Y001204D01*
X008709Y001190D01*
X004408Y001190D01*
X004422Y001204D01*
X004466Y001265D01*
X004500Y001332D01*
X004523Y001403D01*
X004535Y001477D01*
X004535Y001496D01*
X004077Y001496D01*
X004077Y001533D01*
X004535Y001533D01*
X004535Y001552D01*
X004523Y001626D01*
X004500Y001698D01*
X004466Y001765D01*
X004422Y001825D01*
X004369Y001878D01*
X004315Y001918D01*
X004340Y001928D01*
X004479Y002068D01*
X004555Y002250D01*
X004555Y002448D01*
X004555Y002290D02*
X008561Y002290D01*
X008611Y002131D02*
X004506Y002131D01*
X004384Y001973D02*
X008732Y001973D01*
X008686Y001814D02*
X004430Y001814D01*
X004514Y001656D02*
X008603Y001656D01*
X008614Y001339D02*
X004502Y001339D01*
X004077Y001497D02*
X009040Y001497D01*
X009077Y001497D02*
X014040Y001497D01*
X014077Y001497D02*
X019040Y001497D01*
X019077Y001497D02*
X020989Y001497D01*
X020983Y001656D02*
X019514Y001656D01*
X019430Y001814D02*
X020983Y001814D01*
X020983Y001973D02*
X019384Y001973D01*
X019506Y002131D02*
X020983Y002131D01*
X020931Y001339D02*
X019502Y001339D01*
X018614Y001339D02*
X014502Y001339D01*
X014514Y001656D02*
X018603Y001656D01*
X018686Y001814D02*
X014430Y001814D01*
X014384Y001973D02*
X018732Y001973D01*
X018611Y002131D02*
X014506Y002131D01*
X013732Y001973D02*
X009384Y001973D01*
X009430Y001814D02*
X013686Y001814D01*
X013603Y001656D02*
X009514Y001656D01*
X009502Y001339D02*
X013614Y001339D01*
X013611Y002131D02*
X009506Y002131D01*
X009523Y003082D02*
X011338Y003082D01*
X011790Y002290D02*
X013561Y002290D01*
X013435Y003241D02*
X009681Y003241D01*
X009755Y003399D02*
X013362Y003399D01*
X013307Y003558D02*
X009809Y003558D01*
X009809Y003716D02*
X013307Y003716D01*
X013326Y003875D02*
X009791Y003875D01*
X009725Y004033D02*
X013391Y004033D01*
X013507Y004192D02*
X009609Y004192D01*
X009404Y004350D02*
X013713Y004350D01*
X013672Y005301D02*
X011830Y005301D01*
X011749Y005220D02*
X012018Y005489D01*
X012018Y005871D01*
X011791Y006098D01*
X011808Y006107D01*
X011869Y006151D01*
X011922Y006204D01*
X011966Y006265D01*
X012000Y006332D01*
X012023Y006403D01*
X012035Y006477D01*
X012035Y006496D01*
X011577Y006496D01*
X011577Y006533D01*
X012035Y006533D01*
X012035Y006552D01*
X012023Y006626D01*
X012000Y006698D01*
X011966Y006765D01*
X011922Y006825D01*
X011869Y006878D01*
X011808Y006922D01*
X011790Y006932D01*
X011808Y006941D01*
X011869Y006986D01*
X011922Y007039D01*
X011966Y007099D01*
X012000Y007166D01*
X012023Y007238D01*
X012035Y007312D01*
X012035Y007331D01*
X011577Y007331D01*
X011577Y007368D01*
X012035Y007368D01*
X012035Y007387D01*
X012023Y007461D01*
X012000Y007532D01*
X011966Y007599D01*
X011922Y007660D01*
X011869Y007713D01*
X011808Y007757D01*
X011741Y007791D01*
X011670Y007814D01*
X011596Y007826D01*
X011577Y007826D01*
X011577Y007368D01*
X011540Y007368D01*
X011540Y007826D01*
X011521Y007826D01*
X011447Y007814D01*
X011375Y007791D01*
X011308Y007757D01*
X011248Y007713D01*
X011195Y007660D01*
X011150Y007599D01*
X011116Y007532D01*
X011093Y007461D01*
X011081Y007387D01*
X011081Y007368D01*
X011540Y007368D01*
X011540Y007331D01*
X011577Y007331D01*
X011577Y006533D01*
X011540Y006533D01*
X011540Y006991D01*
X011540Y007331D01*
X011081Y007331D01*
X011081Y007312D01*
X011093Y007238D01*
X011116Y007166D01*
X011150Y007099D01*
X011195Y007039D01*
X011248Y006986D01*
X011308Y006941D01*
X011327Y006932D01*
X011308Y006922D01*
X011248Y006878D01*
X011195Y006825D01*
X011150Y006765D01*
X011116Y006698D01*
X011093Y006626D01*
X011081Y006552D01*
X011081Y006533D01*
X011540Y006533D01*
X011540Y006496D01*
X011081Y006496D01*
X011081Y006477D01*
X011093Y006403D01*
X011116Y006332D01*
X011150Y006265D01*
X011195Y006204D01*
X011248Y006151D01*
X011308Y006107D01*
X011326Y006098D01*
X011098Y005871D01*
X011098Y005489D01*
X011368Y005220D01*
X011749Y005220D01*
X011988Y005460D02*
X013586Y005460D01*
X013561Y005618D02*
X012018Y005618D01*
X012018Y005777D02*
X013587Y005777D01*
X013674Y005935D02*
X011954Y005935D01*
X011795Y006094D02*
X013910Y006094D01*
X014206Y006094D02*
X016117Y006094D01*
X016163Y005935D02*
X014443Y005935D01*
X014530Y005777D02*
X016098Y005777D01*
X016098Y005618D02*
X014555Y005618D01*
X014531Y005460D02*
X016128Y005460D01*
X016287Y005301D02*
X014445Y005301D01*
X014368Y006220D02*
X014098Y006489D01*
X014098Y006871D01*
X014368Y007140D01*
X014749Y007140D01*
X015018Y006871D01*
X015018Y006489D01*
X014749Y006220D01*
X014368Y006220D01*
X014336Y006252D02*
X011957Y006252D01*
X012025Y006411D02*
X014177Y006411D01*
X014098Y006569D02*
X012032Y006569D01*
X011985Y006728D02*
X014098Y006728D01*
X014114Y006886D02*
X011858Y006886D01*
X011926Y007045D02*
X014272Y007045D01*
X013999Y007720D02*
X013618Y007720D01*
X013348Y007989D01*
X013348Y008371D01*
X013618Y008640D01*
X013999Y008640D01*
X014268Y008371D01*
X014268Y007989D01*
X013999Y007720D01*
X014116Y007837D02*
X017278Y007837D01*
X017278Y007679D02*
X011903Y007679D01*
X012004Y007520D02*
X016070Y007520D01*
X015912Y007362D02*
X011577Y007362D01*
X011540Y007362D02*
X007386Y007362D01*
X007363Y007203D02*
X011104Y007203D01*
X011190Y007045D02*
X009594Y007045D01*
X009499Y007140D02*
X009118Y007140D01*
X008848Y006871D01*
X008848Y006489D01*
X009118Y006220D01*
X009499Y006220D01*
X009768Y006489D01*
X009768Y006871D01*
X009499Y007140D01*
X009753Y006886D02*
X011258Y006886D01*
X011132Y006728D02*
X009768Y006728D01*
X009768Y006569D02*
X011084Y006569D01*
X011092Y006411D02*
X009689Y006411D01*
X009531Y006252D02*
X011160Y006252D01*
X011321Y006094D02*
X009206Y006094D01*
X009086Y006252D02*
X007158Y006252D01*
X007000Y006094D02*
X008910Y006094D01*
X008674Y005935D02*
X004443Y005935D01*
X004530Y005777D02*
X008587Y005777D01*
X008561Y005618D02*
X004555Y005618D01*
X004531Y005460D02*
X008586Y005460D01*
X008672Y005301D02*
X004445Y005301D01*
X004206Y006094D02*
X006117Y006094D01*
X005958Y006252D02*
X004088Y006252D01*
X004088Y006411D02*
X005800Y006411D01*
X005725Y006569D02*
X004088Y006569D01*
X004088Y006728D02*
X004205Y006728D01*
X004912Y006728D02*
X005725Y006728D01*
X005725Y006886D02*
X005053Y006886D01*
X005119Y007045D02*
X005725Y007045D01*
X005753Y007203D02*
X005128Y007203D01*
X005100Y007362D02*
X005912Y007362D01*
X006070Y007520D02*
X005024Y007520D01*
X004844Y007679D02*
X006911Y007679D01*
X007069Y007837D02*
X004088Y007837D01*
X004088Y007679D02*
X004272Y007679D01*
X004092Y007520D02*
X004088Y007520D01*
X003528Y006728D02*
X003487Y006728D01*
X003528Y006569D02*
X001818Y006569D01*
X001818Y006411D02*
X003528Y006411D01*
X003528Y006252D02*
X001818Y006252D01*
X001818Y006094D02*
X003528Y006094D01*
X003528Y005935D02*
X001818Y005935D01*
X001818Y005777D02*
X003543Y005777D01*
X002730Y006728D02*
X002487Y006728D01*
X002128Y008135D02*
X002128Y008175D01*
X002088Y008175D01*
X002088Y009135D01*
X002128Y009135D01*
X002128Y008605D01*
X002128Y008175D01*
X002658Y008175D01*
X003088Y008175D01*
X003088Y008135D01*
X002128Y008135D01*
X002128Y008154D02*
X003088Y008154D01*
X003088Y008175D02*
X003088Y009135D01*
X002128Y009135D01*
X002128Y009175D01*
X002088Y009175D01*
X002088Y010135D01*
X002128Y010135D01*
X002128Y009705D01*
X002128Y009175D01*
X002658Y009175D01*
X003088Y009175D01*
X003088Y009135D01*
X003128Y009135D01*
X003128Y008605D01*
X003128Y008175D01*
X003088Y008175D01*
X003088Y008313D02*
X003128Y008313D01*
X003128Y008471D02*
X003088Y008471D01*
X003088Y008630D02*
X003128Y008630D01*
X003128Y008788D02*
X003088Y008788D01*
X003088Y008947D02*
X003128Y008947D01*
X003128Y009105D02*
X003088Y009105D01*
X003088Y009175D02*
X003088Y010135D01*
X002128Y010135D01*
X002128Y010175D01*
X002558Y010175D01*
X003088Y010175D01*
X003088Y010135D01*
X003128Y010135D01*
X003128Y009705D01*
X003128Y009175D01*
X003088Y009175D01*
X003088Y009264D02*
X003128Y009264D01*
X003128Y009422D02*
X003088Y009422D01*
X003088Y009581D02*
X003128Y009581D01*
X003128Y009739D02*
X003088Y009739D01*
X003088Y009898D02*
X003128Y009898D01*
X003128Y010056D02*
X003088Y010056D01*
X002128Y010056D02*
X002088Y010056D01*
X002088Y009898D02*
X002128Y009898D01*
X002128Y009739D02*
X002088Y009739D01*
X002088Y009581D02*
X002128Y009581D01*
X002128Y009422D02*
X002088Y009422D01*
X002088Y009264D02*
X002128Y009264D01*
X002128Y009105D02*
X002088Y009105D01*
X002088Y008947D02*
X002128Y008947D01*
X002128Y008788D02*
X002088Y008788D01*
X002088Y008630D02*
X002128Y008630D01*
X002128Y008471D02*
X002088Y008471D01*
X002088Y008313D02*
X002128Y008313D01*
X004088Y011166D02*
X004311Y011166D01*
X004108Y011324D02*
X004088Y011324D01*
X005093Y011483D02*
X007115Y011483D01*
X006956Y011324D02*
X006942Y011324D01*
X008338Y011641D02*
X010725Y011641D01*
X009499Y010140D02*
X009118Y010140D01*
X008848Y009871D01*
X008848Y009489D01*
X009118Y009220D01*
X009499Y009220D01*
X009768Y009489D01*
X009768Y009871D01*
X009499Y010140D01*
X009583Y010056D02*
X014284Y010056D01*
X014368Y010140D02*
X014098Y009871D01*
X014098Y009489D01*
X014368Y009220D01*
X014749Y009220D01*
X015018Y009489D01*
X015018Y009871D01*
X014749Y010140D01*
X014368Y010140D01*
X014125Y009898D02*
X009741Y009898D01*
X009768Y009739D02*
X014098Y009739D01*
X014098Y009581D02*
X009768Y009581D01*
X009701Y009422D02*
X011387Y009422D01*
X011409Y009431D02*
X011133Y009317D01*
X010921Y009106D01*
X010807Y008829D01*
X010807Y008531D01*
X010921Y008254D01*
X011133Y008043D01*
X011409Y007929D01*
X011708Y007929D01*
X011984Y008043D01*
X012195Y008254D01*
X012309Y008531D01*
X012309Y008829D01*
X012195Y009106D01*
X011984Y009317D01*
X011708Y009431D01*
X011409Y009431D01*
X011730Y009422D02*
X014166Y009422D01*
X014324Y009264D02*
X012037Y009264D01*
X012195Y009105D02*
X015833Y009105D01*
X015745Y009017D02*
X015745Y008760D01*
X016478Y008760D01*
X016478Y009493D01*
X016221Y009493D01*
X015745Y009017D01*
X015745Y008947D02*
X012261Y008947D01*
X012309Y008788D02*
X015745Y008788D01*
X015745Y008471D02*
X014168Y008471D01*
X014268Y008313D02*
X015776Y008313D01*
X015934Y008154D02*
X014268Y008154D01*
X014268Y007996D02*
X016093Y007996D01*
X016478Y007996D02*
X016638Y007996D01*
X016638Y008154D02*
X016478Y008154D01*
X016478Y008313D02*
X016638Y008313D01*
X016638Y008471D02*
X016478Y008471D01*
X016478Y008630D02*
X014009Y008630D01*
X013607Y008630D02*
X012309Y008630D01*
X012285Y008471D02*
X013449Y008471D01*
X013348Y008313D02*
X012219Y008313D01*
X012095Y008154D02*
X013348Y008154D01*
X013348Y007996D02*
X011869Y007996D01*
X011577Y007679D02*
X011540Y007679D01*
X011540Y007520D02*
X011577Y007520D01*
X011577Y007203D02*
X011540Y007203D01*
X011540Y007045D02*
X011577Y007045D01*
X011577Y006886D02*
X011540Y006886D01*
X011540Y006728D02*
X011577Y006728D01*
X011577Y006569D02*
X011540Y006569D01*
X012012Y007203D02*
X015753Y007203D01*
X015725Y007045D02*
X014844Y007045D01*
X015003Y006886D02*
X015725Y006886D01*
X015725Y006728D02*
X015018Y006728D01*
X015018Y006569D02*
X015725Y006569D01*
X015800Y006411D02*
X014939Y006411D01*
X014781Y006252D02*
X015958Y006252D01*
X016558Y006830D02*
X016958Y006830D01*
X017558Y007430D01*
X017558Y010930D01*
X014308Y014180D01*
X014308Y018930D01*
X012558Y020680D01*
X012558Y023430D01*
X011808Y024180D01*
X010308Y025180D02*
X010183Y025180D01*
X009623Y024004D02*
X009588Y024004D01*
X009588Y023846D02*
X009732Y023846D01*
X009028Y023687D02*
X008837Y023687D01*
X009028Y023529D02*
X006606Y023529D01*
X006447Y023687D02*
X008480Y023687D01*
X008237Y023846D02*
X006289Y023846D01*
X006130Y024004D02*
X008135Y024004D01*
X008088Y024163D02*
X005972Y024163D01*
X005813Y024321D02*
X008088Y024321D01*
X008145Y024480D02*
X005655Y024480D01*
X005496Y024638D02*
X008260Y024638D01*
X008319Y024797D02*
X005338Y024797D01*
X005179Y024955D02*
X008181Y024955D01*
X008120Y025114D02*
X005088Y025114D01*
X005088Y025272D02*
X005209Y025272D01*
X005939Y025272D02*
X006193Y025272D01*
X006923Y025272D02*
X007216Y025272D01*
X007066Y025431D02*
X007063Y025431D01*
X007524Y025431D02*
X007561Y025431D01*
X007561Y025589D02*
X007524Y025589D01*
X007561Y025709D02*
X007561Y025167D01*
X007587Y025167D01*
X007674Y025181D01*
X007757Y025208D01*
X007836Y025248D01*
X007907Y025300D01*
X007970Y025362D01*
X008021Y025434D01*
X008061Y025512D01*
X008089Y025596D01*
X008102Y025683D01*
X008102Y025709D01*
X007561Y025709D01*
X007561Y025746D02*
X008102Y025746D01*
X008102Y025771D01*
X008089Y025858D01*
X008061Y025942D01*
X008021Y026021D01*
X007970Y026092D01*
X007907Y026154D01*
X007836Y026206D01*
X007757Y026246D01*
X007674Y026273D01*
X007587Y026287D01*
X007561Y026287D01*
X007561Y025746D01*
X007561Y025748D02*
X007524Y025748D01*
X007524Y025906D02*
X007561Y025906D01*
X007561Y026065D02*
X007524Y026065D01*
X007524Y026223D02*
X007561Y026223D01*
X007803Y026223D02*
X008088Y026223D01*
X008104Y026382D02*
X005088Y026382D01*
X005088Y026540D02*
X008170Y026540D01*
X008321Y026699D02*
X005223Y026699D01*
X005381Y026857D02*
X008833Y026857D01*
X008991Y027016D02*
X007040Y027016D01*
X007198Y027174D02*
X009150Y027174D01*
X009308Y027333D02*
X007321Y027333D01*
X007282Y026223D02*
X006877Y026223D01*
X007041Y026065D02*
X007095Y026065D01*
X006240Y026223D02*
X005893Y026223D01*
X006057Y026065D02*
X006075Y026065D01*
X005255Y026223D02*
X005088Y026223D01*
X005088Y026065D02*
X005091Y026065D01*
X004410Y027967D02*
X001818Y027967D01*
X001818Y028125D02*
X004252Y028125D01*
X004093Y028284D02*
X001818Y028284D01*
X001818Y028442D02*
X004016Y028442D01*
X004016Y028918D02*
X001818Y028918D01*
X001818Y029076D02*
X004093Y029076D01*
X004251Y029235D02*
X001818Y029235D01*
X001818Y029393D02*
X004410Y029393D01*
X004707Y028759D02*
X001818Y028759D01*
X001818Y028601D02*
X004707Y028601D01*
X006778Y029552D02*
X001818Y029552D01*
X001818Y029710D02*
X006778Y029710D01*
X006778Y029869D02*
X001818Y029869D01*
X001818Y030027D02*
X006795Y030027D01*
X006918Y030186D02*
X001818Y030186D01*
X001818Y030344D02*
X007076Y030344D01*
X007235Y030503D02*
X001818Y030503D01*
X001818Y030661D02*
X007393Y030661D01*
X007552Y030820D02*
X001818Y030820D01*
X001818Y030978D02*
X009634Y030978D01*
X009588Y031137D02*
X001818Y031137D01*
X001818Y031295D02*
X009598Y031295D01*
X009671Y031454D02*
X001818Y031454D01*
X001818Y031612D02*
X002940Y031612D01*
X003177Y031612D02*
X009889Y031612D01*
X009835Y031771D02*
X008545Y031771D01*
X008703Y031929D02*
X009654Y031929D01*
X009589Y032088D02*
X008862Y032088D01*
X009020Y032246D02*
X009588Y032246D01*
X009643Y032405D02*
X009179Y032405D01*
X009337Y032563D02*
X009781Y032563D01*
X009953Y032722D02*
X009496Y032722D01*
X009654Y032880D02*
X009698Y032880D01*
X009558Y033180D02*
X008308Y031930D01*
X004308Y031930D01*
X003058Y033180D01*
X002488Y033197D02*
X001818Y033197D01*
X001818Y033039D02*
X002500Y033039D01*
X002566Y032880D02*
X001818Y032880D01*
X001818Y032722D02*
X002711Y032722D01*
X002635Y032563D02*
X001818Y032563D01*
X001818Y032405D02*
X002534Y032405D01*
X002488Y032246D02*
X001818Y032246D01*
X001818Y032088D02*
X002488Y032088D01*
X002545Y031929D02*
X001818Y031929D01*
X001818Y031771D02*
X002662Y031771D01*
X003455Y031771D02*
X004072Y031771D01*
X003913Y031929D02*
X003571Y031929D01*
X003628Y032088D02*
X003755Y032088D01*
X004230Y032405D02*
X004492Y032405D01*
X004388Y032246D02*
X008228Y032246D01*
X008125Y032405D02*
X008387Y032405D01*
X008337Y032563D02*
X008545Y032563D01*
X008496Y032722D02*
X008704Y032722D01*
X008654Y032880D02*
X008862Y032880D01*
X008813Y033039D02*
X009021Y033039D01*
X008971Y033197D02*
X009179Y033197D01*
X009130Y033356D02*
X009338Y033356D01*
X009288Y033514D02*
X009732Y033514D01*
X009747Y033831D02*
X009605Y033831D01*
X009447Y033673D02*
X015199Y033673D01*
X015694Y034148D02*
X014028Y034148D01*
X014014Y034307D02*
X015536Y034307D01*
X015377Y034465D02*
X013934Y034465D01*
X013699Y034624D02*
X015219Y034624D01*
X015060Y034782D02*
X013810Y034782D01*
X013308Y035180D02*
X015058Y035180D01*
X016558Y033680D01*
X016558Y033227D01*
X016933Y033673D02*
X017203Y033673D01*
X017524Y033673D02*
X017561Y033673D01*
X017561Y033787D02*
X017561Y033246D01*
X018102Y033246D01*
X018102Y033271D01*
X018089Y033358D01*
X018061Y033442D01*
X018021Y033521D01*
X017970Y033592D01*
X017907Y033654D01*
X017836Y033706D01*
X017757Y033746D01*
X017674Y033773D01*
X017587Y033787D01*
X017561Y033787D01*
X017561Y033514D02*
X017524Y033514D01*
X017524Y033356D02*
X017561Y033356D01*
X017561Y033209D02*
X018102Y033209D01*
X018102Y033183D01*
X018089Y033096D01*
X018061Y033012D01*
X018021Y032934D01*
X017970Y032862D01*
X017907Y032800D01*
X017836Y032748D01*
X017757Y032708D01*
X017674Y032681D01*
X017587Y032667D01*
X017561Y032667D01*
X017561Y033209D01*
X017561Y033197D02*
X017524Y033197D01*
X017524Y033039D02*
X017561Y033039D01*
X017561Y032880D02*
X017524Y032880D01*
X017524Y032722D02*
X017561Y032722D01*
X017784Y032722D02*
X020983Y032722D01*
X020983Y032880D02*
X017982Y032880D01*
X018070Y033039D02*
X020983Y033039D01*
X020983Y033197D02*
X018102Y033197D01*
X018089Y033356D02*
X020983Y033356D01*
X020983Y033514D02*
X018025Y033514D01*
X017882Y033673D02*
X020983Y033673D01*
X020983Y033831D02*
X016799Y033831D01*
X016645Y033990D02*
X020983Y033990D01*
X020983Y034148D02*
X016486Y034148D01*
X016328Y034307D02*
X020983Y034307D01*
X020983Y034465D02*
X016169Y034465D01*
X016011Y034624D02*
X020983Y034624D01*
X020983Y034782D02*
X015852Y034782D01*
X015694Y034941D02*
X020983Y034941D01*
X020983Y035099D02*
X015535Y035099D01*
X015377Y035258D02*
X020983Y035258D01*
X020983Y035416D02*
X018656Y035416D01*
X018649Y035409D02*
X019100Y035861D01*
X019100Y036100D01*
X018410Y036100D01*
X018410Y036260D01*
X019100Y036260D01*
X019100Y036499D01*
X018649Y036951D01*
X018410Y036951D01*
X018410Y036260D01*
X018250Y036260D01*
X018250Y036951D01*
X018011Y036951D01*
X017559Y036499D01*
X017559Y036260D01*
X018250Y036260D01*
X018250Y036100D01*
X018410Y036100D01*
X018410Y035409D01*
X018649Y035409D01*
X018814Y035575D02*
X020983Y035575D01*
X020983Y035733D02*
X018973Y035733D01*
X019100Y035892D02*
X020983Y035892D01*
X020983Y036050D02*
X019100Y036050D01*
X019100Y036367D02*
X020983Y036367D01*
X020983Y036209D02*
X018410Y036209D01*
X018410Y036367D02*
X018250Y036367D01*
X018250Y036209D02*
X014867Y036209D01*
X014867Y036367D02*
X014707Y036367D01*
X014707Y036209D02*
X013737Y036209D01*
X013768Y036367D02*
X014016Y036367D01*
X014042Y036526D02*
X013768Y036526D01*
X013705Y036684D02*
X014201Y036684D01*
X014359Y036843D02*
X013546Y036843D01*
X013579Y036050D02*
X014016Y036050D01*
X014016Y035892D02*
X009100Y035892D01*
X009100Y035861D02*
X009100Y036100D01*
X008410Y036100D01*
X008410Y036260D01*
X009100Y036260D01*
X009100Y036499D01*
X008649Y036951D01*
X008410Y036951D01*
X008410Y036260D01*
X008250Y036260D01*
X008250Y036951D01*
X008011Y036951D01*
X007559Y036499D01*
X007559Y036260D01*
X008250Y036260D01*
X008250Y036100D01*
X008410Y036100D01*
X008410Y035409D01*
X008649Y035409D01*
X009100Y035861D01*
X008973Y035733D02*
X014144Y035733D01*
X014302Y035575D02*
X013818Y035575D01*
X014707Y036526D02*
X014867Y036526D01*
X014867Y036684D02*
X014707Y036684D01*
X014707Y036843D02*
X014867Y036843D01*
X015214Y036843D02*
X017903Y036843D01*
X017744Y036684D02*
X015372Y036684D01*
X015531Y036526D02*
X017586Y036526D01*
X017559Y036367D02*
X015557Y036367D01*
X015557Y036050D02*
X017559Y036050D01*
X017559Y036100D02*
X017559Y035861D01*
X018011Y035409D01*
X018250Y035409D01*
X018250Y036100D01*
X017559Y036100D01*
X017559Y035892D02*
X015557Y035892D01*
X015429Y035733D02*
X017687Y035733D01*
X017846Y035575D02*
X015271Y035575D01*
X015218Y035416D02*
X018004Y035416D01*
X018250Y035416D02*
X018410Y035416D01*
X018410Y035575D02*
X018250Y035575D01*
X018250Y035733D02*
X018410Y035733D01*
X018410Y035892D02*
X018250Y035892D01*
X018250Y036050D02*
X018410Y036050D01*
X018410Y036526D02*
X018250Y036526D01*
X018250Y036684D02*
X018410Y036684D01*
X018410Y036843D02*
X018250Y036843D01*
X018757Y036843D02*
X020983Y036843D01*
X020983Y036684D02*
X018916Y036684D01*
X019074Y036526D02*
X020983Y036526D01*
X017301Y032722D02*
X016853Y032722D01*
X017031Y032880D02*
X017103Y032880D01*
X016263Y032722D02*
X015869Y032722D01*
X016047Y032880D02*
X016085Y032880D01*
X016170Y033673D02*
X015949Y033673D01*
X016011Y033831D02*
X013870Y033831D01*
X013987Y033990D02*
X015853Y033990D01*
X016058Y030430D02*
X014308Y030430D01*
X013308Y030180D02*
X011808Y030180D01*
X011565Y030027D02*
X011003Y030027D01*
X011028Y030186D02*
X011407Y030186D01*
X011248Y030344D02*
X010998Y030344D01*
X010907Y029869D02*
X012709Y029869D01*
X012811Y029552D02*
X010847Y029552D01*
X009709Y029869D02*
X007393Y029869D01*
X007551Y030027D02*
X009614Y030027D01*
X009588Y030186D02*
X007710Y030186D01*
X007868Y030344D02*
X009618Y030344D01*
X012104Y029393D02*
X012663Y029393D01*
X012611Y029235D02*
X012263Y029235D01*
X012421Y029076D02*
X012619Y029076D01*
X012580Y028918D02*
X012695Y028918D01*
X012738Y028759D02*
X012920Y028759D01*
X013308Y028759D02*
X013308Y028759D01*
X013308Y028918D02*
X013308Y028918D01*
X013308Y029076D02*
X013308Y029076D01*
X013308Y029180D02*
X013308Y029180D01*
X013308Y029235D02*
X013308Y029235D01*
X013308Y029393D02*
X013308Y029393D01*
X013308Y029552D02*
X013308Y029552D01*
X010308Y033180D02*
X009558Y033180D01*
X008813Y033831D02*
X003803Y033831D01*
X003645Y033990D02*
X008972Y033990D01*
X009130Y034148D02*
X003628Y034148D01*
X003623Y034307D02*
X009289Y034307D01*
X009558Y034180D02*
X008058Y032680D01*
X004558Y032680D01*
X003058Y034180D01*
X002520Y033990D02*
X001818Y033990D01*
X001818Y034148D02*
X002488Y034148D01*
X002494Y034307D02*
X001818Y034307D01*
X001818Y034465D02*
X002559Y034465D01*
X002696Y034624D02*
X001818Y034624D01*
X001818Y034782D02*
X002650Y034782D01*
X002540Y034941D02*
X001818Y034941D01*
X001818Y035099D02*
X002488Y035099D01*
X002488Y035258D02*
X001818Y035258D01*
X001818Y035416D02*
X002539Y035416D01*
X002647Y035575D02*
X001818Y035575D01*
X001818Y035733D02*
X002738Y035733D01*
X002588Y035892D02*
X001818Y035892D01*
X001818Y036050D02*
X002522Y036050D01*
X002508Y036200D02*
X003038Y036200D01*
X003038Y036730D01*
X003038Y037160D01*
X002508Y037160D01*
X002508Y037137D01*
X002522Y037051D01*
X002549Y036969D01*
X002588Y036892D01*
X002639Y036822D01*
X002700Y036760D01*
X002770Y036710D01*
X002828Y036680D01*
X002770Y036650D01*
X002700Y036600D01*
X002639Y036538D01*
X002588Y036468D01*
X002549Y036391D01*
X002522Y036309D01*
X002508Y036223D01*
X002508Y036200D01*
X002508Y036209D02*
X001818Y036209D01*
X001818Y036367D02*
X002541Y036367D01*
X002629Y036526D02*
X001818Y036526D01*
X001818Y036684D02*
X002820Y036684D01*
X003038Y036684D02*
X003078Y036684D01*
X003078Y036526D02*
X003038Y036526D01*
X003038Y036367D02*
X003078Y036367D01*
X003078Y036209D02*
X003038Y036209D01*
X003078Y036200D02*
X003078Y037160D01*
X003038Y037160D01*
X003038Y037200D01*
X002508Y037200D01*
X002508Y037223D01*
X002522Y037309D01*
X002549Y037391D01*
X002588Y037468D01*
X002639Y037538D01*
X002700Y037600D01*
X002770Y037650D01*
X002847Y037690D01*
X002929Y037716D01*
X003015Y037730D01*
X003038Y037730D01*
X003038Y037200D01*
X003078Y037200D01*
X003078Y037730D01*
X003102Y037730D01*
X003187Y037716D01*
X003269Y037690D01*
X003347Y037650D01*
X003417Y037600D01*
X003478Y037538D01*
X003529Y037468D01*
X003568Y037391D01*
X003595Y037309D01*
X003608Y037223D01*
X003608Y037200D01*
X003078Y037200D01*
X003078Y037160D01*
X003608Y037160D01*
X003608Y037137D01*
X003595Y037051D01*
X003568Y036969D01*
X003529Y036892D01*
X003478Y036822D01*
X003417Y036760D01*
X003347Y036710D01*
X003288Y036680D01*
X003347Y036650D01*
X003417Y036600D01*
X003478Y036538D01*
X003529Y036468D01*
X003568Y036391D01*
X003595Y036309D01*
X003608Y036223D01*
X003608Y036200D01*
X003078Y036200D01*
X003487Y036526D02*
X004042Y036526D01*
X004016Y036499D02*
X004016Y036260D01*
X004707Y036260D01*
X004707Y036951D01*
X004467Y036951D01*
X004016Y036499D01*
X004016Y036367D02*
X003576Y036367D01*
X003608Y036209D02*
X004707Y036209D01*
X004707Y036260D02*
X004707Y036100D01*
X004867Y036100D01*
X004867Y036260D01*
X005557Y036260D01*
X005557Y036499D01*
X005106Y036951D01*
X004867Y036951D01*
X004867Y036260D01*
X004707Y036260D01*
X004707Y036367D02*
X004867Y036367D01*
X004867Y036209D02*
X008250Y036209D01*
X008250Y036100D02*
X007559Y036100D01*
X007559Y035861D01*
X008011Y035409D01*
X008250Y035409D01*
X008250Y036100D01*
X008250Y036050D02*
X008410Y036050D01*
X008410Y035892D02*
X008250Y035892D01*
X008250Y035733D02*
X008410Y035733D01*
X008410Y035575D02*
X008250Y035575D01*
X008250Y035416D02*
X008410Y035416D01*
X008656Y035416D02*
X009648Y035416D01*
X009588Y035258D02*
X003628Y035258D01*
X003628Y035099D02*
X009588Y035099D01*
X009650Y034941D02*
X003576Y034941D01*
X003466Y034782D02*
X009807Y034782D01*
X009917Y034624D02*
X003421Y034624D01*
X003557Y034465D02*
X009683Y034465D01*
X009558Y034180D02*
X010308Y034180D01*
X009799Y035575D02*
X008814Y035575D01*
X009100Y036050D02*
X010038Y036050D01*
X009879Y036209D02*
X008410Y036209D01*
X008410Y036367D02*
X008250Y036367D01*
X008250Y036526D02*
X008410Y036526D01*
X008410Y036684D02*
X008250Y036684D01*
X008250Y036843D02*
X008410Y036843D01*
X008757Y036843D02*
X009995Y036843D01*
X009912Y036684D02*
X008916Y036684D01*
X009074Y036526D02*
X009848Y036526D01*
X009848Y036367D02*
X009100Y036367D01*
X009848Y037001D02*
X003578Y037001D01*
X003608Y037160D02*
X009848Y037160D01*
X009848Y037318D02*
X003592Y037318D01*
X003523Y037477D02*
X009954Y037477D01*
X010113Y037635D02*
X003368Y037635D01*
X003078Y037635D02*
X003038Y037635D01*
X003038Y037477D02*
X003078Y037477D01*
X003078Y037318D02*
X003038Y037318D01*
X003038Y037160D02*
X003078Y037160D01*
X003078Y037001D02*
X003038Y037001D01*
X003038Y036843D02*
X003078Y036843D01*
X003296Y036684D02*
X004201Y036684D01*
X004359Y036843D02*
X003493Y036843D01*
X004016Y036100D02*
X004016Y035861D01*
X004467Y035409D01*
X004707Y035409D01*
X004707Y036100D01*
X004016Y036100D01*
X004016Y036050D02*
X003594Y036050D01*
X003529Y035892D02*
X004016Y035892D01*
X004144Y035733D02*
X003379Y035733D01*
X003470Y035575D02*
X004302Y035575D01*
X004461Y035416D02*
X003577Y035416D01*
X004707Y035416D02*
X004867Y035416D01*
X004867Y035409D02*
X005106Y035409D01*
X005557Y035861D01*
X005557Y036100D01*
X004867Y036100D01*
X004867Y035409D01*
X004867Y035575D02*
X004707Y035575D01*
X004707Y035733D02*
X004867Y035733D01*
X004867Y035892D02*
X004707Y035892D01*
X004707Y036050D02*
X004867Y036050D01*
X005271Y035575D02*
X007846Y035575D01*
X007687Y035733D02*
X005429Y035733D01*
X005557Y035892D02*
X007559Y035892D01*
X007559Y036050D02*
X005557Y036050D01*
X005557Y036367D02*
X007559Y036367D01*
X007586Y036526D02*
X005531Y036526D01*
X005372Y036684D02*
X007744Y036684D01*
X007903Y036843D02*
X005214Y036843D01*
X004867Y036843D02*
X004707Y036843D01*
X004707Y036684D02*
X004867Y036684D01*
X004867Y036526D02*
X004707Y036526D01*
X005112Y035416D02*
X008004Y035416D01*
X007674Y033773D02*
X007587Y033787D01*
X007561Y033787D01*
X007561Y033246D01*
X008102Y033246D01*
X008102Y033271D01*
X008089Y033358D01*
X008061Y033442D01*
X008021Y033521D01*
X007970Y033592D01*
X007907Y033654D01*
X007836Y033706D01*
X007757Y033746D01*
X007674Y033773D01*
X007561Y033673D02*
X007524Y033673D01*
X007524Y033514D02*
X007561Y033514D01*
X007561Y033356D02*
X007524Y033356D01*
X007203Y033673D02*
X006933Y033673D01*
X006183Y033673D02*
X005949Y033673D01*
X005199Y033673D02*
X003962Y033673D01*
X004120Y033514D02*
X005065Y033514D01*
X004999Y033356D02*
X004279Y033356D01*
X004437Y033197D02*
X004994Y033197D01*
X005024Y033039D02*
X004596Y033039D01*
X004121Y032722D02*
X003913Y032722D01*
X003962Y032880D02*
X003754Y032880D01*
X003804Y033039D02*
X003617Y033039D01*
X003628Y033197D02*
X003645Y033197D01*
X004071Y032563D02*
X004279Y032563D01*
X002758Y033673D02*
X001818Y033673D01*
X001818Y033831D02*
X002601Y033831D01*
X002586Y033514D02*
X001818Y033514D01*
X001818Y033356D02*
X002514Y033356D01*
X002624Y036843D02*
X001818Y036843D01*
X001818Y037001D02*
X002538Y037001D01*
X002508Y037160D02*
X001818Y037160D01*
X001818Y037318D02*
X002525Y037318D01*
X002594Y037477D02*
X001818Y037477D01*
X001818Y037635D02*
X002749Y037635D01*
X007882Y033673D02*
X008655Y033673D01*
X008496Y033514D02*
X008025Y033514D01*
X008089Y033356D02*
X008338Y033356D01*
X008179Y033197D02*
X008102Y033197D01*
X007990Y026065D02*
X008110Y026065D01*
X008073Y025906D02*
X008176Y025906D01*
X008102Y025748D02*
X008335Y025748D01*
X008239Y025589D02*
X008086Y025589D01*
X008145Y025431D02*
X008019Y025431D01*
X008108Y025272D02*
X007869Y025272D01*
X008108Y025230D02*
X008658Y025230D01*
X008108Y025230D01*
X007561Y025272D02*
X007524Y025272D01*
X008658Y025230D02*
X008658Y025230D01*
X009028Y023370D02*
X006764Y023370D01*
X006838Y023212D02*
X009028Y023212D01*
X009028Y023053D02*
X006838Y023053D01*
X006838Y022895D02*
X009028Y022895D01*
X009028Y022736D02*
X006838Y022736D01*
X006838Y022578D02*
X009028Y022578D01*
X009028Y022419D02*
X006838Y022419D01*
X006838Y022261D02*
X009028Y022261D01*
X008410Y021944D02*
X008250Y021944D01*
X008250Y021785D02*
X008410Y021785D01*
X008410Y021627D02*
X008250Y021627D01*
X008250Y021468D02*
X008410Y021468D01*
X008410Y021310D02*
X008250Y021310D01*
X011512Y019249D02*
X011943Y019249D01*
X012174Y019249D02*
X012593Y019249D01*
X012454Y019091D02*
X012752Y019091D01*
X012910Y018932D02*
X012571Y018932D01*
X012628Y018774D02*
X013069Y018774D01*
X013227Y018615D02*
X012628Y018615D01*
X012583Y018457D02*
X013278Y018457D01*
X013278Y018298D02*
X012482Y018298D01*
X012243Y018140D02*
X013278Y018140D01*
X014588Y018140D02*
X014994Y018140D01*
X014994Y018298D02*
X014588Y018298D01*
X014588Y018457D02*
X015041Y018457D01*
X015142Y018615D02*
X014588Y018615D01*
X014588Y017981D02*
X015048Y017981D01*
X015158Y017823D02*
X014588Y017823D01*
X015213Y020517D02*
X017903Y020517D01*
X018011Y020409D02*
X017559Y020861D01*
X017559Y021100D01*
X018250Y021100D01*
X018410Y021100D01*
X018410Y021260D01*
X019100Y021260D01*
X019100Y021499D01*
X018649Y021951D01*
X018410Y021951D01*
X018410Y021260D01*
X018250Y021260D01*
X018250Y021951D01*
X018011Y021951D01*
X017559Y021499D01*
X017559Y021260D01*
X018250Y021260D01*
X018250Y021100D01*
X018250Y020409D01*
X018011Y020409D01*
X018250Y020517D02*
X018410Y020517D01*
X018410Y020409D02*
X018649Y020409D01*
X019100Y020861D01*
X019100Y021100D01*
X018410Y021100D01*
X018410Y020409D01*
X018410Y020676D02*
X018250Y020676D01*
X018250Y020834D02*
X018410Y020834D01*
X018410Y020993D02*
X018250Y020993D01*
X018250Y021151D02*
X014867Y021151D01*
X014867Y021310D02*
X014707Y021310D01*
X014707Y021468D02*
X014867Y021468D01*
X014867Y021627D02*
X014707Y021627D01*
X014707Y021785D02*
X014867Y021785D01*
X014867Y021944D02*
X014707Y021944D01*
X014460Y021944D02*
X013968Y021944D01*
X014028Y022102D02*
X018740Y022102D01*
X018656Y021944D02*
X018899Y021944D01*
X018815Y021785D02*
X019057Y021785D01*
X018973Y021627D02*
X019216Y021627D01*
X019278Y021468D02*
X019100Y021468D01*
X019100Y021310D02*
X019278Y021310D01*
X019278Y021151D02*
X018410Y021151D01*
X018410Y021310D02*
X018250Y021310D01*
X018250Y021468D02*
X018410Y021468D01*
X018410Y021627D02*
X018250Y021627D01*
X018250Y021785D02*
X018410Y021785D01*
X018410Y021944D02*
X018250Y021944D01*
X018004Y021944D02*
X015113Y021944D01*
X015271Y021785D02*
X017845Y021785D01*
X017687Y021627D02*
X015430Y021627D01*
X015557Y021468D02*
X017559Y021468D01*
X017559Y021310D02*
X015557Y021310D01*
X015557Y020993D02*
X017559Y020993D01*
X017586Y020834D02*
X015530Y020834D01*
X015372Y020676D02*
X017745Y020676D01*
X018757Y020517D02*
X019278Y020517D01*
X019278Y020676D02*
X018915Y020676D01*
X019074Y020834D02*
X019278Y020834D01*
X019278Y020993D02*
X019100Y020993D01*
X018582Y022261D02*
X014028Y022261D01*
X013817Y021785D02*
X014302Y021785D01*
X014539Y023846D02*
X014684Y023846D01*
X014680Y024004D02*
X014380Y024004D01*
X011663Y019091D02*
X011628Y019091D01*
X011628Y018298D02*
X011634Y018298D01*
X011541Y018140D02*
X011874Y018140D01*
X009028Y017506D02*
X008883Y017506D01*
X009018Y017347D02*
X009028Y017347D01*
X009018Y015287D02*
X009056Y015287D01*
X009018Y015128D02*
X009214Y015128D01*
X009373Y014970D02*
X008998Y014970D01*
X008840Y014811D02*
X009528Y014811D01*
X009528Y014653D02*
X008870Y014653D01*
X008936Y014494D02*
X009528Y014494D01*
X009528Y014336D02*
X008928Y014336D01*
X008058Y013930D02*
X008058Y008430D01*
X006558Y006930D01*
X006558Y006830D01*
X007317Y006411D02*
X008927Y006411D01*
X008848Y006569D02*
X007391Y006569D01*
X007391Y006728D02*
X008848Y006728D01*
X008864Y006886D02*
X007391Y006886D01*
X007391Y007045D02*
X009022Y007045D01*
X008740Y007740D02*
X008558Y007740D01*
X008558Y008180D01*
X008558Y008180D01*
X008558Y008180D01*
X008558Y008620D01*
X008740Y008620D01*
X008998Y008362D01*
X008998Y008180D01*
X008558Y008180D01*
X008998Y008180D01*
X008998Y007998D01*
X008740Y007740D01*
X008838Y007837D02*
X013501Y007837D01*
X014792Y009264D02*
X015992Y009264D01*
X016150Y009422D02*
X014951Y009422D01*
X015018Y009581D02*
X017278Y009581D01*
X017278Y009739D02*
X016945Y009739D01*
X017104Y009898D02*
X017278Y009898D01*
X017262Y010056D02*
X017278Y010056D01*
X017838Y010056D02*
X018284Y010056D01*
X018368Y010140D02*
X018098Y009871D01*
X018098Y009489D01*
X018368Y009220D01*
X018749Y009220D01*
X019018Y009489D01*
X019018Y009871D01*
X018749Y010140D01*
X018368Y010140D01*
X018125Y009898D02*
X017838Y009898D01*
X017838Y009739D02*
X018098Y009739D01*
X018098Y009581D02*
X017838Y009581D01*
X017838Y009422D02*
X018166Y009422D01*
X018324Y009264D02*
X017838Y009264D01*
X017838Y009105D02*
X020983Y009105D01*
X020983Y008947D02*
X017838Y008947D01*
X017838Y008788D02*
X020983Y008788D01*
X020983Y008630D02*
X019759Y008630D01*
X019749Y008640D02*
X019368Y008640D01*
X019098Y008371D01*
X019098Y007989D01*
X019368Y007720D01*
X019749Y007720D01*
X020018Y007989D01*
X020018Y008371D01*
X019749Y008640D01*
X019918Y008471D02*
X020983Y008471D01*
X020983Y008313D02*
X020018Y008313D01*
X020018Y008154D02*
X020983Y008154D01*
X020983Y007996D02*
X020018Y007996D01*
X019866Y007837D02*
X020983Y007837D01*
X020983Y007679D02*
X017838Y007679D01*
X017838Y007837D02*
X019251Y007837D01*
X019098Y007996D02*
X017838Y007996D01*
X017838Y008154D02*
X019098Y008154D01*
X019098Y008313D02*
X017838Y008313D01*
X017838Y008471D02*
X019199Y008471D01*
X019357Y008630D02*
X017838Y008630D01*
X017278Y008154D02*
X017182Y008154D01*
X017278Y007996D02*
X017024Y007996D01*
X017046Y007520D02*
X017252Y007520D01*
X017727Y007203D02*
X020279Y007203D01*
X020088Y007045D02*
X018844Y007045D01*
X019003Y006886D02*
X020005Y006886D01*
X019968Y006728D02*
X019018Y006728D01*
X019018Y006569D02*
X019968Y006569D01*
X020031Y006411D02*
X018939Y006411D01*
X018336Y006252D02*
X017158Y006252D01*
X017317Y006411D02*
X018177Y006411D01*
X018098Y006569D02*
X017391Y006569D01*
X017391Y006728D02*
X018098Y006728D01*
X018114Y006886D02*
X017410Y006886D01*
X017569Y007045D02*
X018272Y007045D01*
X017833Y007362D02*
X020983Y007362D01*
X020983Y007520D02*
X017838Y007520D01*
X016638Y008788D02*
X016478Y008788D01*
X016478Y008947D02*
X016638Y008947D01*
X016638Y009105D02*
X016478Y009105D01*
X016478Y009264D02*
X016638Y009264D01*
X016638Y009422D02*
X016478Y009422D01*
X016171Y009739D02*
X015018Y009739D01*
X014991Y009898D02*
X016013Y009898D01*
X015854Y010056D02*
X014833Y010056D01*
X016558Y011430D02*
X014058Y013930D01*
X016584Y014177D02*
X016769Y014177D01*
X017348Y014177D02*
X017909Y014177D01*
X017751Y014019D02*
X017526Y014019D01*
X018701Y014177D02*
X020983Y014177D01*
X020983Y014019D02*
X019870Y014019D01*
X020018Y013860D02*
X020983Y013860D01*
X020983Y013702D02*
X020018Y013702D01*
X020018Y013543D02*
X020983Y013543D01*
X020983Y013385D02*
X019913Y013385D01*
X019755Y013226D02*
X020983Y013226D01*
X020983Y013068D02*
X019518Y013068D01*
X019518Y012909D02*
X020983Y012909D01*
X020983Y012751D02*
X019518Y012751D01*
X019797Y012592D02*
X020983Y012592D01*
X020983Y012434D02*
X019955Y012434D01*
X020018Y012275D02*
X020983Y012275D01*
X020983Y012117D02*
X020018Y012117D01*
X019987Y011958D02*
X020983Y011958D01*
X020983Y011800D02*
X019828Y011800D01*
X019749Y011640D02*
X019368Y011640D01*
X019098Y011371D01*
X019098Y010989D01*
X019368Y010720D01*
X019749Y010720D01*
X020018Y010989D01*
X020018Y011371D01*
X019749Y011640D01*
X019906Y011483D02*
X020983Y011483D01*
X020983Y011641D02*
X017243Y011641D01*
X017402Y011483D02*
X019210Y011483D01*
X019098Y011324D02*
X017560Y011324D01*
X017719Y011166D02*
X019098Y011166D01*
X019098Y011007D02*
X017829Y011007D01*
X017838Y010849D02*
X019239Y010849D01*
X018833Y010056D02*
X020983Y010056D01*
X020983Y009898D02*
X018991Y009898D01*
X019018Y009739D02*
X020983Y009739D01*
X020983Y009581D02*
X019018Y009581D01*
X018951Y009422D02*
X020983Y009422D01*
X020983Y009264D02*
X018792Y009264D01*
X017838Y010215D02*
X020229Y010215D01*
X020077Y010373D02*
X017838Y010373D01*
X017838Y010532D02*
X020007Y010532D01*
X019988Y010698D02*
X020540Y010698D01*
X020540Y011250D01*
X020513Y011250D01*
X020425Y011236D01*
X020339Y011208D01*
X020259Y011168D01*
X020187Y011115D01*
X020123Y011051D01*
X020071Y010979D01*
X020030Y010899D01*
X020002Y010813D01*
X019988Y010725D01*
X019988Y010698D01*
X020014Y010849D02*
X019877Y010849D01*
X020018Y011007D02*
X020091Y011007D01*
X020018Y011166D02*
X020257Y011166D01*
X020540Y011166D02*
X020577Y011166D01*
X020577Y011007D02*
X020540Y011007D01*
X020540Y010849D02*
X020577Y010849D01*
X020540Y010690D02*
X017838Y010690D01*
X017278Y009422D02*
X016966Y009422D01*
X017125Y009264D02*
X017278Y009264D01*
X018800Y011800D02*
X019288Y011800D01*
X019130Y011958D02*
X018959Y011958D01*
X018998Y012117D02*
X019098Y012117D01*
X019098Y012275D02*
X018998Y012275D01*
X018927Y012434D02*
X019161Y012434D01*
X020018Y011324D02*
X020983Y011324D01*
X020983Y011166D02*
X020860Y011166D01*
X020577Y010532D02*
X020540Y010532D01*
X020540Y010373D02*
X020577Y010373D01*
X020577Y010215D02*
X020540Y010215D01*
X020887Y010215D02*
X020983Y010215D01*
X020983Y007203D02*
X020837Y007203D01*
X020983Y004984D02*
X001818Y004984D01*
X001818Y004826D02*
X020983Y004826D01*
X020983Y004667D02*
X001818Y004667D01*
X001818Y004509D02*
X020983Y004509D01*
X020983Y004350D02*
X019404Y004350D01*
X019609Y004192D02*
X020983Y004192D01*
X020983Y004033D02*
X019725Y004033D01*
X019791Y003875D02*
X020983Y003875D01*
X020983Y003716D02*
X019809Y003716D01*
X019809Y003558D02*
X020983Y003558D01*
X020983Y003399D02*
X019755Y003399D01*
X019681Y003241D02*
X020983Y003241D01*
X020983Y003082D02*
X019523Y003082D01*
X019345Y002765D02*
X020983Y002765D01*
X020983Y002607D02*
X019489Y002607D01*
X018771Y002765D02*
X016998Y002765D01*
X016937Y002924D02*
X020983Y002924D01*
X018561Y002290D02*
X016790Y002290D01*
X016338Y003082D02*
X014523Y003082D01*
X011287Y005301D02*
X009445Y005301D01*
X009531Y005460D02*
X011128Y005460D01*
X011098Y005618D02*
X009555Y005618D01*
X009530Y005777D02*
X011098Y005777D01*
X011163Y005935D02*
X009443Y005935D01*
X011112Y007520D02*
X007544Y007520D01*
X007703Y007679D02*
X011213Y007679D01*
X011248Y007996D02*
X008996Y007996D01*
X008998Y008154D02*
X011022Y008154D01*
X010897Y008313D02*
X008998Y008313D01*
X008889Y008471D02*
X010832Y008471D01*
X010807Y008630D02*
X008338Y008630D01*
X008338Y008788D02*
X010807Y008788D01*
X010856Y008947D02*
X008338Y008947D01*
X008338Y009105D02*
X010921Y009105D01*
X011079Y009264D02*
X009542Y009264D01*
X009074Y009264D02*
X008338Y009264D01*
X008338Y009422D02*
X008916Y009422D01*
X008848Y009581D02*
X008338Y009581D01*
X008338Y009739D02*
X008848Y009739D01*
X008875Y009898D02*
X008338Y009898D01*
X008338Y010056D02*
X009034Y010056D01*
X007778Y009422D02*
X006966Y009422D01*
X007125Y009264D02*
X007778Y009264D01*
X007778Y009105D02*
X007283Y009105D01*
X007371Y008947D02*
X007778Y008947D01*
X007778Y008788D02*
X007371Y008788D01*
X007371Y008471D02*
X007703Y008471D01*
X007778Y008630D02*
X006638Y008630D01*
X006638Y008788D02*
X006478Y008788D01*
X006478Y008947D02*
X006638Y008947D01*
X006638Y009105D02*
X006478Y009105D01*
X006478Y009264D02*
X006638Y009264D01*
X006638Y009422D02*
X006478Y009422D01*
X007341Y008313D02*
X007545Y008313D01*
X007386Y008154D02*
X007182Y008154D01*
X007228Y007996D02*
X007024Y007996D01*
X007861Y007837D02*
X008279Y007837D01*
X008120Y007996D02*
X008020Y007996D01*
X008558Y007996D02*
X008558Y007996D01*
X008558Y008154D02*
X008558Y008154D01*
X008558Y008180D02*
X008558Y008180D01*
X008558Y008313D02*
X008558Y008313D01*
X008558Y008471D02*
X008558Y008471D01*
X008558Y007837D02*
X008558Y007837D01*
X008558Y011800D02*
X008558Y011800D01*
X008558Y011958D02*
X008558Y011958D01*
X008558Y012117D02*
X008558Y012117D01*
X008558Y012180D02*
X008558Y012180D01*
X008558Y012275D02*
X008558Y012275D01*
X008558Y012434D02*
X008558Y012434D01*
X008558Y012592D02*
X008558Y012592D01*
X008598Y012751D02*
X008338Y012751D01*
X008338Y012909D02*
X008598Y012909D01*
X008598Y013068D02*
X008338Y013068D01*
X008338Y013226D02*
X008704Y013226D01*
X008862Y013385D02*
X008338Y013385D01*
X008338Y012592D02*
X008348Y012592D01*
X010088Y013860D02*
X010745Y013860D01*
X010747Y014019D02*
X010088Y014019D01*
X010088Y014177D02*
X010905Y014177D01*
X006769Y014177D02*
X006588Y014177D01*
X006028Y014336D02*
X004923Y014336D01*
X004848Y014177D02*
X005532Y014177D01*
X005488Y014019D02*
X005026Y014019D01*
X005101Y013860D02*
X005488Y013860D01*
X005488Y013702D02*
X005128Y013702D01*
X005118Y013543D02*
X005488Y013543D01*
X005488Y013385D02*
X005053Y013385D01*
X004910Y013226D02*
X005489Y013226D01*
X004206Y013226D02*
X004088Y013226D01*
X005068Y014494D02*
X006028Y014494D01*
X006028Y014653D02*
X005134Y014653D01*
X005148Y014811D02*
X005277Y014811D01*
X005098Y015128D02*
X005063Y015128D01*
X005098Y015287D02*
X004911Y015287D01*
X005840Y014811D02*
X006028Y014811D01*
X006028Y014970D02*
X005998Y014970D01*
X006018Y015128D02*
X006028Y015128D01*
X006018Y015287D02*
X006028Y015287D01*
X006028Y015445D02*
X005944Y015445D01*
X005918Y015604D02*
X006028Y015604D01*
X006028Y015762D02*
X005918Y015762D01*
X005949Y015921D02*
X006028Y015921D01*
X006018Y016079D02*
X006028Y016079D01*
X006018Y016238D02*
X006028Y016238D01*
X006028Y016396D02*
X005993Y016396D01*
X006028Y016555D02*
X005834Y016555D01*
X003433Y016180D02*
X003308Y016180D01*
X003032Y016555D02*
X002556Y016555D01*
X002714Y016396D02*
X002874Y016396D01*
X002848Y016238D02*
X002748Y016238D01*
X002748Y016079D02*
X002848Y016079D01*
X002917Y015921D02*
X002671Y015921D01*
X002513Y015762D02*
X003076Y015762D01*
X001945Y015921D02*
X001818Y015921D01*
X001818Y016079D02*
X001868Y016079D01*
X001868Y016238D02*
X001818Y016238D01*
X001818Y016396D02*
X001902Y016396D01*
X002308Y024480D02*
X002308Y024480D01*
X001818Y002765D02*
X003771Y002765D01*
X003627Y002607D02*
X001818Y002607D01*
X001818Y002131D02*
X003611Y002131D01*
X003561Y002250D02*
X003561Y002448D01*
X003732Y001973D02*
X001818Y001973D01*
X001818Y001814D02*
X003686Y001814D01*
X003603Y001656D02*
X001818Y001656D01*
X001815Y001497D02*
X004040Y001497D01*
X003614Y001339D02*
X001876Y001339D01*
D26*
X008558Y014430D03*
X006308Y017180D03*
X015058Y023930D03*
X019058Y022930D03*
X016058Y030430D03*
D27*
X013308Y028180D02*
X012808Y028180D01*
X011808Y029180D01*
X010308Y029180D01*
X005558Y016180D02*
X005558Y015180D01*
X003108Y014155D02*
X002108Y014155D01*
X002108Y013155D02*
X003108Y013155D01*
X003108Y007155D02*
X002108Y007155D01*
D28*
X008658Y024230D02*
X009358Y024930D01*
X009358Y025855D01*
X009683Y026180D01*
X010308Y026180D01*
X010308Y027180D02*
X009608Y027180D01*
X008658Y026230D01*
M02*
