G75*
G70*
%OFA0B0*%
%FSLAX24Y24*%
%IPPOS*%
%LPD*%
%AMOC8*
5,1,8,0,0,1.08239X$1,22.5*
%
%ADD10C,0.0120*%
%ADD11C,0.0560*%
%ADD12C,0.0740*%
%ADD13OC8,0.0560*%
%ADD14C,0.0780*%
%ADD15OC8,0.1422*%
%ADD16C,0.0760*%
%ADD17OC8,0.1107*%
%ADD18OC8,0.0740*%
%ADD19OC8,0.1186*%
%ADD20C,0.0750*%
%ADD21OC8,0.0750*%
%ADD22OC8,0.1240*%
%ADD23C,0.0160*%
%ADD24C,0.0356*%
%ADD25C,0.0320*%
%ADD26C,0.0240*%
%ADD27R,0.0356X0.0356*%
D10*
X002055Y000305D02*
X039905Y000305D01*
X039954Y000308D01*
X040003Y000315D01*
X040051Y000325D01*
X040099Y000339D01*
X040145Y000356D01*
X040190Y000377D01*
X040233Y000401D01*
X040274Y000428D01*
X040313Y000458D01*
X040350Y000492D01*
X040384Y000527D01*
X040415Y000565D01*
X040444Y000606D01*
X040469Y000648D01*
X040491Y000692D01*
X040510Y000738D01*
X040525Y000785D01*
X040537Y000833D01*
X040545Y000881D01*
X040549Y000931D01*
X040550Y000980D01*
X040550Y019355D01*
X040549Y019410D01*
X040544Y019465D01*
X040536Y019520D01*
X040524Y019574D01*
X040508Y019627D01*
X040489Y019679D01*
X040466Y019729D01*
X040440Y019778D01*
X040410Y019825D01*
X040378Y019869D01*
X040342Y019912D01*
X040304Y019952D01*
X040263Y019989D01*
X040219Y020023D01*
X040174Y020054D01*
X040126Y020082D01*
X040076Y020107D01*
X040025Y020128D01*
X039973Y020146D01*
X039919Y020160D01*
X039865Y020170D01*
X039810Y020177D01*
X039755Y020180D01*
X002180Y020180D01*
X002120Y020178D01*
X002059Y020173D01*
X002000Y020164D01*
X001941Y020151D01*
X001882Y020135D01*
X001825Y020115D01*
X001770Y020092D01*
X001715Y020065D01*
X001663Y020036D01*
X001612Y020003D01*
X001563Y019967D01*
X001517Y019929D01*
X001473Y019887D01*
X001431Y019843D01*
X001393Y019797D01*
X001357Y019748D01*
X001324Y019697D01*
X001295Y019645D01*
X001268Y019590D01*
X001245Y019535D01*
X001225Y019478D01*
X001209Y019419D01*
X001196Y019360D01*
X001187Y019301D01*
X001182Y019240D01*
X001180Y019180D01*
X001180Y001180D01*
X001182Y001123D01*
X001187Y001066D01*
X001197Y001009D01*
X001210Y000954D01*
X001226Y000899D01*
X001247Y000845D01*
X001270Y000793D01*
X001297Y000743D01*
X001327Y000694D01*
X001361Y000647D01*
X001397Y000603D01*
X001436Y000561D01*
X001478Y000522D01*
X001522Y000486D01*
X001569Y000452D01*
X001617Y000422D01*
X001668Y000395D01*
X001720Y000372D01*
X001774Y000351D01*
X001829Y000335D01*
X001884Y000322D01*
X001941Y000312D01*
X001998Y000307D01*
X002055Y000305D01*
D11*
X022180Y008150D02*
X022180Y008710D01*
X023180Y008710D02*
X023180Y008150D01*
X024180Y008150D02*
X024180Y008710D01*
X025180Y008710D02*
X025180Y008150D01*
X026180Y008150D02*
X026180Y008710D01*
X027180Y008710D02*
X027180Y008150D01*
X028180Y008150D02*
X028180Y008710D01*
X029180Y008710D02*
X029180Y008150D01*
X030180Y008150D02*
X030180Y008710D01*
X031180Y008710D02*
X031180Y008150D01*
X032180Y008150D02*
X032180Y008710D01*
X033180Y008710D02*
X033180Y008150D01*
X034180Y008150D02*
X034180Y008710D01*
X035180Y008710D02*
X035180Y008150D01*
X035180Y011150D02*
X035180Y011710D01*
X034180Y011710D02*
X034180Y011150D01*
X033180Y011150D02*
X033180Y011710D01*
X032180Y011710D02*
X032180Y011150D01*
X031180Y011150D02*
X031180Y011710D01*
X030180Y011710D02*
X030180Y011150D01*
X029180Y011150D02*
X029180Y011710D01*
X028180Y011710D02*
X028180Y011150D01*
X027180Y011150D02*
X027180Y011710D01*
X026180Y011710D02*
X026180Y011150D01*
X025180Y011150D02*
X025180Y011710D01*
X024180Y011710D02*
X024180Y011150D01*
X023180Y011150D02*
X023180Y011710D01*
X022180Y011710D02*
X022180Y011150D01*
D12*
X018680Y010680D03*
X018680Y009680D03*
X024230Y013330D03*
X025230Y013330D03*
X026230Y013330D03*
X032180Y018680D03*
X033180Y018680D03*
X034180Y018680D03*
X035180Y018680D03*
X036180Y018680D03*
X037180Y018680D03*
X014180Y017180D03*
X012180Y017180D03*
X013680Y015680D03*
X013680Y014680D03*
X009180Y017180D03*
X007180Y017180D03*
X013680Y005680D03*
X013680Y004680D03*
D13*
X015180Y003680D03*
X012180Y002680D03*
X011430Y003180D03*
X009680Y003180D03*
X009680Y002180D03*
X011430Y002180D03*
X013930Y002180D03*
X016930Y002180D03*
X015180Y006680D03*
X012930Y007680D03*
X012180Y007180D03*
X010680Y007180D03*
X009930Y007180D03*
X012180Y008180D03*
X013680Y008180D03*
X016680Y008180D03*
X017405Y006755D03*
X017405Y009755D03*
X012180Y012430D03*
X011180Y012430D03*
X011680Y013180D03*
X012680Y013180D03*
X015180Y013180D03*
X016180Y013180D03*
X017180Y013180D03*
X017180Y016180D03*
X016180Y016180D03*
X015180Y016180D03*
X012680Y016180D03*
X015180Y018430D03*
X015180Y019430D03*
X018180Y019430D03*
X019180Y019430D03*
X019930Y018930D03*
X019180Y018430D03*
X018180Y018430D03*
X009430Y013180D03*
X006430Y013180D03*
X005430Y010430D03*
X002430Y010430D03*
X006930Y007180D03*
X005430Y005430D03*
X002430Y005430D03*
X006680Y003180D03*
X006680Y002180D03*
X010680Y010180D03*
X024655Y007180D03*
X026655Y007180D03*
X036430Y008430D03*
X036430Y011430D03*
X037180Y011430D03*
X039180Y011430D03*
D14*
X019180Y017180D03*
X015180Y017180D03*
X010680Y000930D03*
X006680Y000930D03*
D15*
X005412Y002286D03*
X002223Y002326D03*
X003129Y004176D03*
X002223Y007326D03*
X005412Y007286D03*
X009034Y008723D03*
X007184Y009629D03*
X003129Y009176D03*
X009074Y011912D03*
X005412Y012286D03*
X002223Y012326D03*
X003129Y014176D03*
X005412Y017286D03*
X002223Y017326D03*
X003129Y019176D03*
D16*
X018227Y016164D03*
X018227Y015180D03*
X018227Y014196D03*
X025727Y014196D03*
X025727Y015180D03*
X025727Y016164D03*
X033227Y016164D03*
X033227Y015180D03*
X033227Y014196D03*
X033227Y006164D03*
X033227Y005180D03*
X033227Y004196D03*
X025727Y004196D03*
X025727Y005180D03*
X025727Y006164D03*
X018227Y006164D03*
X018227Y005180D03*
X018227Y004196D03*
D17*
X021180Y003408D03*
X028680Y003408D03*
X028680Y006952D03*
X021180Y006952D03*
X021180Y013408D03*
X028680Y013408D03*
X028680Y016952D03*
X021180Y016952D03*
X036180Y016952D03*
X036180Y013408D03*
X036180Y006952D03*
X036180Y003408D03*
D18*
X014155Y018630D03*
X013155Y018630D03*
X012155Y018630D03*
X011155Y018630D03*
X010155Y018630D03*
X009155Y018630D03*
X008155Y018630D03*
X007155Y018630D03*
X007155Y019630D03*
X008155Y019630D03*
X009155Y019630D03*
X010155Y019630D03*
X011155Y019630D03*
X012155Y019630D03*
X013155Y019630D03*
X014155Y019630D03*
D19*
X010530Y015180D03*
X008680Y015180D03*
X006830Y015180D03*
X011830Y010180D03*
X013680Y010180D03*
X015530Y010180D03*
X010530Y005180D03*
X008680Y005180D03*
X006830Y005180D03*
D20*
X023680Y017430D03*
D21*
X023680Y019430D03*
D22*
X039430Y019180D03*
D23*
X001620Y000745D02*
X001507Y000901D01*
X001448Y001084D01*
X001440Y001180D01*
X001440Y001849D01*
X001854Y001434D01*
X002143Y001434D01*
X002143Y002246D01*
X002303Y002246D01*
X002303Y002406D01*
X002143Y002406D01*
X002143Y003217D01*
X001854Y003217D01*
X001440Y002803D01*
X001440Y006849D01*
X001854Y006434D01*
X002143Y006434D01*
X002143Y007246D01*
X002303Y007246D01*
X002303Y007406D01*
X002143Y007406D01*
X002143Y008217D01*
X001854Y008217D01*
X001440Y007803D01*
X001440Y011849D01*
X001854Y011434D01*
X002143Y011434D01*
X002143Y012246D01*
X002303Y012246D01*
X002303Y012406D01*
X002143Y012406D01*
X002143Y013217D01*
X001854Y013217D01*
X001440Y012803D01*
X001440Y016849D01*
X001854Y016434D01*
X002143Y016434D01*
X002143Y017246D01*
X002303Y017246D01*
X002303Y017406D01*
X002143Y017406D01*
X002143Y018217D01*
X001854Y018217D01*
X001440Y017803D01*
X001440Y019180D01*
X001449Y019296D01*
X001521Y019516D01*
X001657Y019703D01*
X001844Y019839D01*
X002064Y019911D01*
X002180Y019920D01*
X002584Y019920D01*
X002218Y019553D01*
X002218Y018799D01*
X002751Y018265D01*
X003506Y018265D01*
X004040Y018799D01*
X004040Y019553D01*
X003673Y019920D01*
X006639Y019920D01*
X006585Y019866D01*
X006585Y019394D01*
X006795Y019184D01*
X006795Y019076D01*
X006585Y018866D01*
X006585Y018394D01*
X006769Y018210D01*
X005889Y018210D01*
X005810Y018177D01*
X005790Y018197D01*
X005035Y018197D01*
X004501Y017664D01*
X004501Y016909D01*
X005035Y016375D01*
X005790Y016375D01*
X006323Y016909D01*
X006323Y017650D01*
X006844Y017650D01*
X006697Y017503D01*
X006610Y017293D01*
X006610Y017067D01*
X006697Y016857D01*
X006857Y016697D01*
X007067Y016610D01*
X007293Y016610D01*
X007503Y016697D01*
X007663Y016857D01*
X007750Y017067D01*
X007750Y017293D01*
X007663Y017503D01*
X007516Y017650D01*
X008844Y017650D01*
X008697Y017503D01*
X008610Y017293D01*
X008610Y017067D01*
X008697Y016857D01*
X008857Y016697D01*
X009067Y016610D01*
X009293Y016610D01*
X009503Y016697D01*
X009663Y016857D01*
X009750Y017067D01*
X009750Y017293D01*
X009663Y017503D01*
X009516Y017650D01*
X011844Y017650D01*
X011697Y017503D01*
X011610Y017293D01*
X011610Y017067D01*
X011697Y016857D01*
X011857Y016697D01*
X012067Y016610D01*
X012293Y016610D01*
X012503Y016697D01*
X012663Y016857D01*
X012750Y017067D01*
X012750Y017293D01*
X012663Y017503D01*
X012516Y017650D01*
X013844Y017650D01*
X013697Y017503D01*
X013610Y017293D01*
X013610Y017067D01*
X013697Y016857D01*
X013857Y016697D01*
X014067Y016610D01*
X014293Y016610D01*
X014503Y016697D01*
X014663Y016857D01*
X014669Y016871D01*
X014680Y016846D01*
X014846Y016680D01*
X014956Y016634D01*
X014700Y016379D01*
X014700Y015981D01*
X014981Y015700D01*
X015379Y015700D01*
X015660Y015981D01*
X015660Y016379D01*
X015404Y016634D01*
X015514Y016680D01*
X015680Y016846D01*
X015770Y017063D01*
X015770Y017297D01*
X015680Y017514D01*
X015514Y017680D01*
X015297Y017770D01*
X015166Y017770D01*
X015339Y017943D01*
X015346Y017950D01*
X015379Y017950D01*
X015660Y018231D01*
X015660Y018629D01*
X015379Y018910D01*
X014981Y018910D01*
X014725Y018654D01*
X014725Y018866D01*
X014515Y019076D01*
X014515Y019184D01*
X014720Y019389D01*
X014720Y019239D01*
X014989Y018970D01*
X015180Y018970D01*
X015371Y018970D01*
X015640Y019239D01*
X015640Y019430D01*
X015640Y019621D01*
X015371Y019890D01*
X015180Y019890D01*
X015180Y019430D01*
X015180Y019430D01*
X015640Y019430D01*
X015180Y019430D01*
X015180Y019430D01*
X015180Y019890D01*
X014989Y019890D01*
X014725Y019626D01*
X014725Y019866D01*
X014671Y019920D01*
X023385Y019920D01*
X023125Y019660D01*
X023125Y019430D01*
X023680Y019430D01*
X024235Y019430D01*
X024235Y019660D01*
X023975Y019920D01*
X039010Y019920D01*
X038610Y019520D01*
X038610Y018840D01*
X039090Y018360D01*
X039770Y018360D01*
X040250Y018840D01*
X040250Y019520D01*
X039870Y019900D01*
X039999Y019855D01*
X040136Y019752D01*
X040235Y019611D01*
X040285Y019446D01*
X040290Y019361D01*
X040290Y019357D01*
X040289Y019308D01*
X040290Y019306D01*
X040290Y001029D01*
X040289Y001026D01*
X040290Y000977D01*
X040290Y000973D01*
X040287Y000911D01*
X040251Y000791D01*
X040179Y000689D01*
X040080Y000613D01*
X039962Y000571D01*
X039900Y000565D01*
X011119Y000565D01*
X011168Y000631D01*
X011208Y000711D01*
X011236Y000797D01*
X011250Y000885D01*
X011250Y000912D01*
X010698Y000912D01*
X010698Y000948D01*
X010662Y000948D01*
X010662Y000912D01*
X010110Y000912D01*
X010110Y000885D01*
X010124Y000797D01*
X010152Y000711D01*
X010192Y000631D01*
X010241Y000565D01*
X007149Y000565D01*
X007180Y000596D01*
X007270Y000813D01*
X007270Y001047D01*
X007180Y001264D01*
X007014Y001430D01*
X006797Y001520D01*
X006563Y001520D01*
X006346Y001430D01*
X006180Y001264D01*
X006090Y001047D01*
X006090Y000813D01*
X006180Y000596D01*
X006211Y000565D01*
X002055Y000565D01*
X001959Y000573D01*
X001776Y000632D01*
X001620Y000745D01*
X001570Y000814D02*
X006090Y000814D01*
X006090Y000973D02*
X001484Y000973D01*
X001444Y001131D02*
X006125Y001131D01*
X006205Y001290D02*
X001440Y001290D01*
X001440Y001448D02*
X001841Y001448D01*
X001682Y001607D02*
X001440Y001607D01*
X001440Y001765D02*
X001524Y001765D01*
X002143Y001765D02*
X002303Y001765D01*
X002303Y001607D02*
X002143Y001607D01*
X002143Y001448D02*
X002303Y001448D01*
X002303Y001434D02*
X002592Y001434D01*
X003114Y001957D01*
X003114Y002246D01*
X002303Y002246D01*
X002303Y001434D01*
X002606Y001448D02*
X004962Y001448D01*
X005035Y001375D02*
X005790Y001375D01*
X006298Y001883D01*
X006481Y001700D01*
X006879Y001700D01*
X007160Y001981D01*
X007160Y002379D01*
X006879Y002660D01*
X006481Y002660D01*
X006323Y002502D01*
X006323Y002664D01*
X005790Y003197D01*
X005035Y003197D01*
X004501Y002664D01*
X004501Y001909D01*
X005035Y001375D01*
X004803Y001607D02*
X002764Y001607D01*
X002923Y001765D02*
X004645Y001765D01*
X004501Y001924D02*
X003081Y001924D01*
X003114Y002082D02*
X004501Y002082D01*
X004501Y002241D02*
X003114Y002241D01*
X003114Y002406D02*
X003114Y002695D01*
X002592Y003217D01*
X002303Y003217D01*
X002303Y002406D01*
X003114Y002406D01*
X003114Y002558D02*
X004501Y002558D01*
X004501Y002399D02*
X002303Y002399D01*
X002303Y002241D02*
X002143Y002241D01*
X002143Y002082D02*
X002303Y002082D01*
X002303Y001924D02*
X002143Y001924D01*
X002143Y002558D02*
X002303Y002558D01*
X002303Y002716D02*
X002143Y002716D01*
X002143Y002875D02*
X002303Y002875D01*
X002303Y003033D02*
X002143Y003033D01*
X002143Y003192D02*
X002303Y003192D01*
X002618Y003192D02*
X005029Y003192D01*
X004870Y003033D02*
X002776Y003033D01*
X002935Y002875D02*
X004712Y002875D01*
X004553Y002716D02*
X003093Y002716D01*
X002751Y003265D02*
X003506Y003265D01*
X004040Y003799D01*
X004040Y004553D01*
X003506Y005087D01*
X002751Y005087D01*
X002218Y004553D01*
X002218Y003799D01*
X002751Y003265D01*
X002666Y003350D02*
X001440Y003350D01*
X001440Y003192D02*
X001829Y003192D01*
X001670Y003033D02*
X001440Y003033D01*
X001440Y002875D02*
X001512Y002875D01*
X001440Y003509D02*
X002508Y003509D01*
X002349Y003667D02*
X001440Y003667D01*
X001440Y003826D02*
X002218Y003826D01*
X002218Y003984D02*
X001440Y003984D01*
X001440Y004143D02*
X002218Y004143D01*
X002218Y004301D02*
X001440Y004301D01*
X001440Y004460D02*
X002218Y004460D01*
X002282Y004618D02*
X001440Y004618D01*
X001440Y004777D02*
X002441Y004777D01*
X002430Y004970D02*
X002621Y004970D01*
X002890Y005239D01*
X002890Y005430D01*
X002890Y005621D01*
X002621Y005890D01*
X002430Y005890D01*
X002430Y005430D01*
X002890Y005430D01*
X002430Y005430D01*
X002430Y005430D01*
X002430Y005430D01*
X002430Y004970D01*
X002430Y005430D01*
X002430Y005430D01*
X002430Y005430D01*
X001970Y005430D01*
X001970Y005621D01*
X002239Y005890D01*
X002430Y005890D01*
X002430Y005430D01*
X001970Y005430D01*
X001970Y005239D01*
X002239Y004970D01*
X002430Y004970D01*
X002430Y005094D02*
X002430Y005094D01*
X002430Y005252D02*
X002430Y005252D01*
X002430Y005411D02*
X002430Y005411D01*
X002430Y005569D02*
X002430Y005569D01*
X002430Y005728D02*
X002430Y005728D01*
X002430Y005886D02*
X002430Y005886D01*
X002625Y005886D02*
X005207Y005886D01*
X005231Y005910D02*
X004950Y005629D01*
X004950Y005231D01*
X005231Y004950D01*
X005629Y004950D01*
X005910Y005231D01*
X005910Y005629D01*
X005629Y005910D01*
X005231Y005910D01*
X005049Y005728D02*
X002783Y005728D01*
X002890Y005569D02*
X004950Y005569D01*
X004950Y005411D02*
X002890Y005411D01*
X002890Y005252D02*
X004950Y005252D01*
X005088Y005094D02*
X002744Y005094D01*
X002599Y004935D02*
X001440Y004935D01*
X001440Y005094D02*
X002116Y005094D01*
X001970Y005252D02*
X001440Y005252D01*
X001440Y005411D02*
X001970Y005411D01*
X001970Y005569D02*
X001440Y005569D01*
X001440Y005728D02*
X002077Y005728D01*
X002235Y005886D02*
X001440Y005886D01*
X001440Y006045D02*
X011899Y006045D01*
X012057Y006203D02*
X001440Y006203D01*
X001440Y006362D02*
X012216Y006362D01*
X012374Y006520D02*
X005935Y006520D01*
X005790Y006375D02*
X006323Y006909D01*
X006323Y007664D01*
X005790Y008197D01*
X005035Y008197D01*
X004501Y007664D01*
X004501Y006909D01*
X005035Y006375D01*
X005790Y006375D01*
X006093Y006679D02*
X012533Y006679D01*
X012379Y006700D02*
X012660Y006981D01*
X012660Y007271D01*
X012731Y007200D01*
X013054Y007200D01*
X011323Y005469D01*
X011323Y005508D01*
X010858Y005973D01*
X010201Y005973D01*
X009737Y005508D01*
X009737Y004851D01*
X010128Y004460D01*
X009053Y004460D01*
X009453Y004860D01*
X009453Y005100D01*
X008760Y005100D01*
X008760Y005260D01*
X008600Y005260D01*
X008600Y005953D01*
X008360Y005953D01*
X007907Y005500D01*
X007907Y005260D01*
X008600Y005260D01*
X008600Y005100D01*
X007907Y005100D01*
X007907Y004860D01*
X008307Y004460D01*
X007546Y004460D01*
X007389Y004617D01*
X007623Y004851D01*
X007623Y005508D01*
X007158Y005973D01*
X006501Y005973D01*
X006037Y005508D01*
X006037Y004851D01*
X006501Y004387D01*
X006827Y004387D01*
X007271Y003943D01*
X007374Y003900D01*
X010986Y003900D01*
X011089Y003943D01*
X011167Y004021D01*
X011167Y004021D01*
X014296Y007150D01*
X014971Y007150D01*
X014700Y006879D01*
X014700Y006481D01*
X014981Y006200D01*
X015379Y006200D01*
X015660Y006481D01*
X015660Y006879D01*
X015389Y007150D01*
X017149Y007150D01*
X016945Y006946D01*
X016945Y006755D01*
X017405Y006755D01*
X017865Y006755D01*
X017865Y006946D01*
X017661Y007150D01*
X018986Y007150D01*
X019089Y007193D01*
X020796Y008900D01*
X021739Y008900D01*
X021700Y008805D01*
X021700Y008055D01*
X021773Y007878D01*
X021908Y007743D01*
X022085Y007670D01*
X022275Y007670D01*
X022400Y007722D01*
X022400Y003296D01*
X021564Y002460D01*
X017329Y002460D01*
X017129Y002660D01*
X016731Y002660D01*
X016450Y002379D01*
X016450Y001981D01*
X016471Y001960D01*
X016046Y001960D01*
X013960Y004046D01*
X013960Y004179D01*
X014003Y004197D01*
X014163Y004357D01*
X014250Y004567D01*
X014250Y004793D01*
X014163Y005003D01*
X014003Y005163D01*
X013962Y005180D01*
X014003Y005197D01*
X014163Y005357D01*
X014250Y005567D01*
X014250Y005793D01*
X014163Y006003D01*
X014003Y006163D01*
X013793Y006250D01*
X013567Y006250D01*
X013357Y006163D01*
X013197Y006003D01*
X013110Y005793D01*
X013110Y005567D01*
X013197Y005357D01*
X013357Y005197D01*
X013398Y005180D01*
X013357Y005163D01*
X013197Y005003D01*
X013110Y004793D01*
X013110Y004567D01*
X013197Y004357D01*
X013357Y004197D01*
X013400Y004179D01*
X013400Y003874D01*
X013443Y003771D01*
X015693Y001521D01*
X015771Y001443D01*
X015874Y001400D01*
X021986Y001400D01*
X022089Y001443D01*
X023339Y002693D01*
X023417Y002771D01*
X023460Y002874D01*
X023460Y006314D01*
X024195Y007049D01*
X024195Y006989D01*
X024464Y006720D01*
X024655Y006720D01*
X024846Y006720D01*
X025115Y006989D01*
X025115Y007180D01*
X025115Y007371D01*
X024846Y007640D01*
X024655Y007640D01*
X024655Y007180D01*
X024655Y007180D01*
X025115Y007180D01*
X024655Y007180D01*
X024655Y007180D01*
X024655Y007640D01*
X024464Y007640D01*
X024460Y007636D01*
X024460Y007751D01*
X024587Y007878D01*
X024660Y008055D01*
X024660Y008805D01*
X024587Y008982D01*
X024452Y009117D01*
X024275Y009190D01*
X024085Y009190D01*
X023908Y009117D01*
X023773Y008982D01*
X023700Y008805D01*
X023700Y008055D01*
X023773Y007878D01*
X023900Y007751D01*
X023900Y007546D01*
X022960Y006606D01*
X022960Y007722D01*
X023085Y007670D01*
X023275Y007670D01*
X023452Y007743D01*
X023587Y007878D01*
X023660Y008055D01*
X023660Y008805D01*
X023599Y008953D01*
X023667Y009021D01*
X023667Y009021D01*
X024339Y009693D01*
X024417Y009771D01*
X024460Y009874D01*
X024460Y010751D01*
X024587Y010878D01*
X024660Y011055D01*
X024660Y011804D01*
X024700Y011764D01*
X024700Y011055D01*
X024773Y010878D01*
X024908Y010743D01*
X025085Y010670D01*
X025275Y010670D01*
X025452Y010743D01*
X025587Y010878D01*
X025660Y011055D01*
X025660Y011805D01*
X025587Y011982D01*
X025452Y012117D01*
X025288Y012185D01*
X025597Y012185D01*
X025787Y011996D01*
X025773Y011982D01*
X025700Y011805D01*
X025700Y011055D01*
X025773Y010878D01*
X025908Y010743D01*
X026085Y010670D01*
X026275Y010670D01*
X026452Y010743D01*
X026587Y010878D01*
X026660Y011055D01*
X026660Y011805D01*
X026587Y011982D01*
X026500Y012069D01*
X026500Y012119D01*
X026451Y012236D01*
X026001Y012686D01*
X025911Y012776D01*
X025794Y012825D01*
X025450Y012825D01*
X025518Y012860D01*
X025588Y012910D01*
X025650Y012972D01*
X025700Y013042D01*
X025718Y013076D01*
X025747Y013007D01*
X025907Y012847D01*
X026117Y012760D01*
X026343Y012760D01*
X026346Y012761D01*
X026860Y012247D01*
X026860Y012069D01*
X026773Y011982D01*
X026700Y011805D01*
X026700Y011055D01*
X026773Y010878D01*
X026908Y010743D01*
X027085Y010670D01*
X027275Y010670D01*
X027452Y010743D01*
X027587Y010878D01*
X027660Y011055D01*
X027660Y011805D01*
X027587Y011982D01*
X027500Y012069D01*
X027500Y012444D01*
X027451Y012561D01*
X026799Y013214D01*
X026800Y013217D01*
X026800Y013443D01*
X026713Y013653D01*
X026553Y013813D01*
X026343Y013900D01*
X026205Y013900D01*
X026206Y013902D01*
X026246Y013981D01*
X026273Y014065D01*
X026287Y014152D01*
X026287Y014177D01*
X025746Y014177D01*
X025746Y014214D01*
X026287Y014214D01*
X026287Y014240D01*
X026273Y014327D01*
X026246Y014411D01*
X026206Y014489D01*
X026154Y014561D01*
X026092Y014623D01*
X026022Y014674D01*
X026056Y014688D01*
X026219Y014851D01*
X026307Y015065D01*
X026307Y015295D01*
X026219Y015509D01*
X026056Y015672D01*
X026055Y015672D01*
X026056Y015673D01*
X026219Y015836D01*
X026307Y016049D01*
X026307Y016280D01*
X026219Y016493D01*
X026062Y016650D01*
X026564Y016650D01*
X026900Y016314D01*
X026900Y014874D01*
X026943Y014771D01*
X027021Y014693D01*
X027271Y014443D01*
X027374Y014400D01*
X029814Y014400D01*
X030400Y013814D01*
X030400Y012138D01*
X030275Y012190D01*
X030085Y012190D01*
X029908Y012117D01*
X029773Y011982D01*
X029700Y011805D01*
X029700Y011055D01*
X029773Y010878D01*
X029908Y010743D01*
X030085Y010670D01*
X030275Y010670D01*
X030400Y010722D01*
X030400Y010546D01*
X029943Y010089D01*
X029900Y009986D01*
X029900Y009109D01*
X029773Y008982D01*
X029700Y008805D01*
X029700Y008055D01*
X029773Y007878D01*
X029908Y007743D01*
X030085Y007670D01*
X030274Y007670D01*
X030193Y007589D01*
X030150Y007486D01*
X030150Y005935D01*
X030109Y005894D01*
X030052Y005755D01*
X030052Y005605D01*
X030109Y005466D01*
X030115Y005460D01*
X026239Y005460D01*
X026219Y005509D01*
X026056Y005672D01*
X026055Y005672D01*
X026056Y005673D01*
X026219Y005836D01*
X026307Y006049D01*
X026307Y006280D01*
X026219Y006493D01*
X026056Y006656D01*
X025843Y006744D01*
X025612Y006744D01*
X025399Y006656D01*
X025236Y006493D01*
X025147Y006280D01*
X025147Y006049D01*
X025236Y005836D01*
X025399Y005673D01*
X025400Y005672D01*
X025399Y005672D01*
X025236Y005509D01*
X025147Y005295D01*
X025147Y005065D01*
X025236Y004851D01*
X025399Y004688D01*
X025433Y004674D01*
X025362Y004623D01*
X025300Y004561D01*
X025248Y004489D01*
X025208Y004411D01*
X025181Y004327D01*
X025167Y004240D01*
X025167Y004214D01*
X025709Y004214D01*
X025709Y004177D01*
X025746Y004177D01*
X025746Y004214D01*
X026287Y004214D01*
X026287Y004240D01*
X026273Y004327D01*
X026246Y004411D01*
X026206Y004489D01*
X026154Y004561D01*
X026092Y004623D01*
X026022Y004674D01*
X026056Y004688D01*
X026219Y004851D01*
X026239Y004900D01*
X031236Y004900D01*
X031339Y004943D01*
X032339Y005943D01*
X032417Y006021D01*
X032460Y006124D01*
X032460Y007064D01*
X033071Y007675D01*
X033085Y007670D01*
X033275Y007670D01*
X033452Y007743D01*
X033587Y007878D01*
X033660Y008055D01*
X033660Y008805D01*
X033587Y008982D01*
X033452Y009117D01*
X033275Y009190D01*
X033085Y009190D01*
X032908Y009117D01*
X032773Y008982D01*
X032700Y008805D01*
X032700Y008096D01*
X032660Y008056D01*
X032660Y008805D01*
X032587Y008982D01*
X032452Y009117D01*
X032275Y009190D01*
X032085Y009190D01*
X031908Y009117D01*
X031773Y008982D01*
X031700Y008805D01*
X031700Y008055D01*
X031773Y007878D01*
X031908Y007743D01*
X032085Y007670D01*
X032274Y007670D01*
X031943Y007339D01*
X031900Y007236D01*
X031900Y006296D01*
X031064Y005460D01*
X030745Y005460D01*
X030751Y005466D01*
X030808Y005605D01*
X030808Y005755D01*
X030751Y005894D01*
X030710Y005935D01*
X030710Y007314D01*
X031071Y007675D01*
X031085Y007670D01*
X031275Y007670D01*
X031452Y007743D01*
X031587Y007878D01*
X031660Y008055D01*
X031660Y008805D01*
X031587Y008982D01*
X031452Y009117D01*
X031275Y009190D01*
X031085Y009190D01*
X030908Y009117D01*
X030773Y008982D01*
X030700Y008805D01*
X030700Y008096D01*
X030660Y008056D01*
X030660Y008805D01*
X030587Y008982D01*
X030460Y009109D01*
X030460Y009814D01*
X030839Y010193D01*
X030917Y010271D01*
X030960Y010374D01*
X030960Y010722D01*
X031085Y010670D01*
X031275Y010670D01*
X031452Y010743D01*
X031587Y010878D01*
X031660Y011055D01*
X031660Y011805D01*
X031587Y011982D01*
X031452Y012117D01*
X031275Y012190D01*
X031085Y012190D01*
X030960Y012138D01*
X030960Y013986D01*
X030917Y014089D01*
X030167Y014839D01*
X030089Y014917D01*
X029986Y014960D01*
X027546Y014960D01*
X027460Y015046D01*
X027460Y016486D01*
X027417Y016589D01*
X026917Y017089D01*
X026839Y017167D01*
X026736Y017210D01*
X024874Y017210D01*
X024771Y017167D01*
X024693Y017089D01*
X024693Y017089D01*
X023064Y015460D01*
X018739Y015460D01*
X018719Y015509D01*
X018556Y015672D01*
X018555Y015672D01*
X018556Y015673D01*
X018719Y015836D01*
X018807Y016049D01*
X018807Y016280D01*
X018719Y016493D01*
X018556Y016656D01*
X018343Y016744D01*
X018112Y016744D01*
X017899Y016656D01*
X017736Y016493D01*
X017647Y016280D01*
X017647Y016049D01*
X017736Y015836D01*
X017899Y015673D01*
X017900Y015672D01*
X017899Y015672D01*
X017736Y015509D01*
X017647Y015295D01*
X017647Y015065D01*
X017736Y014851D01*
X017899Y014688D01*
X017933Y014674D01*
X017862Y014623D01*
X017800Y014561D01*
X017748Y014489D01*
X017708Y014411D01*
X017681Y014327D01*
X017667Y014240D01*
X017667Y014214D01*
X018209Y014214D01*
X018209Y014177D01*
X018246Y014177D01*
X018246Y014214D01*
X018787Y014214D01*
X018787Y014240D01*
X018773Y014327D01*
X018746Y014411D01*
X018706Y014489D01*
X018654Y014561D01*
X018592Y014623D01*
X018522Y014674D01*
X018556Y014688D01*
X018719Y014851D01*
X018739Y014900D01*
X023236Y014900D01*
X023339Y014943D01*
X023417Y015021D01*
X023417Y015021D01*
X025046Y016650D01*
X025393Y016650D01*
X025236Y016493D01*
X025147Y016280D01*
X025147Y016049D01*
X025236Y015836D01*
X025399Y015673D01*
X025400Y015672D01*
X025399Y015672D01*
X025236Y015509D01*
X025147Y015295D01*
X025147Y015065D01*
X025236Y014851D01*
X025399Y014688D01*
X025433Y014674D01*
X025362Y014623D01*
X025300Y014561D01*
X025248Y014489D01*
X025208Y014411D01*
X025181Y014327D01*
X025167Y014240D01*
X025167Y014214D01*
X025709Y014214D01*
X025709Y014177D01*
X025746Y014177D01*
X025746Y013650D01*
X025718Y013584D01*
X025700Y013618D01*
X025688Y013636D01*
X025709Y013636D01*
X025709Y014177D01*
X025167Y014177D01*
X025167Y014152D01*
X025181Y014065D01*
X025208Y013981D01*
X025248Y013902D01*
X025264Y013880D01*
X025230Y013880D01*
X025230Y013330D01*
X025230Y013330D01*
X025230Y013880D01*
X025187Y013880D01*
X025101Y013866D01*
X025019Y013840D01*
X024942Y013800D01*
X024872Y013750D01*
X024810Y013688D01*
X024760Y013618D01*
X024742Y013584D01*
X024713Y013653D01*
X024553Y013813D01*
X024343Y013900D01*
X024117Y013900D01*
X023907Y013813D01*
X023747Y013653D01*
X023660Y013443D01*
X023660Y013217D01*
X023747Y013007D01*
X023907Y012847D01*
X024117Y012760D01*
X024343Y012760D01*
X024346Y012761D01*
X024397Y012710D01*
X021519Y012710D01*
X021914Y013104D01*
X021914Y013328D01*
X021260Y013328D01*
X021260Y013488D01*
X021914Y013488D01*
X021914Y013712D01*
X021484Y014142D01*
X021260Y014142D01*
X021260Y013488D01*
X021100Y013488D01*
X021100Y013328D01*
X020446Y013328D01*
X020446Y013104D01*
X020841Y012710D01*
X017389Y012710D01*
X017660Y012981D01*
X017660Y013379D01*
X017379Y013660D01*
X017346Y013660D01*
X015917Y015089D01*
X015839Y015167D01*
X015736Y015210D01*
X014546Y015210D01*
X014232Y015524D01*
X014250Y015567D01*
X014250Y015793D01*
X014163Y016003D01*
X014003Y016163D01*
X013793Y016250D01*
X013567Y016250D01*
X013357Y016163D01*
X013197Y016003D01*
X013110Y015793D01*
X013110Y015567D01*
X013197Y015357D01*
X013357Y015197D01*
X013398Y015180D01*
X013357Y015163D01*
X013197Y015003D01*
X013110Y014793D01*
X013110Y014567D01*
X013197Y014357D01*
X013344Y014210D01*
X011896Y014210D01*
X011289Y014817D01*
X011323Y014851D01*
X011323Y015508D01*
X010858Y015973D01*
X010201Y015973D01*
X009737Y015508D01*
X009737Y014851D01*
X010201Y014387D01*
X010858Y014387D01*
X010893Y014421D01*
X011354Y013960D01*
X007796Y013960D01*
X007264Y014492D01*
X007623Y014851D01*
X007623Y015508D01*
X007158Y015973D01*
X006501Y015973D01*
X006037Y015508D01*
X006037Y014851D01*
X006501Y014387D01*
X006650Y014387D01*
X006650Y014374D01*
X006693Y014271D01*
X006771Y014193D01*
X007521Y013443D01*
X007624Y013400D01*
X008971Y013400D01*
X008950Y013379D01*
X008950Y012981D01*
X009108Y012823D01*
X008696Y012823D01*
X008163Y012290D01*
X008163Y011535D01*
X008696Y011001D01*
X009451Y011001D01*
X009985Y011535D01*
X009985Y012290D01*
X009575Y012700D01*
X009629Y012700D01*
X009910Y012981D01*
X009910Y013379D01*
X009889Y013400D01*
X011221Y013400D01*
X011200Y013379D01*
X011200Y012981D01*
X011291Y012890D01*
X011180Y012890D01*
X011180Y012430D01*
X011640Y012430D01*
X011640Y012621D01*
X011561Y012700D01*
X011771Y012700D01*
X011700Y012629D01*
X011700Y012231D01*
X011981Y011950D01*
X012264Y011950D01*
X012693Y011521D01*
X012771Y011443D01*
X012874Y011400D01*
X014736Y011400D01*
X014839Y011443D01*
X016096Y012700D01*
X016379Y012700D01*
X016446Y012768D01*
X016521Y012693D01*
X017021Y012193D01*
X017124Y012150D01*
X021988Y012150D01*
X021908Y012117D01*
X021773Y011982D01*
X021700Y011805D01*
X021700Y011055D01*
X021773Y010878D01*
X021900Y010751D01*
X021900Y010046D01*
X021814Y009960D01*
X020124Y009960D01*
X020021Y009917D01*
X018564Y008460D01*
X017079Y008460D01*
X016879Y008660D01*
X016481Y008660D01*
X016200Y008379D01*
X016200Y007981D01*
X016221Y007960D01*
X014139Y007960D01*
X014160Y007981D01*
X014160Y008379D01*
X013879Y008660D01*
X013481Y008660D01*
X013200Y008379D01*
X013200Y008089D01*
X013129Y008160D01*
X012731Y008160D01*
X012640Y008069D01*
X012640Y008180D01*
X012640Y008371D01*
X012371Y008640D01*
X012180Y008640D01*
X012180Y008180D01*
X012180Y008180D01*
X012640Y008180D01*
X012180Y008180D01*
X012180Y008180D01*
X012180Y007720D01*
X012371Y007720D01*
X012450Y007799D01*
X012450Y007589D01*
X012379Y007660D01*
X011981Y007660D01*
X011700Y007379D01*
X011700Y006981D01*
X011981Y006700D01*
X012379Y006700D01*
X012516Y006837D02*
X012691Y006837D01*
X012660Y006996D02*
X012850Y006996D01*
X013008Y007154D02*
X012660Y007154D01*
X012180Y007180D02*
X012155Y007205D01*
X011792Y007471D02*
X011068Y007471D01*
X011160Y007379D02*
X010879Y007660D01*
X010481Y007660D01*
X010305Y007484D01*
X010129Y007660D01*
X009731Y007660D01*
X009450Y007379D01*
X009450Y006981D01*
X009731Y006700D01*
X010129Y006700D01*
X010305Y006876D01*
X010481Y006700D01*
X010879Y006700D01*
X011160Y006981D01*
X011160Y007379D01*
X011160Y007313D02*
X011700Y007313D01*
X011700Y007154D02*
X011160Y007154D01*
X011160Y006996D02*
X011700Y006996D01*
X011844Y006837D02*
X011016Y006837D01*
X010344Y006837D02*
X010266Y006837D01*
X009594Y006837D02*
X007266Y006837D01*
X007129Y006700D02*
X007410Y006981D01*
X007410Y007379D01*
X007129Y007660D01*
X006731Y007660D01*
X006450Y007379D01*
X006450Y006981D01*
X006731Y006700D01*
X007129Y006700D01*
X006594Y006837D02*
X006252Y006837D01*
X006323Y006996D02*
X006450Y006996D01*
X006450Y007154D02*
X006323Y007154D01*
X006323Y007313D02*
X006450Y007313D01*
X006542Y007471D02*
X006323Y007471D01*
X006323Y007630D02*
X006701Y007630D01*
X007159Y007630D02*
X009701Y007630D01*
X009542Y007471D02*
X007318Y007471D01*
X007410Y007313D02*
X009450Y007313D01*
X009450Y007154D02*
X007410Y007154D01*
X007410Y006996D02*
X009450Y006996D01*
X010159Y007630D02*
X010451Y007630D01*
X010909Y007630D02*
X011951Y007630D01*
X011989Y007720D02*
X012180Y007720D01*
X012180Y008180D01*
X012180Y008180D01*
X012180Y008180D01*
X011720Y008180D01*
X011720Y008371D01*
X011989Y008640D01*
X012180Y008640D01*
X012180Y008180D01*
X011720Y008180D01*
X011720Y007989D01*
X011989Y007720D01*
X011921Y007788D02*
X006199Y007788D01*
X006041Y007947D02*
X008551Y007947D01*
X008665Y007832D02*
X008143Y008354D01*
X008143Y008643D01*
X008954Y008643D01*
X008954Y008803D01*
X008143Y008803D01*
X008143Y009092D01*
X008665Y009614D01*
X008954Y009614D01*
X008954Y008803D01*
X009114Y008803D01*
X009114Y009614D01*
X009403Y009614D01*
X009926Y009092D01*
X009926Y008803D01*
X009114Y008803D01*
X009114Y008643D01*
X009114Y007832D01*
X009403Y007832D01*
X009926Y008354D01*
X009926Y008643D01*
X009114Y008643D01*
X008954Y008643D01*
X008954Y007832D01*
X008665Y007832D01*
X008954Y007947D02*
X009114Y007947D01*
X009114Y008105D02*
X008954Y008105D01*
X008954Y008264D02*
X009114Y008264D01*
X009114Y008422D02*
X008954Y008422D01*
X008954Y008581D02*
X009114Y008581D01*
X009114Y008739D02*
X018843Y008739D01*
X018685Y008581D02*
X016958Y008581D01*
X016680Y008180D02*
X018680Y008180D01*
X020180Y009680D01*
X021930Y009680D01*
X022180Y009930D01*
X022180Y011430D01*
X021700Y011434D02*
X014817Y011434D01*
X014988Y011592D02*
X021700Y011592D01*
X021700Y011751D02*
X015146Y011751D01*
X015305Y011909D02*
X021743Y011909D01*
X021859Y012068D02*
X015463Y012068D01*
X015622Y012226D02*
X016988Y012226D01*
X016830Y012385D02*
X015780Y012385D01*
X015939Y012543D02*
X016671Y012543D01*
X016513Y012702D02*
X016380Y012702D01*
X016680Y012930D02*
X016680Y013430D01*
X016180Y013930D01*
X011780Y013930D01*
X010530Y015180D01*
X011323Y015238D02*
X013316Y015238D01*
X013273Y015079D02*
X011323Y015079D01*
X011323Y014921D02*
X013163Y014921D01*
X013110Y014762D02*
X011344Y014762D01*
X011502Y014604D02*
X013110Y014604D01*
X013160Y014445D02*
X011661Y014445D01*
X011819Y014287D02*
X013267Y014287D01*
X013930Y013680D02*
X014430Y013180D01*
X013930Y013680D02*
X007680Y013680D01*
X006930Y014430D01*
X006930Y015080D01*
X006830Y015180D01*
X007623Y015238D02*
X008600Y015238D01*
X008600Y015260D02*
X008600Y015100D01*
X007907Y015100D01*
X007907Y014860D01*
X008360Y014407D01*
X008600Y014407D01*
X008600Y015100D01*
X008760Y015100D01*
X008760Y015260D01*
X008600Y015260D01*
X008600Y015953D01*
X008360Y015953D01*
X007907Y015500D01*
X007907Y015260D01*
X008600Y015260D01*
X008600Y015396D02*
X008760Y015396D01*
X008760Y015260D02*
X008760Y015953D01*
X009000Y015953D01*
X009453Y015500D01*
X009453Y015260D01*
X008760Y015260D01*
X008760Y015238D02*
X009737Y015238D01*
X009737Y015396D02*
X009453Y015396D01*
X009399Y015555D02*
X009783Y015555D01*
X009941Y015713D02*
X009240Y015713D01*
X009082Y015872D02*
X010100Y015872D01*
X010960Y015872D02*
X012338Y015872D01*
X012220Y015989D02*
X012489Y015720D01*
X012680Y015720D01*
X012871Y015720D01*
X013140Y015989D01*
X013140Y016180D01*
X013140Y016371D01*
X012871Y016640D01*
X012680Y016640D01*
X012680Y016180D01*
X012680Y016180D01*
X013140Y016180D01*
X012680Y016180D01*
X012680Y016180D01*
X012680Y016180D01*
X012220Y016180D01*
X012220Y016371D01*
X012489Y016640D01*
X012680Y016640D01*
X012680Y016180D01*
X012680Y015720D01*
X012680Y016180D01*
X012680Y016180D01*
X012220Y016180D01*
X012220Y015989D01*
X012220Y016030D02*
X001440Y016030D01*
X001440Y015872D02*
X006400Y015872D01*
X006241Y015713D02*
X001440Y015713D01*
X001440Y015555D02*
X006083Y015555D01*
X006037Y015396D02*
X001440Y015396D01*
X001440Y015238D02*
X006037Y015238D01*
X006037Y015079D02*
X003514Y015079D01*
X003506Y015087D02*
X002751Y015087D01*
X002218Y014553D01*
X002218Y013799D01*
X002751Y013265D01*
X003506Y013265D01*
X004040Y013799D01*
X004040Y014553D01*
X003506Y015087D01*
X003673Y014921D02*
X006037Y014921D01*
X006126Y014762D02*
X003831Y014762D01*
X003990Y014604D02*
X006285Y014604D01*
X006443Y014445D02*
X004040Y014445D01*
X004040Y014287D02*
X006686Y014287D01*
X006836Y014128D02*
X004040Y014128D01*
X004040Y013970D02*
X006994Y013970D01*
X007153Y013811D02*
X004040Y013811D01*
X003894Y013653D02*
X006224Y013653D01*
X006231Y013660D02*
X005950Y013379D01*
X005950Y013037D01*
X005790Y013197D01*
X005035Y013197D01*
X004501Y012664D01*
X004501Y011909D01*
X003067Y011909D01*
X003114Y011957D02*
X003114Y012246D01*
X002303Y012246D01*
X002303Y011434D01*
X002592Y011434D01*
X003114Y011957D01*
X003114Y012068D02*
X004501Y012068D01*
X004501Y012226D02*
X003114Y012226D01*
X003114Y012406D02*
X003114Y012695D01*
X002592Y013217D01*
X002303Y013217D01*
X002303Y012406D01*
X003114Y012406D01*
X003114Y012543D02*
X004501Y012543D01*
X004501Y012385D02*
X002303Y012385D01*
X002303Y012543D02*
X002143Y012543D01*
X002143Y012702D02*
X002303Y012702D01*
X002303Y012860D02*
X002143Y012860D01*
X002143Y013019D02*
X002303Y013019D01*
X002303Y013177D02*
X002143Y013177D01*
X001814Y013177D02*
X001440Y013177D01*
X001440Y013019D02*
X001656Y013019D01*
X001497Y012860D02*
X001440Y012860D01*
X001440Y013336D02*
X002681Y013336D01*
X002632Y013177D02*
X005014Y013177D01*
X004856Y013019D02*
X002791Y013019D01*
X002949Y012860D02*
X004697Y012860D01*
X004539Y012702D02*
X003108Y012702D01*
X002303Y012226D02*
X002143Y012226D01*
X002143Y012068D02*
X002303Y012068D01*
X002303Y011909D02*
X002143Y011909D01*
X002143Y011751D02*
X002303Y011751D01*
X002303Y011592D02*
X002143Y011592D01*
X001697Y011592D02*
X001440Y011592D01*
X001440Y011434D02*
X004976Y011434D01*
X005035Y011375D02*
X005790Y011375D01*
X006323Y011909D01*
X008163Y011909D01*
X008163Y011751D02*
X006165Y011751D01*
X006323Y011909D02*
X006323Y012664D01*
X006287Y012700D01*
X006629Y012700D01*
X006910Y012981D01*
X006910Y013379D01*
X006629Y013660D01*
X006231Y013660D01*
X006065Y013494D02*
X003735Y013494D01*
X003577Y013336D02*
X005950Y013336D01*
X005950Y013177D02*
X005810Y013177D01*
X006630Y012702D02*
X008574Y012702D01*
X008416Y012543D02*
X006323Y012543D01*
X006323Y012385D02*
X008257Y012385D01*
X008163Y012226D02*
X006323Y012226D01*
X006323Y012068D02*
X008163Y012068D01*
X008163Y011592D02*
X006007Y011592D01*
X005848Y011434D02*
X008264Y011434D01*
X008422Y011275D02*
X001440Y011275D01*
X001440Y011117D02*
X008581Y011117D01*
X009567Y011117D02*
X018310Y011117D01*
X018357Y011163D02*
X018197Y011003D01*
X018110Y010793D01*
X018110Y010567D01*
X018197Y010357D01*
X018357Y010197D01*
X018398Y010180D01*
X018357Y010163D01*
X018197Y010003D01*
X018110Y009793D01*
X018110Y009567D01*
X018197Y009357D01*
X018357Y009197D01*
X018567Y009110D01*
X018793Y009110D01*
X019003Y009197D01*
X019163Y009357D01*
X019250Y009567D01*
X019250Y009793D01*
X019163Y010003D01*
X019003Y010163D01*
X018962Y010180D01*
X019003Y010197D01*
X019163Y010357D01*
X019250Y010567D01*
X019250Y010793D01*
X019163Y011003D01*
X019003Y011163D01*
X018793Y011250D01*
X018567Y011250D01*
X018357Y011163D01*
X018178Y010958D02*
X015874Y010958D01*
X015858Y010973D02*
X015201Y010973D01*
X014737Y010508D01*
X014737Y009851D01*
X015201Y009387D01*
X015858Y009387D01*
X016323Y009851D01*
X016323Y010508D01*
X015858Y010973D01*
X016032Y010800D02*
X018113Y010800D01*
X018110Y010641D02*
X016191Y010641D01*
X016323Y010483D02*
X018145Y010483D01*
X018230Y010324D02*
X016323Y010324D01*
X016323Y010166D02*
X017137Y010166D01*
X017206Y010235D02*
X016925Y009954D01*
X016925Y009556D01*
X017206Y009275D01*
X017604Y009275D01*
X017885Y009556D01*
X017885Y009954D01*
X017604Y010235D01*
X017206Y010235D01*
X016978Y010007D02*
X016323Y010007D01*
X016320Y009849D02*
X016925Y009849D01*
X016925Y009690D02*
X016162Y009690D01*
X016003Y009532D02*
X016950Y009532D01*
X017108Y009373D02*
X009645Y009373D01*
X009803Y009215D02*
X018339Y009215D01*
X018190Y009373D02*
X017702Y009373D01*
X017860Y009532D02*
X018125Y009532D01*
X018110Y009690D02*
X017885Y009690D01*
X017885Y009849D02*
X018133Y009849D01*
X018201Y010007D02*
X017832Y010007D01*
X017673Y010166D02*
X018363Y010166D01*
X018997Y010166D02*
X021900Y010166D01*
X021900Y010324D02*
X019130Y010324D01*
X019215Y010483D02*
X021900Y010483D01*
X021900Y010641D02*
X019250Y010641D01*
X019247Y010800D02*
X021852Y010800D01*
X021740Y010958D02*
X019182Y010958D01*
X019050Y011117D02*
X021700Y011117D01*
X021700Y011275D02*
X009725Y011275D01*
X009884Y011434D02*
X012793Y011434D01*
X012622Y011592D02*
X009985Y011592D01*
X009985Y011751D02*
X012464Y011751D01*
X012305Y011909D02*
X009985Y011909D01*
X009985Y012068D02*
X010892Y012068D01*
X010989Y011970D02*
X011180Y011970D01*
X011371Y011970D01*
X011640Y012239D01*
X011640Y012430D01*
X011180Y012430D01*
X011180Y012430D01*
X011180Y012430D01*
X011180Y011970D01*
X011180Y012430D01*
X011180Y012430D01*
X011180Y012430D01*
X010720Y012430D01*
X010720Y012621D01*
X010989Y012890D01*
X011180Y012890D01*
X011180Y012430D01*
X010720Y012430D01*
X010720Y012239D01*
X010989Y011970D01*
X011180Y012068D02*
X011180Y012068D01*
X011180Y012226D02*
X011180Y012226D01*
X011180Y012385D02*
X011180Y012385D01*
X011180Y012543D02*
X011180Y012543D01*
X011180Y012702D02*
X011180Y012702D01*
X011180Y012860D02*
X011180Y012860D01*
X011200Y013019D02*
X009910Y013019D01*
X009910Y013177D02*
X011200Y013177D01*
X011200Y013336D02*
X009910Y013336D01*
X009789Y012860D02*
X010959Y012860D01*
X010801Y012702D02*
X009630Y012702D01*
X009732Y012543D02*
X010720Y012543D01*
X010720Y012385D02*
X009890Y012385D01*
X009985Y012226D02*
X010733Y012226D01*
X011468Y012068D02*
X011864Y012068D01*
X011705Y012226D02*
X011627Y012226D01*
X011640Y012385D02*
X011700Y012385D01*
X011700Y012543D02*
X011640Y012543D01*
X012180Y012430D02*
X012930Y011680D01*
X014680Y011680D01*
X016180Y013180D01*
X016680Y012930D02*
X017180Y012430D01*
X024430Y012430D01*
X025180Y011680D01*
X025180Y011430D01*
X025660Y011434D02*
X025700Y011434D01*
X025700Y011592D02*
X025660Y011592D01*
X025660Y011751D02*
X025700Y011751D01*
X025743Y011909D02*
X025617Y011909D01*
X025715Y012068D02*
X025501Y012068D01*
X026145Y012543D02*
X026564Y012543D01*
X026406Y012702D02*
X025986Y012702D01*
X025894Y012860D02*
X025519Y012860D01*
X025684Y013019D02*
X025742Y013019D01*
X025230Y013336D02*
X025230Y013336D01*
X025230Y013494D02*
X025230Y013494D01*
X025230Y013653D02*
X025230Y013653D01*
X025230Y013811D02*
X025230Y013811D01*
X025214Y013970D02*
X021656Y013970D01*
X021498Y014128D02*
X025171Y014128D01*
X025175Y014287D02*
X018780Y014287D01*
X018787Y014177D02*
X018246Y014177D01*
X018246Y013636D01*
X018271Y013636D01*
X018358Y013650D01*
X018442Y013677D01*
X018521Y013717D01*
X018592Y013769D01*
X018654Y013831D01*
X018706Y013902D01*
X018746Y013981D01*
X018773Y014065D01*
X018787Y014152D01*
X018787Y014177D01*
X018783Y014128D02*
X020862Y014128D01*
X020876Y014142D02*
X020446Y013712D01*
X020446Y013488D01*
X021100Y013488D01*
X021100Y014142D01*
X020876Y014142D01*
X021100Y014128D02*
X021260Y014128D01*
X021260Y013970D02*
X021100Y013970D01*
X021100Y013811D02*
X021260Y013811D01*
X021260Y013653D02*
X021100Y013653D01*
X021100Y013494D02*
X021260Y013494D01*
X021260Y013336D02*
X023660Y013336D01*
X023681Y013494D02*
X021914Y013494D01*
X021914Y013653D02*
X023747Y013653D01*
X023905Y013811D02*
X021815Y013811D01*
X021100Y013336D02*
X017660Y013336D01*
X017660Y013177D02*
X020446Y013177D01*
X020532Y013019D02*
X017660Y013019D01*
X017539Y012860D02*
X020691Y012860D01*
X020446Y013494D02*
X017545Y013494D01*
X017386Y013653D02*
X018087Y013653D01*
X018096Y013650D02*
X018183Y013636D01*
X018209Y013636D01*
X018209Y014177D01*
X017667Y014177D01*
X017667Y014152D01*
X017681Y014065D01*
X017708Y013981D01*
X017748Y013902D01*
X017800Y013831D01*
X017862Y013769D01*
X017934Y013717D01*
X018012Y013677D01*
X018096Y013650D01*
X018209Y013653D02*
X018246Y013653D01*
X018368Y013653D02*
X020446Y013653D01*
X020545Y013811D02*
X018634Y013811D01*
X018740Y013970D02*
X020704Y013970D01*
X021914Y013177D02*
X023676Y013177D01*
X023742Y013019D02*
X021828Y013019D01*
X021669Y012860D02*
X023894Y012860D01*
X024713Y013653D02*
X024784Y013653D01*
X024963Y013811D02*
X024555Y013811D01*
X025226Y014445D02*
X018729Y014445D01*
X018611Y014604D02*
X025343Y014604D01*
X025325Y014762D02*
X018630Y014762D01*
X017843Y014604D02*
X016402Y014604D01*
X016244Y014762D02*
X017825Y014762D01*
X017707Y014921D02*
X016085Y014921D01*
X015927Y015079D02*
X017647Y015079D01*
X017647Y015238D02*
X014518Y015238D01*
X014360Y015396D02*
X017689Y015396D01*
X017782Y015555D02*
X014245Y015555D01*
X014250Y015713D02*
X014968Y015713D01*
X014810Y015872D02*
X014218Y015872D01*
X014136Y016030D02*
X014700Y016030D01*
X014700Y016189D02*
X013942Y016189D01*
X013418Y016189D02*
X013140Y016189D01*
X013140Y016347D02*
X014700Y016347D01*
X014827Y016506D02*
X013005Y016506D01*
X012680Y016506D02*
X012680Y016506D01*
X012680Y016347D02*
X012680Y016347D01*
X012680Y016189D02*
X012680Y016189D01*
X012680Y016030D02*
X012680Y016030D01*
X012680Y015872D02*
X012680Y015872D01*
X013022Y015872D02*
X013142Y015872D01*
X013140Y016030D02*
X013224Y016030D01*
X013110Y015713D02*
X011119Y015713D01*
X011277Y015555D02*
X013115Y015555D01*
X013181Y015396D02*
X011323Y015396D01*
X009826Y014762D02*
X009355Y014762D01*
X009453Y014860D02*
X009453Y015100D01*
X008760Y015100D01*
X008760Y014407D01*
X009000Y014407D01*
X009453Y014860D01*
X009453Y014921D02*
X009737Y014921D01*
X009737Y015079D02*
X009453Y015079D01*
X008760Y015079D02*
X008600Y015079D01*
X008600Y014921D02*
X008760Y014921D01*
X008760Y014762D02*
X008600Y014762D01*
X008600Y014604D02*
X008760Y014604D01*
X008760Y014445D02*
X008600Y014445D01*
X008322Y014445D02*
X007311Y014445D01*
X007375Y014604D02*
X008163Y014604D01*
X008005Y014762D02*
X007534Y014762D01*
X007623Y014921D02*
X007907Y014921D01*
X007907Y015079D02*
X007623Y015079D01*
X007623Y015396D02*
X007907Y015396D01*
X007961Y015555D02*
X007577Y015555D01*
X007419Y015713D02*
X008120Y015713D01*
X008278Y015872D02*
X007260Y015872D01*
X008600Y015872D02*
X008760Y015872D01*
X008760Y015713D02*
X008600Y015713D01*
X008600Y015555D02*
X008760Y015555D01*
X009197Y014604D02*
X009985Y014604D01*
X010143Y014445D02*
X009038Y014445D01*
X007786Y013970D02*
X011344Y013970D01*
X011186Y014128D02*
X007628Y014128D01*
X007469Y014287D02*
X011027Y014287D01*
X008950Y013336D02*
X006910Y013336D01*
X006910Y013177D02*
X008950Y013177D01*
X008950Y013019D02*
X006910Y013019D01*
X006789Y012860D02*
X009071Y012860D01*
X007470Y013494D02*
X006795Y013494D01*
X006636Y013653D02*
X007311Y013653D01*
X005035Y011375D02*
X004501Y011909D01*
X004659Y011751D02*
X002908Y011751D01*
X002750Y011592D02*
X004818Y011592D01*
X005231Y010910D02*
X004950Y010629D01*
X004950Y010231D01*
X005231Y009950D01*
X005629Y009950D01*
X005910Y010231D01*
X005910Y010629D01*
X005629Y010910D01*
X005231Y010910D01*
X005121Y010800D02*
X002711Y010800D01*
X002621Y010890D02*
X002430Y010890D01*
X002430Y010430D01*
X002890Y010430D01*
X002890Y010621D01*
X002621Y010890D01*
X002430Y010890D02*
X002239Y010890D01*
X001970Y010621D01*
X001970Y010430D01*
X002430Y010430D01*
X002430Y010430D01*
X002430Y010430D01*
X002890Y010430D01*
X002890Y010239D01*
X002621Y009970D01*
X002430Y009970D01*
X002430Y010430D01*
X002430Y010430D01*
X002430Y010430D01*
X002430Y010890D01*
X002430Y010800D02*
X002430Y010800D01*
X002430Y010641D02*
X002430Y010641D01*
X002430Y010483D02*
X002430Y010483D01*
X002430Y010430D02*
X001970Y010430D01*
X001970Y010239D01*
X002239Y009970D01*
X002430Y009970D01*
X002430Y010430D01*
X002430Y010324D02*
X002430Y010324D01*
X002430Y010166D02*
X002430Y010166D01*
X002430Y010007D02*
X002430Y010007D01*
X002513Y009849D02*
X001440Y009849D01*
X001440Y010007D02*
X002202Y010007D01*
X002044Y010166D02*
X001440Y010166D01*
X001440Y010324D02*
X001970Y010324D01*
X001970Y010483D02*
X001440Y010483D01*
X001440Y010641D02*
X001990Y010641D01*
X002149Y010800D02*
X001440Y010800D01*
X001440Y010958D02*
X011486Y010958D01*
X011501Y010973D02*
X011037Y010508D01*
X011037Y010502D01*
X010879Y010660D01*
X010481Y010660D01*
X010200Y010379D01*
X010200Y009981D01*
X010481Y009700D01*
X010879Y009700D01*
X011037Y009858D01*
X011037Y009851D01*
X011501Y009387D01*
X012158Y009387D01*
X012623Y009851D01*
X012623Y010508D01*
X012158Y010973D01*
X011501Y010973D01*
X011328Y010800D02*
X005739Y010800D01*
X005898Y010641D02*
X010462Y010641D01*
X010304Y010483D02*
X007591Y010483D01*
X007553Y010520D02*
X007264Y010520D01*
X007264Y009709D01*
X007104Y009709D01*
X007104Y010520D01*
X006815Y010520D01*
X006293Y009998D01*
X006293Y009709D01*
X007104Y009709D01*
X007104Y009549D01*
X006293Y009549D01*
X006293Y009260D01*
X006815Y008738D01*
X007104Y008738D01*
X007104Y009549D01*
X007264Y009549D01*
X007264Y009709D01*
X008075Y009709D01*
X008075Y009998D01*
X007553Y010520D01*
X007749Y010324D02*
X010200Y010324D01*
X010200Y010166D02*
X007908Y010166D01*
X008066Y010007D02*
X010200Y010007D01*
X010333Y009849D02*
X008075Y009849D01*
X008075Y009549D02*
X007264Y009549D01*
X007264Y008738D01*
X007553Y008738D01*
X008075Y009260D01*
X008075Y009549D01*
X008075Y009532D02*
X008582Y009532D01*
X008424Y009373D02*
X008075Y009373D01*
X008030Y009215D02*
X008265Y009215D01*
X008143Y009056D02*
X007871Y009056D01*
X007713Y008898D02*
X008143Y008898D01*
X008143Y008581D02*
X003822Y008581D01*
X003980Y008739D02*
X006813Y008739D01*
X006655Y008898D02*
X004040Y008898D01*
X004040Y008799D02*
X003506Y008265D01*
X002751Y008265D01*
X002218Y008799D01*
X002218Y009553D01*
X002751Y010087D01*
X003506Y010087D01*
X004040Y009553D01*
X004040Y008799D01*
X004040Y009056D02*
X006496Y009056D01*
X006338Y009215D02*
X004040Y009215D01*
X004040Y009373D02*
X006293Y009373D01*
X006293Y009532D02*
X004040Y009532D01*
X003903Y009690D02*
X007104Y009690D01*
X007104Y009532D02*
X007264Y009532D01*
X007264Y009690D02*
X011198Y009690D01*
X011040Y009849D02*
X011027Y009849D01*
X011357Y009532D02*
X009486Y009532D01*
X009114Y009532D02*
X008954Y009532D01*
X008954Y009373D02*
X009114Y009373D01*
X009114Y009215D02*
X008954Y009215D01*
X008954Y009056D02*
X009114Y009056D01*
X009114Y008898D02*
X008954Y008898D01*
X008954Y008739D02*
X007554Y008739D01*
X007264Y008739D02*
X007104Y008739D01*
X007104Y008898D02*
X007264Y008898D01*
X007264Y009056D02*
X007104Y009056D01*
X007104Y009215D02*
X007264Y009215D01*
X007264Y009373D02*
X007104Y009373D01*
X007104Y009849D02*
X007264Y009849D01*
X007264Y010007D02*
X007104Y010007D01*
X007104Y010166D02*
X007264Y010166D01*
X007264Y010324D02*
X007104Y010324D01*
X007104Y010483D02*
X007264Y010483D01*
X006777Y010483D02*
X005910Y010483D01*
X005910Y010324D02*
X006619Y010324D01*
X006460Y010166D02*
X005844Y010166D01*
X005686Y010007D02*
X006302Y010007D01*
X006293Y009849D02*
X003745Y009849D01*
X003586Y010007D02*
X005174Y010007D01*
X005016Y010166D02*
X002816Y010166D01*
X002890Y010324D02*
X004950Y010324D01*
X004950Y010483D02*
X002890Y010483D01*
X002870Y010641D02*
X004962Y010641D01*
X002671Y010007D02*
X002658Y010007D01*
X002354Y009690D02*
X001440Y009690D01*
X001440Y009532D02*
X002218Y009532D01*
X002218Y009373D02*
X001440Y009373D01*
X001440Y009215D02*
X002218Y009215D01*
X002218Y009056D02*
X001440Y009056D01*
X001440Y008898D02*
X002218Y008898D01*
X002277Y008739D02*
X001440Y008739D01*
X001440Y008581D02*
X002436Y008581D01*
X002594Y008422D02*
X001440Y008422D01*
X001440Y008264D02*
X008234Y008264D01*
X008143Y008422D02*
X003663Y008422D01*
X003114Y007695D02*
X002592Y008217D01*
X002303Y008217D01*
X002303Y007406D01*
X003114Y007406D01*
X003114Y007695D01*
X003114Y007630D02*
X004501Y007630D01*
X004501Y007471D02*
X003114Y007471D01*
X003114Y007246D02*
X002303Y007246D01*
X002303Y006434D01*
X002592Y006434D01*
X003114Y006957D01*
X003114Y007246D01*
X003114Y007154D02*
X004501Y007154D01*
X004501Y006996D02*
X003114Y006996D01*
X002995Y006837D02*
X004573Y006837D01*
X004731Y006679D02*
X002836Y006679D01*
X002678Y006520D02*
X004890Y006520D01*
X004501Y007313D02*
X002303Y007313D01*
X002303Y007471D02*
X002143Y007471D01*
X002143Y007630D02*
X002303Y007630D01*
X002303Y007788D02*
X002143Y007788D01*
X002143Y007947D02*
X002303Y007947D01*
X002303Y008105D02*
X002143Y008105D01*
X001742Y008105D02*
X001440Y008105D01*
X001440Y007947D02*
X001584Y007947D01*
X002704Y008105D02*
X004942Y008105D01*
X004784Y007947D02*
X002863Y007947D01*
X003021Y007788D02*
X004625Y007788D01*
X005882Y008105D02*
X008392Y008105D01*
X009518Y007947D02*
X011763Y007947D01*
X011720Y008105D02*
X009676Y008105D01*
X009835Y008264D02*
X011720Y008264D01*
X011771Y008422D02*
X009926Y008422D01*
X009926Y008581D02*
X011930Y008581D01*
X012180Y008581D02*
X012180Y008581D01*
X012180Y008422D02*
X012180Y008422D01*
X012180Y008264D02*
X012180Y008264D01*
X012180Y008105D02*
X012180Y008105D01*
X012180Y007947D02*
X012180Y007947D01*
X012180Y007788D02*
X012180Y007788D01*
X012439Y007788D02*
X012450Y007788D01*
X012450Y007630D02*
X012409Y007630D01*
X012640Y008105D02*
X012676Y008105D01*
X012640Y008264D02*
X013200Y008264D01*
X013184Y008105D02*
X013200Y008105D01*
X013243Y008422D02*
X012589Y008422D01*
X012430Y008581D02*
X013402Y008581D01*
X013958Y008581D02*
X016402Y008581D01*
X016243Y008422D02*
X014117Y008422D01*
X014160Y008264D02*
X016200Y008264D01*
X016200Y008105D02*
X014160Y008105D01*
X013930Y007680D02*
X018680Y007680D01*
X020430Y009430D01*
X022430Y009430D01*
X023180Y010180D01*
X023180Y011430D01*
X024180Y011430D02*
X024180Y009930D01*
X023430Y009180D01*
X020680Y009180D01*
X018930Y007430D01*
X014180Y007430D01*
X010930Y004180D01*
X007430Y004180D01*
X006830Y004780D01*
X006830Y005180D01*
X007623Y005252D02*
X008600Y005252D01*
X008600Y005411D02*
X008760Y005411D01*
X008760Y005260D02*
X008760Y005953D01*
X009000Y005953D01*
X009453Y005500D01*
X009453Y005260D01*
X008760Y005260D01*
X008760Y005252D02*
X009737Y005252D01*
X009737Y005094D02*
X009453Y005094D01*
X009453Y004935D02*
X009737Y004935D01*
X009812Y004777D02*
X009370Y004777D01*
X009211Y004618D02*
X009970Y004618D01*
X010530Y005180D02*
X011430Y005180D01*
X013930Y007680D01*
X014141Y006996D02*
X014817Y006996D01*
X014700Y006837D02*
X013983Y006837D01*
X013824Y006679D02*
X014700Y006679D01*
X014700Y006520D02*
X013666Y006520D01*
X013507Y006362D02*
X014820Y006362D01*
X014978Y006203D02*
X013907Y006203D01*
X014122Y006045D02*
X017649Y006045D01*
X017647Y006049D02*
X017736Y005836D01*
X017899Y005673D01*
X017900Y005672D01*
X017899Y005672D01*
X017736Y005509D01*
X017647Y005295D01*
X017647Y005065D01*
X017736Y004851D01*
X017899Y004688D01*
X017933Y004674D01*
X017862Y004623D01*
X017800Y004561D01*
X017748Y004489D01*
X017708Y004411D01*
X017681Y004327D01*
X017667Y004240D01*
X017667Y004214D01*
X018209Y004214D01*
X018209Y004177D01*
X018246Y004177D01*
X018246Y004214D01*
X018787Y004214D01*
X018787Y004240D01*
X018773Y004327D01*
X018746Y004411D01*
X018706Y004489D01*
X018654Y004561D01*
X018592Y004623D01*
X018522Y004674D01*
X018556Y004688D01*
X018719Y004851D01*
X018807Y005065D01*
X018807Y005295D01*
X018719Y005509D01*
X018556Y005672D01*
X018555Y005672D01*
X018556Y005673D01*
X018719Y005836D01*
X018807Y006049D01*
X018807Y006280D01*
X018719Y006493D01*
X018556Y006656D01*
X018343Y006744D01*
X018112Y006744D01*
X017899Y006656D01*
X017865Y006622D01*
X017865Y006755D01*
X017405Y006755D01*
X017405Y006755D01*
X017405Y006295D01*
X017596Y006295D01*
X017695Y006394D01*
X017647Y006280D01*
X017647Y006049D01*
X017647Y006203D02*
X015382Y006203D01*
X015540Y006362D02*
X017148Y006362D01*
X017214Y006295D02*
X017405Y006295D01*
X017405Y006755D01*
X017405Y006755D01*
X017405Y006755D01*
X016945Y006755D01*
X016945Y006564D01*
X017214Y006295D01*
X017405Y006362D02*
X017405Y006362D01*
X017405Y006520D02*
X017405Y006520D01*
X017405Y006679D02*
X017405Y006679D01*
X017662Y006362D02*
X017681Y006362D01*
X017865Y006679D02*
X017953Y006679D01*
X017865Y006837D02*
X020446Y006837D01*
X020446Y006872D02*
X020446Y006648D01*
X020876Y006218D01*
X021100Y006218D01*
X021100Y006872D01*
X020446Y006872D01*
X020446Y007032D02*
X021100Y007032D01*
X021100Y007685D01*
X020876Y007685D01*
X020446Y007256D01*
X020446Y007032D01*
X020446Y007154D02*
X018995Y007154D01*
X019208Y007313D02*
X020503Y007313D01*
X020662Y007471D02*
X019367Y007471D01*
X019525Y007630D02*
X020820Y007630D01*
X021100Y007630D02*
X021260Y007630D01*
X021260Y007685D02*
X021260Y007032D01*
X021100Y007032D01*
X021100Y006872D01*
X021260Y006872D01*
X021260Y007032D01*
X021914Y007032D01*
X021914Y007256D01*
X021484Y007685D01*
X021260Y007685D01*
X021260Y007471D02*
X021100Y007471D01*
X021100Y007313D02*
X021260Y007313D01*
X021260Y007154D02*
X021100Y007154D01*
X021100Y006996D02*
X017815Y006996D01*
X018501Y006679D02*
X020446Y006679D01*
X020574Y006520D02*
X018692Y006520D01*
X018773Y006362D02*
X020733Y006362D01*
X021100Y006362D02*
X021260Y006362D01*
X021260Y006218D02*
X021484Y006218D01*
X021914Y006648D01*
X021914Y006872D01*
X021260Y006872D01*
X021260Y006218D01*
X021627Y006362D02*
X022400Y006362D01*
X022400Y006520D02*
X021786Y006520D01*
X021914Y006679D02*
X022400Y006679D01*
X022400Y006837D02*
X021914Y006837D01*
X022400Y006996D02*
X021260Y006996D01*
X021260Y006837D02*
X021100Y006837D01*
X021100Y006679D02*
X021260Y006679D01*
X021260Y006520D02*
X021100Y006520D01*
X021914Y007154D02*
X022400Y007154D01*
X022400Y007313D02*
X021857Y007313D01*
X021698Y007471D02*
X022400Y007471D01*
X022400Y007630D02*
X021540Y007630D01*
X021863Y007788D02*
X019684Y007788D01*
X019842Y007947D02*
X021745Y007947D01*
X021700Y008105D02*
X020001Y008105D01*
X020159Y008264D02*
X021700Y008264D01*
X021700Y008422D02*
X020318Y008422D01*
X020476Y008581D02*
X021700Y008581D01*
X021700Y008739D02*
X020635Y008739D01*
X020793Y008898D02*
X021738Y008898D01*
X022180Y008430D02*
X022680Y007930D01*
X022680Y003180D01*
X021680Y002180D01*
X016930Y002180D01*
X016450Y002241D02*
X015765Y002241D01*
X015607Y002399D02*
X016470Y002399D01*
X016629Y002558D02*
X015448Y002558D01*
X015290Y002716D02*
X020835Y002716D01*
X020876Y002675D02*
X021100Y002675D01*
X021100Y003328D01*
X021260Y003328D01*
X021260Y002675D01*
X021484Y002675D01*
X021914Y003104D01*
X021914Y003328D01*
X021260Y003328D01*
X021260Y003488D01*
X021914Y003488D01*
X021914Y003712D01*
X021484Y004142D01*
X021260Y004142D01*
X021260Y003488D01*
X021100Y003488D01*
X021100Y003328D01*
X020446Y003328D01*
X020446Y003104D01*
X020876Y002675D01*
X021100Y002716D02*
X021260Y002716D01*
X021260Y002875D02*
X021100Y002875D01*
X021100Y003033D02*
X021260Y003033D01*
X021260Y003192D02*
X021100Y003192D01*
X021100Y003350D02*
X015501Y003350D01*
X015371Y003220D02*
X015180Y003220D01*
X015180Y003680D01*
X015180Y003680D01*
X015180Y004140D01*
X015371Y004140D01*
X015640Y003871D01*
X015640Y003680D01*
X015180Y003680D01*
X015180Y003680D01*
X015180Y003680D01*
X014720Y003680D01*
X014720Y003871D01*
X014989Y004140D01*
X015180Y004140D01*
X015180Y003680D01*
X015640Y003680D01*
X015640Y003489D01*
X015371Y003220D01*
X015180Y003220D02*
X015180Y003680D01*
X015180Y003680D01*
X014720Y003680D01*
X014720Y003489D01*
X014989Y003220D01*
X015180Y003220D01*
X015180Y003350D02*
X015180Y003350D01*
X015180Y003509D02*
X015180Y003509D01*
X015180Y003667D02*
X015180Y003667D01*
X015180Y003826D02*
X015180Y003826D01*
X015180Y003984D02*
X015180Y003984D01*
X015527Y003984D02*
X017707Y003984D01*
X017708Y003981D02*
X017748Y003902D01*
X017800Y003831D01*
X017862Y003769D01*
X017934Y003717D01*
X018012Y003677D01*
X018096Y003650D01*
X018183Y003636D01*
X018209Y003636D01*
X018209Y004177D01*
X017667Y004177D01*
X017667Y004152D01*
X017681Y004065D01*
X017708Y003981D01*
X017669Y004143D02*
X013960Y004143D01*
X014022Y003984D02*
X014833Y003984D01*
X014720Y003826D02*
X014180Y003826D01*
X014339Y003667D02*
X014720Y003667D01*
X014720Y003509D02*
X014497Y003509D01*
X014656Y003350D02*
X014859Y003350D01*
X014814Y003192D02*
X020446Y003192D01*
X020518Y003033D02*
X014973Y003033D01*
X015131Y002875D02*
X020676Y002875D01*
X021260Y003350D02*
X022400Y003350D01*
X022400Y003509D02*
X021914Y003509D01*
X021914Y003667D02*
X022400Y003667D01*
X022400Y003826D02*
X021800Y003826D01*
X021642Y003984D02*
X022400Y003984D01*
X022400Y004143D02*
X018786Y004143D01*
X018787Y004152D02*
X018787Y004177D01*
X018246Y004177D01*
X018246Y003636D01*
X018271Y003636D01*
X018358Y003650D01*
X018442Y003677D01*
X018521Y003717D01*
X018592Y003769D01*
X018654Y003831D01*
X018706Y003902D01*
X018746Y003981D01*
X018773Y004065D01*
X018787Y004152D01*
X018778Y004301D02*
X022400Y004301D01*
X022400Y004460D02*
X018721Y004460D01*
X018597Y004618D02*
X022400Y004618D01*
X022400Y004777D02*
X018644Y004777D01*
X018754Y004935D02*
X022400Y004935D01*
X022400Y005094D02*
X018807Y005094D01*
X018807Y005252D02*
X022400Y005252D01*
X022400Y005411D02*
X018760Y005411D01*
X018658Y005569D02*
X022400Y005569D01*
X022400Y005728D02*
X018611Y005728D01*
X018740Y005886D02*
X022400Y005886D01*
X022400Y006045D02*
X018805Y006045D01*
X018807Y006203D02*
X022400Y006203D01*
X022960Y006679D02*
X023033Y006679D01*
X022960Y006837D02*
X023191Y006837D01*
X023350Y006996D02*
X022960Y006996D01*
X022960Y007154D02*
X023508Y007154D01*
X023667Y007313D02*
X022960Y007313D01*
X022960Y007471D02*
X023825Y007471D01*
X023900Y007630D02*
X022960Y007630D01*
X023497Y007788D02*
X023863Y007788D01*
X023745Y007947D02*
X023615Y007947D01*
X023660Y008105D02*
X023700Y008105D01*
X023700Y008264D02*
X023660Y008264D01*
X023660Y008422D02*
X023700Y008422D01*
X023700Y008581D02*
X023660Y008581D01*
X023660Y008739D02*
X023700Y008739D01*
X023738Y008898D02*
X023622Y008898D01*
X023702Y009056D02*
X023847Y009056D01*
X023860Y009215D02*
X027955Y009215D01*
X027875Y009134D02*
X027839Y009048D01*
X027773Y008982D01*
X027700Y008805D01*
X027700Y008055D01*
X027773Y007878D01*
X027908Y007743D01*
X028085Y007670D01*
X028275Y007670D01*
X028452Y007743D01*
X028587Y007878D01*
X028660Y008055D01*
X028660Y008805D01*
X028632Y008873D01*
X029384Y009625D01*
X029485Y009726D01*
X029540Y009858D01*
X029540Y010831D01*
X029587Y010878D01*
X029660Y011055D01*
X029660Y011805D01*
X029587Y011982D01*
X029452Y012117D01*
X029275Y012190D01*
X029085Y012190D01*
X028908Y012117D01*
X028773Y011982D01*
X028700Y011805D01*
X028700Y011055D01*
X028773Y010878D01*
X028820Y010831D01*
X028820Y010079D01*
X027875Y009134D01*
X027843Y009056D02*
X027513Y009056D01*
X027452Y009117D02*
X027275Y009190D01*
X027085Y009190D01*
X026908Y009117D01*
X026773Y008982D01*
X026700Y008805D01*
X026700Y008055D01*
X026773Y007878D01*
X026908Y007743D01*
X027085Y007670D01*
X027275Y007670D01*
X027452Y007743D01*
X027587Y007878D01*
X027660Y008055D01*
X027660Y008805D01*
X027587Y008982D01*
X027452Y009117D01*
X027622Y008898D02*
X027738Y008898D01*
X027700Y008739D02*
X027660Y008739D01*
X027660Y008581D02*
X027700Y008581D01*
X027700Y008422D02*
X027660Y008422D01*
X027660Y008264D02*
X027700Y008264D01*
X027700Y008105D02*
X027660Y008105D01*
X027615Y007947D02*
X027745Y007947D01*
X027863Y007788D02*
X027497Y007788D01*
X027135Y007379D02*
X026854Y007660D01*
X026456Y007660D01*
X026175Y007379D01*
X026175Y006981D01*
X026456Y006700D01*
X026854Y006700D01*
X027135Y006981D01*
X027135Y007379D01*
X027135Y007313D02*
X028003Y007313D01*
X027946Y007256D02*
X027946Y007032D01*
X028600Y007032D01*
X028600Y007685D01*
X028376Y007685D01*
X027946Y007256D01*
X027946Y007154D02*
X027135Y007154D01*
X027135Y006996D02*
X028600Y006996D01*
X028600Y007032D02*
X028600Y006872D01*
X027946Y006872D01*
X027946Y006648D01*
X028376Y006218D01*
X028600Y006218D01*
X028600Y006872D01*
X028760Y006872D01*
X028760Y007032D01*
X028600Y007032D01*
X028600Y007154D02*
X028760Y007154D01*
X028760Y007032D02*
X028760Y007685D01*
X028984Y007685D01*
X029414Y007256D01*
X029414Y007032D01*
X028760Y007032D01*
X028760Y006996D02*
X030150Y006996D01*
X030150Y007154D02*
X029414Y007154D01*
X029357Y007313D02*
X030150Y007313D01*
X030150Y007471D02*
X029198Y007471D01*
X029180Y007690D02*
X029216Y007690D01*
X029288Y007701D01*
X029357Y007724D01*
X029421Y007757D01*
X029480Y007799D01*
X029531Y007850D01*
X029573Y007909D01*
X029606Y007973D01*
X029629Y008042D01*
X029640Y008114D01*
X029640Y008430D01*
X029640Y008746D01*
X029629Y008818D01*
X029606Y008887D01*
X029573Y008951D01*
X029531Y009010D01*
X029480Y009061D01*
X029421Y009103D01*
X029357Y009136D01*
X029288Y009159D01*
X029216Y009170D01*
X029180Y009170D01*
X029180Y008430D01*
X029180Y008430D01*
X029640Y008430D01*
X029180Y008430D01*
X029180Y008430D01*
X029180Y008430D01*
X028720Y008430D01*
X028720Y008746D01*
X028731Y008818D01*
X028754Y008887D01*
X028787Y008951D01*
X028829Y009010D01*
X028880Y009061D01*
X028939Y009103D01*
X029003Y009136D01*
X029072Y009159D01*
X029144Y009170D01*
X029180Y009170D01*
X029180Y008430D01*
X029180Y007690D01*
X029180Y008430D01*
X029180Y008430D01*
X028720Y008430D01*
X028720Y008114D01*
X028731Y008042D01*
X028754Y007973D01*
X028787Y007909D01*
X028829Y007850D01*
X028880Y007799D01*
X028939Y007757D01*
X029003Y007724D01*
X029072Y007701D01*
X029144Y007690D01*
X029180Y007690D01*
X029180Y007788D02*
X029180Y007788D01*
X029180Y007947D02*
X029180Y007947D01*
X029180Y008105D02*
X029180Y008105D01*
X029180Y008264D02*
X029180Y008264D01*
X029180Y008422D02*
X029180Y008422D01*
X029180Y008581D02*
X029180Y008581D01*
X029180Y008739D02*
X029180Y008739D01*
X029180Y008898D02*
X029180Y008898D01*
X029180Y009056D02*
X029180Y009056D01*
X028974Y009215D02*
X029900Y009215D01*
X029900Y009373D02*
X029132Y009373D01*
X029291Y009532D02*
X029900Y009532D01*
X029900Y009690D02*
X029449Y009690D01*
X029536Y009849D02*
X029900Y009849D01*
X029909Y010007D02*
X029540Y010007D01*
X029540Y010166D02*
X030020Y010166D01*
X030178Y010324D02*
X029540Y010324D01*
X029540Y010483D02*
X030337Y010483D01*
X030400Y010641D02*
X029540Y010641D01*
X029540Y010800D02*
X029852Y010800D01*
X029740Y010958D02*
X029620Y010958D01*
X029660Y011117D02*
X029700Y011117D01*
X029700Y011275D02*
X029660Y011275D01*
X029660Y011434D02*
X029700Y011434D01*
X029700Y011592D02*
X029660Y011592D01*
X029660Y011751D02*
X029700Y011751D01*
X029743Y011909D02*
X029617Y011909D01*
X029501Y012068D02*
X029859Y012068D01*
X030400Y012226D02*
X027500Y012226D01*
X027501Y012068D02*
X027889Y012068D01*
X027880Y012061D02*
X027829Y012010D01*
X027787Y011951D01*
X027754Y011887D01*
X027731Y011818D01*
X027720Y011746D01*
X027720Y011430D01*
X028180Y011430D01*
X028180Y011430D01*
X028180Y012170D01*
X028216Y012170D01*
X028288Y012159D01*
X028357Y012136D01*
X028421Y012103D01*
X028480Y012061D01*
X028531Y012010D01*
X028573Y011951D01*
X028606Y011887D01*
X028629Y011818D01*
X028640Y011746D01*
X028640Y011430D01*
X028180Y011430D01*
X028180Y011430D01*
X028180Y011430D01*
X028180Y012170D01*
X028144Y012170D01*
X028072Y012159D01*
X028003Y012136D01*
X027939Y012103D01*
X027880Y012061D01*
X027765Y011909D02*
X027617Y011909D01*
X027660Y011751D02*
X027721Y011751D01*
X027720Y011592D02*
X027660Y011592D01*
X027660Y011434D02*
X027720Y011434D01*
X027720Y011430D02*
X027720Y011114D01*
X027731Y011042D01*
X027754Y010973D01*
X027787Y010909D01*
X027829Y010850D01*
X027880Y010799D01*
X027939Y010757D01*
X028003Y010724D01*
X028072Y010701D01*
X028144Y010690D01*
X028180Y010690D01*
X028216Y010690D01*
X028288Y010701D01*
X028357Y010724D01*
X028421Y010757D01*
X028480Y010799D01*
X028531Y010850D01*
X028573Y010909D01*
X028606Y010973D01*
X028629Y011042D01*
X028640Y011114D01*
X028640Y011430D01*
X028180Y011430D01*
X028180Y010690D01*
X028180Y011430D01*
X028180Y011430D01*
X027720Y011430D01*
X027720Y011275D02*
X027660Y011275D01*
X027660Y011117D02*
X027720Y011117D01*
X027762Y010958D02*
X027620Y010958D01*
X027508Y010800D02*
X027880Y010800D01*
X028180Y010800D02*
X028180Y010800D01*
X028180Y010958D02*
X028180Y010958D01*
X028180Y011117D02*
X028180Y011117D01*
X028180Y011275D02*
X028180Y011275D01*
X028180Y011434D02*
X028180Y011434D01*
X028180Y011592D02*
X028180Y011592D01*
X028180Y011751D02*
X028180Y011751D01*
X028180Y011909D02*
X028180Y011909D01*
X028180Y012068D02*
X028180Y012068D01*
X028471Y012068D02*
X028859Y012068D01*
X028743Y011909D02*
X028595Y011909D01*
X028639Y011751D02*
X028700Y011751D01*
X028700Y011592D02*
X028640Y011592D01*
X028640Y011434D02*
X028700Y011434D01*
X028700Y011275D02*
X028640Y011275D01*
X028640Y011117D02*
X028700Y011117D01*
X028740Y010958D02*
X028598Y010958D01*
X028480Y010800D02*
X028820Y010800D01*
X028820Y010641D02*
X024460Y010641D01*
X024460Y010483D02*
X028820Y010483D01*
X028820Y010324D02*
X024460Y010324D01*
X024460Y010166D02*
X028820Y010166D01*
X028748Y010007D02*
X024460Y010007D01*
X024449Y009849D02*
X028589Y009849D01*
X028431Y009690D02*
X024336Y009690D01*
X024177Y009532D02*
X028272Y009532D01*
X028114Y009373D02*
X024019Y009373D01*
X024513Y009056D02*
X024847Y009056D01*
X024908Y009117D02*
X024773Y008982D01*
X024700Y008805D01*
X024700Y008055D01*
X024773Y007878D01*
X024908Y007743D01*
X025085Y007670D01*
X025275Y007670D01*
X025452Y007743D01*
X025587Y007878D01*
X025660Y008055D01*
X025660Y008805D01*
X025587Y008982D01*
X025452Y009117D01*
X025275Y009190D01*
X025085Y009190D01*
X024908Y009117D01*
X024738Y008898D02*
X024622Y008898D01*
X024660Y008739D02*
X024700Y008739D01*
X024700Y008581D02*
X024660Y008581D01*
X024660Y008422D02*
X024700Y008422D01*
X024700Y008264D02*
X024660Y008264D01*
X024660Y008105D02*
X024700Y008105D01*
X024745Y007947D02*
X024615Y007947D01*
X024497Y007788D02*
X024863Y007788D01*
X024856Y007630D02*
X026426Y007630D01*
X026452Y007743D02*
X026275Y007670D01*
X026085Y007670D01*
X025908Y007743D01*
X025773Y007878D01*
X025700Y008055D01*
X025700Y008805D01*
X025773Y008982D01*
X025908Y009117D01*
X026085Y009190D01*
X026275Y009190D01*
X026452Y009117D01*
X026587Y008982D01*
X026660Y008805D01*
X026660Y008055D01*
X026587Y007878D01*
X026452Y007743D01*
X026497Y007788D02*
X026863Y007788D01*
X026884Y007630D02*
X028320Y007630D01*
X028162Y007471D02*
X027043Y007471D01*
X026267Y007471D02*
X025015Y007471D01*
X025115Y007313D02*
X026175Y007313D01*
X026175Y007154D02*
X025115Y007154D01*
X025115Y006996D02*
X026175Y006996D01*
X026319Y006837D02*
X024963Y006837D01*
X024655Y006837D02*
X024655Y006837D01*
X024655Y006720D02*
X024655Y007180D01*
X024655Y007180D01*
X024655Y006720D01*
X024655Y006996D02*
X024655Y006996D01*
X024655Y007154D02*
X024655Y007154D01*
X024655Y007313D02*
X024655Y007313D01*
X024655Y007471D02*
X024655Y007471D01*
X024655Y007630D02*
X024655Y007630D01*
X024180Y007430D02*
X024180Y008430D01*
X025497Y007788D02*
X025863Y007788D01*
X025745Y007947D02*
X025615Y007947D01*
X025660Y008105D02*
X025700Y008105D01*
X025700Y008264D02*
X025660Y008264D01*
X025660Y008422D02*
X025700Y008422D01*
X025700Y008581D02*
X025660Y008581D01*
X025660Y008739D02*
X025700Y008739D01*
X025738Y008898D02*
X025622Y008898D01*
X025513Y009056D02*
X025847Y009056D01*
X026513Y009056D02*
X026847Y009056D01*
X026738Y008898D02*
X026622Y008898D01*
X026660Y008739D02*
X026700Y008739D01*
X026700Y008581D02*
X026660Y008581D01*
X026660Y008422D02*
X026700Y008422D01*
X026700Y008264D02*
X026660Y008264D01*
X026660Y008105D02*
X026700Y008105D01*
X026745Y007947D02*
X026615Y007947D01*
X028497Y007788D02*
X028896Y007788D01*
X028767Y007947D02*
X028615Y007947D01*
X028660Y008105D02*
X028721Y008105D01*
X028720Y008264D02*
X028660Y008264D01*
X028660Y008422D02*
X028720Y008422D01*
X028720Y008581D02*
X028660Y008581D01*
X028660Y008739D02*
X028720Y008739D01*
X028759Y008898D02*
X028657Y008898D01*
X028815Y009056D02*
X028875Y009056D01*
X029485Y009056D02*
X029847Y009056D01*
X029738Y008898D02*
X029601Y008898D01*
X029640Y008739D02*
X029700Y008739D01*
X029700Y008581D02*
X029640Y008581D01*
X029640Y008422D02*
X029700Y008422D01*
X029700Y008264D02*
X029640Y008264D01*
X029639Y008105D02*
X029700Y008105D01*
X029745Y007947D02*
X029593Y007947D01*
X029464Y007788D02*
X029863Y007788D01*
X030234Y007630D02*
X029040Y007630D01*
X028760Y007630D02*
X028600Y007630D01*
X028600Y007471D02*
X028760Y007471D01*
X028760Y007313D02*
X028600Y007313D01*
X028760Y006872D02*
X029414Y006872D01*
X029414Y006648D01*
X028984Y006218D01*
X028760Y006218D01*
X028760Y006872D01*
X028760Y006837D02*
X028600Y006837D01*
X028600Y006679D02*
X028760Y006679D01*
X028760Y006520D02*
X028600Y006520D01*
X028600Y006362D02*
X028760Y006362D01*
X029127Y006362D02*
X030150Y006362D01*
X030150Y006520D02*
X029286Y006520D01*
X029414Y006679D02*
X030150Y006679D01*
X030150Y006837D02*
X029414Y006837D01*
X030150Y006203D02*
X026307Y006203D01*
X026305Y006045D02*
X030150Y006045D01*
X030106Y005886D02*
X026240Y005886D01*
X026111Y005728D02*
X030052Y005728D01*
X030067Y005569D02*
X026158Y005569D01*
X025727Y005180D02*
X031180Y005180D01*
X032180Y006180D01*
X032180Y007180D01*
X033180Y008180D01*
X033180Y008430D01*
X033660Y008422D02*
X033700Y008422D01*
X033700Y008264D02*
X033660Y008264D01*
X033660Y008105D02*
X033700Y008105D01*
X033700Y008055D02*
X033773Y007878D01*
X033908Y007743D01*
X034085Y007670D01*
X034275Y007670D01*
X034452Y007743D01*
X034587Y007878D01*
X034660Y008055D01*
X034660Y008805D01*
X034587Y008982D01*
X034452Y009117D01*
X034275Y009190D01*
X034085Y009190D01*
X033908Y009117D01*
X033773Y008982D01*
X033700Y008805D01*
X033700Y008055D01*
X033745Y007947D02*
X033615Y007947D01*
X033497Y007788D02*
X033863Y007788D01*
X034497Y007788D02*
X034863Y007788D01*
X034900Y007751D02*
X034900Y006796D01*
X033666Y005562D01*
X033556Y005672D01*
X033555Y005672D01*
X033556Y005673D01*
X033719Y005836D01*
X033807Y006049D01*
X033807Y006280D01*
X033719Y006493D01*
X033556Y006656D01*
X033343Y006744D01*
X033112Y006744D01*
X032899Y006656D01*
X032736Y006493D01*
X032647Y006280D01*
X032647Y006049D01*
X032736Y005836D01*
X032899Y005673D01*
X032900Y005672D01*
X032899Y005672D01*
X032736Y005509D01*
X032647Y005295D01*
X032647Y005065D01*
X032736Y004851D01*
X032899Y004688D01*
X032933Y004674D01*
X032862Y004623D01*
X032800Y004561D01*
X032748Y004489D01*
X032708Y004411D01*
X032681Y004327D01*
X032667Y004240D01*
X032667Y004214D01*
X033209Y004214D01*
X033209Y004177D01*
X033246Y004177D01*
X033246Y004214D01*
X033787Y004214D01*
X033787Y004240D01*
X033773Y004327D01*
X033746Y004411D01*
X033706Y004489D01*
X033654Y004561D01*
X033592Y004623D01*
X033522Y004674D01*
X033556Y004688D01*
X033719Y004851D01*
X033740Y004902D01*
X033839Y004943D01*
X035339Y006443D01*
X035417Y006521D01*
X035460Y006624D01*
X035460Y006634D01*
X035876Y006218D01*
X036100Y006218D01*
X036100Y006872D01*
X036260Y006872D01*
X036260Y007032D01*
X036100Y007032D01*
X036100Y007685D01*
X035876Y007685D01*
X035460Y007269D01*
X035460Y007751D01*
X035587Y007878D01*
X035660Y008055D01*
X035660Y008805D01*
X035587Y008982D01*
X035452Y009117D01*
X035275Y009190D01*
X035085Y009190D01*
X034908Y009117D01*
X034773Y008982D01*
X034700Y008805D01*
X034700Y008055D01*
X034773Y007878D01*
X034900Y007751D01*
X034900Y007630D02*
X033025Y007630D01*
X032867Y007471D02*
X034900Y007471D01*
X034900Y007313D02*
X032708Y007313D01*
X032550Y007154D02*
X034900Y007154D01*
X034900Y006996D02*
X032460Y006996D01*
X032460Y006837D02*
X034900Y006837D01*
X034783Y006679D02*
X033501Y006679D01*
X033692Y006520D02*
X034624Y006520D01*
X034466Y006362D02*
X033773Y006362D01*
X033807Y006203D02*
X034307Y006203D01*
X034149Y006045D02*
X033805Y006045D01*
X033740Y005886D02*
X033990Y005886D01*
X033832Y005728D02*
X033611Y005728D01*
X033658Y005569D02*
X033673Y005569D01*
X034306Y005411D02*
X040290Y005411D01*
X040290Y005569D02*
X034465Y005569D01*
X034623Y005728D02*
X040290Y005728D01*
X040290Y005886D02*
X034782Y005886D01*
X034940Y006045D02*
X040290Y006045D01*
X040290Y006203D02*
X035099Y006203D01*
X035257Y006362D02*
X035733Y006362D01*
X035574Y006520D02*
X035416Y006520D01*
X035180Y006680D02*
X035180Y008430D01*
X035660Y008422D02*
X035950Y008422D01*
X035950Y008264D02*
X035660Y008264D01*
X035660Y008105D02*
X036076Y008105D01*
X035950Y008231D02*
X036231Y007950D01*
X036629Y007950D01*
X036910Y008231D01*
X036910Y008629D01*
X036629Y008910D01*
X036231Y008910D01*
X035950Y008629D01*
X035950Y008231D01*
X035615Y007947D02*
X040290Y007947D01*
X040290Y008105D02*
X036784Y008105D01*
X036910Y008264D02*
X040290Y008264D01*
X040290Y008422D02*
X036910Y008422D01*
X036910Y008581D02*
X040290Y008581D01*
X040290Y008739D02*
X036800Y008739D01*
X036641Y008898D02*
X040290Y008898D01*
X040290Y009056D02*
X035513Y009056D01*
X035622Y008898D02*
X036219Y008898D01*
X036060Y008739D02*
X035660Y008739D01*
X035660Y008581D02*
X035950Y008581D01*
X034847Y009056D02*
X034513Y009056D01*
X034622Y008898D02*
X034738Y008898D01*
X034700Y008739D02*
X034660Y008739D01*
X034660Y008581D02*
X034700Y008581D01*
X034700Y008422D02*
X034660Y008422D01*
X034660Y008264D02*
X034700Y008264D01*
X034700Y008105D02*
X034660Y008105D01*
X034615Y007947D02*
X034745Y007947D01*
X035497Y007788D02*
X040290Y007788D01*
X040290Y007630D02*
X036540Y007630D01*
X036484Y007685D02*
X036260Y007685D01*
X036260Y007032D01*
X036914Y007032D01*
X036914Y007256D01*
X036484Y007685D01*
X036260Y007630D02*
X036100Y007630D01*
X036100Y007471D02*
X036260Y007471D01*
X036260Y007313D02*
X036100Y007313D01*
X036100Y007154D02*
X036260Y007154D01*
X036260Y006996D02*
X040290Y006996D01*
X040290Y007154D02*
X036914Y007154D01*
X036857Y007313D02*
X040290Y007313D01*
X040290Y007471D02*
X036698Y007471D01*
X035820Y007630D02*
X035460Y007630D01*
X035460Y007471D02*
X035662Y007471D01*
X035503Y007313D02*
X035460Y007313D01*
X036100Y006837D02*
X036260Y006837D01*
X036260Y006872D02*
X036260Y006218D01*
X036484Y006218D01*
X036914Y006648D01*
X036914Y006872D01*
X036260Y006872D01*
X036260Y006679D02*
X036100Y006679D01*
X036100Y006520D02*
X036260Y006520D01*
X036260Y006362D02*
X036100Y006362D01*
X036627Y006362D02*
X040290Y006362D01*
X040290Y006520D02*
X036786Y006520D01*
X036914Y006679D02*
X040290Y006679D01*
X040290Y006837D02*
X036914Y006837D01*
X035180Y006680D02*
X033680Y005180D01*
X033227Y005180D01*
X032695Y005411D02*
X031806Y005411D01*
X031965Y005569D02*
X032796Y005569D01*
X032844Y005728D02*
X032123Y005728D01*
X032282Y005886D02*
X032715Y005886D01*
X032649Y006045D02*
X032427Y006045D01*
X032460Y006203D02*
X032647Y006203D01*
X032681Y006362D02*
X032460Y006362D01*
X032460Y006520D02*
X032763Y006520D01*
X032953Y006679D02*
X032460Y006679D01*
X031900Y006679D02*
X030710Y006679D01*
X030710Y006837D02*
X031900Y006837D01*
X031900Y006996D02*
X030710Y006996D01*
X030710Y007154D02*
X031900Y007154D01*
X031932Y007313D02*
X030710Y007313D01*
X030867Y007471D02*
X032075Y007471D01*
X032234Y007630D02*
X031025Y007630D01*
X031497Y007788D02*
X031863Y007788D01*
X031745Y007947D02*
X031615Y007947D01*
X031660Y008105D02*
X031700Y008105D01*
X031700Y008264D02*
X031660Y008264D01*
X031660Y008422D02*
X031700Y008422D01*
X031700Y008581D02*
X031660Y008581D01*
X031660Y008739D02*
X031700Y008739D01*
X031738Y008898D02*
X031622Y008898D01*
X031513Y009056D02*
X031847Y009056D01*
X032513Y009056D02*
X032847Y009056D01*
X032738Y008898D02*
X032622Y008898D01*
X032660Y008739D02*
X032700Y008739D01*
X032700Y008581D02*
X032660Y008581D01*
X032660Y008422D02*
X032700Y008422D01*
X032700Y008264D02*
X032660Y008264D01*
X032660Y008105D02*
X032700Y008105D01*
X033660Y008581D02*
X033700Y008581D01*
X033700Y008739D02*
X033660Y008739D01*
X033622Y008898D02*
X033738Y008898D01*
X033847Y009056D02*
X033513Y009056D01*
X031180Y008430D02*
X031180Y008180D01*
X030430Y007430D01*
X030430Y005680D01*
X030793Y005569D02*
X031173Y005569D01*
X031332Y005728D02*
X030808Y005728D01*
X030754Y005886D02*
X031490Y005886D01*
X031649Y006045D02*
X030710Y006045D01*
X030710Y006203D02*
X031807Y006203D01*
X031900Y006362D02*
X030710Y006362D01*
X030710Y006520D02*
X031900Y006520D01*
X031648Y005252D02*
X032647Y005252D01*
X032647Y005094D02*
X031489Y005094D01*
X031320Y004935D02*
X032701Y004935D01*
X032810Y004777D02*
X026144Y004777D01*
X026097Y004618D02*
X032858Y004618D01*
X032733Y004460D02*
X026221Y004460D01*
X026278Y004301D02*
X032677Y004301D01*
X032667Y004177D02*
X032667Y004152D01*
X032681Y004065D01*
X032708Y003981D01*
X032748Y003902D01*
X032800Y003831D01*
X032862Y003769D01*
X032934Y003717D01*
X033012Y003677D01*
X033096Y003650D01*
X033183Y003636D01*
X033209Y003636D01*
X033209Y004177D01*
X032667Y004177D01*
X032669Y004143D02*
X026286Y004143D01*
X026287Y004152D02*
X026287Y004177D01*
X025746Y004177D01*
X025746Y003636D01*
X025771Y003636D01*
X025858Y003650D01*
X025942Y003677D01*
X026021Y003717D01*
X026092Y003769D01*
X026154Y003831D01*
X026206Y003902D01*
X026246Y003981D01*
X026273Y004065D01*
X026287Y004152D01*
X026247Y003984D02*
X028218Y003984D01*
X028376Y004142D02*
X027946Y003712D01*
X027946Y003488D01*
X028600Y003488D01*
X028600Y003328D01*
X028760Y003328D01*
X028760Y002675D01*
X028984Y002675D01*
X029414Y003104D01*
X029414Y003328D01*
X028760Y003328D01*
X028760Y003488D01*
X029414Y003488D01*
X029414Y003712D01*
X028984Y004142D01*
X028760Y004142D01*
X028760Y003488D01*
X028600Y003488D01*
X028600Y004142D01*
X028376Y004142D01*
X028600Y003984D02*
X028760Y003984D01*
X028760Y003826D02*
X028600Y003826D01*
X028600Y003667D02*
X028760Y003667D01*
X028760Y003509D02*
X028600Y003509D01*
X028600Y003350D02*
X023460Y003350D01*
X023460Y003192D02*
X027946Y003192D01*
X027946Y003104D02*
X028376Y002675D01*
X028600Y002675D01*
X028600Y003328D01*
X027946Y003328D01*
X027946Y003104D01*
X028018Y003033D02*
X023460Y003033D01*
X023460Y002875D02*
X028176Y002875D01*
X028335Y002716D02*
X023362Y002716D01*
X023203Y002558D02*
X040290Y002558D01*
X040290Y002716D02*
X036525Y002716D01*
X036484Y002675D02*
X036914Y003104D01*
X036914Y003328D01*
X036260Y003328D01*
X036260Y002675D01*
X036484Y002675D01*
X036260Y002716D02*
X036100Y002716D01*
X036100Y002675D02*
X036100Y003328D01*
X036260Y003328D01*
X036260Y003488D01*
X036914Y003488D01*
X036914Y003712D01*
X036484Y004142D01*
X036260Y004142D01*
X036260Y003488D01*
X036100Y003488D01*
X036100Y003328D01*
X035446Y003328D01*
X035446Y003104D01*
X035876Y002675D01*
X036100Y002675D01*
X036100Y002875D02*
X036260Y002875D01*
X036260Y003033D02*
X036100Y003033D01*
X036100Y003192D02*
X036260Y003192D01*
X036260Y003350D02*
X040290Y003350D01*
X040290Y003192D02*
X036914Y003192D01*
X036842Y003033D02*
X040290Y003033D01*
X040290Y002875D02*
X036684Y002875D01*
X036100Y003350D02*
X028760Y003350D01*
X028760Y003192D02*
X028600Y003192D01*
X028600Y003033D02*
X028760Y003033D01*
X028760Y002875D02*
X028600Y002875D01*
X028600Y002716D02*
X028760Y002716D01*
X029025Y002716D02*
X035835Y002716D01*
X035676Y002875D02*
X029184Y002875D01*
X029342Y003033D02*
X035518Y003033D01*
X035446Y003192D02*
X029414Y003192D01*
X029414Y003509D02*
X035446Y003509D01*
X035446Y003488D02*
X036100Y003488D01*
X036100Y004142D01*
X035876Y004142D01*
X035446Y003712D01*
X035446Y003488D01*
X035446Y003667D02*
X033412Y003667D01*
X033442Y003677D02*
X033521Y003717D01*
X033592Y003769D01*
X033654Y003831D01*
X033706Y003902D01*
X033746Y003981D01*
X033773Y004065D01*
X033787Y004152D01*
X033787Y004177D01*
X033246Y004177D01*
X033246Y003636D01*
X033271Y003636D01*
X033358Y003650D01*
X033442Y003677D01*
X033246Y003667D02*
X033209Y003667D01*
X033209Y003826D02*
X033246Y003826D01*
X033246Y003984D02*
X033209Y003984D01*
X033209Y004143D02*
X033246Y004143D01*
X033747Y003984D02*
X035718Y003984D01*
X035560Y003826D02*
X033649Y003826D01*
X033042Y003667D02*
X029414Y003667D01*
X029300Y003826D02*
X032806Y003826D01*
X032707Y003984D02*
X029142Y003984D01*
X028060Y003826D02*
X026149Y003826D01*
X025912Y003667D02*
X027946Y003667D01*
X027946Y003509D02*
X023460Y003509D01*
X023460Y003667D02*
X025542Y003667D01*
X025512Y003677D02*
X025596Y003650D01*
X025683Y003636D01*
X025709Y003636D01*
X025709Y004177D01*
X025167Y004177D01*
X025167Y004152D01*
X025181Y004065D01*
X025208Y003981D01*
X025248Y003902D01*
X025300Y003831D01*
X025362Y003769D01*
X025434Y003717D01*
X025512Y003677D01*
X025709Y003667D02*
X025746Y003667D01*
X025746Y003826D02*
X025709Y003826D01*
X025709Y003984D02*
X025746Y003984D01*
X025746Y004143D02*
X025709Y004143D01*
X025207Y003984D02*
X023460Y003984D01*
X023460Y003826D02*
X025306Y003826D01*
X025169Y004143D02*
X023460Y004143D01*
X023460Y004301D02*
X025177Y004301D01*
X025233Y004460D02*
X023460Y004460D01*
X023460Y004618D02*
X025358Y004618D01*
X025310Y004777D02*
X023460Y004777D01*
X023460Y004935D02*
X025201Y004935D01*
X025147Y005094D02*
X023460Y005094D01*
X023460Y005252D02*
X025147Y005252D01*
X025195Y005411D02*
X023460Y005411D01*
X023460Y005569D02*
X025296Y005569D01*
X025344Y005728D02*
X023460Y005728D01*
X023460Y005886D02*
X025215Y005886D01*
X025149Y006045D02*
X023460Y006045D01*
X023460Y006203D02*
X025147Y006203D01*
X025181Y006362D02*
X023507Y006362D01*
X023666Y006520D02*
X025263Y006520D01*
X025453Y006679D02*
X023824Y006679D01*
X023983Y006837D02*
X024347Y006837D01*
X024195Y006996D02*
X024141Y006996D01*
X024180Y007430D02*
X023180Y006430D01*
X023180Y002930D01*
X021930Y001680D01*
X015930Y001680D01*
X013680Y003930D01*
X013680Y004680D01*
X014206Y004460D02*
X017733Y004460D01*
X017677Y004301D02*
X014107Y004301D01*
X014250Y004618D02*
X017858Y004618D01*
X017810Y004777D02*
X014250Y004777D01*
X014191Y004935D02*
X017701Y004935D01*
X017647Y005094D02*
X014073Y005094D01*
X014058Y005252D02*
X017647Y005252D01*
X017695Y005411D02*
X014185Y005411D01*
X014250Y005569D02*
X017796Y005569D01*
X017844Y005728D02*
X014250Y005728D01*
X014212Y005886D02*
X017715Y005886D01*
X016989Y006520D02*
X015660Y006520D01*
X015660Y006679D02*
X016945Y006679D01*
X016945Y006837D02*
X015660Y006837D01*
X015543Y006996D02*
X016995Y006996D01*
X019002Y008898D02*
X009926Y008898D01*
X009926Y009056D02*
X019160Y009056D01*
X019021Y009215D02*
X019319Y009215D01*
X019170Y009373D02*
X019477Y009373D01*
X019636Y009532D02*
X019235Y009532D01*
X019250Y009690D02*
X019794Y009690D01*
X019953Y009849D02*
X019227Y009849D01*
X019159Y010007D02*
X021861Y010007D01*
X024508Y010800D02*
X024852Y010800D01*
X024740Y010958D02*
X024620Y010958D01*
X024660Y011117D02*
X024700Y011117D01*
X024700Y011275D02*
X024660Y011275D01*
X024660Y011434D02*
X024700Y011434D01*
X024700Y011592D02*
X024660Y011592D01*
X024660Y011751D02*
X024700Y011751D01*
X025660Y011275D02*
X025700Y011275D01*
X025700Y011117D02*
X025660Y011117D01*
X025620Y010958D02*
X025740Y010958D01*
X025852Y010800D02*
X025508Y010800D01*
X026508Y010800D02*
X026852Y010800D01*
X026740Y010958D02*
X026620Y010958D01*
X026660Y011117D02*
X026700Y011117D01*
X026700Y011275D02*
X026660Y011275D01*
X026660Y011434D02*
X026700Y011434D01*
X026700Y011592D02*
X026660Y011592D01*
X026660Y011751D02*
X026700Y011751D01*
X026743Y011909D02*
X026617Y011909D01*
X026501Y012068D02*
X026859Y012068D01*
X026860Y012226D02*
X026456Y012226D01*
X026303Y012385D02*
X026723Y012385D01*
X027459Y012543D02*
X030400Y012543D01*
X030400Y012385D02*
X027500Y012385D01*
X027311Y012702D02*
X028349Y012702D01*
X028376Y012675D02*
X028600Y012675D01*
X028600Y013328D01*
X028760Y013328D01*
X028760Y012675D01*
X028984Y012675D01*
X029414Y013104D01*
X029414Y013328D01*
X028760Y013328D01*
X028760Y013488D01*
X029414Y013488D01*
X029414Y013712D01*
X028984Y014142D01*
X028760Y014142D01*
X028760Y013488D01*
X028600Y013488D01*
X028600Y013328D01*
X027946Y013328D01*
X027946Y013104D01*
X028376Y012675D01*
X028600Y012702D02*
X028760Y012702D01*
X028760Y012860D02*
X028600Y012860D01*
X028600Y013019D02*
X028760Y013019D01*
X028760Y013177D02*
X028600Y013177D01*
X028600Y013336D02*
X026800Y013336D01*
X026779Y013494D02*
X027946Y013494D01*
X027946Y013488D02*
X028600Y013488D01*
X028600Y014142D01*
X028376Y014142D01*
X027946Y013712D01*
X027946Y013488D01*
X027946Y013653D02*
X026713Y013653D01*
X026555Y013811D02*
X028045Y013811D01*
X028204Y013970D02*
X026240Y013970D01*
X026283Y014128D02*
X028362Y014128D01*
X028600Y014128D02*
X028760Y014128D01*
X028760Y013970D02*
X028600Y013970D01*
X028600Y013811D02*
X028760Y013811D01*
X028760Y013653D02*
X028600Y013653D01*
X028600Y013494D02*
X028760Y013494D01*
X028760Y013336D02*
X030400Y013336D01*
X030400Y013494D02*
X029414Y013494D01*
X029414Y013653D02*
X030400Y013653D01*
X030400Y013811D02*
X029315Y013811D01*
X029156Y013970D02*
X030244Y013970D01*
X030086Y014128D02*
X028998Y014128D01*
X029927Y014287D02*
X026280Y014287D01*
X026229Y014445D02*
X027269Y014445D01*
X027110Y014604D02*
X026111Y014604D01*
X026130Y014762D02*
X026952Y014762D01*
X026900Y014921D02*
X026248Y014921D01*
X026307Y015079D02*
X026900Y015079D01*
X026900Y015238D02*
X026307Y015238D01*
X026266Y015396D02*
X026900Y015396D01*
X026900Y015555D02*
X026173Y015555D01*
X026096Y015713D02*
X026900Y015713D01*
X026900Y015872D02*
X026234Y015872D01*
X026299Y016030D02*
X026900Y016030D01*
X026900Y016189D02*
X026307Y016189D01*
X026279Y016347D02*
X026867Y016347D01*
X026708Y016506D02*
X026206Y016506D01*
X026680Y016930D02*
X024930Y016930D01*
X023180Y015180D01*
X018227Y015180D01*
X018673Y015555D02*
X023159Y015555D01*
X023317Y015713D02*
X018596Y015713D01*
X018734Y015872D02*
X023476Y015872D01*
X023634Y016030D02*
X018799Y016030D01*
X018807Y016189D02*
X023793Y016189D01*
X023951Y016347D02*
X021613Y016347D01*
X021484Y016218D02*
X021914Y016648D01*
X021914Y016872D01*
X021260Y016872D01*
X021260Y017032D01*
X021100Y017032D01*
X021100Y017685D01*
X020876Y017685D01*
X020446Y017256D01*
X020446Y017032D01*
X021100Y017032D01*
X021100Y016872D01*
X020446Y016872D01*
X020446Y016648D01*
X020876Y016218D01*
X021100Y016218D01*
X021100Y016872D01*
X021260Y016872D01*
X021260Y016218D01*
X021484Y016218D01*
X021260Y016347D02*
X021100Y016347D01*
X021100Y016506D02*
X021260Y016506D01*
X021260Y016664D02*
X021100Y016664D01*
X021100Y016823D02*
X021260Y016823D01*
X021260Y016981D02*
X023316Y016981D01*
X023354Y016943D02*
X023566Y016855D01*
X023794Y016855D01*
X024006Y016943D01*
X024167Y017104D01*
X024255Y017316D01*
X024255Y017544D01*
X024167Y017756D01*
X024006Y017917D01*
X023794Y018005D01*
X023566Y018005D01*
X023354Y017917D01*
X023193Y017756D01*
X023105Y017544D01*
X023105Y017316D01*
X023193Y017104D01*
X023354Y016943D01*
X023178Y017140D02*
X021914Y017140D01*
X021914Y017032D02*
X021914Y017256D01*
X021484Y017685D01*
X021260Y017685D01*
X021260Y017032D01*
X021914Y017032D01*
X021914Y016823D02*
X024427Y016823D01*
X024585Y016981D02*
X024044Y016981D01*
X024182Y017140D02*
X024744Y017140D01*
X024248Y017298D02*
X027989Y017298D01*
X027946Y017256D02*
X027946Y017032D01*
X028600Y017032D01*
X028600Y017685D01*
X028376Y017685D01*
X027946Y017256D01*
X027946Y017140D02*
X026866Y017140D01*
X027025Y016981D02*
X028600Y016981D01*
X028600Y017032D02*
X028600Y016872D01*
X027946Y016872D01*
X027946Y016648D01*
X028376Y016218D01*
X028600Y016218D01*
X028600Y016872D01*
X028760Y016872D01*
X028760Y017032D01*
X028600Y017032D01*
X028600Y017140D02*
X028760Y017140D01*
X028760Y017032D02*
X028760Y017685D01*
X028984Y017685D01*
X029414Y017256D01*
X029414Y017032D01*
X028760Y017032D01*
X028760Y016981D02*
X031650Y016981D01*
X031650Y016823D02*
X029414Y016823D01*
X029414Y016872D02*
X028760Y016872D01*
X028760Y016218D01*
X028984Y016218D01*
X029414Y016648D01*
X029414Y016872D01*
X029414Y016664D02*
X031650Y016664D01*
X031650Y016506D02*
X029271Y016506D01*
X029113Y016347D02*
X031650Y016347D01*
X031650Y016189D02*
X027460Y016189D01*
X027460Y016347D02*
X028247Y016347D01*
X028089Y016506D02*
X027452Y016506D01*
X027342Y016664D02*
X027946Y016664D01*
X027946Y016823D02*
X027183Y016823D01*
X027180Y016430D02*
X026680Y016930D01*
X027180Y016430D02*
X027180Y014930D01*
X027430Y014680D01*
X029930Y014680D01*
X030680Y013930D01*
X030680Y010430D01*
X030180Y009930D01*
X030180Y008430D01*
X030660Y008422D02*
X030700Y008422D01*
X030700Y008264D02*
X030660Y008264D01*
X030660Y008105D02*
X030700Y008105D01*
X030700Y008581D02*
X030660Y008581D01*
X030660Y008739D02*
X030700Y008739D01*
X030738Y008898D02*
X030622Y008898D01*
X030513Y009056D02*
X030847Y009056D01*
X030460Y009215D02*
X040290Y009215D01*
X040290Y009373D02*
X030460Y009373D01*
X030460Y009532D02*
X040290Y009532D01*
X040290Y009690D02*
X030460Y009690D01*
X030494Y009849D02*
X040290Y009849D01*
X040290Y010007D02*
X030653Y010007D01*
X030811Y010166D02*
X040290Y010166D01*
X040290Y010324D02*
X030939Y010324D01*
X030960Y010483D02*
X040290Y010483D01*
X040290Y010641D02*
X030960Y010641D01*
X031508Y010800D02*
X031852Y010800D01*
X031908Y010743D02*
X031773Y010878D01*
X031700Y011055D01*
X031700Y011805D01*
X031773Y011982D01*
X031908Y012117D01*
X032085Y012190D01*
X032275Y012190D01*
X032452Y012117D01*
X032587Y011982D01*
X032660Y011805D01*
X032660Y011055D01*
X032587Y010878D01*
X032452Y010743D01*
X032275Y010670D01*
X032085Y010670D01*
X031908Y010743D01*
X031740Y010958D02*
X031620Y010958D01*
X031660Y011117D02*
X031700Y011117D01*
X031700Y011275D02*
X031660Y011275D01*
X031660Y011434D02*
X031700Y011434D01*
X031700Y011592D02*
X031660Y011592D01*
X031660Y011751D02*
X031700Y011751D01*
X031743Y011909D02*
X031617Y011909D01*
X031501Y012068D02*
X031859Y012068D01*
X032501Y012068D02*
X032859Y012068D01*
X032878Y012086D02*
X032773Y011982D01*
X032700Y011805D01*
X032700Y011055D01*
X032773Y010878D01*
X032908Y010743D01*
X033085Y010670D01*
X033275Y010670D01*
X033452Y010743D01*
X033587Y010878D01*
X033660Y011055D01*
X033660Y011805D01*
X033587Y011982D01*
X033460Y012109D01*
X033460Y012236D01*
X033417Y012339D01*
X032210Y013546D01*
X032210Y017314D01*
X033024Y018128D01*
X033067Y018110D01*
X033214Y018110D01*
X032443Y017339D01*
X032400Y017236D01*
X032400Y013624D01*
X032443Y013521D01*
X032521Y013443D01*
X032521Y013443D01*
X033878Y012086D01*
X033773Y011982D01*
X033700Y011805D01*
X033700Y011055D01*
X033773Y010878D01*
X033908Y010743D01*
X034085Y010670D01*
X034275Y010670D01*
X034452Y010743D01*
X034587Y010878D01*
X034660Y011055D01*
X034660Y011805D01*
X034587Y011982D01*
X034460Y012109D01*
X034460Y012236D01*
X034417Y012339D01*
X033108Y013648D01*
X033183Y013636D01*
X033209Y013636D01*
X033209Y014177D01*
X033246Y014177D01*
X033246Y014214D01*
X033787Y014214D01*
X033787Y014240D01*
X033773Y014327D01*
X033746Y014411D01*
X033706Y014489D01*
X033654Y014561D01*
X033592Y014623D01*
X033522Y014674D01*
X033556Y014688D01*
X033719Y014851D01*
X033807Y015065D01*
X033807Y015295D01*
X033719Y015509D01*
X033556Y015672D01*
X033555Y015672D01*
X033556Y015673D01*
X033719Y015836D01*
X033807Y016049D01*
X033807Y016280D01*
X033719Y016493D01*
X033556Y016656D01*
X033343Y016744D01*
X033112Y016744D01*
X032960Y016681D01*
X032960Y017064D01*
X034024Y018128D01*
X034067Y018110D01*
X034293Y018110D01*
X034503Y018197D01*
X034663Y018357D01*
X034680Y018398D01*
X034697Y018357D01*
X034857Y018197D01*
X035067Y018110D01*
X035293Y018110D01*
X035503Y018197D01*
X035663Y018357D01*
X035692Y018426D01*
X035710Y018392D01*
X035760Y018322D01*
X035822Y018260D01*
X035892Y018210D01*
X035969Y018170D01*
X036051Y018144D01*
X036137Y018130D01*
X036160Y018130D01*
X036160Y018660D01*
X036200Y018660D01*
X036200Y018700D01*
X036160Y018700D01*
X036160Y019230D01*
X036137Y019230D01*
X036051Y019216D01*
X035969Y019190D01*
X035892Y019150D01*
X035822Y019100D01*
X035760Y019038D01*
X035710Y018968D01*
X035692Y018934D01*
X035663Y019003D01*
X035503Y019163D01*
X035293Y019250D01*
X035067Y019250D01*
X034857Y019163D01*
X034697Y019003D01*
X034680Y018962D01*
X034663Y019003D01*
X034503Y019163D01*
X034293Y019250D01*
X034067Y019250D01*
X033857Y019163D01*
X033697Y019003D01*
X033680Y018962D01*
X033663Y019003D01*
X033503Y019163D01*
X033293Y019250D01*
X033067Y019250D01*
X032857Y019163D01*
X032697Y019003D01*
X032680Y018962D01*
X032663Y019003D01*
X032503Y019163D01*
X032293Y019250D01*
X032067Y019250D01*
X031857Y019163D01*
X031697Y019003D01*
X031610Y018793D01*
X031610Y018567D01*
X031697Y018357D01*
X031857Y018197D01*
X032067Y018110D01*
X032214Y018110D01*
X031693Y017589D01*
X031650Y017486D01*
X031650Y013374D01*
X031693Y013271D01*
X031771Y013193D01*
X032878Y012086D01*
X032738Y012226D02*
X030960Y012226D01*
X030960Y012385D02*
X032580Y012385D01*
X032421Y012543D02*
X030960Y012543D01*
X030960Y012702D02*
X032263Y012702D01*
X032104Y012860D02*
X030960Y012860D01*
X030960Y013019D02*
X031945Y013019D01*
X031787Y013177D02*
X030960Y013177D01*
X030960Y013336D02*
X031666Y013336D01*
X031650Y013494D02*
X030960Y013494D01*
X030960Y013653D02*
X031650Y013653D01*
X031650Y013811D02*
X030960Y013811D01*
X030960Y013970D02*
X031650Y013970D01*
X031650Y014128D02*
X030878Y014128D01*
X030719Y014287D02*
X031650Y014287D01*
X031650Y014445D02*
X030561Y014445D01*
X030402Y014604D02*
X031650Y014604D01*
X031650Y014762D02*
X030244Y014762D01*
X030081Y014921D02*
X031650Y014921D01*
X031650Y015079D02*
X027460Y015079D01*
X027460Y015238D02*
X031650Y015238D01*
X031650Y015396D02*
X027460Y015396D01*
X027460Y015555D02*
X031650Y015555D01*
X031650Y015713D02*
X027460Y015713D01*
X027460Y015872D02*
X031650Y015872D01*
X031650Y016030D02*
X027460Y016030D01*
X028600Y016347D02*
X028760Y016347D01*
X028760Y016506D02*
X028600Y016506D01*
X028600Y016664D02*
X028760Y016664D01*
X028760Y016823D02*
X028600Y016823D01*
X028600Y017298D02*
X028760Y017298D01*
X028760Y017457D02*
X028600Y017457D01*
X028600Y017615D02*
X028760Y017615D01*
X029054Y017615D02*
X031719Y017615D01*
X031650Y017457D02*
X029213Y017457D01*
X029371Y017298D02*
X031650Y017298D01*
X031650Y017140D02*
X029414Y017140D01*
X028306Y017615D02*
X024226Y017615D01*
X024255Y017457D02*
X028147Y017457D01*
X025248Y016506D02*
X024902Y016506D01*
X024743Y016347D02*
X025175Y016347D01*
X025147Y016189D02*
X024585Y016189D01*
X024426Y016030D02*
X025155Y016030D01*
X025221Y015872D02*
X024268Y015872D01*
X024109Y015713D02*
X025358Y015713D01*
X025282Y015555D02*
X023951Y015555D01*
X023792Y015396D02*
X025189Y015396D01*
X025147Y015238D02*
X023634Y015238D01*
X023475Y015079D02*
X025147Y015079D01*
X025207Y014921D02*
X023285Y014921D01*
X025709Y014128D02*
X025746Y014128D01*
X025746Y013970D02*
X025709Y013970D01*
X025709Y013811D02*
X025746Y013811D01*
X025746Y013653D02*
X025709Y013653D01*
X026836Y013177D02*
X027946Y013177D01*
X028032Y013019D02*
X026994Y013019D01*
X027153Y012860D02*
X028191Y012860D01*
X029011Y012702D02*
X030400Y012702D01*
X030400Y012860D02*
X029169Y012860D01*
X029328Y013019D02*
X030400Y013019D01*
X030400Y013177D02*
X029414Y013177D01*
X031930Y013430D02*
X031930Y017430D01*
X033180Y018680D01*
X033625Y019042D02*
X033735Y019042D01*
X033946Y019200D02*
X033414Y019200D01*
X032946Y019200D02*
X032414Y019200D01*
X032625Y019042D02*
X032735Y019042D01*
X031946Y019200D02*
X024235Y019200D01*
X024235Y019430D01*
X023680Y019430D01*
X023680Y019430D01*
X023680Y018875D01*
X023910Y018875D01*
X024235Y019200D01*
X024235Y019359D02*
X038610Y019359D01*
X038610Y019517D02*
X024235Y019517D01*
X024219Y019676D02*
X038766Y019676D01*
X038924Y019834D02*
X024061Y019834D01*
X023299Y019834D02*
X019427Y019834D01*
X019371Y019890D02*
X019180Y019890D01*
X019180Y019430D01*
X019180Y019430D01*
X019640Y019430D01*
X019640Y019621D01*
X019371Y019890D01*
X019180Y019890D02*
X018989Y019890D01*
X018720Y019621D01*
X018720Y019430D01*
X019180Y019430D01*
X019180Y019430D01*
X019180Y019430D01*
X019180Y019890D01*
X019180Y019834D02*
X019180Y019834D01*
X019180Y019676D02*
X019180Y019676D01*
X019180Y019517D02*
X019180Y019517D01*
X019180Y019430D02*
X018720Y019430D01*
X018720Y019239D01*
X018989Y018970D01*
X019180Y018970D01*
X019371Y018970D01*
X019450Y019049D01*
X019450Y018839D01*
X019379Y018910D01*
X018981Y018910D01*
X018700Y018629D01*
X018700Y018231D01*
X018981Y017950D01*
X019379Y017950D01*
X019660Y018231D01*
X019660Y018521D01*
X019731Y018450D01*
X020129Y018450D01*
X020410Y018731D01*
X020410Y019129D01*
X020129Y019410D01*
X019731Y019410D01*
X019640Y019319D01*
X019640Y019430D01*
X019180Y019430D01*
X019180Y018970D01*
X019180Y019430D01*
X019180Y019430D01*
X019180Y019359D02*
X019180Y019359D01*
X019180Y019200D02*
X019180Y019200D01*
X019180Y019042D02*
X019180Y019042D01*
X019442Y019042D02*
X019450Y019042D01*
X019450Y018883D02*
X019406Y018883D01*
X018954Y018883D02*
X018406Y018883D01*
X018379Y018910D02*
X017981Y018910D01*
X017700Y018629D01*
X017700Y018231D01*
X017981Y017950D01*
X018379Y017950D01*
X018660Y018231D01*
X018660Y018629D01*
X018379Y018910D01*
X018379Y018950D02*
X017981Y018950D01*
X017700Y019231D01*
X017700Y019629D01*
X017981Y019910D01*
X018379Y019910D01*
X018660Y019629D01*
X018660Y019231D01*
X018379Y018950D01*
X018470Y019042D02*
X018918Y019042D01*
X018759Y019200D02*
X018629Y019200D01*
X018660Y019359D02*
X018720Y019359D01*
X018720Y019517D02*
X018660Y019517D01*
X018613Y019676D02*
X018775Y019676D01*
X018933Y019834D02*
X018455Y019834D01*
X017905Y019834D02*
X015427Y019834D01*
X015585Y019676D02*
X017747Y019676D01*
X017700Y019517D02*
X015640Y019517D01*
X015640Y019359D02*
X017700Y019359D01*
X017731Y019200D02*
X015601Y019200D01*
X015442Y019042D02*
X017890Y019042D01*
X017954Y018883D02*
X015406Y018883D01*
X015564Y018725D02*
X017796Y018725D01*
X017700Y018566D02*
X015660Y018566D01*
X015660Y018408D02*
X017700Y018408D01*
X017700Y018249D02*
X015660Y018249D01*
X015519Y018091D02*
X017841Y018091D01*
X018519Y018091D02*
X018841Y018091D01*
X018700Y018249D02*
X018660Y018249D01*
X018660Y018408D02*
X018700Y018408D01*
X018700Y018566D02*
X018660Y018566D01*
X018564Y018725D02*
X018796Y018725D01*
X019660Y018408D02*
X031676Y018408D01*
X031610Y018566D02*
X020245Y018566D01*
X020403Y018725D02*
X031610Y018725D01*
X031647Y018883D02*
X023918Y018883D01*
X024076Y019042D02*
X031735Y019042D01*
X031805Y018249D02*
X019660Y018249D01*
X019519Y018091D02*
X032195Y018091D01*
X032036Y017932D02*
X023971Y017932D01*
X024150Y017774D02*
X031878Y017774D01*
X032511Y017615D02*
X032719Y017615D01*
X032670Y017774D02*
X032878Y017774D01*
X032828Y017932D02*
X033036Y017932D01*
X032987Y018091D02*
X033195Y018091D01*
X033670Y017774D02*
X040290Y017774D01*
X040290Y017932D02*
X033828Y017932D01*
X033987Y018091D02*
X040290Y018091D01*
X040290Y018249D02*
X037523Y018249D01*
X037538Y018260D02*
X037600Y018322D01*
X037650Y018392D01*
X037690Y018469D01*
X037716Y018551D01*
X037730Y018637D01*
X037730Y018660D01*
X037200Y018660D01*
X037200Y018700D01*
X037160Y018700D01*
X037160Y019230D01*
X037137Y019230D01*
X037051Y019216D01*
X036969Y019190D01*
X036892Y019150D01*
X036822Y019100D01*
X036760Y019038D01*
X036710Y018968D01*
X036680Y018910D01*
X036650Y018968D01*
X036600Y019038D01*
X036538Y019100D01*
X036468Y019150D01*
X036391Y019190D01*
X036309Y019216D01*
X036223Y019230D01*
X036200Y019230D01*
X036200Y018700D01*
X036630Y018700D01*
X037160Y018700D01*
X037160Y018660D01*
X037200Y018660D01*
X037200Y018130D01*
X037223Y018130D01*
X037309Y018144D01*
X037391Y018170D01*
X037468Y018210D01*
X037538Y018260D01*
X037658Y018408D02*
X039043Y018408D01*
X038884Y018566D02*
X037719Y018566D01*
X037730Y018700D02*
X037730Y018723D01*
X037716Y018809D01*
X037690Y018891D01*
X037650Y018968D01*
X037600Y019038D01*
X037538Y019100D01*
X037468Y019150D01*
X037391Y019190D01*
X037309Y019216D01*
X037223Y019230D01*
X037200Y019230D01*
X037200Y018700D01*
X037730Y018700D01*
X037730Y018725D02*
X038726Y018725D01*
X038610Y018883D02*
X037692Y018883D01*
X037596Y019042D02*
X038610Y019042D01*
X038610Y019200D02*
X037359Y019200D01*
X037200Y019200D02*
X037160Y019200D01*
X037160Y019042D02*
X037200Y019042D01*
X037200Y018883D02*
X037160Y018883D01*
X037160Y018725D02*
X037200Y018725D01*
X037160Y018660D02*
X036200Y018660D01*
X036200Y018130D01*
X036223Y018130D01*
X036309Y018144D01*
X036391Y018170D01*
X036468Y018210D01*
X036538Y018260D01*
X036600Y018322D01*
X036650Y018392D01*
X036680Y018450D01*
X036710Y018392D01*
X036760Y018322D01*
X036822Y018260D01*
X036892Y018210D01*
X036969Y018170D01*
X037051Y018144D01*
X037137Y018130D01*
X037160Y018130D01*
X037160Y018660D01*
X037160Y018566D02*
X037200Y018566D01*
X037200Y018408D02*
X037160Y018408D01*
X037160Y018249D02*
X037200Y018249D01*
X036837Y018249D02*
X036523Y018249D01*
X036658Y018408D02*
X036702Y018408D01*
X036200Y018408D02*
X036160Y018408D01*
X036160Y018566D02*
X036200Y018566D01*
X036200Y018725D02*
X036160Y018725D01*
X036160Y018883D02*
X036200Y018883D01*
X036200Y019042D02*
X036160Y019042D01*
X036160Y019200D02*
X036200Y019200D01*
X036359Y019200D02*
X037001Y019200D01*
X036764Y019042D02*
X036596Y019042D01*
X036001Y019200D02*
X035414Y019200D01*
X035625Y019042D02*
X035764Y019042D01*
X034946Y019200D02*
X034414Y019200D01*
X034625Y019042D02*
X034735Y019042D01*
X034180Y018680D02*
X032680Y017180D01*
X032680Y013680D01*
X034180Y012180D01*
X034180Y011430D01*
X034660Y011434D02*
X034700Y011434D01*
X034700Y011592D02*
X034660Y011592D01*
X034660Y011751D02*
X034700Y011751D01*
X034700Y011805D02*
X034700Y011055D01*
X034773Y010878D01*
X034908Y010743D01*
X035085Y010670D01*
X035275Y010670D01*
X035452Y010743D01*
X035587Y010878D01*
X035660Y011055D01*
X035660Y011805D01*
X035587Y011982D01*
X035452Y012117D01*
X035275Y012190D01*
X035085Y012190D01*
X034908Y012117D01*
X034773Y011982D01*
X034700Y011805D01*
X034743Y011909D02*
X034617Y011909D01*
X034501Y012068D02*
X034859Y012068D01*
X034460Y012226D02*
X040290Y012226D01*
X040290Y012068D02*
X035501Y012068D01*
X035617Y011909D02*
X036230Y011909D01*
X036231Y011910D02*
X035950Y011629D01*
X035950Y011231D01*
X036231Y010950D01*
X036629Y010950D01*
X036805Y011126D01*
X036981Y010950D01*
X037379Y010950D01*
X037660Y011231D01*
X037660Y011629D01*
X037379Y011910D01*
X036981Y011910D01*
X036805Y011734D01*
X036629Y011910D01*
X036231Y011910D01*
X036072Y011751D02*
X035660Y011751D01*
X035660Y011592D02*
X035950Y011592D01*
X035950Y011434D02*
X035660Y011434D01*
X035660Y011275D02*
X035950Y011275D01*
X036065Y011117D02*
X035660Y011117D01*
X035620Y010958D02*
X036223Y010958D01*
X036637Y010958D02*
X036973Y010958D01*
X036815Y011117D02*
X036795Y011117D01*
X037387Y010958D02*
X038973Y010958D01*
X038981Y010950D02*
X039379Y010950D01*
X039660Y011231D01*
X039660Y011629D01*
X039379Y011910D01*
X038981Y011910D01*
X038700Y011629D01*
X038700Y011231D01*
X038981Y010950D01*
X038815Y011117D02*
X037545Y011117D01*
X037660Y011275D02*
X038700Y011275D01*
X038700Y011434D02*
X037660Y011434D01*
X037660Y011592D02*
X038700Y011592D01*
X038822Y011751D02*
X037538Y011751D01*
X037380Y011909D02*
X038980Y011909D01*
X039380Y011909D02*
X040290Y011909D01*
X040290Y011751D02*
X039538Y011751D01*
X039660Y011592D02*
X040290Y011592D01*
X040290Y011434D02*
X039660Y011434D01*
X039660Y011275D02*
X040290Y011275D01*
X040290Y011117D02*
X039545Y011117D01*
X039387Y010958D02*
X040290Y010958D01*
X040290Y010800D02*
X035508Y010800D01*
X034852Y010800D02*
X034508Y010800D01*
X034620Y010958D02*
X034740Y010958D01*
X034700Y011117D02*
X034660Y011117D01*
X034660Y011275D02*
X034700Y011275D01*
X033852Y010800D02*
X033508Y010800D01*
X033620Y010958D02*
X033740Y010958D01*
X033700Y011117D02*
X033660Y011117D01*
X033660Y011275D02*
X033700Y011275D01*
X033700Y011434D02*
X033660Y011434D01*
X033660Y011592D02*
X033700Y011592D01*
X033700Y011751D02*
X033660Y011751D01*
X033617Y011909D02*
X033743Y011909D01*
X033859Y012068D02*
X033501Y012068D01*
X033460Y012226D02*
X033738Y012226D01*
X033580Y012385D02*
X033371Y012385D01*
X033421Y012543D02*
X033213Y012543D01*
X033263Y012702D02*
X033054Y012702D01*
X033104Y012860D02*
X032896Y012860D01*
X032945Y013019D02*
X032737Y013019D01*
X032787Y013177D02*
X032579Y013177D01*
X032628Y013336D02*
X032420Y013336D01*
X032470Y013494D02*
X032262Y013494D01*
X032210Y013653D02*
X032400Y013653D01*
X032400Y013811D02*
X032210Y013811D01*
X032210Y013970D02*
X032400Y013970D01*
X032400Y014128D02*
X032210Y014128D01*
X032210Y014287D02*
X032400Y014287D01*
X032400Y014445D02*
X032210Y014445D01*
X032210Y014604D02*
X032400Y014604D01*
X032400Y014762D02*
X032210Y014762D01*
X032210Y014921D02*
X032400Y014921D01*
X032400Y015079D02*
X032210Y015079D01*
X032210Y015238D02*
X032400Y015238D01*
X032400Y015396D02*
X032210Y015396D01*
X032210Y015555D02*
X032400Y015555D01*
X032400Y015713D02*
X032210Y015713D01*
X032210Y015872D02*
X032400Y015872D01*
X032400Y016030D02*
X032210Y016030D01*
X032210Y016189D02*
X032400Y016189D01*
X032400Y016347D02*
X032210Y016347D01*
X032210Y016506D02*
X032400Y016506D01*
X032400Y016664D02*
X032210Y016664D01*
X032210Y016823D02*
X032400Y016823D01*
X032400Y016981D02*
X032210Y016981D01*
X032210Y017140D02*
X032400Y017140D01*
X032426Y017298D02*
X032210Y017298D01*
X032353Y017457D02*
X032561Y017457D01*
X033036Y017140D02*
X035446Y017140D01*
X035446Y017032D02*
X035446Y017256D01*
X035876Y017685D01*
X036100Y017685D01*
X036100Y017032D01*
X036260Y017032D01*
X036260Y017685D01*
X036484Y017685D01*
X036914Y017256D01*
X036914Y017032D01*
X036260Y017032D01*
X036260Y016872D01*
X036914Y016872D01*
X036914Y016648D01*
X036484Y016218D01*
X036260Y016218D01*
X036260Y016872D01*
X036100Y016872D01*
X035446Y016872D01*
X035446Y016648D01*
X035876Y016218D01*
X036100Y016218D01*
X036100Y016872D01*
X036100Y017032D01*
X035446Y017032D01*
X035446Y016823D02*
X032960Y016823D01*
X032960Y016981D02*
X036100Y016981D01*
X036100Y016823D02*
X036260Y016823D01*
X036260Y016981D02*
X040290Y016981D01*
X040290Y016823D02*
X036914Y016823D01*
X036914Y016664D02*
X040290Y016664D01*
X040290Y016506D02*
X036771Y016506D01*
X036613Y016347D02*
X040290Y016347D01*
X040290Y016189D02*
X033807Y016189D01*
X033799Y016030D02*
X040290Y016030D01*
X040290Y015872D02*
X033734Y015872D01*
X033596Y015713D02*
X040290Y015713D01*
X040290Y015555D02*
X033673Y015555D01*
X033766Y015396D02*
X040290Y015396D01*
X040290Y015238D02*
X033807Y015238D01*
X033807Y015079D02*
X040290Y015079D01*
X040290Y014921D02*
X033748Y014921D01*
X033630Y014762D02*
X040290Y014762D01*
X040290Y014604D02*
X033611Y014604D01*
X033729Y014445D02*
X040290Y014445D01*
X040290Y014287D02*
X033780Y014287D01*
X033787Y014177D02*
X033246Y014177D01*
X033246Y013636D01*
X033271Y013636D01*
X033358Y013650D01*
X033442Y013677D01*
X033521Y013717D01*
X033592Y013769D01*
X033654Y013831D01*
X033706Y013902D01*
X033746Y013981D01*
X033773Y014065D01*
X033787Y014152D01*
X033787Y014177D01*
X033783Y014128D02*
X035862Y014128D01*
X035876Y014142D02*
X035446Y013712D01*
X035446Y013488D01*
X036100Y013488D01*
X036100Y013328D01*
X036260Y013328D01*
X036260Y012675D01*
X036484Y012675D01*
X036914Y013104D01*
X036914Y013328D01*
X036260Y013328D01*
X036260Y013488D01*
X036914Y013488D01*
X036914Y013712D01*
X036484Y014142D01*
X036260Y014142D01*
X036260Y013488D01*
X036100Y013488D01*
X036100Y014142D01*
X035876Y014142D01*
X036100Y014128D02*
X036260Y014128D01*
X036260Y013970D02*
X036100Y013970D01*
X036100Y013811D02*
X036260Y013811D01*
X036260Y013653D02*
X036100Y013653D01*
X036100Y013494D02*
X036260Y013494D01*
X036260Y013336D02*
X040290Y013336D01*
X040290Y013494D02*
X036914Y013494D01*
X036914Y013653D02*
X040290Y013653D01*
X040290Y013811D02*
X036815Y013811D01*
X036656Y013970D02*
X040290Y013970D01*
X040290Y014128D02*
X036498Y014128D01*
X035704Y013970D02*
X033740Y013970D01*
X033634Y013811D02*
X035545Y013811D01*
X035446Y013653D02*
X033368Y013653D01*
X033246Y013653D02*
X033209Y013653D01*
X033209Y013811D02*
X033246Y013811D01*
X033246Y013970D02*
X033209Y013970D01*
X033209Y014128D02*
X033246Y014128D01*
X033262Y013494D02*
X035446Y013494D01*
X035446Y013328D02*
X035446Y013104D01*
X035876Y012675D01*
X036100Y012675D01*
X036100Y013328D01*
X035446Y013328D01*
X035446Y013177D02*
X033579Y013177D01*
X033737Y013019D02*
X035532Y013019D01*
X035691Y012860D02*
X033896Y012860D01*
X034054Y012702D02*
X035849Y012702D01*
X036100Y012702D02*
X036260Y012702D01*
X036260Y012860D02*
X036100Y012860D01*
X036100Y013019D02*
X036260Y013019D01*
X036260Y013177D02*
X036100Y013177D01*
X036100Y013336D02*
X033420Y013336D01*
X033180Y012180D02*
X031930Y013430D01*
X034213Y012543D02*
X040290Y012543D01*
X040290Y012385D02*
X034371Y012385D01*
X033180Y012180D02*
X033180Y011430D01*
X032700Y011434D02*
X032660Y011434D01*
X032660Y011592D02*
X032700Y011592D01*
X032700Y011751D02*
X032660Y011751D01*
X032617Y011909D02*
X032743Y011909D01*
X032700Y011275D02*
X032660Y011275D01*
X032660Y011117D02*
X032700Y011117D01*
X032740Y010958D02*
X032620Y010958D01*
X032508Y010800D02*
X032852Y010800D01*
X036630Y011909D02*
X036980Y011909D01*
X036822Y011751D02*
X036788Y011751D01*
X036511Y012702D02*
X040290Y012702D01*
X040290Y012860D02*
X036669Y012860D01*
X036828Y013019D02*
X040290Y013019D01*
X040290Y013177D02*
X036914Y013177D01*
X036260Y016347D02*
X036100Y016347D01*
X036100Y016506D02*
X036260Y016506D01*
X036260Y016664D02*
X036100Y016664D01*
X035747Y016347D02*
X033779Y016347D01*
X033706Y016506D02*
X035589Y016506D01*
X035446Y016664D02*
X033536Y016664D01*
X033194Y017298D02*
X035489Y017298D01*
X035647Y017457D02*
X033353Y017457D01*
X033511Y017615D02*
X035806Y017615D01*
X036100Y017615D02*
X036260Y017615D01*
X036260Y017457D02*
X036100Y017457D01*
X036100Y017298D02*
X036260Y017298D01*
X036260Y017140D02*
X036100Y017140D01*
X036713Y017457D02*
X040290Y017457D01*
X040290Y017615D02*
X036554Y017615D01*
X036871Y017298D02*
X040290Y017298D01*
X040290Y017140D02*
X036914Y017140D01*
X036200Y018249D02*
X036160Y018249D01*
X035837Y018249D02*
X035555Y018249D01*
X035684Y018408D02*
X035702Y018408D01*
X034805Y018249D02*
X034555Y018249D01*
X039817Y018408D02*
X040290Y018408D01*
X040290Y018566D02*
X039976Y018566D01*
X040134Y018725D02*
X040290Y018725D01*
X040290Y018883D02*
X040250Y018883D01*
X040250Y019042D02*
X040290Y019042D01*
X040290Y019200D02*
X040250Y019200D01*
X040250Y019359D02*
X040290Y019359D01*
X040263Y019517D02*
X040250Y019517D01*
X040189Y019676D02*
X040094Y019676D01*
X040027Y019834D02*
X039936Y019834D01*
X024268Y016664D02*
X021914Y016664D01*
X021771Y016506D02*
X024110Y016506D01*
X023112Y017298D02*
X021871Y017298D01*
X021713Y017457D02*
X023105Y017457D01*
X023134Y017615D02*
X021554Y017615D01*
X021260Y017615D02*
X021100Y017615D01*
X021100Y017457D02*
X021260Y017457D01*
X021260Y017298D02*
X021100Y017298D01*
X021100Y017140D02*
X021260Y017140D01*
X021100Y016981D02*
X019715Y016981D01*
X019708Y016961D02*
X019736Y017047D01*
X019750Y017135D01*
X019750Y017162D01*
X019198Y017162D01*
X019198Y017198D01*
X019750Y017198D01*
X019750Y017225D01*
X019736Y017313D01*
X019708Y017399D01*
X019668Y017479D01*
X019615Y017551D01*
X019551Y017615D01*
X020806Y017615D01*
X020647Y017457D02*
X019679Y017457D01*
X019738Y017298D02*
X020489Y017298D01*
X020446Y017140D02*
X019750Y017140D01*
X019708Y016961D02*
X019668Y016881D01*
X019615Y016809D01*
X019551Y016745D01*
X019479Y016692D01*
X019399Y016652D01*
X019313Y016624D01*
X019225Y016610D01*
X019198Y016610D01*
X019198Y017162D01*
X019162Y017162D01*
X019162Y016610D01*
X019135Y016610D01*
X019047Y016624D01*
X018961Y016652D01*
X018881Y016692D01*
X018809Y016745D01*
X018745Y016809D01*
X018692Y016881D01*
X018652Y016961D01*
X018624Y017047D01*
X018610Y017135D01*
X018610Y017162D01*
X019162Y017162D01*
X019162Y017198D01*
X018610Y017198D01*
X018610Y017225D01*
X018624Y017313D01*
X018652Y017399D01*
X018692Y017479D01*
X018745Y017551D01*
X018809Y017615D01*
X015579Y017615D01*
X015704Y017457D02*
X018681Y017457D01*
X018622Y017298D02*
X015770Y017298D01*
X015770Y017140D02*
X018610Y017140D01*
X018645Y016981D02*
X015736Y016981D01*
X015657Y016823D02*
X018735Y016823D01*
X018536Y016664D02*
X018937Y016664D01*
X019162Y016664D02*
X019198Y016664D01*
X019198Y016823D02*
X019162Y016823D01*
X019162Y016981D02*
X019198Y016981D01*
X019198Y017140D02*
X019162Y017140D01*
X019162Y017198D02*
X019162Y017750D01*
X019135Y017750D01*
X019047Y017736D01*
X018961Y017708D01*
X018881Y017668D01*
X018809Y017615D01*
X019162Y017615D02*
X019198Y017615D01*
X019198Y017750D02*
X019225Y017750D01*
X019313Y017736D01*
X019399Y017708D01*
X019479Y017668D01*
X019551Y017615D01*
X019198Y017750D02*
X019198Y017198D01*
X019162Y017198D01*
X019162Y017298D02*
X019198Y017298D01*
X019198Y017457D02*
X019162Y017457D01*
X019625Y016823D02*
X020446Y016823D01*
X020446Y016664D02*
X019423Y016664D01*
X018779Y016347D02*
X020747Y016347D01*
X020589Y016506D02*
X018706Y016506D01*
X017918Y016664D02*
X015476Y016664D01*
X015533Y016506D02*
X015827Y016506D01*
X015700Y016379D02*
X015981Y016660D01*
X016379Y016660D01*
X016660Y016379D01*
X016660Y015981D01*
X016379Y015700D01*
X015981Y015700D01*
X015700Y015981D01*
X015700Y016379D01*
X015700Y016347D02*
X015660Y016347D01*
X015660Y016189D02*
X015700Y016189D01*
X015700Y016030D02*
X015660Y016030D01*
X015550Y015872D02*
X015810Y015872D01*
X015968Y015713D02*
X015392Y015713D01*
X016392Y015713D02*
X017858Y015713D01*
X017721Y015872D02*
X017522Y015872D01*
X017640Y015989D02*
X017371Y015720D01*
X017180Y015720D01*
X017180Y016180D01*
X017180Y016180D01*
X017180Y016640D01*
X017371Y016640D01*
X017640Y016371D01*
X017640Y016180D01*
X017180Y016180D01*
X017180Y016180D01*
X017180Y016180D01*
X016720Y016180D01*
X016720Y016371D01*
X016989Y016640D01*
X017180Y016640D01*
X017180Y016180D01*
X017640Y016180D01*
X017640Y015989D01*
X017640Y016030D02*
X017655Y016030D01*
X017640Y016189D02*
X017647Y016189D01*
X017640Y016347D02*
X017675Y016347D01*
X017748Y016506D02*
X017505Y016506D01*
X017180Y016506D02*
X017180Y016506D01*
X017180Y016347D02*
X017180Y016347D01*
X017180Y016189D02*
X017180Y016189D01*
X017180Y016180D02*
X016720Y016180D01*
X016720Y015989D01*
X016989Y015720D01*
X017180Y015720D01*
X017180Y016180D01*
X017180Y016180D01*
X017180Y016030D02*
X017180Y016030D01*
X017180Y015872D02*
X017180Y015872D01*
X016838Y015872D02*
X016550Y015872D01*
X016660Y016030D02*
X016720Y016030D01*
X016720Y016189D02*
X016660Y016189D01*
X016660Y016347D02*
X016720Y016347D01*
X016855Y016506D02*
X016533Y016506D01*
X014884Y016664D02*
X014424Y016664D01*
X014629Y016823D02*
X014703Y016823D01*
X013936Y016664D02*
X012424Y016664D01*
X012355Y016506D02*
X005920Y016506D01*
X006079Y016664D02*
X006936Y016664D01*
X006731Y016823D02*
X006237Y016823D01*
X006323Y016981D02*
X006645Y016981D01*
X006610Y017140D02*
X006323Y017140D01*
X006323Y017298D02*
X006612Y017298D01*
X006678Y017457D02*
X006323Y017457D01*
X006323Y017615D02*
X006809Y017615D01*
X007551Y017615D02*
X008809Y017615D01*
X008678Y017457D02*
X007682Y017457D01*
X007748Y017298D02*
X008612Y017298D01*
X008610Y017140D02*
X007750Y017140D01*
X007715Y016981D02*
X008645Y016981D01*
X008731Y016823D02*
X007629Y016823D01*
X007424Y016664D02*
X008936Y016664D01*
X009424Y016664D02*
X011936Y016664D01*
X011731Y016823D02*
X009629Y016823D01*
X009715Y016981D02*
X011645Y016981D01*
X011610Y017140D02*
X009750Y017140D01*
X009748Y017298D02*
X011612Y017298D01*
X011678Y017457D02*
X009682Y017457D01*
X009551Y017615D02*
X011809Y017615D01*
X012551Y017615D02*
X013809Y017615D01*
X013678Y017457D02*
X012682Y017457D01*
X012748Y017298D02*
X013612Y017298D01*
X013610Y017140D02*
X012750Y017140D01*
X012715Y016981D02*
X013645Y016981D01*
X013731Y016823D02*
X012629Y016823D01*
X012220Y016347D02*
X001440Y016347D01*
X001440Y016189D02*
X012220Y016189D01*
X013680Y015680D02*
X014430Y014930D01*
X015680Y014930D01*
X017180Y013430D01*
X017180Y013180D01*
X017195Y013811D02*
X017820Y013811D01*
X017714Y013970D02*
X017036Y013970D01*
X016878Y014128D02*
X017671Y014128D01*
X017675Y014287D02*
X016719Y014287D01*
X016561Y014445D02*
X017726Y014445D01*
X018209Y014128D02*
X018246Y014128D01*
X018246Y013970D02*
X018209Y013970D01*
X018209Y013811D02*
X018246Y013811D01*
X015186Y010958D02*
X012174Y010958D01*
X012332Y010800D02*
X013206Y010800D01*
X013360Y010953D02*
X012907Y010500D01*
X012907Y010260D01*
X013600Y010260D01*
X013600Y010953D01*
X013360Y010953D01*
X013600Y010800D02*
X013760Y010800D01*
X013760Y010953D02*
X013760Y010260D01*
X013600Y010260D01*
X013600Y010100D01*
X012907Y010100D01*
X012907Y009860D01*
X013360Y009407D01*
X013600Y009407D01*
X013600Y010100D01*
X013760Y010100D01*
X013760Y010260D01*
X014453Y010260D01*
X014453Y010500D01*
X014000Y010953D01*
X013760Y010953D01*
X013760Y010641D02*
X013600Y010641D01*
X013600Y010483D02*
X013760Y010483D01*
X013760Y010324D02*
X013600Y010324D01*
X013600Y010166D02*
X012623Y010166D01*
X012623Y010324D02*
X012907Y010324D01*
X012907Y010483D02*
X012623Y010483D01*
X012491Y010641D02*
X013048Y010641D01*
X012907Y010007D02*
X012623Y010007D01*
X012620Y009849D02*
X012918Y009849D01*
X013077Y009690D02*
X012462Y009690D01*
X012303Y009532D02*
X013235Y009532D01*
X013600Y009532D02*
X013760Y009532D01*
X013760Y009407D02*
X014000Y009407D01*
X014453Y009860D01*
X014453Y010100D01*
X013760Y010100D01*
X013760Y009407D01*
X013760Y009690D02*
X013600Y009690D01*
X013600Y009849D02*
X013760Y009849D01*
X013760Y010007D02*
X013600Y010007D01*
X013760Y010166D02*
X014737Y010166D01*
X014737Y010324D02*
X014453Y010324D01*
X014453Y010483D02*
X014737Y010483D01*
X014869Y010641D02*
X014312Y010641D01*
X014154Y010800D02*
X015028Y010800D01*
X014737Y010007D02*
X014453Y010007D01*
X014442Y009849D02*
X014740Y009849D01*
X014898Y009690D02*
X014283Y009690D01*
X014125Y009532D02*
X015057Y009532D01*
X011169Y010641D02*
X010898Y010641D01*
X002522Y013494D02*
X001440Y013494D01*
X001440Y013653D02*
X002364Y013653D01*
X002218Y013811D02*
X001440Y013811D01*
X001440Y013970D02*
X002218Y013970D01*
X002218Y014128D02*
X001440Y014128D01*
X001440Y014287D02*
X002218Y014287D01*
X002218Y014445D02*
X001440Y014445D01*
X001440Y014604D02*
X002268Y014604D01*
X002426Y014762D02*
X001440Y014762D01*
X001440Y014921D02*
X002585Y014921D01*
X002743Y015079D02*
X001440Y015079D01*
X002303Y016434D02*
X002592Y016434D01*
X003114Y016957D01*
X003114Y017246D01*
X002303Y017246D01*
X002303Y016434D01*
X002303Y016506D02*
X002143Y016506D01*
X002143Y016664D02*
X002303Y016664D01*
X002303Y016823D02*
X002143Y016823D01*
X002143Y016981D02*
X002303Y016981D01*
X002303Y017140D02*
X002143Y017140D01*
X002303Y017298D02*
X004501Y017298D01*
X004501Y017140D02*
X003114Y017140D01*
X003114Y016981D02*
X004501Y016981D01*
X004587Y016823D02*
X002980Y016823D01*
X002822Y016664D02*
X004746Y016664D01*
X004904Y016506D02*
X002663Y016506D01*
X001783Y016506D02*
X001440Y016506D01*
X001440Y016664D02*
X001625Y016664D01*
X001466Y016823D02*
X001440Y016823D01*
X002143Y017457D02*
X002303Y017457D01*
X002303Y017406D02*
X002303Y018217D01*
X002592Y018217D01*
X003114Y017695D01*
X003114Y017406D01*
X002303Y017406D01*
X002303Y017615D02*
X002143Y017615D01*
X002143Y017774D02*
X002303Y017774D01*
X002303Y017932D02*
X002143Y017932D01*
X002143Y018091D02*
X002303Y018091D01*
X002719Y018091D02*
X004928Y018091D01*
X004769Y017932D02*
X002877Y017932D01*
X003036Y017774D02*
X004611Y017774D01*
X004501Y017615D02*
X003114Y017615D01*
X003114Y017457D02*
X004501Y017457D01*
X005412Y017398D02*
X005412Y017286D01*
X005412Y017398D02*
X005945Y017930D01*
X014930Y017930D01*
X015180Y018180D01*
X015180Y018430D01*
X014796Y018725D02*
X014725Y018725D01*
X014708Y018883D02*
X014954Y018883D01*
X014918Y019042D02*
X014550Y019042D01*
X014531Y019200D02*
X014759Y019200D01*
X014720Y019359D02*
X014690Y019359D01*
X014725Y019676D02*
X014775Y019676D01*
X014725Y019834D02*
X014933Y019834D01*
X015180Y019834D02*
X015180Y019834D01*
X015180Y019676D02*
X015180Y019676D01*
X015180Y019517D02*
X015180Y019517D01*
X015180Y019430D02*
X015180Y018970D01*
X015180Y019430D01*
X015180Y019430D01*
X015180Y019359D02*
X015180Y019359D01*
X015180Y019200D02*
X015180Y019200D01*
X015180Y019042D02*
X015180Y019042D01*
X015328Y017932D02*
X023389Y017932D01*
X023210Y017774D02*
X015170Y017774D01*
X019640Y019359D02*
X019680Y019359D01*
X019640Y019517D02*
X023125Y019517D01*
X023125Y019430D02*
X023125Y019200D01*
X020339Y019200D01*
X020410Y019042D02*
X023284Y019042D01*
X023442Y018883D02*
X020410Y018883D01*
X020180Y019359D02*
X023125Y019359D01*
X023125Y019430D02*
X023680Y019430D01*
X023680Y019430D01*
X023680Y019430D01*
X023680Y018875D01*
X023450Y018875D01*
X023125Y019200D01*
X023680Y019200D02*
X023680Y019200D01*
X023680Y019042D02*
X023680Y019042D01*
X023680Y018883D02*
X023680Y018883D01*
X023680Y019359D02*
X023680Y019359D01*
X023141Y019676D02*
X019585Y019676D01*
X010175Y019610D02*
X010175Y019180D01*
X010175Y018650D01*
X010135Y018650D01*
X010135Y019610D01*
X009705Y019610D01*
X009175Y019610D01*
X009175Y019650D01*
X010135Y019650D01*
X010135Y019610D01*
X010175Y019610D01*
X010175Y019517D02*
X010135Y019517D01*
X010135Y019359D02*
X010175Y019359D01*
X010175Y019200D02*
X010135Y019200D01*
X010135Y019042D02*
X010175Y019042D01*
X010175Y018883D02*
X010135Y018883D01*
X010135Y018725D02*
X010175Y018725D01*
X010135Y018650D02*
X010135Y018610D01*
X009605Y018610D01*
X009175Y018610D01*
X009175Y018650D01*
X010135Y018650D01*
X009175Y018650D02*
X009175Y019080D01*
X009175Y019610D01*
X009135Y019610D01*
X008605Y019610D01*
X008175Y019610D01*
X008175Y019650D01*
X009135Y019650D01*
X009135Y019610D01*
X009135Y018650D01*
X009175Y018650D01*
X009135Y018650D02*
X009135Y018610D01*
X008605Y018610D01*
X008175Y018610D01*
X008175Y018650D01*
X009135Y018650D01*
X009135Y018725D02*
X009175Y018725D01*
X009175Y018883D02*
X009135Y018883D01*
X009135Y019042D02*
X009175Y019042D01*
X009175Y019200D02*
X009135Y019200D01*
X009135Y019359D02*
X009175Y019359D01*
X009175Y019517D02*
X009135Y019517D01*
X008175Y019517D02*
X008135Y019517D01*
X008135Y019610D02*
X008175Y019610D01*
X008175Y019080D01*
X008175Y018650D01*
X008135Y018650D01*
X008135Y019610D01*
X008135Y019359D02*
X008175Y019359D01*
X008175Y019200D02*
X008135Y019200D01*
X008135Y019042D02*
X008175Y019042D01*
X008175Y018883D02*
X008135Y018883D01*
X008135Y018725D02*
X008175Y018725D01*
X006779Y019200D02*
X004040Y019200D01*
X004040Y019042D02*
X006760Y019042D01*
X006602Y018883D02*
X004040Y018883D01*
X003966Y018725D02*
X006585Y018725D01*
X006585Y018566D02*
X003807Y018566D01*
X003649Y018408D02*
X006585Y018408D01*
X006730Y018249D02*
X001440Y018249D01*
X001440Y018091D02*
X001728Y018091D01*
X001569Y017932D02*
X001440Y017932D01*
X001440Y018408D02*
X002609Y018408D01*
X002450Y018566D02*
X001440Y018566D01*
X001440Y018725D02*
X002292Y018725D01*
X002218Y018883D02*
X001440Y018883D01*
X001440Y019042D02*
X002218Y019042D01*
X002218Y019200D02*
X001442Y019200D01*
X001470Y019359D02*
X002218Y019359D01*
X002218Y019517D02*
X001521Y019517D01*
X001637Y019676D02*
X002340Y019676D01*
X002498Y019834D02*
X001837Y019834D01*
X003759Y019834D02*
X006585Y019834D01*
X006585Y019676D02*
X003918Y019676D01*
X004040Y019517D02*
X006585Y019517D01*
X006620Y019359D02*
X004040Y019359D01*
X001538Y011751D02*
X001440Y011751D01*
X002143Y007154D02*
X002303Y007154D01*
X002303Y006996D02*
X002143Y006996D01*
X002143Y006837D02*
X002303Y006837D01*
X002303Y006679D02*
X002143Y006679D01*
X002143Y006520D02*
X002303Y006520D01*
X001769Y006520D02*
X001440Y006520D01*
X001440Y006679D02*
X001610Y006679D01*
X001452Y006837D02*
X001440Y006837D01*
X003658Y004935D02*
X006037Y004935D01*
X006037Y005094D02*
X005772Y005094D01*
X005910Y005252D02*
X006037Y005252D01*
X006037Y005411D02*
X005910Y005411D01*
X005910Y005569D02*
X006097Y005569D01*
X006256Y005728D02*
X005811Y005728D01*
X005653Y005886D02*
X006414Y005886D01*
X007246Y005886D02*
X008293Y005886D01*
X008134Y005728D02*
X007404Y005728D01*
X007563Y005569D02*
X007976Y005569D01*
X007907Y005411D02*
X007623Y005411D01*
X007623Y005094D02*
X007907Y005094D01*
X007907Y004935D02*
X007623Y004935D01*
X007548Y004777D02*
X007990Y004777D01*
X008149Y004618D02*
X007390Y004618D01*
X006913Y004301D02*
X004040Y004301D01*
X004040Y004143D02*
X007072Y004143D01*
X007230Y003984D02*
X004040Y003984D01*
X004040Y003826D02*
X013420Y003826D01*
X013400Y003984D02*
X011130Y003984D01*
X011288Y004143D02*
X013400Y004143D01*
X013253Y004301D02*
X011447Y004301D01*
X011605Y004460D02*
X013154Y004460D01*
X013110Y004618D02*
X011764Y004618D01*
X011922Y004777D02*
X013110Y004777D01*
X013169Y004935D02*
X012081Y004935D01*
X012239Y005094D02*
X013287Y005094D01*
X013302Y005252D02*
X012398Y005252D01*
X012556Y005411D02*
X013175Y005411D01*
X013110Y005569D02*
X012715Y005569D01*
X012873Y005728D02*
X013110Y005728D01*
X013148Y005886D02*
X013032Y005886D01*
X013190Y006045D02*
X013238Y006045D01*
X013349Y006203D02*
X013453Y006203D01*
X011740Y005886D02*
X010946Y005886D01*
X011104Y005728D02*
X011582Y005728D01*
X011423Y005569D02*
X011263Y005569D01*
X010114Y005886D02*
X009067Y005886D01*
X009226Y005728D02*
X009956Y005728D01*
X009797Y005569D02*
X009384Y005569D01*
X009453Y005411D02*
X009737Y005411D01*
X008760Y005569D02*
X008600Y005569D01*
X008600Y005728D02*
X008760Y005728D01*
X008760Y005886D02*
X008600Y005886D01*
X006270Y004618D02*
X003975Y004618D01*
X004040Y004460D02*
X006429Y004460D01*
X006112Y004777D02*
X003817Y004777D01*
X003908Y003667D02*
X013547Y003667D01*
X013706Y003509D02*
X011752Y003509D01*
X011621Y003640D02*
X011430Y003640D01*
X011430Y003180D01*
X011430Y003180D01*
X011890Y003180D01*
X011890Y003371D01*
X011621Y003640D01*
X011430Y003640D02*
X011239Y003640D01*
X010970Y003371D01*
X010970Y003180D01*
X011430Y003180D01*
X011430Y003180D01*
X011430Y003180D01*
X011430Y003640D01*
X011430Y003509D02*
X011430Y003509D01*
X011430Y003350D02*
X011430Y003350D01*
X011430Y003192D02*
X011430Y003192D01*
X011430Y003180D02*
X010970Y003180D01*
X010970Y002989D01*
X011239Y002720D01*
X011430Y002720D01*
X011621Y002720D01*
X011700Y002799D01*
X011700Y002589D01*
X011629Y002660D01*
X011231Y002660D01*
X010950Y002379D01*
X010950Y001981D01*
X011231Y001700D01*
X011629Y001700D01*
X011910Y001981D01*
X011910Y002271D01*
X011981Y002200D01*
X012379Y002200D01*
X012660Y002481D01*
X012660Y002879D01*
X012379Y003160D01*
X011981Y003160D01*
X011890Y003069D01*
X011890Y003180D01*
X011430Y003180D01*
X011430Y002720D01*
X011430Y003180D01*
X011430Y003180D01*
X011430Y003033D02*
X011430Y003033D01*
X011430Y002875D02*
X011430Y002875D01*
X011700Y002716D02*
X009895Y002716D01*
X009879Y002700D02*
X010160Y002981D01*
X010160Y003379D01*
X009879Y003660D01*
X009481Y003660D01*
X009200Y003379D01*
X009200Y002981D01*
X009481Y002700D01*
X009879Y002700D01*
X009879Y002660D02*
X009481Y002660D01*
X009200Y002379D01*
X009200Y001981D01*
X009481Y001700D01*
X009879Y001700D01*
X010160Y001981D01*
X010160Y002379D01*
X009879Y002660D01*
X009981Y002558D02*
X011129Y002558D01*
X010970Y002399D02*
X010140Y002399D01*
X010160Y002241D02*
X010950Y002241D01*
X010950Y002082D02*
X010160Y002082D01*
X010102Y001924D02*
X011008Y001924D01*
X011166Y001765D02*
X009944Y001765D01*
X009416Y001765D02*
X006944Y001765D01*
X007102Y001924D02*
X009258Y001924D01*
X009200Y002082D02*
X007160Y002082D01*
X007160Y002241D02*
X009200Y002241D01*
X009220Y002399D02*
X007140Y002399D01*
X006981Y002558D02*
X009379Y002558D01*
X009465Y002716D02*
X006895Y002716D01*
X006879Y002700D02*
X007160Y002981D01*
X007160Y003379D01*
X006879Y003660D01*
X006481Y003660D01*
X006200Y003379D01*
X006200Y002981D01*
X006481Y002700D01*
X006879Y002700D01*
X007053Y002875D02*
X009307Y002875D01*
X009200Y003033D02*
X007160Y003033D01*
X007160Y003192D02*
X009200Y003192D01*
X009200Y003350D02*
X007160Y003350D01*
X007030Y003509D02*
X009330Y003509D01*
X010030Y003509D02*
X011108Y003509D01*
X010970Y003350D02*
X010160Y003350D01*
X010160Y003192D02*
X010970Y003192D01*
X010970Y003033D02*
X010160Y003033D01*
X010053Y002875D02*
X011085Y002875D01*
X011890Y003192D02*
X014023Y003192D01*
X013864Y003350D02*
X011890Y003350D01*
X012506Y003033D02*
X014181Y003033D01*
X014340Y002875D02*
X012660Y002875D01*
X012660Y002716D02*
X014498Y002716D01*
X014657Y002558D02*
X014231Y002558D01*
X014129Y002660D02*
X013731Y002660D01*
X013450Y002379D01*
X013450Y001981D01*
X013731Y001700D01*
X014129Y001700D01*
X014410Y001981D01*
X014410Y002379D01*
X014129Y002660D01*
X013629Y002558D02*
X012660Y002558D01*
X012578Y002399D02*
X013470Y002399D01*
X013450Y002241D02*
X012419Y002241D01*
X011941Y002241D02*
X011910Y002241D01*
X011910Y002082D02*
X013450Y002082D01*
X013508Y001924D02*
X011852Y001924D01*
X011694Y001765D02*
X013666Y001765D01*
X014194Y001765D02*
X015449Y001765D01*
X015291Y001924D02*
X014352Y001924D01*
X014410Y002082D02*
X015132Y002082D01*
X014974Y002241D02*
X014410Y002241D01*
X014390Y002399D02*
X014815Y002399D01*
X015924Y002082D02*
X016450Y002082D01*
X017231Y002558D02*
X021662Y002558D01*
X021525Y002716D02*
X021820Y002716D01*
X021684Y002875D02*
X021979Y002875D01*
X021842Y003033D02*
X022137Y003033D01*
X022296Y003192D02*
X021914Y003192D01*
X021260Y003509D02*
X021100Y003509D01*
X021100Y003488D02*
X021100Y004142D01*
X020876Y004142D01*
X020446Y003712D01*
X020446Y003488D01*
X021100Y003488D01*
X021100Y003667D02*
X021260Y003667D01*
X021260Y003826D02*
X021100Y003826D01*
X021100Y003984D02*
X021260Y003984D01*
X020718Y003984D02*
X018747Y003984D01*
X018649Y003826D02*
X020560Y003826D01*
X020446Y003667D02*
X018412Y003667D01*
X018246Y003667D02*
X018209Y003667D01*
X018209Y003826D02*
X018246Y003826D01*
X018246Y003984D02*
X018209Y003984D01*
X018209Y004143D02*
X018246Y004143D01*
X018042Y003667D02*
X015640Y003667D01*
X015640Y003509D02*
X020446Y003509D01*
X017806Y003826D02*
X015640Y003826D01*
X015608Y001607D02*
X006021Y001607D01*
X006180Y001765D02*
X006416Y001765D01*
X006389Y001448D02*
X005863Y001448D01*
X006971Y001448D02*
X010441Y001448D01*
X010461Y001458D02*
X010381Y001418D01*
X010309Y001365D01*
X010245Y001301D01*
X010192Y001229D01*
X010152Y001149D01*
X010124Y001063D01*
X010110Y000975D01*
X010110Y000948D01*
X010662Y000948D01*
X010662Y001500D01*
X010635Y001500D01*
X010547Y001486D01*
X010461Y001458D01*
X010662Y001448D02*
X010698Y001448D01*
X010698Y001500D02*
X010698Y000948D01*
X011250Y000948D01*
X011250Y000975D01*
X011236Y001063D01*
X011208Y001149D01*
X011168Y001229D01*
X011115Y001301D01*
X011051Y001365D01*
X010979Y001418D01*
X010899Y001458D01*
X010813Y001486D01*
X010725Y001500D01*
X010698Y001500D01*
X010698Y001290D02*
X010662Y001290D01*
X010662Y001131D02*
X010698Y001131D01*
X010698Y000973D02*
X010662Y000973D01*
X011214Y001131D02*
X040290Y001131D01*
X040290Y000973D02*
X011250Y000973D01*
X011239Y000814D02*
X040257Y000814D01*
X040136Y000656D02*
X011180Y000656D01*
X010180Y000656D02*
X007205Y000656D01*
X007270Y000814D02*
X010121Y000814D01*
X010110Y000973D02*
X007270Y000973D01*
X007235Y001131D02*
X010146Y001131D01*
X010237Y001290D02*
X007155Y001290D01*
X006155Y000656D02*
X001743Y000656D01*
X006323Y002558D02*
X006379Y002558D01*
X006465Y002716D02*
X006271Y002716D01*
X006307Y002875D02*
X006113Y002875D01*
X006200Y003033D02*
X005954Y003033D01*
X005796Y003192D02*
X006200Y003192D01*
X006200Y003350D02*
X003591Y003350D01*
X003750Y003509D02*
X006330Y003509D01*
X010919Y001448D02*
X015766Y001448D01*
X011123Y001290D02*
X040290Y001290D01*
X040290Y001448D02*
X022094Y001448D01*
X022252Y001607D02*
X040290Y001607D01*
X040290Y001765D02*
X022411Y001765D01*
X022569Y001924D02*
X040290Y001924D01*
X040290Y002082D02*
X022728Y002082D01*
X022886Y002241D02*
X040290Y002241D01*
X040290Y002399D02*
X023045Y002399D01*
X026273Y006362D02*
X028233Y006362D01*
X028074Y006520D02*
X026192Y006520D01*
X026001Y006679D02*
X027946Y006679D01*
X027946Y006837D02*
X026991Y006837D01*
X033644Y004777D02*
X040290Y004777D01*
X040290Y004935D02*
X033820Y004935D01*
X033989Y005094D02*
X040290Y005094D01*
X040290Y005252D02*
X034148Y005252D01*
X033597Y004618D02*
X040290Y004618D01*
X040290Y004460D02*
X033721Y004460D01*
X033778Y004301D02*
X040290Y004301D01*
X040290Y004143D02*
X033786Y004143D01*
X036100Y003984D02*
X036260Y003984D01*
X036260Y003826D02*
X036100Y003826D01*
X036100Y003667D02*
X036260Y003667D01*
X036260Y003509D02*
X036100Y003509D01*
X036800Y003826D02*
X040290Y003826D01*
X040290Y003984D02*
X036642Y003984D01*
X036914Y003667D02*
X040290Y003667D01*
X040290Y003509D02*
X036914Y003509D01*
D24*
X030430Y005680D03*
D25*
X028180Y008430D02*
X028180Y008930D01*
X029180Y009930D01*
X029180Y011430D01*
X014155Y018630D02*
X014155Y019630D01*
X013155Y019630D02*
X013155Y018630D01*
X007155Y018630D02*
X007155Y019630D01*
D26*
X024230Y013330D02*
X025055Y012505D01*
X025730Y012505D01*
X026180Y012055D01*
X026180Y011430D01*
X027180Y011430D02*
X027180Y012380D01*
X026230Y013330D01*
D27*
X014430Y013180D03*
M02*
