G75*
%MOIN*%
%OFA0B0*%
%FSLAX24Y24*%
%IPPOS*%
%LPD*%
%AMOC8*
5,1,8,0,0,1.08239X$1,22.5*
%
%ADD10C,0.0120*%
%ADD11C,0.0070*%
%ADD12C,0.0040*%
%ADD13C,0.0020*%
%ADD14C,0.0060*%
%ADD15C,0.0080*%
%ADD16C,0.0050*%
%ADD17R,0.0200X0.0150*%
%ADD18R,0.0150X0.0200*%
%ADD19C,0.0100*%
%ADD20C,0.0030*%
%ADD21C,0.0010*%
%ADD22C,0.0000*%
%ADD23R,0.0200X0.0800*%
D10*
X001558Y001680D02*
X001558Y039255D01*
X001558Y039299D01*
X001562Y039342D01*
X001569Y039384D01*
X001579Y039426D01*
X001593Y039467D01*
X001611Y039507D01*
X001631Y039545D01*
X001655Y039581D01*
X001681Y039615D01*
X001711Y039647D01*
X001742Y039677D01*
X001776Y039703D01*
X001813Y039727D01*
X001851Y039747D01*
X001890Y039765D01*
X001931Y039779D01*
X001973Y039790D01*
X002015Y039797D01*
X002058Y039801D01*
X002058Y039800D02*
X020758Y039800D01*
X020800Y039796D01*
X020842Y039788D01*
X020884Y039777D01*
X020924Y039762D01*
X020962Y039745D01*
X021000Y039724D01*
X021035Y039700D01*
X021068Y039673D01*
X021099Y039644D01*
X021127Y039612D01*
X021153Y039578D01*
X021176Y039542D01*
X021195Y039504D01*
X021212Y039464D01*
X021225Y039424D01*
X021235Y039382D01*
X021241Y039340D01*
X021244Y039298D01*
X021243Y039255D01*
X021243Y001680D01*
X021244Y001681D02*
X021252Y001634D01*
X021257Y001587D01*
X021258Y001540D01*
X021256Y001493D01*
X021250Y001446D01*
X021240Y001399D01*
X021227Y001354D01*
X021211Y001309D01*
X021192Y001266D01*
X021169Y001225D01*
X021143Y001185D01*
X021115Y001148D01*
X021084Y001112D01*
X021050Y001079D01*
X021014Y001049D01*
X020975Y001021D01*
X020935Y000997D01*
X020893Y000975D01*
X020849Y000957D01*
X020804Y000942D01*
X020759Y000930D01*
X020758Y000930D02*
X002058Y000930D01*
X002012Y000941D01*
X001966Y000956D01*
X001922Y000974D01*
X001880Y000995D01*
X001839Y001019D01*
X001799Y001046D01*
X001762Y001077D01*
X001728Y001109D01*
X001696Y001145D01*
X001667Y001182D01*
X001640Y001222D01*
X001617Y001263D01*
X001597Y001306D01*
X001580Y001351D01*
X001566Y001397D01*
X001556Y001443D01*
X001549Y001490D01*
X001546Y001538D01*
X001547Y001585D01*
X001551Y001633D01*
X001558Y001680D01*
X016463Y024380D02*
X016463Y024680D01*
X016463Y024980D01*
X016713Y024980D02*
X016713Y024680D01*
X016713Y024380D01*
X010608Y038050D02*
X010308Y038050D01*
X010008Y038050D01*
X010008Y038300D02*
X010308Y038300D01*
X010608Y038300D01*
D11*
X020076Y033862D02*
X020208Y033862D01*
X020471Y033862D02*
X020998Y033862D01*
X020998Y033730D02*
X020998Y033994D01*
X020866Y034258D02*
X020735Y034390D01*
X020735Y034785D01*
X020603Y034785D02*
X020998Y034785D01*
X020998Y034390D01*
X020866Y034258D01*
X020471Y034390D02*
X020471Y034653D01*
X020603Y034785D01*
X020735Y035842D02*
X020735Y036237D01*
X020603Y036369D01*
X020339Y036369D01*
X020208Y036237D01*
X020208Y035842D01*
X020998Y035842D01*
X020735Y036105D02*
X020998Y036369D01*
X020866Y036634D02*
X020603Y036634D01*
X020471Y036766D01*
X020471Y037029D01*
X020603Y037161D01*
X020735Y037161D01*
X020735Y036634D01*
X020866Y036634D02*
X020998Y036766D01*
X020998Y037029D01*
X020471Y037426D02*
X020998Y037689D01*
X020471Y037953D01*
X020339Y038218D02*
X020208Y038349D01*
X020208Y038613D01*
X020339Y038745D01*
X020866Y038218D01*
X020998Y038349D01*
X020998Y038613D01*
X020866Y038745D01*
X020339Y038745D01*
X020208Y039009D02*
X020603Y039009D01*
X020471Y039273D01*
X020471Y039405D01*
X020603Y039537D01*
X020866Y039537D01*
X020998Y039405D01*
X020998Y039141D01*
X020866Y039009D01*
X020208Y039009D02*
X020208Y039537D01*
X020339Y038218D02*
X020866Y038218D01*
X020471Y033862D02*
X020471Y033730D01*
X020603Y033465D02*
X020471Y033334D01*
X020471Y033070D01*
X020603Y032938D01*
X020866Y032938D01*
X020998Y033070D01*
X020998Y033334D01*
X020735Y033465D02*
X020735Y032938D01*
X020603Y032674D02*
X020998Y032674D01*
X020603Y032674D02*
X020471Y032542D01*
X020471Y032278D01*
X020603Y032146D01*
X020471Y031882D02*
X020471Y031486D01*
X020603Y031355D01*
X020866Y031355D01*
X020998Y031486D01*
X020998Y031882D01*
X020998Y032146D02*
X020208Y032146D01*
X020208Y030958D02*
X020076Y030958D01*
X020471Y030958D02*
X020471Y030827D01*
X020471Y030958D02*
X020998Y030958D01*
X020998Y030827D02*
X020998Y031090D01*
X020866Y030562D02*
X020603Y030562D01*
X020471Y030430D01*
X020471Y030167D01*
X020603Y030035D01*
X020866Y030035D01*
X020998Y030167D01*
X020998Y030430D01*
X020866Y030562D01*
X020998Y029770D02*
X020866Y029639D01*
X020339Y029639D01*
X020471Y029770D02*
X020471Y029507D01*
X020339Y029242D02*
X020208Y029110D01*
X020208Y028847D01*
X020339Y028715D01*
X020471Y028715D01*
X020603Y028847D01*
X020603Y029110D01*
X020735Y029242D01*
X020866Y029242D01*
X020998Y029110D01*
X020998Y028847D01*
X020866Y028715D01*
X020735Y033465D02*
X020603Y033465D01*
X020471Y023592D02*
X021130Y023592D01*
X021262Y023461D01*
X021262Y023329D01*
X020998Y023197D02*
X020998Y023592D01*
X020998Y023197D02*
X020866Y023065D01*
X020471Y023065D01*
X020471Y022800D02*
X020471Y022405D01*
X020603Y022273D01*
X020866Y022273D01*
X020998Y022405D01*
X020998Y022800D01*
X021130Y022800D02*
X020471Y022800D01*
X021130Y022800D02*
X021262Y022669D01*
X021262Y022537D01*
X020866Y022009D02*
X020603Y022009D01*
X020471Y021877D01*
X020471Y021613D01*
X020603Y021481D01*
X020866Y021481D01*
X020998Y021613D01*
X020998Y021877D01*
X020866Y022009D01*
X020998Y021217D02*
X020998Y020954D01*
X020998Y021085D02*
X020208Y021085D01*
X020208Y020954D01*
X020603Y020689D02*
X020471Y020557D01*
X020471Y020293D01*
X020603Y020162D01*
X020866Y020162D01*
X020998Y020293D01*
X020998Y020557D01*
X020866Y020689D01*
X020603Y020689D01*
X020603Y019897D02*
X020471Y019765D01*
X020471Y019370D01*
X020998Y019370D01*
X020998Y019105D02*
X020603Y019105D01*
X020471Y018973D01*
X020471Y018710D01*
X020603Y018578D01*
X020471Y018313D02*
X020471Y017918D01*
X020603Y017786D01*
X020866Y017786D01*
X020998Y017918D01*
X020998Y018313D01*
X020998Y018578D02*
X020208Y018578D01*
X020603Y017521D02*
X020471Y017390D01*
X020471Y017126D01*
X020603Y016994D01*
X020866Y016994D01*
X020998Y017126D01*
X020998Y017390D01*
X020735Y017521D02*
X020735Y016994D01*
X020735Y017521D02*
X020603Y017521D01*
X020208Y016729D02*
X020208Y016202D01*
X020208Y016466D02*
X020998Y016466D01*
X020998Y015146D02*
X020998Y014883D01*
X020998Y015014D02*
X020208Y015014D01*
X020208Y014883D01*
X020603Y014618D02*
X020471Y014486D01*
X020471Y014222D01*
X020603Y014091D01*
X020866Y014091D01*
X020998Y014222D01*
X020998Y014486D01*
X020735Y014618D02*
X020735Y014091D01*
X020866Y013826D02*
X020603Y013826D01*
X020471Y013694D01*
X020471Y013299D01*
X020208Y013299D02*
X020998Y013299D01*
X020998Y013694D01*
X020866Y013826D01*
X020735Y013034D02*
X020735Y012507D01*
X020866Y012507D02*
X020603Y012507D01*
X020471Y012639D01*
X020471Y012902D01*
X020603Y013034D01*
X020735Y013034D01*
X020998Y012902D02*
X020998Y012639D01*
X020866Y012507D01*
X020998Y012242D02*
X020735Y011979D01*
X020735Y012110D02*
X020735Y011715D01*
X020998Y011715D02*
X020208Y011715D01*
X020208Y012110D01*
X020339Y012242D01*
X020603Y012242D01*
X020735Y012110D01*
X020735Y014618D02*
X020603Y014618D01*
X016908Y011990D02*
X016803Y012096D01*
X016593Y012096D01*
X016488Y011990D01*
X016264Y011990D02*
X016159Y012096D01*
X015948Y012096D01*
X015843Y011990D01*
X015843Y011885D01*
X015948Y011780D01*
X016159Y011780D01*
X016264Y011675D01*
X016264Y011570D01*
X016159Y011465D01*
X015948Y011465D01*
X015843Y011570D01*
X016488Y011465D02*
X016908Y011885D01*
X016908Y011990D01*
X016908Y011465D02*
X016488Y011465D01*
X011803Y016465D02*
X011908Y016570D01*
X011908Y016675D01*
X011803Y016780D01*
X011698Y016780D01*
X011803Y016780D02*
X011908Y016885D01*
X011908Y016990D01*
X011803Y017096D01*
X011593Y017096D01*
X011488Y016990D01*
X011264Y016990D02*
X011159Y017096D01*
X010948Y017096D01*
X010843Y016990D01*
X010843Y016885D01*
X010948Y016780D01*
X011159Y016780D01*
X011264Y016675D01*
X011264Y016570D01*
X011159Y016465D01*
X010948Y016465D01*
X010843Y016570D01*
X011488Y016570D02*
X011593Y016465D01*
X011803Y016465D01*
X011738Y020450D02*
X011843Y020555D01*
X011738Y020450D02*
X011528Y020450D01*
X011423Y020555D01*
X011423Y020975D01*
X011528Y021081D01*
X011738Y021081D01*
X011843Y020975D01*
X012067Y020870D02*
X012278Y021081D01*
X012278Y020450D01*
X012488Y020450D02*
X012067Y020450D01*
X011203Y020450D02*
X010993Y020450D01*
X011098Y020450D02*
X011098Y021081D01*
X010993Y021081D02*
X011203Y021081D01*
X006698Y012096D02*
X006488Y011885D01*
X006264Y011990D02*
X006159Y012096D01*
X005948Y012096D01*
X005843Y011990D01*
X005843Y011885D01*
X005948Y011780D01*
X006159Y011780D01*
X006264Y011675D01*
X006264Y011570D01*
X006159Y011465D01*
X005948Y011465D01*
X005843Y011570D01*
X006488Y011465D02*
X006908Y011465D01*
X006698Y011465D02*
X006698Y012096D01*
X020603Y019897D02*
X020998Y019897D01*
D12*
X017254Y022702D02*
X017178Y022625D01*
X016947Y022625D01*
X016947Y023086D01*
X017178Y023086D01*
X017254Y023009D01*
X017254Y022932D01*
X017178Y022855D01*
X016947Y022855D01*
X017178Y022855D02*
X017254Y022779D01*
X017254Y022702D01*
X016794Y022625D02*
X016487Y022625D01*
X016487Y023086D01*
X016027Y023086D02*
X016027Y022625D01*
X016334Y022625D01*
X015873Y022625D02*
X015720Y022625D01*
X015796Y022625D02*
X015796Y023086D01*
X015720Y023086D02*
X015873Y023086D01*
X015566Y023086D02*
X015259Y023086D01*
X015259Y022625D01*
X015259Y022855D02*
X015413Y022855D01*
X016078Y016310D02*
X016253Y016310D01*
X016312Y016252D01*
X016312Y016135D01*
X016253Y016077D01*
X016078Y016077D01*
X016078Y015960D02*
X016078Y016310D01*
X016195Y016077D02*
X016312Y015960D01*
X016437Y015960D02*
X016671Y015960D01*
X016554Y015960D02*
X016554Y016310D01*
X016437Y016194D01*
X016796Y016252D02*
X016855Y016310D01*
X016972Y016310D01*
X017030Y016252D01*
X017030Y016194D01*
X016796Y015960D01*
X017030Y015960D01*
X016737Y015310D02*
X016621Y015310D01*
X016562Y015252D01*
X016562Y015194D01*
X016621Y015135D01*
X016796Y015135D01*
X016796Y015018D02*
X016796Y015252D01*
X016737Y015310D01*
X016796Y015018D02*
X016737Y014960D01*
X016621Y014960D01*
X016562Y015018D01*
X016437Y014960D02*
X016320Y015077D01*
X016378Y015077D02*
X016203Y015077D01*
X016203Y014960D02*
X016203Y015310D01*
X016378Y015310D01*
X016437Y015252D01*
X016437Y015135D01*
X016378Y015077D01*
X013678Y015134D02*
X013561Y015017D01*
X013561Y015075D02*
X013561Y014900D01*
X013678Y014900D02*
X013328Y014900D01*
X013328Y015075D01*
X013386Y015134D01*
X013503Y015134D01*
X013561Y015075D01*
X013503Y015259D02*
X013503Y015493D01*
X013328Y015434D02*
X013503Y015259D01*
X013678Y015434D02*
X013328Y015434D01*
X008511Y010102D02*
X008745Y009868D01*
X008803Y009868D01*
X008803Y009743D02*
X008803Y009509D01*
X008803Y009626D02*
X008453Y009626D01*
X008570Y009509D01*
X008628Y009384D02*
X008511Y009384D01*
X008453Y009325D01*
X008453Y009150D01*
X008803Y009150D01*
X008686Y009150D02*
X008686Y009325D01*
X008628Y009384D01*
X008686Y009267D02*
X008803Y009384D01*
X008453Y009868D02*
X008453Y010102D01*
X008511Y010102D01*
X009053Y008393D02*
X009228Y008218D01*
X009228Y008452D01*
X009403Y008393D02*
X009053Y008393D01*
X009053Y007976D02*
X009403Y007976D01*
X009403Y007859D02*
X009403Y008093D01*
X009170Y007859D02*
X009053Y007976D01*
X009111Y007734D02*
X009228Y007734D01*
X009286Y007675D01*
X009286Y007500D01*
X009286Y007617D02*
X009403Y007734D01*
X009403Y007500D02*
X009053Y007500D01*
X009053Y007675D01*
X009111Y007734D01*
X010473Y009419D02*
X010473Y009879D01*
X010703Y009879D01*
X010780Y009803D01*
X010780Y009649D01*
X010703Y009573D01*
X010473Y009573D01*
X010627Y009573D02*
X010780Y009419D01*
X010934Y009496D02*
X011010Y009419D01*
X011164Y009419D01*
X011241Y009496D01*
X011241Y009573D01*
X011164Y009649D01*
X011010Y009649D01*
X010934Y009726D01*
X010934Y009803D01*
X011010Y009879D01*
X011164Y009879D01*
X011241Y009803D01*
X011394Y009879D02*
X011701Y009879D01*
X011854Y009879D02*
X012008Y009879D01*
X011931Y009879D02*
X011931Y009419D01*
X011854Y009419D02*
X012008Y009419D01*
X012161Y009419D02*
X012161Y009879D01*
X012468Y009419D01*
X012468Y009879D01*
X011547Y009879D02*
X011547Y009419D01*
X013688Y009482D02*
X013746Y009540D01*
X013863Y009540D01*
X013921Y009482D01*
X013921Y009307D01*
X013921Y009424D02*
X014038Y009540D01*
X013980Y009666D02*
X013863Y009666D01*
X013863Y009841D01*
X013921Y009899D01*
X013980Y009899D01*
X014038Y009841D01*
X014038Y009724D01*
X013980Y009666D01*
X013863Y009666D02*
X013746Y009783D01*
X013688Y009899D01*
X013688Y009482D02*
X013688Y009307D01*
X014038Y009307D01*
X014511Y008368D02*
X014570Y008368D01*
X014628Y008309D01*
X014628Y008192D01*
X014570Y008134D01*
X014511Y008134D01*
X014453Y008192D01*
X014453Y008309D01*
X014511Y008368D01*
X014628Y008309D02*
X014686Y008368D01*
X014745Y008368D01*
X014803Y008309D01*
X014803Y008192D01*
X014745Y008134D01*
X014686Y008134D01*
X014628Y008192D01*
X014628Y008009D02*
X014686Y007950D01*
X014686Y007775D01*
X014686Y007892D02*
X014803Y008009D01*
X014628Y008009D02*
X014511Y008009D01*
X014453Y007950D01*
X014453Y007775D01*
X014803Y007775D01*
X016361Y004602D02*
X016420Y004602D01*
X016478Y004543D01*
X016478Y004427D01*
X016420Y004368D01*
X016361Y004368D01*
X016303Y004427D01*
X016303Y004543D01*
X016361Y004602D01*
X016478Y004543D02*
X016536Y004602D01*
X016595Y004602D01*
X016653Y004543D01*
X016653Y004427D01*
X016595Y004368D01*
X016536Y004368D01*
X016478Y004427D01*
X016653Y004243D02*
X016653Y004009D01*
X016653Y004126D02*
X016303Y004126D01*
X016420Y004009D01*
X016478Y003884D02*
X016361Y003884D01*
X016303Y003825D01*
X016303Y003650D01*
X016653Y003650D01*
X016536Y003650D02*
X016536Y003825D01*
X016478Y003884D01*
X016536Y003767D02*
X016653Y003884D01*
X017847Y003816D02*
X018307Y003816D01*
X018307Y003509D02*
X018077Y003279D01*
X018154Y003202D02*
X017847Y003509D01*
X017847Y003663D02*
X017847Y003970D01*
X017847Y004123D02*
X018307Y004123D01*
X018077Y004123D02*
X018077Y004430D01*
X017847Y004430D02*
X018307Y004430D01*
X018307Y003202D02*
X017847Y003202D01*
X017847Y002742D02*
X018307Y002742D01*
X018307Y003049D01*
X018231Y002588D02*
X018307Y002512D01*
X018307Y002358D01*
X018231Y002281D01*
X017924Y002281D01*
X017847Y002358D01*
X017847Y002512D01*
X017924Y002588D01*
X013332Y002537D02*
X013256Y002613D01*
X013332Y002537D02*
X013332Y002383D01*
X013256Y002306D01*
X012949Y002306D01*
X012872Y002383D01*
X012872Y002537D01*
X012949Y002613D01*
X012872Y002767D02*
X013332Y002767D01*
X013332Y003074D01*
X013332Y003227D02*
X012872Y003227D01*
X013102Y003304D02*
X013332Y003534D01*
X013332Y003688D02*
X013332Y003918D01*
X013256Y003995D01*
X013179Y003995D01*
X013102Y003918D01*
X013102Y003688D01*
X013102Y003918D02*
X013025Y003995D01*
X012949Y003995D01*
X012872Y003918D01*
X012872Y003688D01*
X013332Y003688D01*
X013179Y003227D02*
X012872Y003534D01*
X011728Y003650D02*
X011378Y003650D01*
X011378Y003825D01*
X011436Y003884D01*
X011553Y003884D01*
X011611Y003825D01*
X011611Y003650D01*
X011611Y003767D02*
X011728Y003884D01*
X011728Y004009D02*
X011670Y004009D01*
X011436Y004243D01*
X011378Y004243D01*
X011378Y004009D01*
X008282Y003895D02*
X007975Y003895D01*
X007822Y003741D01*
X007975Y003588D01*
X008282Y003588D01*
X008282Y003434D02*
X008052Y003204D01*
X008129Y003127D02*
X007822Y003434D01*
X008052Y003588D02*
X008052Y003895D01*
X007822Y003127D02*
X008282Y003127D01*
X008282Y002974D02*
X008282Y002667D01*
X007822Y002667D01*
X007899Y002513D02*
X007822Y002437D01*
X007822Y002283D01*
X007899Y002206D01*
X008206Y002206D01*
X008282Y002283D01*
X008282Y002437D01*
X008206Y002513D01*
X003332Y002412D02*
X003256Y002488D01*
X003332Y002412D02*
X003332Y002258D01*
X003256Y002181D01*
X002949Y002181D01*
X002872Y002258D01*
X002872Y002412D01*
X002949Y002488D01*
X002872Y002642D02*
X003332Y002642D01*
X003332Y002949D01*
X003332Y003102D02*
X002872Y003102D01*
X003102Y003179D02*
X003332Y003409D01*
X003332Y003563D02*
X003332Y003716D01*
X003332Y003639D02*
X002872Y003639D01*
X002872Y003563D02*
X002872Y003716D01*
X002872Y003870D02*
X003332Y004177D01*
X002872Y004177D01*
X002872Y003870D02*
X003332Y003870D01*
X002872Y003409D02*
X003179Y003102D01*
X003056Y006100D02*
X002749Y006100D01*
X003056Y006407D01*
X003056Y006484D01*
X002979Y006560D01*
X002826Y006560D01*
X002749Y006484D01*
X002442Y006560D02*
X002442Y006100D01*
X002289Y006100D02*
X002596Y006100D01*
X002289Y006407D02*
X002442Y006560D01*
X002135Y006330D02*
X001828Y006330D01*
X003209Y006407D02*
X003363Y006100D01*
X003516Y006407D01*
X006678Y015035D02*
X006678Y015385D01*
X006853Y015385D01*
X006912Y015327D01*
X006912Y015210D01*
X006853Y015152D01*
X006678Y015152D01*
X006795Y015152D02*
X006912Y015035D01*
X007037Y015093D02*
X007096Y015035D01*
X007212Y015035D01*
X007271Y015093D01*
X007271Y015210D01*
X007212Y015269D01*
X007154Y015269D01*
X007037Y015210D01*
X007037Y015385D01*
X007271Y015385D01*
X007330Y016010D02*
X007271Y016068D01*
X007330Y016010D02*
X007447Y016010D01*
X007505Y016068D01*
X007505Y016185D01*
X007447Y016244D01*
X007388Y016244D01*
X007271Y016185D01*
X007271Y016360D01*
X007505Y016360D01*
X007029Y016360D02*
X007029Y016010D01*
X006912Y016010D02*
X007146Y016010D01*
X006912Y016244D02*
X007029Y016360D01*
X006787Y016302D02*
X006787Y016185D01*
X006728Y016127D01*
X006553Y016127D01*
X006553Y016010D02*
X006553Y016360D01*
X006728Y016360D01*
X006787Y016302D01*
X006670Y016127D02*
X006787Y016010D01*
X006784Y016975D02*
X006668Y017092D01*
X006726Y017092D02*
X006551Y017092D01*
X006551Y016975D02*
X006551Y017325D01*
X006726Y017325D01*
X006784Y017267D01*
X006784Y017150D01*
X006726Y017092D01*
X006910Y017209D02*
X007027Y017325D01*
X007027Y016975D01*
X006910Y016975D02*
X007144Y016975D01*
X007269Y017033D02*
X007503Y017267D01*
X007503Y017033D01*
X007444Y016975D01*
X007328Y016975D01*
X007269Y017033D01*
X007269Y017267D01*
X007328Y017325D01*
X007444Y017325D01*
X007503Y017267D01*
X003453Y017275D02*
X003103Y017275D01*
X003103Y017450D01*
X003161Y017509D01*
X003278Y017509D01*
X003336Y017450D01*
X003336Y017275D01*
X003336Y017392D02*
X003453Y017509D01*
X003453Y017634D02*
X003220Y017868D01*
X003161Y017868D01*
X003103Y017809D01*
X003103Y017692D01*
X003161Y017634D01*
X003453Y017634D02*
X003453Y017868D01*
X002513Y017874D02*
X002513Y017991D01*
X002455Y018049D01*
X002396Y018049D01*
X002338Y017991D01*
X002338Y017816D01*
X002455Y017816D01*
X002513Y017874D01*
X002513Y017690D02*
X002513Y017457D01*
X002513Y017574D02*
X002163Y017574D01*
X002280Y017457D01*
X002338Y017331D02*
X002396Y017273D01*
X002396Y017098D01*
X002396Y017214D02*
X002513Y017331D01*
X002338Y017331D02*
X002221Y017331D01*
X002163Y017273D01*
X002163Y017098D01*
X002513Y017098D01*
X002338Y017816D02*
X002221Y017933D01*
X002163Y018049D01*
X005259Y022625D02*
X005259Y023086D01*
X005566Y023086D01*
X005720Y023086D02*
X005873Y023086D01*
X005796Y023086D02*
X005796Y022625D01*
X005720Y022625D02*
X005873Y022625D01*
X006027Y022625D02*
X006334Y022625D01*
X006487Y022625D02*
X006794Y022625D01*
X006947Y022625D02*
X006947Y022932D01*
X007101Y023086D01*
X007254Y022932D01*
X007254Y022625D01*
X007254Y022855D02*
X006947Y022855D01*
X006487Y023086D02*
X006487Y022625D01*
X006027Y022625D02*
X006027Y023086D01*
X005413Y022855D02*
X005259Y022855D01*
X005336Y030125D02*
X005259Y030202D01*
X005336Y030125D02*
X005490Y030125D01*
X005566Y030202D01*
X005566Y030279D01*
X005490Y030355D01*
X005336Y030355D01*
X005259Y030432D01*
X005259Y030509D01*
X005336Y030586D01*
X005490Y030586D01*
X005566Y030509D01*
X005720Y030586D02*
X006027Y030586D01*
X006180Y030586D02*
X006180Y030125D01*
X006487Y030125D01*
X006641Y030125D02*
X006641Y030586D01*
X006871Y030586D01*
X006947Y030509D01*
X006947Y030355D01*
X006871Y030279D01*
X006641Y030279D01*
X006334Y030355D02*
X006180Y030355D01*
X006180Y030586D02*
X006487Y030586D01*
X005873Y030586D02*
X005873Y030125D01*
X007101Y030125D02*
X007101Y030432D01*
X007254Y030586D01*
X007408Y030432D01*
X007408Y030125D01*
X007408Y030355D02*
X007101Y030355D01*
X011410Y036225D02*
X011410Y036575D01*
X011585Y036575D01*
X011644Y036517D01*
X011644Y036400D01*
X011585Y036342D01*
X011410Y036342D01*
X011527Y036342D02*
X011644Y036225D01*
X011769Y036283D02*
X011828Y036225D01*
X011944Y036225D01*
X012003Y036283D01*
X012003Y036342D01*
X011944Y036400D01*
X011886Y036400D01*
X011944Y036400D02*
X012003Y036459D01*
X012003Y036517D01*
X011944Y036575D01*
X011828Y036575D01*
X011769Y036517D01*
X015259Y037625D02*
X015259Y038086D01*
X015490Y038086D01*
X015566Y038009D01*
X015566Y037855D01*
X015490Y037779D01*
X015259Y037779D01*
X015413Y037779D02*
X015566Y037625D01*
X015720Y037702D02*
X015720Y038009D01*
X015796Y038086D01*
X015950Y038086D01*
X016027Y038009D01*
X016027Y037702D01*
X015950Y037625D01*
X015796Y037625D01*
X015720Y037702D01*
X016180Y038086D02*
X016487Y038086D01*
X016334Y038086D02*
X016334Y037625D01*
X016641Y037625D02*
X016641Y038086D01*
X016871Y038086D01*
X016947Y038009D01*
X016947Y037932D01*
X016871Y037855D01*
X016641Y037855D01*
X016871Y037855D02*
X016947Y037779D01*
X016947Y037702D01*
X016871Y037625D01*
X016641Y037625D01*
X016641Y030586D02*
X016871Y030586D01*
X016947Y030509D01*
X016947Y030355D01*
X016871Y030279D01*
X016641Y030279D01*
X016641Y030125D02*
X016641Y030586D01*
X016487Y030586D02*
X016180Y030586D01*
X016180Y030125D01*
X016487Y030125D01*
X016334Y030355D02*
X016180Y030355D01*
X016027Y030586D02*
X015720Y030586D01*
X015873Y030586D02*
X015873Y030125D01*
X015566Y030202D02*
X015490Y030125D01*
X015336Y030125D01*
X015259Y030202D01*
X015336Y030355D02*
X015490Y030355D01*
X015566Y030279D01*
X015566Y030202D01*
X015336Y030355D02*
X015259Y030432D01*
X015259Y030509D01*
X015336Y030586D01*
X015490Y030586D01*
X015566Y030509D01*
X017101Y030586D02*
X017101Y030125D01*
X017331Y030125D01*
X017408Y030202D01*
X017408Y030279D01*
X017331Y030355D01*
X017101Y030355D01*
X017331Y030355D02*
X017408Y030432D01*
X017408Y030509D01*
X017331Y030586D01*
X017101Y030586D01*
X006947Y037625D02*
X006947Y037932D01*
X006794Y038086D01*
X006641Y037932D01*
X006641Y037625D01*
X006641Y037855D02*
X006947Y037855D01*
X006487Y038086D02*
X006180Y038086D01*
X006334Y038086D02*
X006334Y037625D01*
X006027Y037702D02*
X006027Y038009D01*
X005950Y038086D01*
X005796Y038086D01*
X005720Y038009D01*
X005720Y037702D01*
X005796Y037625D01*
X005950Y037625D01*
X006027Y037702D01*
X005566Y037625D02*
X005413Y037779D01*
X005490Y037779D02*
X005259Y037779D01*
X005259Y037625D02*
X005259Y038086D01*
X005490Y038086D01*
X005566Y038009D01*
X005566Y037855D01*
X005490Y037779D01*
X019778Y015293D02*
X019778Y015059D01*
X019778Y015176D02*
X019428Y015176D01*
X019545Y015059D01*
X019603Y014934D02*
X019661Y014875D01*
X019661Y014700D01*
X019661Y014817D02*
X019778Y014934D01*
X019603Y014934D02*
X019486Y014934D01*
X019428Y014875D01*
X019428Y014700D01*
X019778Y014700D01*
X019686Y010027D02*
X019745Y010027D01*
X019803Y009968D01*
X019803Y009852D01*
X019745Y009793D01*
X019803Y009668D02*
X019803Y009434D01*
X019803Y009551D02*
X019453Y009551D01*
X019570Y009434D01*
X019628Y009309D02*
X019686Y009250D01*
X019686Y009075D01*
X019686Y009192D02*
X019803Y009309D01*
X019628Y009309D02*
X019511Y009309D01*
X019453Y009250D01*
X019453Y009075D01*
X019803Y009075D01*
X019511Y009793D02*
X019453Y009852D01*
X019453Y009968D01*
X019511Y010027D01*
X019570Y010027D01*
X019628Y009968D01*
X019686Y010027D01*
X019628Y009968D02*
X019628Y009910D01*
X018753Y008627D02*
X018753Y008393D01*
X018753Y008510D02*
X018403Y008510D01*
X018520Y008393D01*
X018753Y008268D02*
X018753Y008034D01*
X018753Y008151D02*
X018403Y008151D01*
X018520Y008034D01*
X018578Y007909D02*
X018636Y007850D01*
X018636Y007675D01*
X018636Y007792D02*
X018753Y007909D01*
X018578Y007909D02*
X018461Y007909D01*
X018403Y007850D01*
X018403Y007675D01*
X018753Y007675D01*
D13*
X004414Y031940D02*
X004414Y032220D01*
X004321Y032220D02*
X004508Y032220D01*
X004231Y032174D02*
X004185Y032220D01*
X004091Y032220D01*
X004044Y032174D01*
X004044Y032127D01*
X004091Y032080D01*
X004185Y032080D01*
X004231Y032033D01*
X004231Y031987D01*
X004185Y031940D01*
X004091Y031940D01*
X004044Y031987D01*
X003955Y031940D02*
X003862Y032033D01*
X003908Y032033D02*
X003768Y032033D01*
X003768Y031940D02*
X003768Y032220D01*
X003908Y032220D01*
X003955Y032174D01*
X003955Y032080D01*
X003908Y032033D01*
X003862Y032940D02*
X003862Y033220D01*
X003955Y033220D02*
X003768Y033220D01*
X004044Y033220D02*
X004231Y032940D01*
X004044Y032940D02*
X004231Y033220D01*
X004231Y033940D02*
X004044Y034220D01*
X003955Y034174D02*
X003955Y034080D01*
X003908Y034033D01*
X003768Y034033D01*
X003768Y033940D02*
X003768Y034220D01*
X003908Y034220D01*
X003955Y034174D01*
X003862Y034033D02*
X003955Y033940D01*
X004044Y033940D02*
X004231Y034220D01*
X004138Y034940D02*
X004044Y035033D01*
X004044Y035220D01*
X003955Y035220D02*
X003768Y035220D01*
X003768Y035080D01*
X003862Y035127D01*
X003908Y035127D01*
X003955Y035080D01*
X003955Y034987D01*
X003908Y034940D01*
X003815Y034940D01*
X003768Y034987D01*
X004138Y034940D02*
X004231Y035033D01*
X004231Y035220D01*
X003908Y036997D02*
X003955Y037043D01*
X003955Y037277D01*
X003815Y037277D01*
X003768Y037230D01*
X003768Y037137D01*
X003815Y037090D01*
X003955Y037090D01*
X004044Y037090D02*
X004044Y037277D01*
X004185Y037277D01*
X004231Y037230D01*
X004231Y037090D01*
X004321Y037137D02*
X004321Y037230D01*
X004367Y037277D01*
X004508Y037277D01*
X004508Y037370D02*
X004508Y037090D01*
X004367Y037090D01*
X004321Y037137D01*
X003908Y036997D02*
X003862Y036997D01*
D14*
X009858Y037530D02*
X009858Y038830D01*
X009860Y038856D01*
X009865Y038882D01*
X009873Y038907D01*
X009885Y038930D01*
X009899Y038952D01*
X009917Y038971D01*
X009936Y038989D01*
X009958Y039003D01*
X009981Y039015D01*
X010006Y039023D01*
X010032Y039028D01*
X010058Y039030D01*
X010308Y038680D02*
X010308Y038300D01*
X010308Y038050D02*
X010308Y037680D01*
X010058Y037330D02*
X010032Y037332D01*
X010006Y037337D01*
X009981Y037345D01*
X009958Y037357D01*
X009936Y037371D01*
X009917Y037389D01*
X009899Y037408D01*
X009885Y037430D01*
X009873Y037453D01*
X009865Y037478D01*
X009860Y037504D01*
X009858Y037530D01*
X010558Y037330D02*
X010584Y037332D01*
X010610Y037337D01*
X010635Y037345D01*
X010658Y037357D01*
X010680Y037371D01*
X010699Y037389D01*
X010717Y037408D01*
X010731Y037430D01*
X010743Y037453D01*
X010751Y037478D01*
X010756Y037504D01*
X010758Y037530D01*
X010758Y038830D01*
X010756Y038856D01*
X010751Y038882D01*
X010743Y038907D01*
X010731Y038930D01*
X010717Y038952D01*
X010699Y038971D01*
X010680Y038989D01*
X010658Y039003D01*
X010635Y039015D01*
X010610Y039023D01*
X010584Y039028D01*
X010558Y039030D01*
X010908Y036830D02*
X011058Y036830D01*
X011108Y036780D01*
X012508Y036780D01*
X012558Y036830D01*
X012708Y036830D01*
X012725Y036828D01*
X012742Y036824D01*
X012758Y036817D01*
X012772Y036807D01*
X012785Y036794D01*
X012795Y036780D01*
X012802Y036764D01*
X012806Y036747D01*
X012808Y036730D01*
X012808Y036130D01*
X012806Y036113D01*
X012802Y036096D01*
X012795Y036080D01*
X012785Y036066D01*
X012772Y036053D01*
X012758Y036043D01*
X012742Y036036D01*
X012725Y036032D01*
X012708Y036030D01*
X012558Y036030D01*
X012508Y036080D01*
X011108Y036080D01*
X011058Y036030D01*
X010908Y036030D01*
X010891Y036032D01*
X010874Y036036D01*
X010858Y036043D01*
X010844Y036053D01*
X010831Y036066D01*
X010821Y036080D01*
X010814Y036096D01*
X010810Y036113D01*
X010808Y036130D01*
X010808Y036730D01*
X010810Y036747D01*
X010814Y036764D01*
X010821Y036780D01*
X010831Y036794D01*
X010844Y036807D01*
X010858Y036817D01*
X010874Y036824D01*
X010891Y036828D01*
X010908Y036830D01*
X010708Y035980D02*
X010708Y021380D01*
X012908Y021380D01*
X012908Y035980D01*
X012058Y035980D01*
X012056Y035950D01*
X012051Y035920D01*
X012042Y035891D01*
X012029Y035864D01*
X012014Y035838D01*
X011995Y035814D01*
X011974Y035793D01*
X011950Y035774D01*
X011924Y035759D01*
X011897Y035746D01*
X011868Y035737D01*
X011838Y035732D01*
X011808Y035730D01*
X011778Y035732D01*
X011748Y035737D01*
X011719Y035746D01*
X011692Y035759D01*
X011666Y035774D01*
X011642Y035793D01*
X011621Y035814D01*
X011602Y035838D01*
X011587Y035864D01*
X011574Y035891D01*
X011565Y035920D01*
X011560Y035950D01*
X011558Y035980D01*
X010708Y035980D01*
X015933Y025130D02*
X017233Y025130D01*
X017259Y025128D01*
X017285Y025123D01*
X017310Y025115D01*
X017333Y025103D01*
X017355Y025089D01*
X017374Y025071D01*
X017392Y025052D01*
X017406Y025030D01*
X017418Y025007D01*
X017426Y024982D01*
X017431Y024956D01*
X017433Y024930D01*
X017083Y024680D02*
X016713Y024680D01*
X016463Y024680D02*
X016083Y024680D01*
X015733Y024930D02*
X015735Y024956D01*
X015740Y024982D01*
X015748Y025007D01*
X015760Y025030D01*
X015774Y025052D01*
X015792Y025071D01*
X015811Y025089D01*
X015833Y025103D01*
X015856Y025115D01*
X015881Y025123D01*
X015907Y025128D01*
X015933Y025130D01*
X015733Y024430D02*
X015735Y024404D01*
X015740Y024378D01*
X015748Y024353D01*
X015760Y024330D01*
X015774Y024308D01*
X015792Y024289D01*
X015811Y024271D01*
X015833Y024257D01*
X015856Y024245D01*
X015881Y024237D01*
X015907Y024232D01*
X015933Y024230D01*
X017233Y024230D01*
X017259Y024232D01*
X017285Y024237D01*
X017310Y024245D01*
X017333Y024257D01*
X017355Y024271D01*
X017374Y024289D01*
X017392Y024308D01*
X017406Y024330D01*
X017418Y024353D01*
X017426Y024378D01*
X017431Y024404D01*
X017433Y024430D01*
X017458Y016580D02*
X017308Y016580D01*
X017258Y016530D01*
X015858Y016530D01*
X015808Y016580D01*
X015658Y016580D01*
X015641Y016578D01*
X015624Y016574D01*
X015608Y016567D01*
X015594Y016557D01*
X015581Y016544D01*
X015571Y016530D01*
X015564Y016514D01*
X015560Y016497D01*
X015558Y016480D01*
X015558Y015880D01*
X015560Y015863D01*
X015564Y015846D01*
X015571Y015830D01*
X015581Y015816D01*
X015594Y015803D01*
X015608Y015793D01*
X015624Y015786D01*
X015641Y015782D01*
X015658Y015780D01*
X015808Y015780D01*
X015858Y015830D01*
X017258Y015830D01*
X017308Y015780D01*
X017458Y015780D01*
X017475Y015782D01*
X017492Y015786D01*
X017508Y015793D01*
X017522Y015803D01*
X017535Y015816D01*
X017545Y015830D01*
X017552Y015846D01*
X017556Y015863D01*
X017558Y015880D01*
X017558Y016480D01*
X017556Y016497D01*
X017552Y016514D01*
X017545Y016530D01*
X017535Y016544D01*
X017522Y016557D01*
X017508Y016567D01*
X017492Y016574D01*
X017475Y016578D01*
X017458Y016580D01*
X017458Y015580D02*
X017308Y015580D01*
X017258Y015530D01*
X015858Y015530D01*
X015808Y015580D01*
X015658Y015580D01*
X015641Y015578D01*
X015624Y015574D01*
X015608Y015567D01*
X015594Y015557D01*
X015581Y015544D01*
X015571Y015530D01*
X015564Y015514D01*
X015560Y015497D01*
X015558Y015480D01*
X015558Y014880D01*
X015560Y014863D01*
X015564Y014846D01*
X015571Y014830D01*
X015581Y014816D01*
X015594Y014803D01*
X015608Y014793D01*
X015624Y014786D01*
X015641Y014782D01*
X015658Y014780D01*
X015808Y014780D01*
X015858Y014830D01*
X017258Y014830D01*
X017308Y014780D01*
X017458Y014780D01*
X017475Y014782D01*
X017492Y014786D01*
X017508Y014793D01*
X017522Y014803D01*
X017535Y014816D01*
X017545Y014830D01*
X017552Y014846D01*
X017556Y014863D01*
X017558Y014880D01*
X017558Y015480D01*
X017556Y015497D01*
X017552Y015514D01*
X017545Y015530D01*
X017535Y015544D01*
X017522Y015557D01*
X017508Y015567D01*
X017492Y015574D01*
X017475Y015578D01*
X017458Y015580D01*
X019158Y015930D02*
X019208Y015880D01*
X019208Y014480D01*
X019158Y014430D01*
X019158Y014280D01*
X019160Y014263D01*
X019164Y014246D01*
X019171Y014230D01*
X019181Y014216D01*
X019194Y014203D01*
X019208Y014193D01*
X019224Y014186D01*
X019241Y014182D01*
X019258Y014180D01*
X019858Y014180D01*
X019875Y014182D01*
X019892Y014186D01*
X019908Y014193D01*
X019922Y014203D01*
X019935Y014216D01*
X019945Y014230D01*
X019952Y014246D01*
X019956Y014263D01*
X019958Y014280D01*
X019958Y014430D01*
X019908Y014480D01*
X019908Y015880D01*
X019958Y015930D01*
X019958Y016080D01*
X019956Y016097D01*
X019952Y016114D01*
X019945Y016130D01*
X019935Y016144D01*
X019922Y016157D01*
X019908Y016167D01*
X019892Y016174D01*
X019875Y016178D01*
X019858Y016180D01*
X019258Y016180D01*
X019241Y016178D01*
X019224Y016174D01*
X019208Y016167D01*
X019194Y016157D01*
X019181Y016144D01*
X019171Y016130D01*
X019164Y016114D01*
X019160Y016097D01*
X019158Y016080D01*
X019158Y015930D01*
X013958Y015930D02*
X013908Y015880D01*
X013908Y014480D01*
X013958Y014430D01*
X013958Y014280D01*
X013956Y014263D01*
X013952Y014246D01*
X013945Y014230D01*
X013935Y014216D01*
X013922Y014203D01*
X013908Y014193D01*
X013892Y014186D01*
X013875Y014182D01*
X013858Y014180D01*
X013258Y014180D01*
X013241Y014182D01*
X013224Y014186D01*
X013208Y014193D01*
X013194Y014203D01*
X013181Y014216D01*
X013171Y014230D01*
X013164Y014246D01*
X013160Y014263D01*
X013158Y014280D01*
X013158Y014430D01*
X013208Y014480D01*
X013208Y015880D01*
X013158Y015930D01*
X013158Y016080D01*
X013160Y016097D01*
X013164Y016114D01*
X013171Y016130D01*
X013181Y016144D01*
X013194Y016157D01*
X013208Y016167D01*
X013224Y016174D01*
X013241Y016178D01*
X013258Y016180D01*
X013858Y016180D01*
X013875Y016178D01*
X013892Y016174D01*
X013908Y016167D01*
X013922Y016157D01*
X013935Y016144D01*
X013945Y016130D01*
X013952Y016114D01*
X013956Y016097D01*
X013958Y016080D01*
X013958Y015930D01*
X014108Y010680D02*
X013508Y010680D01*
X013491Y010678D01*
X013474Y010674D01*
X013458Y010667D01*
X013444Y010657D01*
X013431Y010644D01*
X013421Y010630D01*
X013414Y010614D01*
X013410Y010597D01*
X013408Y010580D01*
X013408Y010430D01*
X013458Y010380D01*
X013458Y008980D01*
X013408Y008930D01*
X013408Y008780D01*
X013410Y008763D01*
X013414Y008746D01*
X013421Y008730D01*
X013431Y008716D01*
X013444Y008703D01*
X013458Y008693D01*
X013474Y008686D01*
X013491Y008682D01*
X013508Y008680D01*
X014108Y008680D01*
X014125Y008682D01*
X014142Y008686D01*
X014158Y008693D01*
X014172Y008703D01*
X014185Y008716D01*
X014195Y008730D01*
X014202Y008746D01*
X014206Y008763D01*
X014208Y008780D01*
X014208Y008930D01*
X014158Y008980D01*
X014158Y010380D01*
X014208Y010430D01*
X014208Y010580D01*
X014206Y010597D01*
X014202Y010614D01*
X014195Y010630D01*
X014185Y010644D01*
X014172Y010657D01*
X014158Y010667D01*
X014142Y010674D01*
X014125Y010678D01*
X014108Y010680D01*
X014258Y009180D02*
X014858Y009180D01*
X014875Y009178D01*
X014892Y009174D01*
X014908Y009167D01*
X014922Y009157D01*
X014935Y009144D01*
X014945Y009130D01*
X014952Y009114D01*
X014956Y009097D01*
X014958Y009080D01*
X014958Y008930D01*
X014908Y008880D01*
X014908Y007480D01*
X014958Y007430D01*
X014958Y007280D01*
X014956Y007263D01*
X014952Y007246D01*
X014945Y007230D01*
X014935Y007216D01*
X014922Y007203D01*
X014908Y007193D01*
X014892Y007186D01*
X014875Y007182D01*
X014858Y007180D01*
X014258Y007180D01*
X014241Y007182D01*
X014224Y007186D01*
X014208Y007193D01*
X014194Y007203D01*
X014181Y007216D01*
X014171Y007230D01*
X014164Y007246D01*
X014160Y007263D01*
X014158Y007280D01*
X014158Y007430D01*
X014208Y007480D01*
X014208Y008880D01*
X014158Y008930D01*
X014158Y009080D01*
X014160Y009097D01*
X014164Y009114D01*
X014171Y009130D01*
X014181Y009144D01*
X014194Y009157D01*
X014208Y009167D01*
X014224Y009174D01*
X014241Y009178D01*
X014258Y009180D01*
X018158Y009080D02*
X018158Y008930D01*
X018208Y008880D01*
X018208Y007480D01*
X018158Y007430D01*
X018158Y007280D01*
X018160Y007263D01*
X018164Y007246D01*
X018171Y007230D01*
X018181Y007216D01*
X018194Y007203D01*
X018208Y007193D01*
X018224Y007186D01*
X018241Y007182D01*
X018258Y007180D01*
X018858Y007180D01*
X018875Y007182D01*
X018892Y007186D01*
X018908Y007193D01*
X018922Y007203D01*
X018935Y007216D01*
X018945Y007230D01*
X018952Y007246D01*
X018956Y007263D01*
X018958Y007280D01*
X018958Y007430D01*
X018908Y007480D01*
X018908Y008880D01*
X018958Y008930D01*
X018958Y009080D01*
X018956Y009097D01*
X018952Y009114D01*
X018945Y009130D01*
X018935Y009144D01*
X018922Y009157D01*
X018908Y009167D01*
X018892Y009174D01*
X018875Y009178D01*
X018858Y009180D01*
X018258Y009180D01*
X018241Y009178D01*
X018224Y009174D01*
X018208Y009167D01*
X018194Y009157D01*
X018181Y009144D01*
X018171Y009130D01*
X018164Y009114D01*
X018160Y009097D01*
X018158Y009080D01*
X019158Y008930D02*
X019208Y008980D01*
X019208Y010380D01*
X019158Y010430D01*
X019158Y010580D01*
X019160Y010597D01*
X019164Y010614D01*
X019171Y010630D01*
X019181Y010644D01*
X019194Y010657D01*
X019208Y010667D01*
X019224Y010674D01*
X019241Y010678D01*
X019258Y010680D01*
X019858Y010680D01*
X019875Y010678D01*
X019892Y010674D01*
X019908Y010667D01*
X019922Y010657D01*
X019935Y010644D01*
X019945Y010630D01*
X019952Y010614D01*
X019956Y010597D01*
X019958Y010580D01*
X019958Y010430D01*
X019908Y010380D01*
X019908Y008980D01*
X019958Y008930D01*
X019958Y008780D01*
X019956Y008763D01*
X019952Y008746D01*
X019945Y008730D01*
X019935Y008716D01*
X019922Y008703D01*
X019908Y008693D01*
X019892Y008686D01*
X019875Y008682D01*
X019858Y008680D01*
X019258Y008680D01*
X019241Y008682D01*
X019224Y008686D01*
X019208Y008693D01*
X019194Y008703D01*
X019181Y008716D01*
X019171Y008730D01*
X019164Y008746D01*
X019160Y008763D01*
X019158Y008780D01*
X019158Y008930D01*
X016858Y005180D02*
X016258Y005180D01*
X016241Y005178D01*
X016224Y005174D01*
X016208Y005167D01*
X016194Y005157D01*
X016181Y005144D01*
X016171Y005130D01*
X016164Y005114D01*
X016160Y005097D01*
X016158Y005080D01*
X016158Y004930D01*
X016208Y004880D01*
X016208Y003480D01*
X016158Y003430D01*
X016158Y003280D01*
X016160Y003263D01*
X016164Y003246D01*
X016171Y003230D01*
X016181Y003216D01*
X016194Y003203D01*
X016208Y003193D01*
X016224Y003186D01*
X016241Y003182D01*
X016258Y003180D01*
X016858Y003180D01*
X016875Y003182D01*
X016892Y003186D01*
X016908Y003193D01*
X016922Y003203D01*
X016935Y003216D01*
X016945Y003230D01*
X016952Y003246D01*
X016956Y003263D01*
X016958Y003280D01*
X016958Y003430D01*
X016908Y003480D01*
X016908Y004880D01*
X016958Y004930D01*
X016958Y005080D01*
X016956Y005097D01*
X016952Y005114D01*
X016945Y005130D01*
X016935Y005144D01*
X016922Y005157D01*
X016908Y005167D01*
X016892Y005174D01*
X016875Y005178D01*
X016858Y005180D01*
X011958Y005080D02*
X011958Y004930D01*
X011908Y004880D01*
X011908Y003480D01*
X011958Y003430D01*
X011958Y003280D01*
X011956Y003263D01*
X011952Y003246D01*
X011945Y003230D01*
X011935Y003216D01*
X011922Y003203D01*
X011908Y003193D01*
X011892Y003186D01*
X011875Y003182D01*
X011858Y003180D01*
X011258Y003180D01*
X011241Y003182D01*
X011224Y003186D01*
X011208Y003193D01*
X011194Y003203D01*
X011181Y003216D01*
X011171Y003230D01*
X011164Y003246D01*
X011160Y003263D01*
X011158Y003280D01*
X011158Y003430D01*
X011208Y003480D01*
X011208Y004880D01*
X011158Y004930D01*
X011158Y005080D01*
X011160Y005097D01*
X011164Y005114D01*
X011171Y005130D01*
X011181Y005144D01*
X011194Y005157D01*
X011208Y005167D01*
X011224Y005174D01*
X011241Y005178D01*
X011258Y005180D01*
X011858Y005180D01*
X011875Y005178D01*
X011892Y005174D01*
X011908Y005167D01*
X011922Y005157D01*
X011935Y005144D01*
X011945Y005130D01*
X011952Y005114D01*
X011956Y005097D01*
X011958Y005080D01*
X009708Y007280D02*
X009708Y007430D01*
X009658Y007480D01*
X009658Y008880D01*
X009708Y008930D01*
X009708Y009080D01*
X009706Y009097D01*
X009702Y009114D01*
X009695Y009130D01*
X009685Y009144D01*
X009672Y009157D01*
X009658Y009167D01*
X009642Y009174D01*
X009625Y009178D01*
X009608Y009180D01*
X009008Y009180D01*
X008991Y009178D01*
X008974Y009174D01*
X008958Y009167D01*
X008944Y009157D01*
X008931Y009144D01*
X008921Y009130D01*
X008914Y009114D01*
X008910Y009097D01*
X008908Y009080D01*
X008908Y008930D01*
X008958Y008880D01*
X008958Y007480D01*
X008908Y007430D01*
X008908Y007280D01*
X008910Y007263D01*
X008914Y007246D01*
X008921Y007230D01*
X008931Y007216D01*
X008944Y007203D01*
X008958Y007193D01*
X008974Y007186D01*
X008991Y007182D01*
X009008Y007180D01*
X009608Y007180D01*
X009625Y007182D01*
X009642Y007186D01*
X009658Y007193D01*
X009672Y007203D01*
X009685Y007216D01*
X009695Y007230D01*
X009702Y007246D01*
X009706Y007263D01*
X009708Y007280D01*
X008858Y008680D02*
X008258Y008680D01*
X008241Y008682D01*
X008224Y008686D01*
X008208Y008693D01*
X008194Y008703D01*
X008181Y008716D01*
X008171Y008730D01*
X008164Y008746D01*
X008160Y008763D01*
X008158Y008780D01*
X008158Y008930D01*
X008208Y008980D01*
X008208Y010380D01*
X008158Y010430D01*
X008158Y010580D01*
X008160Y010597D01*
X008164Y010614D01*
X008171Y010630D01*
X008181Y010644D01*
X008194Y010657D01*
X008208Y010667D01*
X008224Y010674D01*
X008241Y010678D01*
X008258Y010680D01*
X008858Y010680D01*
X008875Y010678D01*
X008892Y010674D01*
X008908Y010667D01*
X008922Y010657D01*
X008935Y010644D01*
X008945Y010630D01*
X008952Y010614D01*
X008956Y010597D01*
X008958Y010580D01*
X008958Y010430D01*
X008908Y010380D01*
X008908Y008980D01*
X008958Y008930D01*
X008958Y008780D01*
X008956Y008763D01*
X008952Y008746D01*
X008945Y008730D01*
X008935Y008716D01*
X008922Y008703D01*
X008908Y008693D01*
X008892Y008686D01*
X008875Y008682D01*
X008858Y008680D01*
X003608Y008905D02*
X003358Y008655D01*
X001858Y008655D01*
X001608Y008905D01*
X001608Y009405D01*
X001858Y009655D01*
X003358Y009655D01*
X003608Y009905D01*
X003608Y010405D01*
X003358Y010655D01*
X001858Y010655D01*
X001608Y010905D01*
X001608Y011405D01*
X001858Y011655D01*
X003358Y011655D01*
X003608Y011905D01*
X003608Y012405D01*
X003358Y012655D01*
X001858Y012655D01*
X001608Y012905D01*
X001608Y013405D01*
X001858Y013655D01*
X003358Y013655D01*
X003608Y013405D01*
X003608Y012905D01*
X003358Y012655D01*
X003358Y013655D02*
X003608Y013905D01*
X003608Y014405D01*
X003358Y014655D01*
X001858Y014655D01*
X001608Y014405D01*
X001608Y013905D01*
X001858Y013655D01*
X001858Y012655D02*
X001608Y012405D01*
X001608Y011905D01*
X001858Y011655D01*
X001858Y010655D02*
X001608Y010405D01*
X001608Y009905D01*
X001858Y009655D01*
X001858Y008655D02*
X001608Y008405D01*
X001608Y007905D01*
X001858Y007655D01*
X003358Y007655D01*
X003608Y007905D01*
X003608Y008405D01*
X003358Y008655D01*
X003608Y008905D02*
X003608Y009405D01*
X003358Y009655D01*
X003358Y010655D02*
X003608Y010905D01*
X003608Y011405D01*
X003358Y011655D01*
X006158Y014780D02*
X006308Y014780D01*
X006358Y014830D01*
X007758Y014830D01*
X007808Y014780D01*
X007958Y014780D01*
X007975Y014782D01*
X007992Y014786D01*
X008008Y014793D01*
X008022Y014803D01*
X008035Y014816D01*
X008045Y014830D01*
X008052Y014846D01*
X008056Y014863D01*
X008058Y014880D01*
X008058Y015480D01*
X008056Y015497D01*
X008052Y015514D01*
X008045Y015530D01*
X008035Y015544D01*
X008022Y015557D01*
X008008Y015567D01*
X007992Y015574D01*
X007975Y015578D01*
X007958Y015580D01*
X007808Y015580D01*
X007758Y015530D01*
X006358Y015530D01*
X006308Y015580D01*
X006158Y015580D01*
X006141Y015578D01*
X006124Y015574D01*
X006108Y015567D01*
X006094Y015557D01*
X006081Y015544D01*
X006071Y015530D01*
X006064Y015514D01*
X006060Y015497D01*
X006058Y015480D01*
X006058Y014880D01*
X006060Y014863D01*
X006064Y014846D01*
X006071Y014830D01*
X006081Y014816D01*
X006094Y014803D01*
X006108Y014793D01*
X006124Y014786D01*
X006141Y014782D01*
X006158Y014780D01*
X006158Y015780D02*
X006308Y015780D01*
X006358Y015830D01*
X007758Y015830D01*
X007808Y015780D01*
X007958Y015780D01*
X007975Y015782D01*
X007992Y015786D01*
X008008Y015793D01*
X008022Y015803D01*
X008035Y015816D01*
X008045Y015830D01*
X008052Y015846D01*
X008056Y015863D01*
X008058Y015880D01*
X008058Y016480D01*
X008056Y016497D01*
X008052Y016514D01*
X008045Y016530D01*
X008035Y016544D01*
X008022Y016557D01*
X008008Y016567D01*
X007992Y016574D01*
X007975Y016578D01*
X007958Y016580D01*
X007808Y016580D01*
X007758Y016530D01*
X006358Y016530D01*
X006308Y016580D01*
X006158Y016580D01*
X006141Y016578D01*
X006124Y016574D01*
X006108Y016567D01*
X006094Y016557D01*
X006081Y016544D01*
X006071Y016530D01*
X006064Y016514D01*
X006060Y016497D01*
X006058Y016480D01*
X006058Y015880D01*
X006060Y015863D01*
X006064Y015846D01*
X006071Y015830D01*
X006081Y015816D01*
X006094Y015803D01*
X006108Y015793D01*
X006124Y015786D01*
X006141Y015782D01*
X006158Y015780D01*
X006158Y016780D02*
X006308Y016780D01*
X006358Y016830D01*
X007758Y016830D01*
X007808Y016780D01*
X007958Y016780D01*
X007975Y016782D01*
X007992Y016786D01*
X008008Y016793D01*
X008022Y016803D01*
X008035Y016816D01*
X008045Y016830D01*
X008052Y016846D01*
X008056Y016863D01*
X008058Y016880D01*
X008058Y017480D01*
X008056Y017497D01*
X008052Y017514D01*
X008045Y017530D01*
X008035Y017544D01*
X008022Y017557D01*
X008008Y017567D01*
X007992Y017574D01*
X007975Y017578D01*
X007958Y017580D01*
X007808Y017580D01*
X007758Y017530D01*
X006358Y017530D01*
X006308Y017580D01*
X006158Y017580D01*
X006141Y017578D01*
X006124Y017574D01*
X006108Y017567D01*
X006094Y017557D01*
X006081Y017544D01*
X006071Y017530D01*
X006064Y017514D01*
X006060Y017497D01*
X006058Y017480D01*
X006058Y016880D01*
X006060Y016863D01*
X006064Y016846D01*
X006071Y016830D01*
X006081Y016816D01*
X006094Y016803D01*
X006108Y016793D01*
X006124Y016786D01*
X006141Y016782D01*
X006158Y016780D01*
X003708Y016780D02*
X003708Y016930D01*
X003658Y016980D01*
X003658Y018380D01*
X003708Y018430D01*
X003708Y018580D01*
X003706Y018597D01*
X003702Y018614D01*
X003695Y018630D01*
X003685Y018644D01*
X003672Y018657D01*
X003658Y018667D01*
X003642Y018674D01*
X003625Y018678D01*
X003608Y018680D01*
X003008Y018680D01*
X002991Y018678D01*
X002974Y018674D01*
X002958Y018667D01*
X002944Y018657D01*
X002931Y018644D01*
X002921Y018630D01*
X002914Y018614D01*
X002910Y018597D01*
X002908Y018580D01*
X002908Y018430D01*
X002958Y018380D01*
X002958Y016980D01*
X002908Y016930D01*
X002908Y016780D01*
X002910Y016763D01*
X002914Y016746D01*
X002921Y016730D01*
X002931Y016716D01*
X002944Y016703D01*
X002958Y016693D01*
X002974Y016686D01*
X002991Y016682D01*
X003008Y016680D01*
X003608Y016680D01*
X003625Y016682D01*
X003642Y016686D01*
X003658Y016693D01*
X003672Y016703D01*
X003685Y016716D01*
X003695Y016730D01*
X003702Y016746D01*
X003706Y016763D01*
X003708Y016780D01*
X002708Y016780D02*
X002708Y016930D01*
X002658Y016980D01*
X002658Y018380D01*
X002708Y018430D01*
X002708Y018580D01*
X002706Y018597D01*
X002702Y018614D01*
X002695Y018630D01*
X002685Y018644D01*
X002672Y018657D01*
X002658Y018667D01*
X002642Y018674D01*
X002625Y018678D01*
X002608Y018680D01*
X002008Y018680D01*
X001991Y018678D01*
X001974Y018674D01*
X001958Y018667D01*
X001944Y018657D01*
X001931Y018644D01*
X001921Y018630D01*
X001914Y018614D01*
X001910Y018597D01*
X001908Y018580D01*
X001908Y018430D01*
X001958Y018380D01*
X001958Y016980D01*
X001908Y016930D01*
X001908Y016780D01*
X001910Y016763D01*
X001914Y016746D01*
X001921Y016730D01*
X001931Y016716D01*
X001944Y016703D01*
X001958Y016693D01*
X001974Y016686D01*
X001991Y016682D01*
X002008Y016680D01*
X002608Y016680D01*
X002625Y016682D01*
X002642Y016686D01*
X002658Y016693D01*
X002672Y016703D01*
X002685Y016716D01*
X002695Y016730D01*
X002702Y016746D01*
X002706Y016763D01*
X002708Y016780D01*
X003408Y023530D02*
X003608Y023530D01*
X003608Y023930D01*
X003608Y024330D01*
X003408Y024330D01*
X003408Y023530D01*
X003708Y023680D02*
X003908Y023680D01*
X003808Y023780D02*
X003808Y023580D01*
X003858Y023930D02*
X003608Y023930D01*
X004438Y024464D02*
X004407Y024526D01*
X004372Y024585D01*
X004335Y024643D01*
X004294Y024698D01*
X004250Y024752D01*
X004203Y024802D01*
X004154Y024850D01*
X004102Y024895D01*
X004048Y024938D01*
X003991Y024977D01*
X003933Y025013D01*
X003872Y025046D01*
X003810Y025075D01*
X003746Y025101D01*
X003681Y025123D01*
X003615Y025142D01*
X003547Y025157D01*
X003480Y025168D01*
X003411Y025176D01*
X003342Y025180D01*
X003274Y025180D01*
X003205Y025176D01*
X003136Y025168D01*
X003069Y025157D01*
X003001Y025142D01*
X002935Y025123D01*
X002870Y025101D01*
X002806Y025075D01*
X002744Y025046D01*
X002683Y025013D01*
X002625Y024977D01*
X002568Y024938D01*
X002514Y024895D01*
X002462Y024850D01*
X002413Y024802D01*
X002366Y024752D01*
X002322Y024698D01*
X002281Y024643D01*
X002244Y024585D01*
X002209Y024526D01*
X002178Y024464D01*
X002758Y023930D02*
X003058Y023930D01*
X002178Y023396D02*
X002209Y023334D01*
X002244Y023275D01*
X002281Y023217D01*
X002322Y023162D01*
X002366Y023108D01*
X002413Y023058D01*
X002462Y023010D01*
X002514Y022965D01*
X002568Y022922D01*
X002625Y022883D01*
X002683Y022847D01*
X002744Y022814D01*
X002806Y022785D01*
X002870Y022759D01*
X002935Y022737D01*
X003001Y022718D01*
X003069Y022703D01*
X003136Y022692D01*
X003205Y022684D01*
X003274Y022680D01*
X003342Y022680D01*
X003411Y022684D01*
X003480Y022692D01*
X003547Y022703D01*
X003615Y022718D01*
X003681Y022737D01*
X003746Y022759D01*
X003810Y022785D01*
X003872Y022814D01*
X003933Y022847D01*
X003991Y022883D01*
X004048Y022922D01*
X004102Y022965D01*
X004154Y023010D01*
X004203Y023058D01*
X004250Y023108D01*
X004294Y023162D01*
X004335Y023217D01*
X004372Y023275D01*
X004407Y023334D01*
X004438Y023396D01*
X003358Y007655D02*
X003608Y007405D01*
X003608Y006905D01*
X003358Y006655D01*
X001858Y006655D01*
X001608Y006905D01*
X001608Y007405D01*
X001858Y007655D01*
D15*
X003958Y006680D02*
X003958Y009680D01*
X005158Y009680D01*
X005158Y006680D01*
X003958Y006680D01*
X005141Y006180D02*
X005808Y006180D01*
X005141Y006180D02*
X005141Y011180D01*
X005808Y011180D01*
X005158Y011180D02*
X003958Y011180D01*
X003958Y014180D01*
X005158Y014180D01*
X005158Y011180D01*
X005638Y013230D02*
X005638Y014130D01*
X005668Y014185D01*
X005701Y014238D01*
X005737Y014289D01*
X005777Y014338D01*
X005819Y014384D01*
X005865Y014427D01*
X005912Y014468D01*
X005963Y014505D01*
X006015Y014539D01*
X006070Y014570D01*
X006126Y014598D01*
X006184Y014622D01*
X006243Y014642D01*
X006304Y014658D01*
X006365Y014671D01*
X006427Y014680D01*
X006489Y014685D01*
X006552Y014686D01*
X006615Y014683D01*
X006677Y014676D01*
X006739Y014666D01*
X006800Y014651D01*
X006859Y014633D01*
X006918Y014611D01*
X006975Y014586D01*
X007031Y014557D01*
X007085Y014525D01*
X007136Y014489D01*
X007185Y014450D01*
X007232Y014408D01*
X007276Y014364D01*
X007317Y014317D01*
X007355Y014267D01*
X007390Y014215D01*
X007422Y014161D01*
X007450Y014105D01*
X007475Y014047D01*
X007496Y013988D01*
X007513Y013928D01*
X007526Y013867D01*
X007536Y013805D01*
X007542Y013743D01*
X007544Y013680D01*
X007542Y013617D01*
X007536Y013555D01*
X007526Y013493D01*
X007513Y013432D01*
X007496Y013372D01*
X007475Y013313D01*
X007450Y013255D01*
X007422Y013199D01*
X007390Y013145D01*
X007355Y013093D01*
X007317Y013043D01*
X007276Y012996D01*
X007232Y012952D01*
X007185Y012910D01*
X007136Y012871D01*
X007085Y012835D01*
X007031Y012803D01*
X006975Y012774D01*
X006918Y012749D01*
X006859Y012727D01*
X006800Y012709D01*
X006739Y012694D01*
X006677Y012684D01*
X006615Y012677D01*
X006552Y012674D01*
X006489Y012675D01*
X006427Y012680D01*
X006365Y012689D01*
X006304Y012702D01*
X006243Y012718D01*
X006184Y012738D01*
X006126Y012762D01*
X006070Y012790D01*
X006015Y012821D01*
X005963Y012855D01*
X005912Y012892D01*
X005865Y012933D01*
X005819Y012976D01*
X005777Y013022D01*
X005737Y013071D01*
X005701Y013122D01*
X005668Y013175D01*
X005638Y013230D01*
X007308Y011180D02*
X007976Y011180D01*
X007976Y006180D01*
X007308Y006180D01*
X010141Y011180D02*
X010808Y011180D01*
X010141Y011180D02*
X010141Y016180D01*
X010808Y016180D01*
X012308Y016180D02*
X012976Y016180D01*
X012976Y011180D01*
X012308Y011180D01*
X015141Y011180D02*
X015808Y011180D01*
X015141Y011180D02*
X015141Y006180D01*
X015808Y006180D01*
X017308Y006180D02*
X017976Y006180D01*
X017976Y011180D01*
X017308Y011180D01*
X015638Y013230D02*
X015638Y014130D01*
X015668Y014185D01*
X015701Y014238D01*
X015737Y014289D01*
X015777Y014338D01*
X015819Y014384D01*
X015865Y014427D01*
X015912Y014468D01*
X015963Y014505D01*
X016015Y014539D01*
X016070Y014570D01*
X016126Y014598D01*
X016184Y014622D01*
X016243Y014642D01*
X016304Y014658D01*
X016365Y014671D01*
X016427Y014680D01*
X016489Y014685D01*
X016552Y014686D01*
X016615Y014683D01*
X016677Y014676D01*
X016739Y014666D01*
X016800Y014651D01*
X016859Y014633D01*
X016918Y014611D01*
X016975Y014586D01*
X017031Y014557D01*
X017085Y014525D01*
X017136Y014489D01*
X017185Y014450D01*
X017232Y014408D01*
X017276Y014364D01*
X017317Y014317D01*
X017355Y014267D01*
X017390Y014215D01*
X017422Y014161D01*
X017450Y014105D01*
X017475Y014047D01*
X017496Y013988D01*
X017513Y013928D01*
X017526Y013867D01*
X017536Y013805D01*
X017542Y013743D01*
X017544Y013680D01*
X017542Y013617D01*
X017536Y013555D01*
X017526Y013493D01*
X017513Y013432D01*
X017496Y013372D01*
X017475Y013313D01*
X017450Y013255D01*
X017422Y013199D01*
X017390Y013145D01*
X017355Y013093D01*
X017317Y013043D01*
X017276Y012996D01*
X017232Y012952D01*
X017185Y012910D01*
X017136Y012871D01*
X017085Y012835D01*
X017031Y012803D01*
X016975Y012774D01*
X016918Y012749D01*
X016859Y012727D01*
X016800Y012709D01*
X016739Y012694D01*
X016677Y012684D01*
X016615Y012677D01*
X016552Y012674D01*
X016489Y012675D01*
X016427Y012680D01*
X016365Y012689D01*
X016304Y012702D01*
X016243Y012718D01*
X016184Y012738D01*
X016126Y012762D01*
X016070Y012790D01*
X016015Y012821D01*
X015963Y012855D01*
X015912Y012892D01*
X015865Y012933D01*
X015819Y012976D01*
X015777Y013022D01*
X015737Y013071D01*
X015701Y013122D01*
X015668Y013175D01*
X015638Y013230D01*
X010638Y018230D02*
X010668Y018175D01*
X010701Y018122D01*
X010737Y018071D01*
X010777Y018022D01*
X010819Y017976D01*
X010865Y017933D01*
X010912Y017892D01*
X010963Y017855D01*
X011015Y017821D01*
X011070Y017790D01*
X011126Y017762D01*
X011184Y017738D01*
X011243Y017718D01*
X011304Y017702D01*
X011365Y017689D01*
X011427Y017680D01*
X011489Y017675D01*
X011552Y017674D01*
X011615Y017677D01*
X011677Y017684D01*
X011739Y017694D01*
X011800Y017709D01*
X011859Y017727D01*
X011918Y017749D01*
X011975Y017774D01*
X012031Y017803D01*
X012085Y017835D01*
X012136Y017871D01*
X012185Y017910D01*
X012232Y017952D01*
X012276Y017996D01*
X012317Y018043D01*
X012355Y018093D01*
X012390Y018145D01*
X012422Y018199D01*
X012450Y018255D01*
X012475Y018313D01*
X012496Y018372D01*
X012513Y018432D01*
X012526Y018493D01*
X012536Y018555D01*
X012542Y018617D01*
X012544Y018680D01*
X012542Y018743D01*
X012536Y018805D01*
X012526Y018867D01*
X012513Y018928D01*
X012496Y018988D01*
X012475Y019047D01*
X012450Y019105D01*
X012422Y019161D01*
X012390Y019215D01*
X012355Y019267D01*
X012317Y019317D01*
X012276Y019364D01*
X012232Y019408D01*
X012185Y019450D01*
X012136Y019489D01*
X012085Y019525D01*
X012031Y019557D01*
X011975Y019586D01*
X011918Y019611D01*
X011859Y019633D01*
X011800Y019651D01*
X011739Y019666D01*
X011677Y019676D01*
X011615Y019683D01*
X011552Y019686D01*
X011489Y019685D01*
X011427Y019680D01*
X011365Y019671D01*
X011304Y019658D01*
X011243Y019642D01*
X011184Y019622D01*
X011126Y019598D01*
X011070Y019570D01*
X011015Y019539D01*
X010963Y019505D01*
X010912Y019468D01*
X010865Y019427D01*
X010819Y019384D01*
X010777Y019338D01*
X010737Y019289D01*
X010701Y019238D01*
X010668Y019185D01*
X010638Y019130D01*
X010638Y018230D01*
X008527Y019211D02*
X004590Y019211D01*
X004590Y023345D02*
X008527Y023345D01*
X007958Y024330D02*
X007968Y024278D01*
X007982Y024227D01*
X008000Y024177D01*
X008021Y024129D01*
X008046Y024082D01*
X008074Y024038D01*
X008106Y023995D01*
X008140Y023955D01*
X008178Y023918D01*
X008218Y023884D01*
X008260Y023852D01*
X008305Y023824D01*
X008352Y023800D01*
X008400Y023779D01*
X008450Y023761D01*
X008501Y023748D01*
X008553Y023738D01*
X008605Y023732D01*
X008658Y023730D01*
X008711Y023732D01*
X008763Y023738D01*
X008815Y023748D01*
X008866Y023761D01*
X008916Y023779D01*
X008964Y023800D01*
X009011Y023824D01*
X009056Y023852D01*
X009098Y023884D01*
X009138Y023918D01*
X009176Y023955D01*
X009210Y023995D01*
X009242Y024038D01*
X009270Y024082D01*
X009295Y024129D01*
X009316Y024177D01*
X009334Y024227D01*
X009348Y024278D01*
X009358Y024330D01*
X009358Y026130D02*
X009348Y026182D01*
X009334Y026233D01*
X009316Y026283D01*
X009295Y026331D01*
X009270Y026378D01*
X009242Y026422D01*
X009210Y026465D01*
X009176Y026505D01*
X009138Y026542D01*
X009098Y026576D01*
X009056Y026608D01*
X009011Y026636D01*
X008964Y026660D01*
X008916Y026681D01*
X008866Y026699D01*
X008815Y026712D01*
X008763Y026722D01*
X008711Y026728D01*
X008658Y026730D01*
X008605Y026728D01*
X008553Y026722D01*
X008501Y026712D01*
X008450Y026699D01*
X008400Y026681D01*
X008352Y026660D01*
X008305Y026636D01*
X008260Y026608D01*
X008218Y026576D01*
X008178Y026542D01*
X008140Y026505D01*
X008106Y026465D01*
X008074Y026422D01*
X008046Y026378D01*
X008021Y026331D01*
X008000Y026283D01*
X007982Y026233D01*
X007968Y026182D01*
X007958Y026130D01*
X008527Y026711D02*
X004590Y026711D01*
X009358Y026130D02*
X009376Y025951D01*
X009390Y025771D01*
X009400Y025591D01*
X009406Y025410D01*
X009408Y025230D01*
X009406Y025050D01*
X009400Y024869D01*
X009390Y024689D01*
X009376Y024509D01*
X009358Y024330D01*
X014590Y023345D02*
X018527Y023345D01*
X019308Y023430D02*
X019308Y022930D01*
X019558Y022680D01*
X020058Y022680D01*
X020308Y022930D01*
X020308Y023430D01*
X020058Y023680D01*
X020308Y023930D01*
X020308Y024430D01*
X020058Y024680D01*
X020308Y024930D01*
X020308Y025430D01*
X020058Y025680D01*
X020308Y025930D01*
X020308Y026430D01*
X020058Y026680D01*
X020308Y026930D01*
X020308Y027430D01*
X020058Y027680D01*
X020308Y027930D01*
X020308Y028430D01*
X020058Y028680D01*
X019558Y028680D01*
X019308Y028430D01*
X019308Y027930D01*
X019558Y027680D01*
X019308Y027430D01*
X019308Y026930D01*
X019558Y026680D01*
X019308Y026430D01*
X019308Y025930D01*
X019558Y025680D01*
X019308Y025430D01*
X019308Y024930D01*
X019558Y024680D01*
X019308Y024430D01*
X019308Y023930D01*
X019558Y023680D01*
X019308Y023430D01*
X018527Y026711D02*
X014590Y026711D01*
X007958Y026130D02*
X007940Y025951D01*
X007926Y025771D01*
X007916Y025591D01*
X007910Y025410D01*
X007908Y025230D01*
X007910Y025050D01*
X007916Y024869D01*
X007926Y024689D01*
X007940Y024509D01*
X007958Y024330D01*
X008527Y030845D02*
X004590Y030845D01*
X003558Y031930D02*
X003558Y032430D01*
X003308Y032680D01*
X003558Y032930D01*
X003558Y033430D01*
X003308Y033680D01*
X003558Y033930D01*
X003558Y034430D01*
X003308Y034680D01*
X003558Y034930D01*
X003558Y035430D01*
X003308Y035680D01*
X003558Y035930D01*
X003558Y036430D01*
X003308Y036680D01*
X003558Y036930D01*
X003558Y037430D01*
X003308Y037680D01*
X002808Y037680D01*
X002558Y037430D01*
X002558Y036930D01*
X002808Y036680D01*
X002558Y036430D01*
X002558Y035930D01*
X002808Y035680D01*
X002558Y035430D01*
X002558Y034930D01*
X002808Y034680D01*
X002558Y034430D01*
X002558Y033930D01*
X002808Y033680D01*
X002558Y033430D01*
X002558Y032930D01*
X002808Y032680D01*
X002558Y032430D01*
X002558Y031930D01*
X002808Y031680D01*
X003308Y031680D01*
X003558Y031930D01*
X004590Y034211D02*
X008527Y034211D01*
X008527Y038345D02*
X004590Y038345D01*
X014590Y038345D02*
X018527Y038345D01*
X018527Y034211D02*
X014590Y034211D01*
X014590Y030845D02*
X018527Y030845D01*
X018527Y019211D02*
X014590Y019211D01*
D16*
X014590Y023345D01*
X016258Y023830D02*
X016333Y023755D01*
X016483Y023755D01*
X016558Y023830D01*
X016719Y023830D02*
X016794Y023755D01*
X016944Y023755D01*
X017019Y023830D01*
X017019Y023905D01*
X016944Y023980D01*
X016869Y023980D01*
X016944Y023980D02*
X017019Y024055D01*
X017019Y024130D01*
X016944Y024205D01*
X016794Y024205D01*
X016719Y024130D01*
X016558Y024130D02*
X016483Y024205D01*
X016333Y024205D01*
X016258Y024130D01*
X016258Y023830D01*
X018527Y023345D02*
X018527Y019211D01*
X019128Y022050D02*
X019203Y022050D01*
X019278Y022125D01*
X019278Y022500D01*
X019203Y022500D02*
X019353Y022500D01*
X019514Y022500D02*
X019739Y022500D01*
X019814Y022425D01*
X019814Y022275D01*
X019739Y022200D01*
X019514Y022200D01*
X019514Y022050D02*
X019514Y022500D01*
X019974Y022425D02*
X020049Y022500D01*
X020199Y022500D01*
X020274Y022425D01*
X020274Y022350D01*
X019974Y022050D01*
X020274Y022050D01*
X019128Y022050D02*
X019053Y022125D01*
X018527Y026711D02*
X018527Y030845D01*
X018527Y034211D02*
X018527Y038345D01*
X018504Y038780D02*
X018279Y038780D01*
X018279Y039230D01*
X018504Y039230D01*
X018579Y039155D01*
X018579Y038855D01*
X018504Y038780D01*
X018119Y038780D02*
X018119Y039230D01*
X017819Y039230D02*
X017819Y038780D01*
X017658Y038855D02*
X017658Y039005D01*
X017508Y039005D01*
X017358Y038855D02*
X017433Y038780D01*
X017583Y038780D01*
X017658Y038855D01*
X017358Y038855D02*
X017358Y039155D01*
X017433Y039230D01*
X017583Y039230D01*
X017658Y039155D01*
X017819Y039230D02*
X018119Y038780D01*
X014590Y038345D02*
X014590Y034211D01*
X014590Y030845D02*
X014590Y026711D01*
X008527Y026711D02*
X008527Y030845D01*
X008527Y034211D02*
X008527Y038345D01*
X010883Y038359D02*
X010883Y038209D01*
X010958Y038134D01*
X011258Y038134D01*
X011333Y038209D01*
X011333Y038359D01*
X011258Y038434D01*
X011333Y038595D02*
X011333Y038895D01*
X011333Y038745D02*
X010883Y038745D01*
X011033Y038595D01*
X010958Y038434D02*
X010883Y038359D01*
X004590Y038345D02*
X004590Y034211D01*
X003499Y031500D02*
X003499Y031050D01*
X003349Y031050D02*
X003649Y031050D01*
X003349Y031350D02*
X003499Y031500D01*
X003189Y031425D02*
X003189Y031275D01*
X003114Y031200D01*
X002889Y031200D01*
X002889Y031050D02*
X002889Y031500D01*
X003114Y031500D01*
X003189Y031425D01*
X002728Y031500D02*
X002578Y031500D01*
X002653Y031500D02*
X002653Y031125D01*
X002578Y031050D01*
X002503Y031050D01*
X002428Y031125D01*
X004590Y030845D02*
X004590Y026711D01*
X003398Y024955D02*
X003248Y024955D01*
X003173Y024880D01*
X003013Y024880D02*
X002938Y024955D01*
X002788Y024955D01*
X002712Y024880D01*
X002712Y024580D01*
X002788Y024505D01*
X002938Y024505D01*
X003013Y024580D01*
X003173Y024505D02*
X003473Y024805D01*
X003473Y024880D01*
X003398Y024955D01*
X003473Y024505D02*
X003173Y024505D01*
X004590Y023345D02*
X004590Y019211D01*
X003853Y020080D02*
X003696Y020080D01*
X003633Y019530D02*
X001984Y019530D01*
X001921Y020080D02*
X001763Y020080D01*
X002696Y020080D02*
X002921Y020080D01*
X001983Y019530D02*
X001948Y019578D01*
X001915Y019628D01*
X001884Y019680D01*
X001857Y019734D01*
X001833Y019789D01*
X001813Y019846D01*
X001795Y019903D01*
X001781Y019961D01*
X001770Y020020D01*
X001763Y020080D01*
X001759Y020142D01*
X001758Y020205D01*
X001762Y020267D01*
X001769Y020329D01*
X001779Y020390D01*
X001794Y020451D01*
X001812Y020511D01*
X001833Y020570D01*
X001858Y020627D01*
X001886Y020682D01*
X001917Y020736D01*
X001952Y020788D01*
X001990Y020838D01*
X002030Y020885D01*
X002074Y020930D01*
X002119Y020973D01*
X002168Y021012D01*
X002218Y021049D01*
X002271Y021082D01*
X002325Y021113D01*
X002382Y021140D01*
X002439Y021163D01*
X002498Y021183D01*
X002608Y021355D02*
X002533Y021430D01*
X002533Y021730D01*
X002608Y021805D01*
X002758Y021805D01*
X002833Y021730D01*
X002833Y021430D01*
X002758Y021355D01*
X002608Y021355D01*
X002683Y021505D02*
X002833Y021355D01*
X002994Y021355D02*
X003294Y021355D01*
X003144Y021355D02*
X003144Y021805D01*
X002994Y021655D01*
X003118Y021183D02*
X003178Y021163D01*
X003237Y021139D01*
X003294Y021111D01*
X003349Y021080D01*
X003403Y021045D01*
X003454Y021008D01*
X003503Y020967D01*
X003549Y020923D01*
X003593Y020877D01*
X003634Y020828D01*
X003672Y020777D01*
X003706Y020724D01*
X003738Y020668D01*
X003765Y020611D01*
X003790Y020552D01*
X003810Y020492D01*
X003828Y020431D01*
X003841Y020369D01*
X003850Y020306D01*
X003856Y020243D01*
X003858Y020179D01*
X003856Y020115D01*
X003850Y020052D01*
X003841Y019989D01*
X003827Y019927D01*
X003810Y019866D01*
X003789Y019806D01*
X003765Y019747D01*
X003737Y019690D01*
X003705Y019634D01*
X003670Y019581D01*
X003633Y019530D01*
X004733Y017845D02*
X004733Y017612D01*
X004733Y017728D02*
X004383Y017728D01*
X004500Y017612D01*
X004441Y017477D02*
X004675Y017243D01*
X004733Y017302D01*
X004733Y017419D01*
X004675Y017477D01*
X004441Y017477D01*
X004383Y017419D01*
X004383Y017302D01*
X004441Y017243D01*
X004675Y017243D01*
X004675Y017109D02*
X004733Y017050D01*
X004733Y016933D01*
X004675Y016875D01*
X004441Y017109D01*
X004675Y017109D01*
X004441Y017109D02*
X004383Y017050D01*
X004383Y016933D01*
X004441Y016875D01*
X004675Y016875D01*
X004558Y016740D02*
X004558Y016507D01*
X004383Y016682D01*
X004733Y016682D01*
X004733Y016372D02*
X004383Y016372D01*
X004383Y016138D02*
X004733Y016372D01*
X004733Y016138D02*
X004383Y016138D01*
X004383Y015887D02*
X004733Y015887D01*
X004733Y015770D02*
X004733Y016004D01*
X004500Y015770D02*
X004383Y015887D01*
X007633Y014311D02*
X007783Y014461D01*
X008083Y014461D01*
X007858Y014461D02*
X007858Y014161D01*
X007783Y014161D02*
X008083Y014161D01*
X008008Y014001D02*
X007708Y014001D01*
X007633Y013926D01*
X007633Y013701D01*
X008083Y013701D01*
X008083Y013926D01*
X008008Y014001D01*
X007783Y014161D02*
X007633Y014311D01*
X007633Y013541D02*
X007633Y013240D01*
X008083Y013240D01*
X008083Y013541D01*
X007858Y013391D02*
X007858Y013240D01*
X008083Y013080D02*
X008083Y012780D01*
X007633Y012780D01*
X008013Y012080D02*
X008171Y012080D01*
X008234Y011530D02*
X009883Y011530D01*
X009787Y011042D02*
X010850Y011042D01*
X010103Y012080D02*
X009946Y012080D01*
X009171Y012080D02*
X008946Y012080D01*
X008233Y011530D02*
X008198Y011578D01*
X008165Y011628D01*
X008134Y011680D01*
X008107Y011734D01*
X008083Y011789D01*
X008063Y011846D01*
X008045Y011903D01*
X008031Y011961D01*
X008020Y012020D01*
X008013Y012080D01*
X008009Y012142D01*
X008008Y012205D01*
X008012Y012267D01*
X008019Y012329D01*
X008029Y012390D01*
X008044Y012451D01*
X008062Y012511D01*
X008083Y012570D01*
X008108Y012627D01*
X008136Y012682D01*
X008167Y012736D01*
X008202Y012788D01*
X008240Y012838D01*
X008280Y012885D01*
X008324Y012930D01*
X008369Y012973D01*
X008418Y013012D01*
X008468Y013049D01*
X008521Y013082D01*
X008575Y013113D01*
X008632Y013140D01*
X008689Y013163D01*
X008748Y013183D01*
X008833Y013380D02*
X008758Y013455D01*
X008758Y013755D01*
X008833Y013830D01*
X008983Y013830D01*
X009058Y013755D01*
X009058Y013455D01*
X008983Y013380D01*
X008833Y013380D01*
X008908Y013530D02*
X009058Y013380D01*
X009219Y013605D02*
X009519Y013605D01*
X009444Y013380D02*
X009444Y013830D01*
X009219Y013605D01*
X009368Y013183D02*
X009428Y013163D01*
X009487Y013139D01*
X009544Y013111D01*
X009599Y013080D01*
X009653Y013045D01*
X009704Y013008D01*
X009753Y012967D01*
X009799Y012923D01*
X009843Y012877D01*
X009884Y012828D01*
X009922Y012777D01*
X009956Y012724D01*
X009988Y012668D01*
X010015Y012611D01*
X010040Y012552D01*
X010060Y012492D01*
X010078Y012431D01*
X010091Y012369D01*
X010100Y012306D01*
X010106Y012243D01*
X010108Y012179D01*
X010106Y012115D01*
X010100Y012052D01*
X010091Y011989D01*
X010077Y011927D01*
X010060Y011866D01*
X010039Y011806D01*
X010015Y011747D01*
X009987Y011690D01*
X009955Y011634D01*
X009920Y011581D01*
X009883Y011530D01*
X009787Y011042D02*
X009787Y006908D01*
X011322Y006908D01*
X011794Y006908D02*
X013330Y006908D01*
X013330Y011042D01*
X012267Y011042D01*
X013013Y012080D02*
X013171Y012080D01*
X013234Y011530D02*
X014883Y011530D01*
X014946Y012080D02*
X015103Y012080D01*
X014171Y012080D02*
X013946Y012080D01*
X013233Y011530D02*
X013198Y011578D01*
X013165Y011628D01*
X013134Y011680D01*
X013107Y011734D01*
X013083Y011789D01*
X013063Y011846D01*
X013045Y011903D01*
X013031Y011961D01*
X013020Y012020D01*
X013013Y012080D01*
X013009Y012142D01*
X013008Y012205D01*
X013012Y012267D01*
X013019Y012329D01*
X013029Y012390D01*
X013044Y012451D01*
X013062Y012511D01*
X013083Y012570D01*
X013108Y012627D01*
X013136Y012682D01*
X013167Y012736D01*
X013202Y012788D01*
X013240Y012838D01*
X013280Y012885D01*
X013324Y012930D01*
X013369Y012973D01*
X013418Y013012D01*
X013468Y013049D01*
X013521Y013082D01*
X013575Y013113D01*
X013632Y013140D01*
X013689Y013163D01*
X013748Y013183D01*
X013958Y013405D02*
X013958Y013705D01*
X014033Y013780D01*
X014183Y013780D01*
X014258Y013705D01*
X014258Y013405D01*
X014183Y013330D01*
X014033Y013330D01*
X013958Y013405D01*
X014108Y013480D02*
X014258Y013330D01*
X014419Y013405D02*
X014494Y013330D01*
X014644Y013330D01*
X014719Y013405D01*
X014719Y013480D01*
X014644Y013555D01*
X014569Y013555D01*
X014644Y013555D02*
X014719Y013630D01*
X014719Y013705D01*
X014644Y013780D01*
X014494Y013780D01*
X014419Y013705D01*
X014368Y013183D02*
X014428Y013163D01*
X014487Y013139D01*
X014544Y013111D01*
X014599Y013080D01*
X014653Y013045D01*
X014704Y013008D01*
X014753Y012967D01*
X014799Y012923D01*
X014843Y012877D01*
X014884Y012828D01*
X014922Y012777D01*
X014956Y012724D01*
X014988Y012668D01*
X015015Y012611D01*
X015040Y012552D01*
X015060Y012492D01*
X015078Y012431D01*
X015091Y012369D01*
X015100Y012306D01*
X015106Y012243D01*
X015108Y012179D01*
X015106Y012115D01*
X015100Y012052D01*
X015091Y011989D01*
X015077Y011927D01*
X015060Y011866D01*
X015039Y011806D01*
X015015Y011747D01*
X014987Y011690D01*
X014955Y011634D01*
X014920Y011581D01*
X014883Y011530D01*
X017683Y012955D02*
X018133Y012955D01*
X018133Y013255D01*
X018133Y013415D02*
X018133Y013716D01*
X018133Y013876D02*
X018133Y014101D01*
X018058Y014176D01*
X017758Y014176D01*
X017683Y014101D01*
X017683Y013876D01*
X018133Y013876D01*
X017908Y013566D02*
X017908Y013415D01*
X017683Y013415D02*
X018133Y013415D01*
X017683Y013415D02*
X017683Y013716D01*
X017683Y014336D02*
X017683Y014561D01*
X017758Y014636D01*
X017833Y014636D01*
X017908Y014561D01*
X017908Y014336D01*
X018133Y014336D02*
X017683Y014336D01*
X017908Y014561D02*
X017983Y014636D01*
X018058Y014636D01*
X018133Y014561D01*
X018133Y014336D01*
X018683Y013755D02*
X018758Y013830D01*
X018908Y013830D01*
X018983Y013755D01*
X018983Y013455D01*
X018908Y013380D01*
X018758Y013380D01*
X018683Y013455D01*
X018683Y013755D01*
X018833Y013530D02*
X018983Y013380D01*
X019144Y013380D02*
X019444Y013680D01*
X019444Y013755D01*
X019369Y013830D01*
X019219Y013830D01*
X019144Y013755D01*
X019144Y013380D02*
X019444Y013380D01*
X018748Y013183D02*
X018689Y013163D01*
X018632Y013140D01*
X018575Y013113D01*
X018521Y013082D01*
X018468Y013049D01*
X018418Y013012D01*
X018369Y012973D01*
X018324Y012930D01*
X018280Y012885D01*
X018240Y012838D01*
X018202Y012788D01*
X018167Y012736D01*
X018136Y012682D01*
X018108Y012627D01*
X018083Y012570D01*
X018062Y012511D01*
X018044Y012451D01*
X018029Y012390D01*
X018019Y012329D01*
X018012Y012267D01*
X018008Y012205D01*
X018009Y012142D01*
X018013Y012080D01*
X018171Y012080D01*
X018234Y011530D02*
X019883Y011530D01*
X019946Y012080D02*
X020103Y012080D01*
X019171Y012080D02*
X018946Y012080D01*
X018233Y011530D02*
X018198Y011578D01*
X018165Y011628D01*
X018134Y011680D01*
X018107Y011734D01*
X018083Y011789D01*
X018063Y011846D01*
X018045Y011903D01*
X018031Y011961D01*
X018020Y012020D01*
X018013Y012080D01*
X019368Y013183D02*
X019428Y013163D01*
X019487Y013139D01*
X019544Y013111D01*
X019599Y013080D01*
X019653Y013045D01*
X019704Y013008D01*
X019753Y012967D01*
X019799Y012923D01*
X019843Y012877D01*
X019884Y012828D01*
X019922Y012777D01*
X019956Y012724D01*
X019988Y012668D01*
X020015Y012611D01*
X020040Y012552D01*
X020060Y012492D01*
X020078Y012431D01*
X020091Y012369D01*
X020100Y012306D01*
X020106Y012243D01*
X020108Y012179D01*
X020106Y012115D01*
X020100Y012052D01*
X020091Y011989D01*
X020077Y011927D01*
X020060Y011866D01*
X020039Y011806D01*
X020015Y011747D01*
X019987Y011690D01*
X019955Y011634D01*
X019920Y011581D01*
X019883Y011530D01*
X020383Y009603D02*
X020733Y009603D01*
X020733Y009487D02*
X020733Y009720D01*
X020500Y009487D02*
X020383Y009603D01*
X020441Y009352D02*
X020675Y009118D01*
X020733Y009177D01*
X020733Y009294D01*
X020675Y009352D01*
X020441Y009352D01*
X020383Y009294D01*
X020383Y009177D01*
X020441Y009118D01*
X020675Y009118D01*
X020675Y008984D02*
X020733Y008925D01*
X020733Y008808D01*
X020675Y008750D01*
X020441Y008984D01*
X020675Y008984D01*
X020441Y008984D02*
X020383Y008925D01*
X020383Y008808D01*
X020441Y008750D01*
X020675Y008750D01*
X020558Y008615D02*
X020558Y008382D01*
X020383Y008557D01*
X020733Y008557D01*
X020733Y008247D02*
X020383Y008247D01*
X020383Y008013D02*
X020733Y008247D01*
X020733Y008013D02*
X020383Y008013D01*
X020383Y007762D02*
X020733Y007762D01*
X020733Y007645D02*
X020733Y007879D01*
X020500Y007645D02*
X020383Y007762D01*
X020830Y006042D02*
X019767Y006042D01*
X020830Y006042D02*
X020830Y001908D01*
X019294Y001908D01*
X018822Y001908D02*
X017287Y001908D01*
X017287Y006042D01*
X018350Y006042D01*
X015830Y006042D02*
X014767Y006042D01*
X015830Y006042D02*
X015830Y001908D01*
X014294Y001908D01*
X013822Y001908D02*
X012287Y001908D01*
X012287Y006042D01*
X013350Y006042D01*
X010830Y006042D02*
X009767Y006042D01*
X010830Y006042D02*
X010830Y001908D01*
X009294Y001908D01*
X008822Y001908D02*
X007287Y001908D01*
X007287Y006042D01*
X008350Y006042D01*
X005830Y006042D02*
X004767Y006042D01*
X005830Y006042D02*
X005830Y001908D01*
X004294Y001908D01*
X003822Y001908D02*
X002287Y001908D01*
X002287Y006042D01*
X003350Y006042D01*
X012608Y017905D02*
X013058Y017905D01*
X013058Y018205D01*
X013058Y018365D02*
X012608Y018365D01*
X012608Y018666D01*
X012608Y018826D02*
X012608Y019051D01*
X012683Y019126D01*
X012983Y019126D01*
X013058Y019051D01*
X013058Y018826D01*
X012608Y018826D01*
X012833Y018516D02*
X012833Y018365D01*
X013058Y018365D02*
X013058Y018666D01*
X012983Y019286D02*
X012683Y019286D01*
X012608Y019361D01*
X012608Y019511D01*
X012683Y019586D01*
X012983Y019586D02*
X013058Y019511D01*
X013058Y019361D01*
X012983Y019286D01*
X008527Y019211D02*
X008527Y023345D01*
D17*
X003308Y018755D03*
X002308Y018755D03*
X002308Y016605D03*
X003308Y016605D03*
X008558Y010755D03*
X009308Y009255D03*
X008558Y008605D03*
X009308Y007105D03*
X011558Y005255D03*
X011558Y003105D03*
X014558Y007105D03*
X013808Y008605D03*
X014558Y009255D03*
X013808Y010755D03*
X013558Y014105D03*
X013558Y016255D03*
X019558Y016255D03*
X019558Y014105D03*
X019558Y010755D03*
X018558Y009255D03*
X019558Y008605D03*
X018558Y007105D03*
X016558Y005255D03*
X016558Y003105D03*
D18*
X015483Y015180D03*
X015483Y016180D03*
X017633Y016180D03*
X017633Y015180D03*
X008133Y015180D03*
X008133Y016180D03*
X008133Y017180D03*
X005983Y017180D03*
X005983Y016180D03*
X005983Y015180D03*
X010733Y036430D03*
X012883Y036430D03*
D19*
X010938Y019190D02*
X010938Y019010D01*
X010938Y018370D02*
X010938Y018170D01*
X005938Y014190D02*
X005938Y014010D01*
X005938Y013370D02*
X005938Y013170D01*
X004558Y015305D02*
X004558Y015555D01*
X005058Y015555D01*
X005058Y016055D01*
X004058Y016055D01*
X004058Y015555D01*
X004558Y015555D01*
X005058Y016055D02*
X005058Y018055D01*
X004558Y018055D01*
X004558Y018305D01*
X004558Y018055D02*
X004058Y018055D01*
X004058Y016055D01*
X015938Y014190D02*
X015938Y014010D01*
X015938Y013370D02*
X015938Y013170D01*
X020058Y009930D02*
X020058Y007930D01*
X021058Y007930D01*
X021058Y009930D01*
X020558Y009930D01*
X020558Y010180D01*
X020558Y009930D02*
X020058Y009930D01*
X020058Y007930D02*
X020058Y007430D01*
X020558Y007430D01*
X020558Y007180D01*
X020558Y007430D02*
X021058Y007430D01*
X021058Y007930D01*
D20*
X020843Y008608D02*
X020843Y008794D01*
X020782Y008855D01*
X020535Y008855D01*
X020473Y008794D01*
X020473Y008608D01*
X020843Y008608D01*
X020843Y008977D02*
X020843Y009224D01*
X020843Y009100D02*
X020473Y009100D01*
X020596Y008977D01*
X004743Y008442D02*
X004743Y008195D01*
X004743Y008318D02*
X004373Y008318D01*
X004496Y008195D01*
X004373Y008074D02*
X004373Y007827D01*
X004743Y007827D01*
X004558Y007827D02*
X004558Y007950D01*
X004558Y012327D02*
X004558Y012450D01*
X004743Y012327D02*
X004373Y012327D01*
X004373Y012574D01*
X004435Y012695D02*
X004373Y012757D01*
X004373Y012880D01*
X004435Y012942D01*
X004496Y012942D01*
X004743Y012695D01*
X004743Y012942D01*
X004843Y016608D02*
X004473Y016608D01*
X004473Y016794D01*
X004535Y016855D01*
X004782Y016855D01*
X004843Y016794D01*
X004843Y016608D01*
X004843Y016977D02*
X004596Y017224D01*
X004535Y017224D01*
X004473Y017162D01*
X004473Y017038D01*
X004535Y016977D01*
X004843Y016977D02*
X004843Y017224D01*
D21*
X006563Y012836D02*
X006563Y012926D01*
X006563Y012925D02*
X006617Y012927D01*
X006670Y012933D01*
X006723Y012943D01*
X006775Y012957D01*
X006826Y012974D01*
X006875Y012995D01*
X006923Y013019D01*
X006969Y013047D01*
X007013Y013078D01*
X007055Y013112D01*
X007094Y013148D01*
X007131Y013188D01*
X007164Y013230D01*
X007195Y013274D01*
X007222Y013320D01*
X007301Y013278D01*
X007273Y013229D01*
X007241Y013183D01*
X007206Y013138D01*
X007169Y013096D01*
X007128Y013056D01*
X007085Y013020D01*
X007040Y012986D01*
X006993Y012955D01*
X006943Y012928D01*
X006892Y012904D01*
X006840Y012883D01*
X006786Y012866D01*
X006731Y012853D01*
X006676Y012843D01*
X006619Y012837D01*
X006563Y012835D01*
X006563Y012844D01*
X006619Y012846D01*
X006674Y012852D01*
X006729Y012862D01*
X006784Y012875D01*
X006837Y012892D01*
X006889Y012912D01*
X006939Y012936D01*
X006988Y012963D01*
X007035Y012993D01*
X007080Y013027D01*
X007122Y013063D01*
X007162Y013102D01*
X007199Y013144D01*
X007234Y013188D01*
X007265Y013234D01*
X007293Y013282D01*
X007285Y013286D01*
X007257Y013239D01*
X007226Y013193D01*
X007192Y013150D01*
X007156Y013108D01*
X007116Y013070D01*
X007074Y013034D01*
X007030Y013001D01*
X006984Y012971D01*
X006935Y012944D01*
X006885Y012921D01*
X006834Y012900D01*
X006781Y012884D01*
X006728Y012871D01*
X006673Y012861D01*
X006618Y012855D01*
X006563Y012853D01*
X006563Y012862D01*
X006618Y012864D01*
X006672Y012870D01*
X006726Y012879D01*
X006779Y012892D01*
X006831Y012909D01*
X006882Y012929D01*
X006931Y012952D01*
X006979Y012979D01*
X007025Y013008D01*
X007069Y013041D01*
X007110Y013076D01*
X007149Y013115D01*
X007186Y013155D01*
X007219Y013198D01*
X007250Y013244D01*
X007277Y013291D01*
X007269Y013295D01*
X007242Y013248D01*
X007212Y013204D01*
X007179Y013161D01*
X007143Y013121D01*
X007104Y013083D01*
X007063Y013048D01*
X007020Y013016D01*
X006974Y012986D01*
X006927Y012960D01*
X006878Y012937D01*
X006828Y012917D01*
X006776Y012901D01*
X006724Y012888D01*
X006671Y012879D01*
X006617Y012873D01*
X006563Y012871D01*
X006563Y012880D01*
X006616Y012882D01*
X006669Y012888D01*
X006722Y012897D01*
X006774Y012910D01*
X006825Y012926D01*
X006875Y012945D01*
X006923Y012968D01*
X006970Y012994D01*
X007014Y013023D01*
X007057Y013055D01*
X007098Y013090D01*
X007136Y013127D01*
X007172Y013167D01*
X007205Y013209D01*
X007235Y013253D01*
X007262Y013299D01*
X007254Y013303D01*
X007227Y013258D01*
X007197Y013214D01*
X007165Y013173D01*
X007130Y013133D01*
X007092Y013096D01*
X007052Y013062D01*
X007009Y013030D01*
X006965Y013002D01*
X006919Y012976D01*
X006871Y012954D01*
X006822Y012934D01*
X006772Y012918D01*
X006720Y012906D01*
X006668Y012897D01*
X006616Y012891D01*
X006563Y012889D01*
X006563Y012898D01*
X006619Y012900D01*
X006674Y012907D01*
X006729Y012917D01*
X006783Y012931D01*
X006835Y012949D01*
X006887Y012970D01*
X006936Y012996D01*
X006984Y013024D01*
X007030Y013056D01*
X007073Y013091D01*
X007113Y013129D01*
X007151Y013170D01*
X007186Y013214D01*
X007217Y013260D01*
X007246Y013308D01*
X007238Y013312D01*
X007210Y013264D01*
X007179Y013219D01*
X007144Y013176D01*
X007107Y013136D01*
X007067Y013098D01*
X007024Y013063D01*
X006979Y013032D01*
X006932Y013003D01*
X006883Y012979D01*
X006832Y012957D01*
X006780Y012940D01*
X006727Y012926D01*
X006673Y012916D01*
X006618Y012909D01*
X006563Y012907D01*
X006563Y012916D01*
X006617Y012918D01*
X006671Y012924D01*
X006725Y012934D01*
X006777Y012948D01*
X006829Y012966D01*
X006879Y012987D01*
X006928Y013011D01*
X006974Y013039D01*
X007019Y013071D01*
X007061Y013105D01*
X007100Y013142D01*
X007137Y013182D01*
X007171Y013224D01*
X007202Y013269D01*
X007230Y013316D01*
X007289Y014103D02*
X007211Y014058D01*
X007211Y014059D02*
X007183Y014103D01*
X007152Y014145D01*
X007119Y014185D01*
X007083Y014223D01*
X007044Y014258D01*
X007003Y014290D01*
X006959Y014320D01*
X006914Y014346D01*
X006867Y014369D01*
X006819Y014389D01*
X006769Y014405D01*
X006719Y014418D01*
X006667Y014427D01*
X006615Y014433D01*
X006563Y014435D01*
X006562Y014524D01*
X006563Y014525D01*
X006618Y014523D01*
X006672Y014517D01*
X006727Y014508D01*
X006780Y014495D01*
X006832Y014479D01*
X006884Y014460D01*
X006934Y014437D01*
X006982Y014411D01*
X007029Y014382D01*
X007073Y014350D01*
X007116Y014315D01*
X007156Y014277D01*
X007193Y014237D01*
X007228Y014195D01*
X007260Y014150D01*
X007289Y014104D01*
X007281Y014099D01*
X007253Y014145D01*
X007221Y014189D01*
X007186Y014231D01*
X007149Y014271D01*
X007110Y014308D01*
X007068Y014343D01*
X007024Y014374D01*
X006978Y014403D01*
X006930Y014429D01*
X006880Y014451D01*
X006830Y014471D01*
X006778Y014487D01*
X006725Y014499D01*
X006671Y014508D01*
X006617Y014514D01*
X006563Y014516D01*
X006563Y014507D01*
X006617Y014505D01*
X006670Y014499D01*
X006723Y014490D01*
X006775Y014478D01*
X006827Y014462D01*
X006877Y014443D01*
X006926Y014421D01*
X006973Y014395D01*
X007019Y014367D01*
X007062Y014335D01*
X007104Y014301D01*
X007143Y014265D01*
X007180Y014225D01*
X007214Y014184D01*
X007245Y014140D01*
X007274Y014095D01*
X007266Y014090D01*
X007236Y014138D01*
X007202Y014184D01*
X007166Y014227D01*
X007126Y014268D01*
X007084Y014306D01*
X007040Y014341D01*
X006993Y014373D01*
X006944Y014401D01*
X006893Y014426D01*
X006840Y014448D01*
X006787Y014465D01*
X006732Y014479D01*
X006676Y014489D01*
X006620Y014496D01*
X006563Y014498D01*
X006563Y014489D01*
X006619Y014487D01*
X006675Y014481D01*
X006730Y014471D01*
X006784Y014457D01*
X006837Y014439D01*
X006889Y014418D01*
X006940Y014393D01*
X006988Y014365D01*
X007034Y014334D01*
X007079Y014299D01*
X007120Y014262D01*
X007159Y014221D01*
X007195Y014179D01*
X007228Y014133D01*
X007258Y014086D01*
X007250Y014081D01*
X007221Y014128D01*
X007188Y014173D01*
X007152Y014215D01*
X007114Y014255D01*
X007073Y014292D01*
X007029Y014327D01*
X006983Y014358D01*
X006935Y014385D01*
X006886Y014410D01*
X006834Y014431D01*
X006782Y014448D01*
X006728Y014462D01*
X006673Y014472D01*
X006618Y014478D01*
X006563Y014480D01*
X006563Y014471D01*
X006618Y014469D01*
X006672Y014463D01*
X006726Y014453D01*
X006779Y014439D01*
X006831Y014422D01*
X006882Y014402D01*
X006931Y014377D01*
X006978Y014350D01*
X007024Y014319D01*
X007067Y014286D01*
X007108Y014249D01*
X007146Y014209D01*
X007181Y014167D01*
X007213Y014123D01*
X007242Y014077D01*
X007234Y014072D01*
X007206Y014118D01*
X007174Y014162D01*
X007139Y014203D01*
X007101Y014242D01*
X007061Y014279D01*
X007019Y014312D01*
X006974Y014342D01*
X006927Y014370D01*
X006878Y014393D01*
X006828Y014414D01*
X006777Y014431D01*
X006724Y014444D01*
X006671Y014454D01*
X006617Y014460D01*
X006563Y014462D01*
X006563Y014453D01*
X006616Y014451D01*
X006670Y014445D01*
X006722Y014435D01*
X006774Y014422D01*
X006825Y014405D01*
X006875Y014385D01*
X006923Y014362D01*
X006969Y014335D01*
X007013Y014305D01*
X007055Y014272D01*
X007095Y014236D01*
X007132Y014197D01*
X007167Y014156D01*
X007198Y014113D01*
X007227Y014068D01*
X007219Y014063D01*
X007191Y014108D01*
X007160Y014151D01*
X007126Y014191D01*
X007089Y014229D01*
X007050Y014265D01*
X007008Y014297D01*
X006964Y014327D01*
X006918Y014354D01*
X006871Y014377D01*
X006822Y014397D01*
X006772Y014414D01*
X006720Y014427D01*
X006668Y014436D01*
X006616Y014442D01*
X006563Y014444D01*
X006554Y014524D02*
X006554Y014434D01*
X006553Y014435D02*
X006499Y014433D01*
X006446Y014427D01*
X006393Y014417D01*
X006341Y014403D01*
X006290Y014386D01*
X006240Y014365D01*
X006192Y014341D01*
X006146Y014313D01*
X006102Y014282D01*
X006061Y014248D01*
X006021Y014211D01*
X005985Y014172D01*
X005917Y014229D01*
X005916Y014230D01*
X005954Y014271D01*
X005994Y014309D01*
X006037Y014345D01*
X006082Y014378D01*
X006129Y014408D01*
X006177Y014434D01*
X006228Y014458D01*
X006280Y014478D01*
X006333Y014494D01*
X006387Y014508D01*
X006442Y014517D01*
X006497Y014523D01*
X006553Y014525D01*
X006553Y014516D01*
X006498Y014514D01*
X006443Y014508D01*
X006389Y014499D01*
X006335Y014486D01*
X006283Y014469D01*
X006231Y014450D01*
X006181Y014426D01*
X006133Y014400D01*
X006087Y014370D01*
X006042Y014338D01*
X006000Y014303D01*
X005960Y014264D01*
X005923Y014224D01*
X005930Y014218D01*
X005967Y014258D01*
X006006Y014296D01*
X006048Y014331D01*
X006092Y014363D01*
X006138Y014392D01*
X006186Y014418D01*
X006235Y014441D01*
X006286Y014461D01*
X006338Y014477D01*
X006391Y014490D01*
X006444Y014499D01*
X006499Y014505D01*
X006553Y014507D01*
X006553Y014498D01*
X006499Y014496D01*
X006446Y014490D01*
X006393Y014481D01*
X006340Y014468D01*
X006289Y014452D01*
X006238Y014433D01*
X006190Y014410D01*
X006142Y014385D01*
X006097Y014356D01*
X006053Y014324D01*
X006012Y014289D01*
X005973Y014252D01*
X005937Y014212D01*
X005944Y014206D01*
X005980Y014246D01*
X006018Y014283D01*
X006059Y014317D01*
X006102Y014348D01*
X006147Y014377D01*
X006194Y014402D01*
X006242Y014425D01*
X006292Y014444D01*
X006343Y014460D01*
X006394Y014472D01*
X006447Y014481D01*
X006500Y014487D01*
X006553Y014489D01*
X006553Y014480D01*
X006500Y014478D01*
X006448Y014472D01*
X006396Y014463D01*
X006345Y014451D01*
X006295Y014435D01*
X006245Y014416D01*
X006198Y014394D01*
X006151Y014369D01*
X006107Y014341D01*
X006065Y014310D01*
X006024Y014276D01*
X005986Y014239D01*
X005951Y014201D01*
X005957Y014195D01*
X005993Y014233D01*
X006030Y014269D01*
X006070Y014303D01*
X006112Y014333D01*
X006156Y014361D01*
X006202Y014386D01*
X006249Y014408D01*
X006298Y014427D01*
X006347Y014442D01*
X006398Y014455D01*
X006449Y014463D01*
X006501Y014469D01*
X006553Y014471D01*
X006553Y014462D01*
X006497Y014460D01*
X006442Y014453D01*
X006387Y014443D01*
X006333Y014429D01*
X006280Y014411D01*
X006229Y014389D01*
X006179Y014364D01*
X006131Y014335D01*
X006086Y014303D01*
X006043Y014268D01*
X006002Y014230D01*
X005964Y014189D01*
X005971Y014183D01*
X006008Y014224D01*
X006049Y014261D01*
X006091Y014296D01*
X006136Y014328D01*
X006184Y014356D01*
X006233Y014381D01*
X006284Y014403D01*
X006336Y014420D01*
X006389Y014434D01*
X006443Y014444D01*
X006498Y014451D01*
X006553Y014453D01*
X006553Y014444D01*
X006499Y014442D01*
X006445Y014436D01*
X006391Y014426D01*
X006338Y014412D01*
X006287Y014394D01*
X006237Y014373D01*
X006188Y014348D01*
X006141Y014320D01*
X006097Y014289D01*
X006055Y014255D01*
X006015Y014217D01*
X005978Y014177D01*
X005913Y013136D02*
X005982Y013193D01*
X005981Y013193D02*
X006018Y013153D01*
X006057Y013115D01*
X006099Y013081D01*
X006143Y013049D01*
X006189Y013021D01*
X006238Y012996D01*
X006288Y012975D01*
X006339Y012957D01*
X006392Y012944D01*
X006445Y012934D01*
X006499Y012927D01*
X006553Y012925D01*
X006554Y012836D01*
X006553Y012835D01*
X006497Y012837D01*
X006441Y012843D01*
X006386Y012853D01*
X006331Y012866D01*
X006278Y012883D01*
X006225Y012903D01*
X006174Y012927D01*
X006125Y012954D01*
X006078Y012985D01*
X006033Y013018D01*
X005990Y013054D01*
X005950Y013093D01*
X005912Y013135D01*
X005919Y013141D01*
X005956Y013100D01*
X005996Y013061D01*
X006038Y013025D01*
X006083Y012992D01*
X006130Y012962D01*
X006178Y012935D01*
X006229Y012912D01*
X006281Y012891D01*
X006334Y012875D01*
X006388Y012862D01*
X006442Y012852D01*
X006497Y012846D01*
X006553Y012844D01*
X006553Y012853D01*
X006498Y012855D01*
X006443Y012861D01*
X006389Y012870D01*
X006336Y012883D01*
X006284Y012900D01*
X006232Y012920D01*
X006183Y012943D01*
X006134Y012970D01*
X006088Y012999D01*
X006044Y013032D01*
X006002Y013068D01*
X005963Y013106D01*
X005926Y013147D01*
X005933Y013152D01*
X005969Y013112D01*
X006008Y013074D01*
X006050Y013039D01*
X006093Y013007D01*
X006139Y012977D01*
X006187Y012951D01*
X006236Y012928D01*
X006286Y012908D01*
X006338Y012892D01*
X006391Y012879D01*
X006445Y012870D01*
X006499Y012864D01*
X006553Y012862D01*
X006553Y012871D01*
X006499Y012873D01*
X006446Y012879D01*
X006393Y012888D01*
X006341Y012901D01*
X006289Y012917D01*
X006239Y012936D01*
X006191Y012959D01*
X006144Y012985D01*
X006098Y013014D01*
X006055Y013046D01*
X006014Y013081D01*
X005976Y013118D01*
X005940Y013158D01*
X005947Y013164D01*
X005982Y013125D01*
X006020Y013088D01*
X006061Y013053D01*
X006104Y013022D01*
X006148Y012993D01*
X006195Y012967D01*
X006243Y012945D01*
X006292Y012925D01*
X006343Y012909D01*
X006395Y012897D01*
X006447Y012888D01*
X006500Y012882D01*
X006553Y012880D01*
X006553Y012889D01*
X006501Y012891D01*
X006448Y012897D01*
X006397Y012906D01*
X006346Y012918D01*
X006295Y012934D01*
X006246Y012953D01*
X006199Y012975D01*
X006153Y013001D01*
X006109Y013029D01*
X006067Y013060D01*
X006026Y013094D01*
X005989Y013131D01*
X005954Y013170D01*
X005960Y013176D01*
X005995Y013137D01*
X006033Y013101D01*
X006072Y013067D01*
X006114Y013036D01*
X006158Y013008D01*
X006203Y012983D01*
X006250Y012961D01*
X006298Y012942D01*
X006348Y012927D01*
X006398Y012914D01*
X006450Y012906D01*
X006501Y012900D01*
X006553Y012898D01*
X006553Y012907D01*
X006502Y012909D01*
X006451Y012914D01*
X006400Y012923D01*
X006350Y012935D01*
X006301Y012951D01*
X006254Y012969D01*
X006207Y012991D01*
X006162Y013016D01*
X006119Y013044D01*
X006078Y013074D01*
X006039Y013107D01*
X006002Y013143D01*
X005967Y013181D01*
X005974Y013187D01*
X006011Y013146D01*
X006051Y013108D01*
X006093Y013074D01*
X006138Y013042D01*
X006185Y013013D01*
X006234Y012988D01*
X006285Y012967D01*
X006336Y012949D01*
X006390Y012935D01*
X006444Y012925D01*
X006498Y012918D01*
X006553Y012916D01*
X011563Y017836D02*
X011563Y017926D01*
X011563Y017925D02*
X011617Y017927D01*
X011670Y017933D01*
X011723Y017943D01*
X011775Y017957D01*
X011826Y017974D01*
X011875Y017995D01*
X011923Y018019D01*
X011969Y018047D01*
X012013Y018078D01*
X012055Y018112D01*
X012094Y018148D01*
X012131Y018188D01*
X012164Y018230D01*
X012195Y018274D01*
X012222Y018320D01*
X012301Y018278D01*
X012273Y018229D01*
X012241Y018183D01*
X012206Y018138D01*
X012169Y018096D01*
X012128Y018056D01*
X012085Y018020D01*
X012040Y017986D01*
X011993Y017955D01*
X011943Y017928D01*
X011892Y017904D01*
X011840Y017883D01*
X011786Y017866D01*
X011731Y017853D01*
X011676Y017843D01*
X011619Y017837D01*
X011563Y017835D01*
X011563Y017844D01*
X011619Y017846D01*
X011674Y017852D01*
X011729Y017862D01*
X011784Y017875D01*
X011837Y017892D01*
X011889Y017912D01*
X011939Y017936D01*
X011988Y017963D01*
X012035Y017993D01*
X012080Y018027D01*
X012122Y018063D01*
X012162Y018102D01*
X012199Y018144D01*
X012234Y018188D01*
X012265Y018234D01*
X012293Y018282D01*
X012285Y018286D01*
X012257Y018239D01*
X012226Y018193D01*
X012192Y018150D01*
X012156Y018108D01*
X012116Y018070D01*
X012074Y018034D01*
X012030Y018001D01*
X011984Y017971D01*
X011935Y017944D01*
X011885Y017921D01*
X011834Y017900D01*
X011781Y017884D01*
X011728Y017871D01*
X011673Y017861D01*
X011618Y017855D01*
X011563Y017853D01*
X011563Y017862D01*
X011618Y017864D01*
X011672Y017870D01*
X011726Y017879D01*
X011779Y017892D01*
X011831Y017909D01*
X011882Y017929D01*
X011931Y017952D01*
X011979Y017979D01*
X012025Y018008D01*
X012069Y018041D01*
X012110Y018076D01*
X012149Y018115D01*
X012186Y018155D01*
X012219Y018198D01*
X012250Y018244D01*
X012277Y018291D01*
X012269Y018295D01*
X012242Y018248D01*
X012212Y018204D01*
X012179Y018161D01*
X012143Y018121D01*
X012104Y018083D01*
X012063Y018048D01*
X012020Y018016D01*
X011974Y017986D01*
X011927Y017960D01*
X011878Y017937D01*
X011828Y017917D01*
X011776Y017901D01*
X011724Y017888D01*
X011671Y017879D01*
X011617Y017873D01*
X011563Y017871D01*
X011563Y017880D01*
X011616Y017882D01*
X011669Y017888D01*
X011722Y017897D01*
X011774Y017910D01*
X011825Y017926D01*
X011875Y017945D01*
X011923Y017968D01*
X011970Y017994D01*
X012014Y018023D01*
X012057Y018055D01*
X012098Y018090D01*
X012136Y018127D01*
X012172Y018167D01*
X012205Y018209D01*
X012235Y018253D01*
X012262Y018299D01*
X012254Y018303D01*
X012227Y018258D01*
X012197Y018214D01*
X012165Y018173D01*
X012130Y018133D01*
X012092Y018096D01*
X012052Y018062D01*
X012009Y018030D01*
X011965Y018002D01*
X011919Y017976D01*
X011871Y017954D01*
X011822Y017934D01*
X011772Y017918D01*
X011720Y017906D01*
X011668Y017897D01*
X011616Y017891D01*
X011563Y017889D01*
X011563Y017898D01*
X011619Y017900D01*
X011674Y017907D01*
X011729Y017917D01*
X011783Y017931D01*
X011835Y017949D01*
X011887Y017970D01*
X011936Y017996D01*
X011984Y018024D01*
X012030Y018056D01*
X012073Y018091D01*
X012113Y018129D01*
X012151Y018170D01*
X012186Y018214D01*
X012217Y018260D01*
X012246Y018308D01*
X012238Y018312D01*
X012210Y018264D01*
X012179Y018219D01*
X012144Y018176D01*
X012107Y018136D01*
X012067Y018098D01*
X012024Y018063D01*
X011979Y018032D01*
X011932Y018003D01*
X011883Y017979D01*
X011832Y017957D01*
X011780Y017940D01*
X011727Y017926D01*
X011673Y017916D01*
X011618Y017909D01*
X011563Y017907D01*
X011563Y017916D01*
X011617Y017918D01*
X011671Y017924D01*
X011725Y017934D01*
X011777Y017948D01*
X011829Y017966D01*
X011879Y017987D01*
X011928Y018011D01*
X011974Y018039D01*
X012019Y018071D01*
X012061Y018105D01*
X012100Y018142D01*
X012137Y018182D01*
X012171Y018224D01*
X012202Y018269D01*
X012230Y018316D01*
X012289Y019103D02*
X012211Y019058D01*
X012211Y019059D02*
X012183Y019103D01*
X012152Y019145D01*
X012119Y019185D01*
X012083Y019223D01*
X012044Y019258D01*
X012003Y019290D01*
X011959Y019320D01*
X011914Y019346D01*
X011867Y019369D01*
X011819Y019389D01*
X011769Y019405D01*
X011719Y019418D01*
X011667Y019427D01*
X011615Y019433D01*
X011563Y019435D01*
X011562Y019524D01*
X011563Y019525D01*
X011618Y019523D01*
X011672Y019517D01*
X011727Y019508D01*
X011780Y019495D01*
X011832Y019479D01*
X011884Y019460D01*
X011934Y019437D01*
X011982Y019411D01*
X012029Y019382D01*
X012073Y019350D01*
X012116Y019315D01*
X012156Y019277D01*
X012193Y019237D01*
X012228Y019195D01*
X012260Y019150D01*
X012289Y019104D01*
X012281Y019099D01*
X012253Y019145D01*
X012221Y019189D01*
X012186Y019231D01*
X012149Y019271D01*
X012110Y019308D01*
X012068Y019343D01*
X012024Y019374D01*
X011978Y019403D01*
X011930Y019429D01*
X011880Y019451D01*
X011830Y019471D01*
X011778Y019487D01*
X011725Y019499D01*
X011671Y019508D01*
X011617Y019514D01*
X011563Y019516D01*
X011563Y019507D01*
X011617Y019505D01*
X011670Y019499D01*
X011723Y019490D01*
X011775Y019478D01*
X011827Y019462D01*
X011877Y019443D01*
X011926Y019421D01*
X011973Y019395D01*
X012019Y019367D01*
X012062Y019335D01*
X012104Y019301D01*
X012143Y019265D01*
X012180Y019225D01*
X012214Y019184D01*
X012245Y019140D01*
X012274Y019095D01*
X012266Y019090D01*
X012236Y019138D01*
X012202Y019184D01*
X012166Y019227D01*
X012126Y019268D01*
X012084Y019306D01*
X012040Y019341D01*
X011993Y019373D01*
X011944Y019401D01*
X011893Y019426D01*
X011840Y019448D01*
X011787Y019465D01*
X011732Y019479D01*
X011676Y019489D01*
X011620Y019496D01*
X011563Y019498D01*
X011563Y019489D01*
X011619Y019487D01*
X011675Y019481D01*
X011730Y019471D01*
X011784Y019457D01*
X011837Y019439D01*
X011889Y019418D01*
X011940Y019393D01*
X011988Y019365D01*
X012034Y019334D01*
X012079Y019299D01*
X012120Y019262D01*
X012159Y019221D01*
X012195Y019179D01*
X012228Y019133D01*
X012258Y019086D01*
X012250Y019081D01*
X012221Y019128D01*
X012188Y019173D01*
X012152Y019215D01*
X012114Y019255D01*
X012073Y019292D01*
X012029Y019327D01*
X011983Y019358D01*
X011935Y019385D01*
X011886Y019410D01*
X011834Y019431D01*
X011782Y019448D01*
X011728Y019462D01*
X011673Y019472D01*
X011618Y019478D01*
X011563Y019480D01*
X011563Y019471D01*
X011618Y019469D01*
X011672Y019463D01*
X011726Y019453D01*
X011779Y019439D01*
X011831Y019422D01*
X011882Y019402D01*
X011931Y019377D01*
X011978Y019350D01*
X012024Y019319D01*
X012067Y019286D01*
X012108Y019249D01*
X012146Y019209D01*
X012181Y019167D01*
X012213Y019123D01*
X012242Y019077D01*
X012234Y019072D01*
X012206Y019118D01*
X012174Y019162D01*
X012139Y019203D01*
X012101Y019242D01*
X012061Y019279D01*
X012019Y019312D01*
X011974Y019342D01*
X011927Y019370D01*
X011878Y019393D01*
X011828Y019414D01*
X011777Y019431D01*
X011724Y019444D01*
X011671Y019454D01*
X011617Y019460D01*
X011563Y019462D01*
X011563Y019453D01*
X011616Y019451D01*
X011670Y019445D01*
X011722Y019435D01*
X011774Y019422D01*
X011825Y019405D01*
X011875Y019385D01*
X011923Y019362D01*
X011969Y019335D01*
X012013Y019305D01*
X012055Y019272D01*
X012095Y019236D01*
X012132Y019197D01*
X012167Y019156D01*
X012198Y019113D01*
X012227Y019068D01*
X012219Y019063D01*
X012191Y019108D01*
X012160Y019151D01*
X012126Y019191D01*
X012089Y019229D01*
X012050Y019265D01*
X012008Y019297D01*
X011964Y019327D01*
X011918Y019354D01*
X011871Y019377D01*
X011822Y019397D01*
X011772Y019414D01*
X011720Y019427D01*
X011668Y019436D01*
X011616Y019442D01*
X011563Y019444D01*
X011554Y019524D02*
X011554Y019434D01*
X011553Y019435D02*
X011499Y019433D01*
X011446Y019427D01*
X011393Y019417D01*
X011341Y019403D01*
X011290Y019386D01*
X011240Y019365D01*
X011192Y019341D01*
X011146Y019313D01*
X011102Y019282D01*
X011061Y019248D01*
X011021Y019211D01*
X010985Y019172D01*
X010917Y019229D01*
X010916Y019230D01*
X010954Y019271D01*
X010994Y019309D01*
X011037Y019345D01*
X011082Y019378D01*
X011129Y019408D01*
X011177Y019434D01*
X011228Y019458D01*
X011280Y019478D01*
X011333Y019494D01*
X011387Y019508D01*
X011442Y019517D01*
X011497Y019523D01*
X011553Y019525D01*
X011553Y019516D01*
X011498Y019514D01*
X011443Y019508D01*
X011389Y019499D01*
X011335Y019486D01*
X011283Y019469D01*
X011231Y019450D01*
X011181Y019426D01*
X011133Y019400D01*
X011087Y019370D01*
X011042Y019338D01*
X011000Y019303D01*
X010960Y019264D01*
X010923Y019224D01*
X010930Y019218D01*
X010967Y019258D01*
X011006Y019296D01*
X011048Y019331D01*
X011092Y019363D01*
X011138Y019392D01*
X011186Y019418D01*
X011235Y019441D01*
X011286Y019461D01*
X011338Y019477D01*
X011391Y019490D01*
X011444Y019499D01*
X011499Y019505D01*
X011553Y019507D01*
X011553Y019498D01*
X011499Y019496D01*
X011446Y019490D01*
X011393Y019481D01*
X011340Y019468D01*
X011289Y019452D01*
X011238Y019433D01*
X011190Y019410D01*
X011142Y019385D01*
X011097Y019356D01*
X011053Y019324D01*
X011012Y019289D01*
X010973Y019252D01*
X010937Y019212D01*
X010944Y019206D01*
X010980Y019246D01*
X011018Y019283D01*
X011059Y019317D01*
X011102Y019348D01*
X011147Y019377D01*
X011194Y019402D01*
X011242Y019425D01*
X011292Y019444D01*
X011343Y019460D01*
X011394Y019472D01*
X011447Y019481D01*
X011500Y019487D01*
X011553Y019489D01*
X011553Y019480D01*
X011500Y019478D01*
X011448Y019472D01*
X011396Y019463D01*
X011345Y019451D01*
X011295Y019435D01*
X011245Y019416D01*
X011198Y019394D01*
X011151Y019369D01*
X011107Y019341D01*
X011065Y019310D01*
X011024Y019276D01*
X010986Y019239D01*
X010951Y019201D01*
X010957Y019195D01*
X010993Y019233D01*
X011030Y019269D01*
X011070Y019303D01*
X011112Y019333D01*
X011156Y019361D01*
X011202Y019386D01*
X011249Y019408D01*
X011298Y019427D01*
X011347Y019442D01*
X011398Y019455D01*
X011449Y019463D01*
X011501Y019469D01*
X011553Y019471D01*
X011553Y019462D01*
X011497Y019460D01*
X011442Y019453D01*
X011387Y019443D01*
X011333Y019429D01*
X011280Y019411D01*
X011229Y019389D01*
X011179Y019364D01*
X011131Y019335D01*
X011086Y019303D01*
X011043Y019268D01*
X011002Y019230D01*
X010964Y019189D01*
X010971Y019183D01*
X011008Y019224D01*
X011049Y019261D01*
X011091Y019296D01*
X011136Y019328D01*
X011184Y019356D01*
X011233Y019381D01*
X011284Y019403D01*
X011336Y019420D01*
X011389Y019434D01*
X011443Y019444D01*
X011498Y019451D01*
X011553Y019453D01*
X011553Y019444D01*
X011499Y019442D01*
X011445Y019436D01*
X011391Y019426D01*
X011338Y019412D01*
X011287Y019394D01*
X011237Y019373D01*
X011188Y019348D01*
X011141Y019320D01*
X011097Y019289D01*
X011055Y019255D01*
X011015Y019217D01*
X010978Y019177D01*
X010913Y018136D02*
X010982Y018193D01*
X010981Y018193D02*
X011018Y018153D01*
X011057Y018115D01*
X011099Y018081D01*
X011143Y018049D01*
X011189Y018021D01*
X011238Y017996D01*
X011288Y017975D01*
X011339Y017957D01*
X011392Y017944D01*
X011445Y017934D01*
X011499Y017927D01*
X011553Y017925D01*
X011554Y017836D01*
X011553Y017835D01*
X011497Y017837D01*
X011441Y017843D01*
X011386Y017853D01*
X011331Y017866D01*
X011278Y017883D01*
X011225Y017903D01*
X011174Y017927D01*
X011125Y017954D01*
X011078Y017985D01*
X011033Y018018D01*
X010990Y018054D01*
X010950Y018093D01*
X010912Y018135D01*
X010919Y018141D01*
X010956Y018100D01*
X010996Y018061D01*
X011038Y018025D01*
X011083Y017992D01*
X011130Y017962D01*
X011178Y017935D01*
X011229Y017912D01*
X011281Y017891D01*
X011334Y017875D01*
X011388Y017862D01*
X011442Y017852D01*
X011497Y017846D01*
X011553Y017844D01*
X011553Y017853D01*
X011498Y017855D01*
X011443Y017861D01*
X011389Y017870D01*
X011336Y017883D01*
X011284Y017900D01*
X011232Y017920D01*
X011183Y017943D01*
X011134Y017970D01*
X011088Y017999D01*
X011044Y018032D01*
X011002Y018068D01*
X010963Y018106D01*
X010926Y018147D01*
X010933Y018152D01*
X010969Y018112D01*
X011008Y018074D01*
X011050Y018039D01*
X011093Y018007D01*
X011139Y017977D01*
X011187Y017951D01*
X011236Y017928D01*
X011286Y017908D01*
X011338Y017892D01*
X011391Y017879D01*
X011445Y017870D01*
X011499Y017864D01*
X011553Y017862D01*
X011553Y017871D01*
X011499Y017873D01*
X011446Y017879D01*
X011393Y017888D01*
X011341Y017901D01*
X011289Y017917D01*
X011239Y017936D01*
X011191Y017959D01*
X011144Y017985D01*
X011098Y018014D01*
X011055Y018046D01*
X011014Y018081D01*
X010976Y018118D01*
X010940Y018158D01*
X010947Y018164D01*
X010982Y018125D01*
X011020Y018088D01*
X011061Y018053D01*
X011104Y018022D01*
X011148Y017993D01*
X011195Y017967D01*
X011243Y017945D01*
X011292Y017925D01*
X011343Y017909D01*
X011395Y017897D01*
X011447Y017888D01*
X011500Y017882D01*
X011553Y017880D01*
X011553Y017889D01*
X011501Y017891D01*
X011448Y017897D01*
X011397Y017906D01*
X011346Y017918D01*
X011295Y017934D01*
X011246Y017953D01*
X011199Y017975D01*
X011153Y018001D01*
X011109Y018029D01*
X011067Y018060D01*
X011026Y018094D01*
X010989Y018131D01*
X010954Y018170D01*
X010960Y018176D01*
X010995Y018137D01*
X011033Y018101D01*
X011072Y018067D01*
X011114Y018036D01*
X011158Y018008D01*
X011203Y017983D01*
X011250Y017961D01*
X011298Y017942D01*
X011348Y017927D01*
X011398Y017914D01*
X011450Y017906D01*
X011501Y017900D01*
X011553Y017898D01*
X011553Y017907D01*
X011502Y017909D01*
X011451Y017914D01*
X011400Y017923D01*
X011350Y017935D01*
X011301Y017951D01*
X011254Y017969D01*
X011207Y017991D01*
X011162Y018016D01*
X011119Y018044D01*
X011078Y018074D01*
X011039Y018107D01*
X011002Y018143D01*
X010967Y018181D01*
X010974Y018187D01*
X011011Y018146D01*
X011051Y018108D01*
X011093Y018074D01*
X011138Y018042D01*
X011185Y018013D01*
X011234Y017988D01*
X011285Y017967D01*
X011336Y017949D01*
X011390Y017935D01*
X011444Y017925D01*
X011498Y017918D01*
X011553Y017916D01*
X016563Y012836D02*
X016563Y012926D01*
X016563Y012925D02*
X016617Y012927D01*
X016670Y012933D01*
X016723Y012943D01*
X016775Y012957D01*
X016826Y012974D01*
X016875Y012995D01*
X016923Y013019D01*
X016969Y013047D01*
X017013Y013078D01*
X017055Y013112D01*
X017094Y013148D01*
X017131Y013188D01*
X017164Y013230D01*
X017195Y013274D01*
X017222Y013320D01*
X017301Y013278D01*
X017273Y013229D01*
X017241Y013183D01*
X017206Y013138D01*
X017169Y013096D01*
X017128Y013056D01*
X017085Y013020D01*
X017040Y012986D01*
X016993Y012955D01*
X016943Y012928D01*
X016892Y012904D01*
X016840Y012883D01*
X016786Y012866D01*
X016731Y012853D01*
X016676Y012843D01*
X016619Y012837D01*
X016563Y012835D01*
X016563Y012844D01*
X016619Y012846D01*
X016674Y012852D01*
X016729Y012862D01*
X016784Y012875D01*
X016837Y012892D01*
X016889Y012912D01*
X016939Y012936D01*
X016988Y012963D01*
X017035Y012993D01*
X017080Y013027D01*
X017122Y013063D01*
X017162Y013102D01*
X017199Y013144D01*
X017234Y013188D01*
X017265Y013234D01*
X017293Y013282D01*
X017285Y013286D01*
X017257Y013239D01*
X017226Y013193D01*
X017192Y013150D01*
X017156Y013108D01*
X017116Y013070D01*
X017074Y013034D01*
X017030Y013001D01*
X016984Y012971D01*
X016935Y012944D01*
X016885Y012921D01*
X016834Y012900D01*
X016781Y012884D01*
X016728Y012871D01*
X016673Y012861D01*
X016618Y012855D01*
X016563Y012853D01*
X016563Y012862D01*
X016618Y012864D01*
X016672Y012870D01*
X016726Y012879D01*
X016779Y012892D01*
X016831Y012909D01*
X016882Y012929D01*
X016931Y012952D01*
X016979Y012979D01*
X017025Y013008D01*
X017069Y013041D01*
X017110Y013076D01*
X017149Y013115D01*
X017186Y013155D01*
X017219Y013198D01*
X017250Y013244D01*
X017277Y013291D01*
X017269Y013295D01*
X017242Y013248D01*
X017212Y013204D01*
X017179Y013161D01*
X017143Y013121D01*
X017104Y013083D01*
X017063Y013048D01*
X017020Y013016D01*
X016974Y012986D01*
X016927Y012960D01*
X016878Y012937D01*
X016828Y012917D01*
X016776Y012901D01*
X016724Y012888D01*
X016671Y012879D01*
X016617Y012873D01*
X016563Y012871D01*
X016563Y012880D01*
X016616Y012882D01*
X016669Y012888D01*
X016722Y012897D01*
X016774Y012910D01*
X016825Y012926D01*
X016875Y012945D01*
X016923Y012968D01*
X016970Y012994D01*
X017014Y013023D01*
X017057Y013055D01*
X017098Y013090D01*
X017136Y013127D01*
X017172Y013167D01*
X017205Y013209D01*
X017235Y013253D01*
X017262Y013299D01*
X017254Y013303D01*
X017227Y013258D01*
X017197Y013214D01*
X017165Y013173D01*
X017130Y013133D01*
X017092Y013096D01*
X017052Y013062D01*
X017009Y013030D01*
X016965Y013002D01*
X016919Y012976D01*
X016871Y012954D01*
X016822Y012934D01*
X016772Y012918D01*
X016720Y012906D01*
X016668Y012897D01*
X016616Y012891D01*
X016563Y012889D01*
X016563Y012898D01*
X016619Y012900D01*
X016674Y012907D01*
X016729Y012917D01*
X016783Y012931D01*
X016835Y012949D01*
X016887Y012970D01*
X016936Y012996D01*
X016984Y013024D01*
X017030Y013056D01*
X017073Y013091D01*
X017113Y013129D01*
X017151Y013170D01*
X017186Y013214D01*
X017217Y013260D01*
X017246Y013308D01*
X017238Y013312D01*
X017210Y013264D01*
X017179Y013219D01*
X017144Y013176D01*
X017107Y013136D01*
X017067Y013098D01*
X017024Y013063D01*
X016979Y013032D01*
X016932Y013003D01*
X016883Y012979D01*
X016832Y012957D01*
X016780Y012940D01*
X016727Y012926D01*
X016673Y012916D01*
X016618Y012909D01*
X016563Y012907D01*
X016563Y012916D01*
X016617Y012918D01*
X016671Y012924D01*
X016725Y012934D01*
X016777Y012948D01*
X016829Y012966D01*
X016879Y012987D01*
X016928Y013011D01*
X016974Y013039D01*
X017019Y013071D01*
X017061Y013105D01*
X017100Y013142D01*
X017137Y013182D01*
X017171Y013224D01*
X017202Y013269D01*
X017230Y013316D01*
X017289Y014103D02*
X017211Y014058D01*
X017211Y014059D02*
X017183Y014103D01*
X017152Y014145D01*
X017119Y014185D01*
X017083Y014223D01*
X017044Y014258D01*
X017003Y014290D01*
X016959Y014320D01*
X016914Y014346D01*
X016867Y014369D01*
X016819Y014389D01*
X016769Y014405D01*
X016719Y014418D01*
X016667Y014427D01*
X016615Y014433D01*
X016563Y014435D01*
X016562Y014524D01*
X016563Y014525D01*
X016618Y014523D01*
X016672Y014517D01*
X016727Y014508D01*
X016780Y014495D01*
X016832Y014479D01*
X016884Y014460D01*
X016934Y014437D01*
X016982Y014411D01*
X017029Y014382D01*
X017073Y014350D01*
X017116Y014315D01*
X017156Y014277D01*
X017193Y014237D01*
X017228Y014195D01*
X017260Y014150D01*
X017289Y014104D01*
X017281Y014099D01*
X017253Y014145D01*
X017221Y014189D01*
X017186Y014231D01*
X017149Y014271D01*
X017110Y014308D01*
X017068Y014343D01*
X017024Y014374D01*
X016978Y014403D01*
X016930Y014429D01*
X016880Y014451D01*
X016830Y014471D01*
X016778Y014487D01*
X016725Y014499D01*
X016671Y014508D01*
X016617Y014514D01*
X016563Y014516D01*
X016563Y014507D01*
X016617Y014505D01*
X016670Y014499D01*
X016723Y014490D01*
X016775Y014478D01*
X016827Y014462D01*
X016877Y014443D01*
X016926Y014421D01*
X016973Y014395D01*
X017019Y014367D01*
X017062Y014335D01*
X017104Y014301D01*
X017143Y014265D01*
X017180Y014225D01*
X017214Y014184D01*
X017245Y014140D01*
X017274Y014095D01*
X017266Y014090D01*
X017236Y014138D01*
X017202Y014184D01*
X017166Y014227D01*
X017126Y014268D01*
X017084Y014306D01*
X017040Y014341D01*
X016993Y014373D01*
X016944Y014401D01*
X016893Y014426D01*
X016840Y014448D01*
X016787Y014465D01*
X016732Y014479D01*
X016676Y014489D01*
X016620Y014496D01*
X016563Y014498D01*
X016563Y014489D01*
X016619Y014487D01*
X016675Y014481D01*
X016730Y014471D01*
X016784Y014457D01*
X016837Y014439D01*
X016889Y014418D01*
X016940Y014393D01*
X016988Y014365D01*
X017034Y014334D01*
X017079Y014299D01*
X017120Y014262D01*
X017159Y014221D01*
X017195Y014179D01*
X017228Y014133D01*
X017258Y014086D01*
X017250Y014081D01*
X017221Y014128D01*
X017188Y014173D01*
X017152Y014215D01*
X017114Y014255D01*
X017073Y014292D01*
X017029Y014327D01*
X016983Y014358D01*
X016935Y014385D01*
X016886Y014410D01*
X016834Y014431D01*
X016782Y014448D01*
X016728Y014462D01*
X016673Y014472D01*
X016618Y014478D01*
X016563Y014480D01*
X016563Y014471D01*
X016618Y014469D01*
X016672Y014463D01*
X016726Y014453D01*
X016779Y014439D01*
X016831Y014422D01*
X016882Y014402D01*
X016931Y014377D01*
X016978Y014350D01*
X017024Y014319D01*
X017067Y014286D01*
X017108Y014249D01*
X017146Y014209D01*
X017181Y014167D01*
X017213Y014123D01*
X017242Y014077D01*
X017234Y014072D01*
X017206Y014118D01*
X017174Y014162D01*
X017139Y014203D01*
X017101Y014242D01*
X017061Y014279D01*
X017019Y014312D01*
X016974Y014342D01*
X016927Y014370D01*
X016878Y014393D01*
X016828Y014414D01*
X016777Y014431D01*
X016724Y014444D01*
X016671Y014454D01*
X016617Y014460D01*
X016563Y014462D01*
X016563Y014453D01*
X016616Y014451D01*
X016670Y014445D01*
X016722Y014435D01*
X016774Y014422D01*
X016825Y014405D01*
X016875Y014385D01*
X016923Y014362D01*
X016969Y014335D01*
X017013Y014305D01*
X017055Y014272D01*
X017095Y014236D01*
X017132Y014197D01*
X017167Y014156D01*
X017198Y014113D01*
X017227Y014068D01*
X017219Y014063D01*
X017191Y014108D01*
X017160Y014151D01*
X017126Y014191D01*
X017089Y014229D01*
X017050Y014265D01*
X017008Y014297D01*
X016964Y014327D01*
X016918Y014354D01*
X016871Y014377D01*
X016822Y014397D01*
X016772Y014414D01*
X016720Y014427D01*
X016668Y014436D01*
X016616Y014442D01*
X016563Y014444D01*
X016554Y014524D02*
X016554Y014434D01*
X016553Y014435D02*
X016499Y014433D01*
X016446Y014427D01*
X016393Y014417D01*
X016341Y014403D01*
X016290Y014386D01*
X016240Y014365D01*
X016192Y014341D01*
X016146Y014313D01*
X016102Y014282D01*
X016061Y014248D01*
X016021Y014211D01*
X015985Y014172D01*
X015917Y014229D01*
X015916Y014230D01*
X015954Y014271D01*
X015994Y014309D01*
X016037Y014345D01*
X016082Y014378D01*
X016129Y014408D01*
X016177Y014434D01*
X016228Y014458D01*
X016280Y014478D01*
X016333Y014494D01*
X016387Y014508D01*
X016442Y014517D01*
X016497Y014523D01*
X016553Y014525D01*
X016553Y014516D01*
X016498Y014514D01*
X016443Y014508D01*
X016389Y014499D01*
X016335Y014486D01*
X016283Y014469D01*
X016231Y014450D01*
X016181Y014426D01*
X016133Y014400D01*
X016087Y014370D01*
X016042Y014338D01*
X016000Y014303D01*
X015960Y014264D01*
X015923Y014224D01*
X015930Y014218D01*
X015967Y014258D01*
X016006Y014296D01*
X016048Y014331D01*
X016092Y014363D01*
X016138Y014392D01*
X016186Y014418D01*
X016235Y014441D01*
X016286Y014461D01*
X016338Y014477D01*
X016391Y014490D01*
X016444Y014499D01*
X016499Y014505D01*
X016553Y014507D01*
X016553Y014498D01*
X016499Y014496D01*
X016446Y014490D01*
X016393Y014481D01*
X016340Y014468D01*
X016289Y014452D01*
X016238Y014433D01*
X016190Y014410D01*
X016142Y014385D01*
X016097Y014356D01*
X016053Y014324D01*
X016012Y014289D01*
X015973Y014252D01*
X015937Y014212D01*
X015944Y014206D01*
X015980Y014246D01*
X016018Y014283D01*
X016059Y014317D01*
X016102Y014348D01*
X016147Y014377D01*
X016194Y014402D01*
X016242Y014425D01*
X016292Y014444D01*
X016343Y014460D01*
X016394Y014472D01*
X016447Y014481D01*
X016500Y014487D01*
X016553Y014489D01*
X016553Y014480D01*
X016500Y014478D01*
X016448Y014472D01*
X016396Y014463D01*
X016345Y014451D01*
X016295Y014435D01*
X016245Y014416D01*
X016198Y014394D01*
X016151Y014369D01*
X016107Y014341D01*
X016065Y014310D01*
X016024Y014276D01*
X015986Y014239D01*
X015951Y014201D01*
X015957Y014195D01*
X015993Y014233D01*
X016030Y014269D01*
X016070Y014303D01*
X016112Y014333D01*
X016156Y014361D01*
X016202Y014386D01*
X016249Y014408D01*
X016298Y014427D01*
X016347Y014442D01*
X016398Y014455D01*
X016449Y014463D01*
X016501Y014469D01*
X016553Y014471D01*
X016553Y014462D01*
X016497Y014460D01*
X016442Y014453D01*
X016387Y014443D01*
X016333Y014429D01*
X016280Y014411D01*
X016229Y014389D01*
X016179Y014364D01*
X016131Y014335D01*
X016086Y014303D01*
X016043Y014268D01*
X016002Y014230D01*
X015964Y014189D01*
X015971Y014183D01*
X016008Y014224D01*
X016049Y014261D01*
X016091Y014296D01*
X016136Y014328D01*
X016184Y014356D01*
X016233Y014381D01*
X016284Y014403D01*
X016336Y014420D01*
X016389Y014434D01*
X016443Y014444D01*
X016498Y014451D01*
X016553Y014453D01*
X016553Y014444D01*
X016499Y014442D01*
X016445Y014436D01*
X016391Y014426D01*
X016338Y014412D01*
X016287Y014394D01*
X016237Y014373D01*
X016188Y014348D01*
X016141Y014320D01*
X016097Y014289D01*
X016055Y014255D01*
X016015Y014217D01*
X015978Y014177D01*
X015913Y013136D02*
X015982Y013193D01*
X015981Y013193D02*
X016018Y013153D01*
X016057Y013115D01*
X016099Y013081D01*
X016143Y013049D01*
X016189Y013021D01*
X016238Y012996D01*
X016288Y012975D01*
X016339Y012957D01*
X016392Y012944D01*
X016445Y012934D01*
X016499Y012927D01*
X016553Y012925D01*
X016554Y012836D01*
X016553Y012835D01*
X016497Y012837D01*
X016441Y012843D01*
X016386Y012853D01*
X016331Y012866D01*
X016278Y012883D01*
X016225Y012903D01*
X016174Y012927D01*
X016125Y012954D01*
X016078Y012985D01*
X016033Y013018D01*
X015990Y013054D01*
X015950Y013093D01*
X015912Y013135D01*
X015919Y013141D01*
X015956Y013100D01*
X015996Y013061D01*
X016038Y013025D01*
X016083Y012992D01*
X016130Y012962D01*
X016178Y012935D01*
X016229Y012912D01*
X016281Y012891D01*
X016334Y012875D01*
X016388Y012862D01*
X016442Y012852D01*
X016497Y012846D01*
X016553Y012844D01*
X016553Y012853D01*
X016498Y012855D01*
X016443Y012861D01*
X016389Y012870D01*
X016336Y012883D01*
X016284Y012900D01*
X016232Y012920D01*
X016183Y012943D01*
X016134Y012970D01*
X016088Y012999D01*
X016044Y013032D01*
X016002Y013068D01*
X015963Y013106D01*
X015926Y013147D01*
X015933Y013152D01*
X015969Y013112D01*
X016008Y013074D01*
X016050Y013039D01*
X016093Y013007D01*
X016139Y012977D01*
X016187Y012951D01*
X016236Y012928D01*
X016286Y012908D01*
X016338Y012892D01*
X016391Y012879D01*
X016445Y012870D01*
X016499Y012864D01*
X016553Y012862D01*
X016553Y012871D01*
X016499Y012873D01*
X016446Y012879D01*
X016393Y012888D01*
X016341Y012901D01*
X016289Y012917D01*
X016239Y012936D01*
X016191Y012959D01*
X016144Y012985D01*
X016098Y013014D01*
X016055Y013046D01*
X016014Y013081D01*
X015976Y013118D01*
X015940Y013158D01*
X015947Y013164D01*
X015982Y013125D01*
X016020Y013088D01*
X016061Y013053D01*
X016104Y013022D01*
X016148Y012993D01*
X016195Y012967D01*
X016243Y012945D01*
X016292Y012925D01*
X016343Y012909D01*
X016395Y012897D01*
X016447Y012888D01*
X016500Y012882D01*
X016553Y012880D01*
X016553Y012889D01*
X016501Y012891D01*
X016448Y012897D01*
X016397Y012906D01*
X016346Y012918D01*
X016295Y012934D01*
X016246Y012953D01*
X016199Y012975D01*
X016153Y013001D01*
X016109Y013029D01*
X016067Y013060D01*
X016026Y013094D01*
X015989Y013131D01*
X015954Y013170D01*
X015960Y013176D01*
X015995Y013137D01*
X016033Y013101D01*
X016072Y013067D01*
X016114Y013036D01*
X016158Y013008D01*
X016203Y012983D01*
X016250Y012961D01*
X016298Y012942D01*
X016348Y012927D01*
X016398Y012914D01*
X016450Y012906D01*
X016501Y012900D01*
X016553Y012898D01*
X016553Y012907D01*
X016502Y012909D01*
X016451Y012914D01*
X016400Y012923D01*
X016350Y012935D01*
X016301Y012951D01*
X016254Y012969D01*
X016207Y012991D01*
X016162Y013016D01*
X016119Y013044D01*
X016078Y013074D01*
X016039Y013107D01*
X016002Y013143D01*
X015967Y013181D01*
X015974Y013187D01*
X016011Y013146D01*
X016051Y013108D01*
X016093Y013074D01*
X016138Y013042D01*
X016185Y013013D01*
X016234Y012988D01*
X016285Y012967D01*
X016336Y012949D01*
X016390Y012935D01*
X016444Y012925D01*
X016498Y012918D01*
X016553Y012916D01*
D22*
X011007Y008680D02*
X011009Y008727D01*
X011015Y008773D01*
X011025Y008819D01*
X011038Y008864D01*
X011056Y008907D01*
X011077Y008949D01*
X011101Y008989D01*
X011129Y009026D01*
X011160Y009061D01*
X011194Y009094D01*
X011230Y009123D01*
X011269Y009149D01*
X011310Y009172D01*
X011353Y009191D01*
X011397Y009207D01*
X011442Y009219D01*
X011488Y009227D01*
X011535Y009231D01*
X011581Y009231D01*
X011628Y009227D01*
X011674Y009219D01*
X011719Y009207D01*
X011763Y009191D01*
X011806Y009172D01*
X011847Y009149D01*
X011886Y009123D01*
X011922Y009094D01*
X011956Y009061D01*
X011987Y009026D01*
X012015Y008989D01*
X012039Y008949D01*
X012060Y008907D01*
X012078Y008864D01*
X012091Y008819D01*
X012101Y008773D01*
X012107Y008727D01*
X012109Y008680D01*
X012107Y008633D01*
X012101Y008587D01*
X012091Y008541D01*
X012078Y008496D01*
X012060Y008453D01*
X012039Y008411D01*
X012015Y008371D01*
X011987Y008334D01*
X011956Y008299D01*
X011922Y008266D01*
X011886Y008237D01*
X011847Y008211D01*
X011806Y008188D01*
X011763Y008169D01*
X011719Y008153D01*
X011674Y008141D01*
X011628Y008133D01*
X011581Y008129D01*
X011535Y008129D01*
X011488Y008133D01*
X011442Y008141D01*
X011397Y008153D01*
X011353Y008169D01*
X011310Y008188D01*
X011269Y008211D01*
X011230Y008237D01*
X011194Y008266D01*
X011160Y008299D01*
X011129Y008334D01*
X011101Y008371D01*
X011077Y008411D01*
X011056Y008453D01*
X011038Y008496D01*
X011025Y008541D01*
X011015Y008587D01*
X011009Y008633D01*
X011007Y008680D01*
X008507Y003680D02*
X008509Y003727D01*
X008515Y003773D01*
X008525Y003819D01*
X008538Y003864D01*
X008556Y003907D01*
X008577Y003949D01*
X008601Y003989D01*
X008629Y004026D01*
X008660Y004061D01*
X008694Y004094D01*
X008730Y004123D01*
X008769Y004149D01*
X008810Y004172D01*
X008853Y004191D01*
X008897Y004207D01*
X008942Y004219D01*
X008988Y004227D01*
X009035Y004231D01*
X009081Y004231D01*
X009128Y004227D01*
X009174Y004219D01*
X009219Y004207D01*
X009263Y004191D01*
X009306Y004172D01*
X009347Y004149D01*
X009386Y004123D01*
X009422Y004094D01*
X009456Y004061D01*
X009487Y004026D01*
X009515Y003989D01*
X009539Y003949D01*
X009560Y003907D01*
X009578Y003864D01*
X009591Y003819D01*
X009601Y003773D01*
X009607Y003727D01*
X009609Y003680D01*
X009607Y003633D01*
X009601Y003587D01*
X009591Y003541D01*
X009578Y003496D01*
X009560Y003453D01*
X009539Y003411D01*
X009515Y003371D01*
X009487Y003334D01*
X009456Y003299D01*
X009422Y003266D01*
X009386Y003237D01*
X009347Y003211D01*
X009306Y003188D01*
X009263Y003169D01*
X009219Y003153D01*
X009174Y003141D01*
X009128Y003133D01*
X009081Y003129D01*
X009035Y003129D01*
X008988Y003133D01*
X008942Y003141D01*
X008897Y003153D01*
X008853Y003169D01*
X008810Y003188D01*
X008769Y003211D01*
X008730Y003237D01*
X008694Y003266D01*
X008660Y003299D01*
X008629Y003334D01*
X008601Y003371D01*
X008577Y003411D01*
X008556Y003453D01*
X008538Y003496D01*
X008525Y003541D01*
X008515Y003587D01*
X008509Y003633D01*
X008507Y003680D01*
X003507Y003680D02*
X003509Y003727D01*
X003515Y003773D01*
X003525Y003819D01*
X003538Y003864D01*
X003556Y003907D01*
X003577Y003949D01*
X003601Y003989D01*
X003629Y004026D01*
X003660Y004061D01*
X003694Y004094D01*
X003730Y004123D01*
X003769Y004149D01*
X003810Y004172D01*
X003853Y004191D01*
X003897Y004207D01*
X003942Y004219D01*
X003988Y004227D01*
X004035Y004231D01*
X004081Y004231D01*
X004128Y004227D01*
X004174Y004219D01*
X004219Y004207D01*
X004263Y004191D01*
X004306Y004172D01*
X004347Y004149D01*
X004386Y004123D01*
X004422Y004094D01*
X004456Y004061D01*
X004487Y004026D01*
X004515Y003989D01*
X004539Y003949D01*
X004560Y003907D01*
X004578Y003864D01*
X004591Y003819D01*
X004601Y003773D01*
X004607Y003727D01*
X004609Y003680D01*
X004607Y003633D01*
X004601Y003587D01*
X004591Y003541D01*
X004578Y003496D01*
X004560Y003453D01*
X004539Y003411D01*
X004515Y003371D01*
X004487Y003334D01*
X004456Y003299D01*
X004422Y003266D01*
X004386Y003237D01*
X004347Y003211D01*
X004306Y003188D01*
X004263Y003169D01*
X004219Y003153D01*
X004174Y003141D01*
X004128Y003133D01*
X004081Y003129D01*
X004035Y003129D01*
X003988Y003133D01*
X003942Y003141D01*
X003897Y003153D01*
X003853Y003169D01*
X003810Y003188D01*
X003769Y003211D01*
X003730Y003237D01*
X003694Y003266D01*
X003660Y003299D01*
X003629Y003334D01*
X003601Y003371D01*
X003577Y003411D01*
X003556Y003453D01*
X003538Y003496D01*
X003525Y003541D01*
X003515Y003587D01*
X003509Y003633D01*
X003507Y003680D01*
X013507Y003680D02*
X013509Y003727D01*
X013515Y003773D01*
X013525Y003819D01*
X013538Y003864D01*
X013556Y003907D01*
X013577Y003949D01*
X013601Y003989D01*
X013629Y004026D01*
X013660Y004061D01*
X013694Y004094D01*
X013730Y004123D01*
X013769Y004149D01*
X013810Y004172D01*
X013853Y004191D01*
X013897Y004207D01*
X013942Y004219D01*
X013988Y004227D01*
X014035Y004231D01*
X014081Y004231D01*
X014128Y004227D01*
X014174Y004219D01*
X014219Y004207D01*
X014263Y004191D01*
X014306Y004172D01*
X014347Y004149D01*
X014386Y004123D01*
X014422Y004094D01*
X014456Y004061D01*
X014487Y004026D01*
X014515Y003989D01*
X014539Y003949D01*
X014560Y003907D01*
X014578Y003864D01*
X014591Y003819D01*
X014601Y003773D01*
X014607Y003727D01*
X014609Y003680D01*
X014607Y003633D01*
X014601Y003587D01*
X014591Y003541D01*
X014578Y003496D01*
X014560Y003453D01*
X014539Y003411D01*
X014515Y003371D01*
X014487Y003334D01*
X014456Y003299D01*
X014422Y003266D01*
X014386Y003237D01*
X014347Y003211D01*
X014306Y003188D01*
X014263Y003169D01*
X014219Y003153D01*
X014174Y003141D01*
X014128Y003133D01*
X014081Y003129D01*
X014035Y003129D01*
X013988Y003133D01*
X013942Y003141D01*
X013897Y003153D01*
X013853Y003169D01*
X013810Y003188D01*
X013769Y003211D01*
X013730Y003237D01*
X013694Y003266D01*
X013660Y003299D01*
X013629Y003334D01*
X013601Y003371D01*
X013577Y003411D01*
X013556Y003453D01*
X013538Y003496D01*
X013525Y003541D01*
X013515Y003587D01*
X013509Y003633D01*
X013507Y003680D01*
X018507Y003680D02*
X018509Y003727D01*
X018515Y003773D01*
X018525Y003819D01*
X018538Y003864D01*
X018556Y003907D01*
X018577Y003949D01*
X018601Y003989D01*
X018629Y004026D01*
X018660Y004061D01*
X018694Y004094D01*
X018730Y004123D01*
X018769Y004149D01*
X018810Y004172D01*
X018853Y004191D01*
X018897Y004207D01*
X018942Y004219D01*
X018988Y004227D01*
X019035Y004231D01*
X019081Y004231D01*
X019128Y004227D01*
X019174Y004219D01*
X019219Y004207D01*
X019263Y004191D01*
X019306Y004172D01*
X019347Y004149D01*
X019386Y004123D01*
X019422Y004094D01*
X019456Y004061D01*
X019487Y004026D01*
X019515Y003989D01*
X019539Y003949D01*
X019560Y003907D01*
X019578Y003864D01*
X019591Y003819D01*
X019601Y003773D01*
X019607Y003727D01*
X019609Y003680D01*
X019607Y003633D01*
X019601Y003587D01*
X019591Y003541D01*
X019578Y003496D01*
X019560Y003453D01*
X019539Y003411D01*
X019515Y003371D01*
X019487Y003334D01*
X019456Y003299D01*
X019422Y003266D01*
X019386Y003237D01*
X019347Y003211D01*
X019306Y003188D01*
X019263Y003169D01*
X019219Y003153D01*
X019174Y003141D01*
X019128Y003133D01*
X019081Y003129D01*
X019035Y003129D01*
X018988Y003133D01*
X018942Y003141D01*
X018897Y003153D01*
X018853Y003169D01*
X018810Y003188D01*
X018769Y003211D01*
X018730Y003237D01*
X018694Y003266D01*
X018660Y003299D01*
X018629Y003334D01*
X018601Y003371D01*
X018577Y003411D01*
X018556Y003453D01*
X018538Y003496D01*
X018525Y003541D01*
X018515Y003587D01*
X018509Y003633D01*
X018507Y003680D01*
D23*
X003108Y023930D03*
M02*
