G75*
%MOIN*%
%OFA0B0*%
%FSLAX24Y24*%
%IPPOS*%
%LPD*%
%AMOC8*
5,1,8,0,0,1.08239X$1,22.5*
%
%ADD10C,0.0120*%
%ADD11C,0.0040*%
%ADD12C,0.0560*%
%ADD13C,0.0780*%
%ADD14OC8,0.0560*%
%ADD15C,0.0820*%
%ADD16R,0.0780X0.0780*%
%ADD17C,0.0634*%
%ADD18C,0.0000*%
%ADD19C,0.1142*%
%ADD20C,0.0800*%
%ADD21OC8,0.1221*%
%ADD22OC8,0.0780*%
%ADD23OC8,0.1306*%
%ADD24C,0.0790*%
%ADD25OC8,0.0790*%
%ADD26OC8,0.1280*%
D10*
X001558Y001680D02*
X001558Y039255D01*
X001558Y039299D01*
X001562Y039342D01*
X001569Y039384D01*
X001579Y039426D01*
X001593Y039467D01*
X001611Y039507D01*
X001631Y039545D01*
X001655Y039581D01*
X001681Y039615D01*
X001711Y039647D01*
X001742Y039677D01*
X001776Y039703D01*
X001813Y039727D01*
X001851Y039747D01*
X001890Y039765D01*
X001931Y039779D01*
X001973Y039790D01*
X002015Y039797D01*
X002058Y039801D01*
X002058Y039800D02*
X020758Y039800D01*
X020800Y039796D01*
X020842Y039788D01*
X020884Y039777D01*
X020924Y039762D01*
X020962Y039745D01*
X021000Y039724D01*
X021035Y039700D01*
X021068Y039673D01*
X021099Y039644D01*
X021127Y039612D01*
X021153Y039578D01*
X021176Y039542D01*
X021195Y039504D01*
X021212Y039464D01*
X021225Y039424D01*
X021235Y039382D01*
X021241Y039340D01*
X021244Y039298D01*
X021243Y039255D01*
X021243Y001680D01*
X021244Y001681D02*
X021252Y001634D01*
X021257Y001587D01*
X021258Y001540D01*
X021256Y001493D01*
X021250Y001446D01*
X021240Y001399D01*
X021227Y001354D01*
X021211Y001309D01*
X021192Y001266D01*
X021169Y001225D01*
X021143Y001185D01*
X021115Y001148D01*
X021084Y001112D01*
X021050Y001079D01*
X021014Y001049D01*
X020975Y001021D01*
X020935Y000997D01*
X020893Y000975D01*
X020849Y000957D01*
X020804Y000942D01*
X020759Y000930D01*
X020758Y000930D02*
X002058Y000930D01*
X002012Y000941D01*
X001966Y000956D01*
X001922Y000974D01*
X001880Y000995D01*
X001839Y001019D01*
X001799Y001046D01*
X001762Y001077D01*
X001728Y001109D01*
X001696Y001145D01*
X001667Y001182D01*
X001640Y001222D01*
X001617Y001263D01*
X001597Y001306D01*
X001580Y001351D01*
X001566Y001397D01*
X001556Y001443D01*
X001549Y001490D01*
X001546Y001538D01*
X001547Y001585D01*
X001551Y001633D01*
X001558Y001680D01*
D11*
X002095Y006100D02*
X001942Y006407D01*
X002249Y006407D02*
X002095Y006100D01*
X002402Y006100D02*
X002709Y006100D01*
X002402Y006407D01*
X002402Y006484D01*
X002479Y006560D01*
X002632Y006560D01*
X002709Y006484D01*
X003016Y006560D02*
X003016Y006100D01*
X003169Y006100D02*
X002862Y006100D01*
X003169Y006407D02*
X003016Y006560D01*
X003323Y006330D02*
X003630Y006330D01*
D12*
X010048Y022180D02*
X010568Y022180D01*
X010568Y023180D02*
X010048Y023180D01*
X010048Y024180D02*
X010568Y024180D01*
X010568Y025180D02*
X010048Y025180D01*
X010048Y026180D02*
X010568Y026180D01*
X010568Y027180D02*
X010048Y027180D01*
X010048Y028180D02*
X010568Y028180D01*
X010568Y029180D02*
X010048Y029180D01*
X010048Y030180D02*
X010568Y030180D01*
X010568Y031180D02*
X010048Y031180D01*
X010048Y032180D02*
X010568Y032180D01*
X010568Y033180D02*
X010048Y033180D01*
X010048Y034180D02*
X010568Y034180D01*
X010568Y035180D02*
X010048Y035180D01*
X013048Y035180D02*
X013568Y035180D01*
X013568Y034180D02*
X013048Y034180D01*
X013048Y033180D02*
X013568Y033180D01*
X013568Y032180D02*
X013048Y032180D01*
X013048Y031180D02*
X013568Y031180D01*
X013568Y030180D02*
X013048Y030180D01*
X013048Y029180D02*
X013568Y029180D01*
X013568Y028180D02*
X013048Y028180D01*
X013048Y027180D02*
X013568Y027180D01*
X013568Y026180D02*
X013048Y026180D01*
X013048Y025180D02*
X013568Y025180D01*
X013568Y024180D02*
X013048Y024180D01*
X013048Y023180D02*
X013568Y023180D01*
X013568Y022180D02*
X013048Y022180D01*
D13*
X012058Y018680D03*
X008658Y024230D03*
X008658Y025230D03*
X008658Y026230D03*
X003058Y032180D03*
X003058Y033180D03*
X003058Y034180D03*
X003058Y035180D03*
X003058Y036180D03*
X003058Y037180D03*
X019808Y028180D03*
X019808Y027180D03*
X019808Y026180D03*
X019808Y025180D03*
X019808Y024180D03*
X019808Y023180D03*
X017058Y013680D03*
X007058Y013680D03*
X004558Y013680D03*
X004558Y011680D03*
X004558Y009180D03*
X004558Y007180D03*
D14*
X008558Y008180D03*
X009308Y006680D03*
X011558Y005680D03*
X013808Y008180D03*
X014558Y006680D03*
X016558Y005680D03*
X018558Y006680D03*
X019558Y008180D03*
X018558Y009680D03*
X019558Y011180D03*
X019558Y012180D03*
X019058Y012930D03*
X018558Y012180D03*
X019558Y013680D03*
X018058Y015180D03*
X018058Y016180D03*
X019558Y016680D03*
X015058Y016180D03*
X015058Y015180D03*
X013558Y013680D03*
X014058Y012930D03*
X013558Y012180D03*
X014558Y012180D03*
X013808Y011180D03*
X014558Y009680D03*
X009558Y012180D03*
X009058Y012930D03*
X008558Y012180D03*
X008558Y011180D03*
X009308Y009680D03*
X008558Y015180D03*
X008558Y016180D03*
X008558Y017180D03*
X005558Y017180D03*
X005558Y016180D03*
X005558Y015180D03*
X003308Y016180D03*
X002308Y016180D03*
X002308Y019180D03*
X002308Y020180D03*
X002808Y020930D03*
X003308Y020180D03*
X003308Y019180D03*
X013558Y016680D03*
X015583Y024680D03*
X017583Y024680D03*
X013308Y036430D03*
X010308Y036430D03*
X010308Y037180D03*
X010308Y039180D03*
X011558Y002680D03*
X016558Y002680D03*
D15*
X020558Y006680D03*
X020558Y010680D03*
X004558Y014805D03*
X004558Y018805D03*
D16*
X006058Y013680D03*
X011058Y018680D03*
X016058Y013680D03*
D17*
X011558Y010617D03*
X011558Y007349D03*
X011558Y006515D03*
X009058Y005617D03*
X009058Y002349D03*
X009058Y001515D03*
X014058Y001515D03*
X014058Y002349D03*
X014058Y005617D03*
X019058Y005617D03*
X019058Y002349D03*
X019058Y001515D03*
X004058Y001515D03*
X004058Y002349D03*
X004058Y005617D03*
D18*
X003507Y003680D02*
X003509Y003727D01*
X003515Y003773D01*
X003525Y003819D01*
X003538Y003864D01*
X003556Y003907D01*
X003577Y003949D01*
X003601Y003989D01*
X003629Y004026D01*
X003660Y004061D01*
X003694Y004094D01*
X003730Y004123D01*
X003769Y004149D01*
X003810Y004172D01*
X003853Y004191D01*
X003897Y004207D01*
X003942Y004219D01*
X003988Y004227D01*
X004035Y004231D01*
X004081Y004231D01*
X004128Y004227D01*
X004174Y004219D01*
X004219Y004207D01*
X004263Y004191D01*
X004306Y004172D01*
X004347Y004149D01*
X004386Y004123D01*
X004422Y004094D01*
X004456Y004061D01*
X004487Y004026D01*
X004515Y003989D01*
X004539Y003949D01*
X004560Y003907D01*
X004578Y003864D01*
X004591Y003819D01*
X004601Y003773D01*
X004607Y003727D01*
X004609Y003680D01*
X004607Y003633D01*
X004601Y003587D01*
X004591Y003541D01*
X004578Y003496D01*
X004560Y003453D01*
X004539Y003411D01*
X004515Y003371D01*
X004487Y003334D01*
X004456Y003299D01*
X004422Y003266D01*
X004386Y003237D01*
X004347Y003211D01*
X004306Y003188D01*
X004263Y003169D01*
X004219Y003153D01*
X004174Y003141D01*
X004128Y003133D01*
X004081Y003129D01*
X004035Y003129D01*
X003988Y003133D01*
X003942Y003141D01*
X003897Y003153D01*
X003853Y003169D01*
X003810Y003188D01*
X003769Y003211D01*
X003730Y003237D01*
X003694Y003266D01*
X003660Y003299D01*
X003629Y003334D01*
X003601Y003371D01*
X003577Y003411D01*
X003556Y003453D01*
X003538Y003496D01*
X003525Y003541D01*
X003515Y003587D01*
X003509Y003633D01*
X003507Y003680D01*
X008507Y003680D02*
X008509Y003727D01*
X008515Y003773D01*
X008525Y003819D01*
X008538Y003864D01*
X008556Y003907D01*
X008577Y003949D01*
X008601Y003989D01*
X008629Y004026D01*
X008660Y004061D01*
X008694Y004094D01*
X008730Y004123D01*
X008769Y004149D01*
X008810Y004172D01*
X008853Y004191D01*
X008897Y004207D01*
X008942Y004219D01*
X008988Y004227D01*
X009035Y004231D01*
X009081Y004231D01*
X009128Y004227D01*
X009174Y004219D01*
X009219Y004207D01*
X009263Y004191D01*
X009306Y004172D01*
X009347Y004149D01*
X009386Y004123D01*
X009422Y004094D01*
X009456Y004061D01*
X009487Y004026D01*
X009515Y003989D01*
X009539Y003949D01*
X009560Y003907D01*
X009578Y003864D01*
X009591Y003819D01*
X009601Y003773D01*
X009607Y003727D01*
X009609Y003680D01*
X009607Y003633D01*
X009601Y003587D01*
X009591Y003541D01*
X009578Y003496D01*
X009560Y003453D01*
X009539Y003411D01*
X009515Y003371D01*
X009487Y003334D01*
X009456Y003299D01*
X009422Y003266D01*
X009386Y003237D01*
X009347Y003211D01*
X009306Y003188D01*
X009263Y003169D01*
X009219Y003153D01*
X009174Y003141D01*
X009128Y003133D01*
X009081Y003129D01*
X009035Y003129D01*
X008988Y003133D01*
X008942Y003141D01*
X008897Y003153D01*
X008853Y003169D01*
X008810Y003188D01*
X008769Y003211D01*
X008730Y003237D01*
X008694Y003266D01*
X008660Y003299D01*
X008629Y003334D01*
X008601Y003371D01*
X008577Y003411D01*
X008556Y003453D01*
X008538Y003496D01*
X008525Y003541D01*
X008515Y003587D01*
X008509Y003633D01*
X008507Y003680D01*
X011007Y008680D02*
X011009Y008727D01*
X011015Y008773D01*
X011025Y008819D01*
X011038Y008864D01*
X011056Y008907D01*
X011077Y008949D01*
X011101Y008989D01*
X011129Y009026D01*
X011160Y009061D01*
X011194Y009094D01*
X011230Y009123D01*
X011269Y009149D01*
X011310Y009172D01*
X011353Y009191D01*
X011397Y009207D01*
X011442Y009219D01*
X011488Y009227D01*
X011535Y009231D01*
X011581Y009231D01*
X011628Y009227D01*
X011674Y009219D01*
X011719Y009207D01*
X011763Y009191D01*
X011806Y009172D01*
X011847Y009149D01*
X011886Y009123D01*
X011922Y009094D01*
X011956Y009061D01*
X011987Y009026D01*
X012015Y008989D01*
X012039Y008949D01*
X012060Y008907D01*
X012078Y008864D01*
X012091Y008819D01*
X012101Y008773D01*
X012107Y008727D01*
X012109Y008680D01*
X012107Y008633D01*
X012101Y008587D01*
X012091Y008541D01*
X012078Y008496D01*
X012060Y008453D01*
X012039Y008411D01*
X012015Y008371D01*
X011987Y008334D01*
X011956Y008299D01*
X011922Y008266D01*
X011886Y008237D01*
X011847Y008211D01*
X011806Y008188D01*
X011763Y008169D01*
X011719Y008153D01*
X011674Y008141D01*
X011628Y008133D01*
X011581Y008129D01*
X011535Y008129D01*
X011488Y008133D01*
X011442Y008141D01*
X011397Y008153D01*
X011353Y008169D01*
X011310Y008188D01*
X011269Y008211D01*
X011230Y008237D01*
X011194Y008266D01*
X011160Y008299D01*
X011129Y008334D01*
X011101Y008371D01*
X011077Y008411D01*
X011056Y008453D01*
X011038Y008496D01*
X011025Y008541D01*
X011015Y008587D01*
X011009Y008633D01*
X011007Y008680D01*
X013507Y003680D02*
X013509Y003727D01*
X013515Y003773D01*
X013525Y003819D01*
X013538Y003864D01*
X013556Y003907D01*
X013577Y003949D01*
X013601Y003989D01*
X013629Y004026D01*
X013660Y004061D01*
X013694Y004094D01*
X013730Y004123D01*
X013769Y004149D01*
X013810Y004172D01*
X013853Y004191D01*
X013897Y004207D01*
X013942Y004219D01*
X013988Y004227D01*
X014035Y004231D01*
X014081Y004231D01*
X014128Y004227D01*
X014174Y004219D01*
X014219Y004207D01*
X014263Y004191D01*
X014306Y004172D01*
X014347Y004149D01*
X014386Y004123D01*
X014422Y004094D01*
X014456Y004061D01*
X014487Y004026D01*
X014515Y003989D01*
X014539Y003949D01*
X014560Y003907D01*
X014578Y003864D01*
X014591Y003819D01*
X014601Y003773D01*
X014607Y003727D01*
X014609Y003680D01*
X014607Y003633D01*
X014601Y003587D01*
X014591Y003541D01*
X014578Y003496D01*
X014560Y003453D01*
X014539Y003411D01*
X014515Y003371D01*
X014487Y003334D01*
X014456Y003299D01*
X014422Y003266D01*
X014386Y003237D01*
X014347Y003211D01*
X014306Y003188D01*
X014263Y003169D01*
X014219Y003153D01*
X014174Y003141D01*
X014128Y003133D01*
X014081Y003129D01*
X014035Y003129D01*
X013988Y003133D01*
X013942Y003141D01*
X013897Y003153D01*
X013853Y003169D01*
X013810Y003188D01*
X013769Y003211D01*
X013730Y003237D01*
X013694Y003266D01*
X013660Y003299D01*
X013629Y003334D01*
X013601Y003371D01*
X013577Y003411D01*
X013556Y003453D01*
X013538Y003496D01*
X013525Y003541D01*
X013515Y003587D01*
X013509Y003633D01*
X013507Y003680D01*
X018507Y003680D02*
X018509Y003727D01*
X018515Y003773D01*
X018525Y003819D01*
X018538Y003864D01*
X018556Y003907D01*
X018577Y003949D01*
X018601Y003989D01*
X018629Y004026D01*
X018660Y004061D01*
X018694Y004094D01*
X018730Y004123D01*
X018769Y004149D01*
X018810Y004172D01*
X018853Y004191D01*
X018897Y004207D01*
X018942Y004219D01*
X018988Y004227D01*
X019035Y004231D01*
X019081Y004231D01*
X019128Y004227D01*
X019174Y004219D01*
X019219Y004207D01*
X019263Y004191D01*
X019306Y004172D01*
X019347Y004149D01*
X019386Y004123D01*
X019422Y004094D01*
X019456Y004061D01*
X019487Y004026D01*
X019515Y003989D01*
X019539Y003949D01*
X019560Y003907D01*
X019578Y003864D01*
X019591Y003819D01*
X019601Y003773D01*
X019607Y003727D01*
X019609Y003680D01*
X019607Y003633D01*
X019601Y003587D01*
X019591Y003541D01*
X019578Y003496D01*
X019560Y003453D01*
X019539Y003411D01*
X019515Y003371D01*
X019487Y003334D01*
X019456Y003299D01*
X019422Y003266D01*
X019386Y003237D01*
X019347Y003211D01*
X019306Y003188D01*
X019263Y003169D01*
X019219Y003153D01*
X019174Y003141D01*
X019128Y003133D01*
X019081Y003129D01*
X019035Y003129D01*
X018988Y003133D01*
X018942Y003141D01*
X018897Y003153D01*
X018853Y003169D01*
X018810Y003188D01*
X018769Y003211D01*
X018730Y003237D01*
X018694Y003266D01*
X018660Y003299D01*
X018629Y003334D01*
X018601Y003371D01*
X018577Y003411D01*
X018556Y003453D01*
X018538Y003496D01*
X018525Y003541D01*
X018515Y003587D01*
X018509Y003633D01*
X018507Y003680D01*
D19*
X019058Y003680D03*
X014058Y003680D03*
X011558Y008680D03*
X009058Y003680D03*
X004058Y003680D03*
D20*
X005574Y018227D03*
X006558Y018227D03*
X007542Y018227D03*
X007542Y025727D03*
X006558Y025727D03*
X005574Y025727D03*
X005574Y033227D03*
X006558Y033227D03*
X007542Y033227D03*
X015574Y033227D03*
X016558Y033227D03*
X017542Y033227D03*
X017542Y025727D03*
X016558Y025727D03*
X015574Y025727D03*
X015574Y018227D03*
X016558Y018227D03*
X017542Y018227D03*
D21*
X018330Y021180D03*
X014787Y021180D03*
X008330Y021180D03*
X004787Y021180D03*
X004787Y028680D03*
X008330Y028680D03*
X014787Y028680D03*
X018330Y028680D03*
X018330Y036180D03*
X014787Y036180D03*
X008330Y036180D03*
X004787Y036180D03*
D22*
X003108Y014155D03*
X002108Y014155D03*
X002108Y013155D03*
X003108Y013155D03*
X003108Y012155D03*
X002108Y012155D03*
X002108Y011155D03*
X002108Y010155D03*
X002108Y009155D03*
X003108Y009155D03*
X003108Y010155D03*
X003108Y011155D03*
X003108Y008155D03*
X002108Y008155D03*
X002108Y007155D03*
X003108Y007155D03*
D23*
X006558Y006830D03*
X006558Y008680D03*
X006558Y010530D03*
X011558Y011830D03*
X011558Y013680D03*
X011558Y015530D03*
X016558Y010530D03*
X016558Y008680D03*
X016558Y006830D03*
D24*
X004308Y023930D03*
D25*
X002308Y023930D03*
D26*
X019308Y038930D03*
M02*
