G75*
G70*
%OFA0B0*%
%FSLAX24Y24*%
%IPPOS*%
%LPD*%
%AMOC8*
5,1,8,0,0,1.08239X$1,22.5*
%
%ADD10C,0.0120*%
%ADD11C,0.0000*%
%ADD12C,0.0560*%
%ADD13C,0.0740*%
%ADD14OC8,0.0560*%
%ADD15C,0.0780*%
%ADD16OC8,0.1481*%
%ADD17C,0.0760*%
%ADD18C,0.1575*%
%ADD19OC8,0.0740*%
%ADD20C,0.1300*%
%ADD21C,0.0750*%
%ADD22OC8,0.0750*%
%ADD23C,0.0160*%
%ADD24C,0.0356*%
%ADD25C,0.0320*%
%ADD26C,0.0400*%
%ADD27C,0.0240*%
%ADD28OC8,0.0768*%
D10*
X002055Y000305D02*
X039905Y000305D01*
X039954Y000308D01*
X040003Y000315D01*
X040051Y000325D01*
X040099Y000339D01*
X040145Y000356D01*
X040190Y000377D01*
X040233Y000401D01*
X040274Y000428D01*
X040313Y000458D01*
X040350Y000492D01*
X040384Y000527D01*
X040415Y000565D01*
X040444Y000606D01*
X040469Y000648D01*
X040491Y000692D01*
X040510Y000738D01*
X040525Y000785D01*
X040537Y000833D01*
X040545Y000881D01*
X040549Y000931D01*
X040550Y000980D01*
X040550Y019355D01*
X040549Y019410D01*
X040544Y019465D01*
X040536Y019520D01*
X040524Y019574D01*
X040508Y019627D01*
X040489Y019679D01*
X040466Y019729D01*
X040440Y019778D01*
X040410Y019825D01*
X040378Y019869D01*
X040342Y019912D01*
X040304Y019952D01*
X040263Y019989D01*
X040219Y020023D01*
X040174Y020054D01*
X040126Y020082D01*
X040076Y020107D01*
X040025Y020128D01*
X039973Y020146D01*
X039919Y020160D01*
X039865Y020170D01*
X039810Y020177D01*
X039755Y020180D01*
X002180Y020180D01*
X002120Y020178D01*
X002059Y020173D01*
X002000Y020164D01*
X001941Y020151D01*
X001882Y020135D01*
X001825Y020115D01*
X001770Y020092D01*
X001715Y020065D01*
X001663Y020036D01*
X001612Y020003D01*
X001563Y019967D01*
X001517Y019929D01*
X001473Y019887D01*
X001431Y019843D01*
X001393Y019797D01*
X001357Y019748D01*
X001324Y019697D01*
X001295Y019645D01*
X001268Y019590D01*
X001245Y019535D01*
X001225Y019478D01*
X001209Y019419D01*
X001196Y019360D01*
X001187Y019301D01*
X001182Y019240D01*
X001180Y019180D01*
X001180Y001180D01*
X001182Y001123D01*
X001187Y001066D01*
X001197Y001009D01*
X001210Y000954D01*
X001226Y000899D01*
X001247Y000845D01*
X001270Y000793D01*
X001297Y000743D01*
X001327Y000694D01*
X001361Y000647D01*
X001397Y000603D01*
X001436Y000561D01*
X001478Y000522D01*
X001522Y000486D01*
X001569Y000452D01*
X001617Y000422D01*
X001668Y000395D01*
X001720Y000372D01*
X001774Y000351D01*
X001829Y000335D01*
X001884Y000322D01*
X001941Y000312D01*
X001998Y000307D01*
X002055Y000305D01*
D11*
X038589Y002680D02*
X038591Y002728D01*
X038597Y002776D01*
X038607Y002823D01*
X038620Y002869D01*
X038638Y002914D01*
X038658Y002958D01*
X038683Y003000D01*
X038711Y003039D01*
X038741Y003076D01*
X038775Y003110D01*
X038812Y003142D01*
X038850Y003171D01*
X038891Y003196D01*
X038934Y003218D01*
X038979Y003236D01*
X039025Y003250D01*
X039072Y003261D01*
X039120Y003268D01*
X039168Y003271D01*
X039216Y003270D01*
X039264Y003265D01*
X039312Y003256D01*
X039358Y003244D01*
X039403Y003227D01*
X039447Y003207D01*
X039489Y003184D01*
X039529Y003157D01*
X039567Y003127D01*
X039602Y003094D01*
X039634Y003058D01*
X039664Y003020D01*
X039690Y002979D01*
X039712Y002936D01*
X039732Y002892D01*
X039747Y002847D01*
X039759Y002800D01*
X039767Y002752D01*
X039771Y002704D01*
X039771Y002656D01*
X039767Y002608D01*
X039759Y002560D01*
X039747Y002513D01*
X039732Y002468D01*
X039712Y002424D01*
X039690Y002381D01*
X039664Y002340D01*
X039634Y002302D01*
X039602Y002266D01*
X039567Y002233D01*
X039529Y002203D01*
X039489Y002176D01*
X039447Y002153D01*
X039403Y002133D01*
X039358Y002116D01*
X039312Y002104D01*
X039264Y002095D01*
X039216Y002090D01*
X039168Y002089D01*
X039120Y002092D01*
X039072Y002099D01*
X039025Y002110D01*
X038979Y002124D01*
X038934Y002142D01*
X038891Y002164D01*
X038850Y002189D01*
X038812Y002218D01*
X038775Y002250D01*
X038741Y002284D01*
X038711Y002321D01*
X038683Y002360D01*
X038658Y002402D01*
X038638Y002446D01*
X038620Y002491D01*
X038607Y002537D01*
X038597Y002584D01*
X038591Y002632D01*
X038589Y002680D01*
X038589Y017680D02*
X038591Y017728D01*
X038597Y017776D01*
X038607Y017823D01*
X038620Y017869D01*
X038638Y017914D01*
X038658Y017958D01*
X038683Y018000D01*
X038711Y018039D01*
X038741Y018076D01*
X038775Y018110D01*
X038812Y018142D01*
X038850Y018171D01*
X038891Y018196D01*
X038934Y018218D01*
X038979Y018236D01*
X039025Y018250D01*
X039072Y018261D01*
X039120Y018268D01*
X039168Y018271D01*
X039216Y018270D01*
X039264Y018265D01*
X039312Y018256D01*
X039358Y018244D01*
X039403Y018227D01*
X039447Y018207D01*
X039489Y018184D01*
X039529Y018157D01*
X039567Y018127D01*
X039602Y018094D01*
X039634Y018058D01*
X039664Y018020D01*
X039690Y017979D01*
X039712Y017936D01*
X039732Y017892D01*
X039747Y017847D01*
X039759Y017800D01*
X039767Y017752D01*
X039771Y017704D01*
X039771Y017656D01*
X039767Y017608D01*
X039759Y017560D01*
X039747Y017513D01*
X039732Y017468D01*
X039712Y017424D01*
X039690Y017381D01*
X039664Y017340D01*
X039634Y017302D01*
X039602Y017266D01*
X039567Y017233D01*
X039529Y017203D01*
X039489Y017176D01*
X039447Y017153D01*
X039403Y017133D01*
X039358Y017116D01*
X039312Y017104D01*
X039264Y017095D01*
X039216Y017090D01*
X039168Y017089D01*
X039120Y017092D01*
X039072Y017099D01*
X039025Y017110D01*
X038979Y017124D01*
X038934Y017142D01*
X038891Y017164D01*
X038850Y017189D01*
X038812Y017218D01*
X038775Y017250D01*
X038741Y017284D01*
X038711Y017321D01*
X038683Y017360D01*
X038658Y017402D01*
X038638Y017446D01*
X038620Y017491D01*
X038607Y017537D01*
X038597Y017584D01*
X038591Y017632D01*
X038589Y017680D01*
D12*
X035180Y011710D02*
X035180Y011150D01*
X034180Y011150D02*
X034180Y011710D01*
X033180Y011710D02*
X033180Y011150D01*
X032180Y011150D02*
X032180Y011710D01*
X031180Y011710D02*
X031180Y011150D01*
X030180Y011150D02*
X030180Y011710D01*
X029180Y011710D02*
X029180Y011150D01*
X028180Y011150D02*
X028180Y011710D01*
X027180Y011710D02*
X027180Y011150D01*
X026180Y011150D02*
X026180Y011710D01*
X025180Y011710D02*
X025180Y011150D01*
X024180Y011150D02*
X024180Y011710D01*
X023180Y011710D02*
X023180Y011150D01*
X022180Y011150D02*
X022180Y011710D01*
X022180Y008710D02*
X022180Y008150D01*
X023180Y008150D02*
X023180Y008710D01*
X024180Y008710D02*
X024180Y008150D01*
X025180Y008150D02*
X025180Y008710D01*
X026180Y008710D02*
X026180Y008150D01*
X027180Y008150D02*
X027180Y008710D01*
X028180Y008710D02*
X028180Y008150D01*
X029180Y008150D02*
X029180Y008710D01*
X030180Y008710D02*
X030180Y008150D01*
X031180Y008150D02*
X031180Y008710D01*
X032180Y008710D02*
X032180Y008150D01*
X033180Y008150D02*
X033180Y008710D01*
X034180Y008710D02*
X034180Y008150D01*
X035180Y008150D02*
X035180Y008710D01*
D13*
X026230Y013330D03*
X025230Y013330D03*
X024230Y013330D03*
X018680Y010680D03*
X018680Y009680D03*
X013680Y005680D03*
X013680Y004680D03*
X013680Y014680D03*
X013680Y015680D03*
X032180Y018680D03*
X033180Y018680D03*
X034180Y018680D03*
X035180Y018680D03*
X036180Y018680D03*
X037180Y018680D03*
D14*
X036930Y011930D03*
X036430Y011430D03*
X038930Y011930D03*
X036430Y008430D03*
X026655Y007180D03*
X024655Y007180D03*
X017405Y006755D03*
X015180Y006680D03*
X012930Y007680D03*
X012180Y007180D03*
X010680Y007180D03*
X009930Y007180D03*
X012180Y008180D03*
X013680Y008180D03*
X016680Y008180D03*
X017405Y009755D03*
X012430Y012130D03*
X011680Y012630D03*
X012430Y013130D03*
X010180Y013180D03*
X007180Y013180D03*
X005180Y015605D03*
X002180Y015605D03*
X008180Y017405D03*
X011180Y017405D03*
X012130Y017455D03*
X011630Y016705D03*
X012630Y016705D03*
X014905Y016830D03*
X015755Y016830D03*
X016555Y017480D03*
X017305Y016155D03*
X016555Y014480D03*
X015755Y013830D03*
X014905Y013830D03*
X017305Y013155D03*
X010680Y010180D03*
X005430Y010430D03*
X002430Y010430D03*
X006930Y007180D03*
X005430Y005430D03*
X002430Y005430D03*
X007180Y002680D03*
X007180Y001680D03*
X010180Y001680D03*
X012180Y001680D03*
X012930Y002180D03*
X013930Y002180D03*
X012180Y002680D03*
X010180Y002680D03*
X015180Y003680D03*
X016930Y002180D03*
D15*
X016180Y018180D03*
X016180Y019180D03*
X020180Y019180D03*
X020180Y018180D03*
D16*
X009074Y011912D03*
X005412Y012286D03*
X002223Y012326D03*
X003129Y014176D03*
X005412Y017286D03*
X002223Y017326D03*
X003129Y019176D03*
X007184Y009629D03*
X009034Y008723D03*
X005412Y007286D03*
X002223Y007326D03*
X003129Y009176D03*
X003129Y004176D03*
X002223Y002326D03*
X005412Y002286D03*
D17*
X018227Y004196D03*
X018227Y005180D03*
X018227Y006164D03*
X025727Y006164D03*
X025727Y005180D03*
X025727Y004196D03*
X033227Y004196D03*
X033227Y005180D03*
X033227Y006164D03*
X033227Y014196D03*
X033227Y015180D03*
X033227Y016164D03*
X025727Y016164D03*
X025727Y015180D03*
X025727Y014196D03*
X018227Y014196D03*
X018227Y015180D03*
X018227Y016164D03*
D18*
X021180Y016952D03*
X028680Y016952D03*
X028680Y013408D03*
X021180Y013408D03*
X021180Y006952D03*
X028680Y006952D03*
X028680Y003408D03*
X021180Y003408D03*
X036180Y003408D03*
X036180Y006952D03*
X036180Y013408D03*
X036180Y016952D03*
D19*
X014155Y018380D03*
X013155Y018380D03*
X012155Y018380D03*
X011155Y018380D03*
X010155Y018380D03*
X009155Y018380D03*
X008155Y018380D03*
X007155Y018380D03*
X007155Y019380D03*
X008155Y019380D03*
X009155Y019380D03*
X010155Y019380D03*
X011155Y019380D03*
X012155Y019380D03*
X013155Y019380D03*
X014155Y019380D03*
D20*
X010530Y015830D02*
X010530Y014530D01*
X008680Y014530D02*
X008680Y015830D01*
X006830Y015830D02*
X006830Y014530D01*
X011830Y010830D02*
X011830Y009530D01*
X013680Y009530D02*
X013680Y010830D01*
X015530Y010830D02*
X015530Y009530D01*
X010530Y005830D02*
X010530Y004530D01*
X008680Y004530D02*
X008680Y005830D01*
X006830Y005830D02*
X006830Y004530D01*
D21*
X023930Y017430D03*
D22*
X023930Y019430D03*
D23*
X001507Y000901D02*
X001620Y000745D01*
X001776Y000632D01*
X001959Y000573D01*
X002055Y000565D01*
X039900Y000565D01*
X039962Y000571D01*
X040080Y000613D01*
X040179Y000689D01*
X040251Y000791D01*
X040287Y000911D01*
X040290Y000973D01*
X040290Y000977D01*
X040289Y001026D01*
X040290Y001029D01*
X040290Y019306D01*
X040289Y019308D01*
X040290Y019357D01*
X040290Y019361D01*
X040285Y019446D01*
X040235Y019611D01*
X040136Y019752D01*
X039999Y019855D01*
X039836Y019912D01*
X039751Y019920D01*
X024225Y019920D01*
X024485Y019660D01*
X024485Y019430D01*
X023930Y019430D01*
X023930Y019430D01*
X024485Y019430D01*
X024485Y019200D01*
X031946Y019200D01*
X031857Y019163D02*
X031697Y019003D01*
X031610Y018793D01*
X031610Y018567D01*
X031697Y018357D01*
X031857Y018197D01*
X032067Y018110D01*
X032293Y018110D01*
X032503Y018197D01*
X032663Y018357D01*
X032680Y018398D01*
X032697Y018357D01*
X032857Y018197D01*
X033067Y018110D01*
X033293Y018110D01*
X033503Y018197D01*
X033663Y018357D01*
X033680Y018398D01*
X033697Y018357D01*
X033857Y018197D01*
X034067Y018110D01*
X034293Y018110D01*
X034503Y018197D01*
X034663Y018357D01*
X034680Y018398D01*
X034697Y018357D01*
X034832Y018222D01*
X033351Y016741D01*
X033343Y016744D01*
X033112Y016744D01*
X032899Y016656D01*
X032783Y016540D01*
X029858Y016540D01*
X029726Y016485D01*
X029625Y016384D01*
X029281Y016040D01*
X029004Y016040D01*
X029051Y016056D01*
X029149Y016104D01*
X029241Y016161D01*
X029326Y016229D01*
X029402Y016306D01*
X029470Y016391D01*
X029528Y016483D01*
X029575Y016581D01*
X029611Y016683D01*
X029635Y016789D01*
X029645Y016872D01*
X028760Y016872D01*
X028760Y017032D01*
X028600Y017032D01*
X028600Y017916D01*
X028518Y017907D01*
X028412Y017883D01*
X028309Y017847D01*
X028211Y017800D01*
X028119Y017742D01*
X028034Y017674D01*
X027958Y017597D01*
X027890Y017512D01*
X027832Y017420D01*
X027785Y017322D01*
X027749Y017220D01*
X027725Y017114D01*
X027715Y017032D01*
X028600Y017032D01*
X028600Y016872D01*
X027715Y016872D01*
X027725Y016789D01*
X027749Y016683D01*
X027785Y016581D01*
X027832Y016483D01*
X027890Y016391D01*
X027958Y016306D01*
X028034Y016229D01*
X028119Y016161D01*
X028211Y016104D01*
X028309Y016056D01*
X028356Y016040D01*
X028079Y016040D01*
X027650Y016469D01*
X027517Y016524D01*
X026187Y016524D01*
X026056Y016656D01*
X025843Y016744D01*
X025612Y016744D01*
X025399Y016656D01*
X025283Y016540D01*
X023299Y016540D01*
X023673Y016914D01*
X023816Y016855D01*
X024044Y016855D01*
X024256Y016943D01*
X024417Y017104D01*
X024505Y017316D01*
X024505Y017544D01*
X024417Y017756D01*
X024256Y017917D01*
X024044Y018005D01*
X023816Y018005D01*
X023604Y017917D01*
X023443Y017756D01*
X023404Y017663D01*
X023375Y017634D01*
X022125Y016384D01*
X022125Y016384D01*
X021781Y016040D01*
X021504Y016040D01*
X021551Y016056D01*
X021649Y016104D01*
X021741Y016161D01*
X021826Y016229D01*
X021902Y016306D01*
X021970Y016391D01*
X022028Y016483D01*
X022075Y016581D01*
X022111Y016683D01*
X022135Y016789D01*
X022145Y016872D01*
X021260Y016872D01*
X021260Y017032D01*
X021100Y017032D01*
X021100Y017916D01*
X021018Y017907D01*
X020912Y017883D01*
X020809Y017847D01*
X020711Y017800D01*
X020619Y017742D01*
X020534Y017674D01*
X020458Y017597D01*
X020390Y017512D01*
X020332Y017420D01*
X020285Y017322D01*
X020249Y017220D01*
X020225Y017114D01*
X020215Y017032D01*
X021100Y017032D01*
X021100Y016872D01*
X020215Y016872D01*
X020225Y016789D01*
X020249Y016683D01*
X020285Y016581D01*
X020332Y016483D01*
X020390Y016391D01*
X020458Y016306D01*
X020534Y016229D01*
X020619Y016161D01*
X020711Y016104D01*
X020809Y016056D01*
X020856Y016040D01*
X018861Y016040D01*
X018807Y016093D01*
X018807Y016280D01*
X018802Y016293D01*
X020099Y017590D01*
X020297Y017590D01*
X020514Y017680D01*
X020680Y017846D01*
X020770Y018063D01*
X020770Y018297D01*
X020680Y018514D01*
X020514Y018680D01*
X020680Y018846D01*
X020770Y019063D01*
X020770Y019297D01*
X020680Y019514D01*
X020514Y019680D01*
X020297Y019770D01*
X020236Y019770D01*
X020086Y019920D01*
X023635Y019920D01*
X023375Y019660D01*
X023375Y019430D01*
X023930Y019430D01*
X023930Y018875D01*
X024160Y018875D01*
X024485Y019200D01*
X024485Y019359D02*
X032213Y019359D01*
X032104Y019250D02*
X032067Y019250D01*
X031857Y019163D01*
X031735Y019042D02*
X024326Y019042D01*
X024168Y018883D02*
X031647Y018883D01*
X031610Y018725D02*
X020559Y018725D01*
X020628Y018566D02*
X031610Y018566D01*
X031676Y018408D02*
X020724Y018408D01*
X020770Y018249D02*
X031805Y018249D01*
X032555Y018249D02*
X032805Y018249D01*
X033555Y018249D02*
X033805Y018249D01*
X034384Y017774D02*
X029190Y017774D01*
X029149Y017800D02*
X029051Y017847D01*
X028948Y017883D01*
X028842Y017907D01*
X028760Y017916D01*
X028760Y017032D01*
X029645Y017032D01*
X029635Y017114D01*
X029611Y017220D01*
X029575Y017322D01*
X029528Y017420D01*
X029470Y017512D01*
X029402Y017597D01*
X029326Y017674D01*
X029241Y017742D01*
X029149Y017800D01*
X029385Y017615D02*
X034225Y017615D01*
X034067Y017457D02*
X029505Y017457D01*
X029584Y017298D02*
X033908Y017298D01*
X033750Y017140D02*
X029629Y017140D01*
X029639Y016823D02*
X033433Y016823D01*
X033591Y016981D02*
X028760Y016981D01*
X028760Y017140D02*
X028600Y017140D01*
X028600Y017298D02*
X028760Y017298D01*
X028760Y017457D02*
X028600Y017457D01*
X028600Y017615D02*
X028760Y017615D01*
X028760Y017774D02*
X028600Y017774D01*
X028170Y017774D02*
X024400Y017774D01*
X024476Y017615D02*
X027975Y017615D01*
X027855Y017457D02*
X024505Y017457D01*
X024498Y017298D02*
X027776Y017298D01*
X027731Y017140D02*
X024432Y017140D01*
X024294Y016981D02*
X028600Y016981D01*
X027721Y016823D02*
X023582Y016823D01*
X023423Y016664D02*
X025418Y016664D01*
X026036Y016664D02*
X027756Y016664D01*
X027821Y016506D02*
X027563Y016506D01*
X027772Y016347D02*
X027925Y016347D01*
X027931Y016189D02*
X028085Y016189D01*
X029275Y016189D02*
X029429Y016189D01*
X029435Y016347D02*
X029588Y016347D01*
X029539Y016506D02*
X029775Y016506D01*
X029604Y016664D02*
X032918Y016664D01*
X034040Y016524D02*
X035451Y017936D01*
X035500Y018053D01*
X035500Y018196D01*
X035503Y018197D01*
X035663Y018357D01*
X035692Y018426D01*
X035710Y018392D01*
X035760Y018322D01*
X035822Y018260D01*
X035892Y018210D01*
X035969Y018170D01*
X036051Y018144D01*
X036137Y018130D01*
X036160Y018130D01*
X036160Y018660D01*
X036200Y018660D01*
X036200Y018700D01*
X036630Y018700D01*
X037160Y018700D01*
X037160Y018660D01*
X037200Y018660D01*
X037200Y018700D01*
X037730Y018700D01*
X037730Y018723D01*
X037716Y018809D01*
X037690Y018891D01*
X037650Y018968D01*
X037600Y019038D01*
X037538Y019100D01*
X037469Y019150D01*
X037564Y019150D01*
X037900Y018814D01*
X037900Y017124D01*
X037943Y017021D01*
X038021Y016943D01*
X038650Y016314D01*
X038650Y012329D01*
X038540Y012219D01*
X038540Y014752D01*
X038485Y014884D01*
X037384Y015985D01*
X037252Y016040D01*
X036504Y016040D01*
X036551Y016056D01*
X036649Y016104D01*
X036741Y016161D01*
X036826Y016229D01*
X036902Y016306D01*
X036970Y016391D01*
X037028Y016483D01*
X037075Y016581D01*
X037111Y016683D01*
X037135Y016789D01*
X037145Y016872D01*
X036260Y016872D01*
X036260Y017032D01*
X036100Y017032D01*
X036100Y017916D01*
X036018Y017907D01*
X035912Y017883D01*
X035809Y017847D01*
X035711Y017800D01*
X035619Y017742D01*
X035534Y017674D01*
X035458Y017597D01*
X035390Y017512D01*
X035332Y017420D01*
X035285Y017322D01*
X035249Y017220D01*
X035225Y017114D01*
X035215Y017032D01*
X036100Y017032D01*
X036100Y016872D01*
X035215Y016872D01*
X035225Y016789D01*
X035249Y016683D01*
X035285Y016581D01*
X035332Y016483D01*
X035390Y016391D01*
X035458Y016306D01*
X035534Y016229D01*
X035619Y016161D01*
X035711Y016104D01*
X035809Y016056D01*
X035856Y016040D01*
X035579Y016040D01*
X035150Y016469D01*
X035017Y016524D01*
X034040Y016524D01*
X034180Y016664D02*
X035256Y016664D01*
X035221Y016823D02*
X034338Y016823D01*
X034497Y016981D02*
X036100Y016981D01*
X036100Y017140D02*
X036260Y017140D01*
X036260Y017032D02*
X036260Y017916D01*
X036342Y017907D01*
X036448Y017883D01*
X036551Y017847D01*
X036649Y017800D01*
X036741Y017742D01*
X036826Y017674D01*
X036902Y017597D01*
X036970Y017512D01*
X037028Y017420D01*
X037075Y017322D01*
X037111Y017220D01*
X037135Y017114D01*
X037145Y017032D01*
X036260Y017032D01*
X036260Y016981D02*
X037983Y016981D01*
X037900Y017140D02*
X037129Y017140D01*
X037084Y017298D02*
X037900Y017298D01*
X037900Y017457D02*
X037005Y017457D01*
X036885Y017615D02*
X037900Y017615D01*
X037900Y017774D02*
X036690Y017774D01*
X036260Y017774D02*
X036100Y017774D01*
X036100Y017615D02*
X036260Y017615D01*
X036260Y017457D02*
X036100Y017457D01*
X036100Y017298D02*
X036260Y017298D01*
X035475Y017615D02*
X035131Y017615D01*
X035289Y017774D02*
X035670Y017774D01*
X035448Y017932D02*
X037900Y017932D01*
X037900Y018091D02*
X035500Y018091D01*
X035555Y018249D02*
X035837Y018249D01*
X035702Y018408D02*
X035684Y018408D01*
X036160Y018408D02*
X036200Y018408D01*
X036200Y018566D02*
X036160Y018566D01*
X036200Y018660D02*
X036200Y018130D01*
X036223Y018130D01*
X036309Y018144D01*
X036391Y018170D01*
X036468Y018210D01*
X036538Y018260D01*
X036600Y018322D01*
X036650Y018392D01*
X036680Y018450D01*
X036710Y018392D01*
X036760Y018322D01*
X036822Y018260D01*
X036892Y018210D01*
X036969Y018170D01*
X037051Y018144D01*
X037137Y018130D01*
X037160Y018130D01*
X037160Y018660D01*
X036200Y018660D01*
X036658Y018408D02*
X036702Y018408D01*
X036837Y018249D02*
X036523Y018249D01*
X036200Y018249D02*
X036160Y018249D01*
X037160Y018249D02*
X037200Y018249D01*
X037200Y018130D02*
X037223Y018130D01*
X037309Y018144D01*
X037391Y018170D01*
X037468Y018210D01*
X037538Y018260D01*
X037600Y018322D01*
X037650Y018392D01*
X037690Y018469D01*
X037716Y018551D01*
X037730Y018637D01*
X037730Y018660D01*
X037200Y018660D01*
X037200Y018130D01*
X037200Y018408D02*
X037160Y018408D01*
X037160Y018566D02*
X037200Y018566D01*
X037658Y018408D02*
X037900Y018408D01*
X037900Y018566D02*
X037719Y018566D01*
X037730Y018725D02*
X037900Y018725D01*
X037831Y018883D02*
X037692Y018883D01*
X037672Y019042D02*
X037596Y019042D01*
X037680Y019430D02*
X032680Y019430D01*
X032180Y018930D01*
X032180Y018680D01*
X032104Y019250D02*
X032521Y019667D01*
X032624Y019710D01*
X037736Y019710D01*
X037839Y019667D01*
X037917Y019589D01*
X038417Y019089D01*
X038460Y018986D01*
X038460Y018008D01*
X038510Y018128D01*
X038732Y018350D01*
X039023Y018471D01*
X039337Y018471D01*
X039628Y018350D01*
X039850Y018128D01*
X039971Y017837D01*
X039971Y017523D01*
X039850Y017232D01*
X039628Y017010D01*
X039337Y016889D01*
X039023Y016889D01*
X038756Y017000D01*
X039167Y016589D01*
X039210Y016486D01*
X039210Y012329D01*
X039410Y012129D01*
X039410Y011731D01*
X039129Y011450D01*
X038731Y011450D01*
X038540Y011641D01*
X038540Y009108D01*
X038485Y008976D01*
X037939Y008430D01*
X038485Y007884D01*
X038540Y007752D01*
X038540Y007108D01*
X038485Y006976D01*
X036985Y005476D01*
X036884Y005375D01*
X036752Y005320D01*
X034608Y005320D01*
X034476Y005375D01*
X034031Y005820D01*
X033703Y005820D01*
X033556Y005673D01*
X033555Y005672D01*
X033556Y005672D01*
X033719Y005509D01*
X033807Y005295D01*
X033807Y005065D01*
X033719Y004851D01*
X033556Y004688D01*
X033522Y004674D01*
X033592Y004623D01*
X033654Y004561D01*
X033706Y004489D01*
X033746Y004411D01*
X033773Y004327D01*
X033787Y004240D01*
X033787Y004214D01*
X033246Y004214D01*
X033246Y004177D01*
X033787Y004177D01*
X033787Y004152D01*
X033773Y004065D01*
X033746Y003981D01*
X033706Y003902D01*
X033654Y003831D01*
X033592Y003769D01*
X033521Y003717D01*
X033442Y003677D01*
X033358Y003650D01*
X033271Y003636D01*
X033246Y003636D01*
X033246Y004177D01*
X033209Y004177D01*
X033209Y003636D01*
X033183Y003636D01*
X033096Y003650D01*
X033012Y003677D01*
X032934Y003717D01*
X032862Y003769D01*
X032800Y003831D01*
X032748Y003902D01*
X032708Y003981D01*
X032681Y004065D01*
X032667Y004152D01*
X032667Y004177D01*
X033209Y004177D01*
X033209Y004214D01*
X032667Y004214D01*
X032667Y004240D01*
X032681Y004327D01*
X032708Y004411D01*
X032748Y004489D01*
X032800Y004561D01*
X032862Y004623D01*
X032933Y004674D01*
X032899Y004688D01*
X032736Y004851D01*
X032647Y005065D01*
X032647Y005295D01*
X032736Y005509D01*
X032899Y005672D01*
X032900Y005672D01*
X032899Y005673D01*
X032736Y005836D01*
X032647Y006049D01*
X032647Y006145D01*
X030151Y006145D01*
X029617Y005493D01*
X029610Y005476D01*
X029572Y005438D01*
X029538Y005397D01*
X029522Y005388D01*
X029509Y005375D01*
X029459Y005354D01*
X029412Y005329D01*
X029394Y005327D01*
X029377Y005320D01*
X029323Y005320D01*
X029270Y005315D01*
X029252Y005320D01*
X027858Y005320D01*
X027726Y005375D01*
X027625Y005476D01*
X027297Y005804D01*
X026187Y005804D01*
X026056Y005673D01*
X026055Y005672D01*
X026056Y005672D01*
X026219Y005509D01*
X026307Y005295D01*
X026307Y005065D01*
X026219Y004851D01*
X026056Y004688D01*
X026022Y004674D01*
X026092Y004623D01*
X026154Y004561D01*
X026206Y004489D01*
X026246Y004411D01*
X026273Y004327D01*
X026287Y004240D01*
X026287Y004214D01*
X025746Y004214D01*
X025746Y004177D01*
X026287Y004177D01*
X026287Y004161D01*
X027245Y004891D01*
X027271Y004917D01*
X027289Y004925D01*
X027304Y004936D01*
X027340Y004946D01*
X027374Y004960D01*
X027394Y004960D01*
X027412Y004965D01*
X027449Y004960D01*
X029314Y004960D01*
X030052Y005698D01*
X030052Y005755D01*
X030109Y005894D01*
X030216Y006001D01*
X030355Y006058D01*
X030505Y006058D01*
X030644Y006001D01*
X030751Y005894D01*
X030808Y005755D01*
X030808Y005605D01*
X030751Y005466D01*
X030644Y005359D01*
X030505Y005302D01*
X030448Y005302D01*
X029589Y004443D01*
X029486Y004400D01*
X027525Y004400D01*
X026140Y003344D01*
X026114Y003318D01*
X026096Y003310D01*
X026081Y003299D01*
X026045Y003289D01*
X026011Y003275D01*
X025991Y003275D01*
X025973Y003270D01*
X025936Y003275D01*
X025470Y003275D01*
X025430Y003271D01*
X025415Y003275D01*
X025399Y003275D01*
X025362Y003290D01*
X025323Y003302D01*
X025311Y003312D01*
X025296Y003318D01*
X025268Y003346D01*
X023332Y004900D01*
X018739Y004900D01*
X018719Y004851D01*
X018556Y004688D01*
X018522Y004674D01*
X018592Y004623D01*
X018654Y004561D01*
X018706Y004489D01*
X018746Y004411D01*
X018773Y004327D01*
X018787Y004240D01*
X018787Y004214D01*
X018246Y004214D01*
X018246Y004177D01*
X018787Y004177D01*
X018787Y004152D01*
X018773Y004065D01*
X018746Y003981D01*
X018706Y003902D01*
X018654Y003831D01*
X018592Y003769D01*
X018521Y003717D01*
X018442Y003677D01*
X018358Y003650D01*
X018271Y003636D01*
X018246Y003636D01*
X018246Y004177D01*
X018209Y004177D01*
X018209Y003636D01*
X018183Y003636D01*
X018096Y003650D01*
X018012Y003677D01*
X017934Y003717D01*
X017862Y003769D01*
X017800Y003831D01*
X017748Y003902D01*
X017708Y003981D01*
X017681Y004065D01*
X017667Y004152D01*
X017667Y004177D01*
X018209Y004177D01*
X018209Y004214D01*
X017667Y004214D01*
X017667Y004240D01*
X017681Y004327D01*
X017708Y004411D01*
X017748Y004489D01*
X017800Y004561D01*
X017862Y004623D01*
X017933Y004674D01*
X017899Y004688D01*
X017736Y004851D01*
X017647Y005065D01*
X017647Y005295D01*
X017736Y005509D01*
X017899Y005672D01*
X017900Y005672D01*
X017899Y005673D01*
X017736Y005836D01*
X017647Y006049D01*
X017647Y006280D01*
X017695Y006394D01*
X017596Y006295D01*
X017405Y006295D01*
X017405Y006755D01*
X017405Y006755D01*
X017405Y007215D01*
X017596Y007215D01*
X017865Y006946D01*
X017865Y006755D01*
X017405Y006755D01*
X017405Y006755D01*
X017405Y006755D01*
X017405Y006755D01*
X016945Y006755D01*
X016945Y006946D01*
X017214Y007215D01*
X017405Y007215D01*
X017405Y006755D01*
X017865Y006755D01*
X017865Y006622D01*
X017899Y006656D01*
X018112Y006744D01*
X018343Y006744D01*
X018556Y006656D01*
X018687Y006524D01*
X020017Y006524D01*
X020150Y006469D01*
X020579Y006040D01*
X020856Y006040D01*
X020809Y006056D01*
X020711Y006104D01*
X020619Y006161D01*
X020534Y006229D01*
X020458Y006306D01*
X020390Y006391D01*
X020332Y006483D01*
X020285Y006581D01*
X020249Y006683D01*
X020225Y006789D01*
X020215Y006872D01*
X021100Y006872D01*
X021100Y007032D01*
X021100Y007916D01*
X021018Y007907D01*
X020912Y007883D01*
X020809Y007847D01*
X020711Y007800D01*
X020619Y007742D01*
X020534Y007674D01*
X020458Y007597D01*
X020390Y007512D01*
X020332Y007420D01*
X020285Y007322D01*
X020249Y007220D01*
X020225Y007114D01*
X020215Y007032D01*
X021100Y007032D01*
X021260Y007032D01*
X021260Y007916D01*
X021303Y007911D01*
X019814Y009400D01*
X019181Y009400D01*
X019163Y009357D01*
X019003Y009197D01*
X018793Y009110D01*
X018567Y009110D01*
X018357Y009197D01*
X018197Y009357D01*
X018110Y009567D01*
X018110Y009793D01*
X018197Y010003D01*
X018357Y010163D01*
X018398Y010180D01*
X018357Y010197D01*
X018197Y010357D01*
X018110Y010567D01*
X018110Y010793D01*
X018197Y011003D01*
X018344Y011150D01*
X016796Y011150D01*
X016380Y010734D01*
X016380Y009361D01*
X016251Y009049D01*
X016011Y008809D01*
X015699Y008680D01*
X015361Y008680D01*
X015049Y008809D01*
X014809Y009049D01*
X014680Y009361D01*
X014680Y010999D01*
X014809Y011311D01*
X014898Y011400D01*
X014624Y011400D01*
X014521Y011443D01*
X013521Y012443D01*
X013443Y012521D01*
X013400Y012624D01*
X013400Y014179D01*
X013357Y014197D01*
X013197Y014357D01*
X013110Y014567D01*
X013110Y014793D01*
X013197Y015003D01*
X013357Y015163D01*
X013398Y015180D01*
X013357Y015197D01*
X013197Y015357D01*
X013110Y015567D01*
X013110Y015793D01*
X013197Y016003D01*
X013344Y016150D01*
X012874Y016150D01*
X012771Y016193D01*
X012739Y016225D01*
X012431Y016225D01*
X012150Y016506D01*
X012150Y016904D01*
X012221Y016975D01*
X012011Y016975D01*
X012090Y016896D01*
X012090Y016705D01*
X011630Y016705D01*
X011630Y016705D01*
X011630Y016705D01*
X011630Y017165D01*
X011741Y017165D01*
X011660Y017246D01*
X011660Y017206D01*
X011619Y017165D01*
X011630Y017165D01*
X011630Y016705D01*
X012090Y016705D01*
X012090Y016514D01*
X011821Y016245D01*
X011630Y016245D01*
X011630Y016705D01*
X011630Y016705D01*
X011630Y016705D01*
X011170Y016705D01*
X011170Y016896D01*
X011199Y016925D01*
X010981Y016925D01*
X010700Y017206D01*
X010700Y017472D01*
X010386Y017159D01*
X010269Y017110D01*
X009613Y017110D01*
X009067Y016565D01*
X009142Y016522D01*
X009228Y016455D01*
X009305Y016378D01*
X009372Y016292D01*
X009426Y016198D01*
X009468Y016097D01*
X009496Y015992D01*
X009510Y015884D01*
X009510Y015260D01*
X008760Y015260D01*
X008760Y015100D01*
X009510Y015100D01*
X009510Y014476D01*
X009496Y014368D01*
X009468Y014263D01*
X009426Y014162D01*
X009372Y014068D01*
X009305Y013982D01*
X009228Y013905D01*
X009142Y013838D01*
X009048Y013784D01*
X008947Y013742D01*
X008842Y013714D01*
X008760Y013703D01*
X008760Y015100D01*
X008600Y015100D01*
X008600Y013703D01*
X008518Y013714D01*
X008413Y013742D01*
X008312Y013784D01*
X008218Y013838D01*
X008132Y013905D01*
X008055Y013982D01*
X007988Y014068D01*
X007934Y014162D01*
X007892Y014263D01*
X007864Y014368D01*
X007850Y014476D01*
X007850Y015100D01*
X008600Y015100D01*
X008600Y015260D01*
X007850Y015260D01*
X007850Y015884D01*
X007864Y015992D01*
X007892Y016097D01*
X007934Y016198D01*
X007988Y016292D01*
X008055Y016378D01*
X008132Y016455D01*
X008170Y016485D01*
X007377Y016485D01*
X007551Y016311D01*
X007680Y015999D01*
X007680Y014361D01*
X007551Y014049D01*
X007311Y013809D01*
X006999Y013680D01*
X006661Y013680D01*
X006349Y013809D01*
X006109Y014049D01*
X006000Y014312D01*
X006000Y014279D01*
X006000Y014216D01*
X005999Y014215D01*
X005999Y014214D01*
X005975Y014156D01*
X005951Y014099D01*
X005950Y014098D01*
X005950Y014096D01*
X005905Y014053D01*
X005861Y014009D01*
X005860Y014008D01*
X005065Y013227D01*
X005802Y013227D01*
X006353Y012676D01*
X006353Y011897D01*
X005802Y011346D01*
X005023Y011346D01*
X004500Y011868D01*
X004500Y010813D01*
X004950Y010363D01*
X004950Y010629D01*
X005231Y010910D01*
X005629Y010910D01*
X005910Y010629D01*
X005910Y010231D01*
X005629Y009950D01*
X005363Y009950D01*
X007111Y008201D01*
X007111Y008201D01*
X007201Y008111D01*
X007250Y007994D01*
X007250Y007539D01*
X007410Y007379D01*
X007410Y007245D01*
X007831Y006964D01*
X007861Y006951D01*
X007884Y006929D01*
X007910Y006911D01*
X007928Y006884D01*
X007951Y006861D01*
X007964Y006832D01*
X007981Y006805D01*
X007988Y006773D01*
X008000Y006744D01*
X008000Y006712D01*
X008006Y006680D01*
X008000Y006649D01*
X008000Y006307D01*
X008055Y006378D01*
X008132Y006455D01*
X008218Y006522D01*
X008312Y006576D01*
X008413Y006618D01*
X008518Y006646D01*
X008600Y006657D01*
X008600Y005260D01*
X008760Y005260D01*
X008760Y006657D01*
X008842Y006646D01*
X008947Y006618D01*
X009048Y006576D01*
X009142Y006522D01*
X009228Y006455D01*
X009305Y006378D01*
X009372Y006292D01*
X009426Y006198D01*
X009468Y006097D01*
X009496Y005992D01*
X009510Y005884D01*
X009510Y005260D01*
X008760Y005260D01*
X008760Y005100D01*
X009510Y005100D01*
X009510Y004476D01*
X009496Y004368D01*
X009468Y004263D01*
X009426Y004162D01*
X009372Y004068D01*
X009305Y003982D01*
X009228Y003905D01*
X009142Y003838D01*
X009048Y003784D01*
X008947Y003742D01*
X008842Y003714D01*
X008760Y003703D01*
X008760Y005100D01*
X008600Y005100D01*
X008600Y003703D01*
X008518Y003714D01*
X008413Y003742D01*
X008312Y003784D01*
X008218Y003838D01*
X008132Y003905D01*
X008055Y003982D01*
X008000Y004053D01*
X008000Y001866D01*
X007951Y001749D01*
X007861Y001659D01*
X007611Y001409D01*
X007571Y001392D01*
X007379Y001200D01*
X006981Y001200D01*
X006700Y001481D01*
X006700Y001879D01*
X006981Y002160D01*
X007360Y002160D01*
X007360Y002200D01*
X006981Y002200D01*
X006700Y002481D01*
X006700Y002879D01*
X006981Y003160D01*
X007360Y003160D01*
X007360Y003858D01*
X007311Y003809D01*
X006999Y003680D01*
X006661Y003680D01*
X006349Y003809D01*
X006109Y004049D01*
X005980Y004361D01*
X005980Y005999D01*
X006109Y006311D01*
X006349Y006551D01*
X006661Y006680D01*
X006999Y006680D01*
X007274Y006566D01*
X007073Y006700D01*
X006731Y006700D01*
X006450Y006981D01*
X006450Y007379D01*
X006610Y007539D01*
X006610Y007797D01*
X003999Y010409D01*
X003999Y010409D01*
X003909Y010499D01*
X003860Y010616D01*
X003860Y012743D01*
X003859Y012744D01*
X003860Y012806D01*
X003860Y012869D01*
X003861Y012870D01*
X003861Y012871D01*
X003885Y012929D01*
X003909Y012986D01*
X003910Y012987D01*
X003910Y012989D01*
X003955Y013032D01*
X003999Y013076D01*
X004000Y013077D01*
X005360Y014414D01*
X005360Y015125D01*
X004981Y015125D01*
X004700Y015406D01*
X004700Y015804D01*
X004981Y016085D01*
X005360Y016085D01*
X005360Y016094D01*
X005409Y016211D01*
X005543Y016346D01*
X005023Y016346D01*
X004472Y016897D01*
X004472Y017676D01*
X005023Y018227D01*
X005802Y018227D01*
X006353Y017676D01*
X006353Y017109D01*
X006391Y017125D01*
X007781Y017125D01*
X007700Y017206D01*
X007700Y017604D01*
X007927Y017831D01*
X007669Y018088D01*
X007391Y017810D01*
X006919Y017810D01*
X006585Y018144D01*
X006585Y018616D01*
X006849Y018880D01*
X006585Y019144D01*
X006585Y019616D01*
X006889Y019920D01*
X003715Y019920D01*
X004069Y019566D01*
X004069Y018786D01*
X003518Y018236D01*
X002739Y018236D01*
X002188Y018786D01*
X002188Y019566D01*
X002543Y019920D01*
X002180Y019920D01*
X002064Y019911D01*
X001844Y019839D01*
X001657Y019703D01*
X001521Y019516D01*
X001449Y019296D01*
X001440Y019180D01*
X001440Y017844D01*
X001842Y018246D01*
X002143Y018246D01*
X002143Y017406D01*
X002303Y017406D01*
X002303Y018246D01*
X002605Y018246D01*
X003144Y017707D01*
X003144Y017406D01*
X002303Y017406D01*
X002303Y017246D01*
X003144Y017246D01*
X003144Y016944D01*
X002605Y016405D01*
X002303Y016405D01*
X002303Y017246D01*
X002143Y017246D01*
X002143Y016405D01*
X001842Y016405D01*
X001440Y016807D01*
X001440Y012844D01*
X001842Y013246D01*
X002143Y013246D01*
X002143Y012406D01*
X002303Y012406D01*
X002303Y013246D01*
X002605Y013246D01*
X003144Y012707D01*
X003144Y012406D01*
X002303Y012406D01*
X002303Y012246D01*
X003144Y012246D01*
X003144Y011944D01*
X002605Y011405D01*
X002303Y011405D01*
X002303Y012246D01*
X002143Y012246D01*
X002143Y011405D01*
X001842Y011405D01*
X001440Y011807D01*
X001440Y007844D01*
X001842Y008246D01*
X002143Y008246D01*
X002143Y007406D01*
X002303Y007406D01*
X002303Y008246D01*
X002605Y008246D01*
X003144Y007707D01*
X003144Y007406D01*
X002303Y007406D01*
X002303Y007246D01*
X003144Y007246D01*
X003144Y006944D01*
X002605Y006405D01*
X002303Y006405D01*
X002303Y007246D01*
X002143Y007246D01*
X002143Y006405D01*
X001842Y006405D01*
X001440Y006807D01*
X001440Y002844D01*
X001842Y003246D01*
X002143Y003246D01*
X002143Y002406D01*
X002303Y002406D01*
X002303Y003246D01*
X002605Y003246D01*
X003144Y002707D01*
X003144Y002406D01*
X002303Y002406D01*
X002303Y002246D01*
X003144Y002246D01*
X003144Y001944D01*
X002605Y001405D01*
X002303Y001405D01*
X002303Y002246D01*
X002143Y002246D01*
X002143Y001405D01*
X001842Y001405D01*
X001440Y001807D01*
X001440Y001180D01*
X001448Y001084D01*
X001507Y000901D01*
X001484Y000973D02*
X040290Y000973D01*
X040290Y001131D02*
X001444Y001131D01*
X001440Y001290D02*
X006892Y001290D01*
X006733Y001448D02*
X005904Y001448D01*
X005802Y001346D02*
X006353Y001897D01*
X006353Y002676D01*
X005802Y003227D01*
X005023Y003227D01*
X004472Y002676D01*
X004472Y001897D01*
X005023Y001346D01*
X005802Y001346D01*
X006063Y001607D02*
X006700Y001607D01*
X006700Y001765D02*
X006221Y001765D01*
X006353Y001924D02*
X006745Y001924D01*
X006903Y002082D02*
X006353Y002082D01*
X006353Y002241D02*
X006941Y002241D01*
X006782Y002399D02*
X006353Y002399D01*
X006353Y002558D02*
X006700Y002558D01*
X006700Y002716D02*
X006313Y002716D01*
X006154Y002875D02*
X006700Y002875D01*
X006854Y003033D02*
X005996Y003033D01*
X005837Y003192D02*
X007360Y003192D01*
X007360Y003350D02*
X003633Y003350D01*
X003518Y003236D02*
X004069Y003786D01*
X004069Y004566D01*
X003518Y005117D01*
X002767Y005117D01*
X002890Y005239D01*
X002890Y005430D01*
X002890Y005621D01*
X002621Y005890D01*
X002430Y005890D01*
X002430Y005430D01*
X002890Y005430D01*
X002430Y005430D01*
X002430Y005430D01*
X002430Y005430D01*
X002430Y004970D01*
X002593Y004970D01*
X002188Y004566D01*
X002188Y003786D01*
X002739Y003236D01*
X003518Y003236D01*
X002976Y002875D02*
X004670Y002875D01*
X004829Y003033D02*
X002818Y003033D01*
X002659Y003192D02*
X004987Y003192D01*
X004512Y002716D02*
X003135Y002716D01*
X003144Y002558D02*
X004472Y002558D01*
X004472Y002399D02*
X002303Y002399D01*
X002303Y002241D02*
X002143Y002241D01*
X002143Y002082D02*
X002303Y002082D01*
X002303Y001924D02*
X002143Y001924D01*
X002143Y001765D02*
X002303Y001765D01*
X002303Y001607D02*
X002143Y001607D01*
X002143Y001448D02*
X002303Y001448D01*
X002647Y001448D02*
X004920Y001448D01*
X004762Y001607D02*
X002806Y001607D01*
X002964Y001765D02*
X004603Y001765D01*
X004472Y001924D02*
X003123Y001924D01*
X003144Y002082D02*
X004472Y002082D01*
X004472Y002241D02*
X003144Y002241D01*
X002303Y002558D02*
X002143Y002558D01*
X002143Y002716D02*
X002303Y002716D01*
X002303Y002875D02*
X002143Y002875D01*
X002143Y003033D02*
X002303Y003033D01*
X002303Y003192D02*
X002143Y003192D01*
X001787Y003192D02*
X001440Y003192D01*
X001440Y003350D02*
X002625Y003350D01*
X002466Y003509D02*
X001440Y003509D01*
X001440Y003667D02*
X002308Y003667D01*
X002188Y003826D02*
X001440Y003826D01*
X001440Y003984D02*
X002188Y003984D01*
X002188Y004143D02*
X001440Y004143D01*
X001440Y004301D02*
X002188Y004301D01*
X002188Y004460D02*
X001440Y004460D01*
X001440Y004618D02*
X002241Y004618D01*
X002399Y004777D02*
X001440Y004777D01*
X001440Y004935D02*
X002558Y004935D01*
X002430Y004970D02*
X002430Y005430D01*
X002430Y005430D01*
X002430Y005430D01*
X001970Y005430D01*
X001970Y005621D01*
X002239Y005890D01*
X002430Y005890D01*
X002430Y005430D01*
X001970Y005430D01*
X001970Y005239D01*
X002239Y004970D01*
X002430Y004970D01*
X002430Y005094D02*
X002430Y005094D01*
X002430Y005252D02*
X002430Y005252D01*
X002430Y005411D02*
X002430Y005411D01*
X002430Y005569D02*
X002430Y005569D01*
X002430Y005728D02*
X002430Y005728D01*
X002430Y005886D02*
X002430Y005886D01*
X002625Y005886D02*
X005207Y005886D01*
X005231Y005910D02*
X004950Y005629D01*
X004950Y005231D01*
X005231Y004950D01*
X005629Y004950D01*
X005910Y005231D01*
X005910Y005629D01*
X005629Y005910D01*
X005231Y005910D01*
X005049Y005728D02*
X002783Y005728D01*
X002890Y005569D02*
X004950Y005569D01*
X004950Y005411D02*
X002890Y005411D01*
X002890Y005252D02*
X004950Y005252D01*
X005088Y005094D02*
X003542Y005094D01*
X003700Y004935D02*
X005980Y004935D01*
X005980Y004777D02*
X003859Y004777D01*
X004017Y004618D02*
X005980Y004618D01*
X005980Y004460D02*
X004069Y004460D01*
X004069Y004301D02*
X006005Y004301D01*
X006070Y004143D02*
X004069Y004143D01*
X004069Y003984D02*
X006174Y003984D01*
X006332Y003826D02*
X004069Y003826D01*
X003950Y003667D02*
X007360Y003667D01*
X007360Y003509D02*
X003791Y003509D01*
X001629Y003033D02*
X001440Y003033D01*
X001440Y002875D02*
X001470Y002875D01*
X001440Y001765D02*
X001482Y001765D01*
X001440Y001607D02*
X001641Y001607D01*
X001799Y001448D02*
X001440Y001448D01*
X001570Y000814D02*
X040257Y000814D01*
X040136Y000656D02*
X001743Y000656D01*
X007468Y001290D02*
X009892Y001290D01*
X009981Y001200D02*
X009700Y001481D01*
X009700Y001879D01*
X009981Y002160D01*
X010379Y002160D01*
X010660Y001879D01*
X010660Y001481D01*
X010379Y001200D01*
X009981Y001200D01*
X010468Y001290D02*
X011892Y001290D01*
X011981Y001200D02*
X011700Y001481D01*
X011700Y001879D01*
X011981Y002160D01*
X012379Y002160D01*
X012450Y002089D01*
X012450Y002299D01*
X012371Y002220D01*
X012180Y002220D01*
X012180Y002680D01*
X012180Y002680D01*
X012180Y003140D01*
X012371Y003140D01*
X012640Y002871D01*
X012640Y002680D01*
X012180Y002680D01*
X012180Y002680D01*
X012180Y002680D01*
X011720Y002680D01*
X011720Y002871D01*
X011989Y003140D01*
X012180Y003140D01*
X012180Y002680D01*
X012640Y002680D01*
X012640Y002569D01*
X012731Y002660D01*
X013129Y002660D01*
X013410Y002379D01*
X013410Y001981D01*
X013129Y001700D01*
X012731Y001700D01*
X012660Y001771D01*
X012660Y001481D01*
X012379Y001200D01*
X011981Y001200D01*
X012468Y001290D02*
X040290Y001290D01*
X040290Y001448D02*
X012627Y001448D01*
X012660Y001607D02*
X040290Y001607D01*
X040290Y001765D02*
X017194Y001765D01*
X017129Y001700D02*
X017410Y001981D01*
X017410Y002379D01*
X017129Y002660D01*
X016731Y002660D01*
X016450Y002379D01*
X016450Y001981D01*
X016731Y001700D01*
X017129Y001700D01*
X017352Y001924D02*
X038941Y001924D01*
X039023Y001889D02*
X038732Y002010D01*
X038510Y002232D01*
X038389Y002523D01*
X038389Y002837D01*
X038510Y003128D01*
X038732Y003350D01*
X036260Y003350D01*
X036260Y003328D02*
X036260Y003488D01*
X037145Y003488D01*
X037135Y003571D01*
X037111Y003677D01*
X037075Y003779D01*
X037028Y003877D01*
X036970Y003969D01*
X036902Y004054D01*
X036826Y004131D01*
X036741Y004199D01*
X036649Y004256D01*
X036551Y004304D01*
X036448Y004339D01*
X036342Y004364D01*
X036260Y004373D01*
X036260Y003488D01*
X036100Y003488D01*
X036100Y003328D01*
X036260Y003328D01*
X036260Y002444D01*
X036342Y002453D01*
X036448Y002477D01*
X036551Y002513D01*
X036649Y002560D01*
X036741Y002618D01*
X036826Y002686D01*
X036902Y002763D01*
X036970Y002848D01*
X037028Y002940D01*
X037075Y003038D01*
X037111Y003140D01*
X037135Y003246D01*
X037145Y003328D01*
X036260Y003328D01*
X036260Y003192D02*
X036100Y003192D01*
X036100Y003328D02*
X036100Y002444D01*
X036018Y002453D01*
X035912Y002477D01*
X035809Y002513D01*
X035711Y002560D01*
X035619Y002618D01*
X035534Y002686D01*
X035458Y002763D01*
X035390Y002848D01*
X035332Y002940D01*
X035285Y003038D01*
X035249Y003140D01*
X035225Y003246D01*
X035215Y003328D01*
X036100Y003328D01*
X036100Y003350D02*
X028760Y003350D01*
X028760Y003328D02*
X028760Y003488D01*
X029645Y003488D01*
X029635Y003571D01*
X029611Y003677D01*
X029575Y003779D01*
X029528Y003877D01*
X029470Y003969D01*
X029402Y004054D01*
X029326Y004131D01*
X029241Y004199D01*
X029149Y004256D01*
X029051Y004304D01*
X028948Y004339D01*
X028842Y004364D01*
X028760Y004373D01*
X028760Y003488D01*
X028600Y003488D01*
X028600Y003328D01*
X028760Y003328D01*
X028760Y002444D01*
X028842Y002453D01*
X028948Y002477D01*
X029051Y002513D01*
X029149Y002560D01*
X029241Y002618D01*
X029326Y002686D01*
X029402Y002763D01*
X029470Y002848D01*
X029528Y002940D01*
X029575Y003038D01*
X029611Y003140D01*
X029635Y003246D01*
X029645Y003328D01*
X028760Y003328D01*
X028760Y003192D02*
X028600Y003192D01*
X028600Y003328D02*
X028600Y002444D01*
X028518Y002453D01*
X028412Y002477D01*
X028309Y002513D01*
X028211Y002560D01*
X028119Y002618D01*
X028034Y002686D01*
X027958Y002763D01*
X027890Y002848D01*
X027832Y002940D01*
X027785Y003038D01*
X027749Y003140D01*
X027725Y003246D01*
X027715Y003328D01*
X028600Y003328D01*
X028600Y003350D02*
X026148Y003350D01*
X026356Y003509D02*
X027718Y003509D01*
X027715Y003488D02*
X028600Y003488D01*
X028600Y004373D01*
X028518Y004364D01*
X028412Y004339D01*
X028309Y004304D01*
X028211Y004256D01*
X028119Y004199D01*
X028034Y004131D01*
X027958Y004054D01*
X027890Y003969D01*
X027832Y003877D01*
X027785Y003779D01*
X027749Y003677D01*
X027725Y003571D01*
X027715Y003488D01*
X027747Y003667D02*
X026564Y003667D01*
X026771Y003826D02*
X027807Y003826D01*
X027902Y003984D02*
X026979Y003984D01*
X027187Y004143D02*
X028049Y004143D01*
X028304Y004301D02*
X027395Y004301D01*
X027430Y004680D02*
X029430Y004680D01*
X030430Y005680D01*
X030695Y005411D02*
X032695Y005411D01*
X032647Y005252D02*
X030398Y005252D01*
X030239Y005094D02*
X032647Y005094D01*
X032701Y004935D02*
X030081Y004935D01*
X029922Y004777D02*
X032810Y004777D01*
X032858Y004618D02*
X029764Y004618D01*
X029605Y004460D02*
X032733Y004460D01*
X032677Y004301D02*
X029056Y004301D01*
X028760Y004301D02*
X028600Y004301D01*
X028600Y004143D02*
X028760Y004143D01*
X028760Y003984D02*
X028600Y003984D01*
X028600Y003826D02*
X028760Y003826D01*
X028760Y003667D02*
X028600Y003667D01*
X028600Y003509D02*
X028760Y003509D01*
X029458Y003984D02*
X032707Y003984D01*
X032669Y004143D02*
X029311Y004143D01*
X029553Y003826D02*
X032806Y003826D01*
X033042Y003667D02*
X029613Y003667D01*
X029642Y003509D02*
X035218Y003509D01*
X035215Y003488D02*
X036100Y003488D01*
X036100Y004373D01*
X036018Y004364D01*
X035912Y004339D01*
X035809Y004304D01*
X035711Y004256D01*
X035619Y004199D01*
X035534Y004131D01*
X035458Y004054D01*
X035390Y003969D01*
X035332Y003877D01*
X035285Y003779D01*
X035249Y003677D01*
X035225Y003571D01*
X035215Y003488D01*
X035247Y003667D02*
X033412Y003667D01*
X033246Y003667D02*
X033209Y003667D01*
X033209Y003826D02*
X033246Y003826D01*
X033246Y003984D02*
X033209Y003984D01*
X033209Y004143D02*
X033246Y004143D01*
X033747Y003984D02*
X035402Y003984D01*
X035307Y003826D02*
X033649Y003826D01*
X033786Y004143D02*
X035549Y004143D01*
X035804Y004301D02*
X033778Y004301D01*
X033721Y004460D02*
X040290Y004460D01*
X040290Y004618D02*
X033597Y004618D01*
X033644Y004777D02*
X040290Y004777D01*
X040290Y004935D02*
X033754Y004935D01*
X033807Y005094D02*
X040290Y005094D01*
X040290Y005252D02*
X033807Y005252D01*
X033760Y005411D02*
X034440Y005411D01*
X034282Y005569D02*
X033658Y005569D01*
X033611Y005728D02*
X034123Y005728D01*
X034666Y006203D02*
X035567Y006203D01*
X035534Y006229D02*
X035619Y006161D01*
X035711Y006104D01*
X035809Y006056D01*
X035856Y006040D01*
X034829Y006040D01*
X034485Y006384D01*
X034384Y006485D01*
X034252Y006540D01*
X033672Y006540D01*
X033556Y006656D01*
X033343Y006744D01*
X033156Y006744D01*
X033090Y006810D01*
X032958Y006865D01*
X030033Y006865D01*
X030015Y006870D01*
X029962Y006865D01*
X029908Y006865D01*
X029891Y006858D01*
X029873Y006856D01*
X029826Y006831D01*
X029776Y006810D01*
X029763Y006797D01*
X029747Y006788D01*
X029713Y006747D01*
X029675Y006709D01*
X029668Y006692D01*
X029573Y006576D01*
X029575Y006581D01*
X029611Y006683D01*
X029635Y006789D01*
X029645Y006872D01*
X028760Y006872D01*
X028760Y007032D01*
X028600Y007032D01*
X028600Y007910D01*
X028660Y008055D01*
X028660Y008805D01*
X028587Y008982D01*
X028452Y009117D01*
X028275Y009190D01*
X028085Y009190D01*
X027908Y009117D01*
X027773Y008982D01*
X027700Y008805D01*
X027700Y008790D01*
X027660Y008790D01*
X027660Y008805D01*
X027587Y008982D01*
X027452Y009117D01*
X027275Y009190D01*
X027085Y009190D01*
X026908Y009117D01*
X026773Y008982D01*
X026700Y008805D01*
X026700Y008055D01*
X026773Y007878D01*
X026820Y007831D01*
X026820Y007829D01*
X026651Y007660D01*
X026456Y007660D01*
X026175Y007379D01*
X026175Y007128D01*
X025792Y006744D01*
X025612Y006744D01*
X025399Y006656D01*
X025283Y006540D01*
X022358Y006540D01*
X022226Y006485D01*
X022125Y006384D01*
X021781Y006040D01*
X021504Y006040D01*
X021551Y006056D01*
X021649Y006104D01*
X021741Y006161D01*
X021826Y006229D01*
X021902Y006306D01*
X021970Y006391D01*
X022028Y006483D01*
X022075Y006581D01*
X022111Y006683D01*
X022135Y006789D01*
X022145Y006872D01*
X021260Y006872D01*
X021260Y007032D01*
X022145Y007032D01*
X022135Y007114D01*
X022127Y007150D01*
X023486Y007150D01*
X023589Y007193D01*
X023796Y007400D01*
X024224Y007400D01*
X024195Y007371D01*
X024195Y007180D01*
X024655Y007180D01*
X025115Y007180D01*
X025115Y007371D01*
X025086Y007400D01*
X025736Y007400D01*
X025839Y007443D01*
X026071Y007675D01*
X026085Y007670D01*
X026275Y007670D01*
X026452Y007743D01*
X026587Y007878D01*
X026660Y008055D01*
X026660Y008805D01*
X026587Y008982D01*
X026452Y009117D01*
X026275Y009190D01*
X026085Y009190D01*
X025908Y009117D01*
X025773Y008982D01*
X025700Y008805D01*
X025700Y008096D01*
X025660Y008056D01*
X025660Y008805D01*
X025587Y008982D01*
X025460Y009109D01*
X025460Y009736D01*
X025417Y009839D01*
X025106Y010150D01*
X029986Y010150D01*
X030089Y010193D01*
X030167Y010271D01*
X030417Y010521D01*
X030460Y010624D01*
X030460Y010751D01*
X030587Y010878D01*
X030660Y011055D01*
X030660Y011805D01*
X030621Y011900D01*
X030739Y011900D01*
X030700Y011805D01*
X030700Y011055D01*
X030773Y010878D01*
X030908Y010743D01*
X031085Y010670D01*
X031275Y010670D01*
X031452Y010743D01*
X031587Y010878D01*
X031660Y011055D01*
X031660Y011805D01*
X031587Y011982D01*
X031452Y012117D01*
X031372Y012150D01*
X031564Y012150D01*
X031761Y011953D01*
X031700Y011805D01*
X031700Y011055D01*
X031773Y010878D01*
X031908Y010743D01*
X032085Y010670D01*
X032275Y010670D01*
X032400Y010722D01*
X032400Y010046D01*
X031943Y009589D01*
X031900Y009486D01*
X031900Y009109D01*
X031773Y008982D01*
X031700Y008805D01*
X031700Y008055D01*
X031773Y007878D01*
X031908Y007743D01*
X032085Y007670D01*
X032275Y007670D01*
X032452Y007743D01*
X032587Y007878D01*
X032660Y008055D01*
X032660Y008805D01*
X032587Y008982D01*
X032460Y009109D01*
X032460Y009314D01*
X032839Y009693D01*
X032917Y009771D01*
X032960Y009874D01*
X032960Y010722D01*
X033085Y010670D01*
X033275Y010670D01*
X033452Y010743D01*
X033587Y010878D01*
X033660Y011055D01*
X033660Y011805D01*
X033587Y011982D01*
X033452Y012117D01*
X033275Y012190D01*
X033085Y012190D01*
X032960Y012138D01*
X032960Y012236D01*
X032917Y012339D01*
X031960Y013296D01*
X031960Y014736D01*
X031917Y014839D01*
X031839Y014917D01*
X031417Y015339D01*
X031339Y015417D01*
X031236Y015460D01*
X029719Y015460D01*
X030079Y015820D01*
X032751Y015820D01*
X032899Y015673D01*
X032900Y015672D01*
X032899Y015672D01*
X032736Y015509D01*
X032647Y015295D01*
X032647Y015065D01*
X032736Y014851D01*
X032899Y014688D01*
X032933Y014674D01*
X032862Y014623D01*
X032800Y014561D01*
X032748Y014489D01*
X032708Y014411D01*
X032681Y014327D01*
X032667Y014240D01*
X032667Y014214D01*
X033209Y014214D01*
X033209Y014177D01*
X033246Y014177D01*
X033246Y014214D01*
X033787Y014214D01*
X033787Y014240D01*
X033773Y014327D01*
X033746Y014411D01*
X033706Y014489D01*
X033654Y014561D01*
X033592Y014623D01*
X033522Y014674D01*
X033556Y014688D01*
X033719Y014851D01*
X033739Y014900D01*
X034064Y014900D01*
X034400Y014564D01*
X034400Y012138D01*
X034275Y012190D01*
X034085Y012190D01*
X033908Y012117D01*
X033773Y011982D01*
X033700Y011805D01*
X033700Y011055D01*
X033773Y010878D01*
X033908Y010743D01*
X034085Y010670D01*
X034275Y010670D01*
X034400Y010722D01*
X034400Y010296D01*
X033943Y009839D01*
X033900Y009736D01*
X033900Y009109D01*
X033773Y008982D01*
X033700Y008805D01*
X033700Y008055D01*
X033773Y007878D01*
X033908Y007743D01*
X034085Y007670D01*
X034275Y007670D01*
X034452Y007743D01*
X034587Y007878D01*
X034660Y008055D01*
X034660Y008805D01*
X034587Y008982D01*
X034460Y009109D01*
X034460Y009564D01*
X034839Y009943D01*
X034917Y010021D01*
X034960Y010124D01*
X034960Y010722D01*
X035085Y010670D01*
X035275Y010670D01*
X035452Y010743D01*
X035587Y010878D01*
X035660Y011055D01*
X035660Y011805D01*
X035587Y011982D01*
X035452Y012117D01*
X035275Y012190D01*
X035085Y012190D01*
X034960Y012138D01*
X034960Y014736D01*
X034917Y014839D01*
X034417Y015339D01*
X034339Y015417D01*
X034236Y015460D01*
X033739Y015460D01*
X033719Y015509D01*
X033556Y015672D01*
X033555Y015672D01*
X033556Y015673D01*
X033687Y015804D01*
X034797Y015804D01*
X035125Y015476D01*
X035226Y015375D01*
X035358Y015320D01*
X037031Y015320D01*
X037820Y014531D01*
X037820Y009329D01*
X037281Y008790D01*
X036749Y008790D01*
X036629Y008910D01*
X036231Y008910D01*
X035950Y008629D01*
X035950Y008231D01*
X036231Y007950D01*
X036629Y007950D01*
X036749Y008070D01*
X037281Y008070D01*
X037820Y007531D01*
X037820Y007329D01*
X037077Y006586D01*
X037111Y006683D01*
X037135Y006789D01*
X037145Y006872D01*
X036260Y006872D01*
X036260Y007032D01*
X036100Y007032D01*
X036100Y007916D01*
X036018Y007907D01*
X035912Y007883D01*
X035809Y007847D01*
X035711Y007800D01*
X035619Y007742D01*
X035534Y007674D01*
X035458Y007597D01*
X035390Y007512D01*
X035332Y007420D01*
X035285Y007322D01*
X035249Y007220D01*
X035225Y007114D01*
X035215Y007032D01*
X036100Y007032D01*
X036100Y006872D01*
X035215Y006872D01*
X035225Y006789D01*
X035249Y006683D01*
X035285Y006581D01*
X035332Y006483D01*
X035390Y006391D01*
X035458Y006306D01*
X035534Y006229D01*
X035413Y006362D02*
X034508Y006362D01*
X034300Y006520D02*
X035314Y006520D01*
X035251Y006679D02*
X033501Y006679D01*
X033026Y006837D02*
X035219Y006837D01*
X035234Y007154D02*
X029626Y007154D01*
X029635Y007114D02*
X029611Y007220D01*
X029575Y007322D01*
X029528Y007420D01*
X029470Y007512D01*
X029402Y007597D01*
X029326Y007674D01*
X029290Y007702D01*
X029357Y007724D01*
X029421Y007757D01*
X029480Y007799D01*
X029531Y007850D01*
X029573Y007909D01*
X029606Y007973D01*
X029629Y008042D01*
X029640Y008114D01*
X029640Y008430D01*
X029640Y008746D01*
X029629Y008818D01*
X029606Y008887D01*
X029573Y008951D01*
X029531Y009010D01*
X029480Y009061D01*
X029421Y009103D01*
X029357Y009136D01*
X029288Y009159D01*
X029216Y009170D01*
X029180Y009170D01*
X029180Y008430D01*
X029180Y008430D01*
X029640Y008430D01*
X029180Y008430D01*
X029180Y008430D01*
X029180Y008430D01*
X028720Y008430D01*
X028720Y008746D01*
X028731Y008818D01*
X028754Y008887D01*
X028787Y008951D01*
X028829Y009010D01*
X028880Y009061D01*
X028939Y009103D01*
X029003Y009136D01*
X029072Y009159D01*
X029144Y009170D01*
X029180Y009170D01*
X029180Y008430D01*
X028720Y008430D01*
X028720Y008114D01*
X028731Y008042D01*
X028754Y007973D01*
X028784Y007913D01*
X028760Y007916D01*
X028760Y007032D01*
X029645Y007032D01*
X029635Y007114D01*
X029579Y007313D02*
X035281Y007313D01*
X035364Y007471D02*
X029496Y007471D01*
X029370Y007630D02*
X035490Y007630D01*
X035452Y007743D02*
X035275Y007670D01*
X035085Y007670D01*
X034908Y007743D01*
X034773Y007878D01*
X034700Y008055D01*
X034700Y008805D01*
X034773Y008982D01*
X034908Y009117D01*
X035085Y009190D01*
X035275Y009190D01*
X035452Y009117D01*
X035587Y008982D01*
X035660Y008805D01*
X035660Y008055D01*
X035587Y007878D01*
X035452Y007743D01*
X035497Y007788D02*
X035693Y007788D01*
X035615Y007947D02*
X037404Y007947D01*
X037563Y007788D02*
X036667Y007788D01*
X036649Y007800D02*
X036551Y007847D01*
X036448Y007883D01*
X036342Y007907D01*
X036260Y007916D01*
X036260Y007032D01*
X037145Y007032D01*
X037135Y007114D01*
X037111Y007220D01*
X037075Y007322D01*
X037028Y007420D01*
X036970Y007512D01*
X036902Y007597D01*
X036826Y007674D01*
X036741Y007742D01*
X036649Y007800D01*
X036870Y007630D02*
X037721Y007630D01*
X037820Y007471D02*
X036996Y007471D01*
X037079Y007313D02*
X037803Y007313D01*
X037645Y007154D02*
X037126Y007154D01*
X037486Y006996D02*
X036260Y006996D01*
X036260Y007154D02*
X036100Y007154D01*
X036100Y006996D02*
X028760Y006996D01*
X028760Y007154D02*
X028600Y007154D01*
X028600Y007032D02*
X028600Y006872D01*
X027715Y006872D01*
X027725Y006789D01*
X027749Y006683D01*
X027785Y006581D01*
X027832Y006483D01*
X027890Y006391D01*
X027958Y006306D01*
X028034Y006229D01*
X028119Y006161D01*
X028211Y006104D01*
X028309Y006056D01*
X028356Y006040D01*
X028079Y006040D01*
X027650Y006469D01*
X027517Y006524D01*
X026477Y006524D01*
X026653Y006700D01*
X026854Y006700D01*
X027135Y006981D01*
X027135Y007126D01*
X027384Y007375D01*
X027485Y007476D01*
X027540Y007608D01*
X027540Y007831D01*
X027587Y007878D01*
X027660Y008055D01*
X027660Y008070D01*
X027700Y008070D01*
X027700Y008055D01*
X027773Y007878D01*
X027908Y007743D01*
X028048Y007685D01*
X028034Y007674D01*
X027958Y007597D01*
X027890Y007512D01*
X027832Y007420D01*
X027785Y007322D01*
X027749Y007220D01*
X027725Y007114D01*
X027715Y007032D01*
X028600Y007032D01*
X028600Y006996D02*
X027135Y006996D01*
X027163Y007154D02*
X027734Y007154D01*
X027781Y007313D02*
X027322Y007313D01*
X027384Y007375D02*
X027384Y007375D01*
X027480Y007471D02*
X027864Y007471D01*
X027990Y007630D02*
X027540Y007630D01*
X027540Y007788D02*
X027863Y007788D01*
X027745Y007947D02*
X027615Y007947D01*
X026779Y007788D02*
X026497Y007788D01*
X026426Y007630D02*
X026025Y007630D01*
X025867Y007471D02*
X026267Y007471D01*
X026175Y007313D02*
X025115Y007313D01*
X025115Y007180D02*
X024655Y007180D01*
X024655Y007180D01*
X024655Y006720D01*
X024846Y006720D01*
X025115Y006989D01*
X025115Y007180D01*
X025115Y007154D02*
X026175Y007154D01*
X026043Y006996D02*
X025115Y006996D01*
X024963Y006837D02*
X025884Y006837D01*
X025453Y006679D02*
X022109Y006679D01*
X022141Y006837D02*
X024347Y006837D01*
X024464Y006720D02*
X024655Y006720D01*
X024655Y007180D01*
X024655Y007180D01*
X024655Y007180D01*
X024195Y007180D01*
X024195Y006989D01*
X024464Y006720D01*
X024655Y006837D02*
X024655Y006837D01*
X024655Y006996D02*
X024655Y006996D01*
X024655Y007154D02*
X024655Y007154D01*
X024195Y007154D02*
X023495Y007154D01*
X023708Y007313D02*
X024195Y007313D01*
X024195Y006996D02*
X021260Y006996D01*
X021260Y007154D02*
X021100Y007154D01*
X021100Y006996D02*
X017815Y006996D01*
X017865Y006837D02*
X020219Y006837D01*
X020251Y006679D02*
X018501Y006679D01*
X017953Y006679D02*
X017865Y006679D01*
X017681Y006362D02*
X017662Y006362D01*
X017647Y006203D02*
X015382Y006203D01*
X015379Y006200D02*
X015660Y006481D01*
X015660Y006879D01*
X015379Y007160D01*
X014981Y007160D01*
X014700Y006879D01*
X014700Y006481D01*
X014981Y006200D01*
X015379Y006200D01*
X015540Y006362D02*
X017148Y006362D01*
X017214Y006295D02*
X017405Y006295D01*
X017405Y006755D01*
X016945Y006755D01*
X016945Y006564D01*
X017214Y006295D01*
X017405Y006362D02*
X017405Y006362D01*
X017405Y006520D02*
X017405Y006520D01*
X017405Y006679D02*
X017405Y006679D01*
X017405Y006837D02*
X017405Y006837D01*
X017405Y006996D02*
X017405Y006996D01*
X017405Y007154D02*
X017405Y007154D01*
X017657Y007154D02*
X020234Y007154D01*
X020281Y007313D02*
X013241Y007313D01*
X013129Y007200D02*
X013410Y007481D01*
X013410Y007771D01*
X013481Y007700D01*
X013879Y007700D01*
X014160Y007981D01*
X014160Y008379D01*
X013879Y008660D01*
X013481Y008660D01*
X013200Y008379D01*
X013200Y008089D01*
X013129Y008160D01*
X012731Y008160D01*
X012640Y008069D01*
X012640Y008180D01*
X012640Y008371D01*
X012371Y008640D01*
X012180Y008640D01*
X012180Y008180D01*
X012180Y008180D01*
X012640Y008180D01*
X012180Y008180D01*
X012180Y008180D01*
X012180Y008180D01*
X011720Y008180D01*
X011720Y008371D01*
X011989Y008640D01*
X012180Y008640D01*
X012180Y008180D01*
X012180Y007720D01*
X012371Y007720D01*
X012450Y007799D01*
X012450Y007589D01*
X012379Y007660D01*
X011981Y007660D01*
X011700Y007379D01*
X011700Y006981D01*
X011981Y006700D01*
X012379Y006700D01*
X012660Y006981D01*
X012660Y007271D01*
X012731Y007200D01*
X013129Y007200D01*
X013400Y007471D02*
X020364Y007471D01*
X020490Y007630D02*
X013410Y007630D01*
X013967Y007788D02*
X016393Y007788D01*
X016481Y007700D02*
X016879Y007700D01*
X017160Y007981D01*
X017160Y008379D01*
X016879Y008660D01*
X016481Y008660D01*
X016200Y008379D01*
X016200Y007981D01*
X016481Y007700D01*
X016235Y007947D02*
X014125Y007947D01*
X014160Y008105D02*
X016200Y008105D01*
X016200Y008264D02*
X014160Y008264D01*
X014117Y008422D02*
X016243Y008422D01*
X016402Y008581D02*
X013958Y008581D01*
X013935Y008739D02*
X015218Y008739D01*
X014960Y008898D02*
X014219Y008898D01*
X014228Y008905D02*
X014305Y008982D01*
X014372Y009068D01*
X014426Y009162D01*
X014468Y009263D01*
X014496Y009368D01*
X014510Y009476D01*
X014510Y010100D01*
X013760Y010100D01*
X013760Y010260D01*
X013600Y010260D01*
X013600Y011657D01*
X013518Y011646D01*
X013413Y011618D01*
X013312Y011576D01*
X013218Y011522D01*
X013132Y011455D01*
X013055Y011378D01*
X012988Y011292D01*
X012934Y011198D01*
X012892Y011097D01*
X012864Y010992D01*
X012850Y010884D01*
X012850Y010260D01*
X013600Y010260D01*
X013600Y010100D01*
X012850Y010100D01*
X012850Y009476D01*
X012864Y009368D01*
X012892Y009263D01*
X012934Y009162D01*
X012988Y009068D01*
X013055Y008982D01*
X013132Y008905D01*
X013218Y008838D01*
X013312Y008784D01*
X013413Y008742D01*
X013518Y008714D01*
X013600Y008703D01*
X013600Y010100D01*
X013760Y010100D01*
X013760Y008703D01*
X013842Y008714D01*
X013947Y008742D01*
X014048Y008784D01*
X014142Y008838D01*
X014228Y008905D01*
X014362Y009056D02*
X014806Y009056D01*
X014741Y009215D02*
X014448Y009215D01*
X014496Y009373D02*
X014680Y009373D01*
X014680Y009532D02*
X014510Y009532D01*
X014510Y009690D02*
X014680Y009690D01*
X014680Y009849D02*
X014510Y009849D01*
X014510Y010007D02*
X014680Y010007D01*
X014680Y010166D02*
X013760Y010166D01*
X013760Y010260D02*
X014510Y010260D01*
X014510Y010884D01*
X014496Y010992D01*
X014468Y011097D01*
X014426Y011198D01*
X014372Y011292D01*
X014305Y011378D01*
X014228Y011455D01*
X014142Y011522D01*
X014048Y011576D01*
X013947Y011618D01*
X013842Y011646D01*
X013760Y011657D01*
X013760Y010260D01*
X013760Y010324D02*
X013600Y010324D01*
X013600Y010166D02*
X012680Y010166D01*
X012680Y010324D02*
X012850Y010324D01*
X012850Y010483D02*
X012680Y010483D01*
X012680Y010641D02*
X012850Y010641D01*
X012850Y010800D02*
X012680Y010800D01*
X012680Y010958D02*
X012860Y010958D01*
X012900Y011117D02*
X012631Y011117D01*
X012680Y010999D02*
X012551Y011311D01*
X012311Y011551D01*
X011999Y011680D01*
X011661Y011680D01*
X011349Y011551D01*
X011109Y011311D01*
X010980Y010999D01*
X010980Y010559D01*
X010879Y010660D01*
X010481Y010660D01*
X010200Y010379D01*
X010200Y009981D01*
X010481Y009700D01*
X010879Y009700D01*
X010980Y009801D01*
X010980Y009361D01*
X011109Y009049D01*
X011349Y008809D01*
X011661Y008680D01*
X011999Y008680D01*
X012311Y008809D01*
X012551Y009049D01*
X012680Y009361D01*
X012680Y010999D01*
X012566Y011275D02*
X012979Y011275D01*
X013110Y011434D02*
X012429Y011434D01*
X012430Y011670D02*
X012239Y011670D01*
X011970Y011939D01*
X011970Y012130D01*
X012430Y012130D01*
X012430Y012130D01*
X012430Y012590D01*
X012621Y012590D01*
X012890Y012321D01*
X012890Y012130D01*
X012430Y012130D01*
X012430Y012130D01*
X012430Y012590D01*
X012239Y012590D01*
X012160Y012511D01*
X012160Y012721D01*
X012231Y012650D01*
X012629Y012650D01*
X012910Y012931D01*
X012910Y013329D01*
X012629Y013610D01*
X012231Y013610D01*
X011950Y013329D01*
X011950Y013039D01*
X011879Y013110D01*
X011596Y013110D01*
X011367Y013339D01*
X011289Y013417D01*
X011186Y013460D01*
X010579Y013460D01*
X010379Y013660D01*
X009981Y013660D01*
X009700Y013379D01*
X009700Y012981D01*
X009981Y012700D01*
X010379Y012700D01*
X010579Y012900D01*
X011014Y012900D01*
X011200Y012714D01*
X011200Y012431D01*
X011481Y012150D01*
X011879Y012150D01*
X011970Y012241D01*
X011970Y012130D01*
X012430Y012130D01*
X012890Y012130D01*
X012890Y011939D01*
X012621Y011670D01*
X012430Y011670D01*
X012430Y012130D01*
X012430Y012130D01*
X012430Y012130D01*
X012430Y011670D01*
X012430Y011751D02*
X012430Y011751D01*
X012430Y011909D02*
X012430Y011909D01*
X012430Y012068D02*
X012430Y012068D01*
X012430Y012226D02*
X012430Y012226D01*
X012430Y012385D02*
X012430Y012385D01*
X012430Y012543D02*
X012430Y012543D01*
X012668Y012543D02*
X013434Y012543D01*
X013400Y012702D02*
X012680Y012702D01*
X012839Y012860D02*
X013400Y012860D01*
X013400Y013019D02*
X012910Y013019D01*
X012910Y013177D02*
X013400Y013177D01*
X013400Y013336D02*
X012903Y013336D01*
X012745Y013494D02*
X013400Y013494D01*
X013400Y013653D02*
X010386Y013653D01*
X010361Y013680D02*
X010699Y013680D01*
X011011Y013809D01*
X011251Y014049D01*
X011380Y014361D01*
X011380Y015999D01*
X011251Y016311D01*
X011011Y016551D01*
X010699Y016680D01*
X010361Y016680D01*
X010049Y016551D01*
X009809Y016311D01*
X009680Y015999D01*
X009680Y014361D01*
X009809Y014049D01*
X010049Y013809D01*
X010361Y013680D01*
X010545Y013494D02*
X012115Y013494D01*
X011957Y013336D02*
X011370Y013336D01*
X011529Y013177D02*
X011950Y013177D01*
X012160Y012702D02*
X012180Y012702D01*
X012192Y012543D02*
X012160Y012543D01*
X011970Y012226D02*
X011955Y012226D01*
X011970Y012068D02*
X010014Y012068D01*
X010014Y012226D02*
X011405Y012226D01*
X011247Y012385D02*
X009932Y012385D01*
X010014Y012302D02*
X009463Y012853D01*
X008684Y012853D01*
X008320Y012489D01*
X007660Y013112D01*
X007660Y013379D01*
X007379Y013660D01*
X006981Y013660D01*
X006700Y013379D01*
X006700Y012981D01*
X006981Y012700D01*
X007281Y012700D01*
X008133Y011895D01*
X008133Y011523D01*
X008684Y010972D01*
X009463Y010972D01*
X010014Y011523D01*
X010014Y012302D01*
X009773Y012543D02*
X011200Y012543D01*
X011200Y012702D02*
X010380Y012702D01*
X010539Y012860D02*
X011054Y012860D01*
X011130Y013180D02*
X010180Y013180D01*
X009821Y012860D02*
X007927Y012860D01*
X008095Y012702D02*
X008533Y012702D01*
X008374Y012543D02*
X008263Y012543D01*
X007783Y012226D02*
X006353Y012226D01*
X006353Y012068D02*
X007950Y012068D01*
X008118Y011909D02*
X006353Y011909D01*
X006207Y011751D02*
X008133Y011751D01*
X008133Y011592D02*
X006048Y011592D01*
X005890Y011434D02*
X008222Y011434D01*
X008381Y011275D02*
X004500Y011275D01*
X004500Y011117D02*
X008539Y011117D01*
X009608Y011117D02*
X011029Y011117D01*
X010980Y010958D02*
X004500Y010958D01*
X004513Y010800D02*
X005121Y010800D01*
X004962Y010641D02*
X004672Y010641D01*
X004830Y010483D02*
X004950Y010483D01*
X004400Y010007D02*
X003628Y010007D01*
X003518Y010117D02*
X002767Y010117D01*
X002890Y010239D01*
X002890Y010430D01*
X002890Y010621D01*
X002621Y010890D01*
X002430Y010890D01*
X002430Y010430D01*
X002890Y010430D01*
X002430Y010430D01*
X002430Y010430D01*
X002430Y010430D01*
X002430Y009970D01*
X002593Y009970D01*
X002188Y009566D01*
X002188Y008786D01*
X002739Y008236D01*
X003518Y008236D01*
X004069Y008786D01*
X004069Y009566D01*
X003518Y010117D01*
X003787Y009849D02*
X004559Y009849D01*
X004717Y009690D02*
X003945Y009690D01*
X004069Y009532D02*
X004876Y009532D01*
X005034Y009373D02*
X004069Y009373D01*
X004069Y009215D02*
X005193Y009215D01*
X005351Y009056D02*
X004069Y009056D01*
X004069Y008898D02*
X005510Y008898D01*
X005668Y008739D02*
X004022Y008739D01*
X003863Y008581D02*
X005827Y008581D01*
X005985Y008422D02*
X003705Y008422D01*
X003546Y008264D02*
X006144Y008264D01*
X006302Y008105D02*
X005924Y008105D01*
X005802Y008227D02*
X005023Y008227D01*
X004472Y007676D01*
X004472Y006897D01*
X005023Y006346D01*
X005802Y006346D01*
X006353Y006897D01*
X006353Y007676D01*
X005802Y008227D01*
X006082Y007947D02*
X006461Y007947D01*
X006610Y007788D02*
X006241Y007788D01*
X006353Y007630D02*
X006610Y007630D01*
X006542Y007471D02*
X006353Y007471D01*
X006353Y007313D02*
X006450Y007313D01*
X006450Y007154D02*
X006353Y007154D01*
X006353Y006996D02*
X006450Y006996D01*
X006594Y006837D02*
X006293Y006837D01*
X006135Y006679D02*
X006657Y006679D01*
X007003Y006679D02*
X007105Y006679D01*
X007784Y006996D02*
X009450Y006996D01*
X009450Y006981D02*
X009731Y006700D01*
X010129Y006700D01*
X010305Y006876D01*
X010481Y006700D01*
X010879Y006700D01*
X011160Y006981D01*
X011160Y007379D01*
X010879Y007660D01*
X010481Y007660D01*
X010305Y007484D01*
X010129Y007660D01*
X009731Y007660D01*
X009450Y007379D01*
X009450Y006981D01*
X009450Y007154D02*
X007546Y007154D01*
X007410Y007313D02*
X009450Y007313D01*
X009542Y007471D02*
X007318Y007471D01*
X007250Y007630D02*
X009701Y007630D01*
X009416Y007803D02*
X009114Y007803D01*
X009114Y008643D01*
X008954Y008643D01*
X008114Y008643D01*
X008114Y008342D01*
X008653Y007803D01*
X008954Y007803D01*
X008954Y008643D01*
X008954Y008803D01*
X008114Y008803D01*
X008114Y009105D01*
X008653Y009644D01*
X008954Y009644D01*
X008954Y008803D01*
X009114Y008803D01*
X009114Y009644D01*
X009416Y009644D01*
X009955Y009105D01*
X009955Y008803D01*
X009114Y008803D01*
X009114Y008643D01*
X009955Y008643D01*
X009955Y008342D01*
X009416Y007803D01*
X009559Y007947D02*
X011763Y007947D01*
X011720Y007989D02*
X011989Y007720D01*
X012180Y007720D01*
X012180Y008180D01*
X012180Y008180D01*
X011720Y008180D01*
X011720Y007989D01*
X011720Y008105D02*
X009718Y008105D01*
X009876Y008264D02*
X011720Y008264D01*
X011771Y008422D02*
X009955Y008422D01*
X009955Y008581D02*
X011930Y008581D01*
X012180Y008581D02*
X012180Y008581D01*
X012180Y008422D02*
X012180Y008422D01*
X012180Y008264D02*
X012180Y008264D01*
X012180Y008105D02*
X012180Y008105D01*
X012180Y007947D02*
X012180Y007947D01*
X012180Y007788D02*
X012180Y007788D01*
X012439Y007788D02*
X012450Y007788D01*
X012450Y007630D02*
X012409Y007630D01*
X011951Y007630D02*
X010909Y007630D01*
X011068Y007471D02*
X011792Y007471D01*
X011700Y007313D02*
X011160Y007313D01*
X011160Y007154D02*
X011700Y007154D01*
X011700Y006996D02*
X011160Y006996D01*
X011016Y006837D02*
X011844Y006837D01*
X011042Y006520D02*
X014700Y006520D01*
X014700Y006679D02*
X010703Y006679D01*
X010699Y006680D02*
X010361Y006680D01*
X010049Y006551D01*
X009809Y006311D01*
X009680Y005999D01*
X009680Y004361D01*
X009809Y004049D01*
X010049Y003809D01*
X010361Y003680D01*
X010699Y003680D01*
X011011Y003809D01*
X011251Y004049D01*
X011380Y004361D01*
X011380Y005999D01*
X011251Y006311D01*
X011011Y006551D01*
X010699Y006680D01*
X010357Y006679D02*
X008006Y006679D01*
X008000Y006520D02*
X008216Y006520D01*
X008042Y006362D02*
X008000Y006362D01*
X007961Y006837D02*
X009594Y006837D01*
X010018Y006520D02*
X009144Y006520D01*
X009318Y006362D02*
X009859Y006362D01*
X009764Y006203D02*
X009423Y006203D01*
X009482Y006045D02*
X009699Y006045D01*
X009680Y005886D02*
X009510Y005886D01*
X009510Y005728D02*
X009680Y005728D01*
X009680Y005569D02*
X009510Y005569D01*
X009510Y005411D02*
X009680Y005411D01*
X009680Y005252D02*
X008760Y005252D01*
X008760Y005094D02*
X008600Y005094D01*
X008600Y004935D02*
X008760Y004935D01*
X008760Y004777D02*
X008600Y004777D01*
X008600Y004618D02*
X008760Y004618D01*
X008760Y004460D02*
X008600Y004460D01*
X008600Y004301D02*
X008760Y004301D01*
X008760Y004143D02*
X008600Y004143D01*
X008600Y003984D02*
X008760Y003984D01*
X008760Y003826D02*
X008600Y003826D01*
X008240Y003826D02*
X008000Y003826D01*
X008000Y003984D02*
X008053Y003984D01*
X008000Y003667D02*
X014720Y003667D01*
X014720Y003680D02*
X014720Y003489D01*
X014989Y003220D01*
X015180Y003220D01*
X015371Y003220D01*
X015640Y003489D01*
X015640Y003680D01*
X015640Y003871D01*
X015371Y004140D01*
X015180Y004140D01*
X015180Y003680D01*
X015180Y003680D01*
X015640Y003680D01*
X015180Y003680D01*
X015180Y003680D01*
X015180Y003680D01*
X014720Y003680D01*
X014720Y003871D01*
X014989Y004140D01*
X015180Y004140D01*
X015180Y003680D01*
X015180Y003220D01*
X015180Y003680D01*
X015180Y003680D01*
X014720Y003680D01*
X014720Y003826D02*
X011028Y003826D01*
X011186Y003984D02*
X014833Y003984D01*
X015180Y003984D02*
X015180Y003984D01*
X015180Y003826D02*
X015180Y003826D01*
X015180Y003667D02*
X015180Y003667D01*
X015180Y003509D02*
X015180Y003509D01*
X015180Y003350D02*
X015180Y003350D01*
X015501Y003350D02*
X021100Y003350D01*
X021100Y003328D02*
X020215Y003328D01*
X020225Y003246D01*
X020249Y003140D01*
X020285Y003038D01*
X020332Y002940D01*
X020390Y002848D01*
X020458Y002763D01*
X020534Y002686D01*
X020619Y002618D01*
X020711Y002560D01*
X020809Y002513D01*
X020912Y002477D01*
X021018Y002453D01*
X021100Y002444D01*
X021100Y003328D01*
X021260Y003328D01*
X021260Y002444D01*
X021342Y002453D01*
X021448Y002477D01*
X021551Y002513D01*
X021649Y002560D01*
X021741Y002618D01*
X021826Y002686D01*
X021902Y002763D01*
X021970Y002848D01*
X022028Y002940D01*
X022075Y003038D01*
X022111Y003140D01*
X022135Y003246D01*
X022145Y003328D01*
X021260Y003328D01*
X021260Y003488D01*
X022145Y003488D01*
X022135Y003571D01*
X022111Y003677D01*
X022075Y003779D01*
X022028Y003877D01*
X021970Y003969D01*
X021902Y004054D01*
X021826Y004131D01*
X021741Y004199D01*
X021649Y004256D01*
X021551Y004304D01*
X021448Y004339D01*
X021342Y004364D01*
X021260Y004373D01*
X021260Y003488D01*
X021100Y003488D01*
X021100Y003328D01*
X021100Y003192D02*
X021260Y003192D01*
X021260Y003350D02*
X025263Y003350D01*
X025066Y003509D02*
X022142Y003509D01*
X022113Y003667D02*
X024868Y003667D01*
X024671Y003826D02*
X022053Y003826D01*
X021958Y003984D02*
X024473Y003984D01*
X024275Y004143D02*
X021811Y004143D01*
X021556Y004301D02*
X024078Y004301D01*
X023880Y004460D02*
X018721Y004460D01*
X018778Y004301D02*
X020804Y004301D01*
X020809Y004304D02*
X020711Y004256D01*
X020619Y004199D01*
X020534Y004131D01*
X020458Y004054D01*
X020390Y003969D01*
X020332Y003877D01*
X020285Y003779D01*
X020249Y003677D01*
X020225Y003571D01*
X020215Y003488D01*
X021100Y003488D01*
X021100Y004373D01*
X021018Y004364D01*
X020912Y004339D01*
X020809Y004304D01*
X021100Y004301D02*
X021260Y004301D01*
X021260Y004143D02*
X021100Y004143D01*
X021100Y003984D02*
X021260Y003984D01*
X021260Y003826D02*
X021100Y003826D01*
X021100Y003667D02*
X021260Y003667D01*
X021260Y003509D02*
X021100Y003509D01*
X020402Y003984D02*
X018747Y003984D01*
X018786Y004143D02*
X020549Y004143D01*
X020307Y003826D02*
X018649Y003826D01*
X018412Y003667D02*
X020247Y003667D01*
X020218Y003509D02*
X015640Y003509D01*
X015640Y003667D02*
X018042Y003667D01*
X018209Y003667D02*
X018246Y003667D01*
X018246Y003826D02*
X018209Y003826D01*
X018209Y003984D02*
X018246Y003984D01*
X018246Y004143D02*
X018209Y004143D01*
X017707Y003984D02*
X015527Y003984D01*
X015640Y003826D02*
X017806Y003826D01*
X017669Y004143D02*
X013872Y004143D01*
X013793Y004110D02*
X014003Y004197D01*
X014163Y004357D01*
X014250Y004567D01*
X014250Y004793D01*
X014163Y005003D01*
X014003Y005163D01*
X013962Y005180D01*
X014003Y005197D01*
X014163Y005357D01*
X014250Y005567D01*
X014250Y005793D01*
X014163Y006003D01*
X014003Y006163D01*
X013793Y006250D01*
X013567Y006250D01*
X013357Y006163D01*
X013197Y006003D01*
X013110Y005793D01*
X013110Y005567D01*
X013197Y005357D01*
X013357Y005197D01*
X013398Y005180D01*
X013357Y005163D01*
X013197Y005003D01*
X013110Y004793D01*
X013110Y004567D01*
X013197Y004357D01*
X013357Y004197D01*
X013567Y004110D01*
X013793Y004110D01*
X013488Y004143D02*
X011290Y004143D01*
X011355Y004301D02*
X013253Y004301D01*
X013154Y004460D02*
X011380Y004460D01*
X011380Y004618D02*
X013110Y004618D01*
X013110Y004777D02*
X011380Y004777D01*
X011380Y004935D02*
X013169Y004935D01*
X013287Y005094D02*
X011380Y005094D01*
X011380Y005252D02*
X013302Y005252D01*
X013175Y005411D02*
X011380Y005411D01*
X011380Y005569D02*
X013110Y005569D01*
X013110Y005728D02*
X011380Y005728D01*
X011380Y005886D02*
X013148Y005886D01*
X013238Y006045D02*
X011361Y006045D01*
X011296Y006203D02*
X013453Y006203D01*
X013907Y006203D02*
X014978Y006203D01*
X014820Y006362D02*
X011201Y006362D01*
X010344Y006837D02*
X010266Y006837D01*
X010159Y007630D02*
X010451Y007630D01*
X009114Y007947D02*
X008954Y007947D01*
X008954Y008105D02*
X009114Y008105D01*
X009114Y008264D02*
X008954Y008264D01*
X008954Y008422D02*
X009114Y008422D01*
X009114Y008581D02*
X008954Y008581D01*
X008954Y008739D02*
X007596Y008739D01*
X007565Y008708D02*
X008104Y009248D01*
X008104Y009549D01*
X007264Y009549D01*
X007264Y009709D01*
X007104Y009709D01*
X007104Y010549D01*
X006803Y010549D01*
X006263Y010010D01*
X006263Y009709D01*
X007104Y009709D01*
X007104Y009549D01*
X006263Y009549D01*
X006263Y009248D01*
X006803Y008708D01*
X007104Y008708D01*
X007104Y009549D01*
X007264Y009549D01*
X007264Y008708D01*
X007565Y008708D01*
X007754Y008898D02*
X008114Y008898D01*
X008114Y009056D02*
X007913Y009056D01*
X008071Y009215D02*
X008224Y009215D01*
X008104Y009373D02*
X008382Y009373D01*
X008541Y009532D02*
X008104Y009532D01*
X008104Y009709D02*
X008104Y010010D01*
X007565Y010549D01*
X007264Y010549D01*
X007264Y009709D01*
X008104Y009709D01*
X008104Y009849D02*
X010333Y009849D01*
X010200Y010007D02*
X008104Y010007D01*
X007949Y010166D02*
X010200Y010166D01*
X010200Y010324D02*
X007791Y010324D01*
X007632Y010483D02*
X010304Y010483D01*
X010462Y010641D02*
X005898Y010641D01*
X005910Y010483D02*
X006736Y010483D01*
X006577Y010324D02*
X005910Y010324D01*
X005844Y010166D02*
X006419Y010166D01*
X006263Y010007D02*
X005686Y010007D01*
X005464Y009849D02*
X006263Y009849D01*
X005623Y009690D02*
X007104Y009690D01*
X007104Y009532D02*
X007264Y009532D01*
X007264Y009690D02*
X010980Y009690D01*
X010980Y009532D02*
X009528Y009532D01*
X009686Y009373D02*
X010980Y009373D01*
X011041Y009215D02*
X009845Y009215D01*
X009955Y009056D02*
X011106Y009056D01*
X011260Y008898D02*
X009955Y008898D01*
X009114Y008898D02*
X008954Y008898D01*
X008954Y009056D02*
X009114Y009056D01*
X009114Y009215D02*
X008954Y009215D01*
X008954Y009373D02*
X009114Y009373D01*
X009114Y009532D02*
X008954Y009532D01*
X009114Y008739D02*
X011518Y008739D01*
X012142Y008739D02*
X013425Y008739D01*
X013402Y008581D02*
X012430Y008581D01*
X012589Y008422D02*
X013243Y008422D01*
X013200Y008264D02*
X012640Y008264D01*
X012640Y008105D02*
X012676Y008105D01*
X011921Y007788D02*
X007250Y007788D01*
X007250Y007947D02*
X008509Y007947D01*
X008351Y008105D02*
X007204Y008105D01*
X007049Y008264D02*
X008192Y008264D01*
X008114Y008422D02*
X006891Y008422D01*
X006732Y008581D02*
X008114Y008581D01*
X007264Y008739D02*
X007104Y008739D01*
X007104Y008898D02*
X007264Y008898D01*
X007264Y009056D02*
X007104Y009056D01*
X007104Y009215D02*
X007264Y009215D01*
X007264Y009373D02*
X007104Y009373D01*
X007104Y009849D02*
X007264Y009849D01*
X007264Y010007D02*
X007104Y010007D01*
X007104Y010166D02*
X007264Y010166D01*
X007264Y010324D02*
X007104Y010324D01*
X007104Y010483D02*
X007264Y010483D01*
X005739Y010800D02*
X010980Y010800D01*
X010980Y010641D02*
X010898Y010641D01*
X011094Y011275D02*
X009767Y011275D01*
X009925Y011434D02*
X011231Y011434D01*
X011449Y011592D02*
X010014Y011592D01*
X010014Y011751D02*
X012159Y011751D01*
X012211Y011592D02*
X013351Y011592D01*
X013600Y011592D02*
X013760Y011592D01*
X013760Y011434D02*
X013600Y011434D01*
X013600Y011275D02*
X013760Y011275D01*
X013760Y011117D02*
X013600Y011117D01*
X013600Y010958D02*
X013760Y010958D01*
X013760Y010800D02*
X013600Y010800D01*
X013600Y010641D02*
X013760Y010641D01*
X013760Y010483D02*
X013600Y010483D01*
X013600Y010007D02*
X013760Y010007D01*
X013760Y009849D02*
X013600Y009849D01*
X013600Y009690D02*
X013760Y009690D01*
X013760Y009532D02*
X013600Y009532D01*
X013600Y009373D02*
X013760Y009373D01*
X013760Y009215D02*
X013600Y009215D01*
X013600Y009056D02*
X013760Y009056D01*
X013760Y008898D02*
X013600Y008898D01*
X013600Y008739D02*
X013760Y008739D01*
X013141Y008898D02*
X012400Y008898D01*
X012554Y009056D02*
X012998Y009056D01*
X012912Y009215D02*
X012619Y009215D01*
X012680Y009373D02*
X012864Y009373D01*
X012850Y009532D02*
X012680Y009532D01*
X012680Y009690D02*
X012850Y009690D01*
X012850Y009849D02*
X012680Y009849D01*
X012680Y010007D02*
X012850Y010007D01*
X014510Y010324D02*
X014680Y010324D01*
X014680Y010483D02*
X014510Y010483D01*
X014510Y010641D02*
X014680Y010641D01*
X014680Y010800D02*
X014510Y010800D01*
X014500Y010958D02*
X014680Y010958D01*
X014729Y011117D02*
X014460Y011117D01*
X014381Y011275D02*
X014794Y011275D01*
X014543Y011434D02*
X014250Y011434D01*
X014372Y011592D02*
X014009Y011592D01*
X014214Y011751D02*
X012701Y011751D01*
X012860Y011909D02*
X014055Y011909D01*
X013897Y012068D02*
X012890Y012068D01*
X012890Y012226D02*
X013738Y012226D01*
X013580Y012385D02*
X012826Y012385D01*
X013680Y012680D02*
X013680Y014680D01*
X013163Y014921D02*
X011380Y014921D01*
X011380Y015079D02*
X013273Y015079D01*
X013316Y015238D02*
X011380Y015238D01*
X011380Y015396D02*
X013181Y015396D01*
X013115Y015555D02*
X011380Y015555D01*
X011380Y015713D02*
X013110Y015713D01*
X013142Y015872D02*
X011380Y015872D01*
X011367Y016030D02*
X013224Y016030D01*
X012781Y016189D02*
X011302Y016189D01*
X011439Y016245D02*
X011630Y016245D01*
X011630Y016705D01*
X011170Y016705D01*
X011170Y016514D01*
X011439Y016245D01*
X011337Y016347D02*
X011215Y016347D01*
X011179Y016506D02*
X011057Y016506D01*
X011170Y016664D02*
X010738Y016664D01*
X010322Y016664D02*
X009167Y016664D01*
X009163Y016506D02*
X010003Y016506D01*
X009845Y016347D02*
X009329Y016347D01*
X009430Y016189D02*
X009758Y016189D01*
X009693Y016030D02*
X009486Y016030D01*
X009510Y015872D02*
X009680Y015872D01*
X009680Y015713D02*
X009510Y015713D01*
X009510Y015555D02*
X009680Y015555D01*
X009680Y015396D02*
X009510Y015396D01*
X009680Y015238D02*
X008760Y015238D01*
X008760Y015079D02*
X008600Y015079D01*
X008600Y014921D02*
X008760Y014921D01*
X008760Y014762D02*
X008600Y014762D01*
X008600Y014604D02*
X008760Y014604D01*
X008760Y014445D02*
X008600Y014445D01*
X008600Y014287D02*
X008760Y014287D01*
X008760Y014128D02*
X008600Y014128D01*
X008600Y013970D02*
X008760Y013970D01*
X008760Y013811D02*
X008600Y013811D01*
X008265Y013811D02*
X007313Y013811D01*
X007386Y013653D02*
X009974Y013653D01*
X010047Y013811D02*
X009095Y013811D01*
X009293Y013970D02*
X009888Y013970D01*
X009776Y014128D02*
X009406Y014128D01*
X009474Y014287D02*
X009711Y014287D01*
X009680Y014445D02*
X009506Y014445D01*
X009510Y014604D02*
X009680Y014604D01*
X009680Y014762D02*
X009510Y014762D01*
X009510Y014921D02*
X009680Y014921D01*
X009680Y015079D02*
X009510Y015079D01*
X008600Y015238D02*
X007680Y015238D01*
X007680Y015396D02*
X007850Y015396D01*
X007850Y015555D02*
X007680Y015555D01*
X007680Y015713D02*
X007850Y015713D01*
X007850Y015872D02*
X007680Y015872D01*
X007667Y016030D02*
X007874Y016030D01*
X007930Y016189D02*
X007602Y016189D01*
X007515Y016347D02*
X008031Y016347D01*
X007767Y017140D02*
X006353Y017140D01*
X006353Y017298D02*
X007700Y017298D01*
X007700Y017457D02*
X006353Y017457D01*
X006353Y017615D02*
X007711Y017615D01*
X007870Y017774D02*
X006255Y017774D01*
X006097Y017932D02*
X006797Y017932D01*
X006638Y018091D02*
X005938Y018091D01*
X006585Y018249D02*
X003532Y018249D01*
X003690Y018408D02*
X006585Y018408D01*
X006585Y018566D02*
X003849Y018566D01*
X004007Y018725D02*
X006693Y018725D01*
X006846Y018883D02*
X004069Y018883D01*
X004069Y019042D02*
X006687Y019042D01*
X006585Y019200D02*
X004069Y019200D01*
X004069Y019359D02*
X006585Y019359D01*
X006585Y019517D02*
X004069Y019517D01*
X003959Y019676D02*
X006644Y019676D01*
X006803Y019834D02*
X003801Y019834D01*
X002457Y019834D02*
X001837Y019834D01*
X001637Y019676D02*
X002298Y019676D01*
X002188Y019517D02*
X001521Y019517D01*
X001470Y019359D02*
X002188Y019359D01*
X002188Y019200D02*
X001442Y019200D01*
X001440Y019042D02*
X002188Y019042D01*
X002188Y018883D02*
X001440Y018883D01*
X001440Y018725D02*
X002250Y018725D01*
X002409Y018566D02*
X001440Y018566D01*
X001440Y018408D02*
X002567Y018408D01*
X002726Y018249D02*
X001440Y018249D01*
X001440Y018091D02*
X001686Y018091D01*
X001528Y017932D02*
X001440Y017932D01*
X002143Y017932D02*
X002303Y017932D01*
X002303Y017774D02*
X002143Y017774D01*
X002143Y017615D02*
X002303Y017615D01*
X002303Y017457D02*
X002143Y017457D01*
X002303Y017298D02*
X004472Y017298D01*
X004472Y017140D02*
X003144Y017140D01*
X003144Y016981D02*
X004472Y016981D01*
X004546Y016823D02*
X003022Y016823D01*
X002864Y016664D02*
X004704Y016664D01*
X004863Y016506D02*
X002705Y016506D01*
X002303Y016506D02*
X002143Y016506D01*
X002143Y016664D02*
X002303Y016664D01*
X002303Y016823D02*
X002143Y016823D01*
X002143Y016981D02*
X002303Y016981D01*
X002303Y017140D02*
X002143Y017140D01*
X003144Y017457D02*
X004472Y017457D01*
X004472Y017615D02*
X003144Y017615D01*
X003077Y017774D02*
X004569Y017774D01*
X004728Y017932D02*
X002919Y017932D01*
X002760Y018091D02*
X004886Y018091D01*
X002303Y018091D02*
X002143Y018091D01*
X001583Y016664D02*
X001440Y016664D01*
X001440Y016506D02*
X001742Y016506D01*
X001440Y016347D02*
X005021Y016347D01*
X005399Y016189D02*
X001440Y016189D01*
X001440Y016030D02*
X001954Y016030D01*
X001989Y016065D02*
X001720Y015796D01*
X001720Y015605D01*
X002180Y015605D01*
X002640Y015605D01*
X002640Y015796D01*
X002371Y016065D01*
X002180Y016065D01*
X002180Y015605D01*
X002180Y015605D01*
X002180Y015605D01*
X002640Y015605D01*
X002640Y015414D01*
X002371Y015145D01*
X002180Y015145D01*
X002180Y015605D01*
X002180Y015605D01*
X002180Y015605D01*
X002180Y016065D01*
X001989Y016065D01*
X002180Y016030D02*
X002180Y016030D01*
X002180Y015872D02*
X002180Y015872D01*
X002180Y015713D02*
X002180Y015713D01*
X002180Y015605D02*
X001720Y015605D01*
X001720Y015414D01*
X001989Y015145D01*
X002180Y015145D01*
X002180Y015605D01*
X002180Y015555D02*
X002180Y015555D01*
X002180Y015396D02*
X002180Y015396D01*
X002180Y015238D02*
X002180Y015238D01*
X002463Y015238D02*
X004869Y015238D01*
X004710Y015396D02*
X002622Y015396D01*
X002640Y015555D02*
X004700Y015555D01*
X004700Y015713D02*
X002640Y015713D01*
X002564Y015872D02*
X004768Y015872D01*
X004926Y016030D02*
X002406Y016030D01*
X001796Y015872D02*
X001440Y015872D01*
X001440Y015713D02*
X001720Y015713D01*
X001720Y015555D02*
X001440Y015555D01*
X001440Y015396D02*
X001738Y015396D01*
X001897Y015238D02*
X001440Y015238D01*
X001440Y015079D02*
X002702Y015079D01*
X002739Y015117D02*
X002188Y014566D01*
X002188Y013786D01*
X002739Y013236D01*
X003518Y013236D01*
X004069Y013786D01*
X004069Y014566D01*
X003518Y015117D01*
X002739Y015117D01*
X002543Y014921D02*
X001440Y014921D01*
X001440Y014762D02*
X002385Y014762D01*
X002226Y014604D02*
X001440Y014604D01*
X001440Y014445D02*
X002188Y014445D01*
X002188Y014287D02*
X001440Y014287D01*
X001440Y014128D02*
X002188Y014128D01*
X002188Y013970D02*
X001440Y013970D01*
X001440Y013811D02*
X002188Y013811D01*
X002322Y013653D02*
X001440Y013653D01*
X001440Y013494D02*
X002481Y013494D01*
X002639Y013336D02*
X001440Y013336D01*
X001440Y013177D02*
X001773Y013177D01*
X001614Y013019D02*
X001440Y013019D01*
X001440Y012860D02*
X001456Y012860D01*
X002143Y012860D02*
X002303Y012860D01*
X002303Y012702D02*
X002143Y012702D01*
X002143Y012543D02*
X002303Y012543D01*
X002303Y012385D02*
X003860Y012385D01*
X003860Y012543D02*
X003144Y012543D01*
X003144Y012702D02*
X003860Y012702D01*
X003860Y012860D02*
X002991Y012860D01*
X002832Y013019D02*
X003941Y013019D01*
X004102Y013177D02*
X002674Y013177D01*
X002303Y013177D02*
X002143Y013177D01*
X002143Y013019D02*
X002303Y013019D01*
X002303Y012226D02*
X002143Y012226D01*
X002143Y012068D02*
X002303Y012068D01*
X002303Y011909D02*
X002143Y011909D01*
X002143Y011751D02*
X002303Y011751D01*
X002303Y011592D02*
X002143Y011592D01*
X002143Y011434D02*
X002303Y011434D01*
X002633Y011434D02*
X003860Y011434D01*
X003860Y011592D02*
X002792Y011592D01*
X002950Y011751D02*
X003860Y011751D01*
X003860Y011909D02*
X003109Y011909D01*
X003144Y012068D02*
X003860Y012068D01*
X003860Y012226D02*
X003144Y012226D01*
X004500Y011751D02*
X004618Y011751D01*
X004500Y011592D02*
X004776Y011592D01*
X004935Y011434D02*
X004500Y011434D01*
X003860Y011275D02*
X001440Y011275D01*
X001440Y011117D02*
X003860Y011117D01*
X003860Y010958D02*
X001440Y010958D01*
X001440Y010800D02*
X002149Y010800D01*
X002239Y010890D02*
X001970Y010621D01*
X001970Y010430D01*
X002430Y010430D01*
X002430Y010430D01*
X002430Y010430D01*
X002430Y010890D01*
X002239Y010890D01*
X002430Y010800D02*
X002430Y010800D01*
X002430Y010641D02*
X002430Y010641D01*
X002430Y010483D02*
X002430Y010483D01*
X002430Y010430D02*
X001970Y010430D01*
X001970Y010239D01*
X002239Y009970D01*
X002430Y009970D01*
X002430Y010430D01*
X002430Y010324D02*
X002430Y010324D01*
X002430Y010166D02*
X002430Y010166D01*
X002430Y010007D02*
X002430Y010007D01*
X002471Y009849D02*
X001440Y009849D01*
X001440Y010007D02*
X002202Y010007D01*
X002044Y010166D02*
X001440Y010166D01*
X001440Y010324D02*
X001970Y010324D01*
X001970Y010483D02*
X001440Y010483D01*
X001440Y010641D02*
X001990Y010641D01*
X002711Y010800D02*
X003860Y010800D01*
X003860Y010641D02*
X002870Y010641D01*
X002890Y010483D02*
X003925Y010483D01*
X004083Y010324D02*
X002890Y010324D01*
X002816Y010166D02*
X004242Y010166D01*
X005781Y009532D02*
X006263Y009532D01*
X006263Y009373D02*
X005940Y009373D01*
X006098Y009215D02*
X006296Y009215D01*
X006257Y009056D02*
X006455Y009056D01*
X006415Y008898D02*
X006613Y008898D01*
X006574Y008739D02*
X006772Y008739D01*
X004901Y008105D02*
X002746Y008105D01*
X002711Y008264D02*
X001440Y008264D01*
X001440Y008422D02*
X002553Y008422D01*
X002394Y008581D02*
X001440Y008581D01*
X001440Y008739D02*
X002236Y008739D01*
X002188Y008898D02*
X001440Y008898D01*
X001440Y009056D02*
X002188Y009056D01*
X002188Y009215D02*
X001440Y009215D01*
X001440Y009373D02*
X002188Y009373D01*
X002188Y009532D02*
X001440Y009532D01*
X001440Y009690D02*
X002313Y009690D01*
X002303Y008105D02*
X002143Y008105D01*
X002143Y007947D02*
X002303Y007947D01*
X002303Y007788D02*
X002143Y007788D01*
X002143Y007630D02*
X002303Y007630D01*
X002303Y007471D02*
X002143Y007471D01*
X002303Y007313D02*
X004472Y007313D01*
X004472Y007471D02*
X003144Y007471D01*
X003144Y007630D02*
X004472Y007630D01*
X004584Y007788D02*
X003063Y007788D01*
X002904Y007947D02*
X004742Y007947D01*
X004472Y007154D02*
X003144Y007154D01*
X003144Y006996D02*
X004472Y006996D01*
X004531Y006837D02*
X003037Y006837D01*
X002878Y006679D02*
X004690Y006679D01*
X004848Y006520D02*
X002720Y006520D01*
X002303Y006520D02*
X002143Y006520D01*
X002143Y006679D02*
X002303Y006679D01*
X002303Y006837D02*
X002143Y006837D01*
X002143Y006996D02*
X002303Y006996D01*
X002303Y007154D02*
X002143Y007154D01*
X001569Y006679D02*
X001440Y006679D01*
X001440Y006520D02*
X001727Y006520D01*
X001440Y006362D02*
X005007Y006362D01*
X005818Y006362D02*
X006159Y006362D01*
X006064Y006203D02*
X001440Y006203D01*
X001440Y006045D02*
X005999Y006045D01*
X005980Y005886D02*
X005653Y005886D01*
X005811Y005728D02*
X005980Y005728D01*
X005980Y005569D02*
X005910Y005569D01*
X005910Y005411D02*
X005980Y005411D01*
X005980Y005252D02*
X005910Y005252D01*
X005980Y005094D02*
X005772Y005094D01*
X005976Y006520D02*
X006318Y006520D01*
X008600Y006520D02*
X008760Y006520D01*
X008760Y006362D02*
X008600Y006362D01*
X008600Y006203D02*
X008760Y006203D01*
X008760Y006045D02*
X008600Y006045D01*
X008600Y005886D02*
X008760Y005886D01*
X008760Y005728D02*
X008600Y005728D01*
X008600Y005569D02*
X008760Y005569D01*
X008760Y005411D02*
X008600Y005411D01*
X009510Y005094D02*
X009680Y005094D01*
X009680Y004935D02*
X009510Y004935D01*
X009510Y004777D02*
X009680Y004777D01*
X009680Y004618D02*
X009510Y004618D01*
X009508Y004460D02*
X009680Y004460D01*
X009705Y004301D02*
X009478Y004301D01*
X009415Y004143D02*
X009770Y004143D01*
X009874Y003984D02*
X009307Y003984D01*
X009120Y003826D02*
X010032Y003826D01*
X009981Y003160D02*
X009700Y002879D01*
X009700Y002481D01*
X009981Y002200D01*
X010379Y002200D01*
X010660Y002481D01*
X010660Y002879D01*
X010379Y003160D01*
X009981Y003160D01*
X009854Y003033D02*
X008000Y003033D01*
X008000Y002875D02*
X009700Y002875D01*
X009700Y002716D02*
X008000Y002716D01*
X008000Y002558D02*
X009700Y002558D01*
X009782Y002399D02*
X008000Y002399D01*
X008000Y002241D02*
X009941Y002241D01*
X009903Y002082D02*
X008000Y002082D01*
X008000Y001924D02*
X009745Y001924D01*
X009700Y001765D02*
X007958Y001765D01*
X007809Y001607D02*
X009700Y001607D01*
X009733Y001448D02*
X007651Y001448D01*
X010457Y002082D02*
X011903Y002082D01*
X011989Y002220D02*
X011720Y002489D01*
X011720Y002680D01*
X012180Y002680D01*
X012180Y002680D01*
X012180Y002220D01*
X011989Y002220D01*
X011969Y002241D02*
X010419Y002241D01*
X010578Y002399D02*
X011810Y002399D01*
X011720Y002558D02*
X010660Y002558D01*
X010660Y002716D02*
X011720Y002716D01*
X011724Y002875D02*
X010660Y002875D01*
X010506Y003033D02*
X011882Y003033D01*
X012180Y003033D02*
X012180Y003033D01*
X012180Y002875D02*
X012180Y002875D01*
X012180Y002716D02*
X012180Y002716D01*
X012180Y002558D02*
X012180Y002558D01*
X012180Y002399D02*
X012180Y002399D01*
X012180Y002241D02*
X012180Y002241D01*
X012391Y002241D02*
X012450Y002241D01*
X012640Y002716D02*
X020504Y002716D01*
X020373Y002875D02*
X012636Y002875D01*
X012478Y003033D02*
X020287Y003033D01*
X020237Y003192D02*
X008000Y003192D01*
X008000Y003350D02*
X014859Y003350D01*
X014720Y003509D02*
X008000Y003509D01*
X007360Y003826D02*
X007328Y003826D01*
X010615Y001924D02*
X011745Y001924D01*
X011700Y001765D02*
X010660Y001765D01*
X010660Y001607D02*
X011700Y001607D01*
X011733Y001448D02*
X010627Y001448D01*
X012660Y001765D02*
X012666Y001765D01*
X013194Y001765D02*
X013666Y001765D01*
X013731Y001700D02*
X014129Y001700D01*
X014410Y001981D01*
X014410Y002379D01*
X014129Y002660D01*
X013731Y002660D01*
X013450Y002379D01*
X013450Y001981D01*
X013731Y001700D01*
X013508Y001924D02*
X013352Y001924D01*
X013410Y002082D02*
X013450Y002082D01*
X013450Y002241D02*
X013410Y002241D01*
X013390Y002399D02*
X013470Y002399D01*
X013629Y002558D02*
X013231Y002558D01*
X014231Y002558D02*
X016629Y002558D01*
X016470Y002399D02*
X014390Y002399D01*
X014410Y002241D02*
X016450Y002241D01*
X016450Y002082D02*
X014410Y002082D01*
X014352Y001924D02*
X016508Y001924D01*
X016666Y001765D02*
X014194Y001765D01*
X017231Y002558D02*
X020717Y002558D01*
X021100Y002558D02*
X021260Y002558D01*
X021260Y002716D02*
X021100Y002716D01*
X021100Y002875D02*
X021260Y002875D01*
X021260Y003033D02*
X021100Y003033D01*
X021643Y002558D02*
X028217Y002558D01*
X028004Y002716D02*
X021856Y002716D01*
X021987Y002875D02*
X027873Y002875D01*
X027787Y003033D02*
X022073Y003033D01*
X022123Y003192D02*
X027737Y003192D01*
X028600Y003033D02*
X028760Y003033D01*
X028760Y002875D02*
X028600Y002875D01*
X028600Y002716D02*
X028760Y002716D01*
X028760Y002558D02*
X028600Y002558D01*
X029143Y002558D02*
X035717Y002558D01*
X035504Y002716D02*
X029356Y002716D01*
X029487Y002875D02*
X035373Y002875D01*
X035287Y003033D02*
X029573Y003033D01*
X029623Y003192D02*
X035237Y003192D01*
X036100Y003033D02*
X036260Y003033D01*
X036260Y002875D02*
X036100Y002875D01*
X036100Y002716D02*
X036260Y002716D01*
X036260Y002558D02*
X036100Y002558D01*
X036643Y002558D02*
X038389Y002558D01*
X038389Y002716D02*
X036856Y002716D01*
X036987Y002875D02*
X038405Y002875D01*
X038471Y003033D02*
X037073Y003033D01*
X037123Y003192D02*
X038573Y003192D01*
X038732Y003350D02*
X039023Y003471D01*
X039337Y003471D01*
X039628Y003350D01*
X040290Y003350D01*
X040290Y003192D02*
X039787Y003192D01*
X039850Y003128D02*
X039628Y003350D01*
X039850Y003128D02*
X039971Y002837D01*
X039971Y002523D01*
X039850Y002232D01*
X039628Y002010D01*
X039337Y001889D01*
X039023Y001889D01*
X039419Y001924D02*
X040290Y001924D01*
X040290Y002082D02*
X039700Y002082D01*
X039854Y002241D02*
X040290Y002241D01*
X040290Y002399D02*
X039919Y002399D01*
X039971Y002558D02*
X040290Y002558D01*
X040290Y002716D02*
X039971Y002716D01*
X039955Y002875D02*
X040290Y002875D01*
X040290Y003033D02*
X039889Y003033D01*
X040290Y003509D02*
X037142Y003509D01*
X037113Y003667D02*
X040290Y003667D01*
X040290Y003826D02*
X037053Y003826D01*
X036958Y003984D02*
X040290Y003984D01*
X040290Y004143D02*
X036811Y004143D01*
X036556Y004301D02*
X040290Y004301D01*
X040290Y005411D02*
X036920Y005411D01*
X037078Y005569D02*
X040290Y005569D01*
X040290Y005728D02*
X037237Y005728D01*
X037395Y005886D02*
X040290Y005886D01*
X040290Y006045D02*
X037554Y006045D01*
X037712Y006203D02*
X040290Y006203D01*
X040290Y006362D02*
X037871Y006362D01*
X038029Y006520D02*
X040290Y006520D01*
X040290Y006679D02*
X038188Y006679D01*
X038346Y006837D02*
X040290Y006837D01*
X040290Y006996D02*
X038493Y006996D01*
X038540Y007154D02*
X040290Y007154D01*
X040290Y007313D02*
X038540Y007313D01*
X038540Y007471D02*
X040290Y007471D01*
X040290Y007630D02*
X038540Y007630D01*
X038525Y007788D02*
X040290Y007788D01*
X040290Y007947D02*
X038423Y007947D01*
X038264Y008105D02*
X040290Y008105D01*
X040290Y008264D02*
X038106Y008264D01*
X037947Y008422D02*
X040290Y008422D01*
X040290Y008581D02*
X038090Y008581D01*
X038248Y008739D02*
X040290Y008739D01*
X040290Y008898D02*
X038407Y008898D01*
X038518Y009056D02*
X040290Y009056D01*
X040290Y009215D02*
X038540Y009215D01*
X038540Y009373D02*
X040290Y009373D01*
X040290Y009532D02*
X038540Y009532D01*
X038540Y009690D02*
X040290Y009690D01*
X040290Y009849D02*
X038540Y009849D01*
X038540Y010007D02*
X040290Y010007D01*
X040290Y010166D02*
X038540Y010166D01*
X038540Y010324D02*
X040290Y010324D01*
X040290Y010483D02*
X038540Y010483D01*
X038540Y010641D02*
X040290Y010641D01*
X040290Y010800D02*
X038540Y010800D01*
X038540Y010958D02*
X040290Y010958D01*
X040290Y011117D02*
X038540Y011117D01*
X038540Y011275D02*
X040290Y011275D01*
X040290Y011434D02*
X038540Y011434D01*
X038540Y011592D02*
X038589Y011592D01*
X039271Y011592D02*
X040290Y011592D01*
X040290Y011751D02*
X039410Y011751D01*
X039410Y011909D02*
X040290Y011909D01*
X040290Y012068D02*
X039410Y012068D01*
X039313Y012226D02*
X040290Y012226D01*
X040290Y012385D02*
X039210Y012385D01*
X039210Y012543D02*
X040290Y012543D01*
X040290Y012702D02*
X039210Y012702D01*
X039210Y012860D02*
X040290Y012860D01*
X040290Y013019D02*
X039210Y013019D01*
X039210Y013177D02*
X040290Y013177D01*
X040290Y013336D02*
X039210Y013336D01*
X039210Y013494D02*
X040290Y013494D01*
X040290Y013653D02*
X039210Y013653D01*
X039210Y013811D02*
X040290Y013811D01*
X040290Y013970D02*
X039210Y013970D01*
X039210Y014128D02*
X040290Y014128D01*
X040290Y014287D02*
X039210Y014287D01*
X039210Y014445D02*
X040290Y014445D01*
X040290Y014604D02*
X039210Y014604D01*
X039210Y014762D02*
X040290Y014762D01*
X040290Y014921D02*
X039210Y014921D01*
X039210Y015079D02*
X040290Y015079D01*
X040290Y015238D02*
X039210Y015238D01*
X039210Y015396D02*
X040290Y015396D01*
X040290Y015555D02*
X039210Y015555D01*
X039210Y015713D02*
X040290Y015713D01*
X040290Y015872D02*
X039210Y015872D01*
X039210Y016030D02*
X040290Y016030D01*
X040290Y016189D02*
X039210Y016189D01*
X039210Y016347D02*
X040290Y016347D01*
X040290Y016506D02*
X039202Y016506D01*
X039092Y016664D02*
X040290Y016664D01*
X040290Y016823D02*
X038933Y016823D01*
X038802Y016981D02*
X038775Y016981D01*
X038930Y016430D02*
X038180Y017180D01*
X038180Y018930D01*
X037680Y019430D01*
X037819Y019676D02*
X040189Y019676D01*
X040263Y019517D02*
X037989Y019517D01*
X038147Y019359D02*
X040290Y019359D01*
X040290Y019200D02*
X038306Y019200D01*
X038437Y019042D02*
X040290Y019042D01*
X040290Y018883D02*
X038460Y018883D01*
X038460Y018725D02*
X040290Y018725D01*
X040290Y018566D02*
X038460Y018566D01*
X038460Y018408D02*
X038871Y018408D01*
X038631Y018249D02*
X038460Y018249D01*
X038460Y018091D02*
X038494Y018091D01*
X037900Y018249D02*
X037523Y018249D01*
X039489Y018408D02*
X040290Y018408D01*
X040290Y018249D02*
X039729Y018249D01*
X039866Y018091D02*
X040290Y018091D01*
X040290Y017932D02*
X039931Y017932D01*
X039971Y017774D02*
X040290Y017774D01*
X040290Y017615D02*
X039971Y017615D01*
X039943Y017457D02*
X040290Y017457D01*
X040290Y017298D02*
X039877Y017298D01*
X039758Y017140D02*
X040290Y017140D01*
X040290Y016981D02*
X039558Y016981D01*
X038930Y016430D02*
X038930Y011930D01*
X038547Y012226D02*
X038540Y012226D01*
X038540Y012385D02*
X038650Y012385D01*
X038650Y012543D02*
X038540Y012543D01*
X038540Y012702D02*
X038650Y012702D01*
X038650Y012860D02*
X038540Y012860D01*
X038540Y013019D02*
X038650Y013019D01*
X038650Y013177D02*
X038540Y013177D01*
X038540Y013336D02*
X038650Y013336D01*
X038650Y013494D02*
X038540Y013494D01*
X038540Y013653D02*
X038650Y013653D01*
X038650Y013811D02*
X038540Y013811D01*
X038540Y013970D02*
X038650Y013970D01*
X038650Y014128D02*
X038540Y014128D01*
X038540Y014287D02*
X038650Y014287D01*
X038650Y014445D02*
X038540Y014445D01*
X038540Y014604D02*
X038650Y014604D01*
X038650Y014762D02*
X038536Y014762D01*
X038449Y014921D02*
X038650Y014921D01*
X038650Y015079D02*
X038290Y015079D01*
X038132Y015238D02*
X038650Y015238D01*
X038650Y015396D02*
X037973Y015396D01*
X037815Y015555D02*
X038650Y015555D01*
X038650Y015713D02*
X037656Y015713D01*
X037498Y015872D02*
X038650Y015872D01*
X038650Y016030D02*
X037276Y016030D01*
X036775Y016189D02*
X038650Y016189D01*
X038617Y016347D02*
X036935Y016347D01*
X037039Y016506D02*
X038458Y016506D01*
X038300Y016664D02*
X037104Y016664D01*
X037139Y016823D02*
X038141Y016823D01*
X035585Y016189D02*
X035431Y016189D01*
X035425Y016347D02*
X035272Y016347D01*
X035321Y016506D02*
X035063Y016506D01*
X034280Y016164D02*
X034230Y016214D01*
X033596Y015713D02*
X034888Y015713D01*
X035046Y015555D02*
X033673Y015555D01*
X033227Y015180D02*
X034180Y015180D01*
X034680Y014680D01*
X034680Y010180D01*
X034180Y009680D01*
X034180Y008430D01*
X034660Y008422D02*
X034700Y008422D01*
X034700Y008264D02*
X034660Y008264D01*
X034660Y008105D02*
X034700Y008105D01*
X034745Y007947D02*
X034615Y007947D01*
X034497Y007788D02*
X034863Y007788D01*
X035660Y008105D02*
X036076Y008105D01*
X035950Y008264D02*
X035660Y008264D01*
X035660Y008422D02*
X035950Y008422D01*
X035950Y008581D02*
X035660Y008581D01*
X035660Y008739D02*
X036060Y008739D01*
X036219Y008898D02*
X035622Y008898D01*
X035513Y009056D02*
X037547Y009056D01*
X037705Y009215D02*
X034460Y009215D01*
X034460Y009373D02*
X037820Y009373D01*
X037820Y009532D02*
X034460Y009532D01*
X034586Y009690D02*
X037820Y009690D01*
X037820Y009849D02*
X034744Y009849D01*
X034903Y010007D02*
X037820Y010007D01*
X037820Y010166D02*
X034960Y010166D01*
X034960Y010324D02*
X037820Y010324D01*
X037820Y010483D02*
X034960Y010483D01*
X034960Y010641D02*
X037820Y010641D01*
X037820Y010800D02*
X035508Y010800D01*
X035620Y010958D02*
X036223Y010958D01*
X036231Y010950D02*
X036629Y010950D01*
X036910Y011231D01*
X036910Y011450D01*
X037129Y011450D01*
X037410Y011731D01*
X037410Y012129D01*
X037129Y012410D01*
X036731Y012410D01*
X036450Y012129D01*
X036450Y011910D01*
X036231Y011910D01*
X035950Y011629D01*
X035950Y011231D01*
X036231Y010950D01*
X036065Y011117D02*
X035660Y011117D01*
X035660Y011275D02*
X035950Y011275D01*
X035950Y011434D02*
X035660Y011434D01*
X035660Y011592D02*
X035950Y011592D01*
X036072Y011751D02*
X035660Y011751D01*
X035617Y011909D02*
X036230Y011909D01*
X036450Y012068D02*
X035501Y012068D01*
X034960Y012226D02*
X036547Y012226D01*
X036706Y012385D02*
X034960Y012385D01*
X034960Y012543D02*
X035747Y012543D01*
X035711Y012560D02*
X035809Y012513D01*
X035912Y012477D01*
X036018Y012453D01*
X036100Y012444D01*
X036100Y013328D01*
X036260Y013328D01*
X036260Y012444D01*
X036342Y012453D01*
X036448Y012477D01*
X036551Y012513D01*
X036649Y012560D01*
X036741Y012618D01*
X036826Y012686D01*
X036902Y012763D01*
X036970Y012848D01*
X037028Y012940D01*
X037075Y013038D01*
X037111Y013140D01*
X037135Y013246D01*
X037145Y013328D01*
X036260Y013328D01*
X036260Y013488D01*
X037145Y013488D01*
X037135Y013571D01*
X037111Y013677D01*
X037075Y013779D01*
X037028Y013877D01*
X036970Y013969D01*
X036902Y014054D01*
X036826Y014131D01*
X036741Y014199D01*
X036649Y014256D01*
X036551Y014304D01*
X036448Y014339D01*
X036342Y014364D01*
X036260Y014373D01*
X036260Y013488D01*
X036100Y013488D01*
X036100Y013328D01*
X035215Y013328D01*
X035225Y013246D01*
X035249Y013140D01*
X035285Y013038D01*
X035332Y012940D01*
X035390Y012848D01*
X035458Y012763D01*
X035534Y012686D01*
X035619Y012618D01*
X035711Y012560D01*
X035519Y012702D02*
X034960Y012702D01*
X034960Y012860D02*
X035382Y012860D01*
X035294Y013019D02*
X034960Y013019D01*
X034960Y013177D02*
X035241Y013177D01*
X034960Y013336D02*
X036100Y013336D01*
X036100Y013488D02*
X035215Y013488D01*
X035225Y013571D01*
X035249Y013677D01*
X035285Y013779D01*
X035332Y013877D01*
X035390Y013969D01*
X035458Y014054D01*
X035534Y014131D01*
X035619Y014199D01*
X035711Y014256D01*
X035809Y014304D01*
X035912Y014339D01*
X036018Y014364D01*
X036100Y014373D01*
X036100Y013488D01*
X036100Y013494D02*
X036260Y013494D01*
X036260Y013336D02*
X037820Y013336D01*
X037820Y013494D02*
X037144Y013494D01*
X037117Y013653D02*
X037820Y013653D01*
X037820Y013811D02*
X037060Y013811D01*
X036970Y013970D02*
X037820Y013970D01*
X037820Y014128D02*
X036828Y014128D01*
X036586Y014287D02*
X037820Y014287D01*
X037820Y014445D02*
X034960Y014445D01*
X034960Y014287D02*
X035774Y014287D01*
X035532Y014128D02*
X034960Y014128D01*
X034960Y013970D02*
X035390Y013970D01*
X035300Y013811D02*
X034960Y013811D01*
X034960Y013653D02*
X035243Y013653D01*
X035216Y013494D02*
X034960Y013494D01*
X034400Y013494D02*
X031960Y013494D01*
X031960Y013336D02*
X034400Y013336D01*
X034400Y013177D02*
X032079Y013177D01*
X032237Y013019D02*
X034400Y013019D01*
X034400Y012860D02*
X032396Y012860D01*
X032554Y012702D02*
X034400Y012702D01*
X034400Y012543D02*
X032713Y012543D01*
X032871Y012385D02*
X034400Y012385D01*
X034400Y012226D02*
X032960Y012226D01*
X032680Y012180D02*
X031680Y013180D01*
X031680Y014680D01*
X031180Y015180D01*
X025727Y015180D01*
X025189Y015396D02*
X022155Y015396D01*
X022134Y015375D02*
X022235Y015476D01*
X022579Y015820D01*
X025251Y015820D01*
X025399Y015673D01*
X025400Y015672D01*
X025399Y015672D01*
X025236Y015509D01*
X025147Y015295D01*
X025147Y015065D01*
X025236Y014851D01*
X025399Y014688D01*
X025433Y014674D01*
X025362Y014623D01*
X025300Y014561D01*
X025248Y014489D01*
X025208Y014411D01*
X025181Y014327D01*
X025167Y014240D01*
X025167Y014214D01*
X025709Y014214D01*
X025709Y014177D01*
X025746Y014177D01*
X025746Y014214D01*
X026287Y014214D01*
X026287Y014240D01*
X026273Y014327D01*
X026246Y014411D01*
X026206Y014489D01*
X026154Y014561D01*
X026092Y014623D01*
X026022Y014674D01*
X026056Y014688D01*
X026219Y014851D01*
X026239Y014900D01*
X031064Y014900D01*
X031400Y014564D01*
X031400Y013124D01*
X031443Y013021D01*
X031521Y012943D01*
X031767Y012697D01*
X031736Y012710D01*
X029350Y012710D01*
X029402Y012763D01*
X029470Y012848D01*
X029528Y012940D01*
X029575Y013038D01*
X029611Y013140D01*
X029635Y013246D01*
X029645Y013328D01*
X028760Y013328D01*
X028760Y013488D01*
X029645Y013488D01*
X029635Y013571D01*
X029611Y013677D01*
X029575Y013779D01*
X029528Y013877D01*
X029470Y013969D01*
X029402Y014054D01*
X029326Y014131D01*
X029241Y014199D01*
X029149Y014256D01*
X029051Y014304D01*
X028948Y014339D01*
X028842Y014364D01*
X028760Y014373D01*
X028760Y013488D01*
X028600Y013488D01*
X028600Y013328D01*
X027715Y013328D01*
X027725Y013246D01*
X027749Y013140D01*
X027785Y013038D01*
X027832Y012940D01*
X027890Y012848D01*
X027958Y012763D01*
X028010Y012710D01*
X021850Y012710D01*
X021902Y012763D01*
X021970Y012848D01*
X022028Y012940D01*
X022075Y013038D01*
X022111Y013140D01*
X022135Y013246D01*
X022145Y013328D01*
X021260Y013328D01*
X021260Y013488D01*
X022145Y013488D01*
X022135Y013571D01*
X022111Y013677D01*
X022075Y013779D01*
X022028Y013877D01*
X021970Y013969D01*
X021902Y014054D01*
X021826Y014131D01*
X021741Y014199D01*
X021649Y014256D01*
X021551Y014304D01*
X021448Y014339D01*
X021342Y014364D01*
X021260Y014373D01*
X021260Y013488D01*
X021100Y013488D01*
X021100Y013328D01*
X020215Y013328D01*
X020225Y013246D01*
X020249Y013140D01*
X020285Y013038D01*
X020332Y012940D01*
X020390Y012848D01*
X020458Y012763D01*
X020510Y012710D01*
X017511Y012710D01*
X017765Y012964D01*
X017765Y013155D01*
X017765Y013346D01*
X017496Y013615D01*
X017305Y013615D01*
X017305Y013155D01*
X017305Y013155D01*
X017765Y013155D01*
X017305Y013155D01*
X017305Y013155D01*
X017305Y013155D01*
X016845Y013155D01*
X016845Y013346D01*
X017114Y013615D01*
X017305Y013615D01*
X017305Y013155D01*
X016845Y013155D01*
X016845Y012964D01*
X017099Y012710D01*
X016546Y012710D01*
X015960Y013296D01*
X015960Y013356D01*
X016235Y013631D01*
X016235Y014029D01*
X015954Y014310D01*
X015556Y014310D01*
X015330Y014084D01*
X015185Y014229D01*
X015185Y015761D01*
X015142Y015864D01*
X014576Y016430D01*
X014626Y016430D01*
X014706Y016350D01*
X015104Y016350D01*
X015184Y016430D01*
X015476Y016430D01*
X015556Y016350D01*
X015954Y016350D01*
X016034Y016430D01*
X016901Y016430D01*
X016825Y016354D01*
X016825Y015956D01*
X017106Y015675D01*
X017504Y015675D01*
X017715Y015886D01*
X017736Y015836D01*
X017899Y015673D01*
X017900Y015672D01*
X017899Y015672D01*
X017736Y015509D01*
X017647Y015295D01*
X017647Y015065D01*
X017736Y014851D01*
X017899Y014688D01*
X017933Y014674D01*
X017862Y014623D01*
X017800Y014561D01*
X017748Y014489D01*
X017708Y014411D01*
X017681Y014327D01*
X017667Y014240D01*
X017667Y014214D01*
X018209Y014214D01*
X018209Y014177D01*
X018246Y014177D01*
X018246Y014214D01*
X018787Y014214D01*
X018787Y014240D01*
X018773Y014327D01*
X018746Y014411D01*
X018706Y014489D01*
X018654Y014561D01*
X018592Y014623D01*
X018522Y014674D01*
X018556Y014688D01*
X018719Y014851D01*
X018807Y015065D01*
X018807Y015295D01*
X018797Y015320D01*
X022002Y015320D01*
X022134Y015375D01*
X022235Y015476D02*
X022235Y015476D01*
X022314Y015555D02*
X025282Y015555D01*
X025358Y015713D02*
X022472Y015713D01*
X021929Y016189D02*
X021775Y016189D01*
X021935Y016347D02*
X022088Y016347D01*
X022039Y016506D02*
X022246Y016506D01*
X022104Y016664D02*
X022405Y016664D01*
X022563Y016823D02*
X022139Y016823D01*
X022145Y017032D02*
X022135Y017114D01*
X022111Y017220D01*
X022075Y017322D01*
X022028Y017420D01*
X021970Y017512D01*
X021902Y017597D01*
X021826Y017674D01*
X021741Y017742D01*
X021649Y017800D01*
X021551Y017847D01*
X021448Y017883D01*
X021342Y017907D01*
X021260Y017916D01*
X021260Y017032D01*
X022145Y017032D01*
X022129Y017140D02*
X022880Y017140D01*
X023039Y017298D02*
X022084Y017298D01*
X022005Y017457D02*
X023197Y017457D01*
X023356Y017615D02*
X021885Y017615D01*
X021690Y017774D02*
X023460Y017774D01*
X023639Y017932D02*
X020716Y017932D01*
X020670Y017774D02*
X020608Y017774D01*
X020475Y017615D02*
X020358Y017615D01*
X020355Y017457D02*
X019966Y017457D01*
X019807Y017298D02*
X020276Y017298D01*
X020231Y017140D02*
X019649Y017140D01*
X019490Y016981D02*
X021100Y016981D01*
X021100Y017140D02*
X021260Y017140D01*
X021260Y017298D02*
X021100Y017298D01*
X021100Y017457D02*
X021260Y017457D01*
X021260Y017615D02*
X021100Y017615D01*
X021100Y017774D02*
X021260Y017774D01*
X020770Y018091D02*
X034701Y018091D01*
X034805Y018249D02*
X034555Y018249D01*
X034542Y017932D02*
X024221Y017932D01*
X023930Y018875D02*
X023700Y018875D01*
X023375Y019200D01*
X020770Y019200D01*
X020761Y019042D02*
X023534Y019042D01*
X023692Y018883D02*
X020696Y018883D01*
X020180Y019180D02*
X020180Y019430D01*
X019680Y019930D01*
X011430Y019930D01*
X011155Y019655D01*
X011155Y018380D01*
X010175Y018400D02*
X010175Y018830D01*
X010175Y019360D01*
X010135Y019360D01*
X010135Y018400D01*
X010175Y018400D01*
X010175Y018408D02*
X010135Y018408D01*
X010135Y018400D02*
X010135Y018360D01*
X010175Y018360D01*
X010175Y017853D01*
X010072Y017750D01*
X009416Y017750D01*
X009299Y017701D01*
X009209Y017611D01*
X008722Y017125D01*
X008579Y017125D01*
X008660Y017206D01*
X008660Y017604D01*
X008408Y017856D01*
X008655Y018102D01*
X008927Y017830D01*
X009135Y017830D01*
X009135Y018360D01*
X009175Y018360D01*
X009175Y018400D01*
X009175Y018830D01*
X009175Y019360D01*
X009175Y019400D01*
X010135Y019400D01*
X010135Y019360D01*
X009705Y019360D01*
X009175Y019360D01*
X009135Y019360D01*
X008605Y019360D01*
X008175Y019360D01*
X008175Y019400D01*
X009135Y019400D01*
X009135Y019360D01*
X009135Y018400D01*
X009175Y018400D01*
X010135Y018400D01*
X010135Y018360D02*
X009605Y018360D01*
X009175Y018360D01*
X009175Y017830D01*
X009383Y017830D01*
X009655Y018102D01*
X009927Y017830D01*
X010135Y017830D01*
X010135Y018360D01*
X010135Y018249D02*
X010175Y018249D01*
X010175Y018091D02*
X010135Y018091D01*
X010135Y017932D02*
X010175Y017932D01*
X010096Y017774D02*
X008490Y017774D01*
X008485Y017932D02*
X008825Y017932D01*
X008667Y018091D02*
X008643Y018091D01*
X009135Y018091D02*
X009175Y018091D01*
X009175Y018249D02*
X009135Y018249D01*
X009135Y018360D02*
X008605Y018360D01*
X008175Y018360D01*
X008175Y018400D01*
X009135Y018400D01*
X009135Y018360D01*
X009135Y018408D02*
X009175Y018408D01*
X009175Y018566D02*
X009135Y018566D01*
X009135Y018725D02*
X009175Y018725D01*
X009175Y018883D02*
X009135Y018883D01*
X009135Y019042D02*
X009175Y019042D01*
X009175Y019200D02*
X009135Y019200D01*
X009135Y019359D02*
X009175Y019359D01*
X010135Y019359D02*
X010175Y019359D01*
X010175Y019200D02*
X010135Y019200D01*
X010135Y019042D02*
X010175Y019042D01*
X010175Y018883D02*
X010135Y018883D01*
X010135Y018725D02*
X010175Y018725D01*
X010175Y018566D02*
X010135Y018566D01*
X009667Y018091D02*
X009643Y018091D01*
X009485Y017932D02*
X009825Y017932D01*
X009175Y017932D02*
X009135Y017932D01*
X009212Y017615D02*
X008649Y017615D01*
X008660Y017457D02*
X009054Y017457D01*
X008895Y017298D02*
X008660Y017298D01*
X008593Y017140D02*
X008737Y017140D01*
X009325Y016823D02*
X011170Y016823D01*
X010925Y016981D02*
X009484Y016981D01*
X010340Y017140D02*
X010767Y017140D01*
X010700Y017298D02*
X010526Y017298D01*
X010684Y017457D02*
X010700Y017457D01*
X011630Y017140D02*
X011630Y017140D01*
X011630Y016981D02*
X011630Y016981D01*
X011630Y016823D02*
X011630Y016823D01*
X011630Y016664D02*
X011630Y016664D01*
X011630Y016506D02*
X011630Y016506D01*
X011630Y016347D02*
X011630Y016347D01*
X011923Y016347D02*
X012309Y016347D01*
X012151Y016506D02*
X012081Y016506D01*
X012090Y016664D02*
X012150Y016664D01*
X012150Y016823D02*
X012090Y016823D01*
X012630Y016705D02*
X012655Y016680D01*
X012680Y016680D01*
X012930Y016430D01*
X014180Y016430D01*
X014905Y015705D01*
X014905Y013830D01*
X014905Y013357D01*
X016082Y012180D01*
X030930Y012180D01*
X031180Y011930D01*
X031180Y011430D01*
X031660Y011434D02*
X031700Y011434D01*
X031700Y011592D02*
X031660Y011592D01*
X031660Y011751D02*
X031700Y011751D01*
X031743Y011909D02*
X031617Y011909D01*
X031647Y012068D02*
X031501Y012068D01*
X031680Y012430D02*
X032180Y011930D01*
X032180Y011430D01*
X031700Y011275D02*
X031660Y011275D01*
X031660Y011117D02*
X031700Y011117D01*
X031740Y010958D02*
X031620Y010958D01*
X031508Y010800D02*
X031852Y010800D01*
X032400Y010641D02*
X030460Y010641D01*
X030508Y010800D02*
X030852Y010800D01*
X030740Y010958D02*
X030620Y010958D01*
X030660Y011117D02*
X030700Y011117D01*
X030700Y011275D02*
X030660Y011275D01*
X030660Y011434D02*
X030700Y011434D01*
X030700Y011592D02*
X030660Y011592D01*
X030660Y011751D02*
X030700Y011751D01*
X030180Y011430D02*
X030180Y010680D01*
X029930Y010430D01*
X021930Y010430D01*
X020430Y011930D01*
X015430Y011930D01*
X014430Y012930D01*
X013680Y012680D02*
X014680Y011680D01*
X020180Y011680D01*
X021680Y010180D01*
X024680Y010180D01*
X025180Y009680D01*
X025180Y008430D01*
X025660Y008422D02*
X025700Y008422D01*
X025700Y008264D02*
X025660Y008264D01*
X025660Y008105D02*
X025700Y008105D01*
X025680Y007680D02*
X026180Y008180D01*
X026180Y008430D01*
X026660Y008422D02*
X026700Y008422D01*
X026700Y008264D02*
X026660Y008264D01*
X026660Y008105D02*
X026700Y008105D01*
X026745Y007947D02*
X026615Y007947D01*
X025680Y007680D02*
X023680Y007680D01*
X023430Y007430D01*
X022180Y007430D01*
X019930Y009680D01*
X018680Y009680D01*
X019170Y009373D02*
X019841Y009373D01*
X020000Y009215D02*
X019021Y009215D01*
X018339Y009215D02*
X016319Y009215D01*
X016380Y009373D02*
X017108Y009373D01*
X017206Y009275D02*
X017604Y009275D01*
X017885Y009556D01*
X017885Y009954D01*
X017604Y010235D01*
X017206Y010235D01*
X016925Y009954D01*
X016925Y009556D01*
X017206Y009275D01*
X016950Y009532D02*
X016380Y009532D01*
X016380Y009690D02*
X016925Y009690D01*
X016925Y009849D02*
X016380Y009849D01*
X016380Y010007D02*
X016978Y010007D01*
X017137Y010166D02*
X016380Y010166D01*
X016380Y010324D02*
X018230Y010324D01*
X018145Y010483D02*
X016380Y010483D01*
X016380Y010641D02*
X018110Y010641D01*
X018113Y010800D02*
X016445Y010800D01*
X016604Y010958D02*
X018178Y010958D01*
X018310Y011117D02*
X016762Y011117D01*
X016680Y011430D02*
X015530Y010280D01*
X015530Y010180D01*
X017673Y010166D02*
X018363Y010166D01*
X018201Y010007D02*
X017832Y010007D01*
X017885Y009849D02*
X018133Y009849D01*
X018110Y009690D02*
X017885Y009690D01*
X017860Y009532D02*
X018125Y009532D01*
X018190Y009373D02*
X017702Y009373D01*
X016254Y009056D02*
X020158Y009056D01*
X020317Y008898D02*
X016100Y008898D01*
X015842Y008739D02*
X020475Y008739D01*
X020634Y008581D02*
X016958Y008581D01*
X017117Y008422D02*
X020792Y008422D01*
X020951Y008264D02*
X017160Y008264D01*
X017160Y008105D02*
X021109Y008105D01*
X021268Y007947D02*
X017125Y007947D01*
X016967Y007788D02*
X020693Y007788D01*
X021100Y007788D02*
X021260Y007788D01*
X021260Y007630D02*
X021100Y007630D01*
X021100Y007471D02*
X021260Y007471D01*
X021260Y007313D02*
X021100Y007313D01*
X020314Y006520D02*
X020028Y006520D01*
X020258Y006362D02*
X020413Y006362D01*
X020416Y006203D02*
X020567Y006203D01*
X020575Y006045D02*
X020843Y006045D01*
X021517Y006045D02*
X021785Y006045D01*
X021793Y006203D02*
X021944Y006203D01*
X021947Y006362D02*
X022102Y006362D01*
X022046Y006520D02*
X022310Y006520D01*
X022579Y005820D02*
X025251Y005820D01*
X025399Y005673D01*
X025400Y005672D01*
X025399Y005672D01*
X025236Y005509D01*
X025147Y005295D01*
X025147Y005065D01*
X025236Y004851D01*
X025399Y004688D01*
X025433Y004674D01*
X025362Y004623D01*
X025300Y004561D01*
X025248Y004489D01*
X025208Y004411D01*
X025181Y004327D01*
X025167Y004240D01*
X025167Y004214D01*
X025709Y004214D01*
X025709Y004177D01*
X025167Y004177D01*
X025167Y004152D01*
X025168Y004144D01*
X023617Y005389D01*
X023589Y005417D01*
X023574Y005423D01*
X023562Y005433D01*
X023523Y005445D01*
X023486Y005460D01*
X023470Y005460D01*
X023455Y005464D01*
X023415Y005460D01*
X022219Y005460D01*
X022579Y005820D01*
X022487Y005728D02*
X025344Y005728D01*
X025296Y005569D02*
X022328Y005569D01*
X023430Y005180D02*
X025455Y003555D01*
X025955Y003555D01*
X027430Y004680D01*
X027095Y004777D02*
X026144Y004777D01*
X026097Y004618D02*
X026887Y004618D01*
X026679Y004460D02*
X026221Y004460D01*
X026278Y004301D02*
X026471Y004301D01*
X026254Y004935D02*
X027303Y004935D01*
X027690Y005411D02*
X026260Y005411D01*
X026307Y005252D02*
X029606Y005252D01*
X029550Y005411D02*
X029765Y005411D01*
X029679Y005569D02*
X029923Y005569D01*
X029809Y005728D02*
X030052Y005728D01*
X030106Y005886D02*
X029939Y005886D01*
X030068Y006045D02*
X030322Y006045D01*
X030538Y006045D02*
X032649Y006045D01*
X032715Y005886D02*
X030754Y005886D01*
X030808Y005728D02*
X032844Y005728D01*
X032796Y005569D02*
X030793Y005569D01*
X029448Y005094D02*
X026307Y005094D01*
X026158Y005569D02*
X027532Y005569D01*
X027373Y005728D02*
X026111Y005728D01*
X025195Y005411D02*
X023595Y005411D01*
X023788Y005252D02*
X025147Y005252D01*
X025147Y005094D02*
X023985Y005094D01*
X024183Y004935D02*
X025201Y004935D01*
X025310Y004777D02*
X024380Y004777D01*
X024578Y004618D02*
X025358Y004618D01*
X025233Y004460D02*
X024775Y004460D01*
X024973Y004301D02*
X025177Y004301D01*
X023683Y004618D02*
X018597Y004618D01*
X018644Y004777D02*
X023485Y004777D01*
X023430Y005180D02*
X018227Y005180D01*
X017695Y005411D02*
X014185Y005411D01*
X014250Y005569D02*
X017796Y005569D01*
X017844Y005728D02*
X014250Y005728D01*
X014212Y005886D02*
X017715Y005886D01*
X017649Y006045D02*
X014122Y006045D01*
X015660Y006520D02*
X016989Y006520D01*
X016945Y006679D02*
X015660Y006679D01*
X015660Y006837D02*
X016945Y006837D01*
X016995Y006996D02*
X015543Y006996D01*
X015385Y007154D02*
X017153Y007154D01*
X014975Y007154D02*
X012660Y007154D01*
X012660Y006996D02*
X014817Y006996D01*
X014700Y006837D02*
X012516Y006837D01*
X013184Y008105D02*
X013200Y008105D01*
X014058Y005252D02*
X017647Y005252D01*
X017647Y005094D02*
X014073Y005094D01*
X014191Y004935D02*
X017701Y004935D01*
X017810Y004777D02*
X014250Y004777D01*
X014250Y004618D02*
X017858Y004618D01*
X017733Y004460D02*
X014206Y004460D01*
X014107Y004301D02*
X017677Y004301D01*
X017390Y002399D02*
X038441Y002399D01*
X038506Y002241D02*
X017410Y002241D01*
X017410Y002082D02*
X038660Y002082D01*
X036260Y003509D02*
X036100Y003509D01*
X036100Y003667D02*
X036260Y003667D01*
X036260Y003826D02*
X036100Y003826D01*
X036100Y003984D02*
X036260Y003984D01*
X036260Y004143D02*
X036100Y004143D01*
X036100Y004301D02*
X036260Y004301D01*
X035843Y006045D02*
X034825Y006045D01*
X037109Y006679D02*
X037169Y006679D01*
X037141Y006837D02*
X037328Y006837D01*
X036260Y007313D02*
X036100Y007313D01*
X036100Y007471D02*
X036260Y007471D01*
X036260Y007630D02*
X036100Y007630D01*
X036100Y007788D02*
X036260Y007788D01*
X034700Y008581D02*
X034660Y008581D01*
X034660Y008739D02*
X034700Y008739D01*
X034738Y008898D02*
X034622Y008898D01*
X034513Y009056D02*
X034847Y009056D01*
X033900Y009215D02*
X032460Y009215D01*
X032513Y009056D02*
X032847Y009056D01*
X032908Y009117D02*
X032773Y008982D01*
X032700Y008805D01*
X032700Y008055D01*
X032773Y007878D01*
X032908Y007743D01*
X033085Y007670D01*
X033275Y007670D01*
X033452Y007743D01*
X033587Y007878D01*
X033660Y008055D01*
X033660Y008805D01*
X033587Y008982D01*
X033452Y009117D01*
X033275Y009190D01*
X033085Y009190D01*
X032908Y009117D01*
X032738Y008898D02*
X032622Y008898D01*
X032660Y008739D02*
X032700Y008739D01*
X032700Y008581D02*
X032660Y008581D01*
X032660Y008422D02*
X032700Y008422D01*
X032700Y008264D02*
X032660Y008264D01*
X032660Y008105D02*
X032700Y008105D01*
X032745Y007947D02*
X032615Y007947D01*
X032497Y007788D02*
X032863Y007788D01*
X033497Y007788D02*
X033863Y007788D01*
X033745Y007947D02*
X033615Y007947D01*
X033660Y008105D02*
X033700Y008105D01*
X033700Y008264D02*
X033660Y008264D01*
X033660Y008422D02*
X033700Y008422D01*
X033700Y008581D02*
X033660Y008581D01*
X033660Y008739D02*
X033700Y008739D01*
X033738Y008898D02*
X033622Y008898D01*
X033513Y009056D02*
X033847Y009056D01*
X033900Y009373D02*
X032519Y009373D01*
X032677Y009532D02*
X033900Y009532D01*
X033900Y009690D02*
X032836Y009690D01*
X032949Y009849D02*
X033953Y009849D01*
X034111Y010007D02*
X032960Y010007D01*
X032960Y010166D02*
X034270Y010166D01*
X034400Y010324D02*
X032960Y010324D01*
X032960Y010483D02*
X034400Y010483D01*
X034400Y010641D02*
X032960Y010641D01*
X032400Y010483D02*
X030378Y010483D01*
X030220Y010324D02*
X032400Y010324D01*
X032400Y010166D02*
X030023Y010166D01*
X028988Y010710D02*
X028314Y010710D01*
X028357Y010724D01*
X028421Y010757D01*
X028480Y010799D01*
X028531Y010850D01*
X028573Y010909D01*
X028606Y010973D01*
X028629Y011042D01*
X028640Y011114D01*
X028640Y011430D01*
X028640Y011746D01*
X028629Y011818D01*
X028606Y011887D01*
X028599Y011900D01*
X028739Y011900D01*
X028700Y011805D01*
X028700Y011055D01*
X028773Y010878D01*
X028908Y010743D01*
X028988Y010710D01*
X028852Y010800D02*
X028480Y010800D01*
X028598Y010958D02*
X028740Y010958D01*
X028700Y011117D02*
X028640Y011117D01*
X028640Y011275D02*
X028700Y011275D01*
X028700Y011434D02*
X028640Y011434D01*
X028640Y011430D02*
X028180Y011430D01*
X028180Y011430D01*
X028640Y011430D01*
X028640Y011592D02*
X028700Y011592D01*
X028700Y011751D02*
X028639Y011751D01*
X028180Y011430D02*
X028180Y011430D01*
X027720Y011430D01*
X027720Y011746D01*
X027731Y011818D01*
X027754Y011887D01*
X027761Y011900D01*
X027621Y011900D01*
X027660Y011805D01*
X027660Y011055D01*
X027587Y010878D01*
X027452Y010743D01*
X027372Y010710D01*
X028046Y010710D01*
X028003Y010724D01*
X027939Y010757D01*
X027880Y010799D01*
X027829Y010850D01*
X027787Y010909D01*
X027754Y010973D01*
X027731Y011042D01*
X027720Y011114D01*
X027720Y011430D01*
X028180Y011430D01*
X027720Y011434D02*
X027660Y011434D01*
X027660Y011592D02*
X027720Y011592D01*
X027721Y011751D02*
X027660Y011751D01*
X027660Y011275D02*
X027720Y011275D01*
X027720Y011117D02*
X027660Y011117D01*
X027620Y010958D02*
X027762Y010958D01*
X027880Y010800D02*
X027508Y010800D01*
X025407Y009849D02*
X032203Y009849D01*
X032361Y010007D02*
X025249Y010007D01*
X025460Y009690D02*
X032044Y009690D01*
X031919Y009532D02*
X025460Y009532D01*
X025460Y009373D02*
X031900Y009373D01*
X031900Y009215D02*
X025460Y009215D01*
X025513Y009056D02*
X025847Y009056D01*
X025738Y008898D02*
X025622Y008898D01*
X025660Y008739D02*
X025700Y008739D01*
X025700Y008581D02*
X025660Y008581D01*
X026513Y009056D02*
X026847Y009056D01*
X026738Y008898D02*
X026622Y008898D01*
X026660Y008739D02*
X026700Y008739D01*
X026700Y008581D02*
X026660Y008581D01*
X027513Y009056D02*
X027847Y009056D01*
X027738Y008898D02*
X027622Y008898D01*
X028513Y009056D02*
X028875Y009056D01*
X028759Y008898D02*
X028622Y008898D01*
X028660Y008739D02*
X028720Y008739D01*
X028720Y008581D02*
X028660Y008581D01*
X028660Y008422D02*
X028720Y008422D01*
X028720Y008264D02*
X028660Y008264D01*
X028660Y008105D02*
X028721Y008105D01*
X028767Y007947D02*
X028615Y007947D01*
X028600Y007788D02*
X028760Y007788D01*
X028760Y007630D02*
X028600Y007630D01*
X028600Y007471D02*
X028760Y007471D01*
X028760Y007313D02*
X028600Y007313D01*
X027719Y006837D02*
X026991Y006837D01*
X026631Y006679D02*
X027751Y006679D01*
X027814Y006520D02*
X027528Y006520D01*
X027758Y006362D02*
X027913Y006362D01*
X027916Y006203D02*
X028067Y006203D01*
X028075Y006045D02*
X028343Y006045D01*
X029609Y006679D02*
X029657Y006679D01*
X029641Y006837D02*
X029837Y006837D01*
X030085Y007670D02*
X030275Y007670D01*
X030452Y007743D01*
X030587Y007878D01*
X030660Y008055D01*
X030660Y008805D01*
X030587Y008982D01*
X030452Y009117D01*
X030275Y009190D01*
X030085Y009190D01*
X029908Y009117D01*
X029773Y008982D01*
X029700Y008805D01*
X029700Y008055D01*
X029773Y007878D01*
X029908Y007743D01*
X030085Y007670D01*
X029863Y007788D02*
X029464Y007788D01*
X029593Y007947D02*
X029745Y007947D01*
X029700Y008105D02*
X029639Y008105D01*
X029640Y008264D02*
X029700Y008264D01*
X029700Y008422D02*
X029640Y008422D01*
X029640Y008581D02*
X029700Y008581D01*
X029700Y008739D02*
X029640Y008739D01*
X029601Y008898D02*
X029738Y008898D01*
X029847Y009056D02*
X029485Y009056D01*
X029180Y009056D02*
X029180Y009056D01*
X029180Y008898D02*
X029180Y008898D01*
X029180Y008739D02*
X029180Y008739D01*
X029180Y008581D02*
X029180Y008581D01*
X030513Y009056D02*
X030847Y009056D01*
X030908Y009117D02*
X030773Y008982D01*
X030700Y008805D01*
X030700Y008055D01*
X030773Y007878D01*
X030908Y007743D01*
X031085Y007670D01*
X031275Y007670D01*
X031452Y007743D01*
X031587Y007878D01*
X031660Y008055D01*
X031660Y008805D01*
X031587Y008982D01*
X031452Y009117D01*
X031275Y009190D01*
X031085Y009190D01*
X030908Y009117D01*
X030738Y008898D02*
X030622Y008898D01*
X030660Y008739D02*
X030700Y008739D01*
X030700Y008581D02*
X030660Y008581D01*
X030660Y008422D02*
X030700Y008422D01*
X030700Y008264D02*
X030660Y008264D01*
X030660Y008105D02*
X030700Y008105D01*
X030745Y007947D02*
X030615Y007947D01*
X030497Y007788D02*
X030863Y007788D01*
X031497Y007788D02*
X031863Y007788D01*
X031745Y007947D02*
X031615Y007947D01*
X031660Y008105D02*
X031700Y008105D01*
X031700Y008264D02*
X031660Y008264D01*
X031660Y008422D02*
X031700Y008422D01*
X031700Y008581D02*
X031660Y008581D01*
X031660Y008739D02*
X031700Y008739D01*
X031738Y008898D02*
X031622Y008898D01*
X031513Y009056D02*
X031847Y009056D01*
X032180Y009430D02*
X032680Y009930D01*
X032680Y012180D01*
X033501Y012068D02*
X033859Y012068D01*
X033743Y011909D02*
X033617Y011909D01*
X033660Y011751D02*
X033700Y011751D01*
X033700Y011592D02*
X033660Y011592D01*
X033660Y011434D02*
X033700Y011434D01*
X033700Y011275D02*
X033660Y011275D01*
X033660Y011117D02*
X033700Y011117D01*
X033740Y010958D02*
X033620Y010958D01*
X033508Y010800D02*
X033852Y010800D01*
X032180Y009430D02*
X032180Y008430D01*
X036641Y008898D02*
X037388Y008898D01*
X037820Y010958D02*
X036637Y010958D01*
X036795Y011117D02*
X037820Y011117D01*
X037820Y011275D02*
X036910Y011275D01*
X036910Y011434D02*
X037820Y011434D01*
X037820Y011592D02*
X037271Y011592D01*
X037410Y011751D02*
X037820Y011751D01*
X037820Y011909D02*
X037410Y011909D01*
X037410Y012068D02*
X037820Y012068D01*
X037820Y012226D02*
X037313Y012226D01*
X037154Y012385D02*
X037820Y012385D01*
X037820Y012543D02*
X036613Y012543D01*
X036841Y012702D02*
X037820Y012702D01*
X037820Y012860D02*
X036978Y012860D01*
X037066Y013019D02*
X037820Y013019D01*
X037820Y013177D02*
X037119Y013177D01*
X036260Y013177D02*
X036100Y013177D01*
X036100Y013019D02*
X036260Y013019D01*
X036260Y012860D02*
X036100Y012860D01*
X036100Y012702D02*
X036260Y012702D01*
X036260Y012543D02*
X036100Y012543D01*
X036100Y013653D02*
X036260Y013653D01*
X036260Y013811D02*
X036100Y013811D01*
X036100Y013970D02*
X036260Y013970D01*
X036260Y014128D02*
X036100Y014128D01*
X036100Y014287D02*
X036260Y014287D01*
X037430Y014921D02*
X034835Y014921D01*
X034949Y014762D02*
X037589Y014762D01*
X037747Y014604D02*
X034960Y014604D01*
X034400Y014445D02*
X033729Y014445D01*
X033780Y014287D02*
X034400Y014287D01*
X034400Y014128D02*
X033783Y014128D01*
X033787Y014152D02*
X033787Y014177D01*
X033246Y014177D01*
X033246Y013636D01*
X033271Y013636D01*
X033358Y013650D01*
X033442Y013677D01*
X033521Y013717D01*
X033592Y013769D01*
X033654Y013831D01*
X033706Y013902D01*
X033746Y013981D01*
X033773Y014065D01*
X033787Y014152D01*
X033740Y013970D02*
X034400Y013970D01*
X034400Y013811D02*
X033634Y013811D01*
X033368Y013653D02*
X034400Y013653D01*
X033246Y013653D02*
X033209Y013653D01*
X033209Y013636D02*
X033209Y014177D01*
X032667Y014177D01*
X032667Y014152D01*
X032681Y014065D01*
X032708Y013981D01*
X032748Y013902D01*
X032800Y013831D01*
X032862Y013769D01*
X032934Y013717D01*
X033012Y013677D01*
X033096Y013650D01*
X033183Y013636D01*
X033209Y013636D01*
X033087Y013653D02*
X031960Y013653D01*
X031960Y013811D02*
X032820Y013811D01*
X032714Y013970D02*
X031960Y013970D01*
X031960Y014128D02*
X032671Y014128D01*
X032675Y014287D02*
X031960Y014287D01*
X031960Y014445D02*
X032726Y014445D01*
X032843Y014604D02*
X031960Y014604D01*
X031949Y014762D02*
X032825Y014762D01*
X032707Y014921D02*
X031835Y014921D01*
X031839Y014917D02*
X031839Y014917D01*
X031677Y015079D02*
X032647Y015079D01*
X032647Y015238D02*
X031518Y015238D01*
X031417Y015339D02*
X031417Y015339D01*
X031360Y015396D02*
X032689Y015396D01*
X032782Y015555D02*
X029814Y015555D01*
X029972Y015713D02*
X032858Y015713D01*
X034360Y015396D02*
X035205Y015396D01*
X034677Y015079D02*
X037272Y015079D01*
X037113Y015238D02*
X034518Y015238D01*
X034202Y014762D02*
X033630Y014762D01*
X033611Y014604D02*
X034360Y014604D01*
X033246Y014128D02*
X033209Y014128D01*
X033209Y013970D02*
X033246Y013970D01*
X033246Y013811D02*
X033209Y013811D01*
X031400Y013811D02*
X029560Y013811D01*
X029617Y013653D02*
X031400Y013653D01*
X031400Y013494D02*
X029644Y013494D01*
X029619Y013177D02*
X031400Y013177D01*
X031400Y013336D02*
X028760Y013336D01*
X028760Y013494D02*
X028600Y013494D01*
X028600Y013488D02*
X028600Y014373D01*
X028518Y014364D01*
X028412Y014339D01*
X028309Y014304D01*
X028211Y014256D01*
X028119Y014199D01*
X028034Y014131D01*
X027958Y014054D01*
X027890Y013969D01*
X027832Y013877D01*
X027785Y013779D01*
X027749Y013677D01*
X027725Y013571D01*
X027715Y013488D01*
X028600Y013488D01*
X028600Y013336D02*
X026800Y013336D01*
X026800Y013443D02*
X026800Y013217D01*
X026713Y013007D01*
X026553Y012847D01*
X026343Y012760D01*
X026117Y012760D01*
X025907Y012847D01*
X025747Y013007D01*
X025718Y013076D01*
X025700Y013042D01*
X025650Y012972D01*
X025588Y012910D01*
X025518Y012860D01*
X025441Y012820D01*
X025359Y012794D01*
X025273Y012780D01*
X025230Y012780D01*
X025230Y013330D01*
X025230Y013330D01*
X025230Y013880D01*
X025264Y013880D01*
X025248Y013902D01*
X025208Y013981D01*
X025181Y014065D01*
X025167Y014152D01*
X025167Y014177D01*
X025709Y014177D01*
X025709Y013636D01*
X025688Y013636D01*
X025700Y013618D01*
X025718Y013584D01*
X025746Y013650D01*
X025746Y014177D01*
X026287Y014177D01*
X026287Y014152D01*
X026273Y014065D01*
X026246Y013981D01*
X026206Y013902D01*
X026205Y013900D01*
X026343Y013900D01*
X026553Y013813D01*
X026713Y013653D01*
X026800Y013443D01*
X026779Y013494D02*
X027716Y013494D01*
X027743Y013653D02*
X026713Y013653D01*
X026555Y013811D02*
X027800Y013811D01*
X027890Y013970D02*
X026240Y013970D01*
X026283Y014128D02*
X028032Y014128D01*
X028274Y014287D02*
X026280Y014287D01*
X026229Y014445D02*
X031400Y014445D01*
X031400Y014287D02*
X029086Y014287D01*
X029328Y014128D02*
X031400Y014128D01*
X031400Y013970D02*
X029470Y013970D01*
X028760Y013970D02*
X028600Y013970D01*
X028600Y014128D02*
X028760Y014128D01*
X028760Y014287D02*
X028600Y014287D01*
X028600Y013811D02*
X028760Y013811D01*
X028760Y013653D02*
X028600Y013653D01*
X027741Y013177D02*
X026784Y013177D01*
X026718Y013019D02*
X027794Y013019D01*
X027882Y012860D02*
X026566Y012860D01*
X025894Y012860D02*
X025519Y012860D01*
X025684Y013019D02*
X025742Y013019D01*
X025230Y013019D02*
X025230Y013019D01*
X025230Y013177D02*
X025230Y013177D01*
X025230Y013330D02*
X025230Y013330D01*
X025230Y013880D01*
X025187Y013880D01*
X025101Y013866D01*
X025019Y013840D01*
X024942Y013800D01*
X024872Y013750D01*
X024810Y013688D01*
X024760Y013618D01*
X024742Y013584D01*
X024713Y013653D01*
X024553Y013813D01*
X024343Y013900D01*
X024117Y013900D01*
X023907Y013813D01*
X023747Y013653D01*
X023660Y013443D01*
X023660Y013217D01*
X023747Y013007D01*
X023907Y012847D01*
X024117Y012760D01*
X024343Y012760D01*
X024553Y012847D01*
X024713Y013007D01*
X024742Y013076D01*
X024760Y013042D01*
X024810Y012972D01*
X024872Y012910D01*
X024942Y012860D01*
X025019Y012820D01*
X025101Y012794D01*
X025187Y012780D01*
X025230Y012780D01*
X025230Y013330D01*
X025230Y013336D02*
X025230Y013336D01*
X025230Y013494D02*
X025230Y013494D01*
X025230Y013653D02*
X025230Y013653D01*
X025230Y013811D02*
X025230Y013811D01*
X025214Y013970D02*
X021970Y013970D01*
X022060Y013811D02*
X023905Y013811D01*
X023747Y013653D02*
X022117Y013653D01*
X022144Y013494D02*
X023681Y013494D01*
X023660Y013336D02*
X021260Y013336D01*
X021260Y013494D02*
X021100Y013494D01*
X021100Y013488D02*
X021100Y014373D01*
X021018Y014364D01*
X020912Y014339D01*
X020809Y014304D01*
X020711Y014256D01*
X020619Y014199D01*
X020534Y014131D01*
X020458Y014054D01*
X020390Y013969D01*
X020332Y013877D01*
X020285Y013779D01*
X020249Y013677D01*
X020225Y013571D01*
X020215Y013488D01*
X021100Y013488D01*
X021100Y013336D02*
X017765Y013336D01*
X017765Y013177D02*
X020241Y013177D01*
X020294Y013019D02*
X017765Y013019D01*
X017661Y012860D02*
X020382Y012860D01*
X020216Y013494D02*
X017617Y013494D01*
X017305Y013494D02*
X017305Y013494D01*
X017305Y013336D02*
X017305Y013336D01*
X017305Y013177D02*
X017305Y013177D01*
X016845Y013177D02*
X016079Y013177D01*
X015960Y013336D02*
X016845Y013336D01*
X016993Y013494D02*
X016098Y013494D01*
X016235Y013653D02*
X018087Y013653D01*
X018096Y013650D02*
X018183Y013636D01*
X018209Y013636D01*
X018209Y014177D01*
X017667Y014177D01*
X017667Y014152D01*
X017681Y014065D01*
X017708Y013981D01*
X017748Y013902D01*
X017800Y013831D01*
X017862Y013769D01*
X017934Y013717D01*
X018012Y013677D01*
X018096Y013650D01*
X018209Y013653D02*
X018246Y013653D01*
X018246Y013636D02*
X018271Y013636D01*
X018358Y013650D01*
X018442Y013677D01*
X018521Y013717D01*
X018592Y013769D01*
X018654Y013831D01*
X018706Y013902D01*
X018746Y013981D01*
X018773Y014065D01*
X018787Y014152D01*
X018787Y014177D01*
X018246Y014177D01*
X018246Y013636D01*
X018368Y013653D02*
X020243Y013653D01*
X020300Y013811D02*
X018634Y013811D01*
X018740Y013970D02*
X020390Y013970D01*
X020532Y014128D02*
X018783Y014128D01*
X018780Y014287D02*
X020774Y014287D01*
X021100Y014287D02*
X021260Y014287D01*
X021260Y014128D02*
X021100Y014128D01*
X021100Y013970D02*
X021260Y013970D01*
X021260Y013811D02*
X021100Y013811D01*
X021100Y013653D02*
X021260Y013653D01*
X021828Y014128D02*
X025171Y014128D01*
X025175Y014287D02*
X021586Y014287D01*
X022119Y013177D02*
X023676Y013177D01*
X023742Y013019D02*
X022066Y013019D01*
X021978Y012860D02*
X023894Y012860D01*
X024566Y012860D02*
X024941Y012860D01*
X024776Y013019D02*
X024718Y013019D01*
X025230Y012860D02*
X025230Y012860D01*
X024784Y013653D02*
X024713Y013653D01*
X024555Y013811D02*
X024963Y013811D01*
X025709Y013811D02*
X025746Y013811D01*
X025746Y013653D02*
X025709Y013653D01*
X025709Y013970D02*
X025746Y013970D01*
X025746Y014128D02*
X025709Y014128D01*
X025226Y014445D02*
X018729Y014445D01*
X018611Y014604D02*
X025343Y014604D01*
X025325Y014762D02*
X018630Y014762D01*
X018748Y014921D02*
X025207Y014921D01*
X025147Y015079D02*
X018807Y015079D01*
X018807Y015238D02*
X025147Y015238D01*
X026130Y014762D02*
X031202Y014762D01*
X031360Y014604D02*
X026111Y014604D01*
X025727Y016164D02*
X025696Y016164D01*
X025680Y016180D01*
X022722Y016981D02*
X021260Y016981D01*
X020425Y016347D02*
X018856Y016347D01*
X018807Y016189D02*
X020585Y016189D01*
X020321Y016506D02*
X019015Y016506D01*
X019173Y016664D02*
X020256Y016664D01*
X020221Y016823D02*
X019332Y016823D01*
X018789Y017298D02*
X017035Y017298D01*
X017035Y017281D02*
X017035Y017679D01*
X016754Y017960D01*
X016708Y017960D01*
X016708Y017961D01*
X016736Y018047D01*
X016750Y018135D01*
X016750Y018162D01*
X016198Y018162D01*
X016198Y018198D01*
X016750Y018198D01*
X016750Y018225D01*
X016736Y018313D01*
X016708Y018399D01*
X016668Y018479D01*
X016615Y018551D01*
X016551Y018615D01*
X016479Y018668D01*
X016454Y018680D01*
X016479Y018692D01*
X016551Y018745D01*
X016615Y018809D01*
X016668Y018881D01*
X016708Y018961D01*
X016736Y019047D01*
X016750Y019135D01*
X016750Y019162D01*
X016198Y019162D01*
X016198Y019198D01*
X016750Y019198D01*
X016750Y019225D01*
X016736Y019313D01*
X016708Y019399D01*
X016668Y019479D01*
X016615Y019551D01*
X016551Y019615D01*
X016503Y019650D01*
X019564Y019650D01*
X019690Y019524D01*
X019680Y019514D01*
X019590Y019297D01*
X019590Y019063D01*
X019680Y018846D01*
X019846Y018680D01*
X019680Y018514D01*
X019590Y018297D01*
X019590Y018099D01*
X018235Y016744D01*
X018181Y016744D01*
X017757Y017169D01*
X017610Y017230D01*
X016984Y017230D01*
X017035Y017281D01*
X017035Y017457D02*
X018947Y017457D01*
X019106Y017615D02*
X017035Y017615D01*
X016940Y017774D02*
X019264Y017774D01*
X019423Y017932D02*
X016782Y017932D01*
X016743Y018091D02*
X019581Y018091D01*
X019590Y018249D02*
X016746Y018249D01*
X016704Y018408D02*
X019636Y018408D01*
X019732Y018566D02*
X016600Y018566D01*
X016523Y018725D02*
X019801Y018725D01*
X019664Y018883D02*
X016668Y018883D01*
X016734Y019042D02*
X019599Y019042D01*
X019590Y019200D02*
X016750Y019200D01*
X016721Y019359D02*
X019615Y019359D01*
X019683Y019517D02*
X016640Y019517D01*
X016198Y019162D02*
X016198Y018610D01*
X016198Y018198D01*
X016162Y018198D01*
X016162Y018162D01*
X015610Y018162D01*
X015610Y018135D01*
X015624Y018047D01*
X015652Y017961D01*
X015692Y017881D01*
X015745Y017809D01*
X015809Y017745D01*
X015881Y017692D01*
X015961Y017652D01*
X016047Y017624D01*
X016075Y017620D01*
X016075Y017281D01*
X016126Y017230D01*
X016034Y017230D01*
X015954Y017310D01*
X015556Y017310D01*
X015476Y017230D01*
X015184Y017230D01*
X015104Y017310D01*
X014706Y017310D01*
X014626Y017230D01*
X013710Y017230D01*
X013195Y017810D01*
X013391Y017810D01*
X013655Y018074D01*
X013919Y017810D01*
X014391Y017810D01*
X014725Y018144D01*
X014725Y018616D01*
X014461Y018880D01*
X014725Y019144D01*
X014725Y019616D01*
X014691Y019650D01*
X015857Y019650D01*
X015809Y019615D01*
X015745Y019551D01*
X015692Y019479D01*
X015652Y019399D01*
X015624Y019313D01*
X015610Y019225D01*
X015610Y019198D01*
X016162Y019198D01*
X016162Y019162D01*
X015610Y019162D01*
X015610Y019135D01*
X015624Y019047D01*
X015652Y018961D01*
X015692Y018881D01*
X015745Y018809D01*
X015809Y018745D01*
X015881Y018692D01*
X015906Y018680D01*
X015881Y018668D01*
X015809Y018615D01*
X015745Y018551D01*
X015692Y018479D01*
X015652Y018399D01*
X015624Y018313D01*
X015610Y018225D01*
X015610Y018198D01*
X016162Y018198D01*
X016162Y019162D01*
X016198Y019162D01*
X016198Y019042D02*
X016162Y019042D01*
X016162Y018883D02*
X016198Y018883D01*
X016198Y018725D02*
X016162Y018725D01*
X016162Y018566D02*
X016198Y018566D01*
X016198Y018408D02*
X016162Y018408D01*
X016162Y018249D02*
X016198Y018249D01*
X015760Y018566D02*
X014725Y018566D01*
X014725Y018408D02*
X015656Y018408D01*
X015614Y018249D02*
X014725Y018249D01*
X014672Y018091D02*
X015617Y018091D01*
X015667Y017932D02*
X014513Y017932D01*
X013797Y017932D02*
X013513Y017932D01*
X013228Y017774D02*
X015780Y017774D01*
X016075Y017615D02*
X013368Y017615D01*
X013509Y017457D02*
X016075Y017457D01*
X016075Y017298D02*
X015966Y017298D01*
X015544Y017298D02*
X015116Y017298D01*
X014694Y017298D02*
X013650Y017298D01*
X014659Y016347D02*
X016825Y016347D01*
X016825Y016189D02*
X014817Y016189D01*
X014976Y016030D02*
X016825Y016030D01*
X016910Y015872D02*
X015134Y015872D01*
X015185Y015713D02*
X017068Y015713D01*
X017542Y015713D02*
X017858Y015713D01*
X017782Y015555D02*
X015185Y015555D01*
X015185Y015396D02*
X017689Y015396D01*
X017647Y015238D02*
X015185Y015238D01*
X015185Y015079D02*
X017647Y015079D01*
X017707Y014921D02*
X016765Y014921D01*
X016746Y014940D02*
X016555Y014940D01*
X016555Y014480D01*
X016555Y014480D01*
X017015Y014480D01*
X017015Y014671D01*
X016746Y014940D01*
X016555Y014940D02*
X016364Y014940D01*
X016095Y014671D01*
X016095Y014480D01*
X016555Y014480D01*
X016555Y014480D01*
X016555Y014480D01*
X016555Y014940D01*
X016555Y014921D02*
X016555Y014921D01*
X016555Y014762D02*
X016555Y014762D01*
X016555Y014604D02*
X016555Y014604D01*
X016555Y014480D02*
X016095Y014480D01*
X016095Y014289D01*
X016364Y014020D01*
X016555Y014020D01*
X016746Y014020D01*
X017015Y014289D01*
X017015Y014480D01*
X016555Y014480D01*
X016555Y014020D01*
X016555Y014480D01*
X016555Y014480D01*
X016555Y014445D02*
X016555Y014445D01*
X016555Y014287D02*
X016555Y014287D01*
X016555Y014128D02*
X016555Y014128D01*
X016854Y014128D02*
X017671Y014128D01*
X017675Y014287D02*
X017012Y014287D01*
X017015Y014445D02*
X017726Y014445D01*
X017843Y014604D02*
X017015Y014604D01*
X016924Y014762D02*
X017825Y014762D01*
X018209Y014128D02*
X018246Y014128D01*
X018246Y013970D02*
X018209Y013970D01*
X018209Y013811D02*
X018246Y013811D01*
X017820Y013811D02*
X016235Y013811D01*
X016235Y013970D02*
X017714Y013970D01*
X016256Y014128D02*
X016136Y014128D01*
X016098Y014287D02*
X015977Y014287D01*
X016095Y014445D02*
X015185Y014445D01*
X015185Y014287D02*
X015533Y014287D01*
X015374Y014128D02*
X015286Y014128D01*
X015185Y014604D02*
X016095Y014604D01*
X016186Y014762D02*
X015185Y014762D01*
X015185Y014921D02*
X016345Y014921D01*
X017700Y015872D02*
X017721Y015872D01*
X018180Y016180D02*
X018211Y016180D01*
X018227Y016164D01*
X018313Y016823D02*
X018103Y016823D01*
X017945Y016981D02*
X018472Y016981D01*
X018630Y017140D02*
X017786Y017140D01*
X015837Y018725D02*
X014617Y018725D01*
X014464Y018883D02*
X015692Y018883D01*
X015626Y019042D02*
X014623Y019042D01*
X014725Y019200D02*
X015610Y019200D01*
X015639Y019359D02*
X014725Y019359D01*
X014725Y019517D02*
X015720Y019517D01*
X020172Y019834D02*
X023549Y019834D01*
X023391Y019676D02*
X020519Y019676D01*
X020677Y019517D02*
X023375Y019517D01*
X023375Y019430D02*
X023375Y019200D01*
X023375Y019359D02*
X020745Y019359D01*
X023375Y019430D02*
X023930Y019430D01*
X023930Y019430D01*
X023930Y019430D01*
X023930Y018875D01*
X023930Y018883D02*
X023930Y018883D01*
X023930Y019042D02*
X023930Y019042D01*
X023930Y019200D02*
X023930Y019200D01*
X023930Y019359D02*
X023930Y019359D01*
X024485Y019517D02*
X032371Y019517D01*
X032541Y019676D02*
X024469Y019676D01*
X024311Y019834D02*
X040027Y019834D01*
X035355Y017457D02*
X034972Y017457D01*
X034814Y017298D02*
X035276Y017298D01*
X035231Y017140D02*
X034655Y017140D01*
X031445Y013019D02*
X029566Y013019D01*
X029478Y012860D02*
X031604Y012860D01*
X031756Y012702D02*
X031763Y012702D01*
X031680Y012430D02*
X016430Y012430D01*
X015680Y013180D01*
X015680Y013755D01*
X015755Y013830D01*
X016237Y013019D02*
X016845Y013019D01*
X016949Y012860D02*
X016396Y012860D01*
X016680Y011430D02*
X019930Y011430D01*
X021430Y009930D01*
X022680Y009930D01*
X023180Y009430D01*
X023180Y008430D01*
X013400Y013811D02*
X011013Y013811D01*
X011172Y013970D02*
X013400Y013970D01*
X013400Y014128D02*
X011284Y014128D01*
X011349Y014287D02*
X013267Y014287D01*
X013160Y014445D02*
X011380Y014445D01*
X011380Y014604D02*
X013110Y014604D01*
X013110Y014762D02*
X011380Y014762D01*
X009815Y013494D02*
X007545Y013494D01*
X007660Y013336D02*
X009700Y013336D01*
X009700Y013177D02*
X007660Y013177D01*
X007759Y013019D02*
X009700Y013019D01*
X009615Y012702D02*
X009980Y012702D01*
X011130Y013180D02*
X011680Y012630D01*
X012000Y011909D02*
X010014Y011909D01*
X009074Y011912D02*
X008523Y011912D01*
X007180Y013180D01*
X006700Y013177D02*
X005852Y013177D01*
X006010Y013019D02*
X006700Y013019D01*
X006821Y012860D02*
X006169Y012860D01*
X006327Y012702D02*
X006980Y012702D01*
X007447Y012543D02*
X006353Y012543D01*
X006353Y012385D02*
X007615Y012385D01*
X006700Y013336D02*
X005176Y013336D01*
X005337Y013494D02*
X006815Y013494D01*
X006974Y013653D02*
X005498Y013653D01*
X005659Y013811D02*
X006347Y013811D01*
X006188Y013970D02*
X005821Y013970D01*
X005963Y014128D02*
X006076Y014128D01*
X006011Y014287D02*
X006000Y014287D01*
X005360Y014445D02*
X004069Y014445D01*
X004069Y014287D02*
X005230Y014287D01*
X005069Y014128D02*
X004069Y014128D01*
X004069Y013970D02*
X004908Y013970D01*
X004747Y013811D02*
X004069Y013811D01*
X003935Y013653D02*
X004585Y013653D01*
X004424Y013494D02*
X003777Y013494D01*
X003618Y013336D02*
X004263Y013336D01*
X004031Y014604D02*
X005360Y014604D01*
X005360Y014762D02*
X003873Y014762D01*
X003714Y014921D02*
X005360Y014921D01*
X005360Y015079D02*
X003556Y015079D01*
X007472Y013970D02*
X008067Y013970D01*
X007954Y014128D02*
X007584Y014128D01*
X007649Y014287D02*
X007886Y014287D01*
X007854Y014445D02*
X007680Y014445D01*
X007680Y014604D02*
X007850Y014604D01*
X007850Y014762D02*
X007680Y014762D01*
X007680Y014921D02*
X007850Y014921D01*
X007850Y015079D02*
X007680Y015079D01*
X007825Y017932D02*
X007513Y017932D01*
X008135Y018400D02*
X008135Y019360D01*
X008175Y019360D01*
X008175Y018830D01*
X008175Y018400D01*
X008135Y018400D01*
X008135Y018408D02*
X008175Y018408D01*
X008175Y018566D02*
X008135Y018566D01*
X008135Y018725D02*
X008175Y018725D01*
X008175Y018883D02*
X008135Y018883D01*
X008135Y019042D02*
X008175Y019042D01*
X008175Y019200D02*
X008135Y019200D01*
X008135Y019359D02*
X008175Y019359D01*
X001497Y011751D02*
X001440Y011751D01*
X001440Y011592D02*
X001655Y011592D01*
X001814Y011434D02*
X001440Y011434D01*
X001440Y008105D02*
X001701Y008105D01*
X001542Y007947D02*
X001440Y007947D01*
X001440Y005886D02*
X002235Y005886D01*
X002077Y005728D02*
X001440Y005728D01*
X001440Y005569D02*
X001970Y005569D01*
X001970Y005411D02*
X001440Y005411D01*
X001440Y005252D02*
X001970Y005252D01*
X002116Y005094D02*
X001440Y005094D01*
D24*
X014430Y012930D03*
X030430Y005680D03*
D25*
X029980Y006505D02*
X029305Y005680D01*
X027930Y005680D01*
X027446Y006164D01*
X025727Y006164D01*
X025711Y006180D01*
X025680Y006180D01*
X022430Y006180D01*
X021930Y005680D01*
X020430Y005680D01*
X019946Y006164D01*
X018227Y006164D01*
X026655Y007180D02*
X026680Y007180D01*
X027180Y007680D01*
X027180Y008430D01*
X028180Y008430D01*
X029980Y006505D02*
X032886Y006505D01*
X033227Y006164D01*
X033211Y006180D01*
X033227Y006164D02*
X033243Y006180D01*
X034180Y006180D01*
X034680Y005680D01*
X036680Y005680D01*
X038180Y007180D01*
X038180Y007680D01*
X037430Y008430D01*
X038180Y009180D01*
X038180Y014680D01*
X037180Y015680D01*
X035430Y015680D01*
X034946Y016164D01*
X034280Y016164D01*
X033227Y016164D01*
X033211Y016180D01*
X029930Y016180D01*
X029430Y015680D01*
X027930Y015680D01*
X027446Y016164D01*
X025727Y016164D01*
X025680Y016180D02*
X022430Y016180D01*
X023680Y017430D01*
X023930Y017430D01*
X022430Y016180D02*
X021930Y015680D01*
X018711Y015680D01*
X018227Y016164D01*
X018227Y016227D02*
X020180Y018180D01*
X012155Y018380D02*
X012155Y019380D01*
X011155Y019380D02*
X011155Y018380D01*
X036430Y008430D02*
X037430Y008430D01*
D26*
X018180Y016180D02*
X017530Y016830D01*
X015755Y016830D01*
X014905Y016830D01*
X013530Y016830D01*
X012155Y018380D01*
D27*
X011155Y018380D02*
X010205Y017430D01*
X009480Y017430D01*
X008855Y016805D01*
X006455Y016805D01*
X005680Y016030D01*
X005680Y014280D01*
X004180Y012805D01*
X004180Y010680D01*
X006930Y007930D01*
X006930Y007180D01*
X007680Y006680D01*
X007680Y001930D01*
X007430Y001680D01*
X007180Y001680D01*
X025680Y006180D02*
X026655Y007155D01*
X026655Y007180D01*
X028680Y006930D02*
X028930Y006930D01*
X029180Y007180D01*
X029180Y008430D01*
X033227Y016164D02*
X035180Y018117D01*
X035180Y018680D01*
X018227Y016227D02*
X018227Y016164D01*
D28*
X039180Y019180D03*
M02*
