%
M48
M72
T01C0.0236
T02C0.0315
T03C0.0320
T04C0.0394
T05C0.0400
T06C0.0512
T07C0.0787
T08C0.0800
T09C0.1181
%
T01
X14430Y12930
X30430Y5680
T02
X26230Y13330
X25230Y13330
X24230Y13330
T03
X24180Y11430
X25180Y11430
X26180Y11430
X27180Y11430
X28180Y11430
X29180Y11430
X30180Y11430
X31180Y11430
X32180Y11430
X33180Y11430
X34180Y11430
X35180Y11430
X36430Y11430
X36930Y11930
X38930Y11930
X36430Y8430
X35180Y8430
X34180Y8430
X33180Y8430
X32180Y8430
X31180Y8430
X30180Y8430
X29180Y8430
X28180Y8430
X27180Y8430
X26180Y8430
X25180Y8430
X24180Y8430
X23180Y8430
X22180Y8430
X24655Y7180
X26655Y7180
X18680Y9680
X17405Y9755
X18680Y10680
X22180Y11430
X23180Y11430
X17305Y13155
X15755Y13830
X14905Y13830
X16555Y14480
X13680Y14680
X13680Y15680
X12630Y16705
X11630Y16705
X11180Y17405
X12130Y17455
X14905Y16830
X15755Y16830
X16555Y17480
X17305Y16155
X12430Y13130
X11680Y12630
X12430Y12130
X10180Y13180
X7180Y13180
X5180Y15605
X2180Y15605
X8180Y17405
X5430Y10430
X2430Y10430
X6930Y7180
X9930Y7180
X10680Y7180
X12180Y7180
X12930Y7680
X12180Y8180
X13680Y8180
X16680Y8180
X17405Y6755
X15180Y6680
X13680Y5680
X13680Y4680
X15180Y3680
X12180Y2680
X12930Y2180
X12180Y1680
X13930Y2180
X16930Y2180
X10180Y1680
X10180Y2680
X7180Y2680
X7180Y1680
X5430Y5430
X2430Y5430
X10680Y10180
X23930Y17430
X23930Y19430
T04
X20180Y19180
X20180Y18180
X16180Y18180
X16180Y19180
X18227Y16164
X18227Y15180
X18227Y14196
X25727Y14196
X25727Y15180
X25727Y16164
X33227Y16164
X33227Y15180
X33227Y14196
X33227Y6164
X33227Y5180
X33227Y4196
X25727Y4196
X25727Y5180
X25727Y6164
X18227Y6164
X18227Y5180
X18227Y4196
T05
X14155Y18380
X13155Y18380
X12155Y18380
X11155Y18380
X10155Y18380
X9155Y18380
X8155Y18380
X7155Y18380
X7155Y19380
X8155Y19380
X9155Y19380
X10155Y19380
X11155Y19380
X12155Y19380
X13155Y19380
X14155Y19380
X32180Y18680
X33180Y18680
X34180Y18680
X35180Y18680
X36180Y18680
X37180Y18680
T06
X39180Y19180
T07
X15727Y10180
X13680Y10180
X11633Y10180
X10727Y15180
X8680Y15180
X6633Y15180
X6633Y5180
X8680Y5180
X10727Y5180
T08
X21180Y3408
X28680Y3408
X28680Y6952
X21180Y6952
X21180Y13408
X28680Y13408
X28680Y16952
X21180Y16952
X36180Y16952
X36180Y13408
X36180Y6952
X36180Y3408
T09
X2223Y2326
X5412Y2286
X3129Y4176
X2223Y7326
X5412Y7286
X9034Y8723
X7184Y9629
X3129Y9176
X9074Y11912
X5412Y12286
X2223Y12326
X3129Y14176
X5412Y17286
X2223Y17326
X3129Y19176
X39180Y17680
X39180Y2680
M30
