G75*
%MOIN*%
%OFA0B0*%
%FSLAX24Y24*%
%IPPOS*%
%LPD*%
%AMOC8*
5,1,8,0,0,1.08239X$1,22.5*
%
%ADD10C,0.0120*%
%ADD11C,0.0060*%
%ADD12C,0.0040*%
%ADD13C,0.0020*%
%ADD14C,0.0070*%
%ADD15C,0.0080*%
%ADD16C,0.0050*%
%ADD17R,0.0200X0.0150*%
%ADD18R,0.0150X0.0200*%
%ADD19C,0.0100*%
%ADD20C,0.0030*%
%ADD21C,0.0010*%
%ADD22R,0.0200X0.0800*%
D10*
X004260Y001680D02*
X004260Y039255D01*
X004259Y039255D02*
X004259Y039299D01*
X004263Y039342D01*
X004270Y039384D01*
X004280Y039426D01*
X004294Y039467D01*
X004312Y039507D01*
X004332Y039545D01*
X004356Y039581D01*
X004382Y039615D01*
X004412Y039647D01*
X004443Y039677D01*
X004477Y039703D01*
X004514Y039727D01*
X004552Y039747D01*
X004591Y039765D01*
X004632Y039779D01*
X004674Y039790D01*
X004716Y039797D01*
X004759Y039801D01*
X004760Y039800D02*
X022960Y039800D01*
X023015Y039796D01*
X023069Y039788D01*
X023122Y039777D01*
X023174Y039761D01*
X023226Y039742D01*
X023275Y039719D01*
X023323Y039692D01*
X023369Y039663D01*
X023413Y039630D01*
X023454Y039594D01*
X023492Y039555D01*
X023528Y039514D01*
X023561Y039470D01*
X023590Y039424D01*
X023616Y039375D01*
X023639Y039326D01*
X023658Y039274D01*
X023673Y039222D01*
X023684Y039168D01*
X023692Y039114D01*
X023696Y039060D01*
X023695Y039005D01*
X023695Y001430D01*
X023695Y001431D02*
X023694Y001388D01*
X023689Y001345D01*
X023680Y001303D01*
X023668Y001261D01*
X023652Y001221D01*
X023633Y001183D01*
X023610Y001146D01*
X023584Y001112D01*
X023556Y001080D01*
X023525Y001050D01*
X023491Y001024D01*
X023455Y001000D01*
X023417Y000979D01*
X023378Y000962D01*
X023337Y000949D01*
X023295Y000939D01*
X023252Y000933D01*
X023210Y000930D01*
X004760Y000930D01*
X004714Y000941D01*
X004668Y000956D01*
X004624Y000974D01*
X004582Y000995D01*
X004541Y001019D01*
X004501Y001046D01*
X004464Y001077D01*
X004430Y001109D01*
X004398Y001145D01*
X004369Y001182D01*
X004342Y001222D01*
X004319Y001263D01*
X004299Y001306D01*
X004282Y001351D01*
X004268Y001397D01*
X004258Y001443D01*
X004251Y001490D01*
X004248Y001538D01*
X004249Y001585D01*
X004253Y001633D01*
X004260Y001680D01*
X019165Y024130D02*
X019165Y024430D01*
X019165Y024730D01*
X019415Y024730D02*
X019415Y024430D01*
X019415Y024130D01*
X014130Y038130D02*
X014130Y038430D01*
X014130Y038730D01*
X013880Y038730D02*
X013880Y038430D01*
X013880Y038130D01*
D11*
X013880Y038430D02*
X013510Y038430D01*
X013160Y038180D02*
X013162Y038154D01*
X013167Y038128D01*
X013175Y038103D01*
X013187Y038080D01*
X013201Y038058D01*
X013219Y038039D01*
X013238Y038021D01*
X013260Y038007D01*
X013283Y037995D01*
X013308Y037987D01*
X013334Y037982D01*
X013360Y037980D01*
X014660Y037980D01*
X014686Y037982D01*
X014712Y037987D01*
X014737Y037995D01*
X014760Y038007D01*
X014782Y038021D01*
X014801Y038039D01*
X014819Y038058D01*
X014833Y038080D01*
X014845Y038103D01*
X014853Y038128D01*
X014858Y038154D01*
X014860Y038180D01*
X014510Y038430D02*
X014130Y038430D01*
X014660Y038880D02*
X014686Y038878D01*
X014712Y038873D01*
X014737Y038865D01*
X014760Y038853D01*
X014782Y038839D01*
X014801Y038821D01*
X014819Y038802D01*
X014833Y038780D01*
X014845Y038757D01*
X014853Y038732D01*
X014858Y038706D01*
X014860Y038680D01*
X014660Y038880D02*
X013360Y038880D01*
X013334Y038878D01*
X013308Y038873D01*
X013283Y038865D01*
X013260Y038853D01*
X013238Y038839D01*
X013219Y038821D01*
X013201Y038802D01*
X013187Y038780D01*
X013175Y038757D01*
X013167Y038732D01*
X013162Y038706D01*
X013160Y038680D01*
X013110Y037330D02*
X013260Y037330D01*
X013310Y037280D01*
X014710Y037280D01*
X014760Y037330D01*
X014910Y037330D01*
X014927Y037328D01*
X014944Y037324D01*
X014960Y037317D01*
X014974Y037307D01*
X014987Y037294D01*
X014997Y037280D01*
X015004Y037264D01*
X015008Y037247D01*
X015010Y037230D01*
X015010Y036630D01*
X015008Y036613D01*
X015004Y036596D01*
X014997Y036580D01*
X014987Y036566D01*
X014974Y036553D01*
X014960Y036543D01*
X014944Y036536D01*
X014927Y036532D01*
X014910Y036530D01*
X014760Y036530D01*
X014710Y036580D01*
X013310Y036580D01*
X013260Y036530D01*
X013110Y036530D01*
X013093Y036532D01*
X013076Y036536D01*
X013060Y036543D01*
X013046Y036553D01*
X013033Y036566D01*
X013023Y036580D01*
X013016Y036596D01*
X013012Y036613D01*
X013010Y036630D01*
X013010Y037230D01*
X013012Y037247D01*
X013016Y037264D01*
X013023Y037280D01*
X013033Y037294D01*
X013046Y037307D01*
X013060Y037317D01*
X013076Y037324D01*
X013093Y037328D01*
X013110Y037330D01*
X013410Y035980D02*
X013410Y021380D01*
X015610Y021380D01*
X015610Y035980D01*
X014760Y035980D01*
X014758Y035950D01*
X014753Y035920D01*
X014744Y035891D01*
X014731Y035864D01*
X014716Y035838D01*
X014697Y035814D01*
X014676Y035793D01*
X014652Y035774D01*
X014626Y035759D01*
X014599Y035746D01*
X014570Y035737D01*
X014540Y035732D01*
X014510Y035730D01*
X014480Y035732D01*
X014450Y035737D01*
X014421Y035746D01*
X014394Y035759D01*
X014368Y035774D01*
X014344Y035793D01*
X014323Y035814D01*
X014304Y035838D01*
X014289Y035864D01*
X014276Y035891D01*
X014267Y035920D01*
X014262Y035950D01*
X014260Y035980D01*
X013410Y035980D01*
X022637Y033259D02*
X022754Y033259D01*
X022987Y033259D02*
X023455Y033259D01*
X023455Y033142D02*
X023455Y033376D01*
X023338Y033609D02*
X023221Y033725D01*
X023221Y034076D01*
X023104Y034076D02*
X023455Y034076D01*
X023455Y033725D01*
X023338Y033609D01*
X022987Y033725D02*
X022987Y033959D01*
X023104Y034076D01*
X022987Y033259D02*
X022987Y033142D01*
X023104Y032909D02*
X023221Y032909D01*
X023221Y032442D01*
X023338Y032442D02*
X023104Y032442D01*
X022987Y032559D01*
X022987Y032793D01*
X023104Y032909D01*
X023455Y032793D02*
X023455Y032559D01*
X023338Y032442D01*
X023455Y032210D02*
X023104Y032210D01*
X022987Y032093D01*
X022987Y031859D01*
X023104Y031742D01*
X022987Y031510D02*
X022987Y031159D01*
X023104Y031043D01*
X023338Y031043D01*
X023455Y031159D01*
X023455Y031510D01*
X023455Y031742D02*
X022754Y031742D01*
X022754Y030693D02*
X022637Y030693D01*
X022987Y030693D02*
X023455Y030693D01*
X023455Y030576D02*
X023455Y030810D01*
X023338Y030343D02*
X023104Y030343D01*
X022987Y030227D01*
X022987Y029993D01*
X023104Y029876D01*
X023338Y029876D01*
X023455Y029993D01*
X023455Y030227D01*
X023338Y030343D01*
X022987Y030576D02*
X022987Y030693D01*
X022987Y029643D02*
X022987Y029410D01*
X022871Y029527D02*
X023338Y029527D01*
X023455Y029643D01*
X023338Y029177D02*
X023455Y029060D01*
X023455Y028827D01*
X023338Y028710D01*
X023104Y028827D02*
X023104Y029060D01*
X023221Y029177D01*
X023338Y029177D01*
X023104Y028827D02*
X022987Y028710D01*
X022871Y028710D01*
X022754Y028827D01*
X022754Y029060D01*
X022871Y029177D01*
X019935Y024880D02*
X018635Y024880D01*
X018609Y024878D01*
X018583Y024873D01*
X018558Y024865D01*
X018535Y024853D01*
X018513Y024839D01*
X018494Y024821D01*
X018476Y024802D01*
X018462Y024780D01*
X018450Y024757D01*
X018442Y024732D01*
X018437Y024706D01*
X018435Y024680D01*
X018785Y024430D02*
X019165Y024430D01*
X019415Y024430D02*
X019785Y024430D01*
X020135Y024680D02*
X020133Y024706D01*
X020128Y024732D01*
X020120Y024757D01*
X020108Y024780D01*
X020094Y024802D01*
X020076Y024821D01*
X020057Y024839D01*
X020035Y024853D01*
X020012Y024865D01*
X019987Y024873D01*
X019961Y024878D01*
X019935Y024880D01*
X020135Y024180D02*
X020133Y024154D01*
X020128Y024128D01*
X020120Y024103D01*
X020108Y024080D01*
X020094Y024058D01*
X020076Y024039D01*
X020057Y024021D01*
X020035Y024007D01*
X020012Y023995D01*
X019987Y023987D01*
X019961Y023982D01*
X019935Y023980D01*
X018635Y023980D01*
X018609Y023982D01*
X018583Y023987D01*
X018558Y023995D01*
X018535Y024007D01*
X018513Y024021D01*
X018494Y024039D01*
X018476Y024058D01*
X018462Y024080D01*
X018450Y024103D01*
X018442Y024128D01*
X018437Y024154D01*
X018435Y024180D01*
X022987Y021707D02*
X023571Y021707D01*
X023688Y021591D01*
X023688Y021474D01*
X023455Y021357D02*
X023338Y021240D01*
X022987Y021240D01*
X022987Y021008D02*
X022987Y020657D01*
X023104Y020541D01*
X023338Y020541D01*
X023455Y020657D01*
X023455Y021008D01*
X023571Y021008D02*
X022987Y021008D01*
X023455Y021357D02*
X023455Y021707D01*
X023571Y021008D02*
X023688Y020891D01*
X023688Y020774D01*
X023338Y020308D02*
X023104Y020308D01*
X022987Y020191D01*
X022987Y019958D01*
X023104Y019841D01*
X023338Y019841D01*
X023455Y019958D01*
X023455Y020191D01*
X023338Y020308D01*
X023455Y019608D02*
X023455Y019374D01*
X023455Y019491D02*
X022754Y019491D01*
X022754Y019374D01*
X023104Y019142D02*
X022987Y019025D01*
X022987Y018791D01*
X023104Y018675D01*
X023338Y018675D01*
X023455Y018791D01*
X023455Y019025D01*
X023338Y019142D01*
X023104Y019142D01*
X023104Y018442D02*
X023455Y018442D01*
X023104Y018442D02*
X022987Y018325D01*
X022987Y017975D01*
X023455Y017975D01*
X023455Y017742D02*
X023104Y017742D01*
X022987Y017625D01*
X022987Y017392D01*
X023104Y017275D01*
X022987Y017042D02*
X022987Y016692D01*
X023104Y016575D01*
X023338Y016575D01*
X023455Y016692D01*
X023455Y017042D01*
X023455Y017275D02*
X022754Y017275D01*
X022360Y017880D02*
X022360Y016480D01*
X022410Y016430D01*
X022410Y016280D01*
X022408Y016263D01*
X022404Y016246D01*
X022397Y016230D01*
X022387Y016216D01*
X022374Y016203D01*
X022360Y016193D01*
X022344Y016186D01*
X022327Y016182D01*
X022310Y016180D01*
X021710Y016180D01*
X021693Y016182D01*
X021676Y016186D01*
X021660Y016193D01*
X021646Y016203D01*
X021633Y016216D01*
X021623Y016230D01*
X021616Y016246D01*
X021612Y016263D01*
X021610Y016280D01*
X021610Y016430D01*
X021660Y016480D01*
X021660Y017880D01*
X021610Y017930D01*
X021610Y018080D01*
X021612Y018097D01*
X021616Y018114D01*
X021623Y018130D01*
X021633Y018144D01*
X021646Y018157D01*
X021660Y018167D01*
X021676Y018174D01*
X021693Y018178D01*
X021710Y018180D01*
X022310Y018180D01*
X022327Y018178D01*
X022344Y018174D01*
X022360Y018167D01*
X022374Y018157D01*
X022387Y018144D01*
X022397Y018130D01*
X022404Y018114D01*
X022408Y018097D01*
X022410Y018080D01*
X022410Y017930D01*
X022360Y017880D01*
X023104Y016342D02*
X023221Y016342D01*
X023221Y015875D01*
X023338Y015875D02*
X023104Y015875D01*
X022987Y015992D01*
X022987Y016226D01*
X023104Y016342D01*
X023455Y016226D02*
X023455Y015992D01*
X023338Y015875D01*
X023455Y015409D02*
X022754Y015409D01*
X022754Y015176D02*
X022754Y015643D01*
X022754Y014126D02*
X023455Y014126D01*
X023455Y014009D02*
X023455Y014243D01*
X023221Y013776D02*
X023104Y013776D01*
X022987Y013660D01*
X022987Y013426D01*
X023104Y013309D01*
X023338Y013309D01*
X023455Y013426D01*
X023455Y013660D01*
X023221Y013776D02*
X023221Y013309D01*
X023338Y013077D02*
X023104Y013077D01*
X022987Y012960D01*
X022987Y012610D01*
X022754Y012610D02*
X023455Y012610D01*
X023455Y012960D01*
X023338Y013077D01*
X023221Y012377D02*
X023104Y012377D01*
X022987Y012260D01*
X022987Y012027D01*
X023104Y011910D01*
X023338Y011910D01*
X023455Y012027D01*
X023455Y012260D01*
X023221Y012377D02*
X023221Y011910D01*
X023104Y011677D02*
X023221Y011560D01*
X023221Y011210D01*
X023455Y011210D02*
X022754Y011210D01*
X022754Y011560D01*
X022871Y011677D01*
X023104Y011677D01*
X023221Y011444D02*
X023455Y011677D01*
X022310Y010180D02*
X021710Y010180D01*
X021693Y010178D01*
X021676Y010174D01*
X021660Y010167D01*
X021646Y010157D01*
X021633Y010144D01*
X021623Y010130D01*
X021616Y010114D01*
X021612Y010097D01*
X021610Y010080D01*
X021610Y009930D01*
X021660Y009880D01*
X021660Y008480D01*
X021610Y008430D01*
X021610Y008280D01*
X021612Y008263D01*
X021616Y008246D01*
X021623Y008230D01*
X021633Y008216D01*
X021646Y008203D01*
X021660Y008193D01*
X021676Y008186D01*
X021693Y008182D01*
X021710Y008180D01*
X022310Y008180D01*
X022327Y008182D01*
X022344Y008186D01*
X022360Y008193D01*
X022374Y008203D01*
X022387Y008216D01*
X022397Y008230D01*
X022404Y008246D01*
X022408Y008263D01*
X022410Y008280D01*
X022410Y008430D01*
X022360Y008480D01*
X022360Y009880D01*
X022410Y009930D01*
X022410Y010080D01*
X022408Y010097D01*
X022404Y010114D01*
X022397Y010130D01*
X022387Y010144D01*
X022374Y010157D01*
X022360Y010167D01*
X022344Y010174D01*
X022327Y010178D01*
X022310Y010180D01*
X021560Y009180D02*
X020960Y009180D01*
X020943Y009178D01*
X020926Y009174D01*
X020910Y009167D01*
X020896Y009157D01*
X020883Y009144D01*
X020873Y009130D01*
X020866Y009114D01*
X020862Y009097D01*
X020860Y009080D01*
X020860Y008930D01*
X020910Y008880D01*
X020910Y007480D01*
X020860Y007430D01*
X020860Y007280D01*
X020862Y007263D01*
X020866Y007246D01*
X020873Y007230D01*
X020883Y007216D01*
X020896Y007203D01*
X020910Y007193D01*
X020926Y007186D01*
X020943Y007182D01*
X020960Y007180D01*
X021560Y007180D01*
X021577Y007182D01*
X021594Y007186D01*
X021610Y007193D01*
X021624Y007203D01*
X021637Y007216D01*
X021647Y007230D01*
X021654Y007246D01*
X021658Y007263D01*
X021660Y007280D01*
X021660Y007430D01*
X021610Y007480D01*
X021610Y008880D01*
X021660Y008930D01*
X021660Y009080D01*
X021658Y009097D01*
X021654Y009114D01*
X021647Y009130D01*
X021637Y009144D01*
X021624Y009157D01*
X021610Y009167D01*
X021594Y009174D01*
X021577Y009178D01*
X021560Y009180D01*
X017660Y009080D02*
X017660Y008930D01*
X017610Y008880D01*
X017610Y007480D01*
X017660Y007430D01*
X017660Y007280D01*
X017658Y007263D01*
X017654Y007246D01*
X017647Y007230D01*
X017637Y007216D01*
X017624Y007203D01*
X017610Y007193D01*
X017594Y007186D01*
X017577Y007182D01*
X017560Y007180D01*
X016960Y007180D01*
X016943Y007182D01*
X016926Y007186D01*
X016910Y007193D01*
X016896Y007203D01*
X016883Y007216D01*
X016873Y007230D01*
X016866Y007246D01*
X016862Y007263D01*
X016860Y007280D01*
X016860Y007430D01*
X016910Y007480D01*
X016910Y008880D01*
X016860Y008930D01*
X016860Y009080D01*
X016862Y009097D01*
X016866Y009114D01*
X016873Y009130D01*
X016883Y009144D01*
X016896Y009157D01*
X016910Y009167D01*
X016926Y009174D01*
X016943Y009178D01*
X016960Y009180D01*
X017560Y009180D01*
X017577Y009178D01*
X017594Y009174D01*
X017610Y009167D01*
X017624Y009157D01*
X017637Y009144D01*
X017647Y009130D01*
X017654Y009114D01*
X017658Y009097D01*
X017660Y009080D01*
X016910Y008430D02*
X016910Y008280D01*
X016908Y008263D01*
X016904Y008246D01*
X016897Y008230D01*
X016887Y008216D01*
X016874Y008203D01*
X016860Y008193D01*
X016844Y008186D01*
X016827Y008182D01*
X016810Y008180D01*
X016210Y008180D01*
X016193Y008182D01*
X016176Y008186D01*
X016160Y008193D01*
X016146Y008203D01*
X016133Y008216D01*
X016123Y008230D01*
X016116Y008246D01*
X016112Y008263D01*
X016110Y008280D01*
X016110Y008430D01*
X016160Y008480D01*
X016160Y009880D01*
X016110Y009930D01*
X016110Y010080D01*
X016112Y010097D01*
X016116Y010114D01*
X016123Y010130D01*
X016133Y010144D01*
X016146Y010157D01*
X016160Y010167D01*
X016176Y010174D01*
X016193Y010178D01*
X016210Y010180D01*
X016810Y010180D01*
X016827Y010178D01*
X016844Y010174D01*
X016860Y010167D01*
X016874Y010157D01*
X016887Y010144D01*
X016897Y010130D01*
X016904Y010114D01*
X016908Y010097D01*
X016910Y010080D01*
X016910Y009930D01*
X016860Y009880D01*
X016860Y008480D01*
X016910Y008430D01*
X018960Y005180D02*
X019560Y005180D01*
X019577Y005178D01*
X019594Y005174D01*
X019610Y005167D01*
X019624Y005157D01*
X019637Y005144D01*
X019647Y005130D01*
X019654Y005114D01*
X019658Y005097D01*
X019660Y005080D01*
X019660Y004930D01*
X019610Y004880D01*
X019610Y003480D01*
X019660Y003430D01*
X019660Y003280D01*
X019658Y003263D01*
X019654Y003246D01*
X019647Y003230D01*
X019637Y003216D01*
X019624Y003203D01*
X019610Y003193D01*
X019594Y003186D01*
X019577Y003182D01*
X019560Y003180D01*
X018960Y003180D01*
X018943Y003182D01*
X018926Y003186D01*
X018910Y003193D01*
X018896Y003203D01*
X018883Y003216D01*
X018873Y003230D01*
X018866Y003246D01*
X018862Y003263D01*
X018860Y003280D01*
X018860Y003430D01*
X018910Y003480D01*
X018910Y004880D01*
X018860Y004930D01*
X018860Y005080D01*
X018862Y005097D01*
X018866Y005114D01*
X018873Y005130D01*
X018883Y005144D01*
X018896Y005157D01*
X018910Y005167D01*
X018926Y005174D01*
X018943Y005178D01*
X018960Y005180D01*
X014660Y005080D02*
X014660Y004930D01*
X014610Y004880D01*
X014610Y003480D01*
X014660Y003430D01*
X014660Y003280D01*
X014658Y003263D01*
X014654Y003246D01*
X014647Y003230D01*
X014637Y003216D01*
X014624Y003203D01*
X014610Y003193D01*
X014594Y003186D01*
X014577Y003182D01*
X014560Y003180D01*
X013960Y003180D01*
X013943Y003182D01*
X013926Y003186D01*
X013910Y003193D01*
X013896Y003203D01*
X013883Y003216D01*
X013873Y003230D01*
X013866Y003246D01*
X013862Y003263D01*
X013860Y003280D01*
X013860Y003430D01*
X013910Y003480D01*
X013910Y004880D01*
X013860Y004930D01*
X013860Y005080D01*
X013862Y005097D01*
X013866Y005114D01*
X013873Y005130D01*
X013883Y005144D01*
X013896Y005157D01*
X013910Y005167D01*
X013926Y005174D01*
X013943Y005178D01*
X013960Y005180D01*
X014560Y005180D01*
X014577Y005178D01*
X014594Y005174D01*
X014610Y005167D01*
X014624Y005157D01*
X014637Y005144D01*
X014647Y005130D01*
X014654Y005114D01*
X014658Y005097D01*
X014660Y005080D01*
X012410Y007280D02*
X012410Y007430D01*
X012360Y007480D01*
X012360Y008880D01*
X012410Y008930D01*
X012410Y009080D01*
X012408Y009097D01*
X012404Y009114D01*
X012397Y009130D01*
X012387Y009144D01*
X012374Y009157D01*
X012360Y009167D01*
X012344Y009174D01*
X012327Y009178D01*
X012310Y009180D01*
X011710Y009180D01*
X011693Y009178D01*
X011676Y009174D01*
X011660Y009167D01*
X011646Y009157D01*
X011633Y009144D01*
X011623Y009130D01*
X011616Y009114D01*
X011612Y009097D01*
X011610Y009080D01*
X011610Y008930D01*
X011660Y008880D01*
X011660Y007480D01*
X011610Y007430D01*
X011610Y007280D01*
X011612Y007263D01*
X011616Y007246D01*
X011623Y007230D01*
X011633Y007216D01*
X011646Y007203D01*
X011660Y007193D01*
X011676Y007186D01*
X011693Y007182D01*
X011710Y007180D01*
X012310Y007180D01*
X012327Y007182D01*
X012344Y007186D01*
X012360Y007193D01*
X012374Y007203D01*
X012387Y007216D01*
X012397Y007230D01*
X012404Y007246D01*
X012408Y007263D01*
X012410Y007280D01*
X011560Y008180D02*
X010960Y008180D01*
X010943Y008182D01*
X010926Y008186D01*
X010910Y008193D01*
X010896Y008203D01*
X010883Y008216D01*
X010873Y008230D01*
X010866Y008246D01*
X010862Y008263D01*
X010860Y008280D01*
X010860Y008430D01*
X010910Y008480D01*
X010910Y009880D01*
X010860Y009930D01*
X010860Y010080D01*
X010862Y010097D01*
X010866Y010114D01*
X010873Y010130D01*
X010883Y010144D01*
X010896Y010157D01*
X010910Y010167D01*
X010926Y010174D01*
X010943Y010178D01*
X010960Y010180D01*
X011560Y010180D01*
X011577Y010178D01*
X011594Y010174D01*
X011610Y010167D01*
X011624Y010157D01*
X011637Y010144D01*
X011647Y010130D01*
X011654Y010114D01*
X011658Y010097D01*
X011660Y010080D01*
X011660Y009930D01*
X011610Y009880D01*
X011610Y008480D01*
X011660Y008430D01*
X011660Y008280D01*
X011658Y008263D01*
X011654Y008246D01*
X011647Y008230D01*
X011637Y008216D01*
X011624Y008203D01*
X011610Y008193D01*
X011594Y008186D01*
X011577Y008182D01*
X011560Y008180D01*
X006310Y008405D02*
X006310Y007905D01*
X006060Y007655D01*
X004560Y007655D01*
X004310Y007905D01*
X004310Y008405D01*
X004560Y008655D01*
X006060Y008655D01*
X006310Y008905D01*
X006310Y009405D01*
X006060Y009655D01*
X004560Y009655D01*
X004310Y009905D01*
X004310Y010405D01*
X004560Y010655D01*
X006060Y010655D01*
X006310Y010905D01*
X006310Y011405D01*
X006060Y011655D01*
X004560Y011655D01*
X004310Y011905D01*
X004310Y012405D01*
X004560Y012655D01*
X006060Y012655D01*
X006310Y012905D01*
X006310Y013405D01*
X006060Y013655D01*
X004560Y013655D01*
X004310Y013905D01*
X004310Y014405D01*
X004560Y014655D01*
X006060Y014655D01*
X006310Y014405D01*
X006310Y013905D01*
X006060Y013655D01*
X006060Y012655D02*
X006310Y012405D01*
X006310Y011905D01*
X006060Y011655D01*
X006060Y010655D02*
X006310Y010405D01*
X006310Y009905D01*
X006060Y009655D01*
X006060Y008655D02*
X006310Y008405D01*
X006060Y007655D02*
X006310Y007405D01*
X006310Y006905D01*
X006060Y006655D01*
X004560Y006655D01*
X004310Y006905D01*
X004310Y007405D01*
X004560Y007655D01*
X004560Y008655D02*
X004310Y008905D01*
X004310Y009405D01*
X004560Y009655D01*
X004560Y010655D02*
X004310Y010905D01*
X004310Y011405D01*
X004560Y011655D01*
X004560Y012655D02*
X004310Y012905D01*
X004310Y013405D01*
X004560Y013655D01*
X004710Y016680D02*
X005310Y016680D01*
X005327Y016682D01*
X005344Y016686D01*
X005360Y016693D01*
X005374Y016703D01*
X005387Y016716D01*
X005397Y016730D01*
X005404Y016746D01*
X005408Y016763D01*
X005410Y016780D01*
X005410Y016930D01*
X005360Y016980D01*
X005360Y018380D01*
X005410Y018430D01*
X005410Y018580D01*
X005408Y018597D01*
X005404Y018614D01*
X005397Y018630D01*
X005387Y018644D01*
X005374Y018657D01*
X005360Y018667D01*
X005344Y018674D01*
X005327Y018678D01*
X005310Y018680D01*
X004710Y018680D01*
X004693Y018678D01*
X004676Y018674D01*
X004660Y018667D01*
X004646Y018657D01*
X004633Y018644D01*
X004623Y018630D01*
X004616Y018614D01*
X004612Y018597D01*
X004610Y018580D01*
X004610Y018430D01*
X004660Y018380D01*
X004660Y016980D01*
X004610Y016930D01*
X004610Y016780D01*
X004612Y016763D01*
X004616Y016746D01*
X004623Y016730D01*
X004633Y016716D01*
X004646Y016703D01*
X004660Y016693D01*
X004676Y016686D01*
X004693Y016682D01*
X004710Y016680D01*
X005610Y016780D02*
X005610Y016930D01*
X005660Y016980D01*
X005660Y018380D01*
X005610Y018430D01*
X005610Y018580D01*
X005612Y018597D01*
X005616Y018614D01*
X005623Y018630D01*
X005633Y018644D01*
X005646Y018657D01*
X005660Y018667D01*
X005676Y018674D01*
X005693Y018678D01*
X005710Y018680D01*
X006310Y018680D01*
X006327Y018678D01*
X006344Y018674D01*
X006360Y018667D01*
X006374Y018657D01*
X006387Y018644D01*
X006397Y018630D01*
X006404Y018614D01*
X006408Y018597D01*
X006410Y018580D01*
X006410Y018430D01*
X006360Y018380D01*
X006360Y016980D01*
X006410Y016930D01*
X006410Y016780D01*
X006408Y016763D01*
X006404Y016746D01*
X006397Y016730D01*
X006387Y016716D01*
X006374Y016703D01*
X006360Y016693D01*
X006344Y016686D01*
X006327Y016682D01*
X006310Y016680D01*
X005710Y016680D01*
X005693Y016682D01*
X005676Y016686D01*
X005660Y016693D01*
X005646Y016703D01*
X005633Y016716D01*
X005623Y016730D01*
X005616Y016746D01*
X005612Y016763D01*
X005610Y016780D01*
X008760Y016880D02*
X008760Y017480D01*
X008762Y017497D01*
X008766Y017514D01*
X008773Y017530D01*
X008783Y017544D01*
X008796Y017557D01*
X008810Y017567D01*
X008826Y017574D01*
X008843Y017578D01*
X008860Y017580D01*
X009010Y017580D01*
X009060Y017530D01*
X010460Y017530D01*
X010510Y017580D01*
X010660Y017580D01*
X010677Y017578D01*
X010694Y017574D01*
X010710Y017567D01*
X010724Y017557D01*
X010737Y017544D01*
X010747Y017530D01*
X010754Y017514D01*
X010758Y017497D01*
X010760Y017480D01*
X010760Y016880D01*
X010758Y016863D01*
X010754Y016846D01*
X010747Y016830D01*
X010737Y016816D01*
X010724Y016803D01*
X010710Y016793D01*
X010694Y016786D01*
X010677Y016782D01*
X010660Y016780D01*
X010510Y016780D01*
X010460Y016830D01*
X009060Y016830D01*
X009010Y016780D01*
X008860Y016780D01*
X008843Y016782D01*
X008826Y016786D01*
X008810Y016793D01*
X008796Y016803D01*
X008783Y016816D01*
X008773Y016830D01*
X008766Y016846D01*
X008762Y016863D01*
X008760Y016880D01*
X008860Y016580D02*
X009010Y016580D01*
X009060Y016530D01*
X010460Y016530D01*
X010510Y016580D01*
X010660Y016580D01*
X010677Y016578D01*
X010694Y016574D01*
X010710Y016567D01*
X010724Y016557D01*
X010737Y016544D01*
X010747Y016530D01*
X010754Y016514D01*
X010758Y016497D01*
X010760Y016480D01*
X010760Y015880D01*
X010758Y015863D01*
X010754Y015846D01*
X010747Y015830D01*
X010737Y015816D01*
X010724Y015803D01*
X010710Y015793D01*
X010694Y015786D01*
X010677Y015782D01*
X010660Y015780D01*
X010510Y015780D01*
X010460Y015830D01*
X009060Y015830D01*
X009010Y015780D01*
X008860Y015780D01*
X008843Y015782D01*
X008826Y015786D01*
X008810Y015793D01*
X008796Y015803D01*
X008783Y015816D01*
X008773Y015830D01*
X008766Y015846D01*
X008762Y015863D01*
X008760Y015880D01*
X008760Y016480D01*
X008762Y016497D01*
X008766Y016514D01*
X008773Y016530D01*
X008783Y016544D01*
X008796Y016557D01*
X008810Y016567D01*
X008826Y016574D01*
X008843Y016578D01*
X008860Y016580D01*
X008860Y015580D02*
X009010Y015580D01*
X009060Y015530D01*
X010460Y015530D01*
X010510Y015580D01*
X010660Y015580D01*
X010677Y015578D01*
X010694Y015574D01*
X010710Y015567D01*
X010724Y015557D01*
X010737Y015544D01*
X010747Y015530D01*
X010754Y015514D01*
X010758Y015497D01*
X010760Y015480D01*
X010760Y014880D01*
X010758Y014863D01*
X010754Y014846D01*
X010747Y014830D01*
X010737Y014816D01*
X010724Y014803D01*
X010710Y014793D01*
X010694Y014786D01*
X010677Y014782D01*
X010660Y014780D01*
X010510Y014780D01*
X010460Y014830D01*
X009060Y014830D01*
X009010Y014780D01*
X008860Y014780D01*
X008843Y014782D01*
X008826Y014786D01*
X008810Y014793D01*
X008796Y014803D01*
X008783Y014816D01*
X008773Y014830D01*
X008766Y014846D01*
X008762Y014863D01*
X008760Y014880D01*
X008760Y015480D01*
X008762Y015497D01*
X008766Y015514D01*
X008773Y015530D01*
X008783Y015544D01*
X008796Y015557D01*
X008810Y015567D01*
X008826Y015574D01*
X008843Y015578D01*
X008860Y015580D01*
X015860Y015780D02*
X015860Y015930D01*
X015910Y015980D01*
X015910Y017380D01*
X015860Y017430D01*
X015860Y017580D01*
X015862Y017597D01*
X015866Y017614D01*
X015873Y017630D01*
X015883Y017644D01*
X015896Y017657D01*
X015910Y017667D01*
X015926Y017674D01*
X015943Y017678D01*
X015960Y017680D01*
X016560Y017680D01*
X016577Y017678D01*
X016594Y017674D01*
X016610Y017667D01*
X016624Y017657D01*
X016637Y017644D01*
X016647Y017630D01*
X016654Y017614D01*
X016658Y017597D01*
X016660Y017580D01*
X016660Y017430D01*
X016610Y017380D01*
X016610Y015980D01*
X016660Y015930D01*
X016660Y015780D01*
X016658Y015763D01*
X016654Y015746D01*
X016647Y015730D01*
X016637Y015716D01*
X016624Y015703D01*
X016610Y015693D01*
X016594Y015686D01*
X016577Y015682D01*
X016560Y015680D01*
X015960Y015680D01*
X015943Y015682D01*
X015926Y015686D01*
X015910Y015693D01*
X015896Y015703D01*
X015883Y015716D01*
X015873Y015730D01*
X015866Y015746D01*
X015862Y015763D01*
X015860Y015780D01*
X018260Y015880D02*
X018260Y016480D01*
X018262Y016497D01*
X018266Y016514D01*
X018273Y016530D01*
X018283Y016544D01*
X018296Y016557D01*
X018310Y016567D01*
X018326Y016574D01*
X018343Y016578D01*
X018360Y016580D01*
X018510Y016580D01*
X018560Y016530D01*
X019960Y016530D01*
X020010Y016580D01*
X020160Y016580D01*
X020177Y016578D01*
X020194Y016574D01*
X020210Y016567D01*
X020224Y016557D01*
X020237Y016544D01*
X020247Y016530D01*
X020254Y016514D01*
X020258Y016497D01*
X020260Y016480D01*
X020260Y015880D01*
X020258Y015863D01*
X020254Y015846D01*
X020247Y015830D01*
X020237Y015816D01*
X020224Y015803D01*
X020210Y015793D01*
X020194Y015786D01*
X020177Y015782D01*
X020160Y015780D01*
X020010Y015780D01*
X019960Y015830D01*
X018560Y015830D01*
X018510Y015780D01*
X018360Y015780D01*
X018343Y015782D01*
X018326Y015786D01*
X018310Y015793D01*
X018296Y015803D01*
X018283Y015816D01*
X018273Y015830D01*
X018266Y015846D01*
X018262Y015863D01*
X018260Y015880D01*
X018360Y015580D02*
X018510Y015580D01*
X018560Y015530D01*
X019960Y015530D01*
X020010Y015580D01*
X020160Y015580D01*
X020177Y015578D01*
X020194Y015574D01*
X020210Y015567D01*
X020224Y015557D01*
X020237Y015544D01*
X020247Y015530D01*
X020254Y015514D01*
X020258Y015497D01*
X020260Y015480D01*
X020260Y014880D01*
X020258Y014863D01*
X020254Y014846D01*
X020247Y014830D01*
X020237Y014816D01*
X020224Y014803D01*
X020210Y014793D01*
X020194Y014786D01*
X020177Y014782D01*
X020160Y014780D01*
X020010Y014780D01*
X019960Y014830D01*
X018560Y014830D01*
X018510Y014780D01*
X018360Y014780D01*
X018343Y014782D01*
X018326Y014786D01*
X018310Y014793D01*
X018296Y014803D01*
X018283Y014816D01*
X018273Y014830D01*
X018266Y014846D01*
X018262Y014863D01*
X018260Y014880D01*
X018260Y015480D01*
X018262Y015497D01*
X018266Y015514D01*
X018273Y015530D01*
X018283Y015544D01*
X018296Y015557D01*
X018310Y015567D01*
X018326Y015574D01*
X018343Y015578D01*
X018360Y015580D01*
X022754Y014126D02*
X022754Y014009D01*
X006610Y023680D02*
X006410Y023680D01*
X006510Y023780D02*
X006510Y023580D01*
X006310Y023530D02*
X006310Y023930D01*
X006310Y024330D01*
X006110Y024330D01*
X006110Y023530D01*
X006310Y023530D01*
X006310Y023930D02*
X006560Y023930D01*
X007140Y024464D02*
X007109Y024526D01*
X007074Y024585D01*
X007037Y024643D01*
X006996Y024698D01*
X006952Y024752D01*
X006905Y024802D01*
X006856Y024850D01*
X006804Y024895D01*
X006750Y024938D01*
X006693Y024977D01*
X006635Y025013D01*
X006574Y025046D01*
X006512Y025075D01*
X006448Y025101D01*
X006383Y025123D01*
X006317Y025142D01*
X006249Y025157D01*
X006182Y025168D01*
X006113Y025176D01*
X006044Y025180D01*
X005976Y025180D01*
X005907Y025176D01*
X005838Y025168D01*
X005771Y025157D01*
X005703Y025142D01*
X005637Y025123D01*
X005572Y025101D01*
X005508Y025075D01*
X005446Y025046D01*
X005385Y025013D01*
X005327Y024977D01*
X005270Y024938D01*
X005216Y024895D01*
X005164Y024850D01*
X005115Y024802D01*
X005068Y024752D01*
X005024Y024698D01*
X004983Y024643D01*
X004946Y024585D01*
X004911Y024526D01*
X004880Y024464D01*
X005460Y023930D02*
X005760Y023930D01*
X004880Y023396D02*
X004911Y023334D01*
X004946Y023275D01*
X004983Y023217D01*
X005024Y023162D01*
X005068Y023108D01*
X005115Y023058D01*
X005164Y023010D01*
X005216Y022965D01*
X005270Y022922D01*
X005327Y022883D01*
X005385Y022847D01*
X005446Y022814D01*
X005508Y022785D01*
X005572Y022759D01*
X005637Y022737D01*
X005703Y022718D01*
X005771Y022703D01*
X005838Y022692D01*
X005907Y022684D01*
X005976Y022680D01*
X006044Y022680D01*
X006113Y022684D01*
X006182Y022692D01*
X006249Y022703D01*
X006317Y022718D01*
X006383Y022737D01*
X006448Y022759D01*
X006512Y022785D01*
X006574Y022814D01*
X006635Y022847D01*
X006693Y022883D01*
X006750Y022922D01*
X006804Y022965D01*
X006856Y023010D01*
X006905Y023058D01*
X006952Y023108D01*
X006996Y023162D01*
X007037Y023217D01*
X007074Y023275D01*
X007109Y023334D01*
X007140Y023396D01*
X022754Y035008D02*
X022754Y035358D01*
X022871Y035475D01*
X023104Y035475D01*
X023221Y035358D01*
X023221Y035008D01*
X023455Y035008D02*
X022754Y035008D01*
X023221Y035242D02*
X023455Y035475D01*
X023338Y035708D02*
X023104Y035708D01*
X022987Y035825D01*
X022987Y036058D01*
X023104Y036175D01*
X023221Y036175D01*
X023221Y035708D01*
X023338Y035708D02*
X023455Y035825D01*
X023455Y036058D01*
X023455Y036641D02*
X022987Y036875D01*
X022871Y037108D02*
X022754Y037224D01*
X022754Y037458D01*
X022871Y037575D01*
X023338Y037108D01*
X023455Y037224D01*
X023455Y037458D01*
X023338Y037575D01*
X022871Y037575D01*
X023104Y037807D02*
X023104Y038158D01*
X023221Y038274D01*
X023338Y038274D01*
X023455Y038158D01*
X023455Y037924D01*
X023338Y037807D01*
X023104Y037807D01*
X022871Y038041D01*
X022754Y038274D01*
X022871Y037108D02*
X023338Y037108D01*
X023455Y036641D02*
X022987Y036408D01*
D12*
X020047Y037702D02*
X019970Y037625D01*
X019740Y037625D01*
X019740Y038086D01*
X019970Y038086D01*
X020047Y038009D01*
X020047Y037932D01*
X019970Y037855D01*
X019740Y037855D01*
X019970Y037855D02*
X020047Y037779D01*
X020047Y037702D01*
X019586Y038086D02*
X019280Y038086D01*
X019433Y038086D02*
X019433Y037625D01*
X019126Y037702D02*
X019126Y038009D01*
X019049Y038086D01*
X018896Y038086D01*
X018819Y038009D01*
X018819Y037702D01*
X018896Y037625D01*
X019049Y037625D01*
X019126Y037702D01*
X018666Y037625D02*
X018512Y037779D01*
X018589Y037779D02*
X018359Y037779D01*
X018359Y037625D02*
X018359Y038086D01*
X018589Y038086D01*
X018666Y038009D01*
X018666Y037855D01*
X018589Y037779D01*
X014204Y037017D02*
X014204Y036959D01*
X014146Y036900D01*
X014204Y036842D01*
X014204Y036783D01*
X014146Y036725D01*
X014029Y036725D01*
X013970Y036783D01*
X013845Y036725D02*
X013728Y036842D01*
X013786Y036842D02*
X013611Y036842D01*
X013611Y036725D02*
X013611Y037075D01*
X013786Y037075D01*
X013845Y037017D01*
X013845Y036900D01*
X013786Y036842D01*
X013970Y037017D02*
X014029Y037075D01*
X014146Y037075D01*
X014204Y037017D01*
X014146Y036900D02*
X014087Y036900D01*
X010047Y037625D02*
X010047Y037932D01*
X009893Y038086D01*
X009740Y037932D01*
X009740Y037625D01*
X009740Y037855D02*
X010047Y037855D01*
X009586Y038086D02*
X009280Y038086D01*
X009433Y038086D02*
X009433Y037625D01*
X009126Y037702D02*
X009126Y038009D01*
X009049Y038086D01*
X008896Y038086D01*
X008819Y038009D01*
X008819Y037702D01*
X008896Y037625D01*
X009049Y037625D01*
X009126Y037702D01*
X008666Y037625D02*
X008512Y037779D01*
X008589Y037779D02*
X008359Y037779D01*
X008359Y037625D02*
X008359Y038086D01*
X008589Y038086D01*
X008666Y038009D01*
X008666Y037855D01*
X008589Y037779D01*
X008589Y030586D02*
X008896Y030586D01*
X009049Y030586D02*
X009049Y030125D01*
X009356Y030125D01*
X009510Y030125D02*
X009510Y030586D01*
X009740Y030586D01*
X009817Y030509D01*
X009817Y030355D01*
X009740Y030279D01*
X009510Y030279D01*
X009203Y030355D02*
X009049Y030355D01*
X009049Y030586D02*
X009356Y030586D01*
X009970Y030432D02*
X009970Y030125D01*
X009970Y030355D02*
X010277Y030355D01*
X010277Y030432D02*
X010277Y030125D01*
X010277Y030432D02*
X010124Y030586D01*
X009970Y030432D01*
X008742Y030586D02*
X008742Y030125D01*
X008435Y030202D02*
X008359Y030125D01*
X008205Y030125D01*
X008129Y030202D01*
X008205Y030355D02*
X008359Y030355D01*
X008435Y030279D01*
X008435Y030202D01*
X008205Y030355D02*
X008129Y030432D01*
X008129Y030509D01*
X008205Y030586D01*
X008359Y030586D01*
X008435Y030509D01*
X010490Y024967D02*
X010490Y024660D01*
X010490Y024814D02*
X010029Y024814D01*
X010183Y024660D01*
X010106Y024507D02*
X010029Y024507D01*
X010106Y024507D02*
X010259Y024353D01*
X010490Y024353D01*
X010259Y024353D02*
X010106Y024200D01*
X010029Y024200D01*
X010047Y023086D02*
X010200Y022932D01*
X010200Y022625D01*
X010200Y022855D02*
X009893Y022855D01*
X009893Y022932D02*
X010047Y023086D01*
X009893Y022932D02*
X009893Y022625D01*
X009740Y022625D02*
X009433Y022625D01*
X009433Y023086D01*
X008973Y023086D02*
X008973Y022625D01*
X009280Y022625D01*
X008819Y022625D02*
X008666Y022625D01*
X008742Y022625D02*
X008742Y023086D01*
X008666Y023086D02*
X008819Y023086D01*
X008512Y023086D02*
X008205Y023086D01*
X008205Y022625D01*
X008205Y022855D02*
X008359Y022855D01*
X006155Y017868D02*
X006155Y017634D01*
X005921Y017868D01*
X005863Y017868D01*
X005804Y017809D01*
X005804Y017692D01*
X005863Y017634D01*
X005863Y017509D02*
X005979Y017509D01*
X006038Y017450D01*
X006038Y017275D01*
X006155Y017275D02*
X005804Y017275D01*
X005804Y017450D01*
X005863Y017509D01*
X006038Y017392D02*
X006155Y017509D01*
X005215Y017457D02*
X005215Y017690D01*
X005215Y017574D02*
X004864Y017574D01*
X004981Y017457D01*
X005039Y017331D02*
X005098Y017273D01*
X005098Y017098D01*
X005098Y017214D02*
X005215Y017331D01*
X005039Y017331D02*
X004923Y017331D01*
X004864Y017273D01*
X004864Y017098D01*
X005215Y017098D01*
X005156Y017816D02*
X005215Y017874D01*
X005215Y017991D01*
X005156Y018049D01*
X005098Y018049D01*
X005039Y017991D01*
X005039Y017816D01*
X005156Y017816D01*
X005039Y017816D02*
X004923Y017933D01*
X004864Y018049D01*
X009252Y017325D02*
X009427Y017325D01*
X009486Y017267D01*
X009486Y017150D01*
X009427Y017092D01*
X009252Y017092D01*
X009369Y017092D02*
X009486Y016975D01*
X009611Y016975D02*
X009845Y016975D01*
X009728Y016975D02*
X009728Y017325D01*
X009611Y017209D01*
X009970Y017267D02*
X010029Y017325D01*
X010146Y017325D01*
X010204Y017267D01*
X009970Y017033D01*
X010029Y016975D01*
X010146Y016975D01*
X010204Y017033D01*
X010204Y017267D01*
X009970Y017267D02*
X009970Y017033D01*
X009252Y016975D02*
X009252Y017325D01*
X009255Y016360D02*
X009430Y016360D01*
X009488Y016302D01*
X009488Y016185D01*
X009430Y016127D01*
X009255Y016127D01*
X009371Y016127D02*
X009488Y016010D01*
X009614Y016010D02*
X009847Y016010D01*
X009730Y016010D02*
X009730Y016360D01*
X009614Y016244D01*
X009973Y016185D02*
X010089Y016244D01*
X010148Y016244D01*
X010206Y016185D01*
X010206Y016068D01*
X010148Y016010D01*
X010031Y016010D01*
X009973Y016068D01*
X009973Y016185D02*
X009973Y016360D01*
X010206Y016360D01*
X009255Y016360D02*
X009255Y016010D01*
X009380Y015385D02*
X009555Y015385D01*
X009613Y015327D01*
X009613Y015210D01*
X009555Y015152D01*
X009380Y015152D01*
X009496Y015152D02*
X009613Y015035D01*
X009739Y015093D02*
X009797Y015035D01*
X009914Y015035D01*
X009972Y015093D01*
X009972Y015210D01*
X009914Y015269D01*
X009855Y015269D01*
X009739Y015210D01*
X009739Y015385D01*
X009972Y015385D01*
X009380Y015385D02*
X009380Y015035D01*
X011154Y009602D02*
X011213Y009602D01*
X011446Y009368D01*
X011505Y009368D01*
X011505Y009243D02*
X011505Y009009D01*
X011505Y009126D02*
X011154Y009126D01*
X011271Y009009D01*
X011329Y008884D02*
X011388Y008825D01*
X011388Y008650D01*
X011505Y008650D02*
X011154Y008650D01*
X011154Y008825D01*
X011213Y008884D01*
X011329Y008884D01*
X011388Y008767D02*
X011505Y008884D01*
X011754Y008393D02*
X011929Y008218D01*
X011929Y008452D01*
X011754Y008393D02*
X012105Y008393D01*
X012105Y008093D02*
X012105Y007859D01*
X012105Y007976D02*
X011754Y007976D01*
X011871Y007859D01*
X011929Y007734D02*
X011988Y007675D01*
X011988Y007500D01*
X012105Y007500D02*
X011754Y007500D01*
X011754Y007675D01*
X011813Y007734D01*
X011929Y007734D01*
X011988Y007617D02*
X012105Y007734D01*
X012748Y007637D02*
X012825Y007713D01*
X012978Y007713D01*
X013055Y007637D01*
X013055Y007406D01*
X013209Y007406D02*
X012748Y007406D01*
X012748Y007637D01*
X012825Y007867D02*
X012902Y007867D01*
X012978Y007944D01*
X012978Y008097D01*
X013055Y008174D01*
X013132Y008174D01*
X013209Y008097D01*
X013209Y007944D01*
X013132Y007867D01*
X013209Y007713D02*
X013055Y007560D01*
X012825Y007867D02*
X012748Y007944D01*
X012748Y008097D01*
X012825Y008174D01*
X012748Y008327D02*
X012748Y008634D01*
X012748Y008481D02*
X013209Y008481D01*
X013209Y008788D02*
X013209Y008941D01*
X013209Y008864D02*
X012748Y008864D01*
X012748Y008788D02*
X012748Y008941D01*
X012748Y009095D02*
X013209Y009402D01*
X012748Y009402D01*
X012748Y009095D02*
X013209Y009095D01*
X011154Y009368D02*
X011154Y009602D01*
X006218Y006407D02*
X006064Y006100D01*
X005911Y006407D01*
X005757Y006407D02*
X005757Y006484D01*
X005680Y006560D01*
X005527Y006560D01*
X005450Y006484D01*
X005143Y006560D02*
X005143Y006100D01*
X004990Y006100D02*
X005297Y006100D01*
X005450Y006100D02*
X005757Y006407D01*
X005757Y006100D02*
X005450Y006100D01*
X004990Y006407D02*
X005143Y006560D01*
X004836Y006330D02*
X004530Y006330D01*
X005323Y004177D02*
X005784Y004177D01*
X005323Y003870D01*
X005784Y003870D01*
X005784Y003716D02*
X005784Y003563D01*
X005784Y003639D02*
X005323Y003639D01*
X005323Y003563D02*
X005323Y003716D01*
X005323Y003409D02*
X005630Y003102D01*
X005553Y003179D02*
X005784Y003409D01*
X005784Y003102D02*
X005323Y003102D01*
X005323Y002642D02*
X005784Y002642D01*
X005784Y002949D01*
X005707Y002488D02*
X005784Y002412D01*
X005784Y002258D01*
X005707Y002181D01*
X005400Y002181D01*
X005323Y002258D01*
X005323Y002412D01*
X005400Y002488D01*
X010273Y002437D02*
X010273Y002283D01*
X010350Y002206D01*
X010657Y002206D01*
X010734Y002283D01*
X010734Y002437D01*
X010657Y002513D01*
X010734Y002667D02*
X010273Y002667D01*
X010350Y002513D02*
X010273Y002437D01*
X010734Y002667D02*
X010734Y002974D01*
X010734Y003127D02*
X010273Y003127D01*
X010503Y003204D02*
X010734Y003434D01*
X010734Y003588D02*
X010427Y003588D01*
X010273Y003741D01*
X010427Y003895D01*
X010734Y003895D01*
X010503Y003895D02*
X010503Y003588D01*
X010273Y003434D02*
X010580Y003127D01*
X014079Y003650D02*
X014079Y003825D01*
X014138Y003884D01*
X014254Y003884D01*
X014313Y003825D01*
X014313Y003650D01*
X014430Y003650D02*
X014079Y003650D01*
X014313Y003767D02*
X014430Y003884D01*
X014430Y004009D02*
X014371Y004009D01*
X014138Y004243D01*
X014079Y004243D01*
X014079Y004009D01*
X015323Y003918D02*
X015323Y003688D01*
X015784Y003688D01*
X015784Y003918D01*
X015707Y003995D01*
X015630Y003995D01*
X015553Y003918D01*
X015553Y003688D01*
X015553Y003918D02*
X015477Y003995D01*
X015400Y003995D01*
X015323Y003918D01*
X015323Y003534D02*
X015630Y003227D01*
X015553Y003304D02*
X015784Y003534D01*
X015784Y003227D02*
X015323Y003227D01*
X015323Y002767D02*
X015784Y002767D01*
X015784Y003074D01*
X015707Y002613D02*
X015784Y002537D01*
X015784Y002383D01*
X015707Y002306D01*
X015400Y002306D01*
X015323Y002383D01*
X015323Y002537D01*
X015400Y002613D01*
X019004Y003650D02*
X019004Y003825D01*
X019063Y003884D01*
X019179Y003884D01*
X019238Y003825D01*
X019238Y003650D01*
X019355Y003650D02*
X019004Y003650D01*
X019238Y003767D02*
X019355Y003884D01*
X019355Y004009D02*
X019355Y004243D01*
X019355Y004126D02*
X019004Y004126D01*
X019121Y004009D01*
X019121Y004368D02*
X019063Y004368D01*
X019004Y004427D01*
X019004Y004543D01*
X019063Y004602D01*
X019121Y004602D01*
X019179Y004543D01*
X019179Y004427D01*
X019121Y004368D01*
X019179Y004427D02*
X019238Y004368D01*
X019296Y004368D01*
X019355Y004427D01*
X019355Y004543D01*
X019296Y004602D01*
X019238Y004602D01*
X019179Y004543D01*
X020298Y004430D02*
X020759Y004430D01*
X020528Y004430D02*
X020528Y004123D01*
X020298Y004123D02*
X020759Y004123D01*
X020759Y003816D02*
X020298Y003816D01*
X020298Y003663D02*
X020298Y003970D01*
X020298Y003509D02*
X020605Y003202D01*
X020528Y003279D02*
X020759Y003509D01*
X020759Y003202D02*
X020298Y003202D01*
X020298Y002742D02*
X020759Y002742D01*
X020759Y003049D01*
X020682Y002588D02*
X020759Y002512D01*
X020759Y002358D01*
X020682Y002281D01*
X020375Y002281D01*
X020298Y002358D01*
X020298Y002512D01*
X020375Y002588D01*
X021104Y007675D02*
X021104Y007850D01*
X021163Y007909D01*
X021279Y007909D01*
X021338Y007850D01*
X021338Y007675D01*
X021455Y007675D02*
X021104Y007675D01*
X021338Y007792D02*
X021455Y007909D01*
X021455Y008034D02*
X021455Y008268D01*
X021455Y008151D02*
X021104Y008151D01*
X021221Y008034D01*
X021221Y008393D02*
X021104Y008510D01*
X021455Y008510D01*
X021455Y008393D02*
X021455Y008627D01*
X021904Y008575D02*
X021904Y008750D01*
X021963Y008809D01*
X022079Y008809D01*
X022138Y008750D01*
X022138Y008575D01*
X022255Y008575D02*
X021904Y008575D01*
X022138Y008692D02*
X022255Y008809D01*
X022255Y008934D02*
X022255Y009168D01*
X022255Y009051D02*
X021904Y009051D01*
X022021Y008934D01*
X021963Y009293D02*
X021904Y009352D01*
X021904Y009468D01*
X021963Y009527D01*
X022021Y009527D01*
X022079Y009468D01*
X022138Y009527D01*
X022196Y009527D01*
X022255Y009468D01*
X022255Y009352D01*
X022196Y009293D01*
X022079Y009410D02*
X022079Y009468D01*
X017505Y008309D02*
X017505Y008192D01*
X017446Y008134D01*
X017388Y008134D01*
X017329Y008192D01*
X017329Y008309D01*
X017388Y008368D01*
X017446Y008368D01*
X017505Y008309D01*
X017329Y008309D02*
X017271Y008368D01*
X017213Y008368D01*
X017154Y008309D01*
X017154Y008192D01*
X017213Y008134D01*
X017271Y008134D01*
X017329Y008192D01*
X017329Y008009D02*
X017388Y007950D01*
X017388Y007775D01*
X017505Y007775D02*
X017154Y007775D01*
X017154Y007950D01*
X017213Y008009D01*
X017329Y008009D01*
X017388Y007892D02*
X017505Y008009D01*
X016740Y008807D02*
X016389Y008807D01*
X016389Y008982D01*
X016448Y009040D01*
X016564Y009040D01*
X016623Y008982D01*
X016623Y008807D01*
X016623Y008924D02*
X016740Y009040D01*
X016681Y009166D02*
X016564Y009166D01*
X016564Y009341D01*
X016623Y009399D01*
X016681Y009399D01*
X016740Y009341D01*
X016740Y009224D01*
X016681Y009166D01*
X016564Y009166D02*
X016448Y009283D01*
X016389Y009399D01*
X018905Y014960D02*
X018905Y015310D01*
X019080Y015310D01*
X019138Y015252D01*
X019138Y015135D01*
X019080Y015077D01*
X018905Y015077D01*
X019021Y015077D02*
X019138Y014960D01*
X019264Y015018D02*
X019322Y014960D01*
X019439Y014960D01*
X019497Y015018D01*
X019497Y015252D01*
X019439Y015310D01*
X019322Y015310D01*
X019264Y015252D01*
X019264Y015194D01*
X019322Y015135D01*
X019497Y015135D01*
X019498Y015960D02*
X019731Y016194D01*
X019731Y016252D01*
X019673Y016310D01*
X019556Y016310D01*
X019498Y016252D01*
X019255Y016310D02*
X019255Y015960D01*
X019139Y015960D02*
X019372Y015960D01*
X019498Y015960D02*
X019731Y015960D01*
X019255Y016310D02*
X019139Y016194D01*
X019013Y016252D02*
X019013Y016135D01*
X018955Y016077D01*
X018780Y016077D01*
X018896Y016077D02*
X019013Y015960D01*
X018780Y015960D02*
X018780Y016310D01*
X018955Y016310D01*
X019013Y016252D01*
X016380Y016400D02*
X016029Y016400D01*
X016029Y016575D01*
X016088Y016634D01*
X016204Y016634D01*
X016263Y016575D01*
X016263Y016400D01*
X016263Y016517D02*
X016380Y016634D01*
X016204Y016759D02*
X016204Y016993D01*
X016029Y016934D02*
X016204Y016759D01*
X016029Y016934D02*
X016380Y016934D01*
X021879Y016875D02*
X021938Y016934D01*
X022054Y016934D01*
X022113Y016875D01*
X022113Y016700D01*
X022230Y016700D02*
X021879Y016700D01*
X021879Y016875D01*
X021996Y017059D02*
X021879Y017176D01*
X022230Y017176D01*
X022230Y017059D02*
X022230Y017293D01*
X022230Y016934D02*
X022113Y016817D01*
X020124Y022625D02*
X019893Y022625D01*
X019893Y023086D01*
X020124Y023086D01*
X020200Y023009D01*
X020200Y022932D01*
X020124Y022855D01*
X019893Y022855D01*
X020124Y022855D02*
X020200Y022779D01*
X020200Y022702D01*
X020124Y022625D01*
X019740Y022625D02*
X019433Y022625D01*
X019433Y023086D01*
X018973Y023086D02*
X018973Y022625D01*
X019280Y022625D01*
X018819Y022625D02*
X018666Y022625D01*
X018742Y022625D02*
X018742Y023086D01*
X018666Y023086D02*
X018819Y023086D01*
X018512Y023086D02*
X018205Y023086D01*
X018205Y022625D01*
X018205Y022855D02*
X018359Y022855D01*
X018359Y030125D02*
X018205Y030125D01*
X018129Y030202D01*
X018205Y030355D02*
X018359Y030355D01*
X018435Y030279D01*
X018435Y030202D01*
X018359Y030125D01*
X018205Y030355D02*
X018129Y030432D01*
X018129Y030509D01*
X018205Y030586D01*
X018359Y030586D01*
X018435Y030509D01*
X018589Y030586D02*
X018896Y030586D01*
X019049Y030586D02*
X019049Y030125D01*
X019356Y030125D01*
X019510Y030125D02*
X019510Y030586D01*
X019740Y030586D01*
X019817Y030509D01*
X019817Y030355D01*
X019740Y030279D01*
X019510Y030279D01*
X019203Y030355D02*
X019049Y030355D01*
X019049Y030586D02*
X019356Y030586D01*
X019970Y030586D02*
X019970Y030125D01*
X020200Y030125D01*
X020277Y030202D01*
X020277Y030279D01*
X020200Y030355D01*
X019970Y030355D01*
X020200Y030355D02*
X020277Y030432D01*
X020277Y030509D01*
X020200Y030586D01*
X019970Y030586D01*
X018742Y030586D02*
X018742Y030125D01*
D13*
X007209Y032220D02*
X007022Y032220D01*
X007115Y032220D02*
X007115Y031940D01*
X006933Y031987D02*
X006886Y031940D01*
X006792Y031940D01*
X006746Y031987D01*
X006656Y031940D02*
X006563Y032033D01*
X006610Y032033D02*
X006470Y032033D01*
X006470Y031940D02*
X006470Y032220D01*
X006610Y032220D01*
X006656Y032174D01*
X006656Y032080D01*
X006610Y032033D01*
X006746Y032127D02*
X006792Y032080D01*
X006886Y032080D01*
X006933Y032033D01*
X006933Y031987D01*
X006933Y032174D02*
X006886Y032220D01*
X006792Y032220D01*
X006746Y032174D01*
X006746Y032127D01*
X006746Y032940D02*
X006933Y033220D01*
X006746Y033220D02*
X006933Y032940D01*
X006563Y032940D02*
X006563Y033220D01*
X006470Y033220D02*
X006656Y033220D01*
X006656Y033940D02*
X006563Y034033D01*
X006610Y034033D02*
X006470Y034033D01*
X006470Y033940D02*
X006470Y034220D01*
X006610Y034220D01*
X006656Y034174D01*
X006656Y034080D01*
X006610Y034033D01*
X006746Y033940D02*
X006933Y034220D01*
X006746Y034220D02*
X006933Y033940D01*
X006839Y034940D02*
X006933Y035033D01*
X006933Y035220D01*
X006746Y035220D02*
X006746Y035033D01*
X006839Y034940D01*
X006656Y034987D02*
X006610Y034940D01*
X006516Y034940D01*
X006470Y034987D01*
X006470Y035080D02*
X006563Y035127D01*
X006610Y035127D01*
X006656Y035080D01*
X006656Y034987D01*
X006470Y035080D02*
X006470Y035220D01*
X006656Y035220D01*
X006610Y036997D02*
X006656Y037043D01*
X006656Y037277D01*
X006516Y037277D01*
X006470Y037230D01*
X006470Y037137D01*
X006516Y037090D01*
X006656Y037090D01*
X006746Y037090D02*
X006746Y037277D01*
X006886Y037277D01*
X006933Y037230D01*
X006933Y037090D01*
X007022Y037137D02*
X007022Y037230D01*
X007069Y037277D01*
X007209Y037277D01*
X007209Y037370D02*
X007209Y037090D01*
X007069Y037090D01*
X007022Y037137D01*
X006610Y036997D02*
X006563Y036997D01*
D14*
X013695Y021081D02*
X013905Y021081D01*
X013800Y021081D02*
X013800Y020450D01*
X013695Y020450D02*
X013905Y020450D01*
X014124Y020555D02*
X014124Y020975D01*
X014229Y021081D01*
X014439Y021081D01*
X014545Y020975D01*
X014769Y020870D02*
X014979Y021081D01*
X014979Y020450D01*
X014769Y020450D02*
X015189Y020450D01*
X014545Y020555D02*
X014439Y020450D01*
X014229Y020450D01*
X014124Y020555D01*
D15*
X013340Y019130D02*
X013340Y018230D01*
X013370Y018175D01*
X013403Y018122D01*
X013439Y018071D01*
X013479Y018022D01*
X013521Y017976D01*
X013567Y017933D01*
X013614Y017892D01*
X013665Y017855D01*
X013717Y017821D01*
X013772Y017790D01*
X013828Y017762D01*
X013886Y017738D01*
X013945Y017718D01*
X014006Y017702D01*
X014067Y017689D01*
X014129Y017680D01*
X014191Y017675D01*
X014254Y017674D01*
X014317Y017677D01*
X014379Y017684D01*
X014441Y017694D01*
X014502Y017709D01*
X014561Y017727D01*
X014620Y017749D01*
X014677Y017774D01*
X014733Y017803D01*
X014787Y017835D01*
X014838Y017871D01*
X014887Y017910D01*
X014934Y017952D01*
X014978Y017996D01*
X015019Y018043D01*
X015057Y018093D01*
X015092Y018145D01*
X015124Y018199D01*
X015152Y018255D01*
X015177Y018313D01*
X015198Y018372D01*
X015215Y018432D01*
X015228Y018493D01*
X015238Y018555D01*
X015244Y018617D01*
X015246Y018680D01*
X015244Y018743D01*
X015238Y018805D01*
X015228Y018867D01*
X015215Y018928D01*
X015198Y018988D01*
X015177Y019047D01*
X015152Y019105D01*
X015124Y019161D01*
X015092Y019215D01*
X015057Y019267D01*
X015019Y019317D01*
X014978Y019364D01*
X014934Y019408D01*
X014887Y019450D01*
X014838Y019489D01*
X014787Y019525D01*
X014733Y019557D01*
X014677Y019586D01*
X014620Y019611D01*
X014561Y019633D01*
X014502Y019651D01*
X014441Y019666D01*
X014379Y019676D01*
X014317Y019683D01*
X014254Y019686D01*
X014191Y019685D01*
X014129Y019680D01*
X014067Y019671D01*
X014006Y019658D01*
X013945Y019642D01*
X013886Y019622D01*
X013828Y019598D01*
X013772Y019570D01*
X013717Y019539D01*
X013665Y019505D01*
X013614Y019468D01*
X013567Y019427D01*
X013521Y019384D01*
X013479Y019338D01*
X013439Y019289D01*
X013403Y019238D01*
X013370Y019185D01*
X013340Y019130D01*
X011228Y019211D02*
X007291Y019211D01*
X007291Y023345D02*
X011228Y023345D01*
X010660Y024330D02*
X010670Y024278D01*
X010684Y024227D01*
X010702Y024177D01*
X010723Y024129D01*
X010748Y024082D01*
X010776Y024038D01*
X010808Y023995D01*
X010842Y023955D01*
X010880Y023918D01*
X010920Y023884D01*
X010962Y023852D01*
X011007Y023824D01*
X011054Y023800D01*
X011102Y023779D01*
X011152Y023761D01*
X011203Y023748D01*
X011255Y023738D01*
X011307Y023732D01*
X011360Y023730D01*
X011413Y023732D01*
X011465Y023738D01*
X011517Y023748D01*
X011568Y023761D01*
X011618Y023779D01*
X011666Y023800D01*
X011713Y023824D01*
X011758Y023852D01*
X011800Y023884D01*
X011840Y023918D01*
X011878Y023955D01*
X011912Y023995D01*
X011944Y024038D01*
X011972Y024082D01*
X011997Y024129D01*
X012018Y024177D01*
X012036Y024227D01*
X012050Y024278D01*
X012060Y024330D01*
X012060Y026130D02*
X012050Y026182D01*
X012036Y026233D01*
X012018Y026283D01*
X011997Y026331D01*
X011972Y026378D01*
X011944Y026422D01*
X011912Y026465D01*
X011878Y026505D01*
X011840Y026542D01*
X011800Y026576D01*
X011758Y026608D01*
X011713Y026636D01*
X011666Y026660D01*
X011618Y026681D01*
X011568Y026699D01*
X011517Y026712D01*
X011465Y026722D01*
X011413Y026728D01*
X011360Y026730D01*
X011307Y026728D01*
X011255Y026722D01*
X011203Y026712D01*
X011152Y026699D01*
X011102Y026681D01*
X011054Y026660D01*
X011007Y026636D01*
X010962Y026608D01*
X010920Y026576D01*
X010880Y026542D01*
X010842Y026505D01*
X010808Y026465D01*
X010776Y026422D01*
X010748Y026378D01*
X010723Y026331D01*
X010702Y026283D01*
X010684Y026233D01*
X010670Y026182D01*
X010660Y026130D01*
X011228Y026711D02*
X007291Y026711D01*
X012060Y026130D02*
X012078Y025951D01*
X012092Y025771D01*
X012102Y025591D01*
X012108Y025410D01*
X012110Y025230D01*
X012108Y025050D01*
X012102Y024869D01*
X012092Y024689D01*
X012078Y024509D01*
X012060Y024330D01*
X017291Y023345D02*
X021228Y023345D01*
X022010Y023430D02*
X022010Y022930D01*
X022260Y022680D01*
X022760Y022680D01*
X023010Y022930D01*
X023010Y023430D01*
X022760Y023680D01*
X023010Y023930D01*
X023010Y024430D01*
X022760Y024680D01*
X023010Y024930D01*
X023010Y025430D01*
X022760Y025680D01*
X023010Y025930D01*
X023010Y026430D01*
X022760Y026680D01*
X023010Y026930D01*
X023010Y027430D01*
X022760Y027680D01*
X023010Y027930D01*
X023010Y028430D01*
X022760Y028680D01*
X022260Y028680D01*
X022010Y028430D01*
X022010Y027930D01*
X022260Y027680D01*
X022010Y027430D01*
X022010Y026930D01*
X022260Y026680D01*
X022010Y026430D01*
X022010Y025930D01*
X022260Y025680D01*
X022010Y025430D01*
X022010Y024930D01*
X022260Y024680D01*
X022010Y024430D01*
X022010Y023930D01*
X022260Y023680D01*
X022010Y023430D01*
X021228Y026711D02*
X017291Y026711D01*
X010660Y026130D02*
X010642Y025951D01*
X010628Y025771D01*
X010618Y025591D01*
X010612Y025410D01*
X010610Y025230D01*
X010612Y025050D01*
X010618Y024869D01*
X010628Y024689D01*
X010642Y024509D01*
X010660Y024330D01*
X011228Y030845D02*
X007291Y030845D01*
X006260Y031930D02*
X006010Y031680D01*
X005510Y031680D01*
X005260Y031930D01*
X005260Y032430D01*
X005510Y032680D01*
X005260Y032930D01*
X005260Y033430D01*
X005510Y033680D01*
X005260Y033930D01*
X005260Y034430D01*
X005510Y034680D01*
X005260Y034930D01*
X005260Y035430D01*
X005510Y035680D01*
X005260Y035930D01*
X005260Y036430D01*
X005510Y036680D01*
X005260Y036930D01*
X005260Y037430D01*
X005510Y037680D01*
X006010Y037680D01*
X006260Y037430D01*
X006260Y036930D01*
X006010Y036680D01*
X006260Y036430D01*
X006260Y035930D01*
X006010Y035680D01*
X006260Y035430D01*
X006260Y034930D01*
X006010Y034680D01*
X006260Y034430D01*
X006260Y033930D01*
X006010Y033680D01*
X006260Y033430D01*
X006260Y032930D01*
X006010Y032680D01*
X006260Y032430D01*
X006260Y031930D01*
X007291Y034211D02*
X011228Y034211D01*
X011228Y038345D02*
X007291Y038345D01*
X017291Y038345D02*
X021228Y038345D01*
X021228Y034211D02*
X017291Y034211D01*
X017291Y030845D02*
X021228Y030845D01*
X021228Y019211D02*
X017291Y019211D01*
X015677Y016180D02*
X015010Y016180D01*
X015677Y016180D02*
X015677Y011180D01*
X015010Y011180D01*
X013510Y011180D02*
X012842Y011180D01*
X012842Y016180D01*
X013510Y016180D01*
X008340Y014130D02*
X008370Y014185D01*
X008403Y014238D01*
X008439Y014289D01*
X008479Y014338D01*
X008521Y014384D01*
X008567Y014427D01*
X008614Y014468D01*
X008665Y014505D01*
X008717Y014539D01*
X008772Y014570D01*
X008828Y014598D01*
X008886Y014622D01*
X008945Y014642D01*
X009006Y014658D01*
X009067Y014671D01*
X009129Y014680D01*
X009191Y014685D01*
X009254Y014686D01*
X009317Y014683D01*
X009379Y014676D01*
X009441Y014666D01*
X009502Y014651D01*
X009561Y014633D01*
X009620Y014611D01*
X009677Y014586D01*
X009733Y014557D01*
X009787Y014525D01*
X009838Y014489D01*
X009887Y014450D01*
X009934Y014408D01*
X009978Y014364D01*
X010019Y014317D01*
X010057Y014267D01*
X010092Y014215D01*
X010124Y014161D01*
X010152Y014105D01*
X010177Y014047D01*
X010198Y013988D01*
X010215Y013928D01*
X010228Y013867D01*
X010238Y013805D01*
X010244Y013743D01*
X010246Y013680D01*
X010244Y013617D01*
X010238Y013555D01*
X010228Y013493D01*
X010215Y013432D01*
X010198Y013372D01*
X010177Y013313D01*
X010152Y013255D01*
X010124Y013199D01*
X010092Y013145D01*
X010057Y013093D01*
X010019Y013043D01*
X009978Y012996D01*
X009934Y012952D01*
X009887Y012910D01*
X009838Y012871D01*
X009787Y012835D01*
X009733Y012803D01*
X009677Y012774D01*
X009620Y012749D01*
X009561Y012727D01*
X009502Y012709D01*
X009441Y012694D01*
X009379Y012684D01*
X009317Y012677D01*
X009254Y012674D01*
X009191Y012675D01*
X009129Y012680D01*
X009067Y012689D01*
X009006Y012702D01*
X008945Y012718D01*
X008886Y012738D01*
X008828Y012762D01*
X008772Y012790D01*
X008717Y012821D01*
X008665Y012855D01*
X008614Y012892D01*
X008567Y012933D01*
X008521Y012976D01*
X008479Y013022D01*
X008439Y013071D01*
X008403Y013122D01*
X008370Y013175D01*
X008340Y013230D01*
X008340Y014130D01*
X007860Y014180D02*
X007860Y011180D01*
X006660Y011180D01*
X006660Y014180D01*
X007860Y014180D01*
X007842Y011180D02*
X008510Y011180D01*
X007842Y011180D02*
X007842Y006180D01*
X008510Y006180D01*
X007860Y006680D02*
X006660Y006680D01*
X006660Y009680D01*
X007860Y009680D01*
X007860Y006680D01*
X010010Y006180D02*
X010677Y006180D01*
X010677Y011180D01*
X010010Y011180D01*
X017842Y011180D02*
X017842Y006180D01*
X018510Y006180D01*
X020010Y006180D02*
X020677Y006180D01*
X020677Y011180D01*
X020010Y011180D01*
X018510Y011180D02*
X017842Y011180D01*
X018340Y013230D02*
X018340Y014130D01*
X018370Y014185D01*
X018403Y014238D01*
X018439Y014289D01*
X018479Y014338D01*
X018521Y014384D01*
X018567Y014427D01*
X018614Y014468D01*
X018665Y014505D01*
X018717Y014539D01*
X018772Y014570D01*
X018828Y014598D01*
X018886Y014622D01*
X018945Y014642D01*
X019006Y014658D01*
X019067Y014671D01*
X019129Y014680D01*
X019191Y014685D01*
X019254Y014686D01*
X019317Y014683D01*
X019379Y014676D01*
X019441Y014666D01*
X019502Y014651D01*
X019561Y014633D01*
X019620Y014611D01*
X019677Y014586D01*
X019733Y014557D01*
X019787Y014525D01*
X019838Y014489D01*
X019887Y014450D01*
X019934Y014408D01*
X019978Y014364D01*
X020019Y014317D01*
X020057Y014267D01*
X020092Y014215D01*
X020124Y014161D01*
X020152Y014105D01*
X020177Y014047D01*
X020198Y013988D01*
X020215Y013928D01*
X020228Y013867D01*
X020238Y013805D01*
X020244Y013743D01*
X020246Y013680D01*
X020244Y013617D01*
X020238Y013555D01*
X020228Y013493D01*
X020215Y013432D01*
X020198Y013372D01*
X020177Y013313D01*
X020152Y013255D01*
X020124Y013199D01*
X020092Y013145D01*
X020057Y013093D01*
X020019Y013043D01*
X019978Y012996D01*
X019934Y012952D01*
X019887Y012910D01*
X019838Y012871D01*
X019787Y012835D01*
X019733Y012803D01*
X019677Y012774D01*
X019620Y012749D01*
X019561Y012727D01*
X019502Y012709D01*
X019441Y012694D01*
X019379Y012684D01*
X019317Y012677D01*
X019254Y012674D01*
X019191Y012675D01*
X019129Y012680D01*
X019067Y012689D01*
X019006Y012702D01*
X018945Y012718D01*
X018886Y012738D01*
X018828Y012762D01*
X018772Y012790D01*
X018717Y012821D01*
X018665Y012855D01*
X018614Y012892D01*
X018567Y012933D01*
X018521Y012976D01*
X018479Y013022D01*
X018439Y013071D01*
X018403Y013122D01*
X018370Y013175D01*
X018340Y013230D01*
D16*
X017920Y013405D02*
X017920Y013480D01*
X017845Y013555D01*
X017770Y013555D01*
X017845Y013555D02*
X017920Y013630D01*
X017920Y013705D01*
X017845Y013780D01*
X017695Y013780D01*
X017620Y013705D01*
X017460Y013705D02*
X017460Y013405D01*
X017385Y013330D01*
X017235Y013330D01*
X017160Y013405D01*
X017160Y013705D01*
X017235Y013780D01*
X017385Y013780D01*
X017460Y013705D01*
X017310Y013480D02*
X017460Y013330D01*
X017620Y013405D02*
X017695Y013330D01*
X017845Y013330D01*
X017920Y013405D01*
X018443Y012505D02*
X018443Y012055D01*
X018743Y012055D01*
X018903Y012055D02*
X018903Y012505D01*
X019204Y012505D01*
X019364Y012505D02*
X019364Y012055D01*
X019589Y012055D01*
X019664Y012130D01*
X019664Y012430D01*
X019589Y012505D01*
X019364Y012505D01*
X019053Y012280D02*
X018903Y012280D01*
X018903Y012055D02*
X019204Y012055D01*
X019220Y011655D02*
X019070Y011655D01*
X018995Y011580D01*
X018835Y011580D02*
X018760Y011655D01*
X018610Y011655D01*
X018535Y011580D01*
X018535Y011505D01*
X018610Y011430D01*
X018760Y011430D01*
X018835Y011355D01*
X018835Y011280D01*
X018760Y011205D01*
X018610Y011205D01*
X018535Y011280D01*
X018995Y011205D02*
X019295Y011505D01*
X019295Y011580D01*
X019220Y011655D01*
X019295Y011205D02*
X018995Y011205D01*
X019824Y012055D02*
X020049Y012055D01*
X020124Y012130D01*
X020124Y012205D01*
X020049Y012280D01*
X019824Y012280D01*
X019824Y012055D02*
X019824Y012505D01*
X020049Y012505D01*
X020124Y012430D01*
X020124Y012355D01*
X020049Y012280D01*
X020610Y011605D02*
X020610Y013255D01*
X021210Y012983D02*
X021210Y012877D01*
X020813Y013380D02*
X020759Y013353D01*
X020708Y013323D01*
X020658Y013290D01*
X020610Y013255D01*
X021707Y013380D02*
X021764Y013351D01*
X021820Y013318D01*
X021873Y013283D01*
X021924Y013243D01*
X021972Y013201D01*
X022018Y013156D01*
X022061Y013109D01*
X022101Y013059D01*
X022138Y013006D01*
X022171Y012951D01*
X022202Y012895D01*
X022228Y012836D01*
X022251Y012776D01*
X022271Y012715D01*
X022286Y012653D01*
X022298Y012590D01*
X022306Y012526D01*
X022310Y012462D01*
X022310Y012398D01*
X022306Y012334D01*
X022298Y012270D01*
X022286Y012207D01*
X022271Y012145D01*
X022251Y012084D01*
X022228Y012024D01*
X022202Y011965D01*
X022171Y011909D01*
X022138Y011854D01*
X022101Y011801D01*
X022061Y011751D01*
X022018Y011704D01*
X021972Y011659D01*
X021924Y011617D01*
X021873Y011577D01*
X021820Y011542D01*
X021764Y011509D01*
X021707Y011480D01*
X021210Y011877D02*
X021210Y011983D01*
X020822Y011476D02*
X020766Y011503D01*
X020712Y011534D01*
X020660Y011568D01*
X020610Y011605D01*
X021960Y013380D02*
X021885Y013455D01*
X021885Y013755D01*
X021960Y013830D01*
X022110Y013830D01*
X022185Y013755D01*
X022185Y013455D01*
X022110Y013380D01*
X021960Y013380D01*
X022035Y013530D02*
X022185Y013380D01*
X022345Y013380D02*
X022645Y013680D01*
X022645Y013755D01*
X022570Y013830D01*
X022420Y013830D01*
X022345Y013755D01*
X022345Y013380D02*
X022645Y013380D01*
X021228Y019211D02*
X021228Y023345D01*
X021905Y022500D02*
X022055Y022500D01*
X021980Y022500D02*
X021980Y022125D01*
X021905Y022050D01*
X021830Y022050D01*
X021755Y022125D01*
X022215Y022050D02*
X022215Y022500D01*
X022440Y022500D01*
X022515Y022425D01*
X022515Y022275D01*
X022440Y022200D01*
X022215Y022200D01*
X022675Y022050D02*
X022976Y022350D01*
X022976Y022425D01*
X022900Y022500D01*
X022750Y022500D01*
X022675Y022425D01*
X022675Y022050D02*
X022976Y022050D01*
X019720Y023580D02*
X019645Y023505D01*
X019495Y023505D01*
X019420Y023580D01*
X019260Y023580D02*
X019185Y023505D01*
X019035Y023505D01*
X018960Y023580D01*
X018960Y023880D01*
X019035Y023955D01*
X019185Y023955D01*
X019260Y023880D01*
X019420Y023880D02*
X019495Y023955D01*
X019645Y023955D01*
X019720Y023880D01*
X019720Y023805D01*
X019645Y023730D01*
X019720Y023655D01*
X019720Y023580D01*
X019645Y023730D02*
X019570Y023730D01*
X017291Y023345D02*
X017291Y019211D01*
X015174Y017355D02*
X015099Y017430D01*
X014949Y017430D01*
X014874Y017355D01*
X014874Y017055D01*
X014949Y016980D01*
X015099Y016980D01*
X015174Y017055D01*
X014714Y017055D02*
X014714Y017355D01*
X014639Y017430D01*
X014414Y017430D01*
X014414Y016980D01*
X014639Y016980D01*
X014714Y017055D01*
X014254Y016980D02*
X013953Y016980D01*
X013953Y017430D01*
X014254Y017430D01*
X014103Y017205D02*
X013953Y017205D01*
X013793Y016980D02*
X013493Y016980D01*
X013493Y017430D01*
X013610Y016655D02*
X013535Y016580D01*
X013535Y016505D01*
X013610Y016430D01*
X013760Y016430D01*
X013835Y016355D01*
X013835Y016280D01*
X013760Y016205D01*
X013610Y016205D01*
X013535Y016280D01*
X013610Y016655D02*
X013760Y016655D01*
X013835Y016580D01*
X013995Y016580D02*
X014070Y016655D01*
X014220Y016655D01*
X014295Y016580D01*
X014295Y016505D01*
X014220Y016430D01*
X014295Y016355D01*
X014295Y016280D01*
X014220Y016205D01*
X014070Y016205D01*
X013995Y016280D01*
X014145Y016430D02*
X014220Y016430D01*
X012660Y013255D02*
X012660Y011605D01*
X012488Y011042D02*
X013551Y011042D01*
X012488Y011042D02*
X012488Y006908D01*
X014023Y006908D01*
X014496Y006908D02*
X016031Y006908D01*
X016031Y011042D01*
X014968Y011042D01*
X015860Y011605D02*
X015860Y013255D01*
X016460Y012983D02*
X016460Y012877D01*
X016063Y013380D02*
X016009Y013353D01*
X015958Y013323D01*
X015908Y013290D01*
X015860Y013255D01*
X016957Y013380D02*
X017014Y013351D01*
X017070Y013318D01*
X017123Y013283D01*
X017174Y013243D01*
X017222Y013201D01*
X017268Y013156D01*
X017311Y013109D01*
X017351Y013059D01*
X017388Y013006D01*
X017421Y012951D01*
X017452Y012895D01*
X017478Y012836D01*
X017501Y012776D01*
X017521Y012715D01*
X017536Y012653D01*
X017548Y012590D01*
X017556Y012526D01*
X017560Y012462D01*
X017560Y012398D01*
X017556Y012334D01*
X017548Y012270D01*
X017536Y012207D01*
X017521Y012145D01*
X017501Y012084D01*
X017478Y012024D01*
X017452Y011965D01*
X017421Y011909D01*
X017388Y011854D01*
X017351Y011801D01*
X017311Y011751D01*
X017268Y011704D01*
X017222Y011659D01*
X017174Y011617D01*
X017123Y011577D01*
X017070Y011542D01*
X017014Y011509D01*
X016957Y011480D01*
X016460Y011877D02*
X016460Y011983D01*
X016072Y011476D02*
X016016Y011503D01*
X015962Y011534D01*
X015910Y011568D01*
X015860Y011605D01*
X012060Y011877D02*
X012060Y011983D01*
X012456Y011480D02*
X012510Y011507D01*
X012561Y011537D01*
X012611Y011570D01*
X012659Y011605D01*
X011563Y011480D02*
X011506Y011509D01*
X011450Y011542D01*
X011397Y011577D01*
X011346Y011617D01*
X011298Y011659D01*
X011252Y011704D01*
X011209Y011751D01*
X011169Y011801D01*
X011132Y011854D01*
X011099Y011909D01*
X011068Y011965D01*
X011042Y012024D01*
X011019Y012084D01*
X010999Y012145D01*
X010984Y012207D01*
X010972Y012270D01*
X010964Y012334D01*
X010960Y012398D01*
X010960Y012462D01*
X010964Y012526D01*
X010972Y012590D01*
X010984Y012653D01*
X010999Y012715D01*
X011019Y012776D01*
X011042Y012836D01*
X011068Y012895D01*
X011099Y012951D01*
X011132Y013006D01*
X011169Y013059D01*
X011209Y013109D01*
X011252Y013156D01*
X011298Y013201D01*
X011346Y013243D01*
X011397Y013283D01*
X011450Y013318D01*
X011506Y013351D01*
X011563Y013380D01*
X012060Y012983D02*
X012060Y012877D01*
X012447Y013384D02*
X012503Y013357D01*
X012557Y013326D01*
X012609Y013292D01*
X012659Y013255D01*
X011124Y011730D02*
X010899Y011505D01*
X011199Y011505D01*
X011124Y011280D02*
X011124Y011730D01*
X010739Y011655D02*
X010739Y011355D01*
X010664Y011280D01*
X010514Y011280D01*
X010439Y011355D01*
X010439Y011655D01*
X010514Y011730D01*
X010664Y011730D01*
X010739Y011655D01*
X010589Y011430D02*
X010739Y011280D01*
X010049Y012005D02*
X010049Y012305D01*
X009899Y012455D01*
X009749Y012305D01*
X009749Y012005D01*
X009589Y012080D02*
X009589Y012380D01*
X009514Y012455D01*
X009289Y012455D01*
X009289Y012005D01*
X009514Y012005D01*
X009589Y012080D01*
X009749Y012230D02*
X010049Y012230D01*
X009129Y012005D02*
X008828Y012005D01*
X008828Y012455D01*
X009129Y012455D01*
X008978Y012230D02*
X008828Y012230D01*
X008668Y012005D02*
X008368Y012005D01*
X008368Y012455D01*
X008610Y011655D02*
X008535Y011580D01*
X008535Y011505D01*
X008610Y011430D01*
X008760Y011430D01*
X008835Y011355D01*
X008835Y011280D01*
X008760Y011205D01*
X008610Y011205D01*
X008535Y011280D01*
X008610Y011655D02*
X008760Y011655D01*
X008835Y011580D01*
X008995Y011505D02*
X009145Y011655D01*
X009145Y011205D01*
X008995Y011205D02*
X009295Y011205D01*
X009988Y006042D02*
X011051Y006042D01*
X009988Y006042D02*
X009988Y001908D01*
X011523Y001908D01*
X011996Y001908D02*
X013531Y001908D01*
X013531Y006042D01*
X012468Y006042D01*
X014988Y006042D02*
X016051Y006042D01*
X014988Y006042D02*
X014988Y001908D01*
X016523Y001908D01*
X016996Y001908D02*
X018531Y001908D01*
X018531Y006042D01*
X017468Y006042D01*
X019988Y006042D02*
X021051Y006042D01*
X019988Y006042D02*
X019988Y001908D01*
X021523Y001908D01*
X021996Y001908D02*
X023531Y001908D01*
X023531Y006042D01*
X022468Y006042D01*
X011228Y019211D02*
X011228Y023345D01*
X011228Y026711D02*
X011228Y030845D01*
X011228Y034211D02*
X011228Y038345D01*
X013685Y039080D02*
X013760Y039005D01*
X013910Y039005D01*
X013985Y039080D01*
X014145Y039005D02*
X014445Y039005D01*
X014295Y039005D02*
X014295Y039455D01*
X014145Y039305D01*
X013985Y039380D02*
X013910Y039455D01*
X013760Y039455D01*
X013685Y039380D01*
X013685Y039080D01*
X017291Y038345D02*
X017291Y034211D01*
X017291Y030845D02*
X017291Y026711D01*
X021228Y026711D02*
X021228Y030845D01*
X021228Y034211D02*
X021228Y038345D01*
X020955Y038780D02*
X021031Y038855D01*
X021031Y039155D01*
X020955Y039230D01*
X020730Y039230D01*
X020730Y038780D01*
X020955Y038780D01*
X020570Y038780D02*
X020570Y039230D01*
X020270Y039230D02*
X020270Y038780D01*
X020110Y038855D02*
X020110Y039005D01*
X019960Y039005D01*
X020110Y038855D02*
X020035Y038780D01*
X019885Y038780D01*
X019810Y038855D01*
X019810Y039155D01*
X019885Y039230D01*
X020035Y039230D01*
X020110Y039155D01*
X020270Y039230D02*
X020570Y038780D01*
X007291Y038345D02*
X007291Y034211D01*
X006200Y031500D02*
X006050Y031350D01*
X005890Y031425D02*
X005890Y031275D01*
X005815Y031200D01*
X005590Y031200D01*
X005590Y031050D02*
X005590Y031500D01*
X005815Y031500D01*
X005890Y031425D01*
X006200Y031500D02*
X006200Y031050D01*
X006050Y031050D02*
X006351Y031050D01*
X007291Y030845D02*
X007291Y026711D01*
X006349Y024955D02*
X006199Y024955D01*
X006124Y024880D01*
X005964Y024880D02*
X005889Y024955D01*
X005739Y024955D01*
X005664Y024880D01*
X005664Y024580D01*
X005739Y024505D01*
X005889Y024505D01*
X005964Y024580D01*
X006124Y024505D02*
X006424Y024805D01*
X006424Y024880D01*
X006349Y024955D01*
X006424Y024505D02*
X006124Y024505D01*
X007291Y023345D02*
X007291Y019211D01*
X006160Y020355D02*
X006160Y022005D01*
X006210Y022105D02*
X006060Y022105D01*
X005985Y022180D01*
X005985Y022480D01*
X006060Y022555D01*
X006210Y022555D01*
X006285Y022480D01*
X006285Y022180D01*
X006210Y022105D01*
X006285Y022105D02*
X006135Y022255D01*
X006445Y022105D02*
X006745Y022105D01*
X006595Y022105D02*
X006595Y022555D01*
X006445Y022405D01*
X005560Y021733D02*
X005560Y021627D01*
X005947Y022134D02*
X006003Y022107D01*
X006057Y022076D01*
X006109Y022042D01*
X006159Y022005D01*
X005063Y022130D02*
X005006Y022101D01*
X004950Y022068D01*
X004897Y022033D01*
X004846Y021993D01*
X004798Y021951D01*
X004752Y021906D01*
X004709Y021859D01*
X004669Y021809D01*
X004632Y021756D01*
X004599Y021701D01*
X004568Y021645D01*
X004542Y021586D01*
X004519Y021526D01*
X004499Y021465D01*
X004484Y021403D01*
X004472Y021340D01*
X004464Y021276D01*
X004460Y021212D01*
X004460Y021148D01*
X004464Y021084D01*
X004472Y021020D01*
X004484Y020957D01*
X004499Y020895D01*
X004519Y020834D01*
X004542Y020774D01*
X004568Y020715D01*
X004599Y020659D01*
X004632Y020604D01*
X004669Y020551D01*
X004709Y020501D01*
X004752Y020454D01*
X004798Y020409D01*
X004846Y020367D01*
X004897Y020327D01*
X004950Y020292D01*
X005006Y020259D01*
X005063Y020230D01*
X005560Y020627D02*
X005560Y020733D01*
X005956Y020230D02*
X006010Y020257D01*
X006061Y020287D01*
X006111Y020320D01*
X006159Y020355D01*
X005280Y031050D02*
X005205Y031050D01*
X005130Y031125D01*
X005280Y031050D02*
X005355Y031125D01*
X005355Y031500D01*
X005280Y031500D02*
X005430Y031500D01*
X004988Y006042D02*
X006051Y006042D01*
X004988Y006042D02*
X004988Y001908D01*
X006523Y001908D01*
X006996Y001908D02*
X008531Y001908D01*
X008531Y006042D01*
X007468Y006042D01*
D17*
X011260Y008105D03*
X012010Y007105D03*
X012010Y009255D03*
X011260Y010255D03*
X014260Y005255D03*
X014260Y003105D03*
X017260Y007105D03*
X016510Y008105D03*
X017260Y009255D03*
X016510Y010255D03*
X021260Y009255D03*
X022010Y010255D03*
X022010Y008105D03*
X021260Y007105D03*
X019260Y005255D03*
X019260Y003105D03*
X016260Y015605D03*
X016260Y017755D03*
X022010Y018255D03*
X022010Y016105D03*
X006010Y016605D03*
X005010Y016605D03*
X005010Y018755D03*
X006010Y018755D03*
D18*
X008685Y017180D03*
X008685Y016180D03*
X008685Y015180D03*
X010835Y015180D03*
X010835Y016180D03*
X010835Y017180D03*
X018185Y016180D03*
X018185Y015180D03*
X020335Y015180D03*
X020335Y016180D03*
X015085Y036930D03*
X012935Y036930D03*
D19*
X013640Y019190D02*
X013640Y019010D01*
X013640Y018370D02*
X013640Y018170D01*
X018640Y014190D02*
X018640Y014010D01*
X018640Y013370D02*
X018640Y013170D01*
X022510Y009930D02*
X022510Y007930D01*
X023510Y007930D01*
X023510Y009930D01*
X023010Y009930D01*
X023010Y010180D01*
X023010Y009930D02*
X022510Y009930D01*
X022510Y007930D02*
X022510Y007430D01*
X023010Y007430D01*
X023010Y007180D01*
X023010Y007430D02*
X023510Y007430D01*
X023510Y007930D01*
X008640Y013170D02*
X008640Y013370D01*
X008640Y014010D02*
X008640Y014190D01*
X007760Y015555D02*
X007260Y015555D01*
X007260Y015305D01*
X007260Y015555D02*
X006760Y015555D01*
X006760Y016055D01*
X007760Y016055D01*
X007760Y018055D01*
X007260Y018055D01*
X007260Y018305D01*
X007260Y018055D02*
X006760Y018055D01*
X006760Y016055D01*
X007760Y016055D02*
X007760Y015555D01*
D20*
X007545Y016608D02*
X007174Y016608D01*
X007174Y016794D01*
X007236Y016855D01*
X007483Y016855D01*
X007545Y016794D01*
X007545Y016608D01*
X007545Y016977D02*
X007298Y017224D01*
X007236Y017224D01*
X007174Y017162D01*
X007174Y017038D01*
X007236Y016977D01*
X007545Y016977D02*
X007545Y017224D01*
X007445Y012942D02*
X007445Y012695D01*
X007198Y012942D01*
X007136Y012942D01*
X007074Y012880D01*
X007074Y012757D01*
X007136Y012695D01*
X007074Y012574D02*
X007074Y012327D01*
X007445Y012327D01*
X007259Y012327D02*
X007259Y012450D01*
X007445Y008442D02*
X007445Y008195D01*
X007445Y008318D02*
X007074Y008318D01*
X007198Y008195D01*
X007074Y008074D02*
X007074Y007827D01*
X007445Y007827D01*
X007259Y007827D02*
X007259Y007950D01*
X022924Y008608D02*
X022924Y008794D01*
X022986Y008855D01*
X023233Y008855D01*
X023295Y008794D01*
X023295Y008608D01*
X022924Y008608D01*
X023048Y008977D02*
X022924Y009100D01*
X023295Y009100D01*
X023295Y008977D02*
X023295Y009224D01*
D21*
X019991Y014103D02*
X019913Y014058D01*
X019913Y014059D02*
X019885Y014103D01*
X019854Y014145D01*
X019821Y014185D01*
X019785Y014223D01*
X019746Y014258D01*
X019705Y014290D01*
X019661Y014320D01*
X019616Y014346D01*
X019569Y014369D01*
X019521Y014389D01*
X019471Y014405D01*
X019421Y014418D01*
X019369Y014427D01*
X019317Y014433D01*
X019265Y014435D01*
X019264Y014524D01*
X019265Y014525D01*
X019320Y014523D01*
X019374Y014517D01*
X019429Y014508D01*
X019482Y014495D01*
X019534Y014479D01*
X019586Y014460D01*
X019636Y014437D01*
X019684Y014411D01*
X019731Y014382D01*
X019775Y014350D01*
X019818Y014315D01*
X019858Y014277D01*
X019895Y014237D01*
X019930Y014195D01*
X019962Y014150D01*
X019991Y014104D01*
X019983Y014099D01*
X019955Y014145D01*
X019923Y014189D01*
X019888Y014231D01*
X019851Y014271D01*
X019812Y014308D01*
X019770Y014343D01*
X019726Y014374D01*
X019680Y014403D01*
X019632Y014429D01*
X019582Y014451D01*
X019532Y014471D01*
X019480Y014487D01*
X019427Y014499D01*
X019373Y014508D01*
X019319Y014514D01*
X019265Y014516D01*
X019265Y014507D01*
X019319Y014505D01*
X019372Y014499D01*
X019425Y014490D01*
X019477Y014478D01*
X019529Y014462D01*
X019579Y014443D01*
X019628Y014421D01*
X019675Y014395D01*
X019721Y014367D01*
X019764Y014335D01*
X019806Y014301D01*
X019845Y014265D01*
X019882Y014225D01*
X019916Y014184D01*
X019947Y014140D01*
X019976Y014095D01*
X019968Y014090D01*
X019938Y014138D01*
X019904Y014184D01*
X019868Y014227D01*
X019828Y014268D01*
X019786Y014306D01*
X019742Y014341D01*
X019695Y014373D01*
X019646Y014401D01*
X019595Y014426D01*
X019542Y014448D01*
X019489Y014465D01*
X019434Y014479D01*
X019378Y014489D01*
X019322Y014496D01*
X019265Y014498D01*
X019265Y014489D01*
X019321Y014487D01*
X019377Y014481D01*
X019432Y014471D01*
X019486Y014457D01*
X019539Y014439D01*
X019591Y014418D01*
X019642Y014393D01*
X019690Y014365D01*
X019736Y014334D01*
X019781Y014299D01*
X019822Y014262D01*
X019861Y014221D01*
X019897Y014179D01*
X019930Y014133D01*
X019960Y014086D01*
X019952Y014081D01*
X019923Y014128D01*
X019890Y014173D01*
X019854Y014215D01*
X019816Y014255D01*
X019775Y014292D01*
X019731Y014327D01*
X019685Y014358D01*
X019637Y014385D01*
X019588Y014410D01*
X019536Y014431D01*
X019484Y014448D01*
X019430Y014462D01*
X019375Y014472D01*
X019320Y014478D01*
X019265Y014480D01*
X019265Y014471D01*
X019320Y014469D01*
X019374Y014463D01*
X019428Y014453D01*
X019481Y014439D01*
X019533Y014422D01*
X019584Y014402D01*
X019633Y014377D01*
X019680Y014350D01*
X019726Y014319D01*
X019769Y014286D01*
X019810Y014249D01*
X019848Y014209D01*
X019883Y014167D01*
X019915Y014123D01*
X019944Y014077D01*
X019936Y014072D01*
X019908Y014118D01*
X019876Y014162D01*
X019841Y014203D01*
X019803Y014242D01*
X019763Y014279D01*
X019721Y014312D01*
X019676Y014342D01*
X019629Y014370D01*
X019580Y014393D01*
X019530Y014414D01*
X019479Y014431D01*
X019426Y014444D01*
X019373Y014454D01*
X019319Y014460D01*
X019265Y014462D01*
X019265Y014453D01*
X019318Y014451D01*
X019372Y014445D01*
X019424Y014435D01*
X019476Y014422D01*
X019527Y014405D01*
X019577Y014385D01*
X019625Y014362D01*
X019671Y014335D01*
X019715Y014305D01*
X019757Y014272D01*
X019797Y014236D01*
X019834Y014197D01*
X019869Y014156D01*
X019900Y014113D01*
X019929Y014068D01*
X019921Y014063D01*
X019893Y014108D01*
X019862Y014151D01*
X019828Y014191D01*
X019791Y014229D01*
X019752Y014265D01*
X019710Y014297D01*
X019666Y014327D01*
X019620Y014354D01*
X019573Y014377D01*
X019524Y014397D01*
X019474Y014414D01*
X019422Y014427D01*
X019370Y014436D01*
X019318Y014442D01*
X019265Y014444D01*
X019264Y012836D02*
X019264Y012926D01*
X019264Y012925D02*
X019318Y012927D01*
X019371Y012933D01*
X019424Y012943D01*
X019476Y012957D01*
X019527Y012974D01*
X019576Y012995D01*
X019624Y013019D01*
X019670Y013047D01*
X019714Y013078D01*
X019756Y013112D01*
X019795Y013148D01*
X019832Y013188D01*
X019865Y013230D01*
X019896Y013274D01*
X019923Y013320D01*
X020002Y013278D01*
X019974Y013229D01*
X019942Y013183D01*
X019907Y013138D01*
X019870Y013096D01*
X019829Y013056D01*
X019786Y013020D01*
X019741Y012986D01*
X019694Y012955D01*
X019644Y012928D01*
X019593Y012904D01*
X019541Y012883D01*
X019487Y012866D01*
X019432Y012853D01*
X019377Y012843D01*
X019320Y012837D01*
X019264Y012835D01*
X019264Y012844D01*
X019320Y012846D01*
X019375Y012852D01*
X019430Y012862D01*
X019485Y012875D01*
X019538Y012892D01*
X019590Y012912D01*
X019640Y012936D01*
X019689Y012963D01*
X019736Y012993D01*
X019781Y013027D01*
X019823Y013063D01*
X019863Y013102D01*
X019900Y013144D01*
X019935Y013188D01*
X019966Y013234D01*
X019994Y013282D01*
X019986Y013286D01*
X019958Y013239D01*
X019927Y013193D01*
X019893Y013150D01*
X019857Y013108D01*
X019817Y013070D01*
X019775Y013034D01*
X019731Y013001D01*
X019685Y012971D01*
X019636Y012944D01*
X019586Y012921D01*
X019535Y012900D01*
X019482Y012884D01*
X019429Y012871D01*
X019374Y012861D01*
X019319Y012855D01*
X019264Y012853D01*
X019264Y012862D01*
X019319Y012864D01*
X019373Y012870D01*
X019427Y012879D01*
X019480Y012892D01*
X019532Y012909D01*
X019583Y012929D01*
X019632Y012952D01*
X019680Y012979D01*
X019726Y013008D01*
X019770Y013041D01*
X019811Y013076D01*
X019850Y013115D01*
X019887Y013155D01*
X019920Y013198D01*
X019951Y013244D01*
X019978Y013291D01*
X019970Y013295D01*
X019943Y013248D01*
X019913Y013204D01*
X019880Y013161D01*
X019844Y013121D01*
X019805Y013083D01*
X019764Y013048D01*
X019721Y013016D01*
X019675Y012986D01*
X019628Y012960D01*
X019579Y012937D01*
X019529Y012917D01*
X019477Y012901D01*
X019425Y012888D01*
X019372Y012879D01*
X019318Y012873D01*
X019264Y012871D01*
X019264Y012880D01*
X019317Y012882D01*
X019370Y012888D01*
X019423Y012897D01*
X019475Y012910D01*
X019526Y012926D01*
X019576Y012945D01*
X019624Y012968D01*
X019671Y012994D01*
X019715Y013023D01*
X019758Y013055D01*
X019799Y013090D01*
X019837Y013127D01*
X019873Y013167D01*
X019906Y013209D01*
X019936Y013253D01*
X019963Y013299D01*
X019955Y013303D01*
X019928Y013258D01*
X019898Y013214D01*
X019866Y013173D01*
X019831Y013133D01*
X019793Y013096D01*
X019753Y013062D01*
X019710Y013030D01*
X019666Y013002D01*
X019620Y012976D01*
X019572Y012954D01*
X019523Y012934D01*
X019473Y012918D01*
X019421Y012906D01*
X019369Y012897D01*
X019317Y012891D01*
X019264Y012889D01*
X019264Y012898D01*
X019320Y012900D01*
X019375Y012907D01*
X019430Y012917D01*
X019484Y012931D01*
X019536Y012949D01*
X019588Y012970D01*
X019637Y012996D01*
X019685Y013024D01*
X019731Y013056D01*
X019774Y013091D01*
X019814Y013129D01*
X019852Y013170D01*
X019887Y013214D01*
X019918Y013260D01*
X019947Y013308D01*
X019939Y013312D01*
X019911Y013264D01*
X019880Y013219D01*
X019845Y013176D01*
X019808Y013136D01*
X019768Y013098D01*
X019725Y013063D01*
X019680Y013032D01*
X019633Y013003D01*
X019584Y012979D01*
X019533Y012957D01*
X019481Y012940D01*
X019428Y012926D01*
X019374Y012916D01*
X019319Y012909D01*
X019264Y012907D01*
X019264Y012916D01*
X019318Y012918D01*
X019372Y012924D01*
X019426Y012934D01*
X019478Y012948D01*
X019530Y012966D01*
X019580Y012987D01*
X019629Y013011D01*
X019675Y013039D01*
X019720Y013071D01*
X019762Y013105D01*
X019801Y013142D01*
X019838Y013182D01*
X019872Y013224D01*
X019903Y013269D01*
X019931Y013316D01*
X018615Y013136D02*
X018684Y013193D01*
X018683Y013193D02*
X018720Y013153D01*
X018759Y013115D01*
X018801Y013081D01*
X018845Y013049D01*
X018891Y013021D01*
X018940Y012996D01*
X018990Y012975D01*
X019041Y012957D01*
X019094Y012944D01*
X019147Y012934D01*
X019201Y012927D01*
X019255Y012925D01*
X019256Y012836D01*
X019255Y012835D01*
X019199Y012837D01*
X019143Y012843D01*
X019088Y012853D01*
X019033Y012866D01*
X018980Y012883D01*
X018927Y012903D01*
X018876Y012927D01*
X018827Y012954D01*
X018780Y012985D01*
X018735Y013018D01*
X018692Y013054D01*
X018652Y013093D01*
X018614Y013135D01*
X018621Y013141D01*
X018658Y013100D01*
X018698Y013061D01*
X018740Y013025D01*
X018785Y012992D01*
X018832Y012962D01*
X018880Y012935D01*
X018931Y012912D01*
X018983Y012891D01*
X019036Y012875D01*
X019090Y012862D01*
X019144Y012852D01*
X019199Y012846D01*
X019255Y012844D01*
X019255Y012853D01*
X019200Y012855D01*
X019145Y012861D01*
X019091Y012870D01*
X019038Y012883D01*
X018986Y012900D01*
X018934Y012920D01*
X018885Y012943D01*
X018836Y012970D01*
X018790Y012999D01*
X018746Y013032D01*
X018704Y013068D01*
X018665Y013106D01*
X018628Y013147D01*
X018635Y013152D01*
X018671Y013112D01*
X018710Y013074D01*
X018752Y013039D01*
X018795Y013007D01*
X018841Y012977D01*
X018889Y012951D01*
X018938Y012928D01*
X018988Y012908D01*
X019040Y012892D01*
X019093Y012879D01*
X019147Y012870D01*
X019201Y012864D01*
X019255Y012862D01*
X019255Y012871D01*
X019201Y012873D01*
X019148Y012879D01*
X019095Y012888D01*
X019043Y012901D01*
X018991Y012917D01*
X018941Y012936D01*
X018893Y012959D01*
X018846Y012985D01*
X018800Y013014D01*
X018757Y013046D01*
X018716Y013081D01*
X018678Y013118D01*
X018642Y013158D01*
X018649Y013164D01*
X018684Y013125D01*
X018722Y013088D01*
X018763Y013053D01*
X018806Y013022D01*
X018850Y012993D01*
X018897Y012967D01*
X018945Y012945D01*
X018994Y012925D01*
X019045Y012909D01*
X019097Y012897D01*
X019149Y012888D01*
X019202Y012882D01*
X019255Y012880D01*
X019255Y012889D01*
X019203Y012891D01*
X019150Y012897D01*
X019099Y012906D01*
X019048Y012918D01*
X018997Y012934D01*
X018948Y012953D01*
X018901Y012975D01*
X018855Y013001D01*
X018811Y013029D01*
X018769Y013060D01*
X018728Y013094D01*
X018691Y013131D01*
X018656Y013170D01*
X018662Y013176D01*
X018697Y013137D01*
X018735Y013101D01*
X018774Y013067D01*
X018816Y013036D01*
X018860Y013008D01*
X018905Y012983D01*
X018952Y012961D01*
X019000Y012942D01*
X019050Y012927D01*
X019100Y012914D01*
X019152Y012906D01*
X019203Y012900D01*
X019255Y012898D01*
X019255Y012907D01*
X019204Y012909D01*
X019153Y012914D01*
X019102Y012923D01*
X019052Y012935D01*
X019003Y012951D01*
X018956Y012969D01*
X018909Y012991D01*
X018864Y013016D01*
X018821Y013044D01*
X018780Y013074D01*
X018741Y013107D01*
X018704Y013143D01*
X018669Y013181D01*
X018676Y013187D01*
X018713Y013146D01*
X018753Y013108D01*
X018795Y013074D01*
X018840Y013042D01*
X018887Y013013D01*
X018936Y012988D01*
X018987Y012967D01*
X019038Y012949D01*
X019092Y012935D01*
X019146Y012925D01*
X019200Y012918D01*
X019255Y012916D01*
X019255Y014524D02*
X019255Y014434D01*
X019254Y014435D02*
X019200Y014433D01*
X019147Y014427D01*
X019094Y014417D01*
X019042Y014403D01*
X018991Y014386D01*
X018941Y014365D01*
X018893Y014341D01*
X018847Y014313D01*
X018803Y014282D01*
X018762Y014248D01*
X018722Y014211D01*
X018686Y014172D01*
X018618Y014229D01*
X018617Y014230D01*
X018655Y014271D01*
X018695Y014309D01*
X018738Y014345D01*
X018783Y014378D01*
X018830Y014408D01*
X018878Y014434D01*
X018929Y014458D01*
X018981Y014478D01*
X019034Y014494D01*
X019088Y014508D01*
X019143Y014517D01*
X019198Y014523D01*
X019254Y014525D01*
X019254Y014516D01*
X019199Y014514D01*
X019144Y014508D01*
X019090Y014499D01*
X019036Y014486D01*
X018984Y014469D01*
X018932Y014450D01*
X018882Y014426D01*
X018834Y014400D01*
X018788Y014370D01*
X018743Y014338D01*
X018701Y014303D01*
X018661Y014264D01*
X018624Y014224D01*
X018631Y014218D01*
X018668Y014258D01*
X018707Y014296D01*
X018749Y014331D01*
X018793Y014363D01*
X018839Y014392D01*
X018887Y014418D01*
X018936Y014441D01*
X018987Y014461D01*
X019039Y014477D01*
X019092Y014490D01*
X019145Y014499D01*
X019200Y014505D01*
X019254Y014507D01*
X019254Y014498D01*
X019200Y014496D01*
X019147Y014490D01*
X019094Y014481D01*
X019041Y014468D01*
X018990Y014452D01*
X018939Y014433D01*
X018891Y014410D01*
X018843Y014385D01*
X018798Y014356D01*
X018754Y014324D01*
X018713Y014289D01*
X018674Y014252D01*
X018638Y014212D01*
X018645Y014206D01*
X018681Y014246D01*
X018719Y014283D01*
X018760Y014317D01*
X018803Y014348D01*
X018848Y014377D01*
X018895Y014402D01*
X018943Y014425D01*
X018993Y014444D01*
X019044Y014460D01*
X019095Y014472D01*
X019148Y014481D01*
X019201Y014487D01*
X019254Y014489D01*
X019254Y014480D01*
X019201Y014478D01*
X019149Y014472D01*
X019097Y014463D01*
X019046Y014451D01*
X018996Y014435D01*
X018946Y014416D01*
X018899Y014394D01*
X018852Y014369D01*
X018808Y014341D01*
X018766Y014310D01*
X018725Y014276D01*
X018687Y014239D01*
X018652Y014201D01*
X018658Y014195D01*
X018694Y014233D01*
X018731Y014269D01*
X018771Y014303D01*
X018813Y014333D01*
X018857Y014361D01*
X018903Y014386D01*
X018950Y014408D01*
X018999Y014427D01*
X019048Y014442D01*
X019099Y014455D01*
X019150Y014463D01*
X019202Y014469D01*
X019254Y014471D01*
X019254Y014462D01*
X019198Y014460D01*
X019143Y014453D01*
X019088Y014443D01*
X019034Y014429D01*
X018981Y014411D01*
X018930Y014389D01*
X018880Y014364D01*
X018832Y014335D01*
X018787Y014303D01*
X018744Y014268D01*
X018703Y014230D01*
X018665Y014189D01*
X018672Y014183D01*
X018709Y014224D01*
X018750Y014261D01*
X018792Y014296D01*
X018837Y014328D01*
X018885Y014356D01*
X018934Y014381D01*
X018985Y014403D01*
X019037Y014420D01*
X019090Y014434D01*
X019144Y014444D01*
X019199Y014451D01*
X019254Y014453D01*
X019254Y014444D01*
X019200Y014442D01*
X019146Y014436D01*
X019092Y014426D01*
X019039Y014412D01*
X018988Y014394D01*
X018938Y014373D01*
X018889Y014348D01*
X018842Y014320D01*
X018798Y014289D01*
X018756Y014255D01*
X018716Y014217D01*
X018679Y014177D01*
X014991Y019103D02*
X014913Y019058D01*
X014913Y019059D02*
X014885Y019103D01*
X014854Y019145D01*
X014821Y019185D01*
X014785Y019223D01*
X014746Y019258D01*
X014705Y019290D01*
X014661Y019320D01*
X014616Y019346D01*
X014569Y019369D01*
X014521Y019389D01*
X014471Y019405D01*
X014421Y019418D01*
X014369Y019427D01*
X014317Y019433D01*
X014265Y019435D01*
X014264Y019524D01*
X014265Y019525D01*
X014320Y019523D01*
X014374Y019517D01*
X014429Y019508D01*
X014482Y019495D01*
X014534Y019479D01*
X014586Y019460D01*
X014636Y019437D01*
X014684Y019411D01*
X014731Y019382D01*
X014775Y019350D01*
X014818Y019315D01*
X014858Y019277D01*
X014895Y019237D01*
X014930Y019195D01*
X014962Y019150D01*
X014991Y019104D01*
X014983Y019099D01*
X014955Y019145D01*
X014923Y019189D01*
X014888Y019231D01*
X014851Y019271D01*
X014812Y019308D01*
X014770Y019343D01*
X014726Y019374D01*
X014680Y019403D01*
X014632Y019429D01*
X014582Y019451D01*
X014532Y019471D01*
X014480Y019487D01*
X014427Y019499D01*
X014373Y019508D01*
X014319Y019514D01*
X014265Y019516D01*
X014265Y019507D01*
X014319Y019505D01*
X014372Y019499D01*
X014425Y019490D01*
X014477Y019478D01*
X014529Y019462D01*
X014579Y019443D01*
X014628Y019421D01*
X014675Y019395D01*
X014721Y019367D01*
X014764Y019335D01*
X014806Y019301D01*
X014845Y019265D01*
X014882Y019225D01*
X014916Y019184D01*
X014947Y019140D01*
X014976Y019095D01*
X014968Y019090D01*
X014938Y019138D01*
X014904Y019184D01*
X014868Y019227D01*
X014828Y019268D01*
X014786Y019306D01*
X014742Y019341D01*
X014695Y019373D01*
X014646Y019401D01*
X014595Y019426D01*
X014542Y019448D01*
X014489Y019465D01*
X014434Y019479D01*
X014378Y019489D01*
X014322Y019496D01*
X014265Y019498D01*
X014265Y019489D01*
X014321Y019487D01*
X014377Y019481D01*
X014432Y019471D01*
X014486Y019457D01*
X014539Y019439D01*
X014591Y019418D01*
X014642Y019393D01*
X014690Y019365D01*
X014736Y019334D01*
X014781Y019299D01*
X014822Y019262D01*
X014861Y019221D01*
X014897Y019179D01*
X014930Y019133D01*
X014960Y019086D01*
X014952Y019081D01*
X014923Y019128D01*
X014890Y019173D01*
X014854Y019215D01*
X014816Y019255D01*
X014775Y019292D01*
X014731Y019327D01*
X014685Y019358D01*
X014637Y019385D01*
X014588Y019410D01*
X014536Y019431D01*
X014484Y019448D01*
X014430Y019462D01*
X014375Y019472D01*
X014320Y019478D01*
X014265Y019480D01*
X014265Y019471D01*
X014320Y019469D01*
X014374Y019463D01*
X014428Y019453D01*
X014481Y019439D01*
X014533Y019422D01*
X014584Y019402D01*
X014633Y019377D01*
X014680Y019350D01*
X014726Y019319D01*
X014769Y019286D01*
X014810Y019249D01*
X014848Y019209D01*
X014883Y019167D01*
X014915Y019123D01*
X014944Y019077D01*
X014936Y019072D01*
X014908Y019118D01*
X014876Y019162D01*
X014841Y019203D01*
X014803Y019242D01*
X014763Y019279D01*
X014721Y019312D01*
X014676Y019342D01*
X014629Y019370D01*
X014580Y019393D01*
X014530Y019414D01*
X014479Y019431D01*
X014426Y019444D01*
X014373Y019454D01*
X014319Y019460D01*
X014265Y019462D01*
X014265Y019453D01*
X014318Y019451D01*
X014372Y019445D01*
X014424Y019435D01*
X014476Y019422D01*
X014527Y019405D01*
X014577Y019385D01*
X014625Y019362D01*
X014671Y019335D01*
X014715Y019305D01*
X014757Y019272D01*
X014797Y019236D01*
X014834Y019197D01*
X014869Y019156D01*
X014900Y019113D01*
X014929Y019068D01*
X014921Y019063D01*
X014893Y019108D01*
X014862Y019151D01*
X014828Y019191D01*
X014791Y019229D01*
X014752Y019265D01*
X014710Y019297D01*
X014666Y019327D01*
X014620Y019354D01*
X014573Y019377D01*
X014524Y019397D01*
X014474Y019414D01*
X014422Y019427D01*
X014370Y019436D01*
X014318Y019442D01*
X014265Y019444D01*
X014264Y017836D02*
X014264Y017926D01*
X014264Y017925D02*
X014318Y017927D01*
X014371Y017933D01*
X014424Y017943D01*
X014476Y017957D01*
X014527Y017974D01*
X014576Y017995D01*
X014624Y018019D01*
X014670Y018047D01*
X014714Y018078D01*
X014756Y018112D01*
X014795Y018148D01*
X014832Y018188D01*
X014865Y018230D01*
X014896Y018274D01*
X014923Y018320D01*
X015002Y018278D01*
X014974Y018229D01*
X014942Y018183D01*
X014907Y018138D01*
X014870Y018096D01*
X014829Y018056D01*
X014786Y018020D01*
X014741Y017986D01*
X014694Y017955D01*
X014644Y017928D01*
X014593Y017904D01*
X014541Y017883D01*
X014487Y017866D01*
X014432Y017853D01*
X014377Y017843D01*
X014320Y017837D01*
X014264Y017835D01*
X014264Y017844D01*
X014320Y017846D01*
X014375Y017852D01*
X014430Y017862D01*
X014485Y017875D01*
X014538Y017892D01*
X014590Y017912D01*
X014640Y017936D01*
X014689Y017963D01*
X014736Y017993D01*
X014781Y018027D01*
X014823Y018063D01*
X014863Y018102D01*
X014900Y018144D01*
X014935Y018188D01*
X014966Y018234D01*
X014994Y018282D01*
X014986Y018286D01*
X014958Y018239D01*
X014927Y018193D01*
X014893Y018150D01*
X014857Y018108D01*
X014817Y018070D01*
X014775Y018034D01*
X014731Y018001D01*
X014685Y017971D01*
X014636Y017944D01*
X014586Y017921D01*
X014535Y017900D01*
X014482Y017884D01*
X014429Y017871D01*
X014374Y017861D01*
X014319Y017855D01*
X014264Y017853D01*
X014264Y017862D01*
X014319Y017864D01*
X014373Y017870D01*
X014427Y017879D01*
X014480Y017892D01*
X014532Y017909D01*
X014583Y017929D01*
X014632Y017952D01*
X014680Y017979D01*
X014726Y018008D01*
X014770Y018041D01*
X014811Y018076D01*
X014850Y018115D01*
X014887Y018155D01*
X014920Y018198D01*
X014951Y018244D01*
X014978Y018291D01*
X014970Y018295D01*
X014943Y018248D01*
X014913Y018204D01*
X014880Y018161D01*
X014844Y018121D01*
X014805Y018083D01*
X014764Y018048D01*
X014721Y018016D01*
X014675Y017986D01*
X014628Y017960D01*
X014579Y017937D01*
X014529Y017917D01*
X014477Y017901D01*
X014425Y017888D01*
X014372Y017879D01*
X014318Y017873D01*
X014264Y017871D01*
X014264Y017880D01*
X014317Y017882D01*
X014370Y017888D01*
X014423Y017897D01*
X014475Y017910D01*
X014526Y017926D01*
X014576Y017945D01*
X014624Y017968D01*
X014671Y017994D01*
X014715Y018023D01*
X014758Y018055D01*
X014799Y018090D01*
X014837Y018127D01*
X014873Y018167D01*
X014906Y018209D01*
X014936Y018253D01*
X014963Y018299D01*
X014955Y018303D01*
X014928Y018258D01*
X014898Y018214D01*
X014866Y018173D01*
X014831Y018133D01*
X014793Y018096D01*
X014753Y018062D01*
X014710Y018030D01*
X014666Y018002D01*
X014620Y017976D01*
X014572Y017954D01*
X014523Y017934D01*
X014473Y017918D01*
X014421Y017906D01*
X014369Y017897D01*
X014317Y017891D01*
X014264Y017889D01*
X014264Y017898D01*
X014320Y017900D01*
X014375Y017907D01*
X014430Y017917D01*
X014484Y017931D01*
X014536Y017949D01*
X014588Y017970D01*
X014637Y017996D01*
X014685Y018024D01*
X014731Y018056D01*
X014774Y018091D01*
X014814Y018129D01*
X014852Y018170D01*
X014887Y018214D01*
X014918Y018260D01*
X014947Y018308D01*
X014939Y018312D01*
X014911Y018264D01*
X014880Y018219D01*
X014845Y018176D01*
X014808Y018136D01*
X014768Y018098D01*
X014725Y018063D01*
X014680Y018032D01*
X014633Y018003D01*
X014584Y017979D01*
X014533Y017957D01*
X014481Y017940D01*
X014428Y017926D01*
X014374Y017916D01*
X014319Y017909D01*
X014264Y017907D01*
X014264Y017916D01*
X014318Y017918D01*
X014372Y017924D01*
X014426Y017934D01*
X014478Y017948D01*
X014530Y017966D01*
X014580Y017987D01*
X014629Y018011D01*
X014675Y018039D01*
X014720Y018071D01*
X014762Y018105D01*
X014801Y018142D01*
X014838Y018182D01*
X014872Y018224D01*
X014903Y018269D01*
X014931Y018316D01*
X013615Y018136D02*
X013684Y018193D01*
X013683Y018193D02*
X013720Y018153D01*
X013759Y018115D01*
X013801Y018081D01*
X013845Y018049D01*
X013891Y018021D01*
X013940Y017996D01*
X013990Y017975D01*
X014041Y017957D01*
X014094Y017944D01*
X014147Y017934D01*
X014201Y017927D01*
X014255Y017925D01*
X014256Y017836D01*
X014255Y017835D01*
X014199Y017837D01*
X014143Y017843D01*
X014088Y017853D01*
X014033Y017866D01*
X013980Y017883D01*
X013927Y017903D01*
X013876Y017927D01*
X013827Y017954D01*
X013780Y017985D01*
X013735Y018018D01*
X013692Y018054D01*
X013652Y018093D01*
X013614Y018135D01*
X013621Y018141D01*
X013658Y018100D01*
X013698Y018061D01*
X013740Y018025D01*
X013785Y017992D01*
X013832Y017962D01*
X013880Y017935D01*
X013931Y017912D01*
X013983Y017891D01*
X014036Y017875D01*
X014090Y017862D01*
X014144Y017852D01*
X014199Y017846D01*
X014255Y017844D01*
X014255Y017853D01*
X014200Y017855D01*
X014145Y017861D01*
X014091Y017870D01*
X014038Y017883D01*
X013986Y017900D01*
X013934Y017920D01*
X013885Y017943D01*
X013836Y017970D01*
X013790Y017999D01*
X013746Y018032D01*
X013704Y018068D01*
X013665Y018106D01*
X013628Y018147D01*
X013635Y018152D01*
X013671Y018112D01*
X013710Y018074D01*
X013752Y018039D01*
X013795Y018007D01*
X013841Y017977D01*
X013889Y017951D01*
X013938Y017928D01*
X013988Y017908D01*
X014040Y017892D01*
X014093Y017879D01*
X014147Y017870D01*
X014201Y017864D01*
X014255Y017862D01*
X014255Y017871D01*
X014201Y017873D01*
X014148Y017879D01*
X014095Y017888D01*
X014043Y017901D01*
X013991Y017917D01*
X013941Y017936D01*
X013893Y017959D01*
X013846Y017985D01*
X013800Y018014D01*
X013757Y018046D01*
X013716Y018081D01*
X013678Y018118D01*
X013642Y018158D01*
X013649Y018164D01*
X013684Y018125D01*
X013722Y018088D01*
X013763Y018053D01*
X013806Y018022D01*
X013850Y017993D01*
X013897Y017967D01*
X013945Y017945D01*
X013994Y017925D01*
X014045Y017909D01*
X014097Y017897D01*
X014149Y017888D01*
X014202Y017882D01*
X014255Y017880D01*
X014255Y017889D01*
X014203Y017891D01*
X014150Y017897D01*
X014099Y017906D01*
X014048Y017918D01*
X013997Y017934D01*
X013948Y017953D01*
X013901Y017975D01*
X013855Y018001D01*
X013811Y018029D01*
X013769Y018060D01*
X013728Y018094D01*
X013691Y018131D01*
X013656Y018170D01*
X013662Y018176D01*
X013697Y018137D01*
X013735Y018101D01*
X013774Y018067D01*
X013816Y018036D01*
X013860Y018008D01*
X013905Y017983D01*
X013952Y017961D01*
X014000Y017942D01*
X014050Y017927D01*
X014100Y017914D01*
X014152Y017906D01*
X014203Y017900D01*
X014255Y017898D01*
X014255Y017907D01*
X014204Y017909D01*
X014153Y017914D01*
X014102Y017923D01*
X014052Y017935D01*
X014003Y017951D01*
X013956Y017969D01*
X013909Y017991D01*
X013864Y018016D01*
X013821Y018044D01*
X013780Y018074D01*
X013741Y018107D01*
X013704Y018143D01*
X013669Y018181D01*
X013676Y018187D01*
X013713Y018146D01*
X013753Y018108D01*
X013795Y018074D01*
X013840Y018042D01*
X013887Y018013D01*
X013936Y017988D01*
X013987Y017967D01*
X014038Y017949D01*
X014092Y017935D01*
X014146Y017925D01*
X014200Y017918D01*
X014255Y017916D01*
X014255Y019524D02*
X014255Y019434D01*
X014254Y019435D02*
X014200Y019433D01*
X014147Y019427D01*
X014094Y019417D01*
X014042Y019403D01*
X013991Y019386D01*
X013941Y019365D01*
X013893Y019341D01*
X013847Y019313D01*
X013803Y019282D01*
X013762Y019248D01*
X013722Y019211D01*
X013686Y019172D01*
X013618Y019229D01*
X013617Y019230D01*
X013655Y019271D01*
X013695Y019309D01*
X013738Y019345D01*
X013783Y019378D01*
X013830Y019408D01*
X013878Y019434D01*
X013929Y019458D01*
X013981Y019478D01*
X014034Y019494D01*
X014088Y019508D01*
X014143Y019517D01*
X014198Y019523D01*
X014254Y019525D01*
X014254Y019516D01*
X014199Y019514D01*
X014144Y019508D01*
X014090Y019499D01*
X014036Y019486D01*
X013984Y019469D01*
X013932Y019450D01*
X013882Y019426D01*
X013834Y019400D01*
X013788Y019370D01*
X013743Y019338D01*
X013701Y019303D01*
X013661Y019264D01*
X013624Y019224D01*
X013631Y019218D01*
X013668Y019258D01*
X013707Y019296D01*
X013749Y019331D01*
X013793Y019363D01*
X013839Y019392D01*
X013887Y019418D01*
X013936Y019441D01*
X013987Y019461D01*
X014039Y019477D01*
X014092Y019490D01*
X014145Y019499D01*
X014200Y019505D01*
X014254Y019507D01*
X014254Y019498D01*
X014200Y019496D01*
X014147Y019490D01*
X014094Y019481D01*
X014041Y019468D01*
X013990Y019452D01*
X013939Y019433D01*
X013891Y019410D01*
X013843Y019385D01*
X013798Y019356D01*
X013754Y019324D01*
X013713Y019289D01*
X013674Y019252D01*
X013638Y019212D01*
X013645Y019206D01*
X013681Y019246D01*
X013719Y019283D01*
X013760Y019317D01*
X013803Y019348D01*
X013848Y019377D01*
X013895Y019402D01*
X013943Y019425D01*
X013993Y019444D01*
X014044Y019460D01*
X014095Y019472D01*
X014148Y019481D01*
X014201Y019487D01*
X014254Y019489D01*
X014254Y019480D01*
X014201Y019478D01*
X014149Y019472D01*
X014097Y019463D01*
X014046Y019451D01*
X013996Y019435D01*
X013946Y019416D01*
X013899Y019394D01*
X013852Y019369D01*
X013808Y019341D01*
X013766Y019310D01*
X013725Y019276D01*
X013687Y019239D01*
X013652Y019201D01*
X013658Y019195D01*
X013694Y019233D01*
X013731Y019269D01*
X013771Y019303D01*
X013813Y019333D01*
X013857Y019361D01*
X013903Y019386D01*
X013950Y019408D01*
X013999Y019427D01*
X014048Y019442D01*
X014099Y019455D01*
X014150Y019463D01*
X014202Y019469D01*
X014254Y019471D01*
X014254Y019462D01*
X014198Y019460D01*
X014143Y019453D01*
X014088Y019443D01*
X014034Y019429D01*
X013981Y019411D01*
X013930Y019389D01*
X013880Y019364D01*
X013832Y019335D01*
X013787Y019303D01*
X013744Y019268D01*
X013703Y019230D01*
X013665Y019189D01*
X013672Y019183D01*
X013709Y019224D01*
X013750Y019261D01*
X013792Y019296D01*
X013837Y019328D01*
X013885Y019356D01*
X013934Y019381D01*
X013985Y019403D01*
X014037Y019420D01*
X014090Y019434D01*
X014144Y019444D01*
X014199Y019451D01*
X014254Y019453D01*
X014254Y019444D01*
X014200Y019442D01*
X014146Y019436D01*
X014092Y019426D01*
X014039Y019412D01*
X013988Y019394D01*
X013938Y019373D01*
X013889Y019348D01*
X013842Y019320D01*
X013798Y019289D01*
X013756Y019255D01*
X013716Y019217D01*
X013679Y019177D01*
X009991Y014103D02*
X009913Y014058D01*
X009913Y014059D02*
X009885Y014103D01*
X009854Y014145D01*
X009821Y014185D01*
X009785Y014223D01*
X009746Y014258D01*
X009705Y014290D01*
X009661Y014320D01*
X009616Y014346D01*
X009569Y014369D01*
X009521Y014389D01*
X009471Y014405D01*
X009421Y014418D01*
X009369Y014427D01*
X009317Y014433D01*
X009265Y014435D01*
X009264Y014524D01*
X009265Y014525D01*
X009320Y014523D01*
X009374Y014517D01*
X009429Y014508D01*
X009482Y014495D01*
X009534Y014479D01*
X009586Y014460D01*
X009636Y014437D01*
X009684Y014411D01*
X009731Y014382D01*
X009775Y014350D01*
X009818Y014315D01*
X009858Y014277D01*
X009895Y014237D01*
X009930Y014195D01*
X009962Y014150D01*
X009991Y014104D01*
X009983Y014099D01*
X009955Y014145D01*
X009923Y014189D01*
X009888Y014231D01*
X009851Y014271D01*
X009812Y014308D01*
X009770Y014343D01*
X009726Y014374D01*
X009680Y014403D01*
X009632Y014429D01*
X009582Y014451D01*
X009532Y014471D01*
X009480Y014487D01*
X009427Y014499D01*
X009373Y014508D01*
X009319Y014514D01*
X009265Y014516D01*
X009265Y014507D01*
X009319Y014505D01*
X009372Y014499D01*
X009425Y014490D01*
X009477Y014478D01*
X009529Y014462D01*
X009579Y014443D01*
X009628Y014421D01*
X009675Y014395D01*
X009721Y014367D01*
X009764Y014335D01*
X009806Y014301D01*
X009845Y014265D01*
X009882Y014225D01*
X009916Y014184D01*
X009947Y014140D01*
X009976Y014095D01*
X009968Y014090D01*
X009938Y014138D01*
X009904Y014184D01*
X009868Y014227D01*
X009828Y014268D01*
X009786Y014306D01*
X009742Y014341D01*
X009695Y014373D01*
X009646Y014401D01*
X009595Y014426D01*
X009542Y014448D01*
X009489Y014465D01*
X009434Y014479D01*
X009378Y014489D01*
X009322Y014496D01*
X009265Y014498D01*
X009265Y014489D01*
X009321Y014487D01*
X009377Y014481D01*
X009432Y014471D01*
X009486Y014457D01*
X009539Y014439D01*
X009591Y014418D01*
X009642Y014393D01*
X009690Y014365D01*
X009736Y014334D01*
X009781Y014299D01*
X009822Y014262D01*
X009861Y014221D01*
X009897Y014179D01*
X009930Y014133D01*
X009960Y014086D01*
X009952Y014081D01*
X009923Y014128D01*
X009890Y014173D01*
X009854Y014215D01*
X009816Y014255D01*
X009775Y014292D01*
X009731Y014327D01*
X009685Y014358D01*
X009637Y014385D01*
X009588Y014410D01*
X009536Y014431D01*
X009484Y014448D01*
X009430Y014462D01*
X009375Y014472D01*
X009320Y014478D01*
X009265Y014480D01*
X009265Y014471D01*
X009320Y014469D01*
X009374Y014463D01*
X009428Y014453D01*
X009481Y014439D01*
X009533Y014422D01*
X009584Y014402D01*
X009633Y014377D01*
X009680Y014350D01*
X009726Y014319D01*
X009769Y014286D01*
X009810Y014249D01*
X009848Y014209D01*
X009883Y014167D01*
X009915Y014123D01*
X009944Y014077D01*
X009936Y014072D01*
X009908Y014118D01*
X009876Y014162D01*
X009841Y014203D01*
X009803Y014242D01*
X009763Y014279D01*
X009721Y014312D01*
X009676Y014342D01*
X009629Y014370D01*
X009580Y014393D01*
X009530Y014414D01*
X009479Y014431D01*
X009426Y014444D01*
X009373Y014454D01*
X009319Y014460D01*
X009265Y014462D01*
X009265Y014453D01*
X009318Y014451D01*
X009372Y014445D01*
X009424Y014435D01*
X009476Y014422D01*
X009527Y014405D01*
X009577Y014385D01*
X009625Y014362D01*
X009671Y014335D01*
X009715Y014305D01*
X009757Y014272D01*
X009797Y014236D01*
X009834Y014197D01*
X009869Y014156D01*
X009900Y014113D01*
X009929Y014068D01*
X009921Y014063D01*
X009893Y014108D01*
X009862Y014151D01*
X009828Y014191D01*
X009791Y014229D01*
X009752Y014265D01*
X009710Y014297D01*
X009666Y014327D01*
X009620Y014354D01*
X009573Y014377D01*
X009524Y014397D01*
X009474Y014414D01*
X009422Y014427D01*
X009370Y014436D01*
X009318Y014442D01*
X009265Y014444D01*
X009264Y012836D02*
X009264Y012926D01*
X009264Y012925D02*
X009318Y012927D01*
X009371Y012933D01*
X009424Y012943D01*
X009476Y012957D01*
X009527Y012974D01*
X009576Y012995D01*
X009624Y013019D01*
X009670Y013047D01*
X009714Y013078D01*
X009756Y013112D01*
X009795Y013148D01*
X009832Y013188D01*
X009865Y013230D01*
X009896Y013274D01*
X009923Y013320D01*
X010002Y013278D01*
X009974Y013229D01*
X009942Y013183D01*
X009907Y013138D01*
X009870Y013096D01*
X009829Y013056D01*
X009786Y013020D01*
X009741Y012986D01*
X009694Y012955D01*
X009644Y012928D01*
X009593Y012904D01*
X009541Y012883D01*
X009487Y012866D01*
X009432Y012853D01*
X009377Y012843D01*
X009320Y012837D01*
X009264Y012835D01*
X009264Y012844D01*
X009320Y012846D01*
X009375Y012852D01*
X009430Y012862D01*
X009485Y012875D01*
X009538Y012892D01*
X009590Y012912D01*
X009640Y012936D01*
X009689Y012963D01*
X009736Y012993D01*
X009781Y013027D01*
X009823Y013063D01*
X009863Y013102D01*
X009900Y013144D01*
X009935Y013188D01*
X009966Y013234D01*
X009994Y013282D01*
X009986Y013286D01*
X009958Y013239D01*
X009927Y013193D01*
X009893Y013150D01*
X009857Y013108D01*
X009817Y013070D01*
X009775Y013034D01*
X009731Y013001D01*
X009685Y012971D01*
X009636Y012944D01*
X009586Y012921D01*
X009535Y012900D01*
X009482Y012884D01*
X009429Y012871D01*
X009374Y012861D01*
X009319Y012855D01*
X009264Y012853D01*
X009264Y012862D01*
X009319Y012864D01*
X009373Y012870D01*
X009427Y012879D01*
X009480Y012892D01*
X009532Y012909D01*
X009583Y012929D01*
X009632Y012952D01*
X009680Y012979D01*
X009726Y013008D01*
X009770Y013041D01*
X009811Y013076D01*
X009850Y013115D01*
X009887Y013155D01*
X009920Y013198D01*
X009951Y013244D01*
X009978Y013291D01*
X009970Y013295D01*
X009943Y013248D01*
X009913Y013204D01*
X009880Y013161D01*
X009844Y013121D01*
X009805Y013083D01*
X009764Y013048D01*
X009721Y013016D01*
X009675Y012986D01*
X009628Y012960D01*
X009579Y012937D01*
X009529Y012917D01*
X009477Y012901D01*
X009425Y012888D01*
X009372Y012879D01*
X009318Y012873D01*
X009264Y012871D01*
X009264Y012880D01*
X009317Y012882D01*
X009370Y012888D01*
X009423Y012897D01*
X009475Y012910D01*
X009526Y012926D01*
X009576Y012945D01*
X009624Y012968D01*
X009671Y012994D01*
X009715Y013023D01*
X009758Y013055D01*
X009799Y013090D01*
X009837Y013127D01*
X009873Y013167D01*
X009906Y013209D01*
X009936Y013253D01*
X009963Y013299D01*
X009955Y013303D01*
X009928Y013258D01*
X009898Y013214D01*
X009866Y013173D01*
X009831Y013133D01*
X009793Y013096D01*
X009753Y013062D01*
X009710Y013030D01*
X009666Y013002D01*
X009620Y012976D01*
X009572Y012954D01*
X009523Y012934D01*
X009473Y012918D01*
X009421Y012906D01*
X009369Y012897D01*
X009317Y012891D01*
X009264Y012889D01*
X009264Y012898D01*
X009320Y012900D01*
X009375Y012907D01*
X009430Y012917D01*
X009484Y012931D01*
X009536Y012949D01*
X009588Y012970D01*
X009637Y012996D01*
X009685Y013024D01*
X009731Y013056D01*
X009774Y013091D01*
X009814Y013129D01*
X009852Y013170D01*
X009887Y013214D01*
X009918Y013260D01*
X009947Y013308D01*
X009939Y013312D01*
X009911Y013264D01*
X009880Y013219D01*
X009845Y013176D01*
X009808Y013136D01*
X009768Y013098D01*
X009725Y013063D01*
X009680Y013032D01*
X009633Y013003D01*
X009584Y012979D01*
X009533Y012957D01*
X009481Y012940D01*
X009428Y012926D01*
X009374Y012916D01*
X009319Y012909D01*
X009264Y012907D01*
X009264Y012916D01*
X009318Y012918D01*
X009372Y012924D01*
X009426Y012934D01*
X009478Y012948D01*
X009530Y012966D01*
X009580Y012987D01*
X009629Y013011D01*
X009675Y013039D01*
X009720Y013071D01*
X009762Y013105D01*
X009801Y013142D01*
X009838Y013182D01*
X009872Y013224D01*
X009903Y013269D01*
X009931Y013316D01*
X008615Y013136D02*
X008684Y013193D01*
X008683Y013193D02*
X008720Y013153D01*
X008759Y013115D01*
X008801Y013081D01*
X008845Y013049D01*
X008891Y013021D01*
X008940Y012996D01*
X008990Y012975D01*
X009041Y012957D01*
X009094Y012944D01*
X009147Y012934D01*
X009201Y012927D01*
X009255Y012925D01*
X009256Y012836D01*
X009255Y012835D01*
X009199Y012837D01*
X009143Y012843D01*
X009088Y012853D01*
X009033Y012866D01*
X008980Y012883D01*
X008927Y012903D01*
X008876Y012927D01*
X008827Y012954D01*
X008780Y012985D01*
X008735Y013018D01*
X008692Y013054D01*
X008652Y013093D01*
X008614Y013135D01*
X008621Y013141D01*
X008658Y013100D01*
X008698Y013061D01*
X008740Y013025D01*
X008785Y012992D01*
X008832Y012962D01*
X008880Y012935D01*
X008931Y012912D01*
X008983Y012891D01*
X009036Y012875D01*
X009090Y012862D01*
X009144Y012852D01*
X009199Y012846D01*
X009255Y012844D01*
X009255Y012853D01*
X009200Y012855D01*
X009145Y012861D01*
X009091Y012870D01*
X009038Y012883D01*
X008986Y012900D01*
X008934Y012920D01*
X008885Y012943D01*
X008836Y012970D01*
X008790Y012999D01*
X008746Y013032D01*
X008704Y013068D01*
X008665Y013106D01*
X008628Y013147D01*
X008635Y013152D01*
X008671Y013112D01*
X008710Y013074D01*
X008752Y013039D01*
X008795Y013007D01*
X008841Y012977D01*
X008889Y012951D01*
X008938Y012928D01*
X008988Y012908D01*
X009040Y012892D01*
X009093Y012879D01*
X009147Y012870D01*
X009201Y012864D01*
X009255Y012862D01*
X009255Y012871D01*
X009201Y012873D01*
X009148Y012879D01*
X009095Y012888D01*
X009043Y012901D01*
X008991Y012917D01*
X008941Y012936D01*
X008893Y012959D01*
X008846Y012985D01*
X008800Y013014D01*
X008757Y013046D01*
X008716Y013081D01*
X008678Y013118D01*
X008642Y013158D01*
X008649Y013164D01*
X008684Y013125D01*
X008722Y013088D01*
X008763Y013053D01*
X008806Y013022D01*
X008850Y012993D01*
X008897Y012967D01*
X008945Y012945D01*
X008994Y012925D01*
X009045Y012909D01*
X009097Y012897D01*
X009149Y012888D01*
X009202Y012882D01*
X009255Y012880D01*
X009255Y012889D01*
X009203Y012891D01*
X009150Y012897D01*
X009099Y012906D01*
X009048Y012918D01*
X008997Y012934D01*
X008948Y012953D01*
X008901Y012975D01*
X008855Y013001D01*
X008811Y013029D01*
X008769Y013060D01*
X008728Y013094D01*
X008691Y013131D01*
X008656Y013170D01*
X008662Y013176D01*
X008697Y013137D01*
X008735Y013101D01*
X008774Y013067D01*
X008816Y013036D01*
X008860Y013008D01*
X008905Y012983D01*
X008952Y012961D01*
X009000Y012942D01*
X009050Y012927D01*
X009100Y012914D01*
X009152Y012906D01*
X009203Y012900D01*
X009255Y012898D01*
X009255Y012907D01*
X009204Y012909D01*
X009153Y012914D01*
X009102Y012923D01*
X009052Y012935D01*
X009003Y012951D01*
X008956Y012969D01*
X008909Y012991D01*
X008864Y013016D01*
X008821Y013044D01*
X008780Y013074D01*
X008741Y013107D01*
X008704Y013143D01*
X008669Y013181D01*
X008676Y013187D01*
X008713Y013146D01*
X008753Y013108D01*
X008795Y013074D01*
X008840Y013042D01*
X008887Y013013D01*
X008936Y012988D01*
X008987Y012967D01*
X009038Y012949D01*
X009092Y012935D01*
X009146Y012925D01*
X009200Y012918D01*
X009255Y012916D01*
X009255Y014524D02*
X009255Y014434D01*
X009254Y014435D02*
X009200Y014433D01*
X009147Y014427D01*
X009094Y014417D01*
X009042Y014403D01*
X008991Y014386D01*
X008941Y014365D01*
X008893Y014341D01*
X008847Y014313D01*
X008803Y014282D01*
X008762Y014248D01*
X008722Y014211D01*
X008686Y014172D01*
X008618Y014229D01*
X008617Y014230D01*
X008655Y014271D01*
X008695Y014309D01*
X008738Y014345D01*
X008783Y014378D01*
X008830Y014408D01*
X008878Y014434D01*
X008929Y014458D01*
X008981Y014478D01*
X009034Y014494D01*
X009088Y014508D01*
X009143Y014517D01*
X009198Y014523D01*
X009254Y014525D01*
X009254Y014516D01*
X009199Y014514D01*
X009144Y014508D01*
X009090Y014499D01*
X009036Y014486D01*
X008984Y014469D01*
X008932Y014450D01*
X008882Y014426D01*
X008834Y014400D01*
X008788Y014370D01*
X008743Y014338D01*
X008701Y014303D01*
X008661Y014264D01*
X008624Y014224D01*
X008631Y014218D01*
X008668Y014258D01*
X008707Y014296D01*
X008749Y014331D01*
X008793Y014363D01*
X008839Y014392D01*
X008887Y014418D01*
X008936Y014441D01*
X008987Y014461D01*
X009039Y014477D01*
X009092Y014490D01*
X009145Y014499D01*
X009200Y014505D01*
X009254Y014507D01*
X009254Y014498D01*
X009200Y014496D01*
X009147Y014490D01*
X009094Y014481D01*
X009041Y014468D01*
X008990Y014452D01*
X008939Y014433D01*
X008891Y014410D01*
X008843Y014385D01*
X008798Y014356D01*
X008754Y014324D01*
X008713Y014289D01*
X008674Y014252D01*
X008638Y014212D01*
X008645Y014206D01*
X008681Y014246D01*
X008719Y014283D01*
X008760Y014317D01*
X008803Y014348D01*
X008848Y014377D01*
X008895Y014402D01*
X008943Y014425D01*
X008993Y014444D01*
X009044Y014460D01*
X009095Y014472D01*
X009148Y014481D01*
X009201Y014487D01*
X009254Y014489D01*
X009254Y014480D01*
X009201Y014478D01*
X009149Y014472D01*
X009097Y014463D01*
X009046Y014451D01*
X008996Y014435D01*
X008946Y014416D01*
X008899Y014394D01*
X008852Y014369D01*
X008808Y014341D01*
X008766Y014310D01*
X008725Y014276D01*
X008687Y014239D01*
X008652Y014201D01*
X008658Y014195D01*
X008694Y014233D01*
X008731Y014269D01*
X008771Y014303D01*
X008813Y014333D01*
X008857Y014361D01*
X008903Y014386D01*
X008950Y014408D01*
X008999Y014427D01*
X009048Y014442D01*
X009099Y014455D01*
X009150Y014463D01*
X009202Y014469D01*
X009254Y014471D01*
X009254Y014462D01*
X009198Y014460D01*
X009143Y014453D01*
X009088Y014443D01*
X009034Y014429D01*
X008981Y014411D01*
X008930Y014389D01*
X008880Y014364D01*
X008832Y014335D01*
X008787Y014303D01*
X008744Y014268D01*
X008703Y014230D01*
X008665Y014189D01*
X008672Y014183D01*
X008709Y014224D01*
X008750Y014261D01*
X008792Y014296D01*
X008837Y014328D01*
X008885Y014356D01*
X008934Y014381D01*
X008985Y014403D01*
X009037Y014420D01*
X009090Y014434D01*
X009144Y014444D01*
X009199Y014451D01*
X009254Y014453D01*
X009254Y014444D01*
X009200Y014442D01*
X009146Y014436D01*
X009092Y014426D01*
X009039Y014412D01*
X008988Y014394D01*
X008938Y014373D01*
X008889Y014348D01*
X008842Y014320D01*
X008798Y014289D01*
X008756Y014255D01*
X008716Y014217D01*
X008679Y014177D01*
D22*
X005810Y023930D03*
M02*
