%
M48
M72
T01C0.0236
T02C0.0315
T03C0.0320
T04C0.0394
T05C0.0400
T06C0.0787
T07C0.0790
T08C0.0866
T09C0.1102
%
T01
X12930Y3048
X17180Y1548
X18180Y4798
X17930Y8298
X17930Y10798
X15180Y11548
X15180Y12798
X7680Y11048
X25930Y6548
X28930Y7048
X35930Y798
T02
X32180Y9298
X31180Y9298
X30180Y9298
X19180Y15548
X17180Y15548
X7680Y15548
X5680Y15548
X5680Y14298
X7680Y14298
T03
X8180Y13298
X8180Y10298
X8180Y8798
X7180Y8798
X5180Y8298
X3930Y9048
X1180Y9048
X2180Y7298
X3180Y7298
X5180Y7298
X5180Y6298
X3930Y6048
X4930Y5298
X7180Y5798
X8180Y5798
X9930Y5798
X11430Y5298
X12430Y5298
X15430Y5298
X16430Y5298
X18930Y5298
X19930Y5298
X21180Y5298
X22180Y5298
X23180Y5298
X24180Y5298
X25930Y5298
X26930Y5298
X27930Y5298
X28930Y5298
X29930Y5298
X30930Y5298
X31930Y5298
X32930Y5298
X33930Y5298
X34930Y5298
X35930Y5298
X36930Y5298
X37930Y5298
X38930Y5298
X38180Y4048
X36680Y4048
X36680Y3048
X38180Y3048
X38180Y2048
X36680Y2048
X33680Y2048
X32430Y2548
X31430Y2548
X33680Y3048
X33680Y4048
X32930Y4298
X30930Y4298
X30930Y8298
X29930Y8298
X28930Y8298
X27930Y8298
X26930Y8298
X25930Y8298
X24180Y8298
X23180Y8298
X22180Y8298
X21180Y8298
X19930Y8298
X18930Y8298
X18180Y7298
X17180Y7298
X16430Y8298
X15430Y8298
X12430Y8298
X11430Y8298
X9930Y7798
X9930Y6798
X1180Y6048
X4930Y2298
X14430Y798
X17430Y798
X19180Y798
X22180Y798
X31930Y8298
X32930Y8298
X33930Y8298
X34930Y8298
X35930Y8298
X36930Y8298
X37930Y8298
X38930Y8298
X38180Y9798
X38930Y11798
X38180Y12798
X38930Y13798
X32680Y14048
X29680Y14048
X28430Y14048
X28430Y15548
X25430Y15548
X25430Y14048
X24430Y14048
X23180Y12798
X21430Y14048
X23180Y9798
T04
X24727Y10314
X24727Y11298
X24727Y12282
X24430Y15548
X20430Y15548
X17227Y12282
X17227Y11298
X17227Y10314
X9727Y10314
X9727Y11298
X9727Y12282
X4680Y14298
X4680Y15548
X680Y15548
X680Y14298
X2227Y12282
X2227Y11298
X2227Y10314
X32227Y10314
X32227Y11298
X32227Y12282
T05
X33680Y15048
X34680Y15048
X35680Y15048
X36680Y15048
X37680Y15048
X38680Y15048
X15930Y15548
X14930Y15548
X13930Y15548
X12930Y15548
X11930Y15548
X10930Y15548
X9930Y15548
X8930Y15548
X8930Y14548
X9930Y14548
X10930Y14548
X11930Y14548
X12930Y14548
X13930Y14548
X14930Y14548
X15930Y14548
T06
X12680Y13069
X12680Y9526
X5180Y9526
X5180Y13069
X20180Y13069
X20180Y9526
X27680Y9526
X27680Y13069
X35180Y13069
X35180Y9526
T07
X37430Y1048
T08
X29530Y3298
X27680Y3298
X25830Y3298
T09
X3034Y1841
X1184Y2747
X5948Y3692
X3074Y5030
X9137Y3652
X10948Y3692
X14137Y3652
X15948Y3692
X19137Y3652
X20948Y3692
X24137Y3652
X23231Y1802
X18231Y1802
X13231Y1802
X8231Y1802
M30
