G75*
G70*
%OFA0B0*%
%FSLAX24Y24*%
%IPPOS*%
%LPD*%
%AMOC8*
5,1,8,0,0,1.08239X$1,22.5*
%
%ADD10C,0.0000*%
%ADD11C,0.0060*%
%ADD12C,0.0030*%
%ADD13C,0.0070*%
%ADD14C,0.0040*%
%ADD15R,0.0150X0.0200*%
%ADD16C,0.0080*%
%ADD17C,0.0050*%
%ADD18R,0.0200X0.0150*%
%ADD19C,0.0120*%
%ADD20C,0.0100*%
D10*
X000180Y000555D02*
X039550Y000555D01*
X039550Y016062D01*
X000180Y016062D01*
X000180Y000555D01*
D11*
X004630Y002680D02*
X005230Y002680D01*
X005247Y002682D01*
X005264Y002686D01*
X005280Y002693D01*
X005294Y002703D01*
X005307Y002716D01*
X005317Y002730D01*
X005324Y002746D01*
X005328Y002763D01*
X005330Y002780D01*
X005330Y002930D01*
X005280Y002980D01*
X005280Y004380D01*
X005330Y004430D01*
X005330Y004580D01*
X005328Y004597D01*
X005324Y004614D01*
X005317Y004630D01*
X005307Y004644D01*
X005294Y004657D01*
X005280Y004667D01*
X005264Y004674D01*
X005247Y004678D01*
X005230Y004680D01*
X004630Y004680D01*
X004613Y004678D01*
X004596Y004674D01*
X004580Y004667D01*
X004566Y004657D01*
X004553Y004644D01*
X004543Y004630D01*
X004536Y004614D01*
X004532Y004597D01*
X004530Y004580D01*
X004530Y004430D01*
X004580Y004380D01*
X004580Y002980D01*
X004530Y002930D01*
X004530Y002780D01*
X004532Y002763D01*
X004536Y002746D01*
X004543Y002730D01*
X004553Y002716D01*
X004566Y002703D01*
X004580Y002693D01*
X004596Y002686D01*
X004613Y002682D01*
X004630Y002680D01*
X011130Y005680D02*
X011730Y005680D01*
X011747Y005682D01*
X011764Y005686D01*
X011780Y005693D01*
X011794Y005703D01*
X011807Y005716D01*
X011817Y005730D01*
X011824Y005746D01*
X011828Y005763D01*
X011830Y005780D01*
X011830Y005930D01*
X011780Y005980D01*
X011780Y007380D01*
X011830Y007430D01*
X011830Y007580D01*
X011828Y007597D01*
X011824Y007614D01*
X011817Y007630D01*
X011807Y007644D01*
X011794Y007657D01*
X011780Y007667D01*
X011764Y007674D01*
X011747Y007678D01*
X011730Y007680D01*
X011130Y007680D01*
X011113Y007678D01*
X011096Y007674D01*
X011080Y007667D01*
X011066Y007657D01*
X011053Y007644D01*
X011043Y007630D01*
X011036Y007614D01*
X011032Y007597D01*
X011030Y007580D01*
X011030Y007430D01*
X011080Y007380D01*
X011080Y005980D01*
X011030Y005930D01*
X011030Y005780D01*
X011032Y005763D01*
X011036Y005746D01*
X011043Y005730D01*
X011053Y005716D01*
X011066Y005703D01*
X011080Y005693D01*
X011096Y005686D01*
X011113Y005682D01*
X011130Y005680D01*
X012030Y005780D02*
X012030Y005930D01*
X012080Y005980D01*
X012080Y007380D01*
X012030Y007430D01*
X012030Y007580D01*
X012032Y007597D01*
X012036Y007614D01*
X012043Y007630D01*
X012053Y007644D01*
X012066Y007657D01*
X012080Y007667D01*
X012096Y007674D01*
X012113Y007678D01*
X012130Y007680D01*
X012730Y007680D01*
X012747Y007678D01*
X012764Y007674D01*
X012780Y007667D01*
X012794Y007657D01*
X012807Y007644D01*
X012817Y007630D01*
X012824Y007614D01*
X012828Y007597D01*
X012830Y007580D01*
X012830Y007430D01*
X012780Y007380D01*
X012780Y005980D01*
X012830Y005930D01*
X012830Y005780D01*
X012828Y005763D01*
X012824Y005746D01*
X012817Y005730D01*
X012807Y005716D01*
X012794Y005703D01*
X012780Y005693D01*
X012764Y005686D01*
X012747Y005682D01*
X012730Y005680D01*
X012130Y005680D01*
X012113Y005682D01*
X012096Y005686D01*
X012080Y005693D01*
X012066Y005703D01*
X012053Y005716D01*
X012043Y005730D01*
X012036Y005746D01*
X012032Y005763D01*
X012030Y005780D01*
X013030Y005780D02*
X013030Y005930D01*
X013080Y005980D01*
X013080Y007380D01*
X013030Y007430D01*
X013030Y007580D01*
X013032Y007597D01*
X013036Y007614D01*
X013043Y007630D01*
X013053Y007644D01*
X013066Y007657D01*
X013080Y007667D01*
X013096Y007674D01*
X013113Y007678D01*
X013130Y007680D01*
X013730Y007680D01*
X013747Y007678D01*
X013764Y007674D01*
X013780Y007667D01*
X013794Y007657D01*
X013807Y007644D01*
X013817Y007630D01*
X013824Y007614D01*
X013828Y007597D01*
X013830Y007580D01*
X013830Y007430D01*
X013780Y007380D01*
X013780Y005980D01*
X013830Y005930D01*
X013830Y005780D01*
X013828Y005763D01*
X013824Y005746D01*
X013817Y005730D01*
X013807Y005716D01*
X013794Y005703D01*
X013780Y005693D01*
X013764Y005686D01*
X013747Y005682D01*
X013730Y005680D01*
X013130Y005680D01*
X013113Y005682D01*
X013096Y005686D01*
X013080Y005693D01*
X013066Y005703D01*
X013053Y005716D01*
X013043Y005730D01*
X013036Y005746D01*
X013032Y005763D01*
X013030Y005780D01*
X014030Y005780D02*
X014030Y005930D01*
X014080Y005980D01*
X014080Y007380D01*
X014030Y007430D01*
X014030Y007580D01*
X014032Y007597D01*
X014036Y007614D01*
X014043Y007630D01*
X014053Y007644D01*
X014066Y007657D01*
X014080Y007667D01*
X014096Y007674D01*
X014113Y007678D01*
X014130Y007680D01*
X014730Y007680D01*
X014747Y007678D01*
X014764Y007674D01*
X014780Y007667D01*
X014794Y007657D01*
X014807Y007644D01*
X014817Y007630D01*
X014824Y007614D01*
X014828Y007597D01*
X014830Y007580D01*
X014830Y007430D01*
X014780Y007380D01*
X014780Y005980D01*
X014830Y005930D01*
X014830Y005780D01*
X014828Y005763D01*
X014824Y005746D01*
X014817Y005730D01*
X014807Y005716D01*
X014794Y005703D01*
X014780Y005693D01*
X014764Y005686D01*
X014747Y005682D01*
X014730Y005680D01*
X014130Y005680D01*
X014113Y005682D01*
X014096Y005686D01*
X014080Y005693D01*
X014066Y005703D01*
X014053Y005716D01*
X014043Y005730D01*
X014036Y005746D01*
X014032Y005763D01*
X014030Y005780D01*
X015030Y005780D02*
X015030Y005930D01*
X015080Y005980D01*
X015080Y007380D01*
X015030Y007430D01*
X015030Y007580D01*
X015032Y007597D01*
X015036Y007614D01*
X015043Y007630D01*
X015053Y007644D01*
X015066Y007657D01*
X015080Y007667D01*
X015096Y007674D01*
X015113Y007678D01*
X015130Y007680D01*
X015730Y007680D01*
X015747Y007678D01*
X015764Y007674D01*
X015780Y007667D01*
X015794Y007657D01*
X015807Y007644D01*
X015817Y007630D01*
X015824Y007614D01*
X015828Y007597D01*
X015830Y007580D01*
X015830Y007430D01*
X015780Y007380D01*
X015780Y005980D01*
X015830Y005930D01*
X015830Y005780D01*
X015828Y005763D01*
X015824Y005746D01*
X015817Y005730D01*
X015807Y005716D01*
X015794Y005703D01*
X015780Y005693D01*
X015764Y005686D01*
X015747Y005682D01*
X015730Y005680D01*
X015130Y005680D01*
X015113Y005682D01*
X015096Y005686D01*
X015080Y005693D01*
X015066Y005703D01*
X015053Y005716D01*
X015043Y005730D01*
X015036Y005746D01*
X015032Y005763D01*
X015030Y005780D01*
X016030Y005780D02*
X016030Y005930D01*
X016080Y005980D01*
X016080Y007380D01*
X016030Y007430D01*
X016030Y007580D01*
X016032Y007597D01*
X016036Y007614D01*
X016043Y007630D01*
X016053Y007644D01*
X016066Y007657D01*
X016080Y007667D01*
X016096Y007674D01*
X016113Y007678D01*
X016130Y007680D01*
X016730Y007680D01*
X016747Y007678D01*
X016764Y007674D01*
X016780Y007667D01*
X016794Y007657D01*
X016807Y007644D01*
X016817Y007630D01*
X016824Y007614D01*
X016828Y007597D01*
X016830Y007580D01*
X016830Y007430D01*
X016780Y007380D01*
X016780Y005980D01*
X016830Y005930D01*
X016830Y005780D01*
X016828Y005763D01*
X016824Y005746D01*
X016817Y005730D01*
X016807Y005716D01*
X016794Y005703D01*
X016780Y005693D01*
X016764Y005686D01*
X016747Y005682D01*
X016730Y005680D01*
X016130Y005680D01*
X016113Y005682D01*
X016096Y005686D01*
X016080Y005693D01*
X016066Y005703D01*
X016053Y005716D01*
X016043Y005730D01*
X016036Y005746D01*
X016032Y005763D01*
X016030Y005780D01*
X018530Y005780D02*
X018530Y005930D01*
X018580Y005980D01*
X018580Y007380D01*
X018530Y007430D01*
X018530Y007580D01*
X018532Y007597D01*
X018536Y007614D01*
X018543Y007630D01*
X018553Y007644D01*
X018566Y007657D01*
X018580Y007667D01*
X018596Y007674D01*
X018613Y007678D01*
X018630Y007680D01*
X019230Y007680D01*
X019247Y007678D01*
X019264Y007674D01*
X019280Y007667D01*
X019294Y007657D01*
X019307Y007644D01*
X019317Y007630D01*
X019324Y007614D01*
X019328Y007597D01*
X019330Y007580D01*
X019330Y007430D01*
X019280Y007380D01*
X019280Y005980D01*
X019330Y005930D01*
X019330Y005780D01*
X019328Y005763D01*
X019324Y005746D01*
X019317Y005730D01*
X019307Y005716D01*
X019294Y005703D01*
X019280Y005693D01*
X019264Y005686D01*
X019247Y005682D01*
X019230Y005680D01*
X018630Y005680D01*
X018613Y005682D01*
X018596Y005686D01*
X018580Y005693D01*
X018566Y005703D01*
X018553Y005716D01*
X018543Y005730D01*
X018536Y005746D01*
X018532Y005763D01*
X018530Y005780D01*
X019530Y005780D02*
X019530Y005930D01*
X019580Y005980D01*
X019580Y007380D01*
X019530Y007430D01*
X019530Y007580D01*
X019532Y007597D01*
X019536Y007614D01*
X019543Y007630D01*
X019553Y007644D01*
X019566Y007657D01*
X019580Y007667D01*
X019596Y007674D01*
X019613Y007678D01*
X019630Y007680D01*
X020230Y007680D01*
X020247Y007678D01*
X020264Y007674D01*
X020280Y007667D01*
X020294Y007657D01*
X020307Y007644D01*
X020317Y007630D01*
X020324Y007614D01*
X020328Y007597D01*
X020330Y007580D01*
X020330Y007430D01*
X020280Y007380D01*
X020280Y005980D01*
X020330Y005930D01*
X020330Y005780D01*
X020328Y005763D01*
X020324Y005746D01*
X020317Y005730D01*
X020307Y005716D01*
X020294Y005703D01*
X020280Y005693D01*
X020264Y005686D01*
X020247Y005682D01*
X020230Y005680D01*
X019630Y005680D01*
X019613Y005682D01*
X019596Y005686D01*
X019580Y005693D01*
X019566Y005703D01*
X019553Y005716D01*
X019543Y005730D01*
X019536Y005746D01*
X019532Y005763D01*
X019530Y005780D01*
X020680Y005530D02*
X020680Y007830D01*
X024680Y007830D01*
X024680Y007080D01*
X024641Y007078D01*
X024602Y007072D01*
X024564Y007063D01*
X024527Y007050D01*
X024491Y007033D01*
X024458Y007013D01*
X024426Y006989D01*
X024397Y006963D01*
X024371Y006934D01*
X024347Y006902D01*
X024327Y006869D01*
X024310Y006833D01*
X024297Y006796D01*
X024288Y006758D01*
X024282Y006719D01*
X024280Y006680D01*
X024282Y006641D01*
X024288Y006602D01*
X024297Y006564D01*
X024310Y006527D01*
X024327Y006491D01*
X024347Y006458D01*
X024371Y006426D01*
X024397Y006397D01*
X024426Y006371D01*
X024458Y006347D01*
X024491Y006327D01*
X024527Y006310D01*
X024564Y006297D01*
X024602Y006288D01*
X024641Y006282D01*
X024680Y006280D01*
X024680Y005530D01*
X020680Y005530D01*
X017680Y006580D02*
X017633Y006582D01*
X017585Y006588D01*
X017539Y006597D01*
X017493Y006610D01*
X017449Y006626D01*
X017405Y006647D01*
X017364Y006670D01*
X017325Y006696D01*
X017288Y006726D01*
X017253Y006759D01*
X017221Y006794D01*
X017192Y006831D01*
X017680Y007780D02*
X017725Y007778D01*
X017771Y007773D01*
X017815Y007765D01*
X017859Y007753D01*
X017902Y007737D01*
X017944Y007719D01*
X017984Y007697D01*
X018022Y007673D01*
X018058Y007646D01*
X018093Y007616D01*
X018124Y007583D01*
X018154Y007548D01*
X017680Y007780D02*
X017635Y007778D01*
X017589Y007773D01*
X017545Y007765D01*
X017501Y007753D01*
X017458Y007737D01*
X017416Y007719D01*
X017376Y007697D01*
X017338Y007673D01*
X017302Y007646D01*
X017267Y007616D01*
X017236Y007583D01*
X017206Y007548D01*
X017680Y006580D02*
X017726Y006582D01*
X017772Y006587D01*
X017818Y006596D01*
X017863Y006608D01*
X017906Y006624D01*
X017948Y006643D01*
X017989Y006666D01*
X018028Y006691D01*
X018064Y006719D01*
X018099Y006750D01*
X018131Y006784D01*
X018160Y006820D01*
X022780Y010280D02*
X022780Y010430D01*
X022830Y010480D01*
X022830Y011880D01*
X022780Y011930D01*
X022780Y012080D01*
X022782Y012097D01*
X022786Y012114D01*
X022793Y012130D01*
X022803Y012144D01*
X022816Y012157D01*
X022830Y012167D01*
X022846Y012174D01*
X022863Y012178D01*
X022880Y012180D01*
X023480Y012180D01*
X023497Y012178D01*
X023514Y012174D01*
X023530Y012167D01*
X023544Y012157D01*
X023557Y012144D01*
X023567Y012130D01*
X023574Y012114D01*
X023578Y012097D01*
X023580Y012080D01*
X023580Y011930D01*
X023530Y011880D01*
X023530Y010480D01*
X023580Y010430D01*
X023580Y010280D01*
X023578Y010263D01*
X023574Y010246D01*
X023567Y010230D01*
X023557Y010216D01*
X023544Y010203D01*
X023530Y010193D01*
X023514Y010186D01*
X023497Y010182D01*
X023480Y010180D01*
X022880Y010180D01*
X022863Y010182D01*
X022846Y010186D01*
X022830Y010193D01*
X022816Y010203D01*
X022803Y010216D01*
X022793Y010230D01*
X022786Y010246D01*
X022782Y010263D01*
X022780Y010280D01*
X025130Y007780D02*
X025130Y005580D01*
X039730Y005580D01*
X039730Y006430D01*
X039700Y006432D01*
X039670Y006437D01*
X039641Y006446D01*
X039614Y006459D01*
X039588Y006474D01*
X039564Y006493D01*
X039543Y006514D01*
X039524Y006538D01*
X039509Y006564D01*
X039496Y006591D01*
X039487Y006620D01*
X039482Y006650D01*
X039480Y006680D01*
X039482Y006710D01*
X039487Y006740D01*
X039496Y006769D01*
X039509Y006796D01*
X039524Y006822D01*
X039543Y006846D01*
X039564Y006867D01*
X039588Y006886D01*
X039614Y006901D01*
X039641Y006914D01*
X039670Y006923D01*
X039700Y006928D01*
X039730Y006930D01*
X039730Y007780D01*
X025130Y007780D01*
X031280Y004630D02*
X032580Y004630D01*
X032606Y004628D01*
X032632Y004623D01*
X032657Y004615D01*
X032680Y004603D01*
X032702Y004589D01*
X032721Y004571D01*
X032739Y004552D01*
X032753Y004530D01*
X032765Y004507D01*
X032773Y004482D01*
X032778Y004456D01*
X032780Y004430D01*
X032430Y004180D02*
X032060Y004180D01*
X031810Y004180D02*
X031430Y004180D01*
X031080Y003930D02*
X031082Y003904D01*
X031087Y003878D01*
X031095Y003853D01*
X031107Y003830D01*
X031121Y003808D01*
X031139Y003789D01*
X031158Y003771D01*
X031180Y003757D01*
X031203Y003745D01*
X031228Y003737D01*
X031254Y003732D01*
X031280Y003730D01*
X032580Y003730D01*
X032606Y003732D01*
X032632Y003737D01*
X032657Y003745D01*
X032680Y003757D01*
X032702Y003771D01*
X032721Y003789D01*
X032739Y003808D01*
X032753Y003830D01*
X032765Y003853D01*
X032773Y003878D01*
X032778Y003904D01*
X032780Y003930D01*
X034180Y003630D02*
X034180Y004230D01*
X034182Y004247D01*
X034186Y004264D01*
X034193Y004280D01*
X034203Y004294D01*
X034216Y004307D01*
X034230Y004317D01*
X034246Y004324D01*
X034263Y004328D01*
X034280Y004330D01*
X034430Y004330D01*
X034480Y004280D01*
X035880Y004280D01*
X035930Y004330D01*
X036080Y004330D01*
X036097Y004328D01*
X036114Y004324D01*
X036130Y004317D01*
X036144Y004307D01*
X036157Y004294D01*
X036167Y004280D01*
X036174Y004264D01*
X036178Y004247D01*
X036180Y004230D01*
X036180Y003630D01*
X036178Y003613D01*
X036174Y003596D01*
X036167Y003580D01*
X036157Y003566D01*
X036144Y003553D01*
X036130Y003543D01*
X036114Y003536D01*
X036097Y003532D01*
X036080Y003530D01*
X035930Y003530D01*
X035880Y003580D01*
X034480Y003580D01*
X034430Y003530D01*
X034280Y003530D01*
X034263Y003532D01*
X034246Y003536D01*
X034230Y003543D01*
X034216Y003553D01*
X034203Y003566D01*
X034193Y003580D01*
X034186Y003596D01*
X034182Y003613D01*
X034180Y003630D01*
X034280Y003330D02*
X034430Y003330D01*
X034480Y003280D01*
X035880Y003280D01*
X035930Y003330D01*
X036080Y003330D01*
X036097Y003328D01*
X036114Y003324D01*
X036130Y003317D01*
X036144Y003307D01*
X036157Y003294D01*
X036167Y003280D01*
X036174Y003264D01*
X036178Y003247D01*
X036180Y003230D01*
X036180Y002630D01*
X036178Y002613D01*
X036174Y002596D01*
X036167Y002580D01*
X036157Y002566D01*
X036144Y002553D01*
X036130Y002543D01*
X036114Y002536D01*
X036097Y002532D01*
X036080Y002530D01*
X035930Y002530D01*
X035880Y002580D01*
X034480Y002580D01*
X034430Y002530D01*
X034280Y002530D01*
X034263Y002532D01*
X034246Y002536D01*
X034230Y002543D01*
X034216Y002553D01*
X034203Y002566D01*
X034193Y002580D01*
X034186Y002596D01*
X034182Y002613D01*
X034180Y002630D01*
X034180Y003230D01*
X034182Y003247D01*
X034186Y003264D01*
X034193Y003280D01*
X034203Y003294D01*
X034216Y003307D01*
X034230Y003317D01*
X034246Y003324D01*
X034263Y003328D01*
X034280Y003330D01*
X034280Y002330D02*
X034430Y002330D01*
X034480Y002280D01*
X035880Y002280D01*
X035930Y002330D01*
X036080Y002330D01*
X036097Y002328D01*
X036114Y002324D01*
X036130Y002317D01*
X036144Y002307D01*
X036157Y002294D01*
X036167Y002280D01*
X036174Y002264D01*
X036178Y002247D01*
X036180Y002230D01*
X036180Y001630D01*
X036178Y001613D01*
X036174Y001596D01*
X036167Y001580D01*
X036157Y001566D01*
X036144Y001553D01*
X036130Y001543D01*
X036114Y001536D01*
X036097Y001532D01*
X036080Y001530D01*
X035930Y001530D01*
X035880Y001580D01*
X034480Y001580D01*
X034430Y001530D01*
X034280Y001530D01*
X034263Y001532D01*
X034246Y001536D01*
X034230Y001543D01*
X034216Y001553D01*
X034203Y001566D01*
X034193Y001580D01*
X034186Y001596D01*
X034182Y001613D01*
X034180Y001630D01*
X034180Y002230D01*
X034182Y002247D01*
X034186Y002264D01*
X034193Y002280D01*
X034203Y002294D01*
X034216Y002307D01*
X034230Y002317D01*
X034246Y002324D01*
X034263Y002328D01*
X034280Y002330D01*
X035288Y001244D02*
X035395Y001351D01*
X035608Y001351D01*
X035715Y001244D01*
X035288Y000817D01*
X035395Y000710D01*
X035608Y000710D01*
X035715Y000817D01*
X035715Y001244D01*
X035933Y001244D02*
X036040Y001351D01*
X036253Y001351D01*
X036360Y001244D01*
X036360Y001137D01*
X035933Y000710D01*
X036360Y000710D01*
X035288Y000817D02*
X035288Y001244D01*
X034426Y001137D02*
X034213Y000710D01*
X033999Y001137D01*
X033782Y001030D02*
X033782Y000924D01*
X033355Y000924D01*
X033355Y001030D02*
X033461Y001137D01*
X033675Y001137D01*
X033782Y001030D01*
X033355Y001030D02*
X033355Y000817D01*
X033461Y000710D01*
X033675Y000710D01*
X033137Y000710D02*
X032924Y000924D01*
X033030Y000924D02*
X032710Y000924D01*
X033030Y000924D02*
X033137Y001030D01*
X033137Y001244D01*
X033030Y001351D01*
X032710Y001351D01*
X032710Y000710D01*
X031653Y000817D02*
X031546Y000710D01*
X031226Y000710D01*
X031010Y000710D02*
X030903Y000817D01*
X030903Y001244D01*
X030796Y001137D02*
X031010Y001137D01*
X031226Y001030D02*
X031333Y001137D01*
X031653Y001137D01*
X031546Y000924D02*
X031333Y000924D01*
X031226Y001030D01*
X031546Y000924D02*
X031653Y000817D01*
X030579Y000710D02*
X030579Y001030D01*
X030472Y001137D01*
X030152Y001137D01*
X030152Y000710D01*
X029827Y000710D02*
X029614Y000710D01*
X029507Y000817D01*
X029507Y001030D01*
X029614Y001137D01*
X029827Y001137D01*
X029934Y001030D01*
X029934Y000924D01*
X029507Y000924D01*
X029289Y001030D02*
X029183Y001137D01*
X029076Y001030D01*
X029076Y000710D01*
X029289Y000710D02*
X029289Y001030D01*
X029076Y001030D02*
X028969Y001137D01*
X028862Y001137D01*
X028862Y000710D01*
X028538Y000710D02*
X028325Y000710D01*
X028218Y000817D01*
X028218Y001030D01*
X028325Y001137D01*
X028538Y001137D01*
X028645Y001030D01*
X028645Y000924D01*
X028218Y000924D01*
X028002Y000710D02*
X027788Y000710D01*
X027895Y000710D02*
X027895Y001351D01*
X027788Y001351D01*
X027571Y001351D02*
X027144Y001351D01*
X027144Y000710D01*
X027571Y000710D01*
X027357Y001030D02*
X027144Y001030D01*
X026282Y000817D02*
X026175Y000710D01*
X025961Y000710D01*
X025855Y000817D01*
X025855Y001244D01*
X025961Y001351D01*
X026175Y001351D01*
X026282Y001244D01*
X025637Y001351D02*
X025637Y000924D01*
X025424Y000710D01*
X025210Y000924D01*
X025210Y001351D01*
X031130Y003180D02*
X031280Y003180D01*
X031280Y003330D01*
X031280Y003180D02*
X031430Y003180D01*
X031280Y003180D02*
X031280Y003030D01*
X030830Y002680D02*
X030832Y002746D01*
X030838Y002811D01*
X030848Y002876D01*
X030861Y002941D01*
X030879Y003004D01*
X030900Y003067D01*
X030925Y003127D01*
X030954Y003187D01*
X030986Y003244D01*
X031021Y003300D01*
X031060Y003353D01*
X031102Y003404D01*
X031146Y003452D01*
X031194Y003497D01*
X031244Y003540D01*
X031297Y003579D01*
X031352Y003616D01*
X031409Y003649D01*
X031468Y003678D01*
X031528Y003704D01*
X031590Y003726D01*
X031653Y003745D01*
X031717Y003759D01*
X031782Y003770D01*
X031848Y003777D01*
X031914Y003780D01*
X031979Y003779D01*
X032045Y003774D01*
X032110Y003765D01*
X032175Y003752D01*
X032238Y003736D01*
X032301Y003716D01*
X032362Y003691D01*
X032422Y003664D01*
X032480Y003633D01*
X032536Y003598D01*
X032590Y003560D01*
X032641Y003519D01*
X032690Y003475D01*
X032736Y003428D01*
X032780Y003379D01*
X032820Y003327D01*
X032857Y003272D01*
X032891Y003216D01*
X032921Y003157D01*
X032948Y003097D01*
X032971Y003036D01*
X032990Y002973D01*
X033006Y002909D01*
X033018Y002844D01*
X033026Y002779D01*
X033030Y002713D01*
X033030Y002647D01*
X033026Y002581D01*
X033018Y002516D01*
X033006Y002451D01*
X032990Y002387D01*
X032971Y002324D01*
X032948Y002263D01*
X032921Y002203D01*
X032891Y002144D01*
X032857Y002088D01*
X032820Y002033D01*
X032780Y001981D01*
X032736Y001932D01*
X032690Y001885D01*
X032641Y001841D01*
X032590Y001800D01*
X032536Y001762D01*
X032480Y001727D01*
X032422Y001696D01*
X032362Y001669D01*
X032301Y001644D01*
X032238Y001624D01*
X032175Y001608D01*
X032110Y001595D01*
X032045Y001586D01*
X031979Y001581D01*
X031914Y001580D01*
X031848Y001583D01*
X031782Y001590D01*
X031717Y001601D01*
X031653Y001615D01*
X031590Y001634D01*
X031528Y001656D01*
X031468Y001682D01*
X031409Y001711D01*
X031352Y001744D01*
X031297Y001781D01*
X031244Y001820D01*
X031194Y001863D01*
X031146Y001908D01*
X031102Y001956D01*
X031060Y002007D01*
X031021Y002060D01*
X030986Y002116D01*
X030954Y002173D01*
X030925Y002233D01*
X030900Y002293D01*
X030879Y002356D01*
X030861Y002419D01*
X030848Y002484D01*
X030838Y002549D01*
X030832Y002614D01*
X030830Y002680D01*
X031080Y004430D02*
X031082Y004456D01*
X031087Y004482D01*
X031095Y004507D01*
X031107Y004530D01*
X031121Y004552D01*
X031139Y004571D01*
X031158Y004589D01*
X031180Y004603D01*
X031203Y004615D01*
X031228Y004623D01*
X031254Y004628D01*
X031280Y004630D01*
X037780Y010280D02*
X037780Y010430D01*
X037830Y010480D01*
X037830Y011880D01*
X037780Y011930D01*
X037780Y012080D01*
X037782Y012097D01*
X037786Y012114D01*
X037793Y012130D01*
X037803Y012144D01*
X037816Y012157D01*
X037830Y012167D01*
X037846Y012174D01*
X037863Y012178D01*
X037880Y012180D01*
X038480Y012180D01*
X038497Y012178D01*
X038514Y012174D01*
X038530Y012167D01*
X038544Y012157D01*
X038557Y012144D01*
X038567Y012130D01*
X038574Y012114D01*
X038578Y012097D01*
X038580Y012080D01*
X038580Y011930D01*
X038530Y011880D01*
X038530Y010480D01*
X038580Y010430D01*
X038580Y010280D01*
X038578Y010263D01*
X038574Y010246D01*
X038567Y010230D01*
X038557Y010216D01*
X038544Y010203D01*
X038530Y010193D01*
X038514Y010186D01*
X038497Y010182D01*
X038480Y010180D01*
X037880Y010180D01*
X037863Y010182D01*
X037846Y010186D01*
X037830Y010193D01*
X037816Y010203D01*
X037803Y010216D01*
X037793Y010230D01*
X037786Y010246D01*
X037782Y010263D01*
X037780Y010280D01*
X038480Y012030D02*
X038480Y013330D01*
X038482Y013356D01*
X038487Y013382D01*
X038495Y013407D01*
X038507Y013430D01*
X038521Y013452D01*
X038539Y013471D01*
X038558Y013489D01*
X038580Y013503D01*
X038603Y013515D01*
X038628Y013523D01*
X038654Y013528D01*
X038680Y013530D01*
X039180Y013530D02*
X039206Y013528D01*
X039232Y013523D01*
X039257Y013515D01*
X039280Y013503D01*
X039302Y013489D01*
X039321Y013471D01*
X039339Y013452D01*
X039353Y013430D01*
X039365Y013407D01*
X039373Y013382D01*
X039378Y013356D01*
X039380Y013330D01*
X039380Y012030D01*
X039378Y012004D01*
X039373Y011978D01*
X039365Y011953D01*
X039353Y011930D01*
X039339Y011908D01*
X039321Y011889D01*
X039302Y011871D01*
X039280Y011857D01*
X039257Y011845D01*
X039232Y011837D01*
X039206Y011832D01*
X039180Y011830D01*
X038680Y011830D02*
X038654Y011832D01*
X038628Y011837D01*
X038603Y011845D01*
X038580Y011857D01*
X038558Y011871D01*
X038539Y011889D01*
X038521Y011908D01*
X038507Y011930D01*
X038495Y011953D01*
X038487Y011978D01*
X038482Y012004D01*
X038480Y012030D01*
X038930Y012180D02*
X038930Y012550D01*
X038930Y012800D02*
X038930Y013180D01*
X032180Y013630D02*
X032180Y014230D01*
X032178Y014247D01*
X032174Y014264D01*
X032167Y014280D01*
X032157Y014294D01*
X032144Y014307D01*
X032130Y014317D01*
X032114Y014324D01*
X032097Y014328D01*
X032080Y014330D01*
X031930Y014330D01*
X031880Y014280D01*
X030480Y014280D01*
X030430Y014330D01*
X030280Y014330D01*
X030263Y014328D01*
X030246Y014324D01*
X030230Y014317D01*
X030216Y014307D01*
X030203Y014294D01*
X030193Y014280D01*
X030186Y014264D01*
X030182Y014247D01*
X030180Y014230D01*
X030180Y013630D01*
X030182Y013613D01*
X030186Y013596D01*
X030193Y013580D01*
X030203Y013566D01*
X030216Y013553D01*
X030230Y013543D01*
X030246Y013536D01*
X030263Y013532D01*
X030280Y013530D01*
X030430Y013530D01*
X030480Y013580D01*
X031880Y013580D01*
X031930Y013530D01*
X032080Y013530D01*
X032097Y013532D01*
X032114Y013536D01*
X032130Y013543D01*
X032144Y013553D01*
X032157Y013566D01*
X032167Y013580D01*
X032174Y013596D01*
X032178Y013613D01*
X032180Y013630D01*
X027930Y013630D02*
X027930Y014230D01*
X027928Y014247D01*
X027924Y014264D01*
X027917Y014280D01*
X027907Y014294D01*
X027894Y014307D01*
X027880Y014317D01*
X027864Y014324D01*
X027847Y014328D01*
X027830Y014330D01*
X027680Y014330D01*
X027630Y014280D01*
X026230Y014280D01*
X026180Y014330D01*
X026030Y014330D01*
X026013Y014328D01*
X025996Y014324D01*
X025980Y014317D01*
X025966Y014307D01*
X025953Y014294D01*
X025943Y014280D01*
X025936Y014264D01*
X025932Y014247D01*
X025930Y014230D01*
X025930Y013630D01*
X025932Y013613D01*
X025936Y013596D01*
X025943Y013580D01*
X025953Y013566D01*
X025966Y013553D01*
X025980Y013543D01*
X025996Y013536D01*
X026013Y013532D01*
X026030Y013530D01*
X026180Y013530D01*
X026230Y013580D01*
X027630Y013580D01*
X027680Y013530D01*
X027830Y013530D01*
X027847Y013532D01*
X027864Y013536D01*
X027880Y013543D01*
X027894Y013553D01*
X027907Y013566D01*
X027917Y013580D01*
X027924Y013596D01*
X027928Y013613D01*
X027930Y013630D01*
X027830Y015030D02*
X027680Y015030D01*
X027630Y015080D01*
X026230Y015080D01*
X026180Y015030D01*
X026030Y015030D01*
X026013Y015032D01*
X025996Y015036D01*
X025980Y015043D01*
X025966Y015053D01*
X025953Y015066D01*
X025943Y015080D01*
X025936Y015096D01*
X025932Y015113D01*
X025930Y015130D01*
X025930Y015730D01*
X025932Y015747D01*
X025936Y015764D01*
X025943Y015780D01*
X025953Y015794D01*
X025966Y015807D01*
X025980Y015817D01*
X025996Y015824D01*
X026013Y015828D01*
X026030Y015830D01*
X026180Y015830D01*
X026230Y015780D01*
X027630Y015780D01*
X027680Y015830D01*
X027830Y015830D01*
X027847Y015828D01*
X027864Y015824D01*
X027880Y015817D01*
X027894Y015807D01*
X027907Y015794D01*
X027917Y015780D01*
X027924Y015764D01*
X027928Y015747D01*
X027930Y015730D01*
X027930Y015130D01*
X027928Y015113D01*
X027924Y015096D01*
X027917Y015080D01*
X027907Y015066D01*
X027894Y015053D01*
X027880Y015043D01*
X027864Y015036D01*
X027847Y015032D01*
X027830Y015030D01*
X023930Y014230D02*
X023930Y013630D01*
X023928Y013613D01*
X023924Y013596D01*
X023917Y013580D01*
X023907Y013566D01*
X023894Y013553D01*
X023880Y013543D01*
X023864Y013536D01*
X023847Y013532D01*
X023830Y013530D01*
X023680Y013530D01*
X023630Y013580D01*
X022230Y013580D01*
X022180Y013530D01*
X022030Y013530D01*
X022013Y013532D01*
X021996Y013536D01*
X021980Y013543D01*
X021966Y013553D01*
X021953Y013566D01*
X021943Y013580D01*
X021936Y013596D01*
X021932Y013613D01*
X021930Y013630D01*
X021930Y014230D01*
X021932Y014247D01*
X021936Y014264D01*
X021943Y014280D01*
X021953Y014294D01*
X021966Y014307D01*
X021980Y014317D01*
X021996Y014324D01*
X022013Y014328D01*
X022030Y014330D01*
X022180Y014330D01*
X022230Y014280D01*
X023630Y014280D01*
X023680Y014330D01*
X023830Y014330D01*
X023847Y014328D01*
X023864Y014324D01*
X023880Y014317D01*
X023894Y014307D01*
X023907Y014294D01*
X023917Y014280D01*
X023924Y014264D01*
X023928Y014247D01*
X023930Y014230D01*
X016430Y014180D02*
X016430Y015680D01*
X016180Y015930D01*
X015680Y015930D01*
X015430Y015680D01*
X015430Y014180D01*
X015180Y013930D01*
X014680Y013930D01*
X014430Y014180D01*
X014430Y015680D01*
X014680Y015930D01*
X015180Y015930D01*
X015430Y015680D01*
X014430Y015680D02*
X014180Y015930D01*
X013680Y015930D01*
X013430Y015680D01*
X013430Y014180D01*
X013680Y013930D01*
X014180Y013930D01*
X014430Y014180D01*
X015430Y014180D02*
X015680Y013930D01*
X016180Y013930D01*
X016430Y014180D01*
X013430Y014180D02*
X013180Y013930D01*
X012680Y013930D01*
X012430Y014180D01*
X012430Y015680D01*
X012680Y015930D01*
X013180Y015930D01*
X013430Y015680D01*
X012430Y015680D02*
X012180Y015930D01*
X011680Y015930D01*
X011430Y015680D01*
X011430Y014180D01*
X011680Y013930D01*
X012180Y013930D01*
X012430Y014180D01*
X011430Y014180D02*
X011180Y013930D01*
X010680Y013930D01*
X010430Y014180D01*
X010430Y015680D01*
X010680Y015930D01*
X011180Y015930D01*
X011430Y015680D01*
X010430Y015680D02*
X010180Y015930D01*
X009680Y015930D01*
X009430Y015680D01*
X009430Y014180D01*
X009680Y013930D01*
X010180Y013930D01*
X010430Y014180D01*
X009430Y014180D02*
X009180Y013930D01*
X008680Y013930D01*
X008430Y014180D01*
X008430Y015680D01*
X008680Y015930D01*
X009180Y015930D01*
X009430Y015680D01*
X008480Y012680D02*
X007880Y012680D01*
X007863Y012678D01*
X007846Y012674D01*
X007830Y012667D01*
X007816Y012657D01*
X007803Y012644D01*
X007793Y012630D01*
X007786Y012614D01*
X007782Y012597D01*
X007780Y012580D01*
X007780Y012430D01*
X007830Y012380D01*
X007830Y010980D01*
X007780Y010930D01*
X007780Y010780D01*
X007782Y010763D01*
X007786Y010746D01*
X007793Y010730D01*
X007803Y010716D01*
X007816Y010703D01*
X007830Y010693D01*
X007846Y010686D01*
X007863Y010682D01*
X007880Y010680D01*
X008480Y010680D01*
X008497Y010682D01*
X008514Y010686D01*
X008530Y010693D01*
X008544Y010703D01*
X008557Y010716D01*
X008567Y010730D01*
X008574Y010746D01*
X008578Y010763D01*
X008580Y010780D01*
X008580Y010930D01*
X008530Y010980D01*
X008530Y012380D01*
X008580Y012430D01*
X008580Y012580D01*
X008578Y012597D01*
X008574Y012614D01*
X008567Y012630D01*
X008557Y012644D01*
X008544Y012657D01*
X008530Y012667D01*
X008514Y012674D01*
X008497Y012678D01*
X008480Y012680D01*
X004230Y008430D02*
X003630Y008430D01*
X003613Y008428D01*
X003596Y008424D01*
X003580Y008417D01*
X003566Y008407D01*
X003553Y008394D01*
X003543Y008380D01*
X003536Y008364D01*
X003532Y008347D01*
X003530Y008330D01*
X003530Y008180D01*
X003580Y008130D01*
X003580Y006730D01*
X003530Y006680D01*
X003530Y006530D01*
X003532Y006513D01*
X003536Y006496D01*
X003543Y006480D01*
X003553Y006466D01*
X003566Y006453D01*
X003580Y006443D01*
X003596Y006436D01*
X003613Y006432D01*
X003630Y006430D01*
X004230Y006430D01*
X004247Y006432D01*
X004264Y006436D01*
X004280Y006443D01*
X004294Y006453D01*
X004307Y006466D01*
X004317Y006480D01*
X004324Y006496D01*
X004328Y006513D01*
X004330Y006530D01*
X004330Y006680D01*
X004280Y006730D01*
X004280Y008130D01*
X004330Y008180D01*
X004330Y008330D01*
X004328Y008347D01*
X004324Y008364D01*
X004317Y008380D01*
X004307Y008394D01*
X004294Y008407D01*
X004280Y008417D01*
X004264Y008424D01*
X004247Y008428D01*
X004230Y008430D01*
X002680Y006580D02*
X002633Y006582D01*
X002585Y006588D01*
X002539Y006597D01*
X002493Y006610D01*
X002449Y006626D01*
X002405Y006647D01*
X002364Y006670D01*
X002325Y006696D01*
X002288Y006726D01*
X002253Y006759D01*
X002221Y006794D01*
X002192Y006831D01*
X002680Y007780D02*
X002725Y007778D01*
X002771Y007773D01*
X002815Y007765D01*
X002859Y007753D01*
X002902Y007737D01*
X002944Y007719D01*
X002984Y007697D01*
X003022Y007673D01*
X003058Y007646D01*
X003093Y007616D01*
X003124Y007583D01*
X003154Y007548D01*
X002680Y007780D02*
X002635Y007778D01*
X002589Y007773D01*
X002545Y007765D01*
X002501Y007753D01*
X002458Y007737D01*
X002416Y007719D01*
X002376Y007697D01*
X002338Y007673D01*
X002302Y007646D01*
X002267Y007616D01*
X002236Y007583D01*
X002206Y007548D01*
X002680Y006580D02*
X002726Y006582D01*
X002772Y006587D01*
X002818Y006596D01*
X002863Y006608D01*
X002906Y006624D01*
X002948Y006643D01*
X002989Y006666D01*
X003028Y006691D01*
X003064Y006719D01*
X003099Y006750D01*
X003131Y006784D01*
X003160Y006820D01*
X001580Y006680D02*
X001580Y006530D01*
X001578Y006513D01*
X001574Y006496D01*
X001567Y006480D01*
X001557Y006466D01*
X001544Y006453D01*
X001530Y006443D01*
X001514Y006436D01*
X001497Y006432D01*
X001480Y006430D01*
X000880Y006430D01*
X000863Y006432D01*
X000846Y006436D01*
X000830Y006443D01*
X000816Y006453D01*
X000803Y006466D01*
X000793Y006480D01*
X000786Y006496D01*
X000782Y006513D01*
X000780Y006530D01*
X000780Y006680D01*
X000830Y006730D01*
X000830Y008130D01*
X000780Y008180D01*
X000780Y008330D01*
X000782Y008347D01*
X000786Y008364D01*
X000793Y008380D01*
X000803Y008394D01*
X000816Y008407D01*
X000830Y008417D01*
X000846Y008424D01*
X000863Y008428D01*
X000880Y008430D01*
X001480Y008430D01*
X001497Y008428D01*
X001514Y008424D01*
X001530Y008417D01*
X001544Y008407D01*
X001557Y008394D01*
X001567Y008380D01*
X001574Y008364D01*
X001578Y008347D01*
X001580Y008330D01*
X001580Y008180D01*
X001530Y008130D01*
X001530Y006730D01*
X001580Y006680D01*
X006780Y006430D02*
X006780Y006280D01*
X006782Y006263D01*
X006786Y006246D01*
X006793Y006230D01*
X006803Y006216D01*
X006816Y006203D01*
X006830Y006193D01*
X006846Y006186D01*
X006863Y006182D01*
X006880Y006180D01*
X007480Y006180D01*
X007497Y006182D01*
X007514Y006186D01*
X007530Y006193D01*
X007544Y006203D01*
X007557Y006216D01*
X007567Y006230D01*
X007574Y006246D01*
X007578Y006263D01*
X007580Y006280D01*
X007580Y006430D01*
X007530Y006480D01*
X007530Y007880D01*
X007580Y007930D01*
X007580Y008080D01*
X007578Y008097D01*
X007574Y008114D01*
X007567Y008130D01*
X007557Y008144D01*
X007544Y008157D01*
X007530Y008167D01*
X007514Y008174D01*
X007497Y008178D01*
X007480Y008180D01*
X006880Y008180D01*
X006863Y008178D01*
X006846Y008174D01*
X006830Y008167D01*
X006816Y008157D01*
X006803Y008144D01*
X006793Y008130D01*
X006786Y008114D01*
X006782Y008097D01*
X006780Y008080D01*
X006780Y007930D01*
X006830Y007880D01*
X006830Y006480D01*
X006780Y006430D01*
X007780Y006430D02*
X007780Y006280D01*
X007782Y006263D01*
X007786Y006246D01*
X007793Y006230D01*
X007803Y006216D01*
X007816Y006203D01*
X007830Y006193D01*
X007846Y006186D01*
X007863Y006182D01*
X007880Y006180D01*
X008480Y006180D01*
X008497Y006182D01*
X008514Y006186D01*
X008530Y006193D01*
X008544Y006203D01*
X008557Y006216D01*
X008567Y006230D01*
X008574Y006246D01*
X008578Y006263D01*
X008580Y006280D01*
X008580Y006430D01*
X008530Y006480D01*
X008530Y007880D01*
X008580Y007930D01*
X008580Y008080D01*
X008578Y008097D01*
X008574Y008114D01*
X008567Y008130D01*
X008557Y008144D01*
X008544Y008157D01*
X008530Y008167D01*
X008514Y008174D01*
X008497Y008178D01*
X008480Y008180D01*
X007880Y008180D01*
X007863Y008178D01*
X007846Y008174D01*
X007830Y008167D01*
X007816Y008157D01*
X007803Y008144D01*
X007793Y008130D01*
X007786Y008114D01*
X007782Y008097D01*
X007780Y008080D01*
X007780Y007930D01*
X007830Y007880D01*
X007830Y006480D01*
X007780Y006430D01*
D12*
X008761Y013445D02*
X009008Y013445D01*
X009129Y013445D02*
X009376Y013692D01*
X009376Y013754D01*
X009314Y013815D01*
X009191Y013815D01*
X009129Y013754D01*
X008884Y013815D02*
X008884Y013445D01*
X009129Y013445D02*
X009376Y013445D01*
X009840Y013507D02*
X009840Y013754D01*
X009902Y013815D01*
X010025Y013815D01*
X010087Y013754D01*
X010087Y013630D02*
X009963Y013630D01*
X010087Y013630D02*
X010087Y013507D01*
X010025Y013445D01*
X009902Y013445D01*
X009840Y013507D01*
X010208Y013568D02*
X010394Y013568D01*
X010455Y013630D01*
X010455Y013754D01*
X010394Y013815D01*
X010208Y013815D01*
X010208Y013445D01*
X010332Y013568D02*
X010455Y013445D01*
X010577Y013507D02*
X010638Y013445D01*
X010762Y013445D01*
X010824Y013507D01*
X010824Y013754D01*
X010762Y013815D01*
X010638Y013815D01*
X010577Y013754D01*
X010577Y013507D01*
X010945Y013507D02*
X011007Y013445D01*
X011130Y013445D01*
X011192Y013507D01*
X011192Y013815D01*
X011313Y013815D02*
X011560Y013445D01*
X011560Y013815D01*
X011682Y013815D02*
X011867Y013815D01*
X011929Y013754D01*
X011929Y013507D01*
X011867Y013445D01*
X011682Y013445D01*
X011682Y013815D01*
X011313Y013815D02*
X011313Y013445D01*
X010945Y013507D02*
X010945Y013815D01*
X008884Y013815D02*
X008761Y013692D01*
X008639Y013630D02*
X008393Y013630D01*
X006942Y013995D02*
X006695Y013995D01*
X006942Y014242D01*
X006942Y014304D01*
X006880Y014365D01*
X006757Y014365D01*
X006695Y014304D01*
X006574Y014365D02*
X006327Y014365D01*
X006327Y013995D01*
X006327Y014180D02*
X006450Y014180D01*
X006327Y015245D02*
X006327Y015615D01*
X006574Y015615D01*
X006695Y015554D02*
X006757Y015615D01*
X006880Y015615D01*
X006942Y015554D01*
X006942Y015492D01*
X006880Y015430D01*
X006942Y015368D01*
X006942Y015307D01*
X006880Y015245D01*
X006757Y015245D01*
X006695Y015307D01*
X006818Y015430D02*
X006880Y015430D01*
X006450Y015430D02*
X006327Y015430D01*
X002942Y015368D02*
X002942Y015307D01*
X002880Y015245D01*
X002757Y015245D01*
X002695Y015307D01*
X002574Y015307D02*
X002574Y015554D01*
X002512Y015615D01*
X002327Y015615D01*
X002327Y015245D01*
X002512Y015245D01*
X002574Y015307D01*
X002818Y015430D02*
X002880Y015430D01*
X002942Y015368D01*
X002880Y015430D02*
X002942Y015492D01*
X002942Y015554D01*
X002880Y015615D01*
X002757Y015615D01*
X002695Y015554D01*
X002757Y014365D02*
X002695Y014304D01*
X002757Y014365D02*
X002880Y014365D01*
X002942Y014304D01*
X002942Y014242D01*
X002695Y013995D01*
X002942Y013995D01*
X002574Y014057D02*
X002574Y014304D01*
X002512Y014365D01*
X002327Y014365D01*
X002327Y013995D01*
X002512Y013995D01*
X002574Y014057D01*
X013577Y013630D02*
X013824Y013630D01*
X013945Y013630D02*
X014068Y013692D01*
X014130Y013692D01*
X014192Y013630D01*
X014192Y013507D01*
X014130Y013445D01*
X014007Y013445D01*
X013945Y013507D01*
X013945Y013630D02*
X013945Y013815D01*
X014192Y013815D01*
X013700Y013754D02*
X013700Y013507D01*
X017827Y015245D02*
X017827Y015615D01*
X018074Y015615D01*
X018195Y015492D02*
X018318Y015615D01*
X018318Y015245D01*
X018195Y015245D02*
X018442Y015245D01*
X017950Y015430D02*
X017827Y015430D01*
X022077Y015245D02*
X022262Y015245D01*
X022324Y015307D01*
X022324Y015554D01*
X022262Y015615D01*
X022077Y015615D01*
X022077Y015245D01*
X022445Y015245D02*
X022692Y015245D01*
X022568Y015245D02*
X022568Y015615D01*
X022445Y015492D01*
X033506Y014261D02*
X033753Y014261D01*
X033815Y014323D01*
X033568Y014323D02*
X033568Y014199D01*
X033568Y014078D02*
X033568Y013893D01*
X033630Y013831D01*
X033692Y013893D01*
X033692Y014016D01*
X033753Y014078D01*
X033815Y014016D01*
X033815Y013831D01*
X033568Y013709D02*
X033568Y013648D01*
X033692Y013524D01*
X033815Y013524D02*
X033568Y013524D01*
X034506Y013893D02*
X034753Y013893D01*
X034815Y013955D01*
X034815Y014077D02*
X034568Y014324D01*
X034568Y014077D02*
X034815Y014324D01*
X034568Y013955D02*
X034568Y013831D01*
X035568Y013770D02*
X035815Y013770D01*
X035692Y013770D02*
X035568Y013893D01*
X035568Y013955D01*
X035568Y014077D02*
X035815Y014324D01*
X035815Y014077D02*
X035568Y014324D01*
X036445Y013955D02*
X036445Y013708D01*
X036630Y013708D01*
X036568Y013832D01*
X036568Y013894D01*
X036630Y013955D01*
X036753Y013955D01*
X036815Y013894D01*
X036815Y013770D01*
X036753Y013708D01*
X036568Y014077D02*
X036815Y014200D01*
X036568Y014324D01*
X037445Y014324D02*
X037815Y014324D01*
X037815Y014138D01*
X037753Y014077D01*
X037630Y014077D01*
X037568Y014138D01*
X037568Y014324D01*
X037630Y013955D02*
X037815Y013955D01*
X037630Y013955D02*
X037568Y013894D01*
X037568Y013708D01*
X037815Y013708D01*
X037815Y013587D02*
X037815Y013402D01*
X037753Y013340D01*
X037630Y013340D01*
X037568Y013402D01*
X037568Y013587D01*
X037877Y013587D01*
X037938Y013525D01*
X037938Y013463D01*
X031165Y006754D02*
X031103Y006815D01*
X030980Y006815D01*
X030918Y006754D01*
X030918Y006507D01*
X031165Y006754D01*
X031165Y006507D01*
X031103Y006445D01*
X030980Y006445D01*
X030918Y006507D01*
X030797Y006445D02*
X030550Y006445D01*
X030797Y006692D01*
X030797Y006754D01*
X030735Y006815D01*
X030612Y006815D01*
X030550Y006754D01*
X030305Y006815D02*
X030305Y006445D01*
X030182Y006445D02*
X030429Y006445D01*
X030060Y006507D02*
X030060Y006754D01*
X029998Y006815D01*
X029875Y006815D01*
X029813Y006754D01*
X029813Y006692D01*
X029875Y006630D01*
X030060Y006630D01*
X030060Y006507D02*
X029998Y006445D01*
X029875Y006445D01*
X029813Y006507D01*
X029692Y006507D02*
X029630Y006445D01*
X029507Y006445D01*
X029445Y006507D01*
X029445Y006630D02*
X029568Y006692D01*
X029630Y006692D01*
X029692Y006630D01*
X029692Y006507D01*
X029445Y006630D02*
X029445Y006815D01*
X029692Y006815D01*
X030182Y006692D02*
X030305Y006815D01*
D13*
X036965Y006906D02*
X037175Y006906D01*
X037070Y006906D02*
X037070Y006275D01*
X036965Y006275D02*
X037175Y006275D01*
X037395Y006380D02*
X037500Y006275D01*
X037710Y006275D01*
X037815Y006380D01*
X038039Y006275D02*
X038460Y006695D01*
X038460Y006800D01*
X038355Y006906D01*
X038144Y006906D01*
X038039Y006800D01*
X037815Y006800D02*
X037710Y006906D01*
X037500Y006906D01*
X037395Y006800D01*
X037395Y006380D01*
X038039Y006275D02*
X038460Y006275D01*
X023472Y006315D02*
X023078Y006315D01*
X023275Y006315D02*
X023275Y006906D01*
X023078Y006709D01*
X022864Y006807D02*
X022765Y006906D01*
X022569Y006906D01*
X022470Y006807D01*
X022470Y006413D01*
X022569Y006315D01*
X022765Y006315D01*
X022864Y006413D01*
X022262Y006315D02*
X022065Y006315D01*
X022163Y006315D02*
X022163Y006906D01*
X022065Y006906D02*
X022262Y006906D01*
D14*
X020120Y006784D02*
X020120Y006663D01*
X020060Y006603D01*
X019820Y006844D01*
X020060Y006844D01*
X020120Y006784D01*
X020060Y006603D02*
X019820Y006603D01*
X019760Y006663D01*
X019760Y006784D01*
X019820Y006844D01*
X019760Y006972D02*
X019940Y006972D01*
X019880Y007092D01*
X019880Y007152D01*
X019940Y007212D01*
X020060Y007212D01*
X020120Y007152D01*
X020120Y007032D01*
X020060Y006972D01*
X019760Y006972D02*
X019760Y007212D01*
X019120Y007212D02*
X019120Y006972D01*
X019120Y007092D02*
X018760Y007092D01*
X018880Y006972D01*
X018820Y006844D02*
X019060Y006603D01*
X019120Y006663D01*
X019120Y006784D01*
X019060Y006844D01*
X018820Y006844D01*
X018760Y006784D01*
X018760Y006663D01*
X018820Y006603D01*
X019060Y006603D01*
X019120Y006475D02*
X019120Y006235D01*
X018880Y006475D01*
X018820Y006475D01*
X018760Y006415D01*
X018760Y006295D01*
X018820Y006235D01*
X018820Y006107D02*
X018940Y006107D01*
X019000Y006047D01*
X019000Y005867D01*
X019000Y005987D02*
X019120Y006107D01*
X018820Y006107D02*
X018760Y006047D01*
X018760Y005867D01*
X019120Y005867D01*
X019760Y005867D02*
X019760Y006047D01*
X019820Y006107D01*
X019940Y006107D01*
X020000Y006047D01*
X020000Y005867D01*
X020000Y005987D02*
X020120Y006107D01*
X020120Y006235D02*
X019880Y006475D01*
X019820Y006475D01*
X019760Y006415D01*
X019760Y006295D01*
X019820Y006235D01*
X020120Y006235D02*
X020120Y006475D01*
X020120Y005867D02*
X019760Y005867D01*
X018295Y005850D02*
X018055Y005850D01*
X018295Y006090D01*
X018295Y006150D01*
X018235Y006210D01*
X018115Y006210D01*
X018055Y006150D01*
X017927Y006150D02*
X017927Y005910D01*
X017867Y005850D01*
X017687Y005850D01*
X017687Y006210D01*
X017867Y006210D01*
X017927Y006150D01*
X017559Y006210D02*
X017318Y006210D01*
X017318Y005850D01*
X017559Y005850D01*
X017438Y006030D02*
X017318Y006030D01*
X017190Y005850D02*
X016950Y005850D01*
X016950Y006210D01*
X016600Y006300D02*
X016480Y006180D01*
X016480Y006240D02*
X016480Y006060D01*
X016600Y006060D02*
X016240Y006060D01*
X016240Y006240D01*
X016300Y006300D01*
X016420Y006300D01*
X016480Y006240D01*
X016540Y006428D02*
X016600Y006488D01*
X016600Y006608D01*
X016540Y006669D01*
X016480Y006669D01*
X016420Y006608D01*
X016420Y006548D01*
X016420Y006608D02*
X016360Y006669D01*
X016300Y006669D01*
X016240Y006608D01*
X016240Y006488D01*
X016300Y006428D01*
X015620Y006415D02*
X015560Y006475D01*
X015500Y006475D01*
X015440Y006415D01*
X015440Y006355D01*
X015440Y006415D02*
X015380Y006475D01*
X015320Y006475D01*
X015260Y006415D01*
X015260Y006295D01*
X015320Y006235D01*
X015320Y006107D02*
X015440Y006107D01*
X015500Y006047D01*
X015500Y005867D01*
X015500Y005987D02*
X015620Y006107D01*
X015560Y006235D02*
X015620Y006295D01*
X015620Y006415D01*
X015560Y006603D02*
X015320Y006603D01*
X015260Y006663D01*
X015260Y006784D01*
X015320Y006844D01*
X015560Y006603D01*
X015620Y006663D01*
X015620Y006784D01*
X015560Y006844D01*
X015320Y006844D01*
X015320Y006972D02*
X015260Y007032D01*
X015260Y007152D01*
X015320Y007212D01*
X015380Y007212D01*
X015440Y007152D01*
X015500Y007212D01*
X015560Y007212D01*
X015620Y007152D01*
X015620Y007032D01*
X015560Y006972D01*
X015440Y007092D02*
X015440Y007152D01*
X014620Y007152D02*
X014260Y007152D01*
X014440Y006972D01*
X014440Y007212D01*
X014320Y006844D02*
X014560Y006844D01*
X014620Y006784D01*
X014620Y006663D01*
X014560Y006603D01*
X014320Y006844D01*
X014260Y006784D01*
X014260Y006663D01*
X014320Y006603D01*
X014560Y006603D01*
X014620Y006475D02*
X014620Y006235D01*
X014380Y006475D01*
X014320Y006475D01*
X014260Y006415D01*
X014260Y006295D01*
X014320Y006235D01*
X014320Y006107D02*
X014440Y006107D01*
X014500Y006047D01*
X014500Y005867D01*
X014500Y005987D02*
X014620Y006107D01*
X014320Y006107D02*
X014260Y006047D01*
X014260Y005867D01*
X014620Y005867D01*
X015260Y005867D02*
X015260Y006047D01*
X015320Y006107D01*
X015260Y005867D02*
X015620Y005867D01*
X013600Y006060D02*
X013240Y006060D01*
X013240Y006240D01*
X013300Y006300D01*
X013420Y006300D01*
X013480Y006240D01*
X013480Y006060D01*
X013480Y006180D02*
X013600Y006300D01*
X013600Y006428D02*
X013360Y006669D01*
X013300Y006669D01*
X013240Y006608D01*
X013240Y006488D01*
X013300Y006428D01*
X013600Y006428D02*
X013600Y006669D01*
X013540Y006797D02*
X013600Y006857D01*
X013600Y006977D01*
X013540Y007037D01*
X013300Y007037D01*
X013540Y006797D01*
X013300Y006797D01*
X013240Y006857D01*
X013240Y006977D01*
X013300Y007037D01*
X013300Y007165D02*
X013240Y007225D01*
X013240Y007345D01*
X013300Y007405D01*
X013360Y007405D01*
X013600Y007165D01*
X013600Y007405D01*
X012620Y007152D02*
X012620Y007032D01*
X012560Y006972D01*
X012560Y006844D02*
X012620Y006784D01*
X012620Y006663D01*
X012560Y006603D01*
X012320Y006844D01*
X012560Y006844D01*
X012320Y006844D02*
X012260Y006784D01*
X012260Y006663D01*
X012320Y006603D01*
X012560Y006603D01*
X012620Y006475D02*
X012620Y006235D01*
X012380Y006475D01*
X012320Y006475D01*
X012260Y006415D01*
X012260Y006295D01*
X012320Y006235D01*
X012320Y006107D02*
X012440Y006107D01*
X012500Y006047D01*
X012500Y005867D01*
X012500Y005987D02*
X012620Y006107D01*
X012320Y006107D02*
X012260Y006047D01*
X012260Y005867D01*
X012620Y005867D01*
X011600Y006060D02*
X011240Y006060D01*
X011240Y006240D01*
X011300Y006300D01*
X011420Y006300D01*
X011480Y006240D01*
X011480Y006060D01*
X011480Y006180D02*
X011600Y006300D01*
X011540Y006428D02*
X011600Y006488D01*
X011600Y006608D01*
X011540Y006669D01*
X011420Y006669D01*
X011360Y006608D01*
X011360Y006548D01*
X011420Y006428D01*
X011240Y006428D01*
X011240Y006669D01*
X011300Y006797D02*
X011240Y006857D01*
X011240Y006977D01*
X011300Y007037D01*
X011540Y006797D01*
X011600Y006857D01*
X011600Y006977D01*
X011540Y007037D01*
X011300Y007037D01*
X011360Y007165D02*
X011240Y007285D01*
X011600Y007285D01*
X011600Y007165D02*
X011600Y007405D01*
X012260Y007152D02*
X012320Y007212D01*
X012380Y007212D01*
X012440Y007152D01*
X012500Y007212D01*
X012560Y007212D01*
X012620Y007152D01*
X012440Y007152D02*
X012440Y007092D01*
X012320Y006972D02*
X012260Y007032D01*
X012260Y007152D01*
X011540Y006797D02*
X011300Y006797D01*
X008370Y006795D02*
X008310Y006735D01*
X008370Y006795D02*
X008370Y006915D01*
X008310Y006975D01*
X008190Y006975D01*
X008130Y006915D01*
X008130Y006855D01*
X008190Y006735D01*
X008010Y006735D01*
X008010Y006975D01*
X008070Y007103D02*
X008010Y007163D01*
X008010Y007284D01*
X008070Y007344D01*
X008310Y007103D01*
X008370Y007163D01*
X008370Y007284D01*
X008310Y007344D01*
X008070Y007344D01*
X008070Y007472D02*
X008010Y007532D01*
X008010Y007652D01*
X008070Y007712D01*
X008130Y007712D01*
X008190Y007652D01*
X008250Y007712D01*
X008310Y007712D01*
X008370Y007652D01*
X008370Y007532D01*
X008310Y007472D01*
X008190Y007592D02*
X008190Y007652D01*
X007370Y007652D02*
X007010Y007652D01*
X007190Y007472D01*
X007190Y007712D01*
X007070Y007344D02*
X007310Y007344D01*
X007370Y007284D01*
X007370Y007163D01*
X007310Y007103D01*
X007070Y007344D01*
X007010Y007284D01*
X007010Y007163D01*
X007070Y007103D01*
X007310Y007103D01*
X007310Y006975D02*
X007370Y006915D01*
X007370Y006795D01*
X007310Y006735D01*
X007190Y006735D02*
X007130Y006855D01*
X007130Y006915D01*
X007190Y006975D01*
X007310Y006975D01*
X007190Y006735D02*
X007010Y006735D01*
X007010Y006975D01*
X007070Y006607D02*
X007190Y006607D01*
X007250Y006547D01*
X007250Y006367D01*
X007250Y006487D02*
X007370Y006607D01*
X007370Y006367D02*
X007010Y006367D01*
X007010Y006547D01*
X007070Y006607D01*
X008010Y006547D02*
X008010Y006367D01*
X008370Y006367D01*
X008250Y006367D02*
X008250Y006547D01*
X008190Y006607D01*
X008070Y006607D01*
X008010Y006547D01*
X008250Y006487D02*
X008370Y006607D01*
X008310Y007103D02*
X008070Y007103D01*
X004100Y007050D02*
X003980Y006930D01*
X003980Y006990D02*
X003980Y006810D01*
X004100Y006810D02*
X003740Y006810D01*
X003740Y006990D01*
X003800Y007050D01*
X003920Y007050D01*
X003980Y006990D01*
X004040Y007178D02*
X004100Y007238D01*
X004100Y007358D01*
X004040Y007419D01*
X003980Y007419D01*
X003920Y007358D01*
X003920Y007298D01*
X003920Y007358D02*
X003860Y007419D01*
X003800Y007419D01*
X003740Y007358D01*
X003740Y007238D01*
X003800Y007178D01*
X003800Y007547D02*
X003740Y007607D01*
X003740Y007727D01*
X003800Y007787D01*
X004040Y007547D01*
X004100Y007607D01*
X004100Y007727D01*
X004040Y007787D01*
X003800Y007787D01*
X003800Y007915D02*
X003740Y007975D01*
X003740Y008095D01*
X003800Y008155D01*
X003860Y008155D01*
X004100Y007915D01*
X004100Y008155D01*
X004040Y007547D02*
X003800Y007547D01*
X001350Y007419D02*
X001350Y007178D01*
X001110Y007419D01*
X001050Y007419D01*
X000990Y007358D01*
X000990Y007238D01*
X001050Y007178D01*
X001050Y007050D02*
X001170Y007050D01*
X001230Y006990D01*
X001230Y006810D01*
X001350Y006810D02*
X000990Y006810D01*
X000990Y006990D01*
X001050Y007050D01*
X001230Y006930D02*
X001350Y007050D01*
X001950Y006210D02*
X001950Y005850D01*
X002190Y005850D01*
X002318Y005850D02*
X002559Y005850D01*
X002687Y005850D02*
X002867Y005850D01*
X002927Y005910D01*
X002927Y006150D01*
X002867Y006210D01*
X002687Y006210D01*
X002687Y005850D01*
X002438Y006030D02*
X002318Y006030D01*
X002318Y006210D02*
X002318Y005850D01*
X002318Y006210D02*
X002559Y006210D01*
X003055Y006090D02*
X003175Y006210D01*
X003175Y005850D01*
X003055Y005850D02*
X003295Y005850D01*
X004740Y004285D02*
X005100Y004285D01*
X005100Y004165D02*
X005100Y004405D01*
X004860Y004165D02*
X004740Y004285D01*
X004800Y004037D02*
X004740Y003977D01*
X004740Y003857D01*
X004800Y003797D01*
X005040Y003797D01*
X004800Y004037D01*
X005040Y004037D01*
X005100Y003977D01*
X005100Y003857D01*
X005040Y003797D01*
X005040Y003669D02*
X005100Y003608D01*
X005100Y003488D01*
X005040Y003428D01*
X005100Y003300D02*
X004980Y003180D01*
X004980Y003240D02*
X004980Y003060D01*
X005100Y003060D02*
X004740Y003060D01*
X004740Y003240D01*
X004800Y003300D01*
X004920Y003300D01*
X004980Y003240D01*
X004800Y003428D02*
X004740Y003488D01*
X004740Y003608D01*
X004800Y003669D01*
X004860Y003669D01*
X004920Y003608D01*
X004980Y003669D01*
X005040Y003669D01*
X004920Y003608D02*
X004920Y003548D01*
X014125Y009833D02*
X014202Y009757D01*
X014278Y009757D01*
X014355Y009833D01*
X014355Y009987D01*
X014432Y010063D01*
X014508Y010063D01*
X014585Y009987D01*
X014585Y009833D01*
X014508Y009757D01*
X014125Y009833D02*
X014125Y009987D01*
X014202Y010063D01*
X014125Y010217D02*
X014125Y010524D01*
X014125Y010677D02*
X014585Y010677D01*
X014585Y010984D01*
X014585Y011138D02*
X014125Y011138D01*
X014125Y011368D01*
X014202Y011445D01*
X014355Y011445D01*
X014432Y011368D01*
X014432Y011138D01*
X014125Y010984D02*
X014125Y010677D01*
X014355Y010677D02*
X014355Y010831D01*
X014585Y010370D02*
X014125Y010370D01*
X014202Y011598D02*
X014508Y011598D01*
X014585Y011675D01*
X014585Y011828D01*
X014508Y011905D01*
X014432Y012058D02*
X014125Y012058D01*
X014202Y011905D02*
X014125Y011828D01*
X014125Y011675D01*
X014202Y011598D01*
X014432Y012058D02*
X014585Y012212D01*
X014432Y012365D01*
X014125Y012365D01*
X008370Y012212D02*
X008370Y011972D01*
X008130Y012212D01*
X008070Y012212D01*
X008010Y012152D01*
X008010Y012032D01*
X008070Y011972D01*
X008070Y011844D02*
X008310Y011603D01*
X008370Y011663D01*
X008370Y011784D01*
X008310Y011844D01*
X008070Y011844D01*
X008010Y011784D01*
X008010Y011663D01*
X008070Y011603D01*
X008310Y011603D01*
X008310Y011475D02*
X008370Y011415D01*
X008370Y011295D01*
X008310Y011235D01*
X008190Y011235D02*
X008130Y011355D01*
X008130Y011415D01*
X008190Y011475D01*
X008310Y011475D01*
X008190Y011235D02*
X008010Y011235D01*
X008010Y011475D01*
X008070Y011107D02*
X008190Y011107D01*
X008250Y011047D01*
X008250Y010867D01*
X008250Y010987D02*
X008370Y011107D01*
X008370Y010867D02*
X008010Y010867D01*
X008010Y011047D01*
X008070Y011107D01*
X007085Y011138D02*
X007085Y011445D01*
X007008Y011598D02*
X007085Y011675D01*
X007085Y011828D01*
X007008Y011905D01*
X006932Y012058D02*
X006625Y012058D01*
X006702Y011905D02*
X006625Y011828D01*
X006625Y011675D01*
X006702Y011598D01*
X007008Y011598D01*
X007085Y011138D02*
X006625Y011138D01*
X007085Y010984D02*
X007085Y010677D01*
X006625Y010677D01*
X006625Y010524D02*
X006625Y010370D01*
X006625Y010447D02*
X007085Y010447D01*
X007085Y010370D02*
X007085Y010524D01*
X006625Y010217D02*
X006625Y009910D01*
X007085Y009910D01*
X006855Y009910D02*
X006855Y010063D01*
X006932Y012058D02*
X007085Y012212D01*
X006932Y012365D01*
X006625Y012365D01*
X021625Y012365D02*
X022085Y012365D01*
X021625Y012058D01*
X022085Y012058D01*
X022085Y011905D02*
X021778Y011905D01*
X021625Y011752D01*
X021778Y011598D01*
X022085Y011598D01*
X022085Y011445D02*
X021625Y011445D01*
X021778Y011291D01*
X021625Y011138D01*
X022085Y011138D01*
X022085Y010984D02*
X022085Y010677D01*
X021625Y010677D01*
X022085Y010524D02*
X022085Y010217D01*
X021625Y010217D01*
X021625Y010063D02*
X021625Y009910D01*
X021625Y009987D02*
X022085Y009987D01*
X022085Y010063D02*
X022085Y009910D01*
X021855Y009603D02*
X021855Y009450D01*
X021625Y009450D02*
X021625Y009757D01*
X021625Y009450D02*
X022085Y009450D01*
X022990Y010560D02*
X022990Y010740D01*
X023050Y010800D01*
X023170Y010800D01*
X023230Y010740D01*
X023230Y010560D01*
X023350Y010560D02*
X022990Y010560D01*
X023230Y010680D02*
X023350Y010800D01*
X023350Y010928D02*
X023350Y011169D01*
X023350Y011048D02*
X022990Y011048D01*
X023110Y010928D01*
X023050Y011297D02*
X022990Y011357D01*
X022990Y011477D01*
X023050Y011537D01*
X023290Y011297D01*
X023350Y011357D01*
X023350Y011477D01*
X023290Y011537D01*
X023050Y011537D01*
X022990Y011665D02*
X023170Y011665D01*
X023110Y011785D01*
X023110Y011845D01*
X023170Y011905D01*
X023290Y011905D01*
X023350Y011845D01*
X023350Y011725D01*
X023290Y011665D01*
X022990Y011665D02*
X022990Y011905D01*
X023050Y011297D02*
X023290Y011297D01*
X021855Y011598D02*
X021855Y011905D01*
X022310Y013760D02*
X022310Y014120D01*
X022490Y014120D01*
X022550Y014060D01*
X022550Y013940D01*
X022490Y013880D01*
X022310Y013880D01*
X022430Y013880D02*
X022550Y013760D01*
X022678Y013760D02*
X022919Y013760D01*
X022798Y013760D02*
X022798Y014120D01*
X022678Y014000D01*
X023047Y014060D02*
X023047Y013820D01*
X023287Y014060D01*
X023287Y013820D01*
X023227Y013760D01*
X023107Y013760D01*
X023047Y013820D01*
X023047Y014060D02*
X023107Y014120D01*
X023227Y014120D01*
X023287Y014060D01*
X023415Y014000D02*
X023535Y014120D01*
X023535Y013760D01*
X023415Y013760D02*
X023655Y013760D01*
X026117Y013740D02*
X026117Y014100D01*
X026297Y014100D01*
X026357Y014040D01*
X026357Y013920D01*
X026297Y013860D01*
X026117Y013860D01*
X026237Y013860D02*
X026357Y013740D01*
X026485Y013740D02*
X026725Y013740D01*
X026605Y013740D02*
X026605Y014100D01*
X026485Y013980D01*
X026853Y014040D02*
X026853Y013800D01*
X027094Y014040D01*
X027094Y013800D01*
X027034Y013740D01*
X026913Y013740D01*
X026853Y013800D01*
X027222Y013800D02*
X027282Y013740D01*
X027402Y013740D01*
X027462Y013800D01*
X027462Y013860D01*
X027402Y013920D01*
X027342Y013920D01*
X027402Y013920D02*
X027462Y013980D01*
X027462Y014040D01*
X027402Y014100D01*
X027282Y014100D01*
X027222Y014040D01*
X027094Y014040D02*
X027034Y014100D01*
X026913Y014100D01*
X026853Y014040D01*
X026798Y015260D02*
X026798Y015620D01*
X026678Y015500D01*
X026550Y015560D02*
X026550Y015440D01*
X026490Y015380D01*
X026310Y015380D01*
X026310Y015260D02*
X026310Y015620D01*
X026490Y015620D01*
X026550Y015560D01*
X026430Y015380D02*
X026550Y015260D01*
X026678Y015260D02*
X026919Y015260D01*
X027047Y015320D02*
X027287Y015560D01*
X027287Y015320D01*
X027227Y015260D01*
X027107Y015260D01*
X027047Y015320D01*
X027047Y015560D01*
X027107Y015620D01*
X027227Y015620D01*
X027287Y015560D01*
X027415Y015560D02*
X027475Y015620D01*
X027595Y015620D01*
X027655Y015560D01*
X027655Y015500D01*
X027415Y015260D01*
X027655Y015260D01*
X030560Y014120D02*
X030740Y014120D01*
X030800Y014060D01*
X030800Y013940D01*
X030740Y013880D01*
X030560Y013880D01*
X030560Y013760D02*
X030560Y014120D01*
X030680Y013880D02*
X030800Y013760D01*
X030928Y013760D02*
X031169Y013760D01*
X031048Y013760D02*
X031048Y014120D01*
X030928Y014000D01*
X031297Y014060D02*
X031297Y013820D01*
X031537Y014060D01*
X031537Y013820D01*
X031477Y013760D01*
X031357Y013760D01*
X031297Y013820D01*
X031297Y014060D02*
X031357Y014120D01*
X031477Y014120D01*
X031537Y014060D01*
X031665Y013940D02*
X031845Y014120D01*
X031845Y013760D01*
X031905Y013940D02*
X031665Y013940D01*
X029585Y012365D02*
X029125Y012365D01*
X029125Y012058D02*
X029585Y012365D01*
X029585Y012058D02*
X029125Y012058D01*
X029278Y011905D02*
X029585Y011905D01*
X029355Y011905D02*
X029355Y011598D01*
X029278Y011598D02*
X029125Y011752D01*
X029278Y011905D01*
X029278Y011598D02*
X029585Y011598D01*
X029585Y011445D02*
X029125Y011445D01*
X029278Y011291D01*
X029125Y011138D01*
X029585Y011138D01*
X029355Y010984D02*
X029432Y010908D01*
X029432Y010677D01*
X029585Y010677D02*
X029125Y010677D01*
X029125Y010908D01*
X029202Y010984D01*
X029355Y010984D01*
X029125Y010524D02*
X029125Y010217D01*
X029585Y010217D01*
X029585Y010524D01*
X029355Y010370D02*
X029355Y010217D01*
X029125Y010063D02*
X029125Y009757D01*
X029125Y009910D02*
X029585Y009910D01*
X029508Y009603D02*
X029432Y009603D01*
X029355Y009526D01*
X029355Y009373D01*
X029278Y009296D01*
X029202Y009296D01*
X029125Y009373D01*
X029125Y009526D01*
X029202Y009603D01*
X029508Y009603D02*
X029585Y009526D01*
X029585Y009373D01*
X029508Y009296D01*
X036625Y009757D02*
X036625Y009987D01*
X036702Y010063D01*
X036855Y010063D01*
X036932Y009987D01*
X036932Y009757D01*
X036932Y009910D02*
X037085Y010063D01*
X037008Y010217D02*
X037085Y010294D01*
X037085Y010447D01*
X037008Y010524D01*
X036702Y010524D01*
X036625Y010447D01*
X036625Y010294D01*
X036702Y010217D01*
X037008Y010217D01*
X036625Y010677D02*
X036625Y010984D01*
X036625Y010831D02*
X037085Y010831D01*
X037085Y011138D02*
X036625Y011138D01*
X036778Y011291D01*
X036625Y011445D01*
X037085Y011445D01*
X037085Y011598D02*
X036778Y011598D01*
X036625Y011752D01*
X036778Y011905D01*
X037085Y011905D01*
X037085Y012058D02*
X036625Y012058D01*
X037085Y012365D01*
X036625Y012365D01*
X036855Y011905D02*
X036855Y011598D01*
X037990Y011048D02*
X038350Y011048D01*
X038350Y010928D02*
X038350Y011169D01*
X038110Y010928D02*
X037990Y011048D01*
X038050Y010800D02*
X038170Y010800D01*
X038230Y010740D01*
X038230Y010560D01*
X038350Y010560D02*
X037990Y010560D01*
X037990Y010740D01*
X038050Y010800D01*
X038230Y010680D02*
X038350Y010800D01*
X037085Y009757D02*
X036625Y009757D01*
X035845Y004120D02*
X035905Y004060D01*
X035905Y004000D01*
X035845Y003940D01*
X035905Y003880D01*
X035905Y003820D01*
X035845Y003760D01*
X035725Y003760D01*
X035665Y003820D01*
X035537Y003820D02*
X035477Y003760D01*
X035357Y003760D01*
X035297Y003820D01*
X035537Y004060D01*
X035537Y003820D01*
X035297Y003820D02*
X035297Y004060D01*
X035357Y004120D01*
X035477Y004120D01*
X035537Y004060D01*
X035665Y004060D02*
X035725Y004120D01*
X035845Y004120D01*
X035845Y003940D02*
X035785Y003940D01*
X035169Y003940D02*
X034928Y003940D01*
X035108Y004120D01*
X035108Y003760D01*
X034800Y003760D02*
X034680Y003880D01*
X034740Y003880D02*
X034560Y003880D01*
X034560Y003760D02*
X034560Y004120D01*
X034740Y004120D01*
X034800Y004060D01*
X034800Y003940D01*
X034740Y003880D01*
X034915Y003100D02*
X034735Y002920D01*
X034975Y002920D01*
X035103Y002800D02*
X035163Y002740D01*
X035284Y002740D01*
X035344Y002800D01*
X035344Y003040D01*
X035103Y002800D01*
X035103Y003040D01*
X035163Y003100D01*
X035284Y003100D01*
X035344Y003040D01*
X035472Y003040D02*
X035532Y003100D01*
X035652Y003100D01*
X035712Y003040D01*
X035712Y002980D01*
X035472Y002740D01*
X035712Y002740D01*
X034915Y002740D02*
X034915Y003100D01*
X034607Y003040D02*
X034607Y002920D01*
X034547Y002860D01*
X034367Y002860D01*
X034487Y002860D02*
X034607Y002740D01*
X034367Y002740D02*
X034367Y003100D01*
X034547Y003100D01*
X034607Y003040D01*
X034560Y002120D02*
X034740Y002120D01*
X034800Y002060D01*
X034800Y001940D01*
X034740Y001880D01*
X034560Y001880D01*
X034560Y001760D02*
X034560Y002120D01*
X034680Y001880D02*
X034800Y001760D01*
X034928Y001940D02*
X035169Y001940D01*
X035297Y001820D02*
X035537Y002060D01*
X035537Y001820D01*
X035477Y001760D01*
X035357Y001760D01*
X035297Y001820D01*
X035297Y002060D01*
X035357Y002120D01*
X035477Y002120D01*
X035537Y002060D01*
X035665Y002000D02*
X035785Y002120D01*
X035785Y001760D01*
X035665Y001760D02*
X035905Y001760D01*
X035108Y001760D02*
X035108Y002120D01*
X034928Y001940D01*
D15*
X034105Y001930D03*
X034105Y002930D03*
X036255Y002930D03*
X036255Y001930D03*
X036255Y003930D03*
X034105Y003930D03*
X032255Y013930D03*
X030105Y013930D03*
X028005Y013930D03*
X025855Y013930D03*
X024005Y013930D03*
X021855Y013930D03*
X025855Y015430D03*
X028005Y015430D03*
D16*
X030280Y008480D02*
X030639Y008448D01*
X031000Y008432D01*
X031360Y008432D01*
X031721Y008448D01*
X032080Y008480D01*
X032132Y008490D01*
X032183Y008504D01*
X032233Y008522D01*
X032281Y008543D01*
X032328Y008568D01*
X032372Y008596D01*
X032415Y008628D01*
X032455Y008662D01*
X032492Y008700D01*
X032526Y008740D01*
X032558Y008782D01*
X032586Y008827D01*
X032610Y008874D01*
X032631Y008922D01*
X032649Y008972D01*
X032662Y009023D01*
X032672Y009075D01*
X032678Y009127D01*
X032680Y009180D01*
X032678Y009233D01*
X032672Y009285D01*
X032662Y009337D01*
X032649Y009388D01*
X032631Y009438D01*
X032610Y009486D01*
X032586Y009533D01*
X032558Y009578D01*
X032526Y009620D01*
X032492Y009660D01*
X032455Y009698D01*
X032415Y009732D01*
X032372Y009764D01*
X032328Y009792D01*
X032281Y009817D01*
X032233Y009838D01*
X032183Y009856D01*
X032132Y009870D01*
X032080Y009880D01*
X033211Y009211D02*
X033211Y013149D01*
X033430Y014430D02*
X033180Y014680D01*
X033180Y015180D01*
X033430Y015430D01*
X033930Y015430D01*
X034180Y015180D01*
X034430Y015430D01*
X034930Y015430D01*
X035180Y015180D01*
X035430Y015430D01*
X035930Y015430D01*
X036180Y015180D01*
X036430Y015430D01*
X036930Y015430D01*
X037180Y015180D01*
X037430Y015430D01*
X037930Y015430D01*
X038180Y015180D01*
X038430Y015430D01*
X038930Y015430D01*
X039180Y015180D01*
X039180Y014680D01*
X038930Y014430D01*
X038430Y014430D01*
X038180Y014680D01*
X037930Y014430D01*
X037430Y014430D01*
X037180Y014680D01*
X036930Y014430D01*
X036430Y014430D01*
X036180Y014680D01*
X035930Y014430D01*
X035430Y014430D01*
X035180Y014680D01*
X034930Y014430D01*
X034430Y014430D01*
X034180Y014680D01*
X033930Y014430D01*
X033430Y014430D01*
X029845Y013149D02*
X029845Y009211D01*
X030280Y009880D02*
X030228Y009870D01*
X030177Y009856D01*
X030127Y009838D01*
X030079Y009817D01*
X030032Y009792D01*
X029988Y009764D01*
X029945Y009732D01*
X029905Y009698D01*
X029868Y009660D01*
X029834Y009620D01*
X029802Y009578D01*
X029774Y009533D01*
X029750Y009486D01*
X029729Y009438D01*
X029711Y009388D01*
X029698Y009337D01*
X029688Y009285D01*
X029682Y009233D01*
X029680Y009180D01*
X029682Y009127D01*
X029688Y009075D01*
X029698Y009023D01*
X029711Y008972D01*
X029729Y008922D01*
X029750Y008874D01*
X029774Y008827D01*
X029802Y008782D01*
X029834Y008740D01*
X029868Y008700D01*
X029905Y008662D01*
X029945Y008628D01*
X029988Y008596D01*
X030032Y008568D01*
X030079Y008543D01*
X030127Y008522D01*
X030177Y008504D01*
X030228Y008490D01*
X030280Y008480D01*
X025711Y009211D02*
X025711Y013149D01*
X022345Y013149D02*
X022345Y009211D01*
X018211Y009211D02*
X018211Y013149D01*
X014845Y013149D02*
X014845Y009211D01*
X010711Y009211D02*
X010711Y013149D01*
X008180Y013580D02*
X008180Y014780D01*
X005180Y014780D01*
X005180Y013580D01*
X008180Y013580D01*
X007345Y013149D02*
X007345Y009211D01*
X003211Y009211D02*
X003211Y013149D01*
X005180Y014830D02*
X005180Y016030D01*
X008180Y016030D01*
X008180Y014830D01*
X005180Y014830D01*
X016680Y014830D02*
X016680Y016030D01*
X019680Y016030D01*
X019680Y014830D01*
X016680Y014830D01*
X004255Y005385D02*
X004255Y001251D01*
X005475Y004755D02*
X009609Y004755D01*
X010475Y004755D02*
X014609Y004755D01*
X015475Y004755D02*
X019609Y004755D01*
X020475Y004755D02*
X024609Y004755D01*
X025180Y004597D02*
X025180Y003930D01*
X025180Y004597D02*
X030180Y004597D01*
X030180Y003930D01*
X030180Y002430D02*
X030180Y001763D01*
X025180Y001763D01*
X025180Y002430D01*
X030280Y009880D02*
X030639Y009912D01*
X031000Y009928D01*
X031360Y009928D01*
X031721Y009912D01*
X032080Y009880D01*
X037345Y009211D02*
X037345Y013149D01*
D17*
X033211Y013149D01*
X031855Y014499D02*
X031855Y014649D01*
X031780Y014724D01*
X031630Y014724D01*
X031630Y014574D01*
X031480Y014424D02*
X031780Y014424D01*
X031855Y014499D01*
X031480Y014424D02*
X031405Y014499D01*
X031405Y014649D01*
X031480Y014724D01*
X031405Y014884D02*
X031855Y015184D01*
X031405Y015184D01*
X031405Y015345D02*
X031405Y015570D01*
X031480Y015645D01*
X031780Y015645D01*
X031855Y015570D01*
X031855Y015345D01*
X031405Y015345D01*
X031405Y014884D02*
X031855Y014884D01*
X029845Y013149D02*
X025711Y013149D01*
X022345Y013149D02*
X018211Y013149D01*
X014845Y013149D02*
X010711Y013149D01*
X007345Y013149D02*
X003211Y013149D01*
X003211Y009211D02*
X007345Y009211D01*
X009113Y008380D02*
X009188Y008455D01*
X009339Y008455D01*
X009414Y008380D01*
X009414Y008080D01*
X009339Y008005D01*
X009188Y008005D01*
X009113Y008080D01*
X009113Y008380D01*
X009264Y008155D02*
X009414Y008005D01*
X009574Y008080D02*
X009649Y008005D01*
X009799Y008005D01*
X009874Y008080D01*
X009874Y008230D01*
X009799Y008305D01*
X009724Y008305D01*
X009574Y008230D01*
X009574Y008455D01*
X009874Y008455D01*
X010034Y008380D02*
X010109Y008455D01*
X010259Y008455D01*
X010334Y008380D01*
X010034Y008080D01*
X010109Y008005D01*
X010259Y008005D01*
X010334Y008080D01*
X010334Y008380D01*
X010495Y008305D02*
X010645Y008455D01*
X010645Y008005D01*
X010495Y008005D02*
X010795Y008005D01*
X010034Y008080D02*
X010034Y008380D01*
X010580Y007505D02*
X010580Y005855D01*
X009980Y006127D02*
X009980Y006233D01*
X010377Y005730D02*
X010431Y005757D01*
X010482Y005787D01*
X010532Y005820D01*
X010580Y005855D01*
X009483Y005730D02*
X009426Y005759D01*
X009370Y005792D01*
X009317Y005827D01*
X009266Y005867D01*
X009218Y005909D01*
X009172Y005954D01*
X009129Y006001D01*
X009089Y006051D01*
X009052Y006104D01*
X009019Y006159D01*
X008988Y006215D01*
X008962Y006274D01*
X008939Y006334D01*
X008919Y006395D01*
X008904Y006457D01*
X008892Y006520D01*
X008884Y006584D01*
X008880Y006648D01*
X008880Y006712D01*
X008884Y006776D01*
X008892Y006840D01*
X008904Y006903D01*
X008919Y006965D01*
X008939Y007026D01*
X008962Y007086D01*
X008988Y007145D01*
X009019Y007201D01*
X009052Y007256D01*
X009089Y007309D01*
X009129Y007359D01*
X009172Y007406D01*
X009218Y007451D01*
X009266Y007493D01*
X009317Y007533D01*
X009370Y007568D01*
X009426Y007601D01*
X009483Y007630D01*
X009980Y007233D02*
X009980Y007127D01*
X010368Y007634D02*
X010424Y007607D01*
X010478Y007576D01*
X010530Y007542D01*
X010580Y007505D01*
X010711Y009211D02*
X014845Y009211D01*
X018211Y009211D02*
X022345Y009211D01*
X025711Y009211D02*
X029845Y009211D01*
X033211Y009211D02*
X037345Y009211D01*
X039005Y010709D02*
X039080Y010634D01*
X039380Y010634D01*
X039455Y010709D01*
X039455Y010859D01*
X039380Y010934D01*
X039455Y011095D02*
X039455Y011395D01*
X039455Y011245D02*
X039005Y011245D01*
X039155Y011095D01*
X039080Y010934D02*
X039005Y010859D01*
X039005Y010709D01*
X033820Y004855D02*
X033895Y004780D01*
X033895Y004705D01*
X033820Y004630D01*
X033895Y004555D01*
X033895Y004480D01*
X033820Y004405D01*
X033670Y004405D01*
X033595Y004480D01*
X033434Y004480D02*
X033359Y004405D01*
X033209Y004405D01*
X033134Y004480D01*
X033134Y004780D01*
X033209Y004855D01*
X033359Y004855D01*
X033434Y004780D01*
X033595Y004780D02*
X033670Y004855D01*
X033820Y004855D01*
X033820Y004630D02*
X033745Y004630D01*
X038230Y003483D02*
X038230Y003377D01*
X038830Y003755D02*
X038830Y002105D01*
X038955Y002280D02*
X039030Y002205D01*
X039330Y002205D01*
X039405Y002280D01*
X039405Y002430D01*
X039330Y002505D01*
X039030Y002505D01*
X038955Y002430D01*
X038955Y002280D01*
X039255Y002355D02*
X039405Y002505D01*
X039180Y002665D02*
X039180Y002966D01*
X039330Y003126D02*
X039030Y003426D01*
X039330Y003426D01*
X039405Y003351D01*
X039405Y003201D01*
X039330Y003126D01*
X039030Y003126D01*
X038955Y003201D01*
X038955Y003351D01*
X039030Y003426D01*
X039105Y003586D02*
X038955Y003736D01*
X039405Y003736D01*
X039405Y003586D02*
X039405Y003886D01*
X039405Y002891D02*
X038955Y002891D01*
X039180Y002665D01*
X038230Y002483D02*
X038230Y002377D01*
X038627Y001980D02*
X038681Y002007D01*
X038732Y002037D01*
X038782Y002070D01*
X038830Y002105D01*
X037733Y001980D02*
X037676Y002009D01*
X037620Y002042D01*
X037567Y002077D01*
X037516Y002117D01*
X037468Y002159D01*
X037422Y002204D01*
X037379Y002251D01*
X037339Y002301D01*
X037302Y002354D01*
X037269Y002409D01*
X037238Y002465D01*
X037212Y002524D01*
X037189Y002584D01*
X037169Y002645D01*
X037154Y002707D01*
X037142Y002770D01*
X037134Y002834D01*
X037130Y002898D01*
X037130Y002962D01*
X037134Y003026D01*
X037142Y003090D01*
X037154Y003153D01*
X037169Y003215D01*
X037189Y003276D01*
X037212Y003336D01*
X037238Y003395D01*
X037269Y003451D01*
X037302Y003506D01*
X037339Y003559D01*
X037379Y003609D01*
X037422Y003656D01*
X037468Y003701D01*
X037516Y003743D01*
X037567Y003783D01*
X037620Y003818D01*
X037676Y003851D01*
X037733Y003880D01*
X038618Y003884D02*
X038674Y003857D01*
X038728Y003826D01*
X038780Y003792D01*
X038830Y003755D01*
X031095Y001880D02*
X031095Y001805D01*
X030795Y001505D01*
X031095Y001505D01*
X031095Y001880D02*
X031020Y001955D01*
X030870Y001955D01*
X030795Y001880D01*
X030634Y001880D02*
X030559Y001955D01*
X030409Y001955D01*
X030334Y001880D01*
X030334Y001580D01*
X030409Y001505D01*
X030559Y001505D01*
X030634Y001580D01*
X024649Y001211D02*
X024649Y002680D01*
X024649Y001211D02*
X023914Y001211D01*
X022430Y001211D02*
X020475Y001211D01*
X020475Y002680D01*
X019649Y002680D02*
X019649Y001211D01*
X018914Y001211D01*
X017430Y001211D02*
X015475Y001211D01*
X015475Y002680D01*
X014649Y002680D02*
X014649Y001211D01*
X013914Y001211D01*
X012430Y001211D02*
X010475Y001211D01*
X010475Y002680D01*
X009649Y002680D02*
X009649Y001211D01*
X008914Y001211D01*
X007430Y001211D02*
X005475Y001211D01*
X005475Y002680D01*
X004255Y001211D02*
X003717Y001211D01*
X002180Y001211D02*
X000711Y001211D01*
X000711Y001946D01*
X000711Y003430D02*
X000711Y005385D01*
X002180Y005385D01*
X003967Y005385D02*
X004255Y005385D01*
X005205Y005480D02*
X005280Y005405D01*
X005430Y005405D01*
X005505Y005480D01*
X005505Y005780D01*
X005430Y005855D01*
X005280Y005855D01*
X005205Y005780D01*
X005205Y005480D01*
X005355Y005555D02*
X005505Y005405D01*
X005665Y005480D02*
X005740Y005405D01*
X005891Y005405D01*
X005966Y005480D01*
X005966Y005555D01*
X005891Y005630D01*
X005816Y005630D01*
X005891Y005630D02*
X005966Y005705D01*
X005966Y005780D01*
X005891Y005855D01*
X005740Y005855D01*
X005665Y005780D01*
X006126Y005780D02*
X006201Y005855D01*
X006351Y005855D01*
X006426Y005780D01*
X006126Y005480D01*
X006201Y005405D01*
X006351Y005405D01*
X006426Y005480D01*
X006426Y005780D01*
X006586Y005705D02*
X006736Y005855D01*
X006736Y005405D01*
X006586Y005405D02*
X006886Y005405D01*
X006126Y005480D02*
X006126Y005780D01*
X005130Y006627D02*
X005130Y006733D01*
X004742Y006226D02*
X004686Y006253D01*
X004632Y006284D01*
X004580Y006318D01*
X004530Y006355D01*
X004530Y008005D01*
X005130Y007733D02*
X005130Y007627D01*
X004733Y008130D02*
X004679Y008103D01*
X004628Y008073D01*
X004578Y008040D01*
X004530Y008005D01*
X005627Y008130D02*
X005684Y008101D01*
X005740Y008068D01*
X005793Y008033D01*
X005844Y007993D01*
X005892Y007951D01*
X005938Y007906D01*
X005981Y007859D01*
X006021Y007809D01*
X006058Y007756D01*
X006091Y007701D01*
X006122Y007645D01*
X006148Y007586D01*
X006171Y007526D01*
X006191Y007465D01*
X006206Y007403D01*
X006218Y007340D01*
X006226Y007276D01*
X006230Y007212D01*
X006230Y007148D01*
X006226Y007084D01*
X006218Y007020D01*
X006206Y006957D01*
X006191Y006895D01*
X006171Y006834D01*
X006148Y006774D01*
X006122Y006715D01*
X006091Y006659D01*
X006058Y006604D01*
X006021Y006551D01*
X005981Y006501D01*
X005938Y006454D01*
X005892Y006409D01*
X005844Y006367D01*
X005793Y006327D01*
X005740Y006292D01*
X005684Y006259D01*
X005627Y006230D01*
X005475Y004755D02*
X005475Y004467D01*
X009649Y004217D02*
X009649Y004755D01*
X010475Y004755D02*
X010475Y004467D01*
X014649Y004217D02*
X014649Y004755D01*
X015475Y004755D02*
X015475Y004467D01*
X019649Y004217D02*
X019649Y004755D01*
X020475Y004755D02*
X020475Y004467D01*
X024649Y004217D02*
X024649Y004755D01*
D18*
X019930Y005605D03*
X018930Y005605D03*
X016430Y005605D03*
X015430Y005605D03*
X014430Y005605D03*
X013430Y005605D03*
X012430Y005605D03*
X011430Y005605D03*
X008180Y006105D03*
X007180Y006105D03*
X004930Y004755D03*
X003930Y006355D03*
X001180Y006355D03*
X001180Y008505D03*
X003930Y008505D03*
X007180Y008255D03*
X008180Y008255D03*
X011430Y007755D03*
X012430Y007755D03*
X013430Y007755D03*
X014430Y007755D03*
X015430Y007755D03*
X016430Y007755D03*
X018930Y007755D03*
X019930Y007755D03*
X023180Y010105D03*
X023180Y012255D03*
X038180Y012255D03*
X038180Y010105D03*
X008180Y010605D03*
X008180Y012755D03*
X004930Y002605D03*
D19*
X031810Y003880D02*
X031810Y004180D01*
X031810Y004480D01*
X032060Y004480D02*
X032060Y004180D01*
X032060Y003880D01*
X038630Y012550D02*
X038930Y012550D01*
X039230Y012550D01*
X039230Y012800D02*
X038930Y012800D01*
X038630Y012800D01*
D20*
X023930Y015430D02*
X023680Y015430D01*
X023680Y015930D01*
X021680Y015930D01*
X021680Y014930D01*
X023680Y014930D01*
X023680Y015430D01*
X021680Y014930D02*
X021180Y014930D01*
X021180Y015430D01*
X020930Y015430D01*
X021180Y015430D02*
X021180Y015930D01*
X021680Y015930D01*
X017180Y007760D02*
X017180Y007580D01*
X017180Y007760D02*
X017212Y007794D01*
X017247Y007826D01*
X017284Y007855D01*
X017323Y007881D01*
X017363Y007905D01*
X017406Y007925D01*
X017449Y007942D01*
X017494Y007957D01*
X017540Y007967D01*
X017586Y007975D01*
X017633Y007979D01*
X017680Y007980D01*
X018386Y006804D02*
X018359Y006757D01*
X018329Y006712D01*
X018296Y006669D01*
X018260Y006629D01*
X018221Y006591D01*
X018180Y006556D01*
X018137Y006523D01*
X018092Y006494D01*
X018044Y006468D01*
X017995Y006445D01*
X017945Y006425D01*
X017894Y006409D01*
X017841Y006396D01*
X017788Y006387D01*
X017734Y006382D01*
X017680Y006380D01*
X017180Y006600D02*
X017180Y006780D01*
X017180Y006600D02*
X017212Y006566D01*
X017247Y006534D01*
X017284Y006505D01*
X017323Y006479D01*
X017363Y006455D01*
X017406Y006435D01*
X017449Y006417D01*
X017494Y006403D01*
X017540Y006392D01*
X017586Y006385D01*
X017633Y006381D01*
X017680Y006380D01*
X018375Y007577D02*
X018345Y007625D01*
X018312Y007670D01*
X018276Y007713D01*
X018238Y007754D01*
X018196Y007791D01*
X018152Y007826D01*
X018106Y007857D01*
X018057Y007886D01*
X018007Y007910D01*
X017955Y007931D01*
X017901Y007949D01*
X017847Y007962D01*
X017792Y007972D01*
X017736Y007978D01*
X017680Y007980D01*
X004180Y014180D02*
X003930Y014180D01*
X003930Y014680D01*
X003430Y014680D01*
X003430Y013680D01*
X003930Y013680D01*
X003930Y014180D01*
X003430Y014680D02*
X001430Y014680D01*
X001430Y014180D01*
X001180Y014180D01*
X001430Y014180D02*
X001430Y013680D01*
X003430Y013680D01*
X003930Y014930D02*
X001930Y014930D01*
X001930Y015930D01*
X001430Y015930D01*
X001430Y015430D01*
X001180Y015430D01*
X001430Y015430D02*
X001430Y014930D01*
X001930Y014930D01*
X001930Y015930D02*
X003930Y015930D01*
X003930Y015430D01*
X004180Y015430D01*
X003930Y015430D02*
X003930Y014930D01*
X002180Y007760D02*
X002180Y007580D01*
X002180Y007760D02*
X002212Y007794D01*
X002247Y007826D01*
X002284Y007855D01*
X002323Y007881D01*
X002363Y007905D01*
X002406Y007925D01*
X002449Y007942D01*
X002494Y007957D01*
X002540Y007967D01*
X002586Y007975D01*
X002633Y007979D01*
X002680Y007980D01*
X003386Y006804D02*
X003359Y006757D01*
X003329Y006712D01*
X003296Y006669D01*
X003260Y006629D01*
X003221Y006591D01*
X003180Y006556D01*
X003137Y006523D01*
X003092Y006494D01*
X003044Y006468D01*
X002995Y006445D01*
X002945Y006425D01*
X002894Y006409D01*
X002841Y006396D01*
X002788Y006387D01*
X002734Y006382D01*
X002680Y006380D01*
X002180Y006600D02*
X002180Y006780D01*
X002180Y006600D02*
X002212Y006566D01*
X002247Y006534D01*
X002284Y006505D01*
X002323Y006479D01*
X002363Y006455D01*
X002406Y006435D01*
X002449Y006417D01*
X002494Y006403D01*
X002540Y006392D01*
X002586Y006385D01*
X002633Y006381D01*
X002680Y006380D01*
X003375Y007577D02*
X003345Y007625D01*
X003312Y007670D01*
X003276Y007713D01*
X003238Y007754D01*
X003196Y007791D01*
X003152Y007826D01*
X003106Y007857D01*
X003057Y007886D01*
X003007Y007910D01*
X002955Y007931D01*
X002901Y007949D01*
X002847Y007962D01*
X002792Y007972D01*
X002736Y007978D01*
X002680Y007980D01*
M02*
