G75*
%MOIN*%
%OFA0B0*%
%FSLAX24Y24*%
%IPPOS*%
%LPD*%
%AMOC8*
5,1,8,0,0,1.08239X$1,22.5*
%
%ADD10C,0.0000*%
%ADD11C,0.0030*%
%ADD12C,0.0060*%
D10*
X003378Y002393D02*
X018885Y002393D01*
X018885Y041763D01*
X003378Y041763D01*
X003378Y002393D01*
X015709Y004893D02*
X015711Y004940D01*
X015717Y004986D01*
X015727Y005032D01*
X015740Y005077D01*
X015758Y005120D01*
X015779Y005162D01*
X015803Y005202D01*
X015831Y005239D01*
X015862Y005274D01*
X015896Y005307D01*
X015932Y005336D01*
X015971Y005362D01*
X016012Y005385D01*
X016055Y005404D01*
X016099Y005420D01*
X016144Y005432D01*
X016190Y005440D01*
X016237Y005444D01*
X016283Y005444D01*
X016330Y005440D01*
X016376Y005432D01*
X016421Y005420D01*
X016465Y005404D01*
X016508Y005385D01*
X016549Y005362D01*
X016588Y005336D01*
X016624Y005307D01*
X016658Y005274D01*
X016689Y005239D01*
X016717Y005202D01*
X016741Y005162D01*
X016762Y005120D01*
X016780Y005077D01*
X016793Y005032D01*
X016803Y004986D01*
X016809Y004940D01*
X016811Y004893D01*
X016809Y004846D01*
X016803Y004800D01*
X016793Y004754D01*
X016780Y004709D01*
X016762Y004666D01*
X016741Y004624D01*
X016717Y004584D01*
X016689Y004547D01*
X016658Y004512D01*
X016624Y004479D01*
X016588Y004450D01*
X016549Y004424D01*
X016508Y004401D01*
X016465Y004382D01*
X016421Y004366D01*
X016376Y004354D01*
X016330Y004346D01*
X016283Y004342D01*
X016237Y004342D01*
X016190Y004346D01*
X016144Y004354D01*
X016099Y004366D01*
X016055Y004382D01*
X016012Y004401D01*
X015971Y004424D01*
X015932Y004450D01*
X015896Y004479D01*
X015862Y004512D01*
X015831Y004547D01*
X015803Y004584D01*
X015779Y004624D01*
X015758Y004666D01*
X015740Y004709D01*
X015727Y004754D01*
X015717Y004800D01*
X015711Y004846D01*
X015709Y004893D01*
X015709Y009893D02*
X015711Y009940D01*
X015717Y009986D01*
X015727Y010032D01*
X015740Y010077D01*
X015758Y010120D01*
X015779Y010162D01*
X015803Y010202D01*
X015831Y010239D01*
X015862Y010274D01*
X015896Y010307D01*
X015932Y010336D01*
X015971Y010362D01*
X016012Y010385D01*
X016055Y010404D01*
X016099Y010420D01*
X016144Y010432D01*
X016190Y010440D01*
X016237Y010444D01*
X016283Y010444D01*
X016330Y010440D01*
X016376Y010432D01*
X016421Y010420D01*
X016465Y010404D01*
X016508Y010385D01*
X016549Y010362D01*
X016588Y010336D01*
X016624Y010307D01*
X016658Y010274D01*
X016689Y010239D01*
X016717Y010202D01*
X016741Y010162D01*
X016762Y010120D01*
X016780Y010077D01*
X016793Y010032D01*
X016803Y009986D01*
X016809Y009940D01*
X016811Y009893D01*
X016809Y009846D01*
X016803Y009800D01*
X016793Y009754D01*
X016780Y009709D01*
X016762Y009666D01*
X016741Y009624D01*
X016717Y009584D01*
X016689Y009547D01*
X016658Y009512D01*
X016624Y009479D01*
X016588Y009450D01*
X016549Y009424D01*
X016508Y009401D01*
X016465Y009382D01*
X016421Y009366D01*
X016376Y009354D01*
X016330Y009346D01*
X016283Y009342D01*
X016237Y009342D01*
X016190Y009346D01*
X016144Y009354D01*
X016099Y009366D01*
X016055Y009382D01*
X016012Y009401D01*
X015971Y009424D01*
X015932Y009450D01*
X015896Y009479D01*
X015862Y009512D01*
X015831Y009547D01*
X015803Y009584D01*
X015779Y009624D01*
X015758Y009666D01*
X015740Y009709D01*
X015727Y009754D01*
X015717Y009800D01*
X015711Y009846D01*
X015709Y009893D01*
X015709Y014893D02*
X015711Y014940D01*
X015717Y014986D01*
X015727Y015032D01*
X015740Y015077D01*
X015758Y015120D01*
X015779Y015162D01*
X015803Y015202D01*
X015831Y015239D01*
X015862Y015274D01*
X015896Y015307D01*
X015932Y015336D01*
X015971Y015362D01*
X016012Y015385D01*
X016055Y015404D01*
X016099Y015420D01*
X016144Y015432D01*
X016190Y015440D01*
X016237Y015444D01*
X016283Y015444D01*
X016330Y015440D01*
X016376Y015432D01*
X016421Y015420D01*
X016465Y015404D01*
X016508Y015385D01*
X016549Y015362D01*
X016588Y015336D01*
X016624Y015307D01*
X016658Y015274D01*
X016689Y015239D01*
X016717Y015202D01*
X016741Y015162D01*
X016762Y015120D01*
X016780Y015077D01*
X016793Y015032D01*
X016803Y014986D01*
X016809Y014940D01*
X016811Y014893D01*
X016809Y014846D01*
X016803Y014800D01*
X016793Y014754D01*
X016780Y014709D01*
X016762Y014666D01*
X016741Y014624D01*
X016717Y014584D01*
X016689Y014547D01*
X016658Y014512D01*
X016624Y014479D01*
X016588Y014450D01*
X016549Y014424D01*
X016508Y014401D01*
X016465Y014382D01*
X016421Y014366D01*
X016376Y014354D01*
X016330Y014346D01*
X016283Y014342D01*
X016237Y014342D01*
X016190Y014346D01*
X016144Y014354D01*
X016099Y014366D01*
X016055Y014382D01*
X016012Y014401D01*
X015971Y014424D01*
X015932Y014450D01*
X015896Y014479D01*
X015862Y014512D01*
X015831Y014547D01*
X015803Y014584D01*
X015779Y014624D01*
X015758Y014666D01*
X015740Y014709D01*
X015727Y014754D01*
X015717Y014800D01*
X015711Y014846D01*
X015709Y014893D01*
X015709Y019893D02*
X015711Y019940D01*
X015717Y019986D01*
X015727Y020032D01*
X015740Y020077D01*
X015758Y020120D01*
X015779Y020162D01*
X015803Y020202D01*
X015831Y020239D01*
X015862Y020274D01*
X015896Y020307D01*
X015932Y020336D01*
X015971Y020362D01*
X016012Y020385D01*
X016055Y020404D01*
X016099Y020420D01*
X016144Y020432D01*
X016190Y020440D01*
X016237Y020444D01*
X016283Y020444D01*
X016330Y020440D01*
X016376Y020432D01*
X016421Y020420D01*
X016465Y020404D01*
X016508Y020385D01*
X016549Y020362D01*
X016588Y020336D01*
X016624Y020307D01*
X016658Y020274D01*
X016689Y020239D01*
X016717Y020202D01*
X016741Y020162D01*
X016762Y020120D01*
X016780Y020077D01*
X016793Y020032D01*
X016803Y019986D01*
X016809Y019940D01*
X016811Y019893D01*
X016809Y019846D01*
X016803Y019800D01*
X016793Y019754D01*
X016780Y019709D01*
X016762Y019666D01*
X016741Y019624D01*
X016717Y019584D01*
X016689Y019547D01*
X016658Y019512D01*
X016624Y019479D01*
X016588Y019450D01*
X016549Y019424D01*
X016508Y019401D01*
X016465Y019382D01*
X016421Y019366D01*
X016376Y019354D01*
X016330Y019346D01*
X016283Y019342D01*
X016237Y019342D01*
X016190Y019346D01*
X016144Y019354D01*
X016099Y019366D01*
X016055Y019382D01*
X016012Y019401D01*
X015971Y019424D01*
X015932Y019450D01*
X015896Y019479D01*
X015862Y019512D01*
X015831Y019547D01*
X015803Y019584D01*
X015779Y019624D01*
X015758Y019666D01*
X015740Y019709D01*
X015727Y019754D01*
X015717Y019800D01*
X015711Y019846D01*
X015709Y019893D01*
X015709Y024893D02*
X015711Y024940D01*
X015717Y024986D01*
X015727Y025032D01*
X015740Y025077D01*
X015758Y025120D01*
X015779Y025162D01*
X015803Y025202D01*
X015831Y025239D01*
X015862Y025274D01*
X015896Y025307D01*
X015932Y025336D01*
X015971Y025362D01*
X016012Y025385D01*
X016055Y025404D01*
X016099Y025420D01*
X016144Y025432D01*
X016190Y025440D01*
X016237Y025444D01*
X016283Y025444D01*
X016330Y025440D01*
X016376Y025432D01*
X016421Y025420D01*
X016465Y025404D01*
X016508Y025385D01*
X016549Y025362D01*
X016588Y025336D01*
X016624Y025307D01*
X016658Y025274D01*
X016689Y025239D01*
X016717Y025202D01*
X016741Y025162D01*
X016762Y025120D01*
X016780Y025077D01*
X016793Y025032D01*
X016803Y024986D01*
X016809Y024940D01*
X016811Y024893D01*
X016809Y024846D01*
X016803Y024800D01*
X016793Y024754D01*
X016780Y024709D01*
X016762Y024666D01*
X016741Y024624D01*
X016717Y024584D01*
X016689Y024547D01*
X016658Y024512D01*
X016624Y024479D01*
X016588Y024450D01*
X016549Y024424D01*
X016508Y024401D01*
X016465Y024382D01*
X016421Y024366D01*
X016376Y024354D01*
X016330Y024346D01*
X016283Y024342D01*
X016237Y024342D01*
X016190Y024346D01*
X016144Y024354D01*
X016099Y024366D01*
X016055Y024382D01*
X016012Y024401D01*
X015971Y024424D01*
X015932Y024450D01*
X015896Y024479D01*
X015862Y024512D01*
X015831Y024547D01*
X015803Y024584D01*
X015779Y024624D01*
X015758Y024666D01*
X015740Y024709D01*
X015727Y024754D01*
X015717Y024800D01*
X015711Y024846D01*
X015709Y024893D01*
D11*
X006547Y011193D02*
X006300Y011193D01*
X006179Y011255D02*
X006055Y011379D01*
X006055Y011008D01*
X005932Y011008D02*
X006179Y011008D01*
X005810Y011008D02*
X005563Y011255D01*
X005563Y011317D01*
X005625Y011379D01*
X005749Y011379D01*
X005810Y011317D01*
X005810Y011008D02*
X005563Y011008D01*
D12*
X017826Y024481D02*
X017826Y024588D01*
X017933Y024694D01*
X018467Y024694D01*
X018467Y024374D01*
X018360Y024267D01*
X018146Y024267D01*
X018040Y024374D01*
X018040Y024694D01*
X018146Y024912D02*
X018040Y025019D01*
X018040Y025339D01*
X017933Y025339D02*
X017826Y025232D01*
X017826Y025125D01*
X017933Y025339D02*
X018467Y025339D01*
X018467Y024912D02*
X018146Y024912D01*
X018146Y024050D02*
X018360Y024050D01*
X018467Y023943D01*
X018467Y023730D01*
X018360Y023623D01*
X018146Y023623D01*
X018040Y023730D01*
X018040Y023943D01*
X018146Y024050D01*
X018040Y023407D02*
X018040Y023193D01*
X018040Y023300D02*
X018680Y023300D01*
X018680Y023193D01*
X018360Y022976D02*
X018467Y022869D01*
X018467Y022655D01*
X018360Y022549D01*
X018146Y022549D01*
X018040Y022655D01*
X018040Y022869D01*
X018146Y022976D01*
X018360Y022976D01*
X018360Y022331D02*
X018040Y022331D01*
X018040Y021904D02*
X018467Y021904D01*
X018467Y022224D01*
X018360Y022331D01*
X018360Y021686D02*
X018040Y021686D01*
X018040Y021259D02*
X018680Y021259D01*
X018467Y021366D02*
X018467Y021580D01*
X018360Y021686D01*
X018467Y021366D02*
X018360Y021259D01*
X018467Y021042D02*
X018467Y020722D01*
X018360Y020615D01*
X018146Y020615D01*
X018040Y020722D01*
X018040Y021042D01*
X018253Y020397D02*
X018253Y019970D01*
X018146Y019970D02*
X018360Y019970D01*
X018467Y020077D01*
X018467Y020291D01*
X018360Y020397D01*
X018253Y020397D01*
X018040Y020291D02*
X018040Y020077D01*
X018146Y019970D01*
X018040Y019539D02*
X018680Y019539D01*
X018680Y019326D02*
X018680Y019753D01*
X018680Y018358D02*
X018040Y018358D01*
X018040Y018252D02*
X018040Y018465D01*
X018253Y018034D02*
X018253Y017607D01*
X018146Y017607D02*
X018360Y017607D01*
X018467Y017714D01*
X018467Y017927D01*
X018360Y018034D01*
X018253Y018034D01*
X018040Y017927D02*
X018040Y017714D01*
X018146Y017607D01*
X018146Y017389D02*
X018360Y017389D01*
X018467Y017283D01*
X018467Y016962D01*
X018360Y016745D02*
X018253Y016745D01*
X018253Y016318D01*
X018146Y016318D02*
X018360Y016318D01*
X018467Y016425D01*
X018467Y016638D01*
X018360Y016745D01*
X018040Y016425D02*
X018146Y016318D01*
X018040Y016425D02*
X018040Y016638D01*
X018040Y016962D02*
X018040Y017283D01*
X018146Y017389D01*
X018040Y016962D02*
X018680Y016962D01*
X018573Y016100D02*
X018360Y016100D01*
X018253Y015994D01*
X018253Y015673D01*
X018040Y015673D02*
X018680Y015673D01*
X018680Y015994D01*
X018573Y016100D01*
X018253Y015887D02*
X018040Y016100D01*
X018680Y018252D02*
X018680Y018358D01*
X018680Y033173D02*
X018040Y033173D01*
X018253Y033173D02*
X018680Y033600D01*
X018680Y033818D02*
X018680Y033925D01*
X018040Y033925D01*
X018040Y034031D02*
X018040Y033818D01*
X018040Y033600D02*
X018360Y033280D01*
X018146Y034248D02*
X018040Y034354D01*
X018040Y034675D01*
X018360Y034675D01*
X018467Y034568D01*
X018467Y034354D01*
X018253Y034354D02*
X018253Y034675D01*
X018360Y034892D02*
X018253Y034999D01*
X018253Y035212D01*
X018146Y035319D01*
X018040Y035212D01*
X018040Y034892D01*
X018253Y034354D02*
X018146Y034248D01*
X018360Y034892D02*
X018467Y034999D01*
X018467Y035319D01*
X018467Y035537D02*
X018467Y035643D01*
X018360Y035750D01*
X018467Y035857D01*
X018360Y035964D01*
X018040Y035964D01*
X018040Y035750D02*
X018360Y035750D01*
X018467Y035537D02*
X018040Y035537D01*
X018146Y036181D02*
X018253Y036288D01*
X018253Y036608D01*
X018360Y036608D02*
X018467Y036501D01*
X018467Y036288D01*
X018360Y036608D02*
X018040Y036608D01*
X018040Y036288D01*
X018146Y036181D01*
X018467Y036826D02*
X018467Y037039D01*
X018573Y036933D02*
X018146Y036933D01*
X018040Y037039D01*
X018146Y037255D02*
X018040Y037362D01*
X018040Y037682D01*
X018360Y037682D01*
X018467Y037576D01*
X018467Y037362D01*
X018253Y037362D02*
X018253Y037682D01*
X018253Y037362D02*
X018146Y037255D01*
X018040Y038423D02*
X018680Y038423D01*
X018680Y038744D01*
X018573Y038850D01*
X018360Y038850D01*
X018253Y038744D01*
X018253Y038423D01*
X018253Y038637D02*
X018040Y038850D01*
X018146Y039068D02*
X018040Y039175D01*
X018040Y039388D01*
X018253Y039495D02*
X018253Y039068D01*
X018146Y039068D02*
X018360Y039068D01*
X018467Y039175D01*
X018467Y039388D01*
X018360Y039495D01*
X018253Y039495D01*
X018467Y039712D02*
X018040Y039926D01*
X018467Y040139D01*
X018573Y040357D02*
X018146Y040357D01*
X018573Y040784D01*
X018146Y040784D01*
X018040Y040677D01*
X018040Y040464D01*
X018146Y040357D01*
X018573Y040357D02*
X018680Y040464D01*
X018680Y040677D01*
X018573Y040784D01*
X018360Y041002D02*
X018360Y041429D01*
X018680Y041322D02*
X018360Y041002D01*
X018040Y041322D02*
X018680Y041322D01*
M02*
