G75*
%MOIN*%
%OFA0B0*%
%FSLAX24Y24*%
%IPPOS*%
%LPD*%
%AMOC8*
5,1,8,0,0,1.08239X$1,22.5*
%
%ADD10C,0.0000*%
%ADD11C,0.0520*%
%ADD12OC8,0.0520*%
%ADD13C,0.0594*%
%ADD14C,0.0760*%
%ADD15OC8,0.1181*%
%ADD16OC8,0.1266*%
%ADD17C,0.0515*%
%ADD18C,0.0740*%
%ADD19C,0.0780*%
%ADD20OC8,0.0740*%
%ADD21OC8,0.0630*%
%ADD22C,0.0630*%
%ADD23R,0.0520X0.0520*%
%ADD24OC8,0.1240*%
%ADD25C,0.0160*%
%ADD26C,0.0240*%
%ADD27C,0.0120*%
%ADD28C,0.0356*%
D10*
X003378Y002393D02*
X018885Y002393D01*
X018885Y041763D01*
X003378Y041763D01*
X003378Y002393D01*
X015709Y004893D02*
X015711Y004940D01*
X015717Y004986D01*
X015727Y005032D01*
X015740Y005077D01*
X015758Y005120D01*
X015779Y005162D01*
X015803Y005202D01*
X015831Y005239D01*
X015862Y005274D01*
X015896Y005307D01*
X015932Y005336D01*
X015971Y005362D01*
X016012Y005385D01*
X016055Y005404D01*
X016099Y005420D01*
X016144Y005432D01*
X016190Y005440D01*
X016237Y005444D01*
X016283Y005444D01*
X016330Y005440D01*
X016376Y005432D01*
X016421Y005420D01*
X016465Y005404D01*
X016508Y005385D01*
X016549Y005362D01*
X016588Y005336D01*
X016624Y005307D01*
X016658Y005274D01*
X016689Y005239D01*
X016717Y005202D01*
X016741Y005162D01*
X016762Y005120D01*
X016780Y005077D01*
X016793Y005032D01*
X016803Y004986D01*
X016809Y004940D01*
X016811Y004893D01*
X016809Y004846D01*
X016803Y004800D01*
X016793Y004754D01*
X016780Y004709D01*
X016762Y004666D01*
X016741Y004624D01*
X016717Y004584D01*
X016689Y004547D01*
X016658Y004512D01*
X016624Y004479D01*
X016588Y004450D01*
X016549Y004424D01*
X016508Y004401D01*
X016465Y004382D01*
X016421Y004366D01*
X016376Y004354D01*
X016330Y004346D01*
X016283Y004342D01*
X016237Y004342D01*
X016190Y004346D01*
X016144Y004354D01*
X016099Y004366D01*
X016055Y004382D01*
X016012Y004401D01*
X015971Y004424D01*
X015932Y004450D01*
X015896Y004479D01*
X015862Y004512D01*
X015831Y004547D01*
X015803Y004584D01*
X015779Y004624D01*
X015758Y004666D01*
X015740Y004709D01*
X015727Y004754D01*
X015717Y004800D01*
X015711Y004846D01*
X015709Y004893D01*
X015709Y009893D02*
X015711Y009940D01*
X015717Y009986D01*
X015727Y010032D01*
X015740Y010077D01*
X015758Y010120D01*
X015779Y010162D01*
X015803Y010202D01*
X015831Y010239D01*
X015862Y010274D01*
X015896Y010307D01*
X015932Y010336D01*
X015971Y010362D01*
X016012Y010385D01*
X016055Y010404D01*
X016099Y010420D01*
X016144Y010432D01*
X016190Y010440D01*
X016237Y010444D01*
X016283Y010444D01*
X016330Y010440D01*
X016376Y010432D01*
X016421Y010420D01*
X016465Y010404D01*
X016508Y010385D01*
X016549Y010362D01*
X016588Y010336D01*
X016624Y010307D01*
X016658Y010274D01*
X016689Y010239D01*
X016717Y010202D01*
X016741Y010162D01*
X016762Y010120D01*
X016780Y010077D01*
X016793Y010032D01*
X016803Y009986D01*
X016809Y009940D01*
X016811Y009893D01*
X016809Y009846D01*
X016803Y009800D01*
X016793Y009754D01*
X016780Y009709D01*
X016762Y009666D01*
X016741Y009624D01*
X016717Y009584D01*
X016689Y009547D01*
X016658Y009512D01*
X016624Y009479D01*
X016588Y009450D01*
X016549Y009424D01*
X016508Y009401D01*
X016465Y009382D01*
X016421Y009366D01*
X016376Y009354D01*
X016330Y009346D01*
X016283Y009342D01*
X016237Y009342D01*
X016190Y009346D01*
X016144Y009354D01*
X016099Y009366D01*
X016055Y009382D01*
X016012Y009401D01*
X015971Y009424D01*
X015932Y009450D01*
X015896Y009479D01*
X015862Y009512D01*
X015831Y009547D01*
X015803Y009584D01*
X015779Y009624D01*
X015758Y009666D01*
X015740Y009709D01*
X015727Y009754D01*
X015717Y009800D01*
X015711Y009846D01*
X015709Y009893D01*
X015709Y014893D02*
X015711Y014940D01*
X015717Y014986D01*
X015727Y015032D01*
X015740Y015077D01*
X015758Y015120D01*
X015779Y015162D01*
X015803Y015202D01*
X015831Y015239D01*
X015862Y015274D01*
X015896Y015307D01*
X015932Y015336D01*
X015971Y015362D01*
X016012Y015385D01*
X016055Y015404D01*
X016099Y015420D01*
X016144Y015432D01*
X016190Y015440D01*
X016237Y015444D01*
X016283Y015444D01*
X016330Y015440D01*
X016376Y015432D01*
X016421Y015420D01*
X016465Y015404D01*
X016508Y015385D01*
X016549Y015362D01*
X016588Y015336D01*
X016624Y015307D01*
X016658Y015274D01*
X016689Y015239D01*
X016717Y015202D01*
X016741Y015162D01*
X016762Y015120D01*
X016780Y015077D01*
X016793Y015032D01*
X016803Y014986D01*
X016809Y014940D01*
X016811Y014893D01*
X016809Y014846D01*
X016803Y014800D01*
X016793Y014754D01*
X016780Y014709D01*
X016762Y014666D01*
X016741Y014624D01*
X016717Y014584D01*
X016689Y014547D01*
X016658Y014512D01*
X016624Y014479D01*
X016588Y014450D01*
X016549Y014424D01*
X016508Y014401D01*
X016465Y014382D01*
X016421Y014366D01*
X016376Y014354D01*
X016330Y014346D01*
X016283Y014342D01*
X016237Y014342D01*
X016190Y014346D01*
X016144Y014354D01*
X016099Y014366D01*
X016055Y014382D01*
X016012Y014401D01*
X015971Y014424D01*
X015932Y014450D01*
X015896Y014479D01*
X015862Y014512D01*
X015831Y014547D01*
X015803Y014584D01*
X015779Y014624D01*
X015758Y014666D01*
X015740Y014709D01*
X015727Y014754D01*
X015717Y014800D01*
X015711Y014846D01*
X015709Y014893D01*
X015709Y019893D02*
X015711Y019940D01*
X015717Y019986D01*
X015727Y020032D01*
X015740Y020077D01*
X015758Y020120D01*
X015779Y020162D01*
X015803Y020202D01*
X015831Y020239D01*
X015862Y020274D01*
X015896Y020307D01*
X015932Y020336D01*
X015971Y020362D01*
X016012Y020385D01*
X016055Y020404D01*
X016099Y020420D01*
X016144Y020432D01*
X016190Y020440D01*
X016237Y020444D01*
X016283Y020444D01*
X016330Y020440D01*
X016376Y020432D01*
X016421Y020420D01*
X016465Y020404D01*
X016508Y020385D01*
X016549Y020362D01*
X016588Y020336D01*
X016624Y020307D01*
X016658Y020274D01*
X016689Y020239D01*
X016717Y020202D01*
X016741Y020162D01*
X016762Y020120D01*
X016780Y020077D01*
X016793Y020032D01*
X016803Y019986D01*
X016809Y019940D01*
X016811Y019893D01*
X016809Y019846D01*
X016803Y019800D01*
X016793Y019754D01*
X016780Y019709D01*
X016762Y019666D01*
X016741Y019624D01*
X016717Y019584D01*
X016689Y019547D01*
X016658Y019512D01*
X016624Y019479D01*
X016588Y019450D01*
X016549Y019424D01*
X016508Y019401D01*
X016465Y019382D01*
X016421Y019366D01*
X016376Y019354D01*
X016330Y019346D01*
X016283Y019342D01*
X016237Y019342D01*
X016190Y019346D01*
X016144Y019354D01*
X016099Y019366D01*
X016055Y019382D01*
X016012Y019401D01*
X015971Y019424D01*
X015932Y019450D01*
X015896Y019479D01*
X015862Y019512D01*
X015831Y019547D01*
X015803Y019584D01*
X015779Y019624D01*
X015758Y019666D01*
X015740Y019709D01*
X015727Y019754D01*
X015717Y019800D01*
X015711Y019846D01*
X015709Y019893D01*
X015709Y024893D02*
X015711Y024940D01*
X015717Y024986D01*
X015727Y025032D01*
X015740Y025077D01*
X015758Y025120D01*
X015779Y025162D01*
X015803Y025202D01*
X015831Y025239D01*
X015862Y025274D01*
X015896Y025307D01*
X015932Y025336D01*
X015971Y025362D01*
X016012Y025385D01*
X016055Y025404D01*
X016099Y025420D01*
X016144Y025432D01*
X016190Y025440D01*
X016237Y025444D01*
X016283Y025444D01*
X016330Y025440D01*
X016376Y025432D01*
X016421Y025420D01*
X016465Y025404D01*
X016508Y025385D01*
X016549Y025362D01*
X016588Y025336D01*
X016624Y025307D01*
X016658Y025274D01*
X016689Y025239D01*
X016717Y025202D01*
X016741Y025162D01*
X016762Y025120D01*
X016780Y025077D01*
X016793Y025032D01*
X016803Y024986D01*
X016809Y024940D01*
X016811Y024893D01*
X016809Y024846D01*
X016803Y024800D01*
X016793Y024754D01*
X016780Y024709D01*
X016762Y024666D01*
X016741Y024624D01*
X016717Y024584D01*
X016689Y024547D01*
X016658Y024512D01*
X016624Y024479D01*
X016588Y024450D01*
X016549Y024424D01*
X016508Y024401D01*
X016465Y024382D01*
X016421Y024366D01*
X016376Y024354D01*
X016330Y024346D01*
X016283Y024342D01*
X016237Y024342D01*
X016190Y024346D01*
X016144Y024354D01*
X016099Y024366D01*
X016055Y024382D01*
X016012Y024401D01*
X015971Y024424D01*
X015932Y024450D01*
X015896Y024479D01*
X015862Y024512D01*
X015831Y024547D01*
X015803Y024584D01*
X015779Y024624D01*
X015758Y024666D01*
X015740Y024709D01*
X015727Y024754D01*
X015717Y024800D01*
X015711Y024846D01*
X015709Y024893D01*
D11*
X014010Y024393D03*
X014010Y023393D03*
X014010Y025393D03*
X014010Y026393D03*
X014010Y028143D03*
X014010Y029143D03*
X014010Y030143D03*
X014010Y031143D03*
X014010Y032143D03*
X014010Y033143D03*
X014010Y034143D03*
X014010Y035143D03*
X014010Y036143D03*
X014010Y037143D03*
X014010Y038143D03*
X014010Y039143D03*
X014010Y040143D03*
X014010Y041143D03*
X015510Y040393D03*
X016510Y040393D03*
X017510Y040393D03*
X011010Y040143D03*
X011010Y039143D03*
X011010Y038143D03*
X011010Y037143D03*
X011010Y036143D03*
X011010Y035143D03*
X011010Y034143D03*
X011010Y033143D03*
X011010Y032143D03*
X011010Y031143D03*
X011010Y030143D03*
X011010Y029143D03*
X011010Y028143D03*
X011010Y026393D03*
X011010Y025393D03*
X011010Y024393D03*
X011010Y023393D03*
X012260Y020393D03*
X012510Y012143D03*
X013510Y012143D03*
X011510Y012143D03*
X011510Y007893D03*
X012510Y007893D03*
X013510Y007893D03*
X012260Y005393D03*
X011010Y041143D03*
D12*
X009760Y040393D03*
X007760Y041143D03*
X006760Y040393D03*
X005760Y041143D03*
X005510Y034893D03*
X005510Y031893D03*
X005510Y030643D03*
X005510Y027643D03*
X005510Y026643D03*
X006760Y025393D03*
X005510Y023643D03*
X004010Y027643D03*
X004010Y030643D03*
X009760Y025393D03*
X011010Y022393D03*
X011010Y021393D03*
X011010Y018393D03*
X011010Y017393D03*
X011010Y016393D03*
X011010Y015393D03*
X011010Y014393D03*
X011010Y013393D03*
X011010Y010393D03*
X011010Y009393D03*
X011010Y006643D03*
X010760Y005893D03*
X010760Y002893D03*
X013760Y002893D03*
X013760Y005893D03*
X014010Y006643D03*
X014010Y009393D03*
X014010Y010393D03*
X014010Y013393D03*
X014010Y014393D03*
X014010Y015393D03*
X014010Y016393D03*
X014010Y017393D03*
X014010Y018393D03*
X014010Y021393D03*
X014010Y022393D03*
X015260Y033143D03*
X015260Y035143D03*
X015510Y035893D03*
X016510Y035893D03*
X017510Y035893D03*
X017510Y038893D03*
X016510Y038893D03*
X015510Y038893D03*
X009260Y010393D03*
X006260Y010393D03*
D13*
X016260Y011224D03*
X016260Y012059D03*
X016260Y012956D03*
X016260Y016224D03*
X016260Y017059D03*
X016260Y017956D03*
X016260Y021224D03*
X016260Y022059D03*
X016260Y022728D03*
X016260Y023563D03*
X016260Y026830D03*
X016260Y007956D03*
X016260Y007059D03*
X016260Y006224D03*
X016260Y002956D03*
D14*
X009244Y004441D03*
X008260Y004441D03*
X007275Y004441D03*
X007275Y011941D03*
X008260Y011941D03*
X009244Y011941D03*
X009244Y019441D03*
X008260Y019441D03*
X007275Y019441D03*
X007275Y026941D03*
X008260Y026941D03*
X009244Y026941D03*
X009244Y034441D03*
X008260Y034441D03*
X007275Y034441D03*
D15*
X006488Y037393D03*
X006488Y029893D03*
X010031Y029893D03*
X010031Y037393D03*
X010031Y022393D03*
X006488Y022393D03*
X006488Y014893D03*
X010031Y014893D03*
X010031Y007393D03*
X006488Y007393D03*
D16*
X016260Y028043D03*
X016260Y029893D03*
X016260Y031743D03*
D17*
X010260Y033143D03*
X009260Y033143D03*
X008260Y033143D03*
D18*
X004260Y035893D03*
X004260Y036893D03*
X004260Y037893D03*
X004260Y038893D03*
X004260Y039893D03*
X004260Y040893D03*
X004010Y021393D03*
X004010Y019393D03*
X004010Y009893D03*
X004010Y007893D03*
X005260Y007893D03*
X005260Y009893D03*
X018260Y027393D03*
X018260Y028393D03*
X018260Y029393D03*
X018260Y030393D03*
X018260Y031393D03*
X018260Y032393D03*
D19*
X005260Y006893D03*
X004010Y006893D03*
X004010Y002893D03*
X005260Y002893D03*
X004010Y022643D03*
X004010Y026643D03*
D20*
X004010Y018143D03*
X004010Y017143D03*
X004010Y016143D03*
X004010Y015143D03*
X004010Y014143D03*
X004010Y013143D03*
X004010Y012143D03*
X004010Y011143D03*
X005010Y011143D03*
X005010Y012143D03*
X005010Y013143D03*
X005010Y014143D03*
X005010Y015143D03*
X005010Y016143D03*
X005010Y017143D03*
X005010Y018143D03*
D21*
X016760Y034643D03*
D22*
X016760Y033643D03*
D23*
X012260Y019393D03*
X012260Y004393D03*
D24*
X004260Y032893D03*
D25*
X004340Y032825D02*
X007930Y032825D01*
X007872Y032884D02*
X008000Y032755D01*
X008169Y032686D01*
X008351Y032686D01*
X008519Y032755D01*
X008647Y032884D01*
X008717Y033052D01*
X008717Y033234D01*
X008647Y033402D01*
X008519Y033531D01*
X008351Y033601D01*
X008169Y033601D01*
X008000Y033531D01*
X007872Y033402D01*
X007802Y033234D01*
X007802Y033052D01*
X007872Y032884D01*
X007830Y032984D02*
X005060Y032984D01*
X005060Y032973D02*
X005060Y033225D01*
X004591Y033693D01*
X004340Y033693D01*
X004340Y032973D01*
X005060Y032973D01*
X005060Y032813D02*
X004340Y032813D01*
X004340Y032973D01*
X004180Y032973D01*
X004180Y033693D01*
X003928Y033693D01*
X003578Y033343D01*
X003578Y041563D01*
X005529Y041563D01*
X005300Y041334D01*
X005300Y040953D01*
X005569Y040683D01*
X005950Y040683D01*
X006220Y040953D01*
X006220Y041334D01*
X005990Y041563D01*
X007529Y041563D01*
X007300Y041334D01*
X007300Y040953D01*
X007500Y040753D01*
X007500Y040501D01*
X007220Y040221D01*
X007220Y040584D01*
X006950Y040853D01*
X006569Y040853D01*
X006300Y040584D01*
X006300Y040203D01*
X006569Y039933D01*
X006932Y039933D01*
X006770Y039771D01*
X006684Y039771D01*
X006545Y039714D01*
X006439Y039607D01*
X006381Y039469D01*
X006381Y039318D01*
X006439Y039179D01*
X006545Y039073D01*
X006684Y039015D01*
X006835Y039015D01*
X006974Y039073D01*
X007080Y039179D01*
X007138Y039318D01*
X007138Y039404D01*
X007907Y040173D01*
X007980Y040246D01*
X008020Y040342D01*
X008020Y040753D01*
X008220Y040953D01*
X008220Y041334D01*
X007990Y041563D01*
X010822Y041563D01*
X010749Y041533D01*
X010620Y041404D01*
X010550Y041235D01*
X010550Y041052D01*
X010620Y040883D01*
X010749Y040753D01*
X010918Y040683D01*
X011101Y040683D01*
X011270Y040753D01*
X011399Y040883D01*
X011470Y041052D01*
X011470Y041235D01*
X011399Y041404D01*
X011270Y041533D01*
X011197Y041563D01*
X013822Y041563D01*
X013749Y041533D01*
X013620Y041404D01*
X013550Y041235D01*
X013550Y041052D01*
X013620Y040883D01*
X013749Y040753D01*
X013918Y040683D01*
X014101Y040683D01*
X014270Y040753D01*
X014399Y040883D01*
X014470Y041052D01*
X014470Y041235D01*
X014399Y041404D01*
X014270Y041533D01*
X014197Y041563D01*
X018685Y041563D01*
X018685Y032744D01*
X018679Y032752D01*
X018618Y032813D01*
X018548Y032864D01*
X018471Y032903D01*
X018388Y032930D01*
X018303Y032943D01*
X018280Y032943D01*
X018280Y032413D01*
X018240Y032413D01*
X018240Y032943D01*
X018216Y032943D01*
X018131Y032930D01*
X018048Y032903D01*
X017971Y032864D01*
X017901Y032813D01*
X017840Y032752D01*
X017789Y032682D01*
X017750Y032604D01*
X017723Y032522D01*
X017710Y032437D01*
X017710Y032413D01*
X018240Y032413D01*
X018240Y032373D01*
X017710Y032373D01*
X017710Y032350D01*
X017671Y032350D01*
X017710Y032350D02*
X017717Y032304D01*
X017230Y032791D01*
X017157Y032864D01*
X017061Y032903D01*
X015708Y032903D01*
X015643Y032877D01*
X015720Y032953D01*
X015720Y033334D01*
X015450Y033603D01*
X015069Y033603D01*
X014929Y033463D01*
X014340Y033463D01*
X014270Y033533D01*
X014101Y033603D01*
X013918Y033603D01*
X013749Y033533D01*
X013620Y033404D01*
X013550Y033235D01*
X013550Y033052D01*
X013620Y032883D01*
X013749Y032753D01*
X013918Y032683D01*
X014101Y032683D01*
X014270Y032753D01*
X014340Y032823D01*
X014929Y032823D01*
X015069Y032683D01*
X015432Y032683D01*
X015402Y032653D01*
X014208Y032653D01*
X014112Y032614D01*
X014102Y032603D01*
X014101Y032603D01*
X013918Y032603D01*
X013749Y032533D01*
X013620Y032404D01*
X013550Y032235D01*
X013550Y032052D01*
X013611Y031903D01*
X013034Y031903D01*
X012974Y031964D01*
X012835Y032021D01*
X012684Y032021D01*
X012545Y031964D01*
X012439Y031857D01*
X012381Y031719D01*
X012381Y031568D01*
X012414Y031488D01*
X012335Y031521D01*
X012184Y031521D01*
X012045Y031464D01*
X011939Y031357D01*
X011881Y031219D01*
X011881Y031068D01*
X011939Y030929D01*
X012045Y030823D01*
X012184Y030765D01*
X012335Y030765D01*
X012474Y030823D01*
X012534Y030883D01*
X013619Y030883D01*
X013620Y030883D01*
X013749Y030753D01*
X013918Y030683D01*
X014101Y030683D01*
X014270Y030753D01*
X014399Y030883D01*
X014400Y030883D01*
X015402Y030883D01*
X015612Y030673D01*
X015708Y030633D01*
X015850Y030633D01*
X015446Y030230D01*
X015446Y029973D01*
X016180Y029973D01*
X016180Y029813D01*
X015446Y029813D01*
X015446Y029725D01*
X015335Y029771D01*
X015249Y029771D01*
X015230Y029791D01*
X015157Y029864D01*
X015061Y029903D01*
X014617Y029903D01*
X014469Y030051D01*
X014470Y030052D01*
X014470Y030235D01*
X014399Y030404D01*
X014270Y030533D01*
X014101Y030603D01*
X013918Y030603D01*
X013749Y030533D01*
X013620Y030404D01*
X013550Y030235D01*
X013550Y030052D01*
X013620Y029883D01*
X013749Y029753D01*
X013918Y029683D01*
X014101Y029683D01*
X014102Y029684D01*
X014239Y029546D01*
X014101Y029603D01*
X013918Y029603D01*
X013749Y029533D01*
X013620Y029404D01*
X013550Y029235D01*
X013550Y029052D01*
X013611Y028903D01*
X011408Y028903D01*
X011470Y029052D01*
X011470Y029235D01*
X011399Y029404D01*
X011270Y029533D01*
X011101Y029603D01*
X010918Y029603D01*
X010769Y029542D01*
X010802Y029574D01*
X010802Y029731D01*
X010918Y029683D01*
X011101Y029683D01*
X011270Y029753D01*
X011399Y029883D01*
X011400Y029883D01*
X012485Y029883D01*
X012545Y029823D01*
X012684Y029765D01*
X012835Y029765D01*
X012974Y029823D01*
X013080Y029929D01*
X013138Y030068D01*
X013138Y030219D01*
X013080Y030357D01*
X012974Y030464D01*
X012835Y030521D01*
X012684Y030521D01*
X012545Y030464D01*
X012485Y030403D01*
X011400Y030403D01*
X011399Y030404D01*
X011270Y030533D01*
X011101Y030603D01*
X010918Y030603D01*
X010749Y030533D01*
X010620Y030404D01*
X010617Y030397D01*
X010350Y030664D01*
X010111Y030664D01*
X010111Y029973D01*
X009951Y029973D01*
X009951Y029813D01*
X010111Y029813D01*
X010111Y029123D01*
X010350Y029123D01*
X010611Y029384D01*
X010550Y029235D01*
X010550Y029052D01*
X010611Y028903D01*
X010284Y028903D01*
X010224Y028964D01*
X010085Y029021D01*
X010562Y029021D01*
X010550Y029180D02*
X010407Y029180D01*
X010566Y029338D02*
X010592Y029338D01*
X010802Y029655D02*
X014130Y029655D01*
X013713Y029497D02*
X011307Y029497D01*
X011427Y029338D02*
X013592Y029338D01*
X013550Y029180D02*
X011470Y029180D01*
X011457Y029021D02*
X013562Y029021D01*
X013611Y028383D02*
X013550Y028235D01*
X013550Y028052D01*
X013620Y027883D01*
X013749Y027753D01*
X013918Y027683D01*
X014101Y027683D01*
X014270Y027753D01*
X014399Y027883D01*
X014470Y028052D01*
X014470Y028235D01*
X014408Y028383D01*
X014811Y028383D01*
X014907Y028423D01*
X014980Y028496D01*
X015117Y028633D01*
X015671Y028633D01*
X015426Y028388D01*
X015426Y027698D01*
X015914Y027210D01*
X015937Y027210D01*
X015838Y027112D01*
X015763Y026929D01*
X015763Y026731D01*
X015838Y026549D01*
X015978Y026409D01*
X016161Y026333D01*
X016358Y026333D01*
X016541Y026409D01*
X016681Y026549D01*
X016756Y026731D01*
X016756Y026929D01*
X016681Y027112D01*
X016582Y027210D01*
X016605Y027210D01*
X017093Y027698D01*
X017093Y028388D01*
X016848Y028633D01*
X017152Y028633D01*
X017612Y028173D01*
X017708Y028133D01*
X017750Y028133D01*
X017776Y028070D01*
X017093Y028070D01*
X017093Y027912D02*
X017935Y027912D01*
X017937Y027910D02*
X017977Y027893D01*
X017937Y027877D01*
X017776Y027716D01*
X017690Y027507D01*
X017690Y027280D01*
X017776Y027070D01*
X017937Y026910D01*
X018146Y026823D01*
X018373Y026823D01*
X018582Y026910D01*
X018685Y027012D01*
X018685Y002593D01*
X016599Y002593D01*
X016681Y002675D01*
X016756Y002857D01*
X016756Y003055D01*
X016681Y003238D01*
X016541Y003378D01*
X016358Y003453D01*
X016161Y003453D01*
X015978Y003378D01*
X015838Y003238D01*
X015763Y003055D01*
X015763Y002857D01*
X015838Y002675D01*
X015920Y002593D01*
X014110Y002593D01*
X014220Y002703D01*
X014220Y003084D01*
X013950Y003353D01*
X013569Y003353D01*
X013300Y003084D01*
X013300Y002703D01*
X013409Y002593D01*
X011110Y002593D01*
X011220Y002703D01*
X011220Y003084D01*
X010950Y003353D01*
X010569Y003353D01*
X010300Y003084D01*
X010300Y002703D01*
X010409Y002593D01*
X005746Y002593D01*
X005747Y002595D01*
X005788Y002675D01*
X005815Y002760D01*
X005830Y002848D01*
X005830Y002875D01*
X005278Y002875D01*
X005278Y002912D01*
X005241Y002912D01*
X005241Y003463D01*
X005215Y003463D01*
X005126Y003449D01*
X005041Y003422D01*
X004961Y003381D01*
X004888Y003328D01*
X004825Y003265D01*
X004772Y003192D01*
X004731Y003112D01*
X004704Y003027D01*
X004565Y003027D01*
X004538Y003112D01*
X004497Y003192D01*
X004444Y003265D01*
X004381Y003328D01*
X004308Y003381D01*
X004228Y003422D01*
X004143Y003449D01*
X004054Y003463D01*
X004028Y003463D01*
X004028Y002912D01*
X003991Y002912D01*
X003991Y003463D01*
X003965Y003463D01*
X003876Y003449D01*
X003791Y003422D01*
X003711Y003381D01*
X003638Y003328D01*
X003578Y003268D01*
X003578Y006491D01*
X003675Y006393D01*
X003892Y006303D01*
X004127Y006303D01*
X004344Y006393D01*
X004510Y006559D01*
X004600Y006776D01*
X004600Y007011D01*
X004510Y007228D01*
X004344Y007393D01*
X004318Y007404D01*
X004332Y007410D01*
X004493Y007570D01*
X004580Y007780D01*
X004580Y008007D01*
X004493Y008216D01*
X004332Y008377D01*
X004123Y008463D01*
X003896Y008463D01*
X003687Y008377D01*
X003578Y008268D01*
X003578Y009519D01*
X003687Y009410D01*
X003896Y009323D01*
X004123Y009323D01*
X004332Y009410D01*
X004493Y009570D01*
X004580Y009780D01*
X004580Y010007D01*
X004493Y010216D01*
X004332Y010377D01*
X004123Y010463D01*
X003896Y010463D01*
X003687Y010377D01*
X003578Y010268D01*
X003578Y010769D01*
X003773Y010573D01*
X004246Y010573D01*
X004510Y010837D01*
X004773Y010573D01*
X005246Y010573D01*
X005580Y010907D01*
X005580Y011379D01*
X005301Y011657D01*
X005560Y011915D01*
X005560Y012123D01*
X005030Y012123D01*
X005030Y012163D01*
X005560Y012163D01*
X005560Y012371D01*
X005287Y012643D01*
X005560Y012915D01*
X005560Y013123D01*
X005030Y013123D01*
X005030Y013163D01*
X005560Y013163D01*
X005560Y013371D01*
X005287Y013643D01*
X005560Y013915D01*
X005560Y014123D01*
X005030Y014123D01*
X005030Y014163D01*
X005560Y014163D01*
X005560Y014371D01*
X005301Y014629D01*
X005580Y014907D01*
X005580Y015379D01*
X005316Y015643D01*
X005580Y015907D01*
X005580Y016379D01*
X005316Y016643D01*
X005580Y016907D01*
X005580Y017379D01*
X005316Y017643D01*
X005580Y017907D01*
X005580Y018379D01*
X005246Y018713D01*
X004773Y018713D01*
X004510Y018449D01*
X004246Y018713D01*
X003773Y018713D01*
X003578Y018518D01*
X003578Y019019D01*
X003687Y018910D01*
X003896Y018823D01*
X004123Y018823D01*
X004332Y018910D01*
X004493Y019070D01*
X004580Y019280D01*
X004580Y019507D01*
X004493Y019716D01*
X004332Y019877D01*
X004123Y019963D01*
X003896Y019963D01*
X003687Y019877D01*
X003578Y019768D01*
X003578Y021019D01*
X003687Y020910D01*
X003863Y020837D01*
X006238Y018462D01*
X006328Y018372D01*
X006446Y018323D01*
X009627Y018323D01*
X010550Y017401D01*
X010550Y017203D01*
X010819Y016933D01*
X011200Y016933D01*
X011470Y017203D01*
X011470Y017584D01*
X011200Y017853D01*
X011002Y017853D01*
X010902Y017953D01*
X011010Y017953D01*
X011192Y017953D01*
X011450Y018211D01*
X011450Y018393D01*
X011010Y018393D01*
X011010Y018393D01*
X011010Y017953D01*
X011010Y018393D01*
X011010Y018393D01*
X011450Y018393D01*
X011450Y018576D01*
X011192Y018833D01*
X011010Y018833D01*
X011010Y018393D01*
X011010Y018393D01*
X010570Y018393D01*
X010570Y018286D01*
X009941Y018915D01*
X009823Y018963D01*
X009587Y018963D01*
X009735Y019112D01*
X009824Y019325D01*
X009824Y019556D01*
X009735Y019769D01*
X009621Y019883D01*
X010235Y019883D01*
X010295Y019823D01*
X010434Y019765D01*
X010585Y019765D01*
X010724Y019823D01*
X010830Y019929D01*
X010888Y020068D01*
X010888Y020219D01*
X010830Y020357D01*
X010724Y020464D01*
X010585Y020521D01*
X010434Y020521D01*
X010295Y020464D01*
X010235Y020403D01*
X009034Y020403D01*
X008974Y020464D01*
X008835Y020521D01*
X008684Y020521D01*
X008545Y020464D01*
X008439Y020357D01*
X008381Y020219D01*
X008381Y020068D01*
X008407Y020007D01*
X008375Y020021D01*
X008144Y020021D01*
X007931Y019932D01*
X007768Y019769D01*
X007754Y019735D01*
X007702Y019805D01*
X007640Y019868D01*
X007569Y019920D01*
X007490Y019960D01*
X007406Y019987D01*
X008063Y019987D01*
X007827Y019828D02*
X007679Y019828D01*
X007406Y019987D02*
X007319Y020001D01*
X007294Y020001D01*
X007294Y019459D01*
X007257Y019459D01*
X007257Y020001D01*
X007231Y020001D01*
X007144Y019987D01*
X007060Y019960D01*
X006982Y019920D01*
X006910Y019868D01*
X006848Y019805D01*
X006796Y019734D01*
X006756Y019656D01*
X006729Y019572D01*
X006715Y019485D01*
X006715Y019459D01*
X007257Y019459D01*
X007257Y019422D01*
X006715Y019422D01*
X006715Y019396D01*
X006729Y019309D01*
X006756Y019226D01*
X006796Y019147D01*
X006848Y019076D01*
X006910Y019013D01*
X006979Y018963D01*
X006642Y018963D01*
X004505Y021100D01*
X004580Y021280D01*
X004580Y021507D01*
X004493Y021716D01*
X004332Y021877D01*
X004123Y021963D01*
X003896Y021963D01*
X003687Y021877D01*
X003578Y021768D01*
X003578Y022241D01*
X003675Y022143D01*
X003892Y022053D01*
X004127Y022053D01*
X004344Y022143D01*
X004510Y022309D01*
X004600Y022526D01*
X004600Y022761D01*
X004510Y022978D01*
X004344Y023143D01*
X004127Y023233D01*
X003892Y023233D01*
X003675Y023143D01*
X003578Y023046D01*
X003578Y026269D01*
X003638Y026209D01*
X003711Y026156D01*
X003791Y026115D01*
X003876Y026087D01*
X003965Y026073D01*
X003991Y026073D01*
X003991Y026625D01*
X004028Y026625D01*
X004028Y026662D01*
X004580Y026662D01*
X004580Y026688D01*
X004565Y026777D01*
X004538Y026862D01*
X004497Y026942D01*
X004444Y027015D01*
X004381Y027078D01*
X004308Y027131D01*
X004228Y027172D01*
X004192Y027183D01*
X004200Y027183D01*
X004400Y027383D01*
X005119Y027383D01*
X005319Y027183D01*
X005700Y027183D01*
X005970Y027453D01*
X005970Y027834D01*
X005700Y028103D01*
X005319Y028103D01*
X005119Y027903D01*
X004400Y027903D01*
X004200Y028103D01*
X003819Y028103D01*
X003578Y027862D01*
X003578Y030425D01*
X003819Y030183D01*
X004200Y030183D01*
X004470Y030453D01*
X004470Y030834D01*
X004200Y031103D01*
X003819Y031103D01*
X003578Y030862D01*
X003578Y032444D01*
X003928Y032093D01*
X004180Y032093D01*
X004180Y032813D01*
X004340Y032813D01*
X004340Y032093D01*
X004591Y032093D01*
X005060Y032562D01*
X005060Y032813D01*
X005060Y032667D02*
X015415Y032667D01*
X015720Y032984D02*
X018685Y032984D01*
X018685Y033142D02*
X016896Y033142D01*
X016862Y033128D02*
X017051Y033207D01*
X017196Y033352D01*
X017275Y033541D01*
X017275Y033746D01*
X017196Y033935D01*
X017051Y034080D01*
X016886Y034148D01*
X016965Y034148D01*
X017255Y034438D01*
X017255Y034643D01*
X016760Y034643D01*
X016760Y034643D01*
X017255Y034643D01*
X017255Y034848D01*
X016965Y035138D01*
X016760Y035138D01*
X016760Y034643D01*
X016760Y034643D01*
X016265Y034643D01*
X016265Y034438D01*
X016554Y034148D01*
X016633Y034148D01*
X016468Y034080D01*
X016323Y033935D01*
X016245Y033746D01*
X016245Y033541D01*
X016323Y033352D01*
X016468Y033207D01*
X016657Y033128D01*
X016862Y033128D01*
X016623Y033142D02*
X015720Y033142D01*
X015720Y033301D02*
X016374Y033301D01*
X016278Y033459D02*
X015594Y033459D01*
X016245Y033618D02*
X004666Y033618D01*
X004825Y033459D02*
X007929Y033459D01*
X007830Y033301D02*
X004983Y033301D01*
X005060Y033142D02*
X007802Y033142D01*
X008144Y033861D02*
X007931Y033949D01*
X007768Y034112D01*
X007754Y034146D01*
X007702Y034076D01*
X007640Y034013D01*
X007569Y033962D01*
X007490Y033922D01*
X007406Y033894D01*
X007319Y033881D01*
X007294Y033881D01*
X007294Y034422D01*
X007257Y034422D01*
X007257Y033881D01*
X007231Y033881D01*
X007144Y033894D01*
X007060Y033922D01*
X006982Y033962D01*
X006910Y034013D01*
X006848Y034076D01*
X006796Y034147D01*
X006756Y034226D01*
X006729Y034309D01*
X006715Y034396D01*
X006715Y034422D01*
X007257Y034422D01*
X007257Y034459D01*
X007257Y035001D01*
X007231Y035001D01*
X007144Y034987D01*
X007060Y034960D01*
X006982Y034920D01*
X006910Y034868D01*
X006848Y034805D01*
X006796Y034734D01*
X006756Y034656D01*
X006729Y034572D01*
X006715Y034485D01*
X006715Y034459D01*
X007257Y034459D01*
X007294Y034459D01*
X007294Y035001D01*
X007319Y035001D01*
X007406Y034987D01*
X007490Y034960D01*
X007569Y034920D01*
X007640Y034868D01*
X007702Y034805D01*
X007754Y034735D01*
X007768Y034769D01*
X007931Y034932D01*
X008144Y035021D01*
X008375Y035021D01*
X008443Y034992D01*
X008815Y035364D01*
X008911Y035403D01*
X009402Y035403D01*
X009862Y035864D01*
X009958Y035903D01*
X010611Y035903D01*
X010550Y036052D01*
X010550Y036133D01*
X009367Y036133D01*
X008480Y035246D01*
X008480Y035246D01*
X008407Y035173D01*
X008311Y035133D01*
X006117Y035133D01*
X005970Y034986D01*
X005970Y034703D01*
X005700Y034433D01*
X005319Y034433D01*
X005050Y034703D01*
X005050Y035084D01*
X005319Y035353D01*
X005602Y035353D01*
X005789Y035541D01*
X005862Y035614D01*
X005958Y035653D01*
X008152Y035653D01*
X009039Y036541D01*
X009112Y036614D01*
X009208Y036653D01*
X009681Y036653D01*
X009261Y037074D01*
X009261Y037313D01*
X009951Y037313D01*
X009951Y037473D01*
X009261Y037473D01*
X009261Y037712D01*
X009681Y038133D01*
X006838Y038133D01*
X007258Y037712D01*
X007258Y037473D01*
X006568Y037473D01*
X006568Y037313D01*
X006568Y036623D01*
X006807Y036623D01*
X007258Y037074D01*
X007258Y037313D01*
X006568Y037313D01*
X006408Y037313D01*
X006408Y036623D01*
X006169Y036623D01*
X005717Y037074D01*
X005717Y037313D01*
X006408Y037313D01*
X006408Y037473D01*
X005717Y037473D01*
X005717Y037712D01*
X006138Y038133D01*
X005867Y038133D01*
X004803Y037070D01*
X004830Y037007D01*
X004830Y036780D01*
X004743Y036570D01*
X004582Y036410D01*
X004542Y036393D01*
X004582Y036377D01*
X004743Y036216D01*
X004830Y036007D01*
X004830Y035780D01*
X004743Y035570D01*
X004582Y035410D01*
X004373Y035323D01*
X004146Y035323D01*
X003937Y035410D01*
X003776Y035570D01*
X003690Y035780D01*
X003690Y036007D01*
X003776Y036216D01*
X003937Y036377D01*
X003977Y036393D01*
X003937Y036410D01*
X003776Y036570D01*
X003690Y036780D01*
X003690Y037007D01*
X003776Y037216D01*
X003937Y037377D01*
X003977Y037393D01*
X003937Y037410D01*
X003776Y037570D01*
X003690Y037780D01*
X003690Y038007D01*
X003776Y038216D01*
X003937Y038377D01*
X003977Y038393D01*
X003937Y038410D01*
X003776Y038570D01*
X003690Y038780D01*
X003690Y039007D01*
X003578Y039007D01*
X003690Y039007D02*
X003776Y039216D01*
X003937Y039377D01*
X004006Y039405D01*
X003971Y039423D01*
X003901Y039474D01*
X003840Y039535D01*
X003789Y039605D01*
X003750Y039682D01*
X003723Y039765D01*
X003710Y039850D01*
X003710Y039873D01*
X004240Y039873D01*
X004240Y039913D01*
X004240Y040443D01*
X004240Y040873D01*
X004280Y040873D01*
X004280Y040913D01*
X004810Y040913D01*
X004810Y040937D01*
X004796Y041022D01*
X004769Y041104D01*
X004730Y041182D01*
X004679Y041252D01*
X004618Y041313D01*
X004548Y041364D01*
X004471Y041403D01*
X004388Y041430D01*
X004303Y041443D01*
X004280Y041443D01*
X004280Y040913D01*
X004240Y040913D01*
X004240Y041443D01*
X004216Y041443D01*
X004131Y041430D01*
X004048Y041403D01*
X003971Y041364D01*
X003901Y041313D01*
X003840Y041252D01*
X003789Y041182D01*
X003750Y041104D01*
X003723Y041022D01*
X003710Y040937D01*
X003710Y040913D01*
X004240Y040913D01*
X004240Y040873D01*
X003710Y040873D01*
X003710Y040850D01*
X003723Y040765D01*
X003750Y040682D01*
X003789Y040605D01*
X003840Y040535D01*
X003901Y040474D01*
X003971Y040423D01*
X004029Y040393D01*
X003971Y040364D01*
X003901Y040313D01*
X003840Y040252D01*
X003789Y040182D01*
X003750Y040104D01*
X003723Y040022D01*
X003710Y039937D01*
X003710Y039913D01*
X004240Y039913D01*
X004280Y039913D01*
X004810Y039913D01*
X004810Y039937D01*
X004796Y040022D01*
X004769Y040104D01*
X004730Y040182D01*
X004679Y040252D01*
X004618Y040313D01*
X004548Y040364D01*
X004490Y040393D01*
X004548Y040423D01*
X004618Y040474D01*
X004679Y040535D01*
X004730Y040605D01*
X004769Y040682D01*
X004796Y040765D01*
X004810Y040850D01*
X004810Y040873D01*
X004280Y040873D01*
X004280Y039913D01*
X004280Y039873D01*
X004810Y039873D01*
X004810Y039850D01*
X004796Y039765D01*
X004769Y039682D01*
X004730Y039605D01*
X004679Y039535D01*
X004618Y039474D01*
X004548Y039423D01*
X004513Y039405D01*
X004582Y039377D01*
X004743Y039216D01*
X004830Y039007D01*
X004829Y039007D02*
X009005Y039007D01*
X008902Y038903D02*
X005458Y038903D01*
X005362Y038864D01*
X004729Y038230D01*
X004582Y038377D01*
X004542Y038393D01*
X004582Y038410D01*
X004743Y038570D01*
X004830Y038780D01*
X004830Y039007D01*
X004830Y038848D02*
X005347Y038848D01*
X005188Y038690D02*
X004792Y038690D01*
X004704Y038531D02*
X005030Y038531D01*
X004871Y038373D02*
X004586Y038373D01*
X004764Y039165D02*
X006453Y039165D01*
X006381Y039324D02*
X004635Y039324D01*
X004626Y039482D02*
X006387Y039482D01*
X006472Y039641D02*
X004748Y039641D01*
X004801Y039799D02*
X006798Y039799D01*
X006544Y039958D02*
X004806Y039958D01*
X004763Y040116D02*
X006386Y040116D01*
X006300Y040275D02*
X004656Y040275D01*
X004562Y040433D02*
X006300Y040433D01*
X006308Y040592D02*
X004720Y040592D01*
X004791Y040750D02*
X005502Y040750D01*
X005343Y040909D02*
X004280Y040909D01*
X004240Y040909D02*
X003578Y040909D01*
X003578Y041067D02*
X003738Y041067D01*
X003821Y041226D02*
X003578Y041226D01*
X003578Y041384D02*
X004012Y041384D01*
X004240Y041384D02*
X004280Y041384D01*
X004280Y041226D02*
X004240Y041226D01*
X004240Y041067D02*
X004280Y041067D01*
X004280Y040750D02*
X004240Y040750D01*
X004240Y040592D02*
X004280Y040592D01*
X004280Y040433D02*
X004240Y040433D01*
X004240Y040275D02*
X004280Y040275D01*
X004280Y040116D02*
X004240Y040116D01*
X004240Y039958D02*
X004280Y039958D01*
X003957Y040433D02*
X003578Y040433D01*
X003578Y040275D02*
X003863Y040275D01*
X003756Y040116D02*
X003578Y040116D01*
X003578Y039958D02*
X003713Y039958D01*
X003718Y039799D02*
X003578Y039799D01*
X003578Y039641D02*
X003771Y039641D01*
X003893Y039482D02*
X003578Y039482D01*
X003578Y039324D02*
X003884Y039324D01*
X003755Y039165D02*
X003578Y039165D01*
X003578Y038848D02*
X003690Y038848D01*
X003727Y038690D02*
X003578Y038690D01*
X003578Y038531D02*
X003815Y038531D01*
X003933Y038373D02*
X003578Y038373D01*
X003578Y038214D02*
X003776Y038214D01*
X003710Y038056D02*
X003578Y038056D01*
X003578Y037897D02*
X003690Y037897D01*
X003707Y037739D02*
X003578Y037739D01*
X003578Y037580D02*
X003772Y037580D01*
X003925Y037422D02*
X003578Y037422D01*
X003578Y037263D02*
X003823Y037263D01*
X003730Y037105D02*
X003578Y037105D01*
X003578Y036946D02*
X003690Y036946D01*
X003690Y036788D02*
X003578Y036788D01*
X003578Y036629D02*
X003752Y036629D01*
X003876Y036471D02*
X003578Y036471D01*
X003578Y036312D02*
X003872Y036312D01*
X003750Y036154D02*
X003578Y036154D01*
X003578Y035995D02*
X003690Y035995D01*
X003690Y035837D02*
X003578Y035837D01*
X003578Y035678D02*
X003732Y035678D01*
X003827Y035520D02*
X003578Y035520D01*
X003578Y035361D02*
X004054Y035361D01*
X004465Y035361D02*
X005610Y035361D01*
X005768Y035520D02*
X004692Y035520D01*
X004787Y035678D02*
X008177Y035678D01*
X008335Y035837D02*
X004830Y035837D01*
X004830Y035995D02*
X008494Y035995D01*
X008652Y036154D02*
X004769Y036154D01*
X004647Y036312D02*
X008811Y036312D01*
X008969Y036471D02*
X004643Y036471D01*
X004767Y036629D02*
X006162Y036629D01*
X006004Y036788D02*
X004830Y036788D01*
X004830Y036946D02*
X005845Y036946D01*
X005717Y037105D02*
X004839Y037105D01*
X004997Y037263D02*
X005717Y037263D01*
X005717Y037580D02*
X005314Y037580D01*
X005156Y037422D02*
X006408Y037422D01*
X006408Y037263D02*
X006568Y037263D01*
X006568Y037105D02*
X006408Y037105D01*
X006408Y036946D02*
X006568Y036946D01*
X006568Y036788D02*
X006408Y036788D01*
X006408Y036629D02*
X006568Y036629D01*
X006568Y037422D02*
X009951Y037422D01*
X009951Y037473D02*
X009951Y038164D01*
X009885Y038164D01*
X009907Y038173D01*
X009980Y038246D01*
X010617Y038883D01*
X010619Y038883D01*
X010620Y038883D01*
X010749Y038753D01*
X010918Y038683D01*
X011101Y038683D01*
X011270Y038753D01*
X011399Y038883D01*
X011470Y039052D01*
X011470Y039235D01*
X011399Y039404D01*
X011270Y039533D01*
X011101Y039603D01*
X010918Y039603D01*
X010749Y039533D01*
X010620Y039404D01*
X010619Y039403D01*
X010458Y039403D01*
X010362Y039364D01*
X009652Y038653D01*
X009387Y038653D01*
X010617Y039883D01*
X010619Y039883D01*
X010620Y039883D01*
X010749Y039753D01*
X010918Y039683D01*
X011101Y039683D01*
X011270Y039753D01*
X011399Y039883D01*
X011470Y040052D01*
X011470Y040235D01*
X011399Y040404D01*
X011270Y040533D01*
X011101Y040603D01*
X010918Y040603D01*
X010749Y040533D01*
X010620Y040404D01*
X010619Y040403D01*
X010458Y040403D01*
X010362Y040364D01*
X010220Y040221D01*
X010220Y040584D01*
X009950Y040853D01*
X009569Y040853D01*
X009300Y040584D01*
X009300Y040203D01*
X009569Y039933D01*
X009932Y039933D01*
X008902Y038903D01*
X009164Y039165D02*
X007066Y039165D01*
X007138Y039324D02*
X009322Y039324D01*
X009481Y039482D02*
X007216Y039482D01*
X007375Y039641D02*
X009639Y039641D01*
X009798Y039799D02*
X007533Y039799D01*
X007692Y039958D02*
X009544Y039958D01*
X009386Y040116D02*
X007850Y040116D01*
X007992Y040275D02*
X009300Y040275D01*
X009300Y040433D02*
X008020Y040433D01*
X008020Y040592D02*
X009308Y040592D01*
X009466Y040750D02*
X008020Y040750D01*
X008176Y040909D02*
X010609Y040909D01*
X010550Y041067D02*
X008220Y041067D01*
X008220Y041226D02*
X010550Y041226D01*
X010611Y041384D02*
X008169Y041384D01*
X008010Y041543D02*
X010772Y041543D01*
X011247Y041543D02*
X013772Y041543D01*
X013611Y041384D02*
X011408Y041384D01*
X011470Y041226D02*
X013550Y041226D01*
X013550Y041067D02*
X011470Y041067D01*
X011410Y040909D02*
X013609Y040909D01*
X013756Y040750D02*
X011263Y040750D01*
X011129Y040592D02*
X013890Y040592D01*
X013918Y040603D02*
X013749Y040533D01*
X013620Y040404D01*
X013550Y040235D01*
X013550Y040052D01*
X013620Y039883D01*
X013749Y039753D01*
X013918Y039683D01*
X014101Y039683D01*
X014270Y039753D01*
X014399Y039883D01*
X014470Y040052D01*
X014470Y040235D01*
X014399Y040404D01*
X014270Y040533D01*
X014101Y040603D01*
X013918Y040603D01*
X014129Y040592D02*
X015094Y040592D01*
X015120Y040654D02*
X015050Y040485D01*
X015050Y040302D01*
X015120Y040133D01*
X015249Y040003D01*
X015418Y039933D01*
X015601Y039933D01*
X015770Y040003D01*
X015899Y040133D01*
X015970Y040302D01*
X015970Y040485D01*
X015899Y040654D01*
X015770Y040783D01*
X015601Y040853D01*
X015418Y040853D01*
X015249Y040783D01*
X015120Y040654D01*
X015216Y040750D02*
X014263Y040750D01*
X014410Y040909D02*
X018685Y040909D01*
X018685Y041067D02*
X014470Y041067D01*
X014470Y041226D02*
X018685Y041226D01*
X018685Y041384D02*
X014408Y041384D01*
X014247Y041543D02*
X018685Y041543D01*
X018685Y040750D02*
X017767Y040750D01*
X017740Y040770D02*
X017678Y040801D01*
X017613Y040822D01*
X017544Y040833D01*
X017510Y040833D01*
X017510Y040393D01*
X017510Y040393D01*
X017950Y040393D01*
X017950Y040359D01*
X017939Y040290D01*
X017917Y040224D01*
X017886Y040163D01*
X017845Y040107D01*
X017796Y040058D01*
X017740Y040017D01*
X017678Y039986D01*
X017613Y039964D01*
X017544Y039953D01*
X017510Y039953D01*
X017510Y040393D01*
X017510Y040393D01*
X017950Y040393D01*
X017950Y040428D01*
X017939Y040496D01*
X017917Y040562D01*
X017886Y040624D01*
X017845Y040680D01*
X017796Y040729D01*
X017740Y040770D01*
X017510Y040750D02*
X017510Y040750D01*
X017510Y040833D02*
X017510Y040393D01*
X017510Y039953D01*
X017475Y039953D01*
X017406Y039964D01*
X017341Y039986D01*
X017279Y040017D01*
X017223Y040058D01*
X017174Y040107D01*
X017133Y040163D01*
X017102Y040224D01*
X017080Y040290D01*
X017070Y040359D01*
X017070Y040393D01*
X017510Y040393D01*
X017510Y040393D01*
X017510Y040393D01*
X017070Y040393D01*
X017070Y040428D01*
X017080Y040496D01*
X017102Y040562D01*
X017133Y040624D01*
X017174Y040680D01*
X017223Y040729D01*
X017279Y040770D01*
X017341Y040801D01*
X017406Y040822D01*
X017475Y040833D01*
X017510Y040833D01*
X017510Y040592D02*
X017510Y040592D01*
X017510Y040433D02*
X017510Y040433D01*
X017510Y040275D02*
X017510Y040275D01*
X017510Y040116D02*
X017510Y040116D01*
X017510Y039958D02*
X017510Y039958D01*
X017573Y039958D02*
X018685Y039958D01*
X018685Y040116D02*
X017852Y040116D01*
X017934Y040275D02*
X018685Y040275D01*
X018685Y040433D02*
X017949Y040433D01*
X017902Y040592D02*
X018685Y040592D01*
X018685Y039799D02*
X014316Y039799D01*
X014431Y039958D02*
X015359Y039958D01*
X015660Y039958D02*
X016359Y039958D01*
X016418Y039933D02*
X016601Y039933D01*
X016770Y040003D01*
X016899Y040133D01*
X016970Y040302D01*
X016970Y040485D01*
X016899Y040654D01*
X016770Y040783D01*
X016601Y040853D01*
X016418Y040853D01*
X016249Y040783D01*
X016120Y040654D01*
X016050Y040485D01*
X016050Y040302D01*
X016120Y040133D01*
X016249Y040003D01*
X016418Y039933D01*
X016660Y039958D02*
X017446Y039958D01*
X017167Y040116D02*
X016883Y040116D01*
X016958Y040275D02*
X017085Y040275D01*
X017070Y040433D02*
X016970Y040433D01*
X016925Y040592D02*
X017117Y040592D01*
X017252Y040750D02*
X016803Y040750D01*
X016216Y040750D02*
X015803Y040750D01*
X015925Y040592D02*
X016094Y040592D01*
X016050Y040433D02*
X015970Y040433D01*
X015958Y040275D02*
X016061Y040275D01*
X016136Y040116D02*
X015883Y040116D01*
X015700Y039353D02*
X015319Y039353D01*
X015050Y039084D01*
X015050Y038703D01*
X015319Y038433D01*
X015700Y038433D01*
X015970Y038703D01*
X015970Y039084D01*
X015700Y039353D01*
X015729Y039324D02*
X016290Y039324D01*
X016319Y039353D02*
X016050Y039084D01*
X016050Y038703D01*
X016319Y038433D01*
X016700Y038433D01*
X016970Y038703D01*
X016970Y039084D01*
X016700Y039353D01*
X016319Y039353D01*
X016131Y039165D02*
X015888Y039165D01*
X015970Y039007D02*
X016050Y039007D01*
X016050Y038848D02*
X015970Y038848D01*
X015957Y038690D02*
X016062Y038690D01*
X016221Y038531D02*
X015798Y038531D01*
X015221Y038531D02*
X014272Y038531D01*
X014270Y038533D02*
X014101Y038603D01*
X013918Y038603D01*
X013749Y038533D01*
X013620Y038404D01*
X013550Y038235D01*
X013550Y038052D01*
X013620Y037883D01*
X013749Y037753D01*
X013918Y037683D01*
X014101Y037683D01*
X014270Y037753D01*
X014399Y037883D01*
X014470Y038052D01*
X014470Y038235D01*
X014399Y038404D01*
X014270Y038533D01*
X014412Y038373D02*
X018685Y038373D01*
X018685Y038531D02*
X017798Y038531D01*
X017700Y038433D02*
X017970Y038703D01*
X017970Y039084D01*
X017700Y039353D01*
X017319Y039353D01*
X017050Y039084D01*
X017050Y038703D01*
X017319Y038433D01*
X017700Y038433D01*
X017957Y038690D02*
X018685Y038690D01*
X018685Y038848D02*
X017970Y038848D01*
X017970Y039007D02*
X018685Y039007D01*
X018685Y039165D02*
X017888Y039165D01*
X017729Y039324D02*
X018685Y039324D01*
X018685Y039482D02*
X014321Y039482D01*
X014270Y039533D02*
X014101Y039603D01*
X013918Y039603D01*
X013749Y039533D01*
X013620Y039404D01*
X013550Y039235D01*
X013550Y039052D01*
X013620Y038883D01*
X013749Y038753D01*
X013918Y038683D01*
X014101Y038683D01*
X014270Y038753D01*
X014399Y038883D01*
X014470Y039052D01*
X014470Y039235D01*
X014399Y039404D01*
X014270Y039533D01*
X014433Y039324D02*
X015290Y039324D01*
X015131Y039165D02*
X014470Y039165D01*
X014451Y039007D02*
X015050Y039007D01*
X015050Y038848D02*
X014365Y038848D01*
X014117Y038690D02*
X015062Y038690D01*
X014470Y038214D02*
X018685Y038214D01*
X018685Y038056D02*
X014470Y038056D01*
X014406Y037897D02*
X018685Y037897D01*
X018685Y037739D02*
X014235Y037739D01*
X014156Y037580D02*
X018685Y037580D01*
X018685Y037422D02*
X014381Y037422D01*
X014399Y037404D02*
X014270Y037533D01*
X014101Y037603D01*
X013918Y037603D01*
X013749Y037533D01*
X013620Y037404D01*
X013619Y037403D01*
X011958Y037403D01*
X011862Y037364D01*
X011412Y036914D01*
X011470Y037052D01*
X011470Y037235D01*
X011399Y037404D01*
X011270Y037533D01*
X011101Y037603D01*
X010918Y037603D01*
X010802Y037555D01*
X010802Y037712D01*
X010769Y037745D01*
X010918Y037683D01*
X011101Y037683D01*
X011270Y037753D01*
X011399Y037883D01*
X011470Y038052D01*
X011470Y038235D01*
X011399Y038404D01*
X011270Y038533D01*
X011101Y038603D01*
X010918Y038603D01*
X010749Y038533D01*
X010620Y038404D01*
X010550Y038235D01*
X010550Y038052D01*
X010611Y037903D01*
X010350Y038164D01*
X010111Y038164D01*
X010111Y037473D01*
X009951Y037473D01*
X009951Y037580D02*
X010111Y037580D01*
X010111Y037739D02*
X009951Y037739D01*
X009951Y037897D02*
X010111Y037897D01*
X010111Y038056D02*
X009951Y038056D01*
X009948Y038214D02*
X010550Y038214D01*
X010550Y038056D02*
X010458Y038056D01*
X010607Y038373D02*
X010107Y038373D01*
X010265Y038531D02*
X010747Y038531D01*
X010902Y038690D02*
X010424Y038690D01*
X010582Y038848D02*
X010654Y038848D01*
X010322Y039324D02*
X010058Y039324D01*
X010164Y039165D02*
X009899Y039165D01*
X010005Y039007D02*
X009741Y039007D01*
X009847Y038848D02*
X009582Y038848D01*
X009688Y038690D02*
X009424Y038690D01*
X009604Y038056D02*
X006915Y038056D01*
X007074Y037897D02*
X009446Y037897D01*
X009287Y037739D02*
X007232Y037739D01*
X007258Y037580D02*
X009261Y037580D01*
X009261Y037263D02*
X007258Y037263D01*
X007258Y037105D02*
X009261Y037105D01*
X009388Y036946D02*
X007131Y036946D01*
X006972Y036788D02*
X009547Y036788D01*
X009150Y036629D02*
X006814Y036629D01*
X006061Y038056D02*
X005790Y038056D01*
X005902Y037897D02*
X005631Y037897D01*
X005744Y037739D02*
X005473Y037739D01*
X005169Y035203D02*
X003578Y035203D01*
X003578Y035044D02*
X005050Y035044D01*
X005050Y034886D02*
X003578Y034886D01*
X003578Y034727D02*
X005050Y034727D01*
X005183Y034569D02*
X003578Y034569D01*
X003578Y034410D02*
X006715Y034410D01*
X006729Y034569D02*
X005836Y034569D01*
X005970Y034727D02*
X006793Y034727D01*
X006935Y034886D02*
X005970Y034886D01*
X006028Y035044D02*
X008496Y035044D01*
X008437Y035203D02*
X008654Y035203D01*
X008595Y035361D02*
X008813Y035361D01*
X008754Y035520D02*
X009518Y035520D01*
X009677Y035678D02*
X008912Y035678D01*
X009071Y035837D02*
X009835Y035837D01*
X010095Y035361D02*
X010602Y035361D01*
X010611Y035383D02*
X010550Y035235D01*
X010550Y035052D01*
X010620Y034883D01*
X010749Y034753D01*
X010918Y034683D01*
X011101Y034683D01*
X011270Y034753D01*
X011340Y034823D01*
X011877Y034823D01*
X012828Y033872D01*
X012946Y033823D01*
X013679Y033823D01*
X013749Y033753D01*
X013918Y033683D01*
X014101Y033683D01*
X014270Y033753D01*
X014399Y033883D01*
X014470Y034052D01*
X014470Y034235D01*
X014399Y034404D01*
X014270Y034533D01*
X014101Y034603D01*
X013918Y034603D01*
X013749Y034533D01*
X013679Y034463D01*
X013142Y034463D01*
X012281Y035325D01*
X012222Y035383D01*
X013561Y035383D01*
X013657Y035423D01*
X013917Y035684D01*
X013918Y035683D01*
X014101Y035683D01*
X014270Y035753D01*
X014399Y035883D01*
X014470Y036052D01*
X014470Y036235D01*
X014399Y036404D01*
X014270Y036533D01*
X014101Y036603D01*
X013918Y036603D01*
X013749Y036533D01*
X013620Y036404D01*
X013550Y036235D01*
X013550Y036052D01*
X013550Y036051D01*
X013402Y035903D01*
X011408Y035903D01*
X011470Y036052D01*
X011470Y036235D01*
X011408Y036383D01*
X011561Y036383D01*
X011657Y036423D01*
X011730Y036496D01*
X012117Y036883D01*
X013619Y036883D01*
X013620Y036883D01*
X013749Y036753D01*
X013918Y036683D01*
X014101Y036683D01*
X014270Y036753D01*
X014399Y036883D01*
X014470Y037052D01*
X014470Y037235D01*
X014399Y037404D01*
X014458Y037263D02*
X018685Y037263D01*
X018685Y037105D02*
X014470Y037105D01*
X014426Y036946D02*
X018685Y036946D01*
X018685Y036788D02*
X014305Y036788D01*
X014332Y036471D02*
X018685Y036471D01*
X018685Y036629D02*
X011863Y036629D01*
X011730Y036496D02*
X011730Y036496D01*
X011705Y036471D02*
X013687Y036471D01*
X013582Y036312D02*
X011437Y036312D01*
X011470Y036154D02*
X013550Y036154D01*
X013494Y035995D02*
X011446Y035995D01*
X011426Y036946D02*
X011445Y036946D01*
X011470Y037105D02*
X011603Y037105D01*
X011458Y037263D02*
X011762Y037263D01*
X012022Y036788D02*
X013714Y036788D01*
X013638Y037422D02*
X011381Y037422D01*
X011156Y037580D02*
X013863Y037580D01*
X013784Y037739D02*
X011235Y037739D01*
X011406Y037897D02*
X013613Y037897D01*
X013550Y038056D02*
X011470Y038056D01*
X011470Y038214D02*
X013550Y038214D01*
X013607Y038373D02*
X011412Y038373D01*
X011272Y038531D02*
X013747Y038531D01*
X013902Y038690D02*
X011117Y038690D01*
X011365Y038848D02*
X013654Y038848D01*
X013568Y039007D02*
X011451Y039007D01*
X011470Y039165D02*
X013550Y039165D01*
X013586Y039324D02*
X011433Y039324D01*
X011321Y039482D02*
X013698Y039482D01*
X013703Y039799D02*
X011316Y039799D01*
X011431Y039958D02*
X013588Y039958D01*
X013550Y040116D02*
X011470Y040116D01*
X011453Y040275D02*
X013566Y040275D01*
X013649Y040433D02*
X011370Y040433D01*
X010890Y040592D02*
X010211Y040592D01*
X010220Y040433D02*
X010649Y040433D01*
X010756Y040750D02*
X010053Y040750D01*
X010220Y040275D02*
X010273Y040275D01*
X010375Y039641D02*
X018685Y039641D01*
X017290Y039324D02*
X016729Y039324D01*
X016888Y039165D02*
X017131Y039165D01*
X017050Y039007D02*
X016970Y039007D01*
X016970Y038848D02*
X017050Y038848D01*
X017062Y038690D02*
X016957Y038690D01*
X016798Y038531D02*
X017221Y038531D01*
X017319Y036353D02*
X017050Y036084D01*
X017050Y035703D01*
X017319Y035433D01*
X017700Y035433D01*
X017970Y035703D01*
X017970Y036084D01*
X017700Y036353D01*
X017319Y036353D01*
X017278Y036312D02*
X016713Y036312D01*
X016692Y036333D02*
X016510Y036333D01*
X016510Y035893D01*
X016510Y035893D01*
X016950Y035893D01*
X016950Y035711D01*
X016692Y035453D01*
X016510Y035453D01*
X016510Y035893D01*
X016510Y035893D01*
X016950Y035893D01*
X016950Y036076D01*
X016692Y036333D01*
X016510Y036333D02*
X016510Y035893D01*
X016510Y035453D01*
X016327Y035453D01*
X016070Y035711D01*
X016070Y035893D01*
X016510Y035893D01*
X016510Y035893D01*
X016510Y035893D01*
X016070Y035893D01*
X016070Y036076D01*
X016327Y036333D01*
X016510Y036333D01*
X016510Y036312D02*
X016510Y036312D01*
X016510Y036154D02*
X016510Y036154D01*
X016510Y035995D02*
X016510Y035995D01*
X016510Y035837D02*
X016510Y035837D01*
X016510Y035678D02*
X016510Y035678D01*
X016510Y035520D02*
X016510Y035520D01*
X016261Y035520D02*
X015787Y035520D01*
X015700Y035433D02*
X015970Y035703D01*
X015970Y036084D01*
X015700Y036353D01*
X015319Y036353D01*
X015050Y036084D01*
X015050Y035703D01*
X015169Y035583D01*
X015077Y035583D01*
X014820Y035326D01*
X014820Y035143D01*
X014820Y034961D01*
X015077Y034703D01*
X015260Y034703D01*
X015442Y034703D01*
X015700Y034961D01*
X015700Y035143D01*
X015260Y035143D01*
X015260Y035143D01*
X015260Y034703D01*
X015260Y035143D01*
X015260Y035143D01*
X015700Y035143D01*
X015700Y035326D01*
X015592Y035433D01*
X015700Y035433D01*
X015664Y035361D02*
X018685Y035361D01*
X018685Y035203D02*
X015700Y035203D01*
X015700Y035044D02*
X016461Y035044D01*
X016554Y035138D02*
X016265Y034848D01*
X016265Y034643D01*
X016760Y034643D01*
X016760Y034643D01*
X016760Y035138D01*
X016554Y035138D01*
X016760Y035044D02*
X016760Y035044D01*
X016760Y034886D02*
X016760Y034886D01*
X016760Y034727D02*
X016760Y034727D01*
X017058Y035044D02*
X018685Y035044D01*
X018685Y034886D02*
X017217Y034886D01*
X017255Y034727D02*
X018685Y034727D01*
X018685Y034569D02*
X017255Y034569D01*
X017227Y034410D02*
X018685Y034410D01*
X018685Y034252D02*
X017068Y034252D01*
X017019Y034093D02*
X018685Y034093D01*
X018685Y033935D02*
X017196Y033935D01*
X017262Y033776D02*
X018685Y033776D01*
X018685Y033618D02*
X017275Y033618D01*
X017241Y033459D02*
X018685Y033459D01*
X018685Y033301D02*
X017145Y033301D01*
X017195Y032825D02*
X017918Y032825D01*
X017782Y032667D02*
X017354Y032667D01*
X017512Y032508D02*
X017721Y032508D01*
X018240Y032508D02*
X018280Y032508D01*
X018280Y032667D02*
X018240Y032667D01*
X018240Y032825D02*
X018280Y032825D01*
X018601Y032825D02*
X018685Y032825D01*
X018685Y035520D02*
X017787Y035520D01*
X017945Y035678D02*
X018685Y035678D01*
X018685Y035837D02*
X017970Y035837D01*
X017970Y035995D02*
X018685Y035995D01*
X018685Y036154D02*
X017899Y036154D01*
X017741Y036312D02*
X018685Y036312D01*
X017120Y036154D02*
X016871Y036154D01*
X016950Y035995D02*
X017050Y035995D01*
X017050Y035837D02*
X016950Y035837D01*
X016917Y035678D02*
X017074Y035678D01*
X017232Y035520D02*
X016758Y035520D01*
X016302Y034886D02*
X015624Y034886D01*
X015466Y034727D02*
X016265Y034727D01*
X016265Y034569D02*
X014184Y034569D01*
X014153Y034727D02*
X015053Y034727D01*
X015260Y034727D02*
X015260Y034727D01*
X015260Y034886D02*
X015260Y034886D01*
X015260Y035044D02*
X015260Y035044D01*
X015260Y035143D02*
X014820Y035143D01*
X015260Y035143D01*
X015260Y035143D01*
X015014Y035520D02*
X014240Y035520D01*
X014178Y035551D01*
X014113Y035572D01*
X014044Y035583D01*
X014010Y035583D01*
X014010Y035143D01*
X014010Y035143D01*
X014450Y035143D01*
X014450Y035109D01*
X014439Y035040D01*
X014417Y034974D01*
X014386Y034913D01*
X014345Y034857D01*
X014296Y034808D01*
X014240Y034767D01*
X014178Y034736D01*
X014113Y034714D01*
X014044Y034703D01*
X014010Y034703D01*
X014010Y035143D01*
X014010Y035143D01*
X014450Y035143D01*
X014450Y035178D01*
X014439Y035246D01*
X014417Y035312D01*
X014386Y035374D01*
X014345Y035430D01*
X014296Y035479D01*
X014240Y035520D01*
X014392Y035361D02*
X014855Y035361D01*
X014820Y035203D02*
X014446Y035203D01*
X014439Y035044D02*
X014820Y035044D01*
X014895Y034886D02*
X014366Y034886D01*
X014010Y034886D02*
X014010Y034886D01*
X014010Y035044D02*
X014010Y035044D01*
X014010Y035143D02*
X014010Y034703D01*
X013975Y034703D01*
X013906Y034714D01*
X013841Y034736D01*
X013779Y034767D01*
X013723Y034808D01*
X013674Y034857D01*
X013633Y034913D01*
X013602Y034974D01*
X013580Y035040D01*
X013570Y035109D01*
X013570Y035143D01*
X014010Y035143D01*
X014010Y035143D01*
X014010Y035143D01*
X014010Y035583D01*
X013975Y035583D01*
X013906Y035572D01*
X013841Y035551D01*
X013779Y035520D01*
X013754Y035520D01*
X013779Y035520D02*
X013723Y035479D01*
X013674Y035430D01*
X013633Y035374D01*
X013602Y035312D01*
X013580Y035246D01*
X013570Y035178D01*
X013570Y035143D01*
X014010Y035143D01*
X014010Y035203D02*
X014010Y035203D01*
X014010Y035361D02*
X014010Y035361D01*
X014010Y035520D02*
X014010Y035520D01*
X013912Y035678D02*
X015074Y035678D01*
X015050Y035837D02*
X014354Y035837D01*
X014446Y035995D02*
X015050Y035995D01*
X015120Y036154D02*
X014470Y036154D01*
X014437Y036312D02*
X015278Y036312D01*
X015741Y036312D02*
X016306Y036312D01*
X016148Y036154D02*
X015899Y036154D01*
X015970Y035995D02*
X016070Y035995D01*
X016070Y035837D02*
X015970Y035837D01*
X015945Y035678D02*
X016102Y035678D01*
X016292Y034410D02*
X014393Y034410D01*
X014462Y034252D02*
X016451Y034252D01*
X016500Y034093D02*
X014470Y034093D01*
X014421Y033935D02*
X016323Y033935D01*
X016257Y033776D02*
X014293Y033776D01*
X013835Y034569D02*
X013037Y034569D01*
X012878Y034727D02*
X013866Y034727D01*
X014010Y034727D02*
X014010Y034727D01*
X013653Y034886D02*
X012720Y034886D01*
X012561Y035044D02*
X013580Y035044D01*
X013573Y035203D02*
X012403Y035203D01*
X012244Y035361D02*
X013627Y035361D01*
X013726Y033776D02*
X011253Y033776D01*
X011240Y033767D02*
X011296Y033808D01*
X011345Y033857D01*
X011386Y033913D01*
X011417Y033974D01*
X011439Y034040D01*
X011450Y034109D01*
X011450Y034143D01*
X011010Y034143D01*
X011010Y034143D01*
X011010Y033703D01*
X011044Y033703D01*
X011113Y033714D01*
X011178Y033736D01*
X011240Y033767D01*
X011101Y033603D02*
X010918Y033603D01*
X010749Y033533D01*
X010633Y033417D01*
X010519Y033531D01*
X010351Y033601D01*
X010169Y033601D01*
X010000Y033531D01*
X009872Y033402D01*
X009802Y033234D01*
X009802Y033052D01*
X009872Y032884D01*
X010000Y032755D01*
X010169Y032686D01*
X010351Y032686D01*
X010519Y032755D01*
X010633Y032870D01*
X010749Y032753D01*
X010918Y032683D01*
X011101Y032683D01*
X011270Y032753D01*
X011399Y032883D01*
X011470Y033052D01*
X011470Y033235D01*
X011399Y033404D01*
X011270Y033533D01*
X011101Y033603D01*
X011010Y033703D02*
X011010Y034143D01*
X011010Y034143D01*
X011450Y034143D01*
X011450Y034178D01*
X011439Y034246D01*
X011417Y034312D01*
X011386Y034374D01*
X011345Y034430D01*
X011296Y034479D01*
X011240Y034520D01*
X011178Y034551D01*
X011113Y034572D01*
X011044Y034583D01*
X011010Y034583D01*
X011010Y034143D01*
X011010Y034143D01*
X010570Y034143D01*
X010570Y034109D01*
X010580Y034040D01*
X010602Y033974D01*
X010633Y033913D01*
X010674Y033857D01*
X010723Y033808D01*
X010779Y033767D01*
X010841Y033736D01*
X010906Y033714D01*
X010975Y033703D01*
X011010Y033703D01*
X011010Y033776D02*
X011010Y033776D01*
X011010Y033935D02*
X011010Y033935D01*
X011010Y034093D02*
X011010Y034093D01*
X011010Y034143D02*
X011010Y034143D01*
X011010Y034583D01*
X010975Y034583D01*
X010906Y034572D01*
X010841Y034551D01*
X010779Y034520D01*
X010723Y034479D01*
X010674Y034430D01*
X010633Y034374D01*
X010602Y034312D01*
X010580Y034246D01*
X010570Y034178D01*
X010570Y034143D01*
X011010Y034143D01*
X011010Y034252D02*
X011010Y034252D01*
X011010Y034410D02*
X011010Y034410D01*
X011010Y034569D02*
X011010Y034569D01*
X011124Y034569D02*
X012131Y034569D01*
X011973Y034727D02*
X011207Y034727D01*
X010895Y034569D02*
X009818Y034569D01*
X009824Y034556D02*
X009735Y034769D01*
X009604Y034901D01*
X009657Y034923D01*
X010117Y035383D01*
X010611Y035383D01*
X010550Y035203D02*
X009937Y035203D01*
X009778Y035044D02*
X010553Y035044D01*
X010618Y034886D02*
X009619Y034886D01*
X009753Y034727D02*
X010812Y034727D01*
X010660Y034410D02*
X009824Y034410D01*
X009824Y034325D02*
X009824Y034556D01*
X009824Y034325D02*
X009735Y034112D01*
X009572Y033949D01*
X009359Y033861D01*
X009128Y033861D01*
X008915Y033949D01*
X008752Y034112D01*
X008752Y034113D01*
X008751Y034112D01*
X008588Y033949D01*
X008375Y033861D01*
X008144Y033861D01*
X007965Y033935D02*
X007516Y033935D01*
X007294Y033935D02*
X007257Y033935D01*
X007257Y034093D02*
X007294Y034093D01*
X007294Y034252D02*
X007257Y034252D01*
X007257Y034410D02*
X007294Y034410D01*
X007294Y034569D02*
X007257Y034569D01*
X007257Y034727D02*
X007294Y034727D01*
X007294Y034886D02*
X007257Y034886D01*
X007615Y034886D02*
X007885Y034886D01*
X007786Y034093D02*
X007715Y034093D01*
X007034Y033935D02*
X003578Y033935D01*
X003578Y034093D02*
X006835Y034093D01*
X006748Y034252D02*
X003578Y034252D01*
X003578Y033776D02*
X010766Y033776D01*
X010622Y033935D02*
X009539Y033935D01*
X009717Y034093D02*
X010572Y034093D01*
X010582Y034252D02*
X009793Y034252D01*
X009427Y033549D02*
X009362Y033570D01*
X009294Y033581D01*
X009260Y033581D01*
X009260Y033143D01*
X009260Y033143D01*
X009697Y033143D01*
X009697Y033109D01*
X009686Y033041D01*
X009665Y032975D01*
X009634Y032914D01*
X009593Y032858D01*
X009545Y032810D01*
X009489Y032769D01*
X009427Y032738D01*
X009362Y032717D01*
X009294Y032706D01*
X009260Y032706D01*
X009260Y033143D01*
X009260Y033143D01*
X009697Y033143D01*
X009697Y033178D01*
X009686Y033246D01*
X009665Y033311D01*
X009634Y033373D01*
X009593Y033428D01*
X009545Y033477D01*
X009489Y033517D01*
X009427Y033549D01*
X009562Y033459D02*
X009929Y033459D01*
X009830Y033301D02*
X009668Y033301D01*
X009697Y033142D02*
X009802Y033142D01*
X009830Y032984D02*
X009668Y032984D01*
X009560Y032825D02*
X009930Y032825D01*
X010589Y032825D02*
X010677Y032825D01*
X010749Y032533D02*
X010620Y032404D01*
X010550Y032235D01*
X010550Y032052D01*
X010620Y031883D01*
X010749Y031753D01*
X010918Y031683D01*
X011101Y031683D01*
X011270Y031753D01*
X011399Y031883D01*
X011470Y032052D01*
X011470Y032235D01*
X011399Y032404D01*
X011270Y032533D01*
X011101Y032603D01*
X010918Y032603D01*
X010749Y032533D01*
X010724Y032508D02*
X005006Y032508D01*
X004847Y032350D02*
X005316Y032350D01*
X005319Y032353D02*
X005050Y032084D01*
X005050Y031703D01*
X005319Y031433D01*
X005700Y031433D01*
X005970Y031703D01*
X005970Y032084D01*
X005700Y032353D01*
X005319Y032353D01*
X005157Y032191D02*
X004689Y032191D01*
X005050Y032033D02*
X003578Y032033D01*
X003578Y032191D02*
X003830Y032191D01*
X003672Y032350D02*
X003578Y032350D01*
X003578Y031874D02*
X005050Y031874D01*
X005050Y031716D02*
X003578Y031716D01*
X003578Y031557D02*
X005195Y031557D01*
X005319Y031103D02*
X005050Y030834D01*
X005050Y030453D01*
X005319Y030183D01*
X005700Y030183D01*
X005717Y030201D01*
X005717Y029973D01*
X006408Y029973D01*
X006408Y029813D01*
X006568Y029813D01*
X006568Y029123D01*
X006807Y029123D01*
X007258Y029574D01*
X007258Y029813D01*
X006568Y029813D01*
X006568Y029973D01*
X007258Y029973D01*
X007258Y030212D01*
X006807Y030664D01*
X006568Y030664D01*
X006568Y029973D01*
X006408Y029973D01*
X006408Y030664D01*
X006169Y030664D01*
X005970Y030465D01*
X005970Y030834D01*
X005700Y031103D01*
X005319Y031103D01*
X005298Y031082D02*
X004222Y031082D01*
X004380Y030923D02*
X005139Y030923D01*
X005050Y030765D02*
X004470Y030765D01*
X004470Y030606D02*
X005050Y030606D01*
X005054Y030448D02*
X004465Y030448D01*
X004306Y030289D02*
X005213Y030289D01*
X005717Y030131D02*
X003578Y030131D01*
X003578Y030289D02*
X003713Y030289D01*
X003578Y029972D02*
X006408Y029972D01*
X006408Y029814D02*
X003578Y029814D01*
X003578Y029655D02*
X005717Y029655D01*
X005717Y029574D02*
X006169Y029123D01*
X006408Y029123D01*
X006408Y029813D01*
X005717Y029813D01*
X005717Y029574D01*
X005795Y029497D02*
X003578Y029497D01*
X003578Y029338D02*
X005953Y029338D01*
X006112Y029180D02*
X003578Y029180D01*
X003578Y029021D02*
X009934Y029021D01*
X009795Y028964D01*
X009689Y028857D01*
X009631Y028719D01*
X009631Y028568D01*
X009689Y028429D01*
X009795Y028323D01*
X009934Y028265D01*
X010085Y028265D01*
X010224Y028323D01*
X010284Y028383D01*
X010611Y028383D01*
X010550Y028235D01*
X010550Y028052D01*
X010620Y027883D01*
X010749Y027753D01*
X010918Y027683D01*
X011101Y027683D01*
X011270Y027753D01*
X011399Y027883D01*
X011400Y027883D01*
X012485Y027883D01*
X012545Y027823D01*
X012684Y027765D01*
X012835Y027765D01*
X012974Y027823D01*
X013080Y027929D01*
X013138Y028068D01*
X013138Y028219D01*
X013080Y028357D01*
X013054Y028383D01*
X013611Y028383D01*
X013550Y028229D02*
X013133Y028229D01*
X013138Y028070D02*
X013550Y028070D01*
X013607Y027912D02*
X013063Y027912D01*
X013526Y027261D02*
X009739Y027261D01*
X009735Y027269D01*
X009572Y027432D01*
X009359Y027521D01*
X009128Y027521D01*
X008915Y027432D01*
X008752Y027269D01*
X008752Y027268D01*
X008751Y027269D01*
X008588Y027432D01*
X008375Y027521D01*
X008144Y027521D01*
X007931Y027432D01*
X007768Y027269D01*
X007754Y027235D01*
X007702Y027305D01*
X007640Y027368D01*
X007569Y027420D01*
X007490Y027460D01*
X007406Y027487D01*
X007319Y027501D01*
X007294Y027501D01*
X007294Y026959D01*
X007257Y026959D01*
X007257Y027501D01*
X007231Y027501D01*
X007144Y027487D01*
X007060Y027460D01*
X006982Y027420D01*
X006910Y027368D01*
X006848Y027305D01*
X006796Y027234D01*
X006756Y027156D01*
X006729Y027072D01*
X006715Y026985D01*
X006715Y026959D01*
X007257Y026959D01*
X007257Y026922D01*
X007294Y026922D01*
X007294Y026381D01*
X007319Y026381D01*
X007406Y026394D01*
X007490Y026422D01*
X007569Y026462D01*
X007640Y026513D01*
X007702Y026576D01*
X007754Y026646D01*
X007768Y026612D01*
X007931Y026449D01*
X008144Y026361D01*
X008375Y026361D01*
X008588Y026449D01*
X008751Y026612D01*
X008752Y026613D01*
X008752Y026612D01*
X008915Y026449D01*
X009128Y026361D01*
X009359Y026361D01*
X009572Y026449D01*
X009735Y026612D01*
X009739Y026621D01*
X010606Y026621D01*
X010550Y026485D01*
X009609Y026485D01*
X009727Y027278D02*
X015847Y027278D01*
X015846Y027119D02*
X013736Y027119D01*
X013644Y027212D02*
X013526Y027261D01*
X013644Y027212D02*
X014002Y026853D01*
X014101Y026853D01*
X014270Y026783D01*
X014399Y026654D01*
X014470Y026485D01*
X014470Y026302D01*
X014408Y026153D01*
X017985Y026153D01*
X018045Y026214D01*
X018184Y026271D01*
X018335Y026271D01*
X018474Y026214D01*
X018580Y026107D01*
X018638Y025969D01*
X018638Y025818D01*
X018580Y025679D01*
X018474Y025573D01*
X018335Y025515D01*
X018184Y025515D01*
X018045Y025573D01*
X017985Y025633D01*
X016436Y025633D01*
X016685Y025530D01*
X016896Y025319D01*
X017011Y025043D01*
X017011Y024744D01*
X016896Y024468D01*
X016685Y024256D01*
X016409Y024142D01*
X016110Y024142D01*
X015834Y024256D01*
X015623Y024468D01*
X015508Y024744D01*
X015508Y025043D01*
X015623Y025319D01*
X015834Y025530D01*
X016083Y025633D01*
X014408Y025633D01*
X014470Y025485D01*
X014470Y025302D01*
X014399Y025133D01*
X014270Y025003D01*
X014101Y024933D01*
X013918Y024933D01*
X013749Y025003D01*
X013620Y025133D01*
X013619Y025133D01*
X013034Y025133D01*
X012974Y025073D01*
X012835Y025015D01*
X012684Y025015D01*
X012545Y025073D01*
X012439Y025179D01*
X012381Y025318D01*
X012381Y025469D01*
X012439Y025607D01*
X012465Y025633D01*
X012084Y025633D01*
X012024Y025573D01*
X011885Y025515D01*
X011734Y025515D01*
X011595Y025573D01*
X011489Y025679D01*
X011431Y025818D01*
X011431Y025969D01*
X011489Y026107D01*
X011595Y026214D01*
X011734Y026271D01*
X011885Y026271D01*
X012024Y026214D01*
X012084Y026153D01*
X013611Y026153D01*
X013550Y026302D01*
X013550Y026401D01*
X013330Y026621D01*
X011413Y026621D01*
X011470Y026485D01*
X011470Y026302D01*
X011399Y026133D01*
X011270Y026003D01*
X011101Y025933D01*
X010918Y025933D01*
X010749Y026003D01*
X010620Y026133D01*
X010550Y026302D01*
X010550Y026485D01*
X010550Y026327D02*
X005844Y026327D01*
X005970Y026453D02*
X005700Y026183D01*
X005319Y026183D01*
X005050Y026453D01*
X005050Y026834D01*
X005319Y027103D01*
X005700Y027103D01*
X005970Y026834D01*
X005970Y026453D01*
X005970Y026485D02*
X006949Y026485D01*
X006982Y026462D02*
X007060Y026422D01*
X007144Y026394D01*
X007231Y026381D01*
X007257Y026381D01*
X007257Y026922D01*
X006715Y026922D01*
X006715Y026896D01*
X006729Y026809D01*
X006756Y026726D01*
X006796Y026647D01*
X006848Y026576D01*
X006910Y026513D01*
X006982Y026462D01*
X006799Y026644D02*
X005970Y026644D01*
X005970Y026802D02*
X006731Y026802D01*
X006715Y026961D02*
X005843Y026961D01*
X005795Y027278D02*
X006828Y027278D01*
X006745Y027119D02*
X004324Y027119D01*
X004295Y027278D02*
X005224Y027278D01*
X005177Y026961D02*
X004483Y026961D01*
X004557Y026802D02*
X005050Y026802D01*
X005050Y026644D02*
X004028Y026644D01*
X004028Y026625D02*
X004580Y026625D01*
X004580Y026598D01*
X004565Y026510D01*
X004538Y026425D01*
X004497Y026345D01*
X004444Y026272D01*
X004381Y026209D01*
X004308Y026156D01*
X004228Y026115D01*
X004143Y026087D01*
X004054Y026073D01*
X004028Y026073D01*
X004028Y026625D01*
X004028Y026485D02*
X003991Y026485D01*
X003991Y026327D02*
X004028Y026327D01*
X004028Y026168D02*
X003991Y026168D01*
X003694Y026168D02*
X003578Y026168D01*
X003578Y026010D02*
X007008Y026010D01*
X007112Y026114D02*
X006852Y025853D01*
X006569Y025853D01*
X006300Y025584D01*
X006300Y025203D01*
X006569Y024933D01*
X006950Y024933D01*
X007220Y025203D01*
X007220Y025486D01*
X007367Y025633D01*
X009349Y025633D01*
X009300Y025584D01*
X009300Y025203D01*
X009569Y024933D01*
X009950Y024933D01*
X010220Y025203D01*
X010220Y025566D01*
X010596Y025189D01*
X010620Y025133D01*
X010749Y025003D01*
X010918Y024933D01*
X011101Y024933D01*
X011270Y025003D01*
X011399Y025133D01*
X011470Y025302D01*
X011470Y025485D01*
X011399Y025654D01*
X011270Y025783D01*
X011101Y025853D01*
X010918Y025853D01*
X010749Y025783D01*
X010743Y025777D01*
X010480Y026041D01*
X010407Y026114D01*
X010311Y026153D01*
X007208Y026153D01*
X007112Y026114D01*
X007257Y026485D02*
X007294Y026485D01*
X007294Y026644D02*
X007257Y026644D01*
X007257Y026802D02*
X007294Y026802D01*
X007294Y026961D02*
X007257Y026961D01*
X007257Y027119D02*
X007294Y027119D01*
X007294Y027278D02*
X007257Y027278D01*
X007257Y027436D02*
X007294Y027436D01*
X007536Y027436D02*
X007941Y027436D01*
X007777Y027278D02*
X007722Y027278D01*
X007752Y026644D02*
X007755Y026644D01*
X007894Y026485D02*
X007601Y026485D01*
X007268Y025534D02*
X009300Y025534D01*
X009300Y025376D02*
X007220Y025376D01*
X007220Y025217D02*
X009300Y025217D01*
X009443Y025059D02*
X007076Y025059D01*
X006443Y025059D02*
X003578Y025059D01*
X003578Y025217D02*
X006300Y025217D01*
X006300Y025376D02*
X003578Y025376D01*
X003578Y025534D02*
X006300Y025534D01*
X006409Y025693D02*
X003578Y025693D01*
X003578Y025851D02*
X006567Y025851D01*
X007015Y027436D02*
X005953Y027436D01*
X005970Y027595D02*
X015530Y027595D01*
X015426Y027753D02*
X014270Y027753D01*
X014412Y027912D02*
X015426Y027912D01*
X015426Y028070D02*
X014470Y028070D01*
X014470Y028229D02*
X015426Y028229D01*
X015426Y028387D02*
X014821Y028387D01*
X015030Y028546D02*
X015584Y028546D01*
X015688Y027436D02*
X009562Y027436D01*
X009731Y028387D02*
X003578Y028387D01*
X003578Y028229D02*
X010550Y028229D01*
X010550Y028070D02*
X005733Y028070D01*
X005892Y027912D02*
X010607Y027912D01*
X010749Y027753D02*
X005970Y027753D01*
X005286Y028070D02*
X004233Y028070D01*
X004392Y027912D02*
X005128Y027912D01*
X005050Y026485D02*
X004558Y026485D01*
X004484Y026327D02*
X005175Y026327D01*
X004326Y026168D02*
X010605Y026168D01*
X010511Y026010D02*
X010742Y026010D01*
X010669Y025851D02*
X010913Y025851D01*
X011106Y025851D02*
X011431Y025851D01*
X011449Y026010D02*
X011277Y026010D01*
X011414Y026168D02*
X011550Y026168D01*
X011470Y026327D02*
X013550Y026327D01*
X013605Y026168D02*
X012069Y026168D01*
X011931Y025534D02*
X012409Y025534D01*
X012381Y025376D02*
X011470Y025376D01*
X011449Y025534D02*
X011688Y025534D01*
X011483Y025693D02*
X011361Y025693D01*
X011469Y026485D02*
X013465Y026485D01*
X013895Y026961D02*
X015776Y026961D01*
X015763Y026802D02*
X014224Y026802D01*
X014404Y026644D02*
X015799Y026644D01*
X015902Y026485D02*
X014469Y026485D01*
X014470Y026327D02*
X018685Y026327D01*
X018685Y026485D02*
X016617Y026485D01*
X016720Y026644D02*
X018685Y026644D01*
X018685Y026802D02*
X016756Y026802D01*
X016743Y026961D02*
X017886Y026961D01*
X017756Y027119D02*
X016673Y027119D01*
X016672Y027278D02*
X017690Y027278D01*
X017690Y027436D02*
X016831Y027436D01*
X016989Y027595D02*
X017726Y027595D01*
X017813Y027753D02*
X017093Y027753D01*
X017093Y028229D02*
X017556Y028229D01*
X017398Y028387D02*
X017093Y028387D01*
X017239Y028546D02*
X016935Y028546D01*
X016669Y029153D02*
X017073Y029557D01*
X017073Y029813D01*
X016340Y029813D01*
X016340Y029973D01*
X017073Y029973D01*
X017073Y030213D01*
X017112Y030173D01*
X017208Y030133D01*
X017750Y030133D01*
X017776Y030070D01*
X017937Y029910D01*
X017977Y029893D01*
X017937Y029877D01*
X017776Y029716D01*
X017690Y029507D01*
X017690Y029280D01*
X017776Y029070D01*
X017937Y028910D01*
X017977Y028893D01*
X017937Y028877D01*
X017790Y028730D01*
X017480Y029041D01*
X017407Y029114D01*
X017311Y029153D01*
X016669Y029153D01*
X016696Y029180D02*
X017731Y029180D01*
X017690Y029338D02*
X016854Y029338D01*
X017013Y029497D02*
X017690Y029497D01*
X017751Y029655D02*
X017073Y029655D01*
X017073Y030131D02*
X017751Y030131D01*
X017874Y029972D02*
X016340Y029972D01*
X016340Y029814D02*
X017874Y029814D01*
X017825Y029021D02*
X017499Y029021D01*
X017658Y028863D02*
X017923Y028863D01*
X017776Y028070D02*
X017937Y027910D01*
X018633Y026961D02*
X018685Y026961D01*
X018685Y026168D02*
X018519Y026168D01*
X018621Y026010D02*
X018685Y026010D01*
X018685Y025851D02*
X018638Y025851D01*
X018685Y025693D02*
X018586Y025693D01*
X018685Y025534D02*
X018381Y025534D01*
X018138Y025534D02*
X016675Y025534D01*
X016839Y025376D02*
X018685Y025376D01*
X018685Y025217D02*
X016938Y025217D01*
X017004Y025059D02*
X018685Y025059D01*
X018685Y024900D02*
X017011Y024900D01*
X017010Y024742D02*
X018685Y024742D01*
X018685Y024583D02*
X016944Y024583D01*
X016853Y024425D02*
X018685Y024425D01*
X018685Y024266D02*
X016695Y024266D01*
X016509Y023970D02*
X016443Y024005D01*
X016371Y024028D01*
X016297Y024039D01*
X016278Y024039D01*
X016278Y023581D01*
X016736Y023581D01*
X016736Y023600D01*
X016725Y023674D01*
X016701Y023746D01*
X016667Y023813D01*
X016623Y023873D01*
X016570Y023926D01*
X016509Y023970D01*
X016538Y023949D02*
X018685Y023949D01*
X018685Y023791D02*
X016678Y023791D01*
X016731Y023632D02*
X018685Y023632D01*
X018685Y023474D02*
X016728Y023474D01*
X016725Y023451D02*
X016736Y023525D01*
X016736Y023544D01*
X016278Y023544D01*
X016278Y022746D01*
X016736Y022746D01*
X016736Y022765D01*
X016725Y022840D01*
X018685Y022840D01*
X018685Y022998D02*
X016652Y022998D01*
X016667Y022978D02*
X016623Y023039D01*
X016570Y023092D01*
X016509Y023136D01*
X016491Y023145D01*
X016509Y023155D01*
X016570Y023199D01*
X016623Y023252D01*
X016667Y023313D01*
X016701Y023380D01*
X016725Y023451D01*
X016669Y023315D02*
X018685Y023315D01*
X018685Y023157D02*
X016512Y023157D01*
X016278Y023157D02*
X016241Y023157D01*
X016241Y023205D02*
X016241Y022746D01*
X016241Y022710D01*
X015783Y022710D01*
X015783Y022690D01*
X015794Y022616D01*
X015818Y022545D01*
X015852Y022478D01*
X015896Y022417D01*
X015920Y022393D01*
X015896Y022369D01*
X015852Y022309D01*
X015818Y022242D01*
X015794Y022170D01*
X015783Y022096D01*
X015783Y022077D01*
X016241Y022077D01*
X016241Y022040D01*
X015783Y022040D01*
X015783Y022021D01*
X015794Y021947D01*
X015818Y021876D01*
X015852Y021809D01*
X015896Y021748D01*
X015949Y021695D01*
X016003Y021656D01*
X015978Y021645D01*
X015838Y021505D01*
X015763Y021323D01*
X015763Y021125D01*
X015838Y020943D01*
X015978Y020803D01*
X016161Y020727D01*
X016358Y020727D01*
X016541Y020803D01*
X016681Y020943D01*
X016756Y021125D01*
X016756Y021323D01*
X016681Y021505D01*
X016541Y021645D01*
X016516Y021656D01*
X016570Y021695D01*
X016623Y021748D01*
X016667Y021809D01*
X016701Y021876D01*
X016725Y021947D01*
X016736Y022021D01*
X016736Y022040D01*
X016278Y022040D01*
X016278Y022077D01*
X016736Y022077D01*
X016736Y022096D01*
X016725Y022170D01*
X016701Y022242D01*
X016667Y022309D01*
X016623Y022369D01*
X016599Y022393D01*
X016623Y022417D01*
X016667Y022478D01*
X016701Y022545D01*
X016725Y022616D01*
X016736Y022690D01*
X016736Y022710D01*
X016278Y022710D01*
X016278Y022746D01*
X016241Y022746D01*
X015783Y022746D01*
X015783Y022765D01*
X015794Y022840D01*
X014214Y022840D01*
X014200Y022853D02*
X013819Y022853D01*
X013550Y022584D01*
X013550Y022203D01*
X013819Y021933D01*
X014200Y021933D01*
X014470Y022203D01*
X014470Y022584D01*
X014200Y022853D01*
X014178Y022986D02*
X014240Y023017D01*
X014296Y023058D01*
X014345Y023107D01*
X014386Y023163D01*
X014417Y023224D01*
X014439Y023290D01*
X014450Y023359D01*
X014450Y023393D01*
X014010Y023393D01*
X014010Y023393D01*
X014010Y022953D01*
X014044Y022953D01*
X014113Y022964D01*
X014178Y022986D01*
X014204Y022998D02*
X015867Y022998D01*
X015852Y022978D02*
X015818Y022911D01*
X015794Y022840D01*
X015852Y022978D02*
X015896Y023039D01*
X015949Y023092D01*
X016010Y023136D01*
X016028Y023145D01*
X016010Y023155D01*
X015949Y023199D01*
X015896Y023252D01*
X015852Y023313D01*
X015818Y023380D01*
X015794Y023451D01*
X015783Y023525D01*
X015783Y023544D01*
X016241Y023544D01*
X016278Y023544D01*
X016278Y023581D01*
X016241Y023581D01*
X016241Y023544D01*
X016241Y023205D01*
X016241Y023315D02*
X016278Y023315D01*
X016278Y023474D02*
X016241Y023474D01*
X016241Y023581D02*
X015783Y023581D01*
X015783Y023600D01*
X015794Y023674D01*
X015818Y023746D01*
X015852Y023813D01*
X015896Y023873D01*
X015949Y023926D01*
X016010Y023970D01*
X016076Y024005D01*
X016148Y024028D01*
X016222Y024039D01*
X016241Y024039D01*
X016241Y023581D01*
X016241Y023632D02*
X016278Y023632D01*
X016278Y023791D02*
X016241Y023791D01*
X016241Y023949D02*
X016278Y023949D01*
X015981Y023949D02*
X014140Y023949D01*
X014101Y023933D02*
X014270Y024003D01*
X014399Y024133D01*
X014470Y024302D01*
X014470Y024485D01*
X014399Y024654D01*
X014270Y024783D01*
X014101Y024853D01*
X013918Y024853D01*
X013749Y024783D01*
X013620Y024654D01*
X013550Y024485D01*
X013550Y024302D01*
X013620Y024133D01*
X013749Y024003D01*
X013918Y023933D01*
X014101Y023933D01*
X014113Y023822D02*
X014044Y023833D01*
X014010Y023833D01*
X014010Y023393D01*
X014010Y023393D01*
X014450Y023393D01*
X014450Y023428D01*
X014439Y023496D01*
X014417Y023562D01*
X014386Y023624D01*
X014345Y023680D01*
X014296Y023729D01*
X014240Y023770D01*
X014178Y023801D01*
X014113Y023822D01*
X014198Y023791D02*
X015841Y023791D01*
X015788Y023632D02*
X014380Y023632D01*
X014442Y023474D02*
X015791Y023474D01*
X015850Y023315D02*
X014443Y023315D01*
X014382Y023157D02*
X016007Y023157D01*
X016241Y022998D02*
X016278Y022998D01*
X016278Y022840D02*
X016241Y022840D01*
X016241Y022710D02*
X016278Y022710D01*
X016278Y022251D01*
X016278Y022077D01*
X016241Y022077D01*
X016241Y022710D01*
X016241Y022681D02*
X016278Y022681D01*
X016278Y022523D02*
X016241Y022523D01*
X016241Y022364D02*
X016278Y022364D01*
X016278Y022206D02*
X016241Y022206D01*
X016241Y022047D02*
X014314Y022047D01*
X014470Y022206D02*
X015806Y022206D01*
X015892Y022364D02*
X014470Y022364D01*
X014470Y022523D02*
X015829Y022523D01*
X015784Y022681D02*
X014372Y022681D01*
X014010Y022953D02*
X014010Y023393D01*
X014010Y023393D01*
X013570Y023393D01*
X013570Y023359D01*
X013580Y023290D01*
X013602Y023224D01*
X013633Y023163D01*
X013674Y023107D01*
X013723Y023058D01*
X013779Y023017D01*
X013841Y022986D01*
X013906Y022964D01*
X013975Y022953D01*
X014010Y022953D01*
X014010Y022998D02*
X014010Y022998D01*
X014010Y023157D02*
X014010Y023157D01*
X014010Y023315D02*
X014010Y023315D01*
X014010Y023393D02*
X014010Y023393D01*
X014010Y023833D01*
X013975Y023833D01*
X013906Y023822D01*
X013841Y023801D01*
X013779Y023770D01*
X013723Y023729D01*
X013674Y023680D01*
X013633Y023624D01*
X013602Y023562D01*
X013580Y023496D01*
X013570Y023428D01*
X013570Y023393D01*
X014010Y023393D01*
X014010Y023474D02*
X014010Y023474D01*
X014010Y023632D02*
X014010Y023632D01*
X014010Y023791D02*
X014010Y023791D01*
X013821Y023791D02*
X011252Y023791D01*
X011270Y023783D02*
X011101Y023853D01*
X010918Y023853D01*
X010749Y023783D01*
X010620Y023654D01*
X010550Y023485D01*
X010550Y023302D01*
X010620Y023133D01*
X010749Y023003D01*
X010918Y022933D01*
X011101Y022933D01*
X011270Y023003D01*
X011399Y023133D01*
X011470Y023302D01*
X011470Y023485D01*
X011399Y023654D01*
X011270Y023783D01*
X011408Y023632D02*
X013639Y023632D01*
X013577Y023474D02*
X011470Y023474D01*
X011470Y023315D02*
X013576Y023315D01*
X013637Y023157D02*
X011409Y023157D01*
X011258Y022998D02*
X013815Y022998D01*
X013806Y022840D02*
X011214Y022840D01*
X011200Y022853D02*
X010819Y022853D01*
X010740Y022774D01*
X010350Y023164D01*
X010111Y023164D01*
X010111Y022473D01*
X009951Y022473D01*
X009951Y022313D01*
X010111Y022313D01*
X010111Y021623D01*
X010350Y021623D01*
X010740Y022012D01*
X010819Y021933D01*
X011200Y021933D01*
X011470Y022203D01*
X011470Y022584D01*
X011200Y022853D01*
X011372Y022681D02*
X013647Y022681D01*
X013550Y022523D02*
X011470Y022523D01*
X011470Y022364D02*
X013550Y022364D01*
X013550Y022206D02*
X011470Y022206D01*
X011314Y022047D02*
X013705Y022047D01*
X013819Y021853D02*
X013550Y021584D01*
X013550Y021203D01*
X013819Y020933D01*
X014200Y020933D01*
X014470Y021203D01*
X014470Y021584D01*
X014200Y021853D01*
X013819Y021853D01*
X013696Y021730D02*
X011323Y021730D01*
X011200Y021853D02*
X010819Y021853D01*
X010550Y021584D01*
X010550Y021203D01*
X010819Y020933D01*
X011200Y020933D01*
X011470Y021203D01*
X011470Y021584D01*
X011200Y021853D01*
X011363Y021096D02*
X013656Y021096D01*
X013550Y021255D02*
X011470Y021255D01*
X011470Y021413D02*
X013550Y021413D01*
X013550Y021572D02*
X011470Y021572D01*
X011205Y020938D02*
X013814Y020938D01*
X014205Y020938D02*
X015843Y020938D01*
X015775Y021096D02*
X014363Y021096D01*
X014470Y021255D02*
X015763Y021255D01*
X015800Y021413D02*
X014470Y021413D01*
X014470Y021572D02*
X015905Y021572D01*
X015913Y021730D02*
X014323Y021730D01*
X014085Y020021D02*
X013934Y020021D01*
X013795Y019964D01*
X013689Y019857D01*
X013631Y019719D01*
X013631Y019568D01*
X013689Y019429D01*
X013795Y019323D01*
X013934Y019265D01*
X014085Y019265D01*
X014224Y019323D01*
X014284Y019383D01*
X014735Y019383D01*
X014795Y019323D01*
X014934Y019265D01*
X015085Y019265D01*
X015224Y019323D01*
X015330Y019429D01*
X015388Y019568D01*
X015388Y019719D01*
X015330Y019857D01*
X015224Y019964D01*
X015085Y020021D01*
X014934Y020021D01*
X014795Y019964D01*
X014735Y019903D01*
X014284Y019903D01*
X014224Y019964D01*
X014085Y020021D01*
X014168Y019987D02*
X014851Y019987D01*
X015168Y019987D02*
X015508Y019987D01*
X015508Y020043D02*
X015508Y019744D01*
X015623Y019468D01*
X015834Y019256D01*
X016110Y019142D01*
X016409Y019142D01*
X016685Y019256D01*
X016896Y019468D01*
X017011Y019744D01*
X017011Y020043D01*
X016896Y020319D01*
X016685Y020530D01*
X016409Y020644D01*
X016110Y020644D01*
X015834Y020530D01*
X015623Y020319D01*
X015508Y020043D01*
X015551Y020145D02*
X012655Y020145D01*
X012649Y020133D02*
X012720Y020302D01*
X012720Y020485D01*
X012649Y020654D01*
X012520Y020783D01*
X012351Y020853D01*
X012168Y020853D01*
X011999Y020783D01*
X011870Y020654D01*
X011800Y020485D01*
X011800Y020302D01*
X011870Y020133D01*
X011999Y020003D01*
X012168Y019933D01*
X012351Y019933D01*
X012520Y020003D01*
X012649Y020133D01*
X012720Y020304D02*
X015616Y020304D01*
X015766Y020462D02*
X012720Y020462D01*
X012663Y020621D02*
X016053Y020621D01*
X016035Y020779D02*
X012524Y020779D01*
X012480Y019987D02*
X013851Y019987D01*
X013677Y019828D02*
X012627Y019828D01*
X012602Y019853D02*
X011917Y019853D01*
X011800Y019736D01*
X011800Y019050D01*
X011917Y018933D01*
X012602Y018933D01*
X012720Y019050D01*
X012720Y019133D01*
X013152Y019133D01*
X013625Y018660D01*
X013550Y018584D01*
X013550Y018203D01*
X013819Y017933D01*
X014200Y017933D01*
X014470Y018203D01*
X014470Y018584D01*
X014200Y018853D01*
X014167Y018853D01*
X013407Y019614D01*
X013311Y019653D01*
X012720Y019653D01*
X012720Y019736D01*
X012602Y019853D01*
X012720Y019670D02*
X013631Y019670D01*
X013655Y019511D02*
X013509Y019511D01*
X013668Y019353D02*
X013765Y019353D01*
X013826Y019194D02*
X015984Y019194D01*
X015738Y019353D02*
X015254Y019353D01*
X015364Y019511D02*
X015605Y019511D01*
X015539Y019670D02*
X015388Y019670D01*
X015342Y019828D02*
X015508Y019828D01*
X014765Y019353D02*
X014254Y019353D01*
X014143Y018877D02*
X018685Y018877D01*
X018685Y018719D02*
X014335Y018719D01*
X014470Y018560D02*
X018685Y018560D01*
X018685Y018402D02*
X016482Y018402D01*
X016541Y018378D02*
X016358Y018453D01*
X016161Y018453D01*
X015978Y018378D01*
X015838Y018238D01*
X015763Y018055D01*
X015763Y017857D01*
X015838Y017675D01*
X015978Y017535D01*
X016070Y017497D01*
X016010Y017466D01*
X015949Y017422D01*
X015896Y017369D01*
X015852Y017309D01*
X015818Y017242D01*
X015794Y017170D01*
X015783Y017096D01*
X015783Y017077D01*
X016241Y017077D01*
X016241Y017040D01*
X016278Y017040D01*
X016278Y016582D01*
X016278Y016242D01*
X016736Y016242D01*
X016736Y016262D01*
X016725Y016336D01*
X016701Y016407D01*
X016667Y016474D01*
X016623Y016535D01*
X016570Y016588D01*
X016509Y016632D01*
X016491Y016641D01*
X016509Y016651D01*
X016570Y016695D01*
X016623Y016748D01*
X016667Y016809D01*
X016701Y016876D01*
X016725Y016947D01*
X016736Y017021D01*
X016736Y017040D01*
X016278Y017040D01*
X016278Y017077D01*
X016736Y017077D01*
X016736Y017096D01*
X016725Y017170D01*
X016701Y017242D01*
X016667Y017309D01*
X016623Y017369D01*
X016570Y017422D01*
X016509Y017466D01*
X016449Y017497D01*
X016541Y017535D01*
X016681Y017675D01*
X016756Y017857D01*
X016756Y018055D01*
X016681Y018238D01*
X016541Y018378D01*
X016675Y018243D02*
X018685Y018243D01*
X018685Y018085D02*
X016744Y018085D01*
X016756Y017926D02*
X018685Y017926D01*
X018685Y017768D02*
X016719Y017768D01*
X016615Y017609D02*
X018685Y017609D01*
X018685Y017451D02*
X016531Y017451D01*
X016676Y017292D02*
X018685Y017292D01*
X018685Y017134D02*
X016730Y017134D01*
X016729Y016975D02*
X018685Y016975D01*
X018685Y016817D02*
X016671Y016817D01*
X016520Y016658D02*
X018685Y016658D01*
X018685Y016500D02*
X016649Y016500D01*
X016723Y016341D02*
X018685Y016341D01*
X018685Y016183D02*
X016736Y016183D01*
X016736Y016186D02*
X016736Y016206D01*
X016278Y016206D01*
X016278Y016242D01*
X016241Y016242D01*
X016241Y016206D01*
X015783Y016206D01*
X015783Y016186D01*
X015794Y016112D01*
X015818Y016041D01*
X015852Y015974D01*
X015896Y015913D01*
X015949Y015860D01*
X016010Y015816D01*
X016076Y015782D01*
X016148Y015759D01*
X016222Y015747D01*
X016241Y015747D01*
X016241Y016206D01*
X016278Y016206D01*
X016278Y015747D01*
X016297Y015747D01*
X016371Y015759D01*
X016443Y015782D01*
X016509Y015816D01*
X016570Y015860D01*
X016623Y015913D01*
X016667Y015974D01*
X016701Y016041D01*
X016725Y016112D01*
X016736Y016186D01*
X016693Y016024D02*
X018685Y016024D01*
X018685Y015866D02*
X016576Y015866D01*
X016409Y015644D02*
X016685Y015530D01*
X016896Y015319D01*
X017011Y015043D01*
X017011Y014744D01*
X016896Y014468D01*
X016685Y014256D01*
X016409Y014142D01*
X016110Y014142D01*
X015834Y014256D01*
X015623Y014468D01*
X015508Y014744D01*
X015508Y015043D01*
X015623Y015319D01*
X015834Y015530D01*
X016110Y015644D01*
X016409Y015644D01*
X016640Y015549D02*
X018685Y015549D01*
X018685Y015707D02*
X014346Y015707D01*
X014470Y015584D02*
X014200Y015853D01*
X013819Y015853D01*
X013550Y015584D01*
X013550Y015203D01*
X013819Y014933D01*
X014200Y014933D01*
X014470Y015203D01*
X014470Y015584D01*
X014470Y015549D02*
X015879Y015549D01*
X015694Y015390D02*
X014470Y015390D01*
X014470Y015232D02*
X015587Y015232D01*
X015521Y015073D02*
X014340Y015073D01*
X014200Y014853D02*
X013819Y014853D01*
X013550Y014584D01*
X013550Y014203D01*
X013819Y013933D01*
X014200Y013933D01*
X014470Y014203D01*
X014470Y014584D01*
X014200Y014853D01*
X014297Y014756D02*
X015508Y014756D01*
X015508Y014915D02*
X010111Y014915D01*
X010111Y014973D02*
X010779Y014973D01*
X010819Y014933D01*
X011200Y014933D01*
X011470Y015203D01*
X011470Y015584D01*
X011200Y015853D01*
X010819Y015853D01*
X010550Y015584D01*
X010550Y015465D01*
X010350Y015664D01*
X010111Y015664D01*
X010111Y014973D01*
X010111Y014813D01*
X010111Y014123D01*
X010350Y014123D01*
X010550Y014322D01*
X010550Y014301D01*
X009152Y012903D01*
X008911Y012903D01*
X008815Y012864D01*
X008443Y012492D01*
X008375Y012521D01*
X008144Y012521D01*
X007931Y012432D01*
X007768Y012269D01*
X007754Y012235D01*
X007702Y012305D01*
X007640Y012368D01*
X007569Y012420D01*
X007490Y012460D01*
X007406Y012487D01*
X007319Y012501D01*
X007294Y012501D01*
X007294Y011959D01*
X007257Y011959D01*
X007257Y012501D01*
X007231Y012501D01*
X007144Y012487D01*
X007060Y012460D01*
X006982Y012420D01*
X006910Y012368D01*
X006848Y012305D01*
X006796Y012234D01*
X006756Y012156D01*
X006729Y012072D01*
X006715Y011985D01*
X006715Y011959D01*
X007257Y011959D01*
X007257Y011922D01*
X007294Y011922D01*
X007294Y011381D01*
X007319Y011381D01*
X007406Y011394D01*
X007490Y011422D01*
X007569Y011462D01*
X007640Y011513D01*
X007702Y011576D01*
X007754Y011646D01*
X007768Y011612D01*
X007931Y011449D01*
X008144Y011361D01*
X008375Y011361D01*
X008588Y011449D01*
X008751Y011612D01*
X008752Y011613D01*
X008752Y011612D01*
X008915Y011449D01*
X009128Y011361D01*
X009359Y011361D01*
X009572Y011449D01*
X009735Y011612D01*
X009770Y011696D01*
X010624Y011696D01*
X010720Y011736D01*
X011050Y012066D01*
X011050Y012052D01*
X011120Y011883D01*
X011249Y011753D01*
X011418Y011683D01*
X011601Y011683D01*
X011770Y011753D01*
X011899Y011883D01*
X011970Y012052D01*
X011970Y012235D01*
X011899Y012404D01*
X011770Y012533D01*
X011601Y012603D01*
X011587Y012603D01*
X011680Y012696D01*
X015830Y012696D01*
X015829Y012696D02*
X015838Y012675D01*
X015978Y012535D01*
X016070Y012497D01*
X016010Y012466D01*
X015949Y012422D01*
X015896Y012369D01*
X015852Y012309D01*
X015818Y012242D01*
X015794Y012170D01*
X015783Y012096D01*
X015783Y012077D01*
X016241Y012077D01*
X016241Y012040D01*
X016278Y012040D01*
X016278Y011582D01*
X016278Y011242D01*
X016736Y011242D01*
X016736Y011262D01*
X016725Y011336D01*
X016701Y011407D01*
X016667Y011474D01*
X016623Y011535D01*
X016570Y011588D01*
X016509Y011632D01*
X016491Y011641D01*
X016509Y011651D01*
X016570Y011695D01*
X016623Y011748D01*
X016667Y011809D01*
X016701Y011876D01*
X016725Y011947D01*
X016736Y012021D01*
X016736Y012040D01*
X016278Y012040D01*
X016278Y012077D01*
X016736Y012077D01*
X016736Y012096D01*
X016725Y012170D01*
X016701Y012242D01*
X016667Y012309D01*
X016623Y012369D01*
X016570Y012422D01*
X016509Y012466D01*
X016449Y012497D01*
X016541Y012535D01*
X016681Y012675D01*
X016756Y012857D01*
X016756Y013055D01*
X016681Y013238D01*
X016541Y013378D01*
X016358Y013453D01*
X016161Y013453D01*
X015978Y013378D01*
X015838Y013238D01*
X015829Y013216D01*
X014470Y013216D01*
X014470Y013584D01*
X014200Y013853D01*
X013819Y013853D01*
X013550Y013584D01*
X013550Y013216D01*
X011521Y013216D01*
X011456Y013190D01*
X011470Y013203D01*
X011470Y013584D01*
X011200Y013853D01*
X010837Y013853D01*
X010917Y013933D01*
X011200Y013933D01*
X011470Y014203D01*
X011470Y014584D01*
X011200Y014853D01*
X010819Y014853D01*
X010779Y014813D01*
X010111Y014813D01*
X009951Y014813D01*
X009951Y014123D01*
X009712Y014123D01*
X009261Y014574D01*
X009261Y014813D01*
X009951Y014813D01*
X009951Y014973D01*
X009261Y014973D01*
X009261Y015212D01*
X009712Y015664D01*
X009951Y015664D01*
X009951Y014973D01*
X010111Y014973D01*
X010111Y015073D02*
X009951Y015073D01*
X009951Y014915D02*
X006568Y014915D01*
X006568Y014973D02*
X007258Y014973D01*
X007258Y015212D01*
X006807Y015664D01*
X006568Y015664D01*
X006568Y014973D01*
X006568Y014813D01*
X006568Y014123D01*
X006807Y014123D01*
X007258Y014574D01*
X007258Y014813D01*
X006568Y014813D01*
X006408Y014813D01*
X006408Y014123D01*
X006169Y014123D01*
X005717Y014574D01*
X005717Y014813D01*
X006408Y014813D01*
X006408Y014973D01*
X005717Y014973D01*
X005717Y015212D01*
X006169Y015664D01*
X006408Y015664D01*
X006408Y014973D01*
X006568Y014973D01*
X006568Y015073D02*
X006408Y015073D01*
X006408Y014915D02*
X005580Y014915D01*
X005580Y015073D02*
X005717Y015073D01*
X005737Y015232D02*
X005580Y015232D01*
X005569Y015390D02*
X005895Y015390D01*
X006054Y015549D02*
X005410Y015549D01*
X005380Y015707D02*
X010673Y015707D01*
X010550Y015549D02*
X010465Y015549D01*
X010111Y015549D02*
X009951Y015549D01*
X009951Y015390D02*
X010111Y015390D01*
X010111Y015232D02*
X009951Y015232D01*
X009951Y014756D02*
X010111Y014756D01*
X010111Y014598D02*
X009951Y014598D01*
X009951Y014439D02*
X010111Y014439D01*
X010111Y014281D02*
X009951Y014281D01*
X010212Y013964D02*
X005560Y013964D01*
X005560Y014122D02*
X010371Y014122D01*
X010508Y014281D02*
X010529Y014281D01*
X010054Y013805D02*
X005449Y013805D01*
X005291Y013647D02*
X009895Y013647D01*
X009737Y013488D02*
X005442Y013488D01*
X005560Y013330D02*
X009578Y013330D01*
X009420Y013171D02*
X005560Y013171D01*
X005560Y013013D02*
X009261Y013013D01*
X008806Y012854D02*
X005498Y012854D01*
X005340Y012696D02*
X008647Y012696D01*
X008489Y012537D02*
X005393Y012537D01*
X005552Y012379D02*
X006926Y012379D01*
X006789Y012220D02*
X005560Y012220D01*
X005560Y012062D02*
X006727Y012062D01*
X006715Y011922D02*
X006715Y011896D01*
X006729Y011809D01*
X006756Y011726D01*
X006796Y011647D01*
X006848Y011576D01*
X006910Y011513D01*
X006982Y011462D01*
X007060Y011422D01*
X007144Y011394D01*
X007231Y011381D01*
X007257Y011381D01*
X007257Y011922D01*
X006715Y011922D01*
X006715Y011903D02*
X005547Y011903D01*
X005389Y011745D02*
X006750Y011745D01*
X006840Y011586D02*
X005373Y011586D01*
X005531Y011428D02*
X007048Y011428D01*
X007257Y011428D02*
X007294Y011428D01*
X007294Y011586D02*
X007257Y011586D01*
X007257Y011745D02*
X007294Y011745D01*
X007294Y011903D02*
X007257Y011903D01*
X007257Y012062D02*
X007294Y012062D01*
X007294Y012220D02*
X007257Y012220D01*
X007257Y012379D02*
X007294Y012379D01*
X007625Y012379D02*
X007878Y012379D01*
X007793Y011586D02*
X007710Y011586D01*
X007502Y011428D02*
X007982Y011428D01*
X008537Y011428D02*
X008966Y011428D01*
X008778Y011586D02*
X008726Y011586D01*
X009069Y010853D02*
X008800Y010584D01*
X008800Y010203D01*
X009069Y009933D01*
X009450Y009933D01*
X009650Y010133D01*
X010619Y010133D01*
X010819Y009933D01*
X011200Y009933D01*
X011470Y010203D01*
X011470Y010584D01*
X011200Y010853D01*
X010819Y010853D01*
X010619Y010653D01*
X009650Y010653D01*
X009450Y010853D01*
X009069Y010853D01*
X009009Y010794D02*
X006510Y010794D01*
X006450Y010853D02*
X006069Y010853D01*
X005800Y010584D01*
X005800Y010203D01*
X006069Y009933D01*
X006450Y009933D01*
X006720Y010203D01*
X006720Y010584D01*
X006450Y010853D01*
X006668Y010635D02*
X008851Y010635D01*
X008800Y010477D02*
X006720Y010477D01*
X006720Y010318D02*
X008800Y010318D01*
X008842Y010160D02*
X006677Y010160D01*
X006518Y010001D02*
X009001Y010001D01*
X009518Y010001D02*
X010751Y010001D01*
X010827Y009833D02*
X010570Y009576D01*
X010570Y009393D01*
X010570Y009211D01*
X010827Y008953D01*
X011010Y008953D01*
X011192Y008953D01*
X011450Y009211D01*
X011450Y009393D01*
X011010Y009393D01*
X011010Y009393D01*
X011010Y008953D01*
X011010Y009393D01*
X011010Y009393D01*
X011450Y009393D01*
X011450Y009576D01*
X011192Y009833D01*
X011010Y009833D01*
X011010Y009393D01*
X011010Y009393D01*
X010570Y009393D01*
X011010Y009393D01*
X011010Y009393D01*
X011010Y009833D01*
X010827Y009833D01*
X010678Y009684D02*
X005790Y009684D01*
X005830Y009780D02*
X005743Y009570D01*
X005582Y009410D01*
X005373Y009323D01*
X005146Y009323D01*
X004937Y009410D01*
X004776Y009570D01*
X004690Y009780D01*
X004690Y010007D01*
X004776Y010216D01*
X004937Y010377D01*
X005146Y010463D01*
X005373Y010463D01*
X005582Y010377D01*
X005743Y010216D01*
X005830Y010007D01*
X005830Y009780D01*
X005830Y009843D02*
X013808Y009843D01*
X013819Y009853D02*
X013550Y009584D01*
X013550Y009203D01*
X013819Y008933D01*
X014200Y008933D01*
X014470Y009203D01*
X014470Y009584D01*
X014200Y009853D01*
X013819Y009853D01*
X013819Y009933D02*
X014200Y009933D01*
X014470Y010203D01*
X014470Y010383D01*
X015687Y010383D01*
X015623Y010319D01*
X015508Y010043D01*
X015508Y009744D01*
X015623Y009468D01*
X015834Y009256D01*
X016110Y009142D01*
X016409Y009142D01*
X016685Y009256D01*
X016896Y009468D01*
X017011Y009744D01*
X017011Y010043D01*
X016896Y010319D01*
X016832Y010383D01*
X016985Y010383D01*
X017045Y010323D01*
X017184Y010265D01*
X017335Y010265D01*
X017474Y010323D01*
X017580Y010429D01*
X017638Y010568D01*
X017638Y010719D01*
X017580Y010857D01*
X017474Y010964D01*
X017335Y011021D01*
X017184Y011021D01*
X017045Y010964D01*
X016985Y010903D01*
X016613Y010903D01*
X016623Y010913D01*
X016667Y010974D01*
X016701Y011041D01*
X016725Y011112D01*
X016736Y011186D01*
X016736Y011206D01*
X016278Y011206D01*
X016278Y011242D01*
X016241Y011242D01*
X016241Y011206D01*
X015783Y011206D01*
X015783Y011186D01*
X015794Y011112D01*
X015818Y011041D01*
X015852Y010974D01*
X015896Y010913D01*
X015906Y010903D01*
X014208Y010903D01*
X014112Y010864D01*
X014102Y010853D01*
X013819Y010853D01*
X013550Y010584D01*
X013550Y010203D01*
X013819Y009933D01*
X013751Y010001D02*
X011268Y010001D01*
X011427Y010160D02*
X013592Y010160D01*
X013550Y010318D02*
X011470Y010318D01*
X011470Y010477D02*
X013550Y010477D01*
X013601Y010635D02*
X011418Y010635D01*
X011260Y010794D02*
X013759Y010794D01*
X013613Y011714D02*
X013544Y011703D01*
X013510Y011703D01*
X013510Y012143D01*
X013510Y012143D01*
X013950Y012143D01*
X013950Y012109D01*
X013939Y012040D01*
X013917Y011974D01*
X013886Y011913D01*
X013845Y011857D01*
X013796Y011808D01*
X013740Y011767D01*
X013678Y011736D01*
X013613Y011714D01*
X013697Y011745D02*
X015899Y011745D01*
X015896Y011748D02*
X015949Y011695D01*
X016010Y011651D01*
X016028Y011641D01*
X016010Y011632D01*
X015949Y011588D01*
X015896Y011535D01*
X015852Y011474D01*
X015818Y011407D01*
X015794Y011336D01*
X015783Y011262D01*
X015783Y011242D01*
X016241Y011242D01*
X016241Y012040D01*
X015783Y012040D01*
X015783Y012021D01*
X015794Y011947D01*
X015818Y011876D01*
X015852Y011809D01*
X015896Y011748D01*
X015947Y011586D02*
X009710Y011586D01*
X009522Y011428D02*
X015828Y011428D01*
X015784Y011269D02*
X005580Y011269D01*
X005580Y011111D02*
X015795Y011111D01*
X015867Y010952D02*
X005580Y010952D01*
X005466Y010794D02*
X006009Y010794D01*
X005851Y010635D02*
X005308Y010635D01*
X005641Y010318D02*
X005800Y010318D01*
X005800Y010477D02*
X003578Y010477D01*
X003578Y010635D02*
X003711Y010635D01*
X003628Y010318D02*
X003578Y010318D01*
X003578Y009367D02*
X003790Y009367D01*
X003578Y009209D02*
X010572Y009209D01*
X010570Y009367D02*
X005479Y009367D01*
X005698Y009526D02*
X010570Y009526D01*
X010730Y009050D02*
X003578Y009050D01*
X003578Y008892D02*
X008223Y008892D01*
X008189Y008857D02*
X008131Y008719D01*
X008131Y008568D01*
X008189Y008429D01*
X008295Y008323D01*
X008434Y008265D01*
X008585Y008265D01*
X008724Y008323D01*
X008784Y008383D01*
X015487Y008383D01*
X015775Y008085D01*
X015763Y008055D01*
X015763Y007857D01*
X015838Y007675D01*
X015978Y007535D01*
X016070Y007497D01*
X016010Y007466D01*
X015949Y007422D01*
X015896Y007369D01*
X015852Y007309D01*
X015818Y007242D01*
X015794Y007170D01*
X015783Y007096D01*
X015783Y007077D01*
X016241Y007077D01*
X016241Y007040D01*
X015783Y007040D01*
X015783Y007021D01*
X015794Y006947D01*
X015818Y006876D01*
X015852Y006809D01*
X015896Y006748D01*
X015949Y006695D01*
X016003Y006656D01*
X015978Y006645D01*
X015838Y006505D01*
X015763Y006323D01*
X015763Y006125D01*
X015838Y005943D01*
X015978Y005803D01*
X016161Y005727D01*
X016358Y005727D01*
X016541Y005803D01*
X016681Y005943D01*
X016756Y006125D01*
X016756Y006323D01*
X016681Y006505D01*
X016541Y006645D01*
X016516Y006656D01*
X016570Y006695D01*
X016623Y006748D01*
X016667Y006809D01*
X016701Y006876D01*
X016725Y006947D01*
X016736Y007021D01*
X016736Y007040D01*
X016278Y007040D01*
X016278Y007077D01*
X016736Y007077D01*
X016736Y007096D01*
X016725Y007170D01*
X016701Y007242D01*
X016667Y007309D01*
X016623Y007369D01*
X016570Y007422D01*
X016509Y007466D01*
X016449Y007497D01*
X016541Y007535D01*
X016681Y007675D01*
X016756Y007857D01*
X016756Y008055D01*
X016681Y008238D01*
X016541Y008378D01*
X016358Y008453D01*
X016161Y008453D01*
X016147Y008448D01*
X015819Y008788D01*
X015819Y008791D01*
X015784Y008825D01*
X015750Y008861D01*
X015747Y008862D01*
X015745Y008864D01*
X015700Y008883D01*
X015655Y008902D01*
X015652Y008902D01*
X015650Y008903D01*
X015601Y008903D01*
X015551Y008904D01*
X015549Y008903D01*
X008784Y008903D01*
X008724Y008964D01*
X008585Y009021D01*
X008434Y009021D01*
X008295Y008964D01*
X008189Y008857D01*
X008138Y008733D02*
X003578Y008733D01*
X003578Y008575D02*
X008131Y008575D01*
X008202Y008416D02*
X005486Y008416D01*
X005582Y008377D02*
X005373Y008463D01*
X005146Y008463D01*
X004937Y008377D01*
X004776Y008216D01*
X004690Y008007D01*
X004690Y007780D01*
X004776Y007570D01*
X004937Y007410D01*
X004951Y007404D01*
X004925Y007393D01*
X004759Y007228D01*
X004670Y007011D01*
X004670Y006776D01*
X004759Y006559D01*
X004925Y006393D01*
X005142Y006303D01*
X005377Y006303D01*
X005594Y006393D01*
X005760Y006559D01*
X005850Y006776D01*
X005850Y006942D01*
X006169Y006623D01*
X006408Y006623D01*
X006408Y007313D01*
X006568Y007313D01*
X006568Y006623D01*
X006807Y006623D01*
X007258Y007074D01*
X007258Y007313D01*
X006568Y007313D01*
X006568Y007473D01*
X007258Y007473D01*
X007258Y007712D01*
X006807Y008164D01*
X006568Y008164D01*
X006568Y007473D01*
X006408Y007473D01*
X006408Y007313D01*
X005717Y007313D01*
X005717Y007270D01*
X005594Y007393D01*
X005568Y007404D01*
X005582Y007410D01*
X005717Y007545D01*
X005717Y007473D01*
X006408Y007473D01*
X006408Y008164D01*
X006169Y008164D01*
X005830Y007825D01*
X005830Y008007D01*
X005743Y008216D01*
X005582Y008377D01*
X005701Y008258D02*
X011263Y008258D01*
X011279Y008270D02*
X011223Y008229D01*
X011174Y008180D01*
X011133Y008124D01*
X011102Y008062D01*
X011080Y007996D01*
X011070Y007928D01*
X011070Y007893D01*
X011070Y007859D01*
X011080Y007790D01*
X011102Y007724D01*
X011133Y007663D01*
X011174Y007607D01*
X011223Y007558D01*
X011279Y007517D01*
X011341Y007486D01*
X011406Y007464D01*
X011475Y007453D01*
X011510Y007453D01*
X011544Y007453D01*
X011613Y007464D01*
X011678Y007486D01*
X011740Y007517D01*
X011796Y007558D01*
X011845Y007607D01*
X011886Y007663D01*
X011917Y007724D01*
X011939Y007790D01*
X011950Y007859D01*
X011950Y007893D01*
X011510Y007893D01*
X011510Y007893D01*
X011510Y007453D01*
X011510Y007893D01*
X011510Y007893D01*
X011950Y007893D01*
X011950Y007928D01*
X011939Y007996D01*
X011917Y008062D01*
X011886Y008124D01*
X011845Y008180D01*
X011796Y008229D01*
X011740Y008270D01*
X011678Y008301D01*
X011613Y008322D01*
X011544Y008333D01*
X011510Y008333D01*
X011510Y007893D01*
X011510Y007893D01*
X011070Y007893D01*
X011510Y007893D01*
X011510Y007893D01*
X011510Y008333D01*
X011475Y008333D01*
X011406Y008322D01*
X011341Y008301D01*
X011279Y008270D01*
X011510Y008258D02*
X011510Y008258D01*
X011510Y008099D02*
X011510Y008099D01*
X011510Y007941D02*
X011510Y007941D01*
X011510Y007782D02*
X011510Y007782D01*
X011510Y007624D02*
X011510Y007624D01*
X011510Y007465D02*
X011510Y007465D01*
X011616Y007465D02*
X012341Y007465D01*
X012418Y007433D02*
X012601Y007433D01*
X012770Y007503D01*
X012899Y007633D01*
X012970Y007802D01*
X012970Y007985D01*
X012899Y008154D01*
X012770Y008283D01*
X012601Y008353D01*
X012418Y008353D01*
X012249Y008283D01*
X012120Y008154D01*
X012050Y007985D01*
X012050Y007802D01*
X012120Y007633D01*
X012249Y007503D01*
X012418Y007433D01*
X012128Y007624D02*
X011858Y007624D01*
X011936Y007782D02*
X012058Y007782D01*
X012050Y007941D02*
X011947Y007941D01*
X011898Y008099D02*
X012097Y008099D01*
X012223Y008258D02*
X011756Y008258D01*
X011403Y007465D02*
X010111Y007465D01*
X010111Y007473D02*
X010802Y007473D01*
X010802Y007712D01*
X010350Y008164D01*
X010111Y008164D01*
X010111Y007473D01*
X010111Y007313D01*
X010111Y006623D01*
X010350Y006623D01*
X010802Y007074D01*
X010802Y007313D01*
X010111Y007313D01*
X009951Y007313D01*
X009951Y006623D01*
X009712Y006623D01*
X009261Y007074D01*
X009261Y007313D01*
X009951Y007313D01*
X009951Y007473D01*
X009261Y007473D01*
X009261Y007712D01*
X009712Y008164D01*
X009951Y008164D01*
X009951Y007473D01*
X010111Y007473D01*
X010111Y007624D02*
X009951Y007624D01*
X009951Y007782D02*
X010111Y007782D01*
X010111Y007941D02*
X009951Y007941D01*
X009951Y008099D02*
X010111Y008099D01*
X010415Y008099D02*
X011121Y008099D01*
X011072Y007941D02*
X010573Y007941D01*
X010732Y007782D02*
X011083Y007782D01*
X011161Y007624D02*
X010802Y007624D01*
X010802Y007307D02*
X015851Y007307D01*
X015791Y007148D02*
X010802Y007148D01*
X010827Y007083D02*
X010570Y006826D01*
X010570Y006643D01*
X010570Y006461D01*
X010697Y006333D01*
X010577Y006333D01*
X010320Y006076D01*
X010320Y005893D01*
X010320Y005711D01*
X010577Y005453D01*
X010760Y005453D01*
X010942Y005453D01*
X011200Y005711D01*
X011200Y005893D01*
X010760Y005893D01*
X010760Y005893D01*
X010760Y005453D01*
X010760Y005893D01*
X010760Y005893D01*
X011200Y005893D01*
X011200Y006076D01*
X011072Y006203D01*
X011192Y006203D01*
X011450Y006461D01*
X011450Y006643D01*
X011010Y006643D01*
X011010Y006643D01*
X011450Y006643D01*
X011450Y006826D01*
X011192Y007083D01*
X011010Y007083D01*
X011010Y006643D01*
X011010Y006643D01*
X010570Y006643D01*
X011010Y006643D01*
X011010Y006643D01*
X011010Y007083D01*
X010827Y007083D01*
X010734Y006990D02*
X010717Y006990D01*
X010575Y006831D02*
X010559Y006831D01*
X010570Y006673D02*
X010400Y006673D01*
X010570Y006514D02*
X005715Y006514D01*
X005807Y006673D02*
X006119Y006673D01*
X005960Y006831D02*
X005850Y006831D01*
X005717Y007307D02*
X005680Y007307D01*
X005638Y007465D02*
X006408Y007465D01*
X006408Y007307D02*
X006568Y007307D01*
X006568Y007465D02*
X009951Y007465D01*
X009951Y007307D02*
X010111Y007307D01*
X010111Y007148D02*
X009951Y007148D01*
X009951Y006990D02*
X010111Y006990D01*
X010111Y006831D02*
X009951Y006831D01*
X009951Y006673D02*
X010111Y006673D01*
X010441Y006197D02*
X003578Y006197D01*
X003578Y006039D02*
X010320Y006039D01*
X010320Y005893D02*
X010760Y005893D01*
X010320Y005893D01*
X010320Y005880D02*
X003578Y005880D01*
X003578Y005722D02*
X010320Y005722D01*
X010467Y005563D02*
X003578Y005563D01*
X003578Y005405D02*
X011800Y005405D01*
X011800Y005485D02*
X011800Y005302D01*
X011870Y005133D01*
X011999Y005003D01*
X012168Y004933D01*
X012351Y004933D01*
X012520Y005003D01*
X012649Y005133D01*
X012720Y005302D01*
X012720Y005485D01*
X012649Y005654D01*
X012520Y005783D01*
X012351Y005853D01*
X012168Y005853D01*
X011999Y005783D01*
X011870Y005654D01*
X011800Y005485D01*
X011832Y005563D02*
X011052Y005563D01*
X011200Y005722D02*
X011937Y005722D01*
X011823Y005246D02*
X003578Y005246D01*
X003578Y005088D02*
X011914Y005088D01*
X011917Y004853D02*
X011800Y004736D01*
X011800Y004050D01*
X011917Y003933D01*
X012602Y003933D01*
X012720Y004050D01*
X012720Y004736D01*
X012602Y004853D01*
X011917Y004853D01*
X011834Y004771D02*
X009734Y004771D01*
X009735Y004769D02*
X009572Y004932D01*
X009359Y005021D01*
X009128Y005021D01*
X008915Y004932D01*
X008752Y004769D01*
X008752Y004768D01*
X008751Y004769D01*
X008588Y004932D01*
X008375Y005021D01*
X008144Y005021D01*
X007931Y004932D01*
X007768Y004769D01*
X007754Y004735D01*
X007702Y004805D01*
X007640Y004868D01*
X007569Y004920D01*
X007490Y004960D01*
X007406Y004987D01*
X007319Y005001D01*
X007294Y005001D01*
X007294Y004459D01*
X007257Y004459D01*
X007257Y005001D01*
X007231Y005001D01*
X007144Y004987D01*
X007060Y004960D01*
X006982Y004920D01*
X006910Y004868D01*
X006848Y004805D01*
X006796Y004734D01*
X006756Y004656D01*
X006729Y004572D01*
X006715Y004485D01*
X006715Y004459D01*
X007257Y004459D01*
X007257Y004422D01*
X007294Y004422D01*
X007294Y003881D01*
X007319Y003881D01*
X007406Y003894D01*
X007490Y003922D01*
X007569Y003962D01*
X007640Y004013D01*
X007702Y004076D01*
X007754Y004146D01*
X007768Y004112D01*
X007931Y003949D01*
X008144Y003861D01*
X008375Y003861D01*
X008588Y003949D01*
X008751Y004112D01*
X008752Y004113D01*
X008752Y004112D01*
X008915Y003949D01*
X009128Y003861D01*
X009359Y003861D01*
X009572Y003949D01*
X009735Y004112D01*
X009824Y004325D01*
X009824Y004556D01*
X009735Y004769D01*
X009800Y004612D02*
X011800Y004612D01*
X011800Y004454D02*
X009824Y004454D01*
X009811Y004295D02*
X011800Y004295D01*
X011800Y004137D02*
X009746Y004137D01*
X009602Y003978D02*
X011872Y003978D01*
X012605Y005088D02*
X015527Y005088D01*
X015508Y005043D02*
X015508Y004744D01*
X015623Y004468D01*
X015834Y004256D01*
X016110Y004142D01*
X016409Y004142D01*
X016685Y004256D01*
X016896Y004468D01*
X017011Y004744D01*
X017011Y005043D01*
X016896Y005319D01*
X016685Y005530D01*
X016409Y005644D01*
X016110Y005644D01*
X015834Y005530D01*
X015623Y005319D01*
X015508Y005043D01*
X015508Y004929D02*
X009575Y004929D01*
X008912Y004929D02*
X008591Y004929D01*
X008749Y004771D02*
X008754Y004771D01*
X008886Y003978D02*
X008618Y003978D01*
X007902Y003978D02*
X007592Y003978D01*
X007747Y004137D02*
X007758Y004137D01*
X007294Y004137D02*
X007257Y004137D01*
X007257Y004295D02*
X007294Y004295D01*
X007257Y004422D02*
X007257Y003881D01*
X007231Y003881D01*
X007144Y003894D01*
X007060Y003922D01*
X006982Y003962D01*
X006910Y004013D01*
X006848Y004076D01*
X006796Y004147D01*
X006756Y004226D01*
X006729Y004309D01*
X006715Y004396D01*
X006715Y004422D01*
X007257Y004422D01*
X007257Y004454D02*
X003578Y004454D01*
X003578Y004612D02*
X006742Y004612D01*
X006823Y004771D02*
X003578Y004771D01*
X003578Y004929D02*
X007001Y004929D01*
X007257Y004929D02*
X007294Y004929D01*
X007294Y004771D02*
X007257Y004771D01*
X007257Y004612D02*
X007294Y004612D01*
X007550Y004929D02*
X007928Y004929D01*
X007770Y004771D02*
X007728Y004771D01*
X007294Y003978D02*
X007257Y003978D01*
X006959Y003978D02*
X003578Y003978D01*
X003578Y003820D02*
X018685Y003820D01*
X018685Y003978D02*
X012647Y003978D01*
X012720Y004137D02*
X018685Y004137D01*
X018685Y004295D02*
X016724Y004295D01*
X016882Y004454D02*
X018685Y004454D01*
X018685Y004612D02*
X016956Y004612D01*
X017011Y004771D02*
X018685Y004771D01*
X018685Y004929D02*
X017011Y004929D01*
X016992Y005088D02*
X018685Y005088D01*
X018685Y005246D02*
X016926Y005246D01*
X016810Y005405D02*
X018685Y005405D01*
X018685Y005563D02*
X016605Y005563D01*
X016618Y005880D02*
X018685Y005880D01*
X018685Y005722D02*
X014220Y005722D01*
X014220Y005703D02*
X013950Y005433D01*
X013569Y005433D01*
X013300Y005703D01*
X013300Y006084D01*
X013569Y006353D01*
X013649Y006353D01*
X013550Y006453D01*
X013550Y006834D01*
X013819Y007103D01*
X014200Y007103D01*
X014470Y006834D01*
X014470Y006453D01*
X014200Y006183D01*
X014120Y006183D01*
X014220Y006084D01*
X014220Y005703D01*
X014220Y005880D02*
X015901Y005880D01*
X015798Y006039D02*
X014220Y006039D01*
X014214Y006197D02*
X015763Y006197D01*
X015776Y006356D02*
X014373Y006356D01*
X014470Y006514D02*
X015847Y006514D01*
X015979Y006673D02*
X014470Y006673D01*
X014470Y006831D02*
X015840Y006831D01*
X015788Y006990D02*
X014314Y006990D01*
X013770Y007503D02*
X013899Y007633D01*
X013970Y007802D01*
X013970Y007985D01*
X013899Y008154D01*
X013770Y008283D01*
X013601Y008353D01*
X013418Y008353D01*
X013249Y008283D01*
X013120Y008154D01*
X013050Y007985D01*
X013050Y007802D01*
X013120Y007633D01*
X013249Y007503D01*
X013418Y007433D01*
X013601Y007433D01*
X013770Y007503D01*
X013678Y007465D02*
X016008Y007465D01*
X015889Y007624D02*
X013891Y007624D01*
X013961Y007782D02*
X015794Y007782D01*
X015763Y007941D02*
X013970Y007941D01*
X013922Y008099D02*
X015761Y008099D01*
X015608Y008258D02*
X013796Y008258D01*
X013223Y008258D02*
X012796Y008258D01*
X012922Y008099D02*
X013097Y008099D01*
X013050Y007941D02*
X012970Y007941D01*
X012961Y007782D02*
X013058Y007782D01*
X013128Y007624D02*
X012891Y007624D01*
X012678Y007465D02*
X013341Y007465D01*
X013550Y006831D02*
X011444Y006831D01*
X011450Y006673D02*
X013550Y006673D01*
X013550Y006514D02*
X011450Y006514D01*
X011344Y006356D02*
X013646Y006356D01*
X013705Y006990D02*
X011285Y006990D01*
X011010Y006990D02*
X011010Y006990D01*
X011010Y006831D02*
X011010Y006831D01*
X011010Y006673D02*
X011010Y006673D01*
X011078Y006197D02*
X013413Y006197D01*
X013300Y006039D02*
X011200Y006039D01*
X011200Y005880D02*
X013300Y005880D01*
X013300Y005722D02*
X012582Y005722D01*
X012687Y005563D02*
X013439Y005563D01*
X014080Y005563D02*
X015914Y005563D01*
X015709Y005405D02*
X012720Y005405D01*
X012697Y005246D02*
X015593Y005246D01*
X015508Y004771D02*
X012685Y004771D01*
X012720Y004612D02*
X015563Y004612D01*
X015637Y004454D02*
X012720Y004454D01*
X012720Y004295D02*
X015795Y004295D01*
X015945Y003344D02*
X013959Y003344D01*
X014118Y003186D02*
X015817Y003186D01*
X015763Y003027D02*
X014220Y003027D01*
X014220Y002869D02*
X015763Y002869D01*
X015824Y002710D02*
X014220Y002710D01*
X013560Y003344D02*
X010959Y003344D01*
X011118Y003186D02*
X013401Y003186D01*
X013300Y003027D02*
X011220Y003027D01*
X011220Y002869D02*
X013300Y002869D01*
X013300Y002710D02*
X011220Y002710D01*
X010560Y003344D02*
X005609Y003344D01*
X005631Y003328D02*
X005558Y003381D01*
X005478Y003422D01*
X005393Y003449D01*
X005304Y003463D01*
X005278Y003463D01*
X005278Y002912D01*
X005830Y002912D01*
X005830Y002938D01*
X005815Y003027D01*
X010300Y003027D01*
X010300Y002869D02*
X005830Y002869D01*
X005815Y003027D02*
X005788Y003112D01*
X005747Y003192D01*
X005694Y003265D01*
X005631Y003328D01*
X005750Y003186D02*
X010401Y003186D01*
X010300Y002710D02*
X005799Y002710D01*
X005278Y003027D02*
X005241Y003027D01*
X005241Y002912D02*
X005241Y002875D01*
X004690Y002875D01*
X004690Y002848D01*
X004704Y002760D01*
X004731Y002675D01*
X004772Y002595D01*
X004773Y002593D01*
X004496Y002593D01*
X004497Y002595D01*
X004538Y002675D01*
X004565Y002760D01*
X004580Y002848D01*
X004580Y002875D01*
X004028Y002875D01*
X004028Y002912D01*
X004580Y002912D01*
X004580Y002938D01*
X004565Y003027D01*
X004704Y003027D02*
X004690Y002938D01*
X004690Y002912D01*
X005241Y002912D01*
X005241Y003186D02*
X005278Y003186D01*
X005278Y003344D02*
X005241Y003344D01*
X004911Y003344D02*
X004359Y003344D01*
X004500Y003186D02*
X004769Y003186D01*
X004690Y002869D02*
X004580Y002869D01*
X004549Y002710D02*
X004720Y002710D01*
X004028Y003027D02*
X003991Y003027D01*
X003991Y003186D02*
X004028Y003186D01*
X004028Y003344D02*
X003991Y003344D01*
X003661Y003344D02*
X003578Y003344D01*
X003578Y003503D02*
X018685Y003503D01*
X018685Y003661D02*
X003578Y003661D01*
X003578Y004137D02*
X006804Y004137D01*
X006734Y004295D02*
X003578Y004295D01*
X003578Y006356D02*
X003765Y006356D01*
X004254Y006356D02*
X005015Y006356D01*
X004804Y006514D02*
X004465Y006514D01*
X004557Y006673D02*
X004712Y006673D01*
X004670Y006831D02*
X004600Y006831D01*
X004600Y006990D02*
X004670Y006990D01*
X004727Y007148D02*
X004542Y007148D01*
X004430Y007307D02*
X004839Y007307D01*
X004881Y007465D02*
X004388Y007465D01*
X004515Y007624D02*
X004754Y007624D01*
X004690Y007782D02*
X004580Y007782D01*
X004580Y007941D02*
X004690Y007941D01*
X004728Y008099D02*
X004541Y008099D01*
X004451Y008258D02*
X004818Y008258D01*
X005033Y008416D02*
X004236Y008416D01*
X003783Y008416D02*
X003578Y008416D01*
X004229Y009367D02*
X005040Y009367D01*
X004821Y009526D02*
X004448Y009526D01*
X004540Y009684D02*
X004729Y009684D01*
X004690Y009843D02*
X004580Y009843D01*
X004580Y010001D02*
X004690Y010001D01*
X004753Y010160D02*
X004516Y010160D01*
X004391Y010318D02*
X004878Y010318D01*
X004711Y010635D02*
X004308Y010635D01*
X004466Y010794D02*
X004553Y010794D01*
X004560Y012163D02*
X004030Y012163D01*
X004030Y012123D01*
X004990Y012123D01*
X004990Y012163D01*
X004990Y013123D01*
X005030Y013123D01*
X005030Y012593D01*
X005030Y012163D01*
X004990Y012163D01*
X004560Y012163D01*
X004990Y012220D02*
X005030Y012220D01*
X005030Y012379D02*
X004990Y012379D01*
X004990Y012537D02*
X005030Y012537D01*
X005030Y012696D02*
X004990Y012696D01*
X004990Y012854D02*
X005030Y012854D01*
X005030Y013013D02*
X004990Y013013D01*
X004990Y013123D02*
X004030Y013123D01*
X004030Y013163D01*
X004560Y013163D01*
X004990Y013163D01*
X004990Y014123D01*
X005030Y014123D01*
X005030Y013693D01*
X005030Y013163D01*
X004990Y013163D01*
X004990Y013123D01*
X004990Y013171D02*
X005030Y013171D01*
X005030Y013330D02*
X004990Y013330D01*
X004990Y013488D02*
X005030Y013488D01*
X005030Y013647D02*
X004990Y013647D01*
X004990Y013805D02*
X005030Y013805D01*
X005030Y013964D02*
X004990Y013964D01*
X004990Y014122D02*
X005030Y014122D01*
X004990Y014123D02*
X004030Y014123D01*
X004030Y014163D01*
X004460Y014163D01*
X004990Y014163D01*
X004990Y014123D01*
X005333Y014598D02*
X005717Y014598D01*
X005717Y014756D02*
X005429Y014756D01*
X005491Y014439D02*
X005852Y014439D01*
X006011Y014281D02*
X005560Y014281D01*
X006408Y014281D02*
X006568Y014281D01*
X006568Y014439D02*
X006408Y014439D01*
X006408Y014598D02*
X006568Y014598D01*
X006568Y014756D02*
X006408Y014756D01*
X006408Y015232D02*
X006568Y015232D01*
X006568Y015390D02*
X006408Y015390D01*
X006408Y015549D02*
X006568Y015549D01*
X006922Y015549D02*
X009597Y015549D01*
X009438Y015390D02*
X007081Y015390D01*
X007239Y015232D02*
X009280Y015232D01*
X009261Y015073D02*
X007258Y015073D01*
X007258Y014756D02*
X009261Y014756D01*
X009261Y014598D02*
X007258Y014598D01*
X007124Y014439D02*
X009395Y014439D01*
X009554Y014281D02*
X006965Y014281D01*
X005538Y015866D02*
X015943Y015866D01*
X015826Y016024D02*
X014291Y016024D01*
X014200Y015933D02*
X014470Y016203D01*
X014470Y016584D01*
X014200Y016853D01*
X013819Y016853D01*
X013550Y016584D01*
X013550Y016203D01*
X013819Y015933D01*
X014200Y015933D01*
X014450Y016183D02*
X015783Y016183D01*
X015783Y016242D02*
X016241Y016242D01*
X016241Y017040D01*
X015783Y017040D01*
X015783Y017021D01*
X015794Y016947D01*
X015818Y016876D01*
X015852Y016809D01*
X015896Y016748D01*
X015949Y016695D01*
X016010Y016651D01*
X016028Y016641D01*
X016010Y016632D01*
X015949Y016588D01*
X015896Y016535D01*
X015852Y016474D01*
X015818Y016407D01*
X015794Y016336D01*
X015783Y016262D01*
X015783Y016242D01*
X015796Y016341D02*
X014470Y016341D01*
X014470Y016500D02*
X015870Y016500D01*
X015999Y016658D02*
X014395Y016658D01*
X014237Y016817D02*
X015848Y016817D01*
X015790Y016975D02*
X014242Y016975D01*
X014200Y016933D02*
X014470Y017203D01*
X014470Y017584D01*
X014200Y017853D01*
X013819Y017853D01*
X013550Y017584D01*
X013550Y017203D01*
X013819Y016933D01*
X014200Y016933D01*
X014401Y017134D02*
X015789Y017134D01*
X015843Y017292D02*
X014470Y017292D01*
X014470Y017451D02*
X015988Y017451D01*
X015904Y017609D02*
X014444Y017609D01*
X014286Y017768D02*
X015800Y017768D01*
X015763Y017926D02*
X010929Y017926D01*
X011010Y018085D02*
X011010Y018085D01*
X011010Y018243D02*
X011010Y018243D01*
X011010Y018393D02*
X011010Y018393D01*
X011010Y018833D01*
X010827Y018833D01*
X010570Y018576D01*
X010570Y018393D01*
X011010Y018393D01*
X011010Y018402D02*
X011010Y018402D01*
X011010Y018560D02*
X011010Y018560D01*
X011010Y018719D02*
X011010Y018719D01*
X010713Y018719D02*
X010137Y018719D01*
X010295Y018560D02*
X010570Y018560D01*
X010570Y018402D02*
X010454Y018402D01*
X010182Y017768D02*
X008093Y017768D01*
X008085Y017771D02*
X007934Y017771D01*
X007795Y017714D01*
X007735Y017653D01*
X007034Y017653D01*
X006974Y017714D01*
X006835Y017771D01*
X006684Y017771D01*
X006545Y017714D01*
X006439Y017607D01*
X006381Y017469D01*
X006381Y017318D01*
X006439Y017179D01*
X006545Y017073D01*
X006684Y017015D01*
X006835Y017015D01*
X006974Y017073D01*
X007034Y017133D01*
X007735Y017133D01*
X007795Y017073D01*
X007934Y017015D01*
X008085Y017015D01*
X008224Y017073D01*
X008330Y017179D01*
X008388Y017318D01*
X008388Y017469D01*
X008330Y017607D01*
X008224Y017714D01*
X008085Y017771D01*
X007926Y017768D02*
X006843Y017768D01*
X006676Y017768D02*
X005440Y017768D01*
X005350Y017609D02*
X006441Y017609D01*
X006381Y017451D02*
X005508Y017451D01*
X005580Y017292D02*
X006392Y017292D01*
X006484Y017134D02*
X005580Y017134D01*
X005580Y016975D02*
X010777Y016975D01*
X010819Y016853D02*
X010550Y016584D01*
X010550Y016203D01*
X010819Y015933D01*
X011200Y015933D01*
X011470Y016203D01*
X011470Y016584D01*
X011200Y016853D01*
X010819Y016853D01*
X010782Y016817D02*
X005489Y016817D01*
X005331Y016658D02*
X010624Y016658D01*
X010550Y016500D02*
X005459Y016500D01*
X005580Y016341D02*
X010550Y016341D01*
X010569Y016183D02*
X005580Y016183D01*
X005580Y016024D02*
X010728Y016024D01*
X011237Y016817D02*
X013782Y016817D01*
X013777Y016975D02*
X011242Y016975D01*
X011401Y017134D02*
X013618Y017134D01*
X013550Y017292D02*
X011470Y017292D01*
X011470Y017451D02*
X013550Y017451D01*
X013575Y017609D02*
X011444Y017609D01*
X011286Y017768D02*
X013734Y017768D01*
X013667Y018085D02*
X011323Y018085D01*
X011450Y018243D02*
X013550Y018243D01*
X013550Y018402D02*
X011450Y018402D01*
X011450Y018560D02*
X013550Y018560D01*
X013566Y018719D02*
X011306Y018719D01*
X011814Y019036D02*
X009659Y019036D01*
X009770Y019194D02*
X011800Y019194D01*
X011800Y019353D02*
X009824Y019353D01*
X009824Y019511D02*
X011800Y019511D01*
X011800Y019670D02*
X009777Y019670D01*
X009676Y019828D02*
X010290Y019828D01*
X010294Y020462D02*
X008975Y020462D01*
X008544Y020462D02*
X005143Y020462D01*
X005302Y020304D02*
X008417Y020304D01*
X008381Y020145D02*
X005460Y020145D01*
X005619Y019987D02*
X007145Y019987D01*
X007257Y019987D02*
X007294Y019987D01*
X007294Y019828D02*
X007257Y019828D01*
X007257Y019670D02*
X007294Y019670D01*
X007294Y019511D02*
X007257Y019511D01*
X006871Y019828D02*
X005777Y019828D01*
X005936Y019670D02*
X006764Y019670D01*
X006719Y019511D02*
X006094Y019511D01*
X006253Y019353D02*
X006722Y019353D01*
X006772Y019194D02*
X006411Y019194D01*
X006570Y019036D02*
X006888Y019036D01*
X006298Y018402D02*
X005557Y018402D01*
X005580Y018243D02*
X009707Y018243D01*
X009865Y018085D02*
X005580Y018085D01*
X005580Y017926D02*
X010024Y017926D01*
X010341Y017609D02*
X008328Y017609D01*
X008388Y017451D02*
X010499Y017451D01*
X010550Y017292D02*
X008377Y017292D01*
X008285Y017134D02*
X010618Y017134D01*
X011395Y016658D02*
X013624Y016658D01*
X013550Y016500D02*
X011470Y016500D01*
X011470Y016341D02*
X013550Y016341D01*
X013569Y016183D02*
X011450Y016183D01*
X011291Y016024D02*
X013728Y016024D01*
X013673Y015707D02*
X011346Y015707D01*
X011470Y015549D02*
X013550Y015549D01*
X013550Y015390D02*
X011470Y015390D01*
X011470Y015232D02*
X013550Y015232D01*
X013679Y015073D02*
X011340Y015073D01*
X011297Y014756D02*
X013722Y014756D01*
X013563Y014598D02*
X011456Y014598D01*
X011470Y014439D02*
X013550Y014439D01*
X013550Y014281D02*
X011470Y014281D01*
X011389Y014122D02*
X013630Y014122D01*
X013788Y013964D02*
X011231Y013964D01*
X011248Y013805D02*
X013771Y013805D01*
X013612Y013647D02*
X011407Y013647D01*
X011470Y013488D02*
X013550Y013488D01*
X013550Y013330D02*
X011470Y013330D01*
X011680Y012696D02*
X015829Y012696D01*
X015976Y012537D02*
X013705Y012537D01*
X013678Y012551D02*
X013613Y012572D01*
X013544Y012583D01*
X013510Y012583D01*
X013510Y012143D01*
X013510Y012143D01*
X013950Y012143D01*
X013950Y012178D01*
X013939Y012246D01*
X013917Y012312D01*
X013886Y012374D01*
X013845Y012430D01*
X013796Y012479D01*
X013740Y012520D01*
X013678Y012551D01*
X013510Y012537D02*
X013510Y012537D01*
X013510Y012583D02*
X013475Y012583D01*
X013406Y012572D01*
X013341Y012551D01*
X013279Y012520D01*
X013223Y012479D01*
X013174Y012430D01*
X013133Y012374D01*
X013102Y012312D01*
X013080Y012246D01*
X013070Y012178D01*
X013070Y012143D01*
X013070Y012109D01*
X013080Y012040D01*
X013102Y011974D01*
X013133Y011913D01*
X013174Y011857D01*
X013223Y011808D01*
X013279Y011767D01*
X013341Y011736D01*
X013406Y011714D01*
X013475Y011703D01*
X013510Y011703D01*
X013510Y012143D01*
X013510Y012143D01*
X013070Y012143D01*
X013510Y012143D01*
X013510Y012143D01*
X013510Y012583D01*
X013314Y012537D02*
X012760Y012537D01*
X012770Y012533D02*
X012601Y012603D01*
X012418Y012603D01*
X012249Y012533D01*
X012120Y012404D01*
X012050Y012235D01*
X012050Y012052D01*
X012120Y011883D01*
X012249Y011753D01*
X012418Y011683D01*
X012601Y011683D01*
X012770Y011753D01*
X012899Y011883D01*
X012970Y012052D01*
X012970Y012235D01*
X012899Y012404D01*
X012770Y012533D01*
X012910Y012379D02*
X013137Y012379D01*
X013076Y012220D02*
X012970Y012220D01*
X012970Y012062D02*
X013077Y012062D01*
X013140Y011903D02*
X012908Y011903D01*
X012750Y011745D02*
X013322Y011745D01*
X013510Y011745D02*
X013510Y011745D01*
X013510Y011903D02*
X013510Y011903D01*
X013510Y012062D02*
X013510Y012062D01*
X013510Y012220D02*
X013510Y012220D01*
X013510Y012379D02*
X013510Y012379D01*
X013882Y012379D02*
X015905Y012379D01*
X015811Y012220D02*
X013943Y012220D01*
X013942Y012062D02*
X016241Y012062D01*
X016278Y012062D02*
X018685Y012062D01*
X018685Y012220D02*
X016708Y012220D01*
X016614Y012379D02*
X018685Y012379D01*
X018685Y012537D02*
X016543Y012537D01*
X016689Y012696D02*
X018685Y012696D01*
X018685Y012854D02*
X016755Y012854D01*
X016756Y013013D02*
X018685Y013013D01*
X018685Y013171D02*
X016708Y013171D01*
X016589Y013330D02*
X018685Y013330D01*
X018685Y013488D02*
X014470Y013488D01*
X014470Y013330D02*
X015930Y013330D01*
X015810Y014281D02*
X014470Y014281D01*
X014470Y014439D02*
X015651Y014439D01*
X015569Y014598D02*
X014456Y014598D01*
X014389Y014122D02*
X018685Y014122D01*
X018685Y013964D02*
X014231Y013964D01*
X014248Y013805D02*
X018685Y013805D01*
X018685Y013647D02*
X014407Y013647D01*
X013879Y011903D02*
X015809Y011903D01*
X016241Y011903D02*
X016278Y011903D01*
X016278Y011745D02*
X016241Y011745D01*
X016241Y011586D02*
X016278Y011586D01*
X016278Y011428D02*
X016241Y011428D01*
X016241Y011269D02*
X016278Y011269D01*
X016572Y011586D02*
X018685Y011586D01*
X018685Y011428D02*
X016691Y011428D01*
X016735Y011269D02*
X018685Y011269D01*
X018685Y011111D02*
X016724Y011111D01*
X016652Y010952D02*
X017034Y010952D01*
X017485Y010952D02*
X018685Y010952D01*
X018685Y010794D02*
X017606Y010794D01*
X017638Y010635D02*
X018685Y010635D01*
X018685Y010477D02*
X017600Y010477D01*
X017463Y010318D02*
X018685Y010318D01*
X018685Y010160D02*
X016962Y010160D01*
X017011Y010001D02*
X018685Y010001D01*
X018685Y009843D02*
X017011Y009843D01*
X016986Y009684D02*
X018685Y009684D01*
X018685Y009526D02*
X016920Y009526D01*
X016796Y009367D02*
X018685Y009367D01*
X018685Y009209D02*
X016570Y009209D01*
X016447Y008416D02*
X018685Y008416D01*
X018685Y008258D02*
X016661Y008258D01*
X016738Y008099D02*
X018685Y008099D01*
X018685Y007941D02*
X016756Y007941D01*
X016725Y007782D02*
X018685Y007782D01*
X018685Y007624D02*
X016630Y007624D01*
X016511Y007465D02*
X018685Y007465D01*
X018685Y007307D02*
X016668Y007307D01*
X016728Y007148D02*
X018685Y007148D01*
X018685Y006990D02*
X016731Y006990D01*
X016679Y006831D02*
X018685Y006831D01*
X018685Y006673D02*
X016540Y006673D01*
X016672Y006514D02*
X018685Y006514D01*
X018685Y006356D02*
X016743Y006356D01*
X016756Y006197D02*
X018685Y006197D01*
X018685Y006039D02*
X016721Y006039D01*
X016025Y008575D02*
X018685Y008575D01*
X018685Y008733D02*
X015872Y008733D01*
X015679Y008892D02*
X018685Y008892D01*
X018685Y009050D02*
X014317Y009050D01*
X014470Y009209D02*
X015949Y009209D01*
X015723Y009367D02*
X014470Y009367D01*
X014470Y009526D02*
X015599Y009526D01*
X015533Y009684D02*
X014369Y009684D01*
X014211Y009843D02*
X015508Y009843D01*
X015508Y010001D02*
X014268Y010001D01*
X014427Y010160D02*
X015557Y010160D01*
X015622Y010318D02*
X014470Y010318D01*
X013650Y009684D02*
X011341Y009684D01*
X011450Y009526D02*
X013550Y009526D01*
X013550Y009367D02*
X011450Y009367D01*
X011447Y009209D02*
X013550Y009209D01*
X013702Y009050D02*
X011289Y009050D01*
X011010Y009050D02*
X011010Y009050D01*
X011010Y009209D02*
X011010Y009209D01*
X011010Y009367D02*
X011010Y009367D01*
X011010Y009526D02*
X011010Y009526D01*
X011010Y009684D02*
X011010Y009684D01*
X010759Y010794D02*
X009510Y010794D01*
X009647Y008099D02*
X006872Y008099D01*
X007030Y007941D02*
X009489Y007941D01*
X009330Y007782D02*
X007189Y007782D01*
X007258Y007624D02*
X009261Y007624D01*
X009261Y007307D02*
X007258Y007307D01*
X007258Y007148D02*
X009261Y007148D01*
X009345Y006990D02*
X007174Y006990D01*
X007016Y006831D02*
X009503Y006831D01*
X009662Y006673D02*
X006857Y006673D01*
X006568Y006673D02*
X006408Y006673D01*
X006408Y006831D02*
X006568Y006831D01*
X006568Y006990D02*
X006408Y006990D01*
X006408Y007148D02*
X006568Y007148D01*
X006568Y007624D02*
X006408Y007624D01*
X006408Y007782D02*
X006568Y007782D01*
X006568Y007941D02*
X006408Y007941D01*
X006408Y008099D02*
X006568Y008099D01*
X006104Y008099D02*
X005791Y008099D01*
X005830Y007941D02*
X005946Y007941D01*
X005504Y006356D02*
X010675Y006356D01*
X010760Y005893D02*
X010760Y005893D01*
X010760Y005880D02*
X010760Y005880D01*
X010760Y005722D02*
X010760Y005722D01*
X010760Y005563D02*
X010760Y005563D01*
X010729Y011745D02*
X011270Y011745D01*
X011111Y011903D02*
X010887Y011903D01*
X011046Y012062D02*
X011050Y012062D01*
X011750Y011745D02*
X012270Y011745D01*
X012111Y011903D02*
X011908Y011903D01*
X011970Y012062D02*
X012050Y012062D01*
X012050Y012220D02*
X011970Y012220D01*
X011910Y012379D02*
X012109Y012379D01*
X012259Y012537D02*
X011760Y012537D01*
X014352Y018085D02*
X015775Y018085D01*
X015844Y018243D02*
X014470Y018243D01*
X014470Y018402D02*
X016037Y018402D01*
X016535Y019194D02*
X018685Y019194D01*
X018685Y019036D02*
X013985Y019036D01*
X013408Y018877D02*
X009978Y018877D01*
X010729Y019828D02*
X011892Y019828D01*
X012039Y019987D02*
X010854Y019987D01*
X010888Y020145D02*
X011864Y020145D01*
X011800Y020304D02*
X010852Y020304D01*
X010725Y020462D02*
X011800Y020462D01*
X011856Y020621D02*
X004985Y020621D01*
X004826Y020779D02*
X011995Y020779D01*
X012705Y019036D02*
X013249Y019036D01*
X013879Y023949D02*
X005854Y023949D01*
X005970Y023834D02*
X005700Y024103D01*
X005319Y024103D01*
X005050Y023834D01*
X005050Y023453D01*
X005319Y023183D01*
X005700Y023183D01*
X005970Y023453D01*
X005970Y023834D01*
X005970Y023791D02*
X010767Y023791D01*
X010841Y023986D02*
X010906Y023964D01*
X010975Y023953D01*
X011010Y023953D01*
X011044Y023953D01*
X011113Y023964D01*
X011178Y023986D01*
X011240Y024017D01*
X011296Y024058D01*
X011345Y024107D01*
X011386Y024163D01*
X011417Y024224D01*
X011439Y024290D01*
X011450Y024359D01*
X011450Y024393D01*
X011010Y024393D01*
X011010Y024393D01*
X011010Y023953D01*
X011010Y024393D01*
X011010Y024393D01*
X011450Y024393D01*
X011450Y024428D01*
X011439Y024496D01*
X011417Y024562D01*
X011386Y024624D01*
X011345Y024680D01*
X011296Y024729D01*
X011240Y024770D01*
X011178Y024801D01*
X011113Y024822D01*
X011044Y024833D01*
X011010Y024833D01*
X011010Y024393D01*
X011010Y024393D01*
X010570Y024393D01*
X010570Y024359D01*
X010580Y024290D01*
X010602Y024224D01*
X010633Y024163D01*
X010674Y024107D01*
X010723Y024058D01*
X010779Y024017D01*
X010841Y023986D01*
X010673Y024108D02*
X003578Y024108D01*
X003578Y024266D02*
X010588Y024266D01*
X010570Y024393D02*
X011010Y024393D01*
X011010Y024393D01*
X011010Y024833D01*
X010975Y024833D01*
X010906Y024822D01*
X010841Y024801D01*
X010779Y024770D01*
X010723Y024729D01*
X010674Y024680D01*
X010633Y024624D01*
X010602Y024562D01*
X010580Y024496D01*
X010570Y024428D01*
X010570Y024393D01*
X010570Y024425D02*
X003578Y024425D01*
X003578Y024583D02*
X010613Y024583D01*
X010741Y024742D02*
X003578Y024742D01*
X003578Y024900D02*
X015508Y024900D01*
X015509Y024742D02*
X014312Y024742D01*
X014429Y024583D02*
X015575Y024583D01*
X015666Y024425D02*
X014470Y024425D01*
X014455Y024266D02*
X015824Y024266D01*
X015515Y025059D02*
X014326Y025059D01*
X014435Y025217D02*
X015581Y025217D01*
X015680Y025376D02*
X014470Y025376D01*
X014449Y025534D02*
X015844Y025534D01*
X016667Y022978D02*
X016701Y022911D01*
X016725Y022840D01*
X016735Y022681D02*
X018685Y022681D01*
X018685Y022523D02*
X016690Y022523D01*
X016627Y022364D02*
X018685Y022364D01*
X018685Y022206D02*
X016713Y022206D01*
X016706Y021889D02*
X018685Y021889D01*
X018685Y022047D02*
X016278Y022047D01*
X016606Y021730D02*
X018685Y021730D01*
X018685Y021572D02*
X016614Y021572D01*
X016719Y021413D02*
X018685Y021413D01*
X018685Y021255D02*
X016756Y021255D01*
X016744Y021096D02*
X018685Y021096D01*
X018685Y020938D02*
X016676Y020938D01*
X016484Y020779D02*
X018685Y020779D01*
X018685Y020621D02*
X016466Y020621D01*
X016753Y020462D02*
X018685Y020462D01*
X018685Y020304D02*
X016903Y020304D01*
X016968Y020145D02*
X018685Y020145D01*
X018685Y019987D02*
X017011Y019987D01*
X017011Y019828D02*
X018685Y019828D01*
X018685Y019670D02*
X016980Y019670D01*
X016914Y019511D02*
X018685Y019511D01*
X018685Y019353D02*
X016781Y019353D01*
X016278Y016975D02*
X016241Y016975D01*
X016241Y016817D02*
X016278Y016817D01*
X016278Y016658D02*
X016241Y016658D01*
X016241Y016500D02*
X016278Y016500D01*
X016278Y016341D02*
X016241Y016341D01*
X016241Y016183D02*
X016278Y016183D01*
X016278Y016024D02*
X016241Y016024D01*
X016241Y015866D02*
X016278Y015866D01*
X016825Y015390D02*
X018685Y015390D01*
X018685Y015232D02*
X016932Y015232D01*
X016998Y015073D02*
X018685Y015073D01*
X018685Y014915D02*
X017011Y014915D01*
X017011Y014756D02*
X018685Y014756D01*
X018685Y014598D02*
X016950Y014598D01*
X016868Y014439D02*
X018685Y014439D01*
X018685Y014281D02*
X016709Y014281D01*
X016710Y011903D02*
X018685Y011903D01*
X018685Y011745D02*
X016620Y011745D01*
X016897Y010318D02*
X017056Y010318D01*
X016574Y003344D02*
X018685Y003344D01*
X018685Y003186D02*
X016702Y003186D01*
X016756Y003027D02*
X018685Y003027D01*
X018685Y002869D02*
X016756Y002869D01*
X016695Y002710D02*
X018685Y002710D01*
X010814Y020938D02*
X004668Y020938D01*
X004509Y021096D02*
X010656Y021096D01*
X010550Y021255D02*
X004569Y021255D01*
X004580Y021413D02*
X010550Y021413D01*
X010550Y021572D02*
X004553Y021572D01*
X004479Y021730D02*
X006061Y021730D01*
X006169Y021623D02*
X006408Y021623D01*
X006408Y022313D01*
X006568Y022313D01*
X006568Y021623D01*
X006807Y021623D01*
X007258Y022074D01*
X007258Y022313D01*
X006568Y022313D01*
X006568Y022473D01*
X007258Y022473D01*
X007258Y022712D01*
X006807Y023164D01*
X006568Y023164D01*
X006568Y022473D01*
X006408Y022473D01*
X006408Y022313D01*
X005717Y022313D01*
X005717Y022074D01*
X006169Y021623D01*
X006408Y021730D02*
X006568Y021730D01*
X006568Y021889D02*
X006408Y021889D01*
X006408Y022047D02*
X006568Y022047D01*
X006568Y022206D02*
X006408Y022206D01*
X006408Y022364D02*
X004533Y022364D01*
X004598Y022523D02*
X005717Y022523D01*
X005717Y022473D02*
X006408Y022473D01*
X006408Y023164D01*
X006169Y023164D01*
X005717Y022712D01*
X005717Y022473D01*
X005717Y022681D02*
X004600Y022681D01*
X004567Y022840D02*
X005845Y022840D01*
X006003Y022998D02*
X004489Y022998D01*
X004311Y023157D02*
X006162Y023157D01*
X006408Y023157D02*
X006568Y023157D01*
X006568Y022998D02*
X006408Y022998D01*
X006408Y022840D02*
X006568Y022840D01*
X006568Y022681D02*
X006408Y022681D01*
X006408Y022523D02*
X006568Y022523D01*
X006568Y022364D02*
X009951Y022364D01*
X009951Y022313D02*
X009261Y022313D01*
X009261Y022074D01*
X009712Y021623D01*
X009951Y021623D01*
X009951Y022313D01*
X009951Y022206D02*
X010111Y022206D01*
X010111Y022047D02*
X009951Y022047D01*
X009951Y021889D02*
X010111Y021889D01*
X010111Y021730D02*
X009951Y021730D01*
X009604Y021730D02*
X006915Y021730D01*
X007073Y021889D02*
X009446Y021889D01*
X009287Y022047D02*
X007232Y022047D01*
X007258Y022206D02*
X009261Y022206D01*
X009261Y022473D02*
X009951Y022473D01*
X009951Y023164D01*
X009712Y023164D01*
X009261Y022712D01*
X009261Y022473D01*
X009261Y022523D02*
X007258Y022523D01*
X007258Y022681D02*
X009261Y022681D01*
X009388Y022840D02*
X007131Y022840D01*
X006973Y022998D02*
X009546Y022998D01*
X009705Y023157D02*
X006814Y023157D01*
X005970Y023474D02*
X010550Y023474D01*
X010550Y023315D02*
X005832Y023315D01*
X005970Y023632D02*
X010611Y023632D01*
X010610Y023157D02*
X010357Y023157D01*
X010516Y022998D02*
X010761Y022998D01*
X010806Y022840D02*
X010674Y022840D01*
X010111Y022840D02*
X009951Y022840D01*
X009951Y022998D02*
X010111Y022998D01*
X010111Y023157D02*
X009951Y023157D01*
X009951Y022681D02*
X010111Y022681D01*
X010111Y022523D02*
X009951Y022523D01*
X010458Y021730D02*
X010696Y021730D01*
X010616Y021889D02*
X015813Y021889D01*
X014375Y024108D02*
X018685Y024108D01*
X018000Y026168D02*
X014414Y026168D01*
X013693Y025059D02*
X012940Y025059D01*
X012579Y025059D02*
X011326Y025059D01*
X011435Y025217D02*
X012423Y025217D01*
X011407Y024583D02*
X013590Y024583D01*
X013550Y024425D02*
X011450Y024425D01*
X011431Y024266D02*
X013564Y024266D01*
X013644Y024108D02*
X011346Y024108D01*
X011278Y024742D02*
X013708Y024742D01*
X013749Y027753D02*
X011270Y027753D01*
X010111Y029180D02*
X009951Y029180D01*
X009951Y029123D02*
X009951Y029813D01*
X009261Y029813D01*
X009261Y029574D01*
X009712Y029123D01*
X009951Y029123D01*
X009934Y029021D02*
X010085Y029021D01*
X010111Y029338D02*
X009951Y029338D01*
X009951Y029497D02*
X010111Y029497D01*
X010111Y029655D02*
X009951Y029655D01*
X009951Y029814D02*
X006568Y029814D01*
X006568Y029972D02*
X009951Y029972D01*
X009951Y029973D02*
X009261Y029973D01*
X009261Y030212D01*
X009712Y030664D01*
X009951Y030664D01*
X009951Y029973D01*
X009951Y030131D02*
X010111Y030131D01*
X010111Y030289D02*
X009951Y030289D01*
X009951Y030448D02*
X010111Y030448D01*
X010111Y030606D02*
X009951Y030606D01*
X009654Y030606D02*
X006865Y030606D01*
X007023Y030448D02*
X009496Y030448D01*
X009337Y030289D02*
X007182Y030289D01*
X007258Y030131D02*
X009261Y030131D01*
X009261Y029655D02*
X007258Y029655D01*
X007181Y029497D02*
X009338Y029497D01*
X009496Y029338D02*
X007023Y029338D01*
X006864Y029180D02*
X009655Y029180D01*
X009694Y028863D02*
X003578Y028863D01*
X003578Y028704D02*
X009631Y028704D01*
X009641Y028546D02*
X003578Y028546D01*
X003578Y028070D02*
X003786Y028070D01*
X003628Y027912D02*
X003578Y027912D01*
X003578Y030923D02*
X003639Y030923D01*
X003578Y031082D02*
X003798Y031082D01*
X003578Y031240D02*
X010552Y031240D01*
X010550Y031235D02*
X010550Y031052D01*
X010620Y030883D01*
X010749Y030753D01*
X010918Y030683D01*
X011101Y030683D01*
X011270Y030753D01*
X011399Y030883D01*
X011470Y031052D01*
X011470Y031235D01*
X011399Y031404D01*
X011270Y031533D01*
X011101Y031603D01*
X010918Y031603D01*
X010749Y031533D01*
X010620Y031404D01*
X010550Y031235D01*
X010550Y031082D02*
X005722Y031082D01*
X005880Y030923D02*
X010603Y030923D01*
X010737Y030765D02*
X005970Y030765D01*
X005970Y030606D02*
X006111Y030606D01*
X006408Y030606D02*
X006568Y030606D01*
X006568Y030448D02*
X006408Y030448D01*
X006408Y030289D02*
X006568Y030289D01*
X006568Y030131D02*
X006408Y030131D01*
X006408Y029655D02*
X006568Y029655D01*
X006568Y029497D02*
X006408Y029497D01*
X006408Y029338D02*
X006568Y029338D01*
X006568Y029180D02*
X006408Y029180D01*
X005824Y031557D02*
X010807Y031557D01*
X010839Y031716D02*
X005970Y031716D01*
X005970Y031874D02*
X010628Y031874D01*
X010557Y032033D02*
X005970Y032033D01*
X005862Y032191D02*
X010550Y032191D01*
X010597Y032350D02*
X005704Y032350D01*
X004340Y032350D02*
X004180Y032350D01*
X004180Y032508D02*
X004340Y032508D01*
X004340Y032667D02*
X004180Y032667D01*
X004180Y032984D02*
X004340Y032984D01*
X004340Y033142D02*
X004180Y033142D01*
X004180Y033301D02*
X004340Y033301D01*
X004340Y033459D02*
X004180Y033459D01*
X004180Y033618D02*
X004340Y033618D01*
X003853Y033618D02*
X003578Y033618D01*
X003578Y033459D02*
X003694Y033459D01*
X004180Y032191D02*
X004340Y032191D01*
X003578Y031399D02*
X010617Y031399D01*
X010408Y030606D02*
X015823Y030606D01*
X015664Y030448D02*
X014356Y030448D01*
X014447Y030289D02*
X015506Y030289D01*
X015446Y030131D02*
X014470Y030131D01*
X014548Y029972D02*
X016180Y029972D01*
X016180Y029814D02*
X015207Y029814D01*
X015520Y030765D02*
X014282Y030765D01*
X013737Y030765D02*
X011282Y030765D01*
X011416Y030923D02*
X011945Y030923D01*
X011881Y031082D02*
X011470Y031082D01*
X011467Y031240D02*
X011890Y031240D01*
X011980Y031399D02*
X011402Y031399D01*
X011212Y031557D02*
X012386Y031557D01*
X012381Y031716D02*
X011180Y031716D01*
X011391Y031874D02*
X012456Y031874D01*
X012529Y030448D02*
X011356Y030448D01*
X011331Y029814D02*
X012567Y029814D01*
X012952Y029814D02*
X013688Y029814D01*
X013582Y029972D02*
X013098Y029972D01*
X013138Y030131D02*
X013550Y030131D01*
X013572Y030289D02*
X013108Y030289D01*
X012990Y030448D02*
X013664Y030448D01*
X013557Y032033D02*
X011462Y032033D01*
X011470Y032191D02*
X013550Y032191D01*
X013597Y032350D02*
X011422Y032350D01*
X011295Y032508D02*
X013724Y032508D01*
X013677Y032825D02*
X011342Y032825D01*
X011441Y032984D02*
X013578Y032984D01*
X013550Y033142D02*
X011470Y033142D01*
X011442Y033301D02*
X013577Y033301D01*
X013675Y033459D02*
X011344Y033459D01*
X011397Y033935D02*
X012765Y033935D01*
X012607Y034093D02*
X011447Y034093D01*
X011437Y034252D02*
X012448Y034252D01*
X012290Y034410D02*
X011359Y034410D01*
X010675Y033459D02*
X010590Y033459D01*
X010573Y035995D02*
X009229Y035995D01*
X008771Y034093D02*
X008733Y034093D01*
X008554Y033935D02*
X008949Y033935D01*
X009092Y033549D02*
X009030Y033517D01*
X008975Y033477D01*
X008926Y033428D01*
X008885Y033373D01*
X008854Y033311D01*
X008833Y033246D01*
X008822Y033178D01*
X008822Y033143D01*
X008822Y033109D01*
X008833Y033041D01*
X008854Y032975D01*
X008885Y032914D01*
X008926Y032858D01*
X008975Y032810D01*
X009030Y032769D01*
X009092Y032738D01*
X009157Y032717D01*
X009225Y032706D01*
X009260Y032706D01*
X009260Y033143D01*
X009260Y033143D01*
X008822Y033143D01*
X009260Y033143D01*
X009260Y033143D01*
X009260Y033581D01*
X009225Y033581D01*
X009157Y033570D01*
X009092Y033549D01*
X008957Y033459D02*
X008590Y033459D01*
X008689Y033301D02*
X008851Y033301D01*
X008822Y033142D02*
X008717Y033142D01*
X008689Y032984D02*
X008851Y032984D01*
X008959Y032825D02*
X008589Y032825D01*
X009260Y032825D02*
X009260Y032825D01*
X009260Y032984D02*
X009260Y032984D01*
X009260Y033142D02*
X009260Y033142D01*
X009260Y033301D02*
X009260Y033301D01*
X009260Y033459D02*
X009260Y033459D01*
X010566Y030448D02*
X010664Y030448D01*
X008925Y027436D02*
X008578Y027436D01*
X008742Y027278D02*
X008761Y027278D01*
X008879Y026485D02*
X008625Y026485D01*
X010076Y025059D02*
X010693Y025059D01*
X010568Y025217D02*
X010220Y025217D01*
X010220Y025376D02*
X010409Y025376D01*
X010251Y025534D02*
X010220Y025534D01*
X011010Y024742D02*
X011010Y024742D01*
X011010Y024583D02*
X011010Y024583D01*
X011010Y024425D02*
X011010Y024425D01*
X011010Y024266D02*
X011010Y024266D01*
X011010Y024108D02*
X011010Y024108D01*
X006140Y018560D02*
X005399Y018560D01*
X005506Y019194D02*
X004544Y019194D01*
X004580Y019353D02*
X005347Y019353D01*
X005189Y019511D02*
X004578Y019511D01*
X004512Y019670D02*
X005030Y019670D01*
X004872Y019828D02*
X004381Y019828D01*
X004555Y020145D02*
X003578Y020145D01*
X003578Y019987D02*
X004713Y019987D01*
X004396Y020304D02*
X003578Y020304D01*
X003578Y020462D02*
X004238Y020462D01*
X004079Y020621D02*
X003578Y020621D01*
X003578Y020779D02*
X003921Y020779D01*
X003659Y020938D02*
X003578Y020938D01*
X003578Y019828D02*
X003638Y019828D01*
X003578Y018877D02*
X003766Y018877D01*
X003578Y018719D02*
X005981Y018719D01*
X005823Y018877D02*
X004253Y018877D01*
X004458Y019036D02*
X005664Y019036D01*
X004620Y018560D02*
X004399Y018560D01*
X003620Y018560D02*
X003578Y018560D01*
X003578Y021889D02*
X003716Y021889D01*
X003578Y022047D02*
X005744Y022047D01*
X005717Y022206D02*
X004406Y022206D01*
X004303Y021889D02*
X005903Y021889D01*
X005187Y023315D02*
X003578Y023315D01*
X003578Y023157D02*
X003708Y023157D01*
X003578Y023474D02*
X005050Y023474D01*
X005050Y023632D02*
X003578Y023632D01*
X003578Y023791D02*
X005050Y023791D01*
X005165Y023949D02*
X003578Y023949D01*
X003578Y022206D02*
X003613Y022206D01*
X003990Y014123D02*
X004030Y014123D01*
X004030Y013693D01*
X004030Y013163D01*
X003990Y013163D01*
X003990Y014123D01*
X003990Y014122D02*
X004030Y014122D01*
X004030Y013964D02*
X003990Y013964D01*
X003990Y013805D02*
X004030Y013805D01*
X004030Y013647D02*
X003990Y013647D01*
X003990Y013488D02*
X004030Y013488D01*
X004030Y013330D02*
X003990Y013330D01*
X003990Y013171D02*
X004030Y013171D01*
X004030Y013123D02*
X004030Y012593D01*
X004030Y012163D01*
X003990Y012163D01*
X003990Y013123D01*
X004030Y013123D01*
X004030Y013013D02*
X003990Y013013D01*
X003990Y012854D02*
X004030Y012854D01*
X004030Y012696D02*
X003990Y012696D01*
X003990Y012537D02*
X004030Y012537D01*
X004030Y012379D02*
X003990Y012379D01*
X003990Y012220D02*
X004030Y012220D01*
X005766Y010160D02*
X005842Y010160D01*
X005830Y010001D02*
X006001Y010001D01*
X010802Y037580D02*
X010863Y037580D01*
X010784Y037739D02*
X010775Y037739D01*
X010698Y039482D02*
X010216Y039482D01*
X010533Y039799D02*
X010703Y039799D01*
X007500Y040592D02*
X007211Y040592D01*
X007220Y040433D02*
X007432Y040433D01*
X007273Y040275D02*
X007220Y040275D01*
X007053Y040750D02*
X007500Y040750D01*
X007343Y040909D02*
X006176Y040909D01*
X006220Y041067D02*
X007300Y041067D01*
X007300Y041226D02*
X006220Y041226D01*
X006169Y041384D02*
X007350Y041384D01*
X007509Y041543D02*
X006010Y041543D01*
X005509Y041543D02*
X003578Y041543D01*
X003578Y040750D02*
X003728Y040750D01*
X003799Y040592D02*
X003578Y040592D01*
X004507Y041384D02*
X005350Y041384D01*
X005300Y041226D02*
X004698Y041226D01*
X004781Y041067D02*
X005300Y041067D01*
X006017Y040750D02*
X006466Y040750D01*
X014370Y040433D02*
X015050Y040433D01*
X015061Y040275D02*
X014453Y040275D01*
X014470Y040116D02*
X015136Y040116D01*
D26*
X012010Y035143D02*
X013010Y034143D01*
X014010Y034143D01*
X014010Y033143D02*
X015260Y033143D01*
X013462Y026941D02*
X014010Y026393D01*
X013462Y026941D02*
X009244Y026941D01*
X011010Y035143D02*
X012010Y035143D01*
X004010Y021143D02*
X006510Y018643D01*
X009760Y018643D01*
X011010Y017393D01*
X004010Y021143D02*
X004010Y021393D01*
D27*
X006760Y017393D02*
X008010Y017393D01*
X008760Y020143D02*
X010510Y020143D01*
X012260Y019393D02*
X013260Y019393D01*
X014010Y018643D01*
X014010Y018393D01*
X014010Y019643D02*
X015010Y019643D01*
X014010Y025393D02*
X012760Y025393D01*
X011810Y025893D02*
X018260Y025893D01*
X018260Y028393D02*
X017760Y028393D01*
X017260Y028893D01*
X015010Y028893D01*
X014760Y028643D01*
X010010Y028643D01*
X011010Y028143D02*
X012760Y028143D01*
X012760Y030143D02*
X011010Y030143D01*
X012260Y031143D02*
X014010Y031143D01*
X015510Y031143D01*
X015760Y030893D01*
X016760Y030893D01*
X017260Y030393D01*
X018260Y030393D01*
X018260Y031393D02*
X017010Y032643D01*
X015760Y032643D01*
X015510Y032393D01*
X014260Y032393D01*
X014010Y032143D01*
X014010Y030143D02*
X014510Y029643D01*
X015010Y029643D01*
X015260Y029393D01*
X016160Y031643D02*
X016260Y031743D01*
X016160Y031643D02*
X012760Y031643D01*
X013510Y035643D02*
X010010Y035643D01*
X009510Y035143D01*
X008962Y035143D01*
X008260Y034441D01*
X008260Y035393D02*
X006010Y035393D01*
X005510Y034893D01*
X004260Y036893D02*
X005760Y038393D01*
X009760Y038393D01*
X010510Y039143D01*
X011010Y039143D01*
X011010Y040143D02*
X010510Y040143D01*
X009010Y038643D01*
X005510Y038643D01*
X004760Y037893D01*
X004260Y037893D01*
X006760Y039393D02*
X007760Y040393D01*
X007760Y041143D01*
X009260Y036393D02*
X010510Y036393D01*
X010760Y036643D01*
X011510Y036643D01*
X012010Y037143D01*
X014010Y037143D01*
X014010Y036143D02*
X013510Y035643D01*
X009260Y036393D02*
X008260Y035393D01*
X005510Y027643D02*
X004010Y027643D01*
X006760Y025393D02*
X007260Y025893D01*
X010260Y025893D01*
X010760Y025393D01*
X011010Y025393D01*
X011010Y014393D02*
X009260Y012643D01*
X008962Y012643D01*
X008260Y011941D01*
X009244Y011941D02*
X009260Y011956D01*
X010573Y011956D01*
X011573Y012956D01*
X016260Y012956D01*
X017260Y010643D02*
X014260Y010643D01*
X014010Y010393D01*
X015598Y008643D02*
X008510Y008643D01*
X009260Y010393D02*
X011010Y010393D01*
X015598Y008643D02*
X016260Y007956D01*
D28*
X017260Y010643D03*
X015010Y019643D03*
X014010Y019643D03*
X012760Y025393D03*
X011810Y025893D03*
X012760Y028143D03*
X012760Y030143D03*
X012260Y031143D03*
X012760Y031643D03*
X015260Y029393D03*
X018260Y025893D03*
X010510Y020143D03*
X008760Y020143D03*
X008010Y017393D03*
X006760Y017393D03*
X008510Y008643D03*
X010010Y028643D03*
X006760Y039393D03*
M02*
