G75*
%MOIN*%
%OFA0B0*%
%FSLAX24Y24*%
%IPPOS*%
%LPD*%
%AMOC8*
5,1,8,0,0,1.08239X$1,22.5*
%
%ADD10C,0.0000*%
%ADD11C,0.0520*%
%ADD12C,0.0594*%
%ADD13C,0.0760*%
%ADD14C,0.1181*%
%ADD15C,0.1266*%
%ADD16C,0.0515*%
%ADD17C,0.0740*%
%ADD18C,0.0780*%
%ADD19C,0.0630*%
%ADD20R,0.0520X0.0520*%
%ADD21C,0.0320*%
%ADD22C,0.0240*%
%ADD23C,0.0120*%
%ADD24C,0.0356*%
D10*
X003378Y002393D02*
X018885Y002393D01*
X018885Y041763D01*
X003378Y041763D01*
X003378Y002393D01*
X015709Y004893D02*
X015711Y004940D01*
X015717Y004986D01*
X015727Y005032D01*
X015740Y005077D01*
X015758Y005120D01*
X015779Y005162D01*
X015803Y005202D01*
X015831Y005239D01*
X015862Y005274D01*
X015896Y005307D01*
X015932Y005336D01*
X015971Y005362D01*
X016012Y005385D01*
X016055Y005404D01*
X016099Y005420D01*
X016144Y005432D01*
X016190Y005440D01*
X016237Y005444D01*
X016283Y005444D01*
X016330Y005440D01*
X016376Y005432D01*
X016421Y005420D01*
X016465Y005404D01*
X016508Y005385D01*
X016549Y005362D01*
X016588Y005336D01*
X016624Y005307D01*
X016658Y005274D01*
X016689Y005239D01*
X016717Y005202D01*
X016741Y005162D01*
X016762Y005120D01*
X016780Y005077D01*
X016793Y005032D01*
X016803Y004986D01*
X016809Y004940D01*
X016811Y004893D01*
X016809Y004846D01*
X016803Y004800D01*
X016793Y004754D01*
X016780Y004709D01*
X016762Y004666D01*
X016741Y004624D01*
X016717Y004584D01*
X016689Y004547D01*
X016658Y004512D01*
X016624Y004479D01*
X016588Y004450D01*
X016549Y004424D01*
X016508Y004401D01*
X016465Y004382D01*
X016421Y004366D01*
X016376Y004354D01*
X016330Y004346D01*
X016283Y004342D01*
X016237Y004342D01*
X016190Y004346D01*
X016144Y004354D01*
X016099Y004366D01*
X016055Y004382D01*
X016012Y004401D01*
X015971Y004424D01*
X015932Y004450D01*
X015896Y004479D01*
X015862Y004512D01*
X015831Y004547D01*
X015803Y004584D01*
X015779Y004624D01*
X015758Y004666D01*
X015740Y004709D01*
X015727Y004754D01*
X015717Y004800D01*
X015711Y004846D01*
X015709Y004893D01*
X015709Y009893D02*
X015711Y009940D01*
X015717Y009986D01*
X015727Y010032D01*
X015740Y010077D01*
X015758Y010120D01*
X015779Y010162D01*
X015803Y010202D01*
X015831Y010239D01*
X015862Y010274D01*
X015896Y010307D01*
X015932Y010336D01*
X015971Y010362D01*
X016012Y010385D01*
X016055Y010404D01*
X016099Y010420D01*
X016144Y010432D01*
X016190Y010440D01*
X016237Y010444D01*
X016283Y010444D01*
X016330Y010440D01*
X016376Y010432D01*
X016421Y010420D01*
X016465Y010404D01*
X016508Y010385D01*
X016549Y010362D01*
X016588Y010336D01*
X016624Y010307D01*
X016658Y010274D01*
X016689Y010239D01*
X016717Y010202D01*
X016741Y010162D01*
X016762Y010120D01*
X016780Y010077D01*
X016793Y010032D01*
X016803Y009986D01*
X016809Y009940D01*
X016811Y009893D01*
X016809Y009846D01*
X016803Y009800D01*
X016793Y009754D01*
X016780Y009709D01*
X016762Y009666D01*
X016741Y009624D01*
X016717Y009584D01*
X016689Y009547D01*
X016658Y009512D01*
X016624Y009479D01*
X016588Y009450D01*
X016549Y009424D01*
X016508Y009401D01*
X016465Y009382D01*
X016421Y009366D01*
X016376Y009354D01*
X016330Y009346D01*
X016283Y009342D01*
X016237Y009342D01*
X016190Y009346D01*
X016144Y009354D01*
X016099Y009366D01*
X016055Y009382D01*
X016012Y009401D01*
X015971Y009424D01*
X015932Y009450D01*
X015896Y009479D01*
X015862Y009512D01*
X015831Y009547D01*
X015803Y009584D01*
X015779Y009624D01*
X015758Y009666D01*
X015740Y009709D01*
X015727Y009754D01*
X015717Y009800D01*
X015711Y009846D01*
X015709Y009893D01*
X015709Y014893D02*
X015711Y014940D01*
X015717Y014986D01*
X015727Y015032D01*
X015740Y015077D01*
X015758Y015120D01*
X015779Y015162D01*
X015803Y015202D01*
X015831Y015239D01*
X015862Y015274D01*
X015896Y015307D01*
X015932Y015336D01*
X015971Y015362D01*
X016012Y015385D01*
X016055Y015404D01*
X016099Y015420D01*
X016144Y015432D01*
X016190Y015440D01*
X016237Y015444D01*
X016283Y015444D01*
X016330Y015440D01*
X016376Y015432D01*
X016421Y015420D01*
X016465Y015404D01*
X016508Y015385D01*
X016549Y015362D01*
X016588Y015336D01*
X016624Y015307D01*
X016658Y015274D01*
X016689Y015239D01*
X016717Y015202D01*
X016741Y015162D01*
X016762Y015120D01*
X016780Y015077D01*
X016793Y015032D01*
X016803Y014986D01*
X016809Y014940D01*
X016811Y014893D01*
X016809Y014846D01*
X016803Y014800D01*
X016793Y014754D01*
X016780Y014709D01*
X016762Y014666D01*
X016741Y014624D01*
X016717Y014584D01*
X016689Y014547D01*
X016658Y014512D01*
X016624Y014479D01*
X016588Y014450D01*
X016549Y014424D01*
X016508Y014401D01*
X016465Y014382D01*
X016421Y014366D01*
X016376Y014354D01*
X016330Y014346D01*
X016283Y014342D01*
X016237Y014342D01*
X016190Y014346D01*
X016144Y014354D01*
X016099Y014366D01*
X016055Y014382D01*
X016012Y014401D01*
X015971Y014424D01*
X015932Y014450D01*
X015896Y014479D01*
X015862Y014512D01*
X015831Y014547D01*
X015803Y014584D01*
X015779Y014624D01*
X015758Y014666D01*
X015740Y014709D01*
X015727Y014754D01*
X015717Y014800D01*
X015711Y014846D01*
X015709Y014893D01*
X015709Y019893D02*
X015711Y019940D01*
X015717Y019986D01*
X015727Y020032D01*
X015740Y020077D01*
X015758Y020120D01*
X015779Y020162D01*
X015803Y020202D01*
X015831Y020239D01*
X015862Y020274D01*
X015896Y020307D01*
X015932Y020336D01*
X015971Y020362D01*
X016012Y020385D01*
X016055Y020404D01*
X016099Y020420D01*
X016144Y020432D01*
X016190Y020440D01*
X016237Y020444D01*
X016283Y020444D01*
X016330Y020440D01*
X016376Y020432D01*
X016421Y020420D01*
X016465Y020404D01*
X016508Y020385D01*
X016549Y020362D01*
X016588Y020336D01*
X016624Y020307D01*
X016658Y020274D01*
X016689Y020239D01*
X016717Y020202D01*
X016741Y020162D01*
X016762Y020120D01*
X016780Y020077D01*
X016793Y020032D01*
X016803Y019986D01*
X016809Y019940D01*
X016811Y019893D01*
X016809Y019846D01*
X016803Y019800D01*
X016793Y019754D01*
X016780Y019709D01*
X016762Y019666D01*
X016741Y019624D01*
X016717Y019584D01*
X016689Y019547D01*
X016658Y019512D01*
X016624Y019479D01*
X016588Y019450D01*
X016549Y019424D01*
X016508Y019401D01*
X016465Y019382D01*
X016421Y019366D01*
X016376Y019354D01*
X016330Y019346D01*
X016283Y019342D01*
X016237Y019342D01*
X016190Y019346D01*
X016144Y019354D01*
X016099Y019366D01*
X016055Y019382D01*
X016012Y019401D01*
X015971Y019424D01*
X015932Y019450D01*
X015896Y019479D01*
X015862Y019512D01*
X015831Y019547D01*
X015803Y019584D01*
X015779Y019624D01*
X015758Y019666D01*
X015740Y019709D01*
X015727Y019754D01*
X015717Y019800D01*
X015711Y019846D01*
X015709Y019893D01*
X015709Y024893D02*
X015711Y024940D01*
X015717Y024986D01*
X015727Y025032D01*
X015740Y025077D01*
X015758Y025120D01*
X015779Y025162D01*
X015803Y025202D01*
X015831Y025239D01*
X015862Y025274D01*
X015896Y025307D01*
X015932Y025336D01*
X015971Y025362D01*
X016012Y025385D01*
X016055Y025404D01*
X016099Y025420D01*
X016144Y025432D01*
X016190Y025440D01*
X016237Y025444D01*
X016283Y025444D01*
X016330Y025440D01*
X016376Y025432D01*
X016421Y025420D01*
X016465Y025404D01*
X016508Y025385D01*
X016549Y025362D01*
X016588Y025336D01*
X016624Y025307D01*
X016658Y025274D01*
X016689Y025239D01*
X016717Y025202D01*
X016741Y025162D01*
X016762Y025120D01*
X016780Y025077D01*
X016793Y025032D01*
X016803Y024986D01*
X016809Y024940D01*
X016811Y024893D01*
X016809Y024846D01*
X016803Y024800D01*
X016793Y024754D01*
X016780Y024709D01*
X016762Y024666D01*
X016741Y024624D01*
X016717Y024584D01*
X016689Y024547D01*
X016658Y024512D01*
X016624Y024479D01*
X016588Y024450D01*
X016549Y024424D01*
X016508Y024401D01*
X016465Y024382D01*
X016421Y024366D01*
X016376Y024354D01*
X016330Y024346D01*
X016283Y024342D01*
X016237Y024342D01*
X016190Y024346D01*
X016144Y024354D01*
X016099Y024366D01*
X016055Y024382D01*
X016012Y024401D01*
X015971Y024424D01*
X015932Y024450D01*
X015896Y024479D01*
X015862Y024512D01*
X015831Y024547D01*
X015803Y024584D01*
X015779Y024624D01*
X015758Y024666D01*
X015740Y024709D01*
X015727Y024754D01*
X015717Y024800D01*
X015711Y024846D01*
X015709Y024893D01*
D11*
X014260Y022393D03*
X014010Y023393D03*
X014010Y024393D03*
X014010Y025393D03*
X014010Y026393D03*
X014260Y028143D03*
X014260Y029143D03*
X014260Y030143D03*
X014260Y031143D03*
X014260Y032143D03*
X014260Y033143D03*
X014260Y034143D03*
X014260Y035143D03*
X014260Y036143D03*
X014260Y037143D03*
X014260Y038143D03*
X014260Y039143D03*
X014260Y040143D03*
X014260Y041143D03*
X015510Y040393D03*
X015510Y038893D03*
X016510Y038893D03*
X016510Y040393D03*
X017510Y040393D03*
X017510Y038893D03*
X017510Y035893D03*
X016510Y035893D03*
X015510Y035893D03*
X015260Y035143D03*
X015260Y033143D03*
X011260Y033143D03*
X011260Y032143D03*
X011260Y031143D03*
X011260Y030143D03*
X011260Y029143D03*
X011260Y028143D03*
X011010Y026393D03*
X011010Y025393D03*
X011010Y024393D03*
X011010Y023393D03*
X011260Y022393D03*
X011010Y021393D03*
X012260Y020393D03*
X011010Y018393D03*
X011010Y017393D03*
X011010Y016393D03*
X011010Y015393D03*
X011010Y014393D03*
X011010Y013393D03*
X011510Y012143D03*
X011010Y010393D03*
X011010Y009393D03*
X011510Y007893D03*
X011010Y006643D03*
X010760Y005893D03*
X012260Y005393D03*
X012510Y007893D03*
X013510Y007893D03*
X014010Y006643D03*
X013760Y005893D03*
X013760Y002893D03*
X010760Y002893D03*
X014010Y009393D03*
X014010Y010393D03*
X013510Y012143D03*
X014010Y013393D03*
X014010Y014393D03*
X014010Y015393D03*
X014010Y016393D03*
X014010Y017393D03*
X014010Y018393D03*
X014010Y021393D03*
X009760Y025393D03*
X006760Y025393D03*
X005510Y026643D03*
X005510Y027643D03*
X005510Y030643D03*
X005510Y031893D03*
X005510Y034893D03*
X004010Y030643D03*
X004010Y027643D03*
X005510Y023643D03*
X011260Y034143D03*
X011260Y035143D03*
X011260Y036143D03*
X011260Y037143D03*
X011260Y038143D03*
X011260Y039143D03*
X011260Y040143D03*
X011260Y041143D03*
X009760Y040143D03*
X007760Y040893D03*
X006760Y040143D03*
X005760Y040893D03*
X012510Y012143D03*
X009260Y010393D03*
X006260Y010393D03*
D12*
X016260Y011224D03*
X016260Y012059D03*
X016260Y012956D03*
X016260Y016224D03*
X016260Y017059D03*
X016260Y017956D03*
X016260Y021224D03*
X016260Y022059D03*
X016260Y022728D03*
X016260Y023563D03*
X016260Y026830D03*
X016260Y007956D03*
X016260Y007059D03*
X016260Y006224D03*
X016260Y002956D03*
D13*
X009244Y004441D03*
X008260Y004441D03*
X007275Y004441D03*
X007275Y011941D03*
X008260Y011941D03*
X009244Y011941D03*
X009244Y019441D03*
X008260Y019441D03*
X007275Y019441D03*
X007275Y026941D03*
X008260Y026941D03*
X009244Y026941D03*
X009244Y034441D03*
X008260Y034441D03*
X007275Y034441D03*
D14*
X006488Y037393D03*
X006488Y029893D03*
X010031Y029893D03*
X010031Y037393D03*
X010031Y022393D03*
X006488Y022393D03*
X006488Y014893D03*
X010031Y014893D03*
X010031Y007393D03*
X006488Y007393D03*
D15*
X016260Y028043D03*
X016260Y029893D03*
X016260Y031743D03*
D16*
X010260Y033143D03*
X009260Y033143D03*
X008260Y033143D03*
D17*
X004260Y035893D03*
X004260Y036893D03*
X004260Y037893D03*
X004260Y038893D03*
X004260Y039893D03*
X004260Y040893D03*
X004010Y021393D03*
X004010Y019393D03*
X004010Y018143D03*
X004010Y017143D03*
X004010Y016143D03*
X004010Y015143D03*
X004010Y014143D03*
X004010Y013143D03*
X004010Y012143D03*
X004010Y011143D03*
X004010Y009893D03*
X005010Y011143D03*
X005010Y012143D03*
X005010Y013143D03*
X005010Y014143D03*
X005010Y015143D03*
X005010Y016143D03*
X005010Y017143D03*
X005010Y018143D03*
X005260Y009893D03*
X005260Y007893D03*
X004010Y007893D03*
X018260Y027393D03*
X018260Y028393D03*
X018260Y029393D03*
X018260Y030393D03*
X018260Y031393D03*
X018260Y032393D03*
D18*
X005260Y006893D03*
X004010Y006893D03*
X004010Y002893D03*
X005260Y002893D03*
X004010Y022643D03*
X004010Y026643D03*
D19*
X016760Y033643D03*
X016760Y034643D03*
D20*
X012260Y019393D03*
X012260Y004393D03*
D21*
X005010Y016143D02*
X005760Y016893D01*
X005760Y018643D01*
X005010Y019393D01*
X004010Y019393D01*
X004010Y021393D02*
X004010Y022643D01*
X004010Y016143D02*
X005010Y016143D01*
X005010Y015143D02*
X004010Y015143D01*
X004010Y011143D02*
X004010Y009893D01*
X004010Y011143D02*
X005010Y011143D01*
X005260Y007893D02*
X005260Y006893D01*
X004010Y006893D02*
X004010Y007893D01*
D22*
X004010Y006893D02*
X004010Y006143D01*
X006760Y003393D01*
X009510Y003393D01*
X010135Y003893D01*
X010135Y005018D01*
X009010Y006143D01*
X009010Y007893D01*
X009510Y008393D01*
X009510Y008893D01*
X010010Y009393D01*
X010010Y012893D01*
X009010Y013893D01*
X009010Y017643D01*
X010010Y018643D01*
X010010Y021143D01*
X011260Y022393D01*
X011260Y023143D01*
X011010Y023393D01*
X009760Y024643D01*
X009760Y025393D01*
X009010Y026706D02*
X009244Y026941D01*
X009010Y026706D02*
X009010Y020893D01*
X009244Y020659D01*
X009244Y019441D01*
X007510Y017706D01*
X007510Y014143D01*
X006260Y012893D01*
X006260Y010393D01*
X006260Y008893D01*
X005260Y007893D01*
X005260Y009893D02*
X005760Y010393D01*
X005760Y014393D01*
X005010Y015143D01*
X011010Y017393D02*
X011510Y017893D01*
X011510Y020843D01*
X011810Y021143D01*
X011810Y025893D01*
X011810Y034593D01*
X011260Y035143D01*
X010010Y035143D01*
X009307Y034441D01*
X009244Y034441D01*
X010010Y035143D02*
X008260Y036893D01*
X008260Y038643D01*
X006760Y040143D01*
X005260Y038893D01*
X004260Y038893D01*
X014260Y034143D02*
X014260Y033143D01*
X015260Y033143D02*
X016260Y033143D01*
X016760Y033643D01*
X016010Y034393D01*
X016010Y035393D01*
X015510Y035893D01*
D23*
X017010Y036143D02*
X015510Y037643D01*
X015510Y038893D01*
X015260Y038893D01*
X015010Y038643D01*
X011760Y038643D01*
X011260Y038143D01*
X011260Y037143D02*
X011510Y037143D01*
X012010Y036643D01*
X012510Y036643D01*
X013260Y035893D01*
X013260Y026393D01*
X013510Y026143D01*
X013510Y024643D01*
X013260Y024393D01*
X013260Y018143D01*
X014010Y017393D01*
X013510Y016893D01*
X013510Y014143D01*
X013760Y013893D01*
X014260Y013893D01*
X014760Y013393D01*
X014760Y009143D01*
X013510Y007893D01*
X012510Y007893D02*
X013760Y006643D01*
X014010Y006643D01*
X014010Y006143D01*
X013760Y005893D01*
X014010Y005393D02*
X012260Y005393D01*
X012260Y004393D02*
X010760Y002893D01*
X009244Y004441D02*
X008510Y005175D01*
X008510Y008643D01*
X007760Y010143D02*
X006660Y011143D01*
X006660Y012543D01*
X008010Y013893D01*
X008010Y017393D01*
X008260Y019441D02*
X005510Y022191D01*
X005510Y023643D01*
X006760Y025393D02*
X006510Y025643D01*
X006510Y027143D01*
X006010Y027643D01*
X005510Y027643D01*
X005510Y026643D01*
X005010Y030143D02*
X005510Y030643D01*
X005010Y030143D02*
X005010Y020893D01*
X006760Y019143D01*
X006760Y017393D01*
X008760Y020143D02*
X008260Y020643D01*
X008260Y026941D01*
X007760Y029643D02*
X011010Y026393D01*
X010010Y028643D02*
X008510Y030143D01*
X008510Y030893D01*
X006510Y032893D01*
X006510Y035643D01*
X007260Y036393D01*
X007260Y038893D01*
X006760Y039393D01*
X007760Y040893D02*
X008510Y040143D01*
X009760Y040143D01*
X010760Y041143D01*
X011260Y041143D01*
X014260Y038143D02*
X014760Y037643D01*
X014760Y024393D01*
X015010Y024143D01*
X015010Y022143D01*
X014760Y021893D01*
X014760Y020143D01*
X014510Y019893D01*
X014510Y019393D01*
X014760Y019143D01*
X014760Y017143D01*
X014010Y016393D01*
X015010Y016393D02*
X014010Y015393D01*
X014010Y014393D01*
X014010Y013393D02*
X013760Y013393D01*
X013010Y014143D01*
X013010Y024643D01*
X013260Y024893D01*
X013260Y025893D01*
X012760Y026393D01*
X012760Y028143D01*
X012760Y030143D02*
X012760Y031643D01*
X012260Y031143D02*
X012260Y020393D01*
X012760Y018143D02*
X011010Y016393D01*
X011010Y015393D01*
X011010Y013393D02*
X012010Y013393D01*
X012510Y012893D01*
X012510Y012143D01*
X011510Y012143D02*
X011510Y010893D01*
X011010Y010393D01*
X007760Y005393D02*
X008260Y004893D01*
X008260Y004441D01*
X007760Y005393D02*
X007760Y010143D01*
X010510Y020143D02*
X011010Y020643D01*
X011010Y021393D01*
X012760Y018143D02*
X012760Y025393D01*
X014010Y024393D02*
X014510Y023893D01*
X014510Y022643D01*
X014260Y022393D01*
X014010Y022143D01*
X014010Y021393D01*
X014010Y019643D01*
X015010Y019643D02*
X015010Y016393D01*
X016260Y017956D02*
X017260Y016956D01*
X017260Y011143D01*
X015510Y006893D02*
X014010Y005393D01*
X013760Y002893D02*
X016073Y002893D01*
X016260Y002956D01*
X015510Y006893D02*
X015510Y025393D01*
X016010Y025893D01*
X015260Y026643D01*
X015260Y029393D01*
X016260Y028393D02*
X016260Y028043D01*
X016260Y028393D02*
X017260Y029393D01*
X017260Y035393D01*
X017010Y035643D01*
X017010Y036143D01*
X017510Y035893D02*
X017510Y029143D01*
X017260Y028893D01*
X017260Y027893D01*
X016260Y026893D01*
X016260Y026830D01*
X016510Y025893D02*
X016010Y025893D01*
X016510Y025893D02*
X017510Y026893D01*
X017510Y028643D01*
X018260Y029393D01*
X018260Y027393D02*
X018260Y025893D01*
X017510Y038893D02*
X016510Y038893D01*
X016510Y040393D01*
X015510Y040393D02*
X015510Y038893D01*
X011260Y033143D02*
X010260Y033143D01*
X011260Y032143D02*
X009260Y032143D01*
X008260Y033143D01*
X006260Y031893D02*
X007760Y030393D01*
X007760Y029643D01*
X006260Y031893D02*
X005510Y031893D01*
X005260Y031893D01*
X004010Y030643D01*
X004260Y035893D02*
X003760Y036393D01*
X003760Y041143D01*
X004010Y041393D01*
X005260Y041393D01*
X005760Y040893D01*
X014010Y010393D02*
X014010Y009393D01*
D24*
X017260Y011143D03*
X015010Y019643D03*
X014010Y019643D03*
X012760Y025393D03*
X011810Y025893D03*
X012760Y028143D03*
X012760Y030143D03*
X012260Y031143D03*
X012760Y031643D03*
X015260Y029393D03*
X018260Y025893D03*
X010510Y020143D03*
X008760Y020143D03*
X008010Y017393D03*
X006760Y017393D03*
X008510Y008643D03*
X010010Y028643D03*
X006760Y039393D03*
M02*
