G75*
%MOIN*%
%OFA0B0*%
%FSLAX24Y24*%
%IPPOS*%
%LPD*%
%AMOC8*
5,1,8,0,0,1.08239X$1,22.5*
%
%ADD10C,0.0000*%
%ADD11C,0.0060*%
%ADD12C,0.0030*%
%ADD13C,0.0040*%
%ADD14C,0.0070*%
%ADD15R,0.0200X0.0150*%
%ADD16C,0.0050*%
%ADD17R,0.0150X0.0200*%
%ADD18C,0.0080*%
%ADD19C,0.0120*%
%ADD20C,0.0100*%
%ADD21C,0.0010*%
D10*
X003378Y002393D02*
X018885Y002393D01*
X018885Y041763D01*
X003378Y041763D01*
X003378Y002393D01*
X015709Y004893D02*
X015711Y004940D01*
X015717Y004986D01*
X015727Y005032D01*
X015740Y005077D01*
X015758Y005120D01*
X015779Y005162D01*
X015803Y005202D01*
X015831Y005239D01*
X015862Y005274D01*
X015896Y005307D01*
X015932Y005336D01*
X015971Y005362D01*
X016012Y005385D01*
X016055Y005404D01*
X016099Y005420D01*
X016144Y005432D01*
X016190Y005440D01*
X016237Y005444D01*
X016283Y005444D01*
X016330Y005440D01*
X016376Y005432D01*
X016421Y005420D01*
X016465Y005404D01*
X016508Y005385D01*
X016549Y005362D01*
X016588Y005336D01*
X016624Y005307D01*
X016658Y005274D01*
X016689Y005239D01*
X016717Y005202D01*
X016741Y005162D01*
X016762Y005120D01*
X016780Y005077D01*
X016793Y005032D01*
X016803Y004986D01*
X016809Y004940D01*
X016811Y004893D01*
X016809Y004846D01*
X016803Y004800D01*
X016793Y004754D01*
X016780Y004709D01*
X016762Y004666D01*
X016741Y004624D01*
X016717Y004584D01*
X016689Y004547D01*
X016658Y004512D01*
X016624Y004479D01*
X016588Y004450D01*
X016549Y004424D01*
X016508Y004401D01*
X016465Y004382D01*
X016421Y004366D01*
X016376Y004354D01*
X016330Y004346D01*
X016283Y004342D01*
X016237Y004342D01*
X016190Y004346D01*
X016144Y004354D01*
X016099Y004366D01*
X016055Y004382D01*
X016012Y004401D01*
X015971Y004424D01*
X015932Y004450D01*
X015896Y004479D01*
X015862Y004512D01*
X015831Y004547D01*
X015803Y004584D01*
X015779Y004624D01*
X015758Y004666D01*
X015740Y004709D01*
X015727Y004754D01*
X015717Y004800D01*
X015711Y004846D01*
X015709Y004893D01*
X015709Y009893D02*
X015711Y009940D01*
X015717Y009986D01*
X015727Y010032D01*
X015740Y010077D01*
X015758Y010120D01*
X015779Y010162D01*
X015803Y010202D01*
X015831Y010239D01*
X015862Y010274D01*
X015896Y010307D01*
X015932Y010336D01*
X015971Y010362D01*
X016012Y010385D01*
X016055Y010404D01*
X016099Y010420D01*
X016144Y010432D01*
X016190Y010440D01*
X016237Y010444D01*
X016283Y010444D01*
X016330Y010440D01*
X016376Y010432D01*
X016421Y010420D01*
X016465Y010404D01*
X016508Y010385D01*
X016549Y010362D01*
X016588Y010336D01*
X016624Y010307D01*
X016658Y010274D01*
X016689Y010239D01*
X016717Y010202D01*
X016741Y010162D01*
X016762Y010120D01*
X016780Y010077D01*
X016793Y010032D01*
X016803Y009986D01*
X016809Y009940D01*
X016811Y009893D01*
X016809Y009846D01*
X016803Y009800D01*
X016793Y009754D01*
X016780Y009709D01*
X016762Y009666D01*
X016741Y009624D01*
X016717Y009584D01*
X016689Y009547D01*
X016658Y009512D01*
X016624Y009479D01*
X016588Y009450D01*
X016549Y009424D01*
X016508Y009401D01*
X016465Y009382D01*
X016421Y009366D01*
X016376Y009354D01*
X016330Y009346D01*
X016283Y009342D01*
X016237Y009342D01*
X016190Y009346D01*
X016144Y009354D01*
X016099Y009366D01*
X016055Y009382D01*
X016012Y009401D01*
X015971Y009424D01*
X015932Y009450D01*
X015896Y009479D01*
X015862Y009512D01*
X015831Y009547D01*
X015803Y009584D01*
X015779Y009624D01*
X015758Y009666D01*
X015740Y009709D01*
X015727Y009754D01*
X015717Y009800D01*
X015711Y009846D01*
X015709Y009893D01*
X015709Y014893D02*
X015711Y014940D01*
X015717Y014986D01*
X015727Y015032D01*
X015740Y015077D01*
X015758Y015120D01*
X015779Y015162D01*
X015803Y015202D01*
X015831Y015239D01*
X015862Y015274D01*
X015896Y015307D01*
X015932Y015336D01*
X015971Y015362D01*
X016012Y015385D01*
X016055Y015404D01*
X016099Y015420D01*
X016144Y015432D01*
X016190Y015440D01*
X016237Y015444D01*
X016283Y015444D01*
X016330Y015440D01*
X016376Y015432D01*
X016421Y015420D01*
X016465Y015404D01*
X016508Y015385D01*
X016549Y015362D01*
X016588Y015336D01*
X016624Y015307D01*
X016658Y015274D01*
X016689Y015239D01*
X016717Y015202D01*
X016741Y015162D01*
X016762Y015120D01*
X016780Y015077D01*
X016793Y015032D01*
X016803Y014986D01*
X016809Y014940D01*
X016811Y014893D01*
X016809Y014846D01*
X016803Y014800D01*
X016793Y014754D01*
X016780Y014709D01*
X016762Y014666D01*
X016741Y014624D01*
X016717Y014584D01*
X016689Y014547D01*
X016658Y014512D01*
X016624Y014479D01*
X016588Y014450D01*
X016549Y014424D01*
X016508Y014401D01*
X016465Y014382D01*
X016421Y014366D01*
X016376Y014354D01*
X016330Y014346D01*
X016283Y014342D01*
X016237Y014342D01*
X016190Y014346D01*
X016144Y014354D01*
X016099Y014366D01*
X016055Y014382D01*
X016012Y014401D01*
X015971Y014424D01*
X015932Y014450D01*
X015896Y014479D01*
X015862Y014512D01*
X015831Y014547D01*
X015803Y014584D01*
X015779Y014624D01*
X015758Y014666D01*
X015740Y014709D01*
X015727Y014754D01*
X015717Y014800D01*
X015711Y014846D01*
X015709Y014893D01*
X015709Y019893D02*
X015711Y019940D01*
X015717Y019986D01*
X015727Y020032D01*
X015740Y020077D01*
X015758Y020120D01*
X015779Y020162D01*
X015803Y020202D01*
X015831Y020239D01*
X015862Y020274D01*
X015896Y020307D01*
X015932Y020336D01*
X015971Y020362D01*
X016012Y020385D01*
X016055Y020404D01*
X016099Y020420D01*
X016144Y020432D01*
X016190Y020440D01*
X016237Y020444D01*
X016283Y020444D01*
X016330Y020440D01*
X016376Y020432D01*
X016421Y020420D01*
X016465Y020404D01*
X016508Y020385D01*
X016549Y020362D01*
X016588Y020336D01*
X016624Y020307D01*
X016658Y020274D01*
X016689Y020239D01*
X016717Y020202D01*
X016741Y020162D01*
X016762Y020120D01*
X016780Y020077D01*
X016793Y020032D01*
X016803Y019986D01*
X016809Y019940D01*
X016811Y019893D01*
X016809Y019846D01*
X016803Y019800D01*
X016793Y019754D01*
X016780Y019709D01*
X016762Y019666D01*
X016741Y019624D01*
X016717Y019584D01*
X016689Y019547D01*
X016658Y019512D01*
X016624Y019479D01*
X016588Y019450D01*
X016549Y019424D01*
X016508Y019401D01*
X016465Y019382D01*
X016421Y019366D01*
X016376Y019354D01*
X016330Y019346D01*
X016283Y019342D01*
X016237Y019342D01*
X016190Y019346D01*
X016144Y019354D01*
X016099Y019366D01*
X016055Y019382D01*
X016012Y019401D01*
X015971Y019424D01*
X015932Y019450D01*
X015896Y019479D01*
X015862Y019512D01*
X015831Y019547D01*
X015803Y019584D01*
X015779Y019624D01*
X015758Y019666D01*
X015740Y019709D01*
X015727Y019754D01*
X015717Y019800D01*
X015711Y019846D01*
X015709Y019893D01*
X015709Y024893D02*
X015711Y024940D01*
X015717Y024986D01*
X015727Y025032D01*
X015740Y025077D01*
X015758Y025120D01*
X015779Y025162D01*
X015803Y025202D01*
X015831Y025239D01*
X015862Y025274D01*
X015896Y025307D01*
X015932Y025336D01*
X015971Y025362D01*
X016012Y025385D01*
X016055Y025404D01*
X016099Y025420D01*
X016144Y025432D01*
X016190Y025440D01*
X016237Y025444D01*
X016283Y025444D01*
X016330Y025440D01*
X016376Y025432D01*
X016421Y025420D01*
X016465Y025404D01*
X016508Y025385D01*
X016549Y025362D01*
X016588Y025336D01*
X016624Y025307D01*
X016658Y025274D01*
X016689Y025239D01*
X016717Y025202D01*
X016741Y025162D01*
X016762Y025120D01*
X016780Y025077D01*
X016793Y025032D01*
X016803Y024986D01*
X016809Y024940D01*
X016811Y024893D01*
X016809Y024846D01*
X016803Y024800D01*
X016793Y024754D01*
X016780Y024709D01*
X016762Y024666D01*
X016741Y024624D01*
X016717Y024584D01*
X016689Y024547D01*
X016658Y024512D01*
X016624Y024479D01*
X016588Y024450D01*
X016549Y024424D01*
X016508Y024401D01*
X016465Y024382D01*
X016421Y024366D01*
X016376Y024354D01*
X016330Y024346D01*
X016283Y024342D01*
X016237Y024342D01*
X016190Y024346D01*
X016144Y024354D01*
X016099Y024366D01*
X016055Y024382D01*
X016012Y024401D01*
X015971Y024424D01*
X015932Y024450D01*
X015896Y024479D01*
X015862Y024512D01*
X015831Y024547D01*
X015803Y024584D01*
X015779Y024624D01*
X015758Y024666D01*
X015740Y024709D01*
X015727Y024754D01*
X015717Y024800D01*
X015711Y024846D01*
X015709Y024893D01*
D11*
X013860Y027343D02*
X011660Y027343D01*
X011660Y041943D01*
X012510Y041943D01*
X012512Y041913D01*
X012517Y041883D01*
X012526Y041854D01*
X012539Y041827D01*
X012554Y041801D01*
X012573Y041777D01*
X012594Y041756D01*
X012618Y041737D01*
X012644Y041722D01*
X012671Y041709D01*
X012700Y041700D01*
X012730Y041695D01*
X012760Y041693D01*
X012790Y041695D01*
X012820Y041700D01*
X012849Y041709D01*
X012876Y041722D01*
X012902Y041737D01*
X012926Y041756D01*
X012947Y041777D01*
X012966Y041801D01*
X012981Y041827D01*
X012994Y041854D01*
X013003Y041883D01*
X013008Y041913D01*
X013010Y041943D01*
X013860Y041943D01*
X013860Y027343D01*
X013660Y026893D02*
X012910Y026893D01*
X012908Y026854D01*
X012902Y026815D01*
X012893Y026777D01*
X012880Y026740D01*
X012863Y026704D01*
X012843Y026671D01*
X012819Y026639D01*
X012793Y026610D01*
X012764Y026584D01*
X012732Y026560D01*
X012699Y026540D01*
X012663Y026523D01*
X012626Y026510D01*
X012588Y026501D01*
X012549Y026495D01*
X012510Y026493D01*
X012471Y026495D01*
X012432Y026501D01*
X012394Y026510D01*
X012357Y026523D01*
X012321Y026540D01*
X012288Y026560D01*
X012256Y026584D01*
X012227Y026610D01*
X012201Y026639D01*
X012177Y026671D01*
X012157Y026704D01*
X012140Y026740D01*
X012127Y026777D01*
X012118Y026815D01*
X012112Y026854D01*
X012110Y026893D01*
X011360Y026893D01*
X011360Y022893D01*
X013660Y022893D01*
X013660Y026893D01*
X013660Y022793D02*
X013510Y022793D01*
X013460Y022743D01*
X012060Y022743D01*
X012010Y022793D01*
X011860Y022793D01*
X011843Y022791D01*
X011826Y022787D01*
X011810Y022780D01*
X011796Y022770D01*
X011783Y022757D01*
X011773Y022743D01*
X011766Y022727D01*
X011762Y022710D01*
X011760Y022693D01*
X011760Y022093D01*
X011762Y022076D01*
X011766Y022059D01*
X011773Y022043D01*
X011783Y022029D01*
X011796Y022016D01*
X011810Y022006D01*
X011826Y021999D01*
X011843Y021995D01*
X011860Y021993D01*
X012010Y021993D01*
X012060Y022043D01*
X013460Y022043D01*
X013510Y021993D01*
X013660Y021993D01*
X013677Y021995D01*
X013694Y021999D01*
X013710Y022006D01*
X013724Y022016D01*
X013737Y022029D01*
X013747Y022043D01*
X013754Y022059D01*
X013758Y022076D01*
X013760Y022093D01*
X013760Y022693D01*
X013758Y022710D01*
X013754Y022727D01*
X013747Y022743D01*
X013737Y022757D01*
X013724Y022770D01*
X013710Y022780D01*
X013694Y022787D01*
X013677Y022791D01*
X013660Y022793D01*
X013410Y021793D02*
X013260Y021793D01*
X013210Y021743D01*
X011810Y021743D01*
X011760Y021793D01*
X011610Y021793D01*
X011593Y021791D01*
X011576Y021787D01*
X011560Y021780D01*
X011546Y021770D01*
X011533Y021757D01*
X011523Y021743D01*
X011516Y021727D01*
X011512Y021710D01*
X011510Y021693D01*
X011510Y021093D01*
X011512Y021076D01*
X011516Y021059D01*
X011523Y021043D01*
X011533Y021029D01*
X011546Y021016D01*
X011560Y021006D01*
X011576Y020999D01*
X011593Y020995D01*
X011610Y020993D01*
X011760Y020993D01*
X011810Y021043D01*
X013210Y021043D01*
X013260Y020993D01*
X013410Y020993D01*
X013427Y020995D01*
X013444Y020999D01*
X013460Y021006D01*
X013474Y021016D01*
X013487Y021029D01*
X013497Y021043D01*
X013504Y021059D01*
X013508Y021076D01*
X013510Y021093D01*
X013510Y021693D01*
X013508Y021710D01*
X013504Y021727D01*
X013497Y021743D01*
X013487Y021757D01*
X013474Y021770D01*
X013460Y021780D01*
X013444Y021787D01*
X013427Y021791D01*
X013410Y021793D01*
X013410Y018793D02*
X013260Y018793D01*
X013210Y018743D01*
X011810Y018743D01*
X011760Y018793D01*
X011610Y018793D01*
X011593Y018791D01*
X011576Y018787D01*
X011560Y018780D01*
X011546Y018770D01*
X011533Y018757D01*
X011523Y018743D01*
X011516Y018727D01*
X011512Y018710D01*
X011510Y018693D01*
X011510Y018093D01*
X011512Y018076D01*
X011516Y018059D01*
X011523Y018043D01*
X011533Y018029D01*
X011546Y018016D01*
X011560Y018006D01*
X011576Y017999D01*
X011593Y017995D01*
X011610Y017993D01*
X011760Y017993D01*
X011810Y018043D01*
X013210Y018043D01*
X013260Y017993D01*
X013410Y017993D01*
X013427Y017995D01*
X013444Y017999D01*
X013460Y018006D01*
X013474Y018016D01*
X013487Y018029D01*
X013497Y018043D01*
X013504Y018059D01*
X013508Y018076D01*
X013510Y018093D01*
X013510Y018693D01*
X013508Y018710D01*
X013504Y018727D01*
X013497Y018743D01*
X013487Y018757D01*
X013474Y018770D01*
X013460Y018780D01*
X013444Y018787D01*
X013427Y018791D01*
X013410Y018793D01*
X013410Y017793D02*
X013260Y017793D01*
X013210Y017743D01*
X011810Y017743D01*
X011760Y017793D01*
X011610Y017793D01*
X011593Y017791D01*
X011576Y017787D01*
X011560Y017780D01*
X011546Y017770D01*
X011533Y017757D01*
X011523Y017743D01*
X011516Y017727D01*
X011512Y017710D01*
X011510Y017693D01*
X011510Y017093D01*
X011512Y017076D01*
X011516Y017059D01*
X011523Y017043D01*
X011533Y017029D01*
X011546Y017016D01*
X011560Y017006D01*
X011576Y016999D01*
X011593Y016995D01*
X011610Y016993D01*
X011760Y016993D01*
X011810Y017043D01*
X013210Y017043D01*
X013260Y016993D01*
X013410Y016993D01*
X013427Y016995D01*
X013444Y016999D01*
X013460Y017006D01*
X013474Y017016D01*
X013487Y017029D01*
X013497Y017043D01*
X013504Y017059D01*
X013508Y017076D01*
X013510Y017093D01*
X013510Y017693D01*
X013508Y017710D01*
X013504Y017727D01*
X013497Y017743D01*
X013487Y017757D01*
X013474Y017770D01*
X013460Y017780D01*
X013444Y017787D01*
X013427Y017791D01*
X013410Y017793D01*
X013410Y016793D02*
X013260Y016793D01*
X013210Y016743D01*
X011810Y016743D01*
X011760Y016793D01*
X011610Y016793D01*
X011593Y016791D01*
X011576Y016787D01*
X011560Y016780D01*
X011546Y016770D01*
X011533Y016757D01*
X011523Y016743D01*
X011516Y016727D01*
X011512Y016710D01*
X011510Y016693D01*
X011510Y016093D01*
X011512Y016076D01*
X011516Y016059D01*
X011523Y016043D01*
X011533Y016029D01*
X011546Y016016D01*
X011560Y016006D01*
X011576Y015999D01*
X011593Y015995D01*
X011610Y015993D01*
X011760Y015993D01*
X011810Y016043D01*
X013210Y016043D01*
X013260Y015993D01*
X013410Y015993D01*
X013427Y015995D01*
X013444Y015999D01*
X013460Y016006D01*
X013474Y016016D01*
X013487Y016029D01*
X013497Y016043D01*
X013504Y016059D01*
X013508Y016076D01*
X013510Y016093D01*
X013510Y016693D01*
X013508Y016710D01*
X013504Y016727D01*
X013497Y016743D01*
X013487Y016757D01*
X013474Y016770D01*
X013460Y016780D01*
X013444Y016787D01*
X013427Y016791D01*
X013410Y016793D01*
X013410Y015793D02*
X013260Y015793D01*
X013210Y015743D01*
X011810Y015743D01*
X011760Y015793D01*
X011610Y015793D01*
X011593Y015791D01*
X011576Y015787D01*
X011560Y015780D01*
X011546Y015770D01*
X011533Y015757D01*
X011523Y015743D01*
X011516Y015727D01*
X011512Y015710D01*
X011510Y015693D01*
X011510Y015093D01*
X011512Y015076D01*
X011516Y015059D01*
X011523Y015043D01*
X011533Y015029D01*
X011546Y015016D01*
X011560Y015006D01*
X011576Y014999D01*
X011593Y014995D01*
X011610Y014993D01*
X011760Y014993D01*
X011810Y015043D01*
X013210Y015043D01*
X013260Y014993D01*
X013410Y014993D01*
X013427Y014995D01*
X013444Y014999D01*
X013460Y015006D01*
X013474Y015016D01*
X013487Y015029D01*
X013497Y015043D01*
X013504Y015059D01*
X013508Y015076D01*
X013510Y015093D01*
X013510Y015693D01*
X013508Y015710D01*
X013504Y015727D01*
X013497Y015743D01*
X013487Y015757D01*
X013474Y015770D01*
X013460Y015780D01*
X013444Y015787D01*
X013427Y015791D01*
X013410Y015793D01*
X013410Y014793D02*
X013260Y014793D01*
X013210Y014743D01*
X011810Y014743D01*
X011760Y014793D01*
X011610Y014793D01*
X011593Y014791D01*
X011576Y014787D01*
X011560Y014780D01*
X011546Y014770D01*
X011533Y014757D01*
X011523Y014743D01*
X011516Y014727D01*
X011512Y014710D01*
X011510Y014693D01*
X011510Y014093D01*
X011512Y014076D01*
X011516Y014059D01*
X011523Y014043D01*
X011533Y014029D01*
X011546Y014016D01*
X011560Y014006D01*
X011576Y013999D01*
X011593Y013995D01*
X011610Y013993D01*
X011760Y013993D01*
X011810Y014043D01*
X013210Y014043D01*
X013260Y013993D01*
X013410Y013993D01*
X013427Y013995D01*
X013444Y013999D01*
X013460Y014006D01*
X013474Y014016D01*
X013487Y014029D01*
X013497Y014043D01*
X013504Y014059D01*
X013508Y014076D01*
X013510Y014093D01*
X013510Y014693D01*
X013508Y014710D01*
X013504Y014727D01*
X013497Y014743D01*
X013487Y014757D01*
X013474Y014770D01*
X013460Y014780D01*
X013444Y014787D01*
X013427Y014791D01*
X013410Y014793D01*
X013410Y013793D02*
X013260Y013793D01*
X013210Y013743D01*
X011810Y013743D01*
X011760Y013793D01*
X011610Y013793D01*
X011593Y013791D01*
X011576Y013787D01*
X011560Y013780D01*
X011546Y013770D01*
X011533Y013757D01*
X011523Y013743D01*
X011516Y013727D01*
X011512Y013710D01*
X011510Y013693D01*
X011510Y013093D01*
X011512Y013076D01*
X011516Y013059D01*
X011523Y013043D01*
X011533Y013029D01*
X011546Y013016D01*
X011560Y013006D01*
X011576Y012999D01*
X011593Y012995D01*
X011610Y012993D01*
X011760Y012993D01*
X011810Y013043D01*
X013210Y013043D01*
X013260Y012993D01*
X013410Y012993D01*
X013427Y012995D01*
X013444Y012999D01*
X013460Y013006D01*
X013474Y013016D01*
X013487Y013029D01*
X013497Y013043D01*
X013504Y013059D01*
X013508Y013076D01*
X013510Y013093D01*
X013510Y013693D01*
X013508Y013710D01*
X013504Y013727D01*
X013497Y013743D01*
X013487Y013757D01*
X013474Y013770D01*
X013460Y013780D01*
X013444Y013787D01*
X013427Y013791D01*
X013410Y013793D01*
X013410Y010793D02*
X013260Y010793D01*
X013210Y010743D01*
X011810Y010743D01*
X011760Y010793D01*
X011610Y010793D01*
X011593Y010791D01*
X011576Y010787D01*
X011560Y010780D01*
X011546Y010770D01*
X011533Y010757D01*
X011523Y010743D01*
X011516Y010727D01*
X011512Y010710D01*
X011510Y010693D01*
X011510Y010093D01*
X011512Y010076D01*
X011516Y010059D01*
X011523Y010043D01*
X011533Y010029D01*
X011546Y010016D01*
X011560Y010006D01*
X011576Y009999D01*
X011593Y009995D01*
X011610Y009993D01*
X011760Y009993D01*
X011810Y010043D01*
X013210Y010043D01*
X013260Y009993D01*
X013410Y009993D01*
X013427Y009995D01*
X013444Y009999D01*
X013460Y010006D01*
X013474Y010016D01*
X013487Y010029D01*
X013497Y010043D01*
X013504Y010059D01*
X013508Y010076D01*
X013510Y010093D01*
X013510Y010693D01*
X013508Y010710D01*
X013504Y010727D01*
X013497Y010743D01*
X013487Y010757D01*
X013474Y010770D01*
X013460Y010780D01*
X013444Y010787D01*
X013427Y010791D01*
X013410Y010793D01*
X013410Y009793D02*
X013260Y009793D01*
X013210Y009743D01*
X011810Y009743D01*
X011760Y009793D01*
X011610Y009793D01*
X011593Y009791D01*
X011576Y009787D01*
X011560Y009780D01*
X011546Y009770D01*
X011533Y009757D01*
X011523Y009743D01*
X011516Y009727D01*
X011512Y009710D01*
X011510Y009693D01*
X011510Y009093D01*
X011512Y009076D01*
X011516Y009059D01*
X011523Y009043D01*
X011533Y009029D01*
X011546Y009016D01*
X011560Y009006D01*
X011576Y008999D01*
X011593Y008995D01*
X011610Y008993D01*
X011760Y008993D01*
X011810Y009043D01*
X013210Y009043D01*
X013260Y008993D01*
X013410Y008993D01*
X013427Y008995D01*
X013444Y008999D01*
X013460Y009006D01*
X013474Y009016D01*
X013487Y009029D01*
X013497Y009043D01*
X013504Y009059D01*
X013508Y009076D01*
X013510Y009093D01*
X013510Y009693D01*
X013508Y009710D01*
X013504Y009727D01*
X013497Y009743D01*
X013487Y009757D01*
X013474Y009770D01*
X013460Y009780D01*
X013444Y009787D01*
X013427Y009791D01*
X013410Y009793D01*
X013410Y007043D02*
X013260Y007043D01*
X013210Y006993D01*
X011810Y006993D01*
X011760Y007043D01*
X011610Y007043D01*
X011593Y007041D01*
X011576Y007037D01*
X011560Y007030D01*
X011546Y007020D01*
X011533Y007007D01*
X011523Y006993D01*
X011516Y006977D01*
X011512Y006960D01*
X011510Y006943D01*
X011510Y006343D01*
X011512Y006326D01*
X011516Y006309D01*
X011523Y006293D01*
X011533Y006279D01*
X011546Y006266D01*
X011560Y006256D01*
X011576Y006249D01*
X011593Y006245D01*
X011610Y006243D01*
X011760Y006243D01*
X011810Y006293D01*
X013210Y006293D01*
X013260Y006243D01*
X013410Y006243D01*
X013427Y006245D01*
X013444Y006249D01*
X013460Y006256D01*
X013474Y006266D01*
X013487Y006279D01*
X013497Y006293D01*
X013504Y006309D01*
X013508Y006326D01*
X013510Y006343D01*
X013510Y006943D01*
X013508Y006960D01*
X013504Y006977D01*
X013497Y006993D01*
X013487Y007007D01*
X013474Y007020D01*
X013460Y007030D01*
X013444Y007037D01*
X013427Y007041D01*
X013410Y007043D01*
X013460Y005393D02*
X014060Y005393D01*
X014077Y005391D01*
X014094Y005387D01*
X014110Y005380D01*
X014124Y005370D01*
X014137Y005357D01*
X014147Y005343D01*
X014154Y005327D01*
X014158Y005310D01*
X014160Y005293D01*
X014160Y005143D01*
X014110Y005093D01*
X014110Y003693D01*
X014160Y003643D01*
X014160Y003493D01*
X014158Y003476D01*
X014154Y003459D01*
X014147Y003443D01*
X014137Y003429D01*
X014124Y003416D01*
X014110Y003406D01*
X014094Y003399D01*
X014077Y003395D01*
X014060Y003393D01*
X013460Y003393D01*
X013443Y003395D01*
X013426Y003399D01*
X013410Y003406D01*
X013396Y003416D01*
X013383Y003429D01*
X013373Y003443D01*
X013366Y003459D01*
X013362Y003476D01*
X013360Y003493D01*
X013360Y003643D01*
X013410Y003693D01*
X013410Y005093D01*
X013360Y005143D01*
X013360Y005293D01*
X013362Y005310D01*
X013366Y005327D01*
X013373Y005343D01*
X013383Y005357D01*
X013396Y005370D01*
X013410Y005380D01*
X013426Y005387D01*
X013443Y005391D01*
X013460Y005393D01*
X011160Y005293D02*
X011160Y005143D01*
X011110Y005093D01*
X011110Y003693D01*
X011160Y003643D01*
X011160Y003493D01*
X011158Y003476D01*
X011154Y003459D01*
X011147Y003443D01*
X011137Y003429D01*
X011124Y003416D01*
X011110Y003406D01*
X011094Y003399D01*
X011077Y003395D01*
X011060Y003393D01*
X010460Y003393D01*
X010443Y003395D01*
X010426Y003399D01*
X010410Y003406D01*
X010396Y003416D01*
X010383Y003429D01*
X010373Y003443D01*
X010366Y003459D01*
X010362Y003476D01*
X010360Y003493D01*
X010360Y003643D01*
X010410Y003693D01*
X010410Y005093D01*
X010360Y005143D01*
X010360Y005293D01*
X010362Y005310D01*
X010366Y005327D01*
X010373Y005343D01*
X010383Y005357D01*
X010396Y005370D01*
X010410Y005380D01*
X010426Y005387D01*
X010443Y005391D01*
X010460Y005393D01*
X011060Y005393D01*
X011077Y005391D01*
X011094Y005387D01*
X011110Y005380D01*
X011124Y005370D01*
X011137Y005357D01*
X011147Y005343D01*
X011154Y005327D01*
X011158Y005310D01*
X011160Y005293D01*
X008760Y010093D02*
X008760Y010693D01*
X008758Y010710D01*
X008754Y010727D01*
X008747Y010743D01*
X008737Y010757D01*
X008724Y010770D01*
X008710Y010780D01*
X008694Y010787D01*
X008677Y010791D01*
X008660Y010793D01*
X008510Y010793D01*
X008460Y010743D01*
X007060Y010743D01*
X007010Y010793D01*
X006860Y010793D01*
X006843Y010791D01*
X006826Y010787D01*
X006810Y010780D01*
X006796Y010770D01*
X006783Y010757D01*
X006773Y010743D01*
X006766Y010727D01*
X006762Y010710D01*
X006760Y010693D01*
X006760Y010093D01*
X006762Y010076D01*
X006766Y010059D01*
X006773Y010043D01*
X006783Y010029D01*
X006796Y010016D01*
X006810Y010006D01*
X006826Y009999D01*
X006843Y009995D01*
X006860Y009993D01*
X007010Y009993D01*
X007060Y010043D01*
X008460Y010043D01*
X008510Y009993D01*
X008660Y009993D01*
X008677Y009995D01*
X008694Y009999D01*
X008710Y010006D01*
X008724Y010016D01*
X008737Y010029D01*
X008747Y010043D01*
X008754Y010059D01*
X008758Y010076D01*
X008760Y010093D01*
X005510Y010893D02*
X005510Y011393D01*
X005260Y011643D01*
X003760Y011643D01*
X003510Y011893D01*
X003510Y012393D01*
X003760Y012643D01*
X005260Y012643D01*
X005510Y012893D01*
X005510Y013393D01*
X005260Y013643D01*
X003760Y013643D01*
X003510Y013893D01*
X003510Y014393D01*
X003760Y014643D01*
X005260Y014643D01*
X005510Y014893D01*
X005510Y015393D01*
X005260Y015643D01*
X003760Y015643D01*
X003510Y015893D01*
X003510Y016393D01*
X003760Y016643D01*
X005260Y016643D01*
X005510Y016893D01*
X005510Y017393D01*
X005260Y017643D01*
X003760Y017643D01*
X003510Y017893D01*
X003510Y018393D01*
X003760Y018643D01*
X005260Y018643D01*
X005510Y018393D01*
X005510Y017893D01*
X005260Y017643D01*
X005260Y016643D02*
X005510Y016393D01*
X005510Y015893D01*
X005260Y015643D01*
X005260Y014643D02*
X005510Y014393D01*
X005510Y013893D01*
X005260Y013643D01*
X005260Y012643D02*
X005510Y012393D01*
X005510Y011893D01*
X005260Y011643D01*
X005510Y010893D02*
X005260Y010643D01*
X003760Y010643D01*
X003510Y010893D01*
X003510Y011393D01*
X003760Y011643D01*
X003760Y012643D02*
X003510Y012893D01*
X003510Y013393D01*
X003760Y013643D01*
X003760Y014643D02*
X003510Y014893D01*
X003510Y015393D01*
X003760Y015643D01*
X003760Y016643D02*
X003510Y016893D01*
X003510Y017393D01*
X003760Y017643D01*
X005210Y024143D02*
X005810Y024143D01*
X005827Y024145D01*
X005844Y024149D01*
X005860Y024156D01*
X005874Y024166D01*
X005887Y024179D01*
X005897Y024193D01*
X005904Y024209D01*
X005908Y024226D01*
X005910Y024243D01*
X005910Y024393D01*
X005860Y024443D01*
X005860Y025843D01*
X005910Y025893D01*
X005910Y026043D01*
X005908Y026060D01*
X005904Y026077D01*
X005897Y026093D01*
X005887Y026107D01*
X005874Y026120D01*
X005860Y026130D01*
X005844Y026137D01*
X005827Y026141D01*
X005810Y026143D01*
X005210Y026143D01*
X005193Y026141D01*
X005176Y026137D01*
X005160Y026130D01*
X005146Y026120D01*
X005133Y026107D01*
X005123Y026093D01*
X005116Y026077D01*
X005112Y026060D01*
X005110Y026043D01*
X005110Y025893D01*
X005160Y025843D01*
X005160Y024443D01*
X005110Y024393D01*
X005110Y024243D01*
X005112Y024226D01*
X005116Y024209D01*
X005123Y024193D01*
X005133Y024179D01*
X005146Y024166D01*
X005160Y024156D01*
X005176Y024149D01*
X005193Y024145D01*
X005210Y024143D01*
X005210Y028143D02*
X005810Y028143D01*
X005827Y028145D01*
X005844Y028149D01*
X005860Y028156D01*
X005874Y028166D01*
X005887Y028179D01*
X005897Y028193D01*
X005904Y028209D01*
X005908Y028226D01*
X005910Y028243D01*
X005910Y028393D01*
X005860Y028443D01*
X005860Y029843D01*
X005910Y029893D01*
X005910Y030043D01*
X005908Y030060D01*
X005904Y030077D01*
X005897Y030093D01*
X005887Y030107D01*
X005874Y030120D01*
X005860Y030130D01*
X005844Y030137D01*
X005827Y030141D01*
X005810Y030143D01*
X005210Y030143D01*
X005193Y030141D01*
X005176Y030137D01*
X005160Y030130D01*
X005146Y030120D01*
X005133Y030107D01*
X005123Y030093D01*
X005116Y030077D01*
X005112Y030060D01*
X005110Y030043D01*
X005110Y029893D01*
X005160Y029843D01*
X005160Y028443D01*
X005110Y028393D01*
X005110Y028243D01*
X005112Y028226D01*
X005116Y028209D01*
X005123Y028193D01*
X005133Y028179D01*
X005146Y028166D01*
X005160Y028156D01*
X005176Y028149D01*
X005193Y028145D01*
X005210Y028143D01*
X004410Y028243D02*
X004410Y028393D01*
X004360Y028443D01*
X004360Y029843D01*
X004410Y029893D01*
X004410Y030043D01*
X004408Y030060D01*
X004404Y030077D01*
X004397Y030093D01*
X004387Y030107D01*
X004374Y030120D01*
X004360Y030130D01*
X004344Y030137D01*
X004327Y030141D01*
X004310Y030143D01*
X003710Y030143D01*
X003693Y030141D01*
X003676Y030137D01*
X003660Y030130D01*
X003646Y030120D01*
X003633Y030107D01*
X003623Y030093D01*
X003616Y030077D01*
X003612Y030060D01*
X003610Y030043D01*
X003610Y029893D01*
X003660Y029843D01*
X003660Y028443D01*
X003610Y028393D01*
X003610Y028243D01*
X003612Y028226D01*
X003616Y028209D01*
X003623Y028193D01*
X003633Y028179D01*
X003646Y028166D01*
X003660Y028156D01*
X003676Y028149D01*
X003693Y028145D01*
X003710Y028143D01*
X004310Y028143D01*
X004327Y028145D01*
X004344Y028149D01*
X004360Y028156D01*
X004374Y028166D01*
X004387Y028179D01*
X004397Y028193D01*
X004404Y028209D01*
X004408Y028226D01*
X004410Y028243D01*
X005210Y032393D02*
X005810Y032393D01*
X005827Y032395D01*
X005844Y032399D01*
X005860Y032406D01*
X005874Y032416D01*
X005887Y032429D01*
X005897Y032443D01*
X005904Y032459D01*
X005908Y032476D01*
X005910Y032493D01*
X005910Y032643D01*
X005860Y032693D01*
X005860Y034093D01*
X005910Y034143D01*
X005910Y034293D01*
X005908Y034310D01*
X005904Y034327D01*
X005897Y034343D01*
X005887Y034357D01*
X005874Y034370D01*
X005860Y034380D01*
X005844Y034387D01*
X005827Y034391D01*
X005810Y034393D01*
X005210Y034393D01*
X005193Y034391D01*
X005176Y034387D01*
X005160Y034380D01*
X005146Y034370D01*
X005133Y034357D01*
X005123Y034343D01*
X005116Y034327D01*
X005112Y034310D01*
X005110Y034293D01*
X005110Y034143D01*
X005160Y034093D01*
X005160Y032693D01*
X005110Y032643D01*
X005110Y032493D01*
X005112Y032476D01*
X005116Y032459D01*
X005123Y032443D01*
X005133Y032429D01*
X005146Y032416D01*
X005160Y032406D01*
X005176Y032399D01*
X005193Y032395D01*
X005210Y032393D01*
X007360Y025793D02*
X007510Y025793D01*
X007560Y025743D01*
X008960Y025743D01*
X009010Y025793D01*
X009160Y025793D01*
X009177Y025791D01*
X009194Y025787D01*
X009210Y025780D01*
X009224Y025770D01*
X009237Y025757D01*
X009247Y025743D01*
X009254Y025727D01*
X009258Y025710D01*
X009260Y025693D01*
X009260Y025093D01*
X009258Y025076D01*
X009254Y025059D01*
X009247Y025043D01*
X009237Y025029D01*
X009224Y025016D01*
X009210Y025006D01*
X009194Y024999D01*
X009177Y024995D01*
X009160Y024993D01*
X009010Y024993D01*
X008960Y025043D01*
X007560Y025043D01*
X007510Y024993D01*
X007360Y024993D01*
X007343Y024995D01*
X007326Y024999D01*
X007310Y025006D01*
X007296Y025016D01*
X007283Y025029D01*
X007273Y025043D01*
X007266Y025059D01*
X007262Y025076D01*
X007260Y025093D01*
X007260Y025693D01*
X007262Y025710D01*
X007266Y025727D01*
X007273Y025743D01*
X007283Y025757D01*
X007296Y025770D01*
X007310Y025780D01*
X007326Y025787D01*
X007343Y025791D01*
X007360Y025793D01*
X007360Y039743D02*
X007510Y039743D01*
X007560Y039793D01*
X008960Y039793D01*
X009010Y039743D01*
X009160Y039743D01*
X009177Y039745D01*
X009194Y039749D01*
X009210Y039756D01*
X009224Y039766D01*
X009237Y039779D01*
X009247Y039793D01*
X009254Y039809D01*
X009258Y039826D01*
X009260Y039843D01*
X009260Y040443D01*
X009258Y040460D01*
X009254Y040477D01*
X009247Y040493D01*
X009237Y040507D01*
X009224Y040520D01*
X009210Y040530D01*
X009194Y040537D01*
X009177Y040541D01*
X009160Y040543D01*
X009010Y040543D01*
X008960Y040493D01*
X007560Y040493D01*
X007510Y040543D01*
X007360Y040543D01*
X007343Y040541D01*
X007326Y040537D01*
X007310Y040530D01*
X007296Y040520D01*
X007283Y040507D01*
X007273Y040493D01*
X007266Y040477D01*
X007262Y040460D01*
X007260Y040443D01*
X007260Y039843D01*
X007262Y039826D01*
X007266Y039809D01*
X007273Y039793D01*
X007283Y039779D01*
X007296Y039766D01*
X007310Y039756D01*
X007326Y039749D01*
X007343Y039745D01*
X007360Y039743D01*
X007410Y040443D02*
X006110Y040443D01*
X006084Y040445D01*
X006058Y040450D01*
X006033Y040458D01*
X006010Y040470D01*
X005988Y040484D01*
X005969Y040502D01*
X005951Y040521D01*
X005937Y040543D01*
X005925Y040566D01*
X005917Y040591D01*
X005912Y040617D01*
X005910Y040643D01*
X005910Y041143D02*
X005912Y041169D01*
X005917Y041195D01*
X005925Y041220D01*
X005937Y041243D01*
X005951Y041265D01*
X005969Y041284D01*
X005988Y041302D01*
X006010Y041316D01*
X006033Y041328D01*
X006058Y041336D01*
X006084Y041341D01*
X006110Y041343D01*
X007410Y041343D01*
X007436Y041341D01*
X007462Y041336D01*
X007487Y041328D01*
X007510Y041316D01*
X007532Y041302D01*
X007551Y041284D01*
X007569Y041265D01*
X007583Y041243D01*
X007595Y041220D01*
X007603Y041195D01*
X007608Y041169D01*
X007610Y041143D01*
X007610Y040643D02*
X007608Y040617D01*
X007603Y040591D01*
X007595Y040566D01*
X007583Y040543D01*
X007569Y040521D01*
X007551Y040502D01*
X007532Y040484D01*
X007510Y040470D01*
X007487Y040458D01*
X007462Y040450D01*
X007436Y040445D01*
X007410Y040443D01*
X007260Y040893D02*
X006890Y040893D01*
X006640Y040893D02*
X006260Y040893D01*
X014810Y034793D02*
X014810Y033493D01*
X014812Y033467D01*
X014817Y033441D01*
X014825Y033416D01*
X014837Y033393D01*
X014851Y033371D01*
X014869Y033352D01*
X014888Y033334D01*
X014910Y033320D01*
X014933Y033308D01*
X014958Y033300D01*
X014984Y033295D01*
X015010Y033293D01*
X015260Y033643D02*
X015260Y034023D01*
X015260Y034273D02*
X015260Y034643D01*
X015510Y034993D02*
X015536Y034991D01*
X015562Y034986D01*
X015587Y034978D01*
X015610Y034966D01*
X015632Y034952D01*
X015651Y034934D01*
X015669Y034915D01*
X015683Y034893D01*
X015695Y034870D01*
X015703Y034845D01*
X015708Y034819D01*
X015710Y034793D01*
X015710Y033493D01*
X015708Y033467D01*
X015703Y033441D01*
X015695Y033416D01*
X015683Y033393D01*
X015669Y033371D01*
X015651Y033352D01*
X015632Y033334D01*
X015610Y033320D01*
X015587Y033308D01*
X015562Y033300D01*
X015536Y033295D01*
X015510Y033293D01*
X016110Y033493D02*
X016260Y033493D01*
X016260Y033643D01*
X016260Y033493D02*
X016410Y033493D01*
X016260Y033493D02*
X016260Y033343D01*
X015660Y034143D02*
X015662Y034209D01*
X015668Y034274D01*
X015678Y034339D01*
X015691Y034404D01*
X015709Y034467D01*
X015730Y034530D01*
X015755Y034590D01*
X015784Y034650D01*
X015816Y034707D01*
X015851Y034763D01*
X015890Y034816D01*
X015932Y034867D01*
X015976Y034915D01*
X016024Y034960D01*
X016074Y035003D01*
X016127Y035042D01*
X016182Y035079D01*
X016239Y035112D01*
X016298Y035141D01*
X016358Y035167D01*
X016420Y035189D01*
X016483Y035208D01*
X016547Y035222D01*
X016612Y035233D01*
X016678Y035240D01*
X016744Y035243D01*
X016809Y035242D01*
X016875Y035237D01*
X016940Y035228D01*
X017005Y035215D01*
X017068Y035199D01*
X017131Y035179D01*
X017192Y035154D01*
X017252Y035127D01*
X017310Y035096D01*
X017366Y035061D01*
X017420Y035023D01*
X017471Y034982D01*
X017520Y034938D01*
X017566Y034891D01*
X017610Y034842D01*
X017650Y034790D01*
X017687Y034735D01*
X017721Y034679D01*
X017751Y034620D01*
X017778Y034560D01*
X017801Y034499D01*
X017820Y034436D01*
X017836Y034372D01*
X017848Y034307D01*
X017856Y034242D01*
X017860Y034176D01*
X017860Y034110D01*
X017856Y034044D01*
X017848Y033979D01*
X017836Y033914D01*
X017820Y033850D01*
X017801Y033787D01*
X017778Y033726D01*
X017751Y033666D01*
X017721Y033607D01*
X017687Y033551D01*
X017650Y033496D01*
X017610Y033444D01*
X017566Y033395D01*
X017520Y033348D01*
X017471Y033304D01*
X017420Y033263D01*
X017366Y033225D01*
X017310Y033190D01*
X017252Y033159D01*
X017192Y033132D01*
X017131Y033107D01*
X017068Y033087D01*
X017005Y033071D01*
X016940Y033058D01*
X016875Y033049D01*
X016809Y033044D01*
X016744Y033043D01*
X016678Y033046D01*
X016612Y033053D01*
X016547Y033064D01*
X016483Y033078D01*
X016420Y033097D01*
X016358Y033119D01*
X016298Y033145D01*
X016239Y033174D01*
X016182Y033207D01*
X016127Y033244D01*
X016074Y033283D01*
X016024Y033326D01*
X015976Y033371D01*
X015932Y033419D01*
X015890Y033470D01*
X015851Y033523D01*
X015816Y033579D01*
X015784Y033636D01*
X015755Y033696D01*
X015730Y033756D01*
X015709Y033819D01*
X015691Y033882D01*
X015678Y033947D01*
X015668Y034012D01*
X015662Y034077D01*
X015660Y034143D01*
X015010Y034993D02*
X014984Y034991D01*
X014958Y034986D01*
X014933Y034978D01*
X014910Y034966D01*
X014888Y034952D01*
X014869Y034934D01*
X014851Y034915D01*
X014837Y034893D01*
X014825Y034870D01*
X014817Y034845D01*
X014812Y034819D01*
X014810Y034793D01*
X015210Y036393D02*
X015810Y036393D01*
X015827Y036395D01*
X015844Y036399D01*
X015860Y036406D01*
X015874Y036416D01*
X015887Y036429D01*
X015897Y036443D01*
X015904Y036459D01*
X015908Y036476D01*
X015910Y036493D01*
X015910Y036643D01*
X015860Y036693D01*
X015860Y038093D01*
X015910Y038143D01*
X015910Y038293D01*
X015908Y038310D01*
X015904Y038327D01*
X015897Y038343D01*
X015887Y038357D01*
X015874Y038370D01*
X015860Y038380D01*
X015844Y038387D01*
X015827Y038391D01*
X015810Y038393D01*
X015210Y038393D01*
X015193Y038391D01*
X015176Y038387D01*
X015160Y038380D01*
X015146Y038370D01*
X015133Y038357D01*
X015123Y038343D01*
X015116Y038327D01*
X015112Y038310D01*
X015110Y038293D01*
X015110Y038143D01*
X015160Y038093D01*
X015160Y036693D01*
X015110Y036643D01*
X015110Y036493D01*
X015112Y036476D01*
X015116Y036459D01*
X015123Y036443D01*
X015133Y036429D01*
X015146Y036416D01*
X015160Y036406D01*
X015176Y036399D01*
X015193Y036395D01*
X015210Y036393D01*
X016110Y036493D02*
X016110Y036643D01*
X016160Y036693D01*
X016160Y038093D01*
X016110Y038143D01*
X016110Y038293D01*
X016112Y038310D01*
X016116Y038327D01*
X016123Y038343D01*
X016133Y038357D01*
X016146Y038370D01*
X016160Y038380D01*
X016176Y038387D01*
X016193Y038391D01*
X016210Y038393D01*
X016810Y038393D01*
X016827Y038391D01*
X016844Y038387D01*
X016860Y038380D01*
X016874Y038370D01*
X016887Y038357D01*
X016897Y038343D01*
X016904Y038327D01*
X016908Y038310D01*
X016910Y038293D01*
X016910Y038143D01*
X016860Y038093D01*
X016860Y036693D01*
X016910Y036643D01*
X016910Y036493D01*
X016908Y036476D01*
X016904Y036459D01*
X016897Y036443D01*
X016887Y036429D01*
X016874Y036416D01*
X016860Y036406D01*
X016844Y036399D01*
X016827Y036395D01*
X016810Y036393D01*
X016210Y036393D01*
X016193Y036395D01*
X016176Y036399D01*
X016160Y036406D01*
X016146Y036416D01*
X016133Y036429D01*
X016123Y036443D01*
X016116Y036459D01*
X016112Y036476D01*
X016110Y036493D01*
X017110Y036493D02*
X017110Y036643D01*
X017160Y036693D01*
X017160Y038093D01*
X017110Y038143D01*
X017110Y038293D01*
X017112Y038310D01*
X017116Y038327D01*
X017123Y038343D01*
X017133Y038357D01*
X017146Y038370D01*
X017160Y038380D01*
X017176Y038387D01*
X017193Y038391D01*
X017210Y038393D01*
X017810Y038393D01*
X017827Y038391D01*
X017844Y038387D01*
X017860Y038380D01*
X017874Y038370D01*
X017887Y038357D01*
X017897Y038343D01*
X017904Y038327D01*
X017908Y038310D01*
X017910Y038293D01*
X017910Y038143D01*
X017860Y038093D01*
X017860Y036693D01*
X017910Y036643D01*
X017910Y036493D01*
X017908Y036476D01*
X017904Y036459D01*
X017897Y036443D01*
X017887Y036429D01*
X017874Y036416D01*
X017860Y036406D01*
X017844Y036399D01*
X017827Y036395D01*
X017810Y036393D01*
X017210Y036393D01*
X017193Y036395D01*
X017176Y036399D01*
X017160Y036406D01*
X017146Y036416D01*
X017133Y036429D01*
X017123Y036443D01*
X017116Y036459D01*
X017112Y036476D01*
X017110Y036493D01*
X018196Y036933D02*
X018623Y036933D01*
X018730Y037039D01*
X018623Y037255D02*
X018730Y037362D01*
X018730Y037682D01*
X018409Y037682D01*
X018302Y037576D01*
X018302Y037362D01*
X018516Y037362D02*
X018516Y037682D01*
X018516Y037362D02*
X018623Y037255D01*
X018302Y037039D02*
X018302Y036826D01*
X018409Y036608D02*
X018730Y036608D01*
X018730Y036288D01*
X018623Y036181D01*
X018516Y036288D01*
X018516Y036608D01*
X018409Y036608D02*
X018302Y036501D01*
X018302Y036288D01*
X018409Y035964D02*
X018730Y035964D01*
X018730Y035750D02*
X018409Y035750D01*
X018302Y035857D01*
X018409Y035964D01*
X018409Y035750D02*
X018302Y035643D01*
X018302Y035537D01*
X018730Y035537D01*
X018623Y035319D02*
X018516Y035212D01*
X018516Y034999D01*
X018409Y034892D01*
X018302Y034999D01*
X018302Y035319D01*
X018623Y035319D02*
X018730Y035212D01*
X018730Y034892D01*
X018730Y034675D02*
X018730Y034354D01*
X018623Y034248D01*
X018516Y034354D01*
X018516Y034675D01*
X018409Y034675D02*
X018730Y034675D01*
X018409Y034675D02*
X018302Y034568D01*
X018302Y034354D01*
X018089Y033925D02*
X018730Y033925D01*
X018730Y034031D02*
X018730Y033818D01*
X018730Y033600D02*
X018409Y033280D01*
X018516Y033173D02*
X018089Y033600D01*
X018089Y033818D02*
X018089Y033925D01*
X018089Y033173D02*
X018730Y033173D01*
X018730Y038423D02*
X018089Y038423D01*
X018089Y038744D01*
X018196Y038850D01*
X018409Y038850D01*
X018516Y038744D01*
X018516Y038423D01*
X018516Y038637D02*
X018730Y038850D01*
X018623Y039068D02*
X018730Y039175D01*
X018730Y039388D01*
X018516Y039495D02*
X018516Y039068D01*
X018623Y039068D02*
X018409Y039068D01*
X018302Y039175D01*
X018302Y039388D01*
X018409Y039495D01*
X018516Y039495D01*
X018302Y039712D02*
X018730Y039926D01*
X018302Y040139D01*
X018196Y040357D02*
X018089Y040464D01*
X018089Y040677D01*
X018196Y040784D01*
X018623Y040357D01*
X018730Y040464D01*
X018730Y040677D01*
X018623Y040784D01*
X018196Y040784D01*
X018409Y041002D02*
X018409Y041429D01*
X018089Y041322D02*
X018409Y041002D01*
X018089Y041322D02*
X018730Y041322D01*
X018623Y040357D02*
X018196Y040357D01*
X018302Y025339D02*
X018836Y025339D01*
X018943Y025232D01*
X018943Y025125D01*
X018730Y025019D02*
X018730Y025339D01*
X018730Y025019D02*
X018623Y024912D01*
X018302Y024912D01*
X018302Y024694D02*
X018302Y024374D01*
X018409Y024267D01*
X018623Y024267D01*
X018730Y024374D01*
X018730Y024694D01*
X018836Y024694D02*
X018302Y024694D01*
X018409Y024050D02*
X018302Y023943D01*
X018302Y023730D01*
X018409Y023623D01*
X018623Y023623D01*
X018730Y023730D01*
X018730Y023943D01*
X018623Y024050D01*
X018409Y024050D01*
X018730Y023407D02*
X018730Y023193D01*
X018730Y023300D02*
X018089Y023300D01*
X018089Y023193D01*
X018409Y022976D02*
X018302Y022869D01*
X018302Y022655D01*
X018409Y022549D01*
X018623Y022549D01*
X018730Y022655D01*
X018730Y022869D01*
X018623Y022976D01*
X018409Y022976D01*
X018409Y022331D02*
X018730Y022331D01*
X018730Y021904D02*
X018302Y021904D01*
X018302Y022224D01*
X018409Y022331D01*
X018409Y021686D02*
X018730Y021686D01*
X018730Y021259D02*
X018089Y021259D01*
X018302Y021366D02*
X018302Y021580D01*
X018409Y021686D01*
X018302Y021366D02*
X018409Y021259D01*
X018302Y021042D02*
X018302Y020722D01*
X018409Y020615D01*
X018623Y020615D01*
X018730Y020722D01*
X018730Y021042D01*
X018516Y020397D02*
X018409Y020397D01*
X018302Y020291D01*
X018302Y020077D01*
X018409Y019970D01*
X018623Y019970D01*
X018730Y020077D01*
X018730Y020291D01*
X018516Y020397D02*
X018516Y019970D01*
X018730Y019539D02*
X018089Y019539D01*
X018089Y019326D02*
X018089Y019753D01*
X018089Y018358D02*
X018730Y018358D01*
X018730Y018252D02*
X018730Y018465D01*
X018516Y018034D02*
X018516Y017607D01*
X018623Y017607D02*
X018409Y017607D01*
X018302Y017714D01*
X018302Y017927D01*
X018409Y018034D01*
X018516Y018034D01*
X018730Y017927D02*
X018730Y017714D01*
X018623Y017607D01*
X018623Y017389D02*
X018409Y017389D01*
X018302Y017283D01*
X018302Y016962D01*
X018089Y016962D02*
X018730Y016962D01*
X018730Y017283D01*
X018623Y017389D01*
X018516Y016745D02*
X018409Y016745D01*
X018302Y016638D01*
X018302Y016425D01*
X018409Y016318D01*
X018623Y016318D01*
X018730Y016425D01*
X018730Y016638D01*
X018516Y016745D02*
X018516Y016318D01*
X018409Y016100D02*
X018516Y015994D01*
X018516Y015673D01*
X018730Y015673D02*
X018089Y015673D01*
X018089Y015994D01*
X018196Y016100D01*
X018409Y016100D01*
X018516Y015887D02*
X018730Y016100D01*
X018089Y018252D02*
X018089Y018358D01*
X018943Y024481D02*
X018943Y024588D01*
X018836Y024694D01*
D12*
X016855Y032385D02*
X016916Y032447D01*
X016916Y032755D01*
X016731Y032755D01*
X016670Y032693D01*
X016670Y032570D01*
X016731Y032508D01*
X016916Y032508D01*
X017038Y032508D02*
X017038Y032755D01*
X017223Y032755D01*
X017285Y032693D01*
X017285Y032508D01*
X017406Y032570D02*
X017406Y032693D01*
X017468Y032755D01*
X017653Y032755D01*
X017653Y032879D02*
X017653Y032508D01*
X017468Y032508D01*
X017406Y032570D01*
X016855Y032385D02*
X016793Y032385D01*
X006008Y039658D02*
X005823Y039658D01*
X005761Y039720D01*
X005761Y039843D01*
X005823Y039905D01*
X006008Y039905D01*
X006008Y040029D02*
X006008Y039658D01*
X005640Y039658D02*
X005640Y039843D01*
X005578Y039905D01*
X005393Y039905D01*
X005393Y039658D01*
X005271Y039658D02*
X005086Y039658D01*
X005025Y039720D01*
X005025Y039843D01*
X005086Y039905D01*
X005271Y039905D01*
X005271Y039597D01*
X005210Y039535D01*
X005148Y039535D01*
X005271Y039029D02*
X005025Y039029D01*
X005025Y038843D01*
X005148Y038905D01*
X005210Y038905D01*
X005271Y038843D01*
X005271Y038720D01*
X005210Y038658D01*
X005086Y038658D01*
X005025Y038720D01*
X005393Y038905D02*
X005516Y038658D01*
X005640Y038905D01*
X005578Y037905D02*
X005331Y037658D01*
X005331Y037905D02*
X005578Y037658D01*
X005210Y037905D02*
X005148Y037905D01*
X005025Y037782D01*
X005025Y037905D02*
X005025Y037658D01*
X005086Y036967D02*
X005086Y036720D01*
X005148Y036658D01*
X005270Y036658D02*
X005517Y036905D01*
X005270Y036905D02*
X005517Y036658D01*
X005148Y036905D02*
X005025Y036905D01*
X005025Y035905D02*
X005025Y035658D01*
X005025Y035782D02*
X005148Y035905D01*
X005210Y035905D01*
X005331Y035843D02*
X005393Y035905D01*
X005578Y035905D01*
X005700Y035905D02*
X005823Y035905D01*
X005761Y035967D02*
X005761Y035720D01*
X005823Y035658D01*
X005578Y035720D02*
X005517Y035782D01*
X005393Y035782D01*
X005331Y035843D01*
X005331Y035658D02*
X005517Y035658D01*
X005578Y035720D01*
X004195Y024905D02*
X004195Y024658D01*
X004195Y024782D02*
X003824Y024782D01*
X003948Y024658D01*
X003886Y024537D02*
X003824Y024475D01*
X003824Y024290D01*
X004195Y024290D01*
X004195Y024475D01*
X004133Y024537D01*
X003886Y024537D01*
X004195Y020655D02*
X004195Y020408D01*
X004195Y020532D02*
X003824Y020532D01*
X003948Y020408D01*
X003824Y020287D02*
X003824Y020040D01*
X004195Y020040D01*
X004009Y020040D02*
X004009Y020163D01*
X005624Y016405D02*
X005624Y016158D01*
X005809Y016158D01*
X005748Y016282D01*
X005748Y016343D01*
X005809Y016405D01*
X005933Y016405D01*
X005995Y016343D01*
X005995Y016220D01*
X005933Y016158D01*
X005809Y016037D02*
X005809Y015790D01*
X005686Y015913D02*
X005933Y015913D01*
X005933Y014142D02*
X005686Y014142D01*
X005624Y014080D01*
X005624Y013895D01*
X005995Y013895D01*
X005995Y014080D01*
X005933Y014142D01*
X005995Y013773D02*
X005624Y013773D01*
X005624Y013527D02*
X005995Y013773D01*
X005995Y013527D02*
X005624Y013527D01*
X005624Y013405D02*
X005933Y013405D01*
X005995Y013343D01*
X005995Y013220D01*
X005933Y013158D01*
X005624Y013158D01*
X005686Y013037D02*
X005624Y012975D01*
X005624Y012852D01*
X005686Y012790D01*
X005933Y012790D01*
X005995Y012852D01*
X005995Y012975D01*
X005933Y013037D01*
X005686Y013037D01*
X005686Y012669D02*
X005809Y012669D01*
X005871Y012607D01*
X005871Y012422D01*
X005871Y012545D02*
X005995Y012669D01*
X005995Y012422D02*
X005624Y012422D01*
X005624Y012607D01*
X005686Y012669D01*
X005686Y012300D02*
X005624Y012239D01*
X005624Y012115D01*
X005686Y012053D01*
X005933Y012053D01*
X005995Y012115D01*
X005995Y012239D01*
X005933Y012300D01*
X005809Y012300D01*
X005809Y012177D01*
X005748Y011589D02*
X005686Y011589D01*
X005624Y011528D01*
X005624Y011404D01*
X005686Y011342D01*
X005624Y011098D02*
X005748Y010974D01*
X005809Y010853D02*
X005809Y010606D01*
X005995Y010974D02*
X005995Y011221D01*
X005995Y011342D02*
X005748Y011589D01*
X005995Y011589D02*
X005995Y011342D01*
X005995Y011098D02*
X005624Y011098D01*
X005445Y009155D02*
X005445Y008908D01*
X005198Y009155D01*
X005136Y009155D01*
X005074Y009093D01*
X005074Y008970D01*
X005136Y008908D01*
X005074Y008787D02*
X005074Y008540D01*
X005445Y008540D01*
X005259Y008540D02*
X005259Y008663D01*
X004195Y008540D02*
X003824Y008540D01*
X003824Y008787D01*
X003886Y008908D02*
X003824Y008970D01*
X003824Y009093D01*
X003886Y009155D01*
X003948Y009155D01*
X004009Y009093D01*
X004071Y009155D01*
X004133Y009155D01*
X004195Y009093D01*
X004195Y008970D01*
X004133Y008908D01*
X004009Y009032D02*
X004009Y009093D01*
X004009Y008663D02*
X004009Y008540D01*
X003948Y005155D02*
X003886Y005155D01*
X003824Y005093D01*
X003824Y004970D01*
X003886Y004908D01*
X003886Y004787D02*
X003824Y004725D01*
X003824Y004540D01*
X004195Y004540D01*
X004195Y004725D01*
X004133Y004787D01*
X003886Y004787D01*
X004009Y005032D02*
X004009Y005093D01*
X004071Y005155D01*
X004133Y005155D01*
X004195Y005093D01*
X004195Y004970D01*
X004133Y004908D01*
X004009Y005093D02*
X003948Y005155D01*
X005074Y005093D02*
X005074Y004970D01*
X005136Y004908D01*
X005136Y004787D02*
X005074Y004725D01*
X005074Y004540D01*
X005445Y004540D01*
X005445Y004725D01*
X005383Y004787D01*
X005136Y004787D01*
X005074Y005093D02*
X005136Y005155D01*
X005198Y005155D01*
X005445Y004908D01*
X005445Y005155D01*
D13*
X006975Y008839D02*
X006975Y009299D01*
X007282Y009299D01*
X007435Y009299D02*
X007589Y009299D01*
X007512Y009299D02*
X007512Y008839D01*
X007435Y008839D02*
X007589Y008839D01*
X007742Y008839D02*
X008049Y008839D01*
X008203Y008839D02*
X008203Y009299D01*
X008203Y008839D02*
X008510Y008839D01*
X008663Y008915D02*
X008740Y008839D01*
X008893Y008839D01*
X008970Y008915D01*
X009124Y008992D02*
X009277Y008839D01*
X009430Y008992D01*
X009430Y009299D01*
X009124Y009299D02*
X009124Y008992D01*
X008970Y009222D02*
X008893Y009299D01*
X008740Y009299D01*
X008663Y009222D01*
X008663Y008915D01*
X008485Y010223D02*
X008244Y010223D01*
X008485Y010464D01*
X008485Y010524D01*
X008425Y010584D01*
X008305Y010584D01*
X008244Y010524D01*
X008116Y010524D02*
X008116Y010283D01*
X008056Y010223D01*
X007936Y010223D01*
X007876Y010283D01*
X008116Y010524D01*
X008056Y010584D01*
X007936Y010584D01*
X007876Y010524D01*
X007876Y010283D01*
X007748Y010283D02*
X007688Y010223D01*
X007568Y010223D01*
X007508Y010283D01*
X007508Y010403D02*
X007628Y010464D01*
X007688Y010464D01*
X007748Y010403D01*
X007748Y010283D01*
X007508Y010403D02*
X007508Y010584D01*
X007748Y010584D01*
X007380Y010524D02*
X007380Y010403D01*
X007320Y010343D01*
X007140Y010343D01*
X007260Y010343D02*
X007380Y010223D01*
X007140Y010223D02*
X007140Y010584D01*
X007320Y010584D01*
X007380Y010524D01*
X007742Y009299D02*
X007742Y008839D01*
X007129Y009069D02*
X006975Y009069D01*
X006975Y016339D02*
X006898Y016415D01*
X006975Y016339D02*
X007129Y016339D01*
X007205Y016415D01*
X007205Y016492D01*
X007129Y016569D01*
X006975Y016569D01*
X006898Y016645D01*
X006898Y016722D01*
X006975Y016799D01*
X007129Y016799D01*
X007205Y016722D01*
X007359Y016799D02*
X007666Y016799D01*
X007819Y016799D02*
X007819Y016339D01*
X008126Y016339D01*
X008280Y016339D02*
X008280Y016799D01*
X008510Y016799D01*
X008586Y016722D01*
X008586Y016569D01*
X008510Y016492D01*
X008280Y016492D01*
X007973Y016569D02*
X007819Y016569D01*
X007819Y016799D02*
X008126Y016799D01*
X007512Y016799D02*
X007512Y016339D01*
X008740Y016415D02*
X008817Y016339D01*
X008970Y016339D01*
X009047Y016415D01*
X009200Y016492D02*
X009354Y016339D01*
X009507Y016492D01*
X009507Y016799D01*
X009200Y016799D02*
X009200Y016492D01*
X009047Y016722D02*
X008970Y016799D01*
X008817Y016799D01*
X008740Y016722D01*
X008740Y016415D01*
X011696Y015564D02*
X011876Y015564D01*
X011936Y015504D01*
X011936Y015383D01*
X011876Y015323D01*
X011696Y015323D01*
X011696Y015203D02*
X011696Y015564D01*
X011816Y015323D02*
X011936Y015203D01*
X012065Y015203D02*
X012305Y015444D01*
X012305Y015504D01*
X012245Y015564D01*
X012125Y015564D01*
X012065Y015504D01*
X012065Y015203D02*
X012305Y015203D01*
X012433Y015263D02*
X012673Y015504D01*
X012673Y015263D01*
X012613Y015203D01*
X012493Y015203D01*
X012433Y015263D01*
X012433Y015504D01*
X012493Y015564D01*
X012613Y015564D01*
X012673Y015504D01*
X012801Y015504D02*
X012861Y015564D01*
X012981Y015564D01*
X013041Y015504D01*
X013041Y015444D01*
X012801Y015203D01*
X013041Y015203D01*
X013055Y014584D02*
X012994Y014524D01*
X013055Y014584D02*
X013175Y014584D01*
X013235Y014524D01*
X013235Y014464D01*
X013175Y014403D01*
X013235Y014343D01*
X013235Y014283D01*
X013175Y014223D01*
X013055Y014223D01*
X012994Y014283D01*
X012866Y014283D02*
X012806Y014223D01*
X012686Y014223D01*
X012626Y014283D01*
X012866Y014524D01*
X012866Y014283D01*
X012866Y014524D02*
X012806Y014584D01*
X012686Y014584D01*
X012626Y014524D01*
X012626Y014283D01*
X012498Y014223D02*
X012258Y014223D01*
X012498Y014464D01*
X012498Y014524D01*
X012438Y014584D01*
X012318Y014584D01*
X012258Y014524D01*
X012130Y014524D02*
X012130Y014403D01*
X012070Y014343D01*
X011890Y014343D01*
X012010Y014343D02*
X012130Y014223D01*
X011890Y014223D02*
X011890Y014584D01*
X012070Y014584D01*
X012130Y014524D01*
X012065Y013564D02*
X012065Y013383D01*
X012185Y013444D01*
X012245Y013444D01*
X012305Y013383D01*
X012305Y013263D01*
X012245Y013203D01*
X012125Y013203D01*
X012065Y013263D01*
X011936Y013203D02*
X011816Y013323D01*
X011876Y013323D02*
X011696Y013323D01*
X011696Y013203D02*
X011696Y013564D01*
X011876Y013564D01*
X011936Y013504D01*
X011936Y013383D01*
X011876Y013323D01*
X012065Y013564D02*
X012305Y013564D01*
X012433Y013504D02*
X012493Y013564D01*
X012613Y013564D01*
X012673Y013504D01*
X012433Y013263D01*
X012493Y013203D01*
X012613Y013203D01*
X012673Y013263D01*
X012673Y013504D01*
X012801Y013444D02*
X012921Y013564D01*
X012921Y013203D01*
X012801Y013203D02*
X013041Y013203D01*
X013115Y014403D02*
X013175Y014403D01*
X012433Y013504D02*
X012433Y013263D01*
X012498Y010584D02*
X012258Y010584D01*
X012258Y010403D01*
X012378Y010464D01*
X012438Y010464D01*
X012498Y010403D01*
X012498Y010283D01*
X012438Y010223D01*
X012318Y010223D01*
X012258Y010283D01*
X012130Y010223D02*
X012010Y010343D01*
X012070Y010343D02*
X011890Y010343D01*
X011890Y010223D02*
X011890Y010584D01*
X012070Y010584D01*
X012130Y010524D01*
X012130Y010403D01*
X012070Y010343D01*
X012626Y010283D02*
X012866Y010524D01*
X012866Y010283D01*
X012806Y010223D01*
X012686Y010223D01*
X012626Y010283D01*
X012626Y010524D01*
X012686Y010584D01*
X012806Y010584D01*
X012866Y010524D01*
X012994Y010524D02*
X013055Y010584D01*
X013175Y010584D01*
X013235Y010524D01*
X013235Y010464D01*
X013175Y010403D01*
X013235Y010343D01*
X013235Y010283D01*
X013175Y010223D01*
X013055Y010223D01*
X012994Y010283D01*
X013115Y010403D02*
X013175Y010403D01*
X013175Y009584D02*
X012994Y009403D01*
X013235Y009403D01*
X013175Y009223D02*
X013175Y009584D01*
X012866Y009524D02*
X012626Y009283D01*
X012686Y009223D01*
X012806Y009223D01*
X012866Y009283D01*
X012866Y009524D01*
X012806Y009584D01*
X012686Y009584D01*
X012626Y009524D01*
X012626Y009283D01*
X012498Y009283D02*
X012438Y009223D01*
X012318Y009223D01*
X012258Y009283D01*
X012258Y009403D02*
X012378Y009464D01*
X012438Y009464D01*
X012498Y009403D01*
X012498Y009283D01*
X012258Y009403D02*
X012258Y009584D01*
X012498Y009584D01*
X012130Y009524D02*
X012130Y009403D01*
X012070Y009343D01*
X011890Y009343D01*
X012010Y009343D02*
X012130Y009223D01*
X011890Y009223D02*
X011890Y009584D01*
X012070Y009584D01*
X012130Y009524D01*
X012125Y006814D02*
X012245Y006814D01*
X012305Y006754D01*
X012305Y006694D01*
X012245Y006633D01*
X012305Y006573D01*
X012305Y006513D01*
X012245Y006453D01*
X012125Y006453D01*
X012065Y006513D01*
X011936Y006453D02*
X011816Y006573D01*
X011876Y006573D02*
X011696Y006573D01*
X011696Y006453D02*
X011696Y006814D01*
X011876Y006814D01*
X011936Y006754D01*
X011936Y006633D01*
X011876Y006573D01*
X012065Y006754D02*
X012125Y006814D01*
X012185Y006633D02*
X012245Y006633D01*
X012433Y006513D02*
X012433Y006754D01*
X012493Y006814D01*
X012613Y006814D01*
X012673Y006754D01*
X012433Y006513D01*
X012493Y006453D01*
X012613Y006453D01*
X012673Y006513D01*
X012673Y006754D01*
X012801Y006754D02*
X012861Y006814D01*
X012981Y006814D01*
X013041Y006754D01*
X013041Y006694D01*
X012801Y006453D01*
X013041Y006453D01*
X013569Y004998D02*
X013930Y004998D01*
X013930Y004878D02*
X013930Y005118D01*
X013689Y004878D02*
X013569Y004998D01*
X013629Y004750D02*
X013569Y004690D01*
X013569Y004570D01*
X013629Y004510D01*
X013869Y004510D01*
X013629Y004750D01*
X013869Y004750D01*
X013930Y004690D01*
X013930Y004570D01*
X013869Y004510D01*
X013869Y004382D02*
X013930Y004322D01*
X013930Y004202D01*
X013869Y004142D01*
X013930Y004014D02*
X013809Y003893D01*
X013809Y003953D02*
X013809Y003773D01*
X013930Y003773D02*
X013569Y003773D01*
X013569Y003953D01*
X013629Y004014D01*
X013749Y004014D01*
X013809Y003953D01*
X013629Y004142D02*
X013569Y004202D01*
X013569Y004322D01*
X013629Y004382D01*
X013689Y004382D01*
X013749Y004322D01*
X013809Y004382D01*
X013869Y004382D01*
X013749Y004322D02*
X013749Y004262D01*
X012901Y003363D02*
X012661Y003363D01*
X012781Y003363D02*
X012781Y003724D01*
X012661Y003604D01*
X012533Y003664D02*
X012473Y003724D01*
X012293Y003724D01*
X012293Y003363D01*
X012473Y003363D01*
X012533Y003423D01*
X012533Y003664D01*
X012165Y003724D02*
X011925Y003724D01*
X011925Y003363D01*
X012165Y003363D01*
X012045Y003543D02*
X011925Y003543D01*
X011796Y003363D02*
X011556Y003363D01*
X011556Y003724D01*
X010930Y003773D02*
X010569Y003773D01*
X010569Y003953D01*
X010629Y004014D01*
X010749Y004014D01*
X010809Y003953D01*
X010809Y003773D01*
X010809Y003893D02*
X010930Y004014D01*
X010930Y004142D02*
X010689Y004382D01*
X010629Y004382D01*
X010569Y004322D01*
X010569Y004202D01*
X010629Y004142D01*
X010930Y004142D02*
X010930Y004382D01*
X011890Y016223D02*
X011890Y016584D01*
X012070Y016584D01*
X012130Y016524D01*
X012130Y016403D01*
X012070Y016343D01*
X011890Y016343D01*
X012010Y016343D02*
X012130Y016223D01*
X012258Y016223D02*
X012498Y016464D01*
X012498Y016524D01*
X012438Y016584D01*
X012318Y016584D01*
X012258Y016524D01*
X012258Y016223D02*
X012498Y016223D01*
X012626Y016283D02*
X012866Y016524D01*
X012866Y016283D01*
X012806Y016223D01*
X012686Y016223D01*
X012626Y016283D01*
X012626Y016524D01*
X012686Y016584D01*
X012806Y016584D01*
X012866Y016524D01*
X012994Y016403D02*
X013235Y016403D01*
X013175Y016223D02*
X013175Y016584D01*
X012994Y016403D01*
X013055Y017223D02*
X012994Y017283D01*
X013055Y017223D02*
X013175Y017223D01*
X013235Y017283D01*
X013235Y017343D01*
X013175Y017403D01*
X013115Y017403D01*
X013175Y017403D02*
X013235Y017464D01*
X013235Y017524D01*
X013175Y017584D01*
X013055Y017584D01*
X012994Y017524D01*
X012866Y017524D02*
X012626Y017283D01*
X012686Y017223D01*
X012806Y017223D01*
X012866Y017283D01*
X012866Y017524D01*
X012806Y017584D01*
X012686Y017584D01*
X012626Y017524D01*
X012626Y017283D01*
X012498Y017283D02*
X012438Y017223D01*
X012318Y017223D01*
X012258Y017283D01*
X012130Y017223D02*
X012010Y017343D01*
X012070Y017343D02*
X011890Y017343D01*
X011890Y017223D02*
X011890Y017584D01*
X012070Y017584D01*
X012130Y017524D01*
X012130Y017403D01*
X012070Y017343D01*
X012258Y017524D02*
X012318Y017584D01*
X012438Y017584D01*
X012498Y017524D01*
X012498Y017464D01*
X012438Y017403D01*
X012498Y017343D01*
X012498Y017283D01*
X012438Y017403D02*
X012378Y017403D01*
X012433Y018203D02*
X012433Y018564D01*
X012613Y018564D01*
X012673Y018504D01*
X012673Y018383D01*
X012613Y018323D01*
X012433Y018323D01*
X012553Y018323D02*
X012673Y018203D01*
X012801Y018263D02*
X012861Y018203D01*
X012981Y018203D01*
X013041Y018263D01*
X013041Y018323D01*
X012981Y018383D01*
X012921Y018383D01*
X012981Y018383D02*
X013041Y018444D01*
X013041Y018504D01*
X012981Y018564D01*
X012861Y018564D01*
X012801Y018504D01*
X013479Y019163D02*
X013840Y019163D01*
X013840Y019404D01*
X013840Y019532D02*
X013840Y019772D01*
X013840Y019900D02*
X013840Y020080D01*
X013779Y020140D01*
X013539Y020140D01*
X013479Y020080D01*
X013479Y019900D01*
X013840Y019900D01*
X013659Y019652D02*
X013659Y019532D01*
X013479Y019532D02*
X013840Y019532D01*
X013479Y019532D02*
X013479Y019772D01*
X013539Y020268D02*
X013479Y020328D01*
X013479Y020448D01*
X013539Y020508D01*
X013599Y020508D01*
X013840Y020268D01*
X013840Y020508D01*
X013235Y021223D02*
X012994Y021223D01*
X013115Y021223D02*
X013115Y021584D01*
X012994Y021464D01*
X012866Y021524D02*
X012626Y021283D01*
X012686Y021223D01*
X012806Y021223D01*
X012866Y021283D01*
X012866Y021524D01*
X012806Y021584D01*
X012686Y021584D01*
X012626Y021524D01*
X012626Y021283D01*
X012498Y021223D02*
X012258Y021223D01*
X012498Y021464D01*
X012498Y021524D01*
X012438Y021584D01*
X012318Y021584D01*
X012258Y021524D01*
X012130Y021524D02*
X012130Y021403D01*
X012070Y021343D01*
X011890Y021343D01*
X012010Y021343D02*
X012130Y021223D01*
X011890Y021223D02*
X011890Y021584D01*
X012070Y021584D01*
X012130Y021524D01*
X012140Y022223D02*
X012140Y022584D01*
X012320Y022584D01*
X012380Y022524D01*
X012380Y022403D01*
X012320Y022343D01*
X012140Y022343D01*
X012260Y022343D02*
X012380Y022223D01*
X012508Y022223D02*
X012748Y022464D01*
X012748Y022524D01*
X012688Y022584D01*
X012568Y022584D01*
X012508Y022524D01*
X012508Y022223D02*
X012748Y022223D01*
X012876Y022283D02*
X012876Y022524D01*
X012936Y022584D01*
X013056Y022584D01*
X013116Y022524D01*
X012876Y022283D01*
X012936Y022223D01*
X013056Y022223D01*
X013116Y022283D01*
X013116Y022524D01*
X013244Y022584D02*
X013244Y022403D01*
X013365Y022464D01*
X013425Y022464D01*
X013485Y022403D01*
X013485Y022283D01*
X013425Y022223D01*
X013305Y022223D01*
X013244Y022283D01*
X013244Y022584D02*
X013485Y022584D01*
X009661Y023839D02*
X009661Y024299D01*
X009354Y024299D02*
X009354Y023839D01*
X009200Y023839D02*
X009200Y024145D01*
X009047Y024299D01*
X008893Y024145D01*
X008893Y023839D01*
X008740Y023839D02*
X008740Y024299D01*
X008586Y024145D01*
X008433Y024299D01*
X008433Y023839D01*
X008280Y023839D02*
X007973Y023839D01*
X007973Y024299D01*
X007819Y023839D02*
X007512Y023839D01*
X007512Y024299D01*
X007359Y024299D02*
X007205Y024299D01*
X007282Y024299D02*
X007282Y023839D01*
X007205Y023839D02*
X007359Y023839D01*
X007052Y024299D02*
X006745Y024299D01*
X006745Y023839D01*
X006745Y024069D02*
X006898Y024069D01*
X007446Y025203D02*
X007446Y025564D01*
X007626Y025564D01*
X007686Y025504D01*
X007686Y025383D01*
X007626Y025323D01*
X007446Y025323D01*
X007566Y025323D02*
X007686Y025203D01*
X007815Y025203D02*
X008055Y025203D01*
X007935Y025203D02*
X007935Y025564D01*
X007815Y025444D01*
X008183Y025504D02*
X008243Y025564D01*
X008363Y025564D01*
X008423Y025504D01*
X008183Y025263D01*
X008243Y025203D01*
X008363Y025203D01*
X008423Y025263D01*
X008423Y025504D01*
X008551Y025564D02*
X008551Y025383D01*
X008671Y025444D01*
X008731Y025444D01*
X008791Y025383D01*
X008791Y025263D01*
X008731Y025203D01*
X008611Y025203D01*
X008551Y025263D01*
X008551Y025564D02*
X008791Y025564D01*
X008183Y025504D02*
X008183Y025263D01*
X008893Y024069D02*
X009200Y024069D01*
X009354Y024299D02*
X009661Y023839D01*
X009737Y031339D02*
X009737Y031799D01*
X009430Y031799D02*
X009737Y031339D01*
X009430Y031339D02*
X009430Y031799D01*
X009277Y031645D02*
X009277Y031339D01*
X009277Y031569D02*
X008970Y031569D01*
X008970Y031645D02*
X009124Y031799D01*
X009277Y031645D01*
X008970Y031645D02*
X008970Y031339D01*
X008817Y031339D02*
X008817Y031799D01*
X008663Y031645D01*
X008510Y031799D01*
X008510Y031339D01*
X008356Y031569D02*
X008280Y031492D01*
X008049Y031492D01*
X008049Y031339D02*
X008049Y031799D01*
X008280Y031799D01*
X008356Y031722D01*
X008356Y031569D01*
X007896Y031799D02*
X007589Y031799D01*
X007589Y031339D01*
X007896Y031339D01*
X007742Y031569D02*
X007589Y031569D01*
X007435Y031799D02*
X007129Y031799D01*
X007282Y031799D02*
X007282Y031339D01*
X006975Y031415D02*
X006898Y031339D01*
X006745Y031339D01*
X006668Y031415D01*
X006745Y031569D02*
X006898Y031569D01*
X006975Y031492D01*
X006975Y031415D01*
X006745Y031569D02*
X006668Y031645D01*
X006668Y031722D01*
X006745Y031799D01*
X006898Y031799D01*
X006975Y031722D01*
X007154Y032788D02*
X007231Y032788D01*
X007384Y032942D01*
X007615Y032942D01*
X007615Y033249D02*
X007615Y033556D01*
X007615Y033402D02*
X007154Y033402D01*
X007308Y033249D01*
X007231Y033095D02*
X007154Y033095D01*
X007231Y033095D02*
X007384Y032942D01*
X005680Y033014D02*
X005559Y032893D01*
X005559Y032953D02*
X005559Y032773D01*
X005680Y032773D02*
X005319Y032773D01*
X005319Y032953D01*
X005379Y033014D01*
X005499Y033014D01*
X005559Y032953D01*
X005439Y033142D02*
X005319Y033262D01*
X005680Y033262D01*
X005680Y033142D02*
X005680Y033382D01*
X005619Y033510D02*
X005680Y033570D01*
X005680Y033690D01*
X005619Y033750D01*
X005379Y033750D01*
X005619Y033510D01*
X005379Y033510D01*
X005319Y033570D01*
X005319Y033690D01*
X005379Y033750D01*
X005499Y033878D02*
X005319Y034058D01*
X005680Y034058D01*
X005499Y034118D02*
X005499Y033878D01*
X005459Y029675D02*
X005399Y029675D01*
X005339Y029615D01*
X005339Y029495D01*
X005399Y029435D01*
X005399Y029307D02*
X005639Y029067D01*
X005700Y029127D01*
X005700Y029247D01*
X005639Y029307D01*
X005399Y029307D01*
X005339Y029247D01*
X005339Y029127D01*
X005399Y029067D01*
X005639Y029067D01*
X005700Y028939D02*
X005700Y028698D01*
X005700Y028818D02*
X005339Y028818D01*
X005459Y028698D01*
X005399Y028570D02*
X005519Y028570D01*
X005579Y028510D01*
X005579Y028330D01*
X005579Y028450D02*
X005700Y028570D01*
X005700Y028330D02*
X005339Y028330D01*
X005339Y028510D01*
X005399Y028570D01*
X005639Y029435D02*
X005700Y029495D01*
X005700Y029615D01*
X005639Y029675D01*
X005579Y029675D01*
X005519Y029615D01*
X005519Y029555D01*
X005519Y029615D02*
X005459Y029675D01*
X004180Y029628D02*
X003939Y029868D01*
X003879Y029868D01*
X003819Y029808D01*
X003819Y029688D01*
X003879Y029628D01*
X003879Y029500D02*
X004119Y029260D01*
X004180Y029320D01*
X004180Y029440D01*
X004119Y029500D01*
X003879Y029500D01*
X003819Y029440D01*
X003819Y029320D01*
X003879Y029260D01*
X004119Y029260D01*
X004180Y029132D02*
X004180Y028892D01*
X004180Y029012D02*
X003819Y029012D01*
X003939Y028892D01*
X003879Y028764D02*
X003999Y028764D01*
X004059Y028703D01*
X004059Y028523D01*
X004059Y028643D02*
X004180Y028764D01*
X004180Y028523D02*
X003819Y028523D01*
X003819Y028703D01*
X003879Y028764D01*
X004180Y029628D02*
X004180Y029868D01*
X005680Y025868D02*
X005680Y025628D01*
X005680Y025748D02*
X005319Y025748D01*
X005439Y025628D01*
X005379Y025500D02*
X005619Y025260D01*
X005680Y025320D01*
X005680Y025440D01*
X005619Y025500D01*
X005379Y025500D01*
X005319Y025440D01*
X005319Y025320D01*
X005379Y025260D01*
X005619Y025260D01*
X005680Y025132D02*
X005680Y024892D01*
X005680Y025012D02*
X005319Y025012D01*
X005439Y024892D01*
X005379Y024764D02*
X005499Y024764D01*
X005559Y024703D01*
X005559Y024523D01*
X005559Y024643D02*
X005680Y024764D01*
X005680Y024523D02*
X005319Y024523D01*
X005319Y024703D01*
X005379Y024764D01*
X006898Y038839D02*
X006898Y039299D01*
X007129Y039299D01*
X007205Y039222D01*
X007205Y039069D01*
X007129Y038992D01*
X006898Y038992D01*
X007052Y038992D02*
X007205Y038839D01*
X007359Y038915D02*
X007435Y038839D01*
X007589Y038839D01*
X007666Y038915D01*
X007666Y039222D01*
X007589Y039299D01*
X007435Y039299D01*
X007359Y039222D01*
X007359Y038915D01*
X007819Y039299D02*
X008126Y039299D01*
X007973Y039299D02*
X007973Y038839D01*
X008280Y038839D02*
X008280Y039299D01*
X008433Y039145D01*
X008586Y039299D01*
X008586Y038839D01*
X008740Y038839D02*
X008740Y039145D01*
X008893Y039299D01*
X009047Y039145D01*
X009047Y038839D01*
X009200Y038839D02*
X009200Y039299D01*
X009507Y038839D01*
X009507Y039299D01*
X009047Y039069D02*
X008740Y039069D01*
X008791Y039953D02*
X008551Y039953D01*
X008671Y039953D02*
X008671Y040314D01*
X008551Y040194D01*
X008423Y040254D02*
X008423Y040133D01*
X008363Y040073D01*
X008183Y040073D01*
X008183Y039953D02*
X008183Y040314D01*
X008363Y040314D01*
X008423Y040254D01*
X008303Y040073D02*
X008423Y039953D01*
X015319Y038058D02*
X015379Y038118D01*
X015439Y038118D01*
X015499Y038058D01*
X015559Y038118D01*
X015619Y038118D01*
X015680Y038058D01*
X015680Y037938D01*
X015619Y037878D01*
X015619Y037750D02*
X015379Y037750D01*
X015619Y037510D01*
X015680Y037570D01*
X015680Y037690D01*
X015619Y037750D01*
X015379Y037750D02*
X015319Y037690D01*
X015319Y037570D01*
X015379Y037510D01*
X015619Y037510D01*
X015499Y037382D02*
X015499Y037142D01*
X015319Y037322D01*
X015680Y037322D01*
X015680Y037014D02*
X015559Y036893D01*
X015559Y036953D02*
X015559Y036773D01*
X015680Y036773D02*
X015319Y036773D01*
X015319Y036953D01*
X015379Y037014D01*
X015499Y037014D01*
X015559Y036953D01*
X015379Y037878D02*
X015319Y037938D01*
X015319Y038058D01*
X015499Y038058D02*
X015499Y037998D01*
X016339Y037865D02*
X016339Y037745D01*
X016399Y037685D01*
X016399Y037557D02*
X016639Y037317D01*
X016700Y037377D01*
X016700Y037497D01*
X016639Y037557D01*
X016399Y037557D01*
X016339Y037497D01*
X016339Y037377D01*
X016399Y037317D01*
X016639Y037317D01*
X016519Y037189D02*
X016519Y036948D01*
X016339Y037129D01*
X016700Y037129D01*
X016700Y036820D02*
X016579Y036700D01*
X016579Y036760D02*
X016579Y036580D01*
X016700Y036580D02*
X016339Y036580D01*
X016339Y036760D01*
X016399Y036820D01*
X016519Y036820D01*
X016579Y036760D01*
X016700Y037685D02*
X016459Y037925D01*
X016399Y037925D01*
X016339Y037865D01*
X016700Y037925D02*
X016700Y037685D01*
X017319Y037690D02*
X017379Y037750D01*
X017619Y037510D01*
X017680Y037570D01*
X017680Y037690D01*
X017619Y037750D01*
X017379Y037750D01*
X017319Y037690D02*
X017319Y037570D01*
X017379Y037510D01*
X017619Y037510D01*
X017499Y037382D02*
X017499Y037142D01*
X017319Y037322D01*
X017680Y037322D01*
X017680Y037014D02*
X017559Y036893D01*
X017559Y036953D02*
X017559Y036773D01*
X017680Y036773D02*
X017319Y036773D01*
X017319Y036953D01*
X017379Y037014D01*
X017499Y037014D01*
X017559Y036953D01*
X017439Y037878D02*
X017319Y037998D01*
X017680Y037998D01*
X017680Y037878D02*
X017680Y038118D01*
D14*
X013165Y036173D02*
X013165Y035753D01*
X012744Y036173D01*
X012639Y036173D01*
X012534Y036068D01*
X012534Y035858D01*
X012639Y035753D01*
X012639Y035528D02*
X012534Y035423D01*
X012534Y035213D01*
X012639Y035108D01*
X013059Y035108D01*
X013165Y035213D01*
X013165Y035423D01*
X013059Y035528D01*
X013165Y034888D02*
X013165Y034678D01*
X013165Y034783D02*
X012534Y034783D01*
X012534Y034678D02*
X012534Y034888D01*
X012875Y025685D02*
X012875Y025291D01*
X012875Y025488D02*
X012284Y025488D01*
X012481Y025291D01*
X012382Y025077D02*
X012284Y024979D01*
X012284Y024782D01*
X012382Y024683D01*
X012776Y024683D01*
X012875Y024782D01*
X012875Y024979D01*
X012776Y025077D01*
X012875Y024475D02*
X012875Y024278D01*
X012875Y024377D02*
X012284Y024377D01*
X012284Y024475D02*
X012284Y024278D01*
D15*
X015510Y036318D03*
X016510Y036318D03*
X016510Y038468D03*
X015510Y038468D03*
X017510Y038468D03*
X017510Y036318D03*
X005510Y034468D03*
X005510Y032318D03*
X005510Y030218D03*
X005510Y028068D03*
X005510Y026218D03*
X005510Y024068D03*
X004010Y028068D03*
X004010Y030218D03*
X010760Y005468D03*
X010760Y003318D03*
X013760Y003318D03*
X013760Y005468D03*
D16*
X014488Y006665D02*
X014488Y002531D01*
X015551Y002531D01*
X016968Y002531D02*
X018031Y002531D01*
X018031Y006665D01*
X016496Y006665D01*
X016023Y006665D02*
X014488Y006665D01*
X014209Y007168D02*
X014285Y007243D01*
X014285Y007393D01*
X014209Y007469D01*
X013909Y007469D01*
X013834Y007393D01*
X013834Y007243D01*
X013909Y007168D01*
X014209Y007168D01*
X014134Y007318D02*
X014285Y007469D01*
X014209Y007629D02*
X014285Y007704D01*
X014285Y007854D01*
X014209Y007929D01*
X014134Y007929D01*
X014059Y007854D01*
X014059Y007779D01*
X014059Y007854D02*
X013984Y007929D01*
X013909Y007929D01*
X013834Y007854D01*
X013834Y007704D01*
X013909Y007629D01*
X013909Y008089D02*
X013834Y008164D01*
X013834Y008314D01*
X013909Y008389D01*
X014209Y008089D01*
X014285Y008164D01*
X014285Y008314D01*
X014209Y008389D01*
X013909Y008389D01*
X013984Y008549D02*
X013834Y008700D01*
X014285Y008700D01*
X014285Y008850D02*
X014285Y008549D01*
X014209Y008089D02*
X013909Y008089D01*
X014488Y007531D02*
X015551Y007531D01*
X014488Y007531D02*
X014488Y011665D01*
X016023Y011665D01*
X016496Y011665D02*
X018031Y011665D01*
X018031Y007531D01*
X016968Y007531D01*
X016968Y012531D02*
X018031Y012531D01*
X018031Y016665D01*
X016496Y016665D01*
X016023Y016665D02*
X014488Y016665D01*
X014488Y012531D01*
X015551Y012531D01*
X013334Y012793D02*
X011685Y012793D01*
X011957Y012193D02*
X012062Y012193D01*
X011555Y012581D02*
X011582Y012637D01*
X011613Y012691D01*
X011647Y012743D01*
X011684Y012793D01*
X011185Y012758D02*
X011185Y012458D01*
X011185Y012608D02*
X010734Y012608D01*
X010884Y012458D01*
X010809Y012298D02*
X011109Y011998D01*
X011185Y012073D01*
X011185Y012223D01*
X011109Y012298D01*
X010809Y012298D01*
X010734Y012223D01*
X010734Y012073D01*
X010809Y011998D01*
X011109Y011998D01*
X011109Y011837D02*
X011185Y011762D01*
X011185Y011612D01*
X011109Y011537D01*
X010959Y011537D02*
X010884Y011687D01*
X010884Y011762D01*
X010959Y011837D01*
X011109Y011837D01*
X010959Y011537D02*
X010734Y011537D01*
X010734Y011837D01*
X010809Y011377D02*
X011109Y011377D01*
X011185Y011302D01*
X011185Y011152D01*
X011109Y011077D01*
X010809Y011077D01*
X010734Y011152D01*
X010734Y011302D01*
X010809Y011377D01*
X011034Y011227D02*
X011185Y011377D01*
X010228Y012925D02*
X010228Y017059D01*
X010228Y020425D02*
X010228Y024559D01*
X010228Y027925D02*
X010228Y032059D01*
X010228Y035425D02*
X010228Y039559D01*
X008945Y040718D02*
X008645Y040718D01*
X008795Y040718D02*
X008795Y041169D01*
X008645Y041019D01*
X008485Y041094D02*
X008410Y041169D01*
X008260Y041169D01*
X008185Y041094D01*
X008185Y040793D01*
X008260Y040718D01*
X008410Y040718D01*
X008485Y040793D01*
X006291Y039559D02*
X006291Y035425D01*
X006291Y032059D02*
X006291Y027925D01*
X006291Y024559D02*
X006291Y020425D01*
X006291Y017059D02*
X006291Y012925D01*
X006291Y009559D02*
X006291Y005425D01*
X010228Y005425D02*
X010228Y009559D01*
X011685Y007243D02*
X013334Y007243D01*
X013062Y007843D02*
X012957Y007843D01*
X013464Y007455D02*
X013437Y007399D01*
X013406Y007345D01*
X013372Y007293D01*
X013335Y007243D01*
X013460Y008340D02*
X013431Y008397D01*
X013398Y008453D01*
X013363Y008506D01*
X013323Y008557D01*
X013281Y008605D01*
X013236Y008651D01*
X013189Y008694D01*
X013139Y008734D01*
X013086Y008771D01*
X013031Y008804D01*
X012975Y008835D01*
X012916Y008861D01*
X012856Y008884D01*
X012795Y008904D01*
X012733Y008919D01*
X012670Y008931D01*
X012606Y008939D01*
X012542Y008943D01*
X012478Y008943D01*
X012414Y008939D01*
X012350Y008931D01*
X012287Y008919D01*
X012225Y008904D01*
X012164Y008884D01*
X012104Y008861D01*
X012045Y008835D01*
X011989Y008804D01*
X011934Y008771D01*
X011881Y008734D01*
X011831Y008694D01*
X011784Y008651D01*
X011739Y008605D01*
X011697Y008557D01*
X011657Y008506D01*
X011622Y008453D01*
X011589Y008397D01*
X011560Y008340D01*
X011957Y007843D02*
X012062Y007843D01*
X011559Y007446D02*
X011586Y007392D01*
X011616Y007341D01*
X011649Y007291D01*
X011684Y007243D01*
X013460Y012590D02*
X013433Y012644D01*
X013403Y012695D01*
X013370Y012745D01*
X013335Y012793D01*
X013062Y012193D02*
X012957Y012193D01*
X013460Y011696D02*
X013431Y011639D01*
X013398Y011583D01*
X013363Y011530D01*
X013323Y011479D01*
X013281Y011431D01*
X013236Y011385D01*
X013189Y011342D01*
X013139Y011302D01*
X013086Y011265D01*
X013031Y011232D01*
X012975Y011201D01*
X012916Y011175D01*
X012856Y011152D01*
X012795Y011132D01*
X012733Y011117D01*
X012670Y011105D01*
X012606Y011097D01*
X012542Y011093D01*
X012478Y011093D01*
X012414Y011097D01*
X012350Y011105D01*
X012287Y011117D01*
X012225Y011132D01*
X012164Y011152D01*
X012104Y011175D01*
X012045Y011201D01*
X011989Y011232D01*
X011934Y011265D01*
X011881Y011302D01*
X011831Y011342D01*
X011784Y011385D01*
X011739Y011431D01*
X011697Y011479D01*
X011657Y011530D01*
X011622Y011583D01*
X011589Y011639D01*
X011560Y011696D01*
X014488Y017531D02*
X015551Y017531D01*
X014488Y017531D02*
X014488Y021665D01*
X016023Y021665D01*
X016496Y021665D02*
X018031Y021665D01*
X018031Y017531D01*
X016968Y017531D01*
X016496Y023122D02*
X018031Y023122D01*
X018031Y027256D01*
X016968Y027256D01*
X015551Y027256D02*
X014488Y027256D01*
X014488Y023122D01*
X016023Y023122D01*
X017309Y033798D02*
X017234Y033873D01*
X017234Y034023D01*
X017309Y034098D01*
X017309Y034258D02*
X017234Y034333D01*
X017234Y034483D01*
X017309Y034558D01*
X017384Y034558D01*
X017685Y034258D01*
X017685Y034558D01*
X017609Y034098D02*
X017685Y034023D01*
X017685Y033873D01*
X017609Y033798D01*
X017309Y033798D01*
X014974Y035443D02*
X014899Y035368D01*
X014749Y035368D01*
X014674Y035443D01*
X014514Y035443D02*
X014439Y035368D01*
X014289Y035368D01*
X014214Y035443D01*
X014214Y035744D01*
X014289Y035819D01*
X014439Y035819D01*
X014514Y035744D01*
X014674Y035744D02*
X014749Y035819D01*
X014899Y035819D01*
X014974Y035744D01*
X014974Y035669D01*
X014899Y035593D01*
X014974Y035518D01*
X014974Y035443D01*
X014899Y035593D02*
X014824Y035593D01*
X015957Y040443D02*
X016062Y040443D01*
X016129Y041168D02*
X016129Y041619D01*
X015903Y041393D01*
X016204Y041393D01*
X016364Y041243D02*
X016439Y041168D01*
X016589Y041168D01*
X016664Y041243D01*
X016664Y041544D01*
X016364Y041243D01*
X016364Y041544D01*
X016439Y041619D01*
X016589Y041619D01*
X016664Y041544D01*
X016824Y041469D02*
X016974Y041619D01*
X016974Y041168D01*
X016824Y041168D02*
X017124Y041168D01*
X017334Y041043D02*
X015685Y041043D01*
X015668Y041168D02*
X015518Y041168D01*
X015443Y041243D01*
X015443Y041544D01*
X015518Y041619D01*
X015668Y041619D01*
X015743Y041544D01*
X015743Y041243D01*
X015668Y041168D01*
X015743Y041168D02*
X015593Y041318D01*
X015684Y041043D02*
X015647Y040993D01*
X015613Y040941D01*
X015582Y040887D01*
X015555Y040831D01*
X015560Y039946D02*
X015589Y039889D01*
X015622Y039833D01*
X015657Y039780D01*
X015697Y039729D01*
X015739Y039681D01*
X015784Y039635D01*
X015831Y039592D01*
X015881Y039552D01*
X015934Y039515D01*
X015989Y039482D01*
X016045Y039451D01*
X016104Y039425D01*
X016164Y039402D01*
X016225Y039382D01*
X016287Y039367D01*
X016350Y039355D01*
X016414Y039347D01*
X016478Y039343D01*
X016542Y039343D01*
X016606Y039347D01*
X016670Y039355D01*
X016733Y039367D01*
X016795Y039382D01*
X016856Y039402D01*
X016916Y039425D01*
X016975Y039451D01*
X017031Y039482D01*
X017086Y039515D01*
X017139Y039552D01*
X017189Y039592D01*
X017236Y039635D01*
X017281Y039681D01*
X017323Y039729D01*
X017363Y039780D01*
X017398Y039833D01*
X017431Y039889D01*
X017460Y039946D01*
X017062Y040443D02*
X016957Y040443D01*
X017460Y040840D02*
X017433Y040894D01*
X017403Y040945D01*
X017370Y040995D01*
X017335Y041043D01*
D17*
X009335Y040143D03*
X007185Y040143D03*
X007185Y025393D03*
X009335Y025393D03*
X011435Y021393D03*
X011685Y022393D03*
X013585Y021393D03*
X013835Y022393D03*
X013585Y018393D03*
X013585Y017393D03*
X013585Y016393D03*
X013585Y015393D03*
X013585Y014393D03*
X013585Y013393D03*
X013585Y010393D03*
X013585Y009393D03*
X013585Y006643D03*
X011435Y006643D03*
X011435Y009393D03*
X011435Y010393D03*
X011435Y013393D03*
X011435Y014393D03*
X011435Y015393D03*
X011435Y016393D03*
X011435Y017393D03*
X011435Y018393D03*
X008835Y010393D03*
X006685Y010393D03*
D18*
X006291Y009559D02*
X010228Y009559D01*
X010228Y012925D02*
X006291Y012925D01*
X005860Y010393D02*
X004660Y010393D01*
X004660Y007393D01*
X005860Y007393D01*
X005860Y010393D01*
X004610Y010393D02*
X004610Y007393D01*
X003410Y007393D01*
X003410Y010393D01*
X004610Y010393D01*
X006291Y005425D02*
X010228Y005425D01*
X010228Y017059D02*
X006291Y017059D01*
X006291Y020425D02*
X010228Y020425D01*
X010228Y024559D02*
X006291Y024559D01*
X006291Y027925D02*
X010228Y027925D01*
X010160Y033843D02*
X009981Y033861D01*
X009801Y033875D01*
X009621Y033885D01*
X009440Y033891D01*
X009260Y033893D01*
X009080Y033891D01*
X008899Y033885D01*
X008719Y033875D01*
X008539Y033861D01*
X008360Y033843D01*
X008308Y033833D01*
X008257Y033819D01*
X008207Y033801D01*
X008159Y033780D01*
X008112Y033755D01*
X008068Y033727D01*
X008025Y033695D01*
X007985Y033661D01*
X007948Y033623D01*
X007914Y033583D01*
X007882Y033541D01*
X007854Y033496D01*
X007830Y033449D01*
X007809Y033401D01*
X007791Y033351D01*
X007778Y033300D01*
X007768Y033248D01*
X007762Y033196D01*
X007760Y033143D01*
X007762Y033090D01*
X007768Y033038D01*
X007778Y032986D01*
X007791Y032935D01*
X007809Y032885D01*
X007830Y032837D01*
X007854Y032790D01*
X007882Y032745D01*
X007914Y032703D01*
X007948Y032663D01*
X007985Y032625D01*
X008025Y032591D01*
X008068Y032559D01*
X008112Y032531D01*
X008159Y032506D01*
X008207Y032485D01*
X008257Y032467D01*
X008308Y032453D01*
X008360Y032443D01*
X010159Y032443D02*
X010211Y032453D01*
X010262Y032467D01*
X010312Y032485D01*
X010360Y032506D01*
X010407Y032531D01*
X010451Y032559D01*
X010494Y032591D01*
X010534Y032625D01*
X010571Y032663D01*
X010605Y032703D01*
X010637Y032745D01*
X010665Y032790D01*
X010689Y032837D01*
X010710Y032885D01*
X010728Y032935D01*
X010741Y032986D01*
X010751Y033038D01*
X010757Y033090D01*
X010759Y033143D01*
X010757Y033196D01*
X010751Y033248D01*
X010741Y033300D01*
X010728Y033351D01*
X010710Y033401D01*
X010689Y033449D01*
X010665Y033496D01*
X010637Y033541D01*
X010605Y033583D01*
X010571Y033623D01*
X010534Y033661D01*
X010494Y033695D01*
X010451Y033727D01*
X010407Y033755D01*
X010360Y033780D01*
X010312Y033801D01*
X010262Y033819D01*
X010211Y033833D01*
X010159Y033843D01*
X010228Y035425D02*
X006291Y035425D01*
X004760Y035643D02*
X004510Y035393D01*
X004010Y035393D01*
X003760Y035643D01*
X003760Y036143D01*
X004010Y036393D01*
X003760Y036643D01*
X003760Y037143D01*
X004010Y037393D01*
X003760Y037643D01*
X003760Y038143D01*
X004010Y038393D01*
X003760Y038643D01*
X003760Y039143D01*
X004010Y039393D01*
X003760Y039643D01*
X003760Y040143D01*
X004010Y040393D01*
X003760Y040643D01*
X003760Y041143D01*
X004010Y041393D01*
X004510Y041393D01*
X004760Y041143D01*
X004760Y040643D01*
X004510Y040393D01*
X004760Y040143D01*
X004760Y039643D01*
X004510Y039393D01*
X004760Y039143D01*
X004760Y038643D01*
X004510Y038393D01*
X004760Y038143D01*
X004760Y037643D01*
X004510Y037393D01*
X004760Y037143D01*
X004760Y036643D01*
X004510Y036393D01*
X004760Y036143D01*
X004760Y035643D01*
X006291Y032059D02*
X010228Y032059D01*
X010228Y039559D02*
X006291Y039559D01*
X008360Y032443D02*
X008539Y032425D01*
X008719Y032411D01*
X008899Y032401D01*
X009080Y032395D01*
X009260Y032393D01*
X009440Y032395D01*
X009621Y032401D01*
X009801Y032411D01*
X009981Y032425D01*
X010160Y032443D01*
X014842Y032393D02*
X014842Y027393D01*
X015510Y027393D01*
X017010Y027393D02*
X017677Y027393D01*
X017677Y032393D01*
X017010Y032393D01*
X017760Y032143D02*
X017760Y032643D01*
X018010Y032893D01*
X018510Y032893D01*
X018760Y032643D01*
X018760Y032143D01*
X018510Y031893D01*
X018760Y031643D01*
X018760Y031143D01*
X018510Y030893D01*
X018760Y030643D01*
X018760Y030143D01*
X018510Y029893D01*
X018760Y029643D01*
X018760Y029143D01*
X018510Y028893D01*
X018760Y028643D01*
X018760Y028143D01*
X018510Y027893D01*
X018760Y027643D01*
X018760Y027143D01*
X018510Y026893D01*
X018010Y026893D01*
X017760Y027143D01*
X017760Y027643D01*
X018010Y027893D01*
X017760Y028143D01*
X017760Y028643D01*
X018010Y028893D01*
X017760Y029143D01*
X017760Y029643D01*
X018010Y029893D01*
X017760Y030143D01*
X017760Y030643D01*
X018010Y030893D01*
X017760Y031143D01*
X017760Y031643D01*
X018010Y031893D01*
X017760Y032143D01*
X015510Y032393D02*
X014842Y032393D01*
X004610Y021893D02*
X004610Y018893D01*
X003410Y018893D01*
X003410Y021893D01*
X004610Y021893D01*
D19*
X006640Y040593D02*
X006640Y040893D01*
X006640Y041193D01*
X006890Y041193D02*
X006890Y040893D01*
X006890Y040593D01*
X014960Y034273D02*
X015260Y034273D01*
X015560Y034273D01*
X015560Y034023D02*
X015260Y034023D01*
X014960Y034023D01*
D20*
X012760Y018893D02*
X012818Y018924D01*
X012874Y018959D01*
X012928Y018996D01*
X012979Y019037D01*
X013029Y019081D01*
X013075Y019128D01*
X013119Y019177D01*
X013159Y019229D01*
X013197Y019283D01*
X013231Y019339D01*
X013262Y019397D01*
X013289Y019457D01*
X013313Y019518D01*
X013333Y019581D01*
X013350Y019644D01*
X013363Y019709D01*
X013372Y019774D01*
X013377Y019840D01*
X013378Y019905D01*
X013375Y019971D01*
X013369Y020037D01*
X013358Y020102D01*
X013344Y020166D01*
X013326Y020229D01*
X013305Y020291D01*
X013279Y020352D01*
X013251Y020411D01*
X013218Y020469D01*
X013183Y020524D01*
X013144Y020577D01*
X013102Y020628D01*
X013058Y020676D01*
X013010Y020722D01*
X012960Y020765D01*
X012908Y020804D01*
X012853Y020841D01*
X012796Y020874D01*
X012738Y020904D01*
X012677Y020930D01*
X012616Y020953D01*
X012553Y020972D01*
X012489Y020987D01*
X012424Y020999D01*
X012359Y021007D01*
X012293Y021011D01*
X012227Y021011D01*
X012161Y021007D01*
X012096Y020999D01*
X012031Y020987D01*
X011967Y020972D01*
X011904Y020953D01*
X011843Y020930D01*
X011782Y020904D01*
X011724Y020874D01*
X011667Y020841D01*
X011612Y020804D01*
X011560Y020765D01*
X011510Y020722D01*
X011462Y020676D01*
X011418Y020628D01*
X011376Y020577D01*
X011337Y020524D01*
X011302Y020469D01*
X011269Y020411D01*
X011241Y020352D01*
X011215Y020291D01*
X011194Y020229D01*
X011176Y020166D01*
X011162Y020102D01*
X011151Y020037D01*
X011145Y019971D01*
X011142Y019905D01*
X011143Y019840D01*
X011148Y019774D01*
X011157Y019709D01*
X011170Y019644D01*
X011187Y019581D01*
X011207Y019518D01*
X011231Y019457D01*
X011258Y019397D01*
X011289Y019339D01*
X011323Y019283D01*
X011361Y019229D01*
X011401Y019177D01*
X011445Y019128D01*
X011491Y019081D01*
X011541Y019037D01*
X011592Y018996D01*
X011646Y018959D01*
X011702Y018924D01*
X011760Y018893D01*
X011750Y019273D02*
X011930Y019273D01*
X012570Y019273D02*
X012770Y019273D01*
X012760Y003893D02*
X012818Y003924D01*
X012874Y003959D01*
X012928Y003996D01*
X012979Y004037D01*
X013029Y004081D01*
X013075Y004128D01*
X013119Y004177D01*
X013159Y004229D01*
X013197Y004283D01*
X013231Y004339D01*
X013262Y004397D01*
X013289Y004457D01*
X013313Y004518D01*
X013333Y004581D01*
X013350Y004644D01*
X013363Y004709D01*
X013372Y004774D01*
X013377Y004840D01*
X013378Y004905D01*
X013375Y004971D01*
X013369Y005037D01*
X013358Y005102D01*
X013344Y005166D01*
X013326Y005229D01*
X013305Y005291D01*
X013279Y005352D01*
X013251Y005411D01*
X013218Y005469D01*
X013183Y005524D01*
X013144Y005577D01*
X013102Y005628D01*
X013058Y005676D01*
X013010Y005722D01*
X012960Y005765D01*
X012908Y005804D01*
X012853Y005841D01*
X012796Y005874D01*
X012738Y005904D01*
X012677Y005930D01*
X012616Y005953D01*
X012553Y005972D01*
X012489Y005987D01*
X012424Y005999D01*
X012359Y006007D01*
X012293Y006011D01*
X012227Y006011D01*
X012161Y006007D01*
X012096Y005999D01*
X012031Y005987D01*
X011967Y005972D01*
X011904Y005953D01*
X011843Y005930D01*
X011782Y005904D01*
X011724Y005874D01*
X011667Y005841D01*
X011612Y005804D01*
X011560Y005765D01*
X011510Y005722D01*
X011462Y005676D01*
X011418Y005628D01*
X011376Y005577D01*
X011337Y005524D01*
X011302Y005469D01*
X011269Y005411D01*
X011241Y005352D01*
X011215Y005291D01*
X011194Y005229D01*
X011176Y005166D01*
X011162Y005102D01*
X011151Y005037D01*
X011145Y004971D01*
X011142Y004905D01*
X011143Y004840D01*
X011148Y004774D01*
X011157Y004709D01*
X011170Y004644D01*
X011187Y004581D01*
X011207Y004518D01*
X011231Y004457D01*
X011258Y004397D01*
X011289Y004339D01*
X011323Y004283D01*
X011361Y004229D01*
X011401Y004177D01*
X011445Y004128D01*
X011491Y004081D01*
X011541Y004037D01*
X011592Y003996D01*
X011646Y003959D01*
X011702Y003924D01*
X011760Y003893D01*
X011750Y004273D02*
X011930Y004273D01*
X012570Y004273D02*
X012770Y004273D01*
X005760Y003643D02*
X005760Y005643D01*
X004760Y005643D01*
X004760Y003643D01*
X005260Y003643D01*
X005260Y003393D01*
X005260Y003643D02*
X005760Y003643D01*
X005760Y005643D02*
X005760Y006143D01*
X005260Y006143D01*
X005260Y006393D01*
X005260Y006143D02*
X004760Y006143D01*
X004760Y005643D01*
X004510Y006143D02*
X004010Y006143D01*
X004010Y006393D01*
X004010Y006143D02*
X003510Y006143D01*
X003510Y004143D01*
X004510Y004143D01*
X004510Y006143D01*
X004510Y004143D02*
X004510Y003643D01*
X004010Y003643D01*
X004010Y003393D01*
X004010Y003643D02*
X003510Y003643D01*
X003510Y004143D01*
X004010Y023143D02*
X004010Y023393D01*
X004510Y023393D01*
X004510Y023893D01*
X003510Y023893D01*
X003510Y023393D01*
X004010Y023393D01*
X003510Y023893D02*
X003510Y025893D01*
X004010Y025893D01*
X004010Y026143D01*
X004010Y025893D02*
X004510Y025893D01*
X004510Y023893D01*
D21*
X011837Y020624D02*
X011882Y020546D01*
X011881Y020546D02*
X011837Y020518D01*
X011795Y020487D01*
X011755Y020454D01*
X011717Y020418D01*
X011682Y020379D01*
X011650Y020338D01*
X011620Y020294D01*
X011594Y020249D01*
X011571Y020202D01*
X011551Y020154D01*
X011535Y020104D01*
X011522Y020054D01*
X011513Y020002D01*
X011507Y019950D01*
X011505Y019898D01*
X011416Y019897D01*
X011415Y019898D01*
X011417Y019953D01*
X011423Y020007D01*
X011432Y020062D01*
X011445Y020115D01*
X011461Y020167D01*
X011480Y020219D01*
X011503Y020269D01*
X011529Y020317D01*
X011558Y020364D01*
X011590Y020408D01*
X011625Y020451D01*
X011663Y020491D01*
X011703Y020528D01*
X011745Y020563D01*
X011790Y020595D01*
X011836Y020624D01*
X011841Y020616D01*
X011795Y020588D01*
X011751Y020556D01*
X011709Y020521D01*
X011669Y020484D01*
X011632Y020445D01*
X011597Y020403D01*
X011566Y020359D01*
X011537Y020313D01*
X011511Y020265D01*
X011489Y020215D01*
X011469Y020165D01*
X011453Y020113D01*
X011441Y020060D01*
X011432Y020006D01*
X011426Y019952D01*
X011424Y019898D01*
X011433Y019898D01*
X011435Y019952D01*
X011441Y020005D01*
X011450Y020058D01*
X011462Y020110D01*
X011478Y020162D01*
X011497Y020212D01*
X011519Y020261D01*
X011545Y020308D01*
X011573Y020354D01*
X011605Y020397D01*
X011639Y020439D01*
X011675Y020478D01*
X011715Y020515D01*
X011756Y020549D01*
X011800Y020580D01*
X011845Y020609D01*
X011850Y020601D01*
X011802Y020571D01*
X011756Y020537D01*
X011713Y020501D01*
X011672Y020461D01*
X011634Y020419D01*
X011599Y020375D01*
X011567Y020328D01*
X011539Y020279D01*
X011514Y020228D01*
X011492Y020175D01*
X011475Y020122D01*
X011461Y020067D01*
X011451Y020011D01*
X011444Y019955D01*
X011442Y019898D01*
X011451Y019898D01*
X011453Y019954D01*
X011459Y020010D01*
X011469Y020065D01*
X011483Y020119D01*
X011501Y020172D01*
X011522Y020224D01*
X011547Y020275D01*
X011575Y020323D01*
X011606Y020369D01*
X011641Y020414D01*
X011678Y020455D01*
X011719Y020494D01*
X011761Y020530D01*
X011807Y020563D01*
X011854Y020593D01*
X011859Y020585D01*
X011812Y020556D01*
X011767Y020523D01*
X011725Y020487D01*
X011685Y020449D01*
X011648Y020408D01*
X011613Y020364D01*
X011582Y020318D01*
X011555Y020270D01*
X011530Y020221D01*
X011509Y020169D01*
X011492Y020117D01*
X011478Y020063D01*
X011468Y020008D01*
X011462Y019953D01*
X011460Y019898D01*
X011469Y019898D01*
X011471Y019953D01*
X011477Y020007D01*
X011487Y020061D01*
X011501Y020114D01*
X011518Y020166D01*
X011538Y020217D01*
X011563Y020266D01*
X011590Y020313D01*
X011621Y020359D01*
X011654Y020402D01*
X011691Y020443D01*
X011731Y020481D01*
X011773Y020516D01*
X011817Y020548D01*
X011863Y020577D01*
X011868Y020569D01*
X011822Y020541D01*
X011778Y020509D01*
X011737Y020474D01*
X011698Y020436D01*
X011661Y020396D01*
X011628Y020354D01*
X011598Y020309D01*
X011570Y020262D01*
X011547Y020213D01*
X011526Y020163D01*
X011509Y020112D01*
X011496Y020059D01*
X011486Y020006D01*
X011480Y019952D01*
X011478Y019898D01*
X011487Y019898D01*
X011489Y019951D01*
X011495Y020005D01*
X011505Y020057D01*
X011518Y020109D01*
X011535Y020160D01*
X011555Y020210D01*
X011578Y020258D01*
X011605Y020304D01*
X011635Y020348D01*
X011668Y020390D01*
X011704Y020430D01*
X011743Y020467D01*
X011784Y020502D01*
X011827Y020533D01*
X011872Y020562D01*
X011877Y020554D01*
X011832Y020526D01*
X011789Y020495D01*
X011749Y020461D01*
X011711Y020424D01*
X011675Y020385D01*
X011643Y020343D01*
X011613Y020299D01*
X011586Y020253D01*
X011563Y020206D01*
X011543Y020157D01*
X011526Y020107D01*
X011513Y020055D01*
X011504Y020003D01*
X011498Y019951D01*
X011496Y019898D01*
X013104Y019898D02*
X013014Y019898D01*
X013015Y019898D02*
X013013Y019952D01*
X013007Y020005D01*
X012997Y020058D01*
X012983Y020110D01*
X012966Y020161D01*
X012945Y020210D01*
X012921Y020258D01*
X012893Y020304D01*
X012862Y020348D01*
X012828Y020390D01*
X012792Y020429D01*
X012752Y020466D01*
X012710Y020499D01*
X012666Y020530D01*
X012620Y020557D01*
X012662Y020636D01*
X012711Y020608D01*
X012757Y020576D01*
X012802Y020541D01*
X012844Y020504D01*
X012884Y020463D01*
X012920Y020420D01*
X012954Y020375D01*
X012985Y020328D01*
X013012Y020278D01*
X013036Y020227D01*
X013057Y020175D01*
X013074Y020121D01*
X013087Y020066D01*
X013097Y020011D01*
X013103Y019954D01*
X013105Y019898D01*
X013096Y019898D01*
X013094Y019954D01*
X013088Y020009D01*
X013078Y020064D01*
X013065Y020119D01*
X013048Y020172D01*
X013028Y020224D01*
X013004Y020274D01*
X012977Y020323D01*
X012947Y020370D01*
X012913Y020415D01*
X012877Y020457D01*
X012838Y020497D01*
X012796Y020534D01*
X012752Y020569D01*
X012706Y020600D01*
X012658Y020628D01*
X012654Y020620D01*
X012701Y020592D01*
X012747Y020561D01*
X012790Y020527D01*
X012832Y020491D01*
X012870Y020451D01*
X012906Y020409D01*
X012939Y020365D01*
X012969Y020319D01*
X012996Y020270D01*
X013019Y020220D01*
X013040Y020169D01*
X013056Y020116D01*
X013069Y020063D01*
X013079Y020008D01*
X013085Y019953D01*
X013087Y019898D01*
X013078Y019898D01*
X013076Y019953D01*
X013070Y020007D01*
X013061Y020061D01*
X013048Y020114D01*
X013031Y020166D01*
X013011Y020217D01*
X012988Y020266D01*
X012961Y020314D01*
X012932Y020360D01*
X012899Y020404D01*
X012864Y020445D01*
X012825Y020484D01*
X012785Y020521D01*
X012742Y020554D01*
X012696Y020585D01*
X012649Y020612D01*
X012645Y020604D01*
X012692Y020577D01*
X012736Y020547D01*
X012779Y020514D01*
X012819Y020478D01*
X012857Y020439D01*
X012892Y020398D01*
X012924Y020355D01*
X012954Y020309D01*
X012980Y020262D01*
X013003Y020213D01*
X013023Y020163D01*
X013039Y020111D01*
X013052Y020059D01*
X013061Y020006D01*
X013067Y019952D01*
X013069Y019898D01*
X013060Y019898D01*
X013058Y019951D01*
X013052Y020004D01*
X013043Y020057D01*
X013030Y020109D01*
X013014Y020160D01*
X012995Y020210D01*
X012972Y020258D01*
X012946Y020305D01*
X012917Y020349D01*
X012885Y020392D01*
X012850Y020433D01*
X012813Y020471D01*
X012773Y020507D01*
X012731Y020540D01*
X012687Y020570D01*
X012641Y020597D01*
X012637Y020589D01*
X012682Y020562D01*
X012726Y020532D01*
X012767Y020500D01*
X012807Y020465D01*
X012844Y020427D01*
X012878Y020387D01*
X012910Y020344D01*
X012938Y020300D01*
X012964Y020254D01*
X012986Y020206D01*
X013006Y020157D01*
X013022Y020107D01*
X013034Y020055D01*
X013043Y020003D01*
X013049Y019951D01*
X013051Y019898D01*
X013042Y019898D01*
X013040Y019954D01*
X013033Y020009D01*
X013023Y020064D01*
X013009Y020118D01*
X012991Y020170D01*
X012970Y020222D01*
X012944Y020271D01*
X012916Y020319D01*
X012884Y020365D01*
X012849Y020408D01*
X012811Y020448D01*
X012770Y020486D01*
X012726Y020521D01*
X012680Y020552D01*
X012632Y020581D01*
X012628Y020573D01*
X012676Y020545D01*
X012721Y020514D01*
X012764Y020479D01*
X012804Y020442D01*
X012842Y020402D01*
X012877Y020359D01*
X012908Y020314D01*
X012937Y020267D01*
X012961Y020218D01*
X012983Y020167D01*
X013000Y020115D01*
X013014Y020062D01*
X013024Y020008D01*
X013031Y019953D01*
X013033Y019898D01*
X013024Y019898D01*
X013022Y019952D01*
X013016Y020006D01*
X013006Y020060D01*
X012992Y020112D01*
X012974Y020164D01*
X012953Y020214D01*
X012929Y020263D01*
X012901Y020309D01*
X012869Y020354D01*
X012835Y020396D01*
X012798Y020435D01*
X012758Y020472D01*
X012716Y020506D01*
X012671Y020537D01*
X012624Y020565D01*
X012804Y019248D02*
X012747Y019317D01*
X012747Y019316D02*
X012787Y019353D01*
X012825Y019392D01*
X012859Y019434D01*
X012891Y019478D01*
X012919Y019524D01*
X012944Y019573D01*
X012965Y019623D01*
X012983Y019674D01*
X012996Y019727D01*
X013006Y019780D01*
X013013Y019834D01*
X013015Y019888D01*
X013104Y019889D01*
X013105Y019888D01*
X013103Y019832D01*
X013097Y019776D01*
X013087Y019721D01*
X013074Y019666D01*
X013057Y019613D01*
X013037Y019560D01*
X013013Y019509D01*
X012986Y019460D01*
X012955Y019413D01*
X012922Y019368D01*
X012886Y019325D01*
X012847Y019285D01*
X012805Y019247D01*
X012799Y019254D01*
X012840Y019291D01*
X012879Y019331D01*
X012915Y019373D01*
X012948Y019418D01*
X012978Y019465D01*
X013005Y019513D01*
X013028Y019564D01*
X013049Y019616D01*
X013065Y019669D01*
X013078Y019723D01*
X013088Y019777D01*
X013094Y019832D01*
X013096Y019888D01*
X013087Y019888D01*
X013085Y019833D01*
X013079Y019778D01*
X013070Y019724D01*
X013057Y019671D01*
X013040Y019619D01*
X013020Y019567D01*
X012997Y019518D01*
X012970Y019469D01*
X012941Y019423D01*
X012908Y019379D01*
X012872Y019337D01*
X012834Y019298D01*
X012793Y019261D01*
X012788Y019268D01*
X012828Y019304D01*
X012866Y019343D01*
X012901Y019385D01*
X012933Y019428D01*
X012963Y019474D01*
X012989Y019522D01*
X013012Y019571D01*
X013032Y019621D01*
X013048Y019673D01*
X013061Y019726D01*
X013070Y019780D01*
X013076Y019834D01*
X013078Y019888D01*
X013069Y019888D01*
X013067Y019834D01*
X013061Y019781D01*
X013052Y019728D01*
X013039Y019676D01*
X013023Y019624D01*
X013004Y019574D01*
X012981Y019526D01*
X012955Y019479D01*
X012926Y019433D01*
X012894Y019390D01*
X012859Y019349D01*
X012822Y019311D01*
X012782Y019275D01*
X012776Y019282D01*
X012815Y019317D01*
X012852Y019355D01*
X012887Y019396D01*
X012918Y019439D01*
X012947Y019483D01*
X012973Y019530D01*
X012995Y019578D01*
X013015Y019627D01*
X013031Y019678D01*
X013043Y019730D01*
X013052Y019782D01*
X013058Y019835D01*
X013060Y019888D01*
X013051Y019888D01*
X013049Y019836D01*
X013043Y019783D01*
X013034Y019732D01*
X013022Y019681D01*
X013006Y019630D01*
X012987Y019581D01*
X012965Y019534D01*
X012939Y019488D01*
X012911Y019444D01*
X012880Y019402D01*
X012846Y019361D01*
X012809Y019324D01*
X012770Y019289D01*
X012764Y019295D01*
X012803Y019330D01*
X012839Y019368D01*
X012873Y019407D01*
X012904Y019449D01*
X012932Y019493D01*
X012957Y019538D01*
X012979Y019585D01*
X012998Y019633D01*
X013013Y019683D01*
X013026Y019733D01*
X013034Y019785D01*
X013040Y019836D01*
X013042Y019888D01*
X013033Y019888D01*
X013031Y019837D01*
X013026Y019786D01*
X013017Y019735D01*
X013005Y019685D01*
X012989Y019636D01*
X012971Y019589D01*
X012949Y019542D01*
X012924Y019497D01*
X012896Y019454D01*
X012866Y019413D01*
X012833Y019374D01*
X012797Y019337D01*
X012759Y019302D01*
X012753Y019309D01*
X012794Y019346D01*
X012832Y019386D01*
X012866Y019428D01*
X012898Y019473D01*
X012927Y019520D01*
X012952Y019569D01*
X012973Y019620D01*
X012991Y019671D01*
X013005Y019725D01*
X013015Y019779D01*
X013022Y019833D01*
X013024Y019888D01*
X011416Y019889D02*
X011506Y019889D01*
X011505Y019888D02*
X011507Y019834D01*
X011513Y019781D01*
X011523Y019728D01*
X011537Y019676D01*
X011554Y019625D01*
X011575Y019575D01*
X011599Y019527D01*
X011627Y019481D01*
X011658Y019437D01*
X011692Y019396D01*
X011729Y019356D01*
X011768Y019320D01*
X011711Y019252D01*
X011710Y019251D01*
X011669Y019289D01*
X011631Y019329D01*
X011595Y019372D01*
X011562Y019417D01*
X011532Y019464D01*
X011506Y019512D01*
X011482Y019563D01*
X011462Y019615D01*
X011446Y019668D01*
X011432Y019722D01*
X011423Y019777D01*
X011417Y019832D01*
X011415Y019888D01*
X011424Y019888D01*
X011426Y019833D01*
X011432Y019778D01*
X011441Y019724D01*
X011454Y019670D01*
X011471Y019618D01*
X011490Y019566D01*
X011514Y019516D01*
X011540Y019468D01*
X011570Y019422D01*
X011602Y019377D01*
X011637Y019335D01*
X011676Y019295D01*
X011716Y019258D01*
X011722Y019265D01*
X011682Y019302D01*
X011644Y019341D01*
X011609Y019383D01*
X011577Y019427D01*
X011548Y019473D01*
X011522Y019521D01*
X011499Y019570D01*
X011479Y019621D01*
X011463Y019673D01*
X011450Y019726D01*
X011441Y019779D01*
X011435Y019834D01*
X011433Y019888D01*
X011442Y019888D01*
X011444Y019834D01*
X011450Y019781D01*
X011459Y019728D01*
X011472Y019675D01*
X011488Y019624D01*
X011507Y019573D01*
X011530Y019525D01*
X011555Y019477D01*
X011584Y019432D01*
X011616Y019388D01*
X011651Y019347D01*
X011688Y019308D01*
X011728Y019272D01*
X011734Y019279D01*
X011694Y019315D01*
X011657Y019353D01*
X011623Y019394D01*
X011592Y019437D01*
X011563Y019482D01*
X011538Y019529D01*
X011515Y019577D01*
X011496Y019627D01*
X011480Y019678D01*
X011468Y019729D01*
X011459Y019782D01*
X011453Y019835D01*
X011451Y019888D01*
X011460Y019888D01*
X011462Y019835D01*
X011468Y019783D01*
X011477Y019731D01*
X011489Y019680D01*
X011505Y019630D01*
X011524Y019580D01*
X011546Y019533D01*
X011571Y019486D01*
X011599Y019442D01*
X011630Y019400D01*
X011664Y019359D01*
X011701Y019321D01*
X011739Y019286D01*
X011745Y019292D01*
X011707Y019328D01*
X011671Y019365D01*
X011637Y019405D01*
X011607Y019447D01*
X011579Y019491D01*
X011554Y019537D01*
X011532Y019584D01*
X011513Y019633D01*
X011498Y019682D01*
X011485Y019733D01*
X011477Y019784D01*
X011471Y019836D01*
X011469Y019888D01*
X011478Y019888D01*
X011480Y019832D01*
X011487Y019777D01*
X011497Y019722D01*
X011511Y019668D01*
X011529Y019615D01*
X011551Y019564D01*
X011576Y019514D01*
X011605Y019466D01*
X011637Y019421D01*
X011672Y019378D01*
X011710Y019337D01*
X011751Y019299D01*
X011757Y019306D01*
X011716Y019343D01*
X011679Y019384D01*
X011644Y019426D01*
X011612Y019471D01*
X011584Y019519D01*
X011559Y019568D01*
X011537Y019619D01*
X011520Y019671D01*
X011506Y019724D01*
X011496Y019778D01*
X011489Y019833D01*
X011487Y019888D01*
X011496Y019888D01*
X011498Y019834D01*
X011504Y019780D01*
X011514Y019726D01*
X011528Y019673D01*
X011546Y019622D01*
X011567Y019572D01*
X011592Y019523D01*
X011620Y019476D01*
X011651Y019432D01*
X011685Y019390D01*
X011723Y019350D01*
X011763Y019313D01*
X011837Y005624D02*
X011882Y005546D01*
X011881Y005546D02*
X011837Y005518D01*
X011795Y005487D01*
X011755Y005454D01*
X011717Y005418D01*
X011682Y005379D01*
X011650Y005338D01*
X011620Y005294D01*
X011594Y005249D01*
X011571Y005202D01*
X011551Y005154D01*
X011535Y005104D01*
X011522Y005054D01*
X011513Y005002D01*
X011507Y004950D01*
X011505Y004898D01*
X011416Y004897D01*
X011415Y004898D01*
X011417Y004953D01*
X011423Y005007D01*
X011432Y005062D01*
X011445Y005115D01*
X011461Y005167D01*
X011480Y005219D01*
X011503Y005269D01*
X011529Y005317D01*
X011558Y005364D01*
X011590Y005408D01*
X011625Y005451D01*
X011663Y005491D01*
X011703Y005528D01*
X011745Y005563D01*
X011790Y005595D01*
X011836Y005624D01*
X011841Y005616D01*
X011795Y005588D01*
X011751Y005556D01*
X011709Y005521D01*
X011669Y005484D01*
X011632Y005445D01*
X011597Y005403D01*
X011566Y005359D01*
X011537Y005313D01*
X011511Y005265D01*
X011489Y005215D01*
X011469Y005165D01*
X011453Y005113D01*
X011441Y005060D01*
X011432Y005006D01*
X011426Y004952D01*
X011424Y004898D01*
X011433Y004898D01*
X011435Y004952D01*
X011441Y005005D01*
X011450Y005058D01*
X011462Y005110D01*
X011478Y005162D01*
X011497Y005212D01*
X011519Y005261D01*
X011545Y005308D01*
X011573Y005354D01*
X011605Y005397D01*
X011639Y005439D01*
X011675Y005478D01*
X011715Y005515D01*
X011756Y005549D01*
X011800Y005580D01*
X011845Y005609D01*
X011850Y005601D01*
X011802Y005571D01*
X011756Y005537D01*
X011713Y005501D01*
X011672Y005461D01*
X011634Y005419D01*
X011599Y005375D01*
X011567Y005328D01*
X011539Y005279D01*
X011514Y005228D01*
X011492Y005175D01*
X011475Y005122D01*
X011461Y005067D01*
X011451Y005011D01*
X011444Y004955D01*
X011442Y004898D01*
X011451Y004898D01*
X011453Y004954D01*
X011459Y005010D01*
X011469Y005065D01*
X011483Y005119D01*
X011501Y005172D01*
X011522Y005224D01*
X011547Y005275D01*
X011575Y005323D01*
X011606Y005369D01*
X011641Y005414D01*
X011678Y005455D01*
X011719Y005494D01*
X011761Y005530D01*
X011807Y005563D01*
X011854Y005593D01*
X011859Y005585D01*
X011812Y005556D01*
X011767Y005523D01*
X011725Y005487D01*
X011685Y005449D01*
X011648Y005408D01*
X011613Y005364D01*
X011582Y005318D01*
X011555Y005270D01*
X011530Y005221D01*
X011509Y005169D01*
X011492Y005117D01*
X011478Y005063D01*
X011468Y005008D01*
X011462Y004953D01*
X011460Y004898D01*
X011469Y004898D01*
X011471Y004953D01*
X011477Y005007D01*
X011487Y005061D01*
X011501Y005114D01*
X011518Y005166D01*
X011538Y005217D01*
X011563Y005266D01*
X011590Y005313D01*
X011621Y005359D01*
X011654Y005402D01*
X011691Y005443D01*
X011731Y005481D01*
X011773Y005516D01*
X011817Y005548D01*
X011863Y005577D01*
X011868Y005569D01*
X011822Y005541D01*
X011778Y005509D01*
X011737Y005474D01*
X011698Y005436D01*
X011661Y005396D01*
X011628Y005354D01*
X011598Y005309D01*
X011570Y005262D01*
X011547Y005213D01*
X011526Y005163D01*
X011509Y005112D01*
X011496Y005059D01*
X011486Y005006D01*
X011480Y004952D01*
X011478Y004898D01*
X011487Y004898D01*
X011489Y004951D01*
X011495Y005005D01*
X011505Y005057D01*
X011518Y005109D01*
X011535Y005160D01*
X011555Y005210D01*
X011578Y005258D01*
X011605Y005304D01*
X011635Y005348D01*
X011668Y005390D01*
X011704Y005430D01*
X011743Y005467D01*
X011784Y005502D01*
X011827Y005533D01*
X011872Y005562D01*
X011877Y005554D01*
X011832Y005526D01*
X011789Y005495D01*
X011749Y005461D01*
X011711Y005424D01*
X011675Y005385D01*
X011643Y005343D01*
X011613Y005299D01*
X011586Y005253D01*
X011563Y005206D01*
X011543Y005157D01*
X011526Y005107D01*
X011513Y005055D01*
X011504Y005003D01*
X011498Y004951D01*
X011496Y004898D01*
X013104Y004898D02*
X013014Y004898D01*
X013015Y004898D02*
X013013Y004952D01*
X013007Y005005D01*
X012997Y005058D01*
X012983Y005110D01*
X012966Y005161D01*
X012945Y005210D01*
X012921Y005258D01*
X012893Y005304D01*
X012862Y005348D01*
X012828Y005390D01*
X012792Y005429D01*
X012752Y005466D01*
X012710Y005499D01*
X012666Y005530D01*
X012620Y005557D01*
X012662Y005636D01*
X012711Y005608D01*
X012757Y005576D01*
X012802Y005541D01*
X012844Y005504D01*
X012884Y005463D01*
X012920Y005420D01*
X012954Y005375D01*
X012985Y005328D01*
X013012Y005278D01*
X013036Y005227D01*
X013057Y005175D01*
X013074Y005121D01*
X013087Y005066D01*
X013097Y005011D01*
X013103Y004954D01*
X013105Y004898D01*
X013096Y004898D01*
X013094Y004954D01*
X013088Y005009D01*
X013078Y005064D01*
X013065Y005119D01*
X013048Y005172D01*
X013028Y005224D01*
X013004Y005274D01*
X012977Y005323D01*
X012947Y005370D01*
X012913Y005415D01*
X012877Y005457D01*
X012838Y005497D01*
X012796Y005534D01*
X012752Y005569D01*
X012706Y005600D01*
X012658Y005628D01*
X012654Y005620D01*
X012701Y005592D01*
X012747Y005561D01*
X012790Y005527D01*
X012832Y005491D01*
X012870Y005451D01*
X012906Y005409D01*
X012939Y005365D01*
X012969Y005319D01*
X012996Y005270D01*
X013019Y005220D01*
X013040Y005169D01*
X013056Y005116D01*
X013069Y005063D01*
X013079Y005008D01*
X013085Y004953D01*
X013087Y004898D01*
X013078Y004898D01*
X013076Y004953D01*
X013070Y005007D01*
X013061Y005061D01*
X013048Y005114D01*
X013031Y005166D01*
X013011Y005217D01*
X012988Y005266D01*
X012961Y005314D01*
X012932Y005360D01*
X012899Y005404D01*
X012864Y005445D01*
X012825Y005484D01*
X012785Y005521D01*
X012742Y005554D01*
X012696Y005585D01*
X012649Y005612D01*
X012645Y005604D01*
X012692Y005577D01*
X012736Y005547D01*
X012779Y005514D01*
X012819Y005478D01*
X012857Y005439D01*
X012892Y005398D01*
X012924Y005355D01*
X012954Y005309D01*
X012980Y005262D01*
X013003Y005213D01*
X013023Y005163D01*
X013039Y005111D01*
X013052Y005059D01*
X013061Y005006D01*
X013067Y004952D01*
X013069Y004898D01*
X013060Y004898D01*
X013058Y004951D01*
X013052Y005004D01*
X013043Y005057D01*
X013030Y005109D01*
X013014Y005160D01*
X012995Y005210D01*
X012972Y005258D01*
X012946Y005305D01*
X012917Y005349D01*
X012885Y005392D01*
X012850Y005433D01*
X012813Y005471D01*
X012773Y005507D01*
X012731Y005540D01*
X012687Y005570D01*
X012641Y005597D01*
X012637Y005589D01*
X012682Y005562D01*
X012726Y005532D01*
X012767Y005500D01*
X012807Y005465D01*
X012844Y005427D01*
X012878Y005387D01*
X012910Y005344D01*
X012938Y005300D01*
X012964Y005254D01*
X012986Y005206D01*
X013006Y005157D01*
X013022Y005107D01*
X013034Y005055D01*
X013043Y005003D01*
X013049Y004951D01*
X013051Y004898D01*
X013042Y004898D01*
X013040Y004954D01*
X013033Y005009D01*
X013023Y005064D01*
X013009Y005118D01*
X012991Y005170D01*
X012970Y005222D01*
X012944Y005271D01*
X012916Y005319D01*
X012884Y005365D01*
X012849Y005408D01*
X012811Y005448D01*
X012770Y005486D01*
X012726Y005521D01*
X012680Y005552D01*
X012632Y005581D01*
X012628Y005573D01*
X012676Y005545D01*
X012721Y005514D01*
X012764Y005479D01*
X012804Y005442D01*
X012842Y005402D01*
X012877Y005359D01*
X012908Y005314D01*
X012937Y005267D01*
X012961Y005218D01*
X012983Y005167D01*
X013000Y005115D01*
X013014Y005062D01*
X013024Y005008D01*
X013031Y004953D01*
X013033Y004898D01*
X013024Y004898D01*
X013022Y004952D01*
X013016Y005006D01*
X013006Y005060D01*
X012992Y005112D01*
X012974Y005164D01*
X012953Y005214D01*
X012929Y005263D01*
X012901Y005309D01*
X012869Y005354D01*
X012835Y005396D01*
X012798Y005435D01*
X012758Y005472D01*
X012716Y005506D01*
X012671Y005537D01*
X012624Y005565D01*
X012804Y004248D02*
X012747Y004317D01*
X012747Y004316D02*
X012787Y004353D01*
X012825Y004392D01*
X012859Y004434D01*
X012891Y004478D01*
X012919Y004524D01*
X012944Y004573D01*
X012965Y004623D01*
X012983Y004674D01*
X012996Y004727D01*
X013006Y004780D01*
X013013Y004834D01*
X013015Y004888D01*
X013104Y004889D01*
X013105Y004888D01*
X013103Y004832D01*
X013097Y004776D01*
X013087Y004721D01*
X013074Y004666D01*
X013057Y004613D01*
X013037Y004560D01*
X013013Y004509D01*
X012986Y004460D01*
X012955Y004413D01*
X012922Y004368D01*
X012886Y004325D01*
X012847Y004285D01*
X012805Y004247D01*
X012799Y004254D01*
X012840Y004291D01*
X012879Y004331D01*
X012915Y004373D01*
X012948Y004418D01*
X012978Y004465D01*
X013005Y004513D01*
X013028Y004564D01*
X013049Y004616D01*
X013065Y004669D01*
X013078Y004723D01*
X013088Y004777D01*
X013094Y004832D01*
X013096Y004888D01*
X013087Y004888D01*
X013085Y004833D01*
X013079Y004778D01*
X013070Y004724D01*
X013057Y004671D01*
X013040Y004619D01*
X013020Y004567D01*
X012997Y004518D01*
X012970Y004469D01*
X012941Y004423D01*
X012908Y004379D01*
X012872Y004337D01*
X012834Y004298D01*
X012793Y004261D01*
X012788Y004268D01*
X012828Y004304D01*
X012866Y004343D01*
X012901Y004385D01*
X012933Y004428D01*
X012963Y004474D01*
X012989Y004522D01*
X013012Y004571D01*
X013032Y004621D01*
X013048Y004673D01*
X013061Y004726D01*
X013070Y004780D01*
X013076Y004834D01*
X013078Y004888D01*
X013069Y004888D01*
X013067Y004834D01*
X013061Y004781D01*
X013052Y004728D01*
X013039Y004676D01*
X013023Y004624D01*
X013004Y004574D01*
X012981Y004526D01*
X012955Y004479D01*
X012926Y004433D01*
X012894Y004390D01*
X012859Y004349D01*
X012822Y004311D01*
X012782Y004275D01*
X012776Y004282D01*
X012815Y004317D01*
X012852Y004355D01*
X012887Y004396D01*
X012918Y004439D01*
X012947Y004483D01*
X012973Y004530D01*
X012995Y004578D01*
X013015Y004627D01*
X013031Y004678D01*
X013043Y004730D01*
X013052Y004782D01*
X013058Y004835D01*
X013060Y004888D01*
X013051Y004888D01*
X013049Y004836D01*
X013043Y004783D01*
X013034Y004732D01*
X013022Y004681D01*
X013006Y004630D01*
X012987Y004581D01*
X012965Y004534D01*
X012939Y004488D01*
X012911Y004444D01*
X012880Y004402D01*
X012846Y004361D01*
X012809Y004324D01*
X012770Y004289D01*
X012764Y004295D01*
X012803Y004330D01*
X012839Y004368D01*
X012873Y004407D01*
X012904Y004449D01*
X012932Y004493D01*
X012957Y004538D01*
X012979Y004585D01*
X012998Y004633D01*
X013013Y004683D01*
X013026Y004733D01*
X013034Y004785D01*
X013040Y004836D01*
X013042Y004888D01*
X013033Y004888D01*
X013031Y004837D01*
X013026Y004786D01*
X013017Y004735D01*
X013005Y004685D01*
X012989Y004636D01*
X012971Y004589D01*
X012949Y004542D01*
X012924Y004497D01*
X012896Y004454D01*
X012866Y004413D01*
X012833Y004374D01*
X012797Y004337D01*
X012759Y004302D01*
X012753Y004309D01*
X012794Y004346D01*
X012832Y004386D01*
X012866Y004428D01*
X012898Y004473D01*
X012927Y004520D01*
X012952Y004569D01*
X012973Y004620D01*
X012991Y004671D01*
X013005Y004725D01*
X013015Y004779D01*
X013022Y004833D01*
X013024Y004888D01*
X011416Y004889D02*
X011506Y004889D01*
X011505Y004888D02*
X011507Y004834D01*
X011513Y004781D01*
X011523Y004728D01*
X011537Y004676D01*
X011554Y004625D01*
X011575Y004575D01*
X011599Y004527D01*
X011627Y004481D01*
X011658Y004437D01*
X011692Y004396D01*
X011729Y004356D01*
X011768Y004320D01*
X011711Y004252D01*
X011710Y004251D01*
X011669Y004289D01*
X011631Y004329D01*
X011595Y004372D01*
X011562Y004417D01*
X011532Y004464D01*
X011506Y004512D01*
X011482Y004563D01*
X011462Y004615D01*
X011446Y004668D01*
X011432Y004722D01*
X011423Y004777D01*
X011417Y004832D01*
X011415Y004888D01*
X011424Y004888D01*
X011426Y004833D01*
X011432Y004778D01*
X011441Y004724D01*
X011454Y004670D01*
X011471Y004618D01*
X011490Y004566D01*
X011514Y004516D01*
X011540Y004468D01*
X011570Y004422D01*
X011602Y004377D01*
X011637Y004335D01*
X011676Y004295D01*
X011716Y004258D01*
X011722Y004265D01*
X011682Y004302D01*
X011644Y004341D01*
X011609Y004383D01*
X011577Y004427D01*
X011548Y004473D01*
X011522Y004521D01*
X011499Y004570D01*
X011479Y004621D01*
X011463Y004673D01*
X011450Y004726D01*
X011441Y004779D01*
X011435Y004834D01*
X011433Y004888D01*
X011442Y004888D01*
X011444Y004834D01*
X011450Y004781D01*
X011459Y004728D01*
X011472Y004675D01*
X011488Y004624D01*
X011507Y004573D01*
X011530Y004525D01*
X011555Y004477D01*
X011584Y004432D01*
X011616Y004388D01*
X011651Y004347D01*
X011688Y004308D01*
X011728Y004272D01*
X011734Y004279D01*
X011694Y004315D01*
X011657Y004353D01*
X011623Y004394D01*
X011592Y004437D01*
X011563Y004482D01*
X011538Y004529D01*
X011515Y004577D01*
X011496Y004627D01*
X011480Y004678D01*
X011468Y004729D01*
X011459Y004782D01*
X011453Y004835D01*
X011451Y004888D01*
X011460Y004888D01*
X011462Y004835D01*
X011468Y004783D01*
X011477Y004731D01*
X011489Y004680D01*
X011505Y004630D01*
X011524Y004580D01*
X011546Y004533D01*
X011571Y004486D01*
X011599Y004442D01*
X011630Y004400D01*
X011664Y004359D01*
X011701Y004321D01*
X011739Y004286D01*
X011745Y004292D01*
X011707Y004328D01*
X011671Y004365D01*
X011637Y004405D01*
X011607Y004447D01*
X011579Y004491D01*
X011554Y004537D01*
X011532Y004584D01*
X011513Y004633D01*
X011498Y004682D01*
X011485Y004733D01*
X011477Y004784D01*
X011471Y004836D01*
X011469Y004888D01*
X011478Y004888D01*
X011480Y004832D01*
X011487Y004777D01*
X011497Y004722D01*
X011511Y004668D01*
X011529Y004615D01*
X011551Y004564D01*
X011576Y004514D01*
X011605Y004466D01*
X011637Y004421D01*
X011672Y004378D01*
X011710Y004337D01*
X011751Y004299D01*
X011757Y004306D01*
X011716Y004343D01*
X011679Y004384D01*
X011644Y004426D01*
X011612Y004471D01*
X011584Y004519D01*
X011559Y004568D01*
X011537Y004619D01*
X011520Y004671D01*
X011506Y004724D01*
X011496Y004778D01*
X011489Y004833D01*
X011487Y004888D01*
X011496Y004888D01*
X011498Y004834D01*
X011504Y004780D01*
X011514Y004726D01*
X011528Y004673D01*
X011546Y004622D01*
X011567Y004572D01*
X011592Y004523D01*
X011620Y004476D01*
X011651Y004432D01*
X011685Y004390D01*
X011723Y004350D01*
X011763Y004313D01*
M02*
