G75*
G70*
%OFA0B0*%
%FSLAX24Y24*%
%IPPOS*%
%LPD*%
%AMOC8*
5,1,8,0,0,1.08239X$1,22.5*
%
%ADD10C,0.0000*%
%ADD11C,0.0560*%
%ADD12OC8,0.0560*%
%ADD13OC8,0.1422*%
%ADD14C,0.0760*%
%ADD15OC8,0.1107*%
%ADD16OC8,0.1186*%
%ADD17C,0.0555*%
%ADD18C,0.0740*%
%ADD19C,0.0780*%
%ADD20OC8,0.0740*%
%ADD21OC8,0.0630*%
%ADD22C,0.0630*%
%ADD23OC8,0.1240*%
%ADD24C,0.0320*%
%ADD25C,0.0240*%
%ADD26C,0.0120*%
%ADD27R,0.0356X0.0356*%
%ADD28C,0.0160*%
D10*
X000180Y000555D02*
X039550Y000555D01*
X039550Y016062D01*
X000180Y016062D01*
X000180Y000555D01*
D11*
X009930Y005680D03*
X009930Y006680D03*
X009930Y007680D03*
X005180Y007180D03*
X005180Y006180D03*
X005180Y008180D03*
X021180Y008180D03*
X022180Y008180D03*
X023180Y008180D03*
X024180Y008180D03*
X025930Y008180D03*
X026930Y008180D03*
X027930Y008180D03*
X028930Y008180D03*
X029930Y008180D03*
X030930Y008180D03*
X031930Y008180D03*
X032930Y008180D03*
X033930Y008180D03*
X034930Y008180D03*
X035930Y008180D03*
X036930Y008180D03*
X037930Y008180D03*
X038930Y008180D03*
X038930Y005180D03*
X037930Y005180D03*
X036930Y005180D03*
X035930Y005180D03*
X034930Y005180D03*
X033930Y005180D03*
X032930Y005180D03*
X031930Y005180D03*
X030930Y005180D03*
X029930Y005180D03*
X028930Y005180D03*
X027930Y005180D03*
X026930Y005180D03*
X025930Y005180D03*
X024180Y005180D03*
X023180Y005180D03*
X022180Y005180D03*
X021180Y005180D03*
X038180Y003930D03*
X038180Y002930D03*
X038180Y001930D03*
D12*
X036680Y001930D03*
X036680Y002930D03*
X036680Y003930D03*
X033680Y003930D03*
X032930Y004180D03*
X030930Y004180D03*
X033680Y002930D03*
X033680Y001930D03*
X019930Y005180D03*
X018930Y005180D03*
X016430Y005180D03*
X015430Y005180D03*
X014430Y005180D03*
X013430Y005180D03*
X012430Y005180D03*
X011430Y005180D03*
X008180Y005680D03*
X007180Y005680D03*
X004930Y005180D03*
X003930Y005930D03*
X003180Y007180D03*
X002180Y007180D03*
X001180Y005930D03*
X001180Y008930D03*
X003930Y008930D03*
X007180Y008680D03*
X008180Y008680D03*
X008180Y010180D03*
X011430Y008180D03*
X012430Y008180D03*
X013430Y008180D03*
X014430Y008180D03*
X015430Y008180D03*
X016430Y008180D03*
X017180Y007180D03*
X018180Y007180D03*
X018930Y008180D03*
X019930Y008180D03*
X023180Y009680D03*
X023180Y012680D03*
X024430Y013930D03*
X025430Y013930D03*
X025430Y015430D03*
X028430Y015430D03*
X028430Y013930D03*
X029680Y013930D03*
X032680Y013930D03*
X038180Y012680D03*
X038930Y011680D03*
X038930Y013680D03*
X038180Y009680D03*
X021430Y013930D03*
X008180Y013180D03*
X004930Y002180D03*
D13*
X003034Y001723D03*
X001184Y002629D03*
X003074Y004912D03*
X005948Y003574D03*
X009137Y003534D03*
X010948Y003574D03*
X014137Y003534D03*
X015948Y003574D03*
X019137Y003534D03*
X020948Y003574D03*
X024137Y003534D03*
X023231Y001684D03*
X018231Y001684D03*
X013231Y001684D03*
X008231Y001684D03*
D14*
X009727Y010196D03*
X009727Y011180D03*
X009727Y012164D03*
X002227Y012164D03*
X002227Y011180D03*
X002227Y010196D03*
X017227Y010196D03*
X017227Y011180D03*
X017227Y012164D03*
X024727Y012164D03*
X024727Y011180D03*
X024727Y010196D03*
X032227Y010196D03*
X032227Y011180D03*
X032227Y012164D03*
D15*
X035180Y012952D03*
X035180Y009408D03*
X027680Y009408D03*
X027680Y012952D03*
X020180Y012952D03*
X020180Y009408D03*
X012680Y009408D03*
X012680Y012952D03*
X005180Y012952D03*
X005180Y009408D03*
D16*
X025830Y003180D03*
X027680Y003180D03*
X029530Y003180D03*
D17*
X030180Y009180D03*
X031180Y009180D03*
X032180Y009180D03*
D18*
X033680Y014930D03*
X034680Y014930D03*
X035680Y014930D03*
X036680Y014930D03*
X037680Y014930D03*
X038680Y014930D03*
X019180Y015430D03*
X017180Y015430D03*
X007680Y015430D03*
X005680Y015430D03*
X005680Y014180D03*
X007680Y014180D03*
D19*
X004680Y014180D03*
X004680Y015430D03*
X000680Y015430D03*
X000680Y014180D03*
X020430Y015430D03*
X024430Y015430D03*
D20*
X015930Y015430D03*
X014930Y015430D03*
X013930Y015430D03*
X012930Y015430D03*
X011930Y015430D03*
X010930Y015430D03*
X009930Y015430D03*
X008930Y015430D03*
X008930Y014430D03*
X009930Y014430D03*
X010930Y014430D03*
X011930Y014430D03*
X012930Y014430D03*
X013930Y014430D03*
X014930Y014430D03*
X015930Y014430D03*
D21*
X032430Y002680D03*
D22*
X031430Y002680D03*
D23*
X030680Y015180D03*
D24*
X020430Y015430D02*
X019180Y015430D01*
X017180Y015430D02*
X017180Y014430D01*
X016430Y013680D01*
X014680Y013680D01*
X013930Y014430D01*
X013930Y015430D01*
X012930Y015430D02*
X012930Y014430D01*
X008930Y014430D02*
X008930Y015430D01*
X007680Y015430D01*
X005680Y015430D02*
X004680Y015430D01*
X004680Y014180D02*
X005680Y014180D01*
D25*
X006680Y013180D01*
X008180Y013180D01*
X010680Y013180D01*
X011930Y011930D01*
X015493Y011930D01*
X017227Y010196D01*
X018446Y010196D01*
X018680Y010430D01*
X024493Y010430D01*
X024727Y010196D01*
X023180Y009680D02*
X022680Y009680D01*
X021180Y008180D01*
X019930Y008180D01*
X019680Y008180D01*
X018430Y009430D01*
X015430Y009430D01*
X014430Y010430D01*
X011680Y010430D01*
X010430Y009430D01*
X007680Y009430D01*
X006680Y010430D01*
X004430Y010430D01*
X003180Y009180D01*
X001930Y009180D01*
X001180Y009930D01*
X001180Y012680D01*
X003930Y015430D01*
X004680Y015430D01*
X007680Y014180D02*
X008180Y013680D01*
X012180Y013680D01*
X012930Y014430D01*
X015430Y008180D02*
X015930Y007680D01*
X018430Y007680D01*
X018680Y007380D01*
X032130Y007380D01*
X032930Y008180D01*
X032930Y009430D01*
X032227Y010133D01*
X032227Y010196D01*
X032930Y009430D02*
X034680Y011180D01*
X036680Y011180D01*
X038180Y012680D01*
X036680Y014180D01*
X036680Y014930D01*
X031930Y005180D02*
X030930Y005180D01*
X030930Y004180D01*
X030930Y003180D01*
X031430Y002680D01*
X032180Y003430D01*
X033180Y003430D01*
X033680Y003930D01*
D26*
X033930Y002430D02*
X035430Y003930D01*
X036680Y003930D01*
X036430Y004180D01*
X036430Y007680D01*
X035930Y008180D01*
X034930Y008180D02*
X034930Y007680D01*
X034430Y007180D01*
X034430Y006180D01*
X034180Y005930D01*
X024180Y005930D01*
X023930Y005680D01*
X022430Y005680D01*
X022180Y005930D01*
X016180Y005930D01*
X015430Y005180D01*
X014930Y005680D01*
X012180Y005680D01*
X011930Y005430D01*
X011930Y004930D01*
X011680Y004680D01*
X009930Y004680D01*
X008430Y006180D01*
X005180Y006180D01*
X005180Y007180D02*
X003930Y005930D01*
X004930Y005180D01*
X003074Y004912D02*
X004930Y003056D01*
X004930Y002180D01*
X005680Y000730D02*
X019730Y000730D01*
X020180Y001180D01*
X020430Y002430D02*
X022130Y000730D01*
X034230Y000730D01*
X035930Y002430D01*
X036680Y002930D02*
X036680Y001930D01*
X036680Y002930D02*
X038180Y002930D01*
X038180Y003930D02*
X036680Y003930D01*
X033930Y002430D02*
X033430Y002430D01*
X033180Y002180D01*
X026680Y002180D01*
X025830Y003030D01*
X025830Y003180D01*
X024430Y001930D02*
X023680Y002680D01*
X021841Y002680D01*
X020948Y003574D01*
X020430Y004680D02*
X021680Y004680D01*
X022180Y005180D01*
X022680Y005930D02*
X023680Y005930D01*
X024180Y006430D01*
X025930Y006430D01*
X023180Y006430D02*
X016180Y006430D01*
X014430Y008180D01*
X013430Y008180D01*
X011430Y008180D02*
X011430Y007180D01*
X010930Y006680D01*
X009930Y006680D01*
X009930Y007680D02*
X009180Y007680D01*
X008180Y008680D01*
X007680Y010930D02*
X002961Y010930D01*
X002227Y010196D01*
X002227Y011180D02*
X002680Y011180D01*
X003180Y011680D01*
X007930Y011680D01*
X008930Y012780D01*
X010430Y012780D01*
X011680Y011430D01*
X015180Y011430D01*
X017227Y011180D02*
X019977Y013930D01*
X021430Y013930D01*
X023180Y012680D02*
X023430Y012930D01*
X024930Y012930D01*
X025430Y013430D01*
X025430Y013930D01*
X024430Y013930D01*
X024930Y012930D02*
X025430Y012430D01*
X025430Y009430D01*
X025180Y009180D01*
X023680Y009180D01*
X023180Y008680D01*
X023180Y008180D01*
X024180Y008180D02*
X024930Y008180D01*
X029680Y012930D01*
X029680Y013930D01*
X029680Y014180D01*
X028430Y015430D01*
X027930Y014430D02*
X028430Y013930D01*
X027930Y014430D02*
X018680Y014430D01*
X016930Y012680D01*
X015180Y012680D01*
X017930Y010680D02*
X018430Y011180D01*
X024727Y011180D01*
X018930Y008180D02*
X018680Y008180D01*
X017930Y008930D01*
X018180Y007180D02*
X018430Y006930D01*
X028930Y006930D01*
X022680Y005930D02*
X022430Y006180D01*
X012180Y006180D01*
X011430Y005430D01*
X011430Y005180D01*
X012430Y005180D02*
X013430Y005180D01*
X013930Y004680D01*
X016930Y004680D01*
X017430Y005180D01*
X018930Y005180D01*
X019930Y005180D01*
X020430Y004680D01*
X018930Y002430D02*
X017680Y003680D01*
X017680Y004680D01*
X015948Y003574D02*
X015091Y004480D01*
X009430Y004480D01*
X008180Y005680D01*
X007180Y005680D01*
X003180Y007180D02*
X002180Y006180D01*
X002180Y004180D01*
X005680Y000730D01*
X001180Y005930D02*
X001180Y006680D01*
X001680Y007180D01*
X002180Y007180D01*
X018930Y002430D02*
X020430Y002430D01*
X024430Y001930D02*
X033680Y001930D01*
X038930Y008180D02*
X038930Y008930D01*
X038180Y009680D01*
X038180Y010930D01*
X038930Y011680D01*
X038930Y013680D02*
X038930Y014180D01*
X039380Y014680D01*
X039380Y015180D01*
X038930Y015680D01*
X034180Y015680D01*
X033680Y015180D01*
X033680Y014930D01*
D27*
X017930Y010680D03*
X015180Y011430D03*
X015180Y012680D03*
X007680Y010930D03*
X017930Y008930D03*
X023180Y006430D03*
X025930Y006430D03*
X028930Y006930D03*
X035930Y002430D03*
X020180Y001180D03*
X017680Y004680D03*
D28*
X029930Y008180D02*
X029930Y008930D01*
X030180Y009180D01*
X030930Y008180D02*
X031930Y009180D01*
X032180Y009180D01*
M02*
