G75*
%MOIN*%
%OFA0B0*%
%FSLAX24Y24*%
%IPPOS*%
%LPD*%
%AMOC8*
5,1,8,0,0,1.08239X$1,22.5*
%
%ADD10C,0.0000*%
%ADD11C,0.0520*%
%ADD12C,0.0594*%
%ADD13C,0.0760*%
%ADD14C,0.1181*%
%ADD15C,0.1266*%
%ADD16C,0.0515*%
%ADD17C,0.0740*%
%ADD18C,0.0780*%
%ADD19C,0.0630*%
%ADD20R,0.0520X0.0520*%
%ADD21C,0.0160*%
%ADD22C,0.0240*%
%ADD23C,0.0120*%
%ADD24C,0.0356*%
D10*
X003378Y002393D02*
X018885Y002393D01*
X018885Y041763D01*
X003378Y041763D01*
X003378Y002393D01*
X015709Y004893D02*
X015711Y004940D01*
X015717Y004986D01*
X015727Y005032D01*
X015740Y005077D01*
X015758Y005120D01*
X015779Y005162D01*
X015803Y005202D01*
X015831Y005239D01*
X015862Y005274D01*
X015896Y005307D01*
X015932Y005336D01*
X015971Y005362D01*
X016012Y005385D01*
X016055Y005404D01*
X016099Y005420D01*
X016144Y005432D01*
X016190Y005440D01*
X016237Y005444D01*
X016283Y005444D01*
X016330Y005440D01*
X016376Y005432D01*
X016421Y005420D01*
X016465Y005404D01*
X016508Y005385D01*
X016549Y005362D01*
X016588Y005336D01*
X016624Y005307D01*
X016658Y005274D01*
X016689Y005239D01*
X016717Y005202D01*
X016741Y005162D01*
X016762Y005120D01*
X016780Y005077D01*
X016793Y005032D01*
X016803Y004986D01*
X016809Y004940D01*
X016811Y004893D01*
X016809Y004846D01*
X016803Y004800D01*
X016793Y004754D01*
X016780Y004709D01*
X016762Y004666D01*
X016741Y004624D01*
X016717Y004584D01*
X016689Y004547D01*
X016658Y004512D01*
X016624Y004479D01*
X016588Y004450D01*
X016549Y004424D01*
X016508Y004401D01*
X016465Y004382D01*
X016421Y004366D01*
X016376Y004354D01*
X016330Y004346D01*
X016283Y004342D01*
X016237Y004342D01*
X016190Y004346D01*
X016144Y004354D01*
X016099Y004366D01*
X016055Y004382D01*
X016012Y004401D01*
X015971Y004424D01*
X015932Y004450D01*
X015896Y004479D01*
X015862Y004512D01*
X015831Y004547D01*
X015803Y004584D01*
X015779Y004624D01*
X015758Y004666D01*
X015740Y004709D01*
X015727Y004754D01*
X015717Y004800D01*
X015711Y004846D01*
X015709Y004893D01*
X015709Y009893D02*
X015711Y009940D01*
X015717Y009986D01*
X015727Y010032D01*
X015740Y010077D01*
X015758Y010120D01*
X015779Y010162D01*
X015803Y010202D01*
X015831Y010239D01*
X015862Y010274D01*
X015896Y010307D01*
X015932Y010336D01*
X015971Y010362D01*
X016012Y010385D01*
X016055Y010404D01*
X016099Y010420D01*
X016144Y010432D01*
X016190Y010440D01*
X016237Y010444D01*
X016283Y010444D01*
X016330Y010440D01*
X016376Y010432D01*
X016421Y010420D01*
X016465Y010404D01*
X016508Y010385D01*
X016549Y010362D01*
X016588Y010336D01*
X016624Y010307D01*
X016658Y010274D01*
X016689Y010239D01*
X016717Y010202D01*
X016741Y010162D01*
X016762Y010120D01*
X016780Y010077D01*
X016793Y010032D01*
X016803Y009986D01*
X016809Y009940D01*
X016811Y009893D01*
X016809Y009846D01*
X016803Y009800D01*
X016793Y009754D01*
X016780Y009709D01*
X016762Y009666D01*
X016741Y009624D01*
X016717Y009584D01*
X016689Y009547D01*
X016658Y009512D01*
X016624Y009479D01*
X016588Y009450D01*
X016549Y009424D01*
X016508Y009401D01*
X016465Y009382D01*
X016421Y009366D01*
X016376Y009354D01*
X016330Y009346D01*
X016283Y009342D01*
X016237Y009342D01*
X016190Y009346D01*
X016144Y009354D01*
X016099Y009366D01*
X016055Y009382D01*
X016012Y009401D01*
X015971Y009424D01*
X015932Y009450D01*
X015896Y009479D01*
X015862Y009512D01*
X015831Y009547D01*
X015803Y009584D01*
X015779Y009624D01*
X015758Y009666D01*
X015740Y009709D01*
X015727Y009754D01*
X015717Y009800D01*
X015711Y009846D01*
X015709Y009893D01*
X015709Y014893D02*
X015711Y014940D01*
X015717Y014986D01*
X015727Y015032D01*
X015740Y015077D01*
X015758Y015120D01*
X015779Y015162D01*
X015803Y015202D01*
X015831Y015239D01*
X015862Y015274D01*
X015896Y015307D01*
X015932Y015336D01*
X015971Y015362D01*
X016012Y015385D01*
X016055Y015404D01*
X016099Y015420D01*
X016144Y015432D01*
X016190Y015440D01*
X016237Y015444D01*
X016283Y015444D01*
X016330Y015440D01*
X016376Y015432D01*
X016421Y015420D01*
X016465Y015404D01*
X016508Y015385D01*
X016549Y015362D01*
X016588Y015336D01*
X016624Y015307D01*
X016658Y015274D01*
X016689Y015239D01*
X016717Y015202D01*
X016741Y015162D01*
X016762Y015120D01*
X016780Y015077D01*
X016793Y015032D01*
X016803Y014986D01*
X016809Y014940D01*
X016811Y014893D01*
X016809Y014846D01*
X016803Y014800D01*
X016793Y014754D01*
X016780Y014709D01*
X016762Y014666D01*
X016741Y014624D01*
X016717Y014584D01*
X016689Y014547D01*
X016658Y014512D01*
X016624Y014479D01*
X016588Y014450D01*
X016549Y014424D01*
X016508Y014401D01*
X016465Y014382D01*
X016421Y014366D01*
X016376Y014354D01*
X016330Y014346D01*
X016283Y014342D01*
X016237Y014342D01*
X016190Y014346D01*
X016144Y014354D01*
X016099Y014366D01*
X016055Y014382D01*
X016012Y014401D01*
X015971Y014424D01*
X015932Y014450D01*
X015896Y014479D01*
X015862Y014512D01*
X015831Y014547D01*
X015803Y014584D01*
X015779Y014624D01*
X015758Y014666D01*
X015740Y014709D01*
X015727Y014754D01*
X015717Y014800D01*
X015711Y014846D01*
X015709Y014893D01*
X015709Y019893D02*
X015711Y019940D01*
X015717Y019986D01*
X015727Y020032D01*
X015740Y020077D01*
X015758Y020120D01*
X015779Y020162D01*
X015803Y020202D01*
X015831Y020239D01*
X015862Y020274D01*
X015896Y020307D01*
X015932Y020336D01*
X015971Y020362D01*
X016012Y020385D01*
X016055Y020404D01*
X016099Y020420D01*
X016144Y020432D01*
X016190Y020440D01*
X016237Y020444D01*
X016283Y020444D01*
X016330Y020440D01*
X016376Y020432D01*
X016421Y020420D01*
X016465Y020404D01*
X016508Y020385D01*
X016549Y020362D01*
X016588Y020336D01*
X016624Y020307D01*
X016658Y020274D01*
X016689Y020239D01*
X016717Y020202D01*
X016741Y020162D01*
X016762Y020120D01*
X016780Y020077D01*
X016793Y020032D01*
X016803Y019986D01*
X016809Y019940D01*
X016811Y019893D01*
X016809Y019846D01*
X016803Y019800D01*
X016793Y019754D01*
X016780Y019709D01*
X016762Y019666D01*
X016741Y019624D01*
X016717Y019584D01*
X016689Y019547D01*
X016658Y019512D01*
X016624Y019479D01*
X016588Y019450D01*
X016549Y019424D01*
X016508Y019401D01*
X016465Y019382D01*
X016421Y019366D01*
X016376Y019354D01*
X016330Y019346D01*
X016283Y019342D01*
X016237Y019342D01*
X016190Y019346D01*
X016144Y019354D01*
X016099Y019366D01*
X016055Y019382D01*
X016012Y019401D01*
X015971Y019424D01*
X015932Y019450D01*
X015896Y019479D01*
X015862Y019512D01*
X015831Y019547D01*
X015803Y019584D01*
X015779Y019624D01*
X015758Y019666D01*
X015740Y019709D01*
X015727Y019754D01*
X015717Y019800D01*
X015711Y019846D01*
X015709Y019893D01*
X015709Y024893D02*
X015711Y024940D01*
X015717Y024986D01*
X015727Y025032D01*
X015740Y025077D01*
X015758Y025120D01*
X015779Y025162D01*
X015803Y025202D01*
X015831Y025239D01*
X015862Y025274D01*
X015896Y025307D01*
X015932Y025336D01*
X015971Y025362D01*
X016012Y025385D01*
X016055Y025404D01*
X016099Y025420D01*
X016144Y025432D01*
X016190Y025440D01*
X016237Y025444D01*
X016283Y025444D01*
X016330Y025440D01*
X016376Y025432D01*
X016421Y025420D01*
X016465Y025404D01*
X016508Y025385D01*
X016549Y025362D01*
X016588Y025336D01*
X016624Y025307D01*
X016658Y025274D01*
X016689Y025239D01*
X016717Y025202D01*
X016741Y025162D01*
X016762Y025120D01*
X016780Y025077D01*
X016793Y025032D01*
X016803Y024986D01*
X016809Y024940D01*
X016811Y024893D01*
X016809Y024846D01*
X016803Y024800D01*
X016793Y024754D01*
X016780Y024709D01*
X016762Y024666D01*
X016741Y024624D01*
X016717Y024584D01*
X016689Y024547D01*
X016658Y024512D01*
X016624Y024479D01*
X016588Y024450D01*
X016549Y024424D01*
X016508Y024401D01*
X016465Y024382D01*
X016421Y024366D01*
X016376Y024354D01*
X016330Y024346D01*
X016283Y024342D01*
X016237Y024342D01*
X016190Y024346D01*
X016144Y024354D01*
X016099Y024366D01*
X016055Y024382D01*
X016012Y024401D01*
X015971Y024424D01*
X015932Y024450D01*
X015896Y024479D01*
X015862Y024512D01*
X015831Y024547D01*
X015803Y024584D01*
X015779Y024624D01*
X015758Y024666D01*
X015740Y024709D01*
X015727Y024754D01*
X015717Y024800D01*
X015711Y024846D01*
X015709Y024893D01*
D11*
X014260Y022393D03*
X014010Y023393D03*
X014010Y024393D03*
X014010Y025393D03*
X014010Y026393D03*
X014260Y028143D03*
X014260Y029143D03*
X014260Y030143D03*
X014260Y031143D03*
X014260Y032143D03*
X014260Y033143D03*
X014260Y034143D03*
X014260Y035143D03*
X014260Y036143D03*
X014260Y037143D03*
X014260Y038143D03*
X014260Y039143D03*
X014260Y040143D03*
X014260Y041143D03*
X015510Y040393D03*
X015510Y038893D03*
X016510Y038893D03*
X016510Y040393D03*
X017510Y040393D03*
X017510Y038893D03*
X017510Y035893D03*
X016510Y035893D03*
X015510Y035893D03*
X015260Y035143D03*
X015260Y033143D03*
X011260Y033143D03*
X011260Y032143D03*
X011260Y031143D03*
X011260Y030143D03*
X011260Y029143D03*
X011260Y028143D03*
X011010Y026393D03*
X011010Y025393D03*
X011010Y024393D03*
X011010Y023393D03*
X011260Y022393D03*
X011010Y021393D03*
X012260Y020393D03*
X011010Y018393D03*
X011010Y017393D03*
X011010Y016393D03*
X011010Y015393D03*
X011010Y014393D03*
X011010Y013393D03*
X011510Y012143D03*
X011010Y010393D03*
X011010Y009393D03*
X011510Y007893D03*
X011010Y006643D03*
X010760Y005893D03*
X012260Y005393D03*
X012510Y007893D03*
X013510Y007893D03*
X014010Y006643D03*
X013760Y005893D03*
X013760Y002893D03*
X010760Y002893D03*
X014010Y009393D03*
X014010Y010393D03*
X013510Y012143D03*
X014010Y013393D03*
X014010Y014393D03*
X014010Y015393D03*
X014010Y016393D03*
X014010Y017393D03*
X014010Y018393D03*
X014010Y021393D03*
X009760Y025393D03*
X006760Y025393D03*
X005510Y026643D03*
X005510Y027643D03*
X005510Y030643D03*
X005510Y031893D03*
X005510Y034893D03*
X004010Y030643D03*
X004010Y027643D03*
X005510Y023643D03*
X011260Y034143D03*
X011260Y035143D03*
X011260Y036143D03*
X011260Y037143D03*
X011260Y038143D03*
X011260Y039143D03*
X011260Y040143D03*
X011260Y041143D03*
X009760Y040143D03*
X007760Y040893D03*
X006760Y040143D03*
X005760Y040893D03*
X012510Y012143D03*
X009260Y010393D03*
X006260Y010393D03*
D12*
X016260Y011224D03*
X016260Y012059D03*
X016260Y012956D03*
X016260Y016224D03*
X016260Y017059D03*
X016260Y017956D03*
X016260Y021224D03*
X016260Y022059D03*
X016260Y022728D03*
X016260Y023563D03*
X016260Y026830D03*
X016260Y007956D03*
X016260Y007059D03*
X016260Y006224D03*
X016260Y002956D03*
D13*
X009244Y004441D03*
X008260Y004441D03*
X007275Y004441D03*
X007275Y011941D03*
X008260Y011941D03*
X009244Y011941D03*
X009244Y019441D03*
X008260Y019441D03*
X007275Y019441D03*
X007275Y026941D03*
X008260Y026941D03*
X009244Y026941D03*
X009244Y034441D03*
X008260Y034441D03*
X007275Y034441D03*
D14*
X006488Y037393D03*
X006488Y029893D03*
X010031Y029893D03*
X010031Y037393D03*
X010031Y022393D03*
X006488Y022393D03*
X006488Y014893D03*
X010031Y014893D03*
X010031Y007393D03*
X006488Y007393D03*
D15*
X016260Y028043D03*
X016260Y029893D03*
X016260Y031743D03*
D16*
X010260Y033143D03*
X009260Y033143D03*
X008260Y033143D03*
D17*
X004260Y035893D03*
X004260Y036893D03*
X004260Y037893D03*
X004260Y038893D03*
X004260Y039893D03*
X004260Y040893D03*
X004010Y021393D03*
X004010Y019393D03*
X004010Y018143D03*
X004010Y017143D03*
X004010Y016143D03*
X004010Y015143D03*
X004010Y014143D03*
X004010Y013143D03*
X004010Y012143D03*
X004010Y011143D03*
X004010Y009893D03*
X005010Y011143D03*
X005010Y012143D03*
X005010Y013143D03*
X005010Y014143D03*
X005010Y015143D03*
X005010Y016143D03*
X005010Y017143D03*
X005010Y018143D03*
X005260Y009893D03*
X005260Y007893D03*
X004010Y007893D03*
X018260Y027393D03*
X018260Y028393D03*
X018260Y029393D03*
X018260Y030393D03*
X018260Y031393D03*
X018260Y032393D03*
D18*
X005260Y006893D03*
X004010Y006893D03*
X004010Y002893D03*
X005260Y002893D03*
X004010Y022643D03*
X004010Y026643D03*
D19*
X016760Y033643D03*
X016760Y034643D03*
D20*
X012260Y019393D03*
X012260Y004393D03*
D21*
X012168Y004933D02*
X012351Y004933D01*
X012520Y005003D01*
X012649Y005133D01*
X012720Y005302D01*
X012720Y005485D01*
X012649Y005654D01*
X012520Y005783D01*
X012351Y005853D01*
X012168Y005853D01*
X011999Y005783D01*
X011870Y005654D01*
X011800Y005485D01*
X011800Y005302D01*
X011870Y005133D01*
X011999Y005003D01*
X012168Y004933D01*
X011917Y004853D02*
X011800Y004736D01*
X011800Y004050D01*
X011917Y003933D01*
X012602Y003933D01*
X012720Y004050D01*
X012720Y004736D01*
X012602Y004853D01*
X011917Y004853D01*
X011834Y004771D02*
X009734Y004771D01*
X009735Y004769D02*
X009572Y004932D01*
X009359Y005021D01*
X009128Y005021D01*
X008915Y004932D01*
X008752Y004769D01*
X008752Y004768D01*
X008751Y004769D01*
X008588Y004932D01*
X008375Y005021D01*
X008144Y005021D01*
X007931Y004932D01*
X007768Y004769D01*
X007754Y004735D01*
X007702Y004805D01*
X007640Y004868D01*
X007569Y004920D01*
X007490Y004960D01*
X007406Y004987D01*
X007319Y005001D01*
X007294Y005001D01*
X007294Y004459D01*
X007257Y004459D01*
X007257Y005001D01*
X007231Y005001D01*
X007144Y004987D01*
X007060Y004960D01*
X006982Y004920D01*
X006910Y004868D01*
X006848Y004805D01*
X006796Y004734D01*
X006756Y004656D01*
X006729Y004572D01*
X006715Y004485D01*
X006715Y004459D01*
X007257Y004459D01*
X007257Y004422D01*
X007294Y004422D01*
X007294Y003881D01*
X007319Y003881D01*
X007406Y003894D01*
X007490Y003922D01*
X007569Y003962D01*
X007640Y004013D01*
X007702Y004076D01*
X007754Y004146D01*
X007768Y004112D01*
X007931Y003949D01*
X008144Y003861D01*
X008375Y003861D01*
X008588Y003949D01*
X008751Y004112D01*
X008752Y004113D01*
X008752Y004112D01*
X008915Y003949D01*
X009128Y003861D01*
X009359Y003861D01*
X009572Y003949D01*
X009735Y004112D01*
X009824Y004325D01*
X009824Y004556D01*
X009735Y004769D01*
X009800Y004612D02*
X011800Y004612D01*
X011800Y004454D02*
X009824Y004454D01*
X009811Y004295D02*
X011800Y004295D01*
X011800Y004137D02*
X009746Y004137D01*
X009602Y003978D02*
X011872Y003978D01*
X011914Y005088D02*
X003578Y005088D01*
X003578Y005246D02*
X011823Y005246D01*
X011800Y005405D02*
X003578Y005405D01*
X003578Y005563D02*
X010467Y005563D01*
X010473Y005558D02*
X010529Y005517D01*
X010591Y005486D01*
X010656Y005464D01*
X010725Y005453D01*
X010760Y005453D01*
X010794Y005453D01*
X010863Y005464D01*
X010928Y005486D01*
X010990Y005517D01*
X011046Y005558D01*
X011095Y005607D01*
X011136Y005663D01*
X011167Y005724D01*
X011189Y005790D01*
X011200Y005859D01*
X011200Y005893D01*
X010760Y005893D01*
X010760Y005893D01*
X010760Y005453D01*
X010760Y005893D01*
X010760Y005893D01*
X011200Y005893D01*
X011200Y005928D01*
X011189Y005996D01*
X011167Y006062D01*
X011136Y006124D01*
X011095Y006180D01*
X011068Y006207D01*
X011113Y006214D01*
X011178Y006236D01*
X011240Y006267D01*
X011296Y006308D01*
X011345Y006357D01*
X011386Y006413D01*
X011417Y006474D01*
X011439Y006540D01*
X011450Y006609D01*
X011450Y006643D01*
X011010Y006643D01*
X011010Y006643D01*
X011450Y006643D01*
X011450Y006678D01*
X011439Y006746D01*
X011417Y006812D01*
X011386Y006874D01*
X011345Y006930D01*
X011296Y006979D01*
X011240Y007020D01*
X011178Y007051D01*
X011113Y007072D01*
X011044Y007083D01*
X011010Y007083D01*
X011010Y006643D01*
X011010Y006643D01*
X010570Y006643D01*
X010570Y006609D01*
X010580Y006540D01*
X010602Y006474D01*
X010633Y006413D01*
X010674Y006357D01*
X010701Y006330D01*
X010656Y006322D01*
X010591Y006301D01*
X010529Y006270D01*
X010473Y006229D01*
X010424Y006180D01*
X010383Y006124D01*
X010352Y006062D01*
X010330Y005996D01*
X010320Y005928D01*
X010320Y005893D01*
X010320Y005859D01*
X010330Y005790D01*
X010352Y005724D01*
X010383Y005663D01*
X010424Y005607D01*
X010473Y005558D01*
X010353Y005722D02*
X003578Y005722D01*
X003578Y005880D02*
X010320Y005880D01*
X010320Y005893D02*
X010760Y005893D01*
X010760Y005893D01*
X010320Y005893D01*
X010344Y006039D02*
X003578Y006039D01*
X003578Y006197D02*
X010441Y006197D01*
X010675Y006356D02*
X005504Y006356D01*
X005594Y006393D02*
X005760Y006559D01*
X005850Y006776D01*
X005850Y006959D01*
X005907Y006884D01*
X005979Y006813D01*
X006059Y006751D01*
X006146Y006701D01*
X006240Y006662D01*
X006337Y006636D01*
X006408Y006627D01*
X006408Y007313D01*
X006568Y007313D01*
X006568Y006627D01*
X006639Y006636D01*
X006736Y006662D01*
X006829Y006701D01*
X006917Y006751D01*
X006997Y006813D01*
X007068Y006884D01*
X007130Y006964D01*
X007180Y007052D01*
X007219Y007145D01*
X007245Y007243D01*
X007255Y007313D01*
X006568Y007313D01*
X006568Y007473D01*
X007255Y007473D01*
X007245Y007544D01*
X007219Y007642D01*
X007180Y007735D01*
X007130Y007822D01*
X007068Y007902D01*
X006997Y007974D01*
X006917Y008035D01*
X006829Y008086D01*
X006736Y008125D01*
X006639Y008151D01*
X006568Y008160D01*
X006568Y007473D01*
X006408Y007473D01*
X006408Y007313D01*
X005721Y007313D01*
X005728Y007259D01*
X005594Y007393D01*
X005568Y007404D01*
X005582Y007410D01*
X005736Y007563D01*
X005730Y007544D01*
X005721Y007473D01*
X006408Y007473D01*
X006408Y008160D01*
X006337Y008151D01*
X006240Y008125D01*
X006146Y008086D01*
X006059Y008035D01*
X005979Y007974D01*
X005907Y007902D01*
X005846Y007822D01*
X005830Y007794D01*
X005830Y008007D01*
X005743Y008216D01*
X005582Y008377D01*
X005373Y008463D01*
X005146Y008463D01*
X004937Y008377D01*
X004776Y008216D01*
X004690Y008007D01*
X004690Y007780D01*
X004776Y007570D01*
X004937Y007410D01*
X004951Y007404D01*
X004925Y007393D01*
X004759Y007228D01*
X004670Y007011D01*
X004670Y006776D01*
X004759Y006559D01*
X004925Y006393D01*
X005142Y006303D01*
X005377Y006303D01*
X005594Y006393D01*
X005715Y006514D02*
X010589Y006514D01*
X010570Y006643D02*
X011010Y006643D01*
X011010Y006643D01*
X011010Y007083D01*
X010975Y007083D01*
X010906Y007072D01*
X010841Y007051D01*
X010779Y007020D01*
X010723Y006979D01*
X010674Y006930D01*
X010633Y006874D01*
X010602Y006812D01*
X010580Y006746D01*
X010570Y006678D01*
X010570Y006643D01*
X010570Y006673D02*
X010305Y006673D01*
X010279Y006662D02*
X010373Y006701D01*
X010460Y006751D01*
X010540Y006813D01*
X010612Y006884D01*
X010673Y006964D01*
X010724Y007052D01*
X010762Y007145D01*
X010789Y007243D01*
X010798Y007313D01*
X010111Y007313D01*
X010111Y006627D01*
X010182Y006636D01*
X010279Y006662D01*
X010111Y006673D02*
X009951Y006673D01*
X009951Y006627D02*
X009951Y007313D01*
X010111Y007313D01*
X010111Y007473D01*
X010798Y007473D01*
X010789Y007544D01*
X010762Y007642D01*
X010724Y007735D01*
X010673Y007822D01*
X010612Y007902D01*
X010540Y007974D01*
X010460Y008035D01*
X010373Y008086D01*
X010279Y008125D01*
X010182Y008151D01*
X010111Y008160D01*
X010111Y007473D01*
X009951Y007473D01*
X009951Y007313D01*
X009264Y007313D01*
X009274Y007243D01*
X009300Y007145D01*
X009339Y007052D01*
X009389Y006964D01*
X009451Y006884D01*
X009522Y006813D01*
X009602Y006751D01*
X009690Y006701D01*
X009783Y006662D01*
X009881Y006636D01*
X009951Y006627D01*
X009757Y006673D02*
X006762Y006673D01*
X006568Y006673D02*
X006408Y006673D01*
X006408Y006831D02*
X006568Y006831D01*
X006568Y006990D02*
X006408Y006990D01*
X006408Y007148D02*
X006568Y007148D01*
X006568Y007307D02*
X006408Y007307D01*
X006408Y007465D02*
X005638Y007465D01*
X005680Y007307D02*
X005722Y007307D01*
X005850Y006831D02*
X005960Y006831D01*
X005807Y006673D02*
X006214Y006673D01*
X006568Y007465D02*
X009951Y007465D01*
X009951Y007473D02*
X009264Y007473D01*
X009274Y007544D01*
X009300Y007642D01*
X009339Y007735D01*
X009389Y007822D01*
X009451Y007902D01*
X009522Y007974D01*
X009602Y008035D01*
X009690Y008086D01*
X009783Y008125D01*
X009881Y008151D01*
X009951Y008160D01*
X009951Y007473D01*
X009951Y007624D02*
X010111Y007624D01*
X010111Y007782D02*
X009951Y007782D01*
X009951Y007941D02*
X010111Y007941D01*
X010111Y008099D02*
X009951Y008099D01*
X009722Y008099D02*
X006797Y008099D01*
X006568Y008099D02*
X006408Y008099D01*
X006408Y007941D02*
X006568Y007941D01*
X006568Y007782D02*
X006408Y007782D01*
X006408Y007624D02*
X006568Y007624D01*
X006179Y008099D02*
X005791Y008099D01*
X005830Y007941D02*
X005946Y007941D01*
X005701Y008258D02*
X011263Y008258D01*
X011279Y008270D02*
X011223Y008229D01*
X011174Y008180D01*
X011133Y008124D01*
X011102Y008062D01*
X011080Y007996D01*
X011070Y007928D01*
X011070Y007893D01*
X011070Y007859D01*
X011080Y007790D01*
X011102Y007724D01*
X011133Y007663D01*
X011174Y007607D01*
X011223Y007558D01*
X011279Y007517D01*
X011341Y007486D01*
X011406Y007464D01*
X011475Y007453D01*
X011510Y007453D01*
X011544Y007453D01*
X011613Y007464D01*
X011678Y007486D01*
X011740Y007517D01*
X011796Y007558D01*
X011845Y007607D01*
X011886Y007663D01*
X011917Y007724D01*
X011939Y007790D01*
X011950Y007859D01*
X011950Y007893D01*
X011510Y007893D01*
X011510Y007893D01*
X011510Y007453D01*
X011510Y007893D01*
X011510Y007893D01*
X011950Y007893D01*
X011950Y007928D01*
X011939Y007996D01*
X011917Y008062D01*
X011886Y008124D01*
X011845Y008180D01*
X011796Y008229D01*
X011740Y008270D01*
X011678Y008301D01*
X011613Y008322D01*
X011544Y008333D01*
X011510Y008333D01*
X011510Y007893D01*
X011510Y007893D01*
X011070Y007893D01*
X011510Y007893D01*
X011510Y007893D01*
X011510Y008333D01*
X011475Y008333D01*
X011406Y008322D01*
X011341Y008301D01*
X011279Y008270D01*
X011510Y008258D02*
X011510Y008258D01*
X011510Y008099D02*
X011510Y008099D01*
X011510Y007941D02*
X011510Y007941D01*
X011510Y007782D02*
X011510Y007782D01*
X011510Y007624D02*
X011510Y007624D01*
X011510Y007465D02*
X011510Y007465D01*
X011616Y007465D02*
X012341Y007465D01*
X012418Y007433D02*
X012601Y007433D01*
X012770Y007503D01*
X012899Y007633D01*
X012970Y007802D01*
X012970Y007985D01*
X012899Y008154D01*
X012770Y008283D01*
X012601Y008353D01*
X012418Y008353D01*
X012249Y008283D01*
X012120Y008154D01*
X012050Y007985D01*
X012050Y007802D01*
X012120Y007633D01*
X012249Y007503D01*
X012418Y007433D01*
X012128Y007624D02*
X011858Y007624D01*
X011936Y007782D02*
X012058Y007782D01*
X012050Y007941D02*
X011947Y007941D01*
X011898Y008099D02*
X012097Y008099D01*
X012223Y008258D02*
X011756Y008258D01*
X011403Y007465D02*
X010111Y007465D01*
X010111Y007307D02*
X009951Y007307D01*
X009951Y007148D02*
X010111Y007148D01*
X010111Y006990D02*
X009951Y006990D01*
X009951Y006831D02*
X010111Y006831D01*
X010559Y006831D02*
X010611Y006831D01*
X010688Y006990D02*
X010738Y006990D01*
X010763Y007148D02*
X015791Y007148D01*
X015794Y007170D02*
X015783Y007096D01*
X015783Y007077D01*
X016241Y007077D01*
X016241Y007040D01*
X015783Y007040D01*
X015783Y007021D01*
X015794Y006947D01*
X015818Y006876D01*
X015852Y006809D01*
X015896Y006748D01*
X015949Y006695D01*
X016003Y006656D01*
X015978Y006645D01*
X015838Y006505D01*
X015763Y006323D01*
X015763Y006125D01*
X015838Y005943D01*
X015978Y005803D01*
X016161Y005727D01*
X016358Y005727D01*
X016541Y005803D01*
X016681Y005943D01*
X016756Y006125D01*
X016756Y006323D01*
X016681Y006505D01*
X016541Y006645D01*
X016516Y006656D01*
X016570Y006695D01*
X016623Y006748D01*
X016667Y006809D01*
X016701Y006876D01*
X016725Y006947D01*
X016736Y007021D01*
X016736Y007040D01*
X016278Y007040D01*
X016278Y007077D01*
X016736Y007077D01*
X016736Y007096D01*
X016725Y007170D01*
X016701Y007242D01*
X016667Y007309D01*
X016623Y007369D01*
X016570Y007422D01*
X016509Y007466D01*
X016449Y007497D01*
X016541Y007535D01*
X016681Y007675D01*
X016756Y007857D01*
X016756Y008055D01*
X016681Y008238D01*
X016541Y008378D01*
X016358Y008453D01*
X016161Y008453D01*
X016147Y008448D01*
X015819Y008788D01*
X015819Y008791D01*
X015784Y008825D01*
X015750Y008861D01*
X015747Y008862D01*
X015745Y008864D01*
X015700Y008883D01*
X015655Y008902D01*
X015652Y008902D01*
X015650Y008903D01*
X015601Y008903D01*
X015551Y008904D01*
X015549Y008903D01*
X008784Y008903D01*
X008724Y008964D01*
X008585Y009021D01*
X008434Y009021D01*
X008295Y008964D01*
X008189Y008857D01*
X008131Y008719D01*
X008131Y008568D01*
X008189Y008429D01*
X008295Y008323D01*
X008434Y008265D01*
X008585Y008265D01*
X008724Y008323D01*
X008784Y008383D01*
X015487Y008383D01*
X015775Y008085D01*
X015763Y008055D01*
X015763Y007857D01*
X015838Y007675D01*
X015978Y007535D01*
X016070Y007497D01*
X016010Y007466D01*
X015949Y007422D01*
X015896Y007369D01*
X015852Y007309D01*
X015818Y007242D01*
X015794Y007170D01*
X015851Y007307D02*
X010797Y007307D01*
X010767Y007624D02*
X011161Y007624D01*
X011083Y007782D02*
X010696Y007782D01*
X010573Y007941D02*
X011072Y007941D01*
X011121Y008099D02*
X010340Y008099D01*
X010779Y009017D02*
X010841Y008986D01*
X010906Y008964D01*
X010975Y008953D01*
X011010Y008953D01*
X011044Y008953D01*
X011113Y008964D01*
X011178Y008986D01*
X011240Y009017D01*
X011296Y009058D01*
X011345Y009107D01*
X011386Y009163D01*
X011417Y009224D01*
X011439Y009290D01*
X011450Y009359D01*
X011450Y009393D01*
X011010Y009393D01*
X011010Y009393D01*
X011010Y008953D01*
X011010Y009393D01*
X011010Y009393D01*
X011450Y009393D01*
X011450Y009428D01*
X011439Y009496D01*
X011417Y009562D01*
X011386Y009624D01*
X011345Y009680D01*
X011296Y009729D01*
X011240Y009770D01*
X011178Y009801D01*
X011113Y009822D01*
X011044Y009833D01*
X011010Y009833D01*
X011010Y009393D01*
X011010Y009393D01*
X010570Y009393D01*
X010570Y009359D01*
X010580Y009290D01*
X010602Y009224D01*
X010633Y009163D01*
X010674Y009107D01*
X010723Y009058D01*
X010779Y009017D01*
X010733Y009050D02*
X003578Y009050D01*
X003578Y008892D02*
X008223Y008892D01*
X008138Y008733D02*
X003578Y008733D01*
X003578Y008575D02*
X008131Y008575D01*
X008202Y008416D02*
X005486Y008416D01*
X005373Y009323D02*
X005146Y009323D01*
X004937Y009410D01*
X004776Y009570D01*
X004690Y009780D01*
X004690Y010007D01*
X004776Y010216D01*
X004937Y010377D01*
X005146Y010463D01*
X005373Y010463D01*
X005582Y010377D01*
X005743Y010216D01*
X005830Y010007D01*
X005830Y009780D01*
X005743Y009570D01*
X005582Y009410D01*
X005373Y009323D01*
X005479Y009367D02*
X010570Y009367D01*
X010570Y009393D02*
X011010Y009393D01*
X011010Y009393D01*
X011010Y009833D01*
X010975Y009833D01*
X010906Y009822D01*
X010841Y009801D01*
X010779Y009770D01*
X010723Y009729D01*
X010674Y009680D01*
X010633Y009624D01*
X010602Y009562D01*
X010580Y009496D01*
X010570Y009428D01*
X010570Y009393D01*
X010590Y009526D02*
X005698Y009526D01*
X005790Y009684D02*
X010678Y009684D01*
X010754Y010001D02*
X009515Y010001D01*
X009520Y010003D02*
X009649Y010133D01*
X009650Y010133D01*
X010619Y010133D01*
X010620Y010133D01*
X010749Y010003D01*
X010918Y009933D01*
X011101Y009933D01*
X011270Y010003D01*
X011399Y010133D01*
X011470Y010302D01*
X011470Y010485D01*
X011399Y010654D01*
X011270Y010783D01*
X011101Y010853D01*
X010918Y010853D01*
X010749Y010783D01*
X010620Y010654D01*
X010619Y010653D01*
X009650Y010653D01*
X009649Y010654D01*
X009520Y010783D01*
X009351Y010853D01*
X009168Y010853D01*
X008999Y010783D01*
X008870Y010654D01*
X008800Y010485D01*
X008800Y010302D01*
X008870Y010133D01*
X008999Y010003D01*
X009168Y009933D01*
X009351Y009933D01*
X009520Y010003D01*
X009004Y010001D02*
X006515Y010001D01*
X006520Y010003D02*
X006649Y010133D01*
X006720Y010302D01*
X006720Y010485D01*
X006649Y010654D01*
X006520Y010783D01*
X006351Y010853D01*
X006168Y010853D01*
X005999Y010783D01*
X005870Y010654D01*
X005800Y010485D01*
X005800Y010302D01*
X005870Y010133D01*
X005999Y010003D01*
X006168Y009933D01*
X006351Y009933D01*
X006520Y010003D01*
X006661Y010160D02*
X008858Y010160D01*
X008800Y010318D02*
X006720Y010318D01*
X006720Y010477D02*
X008800Y010477D01*
X008862Y010635D02*
X006657Y010635D01*
X006495Y010794D02*
X009024Y010794D01*
X009495Y010794D02*
X010774Y010794D01*
X011245Y010794D02*
X013774Y010794D01*
X013749Y010783D02*
X013620Y010654D01*
X013550Y010485D01*
X013550Y010302D01*
X013620Y010133D01*
X013749Y010003D01*
X013918Y009933D01*
X014101Y009933D01*
X014270Y010003D01*
X014399Y010133D01*
X014470Y010302D01*
X014470Y010485D01*
X014469Y010485D01*
X014492Y010508D01*
X015812Y010508D01*
X015623Y010319D01*
X015508Y010043D01*
X015508Y009744D01*
X015623Y009468D01*
X015834Y009256D01*
X016110Y009142D01*
X016409Y009142D01*
X016685Y009256D01*
X016896Y009468D01*
X017011Y009744D01*
X017011Y010043D01*
X016896Y010319D01*
X016707Y010508D01*
X016936Y010508D01*
X017032Y010548D01*
X017249Y010765D01*
X017335Y010765D01*
X017474Y010823D01*
X017580Y010929D01*
X017638Y011068D01*
X017638Y011219D01*
X017580Y011357D01*
X017474Y011464D01*
X017335Y011521D01*
X017184Y011521D01*
X017045Y011464D01*
X016939Y011357D01*
X016881Y011219D01*
X016881Y011133D01*
X016777Y011028D01*
X016695Y011028D01*
X016701Y011041D01*
X016725Y011112D01*
X016736Y011186D01*
X016736Y011206D01*
X016278Y011206D01*
X016278Y011242D01*
X016736Y011242D01*
X016736Y011262D01*
X016725Y011336D01*
X016701Y011407D01*
X016667Y011474D01*
X016623Y011535D01*
X016570Y011588D01*
X016509Y011632D01*
X016491Y011641D01*
X016509Y011651D01*
X016570Y011695D01*
X016623Y011748D01*
X016667Y011809D01*
X016701Y011876D01*
X016725Y011947D01*
X016736Y012021D01*
X016736Y012040D01*
X016278Y012040D01*
X016278Y011582D01*
X016278Y011242D01*
X016241Y011242D01*
X016241Y011206D01*
X015783Y011206D01*
X015783Y011186D01*
X015794Y011112D01*
X015818Y011041D01*
X015824Y011028D01*
X014333Y011028D01*
X014237Y010989D01*
X014164Y010916D01*
X014102Y010853D01*
X014101Y010853D01*
X013918Y010853D01*
X013749Y010783D01*
X013612Y010635D02*
X011407Y010635D01*
X011470Y010477D02*
X013550Y010477D01*
X013550Y010318D02*
X011470Y010318D01*
X011411Y010160D02*
X013608Y010160D01*
X013754Y010001D02*
X011265Y010001D01*
X011341Y009684D02*
X013650Y009684D01*
X013620Y009654D02*
X013749Y009783D01*
X013918Y009853D01*
X014101Y009853D01*
X014270Y009783D01*
X014399Y009654D01*
X014470Y009485D01*
X014470Y009302D01*
X014399Y009133D01*
X014270Y009003D01*
X014101Y008933D01*
X013918Y008933D01*
X013749Y009003D01*
X013620Y009133D01*
X013550Y009302D01*
X013550Y009485D01*
X013620Y009654D01*
X013567Y009526D02*
X011429Y009526D01*
X011450Y009367D02*
X013550Y009367D01*
X013588Y009209D02*
X011409Y009209D01*
X011286Y009050D02*
X013702Y009050D01*
X013601Y008353D02*
X013418Y008353D01*
X013249Y008283D01*
X013120Y008154D01*
X013050Y007985D01*
X013050Y007802D01*
X013120Y007633D01*
X013249Y007503D01*
X013418Y007433D01*
X013601Y007433D01*
X013770Y007503D01*
X013899Y007633D01*
X013970Y007802D01*
X013970Y007985D01*
X013899Y008154D01*
X013770Y008283D01*
X013601Y008353D01*
X013796Y008258D02*
X015608Y008258D01*
X015761Y008099D02*
X013922Y008099D01*
X013970Y007941D02*
X015763Y007941D01*
X015794Y007782D02*
X013961Y007782D01*
X013891Y007624D02*
X015889Y007624D01*
X016008Y007465D02*
X013678Y007465D01*
X013918Y007103D02*
X013749Y007033D01*
X013620Y006904D01*
X013550Y006735D01*
X013550Y006552D01*
X013620Y006383D01*
X013655Y006348D01*
X013499Y006283D01*
X013370Y006154D01*
X013300Y005985D01*
X013300Y005802D01*
X013370Y005633D01*
X013499Y005503D01*
X013668Y005433D01*
X013851Y005433D01*
X014020Y005503D01*
X014149Y005633D01*
X014220Y005802D01*
X014220Y005985D01*
X014149Y006154D01*
X014114Y006189D01*
X014270Y006253D01*
X014399Y006383D01*
X014470Y006552D01*
X014470Y006735D01*
X014399Y006904D01*
X014270Y007033D01*
X014101Y007103D01*
X013918Y007103D01*
X013705Y006990D02*
X011281Y006990D01*
X011408Y006831D02*
X013589Y006831D01*
X013550Y006673D02*
X011450Y006673D01*
X011430Y006514D02*
X013565Y006514D01*
X013646Y006356D02*
X011344Y006356D01*
X011175Y006039D02*
X013322Y006039D01*
X013300Y005880D02*
X011200Y005880D01*
X011166Y005722D02*
X011937Y005722D01*
X011832Y005563D02*
X011052Y005563D01*
X010760Y005563D02*
X010760Y005563D01*
X010760Y005722D02*
X010760Y005722D01*
X010760Y005880D02*
X010760Y005880D01*
X011078Y006197D02*
X013413Y006197D01*
X013333Y005722D02*
X012582Y005722D01*
X012687Y005563D02*
X013439Y005563D01*
X014080Y005563D02*
X015914Y005563D01*
X015834Y005530D02*
X015623Y005319D01*
X015508Y005043D01*
X015508Y004744D01*
X015623Y004468D01*
X015834Y004256D01*
X016110Y004142D01*
X016409Y004142D01*
X016685Y004256D01*
X016896Y004468D01*
X017011Y004744D01*
X017011Y005043D01*
X016896Y005319D01*
X016685Y005530D01*
X016409Y005644D01*
X016110Y005644D01*
X015834Y005530D01*
X015709Y005405D02*
X012720Y005405D01*
X012697Y005246D02*
X015593Y005246D01*
X015527Y005088D02*
X012605Y005088D01*
X012685Y004771D02*
X015508Y004771D01*
X015508Y004929D02*
X009575Y004929D01*
X008912Y004929D02*
X008591Y004929D01*
X008749Y004771D02*
X008754Y004771D01*
X008886Y003978D02*
X008618Y003978D01*
X007902Y003978D02*
X007592Y003978D01*
X007747Y004137D02*
X007758Y004137D01*
X007294Y004137D02*
X007257Y004137D01*
X007257Y004295D02*
X007294Y004295D01*
X007257Y004422D02*
X007257Y003881D01*
X007231Y003881D01*
X007144Y003894D01*
X007060Y003922D01*
X006982Y003962D01*
X006910Y004013D01*
X006848Y004076D01*
X006796Y004147D01*
X006756Y004226D01*
X006729Y004309D01*
X006715Y004396D01*
X006715Y004422D01*
X007257Y004422D01*
X007257Y004454D02*
X003578Y004454D01*
X003578Y004612D02*
X006742Y004612D01*
X006823Y004771D02*
X003578Y004771D01*
X003578Y004929D02*
X007001Y004929D01*
X007257Y004929D02*
X007294Y004929D01*
X007294Y004771D02*
X007257Y004771D01*
X007257Y004612D02*
X007294Y004612D01*
X007550Y004929D02*
X007928Y004929D01*
X007770Y004771D02*
X007728Y004771D01*
X007294Y003978D02*
X007257Y003978D01*
X006959Y003978D02*
X003578Y003978D01*
X003578Y003820D02*
X018685Y003820D01*
X018685Y003978D02*
X012647Y003978D01*
X012720Y004137D02*
X018685Y004137D01*
X018685Y004295D02*
X016724Y004295D01*
X016882Y004454D02*
X018685Y004454D01*
X018685Y004612D02*
X016956Y004612D01*
X017011Y004771D02*
X018685Y004771D01*
X018685Y004929D02*
X017011Y004929D01*
X016992Y005088D02*
X018685Y005088D01*
X018685Y005246D02*
X016926Y005246D01*
X016810Y005405D02*
X018685Y005405D01*
X018685Y005563D02*
X016605Y005563D01*
X016618Y005880D02*
X018685Y005880D01*
X018685Y005722D02*
X014186Y005722D01*
X014220Y005880D02*
X015901Y005880D01*
X015798Y006039D02*
X014197Y006039D01*
X014135Y006197D02*
X015763Y006197D01*
X015776Y006356D02*
X014373Y006356D01*
X014454Y006514D02*
X015847Y006514D01*
X015979Y006673D02*
X014470Y006673D01*
X014430Y006831D02*
X015840Y006831D01*
X015788Y006990D02*
X014314Y006990D01*
X013341Y007465D02*
X012678Y007465D01*
X012891Y007624D02*
X013128Y007624D01*
X013058Y007782D02*
X012961Y007782D01*
X012970Y007941D02*
X013050Y007941D01*
X013097Y008099D02*
X012922Y008099D01*
X012796Y008258D02*
X013223Y008258D01*
X013893Y009843D02*
X005830Y009843D01*
X005830Y010001D02*
X006004Y010001D01*
X005858Y010160D02*
X005766Y010160D01*
X005800Y010318D02*
X005641Y010318D01*
X005800Y010477D02*
X003578Y010477D01*
X003687Y010377D02*
X003578Y010268D01*
X003578Y010769D01*
X003687Y010660D01*
X003896Y010573D01*
X004123Y010573D01*
X004332Y010660D01*
X004493Y010820D01*
X004510Y010861D01*
X004526Y010820D01*
X004687Y010660D01*
X004896Y010573D01*
X005123Y010573D01*
X005332Y010660D01*
X005493Y010820D01*
X005580Y011030D01*
X005580Y011257D01*
X005493Y011466D01*
X005332Y011627D01*
X005263Y011655D01*
X005298Y011673D01*
X005368Y011724D01*
X005429Y011785D01*
X005480Y011855D01*
X005519Y011932D01*
X005546Y012015D01*
X005560Y012100D01*
X005560Y012123D01*
X005030Y012123D01*
X005030Y012163D01*
X005560Y012163D01*
X005560Y012187D01*
X005546Y012272D01*
X005519Y012354D01*
X005480Y012432D01*
X005429Y012502D01*
X005368Y012563D01*
X005298Y012614D01*
X005240Y012643D01*
X005298Y012673D01*
X005368Y012724D01*
X005429Y012785D01*
X005480Y012855D01*
X005519Y012932D01*
X005546Y013015D01*
X005560Y013100D01*
X005560Y013123D01*
X005030Y013123D01*
X005030Y013163D01*
X005560Y013163D01*
X005560Y013187D01*
X005546Y013272D01*
X005519Y013354D01*
X005480Y013432D01*
X005429Y013502D01*
X005368Y013563D01*
X005298Y013614D01*
X005240Y013643D01*
X005298Y013673D01*
X005368Y013724D01*
X005429Y013785D01*
X005480Y013855D01*
X005519Y013932D01*
X005546Y014015D01*
X005560Y014100D01*
X005560Y014123D01*
X005030Y014123D01*
X005030Y014163D01*
X005560Y014163D01*
X005560Y014187D01*
X005546Y014272D01*
X005519Y014354D01*
X005480Y014432D01*
X005429Y014502D01*
X005368Y014563D01*
X005298Y014614D01*
X005263Y014631D01*
X005332Y014660D01*
X005493Y014820D01*
X005580Y015030D01*
X005580Y015257D01*
X005493Y015466D01*
X005332Y015627D01*
X005292Y015643D01*
X005332Y015660D01*
X005493Y015820D01*
X005580Y016030D01*
X005580Y016257D01*
X005493Y016466D01*
X005332Y016627D01*
X005292Y016643D01*
X005332Y016660D01*
X005493Y016820D01*
X005580Y017030D01*
X005580Y017257D01*
X005493Y017466D01*
X005332Y017627D01*
X005292Y017643D01*
X005332Y017660D01*
X005493Y017820D01*
X005580Y018030D01*
X005580Y018257D01*
X005493Y018466D01*
X005332Y018627D01*
X005123Y018713D01*
X004896Y018713D01*
X004687Y018627D01*
X004526Y018466D01*
X004510Y018426D01*
X004493Y018466D01*
X004332Y018627D01*
X004123Y018713D01*
X003896Y018713D01*
X003687Y018627D01*
X003578Y018518D01*
X003578Y019019D01*
X003687Y018910D01*
X003896Y018823D01*
X004123Y018823D01*
X004332Y018910D01*
X004493Y019070D01*
X004580Y019280D01*
X004580Y019507D01*
X004493Y019716D01*
X004332Y019877D01*
X004123Y019963D01*
X003896Y019963D01*
X003687Y019877D01*
X003578Y019768D01*
X003578Y021019D01*
X003687Y020910D01*
X003863Y020837D01*
X006238Y018462D01*
X006328Y018372D01*
X006446Y018323D01*
X009627Y018323D01*
X010550Y017401D01*
X010550Y017302D01*
X010620Y017133D01*
X010749Y017003D01*
X010918Y016933D01*
X011101Y016933D01*
X011270Y017003D01*
X011399Y017133D01*
X011470Y017302D01*
X011470Y017485D01*
X011399Y017654D01*
X011270Y017783D01*
X011101Y017853D01*
X011002Y017853D01*
X010884Y017971D01*
X010906Y017964D01*
X010975Y017953D01*
X011010Y017953D01*
X011044Y017953D01*
X011113Y017964D01*
X011178Y017986D01*
X011240Y018017D01*
X011296Y018058D01*
X011345Y018107D01*
X011386Y018163D01*
X011417Y018224D01*
X011439Y018290D01*
X011450Y018359D01*
X011450Y018393D01*
X011010Y018393D01*
X011010Y018393D01*
X011010Y017953D01*
X011010Y018393D01*
X011010Y018393D01*
X011450Y018393D01*
X011450Y018428D01*
X011439Y018496D01*
X011417Y018562D01*
X011386Y018624D01*
X011345Y018680D01*
X011296Y018729D01*
X011240Y018770D01*
X011178Y018801D01*
X011113Y018822D01*
X011044Y018833D01*
X011010Y018833D01*
X011010Y018393D01*
X011010Y018393D01*
X010570Y018393D01*
X010570Y018359D01*
X010580Y018290D01*
X010588Y018268D01*
X009941Y018915D01*
X009823Y018963D01*
X009587Y018963D01*
X009735Y019112D01*
X009824Y019325D01*
X009824Y019556D01*
X009735Y019769D01*
X009621Y019883D01*
X010235Y019883D01*
X010295Y019823D01*
X010434Y019765D01*
X010585Y019765D01*
X010724Y019823D01*
X010830Y019929D01*
X010888Y020068D01*
X010888Y020219D01*
X010830Y020357D01*
X010724Y020464D01*
X010585Y020521D01*
X010434Y020521D01*
X010295Y020464D01*
X010235Y020403D01*
X009034Y020403D01*
X008974Y020464D01*
X008835Y020521D01*
X008684Y020521D01*
X008545Y020464D01*
X008439Y020357D01*
X008381Y020219D01*
X008381Y020068D01*
X008407Y020007D01*
X008375Y020021D01*
X008144Y020021D01*
X007931Y019932D01*
X007768Y019769D01*
X007754Y019735D01*
X007702Y019805D01*
X007640Y019868D01*
X007569Y019920D01*
X007490Y019960D01*
X007406Y019987D01*
X008063Y019987D01*
X007827Y019828D02*
X007679Y019828D01*
X007406Y019987D02*
X007319Y020001D01*
X007294Y020001D01*
X007294Y019459D01*
X007257Y019459D01*
X007257Y020001D01*
X007231Y020001D01*
X007144Y019987D01*
X007060Y019960D01*
X006982Y019920D01*
X006910Y019868D01*
X006848Y019805D01*
X006796Y019734D01*
X006756Y019656D01*
X006729Y019572D01*
X006715Y019485D01*
X006715Y019459D01*
X007257Y019459D01*
X007257Y019422D01*
X006715Y019422D01*
X006715Y019396D01*
X006729Y019309D01*
X006756Y019226D01*
X006796Y019147D01*
X006848Y019076D01*
X006910Y019013D01*
X006979Y018963D01*
X006642Y018963D01*
X004505Y021100D01*
X004580Y021280D01*
X004580Y021507D01*
X004493Y021716D01*
X004332Y021877D01*
X004123Y021963D01*
X003896Y021963D01*
X003687Y021877D01*
X003578Y021768D01*
X003578Y022241D01*
X003675Y022143D01*
X003892Y022053D01*
X004127Y022053D01*
X004344Y022143D01*
X004510Y022309D01*
X004600Y022526D01*
X004600Y022761D01*
X004510Y022978D01*
X004344Y023143D01*
X004127Y023233D01*
X003892Y023233D01*
X003675Y023143D01*
X003578Y023046D01*
X003578Y026269D01*
X003638Y026209D01*
X003711Y026156D01*
X003791Y026115D01*
X003876Y026087D01*
X003965Y026073D01*
X003991Y026073D01*
X003991Y026625D01*
X004028Y026625D01*
X004028Y026662D01*
X004580Y026662D01*
X004580Y026688D01*
X004565Y026777D01*
X004538Y026862D01*
X004497Y026942D01*
X004444Y027015D01*
X004381Y027078D01*
X004308Y027131D01*
X004228Y027172D01*
X004143Y027199D01*
X004141Y027200D01*
X004270Y027253D01*
X004399Y027383D01*
X004400Y027383D01*
X005119Y027383D01*
X005120Y027383D01*
X005249Y027253D01*
X005418Y027183D01*
X005601Y027183D01*
X005770Y027253D01*
X005899Y027383D01*
X005970Y027552D01*
X005970Y027735D01*
X005899Y027904D01*
X005770Y028033D01*
X005601Y028103D01*
X005418Y028103D01*
X005249Y028033D01*
X005120Y027904D01*
X005119Y027903D01*
X004400Y027903D01*
X004399Y027904D01*
X004270Y028033D01*
X004101Y028103D01*
X003918Y028103D01*
X003749Y028033D01*
X003620Y027904D01*
X003578Y027803D01*
X003578Y030484D01*
X003620Y030383D01*
X003749Y030253D01*
X003918Y030183D01*
X004101Y030183D01*
X004270Y030253D01*
X004399Y030383D01*
X004470Y030552D01*
X004470Y030735D01*
X004399Y030904D01*
X004270Y031033D01*
X004101Y031103D01*
X003918Y031103D01*
X003749Y031033D01*
X003620Y030904D01*
X003578Y030803D01*
X003578Y041563D01*
X011072Y041563D01*
X010999Y041533D01*
X010870Y041404D01*
X010800Y041235D01*
X010800Y041052D01*
X010870Y040883D01*
X010999Y040753D01*
X011168Y040683D01*
X011351Y040683D01*
X011520Y040753D01*
X011649Y040883D01*
X011720Y041052D01*
X011720Y041235D01*
X011649Y041404D01*
X011520Y041533D01*
X011447Y041563D01*
X014072Y041563D01*
X013999Y041533D01*
X013870Y041404D01*
X013800Y041235D01*
X013800Y041052D01*
X013870Y040883D01*
X013999Y040753D01*
X014168Y040683D01*
X014351Y040683D01*
X014520Y040753D01*
X014649Y040883D01*
X014720Y041052D01*
X014720Y041235D01*
X014649Y041404D01*
X014520Y041533D01*
X014447Y041563D01*
X018685Y041563D01*
X018685Y032744D01*
X018679Y032752D01*
X018618Y032813D01*
X018548Y032864D01*
X018471Y032903D01*
X018388Y032930D01*
X018303Y032943D01*
X018280Y032943D01*
X018280Y032413D01*
X018240Y032413D01*
X018240Y032943D01*
X018216Y032943D01*
X018131Y032930D01*
X018048Y032903D01*
X017971Y032864D01*
X017901Y032813D01*
X017840Y032752D01*
X017789Y032682D01*
X017750Y032604D01*
X017723Y032522D01*
X017710Y032437D01*
X017710Y032413D01*
X018240Y032413D01*
X018240Y032373D01*
X017710Y032373D01*
X017710Y032350D01*
X017671Y032350D01*
X017710Y032350D02*
X017717Y032304D01*
X017230Y032791D01*
X017157Y032864D01*
X017061Y032903D01*
X015708Y032903D01*
X015643Y032877D01*
X015649Y032883D01*
X015720Y033052D01*
X015720Y033235D01*
X015649Y033404D01*
X015520Y033533D01*
X015351Y033603D01*
X015168Y033603D01*
X014999Y033533D01*
X014929Y033463D01*
X014590Y033463D01*
X014520Y033533D01*
X014351Y033603D01*
X014168Y033603D01*
X013999Y033533D01*
X013870Y033404D01*
X013800Y033235D01*
X013800Y033052D01*
X013870Y032883D01*
X013999Y032753D01*
X014168Y032683D01*
X014351Y032683D01*
X014520Y032753D01*
X014590Y032823D01*
X014929Y032823D01*
X014999Y032753D01*
X015168Y032683D01*
X015351Y032683D01*
X015489Y032740D01*
X015402Y032653D01*
X014458Y032653D01*
X014362Y032614D01*
X014352Y032603D01*
X014351Y032603D01*
X014168Y032603D01*
X013999Y032533D01*
X013870Y032404D01*
X013800Y032235D01*
X013800Y032052D01*
X013861Y031903D01*
X013034Y031903D01*
X012974Y031964D01*
X012835Y032021D01*
X012684Y032021D01*
X012545Y031964D01*
X012439Y031857D01*
X012381Y031719D01*
X012381Y031568D01*
X012414Y031488D01*
X012335Y031521D01*
X012184Y031521D01*
X012045Y031464D01*
X011939Y031357D01*
X011881Y031219D01*
X011881Y031068D01*
X011939Y030929D01*
X012045Y030823D01*
X012184Y030765D01*
X012335Y030765D01*
X012474Y030823D01*
X012534Y030883D01*
X013869Y030883D01*
X013870Y030883D01*
X013999Y030753D01*
X014168Y030683D01*
X014351Y030683D01*
X014520Y030753D01*
X014649Y030883D01*
X014650Y030883D01*
X015402Y030883D01*
X015612Y030673D01*
X015708Y030633D01*
X015921Y030633D01*
X015899Y030624D01*
X015807Y030571D01*
X015722Y030506D01*
X015647Y030431D01*
X015582Y030346D01*
X015529Y030254D01*
X015488Y030155D01*
X015460Y030052D01*
X015450Y029973D01*
X016180Y029973D01*
X016180Y029813D01*
X015450Y029813D01*
X015460Y029734D01*
X015465Y029718D01*
X015335Y029771D01*
X015249Y029771D01*
X015230Y029791D01*
X015157Y029864D01*
X015061Y029903D01*
X014867Y029903D01*
X014719Y030051D01*
X014720Y030052D01*
X014720Y030235D01*
X014649Y030404D01*
X014520Y030533D01*
X014351Y030603D01*
X014168Y030603D01*
X013999Y030533D01*
X013870Y030404D01*
X013800Y030235D01*
X013800Y030052D01*
X013870Y029883D01*
X013999Y029753D01*
X014168Y029683D01*
X014351Y029683D01*
X014352Y029684D01*
X014489Y029546D01*
X014351Y029603D01*
X014168Y029603D01*
X013999Y029533D01*
X013870Y029404D01*
X013800Y029235D01*
X013800Y029052D01*
X013861Y028903D01*
X011658Y028903D01*
X011720Y029052D01*
X011720Y029235D01*
X011649Y029404D01*
X011520Y029533D01*
X011351Y029603D01*
X011168Y029603D01*
X010999Y029533D01*
X010870Y029404D01*
X010800Y029235D01*
X010800Y029052D01*
X010861Y028903D01*
X010284Y028903D01*
X010224Y028964D01*
X010085Y029021D01*
X010812Y029021D01*
X010800Y029180D02*
X010322Y029180D01*
X010279Y029162D02*
X010373Y029201D01*
X010460Y029251D01*
X010540Y029313D01*
X010612Y029384D01*
X010673Y029464D01*
X010724Y029552D01*
X010762Y029645D01*
X010789Y029743D01*
X010798Y029813D01*
X010111Y029813D01*
X010111Y029127D01*
X010182Y029136D01*
X010279Y029162D01*
X010111Y029180D02*
X009951Y029180D01*
X009951Y029127D02*
X009951Y029813D01*
X010111Y029813D01*
X010111Y029973D01*
X010798Y029973D01*
X010789Y030044D01*
X010762Y030142D01*
X010724Y030235D01*
X010673Y030322D01*
X010612Y030402D01*
X010540Y030474D01*
X010460Y030535D01*
X010373Y030586D01*
X010279Y030625D01*
X010182Y030651D01*
X010111Y030660D01*
X010111Y029973D01*
X009951Y029973D01*
X009951Y029813D01*
X009264Y029813D01*
X009274Y029743D01*
X009300Y029645D01*
X009339Y029552D01*
X009389Y029464D01*
X009451Y029384D01*
X009522Y029313D01*
X009602Y029251D01*
X009690Y029201D01*
X009783Y029162D01*
X009881Y029136D01*
X009951Y029127D01*
X009934Y029021D02*
X009795Y028964D01*
X009689Y028857D01*
X009631Y028719D01*
X009631Y028568D01*
X009689Y028429D01*
X009795Y028323D01*
X009934Y028265D01*
X010085Y028265D01*
X010224Y028323D01*
X010284Y028383D01*
X010861Y028383D01*
X010800Y028235D01*
X010800Y028052D01*
X010870Y027883D01*
X010999Y027753D01*
X011168Y027683D01*
X011351Y027683D01*
X011520Y027753D01*
X011649Y027883D01*
X011650Y027883D01*
X012485Y027883D01*
X012545Y027823D01*
X012684Y027765D01*
X012835Y027765D01*
X012974Y027823D01*
X013080Y027929D01*
X013138Y028068D01*
X013138Y028219D01*
X013080Y028357D01*
X013054Y028383D01*
X013861Y028383D01*
X013800Y028235D01*
X013800Y028052D01*
X013870Y027883D01*
X013999Y027753D01*
X014168Y027683D01*
X014351Y027683D01*
X014520Y027753D01*
X014649Y027883D01*
X014720Y028052D01*
X014720Y028235D01*
X014658Y028383D01*
X014811Y028383D01*
X014907Y028423D01*
X014980Y028496D01*
X015117Y028633D01*
X015671Y028633D01*
X015553Y028515D01*
X015426Y028209D01*
X015426Y027878D01*
X015553Y027571D01*
X015788Y027337D01*
X015986Y027255D01*
X015978Y027252D01*
X015838Y027112D01*
X015763Y026929D01*
X015763Y026731D01*
X015838Y026549D01*
X015978Y026409D01*
X016161Y026333D01*
X016358Y026333D01*
X016541Y026409D01*
X016681Y026549D01*
X016756Y026731D01*
X016756Y026929D01*
X016681Y027112D01*
X016541Y027252D01*
X016533Y027255D01*
X016731Y027337D01*
X016966Y027571D01*
X017093Y027878D01*
X017093Y028209D01*
X016966Y028515D01*
X016848Y028633D01*
X017152Y028633D01*
X017612Y028173D01*
X017708Y028133D01*
X017750Y028133D01*
X017776Y028070D01*
X017093Y028070D01*
X017093Y027912D02*
X017935Y027912D01*
X017937Y027910D02*
X017977Y027893D01*
X017937Y027877D01*
X017776Y027716D01*
X017690Y027507D01*
X017690Y027280D01*
X017776Y027070D01*
X017937Y026910D01*
X018146Y026823D01*
X018373Y026823D01*
X018582Y026910D01*
X018685Y027012D01*
X018685Y002593D01*
X016599Y002593D01*
X016681Y002675D01*
X016756Y002857D01*
X016756Y003055D01*
X016681Y003238D01*
X016541Y003378D01*
X016358Y003453D01*
X016161Y003453D01*
X015978Y003378D01*
X015838Y003238D01*
X015763Y003055D01*
X015763Y002857D01*
X015838Y002675D01*
X015920Y002593D01*
X014110Y002593D01*
X014149Y002633D01*
X014220Y002802D01*
X014220Y002985D01*
X014149Y003154D01*
X014020Y003283D01*
X013851Y003353D01*
X013668Y003353D01*
X013499Y003283D01*
X013370Y003154D01*
X013300Y002985D01*
X013300Y002802D01*
X013370Y002633D01*
X013409Y002593D01*
X011110Y002593D01*
X011149Y002633D01*
X011220Y002802D01*
X011220Y002985D01*
X011149Y003154D01*
X011020Y003283D01*
X010851Y003353D01*
X010668Y003353D01*
X010499Y003283D01*
X010370Y003154D01*
X010300Y002985D01*
X010300Y002802D01*
X010370Y002633D01*
X010409Y002593D01*
X005746Y002593D01*
X005747Y002595D01*
X005788Y002675D01*
X005815Y002760D01*
X005830Y002848D01*
X005830Y002875D01*
X005278Y002875D01*
X005278Y002912D01*
X005241Y002912D01*
X005241Y003463D01*
X005215Y003463D01*
X005126Y003449D01*
X005041Y003422D01*
X004961Y003381D01*
X004888Y003328D01*
X004825Y003265D01*
X004772Y003192D01*
X004731Y003112D01*
X004704Y003027D01*
X004565Y003027D01*
X004538Y003112D01*
X004497Y003192D01*
X004444Y003265D01*
X004381Y003328D01*
X004308Y003381D01*
X004228Y003422D01*
X004143Y003449D01*
X004054Y003463D01*
X004028Y003463D01*
X004028Y002912D01*
X003991Y002912D01*
X003991Y003463D01*
X003965Y003463D01*
X003876Y003449D01*
X003791Y003422D01*
X003711Y003381D01*
X003638Y003328D01*
X003578Y003268D01*
X003578Y006491D01*
X003675Y006393D01*
X003892Y006303D01*
X004127Y006303D01*
X004344Y006393D01*
X004510Y006559D01*
X004600Y006776D01*
X004600Y007011D01*
X004510Y007228D01*
X004344Y007393D01*
X004318Y007404D01*
X004332Y007410D01*
X004493Y007570D01*
X004580Y007780D01*
X004580Y008007D01*
X004493Y008216D01*
X004332Y008377D01*
X004123Y008463D01*
X003896Y008463D01*
X003687Y008377D01*
X003578Y008268D01*
X003578Y009519D01*
X003687Y009410D01*
X003896Y009323D01*
X004123Y009323D01*
X004332Y009410D01*
X004493Y009570D01*
X004580Y009780D01*
X004580Y010007D01*
X004493Y010216D01*
X004332Y010377D01*
X004123Y010463D01*
X003896Y010463D01*
X003687Y010377D01*
X003628Y010318D02*
X003578Y010318D01*
X003578Y010635D02*
X003746Y010635D01*
X004273Y010635D02*
X004746Y010635D01*
X004553Y010794D02*
X004466Y010794D01*
X004391Y010318D02*
X004878Y010318D01*
X004753Y010160D02*
X004516Y010160D01*
X004580Y010001D02*
X004690Y010001D01*
X004690Y009843D02*
X004580Y009843D01*
X004540Y009684D02*
X004729Y009684D01*
X004821Y009526D02*
X004448Y009526D01*
X004229Y009367D02*
X005040Y009367D01*
X005033Y008416D02*
X004236Y008416D01*
X004451Y008258D02*
X004818Y008258D01*
X004728Y008099D02*
X004541Y008099D01*
X004580Y007941D02*
X004690Y007941D01*
X004690Y007782D02*
X004580Y007782D01*
X004515Y007624D02*
X004754Y007624D01*
X004881Y007465D02*
X004388Y007465D01*
X004430Y007307D02*
X004839Y007307D01*
X004727Y007148D02*
X004542Y007148D01*
X004600Y006990D02*
X004670Y006990D01*
X004670Y006831D02*
X004600Y006831D01*
X004557Y006673D02*
X004712Y006673D01*
X004804Y006514D02*
X004465Y006514D01*
X004254Y006356D02*
X005015Y006356D01*
X003765Y006356D02*
X003578Y006356D01*
X003578Y008416D02*
X003783Y008416D01*
X003578Y009209D02*
X010610Y009209D01*
X011010Y009209D02*
X011010Y009209D01*
X011010Y009367D02*
X011010Y009367D01*
X011010Y009526D02*
X011010Y009526D01*
X011010Y009684D02*
X011010Y009684D01*
X011010Y009050D02*
X011010Y009050D01*
X011010Y006990D02*
X011010Y006990D01*
X011010Y006831D02*
X011010Y006831D01*
X011010Y006673D02*
X011010Y006673D01*
X009503Y006831D02*
X007016Y006831D01*
X007145Y006990D02*
X009374Y006990D01*
X009299Y007148D02*
X007220Y007148D01*
X007254Y007307D02*
X009265Y007307D01*
X009295Y007624D02*
X007224Y007624D01*
X007153Y007782D02*
X009366Y007782D01*
X009489Y007941D02*
X007030Y007941D01*
X005862Y010635D02*
X005273Y010635D01*
X005466Y010794D02*
X006024Y010794D01*
X005547Y010952D02*
X014201Y010952D01*
X014470Y010477D02*
X015781Y010477D01*
X015622Y010318D02*
X014470Y010318D01*
X014411Y010160D02*
X015557Y010160D01*
X015508Y010001D02*
X014265Y010001D01*
X014126Y009843D02*
X015508Y009843D01*
X015533Y009684D02*
X014369Y009684D01*
X014453Y009526D02*
X015599Y009526D01*
X015723Y009367D02*
X014470Y009367D01*
X014431Y009209D02*
X015949Y009209D01*
X015872Y008733D02*
X018685Y008733D01*
X018685Y008575D02*
X016025Y008575D01*
X016447Y008416D02*
X018685Y008416D01*
X018685Y008258D02*
X016661Y008258D01*
X016738Y008099D02*
X018685Y008099D01*
X018685Y007941D02*
X016756Y007941D01*
X016725Y007782D02*
X018685Y007782D01*
X018685Y007624D02*
X016630Y007624D01*
X016511Y007465D02*
X018685Y007465D01*
X018685Y007307D02*
X016668Y007307D01*
X016728Y007148D02*
X018685Y007148D01*
X018685Y006990D02*
X016731Y006990D01*
X016679Y006831D02*
X018685Y006831D01*
X018685Y006673D02*
X016540Y006673D01*
X016672Y006514D02*
X018685Y006514D01*
X018685Y006356D02*
X016743Y006356D01*
X016756Y006197D02*
X018685Y006197D01*
X018685Y006039D02*
X016721Y006039D01*
X015795Y004295D02*
X012720Y004295D01*
X012720Y004454D02*
X015637Y004454D01*
X015563Y004612D02*
X012720Y004612D01*
X013401Y003186D02*
X011118Y003186D01*
X011202Y003027D02*
X013317Y003027D01*
X013300Y002869D02*
X011220Y002869D01*
X011182Y002710D02*
X013337Y002710D01*
X013646Y003344D02*
X010873Y003344D01*
X010646Y003344D02*
X005609Y003344D01*
X005631Y003328D02*
X005558Y003381D01*
X005478Y003422D01*
X005393Y003449D01*
X005304Y003463D01*
X005278Y003463D01*
X005278Y002912D01*
X005830Y002912D01*
X005830Y002938D01*
X005815Y003027D01*
X010317Y003027D01*
X010300Y002869D02*
X005830Y002869D01*
X005815Y003027D02*
X005788Y003112D01*
X005747Y003192D01*
X005694Y003265D01*
X005631Y003328D01*
X005750Y003186D02*
X010401Y003186D01*
X010337Y002710D02*
X005799Y002710D01*
X005278Y003027D02*
X005241Y003027D01*
X005241Y002912D02*
X005241Y002875D01*
X004690Y002875D01*
X004690Y002848D01*
X004704Y002760D01*
X004731Y002675D01*
X004772Y002595D01*
X004773Y002593D01*
X004496Y002593D01*
X004497Y002595D01*
X004538Y002675D01*
X004565Y002760D01*
X004580Y002848D01*
X004580Y002875D01*
X004028Y002875D01*
X004028Y002912D01*
X004580Y002912D01*
X004580Y002938D01*
X004565Y003027D01*
X004704Y003027D02*
X004690Y002938D01*
X004690Y002912D01*
X005241Y002912D01*
X005241Y003186D02*
X005278Y003186D01*
X005278Y003344D02*
X005241Y003344D01*
X004911Y003344D02*
X004359Y003344D01*
X004500Y003186D02*
X004769Y003186D01*
X004690Y002869D02*
X004580Y002869D01*
X004549Y002710D02*
X004720Y002710D01*
X004028Y003027D02*
X003991Y003027D01*
X003991Y003186D02*
X004028Y003186D01*
X004028Y003344D02*
X003991Y003344D01*
X003661Y003344D02*
X003578Y003344D01*
X003578Y003503D02*
X018685Y003503D01*
X018685Y003661D02*
X003578Y003661D01*
X003578Y004137D02*
X006804Y004137D01*
X006734Y004295D02*
X003578Y004295D01*
X003578Y009367D02*
X003790Y009367D01*
X004030Y012123D02*
X004030Y012163D01*
X004560Y012163D01*
X004990Y012163D01*
X004990Y013123D01*
X005030Y013123D01*
X005030Y012593D01*
X005030Y012163D01*
X004990Y012163D01*
X004990Y012123D01*
X004030Y012123D01*
X004030Y012163D02*
X003990Y012163D01*
X003990Y013123D01*
X004030Y013123D01*
X004030Y013163D01*
X004560Y013163D01*
X004990Y013163D01*
X004990Y014123D01*
X005030Y014123D01*
X005030Y013693D01*
X005030Y013163D01*
X004990Y013163D01*
X004990Y013123D01*
X004030Y013123D01*
X004030Y012593D01*
X004030Y012163D01*
X004030Y012220D02*
X003990Y012220D01*
X003990Y012379D02*
X004030Y012379D01*
X004030Y012537D02*
X003990Y012537D01*
X003990Y012696D02*
X004030Y012696D01*
X004030Y012854D02*
X003990Y012854D01*
X003990Y013013D02*
X004030Y013013D01*
X004030Y013163D02*
X003990Y013163D01*
X003990Y014123D01*
X004030Y014123D01*
X004030Y014163D01*
X004460Y014163D01*
X004990Y014163D01*
X004990Y014123D01*
X004030Y014123D01*
X004030Y013693D01*
X004030Y013163D01*
X004030Y013171D02*
X003990Y013171D01*
X003990Y013330D02*
X004030Y013330D01*
X004030Y013488D02*
X003990Y013488D01*
X003990Y013647D02*
X004030Y013647D01*
X004030Y013805D02*
X003990Y013805D01*
X003990Y013964D02*
X004030Y013964D01*
X004030Y014122D02*
X003990Y014122D01*
X004990Y014122D02*
X005030Y014122D01*
X005030Y013964D02*
X004990Y013964D01*
X004990Y013805D02*
X005030Y013805D01*
X005030Y013647D02*
X004990Y013647D01*
X004990Y013488D02*
X005030Y013488D01*
X005030Y013330D02*
X004990Y013330D01*
X004990Y013171D02*
X005030Y013171D01*
X005030Y013013D02*
X004990Y013013D01*
X004990Y012854D02*
X005030Y012854D01*
X005030Y012696D02*
X004990Y012696D01*
X004990Y012537D02*
X005030Y012537D01*
X005030Y012379D02*
X004990Y012379D01*
X004990Y012220D02*
X005030Y012220D01*
X005393Y012537D02*
X008489Y012537D01*
X008443Y012492D02*
X008375Y012521D01*
X008144Y012521D01*
X007931Y012432D01*
X007768Y012269D01*
X007754Y012235D01*
X007702Y012305D01*
X007640Y012368D01*
X007569Y012420D01*
X007490Y012460D01*
X007406Y012487D01*
X007319Y012501D01*
X007294Y012501D01*
X007294Y011959D01*
X007257Y011959D01*
X007257Y012501D01*
X007231Y012501D01*
X007144Y012487D01*
X007060Y012460D01*
X006982Y012420D01*
X006910Y012368D01*
X006848Y012305D01*
X006796Y012234D01*
X006756Y012156D01*
X006729Y012072D01*
X006715Y011985D01*
X006715Y011959D01*
X007257Y011959D01*
X007257Y011922D01*
X007294Y011922D01*
X007294Y011381D01*
X007319Y011381D01*
X007406Y011394D01*
X007490Y011422D01*
X007569Y011462D01*
X007640Y011513D01*
X007702Y011576D01*
X007754Y011646D01*
X007768Y011612D01*
X007931Y011449D01*
X008144Y011361D01*
X008375Y011361D01*
X008588Y011449D01*
X008751Y011612D01*
X008752Y011613D01*
X008752Y011612D01*
X008915Y011449D01*
X009128Y011361D01*
X009359Y011361D01*
X009572Y011449D01*
X009735Y011612D01*
X009824Y011825D01*
X009824Y012056D01*
X009814Y012080D01*
X010242Y012508D01*
X011224Y012508D01*
X011120Y012404D01*
X011050Y012235D01*
X011050Y012052D01*
X011120Y011883D01*
X011249Y011753D01*
X011418Y011683D01*
X011601Y011683D01*
X011770Y011753D01*
X011899Y011883D01*
X011970Y012052D01*
X011970Y012235D01*
X011899Y012404D01*
X011795Y012508D01*
X012224Y012508D01*
X012120Y012404D01*
X012050Y012235D01*
X012050Y012052D01*
X012120Y011883D01*
X012249Y011753D01*
X012418Y011683D01*
X012601Y011683D01*
X012770Y011753D01*
X012899Y011883D01*
X012970Y012052D01*
X012970Y012235D01*
X012899Y012404D01*
X012795Y012508D01*
X013263Y012508D01*
X013223Y012479D01*
X013174Y012430D01*
X013133Y012374D01*
X013102Y012312D01*
X013080Y012246D01*
X013070Y012178D01*
X013070Y012143D01*
X013070Y012109D01*
X013080Y012040D01*
X013102Y011974D01*
X013133Y011913D01*
X013174Y011857D01*
X013223Y011808D01*
X013279Y011767D01*
X013341Y011736D01*
X013406Y011714D01*
X013475Y011703D01*
X013510Y011703D01*
X013544Y011703D01*
X013613Y011714D01*
X013678Y011736D01*
X013740Y011767D01*
X013796Y011808D01*
X013845Y011857D01*
X013886Y011913D01*
X013917Y011974D01*
X013939Y012040D01*
X013950Y012109D01*
X013950Y012143D01*
X013510Y012143D01*
X013510Y012143D01*
X013510Y011703D01*
X013510Y012143D01*
X013510Y012143D01*
X013950Y012143D01*
X013950Y012178D01*
X013939Y012246D01*
X013917Y012312D01*
X013886Y012374D01*
X013845Y012430D01*
X013796Y012479D01*
X013756Y012508D01*
X016043Y012508D01*
X016070Y012497D01*
X016010Y012466D01*
X015949Y012422D01*
X015896Y012369D01*
X015852Y012309D01*
X015818Y012242D01*
X015794Y012170D01*
X015783Y012096D01*
X015783Y012077D01*
X016241Y012077D01*
X016241Y012040D01*
X016278Y012040D01*
X016278Y012077D01*
X016736Y012077D01*
X016736Y012096D01*
X016725Y012170D01*
X016701Y012242D01*
X016667Y012309D01*
X016623Y012369D01*
X016570Y012422D01*
X016509Y012466D01*
X016449Y012497D01*
X016541Y012535D01*
X016681Y012675D01*
X016756Y012857D01*
X016756Y013055D01*
X016681Y013238D01*
X016541Y013378D01*
X016358Y013453D01*
X016161Y013453D01*
X015978Y013378D01*
X015838Y013238D01*
X015763Y013055D01*
X015763Y013028D01*
X014295Y013028D01*
X014399Y013133D01*
X014470Y013302D01*
X014470Y013485D01*
X014399Y013654D01*
X014270Y013783D01*
X014101Y013853D01*
X013918Y013853D01*
X013749Y013783D01*
X013620Y013654D01*
X013550Y013485D01*
X013550Y013302D01*
X013620Y013133D01*
X013724Y013028D01*
X011295Y013028D01*
X011399Y013133D01*
X011470Y013302D01*
X011470Y013485D01*
X011399Y013654D01*
X011270Y013783D01*
X011101Y013853D01*
X010918Y013853D01*
X010780Y013796D01*
X010917Y013934D01*
X010918Y013933D01*
X011101Y013933D01*
X011270Y014003D01*
X011399Y014133D01*
X011470Y014302D01*
X011470Y014485D01*
X011399Y014654D01*
X011270Y014783D01*
X011101Y014853D01*
X010918Y014853D01*
X010796Y014803D01*
X010798Y014813D01*
X010111Y014813D01*
X010111Y014127D01*
X010182Y014136D01*
X010279Y014162D01*
X010373Y014201D01*
X010460Y014251D01*
X010540Y014313D01*
X010550Y014322D01*
X010550Y014302D01*
X010550Y014301D01*
X009152Y012903D01*
X008911Y012903D01*
X008815Y012864D01*
X008443Y012492D01*
X008647Y012696D02*
X005329Y012696D01*
X005479Y012854D02*
X008806Y012854D01*
X009261Y013013D02*
X005545Y013013D01*
X005560Y013171D02*
X009420Y013171D01*
X009578Y013330D02*
X005527Y013330D01*
X005439Y013488D02*
X009737Y013488D01*
X009895Y013647D02*
X005247Y013647D01*
X005444Y013805D02*
X010054Y013805D01*
X010212Y013964D02*
X005529Y013964D01*
X005560Y014122D02*
X010371Y014122D01*
X010499Y014281D02*
X010529Y014281D01*
X010789Y013805D02*
X010802Y013805D01*
X011175Y013964D02*
X013844Y013964D01*
X013918Y013933D02*
X014101Y013933D01*
X014270Y014003D01*
X014399Y014133D01*
X014470Y014302D01*
X014470Y014485D01*
X014399Y014654D01*
X014270Y014783D01*
X014101Y014853D01*
X013918Y014853D01*
X013749Y014783D01*
X013620Y014654D01*
X013550Y014485D01*
X013550Y014302D01*
X013620Y014133D01*
X013749Y014003D01*
X013918Y013933D01*
X013802Y013805D02*
X011217Y013805D01*
X011402Y013647D02*
X013617Y013647D01*
X013551Y013488D02*
X011468Y013488D01*
X011470Y013330D02*
X013550Y013330D01*
X013604Y013171D02*
X011415Y013171D01*
X011109Y012379D02*
X010113Y012379D01*
X009954Y012220D02*
X011050Y012220D01*
X011050Y012062D02*
X009821Y012062D01*
X009824Y011903D02*
X011111Y011903D01*
X011270Y011745D02*
X009790Y011745D01*
X009710Y011586D02*
X015947Y011586D01*
X015949Y011588D02*
X015896Y011535D01*
X015852Y011474D01*
X015818Y011407D01*
X015794Y011336D01*
X015783Y011262D01*
X015783Y011242D01*
X016241Y011242D01*
X016241Y012040D01*
X015783Y012040D01*
X015783Y012021D01*
X015794Y011947D01*
X015818Y011876D01*
X015852Y011809D01*
X015896Y011748D01*
X015949Y011695D01*
X016010Y011651D01*
X016028Y011641D01*
X016010Y011632D01*
X015949Y011588D01*
X015899Y011745D02*
X013697Y011745D01*
X013510Y011745D02*
X013510Y011745D01*
X013510Y011903D02*
X013510Y011903D01*
X013510Y012062D02*
X013510Y012062D01*
X013510Y012143D02*
X013070Y012143D01*
X013510Y012143D01*
X013510Y012143D01*
X013322Y011745D02*
X012750Y011745D01*
X012908Y011903D02*
X013140Y011903D01*
X013077Y012062D02*
X012970Y012062D01*
X012970Y012220D02*
X013076Y012220D01*
X013137Y012379D02*
X012910Y012379D01*
X012270Y011745D02*
X011750Y011745D01*
X011908Y011903D02*
X012111Y011903D01*
X012050Y012062D02*
X011970Y012062D01*
X011970Y012220D02*
X012050Y012220D01*
X012109Y012379D02*
X011910Y012379D01*
X011389Y014122D02*
X013630Y014122D01*
X013558Y014281D02*
X011461Y014281D01*
X011470Y014439D02*
X013550Y014439D01*
X013596Y014598D02*
X011423Y014598D01*
X011297Y014756D02*
X013722Y014756D01*
X013749Y015003D02*
X013918Y014933D01*
X014101Y014933D01*
X014270Y015003D01*
X014399Y015133D01*
X014470Y015302D01*
X014470Y015485D01*
X014399Y015654D01*
X014270Y015783D01*
X014101Y015853D01*
X013918Y015853D01*
X013749Y015783D01*
X013620Y015654D01*
X013550Y015485D01*
X013550Y015302D01*
X013620Y015133D01*
X013749Y015003D01*
X013679Y015073D02*
X011340Y015073D01*
X011399Y015133D02*
X011470Y015302D01*
X011470Y015485D01*
X011399Y015654D01*
X011270Y015783D01*
X011101Y015853D01*
X010918Y015853D01*
X010749Y015783D01*
X010620Y015654D01*
X010550Y015485D01*
X010550Y015465D01*
X010540Y015474D01*
X010460Y015535D01*
X010373Y015586D01*
X010279Y015625D01*
X010182Y015651D01*
X010111Y015660D01*
X010111Y014973D01*
X010798Y014973D01*
X010796Y014984D01*
X010918Y014933D01*
X011101Y014933D01*
X011270Y015003D01*
X011399Y015133D01*
X011441Y015232D02*
X013579Y015232D01*
X013550Y015390D02*
X011470Y015390D01*
X011443Y015549D02*
X013576Y015549D01*
X013673Y015707D02*
X011346Y015707D01*
X011270Y016003D02*
X011399Y016133D01*
X011470Y016302D01*
X011470Y016485D01*
X011399Y016654D01*
X011270Y016783D01*
X011101Y016853D01*
X010918Y016853D01*
X010749Y016783D01*
X010620Y016654D01*
X010550Y016485D01*
X010550Y016302D01*
X010620Y016133D01*
X010749Y016003D01*
X010918Y015933D01*
X011101Y015933D01*
X011270Y016003D01*
X011291Y016024D02*
X013728Y016024D01*
X013749Y016003D02*
X013918Y015933D01*
X014101Y015933D01*
X014270Y016003D01*
X014399Y016133D01*
X014470Y016302D01*
X014470Y016485D01*
X014399Y016654D01*
X014270Y016783D01*
X014101Y016853D01*
X013918Y016853D01*
X013749Y016783D01*
X013620Y016654D01*
X013550Y016485D01*
X013550Y016302D01*
X013620Y016133D01*
X013749Y016003D01*
X013599Y016183D02*
X011420Y016183D01*
X011470Y016341D02*
X013550Y016341D01*
X013556Y016500D02*
X011463Y016500D01*
X011395Y016658D02*
X013624Y016658D01*
X013830Y016817D02*
X011189Y016817D01*
X011202Y016975D02*
X013817Y016975D01*
X013749Y017003D02*
X013918Y016933D01*
X014101Y016933D01*
X014270Y017003D01*
X014399Y017133D01*
X014470Y017302D01*
X014470Y017485D01*
X014399Y017654D01*
X014270Y017783D01*
X014101Y017853D01*
X013918Y017853D01*
X013749Y017783D01*
X013620Y017654D01*
X013550Y017485D01*
X013550Y017302D01*
X013620Y017133D01*
X013749Y017003D01*
X013619Y017134D02*
X011400Y017134D01*
X011466Y017292D02*
X013553Y017292D01*
X013550Y017451D02*
X011470Y017451D01*
X011418Y017609D02*
X013601Y017609D01*
X013734Y017768D02*
X011286Y017768D01*
X011323Y018085D02*
X013667Y018085D01*
X013620Y018133D02*
X013749Y018003D01*
X013918Y017933D01*
X014101Y017933D01*
X014270Y018003D01*
X014399Y018133D01*
X014470Y018302D01*
X014470Y018485D01*
X014399Y018654D01*
X014270Y018783D01*
X014214Y018806D01*
X013407Y019614D01*
X013311Y019653D01*
X012720Y019653D01*
X012720Y019736D01*
X012602Y019853D01*
X011917Y019853D01*
X011800Y019736D01*
X011800Y019050D01*
X011917Y018933D01*
X012602Y018933D01*
X012720Y019050D01*
X012720Y019133D01*
X013152Y019133D01*
X013625Y018660D01*
X013620Y018654D01*
X013550Y018485D01*
X013550Y018302D01*
X013620Y018133D01*
X013574Y018243D02*
X011423Y018243D01*
X011450Y018402D02*
X013550Y018402D01*
X013581Y018560D02*
X011418Y018560D01*
X011306Y018719D02*
X013566Y018719D01*
X013408Y018877D02*
X009978Y018877D01*
X010137Y018719D02*
X010713Y018719D01*
X010723Y018729D02*
X010674Y018680D01*
X010633Y018624D01*
X010602Y018562D01*
X010580Y018496D01*
X010570Y018428D01*
X010570Y018393D01*
X011010Y018393D01*
X011010Y018393D01*
X011010Y018833D01*
X010975Y018833D01*
X010906Y018822D01*
X010841Y018801D01*
X010779Y018770D01*
X010723Y018729D01*
X010601Y018560D02*
X010295Y018560D01*
X010454Y018402D02*
X010570Y018402D01*
X011010Y018402D02*
X011010Y018402D01*
X011010Y018560D02*
X011010Y018560D01*
X011010Y018719D02*
X011010Y018719D01*
X011010Y018243D02*
X011010Y018243D01*
X011010Y018085D02*
X011010Y018085D01*
X010929Y017926D02*
X015763Y017926D01*
X015763Y017857D02*
X015838Y017675D01*
X015978Y017535D01*
X016070Y017497D01*
X016010Y017466D01*
X015949Y017422D01*
X015896Y017369D01*
X015852Y017309D01*
X015818Y017242D01*
X015794Y017170D01*
X015783Y017096D01*
X015783Y017077D01*
X016241Y017077D01*
X016241Y017040D01*
X016278Y017040D01*
X016278Y016582D01*
X016278Y016242D01*
X016736Y016242D01*
X016736Y016262D01*
X016725Y016336D01*
X016701Y016407D01*
X016667Y016474D01*
X016623Y016535D01*
X016570Y016588D01*
X016509Y016632D01*
X016491Y016641D01*
X016509Y016651D01*
X016570Y016695D01*
X016623Y016748D01*
X016667Y016809D01*
X016701Y016876D01*
X016725Y016947D01*
X016736Y017021D01*
X016736Y017040D01*
X016278Y017040D01*
X016278Y017077D01*
X016736Y017077D01*
X016736Y017096D01*
X016725Y017170D01*
X016701Y017242D01*
X016667Y017309D01*
X016623Y017369D01*
X016570Y017422D01*
X016509Y017466D01*
X016449Y017497D01*
X016541Y017535D01*
X016681Y017675D01*
X016756Y017857D01*
X016756Y018055D01*
X016681Y018238D01*
X016541Y018378D01*
X016358Y018453D01*
X016161Y018453D01*
X015978Y018378D01*
X015838Y018238D01*
X015763Y018055D01*
X015763Y017857D01*
X015800Y017768D02*
X014286Y017768D01*
X014418Y017609D02*
X015904Y017609D01*
X015988Y017451D02*
X014470Y017451D01*
X014466Y017292D02*
X015843Y017292D01*
X015789Y017134D02*
X014400Y017134D01*
X014202Y016975D02*
X015790Y016975D01*
X015794Y016947D02*
X015818Y016876D01*
X015852Y016809D01*
X015896Y016748D01*
X015949Y016695D01*
X016010Y016651D01*
X016028Y016641D01*
X016010Y016632D01*
X015949Y016588D01*
X015896Y016535D01*
X015852Y016474D01*
X015818Y016407D01*
X015794Y016336D01*
X015783Y016262D01*
X015783Y016242D01*
X016241Y016242D01*
X016241Y016206D01*
X015783Y016206D01*
X015783Y016186D01*
X015794Y016112D01*
X015818Y016041D01*
X015852Y015974D01*
X015896Y015913D01*
X015949Y015860D01*
X016010Y015816D01*
X016076Y015782D01*
X016148Y015759D01*
X016222Y015747D01*
X016241Y015747D01*
X016241Y016206D01*
X016278Y016206D01*
X016278Y016242D01*
X016241Y016242D01*
X016241Y017040D01*
X015783Y017040D01*
X015783Y017021D01*
X015794Y016947D01*
X015848Y016817D02*
X014189Y016817D01*
X014291Y016024D02*
X015826Y016024D01*
X015783Y016183D02*
X014420Y016183D01*
X014470Y016341D02*
X015796Y016341D01*
X015870Y016500D02*
X014463Y016500D01*
X014395Y016658D02*
X015999Y016658D01*
X016241Y016658D02*
X016278Y016658D01*
X016278Y016500D02*
X016241Y016500D01*
X016241Y016341D02*
X016278Y016341D01*
X016278Y016206D02*
X016736Y016206D01*
X016736Y016186D01*
X016725Y016112D01*
X016701Y016041D01*
X016667Y015974D01*
X016623Y015913D01*
X016570Y015860D01*
X016509Y015816D01*
X016443Y015782D01*
X016371Y015759D01*
X016297Y015747D01*
X016278Y015747D01*
X016278Y016206D01*
X016278Y016183D02*
X016241Y016183D01*
X016241Y016024D02*
X016278Y016024D01*
X016278Y015866D02*
X016241Y015866D01*
X016110Y015644D02*
X015834Y015530D01*
X015623Y015319D01*
X015508Y015043D01*
X015508Y014744D01*
X015623Y014468D01*
X015834Y014256D01*
X016110Y014142D01*
X016409Y014142D01*
X016685Y014256D01*
X016896Y014468D01*
X017011Y014744D01*
X017011Y015043D01*
X016896Y015319D01*
X016685Y015530D01*
X016409Y015644D01*
X016110Y015644D01*
X015879Y015549D02*
X014443Y015549D01*
X014470Y015390D02*
X015694Y015390D01*
X015587Y015232D02*
X014441Y015232D01*
X014340Y015073D02*
X015521Y015073D01*
X015508Y014915D02*
X010111Y014915D01*
X010111Y014973D02*
X010111Y014813D01*
X009951Y014813D01*
X009951Y014127D01*
X009881Y014136D01*
X009783Y014162D01*
X009690Y014201D01*
X009602Y014251D01*
X009522Y014313D01*
X009451Y014384D01*
X009389Y014464D01*
X009339Y014552D01*
X009300Y014645D01*
X009274Y014743D01*
X009264Y014813D01*
X009951Y014813D01*
X009951Y014973D01*
X009264Y014973D01*
X009274Y015044D01*
X009300Y015142D01*
X009339Y015235D01*
X009389Y015322D01*
X009451Y015402D01*
X009522Y015474D01*
X009602Y015535D01*
X009690Y015586D01*
X009783Y015625D01*
X009881Y015651D01*
X009951Y015660D01*
X009951Y014973D01*
X010111Y014973D01*
X010111Y015073D02*
X009951Y015073D01*
X009951Y014915D02*
X006568Y014915D01*
X006568Y014973D02*
X007255Y014973D01*
X007245Y015044D01*
X007219Y015142D01*
X007180Y015235D01*
X007130Y015322D01*
X007068Y015402D01*
X006997Y015474D01*
X006917Y015535D01*
X006829Y015586D01*
X006736Y015625D01*
X006639Y015651D01*
X006568Y015660D01*
X006568Y014973D01*
X006568Y014813D01*
X006568Y014127D01*
X006639Y014136D01*
X006736Y014162D01*
X006829Y014201D01*
X006917Y014251D01*
X006997Y014313D01*
X007068Y014384D01*
X007130Y014464D01*
X007180Y014552D01*
X007219Y014645D01*
X007245Y014743D01*
X007255Y014813D01*
X006568Y014813D01*
X006408Y014813D01*
X006408Y014127D01*
X006337Y014136D01*
X006240Y014162D01*
X006146Y014201D01*
X006059Y014251D01*
X005979Y014313D01*
X005907Y014384D01*
X005846Y014464D01*
X005795Y014552D01*
X005757Y014645D01*
X005730Y014743D01*
X005721Y014813D01*
X006408Y014813D01*
X006408Y014973D01*
X005721Y014973D01*
X005730Y015044D01*
X005757Y015142D01*
X005795Y015235D01*
X005846Y015322D01*
X005907Y015402D01*
X005979Y015474D01*
X006059Y015535D01*
X006146Y015586D01*
X006240Y015625D01*
X006337Y015651D01*
X006408Y015660D01*
X006408Y014973D01*
X006568Y014973D01*
X006568Y015073D02*
X006408Y015073D01*
X006408Y014915D02*
X005532Y014915D01*
X005580Y015073D02*
X005738Y015073D01*
X005794Y015232D02*
X005580Y015232D01*
X005524Y015390D02*
X005898Y015390D01*
X006082Y015549D02*
X005410Y015549D01*
X005380Y015707D02*
X010673Y015707D01*
X010576Y015549D02*
X010437Y015549D01*
X010111Y015549D02*
X009951Y015549D01*
X009951Y015390D02*
X010111Y015390D01*
X010111Y015232D02*
X009951Y015232D01*
X009951Y014756D02*
X010111Y014756D01*
X010111Y014598D02*
X009951Y014598D01*
X009951Y014439D02*
X010111Y014439D01*
X010111Y014281D02*
X009951Y014281D01*
X009564Y014281D02*
X006955Y014281D01*
X007111Y014439D02*
X009408Y014439D01*
X009320Y014598D02*
X007200Y014598D01*
X007247Y014756D02*
X009272Y014756D01*
X009282Y015073D02*
X007237Y015073D01*
X007182Y015232D02*
X009337Y015232D01*
X009441Y015390D02*
X007078Y015390D01*
X006894Y015549D02*
X009625Y015549D01*
X010599Y016183D02*
X005580Y016183D01*
X005577Y016024D02*
X010728Y016024D01*
X010550Y016341D02*
X005544Y016341D01*
X005459Y016500D02*
X010556Y016500D01*
X010624Y016658D02*
X005328Y016658D01*
X005489Y016817D02*
X010830Y016817D01*
X010817Y016975D02*
X005557Y016975D01*
X005580Y017134D02*
X006484Y017134D01*
X006439Y017179D02*
X006545Y017073D01*
X006684Y017015D01*
X006835Y017015D01*
X006974Y017073D01*
X007034Y017133D01*
X007735Y017133D01*
X007795Y017073D01*
X007934Y017015D01*
X008085Y017015D01*
X008224Y017073D01*
X008330Y017179D01*
X008388Y017318D01*
X008388Y017469D01*
X008330Y017607D01*
X008224Y017714D01*
X008085Y017771D01*
X007934Y017771D01*
X007795Y017714D01*
X007735Y017653D01*
X007034Y017653D01*
X006974Y017714D01*
X006835Y017771D01*
X006684Y017771D01*
X006545Y017714D01*
X006439Y017607D01*
X006381Y017469D01*
X006381Y017318D01*
X006439Y017179D01*
X006392Y017292D02*
X005565Y017292D01*
X005499Y017451D02*
X006381Y017451D01*
X006441Y017609D02*
X005350Y017609D01*
X005440Y017768D02*
X006676Y017768D01*
X006843Y017768D02*
X007926Y017768D01*
X008093Y017768D02*
X010182Y017768D01*
X010024Y017926D02*
X005537Y017926D01*
X005580Y018085D02*
X009865Y018085D01*
X009707Y018243D02*
X005580Y018243D01*
X005519Y018402D02*
X006298Y018402D01*
X006140Y018560D02*
X005399Y018560D01*
X005506Y019194D02*
X004544Y019194D01*
X004580Y019353D02*
X005347Y019353D01*
X005189Y019511D02*
X004578Y019511D01*
X004512Y019670D02*
X005030Y019670D01*
X004872Y019828D02*
X004381Y019828D01*
X004555Y020145D02*
X003578Y020145D01*
X003578Y019987D02*
X004713Y019987D01*
X004396Y020304D02*
X003578Y020304D01*
X003578Y020462D02*
X004238Y020462D01*
X004079Y020621D02*
X003578Y020621D01*
X003578Y020779D02*
X003921Y020779D01*
X003659Y020938D02*
X003578Y020938D01*
X003578Y019828D02*
X003638Y019828D01*
X003578Y018877D02*
X003766Y018877D01*
X003578Y018719D02*
X005981Y018719D01*
X005823Y018877D02*
X004253Y018877D01*
X004458Y019036D02*
X005664Y019036D01*
X005936Y019670D02*
X006764Y019670D01*
X006719Y019511D02*
X006094Y019511D01*
X006253Y019353D02*
X006722Y019353D01*
X006772Y019194D02*
X006411Y019194D01*
X006570Y019036D02*
X006888Y019036D01*
X007257Y019511D02*
X007294Y019511D01*
X007294Y019670D02*
X007257Y019670D01*
X007257Y019828D02*
X007294Y019828D01*
X007294Y019987D02*
X007257Y019987D01*
X007145Y019987D02*
X005619Y019987D01*
X005777Y019828D02*
X006871Y019828D01*
X006639Y021636D02*
X006568Y021627D01*
X006568Y022313D01*
X006408Y022313D01*
X006408Y021627D01*
X006337Y021636D01*
X006240Y021662D01*
X006146Y021701D01*
X006059Y021751D01*
X005979Y021813D01*
X005907Y021884D01*
X005846Y021964D01*
X005795Y022052D01*
X005757Y022145D01*
X005730Y022243D01*
X005721Y022313D01*
X006408Y022313D01*
X006408Y022473D01*
X005721Y022473D01*
X005730Y022544D01*
X005757Y022642D01*
X005795Y022735D01*
X005846Y022822D01*
X005907Y022902D01*
X005979Y022974D01*
X006059Y023035D01*
X006146Y023086D01*
X006240Y023125D01*
X006337Y023151D01*
X006408Y023160D01*
X006408Y022473D01*
X006568Y022473D01*
X007255Y022473D01*
X007245Y022544D01*
X007219Y022642D01*
X007180Y022735D01*
X007130Y022822D01*
X007068Y022902D01*
X006997Y022974D01*
X006917Y023035D01*
X006829Y023086D01*
X006736Y023125D01*
X006639Y023151D01*
X006568Y023160D01*
X006568Y022473D01*
X006568Y022313D01*
X007255Y022313D01*
X007245Y022243D01*
X007219Y022145D01*
X007180Y022052D01*
X007130Y021964D01*
X007068Y021884D01*
X006997Y021813D01*
X006917Y021751D01*
X006829Y021701D01*
X006736Y021662D01*
X006639Y021636D01*
X006568Y021730D02*
X006408Y021730D01*
X006408Y021889D02*
X006568Y021889D01*
X006568Y022047D02*
X006408Y022047D01*
X006408Y022206D02*
X006568Y022206D01*
X006568Y022364D02*
X009951Y022364D01*
X009951Y022313D02*
X009264Y022313D01*
X009274Y022243D01*
X009300Y022145D01*
X009339Y022052D01*
X009389Y021964D01*
X009451Y021884D01*
X009522Y021813D01*
X009602Y021751D01*
X009690Y021701D01*
X009783Y021662D01*
X009881Y021636D01*
X009951Y021627D01*
X009951Y022313D01*
X010111Y022313D01*
X010111Y021627D01*
X010182Y021636D01*
X010279Y021662D01*
X010373Y021701D01*
X010460Y021751D01*
X010540Y021813D01*
X010612Y021884D01*
X010673Y021964D01*
X010724Y022052D01*
X010762Y022145D01*
X010789Y022243D01*
X010798Y022313D01*
X010111Y022313D01*
X010111Y022473D01*
X010798Y022473D01*
X010789Y022544D01*
X010762Y022642D01*
X010724Y022735D01*
X010673Y022822D01*
X010612Y022902D01*
X010540Y022974D01*
X010460Y023035D01*
X010373Y023086D01*
X010279Y023125D01*
X010182Y023151D01*
X010111Y023160D01*
X010111Y022473D01*
X009951Y022473D01*
X009951Y022313D01*
X009951Y022206D02*
X010111Y022206D01*
X010111Y022364D02*
X010800Y022364D01*
X010800Y022302D02*
X010870Y022133D01*
X010999Y022003D01*
X011168Y021933D01*
X011351Y021933D01*
X011520Y022003D01*
X011649Y022133D01*
X011720Y022302D01*
X011720Y022485D01*
X011649Y022654D01*
X011520Y022783D01*
X011351Y022853D01*
X011168Y022853D01*
X010999Y022783D01*
X010870Y022654D01*
X010800Y022485D01*
X010800Y022302D01*
X010779Y022206D02*
X010839Y022206D01*
X010955Y022047D02*
X010721Y022047D01*
X010615Y021889D02*
X015813Y021889D01*
X015818Y021876D02*
X015794Y021947D01*
X015783Y022021D01*
X015783Y022040D01*
X016241Y022040D01*
X016241Y022077D01*
X015783Y022077D01*
X015783Y022096D01*
X015794Y022170D01*
X015818Y022242D01*
X015852Y022309D01*
X015896Y022369D01*
X015920Y022393D01*
X015896Y022417D01*
X015852Y022478D01*
X015818Y022545D01*
X015794Y022616D01*
X015783Y022690D01*
X015783Y022710D01*
X016241Y022710D01*
X016241Y022746D01*
X015783Y022746D01*
X015783Y022765D01*
X015794Y022840D01*
X014384Y022840D01*
X014351Y022853D02*
X014168Y022853D01*
X013999Y022783D01*
X013870Y022654D01*
X013800Y022485D01*
X013800Y022302D01*
X013870Y022133D01*
X013999Y022003D01*
X014168Y021933D01*
X014351Y021933D01*
X014520Y022003D01*
X014649Y022133D01*
X014720Y022302D01*
X014720Y022485D01*
X014649Y022654D01*
X014520Y022783D01*
X014351Y022853D01*
X014240Y023017D02*
X014296Y023058D01*
X014345Y023107D01*
X014386Y023163D01*
X014417Y023224D01*
X014439Y023290D01*
X014450Y023359D01*
X014450Y023393D01*
X014010Y023393D01*
X014010Y023393D01*
X014010Y022953D01*
X014044Y022953D01*
X014113Y022964D01*
X014178Y022986D01*
X014240Y023017D01*
X014204Y022998D02*
X015867Y022998D01*
X015852Y022978D02*
X015818Y022911D01*
X015794Y022840D01*
X015852Y022978D02*
X015896Y023039D01*
X015949Y023092D01*
X016010Y023136D01*
X016028Y023145D01*
X016010Y023155D01*
X015949Y023199D01*
X015896Y023252D01*
X015852Y023313D01*
X015818Y023380D01*
X015794Y023451D01*
X015783Y023525D01*
X015783Y023544D01*
X016241Y023544D01*
X016278Y023544D01*
X016278Y022746D01*
X016736Y022746D01*
X016736Y022765D01*
X016725Y022840D01*
X018685Y022840D01*
X018685Y022998D02*
X016652Y022998D01*
X016667Y022978D02*
X016623Y023039D01*
X016570Y023092D01*
X016509Y023136D01*
X016491Y023145D01*
X016509Y023155D01*
X016570Y023199D01*
X016623Y023252D01*
X016667Y023313D01*
X016701Y023380D01*
X016725Y023451D01*
X016736Y023525D01*
X016736Y023544D01*
X016278Y023544D01*
X016278Y023581D01*
X016736Y023581D01*
X016736Y023600D01*
X016725Y023674D01*
X016701Y023746D01*
X016667Y023813D01*
X016623Y023873D01*
X016570Y023926D01*
X016509Y023970D01*
X016443Y024005D01*
X016371Y024028D01*
X016297Y024039D01*
X016278Y024039D01*
X016278Y023581D01*
X016241Y023581D01*
X016241Y023544D01*
X016241Y023205D01*
X016241Y022746D01*
X016278Y022746D01*
X016278Y022710D01*
X016736Y022710D01*
X016736Y022690D01*
X016725Y022616D01*
X016701Y022545D01*
X016667Y022478D01*
X016623Y022417D01*
X016599Y022393D01*
X016623Y022369D01*
X016667Y022309D01*
X016701Y022242D01*
X016725Y022170D01*
X016736Y022096D01*
X016736Y022077D01*
X016278Y022077D01*
X016278Y022040D01*
X016736Y022040D01*
X016736Y022021D01*
X016725Y021947D01*
X016701Y021876D01*
X016667Y021809D01*
X016623Y021748D01*
X016570Y021695D01*
X016516Y021656D01*
X016541Y021645D01*
X016681Y021505D01*
X016756Y021323D01*
X016756Y021125D01*
X016681Y020943D01*
X016541Y020803D01*
X016358Y020727D01*
X016161Y020727D01*
X015978Y020803D01*
X015838Y020943D01*
X015763Y021125D01*
X015763Y021323D01*
X015838Y021505D01*
X015978Y021645D01*
X016003Y021656D01*
X015949Y021695D01*
X015896Y021748D01*
X015852Y021809D01*
X015818Y021876D01*
X015913Y021730D02*
X014323Y021730D01*
X014270Y021783D02*
X014101Y021853D01*
X013918Y021853D01*
X013749Y021783D01*
X013620Y021654D01*
X013550Y021485D01*
X013550Y021302D01*
X013620Y021133D01*
X013749Y021003D01*
X013918Y020933D01*
X014101Y020933D01*
X014270Y021003D01*
X014399Y021133D01*
X014470Y021302D01*
X014470Y021485D01*
X014399Y021654D01*
X014270Y021783D01*
X014433Y021572D02*
X015905Y021572D01*
X015800Y021413D02*
X014470Y021413D01*
X014450Y021255D02*
X015763Y021255D01*
X015775Y021096D02*
X014363Y021096D01*
X014112Y020938D02*
X015843Y020938D01*
X016035Y020779D02*
X012524Y020779D01*
X012520Y020783D02*
X012351Y020853D01*
X012168Y020853D01*
X011999Y020783D01*
X011870Y020654D01*
X011800Y020485D01*
X011800Y020302D01*
X011870Y020133D01*
X011999Y020003D01*
X012168Y019933D01*
X012351Y019933D01*
X012520Y020003D01*
X012649Y020133D01*
X012720Y020302D01*
X012720Y020485D01*
X012649Y020654D01*
X012520Y020783D01*
X012663Y020621D02*
X016053Y020621D01*
X016110Y020644D02*
X015834Y020530D01*
X015623Y020319D01*
X015508Y020043D01*
X015508Y019744D01*
X015623Y019468D01*
X015834Y019256D01*
X016110Y019142D01*
X016409Y019142D01*
X016685Y019256D01*
X016896Y019468D01*
X017011Y019744D01*
X017011Y020043D01*
X016896Y020319D01*
X016685Y020530D01*
X016409Y020644D01*
X016110Y020644D01*
X015766Y020462D02*
X012720Y020462D01*
X012720Y020304D02*
X015616Y020304D01*
X015551Y020145D02*
X012655Y020145D01*
X012480Y019987D02*
X013851Y019987D01*
X013795Y019964D02*
X013934Y020021D01*
X014085Y020021D01*
X014224Y019964D01*
X014284Y019903D01*
X014735Y019903D01*
X014795Y019964D01*
X014934Y020021D01*
X015085Y020021D01*
X015224Y019964D01*
X015330Y019857D01*
X015388Y019719D01*
X015388Y019568D01*
X015330Y019429D01*
X015224Y019323D01*
X015085Y019265D01*
X014934Y019265D01*
X014795Y019323D01*
X014735Y019383D01*
X014284Y019383D01*
X014224Y019323D01*
X014085Y019265D01*
X013934Y019265D01*
X013795Y019323D01*
X013689Y019429D01*
X013631Y019568D01*
X013631Y019719D01*
X013689Y019857D01*
X013795Y019964D01*
X013677Y019828D02*
X012627Y019828D01*
X012720Y019670D02*
X013631Y019670D01*
X013655Y019511D02*
X013509Y019511D01*
X013668Y019353D02*
X013765Y019353D01*
X013826Y019194D02*
X015984Y019194D01*
X015738Y019353D02*
X015254Y019353D01*
X015364Y019511D02*
X015605Y019511D01*
X015539Y019670D02*
X015388Y019670D01*
X015342Y019828D02*
X015508Y019828D01*
X015508Y019987D02*
X015168Y019987D01*
X014851Y019987D02*
X014168Y019987D01*
X014254Y019353D02*
X014765Y019353D01*
X014438Y018560D02*
X018685Y018560D01*
X018685Y018402D02*
X016482Y018402D01*
X016675Y018243D02*
X018685Y018243D01*
X018685Y018085D02*
X016744Y018085D01*
X016756Y017926D02*
X018685Y017926D01*
X018685Y017768D02*
X016719Y017768D01*
X016615Y017609D02*
X018685Y017609D01*
X018685Y017451D02*
X016531Y017451D01*
X016676Y017292D02*
X018685Y017292D01*
X018685Y017134D02*
X016730Y017134D01*
X016729Y016975D02*
X018685Y016975D01*
X018685Y016817D02*
X016671Y016817D01*
X016520Y016658D02*
X018685Y016658D01*
X018685Y016500D02*
X016649Y016500D01*
X016723Y016341D02*
X018685Y016341D01*
X018685Y016183D02*
X016736Y016183D01*
X016693Y016024D02*
X018685Y016024D01*
X018685Y015866D02*
X016576Y015866D01*
X016640Y015549D02*
X018685Y015549D01*
X018685Y015707D02*
X014346Y015707D01*
X014297Y014756D02*
X015508Y014756D01*
X015569Y014598D02*
X014423Y014598D01*
X014470Y014439D02*
X015651Y014439D01*
X015810Y014281D02*
X014461Y014281D01*
X014389Y014122D02*
X018685Y014122D01*
X018685Y013964D02*
X014175Y013964D01*
X014217Y013805D02*
X018685Y013805D01*
X018685Y013647D02*
X014402Y013647D01*
X014468Y013488D02*
X018685Y013488D01*
X018685Y013330D02*
X016589Y013330D01*
X016708Y013171D02*
X018685Y013171D01*
X018685Y013013D02*
X016756Y013013D01*
X016755Y012854D02*
X018685Y012854D01*
X018685Y012696D02*
X016689Y012696D01*
X016543Y012537D02*
X018685Y012537D01*
X018685Y012379D02*
X016614Y012379D01*
X016708Y012220D02*
X018685Y012220D01*
X018685Y012062D02*
X016278Y012062D01*
X016241Y012062D02*
X013942Y012062D01*
X013943Y012220D02*
X015811Y012220D01*
X015905Y012379D02*
X013882Y012379D01*
X013879Y011903D02*
X015809Y011903D01*
X015828Y011428D02*
X009522Y011428D01*
X008966Y011428D02*
X008537Y011428D01*
X008726Y011586D02*
X008778Y011586D01*
X007982Y011428D02*
X007502Y011428D01*
X007294Y011428D02*
X007257Y011428D01*
X007257Y011381D02*
X007257Y011922D01*
X006715Y011922D01*
X006715Y011896D01*
X006729Y011809D01*
X006756Y011726D01*
X006796Y011647D01*
X006848Y011576D01*
X006910Y011513D01*
X006982Y011462D01*
X007060Y011422D01*
X007144Y011394D01*
X007231Y011381D01*
X007257Y011381D01*
X007257Y011586D02*
X007294Y011586D01*
X007294Y011745D02*
X007257Y011745D01*
X007257Y011903D02*
X007294Y011903D01*
X007294Y012062D02*
X007257Y012062D01*
X007257Y012220D02*
X007294Y012220D01*
X007294Y012379D02*
X007257Y012379D01*
X006926Y012379D02*
X005507Y012379D01*
X005554Y012220D02*
X006789Y012220D01*
X006727Y012062D02*
X005553Y012062D01*
X005505Y011903D02*
X006715Y011903D01*
X006750Y011745D02*
X005389Y011745D01*
X005373Y011586D02*
X006840Y011586D01*
X007048Y011428D02*
X005509Y011428D01*
X005574Y011269D02*
X015784Y011269D01*
X015795Y011111D02*
X005580Y011111D01*
X005543Y014281D02*
X006020Y014281D01*
X005865Y014439D02*
X005474Y014439D01*
X005320Y014598D02*
X005776Y014598D01*
X005729Y014756D02*
X005429Y014756D01*
X005512Y015866D02*
X015943Y015866D01*
X016241Y016817D02*
X016278Y016817D01*
X016278Y016975D02*
X016241Y016975D01*
X015775Y018085D02*
X014352Y018085D01*
X014445Y018243D02*
X015844Y018243D01*
X016037Y018402D02*
X014470Y018402D01*
X014335Y018719D02*
X018685Y018719D01*
X018685Y018877D02*
X014143Y018877D01*
X013985Y019036D02*
X018685Y019036D01*
X018685Y019194D02*
X016535Y019194D01*
X016781Y019353D02*
X018685Y019353D01*
X018685Y019511D02*
X016914Y019511D01*
X016980Y019670D02*
X018685Y019670D01*
X018685Y019828D02*
X017011Y019828D01*
X017011Y019987D02*
X018685Y019987D01*
X018685Y020145D02*
X016968Y020145D01*
X016903Y020304D02*
X018685Y020304D01*
X018685Y020462D02*
X016753Y020462D01*
X016676Y020938D02*
X018685Y020938D01*
X018685Y021096D02*
X016744Y021096D01*
X016756Y021255D02*
X018685Y021255D01*
X018685Y021413D02*
X016719Y021413D01*
X016614Y021572D02*
X018685Y021572D01*
X018685Y021730D02*
X016606Y021730D01*
X016706Y021889D02*
X018685Y021889D01*
X018685Y022047D02*
X016278Y022047D01*
X016278Y022077D02*
X016241Y022077D01*
X016241Y022710D01*
X016278Y022710D01*
X016278Y022251D01*
X016278Y022077D01*
X016241Y022047D02*
X014564Y022047D01*
X014680Y022206D02*
X015806Y022206D01*
X015892Y022364D02*
X014720Y022364D01*
X014704Y022523D02*
X015829Y022523D01*
X015784Y022681D02*
X014622Y022681D01*
X014382Y023157D02*
X016007Y023157D01*
X015850Y023315D02*
X014443Y023315D01*
X014450Y023393D02*
X014450Y023428D01*
X014439Y023496D01*
X014417Y023562D01*
X014386Y023624D01*
X014345Y023680D01*
X014296Y023729D01*
X014240Y023770D01*
X014178Y023801D01*
X014113Y023822D01*
X014044Y023833D01*
X014010Y023833D01*
X014010Y023393D01*
X014010Y023393D01*
X014450Y023393D01*
X014442Y023474D02*
X015791Y023474D01*
X015783Y023581D02*
X016241Y023581D01*
X016241Y024039D01*
X016222Y024039D01*
X016148Y024028D01*
X016076Y024005D01*
X016010Y023970D01*
X015949Y023926D01*
X015896Y023873D01*
X015852Y023813D01*
X015818Y023746D01*
X015794Y023674D01*
X015783Y023600D01*
X015783Y023581D01*
X015788Y023632D02*
X014380Y023632D01*
X014198Y023791D02*
X015841Y023791D01*
X015981Y023949D02*
X014140Y023949D01*
X014101Y023933D02*
X014270Y024003D01*
X014399Y024133D01*
X014470Y024302D01*
X014470Y024485D01*
X014399Y024654D01*
X014270Y024783D01*
X014101Y024853D01*
X013918Y024853D01*
X013749Y024783D01*
X013620Y024654D01*
X013550Y024485D01*
X013550Y024302D01*
X013620Y024133D01*
X013749Y024003D01*
X013918Y023933D01*
X014101Y023933D01*
X014010Y023833D02*
X013975Y023833D01*
X013906Y023822D01*
X013841Y023801D01*
X013779Y023770D01*
X013723Y023729D01*
X013674Y023680D01*
X013633Y023624D01*
X013602Y023562D01*
X013580Y023496D01*
X013570Y023428D01*
X013570Y023393D01*
X013570Y023359D01*
X013580Y023290D01*
X013602Y023224D01*
X013633Y023163D01*
X013674Y023107D01*
X013723Y023058D01*
X013779Y023017D01*
X013841Y022986D01*
X013906Y022964D01*
X013975Y022953D01*
X014010Y022953D01*
X014010Y023393D01*
X014010Y023393D01*
X013570Y023393D01*
X014010Y023393D01*
X014010Y023393D01*
X014010Y023833D01*
X014010Y023791D02*
X014010Y023791D01*
X014010Y023632D02*
X014010Y023632D01*
X014010Y023474D02*
X014010Y023474D01*
X014010Y023315D02*
X014010Y023315D01*
X014010Y023157D02*
X014010Y023157D01*
X014010Y022998D02*
X014010Y022998D01*
X013815Y022998D02*
X011258Y022998D01*
X011270Y023003D02*
X011399Y023133D01*
X011470Y023302D01*
X011470Y023485D01*
X011399Y023654D01*
X011270Y023783D01*
X011101Y023853D01*
X010918Y023853D01*
X010749Y023783D01*
X010620Y023654D01*
X010550Y023485D01*
X010550Y023302D01*
X010620Y023133D01*
X010749Y023003D01*
X010918Y022933D01*
X011101Y022933D01*
X011270Y023003D01*
X011384Y022840D02*
X014136Y022840D01*
X013897Y022681D02*
X011622Y022681D01*
X011704Y022523D02*
X013815Y022523D01*
X013800Y022364D02*
X011720Y022364D01*
X011680Y022206D02*
X013839Y022206D01*
X013955Y022047D02*
X011564Y022047D01*
X011270Y021783D02*
X011399Y021654D01*
X011470Y021485D01*
X011470Y021302D01*
X011399Y021133D01*
X011270Y021003D01*
X011101Y020933D01*
X010918Y020933D01*
X010749Y021003D01*
X010620Y021133D01*
X010550Y021302D01*
X010550Y021485D01*
X010620Y021654D01*
X010749Y021783D01*
X010918Y021853D01*
X011101Y021853D01*
X011270Y021783D01*
X011323Y021730D02*
X013696Y021730D01*
X013586Y021572D02*
X011433Y021572D01*
X011470Y021413D02*
X013550Y021413D01*
X013569Y021255D02*
X011450Y021255D01*
X011363Y021096D02*
X013656Y021096D01*
X013907Y020938D02*
X011112Y020938D01*
X010907Y020938D02*
X004668Y020938D01*
X004826Y020779D02*
X011995Y020779D01*
X011856Y020621D02*
X004985Y020621D01*
X005143Y020462D02*
X008544Y020462D01*
X008417Y020304D02*
X005302Y020304D01*
X005460Y020145D02*
X008381Y020145D01*
X008975Y020462D02*
X010294Y020462D01*
X010290Y019828D02*
X009676Y019828D01*
X009777Y019670D02*
X011800Y019670D01*
X011800Y019511D02*
X009824Y019511D01*
X009824Y019353D02*
X011800Y019353D01*
X011800Y019194D02*
X009770Y019194D01*
X009659Y019036D02*
X011814Y019036D01*
X011892Y019828D02*
X010729Y019828D01*
X010854Y019987D02*
X012039Y019987D01*
X011864Y020145D02*
X010888Y020145D01*
X010852Y020304D02*
X011800Y020304D01*
X011800Y020462D02*
X010725Y020462D01*
X010656Y021096D02*
X004509Y021096D01*
X004569Y021255D02*
X010569Y021255D01*
X010550Y021413D02*
X004580Y021413D01*
X004553Y021572D02*
X010586Y021572D01*
X010696Y021730D02*
X010424Y021730D01*
X010111Y021730D02*
X009951Y021730D01*
X009951Y021889D02*
X010111Y021889D01*
X010111Y022047D02*
X009951Y022047D01*
X009951Y022473D02*
X009264Y022473D01*
X009274Y022544D01*
X009300Y022642D01*
X009339Y022735D01*
X009389Y022822D01*
X009451Y022902D01*
X009522Y022974D01*
X009602Y023035D01*
X009690Y023086D01*
X009783Y023125D01*
X009881Y023151D01*
X009951Y023160D01*
X009951Y022473D01*
X009951Y022523D02*
X010111Y022523D01*
X010111Y022681D02*
X009951Y022681D01*
X009951Y022840D02*
X010111Y022840D01*
X010111Y022998D02*
X009951Y022998D01*
X009951Y023157D02*
X010111Y023157D01*
X010135Y023157D02*
X010610Y023157D01*
X010550Y023315D02*
X005832Y023315D01*
X005770Y023253D02*
X005899Y023383D01*
X005970Y023552D01*
X005970Y023735D01*
X005899Y023904D01*
X005770Y024033D01*
X005601Y024103D01*
X005418Y024103D01*
X005249Y024033D01*
X005120Y023904D01*
X005050Y023735D01*
X005050Y023552D01*
X005120Y023383D01*
X005249Y023253D01*
X005418Y023183D01*
X005601Y023183D01*
X005770Y023253D01*
X005937Y023474D02*
X010550Y023474D01*
X010611Y023632D02*
X005970Y023632D01*
X005946Y023791D02*
X010767Y023791D01*
X010841Y023986D02*
X010906Y023964D01*
X010975Y023953D01*
X011010Y023953D01*
X011044Y023953D01*
X011113Y023964D01*
X011178Y023986D01*
X011240Y024017D01*
X011296Y024058D01*
X011345Y024107D01*
X011386Y024163D01*
X011417Y024224D01*
X011439Y024290D01*
X011450Y024359D01*
X011450Y024393D01*
X011010Y024393D01*
X011010Y024393D01*
X011010Y023953D01*
X011010Y024393D01*
X011010Y024393D01*
X011450Y024393D01*
X011450Y024428D01*
X011439Y024496D01*
X011417Y024562D01*
X011386Y024624D01*
X011345Y024680D01*
X011296Y024729D01*
X011240Y024770D01*
X011178Y024801D01*
X011113Y024822D01*
X011044Y024833D01*
X011010Y024833D01*
X011010Y024393D01*
X011010Y024393D01*
X010570Y024393D01*
X010570Y024359D01*
X010580Y024290D01*
X010602Y024224D01*
X010633Y024163D01*
X010674Y024107D01*
X010723Y024058D01*
X010779Y024017D01*
X010841Y023986D01*
X010673Y024108D02*
X003578Y024108D01*
X003578Y024266D02*
X010588Y024266D01*
X010570Y024393D02*
X011010Y024393D01*
X011010Y024393D01*
X011010Y024833D01*
X010975Y024833D01*
X010906Y024822D01*
X010841Y024801D01*
X010779Y024770D01*
X010723Y024729D01*
X010674Y024680D01*
X010633Y024624D01*
X010602Y024562D01*
X010580Y024496D01*
X010570Y024428D01*
X010570Y024393D01*
X010570Y024425D02*
X003578Y024425D01*
X003578Y024583D02*
X010613Y024583D01*
X010741Y024742D02*
X003578Y024742D01*
X003578Y024900D02*
X015508Y024900D01*
X015508Y025043D02*
X015508Y024744D01*
X015623Y024468D01*
X015834Y024256D01*
X016110Y024142D01*
X016409Y024142D01*
X016685Y024256D01*
X016896Y024468D01*
X017011Y024744D01*
X017011Y025043D01*
X016896Y025319D01*
X016685Y025530D01*
X016436Y025633D01*
X017985Y025633D01*
X018045Y025573D01*
X018184Y025515D01*
X018335Y025515D01*
X018474Y025573D01*
X018580Y025679D01*
X018638Y025818D01*
X018638Y025969D01*
X018580Y026107D01*
X018474Y026214D01*
X018335Y026271D01*
X018184Y026271D01*
X018045Y026214D01*
X017985Y026153D01*
X014408Y026153D01*
X014470Y026302D01*
X014470Y026485D01*
X014399Y026654D01*
X014270Y026783D01*
X014101Y026853D01*
X014002Y026853D01*
X013644Y027212D01*
X013526Y027261D01*
X009739Y027261D01*
X009735Y027269D01*
X009572Y027432D01*
X009359Y027521D01*
X009128Y027521D01*
X008915Y027432D01*
X008752Y027269D01*
X008752Y027268D01*
X008751Y027269D01*
X008588Y027432D01*
X008375Y027521D01*
X008144Y027521D01*
X007931Y027432D01*
X007768Y027269D01*
X007754Y027235D01*
X007702Y027305D01*
X007640Y027368D01*
X007569Y027420D01*
X007490Y027460D01*
X007406Y027487D01*
X007319Y027501D01*
X007294Y027501D01*
X007294Y026959D01*
X007257Y026959D01*
X007257Y027501D01*
X007231Y027501D01*
X007144Y027487D01*
X007060Y027460D01*
X006982Y027420D01*
X006910Y027368D01*
X006848Y027305D01*
X006796Y027234D01*
X006756Y027156D01*
X006729Y027072D01*
X006715Y026985D01*
X006715Y026959D01*
X007257Y026959D01*
X007257Y026922D01*
X007294Y026922D01*
X007294Y026381D01*
X007319Y026381D01*
X007406Y026394D01*
X007490Y026422D01*
X007569Y026462D01*
X007640Y026513D01*
X007702Y026576D01*
X007754Y026646D01*
X007768Y026612D01*
X007931Y026449D01*
X008144Y026361D01*
X008375Y026361D01*
X008588Y026449D01*
X008751Y026612D01*
X008752Y026613D01*
X008752Y026612D01*
X008915Y026449D01*
X009128Y026361D01*
X009359Y026361D01*
X009572Y026449D01*
X009735Y026612D01*
X009739Y026621D01*
X010606Y026621D01*
X010550Y026485D01*
X009609Y026485D01*
X009727Y027278D02*
X015931Y027278D01*
X015846Y027119D02*
X013736Y027119D01*
X013895Y026961D02*
X015776Y026961D01*
X015763Y026802D02*
X014224Y026802D01*
X014404Y026644D02*
X015799Y026644D01*
X015902Y026485D02*
X014469Y026485D01*
X014470Y026327D02*
X018685Y026327D01*
X018685Y026485D02*
X016617Y026485D01*
X016720Y026644D02*
X018685Y026644D01*
X018685Y026802D02*
X016756Y026802D01*
X016743Y026961D02*
X017886Y026961D01*
X017756Y027119D02*
X016673Y027119D01*
X016588Y027278D02*
X017690Y027278D01*
X017690Y027436D02*
X016831Y027436D01*
X016975Y027595D02*
X017726Y027595D01*
X017813Y027753D02*
X017041Y027753D01*
X017084Y028229D02*
X017556Y028229D01*
X017398Y028387D02*
X017019Y028387D01*
X016935Y028546D02*
X017239Y028546D01*
X017658Y028863D02*
X017923Y028863D01*
X017937Y028877D02*
X017790Y028730D01*
X017480Y029041D01*
X017407Y029114D01*
X017311Y029153D01*
X016598Y029153D01*
X016620Y029163D01*
X016712Y029216D01*
X016797Y029281D01*
X016872Y029356D01*
X016937Y029441D01*
X016990Y029533D01*
X017031Y029631D01*
X017059Y029734D01*
X017069Y029813D01*
X016340Y029813D01*
X016340Y029973D01*
X017069Y029973D01*
X017059Y030052D01*
X017031Y030155D01*
X016990Y030254D01*
X016937Y030346D01*
X016930Y030355D01*
X017112Y030173D01*
X017208Y030133D01*
X017750Y030133D01*
X017776Y030070D01*
X017937Y029910D01*
X017977Y029893D01*
X017937Y029877D01*
X017776Y029716D01*
X017690Y029507D01*
X017690Y029280D01*
X017776Y029070D01*
X017937Y028910D01*
X017977Y028893D01*
X017937Y028877D01*
X017825Y029021D02*
X017499Y029021D01*
X017731Y029180D02*
X016650Y029180D01*
X016854Y029338D02*
X017690Y029338D01*
X017690Y029497D02*
X016969Y029497D01*
X017038Y029655D02*
X017751Y029655D01*
X017874Y029814D02*
X016340Y029814D01*
X016340Y029972D02*
X017874Y029972D01*
X017751Y030131D02*
X017038Y030131D01*
X016996Y030289D02*
X016970Y030289D01*
X016180Y029972D02*
X014798Y029972D01*
X014720Y030131D02*
X015481Y030131D01*
X015549Y030289D02*
X014697Y030289D01*
X014606Y030448D02*
X015664Y030448D01*
X015868Y030606D02*
X010323Y030606D01*
X010111Y030606D02*
X009951Y030606D01*
X009951Y030660D02*
X009881Y030651D01*
X009783Y030625D01*
X009690Y030586D01*
X009602Y030535D01*
X009522Y030474D01*
X009451Y030402D01*
X009389Y030322D01*
X009339Y030235D01*
X009300Y030142D01*
X009274Y030044D01*
X009264Y029973D01*
X009951Y029973D01*
X009951Y030660D01*
X009951Y030448D02*
X010111Y030448D01*
X010111Y030289D02*
X009951Y030289D01*
X009951Y030131D02*
X010111Y030131D01*
X010111Y029972D02*
X010832Y029972D01*
X010800Y030052D02*
X010870Y029883D01*
X010999Y029753D01*
X011168Y029683D01*
X011351Y029683D01*
X011520Y029753D01*
X011649Y029883D01*
X011650Y029883D01*
X012485Y029883D01*
X012545Y029823D01*
X012684Y029765D01*
X012835Y029765D01*
X012974Y029823D01*
X013080Y029929D01*
X013138Y030068D01*
X013138Y030219D01*
X013080Y030357D01*
X012974Y030464D01*
X012835Y030521D01*
X012684Y030521D01*
X012545Y030464D01*
X012485Y030403D01*
X011650Y030403D01*
X011649Y030404D01*
X011520Y030533D01*
X011351Y030603D01*
X011168Y030603D01*
X010999Y030533D01*
X010870Y030404D01*
X010800Y030235D01*
X010800Y030052D01*
X010800Y030131D02*
X010765Y030131D01*
X010822Y030289D02*
X010692Y030289D01*
X010566Y030448D02*
X010914Y030448D01*
X010999Y030753D02*
X010870Y030883D01*
X010800Y031052D01*
X010800Y031235D01*
X010870Y031404D01*
X010999Y031533D01*
X011168Y031603D01*
X011351Y031603D01*
X011520Y031533D01*
X011649Y031404D01*
X011720Y031235D01*
X011720Y031052D01*
X011649Y030883D01*
X011520Y030753D01*
X011351Y030683D01*
X011168Y030683D01*
X010999Y030753D01*
X010987Y030765D02*
X005957Y030765D01*
X005970Y030735D02*
X005899Y030904D01*
X005770Y031033D01*
X005601Y031103D01*
X005418Y031103D01*
X005249Y031033D01*
X005120Y030904D01*
X005050Y030735D01*
X005050Y030552D01*
X005120Y030383D01*
X005249Y030253D01*
X005418Y030183D01*
X005601Y030183D01*
X005770Y030253D01*
X005868Y030351D01*
X005846Y030322D01*
X005795Y030235D01*
X005757Y030142D01*
X005730Y030044D01*
X005721Y029973D01*
X006408Y029973D01*
X006408Y029813D01*
X006568Y029813D01*
X006568Y029127D01*
X006639Y029136D01*
X006736Y029162D01*
X006829Y029201D01*
X006917Y029251D01*
X006997Y029313D01*
X007068Y029384D01*
X007130Y029464D01*
X007180Y029552D01*
X007219Y029645D01*
X007245Y029743D01*
X007255Y029813D01*
X006568Y029813D01*
X006568Y029973D01*
X007255Y029973D01*
X007245Y030044D01*
X007219Y030142D01*
X007180Y030235D01*
X007130Y030322D01*
X007068Y030402D01*
X006997Y030474D01*
X006917Y030535D01*
X006829Y030586D01*
X006736Y030625D01*
X006639Y030651D01*
X006568Y030660D01*
X006568Y029973D01*
X006408Y029973D01*
X006408Y030660D01*
X006337Y030651D01*
X006240Y030625D01*
X006146Y030586D01*
X006059Y030535D01*
X005979Y030474D01*
X005908Y030403D01*
X005970Y030552D01*
X005970Y030735D01*
X005970Y030606D02*
X006196Y030606D01*
X006408Y030606D02*
X006568Y030606D01*
X006568Y030448D02*
X006408Y030448D01*
X006408Y030289D02*
X006568Y030289D01*
X006568Y030131D02*
X006408Y030131D01*
X006408Y029972D02*
X003578Y029972D01*
X003578Y029814D02*
X006408Y029814D01*
X006408Y029813D02*
X005721Y029813D01*
X005730Y029743D01*
X005757Y029645D01*
X005795Y029552D01*
X005846Y029464D01*
X005907Y029384D01*
X005979Y029313D01*
X006059Y029251D01*
X006146Y029201D01*
X006240Y029162D01*
X006337Y029136D01*
X006408Y029127D01*
X006408Y029813D01*
X006408Y029655D02*
X006568Y029655D01*
X006568Y029497D02*
X006408Y029497D01*
X006408Y029338D02*
X006568Y029338D01*
X006568Y029180D02*
X006408Y029180D01*
X006197Y029180D02*
X003578Y029180D01*
X003578Y029338D02*
X005953Y029338D01*
X005827Y029497D02*
X003578Y029497D01*
X003578Y029655D02*
X005754Y029655D01*
X005754Y030131D02*
X003578Y030131D01*
X003578Y030289D02*
X003713Y030289D01*
X003593Y030448D02*
X003578Y030448D01*
X003578Y030923D02*
X003639Y030923D01*
X003578Y031082D02*
X003866Y031082D01*
X003578Y031240D02*
X010802Y031240D01*
X010800Y031082D02*
X005653Y031082D01*
X005880Y030923D02*
X010853Y030923D01*
X010867Y031399D02*
X003578Y031399D01*
X003578Y031557D02*
X005195Y031557D01*
X005249Y031503D02*
X005120Y031633D01*
X005050Y031802D01*
X005050Y031985D01*
X005120Y032154D01*
X005249Y032283D01*
X005418Y032353D01*
X005601Y032353D01*
X005770Y032283D01*
X005899Y032154D01*
X005970Y031985D01*
X005970Y031802D01*
X005899Y031633D01*
X005770Y031503D01*
X005601Y031433D01*
X005418Y031433D01*
X005249Y031503D01*
X005085Y031716D02*
X003578Y031716D01*
X003578Y031874D02*
X005050Y031874D01*
X005069Y032033D02*
X003578Y032033D01*
X003578Y032191D02*
X005157Y032191D01*
X005410Y032350D02*
X003578Y032350D01*
X003578Y032508D02*
X010974Y032508D01*
X010999Y032533D02*
X010870Y032404D01*
X010800Y032235D01*
X010800Y032052D01*
X010870Y031883D01*
X010999Y031753D01*
X011168Y031683D01*
X011351Y031683D01*
X011520Y031753D01*
X011649Y031883D01*
X011720Y032052D01*
X011720Y032235D01*
X011649Y032404D01*
X011520Y032533D01*
X011351Y032603D01*
X011168Y032603D01*
X010999Y032533D01*
X010999Y032753D02*
X011168Y032683D01*
X011351Y032683D01*
X011520Y032753D01*
X011649Y032883D01*
X011720Y033052D01*
X011720Y033235D01*
X011649Y033404D01*
X011520Y033533D01*
X011351Y033603D01*
X011168Y033603D01*
X010999Y033533D01*
X010870Y033404D01*
X010800Y033235D01*
X010800Y033052D01*
X010870Y032883D01*
X010999Y032753D01*
X010927Y032825D02*
X010589Y032825D01*
X010647Y032884D02*
X010717Y033052D01*
X010717Y033234D01*
X010647Y033402D01*
X010519Y033531D01*
X010351Y033601D01*
X010169Y033601D01*
X010000Y033531D01*
X009872Y033402D01*
X009802Y033234D01*
X009802Y033052D01*
X009872Y032884D01*
X010000Y032755D01*
X010169Y032686D01*
X010351Y032686D01*
X010519Y032755D01*
X010647Y032884D01*
X010689Y032984D02*
X010828Y032984D01*
X010800Y033142D02*
X010717Y033142D01*
X010689Y033301D02*
X010827Y033301D01*
X010925Y033459D02*
X010590Y033459D01*
X010924Y033857D02*
X010883Y033913D01*
X010852Y033974D01*
X010830Y034040D01*
X010820Y034109D01*
X010820Y034143D01*
X011260Y034143D01*
X011260Y034143D01*
X011700Y034143D01*
X011700Y034109D01*
X011689Y034040D01*
X011667Y033974D01*
X011636Y033913D01*
X011595Y033857D01*
X011546Y033808D01*
X011490Y033767D01*
X011428Y033736D01*
X011363Y033714D01*
X011294Y033703D01*
X011260Y033703D01*
X011260Y034143D01*
X011260Y034143D01*
X011700Y034143D01*
X011700Y034178D01*
X011689Y034246D01*
X011667Y034312D01*
X011636Y034374D01*
X011595Y034430D01*
X011546Y034479D01*
X011490Y034520D01*
X011428Y034551D01*
X011363Y034572D01*
X011294Y034583D01*
X011260Y034583D01*
X011260Y034143D01*
X011260Y033703D01*
X011225Y033703D01*
X011156Y033714D01*
X011091Y033736D01*
X011029Y033767D01*
X010973Y033808D01*
X010924Y033857D01*
X010872Y033935D02*
X009539Y033935D01*
X009572Y033949D02*
X009735Y034112D01*
X009824Y034325D01*
X009824Y034556D01*
X009735Y034769D01*
X009604Y034901D01*
X009657Y034923D01*
X009730Y034996D01*
X010117Y035383D01*
X010861Y035383D01*
X010800Y035235D01*
X010800Y035052D01*
X010870Y034883D01*
X010999Y034753D01*
X011168Y034683D01*
X011351Y034683D01*
X011520Y034753D01*
X011590Y034823D01*
X011877Y034823D01*
X012828Y033872D01*
X012946Y033823D01*
X013929Y033823D01*
X013999Y033753D01*
X014168Y033683D01*
X014351Y033683D01*
X014520Y033753D01*
X014649Y033883D01*
X014720Y034052D01*
X014720Y034235D01*
X014649Y034404D01*
X014520Y034533D01*
X014351Y034603D01*
X014168Y034603D01*
X013999Y034533D01*
X013929Y034463D01*
X013142Y034463D01*
X012281Y035325D01*
X012222Y035383D01*
X013811Y035383D01*
X013907Y035423D01*
X014167Y035684D01*
X014168Y035683D01*
X014351Y035683D01*
X014520Y035753D01*
X014649Y035883D01*
X014720Y036052D01*
X014720Y036235D01*
X014649Y036404D01*
X014520Y036533D01*
X014351Y036603D01*
X014168Y036603D01*
X013999Y036533D01*
X013870Y036404D01*
X013800Y036235D01*
X013800Y036052D01*
X013800Y036051D01*
X013652Y035903D01*
X011658Y035903D01*
X011720Y036052D01*
X011720Y036235D01*
X011649Y036404D01*
X011638Y036415D01*
X011657Y036423D01*
X011730Y036496D01*
X012117Y036883D01*
X013869Y036883D01*
X013870Y036883D01*
X013999Y036753D01*
X014168Y036683D01*
X014351Y036683D01*
X014520Y036753D01*
X014649Y036883D01*
X014720Y037052D01*
X014720Y037235D01*
X014649Y037404D01*
X014520Y037533D01*
X014351Y037603D01*
X014168Y037603D01*
X013999Y037533D01*
X013870Y037404D01*
X013869Y037403D01*
X011958Y037403D01*
X011862Y037364D01*
X011720Y037221D01*
X011720Y037235D01*
X011649Y037404D01*
X011520Y037533D01*
X011351Y037603D01*
X011168Y037603D01*
X010999Y037533D01*
X010870Y037404D01*
X010800Y037235D01*
X010800Y037052D01*
X010861Y036903D01*
X010708Y036903D01*
X010612Y036864D01*
X010539Y036791D01*
X010402Y036653D01*
X010247Y036653D01*
X010279Y036662D01*
X010373Y036701D01*
X010460Y036751D01*
X010540Y036813D01*
X010612Y036884D01*
X010673Y036964D01*
X010724Y037052D01*
X010762Y037145D01*
X010789Y037243D01*
X010798Y037313D01*
X010111Y037313D01*
X010111Y037473D01*
X010798Y037473D01*
X010789Y037544D01*
X010762Y037642D01*
X010724Y037735D01*
X010673Y037822D01*
X010612Y037902D01*
X010540Y037974D01*
X010460Y038035D01*
X010373Y038086D01*
X010279Y038125D01*
X010182Y038151D01*
X010111Y038160D01*
X010111Y037473D01*
X009951Y037473D01*
X009951Y037313D01*
X009264Y037313D01*
X009274Y037243D01*
X009300Y037145D01*
X009339Y037052D01*
X009389Y036964D01*
X009451Y036884D01*
X009522Y036813D01*
X009602Y036751D01*
X009690Y036701D01*
X009783Y036662D01*
X009816Y036653D01*
X009208Y036653D01*
X009112Y036614D01*
X009039Y036541D01*
X008152Y035653D01*
X005958Y035653D01*
X005862Y035614D01*
X005789Y035541D01*
X005602Y035353D01*
X005601Y035353D01*
X005418Y035353D01*
X005249Y035283D01*
X005120Y035154D01*
X005050Y034985D01*
X005050Y034802D01*
X005120Y034633D01*
X005249Y034503D01*
X005418Y034433D01*
X005601Y034433D01*
X005770Y034503D01*
X005899Y034633D01*
X005970Y034802D01*
X005970Y034985D01*
X005969Y034985D01*
X006117Y035133D01*
X008311Y035133D01*
X008407Y035173D01*
X008480Y035246D01*
X009367Y036133D01*
X010561Y036133D01*
X010657Y036173D01*
X010857Y036373D01*
X010800Y036235D01*
X010800Y036052D01*
X010861Y035903D01*
X009958Y035903D01*
X009862Y035864D01*
X009402Y035403D01*
X008911Y035403D01*
X008815Y035364D01*
X008443Y034992D01*
X008375Y035021D01*
X008144Y035021D01*
X007931Y034932D01*
X007768Y034769D01*
X007754Y034735D01*
X007702Y034805D01*
X007640Y034868D01*
X007569Y034920D01*
X007490Y034960D01*
X007406Y034987D01*
X007319Y035001D01*
X007294Y035001D01*
X007294Y034459D01*
X007257Y034459D01*
X007257Y035001D01*
X007231Y035001D01*
X007144Y034987D01*
X007060Y034960D01*
X006982Y034920D01*
X006910Y034868D01*
X006848Y034805D01*
X006796Y034734D01*
X006756Y034656D01*
X006729Y034572D01*
X006715Y034485D01*
X006715Y034459D01*
X007257Y034459D01*
X007257Y034422D01*
X007294Y034422D01*
X007294Y033881D01*
X007319Y033881D01*
X007406Y033894D01*
X007490Y033922D01*
X007569Y033962D01*
X007640Y034013D01*
X007702Y034076D01*
X007754Y034146D01*
X007768Y034112D01*
X007931Y033949D01*
X008144Y033861D01*
X008375Y033861D01*
X008588Y033949D01*
X008751Y034112D01*
X008752Y034113D01*
X008752Y034112D01*
X008915Y033949D01*
X009128Y033861D01*
X009359Y033861D01*
X009572Y033949D01*
X009717Y034093D02*
X010822Y034093D01*
X010820Y034143D02*
X011260Y034143D01*
X011260Y034143D01*
X011260Y034143D01*
X011260Y034583D01*
X011225Y034583D01*
X011156Y034572D01*
X011091Y034551D01*
X011029Y034520D01*
X010973Y034479D01*
X010924Y034430D01*
X010883Y034374D01*
X010852Y034312D01*
X010830Y034246D01*
X010820Y034178D01*
X010820Y034143D01*
X010832Y034252D02*
X009793Y034252D01*
X009824Y034410D02*
X010910Y034410D01*
X011145Y034569D02*
X009818Y034569D01*
X009753Y034727D02*
X011062Y034727D01*
X010868Y034886D02*
X009619Y034886D01*
X009778Y035044D02*
X010803Y035044D01*
X010800Y035203D02*
X009937Y035203D01*
X010095Y035361D02*
X010852Y035361D01*
X010823Y035995D02*
X009229Y035995D01*
X009071Y035837D02*
X009835Y035837D01*
X009677Y035678D02*
X008912Y035678D01*
X008754Y035520D02*
X009518Y035520D01*
X008969Y036471D02*
X004643Y036471D01*
X004582Y036410D02*
X004743Y036570D01*
X004830Y036780D01*
X004830Y037007D01*
X004803Y037070D01*
X005867Y038133D01*
X006272Y038133D01*
X006240Y038125D01*
X006146Y038086D01*
X006059Y038035D01*
X005979Y037974D01*
X005907Y037902D01*
X005846Y037822D01*
X005795Y037735D01*
X005757Y037642D01*
X005730Y037544D01*
X005721Y037473D01*
X006408Y037473D01*
X006408Y037313D01*
X006568Y037313D01*
X006568Y036627D01*
X006639Y036636D01*
X006736Y036662D01*
X006829Y036701D01*
X006917Y036751D01*
X006997Y036813D01*
X007068Y036884D01*
X007130Y036964D01*
X007180Y037052D01*
X007219Y037145D01*
X007245Y037243D01*
X007255Y037313D01*
X006568Y037313D01*
X006568Y037473D01*
X007255Y037473D01*
X007245Y037544D01*
X007219Y037642D01*
X007180Y037735D01*
X007130Y037822D01*
X007068Y037902D01*
X006997Y037974D01*
X006917Y038035D01*
X006829Y038086D01*
X006736Y038125D01*
X006703Y038133D01*
X009811Y038133D01*
X009907Y038173D01*
X009980Y038246D01*
X010617Y038883D01*
X010869Y038883D01*
X010870Y038883D01*
X010999Y038753D01*
X011168Y038683D01*
X011351Y038683D01*
X011520Y038753D01*
X011649Y038883D01*
X011720Y039052D01*
X011720Y039235D01*
X011649Y039404D01*
X011520Y039533D01*
X011351Y039603D01*
X011168Y039603D01*
X010999Y039533D01*
X010870Y039404D01*
X010869Y039403D01*
X010458Y039403D01*
X010362Y039364D01*
X009652Y038653D01*
X009387Y038653D01*
X010617Y039883D01*
X010869Y039883D01*
X010870Y039883D01*
X010999Y039753D01*
X011168Y039683D01*
X011351Y039683D01*
X011520Y039753D01*
X011649Y039883D01*
X011720Y040052D01*
X011720Y040235D01*
X011649Y040404D01*
X011520Y040533D01*
X011351Y040603D01*
X011168Y040603D01*
X010999Y040533D01*
X010870Y040404D01*
X010869Y040403D01*
X010458Y040403D01*
X010362Y040364D01*
X010220Y040221D01*
X010220Y040235D01*
X010149Y040404D01*
X010020Y040533D01*
X009851Y040603D01*
X009668Y040603D01*
X009499Y040533D01*
X009370Y040404D01*
X009300Y040235D01*
X009300Y040052D01*
X009370Y039883D01*
X009499Y039753D01*
X009668Y039683D01*
X009682Y039683D01*
X008902Y038903D01*
X005458Y038903D01*
X005362Y038864D01*
X004729Y038230D01*
X004582Y038377D01*
X004542Y038393D01*
X004582Y038410D01*
X004743Y038570D01*
X004830Y038780D01*
X004830Y039007D01*
X004829Y039007D02*
X009005Y039007D01*
X009164Y039165D02*
X007066Y039165D01*
X007080Y039179D02*
X007138Y039318D01*
X007138Y039404D01*
X007907Y040173D01*
X007980Y040246D01*
X008020Y040342D01*
X008020Y040503D01*
X008149Y040633D01*
X008220Y040802D01*
X008220Y040985D01*
X008149Y041154D01*
X008020Y041283D01*
X007851Y041353D01*
X007668Y041353D01*
X007499Y041283D01*
X007370Y041154D01*
X007300Y040985D01*
X007300Y040802D01*
X007370Y040633D01*
X007499Y040503D01*
X007500Y040503D01*
X007500Y040501D01*
X007220Y040221D01*
X007220Y040235D01*
X007149Y040404D01*
X007020Y040533D01*
X006851Y040603D01*
X006668Y040603D01*
X006499Y040533D01*
X006370Y040404D01*
X006300Y040235D01*
X006300Y040052D01*
X006370Y039883D01*
X006499Y039753D01*
X006570Y039724D01*
X006545Y039714D01*
X006439Y039607D01*
X006381Y039469D01*
X006381Y039318D01*
X006439Y039179D01*
X006545Y039073D01*
X006684Y039015D01*
X006835Y039015D01*
X006974Y039073D01*
X007080Y039179D01*
X007138Y039324D02*
X009322Y039324D01*
X009481Y039482D02*
X007216Y039482D01*
X007375Y039641D02*
X009639Y039641D01*
X009453Y039799D02*
X007533Y039799D01*
X007692Y039958D02*
X009338Y039958D01*
X009300Y040116D02*
X007850Y040116D01*
X007992Y040275D02*
X009316Y040275D01*
X009399Y040433D02*
X008020Y040433D01*
X008020Y040503D02*
X008020Y040503D01*
X008109Y040592D02*
X009640Y040592D01*
X009879Y040592D02*
X011140Y040592D01*
X011006Y040750D02*
X008198Y040750D01*
X008220Y040909D02*
X010859Y040909D01*
X010800Y041067D02*
X008185Y041067D01*
X008077Y041226D02*
X010800Y041226D01*
X010861Y041384D02*
X004507Y041384D01*
X004471Y041403D02*
X004548Y041364D01*
X004618Y041313D01*
X004679Y041252D01*
X004730Y041182D01*
X004769Y041104D01*
X004796Y041022D01*
X004810Y040937D01*
X004810Y040913D01*
X004280Y040913D01*
X004280Y040873D01*
X004810Y040873D01*
X004810Y040850D01*
X004796Y040765D01*
X004769Y040682D01*
X004730Y040605D01*
X004679Y040535D01*
X004618Y040474D01*
X004548Y040423D01*
X004490Y040393D01*
X004548Y040364D01*
X004618Y040313D01*
X004679Y040252D01*
X004730Y040182D01*
X004769Y040104D01*
X004796Y040022D01*
X004810Y039937D01*
X004810Y039913D01*
X004280Y039913D01*
X004280Y039873D01*
X004810Y039873D01*
X004810Y039850D01*
X004796Y039765D01*
X004769Y039682D01*
X004730Y039605D01*
X004679Y039535D01*
X004618Y039474D01*
X004548Y039423D01*
X004513Y039405D01*
X004582Y039377D01*
X004743Y039216D01*
X004830Y039007D01*
X004830Y038848D02*
X005347Y038848D01*
X005188Y038690D02*
X004792Y038690D01*
X004704Y038531D02*
X005030Y038531D01*
X004871Y038373D02*
X004586Y038373D01*
X004764Y039165D02*
X006453Y039165D01*
X006381Y039324D02*
X004635Y039324D01*
X004626Y039482D02*
X006387Y039482D01*
X006472Y039641D02*
X004748Y039641D01*
X004801Y039799D02*
X006453Y039799D01*
X006338Y039958D02*
X004806Y039958D01*
X004763Y040116D02*
X006300Y040116D01*
X006316Y040275D02*
X004656Y040275D01*
X004562Y040433D02*
X005668Y040433D01*
X005851Y040433D01*
X006020Y040503D01*
X006149Y040633D01*
X006220Y040802D01*
X006220Y040985D01*
X006149Y041154D01*
X006020Y041283D01*
X005851Y041353D01*
X005668Y041353D01*
X005499Y041283D01*
X005370Y041154D01*
X005300Y040985D01*
X005300Y040802D01*
X005370Y040633D01*
X005499Y040503D01*
X005668Y040433D01*
X005851Y040433D02*
X006399Y040433D01*
X006640Y040592D02*
X006109Y040592D01*
X006198Y040750D02*
X007321Y040750D01*
X007300Y040909D02*
X006220Y040909D01*
X006185Y041067D02*
X007334Y041067D01*
X007442Y041226D02*
X006077Y041226D01*
X005442Y041226D02*
X004698Y041226D01*
X004781Y041067D02*
X005334Y041067D01*
X005300Y040909D02*
X004280Y040909D01*
X004280Y040913D02*
X004240Y040913D01*
X004240Y041443D01*
X004216Y041443D01*
X004131Y041430D01*
X004048Y041403D01*
X003971Y041364D01*
X003901Y041313D01*
X003840Y041252D01*
X003789Y041182D01*
X003750Y041104D01*
X003723Y041022D01*
X003710Y040937D01*
X003710Y040913D01*
X004240Y040913D01*
X004240Y040873D01*
X004280Y040873D01*
X004280Y039913D01*
X004240Y039913D01*
X004240Y040443D01*
X004240Y040873D01*
X003710Y040873D01*
X003710Y040850D01*
X003723Y040765D01*
X003750Y040682D01*
X003789Y040605D01*
X003840Y040535D01*
X003901Y040474D01*
X003971Y040423D01*
X004029Y040393D01*
X003971Y040364D01*
X003901Y040313D01*
X003840Y040252D01*
X003789Y040182D01*
X003750Y040104D01*
X003723Y040022D01*
X003710Y039937D01*
X003710Y039913D01*
X004240Y039913D01*
X004240Y039873D01*
X003710Y039873D01*
X003710Y039850D01*
X003723Y039765D01*
X003750Y039682D01*
X003789Y039605D01*
X003840Y039535D01*
X003901Y039474D01*
X003971Y039423D01*
X004006Y039405D01*
X003937Y039377D01*
X003776Y039216D01*
X003690Y039007D01*
X003578Y039007D01*
X003690Y039007D02*
X003690Y038780D01*
X003776Y038570D01*
X003937Y038410D01*
X003977Y038393D01*
X003937Y038377D01*
X003776Y038216D01*
X003690Y038007D01*
X003690Y037780D01*
X003776Y037570D01*
X003937Y037410D01*
X003977Y037393D01*
X003937Y037377D01*
X003776Y037216D01*
X003690Y037007D01*
X003690Y036780D01*
X003776Y036570D01*
X003937Y036410D01*
X003977Y036393D01*
X003937Y036377D01*
X003776Y036216D01*
X003690Y036007D01*
X003690Y035780D01*
X003776Y035570D01*
X003937Y035410D01*
X004146Y035323D01*
X004373Y035323D01*
X004582Y035410D01*
X004743Y035570D01*
X004830Y035780D01*
X004830Y036007D01*
X004743Y036216D01*
X004582Y036377D01*
X004542Y036393D01*
X004582Y036410D01*
X004647Y036312D02*
X008811Y036312D01*
X008652Y036154D02*
X004769Y036154D01*
X004830Y035995D02*
X008494Y035995D01*
X008335Y035837D02*
X004830Y035837D01*
X004787Y035678D02*
X008177Y035678D01*
X008480Y035246D02*
X008480Y035246D01*
X008437Y035203D02*
X008654Y035203D01*
X008595Y035361D02*
X008813Y035361D01*
X008496Y035044D02*
X006028Y035044D01*
X005970Y034886D02*
X006935Y034886D01*
X006793Y034727D02*
X005939Y034727D01*
X005836Y034569D02*
X006729Y034569D01*
X006715Y034422D02*
X006715Y034396D01*
X006729Y034309D01*
X006756Y034226D01*
X006796Y034147D01*
X006848Y034076D01*
X006910Y034013D01*
X006982Y033962D01*
X007060Y033922D01*
X007144Y033894D01*
X007231Y033881D01*
X007257Y033881D01*
X007257Y034422D01*
X006715Y034422D01*
X006715Y034410D02*
X003578Y034410D01*
X003578Y034252D02*
X006748Y034252D01*
X006835Y034093D02*
X003578Y034093D01*
X003578Y033935D02*
X007034Y033935D01*
X007257Y033935D02*
X007294Y033935D01*
X007294Y034093D02*
X007257Y034093D01*
X007257Y034252D02*
X007294Y034252D01*
X007294Y034410D02*
X007257Y034410D01*
X007257Y034569D02*
X007294Y034569D01*
X007294Y034727D02*
X007257Y034727D01*
X007257Y034886D02*
X007294Y034886D01*
X007615Y034886D02*
X007885Y034886D01*
X007786Y034093D02*
X007715Y034093D01*
X007516Y033935D02*
X007965Y033935D01*
X008169Y033601D02*
X008000Y033531D01*
X007872Y033402D01*
X007802Y033234D01*
X007802Y033052D01*
X007872Y032884D01*
X008000Y032755D01*
X008169Y032686D01*
X008351Y032686D01*
X008519Y032755D01*
X008647Y032884D01*
X008717Y033052D01*
X008717Y033234D01*
X008647Y033402D01*
X008519Y033531D01*
X008351Y033601D01*
X008169Y033601D01*
X007929Y033459D02*
X003578Y033459D01*
X003578Y033301D02*
X007830Y033301D01*
X007802Y033142D02*
X003578Y033142D01*
X003578Y032984D02*
X007830Y032984D01*
X007930Y032825D02*
X003578Y032825D01*
X003578Y032667D02*
X015415Y032667D01*
X015691Y032984D02*
X018685Y032984D01*
X018685Y033142D02*
X016896Y033142D01*
X016862Y033128D02*
X017051Y033207D01*
X017196Y033352D01*
X017275Y033541D01*
X017275Y033746D01*
X017196Y033935D01*
X017051Y034080D01*
X016862Y034158D01*
X016862Y034158D01*
X016875Y034160D01*
X016950Y034185D01*
X017019Y034220D01*
X017082Y034266D01*
X017137Y034321D01*
X017183Y034384D01*
X017218Y034453D01*
X017242Y034527D01*
X017255Y034604D01*
X017255Y034643D01*
X016760Y034643D01*
X016760Y034643D01*
X017255Y034643D01*
X017255Y034682D01*
X017242Y034759D01*
X017218Y034833D01*
X017183Y034903D01*
X017137Y034966D01*
X017082Y035021D01*
X017019Y035067D01*
X016950Y035102D01*
X016875Y035126D01*
X016798Y035138D01*
X016760Y035138D01*
X016760Y034643D01*
X016760Y034643D01*
X016265Y034643D01*
X016265Y034604D01*
X016277Y034527D01*
X016301Y034453D01*
X016336Y034384D01*
X016382Y034321D01*
X016437Y034266D01*
X016500Y034220D01*
X016569Y034185D01*
X016644Y034160D01*
X016657Y034158D01*
X016468Y034080D01*
X016323Y033935D01*
X016245Y033746D01*
X016245Y033541D01*
X016323Y033352D01*
X016468Y033207D01*
X016657Y033128D01*
X016862Y033128D01*
X016623Y033142D02*
X015720Y033142D01*
X015692Y033301D02*
X016374Y033301D01*
X016278Y033459D02*
X015594Y033459D01*
X016245Y033618D02*
X003578Y033618D01*
X003578Y033776D02*
X011016Y033776D01*
X011260Y033776D02*
X011260Y033776D01*
X011260Y033935D02*
X011260Y033935D01*
X011260Y034093D02*
X011260Y034093D01*
X011260Y034252D02*
X011260Y034252D01*
X011260Y034410D02*
X011260Y034410D01*
X011260Y034569D02*
X011260Y034569D01*
X011374Y034569D02*
X012131Y034569D01*
X011973Y034727D02*
X011457Y034727D01*
X011609Y034410D02*
X012290Y034410D01*
X012448Y034252D02*
X011687Y034252D01*
X011697Y034093D02*
X012607Y034093D01*
X012765Y033935D02*
X011647Y033935D01*
X011503Y033776D02*
X013976Y033776D01*
X013925Y033459D02*
X011594Y033459D01*
X011692Y033301D02*
X013827Y033301D01*
X013800Y033142D02*
X011720Y033142D01*
X011691Y032984D02*
X013828Y032984D01*
X013927Y032825D02*
X011592Y032825D01*
X011545Y032508D02*
X013974Y032508D01*
X013847Y032350D02*
X011672Y032350D01*
X011720Y032191D02*
X013800Y032191D01*
X013807Y032033D02*
X011712Y032033D01*
X011641Y031874D02*
X012456Y031874D01*
X012381Y031716D02*
X011430Y031716D01*
X011462Y031557D02*
X012386Y031557D01*
X011980Y031399D02*
X011652Y031399D01*
X011717Y031240D02*
X011890Y031240D01*
X011881Y031082D02*
X011720Y031082D01*
X011666Y030923D02*
X011945Y030923D01*
X011532Y030765D02*
X013987Y030765D01*
X013914Y030448D02*
X012990Y030448D01*
X013108Y030289D02*
X013822Y030289D01*
X013800Y030131D02*
X013138Y030131D01*
X013098Y029972D02*
X013832Y029972D01*
X013938Y029814D02*
X012952Y029814D01*
X012567Y029814D02*
X011581Y029814D01*
X011557Y029497D02*
X013963Y029497D01*
X013842Y029338D02*
X011677Y029338D01*
X011720Y029180D02*
X013800Y029180D01*
X013812Y029021D02*
X011707Y029021D01*
X011520Y027753D02*
X013999Y027753D01*
X013857Y027912D02*
X013063Y027912D01*
X013138Y028070D02*
X013800Y028070D01*
X013800Y028229D02*
X013133Y028229D01*
X013330Y026621D02*
X013550Y026401D01*
X013550Y026302D01*
X013611Y026153D01*
X012084Y026153D01*
X012024Y026214D01*
X011885Y026271D01*
X011734Y026271D01*
X011595Y026214D01*
X011489Y026107D01*
X011431Y025969D01*
X011431Y025818D01*
X011489Y025679D01*
X011595Y025573D01*
X011734Y025515D01*
X011885Y025515D01*
X012024Y025573D01*
X012084Y025633D01*
X012465Y025633D01*
X012439Y025607D01*
X012381Y025469D01*
X012381Y025318D01*
X012439Y025179D01*
X012545Y025073D01*
X012684Y025015D01*
X012835Y025015D01*
X012974Y025073D01*
X013034Y025133D01*
X013619Y025133D01*
X013620Y025133D01*
X013749Y025003D01*
X013918Y024933D01*
X014101Y024933D01*
X014270Y025003D01*
X014399Y025133D01*
X014470Y025302D01*
X014470Y025485D01*
X014408Y025633D01*
X016083Y025633D01*
X015834Y025530D01*
X015623Y025319D01*
X015508Y025043D01*
X015515Y025059D02*
X014326Y025059D01*
X014435Y025217D02*
X015581Y025217D01*
X015680Y025376D02*
X014470Y025376D01*
X014449Y025534D02*
X015844Y025534D01*
X015509Y024742D02*
X014312Y024742D01*
X014429Y024583D02*
X015575Y024583D01*
X015666Y024425D02*
X014470Y024425D01*
X014455Y024266D02*
X015824Y024266D01*
X016241Y023949D02*
X016278Y023949D01*
X016278Y023791D02*
X016241Y023791D01*
X016241Y023632D02*
X016278Y023632D01*
X016278Y023474D02*
X016241Y023474D01*
X016241Y023315D02*
X016278Y023315D01*
X016278Y023157D02*
X016241Y023157D01*
X016241Y022998D02*
X016278Y022998D01*
X016278Y022840D02*
X016241Y022840D01*
X016241Y022681D02*
X016278Y022681D01*
X016278Y022523D02*
X016241Y022523D01*
X016241Y022364D02*
X016278Y022364D01*
X016278Y022206D02*
X016241Y022206D01*
X016627Y022364D02*
X018685Y022364D01*
X018685Y022206D02*
X016713Y022206D01*
X016690Y022523D02*
X018685Y022523D01*
X018685Y022681D02*
X016735Y022681D01*
X016725Y022840D02*
X016701Y022911D01*
X016667Y022978D01*
X016512Y023157D02*
X018685Y023157D01*
X018685Y023315D02*
X016669Y023315D01*
X016728Y023474D02*
X018685Y023474D01*
X018685Y023632D02*
X016731Y023632D01*
X016678Y023791D02*
X018685Y023791D01*
X018685Y023949D02*
X016538Y023949D01*
X016695Y024266D02*
X018685Y024266D01*
X018685Y024108D02*
X014375Y024108D01*
X013879Y023949D02*
X005854Y023949D01*
X006384Y023157D02*
X004311Y023157D01*
X004489Y022998D02*
X006011Y022998D01*
X005859Y022840D02*
X004567Y022840D01*
X004600Y022681D02*
X005773Y022681D01*
X005728Y022523D02*
X004598Y022523D01*
X004533Y022364D02*
X006408Y022364D01*
X006408Y022523D02*
X006568Y022523D01*
X006568Y022681D02*
X006408Y022681D01*
X006408Y022840D02*
X006568Y022840D01*
X006568Y022998D02*
X006408Y022998D01*
X006408Y023157D02*
X006568Y023157D01*
X006592Y023157D02*
X009927Y023157D01*
X009554Y022998D02*
X006965Y022998D01*
X007116Y022840D02*
X009403Y022840D01*
X009316Y022681D02*
X007203Y022681D01*
X007248Y022523D02*
X009271Y022523D01*
X009284Y022206D02*
X007235Y022206D01*
X007178Y022047D02*
X009341Y022047D01*
X009447Y021889D02*
X007072Y021889D01*
X006881Y021730D02*
X009638Y021730D01*
X010660Y022840D02*
X011136Y022840D01*
X010897Y022681D02*
X010746Y022681D01*
X010791Y022523D02*
X010815Y022523D01*
X010761Y022998D02*
X010508Y022998D01*
X011252Y023791D02*
X013821Y023791D01*
X013639Y023632D02*
X011408Y023632D01*
X011470Y023474D02*
X013577Y023474D01*
X013576Y023315D02*
X011470Y023315D01*
X011409Y023157D02*
X013637Y023157D01*
X013644Y024108D02*
X011346Y024108D01*
X011431Y024266D02*
X013564Y024266D01*
X013550Y024425D02*
X011450Y024425D01*
X011407Y024583D02*
X013590Y024583D01*
X013708Y024742D02*
X011278Y024742D01*
X011101Y024933D02*
X011270Y025003D01*
X011399Y025133D01*
X011470Y025302D01*
X011470Y025485D01*
X011399Y025654D01*
X011270Y025783D01*
X011101Y025853D01*
X010918Y025853D01*
X010749Y025783D01*
X010743Y025777D01*
X010480Y026041D01*
X010407Y026114D01*
X010311Y026153D01*
X007208Y026153D01*
X007112Y026114D01*
X006852Y025853D01*
X006851Y025853D01*
X006668Y025853D01*
X006499Y025783D01*
X006370Y025654D01*
X006300Y025485D01*
X006300Y025302D01*
X006370Y025133D01*
X006499Y025003D01*
X006668Y024933D01*
X006851Y024933D01*
X007020Y025003D01*
X007149Y025133D01*
X007220Y025302D01*
X007220Y025485D01*
X007219Y025485D01*
X007367Y025633D01*
X009361Y025633D01*
X009300Y025485D01*
X009300Y025302D01*
X009370Y025133D01*
X009499Y025003D01*
X009668Y024933D01*
X009851Y024933D01*
X010020Y025003D01*
X010149Y025133D01*
X010220Y025302D01*
X010220Y025485D01*
X010162Y025623D01*
X010596Y025189D01*
X010620Y025133D01*
X010749Y025003D01*
X010918Y024933D01*
X011101Y024933D01*
X011010Y024742D02*
X011010Y024742D01*
X011010Y024583D02*
X011010Y024583D01*
X011010Y024425D02*
X011010Y024425D01*
X011010Y024266D02*
X011010Y024266D01*
X011010Y024108D02*
X011010Y024108D01*
X011326Y025059D02*
X012579Y025059D01*
X012423Y025217D02*
X011435Y025217D01*
X011470Y025376D02*
X012381Y025376D01*
X012409Y025534D02*
X011931Y025534D01*
X011688Y025534D02*
X011449Y025534D01*
X011483Y025693D02*
X011361Y025693D01*
X011431Y025851D02*
X011106Y025851D01*
X011101Y025933D02*
X011270Y026003D01*
X011399Y026133D01*
X011470Y026302D01*
X011470Y026485D01*
X011413Y026621D01*
X013330Y026621D01*
X013465Y026485D02*
X011469Y026485D01*
X011470Y026327D02*
X013550Y026327D01*
X013605Y026168D02*
X012069Y026168D01*
X011550Y026168D02*
X011414Y026168D01*
X011449Y026010D02*
X011277Y026010D01*
X011101Y025933D02*
X010918Y025933D01*
X010749Y026003D01*
X010620Y026133D01*
X010550Y026302D01*
X010550Y026485D01*
X010550Y026327D02*
X005844Y026327D01*
X005899Y026383D02*
X005970Y026552D01*
X005970Y026735D01*
X005899Y026904D01*
X005770Y027033D01*
X005601Y027103D01*
X005418Y027103D01*
X005249Y027033D01*
X005120Y026904D01*
X005050Y026735D01*
X005050Y026552D01*
X005120Y026383D01*
X005249Y026253D01*
X005418Y026183D01*
X005601Y026183D01*
X005770Y026253D01*
X005899Y026383D01*
X005942Y026485D02*
X006949Y026485D01*
X006982Y026462D02*
X007060Y026422D01*
X007144Y026394D01*
X007231Y026381D01*
X007257Y026381D01*
X007257Y026922D01*
X006715Y026922D01*
X006715Y026896D01*
X006729Y026809D01*
X006756Y026726D01*
X006796Y026647D01*
X006848Y026576D01*
X006910Y026513D01*
X006982Y026462D01*
X006799Y026644D02*
X005970Y026644D01*
X005942Y026802D02*
X006731Y026802D01*
X006715Y026961D02*
X005843Y026961D01*
X005795Y027278D02*
X006828Y027278D01*
X006745Y027119D02*
X004324Y027119D01*
X004295Y027278D02*
X005224Y027278D01*
X005177Y026961D02*
X004483Y026961D01*
X004557Y026802D02*
X005077Y026802D01*
X005050Y026644D02*
X004028Y026644D01*
X004028Y026625D02*
X004580Y026625D01*
X004580Y026598D01*
X004565Y026510D01*
X004538Y026425D01*
X004497Y026345D01*
X004444Y026272D01*
X004381Y026209D01*
X004308Y026156D01*
X004228Y026115D01*
X004143Y026087D01*
X004054Y026073D01*
X004028Y026073D01*
X004028Y026625D01*
X004028Y026485D02*
X003991Y026485D01*
X003991Y026327D02*
X004028Y026327D01*
X004028Y026168D02*
X003991Y026168D01*
X003694Y026168D02*
X003578Y026168D01*
X003578Y026010D02*
X007008Y026010D01*
X007257Y026485D02*
X007294Y026485D01*
X007294Y026644D02*
X007257Y026644D01*
X007257Y026802D02*
X007294Y026802D01*
X007294Y026961D02*
X007257Y026961D01*
X007257Y027119D02*
X007294Y027119D01*
X007294Y027278D02*
X007257Y027278D01*
X007257Y027436D02*
X007294Y027436D01*
X007536Y027436D02*
X007941Y027436D01*
X007777Y027278D02*
X007722Y027278D01*
X007752Y026644D02*
X007755Y026644D01*
X007894Y026485D02*
X007601Y026485D01*
X007268Y025534D02*
X009320Y025534D01*
X009300Y025376D02*
X007220Y025376D01*
X007185Y025217D02*
X009334Y025217D01*
X009443Y025059D02*
X007076Y025059D01*
X006663Y025851D02*
X003578Y025851D01*
X003578Y025693D02*
X006409Y025693D01*
X006320Y025534D02*
X003578Y025534D01*
X003578Y025376D02*
X006300Y025376D01*
X006334Y025217D02*
X003578Y025217D01*
X003578Y025059D02*
X006443Y025059D01*
X005922Y027436D02*
X007015Y027436D01*
X006779Y029180D02*
X009740Y029180D01*
X009934Y029021D02*
X003578Y029021D01*
X003578Y028863D02*
X009694Y028863D01*
X009631Y028704D02*
X003578Y028704D01*
X003578Y028546D02*
X009641Y028546D01*
X009731Y028387D02*
X003578Y028387D01*
X003578Y028229D02*
X010800Y028229D01*
X010800Y028070D02*
X005681Y028070D01*
X005892Y027912D02*
X010857Y027912D01*
X010999Y027753D02*
X005962Y027753D01*
X005970Y027595D02*
X015544Y027595D01*
X015478Y027753D02*
X014520Y027753D01*
X014662Y027912D02*
X015426Y027912D01*
X015426Y028070D02*
X014720Y028070D01*
X014720Y028229D02*
X015435Y028229D01*
X015500Y028387D02*
X014821Y028387D01*
X015030Y028546D02*
X015584Y028546D01*
X015688Y027436D02*
X009562Y027436D01*
X009934Y029021D02*
X010085Y029021D01*
X010111Y029338D02*
X009951Y029338D01*
X009951Y029497D02*
X010111Y029497D01*
X010111Y029655D02*
X009951Y029655D01*
X009951Y029814D02*
X006568Y029814D01*
X006568Y029972D02*
X009951Y029972D01*
X010111Y029814D02*
X010938Y029814D01*
X010765Y029655D02*
X014380Y029655D01*
X014532Y030765D02*
X015520Y030765D01*
X015207Y029814D02*
X016180Y029814D01*
X017512Y032508D02*
X017721Y032508D01*
X017782Y032667D02*
X017354Y032667D01*
X017195Y032825D02*
X017918Y032825D01*
X018240Y032825D02*
X018280Y032825D01*
X018280Y032667D02*
X018240Y032667D01*
X018240Y032508D02*
X018280Y032508D01*
X018601Y032825D02*
X018685Y032825D01*
X018685Y033301D02*
X017145Y033301D01*
X017241Y033459D02*
X018685Y033459D01*
X018685Y033618D02*
X017275Y033618D01*
X017262Y033776D02*
X018685Y033776D01*
X018685Y033935D02*
X017196Y033935D01*
X017019Y034093D02*
X018685Y034093D01*
X018685Y034252D02*
X017063Y034252D01*
X017196Y034410D02*
X018685Y034410D01*
X018685Y034569D02*
X017249Y034569D01*
X017247Y034727D02*
X018685Y034727D01*
X018685Y034886D02*
X017191Y034886D01*
X017050Y035044D02*
X018685Y035044D01*
X018685Y035203D02*
X015696Y035203D01*
X015700Y035178D02*
X015689Y035246D01*
X015667Y035312D01*
X015636Y035374D01*
X015595Y035430D01*
X015592Y035433D01*
X015601Y035433D01*
X015770Y035503D01*
X015899Y035633D01*
X015970Y035802D01*
X015970Y035985D01*
X015899Y036154D01*
X015770Y036283D01*
X015601Y036353D01*
X015418Y036353D01*
X015249Y036283D01*
X015120Y036154D01*
X015050Y035985D01*
X015050Y035802D01*
X015120Y035633D01*
X015177Y035576D01*
X015156Y035572D01*
X015091Y035551D01*
X015029Y035520D01*
X014490Y035520D01*
X014428Y035551D01*
X014363Y035572D01*
X014294Y035583D01*
X014260Y035583D01*
X014260Y035143D01*
X014260Y035143D01*
X014700Y035143D01*
X014700Y035109D01*
X014689Y035040D01*
X014667Y034974D01*
X014636Y034913D01*
X014595Y034857D01*
X014546Y034808D01*
X014490Y034767D01*
X014428Y034736D01*
X014363Y034714D01*
X014294Y034703D01*
X014260Y034703D01*
X014260Y035143D01*
X014260Y035143D01*
X014700Y035143D01*
X014700Y035178D01*
X014689Y035246D01*
X014667Y035312D01*
X014636Y035374D01*
X014595Y035430D01*
X014546Y035479D01*
X014490Y035520D01*
X014642Y035361D02*
X014877Y035361D01*
X014883Y035374D02*
X014852Y035312D01*
X014830Y035246D01*
X014820Y035178D01*
X014820Y035143D01*
X014820Y035109D01*
X014830Y035040D01*
X014852Y034974D01*
X014883Y034913D01*
X014924Y034857D01*
X014973Y034808D01*
X015029Y034767D01*
X015091Y034736D01*
X015156Y034714D01*
X015225Y034703D01*
X015260Y034703D01*
X015294Y034703D01*
X015363Y034714D01*
X015428Y034736D01*
X015490Y034767D01*
X015546Y034808D01*
X015595Y034857D01*
X015636Y034913D01*
X015667Y034974D01*
X015689Y035040D01*
X015700Y035109D01*
X015700Y035143D01*
X015260Y035143D01*
X015260Y035143D01*
X015260Y034703D01*
X015260Y035143D01*
X015260Y035143D01*
X015700Y035143D01*
X015700Y035178D01*
X015689Y035044D02*
X016469Y035044D01*
X016500Y035067D02*
X016437Y035021D01*
X016382Y034966D01*
X016336Y034903D01*
X016301Y034833D01*
X016277Y034759D01*
X016265Y034682D01*
X016265Y034643D01*
X016760Y034643D01*
X016760Y034643D01*
X016760Y035138D01*
X016721Y035138D01*
X016644Y035126D01*
X016569Y035102D01*
X016500Y035067D01*
X016328Y034886D02*
X015616Y034886D01*
X015403Y034727D02*
X016272Y034727D01*
X016270Y034569D02*
X014434Y034569D01*
X014403Y034727D02*
X015116Y034727D01*
X015260Y034727D02*
X015260Y034727D01*
X015260Y034886D02*
X015260Y034886D01*
X015260Y035044D02*
X015260Y035044D01*
X015260Y035143D02*
X014820Y035143D01*
X015260Y035143D01*
X015260Y035143D01*
X014973Y035479D02*
X015029Y035520D01*
X014973Y035479D02*
X014924Y035430D01*
X014883Y035374D01*
X014823Y035203D02*
X014696Y035203D01*
X014689Y035044D02*
X014830Y035044D01*
X014903Y034886D02*
X014616Y034886D01*
X014643Y034410D02*
X016323Y034410D01*
X016456Y034252D02*
X014712Y034252D01*
X014720Y034093D02*
X016500Y034093D01*
X016657Y034158D02*
X016657Y034158D01*
X016760Y034727D02*
X016760Y034727D01*
X016760Y034886D02*
X016760Y034886D01*
X016760Y035044D02*
X016760Y035044D01*
X016613Y035464D02*
X016678Y035486D01*
X016740Y035517D01*
X016796Y035558D01*
X016845Y035607D01*
X016886Y035663D01*
X016917Y035724D01*
X016939Y035790D01*
X016950Y035859D01*
X016950Y035893D01*
X016510Y035893D01*
X016510Y035893D01*
X016510Y035453D01*
X016544Y035453D01*
X016613Y035464D01*
X016510Y035453D02*
X016510Y035893D01*
X016510Y035893D01*
X016950Y035893D01*
X016950Y035928D01*
X016939Y035996D01*
X016917Y036062D01*
X016886Y036124D01*
X016845Y036180D01*
X016796Y036229D01*
X016740Y036270D01*
X016678Y036301D01*
X016613Y036322D01*
X016544Y036333D01*
X016510Y036333D01*
X016510Y035893D01*
X016510Y035893D01*
X016070Y035893D01*
X016070Y035859D01*
X016080Y035790D01*
X016102Y035724D01*
X016133Y035663D01*
X016174Y035607D01*
X016223Y035558D01*
X016279Y035517D01*
X016341Y035486D01*
X016406Y035464D01*
X016475Y035453D01*
X016510Y035453D01*
X016510Y035520D02*
X016510Y035520D01*
X016510Y035678D02*
X016510Y035678D01*
X016510Y035837D02*
X016510Y035837D01*
X016510Y035893D02*
X016510Y035893D01*
X016510Y036333D01*
X016475Y036333D01*
X016406Y036322D01*
X016341Y036301D01*
X016279Y036270D01*
X016223Y036229D01*
X016174Y036180D01*
X016133Y036124D01*
X016102Y036062D01*
X016080Y035996D01*
X016070Y035928D01*
X016070Y035893D01*
X016510Y035893D01*
X016510Y035995D02*
X016510Y035995D01*
X016510Y036154D02*
X016510Y036154D01*
X016510Y036312D02*
X016510Y036312D01*
X016644Y036312D02*
X017319Y036312D01*
X017249Y036283D02*
X017418Y036353D01*
X017601Y036353D01*
X017770Y036283D01*
X017899Y036154D01*
X017970Y035985D01*
X017970Y035802D01*
X017899Y035633D01*
X017770Y035503D01*
X017601Y035433D01*
X017418Y035433D01*
X017249Y035503D01*
X017120Y035633D01*
X017050Y035802D01*
X017050Y035985D01*
X017120Y036154D01*
X017249Y036283D01*
X017120Y036154D02*
X016864Y036154D01*
X016939Y035995D02*
X017054Y035995D01*
X017050Y035837D02*
X016946Y035837D01*
X016894Y035678D02*
X017101Y035678D01*
X017232Y035520D02*
X016744Y035520D01*
X016375Y036312D02*
X015700Y036312D01*
X015899Y036154D02*
X016155Y036154D01*
X016080Y035995D02*
X015965Y035995D01*
X015970Y035837D02*
X016073Y035837D01*
X016125Y035678D02*
X015918Y035678D01*
X015787Y035520D02*
X016275Y035520D01*
X015642Y035361D02*
X018685Y035361D01*
X018685Y035520D02*
X017787Y035520D01*
X017918Y035678D02*
X018685Y035678D01*
X018685Y035837D02*
X017970Y035837D01*
X017965Y035995D02*
X018685Y035995D01*
X018685Y036154D02*
X017899Y036154D01*
X017700Y036312D02*
X018685Y036312D01*
X018685Y036471D02*
X014582Y036471D01*
X014687Y036312D02*
X015319Y036312D01*
X015120Y036154D02*
X014720Y036154D01*
X014696Y035995D02*
X015054Y035995D01*
X015050Y035837D02*
X014604Y035837D01*
X014260Y035583D02*
X014260Y035143D01*
X014260Y034703D01*
X014225Y034703D01*
X014156Y034714D01*
X014091Y034736D01*
X014029Y034767D01*
X013973Y034808D01*
X013924Y034857D01*
X013883Y034913D01*
X013852Y034974D01*
X013830Y035040D01*
X013820Y035109D01*
X013820Y035143D01*
X014260Y035143D01*
X014260Y035143D01*
X014260Y035143D01*
X013820Y035143D01*
X013820Y035178D01*
X013830Y035246D01*
X013852Y035312D01*
X013883Y035374D01*
X013924Y035430D01*
X013973Y035479D01*
X014029Y035520D01*
X014004Y035520D01*
X014029Y035520D02*
X014091Y035551D01*
X014156Y035572D01*
X014225Y035583D01*
X014260Y035583D01*
X014260Y035520D02*
X014260Y035520D01*
X014260Y035361D02*
X014260Y035361D01*
X014260Y035203D02*
X014260Y035203D01*
X014260Y035044D02*
X014260Y035044D01*
X014260Y034886D02*
X014260Y034886D01*
X014260Y034727D02*
X014260Y034727D01*
X014116Y034727D02*
X012878Y034727D01*
X013037Y034569D02*
X014085Y034569D01*
X013903Y034886D02*
X012720Y034886D01*
X012561Y035044D02*
X013830Y035044D01*
X013823Y035203D02*
X012403Y035203D01*
X012244Y035361D02*
X013877Y035361D01*
X014162Y035678D02*
X015101Y035678D01*
X014555Y036788D02*
X018685Y036788D01*
X018685Y036946D02*
X014676Y036946D01*
X014720Y037105D02*
X018685Y037105D01*
X018685Y037263D02*
X014708Y037263D01*
X014631Y037422D02*
X018685Y037422D01*
X018685Y037580D02*
X014406Y037580D01*
X014351Y037683D02*
X014520Y037753D01*
X014649Y037883D01*
X014720Y038052D01*
X014720Y038235D01*
X014649Y038404D01*
X014520Y038533D01*
X014351Y038603D01*
X014168Y038603D01*
X013999Y038533D01*
X013870Y038404D01*
X013800Y038235D01*
X013800Y038052D01*
X013870Y037883D01*
X013999Y037753D01*
X014168Y037683D01*
X014351Y037683D01*
X014485Y037739D02*
X018685Y037739D01*
X018685Y037897D02*
X014656Y037897D01*
X014720Y038056D02*
X018685Y038056D01*
X018685Y038214D02*
X014720Y038214D01*
X014662Y038373D02*
X018685Y038373D01*
X018685Y038531D02*
X017798Y038531D01*
X017770Y038503D02*
X017899Y038633D01*
X017970Y038802D01*
X017970Y038985D01*
X017899Y039154D01*
X017770Y039283D01*
X017601Y039353D01*
X017418Y039353D01*
X017249Y039283D01*
X017120Y039154D01*
X017050Y038985D01*
X017050Y038802D01*
X017120Y038633D01*
X017249Y038503D01*
X017418Y038433D01*
X017601Y038433D01*
X017770Y038503D01*
X017923Y038690D02*
X018685Y038690D01*
X018685Y038848D02*
X017970Y038848D01*
X017960Y039007D02*
X018685Y039007D01*
X018685Y039165D02*
X017888Y039165D01*
X017672Y039324D02*
X018685Y039324D01*
X018685Y039482D02*
X014571Y039482D01*
X014520Y039533D02*
X014351Y039603D01*
X014168Y039603D01*
X013999Y039533D01*
X013870Y039404D01*
X013800Y039235D01*
X013800Y039052D01*
X013870Y038883D01*
X013999Y038753D01*
X014168Y038683D01*
X014351Y038683D01*
X014520Y038753D01*
X014649Y038883D01*
X014720Y039052D01*
X014720Y039235D01*
X014649Y039404D01*
X014520Y039533D01*
X014520Y039753D02*
X014351Y039683D01*
X014168Y039683D01*
X013999Y039753D01*
X013870Y039883D01*
X013800Y040052D01*
X013800Y040235D01*
X013870Y040404D01*
X013999Y040533D01*
X014168Y040603D01*
X014351Y040603D01*
X014520Y040533D01*
X014649Y040404D01*
X014720Y040235D01*
X014720Y040052D01*
X014649Y039883D01*
X014520Y039753D01*
X014566Y039799D02*
X018685Y039799D01*
X018685Y039641D02*
X010375Y039641D01*
X010533Y039799D02*
X010953Y039799D01*
X010948Y039482D02*
X010216Y039482D01*
X010322Y039324D02*
X010058Y039324D01*
X010164Y039165D02*
X009899Y039165D01*
X010005Y039007D02*
X009741Y039007D01*
X009847Y038848D02*
X009582Y038848D01*
X009688Y038690D02*
X009424Y038690D01*
X009690Y038086D02*
X009602Y038035D01*
X009522Y037974D01*
X009451Y037902D01*
X009389Y037822D01*
X009339Y037735D01*
X009300Y037642D01*
X009274Y037544D01*
X009264Y037473D01*
X009951Y037473D01*
X009951Y038160D01*
X009881Y038151D01*
X009783Y038125D01*
X009690Y038086D01*
X009638Y038056D02*
X006881Y038056D01*
X007072Y037897D02*
X009447Y037897D01*
X009341Y037739D02*
X007178Y037739D01*
X007235Y037580D02*
X009284Y037580D01*
X009271Y037263D02*
X007248Y037263D01*
X007202Y037105D02*
X009317Y037105D01*
X009403Y036946D02*
X007116Y036946D01*
X006965Y036788D02*
X009554Y036788D01*
X009150Y036629D02*
X006589Y036629D01*
X006568Y036629D02*
X006408Y036629D01*
X006408Y036627D02*
X006408Y037313D01*
X005721Y037313D01*
X005730Y037243D01*
X005757Y037145D01*
X005795Y037052D01*
X005846Y036964D01*
X005907Y036884D01*
X005979Y036813D01*
X006059Y036751D01*
X006146Y036701D01*
X006240Y036662D01*
X006337Y036636D01*
X006408Y036627D01*
X006387Y036629D02*
X004767Y036629D01*
X004830Y036788D02*
X006011Y036788D01*
X005860Y036946D02*
X004830Y036946D01*
X004839Y037105D02*
X005773Y037105D01*
X005728Y037263D02*
X004997Y037263D01*
X005156Y037422D02*
X006408Y037422D01*
X006408Y037263D02*
X006568Y037263D01*
X006568Y037105D02*
X006408Y037105D01*
X006408Y036946D02*
X006568Y036946D01*
X006568Y036788D02*
X006408Y036788D01*
X006568Y037422D02*
X009951Y037422D01*
X009951Y037580D02*
X010111Y037580D01*
X010111Y037422D02*
X010888Y037422D01*
X010811Y037263D02*
X010791Y037263D01*
X010800Y037105D02*
X010746Y037105D01*
X010659Y036946D02*
X010843Y036946D01*
X010536Y036788D02*
X010508Y036788D01*
X010796Y036312D02*
X010832Y036312D01*
X010800Y036154D02*
X010611Y036154D01*
X010779Y037580D02*
X011113Y037580D01*
X011168Y037683D02*
X011351Y037683D01*
X011520Y037753D01*
X011649Y037883D01*
X011720Y038052D01*
X011720Y038235D01*
X011649Y038404D01*
X011520Y038533D01*
X011351Y038603D01*
X011168Y038603D01*
X010999Y038533D01*
X010870Y038404D01*
X010800Y038235D01*
X010800Y038052D01*
X010870Y037883D01*
X010999Y037753D01*
X011168Y037683D01*
X011034Y037739D02*
X010721Y037739D01*
X010616Y037897D02*
X010863Y037897D01*
X010800Y038056D02*
X010425Y038056D01*
X010111Y038056D02*
X009951Y038056D01*
X009948Y038214D02*
X010800Y038214D01*
X010857Y038373D02*
X010107Y038373D01*
X010265Y038531D02*
X010997Y038531D01*
X011152Y038690D02*
X010424Y038690D01*
X010582Y038848D02*
X010904Y038848D01*
X011367Y038690D02*
X014152Y038690D01*
X014367Y038690D02*
X015096Y038690D01*
X015120Y038633D02*
X015249Y038503D01*
X015418Y038433D01*
X015601Y038433D01*
X015770Y038503D01*
X015899Y038633D01*
X015970Y038802D01*
X015970Y038985D01*
X015899Y039154D01*
X015770Y039283D01*
X015601Y039353D01*
X015418Y039353D01*
X015249Y039283D01*
X015120Y039154D01*
X015050Y038985D01*
X015050Y038802D01*
X015120Y038633D01*
X015221Y038531D02*
X014522Y038531D01*
X014615Y038848D02*
X015050Y038848D01*
X015059Y039007D02*
X014701Y039007D01*
X014720Y039165D02*
X015131Y039165D01*
X015347Y039324D02*
X014683Y039324D01*
X014681Y039958D02*
X015359Y039958D01*
X015418Y039933D02*
X015601Y039933D01*
X015770Y040003D01*
X015899Y040133D01*
X015970Y040302D01*
X015970Y040485D01*
X015899Y040654D01*
X015770Y040783D01*
X015601Y040853D01*
X015418Y040853D01*
X015249Y040783D01*
X015120Y040654D01*
X015050Y040485D01*
X015050Y040302D01*
X015120Y040133D01*
X015249Y040003D01*
X015418Y039933D01*
X015660Y039958D02*
X016359Y039958D01*
X016418Y039933D02*
X016601Y039933D01*
X016770Y040003D01*
X016899Y040133D01*
X016970Y040302D01*
X016970Y040485D01*
X016899Y040654D01*
X016770Y040783D01*
X016601Y040853D01*
X016418Y040853D01*
X016249Y040783D01*
X016120Y040654D01*
X016050Y040485D01*
X016050Y040302D01*
X016120Y040133D01*
X016249Y040003D01*
X016418Y039933D01*
X016660Y039958D02*
X017446Y039958D01*
X017475Y039953D02*
X017406Y039964D01*
X017341Y039986D01*
X017279Y040017D01*
X017223Y040058D01*
X017174Y040107D01*
X017133Y040163D01*
X017102Y040224D01*
X017080Y040290D01*
X017070Y040359D01*
X017070Y040393D01*
X017510Y040393D01*
X017510Y040393D01*
X017950Y040393D01*
X017950Y040359D01*
X017939Y040290D01*
X017917Y040224D01*
X017886Y040163D01*
X017845Y040107D01*
X017796Y040058D01*
X017740Y040017D01*
X017678Y039986D01*
X017613Y039964D01*
X017544Y039953D01*
X017510Y039953D01*
X017510Y040393D01*
X017510Y040393D01*
X017950Y040393D01*
X017950Y040428D01*
X017939Y040496D01*
X017917Y040562D01*
X017886Y040624D01*
X017845Y040680D01*
X017796Y040729D01*
X017740Y040770D01*
X017678Y040801D01*
X017613Y040822D01*
X017544Y040833D01*
X017510Y040833D01*
X017510Y040393D01*
X017510Y039953D01*
X017475Y039953D01*
X017510Y039958D02*
X017510Y039958D01*
X017573Y039958D02*
X018685Y039958D01*
X018685Y040116D02*
X017852Y040116D01*
X017934Y040275D02*
X018685Y040275D01*
X018685Y040433D02*
X017949Y040433D01*
X017902Y040592D02*
X018685Y040592D01*
X018685Y040750D02*
X017767Y040750D01*
X017510Y040750D02*
X017510Y040750D01*
X017510Y040833D02*
X017510Y040393D01*
X017510Y040393D01*
X017510Y040393D01*
X017070Y040393D01*
X017070Y040428D01*
X017080Y040496D01*
X017102Y040562D01*
X017133Y040624D01*
X017174Y040680D01*
X017223Y040729D01*
X017279Y040770D01*
X017341Y040801D01*
X017406Y040822D01*
X017475Y040833D01*
X017510Y040833D01*
X017510Y040592D02*
X017510Y040592D01*
X017510Y040433D02*
X017510Y040433D01*
X017510Y040275D02*
X017510Y040275D01*
X017510Y040116D02*
X017510Y040116D01*
X017167Y040116D02*
X016883Y040116D01*
X016958Y040275D02*
X017085Y040275D01*
X017070Y040433D02*
X016970Y040433D01*
X016925Y040592D02*
X017117Y040592D01*
X017252Y040750D02*
X016803Y040750D01*
X016216Y040750D02*
X015803Y040750D01*
X015925Y040592D02*
X016094Y040592D01*
X016050Y040433D02*
X015970Y040433D01*
X015958Y040275D02*
X016061Y040275D01*
X016136Y040116D02*
X015883Y040116D01*
X015672Y039324D02*
X016347Y039324D01*
X016418Y039353D02*
X016249Y039283D01*
X016120Y039154D01*
X016050Y038985D01*
X016050Y038802D01*
X016120Y038633D01*
X016249Y038503D01*
X016418Y038433D01*
X016601Y038433D01*
X016770Y038503D01*
X016899Y038633D01*
X016970Y038802D01*
X016970Y038985D01*
X016899Y039154D01*
X016770Y039283D01*
X016601Y039353D01*
X016418Y039353D01*
X016672Y039324D02*
X017347Y039324D01*
X017131Y039165D02*
X016888Y039165D01*
X016960Y039007D02*
X017059Y039007D01*
X017050Y038848D02*
X016970Y038848D01*
X016923Y038690D02*
X017096Y038690D01*
X017221Y038531D02*
X016798Y038531D01*
X016221Y038531D02*
X015798Y038531D01*
X015923Y038690D02*
X016096Y038690D01*
X016050Y038848D02*
X015970Y038848D01*
X015960Y039007D02*
X016059Y039007D01*
X016131Y039165D02*
X015888Y039165D01*
X015216Y040750D02*
X014513Y040750D01*
X014379Y040592D02*
X015094Y040592D01*
X015050Y040433D02*
X014620Y040433D01*
X014703Y040275D02*
X015061Y040275D01*
X015136Y040116D02*
X014720Y040116D01*
X014660Y040909D02*
X018685Y040909D01*
X018685Y041067D02*
X014720Y041067D01*
X014720Y041226D02*
X018685Y041226D01*
X018685Y041384D02*
X014658Y041384D01*
X014497Y041543D02*
X018685Y041543D01*
X018685Y036629D02*
X011863Y036629D01*
X011730Y036496D02*
X011730Y036496D01*
X011705Y036471D02*
X013937Y036471D01*
X013832Y036312D02*
X011687Y036312D01*
X011720Y036154D02*
X013800Y036154D01*
X013744Y035995D02*
X011696Y035995D01*
X012022Y036788D02*
X013964Y036788D01*
X013888Y037422D02*
X011631Y037422D01*
X011708Y037263D02*
X011762Y037263D01*
X011485Y037739D02*
X014034Y037739D01*
X014113Y037580D02*
X011406Y037580D01*
X011656Y037897D02*
X013863Y037897D01*
X013800Y038056D02*
X011720Y038056D01*
X011720Y038214D02*
X013800Y038214D01*
X013857Y038373D02*
X011662Y038373D01*
X011522Y038531D02*
X013997Y038531D01*
X013904Y038848D02*
X011615Y038848D01*
X011701Y039007D02*
X013818Y039007D01*
X013800Y039165D02*
X011720Y039165D01*
X011683Y039324D02*
X013836Y039324D01*
X013948Y039482D02*
X011571Y039482D01*
X011566Y039799D02*
X013953Y039799D01*
X013838Y039958D02*
X011681Y039958D01*
X011720Y040116D02*
X013800Y040116D01*
X013816Y040275D02*
X011703Y040275D01*
X011620Y040433D02*
X013899Y040433D01*
X014140Y040592D02*
X011379Y040592D01*
X011513Y040750D02*
X014006Y040750D01*
X013859Y040909D02*
X011660Y040909D01*
X011720Y041067D02*
X013800Y041067D01*
X013800Y041226D02*
X011720Y041226D01*
X011658Y041384D02*
X013861Y041384D01*
X014022Y041543D02*
X011497Y041543D01*
X011022Y041543D02*
X003578Y041543D01*
X003578Y041384D02*
X004012Y041384D01*
X004240Y041384D02*
X004280Y041384D01*
X004280Y041443D02*
X004280Y040913D01*
X004240Y040909D02*
X003578Y040909D01*
X003578Y041067D02*
X003738Y041067D01*
X003821Y041226D02*
X003578Y041226D01*
X003578Y040750D02*
X003728Y040750D01*
X003799Y040592D02*
X003578Y040592D01*
X003578Y040433D02*
X003957Y040433D01*
X003863Y040275D02*
X003578Y040275D01*
X003578Y040116D02*
X003756Y040116D01*
X003713Y039958D02*
X003578Y039958D01*
X003578Y039799D02*
X003718Y039799D01*
X003771Y039641D02*
X003578Y039641D01*
X003578Y039482D02*
X003893Y039482D01*
X003884Y039324D02*
X003578Y039324D01*
X003578Y039165D02*
X003755Y039165D01*
X003690Y038848D02*
X003578Y038848D01*
X003578Y038690D02*
X003727Y038690D01*
X003815Y038531D02*
X003578Y038531D01*
X003578Y038373D02*
X003933Y038373D01*
X003776Y038214D02*
X003578Y038214D01*
X003578Y038056D02*
X003710Y038056D01*
X003690Y037897D02*
X003578Y037897D01*
X003578Y037739D02*
X003707Y037739D01*
X003772Y037580D02*
X003578Y037580D01*
X003578Y037422D02*
X003925Y037422D01*
X003823Y037263D02*
X003578Y037263D01*
X003578Y037105D02*
X003730Y037105D01*
X003690Y036946D02*
X003578Y036946D01*
X003578Y036788D02*
X003690Y036788D01*
X003752Y036629D02*
X003578Y036629D01*
X003578Y036471D02*
X003876Y036471D01*
X003872Y036312D02*
X003578Y036312D01*
X003578Y036154D02*
X003750Y036154D01*
X003690Y035995D02*
X003578Y035995D01*
X003578Y035837D02*
X003690Y035837D01*
X003732Y035678D02*
X003578Y035678D01*
X003578Y035520D02*
X003827Y035520D01*
X004054Y035361D02*
X003578Y035361D01*
X003578Y035203D02*
X005169Y035203D01*
X005074Y035044D02*
X003578Y035044D01*
X003578Y034886D02*
X005050Y034886D01*
X005080Y034727D02*
X003578Y034727D01*
X003578Y034569D02*
X005183Y034569D01*
X005610Y035361D02*
X004465Y035361D01*
X004692Y035520D02*
X005768Y035520D01*
X005740Y037580D02*
X005314Y037580D01*
X005473Y037739D02*
X005798Y037739D01*
X005903Y037897D02*
X005631Y037897D01*
X005790Y038056D02*
X006094Y038056D01*
X007203Y040275D02*
X007273Y040275D01*
X007120Y040433D02*
X007432Y040433D01*
X007410Y040592D02*
X006879Y040592D01*
X005410Y040592D02*
X004720Y040592D01*
X004791Y040750D02*
X005321Y040750D01*
X004280Y040750D02*
X004240Y040750D01*
X004240Y040592D02*
X004280Y040592D01*
X004280Y040433D02*
X004240Y040433D01*
X004240Y040275D02*
X004280Y040275D01*
X004280Y040116D02*
X004240Y040116D01*
X004240Y039958D02*
X004280Y039958D01*
X004240Y041067D02*
X004280Y041067D01*
X004280Y041226D02*
X004240Y041226D01*
X004280Y041443D02*
X004303Y041443D01*
X004388Y041430D01*
X004471Y041403D01*
X008733Y034093D02*
X008771Y034093D01*
X008949Y033935D02*
X008554Y033935D01*
X008590Y033459D02*
X008957Y033459D01*
X008975Y033477D02*
X008926Y033428D01*
X008885Y033373D01*
X008854Y033311D01*
X008833Y033246D01*
X008822Y033178D01*
X008822Y033143D01*
X008822Y033109D01*
X008833Y033041D01*
X008854Y032975D01*
X008885Y032914D01*
X008926Y032858D01*
X008975Y032810D01*
X009030Y032769D01*
X009092Y032738D01*
X009157Y032717D01*
X009225Y032706D01*
X009260Y032706D01*
X009294Y032706D01*
X009362Y032717D01*
X009427Y032738D01*
X009489Y032769D01*
X009545Y032810D01*
X009593Y032858D01*
X009634Y032914D01*
X009665Y032975D01*
X009686Y033041D01*
X009697Y033109D01*
X009697Y033143D01*
X009260Y033143D01*
X009260Y033143D01*
X009260Y032706D01*
X009260Y033143D01*
X009260Y033143D01*
X009697Y033143D01*
X009697Y033178D01*
X009686Y033246D01*
X009665Y033311D01*
X009634Y033373D01*
X009593Y033428D01*
X009545Y033477D01*
X009489Y033517D01*
X009427Y033549D01*
X009362Y033570D01*
X009294Y033581D01*
X009260Y033581D01*
X009260Y033143D01*
X009260Y033143D01*
X008822Y033143D01*
X009260Y033143D01*
X009260Y033143D01*
X009260Y033581D01*
X009225Y033581D01*
X009157Y033570D01*
X009092Y033549D01*
X009030Y033517D01*
X008975Y033477D01*
X008851Y033301D02*
X008689Y033301D01*
X008717Y033142D02*
X008822Y033142D01*
X008851Y032984D02*
X008689Y032984D01*
X008589Y032825D02*
X008959Y032825D01*
X009260Y032825D02*
X009260Y032825D01*
X009260Y032984D02*
X009260Y032984D01*
X009260Y033142D02*
X009260Y033142D01*
X009260Y033301D02*
X009260Y033301D01*
X009260Y033459D02*
X009260Y033459D01*
X009562Y033459D02*
X009929Y033459D01*
X009830Y033301D02*
X009668Y033301D01*
X009697Y033142D02*
X009802Y033142D01*
X009830Y032984D02*
X009668Y032984D01*
X009560Y032825D02*
X009930Y032825D01*
X010847Y032350D02*
X005609Y032350D01*
X005824Y031557D02*
X011057Y031557D01*
X011089Y031716D02*
X005934Y031716D01*
X005970Y031874D02*
X010878Y031874D01*
X010807Y032033D02*
X005950Y032033D01*
X005862Y032191D02*
X010800Y032191D01*
X011606Y030448D02*
X012529Y030448D01*
X010963Y029497D02*
X010692Y029497D01*
X010566Y029338D02*
X010842Y029338D01*
X009739Y030606D02*
X006780Y030606D01*
X007023Y030448D02*
X009496Y030448D01*
X009370Y030289D02*
X007149Y030289D01*
X007222Y030131D02*
X009297Y030131D01*
X009297Y029655D02*
X007222Y029655D01*
X007149Y029497D02*
X009370Y029497D01*
X009496Y029338D02*
X007023Y029338D01*
X005953Y030448D02*
X005926Y030448D01*
X005827Y030289D02*
X005806Y030289D01*
X005366Y031082D02*
X004153Y031082D01*
X004380Y030923D02*
X005139Y030923D01*
X005062Y030765D02*
X004457Y030765D01*
X004470Y030606D02*
X005050Y030606D01*
X005093Y030448D02*
X004426Y030448D01*
X004306Y030289D02*
X005213Y030289D01*
X005338Y028070D02*
X004181Y028070D01*
X004392Y027912D02*
X005128Y027912D01*
X005077Y026485D02*
X004558Y026485D01*
X004484Y026327D02*
X005175Y026327D01*
X004326Y026168D02*
X010605Y026168D01*
X010511Y026010D02*
X010742Y026010D01*
X010669Y025851D02*
X010913Y025851D01*
X010568Y025217D02*
X010185Y025217D01*
X010220Y025376D02*
X010409Y025376D01*
X010251Y025534D02*
X010199Y025534D01*
X010076Y025059D02*
X010693Y025059D01*
X008879Y026485D02*
X008625Y026485D01*
X008742Y027278D02*
X008761Y027278D01*
X008925Y027436D02*
X008578Y027436D01*
X005904Y021889D02*
X004303Y021889D01*
X004479Y021730D02*
X006095Y021730D01*
X005798Y022047D02*
X003578Y022047D01*
X003578Y021889D02*
X003716Y021889D01*
X003613Y022206D02*
X003578Y022206D01*
X003578Y023157D02*
X003708Y023157D01*
X003578Y023315D02*
X005187Y023315D01*
X005082Y023474D02*
X003578Y023474D01*
X003578Y023632D02*
X005050Y023632D01*
X005073Y023791D02*
X003578Y023791D01*
X003578Y023949D02*
X005165Y023949D01*
X005740Y022206D02*
X004406Y022206D01*
X004399Y018560D02*
X004620Y018560D01*
X003620Y018560D02*
X003578Y018560D01*
X006408Y015549D02*
X006568Y015549D01*
X006568Y015390D02*
X006408Y015390D01*
X006408Y015232D02*
X006568Y015232D01*
X006568Y014756D02*
X006408Y014756D01*
X006408Y014598D02*
X006568Y014598D01*
X006568Y014439D02*
X006408Y014439D01*
X006408Y014281D02*
X006568Y014281D01*
X007625Y012379D02*
X007878Y012379D01*
X007793Y011586D02*
X007710Y011586D01*
X008285Y017134D02*
X010619Y017134D01*
X010553Y017292D02*
X008377Y017292D01*
X008388Y017451D02*
X010499Y017451D01*
X010341Y017609D02*
X008328Y017609D01*
X012705Y019036D02*
X013249Y019036D01*
X014470Y013330D02*
X015930Y013330D01*
X015811Y013171D02*
X014415Y013171D01*
X016241Y011903D02*
X016278Y011903D01*
X016278Y011745D02*
X016241Y011745D01*
X016241Y011586D02*
X016278Y011586D01*
X016278Y011428D02*
X016241Y011428D01*
X016241Y011269D02*
X016278Y011269D01*
X016572Y011586D02*
X018685Y011586D01*
X018685Y011428D02*
X017510Y011428D01*
X017617Y011269D02*
X018685Y011269D01*
X018685Y011111D02*
X017638Y011111D01*
X017590Y010952D02*
X018685Y010952D01*
X018685Y010794D02*
X017404Y010794D01*
X017119Y010635D02*
X018685Y010635D01*
X018685Y010477D02*
X016738Y010477D01*
X016897Y010318D02*
X018685Y010318D01*
X018685Y010160D02*
X016962Y010160D01*
X017011Y010001D02*
X018685Y010001D01*
X018685Y009843D02*
X017011Y009843D01*
X016986Y009684D02*
X018685Y009684D01*
X018685Y009526D02*
X016920Y009526D01*
X016796Y009367D02*
X018685Y009367D01*
X018685Y009209D02*
X016570Y009209D01*
X015679Y008892D02*
X018685Y008892D01*
X018685Y009050D02*
X014317Y009050D01*
X016691Y011428D02*
X017009Y011428D01*
X016902Y011269D02*
X016735Y011269D01*
X016724Y011111D02*
X016859Y011111D01*
X016620Y011745D02*
X018685Y011745D01*
X018685Y011903D02*
X016710Y011903D01*
X016709Y014281D02*
X018685Y014281D01*
X018685Y014439D02*
X016868Y014439D01*
X016950Y014598D02*
X018685Y014598D01*
X018685Y014756D02*
X017011Y014756D01*
X017011Y014915D02*
X018685Y014915D01*
X018685Y015073D02*
X016998Y015073D01*
X016932Y015232D02*
X018685Y015232D01*
X018685Y015390D02*
X016825Y015390D01*
X016466Y020621D02*
X018685Y020621D01*
X018685Y020779D02*
X016484Y020779D01*
X016853Y024425D02*
X018685Y024425D01*
X018685Y024583D02*
X016944Y024583D01*
X017010Y024742D02*
X018685Y024742D01*
X018685Y024900D02*
X017011Y024900D01*
X017004Y025059D02*
X018685Y025059D01*
X018685Y025217D02*
X016938Y025217D01*
X016839Y025376D02*
X018685Y025376D01*
X018685Y025534D02*
X018381Y025534D01*
X018138Y025534D02*
X016675Y025534D01*
X017937Y027910D02*
X017776Y028070D01*
X018633Y026961D02*
X018685Y026961D01*
X018685Y026168D02*
X018519Y026168D01*
X018621Y026010D02*
X018685Y026010D01*
X018685Y025851D02*
X018638Y025851D01*
X018685Y025693D02*
X018586Y025693D01*
X018000Y026168D02*
X014414Y026168D01*
X013693Y025059D02*
X012940Y025059D01*
X014543Y033776D02*
X016257Y033776D01*
X016323Y033935D02*
X014671Y033935D01*
X010899Y040433D02*
X010120Y040433D01*
X010203Y040275D02*
X010273Y040275D01*
X010111Y037897D02*
X009951Y037897D01*
X009951Y037739D02*
X010111Y037739D01*
X003838Y028070D02*
X003578Y028070D01*
X003578Y027912D02*
X003628Y027912D01*
X013873Y003344D02*
X015945Y003344D01*
X015817Y003186D02*
X014118Y003186D01*
X014202Y003027D02*
X015763Y003027D01*
X015763Y002869D02*
X014220Y002869D01*
X014182Y002710D02*
X015824Y002710D01*
X016695Y002710D02*
X018685Y002710D01*
X018685Y002869D02*
X016756Y002869D01*
X016756Y003027D02*
X018685Y003027D01*
X018685Y003186D02*
X016702Y003186D01*
X016574Y003344D02*
X018685Y003344D01*
D22*
X011010Y017393D02*
X009760Y018643D01*
X006510Y018643D01*
X004010Y021143D01*
X004010Y021393D01*
X009244Y026941D02*
X013462Y026941D01*
X014010Y026393D01*
X014260Y033143D02*
X015260Y033143D01*
X014260Y034143D02*
X013010Y034143D01*
X012010Y035143D01*
X011260Y035143D01*
D23*
X010510Y036393D02*
X010760Y036643D01*
X011510Y036643D01*
X012010Y037143D01*
X014260Y037143D01*
X014260Y036143D02*
X013760Y035643D01*
X010010Y035643D01*
X009510Y035143D01*
X008962Y035143D01*
X008260Y034441D01*
X008260Y035393D02*
X006010Y035393D01*
X005510Y034893D01*
X004260Y036893D02*
X005760Y038393D01*
X009760Y038393D01*
X010510Y039143D01*
X011260Y039143D01*
X011260Y040143D02*
X010510Y040143D01*
X009010Y038643D01*
X005510Y038643D01*
X004760Y037893D01*
X004260Y037893D01*
X006760Y039393D02*
X007760Y040393D01*
X007760Y040893D01*
X009260Y036393D02*
X010510Y036393D01*
X009260Y036393D02*
X008260Y035393D01*
X011260Y030143D02*
X012760Y030143D01*
X012260Y031143D02*
X014260Y031143D01*
X015510Y031143D01*
X015760Y030893D01*
X016760Y030893D01*
X017260Y030393D01*
X018260Y030393D01*
X018260Y031393D02*
X017010Y032643D01*
X015760Y032643D01*
X015510Y032393D01*
X014510Y032393D01*
X014260Y032143D01*
X014260Y030143D02*
X014760Y029643D01*
X015010Y029643D01*
X015260Y029393D01*
X015010Y028893D02*
X014760Y028643D01*
X010010Y028643D01*
X011260Y028143D02*
X012760Y028143D01*
X011810Y025893D02*
X018260Y025893D01*
X018260Y028393D02*
X017760Y028393D01*
X017260Y028893D01*
X015010Y028893D01*
X016160Y031643D02*
X016260Y031743D01*
X016160Y031643D02*
X012760Y031643D01*
X010260Y025893D02*
X007260Y025893D01*
X006760Y025393D01*
X005510Y027643D02*
X004010Y027643D01*
X006760Y017393D02*
X008010Y017393D01*
X008760Y020143D02*
X010510Y020143D01*
X012260Y019393D02*
X013260Y019393D01*
X014010Y018643D01*
X014010Y018393D01*
X014010Y019643D02*
X015010Y019643D01*
X014010Y025393D02*
X012760Y025393D01*
X011010Y025393D02*
X010760Y025393D01*
X010260Y025893D01*
X011010Y014393D02*
X009260Y012643D01*
X008962Y012643D01*
X008260Y011941D01*
X009244Y011941D02*
X009260Y011956D01*
X009323Y011956D01*
X010135Y012768D01*
X016010Y012768D01*
X016198Y012956D01*
X016260Y012956D01*
X017260Y011143D02*
X016885Y010768D01*
X014385Y010768D01*
X014010Y010393D01*
X015598Y008643D02*
X008510Y008643D01*
X009260Y010393D02*
X011010Y010393D01*
X015598Y008643D02*
X016260Y007956D01*
D24*
X017260Y011143D03*
X015010Y019643D03*
X014010Y019643D03*
X012760Y025393D03*
X011810Y025893D03*
X012760Y028143D03*
X012760Y030143D03*
X012260Y031143D03*
X012760Y031643D03*
X015260Y029393D03*
X018260Y025893D03*
X010510Y020143D03*
X008760Y020143D03*
X008010Y017393D03*
X006760Y017393D03*
X008510Y008643D03*
X010010Y028643D03*
X006760Y039393D03*
M02*
