G75*
G70*
%OFA0B0*%
%FSLAX24Y24*%
%IPPOS*%
%LPD*%
%AMOC8*
5,1,8,0,0,1.08239X$1,22.5*
%
%ADD10C,0.0000*%
%ADD11C,0.0560*%
%ADD12OC8,0.0560*%
%ADD13OC8,0.1422*%
%ADD14C,0.0760*%
%ADD15OC8,0.1107*%
%ADD16OC8,0.1186*%
%ADD17C,0.0555*%
%ADD18C,0.0740*%
%ADD19C,0.0780*%
%ADD20OC8,0.0740*%
%ADD21OC8,0.0630*%
%ADD22C,0.0630*%
%ADD23OC8,0.1240*%
%ADD24C,0.0160*%
%ADD25C,0.0240*%
%ADD26C,0.0120*%
%ADD27R,0.0356X0.0356*%
D10*
X000180Y000555D02*
X039550Y000555D01*
X039550Y016062D01*
X000180Y016062D01*
X000180Y000555D01*
D11*
X009930Y005680D03*
X009930Y006680D03*
X009930Y007680D03*
X005180Y007180D03*
X005180Y006180D03*
X005180Y008180D03*
X021180Y008180D03*
X022180Y008180D03*
X023180Y008180D03*
X024180Y008180D03*
X025930Y008180D03*
X026930Y008180D03*
X027930Y008180D03*
X028930Y008180D03*
X029930Y008180D03*
X030930Y008180D03*
X031930Y008180D03*
X032930Y008180D03*
X033930Y008180D03*
X034930Y008180D03*
X035930Y008180D03*
X036930Y008180D03*
X037930Y008180D03*
X038930Y008180D03*
X038930Y005180D03*
X037930Y005180D03*
X036930Y005180D03*
X035930Y005180D03*
X034930Y005180D03*
X033930Y005180D03*
X032930Y005180D03*
X031930Y005180D03*
X030930Y005180D03*
X029930Y005180D03*
X028930Y005180D03*
X027930Y005180D03*
X026930Y005180D03*
X025930Y005180D03*
X024180Y005180D03*
X023180Y005180D03*
X022180Y005180D03*
X021180Y005180D03*
X038180Y003930D03*
X038180Y002930D03*
X038180Y001930D03*
D12*
X036680Y001930D03*
X036680Y002930D03*
X036680Y003930D03*
X033680Y003930D03*
X032930Y004180D03*
X030930Y004180D03*
X033680Y002930D03*
X033680Y001930D03*
X019930Y005180D03*
X018930Y005180D03*
X016430Y005180D03*
X015430Y005180D03*
X014430Y005180D03*
X013430Y005180D03*
X012430Y005180D03*
X011430Y005180D03*
X008180Y005680D03*
X007180Y005680D03*
X004930Y005180D03*
X003930Y005930D03*
X003180Y007180D03*
X002180Y007180D03*
X001180Y005930D03*
X001180Y008930D03*
X003930Y008930D03*
X007180Y008680D03*
X008180Y008680D03*
X008180Y010180D03*
X011430Y008180D03*
X012430Y008180D03*
X013430Y008180D03*
X014430Y008180D03*
X015430Y008180D03*
X016430Y008180D03*
X017180Y007180D03*
X018180Y007180D03*
X018930Y008180D03*
X019930Y008180D03*
X023180Y009680D03*
X023180Y012680D03*
X024430Y013930D03*
X025430Y013930D03*
X025430Y015430D03*
X028430Y015430D03*
X028430Y013930D03*
X029680Y013930D03*
X032680Y013930D03*
X038180Y012680D03*
X038930Y011680D03*
X038930Y013680D03*
X038180Y009680D03*
X021430Y013930D03*
X008180Y013180D03*
X004930Y002180D03*
D13*
X003034Y001723D03*
X001184Y002629D03*
X003074Y004912D03*
X005948Y003574D03*
X009137Y003534D03*
X010948Y003574D03*
X014137Y003534D03*
X015948Y003574D03*
X019137Y003534D03*
X020948Y003574D03*
X024137Y003534D03*
X023231Y001684D03*
X018231Y001684D03*
X013231Y001684D03*
X008231Y001684D03*
D14*
X009727Y010196D03*
X009727Y011180D03*
X009727Y012164D03*
X002227Y012164D03*
X002227Y011180D03*
X002227Y010196D03*
X017227Y010196D03*
X017227Y011180D03*
X017227Y012164D03*
X024727Y012164D03*
X024727Y011180D03*
X024727Y010196D03*
X032227Y010196D03*
X032227Y011180D03*
X032227Y012164D03*
D15*
X035180Y012952D03*
X035180Y009408D03*
X027680Y009408D03*
X027680Y012952D03*
X020180Y012952D03*
X020180Y009408D03*
X012680Y009408D03*
X012680Y012952D03*
X005180Y012952D03*
X005180Y009408D03*
D16*
X025830Y003180D03*
X027680Y003180D03*
X029530Y003180D03*
D17*
X030180Y009180D03*
X031180Y009180D03*
X032180Y009180D03*
D18*
X033680Y014930D03*
X034680Y014930D03*
X035680Y014930D03*
X036680Y014930D03*
X037680Y014930D03*
X038680Y014930D03*
X019180Y015430D03*
X017180Y015430D03*
X007680Y015430D03*
X005680Y015430D03*
X005680Y014180D03*
X007680Y014180D03*
D19*
X004680Y014180D03*
X004680Y015430D03*
X000680Y015430D03*
X000680Y014180D03*
X020430Y015430D03*
X024430Y015430D03*
D20*
X015930Y015430D03*
X014930Y015430D03*
X013930Y015430D03*
X012930Y015430D03*
X011930Y015430D03*
X010930Y015430D03*
X009930Y015430D03*
X008930Y015430D03*
X008930Y014430D03*
X009930Y014430D03*
X010930Y014430D03*
X011930Y014430D03*
X012930Y014430D03*
X013930Y014430D03*
X014930Y014430D03*
X015930Y014430D03*
D21*
X032430Y002680D03*
D22*
X031430Y002680D03*
D23*
X030680Y015180D03*
D24*
X030760Y015200D02*
X033175Y015200D01*
X033197Y015253D02*
X033110Y015043D01*
X033110Y014817D01*
X033197Y014607D01*
X033357Y014447D01*
X033567Y014360D01*
X033793Y014360D01*
X034003Y014447D01*
X034163Y014607D01*
X034180Y014648D01*
X034197Y014607D01*
X034357Y014447D01*
X034567Y014360D01*
X034793Y014360D01*
X035003Y014447D01*
X035024Y014468D01*
X035920Y013572D01*
X035920Y009628D01*
X035960Y009533D01*
X036033Y009460D01*
X036670Y008822D01*
X036670Y008592D01*
X036658Y008587D01*
X036523Y008452D01*
X036450Y008275D01*
X036450Y008085D01*
X036523Y007908D01*
X036658Y007773D01*
X036835Y007700D01*
X037025Y007700D01*
X037202Y007773D01*
X037337Y007908D01*
X037410Y008085D01*
X037410Y008275D01*
X037337Y008452D01*
X037202Y008587D01*
X037190Y008592D01*
X037190Y008982D01*
X037150Y009077D01*
X036440Y009788D01*
X036440Y010052D01*
X037670Y008822D01*
X037670Y008592D01*
X037658Y008587D01*
X037523Y008452D01*
X037450Y008275D01*
X037450Y008085D01*
X037523Y007908D01*
X037658Y007773D01*
X037835Y007700D01*
X038025Y007700D01*
X038202Y007773D01*
X038337Y007908D01*
X038410Y008085D01*
X038410Y008275D01*
X038337Y008452D01*
X038202Y008587D01*
X038190Y008592D01*
X038190Y008982D01*
X038150Y009077D01*
X038028Y009200D01*
X038379Y009200D01*
X038660Y009481D01*
X038660Y009879D01*
X038379Y010160D01*
X037981Y010160D01*
X037700Y009879D01*
X037700Y009528D01*
X036690Y010538D01*
X036690Y013982D01*
X036650Y014077D01*
X036142Y014586D01*
X036163Y014607D01*
X036180Y014648D01*
X036197Y014607D01*
X036357Y014447D01*
X036567Y014360D01*
X036793Y014360D01*
X037003Y014447D01*
X037163Y014607D01*
X037192Y014676D01*
X037210Y014642D01*
X037260Y014572D01*
X037322Y014510D01*
X037392Y014460D01*
X037469Y014420D01*
X037551Y014394D01*
X037637Y014380D01*
X037660Y014380D01*
X037660Y014910D01*
X037700Y014910D01*
X037700Y014950D01*
X037660Y014950D01*
X037660Y015480D01*
X037637Y015480D01*
X037551Y015466D01*
X037469Y015440D01*
X037392Y015400D01*
X037322Y015350D01*
X037260Y015288D01*
X037210Y015218D01*
X037192Y015184D01*
X037163Y015253D01*
X037003Y015413D01*
X036793Y015500D01*
X036567Y015500D01*
X036357Y015413D01*
X036197Y015253D01*
X036180Y015212D01*
X036163Y015253D01*
X036003Y015413D01*
X035793Y015500D01*
X035567Y015500D01*
X035357Y015413D01*
X035197Y015253D01*
X035180Y015212D01*
X035163Y015253D01*
X035003Y015413D01*
X034793Y015500D01*
X034567Y015500D01*
X034357Y015413D01*
X034197Y015253D01*
X034180Y015212D01*
X034163Y015253D01*
X034003Y015413D01*
X033793Y015500D01*
X033567Y015500D01*
X033357Y015413D01*
X033197Y015253D01*
X033302Y015359D02*
X031480Y015359D01*
X031480Y015260D02*
X030760Y015260D01*
X030760Y015100D01*
X031480Y015100D01*
X031480Y014849D01*
X031011Y014380D01*
X030760Y014380D01*
X030760Y015100D01*
X030600Y015100D01*
X030600Y014380D01*
X030349Y014380D01*
X029880Y014849D01*
X029880Y015100D01*
X030600Y015100D01*
X030600Y015260D01*
X029880Y015260D01*
X029880Y015511D01*
X030231Y015862D01*
X028677Y015862D01*
X028910Y015629D01*
X028910Y015231D01*
X028629Y014950D01*
X028231Y014950D01*
X027950Y015231D01*
X027950Y015629D01*
X028183Y015862D01*
X025677Y015862D01*
X025910Y015629D01*
X025910Y015231D01*
X025690Y015011D01*
X025690Y014349D01*
X025910Y014129D01*
X025910Y013731D01*
X025629Y013450D01*
X025231Y013450D01*
X024950Y013731D01*
X024950Y014129D01*
X025170Y014349D01*
X025170Y015011D01*
X024961Y015220D01*
X024958Y015211D01*
X024918Y015131D01*
X024865Y015059D01*
X024801Y014995D01*
X024729Y014942D01*
X024649Y014902D01*
X024563Y014874D01*
X024475Y014860D01*
X024448Y014860D01*
X024448Y015412D01*
X024412Y015412D01*
X024412Y014860D01*
X024385Y014860D01*
X024297Y014874D01*
X024211Y014902D01*
X024131Y014942D01*
X024059Y014995D01*
X023995Y015059D01*
X023942Y015131D01*
X023902Y015211D01*
X023874Y015297D01*
X023860Y015385D01*
X023860Y015412D01*
X024412Y015412D01*
X024412Y015448D01*
X023860Y015448D01*
X023860Y015475D01*
X023874Y015563D01*
X023902Y015649D01*
X023942Y015729D01*
X023995Y015801D01*
X024056Y015862D01*
X020832Y015862D01*
X020930Y015764D01*
X021020Y015547D01*
X021020Y015313D01*
X020930Y015096D01*
X020764Y014930D01*
X020547Y014840D01*
X020313Y014840D01*
X020096Y014930D01*
X019930Y015096D01*
X019840Y015313D01*
X019840Y015547D01*
X019930Y015764D01*
X020028Y015862D01*
X019554Y015862D01*
X019663Y015753D01*
X019750Y015543D01*
X019750Y015317D01*
X019663Y015107D01*
X019503Y014947D01*
X019293Y014860D01*
X019067Y014860D01*
X018887Y014934D01*
X016750Y012797D01*
X016750Y012460D01*
X016800Y012529D01*
X016862Y012591D01*
X016934Y012643D01*
X017012Y012683D01*
X017096Y012710D01*
X017183Y012724D01*
X017209Y012724D01*
X017209Y012183D01*
X017246Y012183D01*
X017246Y012724D01*
X017271Y012724D01*
X017358Y012710D01*
X017442Y012683D01*
X017521Y012643D01*
X017592Y012591D01*
X017654Y012529D01*
X017706Y012458D01*
X017746Y012379D01*
X017773Y012295D01*
X017787Y012208D01*
X017787Y012183D01*
X017246Y012183D01*
X017246Y012146D01*
X017787Y012146D01*
X017787Y012120D01*
X017773Y012033D01*
X017746Y011949D01*
X017706Y011871D01*
X017654Y011799D01*
X017592Y011737D01*
X017522Y011686D01*
X017556Y011672D01*
X017719Y011509D01*
X017807Y011295D01*
X017807Y011065D01*
X017805Y011058D01*
X018191Y011058D01*
X018308Y010941D01*
X018308Y010419D01*
X018191Y010302D01*
X018190Y010302D01*
X018190Y009308D01*
X018191Y009308D01*
X018308Y009191D01*
X018308Y008669D01*
X018191Y008552D01*
X017669Y008552D01*
X017552Y008669D01*
X017552Y009191D01*
X017669Y009308D01*
X017670Y009308D01*
X017670Y009818D01*
X017556Y009704D01*
X017343Y009616D01*
X017112Y009616D01*
X016899Y009704D01*
X016750Y009853D01*
X016750Y009116D01*
X016701Y008999D01*
X016343Y008640D01*
X016430Y008640D01*
X016430Y008180D01*
X016430Y008180D01*
X016890Y008180D01*
X016890Y008371D01*
X016621Y008640D01*
X016430Y008640D01*
X016430Y008180D01*
X016430Y008180D01*
X016430Y008180D01*
X015970Y008180D01*
X015970Y008267D01*
X015910Y008207D01*
X015910Y007981D01*
X015629Y007700D01*
X015231Y007700D01*
X014950Y007981D01*
X014950Y008379D01*
X015231Y008660D01*
X015457Y008660D01*
X016110Y009313D01*
X016110Y012994D01*
X016159Y013111D01*
X016249Y013201D01*
X018624Y015576D01*
X018697Y015753D01*
X018806Y015862D01*
X017554Y015862D01*
X017663Y015753D01*
X017750Y015543D01*
X017750Y015317D01*
X017663Y015107D01*
X017503Y014947D01*
X017293Y014860D01*
X017067Y014860D01*
X016857Y014947D01*
X016697Y015107D01*
X016610Y015317D01*
X016610Y015543D01*
X016697Y015753D01*
X016806Y015862D01*
X016304Y015862D01*
X016500Y015666D01*
X016500Y015194D01*
X016236Y014930D01*
X016500Y014666D01*
X016500Y014194D01*
X016166Y013860D01*
X015694Y013860D01*
X015430Y014124D01*
X015166Y013860D01*
X014694Y013860D01*
X014430Y014124D01*
X014166Y013860D01*
X013694Y013860D01*
X013430Y014124D01*
X013166Y013860D01*
X012694Y013860D01*
X012416Y014138D01*
X012158Y013880D01*
X011950Y013880D01*
X011950Y014410D01*
X011910Y014410D01*
X011910Y013880D01*
X011702Y013880D01*
X011430Y014152D01*
X011158Y013880D01*
X010950Y013880D01*
X010950Y014410D01*
X010950Y014450D01*
X010950Y014880D01*
X010950Y015410D01*
X010950Y015450D01*
X011910Y015450D01*
X011910Y015410D01*
X011950Y015410D01*
X011950Y014980D01*
X011950Y014450D01*
X011910Y014450D01*
X011910Y015410D01*
X011380Y015410D01*
X010950Y015410D01*
X010910Y015410D01*
X010910Y014450D01*
X010950Y014450D01*
X011910Y014450D01*
X011910Y014410D01*
X011380Y014410D01*
X010950Y014410D01*
X010910Y014410D01*
X010910Y013880D01*
X010702Y013880D01*
X010430Y014152D01*
X010158Y013880D01*
X009950Y013880D01*
X009950Y014410D01*
X009950Y014450D01*
X009950Y014880D01*
X009950Y015410D01*
X009950Y015450D01*
X010910Y015450D01*
X010910Y015410D01*
X010380Y015410D01*
X009950Y015410D01*
X009910Y015410D01*
X009910Y014450D01*
X009950Y014450D01*
X010910Y014450D01*
X010910Y014410D01*
X010380Y014410D01*
X009950Y014410D01*
X009910Y014410D01*
X009910Y013880D01*
X009702Y013880D01*
X009444Y014138D01*
X009166Y013860D01*
X008694Y013860D01*
X008360Y014194D01*
X008360Y014666D01*
X008624Y014930D01*
X008360Y015194D01*
X008360Y015666D01*
X008556Y015862D01*
X008054Y015862D01*
X008163Y015753D01*
X008250Y015543D01*
X008250Y015317D01*
X008163Y015107D01*
X008003Y014947D01*
X007793Y014860D01*
X007567Y014860D01*
X007357Y014947D01*
X007197Y015107D01*
X007110Y015317D01*
X007110Y015543D01*
X007197Y015753D01*
X007306Y015862D01*
X006054Y015862D01*
X006163Y015753D01*
X006250Y015543D01*
X006250Y015317D01*
X006163Y015107D01*
X006003Y014947D01*
X005793Y014860D01*
X005567Y014860D01*
X005357Y014947D01*
X005197Y015107D01*
X005191Y015121D01*
X005180Y015096D01*
X005014Y014930D01*
X004797Y014840D01*
X004563Y014840D01*
X004346Y014930D01*
X004180Y015096D01*
X004090Y015313D01*
X004090Y015547D01*
X004180Y015764D01*
X004278Y015862D01*
X001054Y015862D01*
X001115Y015801D01*
X001168Y015729D01*
X001208Y015649D01*
X001236Y015563D01*
X001250Y015475D01*
X001250Y015448D01*
X000698Y015448D01*
X000698Y015412D01*
X001250Y015412D01*
X001250Y015385D01*
X001236Y015297D01*
X001208Y015211D01*
X001168Y015131D01*
X001115Y015059D01*
X001051Y014995D01*
X000979Y014942D01*
X000899Y014902D01*
X000813Y014874D01*
X000725Y014860D01*
X000698Y014860D01*
X000698Y015412D01*
X000662Y015412D01*
X000662Y014860D01*
X000635Y014860D01*
X000547Y014874D01*
X000461Y014902D01*
X000381Y014942D01*
X000380Y014943D01*
X000380Y014667D01*
X000381Y014668D01*
X000461Y014708D01*
X000547Y014736D01*
X000635Y014750D01*
X000662Y014750D01*
X000662Y014198D01*
X000698Y014198D01*
X000698Y014750D01*
X000725Y014750D01*
X000813Y014736D01*
X000899Y014708D01*
X000979Y014668D01*
X001051Y014615D01*
X001115Y014551D01*
X001168Y014479D01*
X001208Y014399D01*
X001236Y014313D01*
X001250Y014225D01*
X001250Y014198D01*
X000698Y014198D01*
X000698Y014162D01*
X001250Y014162D01*
X001250Y014135D01*
X001236Y014047D01*
X001208Y013961D01*
X001168Y013881D01*
X001115Y013809D01*
X001051Y013745D01*
X000979Y013692D01*
X000899Y013652D01*
X000813Y013624D01*
X000725Y013610D01*
X000698Y013610D01*
X000698Y014162D01*
X000662Y014162D01*
X000662Y013610D01*
X000635Y013610D01*
X000547Y013624D01*
X000461Y013652D01*
X000381Y013692D01*
X000380Y013693D01*
X000380Y003113D01*
X000807Y003540D01*
X001561Y003540D01*
X002095Y003006D01*
X002095Y002251D01*
X001561Y001718D01*
X000807Y001718D01*
X000380Y002144D01*
X000380Y000755D01*
X039350Y000755D01*
X039350Y004940D01*
X039337Y004908D01*
X039202Y004773D01*
X039025Y004700D01*
X038835Y004700D01*
X038658Y004773D01*
X038523Y004908D01*
X038450Y005085D01*
X038450Y005275D01*
X038523Y005452D01*
X038658Y005587D01*
X038835Y005660D01*
X039025Y005660D01*
X039202Y005587D01*
X039337Y005452D01*
X039350Y005420D01*
X039350Y007940D01*
X039337Y007908D01*
X039202Y007773D01*
X039025Y007700D01*
X038835Y007700D01*
X038658Y007773D01*
X038523Y007908D01*
X038450Y008085D01*
X038450Y008275D01*
X038523Y008452D01*
X038658Y008587D01*
X038835Y008660D01*
X039025Y008660D01*
X039202Y008587D01*
X039337Y008452D01*
X039350Y008420D01*
X039350Y011421D01*
X039129Y011200D01*
X038731Y011200D01*
X038450Y011481D01*
X038450Y011879D01*
X038731Y012160D01*
X039129Y012160D01*
X039350Y011939D01*
X039350Y013421D01*
X039129Y013200D01*
X038731Y013200D01*
X038450Y013481D01*
X038450Y013879D01*
X038731Y014160D01*
X039129Y014160D01*
X039350Y013939D01*
X039350Y015862D01*
X031129Y015862D01*
X031480Y015511D01*
X031480Y015260D01*
X031480Y015042D02*
X033110Y015042D01*
X033110Y014883D02*
X031480Y014883D01*
X031356Y014725D02*
X033148Y014725D01*
X033238Y014566D02*
X031197Y014566D01*
X031039Y014408D02*
X032479Y014408D01*
X032481Y014410D02*
X032200Y014129D01*
X032200Y013731D01*
X032481Y013450D01*
X032792Y013450D01*
X032920Y013322D01*
X032920Y011128D01*
X032960Y011033D01*
X033033Y010960D01*
X033920Y010072D01*
X033920Y008660D01*
X033835Y008660D01*
X033690Y008600D01*
X033690Y009482D01*
X033650Y009577D01*
X033577Y009650D01*
X033190Y010038D01*
X033190Y010529D01*
X033150Y010625D01*
X032779Y010996D01*
X032807Y011065D01*
X032807Y011295D01*
X032719Y011509D01*
X032556Y011672D01*
X032522Y011686D01*
X032592Y011737D01*
X032654Y011799D01*
X032706Y011871D01*
X032746Y011949D01*
X032773Y012033D01*
X032787Y012120D01*
X032787Y012146D01*
X032246Y012146D01*
X032246Y012183D01*
X032209Y012183D01*
X032209Y012724D01*
X032183Y012724D01*
X032096Y012710D01*
X032012Y012683D01*
X031934Y012643D01*
X031862Y012591D01*
X031800Y012529D01*
X031748Y012458D01*
X031708Y012379D01*
X031681Y012295D01*
X031667Y012208D01*
X031667Y012183D01*
X032209Y012183D01*
X032209Y012146D01*
X031667Y012146D01*
X031667Y012120D01*
X031681Y012033D01*
X031708Y011949D01*
X031748Y011871D01*
X031800Y011799D01*
X031862Y011737D01*
X031933Y011686D01*
X031899Y011672D01*
X031736Y011509D01*
X031647Y011295D01*
X031647Y011065D01*
X031736Y010851D01*
X031899Y010688D01*
X031900Y010688D01*
X031899Y010687D01*
X031736Y010524D01*
X031647Y010311D01*
X031647Y010080D01*
X031736Y009867D01*
X031899Y009704D01*
X032048Y009642D01*
X031910Y009585D01*
X031775Y009450D01*
X031703Y009275D01*
X031703Y009085D01*
X031775Y008910D01*
X031910Y008775D01*
X032085Y008703D01*
X032275Y008703D01*
X032450Y008775D01*
X032585Y008910D01*
X032657Y009085D01*
X032657Y009275D01*
X032585Y009450D01*
X032450Y009585D01*
X032359Y009623D01*
X032556Y009704D01*
X032688Y009836D01*
X032710Y009783D01*
X032783Y009710D01*
X033170Y009322D01*
X033170Y008600D01*
X033025Y008660D01*
X032835Y008660D01*
X032658Y008587D01*
X032523Y008452D01*
X032450Y008275D01*
X032450Y008085D01*
X032523Y007908D01*
X032610Y007821D01*
X032610Y007313D01*
X031659Y006361D01*
X031610Y006244D01*
X031610Y005539D01*
X031523Y005452D01*
X031450Y005275D01*
X031450Y005085D01*
X031523Y004908D01*
X031658Y004773D01*
X031835Y004700D01*
X032025Y004700D01*
X032202Y004773D01*
X032337Y004908D01*
X032410Y005085D01*
X032410Y005275D01*
X032337Y005452D01*
X032250Y005539D01*
X032250Y006047D01*
X033111Y006909D01*
X033201Y006999D01*
X033250Y007116D01*
X033250Y007492D01*
X033283Y007460D01*
X033670Y007072D01*
X033670Y005592D01*
X033658Y005587D01*
X033523Y005452D01*
X033450Y005275D01*
X033450Y005085D01*
X033523Y004908D01*
X033658Y004773D01*
X033835Y004700D01*
X034025Y004700D01*
X034202Y004773D01*
X034337Y004908D01*
X034410Y005085D01*
X034410Y005275D01*
X034337Y005452D01*
X034202Y005587D01*
X034190Y005592D01*
X034190Y007232D01*
X034150Y007327D01*
X033738Y007740D01*
X033835Y007700D01*
X034025Y007700D01*
X034170Y007760D01*
X034170Y007628D01*
X034210Y007533D01*
X034283Y007460D01*
X034670Y007072D01*
X034670Y005592D01*
X034658Y005587D01*
X034523Y005452D01*
X034450Y005275D01*
X034450Y005085D01*
X034523Y004908D01*
X034658Y004773D01*
X034835Y004700D01*
X035025Y004700D01*
X035202Y004773D01*
X035337Y004908D01*
X035410Y005085D01*
X035410Y005275D01*
X035337Y005452D01*
X035202Y005587D01*
X035190Y005592D01*
X035190Y007232D01*
X035150Y007327D01*
X034738Y007740D01*
X034835Y007700D01*
X035025Y007700D01*
X035202Y007773D01*
X035337Y007908D01*
X035410Y008085D01*
X035410Y008275D01*
X035337Y008452D01*
X035202Y008587D01*
X035025Y008660D01*
X034835Y008660D01*
X034658Y008587D01*
X034649Y008578D01*
X034577Y008650D01*
X034440Y008788D01*
X034440Y010232D01*
X034400Y010327D01*
X034327Y010400D01*
X033440Y011288D01*
X033440Y013482D01*
X033400Y013577D01*
X033327Y013650D01*
X033160Y013818D01*
X033160Y014129D01*
X032879Y014410D01*
X032481Y014410D01*
X032320Y014249D02*
X030040Y014249D01*
X030160Y014129D02*
X029879Y014410D01*
X029481Y014410D01*
X029200Y014129D01*
X029200Y013731D01*
X029481Y013450D01*
X029879Y013450D01*
X030160Y013731D01*
X030160Y014129D01*
X030160Y014091D02*
X032200Y014091D01*
X032200Y013932D02*
X030160Y013932D01*
X030160Y013774D02*
X032200Y013774D01*
X032316Y013615D02*
X030044Y013615D01*
X029885Y013457D02*
X032475Y013457D01*
X032920Y013298D02*
X028371Y013298D01*
X028414Y013256D02*
X027984Y013685D01*
X027760Y013685D01*
X027760Y013032D01*
X027600Y013032D01*
X027600Y013685D01*
X027376Y013685D01*
X026946Y013256D01*
X026946Y013032D01*
X027600Y013032D01*
X027600Y012872D01*
X026946Y012872D01*
X026946Y012648D01*
X027376Y012218D01*
X027600Y012218D01*
X027600Y012872D01*
X027760Y012872D01*
X027760Y013032D01*
X028414Y013032D01*
X028414Y013256D01*
X028414Y013140D02*
X032920Y013140D01*
X032920Y012981D02*
X027760Y012981D01*
X027760Y012872D02*
X028414Y012872D01*
X028414Y012648D01*
X027984Y012218D01*
X027760Y012218D01*
X027760Y012872D01*
X027760Y012823D02*
X027600Y012823D01*
X027600Y012981D02*
X023558Y012981D01*
X023660Y012879D02*
X023379Y013160D01*
X022981Y013160D01*
X022700Y012879D01*
X022700Y012481D01*
X022981Y012200D01*
X023379Y012200D01*
X023660Y012481D01*
X023660Y012879D01*
X023660Y012823D02*
X026946Y012823D01*
X026946Y012664D02*
X024980Y012664D01*
X024942Y012683D02*
X024858Y012710D01*
X024771Y012724D01*
X024746Y012724D01*
X024746Y012183D01*
X024709Y012183D01*
X024709Y012724D01*
X024683Y012724D01*
X024596Y012710D01*
X024512Y012683D01*
X024434Y012643D01*
X024362Y012591D01*
X024300Y012529D01*
X024248Y012458D01*
X024208Y012379D01*
X024181Y012295D01*
X024167Y012208D01*
X024167Y012183D01*
X024709Y012183D01*
X024709Y012146D01*
X024167Y012146D01*
X024167Y012120D01*
X024181Y012033D01*
X024208Y011949D01*
X024248Y011871D01*
X024300Y011799D01*
X024362Y011737D01*
X024433Y011686D01*
X024399Y011672D01*
X024236Y011509D01*
X024147Y011295D01*
X024147Y011065D01*
X024236Y010851D01*
X024399Y010688D01*
X024400Y010688D01*
X024399Y010687D01*
X024236Y010524D01*
X024147Y010311D01*
X024147Y010080D01*
X024236Y009867D01*
X024399Y009704D01*
X024407Y009701D01*
X024407Y008605D01*
X024275Y008660D01*
X024085Y008660D01*
X023908Y008587D01*
X023773Y008452D01*
X023700Y008275D01*
X023700Y008085D01*
X023773Y007908D01*
X023908Y007773D01*
X024085Y007700D01*
X024275Y007700D01*
X024407Y007755D01*
X024407Y005860D01*
X024207Y005660D01*
X024085Y005660D01*
X023908Y005587D01*
X023773Y005452D01*
X023700Y005275D01*
X023700Y005085D01*
X023773Y004908D01*
X023908Y004773D01*
X024085Y004700D01*
X024275Y004700D01*
X024452Y004773D01*
X024587Y004908D01*
X024660Y005085D01*
X024660Y005207D01*
X024999Y005546D01*
X025047Y005664D01*
X025047Y009701D01*
X025056Y009704D01*
X025219Y009867D01*
X025307Y010080D01*
X025307Y010311D01*
X025219Y010524D01*
X025056Y010687D01*
X025055Y010688D01*
X025056Y010688D01*
X025219Y010851D01*
X025307Y011065D01*
X025307Y011295D01*
X025219Y011509D01*
X025056Y011672D01*
X025022Y011686D01*
X025092Y011737D01*
X025154Y011799D01*
X025206Y011871D01*
X025246Y011949D01*
X025273Y012033D01*
X025287Y012120D01*
X025287Y012146D01*
X024746Y012146D01*
X024746Y012183D01*
X025287Y012183D01*
X025287Y012208D01*
X025273Y012295D01*
X025246Y012379D01*
X025206Y012458D01*
X025154Y012529D01*
X025092Y012591D01*
X025021Y012643D01*
X024942Y012683D01*
X024746Y012664D02*
X024709Y012664D01*
X024709Y012506D02*
X024746Y012506D01*
X024746Y012347D02*
X024709Y012347D01*
X024709Y012189D02*
X024746Y012189D01*
X025171Y012506D02*
X027089Y012506D01*
X027247Y012347D02*
X025257Y012347D01*
X025287Y012189D02*
X031667Y012189D01*
X031682Y012030D02*
X025272Y012030D01*
X025207Y011872D02*
X031748Y011872D01*
X031896Y011713D02*
X025059Y011713D01*
X025173Y011555D02*
X031782Y011555D01*
X031689Y011396D02*
X025266Y011396D01*
X025307Y011238D02*
X031647Y011238D01*
X031647Y011079D02*
X025307Y011079D01*
X025248Y010921D02*
X031707Y010921D01*
X031825Y010762D02*
X025130Y010762D01*
X025140Y010604D02*
X031815Y010604D01*
X031703Y010445D02*
X025252Y010445D01*
X025307Y010287D02*
X031647Y010287D01*
X031647Y010128D02*
X027998Y010128D01*
X027984Y010142D02*
X027760Y010142D01*
X027760Y009488D01*
X028414Y009488D01*
X028414Y009712D01*
X027984Y010142D01*
X027760Y010128D02*
X027600Y010128D01*
X027600Y010142D02*
X027376Y010142D01*
X026946Y009712D01*
X026946Y009488D01*
X027600Y009488D01*
X027600Y009328D01*
X027760Y009328D01*
X027760Y008675D01*
X027984Y008675D01*
X028414Y009104D01*
X028414Y009328D01*
X027760Y009328D01*
X027760Y009488D01*
X027600Y009488D01*
X027600Y010142D01*
X027600Y009970D02*
X027760Y009970D01*
X027760Y009811D02*
X027600Y009811D01*
X027600Y009653D02*
X027760Y009653D01*
X027760Y009494D02*
X027600Y009494D01*
X027600Y009336D02*
X025047Y009336D01*
X025047Y009494D02*
X026946Y009494D01*
X026946Y009653D02*
X025047Y009653D01*
X025163Y009811D02*
X027045Y009811D01*
X027204Y009970D02*
X025261Y009970D01*
X025307Y010128D02*
X027362Y010128D01*
X028156Y009970D02*
X031693Y009970D01*
X031792Y009811D02*
X028315Y009811D01*
X028414Y009653D02*
X030073Y009653D01*
X030085Y009657D02*
X029910Y009585D01*
X029775Y009450D01*
X029703Y009275D01*
X029703Y009085D01*
X029775Y008910D01*
X029910Y008775D01*
X030085Y008703D01*
X030275Y008703D01*
X030450Y008775D01*
X030585Y008910D01*
X030657Y009085D01*
X030657Y009275D01*
X030585Y009450D01*
X030450Y009585D01*
X030275Y009657D01*
X030085Y009657D01*
X030287Y009653D02*
X032023Y009653D01*
X031819Y009494D02*
X031513Y009494D01*
X031529Y009478D02*
X031478Y009529D01*
X031420Y009571D01*
X031356Y009604D01*
X031287Y009626D01*
X031216Y009637D01*
X031180Y009637D01*
X031144Y009637D01*
X031073Y009626D01*
X031004Y009604D01*
X030940Y009571D01*
X030882Y009529D01*
X030831Y009478D01*
X030789Y009420D01*
X030756Y009356D01*
X030734Y009287D01*
X030723Y009216D01*
X030723Y009180D01*
X030723Y009144D01*
X030734Y009073D01*
X030756Y009004D01*
X030789Y008940D01*
X030831Y008882D01*
X030882Y008831D01*
X030940Y008789D01*
X031004Y008756D01*
X031073Y008734D01*
X031144Y008723D01*
X031180Y008723D01*
X031216Y008723D01*
X031287Y008734D01*
X031356Y008756D01*
X031420Y008789D01*
X031478Y008831D01*
X031529Y008882D01*
X031571Y008940D01*
X031604Y009004D01*
X031626Y009073D01*
X031637Y009144D01*
X031637Y009180D01*
X031180Y009180D01*
X031637Y009180D01*
X031637Y009216D01*
X031626Y009287D01*
X031604Y009356D01*
X031571Y009420D01*
X031529Y009478D01*
X031610Y009336D02*
X031728Y009336D01*
X031703Y009177D02*
X031637Y009177D01*
X031609Y009019D02*
X031730Y009019D01*
X031825Y008860D02*
X031507Y008860D01*
X031180Y008860D02*
X031180Y008860D01*
X031180Y008723D02*
X031180Y009180D01*
X031180Y009180D01*
X031180Y009180D01*
X031180Y009637D01*
X031180Y009180D01*
X031180Y009180D01*
X031180Y009180D01*
X030723Y009180D01*
X031180Y009180D01*
X031180Y008723D01*
X031202Y008587D02*
X031025Y008660D01*
X030835Y008660D01*
X030658Y008587D01*
X030523Y008452D01*
X030450Y008275D01*
X030450Y008085D01*
X030523Y007908D01*
X030658Y007773D01*
X030835Y007700D01*
X031025Y007700D01*
X031202Y007773D01*
X031337Y007908D01*
X031410Y008085D01*
X031410Y008275D01*
X031337Y008452D01*
X031202Y008587D01*
X031246Y008543D02*
X031647Y008543D01*
X031630Y008531D02*
X031579Y008480D01*
X031537Y008421D01*
X031504Y008357D01*
X031481Y008288D01*
X031470Y008216D01*
X031470Y008180D01*
X031930Y008180D01*
X031930Y008180D01*
X031930Y008640D01*
X031966Y008640D01*
X032038Y008629D01*
X032107Y008606D01*
X032171Y008573D01*
X032230Y008531D01*
X032281Y008480D01*
X032323Y008421D01*
X032356Y008357D01*
X032379Y008288D01*
X032390Y008216D01*
X032390Y008180D01*
X031930Y008180D01*
X031930Y008180D01*
X031930Y008180D01*
X031930Y008640D01*
X031894Y008640D01*
X031822Y008629D01*
X031753Y008606D01*
X031689Y008573D01*
X031630Y008531D01*
X031518Y008385D02*
X031365Y008385D01*
X031410Y008226D02*
X031472Y008226D01*
X031470Y008180D02*
X031470Y008144D01*
X031481Y008072D01*
X031504Y008003D01*
X031537Y007939D01*
X031579Y007880D01*
X031630Y007829D01*
X031689Y007787D01*
X031753Y007754D01*
X031822Y007731D01*
X031894Y007720D01*
X031930Y007720D01*
X031966Y007720D01*
X032038Y007731D01*
X032107Y007754D01*
X032171Y007787D01*
X032230Y007829D01*
X032281Y007880D01*
X032323Y007939D01*
X032356Y008003D01*
X032379Y008072D01*
X032390Y008144D01*
X032390Y008180D01*
X031930Y008180D01*
X031930Y007720D01*
X031930Y008180D01*
X031930Y008180D01*
X031470Y008180D01*
X031483Y008068D02*
X031403Y008068D01*
X031337Y007909D02*
X031558Y007909D01*
X031763Y007751D02*
X031147Y007751D01*
X030713Y007751D02*
X030147Y007751D01*
X030202Y007773D02*
X030337Y007908D01*
X030410Y008085D01*
X030410Y008275D01*
X030337Y008452D01*
X030202Y008587D01*
X030025Y008660D01*
X029835Y008660D01*
X029658Y008587D01*
X029523Y008452D01*
X029450Y008275D01*
X029450Y008085D01*
X029523Y007908D01*
X029658Y007773D01*
X029835Y007700D01*
X030025Y007700D01*
X030202Y007773D01*
X030337Y007909D02*
X030523Y007909D01*
X030457Y008068D02*
X030403Y008068D01*
X030410Y008226D02*
X030450Y008226D01*
X030495Y008385D02*
X030365Y008385D01*
X030246Y008543D02*
X030614Y008543D01*
X030535Y008860D02*
X030853Y008860D01*
X030751Y009019D02*
X030630Y009019D01*
X030657Y009177D02*
X030723Y009177D01*
X030750Y009336D02*
X030632Y009336D01*
X030541Y009494D02*
X030847Y009494D01*
X031180Y009494D02*
X031180Y009494D01*
X031180Y009336D02*
X031180Y009336D01*
X031180Y009177D02*
X031180Y009177D01*
X031180Y009019D02*
X031180Y009019D01*
X031930Y008543D02*
X031930Y008543D01*
X031930Y008385D02*
X031930Y008385D01*
X031930Y008226D02*
X031930Y008226D01*
X031930Y008068D02*
X031930Y008068D01*
X031930Y007909D02*
X031930Y007909D01*
X031930Y007751D02*
X031930Y007751D01*
X032097Y007751D02*
X032610Y007751D01*
X032610Y007592D02*
X028690Y007592D01*
X028690Y007434D02*
X032610Y007434D01*
X032572Y007275D02*
X029224Y007275D01*
X029191Y007308D02*
X028690Y007308D01*
X028690Y007760D01*
X028835Y007700D01*
X029025Y007700D01*
X029202Y007773D01*
X029337Y007908D01*
X029410Y008085D01*
X029410Y008275D01*
X029337Y008452D01*
X029202Y008587D01*
X029025Y008660D01*
X028835Y008660D01*
X028658Y008587D01*
X028523Y008452D01*
X028451Y008277D01*
X028400Y008327D01*
X028380Y008348D01*
X028337Y008452D01*
X028202Y008587D01*
X028025Y008660D01*
X027835Y008660D01*
X027658Y008587D01*
X027523Y008452D01*
X027450Y008275D01*
X027450Y008085D01*
X027523Y007908D01*
X027658Y007773D01*
X027835Y007700D01*
X028025Y007700D01*
X028170Y007760D01*
X028170Y005600D01*
X028025Y005660D01*
X027835Y005660D01*
X027658Y005587D01*
X027523Y005452D01*
X027450Y005275D01*
X027450Y005085D01*
X027523Y004908D01*
X027532Y004899D01*
X027322Y004690D01*
X023378Y004690D01*
X023283Y004650D01*
X023210Y004577D01*
X021859Y003227D01*
X021859Y003951D01*
X021325Y004485D01*
X020570Y004485D01*
X020037Y003951D01*
X020037Y003196D01*
X020570Y002663D01*
X021295Y002663D01*
X020190Y001558D01*
X019919Y001558D01*
X019802Y001441D01*
X019802Y000919D01*
X019919Y000802D01*
X020441Y000802D01*
X020558Y000919D01*
X020558Y001190D01*
X023246Y003878D01*
X023246Y003614D01*
X024057Y003614D01*
X024057Y003454D01*
X024217Y003454D01*
X024217Y003614D01*
X025028Y003614D01*
X025028Y003903D01*
X024761Y004170D01*
X027482Y004170D01*
X027577Y004210D01*
X028077Y004710D01*
X028098Y004730D01*
X028170Y004760D01*
X028170Y004628D01*
X028210Y004533D01*
X028283Y004460D01*
X028985Y003757D01*
X028737Y003508D01*
X028737Y002851D01*
X029201Y002387D01*
X029858Y002387D01*
X030323Y002851D01*
X030323Y003508D01*
X029858Y003973D01*
X029505Y003973D01*
X028738Y004740D01*
X028835Y004700D01*
X029025Y004700D01*
X029202Y004773D01*
X029337Y004908D01*
X029410Y005085D01*
X029410Y005275D01*
X029337Y005452D01*
X029202Y005587D01*
X029190Y005592D01*
X029190Y006552D01*
X029191Y006552D01*
X029308Y006669D01*
X029308Y007191D01*
X029191Y007308D01*
X029308Y007117D02*
X032414Y007117D01*
X032255Y006958D02*
X029308Y006958D01*
X029308Y006800D02*
X032097Y006800D01*
X031938Y006641D02*
X029280Y006641D01*
X029190Y006483D02*
X031780Y006483D01*
X031643Y006324D02*
X029190Y006324D01*
X029190Y006166D02*
X031610Y006166D01*
X031610Y006007D02*
X029190Y006007D01*
X029190Y005849D02*
X031610Y005849D01*
X031610Y005690D02*
X029190Y005690D01*
X029257Y005532D02*
X029603Y005532D01*
X029658Y005587D02*
X029523Y005452D01*
X029450Y005275D01*
X029450Y005085D01*
X029523Y004908D01*
X029658Y004773D01*
X029835Y004700D01*
X030025Y004700D01*
X030202Y004773D01*
X030337Y004908D01*
X030410Y005085D01*
X030410Y005275D01*
X030337Y005452D01*
X030202Y005587D01*
X030025Y005660D01*
X029835Y005660D01*
X029658Y005587D01*
X029490Y005373D02*
X029370Y005373D01*
X029410Y005215D02*
X029450Y005215D01*
X029462Y005056D02*
X029398Y005056D01*
X029326Y004898D02*
X029534Y004898D01*
X029740Y004739D02*
X029120Y004739D01*
X028897Y004581D02*
X030652Y004581D01*
X030731Y004660D02*
X030450Y004379D01*
X030450Y003981D01*
X030731Y003700D01*
X031129Y003700D01*
X031410Y003981D01*
X031410Y004379D01*
X031129Y004660D01*
X030731Y004660D01*
X030740Y004739D02*
X030120Y004739D01*
X030326Y004898D02*
X030534Y004898D01*
X030523Y004908D02*
X030658Y004773D01*
X030835Y004700D01*
X031025Y004700D01*
X031202Y004773D01*
X031337Y004908D01*
X031410Y005085D01*
X031410Y005275D01*
X031337Y005452D01*
X031202Y005587D01*
X031025Y005660D01*
X030835Y005660D01*
X030658Y005587D01*
X030523Y005452D01*
X030450Y005275D01*
X030450Y005085D01*
X030523Y004908D01*
X030462Y005056D02*
X030398Y005056D01*
X030410Y005215D02*
X030450Y005215D01*
X030490Y005373D02*
X030370Y005373D01*
X030257Y005532D02*
X030603Y005532D01*
X031257Y005532D02*
X031603Y005532D01*
X031490Y005373D02*
X031370Y005373D01*
X031410Y005215D02*
X031450Y005215D01*
X031462Y005056D02*
X031398Y005056D01*
X031326Y004898D02*
X031534Y004898D01*
X031740Y004739D02*
X031120Y004739D01*
X031208Y004581D02*
X032680Y004581D01*
X032739Y004640D02*
X032470Y004371D01*
X032470Y004180D01*
X032930Y004180D01*
X032930Y004180D01*
X032930Y004640D01*
X033121Y004640D01*
X033390Y004371D01*
X033390Y004319D01*
X033481Y004410D01*
X033879Y004410D01*
X034160Y004129D01*
X034160Y003731D01*
X033879Y003450D01*
X033481Y003450D01*
X033200Y003731D01*
X033200Y003799D01*
X033121Y003720D01*
X032930Y003720D01*
X032930Y004180D01*
X032930Y004180D01*
X032930Y004180D01*
X032930Y004640D01*
X032739Y004640D01*
X032753Y004754D02*
X032822Y004731D01*
X032894Y004720D01*
X032930Y004720D01*
X032966Y004720D01*
X033038Y004731D01*
X033107Y004754D01*
X033171Y004787D01*
X033230Y004829D01*
X033281Y004880D01*
X033323Y004939D01*
X033356Y005003D01*
X033379Y005072D01*
X033390Y005144D01*
X033390Y005180D01*
X033390Y005216D01*
X033379Y005288D01*
X033356Y005357D01*
X033323Y005421D01*
X033281Y005480D01*
X033230Y005531D01*
X033171Y005573D01*
X033107Y005606D01*
X033038Y005629D01*
X032966Y005640D01*
X032930Y005640D01*
X032930Y005180D01*
X032930Y005180D01*
X033390Y005180D01*
X032930Y005180D01*
X032930Y005180D01*
X032930Y005180D01*
X032470Y005180D01*
X032470Y005216D01*
X032481Y005288D01*
X032504Y005357D01*
X032537Y005421D01*
X032579Y005480D01*
X032630Y005531D01*
X032689Y005573D01*
X032753Y005606D01*
X032822Y005629D01*
X032894Y005640D01*
X032930Y005640D01*
X032930Y005180D01*
X032930Y004720D01*
X032930Y005180D01*
X032930Y005180D01*
X032470Y005180D01*
X032470Y005144D01*
X032481Y005072D01*
X032504Y005003D01*
X032537Y004939D01*
X032579Y004880D01*
X032630Y004829D01*
X032689Y004787D01*
X032753Y004754D01*
X032799Y004739D02*
X032120Y004739D01*
X032326Y004898D02*
X032567Y004898D01*
X032487Y005056D02*
X032398Y005056D01*
X032410Y005215D02*
X032470Y005215D01*
X032512Y005373D02*
X032370Y005373D01*
X032257Y005532D02*
X032631Y005532D01*
X032930Y005532D02*
X032930Y005532D01*
X032930Y005373D02*
X032930Y005373D01*
X032930Y005215D02*
X032930Y005215D01*
X032930Y005056D02*
X032930Y005056D01*
X032930Y004898D02*
X032930Y004898D01*
X032930Y004739D02*
X032930Y004739D01*
X033061Y004739D02*
X033740Y004739D01*
X033534Y004898D02*
X033293Y004898D01*
X033373Y005056D02*
X033462Y005056D01*
X033450Y005215D02*
X033390Y005215D01*
X033348Y005373D02*
X033490Y005373D01*
X033603Y005532D02*
X033229Y005532D01*
X033670Y005690D02*
X032250Y005690D01*
X032250Y005849D02*
X033670Y005849D01*
X033670Y006007D02*
X032250Y006007D01*
X032368Y006166D02*
X033670Y006166D01*
X033670Y006324D02*
X032527Y006324D01*
X032685Y006483D02*
X033670Y006483D01*
X033670Y006641D02*
X032844Y006641D01*
X033002Y006800D02*
X033670Y006800D01*
X033670Y006958D02*
X033161Y006958D01*
X033250Y007117D02*
X033626Y007117D01*
X033467Y007275D02*
X033250Y007275D01*
X033250Y007434D02*
X033309Y007434D01*
X033886Y007592D02*
X034185Y007592D01*
X034170Y007751D02*
X034147Y007751D01*
X034044Y007434D02*
X034309Y007434D01*
X034172Y007275D02*
X034467Y007275D01*
X034626Y007117D02*
X034190Y007117D01*
X034190Y006958D02*
X034670Y006958D01*
X034670Y006800D02*
X034190Y006800D01*
X034190Y006641D02*
X034670Y006641D01*
X034670Y006483D02*
X034190Y006483D01*
X034190Y006324D02*
X034670Y006324D01*
X034670Y006166D02*
X034190Y006166D01*
X034190Y006007D02*
X034670Y006007D01*
X034670Y005849D02*
X034190Y005849D01*
X034190Y005690D02*
X034670Y005690D01*
X034603Y005532D02*
X034257Y005532D01*
X034370Y005373D02*
X034490Y005373D01*
X034450Y005215D02*
X034410Y005215D01*
X034398Y005056D02*
X034462Y005056D01*
X034534Y004898D02*
X034326Y004898D01*
X034120Y004739D02*
X034740Y004739D01*
X035120Y004739D02*
X035670Y004739D01*
X035670Y004768D02*
X035670Y002808D01*
X035669Y002808D01*
X035552Y002691D01*
X035552Y002169D01*
X035669Y002052D01*
X036191Y002052D01*
X036200Y002061D01*
X036200Y001731D01*
X036481Y001450D01*
X036879Y001450D01*
X037160Y001731D01*
X037160Y002129D01*
X036879Y002410D01*
X036481Y002410D01*
X036308Y002237D01*
X036308Y002623D01*
X036481Y002450D01*
X036879Y002450D01*
X037160Y002731D01*
X037160Y003129D01*
X036879Y003410D01*
X036481Y003410D01*
X036200Y003129D01*
X036200Y002799D01*
X036191Y002808D01*
X036190Y002808D01*
X036190Y004768D01*
X036202Y004773D01*
X036337Y004908D01*
X036410Y005085D01*
X036410Y005275D01*
X036337Y005452D01*
X036202Y005587D01*
X036025Y005660D01*
X035835Y005660D01*
X035658Y005587D01*
X035523Y005452D01*
X035450Y005275D01*
X035450Y005085D01*
X035523Y004908D01*
X035658Y004773D01*
X035670Y004768D01*
X035670Y004581D02*
X033180Y004581D01*
X033339Y004422D02*
X035670Y004422D01*
X035670Y004264D02*
X034025Y004264D01*
X034160Y004105D02*
X035670Y004105D01*
X035670Y003947D02*
X034160Y003947D01*
X034160Y003788D02*
X035670Y003788D01*
X035670Y003630D02*
X034058Y003630D01*
X033900Y003471D02*
X035670Y003471D01*
X035670Y003313D02*
X033948Y003313D01*
X033871Y003390D02*
X033680Y003390D01*
X033680Y002930D01*
X034140Y002930D01*
X034140Y003121D01*
X033871Y003390D01*
X033680Y003390D02*
X033489Y003390D01*
X033220Y003121D01*
X033220Y002930D01*
X033680Y002930D01*
X033680Y002930D01*
X033680Y002930D01*
X034140Y002930D01*
X034140Y002739D01*
X033871Y002470D01*
X033680Y002470D01*
X033680Y002930D01*
X033680Y002930D01*
X033680Y002930D01*
X033680Y003390D01*
X033680Y003313D02*
X033680Y003313D01*
X033680Y003154D02*
X033680Y003154D01*
X033680Y002996D02*
X033680Y002996D01*
X033680Y002930D02*
X033220Y002930D01*
X033220Y002739D01*
X033489Y002470D01*
X033680Y002470D01*
X033680Y002930D01*
X033680Y002837D02*
X033680Y002837D01*
X033680Y002679D02*
X033680Y002679D01*
X033680Y002520D02*
X033680Y002520D01*
X033879Y002410D02*
X033481Y002410D01*
X033200Y002129D01*
X033200Y001731D01*
X033481Y001450D01*
X033879Y001450D01*
X034160Y001731D01*
X034160Y002129D01*
X033879Y002410D01*
X033927Y002362D02*
X035552Y002362D01*
X035552Y002520D02*
X033921Y002520D01*
X034079Y002679D02*
X035552Y002679D01*
X035670Y002837D02*
X034140Y002837D01*
X034140Y002996D02*
X035670Y002996D01*
X035670Y003154D02*
X034107Y003154D01*
X033412Y003313D02*
X030323Y003313D01*
X030323Y003471D02*
X033460Y003471D01*
X033302Y003630D02*
X030202Y003630D01*
X030044Y003788D02*
X030643Y003788D01*
X030485Y003947D02*
X029885Y003947D01*
X029373Y004105D02*
X030450Y004105D01*
X030450Y004264D02*
X029214Y004264D01*
X029056Y004422D02*
X030493Y004422D01*
X031367Y004422D02*
X032521Y004422D01*
X032470Y004264D02*
X031410Y004264D01*
X031410Y004105D02*
X032470Y004105D01*
X032470Y004180D02*
X032470Y003989D01*
X032739Y003720D01*
X032930Y003720D01*
X032930Y004180D01*
X032470Y004180D01*
X032513Y003947D02*
X031375Y003947D01*
X031217Y003788D02*
X032671Y003788D01*
X032930Y003788D02*
X032930Y003788D01*
X032930Y003947D02*
X032930Y003947D01*
X032930Y004105D02*
X032930Y004105D01*
X032930Y004264D02*
X032930Y004264D01*
X032930Y004422D02*
X032930Y004422D01*
X032930Y004581D02*
X032930Y004581D01*
X033189Y003788D02*
X033200Y003788D01*
X033253Y003154D02*
X032656Y003154D01*
X032635Y003175D02*
X032430Y003175D01*
X032430Y002680D01*
X032925Y002680D01*
X032925Y002885D01*
X032635Y003175D01*
X032430Y003175D02*
X032225Y003175D01*
X031935Y002885D01*
X031935Y002807D01*
X031867Y002972D01*
X031722Y003117D01*
X031532Y003195D01*
X031328Y003195D01*
X031138Y003117D01*
X030993Y002972D01*
X030915Y002782D01*
X030915Y002578D01*
X030993Y002388D01*
X031138Y002243D01*
X031328Y002165D01*
X031532Y002165D01*
X031722Y002243D01*
X031867Y002388D01*
X031935Y002553D01*
X031935Y002475D01*
X032225Y002185D01*
X032430Y002185D01*
X032635Y002185D01*
X032925Y002475D01*
X032925Y002680D01*
X032430Y002680D01*
X032430Y002680D01*
X032430Y002680D01*
X032430Y002185D01*
X032430Y002680D01*
X032430Y002680D01*
X032430Y003175D01*
X032430Y003154D02*
X032430Y003154D01*
X032430Y002996D02*
X032430Y002996D01*
X032430Y002837D02*
X032430Y002837D01*
X032430Y002679D02*
X032430Y002679D01*
X032430Y002520D02*
X032430Y002520D01*
X032430Y002362D02*
X032430Y002362D01*
X032430Y002203D02*
X032430Y002203D01*
X032653Y002203D02*
X033274Y002203D01*
X033200Y002045D02*
X024122Y002045D01*
X024122Y002053D02*
X023600Y002575D01*
X023311Y002575D01*
X023311Y001764D01*
X023151Y001764D01*
X023151Y001604D01*
X022340Y001604D01*
X022340Y001315D01*
X022862Y000793D01*
X023151Y000793D01*
X023151Y001604D01*
X023311Y001604D01*
X023311Y000793D01*
X023600Y000793D01*
X024122Y001315D01*
X024122Y001604D01*
X023311Y001604D01*
X023311Y001764D01*
X024122Y001764D01*
X024122Y002053D01*
X024122Y001886D02*
X033200Y001886D01*
X033204Y001728D02*
X023311Y001728D01*
X023311Y001886D02*
X023151Y001886D01*
X023151Y001764D02*
X023151Y002575D01*
X022862Y002575D01*
X022340Y002053D01*
X022340Y001764D01*
X023151Y001764D01*
X023151Y001728D02*
X021095Y001728D01*
X021254Y001886D02*
X022340Y001886D01*
X022340Y002045D02*
X021412Y002045D01*
X021571Y002203D02*
X022490Y002203D01*
X022648Y002362D02*
X021729Y002362D01*
X021888Y002520D02*
X022807Y002520D01*
X023151Y002520D02*
X023311Y002520D01*
X023311Y002362D02*
X023151Y002362D01*
X023151Y002203D02*
X023311Y002203D01*
X023311Y002045D02*
X023151Y002045D01*
X023814Y002362D02*
X031020Y002362D01*
X030939Y002520D02*
X029992Y002520D01*
X030150Y002679D02*
X030915Y002679D01*
X030938Y002837D02*
X030309Y002837D01*
X030323Y002996D02*
X031017Y002996D01*
X031229Y003154D02*
X030323Y003154D01*
X031631Y003154D02*
X032204Y003154D01*
X032045Y002996D02*
X031843Y002996D01*
X031922Y002837D02*
X031935Y002837D01*
X031921Y002520D02*
X031935Y002520D01*
X031840Y002362D02*
X032048Y002362D01*
X032207Y002203D02*
X031624Y002203D01*
X031236Y002203D02*
X023972Y002203D01*
X023655Y002520D02*
X025368Y002520D01*
X025501Y002387D02*
X026158Y002387D01*
X026623Y002851D01*
X026623Y003508D01*
X026158Y003973D01*
X025501Y003973D01*
X025037Y003508D01*
X025037Y002851D01*
X025501Y002387D01*
X025210Y002679D02*
X024541Y002679D01*
X024506Y002643D02*
X025028Y003165D01*
X025028Y003454D01*
X024217Y003454D01*
X024217Y002643D01*
X024506Y002643D01*
X024700Y002837D02*
X025051Y002837D01*
X025037Y002996D02*
X024858Y002996D01*
X025017Y003154D02*
X025037Y003154D01*
X025028Y003313D02*
X025037Y003313D01*
X025037Y003471D02*
X024217Y003471D01*
X024217Y003313D02*
X024057Y003313D01*
X024057Y003454D02*
X024057Y002643D01*
X023768Y002643D01*
X023246Y003165D01*
X023246Y003454D01*
X024057Y003454D01*
X024057Y003471D02*
X022839Y003471D01*
X022997Y003630D02*
X023246Y003630D01*
X023246Y003788D02*
X023156Y003788D01*
X022737Y004105D02*
X021705Y004105D01*
X021859Y003947D02*
X022579Y003947D01*
X022420Y003788D02*
X021859Y003788D01*
X021859Y003630D02*
X022262Y003630D01*
X022103Y003471D02*
X021859Y003471D01*
X021859Y003313D02*
X021945Y003313D01*
X022363Y002996D02*
X023415Y002996D01*
X023257Y003154D02*
X022522Y003154D01*
X022680Y003313D02*
X023246Y003313D01*
X023574Y002837D02*
X022205Y002837D01*
X022046Y002679D02*
X023732Y002679D01*
X024057Y002679D02*
X024217Y002679D01*
X024217Y002837D02*
X024057Y002837D01*
X024057Y002996D02*
X024217Y002996D01*
X024217Y003154D02*
X024057Y003154D01*
X025028Y003630D02*
X025158Y003630D01*
X025028Y003788D02*
X025316Y003788D01*
X025475Y003947D02*
X024985Y003947D01*
X024826Y004105D02*
X028637Y004105D01*
X028479Y004264D02*
X027631Y004264D01*
X027790Y004422D02*
X028320Y004422D01*
X028190Y004581D02*
X027948Y004581D01*
X028077Y004710D02*
X028077Y004710D01*
X028120Y004739D02*
X028170Y004739D01*
X027530Y004898D02*
X027326Y004898D01*
X027337Y004908D02*
X027410Y005085D01*
X027410Y005275D01*
X027337Y005452D01*
X027202Y005587D01*
X027025Y005660D01*
X026835Y005660D01*
X026658Y005587D01*
X026523Y005452D01*
X026450Y005275D01*
X026450Y005085D01*
X026523Y004908D01*
X026658Y004773D01*
X026835Y004700D01*
X027025Y004700D01*
X027202Y004773D01*
X027337Y004908D01*
X027398Y005056D02*
X027462Y005056D01*
X027450Y005215D02*
X027410Y005215D01*
X027370Y005373D02*
X027490Y005373D01*
X027603Y005532D02*
X027257Y005532D01*
X026603Y005532D02*
X026257Y005532D01*
X026202Y005587D02*
X026025Y005660D01*
X025835Y005660D01*
X025658Y005587D01*
X025523Y005452D01*
X025450Y005275D01*
X025450Y005085D01*
X025523Y004908D01*
X025658Y004773D01*
X025835Y004700D01*
X026025Y004700D01*
X026202Y004773D01*
X026337Y004908D01*
X026410Y005085D01*
X026410Y005275D01*
X026337Y005452D01*
X026202Y005587D01*
X026370Y005373D02*
X026490Y005373D01*
X026450Y005215D02*
X026410Y005215D01*
X026398Y005056D02*
X026462Y005056D01*
X026534Y004898D02*
X026326Y004898D01*
X026120Y004739D02*
X026740Y004739D01*
X027120Y004739D02*
X027371Y004739D01*
X027360Y003953D02*
X026907Y003500D01*
X026907Y003260D01*
X027600Y003260D01*
X027600Y003953D01*
X027360Y003953D01*
X027353Y003947D02*
X026185Y003947D01*
X026344Y003788D02*
X027195Y003788D01*
X027036Y003630D02*
X026502Y003630D01*
X026623Y003471D02*
X026907Y003471D01*
X026907Y003313D02*
X026623Y003313D01*
X026623Y003154D02*
X027600Y003154D01*
X027600Y003100D02*
X027600Y003260D01*
X027760Y003260D01*
X027760Y003953D01*
X028000Y003953D01*
X028453Y003500D01*
X028453Y003260D01*
X027760Y003260D01*
X027760Y003100D01*
X028453Y003100D01*
X028453Y002860D01*
X028000Y002407D01*
X027760Y002407D01*
X027760Y003100D01*
X027600Y003100D01*
X026907Y003100D01*
X026907Y002860D01*
X027360Y002407D01*
X027600Y002407D01*
X027600Y003100D01*
X027600Y002996D02*
X027760Y002996D01*
X027760Y003154D02*
X028737Y003154D01*
X028737Y002996D02*
X028453Y002996D01*
X028430Y002837D02*
X028751Y002837D01*
X028910Y002679D02*
X028272Y002679D01*
X028113Y002520D02*
X029068Y002520D01*
X027760Y002520D02*
X027600Y002520D01*
X027600Y002679D02*
X027760Y002679D01*
X027760Y002837D02*
X027600Y002837D01*
X027247Y002520D02*
X026292Y002520D01*
X026450Y002679D02*
X027088Y002679D01*
X026930Y002837D02*
X026609Y002837D01*
X026623Y002996D02*
X026907Y002996D01*
X027600Y003313D02*
X027760Y003313D01*
X027760Y003471D02*
X027600Y003471D01*
X027600Y003630D02*
X027760Y003630D01*
X027760Y003788D02*
X027600Y003788D01*
X027600Y003947D02*
X027760Y003947D01*
X028007Y003947D02*
X028796Y003947D01*
X028954Y003788D02*
X028165Y003788D01*
X028324Y003630D02*
X028858Y003630D01*
X028737Y003471D02*
X028453Y003471D01*
X028453Y003313D02*
X028737Y003313D01*
X028739Y004739D02*
X028740Y004739D01*
X028170Y005690D02*
X025047Y005690D01*
X025047Y005849D02*
X028170Y005849D01*
X028170Y006007D02*
X025047Y006007D01*
X025047Y006166D02*
X025555Y006166D01*
X025552Y006169D02*
X025669Y006052D01*
X026191Y006052D01*
X026308Y006169D01*
X026308Y006691D01*
X026191Y006808D01*
X026190Y006808D01*
X026190Y007768D01*
X026202Y007773D01*
X026337Y007908D01*
X026410Y008085D01*
X026410Y008275D01*
X026337Y008452D01*
X026202Y008587D01*
X026025Y008660D01*
X025835Y008660D01*
X025658Y008587D01*
X025523Y008452D01*
X025450Y008275D01*
X025450Y008085D01*
X025523Y007908D01*
X025658Y007773D01*
X025670Y007768D01*
X025670Y006808D01*
X025669Y006808D01*
X025552Y006691D01*
X025552Y006169D01*
X025552Y006324D02*
X025047Y006324D01*
X025047Y006483D02*
X025552Y006483D01*
X025552Y006641D02*
X025047Y006641D01*
X025047Y006800D02*
X025660Y006800D01*
X025670Y006958D02*
X025047Y006958D01*
X025047Y007117D02*
X025670Y007117D01*
X025670Y007275D02*
X025047Y007275D01*
X025047Y007434D02*
X025670Y007434D01*
X025670Y007592D02*
X025047Y007592D01*
X025047Y007751D02*
X025670Y007751D01*
X025523Y007909D02*
X025047Y007909D01*
X025047Y008068D02*
X025457Y008068D01*
X025450Y008226D02*
X025047Y008226D01*
X025047Y008385D02*
X025495Y008385D01*
X025614Y008543D02*
X025047Y008543D01*
X025047Y008702D02*
X027349Y008702D01*
X027376Y008675D02*
X027600Y008675D01*
X027600Y009328D01*
X026946Y009328D01*
X026946Y009104D01*
X027376Y008675D01*
X027246Y008543D02*
X027614Y008543D01*
X027600Y008702D02*
X027760Y008702D01*
X027760Y008860D02*
X027600Y008860D01*
X027600Y009019D02*
X027760Y009019D01*
X027760Y009177D02*
X027600Y009177D01*
X027760Y009336D02*
X029728Y009336D01*
X029703Y009177D02*
X028414Y009177D01*
X028328Y009019D02*
X029730Y009019D01*
X029825Y008860D02*
X028169Y008860D01*
X028011Y008702D02*
X033170Y008702D01*
X033170Y008860D02*
X032535Y008860D01*
X032630Y009019D02*
X033170Y009019D01*
X033170Y009177D02*
X032657Y009177D01*
X032632Y009336D02*
X033157Y009336D01*
X032998Y009494D02*
X032541Y009494D01*
X032431Y009653D02*
X032840Y009653D01*
X032698Y009811D02*
X032663Y009811D01*
X033190Y010128D02*
X033864Y010128D01*
X033920Y009970D02*
X033258Y009970D01*
X033417Y009811D02*
X033920Y009811D01*
X033920Y009653D02*
X033575Y009653D01*
X033685Y009494D02*
X033920Y009494D01*
X033920Y009336D02*
X033690Y009336D01*
X033690Y009177D02*
X033920Y009177D01*
X033920Y009019D02*
X033690Y009019D01*
X033690Y008860D02*
X033920Y008860D01*
X033920Y008702D02*
X033690Y008702D01*
X034440Y008860D02*
X034691Y008860D01*
X034849Y008702D02*
X034526Y008702D01*
X034532Y009019D02*
X034440Y009019D01*
X034446Y009104D02*
X034876Y008675D01*
X035100Y008675D01*
X035100Y009328D01*
X035260Y009328D01*
X035260Y008675D01*
X035484Y008675D01*
X035914Y009104D01*
X035914Y009328D01*
X035260Y009328D01*
X035260Y009488D01*
X035914Y009488D01*
X035914Y009712D01*
X035484Y010142D01*
X035260Y010142D01*
X035260Y009488D01*
X035100Y009488D01*
X035100Y009328D01*
X034446Y009328D01*
X034446Y009104D01*
X034440Y009177D02*
X034446Y009177D01*
X034440Y009336D02*
X035100Y009336D01*
X035100Y009488D02*
X034446Y009488D01*
X034446Y009712D01*
X034876Y010142D01*
X035100Y010142D01*
X035100Y009488D01*
X035100Y009494D02*
X035260Y009494D01*
X035260Y009336D02*
X036157Y009336D01*
X035998Y009494D02*
X035914Y009494D01*
X035914Y009653D02*
X035920Y009653D01*
X035920Y009811D02*
X035815Y009811D01*
X035920Y009970D02*
X035656Y009970D01*
X035498Y010128D02*
X035920Y010128D01*
X035920Y010287D02*
X034417Y010287D01*
X034440Y010128D02*
X034862Y010128D01*
X034704Y009970D02*
X034440Y009970D01*
X034440Y009811D02*
X034545Y009811D01*
X034446Y009653D02*
X034440Y009653D01*
X034440Y009494D02*
X034446Y009494D01*
X035100Y009653D02*
X035260Y009653D01*
X035260Y009811D02*
X035100Y009811D01*
X035100Y009970D02*
X035260Y009970D01*
X035260Y010128D02*
X035100Y010128D01*
X034283Y010445D02*
X035920Y010445D01*
X035920Y010604D02*
X034124Y010604D01*
X033966Y010762D02*
X035920Y010762D01*
X035920Y010921D02*
X033807Y010921D01*
X033649Y011079D02*
X035920Y011079D01*
X035920Y011238D02*
X033490Y011238D01*
X033440Y011396D02*
X035920Y011396D01*
X035920Y011555D02*
X033440Y011555D01*
X033440Y011713D02*
X035920Y011713D01*
X035920Y011872D02*
X033440Y011872D01*
X033440Y012030D02*
X035920Y012030D01*
X035920Y012189D02*
X033440Y012189D01*
X033440Y012347D02*
X034747Y012347D01*
X034876Y012218D02*
X034446Y012648D01*
X034446Y012872D01*
X035100Y012872D01*
X035100Y013032D01*
X035100Y013685D01*
X034876Y013685D01*
X034446Y013256D01*
X034446Y013032D01*
X035100Y013032D01*
X035260Y013032D01*
X035260Y013685D01*
X035484Y013685D01*
X035914Y013256D01*
X035914Y013032D01*
X035260Y013032D01*
X035260Y012872D01*
X035914Y012872D01*
X035914Y012648D01*
X035484Y012218D01*
X035260Y012218D01*
X035260Y012872D01*
X035100Y012872D01*
X035100Y012218D01*
X034876Y012218D01*
X035100Y012347D02*
X035260Y012347D01*
X035260Y012506D02*
X035100Y012506D01*
X035100Y012664D02*
X035260Y012664D01*
X035260Y012823D02*
X035100Y012823D01*
X035100Y012981D02*
X033440Y012981D01*
X033440Y012823D02*
X034446Y012823D01*
X034446Y012664D02*
X033440Y012664D01*
X033440Y012506D02*
X034589Y012506D01*
X035260Y012981D02*
X035920Y012981D01*
X035914Y012823D02*
X035920Y012823D01*
X035914Y012664D02*
X035920Y012664D01*
X035920Y012506D02*
X035771Y012506D01*
X035920Y012347D02*
X035613Y012347D01*
X036690Y012347D02*
X037834Y012347D01*
X037700Y012481D02*
X037981Y012200D01*
X038379Y012200D01*
X038660Y012481D01*
X038660Y012879D01*
X038379Y013160D01*
X037981Y013160D01*
X037700Y012879D01*
X037700Y012481D01*
X037700Y012506D02*
X036690Y012506D01*
X036690Y012664D02*
X037700Y012664D01*
X037700Y012823D02*
X036690Y012823D01*
X036690Y012981D02*
X037802Y012981D01*
X037961Y013140D02*
X036690Y013140D01*
X036690Y013298D02*
X038633Y013298D01*
X038475Y013457D02*
X036690Y013457D01*
X036690Y013615D02*
X038450Y013615D01*
X038450Y013774D02*
X036690Y013774D01*
X036690Y013932D02*
X038503Y013932D01*
X038662Y014091D02*
X036637Y014091D01*
X036479Y014249D02*
X039350Y014249D01*
X039350Y014091D02*
X039198Y014091D01*
X039350Y014408D02*
X038852Y014408D01*
X038891Y014420D02*
X038968Y014460D01*
X039038Y014510D01*
X039100Y014572D01*
X039150Y014642D01*
X039190Y014719D01*
X039216Y014801D01*
X039230Y014887D01*
X039230Y014910D01*
X038700Y014910D01*
X038700Y014950D01*
X038660Y014950D01*
X038660Y015480D01*
X038637Y015480D01*
X038551Y015466D01*
X038469Y015440D01*
X038392Y015400D01*
X038322Y015350D01*
X038260Y015288D01*
X038210Y015218D01*
X038180Y015160D01*
X038150Y015218D01*
X038100Y015288D01*
X038038Y015350D01*
X037968Y015400D01*
X037891Y015440D01*
X037809Y015466D01*
X037723Y015480D01*
X037700Y015480D01*
X037700Y014950D01*
X038230Y014950D01*
X038660Y014950D01*
X038660Y014910D01*
X038700Y014910D01*
X038700Y014380D01*
X038723Y014380D01*
X038809Y014394D01*
X038891Y014420D01*
X038700Y014408D02*
X038660Y014408D01*
X038660Y014380D02*
X038660Y014910D01*
X037700Y014910D01*
X037700Y014380D01*
X037723Y014380D01*
X037809Y014394D01*
X037891Y014420D01*
X037968Y014460D01*
X038038Y014510D01*
X038100Y014572D01*
X038150Y014642D01*
X038180Y014700D01*
X038210Y014642D01*
X038260Y014572D01*
X038322Y014510D01*
X038392Y014460D01*
X038469Y014420D01*
X038551Y014394D01*
X038637Y014380D01*
X038660Y014380D01*
X038508Y014408D02*
X037852Y014408D01*
X037700Y014408D02*
X037660Y014408D01*
X037508Y014408D02*
X036908Y014408D01*
X037122Y014566D02*
X037266Y014566D01*
X037660Y014566D02*
X037700Y014566D01*
X037700Y014725D02*
X037660Y014725D01*
X037660Y014883D02*
X037700Y014883D01*
X037700Y015042D02*
X037660Y015042D01*
X037660Y015200D02*
X037700Y015200D01*
X037700Y015359D02*
X037660Y015359D01*
X037334Y015359D02*
X037058Y015359D01*
X037185Y015200D02*
X037200Y015200D01*
X038026Y015359D02*
X038334Y015359D01*
X038200Y015200D02*
X038160Y015200D01*
X038660Y015200D02*
X038700Y015200D01*
X038700Y015042D02*
X038660Y015042D01*
X038700Y014950D02*
X038700Y015480D01*
X038723Y015480D01*
X038809Y015466D01*
X038891Y015440D01*
X038968Y015400D01*
X039038Y015350D01*
X039100Y015288D01*
X039150Y015218D01*
X039190Y015141D01*
X039216Y015059D01*
X039230Y014973D01*
X039230Y014950D01*
X038700Y014950D01*
X038700Y014883D02*
X038660Y014883D01*
X038660Y014725D02*
X038700Y014725D01*
X038700Y014566D02*
X038660Y014566D01*
X038266Y014566D02*
X038094Y014566D01*
X039094Y014566D02*
X039350Y014566D01*
X039350Y014725D02*
X039192Y014725D01*
X039229Y014883D02*
X039350Y014883D01*
X039350Y015042D02*
X039219Y015042D01*
X039160Y015200D02*
X039350Y015200D01*
X039350Y015359D02*
X039026Y015359D01*
X038700Y015359D02*
X038660Y015359D01*
X039350Y015517D02*
X031474Y015517D01*
X031316Y015676D02*
X039350Y015676D01*
X039350Y015834D02*
X031157Y015834D01*
X030600Y015200D02*
X028879Y015200D01*
X028910Y015359D02*
X029880Y015359D01*
X029886Y015517D02*
X028910Y015517D01*
X028863Y015676D02*
X030044Y015676D01*
X030203Y015834D02*
X028705Y015834D01*
X028155Y015834D02*
X025705Y015834D01*
X025863Y015676D02*
X027997Y015676D01*
X027950Y015517D02*
X025910Y015517D01*
X025910Y015359D02*
X027950Y015359D01*
X027981Y015200D02*
X025879Y015200D01*
X025720Y015042D02*
X028140Y015042D01*
X028720Y015042D02*
X029880Y015042D01*
X029880Y014883D02*
X025690Y014883D01*
X025690Y014725D02*
X030004Y014725D01*
X030163Y014566D02*
X025690Y014566D01*
X025690Y014408D02*
X028229Y014408D01*
X028231Y014410D02*
X027950Y014129D01*
X027950Y013731D01*
X028231Y013450D01*
X028629Y013450D01*
X028910Y013731D01*
X028910Y014129D01*
X028629Y014410D01*
X028231Y014410D01*
X028070Y014249D02*
X025790Y014249D01*
X025910Y014091D02*
X027950Y014091D01*
X027950Y013932D02*
X025910Y013932D01*
X025910Y013774D02*
X027950Y013774D01*
X028054Y013615D02*
X028066Y013615D01*
X028213Y013457D02*
X028225Y013457D01*
X028635Y013457D02*
X029475Y013457D01*
X029316Y013615D02*
X028794Y013615D01*
X028910Y013774D02*
X029200Y013774D01*
X029200Y013932D02*
X028910Y013932D01*
X028910Y014091D02*
X029200Y014091D01*
X029320Y014249D02*
X028790Y014249D01*
X028631Y014408D02*
X029479Y014408D01*
X029881Y014408D02*
X030321Y014408D01*
X030600Y014408D02*
X030760Y014408D01*
X030760Y014566D02*
X030600Y014566D01*
X030600Y014725D02*
X030760Y014725D01*
X030760Y014883D02*
X030600Y014883D01*
X030600Y015042D02*
X030760Y015042D01*
X032881Y014408D02*
X033452Y014408D01*
X033040Y014249D02*
X035243Y014249D01*
X035085Y014408D02*
X034908Y014408D01*
X034452Y014408D02*
X033908Y014408D01*
X034122Y014566D02*
X034238Y014566D01*
X033160Y014091D02*
X035402Y014091D01*
X035560Y013932D02*
X033160Y013932D01*
X033204Y013774D02*
X035719Y013774D01*
X035877Y013615D02*
X035554Y013615D01*
X035713Y013457D02*
X035920Y013457D01*
X035920Y013298D02*
X035871Y013298D01*
X035914Y013140D02*
X035920Y013140D01*
X035260Y013140D02*
X035100Y013140D01*
X035100Y013298D02*
X035260Y013298D01*
X035260Y013457D02*
X035100Y013457D01*
X035100Y013615D02*
X035260Y013615D01*
X034806Y013615D02*
X033363Y013615D01*
X033440Y013457D02*
X034647Y013457D01*
X034489Y013298D02*
X033440Y013298D01*
X033440Y013140D02*
X034446Y013140D01*
X032920Y012823D02*
X028414Y012823D01*
X028414Y012664D02*
X031975Y012664D01*
X032209Y012664D02*
X032246Y012664D01*
X032246Y012724D02*
X032246Y012183D01*
X032787Y012183D01*
X032787Y012208D01*
X032773Y012295D01*
X032746Y012379D01*
X032706Y012458D01*
X032654Y012529D01*
X032592Y012591D01*
X032521Y012643D01*
X032442Y012683D01*
X032358Y012710D01*
X032271Y012724D01*
X032246Y012724D01*
X032480Y012664D02*
X032920Y012664D01*
X032920Y012506D02*
X032671Y012506D01*
X032757Y012347D02*
X032920Y012347D01*
X032920Y012189D02*
X032787Y012189D01*
X032772Y012030D02*
X032920Y012030D01*
X032920Y011872D02*
X032707Y011872D01*
X032559Y011713D02*
X032920Y011713D01*
X032920Y011555D02*
X032673Y011555D01*
X032766Y011396D02*
X032920Y011396D01*
X032920Y011238D02*
X032807Y011238D01*
X032807Y011079D02*
X032940Y011079D01*
X032854Y010921D02*
X033072Y010921D01*
X033013Y010762D02*
X033230Y010762D01*
X033159Y010604D02*
X033389Y010604D01*
X033547Y010445D02*
X033190Y010445D01*
X033190Y010287D02*
X033706Y010287D01*
X035100Y009177D02*
X035260Y009177D01*
X035260Y009019D02*
X035100Y009019D01*
X035100Y008860D02*
X035260Y008860D01*
X035260Y008702D02*
X035100Y008702D01*
X035246Y008543D02*
X035614Y008543D01*
X035658Y008587D02*
X035523Y008452D01*
X035450Y008275D01*
X035450Y008085D01*
X035523Y007908D01*
X035658Y007773D01*
X035835Y007700D01*
X036025Y007700D01*
X036202Y007773D01*
X036337Y007908D01*
X036410Y008085D01*
X036410Y008275D01*
X036337Y008452D01*
X036202Y008587D01*
X036025Y008660D01*
X035835Y008660D01*
X035658Y008587D01*
X035511Y008702D02*
X036670Y008702D01*
X036632Y008860D02*
X035669Y008860D01*
X035828Y009019D02*
X036474Y009019D01*
X036315Y009177D02*
X035914Y009177D01*
X036734Y009494D02*
X036998Y009494D01*
X036892Y009336D02*
X037157Y009336D01*
X037051Y009177D02*
X037315Y009177D01*
X037175Y009019D02*
X037474Y009019D01*
X037632Y008860D02*
X037190Y008860D01*
X037190Y008702D02*
X037670Y008702D01*
X037614Y008543D02*
X037246Y008543D01*
X037365Y008385D02*
X037495Y008385D01*
X037450Y008226D02*
X037410Y008226D01*
X037403Y008068D02*
X037457Y008068D01*
X037523Y007909D02*
X037337Y007909D01*
X037147Y007751D02*
X037713Y007751D01*
X038147Y007751D02*
X038713Y007751D01*
X038523Y007909D02*
X038337Y007909D01*
X038403Y008068D02*
X038457Y008068D01*
X038450Y008226D02*
X038410Y008226D01*
X038365Y008385D02*
X038495Y008385D01*
X038614Y008543D02*
X038246Y008543D01*
X038190Y008702D02*
X039350Y008702D01*
X039350Y008860D02*
X038190Y008860D01*
X038175Y009019D02*
X039350Y009019D01*
X039350Y009177D02*
X038051Y009177D01*
X038514Y009336D02*
X039350Y009336D01*
X039350Y009494D02*
X038660Y009494D01*
X038660Y009653D02*
X039350Y009653D01*
X039350Y009811D02*
X038660Y009811D01*
X038569Y009970D02*
X039350Y009970D01*
X039350Y010128D02*
X038411Y010128D01*
X037949Y010128D02*
X037100Y010128D01*
X037258Y009970D02*
X037791Y009970D01*
X037700Y009811D02*
X037417Y009811D01*
X037575Y009653D02*
X037700Y009653D01*
X036840Y009653D02*
X036575Y009653D01*
X036681Y009811D02*
X036440Y009811D01*
X036440Y009970D02*
X036523Y009970D01*
X036941Y010287D02*
X039350Y010287D01*
X039350Y010445D02*
X036783Y010445D01*
X036690Y010604D02*
X039350Y010604D01*
X039350Y010762D02*
X036690Y010762D01*
X036690Y010921D02*
X039350Y010921D01*
X039350Y011079D02*
X036690Y011079D01*
X036690Y011238D02*
X038694Y011238D01*
X038535Y011396D02*
X036690Y011396D01*
X036690Y011555D02*
X038450Y011555D01*
X038450Y011713D02*
X036690Y011713D01*
X036690Y011872D02*
X038450Y011872D01*
X038601Y012030D02*
X036690Y012030D01*
X036690Y012189D02*
X039350Y012189D01*
X039350Y012347D02*
X038526Y012347D01*
X038660Y012506D02*
X039350Y012506D01*
X039350Y012664D02*
X038660Y012664D01*
X038660Y012823D02*
X039350Y012823D01*
X039350Y012981D02*
X038558Y012981D01*
X038399Y013140D02*
X039350Y013140D01*
X039350Y013298D02*
X039227Y013298D01*
X039259Y012030D02*
X039350Y012030D01*
X039325Y011396D02*
X039350Y011396D01*
X039350Y011238D02*
X039166Y011238D01*
X039246Y008543D02*
X039350Y008543D01*
X039337Y007909D02*
X039350Y007909D01*
X039350Y007751D02*
X039147Y007751D01*
X039350Y007592D02*
X034886Y007592D01*
X035044Y007434D02*
X039350Y007434D01*
X039350Y007275D02*
X035172Y007275D01*
X035190Y007117D02*
X039350Y007117D01*
X039350Y006958D02*
X035190Y006958D01*
X035190Y006800D02*
X039350Y006800D01*
X039350Y006641D02*
X035190Y006641D01*
X035190Y006483D02*
X039350Y006483D01*
X039350Y006324D02*
X035190Y006324D01*
X035190Y006166D02*
X039350Y006166D01*
X039350Y006007D02*
X035190Y006007D01*
X035190Y005849D02*
X039350Y005849D01*
X039350Y005690D02*
X035190Y005690D01*
X035257Y005532D02*
X035603Y005532D01*
X035490Y005373D02*
X035370Y005373D01*
X035410Y005215D02*
X035450Y005215D01*
X035462Y005056D02*
X035398Y005056D01*
X035326Y004898D02*
X035534Y004898D01*
X036190Y004739D02*
X036740Y004739D01*
X036658Y004773D02*
X036835Y004700D01*
X037025Y004700D01*
X037202Y004773D01*
X037337Y004908D01*
X037410Y005085D01*
X037410Y005275D01*
X037337Y005452D01*
X037202Y005587D01*
X037025Y005660D01*
X036835Y005660D01*
X036658Y005587D01*
X036523Y005452D01*
X036450Y005275D01*
X036450Y005085D01*
X036523Y004908D01*
X036658Y004773D01*
X036534Y004898D02*
X036326Y004898D01*
X036398Y005056D02*
X036462Y005056D01*
X036450Y005215D02*
X036410Y005215D01*
X036370Y005373D02*
X036490Y005373D01*
X036603Y005532D02*
X036257Y005532D01*
X037257Y005532D02*
X037603Y005532D01*
X037658Y005587D02*
X037523Y005452D01*
X037450Y005275D01*
X037450Y005085D01*
X037523Y004908D01*
X037658Y004773D01*
X037835Y004700D01*
X038025Y004700D01*
X038202Y004773D01*
X038337Y004908D01*
X038410Y005085D01*
X038410Y005275D01*
X038337Y005452D01*
X038202Y005587D01*
X038025Y005660D01*
X037835Y005660D01*
X037658Y005587D01*
X037490Y005373D02*
X037370Y005373D01*
X037410Y005215D02*
X037450Y005215D01*
X037462Y005056D02*
X037398Y005056D01*
X037326Y004898D02*
X037534Y004898D01*
X037740Y004739D02*
X037120Y004739D01*
X036879Y004410D02*
X036481Y004410D01*
X036200Y004129D01*
X036200Y003731D01*
X036481Y003450D01*
X036879Y003450D01*
X037160Y003731D01*
X037160Y004129D01*
X036879Y004410D01*
X037025Y004264D02*
X037835Y004264D01*
X037773Y004202D02*
X037700Y004025D01*
X037700Y003835D01*
X037773Y003658D01*
X037908Y003523D01*
X038085Y003450D01*
X038275Y003450D01*
X038452Y003523D01*
X038587Y003658D01*
X038660Y003835D01*
X038660Y004025D01*
X038587Y004202D01*
X038452Y004337D01*
X038275Y004410D01*
X038085Y004410D01*
X037908Y004337D01*
X037773Y004202D01*
X037733Y004105D02*
X037160Y004105D01*
X037160Y003947D02*
X037700Y003947D01*
X037719Y003788D02*
X037160Y003788D01*
X037058Y003630D02*
X037802Y003630D01*
X038034Y003471D02*
X036900Y003471D01*
X036976Y003313D02*
X037884Y003313D01*
X037908Y003337D02*
X037773Y003202D01*
X037700Y003025D01*
X037700Y002835D01*
X037773Y002658D01*
X037908Y002523D01*
X038085Y002450D01*
X038275Y002450D01*
X038452Y002523D01*
X038587Y002658D01*
X038660Y002835D01*
X038660Y003025D01*
X038587Y003202D01*
X038452Y003337D01*
X038275Y003410D01*
X038085Y003410D01*
X037908Y003337D01*
X037753Y003154D02*
X037135Y003154D01*
X037160Y002996D02*
X037700Y002996D01*
X037700Y002837D02*
X037160Y002837D01*
X037107Y002679D02*
X037765Y002679D01*
X037916Y002520D02*
X036949Y002520D01*
X036927Y002362D02*
X038019Y002362D01*
X038003Y002356D02*
X037939Y002323D01*
X037880Y002281D01*
X037829Y002230D01*
X037787Y002171D01*
X037754Y002107D01*
X037731Y002038D01*
X037720Y001966D01*
X037720Y001930D01*
X038180Y001930D01*
X038640Y001930D01*
X038640Y001966D01*
X038629Y002038D01*
X038606Y002107D01*
X038573Y002171D01*
X038531Y002230D01*
X038480Y002281D01*
X038421Y002323D01*
X038357Y002356D01*
X038288Y002379D01*
X038216Y002390D01*
X038180Y002390D01*
X038180Y001930D01*
X038180Y001930D01*
X038180Y001930D01*
X038640Y001930D01*
X038640Y001894D01*
X038629Y001822D01*
X038606Y001753D01*
X038573Y001689D01*
X038531Y001630D01*
X038480Y001579D01*
X038421Y001537D01*
X038357Y001504D01*
X038288Y001481D01*
X038216Y001470D01*
X038180Y001470D01*
X038180Y001930D01*
X038180Y001930D01*
X038180Y001930D01*
X038180Y002390D01*
X038144Y002390D01*
X038072Y002379D01*
X038003Y002356D01*
X038180Y002362D02*
X038180Y002362D01*
X038180Y002203D02*
X038180Y002203D01*
X038180Y002045D02*
X038180Y002045D01*
X038180Y001930D02*
X037720Y001930D01*
X037720Y001894D01*
X037731Y001822D01*
X037754Y001753D01*
X037787Y001689D01*
X037829Y001630D01*
X037880Y001579D01*
X037939Y001537D01*
X038003Y001504D01*
X038072Y001481D01*
X038144Y001470D01*
X038180Y001470D01*
X038180Y001930D01*
X038180Y001886D02*
X038180Y001886D01*
X038180Y001728D02*
X038180Y001728D01*
X038180Y001569D02*
X038180Y001569D01*
X038466Y001569D02*
X039350Y001569D01*
X039350Y001411D02*
X024122Y001411D01*
X024122Y001569D02*
X033362Y001569D01*
X033998Y001569D02*
X036362Y001569D01*
X036204Y001728D02*
X034156Y001728D01*
X034160Y001886D02*
X036200Y001886D01*
X036200Y002045D02*
X034160Y002045D01*
X034086Y002203D02*
X035552Y002203D01*
X036308Y002362D02*
X036433Y002362D01*
X036411Y002520D02*
X036308Y002520D01*
X036200Y002837D02*
X036190Y002837D01*
X036190Y002996D02*
X036200Y002996D01*
X036190Y003154D02*
X036225Y003154D01*
X036190Y003313D02*
X036384Y003313D01*
X036460Y003471D02*
X036190Y003471D01*
X036190Y003630D02*
X036302Y003630D01*
X036200Y003788D02*
X036190Y003788D01*
X036190Y003947D02*
X036200Y003947D01*
X036190Y004105D02*
X036200Y004105D01*
X036190Y004264D02*
X036335Y004264D01*
X036190Y004422D02*
X039350Y004422D01*
X039350Y004264D02*
X038525Y004264D01*
X038627Y004105D02*
X039350Y004105D01*
X039350Y003947D02*
X038660Y003947D01*
X038641Y003788D02*
X039350Y003788D01*
X039350Y003630D02*
X038558Y003630D01*
X038326Y003471D02*
X039350Y003471D01*
X039350Y003313D02*
X038476Y003313D01*
X038607Y003154D02*
X039350Y003154D01*
X039350Y002996D02*
X038660Y002996D01*
X038660Y002837D02*
X039350Y002837D01*
X039350Y002679D02*
X038595Y002679D01*
X038444Y002520D02*
X039350Y002520D01*
X039350Y002362D02*
X038341Y002362D01*
X038550Y002203D02*
X039350Y002203D01*
X039350Y002045D02*
X038626Y002045D01*
X038639Y001886D02*
X039350Y001886D01*
X039350Y001728D02*
X038593Y001728D01*
X037894Y001569D02*
X036998Y001569D01*
X037156Y001728D02*
X037767Y001728D01*
X037721Y001886D02*
X037160Y001886D01*
X037160Y002045D02*
X037734Y002045D01*
X037810Y002203D02*
X037086Y002203D01*
X039350Y001252D02*
X024060Y001252D01*
X023901Y001094D02*
X039350Y001094D01*
X039350Y000935D02*
X023743Y000935D01*
X023311Y000935D02*
X023151Y000935D01*
X023151Y001094D02*
X023311Y001094D01*
X023311Y001252D02*
X023151Y001252D01*
X023151Y001411D02*
X023311Y001411D01*
X023311Y001569D02*
X023151Y001569D01*
X022340Y001569D02*
X020937Y001569D01*
X020778Y001411D02*
X022340Y001411D01*
X022403Y001252D02*
X020620Y001252D01*
X020558Y001094D02*
X022561Y001094D01*
X022720Y000935D02*
X020558Y000935D01*
X019802Y000935D02*
X018771Y000935D01*
X018929Y001094D02*
X019802Y001094D01*
X019802Y001252D02*
X019088Y001252D01*
X019142Y001307D02*
X018609Y000773D01*
X017854Y000773D01*
X017320Y001307D01*
X017320Y002061D01*
X017854Y002595D01*
X018609Y002595D01*
X019142Y002061D01*
X019142Y001307D01*
X019142Y001411D02*
X019802Y001411D01*
X020201Y001569D02*
X019142Y001569D01*
X019142Y001728D02*
X020360Y001728D01*
X020518Y001886D02*
X019142Y001886D01*
X019142Y002045D02*
X020677Y002045D01*
X020835Y002203D02*
X019001Y002203D01*
X018842Y002362D02*
X020994Y002362D01*
X021152Y002520D02*
X018684Y002520D01*
X018768Y002643D02*
X019057Y002643D01*
X019057Y003454D01*
X019217Y003454D01*
X019217Y003614D01*
X020028Y003614D01*
X020028Y003903D01*
X019506Y004426D01*
X019217Y004426D01*
X019217Y003614D01*
X019057Y003614D01*
X019057Y003454D01*
X018246Y003454D01*
X018246Y003165D01*
X018768Y002643D01*
X018732Y002679D02*
X016341Y002679D01*
X016325Y002663D02*
X016859Y003196D01*
X016859Y003951D01*
X016390Y004420D01*
X017302Y004420D01*
X017302Y004419D01*
X017419Y004302D01*
X017941Y004302D01*
X018058Y004419D01*
X018058Y004941D01*
X017941Y005058D01*
X017419Y005058D01*
X017302Y004941D01*
X017302Y004940D01*
X016869Y004940D01*
X016910Y004981D01*
X016910Y005042D01*
X017400Y005533D01*
X017440Y005628D01*
X017440Y006761D01*
X017660Y006981D01*
X017660Y007379D01*
X017379Y007660D01*
X016981Y007660D01*
X016700Y007379D01*
X016700Y006981D01*
X016920Y006761D01*
X016920Y005788D01*
X016711Y005578D01*
X016629Y005660D01*
X016231Y005660D01*
X015950Y005379D01*
X015950Y004981D01*
X015991Y004940D01*
X015869Y004940D01*
X015910Y004981D01*
X015910Y005379D01*
X015629Y005660D01*
X015231Y005660D01*
X014950Y005379D01*
X014950Y005028D01*
X014910Y005068D01*
X014910Y005379D01*
X014629Y005660D01*
X014231Y005660D01*
X013950Y005379D01*
X013950Y004981D01*
X014231Y004700D01*
X014542Y004700D01*
X014783Y004460D01*
X014878Y004420D01*
X015505Y004420D01*
X015037Y003951D01*
X015037Y003196D01*
X015570Y002663D01*
X016325Y002663D01*
X016500Y002837D02*
X018574Y002837D01*
X018415Y002996D02*
X016658Y002996D01*
X016817Y003154D02*
X018257Y003154D01*
X018246Y003313D02*
X016859Y003313D01*
X016859Y003471D02*
X019057Y003471D01*
X019057Y003614D02*
X018246Y003614D01*
X018246Y003903D01*
X018768Y004426D01*
X019057Y004426D01*
X019057Y003614D01*
X019057Y003630D02*
X019217Y003630D01*
X019217Y003788D02*
X019057Y003788D01*
X019057Y003947D02*
X019217Y003947D01*
X019217Y004105D02*
X019057Y004105D01*
X019057Y004264D02*
X019217Y004264D01*
X019217Y004422D02*
X019057Y004422D01*
X019129Y004700D02*
X018731Y004700D01*
X018450Y004981D01*
X018450Y005379D01*
X018731Y005660D01*
X019129Y005660D01*
X019410Y005379D01*
X019410Y004981D01*
X019129Y004700D01*
X019168Y004739D02*
X019692Y004739D01*
X019731Y004700D02*
X020129Y004700D01*
X020410Y004981D01*
X020410Y005379D01*
X020129Y005660D01*
X019731Y005660D01*
X019450Y005379D01*
X019450Y004981D01*
X019731Y004700D01*
X019534Y004898D02*
X019326Y004898D01*
X019410Y005056D02*
X019450Y005056D01*
X019450Y005215D02*
X019410Y005215D01*
X019410Y005373D02*
X019450Y005373D01*
X019603Y005532D02*
X019257Y005532D01*
X018603Y005532D02*
X017399Y005532D01*
X017440Y005690D02*
X022920Y005690D01*
X022920Y005592D02*
X022908Y005587D01*
X022773Y005452D01*
X022700Y005275D01*
X022700Y005085D01*
X022773Y004908D01*
X022908Y004773D01*
X023085Y004700D01*
X023275Y004700D01*
X023452Y004773D01*
X023587Y004908D01*
X023660Y005085D01*
X023660Y005275D01*
X023587Y005452D01*
X023452Y005587D01*
X023440Y005592D01*
X023440Y006052D01*
X023441Y006052D01*
X023558Y006169D01*
X023558Y006691D01*
X023441Y006808D01*
X022919Y006808D01*
X022802Y006691D01*
X022802Y006169D01*
X022919Y006052D01*
X022920Y006052D01*
X022920Y005592D01*
X022853Y005532D02*
X022507Y005532D01*
X022452Y005587D02*
X022275Y005660D01*
X022085Y005660D01*
X021908Y005587D01*
X021773Y005452D01*
X021700Y005275D01*
X021700Y005085D01*
X021773Y004908D01*
X021908Y004773D01*
X022085Y004700D01*
X022275Y004700D01*
X022452Y004773D01*
X022587Y004908D01*
X022660Y005085D01*
X022660Y005275D01*
X022587Y005452D01*
X022452Y005587D01*
X022620Y005373D02*
X022740Y005373D01*
X022700Y005215D02*
X022660Y005215D01*
X022648Y005056D02*
X022712Y005056D01*
X022784Y004898D02*
X022576Y004898D01*
X022370Y004739D02*
X022990Y004739D01*
X023210Y004577D02*
X023210Y004577D01*
X023213Y004581D02*
X018058Y004581D01*
X018058Y004739D02*
X018692Y004739D01*
X018534Y004898D02*
X018058Y004898D01*
X017943Y005056D02*
X018450Y005056D01*
X018450Y005215D02*
X017082Y005215D01*
X017241Y005373D02*
X018450Y005373D01*
X017417Y005056D02*
X016924Y005056D01*
X015950Y005056D02*
X015910Y005056D01*
X015910Y005215D02*
X015950Y005215D01*
X015950Y005373D02*
X015910Y005373D01*
X015757Y005532D02*
X016103Y005532D01*
X016822Y005690D02*
X011190Y005690D01*
X011231Y005660D02*
X011190Y005619D01*
X011190Y007732D01*
X011183Y007748D01*
X011231Y007700D01*
X011629Y007700D01*
X011910Y007981D01*
X011910Y008379D01*
X011629Y008660D01*
X011231Y008660D01*
X010950Y008379D01*
X010950Y008028D01*
X010003Y008975D01*
X010003Y009682D01*
X010056Y009704D01*
X010219Y009867D01*
X010307Y010080D01*
X010307Y010185D01*
X012032Y008461D01*
X011950Y008379D01*
X011950Y007981D01*
X012231Y007700D01*
X012629Y007700D01*
X012910Y007981D01*
X012910Y008379D01*
X012629Y008660D01*
X012568Y008660D01*
X012553Y008675D01*
X012600Y008675D01*
X012600Y009328D01*
X012760Y009328D01*
X012760Y008675D01*
X012984Y008675D01*
X013414Y009104D01*
X013414Y009328D01*
X012760Y009328D01*
X012760Y009488D01*
X013414Y009488D01*
X013414Y009712D01*
X012984Y010142D01*
X012760Y010142D01*
X012760Y009488D01*
X012600Y009488D01*
X012600Y009328D01*
X011946Y009328D01*
X011946Y009281D01*
X010265Y010963D01*
X010307Y011065D01*
X010307Y011295D01*
X010219Y011509D01*
X010056Y011672D01*
X010022Y011686D01*
X010092Y011737D01*
X010154Y011799D01*
X010206Y011871D01*
X010246Y011949D01*
X010273Y012033D01*
X010287Y012120D01*
X010287Y012146D01*
X009746Y012146D01*
X009746Y012183D01*
X009709Y012183D01*
X009709Y012724D01*
X009683Y012724D01*
X009596Y012710D01*
X009512Y012683D01*
X009434Y012643D01*
X009362Y012591D01*
X009300Y012529D01*
X009248Y012458D01*
X009208Y012379D01*
X009181Y012295D01*
X009167Y012208D01*
X009167Y012183D01*
X009709Y012183D01*
X009709Y012146D01*
X009167Y012146D01*
X009167Y012120D01*
X009181Y012033D01*
X009208Y011949D01*
X009248Y011871D01*
X009300Y011799D01*
X009362Y011737D01*
X009433Y011686D01*
X009399Y011672D01*
X009236Y011509D01*
X009147Y011295D01*
X009147Y011065D01*
X009236Y010851D01*
X009399Y010688D01*
X009400Y010688D01*
X009399Y010687D01*
X009236Y010524D01*
X009147Y010311D01*
X009147Y010080D01*
X009236Y009867D01*
X009399Y009704D01*
X009483Y009669D01*
X009483Y008815D01*
X009523Y008720D01*
X010122Y008120D01*
X010025Y008160D01*
X009835Y008160D01*
X009658Y008087D01*
X009523Y007952D01*
X009450Y007775D01*
X009450Y007585D01*
X009523Y007408D01*
X009658Y007273D01*
X009835Y007200D01*
X010025Y007200D01*
X010202Y007273D01*
X010337Y007408D01*
X010410Y007585D01*
X010410Y007775D01*
X010370Y007872D01*
X010670Y007572D01*
X010670Y004485D01*
X010570Y004485D01*
X010037Y003951D01*
X010037Y003196D01*
X010570Y002663D01*
X011325Y002663D01*
X011859Y003196D01*
X011859Y003951D01*
X011325Y004485D01*
X011190Y004485D01*
X011190Y004741D01*
X011231Y004700D01*
X011629Y004700D01*
X011910Y004981D01*
X011910Y005379D01*
X011629Y005660D01*
X011231Y005660D01*
X011190Y005849D02*
X016920Y005849D01*
X016920Y006007D02*
X011190Y006007D01*
X011190Y006166D02*
X016920Y006166D01*
X016920Y006324D02*
X011190Y006324D01*
X011190Y006483D02*
X016920Y006483D01*
X016920Y006641D02*
X011190Y006641D01*
X011190Y006800D02*
X016882Y006800D01*
X016723Y006958D02*
X011190Y006958D01*
X011190Y007117D02*
X016700Y007117D01*
X016700Y007275D02*
X011190Y007275D01*
X011190Y007434D02*
X016755Y007434D01*
X016913Y007592D02*
X011190Y007592D01*
X011679Y007751D02*
X012181Y007751D01*
X012022Y007909D02*
X011838Y007909D01*
X011910Y008068D02*
X011950Y008068D01*
X011950Y008226D02*
X011910Y008226D01*
X011904Y008385D02*
X011956Y008385D01*
X011949Y008543D02*
X011746Y008543D01*
X011791Y008702D02*
X010276Y008702D01*
X010118Y008860D02*
X011632Y008860D01*
X011474Y009019D02*
X010003Y009019D01*
X010003Y009177D02*
X011315Y009177D01*
X011157Y009336D02*
X010003Y009336D01*
X010003Y009494D02*
X010998Y009494D01*
X010840Y009653D02*
X010003Y009653D01*
X010163Y009811D02*
X010681Y009811D01*
X010523Y009970D02*
X010261Y009970D01*
X010307Y010128D02*
X010364Y010128D01*
X010941Y010287D02*
X016110Y010287D01*
X016110Y010445D02*
X010783Y010445D01*
X010624Y010604D02*
X016110Y010604D01*
X016110Y010762D02*
X010466Y010762D01*
X010307Y010921D02*
X016110Y010921D01*
X016110Y011079D02*
X015468Y011079D01*
X015441Y011052D02*
X015558Y011169D01*
X015558Y011691D01*
X015441Y011808D01*
X015440Y011808D01*
X015440Y012302D01*
X015441Y012302D01*
X015558Y012419D01*
X015558Y012941D01*
X015441Y013058D01*
X014919Y013058D01*
X014802Y012941D01*
X014802Y012419D01*
X014919Y012302D01*
X014920Y012302D01*
X014920Y011808D01*
X014919Y011808D01*
X014802Y011691D01*
X014802Y011169D01*
X014919Y011052D01*
X015441Y011052D01*
X015558Y011238D02*
X016110Y011238D01*
X016110Y011396D02*
X015558Y011396D01*
X015558Y011555D02*
X016110Y011555D01*
X016110Y011713D02*
X015536Y011713D01*
X015440Y011872D02*
X016110Y011872D01*
X016110Y012030D02*
X015440Y012030D01*
X015440Y012189D02*
X016110Y012189D01*
X016110Y012347D02*
X015486Y012347D01*
X015558Y012506D02*
X016110Y012506D01*
X016110Y012664D02*
X015558Y012664D01*
X015558Y012823D02*
X016110Y012823D01*
X016110Y012981D02*
X015518Y012981D01*
X014842Y012981D02*
X012760Y012981D01*
X012760Y013032D02*
X013414Y013032D01*
X013414Y013256D01*
X012984Y013685D01*
X012760Y013685D01*
X012760Y013032D01*
X012600Y013032D01*
X012600Y013685D01*
X012376Y013685D01*
X011946Y013256D01*
X011946Y013032D01*
X012600Y013032D01*
X012600Y012872D01*
X011946Y012872D01*
X011946Y012648D01*
X012376Y012218D01*
X012600Y012218D01*
X012600Y012872D01*
X012760Y012872D01*
X012760Y013032D01*
X012760Y013140D02*
X012600Y013140D01*
X012600Y013298D02*
X012760Y013298D01*
X012760Y013457D02*
X012600Y013457D01*
X012600Y013615D02*
X012760Y013615D01*
X013054Y013615D02*
X016662Y013615D01*
X016504Y013457D02*
X013213Y013457D01*
X013371Y013298D02*
X016345Y013298D01*
X016187Y013140D02*
X013414Y013140D01*
X013414Y012872D02*
X012760Y012872D01*
X012760Y012218D01*
X012984Y012218D01*
X013414Y012648D01*
X013414Y012872D01*
X013414Y012823D02*
X014802Y012823D01*
X014802Y012664D02*
X013414Y012664D01*
X013271Y012506D02*
X014802Y012506D01*
X014874Y012347D02*
X013113Y012347D01*
X012760Y012347D02*
X012600Y012347D01*
X012600Y012506D02*
X012760Y012506D01*
X012760Y012664D02*
X012600Y012664D01*
X012600Y012823D02*
X012760Y012823D01*
X012600Y012981D02*
X008660Y012981D01*
X008379Y012700D01*
X007981Y012700D01*
X007700Y012981D01*
X005260Y012981D01*
X005260Y013032D02*
X005914Y013032D01*
X005914Y013256D01*
X005554Y013615D01*
X005567Y013610D01*
X005793Y013610D01*
X006003Y013697D01*
X006163Y013857D01*
X006250Y014067D01*
X006250Y014293D01*
X006163Y014503D01*
X006003Y014663D01*
X005793Y014750D01*
X005567Y014750D01*
X005357Y014663D01*
X005197Y014503D01*
X005191Y014489D01*
X005180Y014514D01*
X005014Y014680D01*
X004797Y014770D01*
X004563Y014770D01*
X004346Y014680D01*
X004180Y014514D01*
X004090Y014297D01*
X004090Y014063D01*
X004180Y013846D01*
X004346Y013680D01*
X004563Y013590D01*
X004781Y013590D01*
X004446Y013256D01*
X004446Y013032D01*
X005100Y013032D01*
X005100Y013685D01*
X005020Y013685D01*
X005180Y013846D01*
X005191Y013871D01*
X005197Y013857D01*
X005357Y013697D01*
X005385Y013685D01*
X005260Y013685D01*
X005260Y013032D01*
X005100Y013032D01*
X005100Y012872D01*
X004446Y012872D01*
X004446Y012648D01*
X004876Y012218D01*
X005100Y012218D01*
X005100Y012872D01*
X005260Y012872D01*
X005260Y013032D01*
X005260Y013140D02*
X005100Y013140D01*
X005100Y013298D02*
X005260Y013298D01*
X005260Y013457D02*
X005100Y013457D01*
X005100Y013615D02*
X005260Y013615D01*
X005280Y013774D02*
X005108Y013774D01*
X005554Y013615D02*
X005554Y013615D01*
X005713Y013457D02*
X007778Y013457D01*
X007700Y013379D02*
X007700Y012981D01*
X007700Y013140D02*
X005914Y013140D01*
X005871Y013298D02*
X007700Y013298D01*
X007700Y013379D02*
X007981Y013660D01*
X008379Y013660D01*
X008660Y013379D01*
X008660Y012981D01*
X008660Y013140D02*
X011946Y013140D01*
X011989Y013298D02*
X008660Y013298D01*
X008582Y013457D02*
X012147Y013457D01*
X012306Y013615D02*
X008424Y013615D01*
X008163Y013857D02*
X008003Y013697D01*
X007793Y013610D01*
X007567Y013610D01*
X007357Y013697D01*
X007197Y013857D01*
X007110Y014067D01*
X007110Y014293D01*
X007197Y014503D01*
X007357Y014663D01*
X007567Y014750D01*
X007793Y014750D01*
X008003Y014663D01*
X008163Y014503D01*
X008250Y014293D01*
X008250Y014067D01*
X008163Y013857D01*
X008194Y013932D02*
X008622Y013932D01*
X008463Y014091D02*
X008250Y014091D01*
X008250Y014249D02*
X008360Y014249D01*
X008360Y014408D02*
X008203Y014408D01*
X008100Y014566D02*
X008360Y014566D01*
X008418Y014725D02*
X007855Y014725D01*
X007849Y014883D02*
X008577Y014883D01*
X008512Y015042D02*
X008098Y015042D01*
X008202Y015200D02*
X008360Y015200D01*
X008360Y015359D02*
X008250Y015359D01*
X008250Y015517D02*
X008360Y015517D01*
X008369Y015676D02*
X008195Y015676D01*
X008082Y015834D02*
X008528Y015834D01*
X007278Y015834D02*
X006082Y015834D01*
X006195Y015676D02*
X007165Y015676D01*
X007110Y015517D02*
X006250Y015517D01*
X006250Y015359D02*
X007110Y015359D01*
X007158Y015200D02*
X006202Y015200D01*
X006098Y015042D02*
X007262Y015042D01*
X007511Y014883D02*
X005849Y014883D01*
X005855Y014725D02*
X007505Y014725D01*
X007260Y014566D02*
X006100Y014566D01*
X006203Y014408D02*
X007157Y014408D01*
X007110Y014249D02*
X006250Y014249D01*
X006250Y014091D02*
X007110Y014091D01*
X007166Y013932D02*
X006194Y013932D01*
X006080Y013774D02*
X007280Y013774D01*
X007554Y013615D02*
X005806Y013615D01*
X005100Y012981D02*
X000380Y012981D01*
X000380Y012823D02*
X004446Y012823D01*
X004446Y012664D02*
X002480Y012664D01*
X002442Y012683D02*
X002358Y012710D01*
X002271Y012724D01*
X002246Y012724D01*
X002246Y012183D01*
X002787Y012183D01*
X002787Y012208D01*
X002773Y012295D01*
X002746Y012379D01*
X002706Y012458D01*
X002654Y012529D01*
X002592Y012591D01*
X002521Y012643D01*
X002442Y012683D01*
X002246Y012664D02*
X002209Y012664D01*
X002209Y012724D02*
X002183Y012724D01*
X002096Y012710D01*
X002012Y012683D01*
X001934Y012643D01*
X001862Y012591D01*
X001800Y012529D01*
X001748Y012458D01*
X001708Y012379D01*
X001681Y012295D01*
X001667Y012208D01*
X001667Y012183D01*
X002209Y012183D01*
X002209Y012724D01*
X001975Y012664D02*
X000380Y012664D01*
X000380Y012506D02*
X001783Y012506D01*
X001698Y012347D02*
X000380Y012347D01*
X000380Y012189D02*
X001667Y012189D01*
X001667Y012146D02*
X001667Y012120D01*
X001681Y012033D01*
X001708Y011949D01*
X001748Y011871D01*
X001800Y011799D01*
X001862Y011737D01*
X001933Y011686D01*
X001899Y011672D01*
X001736Y011509D01*
X001647Y011295D01*
X001647Y011065D01*
X001736Y010851D01*
X001899Y010688D01*
X001900Y010688D01*
X001899Y010687D01*
X001736Y010524D01*
X001647Y010311D01*
X001647Y010080D01*
X001736Y009867D01*
X001899Y009704D01*
X002112Y009616D01*
X002343Y009616D01*
X002556Y009704D01*
X002719Y009867D01*
X002807Y010080D01*
X002807Y010311D01*
X002719Y010524D01*
X002556Y010687D01*
X002555Y010688D01*
X002556Y010688D01*
X002719Y010851D01*
X002807Y011065D01*
X002807Y011295D01*
X002719Y011509D01*
X002556Y011672D01*
X002522Y011686D01*
X002592Y011737D01*
X002654Y011799D01*
X002706Y011871D01*
X002746Y011949D01*
X002773Y012033D01*
X002787Y012120D01*
X002787Y012146D01*
X002246Y012146D01*
X002246Y012183D01*
X002209Y012183D01*
X002209Y012146D01*
X001667Y012146D01*
X001682Y012030D02*
X000380Y012030D01*
X000380Y011872D02*
X001748Y011872D01*
X001896Y011713D02*
X000380Y011713D01*
X000380Y011555D02*
X001782Y011555D01*
X001689Y011396D02*
X000380Y011396D01*
X000380Y011238D02*
X001647Y011238D01*
X001647Y011079D02*
X000380Y011079D01*
X000380Y010921D02*
X001707Y010921D01*
X001825Y010762D02*
X000380Y010762D01*
X000380Y010604D02*
X001815Y010604D01*
X001703Y010445D02*
X000380Y010445D01*
X000380Y010287D02*
X001647Y010287D01*
X001647Y010128D02*
X000380Y010128D01*
X000380Y009970D02*
X001693Y009970D01*
X001792Y009811D02*
X000380Y009811D01*
X000380Y009653D02*
X002023Y009653D01*
X002431Y009653D02*
X004446Y009653D01*
X004446Y009712D02*
X004446Y009488D01*
X005100Y009488D01*
X005100Y009328D01*
X005260Y009328D01*
X005260Y008675D01*
X005484Y008675D01*
X005914Y009104D01*
X005914Y009328D01*
X005260Y009328D01*
X005260Y009488D01*
X005914Y009488D01*
X005914Y009712D01*
X005484Y010142D01*
X005260Y010142D01*
X005260Y009488D01*
X005100Y009488D01*
X005100Y010142D01*
X004876Y010142D01*
X004446Y009712D01*
X004545Y009811D02*
X002663Y009811D01*
X002761Y009970D02*
X004704Y009970D01*
X004862Y010128D02*
X002807Y010128D01*
X002807Y010287D02*
X006669Y010287D01*
X006827Y010445D02*
X002752Y010445D01*
X002640Y010604D02*
X006986Y010604D01*
X007144Y010762D02*
X002630Y010762D01*
X002748Y010921D02*
X007302Y010921D01*
X007302Y010920D02*
X006210Y009827D01*
X006170Y009732D01*
X006170Y004485D01*
X005570Y004485D01*
X005037Y003951D01*
X005037Y003196D01*
X005570Y002663D01*
X006325Y002663D01*
X006859Y003196D01*
X006859Y003951D01*
X006690Y004120D01*
X006690Y009572D01*
X007670Y010552D01*
X007873Y010552D01*
X007700Y010379D01*
X007700Y009981D01*
X007920Y009761D01*
X007920Y009099D01*
X007700Y008879D01*
X007700Y008481D01*
X007981Y008200D01*
X008379Y008200D01*
X008660Y008481D01*
X008660Y008879D01*
X008440Y009099D01*
X008440Y009761D01*
X008660Y009981D01*
X008660Y010379D01*
X008379Y010660D01*
X008049Y010660D01*
X008058Y010669D01*
X008058Y011191D01*
X007941Y011308D01*
X007419Y011308D01*
X007302Y011191D01*
X007302Y010920D01*
X007302Y011079D02*
X002807Y011079D01*
X002807Y011238D02*
X007348Y011238D01*
X008012Y011238D02*
X009147Y011238D01*
X009147Y011079D02*
X008058Y011079D01*
X008058Y010921D02*
X009207Y010921D01*
X009325Y010762D02*
X008058Y010762D01*
X008435Y010604D02*
X009315Y010604D01*
X009203Y010445D02*
X008594Y010445D01*
X008660Y010287D02*
X009147Y010287D01*
X009147Y010128D02*
X008660Y010128D01*
X008648Y009970D02*
X009193Y009970D01*
X009292Y009811D02*
X008490Y009811D01*
X008440Y009653D02*
X009483Y009653D01*
X009483Y009494D02*
X008440Y009494D01*
X008440Y009336D02*
X009483Y009336D01*
X009483Y009177D02*
X008440Y009177D01*
X008520Y009019D02*
X009483Y009019D01*
X009483Y008860D02*
X008660Y008860D01*
X008660Y008702D02*
X009541Y008702D01*
X009699Y008543D02*
X008660Y008543D01*
X008563Y008385D02*
X009858Y008385D01*
X010016Y008226D02*
X008405Y008226D01*
X007955Y008226D02*
X007377Y008226D01*
X007371Y008220D02*
X007640Y008489D01*
X007640Y008680D01*
X007640Y008871D01*
X007371Y009140D01*
X007180Y009140D01*
X007180Y008680D01*
X007180Y008680D01*
X007640Y008680D01*
X007180Y008680D01*
X007180Y008680D01*
X007180Y008680D01*
X006720Y008680D01*
X006720Y008871D01*
X006989Y009140D01*
X007180Y009140D01*
X007180Y008680D01*
X007180Y008220D01*
X007371Y008220D01*
X007180Y008220D02*
X007180Y008680D01*
X007180Y008680D01*
X006720Y008680D01*
X006720Y008489D01*
X006989Y008220D01*
X007180Y008220D01*
X007180Y008226D02*
X007180Y008226D01*
X007180Y008385D02*
X007180Y008385D01*
X007180Y008543D02*
X007180Y008543D01*
X007180Y008702D02*
X007180Y008702D01*
X007180Y008860D02*
X007180Y008860D01*
X007180Y009019D02*
X007180Y009019D01*
X007492Y009019D02*
X007840Y009019D01*
X007920Y009177D02*
X006690Y009177D01*
X006690Y009019D02*
X006868Y009019D01*
X006720Y008860D02*
X006690Y008860D01*
X006690Y008702D02*
X006720Y008702D01*
X006720Y008543D02*
X006690Y008543D01*
X006690Y008385D02*
X006825Y008385D01*
X006690Y008226D02*
X006983Y008226D01*
X006690Y008068D02*
X009639Y008068D01*
X009505Y007909D02*
X006690Y007909D01*
X006690Y007751D02*
X009450Y007751D01*
X009450Y007592D02*
X006690Y007592D01*
X006690Y007434D02*
X009513Y007434D01*
X009656Y007275D02*
X006690Y007275D01*
X006690Y007117D02*
X009730Y007117D01*
X009658Y007087D02*
X009523Y006952D01*
X009450Y006775D01*
X009450Y006585D01*
X009523Y006408D01*
X009658Y006273D01*
X009835Y006200D01*
X010025Y006200D01*
X010202Y006273D01*
X010337Y006408D01*
X010410Y006585D01*
X010410Y006775D01*
X010337Y006952D01*
X010202Y007087D01*
X010025Y007160D01*
X009835Y007160D01*
X009658Y007087D01*
X009529Y006958D02*
X006690Y006958D01*
X006690Y006800D02*
X009460Y006800D01*
X009450Y006641D02*
X006690Y006641D01*
X006690Y006483D02*
X009492Y006483D01*
X009607Y006324D02*
X006690Y006324D01*
X006690Y006166D02*
X010670Y006166D01*
X010670Y006324D02*
X010253Y006324D01*
X010368Y006483D02*
X010670Y006483D01*
X010670Y006641D02*
X010410Y006641D01*
X010400Y006800D02*
X010670Y006800D01*
X010670Y006958D02*
X010331Y006958D01*
X010130Y007117D02*
X010670Y007117D01*
X010670Y007275D02*
X010204Y007275D01*
X010347Y007434D02*
X010670Y007434D01*
X010650Y007592D02*
X010410Y007592D01*
X010410Y007751D02*
X010492Y007751D01*
X010910Y008068D02*
X010950Y008068D01*
X010950Y008226D02*
X010752Y008226D01*
X010593Y008385D02*
X010956Y008385D01*
X011114Y008543D02*
X010435Y008543D01*
X011892Y009336D02*
X012600Y009336D01*
X012600Y009488D02*
X011946Y009488D01*
X011946Y009712D01*
X012376Y010142D01*
X012600Y010142D01*
X012600Y009488D01*
X012600Y009494D02*
X012760Y009494D01*
X012760Y009336D02*
X016110Y009336D01*
X016110Y009494D02*
X013414Y009494D01*
X013414Y009653D02*
X016110Y009653D01*
X016110Y009811D02*
X013315Y009811D01*
X013156Y009970D02*
X016110Y009970D01*
X016110Y010128D02*
X012998Y010128D01*
X012760Y010128D02*
X012600Y010128D01*
X012600Y009970D02*
X012760Y009970D01*
X012760Y009811D02*
X012600Y009811D01*
X012600Y009653D02*
X012760Y009653D01*
X012362Y010128D02*
X011100Y010128D01*
X011258Y009970D02*
X012204Y009970D01*
X012045Y009811D02*
X011417Y009811D01*
X011575Y009653D02*
X011946Y009653D01*
X011946Y009494D02*
X011734Y009494D01*
X012600Y009177D02*
X012760Y009177D01*
X012760Y009019D02*
X012600Y009019D01*
X012600Y008860D02*
X012760Y008860D01*
X012760Y008702D02*
X012600Y008702D01*
X012746Y008543D02*
X013114Y008543D01*
X013231Y008660D02*
X012950Y008379D01*
X012950Y007981D01*
X013231Y007700D01*
X013629Y007700D01*
X013910Y007981D01*
X013910Y008379D01*
X013629Y008660D01*
X013231Y008660D01*
X013169Y008860D02*
X015657Y008860D01*
X015499Y008702D02*
X013011Y008702D01*
X013328Y009019D02*
X015816Y009019D01*
X015974Y009177D02*
X013414Y009177D01*
X013950Y008379D02*
X014231Y008660D01*
X014629Y008660D01*
X014910Y008379D01*
X014910Y007981D01*
X014629Y007700D01*
X014231Y007700D01*
X013950Y007981D01*
X013950Y008379D01*
X013956Y008385D02*
X013904Y008385D01*
X013910Y008226D02*
X013950Y008226D01*
X013950Y008068D02*
X013910Y008068D01*
X013838Y007909D02*
X014022Y007909D01*
X014181Y007751D02*
X013679Y007751D01*
X013181Y007751D02*
X012679Y007751D01*
X012838Y007909D02*
X013022Y007909D01*
X012950Y008068D02*
X012910Y008068D01*
X012910Y008226D02*
X012950Y008226D01*
X012956Y008385D02*
X012904Y008385D01*
X013746Y008543D02*
X014114Y008543D01*
X014746Y008543D02*
X015114Y008543D01*
X014956Y008385D02*
X014904Y008385D01*
X014910Y008226D02*
X014950Y008226D01*
X014950Y008068D02*
X014910Y008068D01*
X014838Y007909D02*
X015022Y007909D01*
X015181Y007751D02*
X014679Y007751D01*
X015679Y007751D02*
X016209Y007751D01*
X016239Y007720D02*
X015970Y007989D01*
X015970Y008180D01*
X016430Y008180D01*
X016890Y008180D01*
X016890Y007989D01*
X016621Y007720D01*
X016430Y007720D01*
X016430Y008180D01*
X016430Y008180D01*
X016430Y007720D01*
X016239Y007720D01*
X016430Y007751D02*
X016430Y007751D01*
X016430Y007909D02*
X016430Y007909D01*
X016430Y008068D02*
X016430Y008068D01*
X016430Y008226D02*
X016430Y008226D01*
X016430Y008385D02*
X016430Y008385D01*
X016430Y008543D02*
X016430Y008543D01*
X016404Y008702D02*
X017552Y008702D01*
X017552Y008860D02*
X016563Y008860D01*
X016709Y009019D02*
X017552Y009019D01*
X017552Y009177D02*
X016750Y009177D01*
X016750Y009336D02*
X017670Y009336D01*
X017670Y009494D02*
X016750Y009494D01*
X016750Y009653D02*
X017023Y009653D01*
X016792Y009811D02*
X016750Y009811D01*
X017431Y009653D02*
X017670Y009653D01*
X017663Y009811D02*
X017670Y009811D01*
X018190Y009811D02*
X019545Y009811D01*
X019446Y009712D02*
X019446Y009488D01*
X020100Y009488D01*
X020100Y009328D01*
X020260Y009328D01*
X020260Y008675D01*
X020484Y008675D01*
X020914Y009104D01*
X020914Y009328D01*
X020260Y009328D01*
X020260Y009488D01*
X020914Y009488D01*
X020914Y009712D01*
X020484Y010142D01*
X020260Y010142D01*
X020260Y009488D01*
X020100Y009488D01*
X020100Y010142D01*
X019876Y010142D01*
X019446Y009712D01*
X019446Y009653D02*
X018190Y009653D01*
X018190Y009494D02*
X019446Y009494D01*
X019446Y009328D02*
X019446Y009104D01*
X019876Y008675D01*
X020100Y008675D01*
X020100Y009328D01*
X019446Y009328D01*
X019446Y009177D02*
X018308Y009177D01*
X018308Y009019D02*
X019532Y009019D01*
X019691Y008860D02*
X018308Y008860D01*
X018308Y008702D02*
X019849Y008702D01*
X019731Y008660D02*
X019450Y008379D01*
X019450Y007981D01*
X019731Y007700D01*
X020129Y007700D01*
X020410Y007981D01*
X020410Y008379D01*
X020129Y008660D01*
X019731Y008660D01*
X019614Y008543D02*
X019246Y008543D01*
X019129Y008660D02*
X018731Y008660D01*
X018450Y008379D01*
X018450Y007981D01*
X018731Y007700D01*
X019129Y007700D01*
X019410Y007981D01*
X019410Y008379D01*
X019129Y008660D01*
X018614Y008543D02*
X016718Y008543D01*
X016876Y008385D02*
X018456Y008385D01*
X018450Y008226D02*
X016890Y008226D01*
X016890Y008068D02*
X018450Y008068D01*
X018522Y007909D02*
X016810Y007909D01*
X016651Y007751D02*
X018681Y007751D01*
X018447Y007592D02*
X024407Y007592D01*
X024407Y007434D02*
X018605Y007434D01*
X018660Y007379D02*
X018379Y007660D01*
X017981Y007660D01*
X017700Y007379D01*
X017700Y006981D01*
X017981Y006700D01*
X018379Y006700D01*
X018660Y006981D01*
X018660Y007379D01*
X018660Y007275D02*
X024407Y007275D01*
X024407Y007117D02*
X018660Y007117D01*
X018637Y006958D02*
X024407Y006958D01*
X024407Y006800D02*
X023450Y006800D01*
X023558Y006641D02*
X024407Y006641D01*
X024407Y006483D02*
X023558Y006483D01*
X023558Y006324D02*
X024407Y006324D01*
X024407Y006166D02*
X023555Y006166D01*
X023440Y006007D02*
X024407Y006007D01*
X024396Y005849D02*
X023440Y005849D01*
X023440Y005690D02*
X024237Y005690D01*
X023853Y005532D02*
X023507Y005532D01*
X023620Y005373D02*
X023740Y005373D01*
X023700Y005215D02*
X023660Y005215D01*
X023648Y005056D02*
X023712Y005056D01*
X023784Y004898D02*
X023576Y004898D01*
X023370Y004739D02*
X023990Y004739D01*
X024370Y004739D02*
X025740Y004739D01*
X025534Y004898D02*
X024576Y004898D01*
X024648Y005056D02*
X025462Y005056D01*
X025450Y005215D02*
X024667Y005215D01*
X024826Y005373D02*
X025490Y005373D01*
X025603Y005532D02*
X024984Y005532D01*
X026305Y006166D02*
X028170Y006166D01*
X028170Y006324D02*
X026308Y006324D01*
X026308Y006483D02*
X028170Y006483D01*
X028170Y006641D02*
X026308Y006641D01*
X026200Y006800D02*
X028170Y006800D01*
X028170Y006958D02*
X026190Y006958D01*
X026190Y007117D02*
X028170Y007117D01*
X028170Y007275D02*
X026190Y007275D01*
X026190Y007434D02*
X028170Y007434D01*
X028170Y007592D02*
X026190Y007592D01*
X026190Y007751D02*
X026713Y007751D01*
X026658Y007773D02*
X026835Y007700D01*
X027025Y007700D01*
X027202Y007773D01*
X027337Y007908D01*
X027410Y008085D01*
X027410Y008275D01*
X027337Y008452D01*
X027202Y008587D01*
X027025Y008660D01*
X026835Y008660D01*
X026658Y008587D01*
X026523Y008452D01*
X026450Y008275D01*
X026450Y008085D01*
X026523Y007908D01*
X026658Y007773D01*
X026523Y007909D02*
X026337Y007909D01*
X026403Y008068D02*
X026457Y008068D01*
X026450Y008226D02*
X026410Y008226D01*
X026365Y008385D02*
X026495Y008385D01*
X026614Y008543D02*
X026246Y008543D01*
X027032Y009019D02*
X025047Y009019D01*
X025047Y009177D02*
X026946Y009177D01*
X027191Y008860D02*
X025047Y008860D01*
X024407Y008860D02*
X020669Y008860D01*
X020511Y008702D02*
X024407Y008702D01*
X024407Y009019D02*
X020828Y009019D01*
X020914Y009177D02*
X024407Y009177D01*
X024407Y009336D02*
X023514Y009336D01*
X023379Y009200D02*
X022981Y009200D01*
X022700Y009481D01*
X022700Y009879D01*
X022981Y010160D01*
X023379Y010160D01*
X023660Y009879D01*
X023660Y009481D01*
X023379Y009200D01*
X022846Y009336D02*
X020260Y009336D01*
X020260Y009494D02*
X020100Y009494D01*
X020100Y009336D02*
X018190Y009336D01*
X018190Y009970D02*
X019704Y009970D01*
X019862Y010128D02*
X018190Y010128D01*
X018190Y010287D02*
X024147Y010287D01*
X024147Y010128D02*
X023411Y010128D01*
X023569Y009970D02*
X024193Y009970D01*
X024292Y009811D02*
X023660Y009811D01*
X023660Y009653D02*
X024407Y009653D01*
X024407Y009494D02*
X023660Y009494D01*
X022949Y010128D02*
X020498Y010128D01*
X020656Y009970D02*
X022791Y009970D01*
X022700Y009811D02*
X020815Y009811D01*
X020914Y009653D02*
X022700Y009653D01*
X022700Y009494D02*
X020914Y009494D01*
X020260Y009653D02*
X020100Y009653D01*
X020100Y009811D02*
X020260Y009811D01*
X020260Y009970D02*
X020100Y009970D01*
X020100Y010128D02*
X020260Y010128D01*
X020260Y009177D02*
X020100Y009177D01*
X020100Y009019D02*
X020260Y009019D01*
X020260Y008860D02*
X020100Y008860D01*
X020100Y008702D02*
X020260Y008702D01*
X020246Y008543D02*
X020864Y008543D01*
X020908Y008587D02*
X020773Y008452D01*
X020700Y008275D01*
X020700Y008085D01*
X020773Y007908D01*
X020908Y007773D01*
X021085Y007700D01*
X021275Y007700D01*
X021452Y007773D01*
X021587Y007908D01*
X021660Y008085D01*
X021660Y008275D01*
X021587Y008452D01*
X021452Y008587D01*
X021275Y008660D01*
X021085Y008660D01*
X020908Y008587D01*
X020745Y008385D02*
X020404Y008385D01*
X020410Y008226D02*
X020700Y008226D01*
X020707Y008068D02*
X020410Y008068D01*
X020338Y007909D02*
X020773Y007909D01*
X020963Y007751D02*
X020179Y007751D01*
X019681Y007751D02*
X019179Y007751D01*
X019338Y007909D02*
X019522Y007909D01*
X019450Y008068D02*
X019410Y008068D01*
X019410Y008226D02*
X019450Y008226D01*
X019456Y008385D02*
X019404Y008385D01*
X017913Y007592D02*
X017447Y007592D01*
X017605Y007434D02*
X017755Y007434D01*
X017700Y007275D02*
X017660Y007275D01*
X017660Y007117D02*
X017700Y007117D01*
X017723Y006958D02*
X017637Y006958D01*
X017478Y006800D02*
X017882Y006800D01*
X017440Y006641D02*
X022802Y006641D01*
X022802Y006483D02*
X017440Y006483D01*
X017440Y006324D02*
X022802Y006324D01*
X022805Y006166D02*
X017440Y006166D01*
X017440Y006007D02*
X022920Y006007D01*
X022920Y005849D02*
X017440Y005849D01*
X018478Y006800D02*
X022910Y006800D01*
X023085Y007700D02*
X023275Y007700D01*
X023452Y007773D01*
X023587Y007908D01*
X023660Y008085D01*
X023660Y008275D01*
X023587Y008452D01*
X023452Y008587D01*
X023275Y008660D01*
X023085Y008660D01*
X022908Y008587D01*
X022773Y008452D01*
X022700Y008275D01*
X022700Y008085D01*
X022773Y007908D01*
X022908Y007773D01*
X023085Y007700D01*
X022963Y007751D02*
X022347Y007751D01*
X022357Y007754D02*
X022421Y007787D01*
X022480Y007829D01*
X022531Y007880D01*
X022573Y007939D01*
X022606Y008003D01*
X022629Y008072D01*
X022640Y008144D01*
X022640Y008180D01*
X022640Y008216D01*
X022629Y008288D01*
X022606Y008357D01*
X022573Y008421D01*
X022531Y008480D01*
X022480Y008531D01*
X022421Y008573D01*
X022357Y008606D01*
X022288Y008629D01*
X022216Y008640D01*
X022180Y008640D01*
X022180Y008180D01*
X022180Y008180D01*
X022640Y008180D01*
X022180Y008180D01*
X022180Y008180D01*
X022180Y008180D01*
X021720Y008180D01*
X021720Y008216D01*
X021731Y008288D01*
X021754Y008357D01*
X021787Y008421D01*
X021829Y008480D01*
X021880Y008531D01*
X021939Y008573D01*
X022003Y008606D01*
X022072Y008629D01*
X022144Y008640D01*
X022180Y008640D01*
X022180Y008180D01*
X022180Y007720D01*
X022216Y007720D01*
X022288Y007731D01*
X022357Y007754D01*
X022180Y007751D02*
X022180Y007751D01*
X022180Y007720D02*
X022180Y008180D01*
X022180Y008180D01*
X021720Y008180D01*
X021720Y008144D01*
X021731Y008072D01*
X021754Y008003D01*
X021787Y007939D01*
X021829Y007880D01*
X021880Y007829D01*
X021939Y007787D01*
X022003Y007754D01*
X022072Y007731D01*
X022144Y007720D01*
X022180Y007720D01*
X022013Y007751D02*
X021397Y007751D01*
X021587Y007909D02*
X021808Y007909D01*
X021733Y008068D02*
X021653Y008068D01*
X021660Y008226D02*
X021722Y008226D01*
X021768Y008385D02*
X021615Y008385D01*
X021496Y008543D02*
X021897Y008543D01*
X022180Y008543D02*
X022180Y008543D01*
X022180Y008385D02*
X022180Y008385D01*
X022180Y008226D02*
X022180Y008226D01*
X022180Y008068D02*
X022180Y008068D01*
X022180Y007909D02*
X022180Y007909D01*
X022552Y007909D02*
X022773Y007909D01*
X022707Y008068D02*
X022627Y008068D01*
X022638Y008226D02*
X022700Y008226D01*
X022745Y008385D02*
X022592Y008385D01*
X022463Y008543D02*
X022864Y008543D01*
X023496Y008543D02*
X023864Y008543D01*
X023745Y008385D02*
X023615Y008385D01*
X023660Y008226D02*
X023700Y008226D01*
X023707Y008068D02*
X023653Y008068D01*
X023587Y007909D02*
X023773Y007909D01*
X023963Y007751D02*
X023397Y007751D01*
X024397Y007751D02*
X024407Y007751D01*
X027147Y007751D02*
X027713Y007751D01*
X027523Y007909D02*
X027337Y007909D01*
X027403Y008068D02*
X027457Y008068D01*
X027450Y008226D02*
X027410Y008226D01*
X027365Y008385D02*
X027495Y008385D01*
X028246Y008543D02*
X028614Y008543D01*
X028495Y008385D02*
X028365Y008385D01*
X029246Y008543D02*
X029614Y008543D01*
X029495Y008385D02*
X029365Y008385D01*
X029410Y008226D02*
X029450Y008226D01*
X029457Y008068D02*
X029403Y008068D01*
X029337Y007909D02*
X029523Y007909D01*
X029713Y007751D02*
X029147Y007751D01*
X028713Y007751D02*
X028690Y007751D01*
X028170Y007751D02*
X028147Y007751D01*
X028414Y009494D02*
X029819Y009494D01*
X032213Y008543D02*
X032614Y008543D01*
X032495Y008385D02*
X032342Y008385D01*
X032388Y008226D02*
X032450Y008226D01*
X032457Y008068D02*
X032377Y008068D01*
X032302Y007909D02*
X032523Y007909D01*
X035147Y007751D02*
X035713Y007751D01*
X035523Y007909D02*
X035337Y007909D01*
X035403Y008068D02*
X035457Y008068D01*
X035450Y008226D02*
X035410Y008226D01*
X035365Y008385D02*
X035495Y008385D01*
X036246Y008543D02*
X036614Y008543D01*
X036495Y008385D02*
X036365Y008385D01*
X036410Y008226D02*
X036450Y008226D01*
X036457Y008068D02*
X036403Y008068D01*
X036337Y007909D02*
X036523Y007909D01*
X036713Y007751D02*
X036147Y007751D01*
X038257Y005532D02*
X038603Y005532D01*
X038490Y005373D02*
X038370Y005373D01*
X038410Y005215D02*
X038450Y005215D01*
X038462Y005056D02*
X038398Y005056D01*
X038326Y004898D02*
X038534Y004898D01*
X038740Y004739D02*
X038120Y004739D01*
X039120Y004739D02*
X039350Y004739D01*
X039350Y004581D02*
X036190Y004581D01*
X039326Y004898D02*
X039350Y004898D01*
X039350Y005532D02*
X039257Y005532D01*
X033220Y002996D02*
X032815Y002996D01*
X032925Y002837D02*
X033220Y002837D01*
X033281Y002679D02*
X032925Y002679D01*
X032925Y002520D02*
X033439Y002520D01*
X033433Y002362D02*
X032812Y002362D01*
X039350Y000777D02*
X018612Y000777D01*
X017850Y000777D02*
X000380Y000777D01*
X000380Y000935D02*
X002562Y000935D01*
X002665Y000832D02*
X002143Y001354D01*
X002143Y001643D01*
X002954Y001643D01*
X002954Y001803D01*
X002143Y001803D01*
X002143Y002092D01*
X002665Y002614D01*
X002954Y002614D01*
X002954Y001803D01*
X003114Y001803D01*
X003114Y002614D01*
X003403Y002614D01*
X003926Y002092D01*
X003926Y001803D01*
X003114Y001803D01*
X003114Y001643D01*
X003114Y000832D01*
X003403Y000832D01*
X003926Y001354D01*
X003926Y001643D01*
X003114Y001643D01*
X002954Y001643D01*
X002954Y000832D01*
X002665Y000832D01*
X002954Y000935D02*
X003114Y000935D01*
X003114Y001094D02*
X002954Y001094D01*
X002954Y001252D02*
X003114Y001252D01*
X003114Y001411D02*
X002954Y001411D01*
X002954Y001569D02*
X003114Y001569D01*
X003114Y001728D02*
X004704Y001728D01*
X004731Y001700D02*
X005129Y001700D01*
X005410Y001981D01*
X005410Y002379D01*
X005129Y002660D01*
X004731Y002660D01*
X004450Y002379D01*
X004450Y001981D01*
X004731Y001700D01*
X004545Y001886D02*
X003926Y001886D01*
X003926Y002045D02*
X004450Y002045D01*
X004450Y002203D02*
X003815Y002203D01*
X003656Y002362D02*
X004450Y002362D01*
X004591Y002520D02*
X003498Y002520D01*
X003114Y002520D02*
X002954Y002520D01*
X002954Y002362D02*
X003114Y002362D01*
X003114Y002203D02*
X002954Y002203D01*
X002954Y002045D02*
X003114Y002045D01*
X003114Y001886D02*
X002954Y001886D01*
X002954Y001728D02*
X001571Y001728D01*
X001730Y001886D02*
X002143Y001886D01*
X002143Y002045D02*
X001888Y002045D01*
X002047Y002203D02*
X002254Y002203D01*
X002095Y002362D02*
X002412Y002362D01*
X002571Y002520D02*
X002095Y002520D01*
X002095Y002679D02*
X005554Y002679D01*
X005396Y002837D02*
X002095Y002837D01*
X002095Y002996D02*
X005237Y002996D01*
X005079Y003154D02*
X001947Y003154D01*
X001789Y003313D02*
X005037Y003313D01*
X005037Y003471D02*
X001630Y003471D01*
X000738Y003471D02*
X000380Y003471D01*
X000380Y003313D02*
X000579Y003313D01*
X000421Y003154D02*
X000380Y003154D01*
X000380Y003630D02*
X005037Y003630D01*
X005037Y003788D02*
X000380Y003788D01*
X000380Y003947D02*
X005037Y003947D01*
X005190Y004105D02*
X003555Y004105D01*
X003451Y004001D02*
X003985Y004535D01*
X003985Y005290D01*
X003825Y005450D01*
X004129Y005450D01*
X004410Y005731D01*
X004410Y006129D01*
X004129Y006410D01*
X003731Y006410D01*
X003450Y006129D01*
X003450Y005823D01*
X002696Y005823D01*
X002163Y005290D01*
X002163Y004535D01*
X002696Y004001D01*
X003451Y004001D01*
X003714Y004264D02*
X005349Y004264D01*
X005507Y004422D02*
X003872Y004422D01*
X003985Y004581D02*
X006170Y004581D01*
X006170Y004739D02*
X005168Y004739D01*
X005129Y004700D02*
X005410Y004981D01*
X005410Y005379D01*
X005129Y005660D01*
X004731Y005660D01*
X004450Y005379D01*
X004450Y004981D01*
X004731Y004700D01*
X005129Y004700D01*
X005326Y004898D02*
X006170Y004898D01*
X006170Y005056D02*
X005410Y005056D01*
X005410Y005215D02*
X006170Y005215D01*
X006170Y005373D02*
X005410Y005373D01*
X005257Y005532D02*
X006170Y005532D01*
X006170Y005690D02*
X004369Y005690D01*
X004410Y005849D02*
X004833Y005849D01*
X004773Y005908D02*
X004908Y005773D01*
X005085Y005700D01*
X005275Y005700D01*
X005452Y005773D01*
X005587Y005908D01*
X005660Y006085D01*
X005660Y006275D01*
X005587Y006452D01*
X005452Y006587D01*
X005275Y006660D01*
X005085Y006660D01*
X004908Y006587D01*
X004773Y006452D01*
X004700Y006275D01*
X004700Y006085D01*
X004773Y005908D01*
X004732Y006007D02*
X004410Y006007D01*
X004373Y006166D02*
X004700Y006166D01*
X004720Y006324D02*
X004215Y006324D01*
X003645Y006324D02*
X001465Y006324D01*
X001379Y006410D02*
X000981Y006410D01*
X000700Y006129D01*
X000700Y005731D01*
X000981Y005450D01*
X001379Y005450D01*
X001660Y005731D01*
X001660Y006129D01*
X001379Y006410D01*
X001623Y006166D02*
X003487Y006166D01*
X003450Y006007D02*
X001660Y006007D01*
X001660Y005849D02*
X003450Y005849D01*
X003902Y005373D02*
X004450Y005373D01*
X004450Y005215D02*
X003985Y005215D01*
X003985Y005056D02*
X004450Y005056D01*
X004534Y004898D02*
X003985Y004898D01*
X003985Y004739D02*
X004692Y004739D01*
X004603Y005532D02*
X004210Y005532D01*
X005527Y005849D02*
X006170Y005849D01*
X006170Y006007D02*
X005628Y006007D01*
X005660Y006166D02*
X006170Y006166D01*
X006170Y006324D02*
X005640Y006324D01*
X005556Y006483D02*
X006170Y006483D01*
X006170Y006641D02*
X005321Y006641D01*
X005275Y006700D02*
X005452Y006773D01*
X005587Y006908D01*
X005660Y007085D01*
X005660Y007275D01*
X006170Y007275D01*
X006170Y007117D02*
X005660Y007117D01*
X005660Y007275D02*
X005587Y007452D01*
X005452Y007587D01*
X005275Y007660D01*
X005085Y007660D01*
X004908Y007587D01*
X004773Y007452D01*
X004700Y007275D01*
X003660Y007275D01*
X003660Y007379D02*
X003379Y007660D01*
X002981Y007660D01*
X002700Y007379D01*
X002700Y006981D01*
X002981Y006700D01*
X003379Y006700D01*
X003660Y006981D01*
X003660Y007379D01*
X003605Y007434D02*
X004765Y007434D01*
X004700Y007275D02*
X004700Y007085D01*
X004773Y006908D01*
X004908Y006773D01*
X005085Y006700D01*
X005275Y006700D01*
X005478Y006800D02*
X006170Y006800D01*
X006170Y006958D02*
X005608Y006958D01*
X005039Y006641D02*
X000380Y006641D01*
X000380Y006483D02*
X004804Y006483D01*
X004882Y006800D02*
X003478Y006800D01*
X003637Y006958D02*
X004752Y006958D01*
X004700Y007117D02*
X003660Y007117D01*
X002882Y006800D02*
X002478Y006800D01*
X002379Y006700D02*
X002660Y006981D01*
X002660Y007379D01*
X002379Y007660D01*
X001981Y007660D01*
X001700Y007379D01*
X001700Y006981D01*
X001981Y006700D01*
X002379Y006700D01*
X002637Y006958D02*
X002723Y006958D01*
X002700Y007117D02*
X002660Y007117D01*
X002660Y007275D02*
X002700Y007275D01*
X002755Y007434D02*
X002605Y007434D01*
X002447Y007592D02*
X002913Y007592D01*
X003447Y007592D02*
X004920Y007592D01*
X005003Y007754D02*
X005072Y007731D01*
X005144Y007720D01*
X005180Y007720D01*
X005216Y007720D01*
X005288Y007731D01*
X005357Y007754D01*
X005421Y007787D01*
X005480Y007829D01*
X005531Y007880D01*
X005573Y007939D01*
X005606Y008003D01*
X005629Y008072D01*
X005640Y008144D01*
X005640Y008180D01*
X005640Y008216D01*
X005629Y008288D01*
X005606Y008357D01*
X005573Y008421D01*
X005531Y008480D01*
X005480Y008531D01*
X005421Y008573D01*
X005357Y008606D01*
X005288Y008629D01*
X005216Y008640D01*
X005180Y008640D01*
X005180Y008180D01*
X005640Y008180D01*
X005180Y008180D01*
X005180Y008180D01*
X005180Y008180D01*
X005180Y007720D01*
X005180Y008180D01*
X005180Y008180D01*
X005180Y008180D01*
X004720Y008180D01*
X004720Y008216D01*
X004731Y008288D01*
X004754Y008357D01*
X004787Y008421D01*
X004829Y008480D01*
X004880Y008531D01*
X004939Y008573D01*
X005003Y008606D01*
X005072Y008629D01*
X005144Y008640D01*
X005180Y008640D01*
X005180Y008180D01*
X004720Y008180D01*
X004720Y008144D01*
X004731Y008072D01*
X004754Y008003D01*
X004787Y007939D01*
X004829Y007880D01*
X004880Y007829D01*
X004939Y007787D01*
X005003Y007754D01*
X005013Y007751D02*
X000380Y007751D01*
X000380Y007909D02*
X004808Y007909D01*
X004733Y008068D02*
X000380Y008068D01*
X000380Y008226D02*
X004722Y008226D01*
X004768Y008385D02*
X000380Y008385D01*
X000380Y008543D02*
X000916Y008543D01*
X000989Y008470D02*
X000720Y008739D01*
X000720Y008930D01*
X001180Y008930D01*
X001180Y008930D01*
X001180Y009390D01*
X001371Y009390D01*
X001640Y009121D01*
X001640Y008930D01*
X001180Y008930D01*
X001180Y008930D01*
X001180Y008930D01*
X001180Y009390D01*
X000989Y009390D01*
X000720Y009121D01*
X000720Y008930D01*
X001180Y008930D01*
X001640Y008930D01*
X001640Y008739D01*
X001371Y008470D01*
X001180Y008470D01*
X001180Y008930D01*
X001180Y008930D01*
X001180Y008470D01*
X000989Y008470D01*
X001180Y008543D02*
X001180Y008543D01*
X001180Y008702D02*
X001180Y008702D01*
X001180Y008860D02*
X001180Y008860D01*
X001180Y009019D02*
X001180Y009019D01*
X001180Y009177D02*
X001180Y009177D01*
X001180Y009336D02*
X001180Y009336D01*
X001425Y009336D02*
X003685Y009336D01*
X003739Y009390D02*
X003470Y009121D01*
X003470Y008930D01*
X003930Y008930D01*
X003930Y008930D01*
X003930Y009390D01*
X004121Y009390D01*
X004390Y009121D01*
X004390Y008930D01*
X003930Y008930D01*
X003930Y008930D01*
X003930Y008930D01*
X003930Y009390D01*
X003739Y009390D01*
X003930Y009336D02*
X003930Y009336D01*
X003930Y009177D02*
X003930Y009177D01*
X003930Y009019D02*
X003930Y009019D01*
X003930Y008930D02*
X003470Y008930D01*
X003470Y008739D01*
X003739Y008470D01*
X003930Y008470D01*
X004121Y008470D01*
X004390Y008739D01*
X004390Y008930D01*
X003930Y008930D01*
X003930Y008470D01*
X003930Y008930D01*
X003930Y008930D01*
X003930Y008860D02*
X003930Y008860D01*
X003930Y008702D02*
X003930Y008702D01*
X003930Y008543D02*
X003930Y008543D01*
X004194Y008543D02*
X004897Y008543D01*
X004876Y008675D02*
X005100Y008675D01*
X005100Y009328D01*
X004446Y009328D01*
X004446Y009104D01*
X004876Y008675D01*
X004849Y008702D02*
X004352Y008702D01*
X004390Y008860D02*
X004691Y008860D01*
X004532Y009019D02*
X004390Y009019D01*
X004334Y009177D02*
X004446Y009177D01*
X004175Y009336D02*
X005100Y009336D01*
X005100Y009494D02*
X005260Y009494D01*
X005260Y009336D02*
X006170Y009336D01*
X006170Y009494D02*
X005914Y009494D01*
X005914Y009653D02*
X006170Y009653D01*
X006203Y009811D02*
X005815Y009811D01*
X005656Y009970D02*
X006352Y009970D01*
X006510Y010128D02*
X005498Y010128D01*
X005260Y010128D02*
X005100Y010128D01*
X005100Y009970D02*
X005260Y009970D01*
X005260Y009811D02*
X005100Y009811D01*
X005100Y009653D02*
X005260Y009653D01*
X004446Y009494D02*
X000380Y009494D01*
X000380Y009336D02*
X000935Y009336D01*
X000776Y009177D02*
X000380Y009177D01*
X000380Y009019D02*
X000720Y009019D01*
X000720Y008860D02*
X000380Y008860D01*
X000380Y008702D02*
X000758Y008702D01*
X001444Y008543D02*
X003666Y008543D01*
X003508Y008702D02*
X001602Y008702D01*
X001640Y008860D02*
X003470Y008860D01*
X003470Y009019D02*
X001640Y009019D01*
X001584Y009177D02*
X003526Y009177D01*
X005100Y009177D02*
X005260Y009177D01*
X005260Y009019D02*
X005100Y009019D01*
X005100Y008860D02*
X005260Y008860D01*
X005260Y008702D02*
X005100Y008702D01*
X005180Y008543D02*
X005180Y008543D01*
X005180Y008385D02*
X005180Y008385D01*
X005180Y008226D02*
X005180Y008226D01*
X005180Y008068D02*
X005180Y008068D01*
X005180Y007909D02*
X005180Y007909D01*
X005180Y007751D02*
X005180Y007751D01*
X005347Y007751D02*
X006170Y007751D01*
X006170Y007909D02*
X005552Y007909D01*
X005627Y008068D02*
X006170Y008068D01*
X006170Y008226D02*
X005638Y008226D01*
X005592Y008385D02*
X006170Y008385D01*
X006170Y008543D02*
X005463Y008543D01*
X005511Y008702D02*
X006170Y008702D01*
X006170Y008860D02*
X005669Y008860D01*
X005828Y009019D02*
X006170Y009019D01*
X006170Y009177D02*
X005914Y009177D01*
X006690Y009336D02*
X007920Y009336D01*
X007920Y009494D02*
X006690Y009494D01*
X006770Y009653D02*
X007920Y009653D01*
X007870Y009811D02*
X006929Y009811D01*
X007087Y009970D02*
X007712Y009970D01*
X007700Y010128D02*
X007246Y010128D01*
X007404Y010287D02*
X007700Y010287D01*
X007766Y010445D02*
X007563Y010445D01*
X009189Y011396D02*
X002766Y011396D01*
X002673Y011555D02*
X009282Y011555D01*
X009396Y011713D02*
X002559Y011713D01*
X002707Y011872D02*
X009248Y011872D01*
X009182Y012030D02*
X002772Y012030D01*
X002787Y012189D02*
X009167Y012189D01*
X009198Y012347D02*
X005613Y012347D01*
X005484Y012218D02*
X005914Y012648D01*
X005914Y012872D01*
X005260Y012872D01*
X005260Y012218D01*
X005484Y012218D01*
X005260Y012347D02*
X005100Y012347D01*
X005100Y012506D02*
X005260Y012506D01*
X005260Y012664D02*
X005100Y012664D01*
X005100Y012823D02*
X005260Y012823D01*
X005914Y012823D02*
X007859Y012823D01*
X008501Y012823D02*
X011946Y012823D01*
X011946Y012664D02*
X009980Y012664D01*
X009942Y012683D02*
X010021Y012643D01*
X010092Y012591D01*
X010154Y012529D01*
X010206Y012458D01*
X010246Y012379D01*
X010273Y012295D01*
X010287Y012208D01*
X010287Y012183D01*
X009746Y012183D01*
X009746Y012724D01*
X009771Y012724D01*
X009858Y012710D01*
X009942Y012683D01*
X009746Y012664D02*
X009709Y012664D01*
X009709Y012506D02*
X009746Y012506D01*
X009746Y012347D02*
X009709Y012347D01*
X009709Y012189D02*
X009746Y012189D01*
X010171Y012506D02*
X012089Y012506D01*
X012247Y012347D02*
X010257Y012347D01*
X010287Y012189D02*
X014920Y012189D01*
X014920Y012030D02*
X010272Y012030D01*
X010207Y011872D02*
X014920Y011872D01*
X014824Y011713D02*
X010059Y011713D01*
X010173Y011555D02*
X014802Y011555D01*
X014802Y011396D02*
X010266Y011396D01*
X010307Y011238D02*
X014802Y011238D01*
X014892Y011079D02*
X010307Y011079D01*
X009283Y012506D02*
X005771Y012506D01*
X005914Y012664D02*
X009475Y012664D01*
X007936Y013615D02*
X007806Y013615D01*
X008080Y013774D02*
X016821Y013774D01*
X016979Y013932D02*
X016238Y013932D01*
X016397Y014091D02*
X017138Y014091D01*
X017296Y014249D02*
X016500Y014249D01*
X016500Y014408D02*
X017455Y014408D01*
X017613Y014566D02*
X016500Y014566D01*
X016442Y014725D02*
X017772Y014725D01*
X017930Y014883D02*
X017349Y014883D01*
X017598Y015042D02*
X018089Y015042D01*
X018247Y015200D02*
X017702Y015200D01*
X017750Y015359D02*
X018406Y015359D01*
X018564Y015517D02*
X017750Y015517D01*
X017695Y015676D02*
X018665Y015676D01*
X018778Y015834D02*
X017582Y015834D01*
X016778Y015834D02*
X016332Y015834D01*
X016491Y015676D02*
X016665Y015676D01*
X016610Y015517D02*
X016500Y015517D01*
X016500Y015359D02*
X016610Y015359D01*
X016658Y015200D02*
X016500Y015200D01*
X016348Y015042D02*
X016762Y015042D01*
X017011Y014883D02*
X016283Y014883D01*
X015463Y014091D02*
X015397Y014091D01*
X015238Y013932D02*
X015622Y013932D01*
X014622Y013932D02*
X014238Y013932D01*
X014397Y014091D02*
X014463Y014091D01*
X013622Y013932D02*
X013238Y013932D01*
X013397Y014091D02*
X013463Y014091D01*
X012622Y013932D02*
X012210Y013932D01*
X012368Y014091D02*
X012463Y014091D01*
X011950Y014091D02*
X011910Y014091D01*
X011910Y014249D02*
X011950Y014249D01*
X011950Y014408D02*
X011910Y014408D01*
X011910Y014566D02*
X011950Y014566D01*
X011950Y014725D02*
X011910Y014725D01*
X011910Y014883D02*
X011950Y014883D01*
X011950Y015042D02*
X011910Y015042D01*
X011910Y015200D02*
X011950Y015200D01*
X011950Y015359D02*
X011910Y015359D01*
X010950Y015359D02*
X010910Y015359D01*
X010910Y015200D02*
X010950Y015200D01*
X010950Y015042D02*
X010910Y015042D01*
X010910Y014883D02*
X010950Y014883D01*
X010950Y014725D02*
X010910Y014725D01*
X010910Y014566D02*
X010950Y014566D01*
X010950Y014408D02*
X010910Y014408D01*
X010910Y014249D02*
X010950Y014249D01*
X010950Y014091D02*
X010910Y014091D01*
X010910Y013932D02*
X010950Y013932D01*
X011210Y013932D02*
X011650Y013932D01*
X011492Y014091D02*
X011368Y014091D01*
X011910Y013932D02*
X011950Y013932D01*
X010650Y013932D02*
X010210Y013932D01*
X010368Y014091D02*
X010492Y014091D01*
X009950Y014091D02*
X009910Y014091D01*
X009910Y014249D02*
X009950Y014249D01*
X009950Y014408D02*
X009910Y014408D01*
X009910Y014566D02*
X009950Y014566D01*
X009950Y014725D02*
X009910Y014725D01*
X009910Y014883D02*
X009950Y014883D01*
X009950Y015042D02*
X009910Y015042D01*
X009910Y015200D02*
X009950Y015200D01*
X009950Y015359D02*
X009910Y015359D01*
X009492Y014091D02*
X009397Y014091D01*
X009238Y013932D02*
X009650Y013932D01*
X009910Y013932D02*
X009950Y013932D01*
X005505Y014725D02*
X004907Y014725D01*
X004901Y014883D02*
X005511Y014883D01*
X005262Y015042D02*
X005126Y015042D01*
X004459Y014883D02*
X000841Y014883D01*
X000698Y014883D02*
X000662Y014883D01*
X000519Y014883D02*
X000380Y014883D01*
X000380Y014725D02*
X000511Y014725D01*
X000662Y014725D02*
X000698Y014725D01*
X000849Y014725D02*
X004453Y014725D01*
X004232Y014566D02*
X001100Y014566D01*
X001204Y014408D02*
X004136Y014408D01*
X004090Y014249D02*
X001246Y014249D01*
X001243Y014091D02*
X004090Y014091D01*
X004144Y013932D02*
X001193Y013932D01*
X001080Y013774D02*
X004252Y013774D01*
X004502Y013615D02*
X000757Y013615D01*
X000698Y013615D02*
X000662Y013615D01*
X000603Y013615D02*
X000380Y013615D01*
X000380Y013457D02*
X004647Y013457D01*
X004489Y013298D02*
X000380Y013298D01*
X000380Y013140D02*
X004446Y013140D01*
X004589Y012506D02*
X002671Y012506D01*
X002757Y012347D02*
X004747Y012347D01*
X002246Y012347D02*
X002209Y012347D01*
X002209Y012189D02*
X002246Y012189D01*
X002246Y012506D02*
X002209Y012506D01*
X000698Y013774D02*
X000662Y013774D01*
X000662Y013932D02*
X000698Y013932D01*
X000698Y014091D02*
X000662Y014091D01*
X000662Y014249D02*
X000698Y014249D01*
X000698Y014408D02*
X000662Y014408D01*
X000662Y014566D02*
X000698Y014566D01*
X000698Y015042D02*
X000662Y015042D01*
X000662Y015200D02*
X000698Y015200D01*
X000698Y015359D02*
X000662Y015359D01*
X001098Y015042D02*
X004234Y015042D01*
X004137Y015200D02*
X001203Y015200D01*
X001246Y015359D02*
X004090Y015359D01*
X004090Y015517D02*
X001243Y015517D01*
X001195Y015676D02*
X004143Y015676D01*
X004250Y015834D02*
X001082Y015834D01*
X005128Y014566D02*
X005260Y014566D01*
X016775Y012823D02*
X019446Y012823D01*
X019446Y012872D02*
X019446Y012648D01*
X019876Y012218D01*
X020100Y012218D01*
X020100Y012872D01*
X019446Y012872D01*
X019446Y013032D02*
X020100Y013032D01*
X020100Y013685D01*
X019876Y013685D01*
X019446Y013256D01*
X019446Y013032D01*
X019446Y013140D02*
X017092Y013140D01*
X017251Y013298D02*
X019489Y013298D01*
X019647Y013457D02*
X017409Y013457D01*
X017568Y013615D02*
X019806Y013615D01*
X020100Y013615D02*
X020260Y013615D01*
X020260Y013685D02*
X020260Y013032D01*
X020100Y013032D01*
X020100Y012872D01*
X020260Y012872D01*
X020260Y013032D01*
X020914Y013032D01*
X020914Y013256D01*
X020484Y013685D01*
X020260Y013685D01*
X020260Y013457D02*
X020100Y013457D01*
X020100Y013298D02*
X020260Y013298D01*
X020260Y013140D02*
X020100Y013140D01*
X020100Y012981D02*
X016934Y012981D01*
X016975Y012664D02*
X016750Y012664D01*
X016750Y012506D02*
X016783Y012506D01*
X017209Y012506D02*
X017246Y012506D01*
X017246Y012664D02*
X017209Y012664D01*
X017480Y012664D02*
X019446Y012664D01*
X019589Y012506D02*
X017671Y012506D01*
X017757Y012347D02*
X019747Y012347D01*
X020100Y012347D02*
X020260Y012347D01*
X020260Y012218D02*
X020484Y012218D01*
X020914Y012648D01*
X020914Y012872D01*
X020260Y012872D01*
X020260Y012218D01*
X020260Y012506D02*
X020100Y012506D01*
X020100Y012664D02*
X020260Y012664D01*
X020260Y012823D02*
X020100Y012823D01*
X020260Y012981D02*
X022802Y012981D01*
X022700Y012823D02*
X020914Y012823D01*
X020914Y012664D02*
X022700Y012664D01*
X022700Y012506D02*
X020771Y012506D01*
X020613Y012347D02*
X022834Y012347D01*
X023526Y012347D02*
X024198Y012347D01*
X024167Y012189D02*
X017787Y012189D01*
X017772Y012030D02*
X024182Y012030D01*
X024248Y011872D02*
X017707Y011872D01*
X017559Y011713D02*
X024396Y011713D01*
X024282Y011555D02*
X017673Y011555D01*
X017766Y011396D02*
X024189Y011396D01*
X024147Y011238D02*
X017807Y011238D01*
X017807Y011079D02*
X024147Y011079D01*
X024207Y010921D02*
X018308Y010921D01*
X018308Y010762D02*
X024325Y010762D01*
X024315Y010604D02*
X018308Y010604D01*
X018308Y010445D02*
X024203Y010445D01*
X024283Y012506D02*
X023660Y012506D01*
X023660Y012664D02*
X024475Y012664D01*
X023399Y013140D02*
X026946Y013140D01*
X026989Y013298D02*
X020871Y013298D01*
X020914Y013140D02*
X022961Y013140D01*
X023950Y013731D02*
X024231Y013450D01*
X024629Y013450D01*
X024910Y013731D01*
X024910Y014129D01*
X024629Y014410D01*
X024231Y014410D01*
X023950Y014129D01*
X023950Y013731D01*
X023950Y013774D02*
X021910Y013774D01*
X021910Y013731D02*
X021629Y013450D01*
X021231Y013450D01*
X020950Y013731D01*
X020950Y014129D01*
X021231Y014410D01*
X021629Y014410D01*
X021910Y014129D01*
X021910Y013731D01*
X021794Y013615D02*
X024066Y013615D01*
X024225Y013457D02*
X021635Y013457D01*
X021225Y013457D02*
X020713Y013457D01*
X020554Y013615D02*
X021066Y013615D01*
X020950Y013774D02*
X017726Y013774D01*
X017885Y013932D02*
X020950Y013932D01*
X020950Y014091D02*
X018043Y014091D01*
X018202Y014249D02*
X021070Y014249D01*
X021229Y014408D02*
X018360Y014408D01*
X018519Y014566D02*
X025170Y014566D01*
X025170Y014408D02*
X024631Y014408D01*
X024790Y014249D02*
X025070Y014249D01*
X024950Y014091D02*
X024910Y014091D01*
X024910Y013932D02*
X024950Y013932D01*
X024950Y013774D02*
X024910Y013774D01*
X024794Y013615D02*
X025066Y013615D01*
X025225Y013457D02*
X024635Y013457D01*
X023950Y013932D02*
X021910Y013932D01*
X021910Y014091D02*
X023950Y014091D01*
X024070Y014249D02*
X021790Y014249D01*
X021631Y014408D02*
X024229Y014408D01*
X024269Y014883D02*
X020651Y014883D01*
X020876Y015042D02*
X024012Y015042D01*
X023907Y015200D02*
X020973Y015200D01*
X021020Y015359D02*
X023864Y015359D01*
X023867Y015517D02*
X021020Y015517D01*
X020967Y015676D02*
X023915Y015676D01*
X024028Y015834D02*
X020860Y015834D01*
X020000Y015834D02*
X019582Y015834D01*
X019695Y015676D02*
X019893Y015676D01*
X019840Y015517D02*
X019750Y015517D01*
X019750Y015359D02*
X019840Y015359D01*
X019887Y015200D02*
X019702Y015200D01*
X019598Y015042D02*
X019984Y015042D01*
X020209Y014883D02*
X019349Y014883D01*
X019011Y014883D02*
X018836Y014883D01*
X018677Y014725D02*
X025170Y014725D01*
X025170Y014883D02*
X024591Y014883D01*
X024448Y014883D02*
X024412Y014883D01*
X024412Y015042D02*
X024448Y015042D01*
X024448Y015200D02*
X024412Y015200D01*
X024412Y015359D02*
X024448Y015359D01*
X024953Y015200D02*
X024981Y015200D01*
X024848Y015042D02*
X025140Y015042D01*
X025794Y013615D02*
X027306Y013615D01*
X027147Y013457D02*
X025635Y013457D01*
X027600Y013457D02*
X027760Y013457D01*
X027760Y013615D02*
X027600Y013615D01*
X027600Y013298D02*
X027760Y013298D01*
X027760Y013140D02*
X027600Y013140D01*
X027600Y012664D02*
X027760Y012664D01*
X027760Y012506D02*
X027600Y012506D01*
X027600Y012347D02*
X027760Y012347D01*
X028113Y012347D02*
X031698Y012347D01*
X031783Y012506D02*
X028271Y012506D01*
X032209Y012506D02*
X032246Y012506D01*
X032246Y012347D02*
X032209Y012347D01*
X032209Y012189D02*
X032246Y012189D01*
X036320Y014408D02*
X036452Y014408D01*
X036238Y014566D02*
X036162Y014566D01*
X036058Y015359D02*
X036302Y015359D01*
X035302Y015359D02*
X035058Y015359D01*
X034302Y015359D02*
X034058Y015359D01*
X017246Y012347D02*
X017209Y012347D01*
X017209Y012189D02*
X017246Y012189D01*
X015970Y008226D02*
X015929Y008226D01*
X015910Y008068D02*
X015970Y008068D01*
X016050Y007909D02*
X015838Y007909D01*
X015103Y005532D02*
X014757Y005532D01*
X014910Y005373D02*
X014950Y005373D01*
X014950Y005215D02*
X014910Y005215D01*
X014922Y005056D02*
X014950Y005056D01*
X014192Y004739D02*
X013668Y004739D01*
X013629Y004700D02*
X013910Y004981D01*
X013910Y005379D01*
X013629Y005660D01*
X013231Y005660D01*
X012950Y005379D01*
X012950Y004981D01*
X013231Y004700D01*
X013629Y004700D01*
X013826Y004898D02*
X014034Y004898D01*
X013950Y005056D02*
X013910Y005056D01*
X013910Y005215D02*
X013950Y005215D01*
X013950Y005373D02*
X013910Y005373D01*
X013757Y005532D02*
X014103Y005532D01*
X013103Y005532D02*
X012757Y005532D01*
X012629Y005660D02*
X012910Y005379D01*
X012910Y004981D01*
X012629Y004700D01*
X012231Y004700D01*
X011950Y004981D01*
X011950Y005379D01*
X012231Y005660D01*
X012629Y005660D01*
X012910Y005373D02*
X012950Y005373D01*
X012950Y005215D02*
X012910Y005215D01*
X012910Y005056D02*
X012950Y005056D01*
X013034Y004898D02*
X012826Y004898D01*
X012668Y004739D02*
X013192Y004739D01*
X013764Y004422D02*
X011388Y004422D01*
X011547Y004264D02*
X013606Y004264D01*
X013447Y004105D02*
X011705Y004105D01*
X011859Y003947D02*
X013289Y003947D01*
X013246Y003903D02*
X013246Y003614D01*
X014057Y003614D01*
X014057Y003454D01*
X014217Y003454D01*
X014217Y003614D01*
X015028Y003614D01*
X015028Y003903D01*
X014506Y004426D01*
X014217Y004426D01*
X014217Y003614D01*
X014057Y003614D01*
X014057Y004426D01*
X013768Y004426D01*
X013246Y003903D01*
X013246Y003788D02*
X011859Y003788D01*
X011859Y003630D02*
X013246Y003630D01*
X013246Y003454D02*
X013246Y003165D01*
X013768Y002643D01*
X014057Y002643D01*
X014057Y003454D01*
X013246Y003454D01*
X013246Y003313D02*
X011859Y003313D01*
X011859Y003471D02*
X014057Y003471D01*
X014057Y003313D02*
X014217Y003313D01*
X014217Y003454D02*
X014217Y002643D01*
X014506Y002643D01*
X015028Y003165D01*
X015028Y003454D01*
X014217Y003454D01*
X014217Y003471D02*
X015037Y003471D01*
X015028Y003313D02*
X015037Y003313D01*
X015017Y003154D02*
X015079Y003154D01*
X015237Y002996D02*
X014858Y002996D01*
X014700Y002837D02*
X015396Y002837D01*
X015554Y002679D02*
X014541Y002679D01*
X014217Y002679D02*
X014057Y002679D01*
X014057Y002837D02*
X014217Y002837D01*
X014217Y002996D02*
X014057Y002996D01*
X014057Y003154D02*
X014217Y003154D01*
X014217Y003630D02*
X014057Y003630D01*
X014057Y003788D02*
X014217Y003788D01*
X014217Y003947D02*
X014057Y003947D01*
X014057Y004105D02*
X014217Y004105D01*
X014217Y004264D02*
X014057Y004264D01*
X014057Y004422D02*
X014217Y004422D01*
X014509Y004422D02*
X014873Y004422D01*
X014668Y004264D02*
X015349Y004264D01*
X015190Y004105D02*
X014826Y004105D01*
X014985Y003947D02*
X015037Y003947D01*
X015028Y003788D02*
X015037Y003788D01*
X015028Y003630D02*
X015037Y003630D01*
X016547Y004264D02*
X018606Y004264D01*
X018764Y004422D02*
X018058Y004422D01*
X018447Y004105D02*
X016705Y004105D01*
X016859Y003947D02*
X018289Y003947D01*
X018246Y003788D02*
X016859Y003788D01*
X016859Y003630D02*
X018246Y003630D01*
X019057Y003313D02*
X019217Y003313D01*
X019217Y003454D02*
X019217Y002643D01*
X019506Y002643D01*
X020028Y003165D01*
X020028Y003454D01*
X019217Y003454D01*
X019217Y003471D02*
X020037Y003471D01*
X020028Y003313D02*
X020037Y003313D01*
X020017Y003154D02*
X020079Y003154D01*
X020237Y002996D02*
X019858Y002996D01*
X019700Y002837D02*
X020396Y002837D01*
X020554Y002679D02*
X019541Y002679D01*
X019217Y002679D02*
X019057Y002679D01*
X019057Y002837D02*
X019217Y002837D01*
X019217Y002996D02*
X019057Y002996D01*
X019057Y003154D02*
X019217Y003154D01*
X020028Y003630D02*
X020037Y003630D01*
X020028Y003788D02*
X020037Y003788D01*
X020037Y003947D02*
X019985Y003947D01*
X019826Y004105D02*
X020190Y004105D01*
X020349Y004264D02*
X019668Y004264D01*
X019509Y004422D02*
X020507Y004422D01*
X020168Y004739D02*
X021049Y004739D01*
X021072Y004731D02*
X021144Y004720D01*
X021180Y004720D01*
X021216Y004720D01*
X021288Y004731D01*
X021357Y004754D01*
X021421Y004787D01*
X021480Y004829D01*
X021531Y004880D01*
X021573Y004939D01*
X021606Y005003D01*
X021629Y005072D01*
X021640Y005144D01*
X021640Y005180D01*
X021640Y005216D01*
X021629Y005288D01*
X021606Y005357D01*
X021573Y005421D01*
X021531Y005480D01*
X021480Y005531D01*
X021421Y005573D01*
X021357Y005606D01*
X021288Y005629D01*
X021216Y005640D01*
X021180Y005640D01*
X021180Y005180D01*
X021180Y005180D01*
X021640Y005180D01*
X021180Y005180D01*
X021180Y005180D01*
X021180Y005180D01*
X020720Y005180D01*
X020720Y005216D01*
X020731Y005288D01*
X020754Y005357D01*
X020787Y005421D01*
X020829Y005480D01*
X020880Y005531D01*
X020939Y005573D01*
X021003Y005606D01*
X021072Y005629D01*
X021144Y005640D01*
X021180Y005640D01*
X021180Y005180D01*
X021180Y004720D01*
X021180Y005180D01*
X021180Y005180D01*
X020720Y005180D01*
X020720Y005144D01*
X020731Y005072D01*
X020754Y005003D01*
X020787Y004939D01*
X020829Y004880D01*
X020880Y004829D01*
X020939Y004787D01*
X021003Y004754D01*
X021072Y004731D01*
X021180Y004739D02*
X021180Y004739D01*
X021311Y004739D02*
X021990Y004739D01*
X021784Y004898D02*
X021543Y004898D01*
X021623Y005056D02*
X021712Y005056D01*
X021700Y005215D02*
X021640Y005215D01*
X021598Y005373D02*
X021740Y005373D01*
X021853Y005532D02*
X021479Y005532D01*
X021180Y005532D02*
X021180Y005532D01*
X021180Y005373D02*
X021180Y005373D01*
X021180Y005215D02*
X021180Y005215D01*
X021180Y005056D02*
X021180Y005056D01*
X021180Y004898D02*
X021180Y004898D01*
X020817Y004898D02*
X020326Y004898D01*
X020410Y005056D02*
X020737Y005056D01*
X020720Y005215D02*
X020410Y005215D01*
X020410Y005373D02*
X020762Y005373D01*
X020881Y005532D02*
X020257Y005532D01*
X021388Y004422D02*
X023054Y004422D01*
X022896Y004264D02*
X021547Y004264D01*
X017779Y002520D02*
X013655Y002520D01*
X013600Y002575D02*
X013311Y002575D01*
X013311Y001764D01*
X013151Y001764D01*
X013151Y001604D01*
X012340Y001604D01*
X012340Y001315D01*
X012862Y000793D01*
X013151Y000793D01*
X013151Y001604D01*
X013311Y001604D01*
X013311Y000793D01*
X013600Y000793D01*
X014122Y001315D01*
X014122Y001604D01*
X013311Y001604D01*
X013311Y001764D01*
X014122Y001764D01*
X014122Y002053D01*
X013600Y002575D01*
X013732Y002679D02*
X011341Y002679D01*
X011500Y002837D02*
X013574Y002837D01*
X013415Y002996D02*
X011658Y002996D01*
X011817Y003154D02*
X013257Y003154D01*
X013151Y002575D02*
X012862Y002575D01*
X012340Y002053D01*
X012340Y001764D01*
X013151Y001764D01*
X013151Y002575D01*
X013151Y002520D02*
X013311Y002520D01*
X013311Y002362D02*
X013151Y002362D01*
X013151Y002203D02*
X013311Y002203D01*
X013311Y002045D02*
X013151Y002045D01*
X013151Y001886D02*
X013311Y001886D01*
X013311Y001728D02*
X017320Y001728D01*
X017320Y001886D02*
X014122Y001886D01*
X014122Y002045D02*
X017320Y002045D01*
X017462Y002203D02*
X013972Y002203D01*
X013814Y002362D02*
X017620Y002362D01*
X017320Y001569D02*
X014122Y001569D01*
X014122Y001411D02*
X017320Y001411D01*
X017375Y001252D02*
X014060Y001252D01*
X013901Y001094D02*
X017533Y001094D01*
X017692Y000935D02*
X013743Y000935D01*
X013311Y000935D02*
X013151Y000935D01*
X013151Y001094D02*
X013311Y001094D01*
X013311Y001252D02*
X013151Y001252D01*
X013151Y001411D02*
X013311Y001411D01*
X013311Y001569D02*
X013151Y001569D01*
X013151Y001728D02*
X008311Y001728D01*
X008311Y001764D02*
X009122Y001764D01*
X009122Y002053D01*
X008600Y002575D01*
X008311Y002575D01*
X008311Y001764D01*
X008151Y001764D01*
X008151Y001604D01*
X007340Y001604D01*
X007340Y001315D01*
X007862Y000793D01*
X008151Y000793D01*
X008151Y001604D01*
X008311Y001604D01*
X008311Y000793D01*
X008600Y000793D01*
X009122Y001315D01*
X009122Y001604D01*
X008311Y001604D01*
X008311Y001764D01*
X008311Y001886D02*
X008151Y001886D01*
X008151Y001764D02*
X008151Y002575D01*
X007862Y002575D01*
X007340Y002053D01*
X007340Y001764D01*
X008151Y001764D01*
X008151Y001728D02*
X005156Y001728D01*
X005315Y001886D02*
X007340Y001886D01*
X007340Y002045D02*
X005410Y002045D01*
X005410Y002203D02*
X007490Y002203D01*
X007648Y002362D02*
X005410Y002362D01*
X005269Y002520D02*
X007807Y002520D01*
X008151Y002520D02*
X008311Y002520D01*
X008311Y002362D02*
X008151Y002362D01*
X008151Y002203D02*
X008311Y002203D01*
X008311Y002045D02*
X008151Y002045D01*
X008655Y002520D02*
X012807Y002520D01*
X012648Y002362D02*
X008814Y002362D01*
X008972Y002203D02*
X012490Y002203D01*
X012340Y002045D02*
X009122Y002045D01*
X009122Y001886D02*
X012340Y001886D01*
X012340Y001569D02*
X009122Y001569D01*
X009122Y001411D02*
X012340Y001411D01*
X012403Y001252D02*
X009060Y001252D01*
X008901Y001094D02*
X012561Y001094D01*
X012720Y000935D02*
X008743Y000935D01*
X008311Y000935D02*
X008151Y000935D01*
X008151Y001094D02*
X008311Y001094D01*
X008311Y001252D02*
X008151Y001252D01*
X008151Y001411D02*
X008311Y001411D01*
X008311Y001569D02*
X008151Y001569D01*
X007340Y001569D02*
X003926Y001569D01*
X003926Y001411D02*
X007340Y001411D01*
X007403Y001252D02*
X003823Y001252D01*
X003665Y001094D02*
X007561Y001094D01*
X007720Y000935D02*
X003506Y000935D01*
X002404Y001094D02*
X000380Y001094D01*
X000380Y001252D02*
X002245Y001252D01*
X002143Y001411D02*
X000380Y001411D01*
X000380Y001569D02*
X002143Y001569D01*
X000797Y001728D02*
X000380Y001728D01*
X000380Y001886D02*
X000638Y001886D01*
X000480Y002045D02*
X000380Y002045D01*
X000380Y004105D02*
X002592Y004105D01*
X002434Y004264D02*
X000380Y004264D01*
X000380Y004422D02*
X002275Y004422D01*
X002163Y004581D02*
X000380Y004581D01*
X000380Y004739D02*
X002163Y004739D01*
X002163Y004898D02*
X000380Y004898D01*
X000380Y005056D02*
X002163Y005056D01*
X002163Y005215D02*
X000380Y005215D01*
X000380Y005373D02*
X002246Y005373D01*
X002404Y005532D02*
X001460Y005532D01*
X001619Y005690D02*
X002563Y005690D01*
X000900Y005532D02*
X000380Y005532D01*
X000380Y005690D02*
X000741Y005690D01*
X000700Y005849D02*
X000380Y005849D01*
X000380Y006007D02*
X000700Y006007D01*
X000737Y006166D02*
X000380Y006166D01*
X000380Y006324D02*
X000895Y006324D01*
X000380Y006800D02*
X001882Y006800D01*
X001723Y006958D02*
X000380Y006958D01*
X000380Y007117D02*
X001700Y007117D01*
X001700Y007275D02*
X000380Y007275D01*
X000380Y007434D02*
X001755Y007434D01*
X001913Y007592D02*
X000380Y007592D01*
X005440Y007592D02*
X006170Y007592D01*
X006170Y007434D02*
X005595Y007434D01*
X007535Y008385D02*
X007797Y008385D01*
X007700Y008543D02*
X007640Y008543D01*
X007640Y008702D02*
X007700Y008702D01*
X007700Y008860D02*
X007640Y008860D01*
X007379Y006160D02*
X006981Y006160D01*
X006700Y005879D01*
X006700Y005481D01*
X006981Y005200D01*
X007379Y005200D01*
X007660Y005481D01*
X007660Y005879D01*
X007379Y006160D01*
X007532Y006007D02*
X007828Y006007D01*
X007700Y005879D02*
X007700Y005481D01*
X007981Y005200D01*
X008379Y005200D01*
X008660Y005481D01*
X008660Y005879D01*
X008379Y006160D01*
X007981Y006160D01*
X007700Y005879D01*
X007700Y005849D02*
X007660Y005849D01*
X007660Y005690D02*
X007700Y005690D01*
X007700Y005532D02*
X007660Y005532D01*
X007552Y005373D02*
X007808Y005373D01*
X007967Y005215D02*
X007393Y005215D01*
X006967Y005215D02*
X006690Y005215D01*
X006690Y005373D02*
X006808Y005373D01*
X006700Y005532D02*
X006690Y005532D01*
X006690Y005690D02*
X006700Y005690D01*
X006690Y005849D02*
X006700Y005849D01*
X006690Y006007D02*
X006828Y006007D01*
X008532Y006007D02*
X009606Y006007D01*
X009630Y006031D02*
X009579Y005980D01*
X009537Y005921D01*
X009504Y005857D01*
X009481Y005788D01*
X009470Y005716D01*
X009470Y005680D01*
X009930Y005680D01*
X010390Y005680D01*
X010390Y005716D01*
X010379Y005788D01*
X010356Y005857D01*
X010323Y005921D01*
X010281Y005980D01*
X010230Y006031D01*
X010171Y006073D01*
X010107Y006106D01*
X010038Y006129D01*
X009966Y006140D01*
X009930Y006140D01*
X009930Y005680D01*
X009930Y005680D01*
X009930Y005680D01*
X010390Y005680D01*
X010390Y005644D01*
X010379Y005572D01*
X010356Y005503D01*
X010323Y005439D01*
X010281Y005380D01*
X010230Y005329D01*
X010171Y005287D01*
X010107Y005254D01*
X010038Y005231D01*
X009966Y005220D01*
X009930Y005220D01*
X009930Y005680D01*
X009930Y005680D01*
X009930Y005680D01*
X009930Y006140D01*
X009894Y006140D01*
X009822Y006129D01*
X009753Y006106D01*
X009689Y006073D01*
X009630Y006031D01*
X009501Y005849D02*
X008660Y005849D01*
X008660Y005690D02*
X009470Y005690D01*
X009470Y005680D02*
X009470Y005644D01*
X009481Y005572D01*
X009504Y005503D01*
X009537Y005439D01*
X009579Y005380D01*
X009630Y005329D01*
X009689Y005287D01*
X009753Y005254D01*
X009822Y005231D01*
X009894Y005220D01*
X009930Y005220D01*
X009930Y005680D01*
X009470Y005680D01*
X009495Y005532D02*
X008660Y005532D01*
X008552Y005373D02*
X009586Y005373D01*
X009930Y005373D02*
X009930Y005373D01*
X009930Y005532D02*
X009930Y005532D01*
X009930Y005690D02*
X009930Y005690D01*
X009930Y005849D02*
X009930Y005849D01*
X009930Y006007D02*
X009930Y006007D01*
X010254Y006007D02*
X010670Y006007D01*
X010670Y005849D02*
X010359Y005849D01*
X010390Y005690D02*
X010670Y005690D01*
X010670Y005532D02*
X010365Y005532D01*
X010274Y005373D02*
X010670Y005373D01*
X010670Y005215D02*
X008393Y005215D01*
X008768Y004426D02*
X008246Y003903D01*
X008246Y003614D01*
X009057Y003614D01*
X009057Y003454D01*
X009217Y003454D01*
X009217Y003614D01*
X010028Y003614D01*
X010028Y003903D01*
X009506Y004426D01*
X009217Y004426D01*
X009217Y003614D01*
X009057Y003614D01*
X009057Y004426D01*
X008768Y004426D01*
X008764Y004422D02*
X006690Y004422D01*
X006690Y004264D02*
X008606Y004264D01*
X008447Y004105D02*
X006705Y004105D01*
X006859Y003947D02*
X008289Y003947D01*
X008246Y003788D02*
X006859Y003788D01*
X006859Y003630D02*
X008246Y003630D01*
X008246Y003454D02*
X008246Y003165D01*
X008768Y002643D01*
X009057Y002643D01*
X009057Y003454D01*
X008246Y003454D01*
X008246Y003313D02*
X006859Y003313D01*
X006859Y003471D02*
X009057Y003471D01*
X009057Y003313D02*
X009217Y003313D01*
X009217Y003454D02*
X009217Y002643D01*
X009506Y002643D01*
X010028Y003165D01*
X010028Y003454D01*
X009217Y003454D01*
X009217Y003471D02*
X010037Y003471D01*
X010028Y003313D02*
X010037Y003313D01*
X010017Y003154D02*
X010079Y003154D01*
X010237Y002996D02*
X009858Y002996D01*
X009700Y002837D02*
X010396Y002837D01*
X010554Y002679D02*
X009541Y002679D01*
X009217Y002679D02*
X009057Y002679D01*
X009057Y002837D02*
X009217Y002837D01*
X009217Y002996D02*
X009057Y002996D01*
X009057Y003154D02*
X009217Y003154D01*
X009217Y003630D02*
X009057Y003630D01*
X009057Y003788D02*
X009217Y003788D01*
X009217Y003947D02*
X009057Y003947D01*
X009057Y004105D02*
X009217Y004105D01*
X009217Y004264D02*
X009057Y004264D01*
X009057Y004422D02*
X009217Y004422D01*
X009509Y004422D02*
X010507Y004422D01*
X010349Y004264D02*
X009668Y004264D01*
X009826Y004105D02*
X010190Y004105D01*
X010037Y003947D02*
X009985Y003947D01*
X010028Y003788D02*
X010037Y003788D01*
X010028Y003630D02*
X010037Y003630D01*
X008574Y002837D02*
X006500Y002837D01*
X006658Y002996D02*
X008415Y002996D01*
X008257Y003154D02*
X006817Y003154D01*
X006341Y002679D02*
X008732Y002679D01*
X010670Y004581D02*
X006690Y004581D01*
X006690Y004739D02*
X010670Y004739D01*
X010670Y004898D02*
X006690Y004898D01*
X006690Y005056D02*
X010670Y005056D01*
X011190Y004739D02*
X011192Y004739D01*
X011190Y004581D02*
X014662Y004581D01*
X012192Y004739D02*
X011668Y004739D01*
X011826Y004898D02*
X012034Y004898D01*
X011950Y005056D02*
X011910Y005056D01*
X011910Y005215D02*
X011950Y005215D01*
X011950Y005373D02*
X011910Y005373D01*
X011757Y005532D02*
X012103Y005532D01*
D25*
X015430Y008180D02*
X016430Y009180D01*
X016430Y012930D01*
X018930Y015430D01*
X019180Y015430D01*
X024727Y010196D02*
X024727Y005727D01*
X024180Y005180D01*
X031930Y005180D02*
X031930Y006180D01*
X032930Y007180D01*
X032930Y008180D01*
D26*
X033430Y007680D02*
X033430Y009430D01*
X032930Y009930D01*
X032930Y010477D01*
X032227Y011180D01*
X033180Y011180D02*
X033180Y013430D01*
X032680Y013930D01*
X034680Y014930D02*
X034930Y014930D01*
X036180Y013680D01*
X036180Y009680D01*
X036930Y008930D01*
X036930Y008180D01*
X037930Y008180D02*
X037930Y008930D01*
X036430Y010430D01*
X036430Y013930D01*
X035680Y014680D01*
X035680Y014930D01*
X033180Y011180D02*
X034180Y010180D01*
X034180Y008680D01*
X034430Y008430D01*
X034430Y007680D01*
X034930Y007180D01*
X034930Y005180D01*
X033930Y005180D02*
X033930Y007180D01*
X033430Y007680D01*
X028930Y006930D02*
X028930Y005180D01*
X027930Y005180D02*
X027930Y004930D01*
X027430Y004430D01*
X023430Y004430D01*
X020180Y001180D01*
X017680Y004680D02*
X014930Y004680D01*
X014430Y005180D01*
X016430Y005180D02*
X016680Y005180D01*
X017180Y005680D01*
X017180Y007180D01*
X017930Y008930D02*
X017930Y010680D01*
X015180Y011430D02*
X015180Y012680D01*
X012430Y008430D02*
X009727Y011133D01*
X009727Y011180D01*
X009727Y010196D02*
X009743Y010180D01*
X009743Y008867D01*
X010930Y007680D01*
X010930Y003591D01*
X010948Y003574D01*
X006430Y004091D02*
X006430Y009680D01*
X007680Y010930D01*
X008180Y010180D02*
X008180Y008680D01*
X012430Y008430D02*
X012430Y008180D01*
X006430Y004091D02*
X005948Y003574D01*
X023180Y005180D02*
X023180Y006430D01*
X025930Y006430D02*
X025930Y008180D01*
X027930Y008180D02*
X028180Y008180D01*
X028430Y007930D01*
X028430Y004680D01*
X029530Y003580D01*
X029530Y003180D01*
X035930Y002430D02*
X035930Y005180D01*
X025430Y013930D02*
X025430Y015430D01*
D27*
X015180Y012680D03*
X015180Y011430D03*
X017930Y010680D03*
X017930Y008930D03*
X023180Y006430D03*
X025930Y006430D03*
X028930Y006930D03*
X035930Y002430D03*
X020180Y001180D03*
X017680Y004680D03*
X007680Y010930D03*
M02*
