G75*
G70*
%OFA0B0*%
%FSLAX24Y24*%
%IPPOS*%
%LPD*%
%AMOC8*
5,1,8,0,0,1.08239X$1,22.5*
%
%ADD10C,0.0000*%
%ADD11C,0.0560*%
%ADD12OC8,0.0560*%
%ADD13OC8,0.1422*%
%ADD14C,0.0760*%
%ADD15OC8,0.1107*%
%ADD16OC8,0.1186*%
%ADD17C,0.0555*%
%ADD18C,0.0740*%
%ADD19C,0.0780*%
%ADD20OC8,0.0740*%
%ADD21OC8,0.0630*%
%ADD22C,0.0630*%
%ADD23OC8,0.1240*%
%ADD24C,0.0160*%
%ADD25C,0.0240*%
%ADD26C,0.0120*%
%ADD27R,0.0356X0.0356*%
D10*
X000180Y000298D02*
X039550Y000298D01*
X039550Y016180D01*
X000180Y016180D01*
X000180Y000298D01*
D11*
X009930Y005798D03*
X009930Y006798D03*
X009930Y007798D03*
X005180Y008298D03*
X005180Y007298D03*
X005180Y006298D03*
X021180Y005298D03*
X022180Y005298D03*
X023180Y005298D03*
X024180Y005298D03*
X025930Y005298D03*
X026930Y005298D03*
X027930Y005298D03*
X028930Y005298D03*
X029930Y005298D03*
X030930Y005298D03*
X031930Y005298D03*
X032930Y005298D03*
X033930Y005298D03*
X034930Y005298D03*
X035930Y005298D03*
X036930Y005298D03*
X037930Y005298D03*
X038930Y005298D03*
X038180Y004048D03*
X038180Y003048D03*
X038180Y002048D03*
X037930Y008298D03*
X038930Y008298D03*
X036930Y008298D03*
X035930Y008298D03*
X034930Y008298D03*
X033930Y008298D03*
X032930Y008298D03*
X031930Y008298D03*
X030930Y008298D03*
X029930Y008298D03*
X028930Y008298D03*
X027930Y008298D03*
X026930Y008298D03*
X025930Y008298D03*
X024180Y008298D03*
X023180Y008298D03*
X022180Y008298D03*
X021180Y008298D03*
D12*
X019930Y008298D03*
X018930Y008298D03*
X018180Y007298D03*
X017180Y007298D03*
X016430Y008298D03*
X015430Y008298D03*
X012430Y008298D03*
X011430Y008298D03*
X008180Y008798D03*
X007180Y008798D03*
X008180Y010298D03*
X003930Y009048D03*
X001180Y009048D03*
X002180Y007298D03*
X003180Y007298D03*
X003930Y006048D03*
X004930Y005298D03*
X007180Y005798D03*
X008180Y005798D03*
X011430Y005298D03*
X012430Y005298D03*
X015430Y005298D03*
X016430Y005298D03*
X018930Y005298D03*
X019930Y005298D03*
X019180Y000798D03*
X017430Y000798D03*
X014430Y000798D03*
X022180Y000798D03*
X030930Y004298D03*
X032930Y004298D03*
X033680Y004048D03*
X033680Y003048D03*
X033680Y002048D03*
X036680Y002048D03*
X036680Y003048D03*
X036680Y004048D03*
X038180Y009798D03*
X038930Y011798D03*
X038180Y012798D03*
X038930Y013798D03*
X032680Y014048D03*
X029680Y014048D03*
X028430Y014048D03*
X028430Y015548D03*
X025430Y015548D03*
X025430Y014048D03*
X024430Y014048D03*
X023180Y012798D03*
X021430Y014048D03*
X023180Y009798D03*
X008180Y013298D03*
X001180Y006048D03*
X004930Y002298D03*
D13*
X003034Y001841D03*
X001184Y002747D03*
X005948Y003692D03*
X003074Y005030D03*
X009137Y003652D03*
X010948Y003692D03*
X014137Y003652D03*
X015948Y003692D03*
X019137Y003652D03*
X020948Y003692D03*
X024137Y003652D03*
X023231Y001802D03*
X018231Y001802D03*
X013231Y001802D03*
X008231Y001802D03*
D14*
X009727Y010314D03*
X009727Y011298D03*
X009727Y012282D03*
X002227Y012282D03*
X002227Y011298D03*
X002227Y010314D03*
X017227Y010314D03*
X017227Y011298D03*
X017227Y012282D03*
X024727Y012282D03*
X024727Y011298D03*
X024727Y010314D03*
X032227Y010314D03*
X032227Y011298D03*
X032227Y012282D03*
D15*
X035180Y013069D03*
X035180Y009526D03*
X027680Y009526D03*
X027680Y013069D03*
X020180Y013069D03*
X020180Y009526D03*
X012680Y009526D03*
X012680Y013069D03*
X005180Y013069D03*
X005180Y009526D03*
D16*
X025830Y003298D03*
X027680Y003298D03*
X029530Y003298D03*
D17*
X030180Y009298D03*
X031180Y009298D03*
X032180Y009298D03*
D18*
X033680Y015048D03*
X034680Y015048D03*
X035680Y015048D03*
X036680Y015048D03*
X037680Y015048D03*
X038680Y015048D03*
X019180Y015548D03*
X017180Y015548D03*
X007680Y015548D03*
X005680Y015548D03*
X005680Y014298D03*
X007680Y014298D03*
D19*
X004680Y014298D03*
X004680Y015548D03*
X000680Y015548D03*
X000680Y014298D03*
X020430Y015548D03*
X024430Y015548D03*
D20*
X015930Y015548D03*
X014930Y015548D03*
X013930Y015548D03*
X012930Y015548D03*
X011930Y015548D03*
X010930Y015548D03*
X009930Y015548D03*
X008930Y015548D03*
X008930Y014548D03*
X009930Y014548D03*
X010930Y014548D03*
X011930Y014548D03*
X012930Y014548D03*
X013930Y014548D03*
X014930Y014548D03*
X015930Y014548D03*
D21*
X032430Y002548D03*
D22*
X031430Y002548D03*
D23*
X037430Y001048D03*
D24*
X037510Y001053D02*
X039350Y001053D01*
X039350Y001211D02*
X038230Y001211D01*
X038230Y001128D02*
X038230Y001379D01*
X037971Y001638D01*
X038003Y001622D01*
X038072Y001599D01*
X038144Y001588D01*
X038180Y001588D01*
X038216Y001588D01*
X038288Y001599D01*
X038357Y001622D01*
X038421Y001654D01*
X038480Y001697D01*
X038531Y001748D01*
X038573Y001807D01*
X038606Y001871D01*
X038629Y001940D01*
X038640Y002012D01*
X038640Y002048D01*
X038640Y002084D01*
X038629Y002156D01*
X038606Y002224D01*
X038573Y002289D01*
X038531Y002348D01*
X038480Y002399D01*
X038421Y002441D01*
X038357Y002474D01*
X038288Y002497D01*
X038216Y002508D01*
X038180Y002508D01*
X038144Y002508D01*
X038072Y002497D01*
X038003Y002474D01*
X037939Y002441D01*
X037880Y002399D01*
X037829Y002348D01*
X037787Y002289D01*
X037754Y002224D01*
X037731Y002156D01*
X037720Y002084D01*
X037720Y002048D01*
X038180Y002048D01*
X038180Y002508D01*
X038180Y002048D01*
X038180Y002048D01*
X038180Y002048D01*
X038640Y002048D01*
X038180Y002048D01*
X038180Y002048D01*
X037720Y002048D01*
X037720Y002012D01*
X037731Y001940D01*
X037754Y001871D01*
X037770Y001839D01*
X037761Y001848D01*
X037510Y001848D01*
X037510Y001128D01*
X037350Y001128D01*
X037350Y001848D01*
X037159Y001848D01*
X037160Y001849D01*
X037160Y002247D01*
X036879Y002528D01*
X036481Y002528D01*
X036200Y002247D01*
X036200Y001849D01*
X036481Y001568D01*
X036819Y001568D01*
X036630Y001379D01*
X036630Y001128D01*
X037350Y001128D01*
X037350Y000968D01*
X036630Y000968D01*
X036630Y000716D01*
X036849Y000498D01*
X036269Y000498D01*
X036308Y000537D01*
X036308Y001059D01*
X036191Y001176D01*
X036190Y001176D01*
X036190Y004886D01*
X036202Y004891D01*
X036337Y005026D01*
X036410Y005202D01*
X036410Y005393D01*
X036337Y005570D01*
X036202Y005705D01*
X036025Y005778D01*
X035835Y005778D01*
X035658Y005705D01*
X035523Y005570D01*
X035450Y005393D01*
X035450Y005202D01*
X035523Y005026D01*
X035658Y004891D01*
X035670Y004886D01*
X035670Y001176D01*
X035669Y001176D01*
X035552Y001059D01*
X035552Y000537D01*
X035591Y000498D01*
X022559Y000498D01*
X022660Y000599D01*
X022660Y000997D01*
X022379Y001278D01*
X021981Y001278D01*
X021700Y000997D01*
X021700Y000599D01*
X021801Y000498D01*
X019559Y000498D01*
X019599Y000538D01*
X019732Y000538D01*
X019827Y000577D01*
X021722Y000577D01*
X021700Y000736D02*
X019986Y000736D01*
X020144Y000894D02*
X021700Y000894D01*
X021756Y001053D02*
X020303Y001053D01*
X020461Y001211D02*
X021915Y001211D01*
X022340Y001433D02*
X022862Y000911D01*
X023151Y000911D01*
X023151Y001722D01*
X022340Y001722D01*
X022340Y001433D01*
X022403Y001370D02*
X020620Y001370D01*
X020778Y001528D02*
X022340Y001528D01*
X022340Y001687D02*
X020937Y001687D01*
X021095Y001845D02*
X023151Y001845D01*
X023151Y001882D02*
X023151Y001722D01*
X023311Y001722D01*
X023311Y001882D01*
X023151Y001882D01*
X023151Y002693D01*
X022862Y002693D01*
X022340Y002171D01*
X022340Y001882D01*
X023151Y001882D01*
X023151Y002004D02*
X023311Y002004D01*
X023311Y001882D02*
X023311Y002693D01*
X023600Y002693D01*
X024122Y002171D01*
X024122Y001882D01*
X023311Y001882D01*
X023311Y001845D02*
X033204Y001845D01*
X033200Y001849D02*
X033481Y001568D01*
X033879Y001568D01*
X034160Y001849D01*
X034160Y002247D01*
X033879Y002528D01*
X033481Y002528D01*
X033200Y002247D01*
X033200Y001849D01*
X033200Y002004D02*
X024122Y002004D01*
X024122Y002162D02*
X031087Y002162D01*
X031138Y002111D02*
X030993Y002256D01*
X030915Y002445D01*
X030915Y002650D01*
X030993Y002840D01*
X031138Y002984D01*
X031328Y003063D01*
X031532Y003063D01*
X031722Y002984D01*
X031867Y002840D01*
X031935Y002674D01*
X031935Y002753D01*
X032225Y003043D01*
X032430Y003043D01*
X032430Y002548D01*
X032430Y002548D01*
X032430Y003043D01*
X032635Y003043D01*
X032925Y002753D01*
X032925Y002548D01*
X032430Y002548D01*
X032430Y002548D01*
X032925Y002548D01*
X032925Y002343D01*
X032635Y002053D01*
X032430Y002053D01*
X032430Y002548D01*
X032430Y002548D01*
X032430Y002053D01*
X032225Y002053D01*
X031935Y002343D01*
X031935Y002421D01*
X031867Y002256D01*
X031722Y002111D01*
X031532Y002033D01*
X031328Y002033D01*
X031138Y002111D01*
X030967Y002321D02*
X023972Y002321D01*
X023814Y002479D02*
X030915Y002479D01*
X030915Y002638D02*
X029992Y002638D01*
X029858Y002505D02*
X030323Y002969D01*
X030323Y003626D01*
X029858Y004091D01*
X029255Y004091D01*
X028690Y004656D01*
X028690Y004878D01*
X028835Y004818D01*
X029025Y004818D01*
X029202Y004891D01*
X029337Y005026D01*
X029410Y005202D01*
X029410Y005393D01*
X029337Y005570D01*
X029202Y005705D01*
X029190Y005710D01*
X029190Y006670D01*
X029191Y006670D01*
X029308Y006787D01*
X029308Y007309D01*
X029191Y007426D01*
X028690Y007426D01*
X028690Y007878D01*
X028835Y007818D01*
X029025Y007818D01*
X029202Y007891D01*
X029337Y008026D01*
X029410Y008202D01*
X029410Y008393D01*
X029337Y008570D01*
X029202Y008705D01*
X029025Y008778D01*
X028835Y008778D01*
X028658Y008705D01*
X028523Y008570D01*
X028451Y008395D01*
X028400Y008445D01*
X028380Y008465D01*
X028337Y008570D01*
X028202Y008705D01*
X028025Y008778D01*
X027835Y008778D01*
X027658Y008705D01*
X027523Y008570D01*
X027450Y008393D01*
X027450Y008202D01*
X027523Y008026D01*
X027658Y007891D01*
X027835Y007818D01*
X028025Y007818D01*
X028170Y007878D01*
X028170Y005718D01*
X028025Y005778D01*
X027835Y005778D01*
X027658Y005705D01*
X027523Y005570D01*
X027450Y005393D01*
X027450Y005202D01*
X027523Y005026D01*
X027658Y004891D01*
X027835Y004818D01*
X028025Y004818D01*
X028170Y004878D01*
X028170Y004496D01*
X028210Y004401D01*
X028283Y004327D01*
X028860Y003750D01*
X028737Y003626D01*
X028737Y002969D01*
X029201Y002505D01*
X029858Y002505D01*
X030150Y002796D02*
X030976Y002796D01*
X031109Y002955D02*
X030309Y002955D01*
X030323Y003113D02*
X033220Y003113D01*
X033220Y003048D02*
X033680Y003048D01*
X033680Y003508D01*
X033871Y003508D01*
X034140Y003238D01*
X034140Y003048D01*
X033680Y003048D01*
X033680Y003048D01*
X033680Y003508D01*
X033489Y003508D01*
X033220Y003238D01*
X033220Y003048D01*
X033220Y002857D01*
X033489Y002588D01*
X033680Y002588D01*
X033871Y002588D01*
X034140Y002857D01*
X034140Y003048D01*
X033680Y003048D01*
X033680Y003048D01*
X033680Y003048D01*
X033220Y003048D01*
X033220Y002955D02*
X032723Y002955D01*
X032882Y002796D02*
X033281Y002796D01*
X033439Y002638D02*
X032925Y002638D01*
X032925Y002479D02*
X033433Y002479D01*
X033274Y002321D02*
X032903Y002321D01*
X032745Y002162D02*
X033200Y002162D01*
X033362Y001687D02*
X024122Y001687D01*
X024122Y001722D02*
X023311Y001722D01*
X023311Y000911D01*
X023600Y000911D01*
X024122Y001433D01*
X024122Y001722D01*
X024122Y001528D02*
X035670Y001528D01*
X035670Y001370D02*
X024060Y001370D01*
X023901Y001211D02*
X035670Y001211D01*
X035552Y001053D02*
X023743Y001053D01*
X023311Y001053D02*
X023151Y001053D01*
X023151Y001211D02*
X023311Y001211D01*
X023311Y001370D02*
X023151Y001370D01*
X023151Y001528D02*
X023311Y001528D01*
X023311Y001687D02*
X023151Y001687D01*
X023151Y002162D02*
X023311Y002162D01*
X023311Y002321D02*
X023151Y002321D01*
X023151Y002479D02*
X023311Y002479D01*
X023311Y002638D02*
X023151Y002638D01*
X022807Y002638D02*
X021888Y002638D01*
X022046Y002796D02*
X023732Y002796D01*
X023768Y002761D02*
X024057Y002761D01*
X024057Y003572D01*
X024217Y003572D01*
X024217Y003732D01*
X025028Y003732D01*
X025028Y004021D01*
X024506Y004543D01*
X024217Y004543D01*
X024217Y003732D01*
X024057Y003732D01*
X024057Y004543D01*
X023768Y004543D01*
X023419Y004194D01*
X023440Y004246D01*
X023440Y004886D01*
X023452Y004891D01*
X023587Y005026D01*
X023660Y005202D01*
X023660Y005393D01*
X023587Y005570D01*
X023452Y005705D01*
X023275Y005778D01*
X023085Y005778D01*
X022908Y005705D01*
X022773Y005570D01*
X022700Y005393D01*
X022700Y005202D01*
X022773Y005026D01*
X022908Y004891D01*
X022920Y004886D01*
X022920Y004406D01*
X021859Y003344D01*
X021859Y004069D01*
X021325Y004603D01*
X020570Y004603D01*
X020037Y004069D01*
X020037Y003314D01*
X020570Y002780D01*
X021295Y002780D01*
X019586Y001071D01*
X019379Y001278D01*
X018996Y001278D01*
X019142Y001424D01*
X019142Y002179D01*
X018609Y002713D01*
X017854Y002713D01*
X017440Y002299D01*
X017440Y003940D01*
X017920Y004420D01*
X018441Y004420D01*
X018558Y004537D01*
X018558Y004991D01*
X018731Y004818D01*
X019129Y004818D01*
X019410Y005099D01*
X019410Y005497D01*
X019129Y005778D01*
X018731Y005778D01*
X018511Y005558D01*
X017878Y005558D01*
X017783Y005518D01*
X017710Y005445D01*
X016710Y004445D01*
X016670Y004350D01*
X016670Y004258D01*
X016325Y004603D01*
X015570Y004603D01*
X015037Y004069D01*
X015037Y003314D01*
X015570Y002780D01*
X016325Y002780D01*
X016670Y003125D01*
X016670Y002156D01*
X016533Y002018D01*
X016460Y001945D01*
X016420Y001850D01*
X016420Y001156D01*
X016322Y001058D01*
X014849Y001058D01*
X014629Y001278D01*
X014231Y001278D01*
X013950Y000997D01*
X013950Y000599D01*
X014051Y000498D01*
X000380Y000498D01*
X000380Y002262D01*
X000807Y001835D01*
X001561Y001835D01*
X002095Y002369D01*
X002095Y003124D01*
X001561Y003658D01*
X000807Y003658D01*
X000380Y003231D01*
X000380Y013811D01*
X000381Y013810D01*
X000461Y013770D01*
X000547Y013742D01*
X000635Y013728D01*
X000662Y013728D01*
X000662Y014279D01*
X000698Y014279D01*
X000698Y013728D01*
X000725Y013728D01*
X000813Y013742D01*
X000899Y013770D01*
X000979Y013810D01*
X001051Y013863D01*
X001115Y013927D01*
X001168Y013999D01*
X001208Y014079D01*
X001236Y014164D01*
X001250Y014253D01*
X001250Y014279D01*
X000698Y014279D01*
X000698Y014316D01*
X000662Y014316D01*
X000662Y014868D01*
X000635Y014868D01*
X000547Y014854D01*
X000461Y014826D01*
X000381Y014785D01*
X000380Y014784D01*
X000380Y015061D01*
X000381Y015060D01*
X000461Y015020D01*
X000547Y014992D01*
X000635Y014978D01*
X000662Y014978D01*
X000662Y015529D01*
X000698Y015529D01*
X000698Y014978D01*
X000725Y014978D01*
X000813Y014992D01*
X000899Y015020D01*
X000979Y015060D01*
X001051Y015113D01*
X001115Y015177D01*
X001168Y015249D01*
X001208Y015329D01*
X001236Y015414D01*
X001250Y015503D01*
X001250Y015529D01*
X000698Y015529D01*
X000698Y015566D01*
X001250Y015566D01*
X001250Y015593D01*
X001236Y015681D01*
X001208Y015767D01*
X001168Y015847D01*
X001115Y015919D01*
X001054Y015980D01*
X004278Y015980D01*
X004180Y015882D01*
X004090Y015665D01*
X004090Y015430D01*
X004180Y015214D01*
X004346Y015048D01*
X004563Y014958D01*
X004797Y014958D01*
X005014Y015048D01*
X005180Y015214D01*
X005191Y015239D01*
X005197Y015225D01*
X005357Y015065D01*
X005567Y014978D01*
X005793Y014978D01*
X006003Y015065D01*
X006163Y015225D01*
X006250Y015434D01*
X006250Y015661D01*
X006163Y015871D01*
X006054Y015980D01*
X007306Y015980D01*
X007197Y015871D01*
X007110Y015661D01*
X007110Y015434D01*
X007197Y015225D01*
X007357Y015065D01*
X007567Y014978D01*
X007793Y014978D01*
X008003Y015065D01*
X008163Y015225D01*
X008250Y015434D01*
X008250Y015661D01*
X008163Y015871D01*
X008054Y015980D01*
X008556Y015980D01*
X008360Y015784D01*
X008360Y015312D01*
X008624Y015048D01*
X008360Y014784D01*
X008360Y014312D01*
X008694Y013978D01*
X009166Y013978D01*
X009444Y014256D01*
X009702Y013998D01*
X009910Y013998D01*
X009910Y014528D01*
X009950Y014528D01*
X009950Y014568D01*
X009950Y014998D01*
X009950Y015528D01*
X009950Y015568D01*
X010910Y015568D01*
X010910Y015528D01*
X010380Y015528D01*
X009950Y015528D01*
X009910Y015528D01*
X009910Y014568D01*
X009950Y014568D01*
X010910Y014568D01*
X010910Y015528D01*
X010950Y015528D01*
X010950Y015568D01*
X011910Y015568D01*
X011910Y015528D01*
X011380Y015528D01*
X010950Y015528D01*
X010950Y014998D01*
X010950Y014568D01*
X010910Y014568D01*
X010910Y014528D01*
X010380Y014528D01*
X009950Y014528D01*
X009950Y013998D01*
X010158Y013998D01*
X010430Y014270D01*
X010702Y013998D01*
X010910Y013998D01*
X010910Y014528D01*
X010950Y014528D01*
X010950Y014568D01*
X011910Y014568D01*
X011910Y015528D01*
X011950Y015528D01*
X011950Y015098D01*
X011950Y014568D01*
X011910Y014568D01*
X011910Y014528D01*
X011380Y014528D01*
X010950Y014528D01*
X010950Y013998D01*
X011158Y013998D01*
X011430Y014270D01*
X011702Y013998D01*
X011910Y013998D01*
X011910Y014528D01*
X011950Y014528D01*
X011950Y013998D01*
X012158Y013998D01*
X012416Y014256D01*
X012694Y013978D01*
X013166Y013978D01*
X013430Y014242D01*
X013694Y013978D01*
X014166Y013978D01*
X014430Y014242D01*
X014694Y013978D01*
X015166Y013978D01*
X015430Y014242D01*
X015694Y013978D01*
X016166Y013978D01*
X016500Y014312D01*
X016500Y014784D01*
X016236Y015048D01*
X016500Y015312D01*
X016500Y015784D01*
X016304Y015980D01*
X016806Y015980D01*
X016697Y015871D01*
X016610Y015661D01*
X016610Y015434D01*
X016697Y015225D01*
X016857Y015065D01*
X017067Y014978D01*
X017293Y014978D01*
X017503Y015065D01*
X017663Y015225D01*
X017750Y015434D01*
X017750Y015661D01*
X017663Y015871D01*
X017554Y015980D01*
X018806Y015980D01*
X018697Y015871D01*
X018624Y015694D01*
X016249Y013319D01*
X016159Y013229D01*
X016110Y013111D01*
X016110Y009430D01*
X015457Y008778D01*
X015231Y008778D01*
X014950Y008497D01*
X014950Y008099D01*
X015231Y007818D01*
X015629Y007818D01*
X015910Y008099D01*
X015910Y008325D01*
X015970Y008385D01*
X015970Y008298D01*
X016430Y008298D01*
X016430Y008758D01*
X016343Y008758D01*
X016701Y009117D01*
X016750Y009234D01*
X016750Y009971D01*
X016899Y009822D01*
X017112Y009734D01*
X017343Y009734D01*
X017556Y009822D01*
X017670Y009936D01*
X017670Y008676D01*
X017669Y008676D01*
X017552Y008559D01*
X017552Y008037D01*
X017669Y007920D01*
X018191Y007920D01*
X018308Y008037D01*
X018308Y008559D01*
X018191Y008676D01*
X018190Y008676D01*
X018190Y010420D01*
X018191Y010420D01*
X018308Y010537D01*
X018308Y011059D01*
X018191Y011176D01*
X017805Y011176D01*
X017807Y011182D01*
X017807Y011413D01*
X017719Y011626D01*
X017556Y011790D01*
X017522Y011804D01*
X017592Y011855D01*
X017654Y011917D01*
X017706Y011989D01*
X017746Y012067D01*
X017773Y012151D01*
X017787Y012238D01*
X017787Y012264D01*
X017246Y012264D01*
X017246Y012301D01*
X017209Y012301D01*
X017209Y012842D01*
X017183Y012842D01*
X017096Y012828D01*
X017012Y012801D01*
X016934Y012761D01*
X016862Y012709D01*
X016800Y012647D01*
X016750Y012578D01*
X016750Y012915D01*
X018887Y015052D01*
X019067Y014978D01*
X019293Y014978D01*
X019503Y015065D01*
X019663Y015225D01*
X019750Y015434D01*
X019750Y015661D01*
X019663Y015871D01*
X019554Y015980D01*
X020028Y015980D01*
X019930Y015882D01*
X019840Y015665D01*
X019840Y015430D01*
X019930Y015214D01*
X020096Y015048D01*
X020313Y014958D01*
X020547Y014958D01*
X020764Y015048D01*
X020930Y015214D01*
X021020Y015430D01*
X021020Y015665D01*
X020930Y015882D01*
X020832Y015980D01*
X024056Y015980D01*
X023995Y015919D01*
X023942Y015847D01*
X023902Y015767D01*
X023874Y015681D01*
X023860Y015593D01*
X023860Y015566D01*
X024412Y015566D01*
X024412Y015529D01*
X024448Y015529D01*
X024448Y014978D01*
X024475Y014978D01*
X024563Y014992D01*
X024649Y015020D01*
X024729Y015060D01*
X024801Y015113D01*
X024865Y015177D01*
X024918Y015249D01*
X024958Y015329D01*
X024961Y015338D01*
X025170Y015129D01*
X025170Y014467D01*
X024950Y014247D01*
X024950Y013849D01*
X025231Y013568D01*
X025629Y013568D01*
X025910Y013849D01*
X025910Y014247D01*
X025690Y014467D01*
X025690Y015129D01*
X025910Y015349D01*
X025910Y015747D01*
X025677Y015980D01*
X028183Y015980D01*
X027950Y015747D01*
X027950Y015349D01*
X028231Y015068D01*
X028629Y015068D01*
X028910Y015349D01*
X028910Y015747D01*
X028677Y015980D01*
X039350Y015980D01*
X039350Y014057D01*
X039129Y014278D01*
X038731Y014278D01*
X038450Y013997D01*
X038450Y013599D01*
X038731Y013318D01*
X039129Y013318D01*
X039350Y013539D01*
X039350Y012057D01*
X039129Y012278D01*
X038731Y012278D01*
X038450Y011997D01*
X038450Y011599D01*
X038731Y011318D01*
X039129Y011318D01*
X039350Y011539D01*
X039350Y008538D01*
X039337Y008570D01*
X039202Y008705D01*
X039025Y008778D01*
X038835Y008778D01*
X038658Y008705D01*
X038523Y008570D01*
X038450Y008393D01*
X038450Y008202D01*
X038523Y008026D01*
X038658Y007891D01*
X038835Y007818D01*
X039025Y007818D01*
X039202Y007891D01*
X039337Y008026D01*
X039350Y008058D01*
X039350Y005538D01*
X039337Y005570D01*
X039202Y005705D01*
X039025Y005778D01*
X038835Y005778D01*
X038658Y005705D01*
X038523Y005570D01*
X038450Y005393D01*
X038450Y005202D01*
X038523Y005026D01*
X038658Y004891D01*
X038835Y004818D01*
X039025Y004818D01*
X039202Y004891D01*
X039337Y005026D01*
X039350Y005058D01*
X039350Y000498D01*
X038011Y000498D01*
X038230Y000716D01*
X038230Y000968D01*
X037510Y000968D01*
X037510Y001128D01*
X038230Y001128D01*
X038230Y001370D02*
X039350Y001370D01*
X039350Y001528D02*
X038081Y001528D01*
X038180Y001588D02*
X038180Y002048D01*
X038180Y001588D01*
X038180Y001687D02*
X038180Y001687D01*
X038180Y001845D02*
X038180Y001845D01*
X038180Y002004D02*
X038180Y002004D01*
X038180Y002048D02*
X038180Y002048D01*
X038180Y002162D02*
X038180Y002162D01*
X038180Y002321D02*
X038180Y002321D01*
X038180Y002479D02*
X038180Y002479D01*
X038085Y002568D02*
X038275Y002568D01*
X038452Y002641D01*
X038587Y002776D01*
X038660Y002952D01*
X038660Y003143D01*
X038587Y003320D01*
X038452Y003455D01*
X038275Y003528D01*
X038085Y003528D01*
X037908Y003455D01*
X037773Y003320D01*
X037700Y003143D01*
X037700Y002952D01*
X037773Y002776D01*
X037908Y002641D01*
X038085Y002568D01*
X038019Y002479D02*
X036927Y002479D01*
X036879Y002568D02*
X037160Y002849D01*
X037160Y003247D01*
X036879Y003528D01*
X036481Y003528D01*
X036200Y003247D01*
X036200Y002849D01*
X036481Y002568D01*
X036879Y002568D01*
X036949Y002638D02*
X037916Y002638D01*
X037765Y002796D02*
X037107Y002796D01*
X037160Y002955D02*
X037700Y002955D01*
X037700Y003113D02*
X037160Y003113D01*
X037135Y003272D02*
X037753Y003272D01*
X037884Y003430D02*
X036976Y003430D01*
X036879Y003568D02*
X036481Y003568D01*
X036200Y003849D01*
X036200Y004247D01*
X036481Y004528D01*
X036879Y004528D01*
X037160Y004247D01*
X037160Y003849D01*
X036879Y003568D01*
X036900Y003589D02*
X038034Y003589D01*
X038085Y003568D02*
X038275Y003568D01*
X038452Y003641D01*
X038587Y003776D01*
X038660Y003952D01*
X038660Y004143D01*
X038587Y004320D01*
X038452Y004455D01*
X038275Y004528D01*
X038085Y004528D01*
X037908Y004455D01*
X037773Y004320D01*
X037700Y004143D01*
X037700Y003952D01*
X037773Y003776D01*
X037908Y003641D01*
X038085Y003568D01*
X038326Y003589D02*
X039350Y003589D01*
X039350Y003747D02*
X038558Y003747D01*
X038641Y003906D02*
X039350Y003906D01*
X039350Y004064D02*
X038660Y004064D01*
X038627Y004223D02*
X039350Y004223D01*
X039350Y004381D02*
X038525Y004381D01*
X038202Y004891D02*
X038025Y004818D01*
X037835Y004818D01*
X037658Y004891D01*
X037523Y005026D01*
X037450Y005202D01*
X037450Y005393D01*
X037523Y005570D01*
X037658Y005705D01*
X037835Y005778D01*
X038025Y005778D01*
X038202Y005705D01*
X038337Y005570D01*
X038410Y005393D01*
X038410Y005202D01*
X038337Y005026D01*
X038202Y004891D01*
X038120Y004857D02*
X038740Y004857D01*
X038534Y005015D02*
X038326Y005015D01*
X038398Y005174D02*
X038462Y005174D01*
X038450Y005332D02*
X038410Y005332D01*
X038370Y005491D02*
X038490Y005491D01*
X038603Y005649D02*
X038257Y005649D01*
X037603Y005649D02*
X037257Y005649D01*
X037202Y005705D02*
X037025Y005778D01*
X036835Y005778D01*
X036658Y005705D01*
X036523Y005570D01*
X036450Y005393D01*
X036450Y005202D01*
X036523Y005026D01*
X036658Y004891D01*
X036835Y004818D01*
X037025Y004818D01*
X037202Y004891D01*
X037337Y005026D01*
X037410Y005202D01*
X037410Y005393D01*
X037337Y005570D01*
X037202Y005705D01*
X037370Y005491D02*
X037490Y005491D01*
X037450Y005332D02*
X037410Y005332D01*
X037398Y005174D02*
X037462Y005174D01*
X037534Y005015D02*
X037326Y005015D01*
X037120Y004857D02*
X037740Y004857D01*
X036740Y004857D02*
X036190Y004857D01*
X036190Y004698D02*
X039350Y004698D01*
X039350Y004540D02*
X036190Y004540D01*
X036190Y004381D02*
X036335Y004381D01*
X036200Y004223D02*
X036190Y004223D01*
X036190Y004064D02*
X036200Y004064D01*
X036190Y003906D02*
X036200Y003906D01*
X036190Y003747D02*
X036302Y003747D01*
X036190Y003589D02*
X036460Y003589D01*
X036384Y003430D02*
X036190Y003430D01*
X036190Y003272D02*
X036225Y003272D01*
X036200Y003113D02*
X036190Y003113D01*
X036190Y002955D02*
X036200Y002955D01*
X036190Y002796D02*
X036253Y002796D01*
X036190Y002638D02*
X036411Y002638D01*
X036433Y002479D02*
X036190Y002479D01*
X036190Y002321D02*
X036274Y002321D01*
X036200Y002162D02*
X036190Y002162D01*
X036190Y002004D02*
X036200Y002004D01*
X036190Y001845D02*
X036204Y001845D01*
X036190Y001687D02*
X036362Y001687D01*
X036190Y001528D02*
X036779Y001528D01*
X036630Y001370D02*
X036190Y001370D01*
X036190Y001211D02*
X036630Y001211D01*
X036308Y001053D02*
X037350Y001053D01*
X037350Y001211D02*
X037510Y001211D01*
X037510Y001370D02*
X037350Y001370D01*
X037350Y001528D02*
X037510Y001528D01*
X037510Y001687D02*
X037350Y001687D01*
X037350Y001845D02*
X037510Y001845D01*
X037764Y001845D02*
X037767Y001845D01*
X037721Y002004D02*
X037160Y002004D01*
X037160Y002162D02*
X037734Y002162D01*
X037810Y002321D02*
X037086Y002321D01*
X038341Y002479D02*
X039350Y002479D01*
X039350Y002321D02*
X038550Y002321D01*
X038626Y002162D02*
X039350Y002162D01*
X039350Y002004D02*
X038639Y002004D01*
X038593Y001845D02*
X039350Y001845D01*
X039350Y001687D02*
X038466Y001687D01*
X038230Y000894D02*
X039350Y000894D01*
X039350Y000736D02*
X038230Y000736D01*
X038091Y000577D02*
X039350Y000577D01*
X036769Y000577D02*
X036308Y000577D01*
X036308Y000736D02*
X036630Y000736D01*
X036630Y000894D02*
X036308Y000894D01*
X035552Y000894D02*
X022660Y000894D01*
X022660Y000736D02*
X035552Y000736D01*
X035552Y000577D02*
X022638Y000577D01*
X022604Y001053D02*
X022720Y001053D01*
X022561Y001211D02*
X022445Y001211D01*
X022340Y002004D02*
X021254Y002004D01*
X021412Y002162D02*
X022340Y002162D01*
X022490Y002321D02*
X021571Y002321D01*
X021729Y002479D02*
X022648Y002479D01*
X022205Y002955D02*
X023574Y002955D01*
X023415Y003113D02*
X022363Y003113D01*
X022522Y003272D02*
X023257Y003272D01*
X023246Y003283D02*
X023768Y002761D01*
X023655Y002638D02*
X025368Y002638D01*
X025501Y002505D02*
X026158Y002505D01*
X026623Y002969D01*
X026623Y003626D01*
X026158Y004091D01*
X025501Y004091D01*
X025037Y003626D01*
X025037Y002969D01*
X025501Y002505D01*
X025210Y002796D02*
X024541Y002796D01*
X024506Y002761D02*
X024217Y002761D01*
X024217Y003572D01*
X025028Y003572D01*
X025028Y003283D01*
X024506Y002761D01*
X024700Y002955D02*
X025051Y002955D01*
X025037Y003113D02*
X024858Y003113D01*
X025017Y003272D02*
X025037Y003272D01*
X025028Y003430D02*
X025037Y003430D01*
X025037Y003589D02*
X024217Y003589D01*
X024217Y003747D02*
X024057Y003747D01*
X024057Y003732D02*
X024057Y003572D01*
X023246Y003572D01*
X023246Y003283D01*
X023246Y003430D02*
X022680Y003430D01*
X022839Y003589D02*
X024057Y003589D01*
X024057Y003732D02*
X023246Y003732D01*
X023246Y003996D01*
X019827Y000577D01*
X019726Y001211D02*
X019445Y001211D01*
X019088Y001370D02*
X019884Y001370D01*
X020043Y001528D02*
X019142Y001528D01*
X019142Y001687D02*
X020201Y001687D01*
X020360Y001845D02*
X019142Y001845D01*
X019142Y002004D02*
X020518Y002004D01*
X020677Y002162D02*
X019142Y002162D01*
X019001Y002321D02*
X020835Y002321D01*
X020994Y002479D02*
X018842Y002479D01*
X018684Y002638D02*
X021152Y002638D01*
X020554Y002796D02*
X019541Y002796D01*
X019506Y002761D02*
X020028Y003283D01*
X020028Y003572D01*
X019217Y003572D01*
X019217Y003732D01*
X020028Y003732D01*
X020028Y004021D01*
X019506Y004543D01*
X019217Y004543D01*
X019217Y003732D01*
X019057Y003732D01*
X019057Y004543D01*
X018768Y004543D01*
X018246Y004021D01*
X018246Y003732D01*
X019057Y003732D01*
X019057Y003572D01*
X019217Y003572D01*
X019217Y002761D01*
X019506Y002761D01*
X019700Y002955D02*
X020396Y002955D01*
X020237Y003113D02*
X019858Y003113D01*
X020017Y003272D02*
X020079Y003272D01*
X020037Y003430D02*
X020028Y003430D01*
X020037Y003589D02*
X019217Y003589D01*
X019217Y003747D02*
X019057Y003747D01*
X019057Y003589D02*
X017440Y003589D01*
X017440Y003747D02*
X018246Y003747D01*
X018246Y003906D02*
X017440Y003906D01*
X017564Y004064D02*
X018289Y004064D01*
X018447Y004223D02*
X017723Y004223D01*
X017881Y004381D02*
X018606Y004381D01*
X018558Y004540D02*
X018764Y004540D01*
X018558Y004698D02*
X022920Y004698D01*
X022920Y004540D02*
X021388Y004540D01*
X021547Y004381D02*
X022896Y004381D01*
X022737Y004223D02*
X021705Y004223D01*
X021859Y004064D02*
X022579Y004064D01*
X022420Y003906D02*
X021859Y003906D01*
X021859Y003747D02*
X022262Y003747D01*
X022103Y003589D02*
X021859Y003589D01*
X021859Y003430D02*
X021945Y003430D01*
X022997Y003747D02*
X023246Y003747D01*
X023246Y003906D02*
X023156Y003906D01*
X023430Y004223D02*
X023447Y004223D01*
X023440Y004381D02*
X023606Y004381D01*
X023764Y004540D02*
X023440Y004540D01*
X023440Y004698D02*
X028170Y004698D01*
X028170Y004540D02*
X024509Y004540D01*
X024668Y004381D02*
X028229Y004381D01*
X028387Y004223D02*
X024826Y004223D01*
X024985Y004064D02*
X025475Y004064D01*
X025316Y003906D02*
X025028Y003906D01*
X025028Y003747D02*
X025158Y003747D01*
X026185Y004064D02*
X027353Y004064D01*
X027360Y004071D02*
X026907Y003618D01*
X026907Y003378D01*
X027600Y003378D01*
X027600Y004071D01*
X027360Y004071D01*
X027195Y003906D02*
X026344Y003906D01*
X026502Y003747D02*
X027036Y003747D01*
X026907Y003589D02*
X026623Y003589D01*
X026623Y003430D02*
X026907Y003430D01*
X026907Y003218D02*
X026907Y002978D01*
X027360Y002525D01*
X027600Y002525D01*
X027600Y003218D01*
X026907Y003218D01*
X026907Y003113D02*
X026623Y003113D01*
X026609Y002955D02*
X026930Y002955D01*
X027088Y002796D02*
X026450Y002796D01*
X026292Y002638D02*
X027247Y002638D01*
X027600Y002638D02*
X027760Y002638D01*
X027760Y002525D02*
X028000Y002525D01*
X028453Y002978D01*
X028453Y003218D01*
X027760Y003218D01*
X027760Y003378D01*
X027600Y003378D01*
X027600Y003218D01*
X027760Y003218D01*
X027760Y002525D01*
X028113Y002638D02*
X029068Y002638D01*
X028910Y002796D02*
X028272Y002796D01*
X028430Y002955D02*
X028751Y002955D01*
X028737Y003113D02*
X028453Y003113D01*
X028737Y003272D02*
X027760Y003272D01*
X027760Y003378D02*
X028453Y003378D01*
X028453Y003618D01*
X028000Y004071D01*
X027760Y004071D01*
X027760Y003378D01*
X027760Y003430D02*
X027600Y003430D01*
X027600Y003272D02*
X026623Y003272D01*
X027600Y003113D02*
X027760Y003113D01*
X027760Y002955D02*
X027600Y002955D01*
X027600Y002796D02*
X027760Y002796D01*
X028453Y003430D02*
X028737Y003430D01*
X028737Y003589D02*
X028453Y003589D01*
X028324Y003747D02*
X028858Y003747D01*
X028704Y003906D02*
X028165Y003906D01*
X028007Y004064D02*
X028546Y004064D01*
X028964Y004381D02*
X030450Y004381D01*
X030450Y004497D02*
X030450Y004099D01*
X030731Y003818D01*
X031129Y003818D01*
X031410Y004099D01*
X031410Y004497D01*
X031129Y004778D01*
X030731Y004778D01*
X030450Y004497D01*
X030493Y004540D02*
X028806Y004540D01*
X028690Y004698D02*
X030652Y004698D01*
X030740Y004857D02*
X030120Y004857D01*
X030202Y004891D02*
X030337Y005026D01*
X030410Y005202D01*
X030410Y005393D01*
X030337Y005570D01*
X030202Y005705D01*
X030025Y005778D01*
X029835Y005778D01*
X029658Y005705D01*
X029523Y005570D01*
X029450Y005393D01*
X029450Y005202D01*
X029523Y005026D01*
X029658Y004891D01*
X029835Y004818D01*
X030025Y004818D01*
X030202Y004891D01*
X030326Y005015D02*
X030534Y005015D01*
X030523Y005026D02*
X030658Y004891D01*
X030835Y004818D01*
X031025Y004818D01*
X031202Y004891D01*
X031337Y005026D01*
X031410Y005202D01*
X031410Y005393D01*
X031337Y005570D01*
X031202Y005705D01*
X031025Y005778D01*
X030835Y005778D01*
X030658Y005705D01*
X030523Y005570D01*
X030450Y005393D01*
X030450Y005202D01*
X030523Y005026D01*
X030462Y005174D02*
X030398Y005174D01*
X030410Y005332D02*
X030450Y005332D01*
X030490Y005491D02*
X030370Y005491D01*
X030257Y005649D02*
X030603Y005649D01*
X031257Y005649D02*
X031603Y005649D01*
X031610Y005657D02*
X031523Y005570D01*
X031450Y005393D01*
X031450Y005202D01*
X031523Y005026D01*
X031658Y004891D01*
X031835Y004818D01*
X032025Y004818D01*
X032202Y004891D01*
X032337Y005026D01*
X032410Y005202D01*
X032410Y005393D01*
X032337Y005570D01*
X032250Y005657D01*
X032250Y006165D01*
X033111Y007027D01*
X033201Y007117D01*
X033250Y007234D01*
X033250Y007610D01*
X033283Y007577D01*
X033670Y007190D01*
X033670Y005710D01*
X033658Y005705D01*
X033523Y005570D01*
X033450Y005393D01*
X033450Y005202D01*
X033523Y005026D01*
X033658Y004891D01*
X033835Y004818D01*
X034025Y004818D01*
X034202Y004891D01*
X034337Y005026D01*
X034410Y005202D01*
X034410Y005393D01*
X034337Y005570D01*
X034202Y005705D01*
X034190Y005710D01*
X034190Y007350D01*
X034150Y007445D01*
X033738Y007858D01*
X033835Y007818D01*
X034025Y007818D01*
X034170Y007878D01*
X034170Y007746D01*
X034210Y007651D01*
X034283Y007577D01*
X034670Y007190D01*
X034670Y005710D01*
X034658Y005705D01*
X034523Y005570D01*
X034450Y005393D01*
X034450Y005202D01*
X034523Y005026D01*
X034658Y004891D01*
X034835Y004818D01*
X035025Y004818D01*
X035202Y004891D01*
X035337Y005026D01*
X035410Y005202D01*
X035410Y005393D01*
X035337Y005570D01*
X035202Y005705D01*
X035190Y005710D01*
X035190Y007350D01*
X035150Y007445D01*
X034738Y007858D01*
X034835Y007818D01*
X035025Y007818D01*
X035202Y007891D01*
X035337Y008026D01*
X035410Y008202D01*
X035410Y008393D01*
X035337Y008570D01*
X035202Y008705D01*
X035025Y008778D01*
X034835Y008778D01*
X034658Y008705D01*
X034649Y008696D01*
X034577Y008768D01*
X034440Y008906D01*
X034440Y010350D01*
X034400Y010445D01*
X034327Y010518D01*
X033440Y011406D01*
X033440Y013600D01*
X033400Y013695D01*
X033160Y013936D01*
X033160Y014247D01*
X032879Y014528D01*
X032481Y014528D01*
X032200Y014247D01*
X032200Y013849D01*
X032481Y013568D01*
X032792Y013568D01*
X032920Y013440D01*
X032920Y011350D01*
X032920Y011246D01*
X032960Y011151D01*
X033920Y010190D01*
X033920Y008778D01*
X033835Y008778D01*
X033690Y008718D01*
X033690Y009600D01*
X033650Y009695D01*
X033577Y009768D01*
X033190Y010156D01*
X033190Y010647D01*
X033150Y010742D01*
X032779Y011114D01*
X032807Y011182D01*
X032807Y011413D01*
X032719Y011626D01*
X032556Y011790D01*
X032522Y011804D01*
X032592Y011855D01*
X032654Y011917D01*
X032706Y011989D01*
X032746Y012067D01*
X032773Y012151D01*
X032787Y012238D01*
X032787Y012264D01*
X032246Y012264D01*
X032246Y012301D01*
X032209Y012301D01*
X032209Y012842D01*
X032183Y012842D01*
X032096Y012828D01*
X032012Y012801D01*
X031934Y012761D01*
X031862Y012709D01*
X031800Y012647D01*
X031748Y012576D01*
X031708Y012497D01*
X031681Y012413D01*
X031667Y012326D01*
X031667Y012301D01*
X032209Y012301D01*
X032209Y012264D01*
X031667Y012264D01*
X031667Y012238D01*
X031681Y012151D01*
X031708Y012067D01*
X031748Y011989D01*
X025207Y011989D01*
X025206Y011989D02*
X025246Y012067D01*
X025273Y012151D01*
X025287Y012238D01*
X025287Y012264D01*
X024746Y012264D01*
X024746Y012301D01*
X024709Y012301D01*
X024709Y012842D01*
X024683Y012842D01*
X024596Y012828D01*
X024512Y012801D01*
X024434Y012761D01*
X024362Y012709D01*
X024300Y012647D01*
X024248Y012576D01*
X024208Y012497D01*
X024181Y012413D01*
X024167Y012326D01*
X024167Y012301D01*
X024709Y012301D01*
X024709Y012264D01*
X024167Y012264D01*
X024167Y012238D01*
X024181Y012151D01*
X024208Y012067D01*
X024248Y011989D01*
X017707Y011989D01*
X017772Y012148D02*
X024182Y012148D01*
X024167Y012306D02*
X017787Y012306D01*
X017787Y012301D02*
X017787Y012326D01*
X017773Y012413D01*
X017746Y012497D01*
X017706Y012576D01*
X017654Y012647D01*
X017592Y012709D01*
X017521Y012761D01*
X017442Y012801D01*
X017358Y012828D01*
X017271Y012842D01*
X017246Y012842D01*
X017246Y012301D01*
X017787Y012301D01*
X017757Y012465D02*
X019747Y012465D01*
X019876Y012336D02*
X019446Y012766D01*
X019446Y012989D01*
X020100Y012989D01*
X020260Y012989D01*
X020260Y012336D01*
X020484Y012336D01*
X020914Y012766D01*
X020914Y012989D01*
X020260Y012989D01*
X020260Y013149D01*
X020914Y013149D01*
X020914Y013373D01*
X020484Y013803D01*
X020260Y013803D01*
X020260Y013150D01*
X020100Y013150D01*
X020100Y013803D01*
X019876Y013803D01*
X019446Y013373D01*
X019446Y013149D01*
X020100Y013149D01*
X020100Y012989D01*
X020100Y012336D01*
X019876Y012336D01*
X020100Y012465D02*
X020260Y012465D01*
X020260Y012623D02*
X020100Y012623D01*
X020100Y012782D02*
X020260Y012782D01*
X020260Y012940D02*
X020100Y012940D01*
X020100Y013099D02*
X016934Y013099D01*
X017092Y013257D02*
X019446Y013257D01*
X019489Y013416D02*
X017251Y013416D01*
X017409Y013574D02*
X019647Y013574D01*
X019806Y013733D02*
X017568Y013733D01*
X017726Y013891D02*
X020950Y013891D01*
X020950Y013849D02*
X021231Y013568D01*
X021629Y013568D01*
X021910Y013849D01*
X021910Y014247D01*
X021629Y014528D01*
X021231Y014528D01*
X020950Y014247D01*
X020950Y013849D01*
X021066Y013733D02*
X020554Y013733D01*
X020713Y013574D02*
X021225Y013574D01*
X020871Y013416D02*
X026989Y013416D01*
X026946Y013373D02*
X026946Y013149D01*
X027600Y013149D01*
X027600Y012989D01*
X027760Y012989D01*
X027760Y012336D01*
X027984Y012336D01*
X028414Y012766D01*
X028414Y012989D01*
X027760Y012989D01*
X027760Y013149D01*
X028414Y013149D01*
X028414Y013373D01*
X027984Y013803D01*
X027760Y013803D01*
X027760Y013150D01*
X027600Y013150D01*
X027600Y013803D01*
X027376Y013803D01*
X026946Y013373D01*
X026946Y013257D02*
X023399Y013257D01*
X023379Y013278D02*
X022981Y013278D01*
X022700Y012997D01*
X022700Y012599D01*
X022981Y012318D01*
X023379Y012318D01*
X023660Y012599D01*
X023660Y012997D01*
X023379Y013278D01*
X023558Y013099D02*
X027600Y013099D01*
X027600Y012989D02*
X026946Y012989D01*
X026946Y012766D01*
X027376Y012336D01*
X027600Y012336D01*
X027600Y012989D01*
X027600Y012940D02*
X027760Y012940D01*
X027760Y012782D02*
X027600Y012782D01*
X027600Y012623D02*
X027760Y012623D01*
X027760Y012465D02*
X027600Y012465D01*
X027247Y012465D02*
X025257Y012465D01*
X025246Y012497D02*
X025206Y012576D01*
X025154Y012647D01*
X025092Y012709D01*
X025021Y012761D01*
X024942Y012801D01*
X024858Y012828D01*
X024771Y012842D01*
X024746Y012842D01*
X024746Y012301D01*
X025287Y012301D01*
X025287Y012326D01*
X025273Y012413D01*
X025246Y012497D01*
X025171Y012623D02*
X027089Y012623D01*
X026946Y012782D02*
X024980Y012782D01*
X024746Y012782D02*
X024709Y012782D01*
X024709Y012623D02*
X024746Y012623D01*
X024746Y012465D02*
X024709Y012465D01*
X024709Y012306D02*
X024746Y012306D01*
X025287Y012306D02*
X031667Y012306D01*
X031682Y012148D02*
X025272Y012148D01*
X025206Y011989D02*
X025154Y011917D01*
X025092Y011855D01*
X025022Y011804D01*
X025056Y011790D01*
X025219Y011626D01*
X025307Y011413D01*
X025307Y011182D01*
X025219Y010969D01*
X025056Y010806D01*
X025055Y010806D01*
X025056Y010805D01*
X025219Y010642D01*
X025307Y010429D01*
X025307Y010198D01*
X025219Y009985D01*
X025056Y009822D01*
X025047Y009818D01*
X025047Y005781D01*
X024999Y005664D01*
X024660Y005325D01*
X024660Y005202D01*
X024587Y005026D01*
X024452Y004891D01*
X024275Y004818D01*
X024085Y004818D01*
X023908Y004891D01*
X023773Y005026D01*
X023700Y005202D01*
X023700Y005393D01*
X023773Y005570D01*
X023908Y005705D01*
X024085Y005778D01*
X024207Y005778D01*
X024407Y005978D01*
X024407Y007872D01*
X024275Y007818D01*
X024085Y007818D01*
X023908Y007891D01*
X023773Y008026D01*
X023700Y008202D01*
X023700Y008393D01*
X023773Y008570D01*
X023908Y008705D01*
X024085Y008778D01*
X024275Y008778D01*
X024407Y008723D01*
X024407Y009818D01*
X024399Y009822D01*
X024236Y009985D01*
X024147Y010198D01*
X024147Y010429D01*
X024236Y010642D01*
X024399Y010805D01*
X024400Y010806D01*
X024399Y010806D01*
X024236Y010969D01*
X024147Y011182D01*
X024147Y011413D01*
X024236Y011626D01*
X024399Y011790D01*
X024433Y011804D01*
X024362Y011855D01*
X024300Y011917D01*
X024248Y011989D01*
X024396Y011831D02*
X017559Y011831D01*
X017673Y011672D02*
X024282Y011672D01*
X024189Y011514D02*
X017766Y011514D01*
X017807Y011355D02*
X024147Y011355D01*
X024147Y011197D02*
X017807Y011197D01*
X018308Y011038D02*
X024207Y011038D01*
X024325Y010880D02*
X018308Y010880D01*
X018308Y010721D02*
X024315Y010721D01*
X024203Y010563D02*
X018308Y010563D01*
X018190Y010404D02*
X024147Y010404D01*
X024147Y010246D02*
X023411Y010246D01*
X023379Y010278D02*
X022981Y010278D01*
X022700Y009997D01*
X022700Y009599D01*
X022981Y009318D01*
X023379Y009318D01*
X023660Y009599D01*
X023660Y009997D01*
X023379Y010278D01*
X023569Y010087D02*
X024193Y010087D01*
X024292Y009929D02*
X023660Y009929D01*
X023660Y009770D02*
X024407Y009770D01*
X024407Y009612D02*
X023660Y009612D01*
X023514Y009453D02*
X024407Y009453D01*
X024407Y009295D02*
X020914Y009295D01*
X020914Y009222D02*
X020914Y009446D01*
X020260Y009446D01*
X020260Y008792D01*
X020484Y008792D01*
X020914Y009222D01*
X020828Y009136D02*
X024407Y009136D01*
X024407Y008978D02*
X020669Y008978D01*
X020511Y008819D02*
X024407Y008819D01*
X025047Y008819D02*
X027349Y008819D01*
X027376Y008792D02*
X027600Y008792D01*
X027600Y009446D01*
X027760Y009446D01*
X027760Y008792D01*
X027984Y008792D01*
X028414Y009222D01*
X028414Y009446D01*
X027760Y009446D01*
X027760Y009606D01*
X028414Y009606D01*
X028414Y009830D01*
X027984Y010260D01*
X027760Y010260D01*
X027760Y009606D01*
X027600Y009606D01*
X027600Y009446D01*
X026946Y009446D01*
X026946Y009222D01*
X027376Y008792D01*
X027246Y008661D02*
X027614Y008661D01*
X027600Y008819D02*
X027760Y008819D01*
X027760Y008978D02*
X027600Y008978D01*
X027600Y009136D02*
X027760Y009136D01*
X027760Y009295D02*
X027600Y009295D01*
X027600Y009453D02*
X025047Y009453D01*
X025047Y009295D02*
X026946Y009295D01*
X027032Y009136D02*
X025047Y009136D01*
X025047Y008978D02*
X027191Y008978D01*
X027025Y008778D02*
X026835Y008778D01*
X026658Y008705D01*
X026523Y008570D01*
X026450Y008393D01*
X026450Y008202D01*
X026523Y008026D01*
X026658Y007891D01*
X026835Y007818D01*
X027025Y007818D01*
X027202Y007891D01*
X027337Y008026D01*
X027410Y008202D01*
X027410Y008393D01*
X027337Y008570D01*
X027202Y008705D01*
X027025Y008778D01*
X026614Y008661D02*
X026246Y008661D01*
X026202Y008705D02*
X026025Y008778D01*
X025835Y008778D01*
X025658Y008705D01*
X025523Y008570D01*
X025450Y008393D01*
X025450Y008202D01*
X025523Y008026D01*
X025658Y007891D01*
X025670Y007886D01*
X025670Y006926D01*
X025669Y006926D01*
X025552Y006809D01*
X025552Y006287D01*
X025669Y006170D01*
X026191Y006170D01*
X026308Y006287D01*
X026308Y006809D01*
X026191Y006926D01*
X026190Y006926D01*
X026190Y007886D01*
X026202Y007891D01*
X026337Y008026D01*
X026410Y008202D01*
X026410Y008393D01*
X026337Y008570D01*
X026202Y008705D01*
X026365Y008502D02*
X026495Y008502D01*
X026450Y008344D02*
X026410Y008344D01*
X026403Y008185D02*
X026457Y008185D01*
X026523Y008027D02*
X026337Y008027D01*
X026190Y007868D02*
X026713Y007868D01*
X027147Y007868D02*
X027713Y007868D01*
X027523Y008027D02*
X027337Y008027D01*
X027403Y008185D02*
X027457Y008185D01*
X027450Y008344D02*
X027410Y008344D01*
X027365Y008502D02*
X027495Y008502D01*
X028011Y008819D02*
X033170Y008819D01*
X033170Y008718D02*
X033025Y008778D01*
X032835Y008778D01*
X032658Y008705D01*
X032523Y008570D01*
X032450Y008393D01*
X032450Y008202D01*
X032523Y008026D01*
X032610Y007939D01*
X032610Y007430D01*
X031659Y006479D01*
X031610Y006361D01*
X031610Y005657D01*
X031610Y005808D02*
X029190Y005808D01*
X029190Y005966D02*
X031610Y005966D01*
X031610Y006125D02*
X029190Y006125D01*
X029190Y006283D02*
X031610Y006283D01*
X031643Y006442D02*
X029190Y006442D01*
X029190Y006600D02*
X031780Y006600D01*
X031938Y006759D02*
X029280Y006759D01*
X029308Y006917D02*
X032097Y006917D01*
X032255Y007076D02*
X029308Y007076D01*
X029308Y007234D02*
X032414Y007234D01*
X032572Y007393D02*
X029224Y007393D01*
X028690Y007551D02*
X032610Y007551D01*
X032610Y007710D02*
X028690Y007710D01*
X028690Y007868D02*
X028713Y007868D01*
X029147Y007868D02*
X029713Y007868D01*
X029658Y007891D02*
X029835Y007818D01*
X030025Y007818D01*
X030202Y007891D01*
X030337Y008026D01*
X030410Y008202D01*
X030410Y008393D01*
X030337Y008570D01*
X030202Y008705D01*
X030025Y008778D01*
X029835Y008778D01*
X029658Y008705D01*
X029523Y008570D01*
X029450Y008393D01*
X029450Y008202D01*
X029523Y008026D01*
X029658Y007891D01*
X029523Y008027D02*
X029337Y008027D01*
X029403Y008185D02*
X029457Y008185D01*
X029450Y008344D02*
X029410Y008344D01*
X029365Y008502D02*
X029495Y008502D01*
X029614Y008661D02*
X029246Y008661D01*
X028614Y008661D02*
X028246Y008661D01*
X028365Y008502D02*
X028495Y008502D01*
X028169Y008978D02*
X029825Y008978D01*
X029775Y009027D02*
X029910Y008893D01*
X030085Y008820D01*
X030275Y008820D01*
X030450Y008893D01*
X030585Y009027D01*
X030657Y009203D01*
X030657Y009393D01*
X030585Y009568D01*
X030450Y009703D01*
X030275Y009775D01*
X030085Y009775D01*
X029910Y009703D01*
X029775Y009568D01*
X029703Y009393D01*
X029703Y009203D01*
X029775Y009027D01*
X029730Y009136D02*
X028328Y009136D01*
X028414Y009295D02*
X029703Y009295D01*
X029728Y009453D02*
X027760Y009453D01*
X027760Y009612D02*
X027600Y009612D01*
X027600Y009606D02*
X027600Y010260D01*
X027376Y010260D01*
X026946Y009830D01*
X026946Y009606D01*
X027600Y009606D01*
X027600Y009770D02*
X027760Y009770D01*
X027760Y009929D02*
X027600Y009929D01*
X027600Y010087D02*
X027760Y010087D01*
X027760Y010246D02*
X027600Y010246D01*
X027362Y010246D02*
X025307Y010246D01*
X025307Y010404D02*
X031647Y010404D01*
X031647Y010429D02*
X031647Y010198D01*
X031736Y009985D01*
X031899Y009822D01*
X032048Y009760D01*
X031910Y009703D01*
X031775Y009568D01*
X031703Y009393D01*
X031703Y009203D01*
X031775Y009027D01*
X031910Y008893D01*
X032085Y008820D01*
X032275Y008820D01*
X032450Y008893D01*
X032585Y009027D01*
X032657Y009203D01*
X032657Y009393D01*
X032585Y009568D01*
X032450Y009703D01*
X032359Y009740D01*
X032556Y009822D01*
X032688Y009954D01*
X032710Y009901D01*
X032783Y009827D01*
X033170Y009440D01*
X033170Y008718D01*
X033170Y008978D02*
X032535Y008978D01*
X032630Y009136D02*
X033170Y009136D01*
X033170Y009295D02*
X032657Y009295D01*
X032632Y009453D02*
X033157Y009453D01*
X032998Y009612D02*
X032541Y009612D01*
X032431Y009770D02*
X032840Y009770D01*
X032698Y009929D02*
X032663Y009929D01*
X032023Y009770D02*
X030287Y009770D01*
X030073Y009770D02*
X028414Y009770D01*
X028414Y009612D02*
X029819Y009612D01*
X030541Y009612D02*
X030847Y009612D01*
X030831Y009596D02*
X030789Y009538D01*
X030756Y009473D01*
X030734Y009405D01*
X030723Y009334D01*
X030723Y009298D01*
X031180Y009298D01*
X031180Y009755D01*
X031216Y009755D01*
X031287Y009744D01*
X031356Y009722D01*
X031420Y009689D01*
X031478Y009647D01*
X031529Y009596D01*
X031571Y009538D01*
X031604Y009473D01*
X031626Y009405D01*
X031637Y009334D01*
X031637Y009298D01*
X031180Y009298D01*
X031180Y009298D01*
X031180Y009755D01*
X031144Y009755D01*
X031073Y009744D01*
X031004Y009722D01*
X030940Y009689D01*
X030882Y009647D01*
X030831Y009596D01*
X030750Y009453D02*
X030632Y009453D01*
X030657Y009295D02*
X030723Y009295D01*
X030723Y009298D02*
X030723Y009262D01*
X030734Y009191D01*
X030756Y009122D01*
X030789Y009058D01*
X030831Y009000D01*
X030882Y008949D01*
X030940Y008907D01*
X031004Y008874D01*
X031073Y008852D01*
X031144Y008840D01*
X031180Y008840D01*
X031216Y008840D01*
X031287Y008852D01*
X031356Y008874D01*
X031420Y008907D01*
X031478Y008949D01*
X031529Y009000D01*
X031571Y009058D01*
X031604Y009122D01*
X031626Y009191D01*
X031637Y009262D01*
X031637Y009298D01*
X031180Y009298D01*
X031180Y009298D01*
X031180Y009298D01*
X030723Y009298D01*
X030751Y009136D02*
X030630Y009136D01*
X030535Y008978D02*
X030853Y008978D01*
X030835Y008778D02*
X030658Y008705D01*
X030523Y008570D01*
X030450Y008393D01*
X030450Y008202D01*
X030523Y008026D01*
X030658Y007891D01*
X030835Y007818D01*
X031025Y007818D01*
X031202Y007891D01*
X031337Y008026D01*
X031410Y008202D01*
X031410Y008393D01*
X031337Y008570D01*
X031202Y008705D01*
X031025Y008778D01*
X030835Y008778D01*
X030614Y008661D02*
X030246Y008661D01*
X030365Y008502D02*
X030495Y008502D01*
X030450Y008344D02*
X030410Y008344D01*
X030403Y008185D02*
X030457Y008185D01*
X030523Y008027D02*
X030337Y008027D01*
X030147Y007868D02*
X030713Y007868D01*
X031147Y007868D02*
X031763Y007868D01*
X031753Y007872D02*
X031822Y007849D01*
X031894Y007838D01*
X031930Y007838D01*
X031966Y007838D01*
X032038Y007849D01*
X032107Y007872D01*
X032171Y007904D01*
X032230Y007947D01*
X032281Y007998D01*
X032323Y008057D01*
X032356Y008121D01*
X032379Y008190D01*
X032390Y008262D01*
X032390Y008298D01*
X032390Y008334D01*
X032379Y008406D01*
X032356Y008474D01*
X032323Y008539D01*
X032281Y008598D01*
X032230Y008649D01*
X032171Y008691D01*
X032107Y008724D01*
X032038Y008747D01*
X031966Y008758D01*
X031930Y008758D01*
X031894Y008758D01*
X031822Y008747D01*
X031753Y008724D01*
X031689Y008691D01*
X031630Y008649D01*
X031579Y008598D01*
X031537Y008539D01*
X031504Y008474D01*
X031481Y008406D01*
X031470Y008334D01*
X031470Y008298D01*
X031930Y008298D01*
X031930Y008758D01*
X031930Y008298D01*
X031930Y008298D01*
X031930Y008298D01*
X032390Y008298D01*
X031930Y008298D01*
X031930Y008298D01*
X031470Y008298D01*
X031470Y008262D01*
X031481Y008190D01*
X031504Y008121D01*
X031537Y008057D01*
X031579Y007998D01*
X031630Y007947D01*
X031689Y007904D01*
X031753Y007872D01*
X031930Y007868D02*
X031930Y007868D01*
X031930Y007838D02*
X031930Y008298D01*
X031930Y008298D01*
X031930Y007838D01*
X032097Y007868D02*
X032610Y007868D01*
X032523Y008027D02*
X032302Y008027D01*
X032377Y008185D02*
X032457Y008185D01*
X032450Y008344D02*
X032388Y008344D01*
X032342Y008502D02*
X032495Y008502D01*
X032614Y008661D02*
X032213Y008661D01*
X031930Y008661D02*
X031930Y008661D01*
X031930Y008502D02*
X031930Y008502D01*
X031930Y008344D02*
X031930Y008344D01*
X031930Y008185D02*
X031930Y008185D01*
X031930Y008027D02*
X031930Y008027D01*
X031558Y008027D02*
X031337Y008027D01*
X031403Y008185D02*
X031483Y008185D01*
X031472Y008344D02*
X031410Y008344D01*
X031365Y008502D02*
X031518Y008502D01*
X031647Y008661D02*
X031246Y008661D01*
X031180Y008840D02*
X031180Y009298D01*
X031180Y009298D01*
X031180Y008840D01*
X031180Y008978D02*
X031180Y008978D01*
X031180Y009136D02*
X031180Y009136D01*
X031180Y009295D02*
X031180Y009295D01*
X031180Y009453D02*
X031180Y009453D01*
X031180Y009612D02*
X031180Y009612D01*
X031513Y009612D02*
X031819Y009612D01*
X031728Y009453D02*
X031610Y009453D01*
X031637Y009295D02*
X031703Y009295D01*
X031730Y009136D02*
X031609Y009136D01*
X031507Y008978D02*
X031825Y008978D01*
X031792Y009929D02*
X028315Y009929D01*
X028156Y010087D02*
X031693Y010087D01*
X031647Y010246D02*
X027998Y010246D01*
X027204Y010087D02*
X025261Y010087D01*
X025163Y009929D02*
X027045Y009929D01*
X026946Y009770D02*
X025047Y009770D01*
X025047Y009612D02*
X026946Y009612D01*
X025614Y008661D02*
X025047Y008661D01*
X025047Y008502D02*
X025495Y008502D01*
X025450Y008344D02*
X025047Y008344D01*
X025047Y008185D02*
X025457Y008185D01*
X025523Y008027D02*
X025047Y008027D01*
X025047Y007868D02*
X025670Y007868D01*
X025670Y007710D02*
X025047Y007710D01*
X025047Y007551D02*
X025670Y007551D01*
X025670Y007393D02*
X025047Y007393D01*
X025047Y007234D02*
X025670Y007234D01*
X025670Y007076D02*
X025047Y007076D01*
X025047Y006917D02*
X025660Y006917D01*
X025552Y006759D02*
X025047Y006759D01*
X025047Y006600D02*
X025552Y006600D01*
X025552Y006442D02*
X025047Y006442D01*
X025047Y006283D02*
X025555Y006283D01*
X026305Y006283D02*
X028170Y006283D01*
X028170Y006125D02*
X025047Y006125D01*
X025047Y005966D02*
X028170Y005966D01*
X028170Y005808D02*
X025047Y005808D01*
X024984Y005649D02*
X025603Y005649D01*
X025658Y005705D02*
X025523Y005570D01*
X025450Y005393D01*
X025450Y005202D01*
X025523Y005026D01*
X025658Y004891D01*
X025835Y004818D01*
X026025Y004818D01*
X026202Y004891D01*
X026337Y005026D01*
X026410Y005202D01*
X026410Y005393D01*
X026337Y005570D01*
X026202Y005705D01*
X026025Y005778D01*
X025835Y005778D01*
X025658Y005705D01*
X025490Y005491D02*
X024826Y005491D01*
X024667Y005332D02*
X025450Y005332D01*
X025462Y005174D02*
X024648Y005174D01*
X024576Y005015D02*
X025534Y005015D01*
X025740Y004857D02*
X024370Y004857D01*
X023990Y004857D02*
X023440Y004857D01*
X023576Y005015D02*
X023784Y005015D01*
X023712Y005174D02*
X023648Y005174D01*
X023660Y005332D02*
X023700Y005332D01*
X023740Y005491D02*
X023620Y005491D01*
X023507Y005649D02*
X023853Y005649D01*
X024237Y005808D02*
X017440Y005808D01*
X017440Y005746D02*
X017440Y006879D01*
X017660Y007099D01*
X017660Y007497D01*
X017379Y007778D01*
X016981Y007778D01*
X016700Y007497D01*
X016700Y007099D01*
X016920Y006879D01*
X016920Y005906D01*
X016711Y005696D01*
X016629Y005778D01*
X016231Y005778D01*
X015950Y005497D01*
X015950Y005099D01*
X016231Y004818D01*
X016629Y004818D01*
X016910Y005099D01*
X016910Y005160D01*
X017400Y005651D01*
X017440Y005746D01*
X017399Y005649D02*
X018603Y005649D01*
X019257Y005649D02*
X019603Y005649D01*
X019731Y005778D02*
X019450Y005497D01*
X019450Y005099D01*
X019731Y004818D01*
X020129Y004818D01*
X020410Y005099D01*
X020410Y005497D01*
X020129Y005778D01*
X019731Y005778D01*
X020257Y005649D02*
X020881Y005649D01*
X020880Y005649D02*
X020829Y005598D01*
X020787Y005539D01*
X020754Y005474D01*
X020731Y005406D01*
X020720Y005334D01*
X020720Y005298D01*
X021180Y005298D01*
X021180Y005758D01*
X021144Y005758D01*
X021072Y005747D01*
X021003Y005724D01*
X020939Y005691D01*
X020880Y005649D01*
X020762Y005491D02*
X020410Y005491D01*
X020410Y005332D02*
X020720Y005332D01*
X020720Y005298D02*
X020720Y005262D01*
X020731Y005190D01*
X020754Y005121D01*
X020787Y005057D01*
X020829Y004998D01*
X020880Y004947D01*
X020939Y004904D01*
X021003Y004872D01*
X021072Y004849D01*
X021144Y004838D01*
X021180Y004838D01*
X021216Y004838D01*
X021288Y004849D01*
X021357Y004872D01*
X021421Y004904D01*
X021480Y004947D01*
X021531Y004998D01*
X021573Y005057D01*
X021606Y005121D01*
X021629Y005190D01*
X021640Y005262D01*
X021640Y005298D01*
X021640Y005334D01*
X021629Y005406D01*
X021606Y005474D01*
X021573Y005539D01*
X021531Y005598D01*
X021480Y005649D01*
X021421Y005691D01*
X021357Y005724D01*
X021288Y005747D01*
X021216Y005758D01*
X021180Y005758D01*
X021180Y005298D01*
X021180Y005298D01*
X021180Y005298D01*
X021640Y005298D01*
X021180Y005298D01*
X021180Y005298D01*
X020720Y005298D01*
X020737Y005174D02*
X020410Y005174D01*
X020326Y005015D02*
X020817Y005015D01*
X021049Y004857D02*
X020168Y004857D01*
X019692Y004857D02*
X019168Y004857D01*
X019326Y005015D02*
X019534Y005015D01*
X019450Y005174D02*
X019410Y005174D01*
X019410Y005332D02*
X019450Y005332D01*
X019450Y005491D02*
X019410Y005491D01*
X018692Y004857D02*
X018558Y004857D01*
X019057Y004540D02*
X019217Y004540D01*
X019217Y004381D02*
X019057Y004381D01*
X019057Y004223D02*
X019217Y004223D01*
X019217Y004064D02*
X019057Y004064D01*
X019057Y003906D02*
X019217Y003906D01*
X019826Y004223D02*
X020190Y004223D01*
X020037Y004064D02*
X019985Y004064D01*
X020028Y003906D02*
X020037Y003906D01*
X020028Y003747D02*
X020037Y003747D01*
X019217Y003430D02*
X019057Y003430D01*
X019057Y003572D02*
X019057Y002761D01*
X018768Y002761D01*
X018246Y003283D01*
X018246Y003572D01*
X019057Y003572D01*
X019057Y003272D02*
X019217Y003272D01*
X019217Y003113D02*
X019057Y003113D01*
X019057Y002955D02*
X019217Y002955D01*
X019217Y002796D02*
X019057Y002796D01*
X018732Y002796D02*
X017440Y002796D01*
X017440Y002638D02*
X017779Y002638D01*
X017620Y002479D02*
X017440Y002479D01*
X017440Y002321D02*
X017462Y002321D01*
X016670Y002321D02*
X013972Y002321D01*
X014122Y002171D02*
X013600Y002693D01*
X013311Y002693D01*
X013311Y001882D01*
X013151Y001882D01*
X013151Y002670D01*
X013191Y002670D01*
X013308Y002787D01*
X013308Y003220D01*
X013768Y002761D01*
X014057Y002761D01*
X014057Y003572D01*
X014217Y003572D01*
X014217Y003732D01*
X015028Y003732D01*
X015028Y004021D01*
X014506Y004543D01*
X014217Y004543D01*
X014217Y003732D01*
X014057Y003732D01*
X014057Y004543D01*
X013768Y004543D01*
X013246Y004021D01*
X013246Y003732D01*
X014057Y003732D01*
X014057Y003572D01*
X013246Y003572D01*
X013246Y003371D01*
X013191Y003426D01*
X013190Y003426D01*
X013190Y004850D01*
X013150Y004945D01*
X013077Y005018D01*
X012982Y005058D01*
X012878Y005058D01*
X012862Y005051D01*
X012910Y005099D01*
X012910Y005497D01*
X012629Y005778D01*
X012231Y005778D01*
X011950Y005497D01*
X011950Y005099D01*
X012231Y004818D01*
X012629Y004818D01*
X012677Y004866D01*
X012670Y004850D01*
X012670Y003426D01*
X012669Y003426D01*
X012552Y003309D01*
X012552Y002787D01*
X012669Y002670D01*
X012839Y002670D01*
X012340Y002171D01*
X012340Y001882D01*
X013151Y001882D01*
X013151Y001722D01*
X012340Y001722D01*
X012340Y001433D01*
X012862Y000911D01*
X013151Y000911D01*
X013151Y001722D01*
X013311Y001722D01*
X013311Y001882D01*
X014122Y001882D01*
X014122Y002171D01*
X014122Y002162D02*
X016670Y002162D01*
X016518Y002004D02*
X014122Y002004D01*
X014122Y001722D02*
X013311Y001722D01*
X013311Y000911D01*
X013600Y000911D01*
X014122Y001433D01*
X014122Y001722D01*
X014122Y001687D02*
X016420Y001687D01*
X016420Y001845D02*
X013311Y001845D01*
X013311Y001687D02*
X013151Y001687D01*
X013151Y001845D02*
X008311Y001845D01*
X008311Y001882D02*
X008311Y001722D01*
X009122Y001722D01*
X009122Y001433D01*
X008600Y000911D01*
X008311Y000911D01*
X008311Y001722D01*
X008151Y001722D01*
X007340Y001722D01*
X007340Y001433D01*
X007862Y000911D01*
X008151Y000911D01*
X008151Y001722D01*
X008151Y001882D01*
X008151Y002693D01*
X007862Y002693D01*
X007340Y002171D01*
X007340Y001882D01*
X008151Y001882D01*
X008311Y001882D01*
X008311Y002693D01*
X008600Y002693D01*
X009122Y002171D01*
X009122Y001882D01*
X008311Y001882D01*
X008311Y002004D02*
X008151Y002004D01*
X008151Y002162D02*
X008311Y002162D01*
X008311Y002321D02*
X008151Y002321D01*
X008151Y002479D02*
X008311Y002479D01*
X008311Y002638D02*
X008151Y002638D01*
X007807Y002638D02*
X005269Y002638D01*
X005129Y002778D02*
X005410Y002497D01*
X005410Y002099D01*
X005129Y001818D01*
X004731Y001818D01*
X004450Y002099D01*
X004450Y002497D01*
X004731Y002778D01*
X005129Y002778D01*
X005396Y002955D02*
X002095Y002955D01*
X002095Y003113D02*
X005237Y003113D01*
X005079Y003272D02*
X001947Y003272D01*
X001789Y003430D02*
X005037Y003430D01*
X005037Y003314D02*
X005570Y002780D01*
X006325Y002780D01*
X006859Y003314D01*
X006859Y004069D01*
X006690Y004238D01*
X006690Y009690D01*
X007670Y010670D01*
X007873Y010670D01*
X007700Y010497D01*
X007700Y010099D01*
X007920Y009879D01*
X007920Y009217D01*
X007700Y008997D01*
X007700Y008599D01*
X007981Y008318D01*
X008379Y008318D01*
X008660Y008599D01*
X008660Y008997D01*
X008440Y009217D01*
X008440Y009879D01*
X008660Y010099D01*
X008660Y010497D01*
X008379Y010778D01*
X008049Y010778D01*
X008058Y010787D01*
X008058Y011309D01*
X007941Y011426D01*
X007419Y011426D01*
X007302Y011309D01*
X007302Y011037D01*
X006210Y009945D01*
X006170Y009850D01*
X006170Y004603D01*
X005570Y004603D01*
X005037Y004069D01*
X005037Y003314D01*
X005037Y003589D02*
X001630Y003589D01*
X000738Y003589D02*
X000380Y003589D01*
X000380Y003747D02*
X005037Y003747D01*
X005037Y003906D02*
X000380Y003906D01*
X000380Y004064D02*
X005037Y004064D01*
X005190Y004223D02*
X003555Y004223D01*
X003451Y004119D02*
X003985Y004653D01*
X003985Y005408D01*
X003825Y005568D01*
X004129Y005568D01*
X004410Y005849D01*
X004410Y006247D01*
X004129Y006528D01*
X003731Y006528D01*
X003450Y006247D01*
X003450Y005941D01*
X002696Y005941D01*
X002163Y005408D01*
X002163Y004653D01*
X002696Y004119D01*
X003451Y004119D01*
X003714Y004381D02*
X005349Y004381D01*
X005507Y004540D02*
X003872Y004540D01*
X003985Y004698D02*
X006170Y004698D01*
X006170Y004857D02*
X005168Y004857D01*
X005129Y004818D02*
X004731Y004818D01*
X004450Y005099D01*
X004450Y005497D01*
X004731Y005778D01*
X005129Y005778D01*
X005410Y005497D01*
X005410Y005099D01*
X005129Y004818D01*
X004692Y004857D02*
X003985Y004857D01*
X003985Y005015D02*
X004534Y005015D01*
X004450Y005174D02*
X003985Y005174D01*
X003985Y005332D02*
X004450Y005332D01*
X004450Y005491D02*
X003902Y005491D01*
X004210Y005649D02*
X004603Y005649D01*
X004369Y005808D02*
X006170Y005808D01*
X006170Y005966D02*
X005527Y005966D01*
X005587Y006026D02*
X005452Y005891D01*
X005275Y005818D01*
X005085Y005818D01*
X004908Y005891D01*
X004773Y006026D01*
X004700Y006202D01*
X004700Y006393D01*
X004773Y006570D01*
X004908Y006705D01*
X005085Y006778D01*
X005275Y006778D01*
X005452Y006705D01*
X005587Y006570D01*
X005660Y006393D01*
X005660Y006202D01*
X005587Y006026D01*
X005628Y006125D02*
X006170Y006125D01*
X006170Y006283D02*
X005660Y006283D01*
X005640Y006442D02*
X006170Y006442D01*
X006170Y006600D02*
X005556Y006600D01*
X005321Y006759D02*
X006170Y006759D01*
X006170Y006917D02*
X005478Y006917D01*
X005452Y006891D02*
X005587Y007026D01*
X005660Y007202D01*
X005660Y007393D01*
X006170Y007393D01*
X006170Y007551D02*
X005595Y007551D01*
X005587Y007570D02*
X005452Y007705D01*
X005275Y007778D01*
X005085Y007778D01*
X004908Y007705D01*
X004773Y007570D01*
X004700Y007393D01*
X003660Y007393D01*
X003660Y007497D02*
X003660Y007099D01*
X003379Y006818D01*
X002981Y006818D01*
X002700Y007099D01*
X002700Y007497D01*
X002981Y007778D01*
X003379Y007778D01*
X003660Y007497D01*
X003605Y007551D02*
X004765Y007551D01*
X004700Y007393D02*
X004700Y007202D01*
X004773Y007026D01*
X004908Y006891D01*
X005085Y006818D01*
X005275Y006818D01*
X005452Y006891D01*
X005608Y007076D02*
X006170Y007076D01*
X006170Y007234D02*
X005660Y007234D01*
X005660Y007393D02*
X005587Y007570D01*
X005440Y007710D02*
X006170Y007710D01*
X006170Y007868D02*
X005347Y007868D01*
X005357Y007872D02*
X005421Y007904D01*
X005480Y007947D01*
X005531Y007998D01*
X005573Y008057D01*
X005606Y008121D01*
X005629Y008190D01*
X005640Y008262D01*
X005640Y008298D01*
X005640Y008334D01*
X005629Y008406D01*
X005606Y008474D01*
X005573Y008539D01*
X005531Y008598D01*
X005480Y008649D01*
X005421Y008691D01*
X005357Y008724D01*
X005288Y008747D01*
X005216Y008758D01*
X005180Y008758D01*
X005144Y008758D01*
X005072Y008747D01*
X005003Y008724D01*
X004939Y008691D01*
X004880Y008649D01*
X004829Y008598D01*
X004787Y008539D01*
X004754Y008474D01*
X004731Y008406D01*
X004720Y008334D01*
X004720Y008298D01*
X005180Y008298D01*
X005180Y008758D01*
X005180Y008298D01*
X005180Y008298D01*
X005640Y008298D01*
X005180Y008298D01*
X005180Y008298D01*
X005180Y008298D01*
X004720Y008298D01*
X004720Y008262D01*
X004731Y008190D01*
X004754Y008121D01*
X004787Y008057D01*
X004829Y007998D01*
X004880Y007947D01*
X004939Y007904D01*
X005003Y007872D01*
X005072Y007849D01*
X005144Y007838D01*
X005180Y007838D01*
X005216Y007838D01*
X005288Y007849D01*
X005357Y007872D01*
X005180Y007868D02*
X005180Y007868D01*
X005180Y007838D02*
X005180Y008298D01*
X005180Y008298D01*
X005180Y007838D01*
X005013Y007868D02*
X000380Y007868D01*
X000380Y007710D02*
X001913Y007710D01*
X001981Y007778D02*
X001700Y007497D01*
X001700Y007099D01*
X001981Y006818D01*
X002379Y006818D01*
X002660Y007099D01*
X002660Y007497D01*
X002379Y007778D01*
X001981Y007778D01*
X001755Y007551D02*
X000380Y007551D01*
X000380Y007393D02*
X001700Y007393D01*
X001700Y007234D02*
X000380Y007234D01*
X000380Y007076D02*
X001723Y007076D01*
X001882Y006917D02*
X000380Y006917D01*
X000380Y006759D02*
X005039Y006759D01*
X004882Y006917D02*
X003478Y006917D01*
X003637Y007076D02*
X004752Y007076D01*
X004700Y007234D02*
X003660Y007234D01*
X003447Y007710D02*
X004920Y007710D01*
X004808Y008027D02*
X000380Y008027D01*
X000380Y008185D02*
X004733Y008185D01*
X004722Y008344D02*
X000380Y008344D01*
X000380Y008502D02*
X004768Y008502D01*
X004897Y008661D02*
X004194Y008661D01*
X004121Y008588D02*
X004390Y008857D01*
X004390Y009048D01*
X004390Y009238D01*
X004121Y009508D01*
X003930Y009508D01*
X003739Y009508D01*
X003470Y009238D01*
X003470Y009048D01*
X003930Y009048D01*
X003930Y009508D01*
X003930Y009048D01*
X003930Y009048D01*
X003930Y009048D01*
X004390Y009048D01*
X003930Y009048D01*
X003930Y009048D01*
X003470Y009048D01*
X003470Y008857D01*
X003739Y008588D01*
X003930Y008588D01*
X004121Y008588D01*
X003930Y008588D02*
X003930Y009048D01*
X003930Y009048D01*
X003930Y008588D01*
X003930Y008661D02*
X003930Y008661D01*
X003930Y008819D02*
X003930Y008819D01*
X003930Y008978D02*
X003930Y008978D01*
X003930Y009136D02*
X003930Y009136D01*
X003930Y009295D02*
X003930Y009295D01*
X003930Y009453D02*
X003930Y009453D01*
X004175Y009453D02*
X005100Y009453D01*
X005100Y009446D02*
X005100Y009606D01*
X004446Y009606D01*
X004446Y009830D01*
X004876Y010260D01*
X005100Y010260D01*
X005100Y009606D01*
X005260Y009606D01*
X005914Y009606D01*
X005914Y009830D01*
X005484Y010260D01*
X005260Y010260D01*
X005260Y009606D01*
X005260Y009446D01*
X005260Y008792D01*
X005484Y008792D01*
X005914Y009222D01*
X005914Y009446D01*
X005260Y009446D01*
X005100Y009446D01*
X005100Y008792D01*
X004876Y008792D01*
X004446Y009222D01*
X004446Y009446D01*
X005100Y009446D01*
X005100Y009295D02*
X005260Y009295D01*
X005260Y009453D02*
X006170Y009453D01*
X006170Y009295D02*
X005914Y009295D01*
X005828Y009136D02*
X006170Y009136D01*
X006170Y008978D02*
X005669Y008978D01*
X005511Y008819D02*
X006170Y008819D01*
X006170Y008661D02*
X005463Y008661D01*
X005592Y008502D02*
X006170Y008502D01*
X006170Y008344D02*
X005638Y008344D01*
X005627Y008185D02*
X006170Y008185D01*
X006170Y008027D02*
X005552Y008027D01*
X005180Y008027D02*
X005180Y008027D01*
X005180Y008185D02*
X005180Y008185D01*
X005180Y008344D02*
X005180Y008344D01*
X005180Y008502D02*
X005180Y008502D01*
X005180Y008661D02*
X005180Y008661D01*
X005100Y008819D02*
X005260Y008819D01*
X005260Y008978D02*
X005100Y008978D01*
X005100Y009136D02*
X005260Y009136D01*
X005260Y009612D02*
X005100Y009612D01*
X005100Y009770D02*
X005260Y009770D01*
X005260Y009929D02*
X005100Y009929D01*
X005100Y010087D02*
X005260Y010087D01*
X005260Y010246D02*
X005100Y010246D01*
X004862Y010246D02*
X002807Y010246D01*
X002807Y010198D02*
X002807Y010429D01*
X002719Y010642D01*
X002556Y010805D01*
X002555Y010806D01*
X002556Y010806D01*
X002719Y010969D01*
X002807Y011182D01*
X002807Y011413D01*
X002719Y011626D01*
X002556Y011790D01*
X002522Y011804D01*
X002592Y011855D01*
X002654Y011917D01*
X002706Y011989D01*
X002746Y012067D01*
X002773Y012151D01*
X002787Y012238D01*
X002787Y012264D01*
X002246Y012264D01*
X002246Y012301D01*
X002209Y012301D01*
X002209Y012842D01*
X002183Y012842D01*
X002096Y012828D01*
X002012Y012801D01*
X001934Y012761D01*
X001862Y012709D01*
X001800Y012647D01*
X001748Y012576D01*
X001708Y012497D01*
X001681Y012413D01*
X001667Y012326D01*
X001667Y012301D01*
X002209Y012301D01*
X002209Y012264D01*
X001667Y012264D01*
X001667Y012238D01*
X001681Y012151D01*
X001708Y012067D01*
X001748Y011989D01*
X000380Y011989D01*
X000380Y011831D02*
X001896Y011831D01*
X001862Y011855D02*
X001933Y011804D01*
X001899Y011790D01*
X001736Y011626D01*
X001647Y011413D01*
X001647Y011182D01*
X001736Y010969D01*
X001899Y010806D01*
X001900Y010806D01*
X001899Y010805D01*
X001736Y010642D01*
X001647Y010429D01*
X001647Y010198D01*
X001736Y009985D01*
X001899Y009822D01*
X002112Y009734D01*
X002343Y009734D01*
X002556Y009822D01*
X002719Y009985D01*
X002807Y010198D01*
X002761Y010087D02*
X004704Y010087D01*
X004545Y009929D02*
X002663Y009929D01*
X002431Y009770D02*
X004446Y009770D01*
X004446Y009612D02*
X000380Y009612D01*
X000380Y009770D02*
X002023Y009770D01*
X001792Y009929D02*
X000380Y009929D01*
X000380Y010087D02*
X001693Y010087D01*
X001647Y010246D02*
X000380Y010246D01*
X000380Y010404D02*
X001647Y010404D01*
X001703Y010563D02*
X000380Y010563D01*
X000380Y010721D02*
X001815Y010721D01*
X001825Y010880D02*
X000380Y010880D01*
X000380Y011038D02*
X001707Y011038D01*
X001647Y011197D02*
X000380Y011197D01*
X000380Y011355D02*
X001647Y011355D01*
X001689Y011514D02*
X000380Y011514D01*
X000380Y011672D02*
X001782Y011672D01*
X001862Y011855D02*
X001800Y011917D01*
X001748Y011989D01*
X001682Y012148D02*
X000380Y012148D01*
X000380Y012306D02*
X001667Y012306D01*
X001698Y012465D02*
X000380Y012465D01*
X000380Y012623D02*
X001783Y012623D01*
X001975Y012782D02*
X000380Y012782D01*
X000380Y012940D02*
X004446Y012940D01*
X004446Y012989D02*
X004446Y012766D01*
X004876Y012336D01*
X005100Y012336D01*
X005100Y012989D01*
X005260Y012989D01*
X005260Y012336D01*
X005484Y012336D01*
X005914Y012766D01*
X005914Y012989D01*
X005260Y012989D01*
X005260Y013149D01*
X005914Y013149D01*
X005914Y013373D01*
X005554Y013733D01*
X005567Y013728D01*
X005793Y013728D01*
X006003Y013815D01*
X006163Y013975D01*
X006250Y014184D01*
X006250Y014411D01*
X006163Y014621D01*
X006003Y014781D01*
X005793Y014868D01*
X005567Y014868D01*
X005357Y014781D01*
X005197Y014621D01*
X005191Y014606D01*
X005180Y014632D01*
X005014Y014798D01*
X004797Y014888D01*
X004563Y014888D01*
X004346Y014798D01*
X004180Y014632D01*
X004090Y014415D01*
X004090Y014180D01*
X004180Y013964D01*
X004346Y013798D01*
X004563Y013708D01*
X004781Y013708D01*
X004446Y013373D01*
X004446Y013149D01*
X005100Y013149D01*
X005100Y012989D01*
X004446Y012989D01*
X004446Y013257D02*
X000380Y013257D01*
X000380Y013099D02*
X005100Y013099D01*
X005100Y013150D02*
X005100Y013803D01*
X005020Y013803D01*
X005180Y013964D01*
X005191Y013989D01*
X005197Y013975D01*
X005357Y013815D01*
X005385Y013803D01*
X005260Y013803D01*
X005260Y013150D01*
X005100Y013150D01*
X005100Y013257D02*
X005260Y013257D01*
X005260Y013099D02*
X007700Y013099D01*
X007981Y012818D01*
X008379Y012818D01*
X008660Y013099D01*
X008660Y013497D01*
X008379Y013778D01*
X007981Y013778D01*
X007700Y013497D01*
X007700Y013099D01*
X007700Y013257D02*
X005914Y013257D01*
X005871Y013416D02*
X007700Y013416D01*
X007778Y013574D02*
X005713Y013574D01*
X005806Y013733D02*
X007554Y013733D01*
X007567Y013728D02*
X007793Y013728D01*
X008003Y013815D01*
X008163Y013975D01*
X008250Y014184D01*
X008250Y014411D01*
X008163Y014621D01*
X008003Y014781D01*
X007793Y014868D01*
X007567Y014868D01*
X007357Y014781D01*
X007197Y014621D01*
X007110Y014411D01*
X007110Y014184D01*
X007197Y013975D01*
X007357Y013815D01*
X007567Y013728D01*
X007806Y013733D02*
X007936Y013733D01*
X008080Y013891D02*
X016821Y013891D01*
X016662Y013733D02*
X013054Y013733D01*
X012984Y013803D02*
X012760Y013803D01*
X012760Y013150D01*
X012600Y013150D01*
X012600Y013803D01*
X012376Y013803D01*
X011946Y013373D01*
X011946Y013149D01*
X012600Y013149D01*
X012600Y012989D01*
X012760Y012989D01*
X012760Y012336D01*
X012984Y012336D01*
X013414Y012766D01*
X013414Y012989D01*
X012760Y012989D01*
X012760Y013149D01*
X013414Y013149D01*
X013414Y013373D01*
X012984Y013803D01*
X012760Y013733D02*
X012600Y013733D01*
X012600Y013574D02*
X012760Y013574D01*
X012760Y013416D02*
X012600Y013416D01*
X012600Y013257D02*
X012760Y013257D01*
X012760Y013099D02*
X014842Y013099D01*
X014802Y013059D02*
X014802Y012537D01*
X014919Y012420D01*
X014920Y012420D01*
X014920Y011926D01*
X014919Y011926D01*
X014802Y011809D01*
X014802Y011287D01*
X014919Y011170D01*
X015441Y011170D01*
X015558Y011287D01*
X015558Y011809D01*
X015441Y011926D01*
X015440Y011926D01*
X015440Y012420D01*
X015441Y012420D01*
X015558Y012537D01*
X015558Y013059D01*
X015441Y013176D01*
X014919Y013176D01*
X014802Y013059D01*
X014802Y012940D02*
X013414Y012940D01*
X013414Y012782D02*
X014802Y012782D01*
X014802Y012623D02*
X013271Y012623D01*
X013113Y012465D02*
X014874Y012465D01*
X014920Y012306D02*
X010287Y012306D01*
X010287Y012301D02*
X010287Y012326D01*
X010273Y012413D01*
X010246Y012497D01*
X010206Y012576D01*
X010154Y012647D01*
X010092Y012709D01*
X010021Y012761D01*
X009942Y012801D01*
X009858Y012828D01*
X009771Y012842D01*
X009746Y012842D01*
X009746Y012301D01*
X009709Y012301D01*
X009709Y012842D01*
X009683Y012842D01*
X009596Y012828D01*
X009512Y012801D01*
X009434Y012761D01*
X009362Y012709D01*
X009300Y012647D01*
X009248Y012576D01*
X009208Y012497D01*
X009181Y012413D01*
X009167Y012326D01*
X009167Y012301D01*
X009709Y012301D01*
X009709Y012264D01*
X009167Y012264D01*
X009167Y012238D01*
X009181Y012151D01*
X009208Y012067D01*
X009248Y011989D01*
X002707Y011989D01*
X002772Y012148D02*
X009182Y012148D01*
X009167Y012306D02*
X002787Y012306D01*
X002787Y012301D02*
X002787Y012326D01*
X002773Y012413D01*
X002746Y012497D01*
X002706Y012576D01*
X002654Y012647D01*
X002592Y012709D01*
X002521Y012761D01*
X002442Y012801D01*
X002358Y012828D01*
X002271Y012842D01*
X002246Y012842D01*
X002246Y012301D01*
X002787Y012301D01*
X002757Y012465D02*
X004747Y012465D01*
X004589Y012623D02*
X002671Y012623D01*
X002480Y012782D02*
X004446Y012782D01*
X005100Y012782D02*
X005260Y012782D01*
X005260Y012940D02*
X005100Y012940D01*
X005100Y012623D02*
X005260Y012623D01*
X005260Y012465D02*
X005100Y012465D01*
X005613Y012465D02*
X009198Y012465D01*
X009283Y012623D02*
X005771Y012623D01*
X005914Y012782D02*
X009475Y012782D01*
X009709Y012782D02*
X009746Y012782D01*
X009746Y012623D02*
X009709Y012623D01*
X009709Y012465D02*
X009746Y012465D01*
X009746Y012306D02*
X009709Y012306D01*
X009746Y012301D02*
X010287Y012301D01*
X010287Y012264D02*
X009746Y012264D01*
X009746Y012301D01*
X010257Y012465D02*
X012247Y012465D01*
X012376Y012336D02*
X011946Y012766D01*
X011946Y012989D01*
X012600Y012989D01*
X012600Y012336D01*
X012376Y012336D01*
X012600Y012465D02*
X012760Y012465D01*
X012760Y012623D02*
X012600Y012623D01*
X012600Y012782D02*
X012760Y012782D01*
X012760Y012940D02*
X012600Y012940D01*
X012600Y013099D02*
X008660Y013099D01*
X008660Y013257D02*
X011946Y013257D01*
X011989Y013416D02*
X008660Y013416D01*
X008582Y013574D02*
X012147Y013574D01*
X012306Y013733D02*
X008424Y013733D01*
X008622Y014050D02*
X008194Y014050D01*
X008250Y014208D02*
X008463Y014208D01*
X008360Y014367D02*
X008250Y014367D01*
X008203Y014525D02*
X008360Y014525D01*
X008360Y014684D02*
X008100Y014684D01*
X007855Y014842D02*
X008418Y014842D01*
X008577Y015001D02*
X007849Y015001D01*
X008098Y015159D02*
X008512Y015159D01*
X008360Y015318D02*
X008202Y015318D01*
X008250Y015476D02*
X008360Y015476D01*
X008360Y015635D02*
X008250Y015635D01*
X008195Y015793D02*
X008369Y015793D01*
X008528Y015952D02*
X008082Y015952D01*
X007278Y015952D02*
X006082Y015952D01*
X006195Y015793D02*
X007165Y015793D01*
X007110Y015635D02*
X006250Y015635D01*
X006250Y015476D02*
X007110Y015476D01*
X007158Y015318D02*
X006202Y015318D01*
X006098Y015159D02*
X007262Y015159D01*
X007511Y015001D02*
X005849Y015001D01*
X005855Y014842D02*
X007505Y014842D01*
X007260Y014684D02*
X006100Y014684D01*
X006203Y014525D02*
X007157Y014525D01*
X007110Y014367D02*
X006250Y014367D01*
X006250Y014208D02*
X007110Y014208D01*
X007166Y014050D02*
X006194Y014050D01*
X006080Y013891D02*
X007280Y013891D01*
X007859Y012940D02*
X005914Y012940D01*
X005260Y013416D02*
X005100Y013416D01*
X005100Y013574D02*
X005260Y013574D01*
X005260Y013733D02*
X005100Y013733D01*
X005108Y013891D02*
X005280Y013891D01*
X005554Y013733D02*
X005554Y013733D01*
X004647Y013574D02*
X000380Y013574D01*
X000380Y013416D02*
X004489Y013416D01*
X004502Y013733D02*
X000757Y013733D01*
X000698Y013733D02*
X000662Y013733D01*
X000603Y013733D02*
X000380Y013733D01*
X000662Y013891D02*
X000698Y013891D01*
X000698Y014050D02*
X000662Y014050D01*
X000662Y014208D02*
X000698Y014208D01*
X000698Y014316D02*
X001250Y014316D01*
X001250Y014343D01*
X001236Y014431D01*
X001208Y014517D01*
X001168Y014597D01*
X001115Y014669D01*
X001051Y014733D01*
X000979Y014785D01*
X000899Y014826D01*
X000813Y014854D01*
X000725Y014868D01*
X000698Y014868D01*
X000698Y014316D01*
X000698Y014367D02*
X000662Y014367D01*
X000662Y014525D02*
X000698Y014525D01*
X000698Y014684D02*
X000662Y014684D01*
X000662Y014842D02*
X000698Y014842D01*
X000849Y014842D02*
X004453Y014842D01*
X004459Y015001D02*
X000841Y015001D01*
X000698Y015001D02*
X000662Y015001D01*
X000519Y015001D02*
X000380Y015001D01*
X000380Y014842D02*
X000511Y014842D01*
X000662Y015159D02*
X000698Y015159D01*
X000698Y015318D02*
X000662Y015318D01*
X000662Y015476D02*
X000698Y015476D01*
X001098Y015159D02*
X004234Y015159D01*
X004137Y015318D02*
X001203Y015318D01*
X001246Y015476D02*
X004090Y015476D01*
X004090Y015635D02*
X001243Y015635D01*
X001195Y015793D02*
X004143Y015793D01*
X004250Y015952D02*
X001082Y015952D01*
X001100Y014684D02*
X004232Y014684D01*
X004136Y014525D02*
X001204Y014525D01*
X001246Y014367D02*
X004090Y014367D01*
X004090Y014208D02*
X001243Y014208D01*
X001193Y014050D02*
X004144Y014050D01*
X004252Y013891D02*
X001080Y013891D01*
X002209Y012782D02*
X002246Y012782D01*
X002246Y012623D02*
X002209Y012623D01*
X002209Y012465D02*
X002246Y012465D01*
X002246Y012306D02*
X002209Y012306D01*
X002559Y011831D02*
X009396Y011831D01*
X009362Y011855D02*
X009433Y011804D01*
X009399Y011790D01*
X009236Y011626D01*
X009147Y011413D01*
X009147Y011182D01*
X009236Y010969D01*
X009399Y010806D01*
X009400Y010806D01*
X009399Y010805D01*
X009236Y010642D01*
X009147Y010429D01*
X009147Y010198D01*
X009236Y009985D01*
X009399Y009822D01*
X009483Y009787D01*
X009483Y008933D01*
X009523Y008838D01*
X010122Y008238D01*
X010025Y008278D01*
X009835Y008278D01*
X009658Y008205D01*
X009523Y008070D01*
X009450Y007893D01*
X009450Y007702D01*
X009523Y007526D01*
X009658Y007391D01*
X009835Y007318D01*
X010025Y007318D01*
X010202Y007391D01*
X010337Y007526D01*
X010410Y007702D01*
X010410Y007893D01*
X010370Y007990D01*
X010670Y007690D01*
X010670Y004603D01*
X010570Y004603D01*
X010037Y004069D01*
X010037Y003314D01*
X010570Y002780D01*
X011325Y002780D01*
X011859Y003314D01*
X011859Y004069D01*
X011325Y004603D01*
X011190Y004603D01*
X011190Y004859D01*
X011231Y004818D01*
X011629Y004818D01*
X011910Y005099D01*
X011910Y005497D01*
X011629Y005778D01*
X011231Y005778D01*
X011190Y005737D01*
X011190Y007850D01*
X011183Y007866D01*
X011231Y007818D01*
X011629Y007818D01*
X011910Y008099D01*
X011910Y008497D01*
X011629Y008778D01*
X011231Y008778D01*
X010950Y008497D01*
X010950Y008146D01*
X010003Y009093D01*
X010003Y009800D01*
X010056Y009822D01*
X010219Y009985D01*
X010307Y010198D01*
X010307Y010303D01*
X012032Y008578D01*
X011950Y008497D01*
X011950Y008099D01*
X012231Y007818D01*
X012629Y007818D01*
X012910Y008099D01*
X012910Y008497D01*
X012629Y008778D01*
X012568Y008778D01*
X012553Y008792D01*
X012600Y008792D01*
X012600Y009446D01*
X012760Y009446D01*
X012760Y008792D01*
X012984Y008792D01*
X013414Y009222D01*
X013414Y009446D01*
X012760Y009446D01*
X012760Y009606D01*
X013414Y009606D01*
X013414Y009830D01*
X012984Y010260D01*
X012760Y010260D01*
X012760Y009606D01*
X012600Y009606D01*
X012600Y009446D01*
X011946Y009446D01*
X011946Y009399D01*
X010265Y011081D01*
X010307Y011182D01*
X010307Y011413D01*
X010219Y011626D01*
X010056Y011790D01*
X010022Y011804D01*
X010092Y011855D01*
X010154Y011917D01*
X010206Y011989D01*
X010246Y012067D01*
X010273Y012151D01*
X010287Y012238D01*
X010287Y012264D01*
X010272Y012148D02*
X014920Y012148D01*
X014920Y011989D02*
X010207Y011989D01*
X010059Y011831D02*
X014824Y011831D01*
X014802Y011672D02*
X010173Y011672D01*
X010266Y011514D02*
X014802Y011514D01*
X014802Y011355D02*
X010307Y011355D01*
X010307Y011197D02*
X014892Y011197D01*
X015468Y011197D02*
X016110Y011197D01*
X016110Y011355D02*
X015558Y011355D01*
X015558Y011514D02*
X016110Y011514D01*
X016110Y011672D02*
X015558Y011672D01*
X015536Y011831D02*
X016110Y011831D01*
X016110Y011989D02*
X015440Y011989D01*
X015440Y012148D02*
X016110Y012148D01*
X016110Y012306D02*
X015440Y012306D01*
X015486Y012465D02*
X016110Y012465D01*
X016110Y012623D02*
X015558Y012623D01*
X015558Y012782D02*
X016110Y012782D01*
X016110Y012940D02*
X015558Y012940D01*
X015518Y013099D02*
X016110Y013099D01*
X016187Y013257D02*
X013414Y013257D01*
X013371Y013416D02*
X016345Y013416D01*
X016504Y013574D02*
X013213Y013574D01*
X013238Y014050D02*
X013622Y014050D01*
X013463Y014208D02*
X013397Y014208D01*
X012622Y014050D02*
X012210Y014050D01*
X012368Y014208D02*
X012463Y014208D01*
X011950Y014208D02*
X011910Y014208D01*
X011910Y014050D02*
X011950Y014050D01*
X011650Y014050D02*
X011210Y014050D01*
X011368Y014208D02*
X011492Y014208D01*
X011910Y014367D02*
X011950Y014367D01*
X011950Y014525D02*
X011910Y014525D01*
X011910Y014684D02*
X011950Y014684D01*
X011950Y014842D02*
X011910Y014842D01*
X011910Y015001D02*
X011950Y015001D01*
X011950Y015159D02*
X011910Y015159D01*
X011910Y015318D02*
X011950Y015318D01*
X011950Y015476D02*
X011910Y015476D01*
X010950Y015476D02*
X010910Y015476D01*
X010910Y015318D02*
X010950Y015318D01*
X010950Y015159D02*
X010910Y015159D01*
X010910Y015001D02*
X010950Y015001D01*
X010950Y014842D02*
X010910Y014842D01*
X010910Y014684D02*
X010950Y014684D01*
X010950Y014525D02*
X010910Y014525D01*
X010910Y014367D02*
X010950Y014367D01*
X010950Y014208D02*
X010910Y014208D01*
X010910Y014050D02*
X010950Y014050D01*
X010650Y014050D02*
X010210Y014050D01*
X010368Y014208D02*
X010492Y014208D01*
X009950Y014208D02*
X009910Y014208D01*
X009910Y014050D02*
X009950Y014050D01*
X009650Y014050D02*
X009238Y014050D01*
X009397Y014208D02*
X009492Y014208D01*
X009910Y014367D02*
X009950Y014367D01*
X009950Y014525D02*
X009910Y014525D01*
X009910Y014684D02*
X009950Y014684D01*
X009950Y014842D02*
X009910Y014842D01*
X009910Y015001D02*
X009950Y015001D01*
X009950Y015159D02*
X009910Y015159D01*
X009910Y015318D02*
X009950Y015318D01*
X009950Y015476D02*
X009910Y015476D01*
X005511Y015001D02*
X004901Y015001D01*
X004907Y014842D02*
X005505Y014842D01*
X005260Y014684D02*
X005128Y014684D01*
X005126Y015159D02*
X005262Y015159D01*
X008501Y012940D02*
X011946Y012940D01*
X011946Y012782D02*
X009980Y012782D01*
X010171Y012623D02*
X012089Y012623D01*
X014238Y014050D02*
X014622Y014050D01*
X014463Y014208D02*
X014397Y014208D01*
X015238Y014050D02*
X015622Y014050D01*
X015463Y014208D02*
X015397Y014208D01*
X016238Y014050D02*
X016979Y014050D01*
X017138Y014208D02*
X016397Y014208D01*
X016500Y014367D02*
X017296Y014367D01*
X017455Y014525D02*
X016500Y014525D01*
X016500Y014684D02*
X017613Y014684D01*
X017772Y014842D02*
X016442Y014842D01*
X016283Y015001D02*
X017011Y015001D01*
X016762Y015159D02*
X016348Y015159D01*
X016500Y015318D02*
X016658Y015318D01*
X016610Y015476D02*
X016500Y015476D01*
X016500Y015635D02*
X016610Y015635D01*
X016665Y015793D02*
X016491Y015793D01*
X016332Y015952D02*
X016778Y015952D01*
X017582Y015952D02*
X018778Y015952D01*
X018665Y015793D02*
X017695Y015793D01*
X017750Y015635D02*
X018564Y015635D01*
X018406Y015476D02*
X017750Y015476D01*
X017702Y015318D02*
X018247Y015318D01*
X018089Y015159D02*
X017598Y015159D01*
X017349Y015001D02*
X017930Y015001D01*
X018360Y014525D02*
X021229Y014525D01*
X021070Y014367D02*
X018202Y014367D01*
X018043Y014208D02*
X020950Y014208D01*
X020950Y014050D02*
X017885Y014050D01*
X018519Y014684D02*
X025170Y014684D01*
X025170Y014842D02*
X018677Y014842D01*
X018836Y015001D02*
X019011Y015001D01*
X019349Y015001D02*
X020209Y015001D01*
X019984Y015159D02*
X019598Y015159D01*
X019702Y015318D02*
X019887Y015318D01*
X019840Y015476D02*
X019750Y015476D01*
X019750Y015635D02*
X019840Y015635D01*
X019893Y015793D02*
X019695Y015793D01*
X019582Y015952D02*
X020000Y015952D01*
X020860Y015952D02*
X024028Y015952D01*
X023915Y015793D02*
X020967Y015793D01*
X021020Y015635D02*
X023867Y015635D01*
X023860Y015529D02*
X023860Y015503D01*
X023874Y015414D01*
X023902Y015329D01*
X023942Y015249D01*
X023995Y015177D01*
X024059Y015113D01*
X024131Y015060D01*
X024211Y015020D01*
X024297Y014992D01*
X024385Y014978D01*
X024412Y014978D01*
X024412Y015529D01*
X023860Y015529D01*
X023864Y015476D02*
X021020Y015476D01*
X020973Y015318D02*
X023907Y015318D01*
X024012Y015159D02*
X020876Y015159D01*
X020651Y015001D02*
X024269Y015001D01*
X024412Y015001D02*
X024448Y015001D01*
X024591Y015001D02*
X025170Y015001D01*
X025140Y015159D02*
X024848Y015159D01*
X024953Y015318D02*
X024981Y015318D01*
X024448Y015318D02*
X024412Y015318D01*
X024412Y015476D02*
X024448Y015476D01*
X024448Y015159D02*
X024412Y015159D01*
X024231Y014528D02*
X023950Y014247D01*
X023950Y013849D01*
X024231Y013568D01*
X024629Y013568D01*
X024910Y013849D01*
X024910Y014247D01*
X024629Y014528D01*
X024231Y014528D01*
X024229Y014525D02*
X021631Y014525D01*
X021790Y014367D02*
X024070Y014367D01*
X023950Y014208D02*
X021910Y014208D01*
X021910Y014050D02*
X023950Y014050D01*
X023950Y013891D02*
X021910Y013891D01*
X021794Y013733D02*
X024066Y013733D01*
X024225Y013574D02*
X021635Y013574D01*
X020914Y013257D02*
X022961Y013257D01*
X022802Y013099D02*
X020260Y013099D01*
X020260Y013257D02*
X020100Y013257D01*
X020100Y013416D02*
X020260Y013416D01*
X020260Y013574D02*
X020100Y013574D01*
X020100Y013733D02*
X020260Y013733D01*
X020914Y012940D02*
X022700Y012940D01*
X022700Y012782D02*
X020914Y012782D01*
X020771Y012623D02*
X022700Y012623D01*
X022834Y012465D02*
X020613Y012465D01*
X019589Y012623D02*
X017671Y012623D01*
X017480Y012782D02*
X019446Y012782D01*
X019446Y012940D02*
X016775Y012940D01*
X016750Y012782D02*
X016975Y012782D01*
X017209Y012782D02*
X017246Y012782D01*
X017246Y012623D02*
X017209Y012623D01*
X017209Y012465D02*
X017246Y012465D01*
X017246Y012306D02*
X017209Y012306D01*
X016783Y012623D02*
X016750Y012623D01*
X016110Y011038D02*
X010307Y011038D01*
X010466Y010880D02*
X016110Y010880D01*
X016110Y010721D02*
X010624Y010721D01*
X010783Y010563D02*
X016110Y010563D01*
X016110Y010404D02*
X010941Y010404D01*
X011100Y010246D02*
X012362Y010246D01*
X012376Y010260D02*
X011946Y009830D01*
X011946Y009606D01*
X012600Y009606D01*
X012600Y010260D01*
X012376Y010260D01*
X012600Y010246D02*
X012760Y010246D01*
X012760Y010087D02*
X012600Y010087D01*
X012600Y009929D02*
X012760Y009929D01*
X012760Y009770D02*
X012600Y009770D01*
X012600Y009612D02*
X012760Y009612D01*
X012760Y009453D02*
X016110Y009453D01*
X016110Y009612D02*
X013414Y009612D01*
X013414Y009770D02*
X016110Y009770D01*
X016110Y009929D02*
X013315Y009929D01*
X013156Y010087D02*
X016110Y010087D01*
X016110Y010246D02*
X012998Y010246D01*
X012204Y010087D02*
X011258Y010087D01*
X011417Y009929D02*
X012045Y009929D01*
X011946Y009770D02*
X011575Y009770D01*
X011734Y009612D02*
X011946Y009612D01*
X011892Y009453D02*
X012600Y009453D01*
X012600Y009295D02*
X012760Y009295D01*
X012760Y009136D02*
X012600Y009136D01*
X012600Y008978D02*
X012760Y008978D01*
X012760Y008819D02*
X012600Y008819D01*
X012746Y008661D02*
X015114Y008661D01*
X014956Y008502D02*
X012904Y008502D01*
X012910Y008344D02*
X014950Y008344D01*
X014950Y008185D02*
X012910Y008185D01*
X012838Y008027D02*
X015022Y008027D01*
X015181Y007868D02*
X012679Y007868D01*
X012181Y007868D02*
X011679Y007868D01*
X011838Y008027D02*
X012022Y008027D01*
X011950Y008185D02*
X011910Y008185D01*
X011910Y008344D02*
X011950Y008344D01*
X011956Y008502D02*
X011904Y008502D01*
X011949Y008661D02*
X011746Y008661D01*
X011791Y008819D02*
X010276Y008819D01*
X010435Y008661D02*
X011114Y008661D01*
X010956Y008502D02*
X010593Y008502D01*
X010752Y008344D02*
X010950Y008344D01*
X010950Y008185D02*
X010910Y008185D01*
X010492Y007868D02*
X010410Y007868D01*
X010410Y007710D02*
X010650Y007710D01*
X010670Y007551D02*
X010347Y007551D01*
X010204Y007393D02*
X010670Y007393D01*
X010670Y007234D02*
X010130Y007234D01*
X010202Y007205D02*
X010025Y007278D01*
X009835Y007278D01*
X009658Y007205D01*
X009523Y007070D01*
X009450Y006893D01*
X009450Y006702D01*
X009523Y006526D01*
X009658Y006391D01*
X009835Y006318D01*
X010025Y006318D01*
X010202Y006391D01*
X010337Y006526D01*
X010410Y006702D01*
X010410Y006893D01*
X010337Y007070D01*
X010202Y007205D01*
X010331Y007076D02*
X010670Y007076D01*
X010670Y006917D02*
X010400Y006917D01*
X010410Y006759D02*
X010670Y006759D01*
X010670Y006600D02*
X010368Y006600D01*
X010253Y006442D02*
X010670Y006442D01*
X010670Y006283D02*
X006690Y006283D01*
X006690Y006125D02*
X006828Y006125D01*
X006700Y005997D02*
X006981Y006278D01*
X007379Y006278D01*
X007660Y005997D01*
X007660Y005599D01*
X007379Y005318D01*
X006981Y005318D01*
X006700Y005599D01*
X006700Y005997D01*
X006700Y005966D02*
X006690Y005966D01*
X006690Y005808D02*
X006700Y005808D01*
X006690Y005649D02*
X006700Y005649D01*
X006690Y005491D02*
X006808Y005491D01*
X006690Y005332D02*
X006967Y005332D01*
X006690Y005174D02*
X010670Y005174D01*
X010670Y005332D02*
X008393Y005332D01*
X008379Y005318D02*
X008660Y005599D01*
X008660Y005997D01*
X008379Y006278D01*
X007981Y006278D01*
X007700Y005997D01*
X007700Y005599D01*
X007981Y005318D01*
X008379Y005318D01*
X008552Y005491D02*
X009586Y005491D01*
X009579Y005498D02*
X009630Y005447D01*
X009689Y005404D01*
X009753Y005372D01*
X009822Y005349D01*
X009894Y005338D01*
X009930Y005338D01*
X009966Y005338D01*
X010038Y005349D01*
X010107Y005372D01*
X010171Y005404D01*
X010230Y005447D01*
X010281Y005498D01*
X010323Y005557D01*
X010356Y005621D01*
X010379Y005690D01*
X010390Y005762D01*
X010390Y005798D01*
X010390Y005834D01*
X010379Y005906D01*
X010356Y005974D01*
X010323Y006039D01*
X010281Y006098D01*
X010230Y006149D01*
X010171Y006191D01*
X010107Y006224D01*
X010038Y006247D01*
X009966Y006258D01*
X009930Y006258D01*
X009894Y006258D01*
X009822Y006247D01*
X009753Y006224D01*
X009689Y006191D01*
X009630Y006149D01*
X009579Y006098D01*
X009537Y006039D01*
X009504Y005974D01*
X009481Y005906D01*
X009470Y005834D01*
X009470Y005798D01*
X009930Y005798D01*
X009930Y006258D01*
X009930Y005798D01*
X009930Y005798D01*
X010390Y005798D01*
X009930Y005798D01*
X009930Y005798D01*
X009930Y005798D01*
X009470Y005798D01*
X009470Y005762D01*
X009481Y005690D01*
X009504Y005621D01*
X009537Y005557D01*
X009579Y005498D01*
X009495Y005649D02*
X008660Y005649D01*
X008660Y005808D02*
X009470Y005808D01*
X009501Y005966D02*
X008660Y005966D01*
X008532Y006125D02*
X009606Y006125D01*
X009607Y006442D02*
X006690Y006442D01*
X006690Y006600D02*
X009492Y006600D01*
X009450Y006759D02*
X006690Y006759D01*
X006690Y006917D02*
X009460Y006917D01*
X009529Y007076D02*
X006690Y007076D01*
X006690Y007234D02*
X009730Y007234D01*
X009656Y007393D02*
X006690Y007393D01*
X006690Y007551D02*
X009513Y007551D01*
X009450Y007710D02*
X006690Y007710D01*
X006690Y007868D02*
X009450Y007868D01*
X009505Y008027D02*
X006690Y008027D01*
X006690Y008185D02*
X009639Y008185D01*
X009858Y008502D02*
X008563Y008502D01*
X008660Y008661D02*
X009699Y008661D01*
X009541Y008819D02*
X008660Y008819D01*
X008660Y008978D02*
X009483Y008978D01*
X009483Y009136D02*
X008520Y009136D01*
X008440Y009295D02*
X009483Y009295D01*
X009483Y009453D02*
X008440Y009453D01*
X008440Y009612D02*
X009483Y009612D01*
X009483Y009770D02*
X008440Y009770D01*
X008490Y009929D02*
X009292Y009929D01*
X009193Y010087D02*
X008648Y010087D01*
X008660Y010246D02*
X009147Y010246D01*
X009147Y010404D02*
X008660Y010404D01*
X008594Y010563D02*
X009203Y010563D01*
X009315Y010721D02*
X008435Y010721D01*
X008058Y010880D02*
X009325Y010880D01*
X009207Y011038D02*
X008058Y011038D01*
X008058Y011197D02*
X009147Y011197D01*
X009147Y011355D02*
X008012Y011355D01*
X007348Y011355D02*
X002807Y011355D01*
X002807Y011197D02*
X007302Y011197D01*
X007302Y011038D02*
X002748Y011038D01*
X002630Y010880D02*
X007144Y010880D01*
X006986Y010721D02*
X002640Y010721D01*
X002752Y010563D02*
X006827Y010563D01*
X006669Y010404D02*
X002807Y010404D01*
X003685Y009453D02*
X001425Y009453D01*
X001371Y009508D02*
X001180Y009508D01*
X000989Y009508D01*
X000720Y009238D01*
X000720Y009048D01*
X001180Y009048D01*
X001180Y009508D01*
X001180Y009048D01*
X001180Y009048D01*
X001180Y009048D01*
X001640Y009048D01*
X001640Y009238D01*
X001371Y009508D01*
X001180Y009453D02*
X001180Y009453D01*
X001180Y009295D02*
X001180Y009295D01*
X001180Y009136D02*
X001180Y009136D01*
X001180Y009048D02*
X001180Y009048D01*
X000720Y009048D01*
X000720Y008857D01*
X000989Y008588D01*
X001180Y008588D01*
X001371Y008588D01*
X001640Y008857D01*
X001640Y009048D01*
X001180Y009048D01*
X001180Y008588D01*
X001180Y009048D01*
X001180Y009048D01*
X001180Y008978D02*
X001180Y008978D01*
X001180Y008819D02*
X001180Y008819D01*
X001180Y008661D02*
X001180Y008661D01*
X001444Y008661D02*
X003666Y008661D01*
X003508Y008819D02*
X001602Y008819D01*
X001640Y008978D02*
X003470Y008978D01*
X003470Y009136D02*
X001640Y009136D01*
X001584Y009295D02*
X003526Y009295D01*
X004334Y009295D02*
X004446Y009295D01*
X004390Y009136D02*
X004532Y009136D01*
X004390Y008978D02*
X004691Y008978D01*
X004849Y008819D02*
X004352Y008819D01*
X005914Y009612D02*
X006170Y009612D01*
X006170Y009770D02*
X005914Y009770D01*
X005815Y009929D02*
X006203Y009929D01*
X006352Y010087D02*
X005656Y010087D01*
X005498Y010246D02*
X006510Y010246D01*
X007087Y010087D02*
X007712Y010087D01*
X007700Y010246D02*
X007246Y010246D01*
X007404Y010404D02*
X007700Y010404D01*
X007766Y010563D02*
X007563Y010563D01*
X007870Y009929D02*
X006929Y009929D01*
X006770Y009770D02*
X007920Y009770D01*
X007920Y009612D02*
X006690Y009612D01*
X006690Y009453D02*
X007920Y009453D01*
X007920Y009295D02*
X006690Y009295D01*
X006690Y009136D02*
X006868Y009136D01*
X006989Y009258D02*
X006720Y008988D01*
X006720Y008798D01*
X007180Y008798D01*
X007180Y009258D01*
X006989Y009258D01*
X007180Y009258D02*
X007180Y008798D01*
X007180Y008798D01*
X007180Y008798D01*
X007640Y008798D01*
X007640Y008988D01*
X007371Y009258D01*
X007180Y009258D01*
X007180Y009136D02*
X007180Y009136D01*
X007180Y008978D02*
X007180Y008978D01*
X007180Y008819D02*
X007180Y008819D01*
X007180Y008798D02*
X007180Y008798D01*
X006720Y008798D01*
X006720Y008607D01*
X006989Y008338D01*
X007180Y008338D01*
X007371Y008338D01*
X007640Y008607D01*
X007640Y008798D01*
X007180Y008798D01*
X007180Y008338D01*
X007180Y008798D01*
X007180Y008798D01*
X007180Y008661D02*
X007180Y008661D01*
X007180Y008502D02*
X007180Y008502D01*
X007180Y008344D02*
X007180Y008344D01*
X007377Y008344D02*
X007955Y008344D01*
X007797Y008502D02*
X007535Y008502D01*
X007640Y008661D02*
X007700Y008661D01*
X007700Y008819D02*
X007640Y008819D01*
X007640Y008978D02*
X007700Y008978D01*
X007840Y009136D02*
X007492Y009136D01*
X006720Y008978D02*
X006690Y008978D01*
X006690Y008819D02*
X006720Y008819D01*
X006720Y008661D02*
X006690Y008661D01*
X006690Y008502D02*
X006825Y008502D01*
X006690Y008344D02*
X006983Y008344D01*
X008405Y008344D02*
X010016Y008344D01*
X010118Y008978D02*
X011632Y008978D01*
X011474Y009136D02*
X010003Y009136D01*
X010003Y009295D02*
X011315Y009295D01*
X011157Y009453D02*
X010003Y009453D01*
X010003Y009612D02*
X010998Y009612D01*
X010840Y009770D02*
X010003Y009770D01*
X010163Y009929D02*
X010681Y009929D01*
X010523Y010087D02*
X010261Y010087D01*
X010307Y010246D02*
X010364Y010246D01*
X009189Y011514D02*
X002766Y011514D01*
X002673Y011672D02*
X009282Y011672D01*
X009362Y011855D02*
X009300Y011917D01*
X009248Y011989D01*
X013414Y009295D02*
X015974Y009295D01*
X015816Y009136D02*
X013328Y009136D01*
X013169Y008978D02*
X015657Y008978D01*
X015499Y008819D02*
X013011Y008819D01*
X011190Y007710D02*
X016913Y007710D01*
X016755Y007551D02*
X011190Y007551D01*
X011190Y007393D02*
X016700Y007393D01*
X016700Y007234D02*
X011190Y007234D01*
X011190Y007076D02*
X016723Y007076D01*
X016882Y006917D02*
X011190Y006917D01*
X011190Y006759D02*
X016920Y006759D01*
X016920Y006600D02*
X011190Y006600D01*
X011190Y006442D02*
X016920Y006442D01*
X016920Y006283D02*
X011190Y006283D01*
X011190Y006125D02*
X016920Y006125D01*
X016920Y005966D02*
X011190Y005966D01*
X011190Y005808D02*
X016822Y005808D01*
X017440Y005966D02*
X024396Y005966D01*
X024407Y006125D02*
X017440Y006125D01*
X017440Y006283D02*
X024407Y006283D01*
X024407Y006442D02*
X017440Y006442D01*
X017440Y006600D02*
X024407Y006600D01*
X024407Y006759D02*
X017440Y006759D01*
X017478Y006917D02*
X017882Y006917D01*
X017981Y006818D02*
X017700Y007099D01*
X017700Y007497D01*
X017981Y007778D01*
X018379Y007778D01*
X018660Y007497D01*
X018660Y007099D01*
X018379Y006818D01*
X017981Y006818D01*
X018478Y006917D02*
X024407Y006917D01*
X024407Y007076D02*
X018637Y007076D01*
X018660Y007234D02*
X024407Y007234D01*
X024407Y007393D02*
X018660Y007393D01*
X018605Y007551D02*
X024407Y007551D01*
X024407Y007710D02*
X018447Y007710D01*
X018681Y007868D02*
X016651Y007868D01*
X016621Y007838D02*
X016890Y008107D01*
X016890Y008298D01*
X016890Y008488D01*
X016621Y008758D01*
X016430Y008758D01*
X016430Y008298D01*
X016430Y008298D01*
X016890Y008298D01*
X016430Y008298D01*
X016430Y008298D01*
X016430Y008298D01*
X015970Y008298D01*
X015970Y008107D01*
X016239Y007838D01*
X016430Y007838D01*
X016621Y007838D01*
X016430Y007838D02*
X016430Y008298D01*
X016430Y008298D01*
X016430Y007838D01*
X016430Y007868D02*
X016430Y007868D01*
X016430Y008027D02*
X016430Y008027D01*
X016430Y008185D02*
X016430Y008185D01*
X016430Y008344D02*
X016430Y008344D01*
X016430Y008502D02*
X016430Y008502D01*
X016430Y008661D02*
X016430Y008661D01*
X016404Y008819D02*
X017670Y008819D01*
X017670Y008978D02*
X016563Y008978D01*
X016709Y009136D02*
X017670Y009136D01*
X017670Y009295D02*
X016750Y009295D01*
X016750Y009453D02*
X017670Y009453D01*
X017670Y009612D02*
X016750Y009612D01*
X016750Y009770D02*
X017023Y009770D01*
X016792Y009929D02*
X016750Y009929D01*
X017431Y009770D02*
X017670Y009770D01*
X017663Y009929D02*
X017670Y009929D01*
X018190Y009929D02*
X019545Y009929D01*
X019446Y009830D02*
X019446Y009606D01*
X020100Y009606D01*
X020100Y009446D01*
X020260Y009446D01*
X020260Y009606D01*
X020914Y009606D01*
X020914Y009830D01*
X020484Y010260D01*
X020260Y010260D01*
X020260Y009606D01*
X020100Y009606D01*
X020100Y010260D01*
X019876Y010260D01*
X019446Y009830D01*
X019446Y009770D02*
X018190Y009770D01*
X018190Y009612D02*
X019446Y009612D01*
X019446Y009446D02*
X019446Y009222D01*
X019876Y008792D01*
X020100Y008792D01*
X020100Y009446D01*
X019446Y009446D01*
X019446Y009295D02*
X018190Y009295D01*
X018190Y009453D02*
X020100Y009453D01*
X020100Y009295D02*
X020260Y009295D01*
X020260Y009453D02*
X022846Y009453D01*
X022700Y009612D02*
X020914Y009612D01*
X020914Y009770D02*
X022700Y009770D01*
X022700Y009929D02*
X020815Y009929D01*
X020656Y010087D02*
X022791Y010087D01*
X022949Y010246D02*
X020498Y010246D01*
X020260Y010246D02*
X020100Y010246D01*
X020100Y010087D02*
X020260Y010087D01*
X020260Y009929D02*
X020100Y009929D01*
X020100Y009770D02*
X020260Y009770D01*
X020260Y009612D02*
X020100Y009612D01*
X020100Y009136D02*
X020260Y009136D01*
X020260Y008978D02*
X020100Y008978D01*
X020100Y008819D02*
X020260Y008819D01*
X020129Y008778D02*
X019731Y008778D01*
X019450Y008497D01*
X019450Y008099D01*
X019731Y007818D01*
X020129Y007818D01*
X020410Y008099D01*
X020410Y008497D01*
X020129Y008778D01*
X020246Y008661D02*
X020864Y008661D01*
X020908Y008705D02*
X020773Y008570D01*
X020700Y008393D01*
X020700Y008202D01*
X020773Y008026D01*
X020908Y007891D01*
X021085Y007818D01*
X021275Y007818D01*
X021452Y007891D01*
X021587Y008026D01*
X021660Y008202D01*
X021660Y008393D01*
X021587Y008570D01*
X021452Y008705D01*
X021275Y008778D01*
X021085Y008778D01*
X020908Y008705D01*
X020745Y008502D02*
X020404Y008502D01*
X020410Y008344D02*
X020700Y008344D01*
X020707Y008185D02*
X020410Y008185D01*
X020338Y008027D02*
X020773Y008027D01*
X020963Y007868D02*
X020179Y007868D01*
X019681Y007868D02*
X019179Y007868D01*
X019129Y007818D02*
X019410Y008099D01*
X019410Y008497D01*
X019129Y008778D01*
X018731Y008778D01*
X018450Y008497D01*
X018450Y008099D01*
X018731Y007818D01*
X019129Y007818D01*
X019338Y008027D02*
X019522Y008027D01*
X019450Y008185D02*
X019410Y008185D01*
X019410Y008344D02*
X019450Y008344D01*
X019456Y008502D02*
X019404Y008502D01*
X019246Y008661D02*
X019614Y008661D01*
X019849Y008819D02*
X018190Y008819D01*
X018190Y008978D02*
X019691Y008978D01*
X019532Y009136D02*
X018190Y009136D01*
X018206Y008661D02*
X018614Y008661D01*
X018456Y008502D02*
X018308Y008502D01*
X018308Y008344D02*
X018450Y008344D01*
X018450Y008185D02*
X018308Y008185D01*
X018298Y008027D02*
X018522Y008027D01*
X017913Y007710D02*
X017447Y007710D01*
X017605Y007551D02*
X017755Y007551D01*
X017700Y007393D02*
X017660Y007393D01*
X017660Y007234D02*
X017700Y007234D01*
X017723Y007076D02*
X017637Y007076D01*
X016209Y007868D02*
X015679Y007868D01*
X015838Y008027D02*
X016050Y008027D01*
X015970Y008185D02*
X015910Y008185D01*
X015929Y008344D02*
X015970Y008344D01*
X016718Y008661D02*
X017654Y008661D01*
X017552Y008502D02*
X016876Y008502D01*
X016890Y008344D02*
X017552Y008344D01*
X017552Y008185D02*
X016890Y008185D01*
X016810Y008027D02*
X017562Y008027D01*
X021397Y007868D02*
X022013Y007868D01*
X022003Y007872D02*
X022072Y007849D01*
X022144Y007838D01*
X022180Y007838D01*
X022216Y007838D01*
X022288Y007849D01*
X022357Y007872D01*
X022421Y007904D01*
X022480Y007947D01*
X022531Y007998D01*
X022573Y008057D01*
X022606Y008121D01*
X022629Y008190D01*
X022640Y008262D01*
X022640Y008298D01*
X022640Y008334D01*
X022629Y008406D01*
X022606Y008474D01*
X022573Y008539D01*
X022531Y008598D01*
X022480Y008649D01*
X022421Y008691D01*
X022357Y008724D01*
X022288Y008747D01*
X022216Y008758D01*
X022180Y008758D01*
X022144Y008758D01*
X022072Y008747D01*
X022003Y008724D01*
X021939Y008691D01*
X021880Y008649D01*
X021829Y008598D01*
X021787Y008539D01*
X021754Y008474D01*
X021731Y008406D01*
X021720Y008334D01*
X021720Y008298D01*
X022180Y008298D01*
X022180Y008758D01*
X022180Y008298D01*
X022180Y008298D01*
X022180Y008298D01*
X022640Y008298D01*
X022180Y008298D01*
X022180Y008298D01*
X021720Y008298D01*
X021720Y008262D01*
X021731Y008190D01*
X021754Y008121D01*
X021787Y008057D01*
X021829Y007998D01*
X021880Y007947D01*
X021939Y007904D01*
X022003Y007872D01*
X022180Y007868D02*
X022180Y007868D01*
X022180Y007838D02*
X022180Y008298D01*
X022180Y008298D01*
X022180Y007838D01*
X022347Y007868D02*
X022963Y007868D01*
X022908Y007891D02*
X023085Y007818D01*
X023275Y007818D01*
X023452Y007891D01*
X023587Y008026D01*
X023660Y008202D01*
X023660Y008393D01*
X023587Y008570D01*
X023452Y008705D01*
X023275Y008778D01*
X023085Y008778D01*
X022908Y008705D01*
X022773Y008570D01*
X022700Y008393D01*
X022700Y008202D01*
X022773Y008026D01*
X022908Y007891D01*
X022773Y008027D02*
X022552Y008027D01*
X022627Y008185D02*
X022707Y008185D01*
X022700Y008344D02*
X022638Y008344D01*
X022592Y008502D02*
X022745Y008502D01*
X022864Y008661D02*
X022463Y008661D01*
X022180Y008661D02*
X022180Y008661D01*
X022180Y008502D02*
X022180Y008502D01*
X022180Y008344D02*
X022180Y008344D01*
X022180Y008185D02*
X022180Y008185D01*
X022180Y008027D02*
X022180Y008027D01*
X021808Y008027D02*
X021587Y008027D01*
X021653Y008185D02*
X021733Y008185D01*
X021722Y008344D02*
X021660Y008344D01*
X021615Y008502D02*
X021768Y008502D01*
X021897Y008661D02*
X021496Y008661D01*
X023496Y008661D02*
X023864Y008661D01*
X023745Y008502D02*
X023615Y008502D01*
X023660Y008344D02*
X023700Y008344D01*
X023707Y008185D02*
X023653Y008185D01*
X023587Y008027D02*
X023773Y008027D01*
X023963Y007868D02*
X023397Y007868D01*
X024397Y007868D02*
X024407Y007868D01*
X026190Y007710D02*
X028170Y007710D01*
X028170Y007868D02*
X028147Y007868D01*
X028170Y007551D02*
X026190Y007551D01*
X026190Y007393D02*
X028170Y007393D01*
X028170Y007234D02*
X026190Y007234D01*
X026190Y007076D02*
X028170Y007076D01*
X028170Y006917D02*
X026200Y006917D01*
X026308Y006759D02*
X028170Y006759D01*
X028170Y006600D02*
X026308Y006600D01*
X026308Y006442D02*
X028170Y006442D01*
X027202Y005705D02*
X027025Y005778D01*
X026835Y005778D01*
X026658Y005705D01*
X026523Y005570D01*
X026450Y005393D01*
X026450Y005202D01*
X026523Y005026D01*
X026658Y004891D01*
X026835Y004818D01*
X027025Y004818D01*
X027202Y004891D01*
X027337Y005026D01*
X027410Y005202D01*
X027410Y005393D01*
X027337Y005570D01*
X027202Y005705D01*
X027257Y005649D02*
X027603Y005649D01*
X027490Y005491D02*
X027370Y005491D01*
X027410Y005332D02*
X027450Y005332D01*
X027462Y005174D02*
X027398Y005174D01*
X027326Y005015D02*
X027534Y005015D01*
X027740Y004857D02*
X027120Y004857D01*
X026740Y004857D02*
X026120Y004857D01*
X026326Y005015D02*
X026534Y005015D01*
X026462Y005174D02*
X026398Y005174D01*
X026410Y005332D02*
X026450Y005332D01*
X026490Y005491D02*
X026370Y005491D01*
X026257Y005649D02*
X026603Y005649D01*
X028120Y004857D02*
X028170Y004857D01*
X028690Y004857D02*
X028740Y004857D01*
X029120Y004857D02*
X029740Y004857D01*
X029534Y005015D02*
X029326Y005015D01*
X029398Y005174D02*
X029462Y005174D01*
X029450Y005332D02*
X029410Y005332D01*
X029370Y005491D02*
X029490Y005491D01*
X029603Y005649D02*
X029257Y005649D01*
X031120Y004857D02*
X031740Y004857D01*
X031534Y005015D02*
X031326Y005015D01*
X031398Y005174D02*
X031462Y005174D01*
X031450Y005332D02*
X031410Y005332D01*
X031370Y005491D02*
X031490Y005491D01*
X032257Y005649D02*
X032631Y005649D01*
X032630Y005649D02*
X032579Y005598D01*
X032537Y005539D01*
X032504Y005474D01*
X032481Y005406D01*
X032470Y005334D01*
X032470Y005298D01*
X032930Y005298D01*
X032930Y005758D01*
X032894Y005758D01*
X032822Y005747D01*
X032753Y005724D01*
X032689Y005691D01*
X032630Y005649D01*
X032512Y005491D02*
X032370Y005491D01*
X032410Y005332D02*
X032470Y005332D01*
X032470Y005298D02*
X032470Y005262D01*
X032481Y005190D01*
X032504Y005121D01*
X032537Y005057D01*
X032579Y004998D01*
X032630Y004947D01*
X032689Y004904D01*
X032753Y004872D01*
X032822Y004849D01*
X032894Y004838D01*
X032930Y004838D01*
X032966Y004838D01*
X033038Y004849D01*
X033107Y004872D01*
X033171Y004904D01*
X033230Y004947D01*
X033281Y004998D01*
X033323Y005057D01*
X033356Y005121D01*
X033379Y005190D01*
X033390Y005262D01*
X033390Y005298D01*
X033390Y005334D01*
X033379Y005406D01*
X033356Y005474D01*
X033323Y005539D01*
X033281Y005598D01*
X033230Y005649D01*
X033171Y005691D01*
X033107Y005724D01*
X033038Y005747D01*
X032966Y005758D01*
X032930Y005758D01*
X032930Y005298D01*
X032930Y005298D01*
X032930Y005298D01*
X033390Y005298D01*
X032930Y005298D01*
X032930Y005298D01*
X032470Y005298D01*
X032487Y005174D02*
X032398Y005174D01*
X032326Y005015D02*
X032567Y005015D01*
X032799Y004857D02*
X032120Y004857D01*
X032680Y004698D02*
X031208Y004698D01*
X031367Y004540D02*
X032521Y004540D01*
X032470Y004488D02*
X032470Y004298D01*
X032930Y004298D01*
X032930Y004758D01*
X033121Y004758D01*
X033390Y004488D01*
X033390Y004437D01*
X033481Y004528D01*
X033879Y004528D01*
X034160Y004247D01*
X034160Y003849D01*
X033879Y003568D01*
X033481Y003568D01*
X033200Y003849D01*
X033200Y003917D01*
X033121Y003838D01*
X032930Y003838D01*
X032930Y004298D01*
X032930Y004298D01*
X032930Y004758D01*
X032739Y004758D01*
X032470Y004488D01*
X032470Y004381D02*
X031410Y004381D01*
X031410Y004223D02*
X032470Y004223D01*
X032470Y004298D02*
X032470Y004107D01*
X032739Y003838D01*
X032930Y003838D01*
X032930Y004298D01*
X032930Y004298D01*
X032470Y004298D01*
X032930Y004298D02*
X032930Y004298D01*
X032930Y004223D02*
X032930Y004223D01*
X032930Y004381D02*
X032930Y004381D01*
X032930Y004540D02*
X032930Y004540D01*
X032930Y004698D02*
X032930Y004698D01*
X032930Y004838D02*
X032930Y005298D01*
X032930Y005298D01*
X032930Y004838D01*
X032930Y004857D02*
X032930Y004857D01*
X033061Y004857D02*
X033740Y004857D01*
X033534Y005015D02*
X033293Y005015D01*
X033373Y005174D02*
X033462Y005174D01*
X033450Y005332D02*
X033390Y005332D01*
X033348Y005491D02*
X033490Y005491D01*
X033603Y005649D02*
X033229Y005649D01*
X032930Y005649D02*
X032930Y005649D01*
X032930Y005491D02*
X032930Y005491D01*
X032930Y005332D02*
X032930Y005332D01*
X032930Y005174D02*
X032930Y005174D01*
X032930Y005015D02*
X032930Y005015D01*
X033180Y004698D02*
X035670Y004698D01*
X035670Y004540D02*
X033339Y004540D01*
X034025Y004381D02*
X035670Y004381D01*
X035670Y004223D02*
X034160Y004223D01*
X034160Y004064D02*
X035670Y004064D01*
X035670Y003906D02*
X034160Y003906D01*
X034058Y003747D02*
X035670Y003747D01*
X035670Y003589D02*
X033900Y003589D01*
X033948Y003430D02*
X035670Y003430D01*
X035670Y003272D02*
X034107Y003272D01*
X034140Y003113D02*
X035670Y003113D01*
X035670Y002955D02*
X034140Y002955D01*
X034079Y002796D02*
X035670Y002796D01*
X035670Y002638D02*
X033921Y002638D01*
X033927Y002479D02*
X035670Y002479D01*
X035670Y002321D02*
X034086Y002321D01*
X034160Y002162D02*
X035670Y002162D01*
X035670Y002004D02*
X034160Y002004D01*
X034156Y001845D02*
X035670Y001845D01*
X035670Y001687D02*
X033998Y001687D01*
X033680Y002588D02*
X033680Y003048D01*
X033680Y003048D01*
X033680Y002588D01*
X033680Y002638D02*
X033680Y002638D01*
X033680Y002796D02*
X033680Y002796D01*
X033680Y002955D02*
X033680Y002955D01*
X033680Y003113D02*
X033680Y003113D01*
X033680Y003272D02*
X033680Y003272D01*
X033680Y003430D02*
X033680Y003430D01*
X033412Y003430D02*
X030323Y003430D01*
X030323Y003272D02*
X033253Y003272D01*
X033460Y003589D02*
X030323Y003589D01*
X030202Y003747D02*
X033302Y003747D01*
X033200Y003906D02*
X033189Y003906D01*
X032930Y003906D02*
X032930Y003906D01*
X032930Y004064D02*
X032930Y004064D01*
X032671Y003906D02*
X031217Y003906D01*
X031375Y004064D02*
X032513Y004064D01*
X034120Y004857D02*
X034740Y004857D01*
X034534Y005015D02*
X034326Y005015D01*
X034398Y005174D02*
X034462Y005174D01*
X034450Y005332D02*
X034410Y005332D01*
X034370Y005491D02*
X034490Y005491D01*
X034603Y005649D02*
X034257Y005649D01*
X034190Y005808D02*
X034670Y005808D01*
X034670Y005966D02*
X034190Y005966D01*
X034190Y006125D02*
X034670Y006125D01*
X034670Y006283D02*
X034190Y006283D01*
X034190Y006442D02*
X034670Y006442D01*
X034670Y006600D02*
X034190Y006600D01*
X034190Y006759D02*
X034670Y006759D01*
X034670Y006917D02*
X034190Y006917D01*
X034190Y007076D02*
X034670Y007076D01*
X034626Y007234D02*
X034190Y007234D01*
X034172Y007393D02*
X034467Y007393D01*
X034309Y007551D02*
X034044Y007551D01*
X034185Y007710D02*
X033886Y007710D01*
X034147Y007868D02*
X034170Y007868D01*
X034886Y007710D02*
X039350Y007710D01*
X039350Y007868D02*
X039147Y007868D01*
X039337Y008027D02*
X039350Y008027D01*
X038713Y007868D02*
X038147Y007868D01*
X038202Y007891D02*
X038337Y008026D01*
X038410Y008202D01*
X038410Y008393D01*
X038337Y008570D01*
X038202Y008705D01*
X038190Y008710D01*
X038190Y009100D01*
X038150Y009195D01*
X038028Y009318D01*
X038379Y009318D01*
X038660Y009599D01*
X038660Y009997D01*
X038379Y010278D01*
X037981Y010278D01*
X037700Y009997D01*
X037700Y009646D01*
X036690Y010656D01*
X036690Y014100D01*
X036650Y014195D01*
X036142Y014704D01*
X036163Y014725D01*
X036180Y014765D01*
X036197Y014725D01*
X036357Y014565D01*
X036567Y014478D01*
X036793Y014478D01*
X037003Y014565D01*
X037163Y014725D01*
X037192Y014794D01*
X037210Y014760D01*
X037260Y014690D01*
X037322Y014628D01*
X037392Y014577D01*
X037469Y014538D01*
X037551Y014511D01*
X037637Y014498D01*
X037660Y014498D01*
X037660Y015028D01*
X037700Y015028D01*
X037700Y015068D01*
X037660Y015068D01*
X037660Y015598D01*
X037637Y015598D01*
X037551Y015584D01*
X037469Y015558D01*
X037392Y015518D01*
X037322Y015467D01*
X037260Y015406D01*
X037210Y015336D01*
X037192Y015301D01*
X037163Y015371D01*
X037003Y015531D01*
X036793Y015618D01*
X036567Y015618D01*
X036357Y015531D01*
X036197Y015371D01*
X036180Y015330D01*
X036163Y015371D01*
X036003Y015531D01*
X035793Y015618D01*
X035567Y015618D01*
X035357Y015531D01*
X035197Y015371D01*
X035180Y015330D01*
X035163Y015371D01*
X035003Y015531D01*
X034793Y015618D01*
X034567Y015618D01*
X034357Y015531D01*
X034197Y015371D01*
X034180Y015330D01*
X034163Y015371D01*
X034003Y015531D01*
X033793Y015618D01*
X033567Y015618D01*
X033357Y015531D01*
X033197Y015371D01*
X033110Y015161D01*
X033110Y014934D01*
X033197Y014725D01*
X033357Y014565D01*
X033567Y014478D01*
X033793Y014478D01*
X034003Y014565D01*
X034163Y014725D01*
X034180Y014765D01*
X034197Y014725D01*
X034357Y014565D01*
X034567Y014478D01*
X034793Y014478D01*
X035003Y014565D01*
X035024Y014586D01*
X035920Y013690D01*
X035920Y009746D01*
X035960Y009651D01*
X036033Y009577D01*
X036670Y008940D01*
X036670Y008710D01*
X036658Y008705D01*
X036523Y008570D01*
X036450Y008393D01*
X036450Y008202D01*
X036523Y008026D01*
X036658Y007891D01*
X036835Y007818D01*
X037025Y007818D01*
X037202Y007891D01*
X037337Y008026D01*
X037410Y008202D01*
X037410Y008393D01*
X037337Y008570D01*
X037202Y008705D01*
X037190Y008710D01*
X037190Y009100D01*
X037150Y009195D01*
X036440Y009906D01*
X036440Y010170D01*
X037670Y008940D01*
X037670Y008710D01*
X037658Y008705D01*
X037523Y008570D01*
X037450Y008393D01*
X037450Y008202D01*
X037523Y008026D01*
X037658Y007891D01*
X037835Y007818D01*
X038025Y007818D01*
X038202Y007891D01*
X038337Y008027D02*
X038523Y008027D01*
X038457Y008185D02*
X038403Y008185D01*
X038410Y008344D02*
X038450Y008344D01*
X038495Y008502D02*
X038365Y008502D01*
X038246Y008661D02*
X038614Y008661D01*
X038190Y008819D02*
X039350Y008819D01*
X039350Y008661D02*
X039246Y008661D01*
X039350Y008978D02*
X038190Y008978D01*
X038175Y009136D02*
X039350Y009136D01*
X039350Y009295D02*
X038051Y009295D01*
X038514Y009453D02*
X039350Y009453D01*
X039350Y009612D02*
X038660Y009612D01*
X038660Y009770D02*
X039350Y009770D01*
X039350Y009929D02*
X038660Y009929D01*
X038569Y010087D02*
X039350Y010087D01*
X039350Y010246D02*
X038411Y010246D01*
X037949Y010246D02*
X037100Y010246D01*
X037258Y010087D02*
X037791Y010087D01*
X037700Y009929D02*
X037417Y009929D01*
X037575Y009770D02*
X037700Y009770D01*
X037157Y009453D02*
X036892Y009453D01*
X036998Y009612D02*
X036734Y009612D01*
X036840Y009770D02*
X036575Y009770D01*
X036681Y009929D02*
X036440Y009929D01*
X036440Y010087D02*
X036523Y010087D01*
X035920Y010087D02*
X035656Y010087D01*
X035498Y010246D02*
X035920Y010246D01*
X035920Y010404D02*
X034417Y010404D01*
X034440Y010246D02*
X034862Y010246D01*
X034876Y010260D02*
X034446Y009830D01*
X034446Y009606D01*
X035100Y009606D01*
X035100Y009446D01*
X035260Y009446D01*
X035260Y008792D01*
X035484Y008792D01*
X035914Y009222D01*
X035914Y009446D01*
X035260Y009446D01*
X035260Y009606D01*
X035914Y009606D01*
X035914Y009830D01*
X035484Y010260D01*
X035260Y010260D01*
X035260Y009606D01*
X035100Y009606D01*
X035100Y010260D01*
X034876Y010260D01*
X035100Y010246D02*
X035260Y010246D01*
X035260Y010087D02*
X035100Y010087D01*
X035100Y009929D02*
X035260Y009929D01*
X035260Y009770D02*
X035100Y009770D01*
X035100Y009612D02*
X035260Y009612D01*
X035260Y009453D02*
X036157Y009453D01*
X036315Y009295D02*
X035914Y009295D01*
X035828Y009136D02*
X036474Y009136D01*
X036632Y008978D02*
X035669Y008978D01*
X035511Y008819D02*
X036670Y008819D01*
X036614Y008661D02*
X036246Y008661D01*
X036202Y008705D02*
X036025Y008778D01*
X035835Y008778D01*
X035658Y008705D01*
X035523Y008570D01*
X035450Y008393D01*
X035450Y008202D01*
X035523Y008026D01*
X035658Y007891D01*
X035835Y007818D01*
X036025Y007818D01*
X036202Y007891D01*
X036337Y008026D01*
X036410Y008202D01*
X036410Y008393D01*
X036337Y008570D01*
X036202Y008705D01*
X036365Y008502D02*
X036495Y008502D01*
X036450Y008344D02*
X036410Y008344D01*
X036403Y008185D02*
X036457Y008185D01*
X036523Y008027D02*
X036337Y008027D01*
X036147Y007868D02*
X036713Y007868D01*
X037147Y007868D02*
X037713Y007868D01*
X037523Y008027D02*
X037337Y008027D01*
X037403Y008185D02*
X037457Y008185D01*
X037450Y008344D02*
X037410Y008344D01*
X037365Y008502D02*
X037495Y008502D01*
X037614Y008661D02*
X037246Y008661D01*
X037190Y008819D02*
X037670Y008819D01*
X037632Y008978D02*
X037190Y008978D01*
X037175Y009136D02*
X037474Y009136D01*
X037315Y009295D02*
X037051Y009295D01*
X035998Y009612D02*
X035914Y009612D01*
X035914Y009770D02*
X035920Y009770D01*
X035920Y009929D02*
X035815Y009929D01*
X035100Y009453D02*
X034440Y009453D01*
X034446Y009446D02*
X034446Y009222D01*
X034876Y008792D01*
X035100Y008792D01*
X035100Y009446D01*
X034446Y009446D01*
X034440Y009295D02*
X034446Y009295D01*
X034440Y009136D02*
X034532Y009136D01*
X034440Y008978D02*
X034691Y008978D01*
X034849Y008819D02*
X034526Y008819D01*
X033920Y008819D02*
X033690Y008819D01*
X033690Y008978D02*
X033920Y008978D01*
X033920Y009136D02*
X033690Y009136D01*
X033690Y009295D02*
X033920Y009295D01*
X033920Y009453D02*
X033690Y009453D01*
X033685Y009612D02*
X033920Y009612D01*
X033920Y009770D02*
X033575Y009770D01*
X033417Y009929D02*
X033920Y009929D01*
X033920Y010087D02*
X033258Y010087D01*
X033190Y010246D02*
X033864Y010246D01*
X033706Y010404D02*
X033190Y010404D01*
X033190Y010563D02*
X033547Y010563D01*
X033389Y010721D02*
X033159Y010721D01*
X033230Y010880D02*
X033013Y010880D01*
X033072Y011038D02*
X032854Y011038D01*
X032807Y011197D02*
X032940Y011197D01*
X032920Y011355D02*
X032807Y011355D01*
X032766Y011514D02*
X032920Y011514D01*
X032920Y011672D02*
X032673Y011672D01*
X032559Y011831D02*
X032920Y011831D01*
X032920Y011989D02*
X032707Y011989D01*
X032772Y012148D02*
X032920Y012148D01*
X032920Y012306D02*
X032787Y012306D01*
X032787Y012301D02*
X032787Y012326D01*
X032773Y012413D01*
X032746Y012497D01*
X032706Y012576D01*
X032654Y012647D01*
X032592Y012709D01*
X032521Y012761D01*
X032442Y012801D01*
X032358Y012828D01*
X032271Y012842D01*
X032246Y012842D01*
X032246Y012301D01*
X032787Y012301D01*
X032757Y012465D02*
X032920Y012465D01*
X032920Y012623D02*
X032671Y012623D01*
X032480Y012782D02*
X032920Y012782D01*
X032920Y012940D02*
X028414Y012940D01*
X028414Y012782D02*
X031975Y012782D01*
X032209Y012782D02*
X032246Y012782D01*
X032246Y012623D02*
X032209Y012623D01*
X032209Y012465D02*
X032246Y012465D01*
X032246Y012306D02*
X032209Y012306D01*
X031698Y012465D02*
X028113Y012465D01*
X028271Y012623D02*
X031783Y012623D01*
X032920Y013099D02*
X027760Y013099D01*
X027760Y013257D02*
X027600Y013257D01*
X027600Y013416D02*
X027760Y013416D01*
X027760Y013574D02*
X027600Y013574D01*
X027600Y013733D02*
X027760Y013733D01*
X027950Y013849D02*
X028231Y013568D01*
X028629Y013568D01*
X028910Y013849D01*
X028910Y014247D01*
X028629Y014528D01*
X028231Y014528D01*
X027950Y014247D01*
X027950Y013849D01*
X027950Y013891D02*
X025910Y013891D01*
X025910Y014050D02*
X027950Y014050D01*
X027950Y014208D02*
X025910Y014208D01*
X025790Y014367D02*
X028070Y014367D01*
X028229Y014525D02*
X025690Y014525D01*
X025690Y014684D02*
X033238Y014684D01*
X033148Y014842D02*
X025690Y014842D01*
X025690Y015001D02*
X033110Y015001D01*
X033110Y015159D02*
X028720Y015159D01*
X028879Y015318D02*
X033175Y015318D01*
X033302Y015476D02*
X028910Y015476D01*
X028910Y015635D02*
X039350Y015635D01*
X039350Y015793D02*
X028863Y015793D01*
X028705Y015952D02*
X039350Y015952D01*
X038891Y015558D02*
X038809Y015584D01*
X038723Y015598D01*
X038700Y015598D01*
X038700Y015068D01*
X038660Y015068D01*
X038660Y015598D01*
X038637Y015598D01*
X038551Y015584D01*
X038469Y015558D01*
X038392Y015518D01*
X038322Y015467D01*
X038260Y015406D01*
X038210Y015336D01*
X038180Y015278D01*
X038150Y015336D01*
X038100Y015406D01*
X038038Y015467D01*
X037968Y015518D01*
X037891Y015558D01*
X037809Y015584D01*
X037723Y015598D01*
X037700Y015598D01*
X037700Y015068D01*
X038230Y015068D01*
X038660Y015068D01*
X038660Y015028D01*
X037700Y015028D01*
X037700Y014498D01*
X037723Y014498D01*
X037809Y014511D01*
X037891Y014538D01*
X037968Y014577D01*
X038038Y014628D01*
X038100Y014690D01*
X038150Y014760D01*
X038180Y014818D01*
X038210Y014760D01*
X038260Y014690D01*
X038322Y014628D01*
X038392Y014577D01*
X038469Y014538D01*
X038551Y014511D01*
X038637Y014498D01*
X038660Y014498D01*
X038660Y015028D01*
X038700Y015028D01*
X038700Y015068D01*
X039230Y015068D01*
X039230Y015091D01*
X039216Y015177D01*
X039190Y015259D01*
X039150Y015336D01*
X039100Y015406D01*
X039038Y015467D01*
X038968Y015518D01*
X038891Y015558D01*
X039026Y015476D02*
X039350Y015476D01*
X039350Y015318D02*
X039160Y015318D01*
X039219Y015159D02*
X039350Y015159D01*
X039350Y015001D02*
X039229Y015001D01*
X039230Y015005D02*
X039230Y015028D01*
X038700Y015028D01*
X038700Y014498D01*
X038723Y014498D01*
X038809Y014511D01*
X038891Y014538D01*
X038968Y014577D01*
X039038Y014628D01*
X039100Y014690D01*
X039150Y014760D01*
X039190Y014837D01*
X039216Y014919D01*
X039230Y015005D01*
X039192Y014842D02*
X039350Y014842D01*
X039350Y014684D02*
X039094Y014684D01*
X038852Y014525D02*
X039350Y014525D01*
X039350Y014367D02*
X036479Y014367D01*
X036452Y014525D02*
X036320Y014525D01*
X036238Y014684D02*
X036162Y014684D01*
X036908Y014525D02*
X037508Y014525D01*
X037660Y014525D02*
X037700Y014525D01*
X037852Y014525D02*
X038508Y014525D01*
X038660Y014525D02*
X038700Y014525D01*
X038700Y014684D02*
X038660Y014684D01*
X038660Y014842D02*
X038700Y014842D01*
X038700Y015001D02*
X038660Y015001D01*
X038660Y015159D02*
X038700Y015159D01*
X038700Y015318D02*
X038660Y015318D01*
X038660Y015476D02*
X038700Y015476D01*
X038334Y015476D02*
X038026Y015476D01*
X038160Y015318D02*
X038200Y015318D01*
X037700Y015318D02*
X037660Y015318D01*
X037660Y015476D02*
X037700Y015476D01*
X037334Y015476D02*
X037058Y015476D01*
X037185Y015318D02*
X037200Y015318D01*
X037660Y015159D02*
X037700Y015159D01*
X037700Y015001D02*
X037660Y015001D01*
X037660Y014842D02*
X037700Y014842D01*
X037700Y014684D02*
X037660Y014684D01*
X037266Y014684D02*
X037122Y014684D01*
X038094Y014684D02*
X038266Y014684D01*
X038662Y014208D02*
X036637Y014208D01*
X036690Y014050D02*
X038503Y014050D01*
X038450Y013891D02*
X036690Y013891D01*
X036690Y013733D02*
X038450Y013733D01*
X038475Y013574D02*
X036690Y013574D01*
X036690Y013416D02*
X038633Y013416D01*
X038399Y013257D02*
X039350Y013257D01*
X039350Y013099D02*
X038558Y013099D01*
X038660Y012997D02*
X038379Y013278D01*
X037981Y013278D01*
X037700Y012997D01*
X037700Y012599D01*
X037981Y012318D01*
X038379Y012318D01*
X038660Y012599D01*
X038660Y012997D01*
X038660Y012940D02*
X039350Y012940D01*
X039350Y012782D02*
X038660Y012782D01*
X038660Y012623D02*
X039350Y012623D01*
X039350Y012465D02*
X038526Y012465D01*
X038601Y012148D02*
X036690Y012148D01*
X036690Y012306D02*
X039350Y012306D01*
X039350Y012148D02*
X039259Y012148D01*
X038450Y011989D02*
X036690Y011989D01*
X036690Y011831D02*
X038450Y011831D01*
X038450Y011672D02*
X036690Y011672D01*
X036690Y011514D02*
X038535Y011514D01*
X038694Y011355D02*
X036690Y011355D01*
X036690Y011197D02*
X039350Y011197D01*
X039350Y011355D02*
X039166Y011355D01*
X039325Y011514D02*
X039350Y011514D01*
X039350Y011038D02*
X036690Y011038D01*
X036690Y010880D02*
X039350Y010880D01*
X039350Y010721D02*
X036690Y010721D01*
X036783Y010563D02*
X039350Y010563D01*
X039350Y010404D02*
X036941Y010404D01*
X035920Y010563D02*
X034283Y010563D01*
X034124Y010721D02*
X035920Y010721D01*
X035920Y010880D02*
X033966Y010880D01*
X033807Y011038D02*
X035920Y011038D01*
X035920Y011197D02*
X033649Y011197D01*
X033490Y011355D02*
X035920Y011355D01*
X035920Y011514D02*
X033440Y011514D01*
X033440Y011672D02*
X035920Y011672D01*
X035920Y011831D02*
X033440Y011831D01*
X033440Y011989D02*
X035920Y011989D01*
X035920Y012148D02*
X033440Y012148D01*
X033440Y012306D02*
X035920Y012306D01*
X035920Y012465D02*
X035613Y012465D01*
X035484Y012336D02*
X035260Y012336D01*
X035260Y012989D01*
X035100Y012989D01*
X035100Y012336D01*
X034876Y012336D01*
X034446Y012766D01*
X034446Y012989D01*
X035100Y012989D01*
X035100Y013149D01*
X034446Y013149D01*
X034446Y013373D01*
X034876Y013803D01*
X035100Y013803D01*
X035100Y013150D01*
X035260Y013150D01*
X035260Y013803D01*
X035484Y013803D01*
X035914Y013373D01*
X035914Y013149D01*
X035260Y013149D01*
X035260Y012989D01*
X035914Y012989D01*
X035914Y012766D01*
X035484Y012336D01*
X035260Y012465D02*
X035100Y012465D01*
X035100Y012623D02*
X035260Y012623D01*
X035260Y012782D02*
X035100Y012782D01*
X035100Y012940D02*
X035260Y012940D01*
X035260Y013099D02*
X035920Y013099D01*
X035914Y013257D02*
X035920Y013257D01*
X035920Y013416D02*
X035871Y013416D01*
X035920Y013574D02*
X035713Y013574D01*
X035554Y013733D02*
X035877Y013733D01*
X035719Y013891D02*
X033204Y013891D01*
X033160Y014050D02*
X035560Y014050D01*
X035402Y014208D02*
X033160Y014208D01*
X033040Y014367D02*
X035243Y014367D01*
X035085Y014525D02*
X034908Y014525D01*
X034452Y014525D02*
X033908Y014525D01*
X034122Y014684D02*
X034238Y014684D01*
X033452Y014525D02*
X032881Y014525D01*
X032479Y014525D02*
X029881Y014525D01*
X029879Y014528D02*
X029481Y014528D01*
X029200Y014247D01*
X029200Y013849D01*
X029481Y013568D01*
X029879Y013568D01*
X030160Y013849D01*
X030160Y014247D01*
X029879Y014528D01*
X030040Y014367D02*
X032320Y014367D01*
X032200Y014208D02*
X030160Y014208D01*
X030160Y014050D02*
X032200Y014050D01*
X032200Y013891D02*
X030160Y013891D01*
X030044Y013733D02*
X032316Y013733D01*
X032475Y013574D02*
X029885Y013574D01*
X029475Y013574D02*
X028635Y013574D01*
X028794Y013733D02*
X029316Y013733D01*
X029200Y013891D02*
X028910Y013891D01*
X028910Y014050D02*
X029200Y014050D01*
X029200Y014208D02*
X028910Y014208D01*
X028790Y014367D02*
X029320Y014367D01*
X029479Y014525D02*
X028631Y014525D01*
X028140Y015159D02*
X025720Y015159D01*
X025879Y015318D02*
X027981Y015318D01*
X027950Y015476D02*
X025910Y015476D01*
X025910Y015635D02*
X027950Y015635D01*
X027997Y015793D02*
X025863Y015793D01*
X025705Y015952D02*
X028155Y015952D01*
X025170Y014525D02*
X024631Y014525D01*
X024790Y014367D02*
X025070Y014367D01*
X024950Y014208D02*
X024910Y014208D01*
X024910Y014050D02*
X024950Y014050D01*
X024950Y013891D02*
X024910Y013891D01*
X024794Y013733D02*
X025066Y013733D01*
X025225Y013574D02*
X024635Y013574D01*
X025635Y013574D02*
X027147Y013574D01*
X027306Y013733D02*
X025794Y013733D01*
X026946Y012940D02*
X023660Y012940D01*
X023660Y012782D02*
X024475Y012782D01*
X024283Y012623D02*
X023660Y012623D01*
X023526Y012465D02*
X024198Y012465D01*
X025059Y011831D02*
X031896Y011831D01*
X031862Y011855D02*
X031933Y011804D01*
X031899Y011790D01*
X031736Y011626D01*
X031647Y011413D01*
X031647Y011182D01*
X031736Y010969D01*
X031899Y010806D01*
X031900Y010806D01*
X031899Y010805D01*
X031736Y010642D01*
X031647Y010429D01*
X031703Y010563D02*
X025252Y010563D01*
X025140Y010721D02*
X031815Y010721D01*
X031825Y010880D02*
X025130Y010880D01*
X025248Y011038D02*
X031707Y011038D01*
X031647Y011197D02*
X025307Y011197D01*
X025307Y011355D02*
X031647Y011355D01*
X031689Y011514D02*
X025266Y011514D01*
X025173Y011672D02*
X031782Y011672D01*
X031862Y011855D02*
X031800Y011917D01*
X031748Y011989D01*
X033440Y012465D02*
X034747Y012465D01*
X034589Y012623D02*
X033440Y012623D01*
X033440Y012782D02*
X034446Y012782D01*
X034446Y012940D02*
X033440Y012940D01*
X033440Y013099D02*
X035100Y013099D01*
X035100Y013257D02*
X035260Y013257D01*
X035260Y013416D02*
X035100Y013416D01*
X035100Y013574D02*
X035260Y013574D01*
X035260Y013733D02*
X035100Y013733D01*
X034806Y013733D02*
X033363Y013733D01*
X033440Y013574D02*
X034647Y013574D01*
X034489Y013416D02*
X033440Y013416D01*
X033440Y013257D02*
X034446Y013257D01*
X035771Y012623D02*
X035920Y012623D01*
X035914Y012782D02*
X035920Y012782D01*
X035914Y012940D02*
X035920Y012940D01*
X036690Y012940D02*
X037700Y012940D01*
X037700Y012782D02*
X036690Y012782D01*
X036690Y012623D02*
X037700Y012623D01*
X037834Y012465D02*
X036690Y012465D01*
X036690Y013099D02*
X037802Y013099D01*
X037961Y013257D02*
X036690Y013257D01*
X039227Y013416D02*
X039350Y013416D01*
X039350Y014208D02*
X039198Y014208D01*
X036302Y015476D02*
X036058Y015476D01*
X035302Y015476D02*
X035058Y015476D01*
X034302Y015476D02*
X034058Y015476D01*
X032920Y013416D02*
X028371Y013416D01*
X028414Y013257D02*
X032920Y013257D01*
X028225Y013574D02*
X028213Y013574D01*
X028066Y013733D02*
X028054Y013733D01*
X034440Y010087D02*
X034704Y010087D01*
X034545Y009929D02*
X034440Y009929D01*
X034440Y009770D02*
X034446Y009770D01*
X034440Y009612D02*
X034446Y009612D01*
X035100Y009295D02*
X035260Y009295D01*
X035260Y009136D02*
X035100Y009136D01*
X035100Y008978D02*
X035260Y008978D01*
X035260Y008819D02*
X035100Y008819D01*
X035246Y008661D02*
X035614Y008661D01*
X035495Y008502D02*
X035365Y008502D01*
X035410Y008344D02*
X035450Y008344D01*
X035457Y008185D02*
X035403Y008185D01*
X035337Y008027D02*
X035523Y008027D01*
X035713Y007868D02*
X035147Y007868D01*
X035044Y007551D02*
X039350Y007551D01*
X039350Y007393D02*
X035172Y007393D01*
X035190Y007234D02*
X039350Y007234D01*
X039350Y007076D02*
X035190Y007076D01*
X035190Y006917D02*
X039350Y006917D01*
X039350Y006759D02*
X035190Y006759D01*
X035190Y006600D02*
X039350Y006600D01*
X039350Y006442D02*
X035190Y006442D01*
X035190Y006283D02*
X039350Y006283D01*
X039350Y006125D02*
X035190Y006125D01*
X035190Y005966D02*
X039350Y005966D01*
X039350Y005808D02*
X035190Y005808D01*
X035257Y005649D02*
X035603Y005649D01*
X035490Y005491D02*
X035370Y005491D01*
X035410Y005332D02*
X035450Y005332D01*
X035462Y005174D02*
X035398Y005174D01*
X035326Y005015D02*
X035534Y005015D01*
X035670Y004857D02*
X035120Y004857D01*
X036326Y005015D02*
X036534Y005015D01*
X036462Y005174D02*
X036398Y005174D01*
X036410Y005332D02*
X036450Y005332D01*
X036490Y005491D02*
X036370Y005491D01*
X036257Y005649D02*
X036603Y005649D01*
X037025Y004381D02*
X037835Y004381D01*
X037733Y004223D02*
X037160Y004223D01*
X037160Y004064D02*
X037700Y004064D01*
X037719Y003906D02*
X037160Y003906D01*
X037058Y003747D02*
X037802Y003747D01*
X038476Y003430D02*
X039350Y003430D01*
X039350Y003272D02*
X038607Y003272D01*
X038660Y003113D02*
X039350Y003113D01*
X039350Y002955D02*
X038660Y002955D01*
X038595Y002796D02*
X039350Y002796D01*
X039350Y002638D02*
X038444Y002638D01*
X039120Y004857D02*
X039350Y004857D01*
X039350Y005015D02*
X039326Y005015D01*
X039350Y005649D02*
X039257Y005649D01*
X033670Y005808D02*
X032250Y005808D01*
X032250Y005966D02*
X033670Y005966D01*
X033670Y006125D02*
X032250Y006125D01*
X032368Y006283D02*
X033670Y006283D01*
X033670Y006442D02*
X032527Y006442D01*
X032685Y006600D02*
X033670Y006600D01*
X033670Y006759D02*
X032844Y006759D01*
X033002Y006917D02*
X033670Y006917D01*
X033670Y007076D02*
X033161Y007076D01*
X033250Y007234D02*
X033626Y007234D01*
X033467Y007393D02*
X033250Y007393D01*
X033250Y007551D02*
X033309Y007551D01*
X030450Y004223D02*
X029123Y004223D01*
X029885Y004064D02*
X030485Y004064D01*
X030643Y003906D02*
X030044Y003906D01*
X031751Y002955D02*
X032137Y002955D01*
X031978Y002796D02*
X031884Y002796D01*
X032430Y002796D02*
X032430Y002796D01*
X032430Y002638D02*
X032430Y002638D01*
X032430Y002479D02*
X032430Y002479D01*
X032430Y002321D02*
X032430Y002321D01*
X032430Y002162D02*
X032430Y002162D01*
X032115Y002162D02*
X031773Y002162D01*
X031893Y002321D02*
X031957Y002321D01*
X032430Y002955D02*
X032430Y002955D01*
X027760Y003589D02*
X027600Y003589D01*
X027600Y003747D02*
X027760Y003747D01*
X027760Y003906D02*
X027600Y003906D01*
X027600Y004064D02*
X027760Y004064D01*
X024217Y004064D02*
X024057Y004064D01*
X024057Y003906D02*
X024217Y003906D01*
X024217Y004223D02*
X024057Y004223D01*
X024057Y004381D02*
X024217Y004381D01*
X024217Y004540D02*
X024057Y004540D01*
X022920Y004857D02*
X022370Y004857D01*
X022452Y004891D02*
X022587Y005026D01*
X022660Y005202D01*
X022660Y005393D01*
X022587Y005570D01*
X022452Y005705D01*
X022275Y005778D01*
X022085Y005778D01*
X021908Y005705D01*
X021773Y005570D01*
X021700Y005393D01*
X021700Y005202D01*
X021773Y005026D01*
X021908Y004891D01*
X022085Y004818D01*
X022275Y004818D01*
X022452Y004891D01*
X022576Y005015D02*
X022784Y005015D01*
X022712Y005174D02*
X022648Y005174D01*
X022660Y005332D02*
X022700Y005332D01*
X022740Y005491D02*
X022620Y005491D01*
X022507Y005649D02*
X022853Y005649D01*
X021853Y005649D02*
X021479Y005649D01*
X021598Y005491D02*
X021740Y005491D01*
X021700Y005332D02*
X021640Y005332D01*
X021623Y005174D02*
X021712Y005174D01*
X021784Y005015D02*
X021543Y005015D01*
X021311Y004857D02*
X021990Y004857D01*
X021180Y004857D02*
X021180Y004857D01*
X021180Y004838D02*
X021180Y005298D01*
X021180Y005298D01*
X021180Y004838D01*
X021180Y005015D02*
X021180Y005015D01*
X021180Y005174D02*
X021180Y005174D01*
X021180Y005332D02*
X021180Y005332D01*
X021180Y005491D02*
X021180Y005491D01*
X021180Y005649D02*
X021180Y005649D01*
X020507Y004540D02*
X019509Y004540D01*
X019668Y004381D02*
X020349Y004381D01*
X018246Y003430D02*
X017440Y003430D01*
X017440Y003272D02*
X018257Y003272D01*
X018415Y003113D02*
X017440Y003113D01*
X017440Y002955D02*
X018574Y002955D01*
X016670Y002955D02*
X016500Y002955D01*
X016658Y003113D02*
X016670Y003113D01*
X016670Y002796D02*
X016341Y002796D01*
X016670Y002638D02*
X013655Y002638D01*
X013732Y002796D02*
X013308Y002796D01*
X013311Y002638D02*
X013151Y002638D01*
X013151Y002479D02*
X013311Y002479D01*
X013311Y002321D02*
X013151Y002321D01*
X013151Y002162D02*
X013311Y002162D01*
X013311Y002004D02*
X013151Y002004D01*
X013151Y001528D02*
X013311Y001528D01*
X013311Y001370D02*
X013151Y001370D01*
X013151Y001211D02*
X013311Y001211D01*
X013311Y001053D02*
X013151Y001053D01*
X012720Y001053D02*
X008743Y001053D01*
X008901Y001211D02*
X012561Y001211D01*
X012403Y001370D02*
X009060Y001370D01*
X009122Y001528D02*
X012340Y001528D01*
X012340Y001687D02*
X009122Y001687D01*
X009122Y002004D02*
X012340Y002004D01*
X012340Y002162D02*
X009122Y002162D01*
X008972Y002321D02*
X012490Y002321D01*
X012648Y002479D02*
X008814Y002479D01*
X008655Y002638D02*
X012807Y002638D01*
X012552Y002796D02*
X011341Y002796D01*
X011500Y002955D02*
X012552Y002955D01*
X012552Y003113D02*
X011658Y003113D01*
X011817Y003272D02*
X012552Y003272D01*
X012670Y003430D02*
X011859Y003430D01*
X011859Y003589D02*
X012670Y003589D01*
X012670Y003747D02*
X011859Y003747D01*
X011859Y003906D02*
X012670Y003906D01*
X012670Y004064D02*
X011859Y004064D01*
X011705Y004223D02*
X012670Y004223D01*
X012670Y004381D02*
X011547Y004381D01*
X011388Y004540D02*
X012670Y004540D01*
X012670Y004698D02*
X011190Y004698D01*
X011190Y004857D02*
X011192Y004857D01*
X011668Y004857D02*
X012192Y004857D01*
X012034Y005015D02*
X011826Y005015D01*
X011910Y005174D02*
X011950Y005174D01*
X011950Y005332D02*
X011910Y005332D01*
X011910Y005491D02*
X011950Y005491D01*
X012103Y005649D02*
X011757Y005649D01*
X012757Y005649D02*
X015103Y005649D01*
X015231Y005778D02*
X014950Y005497D01*
X014950Y005099D01*
X015231Y004818D01*
X015629Y004818D01*
X015910Y005099D01*
X015910Y005497D01*
X015629Y005778D01*
X015231Y005778D01*
X015757Y005649D02*
X016103Y005649D01*
X015950Y005491D02*
X015910Y005491D01*
X015910Y005332D02*
X015950Y005332D01*
X015950Y005174D02*
X015910Y005174D01*
X015826Y005015D02*
X016034Y005015D01*
X016192Y004857D02*
X015668Y004857D01*
X015192Y004857D02*
X013187Y004857D01*
X013190Y004698D02*
X016963Y004698D01*
X016804Y004540D02*
X016388Y004540D01*
X016547Y004381D02*
X016683Y004381D01*
X016668Y004857D02*
X017121Y004857D01*
X017280Y005015D02*
X016826Y005015D01*
X016924Y005174D02*
X017438Y005174D01*
X017597Y005332D02*
X017082Y005332D01*
X017241Y005491D02*
X017755Y005491D01*
X015507Y004540D02*
X014509Y004540D01*
X014668Y004381D02*
X015349Y004381D01*
X015190Y004223D02*
X014826Y004223D01*
X014985Y004064D02*
X015037Y004064D01*
X015028Y003906D02*
X015037Y003906D01*
X015028Y003747D02*
X015037Y003747D01*
X015037Y003589D02*
X014217Y003589D01*
X014217Y003572D02*
X015028Y003572D01*
X015028Y003283D01*
X014506Y002761D01*
X014217Y002761D01*
X014217Y003572D01*
X014217Y003430D02*
X014057Y003430D01*
X014057Y003272D02*
X014217Y003272D01*
X014217Y003113D02*
X014057Y003113D01*
X014057Y002955D02*
X014217Y002955D01*
X014217Y002796D02*
X014057Y002796D01*
X014541Y002796D02*
X015554Y002796D01*
X015396Y002955D02*
X014700Y002955D01*
X014858Y003113D02*
X015237Y003113D01*
X015079Y003272D02*
X015017Y003272D01*
X015028Y003430D02*
X015037Y003430D01*
X014217Y003747D02*
X014057Y003747D01*
X014057Y003589D02*
X013190Y003589D01*
X013190Y003747D02*
X013246Y003747D01*
X013246Y003906D02*
X013190Y003906D01*
X013190Y004064D02*
X013289Y004064D01*
X013190Y004223D02*
X013447Y004223D01*
X013606Y004381D02*
X013190Y004381D01*
X013190Y004540D02*
X013764Y004540D01*
X014057Y004540D02*
X014217Y004540D01*
X014217Y004381D02*
X014057Y004381D01*
X014057Y004223D02*
X014217Y004223D01*
X014217Y004064D02*
X014057Y004064D01*
X014057Y003906D02*
X014217Y003906D01*
X013246Y003430D02*
X013190Y003430D01*
X013308Y003113D02*
X013415Y003113D01*
X013308Y002955D02*
X013574Y002955D01*
X013814Y002479D02*
X016670Y002479D01*
X016420Y001528D02*
X014122Y001528D01*
X014060Y001370D02*
X016420Y001370D01*
X016420Y001211D02*
X014695Y001211D01*
X014165Y001211D02*
X013901Y001211D01*
X014006Y001053D02*
X013743Y001053D01*
X013950Y000894D02*
X000380Y000894D01*
X000380Y000736D02*
X013950Y000736D01*
X013972Y000577D02*
X000380Y000577D01*
X000380Y001053D02*
X002562Y001053D01*
X002665Y000950D02*
X002143Y001472D01*
X002143Y001761D01*
X002954Y001761D01*
X002954Y001921D01*
X002143Y001921D01*
X002143Y002210D01*
X002665Y002732D01*
X002954Y002732D01*
X002954Y001921D01*
X003114Y001921D01*
X003114Y002732D01*
X003403Y002732D01*
X003926Y002210D01*
X003926Y001921D01*
X003114Y001921D01*
X003114Y001761D01*
X003114Y000950D01*
X003403Y000950D01*
X003926Y001472D01*
X003926Y001761D01*
X003114Y001761D01*
X002954Y001761D01*
X002954Y000950D01*
X002665Y000950D01*
X002954Y001053D02*
X003114Y001053D01*
X003114Y001211D02*
X002954Y001211D01*
X002954Y001370D02*
X003114Y001370D01*
X003114Y001528D02*
X002954Y001528D01*
X002954Y001687D02*
X003114Y001687D01*
X003114Y001845D02*
X004704Y001845D01*
X004545Y002004D02*
X003926Y002004D01*
X003926Y002162D02*
X004450Y002162D01*
X004450Y002321D02*
X003815Y002321D01*
X003656Y002479D02*
X004450Y002479D01*
X004591Y002638D02*
X003498Y002638D01*
X003114Y002638D02*
X002954Y002638D01*
X002954Y002479D02*
X003114Y002479D01*
X003114Y002321D02*
X002954Y002321D01*
X002954Y002162D02*
X003114Y002162D01*
X003114Y002004D02*
X002954Y002004D01*
X002954Y001845D02*
X001571Y001845D01*
X001730Y002004D02*
X002143Y002004D01*
X002143Y002162D02*
X001888Y002162D01*
X002047Y002321D02*
X002254Y002321D01*
X002412Y002479D02*
X002095Y002479D01*
X002095Y002638D02*
X002571Y002638D01*
X002095Y002796D02*
X005554Y002796D01*
X005410Y002479D02*
X007648Y002479D01*
X007490Y002321D02*
X005410Y002321D01*
X005410Y002162D02*
X007340Y002162D01*
X007340Y002004D02*
X005315Y002004D01*
X005156Y001845D02*
X008151Y001845D01*
X008151Y001687D02*
X008311Y001687D01*
X008311Y001528D02*
X008151Y001528D01*
X008151Y001370D02*
X008311Y001370D01*
X008311Y001211D02*
X008151Y001211D01*
X008151Y001053D02*
X008311Y001053D01*
X007720Y001053D02*
X003506Y001053D01*
X003665Y001211D02*
X007561Y001211D01*
X007403Y001370D02*
X003823Y001370D01*
X003926Y001528D02*
X007340Y001528D01*
X007340Y001687D02*
X003926Y001687D01*
X002404Y001211D02*
X000380Y001211D01*
X000380Y001370D02*
X002245Y001370D01*
X002143Y001528D02*
X000380Y001528D01*
X000380Y001687D02*
X002143Y001687D01*
X000797Y001845D02*
X000380Y001845D01*
X000380Y002004D02*
X000638Y002004D01*
X000480Y002162D02*
X000380Y002162D01*
X000380Y003272D02*
X000421Y003272D01*
X000380Y003430D02*
X000579Y003430D01*
X000380Y004223D02*
X002592Y004223D01*
X002434Y004381D02*
X000380Y004381D01*
X000380Y004540D02*
X002275Y004540D01*
X002163Y004698D02*
X000380Y004698D01*
X000380Y004857D02*
X002163Y004857D01*
X002163Y005015D02*
X000380Y005015D01*
X000380Y005174D02*
X002163Y005174D01*
X002163Y005332D02*
X000380Y005332D01*
X000380Y005491D02*
X002246Y005491D01*
X002404Y005649D02*
X001460Y005649D01*
X001379Y005568D02*
X001660Y005849D01*
X001660Y006247D01*
X001379Y006528D01*
X000981Y006528D01*
X000700Y006247D01*
X000700Y005849D01*
X000981Y005568D01*
X001379Y005568D01*
X001619Y005808D02*
X002563Y005808D01*
X003450Y005966D02*
X001660Y005966D01*
X001660Y006125D02*
X003450Y006125D01*
X003487Y006283D02*
X001623Y006283D01*
X001465Y006442D02*
X003645Y006442D01*
X004215Y006442D02*
X004720Y006442D01*
X004700Y006283D02*
X004373Y006283D01*
X004410Y006125D02*
X004732Y006125D01*
X004833Y005966D02*
X004410Y005966D01*
X005257Y005649D02*
X006170Y005649D01*
X006170Y005491D02*
X005410Y005491D01*
X005410Y005332D02*
X006170Y005332D01*
X006170Y005174D02*
X005410Y005174D01*
X005326Y005015D02*
X006170Y005015D01*
X006690Y005015D02*
X010670Y005015D01*
X010670Y004857D02*
X006690Y004857D01*
X006690Y004698D02*
X010670Y004698D01*
X010507Y004540D02*
X009509Y004540D01*
X009506Y004543D02*
X009217Y004543D01*
X009217Y003732D01*
X010028Y003732D01*
X010028Y004021D01*
X009506Y004543D01*
X009668Y004381D02*
X010349Y004381D01*
X010190Y004223D02*
X009826Y004223D01*
X009985Y004064D02*
X010037Y004064D01*
X010028Y003906D02*
X010037Y003906D01*
X010028Y003747D02*
X010037Y003747D01*
X010037Y003589D02*
X009217Y003589D01*
X009217Y003572D02*
X009217Y003732D01*
X009057Y003732D01*
X009057Y004543D01*
X008768Y004543D01*
X008246Y004021D01*
X008246Y003732D01*
X009057Y003732D01*
X009057Y003572D01*
X009217Y003572D01*
X010028Y003572D01*
X010028Y003283D01*
X009506Y002761D01*
X009217Y002761D01*
X009217Y003572D01*
X009217Y003430D02*
X009057Y003430D01*
X009057Y003572D02*
X009057Y002761D01*
X008768Y002761D01*
X008246Y003283D01*
X008246Y003572D01*
X009057Y003572D01*
X009057Y003589D02*
X006859Y003589D01*
X006859Y003747D02*
X008246Y003747D01*
X008246Y003906D02*
X006859Y003906D01*
X006859Y004064D02*
X008289Y004064D01*
X008447Y004223D02*
X006705Y004223D01*
X006690Y004381D02*
X008606Y004381D01*
X008764Y004540D02*
X006690Y004540D01*
X007393Y005332D02*
X007967Y005332D01*
X007808Y005491D02*
X007552Y005491D01*
X007660Y005649D02*
X007700Y005649D01*
X007700Y005808D02*
X007660Y005808D01*
X007660Y005966D02*
X007700Y005966D01*
X007828Y006125D02*
X007532Y006125D01*
X009930Y006125D02*
X009930Y006125D01*
X009930Y005966D02*
X009930Y005966D01*
X009930Y005808D02*
X009930Y005808D01*
X009930Y005798D02*
X009930Y005338D01*
X009930Y005798D01*
X009930Y005798D01*
X009930Y005649D02*
X009930Y005649D01*
X009930Y005491D02*
X009930Y005491D01*
X010274Y005491D02*
X010670Y005491D01*
X010670Y005649D02*
X010365Y005649D01*
X010390Y005808D02*
X010670Y005808D01*
X010670Y005966D02*
X010359Y005966D01*
X010254Y006125D02*
X010670Y006125D01*
X012910Y005491D02*
X014950Y005491D01*
X014950Y005332D02*
X012910Y005332D01*
X012910Y005174D02*
X014950Y005174D01*
X015034Y005015D02*
X013080Y005015D01*
X012673Y004857D02*
X012668Y004857D01*
X010037Y003430D02*
X010028Y003430D01*
X010017Y003272D02*
X010079Y003272D01*
X010237Y003113D02*
X009858Y003113D01*
X009700Y002955D02*
X010396Y002955D01*
X010554Y002796D02*
X009541Y002796D01*
X009217Y002796D02*
X009057Y002796D01*
X009057Y002955D02*
X009217Y002955D01*
X009217Y003113D02*
X009057Y003113D01*
X009057Y003272D02*
X009217Y003272D01*
X008732Y002796D02*
X006341Y002796D01*
X006500Y002955D02*
X008574Y002955D01*
X008415Y003113D02*
X006658Y003113D01*
X006817Y003272D02*
X008257Y003272D01*
X008246Y003430D02*
X006859Y003430D01*
X009057Y003747D02*
X009217Y003747D01*
X009217Y003906D02*
X009057Y003906D01*
X009057Y004064D02*
X009217Y004064D01*
X009217Y004223D02*
X009057Y004223D01*
X009057Y004381D02*
X009217Y004381D01*
X009217Y004540D02*
X009057Y004540D01*
X004804Y006600D02*
X000380Y006600D01*
X000380Y006442D02*
X000895Y006442D01*
X000737Y006283D02*
X000380Y006283D01*
X000380Y006125D02*
X000700Y006125D01*
X000700Y005966D02*
X000380Y005966D01*
X000380Y005808D02*
X000741Y005808D01*
X000900Y005649D02*
X000380Y005649D01*
X002478Y006917D02*
X002882Y006917D01*
X002723Y007076D02*
X002637Y007076D01*
X002660Y007234D02*
X002700Y007234D01*
X002700Y007393D02*
X002660Y007393D01*
X002605Y007551D02*
X002755Y007551D01*
X002913Y007710D02*
X002447Y007710D01*
X000916Y008661D02*
X000380Y008661D01*
X000380Y008819D02*
X000758Y008819D01*
X000720Y008978D02*
X000380Y008978D01*
X000380Y009136D02*
X000720Y009136D01*
X000776Y009295D02*
X000380Y009295D01*
X000380Y009453D02*
X000935Y009453D01*
X018190Y010087D02*
X019704Y010087D01*
X019862Y010246D02*
X018190Y010246D01*
X024057Y003430D02*
X024217Y003430D01*
X024217Y003272D02*
X024057Y003272D01*
X024057Y003113D02*
X024217Y003113D01*
X024217Y002955D02*
X024057Y002955D01*
X024057Y002796D02*
X024217Y002796D01*
D25*
X024180Y005298D02*
X024727Y005845D01*
X024727Y010314D01*
X031930Y006298D02*
X032930Y007298D01*
X032930Y008298D01*
X031930Y006298D02*
X031930Y005298D01*
X016430Y009298D02*
X015430Y008298D01*
X016430Y009298D02*
X016430Y013048D01*
X018930Y015548D01*
X019180Y015548D01*
D26*
X015180Y012798D02*
X015180Y011548D01*
X017930Y010798D02*
X017930Y008298D01*
X017180Y007298D02*
X017180Y005798D01*
X016680Y005298D01*
X016430Y005298D01*
X016930Y004298D02*
X017930Y005298D01*
X018930Y005298D01*
X018180Y004798D02*
X017930Y004798D01*
X017180Y004048D01*
X017180Y001548D01*
X016930Y002048D02*
X016680Y001798D01*
X016680Y001048D01*
X016430Y000798D01*
X014430Y000798D01*
X016930Y002048D02*
X016930Y004298D01*
X012930Y004798D02*
X012930Y003048D01*
X010948Y003692D02*
X010930Y003709D01*
X010930Y007798D01*
X009743Y008985D01*
X009743Y010298D01*
X009727Y010314D01*
X008180Y010298D02*
X008180Y008798D01*
X006430Y009798D02*
X007680Y011048D01*
X009727Y011251D02*
X012430Y008548D01*
X012430Y008298D01*
X006430Y009798D02*
X006430Y004209D01*
X005948Y003692D01*
X019180Y000798D02*
X019680Y000798D01*
X023180Y004298D01*
X023180Y005298D01*
X025930Y006548D02*
X025930Y008298D01*
X027930Y008298D02*
X028180Y008298D01*
X028430Y008048D01*
X028430Y004548D01*
X029530Y003448D01*
X029530Y003298D01*
X028930Y005298D02*
X028930Y007048D01*
X033430Y007798D02*
X033430Y009548D01*
X032930Y010048D01*
X032930Y010595D01*
X032227Y011298D01*
X033180Y011298D02*
X033180Y013548D01*
X032680Y014048D01*
X034680Y015048D02*
X034930Y015048D01*
X036180Y013798D01*
X036180Y009798D01*
X036930Y009048D01*
X036930Y008298D01*
X037930Y008298D02*
X037930Y009048D01*
X036430Y010548D01*
X036430Y014048D01*
X035680Y014798D01*
X035680Y015048D01*
X033180Y011298D02*
X034180Y010298D01*
X034180Y008798D01*
X034430Y008548D01*
X034430Y007798D01*
X034930Y007298D01*
X034930Y005298D01*
X033930Y005298D02*
X033930Y007298D01*
X033430Y007798D01*
X035930Y005298D02*
X035930Y000798D01*
X009727Y011251D02*
X009727Y011298D01*
X025430Y014048D02*
X025430Y015548D01*
D27*
X017930Y010798D03*
X015180Y011548D03*
X015180Y012798D03*
X007680Y011048D03*
X017930Y008298D03*
X018180Y004798D03*
X012930Y003048D03*
X017180Y001548D03*
X025930Y006548D03*
X028930Y007048D03*
X035930Y000798D03*
M02*
