G75*
G70*
%OFA0B0*%
%FSLAX24Y24*%
%IPPOS*%
%LPD*%
%AMOC8*
5,1,8,0,0,1.08239X$1,22.5*
%
%ADD10C,0.0000*%
%ADD11C,0.0600*%
%ADD12OC8,0.0600*%
%ADD13OC8,0.1462*%
%ADD14C,0.0800*%
%ADD15OC8,0.1147*%
%ADD16OC8,0.1226*%
%ADD17C,0.0595*%
%ADD18C,0.0780*%
%ADD19C,0.0820*%
%ADD20OC8,0.0780*%
%ADD21OC8,0.0670*%
%ADD22C,0.0670*%
%ADD23OC8,0.1280*%
D10*
X000180Y000298D02*
X039550Y000298D01*
X039550Y016180D01*
X000180Y016180D01*
X000180Y000298D01*
D11*
X009930Y005798D03*
X009930Y006798D03*
X009930Y007798D03*
X005180Y008298D03*
X005180Y007298D03*
X005180Y006298D03*
X021180Y005298D03*
X022180Y005298D03*
X023180Y005298D03*
X024180Y005298D03*
X025930Y005298D03*
X026930Y005298D03*
X027930Y005298D03*
X028930Y005298D03*
X029930Y005298D03*
X030930Y005298D03*
X031930Y005298D03*
X032930Y005298D03*
X033930Y005298D03*
X034930Y005298D03*
X035930Y005298D03*
X036930Y005298D03*
X037930Y005298D03*
X038930Y005298D03*
X038180Y004048D03*
X038180Y003048D03*
X038180Y002048D03*
X037930Y008298D03*
X038930Y008298D03*
X036930Y008298D03*
X035930Y008298D03*
X034930Y008298D03*
X033930Y008298D03*
X032930Y008298D03*
X031930Y008298D03*
X030930Y008298D03*
X029930Y008298D03*
X028930Y008298D03*
X027930Y008298D03*
X026930Y008298D03*
X025930Y008298D03*
X024180Y008298D03*
X023180Y008298D03*
X022180Y008298D03*
X021180Y008298D03*
D12*
X019930Y008298D03*
X018930Y008298D03*
X018180Y007298D03*
X017180Y007298D03*
X016430Y008298D03*
X015430Y008298D03*
X012430Y008298D03*
X011430Y008298D03*
X008180Y008798D03*
X007180Y008798D03*
X008180Y010298D03*
X003930Y009048D03*
X001180Y009048D03*
X002180Y007298D03*
X003180Y007298D03*
X003930Y006048D03*
X004930Y005298D03*
X007180Y005798D03*
X008180Y005798D03*
X011430Y005298D03*
X012430Y005298D03*
X015430Y005298D03*
X016430Y005298D03*
X018930Y005298D03*
X019930Y005298D03*
X019180Y000798D03*
X017430Y000798D03*
X014430Y000798D03*
X022180Y000798D03*
X030930Y004298D03*
X032930Y004298D03*
X033680Y004048D03*
X033680Y003048D03*
X033680Y002048D03*
X036680Y002048D03*
X036680Y003048D03*
X036680Y004048D03*
X038180Y009798D03*
X038930Y011798D03*
X038180Y012798D03*
X038930Y013798D03*
X032680Y014048D03*
X029680Y014048D03*
X028430Y014048D03*
X028430Y015548D03*
X025430Y015548D03*
X025430Y014048D03*
X024430Y014048D03*
X023180Y012798D03*
X021430Y014048D03*
X023180Y009798D03*
X008180Y013298D03*
X001180Y006048D03*
X004930Y002298D03*
D13*
X003034Y001841D03*
X001184Y002747D03*
X005948Y003692D03*
X003074Y005030D03*
X009137Y003652D03*
X010948Y003692D03*
X014137Y003652D03*
X015948Y003692D03*
X019137Y003652D03*
X020948Y003692D03*
X024137Y003652D03*
X023231Y001802D03*
X018231Y001802D03*
X013231Y001802D03*
X008231Y001802D03*
D14*
X009727Y010314D03*
X009727Y011298D03*
X009727Y012282D03*
X002227Y012282D03*
X002227Y011298D03*
X002227Y010314D03*
X017227Y010314D03*
X017227Y011298D03*
X017227Y012282D03*
X024727Y012282D03*
X024727Y011298D03*
X024727Y010314D03*
X032227Y010314D03*
X032227Y011298D03*
X032227Y012282D03*
D15*
X035180Y013069D03*
X035180Y009526D03*
X027680Y009526D03*
X027680Y013069D03*
X020180Y013069D03*
X020180Y009526D03*
X012680Y009526D03*
X012680Y013069D03*
X005180Y013069D03*
X005180Y009526D03*
D16*
X025830Y003298D03*
X027680Y003298D03*
X029530Y003298D03*
D17*
X030180Y009298D03*
X031180Y009298D03*
X032180Y009298D03*
D18*
X033680Y015048D03*
X034680Y015048D03*
X035680Y015048D03*
X036680Y015048D03*
X037680Y015048D03*
X038680Y015048D03*
X019180Y015548D03*
X017180Y015548D03*
X007680Y015548D03*
X005680Y015548D03*
X005680Y014298D03*
X007680Y014298D03*
D19*
X004680Y014298D03*
X004680Y015548D03*
X000680Y015548D03*
X000680Y014298D03*
X020430Y015548D03*
X024430Y015548D03*
D20*
X015930Y015548D03*
X014930Y015548D03*
X013930Y015548D03*
X012930Y015548D03*
X011930Y015548D03*
X010930Y015548D03*
X009930Y015548D03*
X008930Y015548D03*
X008930Y014548D03*
X009930Y014548D03*
X010930Y014548D03*
X011930Y014548D03*
X012930Y014548D03*
X013930Y014548D03*
X014930Y014548D03*
X015930Y014548D03*
D21*
X032430Y002548D03*
D22*
X031430Y002548D03*
D23*
X037430Y001048D03*
M02*
