<?xml version="1.0" encoding="UTF-8" standalone="no"?>
<!-- Created with Inkscape (http://www.inkscape.org/) -->

<svg
   xmlns:dc="http://purl.org/dc/elements/1.1/"
   xmlns:cc="http://creativecommons.org/ns#"
   xmlns:rdf="http://www.w3.org/1999/02/22-rdf-syntax-ns#"
   xmlns:svg="http://www.w3.org/2000/svg"
   xmlns="http://www.w3.org/2000/svg"
   xmlns:xlink="http://www.w3.org/1999/xlink"
   xmlns:sodipodi="http://sodipodi.sourceforge.net/DTD/sodipodi-0.dtd"
   xmlns:inkscape="http://www.inkscape.org/namespaces/inkscape"
   id="svg4373"
   version="1.1"
   inkscape:version="0.92.4 (5da689c313, 2019-01-14)"
   width="210mm"
   height="297mm"
   xml:space="preserve"
   sodipodi:docname="PhoreoLabels.svg"><sodipodi:namedview
     pagecolor="#ffffff"
     bordercolor="#666666"
     borderopacity="1"
     objecttolerance="10"
     gridtolerance="10"
     guidetolerance="10"
     inkscape:pageopacity="0"
     inkscape:pageshadow="2"
     inkscape:window-width="1920"
     inkscape:window-height="1016"
     id="namedview4375"
     showgrid="false"
     inkscape:zoom="0.6584847"
     inkscape:cx="250.79201"
     inkscape:cy="530.8145"
     inkscape:window-x="0"
     inkscape:window-y="27"
     inkscape:window-maximized="1"
     inkscape:current-layer="flowRoot3001"
     inkscape:document-units="mm"
     showguides="false"
     inkscape:guide-bbox="true"
     units="mm" /><metadata
     id="metadata4379"><rdf:RDF><cc:Work
         rdf:about=""><dc:format>image/svg+xml</dc:format><dc:type
           rdf:resource="http://purl.org/dc/dcmitype/StillImage" /><dc:title /></cc:Work></rdf:RDF></metadata><defs
     id="defs4377"><clipPath
       id="clipPath4387"
       clipPathUnits="userSpaceOnUse"><path
         id="path4389"
         d="M 0,0 H 595.276 V 841.89 H 0 Z"
         inkscape:connector-curvature="0" /></clipPath><clipPath
       id="clipPath4421"
       clipPathUnits="userSpaceOnUse"><path
         id="path4423"
         d="M 0,0 H 595.276 V 841.89 H 0 Z"
         inkscape:connector-curvature="0" /></clipPath><clipPath
       id="clipPath4443"
       clipPathUnits="userSpaceOnUse"><path
         id="path4445"
         d="M 0,0 H 595.276 V 841.89 H 0 Z"
         inkscape:connector-curvature="0" /></clipPath><clipPath
       id="clipPath7941"
       clipPathUnits="userSpaceOnUse"><path
         id="path7943"
         d="M 0,0 H 595.276 V 841.89 H 0 Z"
         inkscape:connector-curvature="0" /></clipPath><clipPath
       id="clipPath7975"
       clipPathUnits="userSpaceOnUse"><path
         id="path7977"
         d="M 0,0 H 595.276 V 841.89 H 0 Z"
         inkscape:connector-curvature="0" /></clipPath><clipPath
       id="clipPath7997"
       clipPathUnits="userSpaceOnUse"><path
         id="path7999"
         d="M 0,0 H 595.276 V 841.89 H 0 Z"
         inkscape:connector-curvature="0" /></clipPath></defs><g
     transform="matrix(1.25,0,0,-1.25,0,1122.5196)"
     inkscape:label="Label Planet LP21 70 Portrait"
     inkscape:groupmode="layer"
     id="g4381"
     style="display:inline"><g
       inkscape:tile-y0="912.55037"
       inkscape:tile-x0="22.281616"
       inkscape:tile-h="129.62935"
       inkscape:tile-w="203.15552"
       inkscape:tile-cy="977.36505"
       inkscape:tile-cx="123.85937"
       transform="matrix(1.0000045,0,0,1,0.22200192,-721.66836)"
       id="g4685"><g
         transform="matrix(0.68631727,0,0,-0.68631727,-29.93227,885.93549)"
         style="font-style:normal;font-variant:normal;font-weight:normal;font-stretch:normal;font-size:40px;line-height:125%;font-family:'More than human';-inkscape-font-specification:'More than human';text-align:start;letter-spacing:0px;word-spacing:0px;writing-mode:lr-tb;text-anchor:start;fill:#000000;fill-opacity:1;stroke:none"
         id="flowRoot2985"><path
           inkscape:connector-curvature="0"
           d="m 79.5375,81.455617 h -2.55 v 9.21 l 2.55,-1.29 v -7.92 m 1.2,-1.2 v 9.87 l -4.95,2.49 v -12.36 h 4.95 m -7.5,19.920003 -0.63,5.76 -0.57,-5.76 V 76.505617 h 12.45 v 15.93 l -2.97,1.5 2.97,1.56 v 4.680003 l -0.63,5.76 -0.57,-5.76 v -3.960003 l -4.38,-2.31 4.38,-2.19 v -14.01 h -10.05 v 22.470003 m 3.75,0 -0.63,5.76 -0.57,-5.76 v -4.890003 l 4.95,2.58 v 2.310003 l -0.63,5.76 -0.57,-5.76 v -1.590003 l -2.52,-1.32 v 2.910003 h -0.03"
           style="font-size:30px;line-height:125%;font-family:'More than human';-inkscape-font-specification:'More than human'"
           id="path3134" /><path
           inkscape:connector-curvature="0"
           d="m 100.13203,102.57562 -0.629999,5.76 -0.57,-5.76 v -6.120003 h -7.5 v -4.98 h 7.5 v -2.52 h -7.5 v -8.73 h 4.95 v 3.75 h 2.55 v -6.27 h -10.05 v 23.070003 l -0.63,5.76 -0.57,-5.76 V 76.505617 h 12.449999 v 8.67 h -4.949999 v -3.75 h -2.55 v 6.33 h 7.499999 v 4.92 h -7.499999 v 2.58 h 7.499999 v 7.320003"
           style="font-size:30px;line-height:125%;font-family:'More than human';-inkscape-font-specification:'More than human'"
           id="path3136" /><path
           inkscape:connector-curvature="0"
           d="m 110.70937,81.455617 h -2.55 v 5.46 l 2.55,-1.29 v -4.17 m 1.2,-1.2 v 6.12 l -4.95,2.49 v -8.61 h 4.95 m -1.2,14.55 -2.55,-1.29 v 1.71 h 2.55 v -0.42 m 1.2,-0.75 v 2.37 h -4.95 v -4.86 l 4.95,2.49 m 3.75,5.82 -0.62999,5.760003 -0.57001,-5.760003 v -7.41 l -4.37999,-2.31 4.37999,-2.19 v -10.26 h -10.05 v 24.570003 l -0.62999,5.76 -0.57001,-5.76 V 76.505617 h 12.45 v 12.18 l -2.97,1.5 2.97,1.56 v 8.13"
           style="font-size:30px;line-height:125%;font-family:'More than human';-inkscape-font-specification:'More than human'"
           id="path3139" /><path
           inkscape:connector-curvature="0"
           d="m 131.30391,102.57562 -0.63,5.76 -0.57,-5.76 v -6.120003 h -7.5 v -4.98 h 7.5 v -2.52 h -7.5 v -8.73 h 4.95 v 3.75 h 2.55 v -6.27 h -10.05 v 23.070003 l -0.63,5.76 -0.57,-5.76 V 76.505617 h 12.45 v 8.67 h -4.95 v -3.75 h -2.55 v 6.33 h 7.5 v 4.92 h -7.5 v 2.58 h 7.5 v 7.320003"
           style="font-size:30px;line-height:125%;font-family:'More than human';-inkscape-font-specification:'More than human'"
           id="path3141" /><path
           inkscape:connector-curvature="0"
           d="m 143.08125,99.575617 -0.63,5.760003 -0.57,-5.760003 v -3.12 h -3.75 v -18.75 h -2.55 v 24.570003 l -0.63,5.76 -0.57,-5.76 V 76.505617 h 4.95 v 18.75 h 3.75 v 4.32"
           style="font-size:30px;line-height:125%;font-family:'More than human';-inkscape-font-specification:'More than human'"
           id="path3143" /><path
           inkscape:connector-curvature="0"
           d="m 169.38984,100.17562 -0.63,5.76 -0.57,-5.76 V 80.225617 h 3.75 v -2.52 h -10.05 v 2.52 h 3.75 v 19.950003 l -0.63,5.76 -0.57,-5.76 V 81.425617 h -3.75 v -4.92 h 12.45 v 4.92 h -3.75 v 18.750003"
           style="font-size:30px;line-height:125%;font-family:'More than human';-inkscape-font-specification:'More than human'"
           id="path3145" /><path
           inkscape:connector-curvature="0"
           d="m 188.37422,102.57562 -0.63,5.76 -0.57,-5.76 v -6.120003 h -7.5 v -4.98 h 7.5 v -2.52 h -7.5 v -8.73 h 4.95 v 3.75 h 2.55 v -6.27 h -10.05 v 23.070003 l -0.63,5.76 -0.57,-5.76 V 76.505617 h 12.45 v 8.67 h -4.95 v -3.75 h -2.55 v 6.33 h 7.5 v 4.92 h -7.5 v 2.58 h 7.5 v 7.320003"
           style="font-size:30px;line-height:125%;font-family:'More than human';-inkscape-font-specification:'More than human'"
           id="path3147" /><path
           inkscape:connector-curvature="0"
           d="m 203.90156,102.27562 -0.63,5.76 -0.57,-5.76 v -9.570003 h -2.55 v 3.75 h -4.95 v -16.23 h 4.95 v 3.75 h 2.55 v -6.27 h -10.05 v 22.17 l -0.63,5.760003 -0.57,-5.760003 v -23.37 h 12.45 v 8.67 h -4.95 v -3.75 h -2.55 v 13.83 h 2.55 v -3.75 h 4.95 v 10.770003"
           style="font-size:30px;line-height:125%;font-family:'More than human';-inkscape-font-specification:'More than human'"
           id="path3149" /><path
           inkscape:connector-curvature="0"
           d="m 219.37031,100.77562 -0.63,5.76 -0.57,-5.76 V 77.705617 h -2.55 v 15 h -4.95 v -15 h -2.55 v 22.17 l -0.63,5.760003 -0.57,-5.760003 v -23.37 h 4.95 v 15 h 2.55 v -15 h 4.95 v 24.270003 m -3.75,-1.500003 -0.63,5.760003 -0.57,-5.760003 v -2.85 h -2.55 v 7.050003 l -0.63,5.76 -0.57,-5.76 v -8.250003 h 4.95 v 4.05"
           style="font-size:30px;line-height:125%;font-family:'More than human';-inkscape-font-specification:'More than human'"
           id="path3151" /><path
           inkscape:connector-curvature="0"
           d="m 231.44484,100.17562 -0.63,5.76 -0.57,-5.76 -2.7,-7.890003 v 7.29 l -0.63,5.760003 -0.57,-5.760003 h -0.03 l 0.03,-14.43 5.1,15.030003 m 3.57,0.9 -0.63,5.76 -0.57,-5.76 V 77.705617 h -2.58 v 13.83 l -4.77,-13.83 h -2.7 v 25.770003 l -0.63,5.76 -0.57,-5.76 V 76.505617 h 4.77 l 2.7,7.89 v -7.89 h 4.98 v 24.570003"
           style="font-size:30px;line-height:125%;font-family:'More than human';-inkscape-font-specification:'More than human'"
           id="path3153" /><path
           inkscape:connector-curvature="0"
           d="m 245.70937,81.455617 h -2.55 v 13.77 h 2.55 v -13.77 m 1.2,-1.2 v 16.17 h -4.95 v -16.17 h 4.95 m 3.75,19.62 -0.63,5.760003 -0.57,-5.760003 v -22.17 h -10.05 v 25.470003 l -0.63,5.76 -0.57,-5.76 V 76.505617 h 12.45 v 23.37"
           style="font-size:30px;line-height:125%;font-family:'More than human';-inkscape-font-specification:'More than human'"
           id="path3155" /><path
           inkscape:connector-curvature="0"
           d="m 262.55391,99.575617 -0.63,5.760003 -0.57,-5.760003 v -3.12 h -3.75 v -18.75 h -2.55 v 24.570003 l -0.63,5.76 -0.57,-5.76 V 76.505617 h 4.95 v 18.75 h 3.75 v 4.32"
           style="font-size:30px;line-height:125%;font-family:'More than human';-inkscape-font-specification:'More than human'"
           id="path3157" /><path
           inkscape:connector-curvature="0"
           d="m 272.6625,81.455617 h -2.55 v 13.77 h 2.55 v -13.77 m 1.2,-1.2 v 16.17 h -4.95 v -16.17 h 4.95 m 3.75,19.62 -0.63,5.760003 -0.57,-5.760003 v -22.17 h -10.05 v 25.470003 l -0.63,5.76 -0.57,-5.76 V 76.505617 h 12.45 v 23.37"
           style="font-size:30px;line-height:125%;font-family:'More than human';-inkscape-font-specification:'More than human'"
           id="path3159" /><path
           inkscape:connector-curvature="0"
           d="m 293.25703,101.97562 -0.63,5.76 -0.57,-5.76 V 88.955617 h -2.55 v 7.5 h -4.95 v -16.23 h 4.95 v 3.75 h 2.55 v -6.27 h -10.05 v 21.87 l -0.63,5.760003 -0.57,-5.760003 v -23.07 h 12.45 v 8.67 h -4.95 v -3.75 h -2.55 v 13.83 h 2.55 v -7.5 h 4.95 v 14.220003"
           style="font-size:30px;line-height:125%;font-family:'More than human';-inkscape-font-specification:'More than human'"
           id="path3161" /><path
           inkscape:connector-curvature="0"
           d="m 308.84297,99.575617 -0.63,5.760003 -0.57,-5.760003 v -21.87 h -2.55 v 11.25 h -4.95 v -11.25 h -2.55 v 13.77 h 7.5 v 4.98 h -7.5 v 7.320003 l -0.63,5.76 -0.57,-5.76 v -8.520003 h 7.5 v -2.58 h -7.5 v -16.17 h 4.95 v 11.25 h 2.55 v -11.25 h 4.95 v 23.07"
           style="font-size:30px;line-height:125%;font-family:'More than human';-inkscape-font-specification:'More than human'"
           id="path3163" /></g><g
         transform="matrix(0.68631727,0,0,-0.68631727,7.294559,927.19321)"
         style="font-style:normal;font-variant:normal;font-weight:normal;font-stretch:normal;font-size:12px;line-height:125%;font-family:Sans;-inkscape-font-specification:Sans;text-align:start;letter-spacing:0px;word-spacing:0px;writing-mode:lr-tb;text-anchor:start;fill:#000000;fill-opacity:1;stroke:none"
         id="flowRoot3001"><text
   xml:space="preserve"
   style="font-style:normal;font-variant:normal;font-weight:normal;font-stretch:normal;line-height:0%;font-family:sans-serif;-inkscape-font-specification:Sans;text-align:start;letter-spacing:0px;word-spacing:0px;writing-mode:lr-tb;text-anchor:start;fill:#000000;fill-opacity:1;stroke:none"
   x="19.716322"
   y="269.83459"
   id="text6700"><tspan
     sodipodi:role="line"
     id="tspan6702"
     x="19.716322"
     y="269.83459"
     style="font-size:9.94596863px;line-height:1.25;font-family:sans-serif">phoreo</tspan></text>






<text
   id="text3207"
   y="253.66774"
   x="19.716322"
   style="font-style:normal;font-variant:normal;font-weight:normal;font-stretch:normal;line-height:0%;font-family:sans-serif;-inkscape-font-specification:Sans;text-align:start;letter-spacing:0px;word-spacing:0px;writing-mode:lr-tb;text-anchor:start;fill:#000000;fill-opacity:1;stroke:none"
   xml:space="preserve"><tspan
     y="253.66774"
     x="19.716322"
     id="tspan3209"
     sodipodi:role="line"
     style="font-size:9.94596863px;line-height:1.25;font-family:sans-serif">Rebel Technology</tspan></text>






<g
   transform="translate(158.98468,241.98305)"
   style="fill:#000000"
   id="barcode1"><rect
     height="30"
     width="1"
     id="barcode1_bar1"
     y="0"
     x="0" /><rect
     height="30"
     width="1"
     id="barcode1_bar3"
     y="0"
     x="2" /><rect
     height="26"
     width="2"
     id="barcode1_bar5"
     y="0"
     x="6" /><rect
     height="26"
     width="1"
     id="barcode1_bar7"
     y="0"
     x="9" /><rect
     height="26"
     width="1"
     id="barcode1_bar9"
     y="0"
     x="14" /><rect
     height="26"
     width="1"
     id="barcode1_bar11"
     y="0"
     x="16" /><rect
     height="26"
     width="1"
     id="barcode1_bar13"
     y="0"
     x="18" /><rect
     height="26"
     width="3"
     id="barcode1_bar15"
     y="0"
     x="21" /><rect
     height="26"
     width="2"
     id="barcode1_bar17"
     y="0"
     x="25" /><rect
     height="26"
     width="1"
     id="barcode1_bar19"
     y="0"
     x="30" /><rect
     height="26"
     width="1"
     id="barcode1_bar21"
     y="0"
     x="33" /><rect
     height="26"
     width="2"
     id="barcode1_bar23"
     y="0"
     x="36" /><rect
     height="26"
     width="1"
     id="barcode1_bar25"
     y="0"
     x="39" /><rect
     height="26"
     width="3"
     id="barcode1_bar27"
     y="0"
     x="42" /><rect
     height="30"
     width="1"
     id="barcode1_bar29"
     y="0"
     x="46" /><rect
     height="30"
     width="1"
     id="barcode1_bar31"
     y="0"
     x="48" /><rect
     height="26"
     width="1"
     id="barcode1_bar33"
     y="0"
     x="50" /><rect
     height="26"
     width="1"
     id="barcode1_bar35"
     y="0"
     x="55" /><rect
     height="26"
     width="2"
     id="barcode1_bar37"
     y="0"
     x="57" /><rect
     height="26"
     width="2"
     id="barcode1_bar39"
     y="0"
     x="61" /><rect
     height="26"
     width="3"
     id="barcode1_bar41"
     y="0"
     x="64" /><rect
     height="26"
     width="1"
     id="barcode1_bar43"
     y="0"
     x="69" /><rect
     height="26"
     width="3"
     id="barcode1_bar45"
     y="0"
     x="71" /><rect
     height="26"
     width="1"
     id="barcode1_bar47"
     y="0"
     x="76" /><rect
     height="26"
     width="1"
     id="barcode1_bar49"
     y="0"
     x="78" /><rect
     height="26"
     width="3"
     id="barcode1_bar51"
     y="0"
     x="80" /><rect
     height="26"
     width="1"
     id="barcode1_bar53"
     y="0"
     x="85" /><rect
     height="26"
     width="1"
     id="barcode1_bar55"
     y="0"
     x="87" /><rect
     height="30"
     width="1"
     id="barcode1_bar57"
     y="0"
     x="92" /><rect
     height="30"
     width="1"
     id="barcode1_bar59"
     y="0"
     x="94" /><text
     id="barcode1_text"
     xml:space="preserve"
     style="font-size:9px;text-align:center;text-anchor:middle"
     y="35"
     x="47">5    060520     310046       </text>
</g></g><g
         id="g783"
         style="fill:#000000;fill-opacity:1;stroke:none"
         transform="matrix(2.8584692,0,0,-2.8584821,-519.44964,1532.0549)"><path
           d="m 199.834,255.156 c 0.033,0.333 -0.04,0.56 -0.129,0.77 -0.271,0.059 -0.259,-0.168 -0.47,-0.17 -0.449,0.15 -0.754,0.442 -0.813,0.983 0.741,0.191 1.521,0.221 2.095,0.514 0.155,0.079 0.37,0.303 0.556,0.427 0.495,0.332 0.993,0.694 1.154,1.368 0.084,0.35 -0.02,0.744 0.042,1.155 0.064,0.417 0.133,0.83 -0.085,1.325 -0.161,0.365 -0.641,0.693 -1.069,1.069 -0.276,0.243 -0.681,0.666 -1.24,0.642 -0.368,0.373 -1.05,0.432 -1.454,0.77 0.378,0.44 1.08,0.046 1.625,0.042 0.257,0.191 0.094,0.527 0.043,0.856 -1.687,-0.098 -3.302,-0.103 -4.875,-0.128 -0.012,-0.255 0.018,-0.467 0.085,-0.642 0.168,-0.131 0.453,-0.146 0.684,-0.214 -0.675,-0.489 -1.478,-0.857 -2.138,-1.453 -0.246,-0.222 -0.626,-0.483 -0.727,-0.727 -0.119,-0.292 0.022,-0.65 -0.214,-0.941 -0.092,-1.09 0.134,-1.862 0.428,-2.566 0.299,-0.364 0.717,-0.561 1.112,-0.855 0.146,-0.109 0.228,-0.318 0.385,-0.428 0.46,-0.322 1.097,-0.309 1.752,-0.47 -0.05,-0.562 -0.614,-0.611 -0.983,-0.854 -0.014,-0.171 0.076,-0.238 0.042,-0.428 1.312,0.262 2.719,-0.5 4.194,-0.045 z m -4.147,2.394 c -0.233,0.069 -0.479,0.021 -0.599,0.085 -0.19,0.104 -0.488,0.802 -0.556,1.112 -0.464,2.122 0.235,4.026 1.967,4.19 0.344,-0.581 0.109,-1.434 0.128,-2.223 0.029,-1.203 0.347,-2.556 -0.171,-3.463 -0.329,-0.004 -0.481,0.214 -0.769,0.299 z m 2.65,0.171 c -0.125,1.711 -0.143,3.694 -0.042,5.302 1.122,-0.444 2.6,-1.48 2.309,-3.25 -0.223,-1.358 -0.827,-1.939 -2.138,-2.18 -0.062,0.024 -0.105,0.067 -0.129,0.128 z"
           id="path785"
           style="clip-rule:evenodd;fill:#000000;fill-opacity:1;fill-rule:evenodd;stroke:none"
           inkscape:connector-curvature="0" /><path
           d="m 228.825,255.925 c -0.212,0.421 0.095,1.163 -0.171,1.668 -0.306,0.135 -0.739,0.167 -0.941,-0.086 -0.121,-0.186 0.087,-0.354 0.171,-0.471 -0.177,-0.215 -0.551,-0.585 -0.983,-0.598 -0.337,-0.01 -0.683,0.202 -1.111,0.042 -0.383,-0.141 -1.271,-0.248 -1.497,0.257 -0.149,0.603 -0.084,1.239 -0.128,2.052 -0.008,0.153 -0.072,0.369 -0.042,0.471 0.19,0.663 1.985,0.331 2.479,0.085 0.508,-0.251 0.51,-1.017 1.069,-0.898 0.567,0.785 -0.031,2.063 0.299,3.036 -0.174,0.026 -0.268,0.131 -0.513,0.086 -0.28,-0.463 -0.348,-1.078 -0.984,-1.197 -0.251,-0.047 -0.466,0.103 -0.77,0.128 -0.574,0.047 -1.297,-0.237 -1.625,0.128 0.136,0.935 -0.282,2.107 -0.085,2.908 0.05,0.208 0.23,0.343 0.384,0.47 0.792,0.17 1.65,0.026 2.48,-0.043 0.258,-0.021 0.482,0.052 0.641,0 0.331,-0.107 0.404,-0.469 0.599,-0.684 0.046,-0.26 -0.361,-0.067 -0.342,-0.299 0.313,-0.437 1.131,-0.795 1.71,-0.685 0.071,0.495 -0.419,0.81 -0.599,1.241 -0.184,0.441 -0.215,0.916 -0.385,1.411 -0.712,0.309 -1.672,0.222 -2.48,0.042 -0.685,0.094 -1.531,0.535 -2.223,0.214 -0.188,-10e-4 -0.253,0.118 -0.428,0.128 -0.521,-0.352 -1.294,-0.464 -2.095,-0.257 -0.538,-0.761 0.6,-0.776 0.94,-1.069 -0.039,-1.351 0.207,-3.729 0.128,-5.473 -0.032,-0.711 0.042,-1.33 -0.128,-1.753 -0.089,-0.224 -0.403,-0.58 -0.598,-0.599 -0.261,-0.025 -0.405,0.256 -0.642,0.214 0.142,-0.382 -0.217,-0.791 0.085,-1.026 0.23,-0.066 0.377,0.144 0.599,0.171 0.309,0.038 0.723,-0.1 1.154,-0.086 0.183,0.006 0.333,0.088 0.513,0.086 1.134,-0.013 2.435,0.021 3.421,0 0.245,-0.006 0.632,0.096 0.983,0.085 0.583,-0.015 0.944,-0.236 1.115,0.301 z"
           id="path787"
           style="clip-rule:evenodd;fill:#000000;fill-opacity:1;fill-rule:evenodd;stroke:none"
           inkscape:connector-curvature="0" /><path
           d="m 208.044,255.455 c 1.507,-0.011 2.728,0.636 3.634,1.368 0.419,1.004 0.874,2.306 1.026,3.464 0.047,0.35 0.031,0.892 -0.085,1.24 -0.067,0.201 -0.33,0.397 -0.471,0.642 -0.35,0.607 -0.639,1.496 -1.111,1.966 -0.254,0.254 -0.649,0.38 -0.941,0.599 -0.308,0.231 -0.562,0.463 -0.855,0.642 -0.807,0.081 -1.711,0.271 -2.48,0.042 -0.621,-0.184 -1.106,-0.79 -1.496,-1.112 -0.176,0.034 -0.22,-0.065 -0.385,-0.042 -0.281,-0.242 -0.363,-0.582 -0.599,-0.983 -0.131,-0.223 -0.35,-0.375 -0.427,-0.556 -0.288,-0.668 -0.304,-1.729 -0.342,-2.608 -0.011,-0.241 -0.118,-0.55 -0.086,-0.77 0.067,-0.462 0.535,-0.96 0.812,-1.497 0.237,-0.457 0.557,-1.092 0.898,-1.369 0.357,-0.288 0.862,-0.369 1.113,-0.726 0.7,0.096 1.163,-0.321 1.795,-0.3 z m 1.411,8.936 c 0.245,-0.077 0.628,-0.404 0.812,-0.684 0.609,-0.929 0.959,-2.016 0.813,-3.592 -0.088,-0.938 -0.409,-1.797 -0.642,-2.48 -0.078,-0.227 -0.082,-0.483 -0.171,-0.642 -0.277,-0.487 -1.416,-1.037 -2.01,-0.983 -0.713,0.065 -1.035,0.499 -1.497,0.812 -0.528,0.36 -0.638,0.327 -0.897,0.941 -0.215,0.51 -0.174,0.853 -0.299,1.582 -0.111,0.648 -0.358,1.397 -0.342,1.924 0.021,0.699 0.557,1.99 0.812,2.352 0.173,0.247 0.521,0.346 0.855,0.599 0.432,0.328 0.658,0.614 1.24,0.599 0.473,-0.445 0.853,-0.278 1.326,-0.428 z"
           id="path789"
           style="clip-rule:evenodd;fill:#000000;fill-opacity:1;fill-rule:evenodd;stroke:none"
           inkscape:connector-curvature="0" /><path
           d="m 237.418,263.622 c 0.556,0.122 1.11,-0.027 1.668,-0.085 0.239,-0.025 0.419,0.068 0.556,0 0.29,-0.146 0.219,-0.785 0.727,-0.556 0.349,0.581 0.211,1.492 0.128,2.138 -1.359,0.04 -2.483,0.208 -3.635,0 -0.246,-0.032 -0.24,0.187 -0.513,0.128 -0.056,-0.701 -0.066,-1.661 -0.085,-2.395 0.908,-0.396 1.553,-0.534 1.881,-1.582 0.307,-0.979 0.514,-1.892 0.128,-3.036 -0.243,-0.719 -1.374,-1.848 -2.009,-1.924 -0.303,-0.036 -0.465,0.148 -0.684,0.171 -0.157,0.017 -0.353,-0.063 -0.514,-0.042 -0.542,0.07 -1.213,0.671 -1.54,1.069 -0.411,0.501 -0.513,0.956 -0.556,1.881 -0.025,0.541 -0.083,1.224 0,1.668 0.081,0.434 0.759,1.239 1.026,1.582 0.183,0.234 0.506,0.438 0.556,0.641 0.036,0.146 -0.045,0.387 -0.042,0.641 0.008,0.581 0.331,0.908 -0.043,1.155 -1.229,-0.107 -2.697,-0.343 -3.763,0.086 -0.168,-0.718 -0.222,-1.649 -0.043,-2.395 0.478,-0.233 0.546,0.329 0.812,0.513 0.319,0.221 1.152,0.381 1.625,0.171 -0.63,-0.522 -1.527,-0.837 -1.839,-1.583 -0.179,-0.428 -0.252,-1.062 -0.299,-1.496 -0.158,-1.458 0.289,-2.602 0.94,-3.293 0.418,-0.442 1.027,-0.934 1.54,-1.154 0.568,-0.244 1.65,-0.491 2.352,-0.513 0.849,-0.026 1.293,0.214 1.924,0.556 0.711,0.384 0.958,0.514 1.411,1.155 0.567,0.802 1.135,2.036 0.812,3.42 -0.308,1.331 -1.629,2.202 -2.521,3.079 z"
           id="path791"
           style="clip-rule:evenodd;fill:#000000;fill-opacity:1;fill-rule:evenodd;stroke:none"
           inkscape:connector-curvature="0" /><path
           d="m 216.639,260.843 c -0.037,0.943 -0.235,2.766 0.213,3.506 0.295,0.062 0.436,0.146 0.77,0.085 0.032,0.197 0.201,0.255 0.171,0.514 -0.341,0.522 -2.297,-0.182 -2.822,0.342 -0.516,-0.197 -1.229,0.171 -1.583,-0.257 -0.104,-0.208 0.053,-0.477 0.086,-0.684 0.486,0.002 0.796,-0.173 1.112,-0.342 0.193,-1.774 0.004,-3.985 -0.043,-5.901 -0.014,-0.566 0.091,-1.284 -0.128,-1.582 -0.233,-0.318 -0.724,-0.341 -1.069,-0.385 -0.044,-0.124 -0.183,-0.473 0,-0.556 1.197,0.127 2.534,-0.01 3.848,0.085 0.803,0.058 1.609,0.01 2.267,0.342 0.12,0.061 0.186,0.217 0.342,0.342 0.133,0.107 0.341,0.165 0.428,0.257 0.356,0.379 0.531,1.241 0.469,1.881 -0.062,0.657 -0.61,1.71 -1.153,1.967 -0.137,0.064 -0.368,0.062 -0.557,0.128 -0.195,0.068 -0.354,0.195 -0.47,0.214 -0.379,0.062 -0.669,-0.103 -0.984,-0.085 -0.338,0.018 -0.525,0.234 -0.897,0.129 z m 2.094,-1.455 c 0.297,-0.407 0.323,-1.288 0.086,-1.924 -0.309,-0.824 -1.352,-1.49 -2.395,-1.155 -0.024,0.062 -0.067,0.105 -0.128,0.129 -0.06,1.257 -0.085,2.564 0.085,3.591 0.912,-0.133 1.929,-0.061 2.352,-0.641 z"
           id="path793"
           style="clip-rule:evenodd;fill:#000000;fill-opacity:1;fill-rule:evenodd;stroke:none"
           inkscape:connector-curvature="0" /></g></g><use
       id="use8245"
       transform="translate(0,127.9008)"
       xlink:href="#g4685"
       inkscape:tiled-clone-of="#g4685"
       y="0"
       x="0"
       width="100%"
       height="100%" /><use
       id="use8247"
       transform="translate(0,255.8008)"
       xlink:href="#g4685"
       inkscape:tiled-clone-of="#g4685"
       y="0"
       x="0"
       width="100%"
       height="100%" /><use
       id="use8249"
       transform="translate(0,383.7008)"
       xlink:href="#g4685"
       inkscape:tiled-clone-of="#g4685"
       y="0"
       x="0"
       width="100%"
       height="100%" /><use
       id="use8251"
       transform="translate(0,511.6008)"
       xlink:href="#g4685"
       inkscape:tiled-clone-of="#g4685"
       y="0"
       x="0"
       width="100%"
       height="100%" /><use
       id="use8253"
       transform="translate(0,639.5008)"
       xlink:href="#g4685"
       inkscape:tiled-clone-of="#g4685"
       y="0"
       x="0"
       width="100%"
       height="100%" /><use
       id="use8255"
       transform="translate(0,767.4016)"
       xlink:href="#g4685"
       inkscape:tiled-clone-of="#g4685"
       y="0"
       x="0"
       width="100%"
       height="100%" /><use
       id="use8257"
       transform="translate(212.364)"
       xlink:href="#g4685"
       inkscape:tiled-clone-of="#g4685"
       y="0"
       x="0"
       width="100%"
       height="100%" /><use
       id="use8259"
       transform="translate(212.364,127.9008)"
       xlink:href="#g4685"
       inkscape:tiled-clone-of="#g4685"
       y="0"
       x="0"
       width="100%"
       height="100%" /><use
       id="use8261"
       transform="translate(212.364,255.8008)"
       xlink:href="#g4685"
       inkscape:tiled-clone-of="#g4685"
       y="0"
       x="0"
       width="100%"
       height="100%" /><use
       id="use8263"
       transform="translate(212.364,383.7008)"
       xlink:href="#g4685"
       inkscape:tiled-clone-of="#g4685"
       y="0"
       x="0"
       width="100%"
       height="100%" /><use
       id="use8265"
       transform="translate(212.364,511.6008)"
       xlink:href="#g4685"
       inkscape:tiled-clone-of="#g4685"
       y="0"
       x="0"
       width="100%"
       height="100%" /><use
       id="use8267"
       transform="translate(212.364,639.5008)"
       xlink:href="#g4685"
       inkscape:tiled-clone-of="#g4685"
       y="0"
       x="0"
       width="100%"
       height="100%" /><use
       id="use8269"
       transform="translate(212.364,767.4016)"
       xlink:href="#g4685"
       inkscape:tiled-clone-of="#g4685"
       y="0"
       x="0"
       width="100%"
       height="100%" /><use
       id="use8271"
       transform="translate(424.728)"
       xlink:href="#g4685"
       inkscape:tiled-clone-of="#g4685"
       y="0"
       x="0"
       width="100%"
       height="100%" /><use
       id="use8273"
       transform="translate(424.728,127.9008)"
       xlink:href="#g4685"
       inkscape:tiled-clone-of="#g4685"
       y="0"
       x="0"
       width="100%"
       height="100%" /><use
       id="use8275"
       transform="translate(424.728,255.8008)"
       xlink:href="#g4685"
       inkscape:tiled-clone-of="#g4685"
       y="0"
       x="0"
       width="100%"
       height="100%" /><use
       id="use8277"
       transform="translate(424.728,383.7008)"
       xlink:href="#g4685"
       inkscape:tiled-clone-of="#g4685"
       y="0"
       x="0"
       width="100%"
       height="100%" /><use
       id="use8279"
       transform="translate(424.728,511.6008)"
       xlink:href="#g4685"
       inkscape:tiled-clone-of="#g4685"
       y="0"
       x="0"
       width="100%"
       height="100%" /><use
       id="use8281"
       transform="translate(424.728,639.5008)"
       xlink:href="#g4685"
       inkscape:tiled-clone-of="#g4685"
       y="0"
       x="0"
       width="100%"
       height="100%" /><use
       id="use8283"
       transform="translate(424.728,767.4016)"
       xlink:href="#g4685"
       inkscape:tiled-clone-of="#g4685"
       y="0"
       x="0"
       width="100%"
       height="100%" /></g></svg>