<?xml version="1.0" encoding="UTF-8" standalone="no"?>
<!-- Created with Inkscape (http://www.inkscape.org/) -->

<svg
   xmlns:dc="http://purl.org/dc/elements/1.1/"
   xmlns:cc="http://creativecommons.org/ns#"
   xmlns:rdf="http://www.w3.org/1999/02/22-rdf-syntax-ns#"
   xmlns:svg="http://www.w3.org/2000/svg"
   xmlns="http://www.w3.org/2000/svg"
   xmlns:xlink="http://www.w3.org/1999/xlink"
   xmlns:sodipodi="http://sodipodi.sourceforge.net/DTD/sodipodi-0.dtd"
   xmlns:inkscape="http://www.inkscape.org/namespaces/inkscape"
   id="svg4373"
   version="1.1"
   inkscape:version="0.92.1 r15371"
   width="210mm"
   height="297mm"
   xml:space="preserve"
   sodipodi:docname="WizardLabels.svg"><sodipodi:namedview
     pagecolor="#ffffff"
     bordercolor="#666666"
     borderopacity="1"
     objecttolerance="10"
     gridtolerance="10"
     guidetolerance="10"
     inkscape:pageopacity="0"
     inkscape:pageshadow="2"
     inkscape:window-width="1680"
     inkscape:window-height="986"
     id="namedview4375"
     showgrid="false"
     inkscape:zoom="3.9962644"
     inkscape:cx="137.08523"
     inkscape:cy="73.944733"
     inkscape:window-x="240"
     inkscape:window-y="27"
     inkscape:window-maximized="1"
     inkscape:current-layer="flowRoot3001"
     inkscape:document-units="mm"
     showguides="false"
     inkscape:guide-bbox="true"
     units="mm" /><metadata
     id="metadata4379"><rdf:RDF><cc:Work
         rdf:about=""><dc:format>image/svg+xml</dc:format><dc:type
           rdf:resource="http://purl.org/dc/dcmitype/StillImage" /><dc:title /></cc:Work></rdf:RDF></metadata><defs
     id="defs4377" /><g
     id="g4381"
     inkscape:groupmode="layer"
     inkscape:label="content"
     transform="matrix(1.25,0,0,-1.25,0,1122.5196)"><g
       id="g4685"
       transform="matrix(1.0666648,0,0,1.06666,-19.846484,-797.88613)"
       inkscape:tile-cx="123.85937"
       inkscape:tile-cy="977.36505"
       inkscape:tile-w="203.15552"
       inkscape:tile-h="129.62935"
       inkscape:tile-x0="22.281616"
       inkscape:tile-y0="912.55037"
       style="stroke-width:0.93750584"><g
         id="flowRoot2985"
         style="font-style:normal;font-variant:normal;font-weight:normal;font-stretch:normal;font-size:40px;line-height:125%;font-family:'More than human';-inkscape-font-specification:'More than human';text-align:start;letter-spacing:0px;word-spacing:0px;writing-mode:lr-tb;text-anchor:start;fill:#000000;fill-opacity:1;stroke:none;stroke-width:0.93750584"
         transform="matrix(0.68631727,0,0,-0.68631727,-12.33733,907.75774)"><path
           id="path3134"
           style="font-size:30px;line-height:125%;font-family:'More than human';-inkscape-font-specification:'More than human';stroke-width:0.93750584"
           d="m 79.5375,81.455617 h -2.55 v 9.21 l 2.55,-1.29 v -7.92 m 1.2,-1.2 v 9.87 l -4.95,2.49 v -12.36 h 4.95 m -7.5,19.920003 -0.63,5.76 -0.57,-5.76 V 76.505617 h 12.45 v 15.93 l -2.97,1.5 2.97,1.56 v 4.680003 l -0.63,5.76 -0.57,-5.76 v -3.960003 l -4.38,-2.31 4.38,-2.19 v -14.01 h -10.05 v 22.470003 m 3.75,0 -0.63,5.76 -0.57,-5.76 v -4.890003 l 4.95,2.58 v 2.310003 l -0.63,5.76 -0.57,-5.76 v -1.590003 l -2.52,-1.32 v 2.910003 h -0.03"
           inkscape:connector-curvature="0" /><path
           id="path3136"
           style="font-size:30px;line-height:125%;font-family:'More than human';-inkscape-font-specification:'More than human';stroke-width:0.93750584"
           d="m 100.13203,102.57562 -0.629999,5.76 -0.57,-5.76 v -6.120003 h -7.5 v -4.98 h 7.5 v -2.52 h -7.5 v -8.73 h 4.95 v 3.75 h 2.55 v -6.27 h -10.05 v 23.070003 l -0.63,5.76 -0.57,-5.76 V 76.505617 h 12.449999 v 8.67 h -4.949999 v -3.75 h -2.55 v 6.33 h 7.499999 v 4.92 h -7.499999 v 2.58 h 7.499999 v 7.320003"
           inkscape:connector-curvature="0" /><path
           id="path3139"
           style="font-size:30px;line-height:125%;font-family:'More than human';-inkscape-font-specification:'More than human';stroke-width:0.93750584"
           d="m 110.70937,81.455617 h -2.55 v 5.46 l 2.55,-1.29 v -4.17 m 1.2,-1.2 v 6.12 l -4.95,2.49 v -8.61 h 4.95 m -1.2,14.55 -2.55,-1.29 v 1.71 h 2.55 v -0.42 m 1.2,-0.75 v 2.37 h -4.95 v -4.86 l 4.95,2.49 m 3.75,5.82 -0.62999,5.760003 -0.57001,-5.760003 v -7.41 l -4.37999,-2.31 4.37999,-2.19 v -10.26 h -10.05 v 24.570003 l -0.62999,5.76 -0.57001,-5.76 V 76.505617 h 12.45 v 12.18 l -2.97,1.5 2.97,1.56 v 8.13"
           inkscape:connector-curvature="0" /><path
           id="path3141"
           style="font-size:30px;line-height:125%;font-family:'More than human';-inkscape-font-specification:'More than human';stroke-width:0.93750584"
           d="m 131.30391,102.57562 -0.63,5.76 -0.57,-5.76 v -6.120003 h -7.5 v -4.98 h 7.5 v -2.52 h -7.5 v -8.73 h 4.95 v 3.75 h 2.55 v -6.27 h -10.05 v 23.070003 l -0.63,5.76 -0.57,-5.76 V 76.505617 h 12.45 v 8.67 h -4.95 v -3.75 h -2.55 v 6.33 h 7.5 v 4.92 h -7.5 v 2.58 h 7.5 v 7.320003"
           inkscape:connector-curvature="0" /><path
           id="path3143"
           style="font-size:30px;line-height:125%;font-family:'More than human';-inkscape-font-specification:'More than human';stroke-width:0.93750584"
           d="m 143.08125,99.575617 -0.63,5.760003 -0.57,-5.760003 v -3.12 h -3.75 v -18.75 h -2.55 v 24.570003 l -0.63,5.76 -0.57,-5.76 V 76.505617 h 4.95 v 18.75 h 3.75 v 4.32"
           inkscape:connector-curvature="0" /><path
           id="path3145"
           style="font-size:30px;line-height:125%;font-family:'More than human';-inkscape-font-specification:'More than human';stroke-width:0.93750584"
           d="m 169.38984,100.17562 -0.63,5.76 -0.57,-5.76 V 80.225617 h 3.75 v -2.52 h -10.05 v 2.52 h 3.75 v 19.950003 l -0.63,5.76 -0.57,-5.76 V 81.425617 h -3.75 v -4.92 h 12.45 v 4.92 h -3.75 v 18.750003"
           inkscape:connector-curvature="0" /><path
           id="path3147"
           style="font-size:30px;line-height:125%;font-family:'More than human';-inkscape-font-specification:'More than human';stroke-width:0.93750584"
           d="m 188.37422,102.57562 -0.63,5.76 -0.57,-5.76 v -6.120003 h -7.5 v -4.98 h 7.5 v -2.52 h -7.5 v -8.73 h 4.95 v 3.75 h 2.55 v -6.27 h -10.05 v 23.070003 l -0.63,5.76 -0.57,-5.76 V 76.505617 h 12.45 v 8.67 h -4.95 v -3.75 h -2.55 v 6.33 h 7.5 v 4.92 h -7.5 v 2.58 h 7.5 v 7.320003"
           inkscape:connector-curvature="0" /><path
           id="path3149"
           style="font-size:30px;line-height:125%;font-family:'More than human';-inkscape-font-specification:'More than human';stroke-width:0.93750584"
           d="m 203.90156,102.27562 -0.63,5.76 -0.57,-5.76 v -9.570003 h -2.55 v 3.75 h -4.95 v -16.23 h 4.95 v 3.75 h 2.55 v -6.27 h -10.05 v 22.17 l -0.63,5.760003 -0.57,-5.760003 v -23.37 h 12.45 v 8.67 h -4.95 v -3.75 h -2.55 v 13.83 h 2.55 v -3.75 h 4.95 v 10.770003"
           inkscape:connector-curvature="0" /><path
           id="path3151"
           style="font-size:30px;line-height:125%;font-family:'More than human';-inkscape-font-specification:'More than human';stroke-width:0.93750584"
           d="m 219.37031,100.77562 -0.63,5.76 -0.57,-5.76 V 77.705617 h -2.55 v 15 h -4.95 v -15 h -2.55 v 22.17 l -0.63,5.760003 -0.57,-5.760003 v -23.37 h 4.95 v 15 h 2.55 v -15 h 4.95 v 24.270003 m -3.75,-1.500003 -0.63,5.760003 -0.57,-5.760003 v -2.85 h -2.55 v 7.050003 l -0.63,5.76 -0.57,-5.76 v -8.250003 h 4.95 v 4.05"
           inkscape:connector-curvature="0" /><path
           id="path3153"
           style="font-size:30px;line-height:125%;font-family:'More than human';-inkscape-font-specification:'More than human';stroke-width:0.93750584"
           d="m 231.44484,100.17562 -0.63,5.76 -0.57,-5.76 -2.7,-7.890003 v 7.29 l -0.63,5.760003 -0.57,-5.760003 h -0.03 l 0.03,-14.43 5.1,15.030003 m 3.57,0.9 -0.63,5.76 -0.57,-5.76 V 77.705617 h -2.58 v 13.83 l -4.77,-13.83 h -2.7 v 25.770003 l -0.63,5.76 -0.57,-5.76 V 76.505617 h 4.77 l 2.7,7.89 v -7.89 h 4.98 v 24.570003"
           inkscape:connector-curvature="0" /><path
           id="path3155"
           style="font-size:30px;line-height:125%;font-family:'More than human';-inkscape-font-specification:'More than human';stroke-width:0.93750584"
           d="m 245.70937,81.455617 h -2.55 v 13.77 h 2.55 v -13.77 m 1.2,-1.2 v 16.17 h -4.95 v -16.17 h 4.95 m 3.75,19.62 -0.63,5.760003 -0.57,-5.760003 v -22.17 h -10.05 v 25.470003 l -0.63,5.76 -0.57,-5.76 V 76.505617 h 12.45 v 23.37"
           inkscape:connector-curvature="0" /><path
           id="path3157"
           style="font-size:30px;line-height:125%;font-family:'More than human';-inkscape-font-specification:'More than human';stroke-width:0.93750584"
           d="m 262.55391,99.575617 -0.63,5.760003 -0.57,-5.760003 v -3.12 h -3.75 v -18.75 h -2.55 v 24.570003 l -0.63,5.76 -0.57,-5.76 V 76.505617 h 4.95 v 18.75 h 3.75 v 4.32"
           inkscape:connector-curvature="0" /><path
           id="path3159"
           style="font-size:30px;line-height:125%;font-family:'More than human';-inkscape-font-specification:'More than human';stroke-width:0.93750584"
           d="m 272.6625,81.455617 h -2.55 v 13.77 h 2.55 v -13.77 m 1.2,-1.2 v 16.17 h -4.95 v -16.17 h 4.95 m 3.75,19.62 -0.63,5.760003 -0.57,-5.760003 v -22.17 h -10.05 v 25.470003 l -0.63,5.76 -0.57,-5.76 V 76.505617 h 12.45 v 23.37"
           inkscape:connector-curvature="0" /><path
           id="path3161"
           style="font-size:30px;line-height:125%;font-family:'More than human';-inkscape-font-specification:'More than human';stroke-width:0.93750584"
           d="m 293.25703,101.97562 -0.63,5.76 -0.57,-5.76 V 88.955617 h -2.55 v 7.5 h -4.95 v -16.23 h 4.95 v 3.75 h 2.55 v -6.27 h -10.05 v 21.87 l -0.63,5.760003 -0.57,-5.760003 v -23.07 h 12.45 v 8.67 h -4.95 v -3.75 h -2.55 v 13.83 h 2.55 v -7.5 h 4.95 v 14.220003"
           inkscape:connector-curvature="0" /><path
           id="path3163"
           style="font-size:30px;line-height:125%;font-family:'More than human';-inkscape-font-specification:'More than human';stroke-width:0.93750584"
           d="m 308.84297,99.575617 -0.63,5.760003 -0.57,-5.760003 v -21.87 h -2.55 v 11.25 h -4.95 v -11.25 h -2.55 v 13.77 h 7.5 v 4.98 h -7.5 v 7.320003 l -0.63,5.76 -0.57,-5.76 v -8.520003 h 7.5 v -2.58 h -7.5 v -16.17 h 4.95 v 11.25 h 2.55 v -11.25 h 4.95 v 23.07"
           inkscape:connector-curvature="0" /></g><g
         id="flowRoot3001"
         style="font-style:normal;font-variant:normal;font-weight:normal;font-stretch:normal;font-size:12px;line-height:125%;font-family:Sans;-inkscape-font-specification:Sans;text-align:start;letter-spacing:0px;word-spacing:0px;writing-mode:lr-tb;text-anchor:start;fill:#000000;fill-opacity:1;stroke:none;stroke-width:0.93750584"
         transform="matrix(0.68631727,0,0,-0.68631727,24.889497,949.01546)"><g
           transform="translate(5.0710011e-4,0.06582769)"
           style="font-style:normal;font-variant:normal;font-weight:normal;font-stretch:normal;font-size:12px;line-height:125%;font-family:Sans;-inkscape-font-specification:Sans;text-align:start;letter-spacing:0px;word-spacing:0px;writing-mode:lr-tb;text-anchor:start;fill:#000000;fill-opacity:1;stroke:none;stroke-width:0.93750584"
           id="flowRoot3001-3"><text
             id="text6700-0"
             y="269.83456"
             x="19.715643"
             style="font-style:normal;font-weight:normal;line-height:0%;font-family:sans-serif;letter-spacing:0px;word-spacing:0px;fill:#000000;fill-opacity:1;stroke:none;stroke-width:0.93750584"
             xml:space="preserve"><tspan
               y="269.83456"
               x="19.715643"
               id="tspan6702-6"
               sodipodi:role="line"
               style="font-size:9.94596863px;line-height:1.25;font-family:sans-serif;stroke-width:0.93750584">wizard</tspan></text>
<text
             xml:space="preserve"
             style="font-style:normal;font-weight:normal;line-height:0%;font-family:sans-serif;letter-spacing:0px;word-spacing:0px;fill:#000000;fill-opacity:1;stroke:none;stroke-width:0.93750584"
             x="19.715643"
             y="253.66774"
             id="text4244"><tspan
               id="tspan4248"
               sodipodi:role="line"
               x="19.715643"
               y="253.66774"
               style="font-size:9.94596863px;line-height:1.25;font-family:sans-serif;stroke-width:0.93750584">Rebel Technology</tspan></text>
<g
             transform="translate(157.89591,241.8075)"
             style="fill:#000000;stroke-width:0.93750584"
             id="barcode"><rect
               height="24"
               width="1"
               id="barcode_bar1"
               y="0"
               x="0"
               style="stroke-width:0.93750584" /><rect
               height="24"
               width="1"
               id="barcode_bar3"
               y="0"
               x="2"
               style="stroke-width:0.93750584" /><rect
               height="20"
               width="2"
               id="barcode_bar5"
               y="0"
               x="6"
               style="stroke-width:0.93750584" /><rect
               height="20"
               width="1"
               id="barcode_bar7"
               y="0"
               x="9"
               style="stroke-width:0.93750584" /><rect
               height="20"
               width="1"
               id="barcode_bar9"
               y="0"
               x="14"
               style="stroke-width:0.93750584" /><rect
               height="20"
               width="1"
               id="barcode_bar11"
               y="0"
               x="16"
               style="stroke-width:0.93750584" /><rect
               height="20"
               width="1"
               id="barcode_bar13"
               y="0"
               x="18"
               style="stroke-width:0.93750584" /><rect
               height="20"
               width="3"
               id="barcode_bar15"
               y="0"
               x="21"
               style="stroke-width:0.93750584" /><rect
               height="20"
               width="2"
               id="barcode_bar17"
               y="0"
               x="25"
               style="stroke-width:0.93750584" /><rect
               height="20"
               width="1"
               id="barcode_bar19"
               y="0"
               x="30"
               style="stroke-width:0.93750584" /><rect
               height="20"
               width="1"
               id="barcode_bar21"
               y="0"
               x="33"
               style="stroke-width:0.93750584" /><rect
               height="20"
               width="2"
               id="barcode_bar23"
               y="0"
               x="36"
               style="stroke-width:0.93750584" /><rect
               height="20"
               width="1"
               id="barcode_bar25"
               y="0"
               x="39"
               style="stroke-width:0.93750584" /><rect
               height="20"
               width="3"
               id="barcode_bar27"
               y="0"
               x="42"
               style="stroke-width:0.93750584" /><rect
               height="24"
               width="1"
               id="barcode_bar29"
               y="0"
               x="46"
               style="stroke-width:0.93750584" /><rect
               height="24"
               width="1"
               id="barcode_bar31"
               y="0"
               x="48"
               style="stroke-width:0.93750584" /><rect
               height="20"
               width="1"
               id="barcode_bar33"
               y="0"
               x="50"
               style="stroke-width:0.93750584" /><rect
               height="20"
               width="1"
               id="barcode_bar35"
               y="0"
               x="55"
               style="stroke-width:0.93750584" /><rect
               height="20"
               width="2"
               id="barcode_bar37"
               y="0"
               x="57"
               style="stroke-width:0.93750584" /><rect
               height="20"
               width="2"
               id="barcode_bar39"
               y="0"
               x="61"
               style="stroke-width:0.93750584" /><rect
               height="20"
               width="3"
               id="barcode_bar41"
               y="0"
               x="64"
               style="stroke-width:0.93750584" /><rect
               height="20"
               width="1"
               id="barcode_bar43"
               y="0"
               x="69"
               style="stroke-width:0.93750584" /><rect
               height="20"
               width="2"
               id="barcode_bar45"
               y="0"
               x="71"
               style="stroke-width:0.93750584" /><rect
               height="20"
               width="2"
               id="barcode_bar47"
               y="0"
               x="75"
               style="stroke-width:0.93750584" /><rect
               height="20"
               width="1"
               id="barcode_bar49"
               y="0"
               x="78"
               style="stroke-width:0.93750584" /><rect
               height="20"
               width="1"
               id="barcode_bar51"
               y="0"
               x="81"
               style="stroke-width:0.93750584" /><rect
               height="20"
               width="1"
               id="barcode_bar53"
               y="0"
               x="85"
               style="stroke-width:0.93750584" /><rect
               height="20"
               width="1"
               id="barcode_bar55"
               y="0"
               x="90"
               style="stroke-width:0.93750584" /><rect
               height="24"
               width="1"
               id="barcode_bar57"
               y="0"
               x="92"
               style="stroke-width:0.93750584" /><rect
               height="24"
               width="1"
               id="barcode_bar59"
               y="0"
               x="94"
               style="stroke-width:0.93750584" /><text
               id="barcode_text"
               xml:space="preserve"
               style="font-size:9px;text-align:center;text-anchor:middle;stroke-width:0.93750584"
               y="29"
               x="47">5    060520     310183       </text>
</g></g></g><g
         style="fill:#000000;stroke:#000000;stroke-width:0.91510582"
         transform="matrix(0.87402943,0,0,-0.87440942,-18.442347,881.65174)"
         id="g5981"><path
           inkscape:connector-curvature="0"
           id="path4534"
           style="font-style:normal;font-variant:normal;font-weight:normal;font-stretch:normal;font-size:medium;line-height:125%;font-family:'Typographer Uncialgotisch';-inkscape-font-specification:'Typographer Uncialgotisch';letter-spacing:0px;word-spacing:0px;fill:#000000;fill-opacity:1;stroke:#000000;stroke-width:0.91510582px;stroke-linecap:butt;stroke-linejoin:miter;stroke-opacity:1"
           d="m 129.07263,68.074865 q 0,2.618207 -0.18362,15.709246 -0.18362,13.527404 -0.25711,13.876498 -0.0733,0.305455 -2.01986,1.614559 -1.94646,1.265462 -2.38719,1.396372 l -0.66101,-0.34909 -0.18363,-0.916372 0.11014,-5.454595 h -0.22027 q -2.01995,2.050928 -4.59068,3.7964 -3.19517,2.1382 -5.10481,2.1382 -2.9748,0 -4.99466,-1.178193 -1.79959,-1.090917 -3.96633,-3.840035 l -0.11023,-0.04364 q -0.22036,0 -1.50573,1.396377 -1.57921,1.701832 -2.75435,2.530931 -1.909721,1.396377 -3.599076,1.396377 -3.121688,0 -6.427,-3.534577 -3.305225,-3.578216 -3.305225,-7.287343 0,-4.669136 0.844634,-7.46189 0.697839,-2.269113 2.534075,-4.625503 2.093344,-2.530933 4.186688,-5.105504 0.183624,-0.305457 -0.991602,-0.523641 -1.505731,-0.130911 -4.443709,-0.829099 L 88.895107,70.518525 92.3473,66.154847 q 1.028344,0 4.149946,0.436367 3.305311,0.480005 3.966324,0.741826 l 0.25711,0.567278 q -0.51413,1.22183 -3.121606,3.316396 -2.791183,2.269113 -4.003064,4.363678 -2.019947,3.40367 -2.019947,8.640087 0,4.320042 2.680957,7.505527 2.717699,3.141849 6.42691,3.141849 1.68936,0 3.08495,-1.22183 l 0.40399,-0.960009 q -0.69775,-3.054575 -0.69775,-4.145495 0,-5.367325 2.01986,-9.207365 1.02834,-2.007292 5.17829,-7.156433 l 0.25702,-0.392731 -0.11014,-0.174547 -3.92958,-1.178193 q -1.28545,-0.392732 -1.28545,-0.523642 0.80797,-2.31275 3.78278,-4.145495 0.11014,-0.08727 0.29377,0.08727 0.22036,0.174547 0.25711,0.174547 2.20348,0.523642 6.68393,1.745472 l 0.11023,0.13091 q 0,0.13091 -0.33051,0.436368 -1.68935,1.570924 -4.92118,5.105504 -3.34206,4.276405 -3.34206,11.781935 0,4.88732 2.3872,7.680075 2.38711,2.749117 6.53705,2.749117 4.22343,0 5.91279,-4.88732 1.17522,-3.490943 1.17522,-10.036461 0,-1.26547 -0.0366,-3.316399 -0.0367,-2.094565 -0.0367,-2.836391 0,-0.349094 -0.14688,-1.789108 -0.11014,-1.483651 -0.11014,-2.269113 0,-1.178193 0.25702,-1.570924 0.91812,-0.305458 2.27697,-1.22183 1.06509,-0.698189 2.16683,-1.440014 0.14688,-0.08727 0.55087,0.305457 v 1.483651 z" /><path
           inkscape:connector-curvature="0"
           id="path4536"
           style="font-style:normal;font-variant:normal;font-weight:normal;font-stretch:normal;font-size:medium;line-height:125%;font-family:'Typographer Uncialgotisch';-inkscape-font-specification:'Typographer Uncialgotisch';letter-spacing:0px;word-spacing:0px;fill:#000000;fill-opacity:1;stroke:#000000;stroke-width:0.91510582px;stroke-linecap:butt;stroke-linejoin:miter;stroke-opacity:1"
           d="m 143.81567,66.154847 -4.23277,4.363678 q -1.13455,0.829099 -3.27276,2.661844 -0.56728,0.567278 -1.22183,0.567278 V 73.5731 q 0.39273,-0.480005 1.22183,-1.440014 1.1782,-1.22183 3.70913,-3.447306 3.18549,-2.749117 3.7964,-2.749117 z m 0,29.978475 q -4.01458,4.014578 -4.23277,3.970948 -1.00364,-0.305461 -2.74912,-1.221833 -2.00729,-1.047283 -2.40002,-1.614559 0.13091,-0.610915 0.78546,-2.050929 0.52364,-1.178193 0.52364,-2.356386 V 80.162258 q -0.96,-0.872739 -2.09456,-2.225479 0.34909,-0.785462 2.05093,-2.094566 1.57092,-1.22183 2.53093,-1.483651 0.74183,0.305458 2.18184,1.22183 1.61456,1.003646 1.96366,1.483651 0.0873,0.261821 -1.35274,1.527287 -0.26182,1.047287 -0.26182,2.312754 0,1.963655 -0.13092,5.890966 -0.13091,3.883674 -0.13091,5.847329 0,1.483651 0.87274,2.138202 0.39273,0.349095 1.57092,0.654552 0.87274,0.218184 0.87274,0.654552 v 0.04364 z" /><path
           inkscape:connector-curvature="0"
           id="path4538"
           style="font-style:normal;font-variant:normal;font-weight:normal;font-stretch:normal;font-size:medium;line-height:125%;font-family:'Typographer Uncialgotisch';-inkscape-font-specification:'Typographer Uncialgotisch';letter-spacing:0px;word-spacing:0px;fill:#000000;fill-opacity:1;stroke:#000000;stroke-width:0.91510582px;stroke-linecap:butt;stroke-linejoin:miter;stroke-opacity:1"
           d="m 164.31065,94.606034 q -0.26182,0.829099 -1.61456,2.661844 -1.1782,1.658196 -2.0073,2.487294 -2.57457,0 -7.72371,0.08727 -5.14914,0.08727 -7.72371,0.08727 0,-0.04364 3.62185,-4.756407 3.66549,-4.712773 3.66549,-5.803693 0,-0.261821 -0.17454,-0.305457 l -3.40367,-0.261821 -0.13091,-0.08727 q 0,-0.480004 2.35638,-4.494589 h 4.36368 q 0.21819,-0.305457 1.35274,-2.269113 1.1782,-1.963655 1.1782,-2.138202 0,-0.218184 -0.13091,-0.392735 -9.51282,-0.26182 -8.68372,-0.26182 -2.09457,0 -2.44366,-0.130911 l -0.13091,-0.26182 q 0.21818,-0.916373 1.48365,-2.487297 1.3091,-1.614561 2.09456,-1.614561 1.78911,0 6.58916,0.08727 4.18913,0.08727 6.63279,0.04364 0.13091,0.04364 0.13091,0.174547 v 0.08727 q -4.75641,7.592804 -4.88732,8.72736 l 0.21818,0.305458 q 0.21819,0.08727 4.27641,0.08727 l 0.13091,0.13091 q 0,0.480005 -1.39638,2.487297 -1.39638,1.963655 -1.92002,2.400023 h -4.75641 q -0.34909,0.13091 -1.92002,2.57457 -1.52728,2.44366 -1.52728,2.836391 0,0.305458 0.13091,0.392731 1.00364,0.130911 1.70183,0.130911 h 3.75276 q 1.1782,0 3.49095,-0.218184 2.31275,-0.261821 3.40367,-0.305458 z" /><path
           inkscape:connector-curvature="0"
           id="path4540"
           style="font-style:normal;font-variant:normal;font-weight:normal;font-stretch:normal;font-size:medium;line-height:125%;font-family:'Typographer Uncialgotisch';-inkscape-font-specification:'Typographer Uncialgotisch';letter-spacing:0px;word-spacing:0px;fill:#000000;fill-opacity:1;stroke:#000000;stroke-width:0.91510582px;stroke-linecap:butt;stroke-linejoin:miter;stroke-opacity:1"
           d="m 186.81902,95.522407 q -0.87273,1.22183 -1.7891,2.443657 -1.30911,1.701835 -1.96366,1.789108 -0.61091,-0.13091 -2.18184,-1.090919 -1.52729,-1.003644 -1.87638,-1.440012 h -0.26182 q -1.57093,1.396375 -3.01094,2.923659 h -0.0873 q -0.52364,0 -4.32004,-1.614558 -3.7964,-1.614558 -4.05823,-1.876379 0.43637,-0.741825 1.1782,-2.312749 0.56728,-1.658198 0.56728,-7.243707 0,-1.570924 -0.17455,-4.625499 -0.13091,-3.098215 -0.13091,-4.66914 0.65455,-0.829099 3.36003,-2.44366 2.70548,-1.658198 3.62185,-1.658198 1.22183,0 4.32005,0.698189 3.14184,0.698189 4.2764,1.178193 l 0.17455,0.392731 q -0.69819,3.229122 -0.69819,9.381913 v 5.847329 q 0,1.22183 0.13091,2.356386 1.00365,0.567279 2.92366,1.920019 v 0.04364 z m -7.5928,-14.574687 q 0,-3.010941 -4.88732,-3.010941 h -0.48 l -0.13091,0.174547 q 0,1.178193 -0.0873,3.490946 -0.0436,2.31275 -0.0436,3.490943 0,2.269113 -0.43637,4.88732 -0.0436,0.392731 -0.43637,1.440014 -0.30545,0.872736 -0.30545,1.440014 0,0.610915 2.66184,1.483651 2.40002,0.785462 3.36003,0.785462 h 0.26182 l 0.17455,-0.130911 q 0.26182,-2.880027 0.26182,-2.487296 0,-1.920019 0.0436,-5.760056 0.0436,-3.883674 0.0436,-5.803693 z" /><path
           inkscape:connector-curvature="0"
           id="path4542"
           style="font-style:normal;font-variant:normal;font-weight:normal;font-stretch:normal;font-size:medium;line-height:125%;font-family:'Typographer Uncialgotisch';-inkscape-font-specification:'Typographer Uncialgotisch';letter-spacing:0px;word-spacing:0px;fill:#000000;fill-opacity:1;stroke:#000000;stroke-width:0.91510582px;stroke-linecap:butt;stroke-linejoin:miter;stroke-opacity:1"
           d="m 205.02787,76.845859 q -0.30546,0.741825 -1.78911,2.225476 -1.44001,1.440018 -2.22547,1.876385 -0.78547,-0.08727 -1.96366,-0.829099 -1.3091,-0.872739 -1.87638,-1.047286 -0.26182,-0.08727 -0.3491,0.13091 0.17455,1.047287 0.17455,2.400027 0,1.527288 -0.30546,4.712773 -0.26182,3.141849 -0.26182,4.494589 0,0.436368 0.0436,1.265467 0.0873,0.829099 0.0873,1.134556 0.8291,0.872736 2.53094,1.614561 2.22547,0.916373 2.74911,1.265467 l 0.0436,0.218184 q -0.26182,0.698189 -1.92002,2.225473 -1.6582,1.527288 -2.26911,1.527288 -0.52364,0 -3.53458,-1.22183 -2.9673,-1.265464 -3.66549,-1.701832 -0.0873,-0.392731 0.34909,-1.003646 0.56728,-0.785462 0.61092,-0.960009 0.26182,-0.741826 0.26182,-6.327334 v -7.941895 q 0,-0.567279 -0.13091,-1.309104 -1.09092,-0.436371 -2.92366,-1.701838 v -0.13091 q 0.87273,-0.916373 2.44366,-2.050929 1.92001,-1.396378 2.66184,-1.396378 0.43637,0 1.61456,0.567279 1.17819,0.523641 1.6582,0.916372 v 1.309104 l 0.21818,0.13091 q 0.17455,0.08727 0.8291,-0.480005 0.65455,-0.610915 1.39638,-1.309103 1.04728,-0.872736 1.70183,-0.872736 0.39273,0 2.05093,1.003646 1.6582,0.96001 1.78911,1.265467 z" /><path
           inkscape:connector-curvature="0"
           id="path4544"
           style="font-style:normal;font-variant:normal;font-weight:normal;font-stretch:normal;font-size:medium;line-height:125%;font-family:'Typographer Uncialgotisch';-inkscape-font-specification:'Typographer Uncialgotisch';letter-spacing:0px;word-spacing:0px;fill:#000000;fill-opacity:1;stroke:#000000;stroke-width:0.91510582px;stroke-linecap:butt;stroke-linejoin:miter;stroke-opacity:1"
           d="m 224.85189,93.995119 q 0,0.785462 -3.7964,3.490943 -3.7964,2.661838 -4.53823,2.661838 -1.48365,0 -4.14549,-0.916369 -3.09822,-1.047283 -4.18914,-1.22183 l -0.13091,-0.13091 v -0.480002 q 0,-1.09092 0.3491,-3.447306 0.34909,-2.400024 0.34909,-3.621854 0,-0.654551 -0.21818,-4.101858 -0.17455,-3.447306 -0.17455,-5.236414 0,-2.792758 0.39273,-3.57822 l 1.70184,-1.003646 0.39273,-0.698188 v -0.174548 q -1.48365,-1.309103 -2.9673,-2.57457 -2.05093,-1.920018 -2.05093,-3.054575 v -0.436368 q 0.61091,-0.785462 2.53093,-2.181839 2.70548,-1.920019 2.88003,-2.050929 h 0.26182 v 0.392731 l -1.04728,1.309104 v 0.26182 q 1.83274,2.574571 6.37097,5.410962 4.36368,2.705481 7.63644,3.447306 l 0.13091,0.13091 v 0.610915 q 0,1.701835 -0.13091,5.803696 -0.13091,3.752764 -0.0873,5.84733 0,0.916372 0.21819,2.792754 0.26182,1.832745 0.26182,2.749117 z m -5.14914,1.483651 v -1.396377 q 0,-1.789108 -0.17455,-5.847329 -0.13091,-3.796401 -0.13091,-5.84733 l 0.0436,-2.356386 q -0.30546,-0.436368 -1.74548,-1.090923 -1.7891,-0.785462 -2.05092,-0.96001 -0.43637,-0.349094 -0.87274,-0.698188 -0.61092,-0.436368 -0.96001,-0.436368 -0.30546,0.13091 -0.30546,0.392731 0,11.127384 0,11.127384 -0.13091,1.265467 -0.39273,3.7964 0,0.174547 -0.21818,0.610915 -0.21819,0.436368 -0.21819,0.829099 0,0.654552 3.05458,1.440014 2.74912,0.741826 3.70913,0.698189 l 0.26182,-0.261821 z" /></g></g><use
       height="100%"
       width="100%"
       x="0"
       y="0"
       inkscape:tiled-clone-of="#g4685"
       xlink:href="#g4685"
       transform="translate(0,127.90016)"
       id="use8245"
       style="stroke-width:0.93750584" /><use
       height="100%"
       width="100%"
       x="0"
       y="0"
       inkscape:tiled-clone-of="#g4685"
       xlink:href="#g4685"
       transform="translate(0,255.80032)"
       id="use8247"
       style="stroke-width:0.93750584" /><use
       height="100%"
       width="100%"
       x="0"
       y="0"
       inkscape:tiled-clone-of="#g4685"
       xlink:href="#g4685"
       transform="translate(0,383.70048)"
       id="use8249"
       style="stroke-width:0.93750584" /><use
       height="100%"
       width="100%"
       x="0"
       y="0"
       inkscape:tiled-clone-of="#g4685"
       xlink:href="#g4685"
       transform="translate(0,511.60064)"
       id="use8251"
       style="stroke-width:0.93750584" /><use
       height="100%"
       width="100%"
       x="0"
       y="0"
       inkscape:tiled-clone-of="#g4685"
       xlink:href="#g4685"
       transform="translate(0,639.5008)"
       id="use8253"
       style="stroke-width:0.93750584" /><use
       height="100%"
       width="100%"
       x="0"
       y="0"
       inkscape:tiled-clone-of="#g4685"
       xlink:href="#g4685"
       transform="translate(0,767.40095)"
       id="use8255"
       style="stroke-width:0.93750584" /><use
       height="100%"
       width="100%"
       x="0"
       y="0"
       inkscape:tiled-clone-of="#g4685"
       xlink:href="#g4685"
       id="use8257"
       style="stroke-width:0.93750584"
       transform="translate(212.36391)" /><use
       height="100%"
       width="100%"
       x="0"
       y="0"
       inkscape:tiled-clone-of="#g4685"
       xlink:href="#g4685"
       transform="translate(212.36391,127.90016)"
       id="use8259"
       style="stroke-width:0.93750584" /><use
       height="100%"
       width="100%"
       x="0"
       y="0"
       inkscape:tiled-clone-of="#g4685"
       xlink:href="#g4685"
       transform="translate(212.36391,255.80032)"
       id="use8261"
       style="stroke-width:0.93750584" /><use
       height="100%"
       width="100%"
       x="0"
       y="0"
       inkscape:tiled-clone-of="#g4685"
       xlink:href="#g4685"
       transform="translate(212.36391,383.70048)"
       id="use8263"
       style="stroke-width:0.93750584" /><use
       height="100%"
       width="100%"
       x="0"
       y="0"
       inkscape:tiled-clone-of="#g4685"
       xlink:href="#g4685"
       transform="translate(212.36391,511.60064)"
       id="use8265"
       style="stroke-width:0.93750584" /><use
       height="100%"
       width="100%"
       x="0"
       y="0"
       inkscape:tiled-clone-of="#g4685"
       xlink:href="#g4685"
       transform="translate(212.36391,639.5008)"
       id="use8267"
       style="stroke-width:0.93750584" /><use
       height="100%"
       width="100%"
       x="0"
       y="0"
       inkscape:tiled-clone-of="#g4685"
       xlink:href="#g4685"
       transform="translate(212.36391,767.40095)"
       id="use8269"
       style="stroke-width:0.93750584" /><use
       height="100%"
       width="100%"
       x="0"
       y="0"
       inkscape:tiled-clone-of="#g4685"
       xlink:href="#g4685"
       id="use8271"
       style="stroke-width:0.93750584"
       transform="translate(424.72782)" /><use
       height="100%"
       width="100%"
       x="0"
       y="0"
       inkscape:tiled-clone-of="#g4685"
       xlink:href="#g4685"
       transform="translate(424.72782,127.90016)"
       id="use8273"
       style="stroke-width:0.93750584" /><use
       height="100%"
       width="100%"
       x="0"
       y="0"
       inkscape:tiled-clone-of="#g4685"
       xlink:href="#g4685"
       transform="translate(424.72782,255.80032)"
       id="use8275"
       style="stroke-width:0.93750584" /><use
       height="100%"
       width="100%"
       x="0"
       y="0"
       inkscape:tiled-clone-of="#g4685"
       xlink:href="#g4685"
       transform="translate(424.72782,383.70048)"
       id="use8277"
       style="stroke-width:0.93750584" /><use
       height="100%"
       width="100%"
       x="0"
       y="0"
       inkscape:tiled-clone-of="#g4685"
       xlink:href="#g4685"
       transform="translate(424.72782,511.60064)"
       id="use8279"
       style="stroke-width:0.93750584" /><use
       height="100%"
       width="100%"
       x="0"
       y="0"
       inkscape:tiled-clone-of="#g4685"
       xlink:href="#g4685"
       transform="translate(424.72782,639.5008)"
       id="use8281"
       style="stroke-width:0.93750584" /><use
       height="100%"
       width="100%"
       x="0"
       y="0"
       inkscape:tiled-clone-of="#g4685"
       xlink:href="#g4685"
       transform="translate(424.72782,767.40095)"
       id="use8283"
       style="stroke-width:0.93750584" /></g></svg>