<?xml version="1.0" encoding="UTF-8" standalone="no"?>
<!-- Created with Inkscape (http://www.inkscape.org/) -->

<svg
   xmlns:dc="http://purl.org/dc/elements/1.1/"
   xmlns:cc="http://creativecommons.org/ns#"
   xmlns:rdf="http://www.w3.org/1999/02/22-rdf-syntax-ns#"
   xmlns:svg="http://www.w3.org/2000/svg"
   xmlns="http://www.w3.org/2000/svg"
   xmlns:xlink="http://www.w3.org/1999/xlink"
   xmlns:sodipodi="http://sodipodi.sourceforge.net/DTD/sodipodi-0.dtd"
   xmlns:inkscape="http://www.inkscape.org/namespaces/inkscape"
   id="svg4373"
   version="1.1"
   inkscape:version="0.92.1 r15371"
   width="210mm"
   height="297mm"
   xml:space="preserve"
   sodipodi:docname="AlchemistLabels.svg"><sodipodi:namedview
     pagecolor="#ffffff"
     bordercolor="#666666"
     borderopacity="1"
     objecttolerance="10"
     gridtolerance="10"
     guidetolerance="10"
     inkscape:pageopacity="0"
     inkscape:pageshadow="2"
     inkscape:window-width="1680"
     inkscape:window-height="986"
     id="namedview4375"
     showgrid="false"
     inkscape:zoom="4.1298105"
     inkscape:cx="137.16879"
     inkscape:cy="61.501243"
     inkscape:window-x="240"
     inkscape:window-y="27"
     inkscape:window-maximized="1"
     inkscape:current-layer="flowRoot3001"
     inkscape:document-units="mm"
     showguides="false"
     inkscape:guide-bbox="true"
     units="mm" /><metadata
     id="metadata4379"><rdf:RDF><cc:Work
         rdf:about=""><dc:format>image/svg+xml</dc:format><dc:type
           rdf:resource="http://purl.org/dc/dcmitype/StillImage" /><dc:title></dc:title></cc:Work></rdf:RDF></metadata><defs
     id="defs4377" /><g
     transform="matrix(1.25,0,0,-1.25,0,1122.5196)"
     inkscape:label="content"
     inkscape:groupmode="layer"
     id="g4381"><g
       style="stroke-width:0.93750584"
       inkscape:tile-y0="912.55037"
       inkscape:tile-x0="22.281616"
       inkscape:tile-h="129.62935"
       inkscape:tile-w="203.15552"
       inkscape:tile-cy="977.36505"
       inkscape:tile-cx="123.85937"
       transform="matrix(1.0666648,0,0,1.06666,-19.846484,-797.88613)"
       id="g4685"><g
         transform="matrix(0.68631727,0,0,-0.68631727,-12.33733,907.75774)"
         style="font-style:normal;font-variant:normal;font-weight:normal;font-stretch:normal;font-size:40px;line-height:125%;font-family:'More than human';-inkscape-font-specification:'More than human';text-align:start;letter-spacing:0px;word-spacing:0px;writing-mode:lr-tb;text-anchor:start;fill:#000000;fill-opacity:1;stroke:none;stroke-width:0.93750584"
         id="flowRoot2985"><path
           inkscape:connector-curvature="0"
           d="m 79.5375,81.455617 h -2.55 v 9.21 l 2.55,-1.29 v -7.92 m 1.2,-1.2 v 9.87 l -4.95,2.49 v -12.36 h 4.95 m -7.5,19.920003 -0.63,5.76 -0.57,-5.76 V 76.505617 h 12.45 v 15.93 l -2.97,1.5 2.97,1.56 v 4.680003 l -0.63,5.76 -0.57,-5.76 v -3.960003 l -4.38,-2.31 4.38,-2.19 v -14.01 h -10.05 v 22.470003 m 3.75,0 -0.63,5.76 -0.57,-5.76 v -4.890003 l 4.95,2.58 v 2.310003 l -0.63,5.76 -0.57,-5.76 v -1.590003 l -2.52,-1.32 v 2.910003 h -0.03"
           style="font-size:30px;line-height:125%;font-family:'More than human';-inkscape-font-specification:'More than human';stroke-width:0.93750584"
           id="path3134" /><path
           inkscape:connector-curvature="0"
           d="m 100.13203,102.57562 -0.629999,5.76 -0.57,-5.76 v -6.120003 h -7.5 v -4.98 h 7.5 v -2.52 h -7.5 v -8.73 h 4.95 v 3.75 h 2.55 v -6.27 h -10.05 v 23.070003 l -0.63,5.76 -0.57,-5.76 V 76.505617 h 12.449999 v 8.67 h -4.949999 v -3.75 h -2.55 v 6.33 h 7.499999 v 4.92 h -7.499999 v 2.58 h 7.499999 v 7.320003"
           style="font-size:30px;line-height:125%;font-family:'More than human';-inkscape-font-specification:'More than human';stroke-width:0.93750584"
           id="path3136" /><path
           inkscape:connector-curvature="0"
           d="m 110.70937,81.455617 h -2.55 v 5.46 l 2.55,-1.29 v -4.17 m 1.2,-1.2 v 6.12 l -4.95,2.49 v -8.61 h 4.95 m -1.2,14.55 -2.55,-1.29 v 1.71 h 2.55 v -0.42 m 1.2,-0.75 v 2.37 h -4.95 v -4.86 l 4.95,2.49 m 3.75,5.82 -0.62999,5.760003 -0.57001,-5.760003 v -7.41 l -4.37999,-2.31 4.37999,-2.19 v -10.26 h -10.05 v 24.570003 l -0.62999,5.76 -0.57001,-5.76 V 76.505617 h 12.45 v 12.18 l -2.97,1.5 2.97,1.56 v 8.13"
           style="font-size:30px;line-height:125%;font-family:'More than human';-inkscape-font-specification:'More than human';stroke-width:0.93750584"
           id="path3139" /><path
           inkscape:connector-curvature="0"
           d="m 131.30391,102.57562 -0.63,5.76 -0.57,-5.76 v -6.120003 h -7.5 v -4.98 h 7.5 v -2.52 h -7.5 v -8.73 h 4.95 v 3.75 h 2.55 v -6.27 h -10.05 v 23.070003 l -0.63,5.76 -0.57,-5.76 V 76.505617 h 12.45 v 8.67 h -4.95 v -3.75 h -2.55 v 6.33 h 7.5 v 4.92 h -7.5 v 2.58 h 7.5 v 7.320003"
           style="font-size:30px;line-height:125%;font-family:'More than human';-inkscape-font-specification:'More than human';stroke-width:0.93750584"
           id="path3141" /><path
           inkscape:connector-curvature="0"
           d="m 143.08125,99.575617 -0.63,5.760003 -0.57,-5.760003 v -3.12 h -3.75 v -18.75 h -2.55 v 24.570003 l -0.63,5.76 -0.57,-5.76 V 76.505617 h 4.95 v 18.75 h 3.75 v 4.32"
           style="font-size:30px;line-height:125%;font-family:'More than human';-inkscape-font-specification:'More than human';stroke-width:0.93750584"
           id="path3143" /><path
           inkscape:connector-curvature="0"
           d="m 169.38984,100.17562 -0.63,5.76 -0.57,-5.76 V 80.225617 h 3.75 v -2.52 h -10.05 v 2.52 h 3.75 v 19.950003 l -0.63,5.76 -0.57,-5.76 V 81.425617 h -3.75 v -4.92 h 12.45 v 4.92 h -3.75 v 18.750003"
           style="font-size:30px;line-height:125%;font-family:'More than human';-inkscape-font-specification:'More than human';stroke-width:0.93750584"
           id="path3145" /><path
           inkscape:connector-curvature="0"
           d="m 188.37422,102.57562 -0.63,5.76 -0.57,-5.76 v -6.120003 h -7.5 v -4.98 h 7.5 v -2.52 h -7.5 v -8.73 h 4.95 v 3.75 h 2.55 v -6.27 h -10.05 v 23.070003 l -0.63,5.76 -0.57,-5.76 V 76.505617 h 12.45 v 8.67 h -4.95 v -3.75 h -2.55 v 6.33 h 7.5 v 4.92 h -7.5 v 2.58 h 7.5 v 7.320003"
           style="font-size:30px;line-height:125%;font-family:'More than human';-inkscape-font-specification:'More than human';stroke-width:0.93750584"
           id="path3147" /><path
           inkscape:connector-curvature="0"
           d="m 203.90156,102.27562 -0.63,5.76 -0.57,-5.76 v -9.570003 h -2.55 v 3.75 h -4.95 v -16.23 h 4.95 v 3.75 h 2.55 v -6.27 h -10.05 v 22.17 l -0.63,5.760003 -0.57,-5.760003 v -23.37 h 12.45 v 8.67 h -4.95 v -3.75 h -2.55 v 13.83 h 2.55 v -3.75 h 4.95 v 10.770003"
           style="font-size:30px;line-height:125%;font-family:'More than human';-inkscape-font-specification:'More than human';stroke-width:0.93750584"
           id="path3149" /><path
           inkscape:connector-curvature="0"
           d="m 219.37031,100.77562 -0.63,5.76 -0.57,-5.76 V 77.705617 h -2.55 v 15 h -4.95 v -15 h -2.55 v 22.17 l -0.63,5.760003 -0.57,-5.760003 v -23.37 h 4.95 v 15 h 2.55 v -15 h 4.95 v 24.270003 m -3.75,-1.500003 -0.63,5.760003 -0.57,-5.760003 v -2.85 h -2.55 v 7.050003 l -0.63,5.76 -0.57,-5.76 v -8.250003 h 4.95 v 4.05"
           style="font-size:30px;line-height:125%;font-family:'More than human';-inkscape-font-specification:'More than human';stroke-width:0.93750584"
           id="path3151" /><path
           inkscape:connector-curvature="0"
           d="m 231.44484,100.17562 -0.63,5.76 -0.57,-5.76 -2.7,-7.890003 v 7.29 l -0.63,5.760003 -0.57,-5.760003 h -0.03 l 0.03,-14.43 5.1,15.030003 m 3.57,0.9 -0.63,5.76 -0.57,-5.76 V 77.705617 h -2.58 v 13.83 l -4.77,-13.83 h -2.7 v 25.770003 l -0.63,5.76 -0.57,-5.76 V 76.505617 h 4.77 l 2.7,7.89 v -7.89 h 4.98 v 24.570003"
           style="font-size:30px;line-height:125%;font-family:'More than human';-inkscape-font-specification:'More than human';stroke-width:0.93750584"
           id="path3153" /><path
           inkscape:connector-curvature="0"
           d="m 245.70937,81.455617 h -2.55 v 13.77 h 2.55 v -13.77 m 1.2,-1.2 v 16.17 h -4.95 v -16.17 h 4.95 m 3.75,19.62 -0.63,5.760003 -0.57,-5.760003 v -22.17 h -10.05 v 25.470003 l -0.63,5.76 -0.57,-5.76 V 76.505617 h 12.45 v 23.37"
           style="font-size:30px;line-height:125%;font-family:'More than human';-inkscape-font-specification:'More than human';stroke-width:0.93750584"
           id="path3155" /><path
           inkscape:connector-curvature="0"
           d="m 262.55391,99.575617 -0.63,5.760003 -0.57,-5.760003 v -3.12 h -3.75 v -18.75 h -2.55 v 24.570003 l -0.63,5.76 -0.57,-5.76 V 76.505617 h 4.95 v 18.75 h 3.75 v 4.32"
           style="font-size:30px;line-height:125%;font-family:'More than human';-inkscape-font-specification:'More than human';stroke-width:0.93750584"
           id="path3157" /><path
           inkscape:connector-curvature="0"
           d="m 272.6625,81.455617 h -2.55 v 13.77 h 2.55 v -13.77 m 1.2,-1.2 v 16.17 h -4.95 v -16.17 h 4.95 m 3.75,19.62 -0.63,5.760003 -0.57,-5.760003 v -22.17 h -10.05 v 25.470003 l -0.63,5.76 -0.57,-5.76 V 76.505617 h 12.45 v 23.37"
           style="font-size:30px;line-height:125%;font-family:'More than human';-inkscape-font-specification:'More than human';stroke-width:0.93750584"
           id="path3159" /><path
           inkscape:connector-curvature="0"
           d="m 293.25703,101.97562 -0.63,5.76 -0.57,-5.76 V 88.955617 h -2.55 v 7.5 h -4.95 v -16.23 h 4.95 v 3.75 h 2.55 v -6.27 h -10.05 v 21.87 l -0.63,5.760003 -0.57,-5.760003 v -23.07 h 12.45 v 8.67 h -4.95 v -3.75 h -2.55 v 13.83 h 2.55 v -7.5 h 4.95 v 14.220003"
           style="font-size:30px;line-height:125%;font-family:'More than human';-inkscape-font-specification:'More than human';stroke-width:0.93750584"
           id="path3161" /><path
           inkscape:connector-curvature="0"
           d="m 308.84297,99.575617 -0.63,5.760003 -0.57,-5.760003 v -21.87 h -2.55 v 11.25 h -4.95 v -11.25 h -2.55 v 13.77 h 7.5 v 4.98 h -7.5 v 7.320003 l -0.63,5.76 -0.57,-5.76 v -8.520003 h 7.5 v -2.58 h -7.5 v -16.17 h 4.95 v 11.25 h 2.55 v -11.25 h 4.95 v 23.07"
           style="font-size:30px;line-height:125%;font-family:'More than human';-inkscape-font-specification:'More than human';stroke-width:0.93750584"
           id="path3163" /></g><g
         transform="matrix(0.68631727,0,0,-0.68631727,24.889497,949.01546)"
         style="font-style:normal;font-variant:normal;font-weight:normal;font-stretch:normal;font-size:12px;line-height:125%;font-family:Sans;-inkscape-font-specification:Sans;text-align:start;letter-spacing:0px;word-spacing:0px;writing-mode:lr-tb;text-anchor:start;fill:#000000;fill-opacity:1;stroke:none;stroke-width:0.93750584"
         id="flowRoot3001"><g
           id="flowRoot3001-3"
           style="font-style:normal;font-variant:normal;font-weight:normal;font-stretch:normal;font-size:12px;line-height:125%;font-family:Sans;-inkscape-font-specification:Sans;text-align:start;letter-spacing:0px;word-spacing:0px;writing-mode:lr-tb;text-anchor:start;fill:#000000;fill-opacity:1;stroke:none;stroke-width:0.93750584"
           transform="translate(5.0710011e-4,-4.9086306e-4)"><text
             xml:space="preserve"
             style="font-style:normal;font-weight:normal;line-height:0%;font-family:sans-serif;letter-spacing:0px;word-spacing:0px;fill:#000000;fill-opacity:1;stroke:none;stroke-width:0.93750584"
             x="19.715643"
             y="269.83456"
             id="text6700-0"><tspan
               style="font-size:9.94596863px;line-height:1.25;font-family:sans-serif;stroke-width:0.93750584"
               sodipodi:role="line"
               id="tspan6702-6"
               x="19.715643"
               y="269.83456">alchemist</tspan></text>
<text
             id="text4244"
             y="253.66774"
             x="19.715643"
             style="font-style:normal;font-weight:normal;line-height:0%;font-family:sans-serif;letter-spacing:0px;word-spacing:0px;fill:#000000;fill-opacity:1;stroke:none;stroke-width:0.93750584"
             xml:space="preserve"><tspan
               style="font-size:9.94596863px;line-height:1.25;font-family:sans-serif;stroke-width:0.93750584"
               y="253.66774"
               x="19.715643"
               sodipodi:role="line"
               id="tspan4248">Rebel Technology</tspan></text>
<g
             transform="translate(157.06356,241.87382)"
             style="fill:#000000"
             id="barcode1"><rect
               height="24"
               width="1"
               id="barcode1_bar1"
               y="0"
               x="0" /><rect
               height="24"
               width="1"
               id="barcode1_bar3"
               y="0"
               x="2" /><rect
               height="20"
               width="2"
               id="barcode1_bar5"
               y="0"
               x="6" /><rect
               height="20"
               width="1"
               id="barcode1_bar7"
               y="0"
               x="9" /><rect
               height="20"
               width="1"
               id="barcode1_bar9"
               y="0"
               x="14" /><rect
               height="20"
               width="1"
               id="barcode1_bar11"
               y="0"
               x="16" /><rect
               height="20"
               width="1"
               id="barcode1_bar13"
               y="0"
               x="18" /><rect
               height="20"
               width="3"
               id="barcode1_bar15"
               y="0"
               x="21" /><rect
               height="20"
               width="2"
               id="barcode1_bar17"
               y="0"
               x="25" /><rect
               height="20"
               width="1"
               id="barcode1_bar19"
               y="0"
               x="30" /><rect
               height="20"
               width="1"
               id="barcode1_bar21"
               y="0"
               x="33" /><rect
               height="20"
               width="2"
               id="barcode1_bar23"
               y="0"
               x="36" /><rect
               height="20"
               width="1"
               id="barcode1_bar25"
               y="0"
               x="39" /><rect
               height="20"
               width="3"
               id="barcode1_bar27"
               y="0"
               x="42" /><rect
               height="24"
               width="1"
               id="barcode1_bar29"
               y="0"
               x="46" /><rect
               height="24"
               width="1"
               id="barcode1_bar31"
               y="0"
               x="48" /><rect
               height="20"
               width="1"
               id="barcode1_bar33"
               y="0"
               x="50" /><rect
               height="20"
               width="1"
               id="barcode1_bar35"
               y="0"
               x="55" /><rect
               height="20"
               width="2"
               id="barcode1_bar37"
               y="0"
               x="57" /><rect
               height="20"
               width="2"
               id="barcode1_bar39"
               y="0"
               x="61" /><rect
               height="20"
               width="3"
               id="barcode1_bar41"
               y="0"
               x="64" /><rect
               height="20"
               width="1"
               id="barcode1_bar43"
               y="0"
               x="69" /><rect
               height="20"
               width="2"
               id="barcode1_bar45"
               y="0"
               x="71" /><rect
               height="20"
               width="2"
               id="barcode1_bar47"
               y="0"
               x="75" /><rect
               height="20"
               width="1"
               id="barcode1_bar49"
               y="0"
               x="78" /><rect
               height="20"
               width="1"
               id="barcode1_bar51"
               y="0"
               x="82" /><rect
               height="20"
               width="1"
               id="barcode1_bar53"
               y="0"
               x="85" /><rect
               height="20"
               width="1"
               id="barcode1_bar55"
               y="0"
               x="87" /><rect
               height="24"
               width="1"
               id="barcode1_bar57"
               y="0"
               x="92" /><rect
               height="24"
               width="1"
               id="barcode1_bar59"
               y="0"
               x="94" /><text
               id="barcode1_text"
               xml:space="preserve"
               style="font-size:9px;text-align:center;text-anchor:middle"
               y="29"
               x="47">5    060520     310176       </text>
</g></g><g
           transform="matrix(0.86860848,0,0,0.86861239,23.678053,113.36562)"
           style="stroke-width:1px;font-style:normal;font-variant:normal;font-weight:normal;font-stretch:normal;font-size:50px;line-height:125%;font-family:sans-serif;-inkscape-font-specification:Sans;text-align:start;letter-spacing:0px;word-spacing:0px;writing-mode:lr-tb;text-anchor:start;fill:#000000;fill-opacity:1;stroke:#000000;stroke-linecap:butt;stroke-linejoin:miter;stroke-opacity:1"
           id="text7294"><path
             inkscape:connector-curvature="0"
             d="m 54.321645,121.10974 q 0,0.4 -2.85,2.15 -2.8,1.75 -3.55,2 -1.5,-0.95 -5,-9 -3.5,-8.1 -3.9,-8.4 l -3.95,-0.15 q -8.15,-0.3 -9.55,0.75 -2.95,7.3 -6.35,15 -4.15,1.35 -4.8,1.35 -0.5,0 -0.5,-0.4 0,0.1 8.3,-16 8.3,-16.150003 8.7,-18.150003 l -0.05,-0.3 q -5.35,-0.4 -9.4,-0.35 l -3.15,0.05 -0.15,-0.25 q 0,-0.95 2.15,-2.75 2.15,-1.85 3.25,-1.85 4.85,0 14.55,0.15 9.75,0.15 14.6,0.15 l 0.15,0.15 q 0,4.7 -13.35,4.7 -0.3,0.1 -0.3,0.35 0,0.9 5.45,12.700003 4.75,10.35 6.35,13.45 0.65,1.35 2.2,3.6 1.15,1.15 1.15,1.05 z m -16.5,-15.8 q 0,-0.9 -0.25,-1.5 -1.7,-4.300003 -4.15,-9.750003 -0.2,-0.3 -0.55,-0.3 -0.45,0.4 -3.25,6.05 -2.75,5.600003 -2.75,6.000003 l 0.2,0.2 h 1.3 q 1.75,0 4.65,-0.2 3.8,-0.2 4.65,-0.25 z"
             style="font-style:normal;font-variant:normal;font-weight:normal;font-stretch:normal;font-family:'Typographer Uncialgotisch';-inkscape-font-specification:'Typographer Uncialgotisch';fill:#000000;stroke:#000000"
             id="path4572" /><path
             inkscape:connector-curvature="0"
             d="m 66.890395,120.55974 q -0.35,0.85 -2.25,2.6 -1.85,1.7 -2.65,1.7 h -0.4 q -2.05,-1.25 -4.85,-3.35 v -1.05 q 0.95,-0.75 1.35,-13.4 0.3,-9.400003 0.2,-15.000003 l -0.05,-2.65 q 0.95,-0.95 2.9,-2.05 1.95,-1.1 3.2,-1.35 0,6.35 -0.35,15.750003 -0.3,7.85 -0.6,15.7 0.4,0.45 1.85,1.4 1.15,0.8 1.65,1.7 z"
             style="font-style:normal;font-variant:normal;font-weight:normal;font-stretch:normal;font-family:'Typographer Uncialgotisch';-inkscape-font-specification:'Typographer Uncialgotisch';fill:#000000;stroke:#000000"
             id="path4574" /><path
             inkscape:connector-curvature="0"
             d="m 86.371645,97.659737 q 0,0.55 -1.75,2.3 -1.75,1.750003 -2.05,1.750003 -1.05,0 -2.6,-0.6 -1.7,-0.7 -2.55,-0.8 l -0.45,0.35 q -0.25,2.3 -0.3,6.1 -0.05,4.6 -0.15,6.15 -0.05,0.65 -0.4,1.95 -0.35,1.3 -0.35,2.05 0,0.6 3.85,1.7 2.35,0.65 4.75,1.25 0.65,0.3 0.65,0.4 v 0.05 q -0.75,0.95 -2.55,2.6 -2.1,1.95 -2.7,1.95 -0.45,0 -5,-1.65 -4.5,-1.65 -4.75,-1.9 1.2,-6.9 1.2,-13 0,0.5 -0.15,-4.5 -0.1,-3.1 0.15,-4.250003 0.25,-0.3 3.6,-2.3 3.4,-2.05 3.7,-2.05 1.05,0 3.8,0.85 2.5,0.8 3.75,1.4 0.3,0.15 0.3,0.2 z"
             style="font-style:normal;font-variant:normal;font-weight:normal;font-stretch:normal;font-family:'Typographer Uncialgotisch';-inkscape-font-specification:'Typographer Uncialgotisch';fill:#000000;stroke:#000000"
             id="path4576" /><path
             inkscape:connector-curvature="0"
             d="m 107.85446,98.059737 q -0.45,1.7 -0.6,3.750003 -0.1,1.5 -0.05,3.8 0.05,3.7 0.05,3.9 0,6.25 -0.25,8.5 -0.55,4.95 -2.55,8 -0.8,0.9 -2.05,2.7 -0.45,0.85 -2,2.2 -1.500003,1.35 -2.300003,1.45 1.25,-2.9 2.450003,-5.75 0.8,-2.1 0.8,-7.3 0,-2 -0.1,-8.55 -0.1,-5.3 -0.05,-8.55 -0.4,-0.35 -2.950003,-1.15 -2.55,-0.8 -3.3,-0.8 l -0.3,0.45 q -0.45,1.15 -0.45,15.45 v 1.35 q 0.25,0.25 1.9,1.4 1.3,0.9 1.5,1.5 l -0.05,0.3 q -1.15,1.15 -2.35,2.3 -1.5,1.4 -2.6,1.8 -1,-0.4 -2.9,-1.7 -1.9,-1.35 -2.3,-2.1 1.2,-2.9 1.2,-9.1 v -8.2 l -0.15,-13.900003 q 0.6,-0.75 2.6,-2.1 2,-1.4 2.8,-1.4 0.5,0 0.65,0.3 -0.2,11.35 0.55,11.7 0.45,-0.1 2.25,-1.5 1.8,-1.4 2.35,-1.4 1.000003,0 4.300003,1.05 3.35,1 3.9,1.6 z"
             style="font-style:normal;font-variant:normal;font-weight:normal;font-stretch:normal;font-family:'Typographer Uncialgotisch';-inkscape-font-specification:'Typographer Uncialgotisch';fill:#000000;stroke:#000000"
             id="path4578" /><path
             inkscape:connector-curvature="0"
             d="m 127.48493,99.259737 q -0.2,0.5 -0.6,0.950003 -2.95,3.4 -8.95,9.95 -0.35,0.4 -0.35,3.3 l 0.05,3.4 q 0.7,0.8 3.95,1.85 3.55,1.1 4.4,1.75 -0.05,0.4 -1.8,2.1 -1.7,1.65 -2.45,2.2 l -0.6,0.1 q -1.4,0 -4.65,-1.65 -3.2,-1.7 -4.65,-1.6 l -0.55,0.05 -0.15,-0.15 q 0,-0.1 0.6,-1.9 0.6,-1.85 0.6,-3.8 0,-1.7 -0.2,-5.45 -0.2,-3.75 -0.2,-5.6 0,-2.15 0.2,-3.9 0.4,-0.6 4.5,-3.350003 4.15,-2.8 5.05,-2.8 l 0.2,0.05 q 2.65,2.05 5.6,4.5 z m -5.75,4.250003 q 0,-1 -0.45,-1.2 -0.45,-0.2 -1.6,-1.1 -0.9,-0.75 -1.45,-0.75 -0.15,0 -0.25,0.05 -0.2,0.6 -0.2,6.45 v 1.25 l 0.15,0.15 q 0.4,0 1.9,-2.15 0.95,-1.35 1.9,-2.7 z"
             style="font-style:normal;font-variant:normal;font-weight:normal;font-stretch:normal;font-family:'Typographer Uncialgotisch';-inkscape-font-specification:'Typographer Uncialgotisch';fill:#000000;stroke:#000000"
             id="path4580" /><path
             inkscape:connector-curvature="0"
             d="m 166.35602,120.10974 q -0.35,0.85 -2.05,2.65 -1.7,1.75 -2.55,2.15 -1.1,-0.35 -2.9,-1.75 -2.05,-1.6 -2.05,-2.5 0,-2.85 0.3,-8.55 0.35,-5.75 0.35,-8.6 0,0 -0.2,-1.3 -0.6,-0.5 -3.05,-1.15 -2.45,-0.7 -3.4,-0.7 l -0.4,0.05 q -0.15,0.2 -0.4,6.1 -0.2,5.5 -0.2,6.8 l 0.05,3.9 q 0.3,0.7 1.35,1.55 1.6,1.25 1.65,1.3 l 0.05,0.25 q -0.1,0.6 -2.2,2.5 -2.1,1.85 -2.95,1.8 -2.95,-1.55 -4.4,-3.7 -0.05,-0.05 0.25,-0.5 0.3,-0.5 0.5,-1.25 0.3,-1.05 0.3,-11.55 v -4.2 q 0,0 -0.2,-1.15 -0.55,-0.45 -2.65,-1.25 -2.1,-0.8 -2.7,-0.8 -0.1,0 -0.2,0.15 -0.6,8.75 -0.6,14.9 0,1.15 0.15,2.1 0.75,0.6 1.5,1.2 1.05,0.8 1.2,1.35 -0.15,0.75 -2.2,2.75 -2,1.95 -2.7,1.95 h -0.1 q -1.2,-0.85 -2.4,-1.7 -1.35,-1 -2.15,-1.95 0,-0.05 0.8,-1.5 0.1,-0.15 0.3,-6.85 0.2,-6.25 0.2,-7.4 0,-3.3 -0.5,-4.35 -0.05,-0.05 -1.75,-0.950003 -1.45,-0.75 -1.45,-0.9 v -0.45 q 1.25,-1 2.55,-2.05 1.95,-1.45 2.65,-1.45 1.3,0 4.35,1.7 0.1,0.1 0.2,0.75 0.1,0.6 0.3,0.6 h 0.1 q 3.6,-2.6 4.4,-2.6 0.7,0 3.15,0.75 2.5,0.75 3.05,1.1 0.15,0.1 0.4,0.65 0.3,0.55 0.6,0.55 0.45,0 2.05,-1.6 1.65,-1.6 2.35,-1.6 1.1,0 3.15,0.65 2.4,0.8 3.2,0.95 2.8,0.5 2.65,0.85 -0.3,0.75 -0.8,1.5 0.15,3.100003 -0.25,8.500003 -0.5,6.05 -0.5,8.45 0,1.1 1.6,2.15 1.95,1.3 2.2,1.7 z"
             style="font-style:normal;font-variant:normal;font-weight:normal;font-stretch:normal;font-family:'Typographer Uncialgotisch';-inkscape-font-specification:'Typographer Uncialgotisch';fill:#000000;stroke:#000000"
             id="path4582" /><path
             inkscape:connector-curvature="0"
             d="m 179.13258,85.909737 -4.85,5 q -1.3,0.95 -3.75,3.05 -0.65,0.65 -1.4,0.65 v -0.2 q 0.45,-0.55 1.4,-1.65 1.35,-1.4 4.25,-3.95 3.65,-3.15 4.35,-3.15 z m 0,34.350003 q -4.6,4.6 -4.85,4.55 -1.15,-0.35 -3.15,-1.4 -2.3,-1.2 -2.75,-1.85 0.15,-0.7 0.9,-2.35 0.6,-1.35 0.6,-2.7 v -14.55 q -1.1,-1 -2.4,-2.550003 0.4,-0.9 2.35,-2.4 1.8,-1.4 2.9,-1.7 0.85,0.35 2.5,1.4 1.85,1.15 2.25,1.7 0.1,0.3 -1.55,1.750003 -0.3,1.2 -0.3,2.65 0,2.25 -0.15,6.75 -0.15,4.45 -0.15,6.7 0,1.7 1,2.45 0.45,0.4 1.8,0.75 1,0.25 1,0.75 z"
             style="font-style:normal;font-variant:normal;font-weight:normal;font-stretch:normal;font-family:'Typographer Uncialgotisch';-inkscape-font-specification:'Typographer Uncialgotisch';fill:#000000;stroke:#000000"
             id="path4584" /><path
             inkscape:connector-curvature="0"
             d="m 199.46618,96.909737 q -0.4,0.6 -3.05,2.2 -2.6,1.550003 -3.25,1.550003 -1.1,0 -2.85,-0.750003 -1.95,-0.8 -2.85,-0.9 l -0.45,0.3 q 0.05,0.700003 -0.05,2.000003 -0.1,1.3 -0.1,1.85 0,1.1 1.1,2.55 1.1,1.45 2.15,1.45 0.95,0 2.45,-1.6 1.5,-1.6 2.5,-1.6 3.6,0 3.6,9 0,1.55 -0.15,3.95 v 0.45 q -0.35,0.55 -4.55,3.85 -4.15,3.3 -4.85,3.65 -1.05,0.5 -4.75,-3.4 -3.7,-3.9 -3.7,-5.75 0,-0.9 1.85,-2.45 1.85,-1.6 2.1,-2.55 -0.1,-0.25 -1.75,-1.85 -1.3,-1.3 -1.3,-3.15 0,-0.95 0.05,-2.95 0.1,-2 0.1,-3.000003 0,-0.75 4.35,-3.2 4.2,-2.4 5.05,-2.4 0.5,0 3.35,1.4 2.9,1.35 5,1.35 z m -6.2,19.950003 q 0,-8.5 -3,-8.5 -0.7,0 -2.35,1.35 -1.65,1.3 -1.95,2 -0.05,0.1 -0.05,0.9 0,1.95 2.5,4.6 2.55,2.65 4.45,2.65 h 0.2 l 0.15,-0.15 q 0,-0.3 0,-0.85 0.05,-0.55 0.05,-0.8 z"
             style="font-style:normal;font-variant:normal;font-weight:normal;font-stretch:normal;font-family:'Typographer Uncialgotisch';-inkscape-font-specification:'Typographer Uncialgotisch';fill:#000000;stroke:#000000"
             id="path4586" /><path
             inkscape:connector-curvature="0"
             d="m 243.08414,112.25974 q -0.5,3.55 -8.45,8.2 -7.6,4.4 -11.85,4.4 -8.5,0 -14,-4.4 -5.9,-4.75 -5.9,-13 0,-5.45 1.6,-8.150003 1.05,-1.75 4.05,-3.75 3.6,-2.35 5.4,-4.35 l -0.15,-0.15 q -0.7,0 -3.05,-0.2 -1.85,-0.15 -3,-0.1 l -4.9,0.15 q 0.05,-0.55 2.75,-3.3 2.7,-2.8 3.3,-2.8 0.1,0 0.85,0.5 0.75,0.5 0.95,0.55 1.05,0.4 5.9,0.4 h 4.5 q 6.05,0 14.05,-0.2 1.25,-0.05 3.7,-0.65 2.5,-0.6 3.65,-0.6 -0.2,0.35 -3.65,2.65 -3.45,2.25 -11.95,3.15 -9.05,1 -12,2.5 -5.5,2.75 -5.5,10.150003 0,8.35 5.5,12.9 5.15,4.3 13.8,4.3 3.3,0 5.8,-1.9 1.95,-1.85 3.9,-3.7 2.25,-2.2 4.7,-2.6 z"
             style="font-style:normal;font-variant:normal;font-weight:normal;font-stretch:normal;font-family:'Typographer Uncialgotisch';-inkscape-font-specification:'Typographer Uncialgotisch';fill:#000000;stroke:#000000"
             id="path4588" /></g></g></g><use
       style="stroke-width:0.93750584"
       id="use8245"
       transform="translate(0,127.90016)"
       xlink:href="#g4685"
       inkscape:tiled-clone-of="#g4685"
       y="0"
       x="0"
       width="100%"
       height="100%" /><use
       style="stroke-width:0.93750584"
       id="use8247"
       transform="translate(0,255.80032)"
       xlink:href="#g4685"
       inkscape:tiled-clone-of="#g4685"
       y="0"
       x="0"
       width="100%"
       height="100%" /><use
       style="stroke-width:0.93750584"
       id="use8249"
       transform="translate(0,383.70048)"
       xlink:href="#g4685"
       inkscape:tiled-clone-of="#g4685"
       y="0"
       x="0"
       width="100%"
       height="100%" /><use
       style="stroke-width:0.93750584"
       id="use8251"
       transform="translate(0,511.60064)"
       xlink:href="#g4685"
       inkscape:tiled-clone-of="#g4685"
       y="0"
       x="0"
       width="100%"
       height="100%" /><use
       style="stroke-width:0.93750584"
       id="use8253"
       transform="translate(0,639.5008)"
       xlink:href="#g4685"
       inkscape:tiled-clone-of="#g4685"
       y="0"
       x="0"
       width="100%"
       height="100%" /><use
       style="stroke-width:0.93750584"
       id="use8255"
       transform="translate(0,767.40095)"
       xlink:href="#g4685"
       inkscape:tiled-clone-of="#g4685"
       y="0"
       x="0"
       width="100%"
       height="100%" /><use
       transform="translate(212.36391)"
       style="stroke-width:0.93750584"
       id="use8257"
       xlink:href="#g4685"
       inkscape:tiled-clone-of="#g4685"
       y="0"
       x="0"
       width="100%"
       height="100%" /><use
       style="stroke-width:0.93750584"
       id="use8259"
       transform="translate(212.36391,127.90016)"
       xlink:href="#g4685"
       inkscape:tiled-clone-of="#g4685"
       y="0"
       x="0"
       width="100%"
       height="100%" /><use
       style="stroke-width:0.93750584"
       id="use8261"
       transform="translate(212.36391,255.80032)"
       xlink:href="#g4685"
       inkscape:tiled-clone-of="#g4685"
       y="0"
       x="0"
       width="100%"
       height="100%" /><use
       style="stroke-width:0.93750584"
       id="use8263"
       transform="translate(212.36391,383.70048)"
       xlink:href="#g4685"
       inkscape:tiled-clone-of="#g4685"
       y="0"
       x="0"
       width="100%"
       height="100%" /><use
       style="stroke-width:0.93750584"
       id="use8265"
       transform="translate(212.36391,511.60064)"
       xlink:href="#g4685"
       inkscape:tiled-clone-of="#g4685"
       y="0"
       x="0"
       width="100%"
       height="100%" /><use
       style="stroke-width:0.93750584"
       id="use8267"
       transform="translate(212.36391,639.5008)"
       xlink:href="#g4685"
       inkscape:tiled-clone-of="#g4685"
       y="0"
       x="0"
       width="100%"
       height="100%" /><use
       style="stroke-width:0.93750584"
       id="use8269"
       transform="translate(212.36391,767.40095)"
       xlink:href="#g4685"
       inkscape:tiled-clone-of="#g4685"
       y="0"
       x="0"
       width="100%"
       height="100%" /><use
       transform="translate(424.72782)"
       style="stroke-width:0.93750584"
       id="use8271"
       xlink:href="#g4685"
       inkscape:tiled-clone-of="#g4685"
       y="0"
       x="0"
       width="100%"
       height="100%" /><use
       style="stroke-width:0.93750584"
       id="use8273"
       transform="translate(424.72782,127.90016)"
       xlink:href="#g4685"
       inkscape:tiled-clone-of="#g4685"
       y="0"
       x="0"
       width="100%"
       height="100%" /><use
       style="stroke-width:0.93750584"
       id="use8275"
       transform="translate(424.72782,255.80032)"
       xlink:href="#g4685"
       inkscape:tiled-clone-of="#g4685"
       y="0"
       x="0"
       width="100%"
       height="100%" /><use
       style="stroke-width:0.93750584"
       id="use8277"
       transform="translate(424.72782,383.70048)"
       xlink:href="#g4685"
       inkscape:tiled-clone-of="#g4685"
       y="0"
       x="0"
       width="100%"
       height="100%" /><use
       style="stroke-width:0.93750584"
       id="use8279"
       transform="translate(424.72782,511.60064)"
       xlink:href="#g4685"
       inkscape:tiled-clone-of="#g4685"
       y="0"
       x="0"
       width="100%"
       height="100%" /><use
       style="stroke-width:0.93750584"
       id="use8281"
       transform="translate(424.72782,639.5008)"
       xlink:href="#g4685"
       inkscape:tiled-clone-of="#g4685"
       y="0"
       x="0"
       width="100%"
       height="100%" /><use
       style="stroke-width:0.93750584"
       id="use8283"
       transform="translate(424.72782,767.40095)"
       xlink:href="#g4685"
       inkscape:tiled-clone-of="#g4685"
       y="0"
       x="0"
       width="100%"
       height="100%" /></g></svg>