<?xml version="1.0" encoding="UTF-8" standalone="no"?>
<!-- Created with Inkscape (http://www.inkscape.org/) -->

<svg
   xmlns:dc="http://purl.org/dc/elements/1.1/"
   xmlns:cc="http://creativecommons.org/ns#"
   xmlns:rdf="http://www.w3.org/1999/02/22-rdf-syntax-ns#"
   xmlns:svg="http://www.w3.org/2000/svg"
   xmlns="http://www.w3.org/2000/svg"
   xmlns:sodipodi="http://sodipodi.sourceforge.net/DTD/sodipodi-0.dtd"
   xmlns:inkscape="http://www.inkscape.org/namespaces/inkscape"
   width="210mm"
   height="297mm"
   viewBox="0 0 210 297"
   version="1.1"
   id="svg101"
   inkscape:version="0.92.1 r15371"
   sodipodi:docname="AlchemistLogo.svg">
  <defs
     id="defs95" />
  <sodipodi:namedview
     id="base"
     pagecolor="#ffffff"
     bordercolor="#666666"
     borderopacity="1.0"
     inkscape:pageopacity="0.0"
     inkscape:pageshadow="2"
     inkscape:zoom="0.35"
     inkscape:cx="400"
     inkscape:cy="560"
     inkscape:document-units="mm"
     inkscape:current-layer="layer1"
     showgrid="false"
     inkscape:window-width="1680"
     inkscape:window-height="986"
     inkscape:window-x="240"
     inkscape:window-y="27"
     inkscape:window-maximized="1" />
  <metadata
     id="metadata98">
    <rdf:RDF>
      <cc:Work
         rdf:about="">
        <dc:format>image/svg+xml</dc:format>
        <dc:type
           rdf:resource="http://purl.org/dc/dcmitype/StillImage" />
        <dc:title></dc:title>
      </cc:Work>
    </rdf:RDF>
  </metadata>
  <g
     inkscape:label="Layer 1"
     inkscape:groupmode="layer"
     id="layer1">
    <g
       transform="matrix(0.21030493,0,0,0.21030493,76.536497,-4.0373771)"
       style="font-style:normal;font-weight:normal;font-size:50px;line-height:125%;font-family:sans-serif;letter-spacing:0px;word-spacing:0px;fill:#000000;fill-opacity:1;stroke:#000000;stroke-width:1px;stroke-linecap:butt;stroke-linejoin:miter;stroke-opacity:1"
       id="text7294">
      <path
         inkscape:connector-curvature="0"
         d="m 54.321645,121.10974 q 0,0.4 -2.85,2.15 -2.8,1.75 -3.55,2 -1.5,-0.95 -5,-9 -3.5,-8.1 -3.9,-8.4 l -3.95,-0.15 q -8.15,-0.3 -9.55,0.75 -2.95,7.3 -6.35,15 -4.15,1.35 -4.8,1.35 -0.5,0 -0.5,-0.4 0,0.1 8.3,-16 8.3,-16.150003 8.7,-18.150003 l -0.05,-0.3 q -5.35,-0.4 -9.4,-0.35 l -3.15,0.05 -0.15,-0.25 q 0,-0.95 2.15,-2.75 2.15,-1.85 3.25,-1.85 4.85,0 14.55,0.15 9.75,0.15 14.6,0.15 l 0.15,0.15 q 0,4.7 -13.35,4.7 -0.3,0.1 -0.3,0.35 0,0.9 5.45,12.700003 4.75,10.35 6.35,13.45 0.65,1.35 2.2,3.6 1.15,1.15 1.15,1.05 z m -16.5,-15.8 q 0,-0.9 -0.25,-1.5 -1.7,-4.300003 -4.15,-9.750003 -0.2,-0.3 -0.55,-0.3 -0.45,0.4 -3.25,6.05 -2.75,5.600003 -2.75,6.000003 l 0.2,0.2 h 1.3 q 1.75,0 4.65,-0.2 3.8,-0.2 4.65,-0.25 z"
         style="font-style:normal;font-variant:normal;font-weight:normal;font-stretch:normal;font-family:'Typographer Uncialgotisch';-inkscape-font-specification:'Typographer Uncialgotisch';fill:#000000;stroke:#000000"
         id="path4572" />
      <path
         inkscape:connector-curvature="0"
         d="m 66.890395,120.55974 q -0.35,0.85 -2.25,2.6 -1.85,1.7 -2.65,1.7 h -0.4 q -2.05,-1.25 -4.85,-3.35 v -1.05 q 0.95,-0.75 1.35,-13.4 0.3,-9.400003 0.2,-15.000003 l -0.05,-2.65 q 0.95,-0.95 2.9,-2.05 1.95,-1.1 3.2,-1.35 0,6.35 -0.35,15.750003 -0.3,7.85 -0.6,15.7 0.4,0.45 1.85,1.4 1.15,0.8 1.65,1.7 z"
         style="font-style:normal;font-variant:normal;font-weight:normal;font-stretch:normal;font-family:'Typographer Uncialgotisch';-inkscape-font-specification:'Typographer Uncialgotisch';fill:#000000;stroke:#000000"
         id="path4574" />
      <path
         inkscape:connector-curvature="0"
         d="m 86.371645,97.659737 q 0,0.55 -1.75,2.3 -1.75,1.750003 -2.05,1.750003 -1.05,0 -2.6,-0.6 -1.7,-0.7 -2.55,-0.8 l -0.45,0.35 q -0.25,2.3 -0.3,6.1 -0.05,4.6 -0.15,6.15 -0.05,0.65 -0.4,1.95 -0.35,1.3 -0.35,2.05 0,0.6 3.85,1.7 2.35,0.65 4.75,1.25 0.65,0.3 0.65,0.4 v 0.05 q -0.75,0.95 -2.55,2.6 -2.1,1.95 -2.7,1.95 -0.45,0 -5,-1.65 -4.5,-1.65 -4.75,-1.9 1.2,-6.9 1.2,-13 0,0.5 -0.15,-4.5 -0.1,-3.1 0.15,-4.250003 0.25,-0.3 3.6,-2.3 3.4,-2.05 3.7,-2.05 1.05,0 3.8,0.85 2.5,0.8 3.75,1.4 0.3,0.15 0.3,0.2 z"
         style="font-style:normal;font-variant:normal;font-weight:normal;font-stretch:normal;font-family:'Typographer Uncialgotisch';-inkscape-font-specification:'Typographer Uncialgotisch';fill:#000000;stroke:#000000"
         id="path4576" />
      <path
         inkscape:connector-curvature="0"
         d="m 107.85446,98.059737 q -0.45,1.7 -0.6,3.750003 -0.1,1.5 -0.05,3.8 0.05,3.7 0.05,3.9 0,6.25 -0.25,8.5 -0.55,4.95 -2.55,8 -0.8,0.9 -2.05,2.7 -0.45,0.85 -2,2.2 -1.500003,1.35 -2.300003,1.45 1.25,-2.9 2.450003,-5.75 0.8,-2.1 0.8,-7.3 0,-2 -0.1,-8.55 -0.1,-5.3 -0.05,-8.55 -0.4,-0.35 -2.950003,-1.15 -2.55,-0.8 -3.3,-0.8 l -0.3,0.45 q -0.45,1.15 -0.45,15.45 v 1.35 q 0.25,0.25 1.9,1.4 1.3,0.9 1.5,1.5 l -0.05,0.3 q -1.15,1.15 -2.35,2.3 -1.5,1.4 -2.6,1.8 -1,-0.4 -2.9,-1.7 -1.9,-1.35 -2.3,-2.1 1.2,-2.9 1.2,-9.1 v -8.2 l -0.15,-13.900003 q 0.6,-0.75 2.6,-2.1 2,-1.4 2.8,-1.4 0.5,0 0.65,0.3 -0.2,11.35 0.55,11.7 0.45,-0.1 2.25,-1.5 1.8,-1.4 2.35,-1.4 1.000003,0 4.300003,1.05 3.35,1 3.9,1.6 z"
         style="font-style:normal;font-variant:normal;font-weight:normal;font-stretch:normal;font-family:'Typographer Uncialgotisch';-inkscape-font-specification:'Typographer Uncialgotisch';fill:#000000;stroke:#000000"
         id="path4578" />
      <path
         inkscape:connector-curvature="0"
         d="m 127.48493,99.259737 q -0.2,0.5 -0.6,0.950003 -2.95,3.4 -8.95,9.95 -0.35,0.4 -0.35,3.3 l 0.05,3.4 q 0.7,0.8 3.95,1.85 3.55,1.1 4.4,1.75 -0.05,0.4 -1.8,2.1 -1.7,1.65 -2.45,2.2 l -0.6,0.1 q -1.4,0 -4.65,-1.65 -3.2,-1.7 -4.65,-1.6 l -0.55,0.05 -0.15,-0.15 q 0,-0.1 0.6,-1.9 0.6,-1.85 0.6,-3.8 0,-1.7 -0.2,-5.45 -0.2,-3.75 -0.2,-5.6 0,-2.15 0.2,-3.9 0.4,-0.6 4.5,-3.350003 4.15,-2.8 5.05,-2.8 l 0.2,0.05 q 2.65,2.05 5.6,4.5 z m -5.75,4.250003 q 0,-1 -0.45,-1.2 -0.45,-0.2 -1.6,-1.1 -0.9,-0.75 -1.45,-0.75 -0.15,0 -0.25,0.05 -0.2,0.6 -0.2,6.45 v 1.25 l 0.15,0.15 q 0.4,0 1.9,-2.15 0.95,-1.35 1.9,-2.7 z"
         style="font-style:normal;font-variant:normal;font-weight:normal;font-stretch:normal;font-family:'Typographer Uncialgotisch';-inkscape-font-specification:'Typographer Uncialgotisch';fill:#000000;stroke:#000000"
         id="path4580" />
      <path
         inkscape:connector-curvature="0"
         d="m 166.35602,120.10974 q -0.35,0.85 -2.05,2.65 -1.7,1.75 -2.55,2.15 -1.1,-0.35 -2.9,-1.75 -2.05,-1.6 -2.05,-2.5 0,-2.85 0.3,-8.55 0.35,-5.75 0.35,-8.6 0,0 -0.2,-1.3 -0.6,-0.5 -3.05,-1.15 -2.45,-0.7 -3.4,-0.7 l -0.4,0.05 q -0.15,0.2 -0.4,6.1 -0.2,5.5 -0.2,6.8 l 0.05,3.9 q 0.3,0.7 1.35,1.55 1.6,1.25 1.65,1.3 l 0.05,0.25 q -0.1,0.6 -2.2,2.5 -2.1,1.85 -2.95,1.8 -2.95,-1.55 -4.4,-3.7 -0.05,-0.05 0.25,-0.5 0.3,-0.5 0.5,-1.25 0.3,-1.05 0.3,-11.55 v -4.2 q 0,0 -0.2,-1.15 -0.55,-0.45 -2.65,-1.25 -2.1,-0.8 -2.7,-0.8 -0.1,0 -0.2,0.15 -0.6,8.75 -0.6,14.9 0,1.15 0.15,2.1 0.75,0.6 1.5,1.2 1.05,0.8 1.2,1.35 -0.15,0.75 -2.2,2.75 -2,1.95 -2.7,1.95 h -0.1 q -1.2,-0.85 -2.4,-1.7 -1.35,-1 -2.15,-1.95 0,-0.05 0.8,-1.5 0.1,-0.15 0.3,-6.85 0.2,-6.25 0.2,-7.4 0,-3.3 -0.5,-4.35 -0.05,-0.05 -1.75,-0.950003 -1.45,-0.75 -1.45,-0.9 v -0.45 q 1.25,-1 2.55,-2.05 1.95,-1.45 2.65,-1.45 1.3,0 4.35,1.7 0.1,0.1 0.2,0.75 0.1,0.6 0.3,0.6 h 0.1 q 3.6,-2.6 4.4,-2.6 0.7,0 3.15,0.75 2.5,0.75 3.05,1.1 0.15,0.1 0.4,0.65 0.3,0.55 0.6,0.55 0.45,0 2.05,-1.6 1.65,-1.6 2.35,-1.6 1.1,0 3.15,0.65 2.4,0.8 3.2,0.95 2.8,0.5 2.65,0.85 -0.3,0.75 -0.8,1.5 0.15,3.100003 -0.25,8.500003 -0.5,6.05 -0.5,8.45 0,1.1 1.6,2.15 1.95,1.3 2.2,1.7 z"
         style="font-style:normal;font-variant:normal;font-weight:normal;font-stretch:normal;font-family:'Typographer Uncialgotisch';-inkscape-font-specification:'Typographer Uncialgotisch';fill:#000000;stroke:#000000"
         id="path4582" />
      <path
         inkscape:connector-curvature="0"
         d="m 179.13258,85.909737 -4.85,5 q -1.3,0.95 -3.75,3.05 -0.65,0.65 -1.4,0.65 v -0.2 q 0.45,-0.55 1.4,-1.65 1.35,-1.4 4.25,-3.95 3.65,-3.15 4.35,-3.15 z m 0,34.350003 q -4.6,4.6 -4.85,4.55 -1.15,-0.35 -3.15,-1.4 -2.3,-1.2 -2.75,-1.85 0.15,-0.7 0.9,-2.35 0.6,-1.35 0.6,-2.7 v -14.55 q -1.1,-1 -2.4,-2.550003 0.4,-0.9 2.35,-2.4 1.8,-1.4 2.9,-1.7 0.85,0.35 2.5,1.4 1.85,1.15 2.25,1.7 0.1,0.3 -1.55,1.750003 -0.3,1.2 -0.3,2.65 0,2.25 -0.15,6.75 -0.15,4.45 -0.15,6.7 0,1.7 1,2.45 0.45,0.4 1.8,0.75 1,0.25 1,0.75 z"
         style="font-style:normal;font-variant:normal;font-weight:normal;font-stretch:normal;font-family:'Typographer Uncialgotisch';-inkscape-font-specification:'Typographer Uncialgotisch';fill:#000000;stroke:#000000"
         id="path4584" />
      <path
         inkscape:connector-curvature="0"
         d="m 199.46618,96.909737 q -0.4,0.6 -3.05,2.2 -2.6,1.550003 -3.25,1.550003 -1.1,0 -2.85,-0.750003 -1.95,-0.8 -2.85,-0.9 l -0.45,0.3 q 0.05,0.700003 -0.05,2.000003 -0.1,1.3 -0.1,1.85 0,1.1 1.1,2.55 1.1,1.45 2.15,1.45 0.95,0 2.45,-1.6 1.5,-1.6 2.5,-1.6 3.6,0 3.6,9 0,1.55 -0.15,3.95 v 0.45 q -0.35,0.55 -4.55,3.85 -4.15,3.3 -4.85,3.65 -1.05,0.5 -4.75,-3.4 -3.7,-3.9 -3.7,-5.75 0,-0.9 1.85,-2.45 1.85,-1.6 2.1,-2.55 -0.1,-0.25 -1.75,-1.85 -1.3,-1.3 -1.3,-3.15 0,-0.95 0.05,-2.95 0.1,-2 0.1,-3.000003 0,-0.75 4.35,-3.2 4.2,-2.4 5.05,-2.4 0.5,0 3.35,1.4 2.9,1.35 5,1.35 z m -6.2,19.950003 q 0,-8.5 -3,-8.5 -0.7,0 -2.35,1.35 -1.65,1.3 -1.95,2 -0.05,0.1 -0.05,0.9 0,1.95 2.5,4.6 2.55,2.65 4.45,2.65 h 0.2 l 0.15,-0.15 q 0,-0.3 0,-0.85 0.05,-0.55 0.05,-0.8 z"
         style="font-style:normal;font-variant:normal;font-weight:normal;font-stretch:normal;font-family:'Typographer Uncialgotisch';-inkscape-font-specification:'Typographer Uncialgotisch';fill:#000000;stroke:#000000"
         id="path4586" />
      <path
         inkscape:connector-curvature="0"
         d="m 243.08414,112.25974 q -0.5,3.55 -8.45,8.2 -7.6,4.4 -11.85,4.4 -8.5,0 -14,-4.4 -5.9,-4.75 -5.9,-13 0,-5.45 1.6,-8.150003 1.05,-1.75 4.05,-3.75 3.6,-2.35 5.4,-4.35 l -0.15,-0.15 q -0.7,0 -3.05,-0.2 -1.85,-0.15 -3,-0.1 l -4.9,0.15 q 0.05,-0.55 2.75,-3.3 2.7,-2.8 3.3,-2.8 0.1,0 0.85,0.5 0.75,0.5 0.95,0.55 1.05,0.4 5.9,0.4 h 4.5 q 6.05,0 14.05,-0.2 1.25,-0.05 3.7,-0.65 2.5,-0.6 3.65,-0.6 -0.2,0.35 -3.65,2.65 -3.45,2.25 -11.95,3.15 -9.05,1 -12,2.5 -5.5,2.75 -5.5,10.150003 0,8.35 5.5,12.9 5.15,4.3 13.8,4.3 3.3,0 5.8,-1.9 1.95,-1.85 3.9,-3.7 2.25,-2.2 4.7,-2.6 z"
         style="font-style:normal;font-variant:normal;font-weight:normal;font-stretch:normal;font-family:'Typographer Uncialgotisch';-inkscape-font-specification:'Typographer Uncialgotisch';fill:#000000;stroke:#000000"
         id="path4588" />
    </g>
  </g>
</svg>
