<?xml version="1.0" encoding="UTF-8" standalone="no"?>
<!-- Generator: Adobe Illustrator 13.0.0, SVG Export Plug-In . SVG Version: 6.00 Build 14948)  -->

<svg
   xmlns:dc="http://purl.org/dc/elements/1.1/"
   xmlns:cc="http://creativecommons.org/ns#"
   xmlns:rdf="http://www.w3.org/1999/02/22-rdf-syntax-ns#"
   xmlns:svg="http://www.w3.org/2000/svg"
   xmlns="http://www.w3.org/2000/svg"
   xmlns:sodipodi="http://sodipodi.sourceforge.net/DTD/sodipodi-0.dtd"
   xmlns:inkscape="http://www.inkscape.org/namespaces/inkscape"
   version="1.1"
   id="Layer_1"
   x="0px"
   y="0px"
   width="862.04022"
   height="927.59698"
   viewBox="0 0 862.04024 927.59703"
   enable-background="new 0 0 2027.125 1244.648"
   xml:space="preserve"
   inkscape:version="0.48.3.1 r9886"
   sodipodi:docname="TshirtEuclid.svg"><metadata
   id="metadata11984"><rdf:RDF><cc:Work
       rdf:about=""><dc:format>image/svg+xml</dc:format><dc:type
         rdf:resource="http://purl.org/dc/dcmitype/StillImage" /><dc:title></dc:title></cc:Work></rdf:RDF></metadata><defs
   id="defs11982">
	
	
	
	
	
	
	
	
	
	
	
	
	
	
	
	
	
	
	
	
	
	
	
	
	
	
	
	
</defs><sodipodi:namedview
   pagecolor="#ffffff"
   bordercolor="#666666"
   borderopacity="1"
   objecttolerance="10"
   gridtolerance="10"
   guidetolerance="10"
   inkscape:pageopacity="0"
   inkscape:pageshadow="2"
   inkscape:window-width="1440"
   inkscape:window-height="852"
   id="namedview11980"
   showgrid="false"
   inkscape:zoom="0.70575542"
   inkscape:cx="431.0201"
   inkscape:cy="463.68748"
   inkscape:window-x="0"
   inkscape:window-y="0"
   inkscape:window-maximized="1"
   inkscape:current-layer="Layer_1"
   inkscape:document-units="mm"
   units="mm"
   fit-margin-top="0"
   fit-margin-left="0"
   fit-margin-right="0"
   fit-margin-bottom="0" />

<path
   inkscape:connector-curvature="0"
   id="ellipse10146"
   d="m 810.60444,379.55976 c 0,209.50245 -170.44825,379.33771 -380.70686,379.33771 -210.25861,0 -380.706873,-169.83526 -380.706873,-379.33771 0,-209.50241 170.448263,-379.33770243 380.706873,-379.33770243 210.25861,0 380.70686,169.83529243 380.70686,379.33770243 z"
   style="fill:none;stroke:#000000;stroke-width:0.7086615;stroke-miterlimit:4;stroke-opacity:1;stroke-dasharray:none" /><path
   style="fill:none;stroke:#000000;stroke-width:0.7086615;stroke-miterlimit:4;stroke-opacity:1;stroke-dasharray:none"
   inkscape:connector-curvature="0"
   id="path10148"
   d="m 681.82035,375.62743 c 0,139.10695 -112.7617,251.86865 -251.87501,251.86865 -139.10695,0 -251.8782,-112.7617 -251.8782,-251.86865 0,-139.11649 112.77444,-251.8782 251.8782,-251.8782 139.11331,0 251.87501,112.76171 251.87501,251.8782 z" /><path
   inkscape:connector-curvature="0"
   id="ellipse10150"
   d="m 681.82038,377.50605 c 0,60.29121 -112.76829,109.16686 -251.87501,109.16686 -139.10672,0 -251.87498,-48.87565 -251.87498,-109.16686 0,-60.29118 112.76826,-109.16685 251.87498,-109.16685 139.10672,0 251.87501,48.87567 251.87501,109.16685 z"
   style="fill:none;stroke:#000000;stroke-width:0.7086615;stroke-miterlimit:4;stroke-opacity:1;stroke-dasharray:none" /><path
   inkscape:connector-curvature="0"
   id="ellipse10152"
   d="m 808.72904,377.49968 c 0,88.17797 -170.01773,159.66034 -379.74527,159.66034 -209.72753,0 -379.74527,-71.48237 -379.74527,-159.66034 0,-88.17794 170.01774,-159.6603 379.74527,-159.6603 209.72754,0 379.74527,71.48236 379.74527,159.6603 z"
   style="fill:none;stroke:#000000;stroke-width:0.7086615;stroke-miterlimit:4;stroke-opacity:1;stroke-dasharray:none" /><path
   style="fill:none;stroke:#000000;stroke-width:0.7086615;stroke-miterlimit:4;stroke-opacity:1;stroke-dasharray:none"
   inkscape:connector-curvature="0"
   id="path10154"
   d="M 674.76231,249.20276 C 770.82129,435.34204 742.26161,643.4516 610.95074,714.03672 479.63987,784.60911 295.32793,690.9329 199.26583,504.79998 103.20373,318.66071 131.77276,110.54477 263.08051,39.959652 394.39139,-30.615915 578.69709,63.069847 674.76231,249.20276 z" /><path
   style="fill:none;stroke:#000000;stroke-width:0.7086615;stroke-miterlimit:4;stroke-opacity:1;stroke-dasharray:none"
   inkscape:connector-curvature="0"
   id="path10156"
   d="M 633.81687,111.12428 C 800.15423,238.04567 843.71908,460.55374 731.13569,608.09218 618.53,755.64335 392.42709,772.35987 226.0961,645.41301 59.77147,518.49161 16.200251,295.98355 128.78364,148.44511 241.37659,0.90030262 467.49224,-15.809852 633.81687,111.12428 z" /><path
   inkscape:connector-curvature="0"
   id="line10158"
   d="M 529.57578,222.85433 331.43248,531.61966"
   style="fill:none;stroke:#000000;stroke-width:0.7086615;stroke-miterlimit:4;stroke-opacity:1;stroke-dasharray:none" /><path
   inkscape:connector-curvature="0"
   id="line10160"
   d="m 126.69488,278.99316 602.67685,196.4813"
   style="fill:none;stroke:#000000;stroke-width:0.7086615;stroke-miterlimit:4;stroke-opacity:1;stroke-dasharray:none" /><path
   inkscape:connector-curvature="0"
   id="line10162"
   d="M 729.37173,475.47446 63.949041,335.13205"
   style="fill:none;stroke:#000000;stroke-width:0.7086615;stroke-miterlimit:4;stroke-opacity:1;stroke-dasharray:none" /><path
   inkscape:connector-curvature="0"
   id="line10164"
   d="M 63.949041,335.13205 796.80579,418.55291"
   style="fill:none;stroke:#000000;stroke-width:0.7086615;stroke-miterlimit:4;stroke-opacity:1;stroke-dasharray:none" /><path
   inkscape:connector-curvature="0"
   id="line10166"
   d="M 429.94849,375.62746 430.51208,28.503949"
   style="fill:none;stroke:#000000;stroke-width:0.7086615;stroke-miterlimit:4;stroke-opacity:1;stroke-dasharray:none" /><path
   inkscape:connector-curvature="0"
   id="line10168"
   d="M 430.51208,28.503949 545.35936,96.622324"
   style="fill:none;stroke:#000000;stroke-width:0.7086615;stroke-miterlimit:4;stroke-opacity:1;stroke-dasharray:none" /><path
   inkscape:connector-curvature="0"
   id="line10170"
   d="M 545.35936,94.904507 572.50381,71.641475"
   style="fill:none;stroke:#000000;stroke-width:0.7086615;stroke-miterlimit:4;stroke-opacity:1;stroke-dasharray:none" /><path
   inkscape:connector-curvature="0"
   id="line10172"
   d="M 572.50381,71.641475 430.01536,28.990429"
   style="fill:none;stroke:#000000;stroke-width:0.7086615;stroke-miterlimit:4;stroke-opacity:1;stroke-dasharray:none" /><path
   inkscape:connector-curvature="0"
   id="line10174"
   d="m 572.50381,71.641475 117.2959,91.125685"
   style="fill:none;stroke:#000000;stroke-width:0.7086615;stroke-miterlimit:4;stroke-opacity:1;stroke-dasharray:none" /><path
   inkscape:connector-curvature="0"
   id="line10176"
   d="m 689.79971,162.76716 -45.56769,37.79848"
   style="fill:none;stroke:#000000;stroke-width:0.7086615;stroke-miterlimit:4;stroke-opacity:1;stroke-dasharray:none" /><path
   inkscape:connector-curvature="0"
   id="line10178"
   d="M 644.23202,200.56564 545.35936,94.904507"
   style="fill:none;stroke:#000000;stroke-width:0.7086615;stroke-miterlimit:4;stroke-opacity:1;stroke-dasharray:none" /><path
   inkscape:connector-curvature="0"
   id="line10180"
   d="m 644.23202,200.56564 64.95252,133.77039"
   style="fill:none;stroke:#000000;stroke-width:0.7086615;stroke-miterlimit:4;stroke-opacity:1;stroke-dasharray:none" /><path
   inkscape:connector-curvature="0"
   id="line10182"
   d="m 708.42412,334.33603 58.6784,-49.43633"
   style="fill:none;stroke:#000000;stroke-width:0.7086615;stroke-miterlimit:4;stroke-opacity:1;stroke-dasharray:none" /><path
   inkscape:connector-curvature="0"
   id="line10184"
   d="M 767.10252,284.8997 689.79971,162.76716"
   style="fill:none;stroke:#000000;stroke-width:0.7086615;stroke-miterlimit:4;stroke-opacity:1;stroke-dasharray:none" /><path
   inkscape:connector-curvature="0"
   id="line10186"
   d="m 429.94849,375.62746 323.82618,6.20263"
   style="fill:none;stroke:#000000;stroke-width:0.7086615;stroke-miterlimit:4;stroke-opacity:1;stroke-dasharray:none" /><path
   inkscape:connector-curvature="0"
   id="line10188"
   d="m 753.77467,381.83009 43.10359,36.57701"
   style="fill:none;stroke:#000000;stroke-width:0.7086615;stroke-miterlimit:4;stroke-opacity:1;stroke-dasharray:none" /><path
   inkscape:connector-curvature="0"
   id="line10190"
   d="m 772.20102,309.40445 -0.99029,108.29448"
   style="fill:none;stroke:#000000;stroke-width:0.70866156;stroke-miterlimit:4;stroke-opacity:1;stroke-dasharray:none" /><path
   inkscape:connector-curvature="0"
   id="line10192"
   d="m 771.21073,417.69891 -61.05186,50.40436"
   style="fill:none;stroke:#000000;stroke-width:0.7086615;stroke-miterlimit:4;stroke-opacity:1;stroke-dasharray:none" /><path
   inkscape:connector-curvature="0"
   id="line10194"
   d="M 710.15887,468.10327 709.18454,334.33603"
   style="fill:none;stroke:#000000;stroke-width:0.7086615;stroke-miterlimit:4;stroke-opacity:1;stroke-dasharray:none" /><path
   inkscape:connector-curvature="0"
   id="line10196"
   d="m 709.18454,334.33603 23.26933,138.61344"
   style="fill:none;stroke:#000000;stroke-width:0.7086615;stroke-miterlimit:4;stroke-opacity:1;stroke-dasharray:none" /><path
   inkscape:connector-curvature="0"
   id="line10198"
   d="m 732.45387,472.94947 38.75686,-55.25056"
   style="fill:none;stroke:#000000;stroke-width:0.7086615;stroke-miterlimit:4;stroke-opacity:1;stroke-dasharray:none" /><path
   inkscape:connector-curvature="0"
   id="line10200"
   d="m 753.77467,381.83009 -21.3208,91.11938"
   style="fill:none;stroke:#000000;stroke-width:0.7086615;stroke-miterlimit:4;stroke-opacity:1;stroke-dasharray:none" />













































































































<path
   d="M 320.25839,436.96068"
   id="path11606"
   inkscape:connector-curvature="0"
   style="fill:#030303" />

































</svg>