<?xml version="1.0" encoding="UTF-8" standalone="no"?>
<!-- Generator: Adobe Illustrator 13.0.0, SVG Export Plug-In . SVG Version: 6.00 Build 14948)  -->

<svg
   xmlns:dc="http://purl.org/dc/elements/1.1/"
   xmlns:cc="http://creativecommons.org/ns#"
   xmlns:rdf="http://www.w3.org/1999/02/22-rdf-syntax-ns#"
   xmlns:svg="http://www.w3.org/2000/svg"
   xmlns="http://www.w3.org/2000/svg"
   xmlns:sodipodi="http://sodipodi.sourceforge.net/DTD/sodipodi-0.dtd"
   xmlns:inkscape="http://www.inkscape.org/namespaces/inkscape"
   version="1.1"
   id="Layer_1"
   x="0px"
   y="0px"
   width="885.82672"
   height="885.82672"
   viewBox="0 0 885.82674 885.82676"
   enable-background="new 0 0 2027.125 1244.648"
   xml:space="preserve"
   inkscape:version="0.48.4 r9939"
   sodipodi:docname="EuclideanSpheres.svg"
   inkscape:export-filename="/home/mars/devel/RebelTechnology/drawings/EuclideanSpheres66x66.png"
   inkscape:export-xdpi="7.0700002"
   inkscape:export-ydpi="7.0700002"><metadata
     id="metadata11984"><rdf:RDF><cc:Work
         rdf:about=""><dc:format>image/svg+xml</dc:format><dc:type
           rdf:resource="http://purl.org/dc/dcmitype/StillImage" /><dc:title></dc:title></cc:Work></rdf:RDF></metadata><defs
     id="defs11982" /><sodipodi:namedview
     pagecolor="#ffffff"
     bordercolor="#666666"
     borderopacity="1"
     objecttolerance="10"
     gridtolerance="10"
     guidetolerance="10"
     inkscape:pageopacity="0"
     inkscape:pageshadow="2"
     inkscape:window-width="1680"
     inkscape:window-height="1000"
     id="namedview11980"
     showgrid="false"
     inkscape:zoom="0.70575542"
     inkscape:cx="258.86414"
     inkscape:cy="463.68748"
     inkscape:window-x="0"
     inkscape:window-y="0"
     inkscape:window-maximized="1"
     inkscape:current-layer="Layer_1"
     inkscape:document-units="mm"
     units="mm"
     fit-margin-top="0"
     fit-margin-left="0"
     fit-margin-right="0"
     fit-margin-bottom="0" /><path
     inkscape:connector-curvature="0"
     id="ellipse10146"
     d="m 862.72622,442.91337 c 0,231.02241 -187.95659,418.30305 -419.81284,418.30305 -231.85625,0 -419.812859,-187.28064 -419.812859,-418.30305 0,-231.02237 187.956609,-418.303035 419.812859,-418.303035 231.85625,0 419.81284,187.280665 419.81284,418.303035 z"
     style="fill:none;stroke:#000000;stroke-width:0.7814548;stroke-miterlimit:4;stroke-opacity:1;stroke-dasharray:none" /><path
     style="fill:none;stroke:#000000;stroke-width:0.7814548;stroke-miterlimit:4;stroke-opacity:1;stroke-dasharray:none"
     inkscape:connector-curvature="0"
     id="path10148"
     d="m 720.71351,438.57711 c 0,153.39593 -124.34452,277.74045 -277.74746,277.74045 -153.39593,0 -277.75098,-124.34452 -277.75098,-277.74045 0,-153.40645 124.35856,-277.75098 277.75098,-277.75098 153.40294,0 277.74746,124.34453 277.74746,277.75098 z" /><path
     inkscape:connector-curvature="0"
     id="ellipse10150"
     d="m 720.71354,440.6487 c 0,66.48429 -124.35178,120.38042 -277.74746,120.38042 -153.39568,0 -277.74743,-53.89613 -277.74743,-120.38042 0,-66.48425 124.35175,-120.3804 277.74743,-120.3804 153.39568,0 277.74746,53.89615 277.74746,120.3804 z"
     style="fill:none;stroke:#000000;stroke-width:0.7814548;stroke-miterlimit:4;stroke-opacity:1;stroke-dasharray:none" /><path
     inkscape:connector-curvature="0"
     id="ellipse10152"
     d="m 860.65818,440.64168 c 0,97.23556 -187.48185,176.06055 -418.75247,176.06055 -231.27062,0 -418.752487,-78.82499 -418.752487,-176.06055 0,-97.23553 187.481867,-176.06051 418.752487,-176.06051 231.27062,0 418.75247,78.82498 418.75247,176.06051 z"
     style="fill:none;stroke:#000000;stroke-width:0.7814548;stroke-miterlimit:4;stroke-opacity:1;stroke-dasharray:none" /><path
     style="fill:none;stroke:#000000;stroke-width:0.7814548;stroke-miterlimit:4;stroke-opacity:1;stroke-dasharray:none"
     inkscape:connector-curvature="0"
     id="path10154"
     d="M 712.93047,299.16617 C 818.85657,504.42557 787.36326,733.91202 642.56421,811.7476 497.76517,889.56914 294.52082,786.27057 188.59128,581.01819 82.661739,375.7588 114.16536,146.26532 258.96096,68.429748 403.76002,-9.3952951 606.99749,93.913818 712.93047,299.16617 z" /><path
     style="fill:none;stroke:#000000;stroke-width:0.7814548;stroke-miterlimit:4;stroke-opacity:1;stroke-dasharray:none"
     inkscape:connector-curvature="0"
     id="path10156"
     d="M 667.77914,146.90436 C 851.20257,286.86303 899.24238,532.227 775.09449,694.9205 650.92201,857.62804 401.59395,876.06167 218.17754,736.0749 34.768134,596.11621 -13.278695,350.75226 110.8692,188.05876 235.02763,25.358249 484.36974,6.9316379 667.77914,146.90436 z" /><path
     inkscape:connector-curvature="0"
     id="line10158"
     d="M 552.83047,270.11125 334.33401,610.59277"
     style="fill:none;stroke:#000000;stroke-width:0.7814548;stroke-miterlimit:4;stroke-opacity:1;stroke-dasharray:none" /><path
     inkscape:connector-curvature="0"
     id="line10160"
     d="M 108.56588,332.01663 773.14934,548.68037"
     style="fill:none;stroke:#000000;stroke-width:0.7814548;stroke-miterlimit:4;stroke-opacity:1;stroke-dasharray:none" /><path
     inkscape:connector-curvature="0"
     id="line10162"
     d="M 773.14934,548.68037 39.374822,393.92207"
     style="fill:none;stroke:#000000;stroke-width:0.7814548;stroke-miterlimit:4;stroke-opacity:1;stroke-dasharray:none" /><path
     inkscape:connector-curvature="0"
     id="line10164"
     d="m 39.374822,393.92207 808.135358,91.9898"
     style="fill:none;stroke:#000000;stroke-width:0.7814548;stroke-miterlimit:4;stroke-opacity:1;stroke-dasharray:none" /><path
     inkscape:connector-curvature="0"
     id="line10166"
     d="M 442.96952,438.57714 443.591,55.797326"
     style="fill:none;stroke:#000000;stroke-width:0.7814548;stroke-miterlimit:4;stroke-opacity:1;stroke-dasharray:none" /><path
     inkscape:connector-curvature="0"
     id="line10168"
     d="M 443.591,55.797326 570.23533,130.91277"
     style="fill:none;stroke:#000000;stroke-width:0.7814548;stroke-miterlimit:4;stroke-opacity:1;stroke-dasharray:none" /><path
     inkscape:connector-curvature="0"
     id="line10170"
     d="m 570.23533,129.0185 29.93271,-25.65258"
     style="fill:none;stroke:#000000;stroke-width:0.7814548;stroke-miterlimit:4;stroke-opacity:1;stroke-dasharray:none" /><path
     inkscape:connector-curvature="0"
     id="line10172"
     d="M 600.16804,103.36592 443.04326,56.333777"
     style="fill:none;stroke:#000000;stroke-width:0.7814548;stroke-miterlimit:4;stroke-opacity:1;stroke-dasharray:none" /><path
     inkscape:connector-curvature="0"
     id="line10174"
     d="M 600.16804,103.36592 729.5125,203.85196"
     style="fill:none;stroke:#000000;stroke-width:0.7814548;stroke-miterlimit:4;stroke-opacity:1;stroke-dasharray:none" /><path
     inkscape:connector-curvature="0"
     id="line10176"
     d="m 729.5125,203.85196 -50.24837,41.68112"
     style="fill:none;stroke:#000000;stroke-width:0.7814548;stroke-miterlimit:4;stroke-opacity:1;stroke-dasharray:none" /><path
     inkscape:connector-curvature="0"
     id="line10178"
     d="M 679.26413,245.53308 570.23533,129.0185"
     style="fill:none;stroke:#000000;stroke-width:0.7814548;stroke-miterlimit:4;stroke-opacity:1;stroke-dasharray:none" /><path
     inkscape:connector-curvature="0"
     id="line10180"
     d="m 679.26413,245.53308 71.6244,147.5112"
     style="fill:none;stroke:#000000;stroke-width:0.7814548;stroke-miterlimit:4;stroke-opacity:1;stroke-dasharray:none" /><path
     inkscape:connector-curvature="0"
     id="line10182"
     d="m 750.05,393.04428 64.70581,-54.5144"
     style="fill:none;stroke:#000000;stroke-width:0.7814548;stroke-miterlimit:4;stroke-opacity:1;stroke-dasharray:none" /><path
     inkscape:connector-curvature="0"
     id="line10184"
     d="M 814.75581,338.52988 729.5125,203.85196"
     style="fill:none;stroke:#000000;stroke-width:0.7814548;stroke-miterlimit:4;stroke-opacity:1;stroke-dasharray:none" /><path
     inkscape:connector-curvature="0"
     id="line10186"
     d="m 442.96952,438.57714 357.08941,6.83976"
     style="fill:none;stroke:#000000;stroke-width:0.7814548;stroke-miterlimit:4;stroke-opacity:1;stroke-dasharray:none" /><path
     inkscape:connector-curvature="0"
     id="line10188"
     d="m 800.05893,445.4169 47.53117,40.33418"
     style="fill:none;stroke:#000000;stroke-width:0.7814548;stroke-miterlimit:4;stroke-opacity:1;stroke-dasharray:none" /><path
     inkscape:connector-curvature="0"
     id="line10190"
     d="m 820.37803,365.55175 -1.09201,119.41842"
     style="fill:none;stroke:#000000;stroke-width:0.78145486;stroke-miterlimit:4;stroke-opacity:1;stroke-dasharray:none" /><path
     inkscape:connector-curvature="0"
     id="line10192"
     d="m 819.28602,484.97015 -67.32308,55.58186"
     style="fill:none;stroke:#000000;stroke-width:0.7814548;stroke-miterlimit:4;stroke-opacity:1;stroke-dasharray:none" /><path
     inkscape:connector-curvature="0"
     id="line10194"
     d="M 751.96294,540.55201 750.88853,393.04428"
     style="fill:none;stroke:#000000;stroke-width:0.7814548;stroke-miterlimit:4;stroke-opacity:1;stroke-dasharray:none" /><path
     inkscape:connector-curvature="0"
     id="line10196"
     d="m 750.88853,393.04428 25.65954,152.85173"
     style="fill:none;stroke:#000000;stroke-width:0.7814548;stroke-miterlimit:4;stroke-opacity:1;stroke-dasharray:none" /><path
     inkscape:connector-curvature="0"
     id="line10198"
     d="m 776.54807,545.89601 42.73795,-60.92586"
     style="fill:none;stroke:#000000;stroke-width:0.7814548;stroke-miterlimit:4;stroke-opacity:1;stroke-dasharray:none" /><path
     inkscape:connector-curvature="0"
     id="line10200"
     d="M 800.05893,445.4169 776.54807,545.89601"
     style="fill:none;stroke:#000000;stroke-width:0.7814548;stroke-miterlimit:4;stroke-opacity:1;stroke-dasharray:none" /><path
     d="M 322.01212,506.21048"
     id="path11606"
     inkscape:connector-curvature="0"
     style="fill:#030303" /></svg>