<?xml version="1.0" encoding="UTF-8" standalone="no"?>
<!-- Created with Inkscape (http://www.inkscape.org/) -->

<svg
   xmlns:dc="http://purl.org/dc/elements/1.1/"
   xmlns:cc="http://creativecommons.org/ns#"
   xmlns:rdf="http://www.w3.org/1999/02/22-rdf-syntax-ns#"
   xmlns:svg="http://www.w3.org/2000/svg"
   xmlns="http://www.w3.org/2000/svg"
   xmlns:sodipodi="http://sodipodi.sourceforge.net/DTD/sodipodi-0.dtd"
   xmlns:inkscape="http://www.inkscape.org/namespaces/inkscape"
   width="297mm"
   height="210mm"
   id="svg2985"
   version="1.1"
   inkscape:version="0.92.1 r15371"
   sodipodi:docname="RebelTechnologyLogo.svg"
   inkscape:export-filename="/home/mars/devel/RebelTechnology/drawings/DiscourseLogo.png"
   inkscape:export-xdpi="90"
   inkscape:export-ydpi="90">
  <defs
     id="defs2987" />
  <sodipodi:namedview
     inkscape:document-units="mm"
     pagecolor="#ffffff"
     bordercolor="#666666"
     borderopacity="1.0"
     inkscape:pageopacity="0.0"
     inkscape:pageshadow="2"
     inkscape:zoom="0.65593735"
     inkscape:cx="346.12511"
     inkscape:cy="372.1771"
     inkscape:current-layer="layer1"
     id="namedview2989"
     showgrid="false"
     inkscape:window-width="1920"
     inkscape:window-height="1016"
     inkscape:window-x="0"
     inkscape:window-y="27"
     inkscape:window-maximized="1"
     units="px" />
  <metadata
     id="metadata2991">
    <rdf:RDF>
      <cc:Work
         rdf:about="">
        <dc:format>image/svg+xml</dc:format>
        <dc:type
           rdf:resource="http://purl.org/dc/dcmitype/StillImage" />
        <dc:title></dc:title>
      </cc:Work>
    </rdf:RDF>
  </metadata>
  <g
     inkscape:label="Layer 1"
     inkscape:groupmode="layer"
     id="layer1">
    <path
       style="fill:#000000;stroke-width:0.16515307"
       d="m 311.52187,629.83147 c -0.0817,-0.95985 -0.14861,-3.12175 -0.14861,-4.80423 v -3.05906 h 2.65061 2.65061 v -0.88354 -0.88353 h -2.65061 -2.65061 v -5.85344 -5.85343 h 1.76707 1.76708 v 4.08636 4.08636 h 0.88353 0.88354 v -4.08636 -4.08636 h 1.76707 1.76707 l -0.002,8.44882 c -0.002,9.14444 -0.13088,11.89001 -0.51633,10.9735 -0.13582,-0.32288 -0.2619,-4.12291 -0.31649,-9.53775 l -0.0908,-9.00103 h -0.86274 -0.86276 v 4.08636 4.08636 h -1.76707 -1.76707 v -4.08636 -4.08636 h -0.88354 -0.88354 v 4.96989 4.9699 h 2.65061 2.65061 v 1.76707 1.76708 h -2.61825 -2.61826 l -0.13127,3.69981 c -0.16013,4.51316 -0.44451,5.90872 -0.66837,3.27994 z m -52.79135,-0.22089 c -0.0817,-0.95984 -0.14861,-6.10787 -0.14861,-11.44005 v -9.69487 l 1.71186,0.0645 1.71185,0.0645 0.92371,2.65061 0.92372,2.65061 0.015,-2.70583 0.015,-2.70583 h 1.76707 1.76708 l -10e-4,9.00104 c -8.3e-4,4.95056 -0.0677,9.69681 -0.14862,10.54722 -0.32819,3.45079 -0.57882,0.0274 -0.67513,-9.22192 l -0.0984,-9.4428 h -0.85917 -0.85917 l -0.0595,4.79545 -0.0595,4.79545 -1.63609,-4.79545 -1.6361,-4.79545 h -0.94213 -0.94213 l -0.0918,10.32634 c -0.0528,5.94447 -0.1845,10.60753 -0.31032,10.98899 -0.19418,0.58876 -0.23512,0.46805 -0.36716,-1.08253 z m -8.61932,-0.26525 c -0.0791,-0.93545 -0.14377,-2.97799 -0.14377,-4.53898 v -2.83817 h 1.76707 1.76708 l -10e-4,1.49097 c -0.002,2.09827 -0.25,4.48001 -0.45304,4.35453 -0.0941,-0.0581 -0.24183,-1.19835 -0.32839,-2.53383 l -0.1574,-2.42813 h -0.82169 -0.8217 l -0.12575,3.89153 c -0.13619,4.21477 -0.44483,5.39432 -0.68086,2.60208 z m 19.882,0.0286 c -0.0804,-0.95118 -0.14619,-6.03823 -0.14619,-11.30456 v -9.57514 h 4.41769 4.41768 l -0.001,8.55927 c -0.002,9.25097 -0.12993,12.0023 -0.51659,11.08393 -0.1364,-0.3239 -0.2618,-4.14941 -0.3163,-9.64819 l -0.0903,-9.11147 h -3.49481 -3.49481 l -0.086,10.32634 c -0.0534,6.4168 -0.17243,10.52944 -0.31432,10.86279 -0.19311,0.45366 -0.25091,0.26956 -0.37454,-1.19297 z m 19.21694,0 c -0.0804,-0.95118 -0.14619,-6.03823 -0.14619,-11.30456 v -9.57514 h 4.41768 4.41769 l -10e-4,8.55927 c -0.002,9.25097 -0.12993,12.0023 -0.51659,11.08393 -0.1364,-0.3239 -0.2618,-4.14941 -0.3163,-9.64819 l -0.0903,-9.11147 h -3.4948 -3.49481 l -0.086,10.32634 c -0.0534,6.4168 -0.17243,10.52944 -0.31433,10.86279 -0.1931,0.45366 -0.25091,0.26956 -0.37453,-1.19297 z m -118.5968,0.65652 c -0.0857,-0.36446 -0.22282,-2.12877 -0.30479,-3.9207 l -0.14903,-3.25804 h -2.61628 -2.61627 v -1.76708 -1.76707 h 2.65062 2.65061 v -0.88354 -0.88353 h -2.65061 -2.65062 v -3.20283 -3.20282 h 1.76708 1.76707 v 1.32531 1.3253 h 0.88354 0.88354 v -2.20884 -2.20884 h -3.51409 -3.51409 l -0.089,9.4428 c -0.0542,5.74768 -0.1777,9.65273 -0.31563,9.97926 -0.38258,0.90568 -0.51899,-2.14696 -0.51899,-11.614 v -8.6916 h 4.41769 4.41768 v 3.09238 3.09238 h -1.76707 -1.76707 v -1.32531 -1.3253 h -0.88354 -0.88354 v 2.31928 2.31929 h 2.65061 2.65061 v 1.76707 1.76708 h -2.65061 -2.65061 v 0.88353 0.88354 h 2.65061 2.65061 l -0.0218,3.1476 c -0.012,1.73118 -0.0891,3.69429 -0.17132,4.36247 -0.13382,1.08771 -0.16577,1.14551 -0.30523,0.55221 z m 22.30932,0 c -0.0857,-0.36446 -0.22283,-2.12877 -0.3048,-3.9207 l -0.14903,-3.25804 h -2.61627 -2.61627 v -1.76708 -1.76707 h 2.65061 2.65061 v -0.88354 -0.88353 h -2.65061 -2.65061 v -3.20283 -3.20282 h 1.76707 1.76708 v 1.32531 1.3253 h 0.88353 0.88354 v -2.20884 -2.20884 h -3.51409 -3.51409 l -0.089,9.4428 c -0.0542,5.74768 -0.17771,9.65273 -0.31564,9.97926 -0.38257,0.90568 -0.51898,-2.14696 -0.51898,-11.614 v -8.6916 h 4.41768 4.41769 v 3.09238 3.09238 h -1.76708 -1.76707 v -1.32531 -1.3253 h -0.88354 -0.88353 v 2.31928 2.31929 h 2.65061 2.65061 v 1.76707 1.76708 h -2.65061 -2.65061 v 0.88353 0.88354 h 2.65061 2.65061 l -0.0218,3.1476 c -0.012,1.73118 -0.0891,3.69429 -0.17131,4.36247 -0.13383,1.08771 -0.16578,1.14551 -0.30523,0.55221 z m 40.6427,0 c -0.0857,-0.36446 -0.22282,-2.12877 -0.30479,-3.9207 l -0.14903,-3.25804 h -2.61627 -2.61627 v -1.76708 -1.76707 h 2.65061 2.65061 v -0.88354 -0.88353 h -2.65061 -2.65061 v -3.20283 -3.20282 h 1.76707 1.76708 v 1.32531 1.3253 h 0.88353 0.88354 v -2.20884 -2.20884 h -3.51409 -3.51409 l -0.089,9.4428 c -0.0542,5.74768 -0.17771,9.65273 -0.31564,9.97926 -0.38257,0.90568 -0.51898,-2.14696 -0.51898,-11.614 v -8.6916 h 4.41768 4.41769 v 3.09238 3.09238 h -1.76708 -1.76707 v -1.32531 -1.3253 h -0.88354 -0.88354 v 2.31928 2.31929 h 2.65062 2.65061 v 1.76707 1.76708 h -2.65061 -2.65062 v 0.88353 0.88354 h 2.65062 2.65061 l -0.0218,3.1476 c -0.012,1.73118 -0.0891,3.69429 -0.17131,4.36247 -0.13383,1.08771 -0.16578,1.14551 -0.30524,0.55221 z m -60.09859,-1.31917 c -0.0804,-0.95118 -0.14619,-5.88914 -0.14619,-10.97324 v -9.24381 h 4.41768 4.41769 v 4.41769 c 0,2.42972 -0.0746,4.41819 -0.16566,4.41881 -0.0911,6.6e-4 -0.5601,0.23988 -1.04217,0.53167 l -0.87651,0.53054 1.04217,0.50632 1.04217,0.50633 -0.0219,3.43491 c -0.012,1.88921 -0.0905,3.9816 -0.17449,4.64978 -0.15213,1.21075 -0.15327,1.21226 -0.33827,0.44581 -0.10209,-0.42297 -0.24722,-2.41093 -0.3225,-4.41768 l -0.13687,-3.64864 -1.25625,-0.66723 c -0.69094,-0.36697 -1.3239,-0.73486 -1.40657,-0.81754 -0.0827,-0.0827 0.50749,-0.47468 1.31148,-0.87114 l 1.46178,-0.72084 v -3.70763 -3.70762 h -3.51493 -3.51493 l -0.0871,9.99501 c -0.0537,6.16613 -0.17431,10.20052 -0.3148,10.53147 -0.19237,0.45317 -0.25042,0.26797 -0.37391,-1.19297 z m 22.30931,0 c -0.0804,-0.95118 -0.14619,-5.88914 -0.14619,-10.97324 v -9.24381 h 1.76707 1.76708 v 6.73697 6.73697 h 1.32531 1.3253 l -0.001,1.60141 c -0.002,2.23608 -0.25148,4.64009 -0.45926,4.42888 -0.0957,-0.0973 -0.24412,-1.29508 -0.32981,-2.6618 l -0.15579,-2.48495 h -1.29387 -1.29387 v -6.73697 -6.73697 h -0.86432 -0.86432 l -0.0871,9.99501 c -0.0537,6.16613 -0.17431,10.20052 -0.31479,10.53147 -0.19238,0.45317 -0.25043,0.26797 -0.37392,-1.19297 z m 48.82369,1.09828 c -0.0911,-0.36446 -0.227,-2.67546 -0.30208,-5.13556 l -0.13651,-4.4729 h -0.85191 -0.85191 v 1.3253 1.32531 h -1.76707 -1.76708 v -5.85343 -5.85344 h 1.76708 1.76707 v 1.32531 1.3253 h 0.88354 0.88353 v -2.20884 -2.20884 h -3.51355 -3.51355 l -0.0903,9.11147 c -0.0545,5.49618 -0.17992,9.32434 -0.31617,9.64793 -0.37889,0.89984 -0.51826,-2.13438 -0.51826,-11.28266 v -8.36028 h 4.41769 4.41768 v 3.09238 3.09238 h -1.76707 -1.76708 v -1.32531 -1.3253 h -0.88353 -0.88354 v 4.9699 4.96989 h 0.88354 0.88353 v -1.3253 -1.32531 h 1.76708 1.76707 l -0.0218,4.36247 c -0.012,2.39935 -0.0891,4.90915 -0.17132,5.57732 -0.13571,1.10299 -0.16472,1.15384 -0.31504,0.55221 z m 36.65853,-1.09828 c -0.0804,-0.95118 -0.14619,-5.88914 -0.14619,-10.97324 v -9.24381 h 1.76708 1.76707 v 6.73697 6.73697 h 1.3253 1.32531 l -0.001,1.60141 c -0.002,2.23608 -0.25149,4.64009 -0.45927,4.42888 -0.0957,-0.0973 -0.24411,-1.29508 -0.3298,-2.6618 l -0.1558,-2.48495 h -1.29387 -1.29387 v -6.73697 -6.73697 h -0.86432 -0.86432 l -0.0871,9.99501 c -0.0537,6.16613 -0.1743,10.20052 -0.31479,10.53147 -0.19238,0.45317 -0.25042,0.26797 -0.37392,-1.19297 z m 27.39118,0.8774 c -0.0948,-0.36446 -0.22911,-3.22215 -0.29855,-6.35042 l -0.12625,-5.68777 h -0.85544 -0.85544 v 2.65061 2.65061 h -1.76707 -1.76707 v -5.85343 -5.85344 h 1.76707 1.76707 v 1.32531 1.3253 h 0.88354 0.88354 v -2.20884 -2.20884 h -3.51506 -3.51507 l -0.0868,9.00103 c -0.0529,5.48731 -0.17574,9.21045 -0.31467,9.53749 -0.38024,0.8951 -0.52026,-2.11174 -0.52026,-11.17223 v -8.24983 h 4.41768 4.41769 v 3.09238 3.09238 h -1.76708 -1.76707 v -1.32531 -1.3253 h -0.88354 -0.88354 v 4.9699 4.96989 h 0.88354 0.88354 v -2.65061 -2.65061 h 1.76707 1.76708 l -0.0218,5.57733 c -0.012,3.06753 -0.0891,6.12401 -0.17132,6.79219 -0.13691,1.11279 -0.16394,1.15918 -0.32177,0.55221 z m -53.02696,-0.7731 c -0.10518,-0.30371 -0.23756,-4.80147 -0.29419,-9.99501 l -0.10296,-9.4428 h -0.8619 -0.86189 v 5.41166 5.41167 h -1.76708 -1.76707 v -5.41167 -5.41166 h -0.86463 -0.86463 l -0.0957,9.11147 c -0.0531,5.05703 -0.192,9.40635 -0.31211,9.77413 -0.36191,1.10825 -0.51075,-2.21319 -0.51221,-11.43076 l -0.001,-8.33838 h 1.76707 1.76708 v 5.41166 5.41167 h 0.88353 0.88354 v -5.41167 -5.41166 h 1.76707 1.76708 l -0.0218,9.22192 c -0.0224,9.47297 -0.14481,12.14774 -0.50782,11.09943 z m 8.62784,-1.43574 c -0.10385,-1.13739 -0.49319,-2.75096 -1.0926,-4.52813 l -0.93126,-2.76106 -0.13714,3.31327 c -0.0754,1.82229 -0.14998,3.65619 -0.16567,4.07531 -0.0221,0.59181 -0.0876,0.70296 -0.29301,0.49756 -0.18703,-0.18703 -0.29132,-1.96285 -0.35609,-6.06328 -0.0504,-3.18932 -0.0529,-6.04727 -0.006,-6.35098 0.0565,-0.36292 0.68336,1.22712 1.82872,4.63857 1.79344,5.34175 1.88138,5.82253 1.47454,8.06227 -0.14714,0.81005 -0.17391,0.73656 -0.32184,-0.88353 z m -113.09291,-0.21475 c -0.0804,-0.95118 -0.14619,-5.54125 -0.14619,-10.20014 v -8.47072 h 4.41769 4.41769 v 5.73876 5.73876 l -1.04847,0.53284 -1.04846,0.53284 1.04846,0.50939 1.04847,0.50938 -0.0218,2.22005 c -0.012,1.22103 -0.0926,2.76674 -0.17919,3.43491 -0.15351,1.18526 -0.16114,1.19602 -0.31297,0.44177 -0.0856,-0.4252 -0.2286,-1.86647 -0.3178,-3.20282 l -0.16217,-2.42973 -1.25626,-0.66723 c -0.69093,-0.36697 -1.32389,-0.73486 -1.40656,-0.81753 -0.0827,-0.0827 0.50749,-0.47469 1.31147,-0.87115 l 1.46179,-0.72084 v -5.03293 -5.03293 h -3.51373 -3.51374 l -0.0899,9.22192 c -0.0544,5.58005 -0.17917,9.43377 -0.31599,9.75837 -0.19048,0.45189 -0.24917,0.26386 -0.37232,-1.19297 z m 2.6482,-0.2495 c -0.0791,-0.93544 -0.14377,-2.43806 -0.14377,-3.33915 v -1.63834 l 1.76685,0.9538 c 1.75583,0.94784 1.76685,0.9593 1.76551,1.83732 -0.002,1.54856 -0.27597,3.8564 -0.44482,3.75205 -0.0897,-0.0554 -0.23283,-1.03203 -0.31817,-2.17027 l -0.15516,-2.06952 -0.76239,-0.36356 c -0.41932,-0.19996 -0.79408,-0.36356 -0.83281,-0.36356 -0.0387,0 -0.13948,1.06829 -0.22389,2.37397 -0.0844,1.30568 -0.23316,2.45364 -0.33053,2.55102 -0.0974,0.0974 -0.24175,-0.58832 -0.32082,-1.52376 z m 63.39379,0 c -0.0791,-0.93544 -0.14377,-4.66775 -0.14377,-8.29401 v -6.5932 h -1.32531 -1.3253 v -1.76708 -1.76707 h 4.41768 4.41769 v 1.76707 1.76708 h -1.32531 -1.3253 l -0.001,6.79219 c -0.002,7.47572 -0.13822,9.94351 -0.52841,9.5535 -0.1657,-0.16563 -0.26763,-2.94744 -0.3201,-8.73612 l -0.077,-8.49311 h 1.34706 1.34707 v -0.88354 -0.88353 h -3.53415 -3.53415 v 0.88353 0.88354 h 1.34532 1.34532 l -0.0752,8.49317 c -0.0512,5.78359 -0.15269,8.57056 -0.31801,8.73577 -0.17643,0.17631 -0.28207,-0.22222 -0.38655,-1.45819 z m -41.22825,-5.83341 v -1.76954 l 1.76707,0.88847 c 1.76502,0.88743 1.76708,0.88949 1.76708,1.76954 v 0.88107 h -1.76708 -1.76707 z m 2.65061,0.70603 c 0,-0.15641 -1.38258,-0.92445 -1.66413,-0.92445 -0.0566,0 -0.10294,0.2485 -0.10294,0.55221 0,0.49699 0.0883,0.55221 0.88353,0.55221 0.48595,0 0.88354,-0.081 0.88354,-0.17997 z m 93.87582,-4.78992 v -5.85344 h 1.76708 1.76707 v 5.85344 5.85343 h -1.76707 -1.76708 z m 2.65062,0 v -4.9699 h -0.88354 -0.88354 v 4.9699 4.96989 h 0.88354 0.88354 z m 16.56632,0 v -5.85344 h 1.76707 1.76708 v 5.85344 5.85343 h -1.76708 -1.76707 z m 2.65061,0 v -4.9699 h -0.88354 -0.88354 v 4.9699 4.96989 h 0.88354 0.88354 z m -140.70329,-1.43575 v -4.41769 h 1.76707 1.76707 v 3.51418 3.51419 l -1.64622,0.9035 c -0.90543,0.49693 -1.70061,0.9035 -1.76708,0.9035 -0.0665,0 -0.12084,-1.98796 -0.12084,-4.41768 z m 2.65061,-0.66714 v -2.86701 h -0.88354 -0.88354 v 3.31775 3.31776 l 0.88354,-0.45075 0.88354,-0.45075 z m 19.6587,-0.6557 v -3.09485 h 1.76707 1.76708 v 2.20638 2.20638 l -1.76708,0.88846 -1.76707,0.88847 z m 2.65061,-0.66961 v -1.5417 h -0.88354 -0.88353 v 1.99245 1.99244 l 0.88353,-0.45074 0.88354,-0.45075 z"
       id="path3810"
       inkscape:connector-curvature="0" />
  </g>
</svg>
