<?xml version="1.0" encoding="UTF-8" standalone="no"?>
<!-- Created with Inkscape (http://www.inkscape.org/) -->

<svg
   xmlns:dc="http://purl.org/dc/elements/1.1/"
   xmlns:cc="http://creativecommons.org/ns#"
   xmlns:rdf="http://www.w3.org/1999/02/22-rdf-syntax-ns#"
   xmlns:svg="http://www.w3.org/2000/svg"
   xmlns="http://www.w3.org/2000/svg"
   xmlns:sodipodi="http://sodipodi.sourceforge.net/DTD/sodipodi-0.dtd"
   xmlns:inkscape="http://www.inkscape.org/namespaces/inkscape"
   width="297mm"
   height="210mm"
   id="svg2985"
   version="1.1"
   inkscape:version="0.92.1 r15371"
   sodipodi:docname="RebelCableLogo.svg"
   inkscape:export-filename="/home/mars/devel/RebelTechnology/drawings/DiscourseLogo.png"
   inkscape:export-xdpi="90"
   inkscape:export-ydpi="90">
  <defs
     id="defs2987" />
  <sodipodi:namedview
     inkscape:document-units="mm"
     pagecolor="#ffffff"
     bordercolor="#666666"
     borderopacity="1.0"
     inkscape:pageopacity="0.0"
     inkscape:pageshadow="2"
     inkscape:zoom="1"
     inkscape:cx="430.42084"
     inkscape:cy="371.37632"
     inkscape:current-layer="layer1"
     id="namedview2989"
     showgrid="false"
     inkscape:window-width="1920"
     inkscape:window-height="1016"
     inkscape:window-x="0"
     inkscape:window-y="27"
     inkscape:window-maximized="1"
     units="px" />
  <metadata
     id="metadata2991">
    <rdf:RDF>
      <cc:Work
         rdf:about="">
        <dc:format>image/svg+xml</dc:format>
        <dc:type
           rdf:resource="http://purl.org/dc/dcmitype/StillImage" />
        <dc:title></dc:title>
      </cc:Work>
    </rdf:RDF>
  </metadata>
  <g
     inkscape:label="Layer 1"
     inkscape:groupmode="layer"
     id="layer1">
    <path
       style="fill:#000000;stroke-width:1.08056474"
       d="m 523.31412,466.07624 c -0.56056,-2.38457 -1.45791,-13.92812 -1.99421,-25.65234 l -0.97509,-21.3167 H 503.22705 486.1093 v -11.56162 -11.56162 h 17.34244 17.34244 v -5.78086 -5.78076 H 503.45174 486.1093 v -20.95556 -20.95547 h 11.56162 11.56162 v 8.67139 8.67119 h 5.78082 5.78082 v -14.45215 -14.45195 h -22.99203 -22.99199 l -0.58252,61.78242 c -0.35454,37.60603 -1.16269,63.15596 -2.06514,65.29229 -2.50311,5.92579 -3.39563,-14.047 -3.39563,-75.98802 v -56.86755 h 28.90407 28.90408 v 20.23281 20.23291 h -11.56164 -11.56162 v -8.67119 -8.67129 h -5.78082 -5.78081 v 15.17461 15.1746 h 17.34243 17.34246 v 11.56172 11.56162 h -17.34246 -17.34243 v 5.78086 5.78076 h 17.34243 17.34246 l -0.14294,20.59424 c -0.0779,11.32676 -0.58301,24.1709 -1.12088,28.54267 -0.87558,7.11668 -1.08462,7.49478 -1.99708,3.61299 z m 145.96553,0 c -0.56056,-2.38457 -1.4579,-13.92812 -1.9942,-25.65234 l -0.97509,-21.3167 H 649.1926 632.07484 v -11.56162 -11.56162 h 17.34243 17.34244 v -5.78086 -5.78076 h -17.34244 -17.34243 v -20.95556 -20.95547 h 11.56162 11.56163 v 8.67139 8.67119 h 5.78082 5.7808 V 345.40174 330.94979 H 643.7677 620.77569 l -0.58251,61.78242 c -0.35454,37.60603 -1.16268,63.15596 -2.06516,65.29229 -2.50309,5.92579 -3.39561,-14.047 -3.39561,-75.98802 v -56.86755 h 28.90406 28.90407 v 20.23281 20.23291 h -11.56162 -11.56164 v -8.67119 -8.67129 h -5.78082 -5.7808 v 15.17461 15.1746 h 17.34243 17.34244 v 11.56172 11.56162 h -17.34244 -17.34243 v 5.78086 5.78076 h 17.34243 17.34244 l -0.14293,20.59424 c -0.0779,11.32676 -0.58302,24.1709 -1.12089,28.54267 -0.87557,7.11668 -1.08463,7.49478 -1.99708,3.61299 z m -127.29611,-8.63096 c -0.52612,-6.22344 -0.95652,-38.53162 -0.95652,-71.79582 v -60.48053 h 28.90407 28.90406 v 28.9041 c 0,15.89716 -0.4877,28.90739 -1.0839,28.91139 -0.59619,0.004 -3.66457,1.56948 -6.81872,3.47873 l -5.73482,3.47105 6.81873,3.31285 6.81871,3.31284 -0.14294,22.47395 c -0.0778,12.36064 -0.5923,26.0508 -1.14168,30.42258 -0.99535,7.92178 -1.00279,7.93156 -2.21324,2.91698 -0.66806,-2.76756 -1.6175,-15.77429 -2.11003,-28.9042 l -0.89544,-23.87235 -8.21942,-4.36549 c -4.52066,-2.40104 -8.66197,-4.80806 -9.20286,-5.34906 -0.541,-0.54099 3.32041,-3.10573 8.58071,-5.69971 l 9.56418,-4.71624 V 355.20812 330.94979 H 570.0569 547.05938 l -0.56964,65.3954 c -0.35145,40.34385 -1.14044,66.74011 -2.05963,68.90539 -1.25866,2.96499 -1.63846,1.75334 -2.44645,-7.8053 z m 145.96553,0 c -0.52613,-6.22344 -0.95653,-38.53162 -0.95653,-71.79582 v -60.48053 h 11.56162 11.56162 v 44.07881 44.0786 h 8.67123 8.67122 l -0.01,10.47774 c -0.014,14.63022 -1.64542,30.35919 -3.00491,28.97736 -0.62623,-0.63682 -1.59718,-8.47346 -2.15784,-17.41574 l -1.01933,-16.2585 h -8.46552 -8.46552 v -44.0787 -44.07871 h -5.65506 -5.65509 l -0.56964,65.3954 c -0.35144,40.34385 -1.14046,66.74011 -2.05964,68.90539 -1.25865,2.96499 -1.63848,1.75334 -2.44646,-7.8053 z M 396.01798,447.32877 c -0.52612,-6.22334 -0.95652,-36.25524 -0.95652,-66.73761 v -55.42223 h 28.90406 28.90408 v 37.54754 37.54764 l -6.85992,3.48633 -6.85987,3.48622 6.85987,3.33281 6.85992,3.3328 -0.14294,14.52542 c -0.0778,7.98886 -0.60617,18.10227 -1.1724,22.47404 -1.00441,7.7548 -1.05431,7.82527 -2.04769,2.89033 -0.56006,-2.78203 -1.4957,-12.21191 -2.07929,-20.95546 l -1.06111,-15.89717 -8.21941,-4.36569 c -4.52067,-2.40094 -8.66196,-4.80806 -9.20286,-5.34886 -0.54099,-0.54099 3.32041,-3.10583 8.5807,-5.69981 l 9.56418,-4.71634 v -32.92942 -32.92952 h -22.98967 -22.98969 l -0.588,60.3372 c -0.35574,36.50917 -1.17227,61.72333 -2.06749,63.84708 -1.24629,2.95671 -1.63025,1.72649 -2.43599,-7.8053 z m 17.32661,-1.63237 c -0.51734,-6.12042 -0.94065,-15.95176 -0.94065,-21.84741 v -10.71938 l 11.5602,6.24051 c 11.48808,6.20157 11.56014,6.27653 11.55137,12.02126 -0.015,10.13188 -1.80563,25.23162 -2.91033,24.54899 -0.58661,-0.36232 -1.5234,-6.75245 -2.08175,-14.19972 l -1.01518,-13.54044 -4.98817,-2.37868 c -2.7435,-1.30837 -5.19552,-2.37868 -5.44889,-2.37868 -0.25333,0 -0.9126,6.98951 -1.46493,15.53234 -0.55227,8.54283 -1.52547,16.05368 -2.1626,16.69079 -0.63711,0.63782 -1.58168,-3.84925 -2.09907,-9.96958 z m 145.02489,-38.16699 v -11.57779 l 11.56163,5.8131 c 11.54813,5.80632 11.56162,5.81979 11.56162,11.57779 v 5.76469 h -11.56162 -11.56163 z m 17.34243,4.61942 c 0,-1.0233 -9.04593,-6.04856 -10.88805,-6.04856 -0.37052,0 -0.67355,1.62588 -0.67355,3.61309 0,3.25176 0.57812,3.61298 5.78082,3.61298 3.17944,0 5.7808,-0.53001 5.7808,-1.17751 z M 412.40393,371.41551 v -28.9042 h 11.56162 11.56163 v 22.99268 22.99258 l -10.77096,5.91152 c -5.924,3.25126 -11.12675,5.91142 -11.56162,5.91142 -0.43489,0 -0.79073,-13.00674 -0.79073,-28.904 z m 17.34244,-4.36499 v -18.75835 h -5.78082 -5.78081 v 21.70747 21.70737 l 5.78081,-2.94912 5.78082,-2.94912 z m 128.62311,-4.29013 v -20.24908 h 11.56163 11.56162 v 14.43598 14.43588 l -11.56162,5.8131 -11.56163,5.8131 z m 17.34243,-4.38116 v -10.08706 h -5.7808 -5.78082 v 13.03628 13.03618 l 5.78082,-2.94912 5.7808,-2.94922 z"
       id="path3810"
       inkscape:connector-curvature="0"
       sodipodi:nodetypes="cscccccccccccccccccccccccsssccccccccccccccccccccccccsccscccccccccccccccccccccccscsccccccccccccccccccccccccccsscccsccccccccccccscccccscscscccccccccccccccccscccssccccccccccssccscscccccscsssccccccssccsccssccccssssssccccccssccccccccccccccccccccccccccc" />
  </g>
</svg>
