<?xml version="1.0" encoding="UTF-8" standalone="no"?>
<!-- Created with Inkscape (http://www.inkscape.org/) -->

<svg
   xmlns:dc="http://purl.org/dc/elements/1.1/"
   xmlns:cc="http://creativecommons.org/ns#"
   xmlns:rdf="http://www.w3.org/1999/02/22-rdf-syntax-ns#"
   xmlns:svg="http://www.w3.org/2000/svg"
   xmlns="http://www.w3.org/2000/svg"
   xmlns:sodipodi="http://sodipodi.sourceforge.net/DTD/sodipodi-0.dtd"
   xmlns:inkscape="http://www.inkscape.org/namespaces/inkscape"
   width="297mm"
   height="210mm"
   id="svg2985"
   version="1.1"
   inkscape:version="0.48.4 r9939"
   sodipodi:docname="RebelTechnologyLogo.svg"
   inkscape:export-filename="/home/mars/devel/RebelTechnology/drawings/DiscourseLogo.png"
   inkscape:export-xdpi="90"
   inkscape:export-ydpi="90">
  <defs
     id="defs2987" />
  <sodipodi:namedview
     inkscape:document-units="mm"
     pagecolor="#ffffff"
     bordercolor="#666666"
     borderopacity="1.0"
     inkscape:pageopacity="0.0"
     inkscape:pageshadow="2"
     inkscape:zoom="0.5"
     inkscape:cx="446.81371"
     inkscape:cy="390.77804"
     inkscape:current-layer="layer1"
     id="namedview2989"
     showgrid="false"
     inkscape:window-width="1680"
     inkscape:window-height="1000"
     inkscape:window-x="0"
     inkscape:window-y="0"
     inkscape:window-maximized="1"
     units="px" />
  <metadata
     id="metadata2991">
    <rdf:RDF>
      <cc:Work
         rdf:about="">
        <dc:format>image/svg+xml</dc:format>
        <dc:type
           rdf:resource="http://purl.org/dc/dcmitype/StillImage" />
        <dc:title />
      </cc:Work>
    </rdf:RDF>
  </metadata>
  <g
     inkscape:label="Layer 1"
     inkscape:groupmode="layer"
     id="layer1">
    <path
       style="fill:#000000"
       d="m 984.91761,380.13488 c -0.49491,-5.81187 -0.89984,-18.90217 -0.89984,-29.08957 l 0,-18.52253 16.04943,0 16.0494,0 0,-5.34981 0,-5.34981 -16.0494,0 -16.04943,0 0,-35.44247 0,-35.44248 10.69961,0 10.69962,0 0,24.74286 0,24.74286 5.3498,0 5.3498,0 0,-24.74286 0,-24.74286 10.6996,0 10.6996,0 -0.01,51.15754 c -0.011,55.36947 -0.7925,71.99385 -3.1264,66.44439 -0.8224,-1.95501 -1.5858,-24.96418 -1.9163,-57.75096 l -0.5495,-54.50116 -5.2239,0 -5.224,0 0,24.74286 0,24.74286 -10.6996,0 -10.6996,0 0,-24.74286 0,-24.74286 -5.34982,0 -5.3498,0 0,30.09267 0,30.09266 16.04942,0 16.0494,0 0,10.69962 0,10.69961 -15.8535,0 -15.8535,0 -0.79485,22.40232 c -0.96959,27.3271 -2.6915,35.77722 -4.04694,19.85998 z m -319.651,-1.33745 c -0.49491,-5.81187 -0.89984,-36.9831 -0.89984,-69.26938 l 0,-58.70236 10.36525,0.39063 10.36526,0.39062 5.59306,16.04942 5.59308,16.04942 0.0911,-16.38378 0.0911,-16.38379 10.69961,0 10.69962,0 -0.009,54.50117 c -0.005,29.97564 -0.41018,58.71413 -0.8999,63.86332 -1.98719,20.89449 -3.50471,0.16582 -4.08791,-55.83861 l -0.59555,-57.17607 -5.20226,0 -5.20228,0 -0.36044,29.0364 -0.36044,29.03642 -9.90655,-29.03642 -9.90654,-29.0364 -5.7046,0 -5.70459,0 -0.55563,62.52587 c -0.31987,35.9937 -1.11719,64.22848 -1.87899,66.53823 -1.17578,3.56495 -1.42369,2.83406 -2.22319,-6.55469 z m -52.18993,-1.60613 c -0.47879,-5.6641 -0.87053,-18.03165 -0.87053,-27.48344 l 0,-17.18508 10.69961,0 10.69962,0 -0.009,9.0278 c -0.0134,12.70497 -1.51374,27.12642 -2.74312,26.36664 -0.56954,-0.352 -1.46433,-7.25603 -1.98841,-15.34231 l -0.95306,-14.70233 -4.97536,0 -4.97537,0 -0.76139,23.56319 c -0.82462,25.52037 -2.69347,32.66255 -4.12263,15.75553 z m 120.38532,0.17327 c -0.48685,-5.75939 -0.88518,-36.56144 -0.88518,-68.449 l 0,-57.97736 26.74903,0 26.74904,0 -0.009,51.82626 c -0.0107,56.01453 -0.78672,72.67379 -3.12794,67.11312 -0.8259,-1.96125 -1.58521,-25.12463 -1.91519,-58.41968 l -0.54676,-55.16989 -21.16102,0 -21.16102,0 -0.52056,62.52587 c -0.32349,38.85366 -1.04405,63.75565 -1.90322,65.77409 -1.16927,2.74693 -1.51925,1.63218 -2.26782,-7.22341 z m 116.35831,0 c -0.48685,-5.75939 -0.88518,-36.56144 -0.88518,-68.449 l 0,-57.97736 26.74904,0 26.74903,0 -0.009,51.82626 c -0.0107,56.01453 -0.78671,72.67379 -3.12794,67.11312 -0.8259,-1.96125 -1.58521,-25.12463 -1.91519,-58.41968 l -0.54676,-55.16989 -21.16102,0 -21.16101,0 -0.52057,62.52587 c -0.32349,38.85366 -1.04405,63.75565 -1.90322,65.77409 -1.16926,2.74693 -1.51925,1.63218 -2.26782,-7.22341 z m -718.10224,3.9752 c -0.51872,-2.2068 -1.34921,-12.88969 -1.84552,-23.73977 l -0.90238,-19.72742 -15.84151,0 -15.841485,0 0,-10.69961 0,-10.69962 16.049425,0 16.04942,0 0,-5.3498 0,-5.34981 -16.04942,0 -16.049425,0 0,-19.39305 0,-19.39306 10.699615,0 10.69961,0 0,8.02472 0,8.02471 5.34981,0 5.34981,0 0,-13.37452 0,-13.37452 -21.27778,0 -21.277759,0 -0.5391,57.17607 c -0.32813,34.80215 -1.076007,58.44714 -1.911178,60.42428 -2.31648,5.4839 -3.142451,-12.99978 -3.142451,-70.3226 l 0,-52.62756 26.749038,0 26.74904,0 0,18.72433 0,18.72432 -10.69962,0 -10.69961,0 0,-8.02471 0,-8.02471 -5.34981,0 -5.34981,0 0,14.04325 0,14.04324 16.04942,0 16.04943,0 0,10.69962 0,10.69961 -16.04943,0 -16.04942,0 0,5.34981 0,5.34981 16.04942,0 16.04943,0 -0.13227,19.05869 c -0.0728,10.48227 -0.53954,22.36887 -1.03732,26.41467 -0.81032,6.58608 -1.00375,6.93604 -1.84817,3.34363 z m 135.08264,0 c -0.51872,-2.2068 -1.34921,-12.88969 -1.84552,-23.73977 l -0.90238,-19.72742 -15.8415,0 -15.84149,0 0,-10.69961 0,-10.69962 16.04942,0 16.04942,0 0,-5.3498 0,-5.34981 -16.04942,0 -16.04942,0 0,-19.39305 0,-19.39306 10.69961,0 10.69962,0 0,8.02472 0,8.02471 5.34981,0 5.3498,0 0,-13.37452 0,-13.37452 -21.27777,0 -21.27777,0 -0.5391,57.17607 c -0.32813,34.80215 -1.076,58.44714 -1.91117,60.42428 -2.31648,5.4839 -3.14245,-12.99978 -3.14245,-70.3226 l 0,-52.62756 26.74903,0 26.74904,0 0,18.72433 0,18.72432 -10.69961,0 -10.69962,0 0,-8.02471 0,-8.02471 -5.34981,0 -5.3498,0 0,14.04325 0,14.04324 16.04942,0 16.04942,0 0,10.69962 0,10.69961 -16.04942,0 -16.04942,0 0,5.34981 0,5.34981 16.04942,0 16.04942,0 -0.13227,19.05869 c -0.0728,10.48227 -0.53955,22.36887 -1.03732,26.41467 -0.81032,6.58608 -1.00376,6.93604 -1.84817,3.34363 z m 246.09114,0 c -0.51871,-2.2068 -1.3492,-12.88969 -1.84552,-23.73977 l -0.90238,-19.72742 -15.8415,0 -15.84149,0 0,-10.69961 0,-10.69962 16.04942,0 16.04943,0 0,-5.3498 0,-5.34981 -16.04943,0 -16.04942,0 0,-19.39305 0,-19.39306 10.69962,0 10.69961,0 0,8.02472 0,8.02471 5.34981,0 5.34981,0 0,-13.37452 0,-13.37452 -21.27778,0 -21.27776,0 -0.5391,57.17607 c -0.32813,34.80215 -1.07601,58.44714 -1.91118,60.42428 -2.31648,5.4839 -3.14245,-12.99978 -3.14245,-70.3226 l 0,-52.62756 26.74904,0 26.74903,0 0,18.72433 0,18.72432 -10.69961,0 -10.69962,0 0,-8.02471 0,-8.02471 -5.3498,0 -5.34981,0 0,14.04325 0,14.04324 16.04942,0 16.04942,0 0,10.69962 0,10.69961 -16.04942,0 -16.04942,0 0,5.34981 0,5.34981 16.04942,0 16.04942,0 -0.13227,19.05869 c -0.0728,10.48227 -0.53954,22.36887 -1.03731,26.41467 -0.81033,6.58608 -1.00376,6.93604 -1.84818,3.34363 z m -363.89632,-7.98756 c -0.48685,-5.75939 -0.88518,-35.65866 -0.88518,-66.44281 l 0,-55.97119 26.74904,0 26.74903,0 0,26.74904 c 0,14.71197 -0.45139,26.75213 -1.00308,26.75588 -0.5517,0.004 -3.39135,1.45244 -6.31033,3.21926 l -5.30724,3.21239 6.31033,3.0658 6.31032,3.06579 -0.13227,20.79836 c -0.0728,11.4391 -0.54819,24.10855 -1.05655,28.15434 -0.92115,7.33108 -0.92808,7.34022 -2.04824,2.69941 -0.61817,-2.56113 -1.49689,-14.59819 -1.9527,-26.74904 l -0.82877,-22.09246 -7.6066,-4.04005 c -4.18361,-2.22203 -8.01615,-4.44961 -8.51672,-4.95019 -0.50058,-0.50057 3.07285,-2.87424 7.94095,-5.2748 l 8.8511,-4.36467 0,-22.44963 0,-22.44962 -21.28287,0 -21.28288,0 -0.52721,60.5197 c -0.32524,37.33582 -1.05542,61.76402 -1.90608,63.76791 -1.16481,2.74394 -1.51629,1.62257 -2.26405,-7.22342 z m 135.08264,0 c -0.48685,-5.75939 -0.88518,-35.65866 -0.88518,-66.44281 l 0,-55.97119 10.69961,0 10.69962,0 0,40.79228 0,40.79229 8.02471,0 8.02471,0 -0.009,9.69652 c -0.0134,13.53942 -1.52273,28.09569 -2.78086,26.81679 -0.57954,-0.58896 -1.4781,-7.84169 -1.99695,-16.11717 l -0.94334,-15.04634 -7.83437,0 -7.83435,0 0,-40.79228 0,-40.79228 -5.23345,0 -5.23345,0 -0.52721,60.5197 c -0.32524,37.33582 -1.05542,61.76402 -1.90608,63.76791 -1.16481,2.74394 -1.5163,1.62257 -2.26405,-7.22342 z m 295.6269,6.6501 c -0.55138,-2.20679 -1.37448,-16.19988 -1.8291,-31.09575 l -0.8266,-27.0834 -5.15829,0 -5.15829,0 0,8.02471 0,8.02471 -10.69962,0 -10.69961,0 0,-35.44247 0,-35.44248 10.69961,0 10.69962,0 0,8.02471 0,8.02472 5.3498,0 5.34981,0 0,-13.37452 0,-13.37452 -21.27451,0 -21.2745,0 -0.54677,55.16989 c -0.32981,33.27927 -1.08944,56.45874 -1.91445,58.4181 -2.29413,5.4485 -3.13804,-12.92365 -3.13804,-68.31642 l 0,-50.62138 26.74904,0 26.74904,0 0,18.72433 0,18.72432 -10.69962,0 -10.69961,0 0,-8.02471 0,-8.02471 -5.34981,0 -5.34981,0 0,30.09267 0,30.09267 5.34981,0 5.34981,0 0,-8.02471 0,-8.02472 10.69961,0 10.69962,0 -0.13228,26.41468 c -0.0728,14.52807 -0.53954,29.72486 -1.03731,33.77065 -0.8217,6.67857 -0.99737,6.98649 -1.90755,3.34363 z m 221.96697,-6.6501 c -0.48684,-5.75939 -0.88518,-35.65866 -0.88518,-66.44281 l 0,-55.97119 10.69962,0 10.69961,0 0,40.79228 0,40.79229 8.02471,0 8.02472,0 -0.009,9.69652 c -0.0134,13.53942 -1.52273,28.09569 -2.78085,26.81679 -0.57955,-0.58896 -1.4781,-7.84169 -1.99695,-16.11717 l -0.94335,-15.04634 -7.83436,0 -7.83435,0 0,-40.79228 0,-40.79228 -5.23345,0 -5.23345,0 -0.52721,60.5197 c -0.32524,37.33582 -1.05543,61.76402 -1.90609,63.76791 -1.16481,2.74394 -1.51629,1.62257 -2.26405,-7.22342 z m 165.8533,5.31265 c -0.5738,-2.20679 -1.38728,-19.51007 -1.80774,-38.45174 l -0.76446,-34.43938 -5.17966,0 -5.17965,0 0,16.04942 0,16.04942 -10.69962,0 -10.69961,0 0,-35.44247 0,-35.44248 10.69961,0 10.69962,0 0,8.02471 0,8.02472 5.34981,0 5.3498,0 0,-13.37452 0,-13.37452 -21.28366,0 -21.28366,0 -0.52544,54.50116 c -0.32032,33.22557 -1.06409,55.76916 -1.9053,57.74938 -2.30237,5.41984 -3.1502,-12.78657 -3.1502,-67.6477 l 0,-49.95265 26.74903,0 26.74904,0 0,18.72433 0,18.72432 -10.69961,0 -10.69962,0 0,-8.02471 0,-8.02471 -5.34981,0 -5.3498,0 0,30.09267 0,30.09267 5.3498,0 5.34981,0 0,-16.04943 0,-16.04942 10.69962,0 10.69961,0 -0.13227,33.77066 c -0.0728,18.57386 -0.53955,37.08085 -1.03732,41.12664 -0.829,6.73793 -0.99269,7.01886 -1.94832,3.34363 z m -321.07769,-4.68108 c -0.63681,-1.839 -1.43838,-29.07286 -1.78126,-60.51969 l -0.62343,-57.17607 -5.21879,0 -5.21879,0 0,32.76757 0,32.76757 -10.69962,0 -10.69961,0 0,-32.76757 0,-32.76757 -5.23531,0 -5.23529,0 -0.57954,55.16989 c -0.32164,30.62021 -1.16259,56.95532 -1.88983,59.18224 -2.19139,6.71043 -3.09257,-13.40086 -3.10144,-69.21313 l -0.008,-50.48881 10.69962,0 10.69961,0 0,32.76757 0,32.76757 5.34981,0 5.34981,0 0,-32.76757 0,-32.76757 10.69961,0 10.69962,0 -0.13228,55.83862 c -0.13587,57.35875 -0.87686,73.55446 -3.07488,67.20695 z m 52.24149,-8.69343 c -0.62881,-6.88688 -2.98627,-16.65703 -6.61567,-27.41777 l -5.63874,-16.71815 -0.83043,20.06178 c -0.45672,11.03398 -0.90811,22.13818 -1.00308,24.67599 -0.1341,3.58337 -0.53047,4.25641 -1.7742,3.01268 -1.13246,-1.13246 -1.76397,-11.88505 -2.15615,-36.71306 -0.30504,-19.31133 -0.32042,-36.61615 -0.0341,-38.45515 0.34205,-2.19747 4.13769,7.43023 11.07284,28.08649 10.85929,32.34423 11.39173,35.25538 8.92832,48.81699 -0.89093,4.90481 -1.05303,4.45982 -1.94872,-5.3498 z m -684.776254,-1.3003 c -0.486846,-5.75939 -0.885179,-33.55217 -0.885179,-61.76174 l 0,-51.2901 26.749037,0 26.749038,0 0,34.74811 0,34.74812 -6.348443,3.22637 -6.348429,3.22636 6.348429,3.08431 6.348443,3.08431 -0.132274,13.44238 c -0.07276,7.3933 -0.560994,16.75256 -1.084995,20.79835 -0.929515,7.17672 -0.975698,7.2419 -1.895022,2.67491 -0.518262,-2.5746 -1.384182,-11.30147 -1.924259,-19.39305 l -0.981984,-14.71197 -7.606597,-4.04006 c -4.183616,-2.22203 -8.016151,-4.44961 -8.516719,-4.95019 -0.500582,-0.50057 3.072849,-2.87424 7.940946,-5.2748 l 8.851096,-4.36467 0,-30.47434 0,-30.47433 -21.275609,0 -21.275623,0 -0.544155,55.83861 c -0.329254,33.78714 -1.084861,57.12138 -1.913345,59.08683 -1.153365,2.73623 -1.5087,1.59767 -2.254356,-7.22341 z m 16.034777,-1.51071 c -0.478794,-5.6641 -0.870534,-14.76243 -0.870534,-20.21851 l 0,-9.92015 10.698291,5.77523 c 10.631552,5.73918 10.698251,5.80859 10.690119,11.12501 -0.01431,9.37646 -1.670999,23.35044 -2.693333,22.71861 -0.542886,-0.33552 -1.409822,-6.24896 -1.926546,-13.14097 l -0.93948,-12.53093 -4.616269,-2.20134 c -2.538951,-1.21074 -4.808139,-2.20135 -5.042635,-2.20135 -0.234508,0 -0.844574,6.46845 -1.355694,14.37436 -0.511134,7.90589 -1.411748,14.85676 -2.001363,15.44637 -0.589616,0.58962 -1.463761,-3.56223 -1.942556,-9.22633 z m 383.848687,0 c -0.47879,-5.6641 -0.87053,-28.26316 -0.87053,-50.22014 l 0,-39.92176 -8.02471,0 -8.02471,0 0,-10.69961 0,-10.69962 26.74904,0 26.74903,0 0,10.69962 0,10.69961 -8.02471,0 -8.02471,0 -0.009,41.12665 c -0.0107,45.2654 -0.83694,60.20785 -3.19949,57.84631 -1.00333,-1.0029 -1.62051,-17.84671 -1.93821,-52.89711 l -0.46627,-51.42566 8.15647,0 8.15648,0 0,-5.3498 0,-5.34981 -21.39923,0 -21.39923,0 0,5.34981 0,5.3498 8.14589,0 8.14589,0 -0.45554,51.42602 c -0.31022,35.01961 -0.92453,51.89467 -1.92555,52.89503 -1.06825,1.06754 -1.70793,-1.34554 -2.34055,-8.82934 z m -249.63658,-35.3213 0,-10.71454 10.69962,5.37966 c 10.68713,5.37339 10.69961,5.38588 10.69961,10.71454 l 0,5.33488 -10.69961,0 -10.69962,0 0,-10.71454 z m 16.04942,4.27499 c 0,-0.94702 -8.37149,-5.59751 -10.07626,-5.59751 -0.34285,0 -0.62335,1.50463 -0.62335,3.34363 0,3.00926 0.53498,3.34363 5.34981,3.34363 2.94239,0 5.3498,-0.49038 5.3498,-1.08975 z m 568.41705,-29.00292 0,-35.44248 10.69961,0 10.69962,0 0,35.44248 0,35.44247 -10.69962,0 -10.69961,0 0,-35.44247 z m 16.04942,0 0,-30.09267 -5.34981,0 -5.3498,0 0,30.09267 0,30.09267 5.3498,0 5.34981,0 0,-30.09267 z m 100.30889,0 0,-35.44248 10.69962,0 10.69961,0 0,35.44248 0,35.44247 -10.69961,0 -10.69962,0 0,-35.44247 z m 16.04943,0 0,-30.09267 -5.34981,0 -5.34981,0 0,30.09267 0,30.09267 5.34981,0 5.34981,0 0,-30.09267 z m -851.956851,-8.69344 0,-26.74904 10.699615,0 10.699615,0 0,21.27834 0,21.27835 -9.967895,5.47069 c -5.482335,3.00889 -10.297162,5.4707 -10.699615,5.4707 -0.402439,0 -0.73172,-12.03707 -0.73172,-26.74904 z m 16.049423,-4.03953 0,-17.3597 -5.349808,0 -5.349807,0 0,20.08896 0,20.08897 5.349807,-2.72928 5.349808,-2.72927 0,-17.35968 z m 119.033218,-3.97025 0,-18.73926 10.69962,0 10.69961,0 0,13.3596 0,13.35959 -10.69961,5.37966 -10.69962,5.37966 0,-18.73925 z m 16.04942,-4.05446 0,-9.33499 -5.3498,0 -5.34981,0 0,12.06425 0,12.06425 5.34981,-2.72927 5.3498,-2.72927 0,-9.33497 z"
       id="path3810"
       inkscape:connector-curvature="0" />
  </g>
</svg>
