<?xml version="1.0" encoding="UTF-8" standalone="no"?>
<!-- Created with Inkscape (http://www.inkscape.org/) -->

<svg
   xmlns:dc="http://purl.org/dc/elements/1.1/"
   xmlns:cc="http://creativecommons.org/ns#"
   xmlns:rdf="http://www.w3.org/1999/02/22-rdf-syntax-ns#"
   xmlns:svg="http://www.w3.org/2000/svg"
   xmlns="http://www.w3.org/2000/svg"
   xmlns:sodipodi="http://sodipodi.sourceforge.net/DTD/sodipodi-0.dtd"
   xmlns:inkscape="http://www.inkscape.org/namespaces/inkscape"
   width="297mm"
   height="210mm"
   id="svg2985"
   version="1.1"
   inkscape:version="0.92.1 r15371"
   sodipodi:docname="RebelTechnologyLogo.svg"
   inkscape:export-filename="/home/mars/devel/RebelTechnology/drawings/DiscourseLogo.png"
   inkscape:export-xdpi="90"
   inkscape:export-ydpi="90">
  <defs
     id="defs2987" />
  <sodipodi:namedview
     inkscape:document-units="mm"
     pagecolor="#ffffff"
     bordercolor="#666666"
     borderopacity="1.0"
     inkscape:pageopacity="0.0"
     inkscape:pageshadow="2"
     inkscape:zoom="0.9276355"
     inkscape:cx="115.1936"
     inkscape:cy="459.06224"
     inkscape:current-layer="layer1"
     id="namedview2989"
     showgrid="false"
     inkscape:window-width="1920"
     inkscape:window-height="1043"
     inkscape:window-x="0"
     inkscape:window-y="1050"
     inkscape:window-maximized="1"
     units="px" />
  <metadata
     id="metadata2991">
    <rdf:RDF>
      <cc:Work
         rdf:about="">
        <dc:format>image/svg+xml</dc:format>
        <dc:type
           rdf:resource="http://purl.org/dc/dcmitype/StillImage" />
        <dc:title></dc:title>
      </cc:Work>
    </rdf:RDF>
  </metadata>
  <g
     inkscape:label="Layer 1"
     inkscape:groupmode="layer"
     id="layer1">
    <path
       style="fill:#000000;stroke-width:0.16515309"
       d="m 919.66247,444.14468 c -0.38573,-4.53173 -0.70164,-14.73871 -0.70164,-22.68219 v -14.44273 h 12.51432 12.51431 v -4.17145 -4.17141 h -12.51431 -12.51432 v -27.63581 -27.63578 h 8.34287 8.34291 v 19.29292 19.29291 h 4.1714 4.17145 v -19.29291 -19.29292 h 8.34286 8.34286 l -0.01,39.88938 c -0.01,43.1736 -0.61792,56.13625 -2.43775,51.80913 -0.64124,-1.52441 -1.2365,-19.46547 -1.49423,-45.03053 l -0.4287,-42.49652 h -4.07325 -4.07334 v 19.29291 19.29292 h -8.34287 -8.34285 v -19.29292 -19.29291 h -4.17145 -4.17146 v 23.46432 23.46437 h 12.51432 12.51431 v 8.34285 8.34291 h -12.36127 -12.36158 l -0.61977,17.4679 c -0.75602,21.30795 -2.09866,27.89681 -3.15557,15.48556 z m -249.24355,-1.04289 c -0.38572,-4.53169 -0.70163,-28.83706 -0.70163,-54.01185 V 343.3176 l 8.0822,0.30452 8.08215,0.30452 4.36111,12.51431 4.36115,12.51432 0.0708,-12.77502 0.0708,-12.77502 h 8.34286 8.34291 l -0.005,42.49656 c -0.004,23.37305 -0.31963,45.7815 -0.70168,49.79654 -1.54949,16.2922 -2.73278,0.12936 -3.18749,-43.53941 l -0.46458,-44.58224 h -4.05639 -4.0564 l -0.28091,22.64074 -0.28092,22.64072 -7.72446,-22.64072 -7.72451,-22.64074 h -4.44808 -4.44807 l -0.43341,48.7537 c -0.24929,28.06559 -0.87109,50.08128 -1.46512,51.88226 -0.91678,2.77971 -1.11007,2.2098 -1.73347,-5.11095 z m -40.69435,-1.25232 c -0.37345,-4.41654 -0.67878,-14.05997 -0.67878,-21.42987 v -13.39984 h 8.34286 8.34291 l -0.005,7.03932 c -0.01,9.90655 -1.18032,21.15144 -2.13894,20.55901 -0.44427,-0.2743 -1.14175,-5.65776 -1.55043,-11.96296 l -0.74312,-11.46391 h -3.87945 -3.87948 l -0.59371,18.37306 c -0.64299,19.89918 -2.10017,25.46817 -3.21453,12.28519 z m 93.86879,0.13502 c -0.37959,-4.49079 -0.6902,-28.50826 -0.6902,-53.37216 v -45.20706 h 20.85721 20.85717 l -0.005,40.41084 c -0.01,43.67656 -0.61343,56.6664 -2.43897,52.3305 -0.64398,-1.52922 -1.23604,-19.59059 -1.49334,-45.55195 l -0.42634,-43.01794 h -16.50003 -16.50002 l -0.40603,48.7537 c -0.25213,30.29561 -0.8141,49.71259 -1.484,51.28644 -0.91173,2.14187 -1.18462,1.27267 -1.76832,-5.63237 z m 90.72884,0 c -0.37959,-4.49079 -0.6902,-28.50826 -0.6902,-53.37216 v -45.20706 h 20.85717 20.85722 l -0.005,40.41084 c -0.01,43.67656 -0.61344,56.6664 -2.43897,52.3305 -0.64399,-1.52922 -1.23604,-19.59059 -1.49334,-45.55195 l -0.42634,-43.01794 h -16.49998 -16.50003 l -0.40604,48.7537 c -0.25211,30.29561 -0.81408,49.71259 -1.48403,51.28644 -0.91169,2.14187 -1.18463,1.27267 -1.76828,-5.63237 z m -559.93049,3.09963 c -0.40461,-1.72072 -1.052,-10.05055 -1.439,-18.51079 l -0.70362,-15.38216 h -12.35223 -12.35217 v -8.34291 -8.34285 h 12.51435 12.51431 v -4.17146 -4.1714 h -12.51431 -12.51435 v -15.12151 -15.12146 h 8.3429 8.34286 v 6.25718 6.25714 h 4.17145 4.17145 V 358.0053 347.57672 H 235.9823 219.39124 l -0.42019,44.58225 c -0.25589,27.13649 -0.83897,45.57338 -1.49019,47.11503 -1.80626,4.27598 -2.4503,-10.13643 -2.4503,-54.83312 v -41.03561 h 20.85722 20.85717 v 14.60003 14.60004 h -8.34286 -8.34286 v -6.25717 -6.25713 h -4.17145 -4.17145 v 10.95 10.95005 h 12.5143 12.51432 v 8.34286 8.3429 h -12.51432 -12.5143 v 4.17141 4.17146 h 12.5143 12.51432 l -0.10293,14.86075 c -0.0567,8.17341 -0.42066,17.44183 -0.80885,20.5965 -0.6318,5.1354 -0.78265,5.40829 -1.44108,2.60715 z m 105.32888,0 c -0.40461,-1.72072 -1.05204,-10.05055 -1.43905,-18.51079 l -0.70361,-15.38216 h -12.35218 -12.35219 v -8.34291 -8.34285 h 12.51432 12.51431 v -4.17146 -4.1714 h -12.51431 -12.51432 v -15.12151 -15.12146 h 8.34287 8.34291 v 6.25718 6.25714 h 4.17139 4.17146 v -10.4286 -10.42858 h -16.59106 -16.59105 l -0.4202,44.58225 c -0.25589,27.13649 -0.83901,45.57338 -1.49022,47.11503 -1.80624,4.27598 -2.45027,-10.13643 -2.45027,-54.83312 v -41.03561 h 20.85718 20.85722 v 14.60003 14.60004 h -8.34291 -8.34286 v -6.25717 -6.25713 h -4.17145 -4.17141 v 10.95 10.95005 h 12.51431 12.51432 v 8.34286 8.3429 h -12.51432 -12.51431 v 4.17141 4.17146 h 12.51431 12.51432 l -0.10293,14.86075 c -0.0567,8.17341 -0.42067,17.44183 -0.8088,20.5965 -0.63186,5.1354 -0.7827,5.40829 -1.44109,2.60715 z m 191.88619,0 c -0.40461,-1.72072 -1.052,-10.05055 -1.43901,-18.51079 l -0.70361,-15.38216 h -12.35219 -12.35218 v -8.34291 -8.34285 h 12.51431 12.51432 v -4.17146 -4.1714 H 537.2741 524.75979 v -15.12151 -15.12146 h 8.34287 8.3429 v 6.25718 6.25714 h 4.1714 4.17146 V 358.0053 347.57672 H 533.19737 516.6063 l -0.42019,44.58225 c -0.25589,27.13649 -0.83902,45.57338 -1.49023,47.11503 -1.80622,4.27598 -2.45026,-10.13643 -2.45026,-54.83312 v -41.03561 h 20.85717 20.85722 v 14.60003 14.60004 h -8.3429 -8.34286 v -6.25717 -6.25713 h -4.17146 -4.17145 v 10.95 10.95005 h 12.51436 12.51431 v 8.34286 8.3429 H 541.4457 528.93134 v 4.17141 4.17146 h 12.51436 12.51431 l -0.10292,14.86075 c -0.0567,8.17341 -0.42067,17.44183 -0.80881,20.5965 -0.63185,5.1354 -0.7827,5.40829 -1.44112,2.60715 z M 267.8636,438.85593 c -0.37959,-4.4908 -0.69021,-27.80437 -0.69021,-51.8079 v -43.64276 h 20.85718 20.85722 v 20.85722 c 0,11.47142 -0.35221,20.85958 -0.78214,20.86251 -0.43011,0.003 -2.64439,1.13254 -4.92039,2.51016 l -4.13826,2.50485 4.92039,2.39048 4.9204,2.39053 -0.1034,16.21723 c -0.0567,8.91951 -0.42729,18.7983 -0.82382,21.95298 -0.71825,5.71631 -0.72364,5.72343 -1.59708,2.1048 -0.48199,-1.99697 -1.16719,-11.38271 -1.52262,-20.85717 l -0.6462,-17.22631 -5.93112,-3.15019 c -3.26213,-1.73257 -6.25053,-3.46949 -6.64084,-3.85984 -0.39045,-0.39046 2.39601,-2.24111 6.19188,-4.11291 l 6.90151,-3.4033 v -17.50482 -17.50477 h -16.59503 -16.59502 l -0.41123,47.18939 c -0.25353,29.11212 -0.82296,48.15967 -1.48626,49.72218 -0.90823,2.13955 -1.18231,1.26517 -1.76534,-5.63236 z m 105.32884,0 c -0.3796,-4.4908 -0.69021,-27.80437 -0.69021,-51.8079 v -43.64276 h 8.34286 8.3429 v 31.80722 31.80723 h 6.25719 6.25713 l -0.005,7.56073 c -0.01,10.55719 -1.18731,21.90723 -2.1683,20.91004 -0.45183,-0.45937 -1.15256,-6.11445 -1.55713,-12.56713 l -0.73553,-11.73219 h -6.10875 -6.10874 v -31.80722 -31.80723 h -4.08071 -4.08071 l -0.41122,47.18939 c -0.25354,29.11212 -0.82297,48.15967 -1.48622,49.72218 -0.90829,2.13955 -1.18235,1.26517 -1.76539,-5.63236 z m 230.51104,5.1853 c -0.4301,-1.72072 -1.07173,-12.63163 -1.4262,-24.24649 l -0.64451,-21.11789 h -4.02212 -4.02212 v 6.25714 6.25718 h -8.34285 -8.34291 V 383.5554 355.91958 h 8.34291 8.34285 v 6.25718 6.25714 h 4.17145 4.17141 v -10.4286 -10.42858 h -16.5885 -16.58851 l -0.42633,43.01794 c -0.25732,25.94909 -0.84945,44.02296 -1.49274,45.55072 -1.78884,4.24841 -2.44685,-10.07703 -2.44685,-53.26876 v -39.47135 h 20.85722 20.85717 v 14.60003 14.60004 h -8.34287 -8.3429 v -6.25717 -6.25713 h -4.1714 -4.17146 v 23.46436 23.46432 h 4.17146 4.1714 v -6.25713 -6.25718 h 8.3429 8.34287 l -0.10292,20.5965 c -0.0567,11.32804 -0.42067,23.17754 -0.80886,26.33218 -0.64072,5.20754 -0.77769,5.44762 -1.4874,2.60714 z m 173.07574,-5.1853 c -0.37959,-4.4908 -0.69021,-27.80437 -0.69021,-51.8079 v -43.64276 h 8.34291 8.34287 v 31.80722 31.80723 h 6.25713 6.25717 l -0.005,7.56073 c -0.01,10.55719 -1.18735,21.90723 -2.16834,20.91004 -0.45183,-0.45937 -1.15252,-6.11445 -1.55709,-12.56713 l -0.73558,-11.73219 h -6.10874 -6.10873 v -31.80722 -31.80723 h -4.08071 -4.08071 l -0.41124,47.18939 c -0.25352,29.11212 -0.82292,48.15967 -1.48621,49.72218 -0.90828,2.13955 -1.18231,1.26517 -1.76539,-5.63236 z m 129.32185,4.14246 c -0.44759,-1.72072 -1.0817,-15.21272 -1.40954,-29.9822 l -0.59607,-26.85364 h -4.03879 -4.03878 v 12.5143 12.51432 h -8.34286 -8.34285 V 383.5554 355.91958 h 8.34285 8.34286 v 6.25718 6.25714 h 4.17146 4.17144 v -10.4286 -10.42858 h -16.59563 -16.59568 l -0.40981,42.49652 c -0.24975,25.90721 -0.82972,43.48525 -1.48565,45.02931 -1.79523,4.22602 -2.4563,-9.97015 -2.4563,-52.7474 v -38.94988 h 20.85717 20.85722 v 14.60003 14.60004 h -8.34291 -8.34286 v -6.25717 -6.25713 h -4.17145 -4.17145 v 23.46436 23.46432 h 4.17145 4.17145 v -12.51431 -12.51432 h 8.34286 8.34291 l -0.10293,26.33223 c -0.0567,14.48271 -0.42066,28.91325 -0.80885,32.06793 -0.64639,5.25381 -0.77401,5.47283 -1.51917,2.60714 z m -250.35593,-3.65002 c -0.49659,-1.43391 -1.12159,-22.66917 -1.38896,-47.1894 l -0.4861,-44.58225 h -4.06928 -4.06924 v 25.55004 25.55009 h -8.34291 -8.34286 v -25.55009 -25.55004 h -4.08217 -4.08217 l -0.45183,43.01794 c -0.2507,23.87574 -0.90649,44.41016 -1.47357,46.14655 -1.70868,5.23238 -2.4114,-10.44912 -2.41829,-53.96799 l -0.005,-39.36795 h 8.34286 8.3429 v 25.55005 25.55009 h 4.17141 4.17146 v -25.55009 -25.55005 h 8.34286 8.3429 l -0.10292,43.53941 c -0.10576,44.72469 -0.68369,57.35307 -2.39757,52.40369 z m 40.73458,-6.77856 c -0.49031,-5.36996 -2.3285,-12.98809 -5.15848,-21.37864 l -4.39676,-13.03578 -0.64748,15.64292 c -0.35599,8.60358 -0.7081,17.26196 -0.78217,19.24075 -0.10434,2.79411 -0.41359,3.31887 -1.38339,2.34913 -0.88303,-0.88303 -1.37541,-9.2672 -1.68121,-28.62654 -0.23795,-15.05772 -0.24976,-28.55094 -0.0283,-29.98485 0.26675,-1.71345 3.22633,5.79359 8.63392,21.90005 8.46736,25.21999 8.88255,27.48989 6.96173,38.06436 -0.69468,3.82449 -0.82107,3.47752 -1.5195,-4.1714 z m -533.945,-1.0139 c -0.3796,-4.49081 -0.69021,-26.16188 -0.69021,-48.15787 v -39.99277 h 20.85722 20.85722 v 27.09438 27.09438 l -4.95014,2.51569 -4.9501,2.51569 4.9501,2.40499 4.95014,2.40493 -0.10293,10.48151 c -0.0567,5.76484 -0.43719,13.0626 -0.84601,16.21722 -0.72476,5.59597 -0.76079,5.64677 -1.47762,2.08574 -0.40414,-2.0075 -1.07929,-8.81216 -1.50043,-15.12146 l -0.76565,-11.47147 -5.93117,-3.15019 c -3.26209,-1.73258 -6.25048,-3.4695 -6.64079,-3.85981 -0.39045,-0.39044 2.39601,-2.24115 6.19183,-4.11296 l 6.90154,-3.40329 v -23.76195 -23.76195 h -16.58934 -16.58941 l -0.42445,43.5394 c -0.25684,26.34508 -0.84591,44.53962 -1.49188,46.07215 -0.89931,2.13351 -1.17641,1.24576 -1.75783,-5.63236 z m 12.50293,-1.17796 c -0.37345,-4.41649 -0.67878,-11.5108 -0.67878,-15.76512 v -7.73508 l 8.34182,4.50317 c 8.28979,4.47504 8.34182,4.52914 8.33549,8.67453 -0.01,7.31121 -1.30293,18.2072 -2.10012,17.71454 -0.42351,-0.26156 -1.09926,-4.87253 -1.50218,-10.24649 l -0.73255,-9.77081 -3.59947,-1.71648 c -1.97974,-0.94407 -3.74909,-1.71647 -3.93195,-1.71647 -0.18271,0 -0.65852,5.04371 -1.05704,11.20821 -0.39849,6.1645 -1.10082,11.58436 -1.56054,12.04412 -0.45985,0.45985 -1.14137,-2.77763 -1.51468,-7.19412 z m 299.30079,0 c -0.37346,-4.41649 -0.67878,-22.03782 -0.67878,-39.15848 v -31.12843 h -6.25718 -6.25714 v -8.34291 -8.34286 h 20.85718 20.85722 v 8.34286 8.34291 h -6.25719 -6.25713 l -0.005,32.06793 c -0.01,35.29508 -0.65257,46.94624 -2.49477,45.10489 -0.78232,-0.78199 -1.26356,-13.91573 -1.51129,-41.2458 l -0.36354,-40.09848 h 6.35987 6.35991 v -4.17145 -4.17141 h -16.68576 -16.68577 v 4.17141 4.17145 h 6.35166 6.35165 l -0.35504,40.09877 c -0.24173,27.30603 -0.7209,40.46414 -1.50142,41.24415 -0.83298,0.83241 -1.33173,-1.04917 -1.82502,-6.88455 z M 279.68771,402.8367 v -8.35452 l 8.34286,4.19472 c 8.33318,4.18983 8.3429,4.19955 8.3429,8.35452 v 4.1598 h -8.3429 -8.34286 z m 12.5143,3.33338 c 0,-0.73846 -6.52756,-4.36461 -7.85684,-4.36461 -0.26722,0 -0.48601,1.17325 -0.48601,2.60714 0,2.34644 0.41689,2.60715 4.17141,2.60715 2.29431,0 4.17144,-0.38242 4.17144,-0.84968 z m 443.21545,-22.61464 v -27.63581 h 8.34291 8.34287 v 27.63581 27.63578 h -8.34287 -8.34291 z m 12.51437,0 v -23.46435 h -4.17146 -4.17145 v 23.46435 23.46432 h 4.17145 4.17146 z m 78.21448,0 v -27.63581 h 8.34286 8.3429 v 27.63581 27.63578 h -8.3429 -8.34286 z m 12.51432,0 v -23.46435 h -4.17146 -4.17145 v 23.46435 23.46432 h 4.17145 4.17146 z m -664.30176,-6.77859 v -20.85722 h 8.34286 8.34286 v 16.59148 16.59153 l -7.7723,4.26569 c -4.2748,2.34615 -8.02907,4.26569 -8.3429,4.26569 -0.31397,0 -0.57052,-9.38575 -0.57052,-20.85717 z m 12.51431,-3.14977 v -13.53599 h -4.17145 -4.17146 v 15.66407 15.66412 l 4.17146,-2.12812 4.17145,-2.12812 z m 92.81453,-3.09575 v -14.6117 h 8.34286 8.3429 v 10.41697 10.41697 l -8.3429,4.19468 -8.34286,4.19473 z m 12.5143,-3.16142 v -7.27882 h -4.17144 -4.17141 v 9.40694 9.4069 l 4.17141,-2.12808 4.17144,-2.12812 z"
       id="path3810"
       inkscape:connector-curvature="0" />
  </g>
</svg>
