<?xml version="1.0" encoding="UTF-8" standalone="no"?>
<!-- Created with Inkscape (http://www.inkscape.org/) -->

<svg
   xmlns:dc="http://purl.org/dc/elements/1.1/"
   xmlns:cc="http://creativecommons.org/ns#"
   xmlns:rdf="http://www.w3.org/1999/02/22-rdf-syntax-ns#"
   xmlns:svg="http://www.w3.org/2000/svg"
   xmlns="http://www.w3.org/2000/svg"
   xmlns:sodipodi="http://sodipodi.sourceforge.net/DTD/sodipodi-0.dtd"
   xmlns:inkscape="http://www.inkscape.org/namespaces/inkscape"
   sodipodi:docname="ShippingStencil.dxf"
   inkscape:version="0.48.2 r9819"
   version="1.1"
   id="svg2985"
   height="210mm"
   width="297mm">
  <defs
     id="defs2987" />
  <sodipodi:namedview
     inkscape:document-units="mm"
     pagecolor="#ffffff"
     bordercolor="#666666"
     borderopacity="1.0"
     inkscape:pageopacity="0.0"
     inkscape:pageshadow="2"
     inkscape:zoom="0.78081482"
     inkscape:cx="526.18109"
     inkscape:cy="372.04724"
     inkscape:current-layer="layer1"
     id="namedview2989"
     showgrid="false"
     inkscape:window-width="1229"
     inkscape:window-height="778"
     inkscape:window-x="20"
     inkscape:window-y="20"
     inkscape:window-maximized="0" />
  <metadata
     id="metadata2991">
    <rdf:RDF>
      <cc:Work
         rdf:about="">
        <dc:format>image/svg+xml</dc:format>
        <dc:type
           rdf:resource="http://purl.org/dc/dcmitype/StillImage" />
        <dc:title></dc:title>
      </cc:Work>
    </rdf:RDF>
  </metadata>
  <g
     inkscape:label="Layer 1"
     inkscape:groupmode="layer"
     id="layer1">
    <path
       style="fill:none;stroke:#000000;stroke-width:0.35433075;stroke-miterlimit:4;stroke-opacity:1;stroke-dasharray:none"
       d="m 667.97485,608.42036 c -0.2296,-2.69134 -0.41746,-8.75316 -0.41746,-13.47071 l 0,-8.57736 7.44572,0 7.44572,0 0,-2.47737 0,-2.47737 -7.44572,0 -7.44572,0 0,-16.41259 0,-16.41259 4.96381,0 4.96382,0 0,11.45785 0,11.45784 2.48191,0 2.4819,0 0,-11.45784 0,-11.45785 4.96382,0 4.96381,0 -0.004,23.68987 c -0.005,25.64032 -0.36767,33.33869 -1.45042,30.76886 -0.38152,-0.90532 -0.73569,-11.56033 -0.88903,-26.74313 l -0.25488,-25.23823 -2.42353,0 -2.42352,0 0,11.45785 0,11.45785 -4.96381,0 -4.96382,0 0,-11.45785 0,-11.45785 -2.48191,0 -2.4819,0 0,13.93522 0,13.93522 7.44572,0 7.44572,0 0,4.95474 0,4.95475 -7.35483,0 -7.35484,0 -0.36875,10.37399 c -0.44981,12.65455 -1.24865,16.56761 -1.87747,9.1967 z M 519.6809,607.80102 c -0.2296,-2.69135 -0.41745,-17.12602 -0.41745,-32.07705 l 0,-27.1837 4.80869,0.18089 4.8087,0.18088 2.59476,7.43212 2.59476,7.43212 0.0423,-7.58696 0.0423,-7.58695 4.96381,0 4.96382,0 -0.004,25.23823 c -0.002,13.88102 -0.1903,27.18916 -0.41749,29.57363 -0.92191,9.67575 -1.62592,0.0768 -1.89648,-25.85757 l -0.2763,-26.47692 -2.41345,0 -2.41346,0 -0.16722,13.44609 -0.16722,13.44609 -4.59589,-13.44609 -4.59589,-13.44609 -2.6465,0 -2.6465,0 -0.25777,28.95429 c -0.1484,16.66784 -0.51829,29.74272 -0.87171,30.81231 -0.54547,1.65085 -0.66049,1.31239 -1.03139,-3.03532 z m -24.21218,-0.74377 c -0.22213,-2.62291 -0.40387,-8.35003 -0.40387,-12.72694 l 0,-7.95802 4.96382,0 4.96381,0 -0.004,4.18057 c -0.006,5.88338 -0.70226,12.56162 -1.2726,12.20978 -0.26422,-0.163 -0.67934,-3.3601 -0.92247,-7.10467 l -0.44215,-6.8083 -2.30819,0 -2.3082,0 -0.35323,10.91156 c -0.38256,11.8179 -1.24956,15.12527 -1.91258,7.29602 z m 55.8497,0.0802 c -0.22586,-2.66704 -0.41066,-16.93076 -0.41066,-31.69714 l 0,-26.84798 12.40954,0 12.40953,0 -0.004,23.99954 c -0.005,25.93904 -0.36498,33.65355 -1.45113,31.07854 -0.38316,-0.90822 -0.73542,-11.63464 -0.8885,-27.05281 l -0.25366,-25.5479 -9.81712,0 -9.81711,0 -0.2415,28.95429 c -0.15008,17.99223 -0.48436,29.52376 -0.88295,30.45846 -0.54245,1.27203 -0.70482,0.75582 -1.0521,-3.345 z m 53.98148,0 c -0.22586,-2.66704 -0.41066,-16.93076 -0.41066,-31.69714 l 0,-26.84798 12.40953,0 12.40954,0 -0.004,23.99954 c -0.005,25.93904 -0.36498,33.65355 -1.45113,31.07854 -0.38316,-0.90822 -0.73542,-11.63464 -0.88851,-27.05281 l -0.25365,-25.5479 -9.81712,0 -9.81711,0 -0.2415,28.95429 c -0.15008,17.99223 -0.48437,29.52376 -0.88296,30.45846 -0.54245,1.27203 -0.70481,0.75582 -1.05209,-3.345 z m -333.14526,1.84082 c -0.24064,-1.02191 -0.62593,-5.96891 -0.85618,-10.99333 l -0.41864,-9.13531 -7.34926,0 -7.34925,0 0,-4.95475 0,-4.95474 7.44572,0 7.44572,0 0,-2.47737 0,-2.47737 -7.44572,0 -7.44572,0 0,-8.98048 0,-8.98047 4.96381,0 4.96381,0 0,3.71606 0,3.71605 2.48191,0 2.48191,0 0,-6.19343 0,-6.19343 -9.87129,0 -9.87127,0 -0.2501,26.47692 c -0.15223,16.11607 -0.49919,27.06551 -0.88665,27.98108 -1.07467,2.53947 -1.45786,-6.01989 -1.45786,-32.56477 l 0,-24.3706 12.40954,0 12.40953,0 0,8.6708 0,8.67081 -4.96381,0 -4.96381,0 0,-3.71606 0,-3.71606 -2.48191,0 -2.48191,0 0,6.5031 0,6.5031 7.44572,0 7.44572,0 0,4.95475 0,4.95474 -7.44572,0 -7.44572,0 0,2.47737 0,2.47737 7.44572,0 7.44572,0 -0.0614,8.82564 c -0.0337,4.8541 -0.25031,10.35851 -0.48124,12.23203 -0.37592,3.04986 -0.46566,3.21191 -0.85741,1.54835 z m 62.66815,0 c -0.24064,-1.02191 -0.62593,-5.96891 -0.85618,-10.99333 l -0.41864,-9.13531 -7.34926,0 -7.34925,0 0,-4.95475 0,-4.95474 7.44572,0 7.44572,0 0,-2.47737 0,-2.47737 -7.44572,0 -7.44572,0 0,-8.98048 0,-8.98047 4.96381,0 4.96382,0 0,3.71606 0,3.71605 2.4819,0 2.48191,0 0,-6.19343 0,-6.19343 -9.87128,0 -9.87128,0 -0.2501,26.47692 c -0.15223,16.11607 -0.49919,27.06551 -0.88664,27.98108 -1.07468,2.53947 -1.45786,-6.01989 -1.45786,-32.56477 l 0,-24.3706 12.40953,0 12.40954,0 0,8.6708 0,8.67081 -4.96382,0 -4.96381,0 0,-3.71606 0,-3.71606 -2.48191,0 -2.48191,0 0,6.5031 0,6.5031 7.44573,0 7.44572,0 0,4.95475 0,4.95474 -7.44572,0 -7.44573,0 0,2.47737 0,2.47737 7.44573,0 7.44572,0 -0.0614,8.82564 c -0.0337,4.8541 -0.25031,10.35851 -0.48123,12.23203 -0.37593,3.04986 -0.46567,3.21191 -0.85742,1.54835 z m 114.16773,0 c -0.24065,-1.02191 -0.62594,-5.96891 -0.85619,-10.99333 l -0.41863,-9.13531 -7.34927,0 -7.34925,0 0,-4.95475 0,-4.95474 7.44572,0 7.44572,0 0,-2.47737 0,-2.47737 -7.44572,0 -7.44572,0 0,-8.98048 0,-8.98047 4.96381,0 4.96382,0 0,3.71606 0,3.71605 2.4819,0 2.48191,0 0,-6.19343 0,-6.19343 -9.87128,0 -9.87128,0 -0.2501,26.47692 c -0.15223,16.11607 -0.49919,27.06551 -0.88664,27.98108 -1.07467,2.53947 -1.45786,-6.01989 -1.45786,-32.56477 l 0,-24.3706 12.40953,0 12.40954,0 0,8.6708 0,8.67081 -4.96382,0 -4.96381,0 0,-3.71606 0,-3.71606 -2.48191,0 -2.4819,0 0,6.5031 0,6.5031 7.44572,0 7.44572,0 0,4.95475 0,4.95474 -7.44572,0 -7.44572,0 0,2.47737 0,2.47737 7.44572,0 7.44572,0 -0.0614,8.82564 c -0.0337,4.8541 -0.2503,10.35851 -0.48123,12.23203 -0.37593,3.04986 -0.46567,3.21191 -0.85741,1.54835 z m -168.82044,-3.69885 c -0.22586,-2.66704 -0.41066,-16.5127 -0.41066,-30.76813 l 0,-25.91896 12.40954,0 12.40953,0 0,12.38686 c 0,6.81278 -0.20941,12.38829 -0.46536,12.39003 -0.25594,0.002 -1.57333,0.67259 -2.92751,1.49077 l -2.46216,1.48758 2.92752,1.4197 2.92751,1.4197 -0.0614,9.63124 c -0.0338,5.29718 -0.25432,11.16411 -0.49016,13.03762 -0.42735,3.39485 -0.43056,3.39908 -0.95023,1.25003 -0.28678,-1.186 -0.69444,-6.76008 -0.90591,-12.38686 l -0.38448,-10.2305 -3.52889,-1.87086 c -1.94088,-1.02897 -3.71889,-2.06051 -3.95112,-2.29232 -0.23223,-0.2318 1.42557,-1.33099 3.684,-2.44264 l 4.10624,-2.02117 0,-10.3959 0,-10.39591 -9.87364,0 -9.87365,0 -0.24458,28.02527 c -0.15089,17.28936 -0.48964,28.60149 -0.88428,29.52945 -0.54039,1.27065 -0.70345,0.75137 -1.05035,-3.345 z m 62.66815,0 c -0.22586,-2.66704 -0.41066,-16.5127 -0.41066,-30.76813 l 0,-25.91896 4.96382,0 4.96381,0 0,18.88996 0,18.88996 3.72286,0 3.72286,0 -0.004,4.49024 c -0.006,6.26979 -0.70643,13.01047 -1.29011,12.41824 -0.26886,-0.27274 -0.68572,-3.63131 -0.92643,-7.46349 l -0.43764,-6.96761 -3.63456,0 -3.63455,0 0,-18.88996 0,-18.88997 -2.42792,0 -2.42793,0 -0.24458,28.02527 c -0.15089,17.28936 -0.48964,28.60149 -0.88428,29.52945 -0.54039,1.27065 -0.70345,0.75137 -1.05035,-3.345 z m 137.14857,3.07951 c -0.25579,-1.02192 -0.63765,-7.50179 -0.84856,-14.39972 l -0.38348,-12.5417 -2.39305,0 -2.39307,0 0,3.71606 0,3.71606 -4.96381,0 -4.96381,0 0,-16.41259 0,-16.41259 4.96381,0 4.96381,0 0,3.71606 0,3.71605 2.48191,0 2.48191,0 0,-6.19343 0,-6.19343 -9.86977,0 -9.86976,0 -0.25366,25.5479 c -0.15301,15.41086 -0.50542,26.14474 -0.88816,27.05207 -1.06431,2.52308 -1.45581,-5.98464 -1.45581,-31.63575 l 0,-23.44159 12.40953,0 12.40954,0 0,8.6708 0,8.67081 -4.96382,0 -4.96381,0 0,-3.71606 0,-3.71606 -2.48191,0 -2.48191,0 0,13.93522 0,13.93521 2.48191,0 2.48191,0 0,-3.71605 0,-3.71606 4.96381,0 4.96382,0 -0.0614,12.23202 c -0.0337,6.72762 -0.25031,13.7649 -0.48123,15.63841 -0.38121,3.09269 -0.46271,3.23528 -0.88497,1.54836 z m 102.97593,-3.07951 c -0.22586,-2.66704 -0.41065,-16.5127 -0.41065,-30.76813 l 0,-25.91896 4.96381,0 4.96381,0 0,18.88996 0,18.88996 3.72286,0 3.72286,0 -0.004,4.49024 c -0.006,6.26979 -0.70643,13.01047 -1.29011,12.41824 -0.26886,-0.27274 -0.68572,-3.63131 -0.92643,-7.46349 l -0.43764,-6.96761 -3.63455,0 -3.63455,0 0,-18.88996 0,-18.88997 -2.42793,0 -2.42792,0 -0.24459,28.02527 c -0.15089,17.28936 -0.48964,28.60149 -0.88428,29.52945 -0.54038,1.27065 -0.70345,0.75137 -1.05035,-3.345 z m 76.94342,2.46017 c -0.2662,-1.02192 -0.6436,-9.03467 -0.83866,-17.80611 l -0.35465,-15.94808 -2.40297,0 -2.40297,0 0,7.43211 0,7.43212 -4.96381,0 -4.96382,0 0,-16.41259 0,-16.41259 4.96382,0 4.96381,0 0,3.71606 0,3.71605 2.48191,0 2.48191,0 0,-6.19343 0,-6.19343 -9.87402,0 -9.87401,0 -0.24377,25.23823 c -0.1486,15.38599 -0.49365,25.82541 -0.88391,26.7424 -1.06812,2.5098 -1.46146,-5.92117 -1.46146,-31.32608 l 0,-23.13192 12.40954,0 12.40953,0 0,8.6708 0,8.67081 -4.96381,0 -4.96381,0 0,-3.71606 0,-3.71606 -2.48191,0 -2.48191,0 0,13.93522 0,13.93521 2.48191,0 2.48191,0 0,-7.43211 0,-7.43212 4.96381,0 4.96381,0 -0.0614,15.63841 c -0.0338,8.60113 -0.25031,17.17129 -0.48124,19.0448 -0.38459,3.12018 -0.46053,3.25027 -0.90387,1.54836 z m -148.95583,-2.1677 c -0.29542,-0.8516 -0.66729,-13.46297 -0.82636,-28.02527 l -0.28923,-26.47692 -2.42112,0 -2.42113,0 0,15.17391 0,15.1739 -4.96381,0 -4.96382,0 0,-15.1739 0,-15.17391 -2.42878,0 -2.42879,0 -0.26885,25.5479 c -0.14922,14.17951 -0.53936,26.37469 -0.87674,27.40593 -1.01664,3.10744 -1.43473,-6.20563 -1.43884,-32.051 l -0.004,-23.3802 4.96381,0 4.96382,0 0,15.17391 0,15.1739 2.4819,0 2.48191,0 0,-15.1739 0,-15.17391 4.96381,0 4.96382,0 -0.0614,25.85757 c -0.063,26.56151 -0.4068,34.06137 -1.42651,31.12199 z m 24.23612,-4.02573 c -0.29173,-3.18915 -1.38541,-7.71349 -3.06918,-12.69653 l -2.61595,-7.74179 -0.38525,9.29014 c -0.21189,5.10958 -0.4213,10.25168 -0.46536,11.42688 -0.0622,1.65938 -0.24609,1.97105 -0.82309,1.3951 -0.52538,-0.52441 -0.81835,-5.50369 -1.00029,-17.00096 -0.14152,-8.94263 -0.14865,-16.9561 -0.0158,-17.80769 0.15868,-1.0176 1.91957,3.44076 5.13696,13.0062 5.03789,14.97786 5.28491,16.32595 4.14207,22.60602 -0.41333,2.2713 -0.48853,2.06524 -0.90406,-2.47737 z m -317.68451,-0.60214 c -0.22586,-2.66704 -0.41066,-15.53723 -0.41066,-28.60043 l 0,-23.75126 12.40954,0 12.40953,0 0,16.09105 0,16.09105 -2.9452,1.49405 -2.94519,1.49406 2.94519,1.42827 2.9452,1.42827 -0.0614,6.22486 c -0.0338,3.42366 -0.26026,7.75772 -0.50336,9.63123 -0.43123,3.32337 -0.45265,3.35356 -0.87915,1.23869 -0.24043,-1.19224 -0.64215,-5.23345 -0.89271,-8.98047 l -0.45557,-6.81278 -3.52888,-1.87085 c -1.94088,-1.02897 -3.71889,-2.06051 -3.95112,-2.29232 -0.23223,-0.2318 1.42557,-1.33099 3.684,-2.44264 l 4.10624,-2.02118 0,-14.11196 0,-14.11196 -9.87027,0 -9.87029,0 -0.25244,25.85757 c -0.15275,15.64604 -0.5033,26.45159 -0.88765,27.36175 -0.53508,1.26708 -0.69993,0.73984 -1.04585,-3.345 z m 7.43892,-0.69957 c -0.22212,-2.62292 -0.40386,-6.83614 -0.40386,-9.36273 l 0,-4.59379 4.9632,2.67437 c 4.93224,2.65769 4.96318,2.68983 4.95941,5.15174 -0.007,4.34202 -0.77522,10.81305 -1.2495,10.52047 -0.25186,-0.15538 -0.65405,-2.89375 -0.89378,-6.08528 l -0.43584,-5.80279 -2.1416,-1.01939 c -1.17789,-0.56067 -2.23062,-1.01939 -2.33941,-1.01939 -0.10879,0 -0.39181,2.99539 -0.62894,6.65643 -0.23712,3.66103 -0.65494,6.87982 -0.92848,7.15286 -0.27353,0.27304 -0.67907,-1.64959 -0.9012,-4.2725 z m 178.07683,0 c -0.22212,-2.62292 -0.40386,-13.08802 -0.40386,-23.25579 l 0,-18.48684 -3.72286,0 -3.72286,0 0,-4.95474 0,-4.95475 12.40953,0 12.40954,0 0,4.95475 0,4.95474 -3.72286,0 -3.72286,0 -0.004,19.0448 c -0.005,20.96136 -0.38827,27.88086 -1.48432,26.78729 -0.46547,-0.46442 -0.75179,-8.2644 -0.89918,-24.49543 l -0.21631,-23.81403 3.78398,0 3.78399,0 0,-2.47737 0,-2.47738 -9.92763,0 -9.92763,0 0,2.47738 0,2.47737 3.77909,0 3.77907,0 -0.21133,23.81419 c -0.14392,16.21678 -0.42891,24.03122 -0.89332,24.49447 -0.49558,0.49435 -0.79234,-0.62309 -1.08583,-4.08866 z m -115.81254,-16.35648 0,-4.96165 4.96382,2.49119 c 4.95802,2.48829 4.96381,2.49408 4.96381,4.96166 l 0,2.47046 -4.96381,0 -4.96382,0 0,-4.96166 z m 7.44572,1.97965 c 0,-0.43854 -3.88374,-2.59208 -4.67462,-2.59208 -0.15906,0 -0.28919,0.69676 -0.28919,1.54836 0,1.39352 0.24819,1.54835 2.48191,1.54835 1.36505,0 2.4819,-0.22708 2.4819,-0.50463 z m 263.70262,-13.43058 0,-16.41259 4.96382,0 4.96381,0 0,16.41259 0,16.41259 -4.96381,0 -4.96382,0 0,-16.41259 z m 7.44572,0 0,-13.93522 -2.4819,0 -2.48191,0 0,13.93522 0,13.93521 2.48191,0 2.4819,0 0,-13.93521 z m 46.53576,0 0,-16.41259 4.96381,0 4.96382,0 0,16.41259 0,16.41259 -4.96382,0 -4.96381,0 0,-16.41259 z m 7.44572,0 0,-13.93522 -2.48191,0 -2.4819,0 0,13.93522 0,13.93521 2.4819,0 2.48191,0 0,-13.93521 z m -395.24369,-4.02573 0,-12.38686 4.96382,0 4.96381,0 0,9.8535 0,9.85352 -4.62435,2.53334 c -2.54339,1.39335 -4.77711,2.53336 -4.96382,2.53336 -0.1867,0 -0.33946,-5.57409 -0.33946,-12.38686 z m 7.44572,-1.87062 0,-8.03887 -2.4819,0 -2.48191,0 0,9.30273 0,9.30274 2.48191,-1.26387 2.4819,-1.26386 0,-8.03887 z m 55.22243,-1.83853 0,-8.67771 4.96382,0 4.96381,0 0,6.18652 0,6.18651 -4.96381,2.4912 -4.96382,2.4912 0,-8.67772 z m 7.44572,-1.87752 0,-4.32282 -2.4819,0 -2.48191,0 0,5.58667 0,5.58668 2.48191,-1.26386 2.4819,-1.26386 0,-4.32281 z"
       id="path3810"
       inkscape:connector-curvature="0" />
    <path
       style="fill:none;stroke:#000000;stroke-width:0.35433072;stroke-linecap:butt;stroke-linejoin:round;stroke-miterlimit:4;stroke-opacity:1;stroke-dasharray:none"
       d="m 515.38496,281.81029 0,0 c -6.45019,0 -11.67909,5.06847 -11.67909,11.32075 l 0,0 c 0,3.00245 1.23048,5.88195 3.42072,8.00499 2.19026,2.12306 5.16089,3.31578 8.25837,3.31578 l 0,0 c 6.45016,0 11.67907,-5.06848 11.67907,-11.32077 l 0,0 c 0,-6.25228 -5.22891,-11.32075 -11.67907,-11.32075 z"
       id="path4666"
       inkscape:connector-curvature="0" />
    <path
       style="fill:none;stroke:#000000;stroke-width:0.35433072;stroke-linecap:butt;stroke-linejoin:round;stroke-miterlimit:4;stroke-opacity:1;stroke-dasharray:none"
       d="m 515.38499,285.48091 0,0 c -4.3363,0 -7.85158,3.40741 -7.85158,7.61068 l 0,0 c 0,2.01848 0.82722,3.9543 2.29967,5.38155 1.47246,1.4273 3.46954,2.22913 5.55191,2.22913 l 0,0 c 4.33628,0 7.85156,-3.40742 7.85156,-7.61068 l 0,0 c 0,-4.20327 -3.51528,-7.61068 -7.85156,-7.61068 z"
       id="path4664"
       inkscape:connector-curvature="0" />
    <path
       style="fill:none;stroke:#000000;stroke-width:0.35433072;stroke-linecap:butt;stroke-linejoin:round;stroke-miterlimit:4;stroke-opacity:1;stroke-dasharray:none"
       d="m 637.38342,161.22592 0,0 c -6.45019,0 -11.67909,5.06847 -11.67909,11.32075 l 0,0 c 0,3.00245 1.23048,5.88195 3.42072,8.00499 2.19026,2.12306 5.16089,3.31578 8.25837,3.31578 l 0,0 c 6.45016,0 11.67907,-5.06848 11.67907,-11.32077 l 0,0 c 0,-6.25228 -5.22891,-11.32075 -11.67907,-11.32075 z"
       id="path4662"
       inkscape:connector-curvature="0" />
    <path
       style="fill:none;stroke:#000000;stroke-width:0.35433072;stroke-linecap:butt;stroke-linejoin:round;stroke-miterlimit:4;stroke-opacity:1;stroke-dasharray:none"
       d="m 637.38345,164.89654 0,0 c -4.3363,0 -7.85158,3.40741 -7.85158,7.61068 l 0,0 c 0,2.01848 0.82722,3.9543 2.29967,5.38155 1.47246,1.4273 3.46954,2.22913 5.55191,2.22913 l 0,0 c 4.33628,0 7.85156,-3.40742 7.85156,-7.61068 l 0,0 c 0,-4.20327 -3.51528,-7.61068 -7.85156,-7.61068 z"
       id="path4660"
       inkscape:connector-curvature="0" />
    <path
       style="fill:none;stroke:#000000;stroke-width:0.35433072;stroke-linecap:butt;stroke-linejoin:round;stroke-miterlimit:4;stroke-opacity:1;stroke-dasharray:none"
       d="m 515.40775,46.82321 0,0 c -6.45019,0 -11.67909,5.06847 -11.67909,11.32075 l 0,0 c 0,3.00245 1.23048,5.88195 3.42072,8.00499 2.19026,2.12306 5.16089,3.31578 8.25837,3.31578 l 0,0 c 6.45016,0 11.67907,-5.06848 11.67907,-11.32077 l 0,0 c 0,-6.25228 -5.22891,-11.32075 -11.67907,-11.32075 z"
       id="path4658"
       inkscape:connector-curvature="0" />
    <path
       style="fill:none;stroke:#000000;stroke-width:0.35433072;stroke-linecap:butt;stroke-linejoin:round;stroke-miterlimit:4;stroke-opacity:1;stroke-dasharray:none"
       d="m 515.40778,50.49383 0,0 c -4.3363,0 -7.85158,3.40741 -7.85158,7.61068 l 0,0 c 0,2.01848 0.82722,3.9543 2.29967,5.38155 1.47246,1.4273 3.46954,2.22913 5.55191,2.22913 l 0,0 c 4.33628,0 7.85156,-3.40742 7.85156,-7.61068 l 0,0 c 0,-4.20327 -3.51528,-7.61068 -7.85156,-7.61068 z"
       id="path4656"
       inkscape:connector-curvature="0" />
    <path
       style="fill:none;stroke:#000000;stroke-width:0.35433072;stroke-linecap:butt;stroke-linejoin:miter;stroke-miterlimit:4;stroke-opacity:1;stroke-dasharray:none"
       d="m 255.67662,168.45255 370.84326,0 0,8.00197 -370.84326,0 z"
       id="path4654"
       inkscape:connector-curvature="0" />
    <path
       style="fill:none;stroke:#000000;stroke-width:0.35433072;stroke-linecap:butt;stroke-linejoin:miter;stroke-miterlimit:4;stroke-opacity:1;stroke-dasharray:none"
       d="m 520.33314,282.69221 106.42163,-105.57241 5.4037,5.43933 -106.42163,105.57241 z"
       id="path4652"
       inkscape:connector-curvature="0" />
    <path
       id="path6571"
       d="m 511.47638,282.48852 0.19029,-213.64504 7.66722,0.006 -0.19029,213.64504 z"
       style="fill:none;stroke:#000000;stroke-width:0.35433075;stroke-linecap:butt;stroke-linejoin:miter;stroke-miterlimit:4;stroke-opacity:1;stroke-dasharray:none"
       inkscape:connector-curvature="0"
       inkscape:transform-center-x="-7.7384445"
       inkscape:transform-center-y="11.554318" />
  </g>
</svg>
