<?xml version="1.0" encoding="UTF-8" standalone="no"?>
<!-- Created with Inkscape (http://www.inkscape.org/) -->

<svg
   xmlns:dc="http://purl.org/dc/elements/1.1/"
   xmlns:cc="http://creativecommons.org/ns#"
   xmlns:rdf="http://www.w3.org/1999/02/22-rdf-syntax-ns#"
   xmlns:svg="http://www.w3.org/2000/svg"
   xmlns="http://www.w3.org/2000/svg"
   xmlns:sodipodi="http://sodipodi.sourceforge.net/DTD/sodipodi-0.dtd"
   xmlns:inkscape="http://www.inkscape.org/namespaces/inkscape"
   width="297mm"
   height="210mm"
   id="svg2985"
   version="1.1"
   inkscape:version="0.48.2 r9819"
   sodipodi:docname="ShippingScreenprint.svg">
  <defs
     id="defs2987" />
  <sodipodi:namedview
     inkscape:document-units="mm"
     pagecolor="#ffffff"
     bordercolor="#666666"
     borderopacity="1.0"
     inkscape:pageopacity="0.0"
     inkscape:pageshadow="2"
     inkscape:zoom="0.6633774"
     inkscape:cx="524.74653"
     inkscape:cy="277.93939"
     inkscape:current-layer="layer1"
     id="namedview2989"
     showgrid="false"
     inkscape:window-width="1229"
     inkscape:window-height="778"
     inkscape:window-x="20"
     inkscape:window-y="20"
     inkscape:window-maximized="0" />
  <metadata
     id="metadata2991">
    <rdf:RDF>
      <cc:Work
         rdf:about="">
        <dc:format>image/svg+xml</dc:format>
        <dc:type
           rdf:resource="http://purl.org/dc/dcmitype/StillImage" />
        <dc:title></dc:title>
      </cc:Work>
    </rdf:RDF>
  </metadata>
  <g
     inkscape:label="Layer 1"
     inkscape:groupmode="layer"
     id="layer1">
    <path
       style="fill:#ffffff;fill-rule:nonzero;stroke:none"
       inkscape:connector-curvature="0"
       d="m 792.2997,92.08701 0,380.05515 -536.0236,0 0,-380.05515 z"
       id="path3974" />
    <path
       style="fill:#ffffff;fill-rule:nonzero;stroke:none"
       inkscape:connector-curvature="0"
       d="m 855.64221,28.74449 0,506.7401 -63.34251,-63.34247 0,-380.05515 z"
       id="path3976" />
    <path
       style="fill:#ffffff;fill-rule:nonzero;stroke:none"
       inkscape:connector-curvature="0"
       d="M 855.64221,28.74449 792.2997,92.087 l -536.0236,0 -63.34253,-63.34251 z"
       id="path3980" />
    <path
       style="fill:#000000"
       d="m 822.36343,629.78991 c -0.32114,-3.77124 -0.58389,-12.26535 -0.58389,-18.8758 l 0,-12.019 10.41423,0 10.41423,0 0,-3.47141 0,-3.47141 -10.41423,0 -10.41423,0 0,-22.9981 0,-22.9981 6.94282,0 6.94282,0 0,16.05528 0,16.05528 3.47141,0 3.47141,0 0,-16.05528 0,-16.05528 6.94283,0 6.94282,0 -0.006,33.19537 c -0.007,35.92844 -0.51426,46.71576 -2.02869,43.11479 -0.53362,-1.26857 -1.02899,-16.19889 -1.24347,-37.47374 l -0.3565,-35.36501 -3.38976,0 -3.38974,0 0,16.05528 0,16.05528 -6.94283,0 -6.94282,0 0,-16.05528 0,-16.05528 -3.47141,0 -3.47141,0 0,19.52669 0,19.52669 10.41423,0 10.41424,0 0,6.94282 0,6.94283 -10.28711,0 -10.28712,0 -0.51576,14.53653 c -0.62915,17.73215 -1.74648,23.21532 -2.626,12.88685 z M 614.9466,628.92206 c -0.32114,-3.77124 -0.58389,-23.99779 -0.58389,-44.94789 l 0,-38.09109 6.72586,0.25347 6.72586,0.25347 3.62926,10.41423 3.62926,10.41424 0.0591,-10.6312 0.0591,-10.6312 6.94283,0 6.94282,0 -0.006,35.36501 c -0.003,19.45075 -0.26616,38.09873 -0.58393,41.43997 -1.28946,13.55812 -2.27416,0.10759 -2.65258,-36.23286 l -0.38645,-37.10071 -3.37567,0 -3.37568,0 -0.23388,18.8413 -0.23389,18.8413 -6.42821,-18.8413 -6.42821,-18.8413 -3.70163,0 -3.70163,0 -0.36054,40.57212 c -0.20755,23.35578 -0.72492,41.67692 -1.21925,43.17568 -0.76294,2.31325 -0.92381,1.83898 -1.44259,-4.25324 z m -33.86527,-1.0422 c -0.31068,-3.67535 -0.56488,-11.70047 -0.56488,-17.8336 l 0,-11.15115 6.94282,0 6.94283,0 -0.006,5.85801 c -0.009,8.24407 -0.98224,17.60194 -1.77996,17.10893 -0.36957,-0.22841 -0.95019,-4.70834 -1.29026,-9.9554 l -0.61842,-9.54012 -3.22844,0 -3.22845,0 -0.49405,15.2898 c -0.53508,16.5598 -1.74775,21.19425 -2.67511,10.22353 z m 78.11626,0.11243 c -0.31591,-3.73718 -0.57438,-23.72418 -0.57438,-44.41554 l 0,-37.62066 17.35705,0 17.35706,0 -0.006,33.6293 c -0.007,36.347 -0.51048,47.15695 -2.02967,43.54872 -0.53592,-1.27263 -1.02862,-16.30301 -1.24274,-37.90768 l -0.35479,-35.79893 -13.73107,0 -13.73107,0 -0.33778,40.57212 c -0.20991,25.21157 -0.67748,41.3701 -1.23498,42.67984 -0.75872,1.78244 -0.98582,1.0591 -1.47155,-4.68717 z m 75.50319,0 c -0.31591,-3.73718 -0.57438,-23.72418 -0.57438,-44.41554 l 0,-37.62066 17.35706,0 17.35705,0 -0.006,33.6293 c -0.007,36.347 -0.51049,47.15695 -2.02967,43.54872 -0.53592,-1.27263 -1.02863,-16.30301 -1.24274,-37.90768 l -0.35479,-35.79893 -13.73107,0 -13.73107,0 -0.33779,40.57212 c -0.20991,25.21157 -0.67747,41.3701 -1.23497,42.67984 -0.75872,1.78244 -0.98582,1.0591 -1.47156,-4.68717 z m -465.96597,2.57945 c -0.33658,-1.43195 -0.87548,-8.36393 -1.19753,-15.40438 l -0.58554,-12.80083 -10.27932,0 -10.2793,0 0,-6.94283 0,-6.94282 10.41423,0 10.41423,0 0,-3.47141 0,-3.47141 -10.41423,0 -10.41423,0 0,-12.58387 0,-12.58386 6.94282,0 6.94282,0 0,5.20711 0,5.20712 3.47141,0 3.47141,0 0,-8.67853 0,-8.67853 -13.80683,0 -13.80683,0 -0.34981,37.10071 c -0.21292,22.58261 -0.69821,37.92549 -1.24014,39.20843 -1.50313,3.55842 -2.03909,-8.43536 -2.03909,-45.6313 l 0,-34.14925 17.35706,0 17.35705,0 0,12.14994 0,12.14994 -6.94282,0 -6.94282,0 0,-5.20712 0,-5.20711 -3.47141,0 -3.47141,0 0,9.11245 0,9.11246 10.41423,0 10.41423,0 0,6.94282 0,6.94282 -10.41423,0 -10.41423,0 0,3.47141 0,3.47141 10.41423,0 10.41423,0 -0.0858,12.36691 c -0.0472,6.80179 -0.3501,14.51484 -0.67309,17.14009 -0.52581,4.27361 -0.65133,4.50069 -1.19926,2.16963 z m 87.65314,0 c -0.33659,-1.43195 -0.87548,-8.36393 -1.19753,-15.40438 l -0.58554,-12.80083 -10.27932,0 -10.27931,0 0,-6.94283 0,-6.94282 10.41423,0 10.41424,0 0,-3.47141 0,-3.47141 -10.41424,0 -10.41423,0 0,-12.58387 0,-12.58386 6.94282,0 6.94283,0 0,5.20711 0,5.20712 3.47141,0 3.47141,0 0,-8.67853 0,-8.67853 -13.80684,0 -13.80682,0 -0.34982,37.10071 c -0.21292,22.58261 -0.6982,37.92549 -1.24013,39.20843 -1.50313,3.55842 -2.03909,-8.43536 -2.03909,-45.6313 l 0,-34.14925 17.35705,0 17.35706,0 0,12.14994 0,12.14994 -6.94282,0 -6.94283,0 0,-5.20712 0,-5.20711 -3.47141,0 -3.47141,0 0,9.11245 0,9.11246 10.41424,0 10.41423,0 0,6.94282 0,6.94282 -10.41423,0 -10.41424,0 0,3.47141 0,3.47141 10.41424,0 10.41423,0 -0.0858,12.36691 c -0.0472,6.80179 -0.3501,14.51484 -0.6731,17.14009 -0.52581,4.27361 -0.65132,4.50069 -1.19925,2.16963 z m 159.68492,0 c -0.33659,-1.43195 -0.87548,-8.36393 -1.19753,-15.40438 l -0.58554,-12.80083 -10.27932,0 -10.27931,0 0,-6.94283 0,-6.94282 10.41423,0 10.41424,0 0,-3.47141 0,-3.47141 -10.41424,0 -10.41423,0 0,-12.58387 0,-12.58386 6.94282,0 6.94283,0 0,5.20711 0,5.20712 3.47141,0 3.47141,0 0,-8.67853 0,-8.67853 -13.80684,0 -13.80682,0 -0.34982,37.10071 c -0.21292,22.58261 -0.6982,37.92549 -1.24013,39.20843 -1.50313,3.55842 -2.03909,-8.43536 -2.03909,-45.6313 l 0,-34.14925 17.35705,0 17.35706,0 0,12.14994 0,12.14994 -6.94282,0 -6.94283,0 0,-5.20712 0,-5.20711 -3.47141,0 -3.47141,0 0,9.11245 0,9.11246 10.41424,0 10.41423,0 0,6.94282 0,6.94282 -10.41423,0 -10.41424,0 0,3.47141 0,3.47141 10.41424,0 10.41423,0 -0.0858,12.36691 c -0.0472,6.80179 -0.3501,14.51484 -0.6731,17.14009 -0.52581,4.27361 -0.65132,4.50069 -1.19925,2.16963 z M 279.9459,625.38873 c -0.3159,-3.73718 -0.57438,-23.13837 -0.57438,-43.11376 l 0,-36.31888 17.35706,0 17.35706,0 0,17.35706 c 0,9.54638 -0.2929,17.35906 -0.65089,17.3615 -0.35799,0.003 -2.2006,0.94246 -4.09468,2.08893 l -3.44379,2.08447 4.09468,1.98935 4.09468,1.98935 -0.0858,13.49575 c -0.0472,7.42266 -0.35571,15.64368 -0.68557,18.26894 -0.59773,4.75703 -0.60222,4.76295 -1.32908,1.7516 -0.40112,-1.66188 -0.97131,-9.47255 -1.26708,-17.35706 l -0.53777,-14.33547 -4.93581,-2.62153 c -2.71469,-1.44184 -5.20156,-2.88728 -5.52637,-3.2121 -0.32482,-0.32482 1.99392,-1.86505 5.15276,-3.42275 l 5.74334,-2.83216 0,-14.56724 0,-14.56723 -13.81014,0 -13.81014,0 -0.3421,39.27034 c -0.21104,24.22667 -0.68485,40.07777 -1.23683,41.37806 -0.75583,1.78051 -0.9839,1.05287 -1.46911,-4.68717 z m 87.65314,0 c -0.31591,-3.73718 -0.57438,-23.13837 -0.57438,-43.11376 l 0,-36.31888 6.94282,0 6.94282,0 0,26.46951 0,26.46951 5.20712,0 5.20712,0 -0.006,6.29194 c -0.009,8.78552 -0.98807,18.23088 -1.80446,17.40102 -0.37605,-0.38217 -0.95911,-5.08836 -1.29579,-10.4582 l -0.61212,-9.76334 -5.0836,0 -5.0836,0 0,-26.46952 0,-26.46951 -3.39591,0 -3.3959,0 -0.3421,39.27034 c -0.21105,24.22667 -0.68485,40.07777 -1.23683,41.37806 -0.75583,1.78051 -0.9839,1.05287 -1.46911,-4.68717 z m 191.82794,4.31516 c -0.35778,-1.43196 -0.89188,-10.51187 -1.18688,-20.17758 l -0.53637,-17.57402 -3.34713,0 -3.34714,0 0,5.20712 0,5.20712 -6.94283,0 -6.94282,0 0,-22.9981 0,-22.9981 6.94282,0 6.94283,0 0,5.20711 0,5.20712 3.47141,0 3.47141,0 0,-8.67853 0,-8.67853 -13.80472,0 -13.80471,0 -0.35479,35.79893 c -0.21401,21.59443 -0.70692,36.63525 -1.24226,37.90665 -1.48863,3.53545 -2.03622,-8.38597 -2.03622,-44.32952 l 0,-32.84747 17.35705,0 17.35706,0 0,12.14994 0,12.14994 -6.94282,0 -6.94283,0 0,-5.20712 0,-5.20711 -3.47141,0 -3.47141,0 0,19.52669 0,19.52668 3.47141,0 3.47141,0 0,-5.20711 0,-5.20712 6.94283,0 6.94282,0 -0.0858,17.14009 c -0.0472,9.42706 -0.3501,19.28803 -0.6731,21.91329 -0.53319,4.33362 -0.64717,4.53343 -1.23778,2.16963 z m 144.0311,-4.31516 c -0.31591,-3.73718 -0.57438,-23.13837 -0.57438,-43.11376 l 0,-36.31888 6.94282,0 6.94283,0 0,26.46951 0,26.46951 5.20711,0 5.20712,0 -0.006,6.29194 c -0.009,8.78552 -0.98807,18.23088 -1.80445,17.40102 -0.37606,-0.38217 -0.95912,-5.08836 -1.29579,-10.4582 l -0.61213,-9.76334 -5.0836,0 -5.0836,0 0,-26.46952 0,-26.46951 -3.3959,0 -3.39591,0 -0.3421,39.27034 c -0.21105,24.22667 -0.68485,40.07777 -1.23683,41.37806 -0.75583,1.78051 -0.9839,1.05287 -1.46911,-4.68717 z m 107.61976,3.44731 c -0.37233,-1.43196 -0.90018,-12.65981 -1.17301,-24.95077 l -0.49605,-22.34721 -3.361,0 -3.36101,0 0,10.41423 0,10.41424 -6.94282,0 -6.94282,0 0,-22.9981 0,-22.9981 6.94282,0 6.94282,0 0,5.20711 0,5.20712 3.47142,0 3.47141,0 0,-8.67853 0,-8.67853 -13.81066,0 -13.81065,0 -0.34095,35.36501 c -0.20785,21.55958 -0.69048,36.18778 -1.23632,37.47272 -1.49397,3.51685 -2.04412,-8.29702 -2.04412,-43.8956 l 0,-32.41354 17.35705,0 17.35706,0 0,12.14994 0,12.14994 -6.94282,0 -6.94283,0 0,-5.20712 0,-5.20711 -3.47141,0 -3.47141,0 0,19.52669 0,19.52668 3.47141,0 3.47141,0 0,-10.41423 0,-10.41423 6.94283,0 6.94282,0 -0.0858,21.91328 c -0.0472,12.05231 -0.3501,24.06122 -0.6731,26.68648 -0.53793,4.37213 -0.64415,4.55443 -1.26424,2.16963 z m -208.34259,-3.03749 c -0.41321,-1.1933 -0.93334,-18.86495 -1.15583,-39.27034 l -0.40453,-37.10071 -3.3864,0 -3.38639,0 0,21.2624 0,21.26239 -6.94283,0 -6.94282,0 0,-21.26239 0,-21.2624 -3.39711,0 -3.39711,0 -0.37605,35.79893 c -0.20871,19.86901 -0.75439,36.95747 -1.22628,38.40249 -1.42196,4.3543 -2.00673,-8.69562 -2.01248,-44.91138 l -0.005,-32.76145 6.94282,0 6.94282,0 0,21.2624 0,21.26239 3.47142,0 3.47141,0 0,-21.26239 0,-21.2624 6.94282,0 6.94282,0 -0.0858,36.23286 c -0.0882,37.21925 -0.56898,47.72841 -1.99524,43.6096 z m 33.89874,-5.64104 c -0.40803,-4.46879 -1.93775,-10.8085 -4.29281,-17.79098 l -3.6589,-10.84816 -0.53885,13.01779 c -0.29636,7.15978 -0.58926,14.36513 -0.65089,16.01188 -0.087,2.3252 -0.3442,2.76193 -1.15125,1.95488 -0.73483,-0.73483 -1.14461,-7.71203 -1.39909,-23.82256 -0.19794,-12.53084 -0.20792,-23.75968 -0.0221,-24.95298 0.22196,-1.42591 2.68489,4.82137 7.18501,18.22491 7.04643,20.98769 7.39193,22.8767 5.79345,31.67663 -0.57811,3.18266 -0.68329,2.89391 -1.26449,-3.47141 z m -444.34122,-0.84375 c -0.31591,-3.73718 -0.57438,-21.77151 -0.57438,-40.07628 l 0,-33.28139 17.35705,0 17.35706,0 0,22.54754 0,22.54754 -4.11941,2.09354 -4.1194,2.09354 4.1194,2.00137 4.11941,2.00136 -0.0858,8.72256 c -0.0472,4.79741 -0.36402,10.87049 -0.70404,13.49575 -0.60315,4.65686 -0.63311,4.69916 -1.22965,1.7357 -0.33629,-1.67061 -0.89817,-7.33335 -1.24862,-12.58386 l -0.6372,-9.54638 -4.93581,-2.62153 c -2.71468,-1.44185 -5.20156,-2.88729 -5.52637,-3.21211 -0.32482,-0.32481 1.99393,-1.86505 5.15276,-3.42274 l 5.74335,-2.83217 0,-19.77435 0,-19.77435 -13.80543,0 -13.80544,0 -0.35309,36.23286 c -0.21365,21.92397 -0.70395,37.06522 -1.24154,38.34057 -0.7484,1.7755 -0.97897,1.03671 -1.46282,-4.68717 z m 10.40473,-0.98027 c -0.31068,-3.67536 -0.56488,-9.57912 -0.56488,-13.1195 l 0,-6.43703 6.94196,3.74745 c 6.89866,3.72407 6.94194,3.76912 6.93667,7.21886 -0.009,6.08425 -1.08429,15.15176 -1.74767,14.74178 -0.35227,-0.21772 -0.91481,-4.05486 -1.25011,-8.52699 l -0.60961,-8.13113 -2.99543,-1.42842 c -1.64749,-0.78563 -3.11993,-1.42843 -3.27209,-1.42843 -0.15217,0 -0.54803,4.19729 -0.87969,9.32731 -0.33167,5.13002 -0.91606,9.64034 -1.29866,10.02293 -0.38259,0.38259 -0.94981,-2.31148 -1.26049,-5.98683 z m 249.07376,0 c -0.31068,-3.67536 -0.56488,-18.33955 -0.56488,-32.58711 l 0,-25.90464 -5.20712,0 -5.20711,0 0,-6.94282 0,-6.94283 17.35705,0 17.35706,0 0,6.94283 0,6.94282 -5.20712,0 -5.20711,0 -0.006,26.68647 c -0.007,29.37206 -0.54307,39.06799 -2.0761,37.53563 -0.65105,-0.65077 -1.05153,-11.58048 -1.25768,-34.32416 l -0.30255,-33.36935 5.29261,0 5.29262,0 0,-3.47141 0,-3.47142 -13.88565,0 -13.88564,0 0,3.47142 0,3.47141 5.28575,0 5.28575,0 -0.29559,33.36958 c -0.2013,22.72371 -0.59992,33.67369 -1.24947,34.32281 -0.69317,0.69271 -1.10825,-0.87311 -1.51874,-5.72923 z m -161.9855,-22.91947 0,-6.95251 6.94282,3.49078 c 6.93472,3.48671 6.94282,3.49482 6.94282,6.95251 l 0,3.46173 -6.94282,0 -6.94282,0 0,-6.95251 z m 10.41423,2.77398 c 0,-0.61451 -5.43214,-3.63215 -6.53834,-3.63215 -0.22247,0 -0.40448,0.97633 -0.40448,2.16963 0,1.95267 0.34714,2.16963 3.47141,2.16963 1.90928,0 3.47141,-0.31819 3.47141,-0.70711 z m 368.83745,-18.81957 0,-22.9981 6.94282,0 6.94283,0 0,22.9981 0,22.9981 -6.94283,0 -6.94282,0 0,-22.9981 z m 10.41423,0 0,-19.52669 -3.47141,0 -3.47141,0 0,19.52669 0,19.52668 3.47141,0 3.47141,0 0,-19.52668 z m 65.08897,0 0,-22.9981 6.94282,0 6.94282,0 0,22.9981 0,22.9981 -6.94282,0 -6.94282,0 0,-22.9981 z m 10.41423,0 0,-19.52669 -3.47141,0 -3.47141,0 0,19.52669 0,19.52668 3.47141,0 3.47141,0 0,-19.52668 z m -552.82225,-5.64105 0,-17.35705 6.94282,0 6.94283,0 0,13.8072 0,13.8072 -6.46802,3.54985 c -3.55741,1.95243 -6.68168,3.54986 -6.94283,3.54986 -0.26113,0 -0.4748,-7.81068 -0.4748,-17.35706 z m 10.41424,-2.62119 0,-11.26445 -3.47142,0 -3.47141,0 0,13.03542 0,13.03544 3.47141,-1.77098 3.47142,-1.77099 0,-11.26444 z m 77.2389,-2.57624 0,-12.15962 6.94282,0 6.94282,0 0,8.66884 0,8.66884 -6.94282,3.49078 -6.94282,3.49079 0,-12.15963 z m 10.41423,-2.63088 0,-6.05733 -3.47141,0 -3.47141,0 0,7.82831 0,7.82832 3.47141,-1.77099 3.47141,-1.77098 0,-6.05733 z"
       id="path3773"
       inkscape:connector-curvature="0" />
    <path
       style="fill:none;stroke:#000000;stroke-width:8;stroke-linecap:butt;stroke-linejoin:round;stroke-opacity:0.94117647"
       inkscape:connector-curvature="0"
       d="m 774.33075,277.68012 -477.29138,0"
       id="path3986" />
    <path
       style="fill:none;stroke:#000000;stroke-width:4;stroke-linecap:butt;stroke-linejoin:round;stroke-opacity:0.94117647"
       inkscape:connector-curvature="0"
       d="m 283.77956,265.12894 0,0 c 7.32324,0 13.25983,5.61935 13.25983,12.55118 l 0,0 c 0,3.32879 -1.39698,6.52124 -3.88367,8.87503 -2.48676,2.35379 -5.85944,3.67615 -9.37616,3.67615 l 0,0 c -7.32318,0 -13.25983,-5.61936 -13.25983,-12.55118 l 0,0 c 0,-6.93183 5.93665,-12.55118 13.25983,-12.55118 z"
       id="path3988" />
    <path
       style="fill:none;stroke:#000000;stroke-width:8;stroke-linecap:butt;stroke-linejoin:round;stroke-opacity:0.94117647"
       inkscape:connector-curvature="0"
       d="m 293.15572,286.55515 137.4834,136.54898"
       id="path3990" />
    <path
       style="fill:none;stroke:#000000;stroke-width:8;stroke-linecap:butt;stroke-linejoin:round;stroke-opacity:0.94117647"
       inkscape:connector-curvature="0"
       d="m 440.52748,418.98098 0,-276.2205"
       id="path3992" />
    <path
       style="fill:none;stroke:#000000;stroke-width:4;stroke-linecap:butt;stroke-linejoin:round;stroke-opacity:0.94117647"
       inkscape:connector-curvature="0"
       d="m 440.52748,118.41403 0,0 c 6.93182,0 12.55118,5.45013 12.55118,12.17322 l 0,0 c 0,3.22854 -1.32236,6.32486 -3.67615,8.60776 -2.35382,2.28292 -5.54626,3.56546 -8.87503,3.56546 l 0,0 c -6.93182,0 -12.55118,-5.45014 -12.55118,-12.17322 l 0,0 c 0,-6.72309 5.61936,-12.17322 12.55118,-12.17322 z"
       id="path3994" />
    <path
       style="fill:none;stroke:#000000;stroke-width:4;stroke-linecap:butt;stroke-linejoin:round;stroke-opacity:0.94117647"
       inkscape:connector-curvature="0"
       d="m 440.52748,419.00818 0,0 c 7.7233,0 13.98425,6.26099 13.98425,13.98425 l 0,0 c 0,3.70887 -1.47336,7.26581 -4.09588,9.88837 -2.62256,2.62256 -6.17951,4.09589 -9.88837,4.09589 l 0,0 c -7.7233,0 -13.98425,-6.26093 -13.98425,-13.98426 l 0,0 c 0,-7.72326 6.26095,-13.98425 13.98425,-13.98425 z"
       id="path3996" />
  </g>
</svg>
