<?xml version="1.0" encoding="UTF-8" standalone="no"?>
<!-- Created with Inkscape (http://www.inkscape.org/) -->

<svg
   xmlns:dc="http://purl.org/dc/elements/1.1/"
   xmlns:cc="http://creativecommons.org/ns#"
   xmlns:rdf="http://www.w3.org/1999/02/22-rdf-syntax-ns#"
   xmlns:svg="http://www.w3.org/2000/svg"
   xmlns="http://www.w3.org/2000/svg"
   xmlns:sodipodi="http://sodipodi.sourceforge.net/DTD/sodipodi-0.dtd"
   xmlns:inkscape="http://www.inkscape.org/namespaces/inkscape"
   width="297mm"
   height="210mm"
   id="svg2985"
   version="1.1"
   inkscape:version="0.48.2 r9819"
   sodipodi:docname="ShippingScreenprint.svg">
  <defs
     id="defs2987" />
  <sodipodi:namedview
     inkscape:document-units="mm"
     pagecolor="#ffffff"
     bordercolor="#666666"
     borderopacity="1.0"
     inkscape:pageopacity="0.0"
     inkscape:pageshadow="2"
     inkscape:zoom="0.71268239"
     inkscape:cx="526.18109"
     inkscape:cy="225.43977"
     inkscape:current-layer="layer1"
     id="namedview2989"
     showgrid="false"
     inkscape:window-width="1229"
     inkscape:window-height="778"
     inkscape:window-x="20"
     inkscape:window-y="20"
     inkscape:window-maximized="0" />
  <metadata
     id="metadata2991">
    <rdf:RDF>
      <cc:Work
         rdf:about="">
        <dc:format>image/svg+xml</dc:format>
        <dc:type
           rdf:resource="http://purl.org/dc/dcmitype/StillImage" />
        <dc:title />
      </cc:Work>
    </rdf:RDF>
  </metadata>
  <g
     inkscape:label="Layer 1"
     inkscape:groupmode="layer"
     id="layer1">
    <path
       style="fill:#ffffff;fill-rule:nonzero;stroke:none"
       inkscape:connector-curvature="0"
       d="m 792.2997,92.08701 0,380.05515 -536.0236,0 0,-380.05515 z"
       id="path3974" />
    <path
       style="fill:#ffffff;fill-rule:nonzero;stroke:none"
       inkscape:connector-curvature="0"
       d="m 855.64221,28.74449 0,506.7401 -63.34251,-63.34247 0,-380.05515 z"
       id="path3976" />
    <path
       style="fill:#ffffff;fill-rule:nonzero;stroke:none"
       inkscape:connector-curvature="0"
       d="M 855.64221,28.74449 792.2997,92.087 l -536.0236,0 -63.34253,-63.34251 z"
       id="path3980" />
    <path
       style="fill:#000000"
       d="m 866.43498,707.58569 c -0.37004,-4.34548 -0.6728,-14.13298 -0.6728,-21.75 l 0,-13.84912 12,0 12,0 0,-4 0,-4 -12,0 -12,0 0,-26.5 0,-26.5 8,0 8,0 0,18.5 0,18.5 4,0 4,0 0,-18.5 0,-18.5 8,0 8,0 -0.007,38.25 c -0.008,41.39923 -0.59256,53.82912 -2.33759,49.67984 -0.61487,-1.46174 -1.18568,-18.66548 -1.43281,-43.17984 l -0.41079,-40.75 -3.90591,0 -3.9059,0 0,18.5 0,18.5 -8,0 -8,0 0,-18.5 0,-18.5 -4,0 -4,0 0,22.5 0,22.5 12,0 12,0 0,8 0,8 -11.85352,0 -11.85352,0 -0.5943,16.75 c -0.72495,20.43221 -2.01241,26.75029 -3.02586,14.84912 z m -239,-1 c -0.37004,-4.34548 -0.6728,-27.65191 -0.6728,-51.79206 l 0,-43.89119 7.75,0.29207 7.75,0.29206 4.18188,12 4.18189,12 0.0681,-12.25 0.0681,-12.25 8,0 8,0 -0.007,40.75 c -0.004,22.4125 -0.30669,43.9 -0.67285,47.75 -1.4858,15.62261 -2.62044,0.12398 -3.05649,-41.75 l -0.44529,-42.75 -3.88968,0 -3.88969,0 -0.2695,21.71024 -0.2695,21.71025 -7.40703,-21.71025 -7.40703,-21.71024 -4.26527,0 -4.26527,0 -0.41544,46.75 c -0.23916,26.91214 -0.83531,48.02302 -1.4049,49.75 -0.87912,2.66548 -1.06448,2.119 -1.66226,-4.90088 z m -39.02191,-1.20089 c -0.35799,-4.23499 -0.65089,-13.48209 -0.65089,-20.54911 l 0,-12.84912 8,0 8,0 -0.007,6.75 c -0.01,9.49939 -1.13181,20.28217 -2.051,19.71409 -0.42584,-0.26319 -1.09487,-5.42527 -1.48672,-11.4713 l -0.71259,-10.99279 -3.72003,0 -3.72004,0 -0.56928,17.61797 c -0.61656,19.08134 -2.01388,24.42148 -3.08245,11.78026 z m 90.01095,0.12955 c -0.36401,-4.30624 -0.66184,-27.33664 -0.66184,-51.17866 l 0,-43.34912 20,0 20,0 -0.007,38.75 c -0.008,41.88153 -0.58822,54.3375 -2.33873,50.17984 -0.61752,-1.46641 -1.18525,-18.78545 -1.43197,-43.67984 l -0.40881,-41.25 -15.82189,0 -15.82189,0 -0.38922,46.75 c -0.24187,29.05051 -0.78063,47.66949 -1.42302,49.17866 -0.87425,2.05385 -1.13593,1.22036 -1.69563,-5.40088 z m 87,0 c -0.36401,-4.30624 -0.66184,-27.33664 -0.66184,-51.17866 l 0,-43.34912 20,0 20,0 -0.007,38.75 c -0.008,41.88153 -0.58822,54.3375 -2.33873,50.17984 -0.61752,-1.46641 -1.18525,-18.78545 -1.43197,-43.67984 l -0.40881,-41.25 -15.82189,0 -15.82189,0 -0.38922,46.75 c -0.24187,29.05051 -0.78063,47.66949 -1.42302,49.17866 -0.87425,2.05385 -1.13593,1.22036 -1.69563,-5.40088 z m -536.91819,2.97222 c -0.38784,-1.65 -1.00879,-9.6375 -1.37988,-17.75 l -0.6747,-14.75 -11.84454,0 -11.84453,0 0,-8 0,-8 12,0 12,0 0,-4 0,-4 -12,0 -12,0 0,-14.5 0,-14.5 8,0 8,0 0,6 0,6 4,0 4,0 0,-10 0,-10 -15.90919,0 -15.90918,0 -0.40308,42.75 c -0.24534,26.02124 -0.80452,43.70037 -1.42897,45.17866 -1.73201,4.10026 -2.34958,-9.71981 -2.34958,-52.57954 l 0,-39.34912 20,0 20,0 0,14 0,14 -8,0 -8,0 0,-6 0,-6 -4,0 -4,0 0,10.5 0,10.5 12,0 12,0 0,8 0,8 -12,0 -12,0 0,4 0,4 12,0 12,0 -0.0989,14.25 c -0.0544,7.8375 -0.40341,16.725 -0.77559,19.75 -0.60587,4.92435 -0.7505,5.18601 -1.38186,2.5 z m 101,0 c -0.38784,-1.65 -1.00879,-9.6375 -1.37988,-17.75 l -0.6747,-14.75 -11.84454,0 -11.84453,0 0,-8 0,-8 12,0 12,0 0,-4 0,-4 -12,0 -12,0 0,-14.5 0,-14.5 8,0 8,0 0,6 0,6 4,0 4,0 0,-10 0,-10 -15.90919,0 -15.90918,0 -0.40308,42.75 c -0.24534,26.02124 -0.80452,43.70037 -1.42897,45.17866 -1.73201,4.10026 -2.34958,-9.71981 -2.34958,-52.57954 l 0,-39.34912 20,0 20,0 0,14 0,14 -8,0 -8,0 0,-6 0,-6 -4,0 -4,0 0,10.5 0,10.5 12,0 12,0 0,8 0,8 -12,0 -12,0 0,4 0,4 12,0 12,0 -0.0989,14.25 c -0.0544,7.8375 -0.40341,16.725 -0.77559,19.75 -0.60587,4.92435 -0.7505,5.18601 -1.38186,2.5 z m 184,0 c -0.38784,-1.65 -1.00879,-9.6375 -1.37988,-17.75 l -0.6747,-14.75 -11.84454,0 -11.84453,0 0,-8 0,-8 12,0 12,0 0,-4 0,-4 -12,0 -12,0 0,-14.5 0,-14.5 8,0 8,0 0,6 0,6 4,0 4,0 0,-10 0,-10 -15.90919,0 -15.90918,0 -0.40308,42.75 c -0.24534,26.02124 -0.80452,43.70037 -1.42897,45.17866 -1.73201,4.10026 -2.34958,-9.71981 -2.34958,-52.57954 l 0,-39.34912 20,0 20,0 0,14 0,14 -8,0 -8,0 0,-6 0,-6 -4,0 -4,0 0,10.5 0,10.5 12,0 12,0 0,8 0,8 -12,0 -12,0 0,4 0,4 12,0 12,0 -0.0989,14.25 c -0.0544,7.8375 -0.40341,16.725 -0.77559,19.75 -0.60587,4.92435 -0.7505,5.18601 -1.38186,2.5 z m -272.08181,-5.97222 c -0.36401,-4.30624 -0.66184,-26.66164 -0.66184,-49.67866 l 0,-41.84912 20,0 20,0 0,20 c 0,11 -0.3375,20.00231 -0.75,20.00512 -0.4125,0.003 -2.53568,1.08597 -4.71817,2.40701 l -3.96817,2.40187 4.71817,2.29227 4.71817,2.29226 -0.0989,15.55074 c -0.0544,8.5529 -0.40988,18.02573 -0.78997,21.05073 -0.68874,5.48138 -0.69392,5.48821 -1.53145,2.01832 -0.4622,-1.91493 -1.11921,-10.91493 -1.46002,-20 l -0.61966,-16.51832 -5.68738,-3.02071 c -3.12805,-1.66139 -5.9936,-3.32693 -6.36787,-3.70121 -0.37428,-0.37427 2.29754,-2.14904 5.93737,-3.94392 l 6.61788,-3.26342 0,-16.78537 0,-16.78537 -15.913,0 -15.913,0 -0.39419,45.25 c -0.24318,27.91564 -0.78913,46.18037 -1.42516,47.67866 -0.87092,2.05162 -1.13372,1.21318 -1.69281,-5.40088 z m 101,0 c -0.36401,-4.30624 -0.66184,-26.66164 -0.66184,-49.67866 l 0,-41.84912 8,0 8,0 0,30.5 0,30.5 6,0 6,0 -0.007,7.25 c -0.01,10.12329 -1.13853,21.00688 -2.07922,20.05066 -0.43332,-0.44036 -1.10516,-5.86316 -1.4931,-12.05066 l -0.70533,-11.25 -5.85768,0 -5.85767,0 0,-30.5 0,-30.5 -3.913,0 -3.913,0 -0.39419,45.25 c -0.24318,27.91564 -0.78913,46.18037 -1.42516,47.67866 -0.87092,2.05162 -1.13372,1.21318 -1.69281,-5.40088 z m 221.03741,4.97222 c -0.41226,-1.65 -1.02768,-12.1125 -1.3676,-23.25 l -0.61804,-20.25 -3.8568,0 -3.85681,0 0,6 0,6 -8,0 -8,0 0,-26.5 0,-26.5 8,0 8,0 0,6 0,6 4,0 4,0 0,-10 0,-10 -15.90675,0 -15.90674,0 -0.40881,41.25 c -0.2466,24.88259 -0.81457,42.21366 -1.43142,43.67866 -1.7153,4.07379 -2.34628,-9.66289 -2.34628,-51.07954 l 0,-37.84912 20,0 20,0 0,14 0,14 -8,0 -8,0 0,-6 0,-6 -4,0 -4,0 0,22.5 0,22.5 4,0 4,0 0,-6 0,-6 8,0 8,0 -0.0989,19.75 c -0.0544,10.8625 -0.40341,22.225 -0.77559,25.25 -0.61438,4.9935 -0.74572,5.22373 -1.42626,2.5 z m 165.96259,-4.97222 c -0.36401,-4.30624 -0.66184,-26.66164 -0.66184,-49.67866 l 0,-41.84912 8,0 8,0 0,30.5 0,30.5 6,0 6,0 -0.007,7.25 c -0.01,10.12329 -1.13853,21.00688 -2.07922,20.05066 -0.43332,-0.44036 -1.10516,-5.86316 -1.4931,-12.05066 l -0.70533,-11.25 -5.85768,0 -5.85767,0 0,-30.5 0,-30.5 -3.913,0 -3.913,0 -0.39419,45.25 c -0.24318,27.91564 -0.78913,46.18037 -1.42516,47.67866 -0.87092,2.05162 -1.13372,1.21318 -1.69281,-5.40088 z m 124.00693,3.97222 c -0.42903,-1.65 -1.03726,-14.5875 -1.35163,-28.75 l -0.57158,-25.75 -3.87278,0 -3.87278,0 0,12 0,12 -8,0 -8,0 0,-26.5 0,-26.5 8,0 8,0 0,6 0,6 4,0 4,0 0,-10 0,-10 -15.91359,0 -15.91359,0 -0.39287,40.75 c -0.2395,24.84244 -0.79561,41.69807 -1.42457,43.17866 -1.72146,4.05236 -2.35538,-9.5604 -2.35538,-50.57954 l 0,-37.34912 20,0 20,0 0,14 0,14 -8,0 -8,0 0,-6 0,-6 -4,0 -4,0 0,22.5 0,22.5 4,0 4,0 0,-12 0,-12 8,0 8,0 -0.0989,25.25 c -0.0544,13.8875 -0.40341,27.725 -0.77559,30.75 -0.61984,5.03788 -0.74223,5.24793 -1.45674,2.5 z m -240.06673,-3.5 c -0.47613,-1.375 -1.07546,-21.7375 -1.33183,-45.25 l -0.46613,-42.75 -3.90204,0 -3.90204,0 0,24.5 0,24.5 -8,0 -8,0 0,-24.5 0,-24.5 -3.91439,0 -3.91438,0 -0.43331,41.25 c -0.24049,22.89444 -0.86926,42.58495 -1.41301,44.25 -1.63848,5.01732 -2.31229,-10.0197 -2.31892,-51.75 l -0.006,-37.75 8,0 8,0 0,24.5 0,24.5 4,0 4,0 0,-24.5 0,-24.5 8,0 8,0 -0.0989,41.75 c -0.10159,42.88659 -0.65562,54.99597 -2.29906,50.25 z m 39.06047,-6.5 c -0.47016,-5.14925 -2.23281,-12.4543 -4.94648,-20.5 l -4.21603,-12.5 -0.6209,15 c -0.34149,8.25 -0.67899,16.5525 -0.75,18.45 -0.10026,2.67925 -0.39662,3.18248 -1.32655,2.25255 -0.84673,-0.84673 -1.3189,-8.88634 -1.61213,-27.45 -0.22808,-14.4389 -0.23958,-27.37755 -0.0255,-28.75255 0.25575,-1.64303 3.09371,5.55551 8.27906,21 8.11939,24.18347 8.51749,26.36011 6.67562,36.5 -0.66614,3.66728 -0.78734,3.33456 -1.45704,-4 z m -512.00067,-0.97222 c -0.36401,-4.30624 -0.66184,-25.08664 -0.66184,-46.17866 l 0,-38.34912 20,0 20,0 0,25.98083 0,25.98084 -4.74667,2.41232 -4.74666,2.41232 4.74666,2.30611 4.74667,2.30611 -0.0989,10.05074 c -0.0544,5.5279 -0.41945,12.52573 -0.81124,15.55073 -0.69499,5.36596 -0.72952,5.4147 -1.41689,2 -0.3875,-1.925 -1.03494,-8.45 -1.43875,-14.5 l -0.73422,-11 -5.68738,-3.02071 c -3.12805,-1.66139 -5.9936,-3.32693 -6.36787,-3.70121 -0.37428,-0.37427 2.29754,-2.14904 5.93737,-3.94392 l 6.61788,-3.26342 0,-22.78537 0,-22.78537 -15.90757,0 -15.90758,0 -0.40686,41.75 c -0.24618,25.26232 -0.81114,42.70911 -1.43059,44.17866 -0.86236,2.04585 -1.12804,1.19456 -1.68556,-5.40088 z m 11.98905,-1.12954 c -0.35799,-4.235 -0.65089,-11.03773 -0.65089,-15.11719 l 0,-7.4172 7.99901,4.31808 c 7.94911,4.29113 7.99898,4.34303 7.9929,8.31807 -0.0107,7.01069 -1.24939,17.4589 -2.01378,16.98649 -0.40591,-0.25087 -1.05411,-4.67229 -1.44046,-9.82538 l -0.70244,-9.36926 -3.45154,-1.64592 c -1.89835,-0.90526 -3.595,-1.64593 -3.77033,-1.64593 -0.17534,0 -0.63148,4.8364 -1.01364,10.74757 -0.38217,5.91116 -1.05555,11.10826 -1.4964,11.54911 -0.44085,0.44085 -1.09444,-2.66345 -1.45243,-6.89844 z m 287,0 c -0.35799,-4.235 -0.65089,-21.1321 -0.65089,-37.54912 l 0,-29.84912 -6,0 -6,0 0,-8 0,-8 20,0 20,0 0,8 0,8 -6,0 -6,0 -0.007,30.75 c -0.008,33.84451 -0.62577,45.01684 -2.39223,43.25114 -0.75018,-0.74986 -1.21164,-13.34382 -1.44918,-39.55067 l -0.34862,-38.45047 6.09851,0 6.09852,0 0,-4 0,-4 -16,0 -16,0 0,4 0,4 6.09061,0 6.0906,0 -0.3406,38.45074 c -0.23195,26.18383 -0.69126,38.80115 -1.43972,39.54911 -0.79872,0.79819 -1.277,-1.00605 -1.75,-6.60161 z m -186.65089,-26.4094 0,-8.01116 8,4.02232 c 7.99067,4.01763 8,4.02697 8,8.01116 l 0,3.98884 -8,0 -8,0 0,-8.01116 z m 12,3.19637 c 0,-0.70808 -6.25929,-4.18521 -7.53393,-4.18521 -0.25634,0 -0.46607,1.125 -0.46607,2.5 0,2.25 0.4,2.5 4,2.5 2.2,0 4,-0.36665 4,-0.81479 z m 425,-21.68521 0,-26.5 8,0 8,0 0,26.5 0,26.5 -8,0 -8,0 0,-26.5 z m 12,0 0,-22.5 -4,0 -4,0 0,22.5 0,22.5 4,0 4,0 0,-22.5 z m 75,0 0,-26.5 8,0 8,0 0,26.5 0,26.5 -8,0 -8,0 0,-26.5 z m 12,0 0,-22.5 -4,0 -4,0 0,22.5 0,22.5 4,0 4,0 0,-22.5 z m -637,-6.5 0,-20 8,0 8,0 0,15.90961 0,15.90962 -7.4529,4.09038 c -4.09909,2.24972 -7.69909,4.09039 -8,4.09039 -0.3009,0 -0.5471,-9 -0.5471,-20 z m 12,-3.02032 0,-12.97968 -4,0 -4,0 0,15.02032 0,15.02033 4,-2.04065 4,-2.04065 0,-12.97967 z m 89,-2.96852 0,-14.01116 8,0 8,0 0,9.98884 0,9.98884 -8,4.02232 -8,4.02232 0,-14.01116 z m 12,-3.03148 0,-6.97968 -4,0 -4,0 0,9.02032 0,9.02033 4,-2.04065 4,-2.04065 0,-6.97967 z"
       id="path3810"
       inkscape:connector-curvature="0" />
    <path
       style="fill:none;stroke:#000000;stroke-width:1;stroke-linecap:butt;stroke-linejoin:round"
       inkscape:connector-curvature="0"
       d="m 855.64221,28.74449 0,506.7401 -662.7087,0 0,-506.7401 z M 792.2997,92.087 l 0,380.05515 -536.0236,0 0,-380.05515 z M 855.64221,28.74449 792.2997,92.087 M 192.93355,28.74449 256.27608,92.087 m 599.36615,443.3976 -63.34252,-63.34247 m -599.36615,63.34247 63.34253,-63.34247"
       id="path3984" />
    <path
       style="fill:none;stroke:#000000;stroke-width:8;stroke-linecap:butt;stroke-linejoin:round;stroke-opacity:0.94117647"
       inkscape:connector-curvature="0"
       d="m 774.33075,277.68012 -477.29138,0"
       id="path3986" />
    <path
       style="fill:none;stroke:#000000;stroke-width:4;stroke-linecap:butt;stroke-linejoin:round;stroke-opacity:0.94117647"
       inkscape:connector-curvature="0"
       d="m 283.77956,265.12894 0,0 c 7.32324,0 13.25983,5.61935 13.25983,12.55118 l 0,0 c 0,3.32879 -1.39698,6.52124 -3.88367,8.87503 -2.48676,2.35379 -5.85944,3.67615 -9.37616,3.67615 l 0,0 c -7.32318,0 -13.25983,-5.61936 -13.25983,-12.55118 l 0,0 c 0,-6.93183 5.93665,-12.55118 13.25983,-12.55118 z"
       id="path3988" />
    <path
       style="fill:none;stroke:#000000;stroke-width:8;stroke-linecap:butt;stroke-linejoin:round;stroke-opacity:0.94117647"
       inkscape:connector-curvature="0"
       d="m 293.15572,286.55515 137.4834,136.54898"
       id="path3990" />
    <path
       style="fill:none;stroke:#000000;stroke-width:8;stroke-linecap:butt;stroke-linejoin:round;stroke-opacity:0.94117647"
       inkscape:connector-curvature="0"
       d="m 440.52748,418.98098 0,-276.2205"
       id="path3992" />
    <path
       style="fill:none;stroke:#000000;stroke-width:4;stroke-linecap:butt;stroke-linejoin:round;stroke-opacity:0.94117647"
       inkscape:connector-curvature="0"
       d="m 440.52748,118.41403 0,0 c 6.93182,0 12.55118,5.45013 12.55118,12.17322 l 0,0 c 0,3.22854 -1.32236,6.32486 -3.67615,8.60776 -2.35382,2.28292 -5.54626,3.56546 -8.87503,3.56546 l 0,0 c -6.93182,0 -12.55118,-5.45014 -12.55118,-12.17322 l 0,0 c 0,-6.72309 5.61936,-12.17322 12.55118,-12.17322 z"
       id="path3994" />
    <path
       style="fill:none;stroke:#000000;stroke-width:4;stroke-linecap:butt;stroke-linejoin:round;stroke-opacity:0.94117647"
       inkscape:connector-curvature="0"
       d="m 440.52748,419.00818 0,0 c 7.7233,0 13.98425,6.26099 13.98425,13.98425 l 0,0 c 0,3.70887 -1.47336,7.26581 -4.09588,9.88837 -2.62256,2.62256 -6.17951,4.09589 -9.88837,4.09589 l 0,0 c -7.7233,0 -13.98425,-6.26093 -13.98425,-13.98426 l 0,0 c 0,-7.72326 6.26095,-13.98425 13.98425,-13.98425 z"
       id="path3996" />
  </g>
</svg>
