<?xml version="1.0" encoding="UTF-8" standalone="no"?>
<!-- Generator: Adobe Illustrator 13.0.0, SVG Export Plug-In . SVG Version: 6.00 Build 14948)  -->

<svg
   xmlns:dc="http://purl.org/dc/elements/1.1/"
   xmlns:cc="http://creativecommons.org/ns#"
   xmlns:rdf="http://www.w3.org/1999/02/22-rdf-syntax-ns#"
   xmlns:svg="http://www.w3.org/2000/svg"
   xmlns="http://www.w3.org/2000/svg"
   xmlns:sodipodi="http://sodipodi.sourceforge.net/DTD/sodipodi-0.dtd"
   xmlns:inkscape="http://www.inkscape.org/namespaces/inkscape"
   version="1.1"
   id="Layer_1"
   x="0px"
   y="0px"
   width="862.04022"
   height="927.59698"
   viewBox="0 0 862.04024 927.59703"
   enable-background="new 0 0 2027.125 1244.648"
   xml:space="preserve"
   inkscape:version="0.48.3.1 r9886"
   sodipodi:docname="TshirtEuclid.svg"><metadata
   id="metadata11984"><rdf:RDF><cc:Work
       rdf:about=""><dc:format>image/svg+xml</dc:format><dc:type
         rdf:resource="http://purl.org/dc/dcmitype/StillImage" /><dc:title /></cc:Work></rdf:RDF></metadata><defs
   id="defs11982">
	
	
	
	
	
	
	
	
	
	
	
	
	
	
	
	
	
	
	
	
	
	
	
	
	
	
	
	
</defs><sodipodi:namedview
   pagecolor="#ffffff"
   bordercolor="#666666"
   borderopacity="1"
   objecttolerance="10"
   gridtolerance="10"
   guidetolerance="10"
   inkscape:pageopacity="0"
   inkscape:pageshadow="2"
   inkscape:window-width="1440"
   inkscape:window-height="852"
   id="namedview11980"
   showgrid="false"
   inkscape:zoom="0.70575542"
   inkscape:cx="431.0201"
   inkscape:cy="463.68748"
   inkscape:window-x="0"
   inkscape:window-y="0"
   inkscape:window-maximized="1"
   inkscape:current-layer="Layer_1"
   inkscape:document-units="mm"
   units="mm"
   fit-margin-top="0"
   fit-margin-left="0"
   fit-margin-right="0"
   fit-margin-bottom="0" />

<path
   inkscape:connector-curvature="0"
   id="ellipse10146"
   d="m 810.60444,379.55976 c 0,209.50245 -170.44825,379.33771 -380.70686,379.33771 -210.25861,0 -380.706873,-169.83526 -380.706873,-379.33771 0,-209.50241 170.448263,-379.33770243 380.706873,-379.33770243 210.25861,0 380.70686,169.83529243 380.70686,379.33770243 z"
   style="fill:none;stroke:#000000;stroke-width:0.7086615;stroke-miterlimit:4;stroke-opacity:1;stroke-dasharray:none" /><path
   style="fill:none;stroke:#000000;stroke-width:0.7086615;stroke-miterlimit:4;stroke-opacity:1;stroke-dasharray:none"
   inkscape:connector-curvature="0"
   id="path10148"
   d="m 681.82035,375.62743 c 0,139.10695 -112.7617,251.86865 -251.87501,251.86865 -139.10695,0 -251.8782,-112.7617 -251.8782,-251.86865 0,-139.11649 112.77444,-251.8782 251.8782,-251.8782 139.11331,0 251.87501,112.76171 251.87501,251.8782 z" /><path
   inkscape:connector-curvature="0"
   id="ellipse10150"
   d="m 681.82038,377.50605 c 0,60.29121 -112.76829,109.16686 -251.87501,109.16686 -139.10672,0 -251.87498,-48.87565 -251.87498,-109.16686 0,-60.29118 112.76826,-109.16685 251.87498,-109.16685 139.10672,0 251.87501,48.87567 251.87501,109.16685 z"
   style="fill:none;stroke:#000000;stroke-width:0.7086615;stroke-miterlimit:4;stroke-opacity:1;stroke-dasharray:none" /><path
   inkscape:connector-curvature="0"
   id="ellipse10152"
   d="m 808.72904,377.49968 c 0,88.17797 -170.01773,159.66034 -379.74527,159.66034 -209.72753,0 -379.74527,-71.48237 -379.74527,-159.66034 0,-88.17794 170.01774,-159.6603 379.74527,-159.6603 209.72754,0 379.74527,71.48236 379.74527,159.6603 z"
   style="fill:none;stroke:#000000;stroke-width:0.7086615;stroke-miterlimit:4;stroke-opacity:1;stroke-dasharray:none" /><path
   style="fill:none;stroke:#000000;stroke-width:0.7086615;stroke-miterlimit:4;stroke-opacity:1;stroke-dasharray:none"
   inkscape:connector-curvature="0"
   id="path10154"
   d="M 674.76231,249.20276 C 770.82129,435.34204 742.26161,643.4516 610.95074,714.03672 479.63987,784.60911 295.32793,690.9329 199.26583,504.79998 103.20373,318.66071 131.77276,110.54477 263.08051,39.959652 394.39139,-30.615915 578.69709,63.069847 674.76231,249.20276 z" /><path
   style="fill:none;stroke:#000000;stroke-width:0.7086615;stroke-miterlimit:4;stroke-opacity:1;stroke-dasharray:none"
   inkscape:connector-curvature="0"
   id="path10156"
   d="M 633.81687,111.12428 C 800.15423,238.04567 843.71908,460.55374 731.13569,608.09218 618.53,755.64335 392.42709,772.35987 226.0961,645.41301 59.77147,518.49161 16.200251,295.98355 128.78364,148.44511 241.37659,0.90030262 467.49224,-15.809852 633.81687,111.12428 z" /><path
   inkscape:connector-curvature="0"
   id="line10158"
   d="M 529.57578,222.85433 331.43248,531.61966"
   style="fill:none;stroke:#000000;stroke-width:0.7086615;stroke-miterlimit:4;stroke-opacity:1;stroke-dasharray:none" /><path
   inkscape:connector-curvature="0"
   id="line10160"
   d="m 126.69488,278.99316 602.67685,196.4813"
   style="fill:none;stroke:#000000;stroke-width:0.7086615;stroke-miterlimit:4;stroke-opacity:1;stroke-dasharray:none" /><path
   inkscape:connector-curvature="0"
   id="line10162"
   d="M 729.37173,475.47446 63.949041,335.13205"
   style="fill:none;stroke:#000000;stroke-width:0.7086615;stroke-miterlimit:4;stroke-opacity:1;stroke-dasharray:none" /><path
   inkscape:connector-curvature="0"
   id="line10164"
   d="M 63.949041,335.13205 796.80579,418.55291"
   style="fill:none;stroke:#000000;stroke-width:0.7086615;stroke-miterlimit:4;stroke-opacity:1;stroke-dasharray:none" /><path
   inkscape:connector-curvature="0"
   id="line10166"
   d="M 429.94849,375.62746 430.51208,28.503949"
   style="fill:none;stroke:#000000;stroke-width:0.7086615;stroke-miterlimit:4;stroke-opacity:1;stroke-dasharray:none" /><path
   inkscape:connector-curvature="0"
   id="line10168"
   d="M 430.51208,28.503949 545.35936,96.622324"
   style="fill:none;stroke:#000000;stroke-width:0.7086615;stroke-miterlimit:4;stroke-opacity:1;stroke-dasharray:none" /><path
   inkscape:connector-curvature="0"
   id="line10170"
   d="M 545.35936,94.904507 572.50381,71.641475"
   style="fill:none;stroke:#000000;stroke-width:0.7086615;stroke-miterlimit:4;stroke-opacity:1;stroke-dasharray:none" /><path
   inkscape:connector-curvature="0"
   id="line10172"
   d="M 572.50381,71.641475 430.01536,28.990429"
   style="fill:none;stroke:#000000;stroke-width:0.7086615;stroke-miterlimit:4;stroke-opacity:1;stroke-dasharray:none" /><path
   inkscape:connector-curvature="0"
   id="line10174"
   d="m 572.50381,71.641475 117.2959,91.125685"
   style="fill:none;stroke:#000000;stroke-width:0.7086615;stroke-miterlimit:4;stroke-opacity:1;stroke-dasharray:none" /><path
   inkscape:connector-curvature="0"
   id="line10176"
   d="m 689.79971,162.76716 -45.56769,37.79848"
   style="fill:none;stroke:#000000;stroke-width:0.7086615;stroke-miterlimit:4;stroke-opacity:1;stroke-dasharray:none" /><path
   inkscape:connector-curvature="0"
   id="line10178"
   d="M 644.23202,200.56564 545.35936,94.904507"
   style="fill:none;stroke:#000000;stroke-width:0.7086615;stroke-miterlimit:4;stroke-opacity:1;stroke-dasharray:none" /><path
   inkscape:connector-curvature="0"
   id="line10180"
   d="m 644.23202,200.56564 64.95252,133.77039"
   style="fill:none;stroke:#000000;stroke-width:0.7086615;stroke-miterlimit:4;stroke-opacity:1;stroke-dasharray:none" /><path
   inkscape:connector-curvature="0"
   id="line10182"
   d="m 708.42412,334.33603 58.6784,-49.43633"
   style="fill:none;stroke:#000000;stroke-width:0.7086615;stroke-miterlimit:4;stroke-opacity:1;stroke-dasharray:none" /><path
   inkscape:connector-curvature="0"
   id="line10184"
   d="M 767.10252,284.8997 689.79971,162.76716"
   style="fill:none;stroke:#000000;stroke-width:0.7086615;stroke-miterlimit:4;stroke-opacity:1;stroke-dasharray:none" /><path
   inkscape:connector-curvature="0"
   id="line10186"
   d="m 429.94849,375.62746 323.82618,6.20263"
   style="fill:none;stroke:#000000;stroke-width:0.7086615;stroke-miterlimit:4;stroke-opacity:1;stroke-dasharray:none" /><path
   inkscape:connector-curvature="0"
   id="line10188"
   d="m 753.77467,381.83009 43.10359,36.57701"
   style="fill:none;stroke:#000000;stroke-width:0.7086615;stroke-miterlimit:4;stroke-opacity:1;stroke-dasharray:none" /><path
   inkscape:connector-curvature="0"
   id="line10190"
   d="m 772.20102,309.40445 -0.99029,108.29448"
   style="fill:none;stroke:#000000;stroke-width:0.70866156;stroke-miterlimit:4;stroke-opacity:1;stroke-dasharray:none" /><path
   inkscape:connector-curvature="0"
   id="line10192"
   d="m 771.21073,417.69891 -61.05186,50.40436"
   style="fill:none;stroke:#000000;stroke-width:0.7086615;stroke-miterlimit:4;stroke-opacity:1;stroke-dasharray:none" /><path
   inkscape:connector-curvature="0"
   id="line10194"
   d="M 710.15887,468.10327 709.18454,334.33603"
   style="fill:none;stroke:#000000;stroke-width:0.7086615;stroke-miterlimit:4;stroke-opacity:1;stroke-dasharray:none" /><path
   inkscape:connector-curvature="0"
   id="line10196"
   d="m 709.18454,334.33603 23.26933,138.61344"
   style="fill:none;stroke:#000000;stroke-width:0.7086615;stroke-miterlimit:4;stroke-opacity:1;stroke-dasharray:none" /><path
   inkscape:connector-curvature="0"
   id="line10198"
   d="m 732.45387,472.94947 38.75686,-55.25056"
   style="fill:none;stroke:#000000;stroke-width:0.7086615;stroke-miterlimit:4;stroke-opacity:1;stroke-dasharray:none" /><path
   inkscape:connector-curvature="0"
   id="line10200"
   d="m 753.77467,381.83009 -21.3208,91.11938"
   style="fill:none;stroke:#000000;stroke-width:0.7086615;stroke-miterlimit:4;stroke-opacity:1;stroke-dasharray:none" />













































































































<path
   d="M 320.25839,436.96068"
   id="path11606"
   inkscape:connector-curvature="0"
   style="fill:#030303" />

































<g
   id="layer1"
   inkscape:label="Layer 1"
   transform="matrix(1.1253789,0,0,1.1253789,-157.28542,124.56285)"
   style="fill:none;fill-opacity:1;stroke:#000000;stroke-opacity:1;stroke-width:0.62970921;stroke-miterlimit:4;stroke-dasharray:none"><path
     inkscape:connector-curvature="0"
     id="path3810"
     d="m 866.43498,707.58569 c -0.37004,-4.34548 -0.6728,-14.13298 -0.6728,-21.75 l 0,-13.84912 12,0 12,0 0,-4 0,-4 -12,0 -12,0 0,-26.5 0,-26.5 8,0 8,0 0,18.5 0,18.5 4,0 4,0 0,-18.5 0,-18.5 8,0 8,0 -0.007,38.25 c -0.008,41.39923 -0.59256,53.82912 -2.33759,49.67984 -0.61487,-1.46174 -1.18568,-18.66548 -1.43281,-43.17984 l -0.41079,-40.75 -3.90591,0 -3.9059,0 0,18.5 0,18.5 -8,0 -8,0 0,-18.5 0,-18.5 -4,0 -4,0 0,22.5 0,22.5 12,0 12,0 0,8 0,8 -11.85352,0 -11.85352,0 -0.5943,16.75 c -0.72495,20.43221 -2.01241,26.75029 -3.02586,14.84912 z m -239,-1 c -0.37004,-4.34548 -0.6728,-27.65191 -0.6728,-51.79206 l 0,-43.89119 7.75,0.29207 7.75,0.29206 4.18188,12 4.18189,12 0.0681,-12.25 0.0681,-12.25 8,0 8,0 -0.007,40.75 c -0.004,22.4125 -0.30669,43.9 -0.67285,47.75 -1.4858,15.62261 -2.62044,0.12398 -3.05649,-41.75 l -0.44529,-42.75 -3.88968,0 -3.88969,0 -0.2695,21.71024 -0.2695,21.71025 -7.40703,-21.71025 -7.40703,-21.71024 -4.26527,0 -4.26527,0 -0.41544,46.75 c -0.23916,26.91214 -0.83531,48.02302 -1.4049,49.75 -0.87912,2.66548 -1.06448,2.119 -1.66226,-4.90088 z m -39.02191,-1.20089 c -0.35799,-4.23499 -0.65089,-13.48209 -0.65089,-20.54911 l 0,-12.84912 8,0 8,0 -0.007,6.75 c -0.01,9.49939 -1.13181,20.28217 -2.051,19.71409 -0.42584,-0.26319 -1.09487,-5.42527 -1.48672,-11.4713 l -0.71259,-10.99279 -3.72003,0 -3.72004,0 -0.56928,17.61797 c -0.61656,19.08134 -2.01388,24.42148 -3.08245,11.78026 z m 90.01095,0.12955 c -0.36401,-4.30624 -0.66184,-27.33664 -0.66184,-51.17866 l 0,-43.34912 20,0 20,0 -0.007,38.75 c -0.008,41.88153 -0.58822,54.3375 -2.33873,50.17984 -0.61752,-1.46641 -1.18525,-18.78545 -1.43197,-43.67984 l -0.40881,-41.25 -15.82189,0 -15.82189,0 -0.38922,46.75 c -0.24187,29.05051 -0.78063,47.66949 -1.42302,49.17866 -0.87425,2.05385 -1.13593,1.22036 -1.69563,-5.40088 z m 87,0 c -0.36401,-4.30624 -0.66184,-27.33664 -0.66184,-51.17866 l 0,-43.34912 20,0 20,0 -0.007,38.75 c -0.008,41.88153 -0.58822,54.3375 -2.33873,50.17984 -0.61752,-1.46641 -1.18525,-18.78545 -1.43197,-43.67984 l -0.40881,-41.25 -15.82189,0 -15.82189,0 -0.38922,46.75 c -0.24187,29.05051 -0.78063,47.66949 -1.42302,49.17866 -0.87425,2.05385 -1.13593,1.22036 -1.69563,-5.40088 z m -536.91819,2.97222 c -0.38784,-1.65 -1.00879,-9.6375 -1.37988,-17.75 l -0.6747,-14.75 -11.84454,0 -11.84453,0 0,-8 0,-8 12,0 12,0 0,-4 0,-4 -12,0 -12,0 0,-14.5 0,-14.5 8,0 8,0 0,6 0,6 4,0 4,0 0,-10 0,-10 -15.90919,0 -15.90918,0 -0.40308,42.75 c -0.24534,26.02124 -0.80452,43.70037 -1.42897,45.17866 -1.73201,4.10026 -2.34958,-9.71981 -2.34958,-52.57954 l 0,-39.34912 20,0 20,0 0,14 0,14 -8,0 -8,0 0,-6 0,-6 -4,0 -4,0 0,10.5 0,10.5 12,0 12,0 0,8 0,8 -12,0 -12,0 0,4 0,4 12,0 12,0 -0.0989,14.25 c -0.0544,7.8375 -0.40341,16.725 -0.77559,19.75 -0.60587,4.92435 -0.7505,5.18601 -1.38186,2.5 z m 101,0 c -0.38784,-1.65 -1.00879,-9.6375 -1.37988,-17.75 l -0.6747,-14.75 -11.84454,0 -11.84453,0 0,-8 0,-8 12,0 12,0 0,-4 0,-4 -12,0 -12,0 0,-14.5 0,-14.5 8,0 8,0 0,6 0,6 4,0 4,0 0,-10 0,-10 -15.90919,0 -15.90918,0 -0.40308,42.75 c -0.24534,26.02124 -0.80452,43.70037 -1.42897,45.17866 -1.73201,4.10026 -2.34958,-9.71981 -2.34958,-52.57954 l 0,-39.34912 20,0 20,0 0,14 0,14 -8,0 -8,0 0,-6 0,-6 -4,0 -4,0 0,10.5 0,10.5 12,0 12,0 0,8 0,8 -12,0 -12,0 0,4 0,4 12,0 12,0 -0.0989,14.25 c -0.0544,7.8375 -0.40341,16.725 -0.77559,19.75 -0.60587,4.92435 -0.7505,5.18601 -1.38186,2.5 z m 184,0 c -0.38784,-1.65 -1.00879,-9.6375 -1.37988,-17.75 l -0.6747,-14.75 -11.84454,0 -11.84453,0 0,-8 0,-8 12,0 12,0 0,-4 0,-4 -12,0 -12,0 0,-14.5 0,-14.5 8,0 8,0 0,6 0,6 4,0 4,0 0,-10 0,-10 -15.90919,0 -15.90918,0 -0.40308,42.75 c -0.24534,26.02124 -0.80452,43.70037 -1.42897,45.17866 -1.73201,4.10026 -2.34958,-9.71981 -2.34958,-52.57954 l 0,-39.34912 20,0 20,0 0,14 0,14 -8,0 -8,0 0,-6 0,-6 -4,0 -4,0 0,10.5 0,10.5 12,0 12,0 0,8 0,8 -12,0 -12,0 0,4 0,4 12,0 12,0 -0.0989,14.25 c -0.0544,7.8375 -0.40341,16.725 -0.77559,19.75 -0.60587,4.92435 -0.7505,5.18601 -1.38186,2.5 z m -272.08181,-5.97222 c -0.36401,-4.30624 -0.66184,-26.66164 -0.66184,-49.67866 l 0,-41.84912 20,0 20,0 0,20 c 0,11 -0.3375,20.00231 -0.75,20.00512 -0.4125,0.003 -2.53568,1.08597 -4.71817,2.40701 l -3.96817,2.40187 4.71817,2.29227 4.71817,2.29226 -0.0989,15.55074 c -0.0544,8.5529 -0.40988,18.02573 -0.78997,21.05073 -0.68874,5.48138 -0.69392,5.48821 -1.53145,2.01832 -0.4622,-1.91493 -1.11921,-10.91493 -1.46002,-20 l -0.61966,-16.51832 -5.68738,-3.02071 c -3.12805,-1.66139 -5.9936,-3.32693 -6.36787,-3.70121 -0.37428,-0.37427 2.29754,-2.14904 5.93737,-3.94392 l 6.61788,-3.26342 0,-16.78537 0,-16.78537 -15.913,0 -15.913,0 -0.39419,45.25 c -0.24318,27.91564 -0.78913,46.18037 -1.42516,47.67866 -0.87092,2.05162 -1.13372,1.21318 -1.69281,-5.40088 z m 101,0 c -0.36401,-4.30624 -0.66184,-26.66164 -0.66184,-49.67866 l 0,-41.84912 8,0 8,0 0,30.5 0,30.5 6,0 6,0 -0.007,7.25 c -0.01,10.12329 -1.13853,21.00688 -2.07922,20.05066 -0.43332,-0.44036 -1.10516,-5.86316 -1.4931,-12.05066 l -0.70533,-11.25 -5.85768,0 -5.85767,0 0,-30.5 0,-30.5 -3.913,0 -3.913,0 -0.39419,45.25 c -0.24318,27.91564 -0.78913,46.18037 -1.42516,47.67866 -0.87092,2.05162 -1.13372,1.21318 -1.69281,-5.40088 z m 221.03741,4.97222 c -0.41226,-1.65 -1.02768,-12.1125 -1.3676,-23.25 l -0.61804,-20.25 -3.8568,0 -3.85681,0 0,6 0,6 -8,0 -8,0 0,-26.5 0,-26.5 8,0 8,0 0,6 0,6 4,0 4,0 0,-10 0,-10 -15.90675,0 -15.90674,0 -0.40881,41.25 c -0.2466,24.88259 -0.81457,42.21366 -1.43142,43.67866 -1.7153,4.07379 -2.34628,-9.66289 -2.34628,-51.07954 l 0,-37.84912 20,0 20,0 0,14 0,14 -8,0 -8,0 0,-6 0,-6 -4,0 -4,0 0,22.5 0,22.5 4,0 4,0 0,-6 0,-6 8,0 8,0 -0.0989,19.75 c -0.0544,10.8625 -0.40341,22.225 -0.77559,25.25 -0.61438,4.9935 -0.74572,5.22373 -1.42626,2.5 z m 165.96259,-4.97222 c -0.36401,-4.30624 -0.66184,-26.66164 -0.66184,-49.67866 l 0,-41.84912 8,0 8,0 0,30.5 0,30.5 6,0 6,0 -0.007,7.25 c -0.01,10.12329 -1.13853,21.00688 -2.07922,20.05066 -0.43332,-0.44036 -1.10516,-5.86316 -1.4931,-12.05066 l -0.70533,-11.25 -5.85768,0 -5.85767,0 0,-30.5 0,-30.5 -3.913,0 -3.913,0 -0.39419,45.25 c -0.24318,27.91564 -0.78913,46.18037 -1.42516,47.67866 -0.87092,2.05162 -1.13372,1.21318 -1.69281,-5.40088 z m 124.00693,3.97222 c -0.42903,-1.65 -1.03726,-14.5875 -1.35163,-28.75 l -0.57158,-25.75 -3.87278,0 -3.87278,0 0,12 0,12 -8,0 -8,0 0,-26.5 0,-26.5 8,0 8,0 0,6 0,6 4,0 4,0 0,-10 0,-10 -15.91359,0 -15.91359,0 -0.39287,40.75 c -0.2395,24.84244 -0.79561,41.69807 -1.42457,43.17866 -1.72146,4.05236 -2.35538,-9.5604 -2.35538,-50.57954 l 0,-37.34912 20,0 20,0 0,14 0,14 -8,0 -8,0 0,-6 0,-6 -4,0 -4,0 0,22.5 0,22.5 4,0 4,0 0,-12 0,-12 8,0 8,0 -0.0989,25.25 c -0.0544,13.8875 -0.40341,27.725 -0.77559,30.75 -0.61984,5.03788 -0.74223,5.24793 -1.45674,2.5 z m -240.06673,-3.5 c -0.47613,-1.375 -1.07546,-21.7375 -1.33183,-45.25 l -0.46613,-42.75 -3.90204,0 -3.90204,0 0,24.5 0,24.5 -8,0 -8,0 0,-24.5 0,-24.5 -3.91439,0 -3.91438,0 -0.43331,41.25 c -0.24049,22.89444 -0.86926,42.58495 -1.41301,44.25 -1.63848,5.01732 -2.31229,-10.0197 -2.31892,-51.75 l -0.006,-37.75 8,0 8,0 0,24.5 0,24.5 4,0 4,0 0,-24.5 0,-24.5 8,0 8,0 -0.0989,41.75 c -0.10159,42.88659 -0.65562,54.99597 -2.29906,50.25 z m 39.06047,-6.5 c -0.47016,-5.14925 -2.23281,-12.4543 -4.94648,-20.5 l -4.21603,-12.5 -0.6209,15 c -0.34149,8.25 -0.67899,16.5525 -0.75,18.45 -0.10026,2.67925 -0.39662,3.18248 -1.32655,2.25255 -0.84673,-0.84673 -1.3189,-8.88634 -1.61213,-27.45 -0.22808,-14.4389 -0.23958,-27.37755 -0.0255,-28.75255 0.25575,-1.64303 3.09371,5.55551 8.27906,21 8.11939,24.18347 8.51749,26.36011 6.67562,36.5 -0.66614,3.66728 -0.78734,3.33456 -1.45704,-4 z m -512.00067,-0.97222 c -0.36401,-4.30624 -0.66184,-25.08664 -0.66184,-46.17866 l 0,-38.34912 20,0 20,0 0,25.98083 0,25.98084 -4.74667,2.41232 -4.74666,2.41232 4.74666,2.30611 4.74667,2.30611 -0.0989,10.05074 c -0.0544,5.5279 -0.41945,12.52573 -0.81124,15.55073 -0.69499,5.36596 -0.72952,5.4147 -1.41689,2 -0.3875,-1.925 -1.03494,-8.45 -1.43875,-14.5 l -0.73422,-11 -5.68738,-3.02071 c -3.12805,-1.66139 -5.9936,-3.32693 -6.36787,-3.70121 -0.37428,-0.37427 2.29754,-2.14904 5.93737,-3.94392 l 6.61788,-3.26342 0,-22.78537 0,-22.78537 -15.90757,0 -15.90758,0 -0.40686,41.75 c -0.24618,25.26232 -0.81114,42.70911 -1.43059,44.17866 -0.86236,2.04585 -1.12804,1.19456 -1.68556,-5.40088 z m 11.98905,-1.12954 c -0.35799,-4.235 -0.65089,-11.03773 -0.65089,-15.11719 l 0,-7.4172 7.99901,4.31808 c 7.94911,4.29113 7.99898,4.34303 7.9929,8.31807 -0.0107,7.01069 -1.24939,17.4589 -2.01378,16.98649 -0.40591,-0.25087 -1.05411,-4.67229 -1.44046,-9.82538 l -0.70244,-9.36926 -3.45154,-1.64592 c -1.89835,-0.90526 -3.595,-1.64593 -3.77033,-1.64593 -0.17534,0 -0.63148,4.8364 -1.01364,10.74757 -0.38217,5.91116 -1.05555,11.10826 -1.4964,11.54911 -0.44085,0.44085 -1.09444,-2.66345 -1.45243,-6.89844 z m 287,0 c -0.35799,-4.235 -0.65089,-21.1321 -0.65089,-37.54912 l 0,-29.84912 -6,0 -6,0 0,-8 0,-8 20,0 20,0 0,8 0,8 -6,0 -6,0 -0.007,30.75 c -0.008,33.84451 -0.62577,45.01684 -2.39223,43.25114 -0.75018,-0.74986 -1.21164,-13.34382 -1.44918,-39.55067 l -0.34862,-38.45047 6.09851,0 6.09852,0 0,-4 0,-4 -16,0 -16,0 0,4 0,4 6.09061,0 6.0906,0 -0.3406,38.45074 c -0.23195,26.18383 -0.69126,38.80115 -1.43972,39.54911 -0.79872,0.79819 -1.277,-1.00605 -1.75,-6.60161 z m -186.65089,-26.4094 0,-8.01116 8,4.02232 c 7.99067,4.01763 8,4.02697 8,8.01116 l 0,3.98884 -8,0 -8,0 0,-8.01116 z m 12,3.19637 c 0,-0.70808 -6.25929,-4.18521 -7.53393,-4.18521 -0.25634,0 -0.46607,1.125 -0.46607,2.5 0,2.25 0.4,2.5 4,2.5 2.2,0 4,-0.36665 4,-0.81479 z m 425,-21.68521 0,-26.5 8,0 8,0 0,26.5 0,26.5 -8,0 -8,0 0,-26.5 z m 12,0 0,-22.5 -4,0 -4,0 0,22.5 0,22.5 4,0 4,0 0,-22.5 z m 75,0 0,-26.5 8,0 8,0 0,26.5 0,26.5 -8,0 -8,0 0,-26.5 z m 12,0 0,-22.5 -4,0 -4,0 0,22.5 0,22.5 4,0 4,0 0,-22.5 z m -637,-6.5 0,-20 8,0 8,0 0,15.90961 0,15.90962 -7.4529,4.09038 c -4.09909,2.24972 -7.69909,4.09039 -8,4.09039 -0.3009,0 -0.5471,-9 -0.5471,-20 z m 12,-3.02032 0,-12.97968 -4,0 -4,0 0,15.02032 0,15.02033 4,-2.04065 4,-2.04065 0,-12.97967 z m 89,-2.96852 0,-14.01116 8,0 8,0 0,9.98884 0,9.98884 -8,4.02232 -8,4.02232 0,-14.01116 z m 12,-3.03148 0,-6.97968 -4,0 -4,0 0,9.02032 0,9.02033 4,-2.04065 4,-2.04065 0,-6.97967 z"
     style="fill:none;fill-opacity:1;stroke:#000000;stroke-opacity:1;stroke-width:0.62970921;stroke-miterlimit:4;stroke-dasharray:none" /></g></svg>