  0
SECTION
  2
HEADER
  9
$ACADVER
  1
AC1015
  9
$ACADMAINTVER
 70
     6
  9
$DWGCODEPAGE
  3
ANSI_1252
  9
$INSBASE
 10
0.0
 20
0.0
 30
0.0
  9
$EXTMIN
 10
0.0
 20
0.0
 30
0.0
  9
$EXTMAX
 10
538.359853
 20
64.599998
 30
0.0
  9
$LIMMIN
 10
0.0
 20
0.0
  9
$LIMMAX
 10
420.0
 20
297.0
  9
$ORTHOMODE
 70
     0
  9
$REGENMODE
 70
     1
  9
$FILLMODE
 70
     1
  9
$QTEXTMODE
 70
     0
  9
$MIRRTEXT
 70
     1
  9
$LTSCALE
 40
1.0
  9
$ATTMODE
 70
     1
  9
$TEXTSIZE
 40
3.5
  9
$TRACEWID
 40
1.0
  9
$TEXTSTYLE
  7
Standard
  9
$CLAYER
  8
0
  9
$CELTYPE
  6
ByLayer
  9
$CECOLOR
 62
   256
  9
$CELTSCALE
 40
1.0
  9
$DISPSILH
 70
     0
  9
$DIMSCALE
 40
1.0
  9
$DIMASZ
 40
3.302
  9
$DIMEXO
 40
1.0
  9
$DIMDLI
 40
3.75
  9
$DIMRND
 40
0.0
  9
$DIMDLE
 40
0.0
  9
$DIMEXE
 40
1.0
  9
$DIMTP
 40
0.0
  9
$DIMTM
 40
0.0
  9
$DIMTXT
 40
3.5
  9
$DIMCEN
 40
2.5
  9
$DIMTSZ
 40
0.0
  9
$DIMTOL
 70
     0
  9
$DIMLIM
 70
     0
  9
$DIMTIH
 70
     1
  9
$DIMTOH
 70
     1
  9
$DIMSE1
 70
     0
  9
$DIMSE2
 70
     0
  9
$DIMTAD
 70
     1
  9
$DIMZIN
 70
     0
  9
$DIMBLK
  1

  9
$DIMASO
 70
     1
  9
$DIMSHO
 70
     1
  9
$DIMPOST
  1

  9
$DIMAPOST
  1

  9
$DIMALT
 70
     0
  9
$DIMALTD
 70
     3
  9
$DIMALTF
 40
0.0393700787
  9
$DIMLFAC
 40
1.0
  9
$DIMTOFL
 70
     1
  9
$DIMTVP
 40
0.0
  9
$DIMTIX
 70
     0
  9
$DIMSOXD
 70
     0
  9
$DIMSAH
 70
     0
  9
$DIMBLK1
  1

  9
$DIMBLK2
  1

  9
$DIMSTYLE
  2
ISO-25
  9
$DIMCLRD
 70
     0
  9
$DIMCLRE
 70
     0
  9
$DIMCLRT
 70
     0
  9
$DIMTFAC
 40
1.0
  9
$DIMGAP
 40
1.524
  9
$DIMJUST
 70
     0
  9
$DIMSD1
 70
     0
  9
$DIMSD2
 70
     0
  9
$DIMTOLJ
 70
     0
  9
$DIMTZIN
 70
     0
  9
$DIMALTZ
 70
     0
  9
$DIMALTTZ
 70
     0
  9
$DIMUPT
 70
     0
  9
$DIMDEC
 70
     2
  9
$DIMTDEC
 70
     2
  9
$DIMALTU
 70
     2
  9
$DIMALTTD
 70
     3
  9
$DIMTXSTY
  7
Standard
  9
$DIMAUNIT
 70
     0
  9
$DIMADEC
 70
     2
  9
$DIMALTRND
 40
0.0
  9
$DIMAZIN
 70
     0
  9
$DIMDSEP
 70
    44
  9
$DIMATFIT
 70
     3
  9
$DIMFRAC
 70
     0
  9
$DIMLDRBLK
  1

  9
$DIMLUNIT
 70
     2
  9
$DIMLWD
 70
    -2
  9
$DIMLWE
 70
    -2
  9
$DIMTMOVE
 70
     0
  9
$LUNITS
 70
     2
  9
$LUPREC
 70
     2
  9
$SKETCHINC
 40
1.0
  9
$FILLETRAD
 40
10.0
  9
$AUNITS
 70
     0
  9
$AUPREC
 70
     2
  9
$MENU
  1
.
  9
$ELEVATION
 40
0.0
  9
$PELEVATION
 40
0.0
  9
$THICKNESS
 40
0.0
  9
$LIMCHECK
 70
     0
  9
$CHAMFERA
 40
0.0
  9
$CHAMFERB
 40
0.0
  9
$CHAMFERC
 40
0.0
  9
$CHAMFERD
 40
0.0
  9
$SKPOLY
 70
     0
  9
$TDCREATE
 40
2457576.468310521
  9
$TDUCREATE
 40
2457576.426643854
  9
$TDUPDATE
 40
2457576.468417986
  9
$TDUUPDATE
 40
2457576.426751319
  9
$TDINDWG
 40
0.0000000116
  9
$TDUSRTIMER
 40
0.0000000116
  9
$USRTIMER
 70
     1
  9
$ANGBASE
 50
0.0
  9
$ANGDIR
 70
     0
  9
$PDMODE
 70
     0
  9
$PDSIZE
 40
-1.0
  9
$PLINEWID
 40
0.0
  9
$SPLFRAME
 70
     0
  9
$SPLINETYPE
 70
     6
  9
$SPLINESEGS
 70
     8
  9
$HANDSEED
  5
4D6
  9
$SURFTAB1
 70
     6
  9
$SURFTAB2
 70
     6
  9
$SURFTYPE
 70
     6
  9
$SURFU
 70
     6
  9
$SURFV
 70
     6
  9
$UCSBASE
  2

  9
$UCSNAME
  2

  9
$UCSORG
 10
0.0
 20
0.0
 30
0.0
  9
$UCSXDIR
 10
1.0
 20
0.0
 30
0.0
  9
$UCSYDIR
 10
0.0
 20
1.0
 30
0.0
  9
$UCSORTHOREF
  2

  9
$UCSORTHOVIEW
 70
     0
  9
$UCSORGTOP
 10
0.0
 20
0.0
 30
0.0
  9
$UCSORGBOTTOM
 10
0.0
 20
0.0
 30
0.0
  9
$UCSORGLEFT
 10
0.0
 20
0.0
 30
0.0
  9
$UCSORGRIGHT
 10
0.0
 20
0.0
 30
0.0
  9
$UCSORGFRONT
 10
0.0
 20
0.0
 30
0.0
  9
$UCSORGBACK
 10
0.0
 20
0.0
 30
0.0
  9
$PUCSBASE
  2

  9
$PUCSNAME
  2

  9
$PUCSORG
 10
0.0
 20
0.0
 30
0.0
  9
$PUCSXDIR
 10
1.0
 20
0.0
 30
0.0
  9
$PUCSYDIR
 10
0.0
 20
1.0
 30
0.0
  9
$PUCSORTHOREF
  2

  9
$PUCSORTHOVIEW
 70
     0
  9
$PUCSORGTOP
 10
0.0
 20
0.0
 30
0.0
  9
$PUCSORGBOTTOM
 10
0.0
 20
0.0
 30
0.0
  9
$PUCSORGLEFT
 10
0.0
 20
0.0
 30
0.0
  9
$PUCSORGRIGHT
 10
0.0
 20
0.0
 30
0.0
  9
$PUCSORGFRONT
 10
0.0
 20
0.0
 30
0.0
  9
$PUCSORGBACK
 10
0.0
 20
0.0
 30
0.0
  9
$USERI1
 70
     0
  9
$USERI2
 70
     0
  9
$USERI3
 70
     0
  9
$USERI4
 70
     0
  9
$USERI5
 70
     0
  9
$USERR1
 40
0.0
  9
$USERR2
 40
0.0
  9
$USERR3
 40
0.0
  9
$USERR4
 40
0.0
  9
$USERR5
 40
0.0
  9
$WORLDVIEW
 70
     1
  9
$SHADEDGE
 70
     3
  9
$SHADEDIF
 70
    70
  9
$TILEMODE
 70
     1
  9
$MAXACTVP
 70
    64
  9
$PINSBASE
 10
0.0
 20
0.0
 30
0.0
  9
$PLIMCHECK
 70
     0
  9
$PEXTMIN
 10
1.0000000000E+20
 20
1.0000000000E+20
 30
1.0000000000E+20
  9
$PEXTMAX
 10
-1.0000000000E+20
 20
-1.0000000000E+20
 30
-1.0000000000E+20
  9
$PLIMMIN
 10
0.0
 20
0.0
  9
$PLIMMAX
 10
420.0
 20
297.0
  9
$UNITMODE
 70
     0
  9
$VISRETAIN
 70
     1
  9
$PLINEGEN
 70
     0
  9
$PSLTSCALE
 70
     1
  9
$TREEDEPTH
 70
  3020
  9
$CMLSTYLE
  2
Standard
  9
$CMLJUST
 70
     0
  9
$CMLSCALE
 40
20.0
  9
$PROXYGRAPHICS
 70
     1
  9
$MEASUREMENT
 70
     1
  9
$CELWEIGHT
370
    -1
  9
$ENDCAPS
280
     0
  9
$JOINSTYLE
280
     0
  9
$LWDISPLAY
290
     1
  9
$INSUNITS
 70
     4
  9
$HYPERLINKBASE
  1

  9
$STYLESHEET
  1

  9
$XEDIT
290
     1
  9
$CEPSNTYPE
380
     0
  9
$PSTYLEMODE
290
     1
  9
$FINGERPRINTGUID
  2
{9C735874-A066-44FE-80EF-56F06DC25AEE}
  9
$VERSIONGUID
  2
{FAEB1C32-E019-11D5-929B-00C0DF256EC4}
  9
$EXTNAMES
290
     1
  9
$PSVPSCALE
 40
0.0
  9
$OLESTARTUP
290
     0
  0
ENDSEC
  0
SECTION
  2
CLASSES
  0
CLASS
  1
ACDBDICTIONARYWDFLT
  2
AcDbDictionaryWithDefault
  3
ObjectDBX Classes
 90
        0
280
     0
281
     0
  0
CLASS
  1
VISUALSTYLE
  2
AcDbVisualStyle
  3
ObjectDBX Classes
 90
     4095
280
     0
281
     0
  0
CLASS
  1
MATERIAL
  2
AcDbMaterial
  3
ObjectDBX Classes
 90
     1153
280
     0
281
     0
  0
CLASS
  1
SCALE
  2
AcDbScale
  3
ObjectDBX Classes
 90
     1153
280
     0
281
     0
  0
CLASS
  1
TABLESTYLE
  2
AcDbTableStyle
  3
ObjectDBX Classes
 90
     4095
280
     0
281
     0
  0
CLASS
  1
MLEADERSTYLE
  2
AcDbMLeaderStyle
  3
ACDB_MLEADERSTYLE_CLASS
 90
     4095
280
     0
281
     0
  0
CLASS
  1
SUN
  2
AcDbSun
  3
SCENEOE
 90
     1153
280
     0
281
     0
  0
CLASS
  1
ACDBPLACEHOLDER
  2
AcDbPlaceHolder
  3
ObjectDBX Classes
 90
        0
280
     0
281
     0
  0
CLASS
  1
LAYOUT
  2
AcDbLayout
  3
ObjectDBX Classes
 90
        0
280
     0
281
     0
  0
ENDSEC
  0
SECTION
  2
TABLES
  0
TABLE
  2
VPORT
  5
8
330
0
100
AcDbSymbolTable
 70
     1
  0
VPORT
  5
29
330
8
100
AcDbSymbolTableRecord
100
AcDbViewportTableRecord
  2
*Active
 70
     0
 10
0.0
 20
0.0
 11
1.0
 21
1.0
 12
269.1799265
 22
32.299999
 13
0.0
 23
0.0
 14
10.0
 24
10.0
 15
10.0
 25
10.0
 16
0.0
 26
0.0
 36
1.0
 17
0.0
 27
0.0
 37
0.0
 40
65.89199796
 41
8.3337441125
 42
50.0
 43
0.0
 44
0.0
 50
0.0
 51
0.0
 71
     0
 72
   100
 73
     1
 74
     3
 75
     0
 76
     0
 77
     0
 78
     0
281
     0
 65
     1
110
0.0
120
0.0
130
0.0
111
1.0
121
0.0
131
0.0
112
0.0
122
1.0
132
0.0
 79
     0
146
0.0
  0
ENDTAB
  0
TABLE
  2
LTYPE
  5
5
330
0
100
AcDbSymbolTable
 70
     6
  0
LTYPE
  5
14
330
5
100
AcDbSymbolTableRecord
100
AcDbLinetypeTableRecord
  2
ByBlock
 70
     0
  3

 72
    65
 73
     0
 40
0.0
  0
LTYPE
  5
15
330
5
100
AcDbSymbolTableRecord
100
AcDbLinetypeTableRecord
  2
ByLayer
 70
     0
  3

 72
    65
 73
     0
 40
0.0
  0
LTYPE
  5
16
330
5
100
AcDbSymbolTableRecord
100
AcDbLinetypeTableRecord
  2
Continuous
 70
     0
  3
Solid line
 72
    65
 73
     0
 40
0.0
  0
LTYPE
  5
6E
330
5
100
AcDbSymbolTableRecord
100
AcDbLinetypeTableRecord
  2
HIDDEN
 70
     0
  3
Hidden __ __ __ __ __ __ __ __ __ __ __ __ __ __
 72
    65
 73
     2
 40
1.905
 49
1.27
 74
     0
 49
-0.635
 74
     0
  0
LTYPE
  5
6F
330
5
100
AcDbSymbolTableRecord
100
AcDbLinetypeTableRecord
  2
PHANTOM
 70
     0
  3
Phantom ______  __  __  ______  __  __  ______
 72
    65
 73
     6
 40
12.7
 49
6.35
 74
     0
 49
-1.27
 74
     0
 49
1.27
 74
     0
 49
-1.27
 74
     0
 49
1.27
 74
     0
 49
-1.27
 74
     0
  0
LTYPE
  5
70
330
5
100
AcDbSymbolTableRecord
100
AcDbLinetypeTableRecord
  2
CENTER
 70
     0
  3
Center ____ _ ____ _ ____ _ ____ _ ____ _ ____
 72
    65
 73
     4
 40
10.16
 49
6.35
 74
     0
 49
-1.27
 74
     0
 49
1.27
 74
     0
 49
-1.27
 74
     0
  0
LTYPE
  5
71
330
5
100
AcDbSymbolTableRecord
100
AcDbLinetypeTableRecord
  2
CENTERX2
 70
     0
  3
Center (2x) ________  __  ________  __  _____
 72
    65
 73
     4
 40
20.32
 49
12.7
 74
     0
 49
-2.54
 74
     0
 49
2.54
 74
     0
 49
-2.54
 74
     0
  0
LTYPE
  5
72
330
5
100
AcDbSymbolTableRecord
100
AcDbLinetypeTableRecord
  2
DOT2
 70
     0
  3
Dot (.5x) ........................................
 72
    65
 73
     2
 40
0.635
 49
0.0
 74
     0
 49
-0.635
 74
     0
  0
ENDTAB
  0
TABLE
  2
LAYER
  5
2
330
0
100
AcDbSymbolTable
 70
     1
  0
LAYER
  5
10
330
2
100
AcDbSymbolTableRecord
100
AcDbLayerTableRecord
  2
0
 70
     0
 62
     7
  6
Continuous
370
    -3
390
F
  0
ENDTAB
  0
TABLE
  2
STYLE
  5
3
330
0
100
AcDbSymbolTable
 70
     1
  0
STYLE
  5
11
330
3
100
AcDbSymbolTableRecord
100
AcDbTextStyleTableRecord
  2
Standard
 70
     0
 40
0.0
 41
1.0
 50
0.0
 71
     0
 42
3.5
  3
txt
  4

  0
ENDTAB
  0
TABLE
  2
VIEW
  5
6
330
0
100
AcDbSymbolTable
 70
     0
  0
ENDTAB
  0
TABLE
  2
UCS
  5
7
330
0
100
AcDbSymbolTable
 70
     0
  0
ENDTAB
  0
TABLE
  2
APPID
  5
9
330
0
100
AcDbSymbolTable
 70
     1
  0
APPID
  5
12
330
9
100
AcDbSymbolTableRecord
100
AcDbRegAppTableRecord
  2
ACAD
 70
     0
  0
ENDTAB
  0
TABLE
  2
DIMSTYLE
  5
A
330
0
100
AcDbSymbolTable
 70
     1
100
AcDbDimStyleTable
  0
DIMSTYLE
105
27
330
A
100
AcDbSymbolTableRecord
100
AcDbDimStyleTableRecord
  2
ISO-25
 70
     0
 41
2.5
 42
0.625
 43
3.75
 44
1.25
 73
     0
 74
     0
 77
     1
 78
     8
140
2.5
141
2.5
143
0.0393700787
147
0.625
171
     3
172
     1
178
     0
271
     2
272
     2
274
     3
278
    44
283
     0
284
     8
340
11
  0
ENDTAB
  0
TABLE
  2
BLOCK_RECORD
  5
1
330
0
100
AcDbSymbolTable
 70
     1
  0
BLOCK_RECORD
  5
1F
330
1
100
AcDbSymbolTableRecord
100
AcDbBlockTableRecord
  2
*Model_Space
340
22
  0
BLOCK_RECORD
  5
1B
330
1
100
AcDbSymbolTableRecord
100
AcDbBlockTableRecord
  2
*Paper_Space
340
1E
  0
BLOCK_RECORD
  5
23
330
1
100
AcDbSymbolTableRecord
100
AcDbBlockTableRecord
  2
*Paper_Space0
340
26
  0
ENDTAB
  0
ENDSEC
  0
SECTION
  2
BLOCKS
  0
BLOCK
  5
20
330
1F
100
AcDbEntity
  8
0
100
AcDbBlockBegin
  2
*Model_Space
 70
     0
 10
0.0
 20
0.0
 30
0.0
  3
*Model_Space
  1

  0
ENDBLK
  5
21
330
1F
100
AcDbEntity
  8
0
100
AcDbBlockEnd
  0
BLOCK
  5
1C
330
1B
100
AcDbEntity
 67
     1
  8
0
100
AcDbBlockBegin
  2
*Paper_Space
 70
     0
 10
0.0
 20
0.0
 30
0.0
  3
*Paper_Space
  1

  0
ENDBLK
  5
1D
330
1B
100
AcDbEntity
 67
     1
  8
0
100
AcDbBlockEnd
  0
BLOCK
  5
24
330
23
100
AcDbEntity
  8
0
100
AcDbBlockBegin
  2
*Paper_Space0
 70
     0
 10
0.0
 20
0.0
 30
0.0
  3
*Paper_Space0
  1

  0
ENDBLK
  5
25
330
23
100
AcDbEntity
  8
0
100
AcDbBlockEnd
  0
ENDSEC
  0
SECTION
  2
ENTITIES
  0
LINE
  5
73
330
1F
100
AcDbEntity
  8
0
  6
Continuous
 62
     7
100
AcDbLine
 10
533.360201
 20
49.205969
 30
0.0
 11
533.360201
 21
64.599998
 31
0.0
  0
LINE
  5
74
330
1F
100
AcDbEntity
  8
0
  6
Continuous
 62
     7
100
AcDbLine
 10
0.0
 20
0.0
 30
0.0
 11
9.51847
 21
0.0
 31
0.0
  0
LINE
  5
75
330
1F
100
AcDbEntity
  8
0
  6
Continuous
 62
     7
100
AcDbLine
 10
9.51847
 20
3.000022
 30
0.0
 11
9.51847
 21
0.0
 31
0.0
  0
LINE
  5
76
330
1F
100
AcDbEntity
  8
0
  6
Continuous
 62
     7
100
AcDbLine
 10
9.51847
 20
3.000022
 30
0.0
 11
16.886903
 21
3.000022
 31
0.0
  0
LINE
  5
77
330
1F
100
AcDbEntity
  8
0
  6
Continuous
 62
     7
100
AcDbLine
 10
16.886903
 20
3.000022
 30
0.0
 11
16.886903
 21
0.0
 31
0.0
  0
LINE
  5
78
330
1F
100
AcDbEntity
  8
0
  6
Continuous
 62
     7
100
AcDbLine
 10
16.886903
 20
0.0
 30
0.0
 11
24.455363
 21
0.0
 31
0.0
  0
LINE
  5
79
330
1F
100
AcDbEntity
  8
0
  6
Continuous
 62
     7
100
AcDbLine
 10
24.455363
 20
3.000022
 30
0.0
 11
24.455363
 21
0.0
 31
0.0
  0
LINE
  5
7A
330
1F
100
AcDbEntity
  8
0
  6
Continuous
 62
     7
100
AcDbLine
 10
24.455363
 20
3.000022
 30
0.0
 11
31.823833
 21
3.000022
 31
0.0
  0
LINE
  5
7B
330
1F
100
AcDbEntity
  8
0
  6
Continuous
 62
     7
100
AcDbLine
 10
31.823833
 20
3.000022
 30
0.0
 11
31.823833
 21
0.0
 31
0.0
  0
LINE
  5
7C
330
1F
100
AcDbEntity
  8
0
  6
Continuous
 62
     7
100
AcDbLine
 10
31.823833
 20
0.0
 30
0.0
 11
39.392256
 21
0.0
 31
0.0
  0
LINE
  5
7D
330
1F
100
AcDbEntity
  8
0
  6
Continuous
 62
     7
100
AcDbLine
 10
39.392256
 20
3.000022
 30
0.0
 11
39.392256
 21
0.0
 31
0.0
  0
LINE
  5
7E
330
1F
100
AcDbEntity
  8
0
  6
Continuous
 62
     7
100
AcDbLine
 10
39.392256
 20
3.000022
 30
0.0
 11
46.760726
 21
3.000022
 31
0.0
  0
LINE
  5
7F
330
1F
100
AcDbEntity
  8
0
  6
Continuous
 62
     7
100
AcDbLine
 10
46.760726
 20
3.000022
 30
0.0
 11
46.760726
 21
0.0
 31
0.0
  0
LINE
  5
80
330
1F
100
AcDbEntity
  8
0
  6
Continuous
 62
     7
100
AcDbLine
 10
46.760726
 20
0.0
 30
0.0
 11
54.329184
 21
0.0
 31
0.0
  0
LINE
  5
81
330
1F
100
AcDbEntity
  8
0
  6
Continuous
 62
     7
100
AcDbLine
 10
54.329184
 20
3.000022
 30
0.0
 11
54.329184
 21
0.0
 31
0.0
  0
LINE
  5
82
330
1F
100
AcDbEntity
  8
0
  6
Continuous
 62
     7
100
AcDbLine
 10
54.329184
 20
3.000022
 30
0.0
 11
61.697619
 21
3.000022
 31
0.0
  0
LINE
  5
83
330
1F
100
AcDbEntity
  8
0
  6
Continuous
 62
     7
100
AcDbLine
 10
61.697619
 20
3.000022
 30
0.0
 11
61.697619
 21
0.0
 31
0.0
  0
LINE
  5
84
330
1F
100
AcDbEntity
  8
0
  6
Continuous
 62
     7
100
AcDbLine
 10
61.697619
 20
0.0
 30
0.0
 11
69.26608
 21
0.0
 31
0.0
  0
LINE
  5
85
330
1F
100
AcDbEntity
  8
0
  6
Continuous
 62
     7
100
AcDbLine
 10
69.26608
 20
3.000022
 30
0.0
 11
69.26608
 21
0.0
 31
0.0
  0
LINE
  5
86
330
1F
100
AcDbEntity
  8
0
  6
Continuous
 62
     7
100
AcDbLine
 10
69.26608
 20
3.000022
 30
0.0
 11
76.634513
 21
3.000022
 31
0.0
  0
LINE
  5
87
330
1F
100
AcDbEntity
  8
0
  6
Continuous
 62
     7
100
AcDbLine
 10
76.634513
 20
3.000022
 30
0.0
 11
76.634513
 21
0.0
 31
0.0
  0
LINE
  5
88
330
1F
100
AcDbEntity
  8
0
  6
Continuous
 62
     7
100
AcDbLine
 10
76.634513
 20
0.0
 30
0.0
 11
84.203148
 21
0.0
 31
0.0
  0
LINE
  5
89
330
1F
100
AcDbEntity
  8
0
  6
Continuous
 62
     7
100
AcDbLine
 10
84.203148
 20
3.000022
 30
0.0
 11
84.203148
 21
0.0
 31
0.0
  0
LINE
  5
8A
330
1F
100
AcDbEntity
  8
0
  6
Continuous
 62
     7
100
AcDbLine
 10
84.203148
 20
3.000022
 30
0.0
 11
91.571265
 21
3.000022
 31
0.0
  0
LINE
  5
8B
330
1F
100
AcDbEntity
  8
0
  6
Continuous
 62
     7
100
AcDbLine
 10
91.571265
 20
3.000022
 30
0.0
 11
91.571265
 21
0.0
 31
0.0
  0
LINE
  5
8C
330
1F
100
AcDbEntity
  8
0
  6
Continuous
 62
     7
100
AcDbLine
 10
91.571265
 20
0.0
 30
0.0
 11
99.139759
 21
0.0
 31
0.0
  0
LINE
  5
8D
330
1F
100
AcDbEntity
  8
0
  6
Continuous
 62
     7
100
AcDbLine
 10
99.139759
 20
3.000022
 30
0.0
 11
99.139759
 21
0.0
 31
0.0
  0
LINE
  5
8E
330
1F
100
AcDbEntity
  8
0
  6
Continuous
 62
     7
100
AcDbLine
 10
99.139759
 20
3.000022
 30
0.0
 11
106.508229
 21
3.000022
 31
0.0
  0
LINE
  5
8F
330
1F
100
AcDbEntity
  8
0
  6
Continuous
 62
     7
100
AcDbLine
 10
106.508229
 20
3.000022
 30
0.0
 11
106.508229
 21
0.0
 31
0.0
  0
LINE
  5
90
330
1F
100
AcDbEntity
  8
0
  6
Continuous
 62
     7
100
AcDbLine
 10
106.508229
 20
0.0
 30
0.0
 11
114.076723
 21
0.0
 31
0.0
  0
LINE
  5
91
330
1F
100
AcDbEntity
  8
0
  6
Continuous
 62
     7
100
AcDbLine
 10
114.076723
 20
3.000022
 30
0.0
 11
114.076723
 21
0.0
 31
0.0
  0
LINE
  5
92
330
1F
100
AcDbEntity
  8
0
  6
Continuous
 62
     7
100
AcDbLine
 10
114.076723
 20
3.000022
 30
0.0
 11
121.445193
 21
3.000022
 31
0.0
  0
LINE
  5
93
330
1F
100
AcDbEntity
  8
0
  6
Continuous
 62
     7
100
AcDbLine
 10
121.445193
 20
3.000022
 30
0.0
 11
121.445193
 21
0.0
 31
0.0
  0
LINE
  5
94
330
1F
100
AcDbEntity
  8
0
  6
Continuous
 62
     7
100
AcDbLine
 10
121.445193
 20
0.0
 30
0.0
 11
129.013687
 21
0.0
 31
0.0
  0
LINE
  5
95
330
1F
100
AcDbEntity
  8
0
  6
Continuous
 62
     7
100
AcDbLine
 10
129.013687
 20
3.000022
 30
0.0
 11
129.013687
 21
0.0
 31
0.0
  0
LINE
  5
96
330
1F
100
AcDbEntity
  8
0
  6
Continuous
 62
     7
100
AcDbLine
 10
129.013687
 20
3.000022
 30
0.0
 11
136.382162
 21
3.000022
 31
0.0
  0
LINE
  5
97
330
1F
100
AcDbEntity
  8
0
  6
Continuous
 62
     7
100
AcDbLine
 10
136.382162
 20
3.000022
 30
0.0
 11
136.382162
 21
0.0
 31
0.0
  0
LINE
  5
98
330
1F
100
AcDbEntity
  8
0
  6
Continuous
 62
     7
100
AcDbLine
 10
136.382162
 20
0.0
 30
0.0
 11
143.950657
 21
0.0
 31
0.0
  0
LINE
  5
99
330
1F
100
AcDbEntity
  8
0
  6
Continuous
 62
     7
100
AcDbLine
 10
143.950657
 20
3.000022
 30
0.0
 11
143.950657
 21
0.0
 31
0.0
  0
LINE
  5
9A
330
1F
100
AcDbEntity
  8
0
  6
Continuous
 62
     7
100
AcDbLine
 10
143.950657
 20
3.000022
 30
0.0
 11
151.319112
 21
3.000022
 31
0.0
  0
LINE
  5
9B
330
1F
100
AcDbEntity
  8
0
  6
Continuous
 62
     7
100
AcDbLine
 10
151.319112
 20
3.000022
 30
0.0
 11
151.319112
 21
0.0
 31
0.0
  0
LINE
  5
9C
330
1F
100
AcDbEntity
  8
0
  6
Continuous
 62
     7
100
AcDbLine
 10
151.319112
 20
0.0
 30
0.0
 11
158.887606
 21
0.0
 31
0.0
  0
LINE
  5
9D
330
1F
100
AcDbEntity
  8
0
  6
Continuous
 62
     7
100
AcDbLine
 10
158.887606
 20
3.000022
 30
0.0
 11
158.887606
 21
0.0
 31
0.0
  0
LINE
  5
9E
330
1F
100
AcDbEntity
  8
0
  6
Continuous
 62
     7
100
AcDbLine
 10
158.887606
 20
3.000022
 30
0.0
 11
166.25609
 21
3.000022
 31
0.0
  0
LINE
  5
9F
330
1F
100
AcDbEntity
  8
0
  6
Continuous
 62
     7
100
AcDbLine
 10
166.25609
 20
3.000022
 30
0.0
 11
166.25609
 21
0.0
 31
0.0
  0
LINE
  5
A0
330
1F
100
AcDbEntity
  8
0
  6
Continuous
 62
     7
100
AcDbLine
 10
166.25609
 20
0.0
 30
0.0
 11
173.824217
 21
0.0
 31
0.0
  0
LINE
  5
A1
330
1F
100
AcDbEntity
  8
0
  6
Continuous
 62
     7
100
AcDbLine
 10
173.824217
 20
3.000022
 30
0.0
 11
173.824217
 21
0.0
 31
0.0
  0
LINE
  5
A2
330
1F
100
AcDbEntity
  8
0
  6
Continuous
 62
     7
100
AcDbLine
 10
173.824217
 20
3.000022
 30
0.0
 11
181.192701
 21
3.000022
 31
0.0
  0
LINE
  5
A3
330
1F
100
AcDbEntity
  8
0
  6
Continuous
 62
     7
100
AcDbLine
 10
181.192701
 20
3.000022
 30
0.0
 11
181.192701
 21
0.0
 31
0.0
  0
LINE
  5
A4
330
1F
100
AcDbEntity
  8
0
  6
Continuous
 62
     7
100
AcDbLine
 10
181.192701
 20
0.0
 30
0.0
 11
188.761195
 21
0.0
 31
0.0
  0
LINE
  5
A5
330
1F
100
AcDbEntity
  8
0
  6
Continuous
 62
     7
100
AcDbLine
 10
188.761195
 20
3.000022
 30
0.0
 11
188.761195
 21
0.0
 31
0.0
  0
LINE
  5
A6
330
1F
100
AcDbEntity
  8
0
  6
Continuous
 62
     7
100
AcDbLine
 10
188.761195
 20
3.000022
 30
0.0
 11
196.129651
 21
3.000022
 31
0.0
  0
LINE
  5
A7
330
1F
100
AcDbEntity
  8
0
  6
Continuous
 62
     7
100
AcDbLine
 10
196.129651
 20
3.000022
 30
0.0
 11
196.129651
 21
0.0
 31
0.0
  0
LINE
  5
A8
330
1F
100
AcDbEntity
  8
0
  6
Continuous
 62
     7
100
AcDbLine
 10
196.129651
 20
0.0
 30
0.0
 11
203.698145
 21
0.0
 31
0.0
  0
LINE
  5
A9
330
1F
100
AcDbEntity
  8
0
  6
Continuous
 62
     7
100
AcDbLine
 10
203.698145
 20
3.000022
 30
0.0
 11
203.698145
 21
0.0
 31
0.0
  0
LINE
  5
AA
330
1F
100
AcDbEntity
  8
0
  6
Continuous
 62
     7
100
AcDbLine
 10
203.698145
 20
3.000022
 30
0.0
 11
211.066629
 21
3.000022
 31
0.0
  0
LINE
  5
AB
330
1F
100
AcDbEntity
  8
0
  6
Continuous
 62
     7
100
AcDbLine
 10
211.066629
 20
3.000022
 30
0.0
 11
211.066629
 21
0.0
 31
0.0
  0
LINE
  5
AC
330
1F
100
AcDbEntity
  8
0
  6
Continuous
 62
     7
100
AcDbLine
 10
211.066629
 20
0.0
 30
0.0
 11
218.635123
 21
0.0
 31
0.0
  0
LINE
  5
AD
330
1F
100
AcDbEntity
  8
0
  6
Continuous
 62
     7
100
AcDbLine
 10
218.635123
 20
3.000022
 30
0.0
 11
218.635123
 21
0.0
 31
0.0
  0
LINE
  5
AE
330
1F
100
AcDbEntity
  8
0
  6
Continuous
 62
     7
100
AcDbLine
 10
218.635123
 20
3.000022
 30
0.0
 11
226.003579
 21
3.000022
 31
0.0
  0
LINE
  5
AF
330
1F
100
AcDbEntity
  8
0
  6
Continuous
 62
     7
100
AcDbLine
 10
226.003579
 20
3.000022
 30
0.0
 11
226.003579
 21
0.0
 31
0.0
  0
LINE
  5
B0
330
1F
100
AcDbEntity
  8
0
  6
Continuous
 62
     7
100
AcDbLine
 10
226.003579
 20
0.0
 30
0.0
 11
233.572073
 21
0.0
 31
0.0
  0
LINE
  5
B1
330
1F
100
AcDbEntity
  8
0
  6
Continuous
 62
     7
100
AcDbLine
 10
233.572073
 20
3.000022
 30
0.0
 11
233.572073
 21
0.0
 31
0.0
  0
LINE
  5
B2
330
1F
100
AcDbEntity
  8
0
  6
Continuous
 62
     7
100
AcDbLine
 10
233.572073
 20
3.000022
 30
0.0
 11
240.940557
 21
3.000022
 31
0.0
  0
LINE
  5
B3
330
1F
100
AcDbEntity
  8
0
  6
Continuous
 62
     7
100
AcDbLine
 10
240.940557
 20
3.000022
 30
0.0
 11
240.940557
 21
0.0
 31
0.0
  0
LINE
  5
B4
330
1F
100
AcDbEntity
  8
0
  6
Continuous
 62
     7
100
AcDbLine
 10
240.940557
 20
0.0
 30
0.0
 11
248.509051
 21
0.0
 31
0.0
  0
LINE
  5
B5
330
1F
100
AcDbEntity
  8
0
  6
Continuous
 62
     7
100
AcDbLine
 10
248.509051
 20
3.000022
 30
0.0
 11
248.509051
 21
0.0
 31
0.0
  0
LINE
  5
B6
330
1F
100
AcDbEntity
  8
0
  6
Continuous
 62
     7
100
AcDbLine
 10
248.509051
 20
3.000022
 30
0.0
 11
255.877506
 21
3.000022
 31
0.0
  0
LINE
  5
B7
330
1F
100
AcDbEntity
  8
0
  6
Continuous
 62
     7
100
AcDbLine
 10
255.877506
 20
3.000022
 30
0.0
 11
255.877506
 21
0.0
 31
0.0
  0
LINE
  5
B8
330
1F
100
AcDbEntity
  8
0
  6
Continuous
 62
     7
100
AcDbLine
 10
255.877506
 20
0.0
 30
0.0
 11
263.445662
 21
0.0
 31
0.0
  0
LINE
  5
B9
330
1F
100
AcDbEntity
  8
0
  6
Continuous
 62
     7
100
AcDbLine
 10
263.445662
 20
3.000022
 30
0.0
 11
263.445662
 21
0.0
 31
0.0
  0
LINE
  5
BA
330
1F
100
AcDbEntity
  8
0
  6
Continuous
 62
     7
100
AcDbLine
 10
263.445662
 20
3.000022
 30
0.0
 11
270.814117
 21
3.000022
 31
0.0
  0
LINE
  5
BB
330
1F
100
AcDbEntity
  8
0
  6
Continuous
 62
     7
100
AcDbLine
 10
270.814117
 20
3.000022
 30
0.0
 11
270.814117
 21
0.0
 31
0.0
  0
LINE
  5
BC
330
1F
100
AcDbEntity
  8
0
  6
Continuous
 62
     7
100
AcDbLine
 10
270.814117
 20
0.0
 30
0.0
 11
278.382612
 21
0.0
 31
0.0
  0
LINE
  5
BD
330
1F
100
AcDbEntity
  8
0
  6
Continuous
 62
     7
100
AcDbLine
 10
278.382612
 20
3.000022
 30
0.0
 11
278.382612
 21
0.0
 31
0.0
  0
LINE
  5
BE
330
1F
100
AcDbEntity
  8
0
  6
Continuous
 62
     7
100
AcDbLine
 10
278.382612
 20
3.000022
 30
0.0
 11
285.751095
 21
3.000022
 31
0.0
  0
LINE
  5
BF
330
1F
100
AcDbEntity
  8
0
  6
Continuous
 62
     7
100
AcDbLine
 10
285.751095
 20
3.000022
 30
0.0
 11
285.751095
 21
0.0
 31
0.0
  0
LINE
  5
C0
330
1F
100
AcDbEntity
  8
0
  6
Continuous
 62
     7
100
AcDbLine
 10
285.751095
 20
0.0
 30
0.0
 11
293.31959
 21
0.0
 31
0.0
  0
LINE
  5
C1
330
1F
100
AcDbEntity
  8
0
  6
Continuous
 62
     7
100
AcDbLine
 10
293.31959
 20
3.000022
 30
0.0
 11
293.31959
 21
0.0
 31
0.0
  0
LINE
  5
C2
330
1F
100
AcDbEntity
  8
0
  6
Continuous
 62
     7
100
AcDbLine
 10
293.31959
 20
3.000022
 30
0.0
 11
300.688045
 21
3.000022
 31
0.0
  0
LINE
  5
C3
330
1F
100
AcDbEntity
  8
0
  6
Continuous
 62
     7
100
AcDbLine
 10
300.688045
 20
3.000022
 30
0.0
 11
300.688045
 21
0.0
 31
0.0
  0
LINE
  5
C4
330
1F
100
AcDbEntity
  8
0
  6
Continuous
 62
     7
100
AcDbLine
 10
300.688045
 20
0.0
 30
0.0
 11
308.25654
 21
0.0
 31
0.0
  0
LINE
  5
C5
330
1F
100
AcDbEntity
  8
0
  6
Continuous
 62
     7
100
AcDbLine
 10
308.25654
 20
3.000022
 30
0.0
 11
308.25654
 21
0.0
 31
0.0
  0
LINE
  5
C6
330
1F
100
AcDbEntity
  8
0
  6
Continuous
 62
     7
100
AcDbLine
 10
308.25654
 20
3.000022
 30
0.0
 11
315.625023
 21
3.000022
 31
0.0
  0
LINE
  5
C7
330
1F
100
AcDbEntity
  8
0
  6
Continuous
 62
     7
100
AcDbLine
 10
315.625023
 20
3.000022
 30
0.0
 11
315.625023
 21
0.0
 31
0.0
  0
LINE
  5
C8
330
1F
100
AcDbEntity
  8
0
  6
Continuous
 62
     7
100
AcDbLine
 10
315.625023
 20
0.0
 30
0.0
 11
323.193518
 21
0.0
 31
0.0
  0
LINE
  5
C9
330
1F
100
AcDbEntity
  8
0
  6
Continuous
 62
     7
100
AcDbLine
 10
323.193518
 20
3.000022
 30
0.0
 11
323.193518
 21
0.0
 31
0.0
  0
LINE
  5
CA
330
1F
100
AcDbEntity
  8
0
  6
Continuous
 62
     7
100
AcDbLine
 10
323.193518
 20
3.000022
 30
0.0
 11
330.561973
 21
3.000022
 31
0.0
  0
LINE
  5
CB
330
1F
100
AcDbEntity
  8
0
  6
Continuous
 62
     7
100
AcDbLine
 10
330.561973
 20
3.000022
 30
0.0
 11
330.561973
 21
0.0
 31
0.0
  0
LINE
  5
CC
330
1F
100
AcDbEntity
  8
0
  6
Continuous
 62
     7
100
AcDbLine
 10
330.561973
 20
0.0
 30
0.0
 11
338.130129
 21
0.0
 31
0.0
  0
LINE
  5
CD
330
1F
100
AcDbEntity
  8
0
  6
Continuous
 62
     7
100
AcDbLine
 10
338.130129
 20
3.000022
 30
0.0
 11
338.130129
 21
0.0
 31
0.0
  0
LINE
  5
CE
330
1F
100
AcDbEntity
  8
0
  6
Continuous
 62
     7
100
AcDbLine
 10
338.130129
 20
3.000022
 30
0.0
 11
345.498584
 21
3.000022
 31
0.0
  0
LINE
  5
CF
330
1F
100
AcDbEntity
  8
0
  6
Continuous
 62
     7
100
AcDbLine
 10
345.498584
 20
3.000022
 30
0.0
 11
345.498584
 21
0.0
 31
0.0
  0
LINE
  5
D0
330
1F
100
AcDbEntity
  8
0
  6
Continuous
 62
     7
100
AcDbLine
 10
345.498584
 20
0.0
 30
0.0
 11
353.067079
 21
0.0
 31
0.0
  0
LINE
  5
D1
330
1F
100
AcDbEntity
  8
0
  6
Continuous
 62
     7
100
AcDbLine
 10
353.067079
 20
3.000022
 30
0.0
 11
353.067079
 21
0.0
 31
0.0
  0
LINE
  5
D2
330
1F
100
AcDbEntity
  8
0
  6
Continuous
 62
     7
100
AcDbLine
 10
353.067079
 20
3.000022
 30
0.0
 11
360.435562
 21
3.000022
 31
0.0
  0
LINE
  5
D3
330
1F
100
AcDbEntity
  8
0
  6
Continuous
 62
     7
100
AcDbLine
 10
360.435562
 20
3.000022
 30
0.0
 11
360.435562
 21
0.0
 31
0.0
  0
LINE
  5
D4
330
1F
100
AcDbEntity
  8
0
  6
Continuous
 62
     7
100
AcDbLine
 10
360.435562
 20
0.0
 30
0.0
 11
368.004057
 21
0.0
 31
0.0
  0
LINE
  5
D5
330
1F
100
AcDbEntity
  8
0
  6
Continuous
 62
     7
100
AcDbLine
 10
368.004057
 20
3.000022
 30
0.0
 11
368.004057
 21
0.0
 31
0.0
  0
LINE
  5
D6
330
1F
100
AcDbEntity
  8
0
  6
Continuous
 62
     7
100
AcDbLine
 10
368.004057
 20
3.000022
 30
0.0
 11
375.372512
 21
3.000022
 31
0.0
  0
LINE
  5
D7
330
1F
100
AcDbEntity
  8
0
  6
Continuous
 62
     7
100
AcDbLine
 10
375.372512
 20
3.000022
 30
0.0
 11
375.372512
 21
0.0
 31
0.0
  0
LINE
  5
D8
330
1F
100
AcDbEntity
  8
0
  6
Continuous
 62
     7
100
AcDbLine
 10
375.372512
 20
0.0
 30
0.0
 11
382.941006
 21
0.0
 31
0.0
  0
LINE
  5
D9
330
1F
100
AcDbEntity
  8
0
  6
Continuous
 62
     7
100
AcDbLine
 10
382.941006
 20
3.000022
 30
0.0
 11
382.941006
 21
0.0
 31
0.0
  0
LINE
  5
DA
330
1F
100
AcDbEntity
  8
0
  6
Continuous
 62
     7
100
AcDbLine
 10
382.941006
 20
3.000022
 30
0.0
 11
390.30949
 21
3.000022
 31
0.0
  0
LINE
  5
DB
330
1F
100
AcDbEntity
  8
0
  6
Continuous
 62
     7
100
AcDbLine
 10
390.30949
 20
3.000022
 30
0.0
 11
390.30949
 21
0.0
 31
0.0
  0
LINE
  5
DC
330
1F
100
AcDbEntity
  8
0
  6
Continuous
 62
     7
100
AcDbLine
 10
390.30949
 20
0.0
 30
0.0
 11
397.877984
 21
0.0
 31
0.0
  0
LINE
  5
DD
330
1F
100
AcDbEntity
  8
0
  6
Continuous
 62
     7
100
AcDbLine
 10
397.877984
 20
3.000022
 30
0.0
 11
397.877984
 21
0.0
 31
0.0
  0
LINE
  5
DE
330
1F
100
AcDbEntity
  8
0
  6
Continuous
 62
     7
100
AcDbLine
 10
397.877984
 20
3.000022
 30
0.0
 11
405.24644
 21
3.000022
 31
0.0
  0
LINE
  5
DF
330
1F
100
AcDbEntity
  8
0
  6
Continuous
 62
     7
100
AcDbLine
 10
405.24644
 20
3.000022
 30
0.0
 11
405.24644
 21
0.0
 31
0.0
  0
LINE
  5
E0
330
1F
100
AcDbEntity
  8
0
  6
Continuous
 62
     7
100
AcDbLine
 10
405.24644
 20
0.0
 30
0.0
 11
412.814934
 21
0.0
 31
0.0
  0
LINE
  5
E1
330
1F
100
AcDbEntity
  8
0
  6
Continuous
 62
     7
100
AcDbLine
 10
412.814934
 20
3.000022
 30
0.0
 11
412.814934
 21
0.0
 31
0.0
  0
LINE
  5
E2
330
1F
100
AcDbEntity
  8
0
  6
Continuous
 62
     7
100
AcDbLine
 10
412.814934
 20
3.000022
 30
0.0
 11
420.183418
 21
3.000022
 31
0.0
  0
LINE
  5
E3
330
1F
100
AcDbEntity
  8
0
  6
Continuous
 62
     7
100
AcDbLine
 10
420.183418
 20
3.000022
 30
0.0
 11
420.183418
 21
0.0
 31
0.0
  0
LINE
  5
E4
330
1F
100
AcDbEntity
  8
0
  6
Continuous
 62
     7
100
AcDbLine
 10
420.183418
 20
0.0
 30
0.0
 11
427.751545
 21
0.0
 31
0.0
  0
LINE
  5
E5
330
1F
100
AcDbEntity
  8
0
  6
Continuous
 62
     7
100
AcDbLine
 10
427.751545
 20
3.000022
 30
0.0
 11
427.751545
 21
0.0
 31
0.0
  0
LINE
  5
E6
330
1F
100
AcDbEntity
  8
0
  6
Continuous
 62
     7
100
AcDbLine
 10
427.751545
 20
3.000022
 30
0.0
 11
435.120029
 21
3.000022
 31
0.0
  0
LINE
  5
E7
330
1F
100
AcDbEntity
  8
0
  6
Continuous
 62
     7
100
AcDbLine
 10
435.120029
 20
3.000022
 30
0.0
 11
435.120029
 21
0.0
 31
0.0
  0
LINE
  5
E8
330
1F
100
AcDbEntity
  8
0
  6
Continuous
 62
     7
100
AcDbLine
 10
435.120029
 20
0.0
 30
0.0
 11
442.688523
 21
0.0
 31
0.0
  0
LINE
  5
E9
330
1F
100
AcDbEntity
  8
0
  6
Continuous
 62
     7
100
AcDbLine
 10
442.688523
 20
3.000022
 30
0.0
 11
442.688523
 21
0.0
 31
0.0
  0
LINE
  5
EA
330
1F
100
AcDbEntity
  8
0
  6
Continuous
 62
     7
100
AcDbLine
 10
442.688523
 20
3.000022
 30
0.0
 11
450.056979
 21
3.000022
 31
0.0
  0
LINE
  5
EB
330
1F
100
AcDbEntity
  8
0
  6
Continuous
 62
     7
100
AcDbLine
 10
450.056979
 20
3.000022
 30
0.0
 11
450.056979
 21
0.0
 31
0.0
  0
LINE
  5
EC
330
1F
100
AcDbEntity
  8
0
  6
Continuous
 62
     7
100
AcDbLine
 10
450.056979
 20
0.0
 30
0.0
 11
457.625473
 21
0.0
 31
0.0
  0
LINE
  5
ED
330
1F
100
AcDbEntity
  8
0
  6
Continuous
 62
     7
100
AcDbLine
 10
457.625473
 20
3.000022
 30
0.0
 11
457.625473
 21
0.0
 31
0.0
  0
LINE
  5
EE
330
1F
100
AcDbEntity
  8
0
  6
Continuous
 62
     7
100
AcDbLine
 10
457.625473
 20
3.000022
 30
0.0
 11
464.993957
 21
3.000022
 31
0.0
  0
LINE
  5
EF
330
1F
100
AcDbEntity
  8
0
  6
Continuous
 62
     7
100
AcDbLine
 10
464.993957
 20
3.000022
 30
0.0
 11
464.993957
 21
0.0
 31
0.0
  0
LINE
  5
F0
330
1F
100
AcDbEntity
  8
0
  6
Continuous
 62
     7
100
AcDbLine
 10
464.993957
 20
0.0
 30
0.0
 11
472.562451
 21
0.0
 31
0.0
  0
LINE
  5
F1
330
1F
100
AcDbEntity
  8
0
  6
Continuous
 62
     7
100
AcDbLine
 10
472.562451
 20
3.000022
 30
0.0
 11
472.562451
 21
0.0
 31
0.0
  0
LINE
  5
F2
330
1F
100
AcDbEntity
  8
0
  6
Continuous
 62
     7
100
AcDbLine
 10
472.562451
 20
3.000022
 30
0.0
 11
479.930906
 21
3.000022
 31
0.0
  0
LINE
  5
F3
330
1F
100
AcDbEntity
  8
0
  6
Continuous
 62
     7
100
AcDbLine
 10
479.930906
 20
3.000022
 30
0.0
 11
479.930906
 21
0.0
 31
0.0
  0
LINE
  5
F4
330
1F
100
AcDbEntity
  8
0
  6
Continuous
 62
     7
100
AcDbLine
 10
479.930906
 20
0.0
 30
0.0
 11
487.499401
 21
0.0
 31
0.0
  0
LINE
  5
F5
330
1F
100
AcDbEntity
  8
0
  6
Continuous
 62
     7
100
AcDbLine
 10
487.499401
 20
3.000022
 30
0.0
 11
487.499401
 21
0.0
 31
0.0
  0
LINE
  5
F6
330
1F
100
AcDbEntity
  8
0
  6
Continuous
 62
     7
100
AcDbLine
 10
487.499401
 20
3.000022
 30
0.0
 11
494.867884
 21
3.000022
 31
0.0
  0
LINE
  5
F7
330
1F
100
AcDbEntity
  8
0
  6
Continuous
 62
     7
100
AcDbLine
 10
494.867884
 20
3.000022
 30
0.0
 11
494.867884
 21
0.0
 31
0.0
  0
LINE
  5
F8
330
1F
100
AcDbEntity
  8
0
  6
Continuous
 62
     7
100
AcDbLine
 10
494.867884
 20
0.0
 30
0.0
 11
502.436379
 21
0.0
 31
0.0
  0
LINE
  5
F9
330
1F
100
AcDbEntity
  8
0
  6
Continuous
 62
     7
100
AcDbLine
 10
502.436379
 20
3.000022
 30
0.0
 11
502.436379
 21
0.0
 31
0.0
  0
LINE
  5
FA
330
1F
100
AcDbEntity
  8
0
  6
Continuous
 62
     7
100
AcDbLine
 10
502.436379
 20
3.000022
 30
0.0
 11
509.804495
 21
3.000022
 31
0.0
  0
LINE
  5
FB
330
1F
100
AcDbEntity
  8
0
  6
Continuous
 62
     7
100
AcDbLine
 10
509.804495
 20
3.000022
 30
0.0
 11
509.804495
 21
0.0
 31
0.0
  0
LINE
  5
FC
330
1F
100
AcDbEntity
  8
0
  6
Continuous
 62
     7
100
AcDbLine
 10
509.804495
 20
0.0
 30
0.0
 11
517.37299
 21
0.0
 31
0.0
  0
LINE
  5
FD
330
1F
100
AcDbEntity
  8
0
  6
Continuous
 62
     7
100
AcDbLine
 10
517.37299
 20
3.000022
 30
0.0
 11
517.37299
 21
0.0
 31
0.0
  0
LINE
  5
FE
330
1F
100
AcDbEntity
  8
0
  6
Continuous
 62
     7
100
AcDbLine
 10
517.37299
 20
3.000022
 30
0.0
 11
524.741445
 21
3.000022
 31
0.0
  0
LINE
  5
FF
330
1F
100
AcDbEntity
  8
0
  6
Continuous
 62
     7
100
AcDbLine
 10
524.741445
 20
3.000022
 30
0.0
 11
524.741445
 21
0.0
 31
0.0
  0
LINE
  5
100
330
1F
100
AcDbEntity
  8
0
  6
Continuous
 62
     7
100
AcDbLine
 10
524.741445
 20
0.0
 30
0.0
 11
533.360201
 21
0.0
 31
0.0
  0
LINE
  5
101
330
1F
100
AcDbEntity
  8
0
  6
Continuous
 62
     7
100
AcDbLine
 10
0.0
 20
0.0
 30
0.0
 11
0.0
 21
8.145806
 31
0.0
  0
LINE
  5
102
330
1F
100
AcDbEntity
  8
0
  6
Continuous
 62
     7
100
AcDbLine
 10
5.000021
 20
8.145806
 30
0.0
 11
0.0
 21
8.145806
 31
0.0
  0
LINE
  5
103
330
1F
100
AcDbEntity
  8
0
  6
Continuous
 62
     7
100
AcDbLine
 10
5.000021
 20
8.145806
 30
0.0
 11
5.000021
 21
16.435065
 31
0.0
  0
LINE
  5
104
330
1F
100
AcDbEntity
  8
0
  6
Continuous
 62
     7
100
AcDbLine
 10
5.000021
 20
16.435065
 30
0.0
 11
0.0
 21
16.435065
 31
0.0
  0
LINE
  5
105
330
1F
100
AcDbEntity
  8
0
  6
Continuous
 62
     7
100
AcDbLine
 10
0.0
 20
16.435065
 30
0.0
 11
0.0
 21
24.524341
 31
0.0
  0
LINE
  5
106
330
1F
100
AcDbEntity
  8
0
  6
Continuous
 62
     7
100
AcDbLine
 10
5.000021
 20
24.524341
 30
0.0
 11
0.0
 21
24.524341
 31
0.0
  0
LINE
  5
107
330
1F
100
AcDbEntity
  8
0
  6
Continuous
 62
     7
100
AcDbLine
 10
5.000021
 20
24.524341
 30
0.0
 11
5.000021
 21
32.813599
 31
0.0
  0
LINE
  5
108
330
1F
100
AcDbEntity
  8
0
  6
Continuous
 62
     7
100
AcDbLine
 10
5.000021
 20
32.813599
 30
0.0
 11
0.0
 21
32.813599
 31
0.0
  0
LINE
  5
109
330
1F
100
AcDbEntity
  8
0
  6
Continuous
 62
     7
100
AcDbLine
 10
0.0
 20
32.813599
 30
0.0
 11
0.0
 21
40.873282
 31
0.0
  0
LINE
  5
10A
330
1F
100
AcDbEntity
  8
0
  6
Continuous
 62
     7
100
AcDbLine
 10
533.360201
 20
0.0
 30
0.0
 11
533.360201
 21
8.145808
 31
0.0
  0
LINE
  5
10B
330
1F
100
AcDbEntity
  8
0
  6
Continuous
 62
     7
100
AcDbLine
 10
538.359853
 20
8.145808
 30
0.0
 11
533.360201
 21
8.145808
 31
0.0
  0
LINE
  5
10C
330
1F
100
AcDbEntity
  8
0
  6
Continuous
 62
     7
100
AcDbLine
 10
538.359853
 20
8.145808
 30
0.0
 11
538.359853
 21
16.435068
 31
0.0
  0
LINE
  5
10D
330
1F
100
AcDbEntity
  8
0
  6
Continuous
 62
     7
100
AcDbLine
 10
538.359853
 20
16.435068
 30
0.0
 11
533.360201
 21
16.435068
 31
0.0
  0
LINE
  5
10E
330
1F
100
AcDbEntity
  8
0
  6
Continuous
 62
     7
100
AcDbLine
 10
533.360201
 20
16.435068
 30
0.0
 11
533.360201
 21
24.524345
 31
0.0
  0
LINE
  5
10F
330
1F
100
AcDbEntity
  8
0
  6
Continuous
 62
     7
100
AcDbLine
 10
538.359853
 20
24.524345
 30
0.0
 11
533.360201
 21
24.524345
 31
0.0
  0
LINE
  5
110
330
1F
100
AcDbEntity
  8
0
  6
Continuous
 62
     7
100
AcDbLine
 10
538.359853
 20
24.524345
 30
0.0
 11
538.359853
 21
32.813605
 31
0.0
  0
LINE
  5
111
330
1F
100
AcDbEntity
  8
0
  6
Continuous
 62
     7
100
AcDbLine
 10
538.359853
 20
32.813605
 30
0.0
 11
533.360201
 21
32.813605
 31
0.0
  0
LINE
  5
112
330
1F
100
AcDbEntity
  8
0
  6
Continuous
 62
     7
100
AcDbLine
 10
533.360201
 20
32.813605
 30
0.0
 11
533.360201
 21
40.916707
 31
0.0
  0
LINE
  5
113
330
1F
100
AcDbEntity
  8
0
  6
Continuous
 62
     7
100
AcDbLine
 10
533.360201
 20
64.599998
 30
0.0
 11
5.000021
 21
64.599998
 31
0.0
  0
LINE
  5
114
330
1F
100
AcDbEntity
  8
0
  6
Continuous
 62
     7
100
AcDbLine
 10
5.000021
 20
40.873282
 30
0.0
 11
0.0
 21
40.873282
 31
0.0
  0
LINE
  5
115
330
1F
100
AcDbEntity
  8
0
  6
Continuous
 62
     7
100
AcDbLine
 10
5.000021
 20
40.873282
 30
0.0
 11
5.000021
 21
49.179085
 31
0.0
  0
LINE
  5
116
330
1F
100
AcDbEntity
  8
0
  6
Continuous
 62
     7
100
AcDbLine
 10
5.000021
 20
49.179085
 30
0.0
 11
0.0
 21
49.179085
 31
0.0
  0
LINE
  5
117
330
1F
100
AcDbEntity
  8
0
  6
Continuous
 62
     7
100
AcDbLine
 10
0.0
 20
49.179085
 30
0.0
 11
0.0
 21
57.23877
 31
0.0
  0
LINE
  5
118
330
1F
100
AcDbEntity
  8
0
  6
Continuous
 62
     7
100
AcDbLine
 10
5.000021
 20
57.23877
 30
0.0
 11
0.0
 21
57.23877
 31
0.0
  0
LINE
  5
119
330
1F
100
AcDbEntity
  8
0
  6
Continuous
 62
     7
100
AcDbLine
 10
5.000021
 20
57.23877
 30
0.0
 11
5.000021
 21
64.599998
 31
0.0
  0
LINE
  5
11A
330
1F
100
AcDbEntity
  8
0
  6
Continuous
 62
     7
100
AcDbLine
 10
538.359853
 20
40.916707
 30
0.0
 11
533.360201
 21
40.916707
 31
0.0
  0
LINE
  5
11B
330
1F
100
AcDbEntity
  8
0
  6
Continuous
 62
     7
100
AcDbLine
 10
538.359853
 20
40.916707
 30
0.0
 11
538.359853
 21
49.205969
 31
0.0
  0
LINE
  5
11C
330
1F
100
AcDbEntity
  8
0
  6
Continuous
 62
     7
100
AcDbLine
 10
538.359853
 20
49.205969
 30
0.0
 11
533.360201
 21
49.205969
 31
0.0
  0
LINE
  5
11D
330
1F
100
AcDbEntity
  8
0
  6
Continuous
 62
     7
100
AcDbLine
 10
155.1928622553
 20
42.1264186857
 30
0.0
 11
155.1928622553
 21
45.3454166857
 31
0.0
  0
LINE
  5
11E
330
1F
100
AcDbEntity
  8
0
  6
Continuous
 62
     7
100
AcDbLine
 10
153.3480882553
 20
41.1852636857
 30
0.0
 11
155.1928622553
 21
42.1264186857
 31
0.0
  0
LINE
  5
11F
330
1F
100
AcDbEntity
  8
0
  6
Continuous
 62
     7
100
AcDbLine
 10
151.5033152553
 20
40.2441376857
 30
0.0
 11
153.3480882553
 21
41.1852636857
 31
0.0
  0
LINE
  5
120
330
1F
100
AcDbEntity
  8
0
  6
Continuous
 62
     7
100
AcDbLine
 10
151.5033152553
 20
44.4042616857
 30
0.0
 11
151.5033152553
 21
40.2441376857
 31
0.0
  0
LINE
  5
121
330
1F
100
AcDbEntity
  8
0
  6
Continuous
 62
     7
100
AcDbLine
 10
151.5033152553
 20
48.5644156857
 30
0.0
 11
151.5033152553
 21
44.4042616857
 31
0.0
  0
LINE
  5
122
330
1F
100
AcDbEntity
  8
0
  6
Continuous
 62
     7
100
AcDbLine
 10
153.3480882553
 20
48.5644156857
 30
0.0
 11
151.5033152553
 21
48.5644156857
 31
0.0
  0
LINE
  5
123
330
1F
100
AcDbEntity
  8
0
  6
Continuous
 62
     7
100
AcDbLine
 10
155.1928622553
 20
48.5644156857
 30
0.0
 11
153.3480882553
 21
48.5644156857
 31
0.0
  0
LINE
  5
124
330
1F
100
AcDbEntity
  8
0
  6
Continuous
 62
     7
100
AcDbLine
 10
155.1928622553
 20
45.3454166857
 30
0.0
 11
155.1928622553
 21
48.5644156857
 31
0.0
  0
LINE
  5
125
330
1F
100
AcDbEntity
  8
0
  6
Continuous
 62
     7
100
AcDbLine
 10
149.6585132553
 20
37.4854146857
 30
0.0
 11
149.6585132553
 21
43.9472876857
 31
0.0
  0
LINE
  5
126
330
1F
100
AcDbEntity
  8
0
  6
Continuous
 62
     7
100
AcDbLine
 10
153.3480882551
 20
39.3404896856
 30
0.0
 11
149.6585132553
 21
37.4854146857
 31
0.0
  0
LINE
  5
127
330
1F
100
AcDbEntity
  8
0
  6
Continuous
 62
     7
100
AcDbLine
 10
157.0376642553
 20
41.1955646857
 30
0.0
 11
153.3480882551
 21
39.3404896856
 31
0.0
  0
LINE
  5
128
330
1F
100
AcDbEntity
  8
0
  6
Continuous
 62
     7
100
AcDbLine
 10
157.0376642553
 20
45.8023906857
 30
0.0
 11
157.0376642553
 21
41.1955646857
 31
0.0
  0
LINE
  5
129
330
1F
100
AcDbEntity
  8
0
  6
Continuous
 62
     7
100
AcDbLine
 10
157.0376642553
 20
50.4091886857
 30
0.0
 11
157.0376642553
 21
45.8023906857
 31
0.0
  0
LINE
  5
12A
330
1F
100
AcDbEntity
  8
0
  6
Continuous
 62
     7
100
AcDbLine
 10
153.3480882553
 20
50.4091886857
 30
0.0
 11
157.0376642553
 21
50.4091886857
 31
0.0
  0
LINE
  5
12B
330
1F
100
AcDbEntity
  8
0
  6
Continuous
 62
     7
100
AcDbLine
 10
149.6585132553
 20
50.4091886857
 30
0.0
 11
153.3480882553
 21
50.4091886857
 31
0.0
  0
LINE
  5
12C
330
1F
100
AcDbEntity
  8
0
  6
Continuous
 62
     7
100
AcDbLine
 10
149.6585132553
 20
43.9472876857
 30
0.0
 11
149.6585132553
 21
50.4091886857
 31
0.0
  0
LINE
  5
12D
330
1F
100
AcDbEntity
  8
0
  6
Continuous
 62
     7
100
AcDbLine
 10
108.6120872553
 20
36.5920686857
 30
0.0
 11
108.6120872553
 21
42.5782276857
 31
0.0
  0
LINE
  5
12E
330
1F
100
AcDbEntity
  8
0
  6
Continuous
 62
     7
100
AcDbLine
 10
106.7673132553
 20
35.6509426857
 30
0.0
 11
108.6120872553
 21
36.5920686857
 31
0.0
  0
LINE
  5
12F
330
1F
100
AcDbEntity
  8
0
  6
Continuous
 62
     7
100
AcDbLine
 10
104.9225402553
 20
34.7097876857
 30
0.0
 11
106.7673132553
 21
35.6509426857
 31
0.0
  0
LINE
  5
130
330
1F
100
AcDbEntity
  8
0
  6
Continuous
 62
     7
100
AcDbLine
 10
104.9225402553
 20
41.6371016857
 30
0.0
 11
104.9225402553
 21
34.7097876857
 31
0.0
  0
LINE
  5
131
330
1F
100
AcDbEntity
  8
0
  6
Continuous
 62
     7
100
AcDbLine
 10
104.9225402553
 20
48.5644156857
 30
0.0
 11
104.9225402553
 21
41.6371016857
 31
0.0
  0
LINE
  5
132
330
1F
100
AcDbEntity
  8
0
  6
Continuous
 62
     7
100
AcDbLine
 10
106.7673132553
 20
48.5644156857
 30
0.0
 11
104.9225402553
 21
48.5644156857
 31
0.0
  0
LINE
  5
133
330
1F
100
AcDbEntity
  8
0
  6
Continuous
 62
     7
100
AcDbLine
 10
108.6120872553
 20
48.5644156857
 30
0.0
 11
106.7673132553
 21
48.5644156857
 31
0.0
  0
LINE
  5
134
330
1F
100
AcDbEntity
  8
0
  6
Continuous
 62
     7
100
AcDbLine
 10
108.6120872553
 20
42.5782276857
 30
0.0
 11
108.6120872553
 21
48.5644156857
 31
0.0
  0
LINE
  5
135
330
1F
100
AcDbEntity
  8
0
  6
Continuous
 62
     7
100
AcDbLine
 10
110.4568892553
 20
35.7343106857
 30
0.0
 11
107.0196202553
 21
33.8478246857
 31
0.0
  0
LINE
  5
136
330
1F
100
AcDbEntity
  8
0
  6
Continuous
 62
     7
100
AcDbLine
 10
110.4568892553
 20
43.0717496857
 30
0.0
 11
110.4568892553
 21
35.7343106857
 31
0.0
  0
LINE
  5
137
330
1F
100
AcDbEntity
  8
0
  6
Continuous
 62
     7
100
AcDbLine
 10
110.4568892553
 20
50.4091886857
 30
0.0
 11
110.4568892553
 21
43.0717496857
 31
0.0
  0
LINE
  5
138
330
1F
100
AcDbEntity
  8
0
  6
Continuous
 62
     7
100
AcDbLine
 10
106.7673132553
 20
50.4091886857
 30
0.0
 11
110.4568892553
 21
50.4091886857
 31
0.0
  0
LINE
  5
139
330
1F
100
AcDbEntity
  8
0
  6
Continuous
 62
     7
100
AcDbLine
 10
103.0777382553
 20
50.4091886857
 30
0.0
 11
106.7673132553
 21
50.4091886857
 31
0.0
  0
LINE
  5
13A
330
1F
100
AcDbEntity
  8
0
  6
Continuous
 62
     7
100
AcDbLine
 10
103.0777382553
 20
41.1852636857
 30
0.0
 11
103.0777382553
 21
50.4091886857
 31
0.0
  0
LINE
  5
13B
330
1F
100
AcDbEntity
  8
0
  6
Continuous
 62
     7
100
AcDbLine
 10
396.8594692553
 20
27.8106116857
 30
0.0
 11
396.8594692553
 21
38.1874996857
 31
0.0
  0
LINE
  5
13C
330
1F
100
AcDbEntity
  8
0
  6
Continuous
 62
     7
100
AcDbLine
 10
395.0146952553
 20
27.8106116857
 30
0.0
 11
396.8594692553
 21
27.8106116857
 31
0.0
  0
LINE
  5
13D
330
1F
100
AcDbEntity
  8
0
  6
Continuous
 62
     7
100
AcDbLine
 10
393.1698932553
 20
27.8106116857
 30
0.0
 11
395.0146952553
 21
27.8106116857
 31
0.0
  0
LINE
  5
13E
330
1F
100
AcDbEntity
  8
0
  6
Continuous
 62
     7
100
AcDbLine
 10
393.1698932553
 20
38.1874996857
 30
0.0
 11
393.1698932553
 21
27.8106116857
 31
0.0
  0
LINE
  5
13F
330
1F
100
AcDbEntity
  8
0
  6
Continuous
 62
     7
100
AcDbLine
 10
393.1698932553
 20
48.5644156857
 30
0.0
 11
393.1698932553
 21
38.1874996857
 31
0.0
  0
LINE
  5
140
330
1F
100
AcDbEntity
  8
0
  6
Continuous
 62
     7
100
AcDbLine
 10
395.0146952553
 20
48.5644156857
 30
0.0
 11
393.1698932553
 21
48.5644156857
 31
0.0
  0
LINE
  5
141
330
1F
100
AcDbEntity
  8
0
  6
Continuous
 62
     7
100
AcDbLine
 10
396.8594692553
 20
48.5644156857
 30
0.0
 11
395.0146952553
 21
48.5644156857
 31
0.0
  0
LINE
  5
142
330
1F
100
AcDbEntity
  8
0
  6
Continuous
 62
     7
100
AcDbLine
 10
396.8594692553
 20
38.1874996857
 30
0.0
 11
396.8594692553
 21
48.5644156857
 31
0.0
  0
LINE
  5
143
330
1F
100
AcDbEntity
  8
0
  6
Continuous
 62
     7
100
AcDbLine
 10
391.3251192553
 20
25.9658096857
 30
0.0
 11
391.3251192553
 21
38.1874996857
 31
0.0
  0
LINE
  5
144
330
1F
100
AcDbEntity
  8
0
  6
Continuous
 62
     7
100
AcDbLine
 10
395.0146952553
 20
25.9658096857
 30
0.0
 11
391.3251192553
 21
25.9658096857
 31
0.0
  0
LINE
  5
145
330
1F
100
AcDbEntity
  8
0
  6
Continuous
 62
     7
100
AcDbLine
 10
398.7042432553
 20
25.9658096857
 30
0.0
 11
395.0146952553
 21
25.9658096857
 31
0.0
  0
LINE
  5
146
330
1F
100
AcDbEntity
  8
0
  6
Continuous
 62
     7
100
AcDbLine
 10
398.7042432553
 20
38.1874996857
 30
0.0
 11
398.7042432553
 21
25.9658096857
 31
0.0
  0
LINE
  5
147
330
1F
100
AcDbEntity
  8
0
  6
Continuous
 62
     7
100
AcDbLine
 10
398.7042432553
 20
50.4091886857
 30
0.0
 11
398.7042432553
 21
38.1874996857
 31
0.0
  0
LINE
  5
148
330
1F
100
AcDbEntity
  8
0
  6
Continuous
 62
     7
100
AcDbLine
 10
395.0146952553
 20
50.4091886857
 30
0.0
 11
398.7042432553
 21
50.4091886857
 31
0.0
  0
LINE
  5
149
330
1F
100
AcDbEntity
  8
0
  6
Continuous
 62
     7
100
AcDbLine
 10
391.3251192553
 20
50.4091886857
 30
0.0
 11
395.0146952553
 21
50.4091886857
 31
0.0
  0
LINE
  5
14A
330
1F
100
AcDbEntity
  8
0
  6
Continuous
 62
     7
100
AcDbLine
 10
391.3251192553
 20
38.1874996857
 30
0.0
 11
391.3251192553
 21
50.4091886857
 31
0.0
  0
LINE
  5
14B
330
1F
100
AcDbEntity
  8
0
  6
Continuous
 62
     7
100
AcDbLine
 10
356.7354282553
 20
27.8106116857
 30
0.0
 11
356.7354282553
 21
38.1874996857
 31
0.0
  0
LINE
  5
14C
330
1F
100
AcDbEntity
  8
0
  6
Continuous
 62
     7
100
AcDbLine
 10
354.8906542553
 20
27.8106116857
 30
0.0
 11
356.7354282553
 21
27.8106116857
 31
0.0
  0
LINE
  5
14D
330
1F
100
AcDbEntity
  8
0
  6
Continuous
 62
     7
100
AcDbLine
 10
353.0458802553
 20
27.8106116857
 30
0.0
 11
354.8906542553
 21
27.8106116857
 31
0.0
  0
LINE
  5
14E
330
1F
100
AcDbEntity
  8
0
  6
Continuous
 62
     7
100
AcDbLine
 10
353.0458802553
 20
38.1874996857
 30
0.0
 11
353.0458802553
 21
27.8106116857
 31
0.0
  0
LINE
  5
14F
330
1F
100
AcDbEntity
  8
0
  6
Continuous
 62
     7
100
AcDbLine
 10
353.0458802553
 20
48.5644156857
 30
0.0
 11
353.0458802553
 21
38.1874996857
 31
0.0
  0
LINE
  5
150
330
1F
100
AcDbEntity
  8
0
  6
Continuous
 62
     7
100
AcDbLine
 10
354.8906542553
 20
48.5644156857
 30
0.0
 11
353.0458802553
 21
48.5644156857
 31
0.0
  0
LINE
  5
151
330
1F
100
AcDbEntity
  8
0
  6
Continuous
 62
     7
100
AcDbLine
 10
356.7354282553
 20
48.5644156857
 30
0.0
 11
354.8906542553
 21
48.5644156857
 31
0.0
  0
LINE
  5
152
330
1F
100
AcDbEntity
  8
0
  6
Continuous
 62
     7
100
AcDbLine
 10
356.7354282553
 20
38.1874996857
 30
0.0
 11
356.7354282553
 21
48.5644156857
 31
0.0
  0
LINE
  5
153
330
1F
100
AcDbEntity
  8
0
  6
Continuous
 62
     7
100
AcDbLine
 10
351.2010782553
 20
25.9658096857
 30
0.0
 11
351.2010782553
 21
38.1874996857
 31
0.0
  0
LINE
  5
154
330
1F
100
AcDbEntity
  8
0
  6
Continuous
 62
     7
100
AcDbLine
 10
354.8906542553
 20
25.9658096857
 30
0.0
 11
351.2010782553
 21
25.9658096857
 31
0.0
  0
LINE
  5
155
330
1F
100
AcDbEntity
  8
0
  6
Continuous
 62
     7
100
AcDbLine
 10
358.5802302553
 20
25.9658096857
 30
0.0
 11
354.8906542553
 21
25.9658096857
 31
0.0
  0
LINE
  5
156
330
1F
100
AcDbEntity
  8
0
  6
Continuous
 62
     7
100
AcDbLine
 10
358.5802302553
 20
38.1874996857
 30
0.0
 11
358.5802302553
 21
25.9658096857
 31
0.0
  0
LINE
  5
157
330
1F
100
AcDbEntity
  8
0
  6
Continuous
 62
     7
100
AcDbLine
 10
358.5802302553
 20
50.4091886857
 30
0.0
 11
358.5802302553
 21
38.1874996857
 31
0.0
  0
LINE
  5
158
330
1F
100
AcDbEntity
  8
0
  6
Continuous
 62
     7
100
AcDbLine
 10
354.8906542553
 20
50.4091886857
 30
0.0
 11
358.5802302553
 21
50.4091886857
 31
0.0
  0
LINE
  5
159
330
1F
100
AcDbEntity
  8
0
  6
Continuous
 62
     7
100
AcDbLine
 10
351.2010782553
 20
50.4091886857
 30
0.0
 11
354.8906542553
 21
50.4091886857
 31
0.0
  0
LINE
  5
15A
330
1F
100
AcDbEntity
  8
0
  6
Continuous
 62
     7
100
AcDbLine
 10
351.2010782553
 20
38.1874996857
 30
0.0
 11
351.2010782553
 21
50.4091886857
 31
0.0
  0
LINE
  5
15B
330
1F
100
AcDbEntity
  8
0
  6
Continuous
 62
     7
100
AcDbLine
 10
149.6585132553
 20
25.9658096857
 30
0.0
 11
149.6585132553
 21
29.6605216857
 31
0.0
  0
LINE
  5
15C
330
1F
100
AcDbEntity
  8
0
  6
Continuous
 62
     7
100
AcDbLine
 10
153.3480882553
 20
25.9658096857
 30
0.0
 11
149.6585132553
 21
25.9658096857
 31
0.0
  0
LINE
  5
15D
330
1F
100
AcDbEntity
  8
0
  6
Continuous
 62
     7
100
AcDbLine
 10
157.0376642553
 20
25.9658096857
 30
0.0
 11
153.3480882553
 21
25.9658096857
 31
0.0
  0
LINE
  5
15E
330
1F
100
AcDbEntity
  8
0
  6
Continuous
 62
     7
100
AcDbLine
 10
157.0376642553
 20
27.8054466857
 30
0.0
 11
157.0376642553
 21
25.9658096857
 31
0.0
  0
LINE
  5
15F
330
1F
100
AcDbEntity
  8
0
  6
Continuous
 62
     7
100
AcDbLine
 10
149.6585132553
 20
33.3552336857
 30
0.0
 11
153.3480882553
 21
31.5001586857
 31
0.0
  0
LINE
  5
160
330
1F
100
AcDbEntity
  8
0
  6
Continuous
 62
     7
100
AcDbLine
 10
149.6585132553
 20
29.6605216857
 30
0.0
 11
149.6585132553
 21
33.3552336857
 31
0.0
  0
LINE
  5
161
330
1F
100
AcDbEntity
  8
0
  6
Continuous
 62
     7
100
AcDbLine
 10
235.7412582553
 20
17.4806286857
 30
0.0
 11
235.7411162553
 21
17.4806286857
 31
0.0
  0
LINE
  5
162
330
1F
100
AcDbEntity
  8
0
  6
Continuous
 62
     7
100
AcDbLine
 10
237.3694262553
 20
50.4091886857
 30
0.0
 11
237.2123412553
 21
32.6758686857
 31
0.0
  0
LINE
  5
163
330
1F
100
AcDbEntity
  8
0
  6
Continuous
 62
     7
100
AcDbLine
 10
234.5604682553
 20
50.4091886857
 30
0.0
 11
237.3694262553
 21
50.4091886857
 31
0.0
  0
LINE
  5
164
330
1F
100
AcDbEntity
  8
0
  6
Continuous
 62
     7
100
AcDbLine
 10
231.7515102553
 20
50.4091886857
 30
0.0
 11
234.5604682553
 21
50.4091886857
 31
0.0
  0
LINE
  5
165
330
1F
100
AcDbEntity
  8
0
  6
Continuous
 62
     7
100
AcDbLine
 10
231.7515102553
 20
52.2539626857
 30
0.0
 11
231.7515102553
 21
50.4091886857
 31
0.0
  0
LINE
  5
166
330
1F
100
AcDbEntity
  8
0
  6
Continuous
 62
     7
100
AcDbLine
 10
231.7515102553
 20
54.0987646857
 30
0.0
 11
231.7515102553
 21
52.2539626857
 31
0.0
  0
LINE
  5
167
330
1F
100
AcDbEntity
  8
0
  6
Continuous
 62
     7
100
AcDbLine
 10
239.1306342553
 20
54.0987646857
 30
0.0
 11
231.7515102553
 21
54.0987646857
 31
0.0
  0
LINE
  5
168
330
1F
100
AcDbEntity
  8
0
  6
Continuous
 62
     7
100
AcDbLine
 10
246.5097572553
 20
54.0987646857
 30
0.0
 11
239.1306342553
 21
54.0987646857
 31
0.0
  0
LINE
  5
169
330
1F
100
AcDbEntity
  8
0
  6
Continuous
 62
     7
100
AcDbLine
 10
246.5097572553
 20
52.2539626857
 30
0.0
 11
246.5097572553
 21
54.0987646857
 31
0.0
  0
LINE
  5
16A
330
1F
100
AcDbEntity
  8
0
  6
Continuous
 62
     7
100
AcDbLine
 10
246.5097572553
 20
50.4091886857
 30
0.0
 11
246.5097572553
 21
52.2539626857
 31
0.0
  0
LINE
  5
16B
330
1F
100
AcDbEntity
  8
0
  6
Continuous
 62
     7
100
AcDbLine
 10
243.6971582553
 20
50.4091886857
 30
0.0
 11
246.5097572553
 21
50.4091886857
 31
0.0
  0
LINE
  5
16C
330
1F
100
AcDbEntity
  8
0
  6
Continuous
 62
     7
100
AcDbLine
 10
240.8845322553
 20
50.4091886857
 30
0.0
 11
243.6971582553
 21
50.4091886857
 31
0.0
  0
LINE
  5
16D
330
1F
100
AcDbEntity
  8
0
  6
Continuous
 62
     7
100
AcDbLine
 10
241.0453142553
 20
32.6760096857
 30
0.0
 11
240.8845322553
 21
50.4091886857
 31
0.0
  0
LINE
  5
16E
330
1F
100
AcDbEntity
  8
0
  6
Continuous
 62
     7
100
AcDbLine
 10
242.8200682553
 20
48.5644156857
 30
0.0
 11
242.8169642553
 21
34.3826356857
 31
0.0
  0
LINE
  5
16F
330
1F
100
AcDbEntity
  8
0
  6
Continuous
 62
     7
100
AcDbLine
 10
245.5872572553
 20
48.5644156857
 30
0.0
 11
242.8200682553
 21
48.5644156857
 31
0.0
  0
LINE
  5
170
330
1F
100
AcDbEntity
  8
0
  6
Continuous
 62
     7
100
AcDbLine
 10
248.3544182553
 20
48.5644156857
 30
0.0
 11
245.5872572553
 21
48.5644156857
 31
0.0
  0
LINE
  5
171
330
1F
100
AcDbEntity
  8
0
  6
Continuous
 62
     7
100
AcDbLine
 10
248.3544182553
 20
52.2539626857
 30
0.0
 11
248.3544182553
 21
48.5644156857
 31
0.0
  0
LINE
  5
172
330
1F
100
AcDbEntity
  8
0
  6
Continuous
 62
     7
100
AcDbLine
 10
248.3544182553
 20
55.9435386857
 30
0.0
 11
248.3544182553
 21
52.2539626857
 31
0.0
  0
LINE
  5
173
330
1F
100
AcDbEntity
  8
0
  6
Continuous
 62
     7
100
AcDbLine
 10
239.1305212553
 20
55.9435386857
 30
0.0
 11
248.3544182553
 21
55.9435386857
 31
0.0
  0
LINE
  5
174
330
1F
100
AcDbEntity
  8
0
  6
Continuous
 62
     7
100
AcDbLine
 10
229.9065952553
 20
55.9435386857
 30
0.0
 11
239.1305212553
 21
55.9435386857
 31
0.0
  0
LINE
  5
175
330
1F
100
AcDbEntity
  8
0
  6
Continuous
 62
     7
100
AcDbLine
 10
229.9065952553
 20
52.2539626857
 30
0.0
 11
229.9065952553
 21
55.9435386857
 31
0.0
  0
LINE
  5
176
330
1F
100
AcDbEntity
  8
0
  6
Continuous
 62
     7
100
AcDbLine
 10
229.9065952553
 20
48.5644156857
 30
0.0
 11
229.9065952553
 21
52.2539626857
 31
0.0
  0
LINE
  5
177
330
1F
100
AcDbEntity
  8
0
  6
Continuous
 62
     7
100
AcDbLine
 10
232.6737562553
 20
48.5644156857
 30
0.0
 11
229.9065952553
 21
48.5644156857
 31
0.0
  0
LINE
  5
178
330
1F
100
AcDbEntity
  8
0
  6
Continuous
 62
     7
100
AcDbLine
 10
235.4409452553
 20
48.5644156857
 30
0.0
 11
232.6737562553
 21
48.5644156857
 31
0.0
  0
LINE
  5
179
330
1F
100
AcDbEntity
  8
0
  6
Continuous
 62
     7
100
AcDbLine
 10
235.4409452553
 20
34.7981236857
 30
0.0
 11
235.4409452553
 21
48.5644156857
 31
0.0
  0
LINE
  5
17A
330
1F
100
AcDbEntity
  8
0
  6
Continuous
 62
     7
100
AcDbLine
 10
108.5361132553
 20
23.0640286857
 30
0.0
 11
106.9442672553
 21
23.8231216857
 31
0.0
  0
LINE
  5
17B
330
1F
100
AcDbEntity
  8
0
  6
Continuous
 62
     7
100
AcDbLine
 10
108.8600762553
 20
18.7429806857
 30
0.0
 11
108.5361132553
 21
23.0640286857
 31
0.0
  0
LINE
  5
17C
330
1F
100
AcDbEntity
  8
0
  6
Continuous
 62
     7
100
AcDbLine
 10
103.0777382553
 20
27.8733776857
 30
0.0
 11
106.7668622553
 21
25.8819046857
 31
0.0
  0
LINE
  5
17D
330
1F
100
AcDbEntity
  8
0
  6
Continuous
 62
     7
100
AcDbLine
 10
103.0777382553
 20
24.4526186857
 30
0.0
 11
103.0777382553
 21
27.8733776857
 31
0.0
  0
LINE
  5
17E
330
1F
100
AcDbEntity
  8
0
  6
Continuous
 62
     7
100
AcDbLine
 10
99.4734242553
 20
54.0987646857
 30
0.0
 11
99.2858032553
 21
34.8438436857
 31
0.0
  0
LINE
  5
17F
330
1F
100
AcDbEntity
  8
0
  6
Continuous
 62
     7
100
AcDbLine
 10
106.8099322553
 20
54.0987646857
 30
0.0
 11
99.4734242553
 21
54.0987646857
 31
0.0
  0
LINE
  5
180
330
1F
100
AcDbEntity
  8
0
  6
Continuous
 62
     7
100
AcDbLine
 10
114.1464402553
 20
54.0987646857
 30
0.0
 11
106.8099322553
 21
54.0987646857
 31
0.0
  0
LINE
  5
181
330
1F
100
AcDbEntity
  8
0
  6
Continuous
 62
     7
100
AcDbLine
 10
114.1464402553
 20
43.5902486857
 30
0.0
 11
114.1464402553
 21
54.0987646857
 31
0.0
  0
LINE
  5
182
330
1F
100
AcDbEntity
  8
0
  6
Continuous
 62
     7
100
AcDbLine
 10
114.1464402553
 20
33.0817326857
 30
0.0
 11
114.1464402553
 21
43.5902486857
 31
0.0
  0
LINE
  5
183
330
1F
100
AcDbEntity
  8
0
  6
Continuous
 62
     7
100
AcDbLine
 10
111.0943162553
 20
31.5766416857
 30
0.0
 11
114.1464402553
 21
33.0817326857
 31
0.0
  0
LINE
  5
184
330
1F
100
AcDbEntity
  8
0
  6
Continuous
 62
     7
100
AcDbLine
 10
113.9158612553
 20
26.6576206857
 30
0.0
 11
111.2928602553
 21
28.0507546857
 31
0.0
  0
LINE
  5
185
330
1F
100
AcDbEntity
  8
0
  6
Continuous
 62
     7
100
AcDbLine
 10
114.2544712553
 20
21.5844506857
 30
0.0
 11
113.9158612553
 21
26.6576206857
 31
0.0
  0
LINE
  5
186
330
1F
100
AcDbEntity
  8
0
  6
Continuous
 62
     7
100
AcDbLine
 10
115.9912392553
 20
27.6267996857
 30
0.0
 11
115.9456062553
 21
22.9914416857
 31
0.0
  0
LINE
  5
187
330
1F
100
AcDbEntity
  8
0
  6
Continuous
 62
     7
100
AcDbLine
 10
113.8021002553
 20
28.6903546857
 30
0.0
 11
115.9912392553
 21
27.6267996857
 31
0.0
  0
LINE
  5
188
330
1F
100
AcDbEntity
  8
0
  6
Continuous
 62
     7
100
AcDbLine
 10
111.6129562553
 20
29.7539376857
 30
0.0
 11
113.8021002553
 21
28.6903546857
 31
0.0
  0
LINE
  5
189
330
1F
100
AcDbEntity
  8
0
  6
Continuous
 62
     7
100
AcDbLine
 10
113.8021002555
 20
30.8664856858
 30
0.0
 11
111.6129562553
 21
29.7539376857
 31
0.0
  0
LINE
  5
18A
330
1F
100
AcDbEntity
  8
0
  6
Continuous
 62
     7
100
AcDbLine
 10
115.9912392553
 20
31.9790336857
 30
0.0
 11
113.8021002555
 21
30.8664856858
 31
0.0
  0
LINE
  5
18B
330
1F
100
AcDbEntity
  8
0
  6
Continuous
 62
     7
100
AcDbLine
 10
115.9912392553
 20
43.9612856857
 30
0.0
 11
115.9912392553
 21
31.9790336857
 31
0.0
  0
LINE
  5
18C
330
1F
100
AcDbEntity
  8
0
  6
Continuous
 62
     7
100
AcDbLine
 10
115.9912392553
 20
55.9435386857
 30
0.0
 11
115.9912392553
 21
43.9612856857
 31
0.0
  0
LINE
  5
18D
330
1F
100
AcDbEntity
  8
0
  6
Continuous
 62
     7
100
AcDbLine
 10
106.7673132553
 20
55.9435386857
 30
0.0
 11
115.9912392553
 21
55.9435386857
 31
0.0
  0
LINE
  5
18E
330
1F
100
AcDbEntity
  8
0
  6
Continuous
 62
     7
100
AcDbLine
 10
97.5433912553
 20
55.9435386857
 30
0.0
 11
106.7673132553
 21
55.9435386857
 31
0.0
  0
LINE
  5
18F
330
1F
100
AcDbEntity
  8
0
  6
Continuous
 62
     7
100
AcDbLine
 10
97.5433912553
 20
38.2570956857
 30
0.0
 11
97.5433912553
 21
55.9435386857
 31
0.0
  0
LINE
  5
190
330
1F
100
AcDbEntity
  8
0
  6
Continuous
 62
     7
100
AcDbLine
 10
333.9810922553
 20
16.5113086857
 30
0.0
 11
333.9812042553
 21
16.5113086857
 31
0.0
  0
LINE
  5
191
330
1F
100
AcDbEntity
  8
0
  6
Continuous
 62
     7
100
AcDbLine
 10
329.7554912553
 20
31.7307626857
 30
0.0
 11
329.4691202553
 21
24.8128186857
 31
0.0
  0
LINE
  5
192
330
1F
100
AcDbEntity
  8
0
  6
Continuous
 62
     7
100
AcDbLine
 10
331.6998892553
 20
25.9658096857
 30
0.0
 11
329.7554912553
 21
31.7307626857
 31
0.0
  0
LINE
  5
193
330
1F
100
AcDbEntity
  8
0
  6
Continuous
 62
     7
100
AcDbLine
 10
317.0725372553
 20
55.9435386857
 30
0.0
 11
317.0269302553
 21
36.6886166857
 31
0.0
  0
LINE
  5
194
330
1F
100
AcDbEntity
  8
0
  6
Continuous
 62
     7
100
AcDbLine
 10
313.3829902553
 20
55.9435386857
 30
0.0
 11
317.0725372553
 21
55.9435386857
 31
0.0
  0
LINE
  5
195
330
1F
100
AcDbEntity
  8
0
  6
Continuous
 62
     7
100
AcDbLine
 10
309.6934142553
 20
55.9435386857
 30
0.0
 11
313.3829902553
 21
55.9435386857
 31
0.0
  0
LINE
  5
196
330
1F
100
AcDbEntity
  8
0
  6
Continuous
 62
     7
100
AcDbLine
 10
309.6934142553
 20
44.6442356857
 30
0.0
 11
309.6934142553
 21
55.9435386857
 31
0.0
  0
LINE
  5
197
330
1F
100
AcDbEntity
  8
0
  6
Continuous
 62
     7
100
AcDbLine
 10
309.6934142553
 20
33.3449606857
 30
0.0
 11
309.6934142553
 21
44.6442356857
 31
0.0
  0
LINE
  5
198
330
1F
100
AcDbEntity
  8
0
  6
Continuous
 62
     7
100
AcDbLine
 10
307.8486402553
 20
33.3449606857
 30
0.0
 11
309.6934142553
 21
33.3449606857
 31
0.0
  0
LINE
  5
199
330
1F
100
AcDbEntity
  8
0
  6
Continuous
 62
     7
100
AcDbLine
 10
306.0038382553
 20
33.3449606857
 30
0.0
 11
307.8486402553
 21
33.3449606857
 31
0.0
  0
LINE
  5
19A
330
1F
100
AcDbEntity
  8
0
  6
Continuous
 62
     7
100
AcDbLine
 10
306.0038382553
 20
44.6442356857
 30
0.0
 11
306.0038382553
 21
33.3449606857
 31
0.0
  0
LINE
  5
19B
330
1F
100
AcDbEntity
  8
0
  6
Continuous
 62
     7
100
AcDbLine
 10
306.0038382553
 20
55.9435386857
 30
0.0
 11
306.0038382553
 21
44.6442356857
 31
0.0
  0
LINE
  5
19C
330
1F
100
AcDbEntity
  8
0
  6
Continuous
 62
     7
100
AcDbLine
 10
302.3142912553
 20
55.9435386857
 30
0.0
 11
306.0038382553
 21
55.9435386857
 31
0.0
  0
LINE
  5
19D
330
1F
100
AcDbEntity
  8
0
  6
Continuous
 62
     7
100
AcDbLine
 10
298.6247152553
 20
55.9435386857
 30
0.0
 11
302.3142912553
 21
55.9435386857
 31
0.0
  0
LINE
  5
19E
330
1F
100
AcDbEntity
  8
0
  6
Continuous
 62
     7
100
AcDbLine
 10
298.6275372553
 20
38.5333906857
 30
0.0
 11
298.6247152553
 21
55.9435386857
 31
0.0
  0
LINE
  5
19F
330
1F
100
AcDbEntity
  8
0
  6
Continuous
 62
     7
100
AcDbLine
 10
300.5485112553
 20
54.0987646857
 30
0.0
 11
300.3486692553
 21
35.0744186857
 31
0.0
  0
LINE
  5
1A0
330
1F
100
AcDbEntity
  8
0
  6
Continuous
 62
     7
100
AcDbLine
 10
302.3538022553
 20
54.0987646857
 30
0.0
 11
300.5485112553
 21
54.0987646857
 31
0.0
  0
LINE
  5
1A1
330
1F
100
AcDbEntity
  8
0
  6
Continuous
 62
     7
100
AcDbLine
 10
304.1591212553
 20
54.0987646857
 30
0.0
 11
302.3538022553
 21
54.0987646857
 31
0.0
  0
LINE
  5
1A2
330
1F
100
AcDbEntity
  8
0
  6
Continuous
 62
     7
100
AcDbLine
 10
304.1591212553
 20
42.7994616857
 30
0.0
 11
304.1591212553
 21
54.0987646857
 31
0.0
  0
LINE
  5
1A3
330
1F
100
AcDbEntity
  8
0
  6
Continuous
 62
     7
100
AcDbLine
 10
304.1591212553
 20
31.5001586857
 30
0.0
 11
304.1591212553
 21
42.7994616857
 31
0.0
  0
LINE
  5
1A4
330
1F
100
AcDbEntity
  8
0
  6
Continuous
 62
     7
100
AcDbLine
 10
307.8486682553
 20
31.5001586857
 30
0.0
 11
304.1591212553
 21
31.5001586857
 31
0.0
  0
LINE
  5
1A5
330
1F
100
AcDbEntity
  8
0
  6
Continuous
 62
     7
100
AcDbLine
 10
311.5382442553
 20
31.5001586857
 30
0.0
 11
307.8486682553
 21
31.5001586857
 31
0.0
  0
LINE
  5
1A6
330
1F
100
AcDbEntity
  8
0
  6
Continuous
 62
     7
100
AcDbLine
 10
311.5382442553
 20
42.7994616857
 30
0.0
 11
311.5382442553
 21
31.5001586857
 31
0.0
  0
LINE
  5
1A7
330
1F
100
AcDbEntity
  8
0
  6
Continuous
 62
     7
100
AcDbLine
 10
311.5382442553
 20
54.0987646857
 30
0.0
 11
311.5382442553
 21
42.7994616857
 31
0.0
  0
LINE
  5
1A8
330
1F
100
AcDbEntity
  8
0
  6
Continuous
 62
     7
100
AcDbLine
 10
313.3378622553
 20
54.0987646857
 30
0.0
 11
311.5382442553
 21
54.0987646857
 31
0.0
  0
LINE
  5
1A9
330
1F
100
AcDbEntity
  8
0
  6
Continuous
 62
     7
100
AcDbLine
 10
315.1374522553
 20
54.0987646857
 30
0.0
 11
313.3378622553
 21
54.0987646857
 31
0.0
  0
LINE
  5
1AA
330
1F
100
AcDbEntity
  8
0
  6
Continuous
 62
     7
100
AcDbLine
 10
315.3524212553
 20
34.3826356857
 30
0.0
 11
315.1374522553
 21
54.0987646857
 31
0.0
  0
LINE
  5
1AB
330
1F
100
AcDbEntity
  8
0
  6
Continuous
 62
     7
100
AcDbLine
 10
427.7595852553
 20
38.8793106857
 30
0.0
 11
427.7139782553
 21
27.2340876857
 31
0.0
  0
LINE
  5
1AC
330
1F
100
AcDbEntity
  8
0
  6
Continuous
 62
     7
100
AcDbLine
 10
424.0700372553
 20
38.8793106857
 30
0.0
 11
427.7595852553
 21
38.8793106857
 31
0.0
  0
LINE
  5
1AD
330
1F
100
AcDbEntity
  8
0
  6
Continuous
 62
     7
100
AcDbLine
 10
420.3804622553
 20
38.8793106857
 30
0.0
 11
424.0700372553
 21
38.8793106857
 31
0.0
  0
LINE
  5
1AE
330
1F
100
AcDbEntity
  8
0
  6
Continuous
 62
     7
100
AcDbLine
 10
420.3804622553
 20
33.3449606857
 30
0.0
 11
420.3804622553
 21
38.8793106857
 31
0.0
  0
LINE
  5
1AF
330
1F
100
AcDbEntity
  8
0
  6
Continuous
 62
     7
100
AcDbLine
 10
420.3804622553
 20
27.8105836857
 30
0.0
 11
420.3804622553
 21
33.3449606857
 31
0.0
  0
LINE
  5
1B0
330
1F
100
AcDbEntity
  8
0
  6
Continuous
 62
     7
100
AcDbLine
 10
418.5356602553
 20
27.8105836857
 30
0.0
 11
420.3804622553
 21
27.8105836857
 31
0.0
  0
LINE
  5
1B1
330
1F
100
AcDbEntity
  8
0
  6
Continuous
 62
     7
100
AcDbLine
 10
416.6908862553
 20
27.8105836857
 30
0.0
 11
418.5356602553
 21
27.8105836857
 31
0.0
  0
LINE
  5
1B2
330
1F
100
AcDbEntity
  8
0
  6
Continuous
 62
     7
100
AcDbLine
 10
416.6908862553
 20
38.1874996857
 30
0.0
 11
416.6908862553
 21
27.8105836857
 31
0.0
  0
LINE
  5
1B3
330
1F
100
AcDbEntity
  8
0
  6
Continuous
 62
     7
100
AcDbLine
 10
416.6908862553
 20
48.5644156857
 30
0.0
 11
416.6908862553
 21
38.1874996857
 31
0.0
  0
LINE
  5
1B4
330
1F
100
AcDbEntity
  8
0
  6
Continuous
 62
     7
100
AcDbLine
 10
418.5356602553
 20
48.5644156857
 30
0.0
 11
416.6908862553
 21
48.5644156857
 31
0.0
  0
LINE
  5
1B5
330
1F
100
AcDbEntity
  8
0
  6
Continuous
 62
     7
100
AcDbLine
 10
420.3804622553
 20
48.5644156857
 30
0.0
 11
418.5356602553
 21
48.5644156857
 31
0.0
  0
LINE
  5
1B6
330
1F
100
AcDbEntity
  8
0
  6
Continuous
 62
     7
100
AcDbLine
 10
420.3804622553
 20
45.7972266857
 30
0.0
 11
420.3804622553
 21
48.5644156857
 31
0.0
  0
LINE
  5
1B7
330
1F
100
AcDbEntity
  8
0
  6
Continuous
 62
     7
100
AcDbLine
 10
420.3804622553
 20
43.0300656857
 30
0.0
 11
420.3804622553
 21
45.7972266857
 31
0.0
  0
LINE
  5
1B8
330
1F
100
AcDbEntity
  8
0
  6
Continuous
 62
     7
100
AcDbLine
 10
424.0700372553
 20
43.0300656857
 30
0.0
 11
420.3804622553
 21
43.0300656857
 31
0.0
  0
LINE
  5
1B9
330
1F
100
AcDbEntity
  8
0
  6
Continuous
 62
     7
100
AcDbLine
 10
427.7595852553
 20
43.0300656857
 30
0.0
 11
424.0700372553
 21
43.0300656857
 31
0.0
  0
LINE
  5
1BA
330
1F
100
AcDbEntity
  8
0
  6
Continuous
 62
     7
100
AcDbLine
 10
427.7595852553
 20
49.4868016857
 30
0.0
 11
427.7595852553
 21
43.0300656857
 31
0.0
  0
LINE
  5
1BB
330
1F
100
AcDbEntity
  8
0
  6
Continuous
 62
     7
100
AcDbLine
 10
427.7595852553
 20
55.9435386857
 30
0.0
 11
427.7595852553
 21
49.4868016857
 31
0.0
  0
LINE
  5
1BC
330
1F
100
AcDbEntity
  8
0
  6
Continuous
 62
     7
100
AcDbLine
 10
418.5356602553
 20
55.9435386857
 30
0.0
 11
427.7595852553
 21
55.9435386857
 31
0.0
  0
LINE
  5
1BD
330
1F
100
AcDbEntity
  8
0
  6
Continuous
 62
     7
100
AcDbLine
 10
409.3117622553
 20
55.9435386857
 30
0.0
 11
418.5356602553
 21
55.9435386857
 31
0.0
  0
LINE
  5
1BE
330
1F
100
AcDbEntity
  8
0
  6
Continuous
 62
     7
100
AcDbLine
 10
409.3117622553
 20
38.7182746857
 30
0.0
 11
409.3117622553
 21
55.9435386857
 31
0.0
  0
LINE
  5
1BF
330
1F
100
AcDbEntity
  8
0
  6
Continuous
 62
     7
100
AcDbLine
 10
411.2362642553
 20
54.0987646857
 30
0.0
 11
411.0550772553
 21
35.3050226857
 31
0.0
  0
LINE
  5
1C0
330
1F
100
AcDbEntity
  8
0
  6
Continuous
 62
     7
100
AcDbLine
 10
418.5755382553
 20
54.0987646857
 30
0.0
 11
411.2362642553
 21
54.0987646857
 31
0.0
  0
LINE
  5
1C1
330
1F
100
AcDbEntity
  8
0
  6
Continuous
 62
     7
100
AcDbLine
 10
425.9148112553
 20
54.0987646857
 30
0.0
 11
418.5755382553
 21
54.0987646857
 31
0.0
  0
LINE
  5
1C2
330
1F
100
AcDbEntity
  8
0
  6
Continuous
 62
     7
100
AcDbLine
 10
425.9148112553
 20
49.4868016857
 30
0.0
 11
425.9148112553
 21
54.0987646857
 31
0.0
  0
LINE
  5
1C3
330
1F
100
AcDbEntity
  8
0
  6
Continuous
 62
     7
100
AcDbLine
 10
425.9148112553
 20
44.8748396857
 30
0.0
 11
425.9148112553
 21
49.4868016857
 31
0.0
  0
LINE
  5
1C4
330
1F
100
AcDbEntity
  8
0
  6
Continuous
 62
     7
100
AcDbLine
 10
424.0700372553
 20
44.8748396857
 30
0.0
 11
425.9148112553
 21
44.8748396857
 31
0.0
  0
LINE
  5
1C5
330
1F
100
AcDbEntity
  8
0
  6
Continuous
 62
     7
100
AcDbLine
 10
422.2252352553
 20
44.8748396857
 30
0.0
 11
424.0700372553
 21
44.8748396857
 31
0.0
  0
LINE
  5
1C6
330
1F
100
AcDbEntity
  8
0
  6
Continuous
 62
     7
100
AcDbLine
 10
422.2252352553
 20
47.6420286857
 30
0.0
 11
422.2252352553
 21
44.8748396857
 31
0.0
  0
LINE
  5
1C7
330
1F
100
AcDbEntity
  8
0
  6
Continuous
 62
     7
100
AcDbLine
 10
422.2252352553
 20
50.4091886857
 30
0.0
 11
422.2252352553
 21
47.6420286857
 31
0.0
  0
LINE
  5
1C8
330
1F
100
AcDbEntity
  8
0
  6
Continuous
 62
     7
100
AcDbLine
 10
418.5356602553
 20
50.4091886857
 30
0.0
 11
422.2252352553
 21
50.4091886857
 31
0.0
  0
LINE
  5
1C9
330
1F
100
AcDbEntity
  8
0
  6
Continuous
 62
     7
100
AcDbLine
 10
414.8461122553
 20
50.4091886857
 30
0.0
 11
418.5356602553
 21
50.4091886857
 31
0.0
  0
LINE
  5
1CA
330
1F
100
AcDbEntity
  8
0
  6
Continuous
 62
     7
100
AcDbLine
 10
414.8461122553
 20
38.1874996857
 30
0.0
 11
414.8461122553
 21
50.4091886857
 31
0.0
  0
LINE
  5
1CB
330
1F
100
AcDbEntity
  8
0
  6
Continuous
 62
     7
100
AcDbLine
 10
414.8461122553
 20
25.9658096857
 30
0.0
 11
414.8461122553
 21
38.1874996857
 31
0.0
  0
LINE
  5
1CC
330
1F
100
AcDbEntity
  8
0
  6
Continuous
 62
     7
100
AcDbLine
 10
418.5356602553
 20
25.9658096857
 30
0.0
 11
414.8461122553
 21
25.9658096857
 31
0.0
  0
LINE
  5
1CD
330
1F
100
AcDbEntity
  8
0
  6
Continuous
 62
     7
100
AcDbLine
 10
422.2252352553
 20
25.9658096857
 30
0.0
 11
418.5356602553
 21
25.9658096857
 31
0.0
  0
LINE
  5
1CE
330
1F
100
AcDbEntity
  8
0
  6
Continuous
 62
     7
100
AcDbLine
 10
422.2252352553
 20
31.5001586857
 30
0.0
 11
422.2252352553
 21
25.9658096857
 31
0.0
  0
LINE
  5
1CF
330
1F
100
AcDbEntity
  8
0
  6
Continuous
 62
     7
100
AcDbLine
 10
422.2252352553
 20
37.0345086857
 30
0.0
 11
422.2252352553
 21
31.5001586857
 31
0.0
  0
LINE
  5
1D0
330
1F
100
AcDbEntity
  8
0
  6
Continuous
 62
     7
100
AcDbLine
 10
424.0113352553
 20
37.0345086857
 30
0.0
 11
422.2252352553
 21
37.0345086857
 31
0.0
  0
LINE
  5
1D1
330
1F
100
AcDbEntity
  8
0
  6
Continuous
 62
     7
100
AcDbLine
 10
425.7974632553
 20
37.0345086857
 30
0.0
 11
424.0113352553
 21
37.0345086857
 31
0.0
  0
LINE
  5
1D2
330
1F
100
AcDbEntity
  8
0
  6
Continuous
 62
     7
100
AcDbLine
 10
426.0610592553
 20
25.1587386857
 30
0.0
 11
425.7974632553
 21
37.0345086857
 31
0.0
  0
LINE
  5
1D3
330
1F
100
AcDbEntity
  8
0
  6
Continuous
 62
     7
100
AcDbLine
 10
369.4930862553
 20
13.7313066857
 30
0.0
 11
369.4929732553
 21
13.7313066857
 31
0.0
  0
LINE
  5
1D4
330
1F
100
AcDbEntity
  8
0
  6
Continuous
 62
     7
100
AcDbLine
 10
371.1128722553
 20
54.0987646857
 30
0.0
 11
370.9310922553
 21
33.2296446857
 31
0.0
  0
LINE
  5
1D5
330
1F
100
AcDbEntity
  8
0
  6
Continuous
 62
     7
100
AcDbLine
 10
372.9175422553
 20
54.0987646857
 30
0.0
 11
371.1128722553
 21
54.0987646857
 31
0.0
  0
LINE
  5
1D6
330
1F
100
AcDbEntity
  8
0
  6
Continuous
 62
     7
100
AcDbLine
 10
374.7222122553
 20
54.0987646857
 30
0.0
 11
372.9175422553
 21
54.0987646857
 31
0.0
  0
LINE
  5
1D7
330
1F
100
AcDbEntity
  8
0
  6
Continuous
 62
     7
100
AcDbLine
 10
374.7222122553
 20
40.0323016857
 30
0.0
 11
374.7222122553
 21
54.0987646857
 31
0.0
  0
LINE
  5
1D8
330
1F
100
AcDbEntity
  8
0
  6
Continuous
 62
     7
100
AcDbLine
 10
374.7222122553
 20
25.9658096857
 30
0.0
 11
374.7222122553
 21
40.0323016857
 31
0.0
  0
LINE
  5
1D9
330
1F
100
AcDbEntity
  8
0
  6
Continuous
 62
     7
100
AcDbLine
 10
377.4237282553
 20
25.9658096857
 30
0.0
 11
374.7222122553
 21
25.9658096857
 31
0.0
  0
LINE
  5
1DA
330
1F
100
AcDbEntity
  8
0
  6
Continuous
 62
     7
100
AcDbLine
 10
380.1252722553
 20
25.9658096857
 30
0.0
 11
377.4237282553
 21
25.9658096857
 31
0.0
  0
LINE
  5
1DB
330
1F
100
AcDbEntity
  8
0
  6
Continuous
 62
     7
100
AcDbLine
 10
380.4505612553
 20
20.7773516857
 30
0.0
 11
380.1252722553
 21
25.9658096857
 31
0.0
  0
LINE
  5
1DC
330
1F
100
AcDbEntity
  8
0
  6
Continuous
 62
     7
100
AcDbLine
 10
382.1011942553
 20
27.8106116857
 30
0.0
 11
382.0980902553
 21
24.4669276857
 31
0.0
  0
LINE
  5
1DD
330
1F
100
AcDbEntity
  8
0
  6
Continuous
 62
     7
100
AcDbLine
 10
379.3340332553
 20
27.8106116857
 30
0.0
 11
382.1011942553
 21
27.8106116857
 31
0.0
  0
LINE
  5
1DE
330
1F
100
AcDbEntity
  8
0
  6
Continuous
 62
     7
100
AcDbLine
 10
376.5668442553
 20
27.8106116857
 30
0.0
 11
379.3340332553
 21
27.8106116857
 31
0.0
  0
LINE
  5
1DF
330
1F
100
AcDbEntity
  8
0
  6
Continuous
 62
     7
100
AcDbLine
 10
376.5668442553
 20
41.8770746857
 30
0.0
 11
376.5668442553
 21
27.8106116857
 31
0.0
  0
LINE
  5
1E0
330
1F
100
AcDbEntity
  8
0
  6
Continuous
 62
     7
100
AcDbLine
 10
376.5668442553
 20
55.9435386857
 30
0.0
 11
376.5668442553
 21
41.8770746857
 31
0.0
  0
LINE
  5
1E1
330
1F
100
AcDbEntity
  8
0
  6
Continuous
 62
     7
100
AcDbLine
 10
372.8772972553
 20
55.9435386857
 30
0.0
 11
376.5668442553
 21
55.9435386857
 31
0.0
  0
LINE
  5
1E2
330
1F
100
AcDbEntity
  8
0
  6
Continuous
 62
     7
100
AcDbLine
 10
369.1877212553
 20
55.9435386857
 30
0.0
 11
372.8772972553
 21
55.9435386857
 31
0.0
  0
LINE
  5
1E3
330
1F
100
AcDbEntity
  8
0
  6
Continuous
 62
     7
100
AcDbLine
 10
369.1877212553
 20
36.6428966857
 30
0.0
 11
369.1877212553
 21
55.9435386857
 31
0.0
  0
LINE
  5
1E4
330
1F
100
AcDbEntity
  8
0
  6
Continuous
 62
     7
100
AcDbLine
 10
294.0128092553
 20
33.3449606857
 30
0.0
 11
293.9672022553
 21
24.2363236857
 31
0.0
  0
LINE
  5
1E5
330
1F
100
AcDbEntity
  8
0
  6
Continuous
 62
     7
100
AcDbLine
 10
290.3232332553
 20
33.3449606857
 30
0.0
 11
294.0128092553
 21
33.3449606857
 31
0.0
  0
LINE
  5
1E6
330
1F
100
AcDbEntity
  8
0
  6
Continuous
 62
     7
100
AcDbLine
 10
286.6336852553
 20
33.3449606857
 30
0.0
 11
290.3232332553
 21
33.3449606857
 31
0.0
  0
LINE
  5
1E7
330
1F
100
AcDbEntity
  8
0
  6
Continuous
 62
     7
100
AcDbLine
 10
286.6336852553
 20
30.5777716857
 30
0.0
 11
286.6336852553
 21
33.3449606857
 31
0.0
  0
LINE
  5
1E8
330
1F
100
AcDbEntity
  8
0
  6
Continuous
 62
     7
100
AcDbLine
 10
286.6336852553
 20
27.8105836857
 30
0.0
 11
286.6336852553
 21
30.5777716857
 31
0.0
  0
LINE
  5
1E9
330
1F
100
AcDbEntity
  8
0
  6
Continuous
 62
     7
100
AcDbLine
 10
284.7888832553
 20
27.8105836857
 30
0.0
 11
286.6336852553
 21
27.8105836857
 31
0.0
  0
LINE
  5
1EA
330
1F
100
AcDbEntity
  8
0
  6
Continuous
 62
     7
100
AcDbLine
 10
282.9441102553
 20
27.8105836857
 30
0.0
 11
284.7888832553
 21
27.8105836857
 31
0.0
  0
LINE
  5
1EB
330
1F
100
AcDbEntity
  8
0
  6
Continuous
 62
     7
100
AcDbLine
 10
282.9441102553
 20
38.1874996857
 30
0.0
 11
282.9441102553
 21
27.8105836857
 31
0.0
  0
LINE
  5
1EC
330
1F
100
AcDbEntity
  8
0
  6
Continuous
 62
     7
100
AcDbLine
 10
282.9441102553
 20
48.5644156857
 30
0.0
 11
282.9441102553
 21
38.1874996857
 31
0.0
  0
LINE
  5
1ED
330
1F
100
AcDbEntity
  8
0
  6
Continuous
 62
     7
100
AcDbLine
 10
284.7888832553
 20
48.5644156857
 30
0.0
 11
282.9441102553
 21
48.5644156857
 31
0.0
  0
LINE
  5
1EE
330
1F
100
AcDbEntity
  8
0
  6
Continuous
 62
     7
100
AcDbLine
 10
286.6336852553
 20
48.5644156857
 30
0.0
 11
284.7888832553
 21
48.5644156857
 31
0.0
  0
LINE
  5
1EF
330
1F
100
AcDbEntity
  8
0
  6
Continuous
 62
     7
100
AcDbLine
 10
286.6336852553
 20
45.7972266857
 30
0.0
 11
286.6336852553
 21
48.5644156857
 31
0.0
  0
LINE
  5
1F0
330
1F
100
AcDbEntity
  8
0
  6
Continuous
 62
     7
100
AcDbLine
 10
286.6336852553
 20
43.0300656857
 30
0.0
 11
286.6336852553
 21
45.7972266857
 31
0.0
  0
LINE
  5
1F1
330
1F
100
AcDbEntity
  8
0
  6
Continuous
 62
     7
100
AcDbLine
 10
290.3232332553
 20
43.0300656857
 30
0.0
 11
286.6336852553
 21
43.0300656857
 31
0.0
  0
LINE
  5
1F2
330
1F
100
AcDbEntity
  8
0
  6
Continuous
 62
     7
100
AcDbLine
 10
294.0128092553
 20
43.0300656857
 30
0.0
 11
290.3232332553
 21
43.0300656857
 31
0.0
  0
LINE
  5
1F3
330
1F
100
AcDbEntity
  8
0
  6
Continuous
 62
     7
100
AcDbLine
 10
294.0128092553
 20
49.4868016857
 30
0.0
 11
294.0128092553
 21
43.0300656857
 31
0.0
  0
LINE
  5
1F4
330
1F
100
AcDbEntity
  8
0
  6
Continuous
 62
     7
100
AcDbLine
 10
294.0128092553
 20
55.9435386857
 30
0.0
 11
294.0128092553
 21
49.4868016857
 31
0.0
  0
LINE
  5
1F5
330
1F
100
AcDbEntity
  8
0
  6
Continuous
 62
     7
100
AcDbLine
 10
284.7888832553
 20
55.9435386857
 30
0.0
 11
294.0128092553
 21
55.9435386857
 31
0.0
  0
LINE
  5
1F6
330
1F
100
AcDbEntity
  8
0
  6
Continuous
 62
     7
100
AcDbLine
 10
275.5649862553
 20
55.9435386857
 30
0.0
 11
284.7888832553
 21
55.9435386857
 31
0.0
  0
LINE
  5
1F7
330
1F
100
AcDbEntity
  8
0
  6
Continuous
 62
     7
100
AcDbLine
 10
275.5649862553
 20
38.4876706857
 30
0.0
 11
275.5649862553
 21
55.9435386857
 31
0.0
  0
LINE
  5
1F8
330
1F
100
AcDbEntity
  8
0
  6
Continuous
 62
     7
100
AcDbLine
 10
277.4957812553
 20
54.0987646857
 30
0.0
 11
277.3072292553
 21
35.0744186857
 31
0.0
  0
LINE
  5
1F9
330
1F
100
AcDbEntity
  8
0
  6
Continuous
 62
     7
100
AcDbLine
 10
284.8318942553
 20
54.0987646857
 30
0.0
 11
277.4957812553
 21
54.0987646857
 31
0.0
  0
LINE
  5
1FA
330
1F
100
AcDbEntity
  8
0
  6
Continuous
 62
     7
100
AcDbLine
 10
292.1680352553
 20
54.0987646857
 30
0.0
 11
284.8318942553
 21
54.0987646857
 31
0.0
  0
LINE
  5
1FB
330
1F
100
AcDbEntity
  8
0
  6
Continuous
 62
     7
100
AcDbLine
 10
292.1680352553
 20
49.4868016857
 30
0.0
 11
292.1680352553
 21
54.0987646857
 31
0.0
  0
LINE
  5
1FC
330
1F
100
AcDbEntity
  8
0
  6
Continuous
 62
     7
100
AcDbLine
 10
292.1680352553
 20
44.8748396857
 30
0.0
 11
292.1680352553
 21
49.4868016857
 31
0.0
  0
LINE
  5
1FD
330
1F
100
AcDbEntity
  8
0
  6
Continuous
 62
     7
100
AcDbLine
 10
290.3232332553
 20
44.8748396857
 30
0.0
 11
292.1680352553
 21
44.8748396857
 31
0.0
  0
LINE
  5
1FE
330
1F
100
AcDbEntity
  8
0
  6
Continuous
 62
     7
100
AcDbLine
 10
288.4784592553
 20
44.8748396857
 30
0.0
 11
290.3232332553
 21
44.8748396857
 31
0.0
  0
LINE
  5
1FF
330
1F
100
AcDbEntity
  8
0
  6
Continuous
 62
     7
100
AcDbLine
 10
288.4784592553
 20
47.6420286857
 30
0.0
 11
288.4784592553
 21
44.8748396857
 31
0.0
  0
LINE
  5
200
330
1F
100
AcDbEntity
  8
0
  6
Continuous
 62
     7
100
AcDbLine
 10
288.4784592553
 20
50.4091886857
 30
0.0
 11
288.4784592553
 21
47.6420286857
 31
0.0
  0
LINE
  5
201
330
1F
100
AcDbEntity
  8
0
  6
Continuous
 62
     7
100
AcDbLine
 10
284.7888832553
 20
50.4091886857
 30
0.0
 11
288.4784592553
 21
50.4091886857
 31
0.0
  0
LINE
  5
202
330
1F
100
AcDbEntity
  8
0
  6
Continuous
 62
     7
100
AcDbLine
 10
281.0993362553
 20
50.4091886857
 30
0.0
 11
284.7888832553
 21
50.4091886857
 31
0.0
  0
LINE
  5
203
330
1F
100
AcDbEntity
  8
0
  6
Continuous
 62
     7
100
AcDbLine
 10
281.0993362553
 20
38.1874996857
 30
0.0
 11
281.0993362553
 21
50.4091886857
 31
0.0
  0
LINE
  5
204
330
1F
100
AcDbEntity
  8
0
  6
Continuous
 62
     7
100
AcDbLine
 10
281.0993362553
 20
25.9658096857
 30
0.0
 11
281.0993362553
 21
38.1874996857
 31
0.0
  0
LINE
  5
205
330
1F
100
AcDbEntity
  8
0
  6
Continuous
 62
     7
100
AcDbLine
 10
284.7888832553
 20
25.9658096857
 30
0.0
 11
281.0993362553
 21
25.9658096857
 31
0.0
  0
LINE
  5
206
330
1F
100
AcDbEntity
  8
0
  6
Continuous
 62
     7
100
AcDbLine
 10
288.4784592553
 20
25.9658096857
 30
0.0
 11
284.7888832553
 21
25.9658096857
 31
0.0
  0
LINE
  5
207
330
1F
100
AcDbEntity
  8
0
  6
Continuous
 62
     7
100
AcDbLine
 10
288.4784592553
 20
28.7329986857
 30
0.0
 11
288.4784592553
 21
25.9658096857
 31
0.0
  0
LINE
  5
208
330
1F
100
AcDbEntity
  8
0
  6
Continuous
 62
     7
100
AcDbLine
 10
288.4784592553
 20
31.5001586857
 30
0.0
 11
288.4784592553
 21
28.7329986857
 31
0.0
  0
LINE
  5
209
330
1F
100
AcDbEntity
  8
0
  6
Continuous
 62
     7
100
AcDbLine
 10
290.2571932553
 20
31.5001586857
 30
0.0
 11
288.4784592553
 21
31.5001586857
 31
0.0
  0
LINE
  5
20A
330
1F
100
AcDbEntity
  8
0
  6
Continuous
 62
     7
100
AcDbLine
 10
292.0359552553
 20
31.5001586857
 30
0.0
 11
290.2571932553
 21
31.5001586857
 31
0.0
  0
LINE
  5
20B
330
1F
100
AcDbEntity
  8
0
  6
Continuous
 62
     7
100
AcDbLine
 10
292.3209712553
 20
22.1609456857
 30
0.0
 11
292.0359552553
 21
31.5001586857
 31
0.0
  0
LINE
  5
20C
330
1F
100
AcDbEntity
  8
0
  6
Continuous
 62
     7
100
AcDbLine
 10
191.0103052553
 20
13.7313066857
 30
0.0
 11
191.0101922553
 21
13.7313066857
 31
0.0
  0
LINE
  5
20D
330
1F
100
AcDbEntity
  8
0
  6
Continuous
 62
     7
100
AcDbLine
 10
192.6300922553
 20
54.0987646857
 30
0.0
 11
192.4483122553
 21
33.2296446857
 31
0.0
  0
LINE
  5
20E
330
1F
100
AcDbEntity
  8
0
  6
Continuous
 62
     7
100
AcDbLine
 10
194.4347622553
 20
54.0987646857
 30
0.0
 11
192.6300922553
 21
54.0987646857
 31
0.0
  0
LINE
  5
20F
330
1F
100
AcDbEntity
  8
0
  6
Continuous
 62
     7
100
AcDbLine
 10
196.2394322553
 20
54.0987646857
 30
0.0
 11
194.4347622553
 21
54.0987646857
 31
0.0
  0
LINE
  5
210
330
1F
100
AcDbEntity
  8
0
  6
Continuous
 62
     7
100
AcDbLine
 10
196.2394322553
 20
40.0323016857
 30
0.0
 11
196.2394322553
 21
54.0987646857
 31
0.0
  0
LINE
  5
211
330
1F
100
AcDbEntity
  8
0
  6
Continuous
 62
     7
100
AcDbLine
 10
196.2394322553
 20
25.9658096857
 30
0.0
 11
196.2394322553
 21
40.0323016857
 31
0.0
  0
LINE
  5
212
330
1F
100
AcDbEntity
  8
0
  6
Continuous
 62
     7
100
AcDbLine
 10
198.9409472553
 20
25.9658096857
 30
0.0
 11
196.2394322553
 21
25.9658096857
 31
0.0
  0
LINE
  5
213
330
1F
100
AcDbEntity
  8
0
  6
Continuous
 62
     7
100
AcDbLine
 10
201.6424912553
 20
25.9658096857
 30
0.0
 11
198.9409472553
 21
25.9658096857
 31
0.0
  0
LINE
  5
214
330
1F
100
AcDbEntity
  8
0
  6
Continuous
 62
     7
100
AcDbLine
 10
201.9677812553
 20
20.7773516857
 30
0.0
 11
201.6424912553
 21
25.9658096857
 31
0.0
  0
LINE
  5
215
330
1F
100
AcDbEntity
  8
0
  6
Continuous
 62
     7
100
AcDbLine
 10
203.6184422553
 20
27.8106116857
 30
0.0
 11
203.6153382553
 21
24.4669276857
 31
0.0
  0
LINE
  5
216
330
1F
100
AcDbEntity
  8
0
  6
Continuous
 62
     7
100
AcDbLine
 10
200.8512532553
 20
27.8106116857
 30
0.0
 11
203.6184422553
 21
27.8106116857
 31
0.0
  0
LINE
  5
217
330
1F
100
AcDbEntity
  8
0
  6
Continuous
 62
     7
100
AcDbLine
 10
198.0840922553
 20
27.8106116857
 30
0.0
 11
200.8512532553
 21
27.8106116857
 31
0.0
  0
LINE
  5
218
330
1F
100
AcDbEntity
  8
0
  6
Continuous
 62
     7
100
AcDbLine
 10
198.0840922553
 20
41.8770746857
 30
0.0
 11
198.0840922553
 21
27.8106116857
 31
0.0
  0
LINE
  5
219
330
1F
100
AcDbEntity
  8
0
  6
Continuous
 62
     7
100
AcDbLine
 10
198.0840922553
 20
55.9435386857
 30
0.0
 11
198.0840922553
 21
41.8770746857
 31
0.0
  0
LINE
  5
21A
330
1F
100
AcDbEntity
  8
0
  6
Continuous
 62
     7
100
AcDbLine
 10
194.3945172553
 20
55.9435386857
 30
0.0
 11
198.0840922553
 21
55.9435386857
 31
0.0
  0
LINE
  5
21B
330
1F
100
AcDbEntity
  8
0
  6
Continuous
 62
     7
100
AcDbLine
 10
190.7049412553
 20
55.9435386857
 30
0.0
 11
194.3945172553
 21
55.9435386857
 31
0.0
  0
LINE
  5
21C
330
1F
100
AcDbEntity
  8
0
  6
Continuous
 62
     7
100
AcDbLine
 10
190.7049412553
 20
36.6428966857
 30
0.0
 11
190.7049412553
 21
55.9435386857
 31
0.0
  0
LINE
  5
21D
330
1F
100
AcDbEntity
  8
0
  6
Continuous
 62
     7
100
AcDbLine
 10
146.0492012553
 20
54.0987646857
 30
0.0
 11
145.8673932553
 21
33.2296446857
 31
0.0
  0
LINE
  5
21E
330
1F
100
AcDbEntity
  8
0
  6
Continuous
 62
     7
100
AcDbLine
 10
153.3882202553
 20
54.0987646857
 30
0.0
 11
146.0492012553
 21
54.0987646857
 31
0.0
  0
LINE
  5
21F
330
1F
100
AcDbEntity
  8
0
  6
Continuous
 62
     7
100
AcDbLine
 10
160.7272122553
 20
54.0987646857
 30
0.0
 11
153.3882202553
 21
54.0987646857
 31
0.0
  0
LINE
  5
220
330
1F
100
AcDbEntity
  8
0
  6
Continuous
 62
     7
100
AcDbLine
 10
160.7272122553
 20
46.3574096857
 30
0.0
 11
160.7272122553
 21
54.0987646857
 31
0.0
  0
LINE
  5
221
330
1F
100
AcDbEntity
  8
0
  6
Continuous
 62
     7
100
AcDbLine
 10
160.7272122553
 20
38.6160816857
 30
0.0
 11
160.7272122553
 21
46.3574096857
 31
0.0
  0
LINE
  5
222
330
1F
100
AcDbEntity
  8
0
  6
Continuous
 62
     7
100
AcDbLine
 10
157.6750912553
 20
37.1109906857
 30
0.0
 11
160.7272122553
 21
38.6160816857
 31
0.0
  0
LINE
  5
223
330
1F
100
AcDbEntity
  8
0
  6
Continuous
 62
     7
100
AcDbLine
 10
160.4966362553
 20
32.1919706857
 30
0.0
 11
157.8736352553
 21
33.5851036857
 31
0.0
  0
LINE
  5
224
330
1F
100
AcDbEntity
  8
0
  6
Continuous
 62
     7
100
AcDbLine
 10
160.7824142553
 20
24.5737766857
 30
0.0
 11
160.4966362553
 21
32.1919706857
 31
0.0
  0
LINE
  5
225
330
1F
100
AcDbEntity
  8
0
  6
Continuous
 62
     7
100
AcDbLine
 10
162.5720142553
 20
33.1611496857
 30
0.0
 11
162.5263782553
 21
25.9892056857
 31
0.0
  0
LINE
  5
226
330
1F
100
AcDbEntity
  8
0
  6
Continuous
 62
     7
100
AcDbLine
 10
160.3959962553
 20
34.2183256857
 30
0.0
 11
162.5720142553
 21
33.1611496857
 31
0.0
  0
LINE
  5
227
330
1F
100
AcDbEntity
  8
0
  6
Continuous
 62
     7
100
AcDbLine
 10
158.2200062553
 20
35.2755016857
 30
0.0
 11
160.3959962553
 21
34.2183256857
 31
0.0
  0
LINE
  5
228
330
1F
100
AcDbEntity
  8
0
  6
Continuous
 62
     7
100
AcDbLine
 10
160.0501042553
 20
36.3832526857
 30
0.0
 11
158.2200062553
 21
35.2755016857
 31
0.0
  0
LINE
  5
229
330
1F
100
AcDbEntity
  8
0
  6
Continuous
 62
     7
100
AcDbLine
 10
162.5720142553
 20
55.9435386857
 30
0.0
 11
162.5720142553
 21
46.7196136857
 31
0.0
  0
LINE
  5
22A
330
1F
100
AcDbEntity
  8
0
  6
Continuous
 62
     7
100
AcDbLine
 10
153.3480882553
 20
55.9435386857
 30
0.0
 11
162.5720142553
 21
55.9435386857
 31
0.0
  0
LINE
  5
22B
330
1F
100
AcDbEntity
  8
0
  6
Continuous
 62
     7
100
AcDbLine
 10
144.1241632553
 20
55.9435386857
 30
0.0
 11
153.3480882553
 21
55.9435386857
 31
0.0
  0
LINE
  5
22C
330
1F
100
AcDbEntity
  8
0
  6
Continuous
 62
     7
100
AcDbLine
 10
144.1241632553
 20
36.6428966857
 30
0.0
 11
144.1241632553
 21
55.9435386857
 31
0.0
  0
LINE
  5
22D
330
1F
100
AcDbEntity
  8
0
  6
Continuous
 62
     7
100
AcDbLine
 10
270.9530242553
 20
27.8106116857
 30
0.0
 11
270.9074162553
 21
21.2385586857
 31
0.0
  0
LINE
  5
22E
330
1F
100
AcDbEntity
  8
0
  6
Continuous
 62
     7
100
AcDbLine
 10
265.4186742553
 20
27.8106116857
 30
0.0
 11
270.9530242553
 21
27.8106116857
 31
0.0
  0
LINE
  5
22F
330
1F
100
AcDbEntity
  8
0
  6
Continuous
 62
     7
100
AcDbLine
 10
259.8843242553
 20
27.8106116857
 30
0.0
 11
265.4186742553
 21
27.8106116857
 31
0.0
  0
LINE
  5
230
330
1F
100
AcDbEntity
  8
0
  6
Continuous
 62
     7
100
AcDbLine
 10
259.8843242553
 20
29.6553856857
 30
0.0
 11
259.8843242553
 21
27.8106116857
 31
0.0
  0
LINE
  5
231
330
1F
100
AcDbEntity
  8
0
  6
Continuous
 62
     7
100
AcDbLine
 10
259.8843242553
 20
31.5001586857
 30
0.0
 11
259.8843242553
 21
29.6553856857
 31
0.0
  0
LINE
  5
232
330
1F
100
AcDbEntity
  8
0
  6
Continuous
 62
     7
100
AcDbLine
 10
265.4186742553
 20
31.5001586857
 30
0.0
 11
259.8843242553
 21
31.5001586857
 31
0.0
  0
LINE
  5
233
330
1F
100
AcDbEntity
  8
0
  6
Continuous
 62
     7
100
AcDbLine
 10
270.9530242553
 20
31.5001586857
 30
0.0
 11
265.4186742553
 21
31.5001586857
 31
0.0
  0
LINE
  5
234
330
1F
100
AcDbEntity
  8
0
  6
Continuous
 62
     7
100
AcDbLine
 10
270.9530242553
 20
35.1897346857
 30
0.0
 11
270.9530242553
 21
31.5001586857
 31
0.0
  0
LINE
  5
235
330
1F
100
AcDbEntity
  8
0
  6
Continuous
 62
     7
100
AcDbLine
 10
270.9530242553
 20
38.8793106857
 30
0.0
 11
270.9530242553
 21
35.1897346857
 31
0.0
  0
LINE
  5
236
330
1F
100
AcDbEntity
  8
0
  6
Continuous
 62
     7
100
AcDbLine
 10
265.4186742553
 20
38.8793106857
 30
0.0
 11
270.9530242553
 21
38.8793106857
 31
0.0
  0
LINE
  5
237
330
1F
100
AcDbEntity
  8
0
  6
Continuous
 62
     7
100
AcDbLine
 10
259.8843242553
 20
38.8793106857
 30
0.0
 11
265.4186742553
 21
38.8793106857
 31
0.0
  0
LINE
  5
238
330
1F
100
AcDbEntity
  8
0
  6
Continuous
 62
     7
100
AcDbLine
 10
259.8843242553
 20
43.7218486857
 30
0.0
 11
259.8843242553
 21
38.8793106857
 31
0.0
  0
LINE
  5
239
330
1F
100
AcDbEntity
  8
0
  6
Continuous
 62
     7
100
AcDbLine
 10
259.8843242553
 20
48.5644156857
 30
0.0
 11
259.8843242553
 21
43.7218486857
 31
0.0
  0
LINE
  5
23A
330
1F
100
AcDbEntity
  8
0
  6
Continuous
 62
     7
100
AcDbLine
 10
261.7290982553
 20
48.5644156857
 30
0.0
 11
259.8843242553
 21
48.5644156857
 31
0.0
  0
LINE
  5
23B
330
1F
100
AcDbEntity
  8
0
  6
Continuous
 62
     7
100
AcDbLine
 10
263.5738722553
 20
48.5644156857
 30
0.0
 11
261.7290982553
 21
48.5644156857
 31
0.0
  0
LINE
  5
23C
330
1F
100
AcDbEntity
  8
0
  6
Continuous
 62
     7
100
AcDbLine
 10
263.5738722553
 20
45.7972266857
 30
0.0
 11
263.5738722553
 21
48.5644156857
 31
0.0
  0
LINE
  5
23D
330
1F
100
AcDbEntity
  8
0
  6
Continuous
 62
     7
100
AcDbLine
 10
263.5738722553
 20
43.0300656857
 30
0.0
 11
263.5738722553
 21
45.7972266857
 31
0.0
  0
LINE
  5
23E
330
1F
100
AcDbEntity
  8
0
  6
Continuous
 62
     7
100
AcDbLine
 10
267.2634482553
 20
43.0300656857
 30
0.0
 11
263.5738722553
 21
43.0300656857
 31
0.0
  0
LINE
  5
23F
330
1F
100
AcDbEntity
  8
0
  6
Continuous
 62
     7
100
AcDbLine
 10
270.9530242553
 20
43.0300656857
 30
0.0
 11
267.2634482553
 21
43.0300656857
 31
0.0
  0
LINE
  5
240
330
1F
100
AcDbEntity
  8
0
  6
Continuous
 62
     7
100
AcDbLine
 10
270.9530242553
 20
49.4868016857
 30
0.0
 11
270.9530242553
 21
43.0300656857
 31
0.0
  0
LINE
  5
241
330
1F
100
AcDbEntity
  8
0
  6
Continuous
 62
     7
100
AcDbLine
 10
270.9530242553
 20
55.9435386857
 30
0.0
 11
270.9530242553
 21
49.4868016857
 31
0.0
  0
LINE
  5
242
330
1F
100
AcDbEntity
  8
0
  6
Continuous
 62
     7
100
AcDbLine
 10
261.7290982553
 20
55.9435386857
 30
0.0
 11
270.9530242553
 21
55.9435386857
 31
0.0
  0
LINE
  5
243
330
1F
100
AcDbEntity
  8
0
  6
Continuous
 62
     7
100
AcDbLine
 10
252.5051732553
 20
55.9435386857
 30
0.0
 11
261.7290982553
 21
55.9435386857
 31
0.0
  0
LINE
  5
244
330
1F
100
AcDbEntity
  8
0
  6
Continuous
 62
     7
100
AcDbLine
 10
252.5051732553
 20
37.7958876857
 30
0.0
 11
252.5051732553
 21
55.9435386857
 31
0.0
  0
LINE
  5
245
330
1F
100
AcDbEntity
  8
0
  6
Continuous
 62
     7
100
AcDbLine
 10
254.4337382553
 20
54.0987646857
 30
0.0
 11
254.2478392553
 21
34.3826356857
 31
0.0
  0
LINE
  5
246
330
1F
100
AcDbEntity
  8
0
  6
Continuous
 62
     7
100
AcDbLine
 10
261.7709802553
 20
54.0987646857
 30
0.0
 11
254.4337382553
 21
54.0987646857
 31
0.0
  0
LINE
  5
247
330
1F
100
AcDbEntity
  8
0
  6
Continuous
 62
     7
100
AcDbLine
 10
269.1082222553
 20
54.0987646857
 30
0.0
 11
261.7709802553
 21
54.0987646857
 31
0.0
  0
LINE
  5
248
330
1F
100
AcDbEntity
  8
0
  6
Continuous
 62
     7
100
AcDbLine
 10
269.1082222553
 20
49.4868016857
 30
0.0
 11
269.1082222553
 21
54.0987646857
 31
0.0
  0
LINE
  5
249
330
1F
100
AcDbEntity
  8
0
  6
Continuous
 62
     7
100
AcDbLine
 10
269.1082222553
 20
44.8748396857
 30
0.0
 11
269.1082222553
 21
49.4868016857
 31
0.0
  0
LINE
  5
24A
330
1F
100
AcDbEntity
  8
0
  6
Continuous
 62
     7
100
AcDbLine
 10
267.2634482553
 20
44.8748396857
 30
0.0
 11
269.1082222553
 21
44.8748396857
 31
0.0
  0
LINE
  5
24B
330
1F
100
AcDbEntity
  8
0
  6
Continuous
 62
     7
100
AcDbLine
 10
265.4186742553
 20
44.8748396857
 30
0.0
 11
267.2634482553
 21
44.8748396857
 31
0.0
  0
LINE
  5
24C
330
1F
100
AcDbEntity
  8
0
  6
Continuous
 62
     7
100
AcDbLine
 10
265.4186742553
 20
47.6420286857
 30
0.0
 11
265.4186742553
 21
44.8748396857
 31
0.0
  0
LINE
  5
24D
330
1F
100
AcDbEntity
  8
0
  6
Continuous
 62
     7
100
AcDbLine
 10
265.4186742553
 20
50.4091886857
 30
0.0
 11
265.4186742553
 21
47.6420286857
 31
0.0
  0
LINE
  5
24E
330
1F
100
AcDbEntity
  8
0
  6
Continuous
 62
     7
100
AcDbLine
 10
261.7290982553
 20
50.4091886857
 30
0.0
 11
265.4186742553
 21
50.4091886857
 31
0.0
  0
LINE
  5
24F
330
1F
100
AcDbEntity
  8
0
  6
Continuous
 62
     7
100
AcDbLine
 10
258.0395222553
 20
50.4091886857
 30
0.0
 11
261.7290982553
 21
50.4091886857
 31
0.0
  0
LINE
  5
250
330
1F
100
AcDbEntity
  8
0
  6
Continuous
 62
     7
100
AcDbLine
 10
258.0395222553
 20
43.7218486857
 30
0.0
 11
258.0395222553
 21
50.4091886857
 31
0.0
  0
LINE
  5
251
330
1F
100
AcDbEntity
  8
0
  6
Continuous
 62
     7
100
AcDbLine
 10
258.0395222553
 20
37.0345086857
 30
0.0
 11
258.0395222553
 21
43.7218486857
 31
0.0
  0
LINE
  5
252
330
1F
100
AcDbEntity
  8
0
  6
Continuous
 62
     7
100
AcDbLine
 10
263.5738722553
 20
37.0345086857
 30
0.0
 11
258.0395222553
 21
37.0345086857
 31
0.0
  0
LINE
  5
253
330
1F
100
AcDbEntity
  8
0
  6
Continuous
 62
     7
100
AcDbLine
 10
269.1082222553
 20
37.0345086857
 30
0.0
 11
263.5738722553
 21
37.0345086857
 31
0.0
  0
LINE
  5
254
330
1F
100
AcDbEntity
  8
0
  6
Continuous
 62
     7
100
AcDbLine
 10
269.1082222553
 20
35.1897346857
 30
0.0
 11
269.1082222553
 21
37.0345086857
 31
0.0
  0
LINE
  5
255
330
1F
100
AcDbEntity
  8
0
  6
Continuous
 62
     7
100
AcDbLine
 10
269.1082222553
 20
33.3449606857
 30
0.0
 11
269.1082222553
 21
35.1897346857
 31
0.0
  0
LINE
  5
256
330
1F
100
AcDbEntity
  8
0
  6
Continuous
 62
     7
100
AcDbLine
 10
263.5738722553
 20
33.3449606857
 30
0.0
 11
269.1082222553
 21
33.3449606857
 31
0.0
  0
LINE
  5
257
330
1F
100
AcDbEntity
  8
0
  6
Continuous
 62
     7
100
AcDbLine
 10
258.0395222553
 20
33.3449606857
 30
0.0
 11
263.5738722553
 21
33.3449606857
 31
0.0
  0
LINE
  5
258
330
1F
100
AcDbEntity
  8
0
  6
Continuous
 62
     7
100
AcDbLine
 10
258.0395222553
 20
29.6553856857
 30
0.0
 11
258.0395222553
 21
33.3449606857
 31
0.0
  0
LINE
  5
259
330
1F
100
AcDbEntity
  8
0
  6
Continuous
 62
     7
100
AcDbLine
 10
258.0395222553
 20
25.9658096857
 30
0.0
 11
258.0395222553
 21
29.6553856857
 31
0.0
  0
LINE
  5
25A
330
1F
100
AcDbEntity
  8
0
  6
Continuous
 62
     7
100
AcDbLine
 10
263.5021882553
 20
25.9658096857
 30
0.0
 11
258.0395222553
 21
25.9658096857
 31
0.0
  0
LINE
  5
25B
330
1F
100
AcDbEntity
  8
0
  6
Continuous
 62
     7
100
AcDbLine
 10
268.9648242553
 20
25.9658096857
 30
0.0
 11
263.5021882553
 21
25.9658096857
 31
0.0
  0
LINE
  5
25C
330
1F
100
AcDbEntity
  8
0
  6
Continuous
 62
     7
100
AcDbLine
 10
269.2760032553
 20
19.1631816857
 30
0.0
 11
268.9648242553
 21
25.9658096857
 31
0.0
  0
LINE
  5
25D
330
1F
100
AcDbEntity
  8
0
  6
Continuous
 62
     7
100
AcDbLine
 10
186.0929782553
 20
27.8106116857
 30
0.0
 11
186.0473712553
 21
21.2385586857
 31
0.0
  0
LINE
  5
25E
330
1F
100
AcDbEntity
  8
0
  6
Continuous
 62
     7
100
AcDbLine
 10
180.5586292553
 20
27.8106116857
 30
0.0
 11
186.0929782553
 21
27.8106116857
 31
0.0
  0
LINE
  5
25F
330
1F
100
AcDbEntity
  8
0
  6
Continuous
 62
     7
100
AcDbLine
 10
175.0242792553
 20
27.8106116857
 30
0.0
 11
180.5586292553
 21
27.8106116857
 31
0.0
  0
LINE
  5
260
330
1F
100
AcDbEntity
  8
0
  6
Continuous
 62
     7
100
AcDbLine
 10
175.0242792553
 20
29.6553856857
 30
0.0
 11
175.0242792553
 21
27.8106116857
 31
0.0
  0
LINE
  5
261
330
1F
100
AcDbEntity
  8
0
  6
Continuous
 62
     7
100
AcDbLine
 10
175.0242792553
 20
31.5001586857
 30
0.0
 11
175.0242792553
 21
29.6553856857
 31
0.0
  0
LINE
  5
262
330
1F
100
AcDbEntity
  8
0
  6
Continuous
 62
     7
100
AcDbLine
 10
180.5586292553
 20
31.5001586857
 30
0.0
 11
175.0242792553
 21
31.5001586857
 31
0.0
  0
LINE
  5
263
330
1F
100
AcDbEntity
  8
0
  6
Continuous
 62
     7
100
AcDbLine
 10
186.0929782553
 20
31.5001586857
 30
0.0
 11
180.5586292553
 21
31.5001586857
 31
0.0
  0
LINE
  5
264
330
1F
100
AcDbEntity
  8
0
  6
Continuous
 62
     7
100
AcDbLine
 10
186.0929782553
 20
35.1897346857
 30
0.0
 11
186.0929782553
 21
31.5001586857
 31
0.0
  0
LINE
  5
265
330
1F
100
AcDbEntity
  8
0
  6
Continuous
 62
     7
100
AcDbLine
 10
186.0929782553
 20
38.8793106857
 30
0.0
 11
186.0929782553
 21
35.1897346857
 31
0.0
  0
LINE
  5
266
330
1F
100
AcDbEntity
  8
0
  6
Continuous
 62
     7
100
AcDbLine
 10
180.5586292553
 20
38.8793106857
 30
0.0
 11
186.0929782553
 21
38.8793106857
 31
0.0
  0
LINE
  5
267
330
1F
100
AcDbEntity
  8
0
  6
Continuous
 62
     7
100
AcDbLine
 10
175.0242792553
 20
38.8793106857
 30
0.0
 11
180.5586292553
 21
38.8793106857
 31
0.0
  0
LINE
  5
268
330
1F
100
AcDbEntity
  8
0
  6
Continuous
 62
     7
100
AcDbLine
 10
175.0242792553
 20
43.7218486857
 30
0.0
 11
175.0242792553
 21
38.8793106857
 31
0.0
  0
LINE
  5
269
330
1F
100
AcDbEntity
  8
0
  6
Continuous
 62
     7
100
AcDbLine
 10
175.0242792553
 20
48.5644156857
 30
0.0
 11
175.0242792553
 21
43.7218486857
 31
0.0
  0
LINE
  5
26A
330
1F
100
AcDbEntity
  8
0
  6
Continuous
 62
     7
100
AcDbLine
 10
176.8690812553
 20
48.5644156857
 30
0.0
 11
175.0242792553
 21
48.5644156857
 31
0.0
  0
LINE
  5
26B
330
1F
100
AcDbEntity
  8
0
  6
Continuous
 62
     7
100
AcDbLine
 10
178.7138552553
 20
48.5644156857
 30
0.0
 11
176.8690812553
 21
48.5644156857
 31
0.0
  0
LINE
  5
26C
330
1F
100
AcDbEntity
  8
0
  6
Continuous
 62
     7
100
AcDbLine
 10
178.7138552553
 20
45.7972266857
 30
0.0
 11
178.7138552553
 21
48.5644156857
 31
0.0
  0
LINE
  5
26D
330
1F
100
AcDbEntity
  8
0
  6
Continuous
 62
     7
100
AcDbLine
 10
178.7138552553
 20
43.0300656857
 30
0.0
 11
178.7138552553
 21
45.7972266857
 31
0.0
  0
LINE
  5
26E
330
1F
100
AcDbEntity
  8
0
  6
Continuous
 62
     7
100
AcDbLine
 10
182.4034312553
 20
43.0300656857
 30
0.0
 11
178.7138552553
 21
43.0300656857
 31
0.0
  0
LINE
  5
26F
330
1F
100
AcDbEntity
  8
0
  6
Continuous
 62
     7
100
AcDbLine
 10
186.0929782553
 20
43.0300656857
 30
0.0
 11
182.4034312553
 21
43.0300656857
 31
0.0
  0
LINE
  5
270
330
1F
100
AcDbEntity
  8
0
  6
Continuous
 62
     7
100
AcDbLine
 10
186.0929782553
 20
49.4868016857
 30
0.0
 11
186.0929782553
 21
43.0300656857
 31
0.0
  0
LINE
  5
271
330
1F
100
AcDbEntity
  8
0
  6
Continuous
 62
     7
100
AcDbLine
 10
186.0929782553
 20
55.9435386857
 30
0.0
 11
186.0929782553
 21
49.4868016857
 31
0.0
  0
LINE
  5
272
330
1F
100
AcDbEntity
  8
0
  6
Continuous
 62
     7
100
AcDbLine
 10
176.8690812553
 20
55.9435386857
 30
0.0
 11
186.0929782553
 21
55.9435386857
 31
0.0
  0
LINE
  5
273
330
1F
100
AcDbEntity
  8
0
  6
Continuous
 62
     7
100
AcDbLine
 10
167.6451562553
 20
55.9435386857
 30
0.0
 11
176.8690812553
 21
55.9435386857
 31
0.0
  0
LINE
  5
274
330
1F
100
AcDbEntity
  8
0
  6
Continuous
 62
     7
100
AcDbLine
 10
167.6451562553
 20
37.7958876857
 30
0.0
 11
167.6451562553
 21
55.9435386857
 31
0.0
  0
LINE
  5
275
330
1F
100
AcDbEntity
  8
0
  6
Continuous
 62
     7
100
AcDbLine
 10
169.5736932553
 20
54.0987646857
 30
0.0
 11
169.3878222553
 21
34.3826356857
 31
0.0
  0
LINE
  5
276
330
1F
100
AcDbEntity
  8
0
  6
Continuous
 62
     7
100
AcDbLine
 10
176.9109632553
 20
54.0987646857
 30
0.0
 11
169.5736932553
 21
54.0987646857
 31
0.0
  0
LINE
  5
277
330
1F
100
AcDbEntity
  8
0
  6
Continuous
 62
     7
100
AcDbLine
 10
184.2482042553
 20
54.0987646857
 30
0.0
 11
176.9109632553
 21
54.0987646857
 31
0.0
  0
LINE
  5
278
330
1F
100
AcDbEntity
  8
0
  6
Continuous
 62
     7
100
AcDbLine
 10
184.2482042553
 20
49.4868016857
 30
0.0
 11
184.2482042553
 21
54.0987646857
 31
0.0
  0
LINE
  5
279
330
1F
100
AcDbEntity
  8
0
  6
Continuous
 62
     7
100
AcDbLine
 10
184.2482042553
 20
44.8748396857
 30
0.0
 11
184.2482042553
 21
49.4868016857
 31
0.0
  0
LINE
  5
27A
330
1F
100
AcDbEntity
  8
0
  6
Continuous
 62
     7
100
AcDbLine
 10
182.4034312553
 20
44.8748396857
 30
0.0
 11
184.2482042553
 21
44.8748396857
 31
0.0
  0
LINE
  5
27B
330
1F
100
AcDbEntity
  8
0
  6
Continuous
 62
     7
100
AcDbLine
 10
180.5586292553
 20
44.8748396857
 30
0.0
 11
182.4034312553
 21
44.8748396857
 31
0.0
  0
LINE
  5
27C
330
1F
100
AcDbEntity
  8
0
  6
Continuous
 62
     7
100
AcDbLine
 10
180.5586292553
 20
47.6420286857
 30
0.0
 11
180.5586292553
 21
44.8748396857
 31
0.0
  0
LINE
  5
27D
330
1F
100
AcDbEntity
  8
0
  6
Continuous
 62
     7
100
AcDbLine
 10
180.5586292553
 20
50.4091886857
 30
0.0
 11
180.5586292553
 21
47.6420286857
 31
0.0
  0
LINE
  5
27E
330
1F
100
AcDbEntity
  8
0
  6
Continuous
 62
     7
100
AcDbLine
 10
176.8690812553
 20
50.4091886857
 30
0.0
 11
180.5586292553
 21
50.4091886857
 31
0.0
  0
LINE
  5
27F
330
1F
100
AcDbEntity
  8
0
  6
Continuous
 62
     7
100
AcDbLine
 10
173.1795052553
 20
50.4091886857
 30
0.0
 11
176.8690812553
 21
50.4091886857
 31
0.0
  0
LINE
  5
280
330
1F
100
AcDbEntity
  8
0
  6
Continuous
 62
     7
100
AcDbLine
 10
173.1795052553
 20
43.7218486857
 30
0.0
 11
173.1795052553
 21
50.4091886857
 31
0.0
  0
LINE
  5
281
330
1F
100
AcDbEntity
  8
0
  6
Continuous
 62
     7
100
AcDbLine
 10
173.1795052553
 20
37.0345086857
 30
0.0
 11
173.1795052553
 21
43.7218486857
 31
0.0
  0
LINE
  5
282
330
1F
100
AcDbEntity
  8
0
  6
Continuous
 62
     7
100
AcDbLine
 10
178.7138552553
 20
37.0345086857
 30
0.0
 11
173.1795052553
 21
37.0345086857
 31
0.0
  0
LINE
  5
283
330
1F
100
AcDbEntity
  8
0
  6
Continuous
 62
     7
100
AcDbLine
 10
184.2482042553
 20
37.0345086857
 30
0.0
 11
178.7138552553
 21
37.0345086857
 31
0.0
  0
LINE
  5
284
330
1F
100
AcDbEntity
  8
0
  6
Continuous
 62
     7
100
AcDbLine
 10
184.2482042553
 20
35.1897346857
 30
0.0
 11
184.2482042553
 21
37.0345086857
 31
0.0
  0
LINE
  5
285
330
1F
100
AcDbEntity
  8
0
  6
Continuous
 62
     7
100
AcDbLine
 10
184.2482042553
 20
33.3449606857
 30
0.0
 11
184.2482042553
 21
35.1897346857
 31
0.0
  0
LINE
  5
286
330
1F
100
AcDbEntity
  8
0
  6
Continuous
 62
     7
100
AcDbLine
 10
178.7138552553
 20
33.3449606857
 30
0.0
 11
184.2482042553
 21
33.3449606857
 31
0.0
  0
LINE
  5
287
330
1F
100
AcDbEntity
  8
0
  6
Continuous
 62
     7
100
AcDbLine
 10
173.1795052553
 20
33.3449606857
 30
0.0
 11
178.7138552553
 21
33.3449606857
 31
0.0
  0
LINE
  5
288
330
1F
100
AcDbEntity
  8
0
  6
Continuous
 62
     7
100
AcDbLine
 10
173.1795052553
 20
29.6553856857
 30
0.0
 11
173.1795052553
 21
33.3449606857
 31
0.0
  0
LINE
  5
289
330
1F
100
AcDbEntity
  8
0
  6
Continuous
 62
     7
100
AcDbLine
 10
173.1795052553
 20
25.9658096857
 30
0.0
 11
173.1795052553
 21
29.6553856857
 31
0.0
  0
LINE
  5
28A
330
1F
100
AcDbEntity
  8
0
  6
Continuous
 62
     7
100
AcDbLine
 10
178.6421422553
 20
25.9658096857
 30
0.0
 11
173.1795052553
 21
25.9658096857
 31
0.0
  0
LINE
  5
28B
330
1F
100
AcDbEntity
  8
0
  6
Continuous
 62
     7
100
AcDbLine
 10
184.1048072553
 20
25.9658096857
 30
0.0
 11
178.6421422553
 21
25.9658096857
 31
0.0
  0
LINE
  5
28C
330
1F
100
AcDbEntity
  8
0
  6
Continuous
 62
     7
100
AcDbLine
 10
184.4159862553
 20
19.1631816857
 30
0.0
 11
184.1048072553
 21
25.9658096857
 31
0.0
  0
LINE
  5
28D
330
1F
100
AcDbEntity
  8
0
  6
Continuous
 62
     7
100
AcDbLine
 10
139.5122002553
 20
27.8106116857
 30
0.0
 11
139.4665932553
 21
21.2385586857
 31
0.0
  0
LINE
  5
28E
330
1F
100
AcDbEntity
  8
0
  6
Continuous
 62
     7
100
AcDbLine
 10
133.9778572553
 20
27.8106116857
 30
0.0
 11
139.5122002553
 21
27.8106116857
 31
0.0
  0
LINE
  5
28F
330
1F
100
AcDbEntity
  8
0
  6
Continuous
 62
     7
100
AcDbLine
 10
128.4435072553
 20
27.8106116857
 30
0.0
 11
133.9778572553
 21
27.8106116857
 31
0.0
  0
LINE
  5
290
330
1F
100
AcDbEntity
  8
0
  6
Continuous
 62
     7
100
AcDbLine
 10
128.4435072553
 20
29.6553856857
 30
0.0
 11
128.4435072553
 21
27.8106116857
 31
0.0
  0
LINE
  5
291
330
1F
100
AcDbEntity
  8
0
  6
Continuous
 62
     7
100
AcDbLine
 10
128.4435072553
 20
31.5001586857
 30
0.0
 11
128.4435072553
 21
29.6553856857
 31
0.0
  0
LINE
  5
292
330
1F
100
AcDbEntity
  8
0
  6
Continuous
 62
     7
100
AcDbLine
 10
133.9778572553
 20
31.5001586857
 30
0.0
 11
128.4435072553
 21
31.5001586857
 31
0.0
  0
LINE
  5
293
330
1F
100
AcDbEntity
  8
0
  6
Continuous
 62
     7
100
AcDbLine
 10
139.5122002553
 20
31.5001586857
 30
0.0
 11
133.9778572553
 21
31.5001586857
 31
0.0
  0
LINE
  5
294
330
1F
100
AcDbEntity
  8
0
  6
Continuous
 62
     7
100
AcDbLine
 10
139.5122002553
 20
35.1897346857
 30
0.0
 11
139.5122002553
 21
31.5001586857
 31
0.0
  0
LINE
  5
295
330
1F
100
AcDbEntity
  8
0
  6
Continuous
 62
     7
100
AcDbLine
 10
139.5122002553
 20
38.8793106857
 30
0.0
 11
139.5122002553
 21
35.1897346857
 31
0.0
  0
LINE
  5
296
330
1F
100
AcDbEntity
  8
0
  6
Continuous
 62
     7
100
AcDbLine
 10
133.9778572553
 20
38.8793106857
 30
0.0
 11
139.5122002553
 21
38.8793106857
 31
0.0
  0
LINE
  5
297
330
1F
100
AcDbEntity
  8
0
  6
Continuous
 62
     7
100
AcDbLine
 10
128.4435072553
 20
38.8793106857
 30
0.0
 11
133.9778572553
 21
38.8793106857
 31
0.0
  0
LINE
  5
298
330
1F
100
AcDbEntity
  8
0
  6
Continuous
 62
     7
100
AcDbLine
 10
128.4435072553
 20
43.7218486857
 30
0.0
 11
128.4435072553
 21
38.8793106857
 31
0.0
  0
LINE
  5
299
330
1F
100
AcDbEntity
  8
0
  6
Continuous
 62
     7
100
AcDbLine
 10
128.4435072553
 20
48.5644156857
 30
0.0
 11
128.4435072553
 21
43.7218486857
 31
0.0
  0
LINE
  5
29A
330
1F
100
AcDbEntity
  8
0
  6
Continuous
 62
     7
100
AcDbLine
 10
130.2883092553
 20
48.5644156857
 30
0.0
 11
128.4435072553
 21
48.5644156857
 31
0.0
  0
LINE
  5
29B
330
1F
100
AcDbEntity
  8
0
  6
Continuous
 62
     7
100
AcDbLine
 10
132.1330832553
 20
48.5644156857
 30
0.0
 11
130.2883092553
 21
48.5644156857
 31
0.0
  0
LINE
  5
29C
330
1F
100
AcDbEntity
  8
0
  6
Continuous
 62
     7
100
AcDbLine
 10
132.1330832553
 20
45.7972266857
 30
0.0
 11
132.1330832553
 21
48.5644156857
 31
0.0
  0
LINE
  5
29D
330
1F
100
AcDbEntity
  8
0
  6
Continuous
 62
     7
100
AcDbLine
 10
132.1330832553
 20
43.0300656857
 30
0.0
 11
132.1330832553
 21
45.7972266857
 31
0.0
  0
LINE
  5
29E
330
1F
100
AcDbEntity
  8
0
  6
Continuous
 62
     7
100
AcDbLine
 10
135.8226592553
 20
43.0300656857
 30
0.0
 11
132.1330832553
 21
43.0300656857
 31
0.0
  0
LINE
  5
29F
330
1F
100
AcDbEntity
  8
0
  6
Continuous
 62
     7
100
AcDbLine
 10
139.5122002553
 20
43.0300656857
 30
0.0
 11
135.8226592553
 21
43.0300656857
 31
0.0
  0
LINE
  5
2A0
330
1F
100
AcDbEntity
  8
0
  6
Continuous
 62
     7
100
AcDbLine
 10
139.5122002553
 20
49.4868016857
 30
0.0
 11
139.5122002553
 21
43.0300656857
 31
0.0
  0
LINE
  5
2A1
330
1F
100
AcDbEntity
  8
0
  6
Continuous
 62
     7
100
AcDbLine
 10
139.5122002553
 20
55.9435386857
 30
0.0
 11
139.5122002553
 21
49.4868016857
 31
0.0
  0
LINE
  5
2A2
330
1F
100
AcDbEntity
  8
0
  6
Continuous
 62
     7
100
AcDbLine
 10
130.2883092553
 20
55.9435386857
 30
0.0
 11
139.5122002553
 21
55.9435386857
 31
0.0
  0
LINE
  5
2A3
330
1F
100
AcDbEntity
  8
0
  6
Continuous
 62
     7
100
AcDbLine
 10
121.0643842553
 20
55.9435386857
 30
0.0
 11
130.2883092553
 21
55.9435386857
 31
0.0
  0
LINE
  5
2A4
330
1F
100
AcDbEntity
  8
0
  6
Continuous
 62
     7
100
AcDbLine
 10
121.0643842553
 20
37.7958876857
 30
0.0
 11
121.0643842553
 21
55.9435386857
 31
0.0
  0
LINE
  5
2A5
330
1F
100
AcDbEntity
  8
0
  6
Continuous
 62
     7
100
AcDbLine
 10
122.9929492553
 20
54.0987646857
 30
0.0
 11
122.8070492553
 21
34.3826356857
 31
0.0
  0
LINE
  5
2A6
330
1F
100
AcDbEntity
  8
0
  6
Continuous
 62
     7
100
AcDbLine
 10
130.3301912553
 20
54.0987646857
 30
0.0
 11
122.9929492553
 21
54.0987646857
 31
0.0
  0
LINE
  5
2A7
330
1F
100
AcDbEntity
  8
0
  6
Continuous
 62
     7
100
AcDbLine
 10
137.6674272553
 20
54.0987646857
 30
0.0
 11
130.3301912553
 21
54.0987646857
 31
0.0
  0
LINE
  5
2A8
330
1F
100
AcDbEntity
  8
0
  6
Continuous
 62
     7
100
AcDbLine
 10
137.6674272553
 20
49.4868016857
 30
0.0
 11
137.6674272553
 21
54.0987646857
 31
0.0
  0
LINE
  5
2A9
330
1F
100
AcDbEntity
  8
0
  6
Continuous
 62
     7
100
AcDbLine
 10
137.6674272553
 20
44.8748396857
 30
0.0
 11
137.6674272553
 21
49.4868016857
 31
0.0
  0
LINE
  5
2AA
330
1F
100
AcDbEntity
  8
0
  6
Continuous
 62
     7
100
AcDbLine
 10
135.8226592553
 20
44.8748396857
 30
0.0
 11
137.6674272553
 21
44.8748396857
 31
0.0
  0
LINE
  5
2AB
330
1F
100
AcDbEntity
  8
0
  6
Continuous
 62
     7
100
AcDbLine
 10
133.9778572553
 20
44.8748396857
 30
0.0
 11
135.8226592553
 21
44.8748396857
 31
0.0
  0
LINE
  5
2AC
330
1F
100
AcDbEntity
  8
0
  6
Continuous
 62
     7
100
AcDbLine
 10
133.9778572553
 20
47.6420286857
 30
0.0
 11
133.9778572553
 21
44.8748396857
 31
0.0
  0
LINE
  5
2AD
330
1F
100
AcDbEntity
  8
0
  6
Continuous
 62
     7
100
AcDbLine
 10
133.9778572553
 20
50.4091886857
 30
0.0
 11
133.9778572553
 21
47.6420286857
 31
0.0
  0
LINE
  5
2AE
330
1F
100
AcDbEntity
  8
0
  6
Continuous
 62
     7
100
AcDbLine
 10
130.2883092553
 20
50.4091886857
 30
0.0
 11
133.9778572553
 21
50.4091886857
 31
0.0
  0
LINE
  5
2AF
330
1F
100
AcDbEntity
  8
0
  6
Continuous
 62
     7
100
AcDbLine
 10
126.5987332553
 20
50.4091886857
 30
0.0
 11
130.2883092553
 21
50.4091886857
 31
0.0
  0
LINE
  5
2B0
330
1F
100
AcDbEntity
  8
0
  6
Continuous
 62
     7
100
AcDbLine
 10
126.5987332553
 20
43.7218486857
 30
0.0
 11
126.5987332553
 21
50.4091886857
 31
0.0
  0
LINE
  5
2B1
330
1F
100
AcDbEntity
  8
0
  6
Continuous
 62
     7
100
AcDbLine
 10
126.5987332553
 20
37.0345086857
 30
0.0
 11
126.5987332553
 21
43.7218486857
 31
0.0
  0
LINE
  5
2B2
330
1F
100
AcDbEntity
  8
0
  6
Continuous
 62
     7
100
AcDbLine
 10
132.1330832553
 20
37.0345086857
 30
0.0
 11
126.5987332553
 21
37.0345086857
 31
0.0
  0
LINE
  5
2B3
330
1F
100
AcDbEntity
  8
0
  6
Continuous
 62
     7
100
AcDbLine
 10
137.6674272553
 20
37.0345086857
 30
0.0
 11
132.1330832553
 21
37.0345086857
 31
0.0
  0
LINE
  5
2B4
330
1F
100
AcDbEntity
  8
0
  6
Continuous
 62
     7
100
AcDbLine
 10
137.6674272553
 20
35.1897346857
 30
0.0
 11
137.6674272553
 21
37.0345086857
 31
0.0
  0
LINE
  5
2B5
330
1F
100
AcDbEntity
  8
0
  6
Continuous
 62
     7
100
AcDbLine
 10
137.6674272553
 20
33.3449606857
 30
0.0
 11
137.6674272553
 21
35.1897346857
 31
0.0
  0
LINE
  5
2B6
330
1F
100
AcDbEntity
  8
0
  6
Continuous
 62
     7
100
AcDbLine
 10
132.1330832553
 20
33.3449606857
 30
0.0
 11
137.6674272553
 21
33.3449606857
 31
0.0
  0
LINE
  5
2B7
330
1F
100
AcDbEntity
  8
0
  6
Continuous
 62
     7
100
AcDbLine
 10
126.5987332553
 20
33.3449606857
 30
0.0
 11
132.1330832553
 21
33.3449606857
 31
0.0
  0
LINE
  5
2B8
330
1F
100
AcDbEntity
  8
0
  6
Continuous
 62
     7
100
AcDbLine
 10
126.5987332553
 20
29.6553856857
 30
0.0
 11
126.5987332553
 21
33.3449606857
 31
0.0
  0
LINE
  5
2B9
330
1F
100
AcDbEntity
  8
0
  6
Continuous
 62
     7
100
AcDbLine
 10
126.5987332553
 20
25.9658096857
 30
0.0
 11
126.5987332553
 21
29.6553856857
 31
0.0
  0
LINE
  5
2BA
330
1F
100
AcDbEntity
  8
0
  6
Continuous
 62
     7
100
AcDbLine
 10
132.0613702553
 20
25.9658096857
 30
0.0
 11
126.5987332553
 21
25.9658096857
 31
0.0
  0
LINE
  5
2BB
330
1F
100
AcDbEntity
  8
0
  6
Continuous
 62
     7
100
AcDbLine
 10
137.5240302553
 20
25.9658096857
 30
0.0
 11
132.0613702553
 21
25.9658096857
 31
0.0
  0
LINE
  5
2BC
330
1F
100
AcDbEntity
  8
0
  6
Continuous
 62
     7
100
AcDbLine
 10
137.8352082553
 20
19.1631816857
 30
0.0
 11
137.5240302553
 21
25.9658096857
 31
0.0
  0
LINE
  5
2BD
330
1F
100
AcDbEntity
  8
0
  6
Continuous
 62
     7
100
AcDbLine
 10
386.0961342553
 20
12.3477406857
 30
0.0
 11
386.0960212553
 21
12.3477406857
 31
0.0
  0
LINE
  5
2BE
330
1F
100
AcDbEntity
  8
0
  6
Continuous
 62
     7
100
AcDbLine
 10
387.7139452553
 20
54.0987646857
 30
0.0
 11
387.5344522553
 21
32.5378616857
 31
0.0
  0
LINE
  5
2BF
330
1F
100
AcDbEntity
  8
0
  6
Continuous
 62
     7
100
AcDbLine
 10
395.0109422553
 20
54.0987646857
 30
0.0
 11
387.7139452553
 21
54.0987646857
 31
0.0
  0
LINE
  5
2C0
330
1F
100
AcDbEntity
  8
0
  6
Continuous
 62
     7
100
AcDbLine
 10
402.3079382553
 20
54.0987646857
 30
0.0
 11
395.0109422553
 21
54.0987646857
 31
0.0
  0
LINE
  5
2C1
330
1F
100
AcDbEntity
  8
0
  6
Continuous
 62
     7
100
AcDbLine
 10
402.4964632553
 20
35.0744186857
 30
0.0
 11
402.3079382553
 21
54.0987646857
 31
0.0
  0
LINE
  5
2C2
330
1F
100
AcDbEntity
  8
0
  6
Continuous
 62
     7
100
AcDbLine
 10
404.2385922553
 20
55.9435386857
 30
0.0
 11
404.2354882553
 21
38.0722116857
 31
0.0
  0
LINE
  5
2C3
330
1F
100
AcDbEntity
  8
0
  6
Continuous
 62
     7
100
AcDbLine
 10
395.0146952553
 20
55.9435386857
 30
0.0
 11
404.2385922553
 21
55.9435386857
 31
0.0
  0
LINE
  5
2C4
330
1F
100
AcDbEntity
  8
0
  6
Continuous
 62
     7
100
AcDbLine
 10
385.7907702553
 20
55.9435386857
 30
0.0
 11
395.0146952553
 21
55.9435386857
 31
0.0
  0
LINE
  5
2C5
330
1F
100
AcDbEntity
  8
0
  6
Continuous
 62
     7
100
AcDbLine
 10
385.7907702553
 20
35.9511136857
 30
0.0
 11
385.7907702553
 21
55.9435386857
 31
0.0
  0
LINE
  5
2C6
330
1F
100
AcDbEntity
  8
0
  6
Continuous
 62
     7
100
AcDbLine
 10
345.9720932553
 20
12.3477406857
 30
0.0
 11
345.9719802553
 21
12.3477406857
 31
0.0
  0
LINE
  5
2C7
330
1F
100
AcDbEntity
  8
0
  6
Continuous
 62
     7
100
AcDbLine
 10
347.5899042553
 20
54.0987646857
 30
0.0
 11
347.4104102553
 21
32.5378616857
 31
0.0
  0
LINE
  5
2C8
330
1F
100
AcDbEntity
  8
0
  6
Continuous
 62
     7
100
AcDbLine
 10
354.8869002553
 20
54.0987646857
 30
0.0
 11
347.5899042553
 21
54.0987646857
 31
0.0
  0
LINE
  5
2C9
330
1F
100
AcDbEntity
  8
0
  6
Continuous
 62
     7
100
AcDbLine
 10
362.1838972553
 20
54.0987646857
 30
0.0
 11
354.8869002553
 21
54.0987646857
 31
0.0
  0
LINE
  5
2CA
330
1F
100
AcDbEntity
  8
0
  6
Continuous
 62
     7
100
AcDbLine
 10
362.3724212553
 20
35.0744186857
 30
0.0
 11
362.1838972553
 21
54.0987646857
 31
0.0
  0
LINE
  5
2CB
330
1F
100
AcDbEntity
  8
0
  6
Continuous
 62
     7
100
AcDbLine
 10
364.1145792553
 20
55.9435386857
 30
0.0
 11
364.1114752553
 21
38.0722116857
 31
0.0
  0
LINE
  5
2CC
330
1F
100
AcDbEntity
  8
0
  6
Continuous
 62
     7
100
AcDbLine
 10
354.8906542553
 20
55.9435386857
 30
0.0
 11
364.1145792553
 21
55.9435386857
 31
0.0
  0
LINE
  5
2CD
330
1F
100
AcDbEntity
  8
0
  6
Continuous
 62
     7
100
AcDbLine
 10
345.6667282553
 20
55.9435386857
 30
0.0
 11
354.8906542553
 21
55.9435386857
 31
0.0
  0
LINE
  5
2CE
330
1F
100
AcDbEntity
  8
0
  6
Continuous
 62
     7
100
AcDbLine
 10
345.6667282553
 20
35.9511136857
 30
0.0
 11
345.6667282553
 21
55.9435386857
 31
0.0
  0
LINE
  5
2CF
330
1F
100
AcDbEntity
  8
0
  6
Continuous
 62
     7
100
AcDbLine
 10
304.4594342553
 20
12.4074866857
 30
0.0
 11
304.4592922553
 21
12.4074866857
 31
0.0
  0
LINE
  5
2D0
330
1F
100
AcDbEntity
  8
0
  6
Continuous
 62
     7
100
AcDbLine
 10
306.1435952553
 20
25.9658096857
 30
0.0
 11
305.8810432553
 21
17.8404906857
 31
0.0
  0
LINE
  5
2D1
330
1F
100
AcDbEntity
  8
0
  6
Continuous
 62
     7
100
AcDbLine
 10
307.8592522553
 20
25.9658096857
 30
0.0
 11
306.1435952553
 21
25.9658096857
 31
0.0
  0
LINE
  5
2D2
330
1F
100
AcDbEntity
  8
0
  6
Continuous
 62
     7
100
AcDbLine
 10
309.5749092553
 20
25.9658096857
 30
0.0
 11
307.8592522553
 21
25.9658096857
 31
0.0
  0
LINE
  5
2D3
330
1F
100
AcDbEntity
  8
0
  6
Continuous
 62
     7
100
AcDbLine
 10
309.9035572553
 20
20.8959976857
 30
0.0
 11
309.5749092553
 21
25.9658096857
 31
0.0
  0
LINE
  5
2D4
330
1F
100
AcDbEntity
  8
0
  6
Continuous
 62
     7
100
AcDbLine
 10
311.5382442553
 20
27.8106116857
 30
0.0
 11
311.5351402553
 21
24.6975306857
 31
0.0
  0
LINE
  5
2D5
330
1F
100
AcDbEntity
  8
0
  6
Continuous
 62
     7
100
AcDbLine
 10
307.8486682553
 20
27.8106116857
 30
0.0
 11
311.5382442553
 21
27.8106116857
 31
0.0
  0
LINE
  5
2D6
330
1F
100
AcDbEntity
  8
0
  6
Continuous
 62
     7
100
AcDbLine
 10
304.1591212553
 20
27.8106116857
 30
0.0
 11
307.8486682553
 21
27.8106116857
 31
0.0
  0
LINE
  5
2D7
330
1F
100
AcDbEntity
  8
0
  6
Continuous
 62
     7
100
AcDbLine
 10
304.1591212553
 20
21.8846506857
 30
0.0
 11
304.1591212553
 21
27.8106116857
 31
0.0
  0
LINE
  5
2D8
330
1F
100
AcDbEntity
  8
0
  6
Continuous
 62
     7
100
AcDbLine
 10
322.4561802553
 20
11.8536256857
 30
0.0
 11
322.4560392553
 21
11.8536256857
 31
0.0
  0
LINE
  5
2D9
330
1F
100
AcDbEntity
  8
0
  6
Continuous
 62
     7
100
AcDbLine
 10
324.0623352553
 20
54.0987646857
 30
0.0
 11
323.8707342553
 21
32.5378616857
 31
0.0
  0
LINE
  5
2DA
330
1F
100
AcDbEntity
  8
0
  6
Continuous
 62
     7
100
AcDbLine
 10
326.0294522553
 20
54.0987646857
 30
0.0
 11
324.0623352553
 21
54.0987646857
 31
0.0
  0
LINE
  5
2DB
330
1F
100
AcDbEntity
  8
0
  6
Continuous
 62
     7
100
AcDbLine
 10
327.9965692553
 20
54.0987646857
 30
0.0
 11
326.0294522553
 21
54.0987646857
 31
0.0
  0
LINE
  5
2DC
330
1F
100
AcDbEntity
  8
0
  6
Continuous
 62
     7
100
AcDbLine
 10
331.4126722553
 20
44.0860846857
 30
0.0
 11
327.9965692553
 21
54.0987646857
 31
0.0
  0
LINE
  5
2DD
330
1F
100
AcDbEntity
  8
0
  6
Continuous
 62
     7
100
AcDbLine
 10
334.8287742553
 20
34.0734046857
 30
0.0
 11
331.4126722553
 21
44.0860846857
 31
0.0
  0
LINE
  5
2DE
330
1F
100
AcDbEntity
  8
0
  6
Continuous
 62
     7
100
AcDbLine
 10
334.9530652553
 20
44.0860846857
 30
0.0
 11
334.8287742553
 21
34.0734046857
 31
0.0
  0
LINE
  5
2DF
330
1F
100
AcDbEntity
  8
0
  6
Continuous
 62
     7
100
AcDbLine
 10
335.0773562553
 20
54.0987646857
 30
0.0
 11
334.9530652553
 21
44.0860846857
 31
0.0
  0
LINE
  5
2E0
330
1F
100
AcDbEntity
  8
0
  6
Continuous
 62
     7
100
AcDbLine
 10
336.8712452553
 20
54.0987646857
 30
0.0
 11
335.0773562553
 21
54.0987646857
 31
0.0
  0
LINE
  5
2E1
330
1F
100
AcDbEntity
  8
0
  6
Continuous
 62
     7
100
AcDbLine
 10
338.6651622553
 20
54.0987646857
 30
0.0
 11
336.8712452553
 21
54.0987646857
 31
0.0
  0
LINE
  5
2E2
330
1F
100
AcDbEntity
  8
0
  6
Continuous
 62
     7
100
AcDbLine
 10
338.8705352553
 20
34.3826356857
 30
0.0
 11
338.6651622553
 21
54.0987646857
 31
0.0
  0
LINE
  5
2E3
330
1F
100
AcDbEntity
  8
0
  6
Continuous
 62
     7
100
AcDbLine
 10
340.5935862553
 20
55.9435386857
 30
0.0
 11
340.5904822553
 21
37.1498246857
 31
0.0
  0
LINE
  5
2E4
330
1F
100
AcDbEntity
  8
0
  6
Continuous
 62
     7
100
AcDbLine
 10
336.9040112553
 20
55.9435386857
 30
0.0
 11
340.5935862553
 21
55.9435386857
 31
0.0
  0
LINE
  5
2E5
330
1F
100
AcDbEntity
  8
0
  6
Continuous
 62
     7
100
AcDbLine
 10
333.2144632553
 20
55.9435386857
 30
0.0
 11
336.9040112553
 21
55.9435386857
 31
0.0
  0
LINE
  5
2E6
330
1F
100
AcDbEntity
  8
0
  6
Continuous
 62
     7
100
AcDbLine
 10
333.1830242553
 20
50.2939016857
 30
0.0
 11
333.2144632553
 21
55.9435386857
 31
0.0
  0
LINE
  5
2E7
330
1F
100
AcDbEntity
  8
0
  6
Continuous
 62
     7
100
AcDbLine
 10
333.1516122553
 20
44.6442356857
 30
0.0
 11
333.1830242553
 21
50.2939016857
 31
0.0
  0
LINE
  5
2E8
330
1F
100
AcDbEntity
  8
0
  6
Continuous
 62
     7
100
AcDbLine
 10
331.2229622553
 20
50.1785856856
 30
0.0
 11
333.1516122553
 21
44.6442356857
 31
0.0
  0
LINE
  5
2E9
330
1F
100
AcDbEntity
  8
0
  6
Continuous
 62
     7
100
AcDbLine
 10
329.2942842553
 20
55.7129346857
 30
0.0
 11
331.2229622553
 21
50.1785856856
 31
0.0
  0
LINE
  5
2EA
330
1F
100
AcDbEntity
  8
0
  6
Continuous
 62
     7
100
AcDbLine
 10
325.7200242553
 20
55.8476396857
 30
0.0
 11
329.2942842553
 21
55.7129346857
 31
0.0
  0
LINE
  5
2EB
330
1F
100
AcDbEntity
  8
0
  6
Continuous
 62
     7
100
AcDbLine
 10
322.1457642553
 20
55.9823436857
 30
0.0
 11
325.7200242553
 21
55.8476396857
 31
0.0
  0
LINE
  5
2EC
330
1F
100
AcDbEntity
  8
0
  6
Continuous
 62
     7
100
AcDbLine
 10
322.1457642553
 20
35.7398986857
 30
0.0
 11
322.1457642553
 21
55.9823436857
 31
0.0
  0
LINE
  5
2ED
330
1F
100
AcDbEntity
  8
0
  6
Continuous
 62
     7
100
AcDbLine
 10
432.6816822553
 20
11.6024466857
 30
0.0
 11
432.6818512553
 21
11.6024466857
 31
0.0
  0
LINE
  5
2EE
330
1F
100
AcDbEntity
  8
0
  6
Continuous
 62
     7
100
AcDbLine
 10
434.3512802553
 20
26.1758096857
 30
0.0
 11
434.0771862553
 21
18.4507946857
 31
0.0
  0
LINE
  5
2EF
330
1F
100
AcDbEntity
  8
0
  6
Continuous
 62
     7
100
AcDbLine
 10
439.8180662553
 20
26.1758096857
 30
0.0
 11
434.3512802553
 21
26.1758096857
 31
0.0
  0
LINE
  5
2F0
330
1F
100
AcDbEntity
  8
0
  6
Continuous
 62
     7
100
AcDbLine
 10
445.2848512553
 20
26.1758096857
 30
0.0
 11
439.8180662553
 21
26.1758096857
 31
0.0
  0
LINE
  5
2F1
330
1F
100
AcDbEntity
  8
0
  6
Continuous
 62
     7
100
AcDbLine
 10
445.2848512553
 20
29.8653856857
 30
0.0
 11
445.2848512553
 21
26.1758096857
 31
0.0
  0
LINE
  5
2F2
330
1F
100
AcDbEntity
  8
0
  6
Continuous
 62
     7
100
AcDbLine
 10
445.2848512553
 20
33.5549606857
 30
0.0
 11
445.2848512553
 21
29.8653856857
 31
0.0
  0
LINE
  5
2F3
330
1F
100
AcDbEntity
  8
0
  6
Continuous
 62
     7
100
AcDbLine
 10
439.7505022553
 20
33.5549606857
 30
0.0
 11
445.2848512553
 21
33.5549606857
 31
0.0
  0
LINE
  5
2F4
330
1F
100
AcDbEntity
  8
0
  6
Continuous
 62
     7
100
AcDbLine
 10
434.2161522553
 20
33.5549606857
 30
0.0
 11
439.7505022553
 21
33.5549606857
 31
0.0
  0
LINE
  5
2F5
330
1F
100
AcDbEntity
  8
0
  6
Continuous
 62
     7
100
AcDbLine
 10
434.2161522553
 20
43.9318486857
 30
0.0
 11
434.2161522553
 21
33.5549606857
 31
0.0
  0
LINE
  5
2F6
330
1F
100
AcDbEntity
  8
0
  6
Continuous
 62
     7
100
AcDbLine
 10
434.2161522553
 20
54.3087646857
 30
0.0
 11
434.2161522553
 21
43.9318486857
 31
0.0
  0
LINE
  5
2F7
330
1F
100
AcDbEntity
  8
0
  6
Continuous
 62
     7
100
AcDbLine
 10
436.0609262553
 20
54.3087646857
 30
0.0
 11
434.2161522553
 21
54.3087646857
 31
0.0
  0
LINE
  5
2F8
330
1F
100
AcDbEntity
  8
0
  6
Continuous
 62
     7
100
AcDbLine
 10
437.9057282553
 20
54.3087646857
 30
0.0
 11
436.0609262553
 21
54.3087646857
 31
0.0
  0
LINE
  5
2F9
330
1F
100
AcDbEntity
  8
0
  6
Continuous
 62
     7
100
AcDbLine
 10
437.9057282553
 20
45.7766226857
 30
0.0
 11
437.9057282553
 21
54.3087646857
 31
0.0
  0
LINE
  5
2FA
330
1F
100
AcDbEntity
  8
0
  6
Continuous
 62
     7
100
AcDbLine
 10
437.9057282553
 20
37.2445086857
 30
0.0
 11
437.9057282553
 21
45.7766226857
 31
0.0
  0
LINE
  5
2FB
330
1F
100
AcDbEntity
  8
0
  6
Continuous
 62
     7
100
AcDbLine
 10
441.5952752553
 20
37.2445086857
 30
0.0
 11
437.9057282553
 21
37.2445086857
 31
0.0
  0
LINE
  5
2FC
330
1F
100
AcDbEntity
  8
0
  6
Continuous
 62
     7
100
AcDbLine
 10
445.2848512553
 20
37.2445086857
 30
0.0
 11
441.5952752553
 21
37.2445086857
 31
0.0
  0
LINE
  5
2FD
330
1F
100
AcDbEntity
  8
0
  6
Continuous
 62
     7
100
AcDbLine
 10
445.2848512553
 20
45.7766226857
 30
0.0
 11
445.2848512553
 21
37.2445086857
 31
0.0
  0
LINE
  5
2FE
330
1F
100
AcDbEntity
  8
0
  6
Continuous
 62
     7
100
AcDbLine
 10
445.2848512553
 20
54.3087646857
 30
0.0
 11
445.2848512553
 21
45.7766226857
 31
0.0
  0
LINE
  5
2FF
330
1F
100
AcDbEntity
  8
0
  6
Continuous
 62
     7
100
AcDbLine
 10
447.0862472553
 20
54.3087646857
 30
0.0
 11
445.2848512553
 21
54.3087646857
 31
0.0
  0
LINE
  5
300
330
1F
100
AcDbEntity
  8
0
  6
Continuous
 62
     7
100
AcDbLine
 10
448.8876152553
 20
54.3087646857
 30
0.0
 11
447.0862472553
 21
54.3087646857
 31
0.0
  0
LINE
  5
301
330
1F
100
AcDbEntity
  8
0
  6
Continuous
 62
     7
100
AcDbLine
 10
449.0770992553
 20
35.5150226857
 30
0.0
 11
448.8876152553
 21
54.3087646857
 31
0.0
  0
LINE
  5
302
330
1F
100
AcDbEntity
  8
0
  6
Continuous
 62
     7
100
AcDbLine
 10
450.8193702553
 20
56.1535386857
 30
0.0
 11
450.8159832553
 21
38.5128156857
 31
0.0
  0
LINE
  5
303
330
1F
100
AcDbEntity
  8
0
  6
Continuous
 62
     7
100
AcDbLine
 10
447.1297942553
 20
56.1535386857
 30
0.0
 11
450.8193702553
 21
56.1535386857
 31
0.0
  0
LINE
  5
304
330
1F
100
AcDbEntity
  8
0
  6
Continuous
 62
     7
100
AcDbLine
 10
443.4402472553
 20
56.1535386857
 30
0.0
 11
447.1297942553
 21
56.1535386857
 31
0.0
  0
LINE
  5
305
330
1F
100
AcDbEntity
  8
0
  6
Continuous
 62
     7
100
AcDbLine
 10
443.4402472553
 20
47.6214246857
 30
0.0
 11
443.4402472553
 21
56.1535386857
 31
0.0
  0
LINE
  5
306
330
1F
100
AcDbEntity
  8
0
  6
Continuous
 62
     7
100
AcDbLine
 10
443.4402472553
 20
39.0892826857
 30
0.0
 11
443.4402472553
 21
47.6214246857
 31
0.0
  0
LINE
  5
307
330
1F
100
AcDbEntity
  8
0
  6
Continuous
 62
     7
100
AcDbLine
 10
441.5954732553
 20
39.0892826857
 30
0.0
 11
443.4402472553
 21
39.0892826857
 31
0.0
  0
LINE
  5
308
330
1F
100
AcDbEntity
  8
0
  6
Continuous
 62
     7
100
AcDbLine
 10
439.7506992553
 20
39.0892826857
 30
0.0
 11
441.5954732553
 21
39.0892826857
 31
0.0
  0
LINE
  5
309
330
1F
100
AcDbEntity
  8
0
  6
Continuous
 62
     7
100
AcDbLine
 10
439.7506992553
 20
47.6214246857
 30
0.0
 11
439.7506992553
 21
39.0892826857
 31
0.0
  0
LINE
  5
30A
330
1F
100
AcDbEntity
  8
0
  6
Continuous
 62
     7
100
AcDbLine
 10
439.7506992553
 20
56.1535386857
 30
0.0
 11
439.7506992553
 21
47.6214246857
 31
0.0
  0
LINE
  5
30B
330
1F
100
AcDbEntity
  8
0
  6
Continuous
 62
     7
100
AcDbLine
 10
436.0611232553
 20
56.1535386857
 30
0.0
 11
439.7506992553
 21
56.1535386857
 31
0.0
  0
LINE
  5
30C
330
1F
100
AcDbEntity
  8
0
  6
Continuous
 62
     7
100
AcDbLine
 10
432.3715482553
 20
56.1535386857
 30
0.0
 11
436.0611232553
 21
56.1535386857
 31
0.0
  0
LINE
  5
30D
330
1F
100
AcDbEntity
  8
0
  6
Continuous
 62
     7
100
AcDbLine
 10
432.3715482553
 20
43.9318486857
 30
0.0
 11
432.3715482553
 21
56.1535386857
 31
0.0
  0
LINE
  5
30E
330
1F
100
AcDbEntity
  8
0
  6
Continuous
 62
     7
100
AcDbLine
 10
432.3715482553
 20
31.7101586857
 30
0.0
 11
432.3715482553
 21
43.9318486857
 31
0.0
  0
LINE
  5
30F
330
1F
100
AcDbEntity
  8
0
  6
Continuous
 62
     7
100
AcDbLine
 10
437.9058972553
 20
31.7101586857
 30
0.0
 11
432.3715482553
 21
31.7101586857
 31
0.0
  0
LINE
  5
310
330
1F
100
AcDbEntity
  8
0
  6
Continuous
 62
     7
100
AcDbLine
 10
443.4402472553
 20
31.7101586857
 30
0.0
 11
437.9058972553
 21
31.7101586857
 31
0.0
  0
LINE
  5
311
330
1F
100
AcDbEntity
  8
0
  6
Continuous
 62
     7
100
AcDbLine
 10
443.4402472553
 20
29.8653856857
 30
0.0
 11
443.4402472553
 21
31.7101586857
 31
0.0
  0
LINE
  5
312
330
1F
100
AcDbEntity
  8
0
  6
Continuous
 62
     7
100
AcDbLine
 10
443.4402472553
 20
28.0206116857
 30
0.0
 11
443.4402472553
 21
29.8653856857
 31
0.0
  0
LINE
  5
313
330
1F
100
AcDbEntity
  8
0
  6
Continuous
 62
     7
100
AcDbLine
 10
437.9058972553
 20
28.0206116857
 30
0.0
 11
443.4402472553
 21
28.0206116857
 31
0.0
  0
LINE
  5
314
330
1F
100
AcDbEntity
  8
0
  6
Continuous
 62
     7
100
AcDbLine
 10
432.3715482553
 20
28.0206116857
 30
0.0
 11
437.9058972553
 21
28.0206116857
 31
0.0
  0
LINE
  5
315
330
1F
100
AcDbEntity
  8
0
  6
Continuous
 62
     7
100
AcDbLine
 10
432.3715482553
 20
21.6334426857
 30
0.0
 11
432.3715482553
 21
28.0206116857
 31
0.0
  0
LWPOLYLINE
  5
316
330
1F
100
AcDbEntity
  8
0
  6
Continuous
 62
     7
100
AcDbPolyline
 90
        6
 70
   128
 43
0.0
 10
103.3300161362
 20
31.9613666857
 10
103.3235872547
 20
31.9643944742
 10
103.3171401951
 20
31.9734285787
 10
103.3043709884
 20
32.00922017
 10
103.2321027397
 20
32.6891899982
 10
103.0777382553
 20
41.1852636857
  0
ARC
  5
317
330
1F
100
AcDbEntity
  8
0
  6
Continuous
 62
     7
100
AcDbCircle
 10
97.4963011185
 20
47.9222600572
 30
0.0
 40
16.99361687697282
100
AcDbArc
 50
290.0775658067
 51
304.0837874843
  0
LWPOLYLINE
  5
318
330
1F
100
AcDbEntity
  8
0
  6
Continuous
 62
     7
100
AcDbPolyline
 90
        5
 70
   128
 43
0.0
 10
153.3479690552
 20
27.8106116857
 10
154.6509570053
 20
27.9209886857
 10
155.047296974
 20
28.0404736544
 10
155.1552098139
 20
28.1108984239
 10
155.1928622553
 20
28.1863906857
  0
LWPOLYLINE
  5
319
330
1F
100
AcDbEntity
  8
0
  6
Continuous
 62
     7
100
AcDbPolyline
 90
        5
 70
   128
 43
0.0
 10
151.5032052994
 20
28.9635736857
 10
151.5580795209
 20
28.3456546544
 10
151.8030843803
 20
27.9979649357
 10
152.4528247782
 20
27.8359454828
 10
153.3480882553
 20
27.8106116857
  0
LWPOLYLINE
  5
31A
330
1F
100
AcDbEntity
  8
0
  6
Continuous
 62
     7
100
AcDbPolyline
 90
        5
 70
   128
 43
0.0
 10
151.7181396484
 20
30.1165646857
 10
151.6750766205
 20
30.0930323263
 10
151.6347955522
 20
30.0255877482
 10
151.5664516303
 20
29.7778769357
 10
151.5033152553
 20
28.9635736857
  0
LWPOLYLINE
  5
31B
330
1F
100
AcDbEntity
  8
0
  6
Continuous
 62
     7
100
AcDbPolyline
 90
        9
 70
   128
 43
0.0
 10
155.1928520203
 20
28.1863906857
 10
155.1766080084
 20
28.2365434511
 10
155.1421306241
 20
28.285357699
 10
155.0373513665
 20
28.3907317972
 10
154.7326239897
 20
28.6257474513
 10
153.6760096303
 20
29.2739373107
 10
152.3848282308
 20
29.9143931725
 10
151.9488917267
 20
30.074098795
 10
151.7182552553
 20
30.1165646857
  0
LWPOLYLINE
  5
31C
330
1F
100
AcDbEntity
  8
0
  6
Continuous
 62
     7
100
AcDbPolyline
 90
        5
 70
   128
 43
0.0
 10
153.3479690552
 20
31.5001586857
 10
154.8243060236
 20
30.7507095433
 10
155.8425639141
 20
30.1887968656
 10
156.7219669924
 20
29.4798562791
 10
157.0376642553
 20
27.8054466857
  0
LWPOLYLINE
  5
31D
330
1F
100
AcDbEntity
  8
0
  6
Continuous
 62
     7
100
AcDbPolyline
 90
        7
 70
   128
 43
0.0
 10
236.5483045578
 20
14.4359876857
 10
236.4168571303
 20
14.3552716798
 10
236.2975100053
 20
14.3935050763
 10
236.1830279111
 20
14.5695689025
 10
236.099918887
 20
14.8104539513
 10
235.9632315678
 20
15.4773303687
 10
235.7412582553
 20
17.4806286857
  0
LWPOLYLINE
  5
31E
330
1F
100
AcDbEntity
  8
0
  6
Continuous
 62
     7
100
AcDbPolyline
 90
        8
 70
   128
 43
0.0
 10
237.2123003006
 20
32.6758686857
 10
237.1412837472
 20
26.5623380188
 10
237.0471980141
 20
21.7263518709
 10
236.9289693627
 20
18.1373641414
 10
236.7340510273
 20
15.2575430938
 10
236.6336843637
 20
14.6437919716
 10
236.5866103458
 20
14.497887588
 10
236.5483572553
 20
14.4359876857
  0
LWPOLYLINE
  5
31F
330
1F
100
AcDbEntity
  8
0
  6
Continuous
 62
     7
100
AcDbPolyline
 90
        8
 70
   128
 43
0.0
 10
241.713643074
 20
14.4353946857
 10
241.657716842
 20
14.5423732934
 10
241.6154322721
 20
14.6966977785
 10
241.5435532383
 20
15.1274166201
 10
241.4265408053
 20
16.3975263462
 10
241.2524535171
 20
20.2987268143
 10
241.1329349846
 20
25.6018288497
 10
241.0453142553
 20
32.6760096857
  0
LWPOLYLINE
  5
320
330
1F
100
AcDbEntity
  8
0
  6
Continuous
 62
     7
100
AcDbPolyline
 90
       10
 70
   128
 43
0.0
 10
242.8169250488
 20
34.3826356857
 10
242.7982031379
 20
28.4293905917
 10
242.7422742535
 20
23.6318968921
 10
242.645086364
 20
19.9162412207
 10
242.4720101668
 20
16.8254020996
 10
242.2292434428
 20
15.0135997013
 10
242.0577058905
 20
14.5078377242
 10
241.9623055351
 20
14.3882142815
 10
241.8602793725
 20
14.353730057
 10
241.7136722553
 20
14.4353946857
  0
ARC
  5
321
330
1F
100
AcDbEntity
  8
0
  6
Continuous
 62
     7
100
AcDbCircle
 10
587.124586053
 20
32.230678213
 30
0.0
 40
351.6930124141708
100
AcDbArc
 50
179.5817230051
 51
182.4036972817
  0
LWPOLYLINE
  5
322
330
1F
100
AcDbEntity
  8
0
  6
Continuous
 62
     7
100
AcDbPolyline
 90
        6
 70
   128
 43
0.0
 10
104.0477752686
 20
14.2990816857
 10
104.0085783625
 20
14.2798487784
 10
103.9461965398
 20
14.3192818511
 10
103.8805719272
 20
14.4357604982
 10
103.5775030024
 20
15.7573723557
 10
103.3779372553
 20
17.4806286857
  0
ARC
  5
323
330
1F
100
AcDbEntity
  8
0
  6
Continuous
 62
     7
100
AcDbCircle
 10
87.713666976
 20
19.1232267081
 30
0.0
 40
17.03161835634839
100
AcDbArc
 50
343.545942515
 51
1.6898993963
  0
ARC
  5
324
330
1F
100
AcDbEntity
  8
0
  6
Continuous
 62
     7
100
AcDbCircle
 10
114.036026492
 20
21.2490293748
 30
0.0
 40
9.438794768028579
100
AcDbArc
 50
159.3207067534
 51
189.9045364766
  0
ARC
  5
325
330
1F
100
AcDbEntity
  8
0
  6
Continuous
 62
     7
100
AcDbCircle
 10
102.5810747186
 20
16.1995186645
 30
0.0
 40
8.783890643740444
100
AcDbArc
 50
60.2163602214
 51
72.6164394788
  0
LWPOLYLINE
  5
326
330
1F
100
AcDbEntity
  8
0
  6
Continuous
 62
     7
100
AcDbPolyline
 90
        7
 70
   128
 43
0.0
 10
109.5243692398
 20
14.2115646857
 10
109.4924924119
 20
14.2479147028
 10
109.4661477724
 20
14.2999961296
 10
109.4166935354
 20
14.4418858699
 10
109.3224823793
 20
14.8389722405
 10
109.1456024837
 20
15.9369727928
 10
108.8600762553
 20
18.7429806857
  0
LWPOLYLINE
  5
327
330
1F
100
AcDbEntity
  8
0
  6
Continuous
 62
     7
100
AcDbPolyline
 90
        8
 70
   128
 43
0.0
 10
110.4531288147
 20
22.0456576857
 10
110.3555706303
 20
19.4268904513
 10
110.1191650053
 20
16.8344175607
 10
109.8175607553
 20
14.8890414825
 10
109.6891590258
 20
14.4142805915
 10
109.5928708598
 20
14.2281181923
 10
109.5580656907
 20
14.205692209
 10
109.5243992553
 20
14.2115646857
  0
LWPOLYLINE
  5
328
330
1F
100
AcDbEntity
  8
0
  6
Continuous
 62
     7
100
AcDbPolyline
 90
        5
 70
   128
 43
0.0
 10
106.7668199539
 20
25.8819046857
 10
108.2366284156
 20
25.0806521641
 10
109.2526448108
 20
24.4807398654
 10
110.133729684
 20
23.7353741773
 10
110.4531362553
 20
22.0456576857
  0
ARC
  5
329
330
1F
100
AcDbEntity
  8
0
  6
Continuous
 62
     7
100
AcDbCircle
 10
201.8543787928
 20
25.2124443651
 30
0.0
 40
98.77956292140394
100
AcDbArc
 50
180.4407311861
 51
184.4893295979
  0
LWPOLYLINE
  5
32A
330
1F
100
AcDbEntity
  8
0
  6
Continuous
 62
     7
100
AcDbPolyline
 90
        9
 70
   128
 43
0.0
 10
98.6260175705
 20
14.4688376857
 10
98.4740307929
 20
14.154714145
 10
98.3729202084
 20
14.0322176857
 10
98.3338348124
 20
14.0161258279
 10
98.2967737767
 20
14.0227883356
 10
98.2277116662
 20
14.1076221818
 10
98.1098626453
 20
14.5455639747
 10
98.0210368438
 20
15.1680766737
 10
97.8486402553
 20
16.9596746857
  0
LWPOLYLINE
  5
32B
330
1F
100
AcDbEntity
  8
0
  6
Continuous
 62
     7
100
AcDbPolyline
 90
        8
 70
   128
 43
0.0
 10
99.2857813835
 20
34.8438436857
 10
99.2076445209
 20
28.720616956
 10
99.1035038035
 20
23.4978725365
 10
98.9781404918
 20
19.3225088011
 10
98.8860866802
 20
17.2118747652
 10
98.7882298014
 20
15.663701382
 10
98.6984020387
 20
14.8001137466
 10
98.6260212553
 20
14.4688376857
  0
LWPOLYLINE
  5
32C
330
1F
100
AcDbEntity
  8
0
  6
Continuous
 62
     7
100
AcDbPolyline
 90
        6
 70
   128
 43
0.0
 10
108.3559989929
 20
29.7577186857
 10
108.3398900627
 20
29.7975012511
 10
108.3552727611
 20
29.8514887872
 10
108.4749909897
 20
29.9983488107
 10
109.6127160372
 20
30.7830437306
 10
111.0943162553
 20
31.5766416857
  0
ARC
  5
32D
330
1F
100
AcDbEntity
  8
0
  6
Continuous
 62
     7
100
AcDbCircle
 10
119.850967148
 20
46.1547521126
 30
0.0
 40
20.02489149461469
100
AcDbArc
 50
234.9681000108
 51
244.6989453178
  0
ARC
  5
32E
330
1F
100
AcDbEntity
  8
0
  6
Continuous
 62
     7
100
AcDbCircle
 10
186.7579057778
 20
25.4017017709
 30
0.0
 40
72.60385267610879
100
AcDbArc
 50
183.0137968956
 51
188.3189610342
  0
LWPOLYLINE
  5
32F
330
1F
100
AcDbEntity
  8
0
  6
Continuous
 62
     7
100
AcDbPolyline
 90
        9
 70
   128
 43
0.0
 10
115.5714392662
 20
15.8194976857
 10
115.2829682812
 20
13.9325568117
 10
115.2473471562
 20
13.8456190857
 10
115.2296878165
 20
13.8248590472
 10
115.2119187309
 20
13.8189410177
 10
115.1877829514
 20
13.8337526122
 10
115.1627969891
 20
13.8740253551
 10
115.1087771928
 20
14.0288408107
 10
114.9180042553
 20
14.8971106857
  0
LWPOLYLINE
  5
330
330
1F
100
AcDbEntity
  8
0
  6
Continuous
 62
     7
100
AcDbPolyline
 90
        3
 70
   128
 43
0.0
 10
115.9455776215
 20
22.9914416857
 10
115.7916621988
 20
18.5114076171
 10
115.5714902553
 20
15.8194976857
  0
ARC
  5
331
330
1F
100
AcDbEntity
  8
0
  6
Continuous
 62
     7
100
AcDbCircle
 10
592.3896529146
 20
34.6975982986
 30
0.0
 40
494.8590634714807
100
AcDbArc
 50
179.5878706662
 51
182.0541725721
  0
LWPOLYLINE
  5
332
330
1F
100
AcDbEntity
  8
0
  6
Continuous
 62
     7
100
AcDbPolyline
 90
        7
 70
   128
 43
0.0
 10
334.6529006958
 20
14.6665066857
 10
334.4619140209
 20
13.765536795
 10
334.4186488309
 20
13.6545658026
 10
334.3780471907
 20
13.6114709834
 10
334.3519397931
 20
13.6218760463
 10
334.1928873753
 20
14.3926801204
 10
333.9810922553
 20
16.5113086857
  0
LWPOLYLINE
  5
333
330
1F
100
AcDbEntity
  8
0
  6
Continuous
 62
     7
100
AcDbPolyline
 90
        7
 70
   128
 43
0.0
 10
331.5742015839
 20
31.5001586857
 10
332.9446151418
 20
27.374628539
 10
333.9377476911
 20
24.2151067285
 10
334.5953465783
 20
21.7940268584
 10
334.959031478
 20
19.8838225327
 10
335.0368157331
 20
17.3668964225
 10
334.6530912553
 20
14.6665066857
  0
LWPOLYLINE
  5
334
330
1F
100
AcDbEntity
  8
0
  6
Continuous
 62
     7
100
AcDbPolyline
 90
       11
 70
   128
 43
0.0
 10
327.7559280396
 20
41.1852916857
 10
327.7921036779
 20
41.2796497184
 10
327.8127837
 20
41.2904769078
 10
327.8373582003
 20
41.2879423305
 10
327.8941261966
 20
41.2470238102
 10
327.9483452926
 20
41.1818315161
 10
328.0661206772
 20
40.9933257794
 10
328.6642715974
 20
39.6692043233
 10
329.5643565668
 20
37.2995608964
 10
330.4794614272
 20
34.7141732831
 10
331.5743292553
 20
31.5001586857
  0
ARC
  5
335
330
1F
100
AcDbEntity
  8
0
  6
Continuous
 62
     7
100
AcDbCircle
 10
564.7128579787
 20
34.7656530997
 30
0.0
 40
237.0437422648378
100
AcDbArc
 50
178.4481211343
 51
181.6537512479
  0
LWPOLYLINE
  5
336
330
1F
100
AcDbEntity
  8
0
  6
Continuous
 62
     7
100
AcDbPolyline
 90
        7
 70
   128
 43
0.0
 10
328.5112380981
 20
15.2649026857
 10
328.4011394131
 20
15.4778311314
 10
328.3211818709
 20
15.7858920826
 10
328.1922187671
 20
16.6584029045
 10
328.002045554
 20
19.3116994994
 10
327.8701151122
 20
22.9625352754
 10
327.7679132553
 20
27.9247136857
  0
LWPOLYLINE
  5
337
330
1F
100
AcDbEntity
  8
0
  6
Continuous
 62
     7
100
AcDbPolyline
 90
        6
 70
   128
 43
0.0
 10
329.1230201721
 20
16.3037626857
 10
329.0463120444
 20
15.424095784
 10
328.9234510544
 20
15.1102209291
 10
328.8583315184
 20
15.0708378105
 10
328.7814597397
 20
15.0725214825
 10
328.5114272553
 20
15.2649026857
  0
LWPOLYLINE
  5
338
330
1F
100
AcDbEntity
  8
0
  6
Continuous
 62
     7
100
AcDbPolyline
 90
        5
 70
   128
 43
0.0
 10
329.4689655304
 20
24.8128186857
 10
329.3399208942
 20
21.6764151918
 10
329.2275254818
 20
18.9208826674
 10
329.1613963248
 20
17.2785419724
 10
329.1232292553
 20
16.3037626857
  0
LWPOLYLINE
  5
339
330
1F
100
AcDbEntity
  8
0
  6
Continuous
 62
     7
100
AcDbPolyline
 90
        3
 70
   128
 43
0.0
 10
333.9810371399
 20
16.5113086857
 10
333.0837597053
 20
21.3217610506
 10
331.6998892553
 20
25.9658096857
  0
LWPOLYLINE
  5
33A
330
1F
100
AcDbEntity
  8
0
  6
Continuous
 62
     7
100
AcDbPolyline
 90
       12
 70
   128
 43
0.0
 10
317.0268535614
 20
36.6886166857
 10
316.994177571
 20
29.198394524
 10
316.9320486207
 20
23.2717157794
 10
316.8357073184
 20
18.8028696025
 10
316.7510315682
 20
16.6006863555
 10
316.6479559631
 20
14.9570958827
 10
316.4454606459
 20
13.429797295
 10
316.3419077443
 20
13.1445240795
 10
316.2573861821
 20
13.0691651626
 10
316.1900155779
 20
13.0879299649
 10
316.1191489423
 20
13.1693639544
 10
315.9666212553
 20
13.5135436857
  0
LWPOLYLINE
  5
33B
330
1F
100
AcDbEntity
  8
0
  6
Continuous
 62
     7
100
AcDbPolyline
 90
       13
 70
   128
 43
0.0
 10
299.6969223022
 20
14.6665066857
 10
299.5604860004
 20
14.3417717574
 10
299.4960812832
 20
14.2620958039
 10
299.4342080131
 20
14.2382950411
 10
299.3748410701
 20
14.270930107
 10
299.3179553344
 20
14.3605616393
 10
299.2115270053
 20
14.7130566544
 10
299.0372004635
 20
16.0161949747
 10
298.8956060337
 20
18.1801955862
 10
298.8064437762
 20
20.5038663202
 10
298.7360127773
 20
23.3919256282
 10
298.6547942502
 20
29.9984346294
 10
298.6275372553
 20
38.5333906857
  0
LWPOLYLINE
  5
33C
330
1F
100
AcDbEntity
  8
0
  6
Continuous
 62
     7
100
AcDbPolyline
 90
        8
 70
   128
 43
0.0
 10
300.3485202789
 20
35.0744186857
 10
300.269258884
 20
29.3604087909
 10
300.1609291013
 20
24.2220876319
 10
300.0321980636
 20
19.9262205568
 10
299.9401971762
 20
17.6820168321
 10
299.845468947
 20
15.9976830626
 10
299.7617967776
 20
15.0394973745
 10
299.6969902553
 20
14.6665066857
  0
ARC
  5
33D
330
1F
100
AcDbEntity
  8
0
  6
Continuous
 62
     7
100
AcDbCircle
 10
604.6653296441
 20
32.4536348137
 30
0.0
 40
289.3193391475173
100
AcDbArc
 50
179.6179846537
 51
183.7535129723
  0
LWPOLYLINE
  5
33E
330
1F
100
AcDbEntity
  8
0
  6
Continuous
 62
     7
100
AcDbPolyline
 90
        7
 70
   128
 43
0.0
 10
427.3562431335
 20
13.0523366857
 10
427.1583499234
 20
11.601114452
 10
427.0022137997
 20
11.0915332067
 10
426.9755460695
 20
11.0900690585
 10
426.9478660423
 20
11.1110312798
 10
426.888227099
 20
11.2181032169
 10
426.6844312553
 20
11.8993456857
  0
ARC
  5
33F
330
1F
100
AcDbEntity
  8
0
  6
Continuous
 62
     7
100
AcDbCircle
 10
214.7596110859
 20
25.5081790307
 30
0.0
 40
212.9612536993383
100
AcDbArc
 50
356.6469265483
 51
0.4643490896
  0
LWPOLYLINE
  5
340
330
1F
100
AcDbEntity
  8
0
  6
Continuous
 62
     7
100
AcDbPolyline
 90
       12
 70
   128
 43
0.0
 10
410.3980064392
 20
15.3912246857
 10
410.255025976
 20
15.1373703461
 10
410.155277832
 20
15.0762475327
 10
410.0846154528
 20
15.1049912277
 10
410.0174485143
 20
15.1989670254
 10
409.8933827553
 20
15.5873000138
 10
409.7154455065
 20
16.8560694767
 10
409.5727473748
 20
18.93790951
 10
409.4840186471
 20
21.172593254
 10
409.414793765
 20
23.9575532156
 10
409.3365802005
 20
30.3661115169
 10
409.3117622553
 20
38.7182746857
  0
LWPOLYLINE
  5
341
330
1F
100
AcDbEntity
  8
0
  6
Continuous
 62
     7
100
AcDbPolyline
 90
        8
 70
   128
 43
0.0
 10
411.0548496246
 20
35.3050226857
 10
410.9786861609
 20
29.2961831689
 10
410.8761545441
 20
24.1904182551
 10
410.7518704243
 20
20.1207035989
 10
410.6600582153
 20
18.0668286601
 10
410.5619435753
 20
16.5604113775
 10
410.4713911237
 20
15.717980019
 10
410.3980642553
 20
15.3912246857
  0
ARC
  5
342
330
1F
100
AcDbEntity
  8
0
  6
Continuous
 62
     7
100
AcDbCircle
 10
586.6827283277
 20
26.0651704556
 30
0.0
 40
160.6242266725841
100
AcDbArc
 50
180.3233322368
 51
185.059621655
  0
LWPOLYLINE
  5
343
330
1F
100
AcDbEntity
  8
0
  6
Continuous
 62
     7
100
AcDbPolyline
 90
        9
 70
   128
 43
0.0
 10
370.2735900879
 20
11.2404416857
 10
370.1204476199
 20
10.9250703553
 10
370.0186236772
 20
10.8015120763
 10
369.979313163
 20
10.784984847
 10
369.9420676043
 20
10.791238153
 10
369.8727401833
 20
10.8753761288
 10
369.7546566087
 20
11.3127205403
 10
369.6657586716
 20
11.9357339561
 10
369.4930862553
 20
13.7313066857
  0
LWPOLYLINE
  5
344
330
1F
100
AcDbEntity
  8
0
  6
Continuous
 62
     7
100
AcDbPolyline
 90
        8
 70
   128
 43
0.0
 10
370.9309101105
 20
33.2296446857
 10
370.854326172
 20
26.5064992299
 10
370.7521937819
 20
20.8419726196
 10
370.6285234749
 20
16.36413173
 10
370.5369621115
 20
14.1210273111
 10
370.4387871248
 20
12.4874478373
 10
370.347796384
 20
11.5833351179
 10
370.2737972553
 20
11.2404416857
  0
ARC
  5
345
330
1F
100
AcDbEntity
  8
0
  6
Continuous
 62
     7
100
AcDbCircle
 10
398.8369429341
 20
20.2335416315
 30
0.0
 40
18.3944219973162
100
AcDbArc
 50
178.3058689451
 51
195.8176179282
  0
LWPOLYLINE
  5
346
330
1F
100
AcDbEntity
  8
0
  6
Continuous
 62
     7
100
AcDbPolyline
 90
        9
 70
   128
 43
0.0
 10
382.0979595184
 20
24.4669276857
 10
382.007363474
 20
20.9903597325
 10
381.7796302553
 20
17.9270975607
 10
381.4714002865
 20
15.8219339513
 10
381.3315328611
 20
15.3545190406
 10
381.2697294717
 20
15.2432433293
 10
381.2213959267
 20
15.1995403334
 10
381.1800906932
 20
15.1941355015
 10
381.1391832553
 20
15.2196616857
  0
LWPOLYLINE
  5
347
330
1F
100
AcDbEntity
  8
0
  6
Continuous
 62
     7
100
AcDbPolyline
 90
        6
 70
   128
 43
0.0
 10
369.4927692413
 20
13.7313066857
 10
369.4028394471
 20
15.6614791796
 10
369.3232585103
 20
19.019013366
 10
369.2583992564
 20
23.4909579814
 10
369.2065281962
 20
29.7664635186
 10
369.1877212553
 20
36.6428966857
  0
LWPOLYLINE
  5
348
330
1F
100
AcDbEntity
  8
0
  6
Continuous
 62
     7
100
AcDbPolyline
 90
        7
 70
   128
 43
0.0
 10
293.609380722
 20
12.5911286857
 10
293.4126845097
 20
11.1507440878
 10
293.2580710795
 20
10.641585235
 10
293.2319415587
 20
10.639440766
 10
293.2049244491
 20
10.6595542189
 10
293.1470506303
 20
10.7644923419
 10
292.9517102553
 20
11.4381386857
  0
ARC
  5
349
330
1F
100
AcDbEntity
  8
0
  6
Continuous
 62
     7
100
AcDbCircle
 10
138.539767633
 20
23.1800657904
 30
0.0
 40
155.4308299934476
100
AcDbArc
 50
356.0936212435
 51
0.3893666739
  0
LWPOLYLINE
  5
34A
330
1F
100
AcDbEntity
  8
0
  6
Continuous
 62
     7
100
AcDbPolyline
 90
       12
 70
   128
 43
0.0
 10
276.6468524933
 20
14.9300176857
 10
276.5045620304
 20
14.6751111361
 10
276.4051787782
 20
14.6142822261
 10
276.3347772465
 20
14.6438802275
 10
276.2678602075
 20
14.7392707925
 10
276.1442615522
 20
15.1321763888
 10
275.9670088248
 20
16.4140795429
 10
275.8248753577
 20
18.5164195021
 10
275.7365071207
 20
20.7727540097
 10
275.6675702742
 20
23.5845486326
 10
275.5896929702
 20
30.0547984372
 10
275.5649862553
 20
38.4876706857
  0
LWPOLYLINE
  5
34B
330
1F
100
AcDbEntity
  8
0
  6
Continuous
 62
     7
100
AcDbPolyline
 90
        8
 70
   128
 43
0.0
 10
277.3070335388
 20
35.0744186857
 10
277.2288631083
 20
29.0370136986
 10
277.1244178905
 20
23.8773738097
 10
276.9987969568
 20
19.7451520276
 10
276.9066687212
 20
17.6533941511
 10
276.80886194
 20
16.1173930938
 10
276.7192141353
 20
15.2596005883
 10
276.6470832553
 20
14.9300176857
  0
ARC
  5
34C
330
1F
100
AcDbEntity
  8
0
  6
Continuous
 62
     7
100
AcDbCircle
 10
409.7825974428
 20
23.6889645341
 30
0.0
 40
117.4715645090629
100
AcDbArc
 50
180.745299515
 51
185.986122886
  0
LWPOLYLINE
  5
34D
330
1F
100
AcDbEntity
  8
0
  6
Continuous
 62
     7
100
AcDbPolyline
 90
        9
 70
   128
 43
0.0
 10
191.7909383774
 20
11.2404416857
 10
191.6376676171
 20
10.9250703553
 10
191.5358436615
 20
10.8015120763
 10
191.4965331368
 20
10.784984847
 10
191.4592875637
 20
10.791238153
 10
191.3899600995
 20
10.8753761288
 10
191.2718763773
 20
11.3127205403
 10
191.1829782455
 20
11.9357339561
 10
191.0103052553
 20
13.7313066857
  0
LWPOLYLINE
  5
34E
330
1F
100
AcDbEntity
  8
0
  6
Continuous
 62
     7
100
AcDbPolyline
 90
        8
 70
   128
 43
0.0
 10
192.4482584
 20
33.2296446857
 10
192.371546087
 20
26.5064992299
 10
192.2694135199
 20
20.8419726196
 10
192.1457430609
 20
16.36413173
 10
192.0541816679
 20
14.1210273111
 10
191.9560067471
 20
12.4874478373
 10
191.8650161702
 20
11.5833351179
 10
191.7910172553
 20
11.2404416857
  0
ARC
  5
34F
330
1F
100
AcDbEntity
  8
0
  6
Continuous
 62
     7
100
AcDbCircle
 10
220.3361177844
 20
20.2317143309
 30
0.0
 40
18.37643890886666
100
AcDbArc
 50
178.2985107598
 51
195.827581272
  0
LWPOLYLINE
  5
350
330
1F
100
AcDbEntity
  8
0
  6
Continuous
 62
     7
100
AcDbPolyline
 90
        9
 70
   128
 43
0.0
 10
203.6153078079
 20
24.4669276857
 10
203.524607099
 20
20.9903597325
 10
203.2968642553
 20
17.9270975607
 10
202.9886246615
 20
15.8219339513
 10
202.8487544565
 20
15.3545190406
 10
202.7869502376
 20
15.2432433293
 10
202.7386162411
 20
15.1995403334
 10
202.6973107735
 20
15.1941355015
 10
202.6564032553
 20
15.2196616857
  0
LWPOLYLINE
  5
351
330
1F
100
AcDbEntity
  8
0
  6
Continuous
 62
     7
100
AcDbPolyline
 90
        6
 70
   128
 43
0.0
 10
191.0101175308
 20
13.7313066857
 10
190.9200585386
 20
15.6614791796
 10
190.8404778243
 20
19.019013366
 10
190.775618846
 20
23.4909579814
 10
190.7237480723
 20
29.7664635186
 10
190.7049412553
 20
36.6428966857
  0
LWPOLYLINE
  5
352
330
1F
100
AcDbEntity
  8
0
  6
Continuous
 62
     7
100
AcDbPolyline
 90
        9
 70
   128
 43
0.0
 10
145.2100276947
 20
11.2404416857
 10
145.056775204
 20
10.9250703553
 10
144.9549487397
 20
10.8015120763
 10
144.9156369575
 20
10.784984847
 10
144.8783900905
 20
10.791238153
 10
144.8090601393
 20
10.8753761288
 10
144.6909733858
 20
11.3127205403
 10
144.6020758991
 20
11.9357339561
 10
144.4294152553
 20
13.7313066857
  0
LWPOLYLINE
  5
353
330
1F
100
AcDbEntity
  8
0
  6
Continuous
 62
     7
100
AcDbPolyline
 90
        8
 70
   128
 43
0.0
 10
145.8673477173
 20
33.2296446857
 10
145.7906297347
 20
26.5064992299
 10
145.6885035757
 20
20.8419726196
 10
145.5648409828
 20
16.36413173
 10
145.4732844615
 20
14.1210273111
 10
145.3751133827
 20
12.4874478373
 10
145.2841248091
 20
11.5833351179
 10
145.2101262553
 20
11.2404416857
  0
LWPOLYLINE
  5
354
330
1F
100
AcDbEntity
  8
0
  6
Continuous
 62
     7
100
AcDbPolyline
 90
        6
 70
   128
 43
0.0
 10
154.9367904663
 20
35.2920686857
 10
154.9206625578
 20
35.3318510751
 10
154.9360456283
 20
35.3858384572
 10
155.0557643022
 20
35.5326982325
 10
156.1934895961
 20
36.3173927666
 10
157.6750912553
 20
37.1109906857
  0
ARC
  5
355
330
1F
100
AcDbEntity
  8
0
  6
Continuous
 62
     7
100
AcDbCircle
 10
166.4315127838
 20
51.6887996804
 30
0.0
 40
20.02451391283841
100
AcDbArc
 50
234.9681336265
 51
244.6992126505
  0
ARC
  5
356
330
1F
100
AcDbEntity
  8
0
  6
Continuous
 62
     7
100
AcDbCircle
 10
242.3683168196
 20
25.8929174421
 30
0.0
 40
81.59656628538339
100
AcDbArc
 50
180.9263195018
 51
187.4239248177
  0
LWPOLYLINE
  5
357
330
1F
100
AcDbEntity
  8
0
  6
Continuous
 62
     7
100
AcDbPolyline
 90
        8
 70
   128
 43
0.0
 10
162.1619462967
 20
16.2807046857
 10
161.8758715957
 20
14.3601420294
 10
161.8387881569
 20
14.273031067
 10
161.8200167302
 20
14.2526364473
 10
161.8008491506
 20
14.2473621207
 10
161.7464127733
 20
14.3053918921
 10
161.6844070209
 20
14.4646804669
 10
161.4557682553
 20
15.3498516857
  0
ARC
  5
358
330
1F
100
AcDbEntity
  8
0
  6
Continuous
 62
     7
100
AcDbCircle
 10
46.735258169
 20
25.4731733762
 30
0.0
 40
115.7922607896404
100
AcDbArc
 50
355.4466346497
 51
0.255341515
  0
ARC
  5
359
330
1F
100
AcDbEntity
  8
0
  6
Continuous
 62
     7
100
AcDbCircle
 10
164.7686963323
 20
29.8216801617
 30
0.0
 40
8.08203842951775
100
AcDbArc
 50
108.33671377
 51
125.720863142
  0
LWPOLYLINE
  5
35A
330
1F
100
AcDbEntity
  8
0
  6
Continuous
 62
     7
100
AcDbPolyline
 90
        5
 70
   128
 43
0.0
 10
162.5719070435
 20
46.7196136857
 10
162.360416099
 20
38.2220870607
 10
162.261353745
 20
37.5414397013
 10
162.2438502931
 20
37.5055285812
 10
162.2261222553
 20
37.4933456857
  0
LWPOLYLINE
  5
35B
330
1F
100
AcDbEntity
  8
0
  6
Continuous
 62
     7
100
AcDbPolyline
 90
        6
 70
   128
 43
0.0
 10
144.4293260574
 20
13.7313066857
 10
144.3392814471
 20
15.6614791796
 10
144.2597005103
 20
19.019013366
 10
144.1948412564
 20
23.4909579814
 10
144.1429701962
 20
29.7664635186
 10
144.1241632553
 20
36.6428966857
  0
LWPOLYLINE
  5
35C
330
1F
100
AcDbEntity
  8
0
  6
Continuous
 62
     7
100
AcDbPolyline
 90
        7
 70
   128
 43
0.0
 10
270.5495357513
 20
12.1299496857
 10
270.3546891001
 20
10.7064182187
 10
270.2022803656
 20
10.197916704
 10
270.1769226502
 20
10.1947142854
 10
270.150856876
 20
10.2135077909
 10
270.0955203178
 20
10.3151273888
 10
269.9123862553
 20
10.9769586857
  0
ARC
  5
35D
330
1F
100
AcDbEntity
  8
0
  6
Continuous
 62
     7
100
AcDbCircle
 10
162.8542888902
 20
20.9205559063
 30
0.0
 40
108.0535810920852
100
AcDbArc
 50
355.3335939845
 51
0.1686223006
  0
LWPOLYLINE
  5
35E
330
1F
100
AcDbEntity
  8
0
  6
Continuous
 62
     7
100
AcDbPolyline
 90
       12
 70
   128
 43
0.0
 10
253.5886764526
 20
13.5464226857
 10
253.4449899606
 20
13.2899643788
 10
253.3448402499
 20
13.2292583755
 10
253.2739652858
 20
13.2599126328
 10
253.2066559502
 20
13.3573528035
 10
253.0824952709
 20
13.7579388575
 10
252.9048672805
 20
15.0662015505
 10
252.7628965515
 20
17.2166870418
 10
252.6749065838
 20
19.5297983766
 10
252.6064651822
 20
22.4180210648
 10
252.5294671855
 20
29.0821916589
 10
252.5051732553
 20
37.7958876857
  0
LWPOLYLINE
  5
35F
330
1F
100
AcDbEntity
  8
0
  6
Continuous
 62
     7
100
AcDbPolyline
 90
        8
 70
   128
 43
0.0
 10
254.2476654053
 20
34.3826356857
 10
254.1700934122
 20
28.0878927478
 10
254.0665586272
 20
22.7389453604
 10
253.9417087763
 20
18.4772389426
 10
253.8498045149
 20
16.3288056133
 10
253.7518504527
 20
14.7562530673
 10
253.6616678867
 20
13.8810679691
 10
253.5887932553
 20
13.5464226857
  0
ARC
  5
360
330
1F
100
AcDbEntity
  8
0
  6
Continuous
 62
     7
100
AcDbCircle
 10
348.934456324
 20
21.2364627453
 30
0.0
 40
79.68542928069319
100
AcDbArc
 50
181.4909082148
 51
187.3973692287
  0
LWPOLYLINE
  5
361
330
1F
100
AcDbEntity
  8
0
  6
Continuous
 62
     7
100
AcDbPolyline
 90
        7
 70
   128
 43
0.0
 10
185.6895685196
 20
12.1299496857
 10
185.4946668663
 20
10.7064182187
 10
185.3422512367
 20
10.197916704
 10
185.3168929604
 20
10.1947142854
 10
185.2908269253
 20
10.2135077909
 10
185.2354909428
 20
10.3151273888
 10
185.0523682553
 20
10.9769586857
  0
ARC
  5
362
330
1F
100
AcDbEntity
  8
0
  6
Continuous
 62
     7
100
AcDbCircle
 10
78.0164427384
 20
20.9188616487
 30
0.0
 40
108.0313458996999
100
AcDbArc
 50
355.333532967
 51
0.1695555815
  0
LWPOLYLINE
  5
363
330
1F
100
AcDbEntity
  8
0
  6
Continuous
 62
     7
100
AcDbPolyline
 90
       12
 70
   128
 43
0.0
 10
168.7287092209
 20
13.5464226857
 10
168.5849681816
 20
13.2899643788
 10
168.4848157019
 20
13.2292583755
 10
168.4139390836
 20
13.2599126328
 10
168.3466284307
 20
13.3573528035
 10
168.2224660365
 20
13.7579388575
 10
168.0448374903
 20
15.0662015505
 10
167.9028683644
 20
17.2166870418
 10
167.8148806179
 20
19.5297983766
 10
167.7464418344
 20
22.4180210648
 10
167.6694482078
 20
29.0821916589
 10
167.6451562553
 20
37.7958876857
  0
LWPOLYLINE
  5
364
330
1F
100
AcDbEntity
  8
0
  6
Continuous
 62
     7
100
AcDbPolyline
 90
        8
 70
   128
 43
0.0
 10
169.3878173828
 20
34.3826356857
 10
169.3100632887
 20
28.0878927478
 10
169.2065215351
 20
22.7389453604
 10
169.0816707535
 20
18.4772389426
 10
168.9897691284
 20
16.3288056133
 10
168.891820248
 20
14.7562530673
 10
168.8016443209
 20
13.8810679691
 10
168.7287762553
 20
13.5464226857
  0
ARC
  5
365
330
1F
100
AcDbEntity
  8
0
  6
Continuous
 62
     7
100
AcDbCircle
 10
264.0321903744
 20
21.2336592836
 30
0.0
 40
79.64312171068454
100
AcDbArc
 50
181.4896828742
 51
187.399287047
  0
LWPOLYLINE
  5
366
330
1F
100
AcDbEntity
  8
0
  6
Continuous
 62
     7
100
AcDbPolyline
 90
        7
 70
   128
 43
0.0
 10
139.1088962555
 20
12.1299496857
 10
138.9138942707
 20
10.7064182187
 10
138.7614857809
 20
10.197916704
 10
138.7361280853
 20
10.1947142854
 10
138.7100623201
 20
10.2135077909
 10
138.6547257397
 20
10.3151273888
 10
138.4715912553
 20
10.9769586857
  0
ARC
  5
367
330
1F
100
AcDbEntity
  8
0
  6
Continuous
 62
     7
100
AcDbCircle
 10
31.4444835987
 20
20.9183556074
 30
0.0
 40
108.0225151035627
100
AcDbArc
 50
355.3334199395
 51
0.1698378512
  0
LWPOLYLINE
  5
368
330
1F
100
AcDbEntity
  8
0
  6
Continuous
 62
     7
100
AcDbPolyline
 90
       12
 70
   128
 43
0.0
 10
122.1479773521
 20
13.5464226857
 10
122.0041961816
 20
13.2899643788
 10
121.9040437019
 20
13.2292583755
 10
121.8331670836
 20
13.2599126328
 10
121.7658564307
 20
13.3573528035
 10
121.6416940365
 20
13.7579388575
 10
121.4640654903
 20
15.0662015505
 10
121.3220963644
 20
17.2166870418
 10
121.2341086179
 20
19.5297983766
 10
121.1656698344
 20
22.4180210648
 10
121.0886762078
 20
29.0821916589
 10
121.0643842553
 20
37.7958876857
  0
LWPOLYLINE
  5
369
330
1F
100
AcDbEntity
  8
0
  6
Continuous
 62
     7
100
AcDbPolyline
 90
        8
 70
   128
 43
0.0
 10
122.8070259094
 20
34.3826356857
 10
122.7292907507
 20
28.0878927478
 10
122.625749289
 20
22.7389453604
 10
122.5008986683
 20
18.4772389426
 10
122.4089970966
 20
16.3288056133
 10
122.3110482408
 20
14.7562530673
 10
122.2208723202
 20
13.8810679691
 10
122.1480042553
 20
13.5464226857
  0
ARC
  5
36A
330
1F
100
AcDbEntity
  8
0
  6
Continuous
 62
     7
100
AcDbCircle
 10
217.4602593109
 20
21.2342169236
 30
0.0
 40
79.6519801546804
100
AcDbArc
 50
181.4899184236
 51
187.3988640283
  0
LWPOLYLINE
  5
36B
330
1F
100
AcDbEntity
  8
0
  6
Continuous
 62
     7
100
AcDbPolyline
 90
        9
 70
   128
 43
0.0
 10
386.8780136108
 20
9.8568756857
 10
386.7242648592
 20
9.5410026557
 10
386.6221606303
 20
9.4170251232
 10
386.5827610507
 20
9.4003273149
 10
386.5454421265
 20
9.4064209336
 10
386.4760083031
 20
9.4902889464
 10
386.3578289178
 20
9.9274062978
 10
386.2689024648
 20
10.5506194925
 10
386.0961342553
 20
12.3477406857
  0
LWPOLYLINE
  5
36C
330
1F
100
AcDbEntity
  8
0
  6
Continuous
 62
     7
100
AcDbPolyline
 90
        8
 70
   128
 43
0.0
 10
387.5343799591
 20
32.5378616857
 10
387.4582453461
 20
25.5579407627
 10
387.3568932056
 20
19.7040314366
 10
387.2338728744
 20
15.0963343518
 10
387.1424984754
 20
12.7963127178
 10
387.0441996467
 20
11.1260577412
 10
386.9527626117
 20
10.2046186317
 10
386.8781442553
 20
9.8568756857
  0
ARC
  5
36D
330
1F
100
AcDbEntity
  8
0
  6
Continuous
 62
     7
100
AcDbCircle
 10
608.0670605215
 20
31.7291520749
 30
0.0
 40
205.5978143586948
100
AcDbArc
 50
179.0677035311
 51
184.6869396983
  0
LWPOLYLINE
  5
36E
330
1F
100
AcDbEntity
  8
0
  6
Continuous
 62
     7
100
AcDbPolyline
 90
       12
 70
   128
 43
0.0
 10
404.2353630066
 20
38.0722116857
 10
404.2176711938
 20
30.741418713
 10
404.1642749203
 20
24.909288466
 10
404.0707588611
 20
20.4785379509
 10
403.9028615151
 20
16.9233486623
 10
403.6654963178
 20
15.02033042
 10
403.5559057016
 20
14.6979519681
 10
403.4895648172
 20
14.607757845
 10
403.43487731
 20
14.5811213712
 10
403.3699477027
 20
14.5970816702
 10
403.3020071567
 20
14.6611831151
 10
403.1568912553
 20
14.9294816857
  0
LWPOLYLINE
  5
36F
330
1F
100
AcDbEntity
  8
0
  6
Continuous
 62
     7
100
AcDbPolyline
 90
        6
 70
   128
 43
0.0
 10
386.0960006714
 20
12.3477406857
 10
386.0058875386
 20
14.3088684679
 10
385.9263068243
 20
17.7529991933
 10
385.861447846
 20
22.3577305698
 10
385.8095770723
 20
28.836178387
 10
385.7907702553
 20
35.9511136857
  0
LWPOLYLINE
  5
370
330
1F
100
AcDbEntity
  8
0
  6
Continuous
 62
     7
100
AcDbPolyline
 90
        9
 70
   128
 43
0.0
 10
346.7540740967
 20
9.8568756857
 10
346.6002246391
 20
9.5410026557
 10
346.4981231459
 20
9.4170251232
 10
346.4587249086
 20
9.4003273149
 10
346.4214073577
 20
9.4064209336
 10
346.3519761691
 20
9.4902889464
 10
346.2338000832
 20
9.9274062978
 10
346.1448732221
 20
10.5506194925
 10
345.9720932553
 20
12.3477406857
  0
LWPOLYLINE
  5
371
330
1F
100
AcDbEntity
  8
0
  6
Continuous
 62
     7
100
AcDbPolyline
 90
        8
 70
   128
 43
0.0
 10
347.4102020264
 20
32.5378616857
 10
347.3342037165
 20
25.5579407627
 10
347.2328516454
 20
19.7040314366
 10
347.1098311997
 20
15.0963343518
 10
347.0184566811
 20
12.7963127178
 10
346.9201577374
 20
11.1260577412
 10
346.8287206316
 20
10.2046186317
 10
346.7541022553
 20
9.8568756857
  0
ARC
  5
372
330
1F
100
AcDbEntity
  8
0
  6
Continuous
 62
     7
100
AcDbCircle
 10
567.8638687561
 20
31.727599832
 30
0.0
 40
205.5187003472685
100
AcDbArc
 50
179.0669118124
 51
184.688313767
  0
LWPOLYLINE
  5
373
330
1F
100
AcDbEntity
  8
0
  6
Continuous
 62
     7
100
AcDbPolyline
 90
       12
 70
   128
 43
0.0
 10
364.1114234924
 20
38.0722116857
 10
364.0936566505
 20
30.741418713
 10
364.0402563947
 20
24.909288466
 10
363.9467348855
 20
20.4785379509
 10
363.7788305534
 20
16.9233486623
 10
363.5414592709
 20
15.02033042
 10
363.4318669142
 20
14.6979519681
 10
363.3655252435
 20
14.607757845
 10
363.310837226
 20
14.5811213712
 10
363.2459071638
 20
14.5970816702
 10
363.1779663063
 20
14.6611831151
 10
363.0328502553
 20
14.9294816857
  0
LWPOLYLINE
  5
374
330
1F
100
AcDbEntity
  8
0
  6
Continuous
 62
     7
100
AcDbPolyline
 90
        6
 70
   128
 43
0.0
 10
345.9718227386
 20
12.3477406857
 10
345.8818464471
 20
14.3088684679
 10
345.8022655103
 20
17.7529991933
 10
345.7374062564
 20
22.3577305698
 10
345.6855351962
 20
28.836178387
 10
345.6667282553
 20
35.9511136857
  0
LWPOLYLINE
  5
375
330
1F
100
AcDbEntity
  8
0
  6
Continuous
 62
     7
100
AcDbPolyline
 90
       12
 70
   128
 43
0.0
 10
305.881023407
 20
17.8404906857
 10
305.7218837899
 20
14.1616336046
 10
305.5211285398
 20
11.4718621752
 10
305.3195808604
 20
9.9594379304
 10
305.150465278
 20
9.3536944139
 10
305.0758567066
 20
9.2549944967
 10
305.019465447
 20
9.2460428591
 10
304.9662051956
 20
9.2890509815
 10
304.9242908219
 20
9.3581049389
 10
304.8494783022
 20
9.5592887638
 10
304.6503476205
 20
10.6061147032
 10
304.4594342553
 20
12.4074866857
  0
LWPOLYLINE
  5
376
330
1F
100
AcDbEntity
  8
0
  6
Continuous
 62
     7
100
AcDbPolyline
 90
        7
 70
   128
 43
0.0
 10
310.5890750885
 20
15.6054596857
 10
310.5557912575
 20
15.645763658
 10
310.5282532583
 20
15.7050666463
 10
310.4766790591
 20
15.8684239883
 10
310.3787746507
 20
16.3291392977
 10
310.1959199897
 20
17.6098027723
 10
309.9035572553
 20
20.8959976857
  0
LWPOLYLINE
  5
377
330
1F
100
AcDbEntity
  8
0
  6
Continuous
 62
     7
100
AcDbPolyline
 90
        8
 70
   128
 43
0.0
 10
311.5351200104
 20
24.6975306857
 10
311.445052974
 20
21.3917862325
 10
311.2194675053
 20
18.4103465607
 10
310.9152374115
 20
16.2994812013
 10
310.7776849557
 20
15.8039270535
 10
310.6696552773
 20
15.6162618392
 10
310.6292173616
 20
15.5960574055
 10
310.5892162553
 20
15.6054596857
  0
ARC
  5
378
330
1F
100
AcDbEntity
  8
0
  6
Continuous
 62
     7
100
AcDbCircle
 10
440.4707111582
 20
21.4558923959
 30
0.0
 40
136.3122642154134
100
AcDbArc
 50
179.8197808459
 51
183.8060914691
  0
LWPOLYLINE
  5
379
330
1F
100
AcDbEntity
  8
0
  6
Continuous
 62
     7
100
AcDbPolyline
 90
        9
 70
   128
 43
0.0
 10
323.2226371765
 20
9.5933646857
 10
322.9707330365
 20
8.9726387794
 10
322.9285658023
 20
8.9260607232
 10
322.8973784723
 20
8.9118628687
 10
322.8637185817
 20
8.9205291352
 10
322.831649915
 20
8.9564709606
 10
322.7198020762
 20
9.3521873335
 10
322.6336526724
 20
9.9755917489
 10
322.4561802553
 20
11.8536256857
  0
LWPOLYLINE
  5
37A
330
1F
100
AcDbEntity
  8
0
  6
Continuous
 62
     7
100
AcDbPolyline
 90
        8
 70
   128
 43
0.0
 10
323.8706588745
 20
32.5378616857
 10
323.7929100235
 20
25.9076983992
 10
323.6875667561
 20
20.081364222
 10
323.5616080353
 20
15.303325797
 10
323.4705353143
 20
12.8428182096
 10
323.3754744543
 20
11.0157211036
 10
323.2900980245
 20
9.9876455188
 10
323.2228092553
 20
9.5933646857
  0
LWPOLYLINE
  5
37B
330
1F
100
AcDbEntity
  8
0
  6
Continuous
 62
     7
100
AcDbPolyline
 90
       13
 70
   128
 43
0.0
 10
340.2800559998
 20
15.1277136857
 10
340.0311104408
 20
13.0943308966
 10
339.912857028
 20
12.5742207218
 10
339.8485858149
 20
12.4259015816
 10
339.7991039272
 20
12.3808897482
 10
339.7576546612
 20
12.3919840036
 10
339.7168836402
 20
12.4484116336
 10
339.5850230178
 20
12.9678536605
 10
339.4871938649
 20
13.7295099445
 10
339.2850403397
 20
16.6000022293
 10
339.1130968637
 20
21.0233677639
 10
338.9740372359
 20
26.9630858241
 10
338.8705352553
 20
34.3826356857
  0
ARC
  5
37C
330
1F
100
AcDbEntity
  8
0
  6
Continuous
 62
     7
100
AcDbCircle
 10
-137.0414075579
 20
32.8665506112
 30
0.0
 40
477.6510897855852
100
AcDbArc
 50
357.8716802194
 51
0.5137993431
  0
LWPOLYLINE
  5
37D
330
1F
100
AcDbEntity
  8
0
  6
Continuous
 62
     7
100
AcDbPolyline
 90
        6
 70
   128
 43
0.0
 10
322.4558830261
 20
11.8536256857
 10
322.3644210641
 20
13.8356677061
 10
322.2835303762
 20
17.3196735696
 10
322.2176042204
 20
21.9793795395
 10
322.1648802999
 20
28.5367511324
 10
322.1457642553
 20
35.7398986857
  0
LWPOLYLINE
  5
37E
330
1F
100
AcDbEntity
  8
0
  6
Continuous
 62
     7
100
AcDbPolyline
 90
       12
 70
   128
 43
0.0
 10
434.0770244598
 20
18.4507946857
 10
433.9014080924
 20
14.4901229728
 10
433.6960626199
 20
11.5426749007
 10
433.519868711
 20
9.9665409516
 10
433.3353914655
 20
9.0648433263
 10
433.2642589897
 20
8.9038669692
 10
433.19280585
 20
8.8439176412
 10
433.157033536
 20
8.8521937324
 10
433.1212704616
 20
8.8861653238
 10
433.0498912397
 20
9.0317799982
 10
432.8399943572
 20
10.0936478692
 10
432.6816822553
 20
11.6024466857
  0
LWPOLYLINE
  5
37F
330
1F
100
AcDbEntity
  8
0
  6
Continuous
 62
     7
100
AcDbPolyline
 90
        7
 70
   128
 43
0.0
 10
449.7377872467
 20
15.6006606857
 10
449.6549416815
 20
16.0065198694
 10
449.5910713363
 20
16.6065129536
 10
449.4810785144
 20
18.2569829333
 10
449.3032529397
 20
22.8807015415
 10
449.1726184728
 20
28.58408848
 10
449.0770992553
 20
35.5150226857
  0
LWPOLYLINE
  5
380
330
1F
100
AcDbEntity
  8
0
  6
Continuous
 62
     7
100
AcDbPolyline
 90
       12
 70
   128
 43
0.0
 10
450.8159160614
 20
38.5128156857
 10
450.7980663001
 20
31.2636115569
 10
450.7444418759
 20
25.4915264523
 10
450.650676705
 20
21.1024797745
 10
450.482604799
 20
17.5772508067
 10
450.2453606147
 20
15.6884070294
 10
450.1359293913
 20
15.3683609957
 10
450.0697108578
 20
15.2789184569
 10
450.0151375502
 20
15.2526349864
 10
449.9503581356
 20
15.2687761819
 10
449.8825906515
 20
15.3328584127
 10
449.7378942553
 20
15.6006606857
  0
ARC
  5
381
330
1F
100
AcDbEntity
  8
0
  6
Continuous
 62
     7
100
AcDbCircle
 10
576.4613761675
 20
21.0697298621
 30
0.0
 40
144.0909305956342
100
AcDbArc
 50
179.7758467663
 51
183.7672489549
  0
LINE
  5
42C
330
1F
100
AcDbEntity
  8
0
  6
Continuous
 62
     7
370
    15
100
AcDbLine
 10
533.360201
 20
49.205969
 30
0.0
 11
533.360201
 21
64.599998
 31
0.0
  0
LINE
  5
42D
330
1F
100
AcDbEntity
  8
0
  6
Continuous
 62
     7
370
    15
100
AcDbLine
 10
538.359853
 20
49.205969
 30
0.0
 11
533.360201
 21
49.205969
 31
0.0
  0
LINE
  5
42E
330
1F
100
AcDbEntity
  8
0
  6
Continuous
 62
     7
370
    15
100
AcDbLine
 10
538.359853
 20
40.916707
 30
0.0
 11
538.359853
 21
49.205969
 31
0.0
  0
LINE
  5
42F
330
1F
100
AcDbEntity
  8
0
  6
Continuous
 62
     7
370
    15
100
AcDbLine
 10
533.360201
 20
40.916707
 30
0.0
 11
538.359853
 21
40.916707
 31
0.0
  0
LINE
  5
430
330
1F
100
AcDbEntity
  8
0
  6
Continuous
 62
     7
370
    15
100
AcDbLine
 10
533.360201
 20
32.813605
 30
0.0
 11
533.360201
 21
40.916707
 31
0.0
  0
LINE
  5
431
330
1F
100
AcDbEntity
  8
0
  6
Continuous
 62
     7
370
    15
100
AcDbLine
 10
538.359853
 20
32.813605
 30
0.0
 11
533.360201
 21
32.813605
 31
0.0
  0
LINE
  5
432
330
1F
100
AcDbEntity
  8
0
  6
Continuous
 62
     7
370
    15
100
AcDbLine
 10
538.359853
 20
24.524345
 30
0.0
 11
538.359853
 21
32.813605
 31
0.0
  0
LINE
  5
433
330
1F
100
AcDbEntity
  8
0
  6
Continuous
 62
     7
370
    15
100
AcDbLine
 10
533.360201
 20
24.524345
 30
0.0
 11
538.359853
 21
24.524345
 31
0.0
  0
LINE
  5
434
330
1F
100
AcDbEntity
  8
0
  6
Continuous
 62
     7
370
    15
100
AcDbLine
 10
533.360201
 20
16.435068
 30
0.0
 11
533.360201
 21
24.524345
 31
0.0
  0
LINE
  5
435
330
1F
100
AcDbEntity
  8
0
  6
Continuous
 62
     7
370
    15
100
AcDbLine
 10
538.359853
 20
16.435068
 30
0.0
 11
533.360201
 21
16.435068
 31
0.0
  0
LINE
  5
436
330
1F
100
AcDbEntity
  8
0
  6
Continuous
 62
     7
370
    15
100
AcDbLine
 10
538.359853
 20
8.145808
 30
0.0
 11
538.359853
 21
16.435068
 31
0.0
  0
LINE
  5
437
330
1F
100
AcDbEntity
  8
0
  6
Continuous
 62
     7
370
    15
100
AcDbLine
 10
533.360201
 20
8.145808
 30
0.0
 11
538.359853
 21
8.145808
 31
0.0
  0
LINE
  5
438
330
1F
100
AcDbEntity
  8
0
  6
Continuous
 62
     7
370
    15
100
AcDbLine
 10
533.360201
 20
0.0
 30
0.0
 11
533.360201
 21
8.145808
 31
0.0
  0
LINE
  5
439
330
1F
100
AcDbEntity
  8
0
  6
Continuous
 62
     7
370
    15
100
AcDbLine
 10
524.741445
 20
0.0
 30
0.0
 11
533.360201
 21
0.0
 31
0.0
  0
LINE
  5
43A
330
1F
100
AcDbEntity
  8
0
  6
Continuous
 62
     7
370
    15
100
AcDbLine
 10
524.741445
 20
3.000022
 30
0.0
 11
524.741445
 21
0.0
 31
0.0
  0
LINE
  5
43B
330
1F
100
AcDbEntity
  8
0
  6
Continuous
 62
     7
370
    15
100
AcDbLine
 10
517.37299
 20
3.000022
 30
0.0
 11
524.741445
 21
3.000022
 31
0.0
  0
LINE
  5
43C
330
1F
100
AcDbEntity
  8
0
  6
Continuous
 62
     7
370
    15
100
AcDbLine
 10
517.37299
 20
0.0
 30
0.0
 11
517.37299
 21
3.000022
 31
0.0
  0
LINE
  5
43D
330
1F
100
AcDbEntity
  8
0
  6
Continuous
 62
     7
370
    15
100
AcDbLine
 10
509.804495
 20
0.0
 30
0.0
 11
517.37299
 21
0.0
 31
0.0
  0
LINE
  5
43E
330
1F
100
AcDbEntity
  8
0
  6
Continuous
 62
     7
370
    15
100
AcDbLine
 10
509.804495
 20
3.000022
 30
0.0
 11
509.804495
 21
0.0
 31
0.0
  0
LINE
  5
43F
330
1F
100
AcDbEntity
  8
0
  6
Continuous
 62
     7
370
    15
100
AcDbLine
 10
502.436379
 20
3.000022
 30
0.0
 11
509.804495
 21
3.000022
 31
0.0
  0
LINE
  5
440
330
1F
100
AcDbEntity
  8
0
  6
Continuous
 62
     7
370
    15
100
AcDbLine
 10
502.436379
 20
0.0
 30
0.0
 11
502.436379
 21
3.000022
 31
0.0
  0
LINE
  5
441
330
1F
100
AcDbEntity
  8
0
  6
Continuous
 62
     7
370
    15
100
AcDbLine
 10
494.867884
 20
0.0
 30
0.0
 11
502.436379
 21
0.0
 31
0.0
  0
LINE
  5
442
330
1F
100
AcDbEntity
  8
0
  6
Continuous
 62
     7
370
    15
100
AcDbLine
 10
494.867884
 20
3.000022
 30
0.0
 11
494.867884
 21
0.0
 31
0.0
  0
LINE
  5
443
330
1F
100
AcDbEntity
  8
0
  6
Continuous
 62
     7
370
    15
100
AcDbLine
 10
487.499401
 20
3.000022
 30
0.0
 11
494.867884
 21
3.000022
 31
0.0
  0
LINE
  5
444
330
1F
100
AcDbEntity
  8
0
  6
Continuous
 62
     7
370
    15
100
AcDbLine
 10
487.499401
 20
0.0
 30
0.0
 11
487.499401
 21
3.000022
 31
0.0
  0
LINE
  5
445
330
1F
100
AcDbEntity
  8
0
  6
Continuous
 62
     7
370
    15
100
AcDbLine
 10
479.930906
 20
0.0
 30
0.0
 11
487.499401
 21
0.0
 31
0.0
  0
LINE
  5
446
330
1F
100
AcDbEntity
  8
0
  6
Continuous
 62
     7
370
    15
100
AcDbLine
 10
479.930906
 20
3.000022
 30
0.0
 11
479.930906
 21
0.0
 31
0.0
  0
LINE
  5
447
330
1F
100
AcDbEntity
  8
0
  6
Continuous
 62
     7
370
    15
100
AcDbLine
 10
472.562451
 20
3.000022
 30
0.0
 11
479.930906
 21
3.000022
 31
0.0
  0
LINE
  5
448
330
1F
100
AcDbEntity
  8
0
  6
Continuous
 62
     7
370
    15
100
AcDbLine
 10
472.562451
 20
0.0
 30
0.0
 11
472.562451
 21
3.000022
 31
0.0
  0
LINE
  5
449
330
1F
100
AcDbEntity
  8
0
  6
Continuous
 62
     7
370
    15
100
AcDbLine
 10
464.993957
 20
0.0
 30
0.0
 11
472.562451
 21
0.0
 31
0.0
  0
LINE
  5
44A
330
1F
100
AcDbEntity
  8
0
  6
Continuous
 62
     7
370
    15
100
AcDbLine
 10
464.993957
 20
3.000022
 30
0.0
 11
464.993957
 21
0.0
 31
0.0
  0
LINE
  5
44B
330
1F
100
AcDbEntity
  8
0
  6
Continuous
 62
     7
370
    15
100
AcDbLine
 10
457.625473
 20
3.000022
 30
0.0
 11
464.993957
 21
3.000022
 31
0.0
  0
LINE
  5
44C
330
1F
100
AcDbEntity
  8
0
  6
Continuous
 62
     7
370
    15
100
AcDbLine
 10
457.625473
 20
0.0
 30
0.0
 11
457.625473
 21
3.000022
 31
0.0
  0
LINE
  5
44D
330
1F
100
AcDbEntity
  8
0
  6
Continuous
 62
     7
370
    15
100
AcDbLine
 10
450.056979
 20
0.0
 30
0.0
 11
457.625473
 21
0.0
 31
0.0
  0
LINE
  5
44E
330
1F
100
AcDbEntity
  8
0
  6
Continuous
 62
     7
370
    15
100
AcDbLine
 10
450.056979
 20
3.000022
 30
0.0
 11
450.056979
 21
0.0
 31
0.0
  0
LINE
  5
44F
330
1F
100
AcDbEntity
  8
0
  6
Continuous
 62
     7
370
    15
100
AcDbLine
 10
442.688523
 20
3.000022
 30
0.0
 11
450.056979
 21
3.000022
 31
0.0
  0
LINE
  5
450
330
1F
100
AcDbEntity
  8
0
  6
Continuous
 62
     7
370
    15
100
AcDbLine
 10
442.688523
 20
0.0
 30
0.0
 11
442.688523
 21
3.000022
 31
0.0
  0
LINE
  5
451
330
1F
100
AcDbEntity
  8
0
  6
Continuous
 62
     7
370
    15
100
AcDbLine
 10
435.120029
 20
0.0
 30
0.0
 11
442.688523
 21
0.0
 31
0.0
  0
LINE
  5
452
330
1F
100
AcDbEntity
  8
0
  6
Continuous
 62
     7
370
    15
100
AcDbLine
 10
435.120029
 20
3.000022
 30
0.0
 11
435.120029
 21
0.0
 31
0.0
  0
LINE
  5
453
330
1F
100
AcDbEntity
  8
0
  6
Continuous
 62
     7
370
    15
100
AcDbLine
 10
427.751545
 20
3.000022
 30
0.0
 11
435.120029
 21
3.000022
 31
0.0
  0
LINE
  5
454
330
1F
100
AcDbEntity
  8
0
  6
Continuous
 62
     7
370
    15
100
AcDbLine
 10
427.751545
 20
0.0
 30
0.0
 11
427.751545
 21
3.000022
 31
0.0
  0
LINE
  5
455
330
1F
100
AcDbEntity
  8
0
  6
Continuous
 62
     7
370
    15
100
AcDbLine
 10
420.183418
 20
0.0
 30
0.0
 11
427.751545
 21
0.0
 31
0.0
  0
LINE
  5
456
330
1F
100
AcDbEntity
  8
0
  6
Continuous
 62
     7
370
    15
100
AcDbLine
 10
420.183418
 20
3.000022
 30
0.0
 11
420.183418
 21
0.0
 31
0.0
  0
LINE
  5
457
330
1F
100
AcDbEntity
  8
0
  6
Continuous
 62
     7
370
    15
100
AcDbLine
 10
412.814934
 20
3.000022
 30
0.0
 11
420.183418
 21
3.000022
 31
0.0
  0
LINE
  5
458
330
1F
100
AcDbEntity
  8
0
  6
Continuous
 62
     7
370
    15
100
AcDbLine
 10
412.814934
 20
0.0
 30
0.0
 11
412.814934
 21
3.000022
 31
0.0
  0
LINE
  5
459
330
1F
100
AcDbEntity
  8
0
  6
Continuous
 62
     7
370
    15
100
AcDbLine
 10
405.24644
 20
0.0
 30
0.0
 11
412.814934
 21
0.0
 31
0.0
  0
LINE
  5
45A
330
1F
100
AcDbEntity
  8
0
  6
Continuous
 62
     7
370
    15
100
AcDbLine
 10
405.24644
 20
3.000022
 30
0.0
 11
405.24644
 21
0.0
 31
0.0
  0
LINE
  5
45B
330
1F
100
AcDbEntity
  8
0
  6
Continuous
 62
     7
370
    15
100
AcDbLine
 10
397.877984
 20
3.000022
 30
0.0
 11
405.24644
 21
3.000022
 31
0.0
  0
LINE
  5
45C
330
1F
100
AcDbEntity
  8
0
  6
Continuous
 62
     7
370
    15
100
AcDbLine
 10
397.877984
 20
0.0
 30
0.0
 11
397.877984
 21
3.000022
 31
0.0
  0
LINE
  5
45D
330
1F
100
AcDbEntity
  8
0
  6
Continuous
 62
     7
370
    15
100
AcDbLine
 10
390.30949
 20
0.0
 30
0.0
 11
397.877984
 21
0.0
 31
0.0
  0
LINE
  5
45E
330
1F
100
AcDbEntity
  8
0
  6
Continuous
 62
     7
370
    15
100
AcDbLine
 10
390.30949
 20
3.000022
 30
0.0
 11
390.30949
 21
0.0
 31
0.0
  0
LINE
  5
45F
330
1F
100
AcDbEntity
  8
0
  6
Continuous
 62
     7
370
    15
100
AcDbLine
 10
382.941006
 20
3.000022
 30
0.0
 11
390.30949
 21
3.000022
 31
0.0
  0
LINE
  5
460
330
1F
100
AcDbEntity
  8
0
  6
Continuous
 62
     7
370
    15
100
AcDbLine
 10
382.941006
 20
0.0
 30
0.0
 11
382.941006
 21
3.000022
 31
0.0
  0
LINE
  5
461
330
1F
100
AcDbEntity
  8
0
  6
Continuous
 62
     7
370
    15
100
AcDbLine
 10
375.372512
 20
0.0
 30
0.0
 11
382.941006
 21
0.0
 31
0.0
  0
LINE
  5
462
330
1F
100
AcDbEntity
  8
0
  6
Continuous
 62
     7
370
    15
100
AcDbLine
 10
375.372512
 20
3.000022
 30
0.0
 11
375.372512
 21
0.0
 31
0.0
  0
LINE
  5
463
330
1F
100
AcDbEntity
  8
0
  6
Continuous
 62
     7
370
    15
100
AcDbLine
 10
368.004057
 20
3.000022
 30
0.0
 11
375.372512
 21
3.000022
 31
0.0
  0
LINE
  5
464
330
1F
100
AcDbEntity
  8
0
  6
Continuous
 62
     7
370
    15
100
AcDbLine
 10
368.004057
 20
0.0
 30
0.0
 11
368.004057
 21
3.000022
 31
0.0
  0
LINE
  5
465
330
1F
100
AcDbEntity
  8
0
  6
Continuous
 62
     7
370
    15
100
AcDbLine
 10
360.435562
 20
0.0
 30
0.0
 11
368.004057
 21
0.0
 31
0.0
  0
LINE
  5
466
330
1F
100
AcDbEntity
  8
0
  6
Continuous
 62
     7
370
    15
100
AcDbLine
 10
360.435562
 20
3.000022
 30
0.0
 11
360.435562
 21
0.0
 31
0.0
  0
LINE
  5
467
330
1F
100
AcDbEntity
  8
0
  6
Continuous
 62
     7
370
    15
100
AcDbLine
 10
353.067079
 20
3.000022
 30
0.0
 11
360.435562
 21
3.000022
 31
0.0
  0
LINE
  5
468
330
1F
100
AcDbEntity
  8
0
  6
Continuous
 62
     7
370
    15
100
AcDbLine
 10
353.067079
 20
0.0
 30
0.0
 11
353.067079
 21
3.000022
 31
0.0
  0
LINE
  5
469
330
1F
100
AcDbEntity
  8
0
  6
Continuous
 62
     7
370
    15
100
AcDbLine
 10
345.498584
 20
0.0
 30
0.0
 11
353.067079
 21
0.0
 31
0.0
  0
LINE
  5
46A
330
1F
100
AcDbEntity
  8
0
  6
Continuous
 62
     7
370
    15
100
AcDbLine
 10
345.498584
 20
3.000022
 30
0.0
 11
345.498584
 21
0.0
 31
0.0
  0
LINE
  5
46B
330
1F
100
AcDbEntity
  8
0
  6
Continuous
 62
     7
370
    15
100
AcDbLine
 10
338.130129
 20
3.000022
 30
0.0
 11
345.498584
 21
3.000022
 31
0.0
  0
LINE
  5
46C
330
1F
100
AcDbEntity
  8
0
  6
Continuous
 62
     7
370
    15
100
AcDbLine
 10
338.130129
 20
0.0
 30
0.0
 11
338.130129
 21
3.000022
 31
0.0
  0
LINE
  5
46D
330
1F
100
AcDbEntity
  8
0
  6
Continuous
 62
     7
370
    15
100
AcDbLine
 10
330.561973
 20
0.0
 30
0.0
 11
338.130129
 21
0.0
 31
0.0
  0
LINE
  5
46E
330
1F
100
AcDbEntity
  8
0
  6
Continuous
 62
     7
370
    15
100
AcDbLine
 10
330.561973
 20
3.000022
 30
0.0
 11
330.561973
 21
0.0
 31
0.0
  0
LINE
  5
46F
330
1F
100
AcDbEntity
  8
0
  6
Continuous
 62
     7
370
    15
100
AcDbLine
 10
323.193518
 20
3.000022
 30
0.0
 11
330.561973
 21
3.000022
 31
0.0
  0
LINE
  5
470
330
1F
100
AcDbEntity
  8
0
  6
Continuous
 62
     7
370
    15
100
AcDbLine
 10
323.193518
 20
0.0
 30
0.0
 11
323.193518
 21
3.000022
 31
0.0
  0
LINE
  5
471
330
1F
100
AcDbEntity
  8
0
  6
Continuous
 62
     7
370
    15
100
AcDbLine
 10
315.625023
 20
0.0
 30
0.0
 11
323.193518
 21
0.0
 31
0.0
  0
LINE
  5
472
330
1F
100
AcDbEntity
  8
0
  6
Continuous
 62
     7
370
    15
100
AcDbLine
 10
315.625023
 20
3.000022
 30
0.0
 11
315.625023
 21
0.0
 31
0.0
  0
LINE
  5
473
330
1F
100
AcDbEntity
  8
0
  6
Continuous
 62
     7
370
    15
100
AcDbLine
 10
308.25654
 20
3.000022
 30
0.0
 11
315.625023
 21
3.000022
 31
0.0
  0
LINE
  5
474
330
1F
100
AcDbEntity
  8
0
  6
Continuous
 62
     7
370
    15
100
AcDbLine
 10
308.25654
 20
0.0
 30
0.0
 11
308.25654
 21
3.000022
 31
0.0
  0
LINE
  5
475
330
1F
100
AcDbEntity
  8
0
  6
Continuous
 62
     7
370
    15
100
AcDbLine
 10
300.688045
 20
0.0
 30
0.0
 11
308.25654
 21
0.0
 31
0.0
  0
LINE
  5
476
330
1F
100
AcDbEntity
  8
0
  6
Continuous
 62
     7
370
    15
100
AcDbLine
 10
300.688045
 20
3.000022
 30
0.0
 11
300.688045
 21
0.0
 31
0.0
  0
LINE
  5
477
330
1F
100
AcDbEntity
  8
0
  6
Continuous
 62
     7
370
    15
100
AcDbLine
 10
293.31959
 20
3.000022
 30
0.0
 11
300.688045
 21
3.000022
 31
0.0
  0
LINE
  5
478
330
1F
100
AcDbEntity
  8
0
  6
Continuous
 62
     7
370
    15
100
AcDbLine
 10
293.31959
 20
0.0
 30
0.0
 11
293.31959
 21
3.000022
 31
0.0
  0
LINE
  5
479
330
1F
100
AcDbEntity
  8
0
  6
Continuous
 62
     7
370
    15
100
AcDbLine
 10
285.751095
 20
0.0
 30
0.0
 11
293.31959
 21
0.0
 31
0.0
  0
LINE
  5
47A
330
1F
100
AcDbEntity
  8
0
  6
Continuous
 62
     7
370
    15
100
AcDbLine
 10
285.751095
 20
3.000022
 30
0.0
 11
285.751095
 21
0.0
 31
0.0
  0
LINE
  5
47B
330
1F
100
AcDbEntity
  8
0
  6
Continuous
 62
     7
370
    15
100
AcDbLine
 10
278.382612
 20
3.000022
 30
0.0
 11
285.751095
 21
3.000022
 31
0.0
  0
LINE
  5
47C
330
1F
100
AcDbEntity
  8
0
  6
Continuous
 62
     7
370
    15
100
AcDbLine
 10
278.382612
 20
0.0
 30
0.0
 11
278.382612
 21
3.000022
 31
0.0
  0
LINE
  5
47D
330
1F
100
AcDbEntity
  8
0
  6
Continuous
 62
     7
370
    15
100
AcDbLine
 10
270.814117
 20
0.0
 30
0.0
 11
278.382612
 21
0.0
 31
0.0
  0
LINE
  5
47E
330
1F
100
AcDbEntity
  8
0
  6
Continuous
 62
     7
370
    15
100
AcDbLine
 10
270.814117
 20
3.000022
 30
0.0
 11
270.814117
 21
0.0
 31
0.0
  0
LINE
  5
47F
330
1F
100
AcDbEntity
  8
0
  6
Continuous
 62
     7
370
    15
100
AcDbLine
 10
263.445662
 20
3.000022
 30
0.0
 11
270.814117
 21
3.000022
 31
0.0
  0
LINE
  5
480
330
1F
100
AcDbEntity
  8
0
  6
Continuous
 62
     7
370
    15
100
AcDbLine
 10
263.445662
 20
0.0
 30
0.0
 11
263.445662
 21
3.000022
 31
0.0
  0
LINE
  5
481
330
1F
100
AcDbEntity
  8
0
  6
Continuous
 62
     7
370
    15
100
AcDbLine
 10
255.877506
 20
0.0
 30
0.0
 11
263.445662
 21
0.0
 31
0.0
  0
LINE
  5
482
330
1F
100
AcDbEntity
  8
0
  6
Continuous
 62
     7
370
    15
100
AcDbLine
 10
255.877506
 20
3.000022
 30
0.0
 11
255.877506
 21
0.0
 31
0.0
  0
LINE
  5
483
330
1F
100
AcDbEntity
  8
0
  6
Continuous
 62
     7
370
    15
100
AcDbLine
 10
248.509051
 20
3.000022
 30
0.0
 11
255.877506
 21
3.000022
 31
0.0
  0
LINE
  5
484
330
1F
100
AcDbEntity
  8
0
  6
Continuous
 62
     7
370
    15
100
AcDbLine
 10
248.509051
 20
0.0
 30
0.0
 11
248.509051
 21
3.000022
 31
0.0
  0
LINE
  5
485
330
1F
100
AcDbEntity
  8
0
  6
Continuous
 62
     7
370
    15
100
AcDbLine
 10
240.940557
 20
0.0
 30
0.0
 11
248.509051
 21
0.0
 31
0.0
  0
LINE
  5
486
330
1F
100
AcDbEntity
  8
0
  6
Continuous
 62
     7
370
    15
100
AcDbLine
 10
240.940557
 20
3.000022
 30
0.0
 11
240.940557
 21
0.0
 31
0.0
  0
LINE
  5
487
330
1F
100
AcDbEntity
  8
0
  6
Continuous
 62
     7
370
    15
100
AcDbLine
 10
233.572073
 20
3.000022
 30
0.0
 11
240.940557
 21
3.000022
 31
0.0
  0
LINE
  5
488
330
1F
100
AcDbEntity
  8
0
  6
Continuous
 62
     7
370
    15
100
AcDbLine
 10
233.572073
 20
0.0
 30
0.0
 11
233.572073
 21
3.000022
 31
0.0
  0
LINE
  5
489
330
1F
100
AcDbEntity
  8
0
  6
Continuous
 62
     7
370
    15
100
AcDbLine
 10
226.003579
 20
0.0
 30
0.0
 11
233.572073
 21
0.0
 31
0.0
  0
LINE
  5
48A
330
1F
100
AcDbEntity
  8
0
  6
Continuous
 62
     7
370
    15
100
AcDbLine
 10
226.003579
 20
3.000022
 30
0.0
 11
226.003579
 21
0.0
 31
0.0
  0
LINE
  5
48B
330
1F
100
AcDbEntity
  8
0
  6
Continuous
 62
     7
370
    15
100
AcDbLine
 10
218.635123
 20
3.000022
 30
0.0
 11
226.003579
 21
3.000022
 31
0.0
  0
LINE
  5
48C
330
1F
100
AcDbEntity
  8
0
  6
Continuous
 62
     7
370
    15
100
AcDbLine
 10
218.635123
 20
0.0
 30
0.0
 11
218.635123
 21
3.000022
 31
0.0
  0
LINE
  5
48D
330
1F
100
AcDbEntity
  8
0
  6
Continuous
 62
     7
370
    15
100
AcDbLine
 10
211.066629
 20
0.0
 30
0.0
 11
218.635123
 21
0.0
 31
0.0
  0
LINE
  5
48E
330
1F
100
AcDbEntity
  8
0
  6
Continuous
 62
     7
370
    15
100
AcDbLine
 10
211.066629
 20
3.000022
 30
0.0
 11
211.066629
 21
0.0
 31
0.0
  0
LINE
  5
48F
330
1F
100
AcDbEntity
  8
0
  6
Continuous
 62
     7
370
    15
100
AcDbLine
 10
203.698145
 20
3.000022
 30
0.0
 11
211.066629
 21
3.000022
 31
0.0
  0
LINE
  5
490
330
1F
100
AcDbEntity
  8
0
  6
Continuous
 62
     7
370
    15
100
AcDbLine
 10
203.698145
 20
0.0
 30
0.0
 11
203.698145
 21
3.000022
 31
0.0
  0
LINE
  5
491
330
1F
100
AcDbEntity
  8
0
  6
Continuous
 62
     7
370
    15
100
AcDbLine
 10
196.129651
 20
0.0
 30
0.0
 11
203.698145
 21
0.0
 31
0.0
  0
LINE
  5
492
330
1F
100
AcDbEntity
  8
0
  6
Continuous
 62
     7
370
    15
100
AcDbLine
 10
196.129651
 20
3.000022
 30
0.0
 11
196.129651
 21
0.0
 31
0.0
  0
LINE
  5
493
330
1F
100
AcDbEntity
  8
0
  6
Continuous
 62
     7
370
    15
100
AcDbLine
 10
188.761195
 20
3.000022
 30
0.0
 11
196.129651
 21
3.000022
 31
0.0
  0
LINE
  5
494
330
1F
100
AcDbEntity
  8
0
  6
Continuous
 62
     7
370
    15
100
AcDbLine
 10
188.761195
 20
0.0
 30
0.0
 11
188.761195
 21
3.000022
 31
0.0
  0
LINE
  5
495
330
1F
100
AcDbEntity
  8
0
  6
Continuous
 62
     7
370
    15
100
AcDbLine
 10
181.192701
 20
0.0
 30
0.0
 11
188.761195
 21
0.0
 31
0.0
  0
LINE
  5
496
330
1F
100
AcDbEntity
  8
0
  6
Continuous
 62
     7
370
    15
100
AcDbLine
 10
181.192701
 20
3.000022
 30
0.0
 11
181.192701
 21
0.0
 31
0.0
  0
LINE
  5
497
330
1F
100
AcDbEntity
  8
0
  6
Continuous
 62
     7
370
    15
100
AcDbLine
 10
173.824217
 20
3.000022
 30
0.0
 11
181.192701
 21
3.000022
 31
0.0
  0
LINE
  5
498
330
1F
100
AcDbEntity
  8
0
  6
Continuous
 62
     7
370
    15
100
AcDbLine
 10
173.824217
 20
0.0
 30
0.0
 11
173.824217
 21
3.000022
 31
0.0
  0
LINE
  5
499
330
1F
100
AcDbEntity
  8
0
  6
Continuous
 62
     7
370
    15
100
AcDbLine
 10
166.25609
 20
0.0
 30
0.0
 11
173.824217
 21
0.0
 31
0.0
  0
LINE
  5
49A
330
1F
100
AcDbEntity
  8
0
  6
Continuous
 62
     7
370
    15
100
AcDbLine
 10
166.25609
 20
3.000022
 30
0.0
 11
166.25609
 21
0.0
 31
0.0
  0
LINE
  5
49B
330
1F
100
AcDbEntity
  8
0
  6
Continuous
 62
     7
370
    15
100
AcDbLine
 10
158.887606
 20
3.000022
 30
0.0
 11
166.25609
 21
3.000022
 31
0.0
  0
LINE
  5
49C
330
1F
100
AcDbEntity
  8
0
  6
Continuous
 62
     7
370
    15
100
AcDbLine
 10
158.887606
 20
0.0
 30
0.0
 11
158.887606
 21
3.000022
 31
0.0
  0
LINE
  5
49D
330
1F
100
AcDbEntity
  8
0
  6
Continuous
 62
     7
370
    15
100
AcDbLine
 10
151.319112
 20
0.0
 30
0.0
 11
158.887606
 21
0.0
 31
0.0
  0
LINE
  5
49E
330
1F
100
AcDbEntity
  8
0
  6
Continuous
 62
     7
370
    15
100
AcDbLine
 10
151.319112
 20
3.000022
 30
0.0
 11
151.319112
 21
0.0
 31
0.0
  0
LINE
  5
49F
330
1F
100
AcDbEntity
  8
0
  6
Continuous
 62
     7
370
    15
100
AcDbLine
 10
143.950657
 20
3.000022
 30
0.0
 11
151.319112
 21
3.000022
 31
0.0
  0
LINE
  5
4A0
330
1F
100
AcDbEntity
  8
0
  6
Continuous
 62
     7
370
    15
100
AcDbLine
 10
143.950657
 20
0.0
 30
0.0
 11
143.950657
 21
3.000022
 31
0.0
  0
LINE
  5
4A1
330
1F
100
AcDbEntity
  8
0
  6
Continuous
 62
     7
370
    15
100
AcDbLine
 10
136.382162
 20
0.0
 30
0.0
 11
143.950657
 21
0.0
 31
0.0
  0
LINE
  5
4A2
330
1F
100
AcDbEntity
  8
0
  6
Continuous
 62
     7
370
    15
100
AcDbLine
 10
136.382162
 20
3.000022
 30
0.0
 11
136.382162
 21
0.0
 31
0.0
  0
LINE
  5
4A3
330
1F
100
AcDbEntity
  8
0
  6
Continuous
 62
     7
370
    15
100
AcDbLine
 10
129.013687
 20
3.000022
 30
0.0
 11
136.382162
 21
3.000022
 31
0.0
  0
LINE
  5
4A4
330
1F
100
AcDbEntity
  8
0
  6
Continuous
 62
     7
370
    15
100
AcDbLine
 10
129.013687
 20
0.0
 30
0.0
 11
129.013687
 21
3.000022
 31
0.0
  0
LINE
  5
4A5
330
1F
100
AcDbEntity
  8
0
  6
Continuous
 62
     7
370
    15
100
AcDbLine
 10
121.445193
 20
0.0
 30
0.0
 11
129.013687
 21
0.0
 31
0.0
  0
LINE
  5
4A6
330
1F
100
AcDbEntity
  8
0
  6
Continuous
 62
     7
370
    15
100
AcDbLine
 10
121.445193
 20
3.000022
 30
0.0
 11
121.445193
 21
0.0
 31
0.0
  0
LINE
  5
4A7
330
1F
100
AcDbEntity
  8
0
  6
Continuous
 62
     7
370
    15
100
AcDbLine
 10
114.076723
 20
3.000022
 30
0.0
 11
121.445193
 21
3.000022
 31
0.0
  0
LINE
  5
4A8
330
1F
100
AcDbEntity
  8
0
  6
Continuous
 62
     7
370
    15
100
AcDbLine
 10
114.076723
 20
0.0
 30
0.0
 11
114.076723
 21
3.000022
 31
0.0
  0
LINE
  5
4A9
330
1F
100
AcDbEntity
  8
0
  6
Continuous
 62
     7
370
    15
100
AcDbLine
 10
106.508229
 20
0.0
 30
0.0
 11
114.076723
 21
0.0
 31
0.0
  0
LINE
  5
4AA
330
1F
100
AcDbEntity
  8
0
  6
Continuous
 62
     7
370
    15
100
AcDbLine
 10
106.508229
 20
3.000022
 30
0.0
 11
106.508229
 21
0.0
 31
0.0
  0
LINE
  5
4AB
330
1F
100
AcDbEntity
  8
0
  6
Continuous
 62
     7
370
    15
100
AcDbLine
 10
99.139759
 20
3.000022
 30
0.0
 11
106.508229
 21
3.000022
 31
0.0
  0
LINE
  5
4AC
330
1F
100
AcDbEntity
  8
0
  6
Continuous
 62
     7
370
    15
100
AcDbLine
 10
99.139759
 20
0.0
 30
0.0
 11
99.139759
 21
3.000022
 31
0.0
  0
LINE
  5
4AD
330
1F
100
AcDbEntity
  8
0
  6
Continuous
 62
     7
370
    15
100
AcDbLine
 10
91.571265
 20
0.0
 30
0.0
 11
99.139759
 21
0.0
 31
0.0
  0
LINE
  5
4AE
330
1F
100
AcDbEntity
  8
0
  6
Continuous
 62
     7
370
    15
100
AcDbLine
 10
91.571265
 20
3.000022
 30
0.0
 11
91.571265
 21
0.0
 31
0.0
  0
LINE
  5
4AF
330
1F
100
AcDbEntity
  8
0
  6
Continuous
 62
     7
370
    15
100
AcDbLine
 10
84.203148
 20
3.000022
 30
0.0
 11
91.571265
 21
3.000022
 31
0.0
  0
LINE
  5
4B0
330
1F
100
AcDbEntity
  8
0
  6
Continuous
 62
     7
370
    15
100
AcDbLine
 10
84.203148
 20
0.0
 30
0.0
 11
84.203148
 21
3.000022
 31
0.0
  0
LINE
  5
4B1
330
1F
100
AcDbEntity
  8
0
  6
Continuous
 62
     7
370
    15
100
AcDbLine
 10
76.634513
 20
0.0
 30
0.0
 11
84.203148
 21
0.0
 31
0.0
  0
LINE
  5
4B2
330
1F
100
AcDbEntity
  8
0
  6
Continuous
 62
     7
370
    15
100
AcDbLine
 10
76.634513
 20
3.000022
 30
0.0
 11
76.634513
 21
0.0
 31
0.0
  0
LINE
  5
4B3
330
1F
100
AcDbEntity
  8
0
  6
Continuous
 62
     7
370
    15
100
AcDbLine
 10
69.26608
 20
3.000022
 30
0.0
 11
76.634513
 21
3.000022
 31
0.0
  0
LINE
  5
4B4
330
1F
100
AcDbEntity
  8
0
  6
Continuous
 62
     7
370
    15
100
AcDbLine
 10
69.26608
 20
0.0
 30
0.0
 11
69.26608
 21
3.000022
 31
0.0
  0
LINE
  5
4B5
330
1F
100
AcDbEntity
  8
0
  6
Continuous
 62
     7
370
    15
100
AcDbLine
 10
61.697619
 20
0.0
 30
0.0
 11
69.26608
 21
0.0
 31
0.0
  0
LINE
  5
4B6
330
1F
100
AcDbEntity
  8
0
  6
Continuous
 62
     7
370
    15
100
AcDbLine
 10
61.697619
 20
3.000022
 30
0.0
 11
61.697619
 21
0.0
 31
0.0
  0
LINE
  5
4B7
330
1F
100
AcDbEntity
  8
0
  6
Continuous
 62
     7
370
    15
100
AcDbLine
 10
54.329184
 20
3.000022
 30
0.0
 11
61.697619
 21
3.000022
 31
0.0
  0
LINE
  5
4B8
330
1F
100
AcDbEntity
  8
0
  6
Continuous
 62
     7
370
    15
100
AcDbLine
 10
54.329184
 20
0.0
 30
0.0
 11
54.329184
 21
3.000022
 31
0.0
  0
LINE
  5
4B9
330
1F
100
AcDbEntity
  8
0
  6
Continuous
 62
     7
370
    15
100
AcDbLine
 10
46.760726
 20
0.0
 30
0.0
 11
54.329184
 21
0.0
 31
0.0
  0
LINE
  5
4BA
330
1F
100
AcDbEntity
  8
0
  6
Continuous
 62
     7
370
    15
100
AcDbLine
 10
46.760726
 20
3.000022
 30
0.0
 11
46.760726
 21
0.0
 31
0.0
  0
LINE
  5
4BB
330
1F
100
AcDbEntity
  8
0
  6
Continuous
 62
     7
370
    15
100
AcDbLine
 10
39.392256
 20
3.000022
 30
0.0
 11
46.760726
 21
3.000022
 31
0.0
  0
LINE
  5
4BC
330
1F
100
AcDbEntity
  8
0
  6
Continuous
 62
     7
370
    15
100
AcDbLine
 10
39.392256
 20
0.0
 30
0.0
 11
39.392256
 21
3.000022
 31
0.0
  0
LINE
  5
4BD
330
1F
100
AcDbEntity
  8
0
  6
Continuous
 62
     7
370
    15
100
AcDbLine
 10
31.823833
 20
0.0
 30
0.0
 11
39.392256
 21
0.0
 31
0.0
  0
LINE
  5
4BE
330
1F
100
AcDbEntity
  8
0
  6
Continuous
 62
     7
370
    15
100
AcDbLine
 10
31.823833
 20
3.000022
 30
0.0
 11
31.823833
 21
0.0
 31
0.0
  0
LINE
  5
4BF
330
1F
100
AcDbEntity
  8
0
  6
Continuous
 62
     7
370
    15
100
AcDbLine
 10
24.455363
 20
3.000022
 30
0.0
 11
31.823833
 21
3.000022
 31
0.0
  0
LINE
  5
4C0
330
1F
100
AcDbEntity
  8
0
  6
Continuous
 62
     7
370
    15
100
AcDbLine
 10
24.455363
 20
0.0
 30
0.0
 11
24.455363
 21
3.000022
 31
0.0
  0
LINE
  5
4C1
330
1F
100
AcDbEntity
  8
0
  6
Continuous
 62
     7
370
    15
100
AcDbLine
 10
16.886903
 20
0.0
 30
0.0
 11
24.455363
 21
0.0
 31
0.0
  0
LINE
  5
4C2
330
1F
100
AcDbEntity
  8
0
  6
Continuous
 62
     7
370
    15
100
AcDbLine
 10
16.886903
 20
3.000022
 30
0.0
 11
16.886903
 21
0.0
 31
0.0
  0
LINE
  5
4C3
330
1F
100
AcDbEntity
  8
0
  6
Continuous
 62
     7
370
    15
100
AcDbLine
 10
9.51847
 20
3.000022
 30
0.0
 11
16.886903
 21
3.000022
 31
0.0
  0
LINE
  5
4C4
330
1F
100
AcDbEntity
  8
0
  6
Continuous
 62
     7
370
    15
100
AcDbLine
 10
9.51847
 20
0.0
 30
0.0
 11
9.51847
 21
3.000022
 31
0.0
  0
LINE
  5
4C5
330
1F
100
AcDbEntity
  8
0
  6
Continuous
 62
     7
370
    15
100
AcDbLine
 10
0.0
 20
0.0
 30
0.0
 11
9.51847
 21
0.0
 31
0.0
  0
LINE
  5
4C6
330
1F
100
AcDbEntity
  8
0
  6
Continuous
 62
     7
370
    15
100
AcDbLine
 10
0.0
 20
8.145806
 30
0.0
 11
0.0
 21
0.0
 31
0.0
  0
LINE
  5
4C7
330
1F
100
AcDbEntity
  8
0
  6
Continuous
 62
     7
370
    15
100
AcDbLine
 10
5.000021
 20
8.145806
 30
0.0
 11
0.0
 21
8.145806
 31
0.0
  0
LINE
  5
4C8
330
1F
100
AcDbEntity
  8
0
  6
Continuous
 62
     7
370
    15
100
AcDbLine
 10
5.000021
 20
16.435065
 30
0.0
 11
5.000021
 21
8.145806
 31
0.0
  0
LINE
  5
4C9
330
1F
100
AcDbEntity
  8
0
  6
Continuous
 62
     7
370
    15
100
AcDbLine
 10
0.0
 20
16.435065
 30
0.0
 11
5.000021
 21
16.435065
 31
0.0
  0
LINE
  5
4CA
330
1F
100
AcDbEntity
  8
0
  6
Continuous
 62
     7
370
    15
100
AcDbLine
 10
0.0
 20
24.524341
 30
0.0
 11
0.0
 21
16.435065
 31
0.0
  0
LINE
  5
4CB
330
1F
100
AcDbEntity
  8
0
  6
Continuous
 62
     7
370
    15
100
AcDbLine
 10
5.000021
 20
24.524341
 30
0.0
 11
0.0
 21
24.524341
 31
0.0
  0
LINE
  5
4CC
330
1F
100
AcDbEntity
  8
0
  6
Continuous
 62
     7
370
    15
100
AcDbLine
 10
5.000021
 20
32.813599
 30
0.0
 11
5.000021
 21
24.524341
 31
0.0
  0
LINE
  5
4CD
330
1F
100
AcDbEntity
  8
0
  6
Continuous
 62
     7
370
    15
100
AcDbLine
 10
0.0
 20
32.813599
 30
0.0
 11
5.000021
 21
32.813599
 31
0.0
  0
LINE
  5
4CE
330
1F
100
AcDbEntity
  8
0
  6
Continuous
 62
     7
370
    15
100
AcDbLine
 10
0.0
 20
40.873282
 30
0.0
 11
0.0
 21
32.813599
 31
0.0
  0
LINE
  5
4CF
330
1F
100
AcDbEntity
  8
0
  6
Continuous
 62
     7
370
    15
100
AcDbLine
 10
5.000021
 20
40.873282
 30
0.0
 11
0.0
 21
40.873282
 31
0.0
  0
LINE
  5
4D0
330
1F
100
AcDbEntity
  8
0
  6
Continuous
 62
     7
370
    15
100
AcDbLine
 10
5.000021
 20
49.179085
 30
0.0
 11
5.000021
 21
40.873282
 31
0.0
  0
LINE
  5
4D1
330
1F
100
AcDbEntity
  8
0
  6
Continuous
 62
     7
370
    15
100
AcDbLine
 10
0.0
 20
49.179085
 30
0.0
 11
5.000021
 21
49.179085
 31
0.0
  0
LINE
  5
4D2
330
1F
100
AcDbEntity
  8
0
  6
Continuous
 62
     7
370
    15
100
AcDbLine
 10
0.0
 20
57.23877
 30
0.0
 11
0.0
 21
49.179085
 31
0.0
  0
LINE
  5
4D3
330
1F
100
AcDbEntity
  8
0
  6
Continuous
 62
     7
370
    15
100
AcDbLine
 10
5.000021
 20
57.23877
 30
0.0
 11
0.0
 21
57.23877
 31
0.0
  0
LINE
  5
4D4
330
1F
100
AcDbEntity
  8
0
  6
Continuous
 62
     7
370
    15
100
AcDbLine
 10
5.000021
 20
64.599998
 30
0.0
 11
5.000021
 21
57.23877
 31
0.0
  0
LINE
  5
4D5
330
1F
100
AcDbEntity
  8
0
  6
Continuous
 62
     7
370
    15
100
AcDbLine
 10
533.360201
 20
64.599998
 30
0.0
 11
5.000021
 21
64.599998
 31
0.0
  0
ENDSEC
  0
SECTION
  2
OBJECTS
  0
DICTIONARY
  5
C
330
0
100
AcDbDictionary
281
     1
  3
ACAD_GROUP
350
D
  3
ACAD_LAYOUT
350
1A
  3
ACAD_MLINESTYLE
350
17
  3
ACAD_PLOTSETTINGS
350
19
  3
ACAD_PLOTSTYLENAME
350
E
  3
ACAD_SCALELIST
350
47
  0
DICTIONARY
  5
D
102
{ACAD_REACTORS
330
C
102
}
330
C
100
AcDbDictionary
281
     1
  0
DICTIONARY
  5
1A
102
{ACAD_REACTORS
330
C
102
}
330
C
100
AcDbDictionary
281
     1
  3
Layout1
350
1E
  3
Layout2
350
26
  3
Model
350
22
  0
DICTIONARY
  5
17
102
{ACAD_REACTORS
330
C
102
}
330
C
100
AcDbDictionary
281
     1
  3
Standard
350
18
  0
DICTIONARY
  5
19
102
{ACAD_REACTORS
330
C
102
}
330
C
100
AcDbDictionary
281
     1
  0
ACDBDICTIONARYWDFLT
  5
E
102
{ACAD_REACTORS
330
C
102
}
330
C
100
AcDbDictionary
281
     1
  3
Normal
350
F
100
AcDbDictionaryWithDefault
340
F
  0
DICTIONARY
  5
47
102
{ACAD_REACTORS
330
C
102
}
330
C
100
AcDbDictionary
281
     1
  3
A0
350
48
  3
A1
350
49
  3
A2
350
4A
  3
A3
350
4B
  3
A4
350
4C
  3
A5
350
4D
  3
A6
350
4E
  3
A7
350
4F
  3
A8
350
50
  3
A9
350
51
  3
B0
350
52
  3
B1
350
53
  3
B2
350
54
  3
B3
350
55
  3
B4
350
56
  3
B5
350
57
  3
B6
350
58
  3
B7
350
59
  3
B8
350
5A
  3
B9
350
5B
  3
C0
350
5C
  3
C1
350
5D
  3
C2
350
5E
  3
C3
350
5F
  3
C4
350
60
  3
C5
350
61
  3
C6
350
62
  3
C7
350
63
  3
C8
350
64
  3
C9
350
65
  3
D0
350
66
  3
D1
350
67
  3
D2
350
68
  0
LAYOUT
  5
1E
102
{ACAD_REACTORS
330
1A
102
}
330
1A
100
AcDbPlotSettings
  1

  2
none_device
  4

  6

 40
0.0
 41
0.0
 42
0.0
 43
0.0
 44
0.0
 45
0.0
 46
0.0
 47
0.0
 48
0.0
 49
0.0
140
0.0
141
0.0
142
1.0
143
1.0
 70
   688
 72
     1
 73
     0
 74
     5
  7

 75
    16
147
1.0
148
0.0
149
0.0
100
AcDbLayout
  1
Layout1
 70
     1
 71
     1
 10
0.0
 20
0.0
 11
420.0
 21
297.0
 12
0.0
 22
0.0
 32
0.0
 14
1.0000000000E+20
 24
1.0000000000E+20
 34
1.0000000000E+20
 15
-1.0000000000E+20
 25
-1.0000000000E+20
 35
-1.0000000000E+20
146
0.0
 13
0.0
 23
0.0
 33
0.0
 16
1.0
 26
0.0
 36
0.0
 17
0.0
 27
1.0
 37
0.0
 76
     0
330
1B
  0
LAYOUT
  5
26
102
{ACAD_REACTORS
330
1A
102
}
330
1A
100
AcDbPlotSettings
  1

  2
none_device
  4

  6

 40
0.0
 41
0.0
 42
0.0
 43
0.0
 44
0.0
 45
0.0
 46
0.0
 47
0.0
 48
0.0
 49
0.0
140
0.0
141
0.0
142
1.0
143
1.0
 70
   688
 72
     1
 73
     0
 74
     5
  7

 75
    16
147
1.0
148
0.0
149
0.0
100
AcDbLayout
  1
Layout2
 70
     1
 71
     2
 10
0.0
 20
0.0
 11
0.0
 21
0.0
 12
0.0
 22
0.0
 32
0.0
 14
0.0
 24
0.0
 34
0.0
 15
0.0
 25
0.0
 35
0.0
146
0.0
 13
0.0
 23
0.0
 33
0.0
 16
1.0
 26
0.0
 36
0.0
 17
0.0
 27
1.0
 37
0.0
 76
     0
330
23
  0
LAYOUT
  5
22
102
{ACAD_REACTORS
330
1A
102
}
330
1A
100
AcDbPlotSettings
  1

  2
none_device
  4
ANSI_A_(11.00_x_8.50_Inches)
  6

 40
6.35
 41
19.05
 42
6.35000508
 43
19.05000254
 44
279.4
 45
215.9
 46
-4.95300254
 47
72.3044567823
 48
0.0
 49
0.0
140
0.0
141
0.0
142
0.0202281057
143
1.0
 70
  1696
 72
     0
 73
     0
 74
     0
  7

 75
     0
147
0.0179189148
148
-1300.4909072572
149
0.0
100
AcDbLayout
  1
Model
 70
     1
 71
     0
 10
0.0
 20
0.0
 11
420.0
 21
297.0
 12
0.0
 22
0.0
 32
0.0
 14
0.0
 24
0.0
 34
0.0
 15
538.359853
 25
64.599998
 35
0.0
146
0.0
 13
0.0
 23
0.0
 33
0.0
 16
1.0
 26
0.0
 36
0.0
 17
0.0
 27
1.0
 37
0.0
 76
     0
330
1F
331
29
  0
MLINESTYLE
  5
18
102
{ACAD_REACTORS
330
17
102
}
330
17
100
AcDbMlineStyle
  2
Standard
 70
     0
  3

 62
   256
 51
90.0
 52
90.0
 71
     2
 49
0.5
 62
   256
  6
BYLAYER
 49
-0.5
 62
   256
  6
BYLAYER
  0
ACDBPLACEHOLDER
  5
F
102
{ACAD_REACTORS
330
E
102
}
330
E
  0
SCALE
  5
48
102
{ACAD_REACTORS
330
47
102
}
330
47
100
AcDbScale
 70
     0
300
1:1
140
1.0
141
1.0
290
     1
  0
SCALE
  5
49
102
{ACAD_REACTORS
330
47
102
}
330
47
100
AcDbScale
 70
     0
300
1:2
140
1.0
141
2.0
290
     0
  0
SCALE
  5
4A
102
{ACAD_REACTORS
330
47
102
}
330
47
100
AcDbScale
 70
     0
300
1:4
140
1.0
141
4.0
290
     0
  0
SCALE
  5
4B
102
{ACAD_REACTORS
330
47
102
}
330
47
100
AcDbScale
 70
     0
300
1:5
140
1.0
141
5.0
290
     0
  0
SCALE
  5
4C
102
{ACAD_REACTORS
330
47
102
}
330
47
100
AcDbScale
 70
     0
300
1:8
140
1.0
141
8.0
290
     0
  0
SCALE
  5
4D
102
{ACAD_REACTORS
330
47
102
}
330
47
100
AcDbScale
 70
     0
300
1:10
140
1.0
141
10.0
290
     0
  0
SCALE
  5
4E
102
{ACAD_REACTORS
330
47
102
}
330
47
100
AcDbScale
 70
     0
300
1:16
140
1.0
141
16.0
290
     0
  0
SCALE
  5
4F
102
{ACAD_REACTORS
330
47
102
}
330
47
100
AcDbScale
 70
     0
300
1:20
140
1.0
141
20.0
290
     0
  0
SCALE
  5
50
102
{ACAD_REACTORS
330
47
102
}
330
47
100
AcDbScale
 70
     0
300
1:30
140
1.0
141
30.0
290
     0
  0
SCALE
  5
51
102
{ACAD_REACTORS
330
47
102
}
330
47
100
AcDbScale
 70
     0
300
1:40
140
1.0
141
40.0
290
     0
  0
SCALE
  5
52
102
{ACAD_REACTORS
330
47
102
}
330
47
100
AcDbScale
 70
     0
300
1:50
140
1.0
141
50.0
290
     0
  0
SCALE
  5
53
102
{ACAD_REACTORS
330
47
102
}
330
47
100
AcDbScale
 70
     0
300
1:100
140
1.0
141
100.0
290
     0
  0
SCALE
  5
54
102
{ACAD_REACTORS
330
47
102
}
330
47
100
AcDbScale
 70
     0
300
2:1
140
2.0
141
1.0
290
     0
  0
SCALE
  5
55
102
{ACAD_REACTORS
330
47
102
}
330
47
100
AcDbScale
 70
     0
300
4:1
140
4.0
141
1.0
290
     0
  0
SCALE
  5
56
102
{ACAD_REACTORS
330
47
102
}
330
47
100
AcDbScale
 70
     0
300
8:1
140
8.0
141
1.0
290
     0
  0
SCALE
  5
57
102
{ACAD_REACTORS
330
47
102
}
330
47
100
AcDbScale
 70
     0
300
10:1
140
10.0
141
1.0
290
     0
  0
SCALE
  5
58
102
{ACAD_REACTORS
330
47
102
}
330
47
100
AcDbScale
 70
     0
300
100:1
140
100.0
141
1.0
290
     0
  0
SCALE
  5
59
102
{ACAD_REACTORS
330
47
102
}
330
47
100
AcDbScale
 70
     0
300
1/128" = 1'-0"
140
0.0078125
141
12.0
290
     0
  0
SCALE
  5
5A
102
{ACAD_REACTORS
330
47
102
}
330
47
100
AcDbScale
 70
     0
300
1/64" = 1'-0"
140
0.015625
141
12.0
290
     0
  0
SCALE
  5
5B
102
{ACAD_REACTORS
330
47
102
}
330
47
100
AcDbScale
 70
     0
300
1/32" = 1'-0"
140
0.03125
141
12.0
290
     0
  0
SCALE
  5
5C
102
{ACAD_REACTORS
330
47
102
}
330
47
100
AcDbScale
 70
     0
300
1/16" = 1'-0"
140
0.0625
141
12.0
290
     0
  0
SCALE
  5
5D
102
{ACAD_REACTORS
330
47
102
}
330
47
100
AcDbScale
 70
     0
300
3/32" = 1'-0"
140
0.09375
141
12.0
290
     0
  0
SCALE
  5
5E
102
{ACAD_REACTORS
330
47
102
}
330
47
100
AcDbScale
 70
     0
300
1/8" = 1'-0"
140
0.125
141
12.0
290
     0
  0
SCALE
  5
5F
102
{ACAD_REACTORS
330
47
102
}
330
47
100
AcDbScale
 70
     0
300
3/16" = 1'-0"
140
0.1875
141
12.0
290
     0
  0
SCALE
  5
60
102
{ACAD_REACTORS
330
47
102
}
330
47
100
AcDbScale
 70
     0
300
1/4" = 1'-0"
140
0.25
141
12.0
290
     0
  0
SCALE
  5
61
102
{ACAD_REACTORS
330
47
102
}
330
47
100
AcDbScale
 70
     0
300
3/8" = 1'-0"
140
0.375
141
12.0
290
     0
  0
SCALE
  5
62
102
{ACAD_REACTORS
330
47
102
}
330
47
100
AcDbScale
 70
     0
300
1/2" = 1'-0"
140
0.5
141
12.0
290
     0
  0
SCALE
  5
63
102
{ACAD_REACTORS
330
47
102
}
330
47
100
AcDbScale
 70
     0
300
3/4" = 1'-0"
140
0.75
141
12.0
290
     0
  0
SCALE
  5
64
102
{ACAD_REACTORS
330
47
102
}
330
47
100
AcDbScale
 70
     0
300
1" = 1'-0"
140
1.0
141
12.0
290
     0
  0
SCALE
  5
65
102
{ACAD_REACTORS
330
47
102
}
330
47
100
AcDbScale
 70
     0
300
1-1/2" = 1'-0"
140
1.5
141
12.0
290
     0
  0
SCALE
  5
66
102
{ACAD_REACTORS
330
47
102
}
330
47
100
AcDbScale
 70
     0
300
3" = 1'-0"
140
3.0
141
12.0
290
     0
  0
SCALE
  5
67
102
{ACAD_REACTORS
330
47
102
}
330
47
100
AcDbScale
 70
     0
300
6" = 1'-0"
140
6.0
141
12.0
290
     0
  0
SCALE
  5
68
102
{ACAD_REACTORS
330
47
102
}
330
47
100
AcDbScale
 70
     0
300
1'-0" = 1'-0"
140
12.0
141
12.0
290
     0
  0
ENDSEC
  0
EOF
