  0
SECTION
  2
HEADER
  9
$ACADVER
  1
AC1015
  9
$ACADMAINTVER
 70
     6
  9
$DWGCODEPAGE
  3
ANSI_1252
  9
$INSBASE
 10
0.0
 20
0.0
 30
0.0
  9
$EXTMIN
 10
-538.359861
 20
-64.599998
 30
0.0
  9
$EXTMAX
 10
0.0
 20
0.0
 30
0.0
  9
$LIMMIN
 10
0.0
 20
0.0
  9
$LIMMAX
 10
420.0
 20
297.0
  9
$ORTHOMODE
 70
     0
  9
$REGENMODE
 70
     1
  9
$FILLMODE
 70
     1
  9
$QTEXTMODE
 70
     0
  9
$MIRRTEXT
 70
     1
  9
$LTSCALE
 40
1.0
  9
$ATTMODE
 70
     1
  9
$TEXTSIZE
 40
3.5
  9
$TRACEWID
 40
1.0
  9
$TEXTSTYLE
  7
Standard
  9
$CLAYER
  8
0
  9
$CELTYPE
  6
ByLayer
  9
$CECOLOR
 62
   256
  9
$CELTSCALE
 40
1.0
  9
$DISPSILH
 70
     0
  9
$DIMSCALE
 40
1.0
  9
$DIMASZ
 40
3.302
  9
$DIMEXO
 40
1.0
  9
$DIMDLI
 40
3.75
  9
$DIMRND
 40
0.0
  9
$DIMDLE
 40
0.0
  9
$DIMEXE
 40
1.0
  9
$DIMTP
 40
0.0
  9
$DIMTM
 40
0.0
  9
$DIMTXT
 40
3.5
  9
$DIMCEN
 40
2.5
  9
$DIMTSZ
 40
0.0
  9
$DIMTOL
 70
     0
  9
$DIMLIM
 70
     0
  9
$DIMTIH
 70
     1
  9
$DIMTOH
 70
     1
  9
$DIMSE1
 70
     0
  9
$DIMSE2
 70
     0
  9
$DIMTAD
 70
     1
  9
$DIMZIN
 70
     0
  9
$DIMBLK
  1

  9
$DIMASO
 70
     1
  9
$DIMSHO
 70
     1
  9
$DIMPOST
  1

  9
$DIMAPOST
  1

  9
$DIMALT
 70
     0
  9
$DIMALTD
 70
     3
  9
$DIMALTF
 40
0.0393700787
  9
$DIMLFAC
 40
1.0
  9
$DIMTOFL
 70
     1
  9
$DIMTVP
 40
0.0
  9
$DIMTIX
 70
     0
  9
$DIMSOXD
 70
     0
  9
$DIMSAH
 70
     0
  9
$DIMBLK1
  1

  9
$DIMBLK2
  1

  9
$DIMSTYLE
  2
ISO-25
  9
$DIMCLRD
 70
     0
  9
$DIMCLRE
 70
     0
  9
$DIMCLRT
 70
     0
  9
$DIMTFAC
 40
1.0
  9
$DIMGAP
 40
1.524
  9
$DIMJUST
 70
     0
  9
$DIMSD1
 70
     0
  9
$DIMSD2
 70
     0
  9
$DIMTOLJ
 70
     0
  9
$DIMTZIN
 70
     0
  9
$DIMALTZ
 70
     0
  9
$DIMALTTZ
 70
     0
  9
$DIMUPT
 70
     0
  9
$DIMDEC
 70
     2
  9
$DIMTDEC
 70
     2
  9
$DIMALTU
 70
     2
  9
$DIMALTTD
 70
     3
  9
$DIMTXSTY
  7
Standard
  9
$DIMAUNIT
 70
     0
  9
$DIMADEC
 70
     2
  9
$DIMALTRND
 40
0.0
  9
$DIMAZIN
 70
     0
  9
$DIMDSEP
 70
    44
  9
$DIMATFIT
 70
     3
  9
$DIMFRAC
 70
     0
  9
$DIMLDRBLK
  1

  9
$DIMLUNIT
 70
     2
  9
$DIMLWD
 70
    -2
  9
$DIMLWE
 70
    -2
  9
$DIMTMOVE
 70
     0
  9
$LUNITS
 70
     2
  9
$LUPREC
 70
     2
  9
$SKETCHINC
 40
1.0
  9
$FILLETRAD
 40
10.0
  9
$AUNITS
 70
     0
  9
$AUPREC
 70
     2
  9
$MENU
  1
.
  9
$ELEVATION
 40
0.0
  9
$PELEVATION
 40
0.0
  9
$THICKNESS
 40
0.0
  9
$LIMCHECK
 70
     0
  9
$CHAMFERA
 40
0.0
  9
$CHAMFERB
 40
0.0
  9
$CHAMFERC
 40
0.0
  9
$CHAMFERD
 40
0.0
  9
$SKPOLY
 70
     0
  9
$TDCREATE
 40
2457576.469135046
  9
$TDUCREATE
 40
2457576.427468379
  9
$TDUPDATE
 40
2457576.469227153
  9
$TDUUPDATE
 40
2457576.427560486
  9
$TDINDWG
 40
0.0000000116
  9
$TDUSRTIMER
 40
0.0000000116
  9
$USRTIMER
 70
     1
  9
$ANGBASE
 50
0.0
  9
$ANGDIR
 70
     0
  9
$PDMODE
 70
     0
  9
$PDSIZE
 40
-1.0
  9
$PLINEWID
 40
0.0
  9
$SPLFRAME
 70
     0
  9
$SPLINETYPE
 70
     6
  9
$SPLINESEGS
 70
     8
  9
$HANDSEED
  5
429
  9
$SURFTAB1
 70
     6
  9
$SURFTAB2
 70
     6
  9
$SURFTYPE
 70
     6
  9
$SURFU
 70
     6
  9
$SURFV
 70
     6
  9
$UCSBASE
  2

  9
$UCSNAME
  2

  9
$UCSORG
 10
0.0
 20
0.0
 30
0.0
  9
$UCSXDIR
 10
1.0
 20
0.0
 30
0.0
  9
$UCSYDIR
 10
0.0
 20
1.0
 30
0.0
  9
$UCSORTHOREF
  2

  9
$UCSORTHOVIEW
 70
     0
  9
$UCSORGTOP
 10
0.0
 20
0.0
 30
0.0
  9
$UCSORGBOTTOM
 10
0.0
 20
0.0
 30
0.0
  9
$UCSORGLEFT
 10
0.0
 20
0.0
 30
0.0
  9
$UCSORGRIGHT
 10
0.0
 20
0.0
 30
0.0
  9
$UCSORGFRONT
 10
0.0
 20
0.0
 30
0.0
  9
$UCSORGBACK
 10
0.0
 20
0.0
 30
0.0
  9
$PUCSBASE
  2

  9
$PUCSNAME
  2

  9
$PUCSORG
 10
0.0
 20
0.0
 30
0.0
  9
$PUCSXDIR
 10
1.0
 20
0.0
 30
0.0
  9
$PUCSYDIR
 10
0.0
 20
1.0
 30
0.0
  9
$PUCSORTHOREF
  2

  9
$PUCSORTHOVIEW
 70
     0
  9
$PUCSORGTOP
 10
0.0
 20
0.0
 30
0.0
  9
$PUCSORGBOTTOM
 10
0.0
 20
0.0
 30
0.0
  9
$PUCSORGLEFT
 10
0.0
 20
0.0
 30
0.0
  9
$PUCSORGRIGHT
 10
0.0
 20
0.0
 30
0.0
  9
$PUCSORGFRONT
 10
0.0
 20
0.0
 30
0.0
  9
$PUCSORGBACK
 10
0.0
 20
0.0
 30
0.0
  9
$USERI1
 70
     0
  9
$USERI2
 70
     0
  9
$USERI3
 70
     0
  9
$USERI4
 70
     0
  9
$USERI5
 70
     0
  9
$USERR1
 40
0.0
  9
$USERR2
 40
0.0
  9
$USERR3
 40
0.0
  9
$USERR4
 40
0.0
  9
$USERR5
 40
0.0
  9
$WORLDVIEW
 70
     1
  9
$SHADEDGE
 70
     3
  9
$SHADEDIF
 70
    70
  9
$TILEMODE
 70
     1
  9
$MAXACTVP
 70
    64
  9
$PINSBASE
 10
0.0
 20
0.0
 30
0.0
  9
$PLIMCHECK
 70
     0
  9
$PEXTMIN
 10
1.0000000000E+20
 20
1.0000000000E+20
 30
1.0000000000E+20
  9
$PEXTMAX
 10
-1.0000000000E+20
 20
-1.0000000000E+20
 30
-1.0000000000E+20
  9
$PLIMMIN
 10
0.0
 20
0.0
  9
$PLIMMAX
 10
420.0
 20
297.0
  9
$UNITMODE
 70
     0
  9
$VISRETAIN
 70
     1
  9
$PLINEGEN
 70
     0
  9
$PSLTSCALE
 70
     1
  9
$TREEDEPTH
 70
  3020
  9
$CMLSTYLE
  2
Standard
  9
$CMLJUST
 70
     0
  9
$CMLSCALE
 40
20.0
  9
$PROXYGRAPHICS
 70
     1
  9
$MEASUREMENT
 70
     1
  9
$CELWEIGHT
370
    -1
  9
$ENDCAPS
280
     0
  9
$JOINSTYLE
280
     0
  9
$LWDISPLAY
290
     1
  9
$INSUNITS
 70
     4
  9
$HYPERLINKBASE
  1

  9
$STYLESHEET
  1

  9
$XEDIT
290
     1
  9
$CEPSNTYPE
380
     0
  9
$PSTYLEMODE
290
     1
  9
$FINGERPRINTGUID
  2
{6EC08C83-9282-4642-8C93-15C7674ACC5C}
  9
$VERSIONGUID
  2
{FAEB1C32-E019-11D5-929B-00C0DF256EC4}
  9
$EXTNAMES
290
     1
  9
$PSVPSCALE
 40
0.0
  9
$OLESTARTUP
290
     0
  0
ENDSEC
  0
SECTION
  2
CLASSES
  0
CLASS
  1
ACDBDICTIONARYWDFLT
  2
AcDbDictionaryWithDefault
  3
ObjectDBX Classes
 90
        0
280
     0
281
     0
  0
CLASS
  1
VISUALSTYLE
  2
AcDbVisualStyle
  3
ObjectDBX Classes
 90
     4095
280
     0
281
     0
  0
CLASS
  1
MATERIAL
  2
AcDbMaterial
  3
ObjectDBX Classes
 90
     1153
280
     0
281
     0
  0
CLASS
  1
SCALE
  2
AcDbScale
  3
ObjectDBX Classes
 90
     1153
280
     0
281
     0
  0
CLASS
  1
TABLESTYLE
  2
AcDbTableStyle
  3
ObjectDBX Classes
 90
     4095
280
     0
281
     0
  0
CLASS
  1
MLEADERSTYLE
  2
AcDbMLeaderStyle
  3
ACDB_MLEADERSTYLE_CLASS
 90
     4095
280
     0
281
     0
  0
CLASS
  1
SUN
  2
AcDbSun
  3
SCENEOE
 90
     1153
280
     0
281
     0
  0
CLASS
  1
ACDBPLACEHOLDER
  2
AcDbPlaceHolder
  3
ObjectDBX Classes
 90
        0
280
     0
281
     0
  0
CLASS
  1
LAYOUT
  2
AcDbLayout
  3
ObjectDBX Classes
 90
        0
280
     0
281
     0
  0
ENDSEC
  0
SECTION
  2
TABLES
  0
TABLE
  2
VPORT
  5
8
330
0
100
AcDbSymbolTable
 70
     1
  0
VPORT
  5
29
330
8
100
AcDbSymbolTableRecord
100
AcDbViewportTableRecord
  2
*Active
 70
     0
 10
0.0
 20
0.0
 11
1.0
 21
1.0
 12
-269.1799305
 22
-32.299999
 13
0.0
 23
0.0
 14
10.0
 24
10.0
 15
10.0
 25
10.0
 16
0.0
 26
0.0
 36
1.0
 17
0.0
 27
0.0
 37
0.0
 40
65.89199796
 41
8.3337442363
 42
50.0
 43
0.0
 44
0.0
 50
0.0
 51
0.0
 71
     0
 72
   100
 73
     1
 74
     3
 75
     0
 76
     0
 77
     0
 78
     0
281
     0
 65
     1
110
0.0
120
0.0
130
0.0
111
1.0
121
0.0
131
0.0
112
0.0
122
1.0
132
0.0
 79
     0
146
0.0
  0
ENDTAB
  0
TABLE
  2
LTYPE
  5
5
330
0
100
AcDbSymbolTable
 70
     6
  0
LTYPE
  5
14
330
5
100
AcDbSymbolTableRecord
100
AcDbLinetypeTableRecord
  2
ByBlock
 70
     0
  3

 72
    65
 73
     0
 40
0.0
  0
LTYPE
  5
15
330
5
100
AcDbSymbolTableRecord
100
AcDbLinetypeTableRecord
  2
ByLayer
 70
     0
  3

 72
    65
 73
     0
 40
0.0
  0
LTYPE
  5
16
330
5
100
AcDbSymbolTableRecord
100
AcDbLinetypeTableRecord
  2
Continuous
 70
     0
  3
Solid line
 72
    65
 73
     0
 40
0.0
  0
LTYPE
  5
6E
330
5
100
AcDbSymbolTableRecord
100
AcDbLinetypeTableRecord
  2
HIDDEN
 70
     0
  3
Hidden __ __ __ __ __ __ __ __ __ __ __ __ __ __
 72
    65
 73
     2
 40
1.905
 49
1.27
 74
     0
 49
-0.635
 74
     0
  0
LTYPE
  5
6F
330
5
100
AcDbSymbolTableRecord
100
AcDbLinetypeTableRecord
  2
PHANTOM
 70
     0
  3
Phantom ______  __  __  ______  __  __  ______
 72
    65
 73
     6
 40
12.7
 49
6.35
 74
     0
 49
-1.27
 74
     0
 49
1.27
 74
     0
 49
-1.27
 74
     0
 49
1.27
 74
     0
 49
-1.27
 74
     0
  0
LTYPE
  5
70
330
5
100
AcDbSymbolTableRecord
100
AcDbLinetypeTableRecord
  2
CENTER
 70
     0
  3
Center ____ _ ____ _ ____ _ ____ _ ____ _ ____
 72
    65
 73
     4
 40
10.16
 49
6.35
 74
     0
 49
-1.27
 74
     0
 49
1.27
 74
     0
 49
-1.27
 74
     0
  0
LTYPE
  5
71
330
5
100
AcDbSymbolTableRecord
100
AcDbLinetypeTableRecord
  2
CENTERX2
 70
     0
  3
Center (2x) ________  __  ________  __  _____
 72
    65
 73
     4
 40
20.32
 49
12.7
 74
     0
 49
-2.54
 74
     0
 49
2.54
 74
     0
 49
-2.54
 74
     0
  0
LTYPE
  5
72
330
5
100
AcDbSymbolTableRecord
100
AcDbLinetypeTableRecord
  2
DOT2
 70
     0
  3
Dot (.5x) ........................................
 72
    65
 73
     2
 40
0.635
 49
0.0
 74
     0
 49
-0.635
 74
     0
  0
ENDTAB
  0
TABLE
  2
LAYER
  5
2
330
0
100
AcDbSymbolTable
 70
     1
  0
LAYER
  5
10
330
2
100
AcDbSymbolTableRecord
100
AcDbLayerTableRecord
  2
0
 70
     0
 62
     7
  6
Continuous
370
    -3
390
F
  0
ENDTAB
  0
TABLE
  2
STYLE
  5
3
330
0
100
AcDbSymbolTable
 70
     1
  0
STYLE
  5
11
330
3
100
AcDbSymbolTableRecord
100
AcDbTextStyleTableRecord
  2
Standard
 70
     0
 40
0.0
 41
1.0
 50
0.0
 71
     0
 42
3.5
  3
txt
  4

  0
ENDTAB
  0
TABLE
  2
VIEW
  5
6
330
0
100
AcDbSymbolTable
 70
     0
  0
ENDTAB
  0
TABLE
  2
UCS
  5
7
330
0
100
AcDbSymbolTable
 70
     0
  0
ENDTAB
  0
TABLE
  2
APPID
  5
9
330
0
100
AcDbSymbolTable
 70
     1
  0
APPID
  5
12
330
9
100
AcDbSymbolTableRecord
100
AcDbRegAppTableRecord
  2
ACAD
 70
     0
  0
ENDTAB
  0
TABLE
  2
DIMSTYLE
  5
A
330
0
100
AcDbSymbolTable
 70
     1
100
AcDbDimStyleTable
  0
DIMSTYLE
105
27
330
A
100
AcDbSymbolTableRecord
100
AcDbDimStyleTableRecord
  2
ISO-25
 70
     0
 41
2.5
 42
0.625
 43
3.75
 44
1.25
 73
     0
 74
     0
 77
     1
 78
     8
140
2.5
141
2.5
143
0.0393700787
147
0.625
171
     3
172
     1
178
     0
271
     2
272
     2
274
     3
278
    44
283
     0
284
     8
340
11
  0
ENDTAB
  0
TABLE
  2
BLOCK_RECORD
  5
1
330
0
100
AcDbSymbolTable
 70
     1
  0
BLOCK_RECORD
  5
1F
330
1
100
AcDbSymbolTableRecord
100
AcDbBlockTableRecord
  2
*Model_Space
340
22
  0
BLOCK_RECORD
  5
1B
330
1
100
AcDbSymbolTableRecord
100
AcDbBlockTableRecord
  2
*Paper_Space
340
1E
  0
BLOCK_RECORD
  5
23
330
1
100
AcDbSymbolTableRecord
100
AcDbBlockTableRecord
  2
*Paper_Space0
340
26
  0
ENDTAB
  0
ENDSEC
  0
SECTION
  2
BLOCKS
  0
BLOCK
  5
20
330
1F
100
AcDbEntity
  8
0
100
AcDbBlockBegin
  2
*Model_Space
 70
     0
 10
0.0
 20
0.0
 30
0.0
  3
*Model_Space
  1

  0
ENDBLK
  5
21
330
1F
100
AcDbEntity
  8
0
100
AcDbBlockEnd
  0
BLOCK
  5
1C
330
1B
100
AcDbEntity
 67
     1
  8
0
100
AcDbBlockBegin
  2
*Paper_Space
 70
     0
 10
0.0
 20
0.0
 30
0.0
  3
*Paper_Space
  1

  0
ENDBLK
  5
1D
330
1B
100
AcDbEntity
 67
     1
  8
0
100
AcDbBlockEnd
  0
BLOCK
  5
24
330
23
100
AcDbEntity
  8
0
100
AcDbBlockBegin
  2
*Paper_Space0
 70
     0
 10
0.0
 20
0.0
 30
0.0
  3
*Paper_Space0
  1

  0
ENDBLK
  5
25
330
23
100
AcDbEntity
  8
0
100
AcDbBlockEnd
  0
ENDSEC
  0
SECTION
  2
ENTITIES
  0
LINE
  5
73
330
1F
100
AcDbEntity
  8
0
  6
Continuous
 62
     7
100
AcDbLine
 10
-427.3688907144
 20
-43.3787905459
 30
0.0
 11
-427.3688907144
 21
-36.9916215459
 31
0.0
  0
LINE
  5
74
330
1F
100
AcDbEntity
  8
0
  6
Continuous
 62
     7
100
AcDbLine
 10
-427.3688907144
 20
-36.9916215459
 30
0.0
 11
-432.9032397144
 21
-36.9916215459
 31
0.0
  0
LINE
  5
75
330
1F
100
AcDbEntity
  8
0
  6
Continuous
 62
     7
100
AcDbLine
 10
-432.9032397144
 20
-36.9916215459
 30
0.0
 11
-438.4375897144
 21
-36.9916215459
 31
0.0
  0
LINE
  5
76
330
1F
100
AcDbEntity
  8
0
  6
Continuous
 62
     7
100
AcDbLine
 10
-438.4375897144
 20
-36.9916215459
 30
0.0
 11
-438.4375897144
 21
-35.1468475459
 31
0.0
  0
LINE
  5
77
330
1F
100
AcDbEntity
  8
0
  6
Continuous
 62
     7
100
AcDbLine
 10
-438.4375897144
 20
-35.1468475459
 30
0.0
 11
-438.4375897144
 21
-33.3020745459
 31
0.0
  0
LINE
  5
78
330
1F
100
AcDbEntity
  8
0
  6
Continuous
 62
     7
100
AcDbLine
 10
-438.4375897144
 20
-33.3020745459
 30
0.0
 11
-432.9032397144
 21
-33.3020745459
 31
0.0
  0
LINE
  5
79
330
1F
100
AcDbEntity
  8
0
  6
Continuous
 62
     7
100
AcDbLine
 10
-432.9032397144
 20
-33.3020745459
 30
0.0
 11
-427.3688907144
 21
-33.3020745459
 31
0.0
  0
LINE
  5
7A
330
1F
100
AcDbEntity
  8
0
  6
Continuous
 62
     7
100
AcDbLine
 10
-427.3688907144
 20
-33.3020745459
 30
0.0
 11
-427.3688907144
 21
-21.0803845459
 31
0.0
  0
LINE
  5
7B
330
1F
100
AcDbEntity
  8
0
  6
Continuous
 62
     7
100
AcDbLine
 10
-427.3688907144
 20
-21.0803845459
 30
0.0
 11
-427.3688907144
 21
-8.8586945459
 31
0.0
  0
LINE
  5
7C
330
1F
100
AcDbEntity
  8
0
  6
Continuous
 62
     7
100
AcDbLine
 10
-427.3688907144
 20
-8.8586945459
 30
0.0
 11
-431.0584657144
 21
-8.8586945459
 31
0.0
  0
LINE
  5
7D
330
1F
100
AcDbEntity
  8
0
  6
Continuous
 62
     7
100
AcDbLine
 10
-431.0584657144
 20
-8.8586945459
 30
0.0
 11
-434.7480417144
 21
-8.8586945459
 31
0.0
  0
LINE
  5
7E
330
1F
100
AcDbEntity
  8
0
  6
Continuous
 62
     7
100
AcDbLine
 10
-434.7480417144
 20
-8.8586945459
 30
0.0
 11
-434.7480417144
 21
-17.3908085459
 31
0.0
  0
LINE
  5
7F
330
1F
100
AcDbEntity
  8
0
  6
Continuous
 62
     7
100
AcDbLine
 10
-434.7480417144
 20
-17.3908085459
 30
0.0
 11
-434.7480417144
 21
-25.9229505459
 31
0.0
  0
LINE
  5
80
330
1F
100
AcDbEntity
  8
0
  6
Continuous
 62
     7
100
AcDbLine
 10
-434.7480417144
 20
-25.9229505459
 30
0.0
 11
-436.5928157144
 21
-25.9229505459
 31
0.0
  0
LINE
  5
81
330
1F
100
AcDbEntity
  8
0
  6
Continuous
 62
     7
100
AcDbLine
 10
-436.5928157144
 20
-25.9229505459
 30
0.0
 11
-438.4375897144
 21
-25.9229505459
 31
0.0
  0
LINE
  5
82
330
1F
100
AcDbEntity
  8
0
  6
Continuous
 62
     7
100
AcDbLine
 10
-438.4375897144
 20
-25.9229505459
 30
0.0
 11
-438.4375897144
 21
-17.3908085459
 31
0.0
  0
LINE
  5
83
330
1F
100
AcDbEntity
  8
0
  6
Continuous
 62
     7
100
AcDbLine
 10
-438.4375897144
 20
-17.3908085459
 30
0.0
 11
-438.4375897144
 21
-8.8586945459
 31
0.0
  0
LINE
  5
84
330
1F
100
AcDbEntity
  8
0
  6
Continuous
 62
     7
100
AcDbLine
 10
-438.4375897144
 20
-8.8586945459
 30
0.0
 11
-442.1271367144
 21
-8.8586945459
 31
0.0
  0
LINE
  5
85
330
1F
100
AcDbEntity
  8
0
  6
Continuous
 62
     7
100
AcDbLine
 10
-442.1271367144
 20
-8.8586945459
 30
0.0
 11
-445.8167127144
 21
-8.8586945459
 31
0.0
  0
LINE
  5
86
330
1F
100
AcDbEntity
  8
0
  6
Continuous
 62
     7
100
AcDbLine
 10
-445.8167127144
 20
-8.8586945459
 30
0.0
 11
-445.8133257144
 21
-26.4994175459
 31
0.0
  0
LINE
  5
87
330
1F
100
AcDbEntity
  8
0
  6
Continuous
 62
     7
100
AcDbLine
 10
-444.0744417144
 20
-29.4972105459
 30
0.0
 11
-443.8849577144
 21
-10.7034685459
 31
0.0
  0
LINE
  5
88
330
1F
100
AcDbEntity
  8
0
  6
Continuous
 62
     7
100
AcDbLine
 10
-443.8849577144
 20
-10.7034685459
 30
0.0
 11
-442.0835897144
 21
-10.7034685459
 31
0.0
  0
LINE
  5
89
330
1F
100
AcDbEntity
  8
0
  6
Continuous
 62
     7
100
AcDbLine
 10
-442.0835897144
 20
-10.7034685459
 30
0.0
 11
-440.2821937144
 21
-10.7034685459
 31
0.0
  0
LINE
  5
8A
330
1F
100
AcDbEntity
  8
0
  6
Continuous
 62
     7
100
AcDbLine
 10
-440.2821937144
 20
-10.7034685459
 30
0.0
 11
-440.2821937144
 21
-19.2356105459
 31
0.0
  0
LINE
  5
8B
330
1F
100
AcDbEntity
  8
0
  6
Continuous
 62
     7
100
AcDbLine
 10
-440.2821937144
 20
-19.2356105459
 30
0.0
 11
-440.2821937144
 21
-27.7677245459
 31
0.0
  0
LINE
  5
8C
330
1F
100
AcDbEntity
  8
0
  6
Continuous
 62
     7
100
AcDbLine
 10
-440.2821937144
 20
-27.7677245459
 30
0.0
 11
-436.5926177144
 21
-27.7677245459
 31
0.0
  0
LINE
  5
8D
330
1F
100
AcDbEntity
  8
0
  6
Continuous
 62
     7
100
AcDbLine
 10
-436.5926177144
 20
-27.7677245459
 30
0.0
 11
-432.9030707144
 21
-27.7677245459
 31
0.0
  0
LINE
  5
8E
330
1F
100
AcDbEntity
  8
0
  6
Continuous
 62
     7
100
AcDbLine
 10
-432.9030707144
 20
-27.7677245459
 30
0.0
 11
-432.9030707144
 21
-19.2356105459
 31
0.0
  0
LINE
  5
8F
330
1F
100
AcDbEntity
  8
0
  6
Continuous
 62
     7
100
AcDbLine
 10
-432.9030707144
 20
-19.2356105459
 30
0.0
 11
-432.9030707144
 21
-10.7034685459
 31
0.0
  0
LINE
  5
90
330
1F
100
AcDbEntity
  8
0
  6
Continuous
 62
     7
100
AcDbLine
 10
-432.9030707144
 20
-10.7034685459
 30
0.0
 11
-431.0582687144
 21
-10.7034685459
 31
0.0
  0
LINE
  5
91
330
1F
100
AcDbEntity
  8
0
  6
Continuous
 62
     7
100
AcDbLine
 10
-431.0582687144
 20
-10.7034685459
 30
0.0
 11
-429.2134947144
 21
-10.7034685459
 31
0.0
  0
LINE
  5
92
330
1F
100
AcDbEntity
  8
0
  6
Continuous
 62
     7
100
AcDbLine
 10
-429.2134947144
 20
-10.7034685459
 30
0.0
 11
-429.2134947144
 21
-21.0803845459
 31
0.0
  0
LINE
  5
93
330
1F
100
AcDbEntity
  8
0
  6
Continuous
 62
     7
100
AcDbLine
 10
-429.2134947144
 20
-21.0803845459
 30
0.0
 11
-429.2134947144
 21
-31.4572725459
 31
0.0
  0
LINE
  5
94
330
1F
100
AcDbEntity
  8
0
  6
Continuous
 62
     7
100
AcDbLine
 10
-429.2134947144
 20
-31.4572725459
 30
0.0
 11
-434.7478447144
 21
-31.4572725459
 31
0.0
  0
LINE
  5
95
330
1F
100
AcDbEntity
  8
0
  6
Continuous
 62
     7
100
AcDbLine
 10
-434.7478447144
 20
-31.4572725459
 30
0.0
 11
-440.2821937144
 21
-31.4572725459
 31
0.0
  0
LINE
  5
96
330
1F
100
AcDbEntity
  8
0
  6
Continuous
 62
     7
100
AcDbLine
 10
-440.2821937144
 20
-31.4572725459
 30
0.0
 11
-440.2821937144
 21
-35.1468475459
 31
0.0
  0
LINE
  5
97
330
1F
100
AcDbEntity
  8
0
  6
Continuous
 62
     7
100
AcDbLine
 10
-440.2821937144
 20
-35.1468475459
 30
0.0
 11
-440.2821937144
 21
-38.8364235459
 31
0.0
  0
LINE
  5
98
330
1F
100
AcDbEntity
  8
0
  6
Continuous
 62
     7
100
AcDbLine
 10
-440.2821937144
 20
-38.8364235459
 30
0.0
 11
-434.8154087144
 21
-38.8364235459
 31
0.0
  0
LINE
  5
99
330
1F
100
AcDbEntity
  8
0
  6
Continuous
 62
     7
100
AcDbLine
 10
-434.8154087144
 20
-38.8364235459
 30
0.0
 11
-429.3486227144
 21
-38.8364235459
 31
0.0
  0
LINE
  5
9A
330
1F
100
AcDbEntity
  8
0
  6
Continuous
 62
     7
100
AcDbLine
 10
-429.3486227144
 20
-38.8364235459
 30
0.0
 11
-429.0745287144
 21
-46.5614385459
 31
0.0
  0
LINE
  5
9B
330
1F
100
AcDbEntity
  8
0
  6
Continuous
 62
     7
100
AcDbLine
 10
-427.6790247144
 20
-53.4097865459
 30
0.0
 11
-427.6791937144
 21
-53.4097865459
 31
0.0
  0
LINE
  5
9C
330
1F
100
AcDbEntity
  8
0
  6
Continuous
 62
     7
100
AcDbLine
 10
-317.1431067144
 20
-29.0623345459
 30
0.0
 11
-317.1431067144
 21
-8.8198895459
 31
0.0
  0
LINE
  5
9D
330
1F
100
AcDbEntity
  8
0
  6
Continuous
 62
     7
100
AcDbLine
 10
-317.1431067144
 20
-8.8198895459
 30
0.0
 11
-320.7173667067
 21
-8.9545935456
 31
0.0
  0
LINE
  5
9E
330
1F
100
AcDbEntity
  8
0
  6
Continuous
 62
     7
100
AcDbLine
 10
-320.7173667067
 20
-8.9545935456
 30
0.0
 11
-324.2916267144
 21
-9.0892985459
 31
0.0
  0
LINE
  5
9F
330
1F
100
AcDbEntity
  8
0
  6
Continuous
 62
     7
100
AcDbLine
 10
-324.2916267144
 20
-9.0892985459
 30
0.0
 11
-326.2203047144
 21
-14.6236475458
 31
0.0
  0
LINE
  5
A0
330
1F
100
AcDbEntity
  8
0
  6
Continuous
 62
     7
100
AcDbLine
 10
-326.2203047144
 20
-14.6236475458
 30
0.0
 11
-328.1489547144
 21
-20.1579975459
 31
0.0
  0
LINE
  5
A1
330
1F
100
AcDbEntity
  8
0
  6
Continuous
 62
     7
100
AcDbLine
 10
-328.1489547144
 20
-20.1579975459
 30
0.0
 11
-328.1803667144
 21
-14.5083315459
 31
0.0
  0
LINE
  5
A2
330
1F
100
AcDbEntity
  8
0
  6
Continuous
 62
     7
100
AcDbLine
 10
-328.1803667144
 20
-14.5083315459
 30
0.0
 11
-328.2118057144
 21
-8.8586945459
 31
0.0
  0
LINE
  5
A3
330
1F
100
AcDbEntity
  8
0
  6
Continuous
 62
     7
100
AcDbLine
 10
-328.2118057144
 20
-8.8586945459
 30
0.0
 11
-331.9013537144
 21
-8.8586945459
 31
0.0
  0
LINE
  5
A4
330
1F
100
AcDbEntity
  8
0
  6
Continuous
 62
     7
100
AcDbLine
 10
-331.9013537144
 20
-8.8586945459
 30
0.0
 11
-335.5909287144
 21
-8.8586945459
 31
0.0
  0
LINE
  5
A5
330
1F
100
AcDbEntity
  8
0
  6
Continuous
 62
     7
100
AcDbLine
 10
-335.5909287144
 20
-8.8586945459
 30
0.0
 11
-335.5878247144
 21
-27.6524085459
 31
0.0
  0
LINE
  5
A6
330
1F
100
AcDbEntity
  8
0
  6
Continuous
 62
     7
100
AcDbLine
 10
-333.8678777144
 20
-30.4195975459
 30
0.0
 11
-333.6625047144
 21
-10.7034685459
 31
0.0
  0
LINE
  5
A7
330
1F
100
AcDbEntity
  8
0
  6
Continuous
 62
     7
100
AcDbLine
 10
-333.6625047144
 20
-10.7034685459
 30
0.0
 11
-331.8685877144
 21
-10.7034685459
 31
0.0
  0
LINE
  5
A8
330
1F
100
AcDbEntity
  8
0
  6
Continuous
 62
     7
100
AcDbLine
 10
-331.8685877144
 20
-10.7034685459
 30
0.0
 11
-330.0746987144
 21
-10.7034685459
 31
0.0
  0
LINE
  5
A9
330
1F
100
AcDbEntity
  8
0
  6
Continuous
 62
     7
100
AcDbLine
 10
-330.0746987144
 20
-10.7034685459
 30
0.0
 11
-329.9504077144
 21
-20.7161485459
 31
0.0
  0
LINE
  5
AA
330
1F
100
AcDbEntity
  8
0
  6
Continuous
 62
     7
100
AcDbLine
 10
-329.9504077144
 20
-20.7161485459
 30
0.0
 11
-329.8261167144
 21
-30.7288285459
 31
0.0
  0
LINE
  5
AB
330
1F
100
AcDbEntity
  8
0
  6
Continuous
 62
     7
100
AcDbLine
 10
-329.8261167144
 20
-30.7288285459
 30
0.0
 11
-326.410014716
 21
-20.7161485505
 31
0.0
  0
LINE
  5
AC
330
1F
100
AcDbEntity
  8
0
  6
Continuous
 62
     7
100
AcDbLine
 10
-326.410014716
 20
-20.7161485505
 30
0.0
 11
-322.9939117144
 21
-10.7034685459
 31
0.0
  0
LINE
  5
AD
330
1F
100
AcDbEntity
  8
0
  6
Continuous
 62
     7
100
AcDbLine
 10
-322.9939117144
 20
-10.7034685459
 30
0.0
 11
-321.0267947144
 21
-10.7034685459
 31
0.0
  0
LINE
  5
AE
330
1F
100
AcDbEntity
  8
0
  6
Continuous
 62
     7
100
AcDbLine
 10
-321.0267947144
 20
-10.7034685459
 30
0.0
 11
-319.0596777144
 21
-10.7034685459
 31
0.0
  0
LINE
  5
AF
330
1F
100
AcDbEntity
  8
0
  6
Continuous
 62
     7
100
AcDbLine
 10
-319.0596777144
 20
-10.7034685459
 30
0.0
 11
-318.8680767144
 21
-32.2643715459
 31
0.0
  0
LINE
  5
B0
330
1F
100
AcDbEntity
  8
0
  6
Continuous
 62
     7
100
AcDbLine
 10
-317.4535227144
 20
-52.9486075459
 30
0.0
 11
-317.4533817144
 21
-52.9486075459
 31
0.0
  0
LINE
  5
B1
330
1F
100
AcDbEntity
  8
0
  6
Continuous
 62
     7
100
AcDbLine
 10
-299.1564637144
 20
-42.9175825459
 30
0.0
 11
-299.1564637144
 21
-36.9916215459
 31
0.0
  0
LINE
  5
B2
330
1F
100
AcDbEntity
  8
0
  6
Continuous
 62
     7
100
AcDbLine
 10
-299.1564637144
 20
-36.9916215459
 30
0.0
 11
-302.8460107144
 21
-36.9916215459
 31
0.0
  0
LINE
  5
B3
330
1F
100
AcDbEntity
  8
0
  6
Continuous
 62
     7
100
AcDbLine
 10
-302.8460107144
 20
-36.9916215459
 30
0.0
 11
-306.5355867144
 21
-36.9916215459
 31
0.0
  0
LINE
  5
B4
330
1F
100
AcDbEntity
  8
0
  6
Continuous
 62
     7
100
AcDbLine
 10
-306.5355867144
 20
-36.9916215459
 30
0.0
 11
-306.5324827144
 21
-40.1047025459
 31
0.0
  0
LINE
  5
B5
330
1F
100
AcDbEntity
  8
0
  6
Continuous
 62
     7
100
AcDbLine
 10
-304.9008997144
 20
-43.9062355459
 30
0.0
 11
-304.5722517144
 21
-38.8364235459
 31
0.0
  0
LINE
  5
B6
330
1F
100
AcDbEntity
  8
0
  6
Continuous
 62
     7
100
AcDbLine
 10
-304.5722517144
 20
-38.8364235459
 30
0.0
 11
-302.8565947144
 21
-38.8364235459
 31
0.0
  0
LINE
  5
B7
330
1F
100
AcDbEntity
  8
0
  6
Continuous
 62
     7
100
AcDbLine
 10
-302.8565947144
 20
-38.8364235459
 30
0.0
 11
-301.1409377144
 21
-38.8364235459
 31
0.0
  0
LINE
  5
B8
330
1F
100
AcDbEntity
  8
0
  6
Continuous
 62
     7
100
AcDbLine
 10
-301.1409377144
 20
-38.8364235459
 30
0.0
 11
-300.8783857144
 21
-46.9617425459
 31
0.0
  0
LINE
  5
B9
330
1F
100
AcDbEntity
  8
0
  6
Continuous
 62
     7
100
AcDbLine
 10
-299.4567767144
 20
-52.3947465459
 30
0.0
 11
-299.4566347144
 21
-52.3947465459
 31
0.0
  0
LINE
  5
BA
330
1F
100
AcDbEntity
  8
0
  6
Continuous
 62
     7
100
AcDbLine
 10
-340.6640707144
 20
-28.8511195459
 30
0.0
 11
-340.6640707144
 21
-8.8586945459
 31
0.0
  0
LINE
  5
BB
330
1F
100
AcDbEntity
  8
0
  6
Continuous
 62
     7
100
AcDbLine
 10
-340.6640707144
 20
-8.8586945459
 30
0.0
 11
-349.8879967144
 21
-8.8586945459
 31
0.0
  0
LINE
  5
BC
330
1F
100
AcDbEntity
  8
0
  6
Continuous
 62
     7
100
AcDbLine
 10
-349.8879967144
 20
-8.8586945459
 30
0.0
 11
-359.1119217144
 21
-8.8586945459
 31
0.0
  0
LINE
  5
BD
330
1F
100
AcDbEntity
  8
0
  6
Continuous
 62
     7
100
AcDbLine
 10
-359.1119217144
 20
-8.8586945459
 30
0.0
 11
-359.1088177144
 21
-26.7300215459
 31
0.0
  0
LINE
  5
BE
330
1F
100
AcDbEntity
  8
0
  6
Continuous
 62
     7
100
AcDbLine
 10
-357.3697637144
 20
-29.7278145459
 30
0.0
 11
-357.1812397144
 21
-10.7034685459
 31
0.0
  0
LINE
  5
BF
330
1F
100
AcDbEntity
  8
0
  6
Continuous
 62
     7
100
AcDbLine
 10
-357.1812397144
 20
-10.7034685459
 30
0.0
 11
-349.8842427144
 21
-10.7034685459
 31
0.0
  0
LINE
  5
C0
330
1F
100
AcDbEntity
  8
0
  6
Continuous
 62
     7
100
AcDbLine
 10
-349.8842427144
 20
-10.7034685459
 30
0.0
 11
-342.5872467144
 21
-10.7034685459
 31
0.0
  0
LINE
  5
C1
330
1F
100
AcDbEntity
  8
0
  6
Continuous
 62
     7
100
AcDbLine
 10
-342.5872467144
 20
-10.7034685459
 30
0.0
 11
-342.4077527144
 21
-32.2643715459
 31
0.0
  0
LINE
  5
C2
330
1F
100
AcDbEntity
  8
0
  6
Continuous
 62
     7
100
AcDbLine
 10
-340.9694357144
 20
-52.4544925459
 30
0.0
 11
-340.9693227144
 21
-52.4544925459
 31
0.0
  0
LINE
  5
C3
330
1F
100
AcDbEntity
  8
0
  6
Continuous
 62
     7
100
AcDbLine
 10
-380.7881127144
 20
-28.8511195459
 30
0.0
 11
-380.7881127144
 21
-8.8586945459
 31
0.0
  0
LINE
  5
C4
330
1F
100
AcDbEntity
  8
0
  6
Continuous
 62
     7
100
AcDbLine
 10
-380.7881127144
 20
-8.8586945459
 30
0.0
 11
-390.0120377144
 21
-8.8586945459
 31
0.0
  0
LINE
  5
C5
330
1F
100
AcDbEntity
  8
0
  6
Continuous
 62
     7
100
AcDbLine
 10
-390.0120377144
 20
-8.8586945459
 30
0.0
 11
-399.2359347144
 21
-8.8586945459
 31
0.0
  0
LINE
  5
C6
330
1F
100
AcDbEntity
  8
0
  6
Continuous
 62
     7
100
AcDbLine
 10
-399.2359347144
 20
-8.8586945459
 30
0.0
 11
-399.2328307144
 21
-26.7300215459
 31
0.0
  0
LINE
  5
C7
330
1F
100
AcDbEntity
  8
0
  6
Continuous
 62
     7
100
AcDbLine
 10
-397.4938057144
 20
-29.7278145459
 30
0.0
 11
-397.3052807144
 21
-10.7034685459
 31
0.0
  0
LINE
  5
C8
330
1F
100
AcDbEntity
  8
0
  6
Continuous
 62
     7
100
AcDbLine
 10
-397.3052807144
 20
-10.7034685459
 30
0.0
 11
-390.0082847144
 21
-10.7034685459
 31
0.0
  0
LINE
  5
C9
330
1F
100
AcDbEntity
  8
0
  6
Continuous
 62
     7
100
AcDbLine
 10
-390.0082847144
 20
-10.7034685459
 30
0.0
 11
-382.7112877144
 21
-10.7034685459
 31
0.0
  0
LINE
  5
CA
330
1F
100
AcDbEntity
  8
0
  6
Continuous
 62
     7
100
AcDbLine
 10
-382.7112877144
 20
-10.7034685459
 30
0.0
 11
-382.5317947144
 21
-32.2643715459
 31
0.0
  0
LINE
  5
CB
330
1F
100
AcDbEntity
  8
0
  6
Continuous
 62
     7
100
AcDbLine
 10
-381.0934767144
 20
-52.4544925459
 30
0.0
 11
-381.0933637144
 21
-52.4544925459
 31
0.0
  0
LINE
  5
CC
330
1F
100
AcDbEntity
  8
0
  6
Continuous
 62
     7
100
AcDbLine
 10
-132.8325507144
 20
-45.6390515459
 30
0.0
 11
-132.5213727144
 21
-38.8364235459
 31
0.0
  0
LINE
  5
CD
330
1F
100
AcDbEntity
  8
0
  6
Continuous
 62
     7
100
AcDbLine
 10
-132.5213727144
 20
-38.8364235459
 30
0.0
 11
-127.0587127144
 21
-38.8364235459
 31
0.0
  0
LINE
  5
CE
330
1F
100
AcDbEntity
  8
0
  6
Continuous
 62
     7
100
AcDbLine
 10
-127.0587127144
 20
-38.8364235459
 30
0.0
 11
-121.5960757144
 21
-38.8364235459
 31
0.0
  0
LINE
  5
CF
330
1F
100
AcDbEntity
  8
0
  6
Continuous
 62
     7
100
AcDbLine
 10
-121.5960757144
 20
-38.8364235459
 30
0.0
 11
-121.5960757144
 21
-35.1468475459
 31
0.0
  0
LINE
  5
D0
330
1F
100
AcDbEntity
  8
0
  6
Continuous
 62
     7
100
AcDbLine
 10
-121.5960757144
 20
-35.1468475459
 30
0.0
 11
-121.5960757144
 21
-31.4572725459
 31
0.0
  0
LINE
  5
D1
330
1F
100
AcDbEntity
  8
0
  6
Continuous
 62
     7
100
AcDbLine
 10
-121.5960757144
 20
-31.4572725459
 30
0.0
 11
-127.1304257144
 21
-31.4572725459
 31
0.0
  0
LINE
  5
D2
330
1F
100
AcDbEntity
  8
0
  6
Continuous
 62
     7
100
AcDbLine
 10
-127.1304257144
 20
-31.4572725459
 30
0.0
 11
-132.6647697144
 21
-31.4572725459
 31
0.0
  0
LINE
  5
D3
330
1F
100
AcDbEntity
  8
0
  6
Continuous
 62
     7
100
AcDbLine
 10
-132.6647697144
 20
-31.4572725459
 30
0.0
 11
-132.6647697144
 21
-29.6124985459
 31
0.0
  0
LINE
  5
D4
330
1F
100
AcDbEntity
  8
0
  6
Continuous
 62
     7
100
AcDbLine
 10
-132.6647697144
 20
-29.6124985459
 30
0.0
 11
-132.6647697144
 21
-27.7677245459
 31
0.0
  0
LINE
  5
D5
330
1F
100
AcDbEntity
  8
0
  6
Continuous
 62
     7
100
AcDbLine
 10
-132.6647697144
 20
-27.7677245459
 30
0.0
 11
-127.1304257144
 21
-27.7677245459
 31
0.0
  0
LINE
  5
D6
330
1F
100
AcDbEntity
  8
0
  6
Continuous
 62
     7
100
AcDbLine
 10
-127.1304257144
 20
-27.7677245459
 30
0.0
 11
-121.5960757144
 21
-27.7677245459
 31
0.0
  0
LINE
  5
D7
330
1F
100
AcDbEntity
  8
0
  6
Continuous
 62
     7
100
AcDbLine
 10
-121.5960757144
 20
-27.7677245459
 30
0.0
 11
-121.5960757144
 21
-21.0803845459
 31
0.0
  0
LINE
  5
D8
330
1F
100
AcDbEntity
  8
0
  6
Continuous
 62
     7
100
AcDbLine
 10
-121.5960757144
 20
-21.0803845459
 30
0.0
 11
-121.5960757144
 21
-14.3930445459
 31
0.0
  0
LINE
  5
D9
330
1F
100
AcDbEntity
  8
0
  6
Continuous
 62
     7
100
AcDbLine
 10
-121.5960757144
 20
-14.3930445459
 30
0.0
 11
-125.2856517144
 21
-14.3930445459
 31
0.0
  0
LINE
  5
DA
330
1F
100
AcDbEntity
  8
0
  6
Continuous
 62
     7
100
AcDbLine
 10
-125.2856517144
 20
-14.3930445459
 30
0.0
 11
-128.9751997144
 21
-14.3930445459
 31
0.0
  0
LINE
  5
DB
330
1F
100
AcDbEntity
  8
0
  6
Continuous
 62
     7
100
AcDbLine
 10
-128.9751997144
 20
-14.3930445459
 30
0.0
 11
-128.9751997144
 21
-17.1602045459
 31
0.0
  0
LINE
  5
DC
330
1F
100
AcDbEntity
  8
0
  6
Continuous
 62
     7
100
AcDbLine
 10
-128.9751997144
 20
-17.1602045459
 30
0.0
 11
-128.9751997144
 21
-19.9273935459
 31
0.0
  0
LINE
  5
DD
330
1F
100
AcDbEntity
  8
0
  6
Continuous
 62
     7
100
AcDbLine
 10
-128.9751997144
 20
-19.9273935459
 30
0.0
 11
-130.8200017144
 21
-19.9273935459
 31
0.0
  0
LINE
  5
DE
330
1F
100
AcDbEntity
  8
0
  6
Continuous
 62
     7
100
AcDbLine
 10
-130.8200017144
 20
-19.9273935459
 30
0.0
 11
-132.6647697144
 21
-19.9273935459
 31
0.0
  0
LINE
  5
DF
330
1F
100
AcDbEntity
  8
0
  6
Continuous
 62
     7
100
AcDbLine
 10
-132.6647697144
 20
-19.9273935459
 30
0.0
 11
-132.6647697144
 21
-15.3154315459
 31
0.0
  0
LINE
  5
E0
330
1F
100
AcDbEntity
  8
0
  6
Continuous
 62
     7
100
AcDbLine
 10
-132.6647697144
 20
-15.3154315459
 30
0.0
 11
-132.6647697144
 21
-10.7034685459
 31
0.0
  0
LINE
  5
E1
330
1F
100
AcDbEntity
  8
0
  6
Continuous
 62
     7
100
AcDbLine
 10
-132.6647697144
 20
-10.7034685459
 30
0.0
 11
-125.3275337144
 21
-10.7034685459
 31
0.0
  0
LINE
  5
E2
330
1F
100
AcDbEntity
  8
0
  6
Continuous
 62
     7
100
AcDbLine
 10
-125.3275337144
 20
-10.7034685459
 30
0.0
 11
-117.9902917144
 21
-10.7034685459
 31
0.0
  0
LINE
  5
E3
330
1F
100
AcDbEntity
  8
0
  6
Continuous
 62
     7
100
AcDbLine
 10
-117.9902917144
 20
-10.7034685459
 30
0.0
 11
-117.8043917144
 21
-30.4195975459
 31
0.0
  0
LINE
  5
E4
330
1F
100
AcDbEntity
  8
0
  6
Continuous
 62
     7
100
AcDbLine
 10
-116.0617267144
 20
-27.0063455459
 30
0.0
 11
-116.0617267144
 21
-8.8586945459
 31
0.0
  0
LINE
  5
E5
330
1F
100
AcDbEntity
  8
0
  6
Continuous
 62
     7
100
AcDbLine
 10
-116.0617267144
 20
-8.8586945459
 30
0.0
 11
-125.2856517144
 21
-8.8586945459
 31
0.0
  0
LINE
  5
E6
330
1F
100
AcDbEntity
  8
0
  6
Continuous
 62
     7
100
AcDbLine
 10
-125.2856517144
 20
-8.8586945459
 30
0.0
 11
-134.5095427144
 21
-8.8586945459
 31
0.0
  0
LINE
  5
E7
330
1F
100
AcDbEntity
  8
0
  6
Continuous
 62
     7
100
AcDbLine
 10
-134.5095427144
 20
-8.8586945459
 30
0.0
 11
-134.5095427144
 21
-15.3154315459
 31
0.0
  0
LINE
  5
E8
330
1F
100
AcDbEntity
  8
0
  6
Continuous
 62
     7
100
AcDbLine
 10
-134.5095427144
 20
-15.3154315459
 30
0.0
 11
-134.5095427144
 21
-21.7721675459
 31
0.0
  0
LINE
  5
E9
330
1F
100
AcDbEntity
  8
0
  6
Continuous
 62
     7
100
AcDbLine
 10
-134.5095427144
 20
-21.7721675459
 30
0.0
 11
-130.8200017144
 21
-21.7721675459
 31
0.0
  0
LINE
  5
EA
330
1F
100
AcDbEntity
  8
0
  6
Continuous
 62
     7
100
AcDbLine
 10
-130.8200017144
 20
-21.7721675459
 30
0.0
 11
-127.1304257144
 21
-21.7721675459
 31
0.0
  0
LINE
  5
EB
330
1F
100
AcDbEntity
  8
0
  6
Continuous
 62
     7
100
AcDbLine
 10
-127.1304257144
 20
-21.7721675459
 30
0.0
 11
-127.1304257144
 21
-19.0050065459
 31
0.0
  0
LINE
  5
EC
330
1F
100
AcDbEntity
  8
0
  6
Continuous
 62
     7
100
AcDbLine
 10
-127.1304257144
 20
-19.0050065459
 30
0.0
 11
-127.1304257144
 21
-16.2378175459
 31
0.0
  0
LINE
  5
ED
330
1F
100
AcDbEntity
  8
0
  6
Continuous
 62
     7
100
AcDbLine
 10
-127.1304257144
 20
-16.2378175459
 30
0.0
 11
-125.2856517144
 21
-16.2378175459
 31
0.0
  0
LINE
  5
EE
330
1F
100
AcDbEntity
  8
0
  6
Continuous
 62
     7
100
AcDbLine
 10
-125.2856517144
 20
-16.2378175459
 30
0.0
 11
-123.4408497144
 21
-16.2378175459
 31
0.0
  0
LINE
  5
EF
330
1F
100
AcDbEntity
  8
0
  6
Continuous
 62
     7
100
AcDbLine
 10
-123.4408497144
 20
-16.2378175459
 30
0.0
 11
-123.4408497144
 21
-21.0803845459
 31
0.0
  0
LINE
  5
F0
330
1F
100
AcDbEntity
  8
0
  6
Continuous
 62
     7
100
AcDbLine
 10
-123.4408497144
 20
-21.0803845459
 30
0.0
 11
-123.4408497144
 21
-25.9229225459
 31
0.0
  0
LINE
  5
F1
330
1F
100
AcDbEntity
  8
0
  6
Continuous
 62
     7
100
AcDbLine
 10
-123.4408497144
 20
-25.9229225459
 30
0.0
 11
-128.9751997144
 21
-25.9229225459
 31
0.0
  0
LINE
  5
F2
330
1F
100
AcDbEntity
  8
0
  6
Continuous
 62
     7
100
AcDbLine
 10
-128.9751997144
 20
-25.9229225459
 30
0.0
 11
-134.5095427144
 21
-25.9229225459
 31
0.0
  0
LINE
  5
F3
330
1F
100
AcDbEntity
  8
0
  6
Continuous
 62
     7
100
AcDbLine
 10
-134.5095427144
 20
-25.9229225459
 30
0.0
 11
-134.5095427144
 21
-29.6124985459
 31
0.0
  0
LINE
  5
F4
330
1F
100
AcDbEntity
  8
0
  6
Continuous
 62
     7
100
AcDbLine
 10
-134.5095427144
 20
-29.6124985459
 30
0.0
 11
-134.5095427144
 21
-33.3020745459
 31
0.0
  0
LINE
  5
F5
330
1F
100
AcDbEntity
  8
0
  6
Continuous
 62
     7
100
AcDbLine
 10
-134.5095427144
 20
-33.3020745459
 30
0.0
 11
-128.9751997144
 21
-33.3020745459
 31
0.0
  0
LINE
  5
F6
330
1F
100
AcDbEntity
  8
0
  6
Continuous
 62
     7
100
AcDbLine
 10
-128.9751997144
 20
-33.3020745459
 30
0.0
 11
-123.4408497144
 21
-33.3020745459
 31
0.0
  0
LINE
  5
F7
330
1F
100
AcDbEntity
  8
0
  6
Continuous
 62
     7
100
AcDbLine
 10
-123.4408497144
 20
-33.3020745459
 30
0.0
 11
-123.4408497144
 21
-35.1468475459
 31
0.0
  0
LINE
  5
F8
330
1F
100
AcDbEntity
  8
0
  6
Continuous
 62
     7
100
AcDbLine
 10
-123.4408497144
 20
-35.1468475459
 30
0.0
 11
-123.4408497144
 21
-36.9916215459
 31
0.0
  0
LINE
  5
F9
330
1F
100
AcDbEntity
  8
0
  6
Continuous
 62
     7
100
AcDbLine
 10
-123.4408497144
 20
-36.9916215459
 30
0.0
 11
-128.9751997144
 21
-36.9916215459
 31
0.0
  0
LINE
  5
FA
330
1F
100
AcDbEntity
  8
0
  6
Continuous
 62
     7
100
AcDbLine
 10
-128.9751997144
 20
-36.9916215459
 30
0.0
 11
-134.5095427144
 21
-36.9916215459
 31
0.0
  0
LINE
  5
FB
330
1F
100
AcDbEntity
  8
0
  6
Continuous
 62
     7
100
AcDbLine
 10
-134.5095427144
 20
-36.9916215459
 30
0.0
 11
-134.4639357144
 21
-43.5636745459
 31
0.0
  0
LINE
  5
FC
330
1F
100
AcDbEntity
  8
0
  6
Continuous
 62
     7
100
AcDbLine
 10
-179.4133287144
 20
-45.6390515459
 30
0.0
 11
-179.1021497144
 21
-38.8364235459
 31
0.0
  0
LINE
  5
FD
330
1F
100
AcDbEntity
  8
0
  6
Continuous
 62
     7
100
AcDbLine
 10
-179.1021497144
 20
-38.8364235459
 30
0.0
 11
-173.6394847144
 21
-38.8364235459
 31
0.0
  0
LINE
  5
FE
330
1F
100
AcDbEntity
  8
0
  6
Continuous
 62
     7
100
AcDbLine
 10
-173.6394847144
 20
-38.8364235459
 30
0.0
 11
-168.1768477144
 21
-38.8364235459
 31
0.0
  0
LINE
  5
FF
330
1F
100
AcDbEntity
  8
0
  6
Continuous
 62
     7
100
AcDbLine
 10
-168.1768477144
 20
-38.8364235459
 30
0.0
 11
-168.1768477144
 21
-35.1468475459
 31
0.0
  0
LINE
  5
100
330
1F
100
AcDbEntity
  8
0
  6
Continuous
 62
     7
100
AcDbLine
 10
-168.1768477144
 20
-35.1468475459
 30
0.0
 11
-168.1768477144
 21
-31.4572725459
 31
0.0
  0
LINE
  5
101
330
1F
100
AcDbEntity
  8
0
  6
Continuous
 62
     7
100
AcDbLine
 10
-168.1768477144
 20
-31.4572725459
 30
0.0
 11
-173.7111977144
 21
-31.4572725459
 31
0.0
  0
LINE
  5
102
330
1F
100
AcDbEntity
  8
0
  6
Continuous
 62
     7
100
AcDbLine
 10
-173.7111977144
 20
-31.4572725459
 30
0.0
 11
-179.2455467144
 21
-31.4572725459
 31
0.0
  0
LINE
  5
103
330
1F
100
AcDbEntity
  8
0
  6
Continuous
 62
     7
100
AcDbLine
 10
-179.2455467144
 20
-31.4572725459
 30
0.0
 11
-179.2455467144
 21
-29.6124985459
 31
0.0
  0
LINE
  5
104
330
1F
100
AcDbEntity
  8
0
  6
Continuous
 62
     7
100
AcDbLine
 10
-179.2455467144
 20
-29.6124985459
 30
0.0
 11
-179.2455467144
 21
-27.7677245459
 31
0.0
  0
LINE
  5
105
330
1F
100
AcDbEntity
  8
0
  6
Continuous
 62
     7
100
AcDbLine
 10
-179.2455467144
 20
-27.7677245459
 30
0.0
 11
-173.7111977144
 21
-27.7677245459
 31
0.0
  0
LINE
  5
106
330
1F
100
AcDbEntity
  8
0
  6
Continuous
 62
     7
100
AcDbLine
 10
-173.7111977144
 20
-27.7677245459
 30
0.0
 11
-168.1768477144
 21
-27.7677245459
 31
0.0
  0
LINE
  5
107
330
1F
100
AcDbEntity
  8
0
  6
Continuous
 62
     7
100
AcDbLine
 10
-168.1768477144
 20
-27.7677245459
 30
0.0
 11
-168.1768477144
 21
-21.0803845459
 31
0.0
  0
LINE
  5
108
330
1F
100
AcDbEntity
  8
0
  6
Continuous
 62
     7
100
AcDbLine
 10
-168.1768477144
 20
-21.0803845459
 30
0.0
 11
-168.1768477144
 21
-14.3930445459
 31
0.0
  0
LINE
  5
109
330
1F
100
AcDbEntity
  8
0
  6
Continuous
 62
     7
100
AcDbLine
 10
-168.1768477144
 20
-14.3930445459
 30
0.0
 11
-171.8664237144
 21
-14.3930445459
 31
0.0
  0
LINE
  5
10A
330
1F
100
AcDbEntity
  8
0
  6
Continuous
 62
     7
100
AcDbLine
 10
-171.8664237144
 20
-14.3930445459
 30
0.0
 11
-175.5559717144
 21
-14.3930445459
 31
0.0
  0
LINE
  5
10B
330
1F
100
AcDbEntity
  8
0
  6
Continuous
 62
     7
100
AcDbLine
 10
-175.5559717144
 20
-14.3930445459
 30
0.0
 11
-175.5559717144
 21
-17.1602045459
 31
0.0
  0
LINE
  5
10C
330
1F
100
AcDbEntity
  8
0
  6
Continuous
 62
     7
100
AcDbLine
 10
-175.5559717144
 20
-17.1602045459
 30
0.0
 11
-175.5559717144
 21
-19.9273935459
 31
0.0
  0
LINE
  5
10D
330
1F
100
AcDbEntity
  8
0
  6
Continuous
 62
     7
100
AcDbLine
 10
-175.5559717144
 20
-19.9273935459
 30
0.0
 11
-177.4007737144
 21
-19.9273935459
 31
0.0
  0
LINE
  5
10E
330
1F
100
AcDbEntity
  8
0
  6
Continuous
 62
     7
100
AcDbLine
 10
-177.4007737144
 20
-19.9273935459
 30
0.0
 11
-179.2455467144
 21
-19.9273935459
 31
0.0
  0
LINE
  5
10F
330
1F
100
AcDbEntity
  8
0
  6
Continuous
 62
     7
100
AcDbLine
 10
-179.2455467144
 20
-19.9273935459
 30
0.0
 11
-179.2455467144
 21
-15.3154315459
 31
0.0
  0
LINE
  5
110
330
1F
100
AcDbEntity
  8
0
  6
Continuous
 62
     7
100
AcDbLine
 10
-179.2455467144
 20
-15.3154315459
 30
0.0
 11
-179.2455467144
 21
-10.7034685459
 31
0.0
  0
LINE
  5
111
330
1F
100
AcDbEntity
  8
0
  6
Continuous
 62
     7
100
AcDbLine
 10
-179.2455467144
 20
-10.7034685459
 30
0.0
 11
-171.9083057144
 21
-10.7034685459
 31
0.0
  0
LINE
  5
112
330
1F
100
AcDbEntity
  8
0
  6
Continuous
 62
     7
100
AcDbLine
 10
-171.9083057144
 20
-10.7034685459
 30
0.0
 11
-164.5710357144
 21
-10.7034685459
 31
0.0
  0
LINE
  5
113
330
1F
100
AcDbEntity
  8
0
  6
Continuous
 62
     7
100
AcDbLine
 10
-164.5710357144
 20
-10.7034685459
 30
0.0
 11
-164.3851647144
 21
-30.4195975459
 31
0.0
  0
LINE
  5
114
330
1F
100
AcDbEntity
  8
0
  6
Continuous
 62
     7
100
AcDbLine
 10
-162.6424987144
 20
-27.0063455459
 30
0.0
 11
-162.6424987144
 21
-8.8586945459
 31
0.0
  0
LINE
  5
115
330
1F
100
AcDbEntity
  8
0
  6
Continuous
 62
     7
100
AcDbLine
 10
-162.6424987144
 20
-8.8586945459
 30
0.0
 11
-171.8664237144
 21
-8.8586945459
 31
0.0
  0
LINE
  5
116
330
1F
100
AcDbEntity
  8
0
  6
Continuous
 62
     7
100
AcDbLine
 10
-171.8664237144
 20
-8.8586945459
 30
0.0
 11
-181.0903207144
 21
-8.8586945459
 31
0.0
  0
LINE
  5
117
330
1F
100
AcDbEntity
  8
0
  6
Continuous
 62
     7
100
AcDbLine
 10
-181.0903207144
 20
-8.8586945459
 30
0.0
 11
-181.0903207144
 21
-15.3154315459
 31
0.0
  0
LINE
  5
118
330
1F
100
AcDbEntity
  8
0
  6
Continuous
 62
     7
100
AcDbLine
 10
-181.0903207144
 20
-15.3154315459
 30
0.0
 11
-181.0903207144
 21
-21.7721675459
 31
0.0
  0
LINE
  5
119
330
1F
100
AcDbEntity
  8
0
  6
Continuous
 62
     7
100
AcDbLine
 10
-181.0903207144
 20
-21.7721675459
 30
0.0
 11
-177.4007737144
 21
-21.7721675459
 31
0.0
  0
LINE
  5
11A
330
1F
100
AcDbEntity
  8
0
  6
Continuous
 62
     7
100
AcDbLine
 10
-177.4007737144
 20
-21.7721675459
 30
0.0
 11
-173.7111977144
 21
-21.7721675459
 31
0.0
  0
LINE
  5
11B
330
1F
100
AcDbEntity
  8
0
  6
Continuous
 62
     7
100
AcDbLine
 10
-173.7111977144
 20
-21.7721675459
 30
0.0
 11
-173.7111977144
 21
-19.0050065459
 31
0.0
  0
LINE
  5
11C
330
1F
100
AcDbEntity
  8
0
  6
Continuous
 62
     7
100
AcDbLine
 10
-173.7111977144
 20
-19.0050065459
 30
0.0
 11
-173.7111977144
 21
-16.2378175459
 31
0.0
  0
LINE
  5
11D
330
1F
100
AcDbEntity
  8
0
  6
Continuous
 62
     7
100
AcDbLine
 10
-173.7111977144
 20
-16.2378175459
 30
0.0
 11
-171.8664237144
 21
-16.2378175459
 31
0.0
  0
LINE
  5
11E
330
1F
100
AcDbEntity
  8
0
  6
Continuous
 62
     7
100
AcDbLine
 10
-171.8664237144
 20
-16.2378175459
 30
0.0
 11
-170.0216217144
 21
-16.2378175459
 31
0.0
  0
LINE
  5
11F
330
1F
100
AcDbEntity
  8
0
  6
Continuous
 62
     7
100
AcDbLine
 10
-170.0216217144
 20
-16.2378175459
 30
0.0
 11
-170.0216217144
 21
-21.0803845459
 31
0.0
  0
LINE
  5
120
330
1F
100
AcDbEntity
  8
0
  6
Continuous
 62
     7
100
AcDbLine
 10
-170.0216217144
 20
-21.0803845459
 30
0.0
 11
-170.0216217144
 21
-25.9229225459
 31
0.0
  0
LINE
  5
121
330
1F
100
AcDbEntity
  8
0
  6
Continuous
 62
     7
100
AcDbLine
 10
-170.0216217144
 20
-25.9229225459
 30
0.0
 11
-175.5559717144
 21
-25.9229225459
 31
0.0
  0
LINE
  5
122
330
1F
100
AcDbEntity
  8
0
  6
Continuous
 62
     7
100
AcDbLine
 10
-175.5559717144
 20
-25.9229225459
 30
0.0
 11
-181.0903207144
 21
-25.9229225459
 31
0.0
  0
LINE
  5
123
330
1F
100
AcDbEntity
  8
0
  6
Continuous
 62
     7
100
AcDbLine
 10
-181.0903207144
 20
-25.9229225459
 30
0.0
 11
-181.0903207144
 21
-29.6124985459
 31
0.0
  0
LINE
  5
124
330
1F
100
AcDbEntity
  8
0
  6
Continuous
 62
     7
100
AcDbLine
 10
-181.0903207144
 20
-29.6124985459
 30
0.0
 11
-181.0903207144
 21
-33.3020745459
 31
0.0
  0
LINE
  5
125
330
1F
100
AcDbEntity
  8
0
  6
Continuous
 62
     7
100
AcDbLine
 10
-181.0903207144
 20
-33.3020745459
 30
0.0
 11
-175.5559717144
 21
-33.3020745459
 31
0.0
  0
LINE
  5
126
330
1F
100
AcDbEntity
  8
0
  6
Continuous
 62
     7
100
AcDbLine
 10
-175.5559717144
 20
-33.3020745459
 30
0.0
 11
-170.0216217144
 21
-33.3020745459
 31
0.0
  0
LINE
  5
127
330
1F
100
AcDbEntity
  8
0
  6
Continuous
 62
     7
100
AcDbLine
 10
-170.0216217144
 20
-33.3020745459
 30
0.0
 11
-170.0216217144
 21
-35.1468475459
 31
0.0
  0
LINE
  5
128
330
1F
100
AcDbEntity
  8
0
  6
Continuous
 62
     7
100
AcDbLine
 10
-170.0216217144
 20
-35.1468475459
 30
0.0
 11
-170.0216217144
 21
-36.9916215459
 31
0.0
  0
LINE
  5
129
330
1F
100
AcDbEntity
  8
0
  6
Continuous
 62
     7
100
AcDbLine
 10
-170.0216217144
 20
-36.9916215459
 30
0.0
 11
-175.5559717144
 21
-36.9916215459
 31
0.0
  0
LINE
  5
12A
330
1F
100
AcDbEntity
  8
0
  6
Continuous
 62
     7
100
AcDbLine
 10
-175.5559717144
 20
-36.9916215459
 30
0.0
 11
-181.0903207144
 21
-36.9916215459
 31
0.0
  0
LINE
  5
12B
330
1F
100
AcDbEntity
  8
0
  6
Continuous
 62
     7
100
AcDbLine
 10
-181.0903207144
 20
-36.9916215459
 30
0.0
 11
-181.0447137144
 21
-43.5636745459
 31
0.0
  0
LINE
  5
12C
330
1F
100
AcDbEntity
  8
0
  6
Continuous
 62
     7
100
AcDbLine
 10
-264.2733457144
 20
-45.6390515459
 30
0.0
 11
-263.9621667144
 21
-38.8364235459
 31
0.0
  0
LINE
  5
12D
330
1F
100
AcDbEntity
  8
0
  6
Continuous
 62
     7
100
AcDbLine
 10
-263.9621667144
 20
-38.8364235459
 30
0.0
 11
-258.4995307144
 21
-38.8364235459
 31
0.0
  0
LINE
  5
12E
330
1F
100
AcDbEntity
  8
0
  6
Continuous
 62
     7
100
AcDbLine
 10
-258.4995307144
 20
-38.8364235459
 30
0.0
 11
-253.0368647144
 21
-38.8364235459
 31
0.0
  0
LINE
  5
12F
330
1F
100
AcDbEntity
  8
0
  6
Continuous
 62
     7
100
AcDbLine
 10
-253.0368647144
 20
-38.8364235459
 30
0.0
 11
-253.0368647144
 21
-35.1468475459
 31
0.0
  0
LINE
  5
130
330
1F
100
AcDbEntity
  8
0
  6
Continuous
 62
     7
100
AcDbLine
 10
-253.0368647144
 20
-35.1468475459
 30
0.0
 11
-253.0368647144
 21
-31.4572725459
 31
0.0
  0
LINE
  5
131
330
1F
100
AcDbEntity
  8
0
  6
Continuous
 62
     7
100
AcDbLine
 10
-253.0368647144
 20
-31.4572725459
 30
0.0
 11
-258.5712147144
 21
-31.4572725459
 31
0.0
  0
LINE
  5
132
330
1F
100
AcDbEntity
  8
0
  6
Continuous
 62
     7
100
AcDbLine
 10
-258.5712147144
 20
-31.4572725459
 30
0.0
 11
-264.1055647144
 21
-31.4572725459
 31
0.0
  0
LINE
  5
133
330
1F
100
AcDbEntity
  8
0
  6
Continuous
 62
     7
100
AcDbLine
 10
-264.1055647144
 20
-31.4572725459
 30
0.0
 11
-264.1055647144
 21
-29.6124985459
 31
0.0
  0
LINE
  5
134
330
1F
100
AcDbEntity
  8
0
  6
Continuous
 62
     7
100
AcDbLine
 10
-264.1055647144
 20
-29.6124985459
 30
0.0
 11
-264.1055647144
 21
-27.7677245459
 31
0.0
  0
LINE
  5
135
330
1F
100
AcDbEntity
  8
0
  6
Continuous
 62
     7
100
AcDbLine
 10
-264.1055647144
 20
-27.7677245459
 30
0.0
 11
-258.5712147144
 21
-27.7677245459
 31
0.0
  0
LINE
  5
136
330
1F
100
AcDbEntity
  8
0
  6
Continuous
 62
     7
100
AcDbLine
 10
-258.5712147144
 20
-27.7677245459
 30
0.0
 11
-253.0368647144
 21
-27.7677245459
 31
0.0
  0
LINE
  5
137
330
1F
100
AcDbEntity
  8
0
  6
Continuous
 62
     7
100
AcDbLine
 10
-253.0368647144
 20
-27.7677245459
 30
0.0
 11
-253.0368647144
 21
-21.0803845459
 31
0.0
  0
LINE
  5
138
330
1F
100
AcDbEntity
  8
0
  6
Continuous
 62
     7
100
AcDbLine
 10
-253.0368647144
 20
-21.0803845459
 30
0.0
 11
-253.0368647144
 21
-14.3930445459
 31
0.0
  0
LINE
  5
139
330
1F
100
AcDbEntity
  8
0
  6
Continuous
 62
     7
100
AcDbLine
 10
-253.0368647144
 20
-14.3930445459
 30
0.0
 11
-256.7264407144
 21
-14.3930445459
 31
0.0
  0
LINE
  5
13A
330
1F
100
AcDbEntity
  8
0
  6
Continuous
 62
     7
100
AcDbLine
 10
-256.7264407144
 20
-14.3930445459
 30
0.0
 11
-260.4160167144
 21
-14.3930445459
 31
0.0
  0
LINE
  5
13B
330
1F
100
AcDbEntity
  8
0
  6
Continuous
 62
     7
100
AcDbLine
 10
-260.4160167144
 20
-14.3930445459
 30
0.0
 11
-260.4160167144
 21
-17.1602045459
 31
0.0
  0
LINE
  5
13C
330
1F
100
AcDbEntity
  8
0
  6
Continuous
 62
     7
100
AcDbLine
 10
-260.4160167144
 20
-17.1602045459
 30
0.0
 11
-260.4160167144
 21
-19.9273935459
 31
0.0
  0
LINE
  5
13D
330
1F
100
AcDbEntity
  8
0
  6
Continuous
 62
     7
100
AcDbLine
 10
-260.4160167144
 20
-19.9273935459
 30
0.0
 11
-262.2607907144
 21
-19.9273935459
 31
0.0
  0
LINE
  5
13E
330
1F
100
AcDbEntity
  8
0
  6
Continuous
 62
     7
100
AcDbLine
 10
-262.2607907144
 20
-19.9273935459
 30
0.0
 11
-264.1055647144
 21
-19.9273935459
 31
0.0
  0
LINE
  5
13F
330
1F
100
AcDbEntity
  8
0
  6
Continuous
 62
     7
100
AcDbLine
 10
-264.1055647144
 20
-19.9273935459
 30
0.0
 11
-264.1055647144
 21
-15.3154315459
 31
0.0
  0
LINE
  5
140
330
1F
100
AcDbEntity
  8
0
  6
Continuous
 62
     7
100
AcDbLine
 10
-264.1055647144
 20
-15.3154315459
 30
0.0
 11
-264.1055647144
 21
-10.7034685459
 31
0.0
  0
LINE
  5
141
330
1F
100
AcDbEntity
  8
0
  6
Continuous
 62
     7
100
AcDbLine
 10
-264.1055647144
 20
-10.7034685459
 30
0.0
 11
-256.7683227144
 21
-10.7034685459
 31
0.0
  0
LINE
  5
142
330
1F
100
AcDbEntity
  8
0
  6
Continuous
 62
     7
100
AcDbLine
 10
-256.7683227144
 20
-10.7034685459
 30
0.0
 11
-249.4310807144
 21
-10.7034685459
 31
0.0
  0
LINE
  5
143
330
1F
100
AcDbEntity
  8
0
  6
Continuous
 62
     7
100
AcDbLine
 10
-249.4310807144
 20
-10.7034685459
 30
0.0
 11
-249.2451817144
 21
-30.4195975459
 31
0.0
  0
LINE
  5
144
330
1F
100
AcDbEntity
  8
0
  6
Continuous
 62
     7
100
AcDbLine
 10
-247.5025157144
 20
-27.0063455459
 30
0.0
 11
-247.5025157144
 21
-8.8586945459
 31
0.0
  0
LINE
  5
145
330
1F
100
AcDbEntity
  8
0
  6
Continuous
 62
     7
100
AcDbLine
 10
-247.5025157144
 20
-8.8586945459
 30
0.0
 11
-256.7264407144
 21
-8.8586945459
 31
0.0
  0
LINE
  5
146
330
1F
100
AcDbEntity
  8
0
  6
Continuous
 62
     7
100
AcDbLine
 10
-256.7264407144
 20
-8.8586945459
 30
0.0
 11
-265.9503667144
 21
-8.8586945459
 31
0.0
  0
LINE
  5
147
330
1F
100
AcDbEntity
  8
0
  6
Continuous
 62
     7
100
AcDbLine
 10
-265.9503667144
 20
-8.8586945459
 30
0.0
 11
-265.9503667144
 21
-15.3154315459
 31
0.0
  0
LINE
  5
148
330
1F
100
AcDbEntity
  8
0
  6
Continuous
 62
     7
100
AcDbLine
 10
-265.9503667144
 20
-15.3154315459
 30
0.0
 11
-265.9503667144
 21
-21.7721675459
 31
0.0
  0
LINE
  5
149
330
1F
100
AcDbEntity
  8
0
  6
Continuous
 62
     7
100
AcDbLine
 10
-265.9503667144
 20
-21.7721675459
 30
0.0
 11
-262.2607907144
 21
-21.7721675459
 31
0.0
  0
LINE
  5
14A
330
1F
100
AcDbEntity
  8
0
  6
Continuous
 62
     7
100
AcDbLine
 10
-262.2607907144
 20
-21.7721675459
 30
0.0
 11
-258.5712147144
 21
-21.7721675459
 31
0.0
  0
LINE
  5
14B
330
1F
100
AcDbEntity
  8
0
  6
Continuous
 62
     7
100
AcDbLine
 10
-258.5712147144
 20
-21.7721675459
 30
0.0
 11
-258.5712147144
 21
-19.0050065459
 31
0.0
  0
LINE
  5
14C
330
1F
100
AcDbEntity
  8
0
  6
Continuous
 62
     7
100
AcDbLine
 10
-258.5712147144
 20
-19.0050065459
 30
0.0
 11
-258.5712147144
 21
-16.2378175459
 31
0.0
  0
LINE
  5
14D
330
1F
100
AcDbEntity
  8
0
  6
Continuous
 62
     7
100
AcDbLine
 10
-258.5712147144
 20
-16.2378175459
 30
0.0
 11
-256.7264407144
 21
-16.2378175459
 31
0.0
  0
LINE
  5
14E
330
1F
100
AcDbEntity
  8
0
  6
Continuous
 62
     7
100
AcDbLine
 10
-256.7264407144
 20
-16.2378175459
 30
0.0
 11
-254.8816667144
 21
-16.2378175459
 31
0.0
  0
LINE
  5
14F
330
1F
100
AcDbEntity
  8
0
  6
Continuous
 62
     7
100
AcDbLine
 10
-254.8816667144
 20
-16.2378175459
 30
0.0
 11
-254.8816667144
 21
-21.0803845459
 31
0.0
  0
LINE
  5
150
330
1F
100
AcDbEntity
  8
0
  6
Continuous
 62
     7
100
AcDbLine
 10
-254.8816667144
 20
-21.0803845459
 30
0.0
 11
-254.8816667144
 21
-25.9229225459
 31
0.0
  0
LINE
  5
151
330
1F
100
AcDbEntity
  8
0
  6
Continuous
 62
     7
100
AcDbLine
 10
-254.8816667144
 20
-25.9229225459
 30
0.0
 11
-260.4160167144
 21
-25.9229225459
 31
0.0
  0
LINE
  5
152
330
1F
100
AcDbEntity
  8
0
  6
Continuous
 62
     7
100
AcDbLine
 10
-260.4160167144
 20
-25.9229225459
 30
0.0
 11
-265.9503667144
 21
-25.9229225459
 31
0.0
  0
LINE
  5
153
330
1F
100
AcDbEntity
  8
0
  6
Continuous
 62
     7
100
AcDbLine
 10
-265.9503667144
 20
-25.9229225459
 30
0.0
 11
-265.9503667144
 21
-29.6124985459
 31
0.0
  0
LINE
  5
154
330
1F
100
AcDbEntity
  8
0
  6
Continuous
 62
     7
100
AcDbLine
 10
-265.9503667144
 20
-29.6124985459
 30
0.0
 11
-265.9503667144
 21
-33.3020745459
 31
0.0
  0
LINE
  5
155
330
1F
100
AcDbEntity
  8
0
  6
Continuous
 62
     7
100
AcDbLine
 10
-265.9503667144
 20
-33.3020745459
 30
0.0
 11
-260.4160167144
 21
-33.3020745459
 31
0.0
  0
LINE
  5
156
330
1F
100
AcDbEntity
  8
0
  6
Continuous
 62
     7
100
AcDbLine
 10
-260.4160167144
 20
-33.3020745459
 30
0.0
 11
-254.8816667144
 21
-33.3020745459
 31
0.0
  0
LINE
  5
157
330
1F
100
AcDbEntity
  8
0
  6
Continuous
 62
     7
100
AcDbLine
 10
-254.8816667144
 20
-33.3020745459
 30
0.0
 11
-254.8816667144
 21
-35.1468475459
 31
0.0
  0
LINE
  5
158
330
1F
100
AcDbEntity
  8
0
  6
Continuous
 62
     7
100
AcDbLine
 10
-254.8816667144
 20
-35.1468475459
 30
0.0
 11
-254.8816667144
 21
-36.9916215459
 31
0.0
  0
LINE
  5
159
330
1F
100
AcDbEntity
  8
0
  6
Continuous
 62
     7
100
AcDbLine
 10
-254.8816667144
 20
-36.9916215459
 30
0.0
 11
-260.4160167144
 21
-36.9916215459
 31
0.0
  0
LINE
  5
15A
330
1F
100
AcDbEntity
  8
0
  6
Continuous
 62
     7
100
AcDbLine
 10
-260.4160167144
 20
-36.9916215459
 30
0.0
 11
-265.9503667144
 21
-36.9916215459
 31
0.0
  0
LINE
  5
15B
330
1F
100
AcDbEntity
  8
0
  6
Continuous
 62
     7
100
AcDbLine
 10
-265.9503667144
 20
-36.9916215459
 30
0.0
 11
-265.9047587144
 21
-43.5636745459
 31
0.0
  0
LINE
  5
15C
330
1F
100
AcDbEntity
  8
0
  6
Continuous
 62
     7
100
AcDbLine
 10
-139.1215057144
 20
-28.1593365459
 30
0.0
 11
-139.1215057144
 21
-8.8586945459
 31
0.0
  0
LINE
  5
15D
330
1F
100
AcDbEntity
  8
0
  6
Continuous
 62
     7
100
AcDbLine
 10
-139.1215057144
 20
-8.8586945459
 30
0.0
 11
-148.3454307144
 21
-8.8586945459
 31
0.0
  0
LINE
  5
15E
330
1F
100
AcDbEntity
  8
0
  6
Continuous
 62
     7
100
AcDbLine
 10
-148.3454307144
 20
-8.8586945459
 30
0.0
 11
-157.5693567144
 21
-8.8586945459
 31
0.0
  0
LINE
  5
15F
330
1F
100
AcDbEntity
  8
0
  6
Continuous
 62
     7
100
AcDbLine
 10
-157.5693567144
 20
-8.8586945459
 30
0.0
 11
-157.5693567144
 21
-18.0826195459
 31
0.0
  0
LINE
  5
160
330
1F
100
AcDbEntity
  8
0
  6
Continuous
 62
     7
100
AcDbLine
 10
-155.0474467144
 20
-28.4189805459
 30
0.0
 11
-153.2173487144
 21
-29.5267315459
 31
0.0
  0
LINE
  5
161
330
1F
100
AcDbEntity
  8
0
  6
Continuous
 62
     7
100
AcDbLine
 10
-153.2173487144
 20
-29.5267315459
 30
0.0
 11
-155.3933387144
 21
-30.5839075459
 31
0.0
  0
LINE
  5
162
330
1F
100
AcDbEntity
  8
0
  6
Continuous
 62
     7
100
AcDbLine
 10
-155.3933387144
 20
-30.5839075459
 30
0.0
 11
-157.5693567144
 21
-31.6410835459
 31
0.0
  0
LINE
  5
163
330
1F
100
AcDbEntity
  8
0
  6
Continuous
 62
     7
100
AcDbLine
 10
-157.5693567144
 20
-31.6410835459
 30
0.0
 11
-157.5237207144
 21
-38.8130275459
 31
0.0
  0
LINE
  5
164
330
1F
100
AcDbEntity
  8
0
  6
Continuous
 62
     7
100
AcDbLine
 10
-155.7797567144
 20
-40.2284565459
 30
0.0
 11
-155.4939787144
 21
-32.6102625459
 31
0.0
  0
LINE
  5
165
330
1F
100
AcDbEntity
  8
0
  6
Continuous
 62
     7
100
AcDbLine
 10
-155.4939787144
 20
-32.6102625459
 30
0.0
 11
-152.8709777144
 21
-31.2171295459
 31
0.0
  0
LINE
  5
166
330
1F
100
AcDbEntity
  8
0
  6
Continuous
 62
     7
100
AcDbLine
 10
-152.6724337144
 20
-27.6912425459
 30
0.0
 11
-155.7245547144
 21
-26.1861515459
 31
0.0
  0
LINE
  5
167
330
1F
100
AcDbEntity
  8
0
  6
Continuous
 62
     7
100
AcDbLine
 10
-155.7245547144
 20
-26.1861515459
 30
0.0
 11
-155.7245547144
 21
-18.4448235459
 31
0.0
  0
LINE
  5
168
330
1F
100
AcDbEntity
  8
0
  6
Continuous
 62
     7
100
AcDbLine
 10
-155.7245547144
 20
-18.4448235459
 30
0.0
 11
-155.7245547144
 21
-10.7034685459
 31
0.0
  0
LINE
  5
169
330
1F
100
AcDbEntity
  8
0
  6
Continuous
 62
     7
100
AcDbLine
 10
-155.7245547144
 20
-10.7034685459
 30
0.0
 11
-148.3855627144
 21
-10.7034685459
 31
0.0
  0
LINE
  5
16A
330
1F
100
AcDbEntity
  8
0
  6
Continuous
 62
     7
100
AcDbLine
 10
-148.3855627144
 20
-10.7034685459
 30
0.0
 11
-141.0465437144
 21
-10.7034685459
 31
0.0
  0
LINE
  5
16B
330
1F
100
AcDbEntity
  8
0
  6
Continuous
 62
     7
100
AcDbLine
 10
-141.0465437144
 20
-10.7034685459
 30
0.0
 11
-140.8647357144
 21
-31.5725885459
 31
0.0
  0
LINE
  5
16C
330
1F
100
AcDbEntity
  8
0
  6
Continuous
 62
     7
100
AcDbLine
 10
-185.7022837144
 20
-28.1593365459
 30
0.0
 11
-185.7022837144
 21
-8.8586945459
 31
0.0
  0
LINE
  5
16D
330
1F
100
AcDbEntity
  8
0
  6
Continuous
 62
     7
100
AcDbLine
 10
-185.7022837144
 20
-8.8586945459
 30
0.0
 11
-189.3918597144
 21
-8.8586945459
 31
0.0
  0
LINE
  5
16E
330
1F
100
AcDbEntity
  8
0
  6
Continuous
 62
     7
100
AcDbLine
 10
-189.3918597144
 20
-8.8586945459
 30
0.0
 11
-193.0814347144
 21
-8.8586945459
 31
0.0
  0
LINE
  5
16F
330
1F
100
AcDbEntity
  8
0
  6
Continuous
 62
     7
100
AcDbLine
 10
-193.0814347144
 20
-8.8586945459
 30
0.0
 11
-193.0814347144
 21
-22.9251585459
 31
0.0
  0
LINE
  5
170
330
1F
100
AcDbEntity
  8
0
  6
Continuous
 62
     7
100
AcDbLine
 10
-193.0814347144
 20
-22.9251585459
 30
0.0
 11
-193.0814347144
 21
-36.9916215459
 31
0.0
  0
LINE
  5
171
330
1F
100
AcDbEntity
  8
0
  6
Continuous
 62
     7
100
AcDbLine
 10
-193.0814347144
 20
-36.9916215459
 30
0.0
 11
-195.8485957144
 21
-36.9916215459
 31
0.0
  0
LINE
  5
172
330
1F
100
AcDbEntity
  8
0
  6
Continuous
 62
     7
100
AcDbLine
 10
-195.8485957144
 20
-36.9916215459
 30
0.0
 11
-198.6157847144
 21
-36.9916215459
 31
0.0
  0
LINE
  5
173
330
1F
100
AcDbEntity
  8
0
  6
Continuous
 62
     7
100
AcDbLine
 10
-198.6157847144
 20
-36.9916215459
 30
0.0
 11
-198.6126807144
 21
-40.3353055459
 31
0.0
  0
LINE
  5
174
330
1F
100
AcDbEntity
  8
0
  6
Continuous
 62
     7
100
AcDbLine
 10
-196.9651237144
 20
-44.0248815459
 30
0.0
 11
-196.6398337144
 21
-38.8364235459
 31
0.0
  0
LINE
  5
175
330
1F
100
AcDbEntity
  8
0
  6
Continuous
 62
     7
100
AcDbLine
 10
-196.6398337144
 20
-38.8364235459
 30
0.0
 11
-193.9382897144
 21
-38.8364235459
 31
0.0
  0
LINE
  5
176
330
1F
100
AcDbEntity
  8
0
  6
Continuous
 62
     7
100
AcDbLine
 10
-193.9382897144
 20
-38.8364235459
 30
0.0
 11
-191.2367747144
 21
-38.8364235459
 31
0.0
  0
LINE
  5
177
330
1F
100
AcDbEntity
  8
0
  6
Continuous
 62
     7
100
AcDbLine
 10
-191.2367747144
 20
-38.8364235459
 30
0.0
 11
-191.2367747144
 21
-24.7699315459
 31
0.0
  0
LINE
  5
178
330
1F
100
AcDbEntity
  8
0
  6
Continuous
 62
     7
100
AcDbLine
 10
-191.2367747144
 20
-24.7699315459
 30
0.0
 11
-191.2367747144
 21
-10.7034685459
 31
0.0
  0
LINE
  5
179
330
1F
100
AcDbEntity
  8
0
  6
Continuous
 62
     7
100
AcDbLine
 10
-191.2367747144
 20
-10.7034685459
 30
0.0
 11
-189.4321047144
 21
-10.7034685459
 31
0.0
  0
LINE
  5
17A
330
1F
100
AcDbEntity
  8
0
  6
Continuous
 62
     7
100
AcDbLine
 10
-189.4321047144
 20
-10.7034685459
 30
0.0
 11
-187.6274347144
 21
-10.7034685459
 31
0.0
  0
LINE
  5
17B
330
1F
100
AcDbEntity
  8
0
  6
Continuous
 62
     7
100
AcDbLine
 10
-187.6274347144
 20
-10.7034685459
 30
0.0
 11
-187.4456547144
 21
-31.5725885459
 31
0.0
  0
LINE
  5
17C
330
1F
100
AcDbEntity
  8
0
  6
Continuous
 62
     7
100
AcDbLine
 10
-186.0076477144
 20
-51.0709265459
 30
0.0
 11
-186.0075347144
 21
-51.0709265459
 31
0.0
  0
LINE
  5
17D
330
1F
100
AcDbEntity
  8
0
  6
Continuous
 62
     7
100
AcDbLine
 10
-287.3183137144
 20
-42.6412875459
 30
0.0
 11
-287.0332977144
 21
-33.3020745459
 31
0.0
  0
LINE
  5
17E
330
1F
100
AcDbEntity
  8
0
  6
Continuous
 62
     7
100
AcDbLine
 10
-287.0332977144
 20
-33.3020745459
 30
0.0
 11
-285.2545357144
 21
-33.3020745459
 31
0.0
  0
LINE
  5
17F
330
1F
100
AcDbEntity
  8
0
  6
Continuous
 62
     7
100
AcDbLine
 10
-285.2545357144
 20
-33.3020745459
 30
0.0
 11
-283.4758017144
 21
-33.3020745459
 31
0.0
  0
LINE
  5
180
330
1F
100
AcDbEntity
  8
0
  6
Continuous
 62
     7
100
AcDbLine
 10
-283.4758017144
 20
-33.3020745459
 30
0.0
 11
-283.4758017144
 21
-36.0692345459
 31
0.0
  0
LINE
  5
181
330
1F
100
AcDbEntity
  8
0
  6
Continuous
 62
     7
100
AcDbLine
 10
-283.4758017144
 20
-36.0692345459
 30
0.0
 11
-283.4758017144
 21
-38.8364235459
 31
0.0
  0
LINE
  5
182
330
1F
100
AcDbEntity
  8
0
  6
Continuous
 62
     7
100
AcDbLine
 10
-283.4758017144
 20
-38.8364235459
 30
0.0
 11
-279.7862257144
 21
-38.8364235459
 31
0.0
  0
LINE
  5
183
330
1F
100
AcDbEntity
  8
0
  6
Continuous
 62
     7
100
AcDbLine
 10
-279.7862257144
 20
-38.8364235459
 30
0.0
 11
-276.0966787144
 21
-38.8364235459
 31
0.0
  0
LINE
  5
184
330
1F
100
AcDbEntity
  8
0
  6
Continuous
 62
     7
100
AcDbLine
 10
-276.0966787144
 20
-38.8364235459
 30
0.0
 11
-276.0966787144
 21
-26.6147335459
 31
0.0
  0
LINE
  5
185
330
1F
100
AcDbEntity
  8
0
  6
Continuous
 62
     7
100
AcDbLine
 10
-276.0966787144
 20
-26.6147335459
 30
0.0
 11
-276.0966787144
 21
-14.3930445459
 31
0.0
  0
LINE
  5
186
330
1F
100
AcDbEntity
  8
0
  6
Continuous
 62
     7
100
AcDbLine
 10
-276.0966787144
 20
-14.3930445459
 30
0.0
 11
-279.7862257144
 21
-14.3930445459
 31
0.0
  0
LINE
  5
187
330
1F
100
AcDbEntity
  8
0
  6
Continuous
 62
     7
100
AcDbLine
 10
-279.7862257144
 20
-14.3930445459
 30
0.0
 11
-283.4758017144
 21
-14.3930445459
 31
0.0
  0
LINE
  5
188
330
1F
100
AcDbEntity
  8
0
  6
Continuous
 62
     7
100
AcDbLine
 10
-283.4758017144
 20
-14.3930445459
 30
0.0
 11
-283.4758017144
 21
-17.1602045459
 31
0.0
  0
LINE
  5
189
330
1F
100
AcDbEntity
  8
0
  6
Continuous
 62
     7
100
AcDbLine
 10
-283.4758017144
 20
-17.1602045459
 30
0.0
 11
-283.4758017144
 21
-19.9273935459
 31
0.0
  0
LINE
  5
18A
330
1F
100
AcDbEntity
  8
0
  6
Continuous
 62
     7
100
AcDbLine
 10
-283.4758017144
 20
-19.9273935459
 30
0.0
 11
-285.3205757144
 21
-19.9273935459
 31
0.0
  0
LINE
  5
18B
330
1F
100
AcDbEntity
  8
0
  6
Continuous
 62
     7
100
AcDbLine
 10
-285.3205757144
 20
-19.9273935459
 30
0.0
 11
-287.1653777144
 21
-19.9273935459
 31
0.0
  0
LINE
  5
18C
330
1F
100
AcDbEntity
  8
0
  6
Continuous
 62
     7
100
AcDbLine
 10
-287.1653777144
 20
-19.9273935459
 30
0.0
 11
-287.1653777144
 21
-15.3154315459
 31
0.0
  0
LINE
  5
18D
330
1F
100
AcDbEntity
  8
0
  6
Continuous
 62
     7
100
AcDbLine
 10
-287.1653777144
 20
-15.3154315459
 30
0.0
 11
-287.1653777144
 21
-10.7034685459
 31
0.0
  0
LINE
  5
18E
330
1F
100
AcDbEntity
  8
0
  6
Continuous
 62
     7
100
AcDbLine
 10
-287.1653777144
 20
-10.7034685459
 30
0.0
 11
-279.8292367144
 21
-10.7034685459
 31
0.0
  0
LINE
  5
18F
330
1F
100
AcDbEntity
  8
0
  6
Continuous
 62
     7
100
AcDbLine
 10
-279.8292367144
 20
-10.7034685459
 30
0.0
 11
-272.4931237144
 21
-10.7034685459
 31
0.0
  0
LINE
  5
190
330
1F
100
AcDbEntity
  8
0
  6
Continuous
 62
     7
100
AcDbLine
 10
-272.4931237144
 20
-10.7034685459
 30
0.0
 11
-272.3045717144
 21
-29.7278145459
 31
0.0
  0
LINE
  5
191
330
1F
100
AcDbEntity
  8
0
  6
Continuous
 62
     7
100
AcDbLine
 10
-270.5623287144
 20
-26.3145625459
 30
0.0
 11
-270.5623287144
 21
-8.8586945459
 31
0.0
  0
LINE
  5
192
330
1F
100
AcDbEntity
  8
0
  6
Continuous
 62
     7
100
AcDbLine
 10
-270.5623287144
 20
-8.8586945459
 30
0.0
 11
-279.7862257144
 21
-8.8586945459
 31
0.0
  0
LINE
  5
193
330
1F
100
AcDbEntity
  8
0
  6
Continuous
 62
     7
100
AcDbLine
 10
-279.7862257144
 20
-8.8586945459
 30
0.0
 11
-289.0101517144
 21
-8.8586945459
 31
0.0
  0
LINE
  5
194
330
1F
100
AcDbEntity
  8
0
  6
Continuous
 62
     7
100
AcDbLine
 10
-289.0101517144
 20
-8.8586945459
 30
0.0
 11
-289.0101517144
 21
-15.3154315459
 31
0.0
  0
LINE
  5
195
330
1F
100
AcDbEntity
  8
0
  6
Continuous
 62
     7
100
AcDbLine
 10
-289.0101517144
 20
-15.3154315459
 30
0.0
 11
-289.0101517144
 21
-21.7721675459
 31
0.0
  0
LINE
  5
196
330
1F
100
AcDbEntity
  8
0
  6
Continuous
 62
     7
100
AcDbLine
 10
-289.0101517144
 20
-21.7721675459
 30
0.0
 11
-285.3205757144
 21
-21.7721675459
 31
0.0
  0
LINE
  5
197
330
1F
100
AcDbEntity
  8
0
  6
Continuous
 62
     7
100
AcDbLine
 10
-285.3205757144
 20
-21.7721675459
 30
0.0
 11
-281.6310277144
 21
-21.7721675459
 31
0.0
  0
LINE
  5
198
330
1F
100
AcDbEntity
  8
0
  6
Continuous
 62
     7
100
AcDbLine
 10
-281.6310277144
 20
-21.7721675459
 30
0.0
 11
-281.6310277144
 21
-19.0050065459
 31
0.0
  0
LINE
  5
199
330
1F
100
AcDbEntity
  8
0
  6
Continuous
 62
     7
100
AcDbLine
 10
-281.6310277144
 20
-19.0050065459
 30
0.0
 11
-281.6310277144
 21
-16.2378175459
 31
0.0
  0
LINE
  5
19A
330
1F
100
AcDbEntity
  8
0
  6
Continuous
 62
     7
100
AcDbLine
 10
-281.6310277144
 20
-16.2378175459
 30
0.0
 11
-279.7862257144
 21
-16.2378175459
 31
0.0
  0
LINE
  5
19B
330
1F
100
AcDbEntity
  8
0
  6
Continuous
 62
     7
100
AcDbLine
 10
-279.7862257144
 20
-16.2378175459
 30
0.0
 11
-277.9414527144
 21
-16.2378175459
 31
0.0
  0
LINE
  5
19C
330
1F
100
AcDbEntity
  8
0
  6
Continuous
 62
     7
100
AcDbLine
 10
-277.9414527144
 20
-16.2378175459
 30
0.0
 11
-277.9414527144
 21
-26.6147335459
 31
0.0
  0
LINE
  5
19D
330
1F
100
AcDbEntity
  8
0
  6
Continuous
 62
     7
100
AcDbLine
 10
-277.9414527144
 20
-26.6147335459
 30
0.0
 11
-277.9414527144
 21
-36.9916495459
 31
0.0
  0
LINE
  5
19E
330
1F
100
AcDbEntity
  8
0
  6
Continuous
 62
     7
100
AcDbLine
 10
-277.9414527144
 20
-36.9916495459
 30
0.0
 11
-279.7862257144
 21
-36.9916495459
 31
0.0
  0
LINE
  5
19F
330
1F
100
AcDbEntity
  8
0
  6
Continuous
 62
     7
100
AcDbLine
 10
-279.7862257144
 20
-36.9916495459
 30
0.0
 11
-281.6310277144
 21
-36.9916495459
 31
0.0
  0
LINE
  5
1A0
330
1F
100
AcDbEntity
  8
0
  6
Continuous
 62
     7
100
AcDbLine
 10
-281.6310277144
 20
-36.9916495459
 30
0.0
 11
-281.6310277144
 21
-34.2244615459
 31
0.0
  0
LINE
  5
1A1
330
1F
100
AcDbEntity
  8
0
  6
Continuous
 62
     7
100
AcDbLine
 10
-281.6310277144
 20
-34.2244615459
 30
0.0
 11
-281.6310277144
 21
-31.4572725459
 31
0.0
  0
LINE
  5
1A2
330
1F
100
AcDbEntity
  8
0
  6
Continuous
 62
     7
100
AcDbLine
 10
-281.6310277144
 20
-31.4572725459
 30
0.0
 11
-285.3205757144
 21
-31.4572725459
 31
0.0
  0
LINE
  5
1A3
330
1F
100
AcDbEntity
  8
0
  6
Continuous
 62
     7
100
AcDbLine
 10
-285.3205757144
 20
-31.4572725459
 30
0.0
 11
-289.0101517144
 21
-31.4572725459
 31
0.0
  0
LINE
  5
1A4
330
1F
100
AcDbEntity
  8
0
  6
Continuous
 62
     7
100
AcDbLine
 10
-289.0101517144
 20
-31.4572725459
 30
0.0
 11
-288.9645447144
 21
-40.5659095459
 31
0.0
  0
LINE
  5
1A5
330
1F
100
AcDbEntity
  8
0
  6
Continuous
 62
     7
100
AcDbLine
 10
-364.1850637144
 20
-28.1593365459
 30
0.0
 11
-364.1850637144
 21
-8.8586945459
 31
0.0
  0
LINE
  5
1A6
330
1F
100
AcDbEntity
  8
0
  6
Continuous
 62
     7
100
AcDbLine
 10
-364.1850637144
 20
-8.8586945459
 30
0.0
 11
-367.8746397144
 21
-8.8586945459
 31
0.0
  0
LINE
  5
1A7
330
1F
100
AcDbEntity
  8
0
  6
Continuous
 62
     7
100
AcDbLine
 10
-367.8746397144
 20
-8.8586945459
 30
0.0
 11
-371.5641867144
 21
-8.8586945459
 31
0.0
  0
LINE
  5
1A8
330
1F
100
AcDbEntity
  8
0
  6
Continuous
 62
     7
100
AcDbLine
 10
-371.5641867144
 20
-8.8586945459
 30
0.0
 11
-371.5641867144
 21
-22.9251585459
 31
0.0
  0
LINE
  5
1A9
330
1F
100
AcDbEntity
  8
0
  6
Continuous
 62
     7
100
AcDbLine
 10
-371.5641867144
 20
-22.9251585459
 30
0.0
 11
-371.5641867144
 21
-36.9916215459
 31
0.0
  0
LINE
  5
1AA
330
1F
100
AcDbEntity
  8
0
  6
Continuous
 62
     7
100
AcDbLine
 10
-371.5641867144
 20
-36.9916215459
 30
0.0
 11
-374.3313757144
 21
-36.9916215459
 31
0.0
  0
LINE
  5
1AB
330
1F
100
AcDbEntity
  8
0
  6
Continuous
 62
     7
100
AcDbLine
 10
-374.3313757144
 20
-36.9916215459
 30
0.0
 11
-377.0985367144
 21
-36.9916215459
 31
0.0
  0
LINE
  5
1AC
330
1F
100
AcDbEntity
  8
0
  6
Continuous
 62
     7
100
AcDbLine
 10
-377.0985367144
 20
-36.9916215459
 30
0.0
 11
-377.0954327144
 21
-40.3353055459
 31
0.0
  0
LINE
  5
1AD
330
1F
100
AcDbEntity
  8
0
  6
Continuous
 62
     7
100
AcDbLine
 10
-375.4479037144
 20
-44.0248815459
 30
0.0
 11
-375.1226147144
 21
-38.8364235459
 31
0.0
  0
LINE
  5
1AE
330
1F
100
AcDbEntity
  8
0
  6
Continuous
 62
     7
100
AcDbLine
 10
-375.1226147144
 20
-38.8364235459
 30
0.0
 11
-372.4210707144
 21
-38.8364235459
 31
0.0
  0
LINE
  5
1AF
330
1F
100
AcDbEntity
  8
0
  6
Continuous
 62
     7
100
AcDbLine
 10
-372.4210707144
 20
-38.8364235459
 30
0.0
 11
-369.7195547144
 21
-38.8364235459
 31
0.0
  0
LINE
  5
1B0
330
1F
100
AcDbEntity
  8
0
  6
Continuous
 62
     7
100
AcDbLine
 10
-369.7195547144
 20
-38.8364235459
 30
0.0
 11
-369.7195547144
 21
-24.7699315459
 31
0.0
  0
LINE
  5
1B1
330
1F
100
AcDbEntity
  8
0
  6
Continuous
 62
     7
100
AcDbLine
 10
-369.7195547144
 20
-24.7699315459
 30
0.0
 11
-369.7195547144
 21
-10.7034685459
 31
0.0
  0
LINE
  5
1B2
330
1F
100
AcDbEntity
  8
0
  6
Continuous
 62
     7
100
AcDbLine
 10
-369.7195547144
 20
-10.7034685459
 30
0.0
 11
-367.9148847144
 21
-10.7034685459
 31
0.0
  0
LINE
  5
1B3
330
1F
100
AcDbEntity
  8
0
  6
Continuous
 62
     7
100
AcDbLine
 10
-367.9148847144
 20
-10.7034685459
 30
0.0
 11
-366.1102147144
 21
-10.7034685459
 31
0.0
  0
LINE
  5
1B4
330
1F
100
AcDbEntity
  8
0
  6
Continuous
 62
     7
100
AcDbLine
 10
-366.1102147144
 20
-10.7034685459
 30
0.0
 11
-365.9284347144
 21
-31.5725885459
 31
0.0
  0
LINE
  5
1B5
330
1F
100
AcDbEntity
  8
0
  6
Continuous
 62
     7
100
AcDbLine
 10
-364.4904287144
 20
-51.0709265459
 30
0.0
 11
-364.4903157144
 21
-51.0709265459
 31
0.0
  0
LINE
  5
1B6
330
1F
100
AcDbEntity
  8
0
  6
Continuous
 62
     7
100
AcDbLine
 10
-421.0584017144
 20
-39.6434945459
 30
0.0
 11
-420.7948057144
 21
-27.7677245459
 31
0.0
  0
LINE
  5
1B7
330
1F
100
AcDbEntity
  8
0
  6
Continuous
 62
     7
100
AcDbLine
 10
-420.7948057144
 20
-27.7677245459
 30
0.0
 11
-419.0086777144
 21
-27.7677245459
 31
0.0
  0
LINE
  5
1B8
330
1F
100
AcDbEntity
  8
0
  6
Continuous
 62
     7
100
AcDbLine
 10
-419.0086777144
 20
-27.7677245459
 30
0.0
 11
-417.2225777144
 21
-27.7677245459
 31
0.0
  0
LINE
  5
1B9
330
1F
100
AcDbEntity
  8
0
  6
Continuous
 62
     7
100
AcDbLine
 10
-417.2225777144
 20
-27.7677245459
 30
0.0
 11
-417.2225777144
 21
-33.3020745459
 31
0.0
  0
LINE
  5
1BA
330
1F
100
AcDbEntity
  8
0
  6
Continuous
 62
     7
100
AcDbLine
 10
-417.2225777144
 20
-33.3020745459
 30
0.0
 11
-417.2225777144
 21
-38.8364235459
 31
0.0
  0
LINE
  5
1BB
330
1F
100
AcDbEntity
  8
0
  6
Continuous
 62
     7
100
AcDbLine
 10
-417.2225777144
 20
-38.8364235459
 30
0.0
 11
-413.5330027144
 21
-38.8364235459
 31
0.0
  0
LINE
  5
1BC
330
1F
100
AcDbEntity
  8
0
  6
Continuous
 62
     7
100
AcDbLine
 10
-413.5330027144
 20
-38.8364235459
 30
0.0
 11
-409.8434547144
 21
-38.8364235459
 31
0.0
  0
LINE
  5
1BD
330
1F
100
AcDbEntity
  8
0
  6
Continuous
 62
     7
100
AcDbLine
 10
-409.8434547144
 20
-38.8364235459
 30
0.0
 11
-409.8434547144
 21
-26.6147335459
 31
0.0
  0
LINE
  5
1BE
330
1F
100
AcDbEntity
  8
0
  6
Continuous
 62
     7
100
AcDbLine
 10
-409.8434547144
 20
-26.6147335459
 30
0.0
 11
-409.8434547144
 21
-14.3930445459
 31
0.0
  0
LINE
  5
1BF
330
1F
100
AcDbEntity
  8
0
  6
Continuous
 62
     7
100
AcDbLine
 10
-409.8434547144
 20
-14.3930445459
 30
0.0
 11
-413.5330027144
 21
-14.3930445459
 31
0.0
  0
LINE
  5
1C0
330
1F
100
AcDbEntity
  8
0
  6
Continuous
 62
     7
100
AcDbLine
 10
-413.5330027144
 20
-14.3930445459
 30
0.0
 11
-417.2225777144
 21
-14.3930445459
 31
0.0
  0
LINE
  5
1C1
330
1F
100
AcDbEntity
  8
0
  6
Continuous
 62
     7
100
AcDbLine
 10
-417.2225777144
 20
-14.3930445459
 30
0.0
 11
-417.2225777144
 21
-17.1602045459
 31
0.0
  0
LINE
  5
1C2
330
1F
100
AcDbEntity
  8
0
  6
Continuous
 62
     7
100
AcDbLine
 10
-417.2225777144
 20
-17.1602045459
 30
0.0
 11
-417.2225777144
 21
-19.9273935459
 31
0.0
  0
LINE
  5
1C3
330
1F
100
AcDbEntity
  8
0
  6
Continuous
 62
     7
100
AcDbLine
 10
-417.2225777144
 20
-19.9273935459
 30
0.0
 11
-419.0673797144
 21
-19.9273935459
 31
0.0
  0
LINE
  5
1C4
330
1F
100
AcDbEntity
  8
0
  6
Continuous
 62
     7
100
AcDbLine
 10
-419.0673797144
 20
-19.9273935459
 30
0.0
 11
-420.9121537144
 21
-19.9273935459
 31
0.0
  0
LINE
  5
1C5
330
1F
100
AcDbEntity
  8
0
  6
Continuous
 62
     7
100
AcDbLine
 10
-420.9121537144
 20
-19.9273935459
 30
0.0
 11
-420.9121537144
 21
-15.3154315459
 31
0.0
  0
LINE
  5
1C6
330
1F
100
AcDbEntity
  8
0
  6
Continuous
 62
     7
100
AcDbLine
 10
-420.9121537144
 20
-15.3154315459
 30
0.0
 11
-420.9121537144
 21
-10.7034685459
 31
0.0
  0
LINE
  5
1C7
330
1F
100
AcDbEntity
  8
0
  6
Continuous
 62
     7
100
AcDbLine
 10
-420.9121537144
 20
-10.7034685459
 30
0.0
 11
-413.5728807144
 21
-10.7034685459
 31
0.0
  0
LINE
  5
1C8
330
1F
100
AcDbEntity
  8
0
  6
Continuous
 62
     7
100
AcDbLine
 10
-413.5728807144
 20
-10.7034685459
 30
0.0
 11
-406.2336067144
 21
-10.7034685459
 31
0.0
  0
LINE
  5
1C9
330
1F
100
AcDbEntity
  8
0
  6
Continuous
 62
     7
100
AcDbLine
 10
-406.2336067144
 20
-10.7034685459
 30
0.0
 11
-406.0524197144
 21
-29.4972105459
 31
0.0
  0
LINE
  5
1CA
330
1F
100
AcDbEntity
  8
0
  6
Continuous
 62
     7
100
AcDbLine
 10
-404.3091047144
 20
-26.0839585459
 30
0.0
 11
-404.3091047144
 21
-8.8586945459
 31
0.0
  0
LINE
  5
1CB
330
1F
100
AcDbEntity
  8
0
  6
Continuous
 62
     7
100
AcDbLine
 10
-404.3091047144
 20
-8.8586945459
 30
0.0
 11
-413.5330027144
 21
-8.8586945459
 31
0.0
  0
LINE
  5
1CC
330
1F
100
AcDbEntity
  8
0
  6
Continuous
 62
     7
100
AcDbLine
 10
-413.5330027144
 20
-8.8586945459
 30
0.0
 11
-422.7569277144
 21
-8.8586945459
 31
0.0
  0
LINE
  5
1CD
330
1F
100
AcDbEntity
  8
0
  6
Continuous
 62
     7
100
AcDbLine
 10
-422.7569277144
 20
-8.8586945459
 30
0.0
 11
-422.7569277144
 21
-15.3154315459
 31
0.0
  0
LINE
  5
1CE
330
1F
100
AcDbEntity
  8
0
  6
Continuous
 62
     7
100
AcDbLine
 10
-422.7569277144
 20
-15.3154315459
 30
0.0
 11
-422.7569277144
 21
-21.7721675459
 31
0.0
  0
LINE
  5
1CF
330
1F
100
AcDbEntity
  8
0
  6
Continuous
 62
     7
100
AcDbLine
 10
-422.7569277144
 20
-21.7721675459
 30
0.0
 11
-419.0673797144
 21
-21.7721675459
 31
0.0
  0
LINE
  5
1D0
330
1F
100
AcDbEntity
  8
0
  6
Continuous
 62
     7
100
AcDbLine
 10
-419.0673797144
 20
-21.7721675459
 30
0.0
 11
-415.3778047144
 21
-21.7721675459
 31
0.0
  0
LINE
  5
1D1
330
1F
100
AcDbEntity
  8
0
  6
Continuous
 62
     7
100
AcDbLine
 10
-415.3778047144
 20
-21.7721675459
 30
0.0
 11
-415.3778047144
 21
-19.0050065459
 31
0.0
  0
LINE
  5
1D2
330
1F
100
AcDbEntity
  8
0
  6
Continuous
 62
     7
100
AcDbLine
 10
-415.3778047144
 20
-19.0050065459
 30
0.0
 11
-415.3778047144
 21
-16.2378175459
 31
0.0
  0
LINE
  5
1D3
330
1F
100
AcDbEntity
  8
0
  6
Continuous
 62
     7
100
AcDbLine
 10
-415.3778047144
 20
-16.2378175459
 30
0.0
 11
-413.5330027144
 21
-16.2378175459
 31
0.0
  0
LINE
  5
1D4
330
1F
100
AcDbEntity
  8
0
  6
Continuous
 62
     7
100
AcDbLine
 10
-413.5330027144
 20
-16.2378175459
 30
0.0
 11
-411.6882287144
 21
-16.2378175459
 31
0.0
  0
LINE
  5
1D5
330
1F
100
AcDbEntity
  8
0
  6
Continuous
 62
     7
100
AcDbLine
 10
-411.6882287144
 20
-16.2378175459
 30
0.0
 11
-411.6882287144
 21
-26.6147335459
 31
0.0
  0
LINE
  5
1D6
330
1F
100
AcDbEntity
  8
0
  6
Continuous
 62
     7
100
AcDbLine
 10
-411.6882287144
 20
-26.6147335459
 30
0.0
 11
-411.6882287144
 21
-36.9916495459
 31
0.0
  0
LINE
  5
1D7
330
1F
100
AcDbEntity
  8
0
  6
Continuous
 62
     7
100
AcDbLine
 10
-411.6882287144
 20
-36.9916495459
 30
0.0
 11
-413.5330027144
 21
-36.9916495459
 31
0.0
  0
LINE
  5
1D8
330
1F
100
AcDbEntity
  8
0
  6
Continuous
 62
     7
100
AcDbLine
 10
-413.5330027144
 20
-36.9916495459
 30
0.0
 11
-415.3778047144
 21
-36.9916495459
 31
0.0
  0
LINE
  5
1D9
330
1F
100
AcDbEntity
  8
0
  6
Continuous
 62
     7
100
AcDbLine
 10
-415.3778047144
 20
-36.9916495459
 30
0.0
 11
-415.3778047144
 21
-31.4572725459
 31
0.0
  0
LINE
  5
1DA
330
1F
100
AcDbEntity
  8
0
  6
Continuous
 62
     7
100
AcDbLine
 10
-415.3778047144
 20
-31.4572725459
 30
0.0
 11
-415.3778047144
 21
-25.9229225459
 31
0.0
  0
LINE
  5
1DB
330
1F
100
AcDbEntity
  8
0
  6
Continuous
 62
     7
100
AcDbLine
 10
-415.3778047144
 20
-25.9229225459
 30
0.0
 11
-419.0673797144
 21
-25.9229225459
 31
0.0
  0
LINE
  5
1DC
330
1F
100
AcDbEntity
  8
0
  6
Continuous
 62
     7
100
AcDbLine
 10
-419.0673797144
 20
-25.9229225459
 30
0.0
 11
-422.7569277144
 21
-25.9229225459
 31
0.0
  0
LINE
  5
1DD
330
1F
100
AcDbEntity
  8
0
  6
Continuous
 62
     7
100
AcDbLine
 10
-422.7569277144
 20
-25.9229225459
 30
0.0
 11
-422.7113207144
 21
-37.5681455459
 31
0.0
  0
LINE
  5
1DE
330
1F
100
AcDbEntity
  8
0
  6
Continuous
 62
     7
100
AcDbLine
 10
-310.3497637144
 20
-30.4195975459
 30
0.0
 11
-310.1347947144
 21
-10.7034685459
 31
0.0
  0
LINE
  5
1DF
330
1F
100
AcDbEntity
  8
0
  6
Continuous
 62
     7
100
AcDbLine
 10
-310.1347947144
 20
-10.7034685459
 30
0.0
 11
-308.3352047144
 21
-10.7034685459
 31
0.0
  0
LINE
  5
1E0
330
1F
100
AcDbEntity
  8
0
  6
Continuous
 62
     7
100
AcDbLine
 10
-308.3352047144
 20
-10.7034685459
 30
0.0
 11
-306.5355867144
 21
-10.7034685459
 31
0.0
  0
LINE
  5
1E1
330
1F
100
AcDbEntity
  8
0
  6
Continuous
 62
     7
100
AcDbLine
 10
-306.5355867144
 20
-10.7034685459
 30
0.0
 11
-306.5355867144
 21
-22.0027715459
 31
0.0
  0
LINE
  5
1E2
330
1F
100
AcDbEntity
  8
0
  6
Continuous
 62
     7
100
AcDbLine
 10
-306.5355867144
 20
-22.0027715459
 30
0.0
 11
-306.5355867144
 21
-33.3020745459
 31
0.0
  0
LINE
  5
1E3
330
1F
100
AcDbEntity
  8
0
  6
Continuous
 62
     7
100
AcDbLine
 10
-306.5355867144
 20
-33.3020745459
 30
0.0
 11
-302.8460107144
 21
-33.3020745459
 31
0.0
  0
LINE
  5
1E4
330
1F
100
AcDbEntity
  8
0
  6
Continuous
 62
     7
100
AcDbLine
 10
-302.8460107144
 20
-33.3020745459
 30
0.0
 11
-299.1564637144
 21
-33.3020745459
 31
0.0
  0
LINE
  5
1E5
330
1F
100
AcDbEntity
  8
0
  6
Continuous
 62
     7
100
AcDbLine
 10
-299.1564637144
 20
-33.3020745459
 30
0.0
 11
-299.1564637144
 21
-22.0027715459
 31
0.0
  0
LINE
  5
1E6
330
1F
100
AcDbEntity
  8
0
  6
Continuous
 62
     7
100
AcDbLine
 10
-299.1564637144
 20
-22.0027715459
 30
0.0
 11
-299.1564637144
 21
-10.7034685459
 31
0.0
  0
LINE
  5
1E7
330
1F
100
AcDbEntity
  8
0
  6
Continuous
 62
     7
100
AcDbLine
 10
-299.1564637144
 20
-10.7034685459
 30
0.0
 11
-297.3511447144
 21
-10.7034685459
 31
0.0
  0
LINE
  5
1E8
330
1F
100
AcDbEntity
  8
0
  6
Continuous
 62
     7
100
AcDbLine
 10
-297.3511447144
 20
-10.7034685459
 30
0.0
 11
-295.5458537144
 21
-10.7034685459
 31
0.0
  0
LINE
  5
1E9
330
1F
100
AcDbEntity
  8
0
  6
Continuous
 62
     7
100
AcDbLine
 10
-295.5458537144
 20
-10.7034685459
 30
0.0
 11
-295.3460117144
 21
-29.7278145459
 31
0.0
  0
LINE
  5
1EA
330
1F
100
AcDbEntity
  8
0
  6
Continuous
 62
     7
100
AcDbLine
 10
-293.6248797144
 20
-26.2688425459
 30
0.0
 11
-293.6220577144
 21
-8.8586945459
 31
0.0
  0
LINE
  5
1EB
330
1F
100
AcDbEntity
  8
0
  6
Continuous
 62
     7
100
AcDbLine
 10
-293.6220577144
 20
-8.8586945459
 30
0.0
 11
-297.3116337144
 21
-8.8586945459
 31
0.0
  0
LINE
  5
1EC
330
1F
100
AcDbEntity
  8
0
  6
Continuous
 62
     7
100
AcDbLine
 10
-297.3116337144
 20
-8.8586945459
 30
0.0
 11
-301.0011807144
 21
-8.8586945459
 31
0.0
  0
LINE
  5
1ED
330
1F
100
AcDbEntity
  8
0
  6
Continuous
 62
     7
100
AcDbLine
 10
-301.0011807144
 20
-8.8586945459
 30
0.0
 11
-301.0011807144
 21
-20.1579975459
 31
0.0
  0
LINE
  5
1EE
330
1F
100
AcDbEntity
  8
0
  6
Continuous
 62
     7
100
AcDbLine
 10
-301.0011807144
 20
-20.1579975459
 30
0.0
 11
-301.0011807144
 21
-31.4572725459
 31
0.0
  0
LINE
  5
1EF
330
1F
100
AcDbEntity
  8
0
  6
Continuous
 62
     7
100
AcDbLine
 10
-301.0011807144
 20
-31.4572725459
 30
0.0
 11
-302.8459827144
 21
-31.4572725459
 31
0.0
  0
LINE
  5
1F0
330
1F
100
AcDbEntity
  8
0
  6
Continuous
 62
     7
100
AcDbLine
 10
-302.8459827144
 20
-31.4572725459
 30
0.0
 11
-304.6907567144
 21
-31.4572725459
 31
0.0
  0
LINE
  5
1F1
330
1F
100
AcDbEntity
  8
0
  6
Continuous
 62
     7
100
AcDbLine
 10
-304.6907567144
 20
-31.4572725459
 30
0.0
 11
-304.6907567144
 21
-20.1579975459
 31
0.0
  0
LINE
  5
1F2
330
1F
100
AcDbEntity
  8
0
  6
Continuous
 62
     7
100
AcDbLine
 10
-304.6907567144
 20
-20.1579975459
 30
0.0
 11
-304.6907567144
 21
-8.8586945459
 31
0.0
  0
LINE
  5
1F3
330
1F
100
AcDbEntity
  8
0
  6
Continuous
 62
     7
100
AcDbLine
 10
-304.6907567144
 20
-8.8586945459
 30
0.0
 11
-308.3803327144
 21
-8.8586945459
 31
0.0
  0
LINE
  5
1F4
330
1F
100
AcDbEntity
  8
0
  6
Continuous
 62
     7
100
AcDbLine
 10
-308.3803327144
 20
-8.8586945459
 30
0.0
 11
-312.0698797144
 21
-8.8586945459
 31
0.0
  0
LINE
  5
1F5
330
1F
100
AcDbEntity
  8
0
  6
Continuous
 62
     7
100
AcDbLine
 10
-312.0698797144
 20
-8.8586945459
 30
0.0
 11
-312.0242727144
 21
-28.1136165459
 31
0.0
  0
LINE
  5
1F6
330
1F
100
AcDbEntity
  8
0
  6
Continuous
 62
     7
100
AcDbLine
 10
-326.6972317144
 20
-38.8364235459
 30
0.0
 11
-324.7528337144
 21
-33.0714705459
 31
0.0
  0
LINE
  5
1F7
330
1F
100
AcDbEntity
  8
0
  6
Continuous
 62
     7
100
AcDbLine
 10
-324.7528337144
 20
-33.0714705459
 30
0.0
 11
-324.4664627144
 21
-39.9894145459
 31
0.0
  0
LINE
  5
1F8
330
1F
100
AcDbEntity
  8
0
  6
Continuous
 62
     7
100
AcDbLine
 10
-328.9784347144
 20
-48.2909245459
 30
0.0
 11
-328.9785467144
 21
-48.2909245459
 31
0.0
  0
LINE
  5
1F9
330
1F
100
AcDbEntity
  8
0
  6
Continuous
 62
     7
100
AcDbLine
 10
-92.5407337144
 20
-26.5451375459
 30
0.0
 11
-92.5407337144
 21
-8.8586945459
 31
0.0
  0
LINE
  5
1FA
330
1F
100
AcDbEntity
  8
0
  6
Continuous
 62
     7
100
AcDbLine
 10
-92.5407337144
 20
-8.8586945459
 30
0.0
 11
-101.7646557144
 21
-8.8586945459
 31
0.0
  0
LINE
  5
1FB
330
1F
100
AcDbEntity
  8
0
  6
Continuous
 62
     7
100
AcDbLine
 10
-101.7646557144
 20
-8.8586945459
 30
0.0
 11
-110.9885817144
 21
-8.8586945459
 31
0.0
  0
LINE
  5
1FC
330
1F
100
AcDbEntity
  8
0
  6
Continuous
 62
     7
100
AcDbLine
 10
-110.9885817144
 20
-8.8586945459
 30
0.0
 11
-110.9885817144
 21
-20.8409475459
 31
0.0
  0
LINE
  5
1FD
330
1F
100
AcDbEntity
  8
0
  6
Continuous
 62
     7
100
AcDbLine
 10
-110.9885817144
 20
-20.8409475459
 30
0.0
 11
-110.9885817144
 21
-32.8231995459
 31
0.0
  0
LINE
  5
1FE
330
1F
100
AcDbEntity
  8
0
  6
Continuous
 62
     7
100
AcDbLine
 10
-110.9885817144
 20
-32.8231995459
 30
0.0
 11
-108.7994427147
 21
-33.9357475458
 31
0.0
  0
LINE
  5
1FF
330
1F
100
AcDbEntity
  8
0
  6
Continuous
 62
     7
100
AcDbLine
 10
-108.7994427147
 20
-33.9357475458
 30
0.0
 11
-106.6102987144
 21
-35.0482955459
 31
0.0
  0
LINE
  5
200
330
1F
100
AcDbEntity
  8
0
  6
Continuous
 62
     7
100
AcDbLine
 10
-106.6102987144
 20
-35.0482955459
 30
0.0
 11
-108.7994427144
 21
-36.1118785459
 31
0.0
  0
LINE
  5
201
330
1F
100
AcDbEntity
  8
0
  6
Continuous
 62
     7
100
AcDbLine
 10
-108.7994427144
 20
-36.1118785459
 30
0.0
 11
-110.9885817144
 21
-37.1754335459
 31
0.0
  0
LINE
  5
202
330
1F
100
AcDbEntity
  8
0
  6
Continuous
 62
     7
100
AcDbLine
 10
-110.9885817144
 20
-37.1754335459
 30
0.0
 11
-110.9429487144
 21
-41.8107915459
 31
0.0
  0
LINE
  5
203
330
1F
100
AcDbEntity
  8
0
  6
Continuous
 62
     7
100
AcDbLine
 10
-109.2518137144
 20
-43.2177825459
 30
0.0
 11
-108.9132037144
 21
-38.1446125459
 31
0.0
  0
LINE
  5
204
330
1F
100
AcDbEntity
  8
0
  6
Continuous
 62
     7
100
AcDbLine
 10
-108.9132037144
 20
-38.1446125459
 30
0.0
 11
-106.2902027144
 21
-36.7514785459
 31
0.0
  0
LINE
  5
205
330
1F
100
AcDbEntity
  8
0
  6
Continuous
 62
     7
100
AcDbLine
 10
-106.0916587144
 20
-33.2255915459
 30
0.0
 11
-109.1437827144
 21
-31.7205005459
 31
0.0
  0
LINE
  5
206
330
1F
100
AcDbEntity
  8
0
  6
Continuous
 62
     7
100
AcDbLine
 10
-109.1437827144
 20
-31.7205005459
 30
0.0
 11
-109.1437827144
 21
-21.2119845459
 31
0.0
  0
LINE
  5
207
330
1F
100
AcDbEntity
  8
0
  6
Continuous
 62
     7
100
AcDbLine
 10
-109.1437827144
 20
-21.2119845459
 30
0.0
 11
-109.1437827144
 21
-10.7034685459
 31
0.0
  0
LINE
  5
208
330
1F
100
AcDbEntity
  8
0
  6
Continuous
 62
     7
100
AcDbLine
 10
-109.1437827144
 20
-10.7034685459
 30
0.0
 11
-101.8072747144
 21
-10.7034685459
 31
0.0
  0
LINE
  5
209
330
1F
100
AcDbEntity
  8
0
  6
Continuous
 62
     7
100
AcDbLine
 10
-101.8072747144
 20
-10.7034685459
 30
0.0
 11
-94.4707667144
 21
-10.7034685459
 31
0.0
  0
LINE
  5
20A
330
1F
100
AcDbEntity
  8
0
  6
Continuous
 62
     7
100
AcDbLine
 10
-94.4707667144
 20
-10.7034685459
 30
0.0
 11
-94.2831457144
 21
-29.9583895459
 31
0.0
  0
LINE
  5
20B
330
1F
100
AcDbEntity
  8
0
  6
Continuous
 62
     7
100
AcDbLine
 10
-98.0750807144
 20
-40.3496145459
 30
0.0
 11
-98.0750807144
 21
-36.9288555459
 31
0.0
  0
LINE
  5
20C
330
1F
100
AcDbEntity
  8
0
  6
Continuous
 62
     7
100
AcDbLine
 10
-98.0750807144
 20
-36.9288555459
 30
0.0
 11
-101.7642047144
 21
-38.9203285459
 31
0.0
  0
LINE
  5
20D
330
1F
100
AcDbEntity
  8
0
  6
Continuous
 62
     7
100
AcDbLine
 10
-103.8574187144
 20
-46.0592525459
 30
0.0
 11
-103.5334557144
 21
-41.7382045459
 31
0.0
  0
LINE
  5
20E
330
1F
100
AcDbEntity
  8
0
  6
Continuous
 62
     7
100
AcDbLine
 10
-103.5334557144
 20
-41.7382045459
 30
0.0
 11
-101.9416097144
 21
-40.9791115459
 31
0.0
  0
LINE
  5
20F
330
1F
100
AcDbEntity
  8
0
  6
Continuous
 62
     7
100
AcDbLine
 10
-230.4382877144
 20
-30.0041095459
 30
0.0
 11
-230.4382877144
 21
-16.2378175459
 31
0.0
  0
LINE
  5
210
330
1F
100
AcDbEntity
  8
0
  6
Continuous
 62
     7
100
AcDbLine
 10
-230.4382877144
 20
-16.2378175459
 30
0.0
 11
-227.6710987144
 21
-16.2378175459
 31
0.0
  0
LINE
  5
211
330
1F
100
AcDbEntity
  8
0
  6
Continuous
 62
     7
100
AcDbLine
 10
-227.6710987144
 20
-16.2378175459
 30
0.0
 11
-224.9039377144
 21
-16.2378175459
 31
0.0
  0
LINE
  5
212
330
1F
100
AcDbEntity
  8
0
  6
Continuous
 62
     7
100
AcDbLine
 10
-224.9039377144
 20
-16.2378175459
 30
0.0
 11
-224.9039377144
 21
-12.5482705459
 31
0.0
  0
LINE
  5
213
330
1F
100
AcDbEntity
  8
0
  6
Continuous
 62
     7
100
AcDbLine
 10
-224.9039377144
 20
-12.5482705459
 30
0.0
 11
-224.9039377144
 21
-8.8586945459
 31
0.0
  0
LINE
  5
214
330
1F
100
AcDbEntity
  8
0
  6
Continuous
 62
     7
100
AcDbLine
 10
-224.9039377144
 20
-8.8586945459
 30
0.0
 11
-234.1278637144
 21
-8.8586945459
 31
0.0
  0
LINE
  5
215
330
1F
100
AcDbEntity
  8
0
  6
Continuous
 62
     7
100
AcDbLine
 10
-234.1278637144
 20
-8.8586945459
 30
0.0
 11
-243.3517607144
 21
-8.8586945459
 31
0.0
  0
LINE
  5
216
330
1F
100
AcDbEntity
  8
0
  6
Continuous
 62
     7
100
AcDbLine
 10
-243.3517607144
 20
-8.8586945459
 30
0.0
 11
-243.3517607144
 21
-12.5482705459
 31
0.0
  0
LINE
  5
217
330
1F
100
AcDbEntity
  8
0
  6
Continuous
 62
     7
100
AcDbLine
 10
-243.3517607144
 20
-12.5482705459
 30
0.0
 11
-243.3517607144
 21
-16.2378175459
 31
0.0
  0
LINE
  5
218
330
1F
100
AcDbEntity
  8
0
  6
Continuous
 62
     7
100
AcDbLine
 10
-243.3517607144
 20
-16.2378175459
 30
0.0
 11
-240.5845997144
 21
-16.2378175459
 31
0.0
  0
LINE
  5
219
330
1F
100
AcDbEntity
  8
0
  6
Continuous
 62
     7
100
AcDbLine
 10
-240.5845997144
 20
-16.2378175459
 30
0.0
 11
-237.8174107144
 21
-16.2378175459
 31
0.0
  0
LINE
  5
21A
330
1F
100
AcDbEntity
  8
0
  6
Continuous
 62
     7
100
AcDbLine
 10
-237.8174107144
 20
-16.2378175459
 30
0.0
 11
-237.8143067144
 21
-30.4195975459
 31
0.0
  0
LINE
  5
21B
330
1F
100
AcDbEntity
  8
0
  6
Continuous
 62
     7
100
AcDbLine
 10
-236.0426567144
 20
-32.1262235459
 30
0.0
 11
-235.8818747144
 21
-14.3930445459
 31
0.0
  0
LINE
  5
21C
330
1F
100
AcDbEntity
  8
0
  6
Continuous
 62
     7
100
AcDbLine
 10
-235.8818747144
 20
-14.3930445459
 30
0.0
 11
-238.6945007144
 21
-14.3930445459
 31
0.0
  0
LINE
  5
21D
330
1F
100
AcDbEntity
  8
0
  6
Continuous
 62
     7
100
AcDbLine
 10
-238.6945007144
 20
-14.3930445459
 30
0.0
 11
-241.5070997144
 21
-14.3930445459
 31
0.0
  0
LINE
  5
21E
330
1F
100
AcDbEntity
  8
0
  6
Continuous
 62
     7
100
AcDbLine
 10
-241.5070997144
 20
-14.3930445459
 30
0.0
 11
-241.5070997144
 21
-12.5482705459
 31
0.0
  0
LINE
  5
21F
330
1F
100
AcDbEntity
  8
0
  6
Continuous
 62
     7
100
AcDbLine
 10
-241.5070997144
 20
-12.5482705459
 30
0.0
 11
-241.5070997144
 21
-10.7034685459
 31
0.0
  0
LINE
  5
220
330
1F
100
AcDbEntity
  8
0
  6
Continuous
 62
     7
100
AcDbLine
 10
-241.5070997144
 20
-10.7034685459
 30
0.0
 11
-234.1279767144
 21
-10.7034685459
 31
0.0
  0
LINE
  5
221
330
1F
100
AcDbEntity
  8
0
  6
Continuous
 62
     7
100
AcDbLine
 10
-234.1279767144
 20
-10.7034685459
 30
0.0
 11
-226.7488527144
 21
-10.7034685459
 31
0.0
  0
LINE
  5
222
330
1F
100
AcDbEntity
  8
0
  6
Continuous
 62
     7
100
AcDbLine
 10
-226.7488527144
 20
-10.7034685459
 30
0.0
 11
-226.7488527144
 21
-12.5482705459
 31
0.0
  0
LINE
  5
223
330
1F
100
AcDbEntity
  8
0
  6
Continuous
 62
     7
100
AcDbLine
 10
-226.7488527144
 20
-12.5482705459
 30
0.0
 11
-226.7488527144
 21
-14.3930445459
 31
0.0
  0
LINE
  5
224
330
1F
100
AcDbEntity
  8
0
  6
Continuous
 62
     7
100
AcDbLine
 10
-226.7488527144
 20
-14.3930445459
 30
0.0
 11
-229.5578107144
 21
-14.3930445459
 31
0.0
  0
LINE
  5
225
330
1F
100
AcDbEntity
  8
0
  6
Continuous
 62
     7
100
AcDbLine
 10
-229.5578107144
 20
-14.3930445459
 30
0.0
 11
-232.3667687144
 21
-14.3930445459
 31
0.0
  0
LINE
  5
226
330
1F
100
AcDbEntity
  8
0
  6
Continuous
 62
     7
100
AcDbLine
 10
-232.3667687144
 20
-14.3930445459
 30
0.0
 11
-232.2096837144
 21
-32.1263645459
 31
0.0
  0
LINE
  5
227
330
1F
100
AcDbEntity
  8
0
  6
Continuous
 62
     7
100
AcDbLine
 10
-230.7386007144
 20
-47.3216045459
 30
0.0
 11
-230.7384587144
 21
-47.3216045459
 31
0.0
  0
LINE
  5
228
330
1F
100
AcDbEntity
  8
0
  6
Continuous
 62
     7
100
AcDbLine
 10
-144.6558557144
 20
-35.1417115459
 30
0.0
 11
-144.6558557144
 21
-31.4469995459
 31
0.0
  0
LINE
  5
229
330
1F
100
AcDbEntity
  8
0
  6
Continuous
 62
     7
100
AcDbLine
 10
-144.6558557144
 20
-31.4469995459
 30
0.0
 11
-148.3454307144
 21
-33.3020745459
 31
0.0
  0
LINE
  5
22A
330
1F
100
AcDbEntity
  8
0
  6
Continuous
 62
     7
100
AcDbLine
 10
-152.0350067144
 20
-36.9967865459
 30
0.0
 11
-152.0350067144
 21
-38.8364235459
 31
0.0
  0
LINE
  5
22B
330
1F
100
AcDbEntity
  8
0
  6
Continuous
 62
     7
100
AcDbLine
 10
-152.0350067144
 20
-38.8364235459
 30
0.0
 11
-148.3454307144
 21
-38.8364235459
 31
0.0
  0
LINE
  5
22C
330
1F
100
AcDbEntity
  8
0
  6
Continuous
 62
     7
100
AcDbLine
 10
-148.3454307144
 20
-38.8364235459
 30
0.0
 11
-144.6558557144
 21
-38.8364235459
 31
0.0
  0
LINE
  5
22D
330
1F
100
AcDbEntity
  8
0
  6
Continuous
 62
     7
100
AcDbLine
 10
-144.6558557144
 20
-38.8364235459
 30
0.0
 11
-144.6558557144
 21
-35.1417115459
 31
0.0
  0
LINE
  5
22E
330
1F
100
AcDbEntity
  8
0
  6
Continuous
 62
     7
100
AcDbLine
 10
-346.1984207144
 20
-26.6147335459
 30
0.0
 11
-346.1984207144
 21
-14.3930445459
 31
0.0
  0
LINE
  5
22F
330
1F
100
AcDbEntity
  8
0
  6
Continuous
 62
     7
100
AcDbLine
 10
-346.1984207144
 20
-14.3930445459
 30
0.0
 11
-349.8879967144
 21
-14.3930445459
 31
0.0
  0
LINE
  5
230
330
1F
100
AcDbEntity
  8
0
  6
Continuous
 62
     7
100
AcDbLine
 10
-349.8879967144
 20
-14.3930445459
 30
0.0
 11
-353.5775727144
 21
-14.3930445459
 31
0.0
  0
LINE
  5
231
330
1F
100
AcDbEntity
  8
0
  6
Continuous
 62
     7
100
AcDbLine
 10
-353.5775727144
 20
-14.3930445459
 30
0.0
 11
-353.5775727144
 21
-26.6147335459
 31
0.0
  0
LINE
  5
232
330
1F
100
AcDbEntity
  8
0
  6
Continuous
 62
     7
100
AcDbLine
 10
-353.5775727144
 20
-26.6147335459
 30
0.0
 11
-353.5775727144
 21
-38.8364235459
 31
0.0
  0
LINE
  5
233
330
1F
100
AcDbEntity
  8
0
  6
Continuous
 62
     7
100
AcDbLine
 10
-353.5775727144
 20
-38.8364235459
 30
0.0
 11
-349.8879967144
 21
-38.8364235459
 31
0.0
  0
LINE
  5
234
330
1F
100
AcDbEntity
  8
0
  6
Continuous
 62
     7
100
AcDbLine
 10
-349.8879967144
 20
-38.8364235459
 30
0.0
 11
-346.1984207144
 21
-38.8364235459
 31
0.0
  0
LINE
  5
235
330
1F
100
AcDbEntity
  8
0
  6
Continuous
 62
     7
100
AcDbLine
 10
-346.1984207144
 20
-38.8364235459
 30
0.0
 11
-346.1984207144
 21
-26.6147335459
 31
0.0
  0
LINE
  5
236
330
1F
100
AcDbEntity
  8
0
  6
Continuous
 62
     7
100
AcDbLine
 10
-351.7327707144
 20
-26.6147335459
 30
0.0
 11
-351.7327707144
 21
-16.2378175459
 31
0.0
  0
LINE
  5
237
330
1F
100
AcDbEntity
  8
0
  6
Continuous
 62
     7
100
AcDbLine
 10
-351.7327707144
 20
-16.2378175459
 30
0.0
 11
-349.8879967144
 21
-16.2378175459
 31
0.0
  0
LINE
  5
238
330
1F
100
AcDbEntity
  8
0
  6
Continuous
 62
     7
100
AcDbLine
 10
-349.8879967144
 20
-16.2378175459
 30
0.0
 11
-348.0432227144
 21
-16.2378175459
 31
0.0
  0
LINE
  5
239
330
1F
100
AcDbEntity
  8
0
  6
Continuous
 62
     7
100
AcDbLine
 10
-348.0432227144
 20
-16.2378175459
 30
0.0
 11
-348.0432227144
 21
-26.6147335459
 31
0.0
  0
LINE
  5
23A
330
1F
100
AcDbEntity
  8
0
  6
Continuous
 62
     7
100
AcDbLine
 10
-348.0432227144
 20
-26.6147335459
 30
0.0
 11
-348.0432227144
 21
-36.9916215459
 31
0.0
  0
LINE
  5
23B
330
1F
100
AcDbEntity
  8
0
  6
Continuous
 62
     7
100
AcDbLine
 10
-348.0432227144
 20
-36.9916215459
 30
0.0
 11
-349.8879967144
 21
-36.9916215459
 31
0.0
  0
LINE
  5
23C
330
1F
100
AcDbEntity
  8
0
  6
Continuous
 62
     7
100
AcDbLine
 10
-349.8879967144
 20
-36.9916215459
 30
0.0
 11
-351.7327707144
 21
-36.9916215459
 31
0.0
  0
LINE
  5
23D
330
1F
100
AcDbEntity
  8
0
  6
Continuous
 62
     7
100
AcDbLine
 10
-351.7327707144
 20
-36.9916215459
 30
0.0
 11
-351.7327707144
 21
-26.6147335459
 31
0.0
  0
LINE
  5
23E
330
1F
100
AcDbEntity
  8
0
  6
Continuous
 62
     7
100
AcDbLine
 10
-386.3224617144
 20
-26.6147335459
 30
0.0
 11
-386.3224617144
 21
-14.3930445459
 31
0.0
  0
LINE
  5
23F
330
1F
100
AcDbEntity
  8
0
  6
Continuous
 62
     7
100
AcDbLine
 10
-386.3224617144
 20
-14.3930445459
 30
0.0
 11
-390.0120377144
 21
-14.3930445459
 31
0.0
  0
LINE
  5
240
330
1F
100
AcDbEntity
  8
0
  6
Continuous
 62
     7
100
AcDbLine
 10
-390.0120377144
 20
-14.3930445459
 30
0.0
 11
-393.7015857144
 21
-14.3930445459
 31
0.0
  0
LINE
  5
241
330
1F
100
AcDbEntity
  8
0
  6
Continuous
 62
     7
100
AcDbLine
 10
-393.7015857144
 20
-14.3930445459
 30
0.0
 11
-393.7015857144
 21
-26.6147335459
 31
0.0
  0
LINE
  5
242
330
1F
100
AcDbEntity
  8
0
  6
Continuous
 62
     7
100
AcDbLine
 10
-393.7015857144
 20
-26.6147335459
 30
0.0
 11
-393.7015857144
 21
-38.8364235459
 31
0.0
  0
LINE
  5
243
330
1F
100
AcDbEntity
  8
0
  6
Continuous
 62
     7
100
AcDbLine
 10
-393.7015857144
 20
-38.8364235459
 30
0.0
 11
-390.0120377144
 21
-38.8364235459
 31
0.0
  0
LINE
  5
244
330
1F
100
AcDbEntity
  8
0
  6
Continuous
 62
     7
100
AcDbLine
 10
-390.0120377144
 20
-38.8364235459
 30
0.0
 11
-386.3224617144
 21
-38.8364235459
 31
0.0
  0
LINE
  5
245
330
1F
100
AcDbEntity
  8
0
  6
Continuous
 62
     7
100
AcDbLine
 10
-386.3224617144
 20
-38.8364235459
 30
0.0
 11
-386.3224617144
 21
-26.6147335459
 31
0.0
  0
LINE
  5
246
330
1F
100
AcDbEntity
  8
0
  6
Continuous
 62
     7
100
AcDbLine
 10
-391.8568117144
 20
-26.6147335459
 30
0.0
 11
-391.8568117144
 21
-16.2378175459
 31
0.0
  0
LINE
  5
247
330
1F
100
AcDbEntity
  8
0
  6
Continuous
 62
     7
100
AcDbLine
 10
-391.8568117144
 20
-16.2378175459
 30
0.0
 11
-390.0120377144
 21
-16.2378175459
 31
0.0
  0
LINE
  5
248
330
1F
100
AcDbEntity
  8
0
  6
Continuous
 62
     7
100
AcDbLine
 10
-390.0120377144
 20
-16.2378175459
 30
0.0
 11
-388.1672357144
 21
-16.2378175459
 31
0.0
  0
LINE
  5
249
330
1F
100
AcDbEntity
  8
0
  6
Continuous
 62
     7
100
AcDbLine
 10
-388.1672357144
 20
-16.2378175459
 30
0.0
 11
-388.1672357144
 21
-26.6147335459
 31
0.0
  0
LINE
  5
24A
330
1F
100
AcDbEntity
  8
0
  6
Continuous
 62
     7
100
AcDbLine
 10
-388.1672357144
 20
-26.6147335459
 30
0.0
 11
-388.1672357144
 21
-36.9916215459
 31
0.0
  0
LINE
  5
24B
330
1F
100
AcDbEntity
  8
0
  6
Continuous
 62
     7
100
AcDbLine
 10
-388.1672357144
 20
-36.9916215459
 30
0.0
 11
-390.0120377144
 21
-36.9916215459
 31
0.0
  0
LINE
  5
24C
330
1F
100
AcDbEntity
  8
0
  6
Continuous
 62
     7
100
AcDbLine
 10
-390.0120377144
 20
-36.9916215459
 30
0.0
 11
-391.8568117144
 21
-36.9916215459
 31
0.0
  0
LINE
  5
24D
330
1F
100
AcDbEntity
  8
0
  6
Continuous
 62
     7
100
AcDbLine
 10
-391.8568117144
 20
-36.9916215459
 30
0.0
 11
-391.8568117144
 21
-26.6147335459
 31
0.0
  0
LINE
  5
24E
330
1F
100
AcDbEntity
  8
0
  6
Continuous
 62
     7
100
AcDbLine
 10
-98.0750807144
 20
-23.6169695459
 30
0.0
 11
-98.0750807144
 21
-14.3930445459
 31
0.0
  0
LINE
  5
24F
330
1F
100
AcDbEntity
  8
0
  6
Continuous
 62
     7
100
AcDbLine
 10
-98.0750807144
 20
-14.3930445459
 30
0.0
 11
-101.7646557144
 21
-14.3930445459
 31
0.0
  0
LINE
  5
250
330
1F
100
AcDbEntity
  8
0
  6
Continuous
 62
     7
100
AcDbLine
 10
-101.7646557144
 20
-14.3930445459
 30
0.0
 11
-105.4542317144
 21
-14.3930445459
 31
0.0
  0
LINE
  5
251
330
1F
100
AcDbEntity
  8
0
  6
Continuous
 62
     7
100
AcDbLine
 10
-105.4542317144
 20
-14.3930445459
 30
0.0
 11
-105.4542317144
 21
-21.7304835459
 31
0.0
  0
LINE
  5
252
330
1F
100
AcDbEntity
  8
0
  6
Continuous
 62
     7
100
AcDbLine
 10
-105.4542317144
 20
-21.7304835459
 30
0.0
 11
-105.4542317144
 21
-29.0679225459
 31
0.0
  0
LINE
  5
253
330
1F
100
AcDbEntity
  8
0
  6
Continuous
 62
     7
100
AcDbLine
 10
-105.4542317144
 20
-29.0679225459
 30
0.0
 11
-102.0169627144
 21
-30.9544085459
 31
0.0
  0
LINE
  5
254
330
1F
100
AcDbEntity
  8
0
  6
Continuous
 62
     7
100
AcDbLine
 10
-103.6094297144
 20
-22.2240055459
 30
0.0
 11
-103.6094297144
 21
-16.2378175459
 31
0.0
  0
LINE
  5
255
330
1F
100
AcDbEntity
  8
0
  6
Continuous
 62
     7
100
AcDbLine
 10
-103.6094297144
 20
-16.2378175459
 30
0.0
 11
-101.7646557144
 21
-16.2378175459
 31
0.0
  0
LINE
  5
256
330
1F
100
AcDbEntity
  8
0
  6
Continuous
 62
     7
100
AcDbLine
 10
-101.7646557144
 20
-16.2378175459
 30
0.0
 11
-99.9198827144
 21
-16.2378175459
 31
0.0
  0
LINE
  5
257
330
1F
100
AcDbEntity
  8
0
  6
Continuous
 62
     7
100
AcDbLine
 10
-99.9198827144
 20
-16.2378175459
 30
0.0
 11
-99.9198827144
 21
-23.1651315459
 31
0.0
  0
LINE
  5
258
330
1F
100
AcDbEntity
  8
0
  6
Continuous
 62
     7
100
AcDbLine
 10
-99.9198827144
 20
-23.1651315459
 30
0.0
 11
-99.9198827144
 21
-30.0924455459
 31
0.0
  0
LINE
  5
259
330
1F
100
AcDbEntity
  8
0
  6
Continuous
 62
     7
100
AcDbLine
 10
-99.9198827144
 20
-30.0924455459
 30
0.0
 11
-101.7646557145
 21
-29.1512905459
 31
0.0
  0
LINE
  5
25A
330
1F
100
AcDbEntity
  8
0
  6
Continuous
 62
     7
100
AcDbLine
 10
-101.7646557145
 20
-29.1512905459
 30
0.0
 11
-103.6094297144
 21
-28.2101645459
 31
0.0
  0
LINE
  5
25B
330
1F
100
AcDbEntity
  8
0
  6
Continuous
 62
     7
100
AcDbLine
 10
-103.6094297144
 20
-28.2101645459
 30
0.0
 11
-103.6094297144
 21
-22.2240055459
 31
0.0
  0
LINE
  5
25C
330
1F
100
AcDbEntity
  8
0
  6
Continuous
 62
     7
100
AcDbLine
 10
-144.6558557144
 20
-20.8549455459
 30
0.0
 11
-144.6558557144
 21
-14.3930445459
 31
0.0
  0
LINE
  5
25D
330
1F
100
AcDbEntity
  8
0
  6
Continuous
 62
     7
100
AcDbLine
 10
-144.6558557144
 20
-14.3930445459
 30
0.0
 11
-148.3454307144
 21
-14.3930445459
 31
0.0
  0
LINE
  5
25E
330
1F
100
AcDbEntity
  8
0
  6
Continuous
 62
     7
100
AcDbLine
 10
-148.3454307144
 20
-14.3930445459
 30
0.0
 11
-152.0350067144
 21
-14.3930445459
 31
0.0
  0
LINE
  5
25F
330
1F
100
AcDbEntity
  8
0
  6
Continuous
 62
     7
100
AcDbLine
 10
-152.0350067144
 20
-14.3930445459
 30
0.0
 11
-152.0350067144
 21
-18.9998425459
 31
0.0
  0
LINE
  5
260
330
1F
100
AcDbEntity
  8
0
  6
Continuous
 62
     7
100
AcDbLine
 10
-152.0350067144
 20
-18.9998425459
 30
0.0
 11
-152.0350067144
 21
-23.6066685459
 31
0.0
  0
LINE
  5
261
330
1F
100
AcDbEntity
  8
0
  6
Continuous
 62
     7
100
AcDbLine
 10
-152.0350067144
 20
-23.6066685459
 30
0.0
 11
-148.3454307125
 21
-25.4617435469
 31
0.0
  0
LINE
  5
262
330
1F
100
AcDbEntity
  8
0
  6
Continuous
 62
     7
100
AcDbLine
 10
-148.3454307125
 20
-25.4617435469
 30
0.0
 11
-144.6558557144
 21
-27.3168185459
 31
0.0
  0
LINE
  5
263
330
1F
100
AcDbEntity
  8
0
  6
Continuous
 62
     7
100
AcDbLine
 10
-144.6558557144
 20
-27.3168185459
 30
0.0
 11
-144.6558557144
 21
-20.8549455459
 31
0.0
  0
LINE
  5
264
330
1F
100
AcDbEntity
  8
0
  6
Continuous
 62
     7
100
AcDbLine
 10
-150.1902047144
 20
-19.4568165459
 30
0.0
 11
-150.1902047144
 21
-16.2378175459
 31
0.0
  0
LINE
  5
265
330
1F
100
AcDbEntity
  8
0
  6
Continuous
 62
     7
100
AcDbLine
 10
-150.1902047144
 20
-16.2378175459
 30
0.0
 11
-148.3454307144
 21
-16.2378175459
 31
0.0
  0
LINE
  5
266
330
1F
100
AcDbEntity
  8
0
  6
Continuous
 62
     7
100
AcDbLine
 10
-148.3454307144
 20
-16.2378175459
 30
0.0
 11
-146.5006577144
 21
-16.2378175459
 31
0.0
  0
LINE
  5
267
330
1F
100
AcDbEntity
  8
0
  6
Continuous
 62
     7
100
AcDbLine
 10
-146.5006577144
 20
-16.2378175459
 30
0.0
 11
-146.5006577144
 21
-20.3979715459
 31
0.0
  0
LINE
  5
268
330
1F
100
AcDbEntity
  8
0
  6
Continuous
 62
     7
100
AcDbLine
 10
-146.5006577144
 20
-20.3979715459
 30
0.0
 11
-146.5006577144
 21
-24.5580955459
 31
0.0
  0
LINE
  5
269
330
1F
100
AcDbEntity
  8
0
  6
Continuous
 62
     7
100
AcDbLine
 10
-146.5006577144
 20
-24.5580955459
 30
0.0
 11
-148.3454307144
 21
-23.6169695459
 31
0.0
  0
LINE
  5
26A
330
1F
100
AcDbEntity
  8
0
  6
Continuous
 62
     7
100
AcDbLine
 10
-148.3454307144
 20
-23.6169695459
 30
0.0
 11
-150.1902047144
 21
-22.6758145459
 31
0.0
  0
LINE
  5
26B
330
1F
100
AcDbEntity
  8
0
  6
Continuous
 62
     7
100
AcDbLine
 10
-150.1902047144
 20
-22.6758145459
 30
0.0
 11
-150.1902047144
 21
-19.4568165459
 31
0.0
  0
ARC
  5
26C
330
1F
100
AcDbEntity
  8
0
  6
Continuous
 62
     7
100
AcDbCircle
 10
-571.5587359538
 20
-43.9405502859
 30
0.0
 40
144.1909395356132
100
AcDbArc
 50
356.2345899706
 51
0.2232216791
  0
LWPOLYLINE
  5
26D
330
1F
100
AcDbEntity
  8
0
  6
Continuous
 62
     7
100
AcDbPolyline
 90
       12
 70
   128
 43
0.0
 10
-445.8131790161
 20
-26.4994175459
 10
-445.7954087592
 20
-33.7486216747
 10
-445.7417843351
 20
-39.5207067792
 10
-445.6480191642
 20
-43.909753457
 10
-445.4799472582
 20
-47.4349824249
 10
-445.2427030738
 20
-49.3238262021
 10
-445.1332718504
 20
-49.6438722358
 10
-445.0670533169
 20
-49.7333147746
 10
-445.0124800094
 20
-49.7595982451
 10
-444.9477005947
 20
-49.7434570496
 10
-444.8799331107
 20
-49.6793748188
 10
-444.7352367144
 20
-49.4115725459
  0
LWPOLYLINE
  5
26E
330
1F
100
AcDbEntity
  8
0
  6
Continuous
 62
     7
100
AcDbPolyline
 90
        7
 70
   128
 43
0.0
 10
-444.7350502014
 20
-49.4115725459
 10
-444.6522841406
 20
-49.0057133622
 10
-444.5884137955
 20
-48.4057202779
 10
-444.4784209735
 20
-46.7552502983
 10
-444.3005953989
 20
-42.1315316901
 10
-444.169960932
 20
-36.4281447515
 10
-444.0744417144
 20
-29.4972105459
  0
LWPOLYLINE
  5
26F
330
1F
100
AcDbEntity
  8
0
  6
Continuous
 62
     7
100
AcDbPolyline
 90
        6
 70
   128
 43
0.0
 10
-317.4531459808
 20
-52.9486075459
 10
-317.3617635232
 20
-50.9665655255
 10
-317.2808728354
 20
-47.482559662
 10
-317.2149466796
 20
-42.8228536921
 10
-317.1622227591
 20
-36.2654820992
 10
-317.1431067144
 20
-29.0623345459
  0
ARC
  5
270
330
1F
100
AcDbEntity
  8
0
  6
Continuous
 62
     7
100
AcDbCircle
 10
141.7875182514
 20
-31.9410208626
 30
0.0
 40
477.394521683214
100
AcDbArc
 50
179.4852838069
 51
182.1288230131
  0
LWPOLYLINE
  5
271
330
1F
100
AcDbEntity
  8
0
  6
Continuous
 62
     7
100
AcDbPolyline
 90
       13
 70
   128
 43
0.0
 10
-335.2773189545
 20
-49.6745195459
 10
-335.0284529
 20
-51.707902335
 10
-334.9101994872
 20
-52.2280125098
 10
-334.8459282741
 20
-52.37633165
 10
-334.7964463863
 20
-52.4213434834
 10
-334.7549971204
 20
-52.410249228
 10
-334.7142260993
 20
-52.3538215979
 10
-334.5823654769
 20
-51.834379571
 10
-334.4845363241
 20
-51.0727232871
 10
-334.2823827989
 20
-48.2022310023
 10
-334.1104393229
 20
-43.7788654676
 10
-333.971379695
 20
-37.8391474074
 10
-333.8678777144
 20
-30.4195975459
  0
LWPOLYLINE
  5
272
330
1F
100
AcDbEntity
  8
0
  6
Continuous
 62
     7
100
AcDbPolyline
 90
        8
 70
   128
 43
0.0
 10
-318.8679218292
 20
-32.2643715459
 10
-318.7902524827
 20
-38.8945348323
 10
-318.6849092153
 20
-44.7208690095
 10
-318.5589504944
 20
-49.4989074345
 10
-318.4678777734
 20
-51.9594150219
 10
-318.3728169135
 20
-53.7865121279
 10
-318.2874404837
 20
-54.8145877128
 10
-318.2201517144
 20
-55.2088685459
  0
ARC
  5
273
330
1F
100
AcDbEntity
  8
0
  6
Continuous
 62
     7
100
AcDbCircle
 10
-435.2700394266
 20
-43.350331098
 30
0.0
 40
136.1142636333801
100
AcDbArc
 50
356.1900471471
 51
0.1821609781
  0
LWPOLYLINE
  5
274
330
1F
100
AcDbEntity
  8
0
  6
Continuous
 62
     7
100
AcDbPolyline
 90
        8
 70
   128
 43
0.0
 10
-306.5323829651
 20
-40.1047025459
 10
-306.4423954332
 20
-43.410446999
 10
-306.2168099644
 20
-46.3918866709
 10
-305.9125798707
 20
-48.5027520303
 10
-305.7750274149
 20
-48.998306178
 10
-305.6669977364
 20
-49.1859713923
 10
-305.6265598207
 20
-49.206175826
 10
-305.5865587144
 20
-49.1967735459
  0
LWPOLYLINE
  5
275
330
1F
100
AcDbEntity
  8
0
  6
Continuous
 62
     7
100
AcDbPolyline
 90
        7
 70
   128
 43
0.0
 10
-305.5863380432
 20
-49.1967735459
 10
-305.5531337167
 20
-49.1564695735
 10
-305.5255957174
 20
-49.0971665852
 10
-305.4740215182
 20
-48.9338092432
 10
-305.3761171098
 20
-48.4730939339
 10
-305.1932624488
 20
-47.1924304593
 10
-304.9008997144
 20
-43.9062355459
  0
LWPOLYLINE
  5
276
330
1F
100
AcDbEntity
  8
0
  6
Continuous
 62
     7
100
AcDbPolyline
 90
        6
 70
   128
 43
0.0
 10
-340.9690856934
 20
-52.4544925459
 10
-340.8791889063
 20
-50.4933647636
 10
-340.7996079694
 20
-47.0492340382
 10
-340.7347487156
 20
-42.4445026617
 10
-340.6828776554
 20
-35.9660548446
 10
-340.6640707144
 20
-28.8511195459
  0
LWPOLYLINE
  5
277
330
1F
100
AcDbEntity
  8
0
  6
Continuous
 62
     7
100
AcDbPolyline
 90
       12
 70
   128
 43
0.0
 10
-359.1086864471
 20
-26.7300215459
 10
-359.0909991097
 20
-34.0608145186
 10
-359.0375988538
 20
-39.8929447656
 10
-358.9440773447
 20
-44.3236952806
 10
-358.7761730126
 20
-47.8788845692
 10
-358.5388017301
 20
-49.7819028115
 10
-358.4292093734
 20
-50.1042812634
 10
-358.3628677027
 20
-50.1944753866
 10
-358.3081796852
 20
-50.2211118603
 10
-358.243249623
 20
-50.2051515614
 10
-358.1753087655
 20
-50.1410501164
 10
-358.0301927144
 20
-49.8727515459
  0
ARC
  5
278
330
1F
100
AcDbEntity
  8
0
  6
Continuous
 62
     7
100
AcDbCircle
 10
-562.9230141301
 20
-33.073415995
 30
0.0
 40
205.5804752535679
100
AcDbArc
 50
355.3127577442
 51
0.9324684404
  0
LWPOLYLINE
  5
279
330
1F
100
AcDbEntity
  8
0
  6
Continuous
 62
     7
100
AcDbPolyline
 90
        8
 70
   128
 43
0.0
 10
-342.4077033997
 20
-32.2643715459
 10
-342.3315461757
 20
-39.2442924689
 10
-342.2301941045
 20
-45.098201795
 10
-342.1071736588
 20
-49.7058988798
 10
-342.0157991402
 20
-52.0059205138
 10
-341.9175001965
 20
-53.6761754903
 10
-341.8260630908
 20
-54.5976145999
 10
-341.7514447144
 20
-54.9453575459
  0
LWPOLYLINE
  5
27A
330
1F
100
AcDbEntity
  8
0
  6
Continuous
 62
     7
100
AcDbPolyline
 90
        9
 70
   128
 43
0.0
 10
-341.7513370514
 20
-54.9453575459
 10
-341.5975670982
 20
-55.2612305758
 10
-341.4954656051
 20
-55.3852081084
 10
-341.4560673677
 20
-55.4019059166
 10
-341.4187498168
 20
-55.395812298
 10
-341.3493186283
 20
-55.3119442851
 10
-341.2311425423
 20
-54.8748269338
 10
-341.1422156813
 20
-54.2516137391
 10
-340.9694357144
 20
-52.4544925459
  0
LWPOLYLINE
  5
27B
330
1F
100
AcDbEntity
  8
0
  6
Continuous
 62
     7
100
AcDbPolyline
 90
        6
 70
   128
 43
0.0
 10
-381.0932636261
 20
-52.4544925459
 10
-381.0032299978
 20
-50.4933647636
 10
-380.9236492835
 20
-47.0492340382
 10
-380.8587903052
 20
-42.4445026617
 10
-380.8069195315
 20
-35.9660548446
 10
-380.7881127144
 20
-28.8511195459
  0
LWPOLYLINE
  5
27C
330
1F
100
AcDbEntity
  8
0
  6
Continuous
 62
     7
100
AcDbPolyline
 90
       12
 70
   128
 43
0.0
 10
-399.2326259613
 20
-26.7300215459
 10
-399.215013653
 20
-34.0608145186
 10
-399.1616173795
 20
-39.8929447656
 10
-399.0681013203
 20
-44.3236952806
 10
-398.9002039742
 20
-47.8788845692
 10
-398.6628387769
 20
-49.7819028115
 10
-398.5532481607
 20
-50.1042812634
 10
-398.4869072763
 20
-50.1944753866
 10
-398.4322197691
 20
-50.2211118603
 10
-398.3672901618
 20
-50.2051515614
 10
-398.2993496158
 20
-50.1410501164
 10
-398.1542337144
 20
-49.8727515459
  0
ARC
  5
27D
330
1F
100
AcDbEntity
  8
0
  6
Continuous
 62
     7
100
AcDbCircle
 10
-603.1262658373
 20
-33.0718624148
 30
0.0
 40
205.6596492079306
100
AcDbArc
 50
355.314131981
 51
0.931676554
  0
LWPOLYLINE
  5
27E
330
1F
100
AcDbEntity
  8
0
  6
Continuous
 62
     7
100
AcDbPolyline
 90
        8
 70
   128
 43
0.0
 10
-382.5316429138
 20
-32.2643715459
 10
-382.4555878052
 20
-39.2442924689
 10
-382.3542356647
 20
-45.098201795
 10
-382.2312153336
 20
-49.7058988798
 10
-382.1398409345
 20
-52.0059205138
 10
-382.0415421059
 20
-53.6761754903
 10
-381.9501050708
 20
-54.5976145999
 10
-381.8754867144
 20
-54.9453575459
  0
LWPOLYLINE
  5
27F
330
1F
100
AcDbEntity
  8
0
  6
Continuous
 62
     7
100
AcDbPolyline
 90
        9
 70
   128
 43
0.0
 10
-381.8752765656
 20
-54.9453575459
 10
-381.7216073184
 20
-55.2612305758
 10
-381.6195030894
 20
-55.3852081084
 10
-381.5801035099
 20
-55.4019059166
 10
-381.5427845857
 20
-55.395812298
 10
-381.4733507623
 20
-55.3119442851
 10
-381.355171377
 20
-54.8748269338
 10
-381.266244924
 20
-54.2516137391
 10
-381.0934767144
 20
-52.4544925459
  0
ARC
  5
280
330
1F
100
AcDbEntity
  8
0
  6
Continuous
 62
     7
100
AcDbCircle
 10
-212.4320702964
 20
-43.5696177596
 30
0.0
 40
79.62641567892791
100
AcDbArc
 50
352.599909245
 51
358.5107558485
  0
LWPOLYLINE
  5
281
330
1F
100
AcDbEntity
  8
0
  6
Continuous
 62
     7
100
AcDbPolyline
 90
        8
 70
   128
 43
0.0
 10
-117.8043484688
 20
-30.4195975459
 10
-117.7266332099
 20
-36.7143404838
 10
-117.6230917482
 20
-42.0632878712
 10
-117.4982411274
 20
-46.3249942889
 10
-117.4063395558
 20
-48.4734276182
 10
-117.3083906999
 20
-50.0459801642
 10
-117.2182147794
 20
-50.9211652625
 10
-117.1453467144
 20
-51.2558105459
  0
LWPOLYLINE
  5
282
330
1F
100
AcDbEntity
  8
0
  6
Continuous
 62
     7
100
AcDbPolyline
 90
       12
 70
   128
 43
0.0
 10
-117.1452999115
 20
-51.2558105459
 10
-117.0015386407
 20
-51.5122688528
 10
-116.9013861611
 20
-51.5729748561
 10
-116.8305095428
 20
-51.5423205988
 10
-116.7631988898
 20
-51.4448804281
 10
-116.6390364957
 20
-51.044294374
 10
-116.4614079495
 20
-49.736031681
 10
-116.3194388235
 20
-47.5855461898
 10
-116.2314510771
 20
-45.272434855
 10
-116.1630122936
 20
-42.3842121667
 10
-116.0860186669
 20
-35.7200415727
 10
-116.0617267144
 20
-27.0063455459
  0
ARC
  5
283
330
1F
100
AcDbEntity
  8
0
  6
Continuous
 62
     7
100
AcDbCircle
 10
-26.4171850419
 20
-43.8824391971
 30
0.0
 40
108.0471914626052
100
AcDbArc
 50
179.8309637167
 51
184.6662772337
  0
LWPOLYLINE
  5
284
330
1F
100
AcDbEntity
  8
0
  6
Continuous
 62
     7
100
AcDbPolyline
 90
        7
 70
   128
 43
0.0
 10
-134.1061592102
 20
-52.6722835459
 10
-133.9112367299
 20
-54.0958150128
 10
-133.7588282401
 20
-54.6043165276
 10
-133.7334705445
 20
-54.6075189462
 10
-133.7074047793
 20
-54.5887254407
 10
-133.6520681988
 20
-54.4871058428
 10
-133.4689337144
 20
-53.8252745459
  0
ARC
  5
285
330
1F
100
AcDbEntity
  8
0
  6
Continuous
 62
     7
100
AcDbCircle
 10
-259.004007455
 20
-43.5701750108
 30
0.0
 40
79.61756334188142
100
AcDbArc
 50
352.5994862415
 51
358.5109913828
  0
LWPOLYLINE
  5
286
330
1F
100
AcDbEntity
  8
0
  6
Continuous
 62
     7
100
AcDbPolyline
 90
        8
 70
   128
 43
0.0
 10
-164.3850803375
 20
-30.4195975459
 10
-164.3074057479
 20
-36.7143404838
 10
-164.2038639943
 20
-42.0632878712
 10
-164.0790132126
 20
-46.3249942889
 10
-163.9871115876
 20
-48.4734276182
 10
-163.8891627072
 20
-50.0459801642
 10
-163.79898678
 20
-50.9211652625
 10
-163.7261187144
 20
-51.2558105459
  0
LWPOLYLINE
  5
287
330
1F
100
AcDbEntity
  8
0
  6
Continuous
 62
     7
100
AcDbPolyline
 90
       12
 70
   128
 43
0.0
 10
-163.7260913849
 20
-51.2558105459
 10
-163.5823106407
 20
-51.5122688528
 10
-163.4821581611
 20
-51.5729748561
 10
-163.4112815428
 20
-51.5423205988
 10
-163.3439708898
 20
-51.4448804281
 10
-163.2198084957
 20
-51.044294374
 10
-163.0421799495
 20
-49.736031681
 10
-162.9002108235
 20
-47.5855461898
 10
-162.8122230771
 20
-45.272434855
 10
-162.7437842936
 20
-42.3842121667
 10
-162.6667906669
 20
-35.7200415727
 10
-162.6424987144
 20
-27.0063455459
  0
ARC
  5
288
330
1F
100
AcDbEntity
  8
0
  6
Continuous
 62
     7
100
AcDbCircle
 10
-72.9891390293
 20
-43.8819328785
 30
0.0
 40
108.0560274177367
100
AcDbArc
 50
179.8312460114
 51
184.666164181
  0
LWPOLYLINE
  5
289
330
1F
100
AcDbEntity
  8
0
  6
Continuous
 62
     7
100
AcDbPolyline
 90
        7
 70
   128
 43
0.0
 10
-180.6869506836
 20
-52.6722835459
 10
-180.4920093254
 20
-54.0958150128
 10
-180.3395936959
 20
-54.6043165276
 10
-180.3142354196
 20
-54.6075189462
 10
-180.2881693845
 20
-54.5887254407
 10
-180.2328334019
 20
-54.4871058428
 10
-180.0497107144
 20
-53.8252745459
  0
ARC
  5
28A
330
1F
100
AcDbEntity
  8
0
  6
Continuous
 62
     7
100
AcDbCircle
 10
-343.9830214481
 20
-43.562557381
 30
0.0
 40
79.73671822684328
100
AcDbArc
 50
352.6050873874
 51
358.5077413988
  0
LWPOLYLINE
  5
28B
330
1F
100
AcDbEntity
  8
0
  6
Continuous
 62
     7
100
AcDbPolyline
 90
        8
 70
   128
 43
0.0
 10
-249.2451667786
 20
-30.4195975459
 10
-249.1674358714
 20
-36.7143404838
 10
-249.0639010864
 20
-42.0632878712
 10
-248.9390512355
 20
-46.3249942889
 10
-248.847146974
 20
-48.4734276182
 10
-248.7491929118
 20
-50.0459801642
 10
-248.6590103459
 20
-50.9211652625
 10
-248.5861357144
 20
-51.2558105459
  0
LWPOLYLINE
  5
28C
330
1F
100
AcDbEntity
  8
0
  6
Continuous
 62
     7
100
AcDbPolyline
 90
       12
 70
   128
 43
0.0
 10
-248.5860586166
 20
-51.2558105459
 10
-248.4423324198
 20
-51.5122688528
 10
-248.342182709
 20
-51.5729748561
 10
-248.271307745
 20
-51.5423205988
 10
-248.2039984093
 20
-51.4448804281
 10
-248.0798377301
 20
-51.044294374
 10
-247.9022097397
 20
-49.736031681
 10
-247.7602390106
 20
-47.5855461898
 10
-247.672249043
 20
-45.272434855
 10
-247.6038076414
 20
-42.3842121667
 10
-247.5268096447
 20
-35.7200415727
 10
-247.5025157144
 20
-27.0063455459
  0
ARC
  5
28D
330
1F
100
AcDbEntity
  8
0
  6
Continuous
 62
     7
100
AcDbCircle
 10
-157.9009645898
 20
-43.884557388
 30
0.0
 40
108.0041770795769
100
AcDbArc
 50
179.8297726985
 51
184.6670123444
  0
LWPOLYLINE
  5
28E
330
1F
100
AcDbEntity
  8
0
  6
Continuous
 62
     7
100
AcDbPolyline
 90
        7
 70
   128
 43
0.0
 10
-265.5470371246
 20
-52.6722835459
 10
-265.3520315593
 20
-54.0958150128
 10
-265.1996228248
 20
-54.6043165276
 10
-265.1742651093
 20
-54.6075189462
 10
-265.1481993352
 20
-54.5887254407
 10
-265.0928627769
 20
-54.4871058428
 10
-264.9097287144
 20
-53.8252745459
  0
LWPOLYLINE
  5
28F
330
1F
100
AcDbEntity
  8
0
  6
Continuous
 62
     7
100
AcDbPolyline
 90
        6
 70
   128
 43
0.0
 10
-139.4267082214
 20
-51.0709265459
 10
-139.3366239063
 20
-49.1407540519
 10
-139.2570429694
 20
-45.7832198656
 10
-139.1921837156
 20
-41.3112752501
 10
-139.1403126554
 20
-35.0357697129
 10
-139.1215057144
 20
-28.1593365459
  0
LWPOLYLINE
  5
290
330
1F
100
AcDbEntity
  8
0
  6
Continuous
 62
     7
100
AcDbPolyline
 90
        5
 70
   128
 43
0.0
 10
-157.5692892075
 20
-18.0826195459
 10
-157.3577585582
 20
-26.5801461709
 10
-157.2586962042
 20
-27.2607935303
 10
-157.2411927522
 20
-27.2967046504
 10
-157.2234647144
 20
-27.3088875459
  0
ARC
  5
291
330
1F
100
AcDbEntity
  8
0
  6
Continuous
 62
     7
100
AcDbCircle
 10
-159.7653808847
 20
-34.9793543754
 30
0.0
 40
8.080681135769346
100
AcDbArc
 50
54.2779619207
 51
71.6653075758
  0
ARC
  5
292
330
1F
100
AcDbEntity
  8
0
  6
Continuous
 62
     7
100
AcDbCircle
 10
-41.7825347488
 20
-39.3318814523
 30
0.0
 40
115.7422602758188
100
AcDbArc
 50
179.7431513907
 51
184.5539353555
  0
LWPOLYLINE
  5
293
330
1F
100
AcDbEntity
  8
0
  6
Continuous
 62
     7
100
AcDbPolyline
 90
        8
 70
   128
 43
0.0
 10
-157.1593284607
 20
-48.5215285459
 10
-156.8732140549
 20
-50.4420912022
 10
-156.8361306161
 20
-50.5292021646
 10
-156.8173591893
 20
-50.5495967842
 10
-156.7981916097
 20
-50.5548711108
 10
-156.7437552325
 20
-50.4968413394
 10
-156.6817494801
 20
-50.3375527646
 10
-156.4531107144
 20
-49.4523815459
  0
ARC
  5
294
330
1F
100
AcDbEntity
  8
0
  6
Continuous
 62
     7
100
AcDbCircle
 10
-237.4077373521
 20
-38.9069419157
 30
0.0
 40
81.63867725470055
100
AcDbArc
 50
352.5782460514
 51
359.0724921016
  0
ARC
  5
295
330
1F
100
AcDbEntity
  8
0
  6
Continuous
 62
     7
100
AcDbCircle
 10
-161.4307278925
 20
-13.1106103483
 30
0.0
 40
20.02790060512199
100
AcDbArc
 50
295.3023846586
 51
305.0316168503
  0
LWPOLYLINE
  5
296
330
1F
100
AcDbEntity
  8
0
  6
Continuous
 62
     7
100
AcDbPolyline
 90
        6
 70
   128
 43
0.0
 10
-149.934053421
 20
-29.5101645459
 10
-149.9180050169
 20
-29.4703821565
 10
-149.9333880875
 20
-29.4163947744
 10
-150.0531067613
 20
-29.269534999
 10
-151.1908320553
 20
-28.484840465
 10
-152.6724337144
 20
-27.6912425459
  0
LWPOLYLINE
  5
297
330
1F
100
AcDbEntity
  8
0
  6
Continuous
 62
     7
100
AcDbPolyline
 90
        8
 70
   128
 43
0.0
 10
-140.8647298813
 20
-31.5725885459
 10
-140.7879721938
 20
-38.2957340016
 10
-140.6858460349
 20
-43.9602606119
 10
-140.5621834419
 20
-48.4381015015
 10
-140.4706269207
 20
-50.6812059205
 10
-140.3724558419
 20
-52.3147853943
 10
-140.2814672683
 20
-53.2188981137
 10
-140.2074687144
 20
-53.5617915459
  0
LWPOLYLINE
  5
298
330
1F
100
AcDbEntity
  8
0
  6
Continuous
 62
     7
100
AcDbPolyline
 90
        9
 70
   128
 43
0.0
 10
-140.2074098587
 20
-53.5617915459
 10
-140.0541176631
 20
-53.8771628762
 10
-139.9522911988
 20
-54.0007211553
 10
-139.9129794167
 20
-54.0172483846
 10
-139.8757325497
 20
-54.0109950785
 10
-139.8064025985
 20
-53.9268571028
 10
-139.6883158449
 20
-53.4895126913
 10
-139.5994183583
 20
-52.8664992755
 10
-139.4267577144
 20
-51.0709265459
  0
LWPOLYLINE
  5
299
330
1F
100
AcDbEntity
  8
0
  6
Continuous
 62
     7
100
AcDbPolyline
 90
        6
 70
   128
 43
0.0
 10
-186.0074996948
 20
-51.0709265459
 10
-185.9174009978
 20
-49.1407540519
 10
-185.8378202835
 20
-45.7832198656
 10
-185.7729613052
 20
-41.3112752501
 10
-185.7210905315
 20
-35.0357697129
 10
-185.7022837144
 20
-28.1593365459
  0
LWPOLYLINE
  5
29A
330
1F
100
AcDbEntity
  8
0
  6
Continuous
 62
     7
100
AcDbPolyline
 90
        9
 70
   128
 43
0.0
 10
-198.6125707626
 20
-40.3353055459
 10
-198.5219495582
 20
-43.811873499
 10
-198.2942067144
 20
-46.8751356709
 10
-197.9859671207
 20
-48.9802992803
 10
-197.8460969157
 20
-49.4477141909
 10
-197.7842926968
 20
-49.5589899022
 10
-197.7359587003
 20
-49.6026928982
 10
-197.6946532327
 20
-49.6080977301
 10
-197.6537457144
 20
-49.5825715459
  0
ARC
  5
29B
330
1F
100
AcDbEntity
  8
0
  6
Continuous
 62
     7
100
AcDbCircle
 10
-215.3445997921
 20
-44.5693917659
 30
0.0
 40
18.38754013639484
100
AcDbArc
 50
344.1785744744
 51
1.6969479788
  0
LWPOLYLINE
  5
29C
330
1F
100
AcDbEntity
  8
0
  6
Continuous
 62
     7
100
AcDbPolyline
 90
        8
 70
   128
 43
0.0
 10
-187.445640564
 20
-31.5725885459
 10
-187.3688885461
 20
-38.2957340016
 10
-187.266755979
 20
-43.9602606119
 10
-187.1430855201
 20
-48.4381015015
 10
-187.051524127
 20
-50.6812059205
 10
-186.9533492062
 20
-52.3147853943
 10
-186.8623586293
 20
-53.2188981137
 10
-186.7883597144
 20
-53.5617915459
  0
LWPOLYLINE
  5
29D
330
1F
100
AcDbEntity
  8
0
  6
Continuous
 62
     7
100
AcDbPolyline
 90
        9
 70
   128
 43
0.0
 10
-186.7883205414
 20
-53.5617915459
 10
-186.6350100763
 20
-53.8771628762
 10
-186.5331861207
 20
-54.0007211553
 10
-186.493875596
 20
-54.0172483846
 10
-186.4566300229
 20
-54.0109950785
 10
-186.3873025587
 20
-53.9268571028
 10
-186.2692188365
 20
-53.4895126913
 10
-186.1803207046
 20
-52.8664992755
 10
-186.0076477144
 20
-51.0709265459
  0
ARC
  5
29E
330
1F
100
AcDbEntity
  8
0
  6
Continuous
 62
     7
100
AcDbCircle
 10
-404.841136737
 20
-41.1105363865
 30
0.0
 40
117.5327917234562
100
AcDbArc
 50
354.0156676313
 51
359.2537566807
  0
LWPOLYLINE
  5
29F
330
1F
100
AcDbEntity
  8
0
  6
Continuous
 62
     7
100
AcDbPolyline
 90
        8
 70
   128
 43
0.0
 10
-272.3045349121
 20
-29.7278145459
 10
-272.2262055675
 20
-35.765219533
 10
-272.1217603497
 20
-40.9248594219
 10
-271.996139416
 20
-45.0570812039
 10
-271.9040111804
 20
-47.1488390805
 10
-271.8062043992
 20
-48.6848401377
 10
-271.7165565945
 20
-49.5426326432
 10
-271.6444257144
 20
-49.8722155459
  0
LWPOLYLINE
  5
2A0
330
1F
100
AcDbEntity
  8
0
  6
Continuous
 62
     7
100
AcDbPolyline
 90
       12
 70
   128
 43
0.0
 10
-271.6443538666
 20
-49.8722155459
 10
-271.5019044896
 20
-50.1271220955
 10
-271.4025212373
 20
-50.1879510055
 10
-271.3321197057
 20
-50.1583530041
 10
-271.2652026667
 20
-50.0629624391
 10
-271.1416040113
 20
-49.6700568428
 10
-270.964351284
 20
-48.3881536886
 10
-270.8222178168
 20
-46.2858137294
 10
-270.7338495798
 20
-44.0294792219
 10
-270.6649127333
 20
-41.217684599
 10
-270.5870354293
 20
-34.7474347943
 10
-270.5623287144
 20
-26.3145625459
  0
ARC
  5
2A1
330
1F
100
AcDbEntity
  8
0
  6
Continuous
 62
     7
100
AcDbCircle
 10
-133.4112193356
 20
-41.6161796937
 30
0.0
 40
155.5568362133598
100
AcDbArc
 50
179.6131542304
 51
183.9054201328
  0
LWPOLYLINE
  5
2A2
330
1F
100
AcDbEntity
  8
0
  6
Continuous
 62
     7
100
AcDbPolyline
 90
        7
 70
   128
 43
0.0
 10
-288.6066436768
 20
-52.2111045459
 10
-288.4100269688
 20
-53.6514891437
 10
-288.2554135387
 20
-54.1606479966
 10
-288.2292840179
 20
-54.1627924655
 10
-288.2022669083
 20
-54.1426790126
 10
-288.1443930894
 20
-54.0377408896
 10
-287.9490527144
 20
-53.3640945459
  0
LWPOLYLINE
  5
2A3
330
1F
100
AcDbEntity
  8
0
  6
Continuous
 62
     7
100
AcDbPolyline
 90
        6
 70
   128
 43
0.0
 10
-364.4902706146
 20
-51.0709265459
 10
-364.4001819063
 20
-49.1407540519
 10
-364.3206009694
 20
-45.7832198656
 10
-364.2557417156
 20
-41.3112752501
 10
-364.2038706554
 20
-35.0357697129
 10
-364.1850637144
 20
-28.1593365459
  0
LWPOLYLINE
  5
2A4
330
1F
100
AcDbEntity
  8
0
  6
Continuous
 62
     7
100
AcDbPolyline
 90
        9
 70
   128
 43
0.0
 10
-377.0952224731
 20
-40.3353055459
 10
-377.0047059332
 20
-43.811873499
 10
-376.7769727144
 20
-46.8751356709
 10
-376.4687427457
 20
-48.9802992803
 10
-376.3288753203
 20
-49.4477141909
 10
-376.2670719308
 20
-49.5589899022
 10
-376.2187383858
 20
-49.6026928982
 10
-376.1774331524
 20
-49.6080977301
 10
-376.1365257144
 20
-49.5825715459
  0
ARC
  5
2A5
330
1F
100
AcDbEntity
  8
0
  6
Continuous
 62
     7
100
AcDbCircle
 10
-393.8454585353
 20
-44.5675608214
 30
0.0
 40
18.40555688325707
100
AcDbArc
 50
344.1885433739
 51
1.6895842468
  0
LWPOLYLINE
  5
2A6
330
1F
100
AcDbEntity
  8
0
  6
Continuous
 62
     7
100
AcDbPolyline
 90
        8
 70
   128
 43
0.0
 10
-365.9284114838
 20
-31.5725885459
 10
-365.8516686311
 20
-38.2957340016
 10
-365.7495362411
 20
-43.9602606119
 10
-365.625865934
 20
-48.4381015015
 10
-365.5343045706
 20
-50.6812059205
 10
-365.4361295839
 20
-52.3147853943
 10
-365.3451388432
 20
-53.2188981137
 10
-365.2711397144
 20
-53.5617915459
  0
LWPOLYLINE
  5
2A7
330
1F
100
AcDbEntity
  8
0
  6
Continuous
 62
     7
100
AcDbPolyline
 90
        9
 70
   128
 43
0.0
 10
-365.2710914612
 20
-53.5617915459
 10
-365.117790079
 20
-53.8771628762
 10
-365.0159661363
 20
-54.0007211553
 10
-364.9766556221
 20
-54.0172483846
 10
-364.9394100635
 20
-54.0109950785
 10
-364.8700826424
 20
-53.9268571028
 10
-364.7519990678
 20
-53.4895126913
 10
-364.6631011307
 20
-52.8664992755
 10
-364.4904287144
 20
-51.0709265459
  0
ARC
  5
2A8
330
1F
100
AcDbEntity
  8
0
  6
Continuous
 62
     7
100
AcDbCircle
 10
-581.7528635956
 20
-38.7346006069
 30
0.0
 40
160.697032229795
100
AcDbArc
 50
354.9417953289
 51
359.6759363651
  0
LWPOLYLINE
  5
2A9
330
1F
100
AcDbEntity
  8
0
  6
Continuous
 62
     7
100
AcDbPolyline
 90
        8
 70
   128
 43
0.0
 10
-406.0523509979
 20
-29.4972105459
 10
-405.9760286201
 20
-35.5060500626
 10
-405.8734970033
 20
-40.6118149764
 10
-405.7492128835
 20
-44.6815296326
 10
-405.6574006745
 20
-46.7354045715
 10
-405.5592860345
 20
-48.2418218541
 10
-405.4687335828
 20
-49.0842532126
 10
-405.3954067144
 20
-49.4110085459
  0
LWPOLYLINE
  5
2AA
330
1F
100
AcDbEntity
  8
0
  6
Continuous
 62
     7
100
AcDbPolyline
 90
       12
 70
   128
 43
0.0
 10
-405.3952693939
 20
-49.4110085459
 10
-405.2523684352
 20
-49.6648628855
 10
-405.1526202912
 20
-49.7259856989
 10
-405.0819579119
 20
-49.6972420039
 10
-405.0147909734
 20
-49.6032662062
 10
-404.8907252144
 20
-49.2149332178
 10
-404.7127879656
 20
-47.9461637549
 10
-404.5700898339
 20
-45.8643237215
 10
-404.4813611062
 20
-43.6296399776
 10
-404.4121362241
 20
-40.8446800159
 10
-404.3339226596
 20
-34.4361217147
 10
-404.3091047144
 20
-26.0839585459
  0
ARC
  5
2AB
330
1F
100
AcDbEntity
  8
0
  6
Continuous
 62
     7
100
AcDbCircle
 10
-209.8372638853
 20
-39.2972725576
 30
0.0
 40
212.8808926125032
100
AcDbArc
 50
179.5346093855
 51
183.3534729718
  0
LWPOLYLINE
  5
2AC
330
1F
100
AcDbEntity
  8
0
  6
Continuous
 62
     7
100
AcDbPolyline
 90
        7
 70
   128
 43
0.0
 10
-422.3535060883
 20
-51.7498965459
 10
-422.1556923826
 20
-53.2011187796
 10
-421.9995562589
 20
-53.7107000249
 10
-421.9728885286
 20
-53.712164173
 10
-421.9452085015
 20
-53.6912019517
 10
-421.8855695582
 20
-53.5841300146
 10
-421.6817737144
 20
-52.9028875459
  0
ARC
  5
2AD
330
1F
100
AcDbEntity
  8
0
  6
Continuous
 62
     7
100
AcDbCircle
 10
-599.7749223325
 20
-32.3463951292
 30
0.0
 40
289.431572206659
100
AcDbArc
 50
356.247507515
 51
0.3814310378
  0
LWPOLYLINE
  5
2AE
330
1F
100
AcDbEntity
  8
0
  6
Continuous
 62
     7
100
AcDbPolyline
 90
        8
 70
   128
 43
0.0
 10
-295.3457832336
 20
-29.7278145459
 10
-295.2666013432
 20
-35.4418244407
 10
-295.1582715605
 20
-40.5801455997
 10
-295.0295405228
 20
-44.8760126748
 10
-294.9375396353
 20
-47.1202163994
 10
-294.8428114061
 20
-48.804550169
 10
-294.7591392367
 20
-49.7627358571
 10
-294.6943327144
 20
-50.1357265459
  0
LWPOLYLINE
  5
2AF
330
1F
100
AcDbEntity
  8
0
  6
Continuous
 62
     7
100
AcDbPolyline
 90
       13
 70
   128
 43
0.0
 10
-294.694185257
 20
-50.1357265459
 10
-294.5578284596
 20
-50.4604614741
 10
-294.4934237424
 20
-50.5401374277
 10
-294.4315504723
 20
-50.5639381904
 10
-294.3721835293
 20
-50.5313031246
 10
-294.3152977935
 20
-50.4416715923
 10
-294.2088694644
 20
-50.0891765771
 10
-294.0345429226
 20
-48.7860382568
 10
-293.8929484929
 20
-46.6220376454
 10
-293.8037862354
 20
-44.2983669114
 10
-293.7333552365
 20
-41.4103076034
 10
-293.6521367093
 20
-34.8037986022
 10
-293.6248797144
 20
-26.2688425459
  0
LWPOLYLINE
  5
2B0
330
1F
100
AcDbEntity
  8
0
  6
Continuous
 62
     7
100
AcDbPolyline
 90
       12
 70
   128
 43
0.0
 10
-312.0241165161
 20
-28.1136165459
 10
-311.9915200301
 20
-35.6038387076
 10
-311.9293910798
 20
-41.5305174522
 10
-311.8330497776
 20
-45.9993636291
 10
-311.7483740274
 20
-48.2015468761
 10
-311.6452984223
 20
-49.8451373489
 10
-311.4428031051
 20
-51.3724359365
 10
-311.3392502035
 20
-51.6577091521
 10
-311.2547286412
 20
-51.733068069
 10
-311.1873580371
 20
-51.7143032667
 10
-311.1164914015
 20
-51.6328692772
 10
-310.9639637144
 20
-51.2886895459
  0
LWPOLYLINE
  5
2B1
330
1F
100
AcDbEntity
  8
0
  6
Continuous
 62
     7
100
AcDbPolyline
 90
        3
 70
   128
 43
0.0
 10
-328.9785385132
 20
-48.2909245459
 10
-328.0811021644
 20
-43.480472181
 10
-326.6972317144
 20
-38.8364235459
  0
LWPOLYLINE
  5
2B2
330
1F
100
AcDbEntity
  8
0
  6
Continuous
 62
     7
100
AcDbPolyline
 90
        5
 70
   128
 43
0.0
 10
-324.4662284851
 20
-39.9894145459
 10
-324.3372633534
 20
-43.1258180398
 10
-324.2248679409
 20
-45.8813505642
 10
-324.158738784
 20
-47.5236912592
 10
-324.1205717144
 20
-48.4984705459
  0
LWPOLYLINE
  5
2B3
330
1F
100
AcDbEntity
  8
0
  6
Continuous
 62
     7
100
AcDbPolyline
 90
        6
 70
   128
 43
0.0
 10
-324.1205215454
 20
-48.4984705459
 10
-324.0436545036
 20
-49.3781374476
 10
-323.9207935135
 20
-49.6920123025
 10
-323.8556739775
 20
-49.7313954211
 10
-323.7788021988
 20
-49.729711749
 10
-323.5087697144
 20
-49.5373305459
  0
LWPOLYLINE
  5
2B4
330
1F
100
AcDbEntity
  8
0
  6
Continuous
 62
     7
100
AcDbPolyline
 90
        7
 70
   128
 43
0.0
 10
-323.5087394714
 20
-49.5373305459
 10
-323.3984818723
 20
-49.3244021001
 10
-323.3185243301
 20
-49.0163411489
 10
-323.1895612262
 20
-48.143830327
 10
-322.9993880132
 20
-45.4905337322
 10
-322.8674575714
 20
-41.8396979562
 10
-322.7652557144
 20
-36.8775195459
  0
ARC
  5
2B5
330
1F
100
AcDbEntity
  8
0
  6
Continuous
 62
     7
100
AcDbCircle
 10
-559.8310210076
 20
-30.0378940619
 30
0.0
 40
237.1645541112443
100
AcDbArc
 50
358.3474089683
 51
1.5514056882
  0
LWPOLYLINE
  5
2B6
330
1F
100
AcDbEntity
  8
0
  6
Continuous
 62
     7
100
AcDbPolyline
 90
       11
 70
   128
 43
0.0
 10
-322.7531909943
 20
-23.6169415459
 10
-322.7894461371
 20
-23.5225835132
 10
-322.8101261592
 20
-23.5117563238
 10
-322.8347006594
 20
-23.5142909011
 10
-322.8914686558
 20
-23.5552094213
 10
-322.9456877518
 20
-23.6204017154
 10
-323.0634631363
 20
-23.8089074521
 10
-323.6616140565
 20
-25.1330289082
 10
-324.561699026
 20
-27.5026723352
 10
-325.4768038863
 20
-30.0880599484
 10
-326.5716717144
 20
-33.3020745459
  0
LWPOLYLINE
  5
2B7
330
1F
100
AcDbEntity
  8
0
  6
Continuous
 62
     7
100
AcDbPolyline
 90
        7
 70
   128
 43
0.0
 10
-326.5714645386
 20
-33.3020745459
 10
-327.9419576009
 20
-37.4276046925
 10
-328.9350901503
 20
-40.587126503
 10
-329.5926890374
 20
-43.0082063732
 10
-329.9563739372
 20
-44.9184106989
 10
-330.0341581923
 20
-47.435336809
 10
-329.6504337144
 20
-50.1357265459
  0
LWPOLYLINE
  5
2B8
330
1F
100
AcDbEntity
  8
0
  6
Continuous
 62
     7
100
AcDbPolyline
 90
        7
 70
   128
 43
0.0
 10
-329.6504020691
 20
-50.1357265459
 10
-329.4592564801
 20
-51.0366964365
 10
-329.4159912901
 20
-51.147667429
 10
-329.3753896498
 20
-51.1907622481
 10
-329.3492822523
 20
-51.1803571853
 10
-329.1902298344
 20
-50.4095531112
 10
-328.9784347144
 20
-48.2909245459
  0
ARC
  5
2B9
330
1F
100
AcDbEntity
  8
0
  6
Continuous
 62
     7
100
AcDbCircle
 10
-587.2573317004
 20
-30.1055713471
 30
0.0
 40
494.7294098915167
100
AcDbArc
 50
357.9453973788
 51
0.4123457934
  0
LWPOLYLINE
  5
2BA
330
1F
100
AcDbEntity
  8
0
  6
Continuous
 62
     7
100
AcDbPolyline
 90
        3
 70
   128
 43
0.0
 10
-110.9429001808
 20
-41.8107915459
 10
-110.789004658
 20
-46.2908256145
 10
-110.5688327144
 20
-48.9827355459
  0
LWPOLYLINE
  5
2BB
330
1F
100
AcDbEntity
  8
0
  6
Continuous
 62
     7
100
AcDbPolyline
 90
        9
 70
   128
 43
0.0
 10
-110.5688214302
 20
-48.9827355459
 10
-110.2803107404
 20
-50.8696764199
 10
-110.2446896153
 20
-50.9566141459
 10
-110.2270302756
 20
-50.9773741843
 10
-110.20926119
 20
-50.9832922139
 10
-110.1851254105
 20
-50.9684806193
 10
-110.1601394482
 20
-50.9282078765
 10
-110.1061196519
 20
-50.7733924209
 10
-109.9153467144
 20
-49.9051225459
  0
ARC
  5
2BC
330
1F
100
AcDbEntity
  8
0
  6
Continuous
 62
     7
100
AcDbCircle
 10
-181.7709343905
 20
-39.3991888939
 30
0.0
 40
72.61958772331904
100
AcDbArc
 50
351.6817837434
 51
356.9857959976
  0
ARC
  5
2BD
330
1F
100
AcDbEntity
  8
0
  6
Continuous
 62
     7
100
AcDbCircle
 10
-114.8487782763
 20
-18.6467745561
 30
0.0
 40
20.02573908257565
100
AcDbArc
 50
295.3014544816
 51
305.031837536
  0
LWPOLYLINE
  5
2BE
330
1F
100
AcDbEntity
  8
0
  6
Continuous
 62
     7
100
AcDbPolyline
 90
        6
 70
   128
 43
0.0
 10
-103.3533215523
 20
-35.0445145459
 10
-103.3372325218
 20
-35.0047319805
 10
-103.3526152203
 20
-34.9507444443
 10
-103.4723334488
 20
-34.8038844209
 10
-104.6100584963
 20
-34.0191895009
 10
-106.0916587144
 20
-33.2255915459
  0
LWPOLYLINE
  5
2BF
330
1F
100
AcDbEntity
  8
0
  6
Continuous
 62
     7
100
AcDbPolyline
 90
        8
 70
   128
 43
0.0
 10
-94.2831039429
 20
-29.9583895459
 10
-94.20498698
 20
-36.0816162755
 10
-94.1008462626
 20
-41.3043606951
 10
-93.9754829509
 20
-45.4797244305
 10
-93.8834291393
 20
-47.5903584664
 10
-93.7855722606
 20
-49.1385318496
 10
-93.6957444978
 20
-50.0021194849
 10
-93.6233637144
 20
-50.3333955459
  0
LWPOLYLINE
  5
2C0
330
1F
100
AcDbEntity
  8
0
  6
Continuous
 62
     7
100
AcDbPolyline
 90
        9
 70
   128
 43
0.0
 10
-93.6233401299
 20
-50.3333955459
 10
-93.4713732521
 20
-50.6475190865
 10
-93.3702626676
 20
-50.7700155459
 10
-93.3311772715
 20
-50.7861074036
 10
-93.2941162359
 20
-50.779444896
 10
-93.2250541253
 20
-50.6946110498
 10
-93.1072051045
 20
-50.2566692569
 10
-93.018379303
 20
-49.6341565579
 10
-92.8459827144
 20
-47.8425585459
  0
ARC
  5
2C1
330
1F
100
AcDbEntity
  8
0
  6
Continuous
 62
     7
100
AcDbCircle
 10
-196.8085795422
 20
-39.5910855249
 30
0.0
 40
98.73641251865534
100
AcDbArc
 50
355.5094591753
 51
359.5598286596
  0
LWPOLYLINE
  5
2C2
330
1F
100
AcDbEntity
  8
0
  6
Continuous
 62
     7
100
AcDbPolyline
 90
        5
 70
   128
 43
0.0
 10
-101.7642021179
 20
-38.9203285459
 10
-103.2339708747
 20
-39.7215810675
 10
-104.2499872699
 20
-40.3214933662
 10
-105.1310721432
 20
-41.0668590543
 10
-105.4504787144
 20
-42.7565755459
  0
LWPOLYLINE
  5
2C3
330
1F
100
AcDbEntity
  8
0
  6
Continuous
 62
     7
100
AcDbPolyline
 90
        8
 70
   128
 43
0.0
 10
-105.4504513741
 20
-42.7565755459
 10
-105.3529130894
 20
-45.3753427803
 10
-105.1165074644
 20
-47.9678156709
 10
-104.8149032144
 20
-49.913191749
 10
-104.6865014849
 20
-50.3879526401
 10
-104.5902133189
 20
-50.5741150393
 10
-104.5554081499
 20
-50.5965410226
 10
-104.5217417144
 20
-50.5906685459
  0
LWPOLYLINE
  5
2C4
330
1F
100
AcDbEntity
  8
0
  6
Continuous
 62
     7
100
AcDbPolyline
 90
        7
 70
   128
 43
0.0
 10
-104.5216917992
 20
-50.5906685459
 10
-104.489834871
 20
-50.5543185288
 10
-104.4634902316
 20
-50.502237102
 10
-104.4140359946
 20
-50.3603473617
 10
-104.3198248385
 20
-49.9632609911
 10
-104.1429449429
 20
-48.8652604388
 10
-103.8574187144
 20
-46.0592525459
  0
ARC
  5
2C5
330
1F
100
AcDbEntity
  8
0
  6
Continuous
 62
     7
100
AcDbCircle
 10
-97.5786291967
 20
-48.6021145199
 30
0.0
 40
8.78325465887895
100
AcDbArc
 50
107.3834100882
 51
119.7842710719
  0
ARC
  5
2C6
330
1F
100
AcDbEntity
  8
0
  6
Continuous
 62
     7
100
AcDbCircle
 10
-109.019891781
 20
-43.5520035126
 30
0.0
 40
9.425725583356066
100
AcDbArc
 50
350.0741844279
 51
20.7014821624
  0
ARC
  5
2C7
330
1F
100
AcDbEntity
  8
0
  6
Continuous
 62
     7
100
AcDbCircle
 10
-82.7122921947
 20
-45.6792363156
 30
0.0
 40
17.0303230423166
100
AcDbArc
 50
178.3091985988
 51
196.454538436
  0
LWPOLYLINE
  5
2C8
330
1F
100
AcDbEntity
  8
0
  6
Continuous
 62
     7
100
AcDbPolyline
 90
        6
 70
   128
 43
0.0
 10
-99.0450978279
 20
-50.5031515459
 10
-99.0059208216
 20
-50.5223844531
 10
-98.943538999
 20
-50.4829513805
 10
-98.8779143863
 20
-50.3664727334
 10
-98.5748454615
 20
-49.0448608759
 10
-98.3752797144
 20
-47.3216045459
  0
ARC
  5
2C9
330
1F
100
AcDbEntity
  8
0
  6
Continuous
 62
     7
100
AcDbCircle
 10
-582.023794171
 20
-32.5724500574
 30
0.0
 40
351.5948872257439
100
AcDbArc
 50
357.5957774699
 51
0.4185395913
  0
LWPOLYLINE
  5
2CA
330
1F
100
AcDbEntity
  8
0
  6
Continuous
 62
     7
100
AcDbPolyline
 90
       10
 70
   128
 43
0.0
 10
-237.8141880035
 20
-30.4195975459
 10
-237.795545597
 20
-36.3728426399
 10
-237.7396167127
 20
-41.1703363394
 10
-237.6424288232
 20
-44.8859920109
 10
-237.4693526259
 20
-47.976831132
 10
-237.2265859019
 20
-49.7886335303
 10
-237.0550483497
 20
-50.2943955074
 10
-236.9596479943
 20
-50.41401895
 10
-236.8576218316
 20
-50.4485031746
 10
-236.7110147144
 20
-50.3668385459
  0
LWPOLYLINE
  5
2CB
330
1F
100
AcDbEntity
  8
0
  6
Continuous
 62
     7
100
AcDbPolyline
 90
        8
 70
   128
 43
0.0
 10
-236.7109060287
 20
-50.3668385459
 10
-236.6550593012
 20
-50.2598599382
 10
-236.6127747313
 20
-50.105535453
 10
-236.5408956974
 20
-49.6748166115
 10
-236.4238832645
 20
-48.4047068854
 10
-236.2497959763
 20
-44.5035064173
 10
-236.1302774438
 20
-39.2004043818
 10
-236.0426567144
 20
-32.1262235459
  0
LWPOLYLINE
  5
2CC
330
1F
100
AcDbEntity
  8
0
  6
Continuous
 62
     7
100
AcDbPolyline
 90
        8
 70
   128
 43
0.0
 10
-232.2096824646
 20
-32.1263645459
 10
-232.1386262064
 20
-38.2398952128
 10
-232.0445404733
 20
-43.0758813607
 10
-231.9263118218
 20
-46.6648690901
 10
-231.7313934864
 20
-49.5446901377
 10
-231.6310268229
 20
-50.1584412599
 10
-231.583952805
 20
-50.3043456436
 10
-231.5456997144
 20
-50.3662455459
  0
LWPOLYLINE
  5
2CD
330
1F
100
AcDbEntity
  8
0
  6
Continuous
 62
     7
100
AcDbPolyline
 90
        7
 70
   128
 43
0.0
 10
-231.5456867218
 20
-50.3662455459
 10
-231.4141995894
 20
-50.4469615517
 10
-231.2948524644
 20
-50.4087281553
 10
-231.1803703703
 20
-50.232664329
 10
-231.0972613461
 20
-49.9917792803
 10
-230.960574027
 20
-49.3249028629
 10
-230.7386007144
 20
-47.3216045459
  0
LWPOLYLINE
  5
2CE
330
1F
100
AcDbEntity
  8
0
  6
Continuous
 62
     7
100
AcDbPolyline
 90
        5
 70
   128
 43
0.0
 10
-148.3453512192
 20
-33.3020745459
 10
-149.8216484828
 20
-34.0515236883
 10
-150.8399063732
 20
-34.613436366
 10
-151.7193094516
 20
-35.3223769524
 10
-152.0350067144
 20
-36.9967865459
  0
LWPOLYLINE
  5
2CF
330
1F
100
AcDbEntity
  8
0
  6
Continuous
 62
     7
100
AcDbPolyline
 90
        9
 70
   128
 43
0.0
 10
-150.190114975
 20
-36.6158425459
 10
-150.1739504675
 20
-36.5656897804
 10
-150.1394730832
 20
-36.5168755325
 10
-150.0346938257
 20
-36.4115014343
 10
-149.7299664488
 20
-36.1764857803
 10
-148.6733520894
 20
-35.5282959209
 10
-147.3821706899
 20
-34.8878400591
 10
-146.9462341858
 20
-34.7281344365
 10
-146.7155977144
 20
-34.6856685459
  0
LWPOLYLINE
  5
2D0
330
1F
100
AcDbEntity
  8
0
  6
Continuous
 62
     7
100
AcDbPolyline
 90
        5
 70
   128
 43
0.0
 10
-146.7155218124
 20
-34.6856685459
 10
-146.6724190797
 20
-34.7092009053
 10
-146.6321380113
 20
-34.7766454834
 10
-146.5637940894
 20
-35.0243562959
 10
-146.5006577144
 20
-35.8386595459
  0
LWPOLYLINE
  5
2D1
330
1F
100
AcDbEntity
  8
0
  6
Continuous
 62
     7
100
AcDbPolyline
 90
        5
 70
   128
 43
0.0
 10
-146.5005874634
 20
-35.8386595459
 10
-146.5554219801
 20
-36.4565785771
 10
-146.8004268394
 20
-36.8042682959
 10
-147.4501672374
 20
-36.9662877488
 10
-148.3454307144
 20
-36.9916215459
  0
LWPOLYLINE
  5
2D2
330
1F
100
AcDbEntity
  8
0
  6
Continuous
 62
     7
100
AcDbPolyline
 90
        5
 70
   128
 43
0.0
 10
-148.3453512192
 20
-36.9916215459
 10
-149.6482994644
 20
-36.8812445459
 10
-150.0446394332
 20
-36.7617595771
 10
-150.152552273
 20
-36.6913348076
 10
-150.1902047144
 20
-36.6158425459
  0
ARC
  5
2D3
330
1F
100
AcDbEntity
  8
0
  6
Continuous
 62
     7
100
AcDbCircle
 10
-92.4939241433
 20
-16.88062236
 30
0.0
 40
16.9929108272305
100
AcDbArc
 50
235.915824915
 51
249.922571272
  0
LWPOLYLINE
  5
2D4
330
1F
100
AcDbEntity
  8
0
  6
Continuous
 62
     7
100
AcDbPolyline
 90
        6
 70
   128
 43
0.0
 10
-98.3273983002
 20
-32.8408665459
 10
-98.3209297139
 20
-32.8378387574
 10
-98.3144826542
 20
-32.8288046528
 10
-98.3017134476
 20
-32.7930130615
 10
-98.2294451988
 20
-32.1130432334
 10
-98.0750807144
 20
-23.6169695459
  0
LINE
  5
37F
330
1F
100
AcDbEntity
  8
0
  6
Continuous
 62
     7
370
    15
100
AcDbLine
 10
-4.999668
 20
-15.394029
 30
0.0
 11
-4.999668
 21
0.0
 31
0.0
  0
LINE
  5
380
330
1F
100
AcDbEntity
  8
0
  6
Continuous
 62
     7
370
    15
100
AcDbLine
 10
0.0
 20
-15.394029
 30
0.0
 11
-4.999668
 21
-15.394029
 31
0.0
  0
LINE
  5
381
330
1F
100
AcDbEntity
  8
0
  6
Continuous
 62
     7
370
    15
100
AcDbLine
 10
0.0
 20
-23.683291
 30
0.0
 11
0.0
 21
-15.394029
 31
0.0
  0
LINE
  5
382
330
1F
100
AcDbEntity
  8
0
  6
Continuous
 62
     7
370
    15
100
AcDbLine
 10
-4.999668
 20
-23.683291
 30
0.0
 11
0.0
 21
-23.683291
 31
0.0
  0
LINE
  5
383
330
1F
100
AcDbEntity
  8
0
  6
Continuous
 62
     7
370
    15
100
AcDbLine
 10
-4.999668
 20
-31.786393
 30
0.0
 11
-4.999668
 21
-23.683291
 31
0.0
  0
LINE
  5
384
330
1F
100
AcDbEntity
  8
0
  6
Continuous
 62
     7
370
    15
100
AcDbLine
 10
0.0
 20
-31.786393
 30
0.0
 11
-4.999668
 21
-31.786393
 31
0.0
  0
LINE
  5
385
330
1F
100
AcDbEntity
  8
0
  6
Continuous
 62
     7
370
    15
100
AcDbLine
 10
0.0
 20
-40.075652
 30
0.0
 11
0.0
 21
-31.786393
 31
0.0
  0
LINE
  5
386
330
1F
100
AcDbEntity
  8
0
  6
Continuous
 62
     7
370
    15
100
AcDbLine
 10
-4.999668
 20
-40.075652
 30
0.0
 11
0.0
 21
-40.075652
 31
0.0
  0
LINE
  5
387
330
1F
100
AcDbEntity
  8
0
  6
Continuous
 62
     7
370
    15
100
AcDbLine
 10
-4.999668
 20
-48.164931
 30
0.0
 11
-4.999668
 21
-40.075652
 31
0.0
  0
LINE
  5
388
330
1F
100
AcDbEntity
  8
0
  6
Continuous
 62
     7
370
    15
100
AcDbLine
 10
0.0
 20
-48.164931
 30
0.0
 11
-4.999668
 21
-48.164931
 31
0.0
  0
LINE
  5
389
330
1F
100
AcDbEntity
  8
0
  6
Continuous
 62
     7
370
    15
100
AcDbLine
 10
0.0
 20
-56.45419
 30
0.0
 11
0.0
 21
-48.164931
 31
0.0
  0
LINE
  5
38A
330
1F
100
AcDbEntity
  8
0
  6
Continuous
 62
     7
370
    15
100
AcDbLine
 10
-4.999668
 20
-56.45419
 30
0.0
 11
0.0
 21
-56.45419
 31
0.0
  0
LINE
  5
38B
330
1F
100
AcDbEntity
  8
0
  6
Continuous
 62
     7
370
    15
100
AcDbLine
 10
-4.999668
 20
-64.599998
 30
0.0
 11
-4.999668
 21
-56.45419
 31
0.0
  0
LINE
  5
38C
330
1F
100
AcDbEntity
  8
0
  6
Continuous
 62
     7
370
    15
100
AcDbLine
 10
-9.518399
 20
-64.599998
 30
0.0
 11
-4.999668
 21
-64.599998
 31
0.0
  0
LINE
  5
38D
330
1F
100
AcDbEntity
  8
0
  6
Continuous
 62
     7
370
    15
100
AcDbLine
 10
-9.518399
 20
-61.599976
 30
0.0
 11
-9.518399
 21
-64.599998
 31
0.0
  0
LINE
  5
38E
330
1F
100
AcDbEntity
  8
0
  6
Continuous
 62
     7
370
    15
100
AcDbLine
 10
-16.886868
 20
-61.599976
 30
0.0
 11
-9.518399
 21
-61.599976
 31
0.0
  0
LINE
  5
38F
330
1F
100
AcDbEntity
  8
0
  6
Continuous
 62
     7
370
    15
100
AcDbLine
 10
-16.886868
 20
-64.599998
 30
0.0
 11
-16.886868
 21
-61.599976
 31
0.0
  0
LINE
  5
390
330
1F
100
AcDbEntity
  8
0
  6
Continuous
 62
     7
370
    15
100
AcDbLine
 10
-24.455362
 20
-64.599998
 30
0.0
 11
-16.886868
 21
-64.599998
 31
0.0
  0
LINE
  5
391
330
1F
100
AcDbEntity
  8
0
  6
Continuous
 62
     7
370
    15
100
AcDbLine
 10
-24.455362
 20
-61.599976
 30
0.0
 11
-24.455362
 21
-64.599998
 31
0.0
  0
LINE
  5
392
330
1F
100
AcDbEntity
  8
0
  6
Continuous
 62
     7
370
    15
100
AcDbLine
 10
-31.823479
 20
-61.599976
 30
0.0
 11
-24.455362
 21
-61.599976
 31
0.0
  0
LINE
  5
393
330
1F
100
AcDbEntity
  8
0
  6
Continuous
 62
     7
370
    15
100
AcDbLine
 10
-31.823479
 20
-64.599998
 30
0.0
 11
-31.823479
 21
-61.599976
 31
0.0
  0
LINE
  5
394
330
1F
100
AcDbEntity
  8
0
  6
Continuous
 62
     7
370
    15
100
AcDbLine
 10
-39.391974
 20
-64.599998
 30
0.0
 11
-31.823479
 21
-64.599998
 31
0.0
  0
LINE
  5
395
330
1F
100
AcDbEntity
  8
0
  6
Continuous
 62
     7
370
    15
100
AcDbLine
 10
-39.391974
 20
-61.599976
 30
0.0
 11
-39.391974
 21
-64.599998
 31
0.0
  0
LINE
  5
396
330
1F
100
AcDbEntity
  8
0
  6
Continuous
 62
     7
370
    15
100
AcDbLine
 10
-46.760443
 20
-61.599976
 30
0.0
 11
-39.391974
 21
-61.599976
 31
0.0
  0
LINE
  5
397
330
1F
100
AcDbEntity
  8
0
  6
Continuous
 62
     7
370
    15
100
AcDbLine
 10
-46.760443
 20
-64.599998
 30
0.0
 11
-46.760443
 21
-61.599976
 31
0.0
  0
LINE
  5
398
330
1F
100
AcDbEntity
  8
0
  6
Continuous
 62
     7
370
    15
100
AcDbLine
 10
-54.328937
 20
-64.599998
 30
0.0
 11
-46.760443
 21
-64.599998
 31
0.0
  0
LINE
  5
399
330
1F
100
AcDbEntity
  8
0
  6
Continuous
 62
     7
370
    15
100
AcDbLine
 10
-54.328937
 20
-61.599976
 30
0.0
 11
-54.328937
 21
-64.599998
 31
0.0
  0
LINE
  5
39A
330
1F
100
AcDbEntity
  8
0
  6
Continuous
 62
     7
370
    15
100
AcDbLine
 10
-61.697407
 20
-61.599976
 30
0.0
 11
-54.328937
 21
-61.599976
 31
0.0
  0
LINE
  5
39B
330
1F
100
AcDbEntity
  8
0
  6
Continuous
 62
     7
370
    15
100
AcDbLine
 10
-61.697407
 20
-64.599998
 30
0.0
 11
-61.697407
 21
-61.599976
 31
0.0
  0
LINE
  5
39C
330
1F
100
AcDbEntity
  8
0
  6
Continuous
 62
     7
370
    15
100
AcDbLine
 10
-69.265901
 20
-64.599998
 30
0.0
 11
-61.697407
 21
-64.599998
 31
0.0
  0
LINE
  5
39D
330
1F
100
AcDbEntity
  8
0
  6
Continuous
 62
     7
370
    15
100
AcDbLine
 10
-69.265901
 20
-61.599976
 30
0.0
 11
-69.265901
 21
-64.599998
 31
0.0
  0
LINE
  5
39E
330
1F
100
AcDbEntity
  8
0
  6
Continuous
 62
     7
370
    15
100
AcDbLine
 10
-76.634371
 20
-61.599976
 30
0.0
 11
-69.265901
 21
-61.599976
 31
0.0
  0
LINE
  5
39F
330
1F
100
AcDbEntity
  8
0
  6
Continuous
 62
     7
370
    15
100
AcDbLine
 10
-76.634371
 20
-64.599998
 30
0.0
 11
-76.634371
 21
-61.599976
 31
0.0
  0
LINE
  5
3A0
330
1F
100
AcDbEntity
  8
0
  6
Continuous
 62
     7
370
    15
100
AcDbLine
 10
-84.202865
 20
-64.599998
 30
0.0
 11
-76.634371
 21
-64.599998
 31
0.0
  0
LINE
  5
3A1
330
1F
100
AcDbEntity
  8
0
  6
Continuous
 62
     7
370
    15
100
AcDbLine
 10
-84.202865
 20
-61.599976
 30
0.0
 11
-84.202865
 21
-64.599998
 31
0.0
  0
LINE
  5
3A2
330
1F
100
AcDbEntity
  8
0
  6
Continuous
 62
     7
370
    15
100
AcDbLine
 10
-91.571335
 20
-61.599976
 30
0.0
 11
-84.202865
 21
-61.599976
 31
0.0
  0
LINE
  5
3A3
330
1F
100
AcDbEntity
  8
0
  6
Continuous
 62
     7
370
    15
100
AcDbLine
 10
-91.571335
 20
-64.599998
 30
0.0
 11
-91.571335
 21
-61.599976
 31
0.0
  0
LINE
  5
3A4
330
1F
100
AcDbEntity
  8
0
  6
Continuous
 62
     7
370
    15
100
AcDbLine
 10
-99.139829
 20
-64.599998
 30
0.0
 11
-91.571335
 21
-64.599998
 31
0.0
  0
LINE
  5
3A5
330
1F
100
AcDbEntity
  8
0
  6
Continuous
 62
     7
370
    15
100
AcDbLine
 10
-99.139829
 20
-61.599976
 30
0.0
 11
-99.139829
 21
-64.599998
 31
0.0
  0
LINE
  5
3A6
330
1F
100
AcDbEntity
  8
0
  6
Continuous
 62
     7
370
    15
100
AcDbLine
 10
-106.508299
 20
-61.599976
 30
0.0
 11
-99.139829
 21
-61.599976
 31
0.0
  0
LINE
  5
3A7
330
1F
100
AcDbEntity
  8
0
  6
Continuous
 62
     7
370
    15
100
AcDbLine
 10
-106.508299
 20
-64.599998
 30
0.0
 11
-106.508299
 21
-61.599976
 31
0.0
  0
LINE
  5
3A8
330
1F
100
AcDbEntity
  8
0
  6
Continuous
 62
     7
370
    15
100
AcDbLine
 10
-114.07644
 20
-64.599998
 30
0.0
 11
-106.508299
 21
-64.599998
 31
0.0
  0
LINE
  5
3A9
330
1F
100
AcDbEntity
  8
0
  6
Continuous
 62
     7
370
    15
100
AcDbLine
 10
-114.07644
 20
-61.599976
 30
0.0
 11
-114.07644
 21
-64.599998
 31
0.0
  0
LINE
  5
3AA
330
1F
100
AcDbEntity
  8
0
  6
Continuous
 62
     7
370
    15
100
AcDbLine
 10
-121.44491
 20
-61.599976
 30
0.0
 11
-114.07644
 21
-61.599976
 31
0.0
  0
LINE
  5
3AB
330
1F
100
AcDbEntity
  8
0
  6
Continuous
 62
     7
370
    15
100
AcDbLine
 10
-121.44491
 20
-64.599998
 30
0.0
 11
-121.44491
 21
-61.599976
 31
0.0
  0
LINE
  5
3AC
330
1F
100
AcDbEntity
  8
0
  6
Continuous
 62
     7
370
    15
100
AcDbLine
 10
-129.013404
 20
-64.599998
 30
0.0
 11
-121.44491
 21
-64.599998
 31
0.0
  0
LINE
  5
3AD
330
1F
100
AcDbEntity
  8
0
  6
Continuous
 62
     7
370
    15
100
AcDbLine
 10
-129.013404
 20
-61.599976
 30
0.0
 11
-129.013404
 21
-64.599998
 31
0.0
  0
LINE
  5
3AE
330
1F
100
AcDbEntity
  8
0
  6
Continuous
 62
     7
370
    15
100
AcDbLine
 10
-136.381859
 20
-61.599976
 30
0.0
 11
-129.013404
 21
-61.599976
 31
0.0
  0
LINE
  5
3AF
330
1F
100
AcDbEntity
  8
0
  6
Continuous
 62
     7
370
    15
100
AcDbLine
 10
-136.381859
 20
-64.599998
 30
0.0
 11
-136.381859
 21
-61.599976
 31
0.0
  0
LINE
  5
3B0
330
1F
100
AcDbEntity
  8
0
  6
Continuous
 62
     7
370
    15
100
AcDbLine
 10
-143.950382
 20
-64.599998
 30
0.0
 11
-136.381859
 21
-64.599998
 31
0.0
  0
LINE
  5
3B1
330
1F
100
AcDbEntity
  8
0
  6
Continuous
 62
     7
370
    15
100
AcDbLine
 10
-143.950382
 20
-61.599976
 30
0.0
 11
-143.950382
 21
-64.599998
 31
0.0
  0
LINE
  5
3B2
330
1F
100
AcDbEntity
  8
0
  6
Continuous
 62
     7
370
    15
100
AcDbLine
 10
-151.318837
 20
-61.599976
 30
0.0
 11
-143.950382
 21
-61.599976
 31
0.0
  0
LINE
  5
3B3
330
1F
100
AcDbEntity
  8
0
  6
Continuous
 62
     7
370
    15
100
AcDbLine
 10
-151.318837
 20
-64.599998
 30
0.0
 11
-151.318837
 21
-61.599976
 31
0.0
  0
LINE
  5
3B4
330
1F
100
AcDbEntity
  8
0
  6
Continuous
 62
     7
370
    15
100
AcDbLine
 10
-158.887332
 20
-64.599998
 30
0.0
 11
-151.318837
 21
-64.599998
 31
0.0
  0
LINE
  5
3B5
330
1F
100
AcDbEntity
  8
0
  6
Continuous
 62
     7
370
    15
100
AcDbLine
 10
-158.887332
 20
-61.599976
 30
0.0
 11
-158.887332
 21
-64.599998
 31
0.0
  0
LINE
  5
3B6
330
1F
100
AcDbEntity
  8
0
  6
Continuous
 62
     7
370
    15
100
AcDbLine
 10
-166.255815
 20
-61.599976
 30
0.0
 11
-158.887332
 21
-61.599976
 31
0.0
  0
LINE
  5
3B7
330
1F
100
AcDbEntity
  8
0
  6
Continuous
 62
     7
370
    15
100
AcDbLine
 10
-166.255815
 20
-64.599998
 30
0.0
 11
-166.255815
 21
-61.599976
 31
0.0
  0
LINE
  5
3B8
330
1F
100
AcDbEntity
  8
0
  6
Continuous
 62
     7
370
    15
100
AcDbLine
 10
-173.82431
 20
-64.599998
 30
0.0
 11
-166.255815
 21
-64.599998
 31
0.0
  0
LINE
  5
3B9
330
1F
100
AcDbEntity
  8
0
  6
Continuous
 62
     7
370
    15
100
AcDbLine
 10
-173.82431
 20
-61.599976
 30
0.0
 11
-173.82431
 21
-64.599998
 31
0.0
  0
LINE
  5
3BA
330
1F
100
AcDbEntity
  8
0
  6
Continuous
 62
     7
370
    15
100
AcDbLine
 10
-181.192765
 20
-61.599976
 30
0.0
 11
-173.82431
 21
-61.599976
 31
0.0
  0
LINE
  5
3BB
330
1F
100
AcDbEntity
  8
0
  6
Continuous
 62
     7
370
    15
100
AcDbLine
 10
-181.192765
 20
-64.599998
 30
0.0
 11
-181.192765
 21
-61.599976
 31
0.0
  0
LINE
  5
3BC
330
1F
100
AcDbEntity
  8
0
  6
Continuous
 62
     7
370
    15
100
AcDbLine
 10
-188.76126
 20
-64.599998
 30
0.0
 11
-181.192765
 21
-64.599998
 31
0.0
  0
LINE
  5
3BD
330
1F
100
AcDbEntity
  8
0
  6
Continuous
 62
     7
370
    15
100
AcDbLine
 10
-188.76126
 20
-61.599976
 30
0.0
 11
-188.76126
 21
-64.599998
 31
0.0
  0
LINE
  5
3BE
330
1F
100
AcDbEntity
  8
0
  6
Continuous
 62
     7
370
    15
100
AcDbLine
 10
-196.129743
 20
-61.599976
 30
0.0
 11
-188.76126
 21
-61.599976
 31
0.0
  0
LINE
  5
3BF
330
1F
100
AcDbEntity
  8
0
  6
Continuous
 62
     7
370
    15
100
AcDbLine
 10
-196.129743
 20
-64.599998
 30
0.0
 11
-196.129743
 21
-61.599976
 31
0.0
  0
LINE
  5
3C0
330
1F
100
AcDbEntity
  8
0
  6
Continuous
 62
     7
370
    15
100
AcDbLine
 10
-203.697871
 20
-64.599998
 30
0.0
 11
-196.129743
 21
-64.599998
 31
0.0
  0
LINE
  5
3C1
330
1F
100
AcDbEntity
  8
0
  6
Continuous
 62
     7
370
    15
100
AcDbLine
 10
-203.697871
 20
-61.599976
 30
0.0
 11
-203.697871
 21
-64.599998
 31
0.0
  0
LINE
  5
3C2
330
1F
100
AcDbEntity
  8
0
  6
Continuous
 62
     7
370
    15
100
AcDbLine
 10
-211.066354
 20
-61.599976
 30
0.0
 11
-203.697871
 21
-61.599976
 31
0.0
  0
LINE
  5
3C3
330
1F
100
AcDbEntity
  8
0
  6
Continuous
 62
     7
370
    15
100
AcDbLine
 10
-211.066354
 20
-64.599998
 30
0.0
 11
-211.066354
 21
-61.599976
 31
0.0
  0
LINE
  5
3C4
330
1F
100
AcDbEntity
  8
0
  6
Continuous
 62
     7
370
    15
100
AcDbLine
 10
-218.634821
 20
-64.599998
 30
0.0
 11
-211.066354
 21
-64.599998
 31
0.0
  0
LINE
  5
3C5
330
1F
100
AcDbEntity
  8
0
  6
Continuous
 62
     7
370
    15
100
AcDbLine
 10
-218.634849
 20
-61.599976
 30
0.0
 11
-218.634821
 21
-64.599998
 31
0.0
  0
LINE
  5
3C6
330
1F
100
AcDbEntity
  8
0
  6
Continuous
 62
     7
370
    15
100
AcDbLine
 10
-226.003304
 20
-61.599976
 30
0.0
 11
-218.634849
 21
-61.599976
 31
0.0
  0
LINE
  5
3C7
330
1F
100
AcDbEntity
  8
0
  6
Continuous
 62
     7
370
    15
100
AcDbLine
 10
-226.003304
 20
-64.599998
 30
0.0
 11
-226.003304
 21
-61.599976
 31
0.0
  0
LINE
  5
3C8
330
1F
100
AcDbEntity
  8
0
  6
Continuous
 62
     7
370
    15
100
AcDbLine
 10
-233.571799
 20
-64.599998
 30
0.0
 11
-226.003304
 21
-64.599998
 31
0.0
  0
LINE
  5
3C9
330
1F
100
AcDbEntity
  8
0
  6
Continuous
 62
     7
370
    15
100
AcDbLine
 10
-233.571799
 20
-61.599976
 30
0.0
 11
-233.571799
 21
-64.599998
 31
0.0
  0
LINE
  5
3CA
330
1F
100
AcDbEntity
  8
0
  6
Continuous
 62
     7
370
    15
100
AcDbLine
 10
-240.940282
 20
-61.599976
 30
0.0
 11
-233.571799
 21
-61.599976
 31
0.0
  0
LINE
  5
3CB
330
1F
100
AcDbEntity
  8
0
  6
Continuous
 62
     7
370
    15
100
AcDbLine
 10
-240.940282
 20
-64.599998
 30
0.0
 11
-240.940282
 21
-61.599976
 31
0.0
  0
LINE
  5
3CC
330
1F
100
AcDbEntity
  8
0
  6
Continuous
 62
     7
370
    15
100
AcDbLine
 10
-248.508748
 20
-64.599998
 30
0.0
 11
-240.940282
 21
-64.599998
 31
0.0
  0
LINE
  5
3CD
330
1F
100
AcDbEntity
  8
0
  6
Continuous
 62
     7
370
    15
100
AcDbLine
 10
-248.508777
 20
-61.599976
 30
0.0
 11
-248.508748
 21
-64.599998
 31
0.0
  0
LINE
  5
3CE
330
1F
100
AcDbEntity
  8
0
  6
Continuous
 62
     7
370
    15
100
AcDbLine
 10
-255.877232
 20
-61.599976
 30
0.0
 11
-248.508777
 21
-61.599976
 31
0.0
  0
LINE
  5
3CF
330
1F
100
AcDbEntity
  8
0
  6
Continuous
 62
     7
370
    15
100
AcDbLine
 10
-255.877232
 20
-64.599998
 30
0.0
 11
-255.877232
 21
-61.599976
 31
0.0
  0
LINE
  5
3D0
330
1F
100
AcDbEntity
  8
0
  6
Continuous
 62
     7
370
    15
100
AcDbLine
 10
-263.445726
 20
-64.599998
 30
0.0
 11
-255.877232
 21
-64.599998
 31
0.0
  0
LINE
  5
3D1
330
1F
100
AcDbEntity
  8
0
  6
Continuous
 62
     7
370
    15
100
AcDbLine
 10
-263.445726
 20
-61.599976
 30
0.0
 11
-263.445726
 21
-64.599998
 31
0.0
  0
LINE
  5
3D2
330
1F
100
AcDbEntity
  8
0
  6
Continuous
 62
     7
370
    15
100
AcDbLine
 10
-270.814182
 20
-61.599976
 30
0.0
 11
-263.445726
 21
-61.599976
 31
0.0
  0
LINE
  5
3D3
330
1F
100
AcDbEntity
  8
0
  6
Continuous
 62
     7
370
    15
100
AcDbLine
 10
-270.814182
 20
-64.599998
 30
0.0
 11
-270.814182
 21
-61.599976
 31
0.0
  0
LINE
  5
3D4
330
1F
100
AcDbEntity
  8
0
  6
Continuous
 62
     7
370
    15
100
AcDbLine
 10
-278.382337
 20
-64.599998
 30
0.0
 11
-270.814182
 21
-64.599998
 31
0.0
  0
LINE
  5
3D5
330
1F
100
AcDbEntity
  8
0
  6
Continuous
 62
     7
370
    15
100
AcDbLine
 10
-278.382337
 20
-61.599976
 30
0.0
 11
-278.382337
 21
-64.599998
 31
0.0
  0
LINE
  5
3D6
330
1F
100
AcDbEntity
  8
0
  6
Continuous
 62
     7
370
    15
100
AcDbLine
 10
-285.750793
 20
-61.599976
 30
0.0
 11
-278.382337
 21
-61.599976
 31
0.0
  0
LINE
  5
3D7
330
1F
100
AcDbEntity
  8
0
  6
Continuous
 62
     7
370
    15
100
AcDbLine
 10
-285.750793
 20
-64.599998
 30
0.0
 11
-285.750793
 21
-61.599976
 31
0.0
  0
LINE
  5
3D8
330
1F
100
AcDbEntity
  8
0
  6
Continuous
 62
     7
370
    15
100
AcDbLine
 10
-293.319315
 20
-64.599998
 30
0.0
 11
-285.750793
 21
-64.599998
 31
0.0
  0
LINE
  5
3D9
330
1F
100
AcDbEntity
  8
0
  6
Continuous
 62
     7
370
    15
100
AcDbLine
 10
-293.319315
 20
-61.599976
 30
0.0
 11
-293.319315
 21
-64.599998
 31
0.0
  0
LINE
  5
3DA
330
1F
100
AcDbEntity
  8
0
  6
Continuous
 62
     7
370
    15
100
AcDbLine
 10
-300.687771
 20
-61.599976
 30
0.0
 11
-293.319315
 21
-61.599976
 31
0.0
  0
LINE
  5
3DB
330
1F
100
AcDbEntity
  8
0
  6
Continuous
 62
     7
370
    15
100
AcDbLine
 10
-300.687771
 20
-64.599998
 30
0.0
 11
-300.687771
 21
-61.599976
 31
0.0
  0
LINE
  5
3DC
330
1F
100
AcDbEntity
  8
0
  6
Continuous
 62
     7
370
    15
100
AcDbLine
 10
-308.256265
 20
-64.599998
 30
0.0
 11
-300.687771
 21
-64.599998
 31
0.0
  0
LINE
  5
3DD
330
1F
100
AcDbEntity
  8
0
  6
Continuous
 62
     7
370
    15
100
AcDbLine
 10
-308.256265
 20
-61.599976
 30
0.0
 11
-308.256265
 21
-64.599998
 31
0.0
  0
LINE
  5
3DE
330
1F
100
AcDbEntity
  8
0
  6
Continuous
 62
     7
370
    15
100
AcDbLine
 10
-315.624721
 20
-61.599976
 30
0.0
 11
-308.256265
 21
-61.599976
 31
0.0
  0
LINE
  5
3DF
330
1F
100
AcDbEntity
  8
0
  6
Continuous
 62
     7
370
    15
100
AcDbLine
 10
-315.624721
 20
-64.599998
 30
0.0
 11
-315.624721
 21
-61.599976
 31
0.0
  0
LINE
  5
3E0
330
1F
100
AcDbEntity
  8
0
  6
Continuous
 62
     7
370
    15
100
AcDbLine
 10
-323.193243
 20
-64.599998
 30
0.0
 11
-315.624721
 21
-64.599998
 31
0.0
  0
LINE
  5
3E1
330
1F
100
AcDbEntity
  8
0
  6
Continuous
 62
     7
370
    15
100
AcDbLine
 10
-323.193243
 20
-61.599976
 30
0.0
 11
-323.193243
 21
-64.599998
 31
0.0
  0
LINE
  5
3E2
330
1F
100
AcDbEntity
  8
0
  6
Continuous
 62
     7
370
    15
100
AcDbLine
 10
-330.561699
 20
-61.599976
 30
0.0
 11
-323.193243
 21
-61.599976
 31
0.0
  0
LINE
  5
3E3
330
1F
100
AcDbEntity
  8
0
  6
Continuous
 62
     7
370
    15
100
AcDbLine
 10
-330.561699
 20
-64.599998
 30
0.0
 11
-330.561699
 21
-61.599976
 31
0.0
  0
LINE
  5
3E4
330
1F
100
AcDbEntity
  8
0
  6
Continuous
 62
     7
370
    15
100
AcDbLine
 10
-338.130193
 20
-64.599998
 30
0.0
 11
-330.561699
 21
-64.599998
 31
0.0
  0
LINE
  5
3E5
330
1F
100
AcDbEntity
  8
0
  6
Continuous
 62
     7
370
    15
100
AcDbLine
 10
-338.130193
 20
-61.599976
 30
0.0
 11
-338.130193
 21
-64.599998
 31
0.0
  0
LINE
  5
3E6
330
1F
100
AcDbEntity
  8
0
  6
Continuous
 62
     7
370
    15
100
AcDbLine
 10
-345.498648
 20
-61.599976
 30
0.0
 11
-338.130193
 21
-61.599976
 31
0.0
  0
LINE
  5
3E7
330
1F
100
AcDbEntity
  8
0
  6
Continuous
 62
     7
370
    15
100
AcDbLine
 10
-345.498648
 20
-64.599998
 30
0.0
 11
-345.498648
 21
-61.599976
 31
0.0
  0
LINE
  5
3E8
330
1F
100
AcDbEntity
  8
0
  6
Continuous
 62
     7
370
    15
100
AcDbLine
 10
-353.067171
 20
-64.599998
 30
0.0
 11
-345.498648
 21
-64.599998
 31
0.0
  0
LINE
  5
3E9
330
1F
100
AcDbEntity
  8
0
  6
Continuous
 62
     7
370
    15
100
AcDbLine
 10
-353.067171
 20
-61.599976
 30
0.0
 11
-353.067171
 21
-64.599998
 31
0.0
  0
LINE
  5
3EA
330
1F
100
AcDbEntity
  8
0
  6
Continuous
 62
     7
370
    15
100
AcDbLine
 10
-360.435626
 20
-61.599976
 30
0.0
 11
-353.067171
 21
-61.599976
 31
0.0
  0
LINE
  5
3EB
330
1F
100
AcDbEntity
  8
0
  6
Continuous
 62
     7
370
    15
100
AcDbLine
 10
-360.435626
 20
-64.599998
 30
0.0
 11
-360.435626
 21
-61.599976
 31
0.0
  0
LINE
  5
3EC
330
1F
100
AcDbEntity
  8
0
  6
Continuous
 62
     7
370
    15
100
AcDbLine
 10
-368.003782
 20
-64.599998
 30
0.0
 11
-360.435626
 21
-64.599998
 31
0.0
  0
LINE
  5
3ED
330
1F
100
AcDbEntity
  8
0
  6
Continuous
 62
     7
370
    15
100
AcDbLine
 10
-368.003782
 20
-61.599976
 30
0.0
 11
-368.003782
 21
-64.599998
 31
0.0
  0
LINE
  5
3EE
330
1F
100
AcDbEntity
  8
0
  6
Continuous
 62
     7
370
    15
100
AcDbLine
 10
-375.372237
 20
-61.599976
 30
0.0
 11
-368.003782
 21
-61.599976
 31
0.0
  0
LINE
  5
3EF
330
1F
100
AcDbEntity
  8
0
  6
Continuous
 62
     7
370
    15
100
AcDbLine
 10
-375.372237
 20
-64.599998
 30
0.0
 11
-375.372237
 21
-61.599976
 31
0.0
  0
LINE
  5
3F0
330
1F
100
AcDbEntity
  8
0
  6
Continuous
 62
     7
370
    15
100
AcDbLine
 10
-382.940732
 20
-64.599998
 30
0.0
 11
-375.372237
 21
-64.599998
 31
0.0
  0
LINE
  5
3F1
330
1F
100
AcDbEntity
  8
0
  6
Continuous
 62
     7
370
    15
100
AcDbLine
 10
-382.940732
 20
-61.599976
 30
0.0
 11
-382.940732
 21
-64.599998
 31
0.0
  0
LINE
  5
3F2
330
1F
100
AcDbEntity
  8
0
  6
Continuous
 62
     7
370
    15
100
AcDbLine
 10
-390.309215
 20
-61.599976
 30
0.0
 11
-382.940732
 21
-61.599976
 31
0.0
  0
LINE
  5
3F3
330
1F
100
AcDbEntity
  8
0
  6
Continuous
 62
     7
370
    15
100
AcDbLine
 10
-390.309215
 20
-64.599998
 30
0.0
 11
-390.309215
 21
-61.599976
 31
0.0
  0
LINE
  5
3F4
330
1F
100
AcDbEntity
  8
0
  6
Continuous
 62
     7
370
    15
100
AcDbLine
 10
-397.87771
 20
-64.599998
 30
0.0
 11
-390.309215
 21
-64.599998
 31
0.0
  0
LINE
  5
3F5
330
1F
100
AcDbEntity
  8
0
  6
Continuous
 62
     7
370
    15
100
AcDbLine
 10
-397.87771
 20
-61.599976
 30
0.0
 11
-397.87771
 21
-64.599998
 31
0.0
  0
LINE
  5
3F6
330
1F
100
AcDbEntity
  8
0
  6
Continuous
 62
     7
370
    15
100
AcDbLine
 10
-405.246165
 20
-61.599976
 30
0.0
 11
-397.87771
 21
-61.599976
 31
0.0
  0
LINE
  5
3F7
330
1F
100
AcDbEntity
  8
0
  6
Continuous
 62
     7
370
    15
100
AcDbLine
 10
-405.246165
 20
-64.599998
 30
0.0
 11
-405.246165
 21
-61.599976
 31
0.0
  0
LINE
  5
3F8
330
1F
100
AcDbEntity
  8
0
  6
Continuous
 62
     7
370
    15
100
AcDbLine
 10
-412.81466
 20
-64.599998
 30
0.0
 11
-405.246165
 21
-64.599998
 31
0.0
  0
LINE
  5
3F9
330
1F
100
AcDbEntity
  8
0
  6
Continuous
 62
     7
370
    15
100
AcDbLine
 10
-412.81466
 20
-61.599976
 30
0.0
 11
-412.81466
 21
-64.599998
 31
0.0
  0
LINE
  5
3FA
330
1F
100
AcDbEntity
  8
0
  6
Continuous
 62
     7
370
    15
100
AcDbLine
 10
-420.183143
 20
-61.599976
 30
0.0
 11
-412.81466
 21
-61.599976
 31
0.0
  0
LINE
  5
3FB
330
1F
100
AcDbEntity
  8
0
  6
Continuous
 62
     7
370
    15
100
AcDbLine
 10
-420.183143
 20
-64.599998
 30
0.0
 11
-420.183143
 21
-61.599976
 31
0.0
  0
LINE
  5
3FC
330
1F
100
AcDbEntity
  8
0
  6
Continuous
 62
     7
370
    15
100
AcDbLine
 10
-427.751638
 20
-64.599998
 30
0.0
 11
-420.183143
 21
-64.599998
 31
0.0
  0
LINE
  5
3FD
330
1F
100
AcDbEntity
  8
0
  6
Continuous
 62
     7
370
    15
100
AcDbLine
 10
-427.751638
 20
-61.599976
 30
0.0
 11
-427.751638
 21
-64.599998
 31
0.0
  0
LINE
  5
3FE
330
1F
100
AcDbEntity
  8
0
  6
Continuous
 62
     7
370
    15
100
AcDbLine
 10
-435.120093
 20
-61.599976
 30
0.0
 11
-427.751638
 21
-61.599976
 31
0.0
  0
LINE
  5
3FF
330
1F
100
AcDbEntity
  8
0
  6
Continuous
 62
     7
370
    15
100
AcDbLine
 10
-435.120093
 20
-64.599998
 30
0.0
 11
-435.120093
 21
-61.599976
 31
0.0
  0
LINE
  5
400
330
1F
100
AcDbEntity
  8
0
  6
Continuous
 62
     7
370
    15
100
AcDbLine
 10
-442.688587
 20
-64.599998
 30
0.0
 11
-435.120093
 21
-64.599998
 31
0.0
  0
LINE
  5
401
330
1F
100
AcDbEntity
  8
0
  6
Continuous
 62
     7
370
    15
100
AcDbLine
 10
-442.688587
 20
-61.599976
 30
0.0
 11
-442.688587
 21
-64.599998
 31
0.0
  0
LINE
  5
402
330
1F
100
AcDbEntity
  8
0
  6
Continuous
 62
     7
370
    15
100
AcDbLine
 10
-450.056704
 20
-61.599976
 30
0.0
 11
-442.688587
 21
-61.599976
 31
0.0
  0
LINE
  5
403
330
1F
100
AcDbEntity
  8
0
  6
Continuous
 62
     7
370
    15
100
AcDbLine
 10
-450.056704
 20
-64.599998
 30
0.0
 11
-450.056704
 21
-61.599976
 31
0.0
  0
LINE
  5
404
330
1F
100
AcDbEntity
  8
0
  6
Continuous
 62
     7
370
    15
100
AcDbLine
 10
-457.62534
 20
-64.599998
 30
0.0
 11
-450.056704
 21
-64.599998
 31
0.0
  0
LINE
  5
405
330
1F
100
AcDbEntity
  8
0
  6
Continuous
 62
     7
370
    15
100
AcDbLine
 10
-457.62534
 20
-61.599976
 30
0.0
 11
-457.62534
 21
-64.599998
 31
0.0
  0
LINE
  5
406
330
1F
100
AcDbEntity
  8
0
  6
Continuous
 62
     7
370
    15
100
AcDbLine
 10
-464.993767
 20
-61.599976
 30
0.0
 11
-457.62534
 21
-61.599976
 31
0.0
  0
LINE
  5
407
330
1F
100
AcDbEntity
  8
0
  6
Continuous
 62
     7
370
    15
100
AcDbLine
 10
-464.993767
 20
-64.599998
 30
0.0
 11
-464.993767
 21
-61.599976
 31
0.0
  0
LINE
  5
408
330
1F
100
AcDbEntity
  8
0
  6
Continuous
 62
     7
370
    15
100
AcDbLine
 10
-472.562233
 20
-64.599998
 30
0.0
 11
-464.993767
 21
-64.599998
 31
0.0
  0
LINE
  5
409
330
1F
100
AcDbEntity
  8
0
  6
Continuous
 62
     7
370
    15
100
AcDbLine
 10
-472.562233
 20
-61.599976
 30
0.0
 11
-472.562233
 21
-64.599998
 31
0.0
  0
LINE
  5
40A
330
1F
100
AcDbEntity
  8
0
  6
Continuous
 62
     7
370
    15
100
AcDbLine
 10
-479.93066
 20
-61.599976
 30
0.0
 11
-472.562233
 21
-61.599976
 31
0.0
  0
LINE
  5
40B
330
1F
100
AcDbEntity
  8
0
  6
Continuous
 62
     7
370
    15
100
AcDbLine
 10
-479.93066
 20
-64.599998
 30
0.0
 11
-479.93066
 21
-61.599976
 31
0.0
  0
LINE
  5
40C
330
1F
100
AcDbEntity
  8
0
  6
Continuous
 62
     7
370
    15
100
AcDbLine
 10
-487.499126
 20
-64.599998
 30
0.0
 11
-479.93066
 21
-64.599998
 31
0.0
  0
LINE
  5
40D
330
1F
100
AcDbEntity
  8
0
  6
Continuous
 62
     7
370
    15
100
AcDbLine
 10
-487.499126
 20
-61.599976
 30
0.0
 11
-487.499126
 21
-64.599998
 31
0.0
  0
LINE
  5
40E
330
1F
100
AcDbEntity
  8
0
  6
Continuous
 62
     7
370
    15
100
AcDbLine
 10
-494.86761
 20
-61.599976
 30
0.0
 11
-487.499126
 21
-61.599976
 31
0.0
  0
LINE
  5
40F
330
1F
100
AcDbEntity
  8
0
  6
Continuous
 62
     7
370
    15
100
AcDbLine
 10
-494.86761
 20
-64.599998
 30
0.0
 11
-494.86761
 21
-61.599976
 31
0.0
  0
LINE
  5
410
330
1F
100
AcDbEntity
  8
0
  6
Continuous
 62
     7
370
    15
100
AcDbLine
 10
-502.43602
 20
-64.599998
 30
0.0
 11
-494.86761
 21
-64.599998
 31
0.0
  0
LINE
  5
411
330
1F
100
AcDbEntity
  8
0
  6
Continuous
 62
     7
370
    15
100
AcDbLine
 10
-502.43602
 20
-61.599976
 30
0.0
 11
-502.43602
 21
-64.599998
 31
0.0
  0
LINE
  5
412
330
1F
100
AcDbEntity
  8
0
  6
Continuous
 62
     7
370
    15
100
AcDbLine
 10
-509.804503
 20
-61.599976
 30
0.0
 11
-502.43602
 21
-61.599976
 31
0.0
  0
LINE
  5
413
330
1F
100
AcDbEntity
  8
0
  6
Continuous
 62
     7
370
    15
100
AcDbLine
 10
-509.804503
 20
-64.599998
 30
0.0
 11
-509.804503
 21
-61.599976
 31
0.0
  0
LINE
  5
414
330
1F
100
AcDbEntity
  8
0
  6
Continuous
 62
     7
370
    15
100
AcDbLine
 10
-517.372941
 20
-64.599998
 30
0.0
 11
-509.804503
 21
-64.599998
 31
0.0
  0
LINE
  5
415
330
1F
100
AcDbEntity
  8
0
  6
Continuous
 62
     7
370
    15
100
AcDbLine
 10
-517.372941
 20
-61.599976
 30
0.0
 11
-517.372941
 21
-64.599998
 31
0.0
  0
LINE
  5
416
330
1F
100
AcDbEntity
  8
0
  6
Continuous
 62
     7
370
    15
100
AcDbLine
 10
-524.741368
 20
-61.599976
 30
0.0
 11
-517.372941
 21
-61.599976
 31
0.0
  0
LINE
  5
417
330
1F
100
AcDbEntity
  8
0
  6
Continuous
 62
     7
370
    15
100
AcDbLine
 10
-524.741368
 20
-64.599998
 30
0.0
 11
-524.741368
 21
-61.599976
 31
0.0
  0
LINE
  5
418
330
1F
100
AcDbEntity
  8
0
  6
Continuous
 62
     7
370
    15
100
AcDbLine
 10
-538.359861
 20
-64.599998
 30
0.0
 11
-524.741368
 21
-64.599998
 31
0.0
  0
LINE
  5
419
330
1F
100
AcDbEntity
  8
0
  6
Continuous
 62
     7
370
    15
100
AcDbLine
 10
-538.359861
 20
-56.454193
 30
0.0
 11
-538.359861
 21
-64.599998
 31
0.0
  0
LINE
  5
41A
330
1F
100
AcDbEntity
  8
0
  6
Continuous
 62
     7
370
    15
100
AcDbLine
 10
-533.359842
 20
-56.454193
 30
0.0
 11
-538.359861
 21
-56.454193
 31
0.0
  0
LINE
  5
41B
330
1F
100
AcDbEntity
  8
0
  6
Continuous
 62
     7
370
    15
100
AcDbLine
 10
-533.359842
 20
-48.164934
 30
0.0
 11
-533.359842
 21
-56.454193
 31
0.0
  0
LINE
  5
41C
330
1F
100
AcDbEntity
  8
0
  6
Continuous
 62
     7
370
    15
100
AcDbLine
 10
-538.359861
 20
-48.164934
 30
0.0
 11
-533.359842
 21
-48.164934
 31
0.0
  0
LINE
  5
41D
330
1F
100
AcDbEntity
  8
0
  6
Continuous
 62
     7
370
    15
100
AcDbLine
 10
-538.359861
 20
-40.075658
 30
0.0
 11
-538.359861
 21
-48.164934
 31
0.0
  0
LINE
  5
41E
330
1F
100
AcDbEntity
  8
0
  6
Continuous
 62
     7
370
    15
100
AcDbLine
 10
-533.359842
 20
-40.075658
 30
0.0
 11
-538.359861
 21
-40.075658
 31
0.0
  0
LINE
  5
41F
330
1F
100
AcDbEntity
  8
0
  6
Continuous
 62
     7
370
    15
100
AcDbLine
 10
-533.359842
 20
-31.786399
 30
0.0
 11
-533.359842
 21
-40.075658
 31
0.0
  0
LINE
  5
420
330
1F
100
AcDbEntity
  8
0
  6
Continuous
 62
     7
370
    15
100
AcDbLine
 10
-538.359861
 20
-31.786399
 30
0.0
 11
-533.359842
 21
-31.786399
 31
0.0
  0
LINE
  5
421
330
1F
100
AcDbEntity
  8
0
  6
Continuous
 62
     7
370
    15
100
AcDbLine
 10
-538.359861
 20
-23.726716
 30
0.0
 11
-538.359861
 21
-31.786399
 31
0.0
  0
LINE
  5
422
330
1F
100
AcDbEntity
  8
0
  6
Continuous
 62
     7
370
    15
100
AcDbLine
 10
-533.359842
 20
-23.726716
 30
0.0
 11
-538.359861
 21
-23.726716
 31
0.0
  0
LINE
  5
423
330
1F
100
AcDbEntity
  8
0
  6
Continuous
 62
     7
370
    15
100
AcDbLine
 10
-533.359842
 20
-15.420913
 30
0.0
 11
-533.359842
 21
-23.726716
 31
0.0
  0
LINE
  5
424
330
1F
100
AcDbEntity
  8
0
  6
Continuous
 62
     7
370
    15
100
AcDbLine
 10
-538.359861
 20
-15.420913
 30
0.0
 11
-533.359842
 21
-15.420913
 31
0.0
  0
LINE
  5
425
330
1F
100
AcDbEntity
  8
0
  6
Continuous
 62
     7
370
    15
100
AcDbLine
 10
-538.359861
 20
-7.361228
 30
0.0
 11
-538.359861
 21
-15.420913
 31
0.0
  0
LINE
  5
426
330
1F
100
AcDbEntity
  8
0
  6
Continuous
 62
     7
370
    15
100
AcDbLine
 10
-533.359842
 20
-7.361228
 30
0.0
 11
-538.359861
 21
-7.361228
 31
0.0
  0
LINE
  5
427
330
1F
100
AcDbEntity
  8
0
  6
Continuous
 62
     7
370
    15
100
AcDbLine
 10
-533.359842
 20
0.0
 30
0.0
 11
-533.359842
 21
-7.361228
 31
0.0
  0
LINE
  5
428
330
1F
100
AcDbEntity
  8
0
  6
Continuous
 62
     7
370
    15
100
AcDbLine
 10
-4.999668
 20
0.0
 30
0.0
 11
-533.359842
 21
0.0
 31
0.0
  0
ENDSEC
  0
SECTION
  2
OBJECTS
  0
DICTIONARY
  5
C
330
0
100
AcDbDictionary
281
     1
  3
ACAD_GROUP
350
D
  3
ACAD_LAYOUT
350
1A
  3
ACAD_MLINESTYLE
350
17
  3
ACAD_PLOTSETTINGS
350
19
  3
ACAD_PLOTSTYLENAME
350
E
  3
ACAD_SCALELIST
350
47
  0
DICTIONARY
  5
D
102
{ACAD_REACTORS
330
C
102
}
330
C
100
AcDbDictionary
281
     1
  0
DICTIONARY
  5
1A
102
{ACAD_REACTORS
330
C
102
}
330
C
100
AcDbDictionary
281
     1
  3
Layout1
350
1E
  3
Layout2
350
26
  3
Model
350
22
  0
DICTIONARY
  5
17
102
{ACAD_REACTORS
330
C
102
}
330
C
100
AcDbDictionary
281
     1
  3
Standard
350
18
  0
DICTIONARY
  5
19
102
{ACAD_REACTORS
330
C
102
}
330
C
100
AcDbDictionary
281
     1
  0
ACDBDICTIONARYWDFLT
  5
E
102
{ACAD_REACTORS
330
C
102
}
330
C
100
AcDbDictionary
281
     1
  3
Normal
350
F
100
AcDbDictionaryWithDefault
340
F
  0
DICTIONARY
  5
47
102
{ACAD_REACTORS
330
C
102
}
330
C
100
AcDbDictionary
281
     1
  3
A0
350
48
  3
A1
350
49
  3
A2
350
4A
  3
A3
350
4B
  3
A4
350
4C
  3
A5
350
4D
  3
A6
350
4E
  3
A7
350
4F
  3
A8
350
50
  3
A9
350
51
  3
B0
350
52
  3
B1
350
53
  3
B2
350
54
  3
B3
350
55
  3
B4
350
56
  3
B5
350
57
  3
B6
350
58
  3
B7
350
59
  3
B8
350
5A
  3
B9
350
5B
  3
C0
350
5C
  3
C1
350
5D
  3
C2
350
5E
  3
C3
350
5F
  3
C4
350
60
  3
C5
350
61
  3
C6
350
62
  3
C7
350
63
  3
C8
350
64
  3
C9
350
65
  3
D0
350
66
  3
D1
350
67
  3
D2
350
68
  0
LAYOUT
  5
1E
102
{ACAD_REACTORS
330
1A
102
}
330
1A
100
AcDbPlotSettings
  1

  2
none_device
  4

  6

 40
0.0
 41
0.0
 42
0.0
 43
0.0
 44
0.0
 45
0.0
 46
0.0
 47
0.0
 48
0.0
 49
0.0
140
0.0
141
0.0
142
1.0
143
1.0
 70
   688
 72
     1
 73
     0
 74
     5
  7

 75
    16
147
1.0
148
0.0
149
0.0
100
AcDbLayout
  1
Layout1
 70
     1
 71
     1
 10
0.0
 20
0.0
 11
420.0
 21
297.0
 12
0.0
 22
0.0
 32
0.0
 14
1.0000000000E+20
 24
1.0000000000E+20
 34
1.0000000000E+20
 15
-1.0000000000E+20
 25
-1.0000000000E+20
 35
-1.0000000000E+20
146
0.0
 13
0.0
 23
0.0
 33
0.0
 16
1.0
 26
0.0
 36
0.0
 17
0.0
 27
1.0
 37
0.0
 76
     0
330
1B
  0
LAYOUT
  5
26
102
{ACAD_REACTORS
330
1A
102
}
330
1A
100
AcDbPlotSettings
  1

  2
none_device
  4

  6

 40
0.0
 41
0.0
 42
0.0
 43
0.0
 44
0.0
 45
0.0
 46
0.0
 47
0.0
 48
0.0
 49
0.0
140
0.0
141
0.0
142
1.0
143
1.0
 70
   688
 72
     1
 73
     0
 74
     5
  7

 75
    16
147
1.0
148
0.0
149
0.0
100
AcDbLayout
  1
Layout2
 70
     1
 71
     2
 10
0.0
 20
0.0
 11
0.0
 21
0.0
 12
0.0
 22
0.0
 32
0.0
 14
0.0
 24
0.0
 34
0.0
 15
0.0
 25
0.0
 35
0.0
146
0.0
 13
0.0
 23
0.0
 33
0.0
 16
1.0
 26
0.0
 36
0.0
 17
0.0
 27
1.0
 37
0.0
 76
     0
330
23
  0
LAYOUT
  5
22
102
{ACAD_REACTORS
330
1A
102
}
330
1A
100
AcDbPlotSettings
  1

  2
none_device
  4
ANSI_A_(11.00_x_8.50_Inches)
  6

 40
6.35
 41
19.05
 42
6.35000508
 43
19.05000254
 44
279.4
 45
215.9
 46
271.65299746
 47
105.495540431
 48
0.0
 49
0.0
140
0.0
141
0.0
142
0.0202281054
143
1.0
 70
  1696
 72
     0
 73
     0
 74
     0
  7

 75
     0
147
0.0179189148
148
-1300.4909072572
149
0.0
100
AcDbLayout
  1
Model
 70
     1
 71
     0
 10
0.0
 20
0.0
 11
420.0
 21
297.0
 12
0.0
 22
0.0
 32
0.0
 14
-538.359861
 24
-64.599998
 34
0.0
 15
0.0
 25
0.0
 35
0.0
146
0.0
 13
0.0
 23
0.0
 33
0.0
 16
1.0
 26
0.0
 36
0.0
 17
0.0
 27
1.0
 37
0.0
 76
     0
330
1F
331
29
  0
MLINESTYLE
  5
18
102
{ACAD_REACTORS
330
17
102
}
330
17
100
AcDbMlineStyle
  2
Standard
 70
     0
  3

 62
   256
 51
90.0
 52
90.0
 71
     2
 49
0.5
 62
   256
  6
BYLAYER
 49
-0.5
 62
   256
  6
BYLAYER
  0
ACDBPLACEHOLDER
  5
F
102
{ACAD_REACTORS
330
E
102
}
330
E
  0
SCALE
  5
48
102
{ACAD_REACTORS
330
47
102
}
330
47
100
AcDbScale
 70
     0
300
1:1
140
1.0
141
1.0
290
     1
  0
SCALE
  5
49
102
{ACAD_REACTORS
330
47
102
}
330
47
100
AcDbScale
 70
     0
300
1:2
140
1.0
141
2.0
290
     0
  0
SCALE
  5
4A
102
{ACAD_REACTORS
330
47
102
}
330
47
100
AcDbScale
 70
     0
300
1:4
140
1.0
141
4.0
290
     0
  0
SCALE
  5
4B
102
{ACAD_REACTORS
330
47
102
}
330
47
100
AcDbScale
 70
     0
300
1:5
140
1.0
141
5.0
290
     0
  0
SCALE
  5
4C
102
{ACAD_REACTORS
330
47
102
}
330
47
100
AcDbScale
 70
     0
300
1:8
140
1.0
141
8.0
290
     0
  0
SCALE
  5
4D
102
{ACAD_REACTORS
330
47
102
}
330
47
100
AcDbScale
 70
     0
300
1:10
140
1.0
141
10.0
290
     0
  0
SCALE
  5
4E
102
{ACAD_REACTORS
330
47
102
}
330
47
100
AcDbScale
 70
     0
300
1:16
140
1.0
141
16.0
290
     0
  0
SCALE
  5
4F
102
{ACAD_REACTORS
330
47
102
}
330
47
100
AcDbScale
 70
     0
300
1:20
140
1.0
141
20.0
290
     0
  0
SCALE
  5
50
102
{ACAD_REACTORS
330
47
102
}
330
47
100
AcDbScale
 70
     0
300
1:30
140
1.0
141
30.0
290
     0
  0
SCALE
  5
51
102
{ACAD_REACTORS
330
47
102
}
330
47
100
AcDbScale
 70
     0
300
1:40
140
1.0
141
40.0
290
     0
  0
SCALE
  5
52
102
{ACAD_REACTORS
330
47
102
}
330
47
100
AcDbScale
 70
     0
300
1:50
140
1.0
141
50.0
290
     0
  0
SCALE
  5
53
102
{ACAD_REACTORS
330
47
102
}
330
47
100
AcDbScale
 70
     0
300
1:100
140
1.0
141
100.0
290
     0
  0
SCALE
  5
54
102
{ACAD_REACTORS
330
47
102
}
330
47
100
AcDbScale
 70
     0
300
2:1
140
2.0
141
1.0
290
     0
  0
SCALE
  5
55
102
{ACAD_REACTORS
330
47
102
}
330
47
100
AcDbScale
 70
     0
300
4:1
140
4.0
141
1.0
290
     0
  0
SCALE
  5
56
102
{ACAD_REACTORS
330
47
102
}
330
47
100
AcDbScale
 70
     0
300
8:1
140
8.0
141
1.0
290
     0
  0
SCALE
  5
57
102
{ACAD_REACTORS
330
47
102
}
330
47
100
AcDbScale
 70
     0
300
10:1
140
10.0
141
1.0
290
     0
  0
SCALE
  5
58
102
{ACAD_REACTORS
330
47
102
}
330
47
100
AcDbScale
 70
     0
300
100:1
140
100.0
141
1.0
290
     0
  0
SCALE
  5
59
102
{ACAD_REACTORS
330
47
102
}
330
47
100
AcDbScale
 70
     0
300
1/128" = 1'-0"
140
0.0078125
141
12.0
290
     0
  0
SCALE
  5
5A
102
{ACAD_REACTORS
330
47
102
}
330
47
100
AcDbScale
 70
     0
300
1/64" = 1'-0"
140
0.015625
141
12.0
290
     0
  0
SCALE
  5
5B
102
{ACAD_REACTORS
330
47
102
}
330
47
100
AcDbScale
 70
     0
300
1/32" = 1'-0"
140
0.03125
141
12.0
290
     0
  0
SCALE
  5
5C
102
{ACAD_REACTORS
330
47
102
}
330
47
100
AcDbScale
 70
     0
300
1/16" = 1'-0"
140
0.0625
141
12.0
290
     0
  0
SCALE
  5
5D
102
{ACAD_REACTORS
330
47
102
}
330
47
100
AcDbScale
 70
     0
300
3/32" = 1'-0"
140
0.09375
141
12.0
290
     0
  0
SCALE
  5
5E
102
{ACAD_REACTORS
330
47
102
}
330
47
100
AcDbScale
 70
     0
300
1/8" = 1'-0"
140
0.125
141
12.0
290
     0
  0
SCALE
  5
5F
102
{ACAD_REACTORS
330
47
102
}
330
47
100
AcDbScale
 70
     0
300
3/16" = 1'-0"
140
0.1875
141
12.0
290
     0
  0
SCALE
  5
60
102
{ACAD_REACTORS
330
47
102
}
330
47
100
AcDbScale
 70
     0
300
1/4" = 1'-0"
140
0.25
141
12.0
290
     0
  0
SCALE
  5
61
102
{ACAD_REACTORS
330
47
102
}
330
47
100
AcDbScale
 70
     0
300
3/8" = 1'-0"
140
0.375
141
12.0
290
     0
  0
SCALE
  5
62
102
{ACAD_REACTORS
330
47
102
}
330
47
100
AcDbScale
 70
     0
300
1/2" = 1'-0"
140
0.5
141
12.0
290
     0
  0
SCALE
  5
63
102
{ACAD_REACTORS
330
47
102
}
330
47
100
AcDbScale
 70
     0
300
3/4" = 1'-0"
140
0.75
141
12.0
290
     0
  0
SCALE
  5
64
102
{ACAD_REACTORS
330
47
102
}
330
47
100
AcDbScale
 70
     0
300
1" = 1'-0"
140
1.0
141
12.0
290
     0
  0
SCALE
  5
65
102
{ACAD_REACTORS
330
47
102
}
330
47
100
AcDbScale
 70
     0
300
1-1/2" = 1'-0"
140
1.5
141
12.0
290
     0
  0
SCALE
  5
66
102
{ACAD_REACTORS
330
47
102
}
330
47
100
AcDbScale
 70
     0
300
3" = 1'-0"
140
3.0
141
12.0
290
     0
  0
SCALE
  5
67
102
{ACAD_REACTORS
330
47
102
}
330
47
100
AcDbScale
 70
     0
300
6" = 1'-0"
140
6.0
141
12.0
290
     0
  0
SCALE
  5
68
102
{ACAD_REACTORS
330
47
102
}
330
47
100
AcDbScale
 70
     0
300
1'-0" = 1'-0"
140
12.0
141
12.0
290
     0
  0
ENDSEC
  0
EOF
