<?xml version="1.0"?>
<svg xmlns="http://www.w3.org/2000/svg" xmlns:dc="http://purl.org/dc/elements/1.1/" xmlns:cc="http://creativecommons.org/ns#" xmlns:rdf="http://www.w3.org/1999/02/22-rdf-syntax-ns#" xmlns:xlink="http://www.w3.org/1999/xlink" xmlns:svg="http://www.w3.org/2000/svg" xmlns:sodipodi="http://sodipodi.sourceforge.net/DTD/sodipodi-0.dtd" xmlns:inkscape="http://www.inkscape.org/namespaces/inkscape" xmlns:exslt="http://exslt.org/common" version="1.1" width="210mm" height="297mm" viewBox="0 0 210 297">
  <sodipodi:namedview id="base" inkscape:document-units="mm" units="mm"/>
  <defs>
    <g id="potgrading"/>
  </defs>
  <g style="fill:none;stroke-width:0.05;stroke:#ff0000"><rect x="0.0" y="0.0" width="101.30" height="128.50"/><svg:circle cx="7.5" cy="3" r="1.6"/><svg:circle cx="7.5" cy="125.5" r="1.6"/><svg:circle cx="93.86" cy="3" r="1.6"/><svg:circle cx="93.86" cy="125.5" r="1.6"/>

  
  
  
  
  
  <rect x="32.124" y="30.362" width="37.052" height="19.516" style="fill:none;stroke:#ff0000"/>
  
  

  
  
  
  
  
  

  
  <circle cx="12.55" cy="40.12" r="3.75" style="fill:none;stroke:#ff0000"/>
  <circle cx="88.75" cy="40.12" r="3.75" style="fill:none;stroke:#ff0000"/>
  <circle cx="12.55" cy="65.52" r="3.75" style="fill:none;stroke:#ff0000"/>
  <circle cx="37.95" cy="65.52" r="3.75" style="fill:none;stroke:#ff0000"/>
  <circle cx="63.35" cy="65.52" r="3.75" style="fill:none;stroke:#ff0000"/>
  <circle cx="88.75" cy="65.52" r="3.75" style="fill:none;stroke:#ff0000"/>

  
  <rect x="4.700000000000003" y="83.07" width="3" height="3" style="fill:none;stroke:#ff0000"/>
  <rect x="17.4" y="83.07" width="3" height="3" style="fill:none;stroke:#ff0000"/>
  <rect x="30.1" y="83.07" width="3" height="3" style="fill:none;stroke:#ff0000"/>
  <rect x="42.8" y="83.07" width="3" height="3" style="fill:none;stroke:#ff0000"/>
  <rect x="55.5" y="83.07" width="3" height="3" style="fill:none;stroke:#ff0000"/>
  <rect x="68.2" y="83.07" width="3" height="3" style="fill:none;stroke:#ff0000"/>
  <rect x="80.9" y="83.07" width="3" height="3" style="fill:none;stroke:#ff0000"/>
  <rect x="93.6" y="83.07" width="3" height="3" style="fill:none;stroke:#ff0000"/>

  <rect x="4.700000000000003" y="111.01" width="3" height="3" style="fill:none;stroke:#ff0000"/>
  <rect x="17.4" y="111.01" width="3" height="3" style="fill:none;stroke:#ff0000"/>
  <rect x="30.1" y="111.01" width="3" height="3" style="fill:none;stroke:#ff0000"/>
  <rect x="42.8" y="111.01" width="3" height="3" style="fill:none;stroke:#ff0000"/>
  <rect x="55.5" y="111.01" width="3" height="3" style="fill:none;stroke:#ff0000"/>
  <rect x="68.2" y="111.01" width="3" height="3" style="fill:none;stroke:#ff0000"/>
  <rect x="80.9" y="111.01" width="3" height="3" style="fill:none;stroke:#ff0000"/>
  <rect x="93.6" y="111.01" width="3" height="3" style="fill:none;stroke:#ff0000"/>

  
  <circle cx="6.200000000000003" cy="19.8" r="3.25" style="fill:none;stroke:#ff0000"/>
  <circle cx="18.9" cy="19.8" r="3.25" style="fill:none;stroke:#ff0000"/>
  <circle cx="31.6" cy="19.8" r="3.25" style="fill:none;stroke:#ff0000"/>
  <circle cx="44.3" cy="19.8" r="3.25" style="fill:none;stroke:#ff0000"/>
  <circle cx="57" cy="19.8" r="3.25" style="fill:none;stroke:#ff0000"/>
  <circle cx="69.7" cy="19.8" r="3.25" style="fill:none;stroke:#ff0000"/>
  <circle cx="82.4" cy="19.8" r="3.25" style="fill:none;stroke:#ff0000"/>
  <circle cx="95.1" cy="19.8" r="3.25" style="fill:none;stroke:#ff0000"/>

  <circle cx="6.200000000000003" cy="92.19" r="3.25" style="fill:none;stroke:#ff0000"/>
  <circle cx="18.9" cy="92.19" r="3.25" style="fill:none;stroke:#ff0000"/>
  <circle cx="31.6" cy="92.19" r="3.25" style="fill:none;stroke:#ff0000"/>
  <circle cx="44.3" cy="92.19" r="3.25" style="fill:none;stroke:#ff0000"/>
  <circle cx="57" cy="92.19" r="3.25" style="fill:none;stroke:#ff0000"/>
  <circle cx="69.7" cy="92.19" r="3.25" style="fill:none;stroke:#ff0000"/>
  <circle cx="82.4" cy="92.19" r="3.25" style="fill:none;stroke:#ff0000"/>
  <circle cx="95.1" cy="92.19" r="3.25" style="fill:none;stroke:#ff0000"/>

  <circle cx="6.200000000000003" cy="104.89" r="3.25" style="fill:none;stroke:#ff0000"/>
  <circle cx="18.9" cy="104.89" r="3.25" style="fill:none;stroke:#ff0000"/>
  <circle cx="31.6" cy="104.89" r="3.25" style="fill:none;stroke:#ff0000"/>
  <circle cx="44.3" cy="104.89" r="3.25" style="fill:none;stroke:#ff0000"/>
  <circle cx="57" cy="104.89" r="3.25" style="fill:none;stroke:#ff0000"/>
  <circle cx="69.7" cy="104.89" r="3.25" style="fill:none;stroke:#ff0000"/>
  <circle cx="82.4" cy="104.89" r="3.25" style="fill:none;stroke:#ff0000"/>
  <circle cx="95.1" cy="104.89" r="3.25" style="fill:none;stroke:#ff0000"/>

</g>
</svg>
