<?xml version="1.0" encoding="UTF-8" standalone="no"?>
<!-- Created with Inkscape (http://www.inkscape.org/) -->

<svg
   xmlns:dc="http://purl.org/dc/elements/1.1/"
   xmlns:cc="http://creativecommons.org/ns#"
   xmlns:rdf="http://www.w3.org/1999/02/22-rdf-syntax-ns#"
   xmlns:svg="http://www.w3.org/2000/svg"
   xmlns="http://www.w3.org/2000/svg"
   xmlns:xlink="http://www.w3.org/1999/xlink"
   xmlns:sodipodi="http://sodipodi.sourceforge.net/DTD/sodipodi-0.dtd"
   xmlns:inkscape="http://www.inkscape.org/namespaces/inkscape"
   id="svg4373"
   version="1.1"
   inkscape:version="0.92.1 r15371"
   width="210mm"
   height="297mm"
   xml:space="preserve"
   sodipodi:docname="MagusEuroLabels.svg"><sodipodi:namedview
     pagecolor="#ffffff"
     bordercolor="#666666"
     borderopacity="1"
     objecttolerance="10"
     gridtolerance="10"
     guidetolerance="10"
     inkscape:pageopacity="0"
     inkscape:pageshadow="2"
     inkscape:window-width="1680"
     inkscape:window-height="986"
     id="namedview4375"
     showgrid="false"
     inkscape:zoom="0.73005425"
     inkscape:cx="341.75583"
     inkscape:cy="505.79187"
     inkscape:window-x="240"
     inkscape:window-y="27"
     inkscape:window-maximized="1"
     inkscape:current-layer="flowRoot3001"
     inkscape:document-units="mm"
     showguides="false"
     inkscape:guide-bbox="true"
     units="mm" /><metadata
     id="metadata4379"><rdf:RDF><cc:Work
         rdf:about=""><dc:format>image/svg+xml</dc:format><dc:type
           rdf:resource="http://purl.org/dc/dcmitype/StillImage" /><dc:title></dc:title></cc:Work></rdf:RDF></metadata><defs
     id="defs4377" /><g
     id="g4381"
     inkscape:groupmode="layer"
     inkscape:label="content"
     transform="matrix(1.25,0,0,-1.25,0,1122.5196)"><g
       id="g4685"
       transform="matrix(1.0666648,0,0,1.06666,-19.846484,-797.88613)"
       inkscape:tile-cx="123.85937"
       inkscape:tile-cy="977.36505"
       inkscape:tile-w="203.15552"
       inkscape:tile-h="129.62935"
       inkscape:tile-x0="22.281616"
       inkscape:tile-y0="912.55037"
       style="stroke-width:0.93750584"><g
         id="flowRoot2985"
         style="font-style:normal;font-variant:normal;font-weight:normal;font-stretch:normal;font-size:40px;line-height:125%;font-family:'More than human';-inkscape-font-specification:'More than human';text-align:start;letter-spacing:0px;word-spacing:0px;writing-mode:lr-tb;text-anchor:start;fill:#000000;fill-opacity:1;stroke:none;stroke-width:0.93750584"
         transform="matrix(0.68631727,0,0,-0.68631727,-12.33733,907.75774)"><path
           id="path3134"
           style="font-size:30px;line-height:125%;font-family:'More than human';-inkscape-font-specification:'More than human';stroke-width:0.93750584"
           d="m 79.5375,81.455617 h -2.55 v 9.21 l 2.55,-1.29 v -7.92 m 1.2,-1.2 v 9.87 l -4.95,2.49 v -12.36 h 4.95 m -7.5,19.920003 -0.63,5.76 -0.57,-5.76 V 76.505617 h 12.45 v 15.93 l -2.97,1.5 2.97,1.56 v 4.680003 l -0.63,5.76 -0.57,-5.76 v -3.960003 l -4.38,-2.31 4.38,-2.19 v -14.01 h -10.05 v 22.470003 m 3.75,0 -0.63,5.76 -0.57,-5.76 v -4.890003 l 4.95,2.58 v 2.310003 l -0.63,5.76 -0.57,-5.76 v -1.590003 l -2.52,-1.32 v 2.910003 h -0.03"
           inkscape:connector-curvature="0" /><path
           id="path3136"
           style="font-size:30px;line-height:125%;font-family:'More than human';-inkscape-font-specification:'More than human';stroke-width:0.93750584"
           d="m 100.13203,102.57562 -0.629999,5.76 -0.57,-5.76 v -6.120003 h -7.5 v -4.98 h 7.5 v -2.52 h -7.5 v -8.73 h 4.95 v 3.75 h 2.55 v -6.27 h -10.05 v 23.070003 l -0.63,5.76 -0.57,-5.76 V 76.505617 h 12.449999 v 8.67 h -4.949999 v -3.75 h -2.55 v 6.33 h 7.499999 v 4.92 h -7.499999 v 2.58 h 7.499999 v 7.320003"
           inkscape:connector-curvature="0" /><path
           id="path3139"
           style="font-size:30px;line-height:125%;font-family:'More than human';-inkscape-font-specification:'More than human';stroke-width:0.93750584"
           d="m 110.70937,81.455617 h -2.55 v 5.46 l 2.55,-1.29 v -4.17 m 1.2,-1.2 v 6.12 l -4.95,2.49 v -8.61 h 4.95 m -1.2,14.55 -2.55,-1.29 v 1.71 h 2.55 v -0.42 m 1.2,-0.75 v 2.37 h -4.95 v -4.86 l 4.95,2.49 m 3.75,5.82 -0.62999,5.760003 -0.57001,-5.760003 v -7.41 l -4.37999,-2.31 4.37999,-2.19 v -10.26 h -10.05 v 24.570003 l -0.62999,5.76 -0.57001,-5.76 V 76.505617 h 12.45 v 12.18 l -2.97,1.5 2.97,1.56 v 8.13"
           inkscape:connector-curvature="0" /><path
           id="path3141"
           style="font-size:30px;line-height:125%;font-family:'More than human';-inkscape-font-specification:'More than human';stroke-width:0.93750584"
           d="m 131.30391,102.57562 -0.63,5.76 -0.57,-5.76 v -6.120003 h -7.5 v -4.98 h 7.5 v -2.52 h -7.5 v -8.73 h 4.95 v 3.75 h 2.55 v -6.27 h -10.05 v 23.070003 l -0.63,5.76 -0.57,-5.76 V 76.505617 h 12.45 v 8.67 h -4.95 v -3.75 h -2.55 v 6.33 h 7.5 v 4.92 h -7.5 v 2.58 h 7.5 v 7.320003"
           inkscape:connector-curvature="0" /><path
           id="path3143"
           style="font-size:30px;line-height:125%;font-family:'More than human';-inkscape-font-specification:'More than human';stroke-width:0.93750584"
           d="m 143.08125,99.575617 -0.63,5.760003 -0.57,-5.760003 v -3.12 h -3.75 v -18.75 h -2.55 v 24.570003 l -0.63,5.76 -0.57,-5.76 V 76.505617 h 4.95 v 18.75 h 3.75 v 4.32"
           inkscape:connector-curvature="0" /><path
           id="path3145"
           style="font-size:30px;line-height:125%;font-family:'More than human';-inkscape-font-specification:'More than human';stroke-width:0.93750584"
           d="m 169.38984,100.17562 -0.63,5.76 -0.57,-5.76 V 80.225617 h 3.75 v -2.52 h -10.05 v 2.52 h 3.75 v 19.950003 l -0.63,5.76 -0.57,-5.76 V 81.425617 h -3.75 v -4.92 h 12.45 v 4.92 h -3.75 v 18.750003"
           inkscape:connector-curvature="0" /><path
           id="path3147"
           style="font-size:30px;line-height:125%;font-family:'More than human';-inkscape-font-specification:'More than human';stroke-width:0.93750584"
           d="m 188.37422,102.57562 -0.63,5.76 -0.57,-5.76 v -6.120003 h -7.5 v -4.98 h 7.5 v -2.52 h -7.5 v -8.73 h 4.95 v 3.75 h 2.55 v -6.27 h -10.05 v 23.070003 l -0.63,5.76 -0.57,-5.76 V 76.505617 h 12.45 v 8.67 h -4.95 v -3.75 h -2.55 v 6.33 h 7.5 v 4.92 h -7.5 v 2.58 h 7.5 v 7.320003"
           inkscape:connector-curvature="0" /><path
           id="path3149"
           style="font-size:30px;line-height:125%;font-family:'More than human';-inkscape-font-specification:'More than human';stroke-width:0.93750584"
           d="m 203.90156,102.27562 -0.63,5.76 -0.57,-5.76 v -9.570003 h -2.55 v 3.75 h -4.95 v -16.23 h 4.95 v 3.75 h 2.55 v -6.27 h -10.05 v 22.17 l -0.63,5.760003 -0.57,-5.760003 v -23.37 h 12.45 v 8.67 h -4.95 v -3.75 h -2.55 v 13.83 h 2.55 v -3.75 h 4.95 v 10.770003"
           inkscape:connector-curvature="0" /><path
           id="path3151"
           style="font-size:30px;line-height:125%;font-family:'More than human';-inkscape-font-specification:'More than human';stroke-width:0.93750584"
           d="m 219.37031,100.77562 -0.63,5.76 -0.57,-5.76 V 77.705617 h -2.55 v 15 h -4.95 v -15 h -2.55 v 22.17 l -0.63,5.760003 -0.57,-5.760003 v -23.37 h 4.95 v 15 h 2.55 v -15 h 4.95 v 24.270003 m -3.75,-1.500003 -0.63,5.760003 -0.57,-5.760003 v -2.85 h -2.55 v 7.050003 l -0.63,5.76 -0.57,-5.76 v -8.250003 h 4.95 v 4.05"
           inkscape:connector-curvature="0" /><path
           id="path3153"
           style="font-size:30px;line-height:125%;font-family:'More than human';-inkscape-font-specification:'More than human';stroke-width:0.93750584"
           d="m 231.44484,100.17562 -0.63,5.76 -0.57,-5.76 -2.7,-7.890003 v 7.29 l -0.63,5.760003 -0.57,-5.760003 h -0.03 l 0.03,-14.43 5.1,15.030003 m 3.57,0.9 -0.63,5.76 -0.57,-5.76 V 77.705617 h -2.58 v 13.83 l -4.77,-13.83 h -2.7 v 25.770003 l -0.63,5.76 -0.57,-5.76 V 76.505617 h 4.77 l 2.7,7.89 v -7.89 h 4.98 v 24.570003"
           inkscape:connector-curvature="0" /><path
           id="path3155"
           style="font-size:30px;line-height:125%;font-family:'More than human';-inkscape-font-specification:'More than human';stroke-width:0.93750584"
           d="m 245.70937,81.455617 h -2.55 v 13.77 h 2.55 v -13.77 m 1.2,-1.2 v 16.17 h -4.95 v -16.17 h 4.95 m 3.75,19.62 -0.63,5.760003 -0.57,-5.760003 v -22.17 h -10.05 v 25.470003 l -0.63,5.76 -0.57,-5.76 V 76.505617 h 12.45 v 23.37"
           inkscape:connector-curvature="0" /><path
           id="path3157"
           style="font-size:30px;line-height:125%;font-family:'More than human';-inkscape-font-specification:'More than human';stroke-width:0.93750584"
           d="m 262.55391,99.575617 -0.63,5.760003 -0.57,-5.760003 v -3.12 h -3.75 v -18.75 h -2.55 v 24.570003 l -0.63,5.76 -0.57,-5.76 V 76.505617 h 4.95 v 18.75 h 3.75 v 4.32"
           inkscape:connector-curvature="0" /><path
           id="path3159"
           style="font-size:30px;line-height:125%;font-family:'More than human';-inkscape-font-specification:'More than human';stroke-width:0.93750584"
           d="m 272.6625,81.455617 h -2.55 v 13.77 h 2.55 v -13.77 m 1.2,-1.2 v 16.17 h -4.95 v -16.17 h 4.95 m 3.75,19.62 -0.63,5.760003 -0.57,-5.760003 v -22.17 h -10.05 v 25.470003 l -0.63,5.76 -0.57,-5.76 V 76.505617 h 12.45 v 23.37"
           inkscape:connector-curvature="0" /><path
           id="path3161"
           style="font-size:30px;line-height:125%;font-family:'More than human';-inkscape-font-specification:'More than human';stroke-width:0.93750584"
           d="m 293.25703,101.97562 -0.63,5.76 -0.57,-5.76 V 88.955617 h -2.55 v 7.5 h -4.95 v -16.23 h 4.95 v 3.75 h 2.55 v -6.27 h -10.05 v 21.87 l -0.63,5.760003 -0.57,-5.760003 v -23.07 h 12.45 v 8.67 h -4.95 v -3.75 h -2.55 v 13.83 h 2.55 v -7.5 h 4.95 v 14.220003"
           inkscape:connector-curvature="0" /><path
           id="path3163"
           style="font-size:30px;line-height:125%;font-family:'More than human';-inkscape-font-specification:'More than human';stroke-width:0.93750584"
           d="m 308.84297,99.575617 -0.63,5.760003 -0.57,-5.760003 v -21.87 h -2.55 v 11.25 h -4.95 v -11.25 h -2.55 v 13.77 h 7.5 v 4.98 h -7.5 v 7.320003 l -0.63,5.76 -0.57,-5.76 v -8.520003 h 7.5 v -2.58 h -7.5 v -16.17 h 4.95 v 11.25 h 2.55 v -11.25 h 4.95 v 23.07"
           inkscape:connector-curvature="0" /></g><g
         id="flowRoot3001"
         style="font-style:normal;font-variant:normal;font-weight:normal;font-stretch:normal;font-size:12px;line-height:125%;font-family:Sans;-inkscape-font-specification:Sans;text-align:start;letter-spacing:0px;word-spacing:0px;writing-mode:lr-tb;text-anchor:start;fill:#000000;fill-opacity:1;stroke:none;stroke-width:0.93750584"
         transform="matrix(0.68631727,0,0,-0.68631727,24.889497,949.01546)"><g
           transform="translate(5.0710011e-4,-4.9086306e-4)"
           style="font-style:normal;font-variant:normal;font-weight:normal;font-stretch:normal;font-size:12px;line-height:125%;font-family:Sans;-inkscape-font-specification:Sans;text-align:start;letter-spacing:0px;word-spacing:0px;writing-mode:lr-tb;text-anchor:start;fill:#000000;fill-opacity:1;stroke:none;stroke-width:0.93750584"
           id="flowRoot3001-3"><text
             id="text6700-0"
             y="269.83456"
             x="19.715643"
             style="font-style:normal;font-weight:normal;line-height:0%;font-family:sans-serif;letter-spacing:0px;word-spacing:0px;fill:#000000;fill-opacity:1;stroke:none;stroke-width:0.93750584"
             xml:space="preserve"><tspan
               y="269.83456"
               x="19.715643"
               id="tspan6702-6"
               sodipodi:role="line"
               style="font-size:9.94596863px;line-height:1.25;font-family:sans-serif;stroke-width:0.93750584">magus-euro</tspan></text>
<text
             xml:space="preserve"
             style="font-style:normal;font-weight:normal;line-height:0%;font-family:sans-serif;letter-spacing:0px;word-spacing:0px;fill:#000000;fill-opacity:1;stroke:none;stroke-width:0.93750584"
             x="19.715643"
             y="253.66774"
             id="text4244"><tspan
               id="tspan4248"
               sodipodi:role="line"
               x="19.715643"
               y="253.66774"
               style="font-size:9.94596863px;line-height:1.25;font-family:sans-serif;stroke-width:0.93750584">Rebel Technology</tspan></text>
<g
             transform="translate(157.06356,241.87382)"
             style="fill:#000000"
             id="barcode"><rect
               height="24"
               width="1"
               id="barcode_bar1"
               y="0"
               x="0" /><rect
               height="24"
               width="1"
               id="barcode_bar3"
               y="0"
               x="2" /><rect
               height="20"
               width="2"
               id="barcode_bar5"
               y="0"
               x="6" /><rect
               height="20"
               width="1"
               id="barcode_bar7"
               y="0"
               x="9" /><rect
               height="20"
               width="1"
               id="barcode_bar9"
               y="0"
               x="14" /><rect
               height="20"
               width="1"
               id="barcode_bar11"
               y="0"
               x="16" /><rect
               height="20"
               width="1"
               id="barcode_bar13"
               y="0"
               x="18" /><rect
               height="20"
               width="3"
               id="barcode_bar15"
               y="0"
               x="21" /><rect
               height="20"
               width="2"
               id="barcode_bar17"
               y="0"
               x="25" /><rect
               height="20"
               width="1"
               id="barcode_bar19"
               y="0"
               x="30" /><rect
               height="20"
               width="1"
               id="barcode_bar21"
               y="0"
               x="33" /><rect
               height="20"
               width="2"
               id="barcode_bar23"
               y="0"
               x="36" /><rect
               height="20"
               width="1"
               id="barcode_bar25"
               y="0"
               x="39" /><rect
               height="20"
               width="3"
               id="barcode_bar27"
               y="0"
               x="42" /><rect
               height="24"
               width="1"
               id="barcode_bar29"
               y="0"
               x="46" /><rect
               height="24"
               width="1"
               id="barcode_bar31"
               y="0"
               x="48" /><rect
               height="20"
               width="1"
               id="barcode_bar33"
               y="0"
               x="50" /><rect
               height="20"
               width="1"
               id="barcode_bar35"
               y="0"
               x="55" /><rect
               height="20"
               width="2"
               id="barcode_bar37"
               y="0"
               x="57" /><rect
               height="20"
               width="2"
               id="barcode_bar39"
               y="0"
               x="61" /><rect
               height="20"
               width="3"
               id="barcode_bar41"
               y="0"
               x="64" /><rect
               height="20"
               width="1"
               id="barcode_bar43"
               y="0"
               x="69" /><rect
               height="20"
               width="2"
               id="barcode_bar45"
               y="0"
               x="71" /><rect
               height="20"
               width="2"
               id="barcode_bar47"
               y="0"
               x="75" /><rect
               height="20"
               width="3"
               id="barcode_bar49"
               y="0"
               x="78" /><rect
               height="20"
               width="1"
               id="barcode_bar51"
               y="0"
               x="82" /><rect
               height="20"
               width="3"
               id="barcode_bar53"
               y="0"
               x="85" /><rect
               height="20"
               width="1"
               id="barcode_bar55"
               y="0"
               x="90" /><rect
               height="24"
               width="1"
               id="barcode_bar57"
               y="0"
               x="92" /><rect
               height="24"
               width="1"
               id="barcode_bar59"
               y="0"
               x="94" /><text
               id="barcode_text"
               xml:space="preserve"
               style="font-size:9px;text-align:center;text-anchor:middle"
               y="29"
               x="47">5    060520     310190       </text>
</g></g><g
           id="g6686"
           transform="matrix(2.7446478,0,0,2.7446602,-66.945703,-31.705966)"
           style="stroke-width:1.33029985"><g
             id="text4509"
             style="font-style:normal;font-weight:normal;font-size:50px;line-height:125%;font-family:sans-serif;letter-spacing:0px;word-spacing:0px;fill:#000000;fill-opacity:1;stroke:none;stroke-width:1.41897774px;stroke-linecap:butt;stroke-linejoin:miter;stroke-opacity:1"
             inkscape:transform-center-x="4.0406102"
             transform="matrix(0.28222222,0,0,0.28222222,-105.24784,57.530178)"><path
               id="path4561-6"
               style="font-style:normal;font-variant:normal;font-weight:normal;font-stretch:normal;font-family:'Pure evil 2';-inkscape-font-specification:'Pure evil 2, ';fill:#000000;stroke-width:1.41897774px"
               d="m 557.80194,77.335342 h 12.6709 v 0.122071 h 0.0977 v 0.24414 h 0.12207 v 0.09766 h 0.12207 v 0.12207 h 0.12207 v 0.12207 h 0.12207 v 0.122071 h 0.12207 v 0.24414 h 0.0977 v 0.12207 h 0.12207 v 0.09766 h 0.12207 v 0.12207 h 0.12207 v 0.12207 h 0.12207 v 0.244141 h 0.12207 v 0.12207 h 0.12208 v 0.122071 h 0.0976 v 0.09766 h 0.12207 v 0.12207 h 0.12207 v 0.244141 h 0.12207 v 0.12207 h 0.12207 v 0.12207 h 0.12207 v 0.122071 h 0.0977 v 0.09766 h 0.12207 v 0.244141 h 0.12207 v 0.12207 h 0.12207 v 0.12207 h 0.12207 v 0.122071 h 0.12207 v 0.09766 h 0.12207 v 0.24414 h 0.0977 v 0.122071 h 0.12207 v 0.12207 h 0.12207 v 0.12207 h 0.12207 v 0.122071 h 0.12207 v 0.219726 h 0.12207 v 0.122071 h 0.0977 v 0.12207 h 0.12207 v 0.12207 h 0.12207 v 0.12207 h 0.12207 v 0.219727 h 0.12207 v 0.12207 h 0.12207 v 0.122071 h 0.12207 v 0.12207 h 0.0977 v 0.12207 h 0.12207 v 0.244141 h 0.12207 v 0.09766 h 0.12207 v 0.12207 h 0.12207 v 0.122071 h 0.12207 v 0.12207 h 0.0977 v 0.244141 h 0.12207 v 0.12207 h 0.12207 v 0.09766 h 0.12207 v 0.122071 h 0.12207 v 0.12207 h 0.12207 v 0.244141 h 0.12207 v 0.12207 h 0.0977 v 0.12207 h 0.12207 v 0.09766 h 0.12207 v 0.122071 h 0.12207 v 0.24414 h 0.12207 v 0.122071 h 0.12207 v 0.12207 h 0.0977 v 0.12207 h 0.12207 v 0.09766 h 0.12207 v 0.24414 h 0.12207 v 0.12207 h 0.12207 v 0.122071 h 0.12207 v 0.12207 h 0.12207 v 0.09766 h 0.0977 v 0.244141 h 0.12207 v 0.12207 h 0.12207 v 0.122071 h 0.12207 v 0.12207 h 0.12207 v 0.12207 h 0.12207 v 0.219727 h 0.0977 v 0.12207 h 0.12207 v 0.12207 h 0.12207 v 0.122071 h 0.12207 v 0.12207 h 0.12207 v 0.219727 h 0.12207 v 0.12207 h 0.12207 v 0.12207 h 0.0977 v 0.122071 h 0.24414 v -0.122071 h 0.12207 v -0.24414 h 0.12207 v -0.09766 h 0.12207 v -0.12207 h 0.0977 v -0.12207 h 0.12207 v -0.244141 h 0.12207 v -0.12207 h 0.12207 V 87.51604 h 0.12207 v -0.09766 h 0.12207 v -0.12207 h 0.0977 v -0.244141 h 0.12207 v -0.12207 h 0.12207 v -0.12207 h 0.12207 v -0.122071 h 0.12207 v -0.219726 h 0.12207 v -0.122071 h 0.12207 v -0.12207 h 0.0977 v -0.12207 h 0.12208 v -0.12207 h 0.12207 v -0.219727 h 0.12207 v -0.12207 h 0.12207 v -0.122071 h 0.12207 v -0.12207 h 0.0977 v -0.12207 h 0.12207 v -0.219727 h 0.12207 v -0.12207 h 0.12207 v -0.12207 h 0.12207 v -0.122071 h 0.12207 v -0.24414 h 0.12207 v -0.122071 h 0.0977 v -0.09766 h 0.12207 v -0.12207 h 0.12207 v -0.122071 h 0.12207 v -0.24414 h 0.12207 v -0.122071 h 0.12207 v -0.12207 h 0.0977 v -0.09766 h 0.12207 v -0.244141 h 0.12207 v -0.12207 h 0.12207 v -0.12207 h 0.12207 V 82.7797 h 0.12207 v -0.12207 h 0.12207 v -0.219727 h 0.0977 v -0.12207 h 0.12207 v -0.12207 h 0.12207 v -0.12207 h 0.12207 v -0.244141 h 0.12207 v -0.09766 h 0.12207 v -0.122071 h 0.0977 v -0.12207 h 0.12207 v -0.12207 h 0.12208 V 81.11954 h 0.12207 v -0.12207 h 0.12207 v -0.09766 h 0.12207 v -0.122071 h 0.12207 v -0.12207 h 0.0977 v -0.244141 h 0.12207 v -0.12207 h 0.12207 v -0.09766 h 0.12207 v -0.122071 h 0.12207 v -0.24414 h 0.12207 v -0.122071 h 0.0977 v -0.12207 h 0.12207 v -0.12207 h 0.12207 v -0.09766 h 0.12207 v -0.244141 h 0.12207 v -0.12207 h 0.12207 v -0.122071 h 0.12207 v -0.12207 h 0.0977 v -0.219727 h 0.12207 v -0.12207 h 0.12207 v -0.12207 h 0.12207 v -0.12207 h 0.12207 v -0.122071 h 0.12207 v -0.24414 h 0.0977 v -0.09766 h 0.12207 v -0.12207 h 0.12207 v -0.12207 h 0.12207 v -0.122071 h 13.84277 v 0.244141 h -0.24414 v 0.12207 h -0.21973 v 0.09766 h -0.24414 v 0.12207 h -0.24414 v 0.12207 h -0.21972 v 0.122071 h -0.24414 v 0.12207 h -0.24415 v 0.12207 h -0.24414 v 0.12207 h -0.21972 v 0.09766 h -0.24414 v 0.12207 h -0.24414 v 0.12207 h -0.21973 v 0.122071 h -0.24414 v 0.12207 h -0.24414 v 0.12207 h -0.21973 v 0.122071 h -0.24414 v 0.09766 h -0.24414 v 0.12207 h -0.21973 v 0.12207 h -0.24414 v 0.122071 h -0.24414 v 0.12207 h -0.24414 v 0.12207 h -0.21972 v 0.122071 h -0.24415 v 0.09766 h -0.24414 v 0.12207 h -0.21972 v 0.122071 h -0.24414 v 0.12207 h -0.12207 v 0.12207 h -0.12207 v 38.403328 h 0.12207 v 0.0977 h 0.12207 v 0.12207 h 0.12207 v 0.12207 h 0.12207 v 0.12207 h 0.12207 v 0.12207 h 0.0977 v 0.12207 h 0.12207 v 0.12207 h 0.12207 v 0.0977 h 0.12208 v 0.12207 h 0.12207 v 0.12207 h 0.12207 v 0.12207 h 0.0976 v 0.12207 h 0.12207 v 0.12207 h 0.12207 v 0.12207 h 0.12207 v 0.0977 h 0.12207 v 0.12207 h 0.12207 v 0.24414 h -11.01074 v -0.24414 h 0.12207 v -0.12207 h 0.12207 v -0.0977 h 0.12207 v -0.12207 h 0.0977 v -0.12207 h 0.12207 v -0.12207 h 0.12207 v -0.12207 h 0.12207 v -0.12207 h 0.12207 v -0.12207 h 0.12207 v -0.0977 h 0.0977 v -0.12207 h 0.12207 v -0.12207 h 0.12207 v -0.12207 h 0.12207 v -0.12207 h 0.12207 v -0.12207 h 0.12207 V 88.004355 h -0.12207 v 0.24414 h -0.12207 v 0.09766 h -0.12207 v 0.12207 h -0.12207 v 0.12207 h -0.12207 v 0.122071 h -0.0977 v 0.24414 h -0.12207 v 0.12207 h -0.12207 v 0.09766 h -0.12207 v 0.12207 h -0.12207 v 0.12207 h -0.12207 v 0.244141 h -0.0977 v 0.12207 h -0.12207 v 0.122071 h -0.12207 v 0.09766 h -0.12207 v 0.12207 h -0.12207 v 0.244141 h -0.12207 v 0.12207 h -0.12207 v 0.12207 h -0.0977 v 0.122071 h -0.12207 v 0.09766 h -0.12207 v 0.12207 h -0.12207 v 0.244141 h -0.12207 v 0.12207 h -0.12207 v 0.122071 h -0.0977 v 0.12207 h -0.12207 v 0.09766 h -0.12207 v 0.244141 h -0.12207 v 0.12207 h -0.12207 v 0.12207 h -0.12208 v 0.122071 h -0.12207 v 0.12207 h -0.0977 v 0.219727 h -0.12207 v 0.12207 h -0.12207 v 0.12207 h -0.12207 v 0.12207 h -0.12207 v 0.122071 h -0.12207 v 0.219726 h -0.0977 v 0.122071 h -0.12207 v 0.12207 h -0.12207 v 0.12207 h -0.12207 v 0.122071 h -0.12207 v 0.219726 h -0.12207 v 0.12207 H 584.292 v 0.122071 h -0.0977 v 0.12207 h -0.12207 v 0.12207 h -0.12207 v 0.244141 h -0.12207 v 0.09766 h -0.12207 v 0.122071 h -0.12207 v 0.12207 h -0.0977 v 0.12207 h -0.12207 v 0.244141 h -0.12207 v 0.12207 h -0.12207 v 0.09766 h -0.12207 v 0.122071 h -0.12207 v 0.12207 h -0.12207 v 0.244141 h -0.0977 v 0.12207 h -0.12207 v 0.12207 h -0.12207 v 0.09766 h -0.12207 v 0.12207 h -0.12207 v 0.24414 h -0.12208 v 0.122071 h -0.0977 v 0.12207 H 581.826 v 0.12207 h -0.12207 v 0.09766 h -0.12207 v 0.24414 h -0.12207 v 0.122071 h -0.12207 v 0.12207 h -0.12207 v 0.12207 h -0.0977 v 0.122071 h -0.12207 v 0.219726 h -0.12207 v 0.12207 h -0.12207 v 0.122071 h -0.12207 v 0.12207 h -0.12207 v 0.12207 h -0.0977 v 0.219727 h -0.12207 v 0.12207 h -0.12207 v 0.122071 h -0.12207 v 0.12207 h -0.12207 v 0.12207 h -0.12207 v 0.219727 h -0.0977 v 0.12207 h -0.12207 v 0.12207 h -0.12207 v 0.122073 h -0.36621 v -0.122073 h -0.12207 v -0.12207 h -0.0977 v -0.12207 h -0.12207 V 99.50341 h -0.12207 v -0.12207 h -0.12207 v -0.12207 h -0.12207 v -0.122071 h -0.12207 v -0.12207 h -0.0977 v -0.219727 h -0.12207 v -0.12207 h -0.12207 v -0.12207 h -0.12207 v -0.122071 h -0.12207 v -0.12207 h -0.12207 v -0.219726 h -0.12207 v -0.122071 h -0.0977 v -0.12207 h -0.12207 v -0.12207 h -0.12207 v -0.122071 h -0.12207 v -0.24414 h -0.12207 v -0.09766 h -0.12207 v -0.12207 h -0.0977 v -0.12207 h -0.12207 v -0.122071 h -0.12207 v -0.12207 h -0.12207 v -0.24414 h -0.12207 v -0.09766 h -0.12207 v -0.12207 h -0.12207 v -0.12207 h -0.0977 v -0.122071 h -0.12207 v -0.24414 h -0.12207 V 95.69481 h -0.12207 v -0.09766 h -0.12207 v -0.12207 h -0.12207 v -0.12207 h -0.0977 v -0.244141 h -0.12207 v -0.12207 h -0.12207 v -0.122071 h -0.12207 v -0.09766 h -0.12207 v -0.12207 h -0.12207 v -0.244141 h -0.12207 v -0.12207 h -0.0977 v -0.122071 h -0.12207 v -0.12207 h -0.12207 v -0.09766 h -0.12207 v -0.244141 h -0.12207 v -0.12207 h -0.12207 v -0.12207 h -0.0977 v -0.122071 h -0.12207 v -0.12207 h -0.12207 v -0.219727 h -0.12207 v -0.12207 h -0.12207 v -0.12207 h -0.12207 v -0.12207 h -0.12207 v -0.122071 h -0.0977 V 92.27683 h -0.12207 v -0.122071 h -0.12207 v -0.12207 h -0.12207 v -0.12207 h -0.12207 v -0.122071 h -0.12207 v -0.219726 h -0.0976 v -0.12207 h -0.12208 v -0.122071 h -0.12207 v -0.12207 h -0.12207 v -0.12207 h -0.12207 V 90.8364 h -0.12207 v -0.09766 h -0.12207 v -0.122071 h -0.0977 v -0.12207 h -0.12207 v -0.12207 h -0.12207 v -0.122071 h -0.12207 v -0.24414 h -0.12207 v -0.09766 h -0.12207 v -0.122071 h -0.0977 v 34.814453 h 1.17187 v 0.24414 h -0.12207 v 0.12207 h -0.12207 v 0.12207 h -0.12207 v 0.12207 h -0.0977 v 0.12207 h -0.12207 v 0.0977 h -0.12207 v 0.12207 h -0.12207 v 0.12207 h -0.12207 v 0.12207 h -0.12207 v 0.12207 h -0.0977 v 0.12207 h -0.12207 v 0.12207 h -0.12207 v 0.0977 h -0.12207 v 0.12207 h -0.12207 v 0.12207 h -0.12207 v 0.12207 h -0.12207 v 0.12207 h -0.0977 v 0.12208 h -0.12207 v 0.0977 h -0.12207 v 0.12207 h -0.12207 v 0.12207 h -0.12207 v 0.12207 h -0.12207 v 0.12207 h -0.0977 v 0.12207 h -0.12207 v 0.12207 h -0.12207 v 0.0977 h -0.12207 v 0.12207 h -0.12207 v 0.12207 h -0.12207 v 0.12207 h -0.12207 v 0.12207 h -0.0976 v 0.12207 h -0.12208 v 0.12207 h -0.12207 v 0.0977 h -0.12207 v 0.12207 h -0.12207 v 0.12207 h -0.12207 v 0.12207 h -0.0977 v 0.12207 h -0.12207 v 0.12207 h -0.12207 v 0.12207 h -0.12207 v 0.0977 h -0.12207 v 0.12207 h -0.12207 v 0.12207 h -0.12207 v 0.12207 h -0.0977 v 0.12207 h -0.12207 v 0.12207 h -0.12207 v 0.12207 h -0.12207 v 0.0977 h -0.12207 v 0.12207 h -0.12207 v 0.12207 h -0.0977 v 0.12207 h -0.12207 v 0.12208 h -0.12207 v 0.12207 h -0.12207 v 0.12207 h -0.12207 v 0.0976 h -0.12207 v 0.12207 h -0.12207 v 0.12207 h -0.0977 v 0.12207 h -0.12207 v 0.12207 h -0.12207 v 0.12207 h -0.12207 v 0.12207 h -0.12207 v 0.0977 h -0.12207 v 0.12207 h -0.0976 v 0.12207 h -0.12207 v 0.12207 h -0.12208 v 0.12207 h -0.12207 v 0.12207 h -0.12207 v 0.12207 h -0.24414 V 80.411887 h -0.0977 v -0.12207 h -0.24414 v -0.09766 h -0.24414 v -0.122071 h -0.21973 v -0.12207 h -0.24414 v -0.12207 h -0.24414 v -0.122071 h -0.24414 v -0.12207 h -0.21973 v -0.12207 h -0.24414 v -0.09766 h -0.24414 v -0.122071 h -0.21973 v -0.12207 h -0.24414 v -0.12207 h -0.24414 v -0.122071 h -0.21972 v -0.12207 h -0.24415 v -0.12207 h -0.24414 v -0.09766 h -0.21972 v -0.12207 h -0.24414 v -0.12207 h -0.24414 v -0.12207 h -0.24414 v -0.122071 h -0.21973 v -0.12207 h -0.24414 v -0.12207 h -0.24414 v -0.09766 h -0.21973 v -0.12207 h -0.24414 v -0.244141 z"
               inkscape:connector-curvature="0" /><path
               id="path4563-0"
               style="font-style:normal;font-variant:normal;font-weight:normal;font-stretch:normal;font-family:'Typographer Uncialgotisch';-inkscape-font-specification:'Typographer Uncialgotisch';fill:#000000;stroke-width:1.41897774px"
               d="m 621.42245,117.52929 q -1,1.4 -2.05,2.8 -1.5,1.95 -2.25,2.05 -0.7,-0.15 -2.5,-1.25 -1.75,-1.15 -2.15,-1.65 h -0.3 q -1.8,1.6 -3.45,3.35 h -0.1 q -0.6,0 -4.95,-1.85 -4.35,-1.85 -4.65,-2.15 0.5,-0.85 1.35,-2.65 0.65,-1.9 0.65,-8.3 0,-1.8 -0.2,-5.3 -0.15,-3.550002 -0.15,-5.350002 0.75,-0.95 3.85,-2.8 3.1,-1.9 4.15,-1.9 1.4,0 4.95,0.8 3.6,0.8 4.9,1.35 l 0.2,0.45 q -0.8,3.7 -0.8,10.750002 v 6.7 q 0,1.4 0.15,2.7 1.15,0.65 3.35,2.2 z m -8.7,-16.7 q 0,-3.450002 -5.6,-3.450002 h -0.55 l -0.15,0.2 q 0,1.35 -0.1,4.000002 -0.05,2.65 -0.05,4 0,2.6 -0.5,5.6 -0.05,0.45 -0.5,1.65 -0.35,1 -0.35,1.65 0,0.7 3.05,1.7 2.75,0.9 3.85,0.9 h 0.3 l 0.2,-0.15 q 0.3,-3.3 0.3,-2.85 0,-2.2 0.05,-6.6 0.05,-4.45 0.05,-6.65 z"
               inkscape:connector-curvature="0" /><path
               id="path4565-0"
               style="font-style:normal;font-variant:normal;font-weight:normal;font-stretch:normal;font-family:'Typographer Uncialgotisch';-inkscape-font-specification:'Typographer Uncialgotisch';fill:#000000;stroke-width:1.41897774px"
               d="m 645.38651,95.929288 q -1.25,3.05 -1.5,7.950002 -0.05,0.8 -0.05,8.25 0,1.85 0.75,5.55 0.75,3.7 0.75,5.3 0,0.85 -3.75,4.8 -3.75,4 -4.95,4.4 -1.2,-0.25 -3.5,-1.15 -2.5,-1 -3.55,-1.25 -1.35,-0.2 -2.7,-0.45 -2.3,-0.4 -2.3,-0.7 v -0.1 q 1.2,-1.2 2.35,-2.4 1.8,-1.7 2.65,-1.7 1.55,0 4.45,1.05 2.95,1.1 4.5,1.1 l 0.45,-0.55 q 0.05,-0.2 -0.35,-2 -0.4,-2 -0.4,-2.55 l -0.15,-1.85 -0.15,-0.15 q -0.35,0.2 -1.95,1.85 -1.3,1.35 -2.1,1.35 l -0.35,-0.05 q -0.85,-0.25 -2.7,-1.15 -1.8,-0.9 -2.9,-1.1 -2.5,-0.45 -4.4,-1.05 v -0.15 q 0,-0.9 0.55,-3 0.55,-2.15 0.6,-3.15 0,-4.9 0.35,-14.750002 0.45,-0.6 4.2,-2.95 3.75,-2.35 4.75,-2.7 0.2,-0.1 2.55,0.75 2.55,0.9 2.9,0.95 l 3.8,0.7 q 0.9,0.2 1.2,0.3 0.75,0.2 0.95,0.6 z m -7,7.600002 -0.15,-3.45 q -0.3,-0.650002 -1.5,-0.900002 -1.85,-0.6 -5.5,-1.5 h -0.15 q -0.25,0.2 -0.45,0.45 0,0.25 0.1,1.3 0.1,1.000002 0.05,1.400002 -0.3,1.95 -0.3,1.75 0,7.05 -0.15,8.25 -0.05,0.45 -0.45,2 -0.3,1.25 -0.3,2 v 0.55 q 0.75,0.5 3.9,1.35 3.15,0.8 4.1,0.8 h 0.25 l 0.25,-0.2 q 0.3,-2 0.3,-9.35 z"
               inkscape:connector-curvature="0" /><path
               id="path4567-0"
               style="font-style:normal;font-variant:normal;font-weight:normal;font-stretch:normal;font-family:'Typographer Uncialgotisch';-inkscape-font-specification:'Typographer Uncialgotisch';fill:#000000;stroke-width:1.41897774px"
               d="m 672.66542,118.47929 q -1.15,1.25 -2.25,2.5 -1.7,1.75 -2.6,1.9 -1.3,-0.3 -4.55,-3.35 h -0.6 q -1.3,1.35 -3.3,2.9 -0.65,0 -4.7,-1.7 -4.05,-1.7 -4.4,-2.15 0.3,-0.8 0.9,-1.45 0.3,-3 0.3,-3 V 99.429288 q -0.15,-0.55 -1.05,-0.95 -0.85,-0.45 -1.05,-0.8 -0.05,-0.45 1.75,-2.1 1.2,-1.05 2.35,-2.05 0.95,-0.15 2.35,0.75 1.45,0.85 1.45,1.8 0,0.85 -0.2,6.100002 -0.2,5.25 -0.2,8 0,3.9 0.35,4.85 0.05,0.2 2.6,1.15 2.55,0.95 3.1,0.95 0,0 0.4,-0.2 l 0.1,-0.55 q 0,-2.1 0.25,-7.75 0.2,-4.85 0.1,-7.7 l -0.05,-1.650002 q -0.2,-0.45 -0.8,-0.8 -0.6,-0.4 -1.15,-0.7 l -0.3,-0.7 q 0.4,-0.75 2.15,-2.2 1.8,-1.45 2.7,-1.8 3.6,1.55 4.55,2.85 -1.4,4.800002 -1.4,10.000002 v 5.75 q 0,3.6 0.3,3.95 0.1,0.1 1.6,1.4 1.3,1.15 1.3,1.35 z"
               inkscape:connector-curvature="0" /><path
               id="path4569-0"
               style="font-size:60px;fill:#000000;stroke-width:1.41897774px"
               d="m 697.22073,89.379288 q -0.48,0.72 -3.66,2.64 -3.12,1.86 -3.9,1.86 -1.32,0 -3.42,-0.9 -2.34,-0.96 -3.42,-1.08 l -0.54,0.36 q 0.06,0.84 -0.06,2.4 -0.12,1.56 -0.12,2.22 0,1.32 1.32,3.06 1.32,1.740002 2.58,1.740002 1.14,0 2.94,-1.920002 1.8,-1.92 3,-1.92 4.32,0 4.32,10.800002 0,1.86 -0.18,4.74 v 0.54 q -0.42,0.66 -5.46,4.62 -4.98,3.96 -5.82,4.38 -1.26,0.6 -5.7,-4.08 -4.44,-4.68 -4.44,-6.9 0,-1.08 2.22,-2.94 2.22,-1.92 2.52,-3.06 -0.12,-0.3 -2.1,-2.22 -1.56,-1.56 -1.56,-3.780002 0,-1.14 0.06,-3.54 0.12,-2.4 0.12,-3.6 0,-0.9 5.22,-3.84 5.04,-2.88 6.06,-2.88 0.6,0 4.02,1.68 3.48,1.62 6,1.62 z m -7.44,23.940002 q 0,-10.2 -3.6,-10.2 -0.84,0 -2.82,1.62 -1.98,1.56 -2.34,2.4 -0.06,0.12 -0.06,1.08 0,2.34 3,5.52 3.06,3.18 5.34,3.18 h 0.24 l 0.18,-0.18 q 0,-0.36 0,-1.02 0.06,-0.66 0.06,-0.96 z"
               inkscape:connector-curvature="0" /></g></g></g></g><use
       height="100%"
       width="100%"
       x="0"
       y="0"
       inkscape:tiled-clone-of="#g4685"
       xlink:href="#g4685"
       transform="translate(0,127.90016)"
       id="use8245"
       style="stroke-width:0.93750584" /><use
       height="100%"
       width="100%"
       x="0"
       y="0"
       inkscape:tiled-clone-of="#g4685"
       xlink:href="#g4685"
       transform="translate(0,255.80032)"
       id="use8247"
       style="stroke-width:0.93750584" /><use
       height="100%"
       width="100%"
       x="0"
       y="0"
       inkscape:tiled-clone-of="#g4685"
       xlink:href="#g4685"
       transform="translate(0,383.70048)"
       id="use8249"
       style="stroke-width:0.93750584" /><use
       height="100%"
       width="100%"
       x="0"
       y="0"
       inkscape:tiled-clone-of="#g4685"
       xlink:href="#g4685"
       transform="translate(0,511.60064)"
       id="use8251"
       style="stroke-width:0.93750584" /><use
       height="100%"
       width="100%"
       x="0"
       y="0"
       inkscape:tiled-clone-of="#g4685"
       xlink:href="#g4685"
       transform="translate(0,639.5008)"
       id="use8253"
       style="stroke-width:0.93750584" /><use
       height="100%"
       width="100%"
       x="0"
       y="0"
       inkscape:tiled-clone-of="#g4685"
       xlink:href="#g4685"
       transform="translate(0,767.40095)"
       id="use8255"
       style="stroke-width:0.93750584" /><use
       height="100%"
       width="100%"
       x="0"
       y="0"
       inkscape:tiled-clone-of="#g4685"
       xlink:href="#g4685"
       id="use8257"
       style="stroke-width:0.93750584"
       transform="translate(212.36391)" /><use
       height="100%"
       width="100%"
       x="0"
       y="0"
       inkscape:tiled-clone-of="#g4685"
       xlink:href="#g4685"
       transform="translate(212.36391,127.90016)"
       id="use8259"
       style="stroke-width:0.93750584" /><use
       height="100%"
       width="100%"
       x="0"
       y="0"
       inkscape:tiled-clone-of="#g4685"
       xlink:href="#g4685"
       transform="translate(212.36391,255.80032)"
       id="use8261"
       style="stroke-width:0.93750584" /><use
       height="100%"
       width="100%"
       x="0"
       y="0"
       inkscape:tiled-clone-of="#g4685"
       xlink:href="#g4685"
       transform="translate(212.36391,383.70048)"
       id="use8263"
       style="stroke-width:0.93750584" /><use
       height="100%"
       width="100%"
       x="0"
       y="0"
       inkscape:tiled-clone-of="#g4685"
       xlink:href="#g4685"
       transform="translate(212.36391,511.60064)"
       id="use8265"
       style="stroke-width:0.93750584" /><use
       height="100%"
       width="100%"
       x="0"
       y="0"
       inkscape:tiled-clone-of="#g4685"
       xlink:href="#g4685"
       transform="translate(212.36391,639.5008)"
       id="use8267"
       style="stroke-width:0.93750584" /><use
       height="100%"
       width="100%"
       x="0"
       y="0"
       inkscape:tiled-clone-of="#g4685"
       xlink:href="#g4685"
       transform="translate(212.36391,767.40095)"
       id="use8269"
       style="stroke-width:0.93750584" /><use
       height="100%"
       width="100%"
       x="0"
       y="0"
       inkscape:tiled-clone-of="#g4685"
       xlink:href="#g4685"
       id="use8271"
       style="stroke-width:0.93750584"
       transform="translate(424.72782)" /><use
       height="100%"
       width="100%"
       x="0"
       y="0"
       inkscape:tiled-clone-of="#g4685"
       xlink:href="#g4685"
       transform="translate(424.72782,127.90016)"
       id="use8273"
       style="stroke-width:0.93750584" /><use
       height="100%"
       width="100%"
       x="0"
       y="0"
       inkscape:tiled-clone-of="#g4685"
       xlink:href="#g4685"
       transform="translate(424.72782,255.80032)"
       id="use8275"
       style="stroke-width:0.93750584" /><use
       height="100%"
       width="100%"
       x="0"
       y="0"
       inkscape:tiled-clone-of="#g4685"
       xlink:href="#g4685"
       transform="translate(424.72782,383.70048)"
       id="use8277"
       style="stroke-width:0.93750584" /><use
       height="100%"
       width="100%"
       x="0"
       y="0"
       inkscape:tiled-clone-of="#g4685"
       xlink:href="#g4685"
       transform="translate(424.72782,511.60064)"
       id="use8279"
       style="stroke-width:0.93750584" /><use
       height="100%"
       width="100%"
       x="0"
       y="0"
       inkscape:tiled-clone-of="#g4685"
       xlink:href="#g4685"
       transform="translate(424.72782,639.5008)"
       id="use8281"
       style="stroke-width:0.93750584" /><use
       height="100%"
       width="100%"
       x="0"
       y="0"
       inkscape:tiled-clone-of="#g4685"
       xlink:href="#g4685"
       transform="translate(424.72782,767.40095)"
       id="use8283"
       style="stroke-width:0.93750584" /></g></svg>