<?xml version="1.0" encoding="UTF-8" standalone="no"?>
<svg
   xmlns:dc="http://purl.org/dc/elements/1.1/"
   xmlns:cc="http://creativecommons.org/ns#"
   xmlns:rdf="http://www.w3.org/1999/02/22-rdf-syntax-ns#"
   xmlns:svg="http://www.w3.org/2000/svg"
   xmlns="http://www.w3.org/2000/svg"
   xmlns:sodipodi="http://sodipodi.sourceforge.net/DTD/sodipodi-0.dtd"
   xmlns:inkscape="http://www.inkscape.org/namespaces/inkscape"
   version="1.1"
   width="210mm"
   height="297mm"
   viewBox="0 0 210 297"
   id="svg8437"
   inkscape:version="0.91 r13725"
   sodipodi:docname="MagusProtoCase.svg">
  <metadata
     id="metadata8549">
    <rdf:RDF>
      <cc:Work
         rdf:about="">
        <dc:format>image/svg+xml</dc:format>
        <dc:type
           rdf:resource="http://purl.org/dc/dcmitype/StillImage" />
        <dc:title></dc:title>
      </cc:Work>
    </rdf:RDF>
  </metadata>
  <sodipodi:namedview
     id="base"
     inkscape:document-units="mm"
     units="mm"
     showgrid="false"
     inkscape:zoom="0.90873291"
     inkscape:cx="369.87933"
     inkscape:cy="528.82273"
     inkscape:window-width="1615"
     inkscape:window-height="1026"
     inkscape:window-x="65"
     inkscape:window-y="24"
     inkscape:window-maximized="1"
     inkscape:current-layer="svg8437" />
  <defs
     id="defs8440">
    <g
       id="potgrading" />
  </defs>
  <g
     style="fill:none;stroke:#ff0000;stroke-width:0.05"
     id="g8443"
     transform="translate(54.349999,84.250001)">
    <path
       style=""
       d="m 0,0 101.3,0 0,128.5 -101.3,0 z"
       id="rect8445" />
    <circle
       cx="7.5"
       cy="3"
       r="1.6"
       id="circle8447" />
    <circle
       cx="7.5"
       cy="125.5"
       r="1.6"
       id="circle8449" />
    <circle
       cx="93.860001"
       cy="3"
       r="1.6"
       id="circle8451" />
    <circle
       cx="93.860001"
       cy="125.5"
       r="1.6"
       id="circle8453" />
    <rect
       x="32.124001"
       y="30.362"
       width="37.051998"
       height="19.516001"
       style="fill:none;stroke:#ff0000"
       id="rect8455" />
    <circle
       cx="12.55"
       cy="40.119999"
       r="3.75"
       style="fill:none;stroke:#ff0000"
       id="circle8457" />
    <circle
       cx="88.75"
       cy="40.119999"
       r="3.75"
       style="fill:none;stroke:#ff0000"
       id="circle8459" />
    <circle
       cx="12.55"
       cy="65.519997"
       r="3.75"
       style="fill:none;stroke:#ff0000"
       id="circle8461" />
    <circle
       cx="37.950001"
       cy="65.519997"
       r="3.75"
       style="fill:none;stroke:#ff0000"
       id="circle8463" />
    <circle
       cx="63.349998"
       cy="65.519997"
       r="3.75"
       style="fill:none;stroke:#ff0000"
       id="circle8465" />
    <circle
       cx="88.75"
       cy="65.519997"
       r="3.75"
       style="fill:none;stroke:#ff0000"
       id="circle8467" />
    <rect
       x="4.6999998"
       y="83.07"
       width="3"
       height="3"
       style="fill:none;stroke:#ff0000"
       id="rect8469" />
    <rect
       x="17.4"
       y="83.07"
       width="3"
       height="3"
       style="fill:none;stroke:#ff0000"
       id="rect8471" />
    <rect
       x="30.1"
       y="83.07"
       width="3"
       height="3"
       style="fill:none;stroke:#ff0000"
       id="rect8473" />
    <rect
       x="42.799999"
       y="83.07"
       width="3"
       height="3"
       style="fill:none;stroke:#ff0000"
       id="rect8475" />
    <rect
       x="55.5"
       y="83.07"
       width="3"
       height="3"
       style="fill:none;stroke:#ff0000"
       id="rect8477" />
    <rect
       x="68.199997"
       y="83.07"
       width="3"
       height="3"
       style="fill:none;stroke:#ff0000"
       id="rect8479" />
    <rect
       x="80.900002"
       y="83.07"
       width="3"
       height="3"
       style="fill:none;stroke:#ff0000"
       id="rect8481" />
    <rect
       x="93.599998"
       y="83.07"
       width="3"
       height="3"
       style="fill:none;stroke:#ff0000"
       id="rect8483" />
    <rect
       x="4.6999998"
       y="111.01"
       width="3"
       height="3"
       style="fill:none;stroke:#ff0000"
       id="rect8485" />
    <rect
       x="17.4"
       y="111.01"
       width="3"
       height="3"
       style="fill:none;stroke:#ff0000"
       id="rect8487" />
    <rect
       x="30.1"
       y="111.01"
       width="3"
       height="3"
       style="fill:none;stroke:#ff0000"
       id="rect8489" />
    <rect
       x="42.799999"
       y="111.01"
       width="3"
       height="3"
       style="fill:none;stroke:#ff0000"
       id="rect8491" />
    <rect
       x="55.5"
       y="111.01"
       width="3"
       height="3"
       style="fill:none;stroke:#ff0000"
       id="rect8493" />
    <rect
       x="68.199997"
       y="111.01"
       width="3"
       height="3"
       style="fill:none;stroke:#ff0000"
       id="rect8495" />
    <rect
       x="80.900002"
       y="111.01"
       width="3"
       height="3"
       style="fill:none;stroke:#ff0000"
       id="rect8497" />
    <rect
       x="93.599998"
       y="111.01"
       width="3"
       height="3"
       style="fill:none;stroke:#ff0000"
       id="rect8499" />
    <circle
       cx="6.1999998"
       cy="19.799999"
       r="3.25"
       style="fill:none;stroke:#ff0000"
       id="circle8501" />
    <circle
       cx="18.9"
       cy="19.799999"
       r="3.25"
       style="fill:none;stroke:#ff0000"
       id="circle8503" />
    <circle
       cx="31.6"
       cy="19.799999"
       r="3.25"
       style="fill:none;stroke:#ff0000"
       id="circle8505" />
    <circle
       cx="44.299999"
       cy="19.799999"
       r="3.25"
       style="fill:none;stroke:#ff0000"
       id="circle8507" />
    <circle
       cx="57"
       cy="19.799999"
       r="3.25"
       style="fill:none;stroke:#ff0000"
       id="circle8509" />
    <circle
       cx="69.699997"
       cy="19.799999"
       r="3.25"
       style="fill:none;stroke:#ff0000"
       id="circle8511" />
    <circle
       cx="82.400002"
       cy="19.799999"
       r="3.25"
       style="fill:none;stroke:#ff0000"
       id="circle8513" />
    <circle
       cx="95.099998"
       cy="19.799999"
       r="3.25"
       style="fill:none;stroke:#ff0000"
       id="circle8515" />
    <circle
       cx="6.1999998"
       cy="92.190002"
       r="3.25"
       style="fill:none;stroke:#ff0000"
       id="circle8517" />
    <circle
       cx="18.9"
       cy="92.190002"
       r="3.25"
       style="fill:none;stroke:#ff0000"
       id="circle8519" />
    <circle
       cx="31.6"
       cy="92.190002"
       r="3.25"
       style="fill:none;stroke:#ff0000"
       id="circle8521" />
    <circle
       cx="44.299999"
       cy="92.190002"
       r="3.25"
       style="fill:none;stroke:#ff0000"
       id="circle8523" />
    <circle
       cx="57"
       cy="92.190002"
       r="3.25"
       style="fill:none;stroke:#ff0000"
       id="circle8525" />
    <circle
       cx="69.699997"
       cy="92.190002"
       r="3.25"
       style="fill:none;stroke:#ff0000"
       id="circle8527" />
    <circle
       cx="82.400002"
       cy="92.190002"
       r="3.25"
       style="fill:none;stroke:#ff0000"
       id="circle8529" />
    <circle
       cx="95.099998"
       cy="92.190002"
       r="3.25"
       style="fill:none;stroke:#ff0000"
       id="circle8531" />
    <circle
       cx="6.1999998"
       cy="104.89"
       r="3.25"
       style="fill:none;stroke:#ff0000"
       id="circle8533" />
    <circle
       cx="18.9"
       cy="104.89"
       r="3.25"
       style="fill:none;stroke:#ff0000"
       id="circle8535" />
    <circle
       cx="31.6"
       cy="104.89"
       r="3.25"
       style="fill:none;stroke:#ff0000"
       id="circle8537" />
    <circle
       cx="44.299999"
       cy="104.89"
       r="3.25"
       style="fill:none;stroke:#ff0000"
       id="circle8539" />
    <circle
       cx="57"
       cy="104.89"
       r="3.25"
       style="fill:none;stroke:#ff0000"
       id="circle8541" />
    <circle
       cx="69.699997"
       cy="104.89"
       r="3.25"
       style="fill:none;stroke:#ff0000"
       id="circle8543" />
    <circle
       cx="82.400002"
       cy="104.89"
       r="3.25"
       style="fill:none;stroke:#ff0000"
       id="circle8545" />
    <circle
       cx="95.099998"
       cy="104.89"
       r="3.25"
       style="fill:none;stroke:#ff0000"
       id="circle8547" />
  </g>
  <path
     style="fill:none;stroke:#000000;stroke-width:0.05"
     d="m 37.5,76 36.35,0 0,3 62.3,0 0,-3 36.35,0 0,38.85 -3,-2.5e-4 0,67.3 3,2.5e-4 0,38.85 -36.35,0 0,-3 -62.3,0 0,3 -36.35,0 0,-38.85 3,2.5e-4 0,-67.3 -3,-2.5e-4 z"
     id="rect4191"
     inkscape:connector-curvature="0"
     sodipodi:nodetypes="ccccccccccccccccccccc" />
  <text
     xml:space="preserve"
     style="font-style:normal;font-variant:normal;font-weight:normal;font-stretch:normal;font-size:2.82222223px;line-height:125%;font-family:'Helvetica LT Std';-inkscape-font-specification:'Helvetica LT Std';letter-spacing:0px;word-spacing:0px;fill:#000000;fill-opacity:1;stroke:none;stroke-width:1px;stroke-linecap:butt;stroke-linejoin:miter;stroke-opacity:1"
     x="-7.282825"
     y="63.714703"
     id="text4294"
     sodipodi:linespacing="125%"><tspan
       sodipodi:role="line"
       id="tspan4296"
       x="-7.282825"
       y="63.714703">Top and bottom 2mm</tspan><tspan
       sodipodi:role="line"
       x="-7.282825"
       y="67.242477"
       id="tspan4298">Sides 3mm</tspan></text>
  <path
     sodipodi:nodetypes="ccccccccccccccccccccc"
     inkscape:connector-curvature="0"
     id="path4302"
     d="m 40.5,230 33.25,0 0,-2 62.5,0 0,2 33.25,0 0,11.75 3,0 0,23.49991 -3,9e-5 0,11.75 -33.25,0 0,2 -62.5,0 0,-2 -33.25,0 0,-11.75 -3,9e-5 0,-23.5 3,-9e-5 z"
     style="fill:none;stroke:#000000;stroke-width:0.05" />
  <path
     sodipodi:nodetypes="ccccccccccccccccccccc"
     inkscape:connector-curvature="0"
     id="path4306"
     d="m 182,76.000001 11.75,0 0,3 23.5,0 0,-3 11.75,0 0,38.749999 2,-2.5e-4 0,67.5 -2,2.5e-4 0,38.75 -11.75,0 0,-3 -23.5,0 0,3 -11.75,0 0,-38.75 -2,2.5e-4 0,-67.5 2,-2.5e-4 z"
     style="fill:none;stroke:#000000;stroke-width:0.05" />
  <path
     style="fill:none;stroke:#000000;stroke-width:0.05"
     d="m 31.444552,76.000001 -11.750008,0 0,3 -23.5000175,0 0,-3 -11.7500085,0 0,38.749999 -2.000004,-2.5e-4 0,67.5 2.000004,2.5e-4 0,38.75 11.7500085,0 0,-3 23.5000175,0 0,3 11.750008,0 0,-38.75 2,2.5e-4 0,-67.5 -2,-2.5e-4 z"
     id="path4308"
     inkscape:connector-curvature="0"
     sodipodi:nodetypes="ccccccccccccccccccccc" />
  <path
     style="fill:none;stroke:#000000;stroke-width:0.05"
     d="m 40.5,65 33.25,0 0,2 62.5,0 0,-2 33.25,0 0,-11.750018 3,0 0,-23.499928 -3,-9e-5 0,-11.75 -33.25,0 0,-2 -62.5,0 0,2 -33.25,0 0,11.75 -3,-9e-5 0,23.500018 3,9e-5 z"
     id="path4310"
     inkscape:connector-curvature="0"
     sodipodi:nodetypes="ccccccccccccccccccccc" />
</svg>
