<?xml version="1.0"?>
<svg xmlns="http://www.w3.org/2000/svg" xmlns:dc="http://purl.org/dc/elements/1.1/" xmlns:cc="http://creativecommons.org/ns#" xmlns:rdf="http://www.w3.org/1999/02/22-rdf-syntax-ns#" xmlns:xlink="http://www.w3.org/1999/xlink" xmlns:svg="http://www.w3.org/2000/svg" xmlns:sodipodi="http://sodipodi.sourceforge.net/DTD/sodipodi-0.dtd" xmlns:inkscape="http://www.inkscape.org/namespaces/inkscape" xmlns:exslt="http://exslt.org/common" version="1.1" width="210mm" height="297mm" viewBox="0 0 210 297">
  <sodipodi:namedview id="base" inkscape:document-units="mm" units="mm"/>
  <defs>
    <g id="potgrading"/>
  </defs>
  <g style="fill:none;stroke-width:0.05;stroke:#ff0000"><rect x="0.0" y="0.0" width="101.30" height="128.50"/><svg:circle cx="7.5" cy="3" r="1.6"/><svg:circle cx="7.5" cy="125.5" r="1.6"/><svg:circle cx="93.86" cy="3" r="1.6"/><svg:circle cx="93.86" cy="125.5" r="1.6"/>

  
  
  
  
  
  <rect x="32.124" y="30.362" width="37.052" height="19.516" style="fill:none;stroke:#ff0000"/>
  
  

  <path inkscape:connector-curvature="0" d="m 12.55,35.37 c -2.6129013,0 -4.7375971,2.115556 -4.7375971,4.727735 0,2.135913 1.421033,3.945767 3.3650681,4.5331 l 0,2.107204 2.632936,1.41e-4 0,-2.079677 c 1.996054,-0.554631 3.466996,-2.388302 3.466996,-4.561134 3.38e-4,-2.612179 -2.115205,-4.727369 -4.727403,-4.727369 z" style="fill:none;stroke:#ff0000"/><g transform="translate(12.55,40.12)"><g transform="scale(1.0)"><path style="fill:none;stroke:#030303;stroke-width:0.212" d="M -4.2037748,7.5814929 C -6.8346316,6.1114925 -8.6120123,3.3014922 -8.6120123,0.07148931 c 0,-4.75000381 3.8628404,-8.61000481 8.6282233,-8.61000481 4.764047,0 8.627555,3.8600011 8.627555,8.61000481 0,3.23000299 -1.780051,6.04000329 -4.414579,7.52000359"/><path style="fill:none;stroke:#030303;stroke-width:0.212" d="m -2.440413,-9.0485165 0.216323,0.810001"/><path style="fill:none;stroke:#030303;stroke-width:0.283" d="m -5.1129926,-8.7785155 0.8080822,1.4000001"/><path style="fill:none;stroke:#030303;stroke-width:0.212" d="m -6.6800914,-6.5985155 0.5891225,0.59"/><path style="fill:none;stroke:#030303;stroke-width:0.283" d="m -8.8466601,-5.0285155 1.3848552,0.8000013"/><path style="fill:none;stroke:#030303;stroke-width:0.212" d="m -9.1267017,-2.3685125 0.8044106,0.2200004"/><path style="fill:none;stroke:#030303;stroke-width:0.283" d="m -10.221501,0.08148931 1.6061507,0"/><path style="fill:none;stroke:#030303;stroke-width:0.212" d="M -9.1243652,2.5214918 -8.3199546,2.3014913"/><path style="fill:none;stroke:#030303;stroke-width:0.283" d="M -8.8489964,5.181492 -7.4574658,4.3814921"/><path style="fill:none;stroke:#030303;stroke-width:0.212" d="m -6.6737496,6.7514925 0.5877873,-0.59"/><path style="fill:none;stroke:#030303;stroke-width:0.283" d="m -5.0742739,8.871494 0.776373,-1.3400011"/><path style="fill:none;stroke:#030303;stroke-width:0.283" d="M 5.113671,8.8814939 4.329988,7.5214929"/><path style="fill:none;stroke:#030303;stroke-width:0.212" d="m 6.704836,6.7414925 -0.588789,-0.58"/><path style="fill:none;stroke:#030303;stroke-width:0.283" d="m 8.846371,5.1614921 -1.360155,-0.79"/><path style="fill:none;stroke:#030303;stroke-width:0.212" d="M 9.151112,2.5114918 8.347402,2.2914913"/><path style="fill:none;stroke:#030303;stroke-width:0.283" d="m 10.195511,0.07148931 -1.555417,0"/><path style="fill:none;stroke:#030303;stroke-width:0.212" d="M 9.148809,-2.3785126 8.344698,-2.1585121"/><path style="fill:none;stroke:#030303;stroke-width:0.283" d="M 8.836691,-5.0185155 7.482544,-4.2385142"/><path style="fill:none;stroke:#030303;stroke-width:0.212" d="m 6.699128,-6.6085155 -0.588421,0.59"/><path style="fill:none;stroke:#030303;stroke-width:0.283" d="m 5.131729,-8.7785155 -0.80875,1.39"/><path style="fill:none;stroke:#030303;stroke-width:0.212" d="m 2.456813,-9.0485165 -0.215288,0.800001"/><path style="fill:none;stroke:#030303;stroke-width:0.283" d="m 0.007833,-10.128517 0,1.5900015"/></g></g>
  <path inkscape:connector-curvature="0" d="m 88.75,35.37 c -2.6129013,0 -4.7375971,2.115556 -4.7375971,4.727735 0,2.135913 1.421033,3.945767 3.3650681,4.5331 l 0,2.107204 2.632936,1.41e-4 0,-2.079677 c 1.996054,-0.554631 3.466996,-2.388302 3.466996,-4.561134 3.38e-4,-2.612179 -2.115205,-4.727369 -4.727403,-4.727369 z" style="fill:none;stroke:#ff0000"/><g transform="translate(88.75,40.12)"><g transform="scale(1.0)"><path style="fill:none;stroke:#030303;stroke-width:0.212" d="M -4.2037748,7.5814929 C -6.8346316,6.1114925 -8.6120123,3.3014922 -8.6120123,0.07148931 c 0,-4.75000381 3.8628404,-8.61000481 8.6282233,-8.61000481 4.764047,0 8.627555,3.8600011 8.627555,8.61000481 0,3.23000299 -1.780051,6.04000329 -4.414579,7.52000359"/><path style="fill:none;stroke:#030303;stroke-width:0.212" d="m -2.440413,-9.0485165 0.216323,0.810001"/><path style="fill:none;stroke:#030303;stroke-width:0.283" d="m -5.1129926,-8.7785155 0.8080822,1.4000001"/><path style="fill:none;stroke:#030303;stroke-width:0.212" d="m -6.6800914,-6.5985155 0.5891225,0.59"/><path style="fill:none;stroke:#030303;stroke-width:0.283" d="m -8.8466601,-5.0285155 1.3848552,0.8000013"/><path style="fill:none;stroke:#030303;stroke-width:0.212" d="m -9.1267017,-2.3685125 0.8044106,0.2200004"/><path style="fill:none;stroke:#030303;stroke-width:0.283" d="m -10.221501,0.08148931 1.6061507,0"/><path style="fill:none;stroke:#030303;stroke-width:0.212" d="M -9.1243652,2.5214918 -8.3199546,2.3014913"/><path style="fill:none;stroke:#030303;stroke-width:0.283" d="M -8.8489964,5.181492 -7.4574658,4.3814921"/><path style="fill:none;stroke:#030303;stroke-width:0.212" d="m -6.6737496,6.7514925 0.5877873,-0.59"/><path style="fill:none;stroke:#030303;stroke-width:0.283" d="m -5.0742739,8.871494 0.776373,-1.3400011"/><path style="fill:none;stroke:#030303;stroke-width:0.283" d="M 5.113671,8.8814939 4.329988,7.5214929"/><path style="fill:none;stroke:#030303;stroke-width:0.212" d="m 6.704836,6.7414925 -0.588789,-0.58"/><path style="fill:none;stroke:#030303;stroke-width:0.283" d="m 8.846371,5.1614921 -1.360155,-0.79"/><path style="fill:none;stroke:#030303;stroke-width:0.212" d="M 9.151112,2.5114918 8.347402,2.2914913"/><path style="fill:none;stroke:#030303;stroke-width:0.283" d="m 10.195511,0.07148931 -1.555417,0"/><path style="fill:none;stroke:#030303;stroke-width:0.212" d="M 9.148809,-2.3785126 8.344698,-2.1585121"/><path style="fill:none;stroke:#030303;stroke-width:0.283" d="M 8.836691,-5.0185155 7.482544,-4.2385142"/><path style="fill:none;stroke:#030303;stroke-width:0.212" d="m 6.699128,-6.6085155 -0.588421,0.59"/><path style="fill:none;stroke:#030303;stroke-width:0.283" d="m 5.131729,-8.7785155 -0.80875,1.39"/><path style="fill:none;stroke:#030303;stroke-width:0.212" d="m 2.456813,-9.0485165 -0.215288,0.800001"/><path style="fill:none;stroke:#030303;stroke-width:0.283" d="m 0.007833,-10.128517 0,1.5900015"/></g></g>
  <path inkscape:connector-curvature="0" d="m 12.55,60.77 c -2.6129013,0 -4.7375971,2.115556 -4.7375971,4.727735 0,2.135913 1.421033,3.945767 3.3650681,4.5331 l 0,2.107204 2.632936,1.41e-4 0,-2.079677 c 1.996054,-0.554631 3.466996,-2.388302 3.466996,-4.561134 3.38e-4,-2.612179 -2.115205,-4.727369 -4.727403,-4.727369 z" style="fill:none;stroke:#ff0000"/><g transform="translate(12.55,65.52)"><g transform="scale(1.0)"><path style="fill:none;stroke:#030303;stroke-width:0.212" d="M -4.2037748,7.5814929 C -6.8346316,6.1114925 -8.6120123,3.3014922 -8.6120123,0.07148931 c 0,-4.75000381 3.8628404,-8.61000481 8.6282233,-8.61000481 4.764047,0 8.627555,3.8600011 8.627555,8.61000481 0,3.23000299 -1.780051,6.04000329 -4.414579,7.52000359"/><path style="fill:none;stroke:#030303;stroke-width:0.212" d="m -2.440413,-9.0485165 0.216323,0.810001"/><path style="fill:none;stroke:#030303;stroke-width:0.283" d="m -5.1129926,-8.7785155 0.8080822,1.4000001"/><path style="fill:none;stroke:#030303;stroke-width:0.212" d="m -6.6800914,-6.5985155 0.5891225,0.59"/><path style="fill:none;stroke:#030303;stroke-width:0.283" d="m -8.8466601,-5.0285155 1.3848552,0.8000013"/><path style="fill:none;stroke:#030303;stroke-width:0.212" d="m -9.1267017,-2.3685125 0.8044106,0.2200004"/><path style="fill:none;stroke:#030303;stroke-width:0.283" d="m -10.221501,0.08148931 1.6061507,0"/><path style="fill:none;stroke:#030303;stroke-width:0.212" d="M -9.1243652,2.5214918 -8.3199546,2.3014913"/><path style="fill:none;stroke:#030303;stroke-width:0.283" d="M -8.8489964,5.181492 -7.4574658,4.3814921"/><path style="fill:none;stroke:#030303;stroke-width:0.212" d="m -6.6737496,6.7514925 0.5877873,-0.59"/><path style="fill:none;stroke:#030303;stroke-width:0.283" d="m -5.0742739,8.871494 0.776373,-1.3400011"/><path style="fill:none;stroke:#030303;stroke-width:0.283" d="M 5.113671,8.8814939 4.329988,7.5214929"/><path style="fill:none;stroke:#030303;stroke-width:0.212" d="m 6.704836,6.7414925 -0.588789,-0.58"/><path style="fill:none;stroke:#030303;stroke-width:0.283" d="m 8.846371,5.1614921 -1.360155,-0.79"/><path style="fill:none;stroke:#030303;stroke-width:0.212" d="M 9.151112,2.5114918 8.347402,2.2914913"/><path style="fill:none;stroke:#030303;stroke-width:0.283" d="m 10.195511,0.07148931 -1.555417,0"/><path style="fill:none;stroke:#030303;stroke-width:0.212" d="M 9.148809,-2.3785126 8.344698,-2.1585121"/><path style="fill:none;stroke:#030303;stroke-width:0.283" d="M 8.836691,-5.0185155 7.482544,-4.2385142"/><path style="fill:none;stroke:#030303;stroke-width:0.212" d="m 6.699128,-6.6085155 -0.588421,0.59"/><path style="fill:none;stroke:#030303;stroke-width:0.283" d="m 5.131729,-8.7785155 -0.80875,1.39"/><path style="fill:none;stroke:#030303;stroke-width:0.212" d="m 2.456813,-9.0485165 -0.215288,0.800001"/><path style="fill:none;stroke:#030303;stroke-width:0.283" d="m 0.007833,-10.128517 0,1.5900015"/></g></g>
  <path inkscape:connector-curvature="0" d="m 37.95,60.77 c -2.6129013,0 -4.7375971,2.115556 -4.7375971,4.727735 0,2.135913 1.421033,3.945767 3.3650681,4.5331 l 0,2.107204 2.632936,1.41e-4 0,-2.079677 c 1.996054,-0.554631 3.466996,-2.388302 3.466996,-4.561134 3.38e-4,-2.612179 -2.115205,-4.727369 -4.727403,-4.727369 z" style="fill:none;stroke:#ff0000"/><g transform="translate(37.95,65.52)"><g transform="scale(1.0)"><path style="fill:none;stroke:#030303;stroke-width:0.212" d="M -4.2037748,7.5814929 C -6.8346316,6.1114925 -8.6120123,3.3014922 -8.6120123,0.07148931 c 0,-4.75000381 3.8628404,-8.61000481 8.6282233,-8.61000481 4.764047,0 8.627555,3.8600011 8.627555,8.61000481 0,3.23000299 -1.780051,6.04000329 -4.414579,7.52000359"/><path style="fill:none;stroke:#030303;stroke-width:0.212" d="m -2.440413,-9.0485165 0.216323,0.810001"/><path style="fill:none;stroke:#030303;stroke-width:0.283" d="m -5.1129926,-8.7785155 0.8080822,1.4000001"/><path style="fill:none;stroke:#030303;stroke-width:0.212" d="m -6.6800914,-6.5985155 0.5891225,0.59"/><path style="fill:none;stroke:#030303;stroke-width:0.283" d="m -8.8466601,-5.0285155 1.3848552,0.8000013"/><path style="fill:none;stroke:#030303;stroke-width:0.212" d="m -9.1267017,-2.3685125 0.8044106,0.2200004"/><path style="fill:none;stroke:#030303;stroke-width:0.283" d="m -10.221501,0.08148931 1.6061507,0"/><path style="fill:none;stroke:#030303;stroke-width:0.212" d="M -9.1243652,2.5214918 -8.3199546,2.3014913"/><path style="fill:none;stroke:#030303;stroke-width:0.283" d="M -8.8489964,5.181492 -7.4574658,4.3814921"/><path style="fill:none;stroke:#030303;stroke-width:0.212" d="m -6.6737496,6.7514925 0.5877873,-0.59"/><path style="fill:none;stroke:#030303;stroke-width:0.283" d="m -5.0742739,8.871494 0.776373,-1.3400011"/><path style="fill:none;stroke:#030303;stroke-width:0.283" d="M 5.113671,8.8814939 4.329988,7.5214929"/><path style="fill:none;stroke:#030303;stroke-width:0.212" d="m 6.704836,6.7414925 -0.588789,-0.58"/><path style="fill:none;stroke:#030303;stroke-width:0.283" d="m 8.846371,5.1614921 -1.360155,-0.79"/><path style="fill:none;stroke:#030303;stroke-width:0.212" d="M 9.151112,2.5114918 8.347402,2.2914913"/><path style="fill:none;stroke:#030303;stroke-width:0.283" d="m 10.195511,0.07148931 -1.555417,0"/><path style="fill:none;stroke:#030303;stroke-width:0.212" d="M 9.148809,-2.3785126 8.344698,-2.1585121"/><path style="fill:none;stroke:#030303;stroke-width:0.283" d="M 8.836691,-5.0185155 7.482544,-4.2385142"/><path style="fill:none;stroke:#030303;stroke-width:0.212" d="m 6.699128,-6.6085155 -0.588421,0.59"/><path style="fill:none;stroke:#030303;stroke-width:0.283" d="m 5.131729,-8.7785155 -0.80875,1.39"/><path style="fill:none;stroke:#030303;stroke-width:0.212" d="m 2.456813,-9.0485165 -0.215288,0.800001"/><path style="fill:none;stroke:#030303;stroke-width:0.283" d="m 0.007833,-10.128517 0,1.5900015"/></g></g>
  <path inkscape:connector-curvature="0" d="m 63.35,60.77 c -2.6129013,0 -4.7375971,2.115556 -4.7375971,4.727735 0,2.135913 1.421033,3.945767 3.3650681,4.5331 l 0,2.107204 2.632936,1.41e-4 0,-2.079677 c 1.996054,-0.554631 3.466996,-2.388302 3.466996,-4.561134 3.38e-4,-2.612179 -2.115205,-4.727369 -4.727403,-4.727369 z" style="fill:none;stroke:#ff0000"/><g transform="translate(63.35,65.52)"><g transform="scale(1.0)"><path style="fill:none;stroke:#030303;stroke-width:0.212" d="M -4.2037748,7.5814929 C -6.8346316,6.1114925 -8.6120123,3.3014922 -8.6120123,0.07148931 c 0,-4.75000381 3.8628404,-8.61000481 8.6282233,-8.61000481 4.764047,0 8.627555,3.8600011 8.627555,8.61000481 0,3.23000299 -1.780051,6.04000329 -4.414579,7.52000359"/><path style="fill:none;stroke:#030303;stroke-width:0.212" d="m -2.440413,-9.0485165 0.216323,0.810001"/><path style="fill:none;stroke:#030303;stroke-width:0.283" d="m -5.1129926,-8.7785155 0.8080822,1.4000001"/><path style="fill:none;stroke:#030303;stroke-width:0.212" d="m -6.6800914,-6.5985155 0.5891225,0.59"/><path style="fill:none;stroke:#030303;stroke-width:0.283" d="m -8.8466601,-5.0285155 1.3848552,0.8000013"/><path style="fill:none;stroke:#030303;stroke-width:0.212" d="m -9.1267017,-2.3685125 0.8044106,0.2200004"/><path style="fill:none;stroke:#030303;stroke-width:0.283" d="m -10.221501,0.08148931 1.6061507,0"/><path style="fill:none;stroke:#030303;stroke-width:0.212" d="M -9.1243652,2.5214918 -8.3199546,2.3014913"/><path style="fill:none;stroke:#030303;stroke-width:0.283" d="M -8.8489964,5.181492 -7.4574658,4.3814921"/><path style="fill:none;stroke:#030303;stroke-width:0.212" d="m -6.6737496,6.7514925 0.5877873,-0.59"/><path style="fill:none;stroke:#030303;stroke-width:0.283" d="m -5.0742739,8.871494 0.776373,-1.3400011"/><path style="fill:none;stroke:#030303;stroke-width:0.283" d="M 5.113671,8.8814939 4.329988,7.5214929"/><path style="fill:none;stroke:#030303;stroke-width:0.212" d="m 6.704836,6.7414925 -0.588789,-0.58"/><path style="fill:none;stroke:#030303;stroke-width:0.283" d="m 8.846371,5.1614921 -1.360155,-0.79"/><path style="fill:none;stroke:#030303;stroke-width:0.212" d="M 9.151112,2.5114918 8.347402,2.2914913"/><path style="fill:none;stroke:#030303;stroke-width:0.283" d="m 10.195511,0.07148931 -1.555417,0"/><path style="fill:none;stroke:#030303;stroke-width:0.212" d="M 9.148809,-2.3785126 8.344698,-2.1585121"/><path style="fill:none;stroke:#030303;stroke-width:0.283" d="M 8.836691,-5.0185155 7.482544,-4.2385142"/><path style="fill:none;stroke:#030303;stroke-width:0.212" d="m 6.699128,-6.6085155 -0.588421,0.59"/><path style="fill:none;stroke:#030303;stroke-width:0.283" d="m 5.131729,-8.7785155 -0.80875,1.39"/><path style="fill:none;stroke:#030303;stroke-width:0.212" d="m 2.456813,-9.0485165 -0.215288,0.800001"/><path style="fill:none;stroke:#030303;stroke-width:0.283" d="m 0.007833,-10.128517 0,1.5900015"/></g></g>
  <path inkscape:connector-curvature="0" d="m 88.75,60.77 c -2.6129013,0 -4.7375971,2.115556 -4.7375971,4.727735 0,2.135913 1.421033,3.945767 3.3650681,4.5331 l 0,2.107204 2.632936,1.41e-4 0,-2.079677 c 1.996054,-0.554631 3.466996,-2.388302 3.466996,-4.561134 3.38e-4,-2.612179 -2.115205,-4.727369 -4.727403,-4.727369 z" style="fill:none;stroke:#ff0000"/><g transform="translate(88.75,65.52)"><g transform="scale(1.0)"><path style="fill:none;stroke:#030303;stroke-width:0.212" d="M -4.2037748,7.5814929 C -6.8346316,6.1114925 -8.6120123,3.3014922 -8.6120123,0.07148931 c 0,-4.75000381 3.8628404,-8.61000481 8.6282233,-8.61000481 4.764047,0 8.627555,3.8600011 8.627555,8.61000481 0,3.23000299 -1.780051,6.04000329 -4.414579,7.52000359"/><path style="fill:none;stroke:#030303;stroke-width:0.212" d="m -2.440413,-9.0485165 0.216323,0.810001"/><path style="fill:none;stroke:#030303;stroke-width:0.283" d="m -5.1129926,-8.7785155 0.8080822,1.4000001"/><path style="fill:none;stroke:#030303;stroke-width:0.212" d="m -6.6800914,-6.5985155 0.5891225,0.59"/><path style="fill:none;stroke:#030303;stroke-width:0.283" d="m -8.8466601,-5.0285155 1.3848552,0.8000013"/><path style="fill:none;stroke:#030303;stroke-width:0.212" d="m -9.1267017,-2.3685125 0.8044106,0.2200004"/><path style="fill:none;stroke:#030303;stroke-width:0.283" d="m -10.221501,0.08148931 1.6061507,0"/><path style="fill:none;stroke:#030303;stroke-width:0.212" d="M -9.1243652,2.5214918 -8.3199546,2.3014913"/><path style="fill:none;stroke:#030303;stroke-width:0.283" d="M -8.8489964,5.181492 -7.4574658,4.3814921"/><path style="fill:none;stroke:#030303;stroke-width:0.212" d="m -6.6737496,6.7514925 0.5877873,-0.59"/><path style="fill:none;stroke:#030303;stroke-width:0.283" d="m -5.0742739,8.871494 0.776373,-1.3400011"/><path style="fill:none;stroke:#030303;stroke-width:0.283" d="M 5.113671,8.8814939 4.329988,7.5214929"/><path style="fill:none;stroke:#030303;stroke-width:0.212" d="m 6.704836,6.7414925 -0.588789,-0.58"/><path style="fill:none;stroke:#030303;stroke-width:0.283" d="m 8.846371,5.1614921 -1.360155,-0.79"/><path style="fill:none;stroke:#030303;stroke-width:0.212" d="M 9.151112,2.5114918 8.347402,2.2914913"/><path style="fill:none;stroke:#030303;stroke-width:0.283" d="m 10.195511,0.07148931 -1.555417,0"/><path style="fill:none;stroke:#030303;stroke-width:0.212" d="M 9.148809,-2.3785126 8.344698,-2.1585121"/><path style="fill:none;stroke:#030303;stroke-width:0.283" d="M 8.836691,-5.0185155 7.482544,-4.2385142"/><path style="fill:none;stroke:#030303;stroke-width:0.212" d="m 6.699128,-6.6085155 -0.588421,0.59"/><path style="fill:none;stroke:#030303;stroke-width:0.283" d="m 5.131729,-8.7785155 -0.80875,1.39"/><path style="fill:none;stroke:#030303;stroke-width:0.212" d="m 2.456813,-9.0485165 -0.215288,0.800001"/><path style="fill:none;stroke:#030303;stroke-width:0.283" d="m 0.007833,-10.128517 0,1.5900015"/></g></g>

  
  
  
  
  
  

  
  <rect x="4.700000000000003" y="83.07" width="3" height="3" style="fill:none;stroke:#ff0000"/>
  <rect x="17.4" y="83.07" width="3" height="3" style="fill:none;stroke:#ff0000"/>
  <rect x="30.1" y="83.07" width="3" height="3" style="fill:none;stroke:#ff0000"/>
  <rect x="42.8" y="83.07" width="3" height="3" style="fill:none;stroke:#ff0000"/>
  <rect x="55.5" y="83.07" width="3" height="3" style="fill:none;stroke:#ff0000"/>
  <rect x="68.2" y="83.07" width="3" height="3" style="fill:none;stroke:#ff0000"/>
  <rect x="80.9" y="83.07" width="3" height="3" style="fill:none;stroke:#ff0000"/>
  <rect x="93.6" y="83.07" width="3" height="3" style="fill:none;stroke:#ff0000"/>

  <rect x="4.700000000000003" y="111.01" width="3" height="3" style="fill:none;stroke:#ff0000"/>
  <rect x="17.4" y="111.01" width="3" height="3" style="fill:none;stroke:#ff0000"/>
  <rect x="30.1" y="111.01" width="3" height="3" style="fill:none;stroke:#ff0000"/>
  <rect x="42.8" y="111.01" width="3" height="3" style="fill:none;stroke:#ff0000"/>
  <rect x="55.5" y="111.01" width="3" height="3" style="fill:none;stroke:#ff0000"/>
  <rect x="68.2" y="111.01" width="3" height="3" style="fill:none;stroke:#ff0000"/>
  <rect x="80.9" y="111.01" width="3" height="3" style="fill:none;stroke:#ff0000"/>
  <rect x="93.6" y="111.01" width="3" height="3" style="fill:none;stroke:#ff0000"/>

  
  <circle cx="6.200000000000003" cy="19.8" r="3.25" style="fill:none;stroke:#ff0000"/>
  <circle cx="18.9" cy="19.8" r="3.25" style="fill:none;stroke:#ff0000"/>
  <circle cx="31.6" cy="19.8" r="3.25" style="fill:none;stroke:#ff0000"/>
  <circle cx="44.3" cy="19.8" r="3.25" style="fill:none;stroke:#ff0000"/>
  <circle cx="57" cy="19.8" r="3.25" style="fill:none;stroke:#ff0000"/>
  <circle cx="69.7" cy="19.8" r="3.25" style="fill:none;stroke:#ff0000"/>
  <circle cx="82.4" cy="19.8" r="3.25" style="fill:none;stroke:#ff0000"/>
  <circle cx="95.1" cy="19.8" r="3.25" style="fill:none;stroke:#ff0000"/>

  <circle cx="6.200000000000003" cy="92.19" r="3.25" style="fill:none;stroke:#ff0000"/>
  <circle cx="18.9" cy="92.19" r="3.25" style="fill:none;stroke:#ff0000"/>
  <circle cx="31.6" cy="92.19" r="3.25" style="fill:none;stroke:#ff0000"/>
  <circle cx="44.3" cy="92.19" r="3.25" style="fill:none;stroke:#ff0000"/>
  <circle cx="57" cy="92.19" r="3.25" style="fill:none;stroke:#ff0000"/>
  <circle cx="69.7" cy="92.19" r="3.25" style="fill:none;stroke:#ff0000"/>
  <circle cx="82.4" cy="92.19" r="3.25" style="fill:none;stroke:#ff0000"/>
  <circle cx="95.1" cy="92.19" r="3.25" style="fill:none;stroke:#ff0000"/>

  <circle cx="6.200000000000003" cy="104.89" r="3.25" style="fill:none;stroke:#ff0000"/>
  <circle cx="18.9" cy="104.89" r="3.25" style="fill:none;stroke:#ff0000"/>
  <circle cx="31.6" cy="104.89" r="3.25" style="fill:none;stroke:#ff0000"/>
  <circle cx="44.3" cy="104.89" r="3.25" style="fill:none;stroke:#ff0000"/>
  <circle cx="57" cy="104.89" r="3.25" style="fill:none;stroke:#ff0000"/>
  <circle cx="69.7" cy="104.89" r="3.25" style="fill:none;stroke:#ff0000"/>
  <circle cx="82.4" cy="104.89" r="3.25" style="fill:none;stroke:#ff0000"/>
  <circle cx="95.1" cy="104.89" r="3.25" style="fill:none;stroke:#ff0000"/>

</g>
</svg>
