  0
SECTION
  2
HEADER
  9
$ACADVER
  1
AC1009
  9
$EXTMIN
 10
0.0
 20
0.0
 30
0.0
  9
$EXTMAX
 10
1000.0
 20
1000.0
 30
0.0
  9
$FILLMODE
 70
 0
  9
$SPLFRAME
 70
 1
  0
ENDSEC
  0
SECTION
  2
TABLES
  0
TABLE
  2
LAYER
 70
1
  0
LAYER
  2
0
 70
     0
 62
     7
  6
CONTINUOUS
  0
ENDTAB
  0
ENDSEC
  0
SECTION
  2
ENTITIES
  0
POLYLINE
  8
0
 62
     0
 66
     1
 10
0
 20
0
 30
0.0
 70
     1
 40
0.283465
 41
0.283465
  0
VERTEX
  8
0
 10
0.0024414
 20
5.06153
 30
0.0
 40
0.00393701
 41
0.00393701
  0
VERTEX
  8
0
 10
3.99067
 20
5.06153
 30
0.0
 40
0.00393701
 41
0.00393701
  0
VERTEX
  8
0
 10
3.99067
 20
0.0024414
 30
0.0
 40
0.00393701
 41
0.00393701
  0
VERTEX
  8
0
 10
0.0024414
 20
0.0024414
 30
0.0
 40
0.00393701
 41
0.00393701
  0
VERTEX
  8
0
 10
0.0024414
 20
5.06153
 30
0.0
 40
0.00393701
 41
0.00393701
  0
SEQEND
 8
0
  0
POLYLINE
  8
0
 62
     0
 66
     1
 10
0
 20
0
 30
0.0
 70
     1
 40
0.283465
 41
0.283465
  0
VERTEX
  8
0
 10
0.360732
 20
4.94342
 30
0.0
 40
0.00393701
 41
0.00393701
  0
VERTEX
  8
0
 10
0.35574
 20
4.91889
 30
0.0
 40
0.00393701
 41
0.00393701
  0
VERTEX
  8
0
 10
0.342231
 20
4.89887
 30
0.0
 40
0.00393701
 41
0.00393701
  0
VERTEX
  8
0
 10
0.322211
 20
4.88542
 30
0.0
 40
0.00393701
 41
0.00393701
  0
VERTEX
  8
0
 10
0.297743
 20
4.88043
 30
0.0
 40
0.00393701
 41
0.00393701
  0
VERTEX
  8
0
 10
0.273221
 20
4.88542
 30
0.0
 40
0.00393701
 41
0.00393701
  0
VERTEX
  8
0
 10
0.253201
 20
4.89887
 30
0.0
 40
0.00393701
 41
0.00393701
  0
VERTEX
  8
0
 10
0.239692
 20
4.91889
 30
0.0
 40
0.00393701
 41
0.00393701
  0
VERTEX
  8
0
 10
0.234754
 20
4.94342
 30
0.0
 40
0.00393701
 41
0.00393701
  0
VERTEX
  8
0
 10
0.239692
 20
4.96793
 30
0.0
 40
0.00393701
 41
0.00393701
  0
VERTEX
  8
0
 10
0.253201
 20
4.98796
 30
0.0
 40
0.00393701
 41
0.00393701
  0
VERTEX
  8
0
 10
0.273221
 20
5.00146
 30
0.0
 40
0.00393701
 41
0.00393701
  0
VERTEX
  8
0
 10
0.297743
 20
5.0064
 30
0.0
 40
0.00393701
 41
0.00393701
  0
VERTEX
  8
0
 10
0.322211
 20
5.00146
 30
0.0
 40
0.00393701
 41
0.00393701
  0
VERTEX
  8
0
 10
0.342231
 20
4.98796
 30
0.0
 40
0.00393701
 41
0.00393701
  0
VERTEX
  8
0
 10
0.35574
 20
4.96793
 30
0.0
 40
0.00393701
 41
0.00393701
  0
VERTEX
  8
0
 10
0.360732
 20
4.94342
 30
0.0
 40
0.00393701
 41
0.00393701
  0
SEQEND
 8
0
  0
POLYLINE
  8
0
 62
     0
 66
     1
 10
0
 20
0
 30
0.0
 70
     1
 40
0.283465
 41
0.283465
  0
VERTEX
  8
0
 10
0.360732
 20
0.120551
 30
0.0
 40
0.00393701
 41
0.00393701
  0
VERTEX
  8
0
 10
0.35574
 20
0.0960829
 30
0.0
 40
0.00393701
 41
0.00393701
  0
VERTEX
  8
0
 10
0.342231
 20
0.0760633
 30
0.0
 40
0.00393701
 41
0.00393701
  0
VERTEX
  8
0
 10
0.322211
 20
0.0625543
 30
0.0
 40
0.00393701
 41
0.00393701
  0
VERTEX
  8
0
 10
0.297743
 20
0.0575629
 30
0.0
 40
0.00393701
 41
0.00393701
  0
VERTEX
  8
0
 10
0.273221
 20
0.0625543
 30
0.0
 40
0.00393701
 41
0.00393701
  0
VERTEX
  8
0
 10
0.253201
 20
0.0760633
 30
0.0
 40
0.00393701
 41
0.00393701
  0
VERTEX
  8
0
 10
0.239692
 20
0.0960829
 30
0.0
 40
0.00393701
 41
0.00393701
  0
VERTEX
  8
0
 10
0.234754
 20
0.120551
 30
0.0
 40
0.00393701
 41
0.00393701
  0
VERTEX
  8
0
 10
0.239692
 20
0.145074
 30
0.0
 40
0.00393701
 41
0.00393701
  0
VERTEX
  8
0
 10
0.253201
 20
0.165093
 30
0.0
 40
0.00393701
 41
0.00393701
  0
VERTEX
  8
0
 10
0.273221
 20
0.178603
 30
0.0
 40
0.00393701
 41
0.00393701
  0
VERTEX
  8
0
 10
0.297743
 20
0.183539
 30
0.0
 40
0.00393701
 41
0.00393701
  0
VERTEX
  8
0
 10
0.322211
 20
0.178603
 30
0.0
 40
0.00393701
 41
0.00393701
  0
VERTEX
  8
0
 10
0.342231
 20
0.165093
 30
0.0
 40
0.00393701
 41
0.00393701
  0
VERTEX
  8
0
 10
0.35574
 20
0.145074
 30
0.0
 40
0.00393701
 41
0.00393701
  0
VERTEX
  8
0
 10
0.360732
 20
0.120551
 30
0.0
 40
0.00393701
 41
0.00393701
  0
SEQEND
 8
0
  0
POLYLINE
  8
0
 62
     0
 66
     1
 10
0
 20
0
 30
0.0
 70
     1
 40
0.283465
 41
0.283465
  0
VERTEX
  8
0
 10
3.76074
 20
4.94342
 30
0.0
 40
0.00393701
 41
0.00393701
  0
VERTEX
  8
0
 10
3.75575
 20
4.91889
 30
0.0
 40
0.00393701
 41
0.00393701
  0
VERTEX
  8
0
 10
3.74224
 20
4.89887
 30
0.0
 40
0.00393701
 41
0.00393701
  0
VERTEX
  8
0
 10
3.72222
 20
4.88542
 30
0.0
 40
0.00393701
 41
0.00393701
  0
VERTEX
  8
0
 10
3.69775
 20
4.88043
 30
0.0
 40
0.00393701
 41
0.00393701
  0
VERTEX
  8
0
 10
3.67318
 20
4.88542
 30
0.0
 40
0.00393701
 41
0.00393701
  0
VERTEX
  8
0
 10
3.65315
 20
4.89887
 30
0.0
 40
0.00393701
 41
0.00393701
  0
VERTEX
  8
0
 10
3.63971
 20
4.91889
 30
0.0
 40
0.00393701
 41
0.00393701
  0
VERTEX
  8
0
 10
3.63476
 20
4.94342
 30
0.0
 40
0.00393701
 41
0.00393701
  0
VERTEX
  8
0
 10
3.63971
 20
4.96793
 30
0.0
 40
0.00393701
 41
0.00393701
  0
VERTEX
  8
0
 10
3.65315
 20
4.98796
 30
0.0
 40
0.00393701
 41
0.00393701
  0
VERTEX
  8
0
 10
3.67318
 20
5.00146
 30
0.0
 40
0.00393701
 41
0.00393701
  0
VERTEX
  8
0
 10
3.69775
 20
5.0064
 30
0.0
 40
0.00393701
 41
0.00393701
  0
VERTEX
  8
0
 10
3.72222
 20
5.00146
 30
0.0
 40
0.00393701
 41
0.00393701
  0
VERTEX
  8
0
 10
3.74224
 20
4.98796
 30
0.0
 40
0.00393701
 41
0.00393701
  0
VERTEX
  8
0
 10
3.75575
 20
4.96793
 30
0.0
 40
0.00393701
 41
0.00393701
  0
VERTEX
  8
0
 10
3.76074
 20
4.94342
 30
0.0
 40
0.00393701
 41
0.00393701
  0
SEQEND
 8
0
  0
POLYLINE
  8
0
 62
     0
 66
     1
 10
0
 20
0
 30
0.0
 70
     1
 40
0.283465
 41
0.283465
  0
VERTEX
  8
0
 10
3.76074
 20
0.120551
 30
0.0
 40
0.00393701
 41
0.00393701
  0
VERTEX
  8
0
 10
3.75575
 20
0.0960829
 30
0.0
 40
0.00393701
 41
0.00393701
  0
VERTEX
  8
0
 10
3.74224
 20
0.0760633
 30
0.0
 40
0.00393701
 41
0.00393701
  0
VERTEX
  8
0
 10
3.72222
 20
0.0625543
 30
0.0
 40
0.00393701
 41
0.00393701
  0
VERTEX
  8
0
 10
3.69775
 20
0.0575629
 30
0.0
 40
0.00393701
 41
0.00393701
  0
VERTEX
  8
0
 10
3.67318
 20
0.0625543
 30
0.0
 40
0.00393701
 41
0.00393701
  0
VERTEX
  8
0
 10
3.65315
 20
0.0760633
 30
0.0
 40
0.00393701
 41
0.00393701
  0
VERTEX
  8
0
 10
3.63971
 20
0.0960829
 30
0.0
 40
0.00393701
 41
0.00393701
  0
VERTEX
  8
0
 10
3.63476
 20
0.120551
 30
0.0
 40
0.00393701
 41
0.00393701
  0
VERTEX
  8
0
 10
3.63971
 20
0.145074
 30
0.0
 40
0.00393701
 41
0.00393701
  0
VERTEX
  8
0
 10
3.65315
 20
0.165093
 30
0.0
 40
0.00393701
 41
0.00393701
  0
VERTEX
  8
0
 10
3.67318
 20
0.178603
 30
0.0
 40
0.00393701
 41
0.00393701
  0
VERTEX
  8
0
 10
3.69775
 20
0.183539
 30
0.0
 40
0.00393701
 41
0.00393701
  0
VERTEX
  8
0
 10
3.72222
 20
0.178603
 30
0.0
 40
0.00393701
 41
0.00393701
  0
VERTEX
  8
0
 10
3.74224
 20
0.165093
 30
0.0
 40
0.00393701
 41
0.00393701
  0
VERTEX
  8
0
 10
3.75575
 20
0.145074
 30
0.0
 40
0.00393701
 41
0.00393701
  0
VERTEX
  8
0
 10
3.76074
 20
0.120551
 30
0.0
 40
0.00393701
 41
0.00393701
  0
SEQEND
 8
0
  0
POLYLINE
  8
0
 62
     0
 66
     1
 10
0
 20
0
 30
0.0
 70
     1
 40
0.283465
 41
0.283465
  0
VERTEX
  8
0
 10
1.30653
 20
3.82676
 30
0.0
 40
0.00393701
 41
0.00393701
  0
VERTEX
  8
0
 10
2.68658
 20
3.82676
 30
0.0
 40
0.00393701
 41
0.00393701
  0
VERTEX
  8
0
 10
2.68658
 20
3.13715
 30
0.0
 40
0.00393701
 41
0.00393701
  0
VERTEX
  8
0
 10
1.30653
 20
3.13715
 30
0.0
 40
0.00393701
 41
0.00393701
  0
VERTEX
  8
0
 10
1.30653
 20
3.82676
 30
0.0
 40
0.00393701
 41
0.00393701
  0
SEQEND
 8
0
  0
POLYLINE
  8
0
 62
     0
 66
     1
 10
0
 20
0
 30
0.0
 70
     1
 40
0.283465
 41
0.283465
  0
VERTEX
  8
0
 10
1.2672
 20
3.86615
 30
0.0
 40
0.00393701
 41
0.00393701
  0
VERTEX
  8
0
 10
2.72592
 20
3.86615
 30
0.0
 40
0.00393701
 41
0.00393701
  0
VERTEX
  8
0
 10
2.72592
 20
3.09782
 30
0.0
 40
0.00393701
 41
0.00393701
  0
VERTEX
  8
0
 10
1.2672
 20
3.09782
 30
0.0
 40
0.00393701
 41
0.00393701
  0
VERTEX
  8
0
 10
1.2672
 20
3.86615
 30
0.0
 40
0.00393701
 41
0.00393701
  0
SEQEND
 8
0
  0
POLYLINE
  8
0
 62
     0
 66
     1
 10
0
 20
0
 30
0.0
 70
     1
 40
0.283465
 41
0.283465
  0
VERTEX
  8
0
 10
0.634332
 20
3.48199
 30
0.0
 40
0.00393701
 41
0.00393701
  0
VERTEX
  8
0
 10
0.623481
 20
3.42839
 30
0.0
 40
0.00393701
 41
0.00393701
  0
VERTEX
  8
0
 10
0.593967
 20
3.38456
 30
0.0
 40
0.00393701
 41
0.00393701
  0
VERTEX
  8
0
 10
0.550185
 20
3.35504
 30
0.0
 40
0.00393701
 41
0.00393701
  0
VERTEX
  8
0
 10
0.496582
 20
3.34418
 30
0.0
 40
0.00393701
 41
0.00393701
  0
VERTEX
  8
0
 10
0.442925
 20
3.35504
 30
0.0
 40
0.00393701
 41
0.00393701
  0
VERTEX
  8
0
 10
0.399089
 20
3.38456
 30
0.0
 40
0.00393701
 41
0.00393701
  0
VERTEX
  8
0
 10
0.369575
 20
3.42839
 30
0.0
 40
0.00393701
 41
0.00393701
  0
VERTEX
  8
0
 10
0.358778
 20
3.48199
 30
0.0
 40
0.00393701
 41
0.00393701
  0
VERTEX
  8
0
 10
0.369575
 20
3.53564
 30
0.0
 40
0.00393701
 41
0.00393701
  0
VERTEX
  8
0
 10
0.399089
 20
3.57949
 30
0.0
 40
0.00393701
 41
0.00393701
  0
VERTEX
  8
0
 10
0.442925
 20
3.609
 30
0.0
 40
0.00393701
 41
0.00393701
  0
VERTEX
  8
0
 10
0.496582
 20
3.61979
 30
0.0
 40
0.00393701
 41
0.00393701
  0
VERTEX
  8
0
 10
0.550185
 20
3.609
 30
0.0
 40
0.00393701
 41
0.00393701
  0
VERTEX
  8
0
 10
0.593967
 20
3.57949
 30
0.0
 40
0.00393701
 41
0.00393701
  0
VERTEX
  8
0
 10
0.623481
 20
3.53564
 30
0.0
 40
0.00393701
 41
0.00393701
  0
VERTEX
  8
0
 10
0.634332
 20
3.48199
 30
0.0
 40
0.00393701
 41
0.00393701
  0
SEQEND
 8
0
  0
POLYLINE
  8
0
 62
     0
 66
     1
 10
0
 20
0
 30
0.0
 70
     1
 40
0.283465
 41
0.283465
  0
VERTEX
  8
0
 10
3.63433
 20
3.48199
 30
0.0
 40
0.00393701
 41
0.00393701
  0
VERTEX
  8
0
 10
3.62349
 20
3.42839
 30
0.0
 40
0.00393701
 41
0.00393701
  0
VERTEX
  8
0
 10
3.59397
 20
3.38456
 30
0.0
 40
0.00393701
 41
0.00393701
  0
VERTEX
  8
0
 10
3.55018
 20
3.35504
 30
0.0
 40
0.00393701
 41
0.00393701
  0
VERTEX
  8
0
 10
3.49658
 20
3.34418
 30
0.0
 40
0.00393701
 41
0.00393701
  0
VERTEX
  8
0
 10
3.44293
 20
3.35504
 30
0.0
 40
0.00393701
 41
0.00393701
  0
VERTEX
  8
0
 10
3.39908
 20
3.38456
 30
0.0
 40
0.00393701
 41
0.00393701
  0
VERTEX
  8
0
 10
3.36957
 20
3.42839
 30
0.0
 40
0.00393701
 41
0.00393701
  0
VERTEX
  8
0
 10
3.35878
 20
3.48199
 30
0.0
 40
0.00393701
 41
0.00393701
  0
VERTEX
  8
0
 10
3.36957
 20
3.53564
 30
0.0
 40
0.00393701
 41
0.00393701
  0
VERTEX
  8
0
 10
3.39908
 20
3.57949
 30
0.0
 40
0.00393701
 41
0.00393701
  0
VERTEX
  8
0
 10
3.44293
 20
3.609
 30
0.0
 40
0.00393701
 41
0.00393701
  0
VERTEX
  8
0
 10
3.49658
 20
3.61979
 30
0.0
 40
0.00393701
 41
0.00393701
  0
VERTEX
  8
0
 10
3.55018
 20
3.609
 30
0.0
 40
0.00393701
 41
0.00393701
  0
VERTEX
  8
0
 10
3.59397
 20
3.57949
 30
0.0
 40
0.00393701
 41
0.00393701
  0
VERTEX
  8
0
 10
3.62349
 20
3.53564
 30
0.0
 40
0.00393701
 41
0.00393701
  0
VERTEX
  8
0
 10
3.63433
 20
3.48199
 30
0.0
 40
0.00393701
 41
0.00393701
  0
SEQEND
 8
0
  0
POLYLINE
  8
0
 62
     0
 66
     1
 10
0
 20
0
 30
0.0
 70
     1
 40
0.283465
 41
0.283465
  0
VERTEX
  8
0
 10
0.634332
 20
2.48199
 30
0.0
 40
0.00393701
 41
0.00393701
  0
VERTEX
  8
0
 10
0.623481
 20
2.42839
 30
0.0
 40
0.00393701
 41
0.00393701
  0
VERTEX
  8
0
 10
0.593967
 20
2.38456
 30
0.0
 40
0.00393701
 41
0.00393701
  0
VERTEX
  8
0
 10
0.550185
 20
2.35504
 30
0.0
 40
0.00393701
 41
0.00393701
  0
VERTEX
  8
0
 10
0.496582
 20
2.34418
 30
0.0
 40
0.00393701
 41
0.00393701
  0
VERTEX
  8
0
 10
0.442925
 20
2.35504
 30
0.0
 40
0.00393701
 41
0.00393701
  0
VERTEX
  8
0
 10
0.399089
 20
2.38456
 30
0.0
 40
0.00393701
 41
0.00393701
  0
VERTEX
  8
0
 10
0.369575
 20
2.42839
 30
0.0
 40
0.00393701
 41
0.00393701
  0
VERTEX
  8
0
 10
0.358778
 20
2.48199
 30
0.0
 40
0.00393701
 41
0.00393701
  0
VERTEX
  8
0
 10
0.369575
 20
2.53564
 30
0.0
 40
0.00393701
 41
0.00393701
  0
VERTEX
  8
0
 10
0.399089
 20
2.57949
 30
0.0
 40
0.00393701
 41
0.00393701
  0
VERTEX
  8
0
 10
0.442925
 20
2.609
 30
0.0
 40
0.00393701
 41
0.00393701
  0
VERTEX
  8
0
 10
0.496582
 20
2.61979
 30
0.0
 40
0.00393701
 41
0.00393701
  0
VERTEX
  8
0
 10
0.550185
 20
2.609
 30
0.0
 40
0.00393701
 41
0.00393701
  0
VERTEX
  8
0
 10
0.593967
 20
2.57949
 30
0.0
 40
0.00393701
 41
0.00393701
  0
VERTEX
  8
0
 10
0.623481
 20
2.53564
 30
0.0
 40
0.00393701
 41
0.00393701
  0
VERTEX
  8
0
 10
0.634332
 20
2.48199
 30
0.0
 40
0.00393701
 41
0.00393701
  0
SEQEND
 8
0
  0
POLYLINE
  8
0
 62
     0
 66
     1
 10
0
 20
0
 30
0.0
 70
     1
 40
0.283465
 41
0.283465
  0
VERTEX
  8
0
 10
1.63433
 20
2.48199
 30
0.0
 40
0.00393701
 41
0.00393701
  0
VERTEX
  8
0
 10
1.62349
 20
2.42839
 30
0.0
 40
0.00393701
 41
0.00393701
  0
VERTEX
  8
0
 10
1.59397
 20
2.38456
 30
0.0
 40
0.00393701
 41
0.00393701
  0
VERTEX
  8
0
 10
1.55018
 20
2.35504
 30
0.0
 40
0.00393701
 41
0.00393701
  0
VERTEX
  8
0
 10
1.49658
 20
2.34418
 30
0.0
 40
0.00393701
 41
0.00393701
  0
VERTEX
  8
0
 10
1.44293
 20
2.35504
 30
0.0
 40
0.00393701
 41
0.00393701
  0
VERTEX
  8
0
 10
1.39908
 20
2.38456
 30
0.0
 40
0.00393701
 41
0.00393701
  0
VERTEX
  8
0
 10
1.36957
 20
2.42839
 30
0.0
 40
0.00393701
 41
0.00393701
  0
VERTEX
  8
0
 10
1.35878
 20
2.48199
 30
0.0
 40
0.00393701
 41
0.00393701
  0
VERTEX
  8
0
 10
1.36957
 20
2.53564
 30
0.0
 40
0.00393701
 41
0.00393701
  0
VERTEX
  8
0
 10
1.39908
 20
2.57949
 30
0.0
 40
0.00393701
 41
0.00393701
  0
VERTEX
  8
0
 10
1.44293
 20
2.609
 30
0.0
 40
0.00393701
 41
0.00393701
  0
VERTEX
  8
0
 10
1.49658
 20
2.61979
 30
0.0
 40
0.00393701
 41
0.00393701
  0
VERTEX
  8
0
 10
1.55018
 20
2.609
 30
0.0
 40
0.00393701
 41
0.00393701
  0
VERTEX
  8
0
 10
1.59397
 20
2.57949
 30
0.0
 40
0.00393701
 41
0.00393701
  0
VERTEX
  8
0
 10
1.62349
 20
2.53564
 30
0.0
 40
0.00393701
 41
0.00393701
  0
VERTEX
  8
0
 10
1.63433
 20
2.48199
 30
0.0
 40
0.00393701
 41
0.00393701
  0
SEQEND
 8
0
  0
POLYLINE
  8
0
 62
     0
 66
     1
 10
0
 20
0
 30
0.0
 70
     1
 40
0.283465
 41
0.283465
  0
VERTEX
  8
0
 10
2.63433
 20
2.48199
 30
0.0
 40
0.00393701
 41
0.00393701
  0
VERTEX
  8
0
 10
2.62349
 20
2.42839
 30
0.0
 40
0.00393701
 41
0.00393701
  0
VERTEX
  8
0
 10
2.59397
 20
2.38456
 30
0.0
 40
0.00393701
 41
0.00393701
  0
VERTEX
  8
0
 10
2.55018
 20
2.35504
 30
0.0
 40
0.00393701
 41
0.00393701
  0
VERTEX
  8
0
 10
2.49658
 20
2.34418
 30
0.0
 40
0.00393701
 41
0.00393701
  0
VERTEX
  8
0
 10
2.44293
 20
2.35504
 30
0.0
 40
0.00393701
 41
0.00393701
  0
VERTEX
  8
0
 10
2.39908
 20
2.38456
 30
0.0
 40
0.00393701
 41
0.00393701
  0
VERTEX
  8
0
 10
2.36957
 20
2.42839
 30
0.0
 40
0.00393701
 41
0.00393701
  0
VERTEX
  8
0
 10
2.35878
 20
2.48199
 30
0.0
 40
0.00393701
 41
0.00393701
  0
VERTEX
  8
0
 10
2.36957
 20
2.53564
 30
0.0
 40
0.00393701
 41
0.00393701
  0
VERTEX
  8
0
 10
2.39908
 20
2.57949
 30
0.0
 40
0.00393701
 41
0.00393701
  0
VERTEX
  8
0
 10
2.44293
 20
2.609
 30
0.0
 40
0.00393701
 41
0.00393701
  0
VERTEX
  8
0
 10
2.49658
 20
2.61979
 30
0.0
 40
0.00393701
 41
0.00393701
  0
VERTEX
  8
0
 10
2.55018
 20
2.609
 30
0.0
 40
0.00393701
 41
0.00393701
  0
VERTEX
  8
0
 10
2.59397
 20
2.57949
 30
0.0
 40
0.00393701
 41
0.00393701
  0
VERTEX
  8
0
 10
2.62349
 20
2.53564
 30
0.0
 40
0.00393701
 41
0.00393701
  0
VERTEX
  8
0
 10
2.63433
 20
2.48199
 30
0.0
 40
0.00393701
 41
0.00393701
  0
SEQEND
 8
0
  0
POLYLINE
  8
0
 62
     0
 66
     1
 10
0
 20
0
 30
0.0
 70
     1
 40
0.283465
 41
0.283465
  0
VERTEX
  8
0
 10
3.63433
 20
2.48199
 30
0.0
 40
0.00393701
 41
0.00393701
  0
VERTEX
  8
0
 10
3.62349
 20
2.42839
 30
0.0
 40
0.00393701
 41
0.00393701
  0
VERTEX
  8
0
 10
3.59397
 20
2.38456
 30
0.0
 40
0.00393701
 41
0.00393701
  0
VERTEX
  8
0
 10
3.55018
 20
2.35504
 30
0.0
 40
0.00393701
 41
0.00393701
  0
VERTEX
  8
0
 10
3.49658
 20
2.34418
 30
0.0
 40
0.00393701
 41
0.00393701
  0
VERTEX
  8
0
 10
3.44293
 20
2.35504
 30
0.0
 40
0.00393701
 41
0.00393701
  0
VERTEX
  8
0
 10
3.39908
 20
2.38456
 30
0.0
 40
0.00393701
 41
0.00393701
  0
VERTEX
  8
0
 10
3.36957
 20
2.42839
 30
0.0
 40
0.00393701
 41
0.00393701
  0
VERTEX
  8
0
 10
3.35878
 20
2.48199
 30
0.0
 40
0.00393701
 41
0.00393701
  0
VERTEX
  8
0
 10
3.36957
 20
2.53564
 30
0.0
 40
0.00393701
 41
0.00393701
  0
VERTEX
  8
0
 10
3.39908
 20
2.57949
 30
0.0
 40
0.00393701
 41
0.00393701
  0
VERTEX
  8
0
 10
3.44293
 20
2.609
 30
0.0
 40
0.00393701
 41
0.00393701
  0
VERTEX
  8
0
 10
3.49658
 20
2.61979
 30
0.0
 40
0.00393701
 41
0.00393701
  0
VERTEX
  8
0
 10
3.55018
 20
2.609
 30
0.0
 40
0.00393701
 41
0.00393701
  0
VERTEX
  8
0
 10
3.59397
 20
2.57949
 30
0.0
 40
0.00393701
 41
0.00393701
  0
VERTEX
  8
0
 10
3.62349
 20
2.53564
 30
0.0
 40
0.00393701
 41
0.00393701
  0
VERTEX
  8
0
 10
3.63433
 20
2.48199
 30
0.0
 40
0.00393701
 41
0.00393701
  0
SEQEND
 8
0
  0
POLYLINE
  8
0
 62
     0
 66
     1
 10
0
 20
0
 30
0.0
 70
     1
 40
0.283465
 41
0.283465
  0
VERTEX
  8
0
 10
0.30561
 20
1.78196
 30
0.0
 40
0.00393701
 41
0.00393701
  0
VERTEX
  8
0
 10
0.300944
 20
1.759
 30
0.0
 40
0.00393701
 41
0.00393701
  0
VERTEX
  8
0
 10
0.288303
 20
1.74024
 30
0.0
 40
0.00393701
 41
0.00393701
  0
VERTEX
  8
0
 10
0.269532
 20
1.7276
 30
0.0
 40
0.00393701
 41
0.00393701
  0
VERTEX
  8
0
 10
0.246582
 20
1.72293
 30
0.0
 40
0.00393701
 41
0.00393701
  0
VERTEX
  8
0
 10
0.223525
 20
1.7276
 30
0.0
 40
0.00393701
 41
0.00393701
  0
VERTEX
  8
0
 10
0.204753
 20
1.74024
 30
0.0
 40
0.00393701
 41
0.00393701
  0
VERTEX
  8
0
 10
0.192111
 20
1.759
 30
0.0
 40
0.00393701
 41
0.00393701
  0
VERTEX
  8
0
 10
0.1875
 20
1.78196
 30
0.0
 40
0.00393701
 41
0.00393701
  0
VERTEX
  8
0
 10
0.192111
 20
1.80501
 30
0.0
 40
0.00393701
 41
0.00393701
  0
VERTEX
  8
0
 10
0.204753
 20
1.82379
 30
0.0
 40
0.00393701
 41
0.00393701
  0
VERTEX
  8
0
 10
0.223525
 20
1.83643
 30
0.0
 40
0.00393701
 41
0.00393701
  0
VERTEX
  8
0
 10
0.246582
 20
1.84104
 30
0.0
 40
0.00393701
 41
0.00393701
  0
VERTEX
  8
0
 10
0.269532
 20
1.83643
 30
0.0
 40
0.00393701
 41
0.00393701
  0
VERTEX
  8
0
 10
0.288303
 20
1.82379
 30
0.0
 40
0.00393701
 41
0.00393701
  0
VERTEX
  8
0
 10
0.300944
 20
1.80501
 30
0.0
 40
0.00393701
 41
0.00393701
  0
VERTEX
  8
0
 10
0.30561
 20
1.78196
 30
0.0
 40
0.00393701
 41
0.00393701
  0
SEQEND
 8
0
  0
POLYLINE
  8
0
 62
     0
 66
     1
 10
0
 20
0
 30
0.0
 70
     1
 40
0.283465
 41
0.283465
  0
VERTEX
  8
0
 10
0.80561
 20
1.78196
 30
0.0
 40
0.00393701
 41
0.00393701
  0
VERTEX
  8
0
 10
0.800944
 20
1.759
 30
0.0
 40
0.00393701
 41
0.00393701
  0
VERTEX
  8
0
 10
0.788303
 20
1.74024
 30
0.0
 40
0.00393701
 41
0.00393701
  0
VERTEX
  8
0
 10
0.769532
 20
1.7276
 30
0.0
 40
0.00393701
 41
0.00393701
  0
VERTEX
  8
0
 10
0.746582
 20
1.72293
 30
0.0
 40
0.00393701
 41
0.00393701
  0
VERTEX
  8
0
 10
0.723525
 20
1.7276
 30
0.0
 40
0.00393701
 41
0.00393701
  0
VERTEX
  8
0
 10
0.704753
 20
1.74024
 30
0.0
 40
0.00393701
 41
0.00393701
  0
VERTEX
  8
0
 10
0.692111
 20
1.759
 30
0.0
 40
0.00393701
 41
0.00393701
  0
VERTEX
  8
0
 10
0.6875
 20
1.78196
 30
0.0
 40
0.00393701
 41
0.00393701
  0
VERTEX
  8
0
 10
0.692111
 20
1.80501
 30
0.0
 40
0.00393701
 41
0.00393701
  0
VERTEX
  8
0
 10
0.704753
 20
1.82379
 30
0.0
 40
0.00393701
 41
0.00393701
  0
VERTEX
  8
0
 10
0.723525
 20
1.83643
 30
0.0
 40
0.00393701
 41
0.00393701
  0
VERTEX
  8
0
 10
0.746582
 20
1.84104
 30
0.0
 40
0.00393701
 41
0.00393701
  0
VERTEX
  8
0
 10
0.769532
 20
1.83643
 30
0.0
 40
0.00393701
 41
0.00393701
  0
VERTEX
  8
0
 10
0.788303
 20
1.82379
 30
0.0
 40
0.00393701
 41
0.00393701
  0
VERTEX
  8
0
 10
0.800944
 20
1.80501
 30
0.0
 40
0.00393701
 41
0.00393701
  0
VERTEX
  8
0
 10
0.80561
 20
1.78196
 30
0.0
 40
0.00393701
 41
0.00393701
  0
SEQEND
 8
0
  0
POLYLINE
  8
0
 62
     0
 66
     1
 10
0
 20
0
 30
0.0
 70
     1
 40
0.283465
 41
0.283465
  0
VERTEX
  8
0
 10
1.30561
 20
1.78196
 30
0.0
 40
0.00393701
 41
0.00393701
  0
VERTEX
  8
0
 10
1.30094
 20
1.759
 30
0.0
 40
0.00393701
 41
0.00393701
  0
VERTEX
  8
0
 10
1.2883
 20
1.74024
 30
0.0
 40
0.00393701
 41
0.00393701
  0
VERTEX
  8
0
 10
1.26953
 20
1.7276
 30
0.0
 40
0.00393701
 41
0.00393701
  0
VERTEX
  8
0
 10
1.24658
 20
1.72293
 30
0.0
 40
0.00393701
 41
0.00393701
  0
VERTEX
  8
0
 10
1.22353
 20
1.7276
 30
0.0
 40
0.00393701
 41
0.00393701
  0
VERTEX
  8
0
 10
1.20475
 20
1.74024
 30
0.0
 40
0.00393701
 41
0.00393701
  0
VERTEX
  8
0
 10
1.19211
 20
1.759
 30
0.0
 40
0.00393701
 41
0.00393701
  0
VERTEX
  8
0
 10
1.1875
 20
1.78196
 30
0.0
 40
0.00393701
 41
0.00393701
  0
VERTEX
  8
0
 10
1.19211
 20
1.80501
 30
0.0
 40
0.00393701
 41
0.00393701
  0
VERTEX
  8
0
 10
1.20475
 20
1.82379
 30
0.0
 40
0.00393701
 41
0.00393701
  0
VERTEX
  8
0
 10
1.22353
 20
1.83643
 30
0.0
 40
0.00393701
 41
0.00393701
  0
VERTEX
  8
0
 10
1.24658
 20
1.84104
 30
0.0
 40
0.00393701
 41
0.00393701
  0
VERTEX
  8
0
 10
1.26953
 20
1.83643
 30
0.0
 40
0.00393701
 41
0.00393701
  0
VERTEX
  8
0
 10
1.2883
 20
1.82379
 30
0.0
 40
0.00393701
 41
0.00393701
  0
VERTEX
  8
0
 10
1.30094
 20
1.80501
 30
0.0
 40
0.00393701
 41
0.00393701
  0
VERTEX
  8
0
 10
1.30561
 20
1.78196
 30
0.0
 40
0.00393701
 41
0.00393701
  0
SEQEND
 8
0
  0
POLYLINE
  8
0
 62
     0
 66
     1
 10
0
 20
0
 30
0.0
 70
     1
 40
0.283465
 41
0.283465
  0
VERTEX
  8
0
 10
1.80561
 20
1.78196
 30
0.0
 40
0.00393701
 41
0.00393701
  0
VERTEX
  8
0
 10
1.80094
 20
1.759
 30
0.0
 40
0.00393701
 41
0.00393701
  0
VERTEX
  8
0
 10
1.78831
 20
1.74024
 30
0.0
 40
0.00393701
 41
0.00393701
  0
VERTEX
  8
0
 10
1.76953
 20
1.7276
 30
0.0
 40
0.00393701
 41
0.00393701
  0
VERTEX
  8
0
 10
1.74658
 20
1.72293
 30
0.0
 40
0.00393701
 41
0.00393701
  0
VERTEX
  8
0
 10
1.72353
 20
1.7276
 30
0.0
 40
0.00393701
 41
0.00393701
  0
VERTEX
  8
0
 10
1.70475
 20
1.74024
 30
0.0
 40
0.00393701
 41
0.00393701
  0
VERTEX
  8
0
 10
1.69211
 20
1.759
 30
0.0
 40
0.00393701
 41
0.00393701
  0
VERTEX
  8
0
 10
1.6875
 20
1.78196
 30
0.0
 40
0.00393701
 41
0.00393701
  0
VERTEX
  8
0
 10
1.69211
 20
1.80501
 30
0.0
 40
0.00393701
 41
0.00393701
  0
VERTEX
  8
0
 10
1.70475
 20
1.82379
 30
0.0
 40
0.00393701
 41
0.00393701
  0
VERTEX
  8
0
 10
1.72353
 20
1.83643
 30
0.0
 40
0.00393701
 41
0.00393701
  0
VERTEX
  8
0
 10
1.74658
 20
1.84104
 30
0.0
 40
0.00393701
 41
0.00393701
  0
VERTEX
  8
0
 10
1.76953
 20
1.83643
 30
0.0
 40
0.00393701
 41
0.00393701
  0
VERTEX
  8
0
 10
1.78831
 20
1.82379
 30
0.0
 40
0.00393701
 41
0.00393701
  0
VERTEX
  8
0
 10
1.80094
 20
1.80501
 30
0.0
 40
0.00393701
 41
0.00393701
  0
VERTEX
  8
0
 10
1.80561
 20
1.78196
 30
0.0
 40
0.00393701
 41
0.00393701
  0
SEQEND
 8
0
  0
POLYLINE
  8
0
 62
     0
 66
     1
 10
0
 20
0
 30
0.0
 70
     1
 40
0.283465
 41
0.283465
  0
VERTEX
  8
0
 10
2.30561
 20
1.78196
 30
0.0
 40
0.00393701
 41
0.00393701
  0
VERTEX
  8
0
 10
2.30094
 20
1.759
 30
0.0
 40
0.00393701
 41
0.00393701
  0
VERTEX
  8
0
 10
2.28831
 20
1.74024
 30
0.0
 40
0.00393701
 41
0.00393701
  0
VERTEX
  8
0
 10
2.26953
 20
1.7276
 30
0.0
 40
0.00393701
 41
0.00393701
  0
VERTEX
  8
0
 10
2.24658
 20
1.72293
 30
0.0
 40
0.00393701
 41
0.00393701
  0
VERTEX
  8
0
 10
2.22353
 20
1.7276
 30
0.0
 40
0.00393701
 41
0.00393701
  0
VERTEX
  8
0
 10
2.20475
 20
1.74024
 30
0.0
 40
0.00393701
 41
0.00393701
  0
VERTEX
  8
0
 10
2.19211
 20
1.759
 30
0.0
 40
0.00393701
 41
0.00393701
  0
VERTEX
  8
0
 10
2.1875
 20
1.78196
 30
0.0
 40
0.00393701
 41
0.00393701
  0
VERTEX
  8
0
 10
2.19211
 20
1.80501
 30
0.0
 40
0.00393701
 41
0.00393701
  0
VERTEX
  8
0
 10
2.20475
 20
1.82379
 30
0.0
 40
0.00393701
 41
0.00393701
  0
VERTEX
  8
0
 10
2.22353
 20
1.83643
 30
0.0
 40
0.00393701
 41
0.00393701
  0
VERTEX
  8
0
 10
2.24658
 20
1.84104
 30
0.0
 40
0.00393701
 41
0.00393701
  0
VERTEX
  8
0
 10
2.26953
 20
1.83643
 30
0.0
 40
0.00393701
 41
0.00393701
  0
VERTEX
  8
0
 10
2.28831
 20
1.82379
 30
0.0
 40
0.00393701
 41
0.00393701
  0
VERTEX
  8
0
 10
2.30094
 20
1.80501
 30
0.0
 40
0.00393701
 41
0.00393701
  0
VERTEX
  8
0
 10
2.30561
 20
1.78196
 30
0.0
 40
0.00393701
 41
0.00393701
  0
SEQEND
 8
0
  0
POLYLINE
  8
0
 62
     0
 66
     1
 10
0
 20
0
 30
0.0
 70
     1
 40
0.283465
 41
0.283465
  0
VERTEX
  8
0
 10
2.80561
 20
1.78196
 30
0.0
 40
0.00393701
 41
0.00393701
  0
VERTEX
  8
0
 10
2.80094
 20
1.759
 30
0.0
 40
0.00393701
 41
0.00393701
  0
VERTEX
  8
0
 10
2.78831
 20
1.74024
 30
0.0
 40
0.00393701
 41
0.00393701
  0
VERTEX
  8
0
 10
2.76953
 20
1.7276
 30
0.0
 40
0.00393701
 41
0.00393701
  0
VERTEX
  8
0
 10
2.74658
 20
1.72293
 30
0.0
 40
0.00393701
 41
0.00393701
  0
VERTEX
  8
0
 10
2.72353
 20
1.7276
 30
0.0
 40
0.00393701
 41
0.00393701
  0
VERTEX
  8
0
 10
2.70475
 20
1.74024
 30
0.0
 40
0.00393701
 41
0.00393701
  0
VERTEX
  8
0
 10
2.69211
 20
1.759
 30
0.0
 40
0.00393701
 41
0.00393701
  0
VERTEX
  8
0
 10
2.6875
 20
1.78196
 30
0.0
 40
0.00393701
 41
0.00393701
  0
VERTEX
  8
0
 10
2.69211
 20
1.80501
 30
0.0
 40
0.00393701
 41
0.00393701
  0
VERTEX
  8
0
 10
2.70475
 20
1.82379
 30
0.0
 40
0.00393701
 41
0.00393701
  0
VERTEX
  8
0
 10
2.72353
 20
1.83643
 30
0.0
 40
0.00393701
 41
0.00393701
  0
VERTEX
  8
0
 10
2.74658
 20
1.84104
 30
0.0
 40
0.00393701
 41
0.00393701
  0
VERTEX
  8
0
 10
2.76953
 20
1.83643
 30
0.0
 40
0.00393701
 41
0.00393701
  0
VERTEX
  8
0
 10
2.78831
 20
1.82379
 30
0.0
 40
0.00393701
 41
0.00393701
  0
VERTEX
  8
0
 10
2.80094
 20
1.80501
 30
0.0
 40
0.00393701
 41
0.00393701
  0
VERTEX
  8
0
 10
2.80561
 20
1.78196
 30
0.0
 40
0.00393701
 41
0.00393701
  0
SEQEND
 8
0
  0
POLYLINE
  8
0
 62
     0
 66
     1
 10
0
 20
0
 30
0.0
 70
     1
 40
0.283465
 41
0.283465
  0
VERTEX
  8
0
 10
3.30561
 20
1.78196
 30
0.0
 40
0.00393701
 41
0.00393701
  0
VERTEX
  8
0
 10
3.30094
 20
1.759
 30
0.0
 40
0.00393701
 41
0.00393701
  0
VERTEX
  8
0
 10
3.28831
 20
1.74024
 30
0.0
 40
0.00393701
 41
0.00393701
  0
VERTEX
  8
0
 10
3.26953
 20
1.7276
 30
0.0
 40
0.00393701
 41
0.00393701
  0
VERTEX
  8
0
 10
3.24658
 20
1.72293
 30
0.0
 40
0.00393701
 41
0.00393701
  0
VERTEX
  8
0
 10
3.22353
 20
1.7276
 30
0.0
 40
0.00393701
 41
0.00393701
  0
VERTEX
  8
0
 10
3.20475
 20
1.74024
 30
0.0
 40
0.00393701
 41
0.00393701
  0
VERTEX
  8
0
 10
3.19211
 20
1.759
 30
0.0
 40
0.00393701
 41
0.00393701
  0
VERTEX
  8
0
 10
3.1875
 20
1.78196
 30
0.0
 40
0.00393701
 41
0.00393701
  0
VERTEX
  8
0
 10
3.19211
 20
1.80501
 30
0.0
 40
0.00393701
 41
0.00393701
  0
VERTEX
  8
0
 10
3.20475
 20
1.82379
 30
0.0
 40
0.00393701
 41
0.00393701
  0
VERTEX
  8
0
 10
3.22353
 20
1.83643
 30
0.0
 40
0.00393701
 41
0.00393701
  0
VERTEX
  8
0
 10
3.24658
 20
1.84104
 30
0.0
 40
0.00393701
 41
0.00393701
  0
VERTEX
  8
0
 10
3.26953
 20
1.83643
 30
0.0
 40
0.00393701
 41
0.00393701
  0
VERTEX
  8
0
 10
3.28831
 20
1.82379
 30
0.0
 40
0.00393701
 41
0.00393701
  0
VERTEX
  8
0
 10
3.30094
 20
1.80501
 30
0.0
 40
0.00393701
 41
0.00393701
  0
VERTEX
  8
0
 10
3.30561
 20
1.78196
 30
0.0
 40
0.00393701
 41
0.00393701
  0
SEQEND
 8
0
  0
POLYLINE
  8
0
 62
     0
 66
     1
 10
0
 20
0
 30
0.0
 70
     1
 40
0.283465
 41
0.283465
  0
VERTEX
  8
0
 10
3.80561
 20
1.78196
 30
0.0
 40
0.00393701
 41
0.00393701
  0
VERTEX
  8
0
 10
3.80094
 20
1.759
 30
0.0
 40
0.00393701
 41
0.00393701
  0
VERTEX
  8
0
 10
3.78831
 20
1.74024
 30
0.0
 40
0.00393701
 41
0.00393701
  0
VERTEX
  8
0
 10
3.76953
 20
1.7276
 30
0.0
 40
0.00393701
 41
0.00393701
  0
VERTEX
  8
0
 10
3.74658
 20
1.72293
 30
0.0
 40
0.00393701
 41
0.00393701
  0
VERTEX
  8
0
 10
3.72353
 20
1.7276
 30
0.0
 40
0.00393701
 41
0.00393701
  0
VERTEX
  8
0
 10
3.70475
 20
1.74024
 30
0.0
 40
0.00393701
 41
0.00393701
  0
VERTEX
  8
0
 10
3.69211
 20
1.759
 30
0.0
 40
0.00393701
 41
0.00393701
  0
VERTEX
  8
0
 10
3.6875
 20
1.78196
 30
0.0
 40
0.00393701
 41
0.00393701
  0
VERTEX
  8
0
 10
3.69211
 20
1.80501
 30
0.0
 40
0.00393701
 41
0.00393701
  0
VERTEX
  8
0
 10
3.70475
 20
1.82379
 30
0.0
 40
0.00393701
 41
0.00393701
  0
VERTEX
  8
0
 10
3.72353
 20
1.83643
 30
0.0
 40
0.00393701
 41
0.00393701
  0
VERTEX
  8
0
 10
3.74658
 20
1.84104
 30
0.0
 40
0.00393701
 41
0.00393701
  0
VERTEX
  8
0
 10
3.76953
 20
1.83643
 30
0.0
 40
0.00393701
 41
0.00393701
  0
VERTEX
  8
0
 10
3.78831
 20
1.82379
 30
0.0
 40
0.00393701
 41
0.00393701
  0
VERTEX
  8
0
 10
3.80094
 20
1.80501
 30
0.0
 40
0.00393701
 41
0.00393701
  0
VERTEX
  8
0
 10
3.80561
 20
1.78196
 30
0.0
 40
0.00393701
 41
0.00393701
  0
SEQEND
 8
0
  0
POLYLINE
  8
0
 62
     0
 66
     1
 10
0
 20
0
 30
0.0
 70
     1
 40
0.283465
 41
0.283465
  0
VERTEX
  8
0
 10
0.30561
 20
0.581976
 30
0.0
 40
0.00393701
 41
0.00393701
  0
VERTEX
  8
0
 10
0.300944
 20
0.559028
 30
0.0
 40
0.00393701
 41
0.00393701
  0
VERTEX
  8
0
 10
0.288303
 20
0.540256
 30
0.0
 40
0.00393701
 41
0.00393701
  0
VERTEX
  8
0
 10
0.269532
 20
0.527561
 30
0.0
 40
0.00393701
 41
0.00393701
  0
VERTEX
  8
0
 10
0.246582
 20
0.522894
 30
0.0
 40
0.00393701
 41
0.00393701
  0
VERTEX
  8
0
 10
0.223525
 20
0.527561
 30
0.0
 40
0.00393701
 41
0.00393701
  0
VERTEX
  8
0
 10
0.204753
 20
0.540256
 30
0.0
 40
0.00393701
 41
0.00393701
  0
VERTEX
  8
0
 10
0.192111
 20
0.559028
 30
0.0
 40
0.00393701
 41
0.00393701
  0
VERTEX
  8
0
 10
0.1875
 20
0.581976
 30
0.0
 40
0.00393701
 41
0.00393701
  0
VERTEX
  8
0
 10
0.192111
 20
0.604981
 30
0.0
 40
0.00393701
 41
0.00393701
  0
VERTEX
  8
0
 10
0.204753
 20
0.623753
 30
0.0
 40
0.00393701
 41
0.00393701
  0
VERTEX
  8
0
 10
0.223525
 20
0.636393
 30
0.0
 40
0.00393701
 41
0.00393701
  0
VERTEX
  8
0
 10
0.246582
 20
0.641004
 30
0.0
 40
0.00393701
 41
0.00393701
  0
VERTEX
  8
0
 10
0.269532
 20
0.636393
 30
0.0
 40
0.00393701
 41
0.00393701
  0
VERTEX
  8
0
 10
0.288303
 20
0.623753
 30
0.0
 40
0.00393701
 41
0.00393701
  0
VERTEX
  8
0
 10
0.300944
 20
0.604981
 30
0.0
 40
0.00393701
 41
0.00393701
  0
VERTEX
  8
0
 10
0.30561
 20
0.581976
 30
0.0
 40
0.00393701
 41
0.00393701
  0
SEQEND
 8
0
  0
POLYLINE
  8
0
 62
     0
 66
     1
 10
0
 20
0
 30
0.0
 70
     1
 40
0.283465
 41
0.283465
  0
VERTEX
  8
0
 10
0.80561
 20
0.581976
 30
0.0
 40
0.00393701
 41
0.00393701
  0
VERTEX
  8
0
 10
0.800944
 20
0.559028
 30
0.0
 40
0.00393701
 41
0.00393701
  0
VERTEX
  8
0
 10
0.788303
 20
0.540256
 30
0.0
 40
0.00393701
 41
0.00393701
  0
VERTEX
  8
0
 10
0.769532
 20
0.527561
 30
0.0
 40
0.00393701
 41
0.00393701
  0
VERTEX
  8
0
 10
0.746582
 20
0.522894
 30
0.0
 40
0.00393701
 41
0.00393701
  0
VERTEX
  8
0
 10
0.723525
 20
0.527561
 30
0.0
 40
0.00393701
 41
0.00393701
  0
VERTEX
  8
0
 10
0.704753
 20
0.540256
 30
0.0
 40
0.00393701
 41
0.00393701
  0
VERTEX
  8
0
 10
0.692111
 20
0.559028
 30
0.0
 40
0.00393701
 41
0.00393701
  0
VERTEX
  8
0
 10
0.6875
 20
0.581976
 30
0.0
 40
0.00393701
 41
0.00393701
  0
VERTEX
  8
0
 10
0.692111
 20
0.604981
 30
0.0
 40
0.00393701
 41
0.00393701
  0
VERTEX
  8
0
 10
0.704753
 20
0.623753
 30
0.0
 40
0.00393701
 41
0.00393701
  0
VERTEX
  8
0
 10
0.723525
 20
0.636393
 30
0.0
 40
0.00393701
 41
0.00393701
  0
VERTEX
  8
0
 10
0.746582
 20
0.641004
 30
0.0
 40
0.00393701
 41
0.00393701
  0
VERTEX
  8
0
 10
0.769532
 20
0.636393
 30
0.0
 40
0.00393701
 41
0.00393701
  0
VERTEX
  8
0
 10
0.788303
 20
0.623753
 30
0.0
 40
0.00393701
 41
0.00393701
  0
VERTEX
  8
0
 10
0.800944
 20
0.604981
 30
0.0
 40
0.00393701
 41
0.00393701
  0
VERTEX
  8
0
 10
0.80561
 20
0.581976
 30
0.0
 40
0.00393701
 41
0.00393701
  0
SEQEND
 8
0
  0
POLYLINE
  8
0
 62
     0
 66
     1
 10
0
 20
0
 30
0.0
 70
     1
 40
0.283465
 41
0.283465
  0
VERTEX
  8
0
 10
1.30561
 20
0.581976
 30
0.0
 40
0.00393701
 41
0.00393701
  0
VERTEX
  8
0
 10
1.30094
 20
0.559028
 30
0.0
 40
0.00393701
 41
0.00393701
  0
VERTEX
  8
0
 10
1.2883
 20
0.540256
 30
0.0
 40
0.00393701
 41
0.00393701
  0
VERTEX
  8
0
 10
1.26953
 20
0.527561
 30
0.0
 40
0.00393701
 41
0.00393701
  0
VERTEX
  8
0
 10
1.24658
 20
0.522894
 30
0.0
 40
0.00393701
 41
0.00393701
  0
VERTEX
  8
0
 10
1.22353
 20
0.527561
 30
0.0
 40
0.00393701
 41
0.00393701
  0
VERTEX
  8
0
 10
1.20475
 20
0.540256
 30
0.0
 40
0.00393701
 41
0.00393701
  0
VERTEX
  8
0
 10
1.19211
 20
0.559028
 30
0.0
 40
0.00393701
 41
0.00393701
  0
VERTEX
  8
0
 10
1.1875
 20
0.581976
 30
0.0
 40
0.00393701
 41
0.00393701
  0
VERTEX
  8
0
 10
1.19211
 20
0.604981
 30
0.0
 40
0.00393701
 41
0.00393701
  0
VERTEX
  8
0
 10
1.20475
 20
0.623753
 30
0.0
 40
0.00393701
 41
0.00393701
  0
VERTEX
  8
0
 10
1.22353
 20
0.636393
 30
0.0
 40
0.00393701
 41
0.00393701
  0
VERTEX
  8
0
 10
1.24658
 20
0.641004
 30
0.0
 40
0.00393701
 41
0.00393701
  0
VERTEX
  8
0
 10
1.26953
 20
0.636393
 30
0.0
 40
0.00393701
 41
0.00393701
  0
VERTEX
  8
0
 10
1.2883
 20
0.623753
 30
0.0
 40
0.00393701
 41
0.00393701
  0
VERTEX
  8
0
 10
1.30094
 20
0.604981
 30
0.0
 40
0.00393701
 41
0.00393701
  0
VERTEX
  8
0
 10
1.30561
 20
0.581976
 30
0.0
 40
0.00393701
 41
0.00393701
  0
SEQEND
 8
0
  0
POLYLINE
  8
0
 62
     0
 66
     1
 10
0
 20
0
 30
0.0
 70
     1
 40
0.283465
 41
0.283465
  0
VERTEX
  8
0
 10
1.80561
 20
0.581976
 30
0.0
 40
0.00393701
 41
0.00393701
  0
VERTEX
  8
0
 10
1.80094
 20
0.559028
 30
0.0
 40
0.00393701
 41
0.00393701
  0
VERTEX
  8
0
 10
1.78831
 20
0.540256
 30
0.0
 40
0.00393701
 41
0.00393701
  0
VERTEX
  8
0
 10
1.76953
 20
0.527561
 30
0.0
 40
0.00393701
 41
0.00393701
  0
VERTEX
  8
0
 10
1.74658
 20
0.522894
 30
0.0
 40
0.00393701
 41
0.00393701
  0
VERTEX
  8
0
 10
1.72353
 20
0.527561
 30
0.0
 40
0.00393701
 41
0.00393701
  0
VERTEX
  8
0
 10
1.70475
 20
0.540256
 30
0.0
 40
0.00393701
 41
0.00393701
  0
VERTEX
  8
0
 10
1.69211
 20
0.559028
 30
0.0
 40
0.00393701
 41
0.00393701
  0
VERTEX
  8
0
 10
1.6875
 20
0.581976
 30
0.0
 40
0.00393701
 41
0.00393701
  0
VERTEX
  8
0
 10
1.69211
 20
0.604981
 30
0.0
 40
0.00393701
 41
0.00393701
  0
VERTEX
  8
0
 10
1.70475
 20
0.623753
 30
0.0
 40
0.00393701
 41
0.00393701
  0
VERTEX
  8
0
 10
1.72353
 20
0.636393
 30
0.0
 40
0.00393701
 41
0.00393701
  0
VERTEX
  8
0
 10
1.74658
 20
0.641004
 30
0.0
 40
0.00393701
 41
0.00393701
  0
VERTEX
  8
0
 10
1.76953
 20
0.636393
 30
0.0
 40
0.00393701
 41
0.00393701
  0
VERTEX
  8
0
 10
1.78831
 20
0.623753
 30
0.0
 40
0.00393701
 41
0.00393701
  0
VERTEX
  8
0
 10
1.80094
 20
0.604981
 30
0.0
 40
0.00393701
 41
0.00393701
  0
VERTEX
  8
0
 10
1.80561
 20
0.581976
 30
0.0
 40
0.00393701
 41
0.00393701
  0
SEQEND
 8
0
  0
POLYLINE
  8
0
 62
     0
 66
     1
 10
0
 20
0
 30
0.0
 70
     1
 40
0.283465
 41
0.283465
  0
VERTEX
  8
0
 10
2.30561
 20
0.581976
 30
0.0
 40
0.00393701
 41
0.00393701
  0
VERTEX
  8
0
 10
2.30094
 20
0.559028
 30
0.0
 40
0.00393701
 41
0.00393701
  0
VERTEX
  8
0
 10
2.28831
 20
0.540256
 30
0.0
 40
0.00393701
 41
0.00393701
  0
VERTEX
  8
0
 10
2.26953
 20
0.527561
 30
0.0
 40
0.00393701
 41
0.00393701
  0
VERTEX
  8
0
 10
2.24658
 20
0.522894
 30
0.0
 40
0.00393701
 41
0.00393701
  0
VERTEX
  8
0
 10
2.22353
 20
0.527561
 30
0.0
 40
0.00393701
 41
0.00393701
  0
VERTEX
  8
0
 10
2.20475
 20
0.540256
 30
0.0
 40
0.00393701
 41
0.00393701
  0
VERTEX
  8
0
 10
2.19211
 20
0.559028
 30
0.0
 40
0.00393701
 41
0.00393701
  0
VERTEX
  8
0
 10
2.1875
 20
0.581976
 30
0.0
 40
0.00393701
 41
0.00393701
  0
VERTEX
  8
0
 10
2.19211
 20
0.604981
 30
0.0
 40
0.00393701
 41
0.00393701
  0
VERTEX
  8
0
 10
2.20475
 20
0.623753
 30
0.0
 40
0.00393701
 41
0.00393701
  0
VERTEX
  8
0
 10
2.22353
 20
0.636393
 30
0.0
 40
0.00393701
 41
0.00393701
  0
VERTEX
  8
0
 10
2.24658
 20
0.641004
 30
0.0
 40
0.00393701
 41
0.00393701
  0
VERTEX
  8
0
 10
2.26953
 20
0.636393
 30
0.0
 40
0.00393701
 41
0.00393701
  0
VERTEX
  8
0
 10
2.28831
 20
0.623753
 30
0.0
 40
0.00393701
 41
0.00393701
  0
VERTEX
  8
0
 10
2.30094
 20
0.604981
 30
0.0
 40
0.00393701
 41
0.00393701
  0
VERTEX
  8
0
 10
2.30561
 20
0.581976
 30
0.0
 40
0.00393701
 41
0.00393701
  0
SEQEND
 8
0
  0
POLYLINE
  8
0
 62
     0
 66
     1
 10
0
 20
0
 30
0.0
 70
     1
 40
0.283465
 41
0.283465
  0
VERTEX
  8
0
 10
2.80561
 20
0.581976
 30
0.0
 40
0.00393701
 41
0.00393701
  0
VERTEX
  8
0
 10
2.80094
 20
0.559028
 30
0.0
 40
0.00393701
 41
0.00393701
  0
VERTEX
  8
0
 10
2.78831
 20
0.540256
 30
0.0
 40
0.00393701
 41
0.00393701
  0
VERTEX
  8
0
 10
2.76953
 20
0.527561
 30
0.0
 40
0.00393701
 41
0.00393701
  0
VERTEX
  8
0
 10
2.74658
 20
0.522894
 30
0.0
 40
0.00393701
 41
0.00393701
  0
VERTEX
  8
0
 10
2.72353
 20
0.527561
 30
0.0
 40
0.00393701
 41
0.00393701
  0
VERTEX
  8
0
 10
2.70475
 20
0.540256
 30
0.0
 40
0.00393701
 41
0.00393701
  0
VERTEX
  8
0
 10
2.69211
 20
0.559028
 30
0.0
 40
0.00393701
 41
0.00393701
  0
VERTEX
  8
0
 10
2.6875
 20
0.581976
 30
0.0
 40
0.00393701
 41
0.00393701
  0
VERTEX
  8
0
 10
2.69211
 20
0.604981
 30
0.0
 40
0.00393701
 41
0.00393701
  0
VERTEX
  8
0
 10
2.70475
 20
0.623753
 30
0.0
 40
0.00393701
 41
0.00393701
  0
VERTEX
  8
0
 10
2.72353
 20
0.636393
 30
0.0
 40
0.00393701
 41
0.00393701
  0
VERTEX
  8
0
 10
2.74658
 20
0.641004
 30
0.0
 40
0.00393701
 41
0.00393701
  0
VERTEX
  8
0
 10
2.76953
 20
0.636393
 30
0.0
 40
0.00393701
 41
0.00393701
  0
VERTEX
  8
0
 10
2.78831
 20
0.623753
 30
0.0
 40
0.00393701
 41
0.00393701
  0
VERTEX
  8
0
 10
2.80094
 20
0.604981
 30
0.0
 40
0.00393701
 41
0.00393701
  0
VERTEX
  8
0
 10
2.80561
 20
0.581976
 30
0.0
 40
0.00393701
 41
0.00393701
  0
SEQEND
 8
0
  0
POLYLINE
  8
0
 62
     0
 66
     1
 10
0
 20
0
 30
0.0
 70
     1
 40
0.283465
 41
0.283465
  0
VERTEX
  8
0
 10
3.30561
 20
0.581976
 30
0.0
 40
0.00393701
 41
0.00393701
  0
VERTEX
  8
0
 10
3.30094
 20
0.559028
 30
0.0
 40
0.00393701
 41
0.00393701
  0
VERTEX
  8
0
 10
3.28831
 20
0.540256
 30
0.0
 40
0.00393701
 41
0.00393701
  0
VERTEX
  8
0
 10
3.26953
 20
0.527561
 30
0.0
 40
0.00393701
 41
0.00393701
  0
VERTEX
  8
0
 10
3.24658
 20
0.522894
 30
0.0
 40
0.00393701
 41
0.00393701
  0
VERTEX
  8
0
 10
3.22353
 20
0.527561
 30
0.0
 40
0.00393701
 41
0.00393701
  0
VERTEX
  8
0
 10
3.20475
 20
0.540256
 30
0.0
 40
0.00393701
 41
0.00393701
  0
VERTEX
  8
0
 10
3.19211
 20
0.559028
 30
0.0
 40
0.00393701
 41
0.00393701
  0
VERTEX
  8
0
 10
3.1875
 20
0.581976
 30
0.0
 40
0.00393701
 41
0.00393701
  0
VERTEX
  8
0
 10
3.19211
 20
0.604981
 30
0.0
 40
0.00393701
 41
0.00393701
  0
VERTEX
  8
0
 10
3.20475
 20
0.623753
 30
0.0
 40
0.00393701
 41
0.00393701
  0
VERTEX
  8
0
 10
3.22353
 20
0.636393
 30
0.0
 40
0.00393701
 41
0.00393701
  0
VERTEX
  8
0
 10
3.24658
 20
0.641004
 30
0.0
 40
0.00393701
 41
0.00393701
  0
VERTEX
  8
0
 10
3.26953
 20
0.636393
 30
0.0
 40
0.00393701
 41
0.00393701
  0
VERTEX
  8
0
 10
3.28831
 20
0.623753
 30
0.0
 40
0.00393701
 41
0.00393701
  0
VERTEX
  8
0
 10
3.30094
 20
0.604981
 30
0.0
 40
0.00393701
 41
0.00393701
  0
VERTEX
  8
0
 10
3.30561
 20
0.581976
 30
0.0
 40
0.00393701
 41
0.00393701
  0
SEQEND
 8
0
  0
POLYLINE
  8
0
 62
     0
 66
     1
 10
0
 20
0
 30
0.0
 70
     1
 40
0.283465
 41
0.283465
  0
VERTEX
  8
0
 10
3.80561
 20
0.581976
 30
0.0
 40
0.00393701
 41
0.00393701
  0
VERTEX
  8
0
 10
3.80094
 20
0.559028
 30
0.0
 40
0.00393701
 41
0.00393701
  0
VERTEX
  8
0
 10
3.78831
 20
0.540256
 30
0.0
 40
0.00393701
 41
0.00393701
  0
VERTEX
  8
0
 10
3.76953
 20
0.527561
 30
0.0
 40
0.00393701
 41
0.00393701
  0
VERTEX
  8
0
 10
3.74658
 20
0.522894
 30
0.0
 40
0.00393701
 41
0.00393701
  0
VERTEX
  8
0
 10
3.72353
 20
0.527561
 30
0.0
 40
0.00393701
 41
0.00393701
  0
VERTEX
  8
0
 10
3.70475
 20
0.540256
 30
0.0
 40
0.00393701
 41
0.00393701
  0
VERTEX
  8
0
 10
3.69211
 20
0.559028
 30
0.0
 40
0.00393701
 41
0.00393701
  0
VERTEX
  8
0
 10
3.6875
 20
0.581976
 30
0.0
 40
0.00393701
 41
0.00393701
  0
VERTEX
  8
0
 10
3.69211
 20
0.604981
 30
0.0
 40
0.00393701
 41
0.00393701
  0
VERTEX
  8
0
 10
3.70475
 20
0.623753
 30
0.0
 40
0.00393701
 41
0.00393701
  0
VERTEX
  8
0
 10
3.72353
 20
0.636393
 30
0.0
 40
0.00393701
 41
0.00393701
  0
VERTEX
  8
0
 10
3.74658
 20
0.641004
 30
0.0
 40
0.00393701
 41
0.00393701
  0
VERTEX
  8
0
 10
3.76953
 20
0.636393
 30
0.0
 40
0.00393701
 41
0.00393701
  0
VERTEX
  8
0
 10
3.78831
 20
0.623753
 30
0.0
 40
0.00393701
 41
0.00393701
  0
VERTEX
  8
0
 10
3.80094
 20
0.604981
 30
0.0
 40
0.00393701
 41
0.00393701
  0
VERTEX
  8
0
 10
3.80561
 20
0.581976
 30
0.0
 40
0.00393701
 41
0.00393701
  0
SEQEND
 8
0
  0
POLYLINE
  8
0
 62
     0
 66
     1
 10
0
 20
0
 30
0.0
 70
     1
 40
0.283465
 41
0.283465
  0
VERTEX
  8
0
 10
0.374511
 20
4.28196
 30
0.0
 40
0.00393701
 41
0.00393701
  0
VERTEX
  8
0
 10
0.364421
 20
4.23221
 30
0.0
 40
0.00393701
 41
0.00393701
  0
VERTEX
  8
0
 10
0.337022
 20
4.19151
 30
0.0
 40
0.00393701
 41
0.00393701
  0
VERTEX
  8
0
 10
0.296332
 20
4.16411
 30
0.0
 40
0.00393701
 41
0.00393701
  0
VERTEX
  8
0
 10
0.246582
 20
4.15403
 30
0.0
 40
0.00393701
 41
0.00393701
  0
VERTEX
  8
0
 10
0.196724
 20
4.16411
 30
0.0
 40
0.00393701
 41
0.00393701
  0
VERTEX
  8
0
 10
0.156033
 20
4.19151
 30
0.0
 40
0.00393701
 41
0.00393701
  0
VERTEX
  8
0
 10
0.128635
 20
4.23221
 30
0.0
 40
0.00393701
 41
0.00393701
  0
VERTEX
  8
0
 10
0.118598
 20
4.28196
 30
0.0
 40
0.00393701
 41
0.00393701
  0
VERTEX
  8
0
 10
0.128635
 20
4.33182
 30
0.0
 40
0.00393701
 41
0.00393701
  0
VERTEX
  8
0
 10
0.156033
 20
4.3725
 30
0.0
 40
0.00393701
 41
0.00393701
  0
VERTEX
  8
0
 10
0.196724
 20
4.3999
 30
0.0
 40
0.00393701
 41
0.00393701
  0
VERTEX
  8
0
 10
0.246582
 20
4.40994
 30
0.0
 40
0.00393701
 41
0.00393701
  0
VERTEX
  8
0
 10
0.296332
 20
4.3999
 30
0.0
 40
0.00393701
 41
0.00393701
  0
VERTEX
  8
0
 10
0.337022
 20
4.3725
 30
0.0
 40
0.00393701
 41
0.00393701
  0
VERTEX
  8
0
 10
0.364421
 20
4.33182
 30
0.0
 40
0.00393701
 41
0.00393701
  0
VERTEX
  8
0
 10
0.374511
 20
4.28196
 30
0.0
 40
0.00393701
 41
0.00393701
  0
SEQEND
 8
0
  0
POLYLINE
  8
0
 62
     0
 66
     1
 10
0
 20
0
 30
0.0
 70
     1
 40
0.283465
 41
0.283465
  0
VERTEX
  8
0
 10
0.874511
 20
4.28196
 30
0.0
 40
0.00393701
 41
0.00393701
  0
VERTEX
  8
0
 10
0.864421
 20
4.23221
 30
0.0
 40
0.00393701
 41
0.00393701
  0
VERTEX
  8
0
 10
0.837022
 20
4.19151
 30
0.0
 40
0.00393701
 41
0.00393701
  0
VERTEX
  8
0
 10
0.796332
 20
4.16411
 30
0.0
 40
0.00393701
 41
0.00393701
  0
VERTEX
  8
0
 10
0.746582
 20
4.15403
 30
0.0
 40
0.00393701
 41
0.00393701
  0
VERTEX
  8
0
 10
0.696724
 20
4.16411
 30
0.0
 40
0.00393701
 41
0.00393701
  0
VERTEX
  8
0
 10
0.656033
 20
4.19151
 30
0.0
 40
0.00393701
 41
0.00393701
  0
VERTEX
  8
0
 10
0.628635
 20
4.23221
 30
0.0
 40
0.00393701
 41
0.00393701
  0
VERTEX
  8
0
 10
0.618599
 20
4.28196
 30
0.0
 40
0.00393701
 41
0.00393701
  0
VERTEX
  8
0
 10
0.628635
 20
4.33182
 30
0.0
 40
0.00393701
 41
0.00393701
  0
VERTEX
  8
0
 10
0.656033
 20
4.3725
 30
0.0
 40
0.00393701
 41
0.00393701
  0
VERTEX
  8
0
 10
0.696724
 20
4.3999
 30
0.0
 40
0.00393701
 41
0.00393701
  0
VERTEX
  8
0
 10
0.746582
 20
4.40994
 30
0.0
 40
0.00393701
 41
0.00393701
  0
VERTEX
  8
0
 10
0.796332
 20
4.3999
 30
0.0
 40
0.00393701
 41
0.00393701
  0
VERTEX
  8
0
 10
0.837022
 20
4.3725
 30
0.0
 40
0.00393701
 41
0.00393701
  0
VERTEX
  8
0
 10
0.864421
 20
4.33182
 30
0.0
 40
0.00393701
 41
0.00393701
  0
VERTEX
  8
0
 10
0.874511
 20
4.28196
 30
0.0
 40
0.00393701
 41
0.00393701
  0
SEQEND
 8
0
  0
POLYLINE
  8
0
 62
     0
 66
     1
 10
0
 20
0
 30
0.0
 70
     1
 40
0.283465
 41
0.283465
  0
VERTEX
  8
0
 10
1.37451
 20
4.28196
 30
0.0
 40
0.00393701
 41
0.00393701
  0
VERTEX
  8
0
 10
1.36442
 20
4.23221
 30
0.0
 40
0.00393701
 41
0.00393701
  0
VERTEX
  8
0
 10
1.33702
 20
4.19151
 30
0.0
 40
0.00393701
 41
0.00393701
  0
VERTEX
  8
0
 10
1.29633
 20
4.16411
 30
0.0
 40
0.00393701
 41
0.00393701
  0
VERTEX
  8
0
 10
1.24658
 20
4.15403
 30
0.0
 40
0.00393701
 41
0.00393701
  0
VERTEX
  8
0
 10
1.19672
 20
4.16411
 30
0.0
 40
0.00393701
 41
0.00393701
  0
VERTEX
  8
0
 10
1.15603
 20
4.19151
 30
0.0
 40
0.00393701
 41
0.00393701
  0
VERTEX
  8
0
 10
1.12863
 20
4.23221
 30
0.0
 40
0.00393701
 41
0.00393701
  0
VERTEX
  8
0
 10
1.1186
 20
4.28196
 30
0.0
 40
0.00393701
 41
0.00393701
  0
VERTEX
  8
0
 10
1.12863
 20
4.33182
 30
0.0
 40
0.00393701
 41
0.00393701
  0
VERTEX
  8
0
 10
1.15603
 20
4.3725
 30
0.0
 40
0.00393701
 41
0.00393701
  0
VERTEX
  8
0
 10
1.19672
 20
4.3999
 30
0.0
 40
0.00393701
 41
0.00393701
  0
VERTEX
  8
0
 10
1.24658
 20
4.40994
 30
0.0
 40
0.00393701
 41
0.00393701
  0
VERTEX
  8
0
 10
1.29633
 20
4.3999
 30
0.0
 40
0.00393701
 41
0.00393701
  0
VERTEX
  8
0
 10
1.33702
 20
4.3725
 30
0.0
 40
0.00393701
 41
0.00393701
  0
VERTEX
  8
0
 10
1.36442
 20
4.33182
 30
0.0
 40
0.00393701
 41
0.00393701
  0
VERTEX
  8
0
 10
1.37451
 20
4.28196
 30
0.0
 40
0.00393701
 41
0.00393701
  0
SEQEND
 8
0
  0
POLYLINE
  8
0
 62
     0
 66
     1
 10
0
 20
0
 30
0.0
 70
     1
 40
0.283465
 41
0.283465
  0
VERTEX
  8
0
 10
1.87451
 20
4.28196
 30
0.0
 40
0.00393701
 41
0.00393701
  0
VERTEX
  8
0
 10
1.86442
 20
4.23221
 30
0.0
 40
0.00393701
 41
0.00393701
  0
VERTEX
  8
0
 10
1.83703
 20
4.19151
 30
0.0
 40
0.00393701
 41
0.00393701
  0
VERTEX
  8
0
 10
1.79633
 20
4.16411
 30
0.0
 40
0.00393701
 41
0.00393701
  0
VERTEX
  8
0
 10
1.74658
 20
4.15403
 30
0.0
 40
0.00393701
 41
0.00393701
  0
VERTEX
  8
0
 10
1.69672
 20
4.16411
 30
0.0
 40
0.00393701
 41
0.00393701
  0
VERTEX
  8
0
 10
1.65603
 20
4.19151
 30
0.0
 40
0.00393701
 41
0.00393701
  0
VERTEX
  8
0
 10
1.62864
 20
4.23221
 30
0.0
 40
0.00393701
 41
0.00393701
  0
VERTEX
  8
0
 10
1.6186
 20
4.28196
 30
0.0
 40
0.00393701
 41
0.00393701
  0
VERTEX
  8
0
 10
1.62864
 20
4.33182
 30
0.0
 40
0.00393701
 41
0.00393701
  0
VERTEX
  8
0
 10
1.65603
 20
4.3725
 30
0.0
 40
0.00393701
 41
0.00393701
  0
VERTEX
  8
0
 10
1.69672
 20
4.3999
 30
0.0
 40
0.00393701
 41
0.00393701
  0
VERTEX
  8
0
 10
1.74658
 20
4.40994
 30
0.0
 40
0.00393701
 41
0.00393701
  0
VERTEX
  8
0
 10
1.79633
 20
4.3999
 30
0.0
 40
0.00393701
 41
0.00393701
  0
VERTEX
  8
0
 10
1.83703
 20
4.3725
 30
0.0
 40
0.00393701
 41
0.00393701
  0
VERTEX
  8
0
 10
1.86442
 20
4.33182
 30
0.0
 40
0.00393701
 41
0.00393701
  0
VERTEX
  8
0
 10
1.87451
 20
4.28196
 30
0.0
 40
0.00393701
 41
0.00393701
  0
SEQEND
 8
0
  0
POLYLINE
  8
0
 62
     0
 66
     1
 10
0
 20
0
 30
0.0
 70
     1
 40
0.283465
 41
0.283465
  0
VERTEX
  8
0
 10
2.37451
 20
4.28196
 30
0.0
 40
0.00393701
 41
0.00393701
  0
VERTEX
  8
0
 10
2.36442
 20
4.23221
 30
0.0
 40
0.00393701
 41
0.00393701
  0
VERTEX
  8
0
 10
2.33703
 20
4.19151
 30
0.0
 40
0.00393701
 41
0.00393701
  0
VERTEX
  8
0
 10
2.29633
 20
4.16411
 30
0.0
 40
0.00393701
 41
0.00393701
  0
VERTEX
  8
0
 10
2.24658
 20
4.15403
 30
0.0
 40
0.00393701
 41
0.00393701
  0
VERTEX
  8
0
 10
2.19672
 20
4.16411
 30
0.0
 40
0.00393701
 41
0.00393701
  0
VERTEX
  8
0
 10
2.15603
 20
4.19151
 30
0.0
 40
0.00393701
 41
0.00393701
  0
VERTEX
  8
0
 10
2.12864
 20
4.23221
 30
0.0
 40
0.00393701
 41
0.00393701
  0
VERTEX
  8
0
 10
2.1186
 20
4.28196
 30
0.0
 40
0.00393701
 41
0.00393701
  0
VERTEX
  8
0
 10
2.12864
 20
4.33182
 30
0.0
 40
0.00393701
 41
0.00393701
  0
VERTEX
  8
0
 10
2.15603
 20
4.3725
 30
0.0
 40
0.00393701
 41
0.00393701
  0
VERTEX
  8
0
 10
2.19672
 20
4.3999
 30
0.0
 40
0.00393701
 41
0.00393701
  0
VERTEX
  8
0
 10
2.24658
 20
4.40994
 30
0.0
 40
0.00393701
 41
0.00393701
  0
VERTEX
  8
0
 10
2.29633
 20
4.3999
 30
0.0
 40
0.00393701
 41
0.00393701
  0
VERTEX
  8
0
 10
2.33703
 20
4.3725
 30
0.0
 40
0.00393701
 41
0.00393701
  0
VERTEX
  8
0
 10
2.36442
 20
4.33182
 30
0.0
 40
0.00393701
 41
0.00393701
  0
VERTEX
  8
0
 10
2.37451
 20
4.28196
 30
0.0
 40
0.00393701
 41
0.00393701
  0
SEQEND
 8
0
  0
POLYLINE
  8
0
 62
     0
 66
     1
 10
0
 20
0
 30
0.0
 70
     1
 40
0.283465
 41
0.283465
  0
VERTEX
  8
0
 10
2.87451
 20
4.28196
 30
0.0
 40
0.00393701
 41
0.00393701
  0
VERTEX
  8
0
 10
2.86442
 20
4.23221
 30
0.0
 40
0.00393701
 41
0.00393701
  0
VERTEX
  8
0
 10
2.83703
 20
4.19151
 30
0.0
 40
0.00393701
 41
0.00393701
  0
VERTEX
  8
0
 10
2.79633
 20
4.16411
 30
0.0
 40
0.00393701
 41
0.00393701
  0
VERTEX
  8
0
 10
2.74658
 20
4.15403
 30
0.0
 40
0.00393701
 41
0.00393701
  0
VERTEX
  8
0
 10
2.69672
 20
4.16411
 30
0.0
 40
0.00393701
 41
0.00393701
  0
VERTEX
  8
0
 10
2.65603
 20
4.19151
 30
0.0
 40
0.00393701
 41
0.00393701
  0
VERTEX
  8
0
 10
2.62864
 20
4.23221
 30
0.0
 40
0.00393701
 41
0.00393701
  0
VERTEX
  8
0
 10
2.6186
 20
4.28196
 30
0.0
 40
0.00393701
 41
0.00393701
  0
VERTEX
  8
0
 10
2.62864
 20
4.33182
 30
0.0
 40
0.00393701
 41
0.00393701
  0
VERTEX
  8
0
 10
2.65603
 20
4.3725
 30
0.0
 40
0.00393701
 41
0.00393701
  0
VERTEX
  8
0
 10
2.69672
 20
4.3999
 30
0.0
 40
0.00393701
 41
0.00393701
  0
VERTEX
  8
0
 10
2.74658
 20
4.40994
 30
0.0
 40
0.00393701
 41
0.00393701
  0
VERTEX
  8
0
 10
2.79633
 20
4.3999
 30
0.0
 40
0.00393701
 41
0.00393701
  0
VERTEX
  8
0
 10
2.83703
 20
4.3725
 30
0.0
 40
0.00393701
 41
0.00393701
  0
VERTEX
  8
0
 10
2.86442
 20
4.33182
 30
0.0
 40
0.00393701
 41
0.00393701
  0
VERTEX
  8
0
 10
2.87451
 20
4.28196
 30
0.0
 40
0.00393701
 41
0.00393701
  0
SEQEND
 8
0
  0
POLYLINE
  8
0
 62
     0
 66
     1
 10
0
 20
0
 30
0.0
 70
     1
 40
0.283465
 41
0.283465
  0
VERTEX
  8
0
 10
3.37451
 20
4.28196
 30
0.0
 40
0.00393701
 41
0.00393701
  0
VERTEX
  8
0
 10
3.36442
 20
4.23221
 30
0.0
 40
0.00393701
 41
0.00393701
  0
VERTEX
  8
0
 10
3.33703
 20
4.19151
 30
0.0
 40
0.00393701
 41
0.00393701
  0
VERTEX
  8
0
 10
3.29633
 20
4.16411
 30
0.0
 40
0.00393701
 41
0.00393701
  0
VERTEX
  8
0
 10
3.24658
 20
4.15403
 30
0.0
 40
0.00393701
 41
0.00393701
  0
VERTEX
  8
0
 10
3.19672
 20
4.16411
 30
0.0
 40
0.00393701
 41
0.00393701
  0
VERTEX
  8
0
 10
3.15603
 20
4.19151
 30
0.0
 40
0.00393701
 41
0.00393701
  0
VERTEX
  8
0
 10
3.12864
 20
4.23221
 30
0.0
 40
0.00393701
 41
0.00393701
  0
VERTEX
  8
0
 10
3.1186
 20
4.28196
 30
0.0
 40
0.00393701
 41
0.00393701
  0
VERTEX
  8
0
 10
3.12864
 20
4.33182
 30
0.0
 40
0.00393701
 41
0.00393701
  0
VERTEX
  8
0
 10
3.15603
 20
4.3725
 30
0.0
 40
0.00393701
 41
0.00393701
  0
VERTEX
  8
0
 10
3.19672
 20
4.3999
 30
0.0
 40
0.00393701
 41
0.00393701
  0
VERTEX
  8
0
 10
3.24658
 20
4.40994
 30
0.0
 40
0.00393701
 41
0.00393701
  0
VERTEX
  8
0
 10
3.29633
 20
4.3999
 30
0.0
 40
0.00393701
 41
0.00393701
  0
VERTEX
  8
0
 10
3.33703
 20
4.3725
 30
0.0
 40
0.00393701
 41
0.00393701
  0
VERTEX
  8
0
 10
3.36442
 20
4.33182
 30
0.0
 40
0.00393701
 41
0.00393701
  0
VERTEX
  8
0
 10
3.37451
 20
4.28196
 30
0.0
 40
0.00393701
 41
0.00393701
  0
SEQEND
 8
0
  0
POLYLINE
  8
0
 62
     0
 66
     1
 10
0
 20
0
 30
0.0
 70
     1
 40
0.283465
 41
0.283465
  0
VERTEX
  8
0
 10
3.87451
 20
4.28196
 30
0.0
 40
0.00393701
 41
0.00393701
  0
VERTEX
  8
0
 10
3.86442
 20
4.23221
 30
0.0
 40
0.00393701
 41
0.00393701
  0
VERTEX
  8
0
 10
3.83703
 20
4.19151
 30
0.0
 40
0.00393701
 41
0.00393701
  0
VERTEX
  8
0
 10
3.79633
 20
4.16411
 30
0.0
 40
0.00393701
 41
0.00393701
  0
VERTEX
  8
0
 10
3.74658
 20
4.15403
 30
0.0
 40
0.00393701
 41
0.00393701
  0
VERTEX
  8
0
 10
3.69672
 20
4.16411
 30
0.0
 40
0.00393701
 41
0.00393701
  0
VERTEX
  8
0
 10
3.65603
 20
4.19151
 30
0.0
 40
0.00393701
 41
0.00393701
  0
VERTEX
  8
0
 10
3.62864
 20
4.23221
 30
0.0
 40
0.00393701
 41
0.00393701
  0
VERTEX
  8
0
 10
3.6186
 20
4.28196
 30
0.0
 40
0.00393701
 41
0.00393701
  0
VERTEX
  8
0
 10
3.62864
 20
4.33182
 30
0.0
 40
0.00393701
 41
0.00393701
  0
VERTEX
  8
0
 10
3.65603
 20
4.3725
 30
0.0
 40
0.00393701
 41
0.00393701
  0
VERTEX
  8
0
 10
3.69672
 20
4.3999
 30
0.0
 40
0.00393701
 41
0.00393701
  0
VERTEX
  8
0
 10
3.74658
 20
4.40994
 30
0.0
 40
0.00393701
 41
0.00393701
  0
VERTEX
  8
0
 10
3.79633
 20
4.3999
 30
0.0
 40
0.00393701
 41
0.00393701
  0
VERTEX
  8
0
 10
3.83703
 20
4.3725
 30
0.0
 40
0.00393701
 41
0.00393701
  0
VERTEX
  8
0
 10
3.86442
 20
4.33182
 30
0.0
 40
0.00393701
 41
0.00393701
  0
VERTEX
  8
0
 10
3.87451
 20
4.28196
 30
0.0
 40
0.00393701
 41
0.00393701
  0
SEQEND
 8
0
  0
POLYLINE
  8
0
 62
     0
 66
     1
 10
0
 20
0
 30
0.0
 70
     1
 40
0.283465
 41
0.283465
  0
VERTEX
  8
0
 10
0.374511
 20
1.43197
 30
0.0
 40
0.00393701
 41
0.00393701
  0
VERTEX
  8
0
 10
0.364421
 20
1.38222
 30
0.0
 40
0.00393701
 41
0.00393701
  0
VERTEX
  8
0
 10
0.337022
 20
1.34152
 30
0.0
 40
0.00393701
 41
0.00393701
  0
VERTEX
  8
0
 10
0.296332
 20
1.31413
 30
0.0
 40
0.00393701
 41
0.00393701
  0
VERTEX
  8
0
 10
0.246582
 20
1.30404
 30
0.0
 40
0.00393701
 41
0.00393701
  0
VERTEX
  8
0
 10
0.196724
 20
1.31413
 30
0.0
 40
0.00393701
 41
0.00393701
  0
VERTEX
  8
0
 10
0.156033
 20
1.34152
 30
0.0
 40
0.00393701
 41
0.00393701
  0
VERTEX
  8
0
 10
0.128635
 20
1.38222
 30
0.0
 40
0.00393701
 41
0.00393701
  0
VERTEX
  8
0
 10
0.118598
 20
1.43197
 30
0.0
 40
0.00393701
 41
0.00393701
  0
VERTEX
  8
0
 10
0.128635
 20
1.48182
 30
0.0
 40
0.00393701
 41
0.00393701
  0
VERTEX
  8
0
 10
0.156033
 20
1.52251
 30
0.0
 40
0.00393701
 41
0.00393701
  0
VERTEX
  8
0
 10
0.196724
 20
1.54992
 30
0.0
 40
0.00393701
 41
0.00393701
  0
VERTEX
  8
0
 10
0.246582
 20
1.55994
 30
0.0
 40
0.00393701
 41
0.00393701
  0
VERTEX
  8
0
 10
0.296332
 20
1.54992
 30
0.0
 40
0.00393701
 41
0.00393701
  0
VERTEX
  8
0
 10
0.337022
 20
1.52251
 30
0.0
 40
0.00393701
 41
0.00393701
  0
VERTEX
  8
0
 10
0.364421
 20
1.48182
 30
0.0
 40
0.00393701
 41
0.00393701
  0
VERTEX
  8
0
 10
0.374511
 20
1.43197
 30
0.0
 40
0.00393701
 41
0.00393701
  0
SEQEND
 8
0
  0
POLYLINE
  8
0
 62
     0
 66
     1
 10
0
 20
0
 30
0.0
 70
     1
 40
0.283465
 41
0.283465
  0
VERTEX
  8
0
 10
0.874511
 20
1.43197
 30
0.0
 40
0.00393701
 41
0.00393701
  0
VERTEX
  8
0
 10
0.864421
 20
1.38222
 30
0.0
 40
0.00393701
 41
0.00393701
  0
VERTEX
  8
0
 10
0.837022
 20
1.34152
 30
0.0
 40
0.00393701
 41
0.00393701
  0
VERTEX
  8
0
 10
0.796332
 20
1.31413
 30
0.0
 40
0.00393701
 41
0.00393701
  0
VERTEX
  8
0
 10
0.746582
 20
1.30404
 30
0.0
 40
0.00393701
 41
0.00393701
  0
VERTEX
  8
0
 10
0.696724
 20
1.31413
 30
0.0
 40
0.00393701
 41
0.00393701
  0
VERTEX
  8
0
 10
0.656033
 20
1.34152
 30
0.0
 40
0.00393701
 41
0.00393701
  0
VERTEX
  8
0
 10
0.628635
 20
1.38222
 30
0.0
 40
0.00393701
 41
0.00393701
  0
VERTEX
  8
0
 10
0.618599
 20
1.43197
 30
0.0
 40
0.00393701
 41
0.00393701
  0
VERTEX
  8
0
 10
0.628635
 20
1.48182
 30
0.0
 40
0.00393701
 41
0.00393701
  0
VERTEX
  8
0
 10
0.656033
 20
1.52251
 30
0.0
 40
0.00393701
 41
0.00393701
  0
VERTEX
  8
0
 10
0.696724
 20
1.54992
 30
0.0
 40
0.00393701
 41
0.00393701
  0
VERTEX
  8
0
 10
0.746582
 20
1.55994
 30
0.0
 40
0.00393701
 41
0.00393701
  0
VERTEX
  8
0
 10
0.796332
 20
1.54992
 30
0.0
 40
0.00393701
 41
0.00393701
  0
VERTEX
  8
0
 10
0.837022
 20
1.52251
 30
0.0
 40
0.00393701
 41
0.00393701
  0
VERTEX
  8
0
 10
0.864421
 20
1.48182
 30
0.0
 40
0.00393701
 41
0.00393701
  0
VERTEX
  8
0
 10
0.874511
 20
1.43197
 30
0.0
 40
0.00393701
 41
0.00393701
  0
SEQEND
 8
0
  0
POLYLINE
  8
0
 62
     0
 66
     1
 10
0
 20
0
 30
0.0
 70
     1
 40
0.283465
 41
0.283465
  0
VERTEX
  8
0
 10
1.37451
 20
1.43197
 30
0.0
 40
0.00393701
 41
0.00393701
  0
VERTEX
  8
0
 10
1.36442
 20
1.38222
 30
0.0
 40
0.00393701
 41
0.00393701
  0
VERTEX
  8
0
 10
1.33702
 20
1.34152
 30
0.0
 40
0.00393701
 41
0.00393701
  0
VERTEX
  8
0
 10
1.29633
 20
1.31413
 30
0.0
 40
0.00393701
 41
0.00393701
  0
VERTEX
  8
0
 10
1.24658
 20
1.30404
 30
0.0
 40
0.00393701
 41
0.00393701
  0
VERTEX
  8
0
 10
1.19672
 20
1.31413
 30
0.0
 40
0.00393701
 41
0.00393701
  0
VERTEX
  8
0
 10
1.15603
 20
1.34152
 30
0.0
 40
0.00393701
 41
0.00393701
  0
VERTEX
  8
0
 10
1.12863
 20
1.38222
 30
0.0
 40
0.00393701
 41
0.00393701
  0
VERTEX
  8
0
 10
1.1186
 20
1.43197
 30
0.0
 40
0.00393701
 41
0.00393701
  0
VERTEX
  8
0
 10
1.12863
 20
1.48182
 30
0.0
 40
0.00393701
 41
0.00393701
  0
VERTEX
  8
0
 10
1.15603
 20
1.52251
 30
0.0
 40
0.00393701
 41
0.00393701
  0
VERTEX
  8
0
 10
1.19672
 20
1.54992
 30
0.0
 40
0.00393701
 41
0.00393701
  0
VERTEX
  8
0
 10
1.24658
 20
1.55994
 30
0.0
 40
0.00393701
 41
0.00393701
  0
VERTEX
  8
0
 10
1.29633
 20
1.54992
 30
0.0
 40
0.00393701
 41
0.00393701
  0
VERTEX
  8
0
 10
1.33702
 20
1.52251
 30
0.0
 40
0.00393701
 41
0.00393701
  0
VERTEX
  8
0
 10
1.36442
 20
1.48182
 30
0.0
 40
0.00393701
 41
0.00393701
  0
VERTEX
  8
0
 10
1.37451
 20
1.43197
 30
0.0
 40
0.00393701
 41
0.00393701
  0
SEQEND
 8
0
  0
POLYLINE
  8
0
 62
     0
 66
     1
 10
0
 20
0
 30
0.0
 70
     1
 40
0.283465
 41
0.283465
  0
VERTEX
  8
0
 10
1.87451
 20
1.43197
 30
0.0
 40
0.00393701
 41
0.00393701
  0
VERTEX
  8
0
 10
1.86442
 20
1.38222
 30
0.0
 40
0.00393701
 41
0.00393701
  0
VERTEX
  8
0
 10
1.83703
 20
1.34152
 30
0.0
 40
0.00393701
 41
0.00393701
  0
VERTEX
  8
0
 10
1.79633
 20
1.31413
 30
0.0
 40
0.00393701
 41
0.00393701
  0
VERTEX
  8
0
 10
1.74658
 20
1.30404
 30
0.0
 40
0.00393701
 41
0.00393701
  0
VERTEX
  8
0
 10
1.69672
 20
1.31413
 30
0.0
 40
0.00393701
 41
0.00393701
  0
VERTEX
  8
0
 10
1.65603
 20
1.34152
 30
0.0
 40
0.00393701
 41
0.00393701
  0
VERTEX
  8
0
 10
1.62864
 20
1.38222
 30
0.0
 40
0.00393701
 41
0.00393701
  0
VERTEX
  8
0
 10
1.6186
 20
1.43197
 30
0.0
 40
0.00393701
 41
0.00393701
  0
VERTEX
  8
0
 10
1.62864
 20
1.48182
 30
0.0
 40
0.00393701
 41
0.00393701
  0
VERTEX
  8
0
 10
1.65603
 20
1.52251
 30
0.0
 40
0.00393701
 41
0.00393701
  0
VERTEX
  8
0
 10
1.69672
 20
1.54992
 30
0.0
 40
0.00393701
 41
0.00393701
  0
VERTEX
  8
0
 10
1.74658
 20
1.55994
 30
0.0
 40
0.00393701
 41
0.00393701
  0
VERTEX
  8
0
 10
1.79633
 20
1.54992
 30
0.0
 40
0.00393701
 41
0.00393701
  0
VERTEX
  8
0
 10
1.83703
 20
1.52251
 30
0.0
 40
0.00393701
 41
0.00393701
  0
VERTEX
  8
0
 10
1.86442
 20
1.48182
 30
0.0
 40
0.00393701
 41
0.00393701
  0
VERTEX
  8
0
 10
1.87451
 20
1.43197
 30
0.0
 40
0.00393701
 41
0.00393701
  0
SEQEND
 8
0
  0
POLYLINE
  8
0
 62
     0
 66
     1
 10
0
 20
0
 30
0.0
 70
     1
 40
0.283465
 41
0.283465
  0
VERTEX
  8
0
 10
2.37451
 20
1.43197
 30
0.0
 40
0.00393701
 41
0.00393701
  0
VERTEX
  8
0
 10
2.36442
 20
1.38222
 30
0.0
 40
0.00393701
 41
0.00393701
  0
VERTEX
  8
0
 10
2.33703
 20
1.34152
 30
0.0
 40
0.00393701
 41
0.00393701
  0
VERTEX
  8
0
 10
2.29633
 20
1.31413
 30
0.0
 40
0.00393701
 41
0.00393701
  0
VERTEX
  8
0
 10
2.24658
 20
1.30404
 30
0.0
 40
0.00393701
 41
0.00393701
  0
VERTEX
  8
0
 10
2.19672
 20
1.31413
 30
0.0
 40
0.00393701
 41
0.00393701
  0
VERTEX
  8
0
 10
2.15603
 20
1.34152
 30
0.0
 40
0.00393701
 41
0.00393701
  0
VERTEX
  8
0
 10
2.12864
 20
1.38222
 30
0.0
 40
0.00393701
 41
0.00393701
  0
VERTEX
  8
0
 10
2.1186
 20
1.43197
 30
0.0
 40
0.00393701
 41
0.00393701
  0
VERTEX
  8
0
 10
2.12864
 20
1.48182
 30
0.0
 40
0.00393701
 41
0.00393701
  0
VERTEX
  8
0
 10
2.15603
 20
1.52251
 30
0.0
 40
0.00393701
 41
0.00393701
  0
VERTEX
  8
0
 10
2.19672
 20
1.54992
 30
0.0
 40
0.00393701
 41
0.00393701
  0
VERTEX
  8
0
 10
2.24658
 20
1.55994
 30
0.0
 40
0.00393701
 41
0.00393701
  0
VERTEX
  8
0
 10
2.29633
 20
1.54992
 30
0.0
 40
0.00393701
 41
0.00393701
  0
VERTEX
  8
0
 10
2.33703
 20
1.52251
 30
0.0
 40
0.00393701
 41
0.00393701
  0
VERTEX
  8
0
 10
2.36442
 20
1.48182
 30
0.0
 40
0.00393701
 41
0.00393701
  0
VERTEX
  8
0
 10
2.37451
 20
1.43197
 30
0.0
 40
0.00393701
 41
0.00393701
  0
SEQEND
 8
0
  0
POLYLINE
  8
0
 62
     0
 66
     1
 10
0
 20
0
 30
0.0
 70
     1
 40
0.283465
 41
0.283465
  0
VERTEX
  8
0
 10
2.87451
 20
1.43197
 30
0.0
 40
0.00393701
 41
0.00393701
  0
VERTEX
  8
0
 10
2.86442
 20
1.38222
 30
0.0
 40
0.00393701
 41
0.00393701
  0
VERTEX
  8
0
 10
2.83703
 20
1.34152
 30
0.0
 40
0.00393701
 41
0.00393701
  0
VERTEX
  8
0
 10
2.79633
 20
1.31413
 30
0.0
 40
0.00393701
 41
0.00393701
  0
VERTEX
  8
0
 10
2.74658
 20
1.30404
 30
0.0
 40
0.00393701
 41
0.00393701
  0
VERTEX
  8
0
 10
2.69672
 20
1.31413
 30
0.0
 40
0.00393701
 41
0.00393701
  0
VERTEX
  8
0
 10
2.65603
 20
1.34152
 30
0.0
 40
0.00393701
 41
0.00393701
  0
VERTEX
  8
0
 10
2.62864
 20
1.38222
 30
0.0
 40
0.00393701
 41
0.00393701
  0
VERTEX
  8
0
 10
2.6186
 20
1.43197
 30
0.0
 40
0.00393701
 41
0.00393701
  0
VERTEX
  8
0
 10
2.62864
 20
1.48182
 30
0.0
 40
0.00393701
 41
0.00393701
  0
VERTEX
  8
0
 10
2.65603
 20
1.52251
 30
0.0
 40
0.00393701
 41
0.00393701
  0
VERTEX
  8
0
 10
2.69672
 20
1.54992
 30
0.0
 40
0.00393701
 41
0.00393701
  0
VERTEX
  8
0
 10
2.74658
 20
1.55994
 30
0.0
 40
0.00393701
 41
0.00393701
  0
VERTEX
  8
0
 10
2.79633
 20
1.54992
 30
0.0
 40
0.00393701
 41
0.00393701
  0
VERTEX
  8
0
 10
2.83703
 20
1.52251
 30
0.0
 40
0.00393701
 41
0.00393701
  0
VERTEX
  8
0
 10
2.86442
 20
1.48182
 30
0.0
 40
0.00393701
 41
0.00393701
  0
VERTEX
  8
0
 10
2.87451
 20
1.43197
 30
0.0
 40
0.00393701
 41
0.00393701
  0
SEQEND
 8
0
  0
POLYLINE
  8
0
 62
     0
 66
     1
 10
0
 20
0
 30
0.0
 70
     1
 40
0.283465
 41
0.283465
  0
VERTEX
  8
0
 10
3.37451
 20
1.43197
 30
0.0
 40
0.00393701
 41
0.00393701
  0
VERTEX
  8
0
 10
3.36442
 20
1.38222
 30
0.0
 40
0.00393701
 41
0.00393701
  0
VERTEX
  8
0
 10
3.33703
 20
1.34152
 30
0.0
 40
0.00393701
 41
0.00393701
  0
VERTEX
  8
0
 10
3.29633
 20
1.31413
 30
0.0
 40
0.00393701
 41
0.00393701
  0
VERTEX
  8
0
 10
3.24658
 20
1.30404
 30
0.0
 40
0.00393701
 41
0.00393701
  0
VERTEX
  8
0
 10
3.19672
 20
1.31413
 30
0.0
 40
0.00393701
 41
0.00393701
  0
VERTEX
  8
0
 10
3.15603
 20
1.34152
 30
0.0
 40
0.00393701
 41
0.00393701
  0
VERTEX
  8
0
 10
3.12864
 20
1.38222
 30
0.0
 40
0.00393701
 41
0.00393701
  0
VERTEX
  8
0
 10
3.1186
 20
1.43197
 30
0.0
 40
0.00393701
 41
0.00393701
  0
VERTEX
  8
0
 10
3.12864
 20
1.48182
 30
0.0
 40
0.00393701
 41
0.00393701
  0
VERTEX
  8
0
 10
3.15603
 20
1.52251
 30
0.0
 40
0.00393701
 41
0.00393701
  0
VERTEX
  8
0
 10
3.19672
 20
1.54992
 30
0.0
 40
0.00393701
 41
0.00393701
  0
VERTEX
  8
0
 10
3.24658
 20
1.55994
 30
0.0
 40
0.00393701
 41
0.00393701
  0
VERTEX
  8
0
 10
3.29633
 20
1.54992
 30
0.0
 40
0.00393701
 41
0.00393701
  0
VERTEX
  8
0
 10
3.33703
 20
1.52251
 30
0.0
 40
0.00393701
 41
0.00393701
  0
VERTEX
  8
0
 10
3.36442
 20
1.48182
 30
0.0
 40
0.00393701
 41
0.00393701
  0
VERTEX
  8
0
 10
3.37451
 20
1.43197
 30
0.0
 40
0.00393701
 41
0.00393701
  0
SEQEND
 8
0
  0
POLYLINE
  8
0
 62
     0
 66
     1
 10
0
 20
0
 30
0.0
 70
     1
 40
0.283465
 41
0.283465
  0
VERTEX
  8
0
 10
3.87451
 20
1.43197
 30
0.0
 40
0.00393701
 41
0.00393701
  0
VERTEX
  8
0
 10
3.86442
 20
1.38222
 30
0.0
 40
0.00393701
 41
0.00393701
  0
VERTEX
  8
0
 10
3.83703
 20
1.34152
 30
0.0
 40
0.00393701
 41
0.00393701
  0
VERTEX
  8
0
 10
3.79633
 20
1.31413
 30
0.0
 40
0.00393701
 41
0.00393701
  0
VERTEX
  8
0
 10
3.74658
 20
1.30404
 30
0.0
 40
0.00393701
 41
0.00393701
  0
VERTEX
  8
0
 10
3.69672
 20
1.31413
 30
0.0
 40
0.00393701
 41
0.00393701
  0
VERTEX
  8
0
 10
3.65603
 20
1.34152
 30
0.0
 40
0.00393701
 41
0.00393701
  0
VERTEX
  8
0
 10
3.62864
 20
1.38222
 30
0.0
 40
0.00393701
 41
0.00393701
  0
VERTEX
  8
0
 10
3.6186
 20
1.43197
 30
0.0
 40
0.00393701
 41
0.00393701
  0
VERTEX
  8
0
 10
3.62864
 20
1.48182
 30
0.0
 40
0.00393701
 41
0.00393701
  0
VERTEX
  8
0
 10
3.65603
 20
1.52251
 30
0.0
 40
0.00393701
 41
0.00393701
  0
VERTEX
  8
0
 10
3.69672
 20
1.54992
 30
0.0
 40
0.00393701
 41
0.00393701
  0
VERTEX
  8
0
 10
3.74658
 20
1.55994
 30
0.0
 40
0.00393701
 41
0.00393701
  0
VERTEX
  8
0
 10
3.79633
 20
1.54992
 30
0.0
 40
0.00393701
 41
0.00393701
  0
VERTEX
  8
0
 10
3.83703
 20
1.52251
 30
0.0
 40
0.00393701
 41
0.00393701
  0
VERTEX
  8
0
 10
3.86442
 20
1.48182
 30
0.0
 40
0.00393701
 41
0.00393701
  0
VERTEX
  8
0
 10
3.87451
 20
1.43197
 30
0.0
 40
0.00393701
 41
0.00393701
  0
SEQEND
 8
0
  0
POLYLINE
  8
0
 62
     0
 66
     1
 10
0
 20
0
 30
0.0
 70
     1
 40
0.283465
 41
0.283465
  0
VERTEX
  8
0
 10
0.374511
 20
0.931967
 30
0.0
 40
0.00393701
 41
0.00393701
  0
VERTEX
  8
0
 10
0.364421
 20
0.882215
 30
0.0
 40
0.00393701
 41
0.00393701
  0
VERTEX
  8
0
 10
0.337022
 20
0.841525
 30
0.0
 40
0.00393701
 41
0.00393701
  0
VERTEX
  8
0
 10
0.296332
 20
0.814128
 30
0.0
 40
0.00393701
 41
0.00393701
  0
VERTEX
  8
0
 10
0.246582
 20
0.804036
 30
0.0
 40
0.00393701
 41
0.00393701
  0
VERTEX
  8
0
 10
0.196724
 20
0.814128
 30
0.0
 40
0.00393701
 41
0.00393701
  0
VERTEX
  8
0
 10
0.156033
 20
0.841525
 30
0.0
 40
0.00393701
 41
0.00393701
  0
VERTEX
  8
0
 10
0.128635
 20
0.882215
 30
0.0
 40
0.00393701
 41
0.00393701
  0
VERTEX
  8
0
 10
0.118598
 20
0.931967
 30
0.0
 40
0.00393701
 41
0.00393701
  0
VERTEX
  8
0
 10
0.128635
 20
0.981825
 30
0.0
 40
0.00393701
 41
0.00393701
  0
VERTEX
  8
0
 10
0.156033
 20
1.02252
 30
0.0
 40
0.00393701
 41
0.00393701
  0
VERTEX
  8
0
 10
0.196724
 20
1.04991
 30
0.0
 40
0.00393701
 41
0.00393701
  0
VERTEX
  8
0
 10
0.246582
 20
1.05995
 30
0.0
 40
0.00393701
 41
0.00393701
  0
VERTEX
  8
0
 10
0.296332
 20
1.04991
 30
0.0
 40
0.00393701
 41
0.00393701
  0
VERTEX
  8
0
 10
0.337022
 20
1.02252
 30
0.0
 40
0.00393701
 41
0.00393701
  0
VERTEX
  8
0
 10
0.364421
 20
0.981825
 30
0.0
 40
0.00393701
 41
0.00393701
  0
VERTEX
  8
0
 10
0.374511
 20
0.931967
 30
0.0
 40
0.00393701
 41
0.00393701
  0
SEQEND
 8
0
  0
POLYLINE
  8
0
 62
     0
 66
     1
 10
0
 20
0
 30
0.0
 70
     1
 40
0.283465
 41
0.283465
  0
VERTEX
  8
0
 10
0.874511
 20
0.931967
 30
0.0
 40
0.00393701
 41
0.00393701
  0
VERTEX
  8
0
 10
0.864421
 20
0.882215
 30
0.0
 40
0.00393701
 41
0.00393701
  0
VERTEX
  8
0
 10
0.837022
 20
0.841525
 30
0.0
 40
0.00393701
 41
0.00393701
  0
VERTEX
  8
0
 10
0.796332
 20
0.814128
 30
0.0
 40
0.00393701
 41
0.00393701
  0
VERTEX
  8
0
 10
0.746582
 20
0.804036
 30
0.0
 40
0.00393701
 41
0.00393701
  0
VERTEX
  8
0
 10
0.696724
 20
0.814128
 30
0.0
 40
0.00393701
 41
0.00393701
  0
VERTEX
  8
0
 10
0.656033
 20
0.841525
 30
0.0
 40
0.00393701
 41
0.00393701
  0
VERTEX
  8
0
 10
0.628635
 20
0.882215
 30
0.0
 40
0.00393701
 41
0.00393701
  0
VERTEX
  8
0
 10
0.618599
 20
0.931967
 30
0.0
 40
0.00393701
 41
0.00393701
  0
VERTEX
  8
0
 10
0.628635
 20
0.981825
 30
0.0
 40
0.00393701
 41
0.00393701
  0
VERTEX
  8
0
 10
0.656033
 20
1.02252
 30
0.0
 40
0.00393701
 41
0.00393701
  0
VERTEX
  8
0
 10
0.696724
 20
1.04991
 30
0.0
 40
0.00393701
 41
0.00393701
  0
VERTEX
  8
0
 10
0.746582
 20
1.05995
 30
0.0
 40
0.00393701
 41
0.00393701
  0
VERTEX
  8
0
 10
0.796332
 20
1.04991
 30
0.0
 40
0.00393701
 41
0.00393701
  0
VERTEX
  8
0
 10
0.837022
 20
1.02252
 30
0.0
 40
0.00393701
 41
0.00393701
  0
VERTEX
  8
0
 10
0.864421
 20
0.981825
 30
0.0
 40
0.00393701
 41
0.00393701
  0
VERTEX
  8
0
 10
0.874511
 20
0.931967
 30
0.0
 40
0.00393701
 41
0.00393701
  0
SEQEND
 8
0
  0
POLYLINE
  8
0
 62
     0
 66
     1
 10
0
 20
0
 30
0.0
 70
     1
 40
0.283465
 41
0.283465
  0
VERTEX
  8
0
 10
1.37451
 20
0.931967
 30
0.0
 40
0.00393701
 41
0.00393701
  0
VERTEX
  8
0
 10
1.36442
 20
0.882215
 30
0.0
 40
0.00393701
 41
0.00393701
  0
VERTEX
  8
0
 10
1.33702
 20
0.841525
 30
0.0
 40
0.00393701
 41
0.00393701
  0
VERTEX
  8
0
 10
1.29633
 20
0.814128
 30
0.0
 40
0.00393701
 41
0.00393701
  0
VERTEX
  8
0
 10
1.24658
 20
0.804036
 30
0.0
 40
0.00393701
 41
0.00393701
  0
VERTEX
  8
0
 10
1.19672
 20
0.814128
 30
0.0
 40
0.00393701
 41
0.00393701
  0
VERTEX
  8
0
 10
1.15603
 20
0.841525
 30
0.0
 40
0.00393701
 41
0.00393701
  0
VERTEX
  8
0
 10
1.12863
 20
0.882215
 30
0.0
 40
0.00393701
 41
0.00393701
  0
VERTEX
  8
0
 10
1.1186
 20
0.931967
 30
0.0
 40
0.00393701
 41
0.00393701
  0
VERTEX
  8
0
 10
1.12863
 20
0.981825
 30
0.0
 40
0.00393701
 41
0.00393701
  0
VERTEX
  8
0
 10
1.15603
 20
1.02252
 30
0.0
 40
0.00393701
 41
0.00393701
  0
VERTEX
  8
0
 10
1.19672
 20
1.04991
 30
0.0
 40
0.00393701
 41
0.00393701
  0
VERTEX
  8
0
 10
1.24658
 20
1.05995
 30
0.0
 40
0.00393701
 41
0.00393701
  0
VERTEX
  8
0
 10
1.29633
 20
1.04991
 30
0.0
 40
0.00393701
 41
0.00393701
  0
VERTEX
  8
0
 10
1.33702
 20
1.02252
 30
0.0
 40
0.00393701
 41
0.00393701
  0
VERTEX
  8
0
 10
1.36442
 20
0.981825
 30
0.0
 40
0.00393701
 41
0.00393701
  0
VERTEX
  8
0
 10
1.37451
 20
0.931967
 30
0.0
 40
0.00393701
 41
0.00393701
  0
SEQEND
 8
0
  0
POLYLINE
  8
0
 62
     0
 66
     1
 10
0
 20
0
 30
0.0
 70
     1
 40
0.283465
 41
0.283465
  0
VERTEX
  8
0
 10
1.87451
 20
0.931967
 30
0.0
 40
0.00393701
 41
0.00393701
  0
VERTEX
  8
0
 10
1.86442
 20
0.882215
 30
0.0
 40
0.00393701
 41
0.00393701
  0
VERTEX
  8
0
 10
1.83703
 20
0.841525
 30
0.0
 40
0.00393701
 41
0.00393701
  0
VERTEX
  8
0
 10
1.79633
 20
0.814128
 30
0.0
 40
0.00393701
 41
0.00393701
  0
VERTEX
  8
0
 10
1.74658
 20
0.804036
 30
0.0
 40
0.00393701
 41
0.00393701
  0
VERTEX
  8
0
 10
1.69672
 20
0.814128
 30
0.0
 40
0.00393701
 41
0.00393701
  0
VERTEX
  8
0
 10
1.65603
 20
0.841525
 30
0.0
 40
0.00393701
 41
0.00393701
  0
VERTEX
  8
0
 10
1.62864
 20
0.882215
 30
0.0
 40
0.00393701
 41
0.00393701
  0
VERTEX
  8
0
 10
1.6186
 20
0.931967
 30
0.0
 40
0.00393701
 41
0.00393701
  0
VERTEX
  8
0
 10
1.62864
 20
0.981825
 30
0.0
 40
0.00393701
 41
0.00393701
  0
VERTEX
  8
0
 10
1.65603
 20
1.02252
 30
0.0
 40
0.00393701
 41
0.00393701
  0
VERTEX
  8
0
 10
1.69672
 20
1.04991
 30
0.0
 40
0.00393701
 41
0.00393701
  0
VERTEX
  8
0
 10
1.74658
 20
1.05995
 30
0.0
 40
0.00393701
 41
0.00393701
  0
VERTEX
  8
0
 10
1.79633
 20
1.04991
 30
0.0
 40
0.00393701
 41
0.00393701
  0
VERTEX
  8
0
 10
1.83703
 20
1.02252
 30
0.0
 40
0.00393701
 41
0.00393701
  0
VERTEX
  8
0
 10
1.86442
 20
0.981825
 30
0.0
 40
0.00393701
 41
0.00393701
  0
VERTEX
  8
0
 10
1.87451
 20
0.931967
 30
0.0
 40
0.00393701
 41
0.00393701
  0
SEQEND
 8
0
  0
POLYLINE
  8
0
 62
     0
 66
     1
 10
0
 20
0
 30
0.0
 70
     1
 40
0.283465
 41
0.283465
  0
VERTEX
  8
0
 10
2.37451
 20
0.931967
 30
0.0
 40
0.00393701
 41
0.00393701
  0
VERTEX
  8
0
 10
2.36442
 20
0.882215
 30
0.0
 40
0.00393701
 41
0.00393701
  0
VERTEX
  8
0
 10
2.33703
 20
0.841525
 30
0.0
 40
0.00393701
 41
0.00393701
  0
VERTEX
  8
0
 10
2.29633
 20
0.814128
 30
0.0
 40
0.00393701
 41
0.00393701
  0
VERTEX
  8
0
 10
2.24658
 20
0.804036
 30
0.0
 40
0.00393701
 41
0.00393701
  0
VERTEX
  8
0
 10
2.19672
 20
0.814128
 30
0.0
 40
0.00393701
 41
0.00393701
  0
VERTEX
  8
0
 10
2.15603
 20
0.841525
 30
0.0
 40
0.00393701
 41
0.00393701
  0
VERTEX
  8
0
 10
2.12864
 20
0.882215
 30
0.0
 40
0.00393701
 41
0.00393701
  0
VERTEX
  8
0
 10
2.1186
 20
0.931967
 30
0.0
 40
0.00393701
 41
0.00393701
  0
VERTEX
  8
0
 10
2.12864
 20
0.981825
 30
0.0
 40
0.00393701
 41
0.00393701
  0
VERTEX
  8
0
 10
2.15603
 20
1.02252
 30
0.0
 40
0.00393701
 41
0.00393701
  0
VERTEX
  8
0
 10
2.19672
 20
1.04991
 30
0.0
 40
0.00393701
 41
0.00393701
  0
VERTEX
  8
0
 10
2.24658
 20
1.05995
 30
0.0
 40
0.00393701
 41
0.00393701
  0
VERTEX
  8
0
 10
2.29633
 20
1.04991
 30
0.0
 40
0.00393701
 41
0.00393701
  0
VERTEX
  8
0
 10
2.33703
 20
1.02252
 30
0.0
 40
0.00393701
 41
0.00393701
  0
VERTEX
  8
0
 10
2.36442
 20
0.981825
 30
0.0
 40
0.00393701
 41
0.00393701
  0
VERTEX
  8
0
 10
2.37451
 20
0.931967
 30
0.0
 40
0.00393701
 41
0.00393701
  0
SEQEND
 8
0
  0
POLYLINE
  8
0
 62
     0
 66
     1
 10
0
 20
0
 30
0.0
 70
     1
 40
0.283465
 41
0.283465
  0
VERTEX
  8
0
 10
2.87451
 20
0.931967
 30
0.0
 40
0.00393701
 41
0.00393701
  0
VERTEX
  8
0
 10
2.86442
 20
0.882215
 30
0.0
 40
0.00393701
 41
0.00393701
  0
VERTEX
  8
0
 10
2.83703
 20
0.841525
 30
0.0
 40
0.00393701
 41
0.00393701
  0
VERTEX
  8
0
 10
2.79633
 20
0.814128
 30
0.0
 40
0.00393701
 41
0.00393701
  0
VERTEX
  8
0
 10
2.74658
 20
0.804036
 30
0.0
 40
0.00393701
 41
0.00393701
  0
VERTEX
  8
0
 10
2.69672
 20
0.814128
 30
0.0
 40
0.00393701
 41
0.00393701
  0
VERTEX
  8
0
 10
2.65603
 20
0.841525
 30
0.0
 40
0.00393701
 41
0.00393701
  0
VERTEX
  8
0
 10
2.62864
 20
0.882215
 30
0.0
 40
0.00393701
 41
0.00393701
  0
VERTEX
  8
0
 10
2.6186
 20
0.931967
 30
0.0
 40
0.00393701
 41
0.00393701
  0
VERTEX
  8
0
 10
2.62864
 20
0.981825
 30
0.0
 40
0.00393701
 41
0.00393701
  0
VERTEX
  8
0
 10
2.65603
 20
1.02252
 30
0.0
 40
0.00393701
 41
0.00393701
  0
VERTEX
  8
0
 10
2.69672
 20
1.04991
 30
0.0
 40
0.00393701
 41
0.00393701
  0
VERTEX
  8
0
 10
2.74658
 20
1.05995
 30
0.0
 40
0.00393701
 41
0.00393701
  0
VERTEX
  8
0
 10
2.79633
 20
1.04991
 30
0.0
 40
0.00393701
 41
0.00393701
  0
VERTEX
  8
0
 10
2.83703
 20
1.02252
 30
0.0
 40
0.00393701
 41
0.00393701
  0
VERTEX
  8
0
 10
2.86442
 20
0.981825
 30
0.0
 40
0.00393701
 41
0.00393701
  0
VERTEX
  8
0
 10
2.87451
 20
0.931967
 30
0.0
 40
0.00393701
 41
0.00393701
  0
SEQEND
 8
0
  0
POLYLINE
  8
0
 62
     0
 66
     1
 10
0
 20
0
 30
0.0
 70
     1
 40
0.283465
 41
0.283465
  0
VERTEX
  8
0
 10
3.37451
 20
0.931967
 30
0.0
 40
0.00393701
 41
0.00393701
  0
VERTEX
  8
0
 10
3.36442
 20
0.882215
 30
0.0
 40
0.00393701
 41
0.00393701
  0
VERTEX
  8
0
 10
3.33703
 20
0.841525
 30
0.0
 40
0.00393701
 41
0.00393701
  0
VERTEX
  8
0
 10
3.29633
 20
0.814128
 30
0.0
 40
0.00393701
 41
0.00393701
  0
VERTEX
  8
0
 10
3.24658
 20
0.804036
 30
0.0
 40
0.00393701
 41
0.00393701
  0
VERTEX
  8
0
 10
3.19672
 20
0.814128
 30
0.0
 40
0.00393701
 41
0.00393701
  0
VERTEX
  8
0
 10
3.15603
 20
0.841525
 30
0.0
 40
0.00393701
 41
0.00393701
  0
VERTEX
  8
0
 10
3.12864
 20
0.882215
 30
0.0
 40
0.00393701
 41
0.00393701
  0
VERTEX
  8
0
 10
3.1186
 20
0.931967
 30
0.0
 40
0.00393701
 41
0.00393701
  0
VERTEX
  8
0
 10
3.12864
 20
0.981825
 30
0.0
 40
0.00393701
 41
0.00393701
  0
VERTEX
  8
0
 10
3.15603
 20
1.02252
 30
0.0
 40
0.00393701
 41
0.00393701
  0
VERTEX
  8
0
 10
3.19672
 20
1.04991
 30
0.0
 40
0.00393701
 41
0.00393701
  0
VERTEX
  8
0
 10
3.24658
 20
1.05995
 30
0.0
 40
0.00393701
 41
0.00393701
  0
VERTEX
  8
0
 10
3.29633
 20
1.04991
 30
0.0
 40
0.00393701
 41
0.00393701
  0
VERTEX
  8
0
 10
3.33703
 20
1.02252
 30
0.0
 40
0.00393701
 41
0.00393701
  0
VERTEX
  8
0
 10
3.36442
 20
0.981825
 30
0.0
 40
0.00393701
 41
0.00393701
  0
VERTEX
  8
0
 10
3.37451
 20
0.931967
 30
0.0
 40
0.00393701
 41
0.00393701
  0
SEQEND
 8
0
  0
POLYLINE
  8
0
 62
     0
 66
     1
 10
0
 20
0
 30
0.0
 70
     1
 40
0.283465
 41
0.283465
  0
VERTEX
  8
0
 10
3.87451
 20
0.931967
 30
0.0
 40
0.00393701
 41
0.00393701
  0
VERTEX
  8
0
 10
3.86442
 20
0.882215
 30
0.0
 40
0.00393701
 41
0.00393701
  0
VERTEX
  8
0
 10
3.83703
 20
0.841525
 30
0.0
 40
0.00393701
 41
0.00393701
  0
VERTEX
  8
0
 10
3.79633
 20
0.814128
 30
0.0
 40
0.00393701
 41
0.00393701
  0
VERTEX
  8
0
 10
3.74658
 20
0.804036
 30
0.0
 40
0.00393701
 41
0.00393701
  0
VERTEX
  8
0
 10
3.69672
 20
0.814128
 30
0.0
 40
0.00393701
 41
0.00393701
  0
VERTEX
  8
0
 10
3.65603
 20
0.841525
 30
0.0
 40
0.00393701
 41
0.00393701
  0
VERTEX
  8
0
 10
3.62864
 20
0.882215
 30
0.0
 40
0.00393701
 41
0.00393701
  0
VERTEX
  8
0
 10
3.6186
 20
0.931967
 30
0.0
 40
0.00393701
 41
0.00393701
  0
VERTEX
  8
0
 10
3.62864
 20
0.981825
 30
0.0
 40
0.00393701
 41
0.00393701
  0
VERTEX
  8
0
 10
3.65603
 20
1.02252
 30
0.0
 40
0.00393701
 41
0.00393701
  0
VERTEX
  8
0
 10
3.69672
 20
1.04991
 30
0.0
 40
0.00393701
 41
0.00393701
  0
VERTEX
  8
0
 10
3.74658
 20
1.05995
 30
0.0
 40
0.00393701
 41
0.00393701
  0
VERTEX
  8
0
 10
3.79633
 20
1.04991
 30
0.0
 40
0.00393701
 41
0.00393701
  0
VERTEX
  8
0
 10
3.83703
 20
1.02252
 30
0.0
 40
0.00393701
 41
0.00393701
  0
VERTEX
  8
0
 10
3.86442
 20
0.981825
 30
0.0
 40
0.00393701
 41
0.00393701
  0
VERTEX
  8
0
 10
3.87451
 20
0.931967
 30
0.0
 40
0.00393701
 41
0.00393701
  0
SEQEND
 8
0
  0
ENDSEC
  0
EOF
