<?xml version="1.0" encoding="UTF-8" standalone="no"?>
<!-- Created with Inkscape (http://www.inkscape.org/) -->

<svg
   xmlns:dc="http://purl.org/dc/elements/1.1/"
   xmlns:cc="http://creativecommons.org/ns#"
   xmlns:rdf="http://www.w3.org/1999/02/22-rdf-syntax-ns#"
   xmlns:svg="http://www.w3.org/2000/svg"
   xmlns="http://www.w3.org/2000/svg"
   xmlns:sodipodi="http://sodipodi.sourceforge.net/DTD/sodipodi-0.dtd"
   xmlns:inkscape="http://www.inkscape.org/namespaces/inkscape"
   width="210mm"
   height="297mm"
   viewBox="0 0 210 297"
   version="1.1"
   id="svg8"
   inkscape:version="0.92.1 r15371"
   sodipodi:docname="MagusSidePanelWood.svg">
  <defs
     id="defs2">
    <marker
       style="overflow:visible"
       refY="0.0"
       refX="0.0"
       orient="auto"
       id="DistanceX">
      <path
         id="path73"
         style="stroke:#000000; stroke-width:0.5"
         d="M 3,-3 L -3,3 M 0,-5 L  0,5" />
    </marker>
    <pattern
       y="0"
       x="0"
       width="8"
       patternUnits="userSpaceOnUse"
       id="Hatch"
       height="8">
      <path
         id="path76"
         stroke-width="0.25"
         stroke="#000000"
         linecap="square"
         d="M8 4 l-4,4" />
      <path
         id="path78"
         stroke-width="0.25"
         stroke="#000000"
         linecap="square"
         d="M6 2 l-4,4" />
      <path
         id="path80"
         stroke-width="0.25"
         stroke="#000000"
         linecap="square"
         d="M4 0 l-4,4" />
    </pattern>
    <symbol
       id="*MODEL_SPACE" />
    <symbol
       id="*PAPER_SPACE" />
    <clipPath
       clipPathUnits="userSpaceOnUse"
       id="clipPath2511">
      <path
         id="path2513"
         style="fill:none;stroke:#000000;stroke-width:0.26458332"
         d="m 618.56442,450.72536 -513.50157,-0.6465 A 21.259842,21.259842 0 0 1 83.803013,428.81899 v -70.65938 a 21.259842,21.259842 0 0 1 18.668947,-21.10134 l 499.58858,-61.3418 a 33.661418,33.661418 0 0 1 37.76375,33.41049 v 120.33853 a 21.259842,21.259842 0 0 1 -21.25987,21.25987 z"
         inkscape:connector-curvature="0" />
    </clipPath>
  </defs>
  <sodipodi:namedview
     id="base"
     pagecolor="#ffffff"
     bordercolor="#666666"
     borderopacity="1.0"
     inkscape:pageopacity="0.0"
     inkscape:pageshadow="2"
     inkscape:zoom="1.1811761"
     inkscape:cx="203.50807"
     inkscape:cy="815.94823"
     inkscape:document-units="mm"
     inkscape:current-layer="layer1"
     showgrid="false"
     inkscape:window-width="1920"
     inkscape:window-height="1016"
     inkscape:window-x="0"
     inkscape:window-y="27"
     inkscape:window-maximized="1" />
  <metadata
     id="metadata5">
    <rdf:RDF>
      <cc:Work
         rdf:about="">
        <dc:format>image/svg+xml</dc:format>
        <dc:type
           rdf:resource="http://purl.org/dc/dcmitype/StillImage" />
        <dc:title />
      </cc:Work>
    </rdf:RDF>
  </metadata>
  <g
     inkscape:label="Layer 1"
     inkscape:groupmode="layer"
     id="layer1">
    <text
       id="text2656"
       y="19.306961"
       x="31.003265"
       style="font-style:normal;font-weight:normal;font-size:4.23333311px;line-height:1.25;font-family:sans-serif;letter-spacing:0px;word-spacing:0px;fill:#000000;fill-opacity:1;stroke:none;stroke-width:0.26458332"
       xml:space="preserve"><tspan
         style="stroke-width:0.26458332"
         y="19.306961"
         x="31.003265"
         id="tspan2654"
         sodipodi:role="line">Red lines: drill</tspan><tspan
         id="tspan2660"
         style="stroke-width:0.26458332"
         y="24.598627"
         x="31.003265"
         sodipodi:role="line">Blue lines: cut and bevel edge</tspan><tspan
         style="stroke-width:0.26458332"
         y="29.890293"
         x="31.003265"
         sodipodi:role="line"
         id="tspan4516">Material: 8mm Solid Cherry Wood</tspan><tspan
         style="stroke-width:0.26458332"
         y="35.181961"
         x="31.003265"
         sodipodi:role="line"
         id="tspan4683" /><tspan
         id="tspan2662"
         style="stroke-width:0.26458332"
         y="40.473625"
         x="31.003265"
         sodipodi:role="line">Object width: 161.2mm</tspan><tspan
         id="tspan2664"
         style="stroke-width:0.26458332"
         y="45.765293"
         x="31.003265"
         sodipodi:role="line">Object height: 53.7mm</tspan></text>
    <rect
       style="fill:#ffffff;fill-opacity:1;stroke:#000000;stroke-width:0.26499999;stroke-miterlimit:4;stroke-dasharray:none;stroke-opacity:1"
       id="rect4512"
       width="100"
       height="100"
       x="57.195679"
       y="176.6711" />
    <text
       xml:space="preserve"
       style="font-style:normal;font-weight:normal;font-size:4.23333311px;line-height:1.25;font-family:sans-serif;letter-spacing:0px;word-spacing:0px;fill:#000000;fill-opacity:1;stroke:none;stroke-width:0.26458332"
       x="76.401474"
       y="225.17841"
       id="text4516"><tspan
         sodipodi:role="line"
         id="tspan4514"
         x="76.401474"
         y="225.17841"
         style="stroke-width:0.26458332">Reference 100mm x 100mm</tspan></text>
    <g
       style="stroke:#ff0000;stroke-width:1.00157475;stroke-miterlimit:4;stroke-dasharray:none"
       transform="matrix(0.26458333,0,0,0.26458333,26.961842,-216.03321)"
       inkscape:label="0"
       id="g6304">
      <path
         inkscape:connector-curvature="0"
         d="m 37.121973,1111.3737 a 6.614173,6.614173 0 1 0 -13.228346,0 6.614173,6.614173 0 1 0 13.228346,0 z"
         style="fill:#ffffff;fill-opacity:1;stroke:#ff0000;stroke-width:1.00157475;stroke-miterlimit:4;stroke-dasharray:none"
         id="path6298" />
      <path
         inkscape:connector-curvature="0"
         d="m 554.64567,1050.7723 a 6.614173,6.6078826 0 1 0 -13.22834,0 6.614173,6.6078826 0 1 0 13.22834,0 z"
         style="fill:#ffffff;fill-opacity:1;stroke:#ff0000;stroke-width:1.00157475;stroke-miterlimit:4;stroke-dasharray:none"
         id="path6300" />
      <path
         sodipodi:nodetypes="ccsssscsc"
         inkscape:connector-curvature="0"
         d="M 569.91746,1183.6827 8.2189143,1182.9373 c -12.8435397,0 -23.2552803,-10.9741 -23.2552803,-24.5113 v -85.2446 c 0,-12.382 8.7512171,-22.899 20.4211748,-24.3286 L 551.86455,981.9082 c 21.96941,-2.69129 41.30816,15.21032 41.3082,38.5202 v 138.743 c 0,13.5372 -10.41175,24.5113 -23.25529,24.5113 z"
         style="fill:none;stroke:#0000ff;stroke-width:1.00157475;stroke-miterlimit:4;stroke-dasharray:none"
         id="path6302" />
    </g>
    <g
       id="g6312"
       inkscape:label="0"
       transform="matrix(-0.26458333,0,0,0.26458333,179.92709,-147.2415)"
       style="stroke:#ff0000;stroke-width:1.00157475;stroke-miterlimit:4;stroke-dasharray:none">
      <path
         id="path6306"
         style="fill:#ffffff;fill-opacity:1;stroke:#ff0000;stroke-width:1.00157475;stroke-miterlimit:4;stroke-dasharray:none"
         d="m 37.121973,1111.3737 a 6.614173,6.614173 0 1 0 -13.228346,0 6.614173,6.614173 0 1 0 13.228346,0 z"
         inkscape:connector-curvature="0" />
      <path
         id="path6308"
         style="fill:#ffffff;fill-opacity:1;stroke:#ff0000;stroke-width:1.00157475;stroke-miterlimit:4;stroke-dasharray:none"
         d="m 554.64567,1050.7723 a 6.614173,6.6078826 0 1 0 -13.22834,0 6.614173,6.6078826 0 1 0 13.22834,0 z"
         inkscape:connector-curvature="0" />
      <path
         id="path6310"
         style="fill:none;stroke:#0000ff;stroke-width:1.00157475;stroke-miterlimit:4;stroke-dasharray:none"
         d="M 569.91746,1183.6827 8.2189143,1182.9373 c -12.8435397,0 -23.2552803,-10.9741 -23.2552803,-24.5113 v -85.2446 c 0,-12.382 8.7512171,-22.899 20.4211748,-24.3286 L 551.86455,981.9082 c 21.96941,-2.69129 41.30816,15.21032 41.3082,38.5202 v 138.743 c 0,13.5372 -10.41175,24.5113 -23.25529,24.5113 z"
         inkscape:connector-curvature="0"
         sodipodi:nodetypes="ccsssscsc" />
    </g>
  </g>
</svg>
