<?xml version="1.0" encoding="UTF-8" standalone="no"?>
<svg
   xmlns:dc="http://purl.org/dc/elements/1.1/"
   xmlns:cc="http://creativecommons.org/ns#"
   xmlns:rdf="http://www.w3.org/1999/02/22-rdf-syntax-ns#"
   xmlns:svg="http://www.w3.org/2000/svg"
   xmlns="http://www.w3.org/2000/svg"
   xmlns:sodipodi="http://sodipodi.sourceforge.net/DTD/sodipodi-0.dtd"
   xmlns:inkscape="http://www.inkscape.org/namespaces/inkscape"
   version="1.1"
   width="210mm"
   height="297mm"
   viewBox="0 0 210 297"
   id="svg8437"
   inkscape:version="0.91 r13725"
   sodipodi:docname="MagusProtoCase.svg">
  <metadata
     id="metadata8549">
    <rdf:RDF>
      <cc:Work
         rdf:about="">
        <dc:format>image/svg+xml</dc:format>
        <dc:type
           rdf:resource="http://purl.org/dc/dcmitype/StillImage" />
        <dc:title />
      </cc:Work>
    </rdf:RDF>
  </metadata>
  <sodipodi:namedview
     id="base"
     inkscape:document-units="mm"
     units="mm"
     showgrid="false"
     inkscape:zoom="0.58120957"
     inkscape:cx="364.96063"
     inkscape:cy="303.36741"
     inkscape:window-width="1615"
     inkscape:window-height="1026"
     inkscape:window-x="65"
     inkscape:window-y="24"
     inkscape:window-maximized="1"
     inkscape:current-layer="svg8437" />
  <defs
     id="defs8440">
    <g
       id="potgrading" />
  </defs>
  <g
     style="fill:none;stroke:#000000;stroke-width:0.05"
     id="g8443"
     transform="translate(54.349999,84.250001)">
    <rect
       x="32.124001"
       y="30.362"
       width="37.051998"
       height="19.516001"
       style="fill:none;stroke:#000000"
       id="rect8455" />
    <circle
       cx="12.55"
       cy="40.119999"
       r="3.75"
       style="fill:none;stroke:#000000"
       id="circle8457" />
    <circle
       cx="88.75"
       cy="40.119999"
       r="3.75"
       style="fill:none;stroke:#000000"
       id="circle8459" />
    <circle
       cx="12.55"
       cy="65.519997"
       r="3.75"
       style="fill:none;stroke:#000000"
       id="circle8461" />
    <circle
       cx="37.950001"
       cy="65.519997"
       r="3.75"
       style="fill:none;stroke:#000000"
       id="circle8463" />
    <circle
       cx="63.349998"
       cy="65.519997"
       r="3.75"
       style="fill:none;stroke:#000000"
       id="circle8465" />
    <circle
       cx="88.75"
       cy="65.519997"
       r="3.75"
       style="fill:none;stroke:#000000"
       id="circle8467" />
    <rect
       x="4.6999998"
       y="83.07"
       width="3"
       height="3"
       style="fill:none;stroke:#000000"
       id="rect8469" />
    <rect
       x="17.4"
       y="83.07"
       width="3"
       height="3"
       style="fill:none;stroke:#000000"
       id="rect8471" />
    <rect
       x="30.1"
       y="83.07"
       width="3"
       height="3"
       style="fill:none;stroke:#000000"
       id="rect8473" />
    <rect
       x="42.799999"
       y="83.07"
       width="3"
       height="3"
       style="fill:none;stroke:#000000"
       id="rect8475" />
    <rect
       x="55.5"
       y="83.07"
       width="3"
       height="3"
       style="fill:none;stroke:#000000"
       id="rect8477" />
    <rect
       x="68.199997"
       y="83.07"
       width="3"
       height="3"
       style="fill:none;stroke:#000000"
       id="rect8479" />
    <rect
       x="80.900002"
       y="83.07"
       width="3"
       height="3"
       style="fill:none;stroke:#000000"
       id="rect8481" />
    <rect
       x="93.599998"
       y="83.07"
       width="3"
       height="3"
       style="fill:none;stroke:#000000"
       id="rect8483" />
    <rect
       x="4.6999998"
       y="111.01"
       width="3"
       height="3"
       style="fill:none;stroke:#000000"
       id="rect8485" />
    <rect
       x="17.4"
       y="111.01"
       width="3"
       height="3"
       style="fill:none;stroke:#000000"
       id="rect8487" />
    <rect
       x="30.1"
       y="111.01"
       width="3"
       height="3"
       style="fill:none;stroke:#000000"
       id="rect8489" />
    <rect
       x="42.799999"
       y="111.01"
       width="3"
       height="3"
       style="fill:none;stroke:#000000"
       id="rect8491" />
    <rect
       x="55.5"
       y="111.01"
       width="3"
       height="3"
       style="fill:none;stroke:#000000"
       id="rect8493" />
    <rect
       x="68.199997"
       y="111.01"
       width="3"
       height="3"
       style="fill:none;stroke:#000000"
       id="rect8495" />
    <rect
       x="80.900002"
       y="111.01"
       width="3"
       height="3"
       style="fill:none;stroke:#000000"
       id="rect8497" />
    <rect
       x="93.599998"
       y="111.01"
       width="3"
       height="3"
       style="fill:none;stroke:#000000"
       id="rect8499" />
    <circle
       cx="6.1999998"
       cy="19.799999"
       r="3.25"
       style="fill:none;stroke:#000000"
       id="circle8501" />
    <circle
       cx="18.9"
       cy="19.799999"
       r="3.25"
       style="fill:none;stroke:#000000"
       id="circle8503" />
    <circle
       cx="31.6"
       cy="19.799999"
       r="3.25"
       style="fill:none;stroke:#000000"
       id="circle8505" />
    <circle
       cx="44.299999"
       cy="19.799999"
       r="3.25"
       style="fill:none;stroke:#000000"
       id="circle8507" />
    <circle
       cx="57"
       cy="19.799999"
       r="3.25"
       style="fill:none;stroke:#000000"
       id="circle8509" />
    <circle
       cx="69.699997"
       cy="19.799999"
       r="3.25"
       style="fill:none;stroke:#000000"
       id="circle8511" />
    <circle
       cx="82.400002"
       cy="19.799999"
       r="3.25"
       style="fill:none;stroke:#000000"
       id="circle8513" />
    <circle
       cx="95.099998"
       cy="19.799999"
       r="3.25"
       style="fill:none;stroke:#000000"
       id="circle8515" />
    <circle
       cx="6.1999998"
       cy="92.190002"
       r="3.25"
       style="fill:none;stroke:#000000"
       id="circle8517" />
    <circle
       cx="18.9"
       cy="92.190002"
       r="3.25"
       style="fill:none;stroke:#000000"
       id="circle8519" />
    <circle
       cx="31.6"
       cy="92.190002"
       r="3.25"
       style="fill:none;stroke:#000000"
       id="circle8521" />
    <circle
       cx="44.299999"
       cy="92.190002"
       r="3.25"
       style="fill:none;stroke:#000000"
       id="circle8523" />
    <circle
       cx="57"
       cy="92.190002"
       r="3.25"
       style="fill:none;stroke:#000000"
       id="circle8525" />
    <circle
       cx="69.699997"
       cy="92.190002"
       r="3.25"
       style="fill:none;stroke:#000000"
       id="circle8527" />
    <circle
       cx="82.400002"
       cy="92.190002"
       r="3.25"
       style="fill:none;stroke:#000000"
       id="circle8529" />
    <circle
       cx="95.099998"
       cy="92.190002"
       r="3.25"
       style="fill:none;stroke:#000000"
       id="circle8531" />
    <circle
       cx="6.1999998"
       cy="104.89"
       r="3.25"
       style="fill:none;stroke:#000000"
       id="circle8533" />
    <circle
       cx="18.9"
       cy="104.89"
       r="3.25"
       style="fill:none;stroke:#000000"
       id="circle8535" />
    <circle
       cx="31.6"
       cy="104.89"
       r="3.25"
       style="fill:none;stroke:#000000"
       id="circle8537" />
    <circle
       cx="44.299999"
       cy="104.89"
       r="3.25"
       style="fill:none;stroke:#000000"
       id="circle8539" />
    <circle
       cx="57"
       cy="104.89"
       r="3.25"
       style="fill:none;stroke:#000000"
       id="circle8541" />
    <circle
       cx="69.699997"
       cy="104.89"
       r="3.25"
       style="fill:none;stroke:#000000"
       id="circle8543" />
    <circle
       cx="82.400002"
       cy="104.89"
       r="3.25"
       style="fill:none;stroke:#000000"
       id="circle8545" />
    <circle
       cx="95.099998"
       cy="104.89"
       r="3.25"
       style="fill:none;stroke:#000000"
       id="circle8547" />
  </g>
  <path
     style="fill:none;stroke:#000000;stroke-width:0.05"
     d="m 37.5,76 25.061111,0 0,3 84.877779,0 0,-3 25.06111,0 0,38.85 -3,-2.5e-4 0,67.3 3,2.5e-4 0,38.85 -36.35,0 0,-3 -62.3,0 0,3 -36.35,0 0,-38.85 3,2.5e-4 0,-67.3 -3,-2.5e-4 z"
     id="rect4191"
     inkscape:connector-curvature="0"
     sodipodi:nodetypes="ccccccccccccccccccccc" />
  <path
     sodipodi:nodetypes="ccccccccccccccccccccc"
     inkscape:connector-curvature="0"
     id="path4302"
     d="m 40.5,233 33.25,0 0,-2 62.5,0 0,2 33.25,0 0,7.70588 3,0 0,16.58817 -3,7e-5 0,7.70588 -33.25,0 0,2 -62.5,0 0,-2 -33.25,0 0,-7.70588 -3,6e-5 0,-16.58823 3,-7e-5 z"
     style="fill:none;stroke:#000000;stroke-width:0.05" />
  <path
     sodipodi:nodetypes="ccccccccccccccccccccc"
     inkscape:connector-curvature="0"
     id="path4306"
     d="m 182,76.000001 7.70588,0 0,3 16.58824,0 0,-3 7.70588,0 0,38.749999 2,-2.5e-4 0,67.5 -2,2.5e-4 0,38.75 -7.70588,0 0,-3 -16.58824,0 0,3 -7.70588,0 0,-38.75 -2,2.5e-4 0,-67.5 2,-2.5e-4 z"
     style="fill:none;stroke:#000000;stroke-width:0.05" />
  <path
     style="fill:none;stroke:#000000;stroke-width:0.05"
     d="m 169.5,60 -21.96111,0 0,2 c 0.65053,0.16387 1.38288,2.064444 1.38288,2.064444 L 114.98056,72 c 0,0 -0.81409,-10 -9.98056,-10 -9.16647,0 -9.98056,10 -9.98056,10 L 61.078231,64.064444 c 0,0 0.664088,-2.064444 1.38288,-2.064444 l 0,-2 L 40.5,60 l 0,-7.705888 -3,0 0,-16.588178 3,-7e-5 0,-7.705888 33.25,2.4e-5 0,-2.000024 62.5,0 0,2 33.25,0 0,7.705888 3,-6e-5 0,16.588238 -3,7e-5 z"
     id="path4315"
     inkscape:connector-curvature="0"
     sodipodi:nodetypes="ccccczcccccccccccccccccccc" />
  <path
     style="fill:none;stroke:#000000;stroke-width:0.05"
     d="m 24.000025,76.000001 -7.705884,0 0,3 -16.588253,0 0,-3 -7.705888,0 0,38.749999 -2,-2.5e-4 0,67.5 2,2.5e-4 0,38.75 7.705888,0 0,-3 16.588253,0 0,3 7.705884,0 0,-38.75 2,2.5e-4 0,-67.5 -2,-2.5e-4 z"
     id="path4317"
     inkscape:connector-curvature="0"
     sodipodi:nodetypes="ccccccccccccccccccccc" />
  <path
     style="opacity:0.98000004;fill:none;fill-opacity:1;fill-rule:nonzero;stroke:#000000;stroke-width:0.05;stroke-miterlimit:4;stroke-dasharray:none;stroke-dashoffset:0;stroke-opacity:1"
     d="m 72.5,32 -9,0 0,12 9,0 z"
     id="rect4319"
     inkscape:connector-curvature="0" />
  <path
     inkscape:connector-curvature="0"
     id="path4322"
     d="m 61.000006,250 13.000008,0 0,11 -13.000008,0 z"
     style="opacity:0.98000004;fill:none;fill-opacity:1;fill-rule:nonzero;stroke:#000000;stroke-width:0.05;stroke-miterlimit:4;stroke-dasharray:none;stroke-dashoffset:0;stroke-opacity:1" />
  <path
     style="opacity:0.98000004;fill:none;fill-opacity:1;fill-rule:nonzero;stroke:#000000;stroke-width:0.05;stroke-miterlimit:4;stroke-dasharray:none;stroke-dashoffset:0;stroke-opacity:1"
     d="M 135.00001,255 149,255 l 0,6 -13.99999,0 z"
     id="path4324"
     inkscape:connector-curvature="0" />
  <path
     sodipodi:nodetypes="ccccccccccccccccccccc"
     inkscape:connector-curvature="0"
     id="path4326"
     d="m 37.5,272.00002 36.35,0 0,3 62.3,0 0,-3 36.35,0 0,38.84998 -3,-2.5e-4 0,67.3 3,2.5e-4 0,38.85 -36.35,0 0,-3 -62.3,0 0,3 -36.35,0 0,-38.85 3,2.5e-4 0,-67.3 -3,-2.5e-4 z"
     style="fill:none;stroke:#000000;stroke-width:0.05" />
  <path
     sodipodi:nodetypes="ccccccccc"
     inkscape:connector-curvature="0"
     id="path6554"
     d="m 190.49999,16.799999 3.2,0 0.10001,2.200002 0.39999,0 -0.6,7.999999 -3.00001,0 -0.59999,-7.999999 0.40001,0 z"
     style="fill:none;stroke:#000000;stroke-width:0.05;stroke-miterlimit:4;stroke-dasharray:none;stroke-opacity:1" />
  <text
     xml:space="preserve"
     style="font-style:normal;font-variant:normal;font-weight:normal;font-stretch:normal;font-size:2.82222223px;line-height:125%;font-family:'Helvetica LT Std';-inkscape-font-specification:'Helvetica LT Std';letter-spacing:0px;word-spacing:0px;fill:#000000;fill-opacity:1;stroke:none;stroke-width:1px;stroke-linecap:butt;stroke-linejoin:miter;stroke-opacity:1"
     x="182.63501"
     y="7.8851781"
     id="text8492"
     sodipodi:linespacing="125%"><tspan
       sodipodi:role="line"
       x="182.63501"
       y="7.8851781"
       id="tspan8510">Ligtpipes x 16</tspan><tspan
       sodipodi:role="line"
       x="182.63501"
       y="11.412955"
       id="tspan8508">3mm opal</tspan></text>
  <text
     sodipodi:linespacing="125%"
     id="text6574-6"
     y="8.4322596"
     x="2.3124862"
     style="font-style:normal;font-variant:normal;font-weight:normal;font-stretch:normal;font-size:2.82222223px;line-height:125%;font-family:'Helvetica LT Std';-inkscape-font-specification:'Helvetica LT Std';letter-spacing:0px;word-spacing:0px;fill:#000000;fill-opacity:1;stroke:none;stroke-width:1px;stroke-linecap:butt;stroke-linejoin:miter;stroke-opacity:1"
     xml:space="preserve"><tspan
       id="tspan6576-7"
       y="8.4322596"
       x="2.3124862"
       sodipodi:role="line">Top and bottom 2mm black</tspan><tspan
       y="11.960037"
       x="2.3124862"
       sodipodi:role="line"
       id="tspan8506">Sides 3mm black frost</tspan></text>
</svg>
