  0
SECTION
  2
HEADER
  9
$ACADVER
  1
AC1014
  9
$HANDSEED
  5
FFFF
  9
$MEASUREMENT
 70
     1
  0
ENDSEC
  0
SECTION
  2
TABLES
  0
TABLE
  2
VPORT
  5
8
330
0
100
AcDbSymbolTable
 70
     4
  0
VPORT
  5
2E
330
8
100
AcDbSymbolTableRecord
100
AcDbViewportTableRecord
  2
*ACTIVE
 70
     0
 10
0.0
 20
0.0
 11
1.0
 21
1.0
 12
210.0
 22
148.5
 13
0.0
 23
0.0
 14
10.0
 24
10.0
 15
10.0
 25
10.0
 16
0.0
 26
0.0
 36
1.0
 17
0.0
 27
0.0
 37
0.0
 40
341.0
 41
1.24
 42
50.0
 43
0.0
 44
0.0
 50
0.0
 51
0.0
 71
     0
 72
   100
 73
     1
 74
     3
 75
     0
 76
     0
 77
     0
 78
     0
  0
ENDTAB
  0
TABLE
  2
LTYPE
  5
5
330
0
100
AcDbSymbolTable
 70
     1
  0
LTYPE
  5
14
330
5
100
AcDbSymbolTableRecord
100
AcDbLinetypeTableRecord
  2
BYBLOCK
 70
     0
  3

 72
    65
 73
     0
 40
0.0
  0
LTYPE
  5
15
330
5
100
AcDbSymbolTableRecord
100
AcDbLinetypeTableRecord
  2
BYLAYER
 70
     0
  3

 72
    65
 73
     0
 40
0.0
  0
LTYPE
  5
16
330
5
100
AcDbSymbolTableRecord
100
AcDbLinetypeTableRecord
  2
CONTINUOUS
 70
     0
  3
Solid line
 72
    65
 73
     0
 40
0.0
  0
ENDTAB
  0
TABLE
  2
LAYER
  5
2
100
AcDbSymbolTable
 70
1
  0
LAYER
  5
50
100
AcDbSymbolTableRecord
100
AcDbLayerTableRecord
  2
0
 70
0
  6
CONTINUOUS
  0
ENDTAB
  0
TABLE
  2
STYLE
  5
3
330
0
100
AcDbSymbolTable
 70
     1
  0
STYLE
  5
11
330
3
100
AcDbSymbolTableRecord
100
AcDbTextStyleTableRecord
  2
STANDARD
 70
     0
 40
0.0
 41
1.0
 50
0.0
 71
     0
 42
2.5
  3
txt
  4

  0
ENDTAB
  0
TABLE
  2
VIEW
  5
6
330
0
100
AcDbSymbolTable
 70
     0
  0
ENDTAB
  0
TABLE
  2
UCS
  5
7
330
0
100
AcDbSymbolTable
 70
     0
  0
ENDTAB
  0
TABLE
  2
APPID
  5
9
330
0
100
AcDbSymbolTable
 70
     2
  0
APPID
  5
12
330
9
100
AcDbSymbolTableRecord
100
AcDbRegAppTableRecord
  2
ACAD
 70
     0
  0
ENDTAB
  0
TABLE
  2
DIMSTYLE
  5
A
330
0
100
AcDbSymbolTable
 70
     1
  0
DIMSTYLE
105
27
330
A
100
AcDbSymbolTableRecord
100
AcDbDimStyleTableRecord
  2
ISO-25
 70
     0
  3

  4

  5

  6

  7

 40
1.0
 41
2.5
 42
0.625
 43
3.75
 44
1.25
 45
0.0
 46
0.0
 47
0.0
 48
0.0
140
2.5
141
2.5
142
0.0
143
0.03937007874016
144
1.0
145
0.0
146
1.0
147
0.625
 71
     0
 72
     0
 73
     0
 74
     0
 75
     0
 76
     0
 77
     1
 78
     8
170
     0
171
     3
172
     1
173
     0
174
     0
175
     0
176
     0
177
     0
178
     0
270
     2
271
     2
272
     2
273
     2
274
     3
340
11
275
     0
280
     0
281
     0
282
     0
283
     0
284
     8
285
     0
286
     0
287
     3
288
     0
  0
ENDTAB
  0
TABLE
  2
BLOCK_RECORD
  5
1
330
0
100
AcDbSymbolTable
 70
     1
  0
BLOCK_RECORD
  5
1F
330
1
100
AcDbSymbolTableRecord
100
AcDbBlockTableRecord
  2
*MODEL_SPACE
  0
BLOCK_RECORD
  5
1B
330
1
100
AcDbSymbolTableRecord
100
AcDbBlockTableRecord
  2
*PAPER_SPACE
  0
ENDTAB
  0
ENDSEC
  0
SECTION
  2
BLOCKS
  0
BLOCK
  5
20
330
1F
100
AcDbEntity
  8
0
100
AcDbBlockBegin
  2
*MODEL_SPACE
 70
     0
 10
0.0
 20
0.0
 30
0.0
  3
*MODEL_SPACE
  1

  0
ENDBLK
  5
21
330
1F
100
AcDbEntity
  8
0
100
AcDbBlockEnd
  0
BLOCK
  5
1C
330
1B
100
AcDbEntity
 67
     1
  8
0
100
AcDbBlockBegin
  2
*PAPER_SPACE
  1

  0
ENDBLK
  5
1D
330
1B
100
AcDbEntity
 67
     1
  8
0
100
AcDbBlockEnd
  0
ENDSEC
  0
SECTION
  2
ENTITIES
  0
SPLINE
  5
100
100
AcDbEntity
  8
0
 62
1
100
AcDbSpline
 70
8
 71
3
 72
8
 73
4
 74
0
 40
0
 40
0
 40
0
 40
0
 40
1
 40
1
 40
1
 40
1
 10
12.225000
 20
192.660000
 30
0.0
 10
12.225000
 20
191.655191
 30
0.0
 10
11.688941
 20
190.726708
 30
0.0
 10
10.818750
 20
190.224304
 30
0.0
  0
SPLINE
  5
101
100
AcDbEntity
  8
0
 62
1
100
AcDbSpline
 70
8
 71
3
 72
8
 73
4
 74
0
 40
0
 40
0
 40
0
 40
0
 40
1
 40
1
 40
1
 40
1
 10
10.818750
 20
190.224304
 30
0.0
 10
9.948559
 20
189.721899
 30
0.0
 10
8.876441
 20
189.721899
 30
0.0
 10
8.006250
 20
190.224304
 30
0.0
  0
SPLINE
  5
102
100
AcDbEntity
  8
0
 62
1
100
AcDbSpline
 70
8
 71
3
 72
8
 73
4
 74
0
 40
0
 40
0
 40
0
 40
0
 40
1
 40
1
 40
1
 40
1
 10
8.006250
 20
190.224304
 30
0.0
 10
7.136059
 20
190.726708
 30
0.0
 10
6.600000
 20
191.655191
 30
0.0
 10
6.600000
 20
192.660000
 30
0.0
  0
SPLINE
  5
103
100
AcDbEntity
  8
0
 62
1
100
AcDbSpline
 70
8
 71
3
 72
8
 73
4
 74
0
 40
0
 40
0
 40
0
 40
0
 40
1
 40
1
 40
1
 40
1
 10
6.600000
 20
192.660000
 30
0.0
 10
6.600000
 20
193.664809
 30
0.0
 10
7.136059
 20
194.593292
 30
0.0
 10
8.006250
 20
195.095696
 30
0.0
  0
SPLINE
  5
104
100
AcDbEntity
  8
0
 62
1
100
AcDbSpline
 70
8
 71
3
 72
8
 73
4
 74
0
 40
0
 40
0
 40
0
 40
0
 40
1
 40
1
 40
1
 40
1
 10
8.006250
 20
195.095696
 30
0.0
 10
8.876441
 20
195.598101
 30
0.0
 10
9.948559
 20
195.598101
 30
0.0
 10
10.818750
 20
195.095696
 30
0.0
  0
SPLINE
  5
105
100
AcDbEntity
  8
0
 62
1
100
AcDbSpline
 70
8
 71
3
 72
8
 73
4
 74
0
 40
0
 40
0
 40
0
 40
0
 40
1
 40
1
 40
1
 40
1
 10
10.818750
 20
195.095696
 30
0.0
 10
11.688941
 20
194.593292
 30
0.0
 10
12.225000
 20
193.664809
 30
0.0
 10
12.225000
 20
192.660000
 30
0.0
  0
LWPOLYLINE
  5
106
100
AcDbEntity
  8
0
 62
1
100
AcDbPolyline
 90
4
 70
1
 10
24.093000
 20
199.978500
 30
0.0
 10
51.882000
 20
199.978500
 30
0.0
 10
51.882000
 20
185.341500
 30
0.0
 10
24.093000
 20
185.341500
 30
0.0
  0
SPLINE
  5
107
100
AcDbEntity
  8
0
 62
1
100
AcDbSpline
 70
8
 71
3
 72
8
 73
4
 74
0
 40
0
 40
0
 40
0
 40
0
 40
1
 40
1
 40
1
 40
1
 10
69.375000
 20
192.660000
 30
0.0
 10
69.375000
 20
191.655191
 30
0.0
 10
68.838941
 20
190.726708
 30
0.0
 10
67.968750
 20
190.224304
 30
0.0
  0
SPLINE
  5
108
100
AcDbEntity
  8
0
 62
1
100
AcDbSpline
 70
8
 71
3
 72
8
 73
4
 74
0
 40
0
 40
0
 40
0
 40
0
 40
1
 40
1
 40
1
 40
1
 10
67.968750
 20
190.224304
 30
0.0
 10
67.098559
 20
189.721899
 30
0.0
 10
66.026441
 20
189.721899
 30
0.0
 10
65.156250
 20
190.224304
 30
0.0
  0
SPLINE
  5
109
100
AcDbEntity
  8
0
 62
1
100
AcDbSpline
 70
8
 71
3
 72
8
 73
4
 74
0
 40
0
 40
0
 40
0
 40
0
 40
1
 40
1
 40
1
 40
1
 10
65.156250
 20
190.224304
 30
0.0
 10
64.286059
 20
190.726708
 30
0.0
 10
63.750000
 20
191.655191
 30
0.0
 10
63.750000
 20
192.660000
 30
0.0
  0
SPLINE
  5
10a
100
AcDbEntity
  8
0
 62
1
100
AcDbSpline
 70
8
 71
3
 72
8
 73
4
 74
0
 40
0
 40
0
 40
0
 40
0
 40
1
 40
1
 40
1
 40
1
 10
63.750000
 20
192.660000
 30
0.0
 10
63.750000
 20
193.664809
 30
0.0
 10
64.286059
 20
194.593292
 30
0.0
 10
65.156250
 20
195.095696
 30
0.0
  0
SPLINE
  5
10b
100
AcDbEntity
  8
0
 62
1
100
AcDbSpline
 70
8
 71
3
 72
8
 73
4
 74
0
 40
0
 40
0
 40
0
 40
0
 40
1
 40
1
 40
1
 40
1
 10
65.156250
 20
195.095696
 30
0.0
 10
66.026441
 20
195.598101
 30
0.0
 10
67.098559
 20
195.598101
 30
0.0
 10
67.968750
 20
195.095696
 30
0.0
  0
SPLINE
  5
10c
100
AcDbEntity
  8
0
 62
1
100
AcDbSpline
 70
8
 71
3
 72
8
 73
4
 74
0
 40
0
 40
0
 40
0
 40
0
 40
1
 40
1
 40
1
 40
1
 10
67.968750
 20
195.095696
 30
0.0
 10
68.838941
 20
194.593292
 30
0.0
 10
69.375000
 20
193.664809
 30
0.0
 10
69.375000
 20
192.660000
 30
0.0
  0
LWPOLYLINE
  5
10d
100
AcDbEntity
  8
0
 62
1
100
AcDbPolyline
 90
1
 70
1
 10
12.225000
 20
192.660000
 30
0.0
  0
SPLINE
  5
10e
100
AcDbEntity
  8
0
 62
1
100
AcDbSpline
 70
8
 71
3
 72
8
 73
4
 74
0
 40
0
 40
0
 40
0
 40
0
 40
1
 40
1
 40
1
 40
1
 10
12.225000
 20
173.610000
 30
0.0
 10
12.225000
 20
172.605191
 30
0.0
 10
11.688941
 20
171.676708
 30
0.0
 10
10.818750
 20
171.174304
 30
0.0
  0
SPLINE
  5
10f
100
AcDbEntity
  8
0
 62
1
100
AcDbSpline
 70
8
 71
3
 72
8
 73
4
 74
0
 40
0
 40
0
 40
0
 40
0
 40
1
 40
1
 40
1
 40
1
 10
10.818750
 20
171.174304
 30
0.0
 10
9.948559
 20
170.671899
 30
0.0
 10
8.876441
 20
170.671899
 30
0.0
 10
8.006250
 20
171.174304
 30
0.0
  0
SPLINE
  5
110
100
AcDbEntity
  8
0
 62
1
100
AcDbSpline
 70
8
 71
3
 72
8
 73
4
 74
0
 40
0
 40
0
 40
0
 40
0
 40
1
 40
1
 40
1
 40
1
 10
8.006250
 20
171.174304
 30
0.0
 10
7.136059
 20
171.676708
 30
0.0
 10
6.600000
 20
172.605191
 30
0.0
 10
6.600000
 20
173.610000
 30
0.0
  0
SPLINE
  5
111
100
AcDbEntity
  8
0
 62
1
100
AcDbSpline
 70
8
 71
3
 72
8
 73
4
 74
0
 40
0
 40
0
 40
0
 40
0
 40
1
 40
1
 40
1
 40
1
 10
6.600000
 20
173.610000
 30
0.0
 10
6.600000
 20
174.614809
 30
0.0
 10
7.136059
 20
175.543292
 30
0.0
 10
8.006250
 20
176.045696
 30
0.0
  0
SPLINE
  5
112
100
AcDbEntity
  8
0
 62
1
100
AcDbSpline
 70
8
 71
3
 72
8
 73
4
 74
0
 40
0
 40
0
 40
0
 40
0
 40
1
 40
1
 40
1
 40
1
 10
8.006250
 20
176.045696
 30
0.0
 10
8.876441
 20
176.548101
 30
0.0
 10
9.948559
 20
176.548101
 30
0.0
 10
10.818750
 20
176.045696
 30
0.0
  0
SPLINE
  5
113
100
AcDbEntity
  8
0
 62
1
100
AcDbSpline
 70
8
 71
3
 72
8
 73
4
 74
0
 40
0
 40
0
 40
0
 40
0
 40
1
 40
1
 40
1
 40
1
 10
10.818750
 20
176.045696
 30
0.0
 10
11.688941
 20
175.543292
 30
0.0
 10
12.225000
 20
174.614809
 30
0.0
 10
12.225000
 20
173.610000
 30
0.0
  0
LWPOLYLINE
  5
114
100
AcDbEntity
  8
0
 62
1
100
AcDbPolyline
 90
1
 70
1
 10
69.375000
 20
192.660000
 30
0.0
  0
SPLINE
  5
115
100
AcDbEntity
  8
0
 62
1
100
AcDbSpline
 70
8
 71
3
 72
8
 73
4
 74
0
 40
0
 40
0
 40
0
 40
0
 40
1
 40
1
 40
1
 40
1
 10
31.275000
 20
173.610000
 30
0.0
 10
31.275000
 20
172.605191
 30
0.0
 10
30.738941
 20
171.676708
 30
0.0
 10
29.868750
 20
171.174304
 30
0.0
  0
SPLINE
  5
116
100
AcDbEntity
  8
0
 62
1
100
AcDbSpline
 70
8
 71
3
 72
8
 73
4
 74
0
 40
0
 40
0
 40
0
 40
0
 40
1
 40
1
 40
1
 40
1
 10
29.868750
 20
171.174304
 30
0.0
 10
28.998559
 20
170.671899
 30
0.0
 10
27.926441
 20
170.671899
 30
0.0
 10
27.056250
 20
171.174304
 30
0.0
  0
SPLINE
  5
117
100
AcDbEntity
  8
0
 62
1
100
AcDbSpline
 70
8
 71
3
 72
8
 73
4
 74
0
 40
0
 40
0
 40
0
 40
0
 40
1
 40
1
 40
1
 40
1
 10
27.056250
 20
171.174304
 30
0.0
 10
26.186059
 20
171.676708
 30
0.0
 10
25.650000
 20
172.605191
 30
0.0
 10
25.650000
 20
173.610000
 30
0.0
  0
SPLINE
  5
118
100
AcDbEntity
  8
0
 62
1
100
AcDbSpline
 70
8
 71
3
 72
8
 73
4
 74
0
 40
0
 40
0
 40
0
 40
0
 40
1
 40
1
 40
1
 40
1
 10
25.650000
 20
173.610000
 30
0.0
 10
25.650000
 20
174.614809
 30
0.0
 10
26.186059
 20
175.543292
 30
0.0
 10
27.056250
 20
176.045696
 30
0.0
  0
SPLINE
  5
119
100
AcDbEntity
  8
0
 62
1
100
AcDbSpline
 70
8
 71
3
 72
8
 73
4
 74
0
 40
0
 40
0
 40
0
 40
0
 40
1
 40
1
 40
1
 40
1
 10
27.056250
 20
176.045696
 30
0.0
 10
27.926441
 20
176.548101
 30
0.0
 10
28.998559
 20
176.548101
 30
0.0
 10
29.868750
 20
176.045696
 30
0.0
  0
SPLINE
  5
11a
100
AcDbEntity
  8
0
 62
1
100
AcDbSpline
 70
8
 71
3
 72
8
 73
4
 74
0
 40
0
 40
0
 40
0
 40
0
 40
1
 40
1
 40
1
 40
1
 10
29.868750
 20
176.045696
 30
0.0
 10
30.738941
 20
175.543292
 30
0.0
 10
31.275000
 20
174.614809
 30
0.0
 10
31.275000
 20
173.610000
 30
0.0
  0
LWPOLYLINE
  5
11b
100
AcDbEntity
  8
0
 62
1
100
AcDbPolyline
 90
1
 70
1
 10
12.225000
 20
173.610000
 30
0.0
  0
SPLINE
  5
11c
100
AcDbEntity
  8
0
 62
1
100
AcDbSpline
 70
8
 71
3
 72
8
 73
4
 74
0
 40
0
 40
0
 40
0
 40
0
 40
1
 40
1
 40
1
 40
1
 10
50.325000
 20
173.610000
 30
0.0
 10
50.325000
 20
172.605191
 30
0.0
 10
49.788941
 20
171.676708
 30
0.0
 10
48.918750
 20
171.174304
 30
0.0
  0
SPLINE
  5
11d
100
AcDbEntity
  8
0
 62
1
100
AcDbSpline
 70
8
 71
3
 72
8
 73
4
 74
0
 40
0
 40
0
 40
0
 40
0
 40
1
 40
1
 40
1
 40
1
 10
48.918750
 20
171.174304
 30
0.0
 10
48.048559
 20
170.671899
 30
0.0
 10
46.976441
 20
170.671899
 30
0.0
 10
46.106250
 20
171.174304
 30
0.0
  0
SPLINE
  5
11e
100
AcDbEntity
  8
0
 62
1
100
AcDbSpline
 70
8
 71
3
 72
8
 73
4
 74
0
 40
0
 40
0
 40
0
 40
0
 40
1
 40
1
 40
1
 40
1
 10
46.106250
 20
171.174304
 30
0.0
 10
45.236059
 20
171.676708
 30
0.0
 10
44.700000
 20
172.605191
 30
0.0
 10
44.700000
 20
173.610000
 30
0.0
  0
SPLINE
  5
11f
100
AcDbEntity
  8
0
 62
1
100
AcDbSpline
 70
8
 71
3
 72
8
 73
4
 74
0
 40
0
 40
0
 40
0
 40
0
 40
1
 40
1
 40
1
 40
1
 10
44.700000
 20
173.610000
 30
0.0
 10
44.700000
 20
174.614809
 30
0.0
 10
45.236059
 20
175.543292
 30
0.0
 10
46.106250
 20
176.045696
 30
0.0
  0
SPLINE
  5
120
100
AcDbEntity
  8
0
 62
1
100
AcDbSpline
 70
8
 71
3
 72
8
 73
4
 74
0
 40
0
 40
0
 40
0
 40
0
 40
1
 40
1
 40
1
 40
1
 10
46.106250
 20
176.045696
 30
0.0
 10
46.976441
 20
176.548101
 30
0.0
 10
48.048559
 20
176.548101
 30
0.0
 10
48.918750
 20
176.045696
 30
0.0
  0
SPLINE
  5
121
100
AcDbEntity
  8
0
 62
1
100
AcDbSpline
 70
8
 71
3
 72
8
 73
4
 74
0
 40
0
 40
0
 40
0
 40
0
 40
1
 40
1
 40
1
 40
1
 10
48.918750
 20
176.045696
 30
0.0
 10
49.788941
 20
175.543292
 30
0.0
 10
50.325000
 20
174.614809
 30
0.0
 10
50.325000
 20
173.610000
 30
0.0
  0
LWPOLYLINE
  5
122
100
AcDbEntity
  8
0
 62
1
100
AcDbPolyline
 90
1
 70
1
 10
31.275000
 20
173.610000
 30
0.0
  0
SPLINE
  5
123
100
AcDbEntity
  8
0
 62
1
100
AcDbSpline
 70
8
 71
3
 72
8
 73
4
 74
0
 40
0
 40
0
 40
0
 40
0
 40
1
 40
1
 40
1
 40
1
 10
69.375000
 20
173.610000
 30
0.0
 10
69.375000
 20
172.605191
 30
0.0
 10
68.838941
 20
171.676708
 30
0.0
 10
67.968750
 20
171.174304
 30
0.0
  0
SPLINE
  5
124
100
AcDbEntity
  8
0
 62
1
100
AcDbSpline
 70
8
 71
3
 72
8
 73
4
 74
0
 40
0
 40
0
 40
0
 40
0
 40
1
 40
1
 40
1
 40
1
 10
67.968750
 20
171.174304
 30
0.0
 10
67.098559
 20
170.671899
 30
0.0
 10
66.026441
 20
170.671899
 30
0.0
 10
65.156250
 20
171.174304
 30
0.0
  0
SPLINE
  5
125
100
AcDbEntity
  8
0
 62
1
100
AcDbSpline
 70
8
 71
3
 72
8
 73
4
 74
0
 40
0
 40
0
 40
0
 40
0
 40
1
 40
1
 40
1
 40
1
 10
65.156250
 20
171.174304
 30
0.0
 10
64.286059
 20
171.676708
 30
0.0
 10
63.750000
 20
172.605191
 30
0.0
 10
63.750000
 20
173.610000
 30
0.0
  0
SPLINE
  5
126
100
AcDbEntity
  8
0
 62
1
100
AcDbSpline
 70
8
 71
3
 72
8
 73
4
 74
0
 40
0
 40
0
 40
0
 40
0
 40
1
 40
1
 40
1
 40
1
 10
63.750000
 20
173.610000
 30
0.0
 10
63.750000
 20
174.614809
 30
0.0
 10
64.286059
 20
175.543292
 30
0.0
 10
65.156250
 20
176.045696
 30
0.0
  0
SPLINE
  5
127
100
AcDbEntity
  8
0
 62
1
100
AcDbSpline
 70
8
 71
3
 72
8
 73
4
 74
0
 40
0
 40
0
 40
0
 40
0
 40
1
 40
1
 40
1
 40
1
 10
65.156250
 20
176.045696
 30
0.0
 10
66.026441
 20
176.548101
 30
0.0
 10
67.098559
 20
176.548101
 30
0.0
 10
67.968750
 20
176.045696
 30
0.0
  0
SPLINE
  5
128
100
AcDbEntity
  8
0
 62
1
100
AcDbSpline
 70
8
 71
3
 72
8
 73
4
 74
0
 40
0
 40
0
 40
0
 40
0
 40
1
 40
1
 40
1
 40
1
 10
67.968750
 20
176.045696
 30
0.0
 10
68.838941
 20
175.543292
 30
0.0
 10
69.375000
 20
174.614809
 30
0.0
 10
69.375000
 20
173.610000
 30
0.0
  0
LWPOLYLINE
  5
129
100
AcDbEntity
  8
0
 62
1
100
AcDbPolyline
 90
1
 70
1
 10
50.325000
 20
173.610000
 30
0.0
  0
LWPOLYLINE
  5
12a
100
AcDbEntity
  8
0
 62
1
100
AcDbPolyline
 90
1
 70
1
 10
69.375000
 20
173.610000
 30
0.0
  0
LWPOLYLINE
  5
12b
100
AcDbEntity
  8
0
 62
1
100
AcDbPolyline
 90
4
 70
1
 10
3.525000
 20
160.447500
 30
0.0
 10
5.775000
 20
160.447500
 30
0.0
 10
5.775000
 20
158.197500
 30
0.0
 10
3.525000
 20
158.197500
 30
0.0
  0
LWPOLYLINE
  5
12c
100
AcDbEntity
  8
0
 62
1
100
AcDbPolyline
 90
4
 70
1
 10
13.050000
 20
160.447500
 30
0.0
 10
15.300000
 20
160.447500
 30
0.0
 10
15.300000
 20
158.197500
 30
0.0
 10
13.050000
 20
158.197500
 30
0.0
  0
LWPOLYLINE
  5
12d
100
AcDbEntity
  8
0
 62
1
100
AcDbPolyline
 90
4
 70
1
 10
22.575000
 20
160.447500
 30
0.0
 10
24.825000
 20
160.447500
 30
0.0
 10
24.825000
 20
158.197500
 30
0.0
 10
22.575000
 20
158.197500
 30
0.0
  0
LWPOLYLINE
  5
12e
100
AcDbEntity
  8
0
 62
1
100
AcDbPolyline
 90
4
 70
1
 10
32.100000
 20
160.447500
 30
0.0
 10
34.350000
 20
160.447500
 30
0.0
 10
34.350000
 20
158.197500
 30
0.0
 10
32.100000
 20
158.197500
 30
0.0
  0
LWPOLYLINE
  5
12f
100
AcDbEntity
  8
0
 62
1
100
AcDbPolyline
 90
4
 70
1
 10
41.625000
 20
160.447500
 30
0.0
 10
43.875000
 20
160.447500
 30
0.0
 10
43.875000
 20
158.197500
 30
0.0
 10
41.625000
 20
158.197500
 30
0.0
  0
LWPOLYLINE
  5
130
100
AcDbEntity
  8
0
 62
1
100
AcDbPolyline
 90
4
 70
1
 10
51.150000
 20
160.447500
 30
0.0
 10
53.400000
 20
160.447500
 30
0.0
 10
53.400000
 20
158.197500
 30
0.0
 10
51.150000
 20
158.197500
 30
0.0
  0
LWPOLYLINE
  5
131
100
AcDbEntity
  8
0
 62
1
100
AcDbPolyline
 90
4
 70
1
 10
60.675000
 20
160.447500
 30
0.0
 10
62.925000
 20
160.447500
 30
0.0
 10
62.925000
 20
158.197500
 30
0.0
 10
60.675000
 20
158.197500
 30
0.0
  0
LWPOLYLINE
  5
132
100
AcDbEntity
  8
0
 62
1
100
AcDbPolyline
 90
4
 70
1
 10
70.200000
 20
160.447500
 30
0.0
 10
72.450000
 20
160.447500
 30
0.0
 10
72.450000
 20
158.197500
 30
0.0
 10
70.200000
 20
158.197500
 30
0.0
  0
LWPOLYLINE
  5
133
100
AcDbEntity
  8
0
 62
1
100
AcDbPolyline
 90
4
 70
1
 10
3.525000
 20
139.492500
 30
0.0
 10
5.775000
 20
139.492500
 30
0.0
 10
5.775000
 20
137.242500
 30
0.0
 10
3.525000
 20
137.242500
 30
0.0
  0
LWPOLYLINE
  5
134
100
AcDbEntity
  8
0
 62
1
100
AcDbPolyline
 90
4
 70
1
 10
13.050000
 20
139.492500
 30
0.0
 10
15.300000
 20
139.492500
 30
0.0
 10
15.300000
 20
137.242500
 30
0.0
 10
13.050000
 20
137.242500
 30
0.0
  0
LWPOLYLINE
  5
135
100
AcDbEntity
  8
0
 62
1
100
AcDbPolyline
 90
4
 70
1
 10
22.575000
 20
139.492500
 30
0.0
 10
24.825000
 20
139.492500
 30
0.0
 10
24.825000
 20
137.242500
 30
0.0
 10
22.575000
 20
137.242500
 30
0.0
  0
LWPOLYLINE
  5
136
100
AcDbEntity
  8
0
 62
1
100
AcDbPolyline
 90
4
 70
1
 10
32.100000
 20
139.492500
 30
0.0
 10
34.350000
 20
139.492500
 30
0.0
 10
34.350000
 20
137.242500
 30
0.0
 10
32.100000
 20
137.242500
 30
0.0
  0
LWPOLYLINE
  5
137
100
AcDbEntity
  8
0
 62
1
100
AcDbPolyline
 90
4
 70
1
 10
41.625000
 20
139.492500
 30
0.0
 10
43.875000
 20
139.492500
 30
0.0
 10
43.875000
 20
137.242500
 30
0.0
 10
41.625000
 20
137.242500
 30
0.0
  0
LWPOLYLINE
  5
138
100
AcDbEntity
  8
0
 62
1
100
AcDbPolyline
 90
4
 70
1
 10
51.150000
 20
139.492500
 30
0.0
 10
53.400000
 20
139.492500
 30
0.0
 10
53.400000
 20
137.242500
 30
0.0
 10
51.150000
 20
137.242500
 30
0.0
  0
LWPOLYLINE
  5
139
100
AcDbEntity
  8
0
 62
1
100
AcDbPolyline
 90
4
 70
1
 10
60.675000
 20
139.492500
 30
0.0
 10
62.925000
 20
139.492500
 30
0.0
 10
62.925000
 20
137.242500
 30
0.0
 10
60.675000
 20
137.242500
 30
0.0
  0
SPLINE
  5
13a
100
AcDbEntity
  8
0
 62
1
100
AcDbSpline
 70
8
 71
3
 72
8
 73
4
 74
0
 40
0
 40
0
 40
0
 40
0
 40
1
 40
1
 40
1
 40
1
 10
7.087500
 20
207.900000
 30
0.0
 10
7.087500
 20
207.029165
 30
0.0
 10
6.622915
 20
206.224481
 30
0.0
 10
5.868750
 20
205.789063
 30
0.0
  0
SPLINE
  5
13b
100
AcDbEntity
  8
0
 62
1
100
AcDbSpline
 70
8
 71
3
 72
8
 73
4
 74
0
 40
0
 40
0
 40
0
 40
0
 40
1
 40
1
 40
1
 40
1
 10
5.868750
 20
205.789063
 30
0.0
 10
5.114585
 20
205.353646
 30
0.0
 10
4.185415
 20
205.353646
 30
0.0
 10
3.431250
 20
205.789063
 30
0.0
  0
SPLINE
  5
13c
100
AcDbEntity
  8
0
 62
1
100
AcDbSpline
 70
8
 71
3
 72
8
 73
4
 74
0
 40
0
 40
0
 40
0
 40
0
 40
1
 40
1
 40
1
 40
1
 10
3.431250
 20
205.789063
 30
0.0
 10
2.677085
 20
206.224481
 30
0.0
 10
2.212500
 20
207.029165
 30
0.0
 10
2.212500
 20
207.900000
 30
0.0
  0
SPLINE
  5
13d
100
AcDbEntity
  8
0
 62
1
100
AcDbSpline
 70
8
 71
3
 72
8
 73
4
 74
0
 40
0
 40
0
 40
0
 40
0
 40
1
 40
1
 40
1
 40
1
 10
2.212500
 20
207.900000
 30
0.0
 10
2.212500
 20
208.770835
 30
0.0
 10
2.677085
 20
209.575519
 30
0.0
 10
3.431250
 20
210.010937
 30
0.0
  0
SPLINE
  5
13e
100
AcDbEntity
  8
0
 62
1
100
AcDbSpline
 70
8
 71
3
 72
8
 73
4
 74
0
 40
0
 40
0
 40
0
 40
0
 40
1
 40
1
 40
1
 40
1
 10
3.431250
 20
210.010937
 30
0.0
 10
4.185415
 20
210.446354
 30
0.0
 10
5.114585
 20
210.446354
 30
0.0
 10
5.868750
 20
210.010937
 30
0.0
  0
SPLINE
  5
13f
100
AcDbEntity
  8
0
 62
1
100
AcDbSpline
 70
8
 71
3
 72
8
 73
4
 74
0
 40
0
 40
0
 40
0
 40
0
 40
1
 40
1
 40
1
 40
1
 10
5.868750
 20
210.010937
 30
0.0
 10
6.622915
 20
209.575519
 30
0.0
 10
7.087500
 20
208.770835
 30
0.0
 10
7.087500
 20
207.900000
 30
0.0
  0
LWPOLYLINE
  5
140
100
AcDbEntity
  8
0
 62
1
100
AcDbPolyline
 90
4
 70
1
 10
70.200000
 20
139.492500
 30
0.0
 10
72.450000
 20
139.492500
 30
0.0
 10
72.450000
 20
137.242500
 30
0.0
 10
70.200000
 20
137.242500
 30
0.0
  0
SPLINE
  5
141
100
AcDbEntity
  8
0
 62
1
100
AcDbSpline
 70
8
 71
3
 72
8
 73
4
 74
0
 40
0
 40
0
 40
0
 40
0
 40
1
 40
1
 40
1
 40
1
 10
16.612500
 20
207.900000
 30
0.0
 10
16.612500
 20
207.029165
 30
0.0
 10
16.147915
 20
206.224481
 30
0.0
 10
15.393750
 20
205.789063
 30
0.0
  0
SPLINE
  5
142
100
AcDbEntity
  8
0
 62
1
100
AcDbSpline
 70
8
 71
3
 72
8
 73
4
 74
0
 40
0
 40
0
 40
0
 40
0
 40
1
 40
1
 40
1
 40
1
 10
15.393750
 20
205.789063
 30
0.0
 10
14.639585
 20
205.353646
 30
0.0
 10
13.710415
 20
205.353646
 30
0.0
 10
12.956250
 20
205.789063
 30
0.0
  0
SPLINE
  5
143
100
AcDbEntity
  8
0
 62
1
100
AcDbSpline
 70
8
 71
3
 72
8
 73
4
 74
0
 40
0
 40
0
 40
0
 40
0
 40
1
 40
1
 40
1
 40
1
 10
12.956250
 20
205.789063
 30
0.0
 10
12.202085
 20
206.224481
 30
0.0
 10
11.737500
 20
207.029165
 30
0.0
 10
11.737500
 20
207.900000
 30
0.0
  0
SPLINE
  5
144
100
AcDbEntity
  8
0
 62
1
100
AcDbSpline
 70
8
 71
3
 72
8
 73
4
 74
0
 40
0
 40
0
 40
0
 40
0
 40
1
 40
1
 40
1
 40
1
 10
11.737500
 20
207.900000
 30
0.0
 10
11.737500
 20
208.770835
 30
0.0
 10
12.202085
 20
209.575519
 30
0.0
 10
12.956250
 20
210.010937
 30
0.0
  0
SPLINE
  5
145
100
AcDbEntity
  8
0
 62
1
100
AcDbSpline
 70
8
 71
3
 72
8
 73
4
 74
0
 40
0
 40
0
 40
0
 40
0
 40
1
 40
1
 40
1
 40
1
 10
12.956250
 20
210.010937
 30
0.0
 10
13.710415
 20
210.446354
 30
0.0
 10
14.639585
 20
210.446354
 30
0.0
 10
15.393750
 20
210.010937
 30
0.0
  0
SPLINE
  5
146
100
AcDbEntity
  8
0
 62
1
100
AcDbSpline
 70
8
 71
3
 72
8
 73
4
 74
0
 40
0
 40
0
 40
0
 40
0
 40
1
 40
1
 40
1
 40
1
 10
15.393750
 20
210.010937
 30
0.0
 10
16.147915
 20
209.575519
 30
0.0
 10
16.612500
 20
208.770835
 30
0.0
 10
16.612500
 20
207.900000
 30
0.0
  0
LWPOLYLINE
  5
147
100
AcDbEntity
  8
0
 62
1
100
AcDbPolyline
 90
1
 70
1
 10
7.087500
 20
207.900000
 30
0.0
  0
SPLINE
  5
148
100
AcDbEntity
  8
0
 62
1
100
AcDbSpline
 70
8
 71
3
 72
8
 73
4
 74
0
 40
0
 40
0
 40
0
 40
0
 40
1
 40
1
 40
1
 40
1
 10
26.137500
 20
207.900000
 30
0.0
 10
26.137500
 20
207.029165
 30
0.0
 10
25.672915
 20
206.224481
 30
0.0
 10
24.918750
 20
205.789063
 30
0.0
  0
SPLINE
  5
149
100
AcDbEntity
  8
0
 62
1
100
AcDbSpline
 70
8
 71
3
 72
8
 73
4
 74
0
 40
0
 40
0
 40
0
 40
0
 40
1
 40
1
 40
1
 40
1
 10
24.918750
 20
205.789063
 30
0.0
 10
24.164585
 20
205.353646
 30
0.0
 10
23.235415
 20
205.353646
 30
0.0
 10
22.481250
 20
205.789063
 30
0.0
  0
SPLINE
  5
14a
100
AcDbEntity
  8
0
 62
1
100
AcDbSpline
 70
8
 71
3
 72
8
 73
4
 74
0
 40
0
 40
0
 40
0
 40
0
 40
1
 40
1
 40
1
 40
1
 10
22.481250
 20
205.789063
 30
0.0
 10
21.727085
 20
206.224481
 30
0.0
 10
21.262500
 20
207.029165
 30
0.0
 10
21.262500
 20
207.900000
 30
0.0
  0
SPLINE
  5
14b
100
AcDbEntity
  8
0
 62
1
100
AcDbSpline
 70
8
 71
3
 72
8
 73
4
 74
0
 40
0
 40
0
 40
0
 40
0
 40
1
 40
1
 40
1
 40
1
 10
21.262500
 20
207.900000
 30
0.0
 10
21.262500
 20
208.770835
 30
0.0
 10
21.727085
 20
209.575519
 30
0.0
 10
22.481250
 20
210.010937
 30
0.0
  0
SPLINE
  5
14c
100
AcDbEntity
  8
0
 62
1
100
AcDbSpline
 70
8
 71
3
 72
8
 73
4
 74
0
 40
0
 40
0
 40
0
 40
0
 40
1
 40
1
 40
1
 40
1
 10
22.481250
 20
210.010937
 30
0.0
 10
23.235415
 20
210.446354
 30
0.0
 10
24.164585
 20
210.446354
 30
0.0
 10
24.918750
 20
210.010937
 30
0.0
  0
SPLINE
  5
14d
100
AcDbEntity
  8
0
 62
1
100
AcDbSpline
 70
8
 71
3
 72
8
 73
4
 74
0
 40
0
 40
0
 40
0
 40
0
 40
1
 40
1
 40
1
 40
1
 10
24.918750
 20
210.010937
 30
0.0
 10
25.672915
 20
209.575519
 30
0.0
 10
26.137500
 20
208.770835
 30
0.0
 10
26.137500
 20
207.900000
 30
0.0
  0
LWPOLYLINE
  5
14e
100
AcDbEntity
  8
0
 62
1
100
AcDbPolyline
 90
1
 70
1
 10
16.612500
 20
207.900000
 30
0.0
  0
SPLINE
  5
14f
100
AcDbEntity
  8
0
 62
1
100
AcDbSpline
 70
8
 71
3
 72
8
 73
4
 74
0
 40
0
 40
0
 40
0
 40
0
 40
1
 40
1
 40
1
 40
1
 10
35.662500
 20
207.900000
 30
0.0
 10
35.662500
 20
207.029165
 30
0.0
 10
35.197915
 20
206.224481
 30
0.0
 10
34.443750
 20
205.789063
 30
0.0
  0
SPLINE
  5
150
100
AcDbEntity
  8
0
 62
1
100
AcDbSpline
 70
8
 71
3
 72
8
 73
4
 74
0
 40
0
 40
0
 40
0
 40
0
 40
1
 40
1
 40
1
 40
1
 10
34.443750
 20
205.789063
 30
0.0
 10
33.689585
 20
205.353646
 30
0.0
 10
32.760415
 20
205.353646
 30
0.0
 10
32.006250
 20
205.789063
 30
0.0
  0
SPLINE
  5
151
100
AcDbEntity
  8
0
 62
1
100
AcDbSpline
 70
8
 71
3
 72
8
 73
4
 74
0
 40
0
 40
0
 40
0
 40
0
 40
1
 40
1
 40
1
 40
1
 10
32.006250
 20
205.789063
 30
0.0
 10
31.252085
 20
206.224481
 30
0.0
 10
30.787500
 20
207.029165
 30
0.0
 10
30.787500
 20
207.900000
 30
0.0
  0
SPLINE
  5
152
100
AcDbEntity
  8
0
 62
1
100
AcDbSpline
 70
8
 71
3
 72
8
 73
4
 74
0
 40
0
 40
0
 40
0
 40
0
 40
1
 40
1
 40
1
 40
1
 10
30.787500
 20
207.900000
 30
0.0
 10
30.787500
 20
208.770835
 30
0.0
 10
31.252085
 20
209.575519
 30
0.0
 10
32.006250
 20
210.010937
 30
0.0
  0
SPLINE
  5
153
100
AcDbEntity
  8
0
 62
1
100
AcDbSpline
 70
8
 71
3
 72
8
 73
4
 74
0
 40
0
 40
0
 40
0
 40
0
 40
1
 40
1
 40
1
 40
1
 10
32.006250
 20
210.010937
 30
0.0
 10
32.760415
 20
210.446354
 30
0.0
 10
33.689585
 20
210.446354
 30
0.0
 10
34.443750
 20
210.010937
 30
0.0
  0
SPLINE
  5
154
100
AcDbEntity
  8
0
 62
1
100
AcDbSpline
 70
8
 71
3
 72
8
 73
4
 74
0
 40
0
 40
0
 40
0
 40
0
 40
1
 40
1
 40
1
 40
1
 10
34.443750
 20
210.010937
 30
0.0
 10
35.197915
 20
209.575519
 30
0.0
 10
35.662500
 20
208.770835
 30
0.0
 10
35.662500
 20
207.900000
 30
0.0
  0
LWPOLYLINE
  5
155
100
AcDbEntity
  8
0
 62
1
100
AcDbPolyline
 90
1
 70
1
 10
26.137500
 20
207.900000
 30
0.0
  0
SPLINE
  5
156
100
AcDbEntity
  8
0
 62
1
100
AcDbSpline
 70
8
 71
3
 72
8
 73
4
 74
0
 40
0
 40
0
 40
0
 40
0
 40
1
 40
1
 40
1
 40
1
 10
45.187500
 20
207.900000
 30
0.0
 10
45.187500
 20
207.029165
 30
0.0
 10
44.722915
 20
206.224481
 30
0.0
 10
43.968750
 20
205.789063
 30
0.0
  0
SPLINE
  5
157
100
AcDbEntity
  8
0
 62
1
100
AcDbSpline
 70
8
 71
3
 72
8
 73
4
 74
0
 40
0
 40
0
 40
0
 40
0
 40
1
 40
1
 40
1
 40
1
 10
43.968750
 20
205.789063
 30
0.0
 10
43.214585
 20
205.353646
 30
0.0
 10
42.285415
 20
205.353646
 30
0.0
 10
41.531250
 20
205.789063
 30
0.0
  0
SPLINE
  5
158
100
AcDbEntity
  8
0
 62
1
100
AcDbSpline
 70
8
 71
3
 72
8
 73
4
 74
0
 40
0
 40
0
 40
0
 40
0
 40
1
 40
1
 40
1
 40
1
 10
41.531250
 20
205.789063
 30
0.0
 10
40.777085
 20
206.224481
 30
0.0
 10
40.312500
 20
207.029165
 30
0.0
 10
40.312500
 20
207.900000
 30
0.0
  0
SPLINE
  5
159
100
AcDbEntity
  8
0
 62
1
100
AcDbSpline
 70
8
 71
3
 72
8
 73
4
 74
0
 40
0
 40
0
 40
0
 40
0
 40
1
 40
1
 40
1
 40
1
 10
40.312500
 20
207.900000
 30
0.0
 10
40.312500
 20
208.770835
 30
0.0
 10
40.777085
 20
209.575519
 30
0.0
 10
41.531250
 20
210.010937
 30
0.0
  0
SPLINE
  5
15a
100
AcDbEntity
  8
0
 62
1
100
AcDbSpline
 70
8
 71
3
 72
8
 73
4
 74
0
 40
0
 40
0
 40
0
 40
0
 40
1
 40
1
 40
1
 40
1
 10
41.531250
 20
210.010937
 30
0.0
 10
42.285415
 20
210.446354
 30
0.0
 10
43.214585
 20
210.446354
 30
0.0
 10
43.968750
 20
210.010937
 30
0.0
  0
SPLINE
  5
15b
100
AcDbEntity
  8
0
 62
1
100
AcDbSpline
 70
8
 71
3
 72
8
 73
4
 74
0
 40
0
 40
0
 40
0
 40
0
 40
1
 40
1
 40
1
 40
1
 10
43.968750
 20
210.010937
 30
0.0
 10
44.722915
 20
209.575519
 30
0.0
 10
45.187500
 20
208.770835
 30
0.0
 10
45.187500
 20
207.900000
 30
0.0
  0
LWPOLYLINE
  5
15c
100
AcDbEntity
  8
0
 62
1
100
AcDbPolyline
 90
1
 70
1
 10
35.662500
 20
207.900000
 30
0.0
  0
SPLINE
  5
15d
100
AcDbEntity
  8
0
 62
1
100
AcDbSpline
 70
8
 71
3
 72
8
 73
4
 74
0
 40
0
 40
0
 40
0
 40
0
 40
1
 40
1
 40
1
 40
1
 10
54.712500
 20
207.900000
 30
0.0
 10
54.712500
 20
207.029165
 30
0.0
 10
54.247915
 20
206.224481
 30
0.0
 10
53.493750
 20
205.789063
 30
0.0
  0
SPLINE
  5
15e
100
AcDbEntity
  8
0
 62
1
100
AcDbSpline
 70
8
 71
3
 72
8
 73
4
 74
0
 40
0
 40
0
 40
0
 40
0
 40
1
 40
1
 40
1
 40
1
 10
53.493750
 20
205.789063
 30
0.0
 10
52.739585
 20
205.353646
 30
0.0
 10
51.810415
 20
205.353646
 30
0.0
 10
51.056250
 20
205.789063
 30
0.0
  0
SPLINE
  5
15f
100
AcDbEntity
  8
0
 62
1
100
AcDbSpline
 70
8
 71
3
 72
8
 73
4
 74
0
 40
0
 40
0
 40
0
 40
0
 40
1
 40
1
 40
1
 40
1
 10
51.056250
 20
205.789063
 30
0.0
 10
50.302085
 20
206.224481
 30
0.0
 10
49.837500
 20
207.029165
 30
0.0
 10
49.837500
 20
207.900000
 30
0.0
  0
SPLINE
  5
160
100
AcDbEntity
  8
0
 62
1
100
AcDbSpline
 70
8
 71
3
 72
8
 73
4
 74
0
 40
0
 40
0
 40
0
 40
0
 40
1
 40
1
 40
1
 40
1
 10
49.837500
 20
207.900000
 30
0.0
 10
49.837500
 20
208.770835
 30
0.0
 10
50.302085
 20
209.575519
 30
0.0
 10
51.056250
 20
210.010937
 30
0.0
  0
SPLINE
  5
161
100
AcDbEntity
  8
0
 62
1
100
AcDbSpline
 70
8
 71
3
 72
8
 73
4
 74
0
 40
0
 40
0
 40
0
 40
0
 40
1
 40
1
 40
1
 40
1
 10
51.056250
 20
210.010937
 30
0.0
 10
51.810415
 20
210.446354
 30
0.0
 10
52.739585
 20
210.446354
 30
0.0
 10
53.493750
 20
210.010937
 30
0.0
  0
SPLINE
  5
162
100
AcDbEntity
  8
0
 62
1
100
AcDbSpline
 70
8
 71
3
 72
8
 73
4
 74
0
 40
0
 40
0
 40
0
 40
0
 40
1
 40
1
 40
1
 40
1
 10
53.493750
 20
210.010937
 30
0.0
 10
54.247915
 20
209.575519
 30
0.0
 10
54.712500
 20
208.770835
 30
0.0
 10
54.712500
 20
207.900000
 30
0.0
  0
LWPOLYLINE
  5
163
100
AcDbEntity
  8
0
 62
1
100
AcDbPolyline
 90
1
 70
1
 10
45.187500
 20
207.900000
 30
0.0
  0
SPLINE
  5
164
100
AcDbEntity
  8
0
 62
1
100
AcDbSpline
 70
8
 71
3
 72
8
 73
4
 74
0
 40
0
 40
0
 40
0
 40
0
 40
1
 40
1
 40
1
 40
1
 10
64.237500
 20
207.900000
 30
0.0
 10
64.237500
 20
207.029165
 30
0.0
 10
63.772915
 20
206.224481
 30
0.0
 10
63.018750
 20
205.789063
 30
0.0
  0
SPLINE
  5
165
100
AcDbEntity
  8
0
 62
1
100
AcDbSpline
 70
8
 71
3
 72
8
 73
4
 74
0
 40
0
 40
0
 40
0
 40
0
 40
1
 40
1
 40
1
 40
1
 10
63.018750
 20
205.789063
 30
0.0
 10
62.264585
 20
205.353646
 30
0.0
 10
61.335415
 20
205.353646
 30
0.0
 10
60.581250
 20
205.789063
 30
0.0
  0
SPLINE
  5
166
100
AcDbEntity
  8
0
 62
1
100
AcDbSpline
 70
8
 71
3
 72
8
 73
4
 74
0
 40
0
 40
0
 40
0
 40
0
 40
1
 40
1
 40
1
 40
1
 10
60.581250
 20
205.789063
 30
0.0
 10
59.827085
 20
206.224481
 30
0.0
 10
59.362500
 20
207.029165
 30
0.0
 10
59.362500
 20
207.900000
 30
0.0
  0
SPLINE
  5
167
100
AcDbEntity
  8
0
 62
1
100
AcDbSpline
 70
8
 71
3
 72
8
 73
4
 74
0
 40
0
 40
0
 40
0
 40
0
 40
1
 40
1
 40
1
 40
1
 10
59.362500
 20
207.900000
 30
0.0
 10
59.362500
 20
208.770835
 30
0.0
 10
59.827085
 20
209.575519
 30
0.0
 10
60.581250
 20
210.010937
 30
0.0
  0
SPLINE
  5
168
100
AcDbEntity
  8
0
 62
1
100
AcDbSpline
 70
8
 71
3
 72
8
 73
4
 74
0
 40
0
 40
0
 40
0
 40
0
 40
1
 40
1
 40
1
 40
1
 10
60.581250
 20
210.010937
 30
0.0
 10
61.335415
 20
210.446354
 30
0.0
 10
62.264585
 20
210.446354
 30
0.0
 10
63.018750
 20
210.010937
 30
0.0
  0
SPLINE
  5
169
100
AcDbEntity
  8
0
 62
1
100
AcDbSpline
 70
8
 71
3
 72
8
 73
4
 74
0
 40
0
 40
0
 40
0
 40
0
 40
1
 40
1
 40
1
 40
1
 10
63.018750
 20
210.010937
 30
0.0
 10
63.772915
 20
209.575519
 30
0.0
 10
64.237500
 20
208.770835
 30
0.0
 10
64.237500
 20
207.900000
 30
0.0
  0
LWPOLYLINE
  5
16a
100
AcDbEntity
  8
0
 62
1
100
AcDbPolyline
 90
1
 70
1
 10
54.712500
 20
207.900000
 30
0.0
  0
SPLINE
  5
16b
100
AcDbEntity
  8
0
 62
1
100
AcDbSpline
 70
8
 71
3
 72
8
 73
4
 74
0
 40
0
 40
0
 40
0
 40
0
 40
1
 40
1
 40
1
 40
1
 10
73.762500
 20
207.900000
 30
0.0
 10
73.762500
 20
207.029165
 30
0.0
 10
73.297915
 20
206.224481
 30
0.0
 10
72.543750
 20
205.789063
 30
0.0
  0
SPLINE
  5
16c
100
AcDbEntity
  8
0
 62
1
100
AcDbSpline
 70
8
 71
3
 72
8
 73
4
 74
0
 40
0
 40
0
 40
0
 40
0
 40
1
 40
1
 40
1
 40
1
 10
72.543750
 20
205.789063
 30
0.0
 10
71.789585
 20
205.353646
 30
0.0
 10
70.860415
 20
205.353646
 30
0.0
 10
70.106250
 20
205.789063
 30
0.0
  0
SPLINE
  5
16d
100
AcDbEntity
  8
0
 62
1
100
AcDbSpline
 70
8
 71
3
 72
8
 73
4
 74
0
 40
0
 40
0
 40
0
 40
0
 40
1
 40
1
 40
1
 40
1
 10
70.106250
 20
205.789063
 30
0.0
 10
69.352085
 20
206.224481
 30
0.0
 10
68.887500
 20
207.029165
 30
0.0
 10
68.887500
 20
207.900000
 30
0.0
  0
SPLINE
  5
16e
100
AcDbEntity
  8
0
 62
1
100
AcDbSpline
 70
8
 71
3
 72
8
 73
4
 74
0
 40
0
 40
0
 40
0
 40
0
 40
1
 40
1
 40
1
 40
1
 10
68.887500
 20
207.900000
 30
0.0
 10
68.887500
 20
208.770835
 30
0.0
 10
69.352085
 20
209.575519
 30
0.0
 10
70.106250
 20
210.010937
 30
0.0
  0
SPLINE
  5
16f
100
AcDbEntity
  8
0
 62
1
100
AcDbSpline
 70
8
 71
3
 72
8
 73
4
 74
0
 40
0
 40
0
 40
0
 40
0
 40
1
 40
1
 40
1
 40
1
 10
70.106250
 20
210.010937
 30
0.0
 10
70.860415
 20
210.446354
 30
0.0
 10
71.789585
 20
210.446354
 30
0.0
 10
72.543750
 20
210.010937
 30
0.0
  0
SPLINE
  5
170
100
AcDbEntity
  8
0
 62
1
100
AcDbSpline
 70
8
 71
3
 72
8
 73
4
 74
0
 40
0
 40
0
 40
0
 40
0
 40
1
 40
1
 40
1
 40
1
 10
72.543750
 20
210.010937
 30
0.0
 10
73.297915
 20
209.575519
 30
0.0
 10
73.762500
 20
208.770835
 30
0.0
 10
73.762500
 20
207.900000
 30
0.0
  0
LWPOLYLINE
  5
171
100
AcDbEntity
  8
0
 62
1
100
AcDbPolyline
 90
1
 70
1
 10
64.237500
 20
207.900000
 30
0.0
  0
SPLINE
  5
172
100
AcDbEntity
  8
0
 62
1
100
AcDbSpline
 70
8
 71
3
 72
8
 73
4
 74
0
 40
0
 40
0
 40
0
 40
0
 40
1
 40
1
 40
1
 40
1
 10
7.087500
 20
153.607500
 30
0.0
 10
7.087500
 20
152.736665
 30
0.0
 10
6.622915
 20
151.931981
 30
0.0
 10
5.868750
 20
151.496563
 30
0.0
  0
SPLINE
  5
173
100
AcDbEntity
  8
0
 62
1
100
AcDbSpline
 70
8
 71
3
 72
8
 73
4
 74
0
 40
0
 40
0
 40
0
 40
0
 40
1
 40
1
 40
1
 40
1
 10
5.868750
 20
151.496563
 30
0.0
 10
5.114585
 20
151.061146
 30
0.0
 10
4.185415
 20
151.061146
 30
0.0
 10
3.431250
 20
151.496563
 30
0.0
  0
SPLINE
  5
174
100
AcDbEntity
  8
0
 62
1
100
AcDbSpline
 70
8
 71
3
 72
8
 73
4
 74
0
 40
0
 40
0
 40
0
 40
0
 40
1
 40
1
 40
1
 40
1
 10
3.431250
 20
151.496563
 30
0.0
 10
2.677085
 20
151.931981
 30
0.0
 10
2.212500
 20
152.736665
 30
0.0
 10
2.212500
 20
153.607500
 30
0.0
  0
SPLINE
  5
175
100
AcDbEntity
  8
0
 62
1
100
AcDbSpline
 70
8
 71
3
 72
8
 73
4
 74
0
 40
0
 40
0
 40
0
 40
0
 40
1
 40
1
 40
1
 40
1
 10
2.212500
 20
153.607500
 30
0.0
 10
2.212500
 20
154.478335
 30
0.0
 10
2.677085
 20
155.283019
 30
0.0
 10
3.431250
 20
155.718437
 30
0.0
  0
SPLINE
  5
176
100
AcDbEntity
  8
0
 62
1
100
AcDbSpline
 70
8
 71
3
 72
8
 73
4
 74
0
 40
0
 40
0
 40
0
 40
0
 40
1
 40
1
 40
1
 40
1
 10
3.431250
 20
155.718437
 30
0.0
 10
4.185415
 20
156.153854
 30
0.0
 10
5.114585
 20
156.153854
 30
0.0
 10
5.868750
 20
155.718437
 30
0.0
  0
SPLINE
  5
177
100
AcDbEntity
  8
0
 62
1
100
AcDbSpline
 70
8
 71
3
 72
8
 73
4
 74
0
 40
0
 40
0
 40
0
 40
0
 40
1
 40
1
 40
1
 40
1
 10
5.868750
 20
155.718437
 30
0.0
 10
6.622915
 20
155.283019
 30
0.0
 10
7.087500
 20
154.478335
 30
0.0
 10
7.087500
 20
153.607500
 30
0.0
  0
LWPOLYLINE
  5
178
100
AcDbEntity
  8
0
 62
1
100
AcDbPolyline
 90
1
 70
1
 10
73.762500
 20
207.900000
 30
0.0
  0
SPLINE
  5
179
100
AcDbEntity
  8
0
 62
1
100
AcDbSpline
 70
8
 71
3
 72
8
 73
4
 74
0
 40
0
 40
0
 40
0
 40
0
 40
1
 40
1
 40
1
 40
1
 10
16.612500
 20
153.607500
 30
0.0
 10
16.612500
 20
152.736665
 30
0.0
 10
16.147915
 20
151.931981
 30
0.0
 10
15.393750
 20
151.496563
 30
0.0
  0
SPLINE
  5
17a
100
AcDbEntity
  8
0
 62
1
100
AcDbSpline
 70
8
 71
3
 72
8
 73
4
 74
0
 40
0
 40
0
 40
0
 40
0
 40
1
 40
1
 40
1
 40
1
 10
15.393750
 20
151.496563
 30
0.0
 10
14.639585
 20
151.061146
 30
0.0
 10
13.710415
 20
151.061146
 30
0.0
 10
12.956250
 20
151.496563
 30
0.0
  0
SPLINE
  5
17b
100
AcDbEntity
  8
0
 62
1
100
AcDbSpline
 70
8
 71
3
 72
8
 73
4
 74
0
 40
0
 40
0
 40
0
 40
0
 40
1
 40
1
 40
1
 40
1
 10
12.956250
 20
151.496563
 30
0.0
 10
12.202085
 20
151.931981
 30
0.0
 10
11.737500
 20
152.736665
 30
0.0
 10
11.737500
 20
153.607500
 30
0.0
  0
SPLINE
  5
17c
100
AcDbEntity
  8
0
 62
1
100
AcDbSpline
 70
8
 71
3
 72
8
 73
4
 74
0
 40
0
 40
0
 40
0
 40
0
 40
1
 40
1
 40
1
 40
1
 10
11.737500
 20
153.607500
 30
0.0
 10
11.737500
 20
154.478335
 30
0.0
 10
12.202085
 20
155.283019
 30
0.0
 10
12.956250
 20
155.718437
 30
0.0
  0
SPLINE
  5
17d
100
AcDbEntity
  8
0
 62
1
100
AcDbSpline
 70
8
 71
3
 72
8
 73
4
 74
0
 40
0
 40
0
 40
0
 40
0
 40
1
 40
1
 40
1
 40
1
 10
12.956250
 20
155.718437
 30
0.0
 10
13.710415
 20
156.153854
 30
0.0
 10
14.639585
 20
156.153854
 30
0.0
 10
15.393750
 20
155.718437
 30
0.0
  0
SPLINE
  5
17e
100
AcDbEntity
  8
0
 62
1
100
AcDbSpline
 70
8
 71
3
 72
8
 73
4
 74
0
 40
0
 40
0
 40
0
 40
0
 40
1
 40
1
 40
1
 40
1
 10
15.393750
 20
155.718437
 30
0.0
 10
16.147915
 20
155.283019
 30
0.0
 10
16.612500
 20
154.478335
 30
0.0
 10
16.612500
 20
153.607500
 30
0.0
  0
LWPOLYLINE
  5
17f
100
AcDbEntity
  8
0
 62
1
100
AcDbPolyline
 90
1
 70
1
 10
7.087500
 20
153.607500
 30
0.0
  0
SPLINE
  5
180
100
AcDbEntity
  8
0
 62
1
100
AcDbSpline
 70
8
 71
3
 72
8
 73
4
 74
0
 40
0
 40
0
 40
0
 40
0
 40
1
 40
1
 40
1
 40
1
 10
26.137500
 20
153.607500
 30
0.0
 10
26.137500
 20
152.736665
 30
0.0
 10
25.672915
 20
151.931981
 30
0.0
 10
24.918750
 20
151.496563
 30
0.0
  0
SPLINE
  5
181
100
AcDbEntity
  8
0
 62
1
100
AcDbSpline
 70
8
 71
3
 72
8
 73
4
 74
0
 40
0
 40
0
 40
0
 40
0
 40
1
 40
1
 40
1
 40
1
 10
24.918750
 20
151.496563
 30
0.0
 10
24.164585
 20
151.061146
 30
0.0
 10
23.235415
 20
151.061146
 30
0.0
 10
22.481250
 20
151.496563
 30
0.0
  0
SPLINE
  5
182
100
AcDbEntity
  8
0
 62
1
100
AcDbSpline
 70
8
 71
3
 72
8
 73
4
 74
0
 40
0
 40
0
 40
0
 40
0
 40
1
 40
1
 40
1
 40
1
 10
22.481250
 20
151.496563
 30
0.0
 10
21.727085
 20
151.931981
 30
0.0
 10
21.262500
 20
152.736665
 30
0.0
 10
21.262500
 20
153.607500
 30
0.0
  0
SPLINE
  5
183
100
AcDbEntity
  8
0
 62
1
100
AcDbSpline
 70
8
 71
3
 72
8
 73
4
 74
0
 40
0
 40
0
 40
0
 40
0
 40
1
 40
1
 40
1
 40
1
 10
21.262500
 20
153.607500
 30
0.0
 10
21.262500
 20
154.478335
 30
0.0
 10
21.727085
 20
155.283019
 30
0.0
 10
22.481250
 20
155.718437
 30
0.0
  0
SPLINE
  5
184
100
AcDbEntity
  8
0
 62
1
100
AcDbSpline
 70
8
 71
3
 72
8
 73
4
 74
0
 40
0
 40
0
 40
0
 40
0
 40
1
 40
1
 40
1
 40
1
 10
22.481250
 20
155.718437
 30
0.0
 10
23.235415
 20
156.153854
 30
0.0
 10
24.164585
 20
156.153854
 30
0.0
 10
24.918750
 20
155.718437
 30
0.0
  0
SPLINE
  5
185
100
AcDbEntity
  8
0
 62
1
100
AcDbSpline
 70
8
 71
3
 72
8
 73
4
 74
0
 40
0
 40
0
 40
0
 40
0
 40
1
 40
1
 40
1
 40
1
 10
24.918750
 20
155.718437
 30
0.0
 10
25.672915
 20
155.283019
 30
0.0
 10
26.137500
 20
154.478335
 30
0.0
 10
26.137500
 20
153.607500
 30
0.0
  0
LWPOLYLINE
  5
186
100
AcDbEntity
  8
0
 62
1
100
AcDbPolyline
 90
1
 70
1
 10
16.612500
 20
153.607500
 30
0.0
  0
SPLINE
  5
187
100
AcDbEntity
  8
0
 62
1
100
AcDbSpline
 70
8
 71
3
 72
8
 73
4
 74
0
 40
0
 40
0
 40
0
 40
0
 40
1
 40
1
 40
1
 40
1
 10
35.662500
 20
153.607500
 30
0.0
 10
35.662500
 20
152.736665
 30
0.0
 10
35.197915
 20
151.931981
 30
0.0
 10
34.443750
 20
151.496563
 30
0.0
  0
SPLINE
  5
188
100
AcDbEntity
  8
0
 62
1
100
AcDbSpline
 70
8
 71
3
 72
8
 73
4
 74
0
 40
0
 40
0
 40
0
 40
0
 40
1
 40
1
 40
1
 40
1
 10
34.443750
 20
151.496563
 30
0.0
 10
33.689585
 20
151.061146
 30
0.0
 10
32.760415
 20
151.061146
 30
0.0
 10
32.006250
 20
151.496563
 30
0.0
  0
SPLINE
  5
189
100
AcDbEntity
  8
0
 62
1
100
AcDbSpline
 70
8
 71
3
 72
8
 73
4
 74
0
 40
0
 40
0
 40
0
 40
0
 40
1
 40
1
 40
1
 40
1
 10
32.006250
 20
151.496563
 30
0.0
 10
31.252085
 20
151.931981
 30
0.0
 10
30.787500
 20
152.736665
 30
0.0
 10
30.787500
 20
153.607500
 30
0.0
  0
SPLINE
  5
18a
100
AcDbEntity
  8
0
 62
1
100
AcDbSpline
 70
8
 71
3
 72
8
 73
4
 74
0
 40
0
 40
0
 40
0
 40
0
 40
1
 40
1
 40
1
 40
1
 10
30.787500
 20
153.607500
 30
0.0
 10
30.787500
 20
154.478335
 30
0.0
 10
31.252085
 20
155.283019
 30
0.0
 10
32.006250
 20
155.718437
 30
0.0
  0
SPLINE
  5
18b
100
AcDbEntity
  8
0
 62
1
100
AcDbSpline
 70
8
 71
3
 72
8
 73
4
 74
0
 40
0
 40
0
 40
0
 40
0
 40
1
 40
1
 40
1
 40
1
 10
32.006250
 20
155.718437
 30
0.0
 10
32.760415
 20
156.153854
 30
0.0
 10
33.689585
 20
156.153854
 30
0.0
 10
34.443750
 20
155.718437
 30
0.0
  0
SPLINE
  5
18c
100
AcDbEntity
  8
0
 62
1
100
AcDbSpline
 70
8
 71
3
 72
8
 73
4
 74
0
 40
0
 40
0
 40
0
 40
0
 40
1
 40
1
 40
1
 40
1
 10
34.443750
 20
155.718437
 30
0.0
 10
35.197915
 20
155.283019
 30
0.0
 10
35.662500
 20
154.478335
 30
0.0
 10
35.662500
 20
153.607500
 30
0.0
  0
LWPOLYLINE
  5
18d
100
AcDbEntity
  8
0
 62
1
100
AcDbPolyline
 90
1
 70
1
 10
26.137500
 20
153.607500
 30
0.0
  0
SPLINE
  5
18e
100
AcDbEntity
  8
0
 62
1
100
AcDbSpline
 70
8
 71
3
 72
8
 73
4
 74
0
 40
0
 40
0
 40
0
 40
0
 40
1
 40
1
 40
1
 40
1
 10
45.187500
 20
153.607500
 30
0.0
 10
45.187500
 20
152.736665
 30
0.0
 10
44.722915
 20
151.931981
 30
0.0
 10
43.968750
 20
151.496563
 30
0.0
  0
SPLINE
  5
18f
100
AcDbEntity
  8
0
 62
1
100
AcDbSpline
 70
8
 71
3
 72
8
 73
4
 74
0
 40
0
 40
0
 40
0
 40
0
 40
1
 40
1
 40
1
 40
1
 10
43.968750
 20
151.496563
 30
0.0
 10
43.214585
 20
151.061146
 30
0.0
 10
42.285415
 20
151.061146
 30
0.0
 10
41.531250
 20
151.496563
 30
0.0
  0
SPLINE
  5
190
100
AcDbEntity
  8
0
 62
1
100
AcDbSpline
 70
8
 71
3
 72
8
 73
4
 74
0
 40
0
 40
0
 40
0
 40
0
 40
1
 40
1
 40
1
 40
1
 10
41.531250
 20
151.496563
 30
0.0
 10
40.777085
 20
151.931981
 30
0.0
 10
40.312500
 20
152.736665
 30
0.0
 10
40.312500
 20
153.607500
 30
0.0
  0
SPLINE
  5
191
100
AcDbEntity
  8
0
 62
1
100
AcDbSpline
 70
8
 71
3
 72
8
 73
4
 74
0
 40
0
 40
0
 40
0
 40
0
 40
1
 40
1
 40
1
 40
1
 10
40.312500
 20
153.607500
 30
0.0
 10
40.312500
 20
154.478335
 30
0.0
 10
40.777085
 20
155.283019
 30
0.0
 10
41.531250
 20
155.718437
 30
0.0
  0
SPLINE
  5
192
100
AcDbEntity
  8
0
 62
1
100
AcDbSpline
 70
8
 71
3
 72
8
 73
4
 74
0
 40
0
 40
0
 40
0
 40
0
 40
1
 40
1
 40
1
 40
1
 10
41.531250
 20
155.718437
 30
0.0
 10
42.285415
 20
156.153854
 30
0.0
 10
43.214585
 20
156.153854
 30
0.0
 10
43.968750
 20
155.718437
 30
0.0
  0
SPLINE
  5
193
100
AcDbEntity
  8
0
 62
1
100
AcDbSpline
 70
8
 71
3
 72
8
 73
4
 74
0
 40
0
 40
0
 40
0
 40
0
 40
1
 40
1
 40
1
 40
1
 10
43.968750
 20
155.718437
 30
0.0
 10
44.722915
 20
155.283019
 30
0.0
 10
45.187500
 20
154.478335
 30
0.0
 10
45.187500
 20
153.607500
 30
0.0
  0
LWPOLYLINE
  5
194
100
AcDbEntity
  8
0
 62
1
100
AcDbPolyline
 90
1
 70
1
 10
35.662500
 20
153.607500
 30
0.0
  0
SPLINE
  5
195
100
AcDbEntity
  8
0
 62
1
100
AcDbSpline
 70
8
 71
3
 72
8
 73
4
 74
0
 40
0
 40
0
 40
0
 40
0
 40
1
 40
1
 40
1
 40
1
 10
54.712500
 20
153.607500
 30
0.0
 10
54.712500
 20
152.736665
 30
0.0
 10
54.247915
 20
151.931981
 30
0.0
 10
53.493750
 20
151.496563
 30
0.0
  0
SPLINE
  5
196
100
AcDbEntity
  8
0
 62
1
100
AcDbSpline
 70
8
 71
3
 72
8
 73
4
 74
0
 40
0
 40
0
 40
0
 40
0
 40
1
 40
1
 40
1
 40
1
 10
53.493750
 20
151.496563
 30
0.0
 10
52.739585
 20
151.061146
 30
0.0
 10
51.810415
 20
151.061146
 30
0.0
 10
51.056250
 20
151.496563
 30
0.0
  0
SPLINE
  5
197
100
AcDbEntity
  8
0
 62
1
100
AcDbSpline
 70
8
 71
3
 72
8
 73
4
 74
0
 40
0
 40
0
 40
0
 40
0
 40
1
 40
1
 40
1
 40
1
 10
51.056250
 20
151.496563
 30
0.0
 10
50.302085
 20
151.931981
 30
0.0
 10
49.837500
 20
152.736665
 30
0.0
 10
49.837500
 20
153.607500
 30
0.0
  0
SPLINE
  5
198
100
AcDbEntity
  8
0
 62
1
100
AcDbSpline
 70
8
 71
3
 72
8
 73
4
 74
0
 40
0
 40
0
 40
0
 40
0
 40
1
 40
1
 40
1
 40
1
 10
49.837500
 20
153.607500
 30
0.0
 10
49.837500
 20
154.478335
 30
0.0
 10
50.302085
 20
155.283019
 30
0.0
 10
51.056250
 20
155.718437
 30
0.0
  0
SPLINE
  5
199
100
AcDbEntity
  8
0
 62
1
100
AcDbSpline
 70
8
 71
3
 72
8
 73
4
 74
0
 40
0
 40
0
 40
0
 40
0
 40
1
 40
1
 40
1
 40
1
 10
51.056250
 20
155.718437
 30
0.0
 10
51.810415
 20
156.153854
 30
0.0
 10
52.739585
 20
156.153854
 30
0.0
 10
53.493750
 20
155.718437
 30
0.0
  0
SPLINE
  5
19a
100
AcDbEntity
  8
0
 62
1
100
AcDbSpline
 70
8
 71
3
 72
8
 73
4
 74
0
 40
0
 40
0
 40
0
 40
0
 40
1
 40
1
 40
1
 40
1
 10
53.493750
 20
155.718437
 30
0.0
 10
54.247915
 20
155.283019
 30
0.0
 10
54.712500
 20
154.478335
 30
0.0
 10
54.712500
 20
153.607500
 30
0.0
  0
LWPOLYLINE
  5
19b
100
AcDbEntity
  8
0
 62
1
100
AcDbPolyline
 90
1
 70
1
 10
45.187500
 20
153.607500
 30
0.0
  0
SPLINE
  5
19c
100
AcDbEntity
  8
0
 62
1
100
AcDbSpline
 70
8
 71
3
 72
8
 73
4
 74
0
 40
0
 40
0
 40
0
 40
0
 40
1
 40
1
 40
1
 40
1
 10
64.237500
 20
153.607500
 30
0.0
 10
64.237500
 20
152.736665
 30
0.0
 10
63.772915
 20
151.931981
 30
0.0
 10
63.018750
 20
151.496563
 30
0.0
  0
SPLINE
  5
19d
100
AcDbEntity
  8
0
 62
1
100
AcDbSpline
 70
8
 71
3
 72
8
 73
4
 74
0
 40
0
 40
0
 40
0
 40
0
 40
1
 40
1
 40
1
 40
1
 10
63.018750
 20
151.496563
 30
0.0
 10
62.264585
 20
151.061146
 30
0.0
 10
61.335415
 20
151.061146
 30
0.0
 10
60.581250
 20
151.496563
 30
0.0
  0
SPLINE
  5
19e
100
AcDbEntity
  8
0
 62
1
100
AcDbSpline
 70
8
 71
3
 72
8
 73
4
 74
0
 40
0
 40
0
 40
0
 40
0
 40
1
 40
1
 40
1
 40
1
 10
60.581250
 20
151.496563
 30
0.0
 10
59.827085
 20
151.931981
 30
0.0
 10
59.362500
 20
152.736665
 30
0.0
 10
59.362500
 20
153.607500
 30
0.0
  0
SPLINE
  5
19f
100
AcDbEntity
  8
0
 62
1
100
AcDbSpline
 70
8
 71
3
 72
8
 73
4
 74
0
 40
0
 40
0
 40
0
 40
0
 40
1
 40
1
 40
1
 40
1
 10
59.362500
 20
153.607500
 30
0.0
 10
59.362500
 20
154.478335
 30
0.0
 10
59.827085
 20
155.283019
 30
0.0
 10
60.581250
 20
155.718437
 30
0.0
  0
SPLINE
  5
1a0
100
AcDbEntity
  8
0
 62
1
100
AcDbSpline
 70
8
 71
3
 72
8
 73
4
 74
0
 40
0
 40
0
 40
0
 40
0
 40
1
 40
1
 40
1
 40
1
 10
60.581250
 20
155.718437
 30
0.0
 10
61.335415
 20
156.153854
 30
0.0
 10
62.264585
 20
156.153854
 30
0.0
 10
63.018750
 20
155.718437
 30
0.0
  0
SPLINE
  5
1a1
100
AcDbEntity
  8
0
 62
1
100
AcDbSpline
 70
8
 71
3
 72
8
 73
4
 74
0
 40
0
 40
0
 40
0
 40
0
 40
1
 40
1
 40
1
 40
1
 10
63.018750
 20
155.718437
 30
0.0
 10
63.772915
 20
155.283019
 30
0.0
 10
64.237500
 20
154.478335
 30
0.0
 10
64.237500
 20
153.607500
 30
0.0
  0
LWPOLYLINE
  5
1a2
100
AcDbEntity
  8
0
 62
1
100
AcDbPolyline
 90
1
 70
1
 10
54.712500
 20
153.607500
 30
0.0
  0
SPLINE
  5
1a3
100
AcDbEntity
  8
0
 62
1
100
AcDbSpline
 70
8
 71
3
 72
8
 73
4
 74
0
 40
0
 40
0
 40
0
 40
0
 40
1
 40
1
 40
1
 40
1
 10
73.762500
 20
153.607500
 30
0.0
 10
73.762500
 20
152.736665
 30
0.0
 10
73.297915
 20
151.931981
 30
0.0
 10
72.543750
 20
151.496563
 30
0.0
  0
SPLINE
  5
1a4
100
AcDbEntity
  8
0
 62
1
100
AcDbSpline
 70
8
 71
3
 72
8
 73
4
 74
0
 40
0
 40
0
 40
0
 40
0
 40
1
 40
1
 40
1
 40
1
 10
72.543750
 20
151.496563
 30
0.0
 10
71.789585
 20
151.061146
 30
0.0
 10
70.860415
 20
151.061146
 30
0.0
 10
70.106250
 20
151.496563
 30
0.0
  0
SPLINE
  5
1a5
100
AcDbEntity
  8
0
 62
1
100
AcDbSpline
 70
8
 71
3
 72
8
 73
4
 74
0
 40
0
 40
0
 40
0
 40
0
 40
1
 40
1
 40
1
 40
1
 10
70.106250
 20
151.496563
 30
0.0
 10
69.352085
 20
151.931981
 30
0.0
 10
68.887500
 20
152.736665
 30
0.0
 10
68.887500
 20
153.607500
 30
0.0
  0
SPLINE
  5
1a6
100
AcDbEntity
  8
0
 62
1
100
AcDbSpline
 70
8
 71
3
 72
8
 73
4
 74
0
 40
0
 40
0
 40
0
 40
0
 40
1
 40
1
 40
1
 40
1
 10
68.887500
 20
153.607500
 30
0.0
 10
68.887500
 20
154.478335
 30
0.0
 10
69.352085
 20
155.283019
 30
0.0
 10
70.106250
 20
155.718437
 30
0.0
  0
SPLINE
  5
1a7
100
AcDbEntity
  8
0
 62
1
100
AcDbSpline
 70
8
 71
3
 72
8
 73
4
 74
0
 40
0
 40
0
 40
0
 40
0
 40
1
 40
1
 40
1
 40
1
 10
70.106250
 20
155.718437
 30
0.0
 10
70.860415
 20
156.153854
 30
0.0
 10
71.789585
 20
156.153854
 30
0.0
 10
72.543750
 20
155.718437
 30
0.0
  0
SPLINE
  5
1a8
100
AcDbEntity
  8
0
 62
1
100
AcDbSpline
 70
8
 71
3
 72
8
 73
4
 74
0
 40
0
 40
0
 40
0
 40
0
 40
1
 40
1
 40
1
 40
1
 10
72.543750
 20
155.718437
 30
0.0
 10
73.297915
 20
155.283019
 30
0.0
 10
73.762500
 20
154.478335
 30
0.0
 10
73.762500
 20
153.607500
 30
0.0
  0
LWPOLYLINE
  5
1a9
100
AcDbEntity
  8
0
 62
1
100
AcDbPolyline
 90
1
 70
1
 10
64.237500
 20
153.607500
 30
0.0
  0
SPLINE
  5
1aa
100
AcDbEntity
  8
0
 62
1
100
AcDbSpline
 70
8
 71
3
 72
8
 73
4
 74
0
 40
0
 40
0
 40
0
 40
0
 40
1
 40
1
 40
1
 40
1
 10
7.087500
 20
144.082500
 30
0.0
 10
7.087500
 20
143.211665
 30
0.0
 10
6.622915
 20
142.406981
 30
0.0
 10
5.868750
 20
141.971563
 30
0.0
  0
SPLINE
  5
1ab
100
AcDbEntity
  8
0
 62
1
100
AcDbSpline
 70
8
 71
3
 72
8
 73
4
 74
0
 40
0
 40
0
 40
0
 40
0
 40
1
 40
1
 40
1
 40
1
 10
5.868750
 20
141.971563
 30
0.0
 10
5.114585
 20
141.536146
 30
0.0
 10
4.185415
 20
141.536146
 30
0.0
 10
3.431250
 20
141.971563
 30
0.0
  0
SPLINE
  5
1ac
100
AcDbEntity
  8
0
 62
1
100
AcDbSpline
 70
8
 71
3
 72
8
 73
4
 74
0
 40
0
 40
0
 40
0
 40
0
 40
1
 40
1
 40
1
 40
1
 10
3.431250
 20
141.971563
 30
0.0
 10
2.677085
 20
142.406981
 30
0.0
 10
2.212500
 20
143.211665
 30
0.0
 10
2.212500
 20
144.082500
 30
0.0
  0
SPLINE
  5
1ad
100
AcDbEntity
  8
0
 62
1
100
AcDbSpline
 70
8
 71
3
 72
8
 73
4
 74
0
 40
0
 40
0
 40
0
 40
0
 40
1
 40
1
 40
1
 40
1
 10
2.212500
 20
144.082500
 30
0.0
 10
2.212500
 20
144.953335
 30
0.0
 10
2.677085
 20
145.758019
 30
0.0
 10
3.431250
 20
146.193437
 30
0.0
  0
SPLINE
  5
1ae
100
AcDbEntity
  8
0
 62
1
100
AcDbSpline
 70
8
 71
3
 72
8
 73
4
 74
0
 40
0
 40
0
 40
0
 40
0
 40
1
 40
1
 40
1
 40
1
 10
3.431250
 20
146.193437
 30
0.0
 10
4.185415
 20
146.628854
 30
0.0
 10
5.114585
 20
146.628854
 30
0.0
 10
5.868750
 20
146.193437
 30
0.0
  0
SPLINE
  5
1af
100
AcDbEntity
  8
0
 62
1
100
AcDbSpline
 70
8
 71
3
 72
8
 73
4
 74
0
 40
0
 40
0
 40
0
 40
0
 40
1
 40
1
 40
1
 40
1
 10
5.868750
 20
146.193437
 30
0.0
 10
6.622915
 20
145.758019
 30
0.0
 10
7.087500
 20
144.953335
 30
0.0
 10
7.087500
 20
144.082500
 30
0.0
  0
LWPOLYLINE
  5
1b0
100
AcDbEntity
  8
0
 62
1
100
AcDbPolyline
 90
1
 70
1
 10
73.762500
 20
153.607500
 30
0.0
  0
SPLINE
  5
1b1
100
AcDbEntity
  8
0
 62
1
100
AcDbSpline
 70
8
 71
3
 72
8
 73
4
 74
0
 40
0
 40
0
 40
0
 40
0
 40
1
 40
1
 40
1
 40
1
 10
16.612500
 20
144.082500
 30
0.0
 10
16.612500
 20
143.211665
 30
0.0
 10
16.147915
 20
142.406981
 30
0.0
 10
15.393750
 20
141.971563
 30
0.0
  0
SPLINE
  5
1b2
100
AcDbEntity
  8
0
 62
1
100
AcDbSpline
 70
8
 71
3
 72
8
 73
4
 74
0
 40
0
 40
0
 40
0
 40
0
 40
1
 40
1
 40
1
 40
1
 10
15.393750
 20
141.971563
 30
0.0
 10
14.639585
 20
141.536146
 30
0.0
 10
13.710415
 20
141.536146
 30
0.0
 10
12.956250
 20
141.971563
 30
0.0
  0
SPLINE
  5
1b3
100
AcDbEntity
  8
0
 62
1
100
AcDbSpline
 70
8
 71
3
 72
8
 73
4
 74
0
 40
0
 40
0
 40
0
 40
0
 40
1
 40
1
 40
1
 40
1
 10
12.956250
 20
141.971563
 30
0.0
 10
12.202085
 20
142.406981
 30
0.0
 10
11.737500
 20
143.211665
 30
0.0
 10
11.737500
 20
144.082500
 30
0.0
  0
SPLINE
  5
1b4
100
AcDbEntity
  8
0
 62
1
100
AcDbSpline
 70
8
 71
3
 72
8
 73
4
 74
0
 40
0
 40
0
 40
0
 40
0
 40
1
 40
1
 40
1
 40
1
 10
11.737500
 20
144.082500
 30
0.0
 10
11.737500
 20
144.953335
 30
0.0
 10
12.202085
 20
145.758019
 30
0.0
 10
12.956250
 20
146.193437
 30
0.0
  0
SPLINE
  5
1b5
100
AcDbEntity
  8
0
 62
1
100
AcDbSpline
 70
8
 71
3
 72
8
 73
4
 74
0
 40
0
 40
0
 40
0
 40
0
 40
1
 40
1
 40
1
 40
1
 10
12.956250
 20
146.193437
 30
0.0
 10
13.710415
 20
146.628854
 30
0.0
 10
14.639585
 20
146.628854
 30
0.0
 10
15.393750
 20
146.193437
 30
0.0
  0
SPLINE
  5
1b6
100
AcDbEntity
  8
0
 62
1
100
AcDbSpline
 70
8
 71
3
 72
8
 73
4
 74
0
 40
0
 40
0
 40
0
 40
0
 40
1
 40
1
 40
1
 40
1
 10
15.393750
 20
146.193437
 30
0.0
 10
16.147915
 20
145.758019
 30
0.0
 10
16.612500
 20
144.953335
 30
0.0
 10
16.612500
 20
144.082500
 30
0.0
  0
LWPOLYLINE
  5
1b7
100
AcDbEntity
  8
0
 62
1
100
AcDbPolyline
 90
1
 70
1
 10
7.087500
 20
144.082500
 30
0.0
  0
SPLINE
  5
1b8
100
AcDbEntity
  8
0
 62
1
100
AcDbSpline
 70
8
 71
3
 72
8
 73
4
 74
0
 40
0
 40
0
 40
0
 40
0
 40
1
 40
1
 40
1
 40
1
 10
26.137500
 20
144.082500
 30
0.0
 10
26.137500
 20
143.211665
 30
0.0
 10
25.672915
 20
142.406981
 30
0.0
 10
24.918750
 20
141.971563
 30
0.0
  0
SPLINE
  5
1b9
100
AcDbEntity
  8
0
 62
1
100
AcDbSpline
 70
8
 71
3
 72
8
 73
4
 74
0
 40
0
 40
0
 40
0
 40
0
 40
1
 40
1
 40
1
 40
1
 10
24.918750
 20
141.971563
 30
0.0
 10
24.164585
 20
141.536146
 30
0.0
 10
23.235415
 20
141.536146
 30
0.0
 10
22.481250
 20
141.971563
 30
0.0
  0
SPLINE
  5
1ba
100
AcDbEntity
  8
0
 62
1
100
AcDbSpline
 70
8
 71
3
 72
8
 73
4
 74
0
 40
0
 40
0
 40
0
 40
0
 40
1
 40
1
 40
1
 40
1
 10
22.481250
 20
141.971563
 30
0.0
 10
21.727085
 20
142.406981
 30
0.0
 10
21.262500
 20
143.211665
 30
0.0
 10
21.262500
 20
144.082500
 30
0.0
  0
SPLINE
  5
1bb
100
AcDbEntity
  8
0
 62
1
100
AcDbSpline
 70
8
 71
3
 72
8
 73
4
 74
0
 40
0
 40
0
 40
0
 40
0
 40
1
 40
1
 40
1
 40
1
 10
21.262500
 20
144.082500
 30
0.0
 10
21.262500
 20
144.953335
 30
0.0
 10
21.727085
 20
145.758019
 30
0.0
 10
22.481250
 20
146.193437
 30
0.0
  0
SPLINE
  5
1bc
100
AcDbEntity
  8
0
 62
1
100
AcDbSpline
 70
8
 71
3
 72
8
 73
4
 74
0
 40
0
 40
0
 40
0
 40
0
 40
1
 40
1
 40
1
 40
1
 10
22.481250
 20
146.193437
 30
0.0
 10
23.235415
 20
146.628854
 30
0.0
 10
24.164585
 20
146.628854
 30
0.0
 10
24.918750
 20
146.193437
 30
0.0
  0
SPLINE
  5
1bd
100
AcDbEntity
  8
0
 62
1
100
AcDbSpline
 70
8
 71
3
 72
8
 73
4
 74
0
 40
0
 40
0
 40
0
 40
0
 40
1
 40
1
 40
1
 40
1
 10
24.918750
 20
146.193437
 30
0.0
 10
25.672915
 20
145.758019
 30
0.0
 10
26.137500
 20
144.953335
 30
0.0
 10
26.137500
 20
144.082500
 30
0.0
  0
LWPOLYLINE
  5
1be
100
AcDbEntity
  8
0
 62
1
100
AcDbPolyline
 90
1
 70
1
 10
16.612500
 20
144.082500
 30
0.0
  0
SPLINE
  5
1bf
100
AcDbEntity
  8
0
 62
1
100
AcDbSpline
 70
8
 71
3
 72
8
 73
4
 74
0
 40
0
 40
0
 40
0
 40
0
 40
1
 40
1
 40
1
 40
1
 10
35.662500
 20
144.082500
 30
0.0
 10
35.662500
 20
143.211665
 30
0.0
 10
35.197915
 20
142.406981
 30
0.0
 10
34.443750
 20
141.971563
 30
0.0
  0
SPLINE
  5
1c0
100
AcDbEntity
  8
0
 62
1
100
AcDbSpline
 70
8
 71
3
 72
8
 73
4
 74
0
 40
0
 40
0
 40
0
 40
0
 40
1
 40
1
 40
1
 40
1
 10
34.443750
 20
141.971563
 30
0.0
 10
33.689585
 20
141.536146
 30
0.0
 10
32.760415
 20
141.536146
 30
0.0
 10
32.006250
 20
141.971563
 30
0.0
  0
SPLINE
  5
1c1
100
AcDbEntity
  8
0
 62
1
100
AcDbSpline
 70
8
 71
3
 72
8
 73
4
 74
0
 40
0
 40
0
 40
0
 40
0
 40
1
 40
1
 40
1
 40
1
 10
32.006250
 20
141.971563
 30
0.0
 10
31.252085
 20
142.406981
 30
0.0
 10
30.787500
 20
143.211665
 30
0.0
 10
30.787500
 20
144.082500
 30
0.0
  0
SPLINE
  5
1c2
100
AcDbEntity
  8
0
 62
1
100
AcDbSpline
 70
8
 71
3
 72
8
 73
4
 74
0
 40
0
 40
0
 40
0
 40
0
 40
1
 40
1
 40
1
 40
1
 10
30.787500
 20
144.082500
 30
0.0
 10
30.787500
 20
144.953335
 30
0.0
 10
31.252085
 20
145.758019
 30
0.0
 10
32.006250
 20
146.193437
 30
0.0
  0
SPLINE
  5
1c3
100
AcDbEntity
  8
0
 62
1
100
AcDbSpline
 70
8
 71
3
 72
8
 73
4
 74
0
 40
0
 40
0
 40
0
 40
0
 40
1
 40
1
 40
1
 40
1
 10
32.006250
 20
146.193437
 30
0.0
 10
32.760415
 20
146.628854
 30
0.0
 10
33.689585
 20
146.628854
 30
0.0
 10
34.443750
 20
146.193437
 30
0.0
  0
SPLINE
  5
1c4
100
AcDbEntity
  8
0
 62
1
100
AcDbSpline
 70
8
 71
3
 72
8
 73
4
 74
0
 40
0
 40
0
 40
0
 40
0
 40
1
 40
1
 40
1
 40
1
 10
34.443750
 20
146.193437
 30
0.0
 10
35.197915
 20
145.758019
 30
0.0
 10
35.662500
 20
144.953335
 30
0.0
 10
35.662500
 20
144.082500
 30
0.0
  0
LWPOLYLINE
  5
1c5
100
AcDbEntity
  8
0
 62
1
100
AcDbPolyline
 90
1
 70
1
 10
26.137500
 20
144.082500
 30
0.0
  0
SPLINE
  5
1c6
100
AcDbEntity
  8
0
 62
1
100
AcDbSpline
 70
8
 71
3
 72
8
 73
4
 74
0
 40
0
 40
0
 40
0
 40
0
 40
1
 40
1
 40
1
 40
1
 10
45.187500
 20
144.082500
 30
0.0
 10
45.187500
 20
143.211665
 30
0.0
 10
44.722915
 20
142.406981
 30
0.0
 10
43.968750
 20
141.971563
 30
0.0
  0
SPLINE
  5
1c7
100
AcDbEntity
  8
0
 62
1
100
AcDbSpline
 70
8
 71
3
 72
8
 73
4
 74
0
 40
0
 40
0
 40
0
 40
0
 40
1
 40
1
 40
1
 40
1
 10
43.968750
 20
141.971563
 30
0.0
 10
43.214585
 20
141.536146
 30
0.0
 10
42.285415
 20
141.536146
 30
0.0
 10
41.531250
 20
141.971563
 30
0.0
  0
SPLINE
  5
1c8
100
AcDbEntity
  8
0
 62
1
100
AcDbSpline
 70
8
 71
3
 72
8
 73
4
 74
0
 40
0
 40
0
 40
0
 40
0
 40
1
 40
1
 40
1
 40
1
 10
41.531250
 20
141.971563
 30
0.0
 10
40.777085
 20
142.406981
 30
0.0
 10
40.312500
 20
143.211665
 30
0.0
 10
40.312500
 20
144.082500
 30
0.0
  0
SPLINE
  5
1c9
100
AcDbEntity
  8
0
 62
1
100
AcDbSpline
 70
8
 71
3
 72
8
 73
4
 74
0
 40
0
 40
0
 40
0
 40
0
 40
1
 40
1
 40
1
 40
1
 10
40.312500
 20
144.082500
 30
0.0
 10
40.312500
 20
144.953335
 30
0.0
 10
40.777085
 20
145.758019
 30
0.0
 10
41.531250
 20
146.193437
 30
0.0
  0
SPLINE
  5
1ca
100
AcDbEntity
  8
0
 62
1
100
AcDbSpline
 70
8
 71
3
 72
8
 73
4
 74
0
 40
0
 40
0
 40
0
 40
0
 40
1
 40
1
 40
1
 40
1
 10
41.531250
 20
146.193437
 30
0.0
 10
42.285415
 20
146.628854
 30
0.0
 10
43.214585
 20
146.628854
 30
0.0
 10
43.968750
 20
146.193437
 30
0.0
  0
SPLINE
  5
1cb
100
AcDbEntity
  8
0
 62
1
100
AcDbSpline
 70
8
 71
3
 72
8
 73
4
 74
0
 40
0
 40
0
 40
0
 40
0
 40
1
 40
1
 40
1
 40
1
 10
43.968750
 20
146.193437
 30
0.0
 10
44.722915
 20
145.758019
 30
0.0
 10
45.187500
 20
144.953335
 30
0.0
 10
45.187500
 20
144.082500
 30
0.0
  0
LWPOLYLINE
  5
1cc
100
AcDbEntity
  8
0
 62
1
100
AcDbPolyline
 90
1
 70
1
 10
35.662500
 20
144.082500
 30
0.0
  0
SPLINE
  5
1cd
100
AcDbEntity
  8
0
 62
1
100
AcDbSpline
 70
8
 71
3
 72
8
 73
4
 74
0
 40
0
 40
0
 40
0
 40
0
 40
1
 40
1
 40
1
 40
1
 10
54.712500
 20
144.082500
 30
0.0
 10
54.712500
 20
143.211665
 30
0.0
 10
54.247915
 20
142.406981
 30
0.0
 10
53.493750
 20
141.971563
 30
0.0
  0
SPLINE
  5
1ce
100
AcDbEntity
  8
0
 62
1
100
AcDbSpline
 70
8
 71
3
 72
8
 73
4
 74
0
 40
0
 40
0
 40
0
 40
0
 40
1
 40
1
 40
1
 40
1
 10
53.493750
 20
141.971563
 30
0.0
 10
52.739585
 20
141.536146
 30
0.0
 10
51.810415
 20
141.536146
 30
0.0
 10
51.056250
 20
141.971563
 30
0.0
  0
SPLINE
  5
1cf
100
AcDbEntity
  8
0
 62
1
100
AcDbSpline
 70
8
 71
3
 72
8
 73
4
 74
0
 40
0
 40
0
 40
0
 40
0
 40
1
 40
1
 40
1
 40
1
 10
51.056250
 20
141.971563
 30
0.0
 10
50.302085
 20
142.406981
 30
0.0
 10
49.837500
 20
143.211665
 30
0.0
 10
49.837500
 20
144.082500
 30
0.0
  0
SPLINE
  5
1d0
100
AcDbEntity
  8
0
 62
1
100
AcDbSpline
 70
8
 71
3
 72
8
 73
4
 74
0
 40
0
 40
0
 40
0
 40
0
 40
1
 40
1
 40
1
 40
1
 10
49.837500
 20
144.082500
 30
0.0
 10
49.837500
 20
144.953335
 30
0.0
 10
50.302085
 20
145.758019
 30
0.0
 10
51.056250
 20
146.193437
 30
0.0
  0
SPLINE
  5
1d1
100
AcDbEntity
  8
0
 62
1
100
AcDbSpline
 70
8
 71
3
 72
8
 73
4
 74
0
 40
0
 40
0
 40
0
 40
0
 40
1
 40
1
 40
1
 40
1
 10
51.056250
 20
146.193437
 30
0.0
 10
51.810415
 20
146.628854
 30
0.0
 10
52.739585
 20
146.628854
 30
0.0
 10
53.493750
 20
146.193437
 30
0.0
  0
SPLINE
  5
1d2
100
AcDbEntity
  8
0
 62
1
100
AcDbSpline
 70
8
 71
3
 72
8
 73
4
 74
0
 40
0
 40
0
 40
0
 40
0
 40
1
 40
1
 40
1
 40
1
 10
53.493750
 20
146.193437
 30
0.0
 10
54.247915
 20
145.758019
 30
0.0
 10
54.712500
 20
144.953335
 30
0.0
 10
54.712500
 20
144.082500
 30
0.0
  0
LWPOLYLINE
  5
1d3
100
AcDbEntity
  8
0
 62
1
100
AcDbPolyline
 90
1
 70
1
 10
45.187500
 20
144.082500
 30
0.0
  0
SPLINE
  5
1d4
100
AcDbEntity
  8
0
 62
1
100
AcDbSpline
 70
8
 71
3
 72
8
 73
4
 74
0
 40
0
 40
0
 40
0
 40
0
 40
1
 40
1
 40
1
 40
1
 10
64.237500
 20
144.082500
 30
0.0
 10
64.237500
 20
143.211665
 30
0.0
 10
63.772915
 20
142.406981
 30
0.0
 10
63.018750
 20
141.971563
 30
0.0
  0
SPLINE
  5
1d5
100
AcDbEntity
  8
0
 62
1
100
AcDbSpline
 70
8
 71
3
 72
8
 73
4
 74
0
 40
0
 40
0
 40
0
 40
0
 40
1
 40
1
 40
1
 40
1
 10
63.018750
 20
141.971563
 30
0.0
 10
62.264585
 20
141.536146
 30
0.0
 10
61.335415
 20
141.536146
 30
0.0
 10
60.581250
 20
141.971563
 30
0.0
  0
SPLINE
  5
1d6
100
AcDbEntity
  8
0
 62
1
100
AcDbSpline
 70
8
 71
3
 72
8
 73
4
 74
0
 40
0
 40
0
 40
0
 40
0
 40
1
 40
1
 40
1
 40
1
 10
60.581250
 20
141.971563
 30
0.0
 10
59.827085
 20
142.406981
 30
0.0
 10
59.362500
 20
143.211665
 30
0.0
 10
59.362500
 20
144.082500
 30
0.0
  0
SPLINE
  5
1d7
100
AcDbEntity
  8
0
 62
1
100
AcDbSpline
 70
8
 71
3
 72
8
 73
4
 74
0
 40
0
 40
0
 40
0
 40
0
 40
1
 40
1
 40
1
 40
1
 10
59.362500
 20
144.082500
 30
0.0
 10
59.362500
 20
144.953335
 30
0.0
 10
59.827085
 20
145.758019
 30
0.0
 10
60.581250
 20
146.193437
 30
0.0
  0
SPLINE
  5
1d8
100
AcDbEntity
  8
0
 62
1
100
AcDbSpline
 70
8
 71
3
 72
8
 73
4
 74
0
 40
0
 40
0
 40
0
 40
0
 40
1
 40
1
 40
1
 40
1
 10
60.581250
 20
146.193437
 30
0.0
 10
61.335415
 20
146.628854
 30
0.0
 10
62.264585
 20
146.628854
 30
0.0
 10
63.018750
 20
146.193437
 30
0.0
  0
SPLINE
  5
1d9
100
AcDbEntity
  8
0
 62
1
100
AcDbSpline
 70
8
 71
3
 72
8
 73
4
 74
0
 40
0
 40
0
 40
0
 40
0
 40
1
 40
1
 40
1
 40
1
 10
63.018750
 20
146.193437
 30
0.0
 10
63.772915
 20
145.758019
 30
0.0
 10
64.237500
 20
144.953335
 30
0.0
 10
64.237500
 20
144.082500
 30
0.0
  0
LWPOLYLINE
  5
1da
100
AcDbEntity
  8
0
 62
1
100
AcDbPolyline
 90
1
 70
1
 10
54.712500
 20
144.082500
 30
0.0
  0
SPLINE
  5
1db
100
AcDbEntity
  8
0
 62
1
100
AcDbSpline
 70
8
 71
3
 72
8
 73
4
 74
0
 40
0
 40
0
 40
0
 40
0
 40
1
 40
1
 40
1
 40
1
 10
73.762500
 20
144.082500
 30
0.0
 10
73.762500
 20
143.211665
 30
0.0
 10
73.297915
 20
142.406981
 30
0.0
 10
72.543750
 20
141.971563
 30
0.0
  0
SPLINE
  5
1dc
100
AcDbEntity
  8
0
 62
1
100
AcDbSpline
 70
8
 71
3
 72
8
 73
4
 74
0
 40
0
 40
0
 40
0
 40
0
 40
1
 40
1
 40
1
 40
1
 10
72.543750
 20
141.971563
 30
0.0
 10
71.789585
 20
141.536146
 30
0.0
 10
70.860415
 20
141.536146
 30
0.0
 10
70.106250
 20
141.971563
 30
0.0
  0
SPLINE
  5
1dd
100
AcDbEntity
  8
0
 62
1
100
AcDbSpline
 70
8
 71
3
 72
8
 73
4
 74
0
 40
0
 40
0
 40
0
 40
0
 40
1
 40
1
 40
1
 40
1
 10
70.106250
 20
141.971563
 30
0.0
 10
69.352085
 20
142.406981
 30
0.0
 10
68.887500
 20
143.211665
 30
0.0
 10
68.887500
 20
144.082500
 30
0.0
  0
SPLINE
  5
1de
100
AcDbEntity
  8
0
 62
1
100
AcDbSpline
 70
8
 71
3
 72
8
 73
4
 74
0
 40
0
 40
0
 40
0
 40
0
 40
1
 40
1
 40
1
 40
1
 10
68.887500
 20
144.082500
 30
0.0
 10
68.887500
 20
144.953335
 30
0.0
 10
69.352085
 20
145.758019
 30
0.0
 10
70.106250
 20
146.193437
 30
0.0
  0
SPLINE
  5
1df
100
AcDbEntity
  8
0
 62
1
100
AcDbSpline
 70
8
 71
3
 72
8
 73
4
 74
0
 40
0
 40
0
 40
0
 40
0
 40
1
 40
1
 40
1
 40
1
 10
70.106250
 20
146.193437
 30
0.0
 10
70.860415
 20
146.628854
 30
0.0
 10
71.789585
 20
146.628854
 30
0.0
 10
72.543750
 20
146.193437
 30
0.0
  0
SPLINE
  5
1e0
100
AcDbEntity
  8
0
 62
1
100
AcDbSpline
 70
8
 71
3
 72
8
 73
4
 74
0
 40
0
 40
0
 40
0
 40
0
 40
1
 40
1
 40
1
 40
1
 10
72.543750
 20
146.193437
 30
0.0
 10
73.297915
 20
145.758019
 30
0.0
 10
73.762500
 20
144.953335
 30
0.0
 10
73.762500
 20
144.082500
 30
0.0
  0
LWPOLYLINE
  5
1e1
100
AcDbEntity
  8
0
 62
1
100
AcDbPolyline
 90
1
 70
1
 10
64.237500
 20
144.082500
 30
0.0
  0
LWPOLYLINE
  5
1e2
100
AcDbEntity
  8
0
 62
1
100
AcDbPolyline
 90
1
 70
1
 10
73.762500
 20
144.082500
 30
0.0
  0
ENDSEC
  0
SECTION
  2
OBJECTS
  0
DICTIONARY
  5
C
330
0
100
AcDbDictionary
  3
ACAD_GROUP
350
D
  3
ACAD_MLINESTYLE
350
17
  0
DICTIONARY
  5
D
330
C
100
AcDbDictionary
  0
DICTIONARY
  5
1A
330
C
100
AcDbDictionary
  0
DICTIONARY
  5
17
330
C
100
AcDbDictionary
  3
STANDARD
350
18
  0
DICTIONARY
  5
19
330
C
100
AcDbDictionary
  0
ENDSEC
  0
EOF
