<?xml version="1.0" encoding="UTF-8" standalone="no"?>
<svg
   xmlns:dc="http://purl.org/dc/elements/1.1/"
   xmlns:cc="http://creativecommons.org/ns#"
   xmlns:rdf="http://www.w3.org/1999/02/22-rdf-syntax-ns#"
   xmlns:svg="http://www.w3.org/2000/svg"
   xmlns="http://www.w3.org/2000/svg"
   xmlns:sodipodi="http://sodipodi.sourceforge.net/DTD/sodipodi-0.dtd"
   xmlns:inkscape="http://www.inkscape.org/namespaces/inkscape"
   version="1.1"
   width="210mm"
   height="297mm"
   viewBox="0 0 210 297"
   id="svg5609"
   inkscape:version="0.48.4 r9939"
   sodipodi:docname="OwlModular.svg">
  <metadata
     id="metadata6084">
    <rdf:RDF>
      <cc:Work
         rdf:about="">
        <dc:format>image/svg+xml</dc:format>
        <dc:type
           rdf:resource="http://purl.org/dc/dcmitype/StillImage" />
        <dc:title></dc:title>
      </cc:Work>
    </rdf:RDF>
  </metadata>
  <sodipodi:namedview
     pagecolor="#ffffff"
     bordercolor="#666666"
     borderopacity="1"
     objecttolerance="10"
     gridtolerance="10"
     guidetolerance="10"
     inkscape:pageopacity="0"
     inkscape:pageshadow="2"
     inkscape:window-width="1280"
     inkscape:window-height="974"
     id="namedview6082"
     showgrid="false"
     inkscape:zoom="1.6700709"
     inkscape:cx="294.4083"
     inkscape:cy="522.38543"
     inkscape:window-x="0"
     inkscape:window-y="0"
     inkscape:window-maximized="1"
     inkscape:current-layer="layer5" />
  <defs
     id="defs5611">
    <g
       id="potgrading">
      <path
         d="M 22.469177,65.29487 C 12.864593,59.897939 6.3758317,49.616792 6.3758317,37.815007 c 0,-17.395119 14.1022403,-31.4975588 31.4994303,-31.4975588 17.392315,0 31.496992,14.1012398 31.496992,31.4975588 0,11.809085 -6.498509,22.101133 -16.116497,27.493263"
         style="fill:none;stroke:#030303;stroke-width:0.41032487"
         id="path5614" />
      <path
         d="m 28.906759,4.4567034 0.78974,2.9366707"
         style="fill:none;stroke:#030303;stroke-width:0.75"
         id="path5616" />
      <path
         d="M 19.149856,5.4303268 22.099957,10.54465"
         style="fill:none;stroke:#030303;stroke-width:1.0"
         id="path5618" />
      <path
         d="m 13.42878,13.404619 2.150735,2.149652"
         style="fill:none;stroke:#030303;stroke-width:0.75"
         id="path5620" />
      <path
         d="m 5.5191934,19.159858 5.0557506,2.91857"
         style="fill:none;stroke:#030303;stroke-width:1.0"
         id="path5622" />
      <path
         d="m 4.4968328,28.890192 2.9366973,0.786019"
         style="fill:none;stroke:#030303;stroke-width:0.75"
         id="path5624" />
      <path
         d="m 0.49999997,37.829608 5.86364623,0"
         style="fill:none;stroke:#030303;stroke-width:1.0"
         id="path5626" />
      <path
         d="M 4.5053627,46.769023 7.44206,45.980604"
         style="fill:none;stroke:#030303;stroke-width:0.75"
         id="path5628" />
      <path
         d="M 5.5106636,56.509058 10.590785,53.578387"
         style="fill:none;stroke:#030303;stroke-width:1.0"
         id="path5630" />
      <path
         d="m 13.451932,62.247196 2.145861,-2.149452"
         style="fill:none;stroke:#030303;stroke-width:0.75"
         id="path5632" />
      <path
         d="m 19.291208,70.009583 2.834339,-4.907218"
         style="fill:none;stroke:#030303;stroke-width:1.0"
         id="path5634" />
      <path
         d="m 56.484784,70.043684 -2.861026,-4.95962"
         style="fill:none;stroke:#030303;stroke-width:1.0"
         id="path5636" />
      <path
         d="M 62.293717,62.224096 60.144201,60.079444"
         style="fill:none;stroke:#030303;stroke-width:0.75"
         id="path5638" />
      <path
         d="m 70.111912,56.418856 -4.965577,-2.86977"
         style="fill:none;stroke:#030303;stroke-width:1.0"
         id="path5640" />
      <path
         d="M 71.224445,46.738522 68.290307,45.951403"
         style="fill:none;stroke:#030303;stroke-width:0.75"
         id="path5642" />
      <path
         d="m 75.037277,37.799107 -5.678427,0"
         style="fill:none;stroke:#030303;stroke-width:1.0"
         id="path5644" />
      <path
         d="M 71.216037,28.859791 68.280436,29.64821"
         style="fill:none;stroke:#030303;stroke-width:0.75"
         id="path5646" />
      <path
         d="m 70.076574,19.198959 -4.943643,2.855068"
         style="fill:none;stroke:#030303;stroke-width:1.0"
         id="path5648" />
      <path
         d="M 62.27288,13.382718 60.124704,15.53107"
         style="fill:none;stroke:#030303;stroke-width:0.75"
         id="path5650" />
      <path
         d="M 56.550707,5.4181265 53.598168,10.52765"
         style="fill:none;stroke:#030303;stroke-width:1.0"
         id="path5652" />
      <path
         d="M 46.785274,4.4507032 45.999312,7.386174"
         style="fill:none;stroke:#030303;stroke-width:0.75"
         id="path5654" />
      <path
         d="m 37.844676,0.500008 0,5.8162402"
         style="fill:none;stroke:#030303;stroke-width:1.0"
         id="path5656" />
      <path
         d="m 69.475831,37.723605 c 0,17.397619 -14.103337,31.501159 -31.500648,31.501159 -17.397312,0 -31.500649,-14.10354 -31.500649,-31.501159 0,-17.397619 14.103337,-31.5012591 31.500649,-31.5012591 17.397311,0 31.500648,14.1036401 31.500648,31.5012591 z"
         style="fill:none"
         id="path5658" />
    </g>
    <g
       id="potgrading-9">
      <path
         d="M 22.469177,65.29487 C 12.864593,59.897939 6.3758317,49.616792 6.3758317,37.815007 c 0,-17.395119 14.1022403,-31.4975588 31.4994303,-31.4975588 17.392315,0 31.496992,14.1012398 31.496992,31.4975588 0,11.809085 -6.498509,22.101133 -16.116497,27.493263"
         style="fill:none;stroke:#030303;stroke-width:0.41032487"
         id="path6132-2" />
      <path
         d="m 28.906759,4.4567034 0.78974,2.9366707"
         style="fill:none;stroke:#030303;stroke-width:0.75"
         id="path6134-3" />
      <path
         d="M 19.149856,5.4303268 22.099957,10.54465"
         style="fill:none;stroke:#030303;stroke-width:1.0"
         id="path6136-6" />
      <path
         d="m 13.42878,13.404619 2.150735,2.149652"
         style="fill:none;stroke:#030303;stroke-width:0.75"
         id="path6138-8" />
      <path
         d="m 5.5191934,19.159858 5.0557506,2.91857"
         style="fill:none;stroke:#030303;stroke-width:1.0"
         id="path6140-1" />
      <path
         d="m 4.4968328,28.890192 2.9366973,0.786019"
         style="fill:none;stroke:#030303;stroke-width:0.75"
         id="path6142-2" />
      <path
         d="m 0.49999997,37.829608 5.86364623,0"
         style="fill:none;stroke:#030303;stroke-width:1.0"
         id="path6144-1" />
      <path
         d="M 4.5053627,46.769023 7.44206,45.980604"
         style="fill:none;stroke:#030303;stroke-width:0.75"
         id="path6146-6" />
      <path
         d="M 5.5106636,56.509058 10.590785,53.578387"
         style="fill:none;stroke:#030303;stroke-width:1.0"
         id="path6148-8" />
      <path
         d="m 13.451932,62.247196 2.145861,-2.149452"
         style="fill:none;stroke:#030303;stroke-width:0.75"
         id="path6150-3" />
      <path
         d="m 19.291208,70.009583 2.834339,-4.907218"
         style="fill:none;stroke:#030303;stroke-width:1.0"
         id="path6152-8" />
      <path
         d="m 56.484784,70.043684 -2.861026,-4.95962"
         style="fill:none;stroke:#030303;stroke-width:1.0"
         id="path6154-1" />
      <path
         d="M 62.293717,62.224096 60.144201,60.079444"
         style="fill:none;stroke:#030303;stroke-width:0.75"
         id="path6156" />
      <path
         d="m 70.111912,56.418856 -4.965577,-2.86977"
         style="fill:none;stroke:#030303;stroke-width:1.0"
         id="path6158-6" />
      <path
         d="M 71.224445,46.738522 68.290307,45.951403"
         style="fill:none;stroke:#030303;stroke-width:0.75"
         id="path6160-4" />
      <path
         d="m 75.037277,37.799107 -5.678427,0"
         style="fill:none;stroke:#030303;stroke-width:1.0"
         id="path6162-4" />
      <path
         d="M 71.216037,28.859791 68.280436,29.64821"
         style="fill:none;stroke:#030303;stroke-width:0.75"
         id="path6164-9" />
      <path
         d="m 70.076574,19.198959 -4.943643,2.855068"
         style="fill:none;stroke:#030303;stroke-width:1.0"
         id="path6166-8" />
      <path
         d="M 62.27288,13.382718 60.124704,15.53107"
         style="fill:none;stroke:#030303;stroke-width:0.75"
         id="path6168-3" />
      <path
         d="M 56.550707,5.4181265 53.598168,10.52765"
         style="fill:none;stroke:#030303;stroke-width:1.0"
         id="path6170-1" />
      <path
         d="M 46.785274,4.4507032 45.999312,7.386174"
         style="fill:none;stroke:#030303;stroke-width:0.75"
         id="path6172-6" />
      <path
         d="m 37.844676,0.500008 0,5.8162402"
         style="fill:none;stroke:#030303;stroke-width:1.0"
         id="path6174-5" />
      <path
         d="m 69.475831,37.723605 c 0,17.397619 -14.103337,31.501159 -31.500648,31.501159 -17.397312,0 -31.500649,-14.10354 -31.500649,-31.501159 0,-17.397619 14.103337,-31.5012591 31.500649,-31.5012591 17.397311,0 31.500648,14.1036401 31.500648,31.5012591 z"
         style="fill:none"
         id="path6176-7" />
    </g>
    <g
       id="potgrading-8">
      <path
         id="path6000-0"
         style="fill:none;stroke:#030303;stroke-width:0.41032487"
         d="M 22.469177,65.29487 C 12.864593,59.897939 6.3758317,49.616792 6.3758317,37.815007 c 0,-17.395119 14.1022403,-31.4975588 31.4994303,-31.4975588 17.392315,0 31.496992,14.1012398 31.496992,31.4975588 0,11.809085 -6.498509,22.101133 -16.116497,27.493263" />
      <path
         id="path6002-2"
         style="fill:none;stroke:#030303;stroke-width:0.75"
         d="m 28.906759,4.4567034 0.78974,2.9366707" />
      <path
         id="path6004-3"
         style="fill:none;stroke:#030303;stroke-width:1.0"
         d="M 19.149856,5.4303268 22.099957,10.54465" />
      <path
         id="path6006-0"
         style="fill:none;stroke:#030303;stroke-width:0.75"
         d="m 13.42878,13.404619 2.150735,2.149652" />
      <path
         id="path6008-2"
         style="fill:none;stroke:#030303;stroke-width:1.0"
         d="m 5.5191934,19.159858 5.0557506,2.91857" />
      <path
         id="path6010"
         style="fill:none;stroke:#030303;stroke-width:0.75"
         d="m 4.4968328,28.890192 2.9366973,0.786019" />
      <path
         id="path6012-6"
         style="fill:none;stroke:#030303;stroke-width:1.0"
         d="m 0.49999997,37.829608 5.86364623,0" />
      <path
         id="path6014-1"
         style="fill:none;stroke:#030303;stroke-width:0.75"
         d="M 4.5053627,46.769023 7.44206,45.980604" />
      <path
         id="path6016-4"
         style="fill:none;stroke:#030303;stroke-width:1.0"
         d="M 5.5106636,56.509058 10.590785,53.578387" />
      <path
         id="path6018-4"
         style="fill:none;stroke:#030303;stroke-width:0.75"
         d="m 13.451932,62.247196 2.145861,-2.149452" />
      <path
         id="path6020-7"
         style="fill:none;stroke:#030303;stroke-width:1.0"
         d="m 19.291208,70.009583 2.834339,-4.907218" />
      <path
         id="path6022-0"
         style="fill:none;stroke:#030303;stroke-width:1.0"
         d="m 56.484784,70.043684 -2.861026,-4.95962" />
      <path
         id="path6024-9"
         style="fill:none;stroke:#030303;stroke-width:0.75"
         d="M 62.293717,62.224096 60.144201,60.079444" />
      <path
         id="path6026-4"
         style="fill:none;stroke:#030303;stroke-width:1.0"
         d="m 70.111912,56.418856 -4.965577,-2.86977" />
      <path
         id="path6028-9"
         style="fill:none;stroke:#030303;stroke-width:0.75"
         d="M 71.224445,46.738522 68.290307,45.951403" />
      <path
         id="path6030-8"
         style="fill:none;stroke:#030303;stroke-width:1.0"
         d="m 75.037277,37.799107 -5.678427,0" />
      <path
         id="path6032-2"
         style="fill:none;stroke:#030303;stroke-width:0.75"
         d="M 71.216037,28.859791 68.280436,29.64821" />
      <path
         id="path6034-6"
         style="fill:none;stroke:#030303;stroke-width:1.0"
         d="m 70.076574,19.198959 -4.943643,2.855068" />
      <path
         id="path6036-7"
         style="fill:none;stroke:#030303;stroke-width:0.75"
         d="M 62.27288,13.382718 60.124704,15.53107" />
      <path
         id="path6038-4"
         style="fill:none;stroke:#030303;stroke-width:1.0"
         d="M 56.550707,5.4181265 53.598168,10.52765" />
      <path
         id="path6040-1"
         style="fill:none;stroke:#030303;stroke-width:0.75"
         d="M 46.785274,4.4507032 45.999312,7.386174" />
      <path
         id="path6042-0"
         style="fill:none;stroke:#030303;stroke-width:1.0"
         d="m 37.844676,0.500008 0,5.8162402" />
      <path
         id="path6044-6"
         style="fill:none"
         d="m 69.475831,37.723605 c 0,17.397619 -14.103337,31.501159 -31.500648,31.501159 -17.397312,0 -31.500649,-14.10354 -31.500649,-31.501159 0,-17.397619 14.103337,-31.5012591 31.500649,-31.5012591 17.397311,0 31.500648,14.1036401 31.500648,31.5012591 z" />
    </g>
  </defs>
  <g
     inkscape:groupmode="layer"
     id="layer5"
     inkscape:label="Layer"
     style="display:inline" />
  <g
     inkscape:groupmode="layer"
     id="layer8"
     inkscape:label="Layer#1"
     style="display:inline">
    <g
       style="fill:none;stroke:#000000;stroke-width:0.1;display:inline"
       id="g5660"
       transform="translate(51.956699,85.321221)">
      <path
         d="m 0,0 101.3,0 0,128.5 -101.3,0 z"
         id="rect5662"
         inkscape:connector-curvature="0" />
      <path
         d="M 9.1,3 C 9.1,3.8836556 8.3836556,4.6 7.5,4.6 6.6163444,4.6 5.9,3.8836556 5.9,3 5.9,2.1163444 6.6163444,1.4 7.5,1.4 8.3836556,1.4 9.1,2.1163444 9.1,3 z"
         id="circle5664"
         inkscape:connector-curvature="0" />
      <path
         d="m 9.1,125.5 c 0,0.88366 -0.7163444,1.6 -1.6,1.6 -0.8836556,0 -1.6,-0.71634 -1.6,-1.6 0,-0.88366 0.7163444,-1.6 1.6,-1.6 0.8836556,0 1.6,0.71634 1.6,1.6 z"
         id="circle5666"
         inkscape:connector-curvature="0" />
      <path
         d="m 95.460001,3 c 0,0.8836556 -0.716345,1.6 -1.6,1.6 -0.883656,0 -1.6,-0.7163444 -1.6,-1.6 0,-0.8836556 0.716344,-1.6 1.6,-1.6 0.883655,0 1.6,0.7163444 1.6,1.6 z"
         id="circle5668"
         inkscape:connector-curvature="0" />
      <path
         d="m 95.460001,125.5 c 0,0.88366 -0.716345,1.6 -1.6,1.6 -0.883656,0 -1.6,-0.71634 -1.6,-1.6 0,-0.88366 0.716344,-1.6 1.6,-1.6 0.883655,0 1.6,0.71634 1.6,1.6 z"
         id="circle5670"
         inkscape:connector-curvature="0" />
      <path
         d="m 12.55,15.05 c -2.6220187,0 -4.7546972,2.123364 -4.7546972,4.745368 0,2.143796 1.4261951,3.960351 3.3776012,4.54998 l 0,2.027646 2.642536,0 0,-1.999734 c 2.003484,-0.55658 3.479956,-2.397067 3.479956,-4.577892 C 17.295396,17.173364 15.172027,15.05 12.55,15.05 z"
         style="fill:none;stroke:#000000;stroke-width:0.09990668"
         inkscape:connector-curvature="0"
         id="path5672"
         sodipodi:nodetypes="ssccccss" />
      <path
         d="m 37.95,15.05 c -2.622019,0 -4.754697,2.123364 -4.754697,4.745368 0,2.143796 1.426195,3.960351 3.377601,4.54998 l 0,2.027646 2.642536,0 0,-1.999734 c 2.003484,-0.55658 3.479956,-2.397067 3.479956,-4.577892 C 42.695396,17.173364 40.572027,15.05 37.95,15.05 z"
         style="fill:none;stroke:#000000;stroke-width:0.09990668"
         inkscape:connector-curvature="0"
         id="path5720"
         sodipodi:nodetypes="ssccccss" />
      <path
         d="m 63.35,15.05 c -2.622019,0 -4.754697,2.123364 -4.754697,4.745368 0,2.143796 1.426195,3.960351 3.377601,4.54998 l 0,2.027646 2.642536,0 0,-1.999734 c 2.003484,-0.55658 3.479956,-2.397067 3.479956,-4.577892 C 68.095396,17.173364 65.972027,15.05 63.35,15.05 z"
         style="fill:none;stroke:#000000;stroke-width:0.09990668"
         inkscape:connector-curvature="0"
         id="path5768"
         sodipodi:nodetypes="ssccccss" />
      <path
         d="m 88.75,15.05 c -2.622019,0 -4.754697,2.123364 -4.754697,4.745368 0,2.143796 1.426195,3.960351 3.377601,4.54998 l 0,2.027646 2.642536,0 0,-1.999734 c 2.003484,-0.55658 3.479956,-2.397067 3.479956,-4.577892 C 93.495396,17.173364 91.372027,15.05 88.75,15.05 z"
         style="fill:none;stroke:#000000;stroke-width:0.09990668"
         inkscape:connector-curvature="0"
         id="path5816"
         sodipodi:nodetypes="ssccccss" />
      <path
         d="m 12.55,40.45 c -2.6220187,0 -4.7546972,2.123364 -4.7546972,4.745368 0,2.143796 1.4261951,3.960351 3.3776012,4.54998 l 0,2.027647 2.642536,0 0,-1.999735 c 2.003484,-0.55658 3.479956,-2.397067 3.479956,-4.577892 C 17.295396,42.573364 15.172027,40.45 12.55,40.45 z"
         style="fill:none;stroke:#000000;stroke-width:0.09990668"
         inkscape:connector-curvature="0"
         id="path5864"
         sodipodi:nodetypes="ssccccss" />
      <path
         d="m 37.95,40.45 c -2.622019,0 -4.754697,2.123364 -4.754697,4.745368 0,2.143796 1.426195,3.960351 3.377601,4.54998 l 0,2.027647 2.642536,0 0,-1.999735 c 2.003484,-0.55658 3.479956,-2.397067 3.479956,-4.577892 C 42.695396,42.573364 40.572027,40.45 37.95,40.45 z"
         style="fill:none;stroke:#000000;stroke-width:0.09990668"
         inkscape:connector-curvature="0"
         id="path5912"
         sodipodi:nodetypes="ssccccss" />
      <path
         d="m 63.35,40.45 c -2.622019,0 -4.754697,2.123364 -4.754697,4.745368 0,2.143796 1.426195,3.960351 3.377601,4.54998 l 0,2.027647 2.642536,0 0,-1.999735 c 2.003484,-0.55658 3.479956,-2.397067 3.479956,-4.577892 C 68.095396,42.573364 65.972027,40.45 63.35,40.45 z"
         style="fill:none;stroke:#000000;stroke-width:0.09990668"
         inkscape:connector-curvature="0"
         id="path5960"
         sodipodi:nodetypes="ssccccss" />
      <path
         d="m 88.75,40.45 c -2.622019,0 -4.754697,2.123364 -4.754697,4.745368 0,2.143796 1.426195,3.960351 3.377601,4.54998 l 0,2.027647 2.642536,0 0,-1.999735 c 2.003484,-0.55658 3.479956,-2.397067 3.479956,-4.577892 C 93.495396,42.573364 91.372027,40.45 88.75,40.45 z"
         style="fill:none;stroke:#000000;stroke-width:0.09990668"
         inkscape:connector-curvature="0"
         id="path6008"
         sodipodi:nodetypes="ssccccss" />
      <path
         d="m 54.150002,70.599998 c 0,1.932997 -1.567004,3.5 -3.5,3.5 -1.932997,0 -3.5,-1.567003 -3.5,-3.5 0,-1.932996 1.567003,-3.5 3.5,-3.5 1.932996,0 3.5,1.567004 3.5,3.5 z"
         id="circle6056"
         inkscape:connector-curvature="0" />
      <path
         d="m 44.650002,88.430003 12,0 0,10.999997 -12,0 z"
         id="rect6058"
         inkscape:connector-curvature="0" />
      <path
         d="m 13.26,94.730003 c 0,1.794926 -1.455074,3.25 -3.25,3.25 -1.7949252,0 -3.2499998,-1.455074 -3.2499998,-3.25 0,-1.794925 1.4550746,-3.25 3.2499998,-3.25 1.794926,0 3.25,1.455075 3.25,3.25 z"
         id="circle6060"
         inkscape:connector-curvature="0" />
      <path
         d="m 28.5,94.730003 c 0,1.794926 -1.455075,3.25 -3.25,3.25 -1.794925,0 -3.25,-1.455074 -3.25,-3.25 0,-1.794925 1.455075,-3.25 3.25,-3.25 1.794925,0 3.25,1.455075 3.25,3.25 z"
         id="circle6062"
         inkscape:connector-curvature="0" />
      <path
         d="m 41.200001,94.730003 c 0,1.794926 -1.455075,3.25 -3.25,3.25 -1.794926,0 -3.25,-1.455074 -3.25,-3.25 0,-1.794925 1.455074,-3.25 3.25,-3.25 1.794925,0 3.25,1.455075 3.25,3.25 z"
         id="circle6064"
         inkscape:connector-curvature="0" />
      <path
         d="m 66.599998,94.730003 c 0,1.794926 -1.455074,3.25 -3.25,3.25 -1.794925,0 -3.25,-1.455074 -3.25,-3.25 0,-1.794925 1.455075,-3.25 3.25,-3.25 1.794926,0 3.25,1.455075 3.25,3.25 z"
         id="circle6066"
         inkscape:connector-curvature="0" />
      <path
         d="m 79.300003,94.730003 c 0,1.794926 -1.455075,3.25 -3.25,3.25 -1.794925,0 -3.25,-1.455074 -3.25,-3.25 0,-1.794925 1.455075,-3.25 3.25,-3.25 1.794925,0 3.25,1.455075 3.25,3.25 z"
         id="circle6068"
         inkscape:connector-curvature="0" />
      <path
         d="m 94.540001,94.730003 c 0,1.794926 -1.455075,3.25 -3.25,3.25 -1.794926,0 -3.25,-1.455074 -3.25,-3.25 0,-1.794925 1.455074,-3.25 3.25,-3.25 1.794925,0 3.25,1.455075 3.25,3.25 z"
         id="circle6070"
         inkscape:connector-curvature="0" />
      <path
         d="m 13.26,107.43 c 0,1.79493 -1.455074,3.25 -3.25,3.25 -1.7949252,0 -3.2499998,-1.45507 -3.2499998,-3.25 0,-1.79493 1.4550746,-3.25 3.2499998,-3.25 1.794926,0 3.25,1.45507 3.25,3.25 z"
         id="circle6072"
         inkscape:connector-curvature="0" />
      <path
         d="m 41.200001,107.43 c 0,1.79493 -1.455075,3.25 -3.25,3.25 -1.794926,0 -3.25,-1.45507 -3.25,-3.25 0,-1.79493 1.455074,-3.25 3.25,-3.25 1.794925,0 3.25,1.45507 3.25,3.25 z"
         id="circle6074"
         inkscape:connector-curvature="0" />
      <path
         d="m 53.900002,107.43 c 0,1.79493 -1.455075,3.25 -3.25,3.25 -1.794926,0 -3.25,-1.45507 -3.25,-3.25 0,-1.79493 1.455074,-3.25 3.25,-3.25 1.794925,0 3.25,1.45507 3.25,3.25 z"
         id="circle6076"
         inkscape:connector-curvature="0" />
      <path
         d="m 66.599998,107.43 c 0,1.79493 -1.455074,3.25 -3.25,3.25 -1.794925,0 -3.25,-1.45507 -3.25,-3.25 0,-1.79493 1.455075,-3.25 3.25,-3.25 1.794926,0 3.25,1.45507 3.25,3.25 z"
         id="circle6078"
         inkscape:connector-curvature="0" />
      <path
         d="m 94.540001,107.43 c 0,1.79493 -1.455075,3.25 -3.25,3.25 -1.794926,0 -3.25,-1.45507 -3.25,-3.25 0,-1.79493 1.455074,-3.25 3.25,-3.25 1.794925,0 3.25,1.45507 3.25,3.25 z"
         id="circle6080"
         inkscape:connector-curvature="0" />
    </g>
  </g>
  <g
     inkscape:groupmode="layer"
     id="layer9"
     inkscape:label="Layer#2"
     style="display:inline" />
</svg>
