<?xml version="1.0" encoding="UTF-8" standalone="no"?>
<!-- Created with Inkscape (http://www.inkscape.org/) -->

<svg
   xmlns:dc="http://purl.org/dc/elements/1.1/"
   xmlns:cc="http://creativecommons.org/ns#"
   xmlns:rdf="http://www.w3.org/1999/02/22-rdf-syntax-ns#"
   xmlns:svg="http://www.w3.org/2000/svg"
   xmlns="http://www.w3.org/2000/svg"
   xmlns:sodipodi="http://sodipodi.sourceforge.net/DTD/sodipodi-0.dtd"
   xmlns:inkscape="http://www.inkscape.org/namespaces/inkscape"
   width="2979.9211"
   height="2104.7244"
   id="svg2"
   version="1.1"
   inkscape:version="0.48.4 r9939"
   sodipodi:docname="OwlSolo.svg"
   enable-background="new">
  <defs
     id="defs4">
    <filter
       inkscape:collect="always"
       id="filter5864">
      <feBlend
         inkscape:collect="always"
         mode="screen"
         in2="BackgroundImage"
         id="feBlend5866" />
    </filter>
  </defs>
  <sodipodi:namedview
     id="base"
     pagecolor="#ffffff"
     bordercolor="#666666"
     borderopacity="1.0"
     inkscape:pageopacity="0.0"
     inkscape:pageshadow="2"
     inkscape:zoom="1.2811378"
     inkscape:cx="560.04725"
     inkscape:cy="440.02828"
     inkscape:document-units="mm"
     inkscape:current-layer="layer3"
     showgrid="false"
     inkscape:window-width="1280"
     inkscape:window-height="974"
     inkscape:window-x="0"
     inkscape:window-y="0"
     inkscape:window-maximized="1" />
  <metadata
     id="metadata7">
    <rdf:RDF>
      <cc:Work
         rdf:about="">
        <dc:format>image/svg+xml</dc:format>
        <dc:type
           rdf:resource="http://purl.org/dc/dcmitype/StillImage" />
        <dc:title></dc:title>
      </cc:Work>
    </rdf:RDF>
  </metadata>
  <g
     inkscape:label="Cut2"
     inkscape:groupmode="layer"
     id="layer1"
     transform="translate(0,1052.3626)"
     style="display:inline">
    <g
       id="g5418"
       transform="translate(-2,60)">
      <path
         inkscape:connector-curvature="0"
         d="m 310.68563,783.90048 -97.38669,0"
         style="fill:none;stroke:#ff0000;stroke-width:0.12410712;stroke-linecap:butt;stroke-linejoin:miter;stroke-miterlimit:10;stroke-opacity:1;stroke-dasharray:none"
         id="path11749" />
      <path
         sodipodi:nodetypes="cc"
         inkscape:connector-curvature="0"
         d="m 206.56643,327.7026 0,449.3435"
         style="fill:none;stroke:#ff0000;stroke-width:0.12413344;stroke-linecap:butt;stroke-linejoin:miter;stroke-miterlimit:10;stroke-opacity:1;stroke-dasharray:none"
         id="path11779" />
      <path
         sodipodi:nodetypes="cc"
         inkscape:connector-curvature="0"
         id="path3982"
         d="m 213.5256,783.89785 c -3.84207,0 -6.95668,-3.11463 -6.95668,-6.95663"
         style="fill:none;stroke:#ff0000;stroke-width:0.1299479;stroke-miterlimit:4;stroke-opacity:1" />
      <path
         style="fill:none;stroke:#ff0000;stroke-width:0.1299479;stroke-miterlimit:4;stroke-opacity:1"
         d="m 213.5256,320.76897 c -3.84207,0 -6.95668,3.11463 -6.95668,6.95663"
         id="path4815"
         inkscape:connector-curvature="0"
         sodipodi:nodetypes="cc" />
      <path
         id="path4817"
         style="fill:none;stroke:#ff0000;stroke-width:0.12255944;stroke-linecap:butt;stroke-linejoin:miter;stroke-miterlimit:10;stroke-opacity:1;stroke-dasharray:none"
         d="m 310.60671,320.77525 -97.38681,0"
         inkscape:connector-curvature="0" />
      <path
         id="path4109"
         style="fill:none;stroke:#ff0000;stroke-width:0.12413344;stroke-linecap:butt;stroke-linejoin:miter;stroke-miterlimit:10;stroke-opacity:1;stroke-dasharray:none"
         d="m 317.52807,327.7026 0,449.3435"
         inkscape:connector-curvature="0"
         sodipodi:nodetypes="cc" />
      <path
         style="fill:none;stroke:#ff0000;stroke-width:0.1299479;stroke-miterlimit:4;stroke-opacity:1"
         d="m 310.5689,783.89785 c 3.84207,0 6.95668,-3.11463 6.95668,-6.95663"
         id="path4111"
         inkscape:connector-curvature="0"
         sodipodi:nodetypes="cc" />
      <path
         sodipodi:nodetypes="cc"
         inkscape:connector-curvature="0"
         id="path4113"
         d="m 310.5689,320.76897 c 3.84207,0 6.95668,3.11463 6.95668,6.95663"
         style="fill:none;stroke:#ff0000;stroke-width:0.1299479;stroke-miterlimit:4;stroke-opacity:1" />
    </g>
    <g
       transform="matrix(-1,0,0,1,1122.0945,60)"
       id="g4134">
      <path
         id="path4136"
         style="fill:none;stroke:#ff0000;stroke-width:0.12410712;stroke-linecap:butt;stroke-linejoin:miter;stroke-miterlimit:10;stroke-opacity:1;stroke-dasharray:none"
         d="m 310.68563,783.90048 -97.38669,0"
         inkscape:connector-curvature="0" />
      <path
         id="path4138"
         style="fill:none;stroke:#ff0000;stroke-width:0.12413344;stroke-linecap:butt;stroke-linejoin:miter;stroke-miterlimit:10;stroke-opacity:1;stroke-dasharray:none"
         d="m 206.56643,327.7026 0,449.3435"
         inkscape:connector-curvature="0"
         sodipodi:nodetypes="cc" />
      <path
         style="fill:none;stroke:#ff0000;stroke-width:0.1299479;stroke-miterlimit:4;stroke-opacity:1"
         d="m 213.5256,783.89785 c -3.84207,0 -6.95668,-3.11463 -6.95668,-6.95663"
         id="path4140"
         inkscape:connector-curvature="0"
         sodipodi:nodetypes="cc" />
      <path
         sodipodi:nodetypes="cc"
         inkscape:connector-curvature="0"
         id="path4142"
         d="m 213.5256,320.76897 c -3.84207,0 -6.95668,3.11463 -6.95668,6.95663"
         style="fill:none;stroke:#ff0000;stroke-width:0.1299479;stroke-miterlimit:4;stroke-opacity:1" />
      <path
         inkscape:connector-curvature="0"
         d="m 310.60671,320.77525 -97.38681,0"
         style="fill:none;stroke:#ff0000;stroke-width:0.12255944;stroke-linecap:butt;stroke-linejoin:miter;stroke-miterlimit:10;stroke-opacity:1;stroke-dasharray:none"
         id="path4144" />
      <path
         sodipodi:nodetypes="cc"
         inkscape:connector-curvature="0"
         d="m 317.52807,327.7026 0,449.3435"
         style="fill:none;stroke:#ff0000;stroke-width:0.12413344;stroke-linecap:butt;stroke-linejoin:miter;stroke-miterlimit:10;stroke-opacity:1;stroke-dasharray:none"
         id="path4146" />
      <path
         sodipodi:nodetypes="cc"
         inkscape:connector-curvature="0"
         id="path4148"
         d="m 310.5689,783.89785 c 3.84207,0 6.95668,-3.11463 6.95668,-6.95663"
         style="fill:none;stroke:#ff0000;stroke-width:0.1299479;stroke-miterlimit:4;stroke-opacity:1" />
      <path
         style="fill:none;stroke:#ff0000;stroke-width:0.1299479;stroke-miterlimit:4;stroke-opacity:1"
         d="m 310.5689,320.76897 c 3.84207,0 6.95668,3.11463 6.95668,6.95663"
         id="path4150"
         inkscape:connector-curvature="0"
         sodipodi:nodetypes="cc" />
    </g>
    <g
       style="fill:none;stroke:#ff0000;stroke-width:0.10000000000000001;display:inline"
       id="g5660"
       transform="matrix(3.543307,0,0,3.543307,379.34149,385.95114)">
      <path
         d="m 0,0 101.3,0 0,128.5 -101.3,0 z"
         id="rect5662"
         inkscape:connector-curvature="0"
         style="stroke:#ff0000" />
      <path
         d="M 9.1,3 C 9.1,3.8836556 8.3836556,4.6 7.5,4.6 6.6163444,4.6 5.9,3.8836556 5.9,3 5.9,2.1163444 6.6163444,1.4 7.5,1.4 8.3836556,1.4 9.1,2.1163444 9.1,3 z"
         id="circle5664"
         inkscape:connector-curvature="0"
         style="stroke:#ff0000" />
      <path
         d="m 9.1,125.5 c 0,0.88366 -0.7163444,1.6 -1.6,1.6 -0.8836556,0 -1.6,-0.71634 -1.6,-1.6 0,-0.88366 0.7163444,-1.6 1.6,-1.6 0.8836556,0 1.6,0.71634 1.6,1.6 z"
         id="circle5666"
         inkscape:connector-curvature="0"
         style="stroke:#ff0000" />
      <path
         d="m 95.460001,3 c 0,0.8836556 -0.716345,1.6 -1.6,1.6 -0.883656,0 -1.6,-0.7163444 -1.6,-1.6 0,-0.8836556 0.716344,-1.6 1.6,-1.6 0.883655,0 1.6,0.7163444 1.6,1.6 z"
         id="circle5668"
         inkscape:connector-curvature="0"
         style="stroke:#ff0000" />
      <path
         d="m 95.460001,125.5 c 0,0.88366 -0.716345,1.6 -1.6,1.6 -0.883656,0 -1.6,-0.71634 -1.6,-1.6 0,-0.88366 0.716344,-1.6 1.6,-1.6 0.883655,0 1.6,0.71634 1.6,1.6 z"
         id="circle5670"
         inkscape:connector-curvature="0"
         style="stroke:#ff0000" />
    </g>
  </g>
  <g
     inkscape:groupmode="layer"
     id="layer3"
     inkscape:label="Cut1"
     style="display:inline">
    <g
       style="fill:none;stroke:#ff0000;stroke-width:0.0992126;stroke-miterlimit:4;stroke-opacity:1;stroke-dasharray:none;display:inline"
       id="g9292"
       transform="matrix(1.25,0,0,-1.25,-410.77046,2284.3882)">
      <path
         inkscape:connector-curvature="0"
         id="path4003"
         style="fill:none;stroke:#ff0000;stroke-width:0.0992126;stroke-linecap:butt;stroke-linejoin:miter;stroke-miterlimit:4;stroke-opacity:1;stroke-dasharray:none;display:inline"
         d="m 526.90474,325.61485 c 0,-3.85704 3.12932,-6.98379 6.98305,-6.98379 3.85372,0 6.98306,3.12675 6.98306,6.98379 0,3.85555 -3.12934,6.98232 -6.98306,6.98232 -3.85373,0 -6.98305,-3.12677 -6.98305,-6.98232 z" />
      <path
         d="m 526.90474,665.74399 c 0,-3.85704 3.12932,-6.98379 6.98305,-6.98379 3.85372,0 6.98306,3.12675 6.98306,6.98379 0,3.85555 -3.12934,6.98232 -6.98306,6.98232 -3.85373,0 -6.98305,-3.12677 -6.98305,-6.98232 z"
         style="fill:none;stroke:#ff0000;stroke-width:0.0992126;stroke-linecap:butt;stroke-linejoin:miter;stroke-miterlimit:4;stroke-opacity:1;stroke-dasharray:none;display:inline"
         id="path4007"
         inkscape:connector-curvature="0" />
    </g>
    <path
       style="fill:none;stroke:#ff0000;stroke-width:0.12401575;stroke-linecap:butt;stroke-linejoin:miter;stroke-miterlimit:4;stroke-opacity:1;stroke-dasharray:none;display:inline"
       d="m 837.60108,1856.6304 42.3447,0 0,-31.7148 -42.3447,0 z"
       id="path9636"
       inkscape:connector-curvature="0" />
    <g
       transform="matrix(-1.25,0,0,-1.25,1530.865,2284.3882)"
       id="g4152"
       style="fill:none;stroke:#ff0000;stroke-width:0.0992126;stroke-miterlimit:4;stroke-opacity:1;stroke-dasharray:none;display:inline">
      <path
         d="m 526.90474,325.61485 c 0,-3.85704 3.12932,-6.98379 6.98305,-6.98379 3.85372,0 6.98306,3.12675 6.98306,6.98379 0,3.85555 -3.12934,6.98232 -6.98306,6.98232 -3.85373,0 -6.98305,-3.12677 -6.98305,-6.98232 z"
         style="fill:none;stroke:#ff0000;stroke-width:0.0992126;stroke-linecap:butt;stroke-linejoin:miter;stroke-miterlimit:4;stroke-opacity:1;stroke-dasharray:none;display:inline"
         id="path4154"
         inkscape:connector-curvature="0" />
      <path
         inkscape:connector-curvature="0"
         id="path4156"
         style="fill:none;stroke:#ff0000;stroke-width:0.0992126;stroke-linecap:butt;stroke-linejoin:miter;stroke-miterlimit:4;stroke-opacity:1;stroke-dasharray:none;display:inline"
         d="m 526.90474,665.74399 c 0,-3.85704 3.12932,-6.98379 6.98305,-6.98379 3.85372,0 6.98306,3.12675 6.98306,6.98379 0,3.85555 -3.12934,6.98232 -6.98306,6.98232 -3.85373,0 -6.98305,-3.12677 -6.98305,-6.98232 z" />
    </g>
  </g>
  <g
     inkscape:groupmode="layer"
     id="layer2"
     inkscape:label="Engrave"
     style="display:inline">
    <path
       style="fill:#000000;display:inline"
       d="m 407.17182,1789.3181 c 0.16327,-1.9174 0.29685,-6.2359 0.29685,-9.5968 l 0,-6.1106 -5.29473,0 -5.29473,0 0,-1.7649 0,-1.7649 5.29473,0 5.29473,0 0,-11.6925 0,-11.6926 -3.52982,0 -3.52983,0 0,8.1627 0,8.1627 -1.76491,0 -1.7649,0 0,-8.1627 0,-8.1627 -3.52983,0 -3.52982,0 0.003,16.877 c 0.004,18.2665 0.26144,23.7509 1.03139,21.9202 0.27132,-0.645 0.52317,-8.2358 0.6322,-19.0523 l 0.18129,-17.9799 1.72338,0 1.7234,0 0,8.1627 0,8.1626 3.52981,0 3.52983,0 0,-8.1626 0,-8.1627 1.76491,0 1.76492,0 0,9.9276 0,9.9276 -5.29474,0 -5.29473,0 0,3.5298 0,3.5298 5.2301,0 5.23011,0 0.26222,7.3906 c 0.31987,9.0153 0.88793,11.803 1.3351,6.5519 z m 105.45355,-0.4413 c 0.16328,-1.9173 0.29687,-12.2008 0.29687,-22.8521 l 0,-19.366 -3.41952,0.1288 -3.41952,0.1289 -1.84517,5.2948 -1.84517,5.2947 -0.0301,-5.4051 -0.0301,-5.405 -3.52983,0 -3.52982,0 0.003,17.98 c 0.002,9.889 0.13532,19.37 0.29688,21.0687 0.65558,6.8932 1.15621,0.055 1.34861,-18.4213 l 0.19648,-18.8624 1.71624,0 1.71623,0 0.11892,9.5791 0.11891,9.5791 3.26819,-9.5791 3.26819,-9.5791 1.88196,0 1.88195,0 0.18331,20.6273 c 0.10553,11.8744 0.36856,21.1891 0.61988,21.9511 0.38789,1.1761 0.46968,0.935 0.73344,-2.1624 z m 17.21758,-0.5299 c 0.15795,-1.8685 0.28719,-5.9486 0.28719,-9.0668 l 0,-5.6694 -3.52983,0 -3.52982,0 0.003,2.9783 c 0.005,4.1914 0.49939,8.9491 0.90497,8.6984 0.18789,-0.1161 0.48308,-2.3938 0.65598,-5.0615 l 0.31441,-4.8503 1.64138,0 1.64138,0 0.25119,7.7736 c 0.27204,8.4192 0.88859,10.7755 1.36007,5.1977 z m -39.71538,0.057 c 0.16061,-1.9 0.29202,-12.0617 0.29202,-22.5815 l 0,-19.1268 -8.82456,0 -8.82456,0 0.003,17.0976 c 0.004,18.4793 0.25955,23.9752 1.03192,22.1407 0.27247,-0.647 0.52296,-8.2886 0.63183,-19.2727 l 0.18036,-18.2006 6.98108,0 6.98106,0 0.17174,20.6273 c 0.10672,12.8179 0.34443,21.0331 0.62787,21.6991 0.38575,0.9062 0.50121,0.5384 0.74816,-2.3831 z m -38.38685,0 c 0.1606,-1.9 0.29202,-12.0617 0.29202,-22.5815 l 0,-19.1268 -8.82458,0 -8.82456,0 0.003,17.0976 c 0.004,18.4793 0.25954,23.9752 1.03192,22.1407 0.27247,-0.647 0.52296,-8.2886 0.63182,-19.2727 l 0.18038,-18.2006 6.98106,0 6.98107,0 0.17174,20.6273 c 0.10671,12.8179 0.34444,21.0331 0.62787,21.6991 0.38574,0.9062 0.5012,0.5384 0.74816,-2.3831 z m 236.90347,1.3115 c 0.17113,-0.728 0.44505,-4.2524 0.60882,-7.8319 l 0.29777,-6.5081 5.22609,0 5.22614,0 0,-3.5298 0,-3.5298 -5.29473,0 -5.29478,0 0,-1.7649 0,-1.765 5.29478,0 5.29473,0 0,-6.3977 0,-6.3979 -3.52982,0 -3.52982,0 0,2.6474 0,2.6474 -1.76486,0 -1.76501,0 0,-4.4123 0,-4.4122 7.01958,0 7.01963,0 0.17789,18.8624 c 0.1082,11.4814 0.35493,19.2818 0.63048,19.9341 0.76419,1.8092 1.03671,-4.2886 1.03671,-23.1996 l 0,-17.3619 -8.8246,0 -8.8245,0 0,6.1772 0,6.1772 3.52982,0 3.52977,0 0,-2.6474 0,-2.6473 1.76491,0 1.76491,0 0,4.6329 0,4.6328 -5.29473,0 -5.29468,0 0,3.5299 0,3.5298 5.29468,0 5.29473,0 0,1.7649 0,1.7649 -5.29473,0 -5.29468,0 0.0432,6.2875 c 0.0239,3.4581 0.17799,7.3796 0.34221,8.7143 0.26735,2.1727 0.33117,2.2882 0.60971,1.1031 z m -44.56404,0 c 0.17112,-0.728 0.44509,-4.2524 0.60883,-7.8319 l 0.2977,-6.5081 5.22615,0 5.22613,0 0,-3.5298 0,-3.5298 -5.29474,0 -5.29473,0 0,-1.7649 0,-1.765 5.29473,0 5.29474,0 0,-6.3977 0,-6.3979 -3.52982,0 -3.52982,0 0,2.6474 0,2.6474 -1.76491,0 -1.76492,0 0,-4.4123 0,-4.4122 7.01958,0 7.01959,0 0.17785,18.8624 c 0.10825,11.4814 0.35497,19.2818 0.6305,19.9341 0.76421,1.8092 1.0367,-4.2886 1.0367,-23.1996 l 0,-17.3619 -8.82456,0 -8.82457,0 0,6.1772 0,6.1772 3.52983,0 3.52982,0 0,-2.6474 0,-2.6473 1.76492,0 1.76491,0 0,4.6329 0,4.6328 -5.29474,0 -5.29474,0 0,3.5299 0,3.5298 5.29474,0 5.29474,0 0,1.7649 0,1.7649 -5.29474,0 -5.29474,0 0.0436,6.2875 c 0.024,3.4581 0.178,7.3796 0.34222,8.7143 0.26733,2.1727 0.33115,2.2882 0.60972,1.1031 z m -81.18601,0 c 0.17113,-0.728 0.44511,-4.2524 0.60885,-7.8319 l 0.29769,-6.5081 5.22615,0 5.22614,0 0,-3.5298 0,-3.5298 -5.29474,0 -5.29474,0 0,-1.7649 0,-1.765 5.29474,0 5.29474,0 0,-6.3977 0,-6.3979 -3.52983,0 -3.52982,0 0,2.6474 0,2.6474 -1.76492,0 -1.76491,0 0,-4.4123 0,-4.4122 7.01958,0 7.01959,0 0.17784,18.8624 c 0.10826,11.4814 0.35498,19.2818 0.6305,19.9341 0.76421,1.8092 1.03671,-4.2886 1.03671,-23.1996 l 0,-17.3619 -8.82457,0 -8.82456,0 0,6.1772 0,6.1772 3.52982,0 3.52983,0 0,-2.6474 0,-2.6473 1.76491,0 1.76491,0 0,4.6329 0,4.6328 -5.29474,0 -5.29474,0 0,3.5299 0,3.5298 5.29474,0 5.29474,0 0,1.7649 0,1.7649 -5.29474,0 -5.29474,0 0.0436,6.2875 c 0.024,3.4581 0.178,7.3796 0.34221,8.7143 0.26733,2.1727 0.33114,2.2882 0.60972,1.1031 z m 120.05024,-2.6352 c 0.16059,-1.9 0.29201,-11.7639 0.29201,-21.9196 l 0,-18.465 -8.82461,0 -8.82456,0 0,8.8246 c 0,4.8535 0.14892,8.8255 0.33092,8.8268 0.182,0 1.11881,0.4791 2.08179,1.0621 l 1.75087,1.0597 -2.08179,1.0114 -2.08179,1.0114 0.0436,6.8615 c 0.024,3.7738 0.18084,7.9534 0.34856,9.2882 0.30388,2.4185 0.30617,2.4215 0.67572,0.8905 0.20393,-0.845 0.49383,-4.816 0.6442,-8.8246 l 0.27341,-7.2883 2.50944,-1.3329 c 1.38018,-0.7331 2.64455,-1.4679 2.80969,-1.6331 0.16513,-0.1651 -1.01375,-0.9481 -2.61975,-1.7401 l -2.91999,-1.4399 0,-7.4062 0,-7.4061 7.02126,0 7.02129,0 0.17391,19.9655 c 0.10731,12.3171 0.34817,20.3761 0.62884,21.0372 0.38426,0.9052 0.50022,0.5353 0.74694,-2.3831 z m -44.56411,0 c 0.16062,-1.9 0.29202,-11.7639 0.29202,-21.9196 l 0,-18.465 -3.52982,0 -3.52983,0 0,13.4574 0,13.4575 -2.64737,0 -2.64737,0 0.003,3.1989 c 0.005,4.4667 0.50235,9.2689 0.91742,8.8469 0.19118,-0.1943 0.48762,-2.587 0.65879,-5.3171 l 0.31121,-4.9638 2.58457,0 2.58457,0 0,-13.4574 0,-13.4574 1.72653,0 1.72654,0 0.17391,19.9655 c 0.1073,12.3171 0.3482,20.3761 0.62883,21.0372 0.38427,0.9052 0.50023,0.5353 0.74691,-2.3831 z m -97.52795,2.1939 c 0.18189,-0.728 0.45344,-5.3443 0.60343,-10.2585 l 0.27269,-8.9349 1.70173,0 1.70172,0 0,2.6474 0,2.6473 3.52983,0 3.52983,0 0,-11.6925 0,-11.6926 -3.52983,0 -3.52983,0 0,2.6474 0,2.6474 -1.7649,0 -1.76491,0 0,-4.4123 0,-4.4122 7.0185,0 7.01851,0 0.18037,18.2006 c 0.10881,10.9789 0.35941,18.6258 0.63159,19.2722 0.75683,1.7975 1.03524,-4.2635 1.03524,-22.5377 l 0,-16.7001 -8.82457,0 -8.82456,0 0,6.1772 0,6.1772 3.52983,0 3.52982,0 0,-2.6474 0,-2.6473 1.76491,0 1.76492,0 0,9.9276 0,9.9276 -1.76492,0 -1.76491,0 0,-2.6474 0,-2.6473 -3.52982,0 -3.52983,0 0.0436,8.7143 c 0.0241,4.7927 0.178,9.8062 0.34221,11.1409 0.27108,2.2033 0.32904,2.3049 0.62931,1.1031 z m -73.22739,-2.1939 c 0.1606,-1.9 0.29202,-11.7639 0.29202,-21.9196 l 0,-18.465 -3.52982,0 -3.52983,0 0,13.4574 0,13.4575 -2.64737,0 -2.64737,0 0.003,3.1989 c 0.005,4.4667 0.50235,9.2689 0.9174,8.8469 0.1912,-0.1943 0.48763,-2.587 0.6588,-5.3171 l 0.31121,-4.9638 2.58457,0 2.58457,0 0,-13.4574 0,-13.4574 1.72653,0 1.72652,0 0.17394,19.9655 c 0.10729,12.3171 0.34819,20.3761 0.62882,21.0372 0.38427,0.9052 0.50022,0.5353 0.74692,-2.3831 z m -54.71536,1.7527 c 0.18929,-0.728 0.45767,-6.4364 0.59638,-12.6853 l 0.2522,-11.3617 1.70877,0 1.70878,0 0,5.2948 0,5.2947 3.52983,0 3.52982,0 0,-11.6925 0,-11.6926 -3.52982,0 -3.52983,0 0,2.6474 0,2.6474 -1.76492,0 -1.76491,0 0,-4.4123 0,-4.4122 7.02153,0 7.02152,0 0.17335,17.9799 c 0.10568,10.9613 0.35105,18.3984 0.62857,19.0517 0.75956,1.788 1.03925,-4.2183 1.03925,-22.3172 l 0,-16.4794 -8.82456,0 -8.82456,0 0,6.1772 0,6.1772 3.52982,0 3.52983,0 0,-2.6474 0,-2.6473 1.76491,0 1.7649,0 0,9.9276 0,9.9276 -1.7649,0 -1.76491,0 0,-5.2947 0,-5.2948 -3.52983,0 -3.52982,0 0.0436,11.141 c 0.024,6.1276 0.17799,12.2331 0.34221,13.5678 0.27349,2.2228 0.3275,2.3155 0.64276,1.1031 z m 105.92423,-1.5443 c 0.21007,-0.6067 0.47452,-9.5912 0.58763,-19.9656 l 0.20568,-18.8624 1.72169,0 1.72169,0 0,10.81 0,10.8101 3.52983,0 3.52982,0 0,-10.8101 0,-10.81 1.72714,0 1.72713,0 0.19119,18.2006 c 0.10611,10.1016 0.38354,18.7897 0.62346,19.5243 0.72295,2.2139 1.02025,-4.421 1.02317,-22.8335 l 0.003,-16.6564 -3.52984,0 -3.52982,0 0,10.8101 0,10.8101 -1.76492,0 -1.76492,0 0,-10.8101 0,-10.8101 -3.52982,0 -3.52983,0 0.0436,18.4213 c 0.0448,18.9227 0.28929,24.2657 1.01441,22.1717 z m -17.23458,-2.868 c 0.20744,-2.272 0.98517,-5.4952 2.18251,-9.0452 l 1.86024,-5.5153 0.27396,6.6185 c 0.15068,3.6401 0.29959,7.3033 0.33092,8.1405 0.0442,1.1822 0.175,1.4043 0.5853,0.994 0.37361,-0.3737 0.58194,-3.921 0.71133,-12.1118 0.10064,-6.3708 0.1057,-12.0797 0.0112,-12.6864 -0.11284,-0.725 -1.36502,2.4513 -3.65296,9.2658 -3.5825,10.6704 -3.75815,11.6308 -2.94547,16.1048 0.29393,1.6182 0.3474,1.4713 0.64289,-1.7649 z m 225.90913,-0.429 c 0.16064,-1.9 0.29206,-11.0689 0.29206,-20.3753 l 0,-16.9207 -8.8246,0 -8.82455,0 0,11.4635 0,11.4634 2.09439,1.0644 2.09439,1.0644 -2.09439,1.0176 -2.09439,1.0175 0.0432,4.4346 c 0.0239,2.4391 0.18504,5.5267 0.35791,6.8615 0.30667,2.3676 0.32193,2.3891 0.62517,0.8824 0.17098,-0.8493 0.45667,-3.7283 0.63486,-6.3978 l 0.32391,-4.8535 2.50947,-1.3328 c 1.3802,-0.7331 2.64455,-1.4679 2.80967,-1.6331 0.16511,-0.1651 -1.01375,-0.9482 -2.61976,-1.7402 l -2.91996,-1.4399 0,-10.0535 0,-10.0535 7.01888,0 7.01884,0 0.17953,18.4212 c 0.10865,11.1464 0.35791,18.8445 0.63123,19.4929 0.38048,0.9027 0.49773,0.5271 0.74371,-2.3831 z m -5.28991,-0.4983 c 0.15801,-1.8686 0.28719,-4.8702 0.28719,-6.6702 l 0,-3.2726 -3.52937,1.9052 c -3.50736,1.8934 -3.52938,1.9163 -3.52664,3.6701 0.005,3.0934 0.55125,7.7034 0.88854,7.495 0.17903,-0.1107 0.46512,-2.0615 0.63551,-4.3352 l 0.30994,-4.134 1.52291,-0.7262 c 0.83765,-0.3995 1.58623,-0.7263 1.66357,-0.7263 0.0774,0 0.27868,2.1339 0.44722,4.7422 0.16865,2.6081 0.46582,4.9012 0.66031,5.0957 0.19454,0.1945 0.48287,-1.1751 0.64082,-3.0437 z m -126.63249,0 c 0.15796,-1.8686 0.2872,-9.3241 0.2872,-16.5678 l 0,-13.1702 2.64736,0 2.64738,0 0,-3.5299 0,-3.5298 -8.82456,0 -8.82457,0 0,3.5298 0,3.5299 2.64736,0 2.64738,0 0.003,13.5677 c 0.004,14.9332 0.27611,19.8627 1.05552,19.0837 0.331,-0.3309 0.5346,-5.8877 0.63941,-17.4509 l 0.15383,-16.9655 -2.69084,0 -2.69084,0 0,-1.7649 0,-1.7648 7.05965,0 7.05966,0 0,1.7648 0,1.7649 -2.68735,0 -2.68734,0 0.15028,16.9656 c 0.10234,11.553 0.30501,17.1202 0.63524,17.4502 0.35242,0.3522 0.56345,-0.4439 0.77216,-2.9128 z m 82.35563,-11.6526 0,-3.5347 -3.5298,1.7747 c -3.52571,1.7727 -3.52982,1.7768 -3.52982,3.5347 l 0,1.76 3.52982,0 3.5298,0 0,-3.5347 z m -5.29471,1.4103 c 0,-0.3124 2.76178,-1.8466 3.3242,-1.8466 0.11307,0 0.20565,0.4964 0.20565,1.1031 0,0.9927 -0.17652,1.103 -1.76494,1.103 -0.9707,0 -1.76491,-0.1617 -1.76491,-0.3595 z m -187.52201,-9.5681 0,-11.6926 -3.52983,0 -3.52983,0 0,11.6926 0,11.6925 3.52983,0 3.52983,0 0,-11.6925 z m -5.29474,0 0,-9.9276 1.76491,0 1.76492,0 0,9.9276 0,9.9276 -1.76492,0 -1.76491,0 0,-9.9276 z m -33.09213,0 0,-11.6926 -3.52983,0 -3.52982,0 0,11.6926 0,11.6925 3.52982,0 3.52983,0 0,-11.6925 z m -5.29474,0 0,-9.9276 1.76491,0 1.76493,0 0,9.9276 0,9.9276 -1.76493,0 -1.76491,0 0,-9.9276 z m 281.06238,-2.868 0,-8.8246 -3.52982,0 -3.52977,0 0,7.0198 0,7.0197 3.28841,1.8049 c 1.80865,0.9926 3.39706,1.8048 3.52982,1.8048 0.13281,0 0.24136,-3.9711 0.24136,-8.8246 z m -5.29468,-1.3326 0,-5.727 1.76486,0 1.76496,0 0,6.6274 0,6.6273 -1.76496,-0.9003 -1.76486,-0.9005 0,-5.7269 z m -39.26937,-1.3099 0,-6.1821 -3.5298,0 -3.52982,0 0,4.4074 0,4.4074 3.52982,1.7747 3.5298,1.7748 0,-6.1822 z m -5.29471,-1.3375 0,-3.0796 1.76491,0 1.76493,0 0,3.9799 0,3.9801 -1.76493,-0.9004 -1.76491,-0.9004 0,-3.0796 z"
       id="path9634"
       inkscape:connector-curvature="0" />
  </g>
</svg>
