<?xml version="1.0"?>
<svg xmlns="http://www.w3.org/2000/svg" xmlns:dc="http://purl.org/dc/elements/1.1/" xmlns:cc="http://creativecommons.org/ns#" xmlns:rdf="http://www.w3.org/1999/02/22-rdf-syntax-ns#" xmlns:xlink="http://www.w3.org/1999/xlink" xmlns:svg="http://www.w3.org/2000/svg" xmlns:sodipodi="http://sodipodi.sourceforge.net/DTD/sodipodi-0.dtd" xmlns:inkscape="http://www.inkscape.org/namespaces/inkscape" xmlns:exslt="http://exslt.org/common" version="1.1" width="210mm" height="297mm" viewBox="0 0 210 297">
  <sodipodi:namedview id="base" inkscape:document-units="mm" units="mm"/>
  <defs>
    <g id="potgrading"/>
  </defs>
  <g style="fill:none;stroke-width:0.05;stroke:#ff0000"><rect x="0.0" y="0.0" width="20.00" height="128.50"/><svg:circle cx="7.5" cy="3" r="1.6"/><svg:circle cx="7.5" cy="125.5" r="1.6"/>

  
  <path inkscape:connector-curvature="0" d="m 5.358000000000001,19.8 c 0,2.002 1.6212268,3.62994 3.6230338,3.62994 1.6368275,0 3.0237835,-1.08879 3.4738775,-2.57831 l 2.868088,0 0,-2.01736 -2.846884,0 c -0.425034,-1.52937 -1.830243,-2.6564 -3.4953613,-2.6564 -2.0018076,-2.6e-4 -3.622754,1.62066 -3.622754,3.62213 z" style="fill:none;stroke:#ff0000"/>
  <path inkscape:connector-curvature="0" d="m 5.358000000000001,38.85 c 0,2.002 1.6212268,3.62994 3.6230338,3.62994 1.6368275,0 3.0237835,-1.08879 3.4738775,-2.57831 l 2.868088,0 0,-2.01736 -2.846884,0 c -0.425034,-1.52937 -1.830243,-2.6564 -3.4953613,-2.6564 -2.0018076,-2.6e-4 -3.622754,1.62066 -3.622754,3.62213 z" style="fill:none;stroke:#ff0000"/>
  <path inkscape:connector-curvature="0" d="m 5.358000000000001,57.9 c 0,2.002 1.6212268,3.62994 3.6230338,3.62994 1.6368275,0 3.0237835,-1.08879 3.4738775,-2.57831 l 2.868088,0 0,-2.01736 -2.846884,0 c -0.425034,-1.52937 -1.830243,-2.6564 -3.4953613,-2.6564 -2.0018076,-2.6e-4 -3.622754,1.62066 -3.622754,3.62213 z" style="fill:none;stroke:#ff0000"/>

  
  
  

  
  
  

  
  <circle cx="7.714" cy="77.585" r="1.5" style="fill:none;stroke:#ff0000"/>
  <circle cx="7.714" cy="90.285" r="1.5" style="fill:none;stroke:#ff0000"/>
  <circle cx="7.714" cy="102.985" r="1.5" style="fill:none;stroke:#ff0000"/>

  
  <circle cx="10.508" cy="83.3" r="3.00" style="fill:none;stroke:#ff0000"/>
  <circle cx="10.508" cy="96" r="3.00" style="fill:none;stroke:#ff0000"/>
  <circle cx="10.508" cy="108.7" r="3.00" style="fill:none;stroke:#ff0000"/>

</g>
</svg>
