G75*
G70*
%OFA0B0*%
%FSLAX24Y24*%
%IPPOS*%
%LPD*%
%AMOC8*
5,1,8,0,0,1.08239X$1,22.5*
%
%ADD10C,0.0000*%
%ADD11C,0.0560*%
%ADD12OC8,0.0560*%
%ADD13OC8,0.1422*%
%ADD14C,0.0760*%
%ADD15OC8,0.1107*%
%ADD16OC8,0.1186*%
%ADD17C,0.0560*%
%ADD18C,0.0555*%
%ADD19C,0.0740*%
%ADD20C,0.0780*%
%ADD21OC8,0.0740*%
%ADD22C,0.0750*%
%ADD23OC8,0.0750*%
%ADD24OC8,0.1240*%
%ADD25R,0.0740X0.0740*%
%ADD26C,0.0240*%
%ADD27C,0.0120*%
%ADD28R,0.0356X0.0356*%
%ADD29C,0.0160*%
D10*
X000180Y000393D02*
X039550Y000393D01*
X039550Y020275D01*
X000180Y020275D01*
X000180Y000393D01*
D11*
X019930Y013643D03*
X020930Y013643D03*
X021930Y013643D03*
X022930Y013643D03*
X022930Y016643D03*
X021930Y016643D03*
X020930Y016643D03*
X019930Y016643D03*
D12*
X021930Y017643D03*
X021930Y018643D03*
X021930Y019893D03*
X024930Y019893D03*
X024930Y018643D03*
X024930Y017643D03*
X027430Y018643D03*
X027430Y019893D03*
X030430Y019893D03*
X030430Y018643D03*
X038180Y016893D03*
X038930Y015893D03*
X038930Y017893D03*
X038180Y013893D03*
X032930Y007893D03*
X030930Y007893D03*
X030930Y006143D03*
X030930Y003143D03*
X032180Y002143D03*
X032180Y001143D03*
X029180Y001143D03*
X028180Y001143D03*
X028180Y002143D03*
X029180Y002143D03*
X025180Y002143D03*
X023930Y002143D03*
X023930Y001143D03*
X025180Y001143D03*
X023930Y003393D03*
X022180Y004393D03*
X022180Y005393D03*
X022180Y006893D03*
X023180Y007643D03*
X023930Y008143D03*
X023180Y008643D03*
X022180Y007893D03*
X020680Y008893D03*
X019180Y007893D03*
X019180Y006893D03*
X017680Y005893D03*
X019180Y005393D03*
X019180Y004393D03*
X017680Y004893D03*
X016180Y003893D03*
X013180Y003143D03*
X013680Y002143D03*
X013180Y001643D03*
X013680Y001143D03*
X016680Y001143D03*
X017680Y001143D03*
X018430Y001643D03*
X019180Y001643D03*
X019930Y001143D03*
X020930Y001143D03*
X020930Y002143D03*
X019930Y002143D03*
X020930Y003393D03*
X017680Y002143D03*
X016680Y002143D03*
X010180Y001643D03*
X008930Y001643D03*
X008180Y001143D03*
X007180Y001143D03*
X008180Y002143D03*
X007180Y002393D03*
X006680Y003393D03*
X004180Y002393D03*
X003680Y001893D03*
X004180Y001143D03*
X003680Y003393D03*
X000680Y001893D03*
X010180Y003143D03*
X016180Y006893D03*
X014430Y009143D03*
X013180Y010143D03*
X012430Y010643D03*
X013180Y011143D03*
X014430Y012143D03*
X015680Y013393D03*
X017680Y014893D03*
X017680Y015893D03*
X015680Y016393D03*
X011430Y013143D03*
X010430Y012143D03*
X011430Y010143D03*
X010430Y009143D03*
X020680Y011893D03*
X022680Y010893D03*
X022680Y009893D03*
D13*
X014412Y005000D03*
X012129Y006889D03*
X011223Y005039D03*
X009412Y005000D03*
X007129Y006889D03*
X006223Y005039D03*
X004412Y005000D03*
X002129Y006889D03*
X001223Y005039D03*
X008231Y008897D03*
X009137Y010748D03*
X005948Y010787D03*
X004412Y010000D03*
X002129Y011889D03*
X001223Y010039D03*
X008231Y013897D03*
X009137Y015748D03*
X010948Y015787D03*
X013231Y013897D03*
X014137Y015748D03*
X005948Y015787D03*
X004412Y015000D03*
X002129Y016889D03*
X001223Y015039D03*
D14*
X024727Y015393D03*
X024727Y016378D03*
X024727Y014409D03*
X032227Y014409D03*
X032227Y015393D03*
X032227Y016378D03*
X032227Y006378D03*
X032227Y005393D03*
X032227Y004409D03*
X024727Y004409D03*
X024727Y005393D03*
X024727Y006378D03*
D15*
X027680Y007165D03*
X027680Y003622D03*
X035180Y003622D03*
X035180Y007165D03*
X035180Y013622D03*
X035180Y017165D03*
X027680Y017165D03*
X027680Y013622D03*
D16*
X019530Y010393D03*
X017680Y010393D03*
X015830Y010393D03*
D17*
X025930Y009173D02*
X025930Y008613D01*
X026930Y008613D02*
X026930Y009173D01*
X027930Y009173D02*
X027930Y008613D01*
X028930Y008613D02*
X028930Y009173D01*
X029930Y009173D02*
X029930Y008613D01*
X030930Y008613D02*
X030930Y009173D01*
X031930Y009173D02*
X031930Y008613D01*
X032930Y008613D02*
X032930Y009173D01*
X033930Y009173D02*
X033930Y008613D01*
X034930Y008613D02*
X034930Y009173D01*
X035930Y009173D02*
X035930Y008613D01*
X036930Y008613D02*
X036930Y009173D01*
X037930Y009173D02*
X037930Y008613D01*
X038930Y008613D02*
X038930Y009173D01*
X038930Y011613D02*
X038930Y012173D01*
X037930Y012173D02*
X037930Y011613D01*
X036930Y011613D02*
X036930Y012173D01*
X035930Y012173D02*
X035930Y011613D01*
X034930Y011613D02*
X034930Y012173D01*
X033930Y012173D02*
X033930Y011613D01*
X032930Y011613D02*
X032930Y012173D01*
X031930Y012173D02*
X031930Y011613D01*
X030930Y011613D02*
X030930Y012173D01*
X029930Y012173D02*
X029930Y011613D01*
X028930Y011613D02*
X028930Y012173D01*
X027930Y012173D02*
X027930Y011613D01*
X026930Y011613D02*
X026930Y012173D01*
X025930Y012173D02*
X025930Y011613D01*
D18*
X029930Y012893D03*
X030930Y012893D03*
X031930Y012893D03*
D19*
X038930Y006893D03*
X038930Y005893D03*
X038930Y004893D03*
X038680Y019143D03*
X037680Y019143D03*
X036680Y019143D03*
X035680Y019143D03*
X034680Y019143D03*
X033680Y019143D03*
X008930Y019643D03*
X007680Y019643D03*
X007680Y018393D03*
X008930Y017643D03*
X005680Y018393D03*
X005680Y019643D03*
D20*
X004680Y019643D03*
X004680Y018643D03*
X004680Y017643D03*
X000680Y017643D03*
X000680Y018643D03*
X000680Y019643D03*
D21*
X010430Y019143D03*
X011430Y019143D03*
X012430Y019143D03*
X013430Y019143D03*
X014430Y019143D03*
X015430Y019143D03*
X016430Y019143D03*
X017430Y019143D03*
X017430Y018143D03*
X016430Y018143D03*
X015430Y018143D03*
X014430Y018143D03*
X013430Y018143D03*
X012430Y018143D03*
X011430Y018143D03*
X010430Y018143D03*
D22*
X019680Y017643D03*
D23*
X019680Y019643D03*
D24*
X038180Y001893D03*
D25*
X038930Y003893D03*
D26*
X032227Y004409D02*
X032211Y004393D01*
X031680Y004393D01*
X030180Y005893D01*
X027430Y005893D01*
X026180Y007093D01*
X024430Y007093D01*
X023680Y006393D01*
X019680Y006393D01*
X019180Y006893D01*
X018180Y007893D01*
X008680Y007893D01*
X008180Y007393D01*
X007180Y008393D01*
X007180Y009893D01*
X007430Y010143D01*
X007430Y012143D01*
X007930Y012643D01*
X007180Y013393D01*
X007180Y016393D01*
X006680Y016893D01*
X004430Y016893D01*
X003930Y017393D01*
X003930Y017893D01*
X004680Y018643D01*
X005430Y018643D01*
X005680Y018393D01*
X004680Y017643D02*
X008930Y017643D01*
X009680Y016893D01*
X012180Y016893D01*
X012680Y016393D01*
X013180Y016893D01*
X018180Y016893D01*
X018930Y017643D01*
X019680Y017643D01*
X020930Y019143D01*
X030930Y019143D01*
X032930Y017143D01*
X033930Y018143D01*
X035680Y018143D01*
X036680Y019143D01*
X038180Y017643D01*
X038180Y016893D01*
X032930Y017143D02*
X032930Y011893D01*
X031930Y012893D02*
X030930Y011893D01*
X029930Y011893D02*
X029930Y012893D01*
X031993Y014643D02*
X032227Y014409D01*
X031993Y014643D02*
X026930Y014643D01*
X025930Y013643D01*
X022930Y013643D01*
X022180Y012893D01*
X020180Y012893D01*
X019930Y012643D01*
X007930Y012643D01*
X011430Y013143D02*
X011430Y014643D01*
X012680Y015893D01*
X012680Y016393D01*
X013680Y017393D02*
X010180Y017393D01*
X009180Y018393D01*
X007680Y018393D01*
X008680Y018893D02*
X009680Y018893D01*
X010430Y018143D01*
X010430Y019143D01*
X009180Y019893D02*
X014680Y019893D01*
X015430Y019143D01*
X015430Y018143D01*
X014430Y018143D02*
X014430Y019143D01*
X014430Y018143D02*
X013680Y017393D01*
X016430Y018143D02*
X016430Y019143D01*
X017430Y019143D02*
X017430Y018143D01*
X009180Y019893D02*
X008930Y019643D01*
X008680Y018893D02*
X007930Y019643D01*
X007680Y019643D01*
X005680Y019643D02*
X004680Y019643D01*
X008180Y007393D02*
X008180Y004143D01*
X010180Y002143D01*
X010180Y001643D01*
X023930Y003393D02*
X025930Y003393D01*
X027430Y004893D01*
X029680Y004893D01*
X029680Y006643D02*
X030930Y007893D01*
X030930Y008893D01*
X031930Y008893D01*
D27*
X030930Y009893D02*
X033680Y009893D01*
X033930Y009643D01*
X033930Y008893D01*
X034930Y008893D02*
X033680Y007643D01*
X033680Y002893D01*
X032430Y001643D01*
X031930Y001643D01*
X030930Y002643D01*
X028680Y002643D01*
X028180Y002143D01*
X029180Y001143D02*
X029180Y000893D01*
X028930Y000643D01*
X025430Y000643D01*
X025180Y000893D01*
X025180Y001143D01*
X025680Y001643D02*
X025180Y002143D01*
X025680Y001643D02*
X031430Y001643D01*
X031930Y001143D01*
X032180Y001143D01*
X032180Y002143D02*
X032930Y002893D01*
X032930Y004691D01*
X032227Y005393D01*
X028680Y005393D02*
X024727Y005393D01*
X024727Y004409D02*
X024711Y004393D01*
X023680Y004393D01*
X023180Y004893D01*
X020680Y004893D01*
X019430Y003643D01*
X017180Y003643D01*
X015824Y005000D01*
X014412Y005000D01*
X015180Y003893D02*
X010519Y003893D01*
X009412Y005000D01*
X007680Y004893D02*
X007680Y004143D01*
X009680Y002143D01*
X009680Y001143D01*
X010180Y000643D01*
X016180Y000643D01*
X016680Y001143D01*
X017180Y001643D02*
X015430Y001643D01*
X014930Y002143D01*
X013680Y002143D01*
X013180Y001643D01*
X014930Y003143D02*
X015180Y002893D01*
X018930Y002893D01*
X019180Y002643D01*
X022680Y002643D01*
X023680Y001643D01*
X024180Y001643D01*
X024430Y001893D01*
X024430Y002643D01*
X024680Y002893D01*
X025930Y002893D01*
X023930Y002143D02*
X023180Y002893D01*
X019430Y002893D01*
X019180Y003143D01*
X015430Y003143D01*
X014930Y003643D01*
X010180Y003643D01*
X009930Y003893D01*
X009180Y003893D01*
X010180Y003143D02*
X010680Y002643D01*
X017930Y002643D01*
X018430Y002143D01*
X018430Y001643D01*
X019180Y001643D02*
X020430Y001643D01*
X020930Y002143D01*
X022680Y002143D01*
X023680Y001143D01*
X023930Y001143D01*
X020680Y004393D02*
X019680Y003393D01*
X015680Y003393D01*
X015180Y003893D01*
X014930Y003143D02*
X013180Y003143D01*
X017180Y001643D02*
X017680Y001143D01*
X020680Y004393D02*
X022180Y004393D01*
X021430Y005393D02*
X019180Y005393D01*
X018680Y005893D02*
X017680Y004893D01*
X017680Y005893D02*
X017680Y006393D01*
X017180Y006893D01*
X016180Y006893D01*
X018680Y005893D02*
X023430Y005893D01*
X023430Y006893D02*
X023930Y007393D01*
X026180Y007393D01*
X026930Y008143D01*
X029180Y008143D01*
X029930Y008893D01*
X027930Y008893D02*
X027930Y009643D01*
X027680Y009893D01*
X022680Y009893D01*
X023180Y009343D02*
X020380Y009343D01*
X019680Y008643D01*
X009930Y008643D01*
X008430Y010143D01*
X007930Y010143D01*
X006930Y010393D02*
X006680Y010143D01*
X006680Y008143D01*
X006180Y007643D01*
X006180Y006393D01*
X007680Y004893D01*
X007680Y003393D02*
X006680Y003393D01*
X007680Y003393D02*
X008930Y002143D01*
X008930Y001643D01*
X008180Y001143D02*
X007430Y001893D01*
X004680Y001893D01*
X004180Y002393D01*
X003680Y001893D01*
X004680Y002893D02*
X005180Y002393D01*
X007180Y002393D01*
X004680Y002893D02*
X003430Y002893D01*
X002930Y003393D01*
X002930Y005893D01*
X004430Y007393D01*
X004430Y009982D01*
X004412Y010000D01*
X005930Y009643D02*
X005930Y008393D01*
X003430Y005893D01*
X003430Y003643D01*
X003680Y003393D01*
X003180Y008143D02*
X003180Y010893D01*
X004412Y012126D01*
X004412Y015000D01*
X005948Y015787D02*
X006036Y015787D01*
X006036Y012037D01*
X006930Y011143D01*
X006930Y010393D01*
X010430Y009143D02*
X011680Y009143D01*
X012430Y009893D01*
X013180Y009143D01*
X014430Y009143D01*
X015830Y010393D02*
X015080Y011143D01*
X013180Y011143D01*
X012180Y011143D01*
X011430Y010393D01*
X011430Y010143D01*
X012430Y009893D02*
X012430Y010643D01*
X015830Y010393D02*
X016830Y009393D01*
X019930Y009393D01*
X020930Y010393D01*
X035430Y010393D01*
X035930Y010893D01*
X035930Y011893D01*
X034930Y011893D02*
X034930Y011143D01*
X034680Y010893D01*
X023680Y010893D01*
X022680Y011893D01*
X021430Y011893D01*
X020680Y011893D02*
X020680Y011393D01*
X021180Y010893D01*
X022680Y010893D01*
X023930Y011143D02*
X022680Y012393D01*
X020430Y012393D01*
X019680Y011643D01*
X019680Y010543D01*
X019530Y010393D01*
X022180Y008643D02*
X022680Y009143D01*
X025680Y009143D01*
X025930Y008893D01*
X026430Y009643D02*
X026930Y009143D01*
X026930Y008893D01*
X026430Y009643D02*
X023430Y009643D01*
X023180Y009343D01*
X022180Y008643D02*
X022180Y007893D01*
X022680Y007893D02*
X022680Y007643D01*
X022430Y007393D01*
X019680Y007393D01*
X019180Y007893D01*
X022180Y006893D02*
X022430Y006893D01*
X023180Y007643D01*
X022680Y007893D02*
X022930Y008143D01*
X023930Y008143D01*
X023930Y011143D02*
X027680Y011143D01*
X027930Y011393D01*
X027930Y011893D01*
X024727Y014409D02*
X024711Y014393D01*
X014180Y014393D01*
X013430Y015143D01*
X012680Y015143D01*
X015680Y016393D02*
X017180Y016393D01*
X017680Y015893D01*
X017680Y014893D02*
X025430Y014893D01*
X026430Y016893D02*
X027680Y015643D01*
X031977Y015643D01*
X032227Y015393D01*
X027430Y018643D02*
X026930Y018143D01*
X022930Y018143D01*
X021930Y017643D02*
X021930Y018643D01*
X022480Y019453D02*
X022040Y019893D01*
X021930Y019893D01*
X022480Y019453D02*
X026930Y019453D01*
X027430Y019893D01*
X026430Y018643D02*
X024930Y018643D01*
X033680Y019143D02*
X033680Y019393D01*
X034180Y019893D01*
X038930Y019893D01*
X039230Y019643D01*
X039230Y018143D01*
X038930Y017893D01*
X038930Y015893D02*
X038180Y015143D01*
X038180Y013893D01*
X038180Y012643D01*
X038930Y011893D01*
X038930Y008893D02*
X038930Y006893D01*
X038680Y005893D02*
X037930Y006643D01*
X037930Y008893D01*
X036930Y008893D02*
X036930Y006893D01*
X038930Y004893D01*
X038930Y003893D02*
X036180Y006643D01*
X036180Y008643D01*
X035930Y008893D01*
X038680Y005893D02*
X038930Y005893D01*
X030930Y003143D02*
X029180Y003143D01*
D28*
X029180Y003143D03*
X029680Y004893D03*
X028680Y005393D03*
X029680Y006643D03*
X030930Y009893D03*
X023430Y006893D03*
X023430Y005893D03*
X021430Y005393D03*
X025930Y002893D03*
X021430Y011893D03*
X025430Y014893D03*
X026430Y016893D03*
X026430Y018643D03*
X022930Y018143D03*
X029430Y015143D03*
X012680Y015143D03*
X007930Y010143D03*
X005930Y009643D03*
X003180Y008143D03*
X009180Y003893D03*
D29*
X024930Y017643D02*
X027430Y015143D01*
X029430Y015143D01*
X024930Y017643D02*
X024430Y017143D01*
X020430Y017143D01*
X019930Y016643D01*
M02*
