G75*
G70*
%OFA0B0*%
%FSLAX24Y24*%
%IPPOS*%
%LPD*%
%AMOC8*
5,1,8,0,0,1.08239X$1,22.5*
%
%ADD10C,0.0000*%
%ADD11C,0.0030*%
%ADD12C,0.0600*%
%ADD13OC8,0.0600*%
%ADD14OC8,0.1462*%
%ADD15C,0.0800*%
%ADD16OC8,0.1147*%
%ADD17OC8,0.1226*%
%ADD18C,0.0600*%
%ADD19C,0.0595*%
%ADD20C,0.0780*%
%ADD21C,0.0820*%
%ADD22OC8,0.0780*%
%ADD23C,0.0790*%
%ADD24OC8,0.0790*%
%ADD25OC8,0.1280*%
%ADD26R,0.0780X0.0780*%
D10*
X000180Y000393D02*
X039550Y000393D01*
X039550Y020275D01*
X000180Y020275D01*
X000180Y000393D01*
D11*
X009430Y018106D02*
X009430Y018353D01*
X009492Y018474D02*
X009615Y018598D01*
X009245Y018598D01*
X009245Y018721D02*
X009245Y018474D01*
X009245Y018842D02*
X009492Y019089D01*
X009554Y019089D01*
X009615Y019028D01*
X009615Y018904D01*
X009554Y018842D01*
X009245Y018842D02*
X009245Y019089D01*
X038622Y008049D02*
X038622Y007987D01*
X038622Y008049D02*
X038683Y008111D01*
X038992Y008111D01*
X038745Y008111D02*
X038745Y007925D01*
X038807Y007864D01*
X038992Y007864D01*
X038992Y007742D02*
X038992Y007557D01*
X038930Y007495D01*
X038807Y007495D01*
X038745Y007557D01*
X038745Y007742D01*
X038683Y007742D02*
X038992Y007742D01*
X038683Y007742D02*
X038622Y007681D01*
X038622Y007619D01*
X038807Y007374D02*
X038930Y007374D01*
X038992Y007312D01*
X038992Y007189D01*
X038930Y007127D01*
X038807Y007127D01*
X038745Y007189D01*
X038745Y007312D01*
X038807Y007374D01*
X038745Y007005D02*
X038745Y006882D01*
X038745Y006943D02*
X039115Y006943D01*
X039115Y006882D01*
X038992Y006698D02*
X038992Y006575D01*
X038930Y006513D01*
X038807Y006513D01*
X038745Y006575D01*
X038745Y006698D01*
X038807Y006760D01*
X038930Y006760D01*
X038992Y006698D01*
X038930Y006392D02*
X038745Y006392D01*
X038930Y006392D02*
X038992Y006330D01*
X038992Y006145D01*
X038745Y006145D01*
X038745Y006024D02*
X038930Y006024D01*
X038992Y005962D01*
X038992Y005838D01*
X038930Y005777D01*
X038992Y005655D02*
X038992Y005470D01*
X038930Y005408D01*
X038807Y005408D01*
X038745Y005470D01*
X038745Y005655D01*
X038745Y005777D02*
X039115Y005777D01*
X038930Y005287D02*
X038868Y005287D01*
X038868Y005040D01*
X038807Y005040D02*
X038930Y005040D01*
X038992Y005102D01*
X038992Y005225D01*
X038930Y005287D01*
X038745Y005225D02*
X038745Y005102D01*
X038807Y005040D01*
X038745Y004795D02*
X039115Y004795D01*
X039115Y004672D02*
X039115Y004919D01*
X039115Y004120D02*
X038745Y004120D01*
X038745Y004181D02*
X038745Y004058D01*
X038868Y003936D02*
X038868Y003690D01*
X038807Y003690D02*
X038930Y003690D01*
X038992Y003751D01*
X038992Y003875D01*
X038930Y003936D01*
X038868Y003936D01*
X038745Y003875D02*
X038745Y003751D01*
X038807Y003690D01*
X038807Y003568D02*
X038930Y003568D01*
X038992Y003506D01*
X038992Y003321D01*
X039115Y003321D02*
X038745Y003321D01*
X038745Y003506D01*
X038807Y003568D01*
X038868Y003200D02*
X038868Y002953D01*
X038807Y002953D02*
X038930Y002953D01*
X038992Y003015D01*
X038992Y003138D01*
X038930Y003200D01*
X038868Y003200D01*
X038745Y003138D02*
X038745Y003015D01*
X038807Y002953D01*
X038745Y002831D02*
X038868Y002708D01*
X038868Y002770D02*
X038868Y002585D01*
X038745Y002585D02*
X039115Y002585D01*
X039115Y002770D01*
X039054Y002831D01*
X038930Y002831D01*
X038868Y002770D01*
X039115Y004058D02*
X039115Y004120D01*
D12*
X022930Y013643D03*
X021930Y013643D03*
X020930Y013643D03*
X019930Y013643D03*
X019930Y016643D03*
X020930Y016643D03*
X021930Y016643D03*
X022930Y016643D03*
D13*
X021930Y017643D03*
X021930Y018643D03*
X021930Y019893D03*
X024930Y019893D03*
X024930Y018643D03*
X024930Y017643D03*
X027430Y018643D03*
X027430Y019893D03*
X030430Y019893D03*
X030430Y018643D03*
X038180Y016893D03*
X038930Y015893D03*
X038930Y017893D03*
X038180Y013893D03*
X032930Y007893D03*
X030930Y007893D03*
X030930Y006143D03*
X030930Y003143D03*
X032180Y002143D03*
X032180Y001143D03*
X029180Y001143D03*
X028180Y001143D03*
X028180Y002143D03*
X029180Y002143D03*
X025180Y002143D03*
X023930Y002143D03*
X023930Y001143D03*
X025180Y001143D03*
X023930Y003393D03*
X022180Y004393D03*
X022180Y005393D03*
X022180Y006893D03*
X023180Y007643D03*
X023930Y008143D03*
X023180Y008643D03*
X022180Y007893D03*
X020680Y008893D03*
X019180Y007893D03*
X019180Y006893D03*
X017680Y005893D03*
X019180Y005393D03*
X019180Y004393D03*
X017680Y004893D03*
X016180Y003893D03*
X013180Y003143D03*
X013680Y002143D03*
X013180Y001643D03*
X013680Y001143D03*
X016680Y001143D03*
X017680Y001143D03*
X018430Y001643D03*
X019180Y001643D03*
X019930Y001143D03*
X020930Y001143D03*
X020930Y002143D03*
X019930Y002143D03*
X020930Y003393D03*
X017680Y002143D03*
X016680Y002143D03*
X010180Y001643D03*
X008930Y001643D03*
X008180Y001143D03*
X007180Y001143D03*
X008180Y002143D03*
X007180Y002393D03*
X006680Y003393D03*
X004180Y002393D03*
X003680Y001893D03*
X004180Y001143D03*
X003680Y003393D03*
X000680Y001893D03*
X010180Y003143D03*
X016180Y006893D03*
X014430Y009143D03*
X013180Y010143D03*
X012430Y010643D03*
X013180Y011143D03*
X014430Y012143D03*
X015680Y013393D03*
X017680Y014893D03*
X017680Y015893D03*
X015680Y016393D03*
X011430Y013143D03*
X010430Y012143D03*
X011430Y010143D03*
X010430Y009143D03*
X020680Y011893D03*
X022680Y010893D03*
X022680Y009893D03*
D14*
X014412Y005000D03*
X012129Y006889D03*
X011223Y005039D03*
X009412Y005000D03*
X007129Y006889D03*
X006223Y005039D03*
X004412Y005000D03*
X002129Y006889D03*
X001223Y005039D03*
X008231Y008897D03*
X009137Y010748D03*
X005948Y010787D03*
X004412Y010000D03*
X002129Y011889D03*
X001223Y010039D03*
X008231Y013897D03*
X009137Y015748D03*
X010948Y015787D03*
X013231Y013897D03*
X014137Y015748D03*
X005948Y015787D03*
X004412Y015000D03*
X002129Y016889D03*
X001223Y015039D03*
D15*
X024727Y015393D03*
X024727Y016378D03*
X024727Y014409D03*
X032227Y014409D03*
X032227Y015393D03*
X032227Y016378D03*
X032227Y006378D03*
X032227Y005393D03*
X032227Y004409D03*
X024727Y004409D03*
X024727Y005393D03*
X024727Y006378D03*
D16*
X027680Y007165D03*
X027680Y003622D03*
X035180Y003622D03*
X035180Y007165D03*
X035180Y013622D03*
X035180Y017165D03*
X027680Y017165D03*
X027680Y013622D03*
D17*
X019530Y010393D03*
X017680Y010393D03*
X015830Y010393D03*
D18*
X025930Y009173D02*
X025930Y008613D01*
X026930Y008613D02*
X026930Y009173D01*
X027930Y009173D02*
X027930Y008613D01*
X028930Y008613D02*
X028930Y009173D01*
X029930Y009173D02*
X029930Y008613D01*
X030930Y008613D02*
X030930Y009173D01*
X031930Y009173D02*
X031930Y008613D01*
X032930Y008613D02*
X032930Y009173D01*
X033930Y009173D02*
X033930Y008613D01*
X034930Y008613D02*
X034930Y009173D01*
X035930Y009173D02*
X035930Y008613D01*
X036930Y008613D02*
X036930Y009173D01*
X037930Y009173D02*
X037930Y008613D01*
X038930Y008613D02*
X038930Y009173D01*
X038930Y011613D02*
X038930Y012173D01*
X037930Y012173D02*
X037930Y011613D01*
X036930Y011613D02*
X036930Y012173D01*
X035930Y012173D02*
X035930Y011613D01*
X034930Y011613D02*
X034930Y012173D01*
X033930Y012173D02*
X033930Y011613D01*
X032930Y011613D02*
X032930Y012173D01*
X031930Y012173D02*
X031930Y011613D01*
X030930Y011613D02*
X030930Y012173D01*
X029930Y012173D02*
X029930Y011613D01*
X028930Y011613D02*
X028930Y012173D01*
X027930Y012173D02*
X027930Y011613D01*
X026930Y011613D02*
X026930Y012173D01*
X025930Y012173D02*
X025930Y011613D01*
D19*
X029930Y012893D03*
X030930Y012893D03*
X031930Y012893D03*
D20*
X038930Y006893D03*
X038930Y005893D03*
X038930Y004893D03*
X038680Y019143D03*
X037680Y019143D03*
X036680Y019143D03*
X035680Y019143D03*
X034680Y019143D03*
X033680Y019143D03*
X008930Y019643D03*
X007680Y019643D03*
X007680Y018393D03*
X008930Y017643D03*
X005680Y018393D03*
X005680Y019643D03*
D21*
X004680Y019643D03*
X004680Y018643D03*
X004680Y017643D03*
X000680Y017643D03*
X000680Y018643D03*
X000680Y019643D03*
D22*
X010430Y019143D03*
X011430Y019143D03*
X012430Y019143D03*
X013430Y019143D03*
X014430Y019143D03*
X015430Y019143D03*
X016430Y019143D03*
X017430Y019143D03*
X017430Y018143D03*
X016430Y018143D03*
X015430Y018143D03*
X014430Y018143D03*
X013430Y018143D03*
X012430Y018143D03*
X011430Y018143D03*
X010430Y018143D03*
D23*
X019680Y017643D03*
D24*
X019680Y019643D03*
D25*
X038180Y001893D03*
D26*
X038930Y003893D03*
M02*
