G75*
G70*
%OFA0B0*%
%FSLAX24Y24*%
%IPPOS*%
%LPD*%
%AMOC8*
5,1,8,0,0,1.08239X$1,22.5*
%
%ADD10C,0.0000*%
%ADD11C,0.0600*%
%ADD12OC8,0.0600*%
%ADD13OC8,0.1462*%
%ADD14C,0.0800*%
%ADD15OC8,0.1147*%
%ADD16OC8,0.1226*%
%ADD17C,0.0600*%
%ADD18C,0.0595*%
%ADD19C,0.0780*%
%ADD20C,0.0820*%
%ADD21OC8,0.0780*%
%ADD22C,0.0790*%
%ADD23OC8,0.0790*%
%ADD24OC8,0.1280*%
D10*
X000180Y000393D02*
X039550Y000393D01*
X039550Y020275D01*
X000180Y020275D01*
X000180Y000393D01*
D11*
X019930Y013643D03*
X020930Y013643D03*
X021930Y013643D03*
X022930Y013643D03*
X022930Y016643D03*
X021930Y016643D03*
X020930Y016643D03*
X019930Y016643D03*
X025930Y018643D03*
X028930Y018643D03*
X031180Y019143D03*
X031180Y016143D03*
X033680Y002143D03*
X033680Y001143D03*
X036680Y001143D03*
X036680Y002143D03*
D12*
X032180Y002143D03*
X032180Y001143D03*
X029180Y001143D03*
X028180Y001143D03*
X028180Y002143D03*
X029180Y002143D03*
X030930Y003143D03*
X030930Y006143D03*
X030930Y007893D03*
X032930Y007893D03*
X023930Y008143D03*
X023180Y007643D03*
X022180Y007893D03*
X022180Y006893D03*
X022180Y005393D03*
X022180Y004393D03*
X020930Y003393D03*
X020930Y002143D03*
X019930Y002143D03*
X019180Y001643D03*
X018430Y001643D03*
X017680Y001143D03*
X016680Y001143D03*
X016680Y002143D03*
X017680Y002143D03*
X019930Y001143D03*
X020930Y001143D03*
X023930Y001143D03*
X025180Y001143D03*
X025180Y002143D03*
X023930Y002143D03*
X023930Y003393D03*
X019180Y004393D03*
X019180Y005393D03*
X017680Y004893D03*
X016180Y003893D03*
X013180Y003143D03*
X013680Y002143D03*
X013180Y001643D03*
X013680Y001143D03*
X010180Y001643D03*
X008930Y001643D03*
X008180Y001143D03*
X007180Y001143D03*
X008180Y002143D03*
X007180Y002393D03*
X006680Y003393D03*
X004180Y002393D03*
X003680Y001893D03*
X004180Y001143D03*
X003680Y003393D03*
X000680Y001893D03*
X010180Y003143D03*
X016180Y006893D03*
X017680Y005893D03*
X019180Y006893D03*
X019180Y007893D03*
X020680Y008893D03*
X022680Y009893D03*
X022680Y010893D03*
X020680Y011893D03*
X015680Y013393D03*
X014430Y012143D03*
X013180Y011143D03*
X012430Y010643D03*
X013180Y010143D03*
X014430Y009143D03*
X011430Y010143D03*
X010430Y009143D03*
X010430Y012143D03*
X011430Y013143D03*
X015680Y016393D03*
X017680Y015893D03*
X017680Y014893D03*
X021930Y017643D03*
X021930Y018643D03*
X021930Y019893D03*
X024930Y019893D03*
X025930Y019893D03*
X024930Y018643D03*
X024930Y017643D03*
X028930Y019893D03*
X029680Y019893D03*
X032680Y019893D03*
X038180Y016893D03*
X038930Y015893D03*
X038930Y017893D03*
X038180Y013893D03*
X023180Y008643D03*
D13*
X014412Y005000D03*
X012129Y006889D03*
X011223Y005039D03*
X009412Y005000D03*
X007129Y006889D03*
X006223Y005039D03*
X004412Y005000D03*
X002129Y006889D03*
X001223Y005039D03*
X008231Y008897D03*
X009137Y010748D03*
X005948Y010787D03*
X004412Y010000D03*
X002129Y011889D03*
X001223Y010039D03*
X008231Y013897D03*
X009137Y015748D03*
X010948Y015787D03*
X013231Y013897D03*
X014137Y015748D03*
X005948Y015787D03*
X004412Y015000D03*
X002129Y016889D03*
X001223Y015039D03*
D14*
X024727Y015393D03*
X024727Y016378D03*
X024727Y014409D03*
X032227Y014409D03*
X032227Y015393D03*
X032227Y016378D03*
X032227Y006378D03*
X032227Y005393D03*
X032227Y004409D03*
X024727Y004409D03*
X024727Y005393D03*
X024727Y006378D03*
D15*
X027680Y007165D03*
X027680Y003622D03*
X035180Y003622D03*
X035180Y007165D03*
X035180Y013622D03*
X035180Y017165D03*
X027680Y017165D03*
X027680Y013622D03*
D16*
X019530Y010393D03*
X017680Y010393D03*
X015830Y010393D03*
D17*
X025930Y009173D02*
X025930Y008613D01*
X026930Y008613D02*
X026930Y009173D01*
X027930Y009173D02*
X027930Y008613D01*
X028930Y008613D02*
X028930Y009173D01*
X029930Y009173D02*
X029930Y008613D01*
X030930Y008613D02*
X030930Y009173D01*
X031930Y009173D02*
X031930Y008613D01*
X032930Y008613D02*
X032930Y009173D01*
X033930Y009173D02*
X033930Y008613D01*
X034930Y008613D02*
X034930Y009173D01*
X035930Y009173D02*
X035930Y008613D01*
X036930Y008613D02*
X036930Y009173D01*
X037930Y009173D02*
X037930Y008613D01*
X038930Y008613D02*
X038930Y009173D01*
X038930Y011613D02*
X038930Y012173D01*
X037930Y012173D02*
X037930Y011613D01*
X036930Y011613D02*
X036930Y012173D01*
X035930Y012173D02*
X035930Y011613D01*
X034930Y011613D02*
X034930Y012173D01*
X033930Y012173D02*
X033930Y011613D01*
X032930Y011613D02*
X032930Y012173D01*
X031930Y012173D02*
X031930Y011613D01*
X030930Y011613D02*
X030930Y012173D01*
X029930Y012173D02*
X029930Y011613D01*
X028930Y011613D02*
X028930Y012173D01*
X027930Y012173D02*
X027930Y011613D01*
X026930Y011613D02*
X026930Y012173D01*
X025930Y012173D02*
X025930Y011613D01*
D18*
X029930Y012893D03*
X030930Y012893D03*
X031930Y012893D03*
D19*
X033680Y019143D03*
X034680Y019143D03*
X035680Y019143D03*
X036680Y019143D03*
X037680Y019143D03*
X038680Y019143D03*
X008930Y019643D03*
X007680Y019643D03*
X007680Y018393D03*
X008930Y017643D03*
X005680Y018393D03*
X005680Y019643D03*
D20*
X004680Y019643D03*
X004680Y018643D03*
X004680Y017643D03*
X000680Y017643D03*
X000680Y018643D03*
X000680Y019643D03*
D21*
X010430Y019143D03*
X011430Y019143D03*
X012430Y019143D03*
X013430Y019143D03*
X014430Y019143D03*
X015430Y019143D03*
X016430Y019143D03*
X017430Y019143D03*
X017430Y018143D03*
X016430Y018143D03*
X015430Y018143D03*
X014430Y018143D03*
X013430Y018143D03*
X012430Y018143D03*
X011430Y018143D03*
X010430Y018143D03*
D22*
X019680Y017643D03*
D23*
X019680Y019643D03*
D24*
X038180Y001893D03*
M02*
