G75*
%MOIN*%
%OFA0B0*%
%FSLAX24Y24*%
%IPPOS*%
%LPD*%
%AMOC8*
5,1,8,0,0,1.08239X$1,22.5*
%
%ADD10C,0.0000*%
%ADD11C,0.0560*%
%ADD12C,0.0634*%
%ADD13C,0.1142*%
%ADD14C,0.0800*%
%ADD15C,0.1221*%
%ADD16C,0.1306*%
%ADD17C,0.0560*%
%ADD18C,0.0780*%
%ADD19C,0.0820*%
%ADD20C,0.0790*%
%ADD21R,0.0560X0.0560*%
%ADD22R,0.0780X0.0780*%
D10*
X002694Y002643D02*
X022379Y002643D01*
X022379Y042013D01*
X002694Y042013D01*
X002694Y002643D01*
X007025Y005143D02*
X007027Y005190D01*
X007033Y005236D01*
X007043Y005282D01*
X007056Y005327D01*
X007074Y005370D01*
X007095Y005412D01*
X007119Y005452D01*
X007147Y005489D01*
X007178Y005524D01*
X007212Y005557D01*
X007248Y005586D01*
X007287Y005612D01*
X007328Y005635D01*
X007371Y005654D01*
X007415Y005670D01*
X007460Y005682D01*
X007506Y005690D01*
X007553Y005694D01*
X007599Y005694D01*
X007646Y005690D01*
X007692Y005682D01*
X007737Y005670D01*
X007781Y005654D01*
X007824Y005635D01*
X007865Y005612D01*
X007904Y005586D01*
X007940Y005557D01*
X007974Y005524D01*
X008005Y005489D01*
X008033Y005452D01*
X008057Y005412D01*
X008078Y005370D01*
X008096Y005327D01*
X008109Y005282D01*
X008119Y005236D01*
X008125Y005190D01*
X008127Y005143D01*
X008125Y005096D01*
X008119Y005050D01*
X008109Y005004D01*
X008096Y004959D01*
X008078Y004916D01*
X008057Y004874D01*
X008033Y004834D01*
X008005Y004797D01*
X007974Y004762D01*
X007940Y004729D01*
X007904Y004700D01*
X007865Y004674D01*
X007824Y004651D01*
X007781Y004632D01*
X007737Y004616D01*
X007692Y004604D01*
X007646Y004596D01*
X007599Y004592D01*
X007553Y004592D01*
X007506Y004596D01*
X007460Y004604D01*
X007415Y004616D01*
X007371Y004632D01*
X007328Y004651D01*
X007287Y004674D01*
X007248Y004700D01*
X007212Y004729D01*
X007178Y004762D01*
X007147Y004797D01*
X007119Y004834D01*
X007095Y004874D01*
X007074Y004916D01*
X007056Y004959D01*
X007043Y005004D01*
X007033Y005050D01*
X007027Y005096D01*
X007025Y005143D01*
X007025Y010143D02*
X007027Y010190D01*
X007033Y010236D01*
X007043Y010282D01*
X007056Y010327D01*
X007074Y010370D01*
X007095Y010412D01*
X007119Y010452D01*
X007147Y010489D01*
X007178Y010524D01*
X007212Y010557D01*
X007248Y010586D01*
X007287Y010612D01*
X007328Y010635D01*
X007371Y010654D01*
X007415Y010670D01*
X007460Y010682D01*
X007506Y010690D01*
X007553Y010694D01*
X007599Y010694D01*
X007646Y010690D01*
X007692Y010682D01*
X007737Y010670D01*
X007781Y010654D01*
X007824Y010635D01*
X007865Y010612D01*
X007904Y010586D01*
X007940Y010557D01*
X007974Y010524D01*
X008005Y010489D01*
X008033Y010452D01*
X008057Y010412D01*
X008078Y010370D01*
X008096Y010327D01*
X008109Y010282D01*
X008119Y010236D01*
X008125Y010190D01*
X008127Y010143D01*
X008125Y010096D01*
X008119Y010050D01*
X008109Y010004D01*
X008096Y009959D01*
X008078Y009916D01*
X008057Y009874D01*
X008033Y009834D01*
X008005Y009797D01*
X007974Y009762D01*
X007940Y009729D01*
X007904Y009700D01*
X007865Y009674D01*
X007824Y009651D01*
X007781Y009632D01*
X007737Y009616D01*
X007692Y009604D01*
X007646Y009596D01*
X007599Y009592D01*
X007553Y009592D01*
X007506Y009596D01*
X007460Y009604D01*
X007415Y009616D01*
X007371Y009632D01*
X007328Y009651D01*
X007287Y009674D01*
X007248Y009700D01*
X007212Y009729D01*
X007178Y009762D01*
X007147Y009797D01*
X007119Y009834D01*
X007095Y009874D01*
X007074Y009916D01*
X007056Y009959D01*
X007043Y010004D01*
X007033Y010050D01*
X007027Y010096D01*
X007025Y010143D01*
X007025Y015143D02*
X007027Y015190D01*
X007033Y015236D01*
X007043Y015282D01*
X007056Y015327D01*
X007074Y015370D01*
X007095Y015412D01*
X007119Y015452D01*
X007147Y015489D01*
X007178Y015524D01*
X007212Y015557D01*
X007248Y015586D01*
X007287Y015612D01*
X007328Y015635D01*
X007371Y015654D01*
X007415Y015670D01*
X007460Y015682D01*
X007506Y015690D01*
X007553Y015694D01*
X007599Y015694D01*
X007646Y015690D01*
X007692Y015682D01*
X007737Y015670D01*
X007781Y015654D01*
X007824Y015635D01*
X007865Y015612D01*
X007904Y015586D01*
X007940Y015557D01*
X007974Y015524D01*
X008005Y015489D01*
X008033Y015452D01*
X008057Y015412D01*
X008078Y015370D01*
X008096Y015327D01*
X008109Y015282D01*
X008119Y015236D01*
X008125Y015190D01*
X008127Y015143D01*
X008125Y015096D01*
X008119Y015050D01*
X008109Y015004D01*
X008096Y014959D01*
X008078Y014916D01*
X008057Y014874D01*
X008033Y014834D01*
X008005Y014797D01*
X007974Y014762D01*
X007940Y014729D01*
X007904Y014700D01*
X007865Y014674D01*
X007824Y014651D01*
X007781Y014632D01*
X007737Y014616D01*
X007692Y014604D01*
X007646Y014596D01*
X007599Y014592D01*
X007553Y014592D01*
X007506Y014596D01*
X007460Y014604D01*
X007415Y014616D01*
X007371Y014632D01*
X007328Y014651D01*
X007287Y014674D01*
X007248Y014700D01*
X007212Y014729D01*
X007178Y014762D01*
X007147Y014797D01*
X007119Y014834D01*
X007095Y014874D01*
X007074Y014916D01*
X007056Y014959D01*
X007043Y015004D01*
X007033Y015050D01*
X007027Y015096D01*
X007025Y015143D01*
X012025Y010143D02*
X012027Y010190D01*
X012033Y010236D01*
X012043Y010282D01*
X012056Y010327D01*
X012074Y010370D01*
X012095Y010412D01*
X012119Y010452D01*
X012147Y010489D01*
X012178Y010524D01*
X012212Y010557D01*
X012248Y010586D01*
X012287Y010612D01*
X012328Y010635D01*
X012371Y010654D01*
X012415Y010670D01*
X012460Y010682D01*
X012506Y010690D01*
X012553Y010694D01*
X012599Y010694D01*
X012646Y010690D01*
X012692Y010682D01*
X012737Y010670D01*
X012781Y010654D01*
X012824Y010635D01*
X012865Y010612D01*
X012904Y010586D01*
X012940Y010557D01*
X012974Y010524D01*
X013005Y010489D01*
X013033Y010452D01*
X013057Y010412D01*
X013078Y010370D01*
X013096Y010327D01*
X013109Y010282D01*
X013119Y010236D01*
X013125Y010190D01*
X013127Y010143D01*
X013125Y010096D01*
X013119Y010050D01*
X013109Y010004D01*
X013096Y009959D01*
X013078Y009916D01*
X013057Y009874D01*
X013033Y009834D01*
X013005Y009797D01*
X012974Y009762D01*
X012940Y009729D01*
X012904Y009700D01*
X012865Y009674D01*
X012824Y009651D01*
X012781Y009632D01*
X012737Y009616D01*
X012692Y009604D01*
X012646Y009596D01*
X012599Y009592D01*
X012553Y009592D01*
X012506Y009596D01*
X012460Y009604D01*
X012415Y009616D01*
X012371Y009632D01*
X012328Y009651D01*
X012287Y009674D01*
X012248Y009700D01*
X012212Y009729D01*
X012178Y009762D01*
X012147Y009797D01*
X012119Y009834D01*
X012095Y009874D01*
X012074Y009916D01*
X012056Y009959D01*
X012043Y010004D01*
X012033Y010050D01*
X012027Y010096D01*
X012025Y010143D01*
X012025Y005143D02*
X012027Y005190D01*
X012033Y005236D01*
X012043Y005282D01*
X012056Y005327D01*
X012074Y005370D01*
X012095Y005412D01*
X012119Y005452D01*
X012147Y005489D01*
X012178Y005524D01*
X012212Y005557D01*
X012248Y005586D01*
X012287Y005612D01*
X012328Y005635D01*
X012371Y005654D01*
X012415Y005670D01*
X012460Y005682D01*
X012506Y005690D01*
X012553Y005694D01*
X012599Y005694D01*
X012646Y005690D01*
X012692Y005682D01*
X012737Y005670D01*
X012781Y005654D01*
X012824Y005635D01*
X012865Y005612D01*
X012904Y005586D01*
X012940Y005557D01*
X012974Y005524D01*
X013005Y005489D01*
X013033Y005452D01*
X013057Y005412D01*
X013078Y005370D01*
X013096Y005327D01*
X013109Y005282D01*
X013119Y005236D01*
X013125Y005190D01*
X013127Y005143D01*
X013125Y005096D01*
X013119Y005050D01*
X013109Y005004D01*
X013096Y004959D01*
X013078Y004916D01*
X013057Y004874D01*
X013033Y004834D01*
X013005Y004797D01*
X012974Y004762D01*
X012940Y004729D01*
X012904Y004700D01*
X012865Y004674D01*
X012824Y004651D01*
X012781Y004632D01*
X012737Y004616D01*
X012692Y004604D01*
X012646Y004596D01*
X012599Y004592D01*
X012553Y004592D01*
X012506Y004596D01*
X012460Y004604D01*
X012415Y004616D01*
X012371Y004632D01*
X012328Y004651D01*
X012287Y004674D01*
X012248Y004700D01*
X012212Y004729D01*
X012178Y004762D01*
X012147Y004797D01*
X012119Y004834D01*
X012095Y004874D01*
X012074Y004916D01*
X012056Y004959D01*
X012043Y005004D01*
X012033Y005050D01*
X012027Y005096D01*
X012025Y005143D01*
X017025Y005143D02*
X017027Y005190D01*
X017033Y005236D01*
X017043Y005282D01*
X017056Y005327D01*
X017074Y005370D01*
X017095Y005412D01*
X017119Y005452D01*
X017147Y005489D01*
X017178Y005524D01*
X017212Y005557D01*
X017248Y005586D01*
X017287Y005612D01*
X017328Y005635D01*
X017371Y005654D01*
X017415Y005670D01*
X017460Y005682D01*
X017506Y005690D01*
X017553Y005694D01*
X017599Y005694D01*
X017646Y005690D01*
X017692Y005682D01*
X017737Y005670D01*
X017781Y005654D01*
X017824Y005635D01*
X017865Y005612D01*
X017904Y005586D01*
X017940Y005557D01*
X017974Y005524D01*
X018005Y005489D01*
X018033Y005452D01*
X018057Y005412D01*
X018078Y005370D01*
X018096Y005327D01*
X018109Y005282D01*
X018119Y005236D01*
X018125Y005190D01*
X018127Y005143D01*
X018125Y005096D01*
X018119Y005050D01*
X018109Y005004D01*
X018096Y004959D01*
X018078Y004916D01*
X018057Y004874D01*
X018033Y004834D01*
X018005Y004797D01*
X017974Y004762D01*
X017940Y004729D01*
X017904Y004700D01*
X017865Y004674D01*
X017824Y004651D01*
X017781Y004632D01*
X017737Y004616D01*
X017692Y004604D01*
X017646Y004596D01*
X017599Y004592D01*
X017553Y004592D01*
X017506Y004596D01*
X017460Y004604D01*
X017415Y004616D01*
X017371Y004632D01*
X017328Y004651D01*
X017287Y004674D01*
X017248Y004700D01*
X017212Y004729D01*
X017178Y004762D01*
X017147Y004797D01*
X017119Y004834D01*
X017095Y004874D01*
X017074Y004916D01*
X017056Y004959D01*
X017043Y005004D01*
X017033Y005050D01*
X017027Y005096D01*
X017025Y005143D01*
X017025Y010143D02*
X017027Y010190D01*
X017033Y010236D01*
X017043Y010282D01*
X017056Y010327D01*
X017074Y010370D01*
X017095Y010412D01*
X017119Y010452D01*
X017147Y010489D01*
X017178Y010524D01*
X017212Y010557D01*
X017248Y010586D01*
X017287Y010612D01*
X017328Y010635D01*
X017371Y010654D01*
X017415Y010670D01*
X017460Y010682D01*
X017506Y010690D01*
X017553Y010694D01*
X017599Y010694D01*
X017646Y010690D01*
X017692Y010682D01*
X017737Y010670D01*
X017781Y010654D01*
X017824Y010635D01*
X017865Y010612D01*
X017904Y010586D01*
X017940Y010557D01*
X017974Y010524D01*
X018005Y010489D01*
X018033Y010452D01*
X018057Y010412D01*
X018078Y010370D01*
X018096Y010327D01*
X018109Y010282D01*
X018119Y010236D01*
X018125Y010190D01*
X018127Y010143D01*
X018125Y010096D01*
X018119Y010050D01*
X018109Y010004D01*
X018096Y009959D01*
X018078Y009916D01*
X018057Y009874D01*
X018033Y009834D01*
X018005Y009797D01*
X017974Y009762D01*
X017940Y009729D01*
X017904Y009700D01*
X017865Y009674D01*
X017824Y009651D01*
X017781Y009632D01*
X017737Y009616D01*
X017692Y009604D01*
X017646Y009596D01*
X017599Y009592D01*
X017553Y009592D01*
X017506Y009596D01*
X017460Y009604D01*
X017415Y009616D01*
X017371Y009632D01*
X017328Y009651D01*
X017287Y009674D01*
X017248Y009700D01*
X017212Y009729D01*
X017178Y009762D01*
X017147Y009797D01*
X017119Y009834D01*
X017095Y009874D01*
X017074Y009916D01*
X017056Y009959D01*
X017043Y010004D01*
X017033Y010050D01*
X017027Y010096D01*
X017025Y010143D01*
X017025Y015143D02*
X017027Y015190D01*
X017033Y015236D01*
X017043Y015282D01*
X017056Y015327D01*
X017074Y015370D01*
X017095Y015412D01*
X017119Y015452D01*
X017147Y015489D01*
X017178Y015524D01*
X017212Y015557D01*
X017248Y015586D01*
X017287Y015612D01*
X017328Y015635D01*
X017371Y015654D01*
X017415Y015670D01*
X017460Y015682D01*
X017506Y015690D01*
X017553Y015694D01*
X017599Y015694D01*
X017646Y015690D01*
X017692Y015682D01*
X017737Y015670D01*
X017781Y015654D01*
X017824Y015635D01*
X017865Y015612D01*
X017904Y015586D01*
X017940Y015557D01*
X017974Y015524D01*
X018005Y015489D01*
X018033Y015452D01*
X018057Y015412D01*
X018078Y015370D01*
X018096Y015327D01*
X018109Y015282D01*
X018119Y015236D01*
X018125Y015190D01*
X018127Y015143D01*
X018125Y015096D01*
X018119Y015050D01*
X018109Y015004D01*
X018096Y014959D01*
X018078Y014916D01*
X018057Y014874D01*
X018033Y014834D01*
X018005Y014797D01*
X017974Y014762D01*
X017940Y014729D01*
X017904Y014700D01*
X017865Y014674D01*
X017824Y014651D01*
X017781Y014632D01*
X017737Y014616D01*
X017692Y014604D01*
X017646Y014596D01*
X017599Y014592D01*
X017553Y014592D01*
X017506Y014596D01*
X017460Y014604D01*
X017415Y014616D01*
X017371Y014632D01*
X017328Y014651D01*
X017287Y014674D01*
X017248Y014700D01*
X017212Y014729D01*
X017178Y014762D01*
X017147Y014797D01*
X017119Y014834D01*
X017095Y014874D01*
X017074Y014916D01*
X017056Y014959D01*
X017043Y015004D01*
X017033Y015050D01*
X017027Y015096D01*
X017025Y015143D01*
D11*
X015826Y018643D03*
X015076Y021143D03*
X016076Y021643D03*
X015076Y024143D03*
X016076Y024643D03*
X017576Y024643D03*
X018576Y024643D03*
X019576Y023393D03*
X020826Y023393D03*
X021826Y023393D03*
X021826Y026393D03*
X021576Y027643D03*
X020826Y026393D03*
X020576Y027643D03*
X019576Y026393D03*
X020576Y030643D03*
X020826Y031643D03*
X021576Y030643D03*
X021826Y031643D03*
X021826Y034643D03*
X020826Y034643D03*
X019826Y032893D03*
X016826Y032893D03*
X015076Y033393D03*
X015076Y035393D03*
X013076Y025143D03*
X014076Y023143D03*
X011076Y023143D03*
X009326Y023393D03*
X009326Y024393D03*
X009326Y025393D03*
X009326Y022393D03*
X008076Y020143D03*
X009576Y018643D03*
X010826Y016893D03*
X009826Y013893D03*
X010826Y012893D03*
X012826Y013893D03*
X013826Y012893D03*
X013826Y016893D03*
X017576Y021643D03*
X018576Y021643D03*
X018076Y020143D03*
X018826Y018643D03*
X019826Y018643D03*
X020826Y018643D03*
X021826Y018643D03*
X021826Y015643D03*
X020826Y015643D03*
X019826Y015643D03*
X019826Y014893D03*
X019826Y011893D03*
X019826Y009143D03*
X020826Y009143D03*
X021826Y007893D03*
X021826Y007143D03*
X020826Y006143D03*
X019826Y006143D03*
X021826Y004143D03*
X021826Y010893D03*
X006576Y018643D03*
X006326Y022393D03*
X006326Y023393D03*
X006326Y024393D03*
X006326Y025393D03*
X005326Y024393D03*
X004326Y024393D03*
X003076Y024393D03*
X003076Y027393D03*
X004326Y027393D03*
X005326Y027393D03*
X004326Y029893D03*
X003076Y029893D03*
X003076Y032893D03*
X004326Y032893D03*
X006076Y040643D03*
X007076Y041393D03*
X005076Y041393D03*
X009076Y040643D03*
D12*
X007576Y017080D03*
X007576Y013813D03*
X007576Y012978D03*
X007576Y012080D03*
X007576Y008813D03*
X007576Y007978D03*
X007576Y007309D03*
X007576Y006474D03*
X007576Y003206D03*
X012576Y003206D03*
X012576Y006474D03*
X012576Y007309D03*
X012576Y007978D03*
X012576Y008813D03*
X012576Y012080D03*
X017576Y012080D03*
X017576Y012978D03*
X017576Y013813D03*
X017576Y017080D03*
X017576Y008813D03*
X017576Y007978D03*
X017576Y007309D03*
X017576Y006474D03*
X017576Y003206D03*
D13*
X017576Y005143D03*
X017576Y010143D03*
X017576Y015143D03*
X012576Y010143D03*
X012576Y005143D03*
X007576Y005143D03*
X007576Y010143D03*
X007576Y015143D03*
D14*
X007576Y027191D03*
X006591Y027191D03*
X008560Y027191D03*
X008560Y034691D03*
X007576Y034691D03*
X006591Y034691D03*
X016591Y034691D03*
X017576Y034691D03*
X018560Y034691D03*
X018560Y027191D03*
X017576Y027191D03*
X016591Y027191D03*
D15*
X015804Y030143D03*
X019347Y030143D03*
X019347Y037643D03*
X015804Y037643D03*
X009347Y037643D03*
X005804Y037643D03*
X005804Y030143D03*
X009347Y030143D03*
D16*
X012576Y021993D03*
X012576Y020143D03*
X012576Y018293D03*
D17*
X012326Y015903D02*
X012326Y015383D01*
X011326Y015383D02*
X011326Y015903D01*
X013326Y015903D02*
X013326Y015383D01*
X014441Y024893D02*
X014961Y024893D01*
X014961Y025893D02*
X014441Y025893D01*
X014441Y026893D02*
X014961Y026893D01*
X014336Y028393D02*
X013816Y028393D01*
X013816Y029393D02*
X014336Y029393D01*
X014336Y030393D02*
X013816Y030393D01*
X013816Y031393D02*
X014336Y031393D01*
X014336Y032393D02*
X013816Y032393D01*
X013816Y033393D02*
X014336Y033393D01*
X014336Y034393D02*
X013816Y034393D01*
X013816Y035393D02*
X014336Y035393D01*
X014336Y036393D02*
X013816Y036393D01*
X013816Y037393D02*
X014336Y037393D01*
X014336Y038393D02*
X013816Y038393D01*
X013816Y039393D02*
X014336Y039393D01*
X014336Y040393D02*
X013816Y040393D01*
X013816Y041393D02*
X014336Y041393D01*
X011336Y041393D02*
X010816Y041393D01*
X010816Y040393D02*
X011336Y040393D01*
X011336Y039393D02*
X010816Y039393D01*
X010816Y038393D02*
X011336Y038393D01*
X011336Y037393D02*
X010816Y037393D01*
X010816Y036393D02*
X011336Y036393D01*
X011336Y035393D02*
X010816Y035393D01*
X010816Y034393D02*
X011336Y034393D01*
X011336Y033393D02*
X010816Y033393D01*
X010816Y032393D02*
X011336Y032393D01*
X011336Y031393D02*
X010816Y031393D01*
X010816Y030393D02*
X011336Y030393D01*
X011336Y029393D02*
X010816Y029393D01*
X010816Y028393D02*
X011336Y028393D01*
X019951Y022278D02*
X019951Y021758D01*
X019951Y020153D02*
X019951Y019633D01*
X020951Y019633D02*
X020951Y020153D01*
X021951Y020153D02*
X021951Y019633D01*
X021951Y021758D02*
X021951Y022278D01*
X020951Y022278D02*
X020951Y021758D01*
X021066Y014393D02*
X021586Y014393D01*
X021586Y013393D02*
X021066Y013393D01*
X021066Y012393D02*
X021586Y012393D01*
D18*
X010076Y032393D03*
X010076Y033393D03*
X010076Y034393D03*
X016076Y041393D03*
X017076Y041393D03*
X018076Y041393D03*
X021826Y041393D03*
X021826Y040393D03*
X021826Y039393D03*
X021826Y038393D03*
X021826Y037393D03*
X021826Y036393D03*
X005326Y011393D03*
X004576Y010143D03*
X004576Y008143D03*
X003326Y008143D03*
X003326Y010143D03*
X003326Y011393D03*
X003826Y012893D03*
X003826Y013893D03*
X003826Y014893D03*
X003826Y015893D03*
X003826Y016893D03*
X003826Y017893D03*
X003826Y018893D03*
X003826Y019893D03*
X004826Y019893D03*
X004826Y018893D03*
X004826Y017893D03*
X004826Y016893D03*
X004826Y015893D03*
X004826Y014893D03*
X004826Y013893D03*
X004826Y012893D03*
X003701Y036143D03*
X003701Y037143D03*
X003701Y038143D03*
X003701Y039143D03*
X003701Y040143D03*
X003701Y041143D03*
D19*
X003326Y007143D03*
X004326Y007143D03*
X005326Y007143D03*
X005326Y003143D03*
X004326Y003143D03*
X003326Y003143D03*
D20*
X003326Y022143D03*
X005326Y022143D03*
D21*
X007076Y020143D03*
X012076Y025143D03*
X017076Y020143D03*
D22*
X019076Y041393D03*
M02*
