%
M48
M72
T01C0.0236
T02C0.0315
T03C0.0320
T04C0.0394
T05C0.0400
T06C0.0787
T07C0.0790
T08C0.0866
T09C0.1102
%
T01
X9180Y3893
X7930Y10143
X12680Y15143
X21430Y11893
X29430Y14893
X24430Y18143
X22930Y18143
X30930Y9893
X29680Y6643
X28680Y5393
X29680Y4893
X29180Y3143
X25930Y2893
X21430Y5393
X23430Y5893
X23430Y6893
T02
X29930Y12893
X30930Y12893
X31930Y12893
X8930Y17643
X7680Y18393
X7680Y19643
X8930Y19643
X5680Y19643
X5680Y18393
T03
X680Y1893
X3680Y1893
X4180Y2393
X3680Y3393
X6680Y3393
X7180Y2393
X8180Y2143
X8930Y1643
X8180Y1143
X7180Y1143
X10180Y1643
X10180Y3143
X13180Y3143
X13680Y2143
X13180Y1643
X13680Y1143
X16680Y1143
X17680Y1143
X18430Y1643
X19180Y1643
X19930Y1143
X20930Y1143
X20930Y2143
X19930Y2143
X20930Y3393
X22180Y4393
X22180Y5393
X22180Y6893
X23180Y7643
X23930Y8143
X23180Y8643
X22180Y7893
X20680Y8893
X19180Y7893
X19180Y6893
X17680Y5893
X19180Y5393
X19180Y4393
X17680Y4893
X16180Y3893
X16680Y2143
X17680Y2143
X23930Y2143
X25180Y2143
X25180Y1143
X23930Y1143
X23930Y3393
X28180Y2143
X29180Y2143
X29180Y1143
X28180Y1143
X30930Y3143
X32180Y2143
X32180Y1143
X33680Y1143
X33680Y2143
X36680Y2143
X36680Y1143
X30930Y6143
X30930Y7893
X30930Y8893
X29930Y8893
X28930Y8893
X27930Y8893
X26930Y8893
X25930Y8893
X22680Y9893
X22680Y10893
X20680Y11893
X20930Y13643
X19930Y13643
X21930Y13643
X22930Y13643
X25930Y11893
X26930Y11893
X27930Y11893
X28930Y11893
X29930Y11893
X30930Y11893
X31930Y11893
X32930Y11893
X33930Y11893
X34930Y11893
X35930Y11893
X36930Y11893
X37930Y11893
X38930Y11893
X38180Y13893
X38930Y15893
X38180Y16893
X38930Y17893
X32680Y19893
X31180Y19143
X29680Y19893
X28930Y19893
X28930Y18643
X25930Y18643
X24930Y18643
X24930Y17643
X22930Y16643
X21930Y16643
X20930Y16643
X19930Y16643
X19680Y17643
X21930Y17643
X21930Y18643
X21930Y19893
X19680Y19643
X24930Y19893
X25930Y19893
X31180Y16143
X31930Y8893
X32930Y8893
X33930Y8893
X34930Y8893
X35930Y8893
X36930Y8893
X37930Y8893
X38930Y8893
X32930Y7893
X17680Y14893
X17680Y15893
X15680Y16393
X15680Y13393
X14430Y12143
X13180Y11143
X12430Y10643
X13180Y10143
X14430Y9143
X11430Y10143
X10430Y9143
X10430Y12143
X11430Y13143
X16180Y6893
X4180Y1143
T04
X24727Y4409
X24727Y5393
X24727Y6378
X32227Y6378
X32227Y5393
X32227Y4409
X32227Y14409
X32227Y15393
X32227Y16378
X24727Y16378
X24727Y15393
X24727Y14409
X4680Y17643
X4680Y18643
X4680Y19643
X680Y19643
X680Y18643
X680Y17643
T05
X10430Y18143
X11430Y18143
X12430Y18143
X13430Y18143
X14430Y18143
X15430Y18143
X16430Y18143
X17430Y18143
X17430Y19143
X16430Y19143
X15430Y19143
X14430Y19143
X13430Y19143
X12430Y19143
X11430Y19143
X10430Y19143
X33680Y19143
X34680Y19143
X35680Y19143
X36680Y19143
X37680Y19143
X38680Y19143
T06
X35180Y17165
X35180Y13622
X27680Y13622
X27680Y17165
X27680Y7165
X27680Y3622
X35180Y3622
X35180Y7165
T07
X38180Y1893
T08
X19530Y10393
X17680Y10393
X15830Y10393
T09
X12129Y6889
X11223Y5039
X9412Y5000
X7129Y6889
X6223Y5039
X4412Y5000
X2129Y6889
X1223Y5039
X8231Y8897
X9137Y10748
X5948Y10787
X4412Y10000
X2129Y11889
X1223Y10039
X8231Y13897
X9137Y15748
X10948Y15787
X13231Y13897
X14137Y15748
X5948Y15787
X4412Y15000
X2129Y16889
X1223Y15039
X14412Y5000
M30
