G75*
G70*
%OFA0B0*%
%FSLAX24Y24*%
%IPPOS*%
%LPD*%
%AMOC8*
5,1,8,0,0,1.08239X$1,22.5*
%
%ADD10C,0.0000*%
%ADD11C,0.0560*%
%ADD12OC8,0.0560*%
%ADD13OC8,0.1422*%
%ADD14C,0.0760*%
%ADD15OC8,0.1107*%
%ADD16OC8,0.1186*%
%ADD17C,0.0560*%
%ADD18C,0.0555*%
%ADD19C,0.0740*%
%ADD20C,0.0780*%
%ADD21OC8,0.0740*%
%ADD22C,0.0750*%
%ADD23OC8,0.0750*%
%ADD24OC8,0.1240*%
%ADD25C,0.0160*%
%ADD26C,0.0240*%
%ADD27C,0.0120*%
%ADD28R,0.0356X0.0356*%
D10*
X000180Y000393D02*
X039550Y000393D01*
X039550Y020275D01*
X000180Y020275D01*
X000180Y000393D01*
D11*
X019930Y013643D03*
X020930Y013643D03*
X021930Y013643D03*
X022930Y013643D03*
X022930Y016643D03*
X021930Y016643D03*
X020930Y016643D03*
X019930Y016643D03*
X025930Y018643D03*
X028930Y018643D03*
X031180Y019143D03*
X031180Y016143D03*
X033680Y002143D03*
X033680Y001143D03*
X036680Y001143D03*
X036680Y002143D03*
D12*
X032180Y002143D03*
X032180Y001143D03*
X029180Y001143D03*
X028180Y001143D03*
X028180Y002143D03*
X029180Y002143D03*
X025180Y002143D03*
X023930Y002143D03*
X023930Y001143D03*
X025180Y001143D03*
X023930Y003393D03*
X022180Y004393D03*
X022180Y005393D03*
X022180Y006893D03*
X023180Y007643D03*
X023930Y008143D03*
X023180Y008643D03*
X022180Y007893D03*
X020680Y008893D03*
X019180Y007893D03*
X019180Y006893D03*
X017680Y005893D03*
X019180Y005393D03*
X019180Y004393D03*
X017680Y004893D03*
X016180Y003893D03*
X013180Y003143D03*
X013680Y002143D03*
X013180Y001643D03*
X013680Y001143D03*
X016680Y001143D03*
X017680Y001143D03*
X018430Y001643D03*
X019180Y001643D03*
X019930Y001143D03*
X020930Y001143D03*
X020930Y002143D03*
X019930Y002143D03*
X020930Y003393D03*
X017680Y002143D03*
X016680Y002143D03*
X010180Y001643D03*
X008930Y001643D03*
X008180Y001143D03*
X007180Y001143D03*
X008180Y002143D03*
X007180Y002393D03*
X006680Y003393D03*
X004180Y002393D03*
X003680Y001893D03*
X004180Y001143D03*
X003680Y003393D03*
X000680Y001893D03*
X010180Y003143D03*
X016180Y006893D03*
X014430Y009143D03*
X013180Y010143D03*
X012430Y010643D03*
X013180Y011143D03*
X014430Y012143D03*
X015680Y013393D03*
X017680Y014893D03*
X017680Y015893D03*
X015680Y016393D03*
X011430Y013143D03*
X010430Y012143D03*
X011430Y010143D03*
X010430Y009143D03*
X020680Y011893D03*
X022680Y010893D03*
X022680Y009893D03*
X030930Y007893D03*
X032930Y007893D03*
X038180Y013893D03*
X038930Y015893D03*
X038180Y016893D03*
X038930Y017893D03*
X032680Y019893D03*
X029680Y019893D03*
X028930Y019893D03*
X025930Y019893D03*
X024930Y019893D03*
X024930Y018643D03*
X021930Y018643D03*
X021930Y019893D03*
D13*
X014137Y015748D03*
X013231Y013897D03*
X010948Y015787D03*
X009137Y015748D03*
X008231Y013897D03*
X005948Y015787D03*
X004412Y015000D03*
X002129Y016889D03*
X001223Y015039D03*
X002129Y011889D03*
X001223Y010039D03*
X004412Y010000D03*
X005948Y010787D03*
X008231Y008897D03*
X009137Y010748D03*
X007129Y006889D03*
X006223Y005039D03*
X004412Y005000D03*
X002129Y006889D03*
X001223Y005039D03*
X009412Y005000D03*
X011223Y005039D03*
X012129Y006889D03*
X014412Y005000D03*
D14*
X024727Y005393D03*
X024727Y004409D03*
X024727Y006378D03*
X032227Y006378D03*
X032227Y005393D03*
X032227Y004409D03*
X032227Y014409D03*
X032227Y015393D03*
X032227Y016378D03*
X024727Y016378D03*
X024727Y015393D03*
X024727Y014409D03*
D15*
X027680Y013622D03*
X027680Y017165D03*
X035180Y017165D03*
X035180Y013622D03*
X035180Y007165D03*
X035180Y003622D03*
X027680Y003622D03*
X027680Y007165D03*
D16*
X019530Y010393D03*
X017680Y010393D03*
X015830Y010393D03*
D17*
X025930Y009173D02*
X025930Y008613D01*
X026930Y008613D02*
X026930Y009173D01*
X027930Y009173D02*
X027930Y008613D01*
X028930Y008613D02*
X028930Y009173D01*
X029930Y009173D02*
X029930Y008613D01*
X030930Y008613D02*
X030930Y009173D01*
X031930Y009173D02*
X031930Y008613D01*
X032930Y008613D02*
X032930Y009173D01*
X033930Y009173D02*
X033930Y008613D01*
X034930Y008613D02*
X034930Y009173D01*
X035930Y009173D02*
X035930Y008613D01*
X036930Y008613D02*
X036930Y009173D01*
X037930Y009173D02*
X037930Y008613D01*
X038930Y008613D02*
X038930Y009173D01*
X038930Y011613D02*
X038930Y012173D01*
X037930Y012173D02*
X037930Y011613D01*
X036930Y011613D02*
X036930Y012173D01*
X035930Y012173D02*
X035930Y011613D01*
X034930Y011613D02*
X034930Y012173D01*
X033930Y012173D02*
X033930Y011613D01*
X032930Y011613D02*
X032930Y012173D01*
X031930Y012173D02*
X031930Y011613D01*
X030930Y011613D02*
X030930Y012173D01*
X029930Y012173D02*
X029930Y011613D01*
X028930Y011613D02*
X028930Y012173D01*
X027930Y012173D02*
X027930Y011613D01*
X026930Y011613D02*
X026930Y012173D01*
X025930Y012173D02*
X025930Y011613D01*
D18*
X029930Y012893D03*
X030930Y012893D03*
X031930Y012893D03*
D19*
X033680Y019143D03*
X034680Y019143D03*
X035680Y019143D03*
X036680Y019143D03*
X037680Y019143D03*
X038680Y019143D03*
X008930Y019643D03*
X007680Y019643D03*
X007680Y018393D03*
X008930Y017643D03*
X005680Y018393D03*
X005680Y019643D03*
D20*
X004680Y019643D03*
X004680Y018643D03*
X004680Y017643D03*
X000680Y017643D03*
X000680Y018643D03*
X000680Y019643D03*
D21*
X010430Y019143D03*
X011430Y019143D03*
X012430Y019143D03*
X013430Y019143D03*
X014430Y019143D03*
X015430Y019143D03*
X016430Y019143D03*
X017430Y019143D03*
X017430Y018143D03*
X016430Y018143D03*
X015430Y018143D03*
X014430Y018143D03*
X013430Y018143D03*
X012430Y018143D03*
X011430Y018143D03*
X010430Y018143D03*
D22*
X019680Y017643D03*
D23*
X019680Y019643D03*
D24*
X038180Y001893D03*
D25*
X038260Y001820D02*
X039350Y001820D01*
X039350Y001978D02*
X038980Y001978D01*
X038980Y001973D02*
X038980Y002225D01*
X038511Y002693D01*
X038260Y002693D01*
X038260Y001973D01*
X038980Y001973D01*
X038980Y001813D02*
X038260Y001813D01*
X038260Y001093D01*
X038511Y001093D01*
X038980Y001562D01*
X038980Y001813D01*
X038980Y001661D02*
X039350Y001661D01*
X039350Y001503D02*
X038921Y001503D01*
X038762Y001344D02*
X039350Y001344D01*
X039350Y001186D02*
X038604Y001186D01*
X038260Y001186D02*
X038100Y001186D01*
X038100Y001093D02*
X037849Y001093D01*
X037380Y001562D01*
X037380Y001813D01*
X038100Y001813D01*
X038260Y001813D01*
X038260Y001973D01*
X038100Y001973D01*
X038100Y001813D01*
X038100Y001093D01*
X038100Y001344D02*
X038260Y001344D01*
X038260Y001503D02*
X038100Y001503D01*
X038100Y001661D02*
X038260Y001661D01*
X038100Y001820D02*
X037035Y001820D01*
X037087Y001871D02*
X036952Y001736D01*
X036775Y001663D01*
X036585Y001663D01*
X036408Y001736D01*
X036273Y001871D01*
X036200Y002048D01*
X036200Y002239D01*
X036273Y002415D01*
X036408Y002550D01*
X036585Y002623D01*
X036775Y002623D01*
X036952Y002550D01*
X037087Y002415D01*
X037160Y002239D01*
X037160Y002048D01*
X037087Y001871D01*
X037131Y001978D02*
X037380Y001978D01*
X037380Y001973D02*
X038100Y001973D01*
X038100Y002693D01*
X037849Y002693D01*
X037380Y002225D01*
X037380Y001973D01*
X037380Y002137D02*
X037160Y002137D01*
X037137Y002295D02*
X037451Y002295D01*
X037609Y002454D02*
X037048Y002454D01*
X036802Y002612D02*
X037768Y002612D01*
X038100Y002612D02*
X038260Y002612D01*
X038260Y002454D02*
X038100Y002454D01*
X038100Y002295D02*
X038260Y002295D01*
X038260Y002137D02*
X038100Y002137D01*
X038100Y001978D02*
X038260Y001978D01*
X038751Y002454D02*
X039350Y002454D01*
X039350Y002612D02*
X038592Y002612D01*
X038909Y002295D02*
X039350Y002295D01*
X039350Y002137D02*
X038980Y002137D01*
X039350Y002771D02*
X033175Y002771D01*
X033017Y002612D02*
X033558Y002612D01*
X033585Y002623D02*
X033408Y002550D01*
X033273Y002415D01*
X033200Y002239D01*
X033200Y002048D01*
X033273Y001871D01*
X033408Y001736D01*
X033585Y001663D01*
X033775Y001663D01*
X033952Y001736D01*
X034087Y001871D01*
X034160Y002048D01*
X034160Y002239D01*
X034087Y002415D01*
X033952Y002550D01*
X033775Y002623D01*
X033585Y002623D01*
X033802Y002612D02*
X036558Y002612D01*
X036312Y002454D02*
X034048Y002454D01*
X034137Y002295D02*
X036223Y002295D01*
X036200Y002137D02*
X034160Y002137D01*
X034131Y001978D02*
X036229Y001978D01*
X036325Y001820D02*
X034035Y001820D01*
X033952Y001550D02*
X033775Y001623D01*
X033585Y001623D01*
X033408Y001550D01*
X033273Y001415D01*
X033200Y001239D01*
X033200Y001048D01*
X033273Y000871D01*
X033408Y000736D01*
X033585Y000663D01*
X033775Y000663D01*
X033952Y000736D01*
X034087Y000871D01*
X034160Y001048D01*
X034160Y001239D01*
X034087Y001415D01*
X033952Y001550D01*
X033999Y001503D02*
X036392Y001503D01*
X036380Y001494D02*
X036329Y001443D01*
X036287Y001384D01*
X036254Y001320D01*
X036231Y001251D01*
X036220Y001180D01*
X036220Y001143D01*
X036220Y001107D01*
X036231Y001036D01*
X036254Y000967D01*
X036287Y000902D01*
X036329Y000844D01*
X036380Y000792D01*
X036439Y000750D01*
X036503Y000717D01*
X036572Y000695D01*
X036644Y000683D01*
X036680Y000683D01*
X036716Y000683D01*
X036788Y000695D01*
X036857Y000717D01*
X036921Y000750D01*
X036980Y000792D01*
X037031Y000844D01*
X037073Y000902D01*
X037106Y000967D01*
X037129Y001036D01*
X037140Y001107D01*
X037140Y001143D01*
X036680Y001143D01*
X036680Y000683D01*
X036680Y001143D01*
X036680Y001143D01*
X036680Y001143D01*
X036220Y001143D01*
X036680Y001143D01*
X036680Y001143D01*
X037140Y001143D01*
X037140Y001180D01*
X037129Y001251D01*
X037106Y001320D01*
X037073Y001384D01*
X037031Y001443D01*
X036980Y001494D01*
X036921Y001537D01*
X036857Y001570D01*
X036788Y001592D01*
X036716Y001603D01*
X036680Y001603D01*
X036644Y001603D01*
X036572Y001592D01*
X036503Y001570D01*
X036439Y001537D01*
X036380Y001494D01*
X036266Y001344D02*
X034116Y001344D01*
X034160Y001186D02*
X036221Y001186D01*
X036234Y001027D02*
X034151Y001027D01*
X034084Y000869D02*
X036311Y000869D01*
X036524Y000710D02*
X033889Y000710D01*
X033471Y000710D02*
X032426Y000710D01*
X032379Y000663D02*
X031981Y000663D01*
X031700Y000945D01*
X031700Y001342D01*
X031981Y001623D01*
X032379Y001623D01*
X032660Y001342D01*
X032660Y000945D01*
X032379Y000663D01*
X032584Y000869D02*
X033276Y000869D01*
X033208Y001027D02*
X032660Y001027D01*
X032660Y001186D02*
X033200Y001186D01*
X033244Y001344D02*
X032658Y001344D01*
X032499Y001503D02*
X033361Y001503D01*
X033325Y001820D02*
X032535Y001820D01*
X032660Y001945D02*
X032660Y002256D01*
X033400Y002996D01*
X033440Y003092D01*
X033440Y004695D01*
X033400Y004791D01*
X032807Y005384D01*
X032807Y005509D01*
X032719Y005722D01*
X032556Y005885D01*
X032522Y005899D01*
X032592Y005950D01*
X032654Y006013D01*
X032706Y006084D01*
X032746Y006163D01*
X032773Y006246D01*
X032787Y006334D01*
X032787Y006359D01*
X032246Y006359D01*
X032246Y006396D01*
X032787Y006396D01*
X032787Y006422D01*
X032773Y006509D01*
X032746Y006593D01*
X032706Y006671D01*
X032654Y006742D01*
X032592Y006805D01*
X032521Y006857D01*
X032442Y006897D01*
X032358Y006924D01*
X032271Y006938D01*
X032246Y006938D01*
X032246Y006396D01*
X032209Y006396D01*
X032209Y006938D01*
X032183Y006938D01*
X032096Y006924D01*
X032012Y006897D01*
X031934Y006857D01*
X031862Y006805D01*
X031800Y006742D01*
X031748Y006671D01*
X031708Y006593D01*
X031681Y006509D01*
X031667Y006422D01*
X031667Y006396D01*
X032209Y006396D01*
X032209Y006359D01*
X031667Y006359D01*
X031667Y006334D01*
X031681Y006246D01*
X031708Y006163D01*
X031748Y006084D01*
X031800Y006013D01*
X031862Y005950D01*
X031933Y005899D01*
X031899Y005885D01*
X031736Y005722D01*
X031647Y005509D01*
X031647Y005278D01*
X031736Y005065D01*
X031899Y004902D01*
X031900Y004901D01*
X031899Y004901D01*
X031736Y004738D01*
X031647Y004524D01*
X031647Y004294D01*
X031736Y004081D01*
X031899Y003917D01*
X032112Y003829D01*
X032343Y003829D01*
X032556Y003917D01*
X032719Y004081D01*
X032807Y004294D01*
X032807Y004524D01*
X032720Y004736D01*
X032920Y004536D01*
X032920Y003251D01*
X032292Y002623D01*
X031981Y002623D01*
X031700Y002342D01*
X031700Y001945D01*
X031981Y001663D01*
X032379Y001663D01*
X032660Y001945D01*
X032660Y001978D02*
X033229Y001978D01*
X033200Y002137D02*
X032660Y002137D01*
X032700Y002295D02*
X033223Y002295D01*
X033312Y002454D02*
X032858Y002454D01*
X032440Y002771D02*
X028940Y002771D01*
X028981Y002623D02*
X028940Y002582D01*
X028940Y005015D01*
X028941Y005015D01*
X029058Y005132D01*
X029058Y005654D01*
X028941Y005771D01*
X028419Y005771D01*
X028302Y005654D01*
X028302Y005132D01*
X028419Y005015D01*
X028420Y005015D01*
X028420Y002582D01*
X028379Y002623D01*
X027981Y002623D01*
X027700Y002342D01*
X027700Y001945D01*
X027981Y001663D01*
X028379Y001663D01*
X028420Y001705D01*
X028420Y001582D01*
X028379Y001623D01*
X027981Y001623D01*
X027700Y001342D01*
X027700Y000945D01*
X027981Y000663D01*
X028379Y000663D01*
X028660Y000945D01*
X028660Y001006D01*
X028700Y001046D01*
X028700Y000945D01*
X028981Y000663D01*
X029379Y000663D01*
X029660Y000945D01*
X029660Y001342D01*
X029440Y001562D01*
X029440Y001725D01*
X029660Y001945D01*
X029660Y002342D01*
X029379Y002623D01*
X028981Y002623D01*
X028970Y002612D02*
X028940Y002612D01*
X028940Y002929D02*
X032598Y002929D01*
X032757Y003088D02*
X028940Y003088D01*
X028940Y003246D02*
X032915Y003246D01*
X032920Y003405D02*
X028940Y003405D01*
X028940Y003563D02*
X032920Y003563D01*
X032920Y003722D02*
X028940Y003722D01*
X028940Y003880D02*
X031988Y003880D01*
X031777Y004039D02*
X028940Y004039D01*
X028940Y004197D02*
X031687Y004197D01*
X031647Y004356D02*
X028940Y004356D01*
X028940Y004514D02*
X031647Y004514D01*
X031709Y004673D02*
X030558Y004673D01*
X030558Y004632D02*
X030558Y005154D01*
X030500Y005212D01*
X030500Y007011D01*
X030903Y007413D01*
X031129Y007413D01*
X031410Y007695D01*
X031410Y008092D01*
X031249Y008253D01*
X031337Y008341D01*
X031410Y008518D01*
X031410Y009269D01*
X031337Y009445D01*
X031202Y009580D01*
X031025Y009653D01*
X030835Y009653D01*
X030808Y009642D01*
X030808Y010154D01*
X030691Y010271D01*
X030690Y010271D01*
X030690Y011193D01*
X030835Y011133D01*
X031025Y011133D01*
X031202Y011206D01*
X031337Y011341D01*
X031410Y011518D01*
X031410Y012269D01*
X031337Y012445D01*
X031233Y012549D01*
X031279Y012595D01*
X031321Y012654D01*
X031354Y012718D01*
X031376Y012786D01*
X031387Y012857D01*
X031387Y012893D01*
X030930Y012893D01*
X030930Y012893D01*
X031387Y012893D01*
X031387Y012929D01*
X031376Y013000D01*
X031354Y013069D01*
X031321Y013133D01*
X031279Y013191D01*
X031228Y013242D01*
X031170Y013285D01*
X031106Y013317D01*
X031037Y013340D01*
X030966Y013351D01*
X030930Y013351D01*
X030894Y013351D01*
X030823Y013340D01*
X030754Y013317D01*
X030690Y013285D01*
X030690Y013284D01*
X030690Y017786D01*
X031327Y018423D01*
X031400Y018496D01*
X031440Y018592D01*
X031440Y018731D01*
X031452Y018736D01*
X031587Y018871D01*
X031660Y019048D01*
X031660Y019239D01*
X031587Y019415D01*
X031452Y019550D01*
X031275Y019623D01*
X031085Y019623D01*
X030908Y019550D01*
X030773Y019415D01*
X030700Y019239D01*
X030700Y019048D01*
X030773Y018871D01*
X030907Y018738D01*
X030430Y018261D01*
X029900Y018791D01*
X029827Y018864D01*
X029732Y018903D01*
X029342Y018903D01*
X029337Y018915D01*
X029202Y019050D01*
X029025Y019123D01*
X028835Y019123D01*
X028658Y019050D01*
X028523Y018915D01*
X028450Y018739D01*
X028450Y018548D01*
X028523Y018371D01*
X028658Y018236D01*
X028835Y018163D01*
X029025Y018163D01*
X029202Y018236D01*
X029337Y018371D01*
X029342Y018383D01*
X029572Y018383D01*
X030170Y017786D01*
X030170Y013311D01*
X030025Y013371D01*
X029835Y013371D01*
X029660Y013298D01*
X029525Y013164D01*
X029453Y012988D01*
X029453Y012798D01*
X029525Y012623D01*
X029613Y012535D01*
X029523Y012445D01*
X029450Y012269D01*
X029450Y011518D01*
X029523Y011341D01*
X029658Y011206D01*
X029835Y011133D01*
X030025Y011133D01*
X030170Y011193D01*
X030170Y010271D01*
X030169Y010271D01*
X030052Y010154D01*
X030052Y009642D01*
X030025Y009653D01*
X029835Y009653D01*
X029658Y009580D01*
X029523Y009445D01*
X029450Y009269D01*
X029450Y008518D01*
X029523Y008341D01*
X029658Y008206D01*
X029835Y008133D01*
X030025Y008133D01*
X030202Y008206D01*
X030337Y008341D01*
X030410Y008518D01*
X030410Y009269D01*
X030337Y009445D01*
X030267Y009515D01*
X030593Y009515D01*
X030523Y009445D01*
X030450Y009269D01*
X030450Y008518D01*
X030523Y008341D01*
X030611Y008253D01*
X030450Y008092D01*
X030450Y007866D01*
X029999Y007415D01*
X029909Y007325D01*
X029860Y007207D01*
X029860Y005212D01*
X029802Y005154D01*
X029802Y004632D01*
X029919Y004515D01*
X030441Y004515D01*
X030558Y004632D01*
X030558Y004831D02*
X031829Y004831D01*
X031810Y004990D02*
X030558Y004990D01*
X030558Y005148D02*
X031701Y005148D01*
X031647Y005307D02*
X030500Y005307D01*
X030500Y005465D02*
X031647Y005465D01*
X031695Y005624D02*
X030500Y005624D01*
X030500Y005782D02*
X031796Y005782D01*
X031876Y005941D02*
X030500Y005941D01*
X030500Y006099D02*
X031741Y006099D01*
X031679Y006258D02*
X030500Y006258D01*
X030500Y006416D02*
X031667Y006416D01*
X031703Y006575D02*
X030500Y006575D01*
X030500Y006733D02*
X031794Y006733D01*
X032003Y006892D02*
X030500Y006892D01*
X030540Y007050D02*
X034446Y007050D01*
X034446Y007085D02*
X034446Y006861D01*
X034876Y006431D01*
X035100Y006431D01*
X035100Y007085D01*
X034446Y007085D01*
X034446Y007245D02*
X035100Y007245D01*
X035100Y007899D01*
X034876Y007899D01*
X034446Y007469D01*
X034446Y007245D01*
X034446Y007367D02*
X030857Y007367D01*
X030698Y007209D02*
X035100Y007209D01*
X035100Y007245D02*
X035100Y007085D01*
X035260Y007085D01*
X035260Y007245D01*
X035100Y007245D01*
X035100Y007367D02*
X035260Y007367D01*
X035260Y007245D02*
X035260Y007899D01*
X035484Y007899D01*
X035914Y007469D01*
X035914Y007245D01*
X035260Y007245D01*
X035260Y007209D02*
X039350Y007209D01*
X039350Y007367D02*
X035914Y007367D01*
X035857Y007526D02*
X039350Y007526D01*
X039350Y007684D02*
X035698Y007684D01*
X035540Y007843D02*
X039350Y007843D01*
X039350Y008001D02*
X033390Y008001D01*
X033390Y008084D02*
X033219Y008255D01*
X033230Y008262D01*
X033281Y008314D01*
X033323Y008372D01*
X033356Y008437D01*
X033379Y008506D01*
X033390Y008577D01*
X033390Y008893D01*
X032930Y008893D01*
X032930Y007893D01*
X032930Y007433D01*
X033121Y007433D01*
X033390Y007703D01*
X033390Y007893D01*
X032930Y007893D01*
X032930Y007893D01*
X032930Y007433D01*
X032739Y007433D01*
X032470Y007703D01*
X032470Y007893D01*
X032930Y007893D01*
X032930Y007893D01*
X032930Y007893D01*
X033390Y007893D01*
X033390Y008084D01*
X033314Y008160D02*
X033771Y008160D01*
X033835Y008133D02*
X033658Y008206D01*
X033523Y008341D01*
X033450Y008518D01*
X033450Y009269D01*
X033523Y009445D01*
X033658Y009580D01*
X033835Y009653D01*
X034025Y009653D01*
X034202Y009580D01*
X034337Y009445D01*
X034410Y009269D01*
X034410Y008518D01*
X034337Y008341D01*
X034202Y008206D01*
X034025Y008133D01*
X033835Y008133D01*
X034089Y008160D02*
X034771Y008160D01*
X034835Y008133D02*
X035025Y008133D01*
X035202Y008206D01*
X035337Y008341D01*
X035410Y008518D01*
X035410Y009269D01*
X035337Y009445D01*
X035202Y009580D01*
X035025Y009653D01*
X034835Y009653D01*
X034658Y009580D01*
X034523Y009445D01*
X034450Y009269D01*
X034450Y008518D01*
X034523Y008341D01*
X034658Y008206D01*
X034835Y008133D01*
X035089Y008160D02*
X035771Y008160D01*
X035835Y008133D02*
X035658Y008206D01*
X035523Y008341D01*
X035450Y008518D01*
X035450Y009269D01*
X035523Y009445D01*
X035658Y009580D01*
X035835Y009653D01*
X036025Y009653D01*
X036202Y009580D01*
X036337Y009445D01*
X036410Y009269D01*
X036410Y008518D01*
X036337Y008341D01*
X036202Y008206D01*
X036025Y008133D01*
X035835Y008133D01*
X036089Y008160D02*
X036771Y008160D01*
X036835Y008133D02*
X037025Y008133D01*
X037202Y008206D01*
X037337Y008341D01*
X037410Y008518D01*
X037410Y009269D01*
X037337Y009445D01*
X037202Y009580D01*
X037025Y009653D01*
X036835Y009653D01*
X036658Y009580D01*
X036523Y009445D01*
X036450Y009269D01*
X036450Y008518D01*
X036523Y008341D01*
X036658Y008206D01*
X036835Y008133D01*
X037089Y008160D02*
X037771Y008160D01*
X037835Y008133D02*
X037658Y008206D01*
X037523Y008341D01*
X037450Y008518D01*
X037450Y009269D01*
X037523Y009445D01*
X037658Y009580D01*
X037835Y009653D01*
X038025Y009653D01*
X038202Y009580D01*
X038337Y009445D01*
X038410Y009269D01*
X038410Y008518D01*
X038337Y008341D01*
X038202Y008206D01*
X038025Y008133D01*
X037835Y008133D01*
X038089Y008160D02*
X038771Y008160D01*
X038835Y008133D02*
X039025Y008133D01*
X039202Y008206D01*
X039337Y008341D01*
X039350Y008373D01*
X039350Y000593D01*
X010083Y000593D01*
X010451Y000962D01*
X010500Y001080D01*
X010500Y001285D01*
X010660Y001445D01*
X010660Y001842D01*
X010379Y002123D01*
X009981Y002123D01*
X009700Y001842D01*
X009700Y001445D01*
X009860Y001285D01*
X009860Y001276D01*
X009547Y000963D01*
X008660Y000963D01*
X008660Y001235D01*
X008731Y001163D01*
X009129Y001163D01*
X009410Y001445D01*
X009410Y001842D01*
X009129Y002123D01*
X008731Y002123D01*
X008640Y002032D01*
X008640Y002143D01*
X008180Y002143D01*
X008180Y001683D01*
X008371Y001683D01*
X008450Y001763D01*
X008450Y001552D01*
X008379Y001623D01*
X007981Y001623D01*
X007700Y001342D01*
X007700Y000963D01*
X007660Y000963D01*
X007660Y001342D01*
X007440Y001562D01*
X007440Y001975D01*
X007660Y002195D01*
X007660Y002592D01*
X007379Y002873D01*
X007068Y002873D01*
X006953Y002988D01*
X007160Y003195D01*
X007160Y003592D01*
X007119Y003633D01*
X008802Y003633D01*
X008802Y003632D01*
X008919Y003515D01*
X009441Y003515D01*
X009558Y003632D01*
X009558Y004088D01*
X009790Y004088D01*
X010323Y004622D01*
X010323Y005377D01*
X009790Y005911D01*
X009035Y005911D01*
X008501Y005377D01*
X008501Y004622D01*
X008885Y004238D01*
X008802Y004154D01*
X008802Y004153D01*
X006598Y004153D01*
X007114Y004670D01*
X007114Y004959D01*
X006303Y004959D01*
X006303Y005119D01*
X006143Y005119D01*
X006143Y004959D01*
X005332Y004959D01*
X005332Y004670D01*
X005849Y004153D01*
X005626Y004153D01*
X005240Y004539D01*
X005323Y004622D01*
X005323Y005377D01*
X004790Y005911D01*
X004035Y005911D01*
X003690Y005566D01*
X003690Y005786D01*
X004827Y006923D01*
X004900Y006996D01*
X004940Y007092D01*
X004940Y007786D01*
X006538Y009383D01*
X007457Y009383D01*
X007340Y009266D01*
X007340Y008977D01*
X008151Y008977D01*
X008151Y008817D01*
X008311Y008817D01*
X008311Y008006D01*
X008600Y008006D01*
X009122Y008528D01*
X009122Y008817D01*
X008311Y008817D01*
X008311Y008977D01*
X009122Y008977D01*
X009122Y009266D01*
X008600Y009788D01*
X008311Y009788D01*
X008311Y008977D01*
X008151Y008977D01*
X008151Y009765D01*
X008191Y009765D01*
X008308Y009882D01*
X008308Y010316D01*
X008768Y009856D01*
X009057Y009856D01*
X009057Y010668D01*
X008246Y010668D01*
X008246Y010467D01*
X008191Y010521D01*
X007669Y010521D01*
X007552Y010404D01*
X007552Y010133D01*
X007322Y009903D01*
X006378Y009903D01*
X006334Y009885D01*
X006859Y010410D01*
X006859Y010633D01*
X007732Y010633D01*
X007827Y010673D01*
X007900Y010746D01*
X008246Y011091D01*
X008246Y010828D01*
X009057Y010828D01*
X009057Y011639D01*
X008793Y011639D01*
X009038Y011883D01*
X010011Y011883D01*
X010231Y011663D01*
X010629Y011663D01*
X010910Y011945D01*
X010910Y012342D01*
X010629Y012623D01*
X010231Y012623D01*
X010011Y012403D01*
X008878Y012403D01*
X008783Y012364D01*
X008710Y012291D01*
X007572Y011153D01*
X006859Y011153D01*
X006859Y011164D01*
X006325Y011698D01*
X005570Y011698D01*
X005037Y011164D01*
X005037Y010664D01*
X004790Y010911D01*
X004035Y010911D01*
X003501Y010377D01*
X003501Y009622D01*
X004035Y009088D01*
X004152Y009088D01*
X004152Y007483D01*
X002710Y006041D01*
X002670Y005945D01*
X002670Y003342D01*
X002710Y003246D01*
X002783Y003173D01*
X003283Y002673D01*
X003378Y002633D01*
X003741Y002633D01*
X003700Y002592D01*
X003700Y002373D01*
X003481Y002373D01*
X003200Y002092D01*
X003200Y001695D01*
X003481Y001413D01*
X003799Y001413D01*
X003720Y001334D01*
X003720Y001143D01*
X003720Y000963D01*
X001563Y000963D01*
X001000Y001526D01*
X001000Y001535D01*
X001160Y001695D01*
X001160Y002092D01*
X000879Y002373D01*
X000481Y002373D01*
X000380Y002272D01*
X000380Y004622D01*
X000854Y004148D01*
X001143Y004148D01*
X001143Y004959D01*
X001303Y004959D01*
X001303Y004148D01*
X001592Y004148D01*
X002114Y004670D01*
X002114Y004959D01*
X001303Y004959D01*
X001303Y005119D01*
X001143Y005119D01*
X001143Y005930D01*
X000854Y005930D01*
X000380Y005456D01*
X000380Y009622D01*
X000854Y009148D01*
X001143Y009148D01*
X001143Y009959D01*
X001303Y009959D01*
X001303Y009148D01*
X001592Y009148D01*
X002114Y009670D01*
X002114Y009959D01*
X001303Y009959D01*
X001303Y010119D01*
X001143Y010119D01*
X001143Y010930D01*
X000854Y010930D01*
X000380Y010456D01*
X000380Y014622D01*
X000854Y014148D01*
X001143Y014148D01*
X001143Y014959D01*
X001303Y014959D01*
X001303Y014148D01*
X001592Y014148D01*
X002114Y014670D01*
X002114Y014959D01*
X001303Y014959D01*
X001303Y015119D01*
X001143Y015119D01*
X001143Y015930D01*
X000854Y015930D01*
X000380Y015456D01*
X000380Y017157D01*
X000381Y017156D01*
X000461Y017115D01*
X000547Y017087D01*
X000635Y017073D01*
X000662Y017073D01*
X000662Y017625D01*
X000698Y017625D01*
X000698Y017073D01*
X000725Y017073D01*
X000813Y017087D01*
X000899Y017115D01*
X000979Y017156D01*
X001051Y017209D01*
X001115Y017272D01*
X001168Y017345D01*
X001208Y017425D01*
X001236Y017510D01*
X001250Y017598D01*
X001250Y017625D01*
X000698Y017625D01*
X000698Y017662D01*
X000662Y017662D01*
X000662Y018625D01*
X000698Y018625D01*
X000698Y018073D01*
X000698Y017662D01*
X001250Y017662D01*
X001250Y017688D01*
X001236Y017777D01*
X001208Y017862D01*
X001168Y017942D01*
X001115Y018015D01*
X001051Y018078D01*
X000979Y018131D01*
X000954Y018143D01*
X000979Y018156D01*
X001051Y018209D01*
X001115Y018272D01*
X001168Y018345D01*
X001208Y018425D01*
X001236Y018510D01*
X001250Y018598D01*
X001250Y018625D01*
X000698Y018625D01*
X000698Y018662D01*
X000662Y018662D01*
X000662Y019625D01*
X000698Y019625D01*
X000698Y019213D01*
X000698Y018662D01*
X001250Y018662D01*
X001250Y018688D01*
X001236Y018777D01*
X001208Y018862D01*
X001168Y018942D01*
X001115Y019015D01*
X001051Y019078D01*
X000979Y019131D01*
X000954Y019143D01*
X000979Y019156D01*
X001051Y019209D01*
X001115Y019272D01*
X001168Y019345D01*
X001208Y019425D01*
X001236Y019510D01*
X001250Y019598D01*
X001250Y019625D01*
X000698Y019625D01*
X000698Y019662D01*
X001250Y019662D01*
X001250Y019688D01*
X001236Y019777D01*
X001208Y019862D01*
X001168Y019942D01*
X001115Y020015D01*
X001054Y020075D01*
X004278Y020075D01*
X004180Y019978D01*
X004090Y019761D01*
X004090Y019526D01*
X004180Y019309D01*
X004346Y019143D01*
X004180Y018978D01*
X004090Y018761D01*
X004090Y018526D01*
X004180Y018309D01*
X004346Y018143D01*
X004180Y017978D01*
X004090Y017761D01*
X004090Y017526D01*
X004180Y017309D01*
X004346Y017143D01*
X004563Y017053D01*
X004797Y017053D01*
X005014Y017143D01*
X005180Y017309D01*
X005270Y017526D01*
X005270Y017761D01*
X005180Y017978D01*
X005014Y018143D01*
X005122Y018251D01*
X005197Y018070D01*
X005357Y017910D01*
X005567Y017823D01*
X005793Y017823D01*
X006003Y017910D01*
X006163Y018070D01*
X006250Y018280D01*
X006250Y018507D01*
X006163Y018716D01*
X006003Y018877D01*
X005793Y018963D01*
X005567Y018963D01*
X005357Y018877D01*
X005262Y018781D01*
X005180Y018978D01*
X005014Y019143D01*
X005180Y019309D01*
X005191Y019335D01*
X005197Y019320D01*
X005357Y019160D01*
X005567Y019073D01*
X005793Y019073D01*
X006003Y019160D01*
X006010Y019167D01*
X006400Y018777D01*
X006400Y018088D01*
X006443Y017985D01*
X007771Y016656D01*
X007874Y016613D01*
X008742Y016613D01*
X008246Y016117D01*
X008246Y015828D01*
X009057Y015828D01*
X009057Y015668D01*
X009217Y015668D01*
X009217Y015828D01*
X010028Y015828D01*
X010028Y016117D01*
X009531Y016613D01*
X010485Y016613D01*
X010037Y016164D01*
X010037Y015410D01*
X010570Y014876D01*
X011325Y014876D01*
X011859Y015410D01*
X011859Y015527D01*
X011929Y015527D01*
X012302Y015154D01*
X012302Y014882D01*
X012419Y014765D01*
X012839Y014765D01*
X012340Y014266D01*
X012340Y013977D01*
X013151Y013977D01*
X013151Y013817D01*
X013311Y013817D01*
X013311Y013006D01*
X013600Y013006D01*
X014122Y013528D01*
X014122Y013817D01*
X013311Y013817D01*
X013311Y013977D01*
X014122Y013977D01*
X014122Y014266D01*
X013600Y014788D01*
X013311Y014788D01*
X013311Y013977D01*
X013151Y013977D01*
X013151Y014788D01*
X012964Y014788D01*
X013058Y014882D01*
X013058Y015404D01*
X012941Y015521D01*
X012670Y015521D01*
X012257Y015934D01*
X012184Y016007D01*
X012088Y016047D01*
X011859Y016047D01*
X011859Y016164D01*
X011410Y016613D01*
X013742Y016613D01*
X013246Y016117D01*
X013246Y015828D01*
X014057Y015828D01*
X014057Y015668D01*
X014217Y015668D01*
X014217Y015828D01*
X015028Y015828D01*
X015028Y016117D01*
X014531Y016613D01*
X015221Y016613D01*
X015200Y016592D01*
X015200Y016195D01*
X015481Y015913D01*
X015879Y015913D01*
X016160Y016195D01*
X016160Y016592D01*
X016139Y016613D01*
X019450Y016613D01*
X019450Y016548D01*
X019523Y016371D01*
X019658Y016236D01*
X019835Y016163D01*
X020025Y016163D01*
X020202Y016236D01*
X020337Y016371D01*
X020410Y016548D01*
X020410Y016739D01*
X020337Y016915D01*
X020202Y017050D01*
X020025Y017123D01*
X019927Y017123D01*
X020006Y017156D01*
X020167Y017318D01*
X020255Y017529D01*
X020255Y017758D01*
X020167Y017969D01*
X020006Y018131D01*
X019794Y018218D01*
X019566Y018218D01*
X019354Y018131D01*
X019193Y017969D01*
X019105Y017758D01*
X019105Y017529D01*
X019193Y017318D01*
X019337Y017173D01*
X009266Y017173D01*
X009413Y017320D01*
X009500Y017530D01*
X009500Y017757D01*
X009413Y017966D01*
X009253Y018127D01*
X009043Y018213D01*
X008817Y018213D01*
X008607Y018127D01*
X008447Y017966D01*
X008360Y017757D01*
X008360Y017530D01*
X008447Y017320D01*
X008594Y017173D01*
X008046Y017173D01*
X006960Y018259D01*
X006960Y018949D01*
X006917Y019052D01*
X006839Y019131D01*
X006250Y019719D01*
X006250Y019757D01*
X006163Y019966D01*
X006054Y020075D01*
X007306Y020075D01*
X007197Y019966D01*
X007110Y019757D01*
X007110Y019530D01*
X007197Y019320D01*
X007357Y019160D01*
X007567Y019073D01*
X007793Y019073D01*
X008003Y019160D01*
X008163Y019320D01*
X008250Y019530D01*
X008250Y019757D01*
X008163Y019966D01*
X008054Y020075D01*
X008556Y020075D01*
X008447Y019966D01*
X008360Y019757D01*
X008360Y019530D01*
X008447Y019320D01*
X008607Y019160D01*
X008817Y019073D01*
X009043Y019073D01*
X009253Y019160D01*
X009413Y019320D01*
X009500Y019530D01*
X009500Y019757D01*
X009413Y019966D01*
X009304Y020075D01*
X019327Y020075D01*
X019125Y019873D01*
X019125Y019643D01*
X019125Y019413D01*
X017966Y019413D01*
X018000Y019379D02*
X017666Y019713D01*
X017194Y019713D01*
X016930Y019449D01*
X016666Y019713D01*
X016194Y019713D01*
X015930Y019449D01*
X015666Y019713D01*
X015194Y019713D01*
X014930Y019449D01*
X014666Y019713D01*
X014194Y019713D01*
X013916Y019435D01*
X013658Y019693D01*
X013450Y019693D01*
X013450Y019163D01*
X013410Y019163D01*
X013410Y019123D01*
X013450Y019123D01*
X013450Y018593D01*
X013450Y018163D01*
X013410Y018163D01*
X013410Y018123D01*
X013450Y018123D01*
X013450Y017593D01*
X013658Y017593D01*
X013916Y017851D01*
X014194Y017573D01*
X014666Y017573D01*
X014930Y017837D01*
X015194Y017573D01*
X015666Y017573D01*
X015930Y017837D01*
X016194Y017573D01*
X016666Y017573D01*
X016930Y017837D01*
X017194Y017573D01*
X017666Y017573D01*
X018000Y017907D01*
X018000Y018379D01*
X017736Y018643D01*
X018000Y018907D01*
X018000Y019379D01*
X018000Y019255D02*
X019284Y019255D01*
X019442Y019096D02*
X018000Y019096D01*
X018000Y018938D02*
X021546Y018938D01*
X021450Y018842D02*
X021670Y019062D01*
X021670Y019475D01*
X021450Y019695D01*
X021450Y020075D01*
X020033Y020075D01*
X020235Y019873D01*
X020235Y019643D01*
X019680Y019643D01*
X019680Y019088D01*
X019910Y019088D01*
X020235Y019413D01*
X021670Y019413D01*
X021670Y019255D02*
X020076Y019255D01*
X019918Y019096D02*
X021670Y019096D01*
X021450Y018842D02*
X021450Y018445D01*
X021731Y018163D01*
X022129Y018163D01*
X022410Y018445D01*
X022410Y018842D01*
X022190Y019062D01*
X022190Y019475D01*
X022410Y019695D01*
X022410Y020075D01*
X024450Y020075D01*
X024450Y020031D01*
X024033Y019614D01*
X023960Y019541D01*
X023920Y019445D01*
X023920Y015889D01*
X023960Y015793D01*
X024176Y015577D01*
X024147Y015509D01*
X024147Y015278D01*
X024236Y015065D01*
X024399Y014902D01*
X024400Y014901D01*
X024399Y014901D01*
X024236Y014738D01*
X024147Y014524D01*
X024147Y014294D01*
X024236Y014081D01*
X024399Y013917D01*
X024433Y013903D01*
X024038Y013903D01*
X023940Y014001D01*
X023940Y014695D01*
X023900Y014791D01*
X023827Y014864D01*
X023650Y015041D01*
X023577Y015114D01*
X023482Y015153D01*
X018099Y015153D01*
X017879Y015373D01*
X017481Y015373D01*
X017200Y015092D01*
X017200Y014695D01*
X017481Y014413D01*
X017879Y014413D01*
X018099Y014633D01*
X023322Y014633D01*
X023420Y014536D01*
X023420Y013842D01*
X023460Y013746D01*
X023710Y013496D01*
X023783Y013423D01*
X023830Y013403D01*
X023350Y013403D01*
X023410Y013548D01*
X023410Y013739D01*
X023337Y013915D01*
X023202Y014050D01*
X023025Y014123D01*
X022835Y014123D01*
X022658Y014050D01*
X022523Y013915D01*
X022450Y013739D01*
X022450Y013548D01*
X022490Y013451D01*
X022405Y013536D01*
X022410Y013548D01*
X022410Y013739D01*
X022337Y013915D01*
X022202Y014050D01*
X022025Y014123D01*
X021835Y014123D01*
X021658Y014050D01*
X021523Y013915D01*
X021450Y013739D01*
X021450Y013548D01*
X021490Y013451D01*
X021405Y013536D01*
X021410Y013548D01*
X021410Y013739D01*
X021337Y013915D01*
X021202Y014050D01*
X021025Y014123D01*
X020835Y014123D01*
X020658Y014050D01*
X020523Y013915D01*
X020450Y013739D01*
X020450Y013548D01*
X020523Y013371D01*
X020658Y013236D01*
X020835Y013163D01*
X021025Y013163D01*
X021037Y013168D01*
X021460Y012746D01*
X021533Y012673D01*
X021628Y012633D01*
X024322Y012633D01*
X024670Y012286D01*
X024670Y007842D01*
X024710Y007746D01*
X024783Y007673D01*
X025170Y007286D01*
X025170Y006721D01*
X025154Y006742D01*
X025092Y006805D01*
X025021Y006857D01*
X024942Y006897D01*
X024858Y006924D01*
X024771Y006938D01*
X024746Y006938D01*
X024746Y006396D01*
X024709Y006396D01*
X024709Y006938D01*
X024683Y006938D01*
X024596Y006924D01*
X024512Y006897D01*
X024434Y006857D01*
X024362Y006805D01*
X024300Y006742D01*
X024248Y006671D01*
X024208Y006593D01*
X024181Y006509D01*
X024167Y006422D01*
X024167Y006396D01*
X024709Y006396D01*
X024709Y006359D01*
X024167Y006359D01*
X024167Y006334D01*
X024181Y006246D01*
X024208Y006163D01*
X024248Y006084D01*
X024300Y006013D01*
X024362Y005950D01*
X024433Y005899D01*
X024399Y005885D01*
X024236Y005722D01*
X024147Y005509D01*
X024147Y005278D01*
X024236Y005065D01*
X024399Y004902D01*
X024400Y004901D01*
X024399Y004901D01*
X024236Y004738D01*
X024147Y004524D01*
X024147Y004294D01*
X024236Y004081D01*
X024399Y003917D01*
X024612Y003829D01*
X024748Y003829D01*
X024460Y003541D01*
X024420Y003445D01*
X024420Y001842D01*
X024460Y001746D01*
X024533Y001673D01*
X024782Y001424D01*
X024700Y001342D01*
X024700Y000945D01*
X024981Y000663D01*
X025379Y000663D01*
X025660Y000945D01*
X025660Y001342D01*
X025379Y001623D01*
X025318Y001623D01*
X025278Y001663D01*
X025379Y001663D01*
X025660Y001945D01*
X025660Y002342D01*
X025440Y002562D01*
X025440Y003286D01*
X025670Y003516D01*
X025670Y003271D01*
X025669Y003271D01*
X025552Y003154D01*
X025552Y002632D01*
X025669Y002515D01*
X026191Y002515D01*
X026308Y002632D01*
X026308Y003154D01*
X026191Y003271D01*
X026190Y003271D01*
X026190Y007945D01*
X026150Y008041D01*
X026048Y008143D01*
X026202Y008206D01*
X026337Y008341D01*
X026410Y008518D01*
X026410Y009269D01*
X026337Y009445D01*
X026202Y009580D01*
X026025Y009653D01*
X025835Y009653D01*
X025690Y009593D01*
X025690Y011193D01*
X025835Y011133D01*
X026025Y011133D01*
X026202Y011206D01*
X026337Y011341D01*
X026410Y011518D01*
X026410Y012269D01*
X026337Y012445D01*
X026202Y012580D01*
X026025Y012653D01*
X025835Y012653D01*
X025658Y012580D01*
X025523Y012445D01*
X025450Y012269D01*
X025450Y012031D01*
X025440Y012021D01*
X025440Y012695D01*
X025400Y012791D01*
X024827Y013364D01*
X024780Y013383D01*
X025822Y013383D01*
X026642Y012564D01*
X026523Y012445D01*
X026450Y012269D01*
X026450Y011518D01*
X026523Y011341D01*
X026658Y011206D01*
X026835Y011133D01*
X027025Y011133D01*
X027202Y011206D01*
X027337Y011341D01*
X027410Y011518D01*
X027410Y012269D01*
X027363Y012383D01*
X027497Y012383D01*
X027450Y012269D01*
X027450Y011518D01*
X027523Y011341D01*
X027658Y011206D01*
X027835Y011133D01*
X028025Y011133D01*
X028170Y011193D01*
X028170Y010092D01*
X028210Y009996D01*
X028283Y009923D01*
X028642Y009564D01*
X028523Y009445D01*
X028450Y009269D01*
X028450Y008518D01*
X028523Y008341D01*
X028658Y008206D01*
X028835Y008133D01*
X029025Y008133D01*
X029202Y008206D01*
X029337Y008341D01*
X029410Y008518D01*
X029410Y009269D01*
X029337Y009445D01*
X029202Y009580D01*
X029190Y009585D01*
X029190Y009695D01*
X029150Y009791D01*
X028690Y010251D01*
X028690Y011193D01*
X028835Y011133D01*
X029025Y011133D01*
X029202Y011206D01*
X029337Y011341D01*
X029410Y011518D01*
X029410Y012269D01*
X029337Y012445D01*
X029202Y012580D01*
X029025Y012653D01*
X028835Y012653D01*
X028658Y012580D01*
X028634Y012557D01*
X028400Y012791D01*
X028327Y012864D01*
X028232Y012903D01*
X027999Y012903D01*
X028414Y013318D01*
X028414Y013542D01*
X027760Y013542D01*
X027760Y013702D01*
X027600Y013702D01*
X027600Y014355D01*
X027376Y014355D01*
X026946Y013926D01*
X026946Y013702D01*
X027600Y013702D01*
X027600Y013542D01*
X026946Y013542D01*
X026946Y013318D01*
X027361Y012903D01*
X027038Y012903D01*
X026077Y013864D01*
X025982Y013903D01*
X025022Y013903D01*
X025056Y013917D01*
X025219Y014081D01*
X025307Y014294D01*
X025307Y014524D01*
X025219Y014738D01*
X025056Y014901D01*
X025055Y014901D01*
X025056Y014902D01*
X025219Y015065D01*
X025307Y015278D01*
X025307Y015509D01*
X025219Y015722D01*
X025056Y015885D01*
X025022Y015899D01*
X025092Y015950D01*
X025154Y016013D01*
X025206Y016084D01*
X025246Y016163D01*
X025273Y016246D01*
X025287Y016334D01*
X025287Y016359D01*
X024746Y016359D01*
X024746Y016396D01*
X025287Y016396D01*
X025287Y016422D01*
X025273Y016509D01*
X025246Y016593D01*
X025206Y016671D01*
X025154Y016742D01*
X025092Y016805D01*
X025021Y016857D01*
X024942Y016897D01*
X024858Y016924D01*
X024771Y016938D01*
X024746Y016938D01*
X024746Y016396D01*
X024709Y016396D01*
X024709Y016938D01*
X024683Y016938D01*
X024596Y016924D01*
X024512Y016897D01*
X024440Y016860D01*
X024440Y019286D01*
X024649Y019495D01*
X024731Y019413D01*
X025129Y019413D01*
X025410Y019695D01*
X025410Y020075D01*
X025450Y020075D01*
X025450Y019695D01*
X025731Y019413D01*
X026129Y019413D01*
X026410Y019695D01*
X026410Y020075D01*
X027494Y020075D01*
X027460Y020041D01*
X027210Y019791D01*
X027170Y019695D01*
X027170Y018521D01*
X027169Y018521D01*
X027052Y018404D01*
X027052Y017882D01*
X027169Y017765D01*
X027243Y017765D01*
X026946Y017469D01*
X026946Y017245D01*
X027600Y017245D01*
X027600Y017085D01*
X026946Y017085D01*
X026946Y016861D01*
X027376Y016431D01*
X027600Y016431D01*
X027600Y017085D01*
X027760Y017085D01*
X027760Y017245D01*
X028414Y017245D01*
X028414Y017469D01*
X027984Y017899D01*
X027808Y017899D01*
X027808Y018404D01*
X027691Y018521D01*
X027690Y018521D01*
X027690Y019536D01*
X027788Y019633D01*
X028511Y019633D01*
X028731Y019413D01*
X029129Y019413D01*
X029305Y019590D01*
X029481Y019413D01*
X029879Y019413D01*
X030160Y019695D01*
X030160Y020075D01*
X032200Y020075D01*
X032200Y019695D01*
X032481Y019413D01*
X032879Y019413D01*
X033160Y019695D01*
X033160Y020075D01*
X039350Y020075D01*
X039350Y018152D01*
X039129Y018373D01*
X038731Y018373D01*
X038450Y018092D01*
X038450Y017695D01*
X038731Y017413D01*
X039129Y017413D01*
X039350Y017635D01*
X039350Y016152D01*
X039129Y016373D01*
X038731Y016373D01*
X038450Y016092D01*
X038450Y015695D01*
X038731Y015413D01*
X039129Y015413D01*
X039350Y015635D01*
X039350Y012413D01*
X039337Y012445D01*
X039202Y012580D01*
X039025Y012653D01*
X038835Y012653D01*
X038658Y012580D01*
X038523Y012445D01*
X038450Y012269D01*
X038450Y011518D01*
X038523Y011341D01*
X038658Y011206D01*
X038835Y011133D01*
X039025Y011133D01*
X039202Y011206D01*
X039337Y011341D01*
X039350Y011373D01*
X039350Y009413D01*
X039337Y009445D01*
X039202Y009580D01*
X039025Y009653D01*
X038835Y009653D01*
X038658Y009580D01*
X038523Y009445D01*
X038450Y009269D01*
X038450Y008518D01*
X038523Y008341D01*
X038658Y008206D01*
X038835Y008133D01*
X039089Y008160D02*
X039350Y008160D01*
X039350Y008318D02*
X039314Y008318D01*
X038546Y008318D02*
X038314Y008318D01*
X038393Y008477D02*
X038467Y008477D01*
X038450Y008635D02*
X038410Y008635D01*
X038410Y008794D02*
X038450Y008794D01*
X038450Y008952D02*
X038410Y008952D01*
X038410Y009111D02*
X038450Y009111D01*
X038450Y009269D02*
X038410Y009269D01*
X038344Y009428D02*
X038516Y009428D01*
X038673Y009586D02*
X038187Y009586D01*
X037673Y009586D02*
X037187Y009586D01*
X037344Y009428D02*
X037516Y009428D01*
X037450Y009269D02*
X037410Y009269D01*
X037410Y009111D02*
X037450Y009111D01*
X037450Y008952D02*
X037410Y008952D01*
X037410Y008794D02*
X037450Y008794D01*
X037450Y008635D02*
X037410Y008635D01*
X037393Y008477D02*
X037467Y008477D01*
X037546Y008318D02*
X037314Y008318D01*
X036546Y008318D02*
X036314Y008318D01*
X036393Y008477D02*
X036467Y008477D01*
X036450Y008635D02*
X036410Y008635D01*
X036410Y008794D02*
X036450Y008794D01*
X036450Y008952D02*
X036410Y008952D01*
X036410Y009111D02*
X036450Y009111D01*
X036450Y009269D02*
X036410Y009269D01*
X036344Y009428D02*
X036516Y009428D01*
X036673Y009586D02*
X036187Y009586D01*
X035673Y009586D02*
X035187Y009586D01*
X035344Y009428D02*
X035516Y009428D01*
X035450Y009269D02*
X035410Y009269D01*
X035410Y009111D02*
X035450Y009111D01*
X035450Y008952D02*
X035410Y008952D01*
X035410Y008794D02*
X035450Y008794D01*
X035450Y008635D02*
X035410Y008635D01*
X035393Y008477D02*
X035467Y008477D01*
X035546Y008318D02*
X035314Y008318D01*
X035260Y007843D02*
X035100Y007843D01*
X035100Y007684D02*
X035260Y007684D01*
X035260Y007526D02*
X035100Y007526D01*
X034820Y007843D02*
X033390Y007843D01*
X033372Y007684D02*
X034662Y007684D01*
X034503Y007526D02*
X033213Y007526D01*
X032930Y007526D02*
X032930Y007526D01*
X032930Y007684D02*
X032930Y007684D01*
X032930Y007843D02*
X032930Y007843D01*
X032930Y007893D02*
X032470Y007893D01*
X032470Y008084D01*
X032641Y008255D01*
X032630Y008262D01*
X032579Y008314D01*
X032537Y008372D01*
X032504Y008437D01*
X032481Y008506D01*
X032470Y008577D01*
X032470Y008893D01*
X032930Y008893D01*
X032930Y008893D01*
X032930Y008353D01*
X032930Y007893D01*
X032930Y007893D01*
X032930Y008001D02*
X032930Y008001D01*
X032930Y008160D02*
X032930Y008160D01*
X032930Y008318D02*
X032930Y008318D01*
X032930Y008477D02*
X032930Y008477D01*
X032930Y008635D02*
X032930Y008635D01*
X032930Y008794D02*
X032930Y008794D01*
X032930Y008893D02*
X032930Y008893D01*
X032930Y008893D01*
X033390Y008893D01*
X033390Y009210D01*
X033379Y009281D01*
X033356Y009350D01*
X033323Y009414D01*
X033281Y009473D01*
X033230Y009524D01*
X033171Y009567D01*
X033107Y009600D01*
X033038Y009622D01*
X032966Y009633D01*
X032930Y009633D01*
X032894Y009633D01*
X032822Y009622D01*
X032753Y009600D01*
X032750Y009598D01*
X032750Y011011D01*
X032873Y011133D01*
X033025Y011133D01*
X033202Y011206D01*
X033337Y011341D01*
X033410Y011518D01*
X033410Y012269D01*
X033337Y012445D01*
X033202Y012580D01*
X033025Y012653D01*
X032835Y012653D01*
X032658Y012580D01*
X032523Y012445D01*
X032450Y012269D01*
X032450Y011616D01*
X032386Y011552D01*
X032390Y011577D01*
X032390Y011893D01*
X031930Y011893D01*
X031930Y011153D01*
X031966Y011153D01*
X032038Y011165D01*
X032107Y011187D01*
X032110Y011189D01*
X032110Y009776D01*
X031987Y009653D01*
X031835Y009653D01*
X031658Y009580D01*
X031523Y009445D01*
X031450Y009269D01*
X031450Y008518D01*
X031523Y008341D01*
X031658Y008206D01*
X031835Y008133D01*
X032025Y008133D01*
X032202Y008206D01*
X032337Y008341D01*
X032410Y008518D01*
X032410Y009171D01*
X032474Y009235D01*
X032470Y009210D01*
X032470Y008893D01*
X032930Y008893D01*
X032930Y009633D01*
X032930Y008893D01*
X032930Y008893D01*
X032930Y008952D02*
X032930Y008952D01*
X032930Y009111D02*
X032930Y009111D01*
X032930Y009269D02*
X032930Y009269D01*
X032930Y009428D02*
X032930Y009428D01*
X032930Y009586D02*
X032930Y009586D01*
X033133Y009586D02*
X033673Y009586D01*
X033516Y009428D02*
X033314Y009428D01*
X033381Y009269D02*
X033450Y009269D01*
X033450Y009111D02*
X033390Y009111D01*
X033390Y008952D02*
X033450Y008952D01*
X033450Y008794D02*
X033390Y008794D01*
X033390Y008635D02*
X033450Y008635D01*
X033467Y008477D02*
X033369Y008477D01*
X033284Y008318D02*
X033546Y008318D01*
X034314Y008318D02*
X034546Y008318D01*
X034467Y008477D02*
X034393Y008477D01*
X034410Y008635D02*
X034450Y008635D01*
X034450Y008794D02*
X034410Y008794D01*
X034410Y008952D02*
X034450Y008952D01*
X034450Y009111D02*
X034410Y009111D01*
X034410Y009269D02*
X034450Y009269D01*
X034516Y009428D02*
X034344Y009428D01*
X034187Y009586D02*
X034673Y009586D01*
X032750Y009745D02*
X039350Y009745D01*
X039350Y009903D02*
X032750Y009903D01*
X032750Y010062D02*
X039350Y010062D01*
X039350Y010220D02*
X032750Y010220D01*
X032750Y010379D02*
X039350Y010379D01*
X039350Y010537D02*
X032750Y010537D01*
X032750Y010696D02*
X039350Y010696D01*
X039350Y010854D02*
X032750Y010854D01*
X032752Y011013D02*
X039350Y011013D01*
X039350Y011171D02*
X039117Y011171D01*
X039325Y011330D02*
X039350Y011330D01*
X038743Y011171D02*
X038117Y011171D01*
X038202Y011206D02*
X038337Y011341D01*
X038410Y011518D01*
X038410Y012269D01*
X038337Y012445D01*
X038202Y012580D01*
X038025Y012653D01*
X037940Y012653D01*
X037940Y013455D01*
X037981Y013413D01*
X038379Y013413D01*
X038660Y013695D01*
X038660Y014092D01*
X038379Y014373D01*
X037981Y014373D01*
X037940Y014332D01*
X037940Y016455D01*
X037981Y016413D01*
X038379Y016413D01*
X038660Y016695D01*
X038660Y017092D01*
X038379Y017373D01*
X037981Y017373D01*
X037899Y017292D01*
X037827Y017364D01*
X036618Y018573D01*
X036793Y018573D01*
X037003Y018660D01*
X037163Y018820D01*
X037192Y018890D01*
X037210Y018855D01*
X037260Y018785D01*
X037322Y018724D01*
X037392Y018673D01*
X037469Y018634D01*
X037551Y018607D01*
X037637Y018593D01*
X037660Y018593D01*
X037660Y019123D01*
X037700Y019123D01*
X037700Y018593D01*
X037723Y018593D01*
X037809Y018607D01*
X037891Y018634D01*
X037968Y018673D01*
X038038Y018724D01*
X038100Y018785D01*
X038150Y018855D01*
X038180Y018913D01*
X038210Y018855D01*
X038260Y018785D01*
X038322Y018724D01*
X038392Y018673D01*
X038469Y018634D01*
X038551Y018607D01*
X038637Y018593D01*
X038660Y018593D01*
X038660Y019123D01*
X038700Y019123D01*
X038700Y018593D01*
X038723Y018593D01*
X038809Y018607D01*
X038891Y018634D01*
X038968Y018673D01*
X039038Y018724D01*
X039100Y018785D01*
X039150Y018855D01*
X039190Y018932D01*
X039216Y019015D01*
X039230Y019100D01*
X039230Y019123D01*
X038700Y019123D01*
X038700Y019163D01*
X039230Y019163D01*
X039230Y019187D01*
X039216Y019272D01*
X039190Y019354D01*
X039150Y019432D01*
X039100Y019502D01*
X039038Y019563D01*
X038968Y019614D01*
X038891Y019653D01*
X038809Y019680D01*
X038723Y019693D01*
X038700Y019693D01*
X038700Y019163D01*
X038660Y019163D01*
X038660Y019123D01*
X037700Y019123D01*
X037700Y019163D01*
X038130Y019163D01*
X038660Y019163D01*
X038660Y019693D01*
X038637Y019693D01*
X038551Y019680D01*
X038469Y019653D01*
X038392Y019614D01*
X038322Y019563D01*
X038260Y019502D01*
X038210Y019432D01*
X038180Y019374D01*
X038150Y019432D01*
X038100Y019502D01*
X038038Y019563D01*
X037968Y019614D01*
X037891Y019653D01*
X037809Y019680D01*
X037723Y019693D01*
X037700Y019693D01*
X037700Y019163D01*
X037660Y019163D01*
X037660Y019693D01*
X037637Y019693D01*
X037551Y019680D01*
X037469Y019653D01*
X037392Y019614D01*
X037322Y019563D01*
X037260Y019502D01*
X037210Y019432D01*
X037192Y019397D01*
X037163Y019466D01*
X037003Y019627D01*
X036793Y019713D01*
X036567Y019713D01*
X036357Y019627D01*
X036197Y019466D01*
X036180Y019426D01*
X036163Y019466D01*
X036003Y019627D01*
X035793Y019713D01*
X035567Y019713D01*
X035357Y019627D01*
X035197Y019466D01*
X035180Y019426D01*
X035163Y019466D01*
X035003Y019627D01*
X034793Y019713D01*
X034567Y019713D01*
X034357Y019627D01*
X034197Y019466D01*
X034180Y019426D01*
X034163Y019466D01*
X034003Y019627D01*
X033793Y019713D01*
X033567Y019713D01*
X033357Y019627D01*
X033197Y019466D01*
X033110Y019257D01*
X033110Y019030D01*
X033197Y018820D01*
X033357Y018660D01*
X033567Y018573D01*
X033793Y018573D01*
X034003Y018660D01*
X034163Y018820D01*
X034180Y018861D01*
X034197Y018820D01*
X034357Y018660D01*
X034567Y018573D01*
X034793Y018573D01*
X034856Y018599D01*
X036670Y016786D01*
X036670Y012585D01*
X036658Y012580D01*
X036523Y012445D01*
X036450Y012269D01*
X036450Y011518D01*
X036523Y011341D01*
X036658Y011206D01*
X036835Y011133D01*
X037025Y011133D01*
X037202Y011206D01*
X037337Y011341D01*
X037410Y011518D01*
X037410Y012269D01*
X037337Y012445D01*
X037202Y012580D01*
X037190Y012585D01*
X037190Y016945D01*
X037150Y017041D01*
X037077Y017114D01*
X035618Y018573D01*
X035793Y018573D01*
X035856Y018599D01*
X037420Y017036D01*
X037152Y017036D01*
X037077Y017114D02*
X037077Y017114D01*
X036997Y017194D02*
X037261Y017194D01*
X037103Y017353D02*
X036838Y017353D01*
X036944Y017511D02*
X036680Y017511D01*
X036786Y017670D02*
X036521Y017670D01*
X036627Y017828D02*
X036363Y017828D01*
X036469Y017987D02*
X036204Y017987D01*
X036310Y018145D02*
X036046Y018145D01*
X036152Y018304D02*
X035887Y018304D01*
X035993Y018462D02*
X035729Y018462D01*
X035310Y018145D02*
X031050Y018145D01*
X030891Y017987D02*
X035469Y017987D01*
X035484Y017899D02*
X035260Y017899D01*
X035260Y017245D01*
X035100Y017245D01*
X035100Y017899D01*
X034876Y017899D01*
X034446Y017469D01*
X034446Y017245D01*
X035100Y017245D01*
X035100Y017085D01*
X034446Y017085D01*
X034446Y016861D01*
X034876Y016431D01*
X035100Y016431D01*
X035100Y017085D01*
X035260Y017085D01*
X035260Y017245D01*
X035914Y017245D01*
X035914Y017469D01*
X035484Y017899D01*
X035554Y017828D02*
X035627Y017828D01*
X035713Y017670D02*
X035786Y017670D01*
X035871Y017511D02*
X035944Y017511D01*
X035914Y017353D02*
X036103Y017353D01*
X036261Y017194D02*
X035260Y017194D01*
X035260Y017085D02*
X035914Y017085D01*
X035914Y016861D01*
X035484Y016431D01*
X035260Y016431D01*
X035260Y017085D01*
X035260Y017036D02*
X035100Y017036D01*
X035100Y017194D02*
X030690Y017194D01*
X030690Y017036D02*
X034446Y017036D01*
X034446Y016877D02*
X032480Y016877D01*
X032442Y016897D02*
X032358Y016924D01*
X032271Y016938D01*
X032246Y016938D01*
X032246Y016396D01*
X032787Y016396D01*
X032787Y016422D01*
X032773Y016509D01*
X032746Y016593D01*
X032706Y016671D01*
X032654Y016742D01*
X032592Y016805D01*
X032521Y016857D01*
X032442Y016897D01*
X032246Y016877D02*
X032209Y016877D01*
X032209Y016938D02*
X032183Y016938D01*
X032096Y016924D01*
X032012Y016897D01*
X031934Y016857D01*
X031862Y016805D01*
X031800Y016742D01*
X031748Y016671D01*
X031708Y016593D01*
X031681Y016509D01*
X031667Y016422D01*
X031667Y016396D01*
X032209Y016396D01*
X032209Y016938D01*
X032209Y016719D02*
X032246Y016719D01*
X032246Y016560D02*
X032209Y016560D01*
X032209Y016402D02*
X032246Y016402D01*
X032246Y016396D02*
X032209Y016396D01*
X032209Y016359D01*
X031667Y016359D01*
X031667Y016334D01*
X031681Y016246D01*
X031708Y016163D01*
X031748Y016084D01*
X031800Y016013D01*
X031862Y015950D01*
X031933Y015899D01*
X031899Y015885D01*
X031736Y015722D01*
X031647Y015509D01*
X031647Y015278D01*
X031736Y015065D01*
X031899Y014902D01*
X031900Y014901D01*
X031899Y014901D01*
X031736Y014738D01*
X031647Y014524D01*
X031647Y014294D01*
X031736Y014081D01*
X031899Y013917D01*
X032112Y013829D01*
X032343Y013829D01*
X032556Y013917D01*
X032719Y014081D01*
X032807Y014294D01*
X032807Y014524D01*
X032719Y014738D01*
X032556Y014901D01*
X032555Y014901D01*
X032556Y014902D01*
X032719Y015065D01*
X032807Y015278D01*
X032807Y015509D01*
X032719Y015722D01*
X032556Y015885D01*
X032522Y015899D01*
X032592Y015950D01*
X032654Y016013D01*
X032706Y016084D01*
X032746Y016163D01*
X032773Y016246D01*
X032787Y016334D01*
X032787Y016359D01*
X032246Y016359D01*
X032246Y016396D01*
X032671Y016719D02*
X034589Y016719D01*
X034747Y016560D02*
X032757Y016560D01*
X032787Y016402D02*
X036670Y016402D01*
X036670Y016560D02*
X035613Y016560D01*
X035771Y016719D02*
X036670Y016719D01*
X036578Y016877D02*
X035914Y016877D01*
X035914Y017036D02*
X036420Y017036D01*
X037190Y016877D02*
X037420Y016877D01*
X037420Y016719D02*
X037190Y016719D01*
X037190Y016560D02*
X037420Y016560D01*
X037420Y016402D02*
X037190Y016402D01*
X037190Y016243D02*
X037420Y016243D01*
X037420Y016085D02*
X037190Y016085D01*
X037190Y015926D02*
X037420Y015926D01*
X037420Y015768D02*
X037190Y015768D01*
X037190Y015609D02*
X037420Y015609D01*
X037420Y015451D02*
X037190Y015451D01*
X037190Y015292D02*
X037420Y015292D01*
X037420Y015134D02*
X037190Y015134D01*
X037190Y014975D02*
X037420Y014975D01*
X037420Y014817D02*
X037190Y014817D01*
X037190Y014658D02*
X037420Y014658D01*
X037420Y014500D02*
X037190Y014500D01*
X037190Y014341D02*
X037420Y014341D01*
X037420Y014183D02*
X037190Y014183D01*
X037190Y014024D02*
X037420Y014024D01*
X037420Y013866D02*
X037190Y013866D01*
X037190Y013707D02*
X037420Y013707D01*
X037420Y013549D02*
X037190Y013549D01*
X037190Y013390D02*
X037420Y013390D01*
X037420Y013232D02*
X037190Y013232D01*
X037190Y013073D02*
X037420Y013073D01*
X037420Y012915D02*
X037190Y012915D01*
X037190Y012756D02*
X037420Y012756D01*
X037420Y012598D02*
X037190Y012598D01*
X037339Y012439D02*
X037420Y012439D01*
X037405Y012281D02*
X037420Y012281D01*
X037410Y012122D02*
X037420Y012122D01*
X037420Y012092D02*
X037450Y012019D01*
X037450Y011518D01*
X037523Y011341D01*
X037658Y011206D01*
X037835Y011133D01*
X038025Y011133D01*
X038202Y011206D01*
X038325Y011330D02*
X038535Y011330D01*
X038462Y011488D02*
X038398Y011488D01*
X038410Y011647D02*
X038450Y011647D01*
X038450Y011805D02*
X038410Y011805D01*
X038410Y011964D02*
X038450Y011964D01*
X038450Y012122D02*
X038410Y012122D01*
X038405Y012281D02*
X038455Y012281D01*
X038521Y012439D02*
X038339Y012439D01*
X038159Y012598D02*
X038701Y012598D01*
X039159Y012598D02*
X039350Y012598D01*
X039350Y012756D02*
X037940Y012756D01*
X037940Y012915D02*
X039350Y012915D01*
X039350Y013073D02*
X037940Y013073D01*
X037940Y013232D02*
X039350Y013232D01*
X039350Y013390D02*
X037940Y013390D01*
X038514Y013549D02*
X039350Y013549D01*
X039350Y013707D02*
X038660Y013707D01*
X038660Y013866D02*
X039350Y013866D01*
X039350Y014024D02*
X038660Y014024D01*
X038569Y014183D02*
X039350Y014183D01*
X039350Y014341D02*
X038411Y014341D01*
X037949Y014341D02*
X037940Y014341D01*
X037940Y014500D02*
X039350Y014500D01*
X039350Y014658D02*
X037940Y014658D01*
X037940Y014817D02*
X039350Y014817D01*
X039350Y014975D02*
X037940Y014975D01*
X037940Y015134D02*
X039350Y015134D01*
X039350Y015292D02*
X037940Y015292D01*
X037940Y015451D02*
X038694Y015451D01*
X038535Y015609D02*
X037940Y015609D01*
X037940Y015768D02*
X038450Y015768D01*
X038450Y015926D02*
X037940Y015926D01*
X037940Y016085D02*
X038450Y016085D01*
X038601Y016243D02*
X037940Y016243D01*
X037940Y016402D02*
X039350Y016402D01*
X039350Y016560D02*
X038526Y016560D01*
X038660Y016719D02*
X039350Y016719D01*
X039350Y016877D02*
X038660Y016877D01*
X038660Y017036D02*
X039350Y017036D01*
X039350Y017194D02*
X038558Y017194D01*
X038399Y017353D02*
X039350Y017353D01*
X039350Y017511D02*
X039227Y017511D01*
X038633Y017511D02*
X037680Y017511D01*
X037827Y017364D02*
X037827Y017364D01*
X037838Y017353D02*
X037961Y017353D01*
X037521Y017670D02*
X038475Y017670D01*
X038450Y017828D02*
X037363Y017828D01*
X037204Y017987D02*
X038450Y017987D01*
X038503Y018145D02*
X037046Y018145D01*
X036887Y018304D02*
X038662Y018304D01*
X038660Y018621D02*
X038700Y018621D01*
X038852Y018621D02*
X039350Y018621D01*
X039350Y018779D02*
X039094Y018779D01*
X039192Y018938D02*
X039350Y018938D01*
X039350Y019096D02*
X039229Y019096D01*
X039219Y019255D02*
X039350Y019255D01*
X039350Y019413D02*
X039160Y019413D01*
X039026Y019572D02*
X039350Y019572D01*
X039350Y019730D02*
X033160Y019730D01*
X033160Y019889D02*
X039350Y019889D01*
X039350Y020047D02*
X033160Y020047D01*
X033037Y019572D02*
X033302Y019572D01*
X033175Y019413D02*
X032879Y019413D01*
X033110Y019255D02*
X031653Y019255D01*
X031660Y019096D02*
X033110Y019096D01*
X033148Y018938D02*
X031614Y018938D01*
X031495Y018779D02*
X033238Y018779D01*
X033452Y018621D02*
X031440Y018621D01*
X031367Y018462D02*
X034993Y018462D01*
X035152Y018304D02*
X031208Y018304D01*
X030790Y018621D02*
X030070Y018621D01*
X029912Y018779D02*
X030865Y018779D01*
X030746Y018938D02*
X029314Y018938D01*
X029091Y019096D02*
X030700Y019096D01*
X030707Y019255D02*
X027690Y019255D01*
X027690Y019413D02*
X028731Y019413D01*
X028573Y019572D02*
X027726Y019572D01*
X027308Y019889D02*
X026410Y019889D01*
X026410Y020047D02*
X027466Y020047D01*
X027185Y019730D02*
X026410Y019730D01*
X026287Y019572D02*
X027170Y019572D01*
X027170Y019413D02*
X026129Y019413D01*
X026025Y019123D02*
X025835Y019123D01*
X025658Y019050D01*
X025523Y018915D01*
X025450Y018739D01*
X025450Y018548D01*
X025523Y018371D01*
X025658Y018236D01*
X025835Y018163D01*
X026025Y018163D01*
X026202Y018236D01*
X026337Y018371D01*
X026410Y018548D01*
X026410Y018739D01*
X026337Y018915D01*
X026202Y019050D01*
X026025Y019123D01*
X026091Y019096D02*
X027170Y019096D01*
X027170Y018938D02*
X026314Y018938D01*
X026393Y018779D02*
X027170Y018779D01*
X027170Y018621D02*
X026410Y018621D01*
X026375Y018462D02*
X027110Y018462D01*
X027052Y018304D02*
X026269Y018304D01*
X025591Y018304D02*
X025269Y018304D01*
X025190Y018225D02*
X025410Y018445D01*
X025410Y018842D01*
X025129Y019123D01*
X024731Y019123D01*
X024450Y018842D01*
X024450Y018445D01*
X024670Y018225D01*
X024670Y017771D01*
X024669Y017771D01*
X024552Y017654D01*
X024552Y017132D01*
X024669Y017015D01*
X025191Y017015D01*
X025308Y017132D01*
X025308Y017654D01*
X025191Y017771D01*
X025190Y017771D01*
X025190Y018225D01*
X025190Y018145D02*
X027052Y018145D01*
X027052Y017987D02*
X025190Y017987D01*
X025190Y017828D02*
X027106Y017828D01*
X027147Y017670D02*
X025293Y017670D01*
X025308Y017511D02*
X026989Y017511D01*
X026946Y017353D02*
X025308Y017353D01*
X025308Y017194D02*
X027600Y017194D01*
X027600Y017036D02*
X027760Y017036D01*
X027760Y017085D02*
X027760Y016431D01*
X027984Y016431D01*
X028414Y016861D01*
X028414Y017085D01*
X027760Y017085D01*
X027760Y017194D02*
X030170Y017194D01*
X030170Y017036D02*
X028414Y017036D01*
X028414Y016877D02*
X030170Y016877D01*
X030170Y016719D02*
X028271Y016719D01*
X028113Y016560D02*
X030170Y016560D01*
X030170Y016402D02*
X025287Y016402D01*
X025272Y016243D02*
X030170Y016243D01*
X030170Y016085D02*
X025207Y016085D01*
X025059Y015926D02*
X030170Y015926D01*
X030170Y015768D02*
X025173Y015768D01*
X025266Y015609D02*
X030170Y015609D01*
X030170Y015451D02*
X025307Y015451D01*
X025307Y015292D02*
X030170Y015292D01*
X030170Y015134D02*
X025248Y015134D01*
X025130Y014975D02*
X030170Y014975D01*
X030170Y014817D02*
X025140Y014817D01*
X025252Y014658D02*
X030170Y014658D01*
X030170Y014500D02*
X025307Y014500D01*
X025307Y014341D02*
X027362Y014341D01*
X027204Y014183D02*
X025261Y014183D01*
X025163Y014024D02*
X027045Y014024D01*
X026946Y013866D02*
X026072Y013866D01*
X026234Y013707D02*
X026946Y013707D01*
X026946Y013390D02*
X026551Y013390D01*
X026709Y013232D02*
X027032Y013232D01*
X027191Y013073D02*
X026868Y013073D01*
X027026Y012915D02*
X027349Y012915D01*
X028011Y012915D02*
X029453Y012915D01*
X029470Y012756D02*
X028435Y012756D01*
X028400Y012791D02*
X028400Y012791D01*
X028593Y012598D02*
X028701Y012598D01*
X029159Y012598D02*
X029550Y012598D01*
X029521Y012439D02*
X029339Y012439D01*
X029405Y012281D02*
X029455Y012281D01*
X029450Y012122D02*
X029410Y012122D01*
X029410Y011964D02*
X029450Y011964D01*
X029450Y011805D02*
X029410Y011805D01*
X029410Y011647D02*
X029450Y011647D01*
X029462Y011488D02*
X029398Y011488D01*
X029325Y011330D02*
X029535Y011330D01*
X029743Y011171D02*
X029117Y011171D01*
X028743Y011171D02*
X028690Y011171D01*
X028690Y011013D02*
X030170Y011013D01*
X030170Y011171D02*
X030117Y011171D01*
X030690Y011171D02*
X030743Y011171D01*
X030690Y011013D02*
X032110Y011013D01*
X032110Y011171D02*
X032058Y011171D01*
X031930Y011171D02*
X031930Y011171D01*
X031930Y011153D02*
X031930Y011893D01*
X031930Y011893D01*
X031470Y011893D01*
X031470Y011577D01*
X031481Y011506D01*
X031504Y011437D01*
X031537Y011372D01*
X031579Y011314D01*
X031630Y011262D01*
X031689Y011220D01*
X031753Y011187D01*
X031822Y011165D01*
X031894Y011153D01*
X031930Y011153D01*
X031802Y011171D02*
X031117Y011171D01*
X031325Y011330D02*
X031567Y011330D01*
X031487Y011488D02*
X031398Y011488D01*
X031410Y011647D02*
X031470Y011647D01*
X031470Y011805D02*
X031410Y011805D01*
X031470Y011893D02*
X031930Y011893D01*
X031930Y011893D01*
X031930Y011893D01*
X032390Y011893D01*
X032390Y012210D01*
X032379Y012281D01*
X032455Y012281D01*
X032379Y012281D02*
X032356Y012350D01*
X032323Y012414D01*
X032281Y012473D01*
X032233Y012521D01*
X032335Y012623D01*
X032407Y012798D01*
X032407Y012988D01*
X032335Y013164D01*
X032200Y013298D01*
X032025Y013371D01*
X031835Y013371D01*
X031660Y013298D01*
X031525Y013164D01*
X031453Y012988D01*
X031453Y012798D01*
X031525Y012623D01*
X031627Y012521D01*
X031579Y012473D01*
X031537Y012414D01*
X031504Y012350D01*
X031481Y012281D01*
X031405Y012281D01*
X031481Y012281D02*
X031470Y012210D01*
X031470Y011893D01*
X031470Y011964D02*
X031410Y011964D01*
X031410Y012122D02*
X031470Y012122D01*
X031555Y012439D02*
X031339Y012439D01*
X031281Y012598D02*
X031550Y012598D01*
X031470Y012756D02*
X031367Y012756D01*
X031387Y012915D02*
X031453Y012915D01*
X031488Y013073D02*
X031352Y013073D01*
X031238Y013232D02*
X031593Y013232D01*
X032267Y013232D02*
X034532Y013232D01*
X034446Y013318D02*
X034876Y012888D01*
X035100Y012888D01*
X035100Y013542D01*
X034446Y013542D01*
X034446Y013318D01*
X034446Y013390D02*
X030690Y013390D01*
X030690Y013549D02*
X035100Y013549D01*
X035100Y013542D02*
X035100Y013702D01*
X035100Y014355D01*
X034876Y014355D01*
X034446Y013926D01*
X034446Y013702D01*
X035100Y013702D01*
X035260Y013702D01*
X035260Y014355D01*
X035484Y014355D01*
X035914Y013926D01*
X035914Y013702D01*
X035260Y013702D01*
X035260Y013542D01*
X035914Y013542D01*
X035914Y013318D01*
X035484Y012888D01*
X035260Y012888D01*
X035260Y013542D01*
X035100Y013542D01*
X035100Y013390D02*
X035260Y013390D01*
X035260Y013232D02*
X035100Y013232D01*
X035100Y013073D02*
X035260Y013073D01*
X035260Y012915D02*
X035100Y012915D01*
X034849Y012915D02*
X032407Y012915D01*
X032390Y012756D02*
X036670Y012756D01*
X036670Y012598D02*
X036159Y012598D01*
X036202Y012580D02*
X036025Y012653D01*
X035835Y012653D01*
X035658Y012580D01*
X035523Y012445D01*
X035450Y012269D01*
X035450Y011518D01*
X035523Y011341D01*
X035658Y011206D01*
X035835Y011133D01*
X036025Y011133D01*
X036202Y011206D01*
X036337Y011341D01*
X036410Y011518D01*
X036410Y012269D01*
X036337Y012445D01*
X036202Y012580D01*
X036339Y012439D02*
X036521Y012439D01*
X036455Y012281D02*
X036405Y012281D01*
X036410Y012122D02*
X036450Y012122D01*
X036450Y011964D02*
X036410Y011964D01*
X036410Y011805D02*
X036450Y011805D01*
X036450Y011647D02*
X036410Y011647D01*
X036398Y011488D02*
X036462Y011488D01*
X036535Y011330D02*
X036325Y011330D01*
X036117Y011171D02*
X036743Y011171D01*
X037117Y011171D02*
X037743Y011171D01*
X037535Y011330D02*
X037325Y011330D01*
X037398Y011488D02*
X037462Y011488D01*
X037450Y011647D02*
X037410Y011647D01*
X037410Y011805D02*
X037450Y011805D01*
X037450Y011964D02*
X037410Y011964D01*
X037420Y012092D02*
X037420Y017036D01*
X036670Y016243D02*
X032772Y016243D01*
X032707Y016085D02*
X036670Y016085D01*
X036670Y015926D02*
X032559Y015926D01*
X032673Y015768D02*
X036670Y015768D01*
X036670Y015609D02*
X032766Y015609D01*
X032807Y015451D02*
X036670Y015451D01*
X036670Y015292D02*
X032807Y015292D01*
X032748Y015134D02*
X036670Y015134D01*
X036670Y014975D02*
X032630Y014975D01*
X032640Y014817D02*
X036670Y014817D01*
X036670Y014658D02*
X032752Y014658D01*
X032807Y014500D02*
X036670Y014500D01*
X036670Y014341D02*
X035498Y014341D01*
X035656Y014183D02*
X036670Y014183D01*
X036670Y014024D02*
X035815Y014024D01*
X035914Y013866D02*
X036670Y013866D01*
X036670Y013707D02*
X035914Y013707D01*
X035914Y013390D02*
X036670Y013390D01*
X036670Y013232D02*
X035828Y013232D01*
X035669Y013073D02*
X036670Y013073D01*
X036670Y012915D02*
X035511Y012915D01*
X035701Y012598D02*
X035159Y012598D01*
X035202Y012580D02*
X035025Y012653D01*
X034835Y012653D01*
X034658Y012580D01*
X034523Y012445D01*
X034450Y012269D01*
X034450Y011518D01*
X034523Y011341D01*
X034658Y011206D01*
X034835Y011133D01*
X035025Y011133D01*
X035202Y011206D01*
X035337Y011341D01*
X035410Y011518D01*
X035410Y012269D01*
X035337Y012445D01*
X035202Y012580D01*
X035339Y012439D02*
X035521Y012439D01*
X035455Y012281D02*
X035405Y012281D01*
X035410Y012122D02*
X035450Y012122D01*
X035450Y011964D02*
X035410Y011964D01*
X035410Y011805D02*
X035450Y011805D01*
X035450Y011647D02*
X035410Y011647D01*
X035398Y011488D02*
X035462Y011488D01*
X035535Y011330D02*
X035325Y011330D01*
X035117Y011171D02*
X035743Y011171D01*
X034743Y011171D02*
X034117Y011171D01*
X034202Y011206D02*
X034337Y011341D01*
X034410Y011518D01*
X034410Y012269D01*
X034337Y012445D01*
X034202Y012580D01*
X034025Y012653D01*
X033835Y012653D01*
X033658Y012580D01*
X033523Y012445D01*
X033450Y012269D01*
X033450Y011518D01*
X033523Y011341D01*
X033658Y011206D01*
X033835Y011133D01*
X034025Y011133D01*
X034202Y011206D01*
X034325Y011330D02*
X034535Y011330D01*
X034462Y011488D02*
X034398Y011488D01*
X034410Y011647D02*
X034450Y011647D01*
X034450Y011805D02*
X034410Y011805D01*
X034410Y011964D02*
X034450Y011964D01*
X034450Y012122D02*
X034410Y012122D01*
X034405Y012281D02*
X034455Y012281D01*
X034521Y012439D02*
X034339Y012439D01*
X034159Y012598D02*
X034701Y012598D01*
X034691Y013073D02*
X032372Y013073D01*
X032310Y012598D02*
X032701Y012598D01*
X032521Y012439D02*
X032305Y012439D01*
X032390Y012122D02*
X032450Y012122D01*
X032450Y011964D02*
X032390Y011964D01*
X032390Y011805D02*
X032450Y011805D01*
X032450Y011647D02*
X032390Y011647D01*
X031930Y011647D02*
X031930Y011647D01*
X031930Y011805D02*
X031930Y011805D01*
X031930Y011893D02*
X031930Y012416D01*
X031930Y012416D01*
X031930Y011893D01*
X031930Y011893D01*
X031930Y011964D02*
X031930Y011964D01*
X031930Y012122D02*
X031930Y012122D01*
X031930Y012281D02*
X031930Y012281D01*
X030930Y012893D02*
X030930Y012893D01*
X030930Y013351D01*
X030930Y012893D01*
X030930Y012915D02*
X030930Y012915D01*
X030930Y013073D02*
X030930Y013073D01*
X030930Y013232D02*
X030930Y013232D01*
X030690Y013707D02*
X034446Y013707D01*
X034446Y013866D02*
X032431Y013866D01*
X032663Y014024D02*
X034545Y014024D01*
X034704Y014183D02*
X032761Y014183D01*
X032807Y014341D02*
X034862Y014341D01*
X035100Y014341D02*
X035260Y014341D01*
X035260Y014183D02*
X035100Y014183D01*
X035100Y014024D02*
X035260Y014024D01*
X035260Y013866D02*
X035100Y013866D01*
X035100Y013707D02*
X035260Y013707D01*
X035260Y013549D02*
X036670Y013549D01*
X039339Y012439D02*
X039350Y012439D01*
X039350Y009586D02*
X039187Y009586D01*
X039344Y009428D02*
X039350Y009428D01*
X039350Y007050D02*
X035914Y007050D01*
X035914Y007085D02*
X035260Y007085D01*
X035260Y006431D01*
X035484Y006431D01*
X035914Y006861D01*
X035914Y007085D01*
X035914Y006892D02*
X039350Y006892D01*
X039350Y006733D02*
X035786Y006733D01*
X035627Y006575D02*
X039350Y006575D01*
X039350Y006416D02*
X032787Y006416D01*
X032775Y006258D02*
X039350Y006258D01*
X039350Y006099D02*
X032714Y006099D01*
X032579Y005941D02*
X039350Y005941D01*
X039350Y005782D02*
X032658Y005782D01*
X032760Y005624D02*
X039350Y005624D01*
X039350Y005465D02*
X032807Y005465D01*
X032884Y005307D02*
X039350Y005307D01*
X039350Y005148D02*
X033043Y005148D01*
X033201Y004990D02*
X039350Y004990D01*
X039350Y004831D02*
X033360Y004831D01*
X033440Y004673D02*
X039350Y004673D01*
X039350Y004514D02*
X033440Y004514D01*
X033440Y004356D02*
X039350Y004356D01*
X039350Y004197D02*
X035642Y004197D01*
X035484Y004355D02*
X035260Y004355D01*
X035260Y003702D01*
X035100Y003702D01*
X035100Y004355D01*
X034876Y004355D01*
X034446Y003926D01*
X034446Y003702D01*
X035100Y003702D01*
X035100Y003542D01*
X034446Y003542D01*
X034446Y003318D01*
X034876Y002888D01*
X035100Y002888D01*
X035100Y003542D01*
X035260Y003542D01*
X035260Y003702D01*
X035914Y003702D01*
X035914Y003926D01*
X035484Y004355D01*
X035260Y004197D02*
X035100Y004197D01*
X035100Y004039D02*
X035260Y004039D01*
X035260Y003880D02*
X035100Y003880D01*
X035100Y003722D02*
X035260Y003722D01*
X035260Y003563D02*
X039350Y003563D01*
X039350Y003405D02*
X035914Y003405D01*
X035914Y003318D02*
X035914Y003542D01*
X035260Y003542D01*
X035260Y002888D01*
X035484Y002888D01*
X035914Y003318D01*
X035842Y003246D02*
X039350Y003246D01*
X039350Y003088D02*
X035684Y003088D01*
X035525Y002929D02*
X039350Y002929D01*
X039350Y003722D02*
X035914Y003722D01*
X035914Y003880D02*
X039350Y003880D01*
X039350Y004039D02*
X035800Y004039D01*
X035260Y003405D02*
X035100Y003405D01*
X035100Y003563D02*
X033440Y003563D01*
X033440Y003405D02*
X034446Y003405D01*
X034518Y003246D02*
X033440Y003246D01*
X033438Y003088D02*
X034676Y003088D01*
X034835Y002929D02*
X033334Y002929D01*
X031970Y002612D02*
X029390Y002612D01*
X029548Y002454D02*
X031812Y002454D01*
X031700Y002295D02*
X029660Y002295D01*
X029660Y002137D02*
X031700Y002137D01*
X031700Y001978D02*
X029660Y001978D01*
X029535Y001820D02*
X031825Y001820D01*
X031861Y001503D02*
X029499Y001503D01*
X029440Y001661D02*
X037380Y001661D01*
X037439Y001503D02*
X036968Y001503D01*
X037094Y001344D02*
X037598Y001344D01*
X037756Y001186D02*
X037139Y001186D01*
X037126Y001027D02*
X039350Y001027D01*
X039350Y000869D02*
X037049Y000869D01*
X036836Y000710D02*
X039350Y000710D01*
X036680Y000710D02*
X036680Y000710D01*
X036680Y000869D02*
X036680Y000869D01*
X036680Y001027D02*
X036680Y001027D01*
X036680Y001143D02*
X036680Y001603D01*
X036680Y001143D01*
X036680Y001143D01*
X036680Y001186D02*
X036680Y001186D01*
X036680Y001344D02*
X036680Y001344D01*
X036680Y001503D02*
X036680Y001503D01*
X035260Y002929D02*
X035100Y002929D01*
X035100Y003088D02*
X035260Y003088D01*
X035260Y003246D02*
X035100Y003246D01*
X034446Y003722D02*
X033440Y003722D01*
X033440Y003880D02*
X034446Y003880D01*
X034560Y004039D02*
X033440Y004039D01*
X033440Y004197D02*
X034718Y004197D01*
X032920Y004197D02*
X032767Y004197D01*
X032807Y004356D02*
X032920Y004356D01*
X032920Y004514D02*
X032807Y004514D01*
X032783Y004673D02*
X032746Y004673D01*
X032677Y004039D02*
X032920Y004039D01*
X032920Y003880D02*
X032466Y003880D01*
X029802Y004673D02*
X028940Y004673D01*
X028940Y004831D02*
X029802Y004831D01*
X029802Y004990D02*
X028940Y004990D01*
X029058Y005148D02*
X029802Y005148D01*
X029860Y005307D02*
X029058Y005307D01*
X029058Y005465D02*
X029860Y005465D01*
X029860Y005624D02*
X029058Y005624D01*
X028302Y005624D02*
X026190Y005624D01*
X026190Y005782D02*
X029860Y005782D01*
X029860Y005941D02*
X026190Y005941D01*
X026190Y006099D02*
X029860Y006099D01*
X029860Y006258D02*
X026190Y006258D01*
X026190Y006416D02*
X029860Y006416D01*
X029860Y006575D02*
X028127Y006575D01*
X027984Y006431D02*
X027760Y006431D01*
X027760Y007085D01*
X027760Y007245D01*
X027600Y007245D01*
X027600Y007899D01*
X027376Y007899D01*
X026946Y007469D01*
X026946Y007245D01*
X027600Y007245D01*
X027600Y007085D01*
X026946Y007085D01*
X026946Y006861D01*
X027376Y006431D01*
X027600Y006431D01*
X027600Y007085D01*
X027760Y007085D01*
X028414Y007085D01*
X028414Y006861D01*
X027984Y006431D01*
X027760Y006575D02*
X027600Y006575D01*
X027600Y006733D02*
X027760Y006733D01*
X027760Y006892D02*
X027600Y006892D01*
X027600Y007050D02*
X027760Y007050D01*
X027760Y007209D02*
X029861Y007209D01*
X029860Y007050D02*
X028414Y007050D01*
X028414Y006892D02*
X029860Y006892D01*
X029860Y006733D02*
X028286Y006733D01*
X027600Y007209D02*
X026190Y007209D01*
X026190Y007367D02*
X026946Y007367D01*
X027003Y007526D02*
X026190Y007526D01*
X026190Y007684D02*
X027162Y007684D01*
X027320Y007843D02*
X026190Y007843D01*
X026167Y008001D02*
X030450Y008001D01*
X030427Y007843D02*
X028040Y007843D01*
X027984Y007899D02*
X027760Y007899D01*
X027760Y007245D01*
X028414Y007245D01*
X028414Y007469D01*
X027984Y007899D01*
X027760Y007843D02*
X027600Y007843D01*
X027600Y007684D02*
X027760Y007684D01*
X027760Y007526D02*
X027600Y007526D01*
X027600Y007367D02*
X027760Y007367D01*
X028198Y007684D02*
X030268Y007684D01*
X030110Y007526D02*
X028357Y007526D01*
X028414Y007367D02*
X029951Y007367D01*
X031241Y007526D02*
X032647Y007526D01*
X032488Y007684D02*
X031400Y007684D01*
X031410Y007843D02*
X032470Y007843D01*
X032470Y008001D02*
X031410Y008001D01*
X031342Y008160D02*
X031771Y008160D01*
X031546Y008318D02*
X031314Y008318D01*
X031393Y008477D02*
X031467Y008477D01*
X031450Y008635D02*
X031410Y008635D01*
X031410Y008794D02*
X031450Y008794D01*
X031450Y008952D02*
X031410Y008952D01*
X031410Y009111D02*
X031450Y009111D01*
X031450Y009269D02*
X031410Y009269D01*
X031344Y009428D02*
X031516Y009428D01*
X031673Y009586D02*
X031187Y009586D01*
X030808Y009745D02*
X032079Y009745D01*
X032110Y009903D02*
X030808Y009903D01*
X030808Y010062D02*
X032110Y010062D01*
X032110Y010220D02*
X030742Y010220D01*
X030690Y010379D02*
X032110Y010379D01*
X032110Y010537D02*
X030690Y010537D01*
X030690Y010696D02*
X032110Y010696D01*
X032110Y010854D02*
X030690Y010854D01*
X030170Y010854D02*
X028690Y010854D01*
X028690Y010696D02*
X030170Y010696D01*
X030170Y010537D02*
X028690Y010537D01*
X028690Y010379D02*
X030170Y010379D01*
X030118Y010220D02*
X028721Y010220D01*
X028879Y010062D02*
X030052Y010062D01*
X030052Y009903D02*
X029038Y009903D01*
X029169Y009745D02*
X030052Y009745D01*
X029673Y009586D02*
X029190Y009586D01*
X029344Y009428D02*
X029516Y009428D01*
X029450Y009269D02*
X029410Y009269D01*
X029410Y009111D02*
X029450Y009111D01*
X029450Y008952D02*
X029410Y008952D01*
X029410Y008794D02*
X029450Y008794D01*
X029450Y008635D02*
X029410Y008635D01*
X029393Y008477D02*
X029467Y008477D01*
X029546Y008318D02*
X029314Y008318D01*
X029089Y008160D02*
X029771Y008160D01*
X030089Y008160D02*
X030518Y008160D01*
X030546Y008318D02*
X030314Y008318D01*
X030393Y008477D02*
X030467Y008477D01*
X030450Y008635D02*
X030410Y008635D01*
X030410Y008794D02*
X030450Y008794D01*
X030450Y008952D02*
X030410Y008952D01*
X030410Y009111D02*
X030450Y009111D01*
X030450Y009269D02*
X030410Y009269D01*
X030344Y009428D02*
X030516Y009428D01*
X028619Y009586D02*
X028187Y009586D01*
X028202Y009580D02*
X028025Y009653D01*
X027835Y009653D01*
X027658Y009580D01*
X027523Y009445D01*
X027450Y009269D01*
X027450Y008518D01*
X027523Y008341D01*
X027658Y008206D01*
X027835Y008133D01*
X028025Y008133D01*
X028202Y008206D01*
X028337Y008341D01*
X028410Y008518D01*
X028410Y009269D01*
X028337Y009445D01*
X028202Y009580D01*
X028344Y009428D02*
X028516Y009428D01*
X028450Y009269D02*
X028410Y009269D01*
X028410Y009111D02*
X028450Y009111D01*
X028450Y008952D02*
X028410Y008952D01*
X028410Y008794D02*
X028450Y008794D01*
X028450Y008635D02*
X028410Y008635D01*
X028393Y008477D02*
X028467Y008477D01*
X028546Y008318D02*
X028314Y008318D01*
X028089Y008160D02*
X028771Y008160D01*
X027771Y008160D02*
X027089Y008160D01*
X027025Y008133D02*
X027202Y008206D01*
X027337Y008341D01*
X027410Y008518D01*
X027410Y009269D01*
X027337Y009445D01*
X027202Y009580D01*
X027025Y009653D01*
X026835Y009653D01*
X026658Y009580D01*
X026523Y009445D01*
X026450Y009269D01*
X026450Y008518D01*
X026523Y008341D01*
X026658Y008206D01*
X026835Y008133D01*
X027025Y008133D01*
X026771Y008160D02*
X026089Y008160D01*
X026314Y008318D02*
X026546Y008318D01*
X026467Y008477D02*
X026393Y008477D01*
X026410Y008635D02*
X026450Y008635D01*
X026450Y008794D02*
X026410Y008794D01*
X026410Y008952D02*
X026450Y008952D01*
X026450Y009111D02*
X026410Y009111D01*
X026410Y009269D02*
X026450Y009269D01*
X026516Y009428D02*
X026344Y009428D01*
X026187Y009586D02*
X026673Y009586D01*
X027187Y009586D02*
X027673Y009586D01*
X027516Y009428D02*
X027344Y009428D01*
X027410Y009269D02*
X027450Y009269D01*
X027450Y009111D02*
X027410Y009111D01*
X027410Y008952D02*
X027450Y008952D01*
X027450Y008794D02*
X027410Y008794D01*
X027410Y008635D02*
X027450Y008635D01*
X027467Y008477D02*
X027393Y008477D01*
X027314Y008318D02*
X027546Y008318D01*
X026946Y007050D02*
X026190Y007050D01*
X026190Y006892D02*
X026946Y006892D01*
X027074Y006733D02*
X026190Y006733D01*
X026190Y006575D02*
X027233Y006575D01*
X026190Y005465D02*
X028302Y005465D01*
X028302Y005307D02*
X026190Y005307D01*
X026190Y005148D02*
X028302Y005148D01*
X028420Y004990D02*
X026190Y004990D01*
X026190Y004831D02*
X028420Y004831D01*
X028420Y004673D02*
X026190Y004673D01*
X026190Y004514D02*
X028420Y004514D01*
X028420Y004356D02*
X026190Y004356D01*
X026190Y004197D02*
X027218Y004197D01*
X027376Y004355D02*
X026946Y003926D01*
X026946Y003702D01*
X027600Y003702D01*
X027600Y004355D01*
X027376Y004355D01*
X027600Y004197D02*
X027760Y004197D01*
X027760Y004039D02*
X027600Y004039D01*
X027600Y003880D02*
X027760Y003880D01*
X027760Y003722D02*
X027600Y003722D01*
X027600Y003702D02*
X027760Y003702D01*
X027760Y004355D01*
X027984Y004355D01*
X028414Y003926D01*
X028414Y003702D01*
X027760Y003702D01*
X027760Y003542D01*
X028414Y003542D01*
X028414Y003318D01*
X027984Y002888D01*
X027760Y002888D01*
X027760Y003542D01*
X027600Y003542D01*
X026946Y003542D01*
X026946Y003318D01*
X027376Y002888D01*
X027600Y002888D01*
X027600Y003542D01*
X027600Y003702D01*
X027600Y003563D02*
X026190Y003563D01*
X026190Y003405D02*
X026946Y003405D01*
X027018Y003246D02*
X026216Y003246D01*
X026308Y003088D02*
X027176Y003088D01*
X027335Y002929D02*
X026308Y002929D01*
X026308Y002771D02*
X028420Y002771D01*
X028420Y002929D02*
X028025Y002929D01*
X028184Y003088D02*
X028420Y003088D01*
X028420Y003246D02*
X028342Y003246D01*
X028414Y003405D02*
X028420Y003405D01*
X028420Y003563D02*
X027760Y003563D01*
X027760Y003405D02*
X027600Y003405D01*
X027600Y003246D02*
X027760Y003246D01*
X027760Y003088D02*
X027600Y003088D01*
X027600Y002929D02*
X027760Y002929D01*
X027970Y002612D02*
X026288Y002612D01*
X025660Y002295D02*
X027700Y002295D01*
X027700Y002137D02*
X025660Y002137D01*
X025660Y001978D02*
X027700Y001978D01*
X027825Y001820D02*
X025535Y001820D01*
X025280Y001661D02*
X028420Y001661D01*
X027861Y001503D02*
X025499Y001503D01*
X025658Y001344D02*
X027702Y001344D01*
X027700Y001186D02*
X025660Y001186D01*
X025660Y001027D02*
X027700Y001027D01*
X027776Y000869D02*
X025584Y000869D01*
X025426Y000710D02*
X027934Y000710D01*
X028426Y000710D02*
X028934Y000710D01*
X028776Y000869D02*
X028584Y000869D01*
X028682Y001027D02*
X028700Y001027D01*
X029426Y000710D02*
X031934Y000710D01*
X031776Y000869D02*
X029584Y000869D01*
X029660Y001027D02*
X031700Y001027D01*
X031700Y001186D02*
X029660Y001186D01*
X029658Y001344D02*
X031702Y001344D01*
X028420Y002612D02*
X028390Y002612D01*
X027812Y002454D02*
X025548Y002454D01*
X025572Y002612D02*
X025440Y002612D01*
X025440Y002771D02*
X025552Y002771D01*
X025552Y002929D02*
X025440Y002929D01*
X025440Y003088D02*
X025552Y003088D01*
X025644Y003246D02*
X025440Y003246D01*
X025559Y003405D02*
X025670Y003405D01*
X026190Y003722D02*
X026946Y003722D01*
X026946Y003880D02*
X026190Y003880D01*
X026190Y004039D02*
X027060Y004039D01*
X028142Y004197D02*
X028420Y004197D01*
X028420Y004039D02*
X028300Y004039D01*
X028414Y003880D02*
X028420Y003880D01*
X028414Y003722D02*
X028420Y003722D01*
X024641Y003722D02*
X024280Y003722D01*
X024410Y003592D02*
X024129Y003873D01*
X023731Y003873D01*
X023450Y003592D01*
X023450Y003195D01*
X023731Y002913D01*
X024129Y002913D01*
X024410Y003195D01*
X024410Y003592D01*
X024410Y003563D02*
X024482Y003563D01*
X024420Y003405D02*
X024410Y003405D01*
X024410Y003246D02*
X024420Y003246D01*
X024420Y003088D02*
X024303Y003088D01*
X024420Y002929D02*
X024145Y002929D01*
X024129Y002623D02*
X023731Y002623D01*
X023450Y002342D01*
X023450Y001945D01*
X023731Y001663D01*
X024129Y001663D01*
X024410Y001945D01*
X024410Y002342D01*
X024129Y002623D01*
X024140Y002612D02*
X024420Y002612D01*
X024420Y002454D02*
X024298Y002454D01*
X024410Y002295D02*
X024420Y002295D01*
X024410Y002137D02*
X024420Y002137D01*
X024410Y001978D02*
X024420Y001978D01*
X024429Y001820D02*
X024285Y001820D01*
X024129Y001623D02*
X023731Y001623D01*
X023450Y001342D01*
X023450Y000945D01*
X023731Y000663D01*
X024129Y000663D01*
X024410Y000945D01*
X024410Y001342D01*
X024129Y001623D01*
X024249Y001503D02*
X024703Y001503D01*
X024702Y001344D02*
X024408Y001344D01*
X024410Y001186D02*
X024700Y001186D01*
X024700Y001027D02*
X024410Y001027D01*
X024334Y000869D02*
X024776Y000869D01*
X024934Y000710D02*
X024176Y000710D01*
X023684Y000710D02*
X021148Y000710D01*
X021121Y000683D02*
X021390Y000953D01*
X021390Y001143D01*
X020930Y001143D01*
X020930Y000683D01*
X021121Y000683D01*
X020930Y000683D02*
X020930Y001143D01*
X020930Y001143D01*
X020930Y001143D01*
X020470Y001143D01*
X020470Y000953D01*
X020739Y000683D01*
X020930Y000683D01*
X020930Y000710D02*
X020930Y000710D01*
X020930Y000869D02*
X020930Y000869D01*
X020930Y001027D02*
X020930Y001027D01*
X020930Y001143D02*
X020930Y001143D01*
X021390Y001143D01*
X021390Y001334D01*
X021121Y001603D01*
X020930Y001603D01*
X020739Y001603D01*
X020470Y001334D01*
X020470Y001143D01*
X020930Y001143D01*
X020930Y001603D01*
X020930Y001143D01*
X020930Y001143D01*
X020930Y001186D02*
X020930Y001186D01*
X020930Y001344D02*
X020930Y001344D01*
X020930Y001503D02*
X020930Y001503D01*
X020731Y001663D02*
X021129Y001663D01*
X021410Y001945D01*
X021410Y002342D01*
X021129Y002623D01*
X020731Y002623D01*
X020450Y002342D01*
X020450Y001945D01*
X020731Y001663D01*
X020639Y001503D02*
X020221Y001503D01*
X020121Y001603D02*
X019930Y001603D01*
X019930Y001143D01*
X019930Y000683D01*
X020121Y000683D01*
X020390Y000953D01*
X020390Y001143D01*
X019930Y001143D01*
X019930Y001143D01*
X019930Y000683D01*
X019739Y000683D01*
X019470Y000953D01*
X019470Y001143D01*
X019930Y001143D01*
X019930Y001143D01*
X019930Y001143D01*
X020390Y001143D01*
X020390Y001334D01*
X020121Y001603D01*
X020129Y001663D02*
X020410Y001945D01*
X020410Y002342D01*
X020190Y002562D01*
X020190Y003036D01*
X020288Y003133D01*
X020511Y003133D01*
X020731Y002913D01*
X021129Y002913D01*
X021410Y003195D01*
X021410Y003592D01*
X021190Y003812D01*
X021190Y005015D01*
X021691Y005015D01*
X021785Y005109D01*
X021920Y004975D01*
X021920Y004812D01*
X021700Y004592D01*
X021700Y004195D01*
X021981Y003913D01*
X022379Y003913D01*
X022660Y004195D01*
X022660Y004592D01*
X022440Y004812D01*
X022440Y004975D01*
X022660Y005195D01*
X022660Y005592D01*
X022379Y005873D01*
X021981Y005873D01*
X021785Y005677D01*
X021691Y005771D01*
X021690Y005771D01*
X021690Y006536D01*
X021774Y006620D01*
X021981Y006413D01*
X022379Y006413D01*
X022660Y006695D01*
X022660Y007092D01*
X022379Y007373D01*
X021981Y007373D01*
X021761Y007153D01*
X021628Y007153D01*
X021533Y007114D01*
X021460Y007041D01*
X021210Y006791D01*
X021190Y006743D01*
X021190Y007536D01*
X021577Y007923D01*
X021650Y007996D01*
X021690Y008092D01*
X021690Y011515D01*
X021691Y011515D01*
X021808Y011632D01*
X021808Y012154D01*
X021691Y012271D01*
X021169Y012271D01*
X021075Y012177D01*
X020879Y012373D01*
X020481Y012373D01*
X020200Y012092D01*
X020200Y011695D01*
X020481Y011413D01*
X020879Y011413D01*
X021075Y011609D01*
X021169Y011515D01*
X021170Y011515D01*
X021170Y008251D01*
X020710Y007791D01*
X020670Y007695D01*
X020670Y003812D01*
X020511Y003653D01*
X020128Y003653D01*
X020033Y003614D01*
X019960Y003541D01*
X019710Y003291D01*
X019670Y003195D01*
X019670Y002562D01*
X019450Y002342D01*
X019450Y002052D01*
X019379Y002123D01*
X018981Y002123D01*
X018805Y001947D01*
X018629Y002123D01*
X018231Y002123D01*
X018140Y002032D01*
X018140Y002143D01*
X017680Y002143D01*
X017680Y001683D01*
X017871Y001683D01*
X017950Y001763D01*
X017950Y001552D01*
X017879Y001623D01*
X017481Y001623D01*
X017200Y001342D01*
X017200Y000945D01*
X017481Y000663D01*
X017879Y000663D01*
X018160Y000945D01*
X018160Y001235D01*
X018231Y001163D01*
X018629Y001163D01*
X018805Y001340D01*
X018981Y001163D01*
X019379Y001163D01*
X019470Y001255D01*
X019470Y001143D01*
X019930Y001143D01*
X019930Y001143D01*
X019930Y001603D01*
X019739Y001603D01*
X019660Y001524D01*
X019660Y001735D01*
X019731Y001663D01*
X020129Y001663D01*
X020285Y001820D02*
X020575Y001820D01*
X020450Y001978D02*
X020410Y001978D01*
X020410Y002137D02*
X020450Y002137D01*
X020450Y002295D02*
X020410Y002295D01*
X020298Y002454D02*
X020562Y002454D01*
X020720Y002612D02*
X020190Y002612D01*
X020190Y002771D02*
X024420Y002771D01*
X023720Y002612D02*
X021140Y002612D01*
X021298Y002454D02*
X023562Y002454D01*
X023450Y002295D02*
X021410Y002295D01*
X021410Y002137D02*
X023450Y002137D01*
X023450Y001978D02*
X021410Y001978D01*
X021285Y001820D02*
X023575Y001820D01*
X023611Y001503D02*
X021221Y001503D01*
X021380Y001344D02*
X023452Y001344D01*
X023450Y001186D02*
X021390Y001186D01*
X021390Y001027D02*
X023450Y001027D01*
X023526Y000869D02*
X021306Y000869D01*
X020712Y000710D02*
X020148Y000710D01*
X019930Y000710D02*
X019930Y000710D01*
X019930Y000869D02*
X019930Y000869D01*
X019930Y001027D02*
X019930Y001027D01*
X019930Y001186D02*
X019930Y001186D01*
X019930Y001344D02*
X019930Y001344D01*
X019930Y001503D02*
X019930Y001503D01*
X019660Y001661D02*
X024544Y001661D01*
X023715Y002929D02*
X021145Y002929D01*
X021303Y003088D02*
X023557Y003088D01*
X023450Y003246D02*
X021410Y003246D01*
X021410Y003405D02*
X023450Y003405D01*
X023450Y003563D02*
X021410Y003563D01*
X021280Y003722D02*
X023580Y003722D01*
X024277Y004039D02*
X022504Y004039D01*
X022660Y004197D02*
X024187Y004197D01*
X024147Y004356D02*
X022660Y004356D01*
X022660Y004514D02*
X024147Y004514D01*
X024209Y004673D02*
X022579Y004673D01*
X022440Y004831D02*
X024329Y004831D01*
X024310Y004990D02*
X022455Y004990D01*
X022614Y005148D02*
X024201Y005148D01*
X024147Y005307D02*
X022660Y005307D01*
X022660Y005465D02*
X024147Y005465D01*
X024195Y005624D02*
X023800Y005624D01*
X023808Y005632D02*
X023808Y006154D01*
X023691Y006271D01*
X023690Y006271D01*
X023690Y006515D01*
X023691Y006515D01*
X023808Y006632D01*
X023808Y007154D01*
X023691Y007271D01*
X023487Y007271D01*
X023660Y007445D01*
X023660Y007735D01*
X023731Y007663D01*
X024129Y007663D01*
X024410Y007945D01*
X024410Y008342D01*
X024129Y008623D01*
X023731Y008623D01*
X023640Y008532D01*
X023640Y008643D01*
X023180Y008643D01*
X023180Y008183D01*
X023371Y008183D01*
X023450Y008263D01*
X023450Y008052D01*
X023379Y008123D01*
X022981Y008123D01*
X022700Y007842D01*
X022700Y007445D01*
X022981Y007163D01*
X023061Y007163D01*
X023052Y007154D01*
X023052Y006632D01*
X023169Y006515D01*
X023170Y006515D01*
X023170Y006271D01*
X023169Y006271D01*
X023052Y006154D01*
X023052Y005632D01*
X023169Y005515D01*
X023691Y005515D01*
X023808Y005632D01*
X023808Y005782D02*
X024296Y005782D01*
X024376Y005941D02*
X023808Y005941D01*
X023808Y006099D02*
X024241Y006099D01*
X024179Y006258D02*
X023705Y006258D01*
X023690Y006416D02*
X024167Y006416D01*
X024203Y006575D02*
X023751Y006575D01*
X023808Y006733D02*
X024294Y006733D01*
X024503Y006892D02*
X023808Y006892D01*
X023808Y007050D02*
X025170Y007050D01*
X025170Y006892D02*
X024951Y006892D01*
X024746Y006892D02*
X024709Y006892D01*
X024709Y006733D02*
X024746Y006733D01*
X024746Y006575D02*
X024709Y006575D01*
X024709Y006416D02*
X024746Y006416D01*
X025161Y006733D02*
X025170Y006733D01*
X025170Y007209D02*
X023754Y007209D01*
X023583Y007367D02*
X025088Y007367D01*
X024930Y007526D02*
X023660Y007526D01*
X023660Y007684D02*
X023710Y007684D01*
X024150Y007684D02*
X024771Y007684D01*
X024670Y007843D02*
X024308Y007843D01*
X024410Y008001D02*
X024670Y008001D01*
X024670Y008160D02*
X024410Y008160D01*
X024410Y008318D02*
X024670Y008318D01*
X024670Y008477D02*
X024275Y008477D01*
X024670Y008635D02*
X023640Y008635D01*
X023640Y008643D02*
X023640Y008834D01*
X023371Y009103D01*
X023180Y009103D01*
X022989Y009103D01*
X022720Y008834D01*
X022720Y008643D01*
X022720Y008453D01*
X022989Y008183D01*
X023180Y008183D01*
X023180Y008643D01*
X023180Y008643D01*
X022720Y008643D01*
X023180Y008643D01*
X023180Y008643D01*
X023180Y008643D01*
X023640Y008643D01*
X023640Y008794D02*
X024670Y008794D01*
X024670Y008952D02*
X023522Y008952D01*
X023180Y008952D02*
X023180Y008952D01*
X023180Y009103D02*
X023180Y008643D01*
X023180Y008643D01*
X023180Y009103D01*
X022838Y008952D02*
X021690Y008952D01*
X021690Y008794D02*
X022720Y008794D01*
X022720Y008635D02*
X021690Y008635D01*
X021690Y008477D02*
X022720Y008477D01*
X022854Y008318D02*
X022434Y008318D01*
X022379Y008373D02*
X021981Y008373D01*
X021700Y008092D01*
X021700Y007695D01*
X021981Y007413D01*
X022379Y007413D01*
X022660Y007695D01*
X022660Y008092D01*
X022379Y008373D01*
X022592Y008160D02*
X023450Y008160D01*
X023180Y008318D02*
X023180Y008318D01*
X023180Y008477D02*
X023180Y008477D01*
X023180Y008635D02*
X023180Y008635D01*
X023180Y008794D02*
X023180Y008794D01*
X022879Y009413D02*
X022481Y009413D01*
X022200Y009695D01*
X022200Y010092D01*
X022481Y010373D01*
X022879Y010373D01*
X023160Y010092D01*
X023160Y009695D01*
X022879Y009413D01*
X022893Y009428D02*
X024670Y009428D01*
X024670Y009586D02*
X023052Y009586D01*
X023160Y009745D02*
X024670Y009745D01*
X024670Y009903D02*
X023160Y009903D01*
X023160Y010062D02*
X024670Y010062D01*
X024670Y010220D02*
X023032Y010220D01*
X022879Y010413D02*
X022481Y010413D01*
X022200Y010695D01*
X022200Y011092D01*
X022481Y011373D01*
X022879Y011373D01*
X023160Y011092D01*
X023160Y010695D01*
X022879Y010413D01*
X023003Y010537D02*
X024670Y010537D01*
X024670Y010379D02*
X021690Y010379D01*
X021690Y010537D02*
X022357Y010537D01*
X022200Y010696D02*
X021690Y010696D01*
X021690Y010854D02*
X022200Y010854D01*
X022200Y011013D02*
X021690Y011013D01*
X021690Y011171D02*
X022279Y011171D01*
X022438Y011330D02*
X021690Y011330D01*
X021690Y011488D02*
X024670Y011488D01*
X024670Y011330D02*
X022922Y011330D01*
X023081Y011171D02*
X024670Y011171D01*
X024670Y011013D02*
X023160Y011013D01*
X023160Y010854D02*
X024670Y010854D01*
X024670Y010696D02*
X023160Y010696D01*
X022328Y010220D02*
X021690Y010220D01*
X021690Y010062D02*
X022200Y010062D01*
X022200Y009903D02*
X021690Y009903D01*
X021690Y009745D02*
X022200Y009745D01*
X022308Y009586D02*
X021690Y009586D01*
X021690Y009428D02*
X022467Y009428D01*
X021690Y009269D02*
X024670Y009269D01*
X024670Y009111D02*
X021690Y009111D01*
X021170Y009111D02*
X021113Y009111D01*
X021140Y009084D02*
X020871Y009353D01*
X020680Y009353D01*
X020489Y009353D01*
X020220Y009084D01*
X020220Y008893D01*
X020220Y008703D01*
X020489Y008433D01*
X020680Y008433D01*
X020871Y008433D01*
X021140Y008703D01*
X021140Y008893D01*
X020680Y008893D01*
X020680Y008433D01*
X020680Y008893D01*
X020680Y008893D01*
X020220Y008893D01*
X020680Y008893D01*
X020680Y008893D01*
X020680Y008893D01*
X021140Y008893D01*
X021140Y009084D01*
X021140Y008952D02*
X021170Y008952D01*
X021170Y008794D02*
X021140Y008794D01*
X021170Y008635D02*
X021073Y008635D01*
X021170Y008477D02*
X020914Y008477D01*
X020680Y008477D02*
X020680Y008477D01*
X020680Y008635D02*
X020680Y008635D01*
X020680Y008794D02*
X020680Y008794D01*
X020680Y008893D02*
X020680Y009353D01*
X020680Y008893D01*
X020680Y008893D01*
X020680Y008952D02*
X020680Y008952D01*
X020680Y009111D02*
X020680Y009111D01*
X020680Y009269D02*
X020680Y009269D01*
X020955Y009269D02*
X021170Y009269D01*
X021170Y009428D02*
X014824Y009428D01*
X014910Y009342D02*
X014629Y009623D01*
X014231Y009623D01*
X013950Y009342D01*
X013950Y008945D01*
X014231Y008663D01*
X014629Y008663D01*
X014910Y008945D01*
X014910Y009342D01*
X014910Y009269D02*
X020405Y009269D01*
X020247Y009111D02*
X014910Y009111D01*
X014910Y008952D02*
X020220Y008952D01*
X020220Y008794D02*
X014759Y008794D01*
X014101Y008794D02*
X010759Y008794D01*
X010629Y008663D02*
X010910Y008945D01*
X010910Y009342D01*
X010629Y009623D01*
X010231Y009623D01*
X009950Y009342D01*
X009950Y008945D01*
X010231Y008663D01*
X010629Y008663D01*
X010910Y008952D02*
X013950Y008952D01*
X013950Y009111D02*
X010910Y009111D01*
X010910Y009269D02*
X013950Y009269D01*
X014036Y009428D02*
X010824Y009428D01*
X010666Y009586D02*
X014194Y009586D01*
X014666Y009586D02*
X021170Y009586D01*
X021170Y009745D02*
X020003Y009745D01*
X019858Y009600D02*
X020323Y010065D01*
X020323Y010722D01*
X019858Y011186D01*
X019201Y011186D01*
X018737Y010722D01*
X018737Y010065D01*
X019201Y009600D01*
X019858Y009600D01*
X020162Y009903D02*
X021170Y009903D01*
X021170Y010062D02*
X020320Y010062D01*
X020323Y010220D02*
X021170Y010220D01*
X021170Y010379D02*
X020323Y010379D01*
X020323Y010537D02*
X021170Y010537D01*
X021170Y010696D02*
X020323Y010696D01*
X020191Y010854D02*
X021170Y010854D01*
X021170Y011013D02*
X020032Y011013D01*
X019874Y011171D02*
X021170Y011171D01*
X021170Y011330D02*
X013660Y011330D01*
X013660Y011342D02*
X013379Y011623D01*
X012981Y011623D01*
X012700Y011342D01*
X012700Y011052D01*
X012629Y011123D01*
X012231Y011123D01*
X011950Y010842D01*
X011950Y010445D01*
X012231Y010163D01*
X012629Y010163D01*
X012720Y010255D01*
X012720Y010143D01*
X012720Y009953D01*
X012989Y009683D01*
X013180Y009683D01*
X013371Y009683D01*
X013640Y009953D01*
X013640Y010143D01*
X013180Y010143D01*
X013180Y009683D01*
X013180Y010143D01*
X013180Y010143D01*
X012720Y010143D01*
X013180Y010143D01*
X013180Y010143D01*
X013180Y010143D01*
X013640Y010143D01*
X013640Y010334D01*
X013371Y010603D01*
X013180Y010603D01*
X012989Y010603D01*
X012910Y010524D01*
X012910Y010735D01*
X012981Y010663D01*
X013379Y010663D01*
X013660Y010945D01*
X013660Y011342D01*
X013660Y011171D02*
X015486Y011171D01*
X015501Y011186D02*
X015037Y010722D01*
X015037Y010065D01*
X015501Y009600D01*
X016158Y009600D01*
X016623Y010065D01*
X016623Y010722D01*
X016158Y011186D01*
X015501Y011186D01*
X015328Y011013D02*
X013660Y011013D01*
X013570Y010854D02*
X015169Y010854D01*
X015037Y010696D02*
X013411Y010696D01*
X013437Y010537D02*
X015037Y010537D01*
X015037Y010379D02*
X013595Y010379D01*
X013640Y010220D02*
X015037Y010220D01*
X015040Y010062D02*
X013640Y010062D01*
X013591Y009903D02*
X015198Y009903D01*
X015357Y009745D02*
X013432Y009745D01*
X013180Y009745D02*
X013180Y009745D01*
X013180Y009903D02*
X013180Y009903D01*
X013180Y010062D02*
X013180Y010062D01*
X013180Y010143D02*
X013180Y010603D01*
X013180Y010143D01*
X013180Y010143D01*
X013180Y010220D02*
X013180Y010220D01*
X013180Y010379D02*
X013180Y010379D01*
X013180Y010537D02*
X013180Y010537D01*
X012923Y010537D02*
X012910Y010537D01*
X012910Y010696D02*
X012949Y010696D01*
X012720Y010220D02*
X012686Y010220D01*
X012720Y010062D02*
X011910Y010062D01*
X011910Y009945D02*
X011629Y009663D01*
X011231Y009663D01*
X010950Y009945D01*
X010950Y010342D01*
X011231Y010623D01*
X011629Y010623D01*
X011910Y010342D01*
X011910Y009945D01*
X011869Y009903D02*
X012769Y009903D01*
X012928Y009745D02*
X011710Y009745D01*
X011910Y010220D02*
X012174Y010220D01*
X012016Y010379D02*
X011873Y010379D01*
X011950Y010537D02*
X011715Y010537D01*
X011950Y010696D02*
X009217Y010696D01*
X009217Y010668D02*
X009217Y010828D01*
X009057Y010828D01*
X009057Y010668D01*
X009217Y010668D01*
X010028Y010668D01*
X010028Y010379D01*
X010987Y010379D01*
X010950Y010220D02*
X009870Y010220D01*
X010028Y010379D02*
X009506Y009856D01*
X009217Y009856D01*
X009217Y010668D01*
X009217Y010537D02*
X009057Y010537D01*
X009057Y010379D02*
X009217Y010379D01*
X009217Y010220D02*
X009057Y010220D01*
X009057Y010062D02*
X009217Y010062D01*
X009217Y009903D02*
X009057Y009903D01*
X008721Y009903D02*
X008308Y009903D01*
X008311Y009745D02*
X008151Y009745D01*
X008151Y009586D02*
X008311Y009586D01*
X008311Y009428D02*
X008151Y009428D01*
X008151Y009269D02*
X008311Y009269D01*
X008311Y009111D02*
X008151Y009111D01*
X008151Y008952D02*
X006107Y008952D01*
X005948Y008794D02*
X007340Y008794D01*
X007340Y008817D02*
X007340Y008528D01*
X007862Y008006D01*
X008151Y008006D01*
X008151Y008817D01*
X007340Y008817D01*
X007340Y008635D02*
X005790Y008635D01*
X005631Y008477D02*
X007391Y008477D01*
X007550Y008318D02*
X005473Y008318D01*
X005314Y008160D02*
X007708Y008160D01*
X008151Y008160D02*
X008311Y008160D01*
X008311Y008318D02*
X008151Y008318D01*
X008151Y008477D02*
X008311Y008477D01*
X008311Y008635D02*
X008151Y008635D01*
X008151Y008794D02*
X008311Y008794D01*
X008311Y008952D02*
X009950Y008952D01*
X009950Y009111D02*
X009122Y009111D01*
X009119Y009269D02*
X009950Y009269D01*
X010036Y009428D02*
X008961Y009428D01*
X008802Y009586D02*
X010194Y009586D01*
X009711Y010062D02*
X010950Y010062D01*
X010991Y009903D02*
X009553Y009903D01*
X008644Y009745D02*
X011150Y009745D01*
X011145Y010537D02*
X010028Y010537D01*
X010028Y010828D02*
X010028Y011117D01*
X009506Y011639D01*
X009217Y011639D01*
X009217Y010828D01*
X010028Y010828D01*
X010028Y010854D02*
X011962Y010854D01*
X012121Y011013D02*
X010028Y011013D01*
X009973Y011171D02*
X012700Y011171D01*
X012700Y011330D02*
X009815Y011330D01*
X009656Y011488D02*
X012846Y011488D01*
X013514Y011488D02*
X020406Y011488D01*
X020248Y011647D02*
X008801Y011647D01*
X008960Y011805D02*
X010089Y011805D01*
X010047Y012439D02*
X002867Y012439D01*
X002709Y012598D02*
X010206Y012598D01*
X010654Y012598D02*
X014234Y012598D01*
X014239Y012603D02*
X013970Y012334D01*
X013970Y012143D01*
X013970Y011953D01*
X014239Y011683D01*
X014430Y011683D01*
X014621Y011683D01*
X014890Y011953D01*
X014890Y012143D01*
X014430Y012143D01*
X014430Y011683D01*
X014430Y012143D01*
X014430Y012143D01*
X013970Y012143D01*
X014430Y012143D01*
X014430Y012143D01*
X014430Y012143D01*
X014890Y012143D01*
X014890Y012334D01*
X014621Y012603D01*
X014430Y012603D01*
X014239Y012603D01*
X014430Y012603D02*
X014430Y012143D01*
X014430Y012143D01*
X014430Y012603D01*
X014430Y012598D02*
X014430Y012598D01*
X014430Y012439D02*
X014430Y012439D01*
X014430Y012281D02*
X014430Y012281D01*
X014430Y012122D02*
X014430Y012122D01*
X014430Y011964D02*
X014430Y011964D01*
X014430Y011805D02*
X014430Y011805D01*
X014743Y011805D02*
X020200Y011805D01*
X020200Y011964D02*
X014890Y011964D01*
X014890Y012122D02*
X020230Y012122D01*
X020389Y012281D02*
X014890Y012281D01*
X014785Y012439D02*
X024516Y012439D01*
X024670Y012281D02*
X020971Y012281D01*
X021449Y012756D02*
X011722Y012756D01*
X011629Y012663D02*
X011231Y012663D01*
X010950Y012945D01*
X010950Y013342D01*
X011231Y013623D01*
X011629Y013623D01*
X011910Y013342D01*
X011910Y012945D01*
X011629Y012663D01*
X011880Y012915D02*
X021291Y012915D01*
X021132Y013073D02*
X016011Y013073D01*
X016140Y013203D02*
X016140Y013393D01*
X015680Y013393D01*
X015680Y012933D01*
X015871Y012933D01*
X016140Y013203D01*
X016140Y013232D02*
X019724Y013232D01*
X019753Y013217D02*
X019822Y013195D01*
X019894Y013183D01*
X019930Y013183D01*
X019966Y013183D01*
X020038Y013195D01*
X020107Y013217D01*
X020171Y013250D01*
X020230Y013292D01*
X020281Y013344D01*
X020323Y013402D01*
X020356Y013467D01*
X020379Y013536D01*
X020390Y013607D01*
X020390Y013643D01*
X019930Y013643D01*
X019930Y013183D01*
X019930Y013643D01*
X019930Y013643D01*
X019930Y013643D01*
X019470Y013643D01*
X019470Y013607D01*
X019481Y013536D01*
X019504Y013467D01*
X019537Y013402D01*
X019579Y013344D01*
X019630Y013292D01*
X019689Y013250D01*
X019753Y013217D01*
X019930Y013232D02*
X019930Y013232D01*
X019930Y013390D02*
X019930Y013390D01*
X019930Y013549D02*
X019930Y013549D01*
X019930Y013643D02*
X019930Y013643D01*
X020390Y013643D01*
X020390Y013680D01*
X020379Y013751D01*
X020356Y013820D01*
X020323Y013884D01*
X020281Y013943D01*
X020230Y013994D01*
X020171Y014037D01*
X020107Y014070D01*
X020038Y014092D01*
X019966Y014103D01*
X019930Y014103D01*
X019930Y013643D01*
X019470Y013643D01*
X019470Y013680D01*
X019481Y013751D01*
X019504Y013820D01*
X019537Y013884D01*
X019579Y013943D01*
X019630Y013994D01*
X019689Y014037D01*
X019753Y014070D01*
X019822Y014092D01*
X019894Y014103D01*
X019930Y014103D01*
X019930Y013643D01*
X019930Y013643D01*
X019930Y013707D02*
X019930Y013707D01*
X019930Y013866D02*
X019930Y013866D01*
X019930Y014024D02*
X019930Y014024D01*
X020188Y014024D02*
X020632Y014024D01*
X020503Y013866D02*
X020333Y013866D01*
X020386Y013707D02*
X020450Y013707D01*
X020450Y013549D02*
X020381Y013549D01*
X020315Y013390D02*
X020515Y013390D01*
X020669Y013232D02*
X020136Y013232D01*
X019545Y013390D02*
X016140Y013390D01*
X016140Y013393D02*
X016140Y013584D01*
X015871Y013853D01*
X015680Y013853D01*
X015489Y013853D01*
X015220Y013584D01*
X015220Y013393D01*
X015220Y013203D01*
X015489Y012933D01*
X015680Y012933D01*
X015680Y013393D01*
X015680Y013393D01*
X015220Y013393D01*
X015680Y013393D01*
X015680Y013393D01*
X015680Y013393D01*
X016140Y013393D01*
X016140Y013549D02*
X019479Y013549D01*
X019474Y013707D02*
X016017Y013707D01*
X015680Y013707D02*
X015680Y013707D01*
X015680Y013853D02*
X015680Y013393D01*
X015680Y013393D01*
X015680Y013853D01*
X015343Y013707D02*
X014122Y013707D01*
X014122Y013549D02*
X015220Y013549D01*
X015220Y013390D02*
X013985Y013390D01*
X013826Y013232D02*
X015220Y013232D01*
X015349Y013073D02*
X013668Y013073D01*
X013311Y013073D02*
X013151Y013073D01*
X013151Y013006D02*
X013151Y013817D01*
X012340Y013817D01*
X012340Y013528D01*
X012862Y013006D01*
X013151Y013006D01*
X013151Y013232D02*
X013311Y013232D01*
X013311Y013390D02*
X013151Y013390D01*
X013151Y013549D02*
X013311Y013549D01*
X013311Y013707D02*
X013151Y013707D01*
X013151Y013866D02*
X009142Y013866D01*
X009142Y014024D02*
X012340Y014024D01*
X012340Y014183D02*
X009142Y014183D01*
X009142Y014275D02*
X008609Y014808D01*
X007854Y014808D01*
X007320Y014275D01*
X007320Y013520D01*
X007854Y012986D01*
X008609Y012986D01*
X009142Y013520D01*
X009142Y014275D01*
X009076Y014341D02*
X012415Y014341D01*
X012573Y014500D02*
X008917Y014500D01*
X008759Y014658D02*
X012732Y014658D01*
X012993Y014817D02*
X017200Y014817D01*
X017200Y014975D02*
X014625Y014975D01*
X014506Y014856D02*
X014217Y014856D01*
X014217Y015668D01*
X015028Y015668D01*
X015028Y015379D01*
X014506Y014856D01*
X014217Y014975D02*
X014057Y014975D01*
X014057Y014856D02*
X013768Y014856D01*
X013246Y015379D01*
X013246Y015668D01*
X014057Y015668D01*
X014057Y014856D01*
X014057Y015134D02*
X014217Y015134D01*
X014217Y015292D02*
X014057Y015292D01*
X014057Y015451D02*
X014217Y015451D01*
X014217Y015609D02*
X014057Y015609D01*
X014057Y015768D02*
X012423Y015768D01*
X012265Y015926D02*
X013246Y015926D01*
X013246Y016085D02*
X011859Y016085D01*
X011780Y016243D02*
X013372Y016243D01*
X013531Y016402D02*
X011621Y016402D01*
X011463Y016560D02*
X013689Y016560D01*
X014584Y016560D02*
X015200Y016560D01*
X015200Y016402D02*
X014743Y016402D01*
X014901Y016243D02*
X015200Y016243D01*
X015310Y016085D02*
X015028Y016085D01*
X015028Y015926D02*
X015468Y015926D01*
X015892Y015926D02*
X017200Y015926D01*
X017200Y015768D02*
X014217Y015768D01*
X015028Y015609D02*
X017285Y015609D01*
X017200Y015695D02*
X017481Y015413D01*
X017879Y015413D01*
X018160Y015695D01*
X018160Y016092D01*
X017879Y016373D01*
X017481Y016373D01*
X017200Y016092D01*
X017200Y015695D01*
X017444Y015451D02*
X015028Y015451D01*
X014942Y015292D02*
X017400Y015292D01*
X017242Y015134D02*
X014783Y015134D01*
X014047Y014341D02*
X023420Y014341D01*
X023420Y014183D02*
X014122Y014183D01*
X014122Y014024D02*
X019672Y014024D01*
X019527Y013866D02*
X013311Y013866D01*
X013311Y014024D02*
X013151Y014024D01*
X013151Y014183D02*
X013311Y014183D01*
X013311Y014341D02*
X013151Y014341D01*
X013151Y014500D02*
X013311Y014500D01*
X013311Y014658D02*
X013151Y014658D01*
X012367Y014817D02*
X005323Y014817D01*
X005323Y014975D02*
X005471Y014975D01*
X005570Y014876D02*
X005323Y015123D01*
X005323Y014622D01*
X004790Y014088D01*
X004035Y014088D01*
X003501Y014622D01*
X003501Y015377D01*
X004035Y015911D01*
X004790Y015911D01*
X005037Y015664D01*
X005037Y016164D01*
X005570Y016698D01*
X006325Y016698D01*
X006859Y016164D01*
X006859Y015410D01*
X006325Y014876D01*
X005570Y014876D01*
X005323Y014658D02*
X007704Y014658D01*
X007545Y014500D02*
X005201Y014500D01*
X005043Y014341D02*
X007387Y014341D01*
X007320Y014183D02*
X004884Y014183D01*
X003940Y014183D02*
X001627Y014183D01*
X001786Y014341D02*
X003782Y014341D01*
X003623Y014500D02*
X001944Y014500D01*
X002103Y014658D02*
X003501Y014658D01*
X003501Y014817D02*
X002114Y014817D01*
X002114Y015119D02*
X002114Y015408D01*
X001592Y015930D01*
X001303Y015930D01*
X001303Y015119D01*
X002114Y015119D01*
X002114Y015134D02*
X003501Y015134D01*
X003501Y015292D02*
X002114Y015292D01*
X002072Y015451D02*
X003575Y015451D01*
X003733Y015609D02*
X001913Y015609D01*
X001755Y015768D02*
X003892Y015768D01*
X003501Y014975D02*
X001303Y014975D01*
X001303Y014817D02*
X001143Y014817D01*
X001143Y014658D02*
X001303Y014658D01*
X001303Y014500D02*
X001143Y014500D01*
X001143Y014341D02*
X001303Y014341D01*
X001303Y014183D02*
X001143Y014183D01*
X000819Y014183D02*
X000380Y014183D01*
X000380Y014341D02*
X000661Y014341D01*
X000502Y014500D02*
X000380Y014500D01*
X001143Y015134D02*
X001303Y015134D01*
X001303Y015292D02*
X001143Y015292D01*
X001143Y015451D02*
X001303Y015451D01*
X001303Y015609D02*
X001143Y015609D01*
X001143Y015768D02*
X001303Y015768D01*
X001303Y015926D02*
X001143Y015926D01*
X000850Y015926D02*
X000380Y015926D01*
X000380Y015768D02*
X000692Y015768D01*
X000533Y015609D02*
X000380Y015609D01*
X000380Y016085D02*
X001645Y016085D01*
X001751Y015978D02*
X001218Y016512D01*
X001218Y017267D01*
X001751Y017801D01*
X002506Y017801D01*
X003040Y017267D01*
X003040Y016512D01*
X002506Y015978D01*
X001751Y015978D01*
X001596Y015926D02*
X005037Y015926D01*
X005037Y015768D02*
X004933Y015768D01*
X005037Y016085D02*
X002613Y016085D01*
X002771Y016243D02*
X005115Y016243D01*
X005274Y016402D02*
X002930Y016402D01*
X003040Y016560D02*
X005432Y016560D01*
X005065Y017194D02*
X007233Y017194D01*
X007391Y017036D02*
X003040Y017036D01*
X003040Y017194D02*
X004295Y017194D01*
X004162Y017353D02*
X002954Y017353D01*
X002795Y017511D02*
X004096Y017511D01*
X004090Y017670D02*
X002637Y017670D01*
X001621Y017670D02*
X001250Y017670D01*
X001236Y017511D02*
X001462Y017511D01*
X001304Y017353D02*
X001172Y017353D01*
X001218Y017194D02*
X001032Y017194D01*
X001218Y017036D02*
X000380Y017036D01*
X000380Y016877D02*
X001218Y016877D01*
X001218Y016719D02*
X000380Y016719D01*
X000380Y016560D02*
X001218Y016560D01*
X001328Y016402D02*
X000380Y016402D01*
X000380Y016243D02*
X001486Y016243D01*
X000698Y017194D02*
X000662Y017194D01*
X000662Y017353D02*
X000698Y017353D01*
X000698Y017511D02*
X000662Y017511D01*
X000662Y017670D02*
X000698Y017670D01*
X000698Y017828D02*
X000662Y017828D01*
X000662Y017987D02*
X000698Y017987D01*
X000698Y018145D02*
X000662Y018145D01*
X000662Y018304D02*
X000698Y018304D01*
X000698Y018462D02*
X000662Y018462D01*
X000662Y018621D02*
X000698Y018621D01*
X000698Y018779D02*
X000662Y018779D01*
X000662Y018938D02*
X000698Y018938D01*
X000698Y019096D02*
X000662Y019096D01*
X000662Y019255D02*
X000698Y019255D01*
X000698Y019413D02*
X000662Y019413D01*
X000662Y019572D02*
X000698Y019572D01*
X001098Y019255D02*
X004234Y019255D01*
X004299Y019096D02*
X001026Y019096D01*
X001170Y018938D02*
X004163Y018938D01*
X004098Y018779D02*
X001235Y018779D01*
X001250Y018621D02*
X004090Y018621D01*
X004116Y018462D02*
X001221Y018462D01*
X001138Y018304D02*
X004185Y018304D01*
X004344Y018145D02*
X000958Y018145D01*
X001135Y017987D02*
X004189Y017987D01*
X004118Y017828D02*
X001219Y017828D01*
X003040Y016877D02*
X007550Y016877D01*
X007708Y016719D02*
X003040Y016719D01*
X005198Y017353D02*
X007074Y017353D01*
X006916Y017511D02*
X005264Y017511D01*
X005270Y017670D02*
X006757Y017670D01*
X006599Y017828D02*
X005806Y017828D01*
X005554Y017828D02*
X005242Y017828D01*
X005280Y017987D02*
X005171Y017987D01*
X005166Y018145D02*
X005016Y018145D01*
X005197Y018938D02*
X005505Y018938D01*
X005511Y019096D02*
X005061Y019096D01*
X005126Y019255D02*
X005262Y019255D01*
X005680Y019643D02*
X005930Y019643D01*
X006680Y018893D01*
X006680Y018143D01*
X007930Y016893D01*
X019680Y016893D01*
X019930Y016643D01*
X020353Y016877D02*
X020533Y016877D01*
X020537Y016884D02*
X020504Y016820D01*
X020481Y016751D01*
X020470Y016680D01*
X020470Y016643D01*
X020470Y016607D01*
X020481Y016536D01*
X020504Y016467D01*
X020537Y016402D01*
X020350Y016402D01*
X020410Y016560D02*
X020477Y016560D01*
X020470Y016643D02*
X020930Y016643D01*
X020930Y016183D01*
X020966Y016183D01*
X021038Y016195D01*
X021107Y016217D01*
X021171Y016250D01*
X021230Y016292D01*
X021281Y016344D01*
X021323Y016402D01*
X021510Y016402D01*
X021523Y016371D02*
X021658Y016236D01*
X021835Y016163D01*
X022025Y016163D01*
X022202Y016236D01*
X022337Y016371D01*
X022410Y016548D01*
X022410Y016739D01*
X022337Y016915D01*
X022202Y017050D01*
X022025Y017123D01*
X021835Y017123D01*
X021658Y017050D01*
X021523Y016915D01*
X021450Y016739D01*
X021450Y016548D01*
X021523Y016371D01*
X021651Y016243D02*
X021158Y016243D01*
X020930Y016243D02*
X020930Y016243D01*
X020930Y016183D02*
X020930Y016643D01*
X020930Y016643D01*
X020930Y016643D01*
X020930Y016643D01*
X021390Y016643D01*
X021390Y016607D01*
X021379Y016536D01*
X021356Y016467D01*
X021323Y016402D01*
X021383Y016560D02*
X021450Y016560D01*
X021390Y016643D02*
X021390Y016680D01*
X021379Y016751D01*
X021356Y016820D01*
X021323Y016884D01*
X021281Y016943D01*
X021230Y016994D01*
X021171Y017037D01*
X021107Y017070D01*
X021038Y017092D01*
X020966Y017103D01*
X020930Y017103D01*
X020894Y017103D01*
X020822Y017092D01*
X020753Y017070D01*
X020689Y017037D01*
X020630Y016994D01*
X020579Y016943D01*
X020537Y016884D01*
X020476Y016719D02*
X020410Y016719D01*
X020470Y016643D02*
X020930Y016643D01*
X021390Y016643D01*
X021384Y016719D02*
X021450Y016719D01*
X021507Y016877D02*
X021327Y016877D01*
X021172Y017036D02*
X021644Y017036D01*
X022216Y017036D02*
X022644Y017036D01*
X022658Y017050D02*
X022523Y016915D01*
X022450Y016739D01*
X022450Y016548D01*
X022523Y016371D01*
X022658Y016236D01*
X022835Y016163D01*
X023025Y016163D01*
X023202Y016236D01*
X023337Y016371D01*
X023410Y016548D01*
X023410Y016739D01*
X023337Y016915D01*
X023202Y017050D01*
X023025Y017123D01*
X022835Y017123D01*
X022658Y017050D01*
X022507Y016877D02*
X022353Y016877D01*
X022410Y016719D02*
X022450Y016719D01*
X022450Y016560D02*
X022410Y016560D01*
X022350Y016402D02*
X022510Y016402D01*
X022651Y016243D02*
X022209Y016243D01*
X023209Y016243D02*
X023920Y016243D01*
X023920Y016085D02*
X018160Y016085D01*
X018160Y015926D02*
X023920Y015926D01*
X023985Y015768D02*
X018160Y015768D01*
X018075Y015609D02*
X024144Y015609D01*
X024147Y015451D02*
X017916Y015451D01*
X017960Y015292D02*
X024147Y015292D01*
X024207Y015134D02*
X023529Y015134D01*
X023716Y014975D02*
X024325Y014975D01*
X024315Y014817D02*
X023874Y014817D01*
X023940Y014658D02*
X024203Y014658D01*
X024147Y014500D02*
X023940Y014500D01*
X023940Y014341D02*
X024147Y014341D01*
X024193Y014183D02*
X023940Y014183D01*
X023940Y014024D02*
X024292Y014024D01*
X023657Y013549D02*
X023410Y013549D01*
X023410Y013707D02*
X023498Y013707D01*
X023420Y013866D02*
X023357Y013866D01*
X023420Y014024D02*
X023228Y014024D01*
X022632Y014024D02*
X022228Y014024D01*
X022357Y013866D02*
X022503Y013866D01*
X022450Y013707D02*
X022410Y013707D01*
X022410Y013549D02*
X022450Y013549D01*
X021632Y014024D02*
X021228Y014024D01*
X021357Y013866D02*
X021503Y013866D01*
X021450Y013707D02*
X021410Y013707D01*
X021410Y013549D02*
X021450Y013549D01*
X023420Y014500D02*
X017965Y014500D01*
X017395Y014500D02*
X013889Y014500D01*
X013730Y014658D02*
X017236Y014658D01*
X015680Y013549D02*
X015680Y013549D01*
X015680Y013390D02*
X015680Y013390D01*
X015680Y013232D02*
X015680Y013232D01*
X015680Y013073D02*
X015680Y013073D01*
X014626Y012598D02*
X024358Y012598D01*
X024670Y012122D02*
X021808Y012122D01*
X021808Y011964D02*
X024670Y011964D01*
X024670Y011805D02*
X021808Y011805D01*
X021808Y011647D02*
X024670Y011647D01*
X025440Y012122D02*
X025450Y012122D01*
X025440Y012281D02*
X025455Y012281D01*
X025440Y012439D02*
X025521Y012439D01*
X025440Y012598D02*
X025701Y012598D01*
X025415Y012756D02*
X026449Y012756D01*
X026608Y012598D02*
X026159Y012598D01*
X026339Y012439D02*
X026521Y012439D01*
X026455Y012281D02*
X026405Y012281D01*
X026410Y012122D02*
X026450Y012122D01*
X026450Y011964D02*
X026410Y011964D01*
X026410Y011805D02*
X026450Y011805D01*
X026450Y011647D02*
X026410Y011647D01*
X026398Y011488D02*
X026462Y011488D01*
X026535Y011330D02*
X026325Y011330D01*
X026117Y011171D02*
X026743Y011171D01*
X027117Y011171D02*
X027743Y011171D01*
X027535Y011330D02*
X027325Y011330D01*
X027398Y011488D02*
X027462Y011488D01*
X027450Y011647D02*
X027410Y011647D01*
X027410Y011805D02*
X027450Y011805D01*
X027450Y011964D02*
X027410Y011964D01*
X027410Y012122D02*
X027450Y012122D01*
X027455Y012281D02*
X027405Y012281D01*
X028169Y013073D02*
X029488Y013073D01*
X029593Y013232D02*
X028328Y013232D01*
X028414Y013390D02*
X030170Y013390D01*
X030170Y013549D02*
X027760Y013549D01*
X027760Y013702D02*
X028414Y013702D01*
X028414Y013926D01*
X027984Y014355D01*
X027760Y014355D01*
X027760Y013702D01*
X027760Y013707D02*
X027600Y013707D01*
X027600Y013549D02*
X026392Y013549D01*
X025974Y013232D02*
X024959Y013232D01*
X025118Y013073D02*
X026132Y013073D01*
X026291Y012915D02*
X025276Y012915D01*
X027600Y013866D02*
X027760Y013866D01*
X027760Y014024D02*
X027600Y014024D01*
X027600Y014183D02*
X027760Y014183D01*
X027760Y014341D02*
X027600Y014341D01*
X027998Y014341D02*
X030170Y014341D01*
X030170Y014183D02*
X028156Y014183D01*
X028315Y014024D02*
X030170Y014024D01*
X030170Y013866D02*
X028414Y013866D01*
X028414Y013707D02*
X030170Y013707D01*
X030690Y013866D02*
X032023Y013866D01*
X031792Y014024D02*
X030690Y014024D01*
X030690Y014183D02*
X031693Y014183D01*
X031647Y014341D02*
X030690Y014341D01*
X030690Y014500D02*
X031647Y014500D01*
X031703Y014658D02*
X030690Y014658D01*
X030690Y014817D02*
X031815Y014817D01*
X031825Y014975D02*
X030690Y014975D01*
X030690Y015134D02*
X031707Y015134D01*
X031647Y015292D02*
X030690Y015292D01*
X030690Y015451D02*
X031647Y015451D01*
X031689Y015609D02*
X030690Y015609D01*
X030690Y015768D02*
X030914Y015768D01*
X030939Y015750D02*
X031003Y015717D01*
X031072Y015695D01*
X031144Y015683D01*
X031180Y015683D01*
X031216Y015683D01*
X031288Y015695D01*
X031357Y015717D01*
X031421Y015750D01*
X031480Y015792D01*
X031531Y015844D01*
X031573Y015902D01*
X031606Y015967D01*
X031629Y016036D01*
X031640Y016107D01*
X031640Y016143D01*
X031180Y016143D01*
X031180Y015683D01*
X031180Y016143D01*
X031180Y016143D01*
X030720Y016143D01*
X030720Y016107D01*
X030731Y016036D01*
X030754Y015967D01*
X030787Y015902D01*
X030829Y015844D01*
X030880Y015792D01*
X030939Y015750D01*
X030774Y015926D02*
X030690Y015926D01*
X030690Y016085D02*
X030724Y016085D01*
X030720Y016143D02*
X031180Y016143D01*
X031180Y016143D01*
X031180Y016143D01*
X031640Y016143D01*
X031640Y016180D01*
X031629Y016251D01*
X031606Y016320D01*
X031573Y016384D01*
X031531Y016443D01*
X031480Y016494D01*
X031421Y016537D01*
X031357Y016570D01*
X031288Y016592D01*
X031216Y016603D01*
X031180Y016603D01*
X031144Y016603D01*
X031072Y016592D01*
X031003Y016570D01*
X030939Y016537D01*
X030880Y016494D01*
X030829Y016443D01*
X030787Y016384D01*
X030754Y016320D01*
X030731Y016251D01*
X030720Y016180D01*
X030720Y016143D01*
X030730Y016243D02*
X030690Y016243D01*
X030690Y016402D02*
X030799Y016402D01*
X030690Y016560D02*
X030985Y016560D01*
X031180Y016560D02*
X031180Y016560D01*
X031180Y016603D02*
X031180Y016143D01*
X031180Y016143D01*
X031180Y016603D01*
X031375Y016560D02*
X031698Y016560D01*
X031667Y016402D02*
X031561Y016402D01*
X031630Y016243D02*
X031682Y016243D01*
X031636Y016085D02*
X031748Y016085D01*
X031896Y015926D02*
X031586Y015926D01*
X031446Y015768D02*
X031782Y015768D01*
X031180Y015768D02*
X031180Y015768D01*
X031180Y015926D02*
X031180Y015926D01*
X031180Y016085D02*
X031180Y016085D01*
X031180Y016243D02*
X031180Y016243D01*
X031180Y016402D02*
X031180Y016402D01*
X030690Y016719D02*
X031783Y016719D01*
X031975Y016877D02*
X030690Y016877D01*
X030690Y017353D02*
X034446Y017353D01*
X034489Y017511D02*
X030690Y017511D01*
X030690Y017670D02*
X034647Y017670D01*
X034806Y017828D02*
X030733Y017828D01*
X030473Y018304D02*
X030387Y018304D01*
X030229Y018462D02*
X030631Y018462D01*
X029969Y017987D02*
X027808Y017987D01*
X027808Y018145D02*
X029810Y018145D01*
X029652Y018304D02*
X029269Y018304D01*
X028591Y018304D02*
X027808Y018304D01*
X027750Y018462D02*
X028485Y018462D01*
X028450Y018621D02*
X027690Y018621D01*
X027690Y018779D02*
X028467Y018779D01*
X028546Y018938D02*
X027690Y018938D01*
X027690Y019096D02*
X028769Y019096D01*
X029129Y019413D02*
X029481Y019413D01*
X029323Y019572D02*
X029287Y019572D01*
X029879Y019413D02*
X030772Y019413D01*
X030960Y019572D02*
X030037Y019572D01*
X030160Y019730D02*
X032200Y019730D01*
X032200Y019889D02*
X030160Y019889D01*
X030160Y020047D02*
X032200Y020047D01*
X032323Y019572D02*
X031400Y019572D01*
X031588Y019413D02*
X032481Y019413D01*
X034058Y019572D02*
X034302Y019572D01*
X035058Y019572D02*
X035302Y019572D01*
X036058Y019572D02*
X036302Y019572D01*
X037058Y019572D02*
X037334Y019572D01*
X037200Y019413D02*
X037185Y019413D01*
X037660Y019413D02*
X037700Y019413D01*
X037700Y019255D02*
X037660Y019255D01*
X037660Y019096D02*
X037700Y019096D01*
X037700Y018938D02*
X037660Y018938D01*
X037660Y018779D02*
X037700Y018779D01*
X037700Y018621D02*
X037660Y018621D01*
X037508Y018621D02*
X036908Y018621D01*
X036729Y018462D02*
X039350Y018462D01*
X039350Y018304D02*
X039198Y018304D01*
X038700Y018779D02*
X038660Y018779D01*
X038660Y018938D02*
X038700Y018938D01*
X038700Y019096D02*
X038660Y019096D01*
X038660Y019255D02*
X038700Y019255D01*
X038700Y019413D02*
X038660Y019413D01*
X038660Y019572D02*
X038700Y019572D01*
X038334Y019572D02*
X038026Y019572D01*
X038160Y019413D02*
X038200Y019413D01*
X037700Y019572D02*
X037660Y019572D01*
X037266Y018779D02*
X037122Y018779D01*
X037852Y018621D02*
X038508Y018621D01*
X038266Y018779D02*
X038094Y018779D01*
X035260Y017828D02*
X035100Y017828D01*
X035100Y017670D02*
X035260Y017670D01*
X035260Y017511D02*
X035100Y017511D01*
X035100Y017353D02*
X035260Y017353D01*
X035260Y016877D02*
X035100Y016877D01*
X035100Y016719D02*
X035260Y016719D01*
X035260Y016560D02*
X035100Y016560D01*
X034452Y018621D02*
X033908Y018621D01*
X034122Y018779D02*
X034238Y018779D01*
X030170Y017670D02*
X028213Y017670D01*
X028371Y017511D02*
X030170Y017511D01*
X030170Y017353D02*
X028414Y017353D01*
X028054Y017828D02*
X030127Y017828D01*
X027760Y016877D02*
X027600Y016877D01*
X027600Y016719D02*
X027760Y016719D01*
X027760Y016560D02*
X027600Y016560D01*
X027247Y016560D02*
X025257Y016560D01*
X025171Y016719D02*
X027089Y016719D01*
X026946Y016877D02*
X024980Y016877D01*
X024746Y016877D02*
X024709Y016877D01*
X024709Y016719D02*
X024746Y016719D01*
X024746Y016560D02*
X024709Y016560D01*
X024709Y016402D02*
X024746Y016402D01*
X024475Y016877D02*
X024440Y016877D01*
X024440Y017036D02*
X024648Y017036D01*
X024552Y017194D02*
X024440Y017194D01*
X024440Y017353D02*
X024552Y017353D01*
X024552Y017511D02*
X024440Y017511D01*
X024440Y017670D02*
X024567Y017670D01*
X024670Y017828D02*
X024440Y017828D01*
X024440Y017987D02*
X024670Y017987D01*
X024670Y018145D02*
X024440Y018145D01*
X024440Y018304D02*
X024591Y018304D01*
X024450Y018462D02*
X024440Y018462D01*
X024440Y018621D02*
X024450Y018621D01*
X024440Y018779D02*
X024450Y018779D01*
X024440Y018938D02*
X024546Y018938D01*
X024440Y019096D02*
X024704Y019096D01*
X024440Y019255D02*
X027170Y019255D01*
X025769Y019096D02*
X025156Y019096D01*
X025314Y018938D02*
X025546Y018938D01*
X025467Y018779D02*
X025410Y018779D01*
X025410Y018621D02*
X025450Y018621D01*
X025485Y018462D02*
X025410Y018462D01*
X023920Y018462D02*
X022410Y018462D01*
X022410Y018621D02*
X023920Y018621D01*
X023920Y018779D02*
X022410Y018779D01*
X022314Y018938D02*
X023920Y018938D01*
X023920Y019096D02*
X022190Y019096D01*
X022190Y019255D02*
X023920Y019255D01*
X023920Y019413D02*
X022190Y019413D01*
X022287Y019572D02*
X023991Y019572D01*
X024149Y019730D02*
X022410Y019730D01*
X022410Y019889D02*
X024308Y019889D01*
X024450Y020047D02*
X022410Y020047D01*
X021573Y019572D02*
X020235Y019572D01*
X020235Y019643D02*
X020235Y019413D01*
X020235Y019643D02*
X019680Y019643D01*
X019680Y019643D01*
X019680Y019088D01*
X019450Y019088D01*
X019125Y019413D01*
X019125Y019572D02*
X017808Y019572D01*
X017052Y019572D02*
X016808Y019572D01*
X016052Y019572D02*
X015808Y019572D01*
X015052Y019572D02*
X014808Y019572D01*
X014052Y019572D02*
X013779Y019572D01*
X013450Y019572D02*
X013410Y019572D01*
X013410Y019693D02*
X013202Y019693D01*
X012930Y019421D01*
X012658Y019693D01*
X012450Y019693D01*
X012450Y019163D01*
X013410Y019163D01*
X013410Y019693D01*
X013081Y019572D02*
X012779Y019572D01*
X012450Y019572D02*
X012410Y019572D01*
X012410Y019693D02*
X012202Y019693D01*
X011930Y019421D01*
X011658Y019693D01*
X011450Y019693D01*
X011450Y019163D01*
X012410Y019163D01*
X012410Y019123D01*
X012450Y019123D01*
X012450Y018593D01*
X012450Y018163D01*
X013410Y018163D01*
X013410Y019123D01*
X012980Y019123D01*
X012450Y019123D01*
X012450Y019163D01*
X012410Y019163D01*
X012410Y019693D01*
X012081Y019572D02*
X011779Y019572D01*
X011450Y019572D02*
X011410Y019572D01*
X011410Y019693D02*
X011202Y019693D01*
X010944Y019435D01*
X010666Y019713D01*
X010194Y019713D01*
X009860Y019379D01*
X009860Y018907D01*
X010124Y018643D01*
X009860Y018379D01*
X009860Y017907D01*
X010194Y017573D01*
X010666Y017573D01*
X010944Y017851D01*
X011202Y017593D01*
X011410Y017593D01*
X011410Y018123D01*
X011450Y018123D01*
X011450Y017593D01*
X011658Y017593D01*
X011930Y017866D01*
X012202Y017593D01*
X012410Y017593D01*
X012410Y018123D01*
X012450Y018123D01*
X012450Y017593D01*
X012658Y017593D01*
X012930Y017866D01*
X013202Y017593D01*
X013410Y017593D01*
X013410Y018123D01*
X012980Y018123D01*
X012450Y018123D01*
X012450Y018163D01*
X012410Y018163D01*
X012410Y018123D01*
X011880Y018123D01*
X011450Y018123D01*
X011450Y018163D01*
X012410Y018163D01*
X012410Y019123D01*
X011880Y019123D01*
X011450Y019123D01*
X011450Y018593D01*
X011450Y018163D01*
X011410Y018163D01*
X011410Y019123D01*
X011450Y019123D01*
X011450Y019163D01*
X011410Y019163D01*
X011410Y019693D01*
X011081Y019572D02*
X010808Y019572D01*
X011410Y019413D02*
X011450Y019413D01*
X011450Y019255D02*
X011410Y019255D01*
X011410Y019096D02*
X011450Y019096D01*
X011450Y018938D02*
X011410Y018938D01*
X011410Y018779D02*
X011450Y018779D01*
X011450Y018621D02*
X011410Y018621D01*
X011410Y018462D02*
X011450Y018462D01*
X011450Y018304D02*
X011410Y018304D01*
X011450Y018145D02*
X012410Y018145D01*
X012450Y018145D02*
X013410Y018145D01*
X013410Y017987D02*
X013450Y017987D01*
X013450Y017828D02*
X013410Y017828D01*
X013410Y017670D02*
X013450Y017670D01*
X013734Y017670D02*
X014097Y017670D01*
X013939Y017828D02*
X013893Y017828D01*
X013450Y018304D02*
X013410Y018304D01*
X013410Y018462D02*
X013450Y018462D01*
X013450Y018621D02*
X013410Y018621D01*
X013410Y018779D02*
X013450Y018779D01*
X013450Y018938D02*
X013410Y018938D01*
X013410Y019096D02*
X013450Y019096D01*
X013450Y019255D02*
X013410Y019255D01*
X013410Y019413D02*
X013450Y019413D01*
X012450Y019413D02*
X012410Y019413D01*
X012410Y019255D02*
X012450Y019255D01*
X012450Y019096D02*
X012410Y019096D01*
X012410Y018938D02*
X012450Y018938D01*
X012450Y018779D02*
X012410Y018779D01*
X012410Y018621D02*
X012450Y018621D01*
X012450Y018462D02*
X012410Y018462D01*
X012410Y018304D02*
X012450Y018304D01*
X012450Y017987D02*
X012410Y017987D01*
X012410Y017828D02*
X012450Y017828D01*
X012450Y017670D02*
X012410Y017670D01*
X012126Y017670D02*
X011734Y017670D01*
X011893Y017828D02*
X011967Y017828D01*
X012734Y017670D02*
X013126Y017670D01*
X012967Y017828D02*
X012893Y017828D01*
X011450Y017828D02*
X011410Y017828D01*
X011410Y017670D02*
X011450Y017670D01*
X011450Y017987D02*
X011410Y017987D01*
X011126Y017670D02*
X010763Y017670D01*
X010921Y017828D02*
X010967Y017828D01*
X010097Y017670D02*
X009500Y017670D01*
X009492Y017511D02*
X019112Y017511D01*
X019105Y017670D02*
X017763Y017670D01*
X017921Y017828D02*
X019134Y017828D01*
X019210Y017987D02*
X018000Y017987D01*
X018000Y018145D02*
X019389Y018145D01*
X019971Y018145D02*
X023920Y018145D01*
X023920Y017987D02*
X020150Y017987D01*
X020226Y017828D02*
X023920Y017828D01*
X023920Y017670D02*
X020255Y017670D01*
X020248Y017511D02*
X023920Y017511D01*
X023920Y017353D02*
X020182Y017353D01*
X020044Y017194D02*
X023920Y017194D01*
X023920Y017036D02*
X023216Y017036D01*
X023353Y016877D02*
X023920Y016877D01*
X023920Y016719D02*
X023410Y016719D01*
X023410Y016560D02*
X023920Y016560D01*
X023920Y016402D02*
X023350Y016402D01*
X025212Y017036D02*
X026946Y017036D01*
X023920Y018304D02*
X022269Y018304D01*
X021591Y018304D02*
X018000Y018304D01*
X017917Y018462D02*
X021450Y018462D01*
X021450Y018621D02*
X017759Y018621D01*
X017872Y018779D02*
X021450Y018779D01*
X019680Y019096D02*
X019680Y019096D01*
X019680Y019255D02*
X019680Y019255D01*
X019680Y019413D02*
X019680Y019413D01*
X019680Y019572D02*
X019680Y019572D01*
X019680Y019643D02*
X019680Y019643D01*
X019125Y019643D01*
X019680Y019643D01*
X019680Y019643D01*
X020235Y019730D02*
X021450Y019730D01*
X021450Y019889D02*
X020219Y019889D01*
X020061Y020047D02*
X021450Y020047D01*
X019299Y020047D02*
X009332Y020047D01*
X009445Y019889D02*
X019141Y019889D01*
X019125Y019730D02*
X009500Y019730D01*
X009500Y019572D02*
X010052Y019572D01*
X009894Y019413D02*
X009452Y019413D01*
X009348Y019255D02*
X009860Y019255D01*
X009860Y019096D02*
X009099Y019096D01*
X008761Y019096D02*
X007849Y019096D01*
X007793Y018963D02*
X007567Y018963D01*
X007357Y018877D01*
X007197Y018716D01*
X007110Y018507D01*
X007110Y018280D01*
X007197Y018070D01*
X007357Y017910D01*
X007567Y017823D01*
X007793Y017823D01*
X008003Y017910D01*
X008163Y018070D01*
X008250Y018280D01*
X008250Y018507D01*
X008163Y018716D01*
X008003Y018877D01*
X007793Y018963D01*
X007855Y018938D02*
X009860Y018938D01*
X009988Y018779D02*
X008100Y018779D01*
X008203Y018621D02*
X010101Y018621D01*
X009943Y018462D02*
X008250Y018462D01*
X008250Y018304D02*
X009860Y018304D01*
X009860Y018145D02*
X009207Y018145D01*
X009393Y017987D02*
X009860Y017987D01*
X009939Y017828D02*
X009470Y017828D01*
X009427Y017353D02*
X019178Y017353D01*
X019316Y017194D02*
X009287Y017194D01*
X009584Y016560D02*
X010432Y016560D01*
X010274Y016402D02*
X009743Y016402D01*
X009901Y016243D02*
X010115Y016243D01*
X010037Y016085D02*
X010028Y016085D01*
X010028Y015926D02*
X010037Y015926D01*
X010037Y015768D02*
X009217Y015768D01*
X009217Y015668D02*
X010028Y015668D01*
X010028Y015379D01*
X009506Y014856D01*
X009217Y014856D01*
X009217Y015668D01*
X009217Y015609D02*
X009057Y015609D01*
X009057Y015668D02*
X009057Y014856D01*
X008768Y014856D01*
X008246Y015379D01*
X008246Y015668D01*
X009057Y015668D01*
X009057Y015768D02*
X006859Y015768D01*
X006859Y015926D02*
X008246Y015926D01*
X008246Y016085D02*
X006859Y016085D01*
X006780Y016243D02*
X008372Y016243D01*
X008531Y016402D02*
X006621Y016402D01*
X006463Y016560D02*
X008689Y016560D01*
X008573Y017194D02*
X008025Y017194D01*
X007866Y017353D02*
X008433Y017353D01*
X008368Y017511D02*
X007708Y017511D01*
X007549Y017670D02*
X008360Y017670D01*
X008390Y017828D02*
X007806Y017828D01*
X007554Y017828D02*
X007391Y017828D01*
X007280Y017987D02*
X007232Y017987D01*
X007166Y018145D02*
X007074Y018145D01*
X007110Y018304D02*
X006960Y018304D01*
X006960Y018462D02*
X007110Y018462D01*
X007157Y018621D02*
X006960Y018621D01*
X006960Y018779D02*
X007260Y018779D01*
X007505Y018938D02*
X006960Y018938D01*
X006873Y019096D02*
X007511Y019096D01*
X007262Y019255D02*
X006714Y019255D01*
X006556Y019413D02*
X007158Y019413D01*
X007110Y019572D02*
X006397Y019572D01*
X006250Y019730D02*
X007110Y019730D01*
X007165Y019889D02*
X006195Y019889D01*
X006082Y020047D02*
X007278Y020047D01*
X008082Y020047D02*
X008528Y020047D01*
X008415Y019889D02*
X008195Y019889D01*
X008250Y019730D02*
X008360Y019730D01*
X008360Y019572D02*
X008250Y019572D01*
X008202Y019413D02*
X008408Y019413D01*
X008512Y019255D02*
X008098Y019255D01*
X006398Y018779D02*
X006100Y018779D01*
X006203Y018621D02*
X006400Y018621D01*
X006400Y018462D02*
X006250Y018462D01*
X006250Y018304D02*
X006400Y018304D01*
X006400Y018145D02*
X006194Y018145D01*
X006080Y017987D02*
X006442Y017987D01*
X006239Y018938D02*
X005855Y018938D01*
X005849Y019096D02*
X006081Y019096D01*
X004137Y019413D02*
X001203Y019413D01*
X001246Y019572D02*
X004090Y019572D01*
X004090Y019730D02*
X001243Y019730D01*
X001195Y019889D02*
X004143Y019889D01*
X004250Y020047D02*
X001082Y020047D01*
X008080Y017987D02*
X008467Y017987D01*
X008653Y018145D02*
X008194Y018145D01*
X008246Y015609D02*
X006859Y015609D01*
X006859Y015451D02*
X008246Y015451D01*
X008332Y015292D02*
X006742Y015292D01*
X006583Y015134D02*
X008490Y015134D01*
X008649Y014975D02*
X006425Y014975D01*
X007320Y014024D02*
X000380Y014024D01*
X000380Y013866D02*
X007320Y013866D01*
X007320Y013707D02*
X000380Y013707D01*
X000380Y013549D02*
X007320Y013549D01*
X007449Y013390D02*
X000380Y013390D01*
X000380Y013232D02*
X007608Y013232D01*
X007766Y013073D02*
X000380Y013073D01*
X000380Y012915D02*
X010980Y012915D01*
X010950Y013073D02*
X008696Y013073D01*
X008854Y013232D02*
X010950Y013232D01*
X010998Y013390D02*
X009013Y013390D01*
X009142Y013549D02*
X011157Y013549D01*
X011703Y013549D02*
X012340Y013549D01*
X012340Y013707D02*
X009142Y013707D01*
X011138Y012756D02*
X002550Y012756D01*
X002506Y012801D02*
X001751Y012801D01*
X001218Y012267D01*
X001218Y011512D01*
X001751Y010978D01*
X002506Y010978D01*
X003040Y011512D01*
X003040Y012267D01*
X002506Y012801D01*
X003026Y012281D02*
X008700Y012281D01*
X008710Y012291D02*
X008710Y012291D01*
X008541Y012122D02*
X003040Y012122D01*
X003040Y011964D02*
X008383Y011964D01*
X008224Y011805D02*
X003040Y011805D01*
X003040Y011647D02*
X005519Y011647D01*
X005360Y011488D02*
X003016Y011488D01*
X002858Y011330D02*
X005202Y011330D01*
X005043Y011171D02*
X002699Y011171D01*
X002541Y011013D02*
X005037Y011013D01*
X005037Y010854D02*
X004846Y010854D01*
X005005Y010696D02*
X005037Y010696D01*
X003978Y010854D02*
X001668Y010854D01*
X001592Y010930D02*
X001303Y010930D01*
X001303Y010119D01*
X002114Y010119D01*
X002114Y010408D01*
X001592Y010930D01*
X001717Y011013D02*
X000380Y011013D01*
X000380Y011171D02*
X001558Y011171D01*
X001400Y011330D02*
X000380Y011330D01*
X000380Y011488D02*
X001241Y011488D01*
X001218Y011647D02*
X000380Y011647D01*
X000380Y011805D02*
X001218Y011805D01*
X001218Y011964D02*
X000380Y011964D01*
X000380Y012122D02*
X001218Y012122D01*
X001232Y012281D02*
X000380Y012281D01*
X000380Y012439D02*
X001390Y012439D01*
X001549Y012598D02*
X000380Y012598D01*
X000380Y012756D02*
X001707Y012756D01*
X001303Y010854D02*
X001143Y010854D01*
X001143Y010696D02*
X001303Y010696D01*
X001303Y010537D02*
X001143Y010537D01*
X001143Y010379D02*
X001303Y010379D01*
X001303Y010220D02*
X001143Y010220D01*
X001303Y010062D02*
X003501Y010062D01*
X003501Y010220D02*
X002114Y010220D01*
X002114Y010379D02*
X003503Y010379D01*
X003661Y010537D02*
X001985Y010537D01*
X001827Y010696D02*
X003820Y010696D01*
X003501Y009903D02*
X002114Y009903D01*
X002114Y009745D02*
X003501Y009745D01*
X003537Y009586D02*
X002031Y009586D01*
X001872Y009428D02*
X003695Y009428D01*
X003854Y009269D02*
X001714Y009269D01*
X001303Y009269D02*
X001143Y009269D01*
X001143Y009428D02*
X001303Y009428D01*
X001303Y009586D02*
X001143Y009586D01*
X001143Y009745D02*
X001303Y009745D01*
X001303Y009903D02*
X001143Y009903D01*
X000416Y009586D02*
X000380Y009586D01*
X000380Y009428D02*
X000574Y009428D01*
X000733Y009269D02*
X000380Y009269D01*
X000380Y009111D02*
X004012Y009111D01*
X004152Y008952D02*
X000380Y008952D01*
X000380Y008794D02*
X004152Y008794D01*
X004152Y008635D02*
X000380Y008635D01*
X000380Y008477D02*
X004152Y008477D01*
X004152Y008318D02*
X000380Y008318D01*
X000380Y008160D02*
X004152Y008160D01*
X004152Y008001D02*
X000380Y008001D01*
X000380Y007843D02*
X004152Y007843D01*
X004152Y007684D02*
X002622Y007684D01*
X002506Y007801D02*
X001751Y007801D01*
X001218Y007267D01*
X001218Y006512D01*
X001751Y005978D01*
X002506Y005978D01*
X003040Y006512D01*
X003040Y007267D01*
X002506Y007801D01*
X002781Y007526D02*
X004152Y007526D01*
X004036Y007367D02*
X002939Y007367D01*
X003040Y007209D02*
X003878Y007209D01*
X003719Y007050D02*
X003040Y007050D01*
X003040Y006892D02*
X003561Y006892D01*
X003402Y006733D02*
X003040Y006733D01*
X003040Y006575D02*
X003244Y006575D01*
X003085Y006416D02*
X002944Y006416D01*
X002927Y006258D02*
X002786Y006258D01*
X002768Y006099D02*
X002627Y006099D01*
X002670Y005941D02*
X000380Y005941D01*
X000380Y006099D02*
X001630Y006099D01*
X001592Y005930D02*
X001303Y005930D01*
X001303Y005119D01*
X002114Y005119D01*
X002114Y005408D01*
X001592Y005930D01*
X001740Y005782D02*
X002670Y005782D01*
X002670Y005624D02*
X001899Y005624D01*
X002057Y005465D02*
X002670Y005465D01*
X002670Y005307D02*
X002114Y005307D01*
X002114Y005148D02*
X002670Y005148D01*
X002670Y004990D02*
X001303Y004990D01*
X001303Y005148D02*
X001143Y005148D01*
X001143Y005307D02*
X001303Y005307D01*
X001303Y005465D02*
X001143Y005465D01*
X001143Y005624D02*
X001303Y005624D01*
X001303Y005782D02*
X001143Y005782D01*
X000706Y005782D02*
X000380Y005782D01*
X000380Y005624D02*
X000548Y005624D01*
X000389Y005465D02*
X000380Y005465D01*
X000380Y006258D02*
X001472Y006258D01*
X001313Y006416D02*
X000380Y006416D01*
X000380Y006575D02*
X001218Y006575D01*
X001218Y006733D02*
X000380Y006733D01*
X000380Y006892D02*
X001218Y006892D01*
X001218Y007050D02*
X000380Y007050D01*
X000380Y007209D02*
X001218Y007209D01*
X001318Y007367D02*
X000380Y007367D01*
X000380Y007526D02*
X001477Y007526D01*
X001635Y007684D02*
X000380Y007684D01*
X003690Y005782D02*
X003906Y005782D01*
X003845Y005941D02*
X017200Y005941D01*
X017200Y006092D02*
X017200Y005695D01*
X017481Y005413D01*
X017879Y005413D01*
X018160Y005695D01*
X018160Y006092D01*
X017879Y006373D01*
X017481Y006373D01*
X017200Y006092D01*
X017207Y006099D02*
X012599Y006099D01*
X012498Y005998D02*
X013020Y006520D01*
X013020Y006809D01*
X012209Y006809D01*
X012209Y005998D01*
X012498Y005998D01*
X012209Y006099D02*
X012049Y006099D01*
X012049Y005998D02*
X012049Y006809D01*
X012209Y006809D01*
X012209Y006969D01*
X013020Y006969D01*
X013020Y007259D01*
X012498Y007781D01*
X012209Y007781D01*
X012209Y006969D01*
X012049Y006969D01*
X012049Y006809D01*
X011238Y006809D01*
X011238Y006520D01*
X011760Y005998D01*
X012049Y005998D01*
X012049Y006258D02*
X012209Y006258D01*
X012209Y006416D02*
X012049Y006416D01*
X012049Y006575D02*
X012209Y006575D01*
X012209Y006733D02*
X012049Y006733D01*
X012049Y006892D02*
X008040Y006892D01*
X008040Y007050D02*
X011238Y007050D01*
X011238Y006969D02*
X012049Y006969D01*
X012049Y007781D01*
X011760Y007781D01*
X011238Y007259D01*
X011238Y006969D01*
X011238Y006733D02*
X008040Y006733D01*
X008040Y006575D02*
X011238Y006575D01*
X011342Y006416D02*
X007944Y006416D01*
X008040Y006512D02*
X007506Y005978D01*
X006751Y005978D01*
X006218Y006512D01*
X006218Y007267D01*
X006751Y007801D01*
X007506Y007801D01*
X008040Y007267D01*
X008040Y006512D01*
X007786Y006258D02*
X011500Y006258D01*
X011659Y006099D02*
X007627Y006099D01*
X007057Y005465D02*
X008589Y005465D01*
X008501Y005307D02*
X007114Y005307D01*
X007114Y005408D02*
X006592Y005930D01*
X006303Y005930D01*
X006303Y005119D01*
X007114Y005119D01*
X007114Y005408D01*
X007114Y005148D02*
X008501Y005148D01*
X008501Y004990D02*
X006303Y004990D01*
X006303Y005148D02*
X006143Y005148D01*
X006143Y005119D02*
X006143Y005930D01*
X005854Y005930D01*
X005332Y005408D01*
X005332Y005119D01*
X006143Y005119D01*
X006143Y004990D02*
X005323Y004990D01*
X005323Y005148D02*
X005332Y005148D01*
X005323Y005307D02*
X005332Y005307D01*
X005389Y005465D02*
X005235Y005465D01*
X005077Y005624D02*
X005548Y005624D01*
X005706Y005782D02*
X004918Y005782D01*
X004162Y006258D02*
X006472Y006258D01*
X006630Y006099D02*
X004004Y006099D01*
X004321Y006416D02*
X006313Y006416D01*
X006218Y006575D02*
X004479Y006575D01*
X004638Y006733D02*
X006218Y006733D01*
X006218Y006892D02*
X004796Y006892D01*
X004923Y007050D02*
X006218Y007050D01*
X006218Y007209D02*
X004940Y007209D01*
X004940Y007367D02*
X006318Y007367D01*
X006477Y007526D02*
X004940Y007526D01*
X004940Y007684D02*
X006635Y007684D01*
X007622Y007684D02*
X011663Y007684D01*
X011505Y007526D02*
X007781Y007526D01*
X007939Y007367D02*
X011346Y007367D01*
X011238Y007209D02*
X008040Y007209D01*
X008754Y008160D02*
X018768Y008160D01*
X018700Y008092D02*
X018700Y007695D01*
X018981Y007413D01*
X019379Y007413D01*
X019660Y007695D01*
X019660Y008092D01*
X019379Y008373D01*
X018981Y008373D01*
X018700Y008092D01*
X018700Y008001D02*
X005156Y008001D01*
X004997Y007843D02*
X018700Y007843D01*
X018710Y007684D02*
X012594Y007684D01*
X012753Y007526D02*
X018869Y007526D01*
X018981Y007373D02*
X018700Y007092D01*
X018700Y006695D01*
X018981Y006413D01*
X019379Y006413D01*
X019660Y006695D01*
X019660Y007092D01*
X019379Y007373D01*
X018981Y007373D01*
X018975Y007367D02*
X016385Y007367D01*
X016379Y007373D02*
X015981Y007373D01*
X015700Y007092D01*
X015700Y006695D01*
X015981Y006413D01*
X016379Y006413D01*
X016660Y006695D01*
X016660Y007092D01*
X016379Y007373D01*
X016543Y007209D02*
X018817Y007209D01*
X018700Y007050D02*
X016660Y007050D01*
X016660Y006892D02*
X018700Y006892D01*
X018700Y006733D02*
X016660Y006733D01*
X016540Y006575D02*
X018820Y006575D01*
X018978Y006416D02*
X016382Y006416D01*
X015978Y006416D02*
X012916Y006416D01*
X013020Y006575D02*
X015820Y006575D01*
X015700Y006733D02*
X013020Y006733D01*
X013020Y007050D02*
X015700Y007050D01*
X015700Y006892D02*
X012209Y006892D01*
X012209Y007050D02*
X012049Y007050D01*
X012049Y007209D02*
X012209Y007209D01*
X012209Y007367D02*
X012049Y007367D01*
X012049Y007526D02*
X012209Y007526D01*
X012209Y007684D02*
X012049Y007684D01*
X012911Y007367D02*
X015975Y007367D01*
X015817Y007209D02*
X013020Y007209D01*
X012758Y006258D02*
X017366Y006258D01*
X017200Y005782D02*
X014918Y005782D01*
X014790Y005911D02*
X014035Y005911D01*
X013501Y005377D01*
X013501Y004622D01*
X014035Y004088D01*
X014790Y004088D01*
X015323Y004622D01*
X015323Y005377D01*
X014790Y005911D01*
X015077Y005624D02*
X017271Y005624D01*
X017429Y005465D02*
X015235Y005465D01*
X015323Y005307D02*
X017415Y005307D01*
X017481Y005373D02*
X017200Y005092D01*
X017200Y004695D01*
X017481Y004413D01*
X017879Y004413D01*
X018160Y004695D01*
X018160Y005092D01*
X017879Y005373D01*
X017481Y005373D01*
X017256Y005148D02*
X015323Y005148D01*
X015323Y004990D02*
X017200Y004990D01*
X017200Y004831D02*
X015323Y004831D01*
X015323Y004673D02*
X017222Y004673D01*
X017380Y004514D02*
X015216Y004514D01*
X015057Y004356D02*
X018720Y004356D01*
X018720Y004393D02*
X018720Y004203D01*
X018989Y003933D01*
X019180Y003933D01*
X019371Y003933D01*
X019640Y004203D01*
X019640Y004393D01*
X019180Y004393D01*
X019180Y003933D01*
X019180Y004393D01*
X019180Y004393D01*
X019180Y004393D01*
X018720Y004393D01*
X019180Y004393D01*
X019180Y004393D01*
X019640Y004393D01*
X019640Y004584D01*
X019371Y004853D01*
X019180Y004853D01*
X018989Y004853D01*
X018720Y004584D01*
X018720Y004393D01*
X018720Y004514D02*
X017980Y004514D01*
X018138Y004673D02*
X018809Y004673D01*
X018967Y004831D02*
X018160Y004831D01*
X018160Y004990D02*
X018905Y004990D01*
X018981Y004913D02*
X019379Y004913D01*
X019660Y005195D01*
X019660Y005592D01*
X019379Y005873D01*
X018981Y005873D01*
X018700Y005592D01*
X018700Y005195D01*
X018981Y004913D01*
X019180Y004853D02*
X019180Y004393D01*
X019180Y004393D01*
X019180Y004853D01*
X019180Y004831D02*
X019180Y004831D01*
X019180Y004673D02*
X019180Y004673D01*
X019180Y004514D02*
X019180Y004514D01*
X019180Y004356D02*
X019180Y004356D01*
X019180Y004197D02*
X019180Y004197D01*
X019180Y004039D02*
X019180Y004039D01*
X019476Y004039D02*
X020670Y004039D01*
X020670Y004197D02*
X019635Y004197D01*
X019640Y004356D02*
X020670Y004356D01*
X020670Y004514D02*
X019640Y004514D01*
X019551Y004673D02*
X020670Y004673D01*
X020670Y004831D02*
X019393Y004831D01*
X019455Y004990D02*
X020670Y004990D01*
X020670Y005148D02*
X019614Y005148D01*
X019660Y005307D02*
X020670Y005307D01*
X020670Y005465D02*
X019660Y005465D01*
X019628Y005624D02*
X020670Y005624D01*
X020670Y005782D02*
X019470Y005782D01*
X018890Y005782D02*
X018160Y005782D01*
X018160Y005941D02*
X020670Y005941D01*
X020670Y006099D02*
X018153Y006099D01*
X017994Y006258D02*
X020670Y006258D01*
X020670Y006416D02*
X019382Y006416D01*
X019540Y006575D02*
X020670Y006575D01*
X020670Y006733D02*
X019660Y006733D01*
X019660Y006892D02*
X020670Y006892D01*
X020670Y007050D02*
X019660Y007050D01*
X019543Y007209D02*
X020670Y007209D01*
X020670Y007367D02*
X019385Y007367D01*
X019491Y007526D02*
X020670Y007526D01*
X020670Y007684D02*
X019650Y007684D01*
X019660Y007843D02*
X020762Y007843D01*
X020920Y008001D02*
X019660Y008001D01*
X019592Y008160D02*
X021079Y008160D01*
X021170Y008318D02*
X019434Y008318D01*
X018926Y008318D02*
X008913Y008318D01*
X009071Y008477D02*
X020446Y008477D01*
X020287Y008635D02*
X009122Y008635D01*
X009122Y008794D02*
X010101Y008794D01*
X008562Y010062D02*
X008308Y010062D01*
X008308Y010220D02*
X008404Y010220D01*
X008246Y010537D02*
X006859Y010537D01*
X006828Y010379D02*
X007552Y010379D01*
X007552Y010220D02*
X006670Y010220D01*
X006511Y010062D02*
X007481Y010062D01*
X007322Y009903D02*
X006353Y009903D01*
X006424Y009269D02*
X007343Y009269D01*
X007340Y009111D02*
X006265Y009111D01*
X007850Y010696D02*
X009057Y010696D01*
X009057Y010854D02*
X009217Y010854D01*
X009217Y011013D02*
X009057Y011013D01*
X009057Y011171D02*
X009217Y011171D01*
X009217Y011330D02*
X009057Y011330D01*
X009057Y011488D02*
X009217Y011488D01*
X008246Y011013D02*
X008167Y011013D01*
X008246Y010854D02*
X008009Y010854D01*
X007900Y010746D02*
X007900Y010746D01*
X007590Y011171D02*
X006852Y011171D01*
X006694Y011330D02*
X007749Y011330D01*
X007907Y011488D02*
X006535Y011488D01*
X006377Y011647D02*
X008066Y011647D01*
X010771Y011805D02*
X014117Y011805D01*
X013970Y011964D02*
X010910Y011964D01*
X010910Y012122D02*
X013970Y012122D01*
X013970Y012281D02*
X010910Y012281D01*
X010813Y012439D02*
X014075Y012439D01*
X012795Y013073D02*
X011910Y013073D01*
X011910Y013232D02*
X012636Y013232D01*
X012478Y013390D02*
X011862Y013390D01*
X011425Y014975D02*
X012302Y014975D01*
X012302Y015134D02*
X011583Y015134D01*
X011742Y015292D02*
X012163Y015292D01*
X012005Y015451D02*
X011859Y015451D01*
X012582Y015609D02*
X013246Y015609D01*
X013246Y015451D02*
X013012Y015451D01*
X013058Y015292D02*
X013332Y015292D01*
X013490Y015134D02*
X013058Y015134D01*
X013058Y014975D02*
X013649Y014975D01*
X016050Y016085D02*
X017200Y016085D01*
X017351Y016243D02*
X016160Y016243D01*
X016160Y016402D02*
X019510Y016402D01*
X019450Y016560D02*
X016160Y016560D01*
X016097Y017670D02*
X015763Y017670D01*
X015921Y017828D02*
X015939Y017828D01*
X015097Y017670D02*
X014763Y017670D01*
X014921Y017828D02*
X014939Y017828D01*
X016763Y017670D02*
X017097Y017670D01*
X016939Y017828D02*
X016921Y017828D01*
X018009Y016243D02*
X019651Y016243D01*
X020209Y016243D02*
X020702Y016243D01*
X020689Y016250D02*
X020753Y016217D01*
X020822Y016195D01*
X020894Y016183D01*
X020930Y016183D01*
X020930Y016402D02*
X020930Y016402D01*
X020930Y016560D02*
X020930Y016560D01*
X020930Y016643D02*
X020930Y017103D01*
X020930Y016643D01*
X020930Y016643D01*
X020930Y016719D02*
X020930Y016719D01*
X020930Y016877D02*
X020930Y016877D01*
X020930Y017036D02*
X020930Y017036D01*
X020688Y017036D02*
X020216Y017036D01*
X020537Y016402D02*
X020579Y016344D01*
X020630Y016292D01*
X020689Y016250D01*
X024568Y019413D02*
X024731Y019413D01*
X025129Y019413D02*
X025731Y019413D01*
X025573Y019572D02*
X025287Y019572D01*
X025410Y019730D02*
X025450Y019730D01*
X025450Y019889D02*
X025410Y019889D01*
X025410Y020047D02*
X025450Y020047D01*
X033159Y012598D02*
X033701Y012598D01*
X033521Y012439D02*
X033339Y012439D01*
X033405Y012281D02*
X033455Y012281D01*
X033450Y012122D02*
X033410Y012122D01*
X033410Y011964D02*
X033450Y011964D01*
X033450Y011805D02*
X033410Y011805D01*
X033410Y011647D02*
X033450Y011647D01*
X033462Y011488D02*
X033398Y011488D01*
X033325Y011330D02*
X033535Y011330D01*
X033743Y011171D02*
X033117Y011171D01*
X031930Y011330D02*
X031930Y011330D01*
X031930Y011488D02*
X031930Y011488D01*
X028461Y009745D02*
X025690Y009745D01*
X025690Y009903D02*
X028302Y009903D01*
X028182Y010062D02*
X025690Y010062D01*
X025690Y010220D02*
X028170Y010220D01*
X028170Y010379D02*
X025690Y010379D01*
X025690Y010537D02*
X028170Y010537D01*
X028170Y010696D02*
X025690Y010696D01*
X025690Y010854D02*
X028170Y010854D01*
X028170Y011013D02*
X025690Y011013D01*
X025690Y011171D02*
X025743Y011171D01*
X028117Y011171D02*
X028170Y011171D01*
X032410Y009111D02*
X032470Y009111D01*
X032470Y008952D02*
X032410Y008952D01*
X032410Y008794D02*
X032470Y008794D01*
X032470Y008635D02*
X032410Y008635D01*
X032393Y008477D02*
X032491Y008477D01*
X032576Y008318D02*
X032314Y008318D01*
X032089Y008160D02*
X032546Y008160D01*
X032451Y006892D02*
X034446Y006892D01*
X034574Y006733D02*
X032661Y006733D01*
X032752Y006575D02*
X034733Y006575D01*
X035100Y006575D02*
X035260Y006575D01*
X035260Y006733D02*
X035100Y006733D01*
X035100Y006892D02*
X035260Y006892D01*
X035260Y007050D02*
X035100Y007050D01*
X032246Y006892D02*
X032209Y006892D01*
X032209Y006733D02*
X032246Y006733D01*
X032246Y006575D02*
X032209Y006575D01*
X032209Y006416D02*
X032246Y006416D01*
X024488Y003880D02*
X021190Y003880D01*
X021190Y004039D02*
X021856Y004039D01*
X021700Y004197D02*
X021190Y004197D01*
X021190Y004356D02*
X021700Y004356D01*
X021700Y004514D02*
X021190Y004514D01*
X021190Y004673D02*
X021781Y004673D01*
X021920Y004831D02*
X021190Y004831D01*
X021190Y004990D02*
X021905Y004990D01*
X022628Y005624D02*
X023060Y005624D01*
X023052Y005782D02*
X022470Y005782D01*
X023052Y005941D02*
X021690Y005941D01*
X021690Y006099D02*
X023052Y006099D01*
X023155Y006258D02*
X021690Y006258D01*
X021690Y006416D02*
X021978Y006416D01*
X021820Y006575D02*
X021729Y006575D01*
X021311Y006892D02*
X021190Y006892D01*
X021190Y007050D02*
X021469Y007050D01*
X021190Y007209D02*
X021817Y007209D01*
X021975Y007367D02*
X021190Y007367D01*
X021190Y007526D02*
X021869Y007526D01*
X021710Y007684D02*
X021339Y007684D01*
X021497Y007843D02*
X021700Y007843D01*
X021700Y008001D02*
X021653Y008001D01*
X021690Y008160D02*
X021768Y008160D01*
X021690Y008318D02*
X021926Y008318D01*
X022660Y008001D02*
X022859Y008001D01*
X022701Y007843D02*
X022660Y007843D01*
X022650Y007684D02*
X022700Y007684D01*
X022700Y007526D02*
X022491Y007526D01*
X022385Y007367D02*
X022777Y007367D01*
X022936Y007209D02*
X022543Y007209D01*
X022660Y007050D02*
X023052Y007050D01*
X023052Y006892D02*
X022660Y006892D01*
X022660Y006733D02*
X023052Y006733D01*
X023109Y006575D02*
X022540Y006575D01*
X022382Y006416D02*
X023170Y006416D01*
X021890Y005782D02*
X021690Y005782D01*
X018746Y005148D02*
X018104Y005148D01*
X017945Y005307D02*
X018700Y005307D01*
X018700Y005465D02*
X017931Y005465D01*
X018089Y005624D02*
X018732Y005624D01*
X016640Y004084D02*
X016371Y004353D01*
X016180Y004353D01*
X015989Y004353D01*
X015720Y004084D01*
X015720Y003893D01*
X015720Y003703D01*
X015989Y003433D01*
X016180Y003433D01*
X016371Y003433D01*
X016640Y003703D01*
X016640Y003893D01*
X016180Y003893D01*
X016180Y003433D01*
X016180Y003893D01*
X016180Y003893D01*
X015720Y003893D01*
X016180Y003893D01*
X016180Y003893D01*
X016180Y003893D01*
X016640Y003893D01*
X016640Y004084D01*
X016640Y004039D02*
X018884Y004039D01*
X018725Y004197D02*
X016527Y004197D01*
X016640Y003880D02*
X020670Y003880D01*
X020580Y003722D02*
X016640Y003722D01*
X016501Y003563D02*
X019982Y003563D01*
X019824Y003405D02*
X013597Y003405D01*
X013660Y003342D02*
X013379Y003623D01*
X012981Y003623D01*
X012700Y003342D01*
X012700Y002945D01*
X012981Y002663D01*
X013379Y002663D01*
X013660Y002945D01*
X013660Y003342D01*
X013660Y003246D02*
X019691Y003246D01*
X019670Y003088D02*
X013660Y003088D01*
X013645Y002929D02*
X019670Y002929D01*
X019670Y002771D02*
X013486Y002771D01*
X013481Y002623D02*
X013200Y002342D01*
X013200Y002123D01*
X012981Y002123D01*
X012700Y001842D01*
X012700Y001445D01*
X012981Y001163D01*
X013220Y001163D01*
X013220Y001143D01*
X013220Y000953D01*
X013489Y000683D01*
X013680Y000683D01*
X013871Y000683D01*
X014140Y000953D01*
X014140Y001143D01*
X013680Y001143D01*
X013680Y000683D01*
X013680Y001143D01*
X013680Y001143D01*
X013680Y001143D01*
X013220Y001143D01*
X013680Y001143D01*
X013680Y001143D01*
X014140Y001143D01*
X014140Y001334D01*
X013871Y001603D01*
X013680Y001603D01*
X013660Y001603D01*
X013660Y001663D01*
X013879Y001663D01*
X014160Y001945D01*
X014160Y002342D01*
X013879Y002623D01*
X013481Y002623D01*
X013470Y002612D02*
X007640Y002612D01*
X007660Y002454D02*
X007840Y002454D01*
X007720Y002334D02*
X007720Y002143D01*
X007720Y001953D01*
X007989Y001683D01*
X008180Y001683D01*
X008180Y002143D01*
X008180Y002143D01*
X007720Y002143D01*
X008180Y002143D01*
X008180Y002143D01*
X008180Y002143D01*
X008640Y002143D01*
X008640Y002334D01*
X008371Y002603D01*
X008180Y002603D01*
X007989Y002603D01*
X007720Y002334D01*
X007720Y002295D02*
X007660Y002295D01*
X007602Y002137D02*
X007720Y002137D01*
X007720Y001978D02*
X007444Y001978D01*
X007440Y001820D02*
X007853Y001820D01*
X008180Y001820D02*
X008180Y001820D01*
X008180Y001978D02*
X008180Y001978D01*
X008180Y002137D02*
X008180Y002137D01*
X008180Y002143D02*
X008180Y002603D01*
X008180Y002143D01*
X008180Y002143D01*
X008180Y002295D02*
X008180Y002295D01*
X008180Y002454D02*
X008180Y002454D01*
X008520Y002454D02*
X013312Y002454D01*
X013200Y002295D02*
X008640Y002295D01*
X008640Y002137D02*
X013200Y002137D01*
X012836Y001978D02*
X010524Y001978D01*
X010660Y001820D02*
X012700Y001820D01*
X012700Y001661D02*
X010660Y001661D01*
X010660Y001503D02*
X012700Y001503D01*
X012800Y001344D02*
X010560Y001344D01*
X010500Y001186D02*
X012959Y001186D01*
X013220Y001027D02*
X010478Y001027D01*
X010358Y000869D02*
X013304Y000869D01*
X013462Y000710D02*
X010200Y000710D01*
X009611Y001027D02*
X008660Y001027D01*
X008660Y001186D02*
X008709Y001186D01*
X009151Y001186D02*
X009770Y001186D01*
X009800Y001344D02*
X009310Y001344D01*
X009410Y001503D02*
X009700Y001503D01*
X009700Y001661D02*
X009410Y001661D01*
X009410Y001820D02*
X009700Y001820D01*
X009836Y001978D02*
X009274Y001978D01*
X008450Y001661D02*
X007440Y001661D01*
X007499Y001503D02*
X007861Y001503D01*
X007702Y001344D02*
X007658Y001344D01*
X007660Y001186D02*
X007700Y001186D01*
X007700Y001027D02*
X007660Y001027D01*
X006920Y001562D02*
X006700Y001342D01*
X006700Y000963D01*
X004640Y000963D01*
X004640Y001143D01*
X004180Y001143D01*
X003720Y001143D01*
X004180Y001143D01*
X004180Y001143D01*
X004180Y001143D01*
X004640Y001143D01*
X004640Y001334D01*
X004371Y001603D01*
X004180Y001603D01*
X004069Y001603D01*
X004160Y001695D01*
X004160Y001913D01*
X004379Y001913D01*
X004660Y002195D01*
X004660Y002592D01*
X004619Y002633D01*
X006572Y002633D01*
X006700Y002506D01*
X006700Y002195D01*
X006920Y001975D01*
X006920Y001562D01*
X006861Y001503D02*
X004471Y001503D01*
X004630Y001344D02*
X006702Y001344D01*
X006700Y001186D02*
X004640Y001186D01*
X004640Y001027D02*
X006700Y001027D01*
X006920Y001661D02*
X004127Y001661D01*
X004180Y001603D02*
X004180Y001143D01*
X004180Y001143D01*
X004180Y001603D01*
X004180Y001503D02*
X004180Y001503D01*
X004180Y001344D02*
X004180Y001344D01*
X004180Y001186D02*
X004180Y001186D01*
X003720Y001186D02*
X001340Y001186D01*
X001182Y001344D02*
X003730Y001344D01*
X003720Y001027D02*
X001499Y001027D01*
X001023Y001503D02*
X003392Y001503D01*
X003233Y001661D02*
X001127Y001661D01*
X001160Y001820D02*
X003200Y001820D01*
X003200Y001978D02*
X001160Y001978D01*
X001115Y002137D02*
X003245Y002137D01*
X003403Y002295D02*
X000957Y002295D01*
X000403Y002295D02*
X000380Y002295D01*
X000380Y002454D02*
X003700Y002454D01*
X003720Y002612D02*
X000380Y002612D01*
X000380Y002771D02*
X003185Y002771D01*
X003026Y002929D02*
X000380Y002929D01*
X000380Y003088D02*
X002868Y003088D01*
X002709Y003246D02*
X000380Y003246D01*
X000380Y003405D02*
X002670Y003405D01*
X002670Y003563D02*
X000380Y003563D01*
X000380Y003722D02*
X002670Y003722D01*
X002670Y003880D02*
X000380Y003880D01*
X000380Y004039D02*
X002670Y004039D01*
X002670Y004197D02*
X001642Y004197D01*
X001800Y004356D02*
X002670Y004356D01*
X002670Y004514D02*
X001959Y004514D01*
X002114Y004673D02*
X002670Y004673D01*
X002670Y004831D02*
X002114Y004831D01*
X001303Y004831D02*
X001143Y004831D01*
X001143Y004673D02*
X001303Y004673D01*
X001303Y004514D02*
X001143Y004514D01*
X001143Y004356D02*
X001303Y004356D01*
X001303Y004197D02*
X001143Y004197D01*
X000805Y004197D02*
X000380Y004197D01*
X000380Y004356D02*
X000646Y004356D01*
X000488Y004514D02*
X000380Y004514D01*
X003690Y005624D02*
X003748Y005624D01*
X005323Y004831D02*
X005332Y004831D01*
X005323Y004673D02*
X005332Y004673D01*
X005265Y004514D02*
X005488Y004514D01*
X005424Y004356D02*
X005646Y004356D01*
X005582Y004197D02*
X005805Y004197D01*
X006642Y004197D02*
X008845Y004197D01*
X008767Y004356D02*
X006800Y004356D01*
X006959Y004514D02*
X008609Y004514D01*
X008501Y004673D02*
X007114Y004673D01*
X007114Y004831D02*
X008501Y004831D01*
X008748Y005624D02*
X006899Y005624D01*
X006740Y005782D02*
X008906Y005782D01*
X009918Y005782D02*
X010706Y005782D01*
X010854Y005930D02*
X010332Y005408D01*
X010332Y005119D01*
X011143Y005119D01*
X011143Y004959D01*
X010332Y004959D01*
X010332Y004670D01*
X010854Y004148D01*
X011143Y004148D01*
X011143Y004959D01*
X011303Y004959D01*
X011303Y004148D01*
X011592Y004148D01*
X012114Y004670D01*
X012114Y004959D01*
X011303Y004959D01*
X011303Y005119D01*
X011143Y005119D01*
X011143Y005930D01*
X010854Y005930D01*
X011143Y005782D02*
X011303Y005782D01*
X011303Y005930D02*
X011592Y005930D01*
X012114Y005408D01*
X012114Y005119D01*
X011303Y005119D01*
X011303Y005930D01*
X011740Y005782D02*
X013906Y005782D01*
X013748Y005624D02*
X011899Y005624D01*
X012057Y005465D02*
X013589Y005465D01*
X013501Y005307D02*
X012114Y005307D01*
X012114Y005148D02*
X013501Y005148D01*
X013501Y004990D02*
X011303Y004990D01*
X011303Y005148D02*
X011143Y005148D01*
X011143Y004990D02*
X010323Y004990D01*
X010323Y005148D02*
X010332Y005148D01*
X010323Y005307D02*
X010332Y005307D01*
X010389Y005465D02*
X010235Y005465D01*
X010077Y005624D02*
X010548Y005624D01*
X011143Y005624D02*
X011303Y005624D01*
X011303Y005465D02*
X011143Y005465D01*
X011143Y005307D02*
X011303Y005307D01*
X011303Y004831D02*
X011143Y004831D01*
X011143Y004673D02*
X011303Y004673D01*
X011303Y004514D02*
X011143Y004514D01*
X011143Y004356D02*
X011303Y004356D01*
X011303Y004197D02*
X011143Y004197D01*
X010805Y004197D02*
X009899Y004197D01*
X010057Y004356D02*
X010646Y004356D01*
X010488Y004514D02*
X010216Y004514D01*
X010323Y004673D02*
X010332Y004673D01*
X010323Y004831D02*
X010332Y004831D01*
X009558Y004039D02*
X015720Y004039D01*
X015720Y003880D02*
X009558Y003880D01*
X009558Y003722D02*
X015720Y003722D01*
X015859Y003563D02*
X013439Y003563D01*
X012921Y003563D02*
X010439Y003563D01*
X010379Y003623D02*
X009981Y003623D01*
X009700Y003342D01*
X009700Y002945D01*
X009981Y002663D01*
X010379Y002663D01*
X010660Y002945D01*
X010660Y003342D01*
X010379Y003623D01*
X010597Y003405D02*
X012763Y003405D01*
X012700Y003246D02*
X010660Y003246D01*
X010660Y003088D02*
X012700Y003088D01*
X012715Y002929D02*
X010645Y002929D01*
X010486Y002771D02*
X012874Y002771D01*
X013890Y002612D02*
X016470Y002612D01*
X016481Y002623D02*
X016200Y002342D01*
X016200Y001945D01*
X016420Y001725D01*
X016420Y001562D01*
X016200Y001342D01*
X016200Y000945D01*
X016481Y000663D01*
X016879Y000663D01*
X017160Y000945D01*
X017160Y001342D01*
X016940Y001562D01*
X016940Y001725D01*
X017160Y001945D01*
X017160Y002342D01*
X016879Y002623D01*
X016481Y002623D01*
X016312Y002454D02*
X014048Y002454D01*
X014160Y002295D02*
X016200Y002295D01*
X016200Y002137D02*
X014160Y002137D01*
X014160Y001978D02*
X016200Y001978D01*
X016325Y001820D02*
X014035Y001820D01*
X013660Y001661D02*
X016420Y001661D01*
X016361Y001503D02*
X013971Y001503D01*
X014130Y001344D02*
X016202Y001344D01*
X016200Y001186D02*
X014140Y001186D01*
X014140Y001027D02*
X016200Y001027D01*
X016276Y000869D02*
X014056Y000869D01*
X013898Y000710D02*
X016434Y000710D01*
X016926Y000710D02*
X017434Y000710D01*
X017276Y000869D02*
X017084Y000869D01*
X017160Y001027D02*
X017200Y001027D01*
X017200Y001186D02*
X017160Y001186D01*
X017158Y001344D02*
X017202Y001344D01*
X017361Y001503D02*
X016999Y001503D01*
X016940Y001661D02*
X017950Y001661D01*
X017680Y001683D02*
X017680Y002143D01*
X017680Y002143D01*
X017220Y002143D01*
X017220Y001953D01*
X017489Y001683D01*
X017680Y001683D01*
X017680Y001820D02*
X017680Y001820D01*
X017680Y001978D02*
X017680Y001978D01*
X017680Y002137D02*
X017680Y002137D01*
X017680Y002143D02*
X017680Y002143D01*
X017680Y002143D01*
X017220Y002143D01*
X017220Y002334D01*
X017489Y002603D01*
X017680Y002603D01*
X017680Y002143D01*
X018140Y002143D01*
X018140Y002334D01*
X017871Y002603D01*
X017680Y002603D01*
X017680Y002143D01*
X017680Y002143D01*
X017680Y002295D02*
X017680Y002295D01*
X017680Y002454D02*
X017680Y002454D01*
X018020Y002454D02*
X019562Y002454D01*
X019670Y002612D02*
X016890Y002612D01*
X017048Y002454D02*
X017340Y002454D01*
X017220Y002295D02*
X017160Y002295D01*
X017160Y002137D02*
X017220Y002137D01*
X017220Y001978D02*
X017160Y001978D01*
X017035Y001820D02*
X017353Y001820D01*
X018140Y002137D02*
X019450Y002137D01*
X019450Y002295D02*
X018140Y002295D01*
X018774Y001978D02*
X018836Y001978D01*
X018959Y001186D02*
X018651Y001186D01*
X018209Y001186D02*
X018160Y001186D01*
X018160Y001027D02*
X019470Y001027D01*
X019470Y001186D02*
X019401Y001186D01*
X019554Y000869D02*
X018084Y000869D01*
X017926Y000710D02*
X019712Y000710D01*
X020306Y000869D02*
X020554Y000869D01*
X020470Y001027D02*
X020390Y001027D01*
X020390Y001186D02*
X020470Y001186D01*
X020480Y001344D02*
X020380Y001344D01*
X020190Y002929D02*
X020715Y002929D01*
X020557Y003088D02*
X020242Y003088D01*
X016180Y003563D02*
X016180Y003563D01*
X016180Y003722D02*
X016180Y003722D01*
X016180Y003880D02*
X016180Y003880D01*
X016180Y003893D02*
X016180Y004353D01*
X016180Y003893D01*
X016180Y003893D01*
X016180Y004039D02*
X016180Y004039D01*
X016180Y004197D02*
X016180Y004197D01*
X015833Y004197D02*
X014899Y004197D01*
X013926Y004197D02*
X011642Y004197D01*
X011800Y004356D02*
X013767Y004356D01*
X013609Y004514D02*
X011959Y004514D01*
X012114Y004673D02*
X013501Y004673D01*
X013501Y004831D02*
X012114Y004831D01*
X009921Y003563D02*
X009489Y003563D01*
X009763Y003405D02*
X007160Y003405D01*
X007160Y003563D02*
X008871Y003563D01*
X009700Y003246D02*
X007160Y003246D01*
X007053Y003088D02*
X009700Y003088D01*
X009715Y002929D02*
X007012Y002929D01*
X007481Y002771D02*
X009874Y002771D01*
X006916Y001978D02*
X004444Y001978D01*
X004602Y002137D02*
X006758Y002137D01*
X006700Y002295D02*
X004660Y002295D01*
X004660Y002454D02*
X006700Y002454D01*
X006593Y002612D02*
X004640Y002612D01*
X004160Y001820D02*
X006920Y001820D01*
X006303Y005307D02*
X006143Y005307D01*
X006143Y005465D02*
X006303Y005465D01*
X006303Y005624D02*
X006143Y005624D01*
X006143Y005782D02*
X006303Y005782D01*
X013680Y001603D02*
X013680Y001143D01*
X013680Y001143D01*
X013680Y001603D01*
X013680Y001503D02*
X013680Y001503D01*
X013680Y001344D02*
X013680Y001344D01*
X013680Y001186D02*
X013680Y001186D01*
X013680Y001027D02*
X013680Y001027D01*
X013680Y000869D02*
X013680Y000869D01*
X013680Y000710D02*
X013680Y000710D01*
X017360Y009620D02*
X016907Y010073D01*
X016907Y010313D01*
X017600Y010313D01*
X017760Y010313D01*
X017760Y009620D01*
X018000Y009620D01*
X018453Y010073D01*
X018453Y010313D01*
X017760Y010313D01*
X017760Y010473D01*
X018453Y010473D01*
X018453Y010714D01*
X018000Y011166D01*
X017760Y011166D01*
X017760Y010473D01*
X017600Y010473D01*
X017600Y010313D01*
X017600Y009620D01*
X017360Y009620D01*
X017235Y009745D02*
X016303Y009745D01*
X016462Y009903D02*
X017077Y009903D01*
X016918Y010062D02*
X016620Y010062D01*
X016623Y010220D02*
X016907Y010220D01*
X016907Y010473D02*
X017600Y010473D01*
X017600Y011166D01*
X017360Y011166D01*
X016907Y010714D01*
X016907Y010473D01*
X016907Y010537D02*
X016623Y010537D01*
X016623Y010379D02*
X017600Y010379D01*
X017600Y010537D02*
X017760Y010537D01*
X017760Y010379D02*
X018737Y010379D01*
X018737Y010537D02*
X018453Y010537D01*
X018453Y010696D02*
X018737Y010696D01*
X018869Y010854D02*
X018312Y010854D01*
X018154Y011013D02*
X019028Y011013D01*
X019186Y011171D02*
X016174Y011171D01*
X016332Y011013D02*
X017206Y011013D01*
X017048Y010854D02*
X016491Y010854D01*
X016623Y010696D02*
X016907Y010696D01*
X017600Y010696D02*
X017760Y010696D01*
X017760Y010854D02*
X017600Y010854D01*
X017600Y011013D02*
X017760Y011013D01*
X017760Y010220D02*
X017600Y010220D01*
X017600Y010062D02*
X017760Y010062D01*
X017760Y009903D02*
X017600Y009903D01*
X017600Y009745D02*
X017760Y009745D01*
X018125Y009745D02*
X019057Y009745D01*
X018898Y009903D02*
X018283Y009903D01*
X018442Y010062D02*
X018740Y010062D01*
X018737Y010220D02*
X018453Y010220D01*
X020954Y011488D02*
X021170Y011488D01*
X010471Y014975D02*
X009625Y014975D01*
X009783Y015134D02*
X010312Y015134D01*
X010154Y015292D02*
X009942Y015292D01*
X010028Y015451D02*
X010037Y015451D01*
X010028Y015609D02*
X010037Y015609D01*
X009217Y015451D02*
X009057Y015451D01*
X009057Y015292D02*
X009217Y015292D01*
X009217Y015134D02*
X009057Y015134D01*
X009057Y014975D02*
X009217Y014975D01*
X000778Y010854D02*
X000380Y010854D01*
X000380Y010696D02*
X000620Y010696D01*
X000461Y010537D02*
X000380Y010537D01*
X039166Y015451D02*
X039350Y015451D01*
X039350Y015609D02*
X039325Y015609D01*
X039350Y016243D02*
X039259Y016243D01*
D26*
X032930Y011893D02*
X032930Y011643D01*
X032430Y011143D01*
X032430Y009643D01*
X031930Y009143D01*
X031930Y008893D01*
X030930Y007893D02*
X030180Y007143D01*
X030180Y004893D01*
X010180Y001643D02*
X010180Y001143D01*
X009680Y000643D01*
X001430Y000643D01*
X000680Y001393D01*
X000680Y001893D01*
D27*
X002930Y003393D02*
X002930Y005893D01*
X004412Y007376D01*
X004412Y010000D01*
X005948Y010787D02*
X006054Y010893D01*
X007680Y010893D01*
X008930Y012143D01*
X010430Y012143D01*
X007930Y010143D02*
X007430Y009643D01*
X006430Y009643D01*
X004680Y007893D01*
X004680Y007143D01*
X003430Y005893D01*
X003430Y003643D01*
X003680Y003393D01*
X003430Y002893D02*
X002930Y003393D01*
X003430Y002893D02*
X006680Y002893D01*
X007180Y002393D01*
X007180Y001143D01*
X005519Y003893D02*
X004412Y005000D01*
X005519Y003893D02*
X009180Y003893D01*
X016680Y002143D02*
X016680Y001143D01*
X019930Y002143D02*
X019930Y003143D01*
X020180Y003393D01*
X020930Y003393D01*
X020930Y007643D01*
X021430Y008143D01*
X021430Y011893D01*
X021680Y012893D02*
X024430Y012893D01*
X024930Y012393D01*
X024930Y007893D01*
X025430Y007393D01*
X025430Y004143D01*
X024680Y003393D01*
X024680Y001893D01*
X025180Y001393D01*
X025180Y001143D01*
X025180Y002143D02*
X025180Y003393D01*
X025680Y003893D01*
X025680Y007643D01*
X025180Y008143D01*
X025180Y012643D01*
X024680Y013143D01*
X022430Y013143D01*
X021930Y013643D01*
X021680Y012893D02*
X020930Y013643D01*
X023430Y014893D02*
X017680Y014893D01*
X012680Y015143D02*
X012036Y015787D01*
X010948Y015787D01*
X021930Y018643D02*
X021930Y019893D01*
X024180Y019393D02*
X024180Y015941D01*
X024727Y015393D01*
X023680Y014643D02*
X023680Y013893D01*
X023930Y013643D01*
X025930Y013643D01*
X026930Y012643D01*
X028180Y012643D01*
X028430Y012393D01*
X028430Y010143D01*
X028930Y009643D01*
X028930Y008893D01*
X030430Y009893D02*
X030430Y017893D01*
X031180Y018643D01*
X031180Y019143D01*
X030430Y017893D02*
X029680Y018643D01*
X028930Y018643D01*
X027430Y018143D02*
X027430Y019643D01*
X027680Y019893D01*
X028930Y019893D01*
X029680Y019893D01*
X024930Y019893D02*
X024680Y019893D01*
X024180Y019393D01*
X024930Y018643D02*
X024930Y017393D01*
X023430Y014893D02*
X023680Y014643D01*
X025680Y011893D02*
X025930Y011893D01*
X025680Y011893D02*
X025430Y011643D01*
X025430Y008393D01*
X025930Y007893D01*
X025930Y002893D01*
X028430Y001143D02*
X028680Y001393D01*
X028680Y005393D01*
X032227Y005393D02*
X032430Y005393D01*
X033180Y004643D01*
X033180Y003143D01*
X032180Y002143D01*
X029180Y002143D02*
X029180Y001143D01*
X028430Y001143D02*
X028180Y001143D01*
X022180Y004393D02*
X022180Y005393D01*
X021430Y005393D02*
X021430Y006643D01*
X021680Y006893D01*
X022180Y006893D01*
X023430Y006893D02*
X023430Y005893D01*
X036930Y011893D02*
X036930Y016893D01*
X034680Y019143D01*
X035680Y019143D02*
X037680Y017143D01*
X037680Y012143D01*
X037930Y011893D01*
D28*
X030430Y009893D03*
X023430Y006893D03*
X023430Y005893D03*
X021430Y005393D03*
X025930Y002893D03*
X030180Y004893D03*
X028680Y005393D03*
X021430Y011893D03*
X012680Y015143D03*
X007930Y010143D03*
X009180Y003893D03*
X024930Y017393D03*
X027430Y018143D03*
M02*
