G75*
%MOIN*%
%OFA0B0*%
%FSLAX24Y24*%
%IPPOS*%
%LPD*%
%AMOC8*
5,1,8,0,0,1.08239X$1,22.5*
%
%ADD10C,0.0000*%
%ADD11C,0.0520*%
%ADD12C,0.0594*%
%ADD13C,0.0760*%
%ADD14C,0.1181*%
%ADD15C,0.1266*%
%ADD16C,0.0520*%
%ADD17C,0.0740*%
%ADD18C,0.0780*%
%ADD19C,0.0750*%
%ADD20R,0.0520X0.0520*%
%ADD21R,0.0740X0.0740*%
%ADD22C,0.0160*%
%ADD23C,0.0240*%
%ADD24C,0.0356*%
%ADD25C,0.0120*%
%ADD26R,0.0356X0.0356*%
D10*
X002694Y002643D02*
X022379Y002643D01*
X022379Y042013D01*
X002694Y042013D01*
X002694Y002643D01*
X007025Y005143D02*
X007027Y005190D01*
X007033Y005236D01*
X007043Y005282D01*
X007056Y005327D01*
X007074Y005370D01*
X007095Y005412D01*
X007119Y005452D01*
X007147Y005489D01*
X007178Y005524D01*
X007212Y005557D01*
X007248Y005586D01*
X007287Y005612D01*
X007328Y005635D01*
X007371Y005654D01*
X007415Y005670D01*
X007460Y005682D01*
X007506Y005690D01*
X007553Y005694D01*
X007599Y005694D01*
X007646Y005690D01*
X007692Y005682D01*
X007737Y005670D01*
X007781Y005654D01*
X007824Y005635D01*
X007865Y005612D01*
X007904Y005586D01*
X007940Y005557D01*
X007974Y005524D01*
X008005Y005489D01*
X008033Y005452D01*
X008057Y005412D01*
X008078Y005370D01*
X008096Y005327D01*
X008109Y005282D01*
X008119Y005236D01*
X008125Y005190D01*
X008127Y005143D01*
X008125Y005096D01*
X008119Y005050D01*
X008109Y005004D01*
X008096Y004959D01*
X008078Y004916D01*
X008057Y004874D01*
X008033Y004834D01*
X008005Y004797D01*
X007974Y004762D01*
X007940Y004729D01*
X007904Y004700D01*
X007865Y004674D01*
X007824Y004651D01*
X007781Y004632D01*
X007737Y004616D01*
X007692Y004604D01*
X007646Y004596D01*
X007599Y004592D01*
X007553Y004592D01*
X007506Y004596D01*
X007460Y004604D01*
X007415Y004616D01*
X007371Y004632D01*
X007328Y004651D01*
X007287Y004674D01*
X007248Y004700D01*
X007212Y004729D01*
X007178Y004762D01*
X007147Y004797D01*
X007119Y004834D01*
X007095Y004874D01*
X007074Y004916D01*
X007056Y004959D01*
X007043Y005004D01*
X007033Y005050D01*
X007027Y005096D01*
X007025Y005143D01*
X007025Y010143D02*
X007027Y010190D01*
X007033Y010236D01*
X007043Y010282D01*
X007056Y010327D01*
X007074Y010370D01*
X007095Y010412D01*
X007119Y010452D01*
X007147Y010489D01*
X007178Y010524D01*
X007212Y010557D01*
X007248Y010586D01*
X007287Y010612D01*
X007328Y010635D01*
X007371Y010654D01*
X007415Y010670D01*
X007460Y010682D01*
X007506Y010690D01*
X007553Y010694D01*
X007599Y010694D01*
X007646Y010690D01*
X007692Y010682D01*
X007737Y010670D01*
X007781Y010654D01*
X007824Y010635D01*
X007865Y010612D01*
X007904Y010586D01*
X007940Y010557D01*
X007974Y010524D01*
X008005Y010489D01*
X008033Y010452D01*
X008057Y010412D01*
X008078Y010370D01*
X008096Y010327D01*
X008109Y010282D01*
X008119Y010236D01*
X008125Y010190D01*
X008127Y010143D01*
X008125Y010096D01*
X008119Y010050D01*
X008109Y010004D01*
X008096Y009959D01*
X008078Y009916D01*
X008057Y009874D01*
X008033Y009834D01*
X008005Y009797D01*
X007974Y009762D01*
X007940Y009729D01*
X007904Y009700D01*
X007865Y009674D01*
X007824Y009651D01*
X007781Y009632D01*
X007737Y009616D01*
X007692Y009604D01*
X007646Y009596D01*
X007599Y009592D01*
X007553Y009592D01*
X007506Y009596D01*
X007460Y009604D01*
X007415Y009616D01*
X007371Y009632D01*
X007328Y009651D01*
X007287Y009674D01*
X007248Y009700D01*
X007212Y009729D01*
X007178Y009762D01*
X007147Y009797D01*
X007119Y009834D01*
X007095Y009874D01*
X007074Y009916D01*
X007056Y009959D01*
X007043Y010004D01*
X007033Y010050D01*
X007027Y010096D01*
X007025Y010143D01*
X007025Y015143D02*
X007027Y015190D01*
X007033Y015236D01*
X007043Y015282D01*
X007056Y015327D01*
X007074Y015370D01*
X007095Y015412D01*
X007119Y015452D01*
X007147Y015489D01*
X007178Y015524D01*
X007212Y015557D01*
X007248Y015586D01*
X007287Y015612D01*
X007328Y015635D01*
X007371Y015654D01*
X007415Y015670D01*
X007460Y015682D01*
X007506Y015690D01*
X007553Y015694D01*
X007599Y015694D01*
X007646Y015690D01*
X007692Y015682D01*
X007737Y015670D01*
X007781Y015654D01*
X007824Y015635D01*
X007865Y015612D01*
X007904Y015586D01*
X007940Y015557D01*
X007974Y015524D01*
X008005Y015489D01*
X008033Y015452D01*
X008057Y015412D01*
X008078Y015370D01*
X008096Y015327D01*
X008109Y015282D01*
X008119Y015236D01*
X008125Y015190D01*
X008127Y015143D01*
X008125Y015096D01*
X008119Y015050D01*
X008109Y015004D01*
X008096Y014959D01*
X008078Y014916D01*
X008057Y014874D01*
X008033Y014834D01*
X008005Y014797D01*
X007974Y014762D01*
X007940Y014729D01*
X007904Y014700D01*
X007865Y014674D01*
X007824Y014651D01*
X007781Y014632D01*
X007737Y014616D01*
X007692Y014604D01*
X007646Y014596D01*
X007599Y014592D01*
X007553Y014592D01*
X007506Y014596D01*
X007460Y014604D01*
X007415Y014616D01*
X007371Y014632D01*
X007328Y014651D01*
X007287Y014674D01*
X007248Y014700D01*
X007212Y014729D01*
X007178Y014762D01*
X007147Y014797D01*
X007119Y014834D01*
X007095Y014874D01*
X007074Y014916D01*
X007056Y014959D01*
X007043Y015004D01*
X007033Y015050D01*
X007027Y015096D01*
X007025Y015143D01*
X012025Y010143D02*
X012027Y010190D01*
X012033Y010236D01*
X012043Y010282D01*
X012056Y010327D01*
X012074Y010370D01*
X012095Y010412D01*
X012119Y010452D01*
X012147Y010489D01*
X012178Y010524D01*
X012212Y010557D01*
X012248Y010586D01*
X012287Y010612D01*
X012328Y010635D01*
X012371Y010654D01*
X012415Y010670D01*
X012460Y010682D01*
X012506Y010690D01*
X012553Y010694D01*
X012599Y010694D01*
X012646Y010690D01*
X012692Y010682D01*
X012737Y010670D01*
X012781Y010654D01*
X012824Y010635D01*
X012865Y010612D01*
X012904Y010586D01*
X012940Y010557D01*
X012974Y010524D01*
X013005Y010489D01*
X013033Y010452D01*
X013057Y010412D01*
X013078Y010370D01*
X013096Y010327D01*
X013109Y010282D01*
X013119Y010236D01*
X013125Y010190D01*
X013127Y010143D01*
X013125Y010096D01*
X013119Y010050D01*
X013109Y010004D01*
X013096Y009959D01*
X013078Y009916D01*
X013057Y009874D01*
X013033Y009834D01*
X013005Y009797D01*
X012974Y009762D01*
X012940Y009729D01*
X012904Y009700D01*
X012865Y009674D01*
X012824Y009651D01*
X012781Y009632D01*
X012737Y009616D01*
X012692Y009604D01*
X012646Y009596D01*
X012599Y009592D01*
X012553Y009592D01*
X012506Y009596D01*
X012460Y009604D01*
X012415Y009616D01*
X012371Y009632D01*
X012328Y009651D01*
X012287Y009674D01*
X012248Y009700D01*
X012212Y009729D01*
X012178Y009762D01*
X012147Y009797D01*
X012119Y009834D01*
X012095Y009874D01*
X012074Y009916D01*
X012056Y009959D01*
X012043Y010004D01*
X012033Y010050D01*
X012027Y010096D01*
X012025Y010143D01*
X012025Y005143D02*
X012027Y005190D01*
X012033Y005236D01*
X012043Y005282D01*
X012056Y005327D01*
X012074Y005370D01*
X012095Y005412D01*
X012119Y005452D01*
X012147Y005489D01*
X012178Y005524D01*
X012212Y005557D01*
X012248Y005586D01*
X012287Y005612D01*
X012328Y005635D01*
X012371Y005654D01*
X012415Y005670D01*
X012460Y005682D01*
X012506Y005690D01*
X012553Y005694D01*
X012599Y005694D01*
X012646Y005690D01*
X012692Y005682D01*
X012737Y005670D01*
X012781Y005654D01*
X012824Y005635D01*
X012865Y005612D01*
X012904Y005586D01*
X012940Y005557D01*
X012974Y005524D01*
X013005Y005489D01*
X013033Y005452D01*
X013057Y005412D01*
X013078Y005370D01*
X013096Y005327D01*
X013109Y005282D01*
X013119Y005236D01*
X013125Y005190D01*
X013127Y005143D01*
X013125Y005096D01*
X013119Y005050D01*
X013109Y005004D01*
X013096Y004959D01*
X013078Y004916D01*
X013057Y004874D01*
X013033Y004834D01*
X013005Y004797D01*
X012974Y004762D01*
X012940Y004729D01*
X012904Y004700D01*
X012865Y004674D01*
X012824Y004651D01*
X012781Y004632D01*
X012737Y004616D01*
X012692Y004604D01*
X012646Y004596D01*
X012599Y004592D01*
X012553Y004592D01*
X012506Y004596D01*
X012460Y004604D01*
X012415Y004616D01*
X012371Y004632D01*
X012328Y004651D01*
X012287Y004674D01*
X012248Y004700D01*
X012212Y004729D01*
X012178Y004762D01*
X012147Y004797D01*
X012119Y004834D01*
X012095Y004874D01*
X012074Y004916D01*
X012056Y004959D01*
X012043Y005004D01*
X012033Y005050D01*
X012027Y005096D01*
X012025Y005143D01*
X017025Y005143D02*
X017027Y005190D01*
X017033Y005236D01*
X017043Y005282D01*
X017056Y005327D01*
X017074Y005370D01*
X017095Y005412D01*
X017119Y005452D01*
X017147Y005489D01*
X017178Y005524D01*
X017212Y005557D01*
X017248Y005586D01*
X017287Y005612D01*
X017328Y005635D01*
X017371Y005654D01*
X017415Y005670D01*
X017460Y005682D01*
X017506Y005690D01*
X017553Y005694D01*
X017599Y005694D01*
X017646Y005690D01*
X017692Y005682D01*
X017737Y005670D01*
X017781Y005654D01*
X017824Y005635D01*
X017865Y005612D01*
X017904Y005586D01*
X017940Y005557D01*
X017974Y005524D01*
X018005Y005489D01*
X018033Y005452D01*
X018057Y005412D01*
X018078Y005370D01*
X018096Y005327D01*
X018109Y005282D01*
X018119Y005236D01*
X018125Y005190D01*
X018127Y005143D01*
X018125Y005096D01*
X018119Y005050D01*
X018109Y005004D01*
X018096Y004959D01*
X018078Y004916D01*
X018057Y004874D01*
X018033Y004834D01*
X018005Y004797D01*
X017974Y004762D01*
X017940Y004729D01*
X017904Y004700D01*
X017865Y004674D01*
X017824Y004651D01*
X017781Y004632D01*
X017737Y004616D01*
X017692Y004604D01*
X017646Y004596D01*
X017599Y004592D01*
X017553Y004592D01*
X017506Y004596D01*
X017460Y004604D01*
X017415Y004616D01*
X017371Y004632D01*
X017328Y004651D01*
X017287Y004674D01*
X017248Y004700D01*
X017212Y004729D01*
X017178Y004762D01*
X017147Y004797D01*
X017119Y004834D01*
X017095Y004874D01*
X017074Y004916D01*
X017056Y004959D01*
X017043Y005004D01*
X017033Y005050D01*
X017027Y005096D01*
X017025Y005143D01*
X017025Y010143D02*
X017027Y010190D01*
X017033Y010236D01*
X017043Y010282D01*
X017056Y010327D01*
X017074Y010370D01*
X017095Y010412D01*
X017119Y010452D01*
X017147Y010489D01*
X017178Y010524D01*
X017212Y010557D01*
X017248Y010586D01*
X017287Y010612D01*
X017328Y010635D01*
X017371Y010654D01*
X017415Y010670D01*
X017460Y010682D01*
X017506Y010690D01*
X017553Y010694D01*
X017599Y010694D01*
X017646Y010690D01*
X017692Y010682D01*
X017737Y010670D01*
X017781Y010654D01*
X017824Y010635D01*
X017865Y010612D01*
X017904Y010586D01*
X017940Y010557D01*
X017974Y010524D01*
X018005Y010489D01*
X018033Y010452D01*
X018057Y010412D01*
X018078Y010370D01*
X018096Y010327D01*
X018109Y010282D01*
X018119Y010236D01*
X018125Y010190D01*
X018127Y010143D01*
X018125Y010096D01*
X018119Y010050D01*
X018109Y010004D01*
X018096Y009959D01*
X018078Y009916D01*
X018057Y009874D01*
X018033Y009834D01*
X018005Y009797D01*
X017974Y009762D01*
X017940Y009729D01*
X017904Y009700D01*
X017865Y009674D01*
X017824Y009651D01*
X017781Y009632D01*
X017737Y009616D01*
X017692Y009604D01*
X017646Y009596D01*
X017599Y009592D01*
X017553Y009592D01*
X017506Y009596D01*
X017460Y009604D01*
X017415Y009616D01*
X017371Y009632D01*
X017328Y009651D01*
X017287Y009674D01*
X017248Y009700D01*
X017212Y009729D01*
X017178Y009762D01*
X017147Y009797D01*
X017119Y009834D01*
X017095Y009874D01*
X017074Y009916D01*
X017056Y009959D01*
X017043Y010004D01*
X017033Y010050D01*
X017027Y010096D01*
X017025Y010143D01*
X017025Y015143D02*
X017027Y015190D01*
X017033Y015236D01*
X017043Y015282D01*
X017056Y015327D01*
X017074Y015370D01*
X017095Y015412D01*
X017119Y015452D01*
X017147Y015489D01*
X017178Y015524D01*
X017212Y015557D01*
X017248Y015586D01*
X017287Y015612D01*
X017328Y015635D01*
X017371Y015654D01*
X017415Y015670D01*
X017460Y015682D01*
X017506Y015690D01*
X017553Y015694D01*
X017599Y015694D01*
X017646Y015690D01*
X017692Y015682D01*
X017737Y015670D01*
X017781Y015654D01*
X017824Y015635D01*
X017865Y015612D01*
X017904Y015586D01*
X017940Y015557D01*
X017974Y015524D01*
X018005Y015489D01*
X018033Y015452D01*
X018057Y015412D01*
X018078Y015370D01*
X018096Y015327D01*
X018109Y015282D01*
X018119Y015236D01*
X018125Y015190D01*
X018127Y015143D01*
X018125Y015096D01*
X018119Y015050D01*
X018109Y015004D01*
X018096Y014959D01*
X018078Y014916D01*
X018057Y014874D01*
X018033Y014834D01*
X018005Y014797D01*
X017974Y014762D01*
X017940Y014729D01*
X017904Y014700D01*
X017865Y014674D01*
X017824Y014651D01*
X017781Y014632D01*
X017737Y014616D01*
X017692Y014604D01*
X017646Y014596D01*
X017599Y014592D01*
X017553Y014592D01*
X017506Y014596D01*
X017460Y014604D01*
X017415Y014616D01*
X017371Y014632D01*
X017328Y014651D01*
X017287Y014674D01*
X017248Y014700D01*
X017212Y014729D01*
X017178Y014762D01*
X017147Y014797D01*
X017119Y014834D01*
X017095Y014874D01*
X017074Y014916D01*
X017056Y014959D01*
X017043Y015004D01*
X017033Y015050D01*
X017027Y015096D01*
X017025Y015143D01*
D11*
X015826Y018643D03*
X015076Y021143D03*
X016076Y021643D03*
X015076Y024143D03*
X016076Y024643D03*
X017576Y024643D03*
X018576Y024643D03*
X019576Y023393D03*
X020826Y023393D03*
X021826Y023393D03*
X021826Y026393D03*
X021576Y027643D03*
X020826Y026393D03*
X020576Y027643D03*
X019576Y026393D03*
X020576Y030643D03*
X020826Y031643D03*
X021576Y030643D03*
X021826Y031643D03*
X021826Y034643D03*
X020826Y034643D03*
X019826Y032893D03*
X016826Y032893D03*
X015076Y033393D03*
X015076Y035393D03*
X013076Y025143D03*
X014076Y023143D03*
X011076Y023143D03*
X009326Y023393D03*
X009326Y024393D03*
X009326Y025393D03*
X009326Y022393D03*
X008076Y020143D03*
X009576Y018643D03*
X010826Y016893D03*
X009826Y013893D03*
X010826Y012893D03*
X012826Y013893D03*
X013826Y012893D03*
X013826Y016893D03*
X017576Y021643D03*
X018576Y021643D03*
X018076Y020143D03*
X018826Y018643D03*
X019826Y018643D03*
X020826Y018643D03*
X021826Y018643D03*
X021826Y015643D03*
X020826Y015643D03*
X019826Y015643D03*
X019826Y014893D03*
X019826Y011893D03*
X019826Y009143D03*
X020826Y009143D03*
X021826Y007893D03*
X021826Y007143D03*
X020826Y006143D03*
X019826Y006143D03*
X021826Y004143D03*
X021826Y010893D03*
X006576Y018643D03*
X006326Y022393D03*
X006326Y023393D03*
X006326Y024393D03*
X006326Y025393D03*
X005326Y024393D03*
X004326Y024393D03*
X003076Y024393D03*
X003076Y027393D03*
X004326Y027393D03*
X005326Y027393D03*
X004326Y029893D03*
X003076Y029893D03*
X003076Y032893D03*
X004326Y032893D03*
X006076Y040643D03*
X007076Y041393D03*
X005076Y041393D03*
X009076Y040643D03*
D12*
X007576Y017080D03*
X007576Y013813D03*
X007576Y012978D03*
X007576Y012080D03*
X007576Y008813D03*
X007576Y007978D03*
X007576Y007309D03*
X007576Y006474D03*
X007576Y003206D03*
X012576Y003206D03*
X012576Y006474D03*
X012576Y007309D03*
X012576Y007978D03*
X012576Y008813D03*
X012576Y012080D03*
X017576Y012080D03*
X017576Y012978D03*
X017576Y013813D03*
X017576Y017080D03*
X017576Y008813D03*
X017576Y007978D03*
X017576Y007309D03*
X017576Y006474D03*
X017576Y003206D03*
D13*
X017576Y027191D03*
X018560Y027191D03*
X016591Y027191D03*
X016591Y034691D03*
X017576Y034691D03*
X018560Y034691D03*
X008560Y034691D03*
X007576Y034691D03*
X006591Y034691D03*
X006591Y027191D03*
X007576Y027191D03*
X008560Y027191D03*
D14*
X009347Y030143D03*
X005804Y030143D03*
X005804Y037643D03*
X009347Y037643D03*
X015804Y037643D03*
X019347Y037643D03*
X019347Y030143D03*
X015804Y030143D03*
D15*
X012576Y021993D03*
X012576Y020143D03*
X012576Y018293D03*
D16*
X012326Y015903D02*
X012326Y015383D01*
X011326Y015383D02*
X011326Y015903D01*
X013326Y015903D02*
X013326Y015383D01*
X014441Y024893D02*
X014961Y024893D01*
X014961Y025893D02*
X014441Y025893D01*
X014441Y026893D02*
X014961Y026893D01*
X014336Y028393D02*
X013816Y028393D01*
X013816Y029393D02*
X014336Y029393D01*
X014336Y030393D02*
X013816Y030393D01*
X013816Y031393D02*
X014336Y031393D01*
X014336Y032393D02*
X013816Y032393D01*
X013816Y033393D02*
X014336Y033393D01*
X014336Y034393D02*
X013816Y034393D01*
X013816Y035393D02*
X014336Y035393D01*
X014336Y036393D02*
X013816Y036393D01*
X013816Y037393D02*
X014336Y037393D01*
X014336Y038393D02*
X013816Y038393D01*
X013816Y039393D02*
X014336Y039393D01*
X014336Y040393D02*
X013816Y040393D01*
X013816Y041393D02*
X014336Y041393D01*
X011336Y041393D02*
X010816Y041393D01*
X010816Y040393D02*
X011336Y040393D01*
X011336Y039393D02*
X010816Y039393D01*
X010816Y038393D02*
X011336Y038393D01*
X011336Y037393D02*
X010816Y037393D01*
X010816Y036393D02*
X011336Y036393D01*
X011336Y035393D02*
X010816Y035393D01*
X010816Y034393D02*
X011336Y034393D01*
X011336Y033393D02*
X010816Y033393D01*
X010816Y032393D02*
X011336Y032393D01*
X011336Y031393D02*
X010816Y031393D01*
X010816Y030393D02*
X011336Y030393D01*
X011336Y029393D02*
X010816Y029393D01*
X010816Y028393D02*
X011336Y028393D01*
X019951Y022278D02*
X019951Y021758D01*
X019951Y020153D02*
X019951Y019633D01*
X020951Y019633D02*
X020951Y020153D01*
X021951Y020153D02*
X021951Y019633D01*
X021951Y021758D02*
X021951Y022278D01*
X020951Y022278D02*
X020951Y021758D01*
X021066Y014393D02*
X021586Y014393D01*
X021586Y013393D02*
X021066Y013393D01*
X021066Y012393D02*
X021586Y012393D01*
D17*
X010076Y032393D03*
X010076Y033393D03*
X010076Y034393D03*
X016076Y041393D03*
X017076Y041393D03*
X018076Y041393D03*
X021826Y041393D03*
X021826Y040393D03*
X021826Y039393D03*
X021826Y038393D03*
X021826Y037393D03*
X021826Y036393D03*
X005326Y011393D03*
X004576Y010143D03*
X004576Y008143D03*
X003326Y008143D03*
X003326Y010143D03*
X003326Y011393D03*
X003826Y012893D03*
X003826Y013893D03*
X003826Y014893D03*
X003826Y015893D03*
X003826Y016893D03*
X003826Y017893D03*
X003826Y018893D03*
X003826Y019893D03*
X004826Y019893D03*
X004826Y018893D03*
X004826Y017893D03*
X004826Y016893D03*
X004826Y015893D03*
X004826Y014893D03*
X004826Y013893D03*
X004826Y012893D03*
X003701Y036143D03*
X003701Y037143D03*
X003701Y038143D03*
X003701Y039143D03*
X003701Y040143D03*
X003701Y041143D03*
D18*
X003326Y007143D03*
X004326Y007143D03*
X005326Y007143D03*
X005326Y003143D03*
X004326Y003143D03*
X003326Y003143D03*
D19*
X003326Y022143D03*
X005326Y022143D03*
D20*
X007076Y020143D03*
X012076Y025143D03*
X017076Y020143D03*
D21*
X019076Y041393D03*
D22*
X018901Y040771D02*
X018750Y040771D01*
X018611Y040714D01*
X018551Y040653D01*
X015683Y040653D01*
X015223Y041114D01*
X015127Y041153D01*
X014734Y041153D01*
X014796Y041302D01*
X014796Y041485D01*
X014726Y041654D01*
X014596Y041783D01*
X014524Y041813D01*
X015690Y041813D01*
X015592Y041716D01*
X015506Y041507D01*
X015506Y041280D01*
X015592Y041070D01*
X015753Y040910D01*
X015962Y040823D01*
X016189Y040823D01*
X016399Y040910D01*
X016559Y041070D01*
X016576Y041111D01*
X016592Y041070D01*
X016753Y040910D01*
X016962Y040823D01*
X017189Y040823D01*
X017399Y040910D01*
X017559Y041070D01*
X017576Y041111D01*
X017592Y041070D01*
X017753Y040910D01*
X017962Y040823D01*
X018189Y040823D01*
X018399Y040910D01*
X018506Y041017D01*
X018506Y040940D01*
X018623Y040823D01*
X019529Y040823D01*
X019646Y040940D01*
X019646Y041813D01*
X021468Y041813D01*
X021467Y041813D01*
X021406Y041752D01*
X021355Y041682D01*
X021316Y041604D01*
X021289Y041522D01*
X021276Y041437D01*
X021276Y041413D01*
X021806Y041413D01*
X021806Y041373D01*
X021276Y041373D01*
X021276Y041350D01*
X021289Y041265D01*
X021316Y041182D01*
X021355Y041105D01*
X021406Y041035D01*
X021467Y040974D01*
X021537Y040923D01*
X021572Y040905D01*
X021503Y040877D01*
X021342Y040716D01*
X021256Y040507D01*
X021256Y040280D01*
X021282Y040217D01*
X020968Y039903D01*
X019024Y039903D01*
X018928Y039864D01*
X018855Y039791D01*
X017105Y038041D01*
X017066Y037945D01*
X017066Y036521D01*
X017000Y036521D01*
X016861Y036464D01*
X016755Y036357D01*
X016698Y036219D01*
X016698Y036068D01*
X016755Y035929D01*
X016861Y035823D01*
X017000Y035765D01*
X017151Y035765D01*
X017209Y035789D01*
X017255Y035679D01*
X017361Y035573D01*
X017500Y035515D01*
X017651Y035515D01*
X017790Y035573D01*
X017896Y035679D01*
X017954Y035818D01*
X017954Y035969D01*
X017896Y036107D01*
X017836Y036168D01*
X017836Y037536D01*
X019433Y039133D01*
X021316Y039133D01*
X021342Y039070D01*
X021503Y038910D01*
X021543Y038893D01*
X021503Y038877D01*
X021342Y038716D01*
X021256Y038507D01*
X021256Y038441D01*
X020355Y037541D01*
X020316Y037445D01*
X020316Y036168D01*
X020255Y036107D01*
X020198Y035969D01*
X020198Y035818D01*
X020255Y035679D01*
X020361Y035573D01*
X020500Y035515D01*
X020651Y035515D01*
X020790Y035573D01*
X020896Y035679D01*
X020954Y035818D01*
X020954Y035969D01*
X020896Y036107D01*
X020836Y036168D01*
X020836Y037286D01*
X021481Y037931D01*
X021503Y037910D01*
X021543Y037893D01*
X021503Y037877D01*
X021342Y037716D01*
X021256Y037507D01*
X021256Y037280D01*
X021342Y037070D01*
X021503Y036910D01*
X021543Y036893D01*
X021503Y036877D01*
X021342Y036716D01*
X021256Y036507D01*
X021256Y036280D01*
X021342Y036070D01*
X021503Y035910D01*
X021566Y035884D01*
X021566Y035501D01*
X021178Y035114D01*
X021105Y035041D01*
X021098Y035022D01*
X021086Y035033D01*
X020917Y035103D01*
X020734Y035103D01*
X020565Y035033D01*
X020436Y034904D01*
X020366Y034735D01*
X020366Y034552D01*
X020366Y034551D01*
X019968Y034153D01*
X018778Y034153D01*
X018888Y034199D01*
X019052Y034362D01*
X019140Y034575D01*
X019140Y034806D01*
X019052Y035019D01*
X018888Y035182D01*
X018675Y035271D01*
X018445Y035271D01*
X018231Y035182D01*
X018068Y035019D01*
X018068Y035018D01*
X018067Y035019D01*
X017904Y035182D01*
X017691Y035271D01*
X017460Y035271D01*
X017247Y035182D01*
X017084Y035019D01*
X017070Y034985D01*
X017019Y035055D01*
X016956Y035118D01*
X016885Y035170D01*
X016806Y035210D01*
X016723Y035237D01*
X016635Y035251D01*
X016610Y035251D01*
X016610Y034709D01*
X016573Y034709D01*
X016573Y035251D01*
X016547Y035251D01*
X016460Y035237D01*
X016376Y035210D01*
X016298Y035170D01*
X016227Y035118D01*
X016164Y035055D01*
X016112Y034984D01*
X016072Y034906D01*
X016045Y034822D01*
X016031Y034735D01*
X016031Y034709D01*
X016573Y034709D01*
X016573Y034672D01*
X016610Y034672D01*
X016610Y034131D01*
X016635Y034131D01*
X016723Y034144D01*
X016806Y034172D01*
X016885Y034212D01*
X016956Y034263D01*
X017019Y034326D01*
X017070Y034396D01*
X017084Y034362D01*
X017247Y034199D01*
X017460Y034111D01*
X017691Y034111D01*
X017760Y034139D01*
X018185Y033713D01*
X015406Y033713D01*
X015336Y033783D01*
X015167Y033853D01*
X014984Y033853D01*
X014815Y033783D01*
X014706Y033674D01*
X014596Y033783D01*
X014427Y033853D01*
X013724Y033853D01*
X013555Y033783D01*
X013426Y033654D01*
X013356Y033485D01*
X013356Y033398D01*
X013290Y033464D01*
X013151Y033521D01*
X013000Y033521D01*
X012861Y033464D01*
X012755Y033357D01*
X012698Y033219D01*
X012698Y033153D01*
X011734Y033153D01*
X011796Y033302D01*
X011796Y033485D01*
X011726Y033654D01*
X011596Y033783D01*
X011427Y033853D01*
X010724Y033853D01*
X010555Y033783D01*
X010507Y033735D01*
X010495Y033752D01*
X010434Y033813D01*
X010364Y033864D01*
X010329Y033881D01*
X010399Y033910D01*
X010539Y034050D01*
X010585Y034017D01*
X010647Y033986D01*
X010713Y033964D01*
X010781Y033953D01*
X011076Y033953D01*
X011370Y033953D01*
X011439Y033964D01*
X011505Y033986D01*
X011566Y034017D01*
X011622Y034058D01*
X011671Y034107D01*
X011712Y034163D01*
X011743Y034224D01*
X011765Y034290D01*
X011776Y034359D01*
X011776Y034393D01*
X011076Y034393D01*
X011076Y034393D01*
X011076Y033953D01*
X011076Y034393D01*
X011076Y034393D01*
X011776Y034393D01*
X011776Y034428D01*
X011765Y034496D01*
X011743Y034562D01*
X011731Y034586D01*
X011762Y034573D01*
X013193Y034573D01*
X013356Y034411D01*
X013356Y034302D01*
X013426Y034133D01*
X013555Y034003D01*
X013724Y033933D01*
X014427Y033933D01*
X014596Y034003D01*
X014726Y034133D01*
X014796Y034302D01*
X014796Y034485D01*
X014726Y034654D01*
X014596Y034783D01*
X014427Y034853D01*
X013818Y034853D01*
X013705Y034967D01*
X013713Y034964D01*
X013781Y034953D01*
X014076Y034953D01*
X014370Y034953D01*
X014439Y034964D01*
X014505Y034986D01*
X014566Y035017D01*
X014622Y035058D01*
X014671Y035107D01*
X014706Y035154D01*
X014740Y035107D01*
X014789Y035058D01*
X014845Y035017D01*
X014907Y034986D01*
X014973Y034964D01*
X015041Y034953D01*
X015076Y034953D01*
X015110Y034953D01*
X015179Y034964D01*
X015245Y034986D01*
X015306Y035017D01*
X015362Y035058D01*
X015411Y035107D01*
X015452Y035163D01*
X015483Y035224D01*
X015505Y035290D01*
X015516Y035359D01*
X015516Y035393D01*
X015076Y035393D01*
X015076Y035393D01*
X015076Y034953D01*
X015076Y035393D01*
X015076Y035393D01*
X015516Y035393D01*
X015516Y035428D01*
X015505Y035496D01*
X015483Y035562D01*
X015452Y035624D01*
X015411Y035680D01*
X015362Y035729D01*
X015306Y035770D01*
X016989Y035770D01*
X017162Y035770D02*
X017218Y035770D01*
X017323Y035611D02*
X015458Y035611D01*
X015512Y035453D02*
X021518Y035453D01*
X021566Y035611D02*
X020828Y035611D01*
X020934Y035770D02*
X021566Y035770D01*
X021485Y035928D02*
X020954Y035928D01*
X020905Y036087D02*
X021336Y036087D01*
X021270Y036245D02*
X020836Y036245D01*
X020836Y036404D02*
X021256Y036404D01*
X021279Y036562D02*
X020836Y036562D01*
X020836Y036721D02*
X021347Y036721D01*
X021510Y036879D02*
X020836Y036879D01*
X020836Y037038D02*
X021375Y037038D01*
X021290Y037196D02*
X020836Y037196D01*
X020905Y037355D02*
X021256Y037355D01*
X021258Y037513D02*
X021063Y037513D01*
X021222Y037672D02*
X021324Y037672D01*
X021380Y037830D02*
X021457Y037830D01*
X021256Y038464D02*
X018764Y038464D01*
X018606Y038306D02*
X018954Y038306D01*
X018918Y038285D02*
X018838Y038224D01*
X018767Y038152D01*
X018705Y038072D01*
X018655Y037985D01*
X018616Y037892D01*
X018590Y037794D01*
X018581Y037723D01*
X019267Y037723D01*
X019267Y037563D01*
X018581Y037563D01*
X018590Y037493D01*
X018616Y037395D01*
X018655Y037302D01*
X018705Y037214D01*
X018767Y037134D01*
X018838Y037063D01*
X018918Y037001D01*
X019006Y036951D01*
X019099Y036912D01*
X019197Y036886D01*
X019267Y036877D01*
X019267Y037563D01*
X019427Y037563D01*
X019427Y036877D01*
X019498Y036886D01*
X019596Y036912D01*
X019689Y036951D01*
X019776Y037001D01*
X019856Y037063D01*
X019928Y037134D01*
X019989Y037214D01*
X020040Y037302D01*
X020079Y037395D01*
X020105Y037493D01*
X020114Y037563D01*
X019427Y037563D01*
X019427Y037723D01*
X019267Y037723D01*
X019267Y038410D01*
X019197Y038401D01*
X019099Y038375D01*
X019006Y038336D01*
X018918Y038285D01*
X018763Y038147D02*
X018447Y038147D01*
X018289Y037989D02*
X018657Y037989D01*
X018600Y037830D02*
X018130Y037830D01*
X017972Y037672D02*
X019267Y037672D01*
X019267Y037830D02*
X019427Y037830D01*
X019427Y037723D02*
X019427Y038410D01*
X019498Y038401D01*
X019596Y038375D01*
X019689Y038336D01*
X019776Y038285D01*
X019856Y038224D01*
X019928Y038152D01*
X019989Y038072D01*
X020040Y037985D01*
X020079Y037892D01*
X020105Y037794D01*
X020114Y037723D01*
X019427Y037723D01*
X019427Y037672D02*
X020487Y037672D01*
X020344Y037513D02*
X020107Y037513D01*
X020062Y037355D02*
X020316Y037355D01*
X020316Y037196D02*
X019976Y037196D01*
X019824Y037038D02*
X020316Y037038D01*
X020316Y036879D02*
X019448Y036879D01*
X019427Y036879D02*
X019267Y036879D01*
X019247Y036879D02*
X017836Y036879D01*
X017836Y036721D02*
X020316Y036721D01*
X020316Y036562D02*
X017836Y036562D01*
X017836Y036404D02*
X020316Y036404D01*
X020316Y036245D02*
X017836Y036245D01*
X017905Y036087D02*
X020247Y036087D01*
X020198Y035928D02*
X017954Y035928D01*
X017934Y035770D02*
X020218Y035770D01*
X020323Y035611D02*
X017828Y035611D01*
X017951Y035136D02*
X018185Y035136D01*
X018935Y035136D02*
X021201Y035136D01*
X021178Y035114D02*
X021178Y035114D01*
X021359Y035294D02*
X015505Y035294D01*
X015432Y035136D02*
X016252Y035136D01*
X016109Y034977D02*
X015219Y034977D01*
X015076Y034977D02*
X015076Y034977D01*
X014932Y034977D02*
X014479Y034977D01*
X014510Y034819D02*
X016045Y034819D01*
X016031Y034672D02*
X016031Y034646D01*
X016045Y034559D01*
X016072Y034476D01*
X016112Y034397D01*
X016164Y034326D01*
X016227Y034263D01*
X016298Y034212D01*
X016376Y034172D01*
X016460Y034144D01*
X016547Y034131D01*
X016573Y034131D01*
X016573Y034672D01*
X016031Y034672D01*
X016031Y034660D02*
X014719Y034660D01*
X014789Y034502D02*
X016064Y034502D01*
X016151Y034343D02*
X014796Y034343D01*
X014747Y034185D02*
X016350Y034185D01*
X016573Y034185D02*
X016610Y034185D01*
X016610Y034343D02*
X016573Y034343D01*
X016573Y034502D02*
X016610Y034502D01*
X016610Y034660D02*
X016573Y034660D01*
X016573Y034819D02*
X016610Y034819D01*
X016610Y034977D02*
X016573Y034977D01*
X016573Y035136D02*
X016610Y035136D01*
X016931Y035136D02*
X017201Y035136D01*
X017103Y034343D02*
X017031Y034343D01*
X016832Y034185D02*
X017281Y034185D01*
X017872Y034026D02*
X014619Y034026D01*
X014670Y033709D02*
X014741Y033709D01*
X014076Y034953D02*
X014076Y035393D01*
X014636Y035393D01*
X015076Y035393D01*
X015076Y035393D01*
X015076Y035833D01*
X015110Y035833D01*
X015179Y035822D01*
X015245Y035801D01*
X015306Y035770D01*
X015076Y035770D02*
X015076Y035770D01*
X015076Y035833D02*
X015041Y035833D01*
X014973Y035822D01*
X014907Y035801D01*
X014845Y035770D01*
X014789Y035729D01*
X014740Y035680D01*
X014706Y035633D01*
X014671Y035680D01*
X014622Y035729D01*
X014566Y035770D01*
X014846Y035770D01*
X015076Y035833D02*
X015076Y035393D01*
X015076Y035393D01*
X014076Y035393D01*
X014076Y035393D01*
X014076Y035393D01*
X014076Y034953D01*
X014076Y034977D02*
X014076Y034977D01*
X014076Y035136D02*
X014076Y035136D01*
X014076Y035294D02*
X014076Y035294D01*
X014076Y035393D02*
X013376Y035393D01*
X013376Y035359D01*
X013386Y035290D01*
X013408Y035224D01*
X013420Y035201D01*
X013389Y035213D01*
X011958Y035213D01*
X011796Y035376D01*
X011796Y035485D01*
X011726Y035654D01*
X011596Y035783D01*
X011427Y035853D01*
X010724Y035853D01*
X010555Y035783D01*
X010426Y035654D01*
X010356Y035485D01*
X010356Y035302D01*
X010426Y035133D01*
X010555Y035003D01*
X010724Y034933D01*
X011333Y034933D01*
X011446Y034820D01*
X011439Y034822D01*
X011370Y034833D01*
X011076Y034833D01*
X011076Y034393D01*
X011076Y034393D01*
X010646Y034393D01*
X010646Y034393D01*
X011076Y034393D01*
X011076Y034393D01*
X011076Y034833D01*
X010781Y034833D01*
X010713Y034822D01*
X010647Y034801D01*
X010585Y034770D01*
X010539Y034736D01*
X010399Y034877D01*
X010189Y034963D01*
X009962Y034963D01*
X009753Y034877D01*
X009592Y034716D01*
X009506Y034507D01*
X009506Y034280D01*
X009592Y034070D01*
X009753Y033910D01*
X009822Y033881D01*
X009787Y033864D01*
X009717Y033813D01*
X009656Y033752D01*
X009605Y033682D01*
X009566Y033604D01*
X009539Y033522D01*
X009526Y033437D01*
X009526Y033393D01*
X009526Y033350D01*
X009539Y033265D01*
X009566Y033182D01*
X009581Y033153D01*
X004716Y033153D01*
X004716Y033154D01*
X004586Y033283D01*
X004417Y033353D01*
X004234Y033353D01*
X004065Y033283D01*
X003936Y033154D01*
X003866Y032985D01*
X003866Y032802D01*
X003936Y032633D01*
X004065Y032503D01*
X004234Y032433D01*
X004417Y032433D01*
X004586Y032503D01*
X004716Y032633D01*
X009558Y032633D01*
X009506Y032507D01*
X009506Y032280D01*
X009592Y032070D01*
X009753Y031910D01*
X009962Y031823D01*
X010110Y031823D01*
X009960Y031673D01*
X005330Y031673D01*
X005290Y031714D01*
X005151Y031771D01*
X005000Y031771D01*
X004861Y031714D01*
X004755Y031607D01*
X004698Y031469D01*
X004698Y031318D01*
X004755Y031179D01*
X004861Y031073D01*
X005000Y031015D01*
X005151Y031015D01*
X005290Y031073D01*
X005330Y031113D01*
X010131Y031113D01*
X010234Y031156D01*
X010313Y031235D01*
X010363Y031284D01*
X010426Y031133D01*
X010440Y031119D01*
X010428Y031114D01*
X010178Y030864D01*
X010105Y030791D01*
X010066Y030695D01*
X010066Y030423D01*
X010040Y030485D01*
X009989Y030572D01*
X009928Y030652D01*
X009856Y030724D01*
X009776Y030785D01*
X009689Y030836D01*
X009596Y030875D01*
X009498Y030901D01*
X009427Y030910D01*
X009427Y030223D01*
X009267Y030223D01*
X009267Y030063D01*
X009427Y030063D01*
X009427Y029377D01*
X009498Y029386D01*
X009596Y029412D01*
X009689Y029451D01*
X009776Y029501D01*
X009856Y029563D01*
X009928Y029634D01*
X009989Y029714D01*
X010040Y029802D01*
X010066Y029864D01*
X010066Y027501D01*
X009218Y026653D01*
X008778Y026653D01*
X008888Y026699D01*
X009052Y026862D01*
X009140Y027075D01*
X009140Y027306D01*
X009052Y027519D01*
X008888Y027682D01*
X008675Y027771D01*
X008445Y027771D01*
X008231Y027682D01*
X008068Y027519D01*
X008068Y027518D01*
X008067Y027519D01*
X007904Y027682D01*
X007691Y027771D01*
X007460Y027771D01*
X007247Y027682D01*
X007084Y027519D01*
X007070Y027485D01*
X007019Y027555D01*
X006956Y027618D01*
X006885Y027670D01*
X006806Y027710D01*
X006723Y027737D01*
X006635Y027751D01*
X006610Y027751D01*
X006610Y027209D01*
X006573Y027209D01*
X006573Y027751D01*
X006547Y027751D01*
X006460Y027737D01*
X006376Y027710D01*
X006298Y027670D01*
X006227Y027618D01*
X006164Y027555D01*
X006112Y027484D01*
X006072Y027406D01*
X006045Y027322D01*
X006031Y027235D01*
X006031Y027209D01*
X006573Y027209D01*
X006573Y027172D01*
X006610Y027172D01*
X006610Y026631D01*
X006635Y026631D01*
X006723Y026644D01*
X006806Y026672D01*
X006885Y026712D01*
X006956Y026763D01*
X007019Y026826D01*
X007070Y026896D01*
X007084Y026862D01*
X007247Y026699D01*
X007460Y026611D01*
X007691Y026611D01*
X007806Y026658D01*
X007755Y026607D01*
X007698Y026469D01*
X007698Y026318D01*
X007755Y026179D01*
X007861Y026073D01*
X008000Y026015D01*
X008151Y026015D01*
X008290Y026073D01*
X008350Y026133D01*
X009377Y026133D01*
X009473Y026173D01*
X010473Y027173D01*
X010546Y027246D01*
X010586Y027342D01*
X010586Y027991D01*
X010724Y027933D01*
X011168Y027933D01*
X011220Y027881D01*
X011178Y027864D01*
X009855Y026541D01*
X009816Y026445D01*
X009816Y025251D01*
X009729Y025164D01*
X009786Y025302D01*
X009786Y025485D01*
X009716Y025654D01*
X009586Y025783D01*
X009417Y025853D01*
X009234Y025853D01*
X009065Y025783D01*
X008936Y025654D01*
X008866Y025485D01*
X008866Y025302D01*
X008936Y025133D01*
X009065Y025003D01*
X009234Y024933D01*
X009417Y024933D01*
X009555Y024990D01*
X009418Y024853D01*
X009417Y024853D01*
X009234Y024853D01*
X009065Y024783D01*
X008936Y024654D01*
X008866Y024485D01*
X008866Y024302D01*
X008936Y024133D01*
X009065Y024003D01*
X009234Y023933D01*
X009417Y023933D01*
X009555Y023990D01*
X009418Y023853D01*
X009417Y023853D01*
X009234Y023853D01*
X009065Y023783D01*
X008936Y023654D01*
X008866Y023485D01*
X008866Y023302D01*
X008936Y023133D01*
X009065Y023003D01*
X009234Y022933D01*
X009417Y022933D01*
X009586Y023003D01*
X009716Y023133D01*
X009786Y023302D01*
X009786Y023485D01*
X009785Y023485D01*
X010046Y023746D01*
X010086Y023842D01*
X010086Y024286D01*
X010546Y024746D01*
X010586Y024842D01*
X010586Y026036D01*
X011683Y027133D01*
X014071Y027133D01*
X014064Y027124D01*
X014033Y027062D01*
X014011Y026996D01*
X014001Y026928D01*
X014001Y026893D01*
X014001Y026859D01*
X014011Y026790D01*
X014033Y026724D01*
X014064Y026663D01*
X014105Y026607D01*
X014154Y026558D01*
X014210Y026517D01*
X014272Y026486D01*
X014338Y026464D01*
X014406Y026453D01*
X014701Y026453D01*
X014995Y026453D01*
X015064Y026464D01*
X015130Y026486D01*
X015191Y026517D01*
X015229Y026544D01*
X015198Y026469D01*
X015198Y026318D01*
X015210Y026288D01*
X015052Y026353D01*
X014349Y026353D01*
X014180Y026283D01*
X014051Y026154D01*
X013981Y025985D01*
X013981Y025802D01*
X014051Y025633D01*
X014180Y025503D01*
X014349Y025433D01*
X015052Y025433D01*
X015221Y025503D01*
X015351Y025633D01*
X015421Y025802D01*
X015421Y025985D01*
X015389Y026061D01*
X015500Y026015D01*
X015651Y026015D01*
X015790Y026073D01*
X015850Y026133D01*
X016801Y026133D01*
X016861Y026073D01*
X017000Y026015D01*
X017151Y026015D01*
X017290Y026073D01*
X017396Y026179D01*
X017454Y026318D01*
X017454Y026469D01*
X017396Y026607D01*
X017346Y026658D01*
X017460Y026611D01*
X017691Y026611D01*
X017904Y026699D01*
X018067Y026862D01*
X018068Y026863D01*
X018068Y026862D01*
X018231Y026699D01*
X018445Y026611D01*
X018675Y026611D01*
X018888Y026699D01*
X019052Y026862D01*
X019140Y027075D01*
X019140Y027211D01*
X019140Y027211D01*
X019428Y026923D01*
X019524Y026883D01*
X021127Y026883D01*
X021223Y026923D01*
X021296Y026996D01*
X021484Y027184D01*
X021484Y027183D01*
X021667Y027183D01*
X021836Y027253D01*
X021966Y027383D01*
X022036Y027552D01*
X022036Y027735D01*
X021966Y027904D01*
X021836Y028033D01*
X021667Y028103D01*
X021484Y028103D01*
X021315Y028033D01*
X021186Y027904D01*
X021116Y027735D01*
X021116Y027552D01*
X021116Y027551D01*
X020979Y027414D01*
X021036Y027552D01*
X021036Y027735D01*
X020966Y027904D01*
X020836Y028033D01*
X020667Y028103D01*
X020484Y028103D01*
X020315Y028033D01*
X020186Y027904D01*
X020185Y027903D01*
X019683Y027903D01*
X019453Y028133D01*
X019801Y028133D01*
X019861Y028073D01*
X020000Y028015D01*
X020151Y028015D01*
X020290Y028073D01*
X020396Y028179D01*
X020454Y028318D01*
X020454Y028469D01*
X020396Y028607D01*
X020290Y028714D01*
X020151Y028771D01*
X020071Y028771D01*
X021484Y030184D01*
X021484Y030183D01*
X021667Y030183D01*
X021836Y030253D01*
X021966Y030383D01*
X022036Y030552D01*
X022036Y030735D01*
X021966Y030904D01*
X021836Y031033D01*
X021667Y031103D01*
X021484Y031103D01*
X021315Y031033D01*
X021186Y030904D01*
X021116Y030735D01*
X021116Y030552D01*
X021116Y030551D01*
X020979Y030414D01*
X021036Y030552D01*
X021036Y030735D01*
X020966Y030904D01*
X020836Y031033D01*
X020667Y031103D01*
X020484Y031103D01*
X020315Y031033D01*
X020186Y030904D01*
X020116Y030735D01*
X020116Y030552D01*
X020186Y030383D01*
X020315Y030253D01*
X020484Y030183D01*
X020667Y030183D01*
X020805Y030240D01*
X019468Y028903D01*
X017929Y028903D01*
X017896Y028982D01*
X017790Y029089D01*
X017651Y029146D01*
X017500Y029146D01*
X017361Y029089D01*
X017255Y028982D01*
X017198Y028844D01*
X017198Y028693D01*
X017214Y028653D01*
X015024Y028653D01*
X014928Y028614D01*
X014796Y028481D01*
X014796Y028485D01*
X014726Y028654D01*
X014596Y028783D01*
X014427Y028853D01*
X013724Y028853D01*
X013555Y028783D01*
X013426Y028654D01*
X013356Y028485D01*
X013356Y028302D01*
X013417Y028153D01*
X011734Y028153D01*
X011796Y028302D01*
X011796Y028485D01*
X011726Y028654D01*
X011596Y028783D01*
X011427Y028853D01*
X010724Y028853D01*
X010586Y028796D01*
X010586Y028991D01*
X010724Y028933D01*
X011427Y028933D01*
X011596Y029003D01*
X011726Y029133D01*
X011796Y029302D01*
X011796Y029485D01*
X011726Y029654D01*
X011596Y029783D01*
X011427Y029853D01*
X010724Y029853D01*
X010586Y029796D01*
X010586Y029991D01*
X010724Y029933D01*
X011427Y029933D01*
X011596Y030003D01*
X011726Y030133D01*
X011796Y030302D01*
X011796Y030485D01*
X011726Y030654D01*
X011711Y030668D01*
X011723Y030673D01*
X011796Y030746D01*
X012183Y031133D01*
X013425Y031133D01*
X013426Y031133D01*
X013555Y031003D01*
X013724Y030933D01*
X014427Y030933D01*
X014596Y031003D01*
X014726Y031133D01*
X014756Y031206D01*
X015565Y032015D01*
X015651Y032015D01*
X015790Y032073D01*
X015896Y032179D01*
X015954Y032318D01*
X015954Y032469D01*
X015896Y032607D01*
X015890Y032613D01*
X016455Y032613D01*
X016565Y032503D01*
X016734Y032433D01*
X016917Y032433D01*
X017086Y032503D01*
X017216Y032633D01*
X017286Y032802D01*
X017286Y032985D01*
X017249Y033073D01*
X018361Y033073D01*
X018361Y033073D01*
X018500Y033015D01*
X018651Y033015D01*
X018790Y033073D01*
X018896Y033179D01*
X018954Y033318D01*
X018954Y033383D01*
X020627Y033383D01*
X020723Y033423D01*
X021473Y034173D01*
X021546Y034246D01*
X021554Y034265D01*
X021565Y034253D01*
X021734Y034183D01*
X021917Y034183D01*
X022086Y034253D01*
X022179Y034346D01*
X022179Y031941D01*
X022086Y032033D01*
X021917Y032103D01*
X021734Y032103D01*
X021565Y032033D01*
X021436Y031904D01*
X021435Y031903D01*
X021216Y031903D01*
X021216Y031904D01*
X021086Y032033D01*
X020917Y032103D01*
X020734Y032103D01*
X020565Y032033D01*
X020436Y031904D01*
X020435Y031903D01*
X020100Y031903D01*
X020040Y031964D01*
X019901Y032021D01*
X019750Y032021D01*
X019611Y031964D01*
X019505Y031857D01*
X019448Y031719D01*
X019448Y031568D01*
X019505Y031429D01*
X019611Y031323D01*
X019750Y031265D01*
X019901Y031265D01*
X020040Y031323D01*
X020100Y031383D01*
X020435Y031383D01*
X020436Y031383D01*
X020565Y031253D01*
X020734Y031183D01*
X020917Y031183D01*
X021086Y031253D01*
X021216Y031383D01*
X021435Y031383D01*
X021436Y031383D01*
X021565Y031253D01*
X021734Y031183D01*
X021917Y031183D01*
X022086Y031253D01*
X022179Y031346D01*
X022179Y026691D01*
X022086Y026783D01*
X021917Y026853D01*
X021734Y026853D01*
X021565Y026783D01*
X021436Y026654D01*
X021366Y026485D01*
X021366Y026302D01*
X021436Y026133D01*
X021565Y026003D01*
X021734Y025933D01*
X021917Y025933D01*
X022086Y026003D01*
X022179Y026096D01*
X022179Y023656D01*
X022161Y023680D01*
X022112Y023729D01*
X022056Y023770D01*
X021995Y023801D01*
X021929Y023822D01*
X021860Y023833D01*
X021826Y023833D01*
X021826Y023393D01*
X021826Y022953D01*
X021860Y022953D01*
X021929Y022964D01*
X021995Y022986D01*
X022056Y023017D01*
X022112Y023058D01*
X022161Y023107D01*
X022179Y023131D01*
X022179Y022656D01*
X022120Y022686D01*
X022054Y022707D01*
X021985Y022718D01*
X021951Y022718D01*
X021951Y022018D01*
X021951Y021318D01*
X021985Y021318D01*
X022054Y021329D01*
X022120Y021351D01*
X022179Y021381D01*
X022179Y020557D01*
X022042Y020613D01*
X021859Y020613D01*
X021690Y020543D01*
X021561Y020414D01*
X021491Y020245D01*
X021491Y019542D01*
X021561Y019373D01*
X021690Y019243D01*
X021859Y019173D01*
X022042Y019173D01*
X022179Y019230D01*
X022179Y018941D01*
X022086Y019033D01*
X021917Y019103D01*
X021734Y019103D01*
X021565Y019033D01*
X021436Y018904D01*
X021435Y018903D01*
X021216Y018903D01*
X021216Y018904D01*
X021086Y019033D01*
X020917Y019103D01*
X020734Y019103D01*
X020565Y019033D01*
X020436Y018904D01*
X020366Y018735D01*
X020366Y018552D01*
X020436Y018383D01*
X020565Y018253D01*
X020734Y018183D01*
X020917Y018183D01*
X021086Y018253D01*
X021216Y018383D01*
X021435Y018383D01*
X021436Y018383D01*
X021565Y018253D01*
X021734Y018183D01*
X021917Y018183D01*
X022086Y018253D01*
X022179Y018346D01*
X022179Y015906D01*
X022161Y015930D01*
X022112Y015979D01*
X022056Y016020D01*
X021995Y016051D01*
X021929Y016072D01*
X021860Y016083D01*
X021826Y016083D01*
X021826Y015643D01*
X021826Y015203D01*
X021860Y015203D01*
X021929Y015214D01*
X021995Y015236D01*
X022056Y015267D01*
X022112Y015308D01*
X022161Y015357D01*
X022179Y015381D01*
X022179Y011191D01*
X022086Y011283D01*
X021917Y011353D01*
X021734Y011353D01*
X021565Y011283D01*
X021436Y011154D01*
X021366Y010985D01*
X021366Y010802D01*
X021436Y010633D01*
X021565Y010503D01*
X021734Y010433D01*
X021917Y010433D01*
X022086Y010503D01*
X022179Y010596D01*
X022179Y008191D01*
X022179Y008191D01*
X022086Y008283D01*
X021917Y008353D01*
X021734Y008353D01*
X021565Y008283D01*
X021436Y008154D01*
X021366Y007985D01*
X021366Y007802D01*
X021436Y007633D01*
X021550Y007518D01*
X021436Y007404D01*
X021366Y007235D01*
X021366Y007052D01*
X021436Y006883D01*
X021565Y006753D01*
X021734Y006683D01*
X021917Y006683D01*
X022086Y006753D01*
X022179Y006846D01*
X022179Y004406D01*
X022161Y004430D01*
X022112Y004479D01*
X022056Y004520D01*
X021995Y004551D01*
X021929Y004572D01*
X021860Y004583D01*
X021826Y004583D01*
X021826Y004143D01*
X021826Y003703D01*
X021860Y003703D01*
X021929Y003714D01*
X021995Y003736D01*
X022056Y003767D01*
X022112Y003808D01*
X022161Y003857D01*
X022179Y003881D01*
X022179Y002843D01*
X017915Y002843D01*
X017997Y002925D01*
X018006Y002946D01*
X018440Y002946D01*
X018536Y002986D01*
X018973Y003423D01*
X019046Y003496D01*
X019086Y003592D01*
X019086Y011619D01*
X019146Y011679D01*
X019204Y011818D01*
X019204Y011969D01*
X019146Y012107D01*
X019040Y012214D01*
X018901Y012271D01*
X018750Y012271D01*
X018611Y012214D01*
X018505Y012107D01*
X018448Y011969D01*
X018448Y011818D01*
X018505Y011679D01*
X018566Y011619D01*
X018566Y003751D01*
X018281Y003466D01*
X018006Y003466D01*
X017997Y003488D01*
X017857Y003628D01*
X017674Y003703D01*
X017477Y003703D01*
X017294Y003628D01*
X017154Y003488D01*
X017079Y003305D01*
X017079Y003107D01*
X017154Y002925D01*
X017236Y002843D01*
X012915Y002843D01*
X012997Y002925D01*
X013019Y002979D01*
X013036Y002986D01*
X013473Y003423D01*
X013546Y003496D01*
X013586Y003592D01*
X013586Y004015D01*
X013651Y004015D01*
X013790Y004073D01*
X013896Y004179D01*
X013954Y004318D01*
X013954Y004469D01*
X013896Y004607D01*
X013790Y004714D01*
X013651Y004771D01*
X013500Y004771D01*
X013361Y004714D01*
X013255Y004607D01*
X013198Y004469D01*
X013198Y004383D01*
X013105Y004291D01*
X013066Y004195D01*
X013066Y003751D01*
X012900Y003585D01*
X012857Y003628D01*
X012674Y003703D01*
X012477Y003703D01*
X012294Y003628D01*
X012154Y003488D01*
X012079Y003305D01*
X012079Y003107D01*
X012154Y002925D01*
X012236Y002843D01*
X007915Y002843D01*
X007997Y002925D01*
X008073Y003107D01*
X008073Y003305D01*
X007997Y003488D01*
X007857Y003628D01*
X007674Y003703D01*
X007477Y003703D01*
X007294Y003628D01*
X007154Y003488D01*
X007079Y003305D01*
X007079Y003107D01*
X007154Y002925D01*
X007236Y002843D01*
X005812Y002843D01*
X005813Y002845D01*
X005854Y002925D01*
X005882Y003010D01*
X005896Y003098D01*
X005896Y003125D01*
X005344Y003125D01*
X005344Y003162D01*
X005307Y003162D01*
X005307Y003713D01*
X005281Y003713D01*
X005192Y003699D01*
X005107Y003672D01*
X005027Y003631D01*
X004954Y003578D01*
X004891Y003515D01*
X004838Y003442D01*
X004826Y003418D01*
X004813Y003442D01*
X004760Y003515D01*
X004697Y003578D01*
X004624Y003631D01*
X004544Y003672D01*
X004459Y003699D01*
X004371Y003713D01*
X004344Y003713D01*
X004344Y003162D01*
X004307Y003162D01*
X004307Y003713D01*
X004281Y003713D01*
X004192Y003699D01*
X004107Y003672D01*
X004027Y003631D01*
X003954Y003578D01*
X003891Y003515D01*
X003838Y003442D01*
X003826Y003418D01*
X003813Y003442D01*
X003760Y003515D01*
X003697Y003578D01*
X003624Y003631D01*
X003544Y003672D01*
X003459Y003699D01*
X003371Y003713D01*
X003344Y003713D01*
X003344Y003162D01*
X003307Y003162D01*
X003307Y003713D01*
X003281Y003713D01*
X003192Y003699D01*
X003107Y003672D01*
X003027Y003631D01*
X002954Y003578D01*
X002894Y003518D01*
X002894Y006741D01*
X002991Y006643D01*
X003208Y006553D01*
X003443Y006553D01*
X003660Y006643D01*
X003826Y006809D01*
X003991Y006643D01*
X004208Y006553D01*
X004443Y006553D01*
X004660Y006643D01*
X004826Y006809D01*
X004991Y006643D01*
X005208Y006553D01*
X005443Y006553D01*
X005660Y006643D01*
X005826Y006809D01*
X005916Y007026D01*
X005916Y007261D01*
X005826Y007478D01*
X005660Y007643D01*
X005443Y007733D01*
X005208Y007733D01*
X004991Y007643D01*
X004826Y007478D01*
X004718Y007585D01*
X004899Y007660D01*
X005059Y007820D01*
X005146Y008030D01*
X005146Y008257D01*
X005059Y008466D01*
X004899Y008627D01*
X004689Y008713D01*
X004462Y008713D01*
X004253Y008627D01*
X004092Y008466D01*
X004006Y008257D01*
X004006Y008030D01*
X004092Y007820D01*
X004188Y007725D01*
X003991Y007643D01*
X003826Y007478D01*
X003660Y007643D01*
X003634Y007654D01*
X003649Y007660D01*
X003809Y007820D01*
X003896Y008030D01*
X003896Y008257D01*
X003809Y008466D01*
X003802Y008473D01*
X004192Y008863D01*
X004881Y008863D01*
X004984Y008906D01*
X006234Y010156D01*
X006313Y010235D01*
X006356Y010338D01*
X006356Y018237D01*
X006484Y018183D01*
X006667Y018183D01*
X006836Y018253D01*
X006966Y018383D01*
X007036Y018552D01*
X007036Y018735D01*
X006966Y018904D01*
X006836Y019033D01*
X006667Y019103D01*
X006484Y019103D01*
X006356Y019050D01*
X006356Y020527D01*
X006484Y020656D01*
X006563Y020735D01*
X006606Y020838D01*
X006606Y022023D01*
X006716Y022133D01*
X006786Y022302D01*
X006786Y022485D01*
X006716Y022654D01*
X006586Y022783D01*
X006417Y022853D01*
X006234Y022853D01*
X006065Y022783D01*
X005936Y022654D01*
X005866Y022485D01*
X005866Y022342D01*
X005813Y022469D01*
X005651Y022631D01*
X005440Y022718D01*
X005211Y022718D01*
X005000Y022631D01*
X004838Y022469D01*
X004751Y022258D01*
X004751Y022029D01*
X004838Y021818D01*
X005000Y021656D01*
X005211Y021568D01*
X005440Y021568D01*
X005651Y021656D01*
X005813Y021818D01*
X005901Y022029D01*
X005901Y022217D01*
X005936Y022133D01*
X006046Y022023D01*
X006046Y021009D01*
X005838Y020802D01*
X005796Y020699D01*
X005796Y011729D01*
X005649Y011877D01*
X005439Y011963D01*
X005212Y011963D01*
X005003Y011877D01*
X004842Y011716D01*
X004756Y011507D01*
X004756Y011280D01*
X004842Y011070D01*
X005003Y010910D01*
X005212Y010823D01*
X005439Y010823D01*
X005649Y010910D01*
X005796Y011057D01*
X005796Y010509D01*
X004710Y009423D01*
X004020Y009423D01*
X003917Y009381D01*
X003838Y009302D01*
X003250Y008713D01*
X003212Y008713D01*
X003003Y008627D01*
X002894Y008518D01*
X002894Y009769D01*
X003003Y009660D01*
X003212Y009573D01*
X003439Y009573D01*
X003649Y009660D01*
X003809Y009820D01*
X003896Y010030D01*
X003896Y010257D01*
X003809Y010466D01*
X003649Y010627D01*
X003439Y010713D01*
X003212Y010713D01*
X003003Y010627D01*
X002894Y010518D01*
X002894Y011019D01*
X003003Y010910D01*
X003212Y010823D01*
X003439Y010823D01*
X003649Y010910D01*
X003809Y011070D01*
X003896Y011280D01*
X003896Y011507D01*
X003809Y011716D01*
X003649Y011877D01*
X003439Y011963D01*
X003212Y011963D01*
X003003Y011877D01*
X002894Y011768D01*
X002894Y021794D01*
X002902Y021782D01*
X002964Y021720D01*
X003035Y021669D01*
X003113Y021629D01*
X003196Y021602D01*
X003282Y021588D01*
X003326Y021588D01*
X003369Y021588D01*
X003456Y021602D01*
X003539Y021629D01*
X003617Y021669D01*
X003687Y021720D01*
X003749Y021782D01*
X003800Y021852D01*
X003840Y021930D01*
X003867Y022013D01*
X003881Y022100D01*
X003881Y022143D01*
X003326Y022143D01*
X003326Y022143D01*
X003326Y021588D01*
X003326Y022143D01*
X003326Y022143D01*
X003881Y022143D01*
X003881Y022187D01*
X003867Y022273D01*
X003840Y022356D01*
X003800Y022434D01*
X003749Y022505D01*
X003687Y022567D01*
X003617Y022618D01*
X003539Y022658D01*
X003456Y022685D01*
X003369Y022698D01*
X003326Y022698D01*
X003326Y022143D01*
X003326Y022143D01*
X003326Y022698D01*
X003282Y022698D01*
X003196Y022685D01*
X003113Y022658D01*
X003035Y022618D01*
X002964Y022567D01*
X002902Y022505D01*
X002894Y022493D01*
X002894Y023971D01*
X002984Y023933D01*
X003167Y023933D01*
X003336Y024003D01*
X003466Y024133D01*
X003935Y024133D01*
X003936Y024133D01*
X004065Y024003D01*
X004234Y023933D01*
X004417Y023933D01*
X004586Y024003D01*
X004716Y024133D01*
X004786Y024302D01*
X004786Y024485D01*
X004716Y024654D01*
X004586Y024783D01*
X004417Y024853D01*
X004234Y024853D01*
X004065Y024783D01*
X003936Y024654D01*
X003935Y024653D01*
X003466Y024653D01*
X003466Y024654D01*
X003336Y024783D01*
X003167Y024853D01*
X002984Y024853D01*
X002894Y024816D01*
X002894Y026971D01*
X002984Y026933D01*
X003167Y026933D01*
X003336Y027003D01*
X003466Y027133D01*
X003536Y027302D01*
X003536Y027485D01*
X003474Y027633D01*
X003927Y027633D01*
X003866Y027485D01*
X003866Y027302D01*
X003936Y027133D01*
X004065Y027003D01*
X004234Y026933D01*
X004417Y026933D01*
X004586Y027003D01*
X004716Y027133D01*
X004786Y027302D01*
X004786Y027485D01*
X004724Y027633D01*
X004927Y027633D01*
X004866Y027485D01*
X004866Y027302D01*
X004936Y027133D01*
X005065Y027003D01*
X005234Y026933D01*
X005417Y026933D01*
X005586Y027003D01*
X005716Y027133D01*
X005786Y027302D01*
X005786Y027485D01*
X005773Y027515D01*
X005901Y027515D01*
X006040Y027573D01*
X006146Y027679D01*
X006204Y027818D01*
X006204Y027969D01*
X006146Y028107D01*
X006040Y028214D01*
X005901Y028271D01*
X005750Y028271D01*
X005611Y028214D01*
X005551Y028153D01*
X003274Y028153D01*
X003178Y028114D01*
X003105Y028041D01*
X002894Y027829D01*
X002894Y029471D01*
X002984Y029433D01*
X003167Y029433D01*
X003336Y029503D01*
X003466Y029633D01*
X003536Y029802D01*
X003536Y029985D01*
X003466Y030154D01*
X003336Y030283D01*
X003167Y030353D01*
X002984Y030353D01*
X002894Y030316D01*
X002894Y031458D01*
X002928Y031423D01*
X003428Y030923D01*
X003524Y030883D01*
X003968Y030883D01*
X004066Y030786D01*
X004066Y030284D01*
X004065Y030283D01*
X003936Y030154D01*
X003866Y029985D01*
X003866Y029802D01*
X003936Y029633D01*
X004065Y029503D01*
X004234Y029433D01*
X004417Y029433D01*
X004586Y029503D01*
X004716Y029633D01*
X004786Y029802D01*
X004786Y029985D01*
X004716Y030154D01*
X004586Y030283D01*
X004586Y030284D01*
X004586Y030945D01*
X004546Y031041D01*
X004296Y031291D01*
X004223Y031364D01*
X004127Y031403D01*
X003683Y031403D01*
X003336Y031751D01*
X003336Y032503D01*
X003336Y032503D01*
X003466Y032633D01*
X003536Y032802D01*
X003536Y032985D01*
X003466Y033154D01*
X003336Y033283D01*
X003167Y033353D01*
X002984Y033353D01*
X002894Y033316D01*
X002894Y041813D01*
X004888Y041813D01*
X004815Y041783D01*
X004686Y041654D01*
X004616Y041485D01*
X004616Y041302D01*
X004686Y041133D01*
X004815Y041003D01*
X004984Y040933D01*
X005167Y040933D01*
X005336Y041003D01*
X005466Y041133D01*
X005536Y041302D01*
X005536Y041485D01*
X005466Y041654D01*
X005336Y041783D01*
X005264Y041813D01*
X006888Y041813D01*
X006815Y041783D01*
X006686Y041654D01*
X006616Y041485D01*
X006616Y041302D01*
X006686Y041133D01*
X006815Y041003D01*
X006984Y040933D01*
X007167Y040933D01*
X007336Y041003D01*
X007466Y041133D01*
X007536Y041302D01*
X007536Y041485D01*
X007466Y041654D01*
X007336Y041783D01*
X007264Y041813D01*
X010628Y041813D01*
X010555Y041783D01*
X010426Y041654D01*
X010356Y041485D01*
X010356Y041302D01*
X010426Y041133D01*
X010555Y041003D01*
X010724Y040933D01*
X011427Y040933D01*
X011596Y041003D01*
X011726Y041133D01*
X012968Y041133D01*
X013355Y040746D01*
X013428Y040673D01*
X013440Y040668D01*
X013426Y040654D01*
X013356Y040485D01*
X013356Y040302D01*
X013426Y040133D01*
X013555Y040003D01*
X013724Y039933D01*
X014427Y039933D01*
X014596Y040003D01*
X014726Y040133D01*
X014796Y040302D01*
X014796Y040485D01*
X014734Y040633D01*
X014968Y040633D01*
X015355Y040246D01*
X015428Y040173D01*
X015524Y040133D01*
X018551Y040133D01*
X018611Y040073D01*
X018750Y040015D01*
X018901Y040015D01*
X019040Y040073D01*
X019146Y040179D01*
X019204Y040318D01*
X019204Y040469D01*
X019146Y040607D01*
X019040Y040714D01*
X018901Y040771D01*
X019070Y040683D02*
X021329Y040683D01*
X021263Y040525D02*
X019180Y040525D01*
X019204Y040366D02*
X021256Y040366D01*
X021273Y040208D02*
X019158Y040208D01*
X018983Y040049D02*
X021114Y040049D01*
X021468Y040842D02*
X019547Y040842D01*
X019646Y041000D02*
X021441Y041000D01*
X021328Y041159D02*
X019646Y041159D01*
X019646Y041317D02*
X021281Y041317D01*
X021282Y041476D02*
X019646Y041476D01*
X019646Y041634D02*
X021331Y041634D01*
X021447Y041793D02*
X019646Y041793D01*
X018668Y040049D02*
X014642Y040049D01*
X014757Y040208D02*
X015393Y040208D01*
X015235Y040366D02*
X014796Y040366D01*
X014779Y040525D02*
X015076Y040525D01*
X015336Y041000D02*
X015662Y041000D01*
X015556Y041159D02*
X014736Y041159D01*
X014796Y041317D02*
X015506Y041317D01*
X015506Y041476D02*
X014796Y041476D01*
X014734Y041634D02*
X015559Y041634D01*
X015669Y041793D02*
X014573Y041793D01*
X015495Y040842D02*
X015917Y040842D01*
X015653Y040683D02*
X018581Y040683D01*
X018604Y040842D02*
X018234Y040842D01*
X018489Y041000D02*
X018506Y041000D01*
X017917Y040842D02*
X017234Y040842D01*
X017489Y041000D02*
X017662Y041000D01*
X016917Y040842D02*
X016234Y040842D01*
X016489Y041000D02*
X016662Y041000D01*
X017846Y038781D02*
X014598Y038781D01*
X014596Y038783D02*
X014427Y038853D01*
X013724Y038853D01*
X013555Y038783D01*
X013426Y038654D01*
X013356Y038485D01*
X013356Y038302D01*
X013426Y038133D01*
X013555Y038003D01*
X013724Y037933D01*
X014427Y037933D01*
X014596Y038003D01*
X014726Y038133D01*
X014796Y038302D01*
X014796Y038485D01*
X014726Y038654D01*
X014596Y038783D01*
X014738Y038623D02*
X017688Y038623D01*
X017529Y038464D02*
X014796Y038464D01*
X014796Y038306D02*
X015410Y038306D01*
X015375Y038285D02*
X015462Y038336D01*
X015556Y038375D01*
X015653Y038401D01*
X015724Y038410D01*
X015724Y037723D01*
X015724Y037563D01*
X015884Y037563D01*
X015884Y036877D01*
X015955Y036886D01*
X016052Y036912D01*
X016146Y036951D01*
X016233Y037001D01*
X016313Y037063D01*
X016385Y037134D01*
X016446Y037214D01*
X016497Y037302D01*
X016535Y037395D01*
X016561Y037493D01*
X016571Y037563D01*
X015884Y037563D01*
X015884Y037723D01*
X016571Y037723D01*
X016561Y037794D01*
X016535Y037892D01*
X016497Y037985D01*
X016446Y038072D01*
X016385Y038152D01*
X016313Y038224D01*
X016233Y038285D01*
X016146Y038336D01*
X016052Y038375D01*
X015955Y038401D01*
X015884Y038410D01*
X015884Y037723D01*
X015724Y037723D01*
X015037Y037723D01*
X015047Y037794D01*
X015073Y037892D01*
X015111Y037985D01*
X015162Y038072D01*
X015223Y038152D01*
X015295Y038224D01*
X015375Y038285D01*
X015220Y038147D02*
X014732Y038147D01*
X014561Y037989D02*
X015114Y037989D01*
X015056Y037830D02*
X014483Y037830D01*
X014427Y037853D02*
X014596Y037783D01*
X014726Y037654D01*
X014796Y037485D01*
X014796Y037302D01*
X014726Y037133D01*
X014596Y037003D01*
X014427Y036933D01*
X013724Y036933D01*
X013555Y037003D01*
X013426Y037133D01*
X013356Y037302D01*
X013356Y037485D01*
X013426Y037654D01*
X013555Y037783D01*
X013724Y037853D01*
X014427Y037853D01*
X014708Y037672D02*
X015724Y037672D01*
X015724Y037563D02*
X015037Y037563D01*
X015047Y037493D01*
X015073Y037395D01*
X015111Y037302D01*
X015162Y037214D01*
X015223Y037134D01*
X015295Y037063D01*
X015375Y037001D01*
X015462Y036951D01*
X015556Y036912D01*
X015653Y036886D01*
X015724Y036877D01*
X015724Y037563D01*
X015724Y037513D02*
X015884Y037513D01*
X015884Y037355D02*
X015724Y037355D01*
X015724Y037196D02*
X015884Y037196D01*
X015884Y037038D02*
X015724Y037038D01*
X015724Y036879D02*
X015884Y036879D01*
X015905Y036879D02*
X017066Y036879D01*
X017066Y036721D02*
X014659Y036721D01*
X014596Y036783D02*
X014427Y036853D01*
X013724Y036853D01*
X013555Y036783D01*
X013426Y036654D01*
X013356Y036485D01*
X013356Y036302D01*
X013426Y036133D01*
X013555Y036003D01*
X013724Y035933D01*
X014427Y035933D01*
X014596Y036003D01*
X014726Y036133D01*
X014796Y036302D01*
X014796Y036485D01*
X014726Y036654D01*
X014596Y036783D01*
X014631Y037038D02*
X015327Y037038D01*
X015176Y037196D02*
X014752Y037196D01*
X014796Y037355D02*
X015089Y037355D01*
X015044Y037513D02*
X014784Y037513D01*
X014764Y036562D02*
X017066Y036562D01*
X016801Y036404D02*
X014796Y036404D01*
X014772Y036245D02*
X016709Y036245D01*
X016698Y036087D02*
X014680Y036087D01*
X014505Y035801D02*
X014439Y035822D01*
X014370Y035833D01*
X014076Y035833D01*
X014076Y035393D01*
X014076Y035393D01*
X014076Y035393D01*
X013376Y035393D01*
X013376Y035428D01*
X013386Y035496D01*
X013408Y035562D01*
X013439Y035624D01*
X013480Y035680D01*
X013529Y035729D01*
X013585Y035770D01*
X013647Y035801D01*
X013713Y035822D01*
X013781Y035833D01*
X014076Y035833D01*
X014076Y035393D01*
X014076Y035453D02*
X014076Y035453D01*
X014076Y035611D02*
X014076Y035611D01*
X014076Y035770D02*
X014076Y035770D01*
X014505Y035801D02*
X014566Y035770D01*
X014692Y035136D02*
X014719Y035136D01*
X015076Y035136D02*
X015076Y035136D01*
X015076Y035294D02*
X015076Y035294D01*
X015076Y035453D02*
X015076Y035453D01*
X015076Y035611D02*
X015076Y035611D01*
X015703Y036879D02*
X009448Y036879D01*
X009427Y036879D02*
X009267Y036879D01*
X009267Y036877D02*
X009267Y037563D01*
X008581Y037563D01*
X008590Y037493D01*
X008616Y037395D01*
X008655Y037302D01*
X008705Y037214D01*
X008767Y037134D01*
X008838Y037063D01*
X008918Y037001D01*
X009006Y036951D01*
X009099Y036912D01*
X009197Y036886D01*
X009267Y036877D01*
X009247Y036879D02*
X005905Y036879D01*
X005884Y036879D02*
X005724Y036879D01*
X005724Y036877D02*
X005724Y037563D01*
X005884Y037563D01*
X005884Y036877D01*
X005955Y036886D01*
X006052Y036912D01*
X006146Y036951D01*
X006233Y037001D01*
X006313Y037063D01*
X006385Y037134D01*
X006446Y037214D01*
X006497Y037302D01*
X006535Y037395D01*
X006561Y037493D01*
X006571Y037563D01*
X005884Y037563D01*
X005884Y037723D01*
X006571Y037723D01*
X006561Y037794D01*
X006535Y037892D01*
X006497Y037985D01*
X006446Y038072D01*
X006385Y038152D01*
X006313Y038224D01*
X006233Y038285D01*
X006146Y038336D01*
X006052Y038375D01*
X005955Y038401D01*
X005884Y038410D01*
X005884Y037723D01*
X005724Y037723D01*
X005724Y037563D01*
X005037Y037563D01*
X005047Y037493D01*
X005073Y037395D01*
X005111Y037302D01*
X005162Y037214D01*
X005223Y037134D01*
X005295Y037063D01*
X005375Y037001D01*
X005462Y036951D01*
X005556Y036912D01*
X005653Y036886D01*
X005724Y036877D01*
X005703Y036879D02*
X004208Y036879D01*
X004184Y036820D02*
X004271Y037030D01*
X004271Y037221D01*
X006183Y039133D01*
X010425Y039133D01*
X010426Y039133D01*
X010555Y039003D01*
X010724Y038933D01*
X011427Y038933D01*
X011596Y039003D01*
X011726Y039133D01*
X011796Y039302D01*
X011796Y039485D01*
X011726Y039654D01*
X011596Y039783D01*
X011427Y039853D01*
X010724Y039853D01*
X010555Y039783D01*
X010426Y039654D01*
X010425Y039653D01*
X006024Y039653D01*
X005928Y039614D01*
X004218Y037904D01*
X004271Y038030D01*
X004271Y038221D01*
X005933Y039883D01*
X010877Y039883D01*
X010973Y039923D01*
X010983Y039933D01*
X011427Y039933D01*
X011596Y040003D01*
X011726Y040133D01*
X011796Y040302D01*
X011796Y040485D01*
X011726Y040654D01*
X011596Y040783D01*
X011427Y040853D01*
X010724Y040853D01*
X010555Y040783D01*
X010426Y040654D01*
X010356Y040485D01*
X010356Y040403D01*
X009474Y040403D01*
X009536Y040552D01*
X009536Y040735D01*
X009466Y040904D01*
X009336Y041033D01*
X009167Y041103D01*
X008984Y041103D01*
X008815Y041033D01*
X008686Y040904D01*
X008616Y040735D01*
X008616Y040552D01*
X008677Y040403D01*
X006474Y040403D01*
X006536Y040552D01*
X006536Y040735D01*
X006466Y040904D01*
X006336Y041033D01*
X006167Y041103D01*
X005984Y041103D01*
X005815Y041033D01*
X005686Y040904D01*
X005616Y040735D01*
X005616Y040552D01*
X005686Y040383D01*
X005697Y040371D01*
X005678Y040364D01*
X005605Y040291D01*
X004218Y038904D01*
X004271Y039030D01*
X004271Y039257D01*
X004572Y039257D01*
X004730Y039415D02*
X004205Y039415D01*
X004184Y039466D02*
X004024Y039627D01*
X003954Y039655D01*
X003989Y039673D01*
X004059Y039724D01*
X004120Y039785D01*
X004171Y039855D01*
X004210Y039932D01*
X004237Y040015D01*
X004251Y040100D01*
X004251Y040123D01*
X003721Y040123D01*
X003721Y040163D01*
X004251Y040163D01*
X004251Y040187D01*
X004237Y040272D01*
X004210Y040354D01*
X004171Y040432D01*
X004120Y040502D01*
X004059Y040563D01*
X003989Y040614D01*
X003931Y040643D01*
X003989Y040673D01*
X004059Y040724D01*
X004120Y040785D01*
X004171Y040855D01*
X004210Y040932D01*
X004237Y041015D01*
X004251Y041100D01*
X004251Y041123D01*
X003721Y041123D01*
X003721Y041163D01*
X004251Y041163D01*
X004251Y041187D01*
X004237Y041272D01*
X004210Y041354D01*
X004171Y041432D01*
X004120Y041502D01*
X004059Y041563D01*
X003989Y041614D01*
X003912Y041653D01*
X003829Y041680D01*
X003744Y041693D01*
X003721Y041693D01*
X003721Y041163D01*
X003681Y041163D01*
X003681Y041123D01*
X003721Y041123D01*
X003721Y040163D01*
X003681Y040163D01*
X003681Y040123D01*
X003151Y040123D01*
X003151Y040100D01*
X003164Y040015D01*
X003191Y039932D01*
X003230Y039855D01*
X003281Y039785D01*
X003342Y039724D01*
X003412Y039673D01*
X003447Y039655D01*
X003378Y039627D01*
X003217Y039466D01*
X003131Y039257D01*
X002894Y039257D01*
X002894Y039415D02*
X003196Y039415D01*
X003131Y039257D02*
X003131Y039030D01*
X003217Y038820D01*
X003378Y038660D01*
X003418Y038643D01*
X003378Y038627D01*
X003217Y038466D01*
X003131Y038257D01*
X003131Y038030D01*
X003217Y037820D01*
X003378Y037660D01*
X003418Y037643D01*
X003378Y037627D01*
X003217Y037466D01*
X003131Y037257D01*
X003131Y037030D01*
X003217Y036820D01*
X003378Y036660D01*
X003418Y036643D01*
X003378Y036627D01*
X003217Y036466D01*
X003131Y036257D01*
X003131Y036030D01*
X003217Y035820D01*
X003378Y035660D01*
X003587Y035573D01*
X003814Y035573D01*
X004024Y035660D01*
X004184Y035820D01*
X004271Y036030D01*
X004271Y036257D01*
X004184Y036466D01*
X004024Y036627D01*
X003983Y036643D01*
X004024Y036660D01*
X004184Y036820D01*
X004084Y036721D02*
X010493Y036721D01*
X010555Y036783D02*
X010426Y036654D01*
X010356Y036485D01*
X010356Y036302D01*
X010426Y036133D01*
X010555Y036003D01*
X010724Y035933D01*
X011427Y035933D01*
X011596Y036003D01*
X011726Y036133D01*
X011796Y036302D01*
X011796Y036485D01*
X011726Y036654D01*
X011596Y036783D01*
X011427Y036853D01*
X010724Y036853D01*
X010555Y036783D01*
X010555Y037003D02*
X010724Y036933D01*
X011427Y036933D01*
X011596Y037003D01*
X011726Y037133D01*
X011796Y037302D01*
X011796Y037485D01*
X011726Y037654D01*
X011596Y037783D01*
X011427Y037853D01*
X010724Y037853D01*
X010555Y037783D01*
X010426Y037654D01*
X010356Y037485D01*
X010356Y037302D01*
X010426Y037133D01*
X010555Y037003D01*
X010521Y037038D02*
X009824Y037038D01*
X009856Y037063D02*
X009928Y037134D01*
X009989Y037214D01*
X010040Y037302D01*
X010079Y037395D01*
X010105Y037493D01*
X010114Y037563D01*
X009427Y037563D01*
X009427Y036877D01*
X009498Y036886D01*
X009596Y036912D01*
X009689Y036951D01*
X009776Y037001D01*
X009856Y037063D01*
X009976Y037196D02*
X010399Y037196D01*
X010356Y037355D02*
X010062Y037355D01*
X010107Y037513D02*
X010367Y037513D01*
X010444Y037672D02*
X009427Y037672D01*
X009427Y037723D02*
X010114Y037723D01*
X010105Y037794D01*
X010079Y037892D01*
X010040Y037985D01*
X009989Y038072D01*
X009928Y038152D01*
X009856Y038224D01*
X009776Y038285D01*
X009689Y038336D01*
X009596Y038375D01*
X009498Y038401D01*
X009427Y038410D01*
X009427Y037723D01*
X009267Y037723D01*
X009267Y037563D01*
X009427Y037563D01*
X009427Y037723D01*
X009427Y037830D02*
X009267Y037830D01*
X009267Y037723D02*
X009267Y038410D01*
X009197Y038401D01*
X009099Y038375D01*
X009006Y038336D01*
X008918Y038285D01*
X008838Y038224D01*
X008767Y038152D01*
X008705Y038072D01*
X008655Y037985D01*
X008616Y037892D01*
X008590Y037794D01*
X008581Y037723D01*
X009267Y037723D01*
X009267Y037672D02*
X005884Y037672D01*
X005884Y037830D02*
X005724Y037830D01*
X005724Y037723D02*
X005724Y038410D01*
X005653Y038401D01*
X005556Y038375D01*
X005462Y038336D01*
X005375Y038285D01*
X005295Y038224D01*
X005223Y038152D01*
X005162Y038072D01*
X005111Y037985D01*
X005073Y037892D01*
X005047Y037794D01*
X005037Y037723D01*
X005724Y037723D01*
X005724Y037672D02*
X004722Y037672D01*
X004880Y037830D02*
X005056Y037830D01*
X005039Y037989D02*
X005114Y037989D01*
X005197Y038147D02*
X005220Y038147D01*
X005356Y038306D02*
X005410Y038306D01*
X005514Y038464D02*
X010356Y038464D01*
X010356Y038485D02*
X010356Y038302D01*
X010426Y038133D01*
X010555Y038003D01*
X010724Y037933D01*
X011427Y037933D01*
X011596Y038003D01*
X011726Y038133D01*
X011796Y038302D01*
X011796Y038485D01*
X011726Y038654D01*
X011596Y038783D01*
X011427Y038853D01*
X010724Y038853D01*
X010555Y038783D01*
X010426Y038654D01*
X010356Y038485D01*
X010413Y038623D02*
X005673Y038623D01*
X005831Y038781D02*
X010553Y038781D01*
X010708Y038940D02*
X005990Y038940D01*
X006148Y039098D02*
X010460Y039098D01*
X010504Y039732D02*
X005782Y039732D01*
X005889Y039574D02*
X005624Y039574D01*
X005730Y039415D02*
X005465Y039415D01*
X005572Y039257D02*
X005307Y039257D01*
X005413Y039098D02*
X005148Y039098D01*
X005255Y038940D02*
X004990Y038940D01*
X005096Y038781D02*
X004831Y038781D01*
X004938Y038623D02*
X004673Y038623D01*
X004779Y038464D02*
X004514Y038464D01*
X004621Y038306D02*
X004356Y038306D01*
X004271Y038147D02*
X004462Y038147D01*
X004304Y037989D02*
X004254Y037989D01*
X004563Y037513D02*
X005044Y037513D01*
X005089Y037355D02*
X004405Y037355D01*
X004271Y037196D02*
X005176Y037196D01*
X005327Y037038D02*
X004271Y037038D01*
X004088Y036562D02*
X010388Y036562D01*
X010356Y036404D02*
X004210Y036404D01*
X004271Y036245D02*
X010379Y036245D01*
X010472Y036087D02*
X004271Y036087D01*
X004229Y035928D02*
X016756Y035928D01*
X017066Y037038D02*
X016281Y037038D01*
X016432Y037196D02*
X017066Y037196D01*
X017066Y037355D02*
X016519Y037355D01*
X016564Y037513D02*
X017066Y037513D01*
X017066Y037672D02*
X015884Y037672D01*
X015884Y037830D02*
X015724Y037830D01*
X015724Y037989D02*
X015884Y037989D01*
X015884Y038147D02*
X015724Y038147D01*
X015724Y038306D02*
X015884Y038306D01*
X016198Y038306D02*
X017371Y038306D01*
X017212Y038147D02*
X016388Y038147D01*
X016494Y037989D02*
X017084Y037989D01*
X017066Y037830D02*
X016552Y037830D01*
X017836Y037513D02*
X018587Y037513D01*
X018633Y037355D02*
X017836Y037355D01*
X017836Y037196D02*
X018719Y037196D01*
X018871Y037038D02*
X017836Y037038D01*
X018005Y038940D02*
X014443Y038940D01*
X014427Y038933D02*
X014596Y039003D01*
X014726Y039133D01*
X014796Y039302D01*
X014796Y039485D01*
X014726Y039654D01*
X014596Y039783D01*
X014427Y039853D01*
X013724Y039853D01*
X013555Y039783D01*
X013426Y039654D01*
X013356Y039485D01*
X013356Y039302D01*
X013426Y039133D01*
X013555Y039003D01*
X013724Y038933D01*
X014427Y038933D01*
X014691Y039098D02*
X018163Y039098D01*
X018322Y039257D02*
X014777Y039257D01*
X014796Y039415D02*
X018480Y039415D01*
X018639Y039574D02*
X014759Y039574D01*
X014647Y039732D02*
X018797Y039732D01*
X018994Y039891D02*
X010896Y039891D01*
X010372Y040525D02*
X009524Y040525D01*
X009536Y040683D02*
X010455Y040683D01*
X010697Y040842D02*
X009491Y040842D01*
X009369Y041000D02*
X010562Y041000D01*
X010415Y041159D02*
X007476Y041159D01*
X007536Y041317D02*
X010356Y041317D01*
X010356Y041476D02*
X007536Y041476D01*
X007474Y041634D02*
X010418Y041634D01*
X010578Y041793D02*
X007313Y041793D01*
X006838Y041793D02*
X005313Y041793D01*
X005474Y041634D02*
X006678Y041634D01*
X006616Y041476D02*
X005536Y041476D01*
X005536Y041317D02*
X006616Y041317D01*
X006675Y041159D02*
X005476Y041159D01*
X005329Y041000D02*
X005782Y041000D01*
X005660Y040842D02*
X004161Y040842D01*
X004233Y041000D02*
X004822Y041000D01*
X004675Y041159D02*
X003721Y041159D01*
X003681Y041159D02*
X002894Y041159D01*
X002894Y041317D02*
X003179Y041317D01*
X003191Y041354D02*
X003164Y041272D01*
X003151Y041187D01*
X003151Y041163D01*
X003681Y041163D01*
X003681Y041693D01*
X003657Y041693D01*
X003572Y041680D01*
X003490Y041653D01*
X003412Y041614D01*
X003342Y041563D01*
X003281Y041502D01*
X003230Y041432D01*
X003191Y041354D01*
X003262Y041476D02*
X002894Y041476D01*
X002894Y041634D02*
X003453Y041634D01*
X003681Y041634D02*
X003721Y041634D01*
X003721Y041476D02*
X003681Y041476D01*
X003681Y041317D02*
X003721Y041317D01*
X003681Y041123D02*
X003151Y041123D01*
X003151Y041100D01*
X003164Y041015D01*
X003191Y040932D01*
X003230Y040855D01*
X003281Y040785D01*
X003342Y040724D01*
X003412Y040673D01*
X003470Y040643D01*
X003412Y040614D01*
X003342Y040563D01*
X003281Y040502D01*
X003230Y040432D01*
X003191Y040354D01*
X003164Y040272D01*
X003151Y040187D01*
X003151Y040163D01*
X003681Y040163D01*
X003681Y040693D01*
X003681Y041123D01*
X003681Y041000D02*
X003721Y041000D01*
X003721Y040842D02*
X003681Y040842D01*
X003681Y040683D02*
X003721Y040683D01*
X003721Y040525D02*
X003681Y040525D01*
X003681Y040366D02*
X003721Y040366D01*
X003721Y040208D02*
X003681Y040208D01*
X004097Y040525D02*
X005627Y040525D01*
X005616Y040683D02*
X004003Y040683D01*
X004204Y040366D02*
X005685Y040366D01*
X005523Y040208D02*
X004247Y040208D01*
X004243Y040049D02*
X005364Y040049D01*
X005206Y039891D02*
X004189Y039891D01*
X004068Y039732D02*
X005047Y039732D01*
X004889Y039574D02*
X004076Y039574D01*
X004184Y039466D02*
X004271Y039257D01*
X004271Y039098D02*
X004413Y039098D01*
X004255Y038940D02*
X004233Y038940D01*
X003374Y038623D02*
X002894Y038623D01*
X002894Y038781D02*
X003257Y038781D01*
X003168Y038940D02*
X002894Y038940D01*
X002894Y039098D02*
X003131Y039098D01*
X003325Y039574D02*
X002894Y039574D01*
X002894Y039732D02*
X003334Y039732D01*
X003212Y039891D02*
X002894Y039891D01*
X002894Y040049D02*
X003159Y040049D01*
X003154Y040208D02*
X002894Y040208D01*
X002894Y040366D02*
X003197Y040366D01*
X003304Y040525D02*
X002894Y040525D01*
X002894Y040683D02*
X003398Y040683D01*
X003240Y040842D02*
X002894Y040842D01*
X002894Y041000D02*
X003169Y041000D01*
X002894Y041793D02*
X004838Y041793D01*
X004678Y041634D02*
X003948Y041634D01*
X004139Y041476D02*
X004616Y041476D01*
X004616Y041317D02*
X004222Y041317D01*
X003217Y038464D02*
X002894Y038464D01*
X002894Y038306D02*
X003151Y038306D01*
X003131Y038147D02*
X002894Y038147D01*
X002894Y037989D02*
X003148Y037989D01*
X003213Y037830D02*
X002894Y037830D01*
X002894Y037672D02*
X003366Y037672D01*
X003265Y037513D02*
X002894Y037513D01*
X002894Y037355D02*
X003171Y037355D01*
X003131Y037196D02*
X002894Y037196D01*
X002894Y037038D02*
X003131Y037038D01*
X003193Y036879D02*
X002894Y036879D01*
X002894Y036721D02*
X003317Y036721D01*
X003314Y036562D02*
X002894Y036562D01*
X002894Y036404D02*
X003192Y036404D01*
X003131Y036245D02*
X002894Y036245D01*
X002894Y036087D02*
X003131Y036087D01*
X003173Y035928D02*
X002894Y035928D01*
X002894Y035770D02*
X003268Y035770D01*
X003495Y035611D02*
X002894Y035611D01*
X002894Y035453D02*
X010356Y035453D01*
X010359Y035294D02*
X002894Y035294D01*
X002894Y035136D02*
X006252Y035136D01*
X006227Y035118D02*
X006298Y035170D01*
X006376Y035210D01*
X006460Y035237D01*
X006547Y035251D01*
X006573Y035251D01*
X006573Y034709D01*
X006610Y034709D01*
X006610Y035251D01*
X006635Y035251D01*
X006723Y035237D01*
X006806Y035210D01*
X006885Y035170D01*
X006956Y035118D01*
X007019Y035055D01*
X007070Y034985D01*
X007084Y035019D01*
X007247Y035182D01*
X007460Y035271D01*
X007691Y035271D01*
X007904Y035182D01*
X008067Y035019D01*
X008068Y035018D01*
X008068Y035019D01*
X008231Y035182D01*
X008445Y035271D01*
X008675Y035271D01*
X008888Y035182D01*
X009052Y035019D01*
X009140Y034806D01*
X009140Y034575D01*
X009052Y034362D01*
X008888Y034199D01*
X008675Y034111D01*
X008445Y034111D01*
X008231Y034199D01*
X008068Y034362D01*
X008068Y034363D01*
X008067Y034362D01*
X007904Y034199D01*
X007691Y034111D01*
X007460Y034111D01*
X007247Y034199D01*
X007084Y034362D01*
X007070Y034396D01*
X007019Y034326D01*
X006956Y034263D01*
X006885Y034212D01*
X006806Y034172D01*
X006723Y034144D01*
X006635Y034131D01*
X006610Y034131D01*
X006610Y034672D01*
X006573Y034672D01*
X006573Y034131D01*
X006547Y034131D01*
X006460Y034144D01*
X006376Y034172D01*
X006298Y034212D01*
X006227Y034263D01*
X006164Y034326D01*
X006112Y034397D01*
X006072Y034476D01*
X006045Y034559D01*
X006031Y034646D01*
X006031Y034672D01*
X006573Y034672D01*
X006573Y034709D01*
X006031Y034709D01*
X006031Y034735D01*
X006045Y034822D01*
X006072Y034906D01*
X006112Y034984D01*
X006164Y035055D01*
X006227Y035118D01*
X006109Y034977D02*
X002894Y034977D01*
X002894Y034819D02*
X006045Y034819D01*
X006031Y034660D02*
X002894Y034660D01*
X002894Y034502D02*
X006064Y034502D01*
X006151Y034343D02*
X002894Y034343D01*
X002894Y034185D02*
X006350Y034185D01*
X006573Y034185D02*
X006610Y034185D01*
X006610Y034343D02*
X006573Y034343D01*
X006573Y034502D02*
X006610Y034502D01*
X006610Y034660D02*
X006573Y034660D01*
X006573Y034819D02*
X006610Y034819D01*
X006610Y034977D02*
X006573Y034977D01*
X006573Y035136D02*
X006610Y035136D01*
X006931Y035136D02*
X007201Y035136D01*
X007103Y034343D02*
X007031Y034343D01*
X006832Y034185D02*
X007281Y034185D01*
X007870Y034185D02*
X008265Y034185D01*
X008087Y034343D02*
X008049Y034343D01*
X007951Y035136D02*
X008185Y035136D01*
X008935Y035136D02*
X010424Y035136D01*
X010618Y034977D02*
X009069Y034977D01*
X009135Y034819D02*
X009695Y034819D01*
X009569Y034660D02*
X009140Y034660D01*
X009110Y034502D02*
X009506Y034502D01*
X009506Y034343D02*
X009033Y034343D01*
X008855Y034185D02*
X009545Y034185D01*
X009637Y034026D02*
X002894Y034026D01*
X002894Y033868D02*
X009796Y033868D01*
X009625Y033709D02*
X002894Y033709D01*
X002894Y033551D02*
X009549Y033551D01*
X009526Y033393D02*
X010076Y033393D01*
X009526Y033393D01*
X009526Y033392D02*
X002894Y033392D01*
X003386Y033234D02*
X004016Y033234D01*
X003903Y033075D02*
X003498Y033075D01*
X003536Y032917D02*
X003866Y032917D01*
X003884Y032758D02*
X003518Y032758D01*
X003433Y032600D02*
X003969Y032600D01*
X004215Y032441D02*
X003336Y032441D01*
X003336Y032283D02*
X009506Y032283D01*
X009506Y032441D02*
X004437Y032441D01*
X004683Y032600D02*
X009544Y032600D01*
X009549Y033234D02*
X004636Y033234D01*
X004716Y032633D02*
X004716Y032633D01*
X004796Y031649D02*
X003438Y031649D01*
X003336Y031807D02*
X010094Y031807D01*
X010076Y031393D02*
X005076Y031393D01*
X004707Y031490D02*
X003596Y031490D01*
X003336Y031015D02*
X002894Y031015D01*
X002894Y031173D02*
X003178Y031173D01*
X003019Y031332D02*
X002894Y031332D01*
X002894Y030856D02*
X003995Y030856D01*
X004066Y030698D02*
X002894Y030698D01*
X002894Y030539D02*
X004066Y030539D01*
X004066Y030381D02*
X002894Y030381D01*
X003397Y030222D02*
X004004Y030222D01*
X003898Y030064D02*
X003503Y030064D01*
X003536Y029905D02*
X003866Y029905D01*
X003888Y029747D02*
X003513Y029747D01*
X003421Y029588D02*
X003980Y029588D01*
X004111Y029214D02*
X004005Y029107D01*
X003948Y028969D01*
X003948Y028818D01*
X004005Y028679D01*
X004111Y028573D01*
X004250Y028515D01*
X004401Y028515D01*
X004540Y028573D01*
X004600Y028633D01*
X005801Y028633D01*
X005861Y028573D01*
X006000Y028515D01*
X006151Y028515D01*
X006290Y028573D01*
X006396Y028679D01*
X006454Y028818D01*
X006454Y028969D01*
X006396Y029107D01*
X006290Y029214D01*
X006151Y029271D01*
X010066Y029271D01*
X010066Y029113D02*
X006391Y029113D01*
X006454Y028954D02*
X010066Y028954D01*
X010066Y028796D02*
X006445Y028796D01*
X006354Y028637D02*
X010066Y028637D01*
X010066Y028479D02*
X002894Y028479D01*
X002894Y028637D02*
X004047Y028637D01*
X003957Y028796D02*
X002894Y028796D01*
X002894Y028954D02*
X003948Y028954D01*
X004010Y029113D02*
X002894Y029113D01*
X002894Y029271D02*
X004250Y029271D01*
X004111Y029214D01*
X004250Y029271D02*
X004401Y029271D01*
X006000Y029271D01*
X005861Y029214D01*
X005801Y029153D01*
X004600Y029153D01*
X004540Y029214D01*
X004401Y029271D01*
X004671Y029588D02*
X005269Y029588D01*
X005295Y029563D02*
X005223Y029634D01*
X005162Y029714D01*
X005111Y029802D01*
X005073Y029895D01*
X005047Y029993D01*
X005037Y030063D01*
X005724Y030063D01*
X005884Y030063D01*
X005884Y029377D01*
X005955Y029386D01*
X006052Y029412D01*
X006146Y029451D01*
X006233Y029501D01*
X006313Y029563D01*
X006385Y029634D01*
X006446Y029714D01*
X006497Y029802D01*
X006535Y029895D01*
X006561Y029993D01*
X006571Y030063D01*
X005884Y030063D01*
X005884Y030223D01*
X006571Y030223D01*
X006561Y030294D01*
X006535Y030392D01*
X006497Y030485D01*
X006446Y030572D01*
X006385Y030652D01*
X006313Y030724D01*
X006233Y030785D01*
X006146Y030836D01*
X006052Y030875D01*
X005955Y030901D01*
X005884Y030910D01*
X005884Y030223D01*
X005724Y030223D01*
X005724Y030063D01*
X005724Y029377D01*
X005653Y029386D01*
X005556Y029412D01*
X005462Y029451D01*
X005375Y029501D01*
X005295Y029563D01*
X005143Y029747D02*
X004763Y029747D01*
X004786Y029905D02*
X005070Y029905D01*
X005037Y030223D02*
X005724Y030223D01*
X005724Y030910D01*
X005653Y030901D01*
X005556Y030875D01*
X005462Y030836D01*
X005375Y030785D01*
X005295Y030724D01*
X005223Y030652D01*
X005162Y030572D01*
X005111Y030485D01*
X005073Y030392D01*
X005047Y030294D01*
X005037Y030223D01*
X005070Y030381D02*
X004586Y030381D01*
X004586Y030539D02*
X005143Y030539D01*
X005269Y030698D02*
X004586Y030698D01*
X004586Y030856D02*
X005512Y030856D01*
X005724Y030856D02*
X005884Y030856D01*
X005884Y030698D02*
X005724Y030698D01*
X005724Y030539D02*
X005884Y030539D01*
X005884Y030381D02*
X005724Y030381D01*
X005724Y030222D02*
X004647Y030222D01*
X004753Y030064D02*
X005724Y030064D01*
X005724Y029905D02*
X005884Y029905D01*
X005884Y029747D02*
X005724Y029747D01*
X005724Y029588D02*
X005884Y029588D01*
X005884Y029430D02*
X005724Y029430D01*
X005513Y029430D02*
X002894Y029430D01*
X002894Y028320D02*
X010066Y028320D01*
X010066Y028162D02*
X006092Y028162D01*
X006189Y028003D02*
X010066Y028003D01*
X010066Y027845D02*
X006204Y027845D01*
X006149Y027686D02*
X006331Y027686D01*
X006573Y027686D02*
X006610Y027686D01*
X006610Y027528D02*
X006573Y027528D01*
X006573Y027369D02*
X006610Y027369D01*
X006610Y027211D02*
X006573Y027211D01*
X006573Y027172D02*
X006031Y027172D01*
X006031Y027146D01*
X006045Y027059D01*
X006072Y026976D01*
X006112Y026897D01*
X006164Y026826D01*
X006227Y026763D01*
X006298Y026712D01*
X006376Y026672D01*
X006460Y026644D01*
X006547Y026631D01*
X006573Y026631D01*
X006573Y027172D01*
X006573Y027052D02*
X006610Y027052D01*
X006610Y026894D02*
X006573Y026894D01*
X006573Y026735D02*
X006610Y026735D01*
X006265Y026735D02*
X002894Y026735D01*
X002894Y026577D02*
X007742Y026577D01*
X007698Y026418D02*
X002894Y026418D01*
X002894Y026260D02*
X007722Y026260D01*
X007833Y026101D02*
X002894Y026101D01*
X002894Y025943D02*
X009816Y025943D01*
X009816Y026101D02*
X008318Y026101D01*
X008924Y025626D02*
X006727Y025626D01*
X006716Y025654D02*
X006586Y025783D01*
X006417Y025853D01*
X006234Y025853D01*
X006065Y025783D01*
X005936Y025654D01*
X005935Y025653D01*
X005204Y025653D01*
X005204Y025654D01*
X005087Y025771D01*
X004565Y025771D01*
X004448Y025654D01*
X004448Y025132D01*
X004565Y025015D01*
X005087Y025015D01*
X005204Y025132D01*
X005204Y025133D01*
X005935Y025133D01*
X005936Y025133D01*
X006065Y025003D01*
X006234Y024933D01*
X006417Y024933D01*
X006586Y025003D01*
X006716Y025133D01*
X006786Y025302D01*
X006786Y025485D01*
X006716Y025654D01*
X006584Y025784D02*
X009068Y025784D01*
X008866Y025467D02*
X006786Y025467D01*
X006786Y025309D02*
X008866Y025309D01*
X008928Y025150D02*
X006723Y025150D01*
X006558Y024992D02*
X009093Y024992D01*
X009186Y024833D02*
X006465Y024833D01*
X006417Y024853D02*
X006586Y024783D01*
X006716Y024654D01*
X006786Y024485D01*
X006786Y024302D01*
X006716Y024133D01*
X006586Y024003D01*
X006417Y023933D01*
X006234Y023933D01*
X006065Y024003D01*
X005936Y024133D01*
X005935Y024133D01*
X005716Y024133D01*
X005716Y024133D01*
X005586Y024003D01*
X005417Y023933D01*
X005234Y023933D01*
X005065Y024003D01*
X004936Y024133D01*
X004866Y024302D01*
X004866Y024485D01*
X004936Y024654D01*
X005065Y024783D01*
X005234Y024853D01*
X005417Y024853D01*
X005586Y024783D01*
X005716Y024654D01*
X005716Y024653D01*
X005935Y024653D01*
X005936Y024654D01*
X006065Y024783D01*
X006234Y024853D01*
X006417Y024853D01*
X006186Y024833D02*
X005465Y024833D01*
X005695Y024675D02*
X005957Y024675D01*
X006093Y024992D02*
X002894Y024992D01*
X002894Y025150D02*
X004448Y025150D01*
X004448Y025309D02*
X002894Y025309D01*
X002894Y025467D02*
X004448Y025467D01*
X004448Y025626D02*
X002894Y025626D01*
X002894Y025784D02*
X006068Y025784D01*
X006115Y026894D02*
X002894Y026894D01*
X003385Y027052D02*
X004016Y027052D01*
X003903Y027211D02*
X003498Y027211D01*
X003536Y027369D02*
X003866Y027369D01*
X003883Y027528D02*
X003518Y027528D01*
X003068Y028003D02*
X002894Y028003D01*
X002894Y027845D02*
X002910Y027845D01*
X002894Y028162D02*
X005559Y028162D01*
X005931Y027528D02*
X006144Y027528D01*
X006061Y027369D02*
X005786Y027369D01*
X005748Y027211D02*
X006031Y027211D01*
X006047Y027052D02*
X005635Y027052D01*
X005016Y027052D02*
X004635Y027052D01*
X004748Y027211D02*
X004903Y027211D01*
X004866Y027369D02*
X004786Y027369D01*
X004768Y027528D02*
X004883Y027528D01*
X006000Y029271D02*
X006151Y029271D01*
X006095Y029430D02*
X009056Y029430D01*
X009099Y029412D02*
X009197Y029386D01*
X009267Y029377D01*
X009267Y030063D01*
X008581Y030063D01*
X008590Y029993D01*
X008616Y029895D01*
X008655Y029802D01*
X008705Y029714D01*
X008767Y029634D01*
X008838Y029563D01*
X008918Y029501D01*
X009006Y029451D01*
X009099Y029412D01*
X009267Y029430D02*
X009427Y029430D01*
X009427Y029588D02*
X009267Y029588D01*
X009267Y029747D02*
X009427Y029747D01*
X009427Y029905D02*
X009267Y029905D01*
X009267Y030064D02*
X005884Y030064D01*
X005884Y030222D02*
X009267Y030222D01*
X009267Y030223D02*
X008581Y030223D01*
X008590Y030294D01*
X008616Y030392D01*
X008655Y030485D01*
X008705Y030572D01*
X008767Y030652D01*
X008838Y030724D01*
X008918Y030785D01*
X009006Y030836D01*
X009099Y030875D01*
X009197Y030901D01*
X009267Y030910D01*
X009267Y030223D01*
X009267Y030381D02*
X009427Y030381D01*
X009427Y030539D02*
X009267Y030539D01*
X009267Y030698D02*
X009427Y030698D01*
X009427Y030856D02*
X009267Y030856D01*
X009055Y030856D02*
X006096Y030856D01*
X006339Y030698D02*
X008812Y030698D01*
X008686Y030539D02*
X006465Y030539D01*
X006538Y030381D02*
X008613Y030381D01*
X008613Y029905D02*
X006538Y029905D01*
X006465Y029747D02*
X008686Y029747D01*
X008813Y029588D02*
X006339Y029588D01*
X006852Y027686D02*
X007257Y027686D01*
X007093Y027528D02*
X007039Y027528D01*
X007068Y026894D02*
X007071Y026894D01*
X007211Y026735D02*
X006918Y026735D01*
X007894Y027686D02*
X008241Y027686D01*
X008077Y027528D02*
X008059Y027528D01*
X008879Y027686D02*
X010066Y027686D01*
X010066Y027528D02*
X009043Y027528D01*
X009114Y027369D02*
X009934Y027369D01*
X009776Y027211D02*
X009140Y027211D01*
X009130Y027052D02*
X009617Y027052D01*
X009459Y026894D02*
X009065Y026894D01*
X008925Y026735D02*
X009300Y026735D01*
X009560Y026260D02*
X009816Y026260D01*
X009816Y026418D02*
X009718Y026418D01*
X009877Y026577D02*
X009892Y026577D01*
X010035Y026735D02*
X010050Y026735D01*
X010194Y026894D02*
X010209Y026894D01*
X010352Y027052D02*
X010367Y027052D01*
X010511Y027211D02*
X010526Y027211D01*
X010586Y027369D02*
X010684Y027369D01*
X010586Y027528D02*
X010843Y027528D01*
X011001Y027686D02*
X010586Y027686D01*
X010586Y027845D02*
X011160Y027845D01*
X011602Y027052D02*
X014030Y027052D01*
X014001Y026894D02*
X011444Y026894D01*
X011285Y026735D02*
X014029Y026735D01*
X014001Y026893D02*
X014701Y026893D01*
X014701Y026893D01*
X015401Y026893D01*
X015401Y026859D01*
X015390Y026790D01*
X015368Y026724D01*
X015363Y026715D01*
X015500Y026771D01*
X015651Y026771D01*
X015790Y026714D01*
X015850Y026653D01*
X016433Y026653D01*
X016376Y026672D01*
X016298Y026712D01*
X016227Y026763D01*
X016164Y026826D01*
X016112Y026897D01*
X016072Y026976D01*
X016045Y027059D01*
X016031Y027146D01*
X016031Y027172D01*
X016573Y027172D01*
X016573Y027209D01*
X016031Y027209D01*
X016031Y027235D01*
X016045Y027322D01*
X016072Y027406D01*
X016112Y027484D01*
X016164Y027555D01*
X016227Y027618D01*
X016248Y027633D01*
X015683Y027633D01*
X015296Y027246D01*
X015263Y027213D01*
X015296Y027180D01*
X015337Y027124D01*
X015368Y027062D01*
X015390Y026996D01*
X015401Y026928D01*
X015401Y026893D01*
X014701Y026893D01*
X014701Y026453D01*
X014701Y026893D01*
X014701Y026893D01*
X014701Y026893D01*
X014001Y026893D01*
X014135Y026577D02*
X011127Y026577D01*
X010968Y026418D02*
X015198Y026418D01*
X015372Y026735D02*
X015413Y026735D01*
X015401Y026894D02*
X016115Y026894D01*
X016047Y027052D02*
X015372Y027052D01*
X015265Y027211D02*
X016031Y027211D01*
X016061Y027369D02*
X015419Y027369D01*
X015578Y027528D02*
X016144Y027528D01*
X016265Y026735D02*
X015738Y026735D01*
X015818Y026101D02*
X016833Y026101D01*
X017318Y026101D02*
X019217Y026101D01*
X019186Y026133D02*
X019315Y026003D01*
X019484Y025933D01*
X019667Y025933D01*
X019836Y026003D01*
X019966Y026133D01*
X020036Y026302D01*
X020036Y026485D01*
X019966Y026654D01*
X019836Y026783D01*
X019667Y026853D01*
X019484Y026853D01*
X019315Y026783D01*
X019186Y026654D01*
X019116Y026485D01*
X019116Y026302D01*
X019186Y026133D01*
X019133Y026260D02*
X017430Y026260D01*
X017454Y026418D02*
X019116Y026418D01*
X019154Y026577D02*
X017409Y026577D01*
X017941Y026735D02*
X018195Y026735D01*
X018925Y026735D02*
X019267Y026735D01*
X019065Y026894D02*
X019499Y026894D01*
X019299Y027052D02*
X019130Y027052D01*
X019461Y025943D02*
X015421Y025943D01*
X015413Y025784D02*
X022179Y025784D01*
X022179Y025626D02*
X015344Y025626D01*
X015134Y025467D02*
X022179Y025467D01*
X022179Y025309D02*
X015160Y025309D01*
X015221Y025283D02*
X015052Y025353D01*
X014349Y025353D01*
X014180Y025283D01*
X014051Y025154D01*
X013981Y024985D01*
X013981Y024802D01*
X014051Y024633D01*
X014180Y024503D01*
X014349Y024433D01*
X014715Y024433D01*
X014686Y024404D01*
X014616Y024235D01*
X014616Y024052D01*
X014686Y023883D01*
X014815Y023753D01*
X014984Y023683D01*
X015167Y023683D01*
X015336Y023753D01*
X015466Y023883D01*
X015536Y024052D01*
X015536Y024235D01*
X015466Y024404D01*
X015336Y024533D01*
X015276Y024558D01*
X015351Y024633D01*
X015616Y024633D01*
X015616Y024552D01*
X015686Y024383D01*
X015815Y024253D01*
X015984Y024183D01*
X016167Y024183D01*
X016336Y024253D01*
X016466Y024383D01*
X017185Y024383D01*
X017186Y024383D01*
X017315Y024253D01*
X017484Y024183D01*
X017667Y024183D01*
X017836Y024253D01*
X017966Y024383D01*
X018036Y024552D01*
X018036Y024735D01*
X017966Y024904D01*
X017836Y025033D01*
X017667Y025103D01*
X017484Y025103D01*
X017315Y025033D01*
X017186Y024904D01*
X017185Y024903D01*
X016466Y024903D01*
X016466Y024904D01*
X016336Y025033D01*
X016167Y025103D01*
X015984Y025103D01*
X015984Y025103D01*
X015973Y025114D01*
X015877Y025153D01*
X015351Y025153D01*
X015351Y025154D01*
X015221Y025283D01*
X015351Y024633D02*
X015351Y024633D01*
X015353Y024516D02*
X015630Y024516D01*
X015711Y024358D02*
X015485Y024358D01*
X015536Y024199D02*
X015945Y024199D01*
X016206Y024199D02*
X017445Y024199D01*
X017211Y024358D02*
X016441Y024358D01*
X016466Y024383D02*
X016466Y024383D01*
X016378Y024992D02*
X017274Y024992D01*
X017878Y024992D02*
X018307Y024992D01*
X018289Y024979D02*
X018240Y024930D01*
X018199Y024874D01*
X018168Y024812D01*
X018146Y024746D01*
X018136Y024678D01*
X018136Y024643D01*
X018136Y024609D01*
X018146Y024540D01*
X018168Y024474D01*
X018199Y024413D01*
X018240Y024357D01*
X018289Y024308D01*
X018345Y024267D01*
X018407Y024236D01*
X018473Y024214D01*
X018541Y024203D01*
X018576Y024203D01*
X018610Y024203D01*
X018679Y024214D01*
X018745Y024236D01*
X018806Y024267D01*
X018862Y024308D01*
X018911Y024357D01*
X018952Y024413D01*
X018983Y024474D01*
X019005Y024540D01*
X019016Y024609D01*
X019016Y024643D01*
X018576Y024643D01*
X018576Y024643D01*
X018576Y024203D01*
X018576Y024643D01*
X018576Y024643D01*
X019016Y024643D01*
X019016Y024678D01*
X019005Y024746D01*
X018983Y024812D01*
X018952Y024874D01*
X018911Y024930D01*
X018862Y024979D01*
X018806Y025020D01*
X018745Y025051D01*
X018679Y025072D01*
X018610Y025083D01*
X018576Y025083D01*
X018576Y024643D01*
X018136Y024643D01*
X018576Y024643D01*
X018576Y024643D01*
X018576Y024643D01*
X018576Y025083D01*
X018541Y025083D01*
X018473Y025072D01*
X018407Y025051D01*
X018345Y025020D01*
X018289Y024979D01*
X018179Y024833D02*
X017995Y024833D01*
X018036Y024675D02*
X018136Y024675D01*
X018154Y024516D02*
X018021Y024516D01*
X017941Y024358D02*
X018239Y024358D01*
X018576Y024358D02*
X018576Y024358D01*
X018576Y024516D02*
X018576Y024516D01*
X018576Y024675D02*
X018576Y024675D01*
X018576Y024833D02*
X018576Y024833D01*
X018576Y024992D02*
X018576Y024992D01*
X018845Y024992D02*
X022179Y024992D01*
X022179Y025150D02*
X015885Y025150D01*
X015531Y024041D02*
X022179Y024041D01*
X022179Y024199D02*
X017706Y024199D01*
X018912Y024358D02*
X022179Y024358D01*
X022179Y024516D02*
X018997Y024516D01*
X019016Y024675D02*
X022179Y024675D01*
X022179Y024833D02*
X018973Y024833D01*
X019315Y023783D02*
X019186Y023654D01*
X019185Y023653D01*
X014683Y023653D01*
X014223Y024114D01*
X014127Y024153D01*
X011350Y024153D01*
X011290Y024214D01*
X011151Y024271D01*
X011000Y024271D01*
X010861Y024214D01*
X010755Y024107D01*
X010698Y023969D01*
X010698Y023818D01*
X010755Y023679D01*
X010861Y023573D01*
X010886Y023563D01*
X010815Y023533D01*
X010686Y023404D01*
X010616Y023235D01*
X010616Y023052D01*
X010686Y022883D01*
X010815Y022753D01*
X010984Y022683D01*
X011167Y022683D01*
X011336Y022753D01*
X011466Y022883D01*
X011536Y023052D01*
X011536Y023235D01*
X011466Y023404D01*
X011336Y023533D01*
X011265Y023563D01*
X011290Y023573D01*
X011350Y023633D01*
X013968Y023633D01*
X014021Y023580D01*
X013973Y023572D01*
X013907Y023551D01*
X013845Y023520D01*
X013789Y023479D01*
X013740Y023430D01*
X013699Y023374D01*
X013668Y023312D01*
X013646Y023246D01*
X013636Y023178D01*
X013636Y023143D01*
X013636Y023109D01*
X013646Y023040D01*
X013668Y022974D01*
X013699Y022913D01*
X013740Y022857D01*
X013789Y022808D01*
X013845Y022767D01*
X013907Y022736D01*
X013973Y022714D01*
X014041Y022703D01*
X014076Y022703D01*
X014110Y022703D01*
X014179Y022714D01*
X014245Y022736D01*
X014306Y022767D01*
X014362Y022808D01*
X014411Y022857D01*
X014452Y022913D01*
X014483Y022974D01*
X014505Y023040D01*
X014516Y023109D01*
X014516Y023137D01*
X014524Y023133D01*
X019185Y023133D01*
X019186Y023133D01*
X019315Y023003D01*
X019371Y022980D01*
X019428Y022923D01*
X019428Y022923D01*
X019687Y022665D01*
X019561Y022539D01*
X019491Y022370D01*
X019491Y021667D01*
X019561Y021498D01*
X019690Y021368D01*
X019859Y021298D01*
X020042Y021298D01*
X020211Y021368D01*
X020341Y021498D01*
X020411Y021667D01*
X020411Y022370D01*
X020341Y022539D01*
X020211Y022668D01*
X020211Y022669D01*
X020211Y022820D01*
X020171Y022916D01*
X019960Y023127D01*
X019966Y023133D01*
X020036Y023302D01*
X020036Y023485D01*
X019966Y023654D01*
X019836Y023783D01*
X019667Y023853D01*
X019484Y023853D01*
X019315Y023783D01*
X019256Y023724D02*
X015265Y023724D01*
X015465Y023882D02*
X022179Y023882D01*
X022179Y023724D02*
X022117Y023724D01*
X021826Y023724D02*
X021826Y023724D01*
X021826Y023833D02*
X021791Y023833D01*
X021723Y023822D01*
X021657Y023801D01*
X021595Y023770D01*
X021539Y023729D01*
X021490Y023680D01*
X021449Y023624D01*
X021418Y023562D01*
X021396Y023496D01*
X021386Y023428D01*
X021386Y023393D01*
X021386Y023359D01*
X021396Y023290D01*
X021418Y023224D01*
X021449Y023163D01*
X021490Y023107D01*
X021539Y023058D01*
X021595Y023017D01*
X021657Y022986D01*
X021723Y022964D01*
X021791Y022953D01*
X021826Y022953D01*
X021826Y023393D01*
X021826Y023393D01*
X021386Y023393D01*
X021826Y023393D01*
X021826Y023393D01*
X021826Y023393D01*
X021826Y023833D01*
X021826Y023565D02*
X021826Y023565D01*
X021826Y023407D02*
X021826Y023407D01*
X021826Y023248D02*
X021826Y023248D01*
X021826Y023090D02*
X021826Y023090D01*
X022144Y023090D02*
X022179Y023090D01*
X022179Y022931D02*
X020155Y022931D01*
X020211Y022773D02*
X022179Y022773D01*
X021951Y022718D02*
X021951Y022018D01*
X021951Y022018D01*
X021951Y021318D01*
X021916Y021318D01*
X021848Y021329D01*
X021782Y021351D01*
X021720Y021382D01*
X021664Y021423D01*
X021615Y021472D01*
X021574Y021528D01*
X021543Y021589D01*
X021521Y021655D01*
X021511Y021724D01*
X021511Y022018D01*
X021951Y022018D01*
X021951Y022018D01*
X021951Y022018D01*
X021511Y022018D01*
X021511Y022313D01*
X021521Y022381D01*
X021543Y022447D01*
X021574Y022509D01*
X021615Y022565D01*
X021664Y022614D01*
X021720Y022655D01*
X021782Y022686D01*
X021848Y022707D01*
X021916Y022718D01*
X021951Y022718D01*
X021951Y022614D02*
X021951Y022614D01*
X021951Y022456D02*
X021951Y022456D01*
X021951Y022297D02*
X021951Y022297D01*
X021951Y022139D02*
X021951Y022139D01*
X021951Y021980D02*
X021951Y021980D01*
X021951Y021822D02*
X021951Y021822D01*
X021951Y021663D02*
X021951Y021663D01*
X021951Y021505D02*
X021951Y021505D01*
X021951Y021346D02*
X021951Y021346D01*
X022107Y021346D02*
X022179Y021346D01*
X022179Y021188D02*
X018678Y021188D01*
X018667Y021183D02*
X018836Y021253D01*
X018966Y021383D01*
X019036Y021552D01*
X019036Y021735D01*
X018966Y021904D01*
X018836Y022033D01*
X018667Y022103D01*
X018484Y022103D01*
X018315Y022033D01*
X018186Y021904D01*
X018185Y021903D01*
X017966Y021903D01*
X017966Y021904D01*
X017836Y022033D01*
X017667Y022103D01*
X017484Y022103D01*
X017315Y022033D01*
X017186Y021904D01*
X017116Y021735D01*
X017116Y021552D01*
X017186Y021383D01*
X017315Y021253D01*
X017484Y021183D01*
X017667Y021183D01*
X017836Y021253D01*
X017966Y021383D01*
X018185Y021383D01*
X018186Y021383D01*
X018315Y021253D01*
X018484Y021183D01*
X018667Y021183D01*
X018473Y021188D02*
X017678Y021188D01*
X017473Y021188D02*
X016178Y021188D01*
X016167Y021183D02*
X016336Y021253D01*
X016466Y021383D01*
X016536Y021552D01*
X016536Y021735D01*
X016466Y021904D01*
X016336Y022033D01*
X016167Y022103D01*
X015984Y022103D01*
X015815Y022033D01*
X015686Y021904D01*
X015616Y021735D01*
X015616Y021552D01*
X015686Y021383D01*
X015815Y021253D01*
X015984Y021183D01*
X016167Y021183D01*
X015973Y021188D02*
X015536Y021188D01*
X015536Y021235D02*
X015466Y021404D01*
X015336Y021533D01*
X015167Y021603D01*
X014984Y021603D01*
X014815Y021533D01*
X014686Y021404D01*
X014616Y021235D01*
X014616Y021052D01*
X014686Y020883D01*
X014815Y020753D01*
X014984Y020683D01*
X015167Y020683D01*
X015336Y020753D01*
X015466Y020883D01*
X015536Y021052D01*
X015536Y021235D01*
X015489Y021346D02*
X015722Y021346D01*
X015635Y021505D02*
X015365Y021505D01*
X015616Y021663D02*
X013341Y021663D01*
X013282Y021521D02*
X013409Y021828D01*
X013409Y022159D01*
X013282Y022465D01*
X013048Y022700D01*
X012741Y022826D01*
X012410Y022826D01*
X012104Y022700D01*
X011869Y022465D01*
X011743Y022159D01*
X011743Y021828D01*
X011869Y021521D01*
X012104Y021287D01*
X012410Y021160D01*
X012741Y021160D01*
X013048Y021287D01*
X013282Y021521D01*
X013265Y021505D02*
X014787Y021505D01*
X014662Y021346D02*
X013107Y021346D01*
X012936Y020874D02*
X012838Y020915D01*
X012735Y020942D01*
X012656Y020953D01*
X012656Y020223D01*
X013385Y020223D01*
X013375Y020302D01*
X013347Y020405D01*
X013306Y020504D01*
X013253Y020596D01*
X013188Y020681D01*
X013113Y020756D01*
X013028Y020821D01*
X012936Y020874D01*
X012942Y020871D02*
X014698Y020871D01*
X014625Y021029D02*
X006606Y021029D01*
X006606Y020871D02*
X012210Y020871D01*
X012215Y020874D02*
X012123Y020821D01*
X012038Y020756D01*
X011963Y020681D01*
X011898Y020596D01*
X011845Y020504D01*
X011804Y020405D01*
X011777Y020302D01*
X011766Y020223D01*
X012496Y020223D01*
X012496Y020063D01*
X011766Y020063D01*
X011777Y019984D01*
X011804Y019881D01*
X011845Y019783D01*
X011898Y019691D01*
X011963Y019606D01*
X012006Y019563D01*
X010540Y019563D01*
X010540Y019564D01*
X010401Y019621D01*
X010250Y019621D01*
X010111Y019564D01*
X010005Y019457D01*
X009948Y019319D01*
X009948Y019168D01*
X010005Y019029D01*
X010111Y018923D01*
X010250Y018865D01*
X010401Y018865D01*
X010540Y018923D01*
X010540Y018923D01*
X012028Y018923D01*
X011869Y018765D01*
X011743Y018459D01*
X011743Y018128D01*
X011869Y017821D01*
X012104Y017587D01*
X012410Y017460D01*
X012741Y017460D01*
X013048Y017587D01*
X013282Y017821D01*
X013409Y018128D01*
X013409Y018459D01*
X013282Y018765D01*
X013124Y018923D01*
X014761Y018923D01*
X014861Y018823D01*
X015000Y018765D01*
X015151Y018765D01*
X015290Y018823D01*
X015396Y018929D01*
X015454Y019068D01*
X015454Y019219D01*
X015396Y019357D01*
X015290Y019464D01*
X015151Y019521D01*
X015140Y019521D01*
X015039Y019563D01*
X013146Y019563D01*
X013188Y019606D01*
X013253Y019691D01*
X013306Y019783D01*
X013347Y019881D01*
X013375Y019984D01*
X013385Y020063D01*
X012656Y020063D01*
X012656Y020223D01*
X012496Y020223D01*
X012496Y020953D01*
X012417Y020942D01*
X012314Y020915D01*
X012215Y020874D01*
X011995Y020712D02*
X006541Y020712D01*
X006683Y020554D02*
X006382Y020554D01*
X006356Y020395D02*
X006616Y020395D01*
X006616Y020486D02*
X006733Y020603D01*
X007419Y020603D01*
X007536Y020486D01*
X007536Y019800D01*
X007419Y019683D01*
X006733Y019683D01*
X006616Y019800D01*
X006616Y020486D01*
X006616Y020237D02*
X006356Y020237D01*
X006356Y020078D02*
X006616Y020078D01*
X006616Y019920D02*
X006356Y019920D01*
X006356Y019761D02*
X006655Y019761D01*
X006356Y019603D02*
X010206Y019603D01*
X010446Y019603D02*
X011966Y019603D01*
X011857Y019761D02*
X008344Y019761D01*
X008336Y019753D02*
X008466Y019883D01*
X008536Y020052D01*
X008536Y020235D01*
X008466Y020404D01*
X008336Y020533D01*
X008167Y020603D01*
X007984Y020603D01*
X007815Y020533D01*
X007686Y020404D01*
X007616Y020235D01*
X007616Y020052D01*
X007686Y019883D01*
X007815Y019753D01*
X007984Y019683D01*
X008167Y019683D01*
X008336Y019753D01*
X008481Y019920D02*
X011794Y019920D01*
X011768Y020237D02*
X008535Y020237D01*
X008536Y020078D02*
X012496Y020078D01*
X012496Y020237D02*
X012656Y020237D01*
X012656Y020395D02*
X012496Y020395D01*
X012496Y020554D02*
X012656Y020554D01*
X012656Y020712D02*
X012496Y020712D01*
X012496Y020871D02*
X012656Y020871D01*
X012808Y021188D02*
X014616Y021188D01*
X014914Y020712D02*
X013156Y020712D01*
X013277Y020554D02*
X016683Y020554D01*
X016733Y020603D02*
X016616Y020486D01*
X016616Y019800D01*
X016733Y019683D01*
X017419Y019683D01*
X017536Y019800D01*
X017536Y020486D01*
X017419Y020603D01*
X016733Y020603D01*
X016616Y020395D02*
X013350Y020395D01*
X013383Y020237D02*
X016616Y020237D01*
X016616Y020078D02*
X012656Y020078D01*
X013185Y019603D02*
X019511Y019603D01*
X019511Y019599D02*
X019521Y019530D01*
X019543Y019464D01*
X019574Y019403D01*
X019615Y019347D01*
X019664Y019298D01*
X019720Y019257D01*
X019782Y019226D01*
X019848Y019204D01*
X019916Y019193D01*
X019951Y019193D01*
X019985Y019193D01*
X020054Y019204D01*
X020120Y019226D01*
X020181Y019257D01*
X020237Y019298D01*
X020286Y019347D01*
X020327Y019403D01*
X020358Y019464D01*
X020380Y019530D01*
X020391Y019599D01*
X020391Y019893D01*
X019951Y019893D01*
X019951Y019893D01*
X019951Y019193D01*
X019951Y019893D01*
X019951Y019893D01*
X020391Y019893D01*
X020391Y020188D01*
X020380Y020256D01*
X020358Y020322D01*
X020327Y020384D01*
X020286Y020440D01*
X020237Y020489D01*
X020181Y020530D01*
X020120Y020561D01*
X020054Y020582D01*
X019985Y020593D01*
X019951Y020593D01*
X019951Y019893D01*
X019511Y019893D01*
X019511Y019599D01*
X019553Y019444D02*
X015309Y019444D01*
X015426Y019286D02*
X019680Y019286D01*
X019734Y019103D02*
X019565Y019033D01*
X019436Y018904D01*
X019366Y018735D01*
X019366Y018552D01*
X019436Y018383D01*
X019565Y018253D01*
X019734Y018183D01*
X019917Y018183D01*
X020086Y018253D01*
X020216Y018383D01*
X020286Y018552D01*
X020286Y018735D01*
X020216Y018904D01*
X020086Y019033D01*
X019917Y019103D01*
X019734Y019103D01*
X019501Y018969D02*
X019122Y018969D01*
X019112Y018979D02*
X019056Y019020D01*
X018995Y019051D01*
X018929Y019072D01*
X018860Y019083D01*
X018826Y019083D01*
X018826Y018643D01*
X018826Y018643D01*
X019266Y018643D01*
X019266Y018609D01*
X019255Y018540D01*
X019233Y018474D01*
X019202Y018413D01*
X019161Y018357D01*
X019112Y018308D01*
X019056Y018267D01*
X018995Y018236D01*
X018929Y018214D01*
X018860Y018203D01*
X018826Y018203D01*
X018826Y018643D01*
X018826Y018643D01*
X019266Y018643D01*
X019266Y018678D01*
X019255Y018746D01*
X019233Y018812D01*
X019202Y018874D01*
X019161Y018930D01*
X019112Y018979D01*
X019234Y018810D02*
X019397Y018810D01*
X019366Y018652D02*
X019266Y018652D01*
X019240Y018493D02*
X019390Y018493D01*
X019484Y018335D02*
X019139Y018335D01*
X018826Y018335D02*
X018826Y018335D01*
X018826Y018203D02*
X018826Y018643D01*
X018386Y018643D01*
X018386Y018609D01*
X018396Y018540D01*
X018418Y018474D01*
X018449Y018413D01*
X018490Y018357D01*
X018539Y018308D01*
X018595Y018267D01*
X018657Y018236D01*
X018723Y018214D01*
X018791Y018203D01*
X018826Y018203D01*
X018826Y018493D02*
X018826Y018493D01*
X018826Y018643D02*
X018826Y018643D01*
X018826Y018643D01*
X018386Y018643D01*
X018386Y018678D01*
X018396Y018746D01*
X018418Y018812D01*
X018449Y018874D01*
X018490Y018930D01*
X018539Y018979D01*
X018595Y019020D01*
X018657Y019051D01*
X018723Y019072D01*
X018791Y019083D01*
X018826Y019083D01*
X018826Y018643D01*
X018826Y018652D02*
X018826Y018652D01*
X018826Y018810D02*
X018826Y018810D01*
X018826Y018969D02*
X018826Y018969D01*
X018529Y018969D02*
X016151Y018969D01*
X016086Y019033D02*
X015917Y019103D01*
X015734Y019103D01*
X015565Y019033D01*
X015436Y018904D01*
X015366Y018735D01*
X015366Y018552D01*
X015436Y018383D01*
X015565Y018253D01*
X015734Y018183D01*
X015917Y018183D01*
X016086Y018253D01*
X016216Y018383D01*
X016286Y018552D01*
X016286Y018735D01*
X016216Y018904D01*
X016086Y019033D01*
X016254Y018810D02*
X018417Y018810D01*
X018386Y018652D02*
X016286Y018652D01*
X016261Y018493D02*
X018412Y018493D01*
X018512Y018335D02*
X016168Y018335D01*
X015484Y018335D02*
X013409Y018335D01*
X013409Y018176D02*
X022179Y018176D01*
X022179Y018018D02*
X013363Y018018D01*
X013298Y017859D02*
X022179Y017859D01*
X022179Y017701D02*
X013161Y017701D01*
X012940Y017542D02*
X017393Y017542D01*
X017477Y017577D02*
X017294Y017502D01*
X017154Y017362D01*
X017079Y017179D01*
X017079Y016981D01*
X017154Y016799D01*
X017294Y016659D01*
X017477Y016583D01*
X017674Y016583D01*
X017857Y016659D01*
X017997Y016799D01*
X018073Y016981D01*
X018073Y017179D01*
X017997Y017362D01*
X017857Y017502D01*
X017674Y017577D01*
X017477Y017577D01*
X017759Y017542D02*
X022179Y017542D01*
X022179Y017384D02*
X017975Y017384D01*
X018053Y017225D02*
X022179Y017225D01*
X022179Y017067D02*
X018073Y017067D01*
X018042Y016908D02*
X022179Y016908D01*
X022179Y016750D02*
X017948Y016750D01*
X017693Y016591D02*
X022179Y016591D01*
X022179Y016433D02*
X006356Y016433D01*
X006356Y016591D02*
X007458Y016591D01*
X007477Y016583D02*
X007674Y016583D01*
X007857Y016659D01*
X007997Y016799D01*
X008073Y016981D01*
X008073Y017179D01*
X007997Y017362D01*
X007857Y017502D01*
X007674Y017577D01*
X007477Y017577D01*
X007294Y017502D01*
X007154Y017362D01*
X007079Y017179D01*
X007079Y016981D01*
X007154Y016799D01*
X007294Y016659D01*
X007477Y016583D01*
X007693Y016591D02*
X010505Y016591D01*
X010490Y016607D02*
X010539Y016558D01*
X010595Y016517D01*
X010657Y016486D01*
X010723Y016464D01*
X010791Y016453D01*
X010826Y016453D01*
X010860Y016453D01*
X010929Y016464D01*
X010995Y016486D01*
X011056Y016517D01*
X011112Y016558D01*
X011161Y016607D01*
X011202Y016663D01*
X011233Y016724D01*
X011255Y016790D01*
X011266Y016859D01*
X011266Y016893D01*
X010826Y016893D01*
X010826Y016893D01*
X010826Y016453D01*
X010826Y016893D01*
X010826Y016893D01*
X011266Y016893D01*
X011266Y016928D01*
X011255Y016996D01*
X011233Y017062D01*
X011202Y017124D01*
X011161Y017180D01*
X011112Y017229D01*
X011056Y017270D01*
X010995Y017301D01*
X010929Y017322D01*
X010860Y017333D01*
X010826Y017333D01*
X010826Y016893D01*
X010386Y016893D01*
X010386Y016859D01*
X010396Y016790D01*
X010418Y016724D01*
X010449Y016663D01*
X010490Y016607D01*
X010410Y016750D02*
X007948Y016750D01*
X008042Y016908D02*
X010386Y016908D01*
X010386Y016893D02*
X010826Y016893D01*
X010826Y016893D01*
X010826Y016893D01*
X010826Y017333D01*
X010791Y017333D01*
X010723Y017322D01*
X010657Y017301D01*
X010595Y017270D01*
X010539Y017229D01*
X010490Y017180D01*
X010449Y017124D01*
X010418Y017062D01*
X010396Y016996D01*
X010386Y016928D01*
X010386Y016893D01*
X010420Y017067D02*
X008073Y017067D01*
X008053Y017225D02*
X010535Y017225D01*
X010826Y017225D02*
X010826Y017225D01*
X010826Y017067D02*
X010826Y017067D01*
X010826Y016908D02*
X010826Y016908D01*
X010826Y016750D02*
X010826Y016750D01*
X010826Y016591D02*
X010826Y016591D01*
X011146Y016591D02*
X013477Y016591D01*
X013436Y016633D02*
X013565Y016503D01*
X013734Y016433D01*
X013917Y016433D01*
X014086Y016503D01*
X014216Y016633D01*
X014286Y016802D01*
X014286Y016985D01*
X014216Y017154D01*
X014086Y017283D01*
X013917Y017353D01*
X013734Y017353D01*
X013565Y017283D01*
X013436Y017154D01*
X013366Y016985D01*
X013366Y016802D01*
X013436Y016633D01*
X013387Y016750D02*
X011242Y016750D01*
X011266Y016908D02*
X013366Y016908D01*
X013400Y017067D02*
X011231Y017067D01*
X011116Y017225D02*
X013507Y017225D01*
X013360Y016343D02*
X013326Y016343D01*
X013326Y015643D01*
X013326Y015643D01*
X013766Y015643D01*
X013766Y015349D01*
X013755Y015280D01*
X013733Y015214D01*
X013702Y015153D01*
X013661Y015097D01*
X013612Y015048D01*
X013556Y015007D01*
X013495Y014976D01*
X013429Y014954D01*
X013360Y014943D01*
X013326Y014943D01*
X013326Y015643D01*
X013326Y015643D01*
X013766Y015643D01*
X013766Y015938D01*
X013755Y016006D01*
X013733Y016072D01*
X013702Y016134D01*
X013661Y016190D01*
X013612Y016239D01*
X013556Y016280D01*
X013495Y016311D01*
X013429Y016332D01*
X013360Y016343D01*
X013326Y016343D02*
X013291Y016343D01*
X013223Y016332D01*
X013157Y016311D01*
X013095Y016280D01*
X013039Y016239D01*
X012990Y016190D01*
X012949Y016134D01*
X012918Y016072D01*
X012896Y016006D01*
X012886Y015938D01*
X012886Y015643D01*
X012886Y015349D01*
X012896Y015280D01*
X012918Y015214D01*
X012949Y015153D01*
X012990Y015097D01*
X013039Y015048D01*
X013095Y015007D01*
X013157Y014976D01*
X013223Y014954D01*
X013291Y014943D01*
X013326Y014943D01*
X013326Y015643D01*
X012886Y015643D01*
X013326Y015643D01*
X013326Y015643D01*
X013326Y015643D01*
X013326Y016343D01*
X013326Y016274D02*
X013326Y016274D01*
X013326Y016116D02*
X013326Y016116D01*
X013326Y015957D02*
X013326Y015957D01*
X013326Y015799D02*
X013326Y015799D01*
X013326Y015640D02*
X013326Y015640D01*
X013326Y015482D02*
X013326Y015482D01*
X013326Y015323D02*
X013326Y015323D01*
X013326Y015165D02*
X013326Y015165D01*
X013326Y015006D02*
X013326Y015006D01*
X013555Y015006D02*
X016824Y015006D01*
X016824Y014994D02*
X016939Y014718D01*
X017150Y014506D01*
X017426Y014392D01*
X017725Y014392D01*
X018001Y014506D01*
X018212Y014718D01*
X018327Y014994D01*
X018327Y015293D01*
X018212Y015569D01*
X018001Y015780D01*
X017725Y015894D01*
X017426Y015894D01*
X017150Y015780D01*
X016939Y015569D01*
X016824Y015293D01*
X016824Y014994D01*
X016885Y014848D02*
X008266Y014848D01*
X008212Y014718D02*
X008001Y014506D01*
X007725Y014392D01*
X007426Y014392D01*
X007150Y014506D01*
X006939Y014718D01*
X006824Y014994D01*
X006824Y015293D01*
X006939Y015569D01*
X007150Y015780D01*
X007426Y015894D01*
X007725Y015894D01*
X008001Y015780D01*
X008212Y015569D01*
X008327Y015293D01*
X008327Y014994D01*
X008212Y014718D01*
X008184Y014689D02*
X016967Y014689D01*
X017126Y014531D02*
X008026Y014531D01*
X007826Y014220D02*
X007759Y014255D01*
X007687Y014278D01*
X007613Y014289D01*
X007594Y014289D01*
X007594Y013831D01*
X007557Y013831D01*
X007557Y013794D01*
X007099Y013794D01*
X007099Y013775D01*
X007111Y013701D01*
X007134Y013630D01*
X007168Y013563D01*
X007212Y013502D01*
X007265Y013449D01*
X007326Y013405D01*
X007344Y013395D01*
X007326Y013386D01*
X007265Y013342D01*
X007212Y013289D01*
X007168Y013228D01*
X007134Y013161D01*
X007111Y013090D01*
X007099Y013015D01*
X007099Y012996D01*
X007557Y012996D01*
X007557Y012960D01*
X007099Y012960D01*
X007099Y012940D01*
X007111Y012866D01*
X007134Y012795D01*
X007168Y012728D01*
X007212Y012667D01*
X007265Y012614D01*
X007326Y012570D01*
X007386Y012539D01*
X007294Y012502D01*
X007154Y012362D01*
X007079Y012179D01*
X007079Y011981D01*
X007154Y011799D01*
X007294Y011659D01*
X007477Y011583D01*
X007674Y011583D01*
X007696Y011592D01*
X008615Y010673D01*
X008711Y010633D01*
X009051Y010633D01*
X009111Y010573D01*
X009250Y010515D01*
X009401Y010515D01*
X009540Y010573D01*
X009646Y010679D01*
X009704Y010818D01*
X009704Y010969D01*
X009646Y011107D01*
X009540Y011214D01*
X009401Y011271D01*
X009250Y011271D01*
X009111Y011214D01*
X009051Y011153D01*
X008870Y011153D01*
X008064Y011960D01*
X008073Y011981D01*
X008073Y012179D01*
X007997Y012362D01*
X007857Y012502D01*
X007765Y012539D01*
X007826Y012570D01*
X007886Y012614D01*
X007939Y012667D01*
X007983Y012728D01*
X008018Y012795D01*
X008041Y012866D01*
X008053Y012940D01*
X008053Y012960D01*
X007594Y012960D01*
X007594Y012996D01*
X008053Y012996D01*
X008053Y013015D01*
X008041Y013090D01*
X008018Y013161D01*
X007983Y013228D01*
X007939Y013289D01*
X007886Y013342D01*
X007826Y013386D01*
X007807Y013395D01*
X007826Y013405D01*
X007886Y013449D01*
X007939Y013502D01*
X007983Y013563D01*
X008018Y013630D01*
X008041Y013701D01*
X008053Y013775D01*
X008053Y013794D01*
X007594Y013794D01*
X007594Y012996D01*
X007557Y012996D01*
X007557Y013455D01*
X007557Y013794D01*
X007594Y013794D01*
X007594Y013831D01*
X008053Y013831D01*
X008053Y013850D01*
X008041Y013924D01*
X008018Y013996D01*
X007983Y014063D01*
X007939Y014123D01*
X007886Y014176D01*
X007826Y014220D01*
X007835Y014214D02*
X009496Y014214D01*
X009436Y014154D02*
X009366Y013985D01*
X009366Y013802D01*
X009436Y013633D01*
X009565Y013503D01*
X009734Y013433D01*
X009917Y013433D01*
X010086Y013503D01*
X010216Y013633D01*
X010286Y013802D01*
X010286Y013985D01*
X010216Y014154D01*
X010086Y014283D01*
X009917Y014353D01*
X009734Y014353D01*
X009565Y014283D01*
X009436Y014154D01*
X009395Y014055D02*
X007987Y014055D01*
X008045Y013897D02*
X009366Y013897D01*
X009392Y013738D02*
X008047Y013738D01*
X007992Y013580D02*
X009489Y013580D01*
X010163Y013580D02*
X012489Y013580D01*
X012436Y013633D02*
X012565Y013503D01*
X012734Y013433D01*
X012917Y013433D01*
X013086Y013503D01*
X013216Y013633D01*
X013286Y013802D01*
X013286Y013985D01*
X013216Y014154D01*
X013086Y014283D01*
X012917Y014353D01*
X012734Y014353D01*
X012565Y014283D01*
X012436Y014154D01*
X012366Y013985D01*
X012366Y013802D01*
X012436Y013633D01*
X012392Y013738D02*
X010259Y013738D01*
X010286Y013897D02*
X012366Y013897D01*
X012395Y014055D02*
X010256Y014055D01*
X010156Y014214D02*
X012496Y014214D01*
X012417Y014923D02*
X012234Y014923D01*
X012065Y014993D01*
X011936Y015123D01*
X011866Y015292D01*
X011866Y015995D01*
X011936Y016164D01*
X012065Y016293D01*
X012234Y016363D01*
X012417Y016363D01*
X012586Y016293D01*
X012716Y016164D01*
X012786Y015995D01*
X012786Y015292D01*
X012716Y015123D01*
X012586Y014993D01*
X012417Y014923D01*
X012599Y015006D02*
X013096Y015006D01*
X012943Y015165D02*
X012733Y015165D01*
X012786Y015323D02*
X012890Y015323D01*
X012886Y015482D02*
X012786Y015482D01*
X012786Y015640D02*
X012886Y015640D01*
X012886Y015799D02*
X012786Y015799D01*
X012786Y015957D02*
X012889Y015957D01*
X012940Y016116D02*
X012736Y016116D01*
X012605Y016274D02*
X013088Y016274D01*
X013564Y016274D02*
X022179Y016274D01*
X022179Y016116D02*
X013711Y016116D01*
X013763Y015957D02*
X019489Y015957D01*
X019436Y015904D02*
X019366Y015735D01*
X019366Y015552D01*
X019436Y015383D01*
X019550Y015268D01*
X019436Y015154D01*
X019366Y014985D01*
X019366Y014802D01*
X019436Y014633D01*
X019565Y014503D01*
X019734Y014433D01*
X019917Y014433D01*
X020086Y014503D01*
X020216Y014633D01*
X020286Y014802D01*
X020286Y014985D01*
X020216Y015154D01*
X020101Y015268D01*
X020216Y015383D01*
X020286Y015552D01*
X020286Y015735D01*
X020216Y015904D01*
X020086Y016033D01*
X019917Y016103D01*
X019734Y016103D01*
X019565Y016033D01*
X019436Y015904D01*
X019392Y015799D02*
X017956Y015799D01*
X018141Y015640D02*
X019366Y015640D01*
X019395Y015482D02*
X018249Y015482D01*
X018314Y015323D02*
X019495Y015323D01*
X019447Y015165D02*
X018327Y015165D01*
X018327Y015006D02*
X019375Y015006D01*
X019366Y014848D02*
X018266Y014848D01*
X018184Y014689D02*
X019412Y014689D01*
X019538Y014531D02*
X018026Y014531D01*
X017826Y014220D02*
X017759Y014255D01*
X017687Y014278D01*
X017613Y014289D01*
X017594Y014289D01*
X017594Y013831D01*
X017557Y013831D01*
X017557Y013794D01*
X017099Y013794D01*
X017099Y013775D01*
X017111Y013701D01*
X017134Y013630D01*
X017168Y013563D01*
X017212Y013502D01*
X017265Y013449D01*
X017326Y013405D01*
X017344Y013395D01*
X017326Y013386D01*
X017265Y013342D01*
X017212Y013289D01*
X017168Y013228D01*
X017134Y013161D01*
X017111Y013090D01*
X017099Y013015D01*
X017099Y012996D01*
X017557Y012996D01*
X017557Y012960D01*
X017099Y012960D01*
X017099Y012940D01*
X017111Y012866D01*
X017134Y012795D01*
X017168Y012728D01*
X017212Y012667D01*
X017265Y012614D01*
X017326Y012570D01*
X017386Y012539D01*
X017294Y012502D01*
X017154Y012362D01*
X017079Y012179D01*
X017079Y011981D01*
X017154Y011799D01*
X017294Y011659D01*
X017477Y011583D01*
X017674Y011583D01*
X017857Y011659D01*
X017997Y011799D01*
X018073Y011981D01*
X018073Y012179D01*
X017997Y012362D01*
X017857Y012502D01*
X017765Y012539D01*
X017826Y012570D01*
X017886Y012614D01*
X017939Y012667D01*
X017983Y012728D01*
X018018Y012795D01*
X018041Y012866D01*
X018053Y012940D01*
X018053Y012960D01*
X017594Y012960D01*
X017594Y012996D01*
X018053Y012996D01*
X018053Y013015D01*
X018041Y013090D01*
X018018Y013161D01*
X017983Y013228D01*
X017939Y013289D01*
X017886Y013342D01*
X017826Y013386D01*
X017807Y013395D01*
X017826Y013405D01*
X017886Y013449D01*
X017939Y013502D01*
X017983Y013563D01*
X018018Y013630D01*
X018041Y013701D01*
X018053Y013775D01*
X018053Y013794D01*
X017594Y013794D01*
X017594Y012996D01*
X017557Y012996D01*
X017557Y013455D01*
X017557Y013794D01*
X017594Y013794D01*
X017594Y013831D01*
X018053Y013831D01*
X018053Y013850D01*
X018041Y013924D01*
X018018Y013996D01*
X017983Y014063D01*
X017939Y014123D01*
X017886Y014176D01*
X017826Y014220D01*
X017835Y014214D02*
X020663Y014214D01*
X020658Y014224D02*
X020689Y014163D01*
X020730Y014107D01*
X020779Y014058D01*
X020835Y014017D01*
X020897Y013986D01*
X020963Y013964D01*
X021031Y013953D01*
X021326Y013953D01*
X021620Y013953D01*
X021689Y013964D01*
X021755Y013986D01*
X021816Y014017D01*
X021872Y014058D01*
X021921Y014107D01*
X021962Y014163D01*
X021993Y014224D01*
X022015Y014290D01*
X022026Y014359D01*
X022026Y014393D01*
X021326Y014393D01*
X021326Y014393D01*
X021326Y013953D01*
X021326Y014393D01*
X021326Y014393D01*
X022026Y014393D01*
X022026Y014428D01*
X022015Y014496D01*
X021993Y014562D01*
X021962Y014624D01*
X021921Y014680D01*
X021872Y014729D01*
X021816Y014770D01*
X021755Y014801D01*
X021689Y014822D01*
X021620Y014833D01*
X021326Y014833D01*
X021326Y014393D01*
X020626Y014393D01*
X020626Y014359D01*
X020636Y014290D01*
X020658Y014224D01*
X020626Y014372D02*
X006356Y014372D01*
X006356Y014214D02*
X007317Y014214D01*
X007326Y014220D02*
X007265Y014176D01*
X007212Y014123D01*
X007168Y014063D01*
X007134Y013996D01*
X007111Y013924D01*
X007099Y013850D01*
X007099Y013831D01*
X007557Y013831D01*
X007557Y014289D01*
X007538Y014289D01*
X007464Y014278D01*
X007393Y014255D01*
X007326Y014220D01*
X007164Y014055D02*
X006356Y014055D01*
X006356Y013897D02*
X007106Y013897D01*
X007105Y013738D02*
X006356Y013738D01*
X006356Y013580D02*
X007159Y013580D01*
X007303Y013421D02*
X006356Y013421D01*
X006356Y013263D02*
X007193Y013263D01*
X007115Y013104D02*
X006356Y013104D01*
X006356Y012946D02*
X007099Y012946D01*
X007138Y012787D02*
X006356Y012787D01*
X006356Y012629D02*
X007250Y012629D01*
X007263Y012470D02*
X006356Y012470D01*
X006356Y012312D02*
X007134Y012312D01*
X007079Y012153D02*
X006356Y012153D01*
X006356Y011995D02*
X007079Y011995D01*
X007139Y011836D02*
X006356Y011836D01*
X006356Y011678D02*
X007276Y011678D01*
X007769Y011519D02*
X006356Y011519D01*
X006356Y011361D02*
X007927Y011361D01*
X008086Y011202D02*
X006356Y011202D01*
X006356Y011044D02*
X008244Y011044D01*
X008403Y010885D02*
X007747Y010885D01*
X007725Y010894D02*
X007426Y010894D01*
X007150Y010780D01*
X006939Y010569D01*
X006824Y010293D01*
X006824Y009994D01*
X006939Y009718D01*
X007150Y009506D01*
X007426Y009392D01*
X007725Y009392D01*
X008001Y009506D01*
X008212Y009718D01*
X008327Y009994D01*
X008327Y010293D01*
X008212Y010569D01*
X008001Y010780D01*
X007725Y010894D01*
X007404Y010885D02*
X006356Y010885D01*
X006356Y010727D02*
X007097Y010727D01*
X006939Y010568D02*
X006356Y010568D01*
X006356Y010410D02*
X006873Y010410D01*
X006824Y010251D02*
X006320Y010251D01*
X006171Y010093D02*
X006824Y010093D01*
X006849Y009934D02*
X006013Y009934D01*
X005854Y009776D02*
X006915Y009776D01*
X007039Y009617D02*
X005696Y009617D01*
X005537Y009459D02*
X007265Y009459D01*
X007294Y009234D02*
X007154Y009094D01*
X007079Y008911D01*
X007079Y008714D01*
X007154Y008531D01*
X007294Y008391D01*
X007319Y008381D01*
X007265Y008342D01*
X007212Y008289D01*
X007168Y008228D01*
X007134Y008161D01*
X007111Y008090D01*
X007099Y008015D01*
X007099Y007996D01*
X007557Y007996D01*
X007557Y007960D01*
X007099Y007960D01*
X007099Y007940D01*
X007111Y007866D01*
X007134Y007795D01*
X007168Y007728D01*
X007212Y007667D01*
X007236Y007643D01*
X007212Y007619D01*
X007168Y007559D01*
X007134Y007492D01*
X007111Y007420D01*
X007099Y007346D01*
X007099Y007327D01*
X007557Y007327D01*
X007557Y007290D01*
X007099Y007290D01*
X007099Y007271D01*
X007111Y007197D01*
X007134Y007126D01*
X007168Y007059D01*
X007212Y006998D01*
X007265Y006945D01*
X007319Y006906D01*
X007294Y006895D01*
X007154Y006755D01*
X007079Y006573D01*
X007079Y006375D01*
X007154Y006193D01*
X007294Y006053D01*
X007477Y005977D01*
X007674Y005977D01*
X007857Y006053D01*
X007997Y006193D01*
X008073Y006375D01*
X008073Y006573D01*
X007997Y006755D01*
X007857Y006895D01*
X007832Y006906D01*
X007886Y006945D01*
X007939Y006998D01*
X007983Y007059D01*
X008018Y007126D01*
X008041Y007197D01*
X008053Y007271D01*
X008053Y007290D01*
X007594Y007290D01*
X007594Y007327D01*
X008053Y007327D01*
X008053Y007346D01*
X008041Y007420D01*
X008018Y007492D01*
X007983Y007559D01*
X007939Y007619D01*
X007915Y007643D01*
X007939Y007667D01*
X007983Y007728D01*
X008018Y007795D01*
X008041Y007866D01*
X008053Y007940D01*
X008053Y007960D01*
X007594Y007960D01*
X007594Y007996D01*
X008053Y007996D01*
X008053Y008015D01*
X008041Y008090D01*
X008018Y008161D01*
X007983Y008228D01*
X007939Y008289D01*
X007886Y008342D01*
X007832Y008381D01*
X007857Y008391D01*
X007997Y008531D01*
X008073Y008714D01*
X008073Y008911D01*
X007997Y009094D01*
X007857Y009234D01*
X007674Y009309D01*
X007477Y009309D01*
X007294Y009234D01*
X007202Y009142D02*
X005220Y009142D01*
X005379Y009300D02*
X007455Y009300D01*
X007697Y009300D02*
X013955Y009300D01*
X013948Y009318D02*
X014005Y009179D01*
X014111Y009073D01*
X014250Y009015D01*
X014401Y009015D01*
X014540Y009073D01*
X014646Y009179D01*
X014704Y009318D01*
X014704Y009469D01*
X014646Y009607D01*
X014586Y009668D01*
X014586Y011369D01*
X014646Y011429D01*
X014704Y011568D01*
X014704Y011719D01*
X014646Y011857D01*
X014540Y011964D01*
X014401Y012021D01*
X014250Y012021D01*
X014111Y011964D01*
X014005Y011857D01*
X013948Y011719D01*
X013948Y011568D01*
X014005Y011429D01*
X014066Y011369D01*
X014066Y009668D01*
X014005Y009607D01*
X013948Y009469D01*
X013948Y009318D01*
X013948Y009459D02*
X012886Y009459D01*
X013001Y009506D02*
X013212Y009718D01*
X013327Y009994D01*
X013327Y010293D01*
X013212Y010569D01*
X013001Y010780D01*
X012725Y010894D01*
X012426Y010894D01*
X012150Y010780D01*
X011939Y010569D01*
X011824Y010293D01*
X011824Y009994D01*
X011939Y009718D01*
X012150Y009506D01*
X012426Y009392D01*
X012725Y009392D01*
X013001Y009506D01*
X013112Y009617D02*
X014015Y009617D01*
X014066Y009776D02*
X013237Y009776D01*
X013302Y009934D02*
X014066Y009934D01*
X014066Y010093D02*
X013327Y010093D01*
X013327Y010251D02*
X014066Y010251D01*
X014066Y010410D02*
X013278Y010410D01*
X013213Y010568D02*
X014066Y010568D01*
X014066Y010727D02*
X013054Y010727D01*
X012747Y010885D02*
X014066Y010885D01*
X014066Y011044D02*
X009673Y011044D01*
X009704Y010885D02*
X012404Y010885D01*
X012097Y010727D02*
X009666Y010727D01*
X009529Y010568D02*
X011939Y010568D01*
X011873Y010410D02*
X008278Y010410D01*
X008327Y010251D02*
X011824Y010251D01*
X011824Y010093D02*
X008327Y010093D01*
X008302Y009934D02*
X011849Y009934D01*
X011915Y009776D02*
X008237Y009776D01*
X008112Y009617D02*
X012039Y009617D01*
X012265Y009459D02*
X007886Y009459D01*
X007949Y009142D02*
X012231Y009142D01*
X012212Y009123D02*
X012168Y009063D01*
X012134Y008996D01*
X012111Y008924D01*
X012099Y008850D01*
X012099Y008831D01*
X012557Y008831D01*
X012557Y008794D01*
X012099Y008794D01*
X012099Y008775D01*
X012111Y008701D01*
X012134Y008630D01*
X012168Y008563D01*
X012212Y008502D01*
X012265Y008449D01*
X012326Y008405D01*
X012344Y008395D01*
X012326Y008386D01*
X012265Y008342D01*
X012212Y008289D01*
X012168Y008228D01*
X012134Y008161D01*
X012111Y008090D01*
X012099Y008015D01*
X012099Y007996D01*
X012557Y007996D01*
X012557Y007960D01*
X012099Y007960D01*
X012099Y007940D01*
X012111Y007866D01*
X012134Y007795D01*
X012168Y007728D01*
X012212Y007667D01*
X012236Y007643D01*
X012212Y007619D01*
X012168Y007559D01*
X012134Y007492D01*
X012111Y007420D01*
X012099Y007346D01*
X012099Y007327D01*
X012557Y007327D01*
X012557Y007290D01*
X012099Y007290D01*
X012099Y007271D01*
X012111Y007197D01*
X012134Y007126D01*
X012168Y007059D01*
X012212Y006998D01*
X012265Y006945D01*
X012319Y006906D01*
X012294Y006895D01*
X012154Y006755D01*
X012079Y006573D01*
X012079Y006375D01*
X012154Y006193D01*
X012294Y006053D01*
X012477Y005977D01*
X012674Y005977D01*
X012857Y006053D01*
X012997Y006193D01*
X013073Y006375D01*
X013073Y006573D01*
X012997Y006755D01*
X012857Y006895D01*
X012832Y006906D01*
X012886Y006945D01*
X012939Y006998D01*
X012983Y007059D01*
X013018Y007126D01*
X013041Y007197D01*
X013053Y007271D01*
X013053Y007290D01*
X012594Y007290D01*
X012594Y007327D01*
X013053Y007327D01*
X013053Y007346D01*
X013041Y007420D01*
X013018Y007492D01*
X012983Y007559D01*
X012939Y007619D01*
X012915Y007643D01*
X012939Y007667D01*
X012983Y007728D01*
X013018Y007795D01*
X013041Y007866D01*
X013053Y007940D01*
X013053Y007960D01*
X012594Y007960D01*
X012594Y007996D01*
X013053Y007996D01*
X013053Y008015D01*
X013041Y008090D01*
X013018Y008161D01*
X012983Y008228D01*
X012939Y008289D01*
X012886Y008342D01*
X012826Y008386D01*
X012807Y008395D01*
X012826Y008405D01*
X012886Y008449D01*
X012939Y008502D01*
X012983Y008563D01*
X013018Y008630D01*
X013041Y008701D01*
X013053Y008775D01*
X013053Y008794D01*
X012594Y008794D01*
X012594Y007996D01*
X012557Y007996D01*
X012557Y008336D01*
X012557Y008794D01*
X012594Y008794D01*
X012594Y008831D01*
X012557Y008831D01*
X012557Y009289D01*
X012538Y009289D01*
X012464Y009278D01*
X012393Y009255D01*
X012326Y009220D01*
X012265Y009176D01*
X012212Y009123D01*
X012130Y008983D02*
X008043Y008983D01*
X008073Y008825D02*
X012557Y008825D01*
X012594Y008825D02*
X017079Y008825D01*
X017079Y008911D02*
X017079Y008714D01*
X017154Y008531D01*
X017294Y008391D01*
X017319Y008381D01*
X017265Y008342D01*
X017212Y008289D01*
X017168Y008228D01*
X017134Y008161D01*
X017111Y008090D01*
X017099Y008015D01*
X017099Y007996D01*
X017557Y007996D01*
X017557Y007960D01*
X017099Y007960D01*
X017099Y007940D01*
X017111Y007866D01*
X017134Y007795D01*
X017168Y007728D01*
X017212Y007667D01*
X017236Y007643D01*
X017212Y007619D01*
X017168Y007559D01*
X017134Y007492D01*
X017111Y007420D01*
X017099Y007346D01*
X017099Y007327D01*
X017557Y007327D01*
X017557Y007290D01*
X017099Y007290D01*
X017099Y007271D01*
X017111Y007197D01*
X017134Y007126D01*
X017168Y007059D01*
X017212Y006998D01*
X017265Y006945D01*
X017319Y006906D01*
X017294Y006895D01*
X017154Y006755D01*
X017079Y006573D01*
X017079Y006375D01*
X017154Y006193D01*
X017294Y006053D01*
X017477Y005977D01*
X017674Y005977D01*
X017857Y006053D01*
X017997Y006193D01*
X018073Y006375D01*
X018073Y006573D01*
X017997Y006755D01*
X017857Y006895D01*
X017832Y006906D01*
X017886Y006945D01*
X017939Y006998D01*
X017983Y007059D01*
X018018Y007126D01*
X018041Y007197D01*
X018053Y007271D01*
X018053Y007290D01*
X017594Y007290D01*
X017594Y007327D01*
X018053Y007327D01*
X018053Y007346D01*
X018041Y007420D01*
X018018Y007492D01*
X017983Y007559D01*
X017939Y007619D01*
X017915Y007643D01*
X017939Y007667D01*
X017983Y007728D01*
X018018Y007795D01*
X018041Y007866D01*
X018053Y007940D01*
X018053Y007960D01*
X017594Y007960D01*
X017594Y007996D01*
X018053Y007996D01*
X018053Y008015D01*
X018041Y008090D01*
X018018Y008161D01*
X017983Y008228D01*
X017939Y008289D01*
X017886Y008342D01*
X017832Y008381D01*
X017857Y008391D01*
X017997Y008531D01*
X018073Y008714D01*
X018073Y008911D01*
X017997Y009094D01*
X017857Y009234D01*
X017674Y009309D01*
X017477Y009309D01*
X017294Y009234D01*
X017154Y009094D01*
X017079Y008911D01*
X017109Y008983D02*
X013022Y008983D01*
X013018Y008996D02*
X012983Y009063D01*
X012939Y009123D01*
X012886Y009176D01*
X012826Y009220D01*
X012759Y009255D01*
X012687Y009278D01*
X012613Y009289D01*
X012594Y009289D01*
X012594Y008831D01*
X013053Y008831D01*
X013053Y008850D01*
X013041Y008924D01*
X013018Y008996D01*
X012921Y009142D02*
X014042Y009142D01*
X014609Y009142D02*
X017202Y009142D01*
X017455Y009300D02*
X014696Y009300D01*
X014704Y009459D02*
X017265Y009459D01*
X017150Y009506D02*
X017426Y009392D01*
X017725Y009392D01*
X018001Y009506D01*
X018212Y009718D01*
X018327Y009994D01*
X018327Y010293D01*
X018212Y010569D01*
X018001Y010780D01*
X017725Y010894D01*
X017426Y010894D01*
X017150Y010780D01*
X016939Y010569D01*
X016824Y010293D01*
X016824Y009994D01*
X016939Y009718D01*
X017150Y009506D01*
X017039Y009617D02*
X014636Y009617D01*
X014586Y009776D02*
X016915Y009776D01*
X016849Y009934D02*
X014586Y009934D01*
X014586Y010093D02*
X016824Y010093D01*
X016824Y010251D02*
X014586Y010251D01*
X014586Y010410D02*
X016873Y010410D01*
X016939Y010568D02*
X014586Y010568D01*
X014586Y010727D02*
X017097Y010727D01*
X017404Y010885D02*
X014586Y010885D01*
X014586Y011044D02*
X018566Y011044D01*
X018566Y011202D02*
X014586Y011202D01*
X014586Y011361D02*
X018566Y011361D01*
X018566Y011519D02*
X014684Y011519D01*
X014704Y011678D02*
X017276Y011678D01*
X017139Y011836D02*
X014655Y011836D01*
X014465Y011995D02*
X017079Y011995D01*
X017079Y012153D02*
X013073Y012153D01*
X013073Y012179D02*
X012997Y012362D01*
X012857Y012502D01*
X012674Y012577D01*
X012477Y012577D01*
X012294Y012502D01*
X012154Y012362D01*
X012079Y012179D01*
X012079Y011981D01*
X012154Y011799D01*
X012294Y011659D01*
X012477Y011583D01*
X012674Y011583D01*
X012857Y011659D01*
X012997Y011799D01*
X013073Y011981D01*
X013073Y012179D01*
X013018Y012312D02*
X017134Y012312D01*
X017263Y012470D02*
X014007Y012470D01*
X014086Y012503D02*
X013917Y012433D01*
X013734Y012433D01*
X013565Y012503D01*
X013436Y012633D01*
X013366Y012802D01*
X013366Y012985D01*
X013436Y013154D01*
X013565Y013283D01*
X013734Y013353D01*
X013917Y013353D01*
X014086Y013283D01*
X014216Y013154D01*
X014286Y012985D01*
X014286Y012802D01*
X014216Y012633D01*
X014086Y012503D01*
X014212Y012629D02*
X017250Y012629D01*
X017138Y012787D02*
X014280Y012787D01*
X014286Y012946D02*
X017099Y012946D01*
X017115Y013104D02*
X014236Y013104D01*
X014107Y013263D02*
X017193Y013263D01*
X017303Y013421D02*
X007848Y013421D01*
X007958Y013263D02*
X010545Y013263D01*
X010565Y013283D02*
X010436Y013154D01*
X010366Y012985D01*
X010366Y012802D01*
X010436Y012633D01*
X010565Y012503D01*
X010734Y012433D01*
X010917Y012433D01*
X011086Y012503D01*
X011216Y012633D01*
X011286Y012802D01*
X011286Y012985D01*
X011216Y013154D01*
X011086Y013283D01*
X010917Y013353D01*
X010734Y013353D01*
X010565Y013283D01*
X010415Y013104D02*
X008036Y013104D01*
X008053Y012946D02*
X010366Y012946D01*
X010372Y012787D02*
X008014Y012787D01*
X007901Y012629D02*
X010440Y012629D01*
X010645Y012470D02*
X007888Y012470D01*
X008018Y012312D02*
X012134Y012312D01*
X012079Y012153D02*
X008073Y012153D01*
X008073Y011995D02*
X012079Y011995D01*
X012139Y011836D02*
X008187Y011836D01*
X008346Y011678D02*
X012276Y011678D01*
X012263Y012470D02*
X011007Y012470D01*
X011212Y012629D02*
X013440Y012629D01*
X013372Y012787D02*
X011280Y012787D01*
X011286Y012946D02*
X013366Y012946D01*
X013415Y013104D02*
X011236Y013104D01*
X011107Y013263D02*
X013545Y013263D01*
X013163Y013580D02*
X017159Y013580D01*
X017105Y013738D02*
X013259Y013738D01*
X013286Y013897D02*
X017106Y013897D01*
X017111Y013924D02*
X017099Y013850D01*
X017099Y013831D01*
X017557Y013831D01*
X017557Y014289D01*
X017538Y014289D01*
X017464Y014278D01*
X017393Y014255D01*
X017326Y014220D01*
X017265Y014176D01*
X017212Y014123D01*
X017168Y014063D01*
X017134Y013996D01*
X017111Y013924D01*
X017164Y014055D02*
X013256Y014055D01*
X013156Y014214D02*
X017317Y014214D01*
X017557Y014214D02*
X017594Y014214D01*
X017594Y014055D02*
X017557Y014055D01*
X017557Y013897D02*
X017594Y013897D01*
X017594Y013738D02*
X017557Y013738D01*
X017557Y013580D02*
X017594Y013580D01*
X017594Y013421D02*
X017557Y013421D01*
X017557Y013263D02*
X017594Y013263D01*
X017594Y013104D02*
X017557Y013104D01*
X017848Y013421D02*
X020606Y013421D01*
X020606Y013485D02*
X020606Y013302D01*
X020676Y013133D01*
X020805Y013003D01*
X020974Y012933D01*
X021677Y012933D01*
X021846Y013003D01*
X021976Y013133D01*
X022046Y013302D01*
X022046Y013485D01*
X021976Y013654D01*
X021846Y013783D01*
X021677Y013853D01*
X020974Y013853D01*
X020805Y013783D01*
X020676Y013654D01*
X020606Y013485D01*
X020645Y013580D02*
X017992Y013580D01*
X018047Y013738D02*
X020760Y013738D01*
X020782Y014055D02*
X017987Y014055D01*
X018045Y013897D02*
X022179Y013897D01*
X022179Y014055D02*
X021869Y014055D01*
X021988Y014214D02*
X022179Y014214D01*
X022179Y014372D02*
X022026Y014372D01*
X022004Y014531D02*
X022179Y014531D01*
X022179Y014689D02*
X021912Y014689D01*
X022179Y014848D02*
X020286Y014848D01*
X020277Y015006D02*
X022179Y015006D01*
X022179Y015165D02*
X020205Y015165D01*
X020156Y015323D02*
X020495Y015323D01*
X020436Y015383D02*
X020565Y015253D01*
X020734Y015183D01*
X020917Y015183D01*
X021086Y015253D01*
X021216Y015383D01*
X021286Y015552D01*
X021286Y015735D01*
X021216Y015904D01*
X021086Y016033D01*
X020917Y016103D01*
X020734Y016103D01*
X020565Y016033D01*
X020436Y015904D01*
X020366Y015735D01*
X020366Y015552D01*
X020436Y015383D01*
X020395Y015482D02*
X020257Y015482D01*
X020286Y015640D02*
X020366Y015640D01*
X020392Y015799D02*
X020259Y015799D01*
X020162Y015957D02*
X020489Y015957D01*
X020897Y014801D02*
X020963Y014822D01*
X021031Y014833D01*
X021326Y014833D01*
X021326Y014393D01*
X021326Y014393D01*
X021326Y014393D01*
X020626Y014393D01*
X020626Y014428D01*
X020636Y014496D01*
X020658Y014562D01*
X020689Y014624D01*
X020730Y014680D01*
X020779Y014729D01*
X020835Y014770D01*
X020897Y014801D01*
X020739Y014689D02*
X020239Y014689D01*
X020114Y014531D02*
X020648Y014531D01*
X021326Y014531D02*
X021326Y014531D01*
X021326Y014689D02*
X021326Y014689D01*
X021326Y014372D02*
X021326Y014372D01*
X021326Y014214D02*
X021326Y014214D01*
X021326Y014055D02*
X021326Y014055D01*
X021723Y015214D02*
X021791Y015203D01*
X021826Y015203D01*
X021826Y015643D01*
X021826Y015643D01*
X021386Y015643D01*
X021386Y015609D01*
X021396Y015540D01*
X021418Y015474D01*
X021449Y015413D01*
X021490Y015357D01*
X021539Y015308D01*
X021595Y015267D01*
X021657Y015236D01*
X021723Y015214D01*
X021826Y015323D02*
X021826Y015323D01*
X021826Y015482D02*
X021826Y015482D01*
X021826Y015640D02*
X021826Y015640D01*
X021826Y015643D02*
X021826Y015643D01*
X021826Y015643D01*
X021386Y015643D01*
X021386Y015678D01*
X021396Y015746D01*
X021418Y015812D01*
X021449Y015874D01*
X021490Y015930D01*
X021539Y015979D01*
X021595Y016020D01*
X021657Y016051D01*
X021723Y016072D01*
X021791Y016083D01*
X021826Y016083D01*
X021826Y015643D01*
X021826Y015799D02*
X021826Y015799D01*
X021826Y015957D02*
X021826Y015957D01*
X022134Y015957D02*
X022179Y015957D01*
X022179Y015323D02*
X022128Y015323D01*
X021523Y015323D02*
X021156Y015323D01*
X021257Y015482D02*
X021415Y015482D01*
X021386Y015640D02*
X021286Y015640D01*
X021259Y015799D02*
X021414Y015799D01*
X021517Y015957D02*
X021162Y015957D01*
X021891Y013738D02*
X022179Y013738D01*
X022179Y013580D02*
X022006Y013580D01*
X022046Y013421D02*
X022179Y013421D01*
X022179Y013263D02*
X022030Y013263D01*
X021947Y013104D02*
X022179Y013104D01*
X022179Y012946D02*
X021707Y012946D01*
X021677Y012853D02*
X021846Y012783D01*
X021976Y012654D01*
X022046Y012485D01*
X022046Y012302D01*
X021976Y012133D01*
X021846Y012003D01*
X021677Y011933D01*
X021233Y011933D01*
X021086Y011786D01*
X021086Y009534D01*
X021086Y009533D01*
X021216Y009404D01*
X021286Y009235D01*
X021286Y009052D01*
X021216Y008883D01*
X021086Y008753D01*
X020917Y008683D01*
X020734Y008683D01*
X020565Y008753D01*
X020436Y008883D01*
X020366Y009052D01*
X020366Y009235D01*
X020436Y009404D01*
X020565Y009533D01*
X020566Y009534D01*
X020566Y011945D01*
X020605Y012041D01*
X020678Y012114D01*
X020687Y012122D01*
X020676Y012133D01*
X020606Y012302D01*
X020606Y012485D01*
X020676Y012654D01*
X020805Y012783D01*
X020974Y012853D01*
X021677Y012853D01*
X021836Y012787D02*
X022179Y012787D01*
X022179Y012629D02*
X021986Y012629D01*
X022046Y012470D02*
X022179Y012470D01*
X022179Y012312D02*
X022046Y012312D01*
X021984Y012153D02*
X022179Y012153D01*
X022179Y011995D02*
X021826Y011995D01*
X022179Y011836D02*
X021136Y011836D01*
X021086Y011678D02*
X022179Y011678D01*
X022179Y011519D02*
X021086Y011519D01*
X021086Y011361D02*
X022179Y011361D01*
X022167Y011202D02*
X022179Y011202D01*
X022151Y010568D02*
X022179Y010568D01*
X022179Y010410D02*
X021086Y010410D01*
X021086Y010568D02*
X021500Y010568D01*
X021397Y010727D02*
X021086Y010727D01*
X021086Y010885D02*
X021366Y010885D01*
X021390Y011044D02*
X021086Y011044D01*
X021086Y011202D02*
X021484Y011202D01*
X021086Y010251D02*
X022179Y010251D01*
X022179Y010093D02*
X021086Y010093D01*
X021086Y009934D02*
X022179Y009934D01*
X022179Y009776D02*
X021086Y009776D01*
X021086Y009617D02*
X022179Y009617D01*
X022179Y009459D02*
X021161Y009459D01*
X021259Y009300D02*
X022179Y009300D01*
X022179Y009142D02*
X021286Y009142D01*
X021257Y008983D02*
X022179Y008983D01*
X022179Y008825D02*
X021158Y008825D01*
X021473Y008191D02*
X019086Y008191D01*
X019086Y008349D02*
X021725Y008349D01*
X021927Y008349D02*
X022179Y008349D01*
X022179Y008508D02*
X019086Y008508D01*
X019086Y008666D02*
X022179Y008666D01*
X021385Y008032D02*
X019086Y008032D01*
X019086Y007874D02*
X021366Y007874D01*
X021401Y007715D02*
X019086Y007715D01*
X019086Y007557D02*
X021512Y007557D01*
X021433Y007398D02*
X019086Y007398D01*
X019086Y007240D02*
X021368Y007240D01*
X021366Y007081D02*
X019086Y007081D01*
X019086Y006923D02*
X021419Y006923D01*
X021554Y006764D02*
X019086Y006764D01*
X019086Y006606D02*
X022179Y006606D01*
X022179Y006764D02*
X022097Y006764D01*
X022179Y006447D02*
X021172Y006447D01*
X021216Y006404D02*
X021086Y006533D01*
X020917Y006603D01*
X020734Y006603D01*
X020565Y006533D01*
X020436Y006404D01*
X020366Y006235D01*
X020366Y006052D01*
X020436Y005883D01*
X020565Y005753D01*
X020734Y005683D01*
X020917Y005683D01*
X021086Y005753D01*
X021216Y005883D01*
X021286Y006052D01*
X021286Y006235D01*
X021216Y006404D01*
X021263Y006289D02*
X022179Y006289D01*
X022179Y006130D02*
X021286Y006130D01*
X021253Y005972D02*
X022179Y005972D01*
X022179Y005813D02*
X021146Y005813D01*
X020505Y005813D02*
X020146Y005813D01*
X020086Y005753D02*
X020216Y005883D01*
X020286Y006052D01*
X020286Y006235D01*
X020216Y006404D01*
X020086Y006533D01*
X019917Y006603D01*
X019734Y006603D01*
X019565Y006533D01*
X019436Y006404D01*
X019366Y006235D01*
X019366Y006052D01*
X019436Y005883D01*
X019565Y005753D01*
X019734Y005683D01*
X019917Y005683D01*
X020086Y005753D01*
X020253Y005972D02*
X020399Y005972D01*
X020366Y006130D02*
X020286Y006130D01*
X020263Y006289D02*
X020388Y006289D01*
X020479Y006447D02*
X020172Y006447D01*
X019479Y006447D02*
X019086Y006447D01*
X019086Y006289D02*
X019388Y006289D01*
X019366Y006130D02*
X019086Y006130D01*
X019086Y005972D02*
X019399Y005972D01*
X019505Y005813D02*
X019086Y005813D01*
X019086Y005655D02*
X022179Y005655D01*
X022179Y005496D02*
X019086Y005496D01*
X019086Y005338D02*
X022179Y005338D01*
X022179Y005179D02*
X019086Y005179D01*
X019086Y005021D02*
X022179Y005021D01*
X022179Y004862D02*
X019086Y004862D01*
X019086Y004704D02*
X022179Y004704D01*
X022179Y004545D02*
X022006Y004545D01*
X021826Y004545D02*
X021826Y004545D01*
X021826Y004583D02*
X021791Y004583D01*
X021723Y004572D01*
X021657Y004551D01*
X021595Y004520D01*
X021539Y004479D01*
X021490Y004430D01*
X021449Y004374D01*
X021418Y004312D01*
X021396Y004246D01*
X021386Y004178D01*
X021386Y004143D01*
X021386Y004109D01*
X021396Y004040D01*
X021418Y003974D01*
X021449Y003913D01*
X021490Y003857D01*
X021539Y003808D01*
X021595Y003767D01*
X021657Y003736D01*
X021723Y003714D01*
X021791Y003703D01*
X021826Y003703D01*
X021826Y004143D01*
X021826Y004143D01*
X021386Y004143D01*
X021826Y004143D01*
X021826Y004143D01*
X021826Y004143D01*
X021826Y004583D01*
X021645Y004545D02*
X019086Y004545D01*
X019086Y004387D02*
X021459Y004387D01*
X021394Y004228D02*
X019086Y004228D01*
X019086Y004070D02*
X021392Y004070D01*
X021450Y003911D02*
X019086Y003911D01*
X019086Y003753D02*
X021623Y003753D01*
X021826Y003753D02*
X021826Y003753D01*
X021826Y003911D02*
X021826Y003911D01*
X021826Y004070D02*
X021826Y004070D01*
X021826Y004228D02*
X021826Y004228D01*
X021826Y004387D02*
X021826Y004387D01*
X022028Y003753D02*
X022179Y003753D01*
X022179Y003594D02*
X019086Y003594D01*
X018986Y003436D02*
X022179Y003436D01*
X022179Y003277D02*
X018827Y003277D01*
X018973Y003423D02*
X018973Y003423D01*
X018669Y003119D02*
X022179Y003119D01*
X022179Y002960D02*
X018474Y002960D01*
X018409Y003594D02*
X017890Y003594D01*
X017261Y003594D02*
X013586Y003594D01*
X013586Y003753D02*
X018566Y003753D01*
X018566Y003911D02*
X013586Y003911D01*
X013783Y004070D02*
X018566Y004070D01*
X018566Y004228D02*
X013917Y004228D01*
X013954Y004387D02*
X018566Y004387D01*
X018566Y004545D02*
X018040Y004545D01*
X018001Y004506D02*
X018212Y004718D01*
X018327Y004994D01*
X018327Y005293D01*
X018212Y005569D01*
X018001Y005780D01*
X017725Y005894D01*
X017426Y005894D01*
X017150Y005780D01*
X016939Y005569D01*
X016824Y005293D01*
X016824Y004994D01*
X016939Y004718D01*
X017150Y004506D01*
X017426Y004392D01*
X017725Y004392D01*
X018001Y004506D01*
X018198Y004704D02*
X018566Y004704D01*
X018566Y004862D02*
X018272Y004862D01*
X018327Y005021D02*
X018566Y005021D01*
X018566Y005179D02*
X018327Y005179D01*
X018308Y005338D02*
X018566Y005338D01*
X018566Y005496D02*
X018243Y005496D01*
X018126Y005655D02*
X018566Y005655D01*
X018566Y005813D02*
X017921Y005813D01*
X017935Y006130D02*
X018566Y006130D01*
X018566Y005972D02*
X002894Y005972D01*
X002894Y006130D02*
X007217Y006130D01*
X007115Y006289D02*
X002894Y006289D01*
X002894Y006447D02*
X007079Y006447D01*
X007092Y006606D02*
X005570Y006606D01*
X005781Y006764D02*
X007163Y006764D01*
X007295Y006923D02*
X005873Y006923D01*
X005916Y007081D02*
X007156Y007081D01*
X007104Y007240D02*
X005916Y007240D01*
X005859Y007398D02*
X007107Y007398D01*
X007167Y007557D02*
X005747Y007557D01*
X005486Y007715D02*
X007177Y007715D01*
X007109Y007874D02*
X005081Y007874D01*
X005146Y008032D02*
X007101Y008032D01*
X007149Y008191D02*
X005146Y008191D01*
X005107Y008349D02*
X007276Y008349D01*
X007178Y008508D02*
X005017Y008508D01*
X004802Y008666D02*
X007098Y008666D01*
X007079Y008825D02*
X004153Y008825D01*
X003995Y008666D02*
X004349Y008666D01*
X004134Y008508D02*
X003836Y008508D01*
X003857Y008349D02*
X004044Y008349D01*
X004006Y008191D02*
X003896Y008191D01*
X003896Y008032D02*
X004006Y008032D01*
X004070Y007874D02*
X003831Y007874D01*
X003704Y007715D02*
X004165Y007715D01*
X003905Y007557D02*
X003747Y007557D01*
X003326Y008143D02*
X003326Y008393D01*
X004076Y009143D01*
X004826Y009143D01*
X006076Y010393D01*
X006076Y020643D01*
X006326Y020893D01*
X006326Y022393D01*
X006597Y022773D02*
X009101Y022773D01*
X009095Y022770D02*
X009039Y022729D01*
X008990Y022680D01*
X008949Y022624D01*
X008918Y022562D01*
X008896Y022496D01*
X008886Y022428D01*
X008886Y022393D01*
X008886Y022359D01*
X008896Y022290D01*
X008918Y022224D01*
X008949Y022163D01*
X008990Y022107D01*
X009039Y022058D01*
X009095Y022017D01*
X009157Y021986D01*
X009223Y021964D01*
X009291Y021953D01*
X009326Y021953D01*
X009360Y021953D01*
X009429Y021964D01*
X009495Y021986D01*
X009556Y022017D01*
X009612Y022058D01*
X009661Y022107D01*
X009702Y022163D01*
X009733Y022224D01*
X009755Y022290D01*
X009766Y022359D01*
X009766Y022393D01*
X009326Y022393D01*
X009326Y022393D01*
X009326Y021953D01*
X009326Y022393D01*
X009326Y022393D01*
X009766Y022393D01*
X009766Y022428D01*
X009755Y022496D01*
X009733Y022562D01*
X009702Y022624D01*
X009661Y022680D01*
X009612Y022729D01*
X009556Y022770D01*
X009495Y022801D01*
X009429Y022822D01*
X009360Y022833D01*
X009326Y022833D01*
X009326Y022393D01*
X008886Y022393D01*
X009326Y022393D01*
X009326Y022393D01*
X009326Y022393D01*
X009326Y022833D01*
X009291Y022833D01*
X009223Y022822D01*
X009157Y022801D01*
X009095Y022770D01*
X008944Y022614D02*
X006732Y022614D01*
X006786Y022456D02*
X008890Y022456D01*
X008895Y022297D02*
X006784Y022297D01*
X006718Y022139D02*
X008967Y022139D01*
X009173Y021980D02*
X006606Y021980D01*
X006606Y021822D02*
X011745Y021822D01*
X011743Y021980D02*
X009479Y021980D01*
X009326Y021980D02*
X009326Y021980D01*
X009326Y022139D02*
X009326Y022139D01*
X009326Y022297D02*
X009326Y022297D01*
X009326Y022456D02*
X009326Y022456D01*
X009326Y022614D02*
X009326Y022614D01*
X009326Y022773D02*
X009326Y022773D01*
X009550Y022773D02*
X010796Y022773D01*
X010666Y022931D02*
X002894Y022931D01*
X002894Y022773D02*
X006055Y022773D01*
X005919Y022614D02*
X005668Y022614D01*
X005819Y022456D02*
X005866Y022456D01*
X005901Y022139D02*
X005933Y022139D01*
X005881Y021980D02*
X006046Y021980D01*
X006046Y021822D02*
X005815Y021822D01*
X005659Y021663D02*
X006046Y021663D01*
X006046Y021505D02*
X002894Y021505D01*
X002894Y021663D02*
X003045Y021663D01*
X003326Y021663D02*
X003326Y021663D01*
X003326Y021822D02*
X003326Y021822D01*
X003326Y021980D02*
X003326Y021980D01*
X003326Y022139D02*
X003326Y022139D01*
X003326Y022297D02*
X003326Y022297D01*
X003326Y022456D02*
X003326Y022456D01*
X003326Y022614D02*
X003326Y022614D01*
X003622Y022614D02*
X004984Y022614D01*
X004833Y022456D02*
X003785Y022456D01*
X003859Y022297D02*
X004767Y022297D01*
X004751Y022139D02*
X003881Y022139D01*
X003856Y021980D02*
X004771Y021980D01*
X004836Y021822D02*
X003778Y021822D01*
X003606Y021663D02*
X004992Y021663D01*
X004939Y020463D02*
X004712Y020463D01*
X004503Y020377D01*
X004342Y020216D01*
X004326Y020176D01*
X004309Y020216D01*
X004149Y020377D01*
X003939Y020463D01*
X003712Y020463D01*
X003503Y020377D01*
X003342Y020216D01*
X003256Y020007D01*
X003256Y019780D01*
X003342Y019570D01*
X003503Y019410D01*
X003543Y019393D01*
X003503Y019377D01*
X003342Y019216D01*
X003256Y019007D01*
X003256Y018780D01*
X003342Y018570D01*
X003503Y018410D01*
X003543Y018393D01*
X003503Y018377D01*
X003342Y018216D01*
X003256Y018007D01*
X003256Y017780D01*
X003342Y017570D01*
X003503Y017410D01*
X003543Y017393D01*
X003503Y017377D01*
X003342Y017216D01*
X003256Y017007D01*
X003256Y016780D01*
X003342Y016570D01*
X003503Y016410D01*
X003572Y016381D01*
X003537Y016364D01*
X003467Y016313D01*
X003406Y016252D01*
X003355Y016182D01*
X003316Y016104D01*
X003289Y016022D01*
X003276Y015937D01*
X003276Y015913D01*
X003806Y015913D01*
X003806Y015873D01*
X003846Y015873D01*
X003846Y015913D01*
X004376Y015913D01*
X004806Y015913D01*
X004806Y015873D01*
X004846Y015873D01*
X004846Y015913D01*
X005376Y015913D01*
X005376Y015937D01*
X005362Y016022D01*
X005335Y016104D01*
X005296Y016182D01*
X005245Y016252D01*
X005184Y016313D01*
X005114Y016364D01*
X005079Y016381D01*
X005149Y016410D01*
X005309Y016570D01*
X005396Y016780D01*
X005396Y017007D01*
X005309Y017216D01*
X005149Y017377D01*
X005108Y017393D01*
X005149Y017410D01*
X005309Y017570D01*
X005396Y017780D01*
X005396Y018007D01*
X005309Y018216D01*
X005149Y018377D01*
X005108Y018393D01*
X005149Y018410D01*
X005309Y018570D01*
X005396Y018780D01*
X005396Y019007D01*
X005309Y019216D01*
X005149Y019377D01*
X005108Y019393D01*
X005149Y019410D01*
X005309Y019570D01*
X005396Y019780D01*
X005396Y020007D01*
X005309Y020216D01*
X005149Y020377D01*
X004939Y020463D01*
X005103Y020395D02*
X005796Y020395D01*
X005796Y020237D02*
X005288Y020237D01*
X005366Y020078D02*
X005796Y020078D01*
X005796Y019920D02*
X005396Y019920D01*
X005388Y019761D02*
X005796Y019761D01*
X005796Y019603D02*
X005322Y019603D01*
X005183Y019444D02*
X005796Y019444D01*
X005796Y019286D02*
X005239Y019286D01*
X005346Y019127D02*
X005796Y019127D01*
X005796Y018969D02*
X005396Y018969D01*
X005396Y018810D02*
X005796Y018810D01*
X005796Y018652D02*
X005343Y018652D01*
X005232Y018493D02*
X005796Y018493D01*
X005796Y018335D02*
X005190Y018335D01*
X005325Y018176D02*
X005796Y018176D01*
X005796Y018018D02*
X005391Y018018D01*
X005396Y017859D02*
X005796Y017859D01*
X005796Y017701D02*
X005363Y017701D01*
X005281Y017542D02*
X005796Y017542D01*
X005796Y017384D02*
X005131Y017384D01*
X005300Y017225D02*
X005796Y017225D01*
X005796Y017067D02*
X005371Y017067D01*
X005396Y016908D02*
X005796Y016908D01*
X005796Y016750D02*
X005383Y016750D01*
X005318Y016591D02*
X005796Y016591D01*
X005796Y016433D02*
X005171Y016433D01*
X005222Y016274D02*
X005796Y016274D01*
X005796Y016116D02*
X005330Y016116D01*
X005372Y015957D02*
X005796Y015957D01*
X005796Y015799D02*
X005368Y015799D01*
X005362Y015765D02*
X005376Y015850D01*
X005376Y015873D01*
X004846Y015873D01*
X004846Y015343D01*
X004846Y014913D01*
X005376Y014913D01*
X005376Y014937D01*
X005362Y015022D01*
X005335Y015104D01*
X005296Y015182D01*
X005245Y015252D01*
X005184Y015313D01*
X005114Y015364D01*
X005056Y015393D01*
X005114Y015423D01*
X005184Y015474D01*
X005245Y015535D01*
X005296Y015605D01*
X005335Y015682D01*
X005362Y015765D01*
X005314Y015640D02*
X005796Y015640D01*
X005796Y015482D02*
X005192Y015482D01*
X005170Y015323D02*
X005796Y015323D01*
X005796Y015165D02*
X005305Y015165D01*
X005365Y015006D02*
X005796Y015006D01*
X005796Y014848D02*
X005375Y014848D01*
X005376Y014850D02*
X005376Y014873D01*
X004846Y014873D01*
X004846Y014913D01*
X004806Y014913D01*
X004806Y014873D01*
X004846Y014873D01*
X004846Y014343D01*
X004846Y013913D01*
X005376Y013913D01*
X005376Y013937D01*
X005362Y014022D01*
X005335Y014104D01*
X005296Y014182D01*
X005245Y014252D01*
X005184Y014313D01*
X005114Y014364D01*
X005056Y014393D01*
X005114Y014423D01*
X005184Y014474D01*
X005245Y014535D01*
X005296Y014605D01*
X005335Y014682D01*
X005362Y014765D01*
X005376Y014850D01*
X005338Y014689D02*
X005796Y014689D01*
X005796Y014531D02*
X005241Y014531D01*
X005097Y014372D02*
X005796Y014372D01*
X005796Y014214D02*
X005273Y014214D01*
X005351Y014055D02*
X005796Y014055D01*
X005796Y013897D02*
X004846Y013897D01*
X004846Y013913D02*
X004846Y013873D01*
X005376Y013873D01*
X005376Y013850D01*
X005362Y013765D01*
X005335Y013682D01*
X005296Y013605D01*
X005245Y013535D01*
X005184Y013474D01*
X005114Y013423D01*
X005079Y013405D01*
X005149Y013377D01*
X005309Y013216D01*
X005396Y013007D01*
X005396Y012780D01*
X005309Y012570D01*
X005149Y012410D01*
X004939Y012323D01*
X004712Y012323D01*
X004503Y012410D01*
X004342Y012570D01*
X004326Y012611D01*
X004309Y012570D01*
X004149Y012410D01*
X003939Y012323D01*
X003712Y012323D01*
X003503Y012410D01*
X003342Y012570D01*
X003256Y012780D01*
X003256Y013007D01*
X003342Y013216D01*
X003503Y013377D01*
X003572Y013405D01*
X003537Y013423D01*
X003467Y013474D01*
X003406Y013535D01*
X003355Y013605D01*
X003316Y013682D01*
X003289Y013765D01*
X003276Y013850D01*
X003276Y013873D01*
X003806Y013873D01*
X003806Y013913D01*
X003276Y013913D01*
X003276Y013937D01*
X003289Y014022D01*
X003316Y014104D01*
X003355Y014182D01*
X003406Y014252D01*
X003467Y014313D01*
X003537Y014364D01*
X003595Y014393D01*
X003537Y014423D01*
X003467Y014474D01*
X003406Y014535D01*
X003355Y014605D01*
X003316Y014682D01*
X003289Y014765D01*
X003276Y014850D01*
X003276Y014873D01*
X003806Y014873D01*
X003846Y014873D01*
X003846Y014913D01*
X004376Y014913D01*
X004806Y014913D01*
X004806Y015873D01*
X003846Y015873D01*
X003846Y015343D01*
X003846Y014913D01*
X003806Y014913D01*
X003806Y014873D01*
X003806Y013913D01*
X003846Y013913D01*
X004376Y013913D01*
X004806Y013913D01*
X004806Y014873D01*
X003846Y014873D01*
X003846Y014343D01*
X003846Y013913D01*
X003846Y013873D01*
X004806Y013873D01*
X004806Y013913D01*
X004846Y013913D01*
X004806Y013897D02*
X003846Y013897D01*
X003806Y013897D02*
X002894Y013897D01*
X002894Y014055D02*
X003300Y014055D01*
X003379Y014214D02*
X002894Y014214D01*
X002894Y014372D02*
X003554Y014372D01*
X003410Y014531D02*
X002894Y014531D01*
X002894Y014689D02*
X003314Y014689D01*
X003276Y014848D02*
X002894Y014848D01*
X002894Y015006D02*
X003287Y015006D01*
X003289Y015022D02*
X003276Y014937D01*
X003276Y014913D01*
X003806Y014913D01*
X003806Y015873D01*
X003276Y015873D01*
X003276Y015850D01*
X003289Y015765D01*
X003316Y015682D01*
X003355Y015605D01*
X003406Y015535D01*
X003467Y015474D01*
X003537Y015423D01*
X003595Y015393D01*
X003537Y015364D01*
X003467Y015313D01*
X003406Y015252D01*
X003355Y015182D01*
X003316Y015104D01*
X003289Y015022D01*
X003347Y015165D02*
X002894Y015165D01*
X002894Y015323D02*
X003482Y015323D01*
X003459Y015482D02*
X002894Y015482D01*
X002894Y015640D02*
X003337Y015640D01*
X003284Y015799D02*
X002894Y015799D01*
X002894Y015957D02*
X003279Y015957D01*
X003322Y016116D02*
X002894Y016116D01*
X002894Y016274D02*
X003429Y016274D01*
X003480Y016433D02*
X002894Y016433D01*
X002894Y016591D02*
X003334Y016591D01*
X003268Y016750D02*
X002894Y016750D01*
X002894Y016908D02*
X003256Y016908D01*
X003281Y017067D02*
X002894Y017067D01*
X002894Y017225D02*
X003352Y017225D01*
X003520Y017384D02*
X002894Y017384D01*
X002894Y017542D02*
X003371Y017542D01*
X003288Y017701D02*
X002894Y017701D01*
X002894Y017859D02*
X003256Y017859D01*
X003260Y018018D02*
X002894Y018018D01*
X002894Y018176D02*
X003326Y018176D01*
X003461Y018335D02*
X002894Y018335D01*
X002894Y018493D02*
X003420Y018493D01*
X003309Y018652D02*
X002894Y018652D01*
X002894Y018810D02*
X003256Y018810D01*
X003256Y018969D02*
X002894Y018969D01*
X002894Y019127D02*
X003306Y019127D01*
X003412Y019286D02*
X002894Y019286D01*
X002894Y019444D02*
X003469Y019444D01*
X003329Y019603D02*
X002894Y019603D01*
X002894Y019761D02*
X003263Y019761D01*
X003256Y019920D02*
X002894Y019920D01*
X002894Y020078D02*
X003285Y020078D01*
X003363Y020237D02*
X002894Y020237D01*
X002894Y020395D02*
X003548Y020395D01*
X004103Y020395D02*
X004548Y020395D01*
X004363Y020237D02*
X004288Y020237D01*
X002894Y020554D02*
X005796Y020554D01*
X005801Y020712D02*
X002894Y020712D01*
X002894Y020871D02*
X005907Y020871D01*
X006046Y021029D02*
X002894Y021029D01*
X002894Y021188D02*
X006046Y021188D01*
X006046Y021346D02*
X002894Y021346D01*
X002894Y022614D02*
X003030Y022614D01*
X002894Y023090D02*
X006007Y023090D01*
X005990Y023107D02*
X006039Y023058D01*
X006095Y023017D01*
X006157Y022986D01*
X006223Y022964D01*
X006291Y022953D01*
X006326Y022953D01*
X006360Y022953D01*
X006429Y022964D01*
X006495Y022986D01*
X006556Y023017D01*
X006612Y023058D01*
X006661Y023107D01*
X006702Y023163D01*
X006733Y023224D01*
X006755Y023290D01*
X006766Y023359D01*
X006766Y023393D01*
X006326Y023393D01*
X006326Y023393D01*
X006326Y022953D01*
X006326Y023393D01*
X006326Y023393D01*
X006766Y023393D01*
X006766Y023428D01*
X006755Y023496D01*
X006733Y023562D01*
X006702Y023624D01*
X006661Y023680D01*
X006612Y023729D01*
X006556Y023770D01*
X006495Y023801D01*
X006429Y023822D01*
X006360Y023833D01*
X006326Y023833D01*
X006326Y023393D01*
X005886Y023393D01*
X005886Y023359D01*
X005896Y023290D01*
X005918Y023224D01*
X005949Y023163D01*
X005990Y023107D01*
X005910Y023248D02*
X002894Y023248D01*
X002894Y023407D02*
X005886Y023407D01*
X005886Y023393D02*
X006326Y023393D01*
X006326Y023393D01*
X006326Y023393D01*
X006326Y023833D01*
X006291Y023833D01*
X006223Y023822D01*
X006157Y023801D01*
X006095Y023770D01*
X006039Y023729D01*
X005990Y023680D01*
X005949Y023624D01*
X005918Y023562D01*
X005896Y023496D01*
X005886Y023428D01*
X005886Y023393D01*
X005919Y023565D02*
X002894Y023565D01*
X002894Y023724D02*
X006034Y023724D01*
X006326Y023724D02*
X006326Y023724D01*
X006326Y023565D02*
X006326Y023565D01*
X006326Y023407D02*
X006326Y023407D01*
X006326Y023248D02*
X006326Y023248D01*
X006326Y023090D02*
X006326Y023090D01*
X006644Y023090D02*
X008979Y023090D01*
X008888Y023248D02*
X006741Y023248D01*
X006766Y023407D02*
X008866Y023407D01*
X008899Y023565D02*
X006732Y023565D01*
X006617Y023724D02*
X009006Y023724D01*
X009028Y024041D02*
X006624Y024041D01*
X006743Y024199D02*
X008908Y024199D01*
X008866Y024358D02*
X006786Y024358D01*
X006773Y024516D02*
X008879Y024516D01*
X008957Y024675D02*
X006695Y024675D01*
X006028Y024041D02*
X005624Y024041D01*
X005186Y024833D02*
X004465Y024833D01*
X004695Y024675D02*
X004957Y024675D01*
X004879Y024516D02*
X004773Y024516D01*
X004786Y024358D02*
X004866Y024358D01*
X004908Y024199D02*
X004743Y024199D01*
X004624Y024041D02*
X005028Y024041D01*
X004186Y024833D02*
X003215Y024833D01*
X003445Y024675D02*
X003957Y024675D01*
X004028Y024041D02*
X003374Y024041D01*
X003466Y024133D02*
X003466Y024133D01*
X002894Y023882D02*
X009447Y023882D01*
X009865Y023565D02*
X010879Y023565D01*
X010737Y023724D02*
X010024Y023724D01*
X010086Y023882D02*
X010698Y023882D01*
X010728Y024041D02*
X010086Y024041D01*
X010086Y024199D02*
X010847Y024199D01*
X010582Y024833D02*
X011616Y024833D01*
X011616Y024800D02*
X011733Y024683D01*
X012419Y024683D01*
X012536Y024800D01*
X012536Y025486D01*
X012419Y025603D01*
X011733Y025603D01*
X011616Y025486D01*
X011616Y024800D01*
X011616Y024992D02*
X010586Y024992D01*
X010586Y025150D02*
X011616Y025150D01*
X011616Y025309D02*
X010586Y025309D01*
X010586Y025467D02*
X011616Y025467D01*
X010810Y026260D02*
X014157Y026260D01*
X014029Y026101D02*
X010651Y026101D01*
X010586Y025943D02*
X013981Y025943D01*
X013988Y025784D02*
X010586Y025784D01*
X010586Y025626D02*
X014058Y025626D01*
X014267Y025467D02*
X013402Y025467D01*
X013466Y025404D02*
X013336Y025533D01*
X013167Y025603D01*
X012984Y025603D01*
X012815Y025533D01*
X012686Y025404D01*
X012616Y025235D01*
X012616Y025052D01*
X012686Y024883D01*
X012815Y024753D01*
X012984Y024683D01*
X013167Y024683D01*
X013336Y024753D01*
X013466Y024883D01*
X013536Y025052D01*
X013536Y025235D01*
X013466Y025404D01*
X013505Y025309D02*
X014242Y025309D01*
X014049Y025150D02*
X013536Y025150D01*
X013511Y024992D02*
X013984Y024992D01*
X013981Y024833D02*
X013416Y024833D01*
X014033Y024675D02*
X010475Y024675D01*
X010316Y024516D02*
X014167Y024516D01*
X014296Y024041D02*
X014620Y024041D01*
X014616Y024199D02*
X011304Y024199D01*
X011272Y023565D02*
X013951Y023565D01*
X013723Y023407D02*
X011463Y023407D01*
X011530Y023248D02*
X013647Y023248D01*
X013636Y023143D02*
X014076Y023143D01*
X014076Y022703D01*
X014076Y023143D01*
X014076Y023143D01*
X013636Y023143D01*
X013639Y023090D02*
X011536Y023090D01*
X011486Y022931D02*
X013690Y022931D01*
X013837Y022773D02*
X012871Y022773D01*
X013133Y022614D02*
X019636Y022614D01*
X019578Y022773D02*
X014314Y022773D01*
X014461Y022931D02*
X019420Y022931D01*
X019229Y023090D02*
X014513Y023090D01*
X014076Y023090D02*
X014076Y023090D01*
X014076Y023143D02*
X014076Y023143D01*
X014076Y022931D02*
X014076Y022931D01*
X014076Y022773D02*
X014076Y022773D01*
X013351Y022297D02*
X019491Y022297D01*
X019491Y022139D02*
X013409Y022139D01*
X013409Y021980D02*
X015762Y021980D01*
X015652Y021822D02*
X013406Y021822D01*
X013286Y022456D02*
X019526Y022456D01*
X019491Y021980D02*
X018889Y021980D01*
X019000Y021822D02*
X019491Y021822D01*
X019492Y021663D02*
X019036Y021663D01*
X019016Y021505D02*
X019558Y021505D01*
X019743Y021346D02*
X018929Y021346D01*
X018336Y020533D02*
X018466Y020404D01*
X018536Y020235D01*
X018536Y020052D01*
X018466Y019883D01*
X018336Y019753D01*
X018167Y019683D01*
X017984Y019683D01*
X017815Y019753D01*
X017686Y019883D01*
X017616Y020052D01*
X017616Y020235D01*
X017686Y020404D01*
X017815Y020533D01*
X017984Y020603D01*
X018167Y020603D01*
X018336Y020533D01*
X018287Y020554D02*
X019768Y020554D01*
X019782Y020561D02*
X019720Y020530D01*
X019664Y020489D01*
X019615Y020440D01*
X019574Y020384D01*
X019543Y020322D01*
X019521Y020256D01*
X019511Y020188D01*
X019511Y019893D01*
X019951Y019893D01*
X019951Y019893D01*
X019951Y019893D01*
X019951Y020593D01*
X019916Y020593D01*
X019848Y020582D01*
X019782Y020561D01*
X019951Y020554D02*
X019951Y020554D01*
X019951Y020395D02*
X019951Y020395D01*
X019951Y020237D02*
X019951Y020237D01*
X019951Y020078D02*
X019951Y020078D01*
X019951Y019920D02*
X019951Y019920D01*
X019951Y019761D02*
X019951Y019761D01*
X019951Y019603D02*
X019951Y019603D01*
X019951Y019444D02*
X019951Y019444D01*
X019951Y019286D02*
X019951Y019286D01*
X020151Y018969D02*
X020501Y018969D01*
X020397Y018810D02*
X020254Y018810D01*
X020286Y018652D02*
X020366Y018652D01*
X020390Y018493D02*
X020261Y018493D01*
X020168Y018335D02*
X020484Y018335D01*
X020859Y019173D02*
X021042Y019173D01*
X021211Y019243D01*
X021341Y019373D01*
X021411Y019542D01*
X021411Y020245D01*
X021341Y020414D01*
X021211Y020543D01*
X021042Y020613D01*
X020859Y020613D01*
X020690Y020543D01*
X020561Y020414D01*
X020491Y020245D01*
X020491Y019542D01*
X020561Y019373D01*
X020690Y019243D01*
X020859Y019173D01*
X020648Y019286D02*
X020221Y019286D01*
X020348Y019444D02*
X020531Y019444D01*
X020491Y019603D02*
X020391Y019603D01*
X020391Y019761D02*
X020491Y019761D01*
X020491Y019920D02*
X020391Y019920D01*
X020391Y020078D02*
X020491Y020078D01*
X020491Y020237D02*
X020383Y020237D01*
X020319Y020395D02*
X020553Y020395D01*
X020716Y020554D02*
X020134Y020554D01*
X019583Y020395D02*
X018469Y020395D01*
X018535Y020237D02*
X019518Y020237D01*
X019511Y020078D02*
X018536Y020078D01*
X018481Y019920D02*
X019511Y019920D01*
X019511Y019761D02*
X018344Y019761D01*
X017807Y019761D02*
X017497Y019761D01*
X017536Y019920D02*
X017670Y019920D01*
X017616Y020078D02*
X017536Y020078D01*
X017536Y020237D02*
X017617Y020237D01*
X017682Y020395D02*
X017536Y020395D01*
X017468Y020554D02*
X017865Y020554D01*
X017929Y021346D02*
X018222Y021346D01*
X017966Y021383D02*
X017966Y021383D01*
X017889Y021980D02*
X018262Y021980D01*
X017262Y021980D02*
X016389Y021980D01*
X016500Y021822D02*
X017152Y021822D01*
X017116Y021663D02*
X016536Y021663D01*
X016516Y021505D02*
X017135Y021505D01*
X017222Y021346D02*
X016429Y021346D01*
X016616Y019920D02*
X013358Y019920D01*
X013294Y019761D02*
X016655Y019761D01*
X015454Y019127D02*
X022179Y019127D01*
X022179Y018969D02*
X022151Y018969D01*
X022168Y018335D02*
X022179Y018335D01*
X021648Y019286D02*
X021254Y019286D01*
X021370Y019444D02*
X021531Y019444D01*
X021491Y019603D02*
X021411Y019603D01*
X021411Y019761D02*
X021491Y019761D01*
X021491Y019920D02*
X021411Y019920D01*
X021411Y020078D02*
X021491Y020078D01*
X021491Y020237D02*
X021411Y020237D01*
X021348Y020395D02*
X021553Y020395D01*
X021716Y020554D02*
X021186Y020554D01*
X021042Y021298D02*
X020859Y021298D01*
X020690Y021368D01*
X020561Y021498D01*
X020491Y021667D01*
X020491Y022370D01*
X020561Y022539D01*
X020690Y022668D01*
X020859Y022738D01*
X021042Y022738D01*
X021211Y022668D01*
X021341Y022539D01*
X021411Y022370D01*
X021411Y021667D01*
X021341Y021498D01*
X021211Y021368D01*
X021042Y021298D01*
X021158Y021346D02*
X021795Y021346D01*
X021591Y021505D02*
X021344Y021505D01*
X021409Y021663D02*
X021520Y021663D01*
X021511Y021822D02*
X021411Y021822D01*
X021411Y021980D02*
X021511Y021980D01*
X021511Y022139D02*
X021411Y022139D01*
X021411Y022297D02*
X021511Y022297D01*
X021547Y022456D02*
X021375Y022456D01*
X021265Y022614D02*
X021665Y022614D01*
X021507Y023090D02*
X021173Y023090D01*
X021216Y023133D02*
X021286Y023302D01*
X021286Y023485D01*
X021216Y023654D01*
X021086Y023783D01*
X020917Y023853D01*
X020734Y023853D01*
X020565Y023783D01*
X020436Y023654D01*
X020366Y023485D01*
X020366Y023302D01*
X020436Y023133D01*
X020565Y023003D01*
X020734Y022933D01*
X020917Y022933D01*
X021086Y023003D01*
X021216Y023133D01*
X021264Y023248D02*
X021410Y023248D01*
X021386Y023407D02*
X021286Y023407D01*
X021252Y023565D02*
X021419Y023565D01*
X021534Y023724D02*
X021146Y023724D01*
X020506Y023724D02*
X019896Y023724D01*
X020002Y023565D02*
X020399Y023565D01*
X020366Y023407D02*
X020036Y023407D01*
X020014Y023248D02*
X020388Y023248D01*
X020479Y023090D02*
X019997Y023090D01*
X020265Y022614D02*
X020636Y022614D01*
X020526Y022456D02*
X020375Y022456D01*
X020411Y022297D02*
X020491Y022297D01*
X020491Y022139D02*
X020411Y022139D01*
X020411Y021980D02*
X020491Y021980D01*
X020491Y021822D02*
X020411Y021822D01*
X020409Y021663D02*
X020492Y021663D01*
X020558Y021505D02*
X020344Y021505D01*
X020158Y021346D02*
X020743Y021346D01*
X022179Y021029D02*
X015526Y021029D01*
X015454Y020871D02*
X022179Y020871D01*
X022179Y020712D02*
X015237Y020712D01*
X015413Y018969D02*
X015501Y018969D01*
X015397Y018810D02*
X015260Y018810D01*
X015366Y018652D02*
X013329Y018652D01*
X013395Y018493D02*
X015390Y018493D01*
X014891Y018810D02*
X013237Y018810D01*
X012212Y017542D02*
X007759Y017542D01*
X007975Y017384D02*
X017177Y017384D01*
X017098Y017225D02*
X014144Y017225D01*
X014252Y017067D02*
X017079Y017067D01*
X017109Y016908D02*
X014286Y016908D01*
X014264Y016750D02*
X017203Y016750D01*
X017458Y016591D02*
X014174Y016591D01*
X013766Y015799D02*
X017195Y015799D01*
X017010Y015640D02*
X013766Y015640D01*
X013766Y015482D02*
X016903Y015482D01*
X016837Y015323D02*
X013762Y015323D01*
X013708Y015165D02*
X016824Y015165D01*
X017958Y013263D02*
X020622Y013263D01*
X020704Y013104D02*
X018036Y013104D01*
X018053Y012946D02*
X020944Y012946D01*
X020815Y012787D02*
X018014Y012787D01*
X017901Y012629D02*
X020665Y012629D01*
X020606Y012470D02*
X017888Y012470D01*
X018018Y012312D02*
X019634Y012312D01*
X019565Y012283D02*
X019436Y012154D01*
X019366Y011985D01*
X019366Y011802D01*
X019436Y011633D01*
X019565Y011503D01*
X019566Y011503D01*
X019566Y009534D01*
X019565Y009533D01*
X019436Y009404D01*
X019366Y009235D01*
X019366Y009052D01*
X019436Y008883D01*
X019565Y008753D01*
X019734Y008683D01*
X019917Y008683D01*
X020086Y008753D01*
X020216Y008883D01*
X020286Y009052D01*
X020286Y009235D01*
X020216Y009404D01*
X020086Y009533D01*
X020086Y009534D01*
X020086Y011503D01*
X020086Y011503D01*
X020216Y011633D01*
X020286Y011802D01*
X020286Y011985D01*
X020216Y012154D01*
X020086Y012283D01*
X019917Y012353D01*
X019734Y012353D01*
X019565Y012283D01*
X019435Y012153D02*
X019100Y012153D01*
X019193Y011995D02*
X019370Y011995D01*
X019366Y011836D02*
X019204Y011836D01*
X019145Y011678D02*
X019417Y011678D01*
X019549Y011519D02*
X019086Y011519D01*
X019086Y011361D02*
X019566Y011361D01*
X019566Y011202D02*
X019086Y011202D01*
X019086Y011044D02*
X019566Y011044D01*
X019566Y010885D02*
X019086Y010885D01*
X019086Y010727D02*
X019566Y010727D01*
X019566Y010568D02*
X019086Y010568D01*
X019086Y010410D02*
X019566Y010410D01*
X019566Y010251D02*
X019086Y010251D01*
X019086Y010093D02*
X019566Y010093D01*
X019566Y009934D02*
X019086Y009934D01*
X019086Y009776D02*
X019566Y009776D01*
X019566Y009617D02*
X019086Y009617D01*
X019086Y009459D02*
X019491Y009459D01*
X019393Y009300D02*
X019086Y009300D01*
X019086Y009142D02*
X019366Y009142D01*
X019394Y008983D02*
X019086Y008983D01*
X019086Y008825D02*
X019494Y008825D01*
X020158Y008825D02*
X020494Y008825D01*
X020394Y008983D02*
X020257Y008983D01*
X020286Y009142D02*
X020366Y009142D01*
X020393Y009300D02*
X020259Y009300D01*
X020161Y009459D02*
X020491Y009459D01*
X020566Y009617D02*
X020086Y009617D01*
X020086Y009776D02*
X020566Y009776D01*
X020566Y009934D02*
X020086Y009934D01*
X020086Y010093D02*
X020566Y010093D01*
X020566Y010251D02*
X020086Y010251D01*
X020086Y010410D02*
X020566Y010410D01*
X020566Y010568D02*
X020086Y010568D01*
X020086Y010727D02*
X020566Y010727D01*
X020566Y010885D02*
X020086Y010885D01*
X020086Y011044D02*
X020566Y011044D01*
X020566Y011202D02*
X020086Y011202D01*
X020086Y011361D02*
X020566Y011361D01*
X020566Y011519D02*
X020102Y011519D01*
X020234Y011678D02*
X020566Y011678D01*
X020566Y011836D02*
X020286Y011836D01*
X020282Y011995D02*
X020586Y011995D01*
X020667Y012153D02*
X020216Y012153D01*
X020017Y012312D02*
X020606Y012312D01*
X018551Y012153D02*
X018073Y012153D01*
X018073Y011995D02*
X018458Y011995D01*
X018448Y011836D02*
X018012Y011836D01*
X017876Y011678D02*
X018506Y011678D01*
X018566Y010885D02*
X017747Y010885D01*
X018054Y010727D02*
X018566Y010727D01*
X018566Y010568D02*
X018213Y010568D01*
X018278Y010410D02*
X018566Y010410D01*
X018566Y010251D02*
X018327Y010251D01*
X018327Y010093D02*
X018566Y010093D01*
X018566Y009934D02*
X018302Y009934D01*
X018237Y009776D02*
X018566Y009776D01*
X018566Y009617D02*
X018112Y009617D01*
X017886Y009459D02*
X018566Y009459D01*
X018566Y009300D02*
X017697Y009300D01*
X017949Y009142D02*
X018566Y009142D01*
X018566Y008983D02*
X018043Y008983D01*
X018073Y008825D02*
X018566Y008825D01*
X018566Y008666D02*
X018053Y008666D01*
X017974Y008508D02*
X018566Y008508D01*
X018566Y008349D02*
X017876Y008349D01*
X018002Y008191D02*
X018566Y008191D01*
X018566Y008032D02*
X018050Y008032D01*
X018042Y007874D02*
X018566Y007874D01*
X018566Y007715D02*
X017974Y007715D01*
X017984Y007557D02*
X018566Y007557D01*
X018566Y007398D02*
X018044Y007398D01*
X018048Y007240D02*
X018566Y007240D01*
X018566Y007081D02*
X017995Y007081D01*
X017856Y006923D02*
X018566Y006923D01*
X018566Y006764D02*
X017988Y006764D01*
X018059Y006606D02*
X018566Y006606D01*
X018566Y006447D02*
X018073Y006447D01*
X018037Y006289D02*
X018566Y006289D01*
X017594Y007327D02*
X017594Y007960D01*
X017557Y007960D01*
X017557Y007501D01*
X017557Y007327D01*
X017594Y007327D01*
X017594Y007398D02*
X017557Y007398D01*
X017557Y007557D02*
X017594Y007557D01*
X017594Y007715D02*
X017557Y007715D01*
X017557Y007874D02*
X017594Y007874D01*
X017276Y008349D02*
X012876Y008349D01*
X012944Y008508D02*
X017178Y008508D01*
X017098Y008666D02*
X013030Y008666D01*
X013002Y008191D02*
X017149Y008191D01*
X017101Y008032D02*
X013050Y008032D01*
X013042Y007874D02*
X017109Y007874D01*
X017177Y007715D02*
X012974Y007715D01*
X012984Y007557D02*
X017167Y007557D01*
X017107Y007398D02*
X013044Y007398D01*
X013048Y007240D02*
X017104Y007240D01*
X017156Y007081D02*
X012995Y007081D01*
X012856Y006923D02*
X017295Y006923D01*
X017163Y006764D02*
X012988Y006764D01*
X013059Y006606D02*
X017092Y006606D01*
X017079Y006447D02*
X013073Y006447D01*
X013037Y006289D02*
X017115Y006289D01*
X017217Y006130D02*
X012935Y006130D01*
X012725Y005894D02*
X012426Y005894D01*
X012150Y005780D01*
X011939Y005569D01*
X011824Y005293D01*
X011824Y004994D01*
X011939Y004718D01*
X012150Y004506D01*
X012426Y004392D01*
X012725Y004392D01*
X013001Y004506D01*
X013212Y004718D01*
X013327Y004994D01*
X013327Y005293D01*
X013212Y005569D01*
X013001Y005780D01*
X012725Y005894D01*
X012921Y005813D02*
X017230Y005813D01*
X017025Y005655D02*
X013126Y005655D01*
X013243Y005496D02*
X016909Y005496D01*
X016843Y005338D02*
X013308Y005338D01*
X013327Y005179D02*
X016824Y005179D01*
X016824Y005021D02*
X013327Y005021D01*
X013272Y004862D02*
X016879Y004862D01*
X016953Y004704D02*
X013800Y004704D01*
X013922Y004545D02*
X017111Y004545D01*
X017133Y003436D02*
X013486Y003436D01*
X013327Y003277D02*
X017079Y003277D01*
X017079Y003119D02*
X013169Y003119D01*
X013012Y002960D02*
X017140Y002960D01*
X013351Y004704D02*
X013198Y004704D01*
X013229Y004545D02*
X013040Y004545D01*
X013198Y004387D02*
X002894Y004387D01*
X002894Y004545D02*
X007111Y004545D01*
X007150Y004506D02*
X006939Y004718D01*
X006824Y004994D01*
X006824Y005293D01*
X006939Y005569D01*
X007150Y005780D01*
X007426Y005894D01*
X007725Y005894D01*
X008001Y005780D01*
X008212Y005569D01*
X008327Y005293D01*
X008327Y004994D01*
X008212Y004718D01*
X008001Y004506D01*
X007725Y004392D01*
X007426Y004392D01*
X007150Y004506D01*
X006953Y004704D02*
X002894Y004704D01*
X002894Y004862D02*
X006879Y004862D01*
X006824Y005021D02*
X002894Y005021D01*
X002894Y005179D02*
X006824Y005179D01*
X006843Y005338D02*
X002894Y005338D01*
X002894Y005496D02*
X006909Y005496D01*
X007025Y005655D02*
X002894Y005655D01*
X002894Y005813D02*
X007230Y005813D01*
X007921Y005813D02*
X012230Y005813D01*
X012025Y005655D02*
X008126Y005655D01*
X008243Y005496D02*
X011909Y005496D01*
X011843Y005338D02*
X008308Y005338D01*
X008327Y005179D02*
X011824Y005179D01*
X011824Y005021D02*
X008327Y005021D01*
X008272Y004862D02*
X011879Y004862D01*
X011953Y004704D02*
X008198Y004704D01*
X008040Y004545D02*
X012111Y004545D01*
X012261Y003594D02*
X007890Y003594D01*
X008018Y003436D02*
X012133Y003436D01*
X012079Y003277D02*
X008073Y003277D01*
X008073Y003119D02*
X012079Y003119D01*
X012140Y002960D02*
X008012Y002960D01*
X007140Y002960D02*
X005866Y002960D01*
X005896Y003119D02*
X007079Y003119D01*
X007079Y003277D02*
X005881Y003277D01*
X005882Y003277D02*
X005854Y003362D01*
X005813Y003442D01*
X005760Y003515D01*
X005697Y003578D01*
X005624Y003631D01*
X005544Y003672D01*
X005459Y003699D01*
X005371Y003713D01*
X005344Y003713D01*
X005344Y003162D01*
X005896Y003162D01*
X005896Y003188D01*
X005882Y003277D01*
X005816Y003436D02*
X007133Y003436D01*
X007261Y003594D02*
X005675Y003594D01*
X005344Y003594D02*
X005307Y003594D01*
X005307Y003436D02*
X005344Y003436D01*
X005344Y003277D02*
X005307Y003277D01*
X005307Y003162D02*
X005307Y003125D01*
X004344Y003125D01*
X004344Y003162D01*
X004756Y003162D01*
X005307Y003162D01*
X004977Y003594D02*
X004675Y003594D01*
X004816Y003436D02*
X004835Y003436D01*
X004344Y003436D02*
X004307Y003436D01*
X004307Y003594D02*
X004344Y003594D01*
X004344Y003277D02*
X004307Y003277D01*
X004307Y003162D02*
X004307Y003125D01*
X003344Y003125D01*
X003344Y003162D01*
X003896Y003162D01*
X004307Y003162D01*
X003977Y003594D02*
X003675Y003594D01*
X003816Y003436D02*
X003835Y003436D01*
X003344Y003436D02*
X003307Y003436D01*
X003307Y003594D02*
X003344Y003594D01*
X003344Y003277D02*
X003307Y003277D01*
X002977Y003594D02*
X002894Y003594D01*
X002894Y003753D02*
X013066Y003753D01*
X013066Y003911D02*
X002894Y003911D01*
X002894Y004070D02*
X013066Y004070D01*
X013079Y004228D02*
X002894Y004228D01*
X002894Y006606D02*
X003082Y006606D01*
X003570Y006606D02*
X004082Y006606D01*
X003870Y006764D02*
X003781Y006764D01*
X004570Y006606D02*
X005082Y006606D01*
X004870Y006764D02*
X004781Y006764D01*
X004747Y007557D02*
X004905Y007557D01*
X004954Y007715D02*
X005165Y007715D01*
X005062Y008983D02*
X007109Y008983D01*
X007557Y007960D02*
X007594Y007960D01*
X007594Y007786D01*
X007594Y007327D01*
X007557Y007327D01*
X007557Y007960D01*
X007557Y007874D02*
X007594Y007874D01*
X007594Y007715D02*
X007557Y007715D01*
X007557Y007557D02*
X007594Y007557D01*
X007594Y007398D02*
X007557Y007398D01*
X007984Y007557D02*
X012167Y007557D01*
X012177Y007715D02*
X007974Y007715D01*
X008042Y007874D02*
X012109Y007874D01*
X012101Y008032D02*
X008050Y008032D01*
X008002Y008191D02*
X012149Y008191D01*
X012276Y008349D02*
X007876Y008349D01*
X007974Y008508D02*
X012208Y008508D01*
X012122Y008666D02*
X008053Y008666D01*
X008044Y007398D02*
X012107Y007398D01*
X012104Y007240D02*
X008048Y007240D01*
X007995Y007081D02*
X012156Y007081D01*
X012295Y006923D02*
X007856Y006923D01*
X007988Y006764D02*
X012163Y006764D01*
X012092Y006606D02*
X008059Y006606D01*
X008073Y006447D02*
X012079Y006447D01*
X012115Y006289D02*
X008037Y006289D01*
X007935Y006130D02*
X012217Y006130D01*
X012557Y007327D02*
X012557Y007960D01*
X012594Y007960D01*
X012594Y007786D01*
X012594Y007327D01*
X012557Y007327D01*
X012557Y007398D02*
X012594Y007398D01*
X012594Y007557D02*
X012557Y007557D01*
X012557Y007715D02*
X012594Y007715D01*
X012594Y007874D02*
X012557Y007874D01*
X012557Y008032D02*
X012594Y008032D01*
X012594Y008191D02*
X012557Y008191D01*
X012557Y008349D02*
X012594Y008349D01*
X012594Y008508D02*
X012557Y008508D01*
X012557Y008666D02*
X012594Y008666D01*
X012594Y008983D02*
X012557Y008983D01*
X012557Y009142D02*
X012594Y009142D01*
X012876Y011678D02*
X013948Y011678D01*
X013968Y011519D02*
X008504Y011519D01*
X008663Y011361D02*
X014066Y011361D01*
X014066Y011202D02*
X009551Y011202D01*
X009100Y011202D02*
X008821Y011202D01*
X008561Y010727D02*
X008054Y010727D01*
X008213Y010568D02*
X009122Y010568D01*
X007594Y013104D02*
X007557Y013104D01*
X007557Y013263D02*
X007594Y013263D01*
X007594Y013421D02*
X007557Y013421D01*
X007557Y013580D02*
X007594Y013580D01*
X007594Y013738D02*
X007557Y013738D01*
X007557Y013897D02*
X007594Y013897D01*
X007594Y014055D02*
X007557Y014055D01*
X007557Y014214D02*
X007594Y014214D01*
X007126Y014531D02*
X006356Y014531D01*
X006356Y014689D02*
X006967Y014689D01*
X006885Y014848D02*
X006356Y014848D01*
X006356Y015006D02*
X006824Y015006D01*
X006824Y015165D02*
X006356Y015165D01*
X006356Y015323D02*
X006837Y015323D01*
X006903Y015482D02*
X006356Y015482D01*
X006356Y015640D02*
X007010Y015640D01*
X007195Y015799D02*
X006356Y015799D01*
X006356Y015957D02*
X010866Y015957D01*
X010866Y015995D02*
X010866Y015292D01*
X010936Y015123D01*
X011065Y014993D01*
X011234Y014923D01*
X011417Y014923D01*
X011586Y014993D01*
X011716Y015123D01*
X011786Y015292D01*
X011786Y015995D01*
X011716Y016164D01*
X011586Y016293D01*
X011417Y016363D01*
X011234Y016363D01*
X011065Y016293D01*
X010936Y016164D01*
X010866Y015995D01*
X010916Y016116D02*
X006356Y016116D01*
X006356Y016274D02*
X011046Y016274D01*
X010866Y015799D02*
X007956Y015799D01*
X008141Y015640D02*
X010866Y015640D01*
X010866Y015482D02*
X008249Y015482D01*
X008314Y015323D02*
X010866Y015323D01*
X010918Y015165D02*
X008327Y015165D01*
X008327Y015006D02*
X011052Y015006D01*
X011599Y015006D02*
X012052Y015006D01*
X011918Y015165D02*
X011733Y015165D01*
X011786Y015323D02*
X011866Y015323D01*
X011866Y015482D02*
X011786Y015482D01*
X011786Y015640D02*
X011866Y015640D01*
X011866Y015799D02*
X011786Y015799D01*
X011786Y015957D02*
X011866Y015957D01*
X011916Y016116D02*
X011736Y016116D01*
X011605Y016274D02*
X012046Y016274D01*
X011990Y017701D02*
X006356Y017701D01*
X006356Y017859D02*
X011854Y017859D01*
X011788Y018018D02*
X006356Y018018D01*
X006356Y018176D02*
X011743Y018176D01*
X011743Y018335D02*
X009889Y018335D01*
X009911Y018357D02*
X009952Y018413D01*
X009983Y018474D01*
X010005Y018540D01*
X010016Y018609D01*
X010016Y018643D01*
X009576Y018643D01*
X009576Y018643D01*
X009576Y018203D01*
X009610Y018203D01*
X009679Y018214D01*
X009745Y018236D01*
X009806Y018267D01*
X009862Y018308D01*
X009911Y018357D01*
X009990Y018493D02*
X011757Y018493D01*
X011822Y018652D02*
X010016Y018652D01*
X010016Y018643D02*
X010016Y018678D01*
X010005Y018746D01*
X009983Y018812D01*
X009952Y018874D01*
X009911Y018930D01*
X009862Y018979D01*
X009806Y019020D01*
X009745Y019051D01*
X009679Y019072D01*
X009610Y019083D01*
X009576Y019083D01*
X009576Y018643D01*
X009576Y018643D01*
X010016Y018643D01*
X009984Y018810D02*
X011915Y018810D01*
X011801Y020395D02*
X008469Y020395D01*
X008287Y020554D02*
X011874Y020554D01*
X012343Y021188D02*
X006606Y021188D01*
X006606Y021346D02*
X012044Y021346D01*
X011886Y021505D02*
X006606Y021505D01*
X006606Y021663D02*
X011811Y021663D01*
X011743Y022139D02*
X009685Y022139D01*
X009756Y022297D02*
X011800Y022297D01*
X011866Y022456D02*
X009761Y022456D01*
X009707Y022614D02*
X012019Y022614D01*
X012281Y022773D02*
X011356Y022773D01*
X010616Y023090D02*
X009673Y023090D01*
X009764Y023248D02*
X010621Y023248D01*
X010689Y023407D02*
X009786Y023407D01*
X010158Y024358D02*
X014667Y024358D01*
X014686Y023882D02*
X014454Y023882D01*
X014613Y023724D02*
X014886Y023724D01*
X014701Y026577D02*
X014701Y026577D01*
X014701Y026735D02*
X014701Y026735D01*
X014732Y028637D02*
X014985Y028637D01*
X014596Y029003D02*
X014726Y029133D01*
X014796Y029302D01*
X014796Y029485D01*
X014726Y029654D01*
X014596Y029783D01*
X014427Y029853D01*
X013724Y029853D01*
X013555Y029783D01*
X013426Y029654D01*
X013356Y029485D01*
X013356Y029302D01*
X013426Y029133D01*
X013555Y029003D01*
X013724Y028933D01*
X014427Y028933D01*
X014596Y029003D01*
X014478Y028954D02*
X017243Y028954D01*
X017198Y028796D02*
X014566Y028796D01*
X014706Y029113D02*
X017419Y029113D01*
X017732Y029113D02*
X019678Y029113D01*
X019836Y029271D02*
X014783Y029271D01*
X014796Y029430D02*
X015513Y029430D01*
X015556Y029412D02*
X015653Y029386D01*
X015724Y029377D01*
X015724Y030063D01*
X015884Y030063D01*
X015884Y029377D01*
X015955Y029386D01*
X016052Y029412D01*
X016146Y029451D01*
X016233Y029501D01*
X016313Y029563D01*
X016385Y029634D01*
X016446Y029714D01*
X016497Y029802D01*
X016535Y029895D01*
X016561Y029993D01*
X016571Y030063D01*
X015884Y030063D01*
X015884Y030223D01*
X016571Y030223D01*
X016561Y030294D01*
X016535Y030392D01*
X016497Y030485D01*
X016446Y030572D01*
X016385Y030652D01*
X016313Y030724D01*
X016233Y030785D01*
X016146Y030836D01*
X016052Y030875D01*
X015955Y030901D01*
X015884Y030910D01*
X015884Y030223D01*
X015724Y030223D01*
X015724Y030063D01*
X015037Y030063D01*
X015047Y029993D01*
X015073Y029895D01*
X015111Y029802D01*
X015162Y029714D01*
X015223Y029634D01*
X015295Y029563D01*
X015375Y029501D01*
X015462Y029451D01*
X015556Y029412D01*
X015724Y029430D02*
X015884Y029430D01*
X015884Y029588D02*
X015724Y029588D01*
X015724Y029747D02*
X015884Y029747D01*
X015884Y029905D02*
X015724Y029905D01*
X015724Y030064D02*
X014657Y030064D01*
X014596Y030003D02*
X014427Y029933D01*
X013724Y029933D01*
X013555Y030003D01*
X013426Y030133D01*
X013356Y030302D01*
X013356Y030485D01*
X013426Y030654D01*
X013555Y030783D01*
X013724Y030853D01*
X014427Y030853D01*
X014596Y030783D01*
X014597Y030782D01*
X015428Y031614D01*
X015524Y031653D01*
X018801Y031653D01*
X018861Y031714D01*
X019000Y031771D01*
X019151Y031771D01*
X019290Y031714D01*
X019396Y031607D01*
X019454Y031469D01*
X019454Y031318D01*
X019396Y031179D01*
X019290Y031073D01*
X019151Y031015D01*
X019000Y031015D01*
X018861Y031073D01*
X018801Y031133D01*
X015683Y031133D01*
X014756Y030206D01*
X014726Y030133D01*
X014596Y030003D01*
X014633Y029747D02*
X015143Y029747D01*
X015070Y029905D02*
X010586Y029905D01*
X010586Y028954D02*
X010673Y028954D01*
X010066Y029430D02*
X009638Y029430D01*
X009882Y029588D02*
X010066Y029588D01*
X010066Y029747D02*
X010008Y029747D01*
X010008Y030539D02*
X010066Y030539D01*
X010067Y030698D02*
X009882Y030698D01*
X009639Y030856D02*
X010171Y030856D01*
X010178Y030864D02*
X010178Y030864D01*
X010330Y031015D02*
X004557Y031015D01*
X004413Y031173D02*
X004761Y031173D01*
X004698Y031332D02*
X004255Y031332D01*
X004296Y031291D02*
X004296Y031291D01*
X003336Y031966D02*
X009697Y031966D01*
X009570Y032124D02*
X003336Y032124D01*
X003906Y035611D02*
X010408Y035611D01*
X010542Y035770D02*
X004133Y035770D01*
X005724Y037038D02*
X005884Y037038D01*
X005884Y037196D02*
X005724Y037196D01*
X005724Y037355D02*
X005884Y037355D01*
X005884Y037513D02*
X005724Y037513D01*
X005724Y037989D02*
X005884Y037989D01*
X005884Y038147D02*
X005724Y038147D01*
X005724Y038306D02*
X005884Y038306D01*
X006198Y038306D02*
X008954Y038306D01*
X008763Y038147D02*
X006388Y038147D01*
X006494Y037989D02*
X008657Y037989D01*
X008600Y037830D02*
X006552Y037830D01*
X006564Y037513D02*
X008587Y037513D01*
X008633Y037355D02*
X006519Y037355D01*
X006432Y037196D02*
X008719Y037196D01*
X008871Y037038D02*
X006281Y037038D01*
X006524Y040525D02*
X008627Y040525D01*
X008616Y040683D02*
X006536Y040683D01*
X006491Y040842D02*
X008660Y040842D01*
X008782Y041000D02*
X007329Y041000D01*
X006822Y041000D02*
X006369Y041000D01*
X009267Y038306D02*
X009427Y038306D01*
X009427Y038147D02*
X009267Y038147D01*
X009267Y037989D02*
X009427Y037989D01*
X009741Y038306D02*
X010356Y038306D01*
X010420Y038147D02*
X009932Y038147D01*
X010038Y037989D02*
X010590Y037989D01*
X010669Y037830D02*
X010095Y037830D01*
X009427Y037513D02*
X009267Y037513D01*
X009267Y037355D02*
X009427Y037355D01*
X009427Y037196D02*
X009267Y037196D01*
X009267Y037038D02*
X009427Y037038D01*
X010456Y034819D02*
X010702Y034819D01*
X011076Y034819D02*
X011076Y034819D01*
X011076Y034660D02*
X011076Y034660D01*
X011076Y034502D02*
X011076Y034502D01*
X011076Y034343D02*
X011076Y034343D01*
X011076Y034185D02*
X011076Y034185D01*
X011076Y034026D02*
X011076Y034026D01*
X011579Y034026D02*
X013532Y034026D01*
X013404Y034185D02*
X011723Y034185D01*
X011773Y034343D02*
X013356Y034343D01*
X013265Y034502D02*
X011763Y034502D01*
X011670Y033709D02*
X013481Y033709D01*
X013383Y033551D02*
X011768Y033551D01*
X011796Y033392D02*
X012790Y033392D01*
X012704Y033234D02*
X011768Y033234D01*
X011826Y032143D02*
X011576Y031893D01*
X010576Y031893D01*
X010076Y031393D01*
X010252Y031173D02*
X010409Y031173D01*
X011657Y030064D02*
X013495Y030064D01*
X013389Y030222D02*
X011763Y030222D01*
X011796Y030381D02*
X013356Y030381D01*
X013378Y030539D02*
X011773Y030539D01*
X011748Y030698D02*
X013470Y030698D01*
X013544Y031015D02*
X012065Y031015D01*
X011906Y030856D02*
X014671Y030856D01*
X014608Y031015D02*
X014830Y031015D01*
X014742Y031173D02*
X014988Y031173D01*
X014882Y031332D02*
X015147Y031332D01*
X015040Y031490D02*
X015305Y031490D01*
X015199Y031649D02*
X015513Y031649D01*
X015357Y031807D02*
X019484Y031807D01*
X019448Y031649D02*
X019355Y031649D01*
X019445Y031490D02*
X019480Y031490D01*
X019454Y031332D02*
X019602Y031332D01*
X019390Y031173D02*
X022179Y031173D01*
X022179Y031015D02*
X021855Y031015D01*
X021985Y030856D02*
X022179Y030856D01*
X022179Y030698D02*
X022036Y030698D01*
X022030Y030539D02*
X022179Y030539D01*
X022179Y030381D02*
X021964Y030381D01*
X021761Y030222D02*
X022179Y030222D01*
X022179Y030064D02*
X021364Y030064D01*
X021205Y029905D02*
X022179Y029905D01*
X022179Y029747D02*
X021047Y029747D01*
X020888Y029588D02*
X022179Y029588D01*
X022179Y029430D02*
X020730Y029430D01*
X020571Y029271D02*
X022179Y029271D01*
X022179Y029113D02*
X020413Y029113D01*
X020254Y028954D02*
X022179Y028954D01*
X022179Y028796D02*
X020096Y028796D01*
X020366Y028637D02*
X022179Y028637D01*
X022179Y028479D02*
X020449Y028479D01*
X020454Y028320D02*
X022179Y028320D01*
X022179Y028162D02*
X020379Y028162D01*
X020285Y028003D02*
X019583Y028003D01*
X019519Y028954D02*
X017908Y028954D01*
X018616Y029895D02*
X018590Y029993D01*
X018581Y030063D01*
X019267Y030063D01*
X019267Y030223D01*
X018581Y030223D01*
X018590Y030294D01*
X018616Y030392D01*
X018655Y030485D01*
X018705Y030572D01*
X018767Y030652D01*
X018838Y030724D01*
X018918Y030785D01*
X019006Y030836D01*
X019099Y030875D01*
X019197Y030901D01*
X019267Y030910D01*
X019267Y030223D01*
X019427Y030223D01*
X019427Y030910D01*
X019498Y030901D01*
X019596Y030875D01*
X019689Y030836D01*
X019776Y030785D01*
X019856Y030724D01*
X019928Y030652D01*
X019989Y030572D01*
X020040Y030485D01*
X020079Y030392D01*
X020105Y030294D01*
X020114Y030223D01*
X019427Y030223D01*
X019427Y030063D01*
X019427Y029377D01*
X019498Y029386D01*
X019596Y029412D01*
X019689Y029451D01*
X019776Y029501D01*
X019856Y029563D01*
X019928Y029634D01*
X019989Y029714D01*
X020040Y029802D01*
X020079Y029895D01*
X020105Y029993D01*
X020114Y030063D01*
X019427Y030063D01*
X019267Y030063D01*
X019267Y029377D01*
X019197Y029386D01*
X019099Y029412D01*
X019006Y029451D01*
X018918Y029501D01*
X018838Y029563D01*
X018767Y029634D01*
X018705Y029714D01*
X018655Y029802D01*
X018616Y029895D01*
X018613Y029905D02*
X016538Y029905D01*
X016465Y029747D02*
X018686Y029747D01*
X018813Y029588D02*
X016339Y029588D01*
X016095Y029430D02*
X019056Y029430D01*
X019267Y029430D02*
X019427Y029430D01*
X019427Y029588D02*
X019267Y029588D01*
X019267Y029747D02*
X019427Y029747D01*
X019427Y029905D02*
X019267Y029905D01*
X019267Y030064D02*
X015884Y030064D01*
X015884Y030222D02*
X019267Y030222D01*
X019267Y030381D02*
X019427Y030381D01*
X019427Y030539D02*
X019267Y030539D01*
X019267Y030698D02*
X019427Y030698D01*
X019427Y030856D02*
X019267Y030856D01*
X019055Y030856D02*
X016096Y030856D01*
X015884Y030856D02*
X015724Y030856D01*
X015724Y030910D02*
X015724Y030223D01*
X015037Y030223D01*
X015047Y030294D01*
X015073Y030392D01*
X015111Y030485D01*
X015162Y030572D01*
X015223Y030652D01*
X015295Y030724D01*
X015375Y030785D01*
X015462Y030836D01*
X015556Y030875D01*
X015653Y030901D01*
X015724Y030910D01*
X015565Y031015D02*
X020297Y031015D01*
X020166Y030856D02*
X019639Y030856D01*
X019882Y030698D02*
X020116Y030698D01*
X020121Y030539D02*
X020008Y030539D01*
X020081Y030381D02*
X020188Y030381D01*
X020390Y030222D02*
X019427Y030222D01*
X019427Y030064D02*
X020629Y030064D01*
X020761Y030222D02*
X020787Y030222D01*
X021030Y030539D02*
X021104Y030539D01*
X021116Y030698D02*
X021036Y030698D01*
X020985Y030856D02*
X021166Y030856D01*
X021297Y031015D02*
X020855Y031015D01*
X020487Y031332D02*
X020049Y031332D01*
X020035Y031966D02*
X020498Y031966D01*
X020086Y032503D02*
X020216Y032633D01*
X020286Y032802D01*
X020286Y032985D01*
X020216Y033154D01*
X020086Y033283D01*
X019917Y033353D01*
X019734Y033353D01*
X019565Y033283D01*
X019436Y033154D01*
X019366Y032985D01*
X019366Y032802D01*
X019436Y032633D01*
X019565Y032503D01*
X019734Y032433D01*
X019917Y032433D01*
X020086Y032503D01*
X020183Y032600D02*
X022179Y032600D01*
X022179Y032758D02*
X020268Y032758D01*
X020286Y032917D02*
X022179Y032917D01*
X022179Y033075D02*
X020248Y033075D01*
X020136Y033234D02*
X022179Y033234D01*
X022179Y033392D02*
X020649Y033392D01*
X020851Y033551D02*
X022179Y033551D01*
X022179Y033709D02*
X021009Y033709D01*
X021168Y033868D02*
X022179Y033868D01*
X022179Y034026D02*
X021326Y034026D01*
X021485Y034185D02*
X021730Y034185D01*
X021921Y034185D02*
X022179Y034185D01*
X022176Y034343D02*
X022179Y034343D01*
X022179Y032441D02*
X019937Y032441D01*
X019715Y032441D02*
X016937Y032441D01*
X016715Y032441D02*
X015954Y032441D01*
X015939Y032283D02*
X022179Y032283D01*
X022179Y032124D02*
X015841Y032124D01*
X015516Y031966D02*
X019616Y031966D01*
X019469Y032600D02*
X017183Y032600D01*
X017268Y032758D02*
X019384Y032758D01*
X019366Y032917D02*
X017286Y032917D01*
X016826Y032893D02*
X013576Y032893D01*
X012826Y032143D01*
X011826Y032143D01*
X010572Y034026D02*
X010515Y034026D01*
X010356Y033868D02*
X018031Y033868D01*
X018792Y033075D02*
X019403Y033075D01*
X019516Y033234D02*
X018919Y033234D01*
X018855Y034185D02*
X020000Y034185D01*
X020158Y034343D02*
X019033Y034343D01*
X019110Y034502D02*
X020317Y034502D01*
X020366Y034660D02*
X019140Y034660D01*
X019135Y034819D02*
X020400Y034819D01*
X020509Y034977D02*
X019069Y034977D01*
X019267Y037038D02*
X019427Y037038D01*
X019427Y037196D02*
X019267Y037196D01*
X019267Y037355D02*
X019427Y037355D01*
X019427Y037513D02*
X019267Y037513D01*
X019267Y037989D02*
X019427Y037989D01*
X019427Y038147D02*
X019267Y038147D01*
X019267Y038306D02*
X019427Y038306D01*
X019741Y038306D02*
X021121Y038306D01*
X020962Y038147D02*
X019932Y038147D01*
X020038Y037989D02*
X020804Y037989D01*
X020645Y037830D02*
X020095Y037830D01*
X019398Y039098D02*
X021331Y039098D01*
X021473Y038940D02*
X019240Y038940D01*
X019081Y038781D02*
X021408Y038781D01*
X021304Y038623D02*
X018923Y038623D01*
X016469Y032600D02*
X015899Y032600D01*
X015512Y030856D02*
X015406Y030856D01*
X015269Y030698D02*
X015248Y030698D01*
X015143Y030539D02*
X015089Y030539D01*
X015070Y030381D02*
X014931Y030381D01*
X014772Y030222D02*
X015724Y030222D01*
X015724Y030381D02*
X015884Y030381D01*
X015884Y030539D02*
X015724Y030539D01*
X015724Y030698D02*
X015884Y030698D01*
X016339Y030698D02*
X018812Y030698D01*
X018686Y030539D02*
X016465Y030539D01*
X016538Y030381D02*
X018613Y030381D01*
X019638Y029430D02*
X019995Y029430D01*
X019882Y029588D02*
X020153Y029588D01*
X020008Y029747D02*
X020312Y029747D01*
X020470Y029905D02*
X020081Y029905D01*
X020866Y028003D02*
X021285Y028003D01*
X021161Y027845D02*
X020990Y027845D01*
X021036Y027686D02*
X021116Y027686D01*
X021093Y027528D02*
X021026Y027528D01*
X021352Y027052D02*
X022179Y027052D01*
X022179Y026894D02*
X021153Y026894D01*
X021086Y026783D02*
X021216Y026654D01*
X021286Y026485D01*
X021286Y026302D01*
X021216Y026133D01*
X021086Y026003D01*
X020917Y025933D01*
X020734Y025933D01*
X020565Y026003D01*
X020436Y026133D01*
X020366Y026302D01*
X020366Y026485D01*
X020436Y026654D01*
X020565Y026783D01*
X020734Y026853D01*
X020917Y026853D01*
X021086Y026783D01*
X021134Y026735D02*
X021517Y026735D01*
X021404Y026577D02*
X021248Y026577D01*
X021286Y026418D02*
X021366Y026418D01*
X021383Y026260D02*
X021268Y026260D01*
X021184Y026101D02*
X021467Y026101D01*
X021711Y025943D02*
X020940Y025943D01*
X020711Y025943D02*
X019690Y025943D01*
X019934Y026101D02*
X020467Y026101D01*
X020383Y026260D02*
X020018Y026260D01*
X020036Y026418D02*
X020366Y026418D01*
X020404Y026577D02*
X019998Y026577D01*
X019884Y026735D02*
X020517Y026735D01*
X021734Y027211D02*
X022179Y027211D01*
X022179Y027369D02*
X021952Y027369D01*
X022026Y027528D02*
X022179Y027528D01*
X022179Y027686D02*
X022036Y027686D01*
X021990Y027845D02*
X022179Y027845D01*
X022179Y028003D02*
X021866Y028003D01*
X022134Y026735D02*
X022179Y026735D01*
X022179Y025943D02*
X021940Y025943D01*
X022165Y031332D02*
X022179Y031332D01*
X022154Y031966D02*
X022179Y031966D01*
X021498Y031966D02*
X021154Y031966D01*
X021216Y031383D02*
X021216Y031383D01*
X021165Y031332D02*
X021487Y031332D01*
X015269Y029588D02*
X014753Y029588D01*
X013673Y028954D02*
X011478Y028954D01*
X011566Y028796D02*
X013585Y028796D01*
X013419Y028637D02*
X011732Y028637D01*
X011796Y028479D02*
X013356Y028479D01*
X013356Y028320D02*
X011796Y028320D01*
X011738Y028162D02*
X013414Y028162D01*
X013446Y029113D02*
X011706Y029113D01*
X011783Y029271D02*
X013368Y029271D01*
X013356Y029430D02*
X011796Y029430D01*
X011753Y029588D02*
X013399Y029588D01*
X013519Y029747D02*
X011633Y029747D01*
X010076Y033393D02*
X010076Y033393D01*
X011610Y035770D02*
X013586Y035770D01*
X013433Y035611D02*
X011743Y035611D01*
X011796Y035453D02*
X013380Y035453D01*
X013386Y035294D02*
X011877Y035294D01*
X011680Y036087D02*
X013472Y036087D01*
X013379Y036245D02*
X011772Y036245D01*
X011796Y036404D02*
X013356Y036404D01*
X013388Y036562D02*
X011764Y036562D01*
X011659Y036721D02*
X013493Y036721D01*
X013521Y037038D02*
X011631Y037038D01*
X011752Y037196D02*
X013399Y037196D01*
X013356Y037355D02*
X011796Y037355D01*
X011784Y037513D02*
X013367Y037513D01*
X013444Y037672D02*
X011708Y037672D01*
X011483Y037830D02*
X013669Y037830D01*
X013590Y037989D02*
X011561Y037989D01*
X011732Y038147D02*
X013420Y038147D01*
X013356Y038306D02*
X011796Y038306D01*
X011796Y038464D02*
X013356Y038464D01*
X013413Y038623D02*
X011738Y038623D01*
X011598Y038781D02*
X013553Y038781D01*
X013708Y038940D02*
X011443Y038940D01*
X011691Y039098D02*
X013460Y039098D01*
X013374Y039257D02*
X011777Y039257D01*
X011796Y039415D02*
X013356Y039415D01*
X013393Y039574D02*
X011759Y039574D01*
X011647Y039732D02*
X013504Y039732D01*
X013509Y040049D02*
X011642Y040049D01*
X011757Y040208D02*
X013395Y040208D01*
X013356Y040366D02*
X011796Y040366D01*
X011779Y040525D02*
X013372Y040525D01*
X013418Y040683D02*
X011696Y040683D01*
X011455Y040842D02*
X013259Y040842D01*
X013101Y041000D02*
X011589Y041000D01*
X011726Y041133D02*
X011726Y041133D01*
X009816Y025784D02*
X009584Y025784D01*
X009727Y025626D02*
X009816Y025626D01*
X009816Y025467D02*
X009786Y025467D01*
X009786Y025309D02*
X009816Y025309D01*
X007865Y020554D02*
X007468Y020554D01*
X007536Y020395D02*
X007682Y020395D01*
X007617Y020237D02*
X007536Y020237D01*
X007536Y020078D02*
X007616Y020078D01*
X007670Y019920D02*
X007536Y019920D01*
X007497Y019761D02*
X007807Y019761D01*
X006901Y018969D02*
X009279Y018969D01*
X009289Y018979D02*
X009240Y018930D01*
X009199Y018874D01*
X009168Y018812D01*
X009146Y018746D01*
X009136Y018678D01*
X009136Y018643D01*
X009136Y018609D01*
X009146Y018540D01*
X009168Y018474D01*
X009199Y018413D01*
X009240Y018357D01*
X009289Y018308D01*
X009345Y018267D01*
X009407Y018236D01*
X009473Y018214D01*
X009541Y018203D01*
X009576Y018203D01*
X009576Y018643D01*
X009136Y018643D01*
X009576Y018643D01*
X009576Y018643D01*
X009576Y018643D01*
X009576Y019083D01*
X009541Y019083D01*
X009473Y019072D01*
X009407Y019051D01*
X009345Y019020D01*
X009289Y018979D01*
X009167Y018810D02*
X007004Y018810D01*
X007036Y018652D02*
X009136Y018652D01*
X009162Y018493D02*
X007011Y018493D01*
X006918Y018335D02*
X009262Y018335D01*
X009576Y018335D02*
X009576Y018335D01*
X009576Y018493D02*
X009576Y018493D01*
X009576Y018652D02*
X009576Y018652D01*
X009576Y018810D02*
X009576Y018810D01*
X009576Y018969D02*
X009576Y018969D01*
X009872Y018969D02*
X010065Y018969D01*
X009964Y019127D02*
X006356Y019127D01*
X006356Y019286D02*
X009948Y019286D01*
X010000Y019444D02*
X006356Y019444D01*
X006356Y017542D02*
X007393Y017542D01*
X007177Y017384D02*
X006356Y017384D01*
X006356Y017225D02*
X007098Y017225D01*
X007079Y017067D02*
X006356Y017067D01*
X006356Y016908D02*
X007109Y016908D01*
X007203Y016750D02*
X006356Y016750D01*
X004846Y015799D02*
X004806Y015799D01*
X004806Y015640D02*
X004846Y015640D01*
X004846Y015482D02*
X004806Y015482D01*
X004806Y015323D02*
X004846Y015323D01*
X004846Y015165D02*
X004806Y015165D01*
X004806Y015006D02*
X004846Y015006D01*
X004846Y014848D02*
X004806Y014848D01*
X004806Y014689D02*
X004846Y014689D01*
X004846Y014531D02*
X004806Y014531D01*
X004806Y014372D02*
X004846Y014372D01*
X004846Y014214D02*
X004806Y014214D01*
X004806Y014055D02*
X004846Y014055D01*
X005278Y013580D02*
X005796Y013580D01*
X005796Y013738D02*
X005354Y013738D01*
X005111Y013421D02*
X005796Y013421D01*
X005796Y013263D02*
X005262Y013263D01*
X005355Y013104D02*
X005796Y013104D01*
X005796Y012946D02*
X005396Y012946D01*
X005396Y012787D02*
X005796Y012787D01*
X005796Y012629D02*
X005333Y012629D01*
X005209Y012470D02*
X005796Y012470D01*
X005796Y012312D02*
X002894Y012312D01*
X002894Y012470D02*
X003443Y012470D01*
X003318Y012629D02*
X002894Y012629D01*
X002894Y012787D02*
X003256Y012787D01*
X003256Y012946D02*
X002894Y012946D01*
X002894Y013104D02*
X003296Y013104D01*
X003389Y013263D02*
X002894Y013263D01*
X002894Y013421D02*
X003540Y013421D01*
X003374Y013580D02*
X002894Y013580D01*
X002894Y013738D02*
X003298Y013738D01*
X003806Y014055D02*
X003846Y014055D01*
X003846Y014214D02*
X003806Y014214D01*
X003806Y014372D02*
X003846Y014372D01*
X003846Y014531D02*
X003806Y014531D01*
X003806Y014689D02*
X003846Y014689D01*
X003846Y014848D02*
X003806Y014848D01*
X003806Y015006D02*
X003846Y015006D01*
X003846Y015165D02*
X003806Y015165D01*
X003806Y015323D02*
X003846Y015323D01*
X003846Y015482D02*
X003806Y015482D01*
X003806Y015640D02*
X003846Y015640D01*
X003846Y015799D02*
X003806Y015799D01*
X004209Y012470D02*
X004443Y012470D01*
X004963Y011836D02*
X003689Y011836D01*
X003825Y011678D02*
X004827Y011678D01*
X004761Y011519D02*
X003890Y011519D01*
X003896Y011361D02*
X004756Y011361D01*
X004788Y011202D02*
X003864Y011202D01*
X003782Y011044D02*
X004869Y011044D01*
X005063Y010885D02*
X003589Y010885D01*
X003707Y010568D02*
X004195Y010568D01*
X004253Y010627D02*
X004092Y010466D01*
X004006Y010257D01*
X004006Y010030D01*
X004092Y009820D01*
X004253Y009660D01*
X004462Y009573D01*
X004689Y009573D01*
X004899Y009660D01*
X005059Y009820D01*
X005146Y010030D01*
X005146Y010257D01*
X005059Y010466D01*
X004899Y010627D01*
X004689Y010713D01*
X004462Y010713D01*
X004253Y010627D01*
X004069Y010410D02*
X003832Y010410D01*
X003896Y010251D02*
X004006Y010251D01*
X004006Y010093D02*
X003896Y010093D01*
X003856Y009934D02*
X004045Y009934D01*
X004137Y009776D02*
X003764Y009776D01*
X003545Y009617D02*
X004356Y009617D01*
X004745Y009459D02*
X002894Y009459D01*
X002894Y009617D02*
X003106Y009617D01*
X002894Y009300D02*
X003837Y009300D01*
X003678Y009142D02*
X002894Y009142D01*
X002894Y008983D02*
X003520Y008983D01*
X003361Y008825D02*
X002894Y008825D01*
X002894Y008666D02*
X003099Y008666D01*
X002945Y010568D02*
X002894Y010568D01*
X002894Y010727D02*
X005796Y010727D01*
X005796Y010885D02*
X005589Y010885D01*
X005782Y011044D02*
X005796Y011044D01*
X005796Y011836D02*
X005689Y011836D01*
X005796Y011995D02*
X002894Y011995D01*
X002894Y012153D02*
X005796Y012153D01*
X005796Y010568D02*
X004957Y010568D01*
X005082Y010410D02*
X005696Y010410D01*
X005538Y010251D02*
X005146Y010251D01*
X005146Y010093D02*
X005379Y010093D01*
X005221Y009934D02*
X005106Y009934D01*
X005062Y009776D02*
X005014Y009776D01*
X004904Y009617D02*
X004795Y009617D01*
X003063Y010885D02*
X002894Y010885D01*
X002894Y011836D02*
X002963Y011836D01*
X002894Y024833D02*
X002936Y024833D01*
X012536Y024833D02*
X012735Y024833D01*
X012640Y024992D02*
X012536Y024992D01*
X012536Y025150D02*
X012616Y025150D01*
X012646Y025309D02*
X012536Y025309D01*
X012536Y025467D02*
X012749Y025467D01*
X012888Y012470D02*
X013645Y012470D01*
X014186Y011995D02*
X013073Y011995D01*
X013012Y011836D02*
X013996Y011836D01*
X012909Y003594D02*
X012890Y003594D01*
X021168Y018335D02*
X021484Y018335D01*
X021216Y018383D02*
X021216Y018383D01*
X021151Y018969D02*
X021501Y018969D01*
D23*
X015076Y019143D02*
X014976Y019243D01*
X010326Y019243D01*
X015076Y033393D02*
X018576Y033393D01*
X014076Y034393D02*
X013826Y034393D01*
X013326Y034893D01*
X011826Y034893D01*
X011326Y035393D01*
X011076Y035393D01*
D24*
X013076Y033143D03*
X015576Y032393D03*
X017576Y035893D03*
X017076Y036143D03*
X018576Y033393D03*
X019076Y031393D03*
X019826Y031643D03*
X020076Y028393D03*
X017576Y028768D03*
X017076Y026393D03*
X015576Y026393D03*
X015076Y019143D03*
X011076Y023893D03*
X010326Y019243D03*
X008076Y026393D03*
X006076Y028893D03*
X005826Y027893D03*
X004326Y028893D03*
X005076Y031393D03*
X014326Y011643D03*
X014326Y009393D03*
X013576Y004393D03*
X009326Y010893D03*
X018826Y011893D03*
X020576Y035893D03*
X018826Y040393D03*
D25*
X015576Y040393D01*
X015076Y040893D01*
X013576Y040893D01*
X013076Y041393D01*
X011076Y041393D01*
X011076Y040393D02*
X010826Y040143D01*
X005826Y040143D01*
X003826Y038143D01*
X003701Y038143D01*
X003701Y037143D02*
X003826Y037143D01*
X006076Y039393D01*
X011076Y039393D01*
X013076Y033143D02*
X012826Y032893D01*
X004326Y032893D01*
X004076Y031143D02*
X003576Y031143D01*
X003076Y031643D01*
X003076Y032893D01*
X004076Y031143D02*
X004326Y030893D01*
X004326Y029893D01*
X004326Y028893D02*
X006076Y028893D01*
X005826Y027893D02*
X003326Y027893D01*
X003076Y027643D01*
X003076Y027393D01*
X003076Y024393D02*
X004326Y024393D01*
X004826Y025393D02*
X006326Y025393D01*
X006326Y024393D02*
X005326Y024393D01*
X008076Y026393D02*
X009326Y026393D01*
X010326Y027393D01*
X010326Y030643D01*
X010576Y030893D01*
X011576Y030893D01*
X012076Y031393D01*
X014076Y031393D01*
X014576Y031393D01*
X015576Y032393D01*
X015576Y031393D02*
X019076Y031393D01*
X019826Y031643D02*
X020826Y031643D01*
X021826Y031643D01*
X021576Y030643D02*
X019576Y028643D01*
X017701Y028643D01*
X017576Y028768D01*
X018826Y027893D02*
X015576Y027893D01*
X015076Y027393D01*
X011576Y027393D01*
X010326Y026143D01*
X010326Y024893D01*
X009826Y024393D01*
X009826Y023893D01*
X009326Y023393D01*
X009326Y024393D02*
X010076Y025143D01*
X010076Y026393D01*
X011326Y027643D01*
X014826Y027643D01*
X015326Y028143D01*
X019076Y028143D01*
X019576Y027643D01*
X020576Y027643D01*
X021076Y027143D02*
X019576Y027143D01*
X018826Y027893D01*
X020076Y028393D02*
X015076Y028393D01*
X014576Y027893D01*
X011576Y027893D01*
X011076Y028393D01*
X011076Y023893D02*
X014076Y023893D01*
X014576Y023393D01*
X019576Y023393D01*
X019576Y023143D01*
X019951Y022768D01*
X019951Y022018D01*
X018576Y021643D02*
X017576Y021643D01*
X017576Y024643D02*
X016076Y024643D01*
X015826Y024893D01*
X014701Y024893D01*
X015576Y026393D02*
X017076Y026393D01*
X014576Y030393D02*
X015576Y031393D01*
X014576Y030393D02*
X014076Y030393D01*
X017076Y036143D02*
X017326Y036393D01*
X017326Y037893D01*
X019076Y039643D01*
X021076Y039643D01*
X021826Y040393D01*
X021826Y039393D02*
X019326Y039393D01*
X017576Y037643D01*
X017576Y035893D01*
X017576Y034691D02*
X018373Y033893D01*
X020076Y033893D01*
X020826Y034643D01*
X021326Y034393D02*
X020576Y033643D01*
X018826Y033643D01*
X018576Y033393D01*
X020576Y035893D02*
X020576Y037393D01*
X021576Y038393D01*
X021826Y038393D01*
X021826Y036393D02*
X021826Y035393D01*
X021326Y034893D01*
X021326Y034393D01*
X021576Y027643D02*
X021076Y027143D01*
X020826Y018643D02*
X021826Y018643D01*
X021326Y012393D02*
X020826Y011893D01*
X020826Y009143D01*
X019826Y009143D02*
X019826Y011893D01*
X018826Y011893D02*
X018826Y003643D01*
X018389Y003206D01*
X017576Y003206D01*
X014326Y009393D02*
X014326Y011643D01*
X013576Y004393D02*
X013326Y004143D01*
X013326Y003643D01*
X012889Y003206D01*
X012576Y003206D01*
X009326Y010893D02*
X008763Y010893D01*
X007576Y012080D01*
D26*
X004826Y025393D03*
M02*
