<?xml version="1.0" encoding="UTF-8" standalone="no"?>
<!-- Created with Inkscape (http://www.inkscape.org/) -->

<svg
   xmlns:dc="http://purl.org/dc/elements/1.1/"
   xmlns:cc="http://creativecommons.org/ns#"
   xmlns:rdf="http://www.w3.org/1999/02/22-rdf-syntax-ns#"
   xmlns:svg="http://www.w3.org/2000/svg"
   xmlns="http://www.w3.org/2000/svg"
   xmlns:xlink="http://www.w3.org/1999/xlink"
   xmlns:sodipodi="http://sodipodi.sourceforge.net/DTD/sodipodi-0.dtd"
   xmlns:inkscape="http://www.inkscape.org/namespaces/inkscape"
   id="svg4373"
   version="1.1"
   inkscape:version="0.92.1 r15371"
   width="210.00014mm"
   height="297.00009mm"
   xml:space="preserve"
   sodipodi:docname="GoniesLabels.svg"
   viewBox="0 0 744.09496 1052.3625"><sodipodi:namedview
     pagecolor="#ffffff"
     bordercolor="#666666"
     borderopacity="1"
     objecttolerance="10"
     gridtolerance="10"
     guidetolerance="10"
     inkscape:pageopacity="0"
     inkscape:pageshadow="2"
     inkscape:window-width="1680"
     inkscape:window-height="986"
     id="namedview4375"
     showgrid="false"
     inkscape:zoom="1.566337"
     inkscape:cx="185.33681"
     inkscape:cy="199.05782"
     inkscape:window-x="240"
     inkscape:window-y="27"
     inkscape:window-maximized="1"
     inkscape:current-layer="flowRoot3001-3"
     inkscape:document-units="mm"
     showguides="false"
     inkscape:guide-bbox="true"
     units="mm" /><metadata
     id="metadata4379"><rdf:RDF><cc:Work
         rdf:about=""><dc:format>image/svg+xml</dc:format><dc:type
           rdf:resource="http://purl.org/dc/dcmitype/StillImage" /><dc:title></dc:title></cc:Work></rdf:RDF></metadata><defs
     id="defs4377"><clipPath
       id="clipPath4387"
       clipPathUnits="userSpaceOnUse"><path
         inkscape:connector-curvature="0"
         id="path4389"
         d="M 0,0 H 595.276 V 841.89 H 0 Z" /></clipPath><clipPath
       id="clipPath4421"
       clipPathUnits="userSpaceOnUse"><path
         inkscape:connector-curvature="0"
         id="path4423"
         d="M 0,0 H 595.276 V 841.89 H 0 Z" /></clipPath><clipPath
       id="clipPath4443"
       clipPathUnits="userSpaceOnUse"><path
         inkscape:connector-curvature="0"
         id="path4445"
         d="M 0,0 H 595.276 V 841.89 H 0 Z" /></clipPath><clipPath
       id="clipPath7941"
       clipPathUnits="userSpaceOnUse"><path
         id="path7943"
         d="M 0,0 H 595.276 V 841.89 H 0 Z"
         inkscape:connector-curvature="0" /></clipPath><clipPath
       id="clipPath7975"
       clipPathUnits="userSpaceOnUse"><path
         id="path7977"
         d="M 0,0 H 595.276 V 841.89 H 0 Z"
         inkscape:connector-curvature="0" /></clipPath><clipPath
       id="clipPath7997"
       clipPathUnits="userSpaceOnUse"><path
         id="path7999"
         d="M 0,0 H 595.276 V 841.89 H 0 Z"
         inkscape:connector-curvature="0" /></clipPath></defs><g
     transform="matrix(1.25,0,0,-1.25,0,1052.3625)"
     inkscape:label="content"
     inkscape:groupmode="layer"
     id="g4381"><g
       inkscape:tile-y0="912.55037"
       inkscape:tile-x0="22.281616"
       inkscape:tile-h="129.62935"
       inkscape:tile-w="203.15552"
       inkscape:tile-cy="977.36505"
       inkscape:tile-cx="123.85937"
       transform="matrix(1.0000045,0,0,1,0.22200192,-721.66836)"
       id="g4685"><g
         transform="matrix(0.68631727,0,0,-0.68631727,-31.837369,883.75758)"
         style="font-style:normal;font-variant:normal;font-weight:normal;font-stretch:normal;font-size:40px;line-height:125%;font-family:'More than human';-inkscape-font-specification:'More than human';text-align:start;letter-spacing:0px;word-spacing:0px;writing-mode:lr-tb;text-anchor:start;fill:#000000;fill-opacity:1;stroke:none"
         id="flowRoot2985"><path
           inkscape:connector-curvature="0"
           d="m 79.5375,81.455617 h -2.55 v 9.21 l 2.55,-1.29 v -7.92 m 1.2,-1.2 v 9.87 l -4.95,2.49 v -12.36 h 4.95 m -7.5,19.920003 -0.63,5.76 -0.57,-5.76 V 76.505617 h 12.45 v 15.93 l -2.97,1.5 2.97,1.56 v 4.680003 l -0.63,5.76 -0.57,-5.76 v -3.960003 l -4.38,-2.31 4.38,-2.19 v -14.01 h -10.05 v 22.470003 m 3.75,0 -0.63,5.76 -0.57,-5.76 v -4.890003 l 4.95,2.58 v 2.310003 l -0.63,5.76 -0.57,-5.76 v -1.590003 l -2.52,-1.32 v 2.910003 h -0.03"
           style="font-size:30px;line-height:125%;font-family:'More than human';-inkscape-font-specification:'More than human'"
           id="path3134" /><path
           inkscape:connector-curvature="0"
           d="m 100.13203,102.57562 -0.629999,5.76 -0.57,-5.76 v -6.120003 h -7.5 v -4.98 h 7.5 v -2.52 h -7.5 v -8.73 h 4.95 v 3.75 h 2.55 v -6.27 h -10.05 v 23.070003 l -0.63,5.76 -0.57,-5.76 V 76.505617 h 12.449999 v 8.67 h -4.949999 v -3.75 h -2.55 v 6.33 h 7.499999 v 4.92 h -7.499999 v 2.58 h 7.499999 v 7.320003"
           style="font-size:30px;line-height:125%;font-family:'More than human';-inkscape-font-specification:'More than human'"
           id="path3136" /><path
           inkscape:connector-curvature="0"
           d="m 110.70937,81.455617 h -2.55 v 5.46 l 2.55,-1.29 v -4.17 m 1.2,-1.2 v 6.12 l -4.95,2.49 v -8.61 h 4.95 m -1.2,14.55 -2.55,-1.29 v 1.71 h 2.55 v -0.42 m 1.2,-0.75 v 2.37 h -4.95 v -4.86 l 4.95,2.49 m 3.75,5.82 -0.62999,5.760003 -0.57001,-5.760003 v -7.41 l -4.37999,-2.31 4.37999,-2.19 v -10.26 h -10.05 v 24.570003 l -0.62999,5.76 -0.57001,-5.76 V 76.505617 h 12.45 v 12.18 l -2.97,1.5 2.97,1.56 v 8.13"
           style="font-size:30px;line-height:125%;font-family:'More than human';-inkscape-font-specification:'More than human'"
           id="path3139" /><path
           inkscape:connector-curvature="0"
           d="m 131.30391,102.57562 -0.63,5.76 -0.57,-5.76 v -6.120003 h -7.5 v -4.98 h 7.5 v -2.52 h -7.5 v -8.73 h 4.95 v 3.75 h 2.55 v -6.27 h -10.05 v 23.070003 l -0.63,5.76 -0.57,-5.76 V 76.505617 h 12.45 v 8.67 h -4.95 v -3.75 h -2.55 v 6.33 h 7.5 v 4.92 h -7.5 v 2.58 h 7.5 v 7.320003"
           style="font-size:30px;line-height:125%;font-family:'More than human';-inkscape-font-specification:'More than human'"
           id="path3141" /><path
           inkscape:connector-curvature="0"
           d="m 143.08125,99.575617 -0.63,5.760003 -0.57,-5.760003 v -3.12 h -3.75 v -18.75 h -2.55 v 24.570003 l -0.63,5.76 -0.57,-5.76 V 76.505617 h 4.95 v 18.75 h 3.75 v 4.32"
           style="font-size:30px;line-height:125%;font-family:'More than human';-inkscape-font-specification:'More than human'"
           id="path3143" /><path
           inkscape:connector-curvature="0"
           d="m 169.38984,100.17562 -0.63,5.76 -0.57,-5.76 V 80.225617 h 3.75 v -2.52 h -10.05 v 2.52 h 3.75 v 19.950003 l -0.63,5.76 -0.57,-5.76 V 81.425617 h -3.75 v -4.92 h 12.45 v 4.92 h -3.75 v 18.750003"
           style="font-size:30px;line-height:125%;font-family:'More than human';-inkscape-font-specification:'More than human'"
           id="path3145" /><path
           inkscape:connector-curvature="0"
           d="m 188.37422,102.57562 -0.63,5.76 -0.57,-5.76 v -6.120003 h -7.5 v -4.98 h 7.5 v -2.52 h -7.5 v -8.73 h 4.95 v 3.75 h 2.55 v -6.27 h -10.05 v 23.070003 l -0.63,5.76 -0.57,-5.76 V 76.505617 h 12.45 v 8.67 h -4.95 v -3.75 h -2.55 v 6.33 h 7.5 v 4.92 h -7.5 v 2.58 h 7.5 v 7.320003"
           style="font-size:30px;line-height:125%;font-family:'More than human';-inkscape-font-specification:'More than human'"
           id="path3147" /><path
           inkscape:connector-curvature="0"
           d="m 203.90156,102.27562 -0.63,5.76 -0.57,-5.76 v -9.570003 h -2.55 v 3.75 h -4.95 v -16.23 h 4.95 v 3.75 h 2.55 v -6.27 h -10.05 v 22.17 l -0.63,5.760003 -0.57,-5.760003 v -23.37 h 12.45 v 8.67 h -4.95 v -3.75 h -2.55 v 13.83 h 2.55 v -3.75 h 4.95 v 10.770003"
           style="font-size:30px;line-height:125%;font-family:'More than human';-inkscape-font-specification:'More than human'"
           id="path3149" /><path
           inkscape:connector-curvature="0"
           d="m 219.37031,100.77562 -0.63,5.76 -0.57,-5.76 V 77.705617 h -2.55 v 15 h -4.95 v -15 h -2.55 v 22.17 l -0.63,5.760003 -0.57,-5.760003 v -23.37 h 4.95 v 15 h 2.55 v -15 h 4.95 v 24.270003 m -3.75,-1.500003 -0.63,5.760003 -0.57,-5.760003 v -2.85 h -2.55 v 7.050003 l -0.63,5.76 -0.57,-5.76 v -8.250003 h 4.95 v 4.05"
           style="font-size:30px;line-height:125%;font-family:'More than human';-inkscape-font-specification:'More than human'"
           id="path3151" /><path
           inkscape:connector-curvature="0"
           d="m 231.44484,100.17562 -0.63,5.76 -0.57,-5.76 -2.7,-7.890003 v 7.29 l -0.63,5.760003 -0.57,-5.760003 h -0.03 l 0.03,-14.43 5.1,15.030003 m 3.57,0.9 -0.63,5.76 -0.57,-5.76 V 77.705617 h -2.58 v 13.83 l -4.77,-13.83 h -2.7 v 25.770003 l -0.63,5.76 -0.57,-5.76 V 76.505617 h 4.77 l 2.7,7.89 v -7.89 h 4.98 v 24.570003"
           style="font-size:30px;line-height:125%;font-family:'More than human';-inkscape-font-specification:'More than human'"
           id="path3153" /><path
           inkscape:connector-curvature="0"
           d="m 245.70937,81.455617 h -2.55 v 13.77 h 2.55 v -13.77 m 1.2,-1.2 v 16.17 h -4.95 v -16.17 h 4.95 m 3.75,19.62 -0.63,5.760003 -0.57,-5.760003 v -22.17 h -10.05 v 25.470003 l -0.63,5.76 -0.57,-5.76 V 76.505617 h 12.45 v 23.37"
           style="font-size:30px;line-height:125%;font-family:'More than human';-inkscape-font-specification:'More than human'"
           id="path3155" /><path
           inkscape:connector-curvature="0"
           d="m 262.55391,99.575617 -0.63,5.760003 -0.57,-5.760003 v -3.12 h -3.75 v -18.75 h -2.55 v 24.570003 l -0.63,5.76 -0.57,-5.76 V 76.505617 h 4.95 v 18.75 h 3.75 v 4.32"
           style="font-size:30px;line-height:125%;font-family:'More than human';-inkscape-font-specification:'More than human'"
           id="path3157" /><path
           inkscape:connector-curvature="0"
           d="m 272.6625,81.455617 h -2.55 v 13.77 h 2.55 v -13.77 m 1.2,-1.2 v 16.17 h -4.95 v -16.17 h 4.95 m 3.75,19.62 -0.63,5.760003 -0.57,-5.760003 v -22.17 h -10.05 v 25.470003 l -0.63,5.76 -0.57,-5.76 V 76.505617 h 12.45 v 23.37"
           style="font-size:30px;line-height:125%;font-family:'More than human';-inkscape-font-specification:'More than human'"
           id="path3159" /><path
           inkscape:connector-curvature="0"
           d="m 293.25703,101.97562 -0.63,5.76 -0.57,-5.76 V 88.955617 h -2.55 v 7.5 h -4.95 v -16.23 h 4.95 v 3.75 h 2.55 v -6.27 h -10.05 v 21.87 l -0.63,5.760003 -0.57,-5.760003 v -23.07 h 12.45 v 8.67 h -4.95 v -3.75 h -2.55 v 13.83 h 2.55 v -7.5 h 4.95 v 14.220003"
           style="font-size:30px;line-height:125%;font-family:'More than human';-inkscape-font-specification:'More than human'"
           id="path3161" /><path
           inkscape:connector-curvature="0"
           d="m 308.84297,99.575617 -0.63,5.760003 -0.57,-5.760003 v -21.87 h -2.55 v 11.25 h -4.95 v -11.25 h -2.55 v 13.77 h 7.5 v 4.98 h -7.5 v 7.320003 l -0.63,5.76 -0.57,-5.76 v -8.520003 h 7.5 v -2.58 h -7.5 v -16.17 h 4.95 v 11.25 h 2.55 v -11.25 h 4.95 v 23.07"
           style="font-size:30px;line-height:125%;font-family:'More than human';-inkscape-font-specification:'More than human'"
           id="path3163" /></g><g
         transform="matrix(2.3345771,0,0,-2.3345876,-593.33134,1390.2438)"
         id="g642-9-3"
         style="display:inline"><path
           style="clip-rule:evenodd;fill-rule:evenodd"
           inkscape:connector-curvature="0"
           id="path644-1-6"
           d="m 275.942,255.302 c 0.177,0.329 0.129,0.917 0.088,1.452 -0.035,0.457 0.104,1.229 -0.44,1.188 -0.285,-0.463 -0.354,-1.141 -0.66,-1.583 -0.49,-0.067 -0.851,-0.263 -1.232,-0.44 -0.291,0.072 -0.426,0.316 -0.704,0.396 -0.682,0.197 -1.408,-0.265 -2.023,-0.088 -0.2,1.684 -0.471,4.285 -0.44,6.159 0.018,1.11 0.589,1.935 1.319,2.376 0.264,-0.016 0.363,-0.194 0.616,-0.22 0.22,0.161 0.418,0.344 0.352,0.792 -0.241,0.296 -0.92,0.309 -1.275,0.132 -0.409,0.127 -1.041,0.054 -1.584,0.088 -0.898,0.055 -2.438,0.139 -2.551,-0.176 -0.323,-0.893 1.604,-0.342 1.715,-0.835 -0.096,-0.948 -0.197,-1.917 -0.22,-2.948 -0.011,-0.491 0.212,-1.013 0.132,-1.496 -0.036,-0.215 -0.279,-0.404 -0.308,-0.616 -0.058,-0.427 0.241,-0.773 0.308,-1.188 0.039,-0.241 -0.039,-0.603 0,-0.924 0.027,-0.226 0.152,-0.472 0.132,-0.616 -0.075,-0.524 -0.816,-0.544 -1.232,-0.616 -0.032,-0.234 -0.151,-0.825 0.044,-0.879 0.482,-0.019 0.946,0.191 1.451,0.176 0.245,-0.007 0.496,-0.115 0.748,-0.132 0.585,-0.038 1.166,0.18 1.715,0.132 0.258,-0.022 0.491,-0.15 0.749,-0.176 1.055,-0.107 2.196,0.111 3.3,0.042 z" /><path
           style="clip-rule:evenodd;fill-rule:evenodd"
           inkscape:connector-curvature="0"
           id="path646-0-7"
           d="m 283.968,263.5 c 0.384,0.514 1.482,0.084 2.2,0.132 0.371,-0.195 0.404,-1.118 1.056,-0.748 0.058,0.711 -0.281,1.621 -0.044,2.288 -0.943,0.272 -2.353,0.007 -3.476,0.176 -0.197,0.029 -0.33,0.237 -0.528,0.132 -0.098,-0.936 0.087,-1.668 0,-2.464 0.274,-0.501 1.078,-0.688 1.364,-1.319 0.083,-0.183 0.047,-0.585 0.132,-0.924 0.291,-1.15 0.408,-2.772 -0.396,-3.651 -0.474,-0.454 -1.055,-0.95 -1.804,-1.1 -0.396,-0.08 -0.97,0.004 -1.364,0.176 -0.972,0.425 -1.765,2.06 -1.892,3.431 -0.146,1.586 0.689,2.842 1.892,3.343 -0.094,1.001 0.278,1.613 0.044,2.464 -0.522,-0.002 -1.105,-0.086 -1.672,-0.088 -0.287,0 -0.651,0.152 -0.968,0.176 -0.253,0.02 -0.481,-0.044 -0.66,0 -0.162,0.04 -0.377,0.286 -0.528,0.265 -0.175,-0.025 -0.337,-0.328 -0.352,-0.572 -0.022,-0.349 0.262,-0.622 0.264,-1.012 0,-0.495 -0.298,-0.801 -0.176,-1.232 0.077,-0.071 0.299,-0.225 0.396,-0.132 0.252,0.125 0.27,0.41 0.483,0.572 0.516,0.391 1.374,0.294 2.156,0.176 -0.49,-0.692 -1.46,-0.731 -1.98,-1.32 -0.281,-0.319 -0.605,-0.991 -0.616,-1.583 -0.006,-0.324 0.104,-0.65 0.088,-1.012 -0.013,-0.278 -0.128,-0.527 -0.088,-0.836 0.185,-1.409 1.625,-3.046 3.255,-3.388 0.244,-0.051 0.588,0.008 0.879,-0.044 0.283,-0.05 0.771,-0.195 1.232,-0.132 0.15,0.02 0.303,0.14 0.484,0.176 0.302,0.06 0.629,-0.011 0.88,0.088 0.408,0.161 1.227,0.809 1.54,1.144 0.656,0.704 0.941,1.856 0.923,2.947 -0.031,2.11 -1.38,2.854 -2.724,3.871 z" /><path
           style="clip-rule:evenodd;fill-rule:evenodd"
           inkscape:connector-curvature="0"
           id="path648-7-5"
           d="m 297.265,262.436 c 0.163,-0.162 0.193,-0.508 0.22,-0.836 0.067,-0.807 0.124,-2.03 0.044,-2.772 -0.013,-0.111 -0.111,-0.259 -0.133,-0.396 -0.159,-1.071 0.093,-2.627 -1.407,-2.419 -0.07,-0.125 -0.07,-0.492 0,-0.616 1.226,0.093 2.324,0.047 3.432,0.088 0.081,0.094 0.029,0.322 0.044,0.484 -0.248,0.092 -0.44,-0.031 -0.748,0 -0.526,0.463 -0.61,1.006 -0.661,1.979 -0.026,0.492 0.118,1.124 0.176,1.76 0.074,0.794 -0.078,1.657 -0.088,2.64 -0.005,0.498 -0.057,1.169 0,1.671 0.048,0.433 0.383,0.954 0.133,1.584 -0.288,0.029 -0.426,-0.272 -0.573,-0.44 -0.164,-0.188 -0.366,-0.312 -0.528,-0.484 -0.648,-0.688 -1.139,-1.626 -1.979,-2.111 -0.395,-0.911 -1.271,-1.341 -1.628,-2.288 -0.717,-0.47 -1.049,-1.326 -1.715,-1.848 -0.372,0.423 -0.1,1.111 -0.176,1.716 -0.054,0.433 -0.22,1.137 -0.175,1.804 0.022,0.338 0.166,0.677 0.175,1.012 0.011,0.419 -0.107,0.75 0,1.056 0.125,0.354 0.559,0.471 0.836,0.616 0.221,0.031 0.306,-0.075 0.528,-0.043 0.011,0.131 0.147,0.468 0.044,0.704 -1.308,0.032 -2.568,0.392 -3.74,0.132 -0.056,-1.003 1.319,-0.445 1.408,-1.496 0.01,-0.122 -0.083,-0.276 -0.088,-0.396 -0.017,-0.345 0.176,-0.804 0.176,-1.275 0,-1.397 -0.278,-3.244 -0.044,-4.62 -0.186,-0.753 -0.715,-1.163 -1.276,-1.54 -0.228,-0.022 -0.221,0.189 -0.484,0.132 -0.226,-0.17 -0.378,-0.414 -0.352,-0.836 0.415,-0.08 0.82,-0.139 1.232,-0.132 0.306,0.005 0.59,0.163 0.88,0.176 0.294,0.013 0.613,-0.129 0.924,-0.044 0.48,0.133 1.161,1.305 1.496,1.759 0.244,0.332 0.402,0.654 0.616,1.056 0.423,0.797 1.343,1.008 1.451,1.892 0.686,0.502 0.984,1.391 1.76,1.804 0.094,0.155 -0.046,0.544 0.22,0.527 z" /><path
           style="clip-rule:evenodd;fill-rule:evenodd"
           inkscape:connector-curvature="0"
           id="path650-5-3"
           d="m 305.06,255.357 c 0.103,0.219 -0.003,0.572 -0.044,0.792 -0.189,0.098 -0.39,-0.006 -0.572,-0.043 -0.522,0.198 -0.654,1.289 -0.616,1.98 0.023,0.409 0.176,1.063 0.177,1.716 10e-4,0.448 0.049,1.071 0,1.627 -0.086,0.997 -0.304,1.895 -0.089,2.463 0.188,0.496 0.712,0.742 1.101,0.924 0.192,0.011 0.367,-0.162 0.528,-0.044 0.042,0.229 0.033,0.759 -0.088,0.968 -0.326,0.176 -0.564,-0.169 -0.881,-0.22 -0.642,-0.104 -1.528,0.306 -2.332,0.22 -0.381,-0.041 -0.772,-0.145 -1.231,-0.088 -0.073,-0.255 -0.012,-0.583 0.044,-0.836 0.21,-0.286 0.595,-0.008 0.925,-0.088 0.552,-0.133 0.637,-1.633 0.615,-2.595 -0.003,-0.129 -0.112,-0.488 -0.132,-0.66 -0.044,-0.409 0.033,-0.865 0,-1.32 -0.028,-0.391 -0.221,-0.75 -0.221,-1.231 10e-4,-0.306 -0.029,-0.604 -0.043,-0.88 -0.039,-0.785 0.175,-1.587 -0.309,-1.936 -0.396,0.045 -0.626,-0.078 -0.88,-0.176 -0.023,-0.167 -0.106,-0.275 -0.088,-0.484 1.427,-0.099 2.893,-0.081 4.136,-0.089 z" /><path
           style="clip-rule:evenodd;fill-rule:evenodd"
           inkscape:connector-curvature="0"
           id="path652-8-5"
           d="m 314.903,255.399 c 0.073,0.286 -0.001,0.684 0,1.144 0.003,0.592 0.283,1.442 -0.396,1.408 -0.381,-0.537 -0.335,-1.389 -1.1,-1.627 -0.125,-0.04 -0.286,0.022 -0.439,0 -0.349,-0.052 -0.688,-0.252 -1.101,-0.264 -0.683,-0.02 -1.271,-0.055 -1.804,0.176 -0.021,0.494 0.055,1.312 0.088,2.068 0.025,0.574 -0.147,1.104 0.352,1.232 1.072,-0.044 2.75,0.41 2.771,-1.056 0.131,-0.117 0.565,-0.123 0.748,-0.044 -0.298,0.935 -0.134,2.035 -0.132,3.124 -0.196,0.043 -0.336,0.102 -0.527,0.044 -0.154,-0.169 -0.208,-0.438 -0.264,-0.704 -0.533,-0.636 -1.95,-0.355 -2.86,-0.44 -0.312,0.49 -0.271,1.401 -0.264,2.068 0.006,0.477 0.085,0.962 0.088,1.408 0.102,0.089 0.207,0.174 0.308,0.264 1.242,-0.011 1.934,0.241 3.256,0.176 0.418,-0.021 0.941,-0.754 1.1,-1.1 0.214,-0.465 0.233,-0.985 0.88,-0.571 -0.255,1.079 -0.713,1.955 -1.1,2.903 -1.051,-0.093 -2.613,-0.217 -3.915,-0.22 -0.663,-10e-4 -1.235,0.028 -1.848,0 -0.645,-0.03 -1.166,0.065 -1.584,0.22 -0.035,-0.254 -0.121,-0.605 -0.044,-0.835 0.472,-0.122 1.303,-0.468 1.408,-1.056 0.036,-0.206 -0.053,-0.528 -0.045,-0.792 0.04,-1.243 -0.004,-3.021 0,-4.312 0.001,-0.148 0.062,-0.31 0.045,-0.439 -0.087,-0.648 -0.63,-1.151 -0.44,-1.848 -0.252,-0.411 -0.952,-0.118 -1.056,-0.66 -0.037,-0.188 0.028,-0.496 0.264,-0.483 0.543,0.027 1.252,0.211 1.98,0.132 1.584,-0.178 4.13,0.027 5.631,0.084 z" /><path
           style="clip-rule:evenodd;fill-rule:evenodd"
           inkscape:connector-curvature="0"
           id="path654-7-6"
           d="m 324.719,255.488 c 0.314,0.609 0.258,1.667 0.352,2.552 -0.2,0.062 -0.42,0.107 -0.659,0.132 0.299,-2.227 -2.775,-1.945 -4.576,-1.627 0.415,0.617 0.63,1.287 1.145,1.935 0.185,0.233 0.47,0.433 0.748,0.748 0.107,0.121 0.689,0.665 0.704,0.792 0.043,0.398 -0.725,0.855 -0.924,1.144 -0.1,0.144 -0.161,0.325 -0.265,0.484 -0.1,0.154 -0.195,0.29 -0.308,0.44 -0.437,0.585 -0.923,1.142 -1.408,1.671 0.653,0.355 1.55,-0.068 2.464,-0.044 0.867,0.024 1.727,0.205 2.2,-0.352 0.27,-0.318 0.172,-0.749 0.527,-1.056 0.183,0 0.417,-0.111 0.572,0 0.211,1.21 -0.234,1.938 -0.309,2.948 -0.648,0.193 -1.345,0.057 -2.067,0.044 -0.264,-0.005 -0.532,0.111 -0.791,0.132 -0.258,0.02 -0.52,-0.041 -0.793,-0.044 -0.444,-0.005 -0.89,0.135 -1.275,0.132 -0.214,-0.001 -0.408,-0.126 -0.616,-0.132 -0.161,-0.005 -0.312,0.086 -0.484,0.088 -0.221,0.003 -0.454,-0.092 -0.66,-0.088 -0.435,0.009 -0.81,0.333 -1.231,0.176 -0.049,-0.757 0.548,-1.08 0.924,-1.584 0.14,-0.186 0.183,-0.408 0.308,-0.571 0.283,-0.368 0.69,-0.685 1.013,-1.056 0.155,-0.179 0.29,-0.398 0.439,-0.572 0.33,-0.381 0.646,-0.702 0.969,-1.1 -0.342,-0.583 -0.61,-1.238 -1.101,-1.671 -0.564,-1.415 -2.029,-1.931 -2.463,-3.476 0.972,-0.404 2.165,-0.037 3.343,0 0.395,0.013 0.802,-0.102 1.232,-0.132 0.606,-0.042 1.212,0.209 1.716,0.176 0.416,-0.028 0.862,-0.34 1.274,-0.089 z" /></g><g
         transform="matrix(0.68631297,0,0,-0.68631297,6.0598183,922.61417)"
         style="font-style:normal;font-variant:normal;font-weight:normal;font-stretch:normal;font-size:12px;line-height:125%;font-family:Sans;-inkscape-font-specification:Sans;text-align:start;letter-spacing:0px;word-spacing:0px;writing-mode:lr-tb;text-anchor:start;fill:#000000;fill-opacity:1;stroke:none;stroke-width:0.93750584"
         id="flowRoot3001"><g
           id="flowRoot3001-3"
           style="font-style:normal;font-variant:normal;font-weight:normal;font-stretch:normal;font-size:12px;line-height:125%;font-family:Sans;-inkscape-font-specification:Sans;text-align:start;letter-spacing:0px;word-spacing:0px;writing-mode:lr-tb;text-anchor:start;fill:#000000;fill-opacity:1;stroke:none;stroke-width:0.93750584"
           transform="translate(5.0710011e-4,-4.9086306e-4)"><text
             id="text4244"
             y="253.66774"
             x="19.715643"
             style="font-style:normal;font-weight:normal;line-height:0%;font-family:sans-serif;letter-spacing:0px;word-spacing:0px;fill:#000000;fill-opacity:1;stroke:none;stroke-width:0.93750584"
             xml:space="preserve"><tspan
               style="font-size:9.94596863px;line-height:1.25;font-family:sans-serif;stroke-width:0.93750584"
               y="253.66774"
               x="19.715643"
               sodipodi:role="line"
               id="tspan4248">Rebel Technology</tspan></text>
<text
             xml:space="preserve"
             style="font-style:normal;font-weight:normal;line-height:0%;font-family:sans-serif;letter-spacing:0px;word-spacing:0px;fill:#000000;fill-opacity:1;stroke:none;stroke-width:0.93750584"
             x="19.715643"
             y="269.83456"
             id="text6700-0"><tspan
               style="font-size:9.94596863px;line-height:1.25;font-family:sans-serif;stroke-width:0.93750584"
               sodipodi:role="line"
               id="tspan6702-6"
               x="19.715643"
               y="269.83456">gonies</tspan></text>
<g
             transform="translate(156.01066,241.29118)"
             style="fill:#000000"
             id="barcode1"><rect
               height="24"
               width="1"
               id="barcode1_bar1"
               y="0"
               x="0" /><rect
               height="24"
               width="1"
               id="barcode1_bar3"
               y="0"
               x="2" /><rect
               height="20"
               width="2"
               id="barcode1_bar5"
               y="0"
               x="6" /><rect
               height="20"
               width="1"
               id="barcode1_bar7"
               y="0"
               x="9" /><rect
               height="20"
               width="1"
               id="barcode1_bar9"
               y="0"
               x="14" /><rect
               height="20"
               width="1"
               id="barcode1_bar11"
               y="0"
               x="16" /><rect
               height="20"
               width="1"
               id="barcode1_bar13"
               y="0"
               x="18" /><rect
               height="20"
               width="3"
               id="barcode1_bar15"
               y="0"
               x="21" /><rect
               height="20"
               width="2"
               id="barcode1_bar17"
               y="0"
               x="25" /><rect
               height="20"
               width="1"
               id="barcode1_bar19"
               y="0"
               x="30" /><rect
               height="20"
               width="1"
               id="barcode1_bar21"
               y="0"
               x="33" /><rect
               height="20"
               width="2"
               id="barcode1_bar23"
               y="0"
               x="36" /><rect
               height="20"
               width="1"
               id="barcode1_bar25"
               y="0"
               x="39" /><rect
               height="20"
               width="3"
               id="barcode1_bar27"
               y="0"
               x="42" /><rect
               height="24"
               width="1"
               id="barcode1_bar29"
               y="0"
               x="46" /><rect
               height="24"
               width="1"
               id="barcode1_bar31"
               y="0"
               x="48" /><rect
               height="20"
               width="1"
               id="barcode1_bar33"
               y="0"
               x="50" /><rect
               height="20"
               width="1"
               id="barcode1_bar35"
               y="0"
               x="55" /><rect
               height="20"
               width="2"
               id="barcode1_bar37"
               y="0"
               x="57" /><rect
               height="20"
               width="2"
               id="barcode1_bar39"
               y="0"
               x="61" /><rect
               height="20"
               width="3"
               id="barcode1_bar41"
               y="0"
               x="64" /><rect
               height="20"
               width="1"
               id="barcode1_bar43"
               y="0"
               x="69" /><rect
               height="20"
               width="2"
               id="barcode1_bar45"
               y="0"
               x="71" /><rect
               height="20"
               width="2"
               id="barcode1_bar47"
               y="0"
               x="75" /><rect
               height="20"
               width="1"
               id="barcode1_bar49"
               y="0"
               x="78" /><rect
               height="20"
               width="3"
               id="barcode1_bar51"
               y="0"
               x="80" /><rect
               height="20"
               width="1"
               id="barcode1_bar53"
               y="0"
               x="85" /><rect
               height="20"
               width="3"
               id="barcode1_bar55"
               y="0"
               x="88" /><rect
               height="24"
               width="1"
               id="barcode1_bar57"
               y="0"
               x="92" /><rect
               height="24"
               width="1"
               id="barcode1_bar59"
               y="0"
               x="94" /><text
               id="barcode1_text"
               xml:space="preserve"
               style="font-size:9px;line-height:0%;font-family:sans-serif;text-align:center;text-anchor:middle"
               y="29"
               x="47">5    060520     310145       </text>
</g></g></g></g><use
       height="100%"
       width="100%"
       id="use8245"
       transform="translate(0,119.90715)"
       xlink:href="#g4685"
       inkscape:tiled-clone-of="#g4685"
       y="0"
       x="0" /><use
       height="100%"
       width="100%"
       id="use8247"
       transform="translate(0,239.8143)"
       xlink:href="#g4685"
       inkscape:tiled-clone-of="#g4685"
       y="0"
       x="0" /><use
       height="100%"
       width="100%"
       id="use8249"
       transform="translate(0,359.72145)"
       xlink:href="#g4685"
       inkscape:tiled-clone-of="#g4685"
       y="0"
       x="0" /><use
       height="100%"
       width="100%"
       id="use8251"
       transform="translate(0,479.6286)"
       xlink:href="#g4685"
       inkscape:tiled-clone-of="#g4685"
       y="0"
       x="0" /><use
       height="100%"
       width="100%"
       id="use8253"
       transform="translate(0,599.53575)"
       xlink:href="#g4685"
       inkscape:tiled-clone-of="#g4685"
       y="0"
       x="0" /><use
       height="100%"
       width="100%"
       id="use8255"
       transform="translate(0,719.44289)"
       xlink:href="#g4685"
       inkscape:tiled-clone-of="#g4685"
       y="0"
       x="0" /><use
       height="100%"
       width="100%"
       id="use8257"
       transform="translate(199.09241)"
       xlink:href="#g4685"
       inkscape:tiled-clone-of="#g4685"
       y="0"
       x="0" /><use
       height="100%"
       width="100%"
       id="use8259"
       transform="translate(199.09241,119.90715)"
       xlink:href="#g4685"
       inkscape:tiled-clone-of="#g4685"
       y="0"
       x="0" /><use
       height="100%"
       width="100%"
       id="use8261"
       transform="translate(199.09241,239.8143)"
       xlink:href="#g4685"
       inkscape:tiled-clone-of="#g4685"
       y="0"
       x="0" /><use
       height="100%"
       width="100%"
       id="use8263"
       transform="translate(199.09241,359.72145)"
       xlink:href="#g4685"
       inkscape:tiled-clone-of="#g4685"
       y="0"
       x="0" /><use
       height="100%"
       width="100%"
       id="use8265"
       transform="translate(199.09241,479.6286)"
       xlink:href="#g4685"
       inkscape:tiled-clone-of="#g4685"
       y="0"
       x="0" /><use
       height="100%"
       width="100%"
       id="use8267"
       transform="translate(199.09241,599.53575)"
       xlink:href="#g4685"
       inkscape:tiled-clone-of="#g4685"
       y="0"
       x="0" /><use
       height="100%"
       width="100%"
       id="use8269"
       transform="translate(199.09241,719.44289)"
       xlink:href="#g4685"
       inkscape:tiled-clone-of="#g4685"
       y="0"
       x="0" /><use
       height="100%"
       width="100%"
       id="use8271"
       transform="translate(398.18482)"
       xlink:href="#g4685"
       inkscape:tiled-clone-of="#g4685"
       y="0"
       x="0" /><use
       height="100%"
       width="100%"
       id="use8273"
       transform="translate(398.18482,119.90715)"
       xlink:href="#g4685"
       inkscape:tiled-clone-of="#g4685"
       y="0"
       x="0" /><use
       height="100%"
       width="100%"
       id="use8275"
       transform="translate(398.18482,239.8143)"
       xlink:href="#g4685"
       inkscape:tiled-clone-of="#g4685"
       y="0"
       x="0" /><use
       height="100%"
       width="100%"
       id="use8277"
       transform="translate(398.18482,359.72145)"
       xlink:href="#g4685"
       inkscape:tiled-clone-of="#g4685"
       y="0"
       x="0" /><use
       height="100%"
       width="100%"
       id="use8279"
       transform="translate(398.18482,479.6286)"
       xlink:href="#g4685"
       inkscape:tiled-clone-of="#g4685"
       y="0"
       x="0" /><use
       height="100%"
       width="100%"
       id="use8281"
       transform="translate(398.18482,599.53575)"
       xlink:href="#g4685"
       inkscape:tiled-clone-of="#g4685"
       y="0"
       x="0" /><use
       height="100%"
       width="100%"
       id="use8283"
       transform="translate(398.18482,719.44289)"
       xlink:href="#g4685"
       inkscape:tiled-clone-of="#g4685"
       y="0"
       x="0" /></g></svg>