<?xml version="1.0"?>
<svg xmlns="http://www.w3.org/2000/svg" xmlns:dc="http://purl.org/dc/elements/1.1/" xmlns:cc="http://creativecommons.org/ns#" xmlns:rdf="http://www.w3.org/1999/02/22-rdf-syntax-ns#" xmlns:xlink="http://www.w3.org/1999/xlink" xmlns:svg="http://www.w3.org/2000/svg" xmlns:exslt="http://exslt.org/common" xmlns:inkscape="http://www.inkscape.org/namespaces/inkscape" version="1.1" width="210mm" height="297mm" viewBox="0 0 210 297">
  <defs>
    <g id="potgrading">
      <path d="M 22.469177,65.29487 C 12.864593,59.897939 6.3758317,49.616792 6.3758317,37.815007 c 0,-17.395119 14.1022403,-31.4975588 31.4994303,-31.4975588 17.392315,0 31.496992,14.1012398 31.496992,31.4975588 0,11.809085 -6.498509,22.101133 -16.116497,27.493263" style="fill:none;stroke:#030303;stroke-width:0.41032487"/>
      <path d="m 28.906759,4.4567034 0.78974,2.9366707" style="fill:none;stroke:#030303;stroke-width:0.75"/>
      <path d="M 19.149856,5.4303268 22.099957,10.54465" style="fill:none;stroke:#030303;stroke-width:1.0"/>
      <path d="m 13.42878,13.404619 2.150735,2.149652" style="fill:none;stroke:#030303;stroke-width:0.75"/>
      <path d="m 5.5191934,19.159858 5.0557506,2.91857" style="fill:none;stroke:#030303;stroke-width:1.0"/>
      <path d="m 4.4968328,28.890192 2.9366973,0.786019" style="fill:none;stroke:#030303;stroke-width:0.75"/>
      <path d="m 0.49999997,37.829608 5.86364623,0" style="fill:none;stroke:#030303;stroke-width:1.0"/>
      <path d="M 4.5053627,46.769023 7.44206,45.980604" style="fill:none;stroke:#030303;stroke-width:0.75"/>
      <path d="M 5.5106636,56.509058 10.590785,53.578387" style="fill:none;stroke:#030303;stroke-width:1.0"/>
      <path d="m 13.451932,62.247196 2.145861,-2.149452" style="fill:none;stroke:#030303;stroke-width:0.75"/>
      <path d="m 19.291208,70.009583 2.834339,-4.907218" style="fill:none;stroke:#030303;stroke-width:1.0"/>
      <path d="m 56.484784,70.043684 -2.861026,-4.95962" style="fill:none;stroke:#030303;stroke-width:1.0"/>
      <path d="M 62.293717,62.224096 60.144201,60.079444" style="fill:none;stroke:#030303;stroke-width:0.75"/>
      <path d="m 70.111912,56.418856 -4.965577,-2.86977" style="fill:none;stroke:#030303;stroke-width:1.0"/>
      <path d="M 71.224445,46.738522 68.290307,45.951403" style="fill:none;stroke:#030303;stroke-width:0.75"/>
      <path d="m 75.037277,37.799107 -5.678427,0" style="fill:none;stroke:#030303;stroke-width:1.0"/>
      <path d="M 71.216037,28.859791 68.280436,29.64821" style="fill:none;stroke:#030303;stroke-width:0.75"/>
      <path d="m 70.076574,19.198959 -4.943643,2.855068" style="fill:none;stroke:#030303;stroke-width:1.0"/>
      <path d="M 62.27288,13.382718 60.124704,15.53107" style="fill:none;stroke:#030303;stroke-width:0.75"/>
      <path d="M 56.550707,5.4181265 53.598168,10.52765" style="fill:none;stroke:#030303;stroke-width:1.0"/>
      <path d="M 46.785274,4.4507032 45.999312,7.386174" style="fill:none;stroke:#030303;stroke-width:0.75"/>
      <path d="m 37.844676,0.500008 0,5.8162402" style="fill:none;stroke:#030303;stroke-width:1.0"/>
      <path d="m 69.475831,37.723605 c 0,17.397619 -14.103337,31.501159 -31.500648,31.501159 -17.397312,0 -31.500649,-14.10354 -31.500649,-31.501159 0,-17.397619 14.103337,-31.5012591 31.500649,-31.5012591 17.397311,0 31.500648,14.1036401 31.500648,31.5012591 z" style="fill:none"/>
    </g>
  </defs>
  <g style="fill:none;stroke-width:0.1;stroke:black"><rect x="0.0" y="0.0" width="70.80" height="128.50"/><svg:circle cx="7.5" cy="3" r="1.6"/><svg:circle cx="7.5" cy="125.5" r="1.6"/><svg:circle cx="63.38" cy="3" r="1.6"/><svg:circle cx="63.38" cy="125.5" r="1.6"/>

  
  <path d="m 32.86,15.05 c -2.6220187,0 -4.7546972,2.123364 -4.7546972,4.745368 0,2.143796 1.4261951,3.960351 3.3776012,4.54998 l 0,2.679746 2.642536,0 0,-2.651834 c 2.003484,-0.55658 3.479956,-2.397067 3.479956,-4.577892 0,-2.622004 -2.123369,-4.745368 -4.745396,-4.745368 z" style="fill:none;stroke:#000000;stroke-width:0.09990668;" inkscape:connector-curvature="0"/><g transform="translate(32.86,19.8)" style="fill:none;stroke:#000000;stroke-width:0.237;stroke-miterlimit:4;stroke-opacity:1;stroke-dasharray:none"><path d="M -4.2037748,7.5814929 C -6.8346316,6.1114925 -8.6120123,3.3014922 -8.6120123,0.07148931 c 0,-4.75000381 3.8628404,-8.61000481 8.6282233,-8.61000481 4.764047,0 8.627555,3.8600011 8.627555,8.61000481 0,3.23000299 -1.780051,6.04000329 -4.414579,7.52000359" style="fill:none;stroke:#030303;stroke-width:0.1411"/><path style="fill:none;stroke:#030303;stroke-width:0.2117" d="m -2.440413,-9.0485165 0.216323,0.810001"/><path style="fill:none;stroke:#030303;stroke-width:0.2832" d="m -5.1129926,-8.7785155 0.8080822,1.4000001"/><path style="fill:none;stroke:#030303;stroke-width:0.2117" d="m -6.6800914,-6.5985155 0.5891225,0.59"/><path style="fill:none;stroke:#030303;stroke-width:0.2832" d="m -8.8466601,-5.0285155 1.3848552,0.8000013"/><path style="fill:none;stroke:#030303;stroke-width:0.2117" d="m -9.1267017,-2.3685125 0.8044106,0.2200004"/><path style="fill:none;stroke:#030303;stroke-width:0.2832" d="m -10.221501,0.08148931 1.6061507,0"/><path style="fill:none;stroke:#030303;stroke-width:0.2117" d="M -9.1243652,2.5214918 -8.3199546,2.3014913"/><path style="fill:none;stroke:#030303;stroke-width:0.2832" d="M -8.8489964,5.181492 -7.4574658,4.3814921"/><path style="fill:none;stroke:#030303;stroke-width:0.2117" d="m -6.6737496,6.7514925 0.5877873,-0.59"/><path style="fill:none;stroke:#030303;stroke-width:0.2832" d="m -5.0742739,8.871494 0.776373,-1.3400011"/><path style="fill:none;stroke:#030303;stroke-width:0.2832" d="M 5.113671,8.8814939 4.329988,7.5214929"/><path style="fill:none;stroke:#030303;stroke-width:0.2117" d="m 6.704836,6.7414925 -0.588789,-0.58"/><path style="fill:none;stroke:#030303;stroke-width:0.2832" d="m 8.846371,5.1614921 -1.360155,-0.79"/><path style="fill:none;stroke:#030303;stroke-width:0.2117" d="M 9.151112,2.5114918 8.347402,2.2914913"/><path style="fill:none;stroke:#030303;stroke-width:0.2832" d="m 10.195511,0.07148931 -1.555417,0"/><path style="fill:none;stroke:#030303;stroke-width:0.2117" d="M 9.148809,-2.3785126 8.344698,-2.1585121"/><path style="fill:none;stroke:#030303;stroke-width:0.2832" d="M 8.836691,-5.0185155 7.482544,-4.2385142"/><path style="fill:none;stroke:#030303;stroke-width:0.2117" d="m 6.699128,-6.6085155 -0.588421,0.59"/><path style="fill:none;stroke:#030303;stroke-width:0.2832" d="m 5.131729,-8.7785155 -0.80875,1.39"/><path style="fill:none;stroke:#030303;stroke-width:0.2117" d="m 2.456813,-9.0485165 -0.215288,0.800001"/><path style="fill:none;stroke:#030303;stroke-width:0.2832" d="m 0.007833,-10.128517 0,1.5900015"/></g>
  <path d="m 58.26,15.05 c -2.6220187,0 -4.7546972,2.123364 -4.7546972,4.745368 0,2.143796 1.4261951,3.960351 3.3776012,4.54998 l 0,2.679746 2.642536,0 0,-2.651834 c 2.003484,-0.55658 3.479956,-2.397067 3.479956,-4.577892 0,-2.622004 -2.123369,-4.745368 -4.745396,-4.745368 z" style="fill:none;stroke:#000000;stroke-width:0.09990668;" inkscape:connector-curvature="0"/><g transform="translate(58.26,19.8)" style="fill:none;stroke:#000000;stroke-width:0.237;stroke-miterlimit:4;stroke-opacity:1;stroke-dasharray:none"><path d="M -4.2037748,7.5814929 C -6.8346316,6.1114925 -8.6120123,3.3014922 -8.6120123,0.07148931 c 0,-4.75000381 3.8628404,-8.61000481 8.6282233,-8.61000481 4.764047,0 8.627555,3.8600011 8.627555,8.61000481 0,3.23000299 -1.780051,6.04000329 -4.414579,7.52000359" style="fill:none;stroke:#030303;stroke-width:0.1411"/><path style="fill:none;stroke:#030303;stroke-width:0.2117" d="m -2.440413,-9.0485165 0.216323,0.810001"/><path style="fill:none;stroke:#030303;stroke-width:0.2832" d="m -5.1129926,-8.7785155 0.8080822,1.4000001"/><path style="fill:none;stroke:#030303;stroke-width:0.2117" d="m -6.6800914,-6.5985155 0.5891225,0.59"/><path style="fill:none;stroke:#030303;stroke-width:0.2832" d="m -8.8466601,-5.0285155 1.3848552,0.8000013"/><path style="fill:none;stroke:#030303;stroke-width:0.2117" d="m -9.1267017,-2.3685125 0.8044106,0.2200004"/><path style="fill:none;stroke:#030303;stroke-width:0.2832" d="m -10.221501,0.08148931 1.6061507,0"/><path style="fill:none;stroke:#030303;stroke-width:0.2117" d="M -9.1243652,2.5214918 -8.3199546,2.3014913"/><path style="fill:none;stroke:#030303;stroke-width:0.2832" d="M -8.8489964,5.181492 -7.4574658,4.3814921"/><path style="fill:none;stroke:#030303;stroke-width:0.2117" d="m -6.6737496,6.7514925 0.5877873,-0.59"/><path style="fill:none;stroke:#030303;stroke-width:0.2832" d="m -5.0742739,8.871494 0.776373,-1.3400011"/><path style="fill:none;stroke:#030303;stroke-width:0.2832" d="M 5.113671,8.8814939 4.329988,7.5214929"/><path style="fill:none;stroke:#030303;stroke-width:0.2117" d="m 6.704836,6.7414925 -0.588789,-0.58"/><path style="fill:none;stroke:#030303;stroke-width:0.2832" d="m 8.846371,5.1614921 -1.360155,-0.79"/><path style="fill:none;stroke:#030303;stroke-width:0.2117" d="M 9.151112,2.5114918 8.347402,2.2914913"/><path style="fill:none;stroke:#030303;stroke-width:0.2832" d="m 10.195511,0.07148931 -1.555417,0"/><path style="fill:none;stroke:#030303;stroke-width:0.2117" d="M 9.148809,-2.3785126 8.344698,-2.1585121"/><path style="fill:none;stroke:#030303;stroke-width:0.2832" d="M 8.836691,-5.0185155 7.482544,-4.2385142"/><path style="fill:none;stroke:#030303;stroke-width:0.2117" d="m 6.699128,-6.6085155 -0.588421,0.59"/><path style="fill:none;stroke:#030303;stroke-width:0.2832" d="m 5.131729,-8.7785155 -0.80875,1.39"/><path style="fill:none;stroke:#030303;stroke-width:0.2117" d="m 2.456813,-9.0485165 -0.215288,0.800001"/><path style="fill:none;stroke:#030303;stroke-width:0.2832" d="m 0.007833,-10.128517 0,1.5900015"/></g>
  <path d="m 32.86,34.1 c -2.6220187,0 -4.7546972,2.123364 -4.7546972,4.745368 0,2.143796 1.4261951,3.960351 3.3776012,4.54998 l 0,2.679746 2.642536,0 0,-2.651834 c 2.003484,-0.55658 3.479956,-2.397067 3.479956,-4.577892 0,-2.622004 -2.123369,-4.745368 -4.745396,-4.745368 z" style="fill:none;stroke:#000000;stroke-width:0.09990668;" inkscape:connector-curvature="0"/><g transform="translate(32.86,38.85)" style="fill:none;stroke:#000000;stroke-width:0.237;stroke-miterlimit:4;stroke-opacity:1;stroke-dasharray:none"><path d="M -4.2037748,7.5814929 C -6.8346316,6.1114925 -8.6120123,3.3014922 -8.6120123,0.07148931 c 0,-4.75000381 3.8628404,-8.61000481 8.6282233,-8.61000481 4.764047,0 8.627555,3.8600011 8.627555,8.61000481 0,3.23000299 -1.780051,6.04000329 -4.414579,7.52000359" style="fill:none;stroke:#030303;stroke-width:0.1411"/><path style="fill:none;stroke:#030303;stroke-width:0.2117" d="m -2.440413,-9.0485165 0.216323,0.810001"/><path style="fill:none;stroke:#030303;stroke-width:0.2832" d="m -5.1129926,-8.7785155 0.8080822,1.4000001"/><path style="fill:none;stroke:#030303;stroke-width:0.2117" d="m -6.6800914,-6.5985155 0.5891225,0.59"/><path style="fill:none;stroke:#030303;stroke-width:0.2832" d="m -8.8466601,-5.0285155 1.3848552,0.8000013"/><path style="fill:none;stroke:#030303;stroke-width:0.2117" d="m -9.1267017,-2.3685125 0.8044106,0.2200004"/><path style="fill:none;stroke:#030303;stroke-width:0.2832" d="m -10.221501,0.08148931 1.6061507,0"/><path style="fill:none;stroke:#030303;stroke-width:0.2117" d="M -9.1243652,2.5214918 -8.3199546,2.3014913"/><path style="fill:none;stroke:#030303;stroke-width:0.2832" d="M -8.8489964,5.181492 -7.4574658,4.3814921"/><path style="fill:none;stroke:#030303;stroke-width:0.2117" d="m -6.6737496,6.7514925 0.5877873,-0.59"/><path style="fill:none;stroke:#030303;stroke-width:0.2832" d="m -5.0742739,8.871494 0.776373,-1.3400011"/><path style="fill:none;stroke:#030303;stroke-width:0.2832" d="M 5.113671,8.8814939 4.329988,7.5214929"/><path style="fill:none;stroke:#030303;stroke-width:0.2117" d="m 6.704836,6.7414925 -0.588789,-0.58"/><path style="fill:none;stroke:#030303;stroke-width:0.2832" d="m 8.846371,5.1614921 -1.360155,-0.79"/><path style="fill:none;stroke:#030303;stroke-width:0.2117" d="M 9.151112,2.5114918 8.347402,2.2914913"/><path style="fill:none;stroke:#030303;stroke-width:0.2832" d="m 10.195511,0.07148931 -1.555417,0"/><path style="fill:none;stroke:#030303;stroke-width:0.2117" d="M 9.148809,-2.3785126 8.344698,-2.1585121"/><path style="fill:none;stroke:#030303;stroke-width:0.2832" d="M 8.836691,-5.0185155 7.482544,-4.2385142"/><path style="fill:none;stroke:#030303;stroke-width:0.2117" d="m 6.699128,-6.6085155 -0.588421,0.59"/><path style="fill:none;stroke:#030303;stroke-width:0.2832" d="m 5.131729,-8.7785155 -0.80875,1.39"/><path style="fill:none;stroke:#030303;stroke-width:0.2117" d="m 2.456813,-9.0485165 -0.215288,0.800001"/><path style="fill:none;stroke:#030303;stroke-width:0.2832" d="m 0.007833,-10.128517 0,1.5900015"/></g>
  <path d="m 58.26,34.1 c -2.6220187,0 -4.7546972,2.123364 -4.7546972,4.745368 0,2.143796 1.4261951,3.960351 3.3776012,4.54998 l 0,2.679746 2.642536,0 0,-2.651834 c 2.003484,-0.55658 3.479956,-2.397067 3.479956,-4.577892 0,-2.622004 -2.123369,-4.745368 -4.745396,-4.745368 z" style="fill:none;stroke:#000000;stroke-width:0.09990668;" inkscape:connector-curvature="0"/><g transform="translate(58.26,38.85)" style="fill:none;stroke:#000000;stroke-width:0.237;stroke-miterlimit:4;stroke-opacity:1;stroke-dasharray:none"><path d="M -4.2037748,7.5814929 C -6.8346316,6.1114925 -8.6120123,3.3014922 -8.6120123,0.07148931 c 0,-4.75000381 3.8628404,-8.61000481 8.6282233,-8.61000481 4.764047,0 8.627555,3.8600011 8.627555,8.61000481 0,3.23000299 -1.780051,6.04000329 -4.414579,7.52000359" style="fill:none;stroke:#030303;stroke-width:0.1411"/><path style="fill:none;stroke:#030303;stroke-width:0.2117" d="m -2.440413,-9.0485165 0.216323,0.810001"/><path style="fill:none;stroke:#030303;stroke-width:0.2832" d="m -5.1129926,-8.7785155 0.8080822,1.4000001"/><path style="fill:none;stroke:#030303;stroke-width:0.2117" d="m -6.6800914,-6.5985155 0.5891225,0.59"/><path style="fill:none;stroke:#030303;stroke-width:0.2832" d="m -8.8466601,-5.0285155 1.3848552,0.8000013"/><path style="fill:none;stroke:#030303;stroke-width:0.2117" d="m -9.1267017,-2.3685125 0.8044106,0.2200004"/><path style="fill:none;stroke:#030303;stroke-width:0.2832" d="m -10.221501,0.08148931 1.6061507,0"/><path style="fill:none;stroke:#030303;stroke-width:0.2117" d="M -9.1243652,2.5214918 -8.3199546,2.3014913"/><path style="fill:none;stroke:#030303;stroke-width:0.2832" d="M -8.8489964,5.181492 -7.4574658,4.3814921"/><path style="fill:none;stroke:#030303;stroke-width:0.2117" d="m -6.6737496,6.7514925 0.5877873,-0.59"/><path style="fill:none;stroke:#030303;stroke-width:0.2832" d="m -5.0742739,8.871494 0.776373,-1.3400011"/><path style="fill:none;stroke:#030303;stroke-width:0.2832" d="M 5.113671,8.8814939 4.329988,7.5214929"/><path style="fill:none;stroke:#030303;stroke-width:0.2117" d="m 6.704836,6.7414925 -0.588789,-0.58"/><path style="fill:none;stroke:#030303;stroke-width:0.2832" d="m 8.846371,5.1614921 -1.360155,-0.79"/><path style="fill:none;stroke:#030303;stroke-width:0.2117" d="M 9.151112,2.5114918 8.347402,2.2914913"/><path style="fill:none;stroke:#030303;stroke-width:0.2832" d="m 10.195511,0.07148931 -1.555417,0"/><path style="fill:none;stroke:#030303;stroke-width:0.2117" d="M 9.148809,-2.3785126 8.344698,-2.1585121"/><path style="fill:none;stroke:#030303;stroke-width:0.2832" d="M 8.836691,-5.0185155 7.482544,-4.2385142"/><path style="fill:none;stroke:#030303;stroke-width:0.2117" d="m 6.699128,-6.6085155 -0.588421,0.59"/><path style="fill:none;stroke:#030303;stroke-width:0.2832" d="m 5.131729,-8.7785155 -0.80875,1.39"/><path style="fill:none;stroke:#030303;stroke-width:0.2117" d="m 2.456813,-9.0485165 -0.215288,0.800001"/><path style="fill:none;stroke:#030303;stroke-width:0.2832" d="m 0.007833,-10.128517 0,1.5900015"/></g>
  <path d="m 32.86,53.15 c -2.6220187,0 -4.7546972,2.123364 -4.7546972,4.745368 0,2.143796 1.4261951,3.960351 3.3776012,4.54998 l 0,2.679746 2.642536,0 0,-2.651834 c 2.003484,-0.55658 3.479956,-2.397067 3.479956,-4.577892 0,-2.622004 -2.123369,-4.745368 -4.745396,-4.745368 z" style="fill:none;stroke:#000000;stroke-width:0.09990668;" inkscape:connector-curvature="0"/><g transform="translate(32.86,57.9)" style="fill:none;stroke:#000000;stroke-width:0.237;stroke-miterlimit:4;stroke-opacity:1;stroke-dasharray:none"><path d="M -4.2037748,7.5814929 C -6.8346316,6.1114925 -8.6120123,3.3014922 -8.6120123,0.07148931 c 0,-4.75000381 3.8628404,-8.61000481 8.6282233,-8.61000481 4.764047,0 8.627555,3.8600011 8.627555,8.61000481 0,3.23000299 -1.780051,6.04000329 -4.414579,7.52000359" style="fill:none;stroke:#030303;stroke-width:0.1411"/><path style="fill:none;stroke:#030303;stroke-width:0.2117" d="m -2.440413,-9.0485165 0.216323,0.810001"/><path style="fill:none;stroke:#030303;stroke-width:0.2832" d="m -5.1129926,-8.7785155 0.8080822,1.4000001"/><path style="fill:none;stroke:#030303;stroke-width:0.2117" d="m -6.6800914,-6.5985155 0.5891225,0.59"/><path style="fill:none;stroke:#030303;stroke-width:0.2832" d="m -8.8466601,-5.0285155 1.3848552,0.8000013"/><path style="fill:none;stroke:#030303;stroke-width:0.2117" d="m -9.1267017,-2.3685125 0.8044106,0.2200004"/><path style="fill:none;stroke:#030303;stroke-width:0.2832" d="m -10.221501,0.08148931 1.6061507,0"/><path style="fill:none;stroke:#030303;stroke-width:0.2117" d="M -9.1243652,2.5214918 -8.3199546,2.3014913"/><path style="fill:none;stroke:#030303;stroke-width:0.2832" d="M -8.8489964,5.181492 -7.4574658,4.3814921"/><path style="fill:none;stroke:#030303;stroke-width:0.2117" d="m -6.6737496,6.7514925 0.5877873,-0.59"/><path style="fill:none;stroke:#030303;stroke-width:0.2832" d="m -5.0742739,8.871494 0.776373,-1.3400011"/><path style="fill:none;stroke:#030303;stroke-width:0.2832" d="M 5.113671,8.8814939 4.329988,7.5214929"/><path style="fill:none;stroke:#030303;stroke-width:0.2117" d="m 6.704836,6.7414925 -0.588789,-0.58"/><path style="fill:none;stroke:#030303;stroke-width:0.2832" d="m 8.846371,5.1614921 -1.360155,-0.79"/><path style="fill:none;stroke:#030303;stroke-width:0.2117" d="M 9.151112,2.5114918 8.347402,2.2914913"/><path style="fill:none;stroke:#030303;stroke-width:0.2832" d="m 10.195511,0.07148931 -1.555417,0"/><path style="fill:none;stroke:#030303;stroke-width:0.2117" d="M 9.148809,-2.3785126 8.344698,-2.1585121"/><path style="fill:none;stroke:#030303;stroke-width:0.2832" d="M 8.836691,-5.0185155 7.482544,-4.2385142"/><path style="fill:none;stroke:#030303;stroke-width:0.2117" d="m 6.699128,-6.6085155 -0.588421,0.59"/><path style="fill:none;stroke:#030303;stroke-width:0.2832" d="m 5.131729,-8.7785155 -0.80875,1.39"/><path style="fill:none;stroke:#030303;stroke-width:0.2117" d="m 2.456813,-9.0485165 -0.215288,0.800001"/><path style="fill:none;stroke:#030303;stroke-width:0.2832" d="m 0.007833,-10.128517 0,1.5900015"/></g>
  <path d="m 58.26,53.15 c -2.6220187,0 -4.7546972,2.123364 -4.7546972,4.745368 0,2.143796 1.4261951,3.960351 3.3776012,4.54998 l 0,2.679746 2.642536,0 0,-2.651834 c 2.003484,-0.55658 3.479956,-2.397067 3.479956,-4.577892 0,-2.622004 -2.123369,-4.745368 -4.745396,-4.745368 z" style="fill:none;stroke:#000000;stroke-width:0.09990668;" inkscape:connector-curvature="0"/><g transform="translate(58.26,57.9)" style="fill:none;stroke:#000000;stroke-width:0.237;stroke-miterlimit:4;stroke-opacity:1;stroke-dasharray:none"><path d="M -4.2037748,7.5814929 C -6.8346316,6.1114925 -8.6120123,3.3014922 -8.6120123,0.07148931 c 0,-4.75000381 3.8628404,-8.61000481 8.6282233,-8.61000481 4.764047,0 8.627555,3.8600011 8.627555,8.61000481 0,3.23000299 -1.780051,6.04000329 -4.414579,7.52000359" style="fill:none;stroke:#030303;stroke-width:0.1411"/><path style="fill:none;stroke:#030303;stroke-width:0.2117" d="m -2.440413,-9.0485165 0.216323,0.810001"/><path style="fill:none;stroke:#030303;stroke-width:0.2832" d="m -5.1129926,-8.7785155 0.8080822,1.4000001"/><path style="fill:none;stroke:#030303;stroke-width:0.2117" d="m -6.6800914,-6.5985155 0.5891225,0.59"/><path style="fill:none;stroke:#030303;stroke-width:0.2832" d="m -8.8466601,-5.0285155 1.3848552,0.8000013"/><path style="fill:none;stroke:#030303;stroke-width:0.2117" d="m -9.1267017,-2.3685125 0.8044106,0.2200004"/><path style="fill:none;stroke:#030303;stroke-width:0.2832" d="m -10.221501,0.08148931 1.6061507,0"/><path style="fill:none;stroke:#030303;stroke-width:0.2117" d="M -9.1243652,2.5214918 -8.3199546,2.3014913"/><path style="fill:none;stroke:#030303;stroke-width:0.2832" d="M -8.8489964,5.181492 -7.4574658,4.3814921"/><path style="fill:none;stroke:#030303;stroke-width:0.2117" d="m -6.6737496,6.7514925 0.5877873,-0.59"/><path style="fill:none;stroke:#030303;stroke-width:0.2832" d="m -5.0742739,8.871494 0.776373,-1.3400011"/><path style="fill:none;stroke:#030303;stroke-width:0.2832" d="M 5.113671,8.8814939 4.329988,7.5214929"/><path style="fill:none;stroke:#030303;stroke-width:0.2117" d="m 6.704836,6.7414925 -0.588789,-0.58"/><path style="fill:none;stroke:#030303;stroke-width:0.2832" d="m 8.846371,5.1614921 -1.360155,-0.79"/><path style="fill:none;stroke:#030303;stroke-width:0.2117" d="M 9.151112,2.5114918 8.347402,2.2914913"/><path style="fill:none;stroke:#030303;stroke-width:0.2832" d="m 10.195511,0.07148931 -1.555417,0"/><path style="fill:none;stroke:#030303;stroke-width:0.2117" d="M 9.148809,-2.3785126 8.344698,-2.1585121"/><path style="fill:none;stroke:#030303;stroke-width:0.2832" d="M 8.836691,-5.0185155 7.482544,-4.2385142"/><path style="fill:none;stroke:#030303;stroke-width:0.2117" d="m 6.699128,-6.6085155 -0.588421,0.59"/><path style="fill:none;stroke:#030303;stroke-width:0.2832" d="m 5.131729,-8.7785155 -0.80875,1.39"/><path style="fill:none;stroke:#030303;stroke-width:0.2117" d="m 2.456813,-9.0485165 -0.215288,0.800001"/><path style="fill:none;stroke:#030303;stroke-width:0.2832" d="m 0.007833,-10.128517 0,1.5900015"/></g>
  <path d="m 32.86,72.2 c -2.6220187,0 -4.7546972,2.123364 -4.7546972,4.745368 0,2.143796 1.4261951,3.960351 3.3776012,4.54998 l 0,2.679746 2.642536,0 0,-2.651834 c 2.003484,-0.55658 3.479956,-2.397067 3.479956,-4.577892 0,-2.622004 -2.123369,-4.745368 -4.745396,-4.745368 z" style="fill:none;stroke:#000000;stroke-width:0.09990668;" inkscape:connector-curvature="0"/><g transform="translate(32.86,76.95)" style="fill:none;stroke:#000000;stroke-width:0.237;stroke-miterlimit:4;stroke-opacity:1;stroke-dasharray:none"><path d="M -4.2037748,7.5814929 C -6.8346316,6.1114925 -8.6120123,3.3014922 -8.6120123,0.07148931 c 0,-4.75000381 3.8628404,-8.61000481 8.6282233,-8.61000481 4.764047,0 8.627555,3.8600011 8.627555,8.61000481 0,3.23000299 -1.780051,6.04000329 -4.414579,7.52000359" style="fill:none;stroke:#030303;stroke-width:0.1411"/><path style="fill:none;stroke:#030303;stroke-width:0.2117" d="m -2.440413,-9.0485165 0.216323,0.810001"/><path style="fill:none;stroke:#030303;stroke-width:0.2832" d="m -5.1129926,-8.7785155 0.8080822,1.4000001"/><path style="fill:none;stroke:#030303;stroke-width:0.2117" d="m -6.6800914,-6.5985155 0.5891225,0.59"/><path style="fill:none;stroke:#030303;stroke-width:0.2832" d="m -8.8466601,-5.0285155 1.3848552,0.8000013"/><path style="fill:none;stroke:#030303;stroke-width:0.2117" d="m -9.1267017,-2.3685125 0.8044106,0.2200004"/><path style="fill:none;stroke:#030303;stroke-width:0.2832" d="m -10.221501,0.08148931 1.6061507,0"/><path style="fill:none;stroke:#030303;stroke-width:0.2117" d="M -9.1243652,2.5214918 -8.3199546,2.3014913"/><path style="fill:none;stroke:#030303;stroke-width:0.2832" d="M -8.8489964,5.181492 -7.4574658,4.3814921"/><path style="fill:none;stroke:#030303;stroke-width:0.2117" d="m -6.6737496,6.7514925 0.5877873,-0.59"/><path style="fill:none;stroke:#030303;stroke-width:0.2832" d="m -5.0742739,8.871494 0.776373,-1.3400011"/><path style="fill:none;stroke:#030303;stroke-width:0.2832" d="M 5.113671,8.8814939 4.329988,7.5214929"/><path style="fill:none;stroke:#030303;stroke-width:0.2117" d="m 6.704836,6.7414925 -0.588789,-0.58"/><path style="fill:none;stroke:#030303;stroke-width:0.2832" d="m 8.846371,5.1614921 -1.360155,-0.79"/><path style="fill:none;stroke:#030303;stroke-width:0.2117" d="M 9.151112,2.5114918 8.347402,2.2914913"/><path style="fill:none;stroke:#030303;stroke-width:0.2832" d="m 10.195511,0.07148931 -1.555417,0"/><path style="fill:none;stroke:#030303;stroke-width:0.2117" d="M 9.148809,-2.3785126 8.344698,-2.1585121"/><path style="fill:none;stroke:#030303;stroke-width:0.2832" d="M 8.836691,-5.0185155 7.482544,-4.2385142"/><path style="fill:none;stroke:#030303;stroke-width:0.2117" d="m 6.699128,-6.6085155 -0.588421,0.59"/><path style="fill:none;stroke:#030303;stroke-width:0.2832" d="m 5.131729,-8.7785155 -0.80875,1.39"/><path style="fill:none;stroke:#030303;stroke-width:0.2117" d="m 2.456813,-9.0485165 -0.215288,0.800001"/><path style="fill:none;stroke:#030303;stroke-width:0.2832" d="m 0.007833,-10.128517 0,1.5900015"/></g>
  <path d="m 58.26,72.2 c -2.6220187,0 -4.7546972,2.123364 -4.7546972,4.745368 0,2.143796 1.4261951,3.960351 3.3776012,4.54998 l 0,2.679746 2.642536,0 0,-2.651834 c 2.003484,-0.55658 3.479956,-2.397067 3.479956,-4.577892 0,-2.622004 -2.123369,-4.745368 -4.745396,-4.745368 z" style="fill:none;stroke:#000000;stroke-width:0.09990668;" inkscape:connector-curvature="0"/><g transform="translate(58.26,76.95)" style="fill:none;stroke:#000000;stroke-width:0.237;stroke-miterlimit:4;stroke-opacity:1;stroke-dasharray:none"><path d="M -4.2037748,7.5814929 C -6.8346316,6.1114925 -8.6120123,3.3014922 -8.6120123,0.07148931 c 0,-4.75000381 3.8628404,-8.61000481 8.6282233,-8.61000481 4.764047,0 8.627555,3.8600011 8.627555,8.61000481 0,3.23000299 -1.780051,6.04000329 -4.414579,7.52000359" style="fill:none;stroke:#030303;stroke-width:0.1411"/><path style="fill:none;stroke:#030303;stroke-width:0.2117" d="m -2.440413,-9.0485165 0.216323,0.810001"/><path style="fill:none;stroke:#030303;stroke-width:0.2832" d="m -5.1129926,-8.7785155 0.8080822,1.4000001"/><path style="fill:none;stroke:#030303;stroke-width:0.2117" d="m -6.6800914,-6.5985155 0.5891225,0.59"/><path style="fill:none;stroke:#030303;stroke-width:0.2832" d="m -8.8466601,-5.0285155 1.3848552,0.8000013"/><path style="fill:none;stroke:#030303;stroke-width:0.2117" d="m -9.1267017,-2.3685125 0.8044106,0.2200004"/><path style="fill:none;stroke:#030303;stroke-width:0.2832" d="m -10.221501,0.08148931 1.6061507,0"/><path style="fill:none;stroke:#030303;stroke-width:0.2117" d="M -9.1243652,2.5214918 -8.3199546,2.3014913"/><path style="fill:none;stroke:#030303;stroke-width:0.2832" d="M -8.8489964,5.181492 -7.4574658,4.3814921"/><path style="fill:none;stroke:#030303;stroke-width:0.2117" d="m -6.6737496,6.7514925 0.5877873,-0.59"/><path style="fill:none;stroke:#030303;stroke-width:0.2832" d="m -5.0742739,8.871494 0.776373,-1.3400011"/><path style="fill:none;stroke:#030303;stroke-width:0.2832" d="M 5.113671,8.8814939 4.329988,7.5214929"/><path style="fill:none;stroke:#030303;stroke-width:0.2117" d="m 6.704836,6.7414925 -0.588789,-0.58"/><path style="fill:none;stroke:#030303;stroke-width:0.2832" d="m 8.846371,5.1614921 -1.360155,-0.79"/><path style="fill:none;stroke:#030303;stroke-width:0.2117" d="M 9.151112,2.5114918 8.347402,2.2914913"/><path style="fill:none;stroke:#030303;stroke-width:0.2832" d="m 10.195511,0.07148931 -1.555417,0"/><path style="fill:none;stroke:#030303;stroke-width:0.2117" d="M 9.148809,-2.3785126 8.344698,-2.1585121"/><path style="fill:none;stroke:#030303;stroke-width:0.2832" d="M 8.836691,-5.0185155 7.482544,-4.2385142"/><path style="fill:none;stroke:#030303;stroke-width:0.2117" d="m 6.699128,-6.6085155 -0.588421,0.59"/><path style="fill:none;stroke:#030303;stroke-width:0.2832" d="m 5.131729,-8.7785155 -0.80875,1.39"/><path style="fill:none;stroke:#030303;stroke-width:0.2117" d="m 2.456813,-9.0485165 -0.215288,0.800001"/><path style="fill:none;stroke:#030303;stroke-width:0.2832" d="m 0.007833,-10.128517 0,1.5900015"/></g>
  <path d="m 32.86,91.25 c -2.6220187,0 -4.7546972,2.123364 -4.7546972,4.745368 0,2.143796 1.4261951,3.960351 3.3776012,4.54998 l 0,2.679746 2.642536,0 0,-2.651834 c 2.003484,-0.55658 3.479956,-2.397067 3.479956,-4.577892 0,-2.622004 -2.123369,-4.745368 -4.745396,-4.745368 z" style="fill:none;stroke:#000000;stroke-width:0.09990668;" inkscape:connector-curvature="0"/><g transform="translate(32.86,96)" style="fill:none;stroke:#000000;stroke-width:0.237;stroke-miterlimit:4;stroke-opacity:1;stroke-dasharray:none"><path d="M -4.2037748,7.5814929 C -6.8346316,6.1114925 -8.6120123,3.3014922 -8.6120123,0.07148931 c 0,-4.75000381 3.8628404,-8.61000481 8.6282233,-8.61000481 4.764047,0 8.627555,3.8600011 8.627555,8.61000481 0,3.23000299 -1.780051,6.04000329 -4.414579,7.52000359" style="fill:none;stroke:#030303;stroke-width:0.1411"/><path style="fill:none;stroke:#030303;stroke-width:0.2117" d="m -2.440413,-9.0485165 0.216323,0.810001"/><path style="fill:none;stroke:#030303;stroke-width:0.2832" d="m -5.1129926,-8.7785155 0.8080822,1.4000001"/><path style="fill:none;stroke:#030303;stroke-width:0.2117" d="m -6.6800914,-6.5985155 0.5891225,0.59"/><path style="fill:none;stroke:#030303;stroke-width:0.2832" d="m -8.8466601,-5.0285155 1.3848552,0.8000013"/><path style="fill:none;stroke:#030303;stroke-width:0.2117" d="m -9.1267017,-2.3685125 0.8044106,0.2200004"/><path style="fill:none;stroke:#030303;stroke-width:0.2832" d="m -10.221501,0.08148931 1.6061507,0"/><path style="fill:none;stroke:#030303;stroke-width:0.2117" d="M -9.1243652,2.5214918 -8.3199546,2.3014913"/><path style="fill:none;stroke:#030303;stroke-width:0.2832" d="M -8.8489964,5.181492 -7.4574658,4.3814921"/><path style="fill:none;stroke:#030303;stroke-width:0.2117" d="m -6.6737496,6.7514925 0.5877873,-0.59"/><path style="fill:none;stroke:#030303;stroke-width:0.2832" d="m -5.0742739,8.871494 0.776373,-1.3400011"/><path style="fill:none;stroke:#030303;stroke-width:0.2832" d="M 5.113671,8.8814939 4.329988,7.5214929"/><path style="fill:none;stroke:#030303;stroke-width:0.2117" d="m 6.704836,6.7414925 -0.588789,-0.58"/><path style="fill:none;stroke:#030303;stroke-width:0.2832" d="m 8.846371,5.1614921 -1.360155,-0.79"/><path style="fill:none;stroke:#030303;stroke-width:0.2117" d="M 9.151112,2.5114918 8.347402,2.2914913"/><path style="fill:none;stroke:#030303;stroke-width:0.2832" d="m 10.195511,0.07148931 -1.555417,0"/><path style="fill:none;stroke:#030303;stroke-width:0.2117" d="M 9.148809,-2.3785126 8.344698,-2.1585121"/><path style="fill:none;stroke:#030303;stroke-width:0.2832" d="M 8.836691,-5.0185155 7.482544,-4.2385142"/><path style="fill:none;stroke:#030303;stroke-width:0.2117" d="m 6.699128,-6.6085155 -0.588421,0.59"/><path style="fill:none;stroke:#030303;stroke-width:0.2832" d="m 5.131729,-8.7785155 -0.80875,1.39"/><path style="fill:none;stroke:#030303;stroke-width:0.2117" d="m 2.456813,-9.0485165 -0.215288,0.800001"/><path style="fill:none;stroke:#030303;stroke-width:0.2832" d="m 0.007833,-10.128517 0,1.5900015"/></g>
  <path d="m 58.26,91.25 c -2.6220187,0 -4.7546972,2.123364 -4.7546972,4.745368 0,2.143796 1.4261951,3.960351 3.3776012,4.54998 l 0,2.679746 2.642536,0 0,-2.651834 c 2.003484,-0.55658 3.479956,-2.397067 3.479956,-4.577892 0,-2.622004 -2.123369,-4.745368 -4.745396,-4.745368 z" style="fill:none;stroke:#000000;stroke-width:0.09990668;" inkscape:connector-curvature="0"/><g transform="translate(58.26,96)" style="fill:none;stroke:#000000;stroke-width:0.237;stroke-miterlimit:4;stroke-opacity:1;stroke-dasharray:none"><path d="M -4.2037748,7.5814929 C -6.8346316,6.1114925 -8.6120123,3.3014922 -8.6120123,0.07148931 c 0,-4.75000381 3.8628404,-8.61000481 8.6282233,-8.61000481 4.764047,0 8.627555,3.8600011 8.627555,8.61000481 0,3.23000299 -1.780051,6.04000329 -4.414579,7.52000359" style="fill:none;stroke:#030303;stroke-width:0.1411"/><path style="fill:none;stroke:#030303;stroke-width:0.2117" d="m -2.440413,-9.0485165 0.216323,0.810001"/><path style="fill:none;stroke:#030303;stroke-width:0.2832" d="m -5.1129926,-8.7785155 0.8080822,1.4000001"/><path style="fill:none;stroke:#030303;stroke-width:0.2117" d="m -6.6800914,-6.5985155 0.5891225,0.59"/><path style="fill:none;stroke:#030303;stroke-width:0.2832" d="m -8.8466601,-5.0285155 1.3848552,0.8000013"/><path style="fill:none;stroke:#030303;stroke-width:0.2117" d="m -9.1267017,-2.3685125 0.8044106,0.2200004"/><path style="fill:none;stroke:#030303;stroke-width:0.2832" d="m -10.221501,0.08148931 1.6061507,0"/><path style="fill:none;stroke:#030303;stroke-width:0.2117" d="M -9.1243652,2.5214918 -8.3199546,2.3014913"/><path style="fill:none;stroke:#030303;stroke-width:0.2832" d="M -8.8489964,5.181492 -7.4574658,4.3814921"/><path style="fill:none;stroke:#030303;stroke-width:0.2117" d="m -6.6737496,6.7514925 0.5877873,-0.59"/><path style="fill:none;stroke:#030303;stroke-width:0.2832" d="m -5.0742739,8.871494 0.776373,-1.3400011"/><path style="fill:none;stroke:#030303;stroke-width:0.2832" d="M 5.113671,8.8814939 4.329988,7.5214929"/><path style="fill:none;stroke:#030303;stroke-width:0.2117" d="m 6.704836,6.7414925 -0.588789,-0.58"/><path style="fill:none;stroke:#030303;stroke-width:0.2832" d="m 8.846371,5.1614921 -1.360155,-0.79"/><path style="fill:none;stroke:#030303;stroke-width:0.2117" d="M 9.151112,2.5114918 8.347402,2.2914913"/><path style="fill:none;stroke:#030303;stroke-width:0.2832" d="m 10.195511,0.07148931 -1.555417,0"/><path style="fill:none;stroke:#030303;stroke-width:0.2117" d="M 9.148809,-2.3785126 8.344698,-2.1585121"/><path style="fill:none;stroke:#030303;stroke-width:0.2832" d="M 8.836691,-5.0185155 7.482544,-4.2385142"/><path style="fill:none;stroke:#030303;stroke-width:0.2117" d="m 6.699128,-6.6085155 -0.588421,0.59"/><path style="fill:none;stroke:#030303;stroke-width:0.2832" d="m 5.131729,-8.7785155 -0.80875,1.39"/><path style="fill:none;stroke:#030303;stroke-width:0.2117" d="m 2.456813,-9.0485165 -0.215288,0.800001"/><path style="fill:none;stroke:#030303;stroke-width:0.2832" d="m 0.007833,-10.128517 0,1.5900015"/></g>

  
  <circle cx="32.86" cy="108.7" r="1.5"/>
  <circle cx="58.26" cy="108.7" r="1.5"/>

  
  <circle cx="8.73" cy="19.8" r="3.25"/>
  <circle cx="8.73" cy="32.5" r="3.25"/>
  <circle cx="8.73" cy="45.2" r="3.25"/>
  <circle cx="8.73" cy="57.9" r="3.25"/>
  <circle cx="8.73" cy="70.6" r="3.25"/>
  <circle cx="8.73" cy="83.3" r="3.25"/>
  <circle cx="8.73" cy="96" r="3.25"/>
  <circle cx="8.73" cy="108.7" r="3.25"/>

</g>
</svg>
