  0
SECTION
  2
HEADER
  9
$ACADVER
  1
AC1014
  9
$HANDSEED
  5
FFFF
  9
$MEASUREMENT
 70
     1
  0
ENDSEC
  0
SECTION
  2
TABLES
  0
TABLE
  2
VPORT
  5
8
330
0
100
AcDbSymbolTable
 70
     4
  0
VPORT
  5
2E
330
8
100
AcDbSymbolTableRecord
100
AcDbViewportTableRecord
  2
*ACTIVE
 70
     0
 10
0.0
 20
0.0
 11
1.0
 21
1.0
 12
210.0
 22
148.5
 13
0.0
 23
0.0
 14
10.0
 24
10.0
 15
10.0
 25
10.0
 16
0.0
 26
0.0
 36
1.0
 17
0.0
 27
0.0
 37
0.0
 40
341.0
 41
1.24
 42
50.0
 43
0.0
 44
0.0
 50
0.0
 51
0.0
 71
     0
 72
   100
 73
     1
 74
     3
 75
     0
 76
     0
 77
     0
 78
     0
  0
ENDTAB
  0
TABLE
  2
LTYPE
  5
5
330
0
100
AcDbSymbolTable
 70
     1
  0
LTYPE
  5
14
330
5
100
AcDbSymbolTableRecord
100
AcDbLinetypeTableRecord
  2
BYBLOCK
 70
     0
  3

 72
    65
 73
     0
 40
0.0
  0
LTYPE
  5
15
330
5
100
AcDbSymbolTableRecord
100
AcDbLinetypeTableRecord
  2
BYLAYER
 70
     0
  3

 72
    65
 73
     0
 40
0.0
  0
LTYPE
  5
16
330
5
100
AcDbSymbolTableRecord
100
AcDbLinetypeTableRecord
  2
CONTINUOUS
 70
     0
  3
Solid line
 72
    65
 73
     0
 40
0.0
  0
ENDTAB
  0
TABLE
  2
LAYER
  5
2
100
AcDbSymbolTable
 70
2
  0
LAYER
  5
50
100
AcDbSymbolTableRecord
100
AcDbLayerTableRecord
  2
0
 70
0
  6
CONTINUOUS
  0
LAYER
  5
51
100
AcDbSymbolTableRecord
100
AcDbLayerTableRecord
  2
Layer_1
 70
0
  6
CONTINUOUS
  0
ENDTAB
  0
TABLE
  2
STYLE
  5
3
330
0
100
AcDbSymbolTable
 70
     1
  0
STYLE
  5
11
330
3
100
AcDbSymbolTableRecord
100
AcDbTextStyleTableRecord
  2
STANDARD
 70
     0
 40
0.0
 41
1.0
 50
0.0
 71
     0
 42
2.5
  3
txt
  4

  0
ENDTAB
  0
TABLE
  2
VIEW
  5
6
330
0
100
AcDbSymbolTable
 70
     0
  0
ENDTAB
  0
TABLE
  2
UCS
  5
7
330
0
100
AcDbSymbolTable
 70
     0
  0
ENDTAB
  0
TABLE
  2
APPID
  5
9
330
0
100
AcDbSymbolTable
 70
     2
  0
APPID
  5
12
330
9
100
AcDbSymbolTableRecord
100
AcDbRegAppTableRecord
  2
ACAD
 70
     0
  0
ENDTAB
  0
TABLE
  2
DIMSTYLE
  5
A
330
0
100
AcDbSymbolTable
 70
     1
  0
DIMSTYLE
105
27
330
A
100
AcDbSymbolTableRecord
100
AcDbDimStyleTableRecord
  2
ISO-25
 70
     0
  3

  4

  5

  6

  7

 40
1.0
 41
2.5
 42
0.625
 43
3.75
 44
1.25
 45
0.0
 46
0.0
 47
0.0
 48
0.0
140
2.5
141
2.5
142
0.0
143
0.03937007874016
144
1.0
145
0.0
146
1.0
147
0.625
 71
     0
 72
     0
 73
     0
 74
     0
 75
     0
 76
     0
 77
     1
 78
     8
170
     0
171
     3
172
     1
173
     0
174
     0
175
     0
176
     0
177
     0
178
     0
270
     2
271
     2
272
     2
273
     2
274
     3
340
11
275
     0
280
     0
281
     0
282
     0
283
     0
284
     8
285
     0
286
     0
287
     3
288
     0
  0
ENDTAB
  0
TABLE
  2
BLOCK_RECORD
  5
1
330
0
100
AcDbSymbolTable
 70
     1
  0
BLOCK_RECORD
  5
1F
330
1
100
AcDbSymbolTableRecord
100
AcDbBlockTableRecord
  2
*MODEL_SPACE
  0
BLOCK_RECORD
  5
1B
330
1
100
AcDbSymbolTableRecord
100
AcDbBlockTableRecord
  2
*PAPER_SPACE
  0
ENDTAB
  0
ENDSEC
  0
SECTION
  2
BLOCKS
  0
BLOCK
  5
20
330
1F
100
AcDbEntity
  8
0
100
AcDbBlockBegin
  2
*MODEL_SPACE
 70
     0
 10
0.0
 20
0.0
 30
0.0
  3
*MODEL_SPACE
  1

  0
ENDBLK
  5
21
330
1F
100
AcDbEntity
  8
0
100
AcDbBlockEnd
  0
BLOCK
  5
1C
330
1B
100
AcDbEntity
 67
     1
  8
0
100
AcDbBlockBegin
  2
*PAPER_SPACE
  1

  0
ENDBLK
  5
1D
330
1B
100
AcDbEntity
 67
     1
  8
0
100
AcDbBlockEnd
  0
ENDSEC
  0
SECTION
  2
ENTITIES
  0
SPLINE
  5
100
100
AcDbEntity
  8
Layer_1
 62
7
100
AcDbSpline
 70
8
 71
3
 72
8
 73
4
 74
0
 40
0
 40
0
 40
0
 40
0
 40
1
 40
1
 40
1
 40
1
 10
123.986336
 20
232.138365
 30
0.0
 10
123.986336
 20
231.254709
 30
0.0
 10
123.269992
 20
230.538365
 30
0.0
 10
122.386336
 20
230.538365
 30
0.0
  0
SPLINE
  5
101
100
AcDbEntity
  8
Layer_1
 62
7
100
AcDbSpline
 70
8
 71
3
 72
8
 73
4
 74
0
 40
0
 40
0
 40
0
 40
0
 40
1
 40
1
 40
1
 40
1
 10
122.386336
 20
230.538365
 30
0.0
 10
121.502681
 20
230.538365
 30
0.0
 10
120.786336
 20
231.254709
 30
0.0
 10
120.786336
 20
232.138365
 30
0.0
  0
SPLINE
  5
102
100
AcDbEntity
  8
Layer_1
 62
7
100
AcDbSpline
 70
8
 71
3
 72
8
 73
4
 74
0
 40
0
 40
0
 40
0
 40
0
 40
1
 40
1
 40
1
 40
1
 10
120.786336
 20
232.138365
 30
0.0
 10
120.786336
 20
233.022021
 30
0.0
 10
121.502681
 20
233.738365
 30
0.0
 10
122.386336
 20
233.738365
 30
0.0
  0
SPLINE
  5
103
100
AcDbEntity
  8
Layer_1
 62
7
100
AcDbSpline
 70
8
 71
3
 72
8
 73
4
 74
0
 40
0
 40
0
 40
0
 40
0
 40
1
 40
1
 40
1
 40
1
 10
122.386336
 20
233.738365
 30
0.0
 10
123.269992
 20
233.738365
 30
0.0
 10
123.986336
 20
233.022021
 30
0.0
 10
123.986336
 20
232.138365
 30
0.0
  0
LWPOLYLINE
  5
104
100
AcDbEntity
  8
Layer_1
 62
7
100
AcDbPolyline
 90
5
 70
0
 10
114.886336
 20
235.138365
 30
0.0
 10
185.686338
 20
235.138365
 30
0.0
 10
185.686338
 20
106.638368
 30
0.0
 10
114.886336
 20
106.638368
 30
0.0
 10
114.886336
 20
235.138365
 30
0.0
  0
SPLINE
  5
105
100
AcDbEntity
  8
Layer_1
 62
7
100
AcDbSpline
 70
8
 71
3
 72
8
 73
4
 74
0
 40
0
 40
0
 40
0
 40
0
 40
1
 40
1
 40
1
 40
1
 10
123.986336
 20
109.638368
 30
0.0
 10
123.986336
 20
108.754708
 30
0.0
 10
123.269992
 20
108.038368
 30
0.0
 10
122.386336
 20
108.038368
 30
0.0
  0
SPLINE
  5
106
100
AcDbEntity
  8
Layer_1
 62
7
100
AcDbSpline
 70
8
 71
3
 72
8
 73
4
 74
0
 40
0
 40
0
 40
0
 40
0
 40
1
 40
1
 40
1
 40
1
 10
122.386336
 20
108.038368
 30
0.0
 10
121.502681
 20
108.038368
 30
0.0
 10
120.786336
 20
108.754708
 30
0.0
 10
120.786336
 20
109.638368
 30
0.0
  0
SPLINE
  5
107
100
AcDbEntity
  8
Layer_1
 62
7
100
AcDbSpline
 70
8
 71
3
 72
8
 73
4
 74
0
 40
0
 40
0
 40
0
 40
0
 40
1
 40
1
 40
1
 40
1
 10
120.786336
 20
109.638368
 30
0.0
 10
120.786336
 20
110.522028
 30
0.0
 10
121.502681
 20
111.238368
 30
0.0
 10
122.386336
 20
111.238368
 30
0.0
  0
SPLINE
  5
108
100
AcDbEntity
  8
Layer_1
 62
7
100
AcDbSpline
 70
8
 71
3
 72
8
 73
4
 74
0
 40
0
 40
0
 40
0
 40
0
 40
1
 40
1
 40
1
 40
1
 10
122.386336
 20
111.238368
 30
0.0
 10
123.269992
 20
111.238368
 30
0.0
 10
123.986336
 20
110.522028
 30
0.0
 10
123.986336
 20
109.638368
 30
0.0
  0
LWPOLYLINE
  5
109
100
AcDbEntity
  8
Layer_1
 62
7
100
AcDbPolyline
 90
2
 70
0
 10
123.986336
 20
232.138365
 30
0.0
 10
123.986336
 20
232.138365
 30
0.0
  0
SPLINE
  5
10a
100
AcDbEntity
  8
Layer_1
 62
7
100
AcDbSpline
 70
8
 71
3
 72
8
 73
4
 74
0
 40
0
 40
0
 40
0
 40
0
 40
1
 40
1
 40
1
 40
1
 10
179.866336
 20
232.138365
 30
0.0
 10
179.866336
 20
231.254709
 30
0.0
 10
179.149992
 20
230.538365
 30
0.0
 10
178.266336
 20
230.538365
 30
0.0
  0
SPLINE
  5
10b
100
AcDbEntity
  8
Layer_1
 62
7
100
AcDbSpline
 70
8
 71
3
 72
8
 73
4
 74
0
 40
0
 40
0
 40
0
 40
0
 40
1
 40
1
 40
1
 40
1
 10
178.266336
 20
230.538365
 30
0.0
 10
177.382680
 20
230.538365
 30
0.0
 10
176.666336
 20
231.254709
 30
0.0
 10
176.666336
 20
232.138365
 30
0.0
  0
SPLINE
  5
10c
100
AcDbEntity
  8
Layer_1
 62
7
100
AcDbSpline
 70
8
 71
3
 72
8
 73
4
 74
0
 40
0
 40
0
 40
0
 40
0
 40
1
 40
1
 40
1
 40
1
 10
176.666336
 20
232.138365
 30
0.0
 10
176.666336
 20
233.022021
 30
0.0
 10
177.382680
 20
233.738365
 30
0.0
 10
178.266336
 20
233.738365
 30
0.0
  0
SPLINE
  5
10d
100
AcDbEntity
  8
Layer_1
 62
7
100
AcDbSpline
 70
8
 71
3
 72
8
 73
4
 74
0
 40
0
 40
0
 40
0
 40
0
 40
1
 40
1
 40
1
 40
1
 10
178.266336
 20
233.738365
 30
0.0
 10
179.149992
 20
233.738365
 30
0.0
 10
179.866336
 20
233.022021
 30
0.0
 10
179.866336
 20
232.138365
 30
0.0
  0
LWPOLYLINE
  5
10e
100
AcDbEntity
  8
Layer_1
 62
7
100
AcDbPolyline
 90
2
 70
0
 10
123.986336
 20
109.638368
 30
0.0
 10
123.986336
 20
109.638368
 30
0.0
  0
SPLINE
  5
10f
100
AcDbEntity
  8
Layer_1
 62
7
100
AcDbSpline
 70
8
 71
3
 72
8
 73
4
 74
0
 40
0
 40
0
 40
0
 40
0
 40
1
 40
1
 40
1
 40
1
 10
179.866336
 20
109.638368
 30
0.0
 10
179.866336
 20
108.754708
 30
0.0
 10
179.149992
 20
108.038368
 30
0.0
 10
178.266336
 20
108.038368
 30
0.0
  0
SPLINE
  5
110
100
AcDbEntity
  8
Layer_1
 62
7
100
AcDbSpline
 70
8
 71
3
 72
8
 73
4
 74
0
 40
0
 40
0
 40
0
 40
0
 40
1
 40
1
 40
1
 40
1
 10
178.266336
 20
108.038368
 30
0.0
 10
177.382680
 20
108.038368
 30
0.0
 10
176.666336
 20
108.754708
 30
0.0
 10
176.666336
 20
109.638368
 30
0.0
  0
SPLINE
  5
111
100
AcDbEntity
  8
Layer_1
 62
7
100
AcDbSpline
 70
8
 71
3
 72
8
 73
4
 74
0
 40
0
 40
0
 40
0
 40
0
 40
1
 40
1
 40
1
 40
1
 10
176.666336
 20
109.638368
 30
0.0
 10
176.666336
 20
110.522028
 30
0.0
 10
177.382680
 20
111.238368
 30
0.0
 10
178.266336
 20
111.238368
 30
0.0
  0
SPLINE
  5
112
100
AcDbEntity
  8
Layer_1
 62
7
100
AcDbSpline
 70
8
 71
3
 72
8
 73
4
 74
0
 40
0
 40
0
 40
0
 40
0
 40
1
 40
1
 40
1
 40
1
 10
178.266336
 20
111.238368
 30
0.0
 10
179.149992
 20
111.238368
 30
0.0
 10
179.866336
 20
110.522028
 30
0.0
 10
179.866336
 20
109.638368
 30
0.0
  0
LWPOLYLINE
  5
113
100
AcDbEntity
  8
Layer_1
 62
7
100
AcDbPolyline
 90
2
 70
0
 10
179.866336
 20
232.138365
 30
0.0
 10
179.866336
 20
232.138365
 30
0.0
  0
SPLINE
  5
114
100
AcDbEntity
  8
Layer_1
 62
7
100
AcDbSpline
 70
8
 71
3
 72
8
 73
4
 74
0
 40
0
 40
0
 40
0
 40
0
 40
1
 40
1
 40
1
 40
1
 10
143.936336
 20
220.088365
 30
0.0
 10
141.314317
 20
220.088365
 30
0.0
 10
139.181639
 20
217.965001
 30
0.0
 10
139.181639
 20
215.342997
 30
0.0
  0
SPLINE
  5
115
100
AcDbEntity
  8
Layer_1
 62
7
100
AcDbSpline
 70
8
 71
3
 72
8
 73
4
 74
0
 40
0
 40
0
 40
0
 40
0
 40
1
 40
1
 40
1
 40
1
 10
139.181639
 20
215.342997
 30
0.0
 10
139.181639
 20
213.199201
 30
0.0
 10
140.607834
 20
211.382646
 30
0.0
 10
142.559240
 20
210.793018
 30
0.0
  0
LWPOLYLINE
  5
116
100
AcDbEntity
  8
Layer_1
 62
7
100
AcDbPolyline
 90
2
 70
0
 10
179.866336
 20
109.638368
 30
0.0
 10
179.866336
 20
109.638368
 30
0.0
  0
SPLINE
  5
117
100
AcDbEntity
  8
Layer_1
 62
7
100
AcDbSpline
 70
8
 71
3
 72
8
 73
4
 74
0
 40
0
 40
0
 40
0
 40
0
 40
1
 40
1
 40
1
 40
1
 10
145.201776
 20
210.765106
 30
0.0
 10
147.205260
 20
211.321685
 30
0.0
 10
148.681732
 20
213.162172
 30
0.0
 10
148.681732
 20
215.342997
 30
0.0
  0
SPLINE
  5
118
100
AcDbEntity
  8
Layer_1
 62
7
100
AcDbSpline
 70
8
 71
3
 72
8
 73
4
 74
0
 40
0
 40
0
 40
0
 40
0
 40
1
 40
1
 40
1
 40
1
 10
148.681732
 20
215.342997
 30
0.0
 10
148.681732
 20
217.965001
 30
0.0
 10
146.558363
 20
220.088365
 30
0.0
 10
143.936336
 20
220.088365
 30
0.0
  0
LWPOLYLINE
  5
119
100
AcDbEntity
  8
Layer_1
 62
7
100
AcDbPolyline
 90
4
 70
0
 10
142.559240
 20
210.793018
 30
0.0
 10
142.559240
 20
208.113272
 30
0.0
 10
145.201776
 20
208.113272
 30
0.0
 10
145.201776
 20
210.765106
 30
0.0
  0
SPLINE
  5
11a
100
AcDbEntity
  8
Layer_1
 62
1
100
AcDbSpline
 70
8
 71
3
 72
8
 73
4
 74
0
 40
0
 40
0
 40
0
 40
0
 40
1
 40
1
 40
1
 40
1
 10
139.732561
 20
207.756873
 30
0.0
 10
137.101704
 20
209.226873
 30
0.0
 10
135.324324
 20
212.036873
 30
0.0
 10
135.324324
 20
215.266876
 30
0.0
  0
SPLINE
  5
11b
100
AcDbEntity
  8
Layer_1
 62
1
100
AcDbSpline
 70
8
 71
3
 72
8
 73
4
 74
0
 40
0
 40
0
 40
0
 40
0
 40
1
 40
1
 40
1
 40
1
 10
135.324324
 20
215.266876
 30
0.0
 10
135.324324
 20
220.016880
 30
0.0
 10
139.187164
 20
223.876881
 30
0.0
 10
143.952547
 20
223.876881
 30
0.0
  0
SPLINE
  5
11c
100
AcDbEntity
  8
Layer_1
 62
1
100
AcDbSpline
 70
8
 71
3
 72
8
 73
4
 74
0
 40
0
 40
0
 40
0
 40
0
 40
1
 40
1
 40
1
 40
1
 10
143.952547
 20
223.876881
 30
0.0
 10
148.716594
 20
223.876881
 30
0.0
 10
152.580102
 20
220.016880
 30
0.0
 10
152.580102
 20
215.266876
 30
0.0
  0
SPLINE
  5
11d
100
AcDbEntity
  8
Layer_1
 62
1
100
AcDbSpline
 70
8
 71
3
 72
8
 73
4
 74
0
 40
0
 40
0
 40
0
 40
0
 40
1
 40
1
 40
1
 40
1
 10
152.580102
 20
215.266876
 30
0.0
 10
152.580102
 20
212.036873
 30
0.0
 10
150.800051
 20
209.226873
 30
0.0
 10
148.165523
 20
207.746873
 30
0.0
  0
LWPOLYLINE
  5
11e
100
AcDbEntity
  8
Layer_1
 62
7
100
AcDbPolyline
 90
2
 70
0
 10
143.936336
 20
220.088365
 30
0.0
 10
143.936336
 20
220.088365
 30
0.0
  0
LWPOLYLINE
  5
11f
100
AcDbEntity
  8
Layer_1
 62
1
100
AcDbPolyline
 90
2
 70
0
 10
141.495923
 20
224.386882
 30
0.0
 10
141.712246
 20
223.576881
 30
0.0
  0
LWPOLYLINE
  5
120
100
AcDbEntity
  8
Layer_1
 62
1
100
AcDbPolyline
 90
2
 70
0
 10
138.823343
 20
224.116881
 30
0.0
 10
139.631425
 20
222.716881
 30
0.0
  0
LWPOLYLINE
  5
121
100
AcDbEntity
  8
Layer_1
 62
1
100
AcDbPolyline
 90
2
 70
0
 10
137.256244
 20
221.936881
 30
0.0
 10
137.845367
 20
221.346881
 30
0.0
  0
LWPOLYLINE
  5
122
100
AcDbEntity
  8
Layer_1
 62
1
100
AcDbPolyline
 90
2
 70
0
 10
135.089676
 20
220.366881
 30
0.0
 10
136.474531
 20
219.566879
 30
0.0
  0
LWPOLYLINE
  5
123
100
AcDbEntity
  8
Layer_1
 62
1
100
AcDbPolyline
 90
2
 70
0
 10
134.809634
 20
217.706878
 30
0.0
 10
135.614045
 20
217.486877
 30
0.0
  0
LWPOLYLINE
  5
124
100
AcDbEntity
  8
Layer_1
 62
1
100
AcDbPolyline
 90
2
 70
0
 10
133.714835
 20
215.256876
 30
0.0
 10
135.320986
 20
215.256876
 30
0.0
  0
LWPOLYLINE
  5
125
100
AcDbEntity
  8
Layer_1
 62
1
100
AcDbPolyline
 90
2
 70
0
 10
134.811971
 20
212.816874
 30
0.0
 10
135.616381
 20
213.036874
 30
0.0
  0
LWPOLYLINE
  5
126
100
AcDbEntity
  8
Layer_1
 62
1
100
AcDbPolyline
 90
2
 70
0
 10
135.087340
 20
210.156874
 30
0.0
 10
136.478870
 20
210.956873
 30
0.0
  0
LWPOLYLINE
  5
127
100
AcDbEntity
  8
Layer_1
 62
1
100
AcDbPolyline
 90
2
 70
0
 10
137.262586
 20
208.586873
 30
0.0
 10
137.850374
 20
209.176873
 30
0.0
  0
LWPOLYLINE
  5
128
100
AcDbEntity
  8
Layer_1
 62
1
100
AcDbPolyline
 90
2
 70
0
 10
138.862062
 20
206.466872
 30
0.0
 10
139.638435
 20
207.806873
 30
0.0
  0
LWPOLYLINE
  5
129
100
AcDbEntity
  8
Layer_1
 62
1
100
AcDbPolyline
 90
2
 70
0
 10
149.050007
 20
206.456872
 30
0.0
 10
148.266324
 20
207.816873
 30
0.0
  0
LWPOLYLINE
  5
12a
100
AcDbEntity
  8
Layer_1
 62
1
100
AcDbPolyline
 90
2
 70
0
 10
150.641172
 20
208.596873
 30
0.0
 10
150.052383
 20
209.176873
 30
0.0
  0
LWPOLYLINE
  5
12b
100
AcDbEntity
  8
Layer_1
 62
1
100
AcDbPolyline
 90
2
 70
0
 10
152.782706
 20
210.176873
 30
0.0
 10
151.422552
 20
210.966873
 30
0.0
  0
LWPOLYLINE
  5
12c
100
AcDbEntity
  8
Layer_1
 62
1
100
AcDbPolyline
 90
2
 70
0
 10
153.087447
 20
212.826874
 30
0.0
 10
152.283738
 20
213.046874
 30
0.0
  0
LWPOLYLINE
  5
12d
100
AcDbEntity
  8
Layer_1
 62
1
100
AcDbPolyline
 90
2
 70
0
 10
154.131846
 20
215.266876
 30
0.0
 10
152.576430
 20
215.266876
 30
0.0
  0
LWPOLYLINE
  5
12e
100
AcDbEntity
  8
Layer_1
 62
1
100
AcDbPolyline
 90
2
 70
0
 10
153.085144
 20
217.716878
 30
0.0
 10
152.281034
 20
217.496877
 30
0.0
  0
LWPOLYLINE
  5
12f
100
AcDbEntity
  8
Layer_1
 62
1
100
AcDbPolyline
 90
2
 70
0
 10
152.773026
 20
220.356881
 30
0.0
 10
151.418880
 20
219.576879
 30
0.0
  0
LWPOLYLINE
  5
130
100
AcDbEntity
  8
Layer_1
 62
1
100
AcDbPolyline
 90
2
 70
0
 10
150.635464
 20
221.946881
 30
0.0
 10
150.047043
 20
221.356881
 30
0.0
  0
LWPOLYLINE
  5
131
100
AcDbEntity
  8
Layer_1
 62
1
100
AcDbPolyline
 90
2
 70
0
 10
149.068065
 20
224.116881
 30
0.0
 10
148.259315
 20
222.726881
 30
0.0
  0
LWPOLYLINE
  5
132
100
AcDbEntity
  8
Layer_1
 62
1
100
AcDbPolyline
 90
2
 70
0
 10
146.393149
 20
224.386882
 30
0.0
 10
146.177861
 20
223.586881
 30
0.0
  0
SPLINE
  5
133
100
AcDbEntity
  8
Layer_1
 62
7
100
AcDbSpline
 70
8
 71
3
 72
8
 73
4
 74
0
 40
0
 40
0
 40
0
 40
0
 40
1
 40
1
 40
1
 40
1
 10
169.336335
 20
220.088365
 30
0.0
 10
166.714316
 20
220.088365
 30
0.0
 10
164.581638
 20
217.965001
 30
0.0
 10
164.581638
 20
215.342997
 30
0.0
  0
SPLINE
  5
134
100
AcDbEntity
  8
Layer_1
 62
7
100
AcDbSpline
 70
8
 71
3
 72
8
 73
4
 74
0
 40
0
 40
0
 40
0
 40
0
 40
1
 40
1
 40
1
 40
1
 10
164.581638
 20
215.342997
 30
0.0
 10
164.581638
 20
213.199201
 30
0.0
 10
166.007833
 20
211.382646
 30
0.0
 10
167.959239
 20
210.793018
 30
0.0
  0
LWPOLYLINE
  5
135
100
AcDbEntity
  8
Layer_1
 62
1
100
AcDbPolyline
 90
2
 70
0
 10
143.944169
 20
225.466882
 30
0.0
 10
143.944169
 20
223.876881
 30
0.0
  0
SPLINE
  5
136
100
AcDbEntity
  8
Layer_1
 62
7
100
AcDbSpline
 70
8
 71
3
 72
8
 73
4
 74
0
 40
0
 40
0
 40
0
 40
0
 40
1
 40
1
 40
1
 40
1
 10
170.601775
 20
210.765106
 30
0.0
 10
172.605259
 20
211.321685
 30
0.0
 10
174.081731
 20
213.162172
 30
0.0
 10
174.081731
 20
215.342997
 30
0.0
  0
SPLINE
  5
137
100
AcDbEntity
  8
Layer_1
 62
7
100
AcDbSpline
 70
8
 71
3
 72
8
 73
4
 74
0
 40
0
 40
0
 40
0
 40
0
 40
1
 40
1
 40
1
 40
1
 10
174.081731
 20
215.342997
 30
0.0
 10
174.081731
 20
217.965001
 30
0.0
 10
171.958362
 20
220.088365
 30
0.0
 10
169.336335
 20
220.088365
 30
0.0
  0
LWPOLYLINE
  5
138
100
AcDbEntity
  8
Layer_1
 62
7
100
AcDbPolyline
 90
4
 70
0
 10
167.959239
 20
210.793018
 30
0.0
 10
167.959239
 20
208.113272
 30
0.0
 10
170.601775
 20
208.113272
 30
0.0
 10
170.601775
 20
210.765106
 30
0.0
  0
SPLINE
  5
139
100
AcDbEntity
  8
Layer_1
 62
1
100
AcDbSpline
 70
8
 71
3
 72
8
 73
4
 74
0
 40
0
 40
0
 40
0
 40
0
 40
1
 40
1
 40
1
 40
1
 10
165.132560
 20
207.756873
 30
0.0
 10
162.501704
 20
209.226873
 30
0.0
 10
160.724323
 20
212.036873
 30
0.0
 10
160.724323
 20
215.266876
 30
0.0
  0
SPLINE
  5
13a
100
AcDbEntity
  8
Layer_1
 62
1
100
AcDbSpline
 70
8
 71
3
 72
8
 73
4
 74
0
 40
0
 40
0
 40
0
 40
0
 40
1
 40
1
 40
1
 40
1
 10
160.724323
 20
215.266876
 30
0.0
 10
160.724323
 20
220.016880
 30
0.0
 10
164.587163
 20
223.876881
 30
0.0
 10
169.352546
 20
223.876881
 30
0.0
  0
SPLINE
  5
13b
100
AcDbEntity
  8
Layer_1
 62
1
100
AcDbSpline
 70
8
 71
3
 72
8
 73
4
 74
0
 40
0
 40
0
 40
0
 40
0
 40
1
 40
1
 40
1
 40
1
 10
169.352546
 20
223.876881
 30
0.0
 10
174.116593
 20
223.876881
 30
0.0
 10
177.980101
 20
220.016880
 30
0.0
 10
177.980101
 20
215.266876
 30
0.0
  0
SPLINE
  5
13c
100
AcDbEntity
  8
Layer_1
 62
1
100
AcDbSpline
 70
8
 71
3
 72
8
 73
4
 74
0
 40
0
 40
0
 40
0
 40
0
 40
1
 40
1
 40
1
 40
1
 10
177.980101
 20
215.266876
 30
0.0
 10
177.980101
 20
212.036873
 30
0.0
 10
176.200050
 20
209.226873
 30
0.0
 10
173.565522
 20
207.746873
 30
0.0
  0
LWPOLYLINE
  5
13d
100
AcDbEntity
  8
Layer_1
 62
7
100
AcDbPolyline
 90
2
 70
0
 10
169.336335
 20
220.088365
 30
0.0
 10
169.336335
 20
220.088365
 30
0.0
  0
LWPOLYLINE
  5
13e
100
AcDbEntity
  8
Layer_1
 62
1
100
AcDbPolyline
 90
2
 70
0
 10
166.895922
 20
224.386882
 30
0.0
 10
167.112245
 20
223.576881
 30
0.0
  0
LWPOLYLINE
  5
13f
100
AcDbEntity
  8
Layer_1
 62
1
100
AcDbPolyline
 90
2
 70
0
 10
164.223343
 20
224.116881
 30
0.0
 10
165.031425
 20
222.716881
 30
0.0
  0
LWPOLYLINE
  5
140
100
AcDbEntity
  8
Layer_1
 62
1
100
AcDbPolyline
 90
2
 70
0
 10
162.656244
 20
221.936881
 30
0.0
 10
163.245366
 20
221.346881
 30
0.0
  0
LWPOLYLINE
  5
141
100
AcDbEntity
  8
Layer_1
 62
1
100
AcDbPolyline
 90
2
 70
0
 10
160.489675
 20
220.366881
 30
0.0
 10
161.874530
 20
219.566879
 30
0.0
  0
LWPOLYLINE
  5
142
100
AcDbEntity
  8
Layer_1
 62
1
100
AcDbPolyline
 90
2
 70
0
 10
160.209634
 20
217.706878
 30
0.0
 10
161.014044
 20
217.486877
 30
0.0
  0
LWPOLYLINE
  5
143
100
AcDbEntity
  8
Layer_1
 62
1
100
AcDbPolyline
 90
2
 70
0
 10
159.114834
 20
215.256876
 30
0.0
 10
160.720985
 20
215.256876
 30
0.0
  0
LWPOLYLINE
  5
144
100
AcDbEntity
  8
Layer_1
 62
1
100
AcDbPolyline
 90
2
 70
0
 10
160.211970
 20
212.816874
 30
0.0
 10
161.016381
 20
213.036874
 30
0.0
  0
LWPOLYLINE
  5
145
100
AcDbEntity
  8
Layer_1
 62
1
100
AcDbPolyline
 90
2
 70
0
 10
160.487339
 20
210.156874
 30
0.0
 10
161.878869
 20
210.956873
 30
0.0
  0
LWPOLYLINE
  5
146
100
AcDbEntity
  8
Layer_1
 62
1
100
AcDbPolyline
 90
2
 70
0
 10
162.662586
 20
208.586873
 30
0.0
 10
163.250373
 20
209.176873
 30
0.0
  0
LWPOLYLINE
  5
147
100
AcDbEntity
  8
Layer_1
 62
1
100
AcDbPolyline
 90
2
 70
0
 10
164.262061
 20
206.466872
 30
0.0
 10
165.038434
 20
207.806873
 30
0.0
  0
LWPOLYLINE
  5
148
100
AcDbEntity
  8
Layer_1
 62
1
100
AcDbPolyline
 90
2
 70
0
 10
174.450006
 20
206.456872
 30
0.0
 10
173.666323
 20
207.816873
 30
0.0
  0
LWPOLYLINE
  5
149
100
AcDbEntity
  8
Layer_1
 62
1
100
AcDbPolyline
 90
2
 70
0
 10
176.041171
 20
208.596873
 30
0.0
 10
175.452382
 20
209.176873
 30
0.0
  0
LWPOLYLINE
  5
14a
100
AcDbEntity
  8
Layer_1
 62
1
100
AcDbPolyline
 90
2
 70
0
 10
178.182706
 20
210.176873
 30
0.0
 10
176.822551
 20
210.966873
 30
0.0
  0
LWPOLYLINE
  5
14b
100
AcDbEntity
  8
Layer_1
 62
1
100
AcDbPolyline
 90
2
 70
0
 10
178.487447
 20
212.826874
 30
0.0
 10
177.683737
 20
213.046874
 30
0.0
  0
LWPOLYLINE
  5
14c
100
AcDbEntity
  8
Layer_1
 62
1
100
AcDbPolyline
 90
2
 70
0
 10
179.531846
 20
215.266876
 30
0.0
 10
177.976429
 20
215.266876
 30
0.0
  0
LWPOLYLINE
  5
14d
100
AcDbEntity
  8
Layer_1
 62
1
100
AcDbPolyline
 90
2
 70
0
 10
178.485144
 20
217.716878
 30
0.0
 10
177.681033
 20
217.496877
 30
0.0
  0
LWPOLYLINE
  5
14e
100
AcDbEntity
  8
Layer_1
 62
1
100
AcDbPolyline
 90
2
 70
0
 10
178.173026
 20
220.356881
 30
0.0
 10
176.818879
 20
219.576879
 30
0.0
  0
LWPOLYLINE
  5
14f
100
AcDbEntity
  8
Layer_1
 62
1
100
AcDbPolyline
 90
2
 70
0
 10
176.035463
 20
221.946881
 30
0.0
 10
175.447042
 20
221.356881
 30
0.0
  0
LWPOLYLINE
  5
150
100
AcDbEntity
  8
Layer_1
 62
1
100
AcDbPolyline
 90
2
 70
0
 10
174.468064
 20
224.116881
 30
0.0
 10
173.659314
 20
222.726881
 30
0.0
  0
LWPOLYLINE
  5
151
100
AcDbEntity
  8
Layer_1
 62
1
100
AcDbPolyline
 90
2
 70
0
 10
171.793148
 20
224.386882
 30
0.0
 10
171.577860
 20
223.586881
 30
0.0
  0
SPLINE
  5
152
100
AcDbEntity
  8
Layer_1
 62
7
100
AcDbSpline
 70
8
 71
3
 72
8
 73
4
 74
0
 40
0
 40
0
 40
0
 40
0
 40
1
 40
1
 40
1
 40
1
 10
143.936336
 20
201.038366
 30
0.0
 10
141.314317
 20
201.038366
 30
0.0
 10
139.181639
 20
198.915002
 30
0.0
 10
139.181639
 20
196.292998
 30
0.0
  0
SPLINE
  5
153
100
AcDbEntity
  8
Layer_1
 62
7
100
AcDbSpline
 70
8
 71
3
 72
8
 73
4
 74
0
 40
0
 40
0
 40
0
 40
0
 40
1
 40
1
 40
1
 40
1
 10
139.181639
 20
196.292998
 30
0.0
 10
139.181639
 20
194.149202
 30
0.0
 10
140.607834
 20
192.332647
 30
0.0
 10
142.559240
 20
191.743018
 30
0.0
  0
LWPOLYLINE
  5
154
100
AcDbEntity
  8
Layer_1
 62
1
100
AcDbPolyline
 90
2
 70
0
 10
169.344168
 20
225.466882
 30
0.0
 10
169.344168
 20
223.876881
 30
0.0
  0
SPLINE
  5
155
100
AcDbEntity
  8
Layer_1
 62
7
100
AcDbSpline
 70
8
 71
3
 72
8
 73
4
 74
0
 40
0
 40
0
 40
0
 40
0
 40
1
 40
1
 40
1
 40
1
 10
145.201776
 20
191.715106
 30
0.0
 10
147.205260
 20
192.271686
 30
0.0
 10
148.681732
 20
194.112173
 30
0.0
 10
148.681732
 20
196.292998
 30
0.0
  0
SPLINE
  5
156
100
AcDbEntity
  8
Layer_1
 62
7
100
AcDbSpline
 70
8
 71
3
 72
8
 73
4
 74
0
 40
0
 40
0
 40
0
 40
0
 40
1
 40
1
 40
1
 40
1
 10
148.681732
 20
196.292998
 30
0.0
 10
148.681732
 20
198.915002
 30
0.0
 10
146.558363
 20
201.038366
 30
0.0
 10
143.936336
 20
201.038366
 30
0.0
  0
LWPOLYLINE
  5
157
100
AcDbEntity
  8
Layer_1
 62
7
100
AcDbPolyline
 90
4
 70
0
 10
142.559240
 20
191.743018
 30
0.0
 10
142.559240
 20
189.063272
 30
0.0
 10
145.201776
 20
189.063272
 30
0.0
 10
145.201776
 20
191.715106
 30
0.0
  0
SPLINE
  5
158
100
AcDbEntity
  8
Layer_1
 62
1
100
AcDbSpline
 70
8
 71
3
 72
8
 73
4
 74
0
 40
0
 40
0
 40
0
 40
0
 40
1
 40
1
 40
1
 40
1
 10
139.732561
 20
188.706873
 30
0.0
 10
137.101704
 20
190.176874
 30
0.0
 10
135.324324
 20
192.986874
 30
0.0
 10
135.324324
 20
196.216877
 30
0.0
  0
SPLINE
  5
159
100
AcDbEntity
  8
Layer_1
 62
1
100
AcDbSpline
 70
8
 71
3
 72
8
 73
4
 74
0
 40
0
 40
0
 40
0
 40
0
 40
1
 40
1
 40
1
 40
1
 10
135.324324
 20
196.216877
 30
0.0
 10
135.324324
 20
200.966880
 30
0.0
 10
139.187164
 20
204.826881
 30
0.0
 10
143.952547
 20
204.826881
 30
0.0
  0
SPLINE
  5
15a
100
AcDbEntity
  8
Layer_1
 62
1
100
AcDbSpline
 70
8
 71
3
 72
8
 73
4
 74
0
 40
0
 40
0
 40
0
 40
0
 40
1
 40
1
 40
1
 40
1
 10
143.952547
 20
204.826881
 30
0.0
 10
148.716594
 20
204.826881
 30
0.0
 10
152.580102
 20
200.966880
 30
0.0
 10
152.580102
 20
196.216877
 30
0.0
  0
SPLINE
  5
15b
100
AcDbEntity
  8
Layer_1
 62
1
100
AcDbSpline
 70
8
 71
3
 72
8
 73
4
 74
0
 40
0
 40
0
 40
0
 40
0
 40
1
 40
1
 40
1
 40
1
 10
152.580102
 20
196.216877
 30
0.0
 10
152.580102
 20
192.986874
 30
0.0
 10
150.800051
 20
190.176873
 30
0.0
 10
148.165523
 20
188.696873
 30
0.0
  0
LWPOLYLINE
  5
15c
100
AcDbEntity
  8
Layer_1
 62
7
100
AcDbPolyline
 90
2
 70
0
 10
143.936336
 20
201.038366
 30
0.0
 10
143.936336
 20
201.038366
 30
0.0
  0
LWPOLYLINE
  5
15d
100
AcDbEntity
  8
Layer_1
 62
1
100
AcDbPolyline
 90
2
 70
0
 10
141.495923
 20
205.336882
 30
0.0
 10
141.712246
 20
204.526881
 30
0.0
  0
LWPOLYLINE
  5
15e
100
AcDbEntity
  8
Layer_1
 62
1
100
AcDbPolyline
 90
2
 70
0
 10
138.823343
 20
205.066881
 30
0.0
 10
139.631425
 20
203.666881
 30
0.0
  0
LWPOLYLINE
  5
15f
100
AcDbEntity
  8
Layer_1
 62
1
100
AcDbPolyline
 90
2
 70
0
 10
137.256244
 20
202.886881
 30
0.0
 10
137.845367
 20
202.296881
 30
0.0
  0
LWPOLYLINE
  5
160
100
AcDbEntity
  8
Layer_1
 62
1
100
AcDbPolyline
 90
2
 70
0
 10
135.089676
 20
201.316881
 30
0.0
 10
136.474531
 20
200.516880
 30
0.0
  0
LWPOLYLINE
  5
161
100
AcDbEntity
  8
Layer_1
 62
1
100
AcDbPolyline
 90
2
 70
0
 10
134.809634
 20
198.656878
 30
0.0
 10
135.614045
 20
198.436878
 30
0.0
  0
LWPOLYLINE
  5
162
100
AcDbEntity
  8
Layer_1
 62
1
100
AcDbPolyline
 90
2
 70
0
 10
133.714835
 20
196.206877
 30
0.0
 10
135.320986
 20
196.206877
 30
0.0
  0
LWPOLYLINE
  5
163
100
AcDbEntity
  8
Layer_1
 62
1
100
AcDbPolyline
 90
2
 70
0
 10
134.811971
 20
193.766874
 30
0.0
 10
135.616381
 20
193.986875
 30
0.0
  0
LWPOLYLINE
  5
164
100
AcDbEntity
  8
Layer_1
 62
1
100
AcDbPolyline
 90
2
 70
0
 10
135.087340
 20
191.106874
 30
0.0
 10
136.478870
 20
191.906874
 30
0.0
  0
LWPOLYLINE
  5
165
100
AcDbEntity
  8
Layer_1
 62
1
100
AcDbPolyline
 90
2
 70
0
 10
137.262586
 20
189.536874
 30
0.0
 10
137.850374
 20
190.126874
 30
0.0
  0
LWPOLYLINE
  5
166
100
AcDbEntity
  8
Layer_1
 62
1
100
AcDbPolyline
 90
2
 70
0
 10
138.862062
 20
187.416872
 30
0.0
 10
139.638435
 20
188.756873
 30
0.0
  0
LWPOLYLINE
  5
167
100
AcDbEntity
  8
Layer_1
 62
1
100
AcDbPolyline
 90
2
 70
0
 10
149.050007
 20
187.406872
 30
0.0
 10
148.266324
 20
188.766873
 30
0.0
  0
LWPOLYLINE
  5
168
100
AcDbEntity
  8
Layer_1
 62
1
100
AcDbPolyline
 90
2
 70
0
 10
150.641172
 20
189.546874
 30
0.0
 10
150.052383
 20
190.126874
 30
0.0
  0
LWPOLYLINE
  5
169
100
AcDbEntity
  8
Layer_1
 62
1
100
AcDbPolyline
 90
2
 70
0
 10
152.782706
 20
191.126874
 30
0.0
 10
151.422552
 20
191.916874
 30
0.0
  0
LWPOLYLINE
  5
16a
100
AcDbEntity
  8
Layer_1
 62
1
100
AcDbPolyline
 90
2
 70
0
 10
153.087447
 20
193.776874
 30
0.0
 10
152.283738
 20
193.996875
 30
0.0
  0
LWPOLYLINE
  5
16b
100
AcDbEntity
  8
Layer_1
 62
1
100
AcDbPolyline
 90
2
 70
0
 10
154.131846
 20
196.216877
 30
0.0
 10
152.576430
 20
196.216877
 30
0.0
  0
LWPOLYLINE
  5
16c
100
AcDbEntity
  8
Layer_1
 62
1
100
AcDbPolyline
 90
2
 70
0
 10
153.085144
 20
198.666878
 30
0.0
 10
152.281034
 20
198.446878
 30
0.0
  0
LWPOLYLINE
  5
16d
100
AcDbEntity
  8
Layer_1
 62
1
100
AcDbPolyline
 90
2
 70
0
 10
152.773026
 20
201.306881
 30
0.0
 10
151.418880
 20
200.526880
 30
0.0
  0
LWPOLYLINE
  5
16e
100
AcDbEntity
  8
Layer_1
 62
1
100
AcDbPolyline
 90
2
 70
0
 10
150.635464
 20
202.896881
 30
0.0
 10
150.047043
 20
202.306881
 30
0.0
  0
LWPOLYLINE
  5
16f
100
AcDbEntity
  8
Layer_1
 62
1
100
AcDbPolyline
 90
2
 70
0
 10
149.068065
 20
205.066881
 30
0.0
 10
148.259315
 20
203.676881
 30
0.0
  0
LWPOLYLINE
  5
170
100
AcDbEntity
  8
Layer_1
 62
1
100
AcDbPolyline
 90
2
 70
0
 10
146.393149
 20
205.336882
 30
0.0
 10
146.177861
 20
204.536881
 30
0.0
  0
SPLINE
  5
171
100
AcDbEntity
  8
Layer_1
 62
7
100
AcDbSpline
 70
8
 71
3
 72
8
 73
4
 74
0
 40
0
 40
0
 40
0
 40
0
 40
1
 40
1
 40
1
 40
1
 10
169.336335
 20
201.038366
 30
0.0
 10
166.714316
 20
201.038366
 30
0.0
 10
164.581638
 20
198.915002
 30
0.0
 10
164.581638
 20
196.292998
 30
0.0
  0
SPLINE
  5
172
100
AcDbEntity
  8
Layer_1
 62
7
100
AcDbSpline
 70
8
 71
3
 72
8
 73
4
 74
0
 40
0
 40
0
 40
0
 40
0
 40
1
 40
1
 40
1
 40
1
 10
164.581638
 20
196.292998
 30
0.0
 10
164.581638
 20
194.149202
 30
0.0
 10
166.007833
 20
192.332647
 30
0.0
 10
167.959239
 20
191.743018
 30
0.0
  0
LWPOLYLINE
  5
173
100
AcDbEntity
  8
Layer_1
 62
1
100
AcDbPolyline
 90
2
 70
0
 10
143.944169
 20
206.416883
 30
0.0
 10
143.944169
 20
204.826881
 30
0.0
  0
SPLINE
  5
174
100
AcDbEntity
  8
Layer_1
 62
7
100
AcDbSpline
 70
8
 71
3
 72
8
 73
4
 74
0
 40
0
 40
0
 40
0
 40
0
 40
1
 40
1
 40
1
 40
1
 10
170.601775
 20
191.715106
 30
0.0
 10
172.605259
 20
192.271686
 30
0.0
 10
174.081731
 20
194.112173
 30
0.0
 10
174.081731
 20
196.292998
 30
0.0
  0
SPLINE
  5
175
100
AcDbEntity
  8
Layer_1
 62
7
100
AcDbSpline
 70
8
 71
3
 72
8
 73
4
 74
0
 40
0
 40
0
 40
0
 40
0
 40
1
 40
1
 40
1
 40
1
 10
174.081731
 20
196.292998
 30
0.0
 10
174.081731
 20
198.915002
 30
0.0
 10
171.958362
 20
201.038366
 30
0.0
 10
169.336335
 20
201.038366
 30
0.0
  0
LWPOLYLINE
  5
176
100
AcDbEntity
  8
Layer_1
 62
7
100
AcDbPolyline
 90
4
 70
0
 10
167.959239
 20
191.743018
 30
0.0
 10
167.959239
 20
189.063272
 30
0.0
 10
170.601775
 20
189.063272
 30
0.0
 10
170.601775
 20
191.715106
 30
0.0
  0
SPLINE
  5
177
100
AcDbEntity
  8
Layer_1
 62
1
100
AcDbSpline
 70
8
 71
3
 72
8
 73
4
 74
0
 40
0
 40
0
 40
0
 40
0
 40
1
 40
1
 40
1
 40
1
 10
165.132560
 20
188.706873
 30
0.0
 10
162.501704
 20
190.176874
 30
0.0
 10
160.724323
 20
192.986874
 30
0.0
 10
160.724323
 20
196.216877
 30
0.0
  0
SPLINE
  5
178
100
AcDbEntity
  8
Layer_1
 62
1
100
AcDbSpline
 70
8
 71
3
 72
8
 73
4
 74
0
 40
0
 40
0
 40
0
 40
0
 40
1
 40
1
 40
1
 40
1
 10
160.724323
 20
196.216877
 30
0.0
 10
160.724323
 20
200.966880
 30
0.0
 10
164.587163
 20
204.826881
 30
0.0
 10
169.352546
 20
204.826881
 30
0.0
  0
SPLINE
  5
179
100
AcDbEntity
  8
Layer_1
 62
1
100
AcDbSpline
 70
8
 71
3
 72
8
 73
4
 74
0
 40
0
 40
0
 40
0
 40
0
 40
1
 40
1
 40
1
 40
1
 10
169.352546
 20
204.826881
 30
0.0
 10
174.116593
 20
204.826881
 30
0.0
 10
177.980101
 20
200.966880
 30
0.0
 10
177.980101
 20
196.216877
 30
0.0
  0
SPLINE
  5
17a
100
AcDbEntity
  8
Layer_1
 62
1
100
AcDbSpline
 70
8
 71
3
 72
8
 73
4
 74
0
 40
0
 40
0
 40
0
 40
0
 40
1
 40
1
 40
1
 40
1
 10
177.980101
 20
196.216877
 30
0.0
 10
177.980101
 20
192.986874
 30
0.0
 10
176.200050
 20
190.176873
 30
0.0
 10
173.565522
 20
188.696873
 30
0.0
  0
LWPOLYLINE
  5
17b
100
AcDbEntity
  8
Layer_1
 62
7
100
AcDbPolyline
 90
2
 70
0
 10
169.336335
 20
201.038366
 30
0.0
 10
169.336335
 20
201.038366
 30
0.0
  0
LWPOLYLINE
  5
17c
100
AcDbEntity
  8
Layer_1
 62
1
100
AcDbPolyline
 90
2
 70
0
 10
166.895922
 20
205.336882
 30
0.0
 10
167.112245
 20
204.526881
 30
0.0
  0
LWPOLYLINE
  5
17d
100
AcDbEntity
  8
Layer_1
 62
1
100
AcDbPolyline
 90
2
 70
0
 10
164.223343
 20
205.066881
 30
0.0
 10
165.031425
 20
203.666881
 30
0.0
  0
LWPOLYLINE
  5
17e
100
AcDbEntity
  8
Layer_1
 62
1
100
AcDbPolyline
 90
2
 70
0
 10
162.656244
 20
202.886881
 30
0.0
 10
163.245366
 20
202.296881
 30
0.0
  0
LWPOLYLINE
  5
17f
100
AcDbEntity
  8
Layer_1
 62
1
100
AcDbPolyline
 90
2
 70
0
 10
160.489675
 20
201.316881
 30
0.0
 10
161.874530
 20
200.516880
 30
0.0
  0
LWPOLYLINE
  5
180
100
AcDbEntity
  8
Layer_1
 62
1
100
AcDbPolyline
 90
2
 70
0
 10
160.209634
 20
198.656878
 30
0.0
 10
161.014044
 20
198.436878
 30
0.0
  0
LWPOLYLINE
  5
181
100
AcDbEntity
  8
Layer_1
 62
1
100
AcDbPolyline
 90
2
 70
0
 10
159.114834
 20
196.206877
 30
0.0
 10
160.720985
 20
196.206877
 30
0.0
  0
LWPOLYLINE
  5
182
100
AcDbEntity
  8
Layer_1
 62
1
100
AcDbPolyline
 90
2
 70
0
 10
160.211970
 20
193.766874
 30
0.0
 10
161.016381
 20
193.986875
 30
0.0
  0
LWPOLYLINE
  5
183
100
AcDbEntity
  8
Layer_1
 62
1
100
AcDbPolyline
 90
2
 70
0
 10
160.487339
 20
191.106874
 30
0.0
 10
161.878869
 20
191.906874
 30
0.0
  0
LWPOLYLINE
  5
184
100
AcDbEntity
  8
Layer_1
 62
1
100
AcDbPolyline
 90
2
 70
0
 10
162.662586
 20
189.536874
 30
0.0
 10
163.250373
 20
190.126874
 30
0.0
  0
LWPOLYLINE
  5
185
100
AcDbEntity
  8
Layer_1
 62
1
100
AcDbPolyline
 90
2
 70
0
 10
164.262061
 20
187.416872
 30
0.0
 10
165.038434
 20
188.756873
 30
0.0
  0
LWPOLYLINE
  5
186
100
AcDbEntity
  8
Layer_1
 62
1
100
AcDbPolyline
 90
2
 70
0
 10
174.450006
 20
187.406872
 30
0.0
 10
173.666323
 20
188.766873
 30
0.0
  0
LWPOLYLINE
  5
187
100
AcDbEntity
  8
Layer_1
 62
1
100
AcDbPolyline
 90
2
 70
0
 10
176.041171
 20
189.546874
 30
0.0
 10
175.452382
 20
190.126874
 30
0.0
  0
LWPOLYLINE
  5
188
100
AcDbEntity
  8
Layer_1
 62
1
100
AcDbPolyline
 90
2
 70
0
 10
178.182706
 20
191.126874
 30
0.0
 10
176.822551
 20
191.916874
 30
0.0
  0
LWPOLYLINE
  5
189
100
AcDbEntity
  8
Layer_1
 62
1
100
AcDbPolyline
 90
2
 70
0
 10
178.487447
 20
193.776874
 30
0.0
 10
177.683737
 20
193.996875
 30
0.0
  0
LWPOLYLINE
  5
18a
100
AcDbEntity
  8
Layer_1
 62
1
100
AcDbPolyline
 90
2
 70
0
 10
179.531846
 20
196.216877
 30
0.0
 10
177.976429
 20
196.216877
 30
0.0
  0
LWPOLYLINE
  5
18b
100
AcDbEntity
  8
Layer_1
 62
1
100
AcDbPolyline
 90
2
 70
0
 10
178.485144
 20
198.666878
 30
0.0
 10
177.681033
 20
198.446878
 30
0.0
  0
LWPOLYLINE
  5
18c
100
AcDbEntity
  8
Layer_1
 62
1
100
AcDbPolyline
 90
2
 70
0
 10
178.173026
 20
201.306881
 30
0.0
 10
176.818879
 20
200.526880
 30
0.0
  0
LWPOLYLINE
  5
18d
100
AcDbEntity
  8
Layer_1
 62
1
100
AcDbPolyline
 90
2
 70
0
 10
176.035463
 20
202.896881
 30
0.0
 10
175.447042
 20
202.306881
 30
0.0
  0
LWPOLYLINE
  5
18e
100
AcDbEntity
  8
Layer_1
 62
1
100
AcDbPolyline
 90
2
 70
0
 10
174.468064
 20
205.066881
 30
0.0
 10
173.659314
 20
203.676881
 30
0.0
  0
LWPOLYLINE
  5
18f
100
AcDbEntity
  8
Layer_1
 62
1
100
AcDbPolyline
 90
2
 70
0
 10
171.793148
 20
205.336882
 30
0.0
 10
171.577860
 20
204.536881
 30
0.0
  0
SPLINE
  5
190
100
AcDbEntity
  8
Layer_1
 62
7
100
AcDbSpline
 70
8
 71
3
 72
8
 73
4
 74
0
 40
0
 40
0
 40
0
 40
0
 40
1
 40
1
 40
1
 40
1
 10
143.936336
 20
181.988366
 30
0.0
 10
141.314317
 20
181.988366
 30
0.0
 10
139.181639
 20
179.865002
 30
0.0
 10
139.181639
 20
177.242998
 30
0.0
  0
SPLINE
  5
191
100
AcDbEntity
  8
Layer_1
 62
7
100
AcDbSpline
 70
8
 71
3
 72
8
 73
4
 74
0
 40
0
 40
0
 40
0
 40
0
 40
1
 40
1
 40
1
 40
1
 10
139.181639
 20
177.242998
 30
0.0
 10
139.181639
 20
175.099202
 30
0.0
 10
140.607834
 20
173.282647
 30
0.0
 10
142.559240
 20
172.693018
 30
0.0
  0
LWPOLYLINE
  5
192
100
AcDbEntity
  8
Layer_1
 62
1
100
AcDbPolyline
 90
2
 70
0
 10
169.344168
 20
206.416883
 30
0.0
 10
169.344168
 20
204.826881
 30
0.0
  0
SPLINE
  5
193
100
AcDbEntity
  8
Layer_1
 62
7
100
AcDbSpline
 70
8
 71
3
 72
8
 73
4
 74
0
 40
0
 40
0
 40
0
 40
0
 40
1
 40
1
 40
1
 40
1
 10
145.201776
 20
172.665106
 30
0.0
 10
147.205260
 20
173.221686
 30
0.0
 10
148.681732
 20
175.062173
 30
0.0
 10
148.681732
 20
177.242998
 30
0.0
  0
SPLINE
  5
194
100
AcDbEntity
  8
Layer_1
 62
7
100
AcDbSpline
 70
8
 71
3
 72
8
 73
4
 74
0
 40
0
 40
0
 40
0
 40
0
 40
1
 40
1
 40
1
 40
1
 10
148.681732
 20
177.242998
 30
0.0
 10
148.681732
 20
179.865002
 30
0.0
 10
146.558363
 20
181.988366
 30
0.0
 10
143.936336
 20
181.988366
 30
0.0
  0
LWPOLYLINE
  5
195
100
AcDbEntity
  8
Layer_1
 62
7
100
AcDbPolyline
 90
4
 70
0
 10
142.559240
 20
172.693018
 30
0.0
 10
142.559240
 20
170.013273
 30
0.0
 10
145.201776
 20
170.013273
 30
0.0
 10
145.201776
 20
172.665106
 30
0.0
  0
SPLINE
  5
196
100
AcDbEntity
  8
Layer_1
 62
1
100
AcDbSpline
 70
8
 71
3
 72
8
 73
4
 74
0
 40
0
 40
0
 40
0
 40
0
 40
1
 40
1
 40
1
 40
1
 10
139.732561
 20
169.656874
 30
0.0
 10
137.101704
 20
171.126874
 30
0.0
 10
135.324324
 20
173.936874
 30
0.0
 10
135.324324
 20
177.166877
 30
0.0
  0
SPLINE
  5
197
100
AcDbEntity
  8
Layer_1
 62
1
100
AcDbSpline
 70
8
 71
3
 72
8
 73
4
 74
0
 40
0
 40
0
 40
0
 40
0
 40
1
 40
1
 40
1
 40
1
 10
135.324324
 20
177.166877
 30
0.0
 10
135.324324
 20
181.916881
 30
0.0
 10
139.187164
 20
185.776882
 30
0.0
 10
143.952547
 20
185.776882
 30
0.0
  0
SPLINE
  5
198
100
AcDbEntity
  8
Layer_1
 62
1
100
AcDbSpline
 70
8
 71
3
 72
8
 73
4
 74
0
 40
0
 40
0
 40
0
 40
0
 40
1
 40
1
 40
1
 40
1
 10
143.952547
 20
185.776882
 30
0.0
 10
148.716594
 20
185.776882
 30
0.0
 10
152.580102
 20
181.916881
 30
0.0
 10
152.580102
 20
177.166877
 30
0.0
  0
SPLINE
  5
199
100
AcDbEntity
  8
Layer_1
 62
1
100
AcDbSpline
 70
8
 71
3
 72
8
 73
4
 74
0
 40
0
 40
0
 40
0
 40
0
 40
1
 40
1
 40
1
 40
1
 10
152.580102
 20
177.166877
 30
0.0
 10
152.580102
 20
173.936874
 30
0.0
 10
150.800051
 20
171.126874
 30
0.0
 10
148.165523
 20
169.646874
 30
0.0
  0
LWPOLYLINE
  5
19a
100
AcDbEntity
  8
Layer_1
 62
7
100
AcDbPolyline
 90
2
 70
0
 10
143.936336
 20
181.988366
 30
0.0
 10
143.936336
 20
181.988366
 30
0.0
  0
LWPOLYLINE
  5
19b
100
AcDbEntity
  8
Layer_1
 62
1
100
AcDbPolyline
 90
2
 70
0
 10
141.495923
 20
186.286883
 30
0.0
 10
141.712246
 20
185.476882
 30
0.0
  0
LWPOLYLINE
  5
19c
100
AcDbEntity
  8
Layer_1
 62
1
100
AcDbPolyline
 90
2
 70
0
 10
138.823343
 20
186.016882
 30
0.0
 10
139.631425
 20
184.616882
 30
0.0
  0
LWPOLYLINE
  5
19d
100
AcDbEntity
  8
Layer_1
 62
1
100
AcDbPolyline
 90
2
 70
0
 10
137.256244
 20
183.836882
 30
0.0
 10
137.845367
 20
183.246882
 30
0.0
  0
LWPOLYLINE
  5
19e
100
AcDbEntity
  8
Layer_1
 62
1
100
AcDbPolyline
 90
2
 70
0
 10
135.089676
 20
182.266882
 30
0.0
 10
136.474531
 20
181.466880
 30
0.0
  0
LWPOLYLINE
  5
19f
100
AcDbEntity
  8
Layer_1
 62
1
100
AcDbPolyline
 90
2
 70
0
 10
134.809634
 20
179.606879
 30
0.0
 10
135.614045
 20
179.386878
 30
0.0
  0
LWPOLYLINE
  5
1a0
100
AcDbEntity
  8
Layer_1
 62
1
100
AcDbPolyline
 90
2
 70
0
 10
133.714835
 20
177.156877
 30
0.0
 10
135.320986
 20
177.156877
 30
0.0
  0
LWPOLYLINE
  5
1a1
100
AcDbEntity
  8
Layer_1
 62
1
100
AcDbPolyline
 90
2
 70
0
 10
134.811971
 20
174.716875
 30
0.0
 10
135.616381
 20
174.936875
 30
0.0
  0
LWPOLYLINE
  5
1a2
100
AcDbEntity
  8
Layer_1
 62
1
100
AcDbPolyline
 90
2
 70
0
 10
135.087340
 20
172.056874
 30
0.0
 10
136.478870
 20
172.856874
 30
0.0
  0
LWPOLYLINE
  5
1a3
100
AcDbEntity
  8
Layer_1
 62
1
100
AcDbPolyline
 90
2
 70
0
 10
137.262586
 20
170.486874
 30
0.0
 10
137.850374
 20
171.076874
 30
0.0
  0
LWPOLYLINE
  5
1a4
100
AcDbEntity
  8
Layer_1
 62
1
100
AcDbPolyline
 90
2
 70
0
 10
138.862062
 20
168.366873
 30
0.0
 10
139.638435
 20
169.706874
 30
0.0
  0
LWPOLYLINE
  5
1a5
100
AcDbEntity
  8
Layer_1
 62
1
100
AcDbPolyline
 90
2
 70
0
 10
149.050007
 20
168.356873
 30
0.0
 10
148.266324
 20
169.716874
 30
0.0
  0
LWPOLYLINE
  5
1a6
100
AcDbEntity
  8
Layer_1
 62
1
100
AcDbPolyline
 90
2
 70
0
 10
150.641172
 20
170.496874
 30
0.0
 10
150.052383
 20
171.076874
 30
0.0
  0
LWPOLYLINE
  5
1a7
100
AcDbEntity
  8
Layer_1
 62
1
100
AcDbPolyline
 90
2
 70
0
 10
152.782706
 20
172.076874
 30
0.0
 10
151.422552
 20
172.866874
 30
0.0
  0
LWPOLYLINE
  5
1a8
100
AcDbEntity
  8
Layer_1
 62
1
100
AcDbPolyline
 90
2
 70
0
 10
153.087447
 20
174.726875
 30
0.0
 10
152.283738
 20
174.946875
 30
0.0
  0
LWPOLYLINE
  5
1a9
100
AcDbEntity
  8
Layer_1
 62
1
100
AcDbPolyline
 90
2
 70
0
 10
154.131846
 20
177.166877
 30
0.0
 10
152.576430
 20
177.166877
 30
0.0
  0
LWPOLYLINE
  5
1aa
100
AcDbEntity
  8
Layer_1
 62
1
100
AcDbPolyline
 90
2
 70
0
 10
153.085144
 20
179.616879
 30
0.0
 10
152.281034
 20
179.396878
 30
0.0
  0
LWPOLYLINE
  5
1ab
100
AcDbEntity
  8
Layer_1
 62
1
100
AcDbPolyline
 90
2
 70
0
 10
152.773026
 20
182.256882
 30
0.0
 10
151.418880
 20
181.476880
 30
0.0
  0
LWPOLYLINE
  5
1ac
100
AcDbEntity
  8
Layer_1
 62
1
100
AcDbPolyline
 90
2
 70
0
 10
150.635464
 20
183.846882
 30
0.0
 10
150.047043
 20
183.256882
 30
0.0
  0
LWPOLYLINE
  5
1ad
100
AcDbEntity
  8
Layer_1
 62
1
100
AcDbPolyline
 90
2
 70
0
 10
149.068065
 20
186.016882
 30
0.0
 10
148.259315
 20
184.626882
 30
0.0
  0
LWPOLYLINE
  5
1ae
100
AcDbEntity
  8
Layer_1
 62
1
100
AcDbPolyline
 90
2
 70
0
 10
146.393149
 20
186.286883
 30
0.0
 10
146.177861
 20
185.486882
 30
0.0
  0
SPLINE
  5
1af
100
AcDbEntity
  8
Layer_1
 62
7
100
AcDbSpline
 70
8
 71
3
 72
8
 73
4
 74
0
 40
0
 40
0
 40
0
 40
0
 40
1
 40
1
 40
1
 40
1
 10
169.336335
 20
181.988366
 30
0.0
 10
166.714316
 20
181.988366
 30
0.0
 10
164.581638
 20
179.865002
 30
0.0
 10
164.581638
 20
177.242998
 30
0.0
  0
SPLINE
  5
1b0
100
AcDbEntity
  8
Layer_1
 62
7
100
AcDbSpline
 70
8
 71
3
 72
8
 73
4
 74
0
 40
0
 40
0
 40
0
 40
0
 40
1
 40
1
 40
1
 40
1
 10
164.581638
 20
177.242998
 30
0.0
 10
164.581638
 20
175.099202
 30
0.0
 10
166.007833
 20
173.282647
 30
0.0
 10
167.959239
 20
172.693018
 30
0.0
  0
LWPOLYLINE
  5
1b1
100
AcDbEntity
  8
Layer_1
 62
1
100
AcDbPolyline
 90
2
 70
0
 10
143.944169
 20
187.366883
 30
0.0
 10
143.944169
 20
185.776882
 30
0.0
  0
SPLINE
  5
1b2
100
AcDbEntity
  8
Layer_1
 62
7
100
AcDbSpline
 70
8
 71
3
 72
8
 73
4
 74
0
 40
0
 40
0
 40
0
 40
0
 40
1
 40
1
 40
1
 40
1
 10
170.601775
 20
172.665106
 30
0.0
 10
172.605259
 20
173.221686
 30
0.0
 10
174.081731
 20
175.062173
 30
0.0
 10
174.081731
 20
177.242998
 30
0.0
  0
SPLINE
  5
1b3
100
AcDbEntity
  8
Layer_1
 62
7
100
AcDbSpline
 70
8
 71
3
 72
8
 73
4
 74
0
 40
0
 40
0
 40
0
 40
0
 40
1
 40
1
 40
1
 40
1
 10
174.081731
 20
177.242998
 30
0.0
 10
174.081731
 20
179.865002
 30
0.0
 10
171.958362
 20
181.988366
 30
0.0
 10
169.336335
 20
181.988366
 30
0.0
  0
LWPOLYLINE
  5
1b4
100
AcDbEntity
  8
Layer_1
 62
7
100
AcDbPolyline
 90
4
 70
0
 10
167.959239
 20
172.693018
 30
0.0
 10
167.959239
 20
170.013273
 30
0.0
 10
170.601775
 20
170.013273
 30
0.0
 10
170.601775
 20
172.665106
 30
0.0
  0
SPLINE
  5
1b5
100
AcDbEntity
  8
Layer_1
 62
1
100
AcDbSpline
 70
8
 71
3
 72
8
 73
4
 74
0
 40
0
 40
0
 40
0
 40
0
 40
1
 40
1
 40
1
 40
1
 10
165.132560
 20
169.656874
 30
0.0
 10
162.501704
 20
171.126874
 30
0.0
 10
160.724323
 20
173.936874
 30
0.0
 10
160.724323
 20
177.166877
 30
0.0
  0
SPLINE
  5
1b6
100
AcDbEntity
  8
Layer_1
 62
1
100
AcDbSpline
 70
8
 71
3
 72
8
 73
4
 74
0
 40
0
 40
0
 40
0
 40
0
 40
1
 40
1
 40
1
 40
1
 10
160.724323
 20
177.166877
 30
0.0
 10
160.724323
 20
181.916881
 30
0.0
 10
164.587163
 20
185.776882
 30
0.0
 10
169.352546
 20
185.776882
 30
0.0
  0
SPLINE
  5
1b7
100
AcDbEntity
  8
Layer_1
 62
1
100
AcDbSpline
 70
8
 71
3
 72
8
 73
4
 74
0
 40
0
 40
0
 40
0
 40
0
 40
1
 40
1
 40
1
 40
1
 10
169.352546
 20
185.776882
 30
0.0
 10
174.116593
 20
185.776882
 30
0.0
 10
177.980101
 20
181.916881
 30
0.0
 10
177.980101
 20
177.166877
 30
0.0
  0
SPLINE
  5
1b8
100
AcDbEntity
  8
Layer_1
 62
1
100
AcDbSpline
 70
8
 71
3
 72
8
 73
4
 74
0
 40
0
 40
0
 40
0
 40
0
 40
1
 40
1
 40
1
 40
1
 10
177.980101
 20
177.166877
 30
0.0
 10
177.980101
 20
173.936874
 30
0.0
 10
176.200050
 20
171.126874
 30
0.0
 10
173.565522
 20
169.646874
 30
0.0
  0
LWPOLYLINE
  5
1b9
100
AcDbEntity
  8
Layer_1
 62
7
100
AcDbPolyline
 90
2
 70
0
 10
169.336335
 20
181.988366
 30
0.0
 10
169.336335
 20
181.988366
 30
0.0
  0
LWPOLYLINE
  5
1ba
100
AcDbEntity
  8
Layer_1
 62
1
100
AcDbPolyline
 90
2
 70
0
 10
166.895922
 20
186.286883
 30
0.0
 10
167.112245
 20
185.476882
 30
0.0
  0
LWPOLYLINE
  5
1bb
100
AcDbEntity
  8
Layer_1
 62
1
100
AcDbPolyline
 90
2
 70
0
 10
164.223343
 20
186.016882
 30
0.0
 10
165.031425
 20
184.616882
 30
0.0
  0
LWPOLYLINE
  5
1bc
100
AcDbEntity
  8
Layer_1
 62
1
100
AcDbPolyline
 90
2
 70
0
 10
162.656244
 20
183.836882
 30
0.0
 10
163.245366
 20
183.246882
 30
0.0
  0
LWPOLYLINE
  5
1bd
100
AcDbEntity
  8
Layer_1
 62
1
100
AcDbPolyline
 90
2
 70
0
 10
160.489675
 20
182.266882
 30
0.0
 10
161.874530
 20
181.466880
 30
0.0
  0
LWPOLYLINE
  5
1be
100
AcDbEntity
  8
Layer_1
 62
1
100
AcDbPolyline
 90
2
 70
0
 10
160.209634
 20
179.606879
 30
0.0
 10
161.014044
 20
179.386878
 30
0.0
  0
LWPOLYLINE
  5
1bf
100
AcDbEntity
  8
Layer_1
 62
1
100
AcDbPolyline
 90
2
 70
0
 10
159.114834
 20
177.156877
 30
0.0
 10
160.720985
 20
177.156877
 30
0.0
  0
LWPOLYLINE
  5
1c0
100
AcDbEntity
  8
Layer_1
 62
1
100
AcDbPolyline
 90
2
 70
0
 10
160.211970
 20
174.716875
 30
0.0
 10
161.016381
 20
174.936875
 30
0.0
  0
LWPOLYLINE
  5
1c1
100
AcDbEntity
  8
Layer_1
 62
1
100
AcDbPolyline
 90
2
 70
0
 10
160.487339
 20
172.056874
 30
0.0
 10
161.878869
 20
172.856874
 30
0.0
  0
LWPOLYLINE
  5
1c2
100
AcDbEntity
  8
Layer_1
 62
1
100
AcDbPolyline
 90
2
 70
0
 10
162.662586
 20
170.486874
 30
0.0
 10
163.250373
 20
171.076874
 30
0.0
  0
LWPOLYLINE
  5
1c3
100
AcDbEntity
  8
Layer_1
 62
1
100
AcDbPolyline
 90
2
 70
0
 10
164.262061
 20
168.366873
 30
0.0
 10
165.038434
 20
169.706874
 30
0.0
  0
LWPOLYLINE
  5
1c4
100
AcDbEntity
  8
Layer_1
 62
1
100
AcDbPolyline
 90
2
 70
0
 10
174.450006
 20
168.356873
 30
0.0
 10
173.666323
 20
169.716874
 30
0.0
  0
LWPOLYLINE
  5
1c5
100
AcDbEntity
  8
Layer_1
 62
1
100
AcDbPolyline
 90
2
 70
0
 10
176.041171
 20
170.496874
 30
0.0
 10
175.452382
 20
171.076874
 30
0.0
  0
LWPOLYLINE
  5
1c6
100
AcDbEntity
  8
Layer_1
 62
1
100
AcDbPolyline
 90
2
 70
0
 10
178.182706
 20
172.076874
 30
0.0
 10
176.822551
 20
172.866874
 30
0.0
  0
LWPOLYLINE
  5
1c7
100
AcDbEntity
  8
Layer_1
 62
1
100
AcDbPolyline
 90
2
 70
0
 10
178.487447
 20
174.726875
 30
0.0
 10
177.683737
 20
174.946875
 30
0.0
  0
LWPOLYLINE
  5
1c8
100
AcDbEntity
  8
Layer_1
 62
1
100
AcDbPolyline
 90
2
 70
0
 10
179.531846
 20
177.166877
 30
0.0
 10
177.976429
 20
177.166877
 30
0.0
  0
LWPOLYLINE
  5
1c9
100
AcDbEntity
  8
Layer_1
 62
1
100
AcDbPolyline
 90
2
 70
0
 10
178.485144
 20
179.616879
 30
0.0
 10
177.681033
 20
179.396878
 30
0.0
  0
LWPOLYLINE
  5
1ca
100
AcDbEntity
  8
Layer_1
 62
1
100
AcDbPolyline
 90
2
 70
0
 10
178.173026
 20
182.256882
 30
0.0
 10
176.818879
 20
181.476880
 30
0.0
  0
LWPOLYLINE
  5
1cb
100
AcDbEntity
  8
Layer_1
 62
1
100
AcDbPolyline
 90
2
 70
0
 10
176.035463
 20
183.846882
 30
0.0
 10
175.447042
 20
183.256882
 30
0.0
  0
LWPOLYLINE
  5
1cc
100
AcDbEntity
  8
Layer_1
 62
1
100
AcDbPolyline
 90
2
 70
0
 10
174.468064
 20
186.016882
 30
0.0
 10
173.659314
 20
184.626882
 30
0.0
  0
LWPOLYLINE
  5
1cd
100
AcDbEntity
  8
Layer_1
 62
1
100
AcDbPolyline
 90
2
 70
0
 10
171.793148
 20
186.286883
 30
0.0
 10
171.577860
 20
185.486882
 30
0.0
  0
SPLINE
  5
1ce
100
AcDbEntity
  8
Layer_1
 62
7
100
AcDbSpline
 70
8
 71
3
 72
8
 73
4
 74
0
 40
0
 40
0
 40
0
 40
0
 40
1
 40
1
 40
1
 40
1
 10
143.936336
 20
162.938367
 30
0.0
 10
141.314317
 20
162.938367
 30
0.0
 10
139.181639
 20
160.815003
 30
0.0
 10
139.181639
 20
158.192999
 30
0.0
  0
SPLINE
  5
1cf
100
AcDbEntity
  8
Layer_1
 62
7
100
AcDbSpline
 70
8
 71
3
 72
8
 73
4
 74
0
 40
0
 40
0
 40
0
 40
0
 40
1
 40
1
 40
1
 40
1
 10
139.181639
 20
158.192999
 30
0.0
 10
139.181639
 20
156.049203
 30
0.0
 10
140.607834
 20
154.232648
 30
0.0
 10
142.559240
 20
153.643019
 30
0.0
  0
LWPOLYLINE
  5
1d0
100
AcDbEntity
  8
Layer_1
 62
1
100
AcDbPolyline
 90
2
 70
0
 10
169.344168
 20
187.366883
 30
0.0
 10
169.344168
 20
185.776882
 30
0.0
  0
SPLINE
  5
1d1
100
AcDbEntity
  8
Layer_1
 62
7
100
AcDbSpline
 70
8
 71
3
 72
8
 73
4
 74
0
 40
0
 40
0
 40
0
 40
0
 40
1
 40
1
 40
1
 40
1
 10
145.201776
 20
153.615107
 30
0.0
 10
147.205260
 20
154.171687
 30
0.0
 10
148.681732
 20
156.012174
 30
0.0
 10
148.681732
 20
158.192999
 30
0.0
  0
SPLINE
  5
1d2
100
AcDbEntity
  8
Layer_1
 62
7
100
AcDbSpline
 70
8
 71
3
 72
8
 73
4
 74
0
 40
0
 40
0
 40
0
 40
0
 40
1
 40
1
 40
1
 40
1
 10
148.681732
 20
158.192999
 30
0.0
 10
148.681732
 20
160.815003
 30
0.0
 10
146.558363
 20
162.938367
 30
0.0
 10
143.936336
 20
162.938367
 30
0.0
  0
LWPOLYLINE
  5
1d3
100
AcDbEntity
  8
Layer_1
 62
7
100
AcDbPolyline
 90
4
 70
0
 10
142.559240
 20
153.643019
 30
0.0
 10
142.559240
 20
150.963273
 30
0.0
 10
145.201776
 20
150.963273
 30
0.0
 10
145.201776
 20
153.615107
 30
0.0
  0
SPLINE
  5
1d4
100
AcDbEntity
  8
Layer_1
 62
1
100
AcDbSpline
 70
8
 71
3
 72
8
 73
4
 74
0
 40
0
 40
0
 40
0
 40
0
 40
1
 40
1
 40
1
 40
1
 10
139.732561
 20
150.606874
 30
0.0
 10
137.101704
 20
152.076874
 30
0.0
 10
135.324324
 20
154.886875
 30
0.0
 10
135.324324
 20
158.116877
 30
0.0
  0
SPLINE
  5
1d5
100
AcDbEntity
  8
Layer_1
 62
1
100
AcDbSpline
 70
8
 71
3
 72
8
 73
4
 74
0
 40
0
 40
0
 40
0
 40
0
 40
1
 40
1
 40
1
 40
1
 10
135.324324
 20
158.116877
 30
0.0
 10
135.324324
 20
162.866881
 30
0.0
 10
139.187164
 20
166.726882
 30
0.0
 10
143.952547
 20
166.726882
 30
0.0
  0
SPLINE
  5
1d6
100
AcDbEntity
  8
Layer_1
 62
1
100
AcDbSpline
 70
8
 71
3
 72
8
 73
4
 74
0
 40
0
 40
0
 40
0
 40
0
 40
1
 40
1
 40
1
 40
1
 10
143.952547
 20
166.726882
 30
0.0
 10
148.716594
 20
166.726882
 30
0.0
 10
152.580102
 20
162.866881
 30
0.0
 10
152.580102
 20
158.116877
 30
0.0
  0
SPLINE
  5
1d7
100
AcDbEntity
  8
Layer_1
 62
1
100
AcDbSpline
 70
8
 71
3
 72
8
 73
4
 74
0
 40
0
 40
0
 40
0
 40
0
 40
1
 40
1
 40
1
 40
1
 10
152.580102
 20
158.116877
 30
0.0
 10
152.580102
 20
154.886875
 30
0.0
 10
150.800051
 20
152.076874
 30
0.0
 10
148.165523
 20
150.596874
 30
0.0
  0
LWPOLYLINE
  5
1d8
100
AcDbEntity
  8
Layer_1
 62
7
100
AcDbPolyline
 90
2
 70
0
 10
143.936336
 20
162.938367
 30
0.0
 10
143.936336
 20
162.938367
 30
0.0
  0
LWPOLYLINE
  5
1d9
100
AcDbEntity
  8
Layer_1
 62
1
100
AcDbPolyline
 90
2
 70
0
 10
141.495923
 20
167.236883
 30
0.0
 10
141.712246
 20
166.426882
 30
0.0
  0
LWPOLYLINE
  5
1da
100
AcDbEntity
  8
Layer_1
 62
1
100
AcDbPolyline
 90
2
 70
0
 10
138.823343
 20
166.966882
 30
0.0
 10
139.631425
 20
165.566882
 30
0.0
  0
LWPOLYLINE
  5
1db
100
AcDbEntity
  8
Layer_1
 62
1
100
AcDbPolyline
 90
2
 70
0
 10
137.256244
 20
164.786882
 30
0.0
 10
137.845367
 20
164.196882
 30
0.0
  0
LWPOLYLINE
  5
1dc
100
AcDbEntity
  8
Layer_1
 62
1
100
AcDbPolyline
 90
2
 70
0
 10
135.089676
 20
163.216882
 30
0.0
 10
136.474531
 20
162.416881
 30
0.0
  0
LWPOLYLINE
  5
1dd
100
AcDbEntity
  8
Layer_1
 62
1
100
AcDbPolyline
 90
2
 70
0
 10
134.809634
 20
160.556879
 30
0.0
 10
135.614045
 20
160.336879
 30
0.0
  0
LWPOLYLINE
  5
1de
100
AcDbEntity
  8
Layer_1
 62
1
100
AcDbPolyline
 90
2
 70
0
 10
133.714835
 20
158.106877
 30
0.0
 10
135.320986
 20
158.106877
 30
0.0
  0
LWPOLYLINE
  5
1df
100
AcDbEntity
  8
Layer_1
 62
1
100
AcDbPolyline
 90
2
 70
0
 10
134.811971
 20
155.666875
 30
0.0
 10
135.616381
 20
155.886876
 30
0.0
  0
LWPOLYLINE
  5
1e0
100
AcDbEntity
  8
Layer_1
 62
1
100
AcDbPolyline
 90
2
 70
0
 10
135.087340
 20
153.006875
 30
0.0
 10
136.478870
 20
153.806875
 30
0.0
  0
LWPOLYLINE
  5
1e1
100
AcDbEntity
  8
Layer_1
 62
1
100
AcDbPolyline
 90
2
 70
0
 10
137.262586
 20
151.436874
 30
0.0
 10
137.850374
 20
152.026874
 30
0.0
  0
LWPOLYLINE
  5
1e2
100
AcDbEntity
  8
Layer_1
 62
1
100
AcDbPolyline
 90
2
 70
0
 10
138.862062
 20
149.316873
 30
0.0
 10
139.638435
 20
150.656874
 30
0.0
  0
LWPOLYLINE
  5
1e3
100
AcDbEntity
  8
Layer_1
 62
1
100
AcDbPolyline
 90
2
 70
0
 10
149.050007
 20
149.306873
 30
0.0
 10
148.266324
 20
150.666874
 30
0.0
  0
LWPOLYLINE
  5
1e4
100
AcDbEntity
  8
Layer_1
 62
1
100
AcDbPolyline
 90
2
 70
0
 10
150.641172
 20
151.446874
 30
0.0
 10
150.052383
 20
152.026874
 30
0.0
  0
LWPOLYLINE
  5
1e5
100
AcDbEntity
  8
Layer_1
 62
1
100
AcDbPolyline
 90
2
 70
0
 10
152.782706
 20
153.026875
 30
0.0
 10
151.422552
 20
153.816875
 30
0.0
  0
LWPOLYLINE
  5
1e6
100
AcDbEntity
  8
Layer_1
 62
1
100
AcDbPolyline
 90
2
 70
0
 10
153.087447
 20
155.676875
 30
0.0
 10
152.283738
 20
155.896876
 30
0.0
  0
LWPOLYLINE
  5
1e7
100
AcDbEntity
  8
Layer_1
 62
1
100
AcDbPolyline
 90
2
 70
0
 10
154.131846
 20
158.116877
 30
0.0
 10
152.576430
 20
158.116877
 30
0.0
  0
LWPOLYLINE
  5
1e8
100
AcDbEntity
  8
Layer_1
 62
1
100
AcDbPolyline
 90
2
 70
0
 10
153.085144
 20
160.566879
 30
0.0
 10
152.281034
 20
160.346879
 30
0.0
  0
LWPOLYLINE
  5
1e9
100
AcDbEntity
  8
Layer_1
 62
1
100
AcDbPolyline
 90
2
 70
0
 10
152.773026
 20
163.206882
 30
0.0
 10
151.418880
 20
162.426881
 30
0.0
  0
LWPOLYLINE
  5
1ea
100
AcDbEntity
  8
Layer_1
 62
1
100
AcDbPolyline
 90
2
 70
0
 10
150.635464
 20
164.796882
 30
0.0
 10
150.047043
 20
164.206882
 30
0.0
  0
LWPOLYLINE
  5
1eb
100
AcDbEntity
  8
Layer_1
 62
1
100
AcDbPolyline
 90
2
 70
0
 10
149.068065
 20
166.966882
 30
0.0
 10
148.259315
 20
165.576882
 30
0.0
  0
LWPOLYLINE
  5
1ec
100
AcDbEntity
  8
Layer_1
 62
1
100
AcDbPolyline
 90
2
 70
0
 10
146.393149
 20
167.236883
 30
0.0
 10
146.177861
 20
166.436882
 30
0.0
  0
SPLINE
  5
1ed
100
AcDbEntity
  8
Layer_1
 62
7
100
AcDbSpline
 70
8
 71
3
 72
8
 73
4
 74
0
 40
0
 40
0
 40
0
 40
0
 40
1
 40
1
 40
1
 40
1
 10
169.336335
 20
162.938367
 30
0.0
 10
166.714316
 20
162.938367
 30
0.0
 10
164.581638
 20
160.815003
 30
0.0
 10
164.581638
 20
158.192999
 30
0.0
  0
SPLINE
  5
1ee
100
AcDbEntity
  8
Layer_1
 62
7
100
AcDbSpline
 70
8
 71
3
 72
8
 73
4
 74
0
 40
0
 40
0
 40
0
 40
0
 40
1
 40
1
 40
1
 40
1
 10
164.581638
 20
158.192999
 30
0.0
 10
164.581638
 20
156.049203
 30
0.0
 10
166.007833
 20
154.232648
 30
0.0
 10
167.959239
 20
153.643019
 30
0.0
  0
LWPOLYLINE
  5
1ef
100
AcDbEntity
  8
Layer_1
 62
1
100
AcDbPolyline
 90
2
 70
0
 10
143.944169
 20
168.316884
 30
0.0
 10
143.944169
 20
166.726882
 30
0.0
  0
SPLINE
  5
1f0
100
AcDbEntity
  8
Layer_1
 62
7
100
AcDbSpline
 70
8
 71
3
 72
8
 73
4
 74
0
 40
0
 40
0
 40
0
 40
0
 40
1
 40
1
 40
1
 40
1
 10
170.601775
 20
153.615107
 30
0.0
 10
172.605259
 20
154.171687
 30
0.0
 10
174.081731
 20
156.012174
 30
0.0
 10
174.081731
 20
158.192999
 30
0.0
  0
SPLINE
  5
1f1
100
AcDbEntity
  8
Layer_1
 62
7
100
AcDbSpline
 70
8
 71
3
 72
8
 73
4
 74
0
 40
0
 40
0
 40
0
 40
0
 40
1
 40
1
 40
1
 40
1
 10
174.081731
 20
158.192999
 30
0.0
 10
174.081731
 20
160.815003
 30
0.0
 10
171.958362
 20
162.938367
 30
0.0
 10
169.336335
 20
162.938367
 30
0.0
  0
LWPOLYLINE
  5
1f2
100
AcDbEntity
  8
Layer_1
 62
7
100
AcDbPolyline
 90
4
 70
0
 10
167.959239
 20
153.643019
 30
0.0
 10
167.959239
 20
150.963273
 30
0.0
 10
170.601775
 20
150.963273
 30
0.0
 10
170.601775
 20
153.615107
 30
0.0
  0
SPLINE
  5
1f3
100
AcDbEntity
  8
Layer_1
 62
1
100
AcDbSpline
 70
8
 71
3
 72
8
 73
4
 74
0
 40
0
 40
0
 40
0
 40
0
 40
1
 40
1
 40
1
 40
1
 10
165.132560
 20
150.606874
 30
0.0
 10
162.501704
 20
152.076874
 30
0.0
 10
160.724323
 20
154.886875
 30
0.0
 10
160.724323
 20
158.116877
 30
0.0
  0
SPLINE
  5
1f4
100
AcDbEntity
  8
Layer_1
 62
1
100
AcDbSpline
 70
8
 71
3
 72
8
 73
4
 74
0
 40
0
 40
0
 40
0
 40
0
 40
1
 40
1
 40
1
 40
1
 10
160.724323
 20
158.116877
 30
0.0
 10
160.724323
 20
162.866881
 30
0.0
 10
164.587163
 20
166.726882
 30
0.0
 10
169.352546
 20
166.726882
 30
0.0
  0
SPLINE
  5
1f5
100
AcDbEntity
  8
Layer_1
 62
1
100
AcDbSpline
 70
8
 71
3
 72
8
 73
4
 74
0
 40
0
 40
0
 40
0
 40
0
 40
1
 40
1
 40
1
 40
1
 10
169.352546
 20
166.726882
 30
0.0
 10
174.116593
 20
166.726882
 30
0.0
 10
177.980101
 20
162.866881
 30
0.0
 10
177.980101
 20
158.116877
 30
0.0
  0
SPLINE
  5
1f6
100
AcDbEntity
  8
Layer_1
 62
1
100
AcDbSpline
 70
8
 71
3
 72
8
 73
4
 74
0
 40
0
 40
0
 40
0
 40
0
 40
1
 40
1
 40
1
 40
1
 10
177.980101
 20
158.116877
 30
0.0
 10
177.980101
 20
154.886875
 30
0.0
 10
176.200050
 20
152.076874
 30
0.0
 10
173.565522
 20
150.596874
 30
0.0
  0
LWPOLYLINE
  5
1f7
100
AcDbEntity
  8
Layer_1
 62
7
100
AcDbPolyline
 90
2
 70
0
 10
169.336335
 20
162.938367
 30
0.0
 10
169.336335
 20
162.938367
 30
0.0
  0
LWPOLYLINE
  5
1f8
100
AcDbEntity
  8
Layer_1
 62
1
100
AcDbPolyline
 90
2
 70
0
 10
166.895922
 20
167.236883
 30
0.0
 10
167.112245
 20
166.426882
 30
0.0
  0
LWPOLYLINE
  5
1f9
100
AcDbEntity
  8
Layer_1
 62
1
100
AcDbPolyline
 90
2
 70
0
 10
164.223343
 20
166.966882
 30
0.0
 10
165.031425
 20
165.566882
 30
0.0
  0
LWPOLYLINE
  5
1fa
100
AcDbEntity
  8
Layer_1
 62
1
100
AcDbPolyline
 90
2
 70
0
 10
162.656244
 20
164.786882
 30
0.0
 10
163.245366
 20
164.196882
 30
0.0
  0
LWPOLYLINE
  5
1fb
100
AcDbEntity
  8
Layer_1
 62
1
100
AcDbPolyline
 90
2
 70
0
 10
160.489675
 20
163.216882
 30
0.0
 10
161.874530
 20
162.416881
 30
0.0
  0
LWPOLYLINE
  5
1fc
100
AcDbEntity
  8
Layer_1
 62
1
100
AcDbPolyline
 90
2
 70
0
 10
160.209634
 20
160.556879
 30
0.0
 10
161.014044
 20
160.336879
 30
0.0
  0
LWPOLYLINE
  5
1fd
100
AcDbEntity
  8
Layer_1
 62
1
100
AcDbPolyline
 90
2
 70
0
 10
159.114834
 20
158.106877
 30
0.0
 10
160.720985
 20
158.106877
 30
0.0
  0
LWPOLYLINE
  5
1fe
100
AcDbEntity
  8
Layer_1
 62
1
100
AcDbPolyline
 90
2
 70
0
 10
160.211970
 20
155.666875
 30
0.0
 10
161.016381
 20
155.886876
 30
0.0
  0
LWPOLYLINE
  5
1ff
100
AcDbEntity
  8
Layer_1
 62
1
100
AcDbPolyline
 90
2
 70
0
 10
160.487339
 20
153.006875
 30
0.0
 10
161.878869
 20
153.806875
 30
0.0
  0
LWPOLYLINE
  5
200
100
AcDbEntity
  8
Layer_1
 62
1
100
AcDbPolyline
 90
2
 70
0
 10
162.662586
 20
151.436874
 30
0.0
 10
163.250373
 20
152.026874
 30
0.0
  0
LWPOLYLINE
  5
201
100
AcDbEntity
  8
Layer_1
 62
1
100
AcDbPolyline
 90
2
 70
0
 10
164.262061
 20
149.316873
 30
0.0
 10
165.038434
 20
150.656874
 30
0.0
  0
LWPOLYLINE
  5
202
100
AcDbEntity
  8
Layer_1
 62
1
100
AcDbPolyline
 90
2
 70
0
 10
174.450006
 20
149.306873
 30
0.0
 10
173.666323
 20
150.666874
 30
0.0
  0
LWPOLYLINE
  5
203
100
AcDbEntity
  8
Layer_1
 62
1
100
AcDbPolyline
 90
2
 70
0
 10
176.041171
 20
151.446874
 30
0.0
 10
175.452382
 20
152.026874
 30
0.0
  0
LWPOLYLINE
  5
204
100
AcDbEntity
  8
Layer_1
 62
1
100
AcDbPolyline
 90
2
 70
0
 10
178.182706
 20
153.026875
 30
0.0
 10
176.822551
 20
153.816875
 30
0.0
  0
LWPOLYLINE
  5
205
100
AcDbEntity
  8
Layer_1
 62
1
100
AcDbPolyline
 90
2
 70
0
 10
178.487447
 20
155.676875
 30
0.0
 10
177.683737
 20
155.896876
 30
0.0
  0
LWPOLYLINE
  5
206
100
AcDbEntity
  8
Layer_1
 62
1
100
AcDbPolyline
 90
2
 70
0
 10
179.531846
 20
158.116877
 30
0.0
 10
177.976429
 20
158.116877
 30
0.0
  0
LWPOLYLINE
  5
207
100
AcDbEntity
  8
Layer_1
 62
1
100
AcDbPolyline
 90
2
 70
0
 10
178.485144
 20
160.566879
 30
0.0
 10
177.681033
 20
160.346879
 30
0.0
  0
LWPOLYLINE
  5
208
100
AcDbEntity
  8
Layer_1
 62
1
100
AcDbPolyline
 90
2
 70
0
 10
178.173026
 20
163.206882
 30
0.0
 10
176.818879
 20
162.426881
 30
0.0
  0
LWPOLYLINE
  5
209
100
AcDbEntity
  8
Layer_1
 62
1
100
AcDbPolyline
 90
2
 70
0
 10
176.035463
 20
164.796882
 30
0.0
 10
175.447042
 20
164.206882
 30
0.0
  0
LWPOLYLINE
  5
20a
100
AcDbEntity
  8
Layer_1
 62
1
100
AcDbPolyline
 90
2
 70
0
 10
174.468064
 20
166.966882
 30
0.0
 10
173.659314
 20
165.576882
 30
0.0
  0
LWPOLYLINE
  5
20b
100
AcDbEntity
  8
Layer_1
 62
1
100
AcDbPolyline
 90
2
 70
0
 10
171.793148
 20
167.236883
 30
0.0
 10
171.577860
 20
166.436882
 30
0.0
  0
SPLINE
  5
20c
100
AcDbEntity
  8
Layer_1
 62
7
100
AcDbSpline
 70
8
 71
3
 72
8
 73
4
 74
0
 40
0
 40
0
 40
0
 40
0
 40
1
 40
1
 40
1
 40
1
 10
143.936336
 20
143.888367
 30
0.0
 10
141.314317
 20
143.888367
 30
0.0
 10
139.181639
 20
141.765003
 30
0.0
 10
139.181639
 20
139.142999
 30
0.0
  0
SPLINE
  5
20d
100
AcDbEntity
  8
Layer_1
 62
7
100
AcDbSpline
 70
8
 71
3
 72
8
 73
4
 74
0
 40
0
 40
0
 40
0
 40
0
 40
1
 40
1
 40
1
 40
1
 10
139.181639
 20
139.142999
 30
0.0
 10
139.181639
 20
136.999203
 30
0.0
 10
140.607834
 20
135.182648
 30
0.0
 10
142.559240
 20
134.593017
 30
0.0
  0
LWPOLYLINE
  5
20e
100
AcDbEntity
  8
Layer_1
 62
1
100
AcDbPolyline
 90
2
 70
0
 10
169.344168
 20
168.316884
 30
0.0
 10
169.344168
 20
166.726882
 30
0.0
  0
SPLINE
  5
20f
100
AcDbEntity
  8
Layer_1
 62
7
100
AcDbSpline
 70
8
 71
3
 72
8
 73
4
 74
0
 40
0
 40
0
 40
0
 40
0
 40
1
 40
1
 40
1
 40
1
 10
145.201776
 20
134.565107
 30
0.0
 10
147.205260
 20
135.121687
 30
0.0
 10
148.681732
 20
136.962174
 30
0.0
 10
148.681732
 20
139.142999
 30
0.0
  0
SPLINE
  5
210
100
AcDbEntity
  8
Layer_1
 62
7
100
AcDbSpline
 70
8
 71
3
 72
8
 73
4
 74
0
 40
0
 40
0
 40
0
 40
0
 40
1
 40
1
 40
1
 40
1
 10
148.681732
 20
139.142999
 30
0.0
 10
148.681732
 20
141.765003
 30
0.0
 10
146.558363
 20
143.888367
 30
0.0
 10
143.936336
 20
143.888367
 30
0.0
  0
LWPOLYLINE
  5
211
100
AcDbEntity
  8
Layer_1
 62
7
100
AcDbPolyline
 90
4
 70
0
 10
142.559240
 20
134.593017
 30
0.0
 10
142.559240
 20
131.913277
 30
0.0
 10
145.201776
 20
131.913277
 30
0.0
 10
145.201776
 20
134.565107
 30
0.0
  0
SPLINE
  5
212
100
AcDbEntity
  8
Layer_1
 62
1
100
AcDbSpline
 70
8
 71
3
 72
8
 73
4
 74
0
 40
0
 40
0
 40
0
 40
0
 40
1
 40
1
 40
1
 40
1
 10
139.732561
 20
131.556875
 30
0.0
 10
137.101704
 20
133.026875
 30
0.0
 10
135.324324
 20
135.836875
 30
0.0
 10
135.324324
 20
139.066878
 30
0.0
  0
SPLINE
  5
213
100
AcDbEntity
  8
Layer_1
 62
1
100
AcDbSpline
 70
8
 71
3
 72
8
 73
4
 74
0
 40
0
 40
0
 40
0
 40
0
 40
1
 40
1
 40
1
 40
1
 10
135.324324
 20
139.066878
 30
0.0
 10
135.324324
 20
143.816882
 30
0.0
 10
139.187164
 20
147.676883
 30
0.0
 10
143.952547
 20
147.676883
 30
0.0
  0
SPLINE
  5
214
100
AcDbEntity
  8
Layer_1
 62
1
100
AcDbSpline
 70
8
 71
3
 72
8
 73
4
 74
0
 40
0
 40
0
 40
0
 40
0
 40
1
 40
1
 40
1
 40
1
 10
143.952547
 20
147.676883
 30
0.0
 10
148.716594
 20
147.676883
 30
0.0
 10
152.580102
 20
143.816882
 30
0.0
 10
152.580102
 20
139.066878
 30
0.0
  0
SPLINE
  5
215
100
AcDbEntity
  8
Layer_1
 62
1
100
AcDbSpline
 70
8
 71
3
 72
8
 73
4
 74
0
 40
0
 40
0
 40
0
 40
0
 40
1
 40
1
 40
1
 40
1
 10
152.580102
 20
139.066878
 30
0.0
 10
152.580102
 20
135.836875
 30
0.0
 10
150.800051
 20
133.026875
 30
0.0
 10
148.165523
 20
131.546875
 30
0.0
  0
LWPOLYLINE
  5
216
100
AcDbEntity
  8
Layer_1
 62
7
100
AcDbPolyline
 90
2
 70
0
 10
143.936336
 20
143.888367
 30
0.0
 10
143.936336
 20
143.888367
 30
0.0
  0
LWPOLYLINE
  5
217
100
AcDbEntity
  8
Layer_1
 62
1
100
AcDbPolyline
 90
2
 70
0
 10
141.495923
 20
148.186884
 30
0.0
 10
141.712246
 20
147.376883
 30
0.0
  0
LWPOLYLINE
  5
218
100
AcDbEntity
  8
Layer_1
 62
1
100
AcDbPolyline
 90
2
 70
0
 10
138.823343
 20
147.916883
 30
0.0
 10
139.631425
 20
146.516882
 30
0.0
  0
LWPOLYLINE
  5
219
100
AcDbEntity
  8
Layer_1
 62
1
100
AcDbPolyline
 90
2
 70
0
 10
137.256244
 20
145.736883
 30
0.0
 10
137.845367
 20
145.146883
 30
0.0
  0
LWPOLYLINE
  5
21a
100
AcDbEntity
  8
Layer_1
 62
1
100
AcDbPolyline
 90
2
 70
0
 10
135.089676
 20
144.166883
 30
0.0
 10
136.474531
 20
143.366881
 30
0.0
  0
LWPOLYLINE
  5
21b
100
AcDbEntity
  8
Layer_1
 62
1
100
AcDbPolyline
 90
2
 70
0
 10
134.809634
 20
141.506880
 30
0.0
 10
135.614045
 20
141.286879
 30
0.0
  0
LWPOLYLINE
  5
21c
100
AcDbEntity
  8
Layer_1
 62
1
100
AcDbPolyline
 90
2
 70
0
 10
133.714835
 20
139.056878
 30
0.0
 10
135.320986
 20
139.056878
 30
0.0
  0
LWPOLYLINE
  5
21d
100
AcDbEntity
  8
Layer_1
 62
1
100
AcDbPolyline
 90
2
 70
0
 10
134.811971
 20
136.616876
 30
0.0
 10
135.616381
 20
136.836876
 30
0.0
  0
LWPOLYLINE
  5
21e
100
AcDbEntity
  8
Layer_1
 62
1
100
AcDbPolyline
 90
2
 70
0
 10
135.087340
 20
133.956875
 30
0.0
 10
136.478870
 20
134.756875
 30
0.0
  0
LWPOLYLINE
  5
21f
100
AcDbEntity
  8
Layer_1
 62
1
100
AcDbPolyline
 90
2
 70
0
 10
137.262586
 20
132.386875
 30
0.0
 10
137.850374
 20
132.976875
 30
0.0
  0
LWPOLYLINE
  5
220
100
AcDbEntity
  8
Layer_1
 62
1
100
AcDbPolyline
 90
2
 70
0
 10
138.862062
 20
130.266873
 30
0.0
 10
139.638435
 20
131.606875
 30
0.0
  0
LWPOLYLINE
  5
221
100
AcDbEntity
  8
Layer_1
 62
1
100
AcDbPolyline
 90
2
 70
0
 10
149.050007
 20
130.256874
 30
0.0
 10
148.266324
 20
131.616875
 30
0.0
  0
LWPOLYLINE
  5
222
100
AcDbEntity
  8
Layer_1
 62
1
100
AcDbPolyline
 90
2
 70
0
 10
150.641172
 20
132.396875
 30
0.0
 10
150.052383
 20
132.976875
 30
0.0
  0
LWPOLYLINE
  5
223
100
AcDbEntity
  8
Layer_1
 62
1
100
AcDbPolyline
 90
2
 70
0
 10
152.782706
 20
133.976875
 30
0.0
 10
151.422552
 20
134.766875
 30
0.0
  0
LWPOLYLINE
  5
224
100
AcDbEntity
  8
Layer_1
 62
1
100
AcDbPolyline
 90
2
 70
0
 10
153.087447
 20
136.626876
 30
0.0
 10
152.283738
 20
136.846876
 30
0.0
  0
LWPOLYLINE
  5
225
100
AcDbEntity
  8
Layer_1
 62
1
100
AcDbPolyline
 90
2
 70
0
 10
154.131846
 20
139.066878
 30
0.0
 10
152.576430
 20
139.066878
 30
0.0
  0
LWPOLYLINE
  5
226
100
AcDbEntity
  8
Layer_1
 62
1
100
AcDbPolyline
 90
2
 70
0
 10
153.085144
 20
141.516880
 30
0.0
 10
152.281034
 20
141.296879
 30
0.0
  0
LWPOLYLINE
  5
227
100
AcDbEntity
  8
Layer_1
 62
1
100
AcDbPolyline
 90
2
 70
0
 10
152.773026
 20
144.156883
 30
0.0
 10
151.418880
 20
143.376881
 30
0.0
  0
LWPOLYLINE
  5
228
100
AcDbEntity
  8
Layer_1
 62
1
100
AcDbPolyline
 90
2
 70
0
 10
150.635464
 20
145.746883
 30
0.0
 10
150.047043
 20
145.156883
 30
0.0
  0
LWPOLYLINE
  5
229
100
AcDbEntity
  8
Layer_1
 62
1
100
AcDbPolyline
 90
2
 70
0
 10
149.068065
 20
147.916883
 30
0.0
 10
148.259315
 20
146.526883
 30
0.0
  0
LWPOLYLINE
  5
22a
100
AcDbEntity
  8
Layer_1
 62
1
100
AcDbPolyline
 90
2
 70
0
 10
146.393149
 20
148.186884
 30
0.0
 10
146.177861
 20
147.386883
 30
0.0
  0
SPLINE
  5
22b
100
AcDbEntity
  8
Layer_1
 62
7
100
AcDbSpline
 70
8
 71
3
 72
8
 73
4
 74
0
 40
0
 40
0
 40
0
 40
0
 40
1
 40
1
 40
1
 40
1
 10
169.336335
 20
143.888367
 30
0.0
 10
166.714316
 20
143.888367
 30
0.0
 10
164.581638
 20
141.765003
 30
0.0
 10
164.581638
 20
139.142999
 30
0.0
  0
SPLINE
  5
22c
100
AcDbEntity
  8
Layer_1
 62
7
100
AcDbSpline
 70
8
 71
3
 72
8
 73
4
 74
0
 40
0
 40
0
 40
0
 40
0
 40
1
 40
1
 40
1
 40
1
 10
164.581638
 20
139.142999
 30
0.0
 10
164.581638
 20
136.999203
 30
0.0
 10
166.007833
 20
135.182648
 30
0.0
 10
167.959239
 20
134.593017
 30
0.0
  0
LWPOLYLINE
  5
22d
100
AcDbEntity
  8
Layer_1
 62
1
100
AcDbPolyline
 90
2
 70
0
 10
143.944169
 20
149.266884
 30
0.0
 10
143.944169
 20
147.676883
 30
0.0
  0
SPLINE
  5
22e
100
AcDbEntity
  8
Layer_1
 62
7
100
AcDbSpline
 70
8
 71
3
 72
8
 73
4
 74
0
 40
0
 40
0
 40
0
 40
0
 40
1
 40
1
 40
1
 40
1
 10
170.601775
 20
134.565107
 30
0.0
 10
172.605259
 20
135.121687
 30
0.0
 10
174.081731
 20
136.962174
 30
0.0
 10
174.081731
 20
139.142999
 30
0.0
  0
SPLINE
  5
22f
100
AcDbEntity
  8
Layer_1
 62
7
100
AcDbSpline
 70
8
 71
3
 72
8
 73
4
 74
0
 40
0
 40
0
 40
0
 40
0
 40
1
 40
1
 40
1
 40
1
 10
174.081731
 20
139.142999
 30
0.0
 10
174.081731
 20
141.765003
 30
0.0
 10
171.958362
 20
143.888367
 30
0.0
 10
169.336335
 20
143.888367
 30
0.0
  0
LWPOLYLINE
  5
230
100
AcDbEntity
  8
Layer_1
 62
7
100
AcDbPolyline
 90
4
 70
0
 10
167.959239
 20
134.593017
 30
0.0
 10
167.959239
 20
131.913277
 30
0.0
 10
170.601775
 20
131.913277
 30
0.0
 10
170.601775
 20
134.565107
 30
0.0
  0
SPLINE
  5
231
100
AcDbEntity
  8
Layer_1
 62
1
100
AcDbSpline
 70
8
 71
3
 72
8
 73
4
 74
0
 40
0
 40
0
 40
0
 40
0
 40
1
 40
1
 40
1
 40
1
 10
165.132560
 20
131.556875
 30
0.0
 10
162.501704
 20
133.026875
 30
0.0
 10
160.724323
 20
135.836875
 30
0.0
 10
160.724323
 20
139.066878
 30
0.0
  0
SPLINE
  5
232
100
AcDbEntity
  8
Layer_1
 62
1
100
AcDbSpline
 70
8
 71
3
 72
8
 73
4
 74
0
 40
0
 40
0
 40
0
 40
0
 40
1
 40
1
 40
1
 40
1
 10
160.724323
 20
139.066878
 30
0.0
 10
160.724323
 20
143.816882
 30
0.0
 10
164.587163
 20
147.676883
 30
0.0
 10
169.352546
 20
147.676883
 30
0.0
  0
SPLINE
  5
233
100
AcDbEntity
  8
Layer_1
 62
1
100
AcDbSpline
 70
8
 71
3
 72
8
 73
4
 74
0
 40
0
 40
0
 40
0
 40
0
 40
1
 40
1
 40
1
 40
1
 10
169.352546
 20
147.676883
 30
0.0
 10
174.116593
 20
147.676883
 30
0.0
 10
177.980101
 20
143.816882
 30
0.0
 10
177.980101
 20
139.066878
 30
0.0
  0
SPLINE
  5
234
100
AcDbEntity
  8
Layer_1
 62
1
100
AcDbSpline
 70
8
 71
3
 72
8
 73
4
 74
0
 40
0
 40
0
 40
0
 40
0
 40
1
 40
1
 40
1
 40
1
 10
177.980101
 20
139.066878
 30
0.0
 10
177.980101
 20
135.836875
 30
0.0
 10
176.200050
 20
133.026875
 30
0.0
 10
173.565522
 20
131.546875
 30
0.0
  0
LWPOLYLINE
  5
235
100
AcDbEntity
  8
Layer_1
 62
7
100
AcDbPolyline
 90
2
 70
0
 10
169.336335
 20
143.888367
 30
0.0
 10
169.336335
 20
143.888367
 30
0.0
  0
LWPOLYLINE
  5
236
100
AcDbEntity
  8
Layer_1
 62
1
100
AcDbPolyline
 90
2
 70
0
 10
166.895922
 20
148.186884
 30
0.0
 10
167.112245
 20
147.376883
 30
0.0
  0
LWPOLYLINE
  5
237
100
AcDbEntity
  8
Layer_1
 62
1
100
AcDbPolyline
 90
2
 70
0
 10
164.223343
 20
147.916883
 30
0.0
 10
165.031425
 20
146.516882
 30
0.0
  0
LWPOLYLINE
  5
238
100
AcDbEntity
  8
Layer_1
 62
1
100
AcDbPolyline
 90
2
 70
0
 10
162.656244
 20
145.736883
 30
0.0
 10
163.245366
 20
145.146883
 30
0.0
  0
LWPOLYLINE
  5
239
100
AcDbEntity
  8
Layer_1
 62
1
100
AcDbPolyline
 90
2
 70
0
 10
160.489675
 20
144.166883
 30
0.0
 10
161.874530
 20
143.366881
 30
0.0
  0
LWPOLYLINE
  5
23a
100
AcDbEntity
  8
Layer_1
 62
1
100
AcDbPolyline
 90
2
 70
0
 10
160.209634
 20
141.506880
 30
0.0
 10
161.014044
 20
141.286879
 30
0.0
  0
LWPOLYLINE
  5
23b
100
AcDbEntity
  8
Layer_1
 62
1
100
AcDbPolyline
 90
2
 70
0
 10
159.114834
 20
139.056878
 30
0.0
 10
160.720985
 20
139.056878
 30
0.0
  0
LWPOLYLINE
  5
23c
100
AcDbEntity
  8
Layer_1
 62
1
100
AcDbPolyline
 90
2
 70
0
 10
160.211970
 20
136.616876
 30
0.0
 10
161.016381
 20
136.836876
 30
0.0
  0
LWPOLYLINE
  5
23d
100
AcDbEntity
  8
Layer_1
 62
1
100
AcDbPolyline
 90
2
 70
0
 10
160.487339
 20
133.956875
 30
0.0
 10
161.878869
 20
134.756875
 30
0.0
  0
LWPOLYLINE
  5
23e
100
AcDbEntity
  8
Layer_1
 62
1
100
AcDbPolyline
 90
2
 70
0
 10
162.662586
 20
132.386875
 30
0.0
 10
163.250373
 20
132.976875
 30
0.0
  0
LWPOLYLINE
  5
23f
100
AcDbEntity
  8
Layer_1
 62
1
100
AcDbPolyline
 90
2
 70
0
 10
164.262061
 20
130.266873
 30
0.0
 10
165.038434
 20
131.606875
 30
0.0
  0
LWPOLYLINE
  5
240
100
AcDbEntity
  8
Layer_1
 62
1
100
AcDbPolyline
 90
2
 70
0
 10
174.450006
 20
130.256874
 30
0.0
 10
173.666323
 20
131.616875
 30
0.0
  0
LWPOLYLINE
  5
241
100
AcDbEntity
  8
Layer_1
 62
1
100
AcDbPolyline
 90
2
 70
0
 10
176.041171
 20
132.396875
 30
0.0
 10
175.452382
 20
132.976875
 30
0.0
  0
LWPOLYLINE
  5
242
100
AcDbEntity
  8
Layer_1
 62
1
100
AcDbPolyline
 90
2
 70
0
 10
178.182706
 20
133.976875
 30
0.0
 10
176.822551
 20
134.766875
 30
0.0
  0
LWPOLYLINE
  5
243
100
AcDbEntity
  8
Layer_1
 62
1
100
AcDbPolyline
 90
2
 70
0
 10
178.487447
 20
136.626876
 30
0.0
 10
177.683737
 20
136.846876
 30
0.0
  0
LWPOLYLINE
  5
244
100
AcDbEntity
  8
Layer_1
 62
1
100
AcDbPolyline
 90
2
 70
0
 10
179.531846
 20
139.066878
 30
0.0
 10
177.976429
 20
139.066878
 30
0.0
  0
LWPOLYLINE
  5
245
100
AcDbEntity
  8
Layer_1
 62
1
100
AcDbPolyline
 90
2
 70
0
 10
178.485144
 20
141.516880
 30
0.0
 10
177.681033
 20
141.296879
 30
0.0
  0
LWPOLYLINE
  5
246
100
AcDbEntity
  8
Layer_1
 62
1
100
AcDbPolyline
 90
2
 70
0
 10
178.173026
 20
144.156883
 30
0.0
 10
176.818879
 20
143.376881
 30
0.0
  0
LWPOLYLINE
  5
247
100
AcDbEntity
  8
Layer_1
 62
1
100
AcDbPolyline
 90
2
 70
0
 10
176.035463
 20
145.746883
 30
0.0
 10
175.447042
 20
145.156883
 30
0.0
  0
LWPOLYLINE
  5
248
100
AcDbEntity
  8
Layer_1
 62
1
100
AcDbPolyline
 90
2
 70
0
 10
174.468064
 20
147.916883
 30
0.0
 10
173.659314
 20
146.526883
 30
0.0
  0
LWPOLYLINE
  5
249
100
AcDbEntity
  8
Layer_1
 62
1
100
AcDbPolyline
 90
2
 70
0
 10
171.793148
 20
148.186884
 30
0.0
 10
171.577860
 20
147.386883
 30
0.0
  0
SPLINE
  5
24a
100
AcDbEntity
  8
Layer_1
 62
7
100
AcDbSpline
 70
8
 71
3
 72
8
 73
4
 74
0
 40
0
 40
0
 40
0
 40
0
 40
1
 40
1
 40
1
 40
1
 10
145.436335
 20
126.438368
 30
0.0
 10
145.436335
 20
125.609948
 30
0.0
 10
144.764762
 20
124.938368
 30
0.0
 10
143.936335
 20
124.938368
 30
0.0
  0
SPLINE
  5
24b
100
AcDbEntity
  8
Layer_1
 62
7
100
AcDbSpline
 70
8
 71
3
 72
8
 73
4
 74
0
 40
0
 40
0
 40
0
 40
0
 40
1
 40
1
 40
1
 40
1
 10
143.936335
 20
124.938368
 30
0.0
 10
143.107908
 20
124.938368
 30
0.0
 10
142.436335
 20
125.609948
 30
0.0
 10
142.436335
 20
126.438368
 30
0.0
  0
SPLINE
  5
24c
100
AcDbEntity
  8
Layer_1
 62
7
100
AcDbSpline
 70
8
 71
3
 72
8
 73
4
 74
0
 40
0
 40
0
 40
0
 40
0
 40
1
 40
1
 40
1
 40
1
 10
142.436335
 20
126.438368
 30
0.0
 10
142.436335
 20
127.266798
 30
0.0
 10
143.107908
 20
127.938368
 30
0.0
 10
143.936335
 20
127.938368
 30
0.0
  0
SPLINE
  5
24d
100
AcDbEntity
  8
Layer_1
 62
7
100
AcDbSpline
 70
8
 71
3
 72
8
 73
4
 74
0
 40
0
 40
0
 40
0
 40
0
 40
1
 40
1
 40
1
 40
1
 10
143.936335
 20
127.938368
 30
0.0
 10
144.764762
 20
127.938368
 30
0.0
 10
145.436335
 20
127.266798
 30
0.0
 10
145.436335
 20
126.438368
 30
0.0
  0
LWPOLYLINE
  5
24e
100
AcDbEntity
  8
Layer_1
 62
1
100
AcDbPolyline
 90
2
 70
0
 10
169.344168
 20
149.266884
 30
0.0
 10
169.344168
 20
147.676883
 30
0.0
  0
SPLINE
  5
24f
100
AcDbEntity
  8
Layer_1
 62
7
100
AcDbSpline
 70
8
 71
3
 72
8
 73
4
 74
0
 40
0
 40
0
 40
0
 40
0
 40
1
 40
1
 40
1
 40
1
 10
170.836336
 20
126.438368
 30
0.0
 10
170.836336
 20
125.609948
 30
0.0
 10
170.164763
 20
124.938368
 30
0.0
 10
169.336336
 20
124.938368
 30
0.0
  0
SPLINE
  5
250
100
AcDbEntity
  8
Layer_1
 62
7
100
AcDbSpline
 70
8
 71
3
 72
8
 73
4
 74
0
 40
0
 40
0
 40
0
 40
0
 40
1
 40
1
 40
1
 40
1
 10
169.336336
 20
124.938368
 30
0.0
 10
168.507909
 20
124.938368
 30
0.0
 10
167.836336
 20
125.609948
 30
0.0
 10
167.836336
 20
126.438368
 30
0.0
  0
SPLINE
  5
251
100
AcDbEntity
  8
Layer_1
 62
7
100
AcDbSpline
 70
8
 71
3
 72
8
 73
4
 74
0
 40
0
 40
0
 40
0
 40
0
 40
1
 40
1
 40
1
 40
1
 10
167.836336
 20
126.438368
 30
0.0
 10
167.836336
 20
127.266798
 30
0.0
 10
168.507909
 20
127.938368
 30
0.0
 10
169.336336
 20
127.938368
 30
0.0
  0
SPLINE
  5
252
100
AcDbEntity
  8
Layer_1
 62
7
100
AcDbSpline
 70
8
 71
3
 72
8
 73
4
 74
0
 40
0
 40
0
 40
0
 40
0
 40
1
 40
1
 40
1
 40
1
 10
169.336336
 20
127.938368
 30
0.0
 10
170.164763
 20
127.938368
 30
0.0
 10
170.836336
 20
127.266798
 30
0.0
 10
170.836336
 20
126.438368
 30
0.0
  0
LWPOLYLINE
  5
253
100
AcDbEntity
  8
Layer_1
 62
7
100
AcDbPolyline
 90
2
 70
0
 10
145.436335
 20
126.438368
 30
0.0
 10
145.436335
 20
126.438368
 30
0.0
  0
SPLINE
  5
254
100
AcDbEntity
  8
Layer_1
 62
7
100
AcDbSpline
 70
8
 71
3
 72
8
 73
4
 74
0
 40
0
 40
0
 40
0
 40
0
 40
1
 40
1
 40
1
 40
1
 10
126.866336
 20
215.338366
 30
0.0
 10
126.866336
 20
213.543440
 30
0.0
 10
125.411261
 20
212.088366
 30
0.0
 10
123.616336
 20
212.088366
 30
0.0
  0
SPLINE
  5
255
100
AcDbEntity
  8
Layer_1
 62
7
100
AcDbSpline
 70
8
 71
3
 72
8
 73
4
 74
0
 40
0
 40
0
 40
0
 40
0
 40
1
 40
1
 40
1
 40
1
 10
123.616336
 20
212.088366
 30
0.0
 10
121.821410
 20
212.088366
 30
0.0
 10
120.366336
 20
213.543440
 30
0.0
 10
120.366336
 20
215.338366
 30
0.0
  0
SPLINE
  5
256
100
AcDbEntity
  8
Layer_1
 62
7
100
AcDbSpline
 70
8
 71
3
 72
8
 73
4
 74
0
 40
0
 40
0
 40
0
 40
0
 40
1
 40
1
 40
1
 40
1
 10
120.366336
 20
215.338366
 30
0.0
 10
120.366336
 20
217.133291
 30
0.0
 10
121.821410
 20
218.588366
 30
0.0
 10
123.616336
 20
218.588366
 30
0.0
  0
SPLINE
  5
257
100
AcDbEntity
  8
Layer_1
 62
7
100
AcDbSpline
 70
8
 71
3
 72
8
 73
4
 74
0
 40
0
 40
0
 40
0
 40
0
 40
1
 40
1
 40
1
 40
1
 10
123.616336
 20
218.588366
 30
0.0
 10
125.411261
 20
218.588366
 30
0.0
 10
126.866336
 20
217.133291
 30
0.0
 10
126.866336
 20
215.338366
 30
0.0
  0
LWPOLYLINE
  5
258
100
AcDbEntity
  8
Layer_1
 62
7
100
AcDbPolyline
 90
2
 70
0
 10
170.836336
 20
126.438368
 30
0.0
 10
170.836336
 20
126.438368
 30
0.0
  0
SPLINE
  5
259
100
AcDbEntity
  8
Layer_1
 62
7
100
AcDbSpline
 70
8
 71
3
 72
8
 73
4
 74
0
 40
0
 40
0
 40
0
 40
0
 40
1
 40
1
 40
1
 40
1
 10
126.866336
 20
202.638366
 30
0.0
 10
126.866336
 20
200.843441
 30
0.0
 10
125.411261
 20
199.388366
 30
0.0
 10
123.616336
 20
199.388366
 30
0.0
  0
SPLINE
  5
25a
100
AcDbEntity
  8
Layer_1
 62
7
100
AcDbSpline
 70
8
 71
3
 72
8
 73
4
 74
0
 40
0
 40
0
 40
0
 40
0
 40
1
 40
1
 40
1
 40
1
 10
123.616336
 20
199.388366
 30
0.0
 10
121.821410
 20
199.388366
 30
0.0
 10
120.366336
 20
200.843441
 30
0.0
 10
120.366336
 20
202.638366
 30
0.0
  0
SPLINE
  5
25b
100
AcDbEntity
  8
Layer_1
 62
7
100
AcDbSpline
 70
8
 71
3
 72
8
 73
4
 74
0
 40
0
 40
0
 40
0
 40
0
 40
1
 40
1
 40
1
 40
1
 10
120.366336
 20
202.638366
 30
0.0
 10
120.366336
 20
204.433291
 30
0.0
 10
121.821410
 20
205.888366
 30
0.0
 10
123.616336
 20
205.888366
 30
0.0
  0
SPLINE
  5
25c
100
AcDbEntity
  8
Layer_1
 62
7
100
AcDbSpline
 70
8
 71
3
 72
8
 73
4
 74
0
 40
0
 40
0
 40
0
 40
0
 40
1
 40
1
 40
1
 40
1
 10
123.616336
 20
205.888366
 30
0.0
 10
125.411261
 20
205.888366
 30
0.0
 10
126.866336
 20
204.433291
 30
0.0
 10
126.866336
 20
202.638366
 30
0.0
  0
LWPOLYLINE
  5
25d
100
AcDbEntity
  8
Layer_1
 62
7
100
AcDbPolyline
 90
2
 70
0
 10
126.866336
 20
215.338366
 30
0.0
 10
126.866336
 20
215.338366
 30
0.0
  0
SPLINE
  5
25e
100
AcDbEntity
  8
Layer_1
 62
7
100
AcDbSpline
 70
8
 71
3
 72
8
 73
4
 74
0
 40
0
 40
0
 40
0
 40
0
 40
1
 40
1
 40
1
 40
1
 10
126.866336
 20
189.938365
 30
0.0
 10
126.866336
 20
188.143440
 30
0.0
 10
125.411261
 20
186.688365
 30
0.0
 10
123.616336
 20
186.688365
 30
0.0
  0
SPLINE
  5
25f
100
AcDbEntity
  8
Layer_1
 62
7
100
AcDbSpline
 70
8
 71
3
 72
8
 73
4
 74
0
 40
0
 40
0
 40
0
 40
0
 40
1
 40
1
 40
1
 40
1
 10
123.616336
 20
186.688365
 30
0.0
 10
121.821410
 20
186.688365
 30
0.0
 10
120.366336
 20
188.143440
 30
0.0
 10
120.366336
 20
189.938365
 30
0.0
  0
SPLINE
  5
260
100
AcDbEntity
  8
Layer_1
 62
7
100
AcDbSpline
 70
8
 71
3
 72
8
 73
4
 74
0
 40
0
 40
0
 40
0
 40
0
 40
1
 40
1
 40
1
 40
1
 10
120.366336
 20
189.938365
 30
0.0
 10
120.366336
 20
191.733291
 30
0.0
 10
121.821410
 20
193.188365
 30
0.0
 10
123.616336
 20
193.188365
 30
0.0
  0
SPLINE
  5
261
100
AcDbEntity
  8
Layer_1
 62
7
100
AcDbSpline
 70
8
 71
3
 72
8
 73
4
 74
0
 40
0
 40
0
 40
0
 40
0
 40
1
 40
1
 40
1
 40
1
 10
123.616336
 20
193.188365
 30
0.0
 10
125.411261
 20
193.188365
 30
0.0
 10
126.866336
 20
191.733291
 30
0.0
 10
126.866336
 20
189.938365
 30
0.0
  0
LWPOLYLINE
  5
262
100
AcDbEntity
  8
Layer_1
 62
7
100
AcDbPolyline
 90
2
 70
0
 10
126.866336
 20
202.638366
 30
0.0
 10
126.866336
 20
202.638366
 30
0.0
  0
SPLINE
  5
263
100
AcDbEntity
  8
Layer_1
 62
7
100
AcDbSpline
 70
8
 71
3
 72
8
 73
4
 74
0
 40
0
 40
0
 40
0
 40
0
 40
1
 40
1
 40
1
 40
1
 10
126.866336
 20
177.238364
 30
0.0
 10
126.866336
 20
175.443439
 30
0.0
 10
125.411261
 20
173.988364
 30
0.0
 10
123.616336
 20
173.988364
 30
0.0
  0
SPLINE
  5
264
100
AcDbEntity
  8
Layer_1
 62
7
100
AcDbSpline
 70
8
 71
3
 72
8
 73
4
 74
0
 40
0
 40
0
 40
0
 40
0
 40
1
 40
1
 40
1
 40
1
 10
123.616336
 20
173.988364
 30
0.0
 10
121.821410
 20
173.988364
 30
0.0
 10
120.366336
 20
175.443439
 30
0.0
 10
120.366336
 20
177.238364
 30
0.0
  0
SPLINE
  5
265
100
AcDbEntity
  8
Layer_1
 62
7
100
AcDbSpline
 70
8
 71
3
 72
8
 73
4
 74
0
 40
0
 40
0
 40
0
 40
0
 40
1
 40
1
 40
1
 40
1
 10
120.366336
 20
177.238364
 30
0.0
 10
120.366336
 20
179.033290
 30
0.0
 10
121.821410
 20
180.488364
 30
0.0
 10
123.616336
 20
180.488364
 30
0.0
  0
SPLINE
  5
266
100
AcDbEntity
  8
Layer_1
 62
7
100
AcDbSpline
 70
8
 71
3
 72
8
 73
4
 74
0
 40
0
 40
0
 40
0
 40
0
 40
1
 40
1
 40
1
 40
1
 10
123.616336
 20
180.488364
 30
0.0
 10
125.411261
 20
180.488364
 30
0.0
 10
126.866336
 20
179.033290
 30
0.0
 10
126.866336
 20
177.238364
 30
0.0
  0
LWPOLYLINE
  5
267
100
AcDbEntity
  8
Layer_1
 62
7
100
AcDbPolyline
 90
2
 70
0
 10
126.866336
 20
189.938365
 30
0.0
 10
126.866336
 20
189.938365
 30
0.0
  0
SPLINE
  5
268
100
AcDbEntity
  8
Layer_1
 62
7
100
AcDbSpline
 70
8
 71
3
 72
8
 73
4
 74
0
 40
0
 40
0
 40
0
 40
0
 40
1
 40
1
 40
1
 40
1
 10
126.866336
 20
164.538369
 30
0.0
 10
126.866336
 20
162.743443
 30
0.0
 10
125.411261
 20
161.288369
 30
0.0
 10
123.616336
 20
161.288369
 30
0.0
  0
SPLINE
  5
269
100
AcDbEntity
  8
Layer_1
 62
7
100
AcDbSpline
 70
8
 71
3
 72
8
 73
4
 74
0
 40
0
 40
0
 40
0
 40
0
 40
1
 40
1
 40
1
 40
1
 10
123.616336
 20
161.288369
 30
0.0
 10
121.821410
 20
161.288369
 30
0.0
 10
120.366336
 20
162.743443
 30
0.0
 10
120.366336
 20
164.538369
 30
0.0
  0
SPLINE
  5
26a
100
AcDbEntity
  8
Layer_1
 62
7
100
AcDbSpline
 70
8
 71
3
 72
8
 73
4
 74
0
 40
0
 40
0
 40
0
 40
0
 40
1
 40
1
 40
1
 40
1
 10
120.366336
 20
164.538369
 30
0.0
 10
120.366336
 20
166.333294
 30
0.0
 10
121.821410
 20
167.788369
 30
0.0
 10
123.616336
 20
167.788369
 30
0.0
  0
SPLINE
  5
26b
100
AcDbEntity
  8
Layer_1
 62
7
100
AcDbSpline
 70
8
 71
3
 72
8
 73
4
 74
0
 40
0
 40
0
 40
0
 40
0
 40
1
 40
1
 40
1
 40
1
 10
123.616336
 20
167.788369
 30
0.0
 10
125.411261
 20
167.788369
 30
0.0
 10
126.866336
 20
166.333294
 30
0.0
 10
126.866336
 20
164.538369
 30
0.0
  0
LWPOLYLINE
  5
26c
100
AcDbEntity
  8
Layer_1
 62
7
100
AcDbPolyline
 90
2
 70
0
 10
126.866336
 20
177.238364
 30
0.0
 10
126.866336
 20
177.238364
 30
0.0
  0
SPLINE
  5
26d
100
AcDbEntity
  8
Layer_1
 62
7
100
AcDbSpline
 70
8
 71
3
 72
8
 73
4
 74
0
 40
0
 40
0
 40
0
 40
0
 40
1
 40
1
 40
1
 40
1
 10
126.866336
 20
151.838364
 30
0.0
 10
126.866336
 20
150.043439
 30
0.0
 10
125.411261
 20
148.588364
 30
0.0
 10
123.616336
 20
148.588364
 30
0.0
  0
SPLINE
  5
26e
100
AcDbEntity
  8
Layer_1
 62
7
100
AcDbSpline
 70
8
 71
3
 72
8
 73
4
 74
0
 40
0
 40
0
 40
0
 40
0
 40
1
 40
1
 40
1
 40
1
 10
123.616336
 20
148.588364
 30
0.0
 10
121.821410
 20
148.588364
 30
0.0
 10
120.366336
 20
150.043439
 30
0.0
 10
120.366336
 20
151.838364
 30
0.0
  0
SPLINE
  5
26f
100
AcDbEntity
  8
Layer_1
 62
7
100
AcDbSpline
 70
8
 71
3
 72
8
 73
4
 74
0
 40
0
 40
0
 40
0
 40
0
 40
1
 40
1
 40
1
 40
1
 10
120.366336
 20
151.838364
 30
0.0
 10
120.366336
 20
153.633289
 30
0.0
 10
121.821410
 20
155.088364
 30
0.0
 10
123.616336
 20
155.088364
 30
0.0
  0
SPLINE
  5
270
100
AcDbEntity
  8
Layer_1
 62
7
100
AcDbSpline
 70
8
 71
3
 72
8
 73
4
 74
0
 40
0
 40
0
 40
0
 40
0
 40
1
 40
1
 40
1
 40
1
 10
123.616336
 20
155.088364
 30
0.0
 10
125.411261
 20
155.088364
 30
0.0
 10
126.866336
 20
153.633289
 30
0.0
 10
126.866336
 20
151.838364
 30
0.0
  0
LWPOLYLINE
  5
271
100
AcDbEntity
  8
Layer_1
 62
7
100
AcDbPolyline
 90
2
 70
0
 10
126.866336
 20
164.538369
 30
0.0
 10
126.866336
 20
164.538369
 30
0.0
  0
SPLINE
  5
272
100
AcDbEntity
  8
Layer_1
 62
7
100
AcDbSpline
 70
8
 71
3
 72
8
 73
4
 74
0
 40
0
 40
0
 40
0
 40
0
 40
1
 40
1
 40
1
 40
1
 10
126.866336
 20
139.138367
 30
0.0
 10
126.866336
 20
137.343442
 30
0.0
 10
125.411261
 20
135.888367
 30
0.0
 10
123.616336
 20
135.888367
 30
0.0
  0
SPLINE
  5
273
100
AcDbEntity
  8
Layer_1
 62
7
100
AcDbSpline
 70
8
 71
3
 72
8
 73
4
 74
0
 40
0
 40
0
 40
0
 40
0
 40
1
 40
1
 40
1
 40
1
 10
123.616336
 20
135.888367
 30
0.0
 10
121.821410
 20
135.888367
 30
0.0
 10
120.366336
 20
137.343442
 30
0.0
 10
120.366336
 20
139.138367
 30
0.0
  0
SPLINE
  5
274
100
AcDbEntity
  8
Layer_1
 62
7
100
AcDbSpline
 70
8
 71
3
 72
8
 73
4
 74
0
 40
0
 40
0
 40
0
 40
0
 40
1
 40
1
 40
1
 40
1
 10
120.366336
 20
139.138367
 30
0.0
 10
120.366336
 20
140.933292
 30
0.0
 10
121.821410
 20
142.388367
 30
0.0
 10
123.616336
 20
142.388367
 30
0.0
  0
SPLINE
  5
275
100
AcDbEntity
  8
Layer_1
 62
7
100
AcDbSpline
 70
8
 71
3
 72
8
 73
4
 74
0
 40
0
 40
0
 40
0
 40
0
 40
1
 40
1
 40
1
 40
1
 10
123.616336
 20
142.388367
 30
0.0
 10
125.411261
 20
142.388367
 30
0.0
 10
126.866336
 20
140.933292
 30
0.0
 10
126.866336
 20
139.138367
 30
0.0
  0
LWPOLYLINE
  5
276
100
AcDbEntity
  8
Layer_1
 62
7
100
AcDbPolyline
 90
2
 70
0
 10
126.866336
 20
151.838364
 30
0.0
 10
126.866336
 20
151.838364
 30
0.0
  0
SPLINE
  5
277
100
AcDbEntity
  8
Layer_1
 62
7
100
AcDbSpline
 70
8
 71
3
 72
8
 73
4
 74
0
 40
0
 40
0
 40
0
 40
0
 40
1
 40
1
 40
1
 40
1
 10
126.866336
 20
126.438368
 30
0.0
 10
126.866336
 20
124.643448
 30
0.0
 10
125.411261
 20
123.188368
 30
0.0
 10
123.616336
 20
123.188368
 30
0.0
  0
SPLINE
  5
278
100
AcDbEntity
  8
Layer_1
 62
7
100
AcDbSpline
 70
8
 71
3
 72
8
 73
4
 74
0
 40
0
 40
0
 40
0
 40
0
 40
1
 40
1
 40
1
 40
1
 10
123.616336
 20
123.188368
 30
0.0
 10
121.821410
 20
123.188368
 30
0.0
 10
120.366336
 20
124.643448
 30
0.0
 10
120.366336
 20
126.438368
 30
0.0
  0
SPLINE
  5
279
100
AcDbEntity
  8
Layer_1
 62
7
100
AcDbSpline
 70
8
 71
3
 72
8
 73
4
 74
0
 40
0
 40
0
 40
0
 40
0
 40
1
 40
1
 40
1
 40
1
 10
120.366336
 20
126.438368
 30
0.0
 10
120.366336
 20
128.233298
 30
0.0
 10
121.821410
 20
129.688367
 30
0.0
 10
123.616336
 20
129.688367
 30
0.0
  0
SPLINE
  5
27a
100
AcDbEntity
  8
Layer_1
 62
7
100
AcDbSpline
 70
8
 71
3
 72
8
 73
4
 74
0
 40
0
 40
0
 40
0
 40
0
 40
1
 40
1
 40
1
 40
1
 10
123.616336
 20
129.688367
 30
0.0
 10
125.411261
 20
129.688367
 30
0.0
 10
126.866336
 20
128.233298
 30
0.0
 10
126.866336
 20
126.438368
 30
0.0
  0
LWPOLYLINE
  5
27b
100
AcDbEntity
  8
Layer_1
 62
7
100
AcDbPolyline
 90
2
 70
0
 10
126.866336
 20
139.138367
 30
0.0
 10
126.866336
 20
139.138367
 30
0.0
  0
LWPOLYLINE
  5
27c
100
AcDbEntity
  8
Layer_1
 62
7
100
AcDbPolyline
 90
2
 70
0
 10
126.866336
 20
126.438368
 30
0.0
 10
126.866336
 20
126.438368
 30
0.0
  0
ENDSEC
  0
SECTION
  2
OBJECTS
  0
DICTIONARY
  5
C
330
0
100
AcDbDictionary
  3
ACAD_GROUP
350
D
  3
ACAD_MLINESTYLE
350
17
  0
DICTIONARY
  5
D
330
C
100
AcDbDictionary
  0
DICTIONARY
  5
1A
330
C
100
AcDbDictionary
  0
DICTIONARY
  5
17
330
C
100
AcDbDictionary
  3
STANDARD
350
18
  0
DICTIONARY
  5
19
330
C
100
AcDbDictionary
  0
ENDSEC
  0
EOF
