  0
SECTION
  2
HEADER
  9
$ACADVER
  1
AC1014
  9
$HANDSEED
  5
FFFF
  9
$MEASUREMENT
 70
     1
  0
ENDSEC
  0
SECTION
  2
TABLES
  0
TABLE
  2
VPORT
  5
8
330
0
100
AcDbSymbolTable
 70
     4
  0
VPORT
  5
2E
330
8
100
AcDbSymbolTableRecord
100
AcDbViewportTableRecord
  2
*ACTIVE
 70
     0
 10
0.0
 20
0.0
 11
1.0
 21
1.0
 12
210.0
 22
148.5
 13
0.0
 23
0.0
 14
10.0
 24
10.0
 15
10.0
 25
10.0
 16
0.0
 26
0.0
 36
1.0
 17
0.0
 27
0.0
 37
0.0
 40
341.0
 41
1.24
 42
50.0
 43
0.0
 44
0.0
 50
0.0
 51
0.0
 71
     0
 72
   100
 73
     1
 74
     3
 75
     0
 76
     0
 77
     0
 78
     0
  0
ENDTAB
  0
TABLE
  2
LTYPE
  5
5
330
0
100
AcDbSymbolTable
 70
     1
  0
LTYPE
  5
14
330
5
100
AcDbSymbolTableRecord
100
AcDbLinetypeTableRecord
  2
BYBLOCK
 70
     0
  3

 72
    65
 73
     0
 40
0.0
  0
LTYPE
  5
15
330
5
100
AcDbSymbolTableRecord
100
AcDbLinetypeTableRecord
  2
BYLAYER
 70
     0
  3

 72
    65
 73
     0
 40
0.0
  0
LTYPE
  5
16
330
5
100
AcDbSymbolTableRecord
100
AcDbLinetypeTableRecord
  2
CONTINUOUS
 70
     0
  3
Solid line
 72
    65
 73
     0
 40
0.0
  0
ENDTAB
  0
TABLE
  2
LAYER
  5
2
100
AcDbSymbolTable
 70
2
  0
LAYER
  5
50
100
AcDbSymbolTableRecord
100
AcDbLayerTableRecord
  2
0
 70
0
  6
CONTINUOUS
  0
LAYER
  5
51
100
AcDbSymbolTableRecord
100
AcDbLayerTableRecord
  2
Layer_1
 70
0
  6
CONTINUOUS
  0
ENDTAB
  0
TABLE
  2
STYLE
  5
3
330
0
100
AcDbSymbolTable
 70
     1
  0
STYLE
  5
11
330
3
100
AcDbSymbolTableRecord
100
AcDbTextStyleTableRecord
  2
STANDARD
 70
     0
 40
0.0
 41
1.0
 50
0.0
 71
     0
 42
2.5
  3
txt
  4

  0
ENDTAB
  0
TABLE
  2
VIEW
  5
6
330
0
100
AcDbSymbolTable
 70
     0
  0
ENDTAB
  0
TABLE
  2
UCS
  5
7
330
0
100
AcDbSymbolTable
 70
     0
  0
ENDTAB
  0
TABLE
  2
APPID
  5
9
330
0
100
AcDbSymbolTable
 70
     2
  0
APPID
  5
12
330
9
100
AcDbSymbolTableRecord
100
AcDbRegAppTableRecord
  2
ACAD
 70
     0
  0
ENDTAB
  0
TABLE
  2
DIMSTYLE
  5
A
330
0
100
AcDbSymbolTable
 70
     1
  0
DIMSTYLE
105
27
330
A
100
AcDbSymbolTableRecord
100
AcDbDimStyleTableRecord
  2
ISO-25
 70
     0
  3

  4

  5

  6

  7

 40
1.0
 41
2.5
 42
0.625
 43
3.75
 44
1.25
 45
0.0
 46
0.0
 47
0.0
 48
0.0
140
2.5
141
2.5
142
0.0
143
0.03937007874016
144
1.0
145
0.0
146
1.0
147
0.625
 71
     0
 72
     0
 73
     0
 74
     0
 75
     0
 76
     0
 77
     1
 78
     8
170
     0
171
     3
172
     1
173
     0
174
     0
175
     0
176
     0
177
     0
178
     0
270
     2
271
     2
272
     2
273
     2
274
     3
340
11
275
     0
280
     0
281
     0
282
     0
283
     0
284
     8
285
     0
286
     0
287
     3
288
     0
  0
ENDTAB
  0
TABLE
  2
BLOCK_RECORD
  5
1
330
0
100
AcDbSymbolTable
 70
     1
  0
BLOCK_RECORD
  5
1F
330
1
100
AcDbSymbolTableRecord
100
AcDbBlockTableRecord
  2
*MODEL_SPACE
  0
BLOCK_RECORD
  5
1B
330
1
100
AcDbSymbolTableRecord
100
AcDbBlockTableRecord
  2
*PAPER_SPACE
  0
ENDTAB
  0
ENDSEC
  0
SECTION
  2
BLOCKS
  0
BLOCK
  5
20
330
1F
100
AcDbEntity
  8
0
100
AcDbBlockBegin
  2
*MODEL_SPACE
 70
     0
 10
0.0
 20
0.0
 30
0.0
  3
*MODEL_SPACE
  1

  0
ENDBLK
  5
21
330
1F
100
AcDbEntity
  8
0
100
AcDbBlockEnd
  0
BLOCK
  5
1C
330
1B
100
AcDbEntity
 67
     1
  8
0
100
AcDbBlockBegin
  2
*PAPER_SPACE
  1

  0
ENDBLK
  5
1D
330
1B
100
AcDbEntity
 67
     1
  8
0
100
AcDbBlockEnd
  0
ENDSEC
  0
SECTION
  2
ENTITIES
  0
SPLINE
  5
100
100
AcDbEntity
  8
Layer_1
 62
7
100
AcDbSpline
 70
8
 71
3
 72
8
 73
4
 74
0
 40
0
 40
0
 40
0
 40
0
 40
1
 40
1
 40
1
 40
1
 10
72.477778
 20
208.005560
 30
0.0
 10
72.477778
 20
207.121904
 30
0.0
 10
71.761433
 20
206.405560
 30
0.0
 10
70.877778
 20
206.405560
 30
0.0
  0
SPLINE
  5
101
100
AcDbEntity
  8
Layer_1
 62
7
100
AcDbSpline
 70
8
 71
3
 72
8
 73
4
 74
0
 40
0
 40
0
 40
0
 40
0
 40
1
 40
1
 40
1
 40
1
 10
70.877778
 20
206.405560
 30
0.0
 10
69.994122
 20
206.405560
 30
0.0
 10
69.277778
 20
207.121904
 30
0.0
 10
69.277778
 20
208.005560
 30
0.0
  0
SPLINE
  5
102
100
AcDbEntity
  8
Layer_1
 62
7
100
AcDbSpline
 70
8
 71
3
 72
8
 73
4
 74
0
 40
0
 40
0
 40
0
 40
0
 40
1
 40
1
 40
1
 40
1
 10
69.277778
 20
208.005560
 30
0.0
 10
69.277778
 20
208.889215
 30
0.0
 10
69.994122
 20
209.605560
 30
0.0
 10
70.877778
 20
209.605560
 30
0.0
  0
SPLINE
  5
103
100
AcDbEntity
  8
Layer_1
 62
7
100
AcDbSpline
 70
8
 71
3
 72
8
 73
4
 74
0
 40
0
 40
0
 40
0
 40
0
 40
1
 40
1
 40
1
 40
1
 10
70.877778
 20
209.605560
 30
0.0
 10
71.761433
 20
209.605560
 30
0.0
 10
72.477778
 20
208.889215
 30
0.0
 10
72.477778
 20
208.005560
 30
0.0
  0
LWPOLYLINE
  5
104
100
AcDbEntity
  8
Layer_1
 62
7
100
AcDbPolyline
 90
5
 70
0
 10
63.377778
 20
211.005560
 30
0.0
 10
134.177779
 20
211.005560
 30
0.0
 10
134.177779
 20
82.505563
 30
0.0
 10
63.377778
 20
82.505563
 30
0.0
 10
63.377778
 20
211.005560
 30
0.0
  0
SPLINE
  5
105
100
AcDbEntity
  8
Layer_1
 62
7
100
AcDbSpline
 70
8
 71
3
 72
8
 73
4
 74
0
 40
0
 40
0
 40
0
 40
0
 40
1
 40
1
 40
1
 40
1
 10
72.477778
 20
85.505563
 30
0.0
 10
72.477778
 20
84.621903
 30
0.0
 10
71.761433
 20
83.905563
 30
0.0
 10
70.877778
 20
83.905563
 30
0.0
  0
SPLINE
  5
106
100
AcDbEntity
  8
Layer_1
 62
7
100
AcDbSpline
 70
8
 71
3
 72
8
 73
4
 74
0
 40
0
 40
0
 40
0
 40
0
 40
1
 40
1
 40
1
 40
1
 10
70.877778
 20
83.905563
 30
0.0
 10
69.994122
 20
83.905563
 30
0.0
 10
69.277778
 20
84.621903
 30
0.0
 10
69.277778
 20
85.505563
 30
0.0
  0
SPLINE
  5
107
100
AcDbEntity
  8
Layer_1
 62
7
100
AcDbSpline
 70
8
 71
3
 72
8
 73
4
 74
0
 40
0
 40
0
 40
0
 40
0
 40
1
 40
1
 40
1
 40
1
 10
69.277778
 20
85.505563
 30
0.0
 10
69.277778
 20
86.389223
 30
0.0
 10
69.994122
 20
87.105563
 30
0.0
 10
70.877778
 20
87.105563
 30
0.0
  0
SPLINE
  5
108
100
AcDbEntity
  8
Layer_1
 62
7
100
AcDbSpline
 70
8
 71
3
 72
8
 73
4
 74
0
 40
0
 40
0
 40
0
 40
0
 40
1
 40
1
 40
1
 40
1
 10
70.877778
 20
87.105563
 30
0.0
 10
71.761433
 20
87.105563
 30
0.0
 10
72.477778
 20
86.389223
 30
0.0
 10
72.477778
 20
85.505563
 30
0.0
  0
LWPOLYLINE
  5
109
100
AcDbEntity
  8
Layer_1
 62
7
100
AcDbPolyline
 90
2
 70
0
 10
72.477778
 20
208.005560
 30
0.0
 10
72.477778
 20
208.005560
 30
0.0
  0
SPLINE
  5
10a
100
AcDbEntity
  8
Layer_1
 62
7
100
AcDbSpline
 70
8
 71
3
 72
8
 73
4
 74
0
 40
0
 40
0
 40
0
 40
0
 40
1
 40
1
 40
1
 40
1
 10
128.357777
 20
208.005560
 30
0.0
 10
128.357777
 20
207.121904
 30
0.0
 10
127.641433
 20
206.405560
 30
0.0
 10
126.757777
 20
206.405560
 30
0.0
  0
SPLINE
  5
10b
100
AcDbEntity
  8
Layer_1
 62
7
100
AcDbSpline
 70
8
 71
3
 72
8
 73
4
 74
0
 40
0
 40
0
 40
0
 40
0
 40
1
 40
1
 40
1
 40
1
 10
126.757777
 20
206.405560
 30
0.0
 10
125.874121
 20
206.405560
 30
0.0
 10
125.157778
 20
207.121904
 30
0.0
 10
125.157778
 20
208.005560
 30
0.0
  0
SPLINE
  5
10c
100
AcDbEntity
  8
Layer_1
 62
7
100
AcDbSpline
 70
8
 71
3
 72
8
 73
4
 74
0
 40
0
 40
0
 40
0
 40
0
 40
1
 40
1
 40
1
 40
1
 10
125.157778
 20
208.005560
 30
0.0
 10
125.157778
 20
208.889215
 30
0.0
 10
125.874121
 20
209.605560
 30
0.0
 10
126.757777
 20
209.605560
 30
0.0
  0
SPLINE
  5
10d
100
AcDbEntity
  8
Layer_1
 62
7
100
AcDbSpline
 70
8
 71
3
 72
8
 73
4
 74
0
 40
0
 40
0
 40
0
 40
0
 40
1
 40
1
 40
1
 40
1
 10
126.757777
 20
209.605560
 30
0.0
 10
127.641433
 20
209.605560
 30
0.0
 10
128.357777
 20
208.889215
 30
0.0
 10
128.357777
 20
208.005560
 30
0.0
  0
LWPOLYLINE
  5
10e
100
AcDbEntity
  8
Layer_1
 62
7
100
AcDbPolyline
 90
2
 70
0
 10
72.477778
 20
85.505563
 30
0.0
 10
72.477778
 20
85.505563
 30
0.0
  0
SPLINE
  5
10f
100
AcDbEntity
  8
Layer_1
 62
7
100
AcDbSpline
 70
8
 71
3
 72
8
 73
4
 74
0
 40
0
 40
0
 40
0
 40
0
 40
1
 40
1
 40
1
 40
1
 10
128.357777
 20
85.505563
 30
0.0
 10
128.357777
 20
84.621903
 30
0.0
 10
127.641433
 20
83.905563
 30
0.0
 10
126.757777
 20
83.905563
 30
0.0
  0
SPLINE
  5
110
100
AcDbEntity
  8
Layer_1
 62
7
100
AcDbSpline
 70
8
 71
3
 72
8
 73
4
 74
0
 40
0
 40
0
 40
0
 40
0
 40
1
 40
1
 40
1
 40
1
 10
126.757777
 20
83.905563
 30
0.0
 10
125.874121
 20
83.905563
 30
0.0
 10
125.157778
 20
84.621903
 30
0.0
 10
125.157778
 20
85.505563
 30
0.0
  0
SPLINE
  5
111
100
AcDbEntity
  8
Layer_1
 62
7
100
AcDbSpline
 70
8
 71
3
 72
8
 73
4
 74
0
 40
0
 40
0
 40
0
 40
0
 40
1
 40
1
 40
1
 40
1
 10
125.157778
 20
85.505563
 30
0.0
 10
125.157778
 20
86.389223
 30
0.0
 10
125.874121
 20
87.105563
 30
0.0
 10
126.757777
 20
87.105563
 30
0.0
  0
SPLINE
  5
112
100
AcDbEntity
  8
Layer_1
 62
7
100
AcDbSpline
 70
8
 71
3
 72
8
 73
4
 74
0
 40
0
 40
0
 40
0
 40
0
 40
1
 40
1
 40
1
 40
1
 10
126.757777
 20
87.105563
 30
0.0
 10
127.641433
 20
87.105563
 30
0.0
 10
128.357777
 20
86.389223
 30
0.0
 10
128.357777
 20
85.505563
 30
0.0
  0
LWPOLYLINE
  5
113
100
AcDbEntity
  8
Layer_1
 62
7
100
AcDbPolyline
 90
2
 70
0
 10
128.357777
 20
208.005560
 30
0.0
 10
128.357777
 20
208.005560
 30
0.0
  0
SPLINE
  5
114
100
AcDbEntity
  8
Layer_1
 62
7
100
AcDbSpline
 70
8
 71
3
 72
8
 73
4
 74
0
 40
0
 40
0
 40
0
 40
0
 40
1
 40
1
 40
1
 40
1
 10
92.427777
 20
189.605560
 30
0.0
 10
89.805758
 20
189.605560
 30
0.0
 10
87.673080
 20
187.482196
 30
0.0
 10
87.673080
 20
184.860192
 30
0.0
  0
SPLINE
  5
115
100
AcDbEntity
  8
Layer_1
 62
7
100
AcDbSpline
 70
8
 71
3
 72
8
 73
4
 74
0
 40
0
 40
0
 40
0
 40
0
 40
1
 40
1
 40
1
 40
1
 10
87.673080
 20
184.860192
 30
0.0
 10
87.673080
 20
182.716396
 30
0.0
 10
89.099275
 20
180.899841
 30
0.0
 10
91.050681
 20
180.310212
 30
0.0
  0
LWPOLYLINE
  5
116
100
AcDbEntity
  8
Layer_1
 62
7
100
AcDbPolyline
 90
2
 70
0
 10
128.357777
 20
85.505563
 30
0.0
 10
128.357777
 20
85.505563
 30
0.0
  0
SPLINE
  5
117
100
AcDbEntity
  8
Layer_1
 62
7
100
AcDbSpline
 70
8
 71
3
 72
8
 73
4
 74
0
 40
0
 40
0
 40
0
 40
0
 40
1
 40
1
 40
1
 40
1
 10
93.693217
 20
180.282300
 30
0.0
 10
95.696701
 20
180.838880
 30
0.0
 10
97.173173
 20
182.679367
 30
0.0
 10
97.173173
 20
184.860192
 30
0.0
  0
SPLINE
  5
118
100
AcDbEntity
  8
Layer_1
 62
7
100
AcDbSpline
 70
8
 71
3
 72
8
 73
4
 74
0
 40
0
 40
0
 40
0
 40
0
 40
1
 40
1
 40
1
 40
1
 10
97.173173
 20
184.860192
 30
0.0
 10
97.173173
 20
187.482196
 30
0.0
 10
95.049804
 20
189.605560
 30
0.0
 10
92.427777
 20
189.605560
 30
0.0
  0
LWPOLYLINE
  5
119
100
AcDbEntity
  8
Layer_1
 62
7
100
AcDbPolyline
 90
4
 70
0
 10
91.050681
 20
180.310212
 30
0.0
 10
91.050681
 20
177.630466
 30
0.0
 10
93.693217
 20
177.630466
 30
0.0
 10
93.693217
 20
180.282300
 30
0.0
  0
SPLINE
  5
11a
100
AcDbEntity
  8
Layer_1
 62
1
100
AcDbSpline
 70
8
 71
3
 72
8
 73
4
 74
0
 40
0
 40
0
 40
0
 40
0
 40
1
 40
1
 40
1
 40
1
 10
88.224003
 20
177.274068
 30
0.0
 10
85.593146
 20
178.744068
 30
0.0
 10
83.815765
 20
181.554068
 30
0.0
 10
83.815765
 20
184.784071
 30
0.0
  0
SPLINE
  5
11b
100
AcDbEntity
  8
Layer_1
 62
1
100
AcDbSpline
 70
8
 71
3
 72
8
 73
4
 74
0
 40
0
 40
0
 40
0
 40
0
 40
1
 40
1
 40
1
 40
1
 10
83.815765
 20
184.784071
 30
0.0
 10
83.815765
 20
189.534075
 30
0.0
 10
87.678606
 20
193.394076
 30
0.0
 10
92.443988
 20
193.394076
 30
0.0
  0
SPLINE
  5
11c
100
AcDbEntity
  8
Layer_1
 62
1
100
AcDbSpline
 70
8
 71
3
 72
8
 73
4
 74
0
 40
0
 40
0
 40
0
 40
0
 40
1
 40
1
 40
1
 40
1
 10
92.443988
 20
193.394076
 30
0.0
 10
97.208035
 20
193.394076
 30
0.0
 10
101.071543
 20
189.534075
 30
0.0
 10
101.071543
 20
184.784071
 30
0.0
  0
SPLINE
  5
11d
100
AcDbEntity
  8
Layer_1
 62
1
100
AcDbSpline
 70
8
 71
3
 72
8
 73
4
 74
0
 40
0
 40
0
 40
0
 40
0
 40
1
 40
1
 40
1
 40
1
 10
101.071543
 20
184.784071
 30
0.0
 10
101.071543
 20
181.554068
 30
0.0
 10
99.291492
 20
178.744068
 30
0.0
 10
96.656964
 20
177.264068
 30
0.0
  0
LWPOLYLINE
  5
11e
100
AcDbEntity
  8
Layer_1
 62
7
100
AcDbPolyline
 90
2
 70
0
 10
92.427777
 20
189.605560
 30
0.0
 10
92.427777
 20
189.605560
 30
0.0
  0
LWPOLYLINE
  5
11f
100
AcDbEntity
  8
Layer_1
 62
1
100
AcDbPolyline
 90
2
 70
0
 10
89.987364
 20
193.904077
 30
0.0
 10
90.203687
 20
193.094076
 30
0.0
  0
LWPOLYLINE
  5
120
100
AcDbEntity
  8
Layer_1
 62
1
100
AcDbPolyline
 90
2
 70
0
 10
87.314785
 20
193.634076
 30
0.0
 10
88.122867
 20
192.234075
 30
0.0
  0
LWPOLYLINE
  5
121
100
AcDbEntity
  8
Layer_1
 62
1
100
AcDbPolyline
 90
2
 70
0
 10
85.747686
 20
191.454076
 30
0.0
 10
86.336809
 20
190.864076
 30
0.0
  0
LWPOLYLINE
  5
122
100
AcDbEntity
  8
Layer_1
 62
1
100
AcDbPolyline
 90
2
 70
0
 10
83.581117
 20
189.884076
 30
0.0
 10
84.965973
 20
189.084074
 30
0.0
  0
LWPOLYLINE
  5
123
100
AcDbEntity
  8
Layer_1
 62
1
100
AcDbPolyline
 90
2
 70
0
 10
83.301076
 20
187.224073
 30
0.0
 10
84.105486
 20
187.004072
 30
0.0
  0
LWPOLYLINE
  5
124
100
AcDbEntity
  8
Layer_1
 62
1
100
AcDbPolyline
 90
2
 70
0
 10
82.206277
 20
184.774071
 30
0.0
 10
83.812427
 20
184.774071
 30
0.0
  0
LWPOLYLINE
  5
125
100
AcDbEntity
  8
Layer_1
 62
1
100
AcDbPolyline
 90
2
 70
0
 10
83.303412
 20
182.334069
 30
0.0
 10
84.107823
 20
182.554069
 30
0.0
  0
LWPOLYLINE
  5
126
100
AcDbEntity
  8
Layer_1
 62
1
100
AcDbPolyline
 90
2
 70
0
 10
83.578781
 20
179.674068
 30
0.0
 10
84.970312
 20
180.474068
 30
0.0
  0
LWPOLYLINE
  5
127
100
AcDbEntity
  8
Layer_1
 62
1
100
AcDbPolyline
 90
2
 70
0
 10
85.754028
 20
178.104068
 30
0.0
 10
86.341815
 20
178.694068
 30
0.0
  0
LWPOLYLINE
  5
128
100
AcDbEntity
  8
Layer_1
 62
1
100
AcDbPolyline
 90
2
 70
0
 10
87.353504
 20
175.984066
 30
0.0
 10
88.129877
 20
177.324068
 30
0.0
  0
LWPOLYLINE
  5
129
100
AcDbEntity
  8
Layer_1
 62
1
100
AcDbPolyline
 90
2
 70
0
 10
97.541448
 20
175.974067
 30
0.0
 10
96.757765
 20
177.334068
 30
0.0
  0
LWPOLYLINE
  5
12a
100
AcDbEntity
  8
Layer_1
 62
1
100
AcDbPolyline
 90
2
 70
0
 10
99.132613
 20
178.114068
 30
0.0
 10
98.543824
 20
178.694068
 30
0.0
  0
LWPOLYLINE
  5
12b
100
AcDbEntity
  8
Layer_1
 62
1
100
AcDbPolyline
 90
2
 70
0
 10
101.274148
 20
179.694068
 30
0.0
 10
99.913993
 20
180.484068
 30
0.0
  0
LWPOLYLINE
  5
12c
100
AcDbEntity
  8
Layer_1
 62
1
100
AcDbPolyline
 90
2
 70
0
 10
101.578889
 20
182.344069
 30
0.0
 10
100.775179
 20
182.564069
 30
0.0
  0
LWPOLYLINE
  5
12d
100
AcDbEntity
  8
Layer_1
 62
1
100
AcDbPolyline
 90
2
 70
0
 10
102.623288
 20
184.784071
 30
0.0
 10
101.067871
 20
184.784071
 30
0.0
  0
LWPOLYLINE
  5
12e
100
AcDbEntity
  8
Layer_1
 62
1
100
AcDbPolyline
 90
2
 70
0
 10
101.576586
 20
187.234073
 30
0.0
 10
100.772475
 20
187.014072
 30
0.0
  0
LWPOLYLINE
  5
12f
100
AcDbEntity
  8
Layer_1
 62
1
100
AcDbPolyline
 90
2
 70
0
 10
101.264468
 20
189.874076
 30
0.0
 10
99.910321
 20
189.094074
 30
0.0
  0
LWPOLYLINE
  5
130
100
AcDbEntity
  8
Layer_1
 62
1
100
AcDbPolyline
 90
2
 70
0
 10
99.126905
 20
191.464076
 30
0.0
 10
98.538484
 20
190.874076
 30
0.0
  0
LWPOLYLINE
  5
131
100
AcDbEntity
  8
Layer_1
 62
1
100
AcDbPolyline
 90
2
 70
0
 10
97.559506
 20
193.634076
 30
0.0
 10
96.750756
 20
192.244076
 30
0.0
  0
LWPOLYLINE
  5
132
100
AcDbEntity
  8
Layer_1
 62
1
100
AcDbPolyline
 90
2
 70
0
 10
94.884590
 20
193.904077
 30
0.0
 10
94.669302
 20
193.104076
 30
0.0
  0
SPLINE
  5
133
100
AcDbEntity
  8
Layer_1
 62
7
100
AcDbSpline
 70
8
 71
3
 72
8
 73
4
 74
0
 40
0
 40
0
 40
0
 40
0
 40
1
 40
1
 40
1
 40
1
 10
117.827777
 20
189.605560
 30
0.0
 10
115.205758
 20
189.605560
 30
0.0
 10
113.073080
 20
187.482196
 30
0.0
 10
113.073080
 20
184.860192
 30
0.0
  0
SPLINE
  5
134
100
AcDbEntity
  8
Layer_1
 62
7
100
AcDbSpline
 70
8
 71
3
 72
8
 73
4
 74
0
 40
0
 40
0
 40
0
 40
0
 40
1
 40
1
 40
1
 40
1
 10
113.073080
 20
184.860192
 30
0.0
 10
113.073080
 20
182.716396
 30
0.0
 10
114.499275
 20
180.899841
 30
0.0
 10
116.450681
 20
180.310212
 30
0.0
  0
LWPOLYLINE
  5
135
100
AcDbEntity
  8
Layer_1
 62
1
100
AcDbPolyline
 90
2
 70
0
 10
92.435610
 20
194.984077
 30
0.0
 10
92.435610
 20
193.394076
 30
0.0
  0
SPLINE
  5
136
100
AcDbEntity
  8
Layer_1
 62
7
100
AcDbSpline
 70
8
 71
3
 72
8
 73
4
 74
0
 40
0
 40
0
 40
0
 40
0
 40
1
 40
1
 40
1
 40
1
 10
119.093217
 20
180.282300
 30
0.0
 10
121.096701
 20
180.838880
 30
0.0
 10
122.573173
 20
182.679367
 30
0.0
 10
122.573173
 20
184.860192
 30
0.0
  0
SPLINE
  5
137
100
AcDbEntity
  8
Layer_1
 62
7
100
AcDbSpline
 70
8
 71
3
 72
8
 73
4
 74
0
 40
0
 40
0
 40
0
 40
0
 40
1
 40
1
 40
1
 40
1
 10
122.573173
 20
184.860192
 30
0.0
 10
122.573173
 20
187.482196
 30
0.0
 10
120.449804
 20
189.605560
 30
0.0
 10
117.827777
 20
189.605560
 30
0.0
  0
LWPOLYLINE
  5
138
100
AcDbEntity
  8
Layer_1
 62
7
100
AcDbPolyline
 90
4
 70
0
 10
116.450681
 20
180.310212
 30
0.0
 10
116.450681
 20
177.630466
 30
0.0
 10
119.093217
 20
177.630466
 30
0.0
 10
119.093217
 20
180.282300
 30
0.0
  0
SPLINE
  5
139
100
AcDbEntity
  8
Layer_1
 62
1
100
AcDbSpline
 70
8
 71
3
 72
8
 73
4
 74
0
 40
0
 40
0
 40
0
 40
0
 40
1
 40
1
 40
1
 40
1
 10
113.624002
 20
177.274068
 30
0.0
 10
110.993145
 20
178.744068
 30
0.0
 10
109.215765
 20
181.554068
 30
0.0
 10
109.215765
 20
184.784071
 30
0.0
  0
SPLINE
  5
13a
100
AcDbEntity
  8
Layer_1
 62
1
100
AcDbSpline
 70
8
 71
3
 72
8
 73
4
 74
0
 40
0
 40
0
 40
0
 40
0
 40
1
 40
1
 40
1
 40
1
 10
109.215765
 20
184.784071
 30
0.0
 10
109.215765
 20
189.534075
 30
0.0
 10
113.078605
 20
193.394076
 30
0.0
 10
117.843988
 20
193.394076
 30
0.0
  0
SPLINE
  5
13b
100
AcDbEntity
  8
Layer_1
 62
1
100
AcDbSpline
 70
8
 71
3
 72
8
 73
4
 74
0
 40
0
 40
0
 40
0
 40
0
 40
1
 40
1
 40
1
 40
1
 10
117.843988
 20
193.394076
 30
0.0
 10
122.608035
 20
193.394076
 30
0.0
 10
126.471542
 20
189.534075
 30
0.0
 10
126.471542
 20
184.784071
 30
0.0
  0
SPLINE
  5
13c
100
AcDbEntity
  8
Layer_1
 62
1
100
AcDbSpline
 70
8
 71
3
 72
8
 73
4
 74
0
 40
0
 40
0
 40
0
 40
0
 40
1
 40
1
 40
1
 40
1
 10
126.471542
 20
184.784071
 30
0.0
 10
126.471542
 20
181.554068
 30
0.0
 10
124.691492
 20
178.744068
 30
0.0
 10
122.056964
 20
177.264068
 30
0.0
  0
LWPOLYLINE
  5
13d
100
AcDbEntity
  8
Layer_1
 62
7
100
AcDbPolyline
 90
2
 70
0
 10
117.827777
 20
189.605560
 30
0.0
 10
117.827777
 20
189.605560
 30
0.0
  0
LWPOLYLINE
  5
13e
100
AcDbEntity
  8
Layer_1
 62
1
100
AcDbPolyline
 90
2
 70
0
 10
115.387364
 20
193.904077
 30
0.0
 10
115.603687
 20
193.094076
 30
0.0
  0
LWPOLYLINE
  5
13f
100
AcDbEntity
  8
Layer_1
 62
1
100
AcDbPolyline
 90
2
 70
0
 10
112.714784
 20
193.634076
 30
0.0
 10
113.522866
 20
192.234075
 30
0.0
  0
LWPOLYLINE
  5
140
100
AcDbEntity
  8
Layer_1
 62
1
100
AcDbPolyline
 90
2
 70
0
 10
111.147685
 20
191.454076
 30
0.0
 10
111.736808
 20
190.864076
 30
0.0
  0
LWPOLYLINE
  5
141
100
AcDbEntity
  8
Layer_1
 62
1
100
AcDbPolyline
 90
2
 70
0
 10
108.981117
 20
189.884076
 30
0.0
 10
110.365972
 20
189.084074
 30
0.0
  0
LWPOLYLINE
  5
142
100
AcDbEntity
  8
Layer_1
 62
1
100
AcDbPolyline
 90
2
 70
0
 10
108.701075
 20
187.224073
 30
0.0
 10
109.505486
 20
187.004072
 30
0.0
  0
LWPOLYLINE
  5
143
100
AcDbEntity
  8
Layer_1
 62
1
100
AcDbPolyline
 90
2
 70
0
 10
107.606276
 20
184.774071
 30
0.0
 10
109.212427
 20
184.774071
 30
0.0
  0
LWPOLYLINE
  5
144
100
AcDbEntity
  8
Layer_1
 62
1
100
AcDbPolyline
 90
2
 70
0
 10
108.703412
 20
182.334069
 30
0.0
 10
109.507822
 20
182.554069
 30
0.0
  0
LWPOLYLINE
  5
145
100
AcDbEntity
  8
Layer_1
 62
1
100
AcDbPolyline
 90
2
 70
0
 10
108.978781
 20
179.674068
 30
0.0
 10
110.370311
 20
180.474068
 30
0.0
  0
LWPOLYLINE
  5
146
100
AcDbEntity
  8
Layer_1
 62
1
100
AcDbPolyline
 90
2
 70
0
 10
111.154027
 20
178.104068
 30
0.0
 10
111.741815
 20
178.694068
 30
0.0
  0
LWPOLYLINE
  5
147
100
AcDbEntity
  8
Layer_1
 62
1
100
AcDbPolyline
 90
2
 70
0
 10
112.753503
 20
175.984066
 30
0.0
 10
113.529876
 20
177.324068
 30
0.0
  0
LWPOLYLINE
  5
148
100
AcDbEntity
  8
Layer_1
 62
1
100
AcDbPolyline
 90
2
 70
0
 10
122.941448
 20
175.974067
 30
0.0
 10
122.157765
 20
177.334068
 30
0.0
  0
LWPOLYLINE
  5
149
100
AcDbEntity
  8
Layer_1
 62
1
100
AcDbPolyline
 90
2
 70
0
 10
124.532613
 20
178.114068
 30
0.0
 10
123.943824
 20
178.694068
 30
0.0
  0
LWPOLYLINE
  5
14a
100
AcDbEntity
  8
Layer_1
 62
1
100
AcDbPolyline
 90
2
 70
0
 10
126.674147
 20
179.694068
 30
0.0
 10
125.313993
 20
180.484068
 30
0.0
  0
LWPOLYLINE
  5
14b
100
AcDbEntity
  8
Layer_1
 62
1
100
AcDbPolyline
 90
2
 70
0
 10
126.978888
 20
182.344069
 30
0.0
 10
126.175178
 20
182.564069
 30
0.0
  0
LWPOLYLINE
  5
14c
100
AcDbEntity
  8
Layer_1
 62
1
100
AcDbPolyline
 90
2
 70
0
 10
128.023287
 20
184.784071
 30
0.0
 10
126.467870
 20
184.784071
 30
0.0
  0
LWPOLYLINE
  5
14d
100
AcDbEntity
  8
Layer_1
 62
1
100
AcDbPolyline
 90
2
 70
0
 10
126.976585
 20
187.234073
 30
0.0
 10
126.172474
 20
187.014072
 30
0.0
  0
LWPOLYLINE
  5
14e
100
AcDbEntity
  8
Layer_1
 62
1
100
AcDbPolyline
 90
2
 70
0
 10
126.664467
 20
189.874076
 30
0.0
 10
125.310321
 20
189.094074
 30
0.0
  0
LWPOLYLINE
  5
14f
100
AcDbEntity
  8
Layer_1
 62
1
100
AcDbPolyline
 90
2
 70
0
 10
124.526905
 20
191.464076
 30
0.0
 10
123.938484
 20
190.874076
 30
0.0
  0
LWPOLYLINE
  5
150
100
AcDbEntity
  8
Layer_1
 62
1
100
AcDbPolyline
 90
2
 70
0
 10
122.959506
 20
193.634076
 30
0.0
 10
122.150756
 20
192.244076
 30
0.0
  0
LWPOLYLINE
  5
151
100
AcDbEntity
  8
Layer_1
 62
1
100
AcDbPolyline
 90
2
 70
0
 10
120.284590
 20
193.904077
 30
0.0
 10
120.069302
 20
193.104076
 30
0.0
  0
SPLINE
  5
152
100
AcDbEntity
  8
Layer_1
 62
7
100
AcDbSpline
 70
8
 71
3
 72
8
 73
4
 74
0
 40
0
 40
0
 40
0
 40
0
 40
1
 40
1
 40
1
 40
1
 10
92.427777
 20
170.555561
 30
0.0
 10
89.805758
 20
170.555561
 30
0.0
 10
87.673080
 20
168.432197
 30
0.0
 10
87.673080
 20
165.810193
 30
0.0
  0
SPLINE
  5
153
100
AcDbEntity
  8
Layer_1
 62
7
100
AcDbSpline
 70
8
 71
3
 72
8
 73
4
 74
0
 40
0
 40
0
 40
0
 40
0
 40
1
 40
1
 40
1
 40
1
 10
87.673080
 20
165.810193
 30
0.0
 10
87.673080
 20
163.666397
 30
0.0
 10
89.099275
 20
161.849842
 30
0.0
 10
91.050681
 20
161.260213
 30
0.0
  0
LWPOLYLINE
  5
154
100
AcDbEntity
  8
Layer_1
 62
1
100
AcDbPolyline
 90
2
 70
0
 10
117.835610
 20
194.984077
 30
0.0
 10
117.835610
 20
193.394076
 30
0.0
  0
SPLINE
  5
155
100
AcDbEntity
  8
Layer_1
 62
7
100
AcDbSpline
 70
8
 71
3
 72
8
 73
4
 74
0
 40
0
 40
0
 40
0
 40
0
 40
1
 40
1
 40
1
 40
1
 10
93.693217
 20
161.232301
 30
0.0
 10
95.696701
 20
161.788881
 30
0.0
 10
97.173173
 20
163.629368
 30
0.0
 10
97.173173
 20
165.810193
 30
0.0
  0
SPLINE
  5
156
100
AcDbEntity
  8
Layer_1
 62
7
100
AcDbSpline
 70
8
 71
3
 72
8
 73
4
 74
0
 40
0
 40
0
 40
0
 40
0
 40
1
 40
1
 40
1
 40
1
 10
97.173173
 20
165.810193
 30
0.0
 10
97.173173
 20
168.432197
 30
0.0
 10
95.049804
 20
170.555561
 30
0.0
 10
92.427777
 20
170.555561
 30
0.0
  0
LWPOLYLINE
  5
157
100
AcDbEntity
  8
Layer_1
 62
7
100
AcDbPolyline
 90
4
 70
0
 10
91.050681
 20
161.260213
 30
0.0
 10
91.050681
 20
158.580467
 30
0.0
 10
93.693217
 20
158.580467
 30
0.0
 10
93.693217
 20
161.232301
 30
0.0
  0
SPLINE
  5
158
100
AcDbEntity
  8
Layer_1
 62
1
100
AcDbSpline
 70
8
 71
3
 72
8
 73
4
 74
0
 40
0
 40
0
 40
0
 40
0
 40
1
 40
1
 40
1
 40
1
 10
88.224003
 20
158.224068
 30
0.0
 10
85.593146
 20
159.694068
 30
0.0
 10
83.815765
 20
162.504069
 30
0.0
 10
83.815765
 20
165.734071
 30
0.0
  0
SPLINE
  5
159
100
AcDbEntity
  8
Layer_1
 62
1
100
AcDbSpline
 70
8
 71
3
 72
8
 73
4
 74
0
 40
0
 40
0
 40
0
 40
0
 40
1
 40
1
 40
1
 40
1
 10
83.815765
 20
165.734071
 30
0.0
 10
83.815765
 20
170.484075
 30
0.0
 10
87.678606
 20
174.344076
 30
0.0
 10
92.443988
 20
174.344076
 30
0.0
  0
SPLINE
  5
15a
100
AcDbEntity
  8
Layer_1
 62
1
100
AcDbSpline
 70
8
 71
3
 72
8
 73
4
 74
0
 40
0
 40
0
 40
0
 40
0
 40
1
 40
1
 40
1
 40
1
 10
92.443988
 20
174.344076
 30
0.0
 10
97.208035
 20
174.344076
 30
0.0
 10
101.071543
 20
170.484075
 30
0.0
 10
101.071543
 20
165.734071
 30
0.0
  0
SPLINE
  5
15b
100
AcDbEntity
  8
Layer_1
 62
1
100
AcDbSpline
 70
8
 71
3
 72
8
 73
4
 74
0
 40
0
 40
0
 40
0
 40
0
 40
1
 40
1
 40
1
 40
1
 10
101.071543
 20
165.734071
 30
0.0
 10
101.071543
 20
162.504069
 30
0.0
 10
99.291492
 20
159.694068
 30
0.0
 10
96.656964
 20
158.214068
 30
0.0
  0
LWPOLYLINE
  5
15c
100
AcDbEntity
  8
Layer_1
 62
7
100
AcDbPolyline
 90
2
 70
0
 10
92.427777
 20
170.555561
 30
0.0
 10
92.427777
 20
170.555561
 30
0.0
  0
LWPOLYLINE
  5
15d
100
AcDbEntity
  8
Layer_1
 62
1
100
AcDbPolyline
 90
2
 70
0
 10
89.987364
 20
174.854077
 30
0.0
 10
90.203687
 20
174.044076
 30
0.0
  0
LWPOLYLINE
  5
15e
100
AcDbEntity
  8
Layer_1
 62
1
100
AcDbPolyline
 90
2
 70
0
 10
87.314785
 20
174.584076
 30
0.0
 10
88.122867
 20
173.184076
 30
0.0
  0
LWPOLYLINE
  5
15f
100
AcDbEntity
  8
Layer_1
 62
1
100
AcDbPolyline
 90
2
 70
0
 10
85.747686
 20
172.404076
 30
0.0
 10
86.336809
 20
171.814076
 30
0.0
  0
LWPOLYLINE
  5
160
100
AcDbEntity
  8
Layer_1
 62
1
100
AcDbPolyline
 90
2
 70
0
 10
83.581117
 20
170.834076
 30
0.0
 10
84.965973
 20
170.034075
 30
0.0
  0
LWPOLYLINE
  5
161
100
AcDbEntity
  8
Layer_1
 62
1
100
AcDbPolyline
 90
2
 70
0
 10
83.301076
 20
168.174073
 30
0.0
 10
84.105486
 20
167.954073
 30
0.0
  0
LWPOLYLINE
  5
162
100
AcDbEntity
  8
Layer_1
 62
1
100
AcDbPolyline
 90
2
 70
0
 10
82.206277
 20
165.724071
 30
0.0
 10
83.812427
 20
165.724071
 30
0.0
  0
LWPOLYLINE
  5
163
100
AcDbEntity
  8
Layer_1
 62
1
100
AcDbPolyline
 90
2
 70
0
 10
83.303412
 20
163.284069
 30
0.0
 10
84.107823
 20
163.504069
 30
0.0
  0
LWPOLYLINE
  5
164
100
AcDbEntity
  8
Layer_1
 62
1
100
AcDbPolyline
 90
2
 70
0
 10
83.578781
 20
160.624069
 30
0.0
 10
84.970312
 20
161.424069
 30
0.0
  0
LWPOLYLINE
  5
165
100
AcDbEntity
  8
Layer_1
 62
1
100
AcDbPolyline
 90
2
 70
0
 10
85.754028
 20
159.054068
 30
0.0
 10
86.341815
 20
159.644068
 30
0.0
  0
LWPOLYLINE
  5
166
100
AcDbEntity
  8
Layer_1
 62
1
100
AcDbPolyline
 90
2
 70
0
 10
87.353504
 20
156.934067
 30
0.0
 10
88.129877
 20
158.274068
 30
0.0
  0
LWPOLYLINE
  5
167
100
AcDbEntity
  8
Layer_1
 62
1
100
AcDbPolyline
 90
2
 70
0
 10
97.541448
 20
156.924067
 30
0.0
 10
96.757765
 20
158.284068
 30
0.0
  0
LWPOLYLINE
  5
168
100
AcDbEntity
  8
Layer_1
 62
1
100
AcDbPolyline
 90
2
 70
0
 10
99.132613
 20
159.064068
 30
0.0
 10
98.543824
 20
159.644068
 30
0.0
  0
LWPOLYLINE
  5
169
100
AcDbEntity
  8
Layer_1
 62
1
100
AcDbPolyline
 90
2
 70
0
 10
101.274148
 20
160.644069
 30
0.0
 10
99.913993
 20
161.434069
 30
0.0
  0
LWPOLYLINE
  5
16a
100
AcDbEntity
  8
Layer_1
 62
1
100
AcDbPolyline
 90
2
 70
0
 10
101.578889
 20
163.294069
 30
0.0
 10
100.775179
 20
163.514069
 30
0.0
  0
LWPOLYLINE
  5
16b
100
AcDbEntity
  8
Layer_1
 62
1
100
AcDbPolyline
 90
2
 70
0
 10
102.623288
 20
165.734071
 30
0.0
 10
101.067871
 20
165.734071
 30
0.0
  0
LWPOLYLINE
  5
16c
100
AcDbEntity
  8
Layer_1
 62
1
100
AcDbPolyline
 90
2
 70
0
 10
101.576586
 20
168.184073
 30
0.0
 10
100.772475
 20
167.964073
 30
0.0
  0
LWPOLYLINE
  5
16d
100
AcDbEntity
  8
Layer_1
 62
1
100
AcDbPolyline
 90
2
 70
0
 10
101.264468
 20
170.824076
 30
0.0
 10
99.910321
 20
170.044075
 30
0.0
  0
LWPOLYLINE
  5
16e
100
AcDbEntity
  8
Layer_1
 62
1
100
AcDbPolyline
 90
2
 70
0
 10
99.126905
 20
172.414076
 30
0.0
 10
98.538484
 20
171.824076
 30
0.0
  0
LWPOLYLINE
  5
16f
100
AcDbEntity
  8
Layer_1
 62
1
100
AcDbPolyline
 90
2
 70
0
 10
97.559506
 20
174.584076
 30
0.0
 10
96.750756
 20
173.194076
 30
0.0
  0
LWPOLYLINE
  5
170
100
AcDbEntity
  8
Layer_1
 62
1
100
AcDbPolyline
 90
2
 70
0
 10
94.884590
 20
174.854077
 30
0.0
 10
94.669302
 20
174.054076
 30
0.0
  0
SPLINE
  5
171
100
AcDbEntity
  8
Layer_1
 62
7
100
AcDbSpline
 70
8
 71
3
 72
8
 73
4
 74
0
 40
0
 40
0
 40
0
 40
0
 40
1
 40
1
 40
1
 40
1
 10
117.827777
 20
170.555561
 30
0.0
 10
115.205758
 20
170.555561
 30
0.0
 10
113.073080
 20
168.432197
 30
0.0
 10
113.073080
 20
165.810193
 30
0.0
  0
SPLINE
  5
172
100
AcDbEntity
  8
Layer_1
 62
7
100
AcDbSpline
 70
8
 71
3
 72
8
 73
4
 74
0
 40
0
 40
0
 40
0
 40
0
 40
1
 40
1
 40
1
 40
1
 10
113.073080
 20
165.810193
 30
0.0
 10
113.073080
 20
163.666397
 30
0.0
 10
114.499275
 20
161.849842
 30
0.0
 10
116.450681
 20
161.260213
 30
0.0
  0
LWPOLYLINE
  5
173
100
AcDbEntity
  8
Layer_1
 62
1
100
AcDbPolyline
 90
2
 70
0
 10
92.435610
 20
175.934077
 30
0.0
 10
92.435610
 20
174.344076
 30
0.0
  0
SPLINE
  5
174
100
AcDbEntity
  8
Layer_1
 62
7
100
AcDbSpline
 70
8
 71
3
 72
8
 73
4
 74
0
 40
0
 40
0
 40
0
 40
0
 40
1
 40
1
 40
1
 40
1
 10
119.093217
 20
161.232301
 30
0.0
 10
121.096701
 20
161.788881
 30
0.0
 10
122.573173
 20
163.629368
 30
0.0
 10
122.573173
 20
165.810193
 30
0.0
  0
SPLINE
  5
175
100
AcDbEntity
  8
Layer_1
 62
7
100
AcDbSpline
 70
8
 71
3
 72
8
 73
4
 74
0
 40
0
 40
0
 40
0
 40
0
 40
1
 40
1
 40
1
 40
1
 10
122.573173
 20
165.810193
 30
0.0
 10
122.573173
 20
168.432197
 30
0.0
 10
120.449804
 20
170.555561
 30
0.0
 10
117.827777
 20
170.555561
 30
0.0
  0
LWPOLYLINE
  5
176
100
AcDbEntity
  8
Layer_1
 62
7
100
AcDbPolyline
 90
4
 70
0
 10
116.450681
 20
161.260213
 30
0.0
 10
116.450681
 20
158.580467
 30
0.0
 10
119.093217
 20
158.580467
 30
0.0
 10
119.093217
 20
161.232301
 30
0.0
  0
SPLINE
  5
177
100
AcDbEntity
  8
Layer_1
 62
1
100
AcDbSpline
 70
8
 71
3
 72
8
 73
4
 74
0
 40
0
 40
0
 40
0
 40
0
 40
1
 40
1
 40
1
 40
1
 10
113.624002
 20
158.224068
 30
0.0
 10
110.993145
 20
159.694068
 30
0.0
 10
109.215765
 20
162.504069
 30
0.0
 10
109.215765
 20
165.734071
 30
0.0
  0
SPLINE
  5
178
100
AcDbEntity
  8
Layer_1
 62
1
100
AcDbSpline
 70
8
 71
3
 72
8
 73
4
 74
0
 40
0
 40
0
 40
0
 40
0
 40
1
 40
1
 40
1
 40
1
 10
109.215765
 20
165.734071
 30
0.0
 10
109.215765
 20
170.484075
 30
0.0
 10
113.078605
 20
174.344076
 30
0.0
 10
117.843988
 20
174.344076
 30
0.0
  0
SPLINE
  5
179
100
AcDbEntity
  8
Layer_1
 62
1
100
AcDbSpline
 70
8
 71
3
 72
8
 73
4
 74
0
 40
0
 40
0
 40
0
 40
0
 40
1
 40
1
 40
1
 40
1
 10
117.843988
 20
174.344076
 30
0.0
 10
122.608035
 20
174.344076
 30
0.0
 10
126.471542
 20
170.484075
 30
0.0
 10
126.471542
 20
165.734071
 30
0.0
  0
SPLINE
  5
17a
100
AcDbEntity
  8
Layer_1
 62
1
100
AcDbSpline
 70
8
 71
3
 72
8
 73
4
 74
0
 40
0
 40
0
 40
0
 40
0
 40
1
 40
1
 40
1
 40
1
 10
126.471542
 20
165.734071
 30
0.0
 10
126.471542
 20
162.504069
 30
0.0
 10
124.691492
 20
159.694068
 30
0.0
 10
122.056964
 20
158.214068
 30
0.0
  0
LWPOLYLINE
  5
17b
100
AcDbEntity
  8
Layer_1
 62
7
100
AcDbPolyline
 90
2
 70
0
 10
117.827777
 20
170.555561
 30
0.0
 10
117.827777
 20
170.555561
 30
0.0
  0
LWPOLYLINE
  5
17c
100
AcDbEntity
  8
Layer_1
 62
1
100
AcDbPolyline
 90
2
 70
0
 10
115.387364
 20
174.854077
 30
0.0
 10
115.603687
 20
174.044076
 30
0.0
  0
LWPOLYLINE
  5
17d
100
AcDbEntity
  8
Layer_1
 62
1
100
AcDbPolyline
 90
2
 70
0
 10
112.714784
 20
174.584076
 30
0.0
 10
113.522866
 20
173.184076
 30
0.0
  0
LWPOLYLINE
  5
17e
100
AcDbEntity
  8
Layer_1
 62
1
100
AcDbPolyline
 90
2
 70
0
 10
111.147685
 20
172.404076
 30
0.0
 10
111.736808
 20
171.814076
 30
0.0
  0
LWPOLYLINE
  5
17f
100
AcDbEntity
  8
Layer_1
 62
1
100
AcDbPolyline
 90
2
 70
0
 10
108.981117
 20
170.834076
 30
0.0
 10
110.365972
 20
170.034075
 30
0.0
  0
LWPOLYLINE
  5
180
100
AcDbEntity
  8
Layer_1
 62
1
100
AcDbPolyline
 90
2
 70
0
 10
108.701075
 20
168.174073
 30
0.0
 10
109.505486
 20
167.954073
 30
0.0
  0
LWPOLYLINE
  5
181
100
AcDbEntity
  8
Layer_1
 62
1
100
AcDbPolyline
 90
2
 70
0
 10
107.606276
 20
165.724071
 30
0.0
 10
109.212427
 20
165.724071
 30
0.0
  0
LWPOLYLINE
  5
182
100
AcDbEntity
  8
Layer_1
 62
1
100
AcDbPolyline
 90
2
 70
0
 10
108.703412
 20
163.284069
 30
0.0
 10
109.507822
 20
163.504069
 30
0.0
  0
LWPOLYLINE
  5
183
100
AcDbEntity
  8
Layer_1
 62
1
100
AcDbPolyline
 90
2
 70
0
 10
108.978781
 20
160.624069
 30
0.0
 10
110.370311
 20
161.424069
 30
0.0
  0
LWPOLYLINE
  5
184
100
AcDbEntity
  8
Layer_1
 62
1
100
AcDbPolyline
 90
2
 70
0
 10
111.154027
 20
159.054068
 30
0.0
 10
111.741815
 20
159.644068
 30
0.0
  0
LWPOLYLINE
  5
185
100
AcDbEntity
  8
Layer_1
 62
1
100
AcDbPolyline
 90
2
 70
0
 10
112.753503
 20
156.934067
 30
0.0
 10
113.529876
 20
158.274068
 30
0.0
  0
LWPOLYLINE
  5
186
100
AcDbEntity
  8
Layer_1
 62
1
100
AcDbPolyline
 90
2
 70
0
 10
122.941448
 20
156.924067
 30
0.0
 10
122.157765
 20
158.284068
 30
0.0
  0
LWPOLYLINE
  5
187
100
AcDbEntity
  8
Layer_1
 62
1
100
AcDbPolyline
 90
2
 70
0
 10
124.532613
 20
159.064068
 30
0.0
 10
123.943824
 20
159.644068
 30
0.0
  0
LWPOLYLINE
  5
188
100
AcDbEntity
  8
Layer_1
 62
1
100
AcDbPolyline
 90
2
 70
0
 10
126.674147
 20
160.644069
 30
0.0
 10
125.313993
 20
161.434069
 30
0.0
  0
LWPOLYLINE
  5
189
100
AcDbEntity
  8
Layer_1
 62
1
100
AcDbPolyline
 90
2
 70
0
 10
126.978888
 20
163.294069
 30
0.0
 10
126.175178
 20
163.514069
 30
0.0
  0
LWPOLYLINE
  5
18a
100
AcDbEntity
  8
Layer_1
 62
1
100
AcDbPolyline
 90
2
 70
0
 10
128.023287
 20
165.734071
 30
0.0
 10
126.467870
 20
165.734071
 30
0.0
  0
LWPOLYLINE
  5
18b
100
AcDbEntity
  8
Layer_1
 62
1
100
AcDbPolyline
 90
2
 70
0
 10
126.976585
 20
168.184073
 30
0.0
 10
126.172474
 20
167.964073
 30
0.0
  0
LWPOLYLINE
  5
18c
100
AcDbEntity
  8
Layer_1
 62
1
100
AcDbPolyline
 90
2
 70
0
 10
126.664467
 20
170.824076
 30
0.0
 10
125.310321
 20
170.044075
 30
0.0
  0
LWPOLYLINE
  5
18d
100
AcDbEntity
  8
Layer_1
 62
1
100
AcDbPolyline
 90
2
 70
0
 10
124.526905
 20
172.414076
 30
0.0
 10
123.938484
 20
171.824076
 30
0.0
  0
LWPOLYLINE
  5
18e
100
AcDbEntity
  8
Layer_1
 62
1
100
AcDbPolyline
 90
2
 70
0
 10
122.959506
 20
174.584076
 30
0.0
 10
122.150756
 20
173.194076
 30
0.0
  0
LWPOLYLINE
  5
18f
100
AcDbEntity
  8
Layer_1
 62
1
100
AcDbPolyline
 90
2
 70
0
 10
120.284590
 20
174.854077
 30
0.0
 10
120.069302
 20
174.054076
 30
0.0
  0
SPLINE
  5
190
100
AcDbEntity
  8
Layer_1
 62
7
100
AcDbSpline
 70
8
 71
3
 72
8
 73
4
 74
0
 40
0
 40
0
 40
0
 40
0
 40
1
 40
1
 40
1
 40
1
 10
92.427777
 20
151.505561
 30
0.0
 10
89.805758
 20
151.505561
 30
0.0
 10
87.673080
 20
149.382197
 30
0.0
 10
87.673080
 20
146.760193
 30
0.0
  0
SPLINE
  5
191
100
AcDbEntity
  8
Layer_1
 62
7
100
AcDbSpline
 70
8
 71
3
 72
8
 73
4
 74
0
 40
0
 40
0
 40
0
 40
0
 40
1
 40
1
 40
1
 40
1
 10
87.673080
 20
146.760193
 30
0.0
 10
87.673080
 20
144.616397
 30
0.0
 10
89.099275
 20
142.799842
 30
0.0
 10
91.050681
 20
142.210213
 30
0.0
  0
LWPOLYLINE
  5
192
100
AcDbEntity
  8
Layer_1
 62
1
100
AcDbPolyline
 90
2
 70
0
 10
117.835610
 20
175.934077
 30
0.0
 10
117.835610
 20
174.344076
 30
0.0
  0
SPLINE
  5
193
100
AcDbEntity
  8
Layer_1
 62
7
100
AcDbSpline
 70
8
 71
3
 72
8
 73
4
 74
0
 40
0
 40
0
 40
0
 40
0
 40
1
 40
1
 40
1
 40
1
 10
93.693217
 20
142.182301
 30
0.0
 10
95.696701
 20
142.738881
 30
0.0
 10
97.173173
 20
144.579368
 30
0.0
 10
97.173173
 20
146.760193
 30
0.0
  0
SPLINE
  5
194
100
AcDbEntity
  8
Layer_1
 62
7
100
AcDbSpline
 70
8
 71
3
 72
8
 73
4
 74
0
 40
0
 40
0
 40
0
 40
0
 40
1
 40
1
 40
1
 40
1
 10
97.173173
 20
146.760193
 30
0.0
 10
97.173173
 20
149.382197
 30
0.0
 10
95.049804
 20
151.505561
 30
0.0
 10
92.427777
 20
151.505561
 30
0.0
  0
LWPOLYLINE
  5
195
100
AcDbEntity
  8
Layer_1
 62
7
100
AcDbPolyline
 90
4
 70
0
 10
91.050681
 20
142.210213
 30
0.0
 10
91.050681
 20
139.530467
 30
0.0
 10
93.693217
 20
139.530467
 30
0.0
 10
93.693217
 20
142.182301
 30
0.0
  0
SPLINE
  5
196
100
AcDbEntity
  8
Layer_1
 62
1
100
AcDbSpline
 70
8
 71
3
 72
8
 73
4
 74
0
 40
0
 40
0
 40
0
 40
0
 40
1
 40
1
 40
1
 40
1
 10
88.224003
 20
139.174068
 30
0.0
 10
85.593146
 20
140.644069
 30
0.0
 10
83.815765
 20
143.454069
 30
0.0
 10
83.815765
 20
146.684072
 30
0.0
  0
SPLINE
  5
197
100
AcDbEntity
  8
Layer_1
 62
1
100
AcDbSpline
 70
8
 71
3
 72
8
 73
4
 74
0
 40
0
 40
0
 40
0
 40
0
 40
1
 40
1
 40
1
 40
1
 10
83.815765
 20
146.684072
 30
0.0
 10
83.815765
 20
151.434076
 30
0.0
 10
87.678606
 20
155.294076
 30
0.0
 10
92.443988
 20
155.294076
 30
0.0
  0
SPLINE
  5
198
100
AcDbEntity
  8
Layer_1
 62
1
100
AcDbSpline
 70
8
 71
3
 72
8
 73
4
 74
0
 40
0
 40
0
 40
0
 40
0
 40
1
 40
1
 40
1
 40
1
 10
92.443988
 20
155.294076
 30
0.0
 10
97.208035
 20
155.294076
 30
0.0
 10
101.071543
 20
151.434075
 30
0.0
 10
101.071543
 20
146.684072
 30
0.0
  0
SPLINE
  5
199
100
AcDbEntity
  8
Layer_1
 62
1
100
AcDbSpline
 70
8
 71
3
 72
8
 73
4
 74
0
 40
0
 40
0
 40
0
 40
0
 40
1
 40
1
 40
1
 40
1
 10
101.071543
 20
146.684072
 30
0.0
 10
101.071543
 20
143.454069
 30
0.0
 10
99.291492
 20
140.644069
 30
0.0
 10
96.656964
 20
139.164068
 30
0.0
  0
LWPOLYLINE
  5
19a
100
AcDbEntity
  8
Layer_1
 62
7
100
AcDbPolyline
 90
2
 70
0
 10
92.427777
 20
151.505561
 30
0.0
 10
92.427777
 20
151.505561
 30
0.0
  0
LWPOLYLINE
  5
19b
100
AcDbEntity
  8
Layer_1
 62
1
100
AcDbPolyline
 90
2
 70
0
 10
89.987364
 20
155.804077
 30
0.0
 10
90.203687
 20
154.994076
 30
0.0
  0
LWPOLYLINE
  5
19c
100
AcDbEntity
  8
Layer_1
 62
1
100
AcDbPolyline
 90
2
 70
0
 10
87.314785
 20
155.534076
 30
0.0
 10
88.122867
 20
154.134076
 30
0.0
  0
LWPOLYLINE
  5
19d
100
AcDbEntity
  8
Layer_1
 62
1
100
AcDbPolyline
 90
2
 70
0
 10
85.747686
 20
153.354077
 30
0.0
 10
86.336809
 20
152.764077
 30
0.0
  0
LWPOLYLINE
  5
19e
100
AcDbEntity
  8
Layer_1
 62
1
100
AcDbPolyline
 90
2
 70
0
 10
83.581117
 20
151.784077
 30
0.0
 10
84.965973
 20
150.984075
 30
0.0
  0
LWPOLYLINE
  5
19f
100
AcDbEntity
  8
Layer_1
 62
1
100
AcDbPolyline
 90
2
 70
0
 10
83.301076
 20
149.124074
 30
0.0
 10
84.105486
 20
148.904073
 30
0.0
  0
LWPOLYLINE
  5
1a0
100
AcDbEntity
  8
Layer_1
 62
1
100
AcDbPolyline
 90
2
 70
0
 10
82.206277
 20
146.674072
 30
0.0
 10
83.812427
 20
146.674072
 30
0.0
  0
LWPOLYLINE
  5
1a1
100
AcDbEntity
  8
Layer_1
 62
1
100
AcDbPolyline
 90
2
 70
0
 10
83.303412
 20
144.234069
 30
0.0
 10
84.107823
 20
144.454070
 30
0.0
  0
LWPOLYLINE
  5
1a2
100
AcDbEntity
  8
Layer_1
 62
1
100
AcDbPolyline
 90
2
 70
0
 10
83.578781
 20
141.574069
 30
0.0
 10
84.970312
 20
142.374069
 30
0.0
  0
LWPOLYLINE
  5
1a3
100
AcDbEntity
  8
Layer_1
 62
1
100
AcDbPolyline
 90
2
 70
0
 10
85.754028
 20
140.004069
 30
0.0
 10
86.341815
 20
140.594069
 30
0.0
  0
LWPOLYLINE
  5
1a4
100
AcDbEntity
  8
Layer_1
 62
1
100
AcDbPolyline
 90
2
 70
0
 10
87.353504
 20
137.884067
 30
0.0
 10
88.129877
 20
139.224068
 30
0.0
  0
LWPOLYLINE
  5
1a5
100
AcDbEntity
  8
Layer_1
 62
1
100
AcDbPolyline
 90
2
 70
0
 10
97.541448
 20
137.874068
 30
0.0
 10
96.757765
 20
139.234068
 30
0.0
  0
LWPOLYLINE
  5
1a6
100
AcDbEntity
  8
Layer_1
 62
1
100
AcDbPolyline
 90
2
 70
0
 10
99.132613
 20
140.014069
 30
0.0
 10
98.543824
 20
140.594069
 30
0.0
  0
LWPOLYLINE
  5
1a7
100
AcDbEntity
  8
Layer_1
 62
1
100
AcDbPolyline
 90
2
 70
0
 10
101.274148
 20
141.594069
 30
0.0
 10
99.913993
 20
142.384069
 30
0.0
  0
LWPOLYLINE
  5
1a8
100
AcDbEntity
  8
Layer_1
 62
1
100
AcDbPolyline
 90
2
 70
0
 10
101.578889
 20
144.244069
 30
0.0
 10
100.775179
 20
144.464070
 30
0.0
  0
LWPOLYLINE
  5
1a9
100
AcDbEntity
  8
Layer_1
 62
1
100
AcDbPolyline
 90
2
 70
0
 10
102.623288
 20
146.684072
 30
0.0
 10
101.067871
 20
146.684072
 30
0.0
  0
LWPOLYLINE
  5
1aa
100
AcDbEntity
  8
Layer_1
 62
1
100
AcDbPolyline
 90
2
 70
0
 10
101.576586
 20
149.134074
 30
0.0
 10
100.772475
 20
148.914073
 30
0.0
  0
LWPOLYLINE
  5
1ab
100
AcDbEntity
  8
Layer_1
 62
1
100
AcDbPolyline
 90
2
 70
0
 10
101.264468
 20
151.774077
 30
0.0
 10
99.910321
 20
150.994075
 30
0.0
  0
LWPOLYLINE
  5
1ac
100
AcDbEntity
  8
Layer_1
 62
1
100
AcDbPolyline
 90
2
 70
0
 10
99.126905
 20
153.364077
 30
0.0
 10
98.538484
 20
152.774077
 30
0.0
  0
LWPOLYLINE
  5
1ad
100
AcDbEntity
  8
Layer_1
 62
1
100
AcDbPolyline
 90
2
 70
0
 10
97.559506
 20
155.534076
 30
0.0
 10
96.750756
 20
154.144077
 30
0.0
  0
LWPOLYLINE
  5
1ae
100
AcDbEntity
  8
Layer_1
 62
1
100
AcDbPolyline
 90
2
 70
0
 10
94.884590
 20
155.804077
 30
0.0
 10
94.669302
 20
155.004076
 30
0.0
  0
SPLINE
  5
1af
100
AcDbEntity
  8
Layer_1
 62
7
100
AcDbSpline
 70
8
 71
3
 72
8
 73
4
 74
0
 40
0
 40
0
 40
0
 40
0
 40
1
 40
1
 40
1
 40
1
 10
117.827777
 20
151.505561
 30
0.0
 10
115.205758
 20
151.505561
 30
0.0
 10
113.073080
 20
149.382197
 30
0.0
 10
113.073080
 20
146.760193
 30
0.0
  0
SPLINE
  5
1b0
100
AcDbEntity
  8
Layer_1
 62
7
100
AcDbSpline
 70
8
 71
3
 72
8
 73
4
 74
0
 40
0
 40
0
 40
0
 40
0
 40
1
 40
1
 40
1
 40
1
 10
113.073080
 20
146.760193
 30
0.0
 10
113.073080
 20
144.616397
 30
0.0
 10
114.499275
 20
142.799842
 30
0.0
 10
116.450681
 20
142.210213
 30
0.0
  0
LWPOLYLINE
  5
1b1
100
AcDbEntity
  8
Layer_1
 62
1
100
AcDbPolyline
 90
2
 70
0
 10
92.435610
 20
156.884078
 30
0.0
 10
92.435610
 20
155.294076
 30
0.0
  0
SPLINE
  5
1b2
100
AcDbEntity
  8
Layer_1
 62
7
100
AcDbSpline
 70
8
 71
3
 72
8
 73
4
 74
0
 40
0
 40
0
 40
0
 40
0
 40
1
 40
1
 40
1
 40
1
 10
119.093217
 20
142.182301
 30
0.0
 10
121.096701
 20
142.738881
 30
0.0
 10
122.573173
 20
144.579368
 30
0.0
 10
122.573173
 20
146.760193
 30
0.0
  0
SPLINE
  5
1b3
100
AcDbEntity
  8
Layer_1
 62
7
100
AcDbSpline
 70
8
 71
3
 72
8
 73
4
 74
0
 40
0
 40
0
 40
0
 40
0
 40
1
 40
1
 40
1
 40
1
 10
122.573173
 20
146.760193
 30
0.0
 10
122.573173
 20
149.382197
 30
0.0
 10
120.449804
 20
151.505561
 30
0.0
 10
117.827777
 20
151.505561
 30
0.0
  0
LWPOLYLINE
  5
1b4
100
AcDbEntity
  8
Layer_1
 62
7
100
AcDbPolyline
 90
4
 70
0
 10
116.450681
 20
142.210213
 30
0.0
 10
116.450681
 20
139.530467
 30
0.0
 10
119.093217
 20
139.530467
 30
0.0
 10
119.093217
 20
142.182301
 30
0.0
  0
SPLINE
  5
1b5
100
AcDbEntity
  8
Layer_1
 62
1
100
AcDbSpline
 70
8
 71
3
 72
8
 73
4
 74
0
 40
0
 40
0
 40
0
 40
0
 40
1
 40
1
 40
1
 40
1
 10
113.624002
 20
139.174068
 30
0.0
 10
110.993145
 20
140.644069
 30
0.0
 10
109.215765
 20
143.454069
 30
0.0
 10
109.215765
 20
146.684072
 30
0.0
  0
SPLINE
  5
1b6
100
AcDbEntity
  8
Layer_1
 62
1
100
AcDbSpline
 70
8
 71
3
 72
8
 73
4
 74
0
 40
0
 40
0
 40
0
 40
0
 40
1
 40
1
 40
1
 40
1
 10
109.215765
 20
146.684072
 30
0.0
 10
109.215765
 20
151.434076
 30
0.0
 10
113.078605
 20
155.294076
 30
0.0
 10
117.843988
 20
155.294076
 30
0.0
  0
SPLINE
  5
1b7
100
AcDbEntity
  8
Layer_1
 62
1
100
AcDbSpline
 70
8
 71
3
 72
8
 73
4
 74
0
 40
0
 40
0
 40
0
 40
0
 40
1
 40
1
 40
1
 40
1
 10
117.843988
 20
155.294076
 30
0.0
 10
122.608035
 20
155.294076
 30
0.0
 10
126.471542
 20
151.434075
 30
0.0
 10
126.471542
 20
146.684072
 30
0.0
  0
SPLINE
  5
1b8
100
AcDbEntity
  8
Layer_1
 62
1
100
AcDbSpline
 70
8
 71
3
 72
8
 73
4
 74
0
 40
0
 40
0
 40
0
 40
0
 40
1
 40
1
 40
1
 40
1
 10
126.471542
 20
146.684072
 30
0.0
 10
126.471542
 20
143.454069
 30
0.0
 10
124.691492
 20
140.644069
 30
0.0
 10
122.056964
 20
139.164068
 30
0.0
  0
LWPOLYLINE
  5
1b9
100
AcDbEntity
  8
Layer_1
 62
7
100
AcDbPolyline
 90
2
 70
0
 10
117.827777
 20
151.505561
 30
0.0
 10
117.827777
 20
151.505561
 30
0.0
  0
LWPOLYLINE
  5
1ba
100
AcDbEntity
  8
Layer_1
 62
1
100
AcDbPolyline
 90
2
 70
0
 10
115.387364
 20
155.804077
 30
0.0
 10
115.603687
 20
154.994076
 30
0.0
  0
LWPOLYLINE
  5
1bb
100
AcDbEntity
  8
Layer_1
 62
1
100
AcDbPolyline
 90
2
 70
0
 10
112.714784
 20
155.534076
 30
0.0
 10
113.522866
 20
154.134076
 30
0.0
  0
LWPOLYLINE
  5
1bc
100
AcDbEntity
  8
Layer_1
 62
1
100
AcDbPolyline
 90
2
 70
0
 10
111.147685
 20
153.354077
 30
0.0
 10
111.736808
 20
152.764077
 30
0.0
  0
LWPOLYLINE
  5
1bd
100
AcDbEntity
  8
Layer_1
 62
1
100
AcDbPolyline
 90
2
 70
0
 10
108.981117
 20
151.784077
 30
0.0
 10
110.365972
 20
150.984075
 30
0.0
  0
LWPOLYLINE
  5
1be
100
AcDbEntity
  8
Layer_1
 62
1
100
AcDbPolyline
 90
2
 70
0
 10
108.701075
 20
149.124074
 30
0.0
 10
109.505486
 20
148.904073
 30
0.0
  0
LWPOLYLINE
  5
1bf
100
AcDbEntity
  8
Layer_1
 62
1
100
AcDbPolyline
 90
2
 70
0
 10
107.606276
 20
146.674072
 30
0.0
 10
109.212427
 20
146.674072
 30
0.0
  0
LWPOLYLINE
  5
1c0
100
AcDbEntity
  8
Layer_1
 62
1
100
AcDbPolyline
 90
2
 70
0
 10
108.703412
 20
144.234069
 30
0.0
 10
109.507822
 20
144.454070
 30
0.0
  0
LWPOLYLINE
  5
1c1
100
AcDbEntity
  8
Layer_1
 62
1
100
AcDbPolyline
 90
2
 70
0
 10
108.978781
 20
141.574069
 30
0.0
 10
110.370311
 20
142.374069
 30
0.0
  0
LWPOLYLINE
  5
1c2
100
AcDbEntity
  8
Layer_1
 62
1
100
AcDbPolyline
 90
2
 70
0
 10
111.154027
 20
140.004069
 30
0.0
 10
111.741815
 20
140.594069
 30
0.0
  0
LWPOLYLINE
  5
1c3
100
AcDbEntity
  8
Layer_1
 62
1
100
AcDbPolyline
 90
2
 70
0
 10
112.753503
 20
137.884067
 30
0.0
 10
113.529876
 20
139.224068
 30
0.0
  0
LWPOLYLINE
  5
1c4
100
AcDbEntity
  8
Layer_1
 62
1
100
AcDbPolyline
 90
2
 70
0
 10
122.941448
 20
137.874068
 30
0.0
 10
122.157765
 20
139.234068
 30
0.0
  0
LWPOLYLINE
  5
1c5
100
AcDbEntity
  8
Layer_1
 62
1
100
AcDbPolyline
 90
2
 70
0
 10
124.532613
 20
140.014069
 30
0.0
 10
123.943824
 20
140.594069
 30
0.0
  0
LWPOLYLINE
  5
1c6
100
AcDbEntity
  8
Layer_1
 62
1
100
AcDbPolyline
 90
2
 70
0
 10
126.674147
 20
141.594069
 30
0.0
 10
125.313993
 20
142.384069
 30
0.0
  0
LWPOLYLINE
  5
1c7
100
AcDbEntity
  8
Layer_1
 62
1
100
AcDbPolyline
 90
2
 70
0
 10
126.978888
 20
144.244069
 30
0.0
 10
126.175178
 20
144.464070
 30
0.0
  0
LWPOLYLINE
  5
1c8
100
AcDbEntity
  8
Layer_1
 62
1
100
AcDbPolyline
 90
2
 70
0
 10
128.023287
 20
146.684072
 30
0.0
 10
126.467870
 20
146.684072
 30
0.0
  0
LWPOLYLINE
  5
1c9
100
AcDbEntity
  8
Layer_1
 62
1
100
AcDbPolyline
 90
2
 70
0
 10
126.976585
 20
149.134074
 30
0.0
 10
126.172474
 20
148.914073
 30
0.0
  0
LWPOLYLINE
  5
1ca
100
AcDbEntity
  8
Layer_1
 62
1
100
AcDbPolyline
 90
2
 70
0
 10
126.664467
 20
151.774077
 30
0.0
 10
125.310321
 20
150.994075
 30
0.0
  0
LWPOLYLINE
  5
1cb
100
AcDbEntity
  8
Layer_1
 62
1
100
AcDbPolyline
 90
2
 70
0
 10
124.526905
 20
153.364077
 30
0.0
 10
123.938484
 20
152.774077
 30
0.0
  0
LWPOLYLINE
  5
1cc
100
AcDbEntity
  8
Layer_1
 62
1
100
AcDbPolyline
 90
2
 70
0
 10
122.959506
 20
155.534076
 30
0.0
 10
122.150756
 20
154.144077
 30
0.0
  0
LWPOLYLINE
  5
1cd
100
AcDbEntity
  8
Layer_1
 62
1
100
AcDbPolyline
 90
2
 70
0
 10
120.284590
 20
155.804077
 30
0.0
 10
120.069302
 20
155.004076
 30
0.0
  0
SPLINE
  5
1ce
100
AcDbEntity
  8
Layer_1
 62
7
100
AcDbSpline
 70
8
 71
3
 72
8
 73
4
 74
0
 40
0
 40
0
 40
0
 40
0
 40
1
 40
1
 40
1
 40
1
 10
92.427777
 20
132.455562
 30
0.0
 10
89.805758
 20
132.455562
 30
0.0
 10
87.673080
 20
130.332198
 30
0.0
 10
87.673080
 20
127.710194
 30
0.0
  0
SPLINE
  5
1cf
100
AcDbEntity
  8
Layer_1
 62
7
100
AcDbSpline
 70
8
 71
3
 72
8
 73
4
 74
0
 40
0
 40
0
 40
0
 40
0
 40
1
 40
1
 40
1
 40
1
 10
87.673080
 20
127.710194
 30
0.0
 10
87.673080
 20
125.566398
 30
0.0
 10
89.099275
 20
123.749843
 30
0.0
 10
91.050681
 20
123.160214
 30
0.0
  0
LWPOLYLINE
  5
1d0
100
AcDbEntity
  8
Layer_1
 62
1
100
AcDbPolyline
 90
2
 70
0
 10
117.835610
 20
156.884078
 30
0.0
 10
117.835610
 20
155.294076
 30
0.0
  0
SPLINE
  5
1d1
100
AcDbEntity
  8
Layer_1
 62
7
100
AcDbSpline
 70
8
 71
3
 72
8
 73
4
 74
0
 40
0
 40
0
 40
0
 40
0
 40
1
 40
1
 40
1
 40
1
 10
93.693217
 20
123.132302
 30
0.0
 10
95.696701
 20
123.688882
 30
0.0
 10
97.173173
 20
125.529369
 30
0.0
 10
97.173173
 20
127.710194
 30
0.0
  0
SPLINE
  5
1d2
100
AcDbEntity
  8
Layer_1
 62
7
100
AcDbSpline
 70
8
 71
3
 72
8
 73
4
 74
0
 40
0
 40
0
 40
0
 40
0
 40
1
 40
1
 40
1
 40
1
 10
97.173173
 20
127.710194
 30
0.0
 10
97.173173
 20
130.332198
 30
0.0
 10
95.049804
 20
132.455562
 30
0.0
 10
92.427777
 20
132.455562
 30
0.0
  0
LWPOLYLINE
  5
1d3
100
AcDbEntity
  8
Layer_1
 62
7
100
AcDbPolyline
 90
4
 70
0
 10
91.050681
 20
123.160214
 30
0.0
 10
91.050681
 20
120.480468
 30
0.0
 10
93.693217
 20
120.480468
 30
0.0
 10
93.693217
 20
123.132302
 30
0.0
  0
SPLINE
  5
1d4
100
AcDbEntity
  8
Layer_1
 62
1
100
AcDbSpline
 70
8
 71
3
 72
8
 73
4
 74
0
 40
0
 40
0
 40
0
 40
0
 40
1
 40
1
 40
1
 40
1
 10
88.224003
 20
120.124069
 30
0.0
 10
85.593146
 20
121.594069
 30
0.0
 10
83.815765
 20
124.404070
 30
0.0
 10
83.815765
 20
127.634072
 30
0.0
  0
SPLINE
  5
1d5
100
AcDbEntity
  8
Layer_1
 62
1
100
AcDbSpline
 70
8
 71
3
 72
8
 73
4
 74
0
 40
0
 40
0
 40
0
 40
0
 40
1
 40
1
 40
1
 40
1
 10
83.815765
 20
127.634072
 30
0.0
 10
83.815765
 20
132.384076
 30
0.0
 10
87.678606
 20
136.244077
 30
0.0
 10
92.443988
 20
136.244077
 30
0.0
  0
SPLINE
  5
1d6
100
AcDbEntity
  8
Layer_1
 62
1
100
AcDbSpline
 70
8
 71
3
 72
8
 73
4
 74
0
 40
0
 40
0
 40
0
 40
0
 40
1
 40
1
 40
1
 40
1
 10
92.443988
 20
136.244077
 30
0.0
 10
97.208035
 20
136.244077
 30
0.0
 10
101.071543
 20
132.384076
 30
0.0
 10
101.071543
 20
127.634072
 30
0.0
  0
SPLINE
  5
1d7
100
AcDbEntity
  8
Layer_1
 62
1
100
AcDbSpline
 70
8
 71
3
 72
8
 73
4
 74
0
 40
0
 40
0
 40
0
 40
0
 40
1
 40
1
 40
1
 40
1
 10
101.071543
 20
127.634072
 30
0.0
 10
101.071543
 20
124.404069
 30
0.0
 10
99.291492
 20
121.594069
 30
0.0
 10
96.656964
 20
120.114069
 30
0.0
  0
LWPOLYLINE
  5
1d8
100
AcDbEntity
  8
Layer_1
 62
7
100
AcDbPolyline
 90
2
 70
0
 10
92.427777
 20
132.455562
 30
0.0
 10
92.427777
 20
132.455562
 30
0.0
  0
LWPOLYLINE
  5
1d9
100
AcDbEntity
  8
Layer_1
 62
1
100
AcDbPolyline
 90
2
 70
0
 10
89.987364
 20
136.754078
 30
0.0
 10
90.203687
 20
135.944077
 30
0.0
  0
LWPOLYLINE
  5
1da
100
AcDbEntity
  8
Layer_1
 62
1
100
AcDbPolyline
 90
2
 70
0
 10
87.314785
 20
136.484077
 30
0.0
 10
88.122867
 20
135.084077
 30
0.0
  0
LWPOLYLINE
  5
1db
100
AcDbEntity
  8
Layer_1
 62
1
100
AcDbPolyline
 90
2
 70
0
 10
85.747686
 20
134.304077
 30
0.0
 10
86.336809
 20
133.714077
 30
0.0
  0
LWPOLYLINE
  5
1dc
100
AcDbEntity
  8
Layer_1
 62
1
100
AcDbPolyline
 90
2
 70
0
 10
83.581117
 20
132.734077
 30
0.0
 10
84.965973
 20
131.934076
 30
0.0
  0
LWPOLYLINE
  5
1dd
100
AcDbEntity
  8
Layer_1
 62
1
100
AcDbPolyline
 90
2
 70
0
 10
83.301076
 20
130.074074
 30
0.0
 10
84.105486
 20
129.854074
 30
0.0
  0
LWPOLYLINE
  5
1de
100
AcDbEntity
  8
Layer_1
 62
1
100
AcDbPolyline
 90
2
 70
0
 10
82.206277
 20
127.624072
 30
0.0
 10
83.812427
 20
127.624072
 30
0.0
  0
LWPOLYLINE
  5
1df
100
AcDbEntity
  8
Layer_1
 62
1
100
AcDbPolyline
 90
2
 70
0
 10
83.303412
 20
125.184070
 30
0.0
 10
84.107823
 20
125.404070
 30
0.0
  0
LWPOLYLINE
  5
1e0
100
AcDbEntity
  8
Layer_1
 62
1
100
AcDbPolyline
 90
2
 70
0
 10
83.578781
 20
122.524070
 30
0.0
 10
84.970312
 20
123.324070
 30
0.0
  0
LWPOLYLINE
  5
1e1
100
AcDbEntity
  8
Layer_1
 62
1
100
AcDbPolyline
 90
2
 70
0
 10
85.754028
 20
120.954069
 30
0.0
 10
86.341815
 20
121.544069
 30
0.0
  0
LWPOLYLINE
  5
1e2
100
AcDbEntity
  8
Layer_1
 62
1
100
AcDbPolyline
 90
2
 70
0
 10
87.353504
 20
118.834068
 30
0.0
 10
88.129877
 20
120.174069
 30
0.0
  0
LWPOLYLINE
  5
1e3
100
AcDbEntity
  8
Layer_1
 62
1
100
AcDbPolyline
 90
2
 70
0
 10
97.541448
 20
118.824068
 30
0.0
 10
96.757765
 20
120.184069
 30
0.0
  0
LWPOLYLINE
  5
1e4
100
AcDbEntity
  8
Layer_1
 62
1
100
AcDbPolyline
 90
2
 70
0
 10
99.132613
 20
120.964069
 30
0.0
 10
98.543824
 20
121.544069
 30
0.0
  0
LWPOLYLINE
  5
1e5
100
AcDbEntity
  8
Layer_1
 62
1
100
AcDbPolyline
 90
2
 70
0
 10
101.274148
 20
122.544070
 30
0.0
 10
99.913993
 20
123.334070
 30
0.0
  0
LWPOLYLINE
  5
1e6
100
AcDbEntity
  8
Layer_1
 62
1
100
AcDbPolyline
 90
2
 70
0
 10
101.578889
 20
125.194070
 30
0.0
 10
100.775179
 20
125.414070
 30
0.0
  0
LWPOLYLINE
  5
1e7
100
AcDbEntity
  8
Layer_1
 62
1
100
AcDbPolyline
 90
2
 70
0
 10
102.623288
 20
127.634072
 30
0.0
 10
101.067871
 20
127.634072
 30
0.0
  0
LWPOLYLINE
  5
1e8
100
AcDbEntity
  8
Layer_1
 62
1
100
AcDbPolyline
 90
2
 70
0
 10
101.576586
 20
130.084074
 30
0.0
 10
100.772475
 20
129.864074
 30
0.0
  0
LWPOLYLINE
  5
1e9
100
AcDbEntity
  8
Layer_1
 62
1
100
AcDbPolyline
 90
2
 70
0
 10
101.264468
 20
132.724077
 30
0.0
 10
99.910321
 20
131.944076
 30
0.0
  0
LWPOLYLINE
  5
1ea
100
AcDbEntity
  8
Layer_1
 62
1
100
AcDbPolyline
 90
2
 70
0
 10
99.126905
 20
134.314077
 30
0.0
 10
98.538484
 20
133.724077
 30
0.0
  0
LWPOLYLINE
  5
1eb
100
AcDbEntity
  8
Layer_1
 62
1
100
AcDbPolyline
 90
2
 70
0
 10
97.559506
 20
136.484077
 30
0.0
 10
96.750756
 20
135.094077
 30
0.0
  0
LWPOLYLINE
  5
1ec
100
AcDbEntity
  8
Layer_1
 62
1
100
AcDbPolyline
 90
2
 70
0
 10
94.884590
 20
136.754078
 30
0.0
 10
94.669302
 20
135.954077
 30
0.0
  0
SPLINE
  5
1ed
100
AcDbEntity
  8
Layer_1
 62
7
100
AcDbSpline
 70
8
 71
3
 72
8
 73
4
 74
0
 40
0
 40
0
 40
0
 40
0
 40
1
 40
1
 40
1
 40
1
 10
117.827777
 20
132.455562
 30
0.0
 10
115.205758
 20
132.455562
 30
0.0
 10
113.073080
 20
130.332198
 30
0.0
 10
113.073080
 20
127.710194
 30
0.0
  0
SPLINE
  5
1ee
100
AcDbEntity
  8
Layer_1
 62
7
100
AcDbSpline
 70
8
 71
3
 72
8
 73
4
 74
0
 40
0
 40
0
 40
0
 40
0
 40
1
 40
1
 40
1
 40
1
 10
113.073080
 20
127.710194
 30
0.0
 10
113.073080
 20
125.566398
 30
0.0
 10
114.499275
 20
123.749843
 30
0.0
 10
116.450681
 20
123.160214
 30
0.0
  0
LWPOLYLINE
  5
1ef
100
AcDbEntity
  8
Layer_1
 62
1
100
AcDbPolyline
 90
2
 70
0
 10
92.435610
 20
137.834078
 30
0.0
 10
92.435610
 20
136.244077
 30
0.0
  0
SPLINE
  5
1f0
100
AcDbEntity
  8
Layer_1
 62
7
100
AcDbSpline
 70
8
 71
3
 72
8
 73
4
 74
0
 40
0
 40
0
 40
0
 40
0
 40
1
 40
1
 40
1
 40
1
 10
119.093217
 20
123.132302
 30
0.0
 10
121.096701
 20
123.688882
 30
0.0
 10
122.573173
 20
125.529369
 30
0.0
 10
122.573173
 20
127.710194
 30
0.0
  0
SPLINE
  5
1f1
100
AcDbEntity
  8
Layer_1
 62
7
100
AcDbSpline
 70
8
 71
3
 72
8
 73
4
 74
0
 40
0
 40
0
 40
0
 40
0
 40
1
 40
1
 40
1
 40
1
 10
122.573173
 20
127.710194
 30
0.0
 10
122.573173
 20
130.332198
 30
0.0
 10
120.449804
 20
132.455562
 30
0.0
 10
117.827777
 20
132.455562
 30
0.0
  0
LWPOLYLINE
  5
1f2
100
AcDbEntity
  8
Layer_1
 62
7
100
AcDbPolyline
 90
4
 70
0
 10
116.450681
 20
123.160214
 30
0.0
 10
116.450681
 20
120.480468
 30
0.0
 10
119.093217
 20
120.480468
 30
0.0
 10
119.093217
 20
123.132302
 30
0.0
  0
SPLINE
  5
1f3
100
AcDbEntity
  8
Layer_1
 62
1
100
AcDbSpline
 70
8
 71
3
 72
8
 73
4
 74
0
 40
0
 40
0
 40
0
 40
0
 40
1
 40
1
 40
1
 40
1
 10
113.624002
 20
120.124069
 30
0.0
 10
110.993145
 20
121.594069
 30
0.0
 10
109.215765
 20
124.404070
 30
0.0
 10
109.215765
 20
127.634072
 30
0.0
  0
SPLINE
  5
1f4
100
AcDbEntity
  8
Layer_1
 62
1
100
AcDbSpline
 70
8
 71
3
 72
8
 73
4
 74
0
 40
0
 40
0
 40
0
 40
0
 40
1
 40
1
 40
1
 40
1
 10
109.215765
 20
127.634072
 30
0.0
 10
109.215765
 20
132.384076
 30
0.0
 10
113.078605
 20
136.244077
 30
0.0
 10
117.843988
 20
136.244077
 30
0.0
  0
SPLINE
  5
1f5
100
AcDbEntity
  8
Layer_1
 62
1
100
AcDbSpline
 70
8
 71
3
 72
8
 73
4
 74
0
 40
0
 40
0
 40
0
 40
0
 40
1
 40
1
 40
1
 40
1
 10
117.843988
 20
136.244077
 30
0.0
 10
122.608035
 20
136.244077
 30
0.0
 10
126.471542
 20
132.384076
 30
0.0
 10
126.471542
 20
127.634072
 30
0.0
  0
SPLINE
  5
1f6
100
AcDbEntity
  8
Layer_1
 62
1
100
AcDbSpline
 70
8
 71
3
 72
8
 73
4
 74
0
 40
0
 40
0
 40
0
 40
0
 40
1
 40
1
 40
1
 40
1
 10
126.471542
 20
127.634072
 30
0.0
 10
126.471542
 20
124.404069
 30
0.0
 10
124.691492
 20
121.594069
 30
0.0
 10
122.056964
 20
120.114069
 30
0.0
  0
LWPOLYLINE
  5
1f7
100
AcDbEntity
  8
Layer_1
 62
7
100
AcDbPolyline
 90
2
 70
0
 10
117.827777
 20
132.455562
 30
0.0
 10
117.827777
 20
132.455562
 30
0.0
  0
LWPOLYLINE
  5
1f8
100
AcDbEntity
  8
Layer_1
 62
1
100
AcDbPolyline
 90
2
 70
0
 10
115.387364
 20
136.754078
 30
0.0
 10
115.603687
 20
135.944077
 30
0.0
  0
LWPOLYLINE
  5
1f9
100
AcDbEntity
  8
Layer_1
 62
1
100
AcDbPolyline
 90
2
 70
0
 10
112.714784
 20
136.484077
 30
0.0
 10
113.522866
 20
135.084077
 30
0.0
  0
LWPOLYLINE
  5
1fa
100
AcDbEntity
  8
Layer_1
 62
1
100
AcDbPolyline
 90
2
 70
0
 10
111.147685
 20
134.304077
 30
0.0
 10
111.736808
 20
133.714077
 30
0.0
  0
LWPOLYLINE
  5
1fb
100
AcDbEntity
  8
Layer_1
 62
1
100
AcDbPolyline
 90
2
 70
0
 10
108.981117
 20
132.734077
 30
0.0
 10
110.365972
 20
131.934076
 30
0.0
  0
LWPOLYLINE
  5
1fc
100
AcDbEntity
  8
Layer_1
 62
1
100
AcDbPolyline
 90
2
 70
0
 10
108.701075
 20
130.074074
 30
0.0
 10
109.505486
 20
129.854074
 30
0.0
  0
LWPOLYLINE
  5
1fd
100
AcDbEntity
  8
Layer_1
 62
1
100
AcDbPolyline
 90
2
 70
0
 10
107.606276
 20
127.624072
 30
0.0
 10
109.212427
 20
127.624072
 30
0.0
  0
LWPOLYLINE
  5
1fe
100
AcDbEntity
  8
Layer_1
 62
1
100
AcDbPolyline
 90
2
 70
0
 10
108.703412
 20
125.184070
 30
0.0
 10
109.507822
 20
125.404070
 30
0.0
  0
LWPOLYLINE
  5
1ff
100
AcDbEntity
  8
Layer_1
 62
1
100
AcDbPolyline
 90
2
 70
0
 10
108.978781
 20
122.524070
 30
0.0
 10
110.370311
 20
123.324070
 30
0.0
  0
LWPOLYLINE
  5
200
100
AcDbEntity
  8
Layer_1
 62
1
100
AcDbPolyline
 90
2
 70
0
 10
111.154027
 20
120.954069
 30
0.0
 10
111.741815
 20
121.544069
 30
0.0
  0
LWPOLYLINE
  5
201
100
AcDbEntity
  8
Layer_1
 62
1
100
AcDbPolyline
 90
2
 70
0
 10
112.753503
 20
118.834068
 30
0.0
 10
113.529876
 20
120.174069
 30
0.0
  0
LWPOLYLINE
  5
202
100
AcDbEntity
  8
Layer_1
 62
1
100
AcDbPolyline
 90
2
 70
0
 10
122.941448
 20
118.824068
 30
0.0
 10
122.157765
 20
120.184069
 30
0.0
  0
LWPOLYLINE
  5
203
100
AcDbEntity
  8
Layer_1
 62
1
100
AcDbPolyline
 90
2
 70
0
 10
124.532613
 20
120.964069
 30
0.0
 10
123.943824
 20
121.544069
 30
0.0
  0
LWPOLYLINE
  5
204
100
AcDbEntity
  8
Layer_1
 62
1
100
AcDbPolyline
 90
2
 70
0
 10
126.674147
 20
122.544070
 30
0.0
 10
125.313993
 20
123.334070
 30
0.0
  0
LWPOLYLINE
  5
205
100
AcDbEntity
  8
Layer_1
 62
1
100
AcDbPolyline
 90
2
 70
0
 10
126.978888
 20
125.194070
 30
0.0
 10
126.175178
 20
125.414070
 30
0.0
  0
LWPOLYLINE
  5
206
100
AcDbEntity
  8
Layer_1
 62
1
100
AcDbPolyline
 90
2
 70
0
 10
128.023287
 20
127.634072
 30
0.0
 10
126.467870
 20
127.634072
 30
0.0
  0
LWPOLYLINE
  5
207
100
AcDbEntity
  8
Layer_1
 62
1
100
AcDbPolyline
 90
2
 70
0
 10
126.976585
 20
130.084074
 30
0.0
 10
126.172474
 20
129.864074
 30
0.0
  0
LWPOLYLINE
  5
208
100
AcDbEntity
  8
Layer_1
 62
1
100
AcDbPolyline
 90
2
 70
0
 10
126.664467
 20
132.724077
 30
0.0
 10
125.310321
 20
131.944076
 30
0.0
  0
LWPOLYLINE
  5
209
100
AcDbEntity
  8
Layer_1
 62
1
100
AcDbPolyline
 90
2
 70
0
 10
124.526905
 20
134.314077
 30
0.0
 10
123.938484
 20
133.724077
 30
0.0
  0
LWPOLYLINE
  5
20a
100
AcDbEntity
  8
Layer_1
 62
1
100
AcDbPolyline
 90
2
 70
0
 10
122.959506
 20
136.484077
 30
0.0
 10
122.150756
 20
135.094077
 30
0.0
  0
LWPOLYLINE
  5
20b
100
AcDbEntity
  8
Layer_1
 62
1
100
AcDbPolyline
 90
2
 70
0
 10
120.284590
 20
136.754078
 30
0.0
 10
120.069302
 20
135.954077
 30
0.0
  0
SPLINE
  5
20c
100
AcDbEntity
  8
Layer_1
 62
7
100
AcDbSpline
 70
8
 71
3
 72
8
 73
4
 74
0
 40
0
 40
0
 40
0
 40
0
 40
1
 40
1
 40
1
 40
1
 10
92.427777
 20
113.405562
 30
0.0
 10
89.805758
 20
113.405562
 30
0.0
 10
87.673080
 20
111.282198
 30
0.0
 10
87.673080
 20
108.660192
 30
0.0
  0
SPLINE
  5
20d
100
AcDbEntity
  8
Layer_1
 62
7
100
AcDbSpline
 70
8
 71
3
 72
8
 73
4
 74
0
 40
0
 40
0
 40
0
 40
0
 40
1
 40
1
 40
1
 40
1
 10
87.673080
 20
108.660192
 30
0.0
 10
87.673080
 20
106.516402
 30
0.0
 10
89.099275
 20
104.699842
 30
0.0
 10
91.050681
 20
104.110212
 30
0.0
  0
LWPOLYLINE
  5
20e
100
AcDbEntity
  8
Layer_1
 62
1
100
AcDbPolyline
 90
2
 70
0
 10
117.835610
 20
137.834078
 30
0.0
 10
117.835610
 20
136.244077
 30
0.0
  0
SPLINE
  5
20f
100
AcDbEntity
  8
Layer_1
 62
7
100
AcDbSpline
 70
8
 71
3
 72
8
 73
4
 74
0
 40
0
 40
0
 40
0
 40
0
 40
1
 40
1
 40
1
 40
1
 10
93.693217
 20
104.082302
 30
0.0
 10
95.696701
 20
104.638882
 30
0.0
 10
97.173173
 20
106.479372
 30
0.0
 10
97.173173
 20
108.660192
 30
0.0
  0
SPLINE
  5
210
100
AcDbEntity
  8
Layer_1
 62
7
100
AcDbSpline
 70
8
 71
3
 72
8
 73
4
 74
0
 40
0
 40
0
 40
0
 40
0
 40
1
 40
1
 40
1
 40
1
 10
97.173173
 20
108.660192
 30
0.0
 10
97.173173
 20
111.282198
 30
0.0
 10
95.049804
 20
113.405562
 30
0.0
 10
92.427777
 20
113.405562
 30
0.0
  0
LWPOLYLINE
  5
211
100
AcDbEntity
  8
Layer_1
 62
7
100
AcDbPolyline
 90
4
 70
0
 10
91.050681
 20
104.110212
 30
0.0
 10
91.050681
 20
101.430472
 30
0.0
 10
93.693217
 20
101.430472
 30
0.0
 10
93.693217
 20
104.082302
 30
0.0
  0
SPLINE
  5
212
100
AcDbEntity
  8
Layer_1
 62
1
100
AcDbSpline
 70
8
 71
3
 72
8
 73
4
 74
0
 40
0
 40
0
 40
0
 40
0
 40
1
 40
1
 40
1
 40
1
 10
88.224003
 20
101.074069
 30
0.0
 10
85.593146
 20
102.544070
 30
0.0
 10
83.815765
 20
105.354070
 30
0.0
 10
83.815765
 20
108.584073
 30
0.0
  0
SPLINE
  5
213
100
AcDbEntity
  8
Layer_1
 62
1
100
AcDbSpline
 70
8
 71
3
 72
8
 73
4
 74
0
 40
0
 40
0
 40
0
 40
0
 40
1
 40
1
 40
1
 40
1
 10
83.815765
 20
108.584073
 30
0.0
 10
83.815765
 20
113.334077
 30
0.0
 10
87.678606
 20
117.194077
 30
0.0
 10
92.443988
 20
117.194077
 30
0.0
  0
SPLINE
  5
214
100
AcDbEntity
  8
Layer_1
 62
1
100
AcDbSpline
 70
8
 71
3
 72
8
 73
4
 74
0
 40
0
 40
0
 40
0
 40
0
 40
1
 40
1
 40
1
 40
1
 10
92.443988
 20
117.194077
 30
0.0
 10
97.208035
 20
117.194077
 30
0.0
 10
101.071543
 20
113.334076
 30
0.0
 10
101.071543
 20
108.584073
 30
0.0
  0
SPLINE
  5
215
100
AcDbEntity
  8
Layer_1
 62
1
100
AcDbSpline
 70
8
 71
3
 72
8
 73
4
 74
0
 40
0
 40
0
 40
0
 40
0
 40
1
 40
1
 40
1
 40
1
 10
101.071543
 20
108.584073
 30
0.0
 10
101.071543
 20
105.354070
 30
0.0
 10
99.291492
 20
102.544070
 30
0.0
 10
96.656964
 20
101.064069
 30
0.0
  0
LWPOLYLINE
  5
216
100
AcDbEntity
  8
Layer_1
 62
7
100
AcDbPolyline
 90
2
 70
0
 10
92.427777
 20
113.405562
 30
0.0
 10
92.427777
 20
113.405562
 30
0.0
  0
LWPOLYLINE
  5
217
100
AcDbEntity
  8
Layer_1
 62
1
100
AcDbPolyline
 90
2
 70
0
 10
89.987364
 20
117.704078
 30
0.0
 10
90.203687
 20
116.894077
 30
0.0
  0
LWPOLYLINE
  5
218
100
AcDbEntity
  8
Layer_1
 62
1
100
AcDbPolyline
 90
2
 70
0
 10
87.314785
 20
117.434077
 30
0.0
 10
88.122867
 20
116.034077
 30
0.0
  0
LWPOLYLINE
  5
219
100
AcDbEntity
  8
Layer_1
 62
1
100
AcDbPolyline
 90
2
 70
0
 10
85.747686
 20
115.254077
 30
0.0
 10
86.336809
 20
114.664077
 30
0.0
  0
LWPOLYLINE
  5
21a
100
AcDbEntity
  8
Layer_1
 62
1
100
AcDbPolyline
 90
2
 70
0
 10
83.581117
 20
113.684078
 30
0.0
 10
84.965973
 20
112.884076
 30
0.0
  0
LWPOLYLINE
  5
21b
100
AcDbEntity
  8
Layer_1
 62
1
100
AcDbPolyline
 90
2
 70
0
 10
83.301076
 20
111.024075
 30
0.0
 10
84.105486
 20
110.804074
 30
0.0
  0
LWPOLYLINE
  5
21c
100
AcDbEntity
  8
Layer_1
 62
1
100
AcDbPolyline
 90
2
 70
0
 10
82.206277
 20
108.574073
 30
0.0
 10
83.812427
 20
108.574073
 30
0.0
  0
LWPOLYLINE
  5
21d
100
AcDbEntity
  8
Layer_1
 62
1
100
AcDbPolyline
 90
2
 70
0
 10
83.303412
 20
106.134070
 30
0.0
 10
84.107823
 20
106.354071
 30
0.0
  0
LWPOLYLINE
  5
21e
100
AcDbEntity
  8
Layer_1
 62
1
100
AcDbPolyline
 90
2
 70
0
 10
83.578781
 20
103.474070
 30
0.0
 10
84.970312
 20
104.274070
 30
0.0
  0
LWPOLYLINE
  5
21f
100
AcDbEntity
  8
Layer_1
 62
1
100
AcDbPolyline
 90
2
 70
0
 10
85.754028
 20
101.904070
 30
0.0
 10
86.341815
 20
102.494070
 30
0.0
  0
LWPOLYLINE
  5
220
100
AcDbEntity
  8
Layer_1
 62
1
100
AcDbPolyline
 90
2
 70
0
 10
87.353504
 20
99.784068
 30
0.0
 10
88.129877
 20
101.124069
 30
0.0
  0
LWPOLYLINE
  5
221
100
AcDbEntity
  8
Layer_1
 62
1
100
AcDbPolyline
 90
2
 70
0
 10
97.541448
 20
99.774068
 30
0.0
 10
96.757765
 20
101.134069
 30
0.0
  0
LWPOLYLINE
  5
222
100
AcDbEntity
  8
Layer_1
 62
1
100
AcDbPolyline
 90
2
 70
0
 10
99.132613
 20
101.914070
 30
0.0
 10
98.543824
 20
102.494070
 30
0.0
  0
LWPOLYLINE
  5
223
100
AcDbEntity
  8
Layer_1
 62
1
100
AcDbPolyline
 90
2
 70
0
 10
101.274148
 20
103.494070
 30
0.0
 10
99.913993
 20
104.284070
 30
0.0
  0
LWPOLYLINE
  5
224
100
AcDbEntity
  8
Layer_1
 62
1
100
AcDbPolyline
 90
2
 70
0
 10
101.578889
 20
106.144070
 30
0.0
 10
100.775179
 20
106.364071
 30
0.0
  0
LWPOLYLINE
  5
225
100
AcDbEntity
  8
Layer_1
 62
1
100
AcDbPolyline
 90
2
 70
0
 10
102.623288
 20
108.584073
 30
0.0
 10
101.067871
 20
108.584073
 30
0.0
  0
LWPOLYLINE
  5
226
100
AcDbEntity
  8
Layer_1
 62
1
100
AcDbPolyline
 90
2
 70
0
 10
101.576586
 20
111.034075
 30
0.0
 10
100.772475
 20
110.814074
 30
0.0
  0
LWPOLYLINE
  5
227
100
AcDbEntity
  8
Layer_1
 62
1
100
AcDbPolyline
 90
2
 70
0
 10
101.264468
 20
113.674078
 30
0.0
 10
99.910321
 20
112.894076
 30
0.0
  0
LWPOLYLINE
  5
228
100
AcDbEntity
  8
Layer_1
 62
1
100
AcDbPolyline
 90
2
 70
0
 10
99.126905
 20
115.264077
 30
0.0
 10
98.538484
 20
114.674077
 30
0.0
  0
LWPOLYLINE
  5
229
100
AcDbEntity
  8
Layer_1
 62
1
100
AcDbPolyline
 90
2
 70
0
 10
97.559506
 20
117.434077
 30
0.0
 10
96.750756
 20
116.044077
 30
0.0
  0
LWPOLYLINE
  5
22a
100
AcDbEntity
  8
Layer_1
 62
1
100
AcDbPolyline
 90
2
 70
0
 10
94.884590
 20
117.704078
 30
0.0
 10
94.669302
 20
116.904077
 30
0.0
  0
SPLINE
  5
22b
100
AcDbEntity
  8
Layer_1
 62
7
100
AcDbSpline
 70
8
 71
3
 72
8
 73
4
 74
0
 40
0
 40
0
 40
0
 40
0
 40
1
 40
1
 40
1
 40
1
 10
117.827777
 20
113.405562
 30
0.0
 10
115.205758
 20
113.405562
 30
0.0
 10
113.073080
 20
111.282198
 30
0.0
 10
113.073080
 20
108.660192
 30
0.0
  0
SPLINE
  5
22c
100
AcDbEntity
  8
Layer_1
 62
7
100
AcDbSpline
 70
8
 71
3
 72
8
 73
4
 74
0
 40
0
 40
0
 40
0
 40
0
 40
1
 40
1
 40
1
 40
1
 10
113.073080
 20
108.660192
 30
0.0
 10
113.073080
 20
106.516402
 30
0.0
 10
114.499275
 20
104.699842
 30
0.0
 10
116.450681
 20
104.110212
 30
0.0
  0
LWPOLYLINE
  5
22d
100
AcDbEntity
  8
Layer_1
 62
1
100
AcDbPolyline
 90
2
 70
0
 10
92.435610
 20
118.784079
 30
0.0
 10
92.435610
 20
117.194077
 30
0.0
  0
SPLINE
  5
22e
100
AcDbEntity
  8
Layer_1
 62
7
100
AcDbSpline
 70
8
 71
3
 72
8
 73
4
 74
0
 40
0
 40
0
 40
0
 40
0
 40
1
 40
1
 40
1
 40
1
 10
119.093217
 20
104.082302
 30
0.0
 10
121.096701
 20
104.638882
 30
0.0
 10
122.573173
 20
106.479372
 30
0.0
 10
122.573173
 20
108.660192
 30
0.0
  0
SPLINE
  5
22f
100
AcDbEntity
  8
Layer_1
 62
7
100
AcDbSpline
 70
8
 71
3
 72
8
 73
4
 74
0
 40
0
 40
0
 40
0
 40
0
 40
1
 40
1
 40
1
 40
1
 10
122.573173
 20
108.660192
 30
0.0
 10
122.573173
 20
111.282198
 30
0.0
 10
120.449804
 20
113.405562
 30
0.0
 10
117.827777
 20
113.405562
 30
0.0
  0
LWPOLYLINE
  5
230
100
AcDbEntity
  8
Layer_1
 62
7
100
AcDbPolyline
 90
4
 70
0
 10
116.450681
 20
104.110212
 30
0.0
 10
116.450681
 20
101.430472
 30
0.0
 10
119.093217
 20
101.430472
 30
0.0
 10
119.093217
 20
104.082302
 30
0.0
  0
SPLINE
  5
231
100
AcDbEntity
  8
Layer_1
 62
1
100
AcDbSpline
 70
8
 71
3
 72
8
 73
4
 74
0
 40
0
 40
0
 40
0
 40
0
 40
1
 40
1
 40
1
 40
1
 10
113.624002
 20
101.074069
 30
0.0
 10
110.993145
 20
102.544070
 30
0.0
 10
109.215765
 20
105.354070
 30
0.0
 10
109.215765
 20
108.584073
 30
0.0
  0
SPLINE
  5
232
100
AcDbEntity
  8
Layer_1
 62
1
100
AcDbSpline
 70
8
 71
3
 72
8
 73
4
 74
0
 40
0
 40
0
 40
0
 40
0
 40
1
 40
1
 40
1
 40
1
 10
109.215765
 20
108.584073
 30
0.0
 10
109.215765
 20
113.334077
 30
0.0
 10
113.078605
 20
117.194077
 30
0.0
 10
117.843988
 20
117.194077
 30
0.0
  0
SPLINE
  5
233
100
AcDbEntity
  8
Layer_1
 62
1
100
AcDbSpline
 70
8
 71
3
 72
8
 73
4
 74
0
 40
0
 40
0
 40
0
 40
0
 40
1
 40
1
 40
1
 40
1
 10
117.843988
 20
117.194077
 30
0.0
 10
122.608035
 20
117.194077
 30
0.0
 10
126.471542
 20
113.334076
 30
0.0
 10
126.471542
 20
108.584073
 30
0.0
  0
SPLINE
  5
234
100
AcDbEntity
  8
Layer_1
 62
1
100
AcDbSpline
 70
8
 71
3
 72
8
 73
4
 74
0
 40
0
 40
0
 40
0
 40
0
 40
1
 40
1
 40
1
 40
1
 10
126.471542
 20
108.584073
 30
0.0
 10
126.471542
 20
105.354070
 30
0.0
 10
124.691492
 20
102.544070
 30
0.0
 10
122.056964
 20
101.064069
 30
0.0
  0
LWPOLYLINE
  5
235
100
AcDbEntity
  8
Layer_1
 62
7
100
AcDbPolyline
 90
2
 70
0
 10
117.827777
 20
113.405562
 30
0.0
 10
117.827777
 20
113.405562
 30
0.0
  0
LWPOLYLINE
  5
236
100
AcDbEntity
  8
Layer_1
 62
1
100
AcDbPolyline
 90
2
 70
0
 10
115.387364
 20
117.704078
 30
0.0
 10
115.603687
 20
116.894077
 30
0.0
  0
LWPOLYLINE
  5
237
100
AcDbEntity
  8
Layer_1
 62
1
100
AcDbPolyline
 90
2
 70
0
 10
112.714784
 20
117.434077
 30
0.0
 10
113.522866
 20
116.034077
 30
0.0
  0
LWPOLYLINE
  5
238
100
AcDbEntity
  8
Layer_1
 62
1
100
AcDbPolyline
 90
2
 70
0
 10
111.147685
 20
115.254077
 30
0.0
 10
111.736808
 20
114.664077
 30
0.0
  0
LWPOLYLINE
  5
239
100
AcDbEntity
  8
Layer_1
 62
1
100
AcDbPolyline
 90
2
 70
0
 10
108.981117
 20
113.684078
 30
0.0
 10
110.365972
 20
112.884076
 30
0.0
  0
LWPOLYLINE
  5
23a
100
AcDbEntity
  8
Layer_1
 62
1
100
AcDbPolyline
 90
2
 70
0
 10
108.701075
 20
111.024075
 30
0.0
 10
109.505486
 20
110.804074
 30
0.0
  0
LWPOLYLINE
  5
23b
100
AcDbEntity
  8
Layer_1
 62
1
100
AcDbPolyline
 90
2
 70
0
 10
107.606276
 20
108.574073
 30
0.0
 10
109.212427
 20
108.574073
 30
0.0
  0
LWPOLYLINE
  5
23c
100
AcDbEntity
  8
Layer_1
 62
1
100
AcDbPolyline
 90
2
 70
0
 10
108.703412
 20
106.134070
 30
0.0
 10
109.507822
 20
106.354071
 30
0.0
  0
LWPOLYLINE
  5
23d
100
AcDbEntity
  8
Layer_1
 62
1
100
AcDbPolyline
 90
2
 70
0
 10
108.978781
 20
103.474070
 30
0.0
 10
110.370311
 20
104.274070
 30
0.0
  0
LWPOLYLINE
  5
23e
100
AcDbEntity
  8
Layer_1
 62
1
100
AcDbPolyline
 90
2
 70
0
 10
111.154027
 20
101.904070
 30
0.0
 10
111.741815
 20
102.494070
 30
0.0
  0
LWPOLYLINE
  5
23f
100
AcDbEntity
  8
Layer_1
 62
1
100
AcDbPolyline
 90
2
 70
0
 10
112.753503
 20
99.784068
 30
0.0
 10
113.529876
 20
101.124069
 30
0.0
  0
LWPOLYLINE
  5
240
100
AcDbEntity
  8
Layer_1
 62
1
100
AcDbPolyline
 90
2
 70
0
 10
122.941448
 20
99.774068
 30
0.0
 10
122.157765
 20
101.134069
 30
0.0
  0
LWPOLYLINE
  5
241
100
AcDbEntity
  8
Layer_1
 62
1
100
AcDbPolyline
 90
2
 70
0
 10
124.532613
 20
101.914070
 30
0.0
 10
123.943824
 20
102.494070
 30
0.0
  0
LWPOLYLINE
  5
242
100
AcDbEntity
  8
Layer_1
 62
1
100
AcDbPolyline
 90
2
 70
0
 10
126.674147
 20
103.494070
 30
0.0
 10
125.313993
 20
104.284070
 30
0.0
  0
LWPOLYLINE
  5
243
100
AcDbEntity
  8
Layer_1
 62
1
100
AcDbPolyline
 90
2
 70
0
 10
126.978888
 20
106.144070
 30
0.0
 10
126.175178
 20
106.364071
 30
0.0
  0
LWPOLYLINE
  5
244
100
AcDbEntity
  8
Layer_1
 62
1
100
AcDbPolyline
 90
2
 70
0
 10
128.023287
 20
108.584073
 30
0.0
 10
126.467870
 20
108.584073
 30
0.0
  0
LWPOLYLINE
  5
245
100
AcDbEntity
  8
Layer_1
 62
1
100
AcDbPolyline
 90
2
 70
0
 10
126.976585
 20
111.034075
 30
0.0
 10
126.172474
 20
110.814074
 30
0.0
  0
LWPOLYLINE
  5
246
100
AcDbEntity
  8
Layer_1
 62
1
100
AcDbPolyline
 90
2
 70
0
 10
126.664467
 20
113.674078
 30
0.0
 10
125.310321
 20
112.894076
 30
0.0
  0
LWPOLYLINE
  5
247
100
AcDbEntity
  8
Layer_1
 62
1
100
AcDbPolyline
 90
2
 70
0
 10
124.526905
 20
115.264077
 30
0.0
 10
123.938484
 20
114.674077
 30
0.0
  0
LWPOLYLINE
  5
248
100
AcDbEntity
  8
Layer_1
 62
1
100
AcDbPolyline
 90
2
 70
0
 10
122.959506
 20
117.434077
 30
0.0
 10
122.150756
 20
116.044077
 30
0.0
  0
LWPOLYLINE
  5
249
100
AcDbEntity
  8
Layer_1
 62
1
100
AcDbPolyline
 90
2
 70
0
 10
120.284590
 20
117.704078
 30
0.0
 10
120.069302
 20
116.904077
 30
0.0
  0
SPLINE
  5
24a
100
AcDbEntity
  8
Layer_1
 62
7
100
AcDbSpline
 70
8
 71
3
 72
8
 73
4
 74
0
 40
0
 40
0
 40
0
 40
0
 40
1
 40
1
 40
1
 40
1
 10
76.627778
 20
191.205561
 30
0.0
 10
76.627778
 20
189.410635
 30
0.0
 10
75.172703
 20
187.955561
 30
0.0
 10
73.377778
 20
187.955561
 30
0.0
  0
SPLINE
  5
24b
100
AcDbEntity
  8
Layer_1
 62
7
100
AcDbSpline
 70
8
 71
3
 72
8
 73
4
 74
0
 40
0
 40
0
 40
0
 40
0
 40
1
 40
1
 40
1
 40
1
 10
73.377778
 20
187.955561
 30
0.0
 10
71.582852
 20
187.955561
 30
0.0
 10
70.127778
 20
189.410635
 30
0.0
 10
70.127778
 20
191.205561
 30
0.0
  0
SPLINE
  5
24c
100
AcDbEntity
  8
Layer_1
 62
7
100
AcDbSpline
 70
8
 71
3
 72
8
 73
4
 74
0
 40
0
 40
0
 40
0
 40
0
 40
1
 40
1
 40
1
 40
1
 10
70.127778
 20
191.205561
 30
0.0
 10
70.127778
 20
193.000486
 30
0.0
 10
71.582852
 20
194.455561
 30
0.0
 10
73.377778
 20
194.455561
 30
0.0
  0
SPLINE
  5
24d
100
AcDbEntity
  8
Layer_1
 62
7
100
AcDbSpline
 70
8
 71
3
 72
8
 73
4
 74
0
 40
0
 40
0
 40
0
 40
0
 40
1
 40
1
 40
1
 40
1
 10
73.377778
 20
194.455561
 30
0.0
 10
75.172703
 20
194.455561
 30
0.0
 10
76.627778
 20
193.000486
 30
0.0
 10
76.627778
 20
191.205561
 30
0.0
  0
LWPOLYLINE
  5
24e
100
AcDbEntity
  8
Layer_1
 62
1
100
AcDbPolyline
 90
2
 70
0
 10
117.835610
 20
118.784079
 30
0.0
 10
117.835610
 20
117.194077
 30
0.0
  0
SPLINE
  5
24f
100
AcDbEntity
  8
Layer_1
 62
7
100
AcDbSpline
 70
8
 71
3
 72
8
 73
4
 74
0
 40
0
 40
0
 40
0
 40
0
 40
1
 40
1
 40
1
 40
1
 10
76.627778
 20
178.505560
 30
0.0
 10
76.627778
 20
176.710635
 30
0.0
 10
75.172703
 20
175.255560
 30
0.0
 10
73.377778
 20
175.255560
 30
0.0
  0
SPLINE
  5
250
100
AcDbEntity
  8
Layer_1
 62
7
100
AcDbSpline
 70
8
 71
3
 72
8
 73
4
 74
0
 40
0
 40
0
 40
0
 40
0
 40
1
 40
1
 40
1
 40
1
 10
73.377778
 20
175.255560
 30
0.0
 10
71.582852
 20
175.255560
 30
0.0
 10
70.127778
 20
176.710635
 30
0.0
 10
70.127778
 20
178.505560
 30
0.0
  0
SPLINE
  5
251
100
AcDbEntity
  8
Layer_1
 62
7
100
AcDbSpline
 70
8
 71
3
 72
8
 73
4
 74
0
 40
0
 40
0
 40
0
 40
0
 40
1
 40
1
 40
1
 40
1
 10
70.127778
 20
178.505560
 30
0.0
 10
70.127778
 20
180.300485
 30
0.0
 10
71.582852
 20
181.755560
 30
0.0
 10
73.377778
 20
181.755560
 30
0.0
  0
SPLINE
  5
252
100
AcDbEntity
  8
Layer_1
 62
7
100
AcDbSpline
 70
8
 71
3
 72
8
 73
4
 74
0
 40
0
 40
0
 40
0
 40
0
 40
1
 40
1
 40
1
 40
1
 10
73.377778
 20
181.755560
 30
0.0
 10
75.172703
 20
181.755560
 30
0.0
 10
76.627778
 20
180.300485
 30
0.0
 10
76.627778
 20
178.505560
 30
0.0
  0
LWPOLYLINE
  5
253
100
AcDbEntity
  8
Layer_1
 62
7
100
AcDbPolyline
 90
2
 70
0
 10
76.627778
 20
191.205561
 30
0.0
 10
76.627778
 20
191.205561
 30
0.0
  0
SPLINE
  5
254
100
AcDbEntity
  8
Layer_1
 62
7
100
AcDbSpline
 70
8
 71
3
 72
8
 73
4
 74
0
 40
0
 40
0
 40
0
 40
0
 40
1
 40
1
 40
1
 40
1
 10
76.627778
 20
165.805560
 30
0.0
 10
76.627778
 20
164.010635
 30
0.0
 10
75.172703
 20
162.555560
 30
0.0
 10
73.377778
 20
162.555560
 30
0.0
  0
SPLINE
  5
255
100
AcDbEntity
  8
Layer_1
 62
7
100
AcDbSpline
 70
8
 71
3
 72
8
 73
4
 74
0
 40
0
 40
0
 40
0
 40
0
 40
1
 40
1
 40
1
 40
1
 10
73.377778
 20
162.555560
 30
0.0
 10
71.582852
 20
162.555560
 30
0.0
 10
70.127778
 20
164.010635
 30
0.0
 10
70.127778
 20
165.805560
 30
0.0
  0
SPLINE
  5
256
100
AcDbEntity
  8
Layer_1
 62
7
100
AcDbSpline
 70
8
 71
3
 72
8
 73
4
 74
0
 40
0
 40
0
 40
0
 40
0
 40
1
 40
1
 40
1
 40
1
 10
70.127778
 20
165.805560
 30
0.0
 10
70.127778
 20
167.600486
 30
0.0
 10
71.582852
 20
169.055560
 30
0.0
 10
73.377778
 20
169.055560
 30
0.0
  0
SPLINE
  5
257
100
AcDbEntity
  8
Layer_1
 62
7
100
AcDbSpline
 70
8
 71
3
 72
8
 73
4
 74
0
 40
0
 40
0
 40
0
 40
0
 40
1
 40
1
 40
1
 40
1
 10
73.377778
 20
169.055560
 30
0.0
 10
75.172703
 20
169.055560
 30
0.0
 10
76.627778
 20
167.600486
 30
0.0
 10
76.627778
 20
165.805560
 30
0.0
  0
LWPOLYLINE
  5
258
100
AcDbEntity
  8
Layer_1
 62
7
100
AcDbPolyline
 90
2
 70
0
 10
76.627778
 20
178.505560
 30
0.0
 10
76.627778
 20
178.505560
 30
0.0
  0
SPLINE
  5
259
100
AcDbEntity
  8
Layer_1
 62
7
100
AcDbSpline
 70
8
 71
3
 72
8
 73
4
 74
0
 40
0
 40
0
 40
0
 40
0
 40
1
 40
1
 40
1
 40
1
 10
76.627778
 20
153.105559
 30
0.0
 10
76.627778
 20
151.310634
 30
0.0
 10
75.172703
 20
149.855559
 30
0.0
 10
73.377778
 20
149.855559
 30
0.0
  0
SPLINE
  5
25a
100
AcDbEntity
  8
Layer_1
 62
7
100
AcDbSpline
 70
8
 71
3
 72
8
 73
4
 74
0
 40
0
 40
0
 40
0
 40
0
 40
1
 40
1
 40
1
 40
1
 10
73.377778
 20
149.855559
 30
0.0
 10
71.582852
 20
149.855559
 30
0.0
 10
70.127778
 20
151.310634
 30
0.0
 10
70.127778
 20
153.105559
 30
0.0
  0
SPLINE
  5
25b
100
AcDbEntity
  8
Layer_1
 62
7
100
AcDbSpline
 70
8
 71
3
 72
8
 73
4
 74
0
 40
0
 40
0
 40
0
 40
0
 40
1
 40
1
 40
1
 40
1
 10
70.127778
 20
153.105559
 30
0.0
 10
70.127778
 20
154.900485
 30
0.0
 10
71.582852
 20
156.355559
 30
0.0
 10
73.377778
 20
156.355559
 30
0.0
  0
SPLINE
  5
25c
100
AcDbEntity
  8
Layer_1
 62
7
100
AcDbSpline
 70
8
 71
3
 72
8
 73
4
 74
0
 40
0
 40
0
 40
0
 40
0
 40
1
 40
1
 40
1
 40
1
 10
73.377778
 20
156.355559
 30
0.0
 10
75.172703
 20
156.355559
 30
0.0
 10
76.627778
 20
154.900485
 30
0.0
 10
76.627778
 20
153.105559
 30
0.0
  0
LWPOLYLINE
  5
25d
100
AcDbEntity
  8
Layer_1
 62
7
100
AcDbPolyline
 90
2
 70
0
 10
76.627778
 20
165.805560
 30
0.0
 10
76.627778
 20
165.805560
 30
0.0
  0
SPLINE
  5
25e
100
AcDbEntity
  8
Layer_1
 62
7
100
AcDbSpline
 70
8
 71
3
 72
8
 73
4
 74
0
 40
0
 40
0
 40
0
 40
0
 40
1
 40
1
 40
1
 40
1
 10
76.627778
 20
140.405563
 30
0.0
 10
76.627778
 20
138.610637
 30
0.0
 10
75.172703
 20
137.155563
 30
0.0
 10
73.377778
 20
137.155563
 30
0.0
  0
SPLINE
  5
25f
100
AcDbEntity
  8
Layer_1
 62
7
100
AcDbSpline
 70
8
 71
3
 72
8
 73
4
 74
0
 40
0
 40
0
 40
0
 40
0
 40
1
 40
1
 40
1
 40
1
 10
73.377778
 20
137.155563
 30
0.0
 10
71.582852
 20
137.155563
 30
0.0
 10
70.127778
 20
138.610637
 30
0.0
 10
70.127778
 20
140.405563
 30
0.0
  0
SPLINE
  5
260
100
AcDbEntity
  8
Layer_1
 62
7
100
AcDbSpline
 70
8
 71
3
 72
8
 73
4
 74
0
 40
0
 40
0
 40
0
 40
0
 40
1
 40
1
 40
1
 40
1
 10
70.127778
 20
140.405563
 30
0.0
 10
70.127778
 20
142.200488
 30
0.0
 10
71.582852
 20
143.655563
 30
0.0
 10
73.377778
 20
143.655563
 30
0.0
  0
SPLINE
  5
261
100
AcDbEntity
  8
Layer_1
 62
7
100
AcDbSpline
 70
8
 71
3
 72
8
 73
4
 74
0
 40
0
 40
0
 40
0
 40
0
 40
1
 40
1
 40
1
 40
1
 10
73.377778
 20
143.655563
 30
0.0
 10
75.172703
 20
143.655563
 30
0.0
 10
76.627778
 20
142.200488
 30
0.0
 10
76.627778
 20
140.405563
 30
0.0
  0
LWPOLYLINE
  5
262
100
AcDbEntity
  8
Layer_1
 62
7
100
AcDbPolyline
 90
2
 70
0
 10
76.627778
 20
153.105559
 30
0.0
 10
76.627778
 20
153.105559
 30
0.0
  0
SPLINE
  5
263
100
AcDbEntity
  8
Layer_1
 62
7
100
AcDbSpline
 70
8
 71
3
 72
8
 73
4
 74
0
 40
0
 40
0
 40
0
 40
0
 40
1
 40
1
 40
1
 40
1
 10
76.627778
 20
127.705559
 30
0.0
 10
76.627778
 20
125.910634
 30
0.0
 10
75.172703
 20
124.455559
 30
0.0
 10
73.377778
 20
124.455559
 30
0.0
  0
SPLINE
  5
264
100
AcDbEntity
  8
Layer_1
 62
7
100
AcDbSpline
 70
8
 71
3
 72
8
 73
4
 74
0
 40
0
 40
0
 40
0
 40
0
 40
1
 40
1
 40
1
 40
1
 10
73.377778
 20
124.455559
 30
0.0
 10
71.582852
 20
124.455559
 30
0.0
 10
70.127778
 20
125.910634
 30
0.0
 10
70.127778
 20
127.705559
 30
0.0
  0
SPLINE
  5
265
100
AcDbEntity
  8
Layer_1
 62
7
100
AcDbSpline
 70
8
 71
3
 72
8
 73
4
 74
0
 40
0
 40
0
 40
0
 40
0
 40
1
 40
1
 40
1
 40
1
 10
70.127778
 20
127.705559
 30
0.0
 10
70.127778
 20
129.500484
 30
0.0
 10
71.582852
 20
130.955559
 30
0.0
 10
73.377778
 20
130.955559
 30
0.0
  0
SPLINE
  5
266
100
AcDbEntity
  8
Layer_1
 62
7
100
AcDbSpline
 70
8
 71
3
 72
8
 73
4
 74
0
 40
0
 40
0
 40
0
 40
0
 40
1
 40
1
 40
1
 40
1
 10
73.377778
 20
130.955559
 30
0.0
 10
75.172703
 20
130.955559
 30
0.0
 10
76.627778
 20
129.500484
 30
0.0
 10
76.627778
 20
127.705559
 30
0.0
  0
LWPOLYLINE
  5
267
100
AcDbEntity
  8
Layer_1
 62
7
100
AcDbPolyline
 90
2
 70
0
 10
76.627778
 20
140.405563
 30
0.0
 10
76.627778
 20
140.405563
 30
0.0
  0
SPLINE
  5
268
100
AcDbEntity
  8
Layer_1
 62
7
100
AcDbSpline
 70
8
 71
3
 72
8
 73
4
 74
0
 40
0
 40
0
 40
0
 40
0
 40
1
 40
1
 40
1
 40
1
 10
76.627778
 20
115.005562
 30
0.0
 10
76.627778
 20
113.210637
 30
0.0
 10
75.172703
 20
111.755562
 30
0.0
 10
73.377778
 20
111.755562
 30
0.0
  0
SPLINE
  5
269
100
AcDbEntity
  8
Layer_1
 62
7
100
AcDbSpline
 70
8
 71
3
 72
8
 73
4
 74
0
 40
0
 40
0
 40
0
 40
0
 40
1
 40
1
 40
1
 40
1
 10
73.377778
 20
111.755562
 30
0.0
 10
71.582852
 20
111.755562
 30
0.0
 10
70.127778
 20
113.210637
 30
0.0
 10
70.127778
 20
115.005562
 30
0.0
  0
SPLINE
  5
26a
100
AcDbEntity
  8
Layer_1
 62
7
100
AcDbSpline
 70
8
 71
3
 72
8
 73
4
 74
0
 40
0
 40
0
 40
0
 40
0
 40
1
 40
1
 40
1
 40
1
 10
70.127778
 20
115.005562
 30
0.0
 10
70.127778
 20
116.800487
 30
0.0
 10
71.582852
 20
118.255562
 30
0.0
 10
73.377778
 20
118.255562
 30
0.0
  0
SPLINE
  5
26b
100
AcDbEntity
  8
Layer_1
 62
7
100
AcDbSpline
 70
8
 71
3
 72
8
 73
4
 74
0
 40
0
 40
0
 40
0
 40
0
 40
1
 40
1
 40
1
 40
1
 10
73.377778
 20
118.255562
 30
0.0
 10
75.172703
 20
118.255562
 30
0.0
 10
76.627778
 20
116.800487
 30
0.0
 10
76.627778
 20
115.005562
 30
0.0
  0
LWPOLYLINE
  5
26c
100
AcDbEntity
  8
Layer_1
 62
7
100
AcDbPolyline
 90
2
 70
0
 10
76.627778
 20
127.705559
 30
0.0
 10
76.627778
 20
127.705559
 30
0.0
  0
SPLINE
  5
26d
100
AcDbEntity
  8
Layer_1
 62
7
100
AcDbSpline
 70
8
 71
3
 72
8
 73
4
 74
0
 40
0
 40
0
 40
0
 40
0
 40
1
 40
1
 40
1
 40
1
 10
76.627778
 20
102.305562
 30
0.0
 10
76.627778
 20
100.510642
 30
0.0
 10
75.172703
 20
99.055562
 30
0.0
 10
73.377778
 20
99.055562
 30
0.0
  0
SPLINE
  5
26e
100
AcDbEntity
  8
Layer_1
 62
7
100
AcDbSpline
 70
8
 71
3
 72
8
 73
4
 74
0
 40
0
 40
0
 40
0
 40
0
 40
1
 40
1
 40
1
 40
1
 10
73.377778
 20
99.055562
 30
0.0
 10
71.582852
 20
99.055562
 30
0.0
 10
70.127778
 20
100.510642
 30
0.0
 10
70.127778
 20
102.305562
 30
0.0
  0
SPLINE
  5
26f
100
AcDbEntity
  8
Layer_1
 62
7
100
AcDbSpline
 70
8
 71
3
 72
8
 73
4
 74
0
 40
0
 40
0
 40
0
 40
0
 40
1
 40
1
 40
1
 40
1
 10
70.127778
 20
102.305562
 30
0.0
 10
70.127778
 20
104.100492
 30
0.0
 10
71.582852
 20
105.555562
 30
0.0
 10
73.377778
 20
105.555562
 30
0.0
  0
SPLINE
  5
270
100
AcDbEntity
  8
Layer_1
 62
7
100
AcDbSpline
 70
8
 71
3
 72
8
 73
4
 74
0
 40
0
 40
0
 40
0
 40
0
 40
1
 40
1
 40
1
 40
1
 10
73.377778
 20
105.555562
 30
0.0
 10
75.172703
 20
105.555562
 30
0.0
 10
76.627778
 20
104.100492
 30
0.0
 10
76.627778
 20
102.305562
 30
0.0
  0
LWPOLYLINE
  5
271
100
AcDbEntity
  8
Layer_1
 62
7
100
AcDbPolyline
 90
2
 70
0
 10
76.627778
 20
115.005562
 30
0.0
 10
76.627778
 20
115.005562
 30
0.0
  0
LWPOLYLINE
  5
272
100
AcDbEntity
  8
Layer_1
 62
7
100
AcDbPolyline
 90
2
 70
0
 10
76.627778
 20
102.305562
 30
0.0
 10
76.627778
 20
102.305562
 30
0.0
  0
ENDSEC
  0
SECTION
  2
OBJECTS
  0
DICTIONARY
  5
C
330
0
100
AcDbDictionary
  3
ACAD_GROUP
350
D
  3
ACAD_MLINESTYLE
350
17
  0
DICTIONARY
  5
D
330
C
100
AcDbDictionary
  0
DICTIONARY
  5
1A
330
C
100
AcDbDictionary
  0
DICTIONARY
  5
17
330
C
100
AcDbDictionary
  3
STANDARD
350
18
  0
DICTIONARY
  5
19
330
C
100
AcDbDictionary
  0
ENDSEC
  0
EOF
