<?xml version="1.0" encoding="UTF-8" standalone="no"?>
<svg
   xmlns:dc="http://purl.org/dc/elements/1.1/"
   xmlns:cc="http://creativecommons.org/ns#"
   xmlns:rdf="http://www.w3.org/1999/02/22-rdf-syntax-ns#"
   xmlns:svg="http://www.w3.org/2000/svg"
   xmlns="http://www.w3.org/2000/svg"
   xmlns:sodipodi="http://sodipodi.sourceforge.net/DTD/sodipodi-0.dtd"
   xmlns:inkscape="http://www.inkscape.org/namespaces/inkscape"
   version="1.1"
   width="210mm"
   height="297mm"
   viewBox="0 0 210 297"
   id="svg3839"
   inkscape:version="0.48.4 r9939"
   sodipodi:docname="VactrolMixer.svg">
  <metadata
     id="metadata4404">
    <rdf:RDF>
      <cc:Work
         rdf:about="">
        <dc:format>image/svg+xml</dc:format>
        <dc:type
           rdf:resource="http://purl.org/dc/dcmitype/StillImage" />
        <dc:title />
      </cc:Work>
    </rdf:RDF>
  </metadata>
  <sodipodi:namedview
     pagecolor="#ffffff"
     bordercolor="#666666"
     borderopacity="1"
     objecttolerance="10"
     gridtolerance="10"
     guidetolerance="10"
     inkscape:pageopacity="0"
     inkscape:pageshadow="2"
     inkscape:window-width="760"
     inkscape:window-height="980"
     id="namedview4402"
     showgrid="false"
     inkscape:zoom="1.6788492"
     inkscape:cx="125.43308"
     inkscape:cy="824.70471"
     inkscape:window-x="133"
     inkscape:window-y="0"
     inkscape:window-maximized="0"
     inkscape:current-layer="svg3839" />
  <defs
     id="defs3841">
    <g
       id="potgrading">
      <path
         d="M 22.469177,65.29487 C 12.864593,59.897939 6.3758317,49.616792 6.3758317,37.815007 c 0,-17.395119 14.1022403,-31.4975588 31.4994303,-31.4975588 17.392315,0 31.496992,14.1012398 31.496992,31.4975588 0,11.809085 -6.498509,22.101133 -16.116497,27.493263"
         style="fill:none;stroke:#030303;stroke-width:0.41032487"
         id="path3844" />
      <path
         d="m 28.906759,4.4567034 0.78974,2.9366707"
         style="fill:none;stroke:#030303;stroke-width:0.75"
         id="path3846" />
      <path
         d="M 19.149856,5.4303268 22.099957,10.54465"
         style="fill:none;stroke:#030303;stroke-width:1.0"
         id="path3848" />
      <path
         d="m 13.42878,13.404619 2.150735,2.149652"
         style="fill:none;stroke:#030303;stroke-width:0.75"
         id="path3850" />
      <path
         d="m 5.5191934,19.159858 5.0557506,2.91857"
         style="fill:none;stroke:#030303;stroke-width:1.0"
         id="path3852" />
      <path
         d="m 4.4968328,28.890192 2.9366973,0.786019"
         style="fill:none;stroke:#030303;stroke-width:0.75"
         id="path3854" />
      <path
         d="m 0.49999997,37.829608 5.86364623,0"
         style="fill:none;stroke:#030303;stroke-width:1.0"
         id="path3856" />
      <path
         d="M 4.5053627,46.769023 7.44206,45.980604"
         style="fill:none;stroke:#030303;stroke-width:0.75"
         id="path3858" />
      <path
         d="M 5.5106636,56.509058 10.590785,53.578387"
         style="fill:none;stroke:#030303;stroke-width:1.0"
         id="path3860" />
      <path
         d="m 13.451932,62.247196 2.145861,-2.149452"
         style="fill:none;stroke:#030303;stroke-width:0.75"
         id="path3862" />
      <path
         d="m 19.291208,70.009583 2.834339,-4.907218"
         style="fill:none;stroke:#030303;stroke-width:1.0"
         id="path3864" />
      <path
         d="m 56.484784,70.043684 -2.861026,-4.95962"
         style="fill:none;stroke:#030303;stroke-width:1.0"
         id="path3866" />
      <path
         d="M 62.293717,62.224096 60.144201,60.079444"
         style="fill:none;stroke:#030303;stroke-width:0.75"
         id="path3868" />
      <path
         d="m 70.111912,56.418856 -4.965577,-2.86977"
         style="fill:none;stroke:#030303;stroke-width:1.0"
         id="path3870" />
      <path
         d="M 71.224445,46.738522 68.290307,45.951403"
         style="fill:none;stroke:#030303;stroke-width:0.75"
         id="path3872" />
      <path
         d="m 75.037277,37.799107 -5.678427,0"
         style="fill:none;stroke:#030303;stroke-width:1.0"
         id="path3874" />
      <path
         d="M 71.216037,28.859791 68.280436,29.64821"
         style="fill:none;stroke:#030303;stroke-width:0.75"
         id="path3876" />
      <path
         d="m 70.076574,19.198959 -4.943643,2.855068"
         style="fill:none;stroke:#030303;stroke-width:1.0"
         id="path3878" />
      <path
         d="M 62.27288,13.382718 60.124704,15.53107"
         style="fill:none;stroke:#030303;stroke-width:0.75"
         id="path3880" />
      <path
         d="M 56.550707,5.4181265 53.598168,10.52765"
         style="fill:none;stroke:#030303;stroke-width:1.0"
         id="path3882" />
      <path
         d="M 46.785274,4.4507032 45.999312,7.386174"
         style="fill:none;stroke:#030303;stroke-width:0.75"
         id="path3884" />
      <path
         d="m 37.844676,0.500008 0,5.8162402"
         style="fill:none;stroke:#030303;stroke-width:1.0"
         id="path3886" />
      <path
         d="m 69.475831,37.723605 c 0,17.397619 -14.103337,31.501159 -31.500648,31.501159 -17.397312,0 -31.500649,-14.10354 -31.500649,-31.501159 0,-17.397619 14.103337,-31.5012591 31.500649,-31.5012591 17.397311,0 31.500648,14.1036401 31.500648,31.5012591 z"
         style="fill:none"
         id="path3888" />
    </g>
    <g
       id="potgrading-8">
      <path
         id="path10226"
         style="fill:none;stroke:#030303;stroke-width:0.41032487"
         d="M 22.469177,65.29487 C 12.864593,59.897939 6.3758317,49.616792 6.3758317,37.815007 c 0,-17.395119 14.1022403,-31.4975588 31.4994303,-31.4975588 17.392315,0 31.496992,14.1012398 31.496992,31.4975588 0,11.809085 -6.498509,22.101133 -16.116497,27.493263" />
      <path
         id="path10228"
         style="fill:none;stroke:#030303;stroke-width:0.75"
         d="m 28.906759,4.4567034 0.78974,2.9366707" />
      <path
         id="path10230"
         style="fill:none;stroke:#030303;stroke-width:1.0"
         d="M 19.149856,5.4303268 22.099957,10.54465" />
      <path
         id="path10232"
         style="fill:none;stroke:#030303;stroke-width:0.75"
         d="m 13.42878,13.404619 2.150735,2.149652" />
      <path
         id="path10234"
         style="fill:none;stroke:#030303;stroke-width:1.0"
         d="m 5.5191934,19.159858 5.0557506,2.91857" />
      <path
         id="path10236"
         style="fill:none;stroke:#030303;stroke-width:0.75"
         d="m 4.4968328,28.890192 2.9366973,0.786019" />
      <path
         id="path10238"
         style="fill:none;stroke:#030303;stroke-width:1.0"
         d="m 0.49999997,37.829608 5.86364623,0" />
      <path
         id="path10240"
         style="fill:none;stroke:#030303;stroke-width:0.75"
         d="M 4.5053627,46.769023 7.44206,45.980604" />
      <path
         id="path10242"
         style="fill:none;stroke:#030303;stroke-width:1.0"
         d="M 5.5106636,56.509058 10.590785,53.578387" />
      <path
         id="path10244"
         style="fill:none;stroke:#030303;stroke-width:0.75"
         d="m 13.451932,62.247196 2.145861,-2.149452" />
      <path
         id="path10246"
         style="fill:none;stroke:#030303;stroke-width:1.0"
         d="m 19.291208,70.009583 2.834339,-4.907218" />
      <path
         id="path10248"
         style="fill:none;stroke:#030303;stroke-width:1.0"
         d="m 56.484784,70.043684 -2.861026,-4.95962" />
      <path
         id="path10250"
         style="fill:none;stroke:#030303;stroke-width:0.75"
         d="M 62.293717,62.224096 60.144201,60.079444" />
      <path
         id="path10252"
         style="fill:none;stroke:#030303;stroke-width:1.0"
         d="m 70.111912,56.418856 -4.965577,-2.86977" />
      <path
         id="path10254"
         style="fill:none;stroke:#030303;stroke-width:0.75"
         d="M 71.224445,46.738522 68.290307,45.951403" />
      <path
         id="path10256"
         style="fill:none;stroke:#030303;stroke-width:1.0"
         d="m 75.037277,37.799107 -5.678427,0" />
      <path
         id="path10258"
         style="fill:none;stroke:#030303;stroke-width:0.75"
         d="M 71.216037,28.859791 68.280436,29.64821" />
      <path
         id="path10260"
         style="fill:none;stroke:#030303;stroke-width:1.0"
         d="m 70.076574,19.198959 -4.943643,2.855068" />
      <path
         id="path10262"
         style="fill:none;stroke:#030303;stroke-width:0.75"
         d="M 62.27288,13.382718 60.124704,15.53107" />
      <path
         id="path10264"
         style="fill:none;stroke:#030303;stroke-width:1.0"
         d="M 56.550707,5.4181265 53.598168,10.52765" />
      <path
         id="path10266"
         style="fill:none;stroke:#030303;stroke-width:0.75"
         d="M 46.785274,4.4507032 45.999312,7.386174" />
      <path
         id="path10268"
         style="fill:none;stroke:#030303;stroke-width:1.0"
         d="m 37.844676,0.500008 0,5.8162402" />
      <path
         id="path10270"
         style="fill:none"
         d="m 69.475831,37.723605 c 0,17.397619 -14.103337,31.501159 -31.500648,31.501159 -17.397312,0 -31.500649,-14.10354 -31.500649,-31.501159 0,-17.397619 14.103337,-31.5012591 31.500649,-31.5012591 17.397311,0 31.500648,14.1036401 31.500648,31.5012591 z" />
    </g>
  </defs>
  <g
     id="layer1"
     inkscape:label="Layer 1"
     transform="matrix(0.04875722,0,0,0.04875722,10.763326,87.1191)">
    <path
       inkscape:connector-curvature="0"
       id="path3810"
       d="m 866.43498,707.58569 c -0.37004,-4.34548 -0.6728,-14.13298 -0.6728,-21.75 l 0,-13.84912 12,0 12,0 0,-4 0,-4 -12,0 -12,0 0,-26.5 0,-26.5 8,0 8,0 0,18.5 0,18.5 4,0 4,0 0,-18.5 0,-18.5 8,0 8,0 -0.007,38.25 c -0.008,41.39923 -0.59256,53.82912 -2.33759,49.67984 -0.61487,-1.46174 -1.18568,-18.66548 -1.43281,-43.17984 l -0.41079,-40.75 -3.90591,0 -3.9059,0 0,18.5 0,18.5 -8,0 -8,0 0,-18.5 0,-18.5 -4,0 -4,0 0,22.5 0,22.5 12,0 12,0 0,8 0,8 -11.85352,0 -11.85352,0 -0.5943,16.75 c -0.72495,20.43221 -2.01241,26.75029 -3.02586,14.84912 z m -239,-1 c -0.37004,-4.34548 -0.6728,-27.65191 -0.6728,-51.79206 l 0,-43.89119 7.75,0.29207 7.75,0.29206 4.18188,12 4.18189,12 0.0681,-12.25 0.0681,-12.25 8,0 8,0 -0.007,40.75 c -0.004,22.4125 -0.30669,43.9 -0.67285,47.75 -1.4858,15.62261 -2.62044,0.12398 -3.05649,-41.75 l -0.44529,-42.75 -3.88968,0 -3.88969,0 -0.2695,21.71024 -0.2695,21.71025 -7.40703,-21.71025 -7.40703,-21.71024 -4.26527,0 -4.26527,0 -0.41544,46.75 c -0.23916,26.91214 -0.83531,48.02302 -1.4049,49.75 -0.87912,2.66548 -1.06448,2.119 -1.66226,-4.90088 z m -39.02191,-1.20089 c -0.35799,-4.23499 -0.65089,-13.48209 -0.65089,-20.54911 l 0,-12.84912 8,0 8,0 -0.007,6.75 c -0.01,9.49939 -1.13181,20.28217 -2.051,19.71409 -0.42584,-0.26319 -1.09487,-5.42527 -1.48672,-11.4713 l -0.71259,-10.99279 -3.72003,0 -3.72004,0 -0.56928,17.61797 c -0.61656,19.08134 -2.01388,24.42148 -3.08245,11.78026 z m 90.01095,0.12955 c -0.36401,-4.30624 -0.66184,-27.33664 -0.66184,-51.17866 l 0,-43.34912 20,0 20,0 -0.007,38.75 c -0.008,41.88153 -0.58822,54.3375 -2.33873,50.17984 -0.61752,-1.46641 -1.18525,-18.78545 -1.43197,-43.67984 l -0.40881,-41.25 -15.82189,0 -15.82189,0 -0.38922,46.75 c -0.24187,29.05051 -0.78063,47.66949 -1.42302,49.17866 -0.87425,2.05385 -1.13593,1.22036 -1.69563,-5.40088 z m 87,0 c -0.36401,-4.30624 -0.66184,-27.33664 -0.66184,-51.17866 l 0,-43.34912 20,0 20,0 -0.007,38.75 c -0.008,41.88153 -0.58822,54.3375 -2.33873,50.17984 -0.61752,-1.46641 -1.18525,-18.78545 -1.43197,-43.67984 l -0.40881,-41.25 -15.82189,0 -15.82189,0 -0.38922,46.75 c -0.24187,29.05051 -0.78063,47.66949 -1.42302,49.17866 -0.87425,2.05385 -1.13593,1.22036 -1.69563,-5.40088 z m -536.91819,2.97222 c -0.38784,-1.65 -1.00879,-9.6375 -1.37988,-17.75 l -0.6747,-14.75 -11.84454,0 -11.84453,0 0,-8 0,-8 12,0 12,0 0,-4 0,-4 -12,0 -12,0 0,-14.5 0,-14.5 8,0 8,0 0,6 0,6 4,0 4,0 0,-10 0,-10 -15.90919,0 -15.90918,0 -0.40308,42.75 c -0.24534,26.02124 -0.80452,43.70037 -1.42897,45.17866 -1.73201,4.10026 -2.34958,-9.71981 -2.34958,-52.57954 l 0,-39.34912 20,0 20,0 0,14 0,14 -8,0 -8,0 0,-6 0,-6 -4,0 -4,0 0,10.5 0,10.5 12,0 12,0 0,8 0,8 -12,0 -12,0 0,4 0,4 12,0 12,0 -0.0989,14.25 c -0.0544,7.8375 -0.40341,16.725 -0.77559,19.75 -0.60587,4.92435 -0.7505,5.18601 -1.38186,2.5 z m 101,0 c -0.38784,-1.65 -1.00879,-9.6375 -1.37988,-17.75 l -0.6747,-14.75 -11.84454,0 -11.84453,0 0,-8 0,-8 12,0 12,0 0,-4 0,-4 -12,0 -12,0 0,-14.5 0,-14.5 8,0 8,0 0,6 0,6 4,0 4,0 0,-10 0,-10 -15.90919,0 -15.90918,0 -0.40308,42.75 c -0.24534,26.02124 -0.80452,43.70037 -1.42897,45.17866 -1.73201,4.10026 -2.34958,-9.71981 -2.34958,-52.57954 l 0,-39.34912 20,0 20,0 0,14 0,14 -8,0 -8,0 0,-6 0,-6 -4,0 -4,0 0,10.5 0,10.5 12,0 12,0 0,8 0,8 -12,0 -12,0 0,4 0,4 12,0 12,0 -0.0989,14.25 c -0.0544,7.8375 -0.40341,16.725 -0.77559,19.75 -0.60587,4.92435 -0.7505,5.18601 -1.38186,2.5 z m 184,0 c -0.38784,-1.65 -1.00879,-9.6375 -1.37988,-17.75 l -0.6747,-14.75 -11.84454,0 -11.84453,0 0,-8 0,-8 12,0 12,0 0,-4 0,-4 -12,0 -12,0 0,-14.5 0,-14.5 8,0 8,0 0,6 0,6 4,0 4,0 0,-10 0,-10 -15.90919,0 -15.90918,0 -0.40308,42.75 c -0.24534,26.02124 -0.80452,43.70037 -1.42897,45.17866 -1.73201,4.10026 -2.34958,-9.71981 -2.34958,-52.57954 l 0,-39.34912 20,0 20,0 0,14 0,14 -8,0 -8,0 0,-6 0,-6 -4,0 -4,0 0,10.5 0,10.5 12,0 12,0 0,8 0,8 -12,0 -12,0 0,4 0,4 12,0 12,0 -0.0989,14.25 c -0.0544,7.8375 -0.40341,16.725 -0.77559,19.75 -0.60587,4.92435 -0.7505,5.18601 -1.38186,2.5 z m -272.08181,-5.97222 c -0.36401,-4.30624 -0.66184,-26.66164 -0.66184,-49.67866 l 0,-41.84912 20,0 20,0 0,20 c 0,11 -0.3375,20.00231 -0.75,20.00512 -0.4125,0.003 -2.53568,1.08597 -4.71817,2.40701 l -3.96817,2.40187 4.71817,2.29227 4.71817,2.29226 -0.0989,15.55074 c -0.0544,8.5529 -0.40988,18.02573 -0.78997,21.05073 -0.68874,5.48138 -0.69392,5.48821 -1.53145,2.01832 -0.4622,-1.91493 -1.11921,-10.91493 -1.46002,-20 l -0.61966,-16.51832 -5.68738,-3.02071 c -3.12805,-1.66139 -5.9936,-3.32693 -6.36787,-3.70121 -0.37428,-0.37427 2.29754,-2.14904 5.93737,-3.94392 l 6.61788,-3.26342 0,-16.78537 0,-16.78537 -15.913,0 -15.913,0 -0.39419,45.25 c -0.24318,27.91564 -0.78913,46.18037 -1.42516,47.67866 -0.87092,2.05162 -1.13372,1.21318 -1.69281,-5.40088 z m 101,0 c -0.36401,-4.30624 -0.66184,-26.66164 -0.66184,-49.67866 l 0,-41.84912 8,0 8,0 0,30.5 0,30.5 6,0 6,0 -0.007,7.25 c -0.01,10.12329 -1.13853,21.00688 -2.07922,20.05066 -0.43332,-0.44036 -1.10516,-5.86316 -1.4931,-12.05066 l -0.70533,-11.25 -5.85768,0 -5.85767,0 0,-30.5 0,-30.5 -3.913,0 -3.913,0 -0.39419,45.25 c -0.24318,27.91564 -0.78913,46.18037 -1.42516,47.67866 -0.87092,2.05162 -1.13372,1.21318 -1.69281,-5.40088 z m 221.03741,4.97222 c -0.41226,-1.65 -1.02768,-12.1125 -1.3676,-23.25 l -0.61804,-20.25 -3.8568,0 -3.85681,0 0,6 0,6 -8,0 -8,0 0,-26.5 0,-26.5 8,0 8,0 0,6 0,6 4,0 4,0 0,-10 0,-10 -15.90675,0 -15.90674,0 -0.40881,41.25 c -0.2466,24.88259 -0.81457,42.21366 -1.43142,43.67866 -1.7153,4.07379 -2.34628,-9.66289 -2.34628,-51.07954 l 0,-37.84912 20,0 20,0 0,14 0,14 -8,0 -8,0 0,-6 0,-6 -4,0 -4,0 0,22.5 0,22.5 4,0 4,0 0,-6 0,-6 8,0 8,0 -0.0989,19.75 c -0.0544,10.8625 -0.40341,22.225 -0.77559,25.25 -0.61438,4.9935 -0.74572,5.22373 -1.42626,2.5 z m 165.96259,-4.97222 c -0.36401,-4.30624 -0.66184,-26.66164 -0.66184,-49.67866 l 0,-41.84912 8,0 8,0 0,30.5 0,30.5 6,0 6,0 -0.007,7.25 c -0.01,10.12329 -1.13853,21.00688 -2.07922,20.05066 -0.43332,-0.44036 -1.10516,-5.86316 -1.4931,-12.05066 l -0.70533,-11.25 -5.85768,0 -5.85767,0 0,-30.5 0,-30.5 -3.913,0 -3.913,0 -0.39419,45.25 c -0.24318,27.91564 -0.78913,46.18037 -1.42516,47.67866 -0.87092,2.05162 -1.13372,1.21318 -1.69281,-5.40088 z m 124.00693,3.97222 c -0.42903,-1.65 -1.03726,-14.5875 -1.35163,-28.75 l -0.57158,-25.75 -3.87278,0 -3.87278,0 0,12 0,12 -8,0 -8,0 0,-26.5 0,-26.5 8,0 8,0 0,6 0,6 4,0 4,0 0,-10 0,-10 -15.91359,0 -15.91359,0 -0.39287,40.75 c -0.2395,24.84244 -0.79561,41.69807 -1.42457,43.17866 -1.72146,4.05236 -2.35538,-9.5604 -2.35538,-50.57954 l 0,-37.34912 20,0 20,0 0,14 0,14 -8,0 -8,0 0,-6 0,-6 -4,0 -4,0 0,22.5 0,22.5 4,0 4,0 0,-12 0,-12 8,0 8,0 -0.0989,25.25 c -0.0544,13.8875 -0.40341,27.725 -0.77559,30.75 -0.61984,5.03788 -0.74223,5.24793 -1.45674,2.5 z m -240.06673,-3.5 c -0.47613,-1.375 -1.07546,-21.7375 -1.33183,-45.25 l -0.46613,-42.75 -3.90204,0 -3.90204,0 0,24.5 0,24.5 -8,0 -8,0 0,-24.5 0,-24.5 -3.91439,0 -3.91438,0 -0.43331,41.25 c -0.24049,22.89444 -0.86926,42.58495 -1.41301,44.25 -1.63848,5.01732 -2.31229,-10.0197 -2.31892,-51.75 l -0.006,-37.75 8,0 8,0 0,24.5 0,24.5 4,0 4,0 0,-24.5 0,-24.5 8,0 8,0 -0.0989,41.75 c -0.10159,42.88659 -0.65562,54.99597 -2.29906,50.25 z m 39.06047,-6.5 c -0.47016,-5.14925 -2.23281,-12.4543 -4.94648,-20.5 l -4.21603,-12.5 -0.6209,15 c -0.34149,8.25 -0.67899,16.5525 -0.75,18.45 -0.10026,2.67925 -0.39662,3.18248 -1.32655,2.25255 -0.84673,-0.84673 -1.3189,-8.88634 -1.61213,-27.45 -0.22808,-14.4389 -0.23958,-27.37755 -0.0255,-28.75255 0.25575,-1.64303 3.09371,5.55551 8.27906,21 8.11939,24.18347 8.51749,26.36011 6.67562,36.5 -0.66614,3.66728 -0.78734,3.33456 -1.45704,-4 z m -512.00067,-0.97222 c -0.36401,-4.30624 -0.66184,-25.08664 -0.66184,-46.17866 l 0,-38.34912 20,0 20,0 0,25.98083 0,25.98084 -4.74667,2.41232 -4.74666,2.41232 4.74666,2.30611 4.74667,2.30611 -0.0989,10.05074 c -0.0544,5.5279 -0.41945,12.52573 -0.81124,15.55073 -0.69499,5.36596 -0.72952,5.4147 -1.41689,2 -0.3875,-1.925 -1.03494,-8.45 -1.43875,-14.5 l -0.73422,-11 -5.68738,-3.02071 c -3.12805,-1.66139 -5.9936,-3.32693 -6.36787,-3.70121 -0.37428,-0.37427 2.29754,-2.14904 5.93737,-3.94392 l 6.61788,-3.26342 0,-22.78537 0,-22.78537 -15.90757,0 -15.90758,0 -0.40686,41.75 c -0.24618,25.26232 -0.81114,42.70911 -1.43059,44.17866 -0.86236,2.04585 -1.12804,1.19456 -1.68556,-5.40088 z m 11.98905,-1.12954 c -0.35799,-4.235 -0.65089,-11.03773 -0.65089,-15.11719 l 0,-7.4172 7.99901,4.31808 c 7.94911,4.29113 7.99898,4.34303 7.9929,8.31807 -0.0107,7.01069 -1.24939,17.4589 -2.01378,16.98649 -0.40591,-0.25087 -1.05411,-4.67229 -1.44046,-9.82538 l -0.70244,-9.36926 -3.45154,-1.64592 c -1.89835,-0.90526 -3.595,-1.64593 -3.77033,-1.64593 -0.17534,0 -0.63148,4.8364 -1.01364,10.74757 -0.38217,5.91116 -1.05555,11.10826 -1.4964,11.54911 -0.44085,0.44085 -1.09444,-2.66345 -1.45243,-6.89844 z m 287,0 c -0.35799,-4.235 -0.65089,-21.1321 -0.65089,-37.54912 l 0,-29.84912 -6,0 -6,0 0,-8 0,-8 20,0 20,0 0,8 0,8 -6,0 -6,0 -0.007,30.75 c -0.008,33.84451 -0.62577,45.01684 -2.39223,43.25114 -0.75018,-0.74986 -1.21164,-13.34382 -1.44918,-39.55067 l -0.34862,-38.45047 6.09851,0 6.09852,0 0,-4 0,-4 -16,0 -16,0 0,4 0,4 6.09061,0 6.0906,0 -0.3406,38.45074 c -0.23195,26.18383 -0.69126,38.80115 -1.43972,39.54911 -0.79872,0.79819 -1.277,-1.00605 -1.75,-6.60161 z m -186.65089,-26.4094 0,-8.01116 8,4.02232 c 7.99067,4.01763 8,4.02697 8,8.01116 l 0,3.98884 -8,0 -8,0 0,-8.01116 z m 12,3.19637 c 0,-0.70808 -6.25929,-4.18521 -7.53393,-4.18521 -0.25634,0 -0.46607,1.125 -0.46607,2.5 0,2.25 0.4,2.5 4,2.5 2.2,0 4,-0.36665 4,-0.81479 z m 425,-21.68521 0,-26.5 8,0 8,0 0,26.5 0,26.5 -8,0 -8,0 0,-26.5 z m 12,0 0,-22.5 -4,0 -4,0 0,22.5 0,22.5 4,0 4,0 0,-22.5 z m 75,0 0,-26.5 8,0 8,0 0,26.5 0,26.5 -8,0 -8,0 0,-26.5 z m 12,0 0,-22.5 -4,0 -4,0 0,22.5 0,22.5 4,0 4,0 0,-22.5 z m -637,-6.5 0,-20 8,0 8,0 0,15.90961 0,15.90962 -7.4529,4.09038 c -4.09909,2.24972 -7.69909,4.09039 -8,4.09039 -0.3009,0 -0.5471,-9 -0.5471,-20 z m 12,-3.02032 0,-12.97968 -4,0 -4,0 0,15.02032 0,15.02033 4,-2.04065 4,-2.04065 0,-12.97967 z m 89,-2.96852 0,-14.01116 8,0 8,0 0,9.98884 0,9.98884 -8,4.02232 -8,4.02232 0,-14.01116 z m 12,-3.03148 0,-6.97968 -4,0 -4,0 0,9.02032 0,9.02033 4,-2.04065 4,-2.04065 0,-6.97967 z"
       style="fill:#000000" />
  </g>
  <g
     transform="matrix(0.28222223,0,0,0.28222223,5.164136,0)"
     style="font-size:10px;font-style:normal;font-weight:normal;line-height:125%;letter-spacing:0px;word-spacing:0px;fill:#000000;fill-opacity:1;stroke:none;font-family:Sans"
     id="flowRoot7047">
    <path
       d="m 98.011719,396.74288 -1.337891,3.62793 2.680664,0 -1.342773,-3.62793 m -0.556641,-0.97168 1.118164,0 2.778318,7.29004 -1.02539,0 -0.664061,-1.87012 -3.286132,0 -0.664063,1.87012 -1.040039,0 2.783203,-7.29004"
       id="path7651"
       inkscape:connector-curvature="0" />
  </g>
  <g
     transform="matrix(0.28222223,0,0,0.28222223,30.564133,0)"
     style="font-size:10px;font-style:normal;font-weight:normal;line-height:125%;letter-spacing:0px;word-spacing:0px;fill:#000000;fill-opacity:1;stroke:none;font-family:Sans"
     id="flowRoot7055">
    <path
       d="m 96.561523,399.5798 0,2.67089 1.582032,0 c 0.530595,10e-6 0.922847,-0.10904 1.176757,-0.32714 0.257157,-0.22136 0.385738,-0.55827 0.385743,-1.01075 -5e-6,-0.45572 -0.128586,-0.79101 -0.385743,-1.00586 -0.25391,-0.21809 -0.646162,-0.32714 -1.176757,-0.32714 l -1.582032,0 m 0,-2.99805 0,2.19727 1.459961,0 c 0.481767,0 0.83984,-0.0895 1.074219,-0.26856 0.237626,-0.18229 0.356441,-0.45898 0.356445,-0.83008 -4e-6,-0.36783 -0.118819,-0.6429 -0.356445,-0.82519 -0.234379,-0.18229 -0.592452,-0.27343 -1.074219,-0.27344 l -1.459961,0 m -0.986328,-0.81055 2.519532,0 c 0.751948,10e-6 1.331375,0.15626 1.738281,0.46875 0.406892,0.31251 0.610342,0.75684 0.610352,1.33301 -1e-5,0.44597 -0.10417,0.80079 -0.3125,1.06445 -0.208339,0.26368 -0.514329,0.42807 -0.917969,0.49317 0.485021,0.10417 0.860999,0.32227 1.127929,0.65429 0.27018,0.32878 0.40527,0.74057 0.40527,1.23536 0,0.65104 -0.22136,1.15397 -0.66406,1.50879 -0.442712,0.35481 -1.072594,0.53222 -1.889647,0.53222 l -2.617188,0 0,-7.29004"
       id="path7654"
       inkscape:connector-curvature="0" />
  </g>
  <g
     transform="matrix(0.28222223,0,0,0.28222223,-12.728622,-3.9511109)"
     style="font-size:10px;font-style:normal;font-weight:normal;line-height:125%;letter-spacing:0px;word-spacing:0px;fill:#000000;fill-opacity:1;stroke:none;font-family:Sans"
     id="flowRoot7063">
    <path
       d="m 96.561523,399.5798 0,2.67089 1.582032,0 c 0.530595,10e-6 0.922847,-0.10904 1.176757,-0.32714 0.257157,-0.22136 0.385738,-0.55827 0.385743,-1.01075 -5e-6,-0.45572 -0.128586,-0.79101 -0.385743,-1.00586 -0.25391,-0.21809 -0.646162,-0.32714 -1.176757,-0.32714 l -1.582032,0 m 0,-2.99805 0,2.19727 1.459961,0 c 0.481767,0 0.83984,-0.0895 1.074219,-0.26856 0.237626,-0.18229 0.356441,-0.45898 0.356445,-0.83008 -4e-6,-0.36783 -0.118819,-0.6429 -0.356445,-0.82519 -0.234379,-0.18229 -0.592452,-0.27343 -1.074219,-0.27344 l -1.459961,0 m -0.986328,-0.81055 2.519532,0 c 0.751948,10e-6 1.331375,0.15626 1.738281,0.46875 0.406892,0.31251 0.610342,0.75684 0.610352,1.33301 -1e-5,0.44597 -0.10417,0.80079 -0.3125,1.06445 -0.208339,0.26368 -0.514329,0.42807 -0.917969,0.49317 0.485021,0.10417 0.860999,0.32227 1.127929,0.65429 0.27018,0.32878 0.40527,0.74057 0.40527,1.23536 0,0.65104 -0.22136,1.15397 -0.66406,1.50879 -0.442712,0.35481 -1.072594,0.53222 -1.889647,0.53222 l -2.617188,0 0,-7.29004"
       style=""
       id="path7657" />
  </g>
  <g
     transform="matrix(0.28222223,0,0,0.28222223,-12.728622,-16.933332)"
     style="font-size:10px;font-style:normal;font-weight:normal;line-height:125%;letter-spacing:0px;word-spacing:0px;fill:#000000;fill-opacity:1;stroke:none;font-family:Sans"
     id="flowRoot7071">
    <path
       d="m 98.011719,396.74288 -1.337891,3.62793 2.680664,0 -1.342773,-3.62793 m -0.556641,-0.97168 1.118164,0 2.778318,7.29004 -1.02539,0 -0.664061,-1.87012 -3.286132,0 -0.664063,1.87012 -1.040039,0 2.783203,-7.29004"
       style=""
       id="path7660" />
  </g>
  <g
     transform="matrix(0.28222223,0,0,0.28222223,-12.728622,-29.35111)"
     style="font-size:10px;font-style:normal;font-weight:normal;line-height:125%;letter-spacing:0px;word-spacing:0px;fill:#000000;fill-opacity:1;stroke:none;font-family:Sans"
     id="flowRoot7079">
    <path
       d="m 96.561523,399.5798 0,2.67089 1.582032,0 c 0.530595,10e-6 0.922847,-0.10904 1.176757,-0.32714 0.257157,-0.22136 0.385738,-0.55827 0.385743,-1.01075 -5e-6,-0.45572 -0.128586,-0.79101 -0.385743,-1.00586 -0.25391,-0.21809 -0.646162,-0.32714 -1.176757,-0.32714 l -1.582032,0 m 0,-2.99805 0,2.19727 1.459961,0 c 0.481767,0 0.83984,-0.0895 1.074219,-0.26856 0.237626,-0.18229 0.356441,-0.45898 0.356445,-0.83008 -4e-6,-0.36783 -0.118819,-0.6429 -0.356445,-0.82519 -0.234379,-0.18229 -0.592452,-0.27343 -1.074219,-0.27344 l -1.459961,0 m -0.986328,-0.81055 2.519532,0 c 0.751948,10e-6 1.331375,0.15626 1.738281,0.46875 0.406892,0.31251 0.610342,0.75684 0.610352,1.33301 -1e-5,0.44597 -0.10417,0.80079 -0.3125,1.06445 -0.208339,0.26368 -0.514329,0.42807 -0.917969,0.49317 0.485021,0.10417 0.860999,0.32227 1.127929,0.65429 0.27018,0.32878 0.40527,0.74057 0.40527,1.23536 0,0.65104 -0.22136,1.15397 -0.66406,1.50879 -0.442712,0.35481 -1.072594,0.53222 -1.889647,0.53222 l -2.617188,0 0,-7.29004"
       style=""
       id="path7663" />
  </g>
  <g
     transform="matrix(0.28222223,0,0,0.28222223,-12.728622,-42.333332)"
     style="font-size:10px;font-style:normal;font-weight:normal;line-height:125%;letter-spacing:0px;word-spacing:0px;fill:#000000;fill-opacity:1;stroke:none;font-family:Sans"
     id="flowRoot7087">
    <path
       d="m 98.011719,396.74288 -1.337891,3.62793 2.680664,0 -1.342773,-3.62793 m -0.556641,-0.97168 1.118164,0 2.778318,7.29004 -1.02539,0 -0.664061,-1.87012 -3.286132,0 -0.664063,1.87012 -1.040039,0 2.783203,-7.29004"
       style=""
       id="path7666" />
  </g>
  <g
     transform="matrix(0.28222223,0,0,0.28222223,-12.728622,-54.75111)"
     style="font-size:10px;font-style:normal;font-weight:normal;line-height:125%;letter-spacing:0px;word-spacing:0px;fill:#000000;fill-opacity:1;stroke:none;font-family:Sans"
     id="flowRoot7095">
    <path
       d="m 98.373047,396.63058 -2.490235,3.8916 2.490235,0 0,-3.8916 m -0.258789,-0.85938 1.240234,0 0,4.75098 1.040038,0 0,0.82031 -1.040038,0 0,1.71875 -0.981445,0 0,-1.71875 -3.291016,0 0,-0.95215 3.032227,-4.61914"
       style=""
       id="path7669" />
  </g>
  <g
     transform="matrix(0.28222223,0,0,0.28222223,-12.728622,-67.733332)"
     style="font-size:10px;font-style:normal;font-weight:normal;line-height:125%;letter-spacing:0px;word-spacing:0px;fill:#000000;fill-opacity:1;stroke:none;font-family:Sans"
     id="flowRoot7103">
    <path
       d="m 98.651367,399.13058 c 0.472001,0.10091 0.839839,0.31087 1.103516,0.62988 0.266917,0.31901 0.400387,0.71289 0.400387,1.18164 0,0.7194 -0.247398,1.27604 -0.742184,1.66992 -0.494796,0.39388 -1.19792,0.59082 -2.109375,0.59082 -0.305992,0 -0.621747,-0.0309 -0.947266,-0.0928 -0.322267,-0.0586 -0.655925,-0.14811 -1.000976,-0.26855 l 0,-0.95215 c 0.273436,0.1595 0.572915,0.27995 0.898437,0.36132 0.325519,0.0814 0.665688,0.12208 1.020508,0.12208 0.618486,0 1.088863,-0.12207 1.411133,-0.36622 0.325516,-0.24414 0.488277,-0.59895 0.488281,-1.06445 -4e-6,-0.42968 -0.151371,-0.76497 -0.454101,-1.00586 -0.299483,-0.24414 -0.717777,-0.36621 -1.254883,-0.36621 l -0.84961,0 0,-0.81055 0.888672,0 c 0.485023,1e-5 0.856116,-0.096 1.113281,-0.28808 0.257158,-0.19531 0.385738,-0.47526 0.385743,-0.83985 -5e-6,-0.37434 -0.133468,-0.6608 -0.400391,-0.85937 -0.263676,-0.20182 -0.642907,-0.30273 -1.137695,-0.30274 -0.270185,10e-6 -0.559898,0.0293 -0.869141,0.0879 -0.309246,0.0586 -0.649415,0.14974 -1.020508,0.27343 l 0,-0.8789 c 0.374348,-0.10416 0.724282,-0.18229 1.049805,-0.23438 0.328774,-0.0521 0.638018,-0.0781 0.927734,-0.0781 0.748695,0 1.341142,0.1709 1.777344,0.51269 0.436193,0.33855 0.654292,0.79753 0.654297,1.37696 -5e-6,0.40365 -0.115565,0.74544 -0.34668,1.02539 -0.231124,0.27669 -0.5599,0.46875 -0.986328,0.57617"
       style=""
       id="path7672" />
  </g>
  <g
     transform="matrix(0.28222223,0,0,0.28222223,-12.728622,-80.15111)"
     style="font-size:10px;font-style:normal;font-weight:normal;line-height:125%;letter-spacing:0px;word-spacing:0px;fill:#000000;fill-opacity:1;stroke:none;font-family:Sans"
     id="flowRoot7111">
    <path
       d="m 96.512695,402.23116 3.442383,0 0,0.83008 -4.628906,0 0,-0.83008 c 0.374348,-0.38737 0.883787,-0.90657 1.52832,-1.55761 0.647784,-0.6543 1.054684,-1.07585 1.220703,-1.26465 0.315752,-0.35482 0.535478,-0.65429 0.65918,-0.89844 0.126949,-0.24739 0.190425,-0.4899 0.19043,-0.72754 -5e-6,-0.38736 -0.136723,-0.70312 -0.410157,-0.94726 -0.270186,-0.24414 -0.623375,-0.36621 -1.05957,-0.36622 -0.309247,10e-6 -0.636395,0.0537 -0.981445,0.16114 -0.341799,0.10743 -0.708009,0.27019 -1.098633,0.48828 l 0,-0.99609 c 0.397134,-0.1595 0.768228,-0.27995 1.113281,-0.36133 0.34505,-0.0814 0.660805,-0.12207 0.947266,-0.12207 0.755205,0 1.357418,0.18881 1.80664,0.5664 0.449214,0.37761 0.673823,0.88217 0.673829,1.51367 -6e-6,0.29949 -0.05697,0.58432 -0.170899,0.8545 -0.110682,0.26693 -0.314132,0.58268 -0.610351,0.94726 -0.08138,0.0944 -0.340174,0.36784 -0.776368,0.82032 -0.436201,0.44922 -1.051435,1.0791 -1.845703,1.88964"
       style=""
       id="path7675" />
  </g>
  <g
     transform="matrix(0.28222223,0,0,0.28222223,-12.728622,-93.133332)"
     style="font-size:10px;font-style:normal;font-weight:normal;line-height:125%;letter-spacing:0px;word-spacing:0px;fill:#000000;fill-opacity:1;stroke:none;font-family:Sans"
     id="flowRoot7119">
    <path
       d="m 95.833984,402.23116 1.611328,0 0,-5.56152 -1.752929,0.35156 0,-0.89843 1.743164,-0.35157 0.986328,0 0,6.45996 1.611325,0 0,0.83008 -4.199216,0 0,-0.83008"
       style=""
       id="path7678" />
  </g>
  <g
     transform="matrix(0.28222223,0,0,0.28222223,-20.994935,-10.159999)"
     style="font-size:10px;font-style:normal;font-weight:normal;line-height:125%;letter-spacing:0px;word-spacing:0px;fill:#000000;fill-opacity:1;stroke:none;font-family:Sans"
     id="flowRoot7127">
    <path
       d="m 98.53418,396.44015 c -0.716149,0 -1.28581,0.26693 -1.708985,0.80078 -0.419923,0.53386 -0.629884,1.2614 -0.629883,2.18262 -10e-7,0.91797 0.20996,1.64388 0.629883,2.17773 0.423175,0.53386 0.992836,0.80078 1.708985,0.80078 0.716141,0 1.282547,-0.26692 1.69922,-0.80078 0.41991,-0.53385 0.62987,-1.25976 0.62988,-2.17773 -1e-5,-0.92122 -0.20997,-1.64876 -0.62988,-2.18262 -0.416673,-0.53385 -0.983079,-0.80078 -1.69922,-0.80078 m 0,-0.80078 c 1.02213,0 1.83919,0.34343 2.45117,1.03027 0.61197,0.6836 0.91796,1.60157 0.91797,2.75391 -10e-6,1.14909 -0.306,2.06706 -0.91797,2.7539 -0.61198,0.6836 -1.42904,1.02539 -2.45117,1.02539 -1.025394,0 -1.845706,-0.34179 -2.460938,-1.02539 -0.61198,-0.68359 -0.917969,-1.60156 -0.917969,-2.7539 0,-1.15234 0.305989,-2.07031 0.917969,-2.75391 0.615232,-0.68684 1.435544,-1.03027 2.460938,-1.03027"
       style=""
       id="path7681" />
    <path
       d="m 103.33398,395.7712 0.99122,0 0,4.42871 c -10e-6,0.78126 0.14159,1.34441 0.4248,1.68946 0.2832,0.34179 0.74218,0.51269 1.37695,0.51269 0.63151,0 1.08887,-0.1709 1.37207,-0.51269 0.2832,-0.34505 0.4248,-0.9082 0.42481,-1.68946 l 0,-4.42871 0.99121,0 0,4.55078 c -1e-5,0.95053 -0.23601,1.6683 -0.70801,2.15332 -0.46875,0.48503 -1.16211,0.72754 -2.08008,0.72754 -0.92122,0 -1.61784,-0.24251 -2.08984,-0.72754 -0.46875,-0.48502 -0.70313,-1.20279 -0.70313,-2.15332 l 0,-4.55078"
       style=""
       id="path7683" />
    <path
       d="m 109.75977,395.7712 6.16699,0 0,0.83008 -2.58789,0 0,6.45996 -0.99121,0 0,-6.45996 -2.58789,0 0,-0.83008"
       style=""
       id="path7685" />
  </g>
  <g
     transform="matrix(0.28222223,0,0,0.28222223,-19.937935,-35.65981)"
     style="font-size:10px;font-style:normal;font-weight:normal;line-height:125%;letter-spacing:0px;word-spacing:0px;fill:#000000;fill-opacity:1;stroke:none;font-family:Sans"
     id="flowRoot7135">
    <path
       d="m 101.03418,396.33273 0,1.04004 c -0.33204,-0.30924 -0.68686,-0.54036 -1.064453,-0.69336 -0.374354,-0.15299 -0.773117,-0.22949 -1.19629,-0.2295 -0.833336,1e-5 -1.471356,0.25554 -1.914062,0.76661 -0.44271,0.50781 -0.664064,1.24349 -0.664063,2.20703 -10e-7,0.96029 0.221353,1.69596 0.664063,2.20703 0.442706,0.50781 1.080726,0.76172 1.914062,0.76172 0.423173,0 0.821936,-0.0765 1.19629,-0.2295 0.377593,-0.15299 0.732413,-0.38411 1.064453,-0.69336 l 0,1.03028 c -0.34506,0.23437 -0.71127,0.41015 -1.098633,0.52734 -0.38412,0.11719 -0.79102,0.17578 -1.220703,0.17578 -1.103519,0 -1.972659,-0.33691 -2.607422,-1.01074 -0.634767,-0.67708 -0.952149,-1.59993 -0.952149,-2.76855 0,-1.17187 0.317382,-2.09472 0.952149,-2.76856 0.634763,-0.67707 1.503903,-1.01562 2.607422,-1.01562 0.436193,0 0.846349,0.0586 1.230468,0.17578 0.387368,0.11394 0.750318,0.28646 1.088868,0.51758"
       style=""
       id="path7688" />
    <path
       d="m 104.44727,403.06124 -2.78321,-7.29004 1.03028,0 2.30957,6.1377 2.31445,-6.1377 1.02539,0 -2.77832,7.29004 -1.11816,0"
       style=""
       id="path7690" />
  </g>
  <g
     id="g10272"
     style="fill:none;stroke:#000000;stroke-width:0.1"
     transform="translate(4.5274405e-5,1.8682809e-5)">
    <rect
       id="rect10274"
       height="128.5"
       width="70.800003"
       y="0"
       x="0" />
    <circle
       id="circle10276"
       r="1.6"
       cy="3"
       cx="7.5"
       sodipodi:cx="7.5"
       sodipodi:cy="3"
       sodipodi:rx="1.6"
       sodipodi:ry="1.6"
       d="M 9.1,3 C 9.1,3.8836556 8.3836556,4.6 7.5,4.6 6.6163444,4.6 5.9,3.8836556 5.9,3 5.9,2.1163444 6.6163444,1.4 7.5,1.4 8.3836556,1.4 9.1,2.1163444 9.1,3 z" />
    <circle
       id="circle10278"
       r="1.6"
       cy="125.5"
       cx="7.5"
       sodipodi:cx="7.5"
       sodipodi:cy="125.5"
       sodipodi:rx="1.6"
       sodipodi:ry="1.6"
       d="m 9.1,125.5 c 0,0.88366 -0.7163444,1.6 -1.6,1.6 -0.8836556,0 -1.6,-0.71634 -1.6,-1.6 0,-0.88366 0.7163444,-1.6 1.6,-1.6 0.8836556,0 1.6,0.71634 1.6,1.6 z" />
    <circle
       id="circle10280"
       r="1.6"
       cy="3"
       cx="63.380001"
       sodipodi:cx="63.380001"
       sodipodi:cy="3"
       sodipodi:rx="1.6"
       sodipodi:ry="1.6"
       d="m 64.980001,3 c 0,0.8836556 -0.716344,1.6 -1.6,1.6 -0.883656,0 -1.6,-0.7163444 -1.6,-1.6 0,-0.8836556 0.716344,-1.6 1.6,-1.6 0.883656,0 1.6,0.7163444 1.6,1.6 z" />
    <circle
       id="circle10282"
       r="1.6"
       cy="125.5"
       cx="63.380001"
       sodipodi:cx="63.380001"
       sodipodi:cy="125.5"
       sodipodi:rx="1.6"
       sodipodi:ry="1.6"
       d="m 64.980001,125.5 c 0,0.88366 -0.716344,1.6 -1.6,1.6 -0.883656,0 -1.6,-0.71634 -1.6,-1.6 0,-0.88366 0.716344,-1.6 1.6,-1.6 0.883656,0 1.6,0.71634 1.6,1.6 z" />
    <path
       id="path10284"
       inkscape:connector-curvature="0"
       style="fill:none;stroke:#000000;stroke-width:0.09990668"
       d="m 32.86,15.05 c -2.622019,0 -4.754697,2.123364 -4.754697,4.745368 0,2.143796 1.426195,3.960351 3.377601,4.54998 l 0,2.679746 2.642536,0 0,-2.651834 c 2.003484,-0.55658 3.479956,-2.397067 3.479956,-4.577892 C 37.605396,17.173364 35.482027,15.05 32.86,15.05 z" />
    <g
       id="g10286"
       style="fill:none;stroke:#000000;stroke-width:0.237;stroke-miterlimit:4;stroke-opacity:1;stroke-dasharray:none"
       transform="translate(32.86,19.8)">
      <path
         id="path10288"
         style="fill:none;stroke:#030303;stroke-width:0.1411"
         d="M -4.2037748,7.5814929 C -6.8346316,6.1114925 -8.6120123,3.3014922 -8.6120123,0.07148931 c 0,-4.75000381 3.8628404,-8.61000481 8.6282233,-8.61000481 4.764047,0 8.627555,3.8600011 8.627555,8.61000481 0,3.23000299 -1.780051,6.04000329 -4.414579,7.52000359"
         inkscape:connector-curvature="0" />
      <path
         id="path10290"
         d="m -2.440413,-9.0485165 0.216323,0.810001"
         style="fill:none;stroke:#030303;stroke-width:0.21170001"
         inkscape:connector-curvature="0" />
      <path
         id="path10292"
         d="m -5.1129926,-8.7785155 0.8080822,1.4000001"
         style="fill:none;stroke:#030303;stroke-width:0.2832"
         inkscape:connector-curvature="0" />
      <path
         id="path10294"
         d="m -6.6800914,-6.5985155 0.5891225,0.59"
         style="fill:none;stroke:#030303;stroke-width:0.21170001"
         inkscape:connector-curvature="0" />
      <path
         id="path10296"
         d="m -8.8466601,-5.0285155 1.3848552,0.8000013"
         style="fill:none;stroke:#030303;stroke-width:0.2832"
         inkscape:connector-curvature="0" />
      <path
         id="path10298"
         d="m -9.1267017,-2.3685125 0.8044106,0.2200004"
         style="fill:none;stroke:#030303;stroke-width:0.21170001"
         inkscape:connector-curvature="0" />
      <path
         id="path10300"
         d="m -10.221501,0.08148931 1.6061507,0"
         style="fill:none;stroke:#030303;stroke-width:0.2832"
         inkscape:connector-curvature="0" />
      <path
         id="path10302"
         d="M -9.1243652,2.5214918 -8.3199546,2.3014913"
         style="fill:none;stroke:#030303;stroke-width:0.21170001"
         inkscape:connector-curvature="0" />
      <path
         id="path10304"
         d="M -8.8489964,5.181492 -7.4574658,4.3814921"
         style="fill:none;stroke:#030303;stroke-width:0.2832"
         inkscape:connector-curvature="0" />
      <path
         id="path10306"
         d="m -6.6737496,6.7514925 0.5877873,-0.59"
         style="fill:none;stroke:#030303;stroke-width:0.21170001"
         inkscape:connector-curvature="0" />
      <path
         id="path10308"
         d="m -5.0742739,8.871494 0.776373,-1.3400011"
         style="fill:none;stroke:#030303;stroke-width:0.2832"
         inkscape:connector-curvature="0" />
      <path
         id="path10310"
         d="M 5.113671,8.8814939 4.329988,7.5214929"
         style="fill:none;stroke:#030303;stroke-width:0.2832"
         inkscape:connector-curvature="0" />
      <path
         id="path10312"
         d="m 6.704836,6.7414925 -0.588789,-0.58"
         style="fill:none;stroke:#030303;stroke-width:0.21170001"
         inkscape:connector-curvature="0" />
      <path
         id="path10314"
         d="m 8.846371,5.1614921 -1.360155,-0.79"
         style="fill:none;stroke:#030303;stroke-width:0.2832"
         inkscape:connector-curvature="0" />
      <path
         id="path10316"
         d="M 9.151112,2.5114918 8.347402,2.2914913"
         style="fill:none;stroke:#030303;stroke-width:0.21170001"
         inkscape:connector-curvature="0" />
      <path
         id="path10318"
         d="m 10.195511,0.07148931 -1.555417,0"
         style="fill:none;stroke:#030303;stroke-width:0.2832"
         inkscape:connector-curvature="0" />
      <path
         id="path10320"
         d="M 9.148809,-2.3785126 8.344698,-2.1585121"
         style="fill:none;stroke:#030303;stroke-width:0.21170001"
         inkscape:connector-curvature="0" />
      <path
         id="path10322"
         d="M 8.836691,-5.0185155 7.482544,-4.2385142"
         style="fill:none;stroke:#030303;stroke-width:0.2832"
         inkscape:connector-curvature="0" />
      <path
         id="path10324"
         d="m 6.699128,-6.6085155 -0.588421,0.59"
         style="fill:none;stroke:#030303;stroke-width:0.21170001"
         inkscape:connector-curvature="0" />
      <path
         id="path10326"
         d="m 5.131729,-8.7785155 -0.80875,1.39"
         style="fill:none;stroke:#030303;stroke-width:0.2832"
         inkscape:connector-curvature="0" />
      <path
         id="path10328"
         d="m 2.456813,-9.0485165 -0.215288,0.800001"
         style="fill:none;stroke:#030303;stroke-width:0.21170001"
         inkscape:connector-curvature="0" />
      <path
         id="path10330"
         d="m 0.007833,-10.128517 0,1.5900015"
         style="fill:none;stroke:#030303;stroke-width:0.2832"
         inkscape:connector-curvature="0" />
    </g>
    <path
       id="path10332"
       inkscape:connector-curvature="0"
       style="fill:none;stroke:#000000;stroke-width:0.09990668"
       d="m 58.26,15.05 c -2.622019,0 -4.754697,2.123364 -4.754697,4.745368 0,2.143796 1.426195,3.960351 3.377601,4.54998 l 0,2.679746 2.642536,0 0,-2.651834 c 2.003484,-0.55658 3.479956,-2.397067 3.479956,-4.577892 C 63.005396,17.173364 60.882027,15.05 58.26,15.05 z" />
    <g
       id="g10334"
       style="fill:none;stroke:#000000;stroke-width:0.237;stroke-miterlimit:4;stroke-opacity:1;stroke-dasharray:none"
       transform="translate(58.26,19.8)">
      <path
         id="path10336"
         style="fill:none;stroke:#030303;stroke-width:0.1411"
         d="M -4.2037748,7.5814929 C -6.8346316,6.1114925 -8.6120123,3.3014922 -8.6120123,0.07148931 c 0,-4.75000381 3.8628404,-8.61000481 8.6282233,-8.61000481 4.764047,0 8.627555,3.8600011 8.627555,8.61000481 0,3.23000299 -1.780051,6.04000329 -4.414579,7.52000359"
         inkscape:connector-curvature="0" />
      <path
         id="path10338"
         d="m -2.440413,-9.0485165 0.216323,0.810001"
         style="fill:none;stroke:#030303;stroke-width:0.21170001"
         inkscape:connector-curvature="0" />
      <path
         id="path10340"
         d="m -5.1129926,-8.7785155 0.8080822,1.4000001"
         style="fill:none;stroke:#030303;stroke-width:0.2832"
         inkscape:connector-curvature="0" />
      <path
         id="path10342"
         d="m -6.6800914,-6.5985155 0.5891225,0.59"
         style="fill:none;stroke:#030303;stroke-width:0.21170001"
         inkscape:connector-curvature="0" />
      <path
         id="path10344"
         d="m -8.8466601,-5.0285155 1.3848552,0.8000013"
         style="fill:none;stroke:#030303;stroke-width:0.2832"
         inkscape:connector-curvature="0" />
      <path
         id="path10346"
         d="m -9.1267017,-2.3685125 0.8044106,0.2200004"
         style="fill:none;stroke:#030303;stroke-width:0.21170001"
         inkscape:connector-curvature="0" />
      <path
         id="path10348"
         d="m -10.221501,0.08148931 1.6061507,0"
         style="fill:none;stroke:#030303;stroke-width:0.2832"
         inkscape:connector-curvature="0" />
      <path
         id="path10350"
         d="M -9.1243652,2.5214918 -8.3199546,2.3014913"
         style="fill:none;stroke:#030303;stroke-width:0.21170001"
         inkscape:connector-curvature="0" />
      <path
         id="path10352"
         d="M -8.8489964,5.181492 -7.4574658,4.3814921"
         style="fill:none;stroke:#030303;stroke-width:0.2832"
         inkscape:connector-curvature="0" />
      <path
         id="path10354"
         d="m -6.6737496,6.7514925 0.5877873,-0.59"
         style="fill:none;stroke:#030303;stroke-width:0.21170001"
         inkscape:connector-curvature="0" />
      <path
         id="path10356"
         d="m -5.0742739,8.871494 0.776373,-1.3400011"
         style="fill:none;stroke:#030303;stroke-width:0.2832"
         inkscape:connector-curvature="0" />
      <path
         id="path10358"
         d="M 5.113671,8.8814939 4.329988,7.5214929"
         style="fill:none;stroke:#030303;stroke-width:0.2832"
         inkscape:connector-curvature="0" />
      <path
         id="path10360"
         d="m 6.704836,6.7414925 -0.588789,-0.58"
         style="fill:none;stroke:#030303;stroke-width:0.21170001"
         inkscape:connector-curvature="0" />
      <path
         id="path10362"
         d="m 8.846371,5.1614921 -1.360155,-0.79"
         style="fill:none;stroke:#030303;stroke-width:0.2832"
         inkscape:connector-curvature="0" />
      <path
         id="path10364"
         d="M 9.151112,2.5114918 8.347402,2.2914913"
         style="fill:none;stroke:#030303;stroke-width:0.21170001"
         inkscape:connector-curvature="0" />
      <path
         id="path10366"
         d="m 10.195511,0.07148931 -1.555417,0"
         style="fill:none;stroke:#030303;stroke-width:0.2832"
         inkscape:connector-curvature="0" />
      <path
         id="path10368"
         d="M 9.148809,-2.3785126 8.344698,-2.1585121"
         style="fill:none;stroke:#030303;stroke-width:0.21170001"
         inkscape:connector-curvature="0" />
      <path
         id="path10370"
         d="M 8.836691,-5.0185155 7.482544,-4.2385142"
         style="fill:none;stroke:#030303;stroke-width:0.2832"
         inkscape:connector-curvature="0" />
      <path
         id="path10372"
         d="m 6.699128,-6.6085155 -0.588421,0.59"
         style="fill:none;stroke:#030303;stroke-width:0.21170001"
         inkscape:connector-curvature="0" />
      <path
         id="path10374"
         d="m 5.131729,-8.7785155 -0.80875,1.39"
         style="fill:none;stroke:#030303;stroke-width:0.2832"
         inkscape:connector-curvature="0" />
      <path
         id="path10376"
         d="m 2.456813,-9.0485165 -0.215288,0.800001"
         style="fill:none;stroke:#030303;stroke-width:0.21170001"
         inkscape:connector-curvature="0" />
      <path
         id="path10378"
         d="m 0.007833,-10.128517 0,1.5900015"
         style="fill:none;stroke:#030303;stroke-width:0.2832"
         inkscape:connector-curvature="0" />
    </g>
    <path
       id="path10380"
       inkscape:connector-curvature="0"
       style="fill:none;stroke:#000000;stroke-width:0.09990668"
       d="m 32.86,34.1 c -2.622019,0 -4.754697,2.123364 -4.754697,4.745368 0,2.143796 1.426195,3.960351 3.377601,4.54998 l 0,2.679746 2.642536,0 0,-2.651834 c 2.003484,-0.55658 3.479956,-2.397067 3.479956,-4.577892 C 37.605396,36.223364 35.482027,34.1 32.86,34.1 z" />
    <g
       id="g10382"
       style="fill:none;stroke:#000000;stroke-width:0.237;stroke-miterlimit:4;stroke-opacity:1;stroke-dasharray:none"
       transform="translate(32.86,38.85)">
      <path
         id="path10384"
         style="fill:none;stroke:#030303;stroke-width:0.1411"
         d="M -4.2037748,7.5814929 C -6.8346316,6.1114925 -8.6120123,3.3014922 -8.6120123,0.07148931 c 0,-4.75000381 3.8628404,-8.61000481 8.6282233,-8.61000481 4.764047,0 8.627555,3.8600011 8.627555,8.61000481 0,3.23000299 -1.780051,6.04000329 -4.414579,7.52000359"
         inkscape:connector-curvature="0" />
      <path
         id="path10386"
         d="m -2.440413,-9.0485165 0.216323,0.810001"
         style="fill:none;stroke:#030303;stroke-width:0.21170001"
         inkscape:connector-curvature="0" />
      <path
         id="path10388"
         d="m -5.1129926,-8.7785155 0.8080822,1.4000001"
         style="fill:none;stroke:#030303;stroke-width:0.2832"
         inkscape:connector-curvature="0" />
      <path
         id="path10390"
         d="m -6.6800914,-6.5985155 0.5891225,0.59"
         style="fill:none;stroke:#030303;stroke-width:0.21170001"
         inkscape:connector-curvature="0" />
      <path
         id="path10392"
         d="m -8.8466601,-5.0285155 1.3848552,0.8000013"
         style="fill:none;stroke:#030303;stroke-width:0.2832"
         inkscape:connector-curvature="0" />
      <path
         id="path10394"
         d="m -9.1267017,-2.3685125 0.8044106,0.2200004"
         style="fill:none;stroke:#030303;stroke-width:0.21170001"
         inkscape:connector-curvature="0" />
      <path
         id="path10396"
         d="m -10.221501,0.08148931 1.6061507,0"
         style="fill:none;stroke:#030303;stroke-width:0.2832"
         inkscape:connector-curvature="0" />
      <path
         id="path10398"
         d="M -9.1243652,2.5214918 -8.3199546,2.3014913"
         style="fill:none;stroke:#030303;stroke-width:0.21170001"
         inkscape:connector-curvature="0" />
      <path
         id="path10400"
         d="M -8.8489964,5.181492 -7.4574658,4.3814921"
         style="fill:none;stroke:#030303;stroke-width:0.2832"
         inkscape:connector-curvature="0" />
      <path
         id="path10402"
         d="m -6.6737496,6.7514925 0.5877873,-0.59"
         style="fill:none;stroke:#030303;stroke-width:0.21170001"
         inkscape:connector-curvature="0" />
      <path
         id="path10404"
         d="m -5.0742739,8.871494 0.776373,-1.3400011"
         style="fill:none;stroke:#030303;stroke-width:0.2832"
         inkscape:connector-curvature="0" />
      <path
         id="path10406"
         d="M 5.113671,8.8814939 4.329988,7.5214929"
         style="fill:none;stroke:#030303;stroke-width:0.2832"
         inkscape:connector-curvature="0" />
      <path
         id="path10408"
         d="m 6.704836,6.7414925 -0.588789,-0.58"
         style="fill:none;stroke:#030303;stroke-width:0.21170001"
         inkscape:connector-curvature="0" />
      <path
         id="path10410"
         d="m 8.846371,5.1614921 -1.360155,-0.79"
         style="fill:none;stroke:#030303;stroke-width:0.2832"
         inkscape:connector-curvature="0" />
      <path
         id="path10412"
         d="M 9.151112,2.5114918 8.347402,2.2914913"
         style="fill:none;stroke:#030303;stroke-width:0.21170001"
         inkscape:connector-curvature="0" />
      <path
         id="path10414"
         d="m 10.195511,0.07148931 -1.555417,0"
         style="fill:none;stroke:#030303;stroke-width:0.2832"
         inkscape:connector-curvature="0" />
      <path
         id="path10416"
         d="M 9.148809,-2.3785126 8.344698,-2.1585121"
         style="fill:none;stroke:#030303;stroke-width:0.21170001"
         inkscape:connector-curvature="0" />
      <path
         id="path10418"
         d="M 8.836691,-5.0185155 7.482544,-4.2385142"
         style="fill:none;stroke:#030303;stroke-width:0.2832"
         inkscape:connector-curvature="0" />
      <path
         id="path10420"
         d="m 6.699128,-6.6085155 -0.588421,0.59"
         style="fill:none;stroke:#030303;stroke-width:0.21170001"
         inkscape:connector-curvature="0" />
      <path
         id="path10422"
         d="m 5.131729,-8.7785155 -0.80875,1.39"
         style="fill:none;stroke:#030303;stroke-width:0.2832"
         inkscape:connector-curvature="0" />
      <path
         id="path10424"
         d="m 2.456813,-9.0485165 -0.215288,0.800001"
         style="fill:none;stroke:#030303;stroke-width:0.21170001"
         inkscape:connector-curvature="0" />
      <path
         id="path10426"
         d="m 0.007833,-10.128517 0,1.5900015"
         style="fill:none;stroke:#030303;stroke-width:0.2832"
         inkscape:connector-curvature="0" />
    </g>
    <path
       id="path10428"
       inkscape:connector-curvature="0"
       style="fill:none;stroke:#000000;stroke-width:0.09990668"
       d="m 58.26,34.1 c -2.622019,0 -4.754697,2.123364 -4.754697,4.745368 0,2.143796 1.426195,3.960351 3.377601,4.54998 l 0,2.679746 2.642536,0 0,-2.651834 c 2.003484,-0.55658 3.479956,-2.397067 3.479956,-4.577892 C 63.005396,36.223364 60.882027,34.1 58.26,34.1 z" />
    <g
       id="g10430"
       style="fill:none;stroke:#000000;stroke-width:0.237;stroke-miterlimit:4;stroke-opacity:1;stroke-dasharray:none"
       transform="translate(58.26,38.85)">
      <path
         id="path10432"
         style="fill:none;stroke:#030303;stroke-width:0.1411"
         d="M -4.2037748,7.5814929 C -6.8346316,6.1114925 -8.6120123,3.3014922 -8.6120123,0.07148931 c 0,-4.75000381 3.8628404,-8.61000481 8.6282233,-8.61000481 4.764047,0 8.627555,3.8600011 8.627555,8.61000481 0,3.23000299 -1.780051,6.04000329 -4.414579,7.52000359"
         inkscape:connector-curvature="0" />
      <path
         id="path10434"
         d="m -2.440413,-9.0485165 0.216323,0.810001"
         style="fill:none;stroke:#030303;stroke-width:0.21170001"
         inkscape:connector-curvature="0" />
      <path
         id="path10436"
         d="m -5.1129926,-8.7785155 0.8080822,1.4000001"
         style="fill:none;stroke:#030303;stroke-width:0.2832"
         inkscape:connector-curvature="0" />
      <path
         id="path10438"
         d="m -6.6800914,-6.5985155 0.5891225,0.59"
         style="fill:none;stroke:#030303;stroke-width:0.21170001"
         inkscape:connector-curvature="0" />
      <path
         id="path10440"
         d="m -8.8466601,-5.0285155 1.3848552,0.8000013"
         style="fill:none;stroke:#030303;stroke-width:0.2832"
         inkscape:connector-curvature="0" />
      <path
         id="path10442"
         d="m -9.1267017,-2.3685125 0.8044106,0.2200004"
         style="fill:none;stroke:#030303;stroke-width:0.21170001"
         inkscape:connector-curvature="0" />
      <path
         id="path10444"
         d="m -10.221501,0.08148931 1.6061507,0"
         style="fill:none;stroke:#030303;stroke-width:0.2832"
         inkscape:connector-curvature="0" />
      <path
         id="path10446"
         d="M -9.1243652,2.5214918 -8.3199546,2.3014913"
         style="fill:none;stroke:#030303;stroke-width:0.21170001"
         inkscape:connector-curvature="0" />
      <path
         id="path10448"
         d="M -8.8489964,5.181492 -7.4574658,4.3814921"
         style="fill:none;stroke:#030303;stroke-width:0.2832"
         inkscape:connector-curvature="0" />
      <path
         id="path10450"
         d="m -6.6737496,6.7514925 0.5877873,-0.59"
         style="fill:none;stroke:#030303;stroke-width:0.21170001"
         inkscape:connector-curvature="0" />
      <path
         id="path10452"
         d="m -5.0742739,8.871494 0.776373,-1.3400011"
         style="fill:none;stroke:#030303;stroke-width:0.2832"
         inkscape:connector-curvature="0" />
      <path
         id="path10454"
         d="M 5.113671,8.8814939 4.329988,7.5214929"
         style="fill:none;stroke:#030303;stroke-width:0.2832"
         inkscape:connector-curvature="0" />
      <path
         id="path10456"
         d="m 6.704836,6.7414925 -0.588789,-0.58"
         style="fill:none;stroke:#030303;stroke-width:0.21170001"
         inkscape:connector-curvature="0" />
      <path
         id="path10458"
         d="m 8.846371,5.1614921 -1.360155,-0.79"
         style="fill:none;stroke:#030303;stroke-width:0.2832"
         inkscape:connector-curvature="0" />
      <path
         id="path10460"
         d="M 9.151112,2.5114918 8.347402,2.2914913"
         style="fill:none;stroke:#030303;stroke-width:0.21170001"
         inkscape:connector-curvature="0" />
      <path
         id="path10462"
         d="m 10.195511,0.07148931 -1.555417,0"
         style="fill:none;stroke:#030303;stroke-width:0.2832"
         inkscape:connector-curvature="0" />
      <path
         id="path10464"
         d="M 9.148809,-2.3785126 8.344698,-2.1585121"
         style="fill:none;stroke:#030303;stroke-width:0.21170001"
         inkscape:connector-curvature="0" />
      <path
         id="path10466"
         d="M 8.836691,-5.0185155 7.482544,-4.2385142"
         style="fill:none;stroke:#030303;stroke-width:0.2832"
         inkscape:connector-curvature="0" />
      <path
         id="path10468"
         d="m 6.699128,-6.6085155 -0.588421,0.59"
         style="fill:none;stroke:#030303;stroke-width:0.21170001"
         inkscape:connector-curvature="0" />
      <path
         id="path10470"
         d="m 5.131729,-8.7785155 -0.80875,1.39"
         style="fill:none;stroke:#030303;stroke-width:0.2832"
         inkscape:connector-curvature="0" />
      <path
         id="path10472"
         d="m 2.456813,-9.0485165 -0.215288,0.800001"
         style="fill:none;stroke:#030303;stroke-width:0.21170001"
         inkscape:connector-curvature="0" />
      <path
         id="path10474"
         d="m 0.007833,-10.128517 0,1.5900015"
         style="fill:none;stroke:#030303;stroke-width:0.2832"
         inkscape:connector-curvature="0" />
    </g>
    <path
       id="path10476"
       inkscape:connector-curvature="0"
       style="fill:none;stroke:#000000;stroke-width:0.09990668"
       d="m 32.86,53.15 c -2.622019,0 -4.754697,2.123364 -4.754697,4.745368 0,2.143796 1.426195,3.960351 3.377601,4.54998 l 0,2.679746 2.642536,0 0,-2.651834 c 2.003484,-0.55658 3.479956,-2.397067 3.479956,-4.577892 C 37.605396,55.273364 35.482027,53.15 32.86,53.15 z" />
    <g
       id="g10478"
       style="fill:none;stroke:#000000;stroke-width:0.237;stroke-miterlimit:4;stroke-opacity:1;stroke-dasharray:none"
       transform="translate(32.86,57.9)">
      <path
         id="path10480"
         style="fill:none;stroke:#030303;stroke-width:0.1411"
         d="M -4.2037748,7.5814929 C -6.8346316,6.1114925 -8.6120123,3.3014922 -8.6120123,0.07148931 c 0,-4.75000381 3.8628404,-8.61000481 8.6282233,-8.61000481 4.764047,0 8.627555,3.8600011 8.627555,8.61000481 0,3.23000299 -1.780051,6.04000329 -4.414579,7.52000359"
         inkscape:connector-curvature="0" />
      <path
         id="path10482"
         d="m -2.440413,-9.0485165 0.216323,0.810001"
         style="fill:none;stroke:#030303;stroke-width:0.21170001"
         inkscape:connector-curvature="0" />
      <path
         id="path10484"
         d="m -5.1129926,-8.7785155 0.8080822,1.4000001"
         style="fill:none;stroke:#030303;stroke-width:0.2832"
         inkscape:connector-curvature="0" />
      <path
         id="path10486"
         d="m -6.6800914,-6.5985155 0.5891225,0.59"
         style="fill:none;stroke:#030303;stroke-width:0.21170001"
         inkscape:connector-curvature="0" />
      <path
         id="path10488"
         d="m -8.8466601,-5.0285155 1.3848552,0.8000013"
         style="fill:none;stroke:#030303;stroke-width:0.2832"
         inkscape:connector-curvature="0" />
      <path
         id="path10490"
         d="m -9.1267017,-2.3685125 0.8044106,0.2200004"
         style="fill:none;stroke:#030303;stroke-width:0.21170001"
         inkscape:connector-curvature="0" />
      <path
         id="path10492"
         d="m -10.221501,0.08148931 1.6061507,0"
         style="fill:none;stroke:#030303;stroke-width:0.2832"
         inkscape:connector-curvature="0" />
      <path
         id="path10494"
         d="M -9.1243652,2.5214918 -8.3199546,2.3014913"
         style="fill:none;stroke:#030303;stroke-width:0.21170001"
         inkscape:connector-curvature="0" />
      <path
         id="path10496"
         d="M -8.8489964,5.181492 -7.4574658,4.3814921"
         style="fill:none;stroke:#030303;stroke-width:0.2832"
         inkscape:connector-curvature="0" />
      <path
         id="path10498"
         d="m -6.6737496,6.7514925 0.5877873,-0.59"
         style="fill:none;stroke:#030303;stroke-width:0.21170001"
         inkscape:connector-curvature="0" />
      <path
         id="path10500"
         d="m -5.0742739,8.871494 0.776373,-1.3400011"
         style="fill:none;stroke:#030303;stroke-width:0.2832"
         inkscape:connector-curvature="0" />
      <path
         id="path10502"
         d="M 5.113671,8.8814939 4.329988,7.5214929"
         style="fill:none;stroke:#030303;stroke-width:0.2832"
         inkscape:connector-curvature="0" />
      <path
         id="path10504"
         d="m 6.704836,6.7414925 -0.588789,-0.58"
         style="fill:none;stroke:#030303;stroke-width:0.21170001"
         inkscape:connector-curvature="0" />
      <path
         id="path10506"
         d="m 8.846371,5.1614921 -1.360155,-0.79"
         style="fill:none;stroke:#030303;stroke-width:0.2832"
         inkscape:connector-curvature="0" />
      <path
         id="path10508"
         d="M 9.151112,2.5114918 8.347402,2.2914913"
         style="fill:none;stroke:#030303;stroke-width:0.21170001"
         inkscape:connector-curvature="0" />
      <path
         id="path10510"
         d="m 10.195511,0.07148931 -1.555417,0"
         style="fill:none;stroke:#030303;stroke-width:0.2832"
         inkscape:connector-curvature="0" />
      <path
         id="path10512"
         d="M 9.148809,-2.3785126 8.344698,-2.1585121"
         style="fill:none;stroke:#030303;stroke-width:0.21170001"
         inkscape:connector-curvature="0" />
      <path
         id="path10514"
         d="M 8.836691,-5.0185155 7.482544,-4.2385142"
         style="fill:none;stroke:#030303;stroke-width:0.2832"
         inkscape:connector-curvature="0" />
      <path
         id="path10516"
         d="m 6.699128,-6.6085155 -0.588421,0.59"
         style="fill:none;stroke:#030303;stroke-width:0.21170001"
         inkscape:connector-curvature="0" />
      <path
         id="path10518"
         d="m 5.131729,-8.7785155 -0.80875,1.39"
         style="fill:none;stroke:#030303;stroke-width:0.2832"
         inkscape:connector-curvature="0" />
      <path
         id="path10520"
         d="m 2.456813,-9.0485165 -0.215288,0.800001"
         style="fill:none;stroke:#030303;stroke-width:0.21170001"
         inkscape:connector-curvature="0" />
      <path
         id="path10522"
         d="m 0.007833,-10.128517 0,1.5900015"
         style="fill:none;stroke:#030303;stroke-width:0.2832"
         inkscape:connector-curvature="0" />
    </g>
    <path
       id="path10524"
       inkscape:connector-curvature="0"
       style="fill:none;stroke:#000000;stroke-width:0.09990668"
       d="m 58.26,53.15 c -2.622019,0 -4.754697,2.123364 -4.754697,4.745368 0,2.143796 1.426195,3.960351 3.377601,4.54998 l 0,2.679746 2.642536,0 0,-2.651834 c 2.003484,-0.55658 3.479956,-2.397067 3.479956,-4.577892 C 63.005396,55.273364 60.882027,53.15 58.26,53.15 z" />
    <g
       id="g10526"
       style="fill:none;stroke:#000000;stroke-width:0.237;stroke-miterlimit:4;stroke-opacity:1;stroke-dasharray:none"
       transform="translate(58.26,57.9)">
      <path
         id="path10528"
         style="fill:none;stroke:#030303;stroke-width:0.1411"
         d="M -4.2037748,7.5814929 C -6.8346316,6.1114925 -8.6120123,3.3014922 -8.6120123,0.07148931 c 0,-4.75000381 3.8628404,-8.61000481 8.6282233,-8.61000481 4.764047,0 8.627555,3.8600011 8.627555,8.61000481 0,3.23000299 -1.780051,6.04000329 -4.414579,7.52000359"
         inkscape:connector-curvature="0" />
      <path
         id="path10530"
         d="m -2.440413,-9.0485165 0.216323,0.810001"
         style="fill:none;stroke:#030303;stroke-width:0.21170001"
         inkscape:connector-curvature="0" />
      <path
         id="path10532"
         d="m -5.1129926,-8.7785155 0.8080822,1.4000001"
         style="fill:none;stroke:#030303;stroke-width:0.2832"
         inkscape:connector-curvature="0" />
      <path
         id="path10534"
         d="m -6.6800914,-6.5985155 0.5891225,0.59"
         style="fill:none;stroke:#030303;stroke-width:0.21170001"
         inkscape:connector-curvature="0" />
      <path
         id="path10536"
         d="m -8.8466601,-5.0285155 1.3848552,0.8000013"
         style="fill:none;stroke:#030303;stroke-width:0.2832"
         inkscape:connector-curvature="0" />
      <path
         id="path10538"
         d="m -9.1267017,-2.3685125 0.8044106,0.2200004"
         style="fill:none;stroke:#030303;stroke-width:0.21170001"
         inkscape:connector-curvature="0" />
      <path
         id="path10540"
         d="m -10.221501,0.08148931 1.6061507,0"
         style="fill:none;stroke:#030303;stroke-width:0.2832"
         inkscape:connector-curvature="0" />
      <path
         id="path10542"
         d="M -9.1243652,2.5214918 -8.3199546,2.3014913"
         style="fill:none;stroke:#030303;stroke-width:0.21170001"
         inkscape:connector-curvature="0" />
      <path
         id="path10544"
         d="M -8.8489964,5.181492 -7.4574658,4.3814921"
         style="fill:none;stroke:#030303;stroke-width:0.2832"
         inkscape:connector-curvature="0" />
      <path
         id="path10546"
         d="m -6.6737496,6.7514925 0.5877873,-0.59"
         style="fill:none;stroke:#030303;stroke-width:0.21170001"
         inkscape:connector-curvature="0" />
      <path
         id="path10548"
         d="m -5.0742739,8.871494 0.776373,-1.3400011"
         style="fill:none;stroke:#030303;stroke-width:0.2832"
         inkscape:connector-curvature="0" />
      <path
         id="path10550"
         d="M 5.113671,8.8814939 4.329988,7.5214929"
         style="fill:none;stroke:#030303;stroke-width:0.2832"
         inkscape:connector-curvature="0" />
      <path
         id="path10552"
         d="m 6.704836,6.7414925 -0.588789,-0.58"
         style="fill:none;stroke:#030303;stroke-width:0.21170001"
         inkscape:connector-curvature="0" />
      <path
         id="path10554"
         d="m 8.846371,5.1614921 -1.360155,-0.79"
         style="fill:none;stroke:#030303;stroke-width:0.2832"
         inkscape:connector-curvature="0" />
      <path
         id="path10556"
         d="M 9.151112,2.5114918 8.347402,2.2914913"
         style="fill:none;stroke:#030303;stroke-width:0.21170001"
         inkscape:connector-curvature="0" />
      <path
         id="path10558"
         d="m 10.195511,0.07148931 -1.555417,0"
         style="fill:none;stroke:#030303;stroke-width:0.2832"
         inkscape:connector-curvature="0" />
      <path
         id="path10560"
         d="M 9.148809,-2.3785126 8.344698,-2.1585121"
         style="fill:none;stroke:#030303;stroke-width:0.21170001"
         inkscape:connector-curvature="0" />
      <path
         id="path10562"
         d="M 8.836691,-5.0185155 7.482544,-4.2385142"
         style="fill:none;stroke:#030303;stroke-width:0.2832"
         inkscape:connector-curvature="0" />
      <path
         id="path10564"
         d="m 6.699128,-6.6085155 -0.588421,0.59"
         style="fill:none;stroke:#030303;stroke-width:0.21170001"
         inkscape:connector-curvature="0" />
      <path
         id="path10566"
         d="m 5.131729,-8.7785155 -0.80875,1.39"
         style="fill:none;stroke:#030303;stroke-width:0.2832"
         inkscape:connector-curvature="0" />
      <path
         id="path10568"
         d="m 2.456813,-9.0485165 -0.215288,0.800001"
         style="fill:none;stroke:#030303;stroke-width:0.21170001"
         inkscape:connector-curvature="0" />
      <path
         id="path10570"
         d="m 0.007833,-10.128517 0,1.5900015"
         style="fill:none;stroke:#030303;stroke-width:0.2832"
         inkscape:connector-curvature="0" />
    </g>
    <path
       id="path10572"
       inkscape:connector-curvature="0"
       style="fill:none;stroke:#000000;stroke-width:0.09990668"
       d="m 32.86,72.2 c -2.622019,0 -4.754697,2.123364 -4.754697,4.745368 0,2.143796 1.426195,3.960351 3.377601,4.54998 l 0,2.679746 2.642536,0 0,-2.651834 c 2.003484,-0.55658 3.479956,-2.397067 3.479956,-4.577892 C 37.605396,74.323364 35.482027,72.2 32.86,72.2 z" />
    <g
       id="g10574"
       style="fill:none;stroke:#000000;stroke-width:0.237;stroke-miterlimit:4;stroke-opacity:1;stroke-dasharray:none"
       transform="translate(32.86,76.95)">
      <path
         id="path10576"
         style="fill:none;stroke:#030303;stroke-width:0.1411"
         d="M -4.2037748,7.5814929 C -6.8346316,6.1114925 -8.6120123,3.3014922 -8.6120123,0.07148931 c 0,-4.75000381 3.8628404,-8.61000481 8.6282233,-8.61000481 4.764047,0 8.627555,3.8600011 8.627555,8.61000481 0,3.23000299 -1.780051,6.04000329 -4.414579,7.52000359"
         inkscape:connector-curvature="0" />
      <path
         id="path10578"
         d="m -2.440413,-9.0485165 0.216323,0.810001"
         style="fill:none;stroke:#030303;stroke-width:0.21170001"
         inkscape:connector-curvature="0" />
      <path
         id="path10580"
         d="m -5.1129926,-8.7785155 0.8080822,1.4000001"
         style="fill:none;stroke:#030303;stroke-width:0.2832"
         inkscape:connector-curvature="0" />
      <path
         id="path10582"
         d="m -6.6800914,-6.5985155 0.5891225,0.59"
         style="fill:none;stroke:#030303;stroke-width:0.21170001"
         inkscape:connector-curvature="0" />
      <path
         id="path10584"
         d="m -8.8466601,-5.0285155 1.3848552,0.8000013"
         style="fill:none;stroke:#030303;stroke-width:0.2832"
         inkscape:connector-curvature="0" />
      <path
         id="path10586"
         d="m -9.1267017,-2.3685125 0.8044106,0.2200004"
         style="fill:none;stroke:#030303;stroke-width:0.21170001"
         inkscape:connector-curvature="0" />
      <path
         id="path10588"
         d="m -10.221501,0.08148931 1.6061507,0"
         style="fill:none;stroke:#030303;stroke-width:0.2832"
         inkscape:connector-curvature="0" />
      <path
         id="path10590"
         d="M -9.1243652,2.5214918 -8.3199546,2.3014913"
         style="fill:none;stroke:#030303;stroke-width:0.21170001"
         inkscape:connector-curvature="0" />
      <path
         id="path10592"
         d="M -8.8489964,5.181492 -7.4574658,4.3814921"
         style="fill:none;stroke:#030303;stroke-width:0.2832"
         inkscape:connector-curvature="0" />
      <path
         id="path10594"
         d="m -6.6737496,6.7514925 0.5877873,-0.59"
         style="fill:none;stroke:#030303;stroke-width:0.21170001"
         inkscape:connector-curvature="0" />
      <path
         id="path10596"
         d="m -5.0742739,8.871494 0.776373,-1.3400011"
         style="fill:none;stroke:#030303;stroke-width:0.2832"
         inkscape:connector-curvature="0" />
      <path
         id="path10598"
         d="M 5.113671,8.8814939 4.329988,7.5214929"
         style="fill:none;stroke:#030303;stroke-width:0.2832"
         inkscape:connector-curvature="0" />
      <path
         id="path10600"
         d="m 6.704836,6.7414925 -0.588789,-0.58"
         style="fill:none;stroke:#030303;stroke-width:0.21170001"
         inkscape:connector-curvature="0" />
      <path
         id="path10602"
         d="m 8.846371,5.1614921 -1.360155,-0.79"
         style="fill:none;stroke:#030303;stroke-width:0.2832"
         inkscape:connector-curvature="0" />
      <path
         id="path10604"
         d="M 9.151112,2.5114918 8.347402,2.2914913"
         style="fill:none;stroke:#030303;stroke-width:0.21170001"
         inkscape:connector-curvature="0" />
      <path
         id="path10606"
         d="m 10.195511,0.07148931 -1.555417,0"
         style="fill:none;stroke:#030303;stroke-width:0.2832"
         inkscape:connector-curvature="0" />
      <path
         id="path10608"
         d="M 9.148809,-2.3785126 8.344698,-2.1585121"
         style="fill:none;stroke:#030303;stroke-width:0.21170001"
         inkscape:connector-curvature="0" />
      <path
         id="path10610"
         d="M 8.836691,-5.0185155 7.482544,-4.2385142"
         style="fill:none;stroke:#030303;stroke-width:0.2832"
         inkscape:connector-curvature="0" />
      <path
         id="path10612"
         d="m 6.699128,-6.6085155 -0.588421,0.59"
         style="fill:none;stroke:#030303;stroke-width:0.21170001"
         inkscape:connector-curvature="0" />
      <path
         id="path10614"
         d="m 5.131729,-8.7785155 -0.80875,1.39"
         style="fill:none;stroke:#030303;stroke-width:0.2832"
         inkscape:connector-curvature="0" />
      <path
         id="path10616"
         d="m 2.456813,-9.0485165 -0.215288,0.800001"
         style="fill:none;stroke:#030303;stroke-width:0.21170001"
         inkscape:connector-curvature="0" />
      <path
         id="path10618"
         d="m 0.007833,-10.128517 0,1.5900015"
         style="fill:none;stroke:#030303;stroke-width:0.2832"
         inkscape:connector-curvature="0" />
    </g>
    <path
       id="path10620"
       inkscape:connector-curvature="0"
       style="fill:none;stroke:#000000;stroke-width:0.09990668"
       d="m 58.26,72.2 c -2.622019,0 -4.754697,2.123364 -4.754697,4.745368 0,2.143796 1.426195,3.960351 3.377601,4.54998 l 0,2.679746 2.642536,0 0,-2.651834 c 2.003484,-0.55658 3.479956,-2.397067 3.479956,-4.577892 C 63.005396,74.323364 60.882027,72.2 58.26,72.2 z" />
    <g
       id="g10622"
       style="fill:none;stroke:#000000;stroke-width:0.237;stroke-miterlimit:4;stroke-opacity:1;stroke-dasharray:none"
       transform="translate(58.26,76.95)">
      <path
         id="path10624"
         style="fill:none;stroke:#030303;stroke-width:0.1411"
         d="M -4.2037748,7.5814929 C -6.8346316,6.1114925 -8.6120123,3.3014922 -8.6120123,0.07148931 c 0,-4.75000381 3.8628404,-8.61000481 8.6282233,-8.61000481 4.764047,0 8.627555,3.8600011 8.627555,8.61000481 0,3.23000299 -1.780051,6.04000329 -4.414579,7.52000359"
         inkscape:connector-curvature="0" />
      <path
         id="path10626"
         d="m -2.440413,-9.0485165 0.216323,0.810001"
         style="fill:none;stroke:#030303;stroke-width:0.21170001"
         inkscape:connector-curvature="0" />
      <path
         id="path10628"
         d="m -5.1129926,-8.7785155 0.8080822,1.4000001"
         style="fill:none;stroke:#030303;stroke-width:0.2832"
         inkscape:connector-curvature="0" />
      <path
         id="path10630"
         d="m -6.6800914,-6.5985155 0.5891225,0.59"
         style="fill:none;stroke:#030303;stroke-width:0.21170001"
         inkscape:connector-curvature="0" />
      <path
         id="path10632"
         d="m -8.8466601,-5.0285155 1.3848552,0.8000013"
         style="fill:none;stroke:#030303;stroke-width:0.2832"
         inkscape:connector-curvature="0" />
      <path
         id="path10634"
         d="m -9.1267017,-2.3685125 0.8044106,0.2200004"
         style="fill:none;stroke:#030303;stroke-width:0.21170001"
         inkscape:connector-curvature="0" />
      <path
         id="path10636"
         d="m -10.221501,0.08148931 1.6061507,0"
         style="fill:none;stroke:#030303;stroke-width:0.2832"
         inkscape:connector-curvature="0" />
      <path
         id="path10638"
         d="M -9.1243652,2.5214918 -8.3199546,2.3014913"
         style="fill:none;stroke:#030303;stroke-width:0.21170001"
         inkscape:connector-curvature="0" />
      <path
         id="path10640"
         d="M -8.8489964,5.181492 -7.4574658,4.3814921"
         style="fill:none;stroke:#030303;stroke-width:0.2832"
         inkscape:connector-curvature="0" />
      <path
         id="path10642"
         d="m -6.6737496,6.7514925 0.5877873,-0.59"
         style="fill:none;stroke:#030303;stroke-width:0.21170001"
         inkscape:connector-curvature="0" />
      <path
         id="path10644"
         d="m -5.0742739,8.871494 0.776373,-1.3400011"
         style="fill:none;stroke:#030303;stroke-width:0.2832"
         inkscape:connector-curvature="0" />
      <path
         id="path10646"
         d="M 5.113671,8.8814939 4.329988,7.5214929"
         style="fill:none;stroke:#030303;stroke-width:0.2832"
         inkscape:connector-curvature="0" />
      <path
         id="path10648"
         d="m 6.704836,6.7414925 -0.588789,-0.58"
         style="fill:none;stroke:#030303;stroke-width:0.21170001"
         inkscape:connector-curvature="0" />
      <path
         id="path10650"
         d="m 8.846371,5.1614921 -1.360155,-0.79"
         style="fill:none;stroke:#030303;stroke-width:0.2832"
         inkscape:connector-curvature="0" />
      <path
         id="path10652"
         d="M 9.151112,2.5114918 8.347402,2.2914913"
         style="fill:none;stroke:#030303;stroke-width:0.21170001"
         inkscape:connector-curvature="0" />
      <path
         id="path10654"
         d="m 10.195511,0.07148931 -1.555417,0"
         style="fill:none;stroke:#030303;stroke-width:0.2832"
         inkscape:connector-curvature="0" />
      <path
         id="path10656"
         d="M 9.148809,-2.3785126 8.344698,-2.1585121"
         style="fill:none;stroke:#030303;stroke-width:0.21170001"
         inkscape:connector-curvature="0" />
      <path
         id="path10658"
         d="M 8.836691,-5.0185155 7.482544,-4.2385142"
         style="fill:none;stroke:#030303;stroke-width:0.2832"
         inkscape:connector-curvature="0" />
      <path
         id="path10660"
         d="m 6.699128,-6.6085155 -0.588421,0.59"
         style="fill:none;stroke:#030303;stroke-width:0.21170001"
         inkscape:connector-curvature="0" />
      <path
         id="path10662"
         d="m 5.131729,-8.7785155 -0.80875,1.39"
         style="fill:none;stroke:#030303;stroke-width:0.2832"
         inkscape:connector-curvature="0" />
      <path
         id="path10664"
         d="m 2.456813,-9.0485165 -0.215288,0.800001"
         style="fill:none;stroke:#030303;stroke-width:0.21170001"
         inkscape:connector-curvature="0" />
      <path
         id="path10666"
         d="m 0.007833,-10.128517 0,1.5900015"
         style="fill:none;stroke:#030303;stroke-width:0.2832"
         inkscape:connector-curvature="0" />
    </g>
    <path
       id="path10668"
       inkscape:connector-curvature="0"
       style="fill:none;stroke:#000000;stroke-width:0.09990668"
       d="m 32.86,91.25 c -2.622019,0 -4.754697,2.123364 -4.754697,4.745368 0,2.143796 1.426195,3.960351 3.377601,4.549982 l 0,2.67974 2.642536,0 0,-2.65183 c 2.003484,-0.55658 3.479956,-2.397067 3.479956,-4.577892 C 37.605396,93.373364 35.482027,91.25 32.86,91.25 z" />
    <g
       id="g10670"
       style="fill:none;stroke:#000000;stroke-width:0.237;stroke-miterlimit:4;stroke-opacity:1;stroke-dasharray:none"
       transform="translate(32.86,96)">
      <path
         id="path10672"
         style="fill:none;stroke:#030303;stroke-width:0.1411"
         d="M -4.2037748,7.5814929 C -6.8346316,6.1114925 -8.6120123,3.3014922 -8.6120123,0.07148931 c 0,-4.75000381 3.8628404,-8.61000481 8.6282233,-8.61000481 4.764047,0 8.627555,3.8600011 8.627555,8.61000481 0,3.23000299 -1.780051,6.04000329 -4.414579,7.52000359"
         inkscape:connector-curvature="0" />
      <path
         id="path10674"
         d="m -2.440413,-9.0485165 0.216323,0.810001"
         style="fill:none;stroke:#030303;stroke-width:0.21170001"
         inkscape:connector-curvature="0" />
      <path
         id="path10676"
         d="m -5.1129926,-8.7785155 0.8080822,1.4000001"
         style="fill:none;stroke:#030303;stroke-width:0.2832"
         inkscape:connector-curvature="0" />
      <path
         id="path10678"
         d="m -6.6800914,-6.5985155 0.5891225,0.59"
         style="fill:none;stroke:#030303;stroke-width:0.21170001"
         inkscape:connector-curvature="0" />
      <path
         id="path10680"
         d="m -8.8466601,-5.0285155 1.3848552,0.8000013"
         style="fill:none;stroke:#030303;stroke-width:0.2832"
         inkscape:connector-curvature="0" />
      <path
         id="path10682"
         d="m -9.1267017,-2.3685125 0.8044106,0.2200004"
         style="fill:none;stroke:#030303;stroke-width:0.21170001"
         inkscape:connector-curvature="0" />
      <path
         id="path10684"
         d="m -10.221501,0.08148931 1.6061507,0"
         style="fill:none;stroke:#030303;stroke-width:0.2832"
         inkscape:connector-curvature="0" />
      <path
         id="path10686"
         d="M -9.1243652,2.5214918 -8.3199546,2.3014913"
         style="fill:none;stroke:#030303;stroke-width:0.21170001"
         inkscape:connector-curvature="0" />
      <path
         id="path10688"
         d="M -8.8489964,5.181492 -7.4574658,4.3814921"
         style="fill:none;stroke:#030303;stroke-width:0.2832"
         inkscape:connector-curvature="0" />
      <path
         id="path10690"
         d="m -6.6737496,6.7514925 0.5877873,-0.59"
         style="fill:none;stroke:#030303;stroke-width:0.21170001"
         inkscape:connector-curvature="0" />
      <path
         id="path10692"
         d="m -5.0742739,8.871494 0.776373,-1.3400011"
         style="fill:none;stroke:#030303;stroke-width:0.2832"
         inkscape:connector-curvature="0" />
      <path
         id="path10694"
         d="M 5.113671,8.8814939 4.329988,7.5214929"
         style="fill:none;stroke:#030303;stroke-width:0.2832"
         inkscape:connector-curvature="0" />
      <path
         id="path10696"
         d="m 6.704836,6.7414925 -0.588789,-0.58"
         style="fill:none;stroke:#030303;stroke-width:0.21170001"
         inkscape:connector-curvature="0" />
      <path
         id="path10698"
         d="m 8.846371,5.1614921 -1.360155,-0.79"
         style="fill:none;stroke:#030303;stroke-width:0.2832"
         inkscape:connector-curvature="0" />
      <path
         id="path10700"
         d="M 9.151112,2.5114918 8.347402,2.2914913"
         style="fill:none;stroke:#030303;stroke-width:0.21170001"
         inkscape:connector-curvature="0" />
      <path
         id="path10702"
         d="m 10.195511,0.07148931 -1.555417,0"
         style="fill:none;stroke:#030303;stroke-width:0.2832"
         inkscape:connector-curvature="0" />
      <path
         id="path10704"
         d="M 9.148809,-2.3785126 8.344698,-2.1585121"
         style="fill:none;stroke:#030303;stroke-width:0.21170001"
         inkscape:connector-curvature="0" />
      <path
         id="path10706"
         d="M 8.836691,-5.0185155 7.482544,-4.2385142"
         style="fill:none;stroke:#030303;stroke-width:0.2832"
         inkscape:connector-curvature="0" />
      <path
         id="path10708"
         d="m 6.699128,-6.6085155 -0.588421,0.59"
         style="fill:none;stroke:#030303;stroke-width:0.21170001"
         inkscape:connector-curvature="0" />
      <path
         id="path10710"
         d="m 5.131729,-8.7785155 -0.80875,1.39"
         style="fill:none;stroke:#030303;stroke-width:0.2832"
         inkscape:connector-curvature="0" />
      <path
         id="path10712"
         d="m 2.456813,-9.0485165 -0.215288,0.800001"
         style="fill:none;stroke:#030303;stroke-width:0.21170001"
         inkscape:connector-curvature="0" />
      <path
         id="path10714"
         d="m 0.007833,-10.128517 0,1.5900015"
         style="fill:none;stroke:#030303;stroke-width:0.2832"
         inkscape:connector-curvature="0" />
    </g>
    <path
       id="path10716"
       inkscape:connector-curvature="0"
       style="fill:none;stroke:#000000;stroke-width:0.09990668"
       d="m 58.26,91.25 c -2.622019,0 -4.754697,2.123364 -4.754697,4.745368 0,2.143796 1.426195,3.960351 3.377601,4.549982 l 0,2.67974 2.642536,0 0,-2.65183 c 2.003484,-0.55658 3.479956,-2.397067 3.479956,-4.577892 C 63.005396,93.373364 60.882027,91.25 58.26,91.25 z" />
    <g
       id="g10718"
       style="fill:none;stroke:#000000;stroke-width:0.237;stroke-miterlimit:4;stroke-opacity:1;stroke-dasharray:none"
       transform="translate(58.26,96)">
      <path
         id="path10720"
         style="fill:none;stroke:#030303;stroke-width:0.1411"
         d="M -4.2037748,7.5814929 C -6.8346316,6.1114925 -8.6120123,3.3014922 -8.6120123,0.07148931 c 0,-4.75000381 3.8628404,-8.61000481 8.6282233,-8.61000481 4.764047,0 8.627555,3.8600011 8.627555,8.61000481 0,3.23000299 -1.780051,6.04000329 -4.414579,7.52000359"
         inkscape:connector-curvature="0" />
      <path
         id="path10722"
         d="m -2.440413,-9.0485165 0.216323,0.810001"
         style="fill:none;stroke:#030303;stroke-width:0.21170001"
         inkscape:connector-curvature="0" />
      <path
         id="path10724"
         d="m -5.1129926,-8.7785155 0.8080822,1.4000001"
         style="fill:none;stroke:#030303;stroke-width:0.2832"
         inkscape:connector-curvature="0" />
      <path
         id="path10726"
         d="m -6.6800914,-6.5985155 0.5891225,0.59"
         style="fill:none;stroke:#030303;stroke-width:0.21170001"
         inkscape:connector-curvature="0" />
      <path
         id="path10728"
         d="m -8.8466601,-5.0285155 1.3848552,0.8000013"
         style="fill:none;stroke:#030303;stroke-width:0.2832"
         inkscape:connector-curvature="0" />
      <path
         id="path10730"
         d="m -9.1267017,-2.3685125 0.8044106,0.2200004"
         style="fill:none;stroke:#030303;stroke-width:0.21170001"
         inkscape:connector-curvature="0" />
      <path
         id="path10732"
         d="m -10.221501,0.08148931 1.6061507,0"
         style="fill:none;stroke:#030303;stroke-width:0.2832"
         inkscape:connector-curvature="0" />
      <path
         id="path10734"
         d="M -9.1243652,2.5214918 -8.3199546,2.3014913"
         style="fill:none;stroke:#030303;stroke-width:0.21170001"
         inkscape:connector-curvature="0" />
      <path
         id="path10736"
         d="M -8.8489964,5.181492 -7.4574658,4.3814921"
         style="fill:none;stroke:#030303;stroke-width:0.2832"
         inkscape:connector-curvature="0" />
      <path
         id="path10738"
         d="m -6.6737496,6.7514925 0.5877873,-0.59"
         style="fill:none;stroke:#030303;stroke-width:0.21170001"
         inkscape:connector-curvature="0" />
      <path
         id="path10740"
         d="m -5.0742739,8.871494 0.776373,-1.3400011"
         style="fill:none;stroke:#030303;stroke-width:0.2832"
         inkscape:connector-curvature="0" />
      <path
         id="path10742"
         d="M 5.113671,8.8814939 4.329988,7.5214929"
         style="fill:none;stroke:#030303;stroke-width:0.2832"
         inkscape:connector-curvature="0" />
      <path
         id="path10744"
         d="m 6.704836,6.7414925 -0.588789,-0.58"
         style="fill:none;stroke:#030303;stroke-width:0.21170001"
         inkscape:connector-curvature="0" />
      <path
         id="path10746"
         d="m 8.846371,5.1614921 -1.360155,-0.79"
         style="fill:none;stroke:#030303;stroke-width:0.2832"
         inkscape:connector-curvature="0" />
      <path
         id="path10748"
         d="M 9.151112,2.5114918 8.347402,2.2914913"
         style="fill:none;stroke:#030303;stroke-width:0.21170001"
         inkscape:connector-curvature="0" />
      <path
         id="path10750"
         d="m 10.195511,0.07148931 -1.555417,0"
         style="fill:none;stroke:#030303;stroke-width:0.2832"
         inkscape:connector-curvature="0" />
      <path
         id="path10752"
         d="M 9.148809,-2.3785126 8.344698,-2.1585121"
         style="fill:none;stroke:#030303;stroke-width:0.21170001"
         inkscape:connector-curvature="0" />
      <path
         id="path10754"
         d="M 8.836691,-5.0185155 7.482544,-4.2385142"
         style="fill:none;stroke:#030303;stroke-width:0.2832"
         inkscape:connector-curvature="0" />
      <path
         id="path10756"
         d="m 6.699128,-6.6085155 -0.588421,0.59"
         style="fill:none;stroke:#030303;stroke-width:0.21170001"
         inkscape:connector-curvature="0" />
      <path
         id="path10758"
         d="m 5.131729,-8.7785155 -0.80875,1.39"
         style="fill:none;stroke:#030303;stroke-width:0.2832"
         inkscape:connector-curvature="0" />
      <path
         id="path10760"
         d="m 2.456813,-9.0485165 -0.215288,0.800001"
         style="fill:none;stroke:#030303;stroke-width:0.21170001"
         inkscape:connector-curvature="0" />
      <path
         id="path10762"
         d="m 0.007833,-10.128517 0,1.5900015"
         style="fill:none;stroke:#030303;stroke-width:0.2832"
         inkscape:connector-curvature="0" />
    </g>
    <circle
       id="circle10764"
       r="1.5"
       cy="108.7"
       cx="32.860001"
       sodipodi:cx="32.860001"
       sodipodi:cy="108.7"
       sodipodi:rx="1.5"
       sodipodi:ry="1.5"
       d="m 34.360001,108.7 c 0,0.82842 -0.671573,1.5 -1.5,1.5 -0.828428,0 -1.5,-0.67158 -1.5,-1.5 0,-0.82843 0.671572,-1.5 1.5,-1.5 0.828427,0 1.5,0.67157 1.5,1.5 z" />
    <circle
       id="circle10766"
       r="1.5"
       cy="108.7"
       cx="58.259998"
       sodipodi:cx="58.259998"
       sodipodi:cy="108.7"
       sodipodi:rx="1.5"
       sodipodi:ry="1.5"
       d="m 59.759998,108.7 c 0,0.82842 -0.671573,1.5 -1.5,1.5 -0.828427,0 -1.5,-0.67158 -1.5,-1.5 0,-0.82843 0.671573,-1.5 1.5,-1.5 0.828427,0 1.5,0.67157 1.5,1.5 z" />
    <circle
       id="circle10768"
       r="3.25"
       cy="19.799999"
       cx="8.7299995"
       sodipodi:cx="8.7299995"
       sodipodi:cy="19.799999"
       sodipodi:rx="3.25"
       sodipodi:ry="3.25"
       d="m 11.98,19.799999 c 0,1.794926 -1.455075,3.25 -3.2500005,3.25 -1.7949254,0 -3.25,-1.455074 -3.25,-3.25 0,-1.794925 1.4550746,-3.25 3.25,-3.25 1.7949255,0 3.2500005,1.455075 3.2500005,3.25 z" />
    <circle
       id="circle10770"
       r="3.25"
       cy="32.5"
       cx="8.7299995"
       sodipodi:cx="8.7299995"
       sodipodi:cy="32.5"
       sodipodi:rx="3.25"
       sodipodi:ry="3.25"
       d="m 11.98,32.5 c 0,1.794925 -1.455075,3.25 -3.2500005,3.25 -1.7949254,0 -3.25,-1.455075 -3.25,-3.25 0,-1.794925 1.4550746,-3.25 3.25,-3.25 C 10.524925,29.25 11.98,30.705075 11.98,32.5 z" />
    <circle
       id="circle10772"
       r="3.25"
       cy="45.200001"
       cx="8.7299995"
       sodipodi:cx="8.7299995"
       sodipodi:cy="45.200001"
       sodipodi:rx="3.25"
       sodipodi:ry="3.25"
       d="m 11.98,45.200001 c 0,1.794925 -1.455075,3.25 -3.2500005,3.25 -1.7949254,0 -3.25,-1.455075 -3.25,-3.25 0,-1.794926 1.4550746,-3.25 3.25,-3.25 1.7949255,0 3.2500005,1.455074 3.2500005,3.25 z" />
    <circle
       id="circle10774"
       r="3.25"
       cy="57.900002"
       cx="8.7299995"
       sodipodi:cx="8.7299995"
       sodipodi:cy="57.900002"
       sodipodi:rx="3.25"
       sodipodi:ry="3.25"
       d="m 11.98,57.900002 c 0,1.794925 -1.455075,3.25 -3.2500005,3.25 -1.7949254,0 -3.25,-1.455075 -3.25,-3.25 0,-1.794926 1.4550746,-3.25 3.25,-3.25 1.7949255,0 3.2500005,1.455074 3.2500005,3.25 z" />
    <circle
       id="circle10776"
       r="3.25"
       cy="70.599998"
       cx="8.7299995"
       sodipodi:cx="8.7299995"
       sodipodi:cy="70.599998"
       sodipodi:rx="3.25"
       sodipodi:ry="3.25"
       d="m 11.98,70.599998 c 0,1.794926 -1.455075,3.25 -3.2500005,3.25 -1.7949254,0 -3.25,-1.455074 -3.25,-3.25 0,-1.794925 1.4550746,-3.25 3.25,-3.25 1.7949255,0 3.2500005,1.455075 3.2500005,3.25 z" />
    <circle
       id="circle10778"
       r="3.25"
       cy="83.300003"
       cx="8.7299995"
       sodipodi:cx="8.7299995"
       sodipodi:cy="83.300003"
       sodipodi:rx="3.25"
       sodipodi:ry="3.25"
       d="m 11.98,83.300003 c 0,1.794925 -1.455075,3.25 -3.2500005,3.25 -1.7949254,0 -3.25,-1.455075 -3.25,-3.25 0,-1.794925 1.4550746,-3.25 3.25,-3.25 1.7949255,0 3.2500005,1.455075 3.2500005,3.25 z" />
    <circle
       id="circle10780"
       r="3.25"
       cy="96"
       cx="8.7299995"
       sodipodi:cx="8.7299995"
       sodipodi:cy="96"
       sodipodi:rx="3.25"
       sodipodi:ry="3.25"
       d="m 11.98,96 c 0,1.794925 -1.455075,3.25 -3.2500005,3.25 -1.7949254,0 -3.25,-1.455075 -3.25,-3.25 0,-1.794925 1.4550746,-3.25 3.25,-3.25 C 10.524925,92.75 11.98,94.205075 11.98,96 z" />
    <circle
       id="circle10782"
       r="3.25"
       cy="108.7"
       cx="8.7299995"
       sodipodi:cx="8.7299995"
       sodipodi:cy="108.7"
       sodipodi:rx="3.25"
       sodipodi:ry="3.25"
       d="m 11.98,108.7 c 0,1.79492 -1.455075,3.25 -3.2500005,3.25 -1.7949254,0 -3.25,-1.45508 -3.25,-3.25 0,-1.79493 1.4550746,-3.25 3.25,-3.25 1.7949255,0 3.2500005,1.45507 3.2500005,3.25 z" />
  </g>
</svg>
