  0
SECTION
  2
HEADER
  9
$ACADVER
  1
AC1014
  9
$HANDSEED
  5
FFFF
  9
$MEASUREMENT
 70
     1
  0
ENDSEC
  0
SECTION
  2
TABLES
  0
TABLE
  2
VPORT
  5
8
330
0
100
AcDbSymbolTable
 70
     4
  0
VPORT
  5
2E
330
8
100
AcDbSymbolTableRecord
100
AcDbViewportTableRecord
  2
*ACTIVE
 70
     0
 10
0.0
 20
0.0
 11
1.0
 21
1.0
 12
210.0
 22
148.5
 13
0.0
 23
0.0
 14
10.0
 24
10.0
 15
10.0
 25
10.0
 16
0.0
 26
0.0
 36
1.0
 17
0.0
 27
0.0
 37
0.0
 40
341.0
 41
1.24
 42
50.0
 43
0.0
 44
0.0
 50
0.0
 51
0.0
 71
     0
 72
   100
 73
     1
 74
     3
 75
     0
 76
     0
 77
     0
 78
     0
  0
ENDTAB
  0
TABLE
  2
LTYPE
  5
5
330
0
100
AcDbSymbolTable
 70
     1
  0
LTYPE
  5
14
330
5
100
AcDbSymbolTableRecord
100
AcDbLinetypeTableRecord
  2
BYBLOCK
 70
     0
  3

 72
    65
 73
     0
 40
0.0
  0
LTYPE
  5
15
330
5
100
AcDbSymbolTableRecord
100
AcDbLinetypeTableRecord
  2
BYLAYER
 70
     0
  3

 72
    65
 73
     0
 40
0.0
  0
LTYPE
  5
16
330
5
100
AcDbSymbolTableRecord
100
AcDbLinetypeTableRecord
  2
CONTINUOUS
 70
     0
  3
Solid line
 72
    65
 73
     0
 40
0.0
  0
ENDTAB
  0
TABLE
  2
LAYER
  5
2
100
AcDbSymbolTable
 70
3
  0
LAYER
  5
50
100
AcDbSymbolTableRecord
100
AcDbLayerTableRecord
  2
0
 70
0
  6
CONTINUOUS
  0
LAYER
  5
51
100
AcDbSymbolTableRecord
100
AcDbLayerTableRecord
  2
Layer_1
 70
0
  6
CONTINUOUS
  0
LAYER
  5
52
100
AcDbSymbolTableRecord
100
AcDbLayerTableRecord
  2
Layer_2
 70
0
  6
CONTINUOUS
  0
ENDTAB
  0
TABLE
  2
STYLE
  5
3
330
0
100
AcDbSymbolTable
 70
     1
  0
STYLE
  5
11
330
3
100
AcDbSymbolTableRecord
100
AcDbTextStyleTableRecord
  2
STANDARD
 70
     0
 40
0.0
 41
1.0
 50
0.0
 71
     0
 42
2.5
  3
txt
  4

  0
ENDTAB
  0
TABLE
  2
VIEW
  5
6
330
0
100
AcDbSymbolTable
 70
     0
  0
ENDTAB
  0
TABLE
  2
UCS
  5
7
330
0
100
AcDbSymbolTable
 70
     0
  0
ENDTAB
  0
TABLE
  2
APPID
  5
9
330
0
100
AcDbSymbolTable
 70
     2
  0
APPID
  5
12
330
9
100
AcDbSymbolTableRecord
100
AcDbRegAppTableRecord
  2
ACAD
 70
     0
  0
ENDTAB
  0
TABLE
  2
DIMSTYLE
  5
A
330
0
100
AcDbSymbolTable
 70
     1
  0
DIMSTYLE
105
27
330
A
100
AcDbSymbolTableRecord
100
AcDbDimStyleTableRecord
  2
ISO-25
 70
     0
  3

  4

  5

  6

  7

 40
1.0
 41
2.5
 42
0.625
 43
3.75
 44
1.25
 45
0.0
 46
0.0
 47
0.0
 48
0.0
140
2.5
141
2.5
142
0.0
143
0.03937007874016
144
1.0
145
0.0
146
1.0
147
0.625
 71
     0
 72
     0
 73
     0
 74
     0
 75
     0
 76
     0
 77
     1
 78
     8
170
     0
171
     3
172
     1
173
     0
174
     0
175
     0
176
     0
177
     0
178
     0
270
     2
271
     2
272
     2
273
     2
274
     3
340
11
275
     0
280
     0
281
     0
282
     0
283
     0
284
     8
285
     0
286
     0
287
     3
288
     0
  0
ENDTAB
  0
TABLE
  2
BLOCK_RECORD
  5
1
330
0
100
AcDbSymbolTable
 70
     1
  0
BLOCK_RECORD
  5
1F
330
1
100
AcDbSymbolTableRecord
100
AcDbBlockTableRecord
  2
*MODEL_SPACE
  0
BLOCK_RECORD
  5
1B
330
1
100
AcDbSymbolTableRecord
100
AcDbBlockTableRecord
  2
*PAPER_SPACE
  0
ENDTAB
  0
ENDSEC
  0
SECTION
  2
BLOCKS
  0
BLOCK
  5
20
330
1F
100
AcDbEntity
  8
0
100
AcDbBlockBegin
  2
*MODEL_SPACE
 70
     0
 10
0.0
 20
0.0
 30
0.0
  3
*MODEL_SPACE
  1

  0
ENDBLK
  5
21
330
1F
100
AcDbEntity
  8
0
100
AcDbBlockEnd
  0
BLOCK
  5
1C
330
1B
100
AcDbEntity
 67
     1
  8
0
100
AcDbBlockBegin
  2
*PAPER_SPACE
  1

  0
ENDBLK
  5
1D
330
1B
100
AcDbEntity
 67
     1
  8
0
100
AcDbBlockEnd
  0
ENDSEC
  0
SECTION
  2
ENTITIES
  0
SPLINE
  5
100
100
AcDbEntity
  8
Layer_1
 62
7
100
AcDbSpline
 70
8
 71
3
 72
8
 73
4
 74
0
 40
0
 40
0
 40
0
 40
0
 40
1
 40
1
 40
1
 40
1
 10
98.684126
 20
241.065878
 30
0.0
 10
98.684126
 20
240.182222
 30
0.0
 10
97.967782
 20
239.465878
 30
0.0
 10
97.084126
 20
239.465878
 30
0.0
  0
SPLINE
  5
101
100
AcDbEntity
  8
Layer_1
 62
7
100
AcDbSpline
 70
8
 71
3
 72
8
 73
4
 74
0
 40
0
 40
0
 40
0
 40
0
 40
1
 40
1
 40
1
 40
1
 10
97.084126
 20
239.465878
 30
0.0
 10
96.200471
 20
239.465878
 30
0.0
 10
95.484126
 20
240.182222
 30
0.0
 10
95.484126
 20
241.065878
 30
0.0
  0
SPLINE
  5
102
100
AcDbEntity
  8
Layer_1
 62
7
100
AcDbSpline
 70
8
 71
3
 72
8
 73
4
 74
0
 40
0
 40
0
 40
0
 40
0
 40
1
 40
1
 40
1
 40
1
 10
95.484126
 20
241.065878
 30
0.0
 10
95.484126
 20
241.949534
 30
0.0
 10
96.200471
 20
242.665878
 30
0.0
 10
97.084126
 20
242.665878
 30
0.0
  0
SPLINE
  5
103
100
AcDbEntity
  8
Layer_1
 62
7
100
AcDbSpline
 70
8
 71
3
 72
8
 73
4
 74
0
 40
0
 40
0
 40
0
 40
0
 40
1
 40
1
 40
1
 40
1
 10
97.084126
 20
242.665878
 30
0.0
 10
97.967782
 20
242.665878
 30
0.0
 10
98.684126
 20
241.949534
 30
0.0
 10
98.684126
 20
241.065878
 30
0.0
  0
LWPOLYLINE
  5
104
100
AcDbEntity
  8
Layer_1
 62
7
100
AcDbPolyline
 90
5
 70
0
 10
89.584126
 20
244.065878
 30
0.0
 10
160.384128
 20
244.065878
 30
0.0
 10
160.384128
 20
115.565881
 30
0.0
 10
89.584126
 20
115.565881
 30
0.0
 10
89.584126
 20
244.065878
 30
0.0
  0
SPLINE
  5
105
100
AcDbEntity
  8
Layer_1
 62
7
100
AcDbSpline
 70
8
 71
3
 72
8
 73
4
 74
0
 40
0
 40
0
 40
0
 40
0
 40
1
 40
1
 40
1
 40
1
 10
98.684126
 20
118.565881
 30
0.0
 10
98.684126
 20
117.682221
 30
0.0
 10
97.967782
 20
116.965881
 30
0.0
 10
97.084126
 20
116.965881
 30
0.0
  0
SPLINE
  5
106
100
AcDbEntity
  8
Layer_1
 62
7
100
AcDbSpline
 70
8
 71
3
 72
8
 73
4
 74
0
 40
0
 40
0
 40
0
 40
0
 40
1
 40
1
 40
1
 40
1
 10
97.084126
 20
116.965881
 30
0.0
 10
96.200471
 20
116.965881
 30
0.0
 10
95.484126
 20
117.682221
 30
0.0
 10
95.484126
 20
118.565881
 30
0.0
  0
SPLINE
  5
107
100
AcDbEntity
  8
Layer_1
 62
7
100
AcDbSpline
 70
8
 71
3
 72
8
 73
4
 74
0
 40
0
 40
0
 40
0
 40
0
 40
1
 40
1
 40
1
 40
1
 10
95.484126
 20
118.565881
 30
0.0
 10
95.484126
 20
119.449541
 30
0.0
 10
96.200471
 20
120.165881
 30
0.0
 10
97.084126
 20
120.165881
 30
0.0
  0
SPLINE
  5
108
100
AcDbEntity
  8
Layer_1
 62
7
100
AcDbSpline
 70
8
 71
3
 72
8
 73
4
 74
0
 40
0
 40
0
 40
0
 40
0
 40
1
 40
1
 40
1
 40
1
 10
97.084126
 20
120.165881
 30
0.0
 10
97.967782
 20
120.165881
 30
0.0
 10
98.684126
 20
119.449541
 30
0.0
 10
98.684126
 20
118.565881
 30
0.0
  0
LWPOLYLINE
  5
109
100
AcDbEntity
  8
Layer_1
 62
7
100
AcDbPolyline
 90
2
 70
0
 10
98.684126
 20
241.065878
 30
0.0
 10
98.684126
 20
241.065878
 30
0.0
  0
SPLINE
  5
10a
100
AcDbEntity
  8
Layer_1
 62
7
100
AcDbSpline
 70
8
 71
3
 72
8
 73
4
 74
0
 40
0
 40
0
 40
0
 40
0
 40
1
 40
1
 40
1
 40
1
 10
154.564126
 20
241.065878
 30
0.0
 10
154.564126
 20
240.182222
 30
0.0
 10
153.847782
 20
239.465878
 30
0.0
 10
152.964126
 20
239.465878
 30
0.0
  0
SPLINE
  5
10b
100
AcDbEntity
  8
Layer_1
 62
7
100
AcDbSpline
 70
8
 71
3
 72
8
 73
4
 74
0
 40
0
 40
0
 40
0
 40
0
 40
1
 40
1
 40
1
 40
1
 10
152.964126
 20
239.465878
 30
0.0
 10
152.080470
 20
239.465878
 30
0.0
 10
151.364126
 20
240.182222
 30
0.0
 10
151.364126
 20
241.065878
 30
0.0
  0
SPLINE
  5
10c
100
AcDbEntity
  8
Layer_1
 62
7
100
AcDbSpline
 70
8
 71
3
 72
8
 73
4
 74
0
 40
0
 40
0
 40
0
 40
0
 40
1
 40
1
 40
1
 40
1
 10
151.364126
 20
241.065878
 30
0.0
 10
151.364126
 20
241.949534
 30
0.0
 10
152.080470
 20
242.665878
 30
0.0
 10
152.964126
 20
242.665878
 30
0.0
  0
SPLINE
  5
10d
100
AcDbEntity
  8
Layer_1
 62
7
100
AcDbSpline
 70
8
 71
3
 72
8
 73
4
 74
0
 40
0
 40
0
 40
0
 40
0
 40
1
 40
1
 40
1
 40
1
 10
152.964126
 20
242.665878
 30
0.0
 10
153.847782
 20
242.665878
 30
0.0
 10
154.564126
 20
241.949534
 30
0.0
 10
154.564126
 20
241.065878
 30
0.0
  0
LWPOLYLINE
  5
10e
100
AcDbEntity
  8
Layer_1
 62
7
100
AcDbPolyline
 90
2
 70
0
 10
98.684126
 20
118.565881
 30
0.0
 10
98.684126
 20
118.565881
 30
0.0
  0
SPLINE
  5
10f
100
AcDbEntity
  8
Layer_1
 62
7
100
AcDbSpline
 70
8
 71
3
 72
8
 73
4
 74
0
 40
0
 40
0
 40
0
 40
0
 40
1
 40
1
 40
1
 40
1
 10
154.564126
 20
118.565881
 30
0.0
 10
154.564126
 20
117.682221
 30
0.0
 10
153.847782
 20
116.965881
 30
0.0
 10
152.964126
 20
116.965881
 30
0.0
  0
SPLINE
  5
110
100
AcDbEntity
  8
Layer_1
 62
7
100
AcDbSpline
 70
8
 71
3
 72
8
 73
4
 74
0
 40
0
 40
0
 40
0
 40
0
 40
1
 40
1
 40
1
 40
1
 10
152.964126
 20
116.965881
 30
0.0
 10
152.080470
 20
116.965881
 30
0.0
 10
151.364126
 20
117.682221
 30
0.0
 10
151.364126
 20
118.565881
 30
0.0
  0
SPLINE
  5
111
100
AcDbEntity
  8
Layer_1
 62
7
100
AcDbSpline
 70
8
 71
3
 72
8
 73
4
 74
0
 40
0
 40
0
 40
0
 40
0
 40
1
 40
1
 40
1
 40
1
 10
151.364126
 20
118.565881
 30
0.0
 10
151.364126
 20
119.449541
 30
0.0
 10
152.080470
 20
120.165881
 30
0.0
 10
152.964126
 20
120.165881
 30
0.0
  0
SPLINE
  5
112
100
AcDbEntity
  8
Layer_1
 62
7
100
AcDbSpline
 70
8
 71
3
 72
8
 73
4
 74
0
 40
0
 40
0
 40
0
 40
0
 40
1
 40
1
 40
1
 40
1
 10
152.964126
 20
120.165881
 30
0.0
 10
153.847782
 20
120.165881
 30
0.0
 10
154.564126
 20
119.449541
 30
0.0
 10
154.564126
 20
118.565881
 30
0.0
  0
LWPOLYLINE
  5
113
100
AcDbEntity
  8
Layer_1
 62
7
100
AcDbPolyline
 90
2
 70
0
 10
154.564126
 20
241.065878
 30
0.0
 10
154.564126
 20
241.065878
 30
0.0
  0
SPLINE
  5
114
100
AcDbEntity
  8
Layer_1
 62
7
100
AcDbSpline
 70
8
 71
3
 72
8
 73
4
 74
0
 40
0
 40
0
 40
0
 40
0
 40
1
 40
1
 40
1
 40
1
 10
118.634126
 20
222.665878
 30
0.0
 10
116.012107
 20
222.665878
 30
0.0
 10
113.879429
 20
220.542514
 30
0.0
 10
113.879429
 20
217.920511
 30
0.0
  0
SPLINE
  5
115
100
AcDbEntity
  8
Layer_1
 62
7
100
AcDbSpline
 70
8
 71
3
 72
8
 73
4
 74
0
 40
0
 40
0
 40
0
 40
0
 40
1
 40
1
 40
1
 40
1
 10
113.879429
 20
217.920511
 30
0.0
 10
113.879429
 20
215.776715
 30
0.0
 10
115.305624
 20
213.960160
 30
0.0
 10
117.257030
 20
213.370531
 30
0.0
  0
LWPOLYLINE
  5
116
100
AcDbEntity
  8
Layer_1
 62
7
100
AcDbPolyline
 90
2
 70
0
 10
154.564126
 20
118.565881
 30
0.0
 10
154.564126
 20
118.565881
 30
0.0
  0
SPLINE
  5
117
100
AcDbEntity
  8
Layer_1
 62
7
100
AcDbSpline
 70
8
 71
3
 72
8
 73
4
 74
0
 40
0
 40
0
 40
0
 40
0
 40
1
 40
1
 40
1
 40
1
 10
119.899566
 20
213.342619
 30
0.0
 10
121.903050
 20
213.899199
 30
0.0
 10
123.379522
 20
215.739686
 30
0.0
 10
123.379522
 20
217.920511
 30
0.0
  0
SPLINE
  5
118
100
AcDbEntity
  8
Layer_1
 62
7
100
AcDbSpline
 70
8
 71
3
 72
8
 73
4
 74
0
 40
0
 40
0
 40
0
 40
0
 40
1
 40
1
 40
1
 40
1
 10
123.379522
 20
217.920511
 30
0.0
 10
123.379522
 20
220.542514
 30
0.0
 10
121.256153
 20
222.665878
 30
0.0
 10
118.634126
 20
222.665878
 30
0.0
  0
LWPOLYLINE
  5
119
100
AcDbEntity
  8
Layer_1
 62
7
100
AcDbPolyline
 90
4
 70
0
 10
117.257030
 20
213.370531
 30
0.0
 10
117.257030
 20
210.690785
 30
0.0
 10
119.899566
 20
210.690785
 30
0.0
 10
119.899566
 20
213.342619
 30
0.0
  0
SPLINE
  5
11a
100
AcDbEntity
  8
Layer_1
 62
1
100
AcDbSpline
 70
8
 71
3
 72
8
 73
4
 74
0
 40
0
 40
0
 40
0
 40
0
 40
1
 40
1
 40
1
 40
1
 10
114.430351
 20
210.334386
 30
0.0
 10
111.799494
 20
211.804386
 30
0.0
 10
110.022114
 20
214.614386
 30
0.0
 10
110.022114
 20
217.844389
 30
0.0
  0
SPLINE
  5
11b
100
AcDbEntity
  8
Layer_1
 62
1
100
AcDbSpline
 70
8
 71
3
 72
8
 73
4
 74
0
 40
0
 40
0
 40
0
 40
0
 40
1
 40
1
 40
1
 40
1
 10
110.022114
 20
217.844389
 30
0.0
 10
110.022114
 20
222.594393
 30
0.0
 10
113.884954
 20
226.454394
 30
0.0
 10
118.650337
 20
226.454394
 30
0.0
  0
SPLINE
  5
11c
100
AcDbEntity
  8
Layer_1
 62
1
100
AcDbSpline
 70
8
 71
3
 72
8
 73
4
 74
0
 40
0
 40
0
 40
0
 40
0
 40
1
 40
1
 40
1
 40
1
 10
118.650337
 20
226.454394
 30
0.0
 10
123.414384
 20
226.454394
 30
0.0
 10
127.277892
 20
222.594393
 30
0.0
 10
127.277892
 20
217.844389
 30
0.0
  0
SPLINE
  5
11d
100
AcDbEntity
  8
Layer_1
 62
1
100
AcDbSpline
 70
8
 71
3
 72
8
 73
4
 74
0
 40
0
 40
0
 40
0
 40
0
 40
1
 40
1
 40
1
 40
1
 10
127.277892
 20
217.844389
 30
0.0
 10
127.277892
 20
214.614386
 30
0.0
 10
125.497841
 20
211.804386
 30
0.0
 10
122.863313
 20
210.324386
 30
0.0
  0
LWPOLYLINE
  5
11e
100
AcDbEntity
  8
Layer_1
 62
7
100
AcDbPolyline
 90
2
 70
0
 10
118.634126
 20
222.665878
 30
0.0
 10
118.634126
 20
222.665878
 30
0.0
  0
LWPOLYLINE
  5
11f
100
AcDbEntity
  8
Layer_1
 62
1
100
AcDbPolyline
 90
2
 70
0
 10
116.193713
 20
226.964395
 30
0.0
 10
116.410036
 20
226.154394
 30
0.0
  0
LWPOLYLINE
  5
120
100
AcDbEntity
  8
Layer_1
 62
1
100
AcDbPolyline
 90
2
 70
0
 10
113.521133
 20
226.694394
 30
0.0
 10
114.329215
 20
225.294394
 30
0.0
  0
LWPOLYLINE
  5
121
100
AcDbEntity
  8
Layer_1
 62
1
100
AcDbPolyline
 90
2
 70
0
 10
111.954034
 20
224.514394
 30
0.0
 10
112.543157
 20
223.924394
 30
0.0
  0
LWPOLYLINE
  5
122
100
AcDbEntity
  8
Layer_1
 62
1
100
AcDbPolyline
 90
2
 70
0
 10
109.787466
 20
222.944394
 30
0.0
 10
111.172321
 20
222.144393
 30
0.0
  0
LWPOLYLINE
  5
123
100
AcDbEntity
  8
Layer_1
 62
1
100
AcDbPolyline
 90
2
 70
0
 10
109.507424
 20
220.284391
 30
0.0
 10
110.311835
 20
220.064391
 30
0.0
  0
LWPOLYLINE
  5
124
100
AcDbEntity
  8
Layer_1
 62
1
100
AcDbPolyline
 90
2
 70
0
 10
108.412625
 20
217.834389
 30
0.0
 10
110.018776
 20
217.834389
 30
0.0
  0
LWPOLYLINE
  5
125
100
AcDbEntity
  8
Layer_1
 62
1
100
AcDbPolyline
 90
2
 70
0
 10
109.509761
 20
215.394387
 30
0.0
 10
110.314171
 20
215.614387
 30
0.0
  0
LWPOLYLINE
  5
126
100
AcDbEntity
  8
Layer_1
 62
1
100
AcDbPolyline
 90
2
 70
0
 10
109.785130
 20
212.734387
 30
0.0
 10
111.176660
 20
213.534387
 30
0.0
  0
LWPOLYLINE
  5
127
100
AcDbEntity
  8
Layer_1
 62
1
100
AcDbPolyline
 90
2
 70
0
 10
111.960376
 20
211.164386
 30
0.0
 10
112.548164
 20
211.754386
 30
0.0
  0
LWPOLYLINE
  5
128
100
AcDbEntity
  8
Layer_1
 62
1
100
AcDbPolyline
 90
2
 70
0
 10
113.559852
 20
209.044385
 30
0.0
 10
114.336225
 20
210.384386
 30
0.0
  0
LWPOLYLINE
  5
129
100
AcDbEntity
  8
Layer_1
 62
1
100
AcDbPolyline
 90
2
 70
0
 10
123.747797
 20
209.034385
 30
0.0
 10
122.964114
 20
210.394386
 30
0.0
  0
LWPOLYLINE
  5
12a
100
AcDbEntity
  8
Layer_1
 62
1
100
AcDbPolyline
 90
2
 70
0
 10
125.338962
 20
211.174386
 30
0.0
 10
124.750173
 20
211.754386
 30
0.0
  0
LWPOLYLINE
  5
12b
100
AcDbEntity
  8
Layer_1
 62
1
100
AcDbPolyline
 90
2
 70
0
 10
127.480496
 20
212.754387
 30
0.0
 10
126.120342
 20
213.544387
 30
0.0
  0
LWPOLYLINE
  5
12c
100
AcDbEntity
  8
Layer_1
 62
1
100
AcDbPolyline
 90
2
 70
0
 10
127.785237
 20
215.404387
 30
0.0
 10
126.981528
 20
215.624387
 30
0.0
  0
LWPOLYLINE
  5
12d
100
AcDbEntity
  8
Layer_1
 62
1
100
AcDbPolyline
 90
2
 70
0
 10
128.829636
 20
217.844389
 30
0.0
 10
127.274220
 20
217.844389
 30
0.0
  0
LWPOLYLINE
  5
12e
100
AcDbEntity
  8
Layer_1
 62
1
100
AcDbPolyline
 90
2
 70
0
 10
127.782934
 20
220.294391
 30
0.0
 10
126.978824
 20
220.074391
 30
0.0
  0
LWPOLYLINE
  5
12f
100
AcDbEntity
  8
Layer_1
 62
1
100
AcDbPolyline
 90
2
 70
0
 10
127.470816
 20
222.934394
 30
0.0
 10
126.116670
 20
222.154393
 30
0.0
  0
LWPOLYLINE
  5
130
100
AcDbEntity
  8
Layer_1
 62
1
100
AcDbPolyline
 90
2
 70
0
 10
125.333254
 20
224.524394
 30
0.0
 10
124.744833
 20
223.934394
 30
0.0
  0
LWPOLYLINE
  5
131
100
AcDbEntity
  8
Layer_1
 62
1
100
AcDbPolyline
 90
2
 70
0
 10
123.765855
 20
226.694394
 30
0.0
 10
122.957105
 20
225.304394
 30
0.0
  0
LWPOLYLINE
  5
132
100
AcDbEntity
  8
Layer_1
 62
1
100
AcDbPolyline
 90
2
 70
0
 10
121.090939
 20
226.964395
 30
0.0
 10
120.875651
 20
226.164394
 30
0.0
  0
SPLINE
  5
133
100
AcDbEntity
  8
Layer_1
 62
7
100
AcDbSpline
 70
8
 71
3
 72
8
 73
4
 74
0
 40
0
 40
0
 40
0
 40
0
 40
1
 40
1
 40
1
 40
1
 10
144.034125
 20
222.665878
 30
0.0
 10
141.412106
 20
222.665878
 30
0.0
 10
139.279428
 20
220.542514
 30
0.0
 10
139.279428
 20
217.920511
 30
0.0
  0
SPLINE
  5
134
100
AcDbEntity
  8
Layer_1
 62
7
100
AcDbSpline
 70
8
 71
3
 72
8
 73
4
 74
0
 40
0
 40
0
 40
0
 40
0
 40
1
 40
1
 40
1
 40
1
 10
139.279428
 20
217.920511
 30
0.0
 10
139.279428
 20
215.776715
 30
0.0
 10
140.705623
 20
213.960160
 30
0.0
 10
142.657029
 20
213.370531
 30
0.0
  0
LWPOLYLINE
  5
135
100
AcDbEntity
  8
Layer_1
 62
1
100
AcDbPolyline
 90
2
 70
0
 10
118.641959
 20
228.044395
 30
0.0
 10
118.641959
 20
226.454394
 30
0.0
  0
SPLINE
  5
136
100
AcDbEntity
  8
Layer_1
 62
7
100
AcDbSpline
 70
8
 71
3
 72
8
 73
4
 74
0
 40
0
 40
0
 40
0
 40
0
 40
1
 40
1
 40
1
 40
1
 10
145.299565
 20
213.342619
 30
0.0
 10
147.303049
 20
213.899199
 30
0.0
 10
148.779521
 20
215.739686
 30
0.0
 10
148.779521
 20
217.920511
 30
0.0
  0
SPLINE
  5
137
100
AcDbEntity
  8
Layer_1
 62
7
100
AcDbSpline
 70
8
 71
3
 72
8
 73
4
 74
0
 40
0
 40
0
 40
0
 40
0
 40
1
 40
1
 40
1
 40
1
 10
148.779521
 20
217.920511
 30
0.0
 10
148.779521
 20
220.542514
 30
0.0
 10
146.656152
 20
222.665878
 30
0.0
 10
144.034125
 20
222.665878
 30
0.0
  0
LWPOLYLINE
  5
138
100
AcDbEntity
  8
Layer_1
 62
7
100
AcDbPolyline
 90
4
 70
0
 10
142.657029
 20
213.370531
 30
0.0
 10
142.657029
 20
210.690785
 30
0.0
 10
145.299565
 20
210.690785
 30
0.0
 10
145.299565
 20
213.342619
 30
0.0
  0
SPLINE
  5
139
100
AcDbEntity
  8
Layer_1
 62
1
100
AcDbSpline
 70
8
 71
3
 72
8
 73
4
 74
0
 40
0
 40
0
 40
0
 40
0
 40
1
 40
1
 40
1
 40
1
 10
139.830350
 20
210.334386
 30
0.0
 10
137.199494
 20
211.804386
 30
0.0
 10
135.422113
 20
214.614386
 30
0.0
 10
135.422113
 20
217.844389
 30
0.0
  0
SPLINE
  5
13a
100
AcDbEntity
  8
Layer_1
 62
1
100
AcDbSpline
 70
8
 71
3
 72
8
 73
4
 74
0
 40
0
 40
0
 40
0
 40
0
 40
1
 40
1
 40
1
 40
1
 10
135.422113
 20
217.844389
 30
0.0
 10
135.422113
 20
222.594393
 30
0.0
 10
139.284953
 20
226.454394
 30
0.0
 10
144.050336
 20
226.454394
 30
0.0
  0
SPLINE
  5
13b
100
AcDbEntity
  8
Layer_1
 62
1
100
AcDbSpline
 70
8
 71
3
 72
8
 73
4
 74
0
 40
0
 40
0
 40
0
 40
0
 40
1
 40
1
 40
1
 40
1
 10
144.050336
 20
226.454394
 30
0.0
 10
148.814383
 20
226.454394
 30
0.0
 10
152.677891
 20
222.594393
 30
0.0
 10
152.677891
 20
217.844389
 30
0.0
  0
SPLINE
  5
13c
100
AcDbEntity
  8
Layer_1
 62
1
100
AcDbSpline
 70
8
 71
3
 72
8
 73
4
 74
0
 40
0
 40
0
 40
0
 40
0
 40
1
 40
1
 40
1
 40
1
 10
152.677891
 20
217.844389
 30
0.0
 10
152.677891
 20
214.614386
 30
0.0
 10
150.897840
 20
211.804386
 30
0.0
 10
148.263312
 20
210.324386
 30
0.0
  0
LWPOLYLINE
  5
13d
100
AcDbEntity
  8
Layer_1
 62
7
100
AcDbPolyline
 90
2
 70
0
 10
144.034125
 20
222.665878
 30
0.0
 10
144.034125
 20
222.665878
 30
0.0
  0
LWPOLYLINE
  5
13e
100
AcDbEntity
  8
Layer_1
 62
1
100
AcDbPolyline
 90
2
 70
0
 10
141.593712
 20
226.964395
 30
0.0
 10
141.810035
 20
226.154394
 30
0.0
  0
LWPOLYLINE
  5
13f
100
AcDbEntity
  8
Layer_1
 62
1
100
AcDbPolyline
 90
2
 70
0
 10
138.921133
 20
226.694394
 30
0.0
 10
139.729215
 20
225.294394
 30
0.0
  0
LWPOLYLINE
  5
140
100
AcDbEntity
  8
Layer_1
 62
1
100
AcDbPolyline
 90
2
 70
0
 10
137.354034
 20
224.514394
 30
0.0
 10
137.943156
 20
223.924394
 30
0.0
  0
LWPOLYLINE
  5
141
100
AcDbEntity
  8
Layer_1
 62
1
100
AcDbPolyline
 90
2
 70
0
 10
135.187465
 20
222.944394
 30
0.0
 10
136.572320
 20
222.144393
 30
0.0
  0
LWPOLYLINE
  5
142
100
AcDbEntity
  8
Layer_1
 62
1
100
AcDbPolyline
 90
2
 70
0
 10
134.907424
 20
220.284391
 30
0.0
 10
135.711834
 20
220.064391
 30
0.0
  0
LWPOLYLINE
  5
143
100
AcDbEntity
  8
Layer_1
 62
1
100
AcDbPolyline
 90
2
 70
0
 10
133.812624
 20
217.834389
 30
0.0
 10
135.418775
 20
217.834389
 30
0.0
  0
LWPOLYLINE
  5
144
100
AcDbEntity
  8
Layer_1
 62
1
100
AcDbPolyline
 90
2
 70
0
 10
134.909760
 20
215.394387
 30
0.0
 10
135.714171
 20
215.614387
 30
0.0
  0
LWPOLYLINE
  5
145
100
AcDbEntity
  8
Layer_1
 62
1
100
AcDbPolyline
 90
2
 70
0
 10
135.185129
 20
212.734387
 30
0.0
 10
136.576659
 20
213.534387
 30
0.0
  0
LWPOLYLINE
  5
146
100
AcDbEntity
  8
Layer_1
 62
1
100
AcDbPolyline
 90
2
 70
0
 10
137.360376
 20
211.164386
 30
0.0
 10
137.948163
 20
211.754386
 30
0.0
  0
LWPOLYLINE
  5
147
100
AcDbEntity
  8
Layer_1
 62
1
100
AcDbPolyline
 90
2
 70
0
 10
138.959851
 20
209.044385
 30
0.0
 10
139.736224
 20
210.384386
 30
0.0
  0
LWPOLYLINE
  5
148
100
AcDbEntity
  8
Layer_1
 62
1
100
AcDbPolyline
 90
2
 70
0
 10
149.147796
 20
209.034385
 30
0.0
 10
148.364113
 20
210.394386
 30
0.0
  0
LWPOLYLINE
  5
149
100
AcDbEntity
  8
Layer_1
 62
1
100
AcDbPolyline
 90
2
 70
0
 10
150.738961
 20
211.174386
 30
0.0
 10
150.150172
 20
211.754386
 30
0.0
  0
LWPOLYLINE
  5
14a
100
AcDbEntity
  8
Layer_1
 62
1
100
AcDbPolyline
 90
2
 70
0
 10
152.880496
 20
212.754387
 30
0.0
 10
151.520341
 20
213.544387
 30
0.0
  0
LWPOLYLINE
  5
14b
100
AcDbEntity
  8
Layer_1
 62
1
100
AcDbPolyline
 90
2
 70
0
 10
153.185237
 20
215.404387
 30
0.0
 10
152.381527
 20
215.624387
 30
0.0
  0
LWPOLYLINE
  5
14c
100
AcDbEntity
  8
Layer_1
 62
1
100
AcDbPolyline
 90
2
 70
0
 10
154.229636
 20
217.844389
 30
0.0
 10
152.674219
 20
217.844389
 30
0.0
  0
LWPOLYLINE
  5
14d
100
AcDbEntity
  8
Layer_1
 62
1
100
AcDbPolyline
 90
2
 70
0
 10
153.182934
 20
220.294391
 30
0.0
 10
152.378823
 20
220.074391
 30
0.0
  0
LWPOLYLINE
  5
14e
100
AcDbEntity
  8
Layer_1
 62
1
100
AcDbPolyline
 90
2
 70
0
 10
152.870816
 20
222.934394
 30
0.0
 10
151.516669
 20
222.154393
 30
0.0
  0
LWPOLYLINE
  5
14f
100
AcDbEntity
  8
Layer_1
 62
1
100
AcDbPolyline
 90
2
 70
0
 10
150.733253
 20
224.524394
 30
0.0
 10
150.144832
 20
223.934394
 30
0.0
  0
LWPOLYLINE
  5
150
100
AcDbEntity
  8
Layer_1
 62
1
100
AcDbPolyline
 90
2
 70
0
 10
149.165854
 20
226.694394
 30
0.0
 10
148.357104
 20
225.304394
 30
0.0
  0
LWPOLYLINE
  5
151
100
AcDbEntity
  8
Layer_1
 62
1
100
AcDbPolyline
 90
2
 70
0
 10
146.490938
 20
226.964395
 30
0.0
 10
146.275650
 20
226.164394
 30
0.0
  0
SPLINE
  5
152
100
AcDbEntity
  8
Layer_1
 62
7
100
AcDbSpline
 70
8
 71
3
 72
8
 73
4
 74
0
 40
0
 40
0
 40
0
 40
0
 40
1
 40
1
 40
1
 40
1
 10
118.634126
 20
203.615879
 30
0.0
 10
116.012107
 20
203.615879
 30
0.0
 10
113.879429
 20
201.492515
 30
0.0
 10
113.879429
 20
198.870511
 30
0.0
  0
SPLINE
  5
153
100
AcDbEntity
  8
Layer_1
 62
7
100
AcDbSpline
 70
8
 71
3
 72
8
 73
4
 74
0
 40
0
 40
0
 40
0
 40
0
 40
1
 40
1
 40
1
 40
1
 10
113.879429
 20
198.870511
 30
0.0
 10
113.879429
 20
196.726715
 30
0.0
 10
115.305624
 20
194.910160
 30
0.0
 10
117.257030
 20
194.320531
 30
0.0
  0
LWPOLYLINE
  5
154
100
AcDbEntity
  8
Layer_1
 62
1
100
AcDbPolyline
 90
2
 70
0
 10
144.041958
 20
228.044395
 30
0.0
 10
144.041958
 20
226.454394
 30
0.0
  0
SPLINE
  5
155
100
AcDbEntity
  8
Layer_1
 62
7
100
AcDbSpline
 70
8
 71
3
 72
8
 73
4
 74
0
 40
0
 40
0
 40
0
 40
0
 40
1
 40
1
 40
1
 40
1
 10
119.899566
 20
194.292619
 30
0.0
 10
121.903050
 20
194.849199
 30
0.0
 10
123.379522
 20
196.689686
 30
0.0
 10
123.379522
 20
198.870511
 30
0.0
  0
SPLINE
  5
156
100
AcDbEntity
  8
Layer_1
 62
7
100
AcDbSpline
 70
8
 71
3
 72
8
 73
4
 74
0
 40
0
 40
0
 40
0
 40
0
 40
1
 40
1
 40
1
 40
1
 10
123.379522
 20
198.870511
 30
0.0
 10
123.379522
 20
201.492515
 30
0.0
 10
121.256153
 20
203.615879
 30
0.0
 10
118.634126
 20
203.615879
 30
0.0
  0
LWPOLYLINE
  5
157
100
AcDbEntity
  8
Layer_1
 62
7
100
AcDbPolyline
 90
4
 70
0
 10
117.257030
 20
194.320531
 30
0.0
 10
117.257030
 20
191.640785
 30
0.0
 10
119.899566
 20
191.640785
 30
0.0
 10
119.899566
 20
194.292619
 30
0.0
  0
SPLINE
  5
158
100
AcDbEntity
  8
Layer_1
 62
1
100
AcDbSpline
 70
8
 71
3
 72
8
 73
4
 74
0
 40
0
 40
0
 40
0
 40
0
 40
1
 40
1
 40
1
 40
1
 10
114.430351
 20
191.284386
 30
0.0
 10
111.799494
 20
192.754387
 30
0.0
 10
110.022114
 20
195.564387
 30
0.0
 10
110.022114
 20
198.794390
 30
0.0
  0
SPLINE
  5
159
100
AcDbEntity
  8
Layer_1
 62
1
100
AcDbSpline
 70
8
 71
3
 72
8
 73
4
 74
0
 40
0
 40
0
 40
0
 40
0
 40
1
 40
1
 40
1
 40
1
 10
110.022114
 20
198.794390
 30
0.0
 10
110.022114
 20
203.544393
 30
0.0
 10
113.884954
 20
207.404394
 30
0.0
 10
118.650337
 20
207.404394
 30
0.0
  0
SPLINE
  5
15a
100
AcDbEntity
  8
Layer_1
 62
1
100
AcDbSpline
 70
8
 71
3
 72
8
 73
4
 74
0
 40
0
 40
0
 40
0
 40
0
 40
1
 40
1
 40
1
 40
1
 10
118.650337
 20
207.404394
 30
0.0
 10
123.414384
 20
207.404394
 30
0.0
 10
127.277892
 20
203.544393
 30
0.0
 10
127.277892
 20
198.794390
 30
0.0
  0
SPLINE
  5
15b
100
AcDbEntity
  8
Layer_1
 62
1
100
AcDbSpline
 70
8
 71
3
 72
8
 73
4
 74
0
 40
0
 40
0
 40
0
 40
0
 40
1
 40
1
 40
1
 40
1
 10
127.277892
 20
198.794390
 30
0.0
 10
127.277892
 20
195.564387
 30
0.0
 10
125.497841
 20
192.754387
 30
0.0
 10
122.863313
 20
191.274386
 30
0.0
  0
LWPOLYLINE
  5
15c
100
AcDbEntity
  8
Layer_1
 62
7
100
AcDbPolyline
 90
2
 70
0
 10
118.634126
 20
203.615879
 30
0.0
 10
118.634126
 20
203.615879
 30
0.0
  0
LWPOLYLINE
  5
15d
100
AcDbEntity
  8
Layer_1
 62
1
100
AcDbPolyline
 90
2
 70
0
 10
116.193713
 20
207.914395
 30
0.0
 10
116.410036
 20
207.104394
 30
0.0
  0
LWPOLYLINE
  5
15e
100
AcDbEntity
  8
Layer_1
 62
1
100
AcDbPolyline
 90
2
 70
0
 10
113.521133
 20
207.644394
 30
0.0
 10
114.329215
 20
206.244394
 30
0.0
  0
LWPOLYLINE
  5
15f
100
AcDbEntity
  8
Layer_1
 62
1
100
AcDbPolyline
 90
2
 70
0
 10
111.954034
 20
205.464394
 30
0.0
 10
112.543157
 20
204.874394
 30
0.0
  0
LWPOLYLINE
  5
160
100
AcDbEntity
  8
Layer_1
 62
1
100
AcDbPolyline
 90
2
 70
0
 10
109.787466
 20
203.894394
 30
0.0
 10
111.172321
 20
203.094393
 30
0.0
  0
LWPOLYLINE
  5
161
100
AcDbEntity
  8
Layer_1
 62
1
100
AcDbPolyline
 90
2
 70
0
 10
109.507424
 20
201.234391
 30
0.0
 10
110.311835
 20
201.014391
 30
0.0
  0
LWPOLYLINE
  5
162
100
AcDbEntity
  8
Layer_1
 62
1
100
AcDbPolyline
 90
2
 70
0
 10
108.412625
 20
198.784390
 30
0.0
 10
110.018776
 20
198.784390
 30
0.0
  0
LWPOLYLINE
  5
163
100
AcDbEntity
  8
Layer_1
 62
1
100
AcDbPolyline
 90
2
 70
0
 10
109.509761
 20
196.344387
 30
0.0
 10
110.314171
 20
196.564388
 30
0.0
  0
LWPOLYLINE
  5
164
100
AcDbEntity
  8
Layer_1
 62
1
100
AcDbPolyline
 90
2
 70
0
 10
109.785130
 20
193.684387
 30
0.0
 10
111.176660
 20
194.484387
 30
0.0
  0
LWPOLYLINE
  5
165
100
AcDbEntity
  8
Layer_1
 62
1
100
AcDbPolyline
 90
2
 70
0
 10
111.960376
 20
192.114387
 30
0.0
 10
112.548164
 20
192.704387
 30
0.0
  0
LWPOLYLINE
  5
166
100
AcDbEntity
  8
Layer_1
 62
1
100
AcDbPolyline
 90
2
 70
0
 10
113.559852
 20
189.994385
 30
0.0
 10
114.336225
 20
191.334386
 30
0.0
  0
LWPOLYLINE
  5
167
100
AcDbEntity
  8
Layer_1
 62
1
100
AcDbPolyline
 90
2
 70
0
 10
123.747797
 20
189.984385
 30
0.0
 10
122.964114
 20
191.344386
 30
0.0
  0
LWPOLYLINE
  5
168
100
AcDbEntity
  8
Layer_1
 62
1
100
AcDbPolyline
 90
2
 70
0
 10
125.338962
 20
192.124387
 30
0.0
 10
124.750173
 20
192.704387
 30
0.0
  0
LWPOLYLINE
  5
169
100
AcDbEntity
  8
Layer_1
 62
1
100
AcDbPolyline
 90
2
 70
0
 10
127.480496
 20
193.704387
 30
0.0
 10
126.120342
 20
194.494387
 30
0.0
  0
LWPOLYLINE
  5
16a
100
AcDbEntity
  8
Layer_1
 62
1
100
AcDbPolyline
 90
2
 70
0
 10
127.785237
 20
196.354387
 30
0.0
 10
126.981528
 20
196.574388
 30
0.0
  0
LWPOLYLINE
  5
16b
100
AcDbEntity
  8
Layer_1
 62
1
100
AcDbPolyline
 90
2
 70
0
 10
128.829636
 20
198.794390
 30
0.0
 10
127.274220
 20
198.794390
 30
0.0
  0
LWPOLYLINE
  5
16c
100
AcDbEntity
  8
Layer_1
 62
1
100
AcDbPolyline
 90
2
 70
0
 10
127.782934
 20
201.244392
 30
0.0
 10
126.978824
 20
201.024391
 30
0.0
  0
LWPOLYLINE
  5
16d
100
AcDbEntity
  8
Layer_1
 62
1
100
AcDbPolyline
 90
2
 70
0
 10
127.470816
 20
203.884394
 30
0.0
 10
126.116670
 20
203.104393
 30
0.0
  0
LWPOLYLINE
  5
16e
100
AcDbEntity
  8
Layer_1
 62
1
100
AcDbPolyline
 90
2
 70
0
 10
125.333254
 20
205.474394
 30
0.0
 10
124.744833
 20
204.884394
 30
0.0
  0
LWPOLYLINE
  5
16f
100
AcDbEntity
  8
Layer_1
 62
1
100
AcDbPolyline
 90
2
 70
0
 10
123.765855
 20
207.644394
 30
0.0
 10
122.957105
 20
206.254394
 30
0.0
  0
LWPOLYLINE
  5
170
100
AcDbEntity
  8
Layer_1
 62
1
100
AcDbPolyline
 90
2
 70
0
 10
121.090939
 20
207.914395
 30
0.0
 10
120.875651
 20
207.114394
 30
0.0
  0
SPLINE
  5
171
100
AcDbEntity
  8
Layer_1
 62
7
100
AcDbSpline
 70
8
 71
3
 72
8
 73
4
 74
0
 40
0
 40
0
 40
0
 40
0
 40
1
 40
1
 40
1
 40
1
 10
144.034125
 20
203.615879
 30
0.0
 10
141.412106
 20
203.615879
 30
0.0
 10
139.279428
 20
201.492515
 30
0.0
 10
139.279428
 20
198.870511
 30
0.0
  0
SPLINE
  5
172
100
AcDbEntity
  8
Layer_1
 62
7
100
AcDbSpline
 70
8
 71
3
 72
8
 73
4
 74
0
 40
0
 40
0
 40
0
 40
0
 40
1
 40
1
 40
1
 40
1
 10
139.279428
 20
198.870511
 30
0.0
 10
139.279428
 20
196.726715
 30
0.0
 10
140.705623
 20
194.910160
 30
0.0
 10
142.657029
 20
194.320531
 30
0.0
  0
LWPOLYLINE
  5
173
100
AcDbEntity
  8
Layer_1
 62
1
100
AcDbPolyline
 90
2
 70
0
 10
118.641959
 20
208.994396
 30
0.0
 10
118.641959
 20
207.404394
 30
0.0
  0
SPLINE
  5
174
100
AcDbEntity
  8
Layer_1
 62
7
100
AcDbSpline
 70
8
 71
3
 72
8
 73
4
 74
0
 40
0
 40
0
 40
0
 40
0
 40
1
 40
1
 40
1
 40
1
 10
145.299565
 20
194.292619
 30
0.0
 10
147.303049
 20
194.849199
 30
0.0
 10
148.779521
 20
196.689686
 30
0.0
 10
148.779521
 20
198.870511
 30
0.0
  0
SPLINE
  5
175
100
AcDbEntity
  8
Layer_1
 62
7
100
AcDbSpline
 70
8
 71
3
 72
8
 73
4
 74
0
 40
0
 40
0
 40
0
 40
0
 40
1
 40
1
 40
1
 40
1
 10
148.779521
 20
198.870511
 30
0.0
 10
148.779521
 20
201.492515
 30
0.0
 10
146.656152
 20
203.615879
 30
0.0
 10
144.034125
 20
203.615879
 30
0.0
  0
LWPOLYLINE
  5
176
100
AcDbEntity
  8
Layer_1
 62
7
100
AcDbPolyline
 90
4
 70
0
 10
142.657029
 20
194.320531
 30
0.0
 10
142.657029
 20
191.640785
 30
0.0
 10
145.299565
 20
191.640785
 30
0.0
 10
145.299565
 20
194.292619
 30
0.0
  0
SPLINE
  5
177
100
AcDbEntity
  8
Layer_1
 62
1
100
AcDbSpline
 70
8
 71
3
 72
8
 73
4
 74
0
 40
0
 40
0
 40
0
 40
0
 40
1
 40
1
 40
1
 40
1
 10
139.830350
 20
191.284386
 30
0.0
 10
137.199494
 20
192.754387
 30
0.0
 10
135.422113
 20
195.564387
 30
0.0
 10
135.422113
 20
198.794390
 30
0.0
  0
SPLINE
  5
178
100
AcDbEntity
  8
Layer_1
 62
1
100
AcDbSpline
 70
8
 71
3
 72
8
 73
4
 74
0
 40
0
 40
0
 40
0
 40
0
 40
1
 40
1
 40
1
 40
1
 10
135.422113
 20
198.794390
 30
0.0
 10
135.422113
 20
203.544393
 30
0.0
 10
139.284953
 20
207.404394
 30
0.0
 10
144.050336
 20
207.404394
 30
0.0
  0
SPLINE
  5
179
100
AcDbEntity
  8
Layer_1
 62
1
100
AcDbSpline
 70
8
 71
3
 72
8
 73
4
 74
0
 40
0
 40
0
 40
0
 40
0
 40
1
 40
1
 40
1
 40
1
 10
144.050336
 20
207.404394
 30
0.0
 10
148.814383
 20
207.404394
 30
0.0
 10
152.677891
 20
203.544393
 30
0.0
 10
152.677891
 20
198.794390
 30
0.0
  0
SPLINE
  5
17a
100
AcDbEntity
  8
Layer_1
 62
1
100
AcDbSpline
 70
8
 71
3
 72
8
 73
4
 74
0
 40
0
 40
0
 40
0
 40
0
 40
1
 40
1
 40
1
 40
1
 10
152.677891
 20
198.794390
 30
0.0
 10
152.677891
 20
195.564387
 30
0.0
 10
150.897840
 20
192.754387
 30
0.0
 10
148.263312
 20
191.274386
 30
0.0
  0
LWPOLYLINE
  5
17b
100
AcDbEntity
  8
Layer_1
 62
7
100
AcDbPolyline
 90
2
 70
0
 10
144.034125
 20
203.615879
 30
0.0
 10
144.034125
 20
203.615879
 30
0.0
  0
LWPOLYLINE
  5
17c
100
AcDbEntity
  8
Layer_1
 62
1
100
AcDbPolyline
 90
2
 70
0
 10
141.593712
 20
207.914395
 30
0.0
 10
141.810035
 20
207.104394
 30
0.0
  0
LWPOLYLINE
  5
17d
100
AcDbEntity
  8
Layer_1
 62
1
100
AcDbPolyline
 90
2
 70
0
 10
138.921133
 20
207.644394
 30
0.0
 10
139.729215
 20
206.244394
 30
0.0
  0
LWPOLYLINE
  5
17e
100
AcDbEntity
  8
Layer_1
 62
1
100
AcDbPolyline
 90
2
 70
0
 10
137.354034
 20
205.464394
 30
0.0
 10
137.943156
 20
204.874394
 30
0.0
  0
LWPOLYLINE
  5
17f
100
AcDbEntity
  8
Layer_1
 62
1
100
AcDbPolyline
 90
2
 70
0
 10
135.187465
 20
203.894394
 30
0.0
 10
136.572320
 20
203.094393
 30
0.0
  0
LWPOLYLINE
  5
180
100
AcDbEntity
  8
Layer_1
 62
1
100
AcDbPolyline
 90
2
 70
0
 10
134.907424
 20
201.234391
 30
0.0
 10
135.711834
 20
201.014391
 30
0.0
  0
LWPOLYLINE
  5
181
100
AcDbEntity
  8
Layer_1
 62
1
100
AcDbPolyline
 90
2
 70
0
 10
133.812624
 20
198.784390
 30
0.0
 10
135.418775
 20
198.784390
 30
0.0
  0
LWPOLYLINE
  5
182
100
AcDbEntity
  8
Layer_1
 62
1
100
AcDbPolyline
 90
2
 70
0
 10
134.909760
 20
196.344387
 30
0.0
 10
135.714171
 20
196.564388
 30
0.0
  0
LWPOLYLINE
  5
183
100
AcDbEntity
  8
Layer_1
 62
1
100
AcDbPolyline
 90
2
 70
0
 10
135.185129
 20
193.684387
 30
0.0
 10
136.576659
 20
194.484387
 30
0.0
  0
LWPOLYLINE
  5
184
100
AcDbEntity
  8
Layer_1
 62
1
100
AcDbPolyline
 90
2
 70
0
 10
137.360376
 20
192.114387
 30
0.0
 10
137.948163
 20
192.704387
 30
0.0
  0
LWPOLYLINE
  5
185
100
AcDbEntity
  8
Layer_1
 62
1
100
AcDbPolyline
 90
2
 70
0
 10
138.959851
 20
189.994385
 30
0.0
 10
139.736224
 20
191.334386
 30
0.0
  0
LWPOLYLINE
  5
186
100
AcDbEntity
  8
Layer_1
 62
1
100
AcDbPolyline
 90
2
 70
0
 10
149.147796
 20
189.984385
 30
0.0
 10
148.364113
 20
191.344386
 30
0.0
  0
LWPOLYLINE
  5
187
100
AcDbEntity
  8
Layer_1
 62
1
100
AcDbPolyline
 90
2
 70
0
 10
150.738961
 20
192.124387
 30
0.0
 10
150.150172
 20
192.704387
 30
0.0
  0
LWPOLYLINE
  5
188
100
AcDbEntity
  8
Layer_1
 62
1
100
AcDbPolyline
 90
2
 70
0
 10
152.880496
 20
193.704387
 30
0.0
 10
151.520341
 20
194.494387
 30
0.0
  0
LWPOLYLINE
  5
189
100
AcDbEntity
  8
Layer_1
 62
1
100
AcDbPolyline
 90
2
 70
0
 10
153.185237
 20
196.354387
 30
0.0
 10
152.381527
 20
196.574388
 30
0.0
  0
LWPOLYLINE
  5
18a
100
AcDbEntity
  8
Layer_1
 62
1
100
AcDbPolyline
 90
2
 70
0
 10
154.229636
 20
198.794390
 30
0.0
 10
152.674219
 20
198.794390
 30
0.0
  0
LWPOLYLINE
  5
18b
100
AcDbEntity
  8
Layer_1
 62
1
100
AcDbPolyline
 90
2
 70
0
 10
153.182934
 20
201.244392
 30
0.0
 10
152.378823
 20
201.024391
 30
0.0
  0
LWPOLYLINE
  5
18c
100
AcDbEntity
  8
Layer_1
 62
1
100
AcDbPolyline
 90
2
 70
0
 10
152.870816
 20
203.884394
 30
0.0
 10
151.516669
 20
203.104393
 30
0.0
  0
LWPOLYLINE
  5
18d
100
AcDbEntity
  8
Layer_1
 62
1
100
AcDbPolyline
 90
2
 70
0
 10
150.733253
 20
205.474394
 30
0.0
 10
150.144832
 20
204.884394
 30
0.0
  0
LWPOLYLINE
  5
18e
100
AcDbEntity
  8
Layer_1
 62
1
100
AcDbPolyline
 90
2
 70
0
 10
149.165854
 20
207.644394
 30
0.0
 10
148.357104
 20
206.254394
 30
0.0
  0
LWPOLYLINE
  5
18f
100
AcDbEntity
  8
Layer_1
 62
1
100
AcDbPolyline
 90
2
 70
0
 10
146.490938
 20
207.914395
 30
0.0
 10
146.275650
 20
207.114394
 30
0.0
  0
SPLINE
  5
190
100
AcDbEntity
  8
Layer_1
 62
7
100
AcDbSpline
 70
8
 71
3
 72
8
 73
4
 74
0
 40
0
 40
0
 40
0
 40
0
 40
1
 40
1
 40
1
 40
1
 10
118.634126
 20
184.565879
 30
0.0
 10
116.012107
 20
184.565879
 30
0.0
 10
113.879429
 20
182.442515
 30
0.0
 10
113.879429
 20
179.820511
 30
0.0
  0
SPLINE
  5
191
100
AcDbEntity
  8
Layer_1
 62
7
100
AcDbSpline
 70
8
 71
3
 72
8
 73
4
 74
0
 40
0
 40
0
 40
0
 40
0
 40
1
 40
1
 40
1
 40
1
 10
113.879429
 20
179.820511
 30
0.0
 10
113.879429
 20
177.676716
 30
0.0
 10
115.305624
 20
175.860161
 30
0.0
 10
117.257030
 20
175.270532
 30
0.0
  0
LWPOLYLINE
  5
192
100
AcDbEntity
  8
Layer_1
 62
1
100
AcDbPolyline
 90
2
 70
0
 10
144.041958
 20
208.994396
 30
0.0
 10
144.041958
 20
207.404394
 30
0.0
  0
SPLINE
  5
193
100
AcDbEntity
  8
Layer_1
 62
7
100
AcDbSpline
 70
8
 71
3
 72
8
 73
4
 74
0
 40
0
 40
0
 40
0
 40
0
 40
1
 40
1
 40
1
 40
1
 10
119.899566
 20
175.242620
 30
0.0
 10
121.903050
 20
175.799200
 30
0.0
 10
123.379522
 20
177.639687
 30
0.0
 10
123.379522
 20
179.820511
 30
0.0
  0
SPLINE
  5
194
100
AcDbEntity
  8
Layer_1
 62
7
100
AcDbSpline
 70
8
 71
3
 72
8
 73
4
 74
0
 40
0
 40
0
 40
0
 40
0
 40
1
 40
1
 40
1
 40
1
 10
123.379522
 20
179.820511
 30
0.0
 10
123.379522
 20
182.442515
 30
0.0
 10
121.256153
 20
184.565879
 30
0.0
 10
118.634126
 20
184.565879
 30
0.0
  0
LWPOLYLINE
  5
195
100
AcDbEntity
  8
Layer_1
 62
7
100
AcDbPolyline
 90
4
 70
0
 10
117.257030
 20
175.270532
 30
0.0
 10
117.257030
 20
172.590786
 30
0.0
 10
119.899566
 20
172.590786
 30
0.0
 10
119.899566
 20
175.242620
 30
0.0
  0
SPLINE
  5
196
100
AcDbEntity
  8
Layer_1
 62
1
100
AcDbSpline
 70
8
 71
3
 72
8
 73
4
 74
0
 40
0
 40
0
 40
0
 40
0
 40
1
 40
1
 40
1
 40
1
 10
114.430351
 20
172.234387
 30
0.0
 10
111.799494
 20
173.704387
 30
0.0
 10
110.022114
 20
176.514387
 30
0.0
 10
110.022114
 20
179.744390
 30
0.0
  0
SPLINE
  5
197
100
AcDbEntity
  8
Layer_1
 62
1
100
AcDbSpline
 70
8
 71
3
 72
8
 73
4
 74
0
 40
0
 40
0
 40
0
 40
0
 40
1
 40
1
 40
1
 40
1
 10
110.022114
 20
179.744390
 30
0.0
 10
110.022114
 20
184.494394
 30
0.0
 10
113.884954
 20
188.354395
 30
0.0
 10
118.650337
 20
188.354395
 30
0.0
  0
SPLINE
  5
198
100
AcDbEntity
  8
Layer_1
 62
1
100
AcDbSpline
 70
8
 71
3
 72
8
 73
4
 74
0
 40
0
 40
0
 40
0
 40
0
 40
1
 40
1
 40
1
 40
1
 10
118.650337
 20
188.354395
 30
0.0
 10
123.414384
 20
188.354395
 30
0.0
 10
127.277892
 20
184.494394
 30
0.0
 10
127.277892
 20
179.744390
 30
0.0
  0
SPLINE
  5
199
100
AcDbEntity
  8
Layer_1
 62
1
100
AcDbSpline
 70
8
 71
3
 72
8
 73
4
 74
0
 40
0
 40
0
 40
0
 40
0
 40
1
 40
1
 40
1
 40
1
 10
127.277892
 20
179.744390
 30
0.0
 10
127.277892
 20
176.514387
 30
0.0
 10
125.497841
 20
173.704387
 30
0.0
 10
122.863313
 20
172.224387
 30
0.0
  0
LWPOLYLINE
  5
19a
100
AcDbEntity
  8
Layer_1
 62
7
100
AcDbPolyline
 90
2
 70
0
 10
118.634126
 20
184.565879
 30
0.0
 10
118.634126
 20
184.565879
 30
0.0
  0
LWPOLYLINE
  5
19b
100
AcDbEntity
  8
Layer_1
 62
1
100
AcDbPolyline
 90
2
 70
0
 10
116.193713
 20
188.864396
 30
0.0
 10
116.410036
 20
188.054395
 30
0.0
  0
LWPOLYLINE
  5
19c
100
AcDbEntity
  8
Layer_1
 62
1
100
AcDbPolyline
 90
2
 70
0
 10
113.521133
 20
188.594395
 30
0.0
 10
114.329215
 20
187.194395
 30
0.0
  0
LWPOLYLINE
  5
19d
100
AcDbEntity
  8
Layer_1
 62
1
100
AcDbPolyline
 90
2
 70
0
 10
111.954034
 20
186.414395
 30
0.0
 10
112.543157
 20
185.824395
 30
0.0
  0
LWPOLYLINE
  5
19e
100
AcDbEntity
  8
Layer_1
 62
1
100
AcDbPolyline
 90
2
 70
0
 10
109.787466
 20
184.844395
 30
0.0
 10
111.172321
 20
184.044394
 30
0.0
  0
LWPOLYLINE
  5
19f
100
AcDbEntity
  8
Layer_1
 62
1
100
AcDbPolyline
 90
2
 70
0
 10
109.507424
 20
182.184392
 30
0.0
 10
110.311835
 20
181.964392
 30
0.0
  0
LWPOLYLINE
  5
1a0
100
AcDbEntity
  8
Layer_1
 62
1
100
AcDbPolyline
 90
2
 70
0
 10
108.412625
 20
179.734390
 30
0.0
 10
110.018776
 20
179.734390
 30
0.0
  0
LWPOLYLINE
  5
1a1
100
AcDbEntity
  8
Layer_1
 62
1
100
AcDbPolyline
 90
2
 70
0
 10
109.509761
 20
177.294388
 30
0.0
 10
110.314171
 20
177.514388
 30
0.0
  0
LWPOLYLINE
  5
1a2
100
AcDbEntity
  8
Layer_1
 62
1
100
AcDbPolyline
 90
2
 70
0
 10
109.785130
 20
174.634388
 30
0.0
 10
111.176660
 20
175.434387
 30
0.0
  0
LWPOLYLINE
  5
1a3
100
AcDbEntity
  8
Layer_1
 62
1
100
AcDbPolyline
 90
2
 70
0
 10
111.960376
 20
173.064387
 30
0.0
 10
112.548164
 20
173.654387
 30
0.0
  0
LWPOLYLINE
  5
1a4
100
AcDbEntity
  8
Layer_1
 62
1
100
AcDbPolyline
 90
2
 70
0
 10
113.559852
 20
170.944386
 30
0.0
 10
114.336225
 20
172.284387
 30
0.0
  0
LWPOLYLINE
  5
1a5
100
AcDbEntity
  8
Layer_1
 62
1
100
AcDbPolyline
 90
2
 70
0
 10
123.747797
 20
170.934386
 30
0.0
 10
122.964114
 20
172.294387
 30
0.0
  0
LWPOLYLINE
  5
1a6
100
AcDbEntity
  8
Layer_1
 62
1
100
AcDbPolyline
 90
2
 70
0
 10
125.338962
 20
173.074387
 30
0.0
 10
124.750173
 20
173.654387
 30
0.0
  0
LWPOLYLINE
  5
1a7
100
AcDbEntity
  8
Layer_1
 62
1
100
AcDbPolyline
 90
2
 70
0
 10
127.480496
 20
174.654387
 30
0.0
 10
126.120342
 20
175.444387
 30
0.0
  0
LWPOLYLINE
  5
1a8
100
AcDbEntity
  8
Layer_1
 62
1
100
AcDbPolyline
 90
2
 70
0
 10
127.785237
 20
177.304388
 30
0.0
 10
126.981528
 20
177.524388
 30
0.0
  0
LWPOLYLINE
  5
1a9
100
AcDbEntity
  8
Layer_1
 62
1
100
AcDbPolyline
 90
2
 70
0
 10
128.829636
 20
179.744390
 30
0.0
 10
127.274220
 20
179.744390
 30
0.0
  0
LWPOLYLINE
  5
1aa
100
AcDbEntity
  8
Layer_1
 62
1
100
AcDbPolyline
 90
2
 70
0
 10
127.782934
 20
182.194392
 30
0.0
 10
126.978824
 20
181.974391
 30
0.0
  0
LWPOLYLINE
  5
1ab
100
AcDbEntity
  8
Layer_1
 62
1
100
AcDbPolyline
 90
2
 70
0
 10
127.470816
 20
184.834395
 30
0.0
 10
126.116670
 20
184.054394
 30
0.0
  0
LWPOLYLINE
  5
1ac
100
AcDbEntity
  8
Layer_1
 62
1
100
AcDbPolyline
 90
2
 70
0
 10
125.333254
 20
186.424395
 30
0.0
 10
124.744833
 20
185.834395
 30
0.0
  0
LWPOLYLINE
  5
1ad
100
AcDbEntity
  8
Layer_1
 62
1
100
AcDbPolyline
 90
2
 70
0
 10
123.765855
 20
188.594395
 30
0.0
 10
122.957105
 20
187.204395
 30
0.0
  0
LWPOLYLINE
  5
1ae
100
AcDbEntity
  8
Layer_1
 62
1
100
AcDbPolyline
 90
2
 70
0
 10
121.090939
 20
188.864396
 30
0.0
 10
120.875651
 20
188.064395
 30
0.0
  0
SPLINE
  5
1af
100
AcDbEntity
  8
Layer_1
 62
7
100
AcDbSpline
 70
8
 71
3
 72
8
 73
4
 74
0
 40
0
 40
0
 40
0
 40
0
 40
1
 40
1
 40
1
 40
1
 10
144.034125
 20
184.565879
 30
0.0
 10
141.412106
 20
184.565879
 30
0.0
 10
139.279428
 20
182.442515
 30
0.0
 10
139.279428
 20
179.820511
 30
0.0
  0
SPLINE
  5
1b0
100
AcDbEntity
  8
Layer_1
 62
7
100
AcDbSpline
 70
8
 71
3
 72
8
 73
4
 74
0
 40
0
 40
0
 40
0
 40
0
 40
1
 40
1
 40
1
 40
1
 10
139.279428
 20
179.820511
 30
0.0
 10
139.279428
 20
177.676716
 30
0.0
 10
140.705623
 20
175.860161
 30
0.0
 10
142.657029
 20
175.270532
 30
0.0
  0
LWPOLYLINE
  5
1b1
100
AcDbEntity
  8
Layer_1
 62
1
100
AcDbPolyline
 90
2
 70
0
 10
118.641959
 20
189.944396
 30
0.0
 10
118.641959
 20
188.354395
 30
0.0
  0
SPLINE
  5
1b2
100
AcDbEntity
  8
Layer_1
 62
7
100
AcDbSpline
 70
8
 71
3
 72
8
 73
4
 74
0
 40
0
 40
0
 40
0
 40
0
 40
1
 40
1
 40
1
 40
1
 10
145.299565
 20
175.242620
 30
0.0
 10
147.303049
 20
175.799200
 30
0.0
 10
148.779521
 20
177.639687
 30
0.0
 10
148.779521
 20
179.820511
 30
0.0
  0
SPLINE
  5
1b3
100
AcDbEntity
  8
Layer_1
 62
7
100
AcDbSpline
 70
8
 71
3
 72
8
 73
4
 74
0
 40
0
 40
0
 40
0
 40
0
 40
1
 40
1
 40
1
 40
1
 10
148.779521
 20
179.820511
 30
0.0
 10
148.779521
 20
182.442515
 30
0.0
 10
146.656152
 20
184.565879
 30
0.0
 10
144.034125
 20
184.565879
 30
0.0
  0
LWPOLYLINE
  5
1b4
100
AcDbEntity
  8
Layer_1
 62
7
100
AcDbPolyline
 90
4
 70
0
 10
142.657029
 20
175.270532
 30
0.0
 10
142.657029
 20
172.590786
 30
0.0
 10
145.299565
 20
172.590786
 30
0.0
 10
145.299565
 20
175.242620
 30
0.0
  0
SPLINE
  5
1b5
100
AcDbEntity
  8
Layer_1
 62
1
100
AcDbSpline
 70
8
 71
3
 72
8
 73
4
 74
0
 40
0
 40
0
 40
0
 40
0
 40
1
 40
1
 40
1
 40
1
 10
139.830350
 20
172.234387
 30
0.0
 10
137.199494
 20
173.704387
 30
0.0
 10
135.422113
 20
176.514387
 30
0.0
 10
135.422113
 20
179.744390
 30
0.0
  0
SPLINE
  5
1b6
100
AcDbEntity
  8
Layer_1
 62
1
100
AcDbSpline
 70
8
 71
3
 72
8
 73
4
 74
0
 40
0
 40
0
 40
0
 40
0
 40
1
 40
1
 40
1
 40
1
 10
135.422113
 20
179.744390
 30
0.0
 10
135.422113
 20
184.494394
 30
0.0
 10
139.284953
 20
188.354395
 30
0.0
 10
144.050336
 20
188.354395
 30
0.0
  0
SPLINE
  5
1b7
100
AcDbEntity
  8
Layer_1
 62
1
100
AcDbSpline
 70
8
 71
3
 72
8
 73
4
 74
0
 40
0
 40
0
 40
0
 40
0
 40
1
 40
1
 40
1
 40
1
 10
144.050336
 20
188.354395
 30
0.0
 10
148.814383
 20
188.354395
 30
0.0
 10
152.677891
 20
184.494394
 30
0.0
 10
152.677891
 20
179.744390
 30
0.0
  0
SPLINE
  5
1b8
100
AcDbEntity
  8
Layer_1
 62
1
100
AcDbSpline
 70
8
 71
3
 72
8
 73
4
 74
0
 40
0
 40
0
 40
0
 40
0
 40
1
 40
1
 40
1
 40
1
 10
152.677891
 20
179.744390
 30
0.0
 10
152.677891
 20
176.514387
 30
0.0
 10
150.897840
 20
173.704387
 30
0.0
 10
148.263312
 20
172.224387
 30
0.0
  0
LWPOLYLINE
  5
1b9
100
AcDbEntity
  8
Layer_1
 62
7
100
AcDbPolyline
 90
2
 70
0
 10
144.034125
 20
184.565879
 30
0.0
 10
144.034125
 20
184.565879
 30
0.0
  0
LWPOLYLINE
  5
1ba
100
AcDbEntity
  8
Layer_1
 62
1
100
AcDbPolyline
 90
2
 70
0
 10
141.593712
 20
188.864396
 30
0.0
 10
141.810035
 20
188.054395
 30
0.0
  0
LWPOLYLINE
  5
1bb
100
AcDbEntity
  8
Layer_1
 62
1
100
AcDbPolyline
 90
2
 70
0
 10
138.921133
 20
188.594395
 30
0.0
 10
139.729215
 20
187.194395
 30
0.0
  0
LWPOLYLINE
  5
1bc
100
AcDbEntity
  8
Layer_1
 62
1
100
AcDbPolyline
 90
2
 70
0
 10
137.354034
 20
186.414395
 30
0.0
 10
137.943156
 20
185.824395
 30
0.0
  0
LWPOLYLINE
  5
1bd
100
AcDbEntity
  8
Layer_1
 62
1
100
AcDbPolyline
 90
2
 70
0
 10
135.187465
 20
184.844395
 30
0.0
 10
136.572320
 20
184.044394
 30
0.0
  0
LWPOLYLINE
  5
1be
100
AcDbEntity
  8
Layer_1
 62
1
100
AcDbPolyline
 90
2
 70
0
 10
134.907424
 20
182.184392
 30
0.0
 10
135.711834
 20
181.964392
 30
0.0
  0
LWPOLYLINE
  5
1bf
100
AcDbEntity
  8
Layer_1
 62
1
100
AcDbPolyline
 90
2
 70
0
 10
133.812624
 20
179.734390
 30
0.0
 10
135.418775
 20
179.734390
 30
0.0
  0
LWPOLYLINE
  5
1c0
100
AcDbEntity
  8
Layer_1
 62
1
100
AcDbPolyline
 90
2
 70
0
 10
134.909760
 20
177.294388
 30
0.0
 10
135.714171
 20
177.514388
 30
0.0
  0
LWPOLYLINE
  5
1c1
100
AcDbEntity
  8
Layer_1
 62
1
100
AcDbPolyline
 90
2
 70
0
 10
135.185129
 20
174.634388
 30
0.0
 10
136.576659
 20
175.434387
 30
0.0
  0
LWPOLYLINE
  5
1c2
100
AcDbEntity
  8
Layer_1
 62
1
100
AcDbPolyline
 90
2
 70
0
 10
137.360376
 20
173.064387
 30
0.0
 10
137.948163
 20
173.654387
 30
0.0
  0
LWPOLYLINE
  5
1c3
100
AcDbEntity
  8
Layer_1
 62
1
100
AcDbPolyline
 90
2
 70
0
 10
138.959851
 20
170.944386
 30
0.0
 10
139.736224
 20
172.284387
 30
0.0
  0
LWPOLYLINE
  5
1c4
100
AcDbEntity
  8
Layer_1
 62
1
100
AcDbPolyline
 90
2
 70
0
 10
149.147796
 20
170.934386
 30
0.0
 10
148.364113
 20
172.294387
 30
0.0
  0
LWPOLYLINE
  5
1c5
100
AcDbEntity
  8
Layer_1
 62
1
100
AcDbPolyline
 90
2
 70
0
 10
150.738961
 20
173.074387
 30
0.0
 10
150.150172
 20
173.654387
 30
0.0
  0
LWPOLYLINE
  5
1c6
100
AcDbEntity
  8
Layer_1
 62
1
100
AcDbPolyline
 90
2
 70
0
 10
152.880496
 20
174.654387
 30
0.0
 10
151.520341
 20
175.444387
 30
0.0
  0
LWPOLYLINE
  5
1c7
100
AcDbEntity
  8
Layer_1
 62
1
100
AcDbPolyline
 90
2
 70
0
 10
153.185237
 20
177.304388
 30
0.0
 10
152.381527
 20
177.524388
 30
0.0
  0
LWPOLYLINE
  5
1c8
100
AcDbEntity
  8
Layer_1
 62
1
100
AcDbPolyline
 90
2
 70
0
 10
154.229636
 20
179.744390
 30
0.0
 10
152.674219
 20
179.744390
 30
0.0
  0
LWPOLYLINE
  5
1c9
100
AcDbEntity
  8
Layer_1
 62
1
100
AcDbPolyline
 90
2
 70
0
 10
153.182934
 20
182.194392
 30
0.0
 10
152.378823
 20
181.974391
 30
0.0
  0
LWPOLYLINE
  5
1ca
100
AcDbEntity
  8
Layer_1
 62
1
100
AcDbPolyline
 90
2
 70
0
 10
152.870816
 20
184.834395
 30
0.0
 10
151.516669
 20
184.054394
 30
0.0
  0
LWPOLYLINE
  5
1cb
100
AcDbEntity
  8
Layer_1
 62
1
100
AcDbPolyline
 90
2
 70
0
 10
150.733253
 20
186.424395
 30
0.0
 10
150.144832
 20
185.834395
 30
0.0
  0
LWPOLYLINE
  5
1cc
100
AcDbEntity
  8
Layer_1
 62
1
100
AcDbPolyline
 90
2
 70
0
 10
149.165854
 20
188.594395
 30
0.0
 10
148.357104
 20
187.204395
 30
0.0
  0
LWPOLYLINE
  5
1cd
100
AcDbEntity
  8
Layer_1
 62
1
100
AcDbPolyline
 90
2
 70
0
 10
146.490938
 20
188.864396
 30
0.0
 10
146.275650
 20
188.064395
 30
0.0
  0
SPLINE
  5
1ce
100
AcDbEntity
  8
Layer_1
 62
7
100
AcDbSpline
 70
8
 71
3
 72
8
 73
4
 74
0
 40
0
 40
0
 40
0
 40
0
 40
1
 40
1
 40
1
 40
1
 10
118.634126
 20
165.515880
 30
0.0
 10
116.012107
 20
165.515880
 30
0.0
 10
113.879429
 20
163.392516
 30
0.0
 10
113.879429
 20
160.770512
 30
0.0
  0
SPLINE
  5
1cf
100
AcDbEntity
  8
Layer_1
 62
7
100
AcDbSpline
 70
8
 71
3
 72
8
 73
4
 74
0
 40
0
 40
0
 40
0
 40
0
 40
1
 40
1
 40
1
 40
1
 10
113.879429
 20
160.770512
 30
0.0
 10
113.879429
 20
158.626716
 30
0.0
 10
115.305624
 20
156.810161
 30
0.0
 10
117.257030
 20
156.220532
 30
0.0
  0
LWPOLYLINE
  5
1d0
100
AcDbEntity
  8
Layer_1
 62
1
100
AcDbPolyline
 90
2
 70
0
 10
144.041958
 20
189.944396
 30
0.0
 10
144.041958
 20
188.354395
 30
0.0
  0
SPLINE
  5
1d1
100
AcDbEntity
  8
Layer_1
 62
7
100
AcDbSpline
 70
8
 71
3
 72
8
 73
4
 74
0
 40
0
 40
0
 40
0
 40
0
 40
1
 40
1
 40
1
 40
1
 10
119.899566
 20
156.192620
 30
0.0
 10
121.903050
 20
156.749200
 30
0.0
 10
123.379522
 20
158.589687
 30
0.0
 10
123.379522
 20
160.770512
 30
0.0
  0
SPLINE
  5
1d2
100
AcDbEntity
  8
Layer_1
 62
7
100
AcDbSpline
 70
8
 71
3
 72
8
 73
4
 74
0
 40
0
 40
0
 40
0
 40
0
 40
1
 40
1
 40
1
 40
1
 10
123.379522
 20
160.770512
 30
0.0
 10
123.379522
 20
163.392516
 30
0.0
 10
121.256153
 20
165.515880
 30
0.0
 10
118.634126
 20
165.515880
 30
0.0
  0
LWPOLYLINE
  5
1d3
100
AcDbEntity
  8
Layer_1
 62
7
100
AcDbPolyline
 90
4
 70
0
 10
117.257030
 20
156.220532
 30
0.0
 10
117.257030
 20
153.540786
 30
0.0
 10
119.899566
 20
153.540786
 30
0.0
 10
119.899566
 20
156.192620
 30
0.0
  0
SPLINE
  5
1d4
100
AcDbEntity
  8
Layer_1
 62
1
100
AcDbSpline
 70
8
 71
3
 72
8
 73
4
 74
0
 40
0
 40
0
 40
0
 40
0
 40
1
 40
1
 40
1
 40
1
 10
114.430351
 20
153.184387
 30
0.0
 10
111.799494
 20
154.654388
 30
0.0
 10
110.022114
 20
157.464388
 30
0.0
 10
110.022114
 20
160.694391
 30
0.0
  0
SPLINE
  5
1d5
100
AcDbEntity
  8
Layer_1
 62
1
100
AcDbSpline
 70
8
 71
3
 72
8
 73
4
 74
0
 40
0
 40
0
 40
0
 40
0
 40
1
 40
1
 40
1
 40
1
 10
110.022114
 20
160.694391
 30
0.0
 10
110.022114
 20
165.444394
 30
0.0
 10
113.884954
 20
169.304395
 30
0.0
 10
118.650337
 20
169.304395
 30
0.0
  0
SPLINE
  5
1d6
100
AcDbEntity
  8
Layer_1
 62
1
100
AcDbSpline
 70
8
 71
3
 72
8
 73
4
 74
0
 40
0
 40
0
 40
0
 40
0
 40
1
 40
1
 40
1
 40
1
 10
118.650337
 20
169.304395
 30
0.0
 10
123.414384
 20
169.304395
 30
0.0
 10
127.277892
 20
165.444394
 30
0.0
 10
127.277892
 20
160.694391
 30
0.0
  0
SPLINE
  5
1d7
100
AcDbEntity
  8
Layer_1
 62
1
100
AcDbSpline
 70
8
 71
3
 72
8
 73
4
 74
0
 40
0
 40
0
 40
0
 40
0
 40
1
 40
1
 40
1
 40
1
 10
127.277892
 20
160.694391
 30
0.0
 10
127.277892
 20
157.464388
 30
0.0
 10
125.497841
 20
154.654387
 30
0.0
 10
122.863313
 20
153.174387
 30
0.0
  0
LWPOLYLINE
  5
1d8
100
AcDbEntity
  8
Layer_1
 62
7
100
AcDbPolyline
 90
2
 70
0
 10
118.634126
 20
165.515880
 30
0.0
 10
118.634126
 20
165.515880
 30
0.0
  0
LWPOLYLINE
  5
1d9
100
AcDbEntity
  8
Layer_1
 62
1
100
AcDbPolyline
 90
2
 70
0
 10
116.193713
 20
169.814396
 30
0.0
 10
116.410036
 20
169.004395
 30
0.0
  0
LWPOLYLINE
  5
1da
100
AcDbEntity
  8
Layer_1
 62
1
100
AcDbPolyline
 90
2
 70
0
 10
113.521133
 20
169.544395
 30
0.0
 10
114.329215
 20
168.144395
 30
0.0
  0
LWPOLYLINE
  5
1db
100
AcDbEntity
  8
Layer_1
 62
1
100
AcDbPolyline
 90
2
 70
0
 10
111.954034
 20
167.364395
 30
0.0
 10
112.543157
 20
166.774395
 30
0.0
  0
LWPOLYLINE
  5
1dc
100
AcDbEntity
  8
Layer_1
 62
1
100
AcDbPolyline
 90
2
 70
0
 10
109.787466
 20
165.794395
 30
0.0
 10
111.172321
 20
164.994394
 30
0.0
  0
LWPOLYLINE
  5
1dd
100
AcDbEntity
  8
Layer_1
 62
1
100
AcDbPolyline
 90
2
 70
0
 10
109.507424
 20
163.134392
 30
0.0
 10
110.311835
 20
162.914392
 30
0.0
  0
LWPOLYLINE
  5
1de
100
AcDbEntity
  8
Layer_1
 62
1
100
AcDbPolyline
 90
2
 70
0
 10
108.412625
 20
160.684391
 30
0.0
 10
110.018776
 20
160.684391
 30
0.0
  0
LWPOLYLINE
  5
1df
100
AcDbEntity
  8
Layer_1
 62
1
100
AcDbPolyline
 90
2
 70
0
 10
109.509761
 20
158.244388
 30
0.0
 10
110.314171
 20
158.464389
 30
0.0
  0
LWPOLYLINE
  5
1e0
100
AcDbEntity
  8
Layer_1
 62
1
100
AcDbPolyline
 90
2
 70
0
 10
109.785130
 20
155.584388
 30
0.0
 10
111.176660
 20
156.384388
 30
0.0
  0
LWPOLYLINE
  5
1e1
100
AcDbEntity
  8
Layer_1
 62
1
100
AcDbPolyline
 90
2
 70
0
 10
111.960376
 20
154.014388
 30
0.0
 10
112.548164
 20
154.604388
 30
0.0
  0
LWPOLYLINE
  5
1e2
100
AcDbEntity
  8
Layer_1
 62
1
100
AcDbPolyline
 90
2
 70
0
 10
113.559852
 20
151.894386
 30
0.0
 10
114.336225
 20
153.234387
 30
0.0
  0
LWPOLYLINE
  5
1e3
100
AcDbEntity
  8
Layer_1
 62
1
100
AcDbPolyline
 90
2
 70
0
 10
123.747797
 20
151.884386
 30
0.0
 10
122.964114
 20
153.244387
 30
0.0
  0
LWPOLYLINE
  5
1e4
100
AcDbEntity
  8
Layer_1
 62
1
100
AcDbPolyline
 90
2
 70
0
 10
125.338962
 20
154.024388
 30
0.0
 10
124.750173
 20
154.604388
 30
0.0
  0
LWPOLYLINE
  5
1e5
100
AcDbEntity
  8
Layer_1
 62
1
100
AcDbPolyline
 90
2
 70
0
 10
127.480496
 20
155.604388
 30
0.0
 10
126.120342
 20
156.394388
 30
0.0
  0
LWPOLYLINE
  5
1e6
100
AcDbEntity
  8
Layer_1
 62
1
100
AcDbPolyline
 90
2
 70
0
 10
127.785237
 20
158.254388
 30
0.0
 10
126.981528
 20
158.474389
 30
0.0
  0
LWPOLYLINE
  5
1e7
100
AcDbEntity
  8
Layer_1
 62
1
100
AcDbPolyline
 90
2
 70
0
 10
128.829636
 20
160.694391
 30
0.0
 10
127.274220
 20
160.694391
 30
0.0
  0
LWPOLYLINE
  5
1e8
100
AcDbEntity
  8
Layer_1
 62
1
100
AcDbPolyline
 90
2
 70
0
 10
127.782934
 20
163.144392
 30
0.0
 10
126.978824
 20
162.924392
 30
0.0
  0
LWPOLYLINE
  5
1e9
100
AcDbEntity
  8
Layer_1
 62
1
100
AcDbPolyline
 90
2
 70
0
 10
127.470816
 20
165.784395
 30
0.0
 10
126.116670
 20
165.004394
 30
0.0
  0
LWPOLYLINE
  5
1ea
100
AcDbEntity
  8
Layer_1
 62
1
100
AcDbPolyline
 90
2
 70
0
 10
125.333254
 20
167.374395
 30
0.0
 10
124.744833
 20
166.784395
 30
0.0
  0
LWPOLYLINE
  5
1eb
100
AcDbEntity
  8
Layer_1
 62
1
100
AcDbPolyline
 90
2
 70
0
 10
123.765855
 20
169.544395
 30
0.0
 10
122.957105
 20
168.154395
 30
0.0
  0
LWPOLYLINE
  5
1ec
100
AcDbEntity
  8
Layer_1
 62
1
100
AcDbPolyline
 90
2
 70
0
 10
121.090939
 20
169.814396
 30
0.0
 10
120.875651
 20
169.014395
 30
0.0
  0
SPLINE
  5
1ed
100
AcDbEntity
  8
Layer_1
 62
7
100
AcDbSpline
 70
8
 71
3
 72
8
 73
4
 74
0
 40
0
 40
0
 40
0
 40
0
 40
1
 40
1
 40
1
 40
1
 10
144.034125
 20
165.515880
 30
0.0
 10
141.412106
 20
165.515880
 30
0.0
 10
139.279428
 20
163.392516
 30
0.0
 10
139.279428
 20
160.770512
 30
0.0
  0
SPLINE
  5
1ee
100
AcDbEntity
  8
Layer_1
 62
7
100
AcDbSpline
 70
8
 71
3
 72
8
 73
4
 74
0
 40
0
 40
0
 40
0
 40
0
 40
1
 40
1
 40
1
 40
1
 10
139.279428
 20
160.770512
 30
0.0
 10
139.279428
 20
158.626716
 30
0.0
 10
140.705623
 20
156.810161
 30
0.0
 10
142.657029
 20
156.220532
 30
0.0
  0
LWPOLYLINE
  5
1ef
100
AcDbEntity
  8
Layer_1
 62
1
100
AcDbPolyline
 90
2
 70
0
 10
118.641959
 20
170.894397
 30
0.0
 10
118.641959
 20
169.304395
 30
0.0
  0
SPLINE
  5
1f0
100
AcDbEntity
  8
Layer_1
 62
7
100
AcDbSpline
 70
8
 71
3
 72
8
 73
4
 74
0
 40
0
 40
0
 40
0
 40
0
 40
1
 40
1
 40
1
 40
1
 10
145.299565
 20
156.192620
 30
0.0
 10
147.303049
 20
156.749200
 30
0.0
 10
148.779521
 20
158.589687
 30
0.0
 10
148.779521
 20
160.770512
 30
0.0
  0
SPLINE
  5
1f1
100
AcDbEntity
  8
Layer_1
 62
7
100
AcDbSpline
 70
8
 71
3
 72
8
 73
4
 74
0
 40
0
 40
0
 40
0
 40
0
 40
1
 40
1
 40
1
 40
1
 10
148.779521
 20
160.770512
 30
0.0
 10
148.779521
 20
163.392516
 30
0.0
 10
146.656152
 20
165.515880
 30
0.0
 10
144.034125
 20
165.515880
 30
0.0
  0
LWPOLYLINE
  5
1f2
100
AcDbEntity
  8
Layer_1
 62
7
100
AcDbPolyline
 90
4
 70
0
 10
142.657029
 20
156.220532
 30
0.0
 10
142.657029
 20
153.540786
 30
0.0
 10
145.299565
 20
153.540786
 30
0.0
 10
145.299565
 20
156.192620
 30
0.0
  0
SPLINE
  5
1f3
100
AcDbEntity
  8
Layer_1
 62
1
100
AcDbSpline
 70
8
 71
3
 72
8
 73
4
 74
0
 40
0
 40
0
 40
0
 40
0
 40
1
 40
1
 40
1
 40
1
 10
139.830350
 20
153.184387
 30
0.0
 10
137.199494
 20
154.654388
 30
0.0
 10
135.422113
 20
157.464388
 30
0.0
 10
135.422113
 20
160.694391
 30
0.0
  0
SPLINE
  5
1f4
100
AcDbEntity
  8
Layer_1
 62
1
100
AcDbSpline
 70
8
 71
3
 72
8
 73
4
 74
0
 40
0
 40
0
 40
0
 40
0
 40
1
 40
1
 40
1
 40
1
 10
135.422113
 20
160.694391
 30
0.0
 10
135.422113
 20
165.444394
 30
0.0
 10
139.284953
 20
169.304395
 30
0.0
 10
144.050336
 20
169.304395
 30
0.0
  0
SPLINE
  5
1f5
100
AcDbEntity
  8
Layer_1
 62
1
100
AcDbSpline
 70
8
 71
3
 72
8
 73
4
 74
0
 40
0
 40
0
 40
0
 40
0
 40
1
 40
1
 40
1
 40
1
 10
144.050336
 20
169.304395
 30
0.0
 10
148.814383
 20
169.304395
 30
0.0
 10
152.677891
 20
165.444394
 30
0.0
 10
152.677891
 20
160.694391
 30
0.0
  0
SPLINE
  5
1f6
100
AcDbEntity
  8
Layer_1
 62
1
100
AcDbSpline
 70
8
 71
3
 72
8
 73
4
 74
0
 40
0
 40
0
 40
0
 40
0
 40
1
 40
1
 40
1
 40
1
 10
152.677891
 20
160.694391
 30
0.0
 10
152.677891
 20
157.464388
 30
0.0
 10
150.897840
 20
154.654387
 30
0.0
 10
148.263312
 20
153.174387
 30
0.0
  0
LWPOLYLINE
  5
1f7
100
AcDbEntity
  8
Layer_1
 62
7
100
AcDbPolyline
 90
2
 70
0
 10
144.034125
 20
165.515880
 30
0.0
 10
144.034125
 20
165.515880
 30
0.0
  0
LWPOLYLINE
  5
1f8
100
AcDbEntity
  8
Layer_1
 62
1
100
AcDbPolyline
 90
2
 70
0
 10
141.593712
 20
169.814396
 30
0.0
 10
141.810035
 20
169.004395
 30
0.0
  0
LWPOLYLINE
  5
1f9
100
AcDbEntity
  8
Layer_1
 62
1
100
AcDbPolyline
 90
2
 70
0
 10
138.921133
 20
169.544395
 30
0.0
 10
139.729215
 20
168.144395
 30
0.0
  0
LWPOLYLINE
  5
1fa
100
AcDbEntity
  8
Layer_1
 62
1
100
AcDbPolyline
 90
2
 70
0
 10
137.354034
 20
167.364395
 30
0.0
 10
137.943156
 20
166.774395
 30
0.0
  0
LWPOLYLINE
  5
1fb
100
AcDbEntity
  8
Layer_1
 62
1
100
AcDbPolyline
 90
2
 70
0
 10
135.187465
 20
165.794395
 30
0.0
 10
136.572320
 20
164.994394
 30
0.0
  0
LWPOLYLINE
  5
1fc
100
AcDbEntity
  8
Layer_1
 62
1
100
AcDbPolyline
 90
2
 70
0
 10
134.907424
 20
163.134392
 30
0.0
 10
135.711834
 20
162.914392
 30
0.0
  0
LWPOLYLINE
  5
1fd
100
AcDbEntity
  8
Layer_1
 62
1
100
AcDbPolyline
 90
2
 70
0
 10
133.812624
 20
160.684391
 30
0.0
 10
135.418775
 20
160.684391
 30
0.0
  0
LWPOLYLINE
  5
1fe
100
AcDbEntity
  8
Layer_1
 62
1
100
AcDbPolyline
 90
2
 70
0
 10
134.909760
 20
158.244388
 30
0.0
 10
135.714171
 20
158.464389
 30
0.0
  0
LWPOLYLINE
  5
1ff
100
AcDbEntity
  8
Layer_1
 62
1
100
AcDbPolyline
 90
2
 70
0
 10
135.185129
 20
155.584388
 30
0.0
 10
136.576659
 20
156.384388
 30
0.0
  0
LWPOLYLINE
  5
200
100
AcDbEntity
  8
Layer_1
 62
1
100
AcDbPolyline
 90
2
 70
0
 10
137.360376
 20
154.014388
 30
0.0
 10
137.948163
 20
154.604388
 30
0.0
  0
LWPOLYLINE
  5
201
100
AcDbEntity
  8
Layer_1
 62
1
100
AcDbPolyline
 90
2
 70
0
 10
138.959851
 20
151.894386
 30
0.0
 10
139.736224
 20
153.234387
 30
0.0
  0
LWPOLYLINE
  5
202
100
AcDbEntity
  8
Layer_1
 62
1
100
AcDbPolyline
 90
2
 70
0
 10
149.147796
 20
151.884386
 30
0.0
 10
148.364113
 20
153.244387
 30
0.0
  0
LWPOLYLINE
  5
203
100
AcDbEntity
  8
Layer_1
 62
1
100
AcDbPolyline
 90
2
 70
0
 10
150.738961
 20
154.024388
 30
0.0
 10
150.150172
 20
154.604388
 30
0.0
  0
LWPOLYLINE
  5
204
100
AcDbEntity
  8
Layer_1
 62
1
100
AcDbPolyline
 90
2
 70
0
 10
152.880496
 20
155.604388
 30
0.0
 10
151.520341
 20
156.394388
 30
0.0
  0
LWPOLYLINE
  5
205
100
AcDbEntity
  8
Layer_1
 62
1
100
AcDbPolyline
 90
2
 70
0
 10
153.185237
 20
158.254388
 30
0.0
 10
152.381527
 20
158.474389
 30
0.0
  0
LWPOLYLINE
  5
206
100
AcDbEntity
  8
Layer_1
 62
1
100
AcDbPolyline
 90
2
 70
0
 10
154.229636
 20
160.694391
 30
0.0
 10
152.674219
 20
160.694391
 30
0.0
  0
LWPOLYLINE
  5
207
100
AcDbEntity
  8
Layer_1
 62
1
100
AcDbPolyline
 90
2
 70
0
 10
153.182934
 20
163.144392
 30
0.0
 10
152.378823
 20
162.924392
 30
0.0
  0
LWPOLYLINE
  5
208
100
AcDbEntity
  8
Layer_1
 62
1
100
AcDbPolyline
 90
2
 70
0
 10
152.870816
 20
165.784395
 30
0.0
 10
151.516669
 20
165.004394
 30
0.0
  0
LWPOLYLINE
  5
209
100
AcDbEntity
  8
Layer_1
 62
1
100
AcDbPolyline
 90
2
 70
0
 10
150.733253
 20
167.374395
 30
0.0
 10
150.144832
 20
166.784395
 30
0.0
  0
LWPOLYLINE
  5
20a
100
AcDbEntity
  8
Layer_1
 62
1
100
AcDbPolyline
 90
2
 70
0
 10
149.165854
 20
169.544395
 30
0.0
 10
148.357104
 20
168.154395
 30
0.0
  0
LWPOLYLINE
  5
20b
100
AcDbEntity
  8
Layer_1
 62
1
100
AcDbPolyline
 90
2
 70
0
 10
146.490938
 20
169.814396
 30
0.0
 10
146.275650
 20
169.014395
 30
0.0
  0
SPLINE
  5
20c
100
AcDbEntity
  8
Layer_1
 62
7
100
AcDbSpline
 70
8
 71
3
 72
8
 73
4
 74
0
 40
0
 40
0
 40
0
 40
0
 40
1
 40
1
 40
1
 40
1
 10
120.134125
 20
145.525879
 30
0.0
 10
120.134125
 20
144.697452
 30
0.0
 10
119.462552
 20
144.025880
 30
0.0
 10
118.634125
 20
144.025880
 30
0.0
  0
SPLINE
  5
20d
100
AcDbEntity
  8
Layer_1
 62
7
100
AcDbSpline
 70
8
 71
3
 72
8
 73
4
 74
0
 40
0
 40
0
 40
0
 40
0
 40
1
 40
1
 40
1
 40
1
 10
118.634125
 20
144.025880
 30
0.0
 10
117.805698
 20
144.025880
 30
0.0
 10
117.134125
 20
144.697452
 30
0.0
 10
117.134125
 20
145.525879
 30
0.0
  0
SPLINE
  5
20e
100
AcDbEntity
  8
Layer_1
 62
7
100
AcDbSpline
 70
8
 71
3
 72
8
 73
4
 74
0
 40
0
 40
0
 40
0
 40
0
 40
1
 40
1
 40
1
 40
1
 10
117.134125
 20
145.525879
 30
0.0
 10
117.134125
 20
146.354306
 30
0.0
 10
117.805698
 20
147.025879
 30
0.0
 10
118.634125
 20
147.025879
 30
0.0
  0
SPLINE
  5
20f
100
AcDbEntity
  8
Layer_1
 62
7
100
AcDbSpline
 70
8
 71
3
 72
8
 73
4
 74
0
 40
0
 40
0
 40
0
 40
0
 40
1
 40
1
 40
1
 40
1
 10
118.634125
 20
147.025879
 30
0.0
 10
119.462552
 20
147.025879
 30
0.0
 10
120.134125
 20
146.354306
 30
0.0
 10
120.134125
 20
145.525879
 30
0.0
  0
LWPOLYLINE
  5
210
100
AcDbEntity
  8
Layer_1
 62
1
100
AcDbPolyline
 90
2
 70
0
 10
144.041958
 20
170.894397
 30
0.0
 10
144.041958
 20
169.304395
 30
0.0
  0
SPLINE
  5
211
100
AcDbEntity
  8
Layer_1
 62
7
100
AcDbSpline
 70
8
 71
3
 72
8
 73
4
 74
0
 40
0
 40
0
 40
0
 40
0
 40
1
 40
1
 40
1
 40
1
 10
145.534126
 20
145.525879
 30
0.0
 10
145.534126
 20
144.697452
 30
0.0
 10
144.862553
 20
144.025880
 30
0.0
 10
144.034126
 20
144.025880
 30
0.0
  0
SPLINE
  5
212
100
AcDbEntity
  8
Layer_1
 62
7
100
AcDbSpline
 70
8
 71
3
 72
8
 73
4
 74
0
 40
0
 40
0
 40
0
 40
0
 40
1
 40
1
 40
1
 40
1
 10
144.034126
 20
144.025880
 30
0.0
 10
143.205699
 20
144.025880
 30
0.0
 10
142.534126
 20
144.697452
 30
0.0
 10
142.534126
 20
145.525879
 30
0.0
  0
SPLINE
  5
213
100
AcDbEntity
  8
Layer_1
 62
7
100
AcDbSpline
 70
8
 71
3
 72
8
 73
4
 74
0
 40
0
 40
0
 40
0
 40
0
 40
1
 40
1
 40
1
 40
1
 10
142.534126
 20
145.525879
 30
0.0
 10
142.534126
 20
146.354306
 30
0.0
 10
143.205699
 20
147.025879
 30
0.0
 10
144.034126
 20
147.025879
 30
0.0
  0
SPLINE
  5
214
100
AcDbEntity
  8
Layer_1
 62
7
100
AcDbSpline
 70
8
 71
3
 72
8
 73
4
 74
0
 40
0
 40
0
 40
0
 40
0
 40
1
 40
1
 40
1
 40
1
 10
144.034126
 20
147.025879
 30
0.0
 10
144.862553
 20
147.025879
 30
0.0
 10
145.534126
 20
146.354306
 30
0.0
 10
145.534126
 20
145.525879
 30
0.0
  0
LWPOLYLINE
  5
215
100
AcDbEntity
  8
Layer_1
 62
7
100
AcDbPolyline
 90
2
 70
0
 10
120.134125
 20
145.525879
 30
0.0
 10
120.134125
 20
145.525879
 30
0.0
  0
SPLINE
  5
216
100
AcDbEntity
  8
Layer_1
 62
7
100
AcDbSpline
 70
8
 71
3
 72
8
 73
4
 74
0
 40
0
 40
0
 40
0
 40
0
 40
1
 40
1
 40
1
 40
1
 10
102.834126
 20
217.915879
 30
0.0
 10
102.834126
 20
216.120954
 30
0.0
 10
101.379051
 20
214.665879
 30
0.0
 10
99.584126
 20
214.665879
 30
0.0
  0
SPLINE
  5
217
100
AcDbEntity
  8
Layer_1
 62
7
100
AcDbSpline
 70
8
 71
3
 72
8
 73
4
 74
0
 40
0
 40
0
 40
0
 40
0
 40
1
 40
1
 40
1
 40
1
 10
99.584126
 20
214.665879
 30
0.0
 10
97.789201
 20
214.665879
 30
0.0
 10
96.334126
 20
216.120954
 30
0.0
 10
96.334126
 20
217.915879
 30
0.0
  0
SPLINE
  5
218
100
AcDbEntity
  8
Layer_1
 62
7
100
AcDbSpline
 70
8
 71
3
 72
8
 73
4
 74
0
 40
0
 40
0
 40
0
 40
0
 40
1
 40
1
 40
1
 40
1
 10
96.334126
 20
217.915879
 30
0.0
 10
96.334126
 20
219.710804
 30
0.0
 10
97.789201
 20
221.165878
 30
0.0
 10
99.584126
 20
221.165878
 30
0.0
  0
SPLINE
  5
219
100
AcDbEntity
  8
Layer_1
 62
7
100
AcDbSpline
 70
8
 71
3
 72
8
 73
4
 74
0
 40
0
 40
0
 40
0
 40
0
 40
1
 40
1
 40
1
 40
1
 10
99.584126
 20
221.165878
 30
0.0
 10
101.379051
 20
221.165878
 30
0.0
 10
102.834126
 20
219.710804
 30
0.0
 10
102.834126
 20
217.915879
 30
0.0
  0
LWPOLYLINE
  5
21a
100
AcDbEntity
  8
Layer_1
 62
7
100
AcDbPolyline
 90
2
 70
0
 10
145.534126
 20
145.525879
 30
0.0
 10
145.534126
 20
145.525879
 30
0.0
  0
SPLINE
  5
21b
100
AcDbEntity
  8
Layer_1
 62
7
100
AcDbSpline
 70
8
 71
3
 72
8
 73
4
 74
0
 40
0
 40
0
 40
0
 40
0
 40
1
 40
1
 40
1
 40
1
 10
102.834126
 20
198.865878
 30
0.0
 10
102.834126
 20
197.070953
 30
0.0
 10
101.379051
 20
195.615878
 30
0.0
 10
99.584126
 20
195.615878
 30
0.0
  0
SPLINE
  5
21c
100
AcDbEntity
  8
Layer_1
 62
7
100
AcDbSpline
 70
8
 71
3
 72
8
 73
4
 74
0
 40
0
 40
0
 40
0
 40
0
 40
1
 40
1
 40
1
 40
1
 10
99.584126
 20
195.615878
 30
0.0
 10
97.789201
 20
195.615878
 30
0.0
 10
96.334126
 20
197.070953
 30
0.0
 10
96.334126
 20
198.865878
 30
0.0
  0
SPLINE
  5
21d
100
AcDbEntity
  8
Layer_1
 62
7
100
AcDbSpline
 70
8
 71
3
 72
8
 73
4
 74
0
 40
0
 40
0
 40
0
 40
0
 40
1
 40
1
 40
1
 40
1
 10
96.334126
 20
198.865878
 30
0.0
 10
96.334126
 20
200.660804
 30
0.0
 10
97.789201
 20
202.115878
 30
0.0
 10
99.584126
 20
202.115878
 30
0.0
  0
SPLINE
  5
21e
100
AcDbEntity
  8
Layer_1
 62
7
100
AcDbSpline
 70
8
 71
3
 72
8
 73
4
 74
0
 40
0
 40
0
 40
0
 40
0
 40
1
 40
1
 40
1
 40
1
 10
99.584126
 20
202.115878
 30
0.0
 10
101.379051
 20
202.115878
 30
0.0
 10
102.834126
 20
200.660804
 30
0.0
 10
102.834126
 20
198.865878
 30
0.0
  0
LWPOLYLINE
  5
21f
100
AcDbEntity
  8
Layer_1
 62
7
100
AcDbPolyline
 90
2
 70
0
 10
102.834126
 20
217.915879
 30
0.0
 10
102.834126
 20
217.915879
 30
0.0
  0
SPLINE
  5
220
100
AcDbEntity
  8
Layer_1
 62
7
100
AcDbSpline
 70
8
 71
3
 72
8
 73
4
 74
0
 40
0
 40
0
 40
0
 40
0
 40
1
 40
1
 40
1
 40
1
 10
102.834126
 20
179.815879
 30
0.0
 10
102.834126
 20
178.020954
 30
0.0
 10
101.379051
 20
176.565880
 30
0.0
 10
99.584126
 20
176.565880
 30
0.0
  0
SPLINE
  5
221
100
AcDbEntity
  8
Layer_1
 62
7
100
AcDbSpline
 70
8
 71
3
 72
8
 73
4
 74
0
 40
0
 40
0
 40
0
 40
0
 40
1
 40
1
 40
1
 40
1
 10
99.584126
 20
176.565880
 30
0.0
 10
97.789201
 20
176.565880
 30
0.0
 10
96.334126
 20
178.020954
 30
0.0
 10
96.334126
 20
179.815879
 30
0.0
  0
SPLINE
  5
222
100
AcDbEntity
  8
Layer_1
 62
7
100
AcDbSpline
 70
8
 71
3
 72
8
 73
4
 74
0
 40
0
 40
0
 40
0
 40
0
 40
1
 40
1
 40
1
 40
1
 10
96.334126
 20
179.815879
 30
0.0
 10
96.334126
 20
181.610804
 30
0.0
 10
97.789201
 20
183.065879
 30
0.0
 10
99.584126
 20
183.065879
 30
0.0
  0
SPLINE
  5
223
100
AcDbEntity
  8
Layer_1
 62
7
100
AcDbSpline
 70
8
 71
3
 72
8
 73
4
 74
0
 40
0
 40
0
 40
0
 40
0
 40
1
 40
1
 40
1
 40
1
 10
99.584126
 20
183.065879
 30
0.0
 10
101.379051
 20
183.065879
 30
0.0
 10
102.834126
 20
181.610804
 30
0.0
 10
102.834126
 20
179.815879
 30
0.0
  0
LWPOLYLINE
  5
224
100
AcDbEntity
  8
Layer_1
 62
7
100
AcDbPolyline
 90
2
 70
0
 10
102.834126
 20
198.865878
 30
0.0
 10
102.834126
 20
198.865878
 30
0.0
  0
SPLINE
  5
225
100
AcDbEntity
  8
Layer_1
 62
7
100
AcDbSpline
 70
8
 71
3
 72
8
 73
4
 74
0
 40
0
 40
0
 40
0
 40
0
 40
1
 40
1
 40
1
 40
1
 10
109.184126
 20
135.365881
 30
0.0
 10
109.184126
 20
133.570961
 30
0.0
 10
107.729052
 20
132.115881
 30
0.0
 10
105.934126
 20
132.115881
 30
0.0
  0
SPLINE
  5
226
100
AcDbEntity
  8
Layer_1
 62
7
100
AcDbSpline
 70
8
 71
3
 72
8
 73
4
 74
0
 40
0
 40
0
 40
0
 40
0
 40
1
 40
1
 40
1
 40
1
 10
105.934126
 20
132.115881
 30
0.0
 10
104.139201
 20
132.115881
 30
0.0
 10
102.684126
 20
133.570961
 30
0.0
 10
102.684126
 20
135.365881
 30
0.0
  0
SPLINE
  5
227
100
AcDbEntity
  8
Layer_1
 62
7
100
AcDbSpline
 70
8
 71
3
 72
8
 73
4
 74
0
 40
0
 40
0
 40
0
 40
0
 40
1
 40
1
 40
1
 40
1
 10
102.684126
 20
135.365881
 30
0.0
 10
102.684126
 20
137.160810
 30
0.0
 10
104.139201
 20
138.615880
 30
0.0
 10
105.934126
 20
138.615880
 30
0.0
  0
SPLINE
  5
228
100
AcDbEntity
  8
Layer_1
 62
7
100
AcDbSpline
 70
8
 71
3
 72
8
 73
4
 74
0
 40
0
 40
0
 40
0
 40
0
 40
1
 40
1
 40
1
 40
1
 10
105.934126
 20
138.615880
 30
0.0
 10
107.729052
 20
138.615880
 30
0.0
 10
109.184126
 20
137.160810
 30
0.0
 10
109.184126
 20
135.365881
 30
0.0
  0
LWPOLYLINE
  5
229
100
AcDbEntity
  8
Layer_1
 62
7
100
AcDbPolyline
 90
2
 70
0
 10
102.834126
 20
179.815879
 30
0.0
 10
102.834126
 20
179.815879
 30
0.0
  0
SPLINE
  5
22a
100
AcDbEntity
  8
Layer_1
 62
7
100
AcDbSpline
 70
8
 71
3
 72
8
 73
4
 74
0
 40
0
 40
0
 40
0
 40
0
 40
1
 40
1
 40
1
 40
1
 10
121.884125
 20
135.365881
 30
0.0
 10
121.884125
 20
133.570961
 30
0.0
 10
120.429051
 20
132.115881
 30
0.0
 10
118.634125
 20
132.115881
 30
0.0
  0
SPLINE
  5
22b
100
AcDbEntity
  8
Layer_1
 62
7
100
AcDbSpline
 70
8
 71
3
 72
8
 73
4
 74
0
 40
0
 40
0
 40
0
 40
0
 40
1
 40
1
 40
1
 40
1
 10
118.634125
 20
132.115881
 30
0.0
 10
116.839200
 20
132.115881
 30
0.0
 10
115.384125
 20
133.570961
 30
0.0
 10
115.384125
 20
135.365881
 30
0.0
  0
SPLINE
  5
22c
100
AcDbEntity
  8
Layer_1
 62
7
100
AcDbSpline
 70
8
 71
3
 72
8
 73
4
 74
0
 40
0
 40
0
 40
0
 40
0
 40
1
 40
1
 40
1
 40
1
 10
115.384125
 20
135.365881
 30
0.0
 10
115.384125
 20
137.160810
 30
0.0
 10
116.839200
 20
138.615880
 30
0.0
 10
118.634125
 20
138.615880
 30
0.0
  0
SPLINE
  5
22d
100
AcDbEntity
  8
Layer_1
 62
7
100
AcDbSpline
 70
8
 71
3
 72
8
 73
4
 74
0
 40
0
 40
0
 40
0
 40
0
 40
1
 40
1
 40
1
 40
1
 10
118.634125
 20
138.615880
 30
0.0
 10
120.429051
 20
138.615880
 30
0.0
 10
121.884125
 20
137.160810
 30
0.0
 10
121.884125
 20
135.365881
 30
0.0
  0
LWPOLYLINE
  5
22e
100
AcDbEntity
  8
Layer_1
 62
7
100
AcDbPolyline
 90
2
 70
0
 10
109.184126
 20
135.365881
 30
0.0
 10
109.184126
 20
135.365881
 30
0.0
  0
SPLINE
  5
22f
100
AcDbEntity
  8
Layer_1
 62
7
100
AcDbSpline
 70
8
 71
3
 72
8
 73
4
 74
0
 40
0
 40
0
 40
0
 40
0
 40
1
 40
1
 40
1
 40
1
 10
134.584125
 20
135.365881
 30
0.0
 10
134.584125
 20
133.570961
 30
0.0
 10
133.129050
 20
132.115881
 30
0.0
 10
131.334125
 20
132.115881
 30
0.0
  0
SPLINE
  5
230
100
AcDbEntity
  8
Layer_1
 62
7
100
AcDbSpline
 70
8
 71
3
 72
8
 73
4
 74
0
 40
0
 40
0
 40
0
 40
0
 40
1
 40
1
 40
1
 40
1
 10
131.334125
 20
132.115881
 30
0.0
 10
129.539200
 20
132.115881
 30
0.0
 10
128.084125
 20
133.570961
 30
0.0
 10
128.084125
 20
135.365881
 30
0.0
  0
SPLINE
  5
231
100
AcDbEntity
  8
Layer_1
 62
7
100
AcDbSpline
 70
8
 71
3
 72
8
 73
4
 74
0
 40
0
 40
0
 40
0
 40
0
 40
1
 40
1
 40
1
 40
1
 10
128.084125
 20
135.365881
 30
0.0
 10
128.084125
 20
137.160810
 30
0.0
 10
129.539200
 20
138.615880
 30
0.0
 10
131.334125
 20
138.615880
 30
0.0
  0
SPLINE
  5
232
100
AcDbEntity
  8
Layer_1
 62
7
100
AcDbSpline
 70
8
 71
3
 72
8
 73
4
 74
0
 40
0
 40
0
 40
0
 40
0
 40
1
 40
1
 40
1
 40
1
 10
131.334125
 20
138.615880
 30
0.0
 10
133.129050
 20
138.615880
 30
0.0
 10
134.584125
 20
137.160810
 30
0.0
 10
134.584125
 20
135.365881
 30
0.0
  0
LWPOLYLINE
  5
233
100
AcDbEntity
  8
Layer_1
 62
7
100
AcDbPolyline
 90
2
 70
0
 10
121.884125
 20
135.365881
 30
0.0
 10
121.884125
 20
135.365881
 30
0.0
  0
SPLINE
  5
234
100
AcDbEntity
  8
Layer_1
 62
7
100
AcDbSpline
 70
8
 71
3
 72
8
 73
4
 74
0
 40
0
 40
0
 40
0
 40
0
 40
1
 40
1
 40
1
 40
1
 10
147.284126
 20
135.365881
 30
0.0
 10
147.284126
 20
133.570961
 30
0.0
 10
145.829051
 20
132.115881
 30
0.0
 10
144.034126
 20
132.115881
 30
0.0
  0
SPLINE
  5
235
100
AcDbEntity
  8
Layer_1
 62
7
100
AcDbSpline
 70
8
 71
3
 72
8
 73
4
 74
0
 40
0
 40
0
 40
0
 40
0
 40
1
 40
1
 40
1
 40
1
 10
144.034126
 20
132.115881
 30
0.0
 10
142.239200
 20
132.115881
 30
0.0
 10
140.784126
 20
133.570961
 30
0.0
 10
140.784126
 20
135.365881
 30
0.0
  0
SPLINE
  5
236
100
AcDbEntity
  8
Layer_1
 62
7
100
AcDbSpline
 70
8
 71
3
 72
8
 73
4
 74
0
 40
0
 40
0
 40
0
 40
0
 40
1
 40
1
 40
1
 40
1
 10
140.784126
 20
135.365881
 30
0.0
 10
140.784126
 20
137.160810
 30
0.0
 10
142.239200
 20
138.615880
 30
0.0
 10
144.034126
 20
138.615880
 30
0.0
  0
SPLINE
  5
237
100
AcDbEntity
  8
Layer_1
 62
7
100
AcDbSpline
 70
8
 71
3
 72
8
 73
4
 74
0
 40
0
 40
0
 40
0
 40
0
 40
1
 40
1
 40
1
 40
1
 10
144.034126
 20
138.615880
 30
0.0
 10
145.829051
 20
138.615880
 30
0.0
 10
147.284126
 20
137.160810
 30
0.0
 10
147.284126
 20
135.365881
 30
0.0
  0
LWPOLYLINE
  5
238
100
AcDbEntity
  8
Layer_1
 62
7
100
AcDbPolyline
 90
2
 70
0
 10
134.584125
 20
135.365881
 30
0.0
 10
134.584125
 20
135.365881
 30
0.0
  0
SPLINE
  5
239
100
AcDbEntity
  8
Layer_2
 62
7
100
AcDbSpline
 70
8
 71
3
 72
8
 73
4
 74
0
 40
0
 40
0
 40
0
 40
0
 40
1
 40
1
 40
1
 40
1
 10
105.868589
 20
138.743101
 30
0.0
 10
105.778026
 20
150.335216
 30
0.0
 10
105.823326
 20
145.059898
 30
0.0
 10
105.800666
 20
147.935285
 30
0.0
  0
SPLINE
  5
23a
100
AcDbEntity
  8
Layer_2
 62
7
100
AcDbSpline
 70
8
 71
3
 72
8
 73
4
 74
0
 40
0
 40
0
 40
0
 40
0
 40
1
 40
1
 40
1
 40
1
 10
105.800666
 20
147.935285
 30
0.0
 10
105.794937
 20
148.661669
 30
0.0
 10
105.675983
 20
150.612417
 30
0.0
 10
106.639035
 20
152.613703
 30
0.0
  0
SPLINE
  5
23b
100
AcDbEntity
  8
Layer_2
 62
7
100
AcDbSpline
 70
8
 71
3
 72
8
 73
4
 74
0
 40
0
 40
0
 40
0
 40
0
 40
1
 40
1
 40
1
 40
1
 10
106.639035
 20
152.613703
 30
0.0
 10
107.579606
 20
154.568267
 30
0.0
 10
109.076688
 20
155.132463
 30
0.0
 10
111.058768
 20
156.345127
 30
0.0
  0
SPLINE
  5
23c
100
AcDbEntity
  8
Layer_2
 62
7
100
AcDbSpline
 70
8
 71
3
 72
8
 73
4
 74
0
 40
0
 40
0
 40
0
 40
0
 40
1
 40
1
 40
1
 40
1
 10
131.268589
 20
138.743101
 30
0.0
 10
131.178026
 20
150.335216
 30
0.0
 10
131.223326
 20
145.059898
 30
0.0
 10
131.200666
 20
147.935285
 30
0.0
  0
SPLINE
  5
23d
100
AcDbEntity
  8
Layer_2
 62
7
100
AcDbSpline
 70
8
 71
3
 72
8
 73
4
 74
0
 40
0
 40
0
 40
0
 40
0
 40
1
 40
1
 40
1
 40
1
 10
131.200666
 20
147.935285
 30
0.0
 10
131.194937
 20
148.661669
 30
0.0
 10
131.075983
 20
150.612417
 30
0.0
 10
132.039035
 20
152.613703
 30
0.0
  0
SPLINE
  5
23e
100
AcDbEntity
  8
Layer_2
 62
7
100
AcDbSpline
 70
8
 71
3
 72
8
 73
4
 74
0
 40
0
 40
0
 40
0
 40
0
 40
1
 40
1
 40
1
 40
1
 10
132.039035
 20
152.613703
 30
0.0
 10
132.979606
 20
154.568267
 30
0.0
 10
134.476688
 20
155.132463
 30
0.0
 10
136.458768
 20
156.345127
 30
0.0
  0
LWPOLYLINE
  5
23f
100
AcDbEntity
  8
Layer_1
 62
7
100
AcDbPolyline
 90
2
 70
0
 10
147.284126
 20
135.365881
 30
0.0
 10
147.284126
 20
135.365881
 30
0.0
  0
SPLINE
  5
240
100
AcDbEntity
  8
Layer_2
 62
7
100
AcDbSpline
 70
8
 71
3
 72
8
 73
4
 74
0
 40
0
 40
0
 40
0
 40
0
 40
1
 40
1
 40
1
 40
1
 10
105.406159
 20
129.342101
 30
0.0
 10
105.262841
 20
129.421107
 30
0.0
 10
105.118606
 20
129.479905
 30
0.0
 10
104.973456
 20
129.518490
 30
0.0
  0
SPLINE
  5
241
100
AcDbEntity
  8
Layer_2
 62
7
100
AcDbSpline
 70
8
 71
3
 72
8
 73
4
 74
0
 40
0
 40
0
 40
0
 40
0
 40
1
 40
1
 40
1
 40
1
 10
104.973456
 20
129.518490
 30
0.0
 10
104.830138
 20
129.558910
 30
0.0
 10
104.684982
 20
129.579123
 30
0.0
 10
104.537995
 20
129.579126
 30
0.0
  0
SPLINE
  5
242
100
AcDbEntity
  8
Layer_2
 62
7
100
AcDbSpline
 70
8
 71
3
 72
8
 73
4
 74
0
 40
0
 40
0
 40
0
 40
0
 40
1
 40
1
 40
1
 40
1
 10
104.537995
 20
129.579126
 30
0.0
 10
104.209102
 20
129.579123
 30
0.0
 10
103.953705
 20
129.474393
 30
0.0
 10
103.771804
 20
129.264933
 30
0.0
  0
SPLINE
  5
243
100
AcDbEntity
  8
Layer_2
 62
7
100
AcDbSpline
 70
8
 71
3
 72
8
 73
4
 74
0
 40
0
 40
0
 40
0
 40
0
 40
1
 40
1
 40
1
 40
1
 10
103.771804
 20
129.264933
 30
0.0
 10
103.589904
 20
129.057305
 30
0.0
 10
103.498952
 20
128.765163
 30
0.0
 10
103.498955
 20
128.388501
 30
0.0
  0
SPLINE
  5
244
100
AcDbEntity
  8
Layer_2
 62
7
100
AcDbSpline
 70
8
 71
3
 72
8
 73
4
 74
0
 40
0
 40
0
 40
0
 40
0
 40
1
 40
1
 40
1
 40
1
 10
103.498955
 20
128.388501
 30
0.0
 10
103.498952
 20
128.011836
 30
0.0
 10
103.589904
 20
127.718773
 30
0.0
 10
103.771804
 20
127.509311
 30
0.0
  0
SPLINE
  5
245
100
AcDbEntity
  8
Layer_2
 62
7
100
AcDbSpline
 70
8
 71
3
 72
8
 73
4
 74
0
 40
0
 40
0
 40
0
 40
0
 40
1
 40
1
 40
1
 40
1
 10
103.771804
 20
127.509311
 30
0.0
 10
103.953705
 20
127.301688
 30
0.0
 10
104.209102
 20
127.197876
 30
0.0
 10
104.537995
 20
127.197876
 30
0.0
  0
SPLINE
  5
246
100
AcDbEntity
  8
Layer_2
 62
7
100
AcDbSpline
 70
8
 71
3
 72
8
 73
4
 74
0
 40
0
 40
0
 40
0
 40
0
 40
1
 40
1
 40
1
 40
1
 10
104.537995
 20
127.197876
 30
0.0
 10
104.684982
 20
127.197876
 30
0.0
 10
104.830138
 20
127.217180
 30
0.0
 10
104.973456
 20
127.255754
 30
0.0
  0
SPLINE
  5
247
100
AcDbEntity
  8
Layer_2
 62
7
100
AcDbSpline
 70
8
 71
3
 72
8
 73
4
 74
0
 40
0
 40
0
 40
0
 40
0
 40
1
 40
1
 40
1
 40
1
 10
104.973456
 20
127.255754
 30
0.0
 10
105.118606
 20
127.296174
 30
0.0
 10
105.262841
 20
127.355889
 30
0.0
 10
105.406159
 20
127.434897
 30
0.0
  0
LWPOLYLINE
  5
248
100
AcDbEntity
  8
Layer_2
 62
7
100
AcDbPolyline
 90
2
 70
0
 10
105.406159
 20
129.816147
 30
0.0
 10
105.406159
 20
129.342101
 30
0.0
  0
SPLINE
  5
249
100
AcDbEntity
  8
Layer_2
 62
7
100
AcDbSpline
 70
8
 71
3
 72
8
 73
4
 74
0
 40
0
 40
0
 40
0
 40
0
 40
1
 40
1
 40
1
 40
1
 10
105.406159
 20
126.966366
 30
0.0
 10
105.264678
 20
126.900219
 30
0.0
 10
105.117688
 20
126.850610
 30
0.0
 10
104.965187
 20
126.817536
 30
0.0
  0
SPLINE
  5
24a
100
AcDbEntity
  8
Layer_2
 62
7
100
AcDbSpline
 70
8
 71
3
 72
8
 73
4
 74
0
 40
0
 40
0
 40
0
 40
0
 40
1
 40
1
 40
1
 40
1
 10
104.965187
 20
126.817536
 30
0.0
 10
104.814520
 20
126.784463
 30
0.0
 10
104.653749
 20
126.767927
 30
0.0
 10
104.482872
 20
126.767927
 30
0.0
  0
SPLINE
  5
24b
100
AcDbEntity
  8
Layer_2
 62
7
100
AcDbSpline
 70
8
 71
3
 72
8
 73
4
 74
0
 40
0
 40
0
 40
0
 40
0
 40
1
 40
1
 40
1
 40
1
 10
104.482872
 20
126.767927
 30
0.0
 10
104.018012
 20
126.767927
 30
0.0
 10
103.648699
 20
126.914000
 30
0.0
 10
103.374929
 20
127.206145
 30
0.0
  0
SPLINE
  5
24c
100
AcDbEntity
  8
Layer_2
 62
7
100
AcDbSpline
 70
8
 71
3
 72
8
 73
4
 74
0
 40
0
 40
0
 40
0
 40
0
 40
1
 40
1
 40
1
 40
1
 10
103.374929
 20
127.206145
 30
0.0
 10
103.101160
 20
127.498287
 30
0.0
 10
102.964274
 20
127.892405
 30
0.0
 10
102.964276
 20
128.388501
 30
0.0
  0
SPLINE
  5
24d
100
AcDbEntity
  8
Layer_2
 62
7
100
AcDbSpline
 70
8
 71
3
 72
8
 73
4
 74
0
 40
0
 40
0
 40
0
 40
0
 40
1
 40
1
 40
1
 40
1
 10
102.964276
 20
128.388501
 30
0.0
 10
102.964274
 20
128.891943
 30
0.0
 10
103.102080
 20
129.287898
 30
0.0
 10
103.377687
 20
129.576368
 30
0.0
  0
SPLINE
  5
24e
100
AcDbEntity
  8
Layer_2
 62
7
100
AcDbSpline
 70
8
 71
3
 72
8
 73
4
 74
0
 40
0
 40
0
 40
0
 40
0
 40
1
 40
1
 40
1
 40
1
 10
103.377687
 20
129.576368
 30
0.0
 10
103.655131
 20
129.864836
 30
0.0
 10
104.034550
 20
130.009069
 30
0.0
 10
104.515945
 20
130.009074
 30
0.0
  0
SPLINE
  5
24f
100
AcDbEntity
  8
Layer_2
 62
7
100
AcDbSpline
 70
8
 71
3
 72
8
 73
4
 74
0
 40
0
 40
0
 40
0
 40
0
 40
1
 40
1
 40
1
 40
1
 10
104.515945
 20
130.009074
 30
0.0
 10
104.672122
 20
130.009069
 30
0.0
 10
104.824623
 20
129.992536
 30
0.0
 10
104.973456
 20
129.959463
 30
0.0
  0
SPLINE
  5
250
100
AcDbEntity
  8
Layer_2
 62
7
100
AcDbSpline
 70
8
 71
3
 72
8
 73
4
 74
0
 40
0
 40
0
 40
0
 40
0
 40
1
 40
1
 40
1
 40
1
 10
104.973456
 20
129.959463
 30
0.0
 10
105.122280
 20
129.928226
 30
0.0
 10
105.266515
 20
129.880454
 30
0.0
 10
105.406159
 20
129.816147
 30
0.0
  0
LWPOLYLINE
  5
251
100
AcDbEntity
  8
Layer_2
 62
7
100
AcDbPolyline
 90
2
 70
0
 10
105.406159
 20
127.434897
 30
0.0
 10
105.406159
 20
126.966366
 30
0.0
  0
SPLINE
  5
252
100
AcDbEntity
  8
Layer_2
 62
7
100
AcDbSpline
 70
8
 71
3
 72
8
 73
4
 74
0
 40
0
 40
0
 40
0
 40
0
 40
1
 40
1
 40
1
 40
1
 10
115.248780
 20
129.878089
 30
0.0
 10
114.925399
 20
129.878087
 30
0.0
 10
114.668165
 20
129.757555
 30
0.0
 10
114.477078
 20
129.516492
 30
0.0
  0
SPLINE
  5
253
100
AcDbEntity
  8
Layer_2
 62
7
100
AcDbSpline
 70
8
 71
3
 72
8
 73
4
 74
0
 40
0
 40
0
 40
0
 40
0
 40
1
 40
1
 40
1
 40
1
 10
114.477078
 20
129.516492
 30
0.0
 10
114.287458
 20
129.275426
 30
0.0
 10
114.192651
 20
128.946903
 30
0.0
 10
114.192651
 20
128.530921
 30
0.0
  0
SPLINE
  5
254
100
AcDbEntity
  8
Layer_2
 62
7
100
AcDbSpline
 70
8
 71
3
 72
8
 73
4
 74
0
 40
0
 40
0
 40
0
 40
0
 40
1
 40
1
 40
1
 40
1
 10
114.192651
 20
128.530921
 30
0.0
 10
114.192651
 20
128.116405
 30
0.0
 10
114.287458
 20
127.788618
 30
0.0
 10
114.477078
 20
127.547552
 30
0.0
  0
SPLINE
  5
255
100
AcDbEntity
  8
Layer_2
 62
7
100
AcDbSpline
 70
8
 71
3
 72
8
 73
4
 74
0
 40
0
 40
0
 40
0
 40
0
 40
1
 40
1
 40
1
 40
1
 10
114.477078
 20
127.547552
 30
0.0
 10
114.668165
 20
127.306486
 30
0.0
 10
114.925399
 20
127.185955
 30
0.0
 10
115.248780
 20
127.185955
 30
0.0
  0
SPLINE
  5
256
100
AcDbEntity
  8
Layer_2
 62
7
100
AcDbSpline
 70
8
 71
3
 72
8
 73
4
 74
0
 40
0
 40
0
 40
0
 40
0
 40
1
 40
1
 40
1
 40
1
 10
115.248780
 20
127.185955
 30
0.0
 10
115.572156
 20
127.185955
 30
0.0
 10
115.827920
 20
127.306486
 30
0.0
 10
116.016072
 20
127.547552
 30
0.0
  0
SPLINE
  5
257
100
AcDbEntity
  8
Layer_2
 62
7
100
AcDbSpline
 70
8
 71
3
 72
8
 73
4
 74
0
 40
0
 40
0
 40
0
 40
0
 40
1
 40
1
 40
1
 40
1
 10
116.016072
 20
127.547552
 30
0.0
 10
116.205686
 20
127.788618
 30
0.0
 10
116.300496
 20
128.116405
 30
0.0
 10
116.300498
 20
128.530921
 30
0.0
  0
SPLINE
  5
258
100
AcDbEntity
  8
Layer_2
 62
7
100
AcDbSpline
 70
8
 71
3
 72
8
 73
4
 74
0
 40
0
 40
0
 40
0
 40
0
 40
1
 40
1
 40
1
 40
1
 10
116.300498
 20
128.530921
 30
0.0
 10
116.300496
 20
128.946903
 30
0.0
 10
116.205686
 20
129.275426
 30
0.0
 10
116.016072
 20
129.516492
 30
0.0
  0
SPLINE
  5
259
100
AcDbEntity
  8
Layer_2
 62
7
100
AcDbSpline
 70
8
 71
3
 72
8
 73
4
 74
0
 40
0
 40
0
 40
0
 40
0
 40
1
 40
1
 40
1
 40
1
 10
116.016072
 20
129.516492
 30
0.0
 10
115.827920
 20
129.757555
 30
0.0
 10
115.572156
 20
129.878087
 30
0.0
 10
115.248780
 20
129.878089
 30
0.0
  0
SPLINE
  5
25a
100
AcDbEntity
  8
Layer_2
 62
7
100
AcDbSpline
 70
8
 71
3
 72
8
 73
4
 74
0
 40
0
 40
0
 40
0
 40
0
 40
1
 40
1
 40
1
 40
1
 10
115.248780
 20
130.239687
 30
0.0
 10
115.710329
 20
130.239684
 30
0.0
 10
116.079276
 20
130.084608
 30
0.0
 10
116.355619
 20
129.774463
 30
0.0
  0
SPLINE
  5
25b
100
AcDbEntity
  8
Layer_2
 62
7
100
AcDbSpline
 70
8
 71
3
 72
8
 73
4
 74
0
 40
0
 40
0
 40
0
 40
0
 40
1
 40
1
 40
1
 40
1
 10
116.355619
 20
129.774463
 30
0.0
 10
116.631960
 20
129.465780
 30
0.0
 10
116.770130
 20
129.051266
 30
0.0
 10
116.770133
 20
128.530921
 30
0.0
  0
SPLINE
  5
25c
100
AcDbEntity
  8
Layer_2
 62
7
100
AcDbSpline
 70
8
 71
3
 72
8
 73
4
 74
0
 40
0
 40
0
 40
0
 40
0
 40
1
 40
1
 40
1
 40
1
 10
116.770133
 20
128.530921
 30
0.0
 10
116.770130
 20
128.012042
 30
0.0
 10
116.631960
 20
127.597528
 30
0.0
 10
116.355619
 20
127.287380
 30
0.0
  0
SPLINE
  5
25d
100
AcDbEntity
  8
Layer_2
 62
7
100
AcDbSpline
 70
8
 71
3
 72
8
 73
4
 74
0
 40
0
 40
0
 40
0
 40
0
 40
1
 40
1
 40
1
 40
1
 10
116.355619
 20
127.287380
 30
0.0
 10
116.079276
 20
126.978699
 30
0.0
 10
115.710329
 20
126.824358
 30
0.0
 10
115.248780
 20
126.824358
 30
0.0
  0
SPLINE
  5
25e
100
AcDbEntity
  8
Layer_2
 62
7
100
AcDbSpline
 70
8
 71
3
 72
8
 73
4
 74
0
 40
0
 40
0
 40
0
 40
0
 40
1
 40
1
 40
1
 40
1
 10
115.248780
 20
126.824358
 30
0.0
 10
114.785758
 20
126.824358
 30
0.0
 10
114.415341
 20
126.978699
 30
0.0
 10
114.137530
 20
127.287380
 30
0.0
  0
SPLINE
  5
25f
100
AcDbEntity
  8
Layer_2
 62
7
100
AcDbSpline
 70
8
 71
3
 72
8
 73
4
 74
0
 40
0
 40
0
 40
0
 40
0
 40
1
 40
1
 40
1
 40
1
 10
114.137530
 20
127.287380
 30
0.0
 10
113.861187
 20
127.596057
 30
0.0
 10
113.723016
 20
128.010571
 30
0.0
 10
113.723016
 20
128.530921
 30
0.0
  0
SPLINE
  5
260
100
AcDbEntity
  8
Layer_2
 62
7
100
AcDbSpline
 70
8
 71
3
 72
8
 73
4
 74
0
 40
0
 40
0
 40
0
 40
0
 40
1
 40
1
 40
1
 40
1
 10
113.723016
 20
128.530921
 30
0.0
 10
113.723016
 20
129.051266
 30
0.0
 10
113.861187
 20
129.465780
 30
0.0
 10
114.137530
 20
129.774463
 30
0.0
  0
SPLINE
  5
261
100
AcDbEntity
  8
Layer_2
 62
7
100
AcDbSpline
 70
8
 71
3
 72
8
 73
4
 74
0
 40
0
 40
0
 40
0
 40
0
 40
1
 40
1
 40
1
 40
1
 10
114.137530
 20
129.774463
 30
0.0
 10
114.415341
 20
130.084608
 30
0.0
 10
114.785758
 20
130.239684
 30
0.0
 10
115.248780
 20
130.239687
 30
0.0
  0
LWPOLYLINE
  5
262
100
AcDbEntity
  8
Layer_2
 62
7
100
AcDbPolyline
 90
8
 70
0
 10
105.929814
 20
129.934658
 30
0.0
 10
106.467247
 20
129.934658
 30
0.0
 10
107.431874
 20
127.343948
 30
0.0
 10
108.396501
 20
129.934658
 30
0.0
 10
108.933937
 20
129.934658
 30
0.0
 10
107.776385
 20
126.847853
 30
0.0
 10
107.087365
 20
126.847853
 30
0.0
 10
105.929814
 20
129.934658
 30
0.0
  0
SPLINE
  5
263
100
AcDbEntity
  8
Layer_2
 62
7
100
AcDbSpline
 70
8
 71
3
 72
8
 73
4
 74
0
 40
0
 40
0
 40
0
 40
0
 40
1
 40
1
 40
1
 40
1
 10
117.863744
 20
128.180348
 30
0.0
 10
117.863744
 20
127.827570
 30
0.0
 10
117.927684
 20
127.573277
 30
0.0
 10
118.055568
 20
127.417464
 30
0.0
  0
SPLINE
  5
264
100
AcDbEntity
  8
Layer_2
 62
7
100
AcDbSpline
 70
8
 71
3
 72
8
 73
4
 74
0
 40
0
 40
0
 40
0
 40
0
 40
1
 40
1
 40
1
 40
1
 10
118.055568
 20
127.417464
 30
0.0
 10
118.183448
 20
127.263126
 30
0.0
 10
118.390704
 20
127.185955
 30
0.0
 10
118.677337
 20
127.185955
 30
0.0
  0
SPLINE
  5
265
100
AcDbEntity
  8
Layer_2
 62
7
100
AcDbSpline
 70
8
 71
3
 72
8
 73
4
 74
0
 40
0
 40
0
 40
0
 40
0
 40
1
 40
1
 40
1
 40
1
 10
118.677337
 20
127.185955
 30
0.0
 10
118.962497
 20
127.185955
 30
0.0
 10
119.169019
 20
127.263126
 30
0.0
 10
119.296905
 20
127.417464
 30
0.0
  0
SPLINE
  5
266
100
AcDbEntity
  8
Layer_2
 62
7
100
AcDbSpline
 70
8
 71
3
 72
8
 73
4
 74
0
 40
0
 40
0
 40
0
 40
0
 40
1
 40
1
 40
1
 40
1
 10
119.296905
 20
127.417464
 30
0.0
 10
119.424783
 20
127.573277
 30
0.0
 10
119.488726
 20
127.827570
 30
0.0
 10
119.488726
 20
128.180348
 30
0.0
  0
LWPOLYLINE
  5
267
100
AcDbEntity
  8
Layer_2
 62
7
100
AcDbPolyline
 90
3
 70
0
 10
117.416157
 20
130.180158
 30
0.0
 10
117.863744
 20
130.180158
 30
0.0
 10
117.863744
 20
128.180348
 30
0.0
  0
SPLINE
  5
268
100
AcDbEntity
  8
Layer_2
 62
7
100
AcDbSpline
 70
8
 71
3
 72
8
 73
4
 74
0
 40
0
 40
0
 40
0
 40
0
 40
1
 40
1
 40
1
 40
1
 10
119.936314
 20
128.125227
 30
0.0
 10
119.936311
 20
127.696012
 30
0.0
 10
119.829744
 20
127.371897
 30
0.0
 10
119.616609
 20
127.152881
 30
0.0
  0
SPLINE
  5
269
100
AcDbEntity
  8
Layer_2
 62
7
100
AcDbSpline
 70
8
 71
3
 72
8
 73
4
 74
0
 40
0
 40
0
 40
0
 40
0
 40
1
 40
1
 40
1
 40
1
 10
119.616609
 20
127.152881
 30
0.0
 10
119.404940
 20
126.933865
 30
0.0
 10
119.091851
 20
126.824358
 30
0.0
 10
118.677337
 20
126.824358
 30
0.0
  0
SPLINE
  5
26a
100
AcDbEntity
  8
Layer_2
 62
7
100
AcDbSpline
 70
8
 71
3
 72
8
 73
4
 74
0
 40
0
 40
0
 40
0
 40
0
 40
1
 40
1
 40
1
 40
1
 10
118.677337
 20
126.824358
 30
0.0
 10
118.261353
 20
126.824358
 30
0.0
 10
117.946794
 20
126.933865
 30
0.0
 10
117.733657
 20
127.152881
 30
0.0
  0
SPLINE
  5
26b
100
AcDbEntity
  8
Layer_2
 62
7
100
AcDbSpline
 70
8
 71
3
 72
8
 73
4
 74
0
 40
0
 40
0
 40
0
 40
0
 40
1
 40
1
 40
1
 40
1
 10
117.733657
 20
127.152881
 30
0.0
 10
117.521990
 20
127.371897
 30
0.0
 10
117.416157
 20
127.696012
 30
0.0
 10
117.416157
 20
128.125227
 30
0.0
  0
LWPOLYLINE
  5
26c
100
AcDbEntity
  8
Layer_2
 62
7
100
AcDbPolyline
 90
4
 70
0
 10
119.488726
 20
128.180348
 30
0.0
 10
119.488726
 20
130.180158
 30
0.0
 10
119.936314
 20
130.180158
 30
0.0
 10
119.936314
 20
128.125227
 30
0.0
  0
LWPOLYLINE
  5
26d
100
AcDbEntity
  8
Layer_2
 62
7
100
AcDbPolyline
 90
2
 70
0
 10
117.416157
 20
128.125227
 30
0.0
 10
117.416157
 20
130.180158
 30
0.0
  0
LWPOLYLINE
  5
26e
100
AcDbEntity
  8
Layer_2
 62
7
100
AcDbPolyline
 90
9
 70
0
 10
120.317754
 20
130.180158
 30
0.0
 10
123.102494
 20
130.180158
 30
0.0
 10
123.102494
 20
129.805330
 30
0.0
 10
121.933919
 20
129.805330
 30
0.0
 10
121.933919
 20
126.888298
 30
0.0
 10
121.486332
 20
126.888298
 30
0.0
 10
121.486332
 20
129.805330
 30
0.0
 10
120.317754
 20
129.805330
 30
0.0
 10
120.317754
 20
130.180158
 30
0.0
  0
SPLINE
  5
26f
100
AcDbEntity
  8
Layer_2
 62
7
100
AcDbSpline
 70
8
 71
3
 72
8
 73
4
 74
0
 40
0
 40
0
 40
0
 40
0
 40
1
 40
1
 40
1
 40
1
 10
130.851340
 20
129.342101
 30
0.0
 10
130.708022
 20
129.421107
 30
0.0
 10
130.563789
 20
129.479905
 30
0.0
 10
130.418637
 20
129.518490
 30
0.0
  0
SPLINE
  5
270
100
AcDbEntity
  8
Layer_2
 62
7
100
AcDbSpline
 70
8
 71
3
 72
8
 73
4
 74
0
 40
0
 40
0
 40
0
 40
0
 40
1
 40
1
 40
1
 40
1
 10
130.418637
 20
129.518490
 30
0.0
 10
130.275319
 20
129.558910
 30
0.0
 10
130.130166
 20
129.579123
 30
0.0
 10
129.983176
 20
129.579126
 30
0.0
  0
SPLINE
  5
271
100
AcDbEntity
  8
Layer_2
 62
7
100
AcDbSpline
 70
8
 71
3
 72
8
 73
4
 74
0
 40
0
 40
0
 40
0
 40
0
 40
1
 40
1
 40
1
 40
1
 10
129.983176
 20
129.579126
 30
0.0
 10
129.654283
 20
129.579123
 30
0.0
 10
129.398889
 20
129.474393
 30
0.0
 10
129.216988
 20
129.264933
 30
0.0
  0
SPLINE
  5
272
100
AcDbEntity
  8
Layer_2
 62
7
100
AcDbSpline
 70
8
 71
3
 72
8
 73
4
 74
0
 40
0
 40
0
 40
0
 40
0
 40
1
 40
1
 40
1
 40
1
 10
129.216988
 20
129.264933
 30
0.0
 10
129.035085
 20
129.057305
 30
0.0
 10
128.944136
 20
128.765163
 30
0.0
 10
128.944136
 20
128.388501
 30
0.0
  0
SPLINE
  5
273
100
AcDbEntity
  8
Layer_2
 62
7
100
AcDbSpline
 70
8
 71
3
 72
8
 73
4
 74
0
 40
0
 40
0
 40
0
 40
0
 40
1
 40
1
 40
1
 40
1
 10
128.944136
 20
128.388501
 30
0.0
 10
128.944136
 20
128.011836
 30
0.0
 10
129.035085
 20
127.718773
 30
0.0
 10
129.216988
 20
127.509311
 30
0.0
  0
SPLINE
  5
274
100
AcDbEntity
  8
Layer_2
 62
7
100
AcDbSpline
 70
8
 71
3
 72
8
 73
4
 74
0
 40
0
 40
0
 40
0
 40
0
 40
1
 40
1
 40
1
 40
1
 10
129.216988
 20
127.509311
 30
0.0
 10
129.398889
 20
127.301688
 30
0.0
 10
129.654283
 20
127.197876
 30
0.0
 10
129.983176
 20
127.197876
 30
0.0
  0
SPLINE
  5
275
100
AcDbEntity
  8
Layer_2
 62
7
100
AcDbSpline
 70
8
 71
3
 72
8
 73
4
 74
0
 40
0
 40
0
 40
0
 40
0
 40
1
 40
1
 40
1
 40
1
 10
129.983176
 20
127.197876
 30
0.0
 10
130.130166
 20
127.197876
 30
0.0
 10
130.275319
 20
127.217180
 30
0.0
 10
130.418637
 20
127.255754
 30
0.0
  0
SPLINE
  5
276
100
AcDbEntity
  8
Layer_2
 62
7
100
AcDbSpline
 70
8
 71
3
 72
8
 73
4
 74
0
 40
0
 40
0
 40
0
 40
0
 40
1
 40
1
 40
1
 40
1
 10
130.418637
 20
127.255754
 30
0.0
 10
130.563789
 20
127.296174
 30
0.0
 10
130.708022
 20
127.355889
 30
0.0
 10
130.851340
 20
127.434897
 30
0.0
  0
LWPOLYLINE
  5
277
100
AcDbEntity
  8
Layer_2
 62
7
100
AcDbPolyline
 90
2
 70
0
 10
130.851340
 20
129.816147
 30
0.0
 10
130.851340
 20
129.342101
 30
0.0
  0
SPLINE
  5
278
100
AcDbEntity
  8
Layer_2
 62
7
100
AcDbSpline
 70
8
 71
3
 72
8
 73
4
 74
0
 40
0
 40
0
 40
0
 40
0
 40
1
 40
1
 40
1
 40
1
 10
130.851340
 20
126.966366
 30
0.0
 10
130.709859
 20
126.900219
 30
0.0
 10
130.562869
 20
126.850610
 30
0.0
 10
130.410368
 20
126.817536
 30
0.0
  0
SPLINE
  5
279
100
AcDbEntity
  8
Layer_2
 62
7
100
AcDbSpline
 70
8
 71
3
 72
8
 73
4
 74
0
 40
0
 40
0
 40
0
 40
0
 40
1
 40
1
 40
1
 40
1
 10
130.410368
 20
126.817536
 30
0.0
 10
130.259701
 20
126.784463
 30
0.0
 10
130.098930
 20
126.767927
 30
0.0
 10
129.928056
 20
126.767927
 30
0.0
  0
SPLINE
  5
27a
100
AcDbEntity
  8
Layer_2
 62
7
100
AcDbSpline
 70
8
 71
3
 72
8
 73
4
 74
0
 40
0
 40
0
 40
0
 40
0
 40
1
 40
1
 40
1
 40
1
 10
129.928056
 20
126.767927
 30
0.0
 10
129.463196
 20
126.767927
 30
0.0
 10
129.093883
 20
126.914000
 30
0.0
 10
128.820113
 20
127.206145
 30
0.0
  0
SPLINE
  5
27b
100
AcDbEntity
  8
Layer_2
 62
7
100
AcDbSpline
 70
8
 71
3
 72
8
 73
4
 74
0
 40
0
 40
0
 40
0
 40
0
 40
1
 40
1
 40
1
 40
1
 10
128.820113
 20
127.206145
 30
0.0
 10
128.546344
 20
127.498287
 30
0.0
 10
128.409457
 20
127.892405
 30
0.0
 10
128.409457
 20
128.388501
 30
0.0
  0
SPLINE
  5
27c
100
AcDbEntity
  8
Layer_2
 62
7
100
AcDbSpline
 70
8
 71
3
 72
8
 73
4
 74
0
 40
0
 40
0
 40
0
 40
0
 40
1
 40
1
 40
1
 40
1
 10
128.409457
 20
128.388501
 30
0.0
 10
128.409457
 20
128.891943
 30
0.0
 10
128.547261
 20
129.287898
 30
0.0
 10
128.822868
 20
129.576368
 30
0.0
  0
SPLINE
  5
27d
100
AcDbEntity
  8
Layer_2
 62
7
100
AcDbSpline
 70
8
 71
3
 72
8
 73
4
 74
0
 40
0
 40
0
 40
0
 40
0
 40
1
 40
1
 40
1
 40
1
 10
128.822868
 20
129.576368
 30
0.0
 10
129.100312
 20
129.864836
 30
0.0
 10
129.479731
 20
130.009069
 30
0.0
 10
129.961129
 20
130.009074
 30
0.0
  0
SPLINE
  5
27e
100
AcDbEntity
  8
Layer_2
 62
7
100
AcDbSpline
 70
8
 71
3
 72
8
 73
4
 74
0
 40
0
 40
0
 40
0
 40
0
 40
1
 40
1
 40
1
 40
1
 10
129.961129
 20
130.009074
 30
0.0
 10
130.117305
 20
130.009069
 30
0.0
 10
130.269807
 20
129.992536
 30
0.0
 10
130.418637
 20
129.959463
 30
0.0
  0
SPLINE
  5
27f
100
AcDbEntity
  8
Layer_2
 62
7
100
AcDbSpline
 70
8
 71
3
 72
8
 73
4
 74
0
 40
0
 40
0
 40
0
 40
0
 40
1
 40
1
 40
1
 40
1
 10
130.418637
 20
129.959463
 30
0.0
 10
130.567464
 20
129.928226
 30
0.0
 10
130.711696
 20
129.880454
 30
0.0
 10
130.851340
 20
129.816147
 30
0.0
  0
LWPOLYLINE
  5
280
100
AcDbEntity
  8
Layer_2
 62
7
100
AcDbPolyline
 90
2
 70
0
 10
130.851340
 20
127.434897
 30
0.0
 10
130.851340
 20
126.966366
 30
0.0
  0
SPLINE
  5
281
100
AcDbEntity
  8
Layer_2
 62
7
100
AcDbSpline
 70
8
 71
3
 72
8
 73
4
 74
0
 40
0
 40
0
 40
0
 40
0
 40
1
 40
1
 40
1
 40
1
 10
140.693961
 20
129.878089
 30
0.0
 10
140.370580
 20
129.878087
 30
0.0
 10
140.113348
 20
129.757555
 30
0.0
 10
139.922261
 20
129.516492
 30
0.0
  0
SPLINE
  5
282
100
AcDbEntity
  8
Layer_2
 62
7
100
AcDbSpline
 70
8
 71
3
 72
8
 73
4
 74
0
 40
0
 40
0
 40
0
 40
0
 40
1
 40
1
 40
1
 40
1
 10
139.922261
 20
129.516492
 30
0.0
 10
139.732642
 20
129.275426
 30
0.0
 10
139.637832
 20
128.946903
 30
0.0
 10
139.637832
 20
128.530921
 30
0.0
  0
SPLINE
  5
283
100
AcDbEntity
  8
Layer_2
 62
7
100
AcDbSpline
 70
8
 71
3
 72
8
 73
4
 74
0
 40
0
 40
0
 40
0
 40
0
 40
1
 40
1
 40
1
 40
1
 10
139.637832
 20
128.530921
 30
0.0
 10
139.637832
 20
128.116405
 30
0.0
 10
139.732642
 20
127.788618
 30
0.0
 10
139.922261
 20
127.547552
 30
0.0
  0
SPLINE
  5
284
100
AcDbEntity
  8
Layer_2
 62
7
100
AcDbSpline
 70
8
 71
3
 72
8
 73
4
 74
0
 40
0
 40
0
 40
0
 40
0
 40
1
 40
1
 40
1
 40
1
 10
139.922261
 20
127.547552
 30
0.0
 10
140.113348
 20
127.306486
 30
0.0
 10
140.370580
 20
127.185955
 30
0.0
 10
140.693961
 20
127.185955
 30
0.0
  0
SPLINE
  5
285
100
AcDbEntity
  8
Layer_2
 62
7
100
AcDbSpline
 70
8
 71
3
 72
8
 73
4
 74
0
 40
0
 40
0
 40
0
 40
0
 40
1
 40
1
 40
1
 40
1
 10
140.693961
 20
127.185955
 30
0.0
 10
141.017340
 20
127.185955
 30
0.0
 10
141.273104
 20
127.306486
 30
0.0
 10
141.461253
 20
127.547552
 30
0.0
  0
SPLINE
  5
286
100
AcDbEntity
  8
Layer_2
 62
7
100
AcDbSpline
 70
8
 71
3
 72
8
 73
4
 74
0
 40
0
 40
0
 40
0
 40
0
 40
1
 40
1
 40
1
 40
1
 10
141.461253
 20
127.547552
 30
0.0
 10
141.650870
 20
127.788618
 30
0.0
 10
141.745676
 20
128.116405
 30
0.0
 10
141.745679
 20
128.530921
 30
0.0
  0
SPLINE
  5
287
100
AcDbEntity
  8
Layer_2
 62
7
100
AcDbSpline
 70
8
 71
3
 72
8
 73
4
 74
0
 40
0
 40
0
 40
0
 40
0
 40
1
 40
1
 40
1
 40
1
 10
141.745679
 20
128.530921
 30
0.0
 10
141.745676
 20
128.946903
 30
0.0
 10
141.650870
 20
129.275426
 30
0.0
 10
141.461253
 20
129.516492
 30
0.0
  0
SPLINE
  5
288
100
AcDbEntity
  8
Layer_2
 62
7
100
AcDbSpline
 70
8
 71
3
 72
8
 73
4
 74
0
 40
0
 40
0
 40
0
 40
0
 40
1
 40
1
 40
1
 40
1
 10
141.461253
 20
129.516492
 30
0.0
 10
141.273104
 20
129.757555
 30
0.0
 10
141.017340
 20
129.878087
 30
0.0
 10
140.693961
 20
129.878089
 30
0.0
  0
SPLINE
  5
289
100
AcDbEntity
  8
Layer_2
 62
7
100
AcDbSpline
 70
8
 71
3
 72
8
 73
4
 74
0
 40
0
 40
0
 40
0
 40
0
 40
1
 40
1
 40
1
 40
1
 10
140.693961
 20
130.239687
 30
0.0
 10
141.155510
 20
130.239684
 30
0.0
 10
141.524457
 20
130.084608
 30
0.0
 10
141.800803
 20
129.774463
 30
0.0
  0
SPLINE
  5
28a
100
AcDbEntity
  8
Layer_2
 62
7
100
AcDbSpline
 70
8
 71
3
 72
8
 73
4
 74
0
 40
0
 40
0
 40
0
 40
0
 40
1
 40
1
 40
1
 40
1
 10
141.800803
 20
129.774463
 30
0.0
 10
142.077141
 20
129.465780
 30
0.0
 10
142.215311
 20
129.051266
 30
0.0
 10
142.215317
 20
128.530921
 30
0.0
  0
SPLINE
  5
28b
100
AcDbEntity
  8
Layer_2
 62
7
100
AcDbSpline
 70
8
 71
3
 72
8
 73
4
 74
0
 40
0
 40
0
 40
0
 40
0
 40
1
 40
1
 40
1
 40
1
 10
142.215317
 20
128.530921
 30
0.0
 10
142.215311
 20
128.012042
 30
0.0
 10
142.077141
 20
127.597528
 30
0.0
 10
141.800803
 20
127.287380
 30
0.0
  0
SPLINE
  5
28c
100
AcDbEntity
  8
Layer_2
 62
7
100
AcDbSpline
 70
8
 71
3
 72
8
 73
4
 74
0
 40
0
 40
0
 40
0
 40
0
 40
1
 40
1
 40
1
 40
1
 10
141.800803
 20
127.287380
 30
0.0
 10
141.524457
 20
126.978699
 30
0.0
 10
141.155510
 20
126.824358
 30
0.0
 10
140.693961
 20
126.824358
 30
0.0
  0
SPLINE
  5
28d
100
AcDbEntity
  8
Layer_2
 62
7
100
AcDbSpline
 70
8
 71
3
 72
8
 73
4
 74
0
 40
0
 40
0
 40
0
 40
0
 40
1
 40
1
 40
1
 40
1
 10
140.693961
 20
126.824358
 30
0.0
 10
140.230939
 20
126.824358
 30
0.0
 10
139.860522
 20
126.978699
 30
0.0
 10
139.582711
 20
127.287380
 30
0.0
  0
SPLINE
  5
28e
100
AcDbEntity
  8
Layer_2
 62
7
100
AcDbSpline
 70
8
 71
3
 72
8
 73
4
 74
0
 40
0
 40
0
 40
0
 40
0
 40
1
 40
1
 40
1
 40
1
 10
139.582711
 20
127.287380
 30
0.0
 10
139.306368
 20
127.596057
 30
0.0
 10
139.168197
 20
128.010571
 30
0.0
 10
139.168197
 20
128.530921
 30
0.0
  0
SPLINE
  5
28f
100
AcDbEntity
  8
Layer_2
 62
7
100
AcDbSpline
 70
8
 71
3
 72
8
 73
4
 74
0
 40
0
 40
0
 40
0
 40
0
 40
1
 40
1
 40
1
 40
1
 10
139.168197
 20
128.530921
 30
0.0
 10
139.168197
 20
129.051266
 30
0.0
 10
139.306368
 20
129.465780
 30
0.0
 10
139.582711
 20
129.774463
 30
0.0
  0
SPLINE
  5
290
100
AcDbEntity
  8
Layer_2
 62
7
100
AcDbSpline
 70
8
 71
3
 72
8
 73
4
 74
0
 40
0
 40
0
 40
0
 40
0
 40
1
 40
1
 40
1
 40
1
 10
139.582711
 20
129.774463
 30
0.0
 10
139.860522
 20
130.084608
 30
0.0
 10
140.230939
 20
130.239684
 30
0.0
 10
140.693961
 20
130.239687
 30
0.0
  0
LWPOLYLINE
  5
291
100
AcDbEntity
  8
Layer_2
 62
7
100
AcDbPolyline
 90
8
 70
0
 10
131.374995
 20
129.934658
 30
0.0
 10
131.912431
 20
129.934658
 30
0.0
 10
132.877058
 20
127.343948
 30
0.0
 10
133.841685
 20
129.934658
 30
0.0
 10
134.379118
 20
129.934658
 30
0.0
 10
133.221566
 20
126.847853
 30
0.0
 10
132.532549
 20
126.847853
 30
0.0
 10
131.374995
 20
129.934658
 30
0.0
  0
SPLINE
  5
292
100
AcDbEntity
  8
Layer_2
 62
7
100
AcDbSpline
 70
8
 71
3
 72
8
 73
4
 74
0
 40
0
 40
0
 40
0
 40
0
 40
1
 40
1
 40
1
 40
1
 10
143.308928
 20
128.180348
 30
0.0
 10
143.308925
 20
127.827570
 30
0.0
 10
143.372868
 20
127.573277
 30
0.0
 10
143.500749
 20
127.417464
 30
0.0
  0
SPLINE
  5
293
100
AcDbEntity
  8
Layer_2
 62
7
100
AcDbSpline
 70
8
 71
3
 72
8
 73
4
 74
0
 40
0
 40
0
 40
0
 40
0
 40
1
 40
1
 40
1
 40
1
 10
143.500749
 20
127.417464
 30
0.0
 10
143.628632
 20
127.263126
 30
0.0
 10
143.835888
 20
127.185955
 30
0.0
 10
144.122521
 20
127.185955
 30
0.0
  0
SPLINE
  5
294
100
AcDbEntity
  8
Layer_2
 62
7
100
AcDbSpline
 70
8
 71
3
 72
8
 73
4
 74
0
 40
0
 40
0
 40
0
 40
0
 40
1
 40
1
 40
1
 40
1
 10
144.122521
 20
127.185955
 30
0.0
 10
144.407681
 20
127.185955
 30
0.0
 10
144.614203
 20
127.263126
 30
0.0
 10
144.742086
 20
127.417464
 30
0.0
  0
SPLINE
  5
295
100
AcDbEntity
  8
Layer_2
 62
7
100
AcDbSpline
 70
8
 71
3
 72
8
 73
4
 74
0
 40
0
 40
0
 40
0
 40
0
 40
1
 40
1
 40
1
 40
1
 10
144.742086
 20
127.417464
 30
0.0
 10
144.869967
 20
127.573277
 30
0.0
 10
144.933907
 20
127.827570
 30
0.0
 10
144.933910
 20
128.180348
 30
0.0
  0
LWPOLYLINE
  5
296
100
AcDbEntity
  8
Layer_2
 62
7
100
AcDbPolyline
 90
3
 70
0
 10
142.861340
 20
130.180158
 30
0.0
 10
143.308928
 20
130.180158
 30
0.0
 10
143.308928
 20
128.180348
 30
0.0
  0
SPLINE
  5
297
100
AcDbEntity
  8
Layer_2
 62
7
100
AcDbSpline
 70
8
 71
3
 72
8
 73
4
 74
0
 40
0
 40
0
 40
0
 40
0
 40
1
 40
1
 40
1
 40
1
 10
145.381497
 20
128.125227
 30
0.0
 10
145.381495
 20
127.696012
 30
0.0
 10
145.274925
 20
127.371897
 30
0.0
 10
145.061790
 20
127.152881
 30
0.0
  0
SPLINE
  5
298
100
AcDbEntity
  8
Layer_2
 62
7
100
AcDbSpline
 70
8
 71
3
 72
8
 73
4
 74
0
 40
0
 40
0
 40
0
 40
0
 40
1
 40
1
 40
1
 40
1
 10
145.061790
 20
127.152881
 30
0.0
 10
144.850124
 20
126.933865
 30
0.0
 10
144.537032
 20
126.824358
 30
0.0
 10
144.122521
 20
126.824358
 30
0.0
  0
SPLINE
  5
299
100
AcDbEntity
  8
Layer_2
 62
7
100
AcDbSpline
 70
8
 71
3
 72
8
 73
4
 74
0
 40
0
 40
0
 40
0
 40
0
 40
1
 40
1
 40
1
 40
1
 10
144.122521
 20
126.824358
 30
0.0
 10
143.706537
 20
126.824358
 30
0.0
 10
143.391975
 20
126.933865
 30
0.0
 10
143.178840
 20
127.152881
 30
0.0
  0
SPLINE
  5
29a
100
AcDbEntity
  8
Layer_2
 62
7
100
AcDbSpline
 70
8
 71
3
 72
8
 73
4
 74
0
 40
0
 40
0
 40
0
 40
0
 40
1
 40
1
 40
1
 40
1
 10
143.178840
 20
127.152881
 30
0.0
 10
142.967174
 20
127.371897
 30
0.0
 10
142.861340
 20
127.696012
 30
0.0
 10
142.861340
 20
128.125227
 30
0.0
  0
LWPOLYLINE
  5
29b
100
AcDbEntity
  8
Layer_2
 62
7
100
AcDbPolyline
 90
4
 70
0
 10
144.933910
 20
128.180348
 30
0.0
 10
144.933910
 20
130.180158
 30
0.0
 10
145.381497
 20
130.180158
 30
0.0
 10
145.381497
 20
128.125227
 30
0.0
  0
LWPOLYLINE
  5
29c
100
AcDbEntity
  8
Layer_2
 62
7
100
AcDbPolyline
 90
2
 70
0
 10
142.861340
 20
128.125227
 30
0.0
 10
142.861340
 20
130.180158
 30
0.0
  0
LWPOLYLINE
  5
29d
100
AcDbEntity
  8
Layer_2
 62
7
100
AcDbPolyline
 90
9
 70
0
 10
145.762938
 20
130.180158
 30
0.0
 10
148.547678
 20
130.180158
 30
0.0
 10
148.547678
 20
129.805330
 30
0.0
 10
147.379100
 20
129.805330
 30
0.0
 10
147.379100
 20
126.888298
 30
0.0
 10
146.931513
 20
126.888298
 30
0.0
 10
146.931513
 20
129.805330
 30
0.0
 10
145.762938
 20
129.805330
 30
0.0
 10
145.762938
 20
130.180158
 30
0.0
  0
LWPOLYLINE
  5
29e
100
AcDbEntity
  8
Layer_2
 62
7
100
AcDbPolyline
 90
3
 70
0
 10
102.517744
 20
217.895493
 30
0.0
 10
144.176897
 20
217.895493
 30
0.0
 10
144.176897
 20
138.380847
 30
0.0
  0
LWPOLYLINE
  5
29f
100
AcDbEntity
  8
Layer_2
 62
7
100
AcDbPolyline
 90
2
 70
0
 10
102.879996
 20
198.877184
 30
0.0
 10
143.814645
 20
198.877184
 30
0.0
  0
LWPOLYLINE
  5
2a0
100
AcDbEntity
  8
Layer_2
 62
7
100
AcDbPolyline
 90
2
 70
0
 10
102.698872
 20
179.858875
 30
0.0
 10
143.995772
 20
179.858875
 30
0.0
  0
LWPOLYLINE
  5
2a1
100
AcDbEntity
  8
Layer_2
 62
7
100
AcDbPolyline
 90
2
 70
0
 10
118.638026
 20
138.743101
 30
0.0
 10
118.638026
 20
217.895493
 30
0.0
  0
ENDSEC
  0
SECTION
  2
OBJECTS
  0
DICTIONARY
  5
C
330
0
100
AcDbDictionary
  3
ACAD_GROUP
350
D
  3
ACAD_MLINESTYLE
350
17
  0
DICTIONARY
  5
D
330
C
100
AcDbDictionary
  0
DICTIONARY
  5
1A
330
C
100
AcDbDictionary
  0
DICTIONARY
  5
17
330
C
100
AcDbDictionary
  3
STANDARD
350
18
  0
DICTIONARY
  5
19
330
C
100
AcDbDictionary
  0
ENDSEC
  0
EOF
