<?xml version="1.0" encoding="UTF-8" standalone="no"?>
<!-- Created with Inkscape (http://www.inkscape.org/) -->

<svg
   xmlns:dc="http://purl.org/dc/elements/1.1/"
   xmlns:cc="http://creativecommons.org/ns#"
   xmlns:rdf="http://www.w3.org/1999/02/22-rdf-syntax-ns#"
   xmlns:svg="http://www.w3.org/2000/svg"
   xmlns="http://www.w3.org/2000/svg"
   xmlns:sodipodi="http://sodipodi.sourceforge.net/DTD/sodipodi-0.dtd"
   xmlns:inkscape="http://www.inkscape.org/namespaces/inkscape"
   width="210mm"
   height="297mm"
   viewBox="0 0 744.09449 1052.3622"
   id="svg2"
   version="1.1"
   inkscape:version="0.91 r13725"
   sodipodi:docname="owl-baby.svg">
  <defs
     id="defs4" />
  <sodipodi:namedview
     id="base"
     pagecolor="#ffffff"
     bordercolor="#666666"
     borderopacity="1.0"
     inkscape:pageopacity="0.0"
     inkscape:pageshadow="2"
     inkscape:zoom="0.7"
     inkscape:cx="274.83336"
     inkscape:cy="487.67561"
     inkscape:document-units="mm"
     inkscape:current-layer="layer1"
     showgrid="false"
     units="mm"
     inkscape:window-width="1280"
     inkscape:window-height="657"
     inkscape:window-x="-8"
     inkscape:window-y="-8"
     inkscape:window-maximized="1" />
  <metadata
     id="metadata7">
    <rdf:RDF>
      <cc:Work
         rdf:about="">
        <dc:format>image/svg+xml</dc:format>
        <dc:type
           rdf:resource="http://purl.org/dc/dcmitype/StillImage" />
        <dc:title></dc:title>
      </cc:Work>
    </rdf:RDF>
  </metadata>
  <g
     inkscape:label="Layer 1"
     inkscape:groupmode="layer"
     id="layer1"
     transform="translate(0,4.7244096e-6)">
    <rect
       style="fill:none;fill-rule:evenodd;stroke:#000000;stroke-width:0.6645382px;stroke-linecap:butt;stroke-linejoin:miter;stroke-opacity:1"
       id="rect3336"
       width="197.54807"
       height="210.51657"
       x="152.69447"
       y="416.3165" />
    <path
       style="fill:none;fill-rule:evenodd;stroke:#000000;stroke-width:0.6645382px;stroke-linecap:butt;stroke-linejoin:miter;stroke-opacity:1"
       d="m 425.52912,416.31651 81.05749,0 0,-8 38.97638,0 0,8 77.5142,0 0,167.98268 8,0 0,35.43307 -8,0 0,7.10082 -77.5142,0 0,8 -38.97638,0 0,-8 -81.05749,0 0,-7.10082 -8,0 0,-35.43307 8,0 z"
       id="rect4138"
       inkscape:connector-curvature="0"
       sodipodi:nodetypes="ccccccccccccccccccccc" />
    <g
       id="g4159">
      <path
         sodipodi:nodetypes="ccccccccccccccccc"
         inkscape:connector-curvature="0"
         id="rect4143"
         d="m 414.94476,671.48147 73.92532,0 0,10.62992 70.86614,0 0,-10.62992 73.92532,0 0,78.37795 -10.63123,0 0,74.92677 10.63123,0 0,85.46595 -218.71678,0 0,-85.46595 10.63122,0 0,-74.92677 -10.63122,0 z"
         style="fill:none;fill-rule:evenodd;stroke:#000000;stroke-width:0.75565594px;stroke-linecap:butt;stroke-linejoin:miter;stroke-opacity:1" />
      <rect
         y="893.48853"
         x="489.44522"
         height="9.4796543"
         width="69.715874"
         id="rect4149"
         style="fill:none;stroke:#000000;stroke-width:1.15026736" />
    </g>
    <g
       transform="translate(0,-566.92919)"
       id="g4163">
      <path
         style="fill:none;fill-rule:evenodd;stroke:#000000;stroke-width:0.75565594px;stroke-linecap:butt;stroke-linejoin:miter;stroke-opacity:1"
         d="m 414.94476,671.48147 73.92532,0 0,10.62992 70.86614,0 0,-10.62992 73.92532,0 0,78.37795 -10.63123,0 0,74.92677 10.63123,0 0,78.37801 c 0,0 0.41257,7.08794 -60.67919,7.08794 l -48.6792,0 c 0,0 0,0 -48.67919,0 -61.09177,0 -60.6792,-7.08794 -60.6792,-7.08794 l 0,-78.37801 10.63122,0 0,-74.92677 -10.63122,0 z"
         id="path4165"
         inkscape:connector-curvature="0"
         sodipodi:nodetypes="cccccccccccscscccccc" />
      <rect
         style="fill:none;stroke:#000000;stroke-width:1.15026736"
         id="rect4167"
         width="69.715874"
         height="9.4796543"
         x="489.44522"
         y="893.48853" />
    </g>
    <g
       id="g4186"
       transform="translate(-272.83465,0)">
      <path
         style="fill:none;fill-rule:evenodd;stroke:#000000;stroke-width:0.75565594px;stroke-linecap:butt;stroke-linejoin:miter;stroke-opacity:1"
         d="m 414.94607,671.48147 73.92401,0 0,0 70.86614,0 0,0 9.34436,0 0,78.37795 10.62862,0 0,74.92677 -10.62862,0 0,74.83465 -154.13582,0 0,-74.83465 -10.62861,0 0,-74.92677 10.62861,0 z"
         id="path4188"
         inkscape:connector-curvature="0"
         sodipodi:nodetypes="ccccccccccccccccc" />
    </g>
    <path
       style="fill:none;fill-rule:evenodd;stroke:#000000;stroke-width:0.6645382px;stroke-linecap:butt;stroke-linejoin:miter;stroke-opacity:1"
       d="m 152.69447,219.68501 63.34096,0 0,-10.62992 70.86614,0 0,10.62992 63.34097,0 0,113.05276 -63.34097,0 0,10.63074 -70.86614,0 0,-10.63074 -63.34096,0 z"
       id="rect4192"
       inkscape:connector-curvature="0"
       sodipodi:nodetypes="ccccccccccccc" />
  </g>
</svg>
