%
M48
M72
T01C0.0276
T02C0.0315
T03C0.0320
T04C0.0394
T05C0.0400
T06C0.0512
T07C0.0800
T08C0.0866
%
T01
X7300Y14368
X8300Y14368
T02
X25300Y17368
X26300Y17368
X27300Y17368
T03
X26800Y16118
X27800Y16118
X28800Y16118
X29800Y16118
X30800Y16118
X31800Y16118
X32800Y16118
X33800Y16118
X34800Y16118
X36300Y16118
X37300Y15118
X38300Y16118
X34800Y13118
X33800Y13118
X32800Y13118
X31800Y13118
X30800Y13118
X29800Y13118
X28800Y13118
X27800Y13118
X26800Y13118
X25800Y13118
X24800Y13118
X23800Y13118
X22800Y13118
X21800Y13118
X18800Y12868
X18800Y14368
X15800Y14368
X14800Y14368
X14800Y12868
X15800Y12868
X11800Y12868
X11800Y14368
X11800Y15868
X10300Y16368
X9550Y16868
X10300Y17368
X11800Y17368
X14800Y17368
X15800Y17368
X15800Y15868
X14800Y15868
X18800Y15868
X19550Y16868
X20300Y16368
X21800Y16118
X22800Y16118
X23800Y16118
X24800Y16118
X25800Y16118
X29800Y17368
X31800Y17368
X37300Y12118
X20300Y17368
X18800Y17368
X15300Y8868
X13300Y7368
X12300Y7368
X12300Y8868
X7800Y8868
X5800Y7368
X4800Y7368
X4800Y8868
T04
X4800Y13368
X4800Y14868
X800Y14868
X800Y13368
X16816Y8353
X17800Y8353
X18784Y8353
X26816Y8353
X27800Y8353
X28784Y8353
X34316Y8353
X35300Y8353
X36284Y8353
T05
X35800Y12118
X34800Y12118
X33800Y12118
X32800Y12118
X32800Y17368
X33800Y17368
X34800Y17368
X35800Y17368
X36800Y17368
X37800Y17368
X24300Y17368
X23300Y17368
X22300Y17368
X21300Y17368
X8300Y17368
X7300Y17368
X6300Y17368
X5300Y17368
X4300Y17368
X3300Y17368
X2300Y17368
X1300Y17368
X1300Y16368
X2300Y16368
X3300Y16368
X4300Y16368
X5300Y16368
X6300Y16368
X7300Y16368
X8300Y16368
T06
X20950Y11868
X22800Y11868
X24650Y11868
X23800Y6868
X21800Y6868
T07
X19572Y9968
X16028Y9968
X26028Y9968
X29572Y9968
X33528Y9968
X37072Y9968
T08
X2800Y6899
X2800Y8868
X2800Y10836
X10300Y10836
X10300Y8868
X10300Y6899
M30
