G75*
G70*
%OFA0B0*%
%FSLAX24Y24*%
%IPPOS*%
%LPD*%
%AMOC8*
5,1,8,0,0,1.08239X$1,22.5*
%
%ADD10C,0.0000*%
%ADD11C,0.0520*%
%ADD12C,0.0740*%
%ADD13OC8,0.0520*%
%ADD14C,0.0780*%
%ADD15C,0.0650*%
%ADD16R,0.0650X0.0650*%
%ADD17C,0.1266*%
%ADD18C,0.0760*%
%ADD19C,0.1575*%
%ADD20OC8,0.0740*%
%ADD21R,0.0740X0.0740*%
%ADD22R,0.0768X0.0768*%
%ADD23C,0.0768*%
%ADD24C,0.0160*%
%ADD25C,0.0240*%
D10*
X000300Y006368D02*
X000300Y018368D01*
X039670Y018368D01*
X039670Y006368D01*
X000300Y006368D01*
D11*
X021800Y012858D02*
X021800Y013378D01*
X022800Y013378D02*
X022800Y012858D01*
X023800Y012858D02*
X023800Y013378D01*
X024800Y013378D02*
X024800Y012858D01*
X025800Y012858D02*
X025800Y013378D01*
X026800Y013378D02*
X026800Y012858D01*
X027800Y012858D02*
X027800Y013378D01*
X028800Y013378D02*
X028800Y012858D01*
X029800Y012858D02*
X029800Y013378D01*
X030800Y013378D02*
X030800Y012858D01*
X031800Y012858D02*
X031800Y013378D01*
X032800Y013378D02*
X032800Y012858D01*
X033800Y012858D02*
X033800Y013378D01*
X034800Y013378D02*
X034800Y012858D01*
X034800Y015858D02*
X034800Y016378D01*
X033800Y016378D02*
X033800Y015858D01*
X032800Y015858D02*
X032800Y016378D01*
X031800Y016378D02*
X031800Y015858D01*
X030800Y015858D02*
X030800Y016378D01*
X029800Y016378D02*
X029800Y015858D01*
X028800Y015858D02*
X028800Y016378D01*
X027800Y016378D02*
X027800Y015858D01*
X026800Y015858D02*
X026800Y016378D01*
X025800Y016378D02*
X025800Y015858D01*
X024800Y015858D02*
X024800Y016378D01*
X023800Y016378D02*
X023800Y015858D01*
X022800Y015858D02*
X022800Y016378D01*
X021800Y016378D02*
X021800Y015858D01*
D12*
X021300Y017368D03*
X022300Y017368D03*
X023300Y017368D03*
X025300Y017368D03*
X026300Y017368D03*
X027300Y017368D03*
X032800Y017368D03*
X033800Y017368D03*
X034800Y017368D03*
X035800Y017368D03*
X036800Y017368D03*
X037800Y017368D03*
X035800Y012118D03*
X034800Y012118D03*
X033800Y012118D03*
X013300Y007368D03*
X012300Y007368D03*
X005800Y007368D03*
X004800Y007368D03*
D13*
X004800Y008868D03*
X007800Y008868D03*
X012300Y008868D03*
X015300Y008868D03*
X014800Y012868D03*
X015800Y012868D03*
X015800Y014368D03*
X014800Y014368D03*
X011800Y014368D03*
X011800Y012868D03*
X011800Y015868D03*
X010300Y016368D03*
X009550Y016868D03*
X010300Y017368D03*
X011800Y017368D03*
X014800Y017368D03*
X015800Y017368D03*
X015800Y015868D03*
X014800Y015868D03*
X018800Y015868D03*
X019550Y016868D03*
X020300Y016368D03*
X020300Y017368D03*
X018800Y017368D03*
X018800Y014368D03*
X018800Y012868D03*
X029800Y017368D03*
X031800Y017368D03*
X036300Y016118D03*
X037300Y015118D03*
X038300Y016118D03*
X037300Y012118D03*
D14*
X004800Y013368D03*
X004800Y014868D03*
X000800Y014868D03*
X000800Y013368D03*
D15*
X008300Y014368D03*
D16*
X007300Y014368D03*
D17*
X010300Y010836D03*
X010300Y008868D03*
X010300Y006899D03*
X002800Y006899D03*
X002800Y008868D03*
X002800Y010836D03*
D18*
X016816Y008353D03*
X017800Y008353D03*
X018784Y008353D03*
X026816Y008353D03*
X027800Y008353D03*
X028784Y008353D03*
X034316Y008353D03*
X035300Y008353D03*
X036284Y008353D03*
D19*
X037072Y009968D03*
X033528Y009968D03*
X029572Y009968D03*
X026028Y009968D03*
X019572Y009968D03*
X016028Y009968D03*
D20*
X008300Y016368D03*
X007300Y016368D03*
X006300Y016368D03*
X005300Y016368D03*
X004300Y016368D03*
X003300Y016368D03*
X002300Y016368D03*
X001300Y016368D03*
X001300Y017368D03*
X002300Y017368D03*
X003300Y017368D03*
X004300Y017368D03*
X005300Y017368D03*
X006300Y017368D03*
X007300Y017368D03*
X008300Y017368D03*
D21*
X024300Y017368D03*
X032800Y012118D03*
D22*
X024650Y011868D03*
X022800Y011868D03*
X020950Y011868D03*
D23*
X021416Y006868D02*
X022184Y006868D01*
X023416Y006868D02*
X024184Y006868D01*
D24*
X027800Y008353D02*
X027800Y009868D01*
X027802Y009944D01*
X027808Y010020D01*
X027817Y010095D01*
X027831Y010170D01*
X027848Y010244D01*
X027869Y010317D01*
X027893Y010389D01*
X027922Y010460D01*
X027953Y010529D01*
X027988Y010596D01*
X028027Y010661D01*
X028069Y010725D01*
X028114Y010786D01*
X028162Y010845D01*
X028213Y010901D01*
X028267Y010955D01*
X028323Y011006D01*
X028382Y011054D01*
X028443Y011099D01*
X028507Y011141D01*
X028572Y011180D01*
X028639Y011215D01*
X028708Y011246D01*
X028779Y011275D01*
X028851Y011299D01*
X028924Y011320D01*
X028998Y011337D01*
X029073Y011351D01*
X029148Y011360D01*
X029224Y011366D01*
X029300Y011368D01*
X029800Y011368D01*
X028800Y012118D02*
X026550Y012118D01*
X025800Y011868D02*
X025800Y013118D01*
X024800Y013118D02*
X024800Y012018D01*
X024798Y011995D01*
X024793Y011972D01*
X024784Y011950D01*
X024771Y011930D01*
X024756Y011912D01*
X024738Y011897D01*
X024718Y011884D01*
X024696Y011875D01*
X024673Y011870D01*
X024650Y011868D01*
X025050Y011118D02*
X025104Y011120D01*
X025157Y011126D01*
X025209Y011135D01*
X025261Y011148D01*
X025312Y011165D01*
X025362Y011186D01*
X025409Y011210D01*
X025455Y011237D01*
X025499Y011268D01*
X025541Y011301D01*
X025580Y011338D01*
X025617Y011377D01*
X025650Y011419D01*
X025681Y011463D01*
X025708Y011509D01*
X025732Y011556D01*
X025753Y011606D01*
X025770Y011657D01*
X025783Y011709D01*
X025792Y011761D01*
X025798Y011814D01*
X025800Y011868D01*
X026050Y011618D02*
X026048Y011564D01*
X026042Y011511D01*
X026033Y011459D01*
X026020Y011407D01*
X026003Y011356D01*
X025982Y011306D01*
X025958Y011259D01*
X025931Y011213D01*
X025900Y011169D01*
X025867Y011127D01*
X025830Y011088D01*
X025791Y011051D01*
X025749Y011018D01*
X025705Y010987D01*
X025659Y010960D01*
X025612Y010936D01*
X025562Y010915D01*
X025511Y010898D01*
X025459Y010885D01*
X025407Y010876D01*
X025354Y010870D01*
X025300Y010868D01*
X022300Y010868D01*
X021550Y011118D02*
X025050Y011118D01*
X026050Y011618D02*
X026052Y011662D01*
X026058Y011705D01*
X026067Y011747D01*
X026080Y011789D01*
X026097Y011829D01*
X026117Y011868D01*
X026140Y011905D01*
X026167Y011939D01*
X026196Y011972D01*
X026229Y012001D01*
X026263Y012028D01*
X026300Y012051D01*
X026339Y012071D01*
X026379Y012088D01*
X026421Y012101D01*
X026463Y012110D01*
X026506Y012116D01*
X026550Y012118D01*
X028800Y012118D02*
X028860Y012120D01*
X028921Y012125D01*
X028980Y012134D01*
X029039Y012147D01*
X029098Y012163D01*
X029155Y012183D01*
X029210Y012206D01*
X029265Y012233D01*
X029317Y012262D01*
X029368Y012295D01*
X029417Y012331D01*
X029463Y012369D01*
X029507Y012411D01*
X029549Y012455D01*
X029587Y012501D01*
X029623Y012550D01*
X029656Y012601D01*
X029685Y012653D01*
X029712Y012708D01*
X029735Y012763D01*
X029755Y012820D01*
X029771Y012879D01*
X029784Y012938D01*
X029793Y012997D01*
X029798Y013058D01*
X029800Y013118D01*
X030800Y013118D02*
X030800Y012368D01*
X031800Y012618D02*
X031800Y013118D01*
X032800Y013118D02*
X032800Y012118D01*
X032800Y011368D02*
X032735Y011377D01*
X032670Y011390D01*
X032607Y011407D01*
X032544Y011427D01*
X032483Y011451D01*
X032423Y011479D01*
X032365Y011509D01*
X032308Y011544D01*
X032254Y011581D01*
X032202Y011622D01*
X032153Y011665D01*
X032106Y011711D01*
X032062Y011760D01*
X032021Y011812D01*
X031983Y011866D01*
X031948Y011921D01*
X031916Y011979D01*
X031888Y012039D01*
X031863Y012100D01*
X031842Y012162D01*
X031825Y012226D01*
X031811Y012290D01*
X031801Y012355D01*
X031795Y012421D01*
X031793Y012487D01*
X031795Y012552D01*
X031800Y012618D01*
X030800Y012368D02*
X030798Y012308D01*
X030793Y012247D01*
X030784Y012188D01*
X030771Y012129D01*
X030755Y012070D01*
X030735Y012013D01*
X030712Y011958D01*
X030685Y011903D01*
X030656Y011851D01*
X030623Y011800D01*
X030587Y011751D01*
X030549Y011705D01*
X030507Y011661D01*
X030463Y011619D01*
X030417Y011581D01*
X030368Y011545D01*
X030317Y011512D01*
X030265Y011483D01*
X030210Y011456D01*
X030155Y011433D01*
X030098Y011413D01*
X030039Y011397D01*
X029980Y011384D01*
X029921Y011375D01*
X029860Y011370D01*
X029800Y011368D01*
X032800Y011368D02*
X033800Y011368D01*
X033800Y012118D02*
X033800Y013118D01*
X034800Y013118D02*
X034800Y012118D01*
X035800Y012118D02*
X035800Y013868D01*
X035798Y013928D01*
X035793Y013989D01*
X035784Y014048D01*
X035771Y014107D01*
X035755Y014166D01*
X035735Y014223D01*
X035712Y014278D01*
X035685Y014333D01*
X035656Y014385D01*
X035623Y014436D01*
X035587Y014485D01*
X035549Y014531D01*
X035507Y014575D01*
X035463Y014617D01*
X035417Y014655D01*
X035368Y014691D01*
X035317Y014724D01*
X035265Y014753D01*
X035210Y014780D01*
X035155Y014803D01*
X035098Y014823D01*
X035039Y014839D01*
X034980Y014852D01*
X034921Y014861D01*
X034860Y014866D01*
X034800Y014868D01*
X032800Y014868D01*
X032740Y014870D01*
X032679Y014875D01*
X032620Y014884D01*
X032561Y014897D01*
X032502Y014913D01*
X032445Y014933D01*
X032390Y014956D01*
X032335Y014983D01*
X032283Y015012D01*
X032232Y015045D01*
X032183Y015081D01*
X032137Y015119D01*
X032093Y015161D01*
X032051Y015205D01*
X032013Y015251D01*
X031977Y015300D01*
X031944Y015351D01*
X031915Y015403D01*
X031888Y015458D01*
X031865Y015513D01*
X031845Y015570D01*
X031829Y015629D01*
X031816Y015688D01*
X031807Y015747D01*
X031802Y015808D01*
X031800Y015868D01*
X031800Y016118D01*
X032800Y016118D02*
X032844Y016120D01*
X032887Y016126D01*
X032929Y016135D01*
X032971Y016148D01*
X033011Y016165D01*
X033050Y016185D01*
X033087Y016208D01*
X033121Y016235D01*
X033154Y016264D01*
X033183Y016297D01*
X033210Y016331D01*
X033233Y016368D01*
X033253Y016407D01*
X033270Y016447D01*
X033283Y016489D01*
X033292Y016531D01*
X033298Y016574D01*
X033300Y016618D01*
X033300Y016868D01*
X033302Y016912D01*
X033308Y016955D01*
X033317Y016997D01*
X033330Y017039D01*
X033347Y017079D01*
X033367Y017118D01*
X033390Y017155D01*
X033417Y017189D01*
X033446Y017222D01*
X033479Y017251D01*
X033513Y017278D01*
X033550Y017301D01*
X033589Y017321D01*
X033629Y017338D01*
X033671Y017351D01*
X033713Y017360D01*
X033756Y017366D01*
X033800Y017368D01*
X034300Y016868D02*
X034300Y016618D01*
X034298Y016574D01*
X034292Y016531D01*
X034283Y016489D01*
X034270Y016447D01*
X034253Y016407D01*
X034233Y016368D01*
X034210Y016331D01*
X034183Y016297D01*
X034154Y016264D01*
X034121Y016235D01*
X034087Y016208D01*
X034050Y016185D01*
X034011Y016165D01*
X033971Y016148D01*
X033929Y016135D01*
X033887Y016126D01*
X033844Y016120D01*
X033800Y016118D01*
X034800Y016118D02*
X036300Y016118D01*
X036550Y016118D01*
X036604Y016116D01*
X036657Y016110D01*
X036709Y016101D01*
X036761Y016088D01*
X036812Y016071D01*
X036862Y016050D01*
X036909Y016026D01*
X036955Y015999D01*
X036999Y015968D01*
X037041Y015935D01*
X037080Y015898D01*
X037117Y015859D01*
X037150Y015817D01*
X037181Y015773D01*
X037208Y015727D01*
X037232Y015680D01*
X037253Y015630D01*
X037270Y015579D01*
X037283Y015527D01*
X037292Y015475D01*
X037298Y015422D01*
X037300Y015368D01*
X037300Y015118D01*
X034800Y017368D02*
X034756Y017366D01*
X034713Y017360D01*
X034671Y017351D01*
X034629Y017338D01*
X034589Y017321D01*
X034550Y017301D01*
X034513Y017278D01*
X034479Y017251D01*
X034446Y017222D01*
X034417Y017189D01*
X034390Y017155D01*
X034367Y017118D01*
X034347Y017079D01*
X034330Y017039D01*
X034317Y016997D01*
X034308Y016955D01*
X034302Y016912D01*
X034300Y016868D01*
X027300Y017368D02*
X027256Y017366D01*
X027213Y017360D01*
X027171Y017351D01*
X027129Y017338D01*
X027089Y017321D01*
X027050Y017301D01*
X027013Y017278D01*
X026979Y017251D01*
X026946Y017222D01*
X026917Y017189D01*
X026890Y017155D01*
X026867Y017118D01*
X026847Y017079D01*
X026830Y017039D01*
X026817Y016997D01*
X026808Y016955D01*
X026802Y016912D01*
X026800Y016868D01*
X026800Y016118D01*
X025800Y016118D02*
X025800Y016868D01*
X025798Y016912D01*
X025792Y016955D01*
X025783Y016997D01*
X025770Y017039D01*
X025753Y017079D01*
X025733Y017118D01*
X025710Y017155D01*
X025683Y017189D01*
X025654Y017222D01*
X025621Y017251D01*
X025587Y017278D01*
X025550Y017301D01*
X025511Y017321D01*
X025471Y017338D01*
X025429Y017351D01*
X025387Y017360D01*
X025344Y017366D01*
X025300Y017368D01*
X024800Y016868D02*
X024800Y016118D01*
X024800Y016868D02*
X024798Y016912D01*
X024792Y016955D01*
X024783Y016997D01*
X024770Y017039D01*
X024753Y017079D01*
X024733Y017118D01*
X024710Y017155D01*
X024683Y017189D01*
X024654Y017222D01*
X024621Y017251D01*
X024587Y017278D01*
X024550Y017301D01*
X024511Y017321D01*
X024471Y017338D01*
X024429Y017351D01*
X024387Y017360D01*
X024344Y017366D01*
X024300Y017368D01*
X023800Y016868D02*
X023800Y016118D01*
X022800Y016118D02*
X022800Y016868D01*
X022798Y016912D01*
X022792Y016955D01*
X022783Y016997D01*
X022770Y017039D01*
X022753Y017079D01*
X022733Y017118D01*
X022710Y017155D01*
X022683Y017189D01*
X022654Y017222D01*
X022621Y017251D01*
X022587Y017278D01*
X022550Y017301D01*
X022511Y017321D01*
X022471Y017338D01*
X022429Y017351D01*
X022387Y017360D01*
X022344Y017366D01*
X022300Y017368D01*
X021800Y016868D02*
X021800Y016118D01*
X021800Y016868D02*
X021798Y016912D01*
X021792Y016955D01*
X021783Y016997D01*
X021770Y017039D01*
X021753Y017079D01*
X021733Y017118D01*
X021710Y017155D01*
X021683Y017189D01*
X021654Y017222D01*
X021621Y017251D01*
X021587Y017278D01*
X021550Y017301D01*
X021511Y017321D01*
X021471Y017338D01*
X021429Y017351D01*
X021387Y017360D01*
X021344Y017366D01*
X021300Y017368D01*
X020300Y017368D02*
X018800Y017368D01*
X018800Y015868D01*
X018800Y015118D02*
X018854Y015120D01*
X018907Y015126D01*
X018959Y015135D01*
X019011Y015148D01*
X019062Y015165D01*
X019112Y015186D01*
X019159Y015210D01*
X019205Y015237D01*
X019249Y015268D01*
X019291Y015301D01*
X019330Y015338D01*
X019367Y015377D01*
X019400Y015419D01*
X019431Y015463D01*
X019458Y015509D01*
X019482Y015556D01*
X019503Y015606D01*
X019520Y015657D01*
X019533Y015709D01*
X019542Y015761D01*
X019548Y015814D01*
X019550Y015868D01*
X019550Y016868D01*
X018800Y015118D02*
X018550Y015118D01*
X018482Y015116D01*
X018415Y015111D01*
X018348Y015102D01*
X018281Y015089D01*
X018216Y015072D01*
X018151Y015053D01*
X018087Y015029D01*
X018025Y015002D01*
X017964Y014972D01*
X017906Y014939D01*
X017849Y014903D01*
X017794Y014863D01*
X017741Y014821D01*
X017690Y014775D01*
X017643Y014728D01*
X017597Y014677D01*
X017555Y014624D01*
X017515Y014569D01*
X017479Y014512D01*
X017446Y014454D01*
X017416Y014393D01*
X017389Y014331D01*
X017365Y014267D01*
X017346Y014202D01*
X017329Y014137D01*
X017316Y014070D01*
X017307Y014003D01*
X017302Y013936D01*
X017300Y013868D01*
X017298Y013808D01*
X017293Y013747D01*
X017284Y013688D01*
X017271Y013629D01*
X017255Y013570D01*
X017235Y013513D01*
X017212Y013458D01*
X017185Y013403D01*
X017156Y013351D01*
X017123Y013300D01*
X017087Y013251D01*
X017049Y013205D01*
X017007Y013161D01*
X016963Y013119D01*
X016917Y013081D01*
X016868Y013045D01*
X016817Y013012D01*
X016765Y012983D01*
X016710Y012956D01*
X016655Y012933D01*
X016598Y012913D01*
X016539Y012897D01*
X016480Y012884D01*
X016421Y012875D01*
X016360Y012870D01*
X016300Y012868D01*
X015800Y012868D01*
X015300Y012368D02*
X015256Y012370D01*
X015213Y012376D01*
X015171Y012385D01*
X015129Y012398D01*
X015089Y012415D01*
X015050Y012435D01*
X015013Y012458D01*
X014979Y012485D01*
X014946Y012514D01*
X014917Y012547D01*
X014890Y012581D01*
X014867Y012618D01*
X014847Y012657D01*
X014830Y012697D01*
X014817Y012739D01*
X014808Y012781D01*
X014802Y012824D01*
X014800Y012868D01*
X015300Y012368D02*
X017300Y012368D01*
X017344Y012370D01*
X017387Y012376D01*
X017429Y012385D01*
X017471Y012398D01*
X017511Y012415D01*
X017550Y012435D01*
X017587Y012458D01*
X017621Y012485D01*
X017654Y012514D01*
X017683Y012547D01*
X017710Y012581D01*
X017733Y012618D01*
X017753Y012657D01*
X017770Y012697D01*
X017783Y012739D01*
X017792Y012781D01*
X017798Y012824D01*
X017800Y012868D01*
X017802Y012912D01*
X017808Y012955D01*
X017817Y012997D01*
X017830Y013039D01*
X017847Y013079D01*
X017867Y013118D01*
X017890Y013155D01*
X017917Y013189D01*
X017946Y013222D01*
X017979Y013251D01*
X018013Y013278D01*
X018050Y013301D01*
X018089Y013321D01*
X018129Y013338D01*
X018171Y013351D01*
X018213Y013360D01*
X018256Y013366D01*
X018300Y013368D01*
X021550Y013368D01*
X021580Y013366D01*
X021610Y013361D01*
X021639Y013352D01*
X021666Y013339D01*
X021692Y013324D01*
X021716Y013305D01*
X021737Y013284D01*
X021756Y013260D01*
X021771Y013234D01*
X021784Y013207D01*
X021793Y013178D01*
X021798Y013148D01*
X021800Y013118D01*
X020950Y011868D02*
X020950Y011718D01*
X020952Y011671D01*
X020957Y011624D01*
X020967Y011578D01*
X020979Y011533D01*
X020996Y011488D01*
X021015Y011446D01*
X021038Y011405D01*
X021065Y011365D01*
X021094Y011328D01*
X021126Y011294D01*
X021160Y011262D01*
X021197Y011233D01*
X021237Y011206D01*
X021278Y011183D01*
X021320Y011164D01*
X021365Y011147D01*
X021410Y011135D01*
X021456Y011125D01*
X021503Y011120D01*
X021550Y011118D01*
X020800Y009368D02*
X020800Y009118D01*
X020798Y009042D01*
X020792Y008966D01*
X020783Y008891D01*
X020769Y008816D01*
X020752Y008742D01*
X020731Y008669D01*
X020707Y008597D01*
X020678Y008526D01*
X020647Y008457D01*
X020612Y008390D01*
X020573Y008325D01*
X020531Y008261D01*
X020486Y008200D01*
X020438Y008141D01*
X020387Y008085D01*
X020333Y008031D01*
X020277Y007980D01*
X020218Y007932D01*
X020157Y007887D01*
X020093Y007845D01*
X020028Y007806D01*
X019961Y007771D01*
X019892Y007740D01*
X019821Y007711D01*
X019749Y007687D01*
X019676Y007666D01*
X019602Y007649D01*
X019527Y007635D01*
X019452Y007626D01*
X019376Y007620D01*
X019300Y007618D01*
X018300Y007618D01*
X018256Y007620D01*
X018213Y007626D01*
X018171Y007635D01*
X018129Y007648D01*
X018089Y007665D01*
X018050Y007685D01*
X018013Y007708D01*
X017979Y007735D01*
X017946Y007764D01*
X017917Y007797D01*
X017890Y007831D01*
X017867Y007868D01*
X017847Y007907D01*
X017830Y007947D01*
X017817Y007989D01*
X017808Y008031D01*
X017802Y008074D01*
X017800Y008118D01*
X017800Y008353D01*
X020800Y009368D02*
X020802Y009444D01*
X020808Y009520D01*
X020817Y009595D01*
X020831Y009670D01*
X020848Y009744D01*
X020869Y009817D01*
X020893Y009889D01*
X020922Y009960D01*
X020953Y010029D01*
X020988Y010096D01*
X021027Y010161D01*
X021069Y010225D01*
X021114Y010286D01*
X021162Y010345D01*
X021213Y010401D01*
X021267Y010455D01*
X021323Y010506D01*
X021382Y010554D01*
X021443Y010599D01*
X021507Y010641D01*
X021572Y010680D01*
X021639Y010715D01*
X021708Y010746D01*
X021779Y010775D01*
X021851Y010799D01*
X021924Y010820D01*
X021998Y010837D01*
X022073Y010851D01*
X022148Y010860D01*
X022224Y010866D01*
X022300Y010868D01*
X015800Y014368D02*
X015800Y015868D01*
X015798Y015922D01*
X015792Y015975D01*
X015783Y016027D01*
X015770Y016079D01*
X015753Y016130D01*
X015732Y016180D01*
X015708Y016227D01*
X015681Y016273D01*
X015650Y016317D01*
X015617Y016359D01*
X015580Y016398D01*
X015541Y016435D01*
X015499Y016468D01*
X015455Y016499D01*
X015409Y016526D01*
X015362Y016550D01*
X015312Y016571D01*
X015261Y016588D01*
X015209Y016601D01*
X015157Y016610D01*
X015104Y016616D01*
X015050Y016618D01*
X014800Y016618D01*
X014800Y015868D02*
X014800Y014368D01*
X014300Y014368D01*
X014256Y014366D01*
X014213Y014360D01*
X014171Y014351D01*
X014129Y014338D01*
X014089Y014321D01*
X014050Y014301D01*
X014013Y014278D01*
X013979Y014251D01*
X013946Y014222D01*
X013917Y014189D01*
X013890Y014155D01*
X013867Y014118D01*
X013847Y014079D01*
X013830Y014039D01*
X013817Y013997D01*
X013808Y013955D01*
X013802Y013912D01*
X013800Y013868D01*
X013800Y013368D01*
X012800Y013368D02*
X012800Y014618D01*
X012802Y014713D01*
X012809Y014808D01*
X012820Y014903D01*
X012836Y014997D01*
X012856Y015090D01*
X012881Y015181D01*
X012910Y015272D01*
X012943Y015361D01*
X012981Y015449D01*
X013022Y015534D01*
X013068Y015618D01*
X013117Y015699D01*
X013171Y015778D01*
X013228Y015854D01*
X013289Y015928D01*
X013353Y015998D01*
X013420Y016065D01*
X013490Y016129D01*
X013564Y016190D01*
X013640Y016247D01*
X013719Y016301D01*
X013800Y016350D01*
X013884Y016396D01*
X013969Y016437D01*
X014057Y016475D01*
X014146Y016508D01*
X014237Y016537D01*
X014328Y016562D01*
X014421Y016582D01*
X014515Y016598D01*
X014610Y016609D01*
X014705Y016616D01*
X014800Y016618D01*
X011800Y017368D02*
X011800Y015868D01*
X011800Y017368D02*
X010300Y017368D01*
X012800Y013368D02*
X012798Y013308D01*
X012793Y013247D01*
X012784Y013188D01*
X012771Y013129D01*
X012755Y013070D01*
X012735Y013013D01*
X012712Y012958D01*
X012685Y012903D01*
X012656Y012851D01*
X012623Y012800D01*
X012587Y012751D01*
X012549Y012705D01*
X012507Y012661D01*
X012463Y012619D01*
X012417Y012581D01*
X012368Y012545D01*
X012317Y012512D01*
X012265Y012483D01*
X012210Y012456D01*
X012155Y012433D01*
X012098Y012413D01*
X012039Y012397D01*
X011980Y012384D01*
X011921Y012375D01*
X011860Y012370D01*
X011800Y012368D01*
X009800Y012368D01*
X009740Y012366D01*
X009679Y012361D01*
X009620Y012352D01*
X009561Y012339D01*
X009502Y012323D01*
X009445Y012303D01*
X009390Y012280D01*
X009335Y012253D01*
X009283Y012224D01*
X009232Y012191D01*
X009183Y012155D01*
X009137Y012117D01*
X009093Y012075D01*
X009051Y012031D01*
X009013Y011985D01*
X008977Y011936D01*
X008944Y011885D01*
X008915Y011833D01*
X008888Y011778D01*
X008865Y011723D01*
X008845Y011666D01*
X008829Y011607D01*
X008816Y011548D01*
X008807Y011489D01*
X008802Y011428D01*
X008800Y011368D01*
X008798Y011308D01*
X008793Y011247D01*
X008784Y011188D01*
X008771Y011129D01*
X008755Y011070D01*
X008735Y011013D01*
X008712Y010958D01*
X008685Y010903D01*
X008656Y010851D01*
X008623Y010800D01*
X008587Y010751D01*
X008549Y010705D01*
X008507Y010661D01*
X008463Y010619D01*
X008417Y010581D01*
X008368Y010545D01*
X008317Y010512D01*
X008265Y010483D01*
X008210Y010456D01*
X008155Y010433D01*
X008098Y010413D01*
X008039Y010397D01*
X007980Y010384D01*
X007921Y010375D01*
X007860Y010370D01*
X007800Y010368D01*
X004300Y010368D01*
X004224Y010366D01*
X004148Y010360D01*
X004073Y010351D01*
X003998Y010337D01*
X003924Y010320D01*
X003851Y010299D01*
X003779Y010275D01*
X003708Y010246D01*
X003639Y010215D01*
X003572Y010180D01*
X003507Y010141D01*
X003443Y010099D01*
X003382Y010054D01*
X003323Y010006D01*
X003267Y009955D01*
X003213Y009901D01*
X003162Y009845D01*
X003114Y009786D01*
X003069Y009725D01*
X003027Y009661D01*
X002988Y009596D01*
X002953Y009529D01*
X002922Y009460D01*
X002893Y009389D01*
X002869Y009317D01*
X002848Y009244D01*
X002831Y009170D01*
X002817Y009095D01*
X002808Y009020D01*
X002802Y008944D01*
X002800Y008868D01*
X004800Y008868D02*
X004800Y007368D01*
X010300Y008868D02*
X010360Y008870D01*
X010421Y008875D01*
X010480Y008884D01*
X010539Y008897D01*
X010598Y008913D01*
X010655Y008933D01*
X010710Y008956D01*
X010765Y008983D01*
X010817Y009012D01*
X010868Y009045D01*
X010917Y009081D01*
X010963Y009119D01*
X011007Y009161D01*
X011049Y009205D01*
X011087Y009251D01*
X011123Y009300D01*
X011156Y009351D01*
X011185Y009403D01*
X011212Y009458D01*
X011235Y009513D01*
X011255Y009570D01*
X011271Y009629D01*
X011284Y009688D01*
X011293Y009747D01*
X011298Y009808D01*
X011300Y009868D01*
X011300Y010868D01*
X011302Y010928D01*
X011307Y010989D01*
X011316Y011048D01*
X011329Y011107D01*
X011345Y011166D01*
X011365Y011223D01*
X011388Y011278D01*
X011415Y011333D01*
X011444Y011385D01*
X011477Y011436D01*
X011513Y011485D01*
X011551Y011531D01*
X011593Y011575D01*
X011637Y011617D01*
X011683Y011655D01*
X011732Y011691D01*
X011783Y011724D01*
X011835Y011753D01*
X011890Y011780D01*
X011945Y011803D01*
X012002Y011823D01*
X012061Y011839D01*
X012120Y011852D01*
X012179Y011861D01*
X012240Y011866D01*
X012300Y011868D01*
X012376Y011870D01*
X012452Y011876D01*
X012527Y011885D01*
X012602Y011899D01*
X012676Y011916D01*
X012749Y011937D01*
X012821Y011961D01*
X012892Y011990D01*
X012961Y012021D01*
X013028Y012056D01*
X013093Y012095D01*
X013157Y012137D01*
X013218Y012182D01*
X013277Y012230D01*
X013333Y012281D01*
X013387Y012335D01*
X013438Y012391D01*
X013486Y012450D01*
X013531Y012511D01*
X013573Y012575D01*
X013612Y012640D01*
X013647Y012707D01*
X013678Y012776D01*
X013707Y012847D01*
X013731Y012919D01*
X013752Y012992D01*
X013769Y013066D01*
X013783Y013141D01*
X013792Y013216D01*
X013798Y013292D01*
X013800Y013368D01*
X012300Y008868D02*
X012300Y007368D01*
X023300Y017368D02*
X023344Y017366D01*
X023387Y017360D01*
X023429Y017351D01*
X023471Y017338D01*
X023511Y017321D01*
X023550Y017301D01*
X023587Y017278D01*
X023621Y017251D01*
X023654Y017222D01*
X023683Y017189D01*
X023710Y017155D01*
X023733Y017118D01*
X023753Y017079D01*
X023770Y017039D01*
X023783Y016997D01*
X023792Y016955D01*
X023798Y016912D01*
X023800Y016868D01*
X033800Y011368D02*
X033880Y011360D01*
X033959Y011348D01*
X034037Y011332D01*
X034115Y011313D01*
X034191Y011289D01*
X034266Y011262D01*
X034340Y011231D01*
X034412Y011197D01*
X034483Y011159D01*
X034551Y011117D01*
X034618Y011073D01*
X034682Y011025D01*
X034744Y010974D01*
X034803Y010920D01*
X034859Y010863D01*
X034913Y010804D01*
X034963Y010742D01*
X035011Y010677D01*
X035055Y010611D01*
X035096Y010542D01*
X035133Y010471D01*
X035167Y010399D01*
X035198Y010325D01*
X035224Y010249D01*
X035247Y010173D01*
X035267Y010095D01*
X035282Y010017D01*
X035293Y009937D01*
X035301Y009858D01*
X035305Y009778D01*
X035304Y009698D01*
X035300Y009618D01*
X035300Y008353D01*
D25*
X034316Y008352D02*
X034318Y008290D01*
X034324Y008229D01*
X034333Y008168D01*
X034347Y008107D01*
X034364Y008048D01*
X034385Y007990D01*
X034410Y007933D01*
X034438Y007878D01*
X034469Y007825D01*
X034504Y007774D01*
X034542Y007725D01*
X034583Y007678D01*
X034626Y007635D01*
X034673Y007594D01*
X034722Y007556D01*
X034773Y007521D01*
X034826Y007490D01*
X034881Y007462D01*
X034938Y007437D01*
X034996Y007416D01*
X035055Y007399D01*
X035116Y007385D01*
X035177Y007376D01*
X035238Y007370D01*
X035300Y007368D01*
X037300Y007368D01*
X037360Y007370D01*
X037421Y007375D01*
X037480Y007384D01*
X037539Y007397D01*
X037598Y007413D01*
X037655Y007433D01*
X037710Y007456D01*
X037765Y007483D01*
X037817Y007512D01*
X037868Y007545D01*
X037917Y007581D01*
X037963Y007619D01*
X038007Y007661D01*
X038049Y007705D01*
X038087Y007751D01*
X038123Y007800D01*
X038156Y007851D01*
X038185Y007903D01*
X038212Y007958D01*
X038235Y008013D01*
X038255Y008070D01*
X038271Y008129D01*
X038284Y008188D01*
X038293Y008247D01*
X038298Y008308D01*
X038300Y008368D01*
X038300Y011368D01*
X038298Y011422D01*
X038292Y011475D01*
X038283Y011527D01*
X038270Y011579D01*
X038253Y011630D01*
X038232Y011680D01*
X038208Y011727D01*
X038181Y011773D01*
X038150Y011817D01*
X038117Y011859D01*
X038080Y011898D01*
X038041Y011935D01*
X037999Y011968D01*
X037955Y011999D01*
X037909Y012026D01*
X037862Y012050D01*
X037812Y012071D01*
X037761Y012088D01*
X037709Y012101D01*
X037657Y012110D01*
X037604Y012116D01*
X037550Y012118D01*
X037300Y012118D01*
X037344Y012120D01*
X037387Y012126D01*
X037429Y012135D01*
X037471Y012148D01*
X037511Y012165D01*
X037550Y012185D01*
X037587Y012208D01*
X037621Y012235D01*
X037654Y012264D01*
X037683Y012297D01*
X037710Y012331D01*
X037733Y012368D01*
X037753Y012407D01*
X037770Y012447D01*
X037783Y012489D01*
X037792Y012531D01*
X037798Y012574D01*
X037800Y012618D01*
X037800Y015618D01*
X037798Y015678D01*
X037793Y015739D01*
X037784Y015798D01*
X037771Y015857D01*
X037755Y015916D01*
X037735Y015973D01*
X037712Y016028D01*
X037685Y016083D01*
X037656Y016135D01*
X037623Y016186D01*
X037587Y016235D01*
X037549Y016281D01*
X037507Y016325D01*
X037463Y016367D01*
X037417Y016405D01*
X037368Y016441D01*
X037317Y016474D01*
X037265Y016503D01*
X037210Y016530D01*
X037155Y016553D01*
X037098Y016573D01*
X037039Y016589D01*
X036980Y016602D01*
X036921Y016611D01*
X036860Y016616D01*
X036800Y016618D01*
X036550Y016618D01*
X036496Y016620D01*
X036443Y016626D01*
X036391Y016635D01*
X036339Y016648D01*
X036288Y016665D01*
X036238Y016686D01*
X036191Y016710D01*
X036145Y016737D01*
X036101Y016768D01*
X036059Y016801D01*
X036020Y016838D01*
X035983Y016877D01*
X035950Y016919D01*
X035919Y016963D01*
X035892Y017009D01*
X035868Y017056D01*
X035847Y017106D01*
X035830Y017157D01*
X035817Y017209D01*
X035808Y017261D01*
X035802Y017314D01*
X035800Y017368D01*
X035798Y017422D01*
X035792Y017475D01*
X035783Y017527D01*
X035770Y017579D01*
X035753Y017630D01*
X035732Y017680D01*
X035708Y017727D01*
X035681Y017773D01*
X035650Y017817D01*
X035617Y017859D01*
X035580Y017898D01*
X035541Y017935D01*
X035499Y017968D01*
X035455Y017999D01*
X035409Y018026D01*
X035362Y018050D01*
X035312Y018071D01*
X035261Y018088D01*
X035209Y018101D01*
X035157Y018110D01*
X035104Y018116D01*
X035050Y018118D01*
X030550Y018118D01*
X030496Y018116D01*
X030443Y018110D01*
X030391Y018101D01*
X030339Y018088D01*
X030288Y018071D01*
X030238Y018050D01*
X030191Y018026D01*
X030145Y017999D01*
X030101Y017968D01*
X030059Y017935D01*
X030020Y017898D01*
X029983Y017859D01*
X029950Y017817D01*
X029919Y017773D01*
X029892Y017727D01*
X029868Y017680D01*
X029847Y017630D01*
X029830Y017579D01*
X029817Y017527D01*
X029808Y017475D01*
X029802Y017422D01*
X029800Y017368D01*
X029798Y017422D01*
X029792Y017475D01*
X029783Y017527D01*
X029770Y017579D01*
X029753Y017630D01*
X029732Y017680D01*
X029708Y017727D01*
X029681Y017773D01*
X029650Y017817D01*
X029617Y017859D01*
X029580Y017898D01*
X029541Y017935D01*
X029499Y017968D01*
X029455Y017999D01*
X029409Y018026D01*
X029362Y018050D01*
X029312Y018071D01*
X029261Y018088D01*
X029209Y018101D01*
X029157Y018110D01*
X029104Y018116D01*
X029050Y018118D01*
X007050Y018118D01*
X006996Y018116D01*
X006943Y018110D01*
X006891Y018101D01*
X006839Y018088D01*
X006788Y018071D01*
X006738Y018050D01*
X006691Y018026D01*
X006645Y017999D01*
X006601Y017968D01*
X006559Y017935D01*
X006520Y017898D01*
X006483Y017859D01*
X006450Y017817D01*
X006419Y017773D01*
X006392Y017727D01*
X006368Y017680D01*
X006347Y017630D01*
X006330Y017579D01*
X006317Y017527D01*
X006308Y017475D01*
X006302Y017422D01*
X006300Y017368D01*
X006300Y016368D01*
X006300Y015368D01*
X006302Y015308D01*
X006307Y015247D01*
X006316Y015188D01*
X006329Y015129D01*
X006345Y015070D01*
X006365Y015013D01*
X006388Y014958D01*
X006415Y014903D01*
X006444Y014851D01*
X006477Y014800D01*
X006513Y014751D01*
X006551Y014705D01*
X006593Y014661D01*
X006637Y014619D01*
X006683Y014581D01*
X006732Y014545D01*
X006783Y014512D01*
X006835Y014483D01*
X006890Y014456D01*
X006945Y014433D01*
X007002Y014413D01*
X007061Y014397D01*
X007120Y014384D01*
X007179Y014375D01*
X007240Y014370D01*
X007300Y014368D01*
X009800Y013368D02*
X009844Y013370D01*
X009887Y013376D01*
X009929Y013385D01*
X009971Y013398D01*
X010011Y013415D01*
X010050Y013435D01*
X010087Y013458D01*
X010121Y013485D01*
X010154Y013514D01*
X010183Y013547D01*
X010210Y013581D01*
X010233Y013618D01*
X010253Y013657D01*
X010270Y013697D01*
X010283Y013739D01*
X010292Y013781D01*
X010298Y013824D01*
X010300Y013868D01*
X009800Y013368D02*
X004800Y013368D01*
X004746Y013370D01*
X004693Y013376D01*
X004641Y013385D01*
X004589Y013398D01*
X004538Y013415D01*
X004488Y013436D01*
X004441Y013460D01*
X004395Y013487D01*
X004351Y013518D01*
X004309Y013551D01*
X004270Y013588D01*
X004233Y013627D01*
X004200Y013669D01*
X004169Y013713D01*
X004142Y013759D01*
X004118Y013806D01*
X004097Y013856D01*
X004080Y013907D01*
X004067Y013959D01*
X004058Y014011D01*
X004052Y014064D01*
X004050Y014118D01*
X004050Y015118D01*
X004052Y015162D01*
X004058Y015205D01*
X004067Y015247D01*
X004080Y015289D01*
X004097Y015329D01*
X004117Y015368D01*
X004140Y015405D01*
X004167Y015439D01*
X004196Y015472D01*
X004229Y015501D01*
X004263Y015528D01*
X004300Y015551D01*
X004339Y015571D01*
X004379Y015588D01*
X004421Y015601D01*
X004463Y015610D01*
X004506Y015616D01*
X004550Y015618D01*
X004800Y015618D01*
X004844Y015620D01*
X004887Y015626D01*
X004929Y015635D01*
X004971Y015648D01*
X005011Y015665D01*
X005050Y015685D01*
X005087Y015708D01*
X005121Y015735D01*
X005154Y015764D01*
X005183Y015797D01*
X005210Y015831D01*
X005233Y015868D01*
X005253Y015907D01*
X005270Y015947D01*
X005283Y015989D01*
X005292Y016031D01*
X005298Y016074D01*
X005300Y016118D01*
X005300Y016368D01*
X005300Y017368D01*
X006300Y016368D02*
X006298Y016292D01*
X006292Y016216D01*
X006283Y016141D01*
X006269Y016066D01*
X006252Y015992D01*
X006231Y015919D01*
X006207Y015847D01*
X006178Y015776D01*
X006147Y015707D01*
X006112Y015640D01*
X006073Y015575D01*
X006031Y015511D01*
X005986Y015450D01*
X005938Y015391D01*
X005887Y015335D01*
X005833Y015281D01*
X005777Y015230D01*
X005718Y015182D01*
X005657Y015137D01*
X005593Y015095D01*
X005528Y015056D01*
X005461Y015021D01*
X005392Y014990D01*
X005321Y014961D01*
X005249Y014937D01*
X005176Y014916D01*
X005102Y014899D01*
X005027Y014885D01*
X004952Y014876D01*
X004876Y014870D01*
X004800Y014868D01*
X007300Y016368D02*
X007300Y017368D01*
X008300Y017368D02*
X008300Y016368D01*
X011550Y015118D02*
X011800Y015118D01*
X011854Y015120D01*
X011907Y015126D01*
X011959Y015135D01*
X012011Y015148D01*
X012062Y015165D01*
X012112Y015186D01*
X012159Y015210D01*
X012205Y015237D01*
X012249Y015268D01*
X012291Y015301D01*
X012330Y015338D01*
X012367Y015377D01*
X012400Y015419D01*
X012431Y015463D01*
X012458Y015509D01*
X012482Y015556D01*
X012503Y015606D01*
X012520Y015657D01*
X012533Y015709D01*
X012542Y015761D01*
X012548Y015814D01*
X012550Y015868D01*
X012552Y015944D01*
X012558Y016020D01*
X012567Y016095D01*
X012581Y016170D01*
X012598Y016244D01*
X012619Y016317D01*
X012643Y016389D01*
X012672Y016460D01*
X012703Y016529D01*
X012738Y016596D01*
X012777Y016661D01*
X012819Y016725D01*
X012864Y016786D01*
X012912Y016845D01*
X012963Y016901D01*
X013017Y016955D01*
X013073Y017006D01*
X013132Y017054D01*
X013193Y017099D01*
X013257Y017141D01*
X013322Y017180D01*
X013389Y017215D01*
X013458Y017246D01*
X013529Y017275D01*
X013601Y017299D01*
X013674Y017320D01*
X013748Y017337D01*
X013823Y017351D01*
X013898Y017360D01*
X013974Y017366D01*
X014050Y017368D01*
X014800Y017368D01*
X015800Y017368D01*
X011550Y015118D02*
X011482Y015116D01*
X011415Y015111D01*
X011348Y015102D01*
X011281Y015089D01*
X011216Y015072D01*
X011151Y015053D01*
X011087Y015029D01*
X011025Y015002D01*
X010964Y014972D01*
X010906Y014939D01*
X010849Y014903D01*
X010794Y014863D01*
X010741Y014821D01*
X010690Y014775D01*
X010643Y014728D01*
X010597Y014677D01*
X010555Y014624D01*
X010515Y014569D01*
X010479Y014512D01*
X010446Y014454D01*
X010416Y014393D01*
X010389Y014331D01*
X010365Y014267D01*
X010346Y014202D01*
X010329Y014137D01*
X010316Y014070D01*
X010307Y014003D01*
X010302Y013936D01*
X010300Y013868D01*
X001300Y016368D02*
X001300Y017368D01*
X016800Y008338D02*
X016800Y007868D01*
X016800Y008338D02*
X016801Y008344D01*
X016805Y008349D01*
X016810Y008353D01*
X016816Y008354D01*
X016800Y007868D02*
X016802Y007808D01*
X016807Y007747D01*
X016816Y007688D01*
X016829Y007629D01*
X016845Y007570D01*
X016865Y007513D01*
X016888Y007458D01*
X016915Y007403D01*
X016944Y007351D01*
X016977Y007300D01*
X017013Y007251D01*
X017051Y007205D01*
X017093Y007161D01*
X017137Y007119D01*
X017183Y007081D01*
X017232Y007045D01*
X017283Y007012D01*
X017335Y006983D01*
X017390Y006956D01*
X017445Y006933D01*
X017502Y006913D01*
X017561Y006897D01*
X017620Y006884D01*
X017679Y006875D01*
X017740Y006870D01*
X017800Y006868D01*
X020300Y006868D01*
X020344Y006870D01*
X020387Y006876D01*
X020429Y006885D01*
X020471Y006898D01*
X020511Y006915D01*
X020550Y006935D01*
X020587Y006958D01*
X020621Y006985D01*
X020654Y007014D01*
X020683Y007047D01*
X020710Y007081D01*
X020733Y007118D01*
X020753Y007157D01*
X020770Y007197D01*
X020783Y007239D01*
X020792Y007281D01*
X020798Y007324D01*
X020800Y007368D01*
X020802Y007428D01*
X020807Y007489D01*
X020816Y007548D01*
X020829Y007607D01*
X020845Y007666D01*
X020865Y007723D01*
X020888Y007778D01*
X020915Y007833D01*
X020944Y007885D01*
X020977Y007936D01*
X021013Y007985D01*
X021051Y008031D01*
X021093Y008075D01*
X021137Y008117D01*
X021183Y008155D01*
X021232Y008191D01*
X021283Y008224D01*
X021335Y008253D01*
X021390Y008280D01*
X021445Y008303D01*
X021502Y008323D01*
X021561Y008339D01*
X021620Y008352D01*
X021679Y008361D01*
X021740Y008366D01*
X021800Y008368D01*
X026802Y008368D01*
X026802Y008367D02*
X026807Y008366D01*
X026812Y008363D01*
X026815Y008358D01*
X026816Y008353D01*
X026816Y007883D01*
X026816Y007852D01*
X026800Y007868D02*
X026816Y007883D01*
X026816Y007852D02*
X026818Y007810D01*
X026823Y007768D01*
X026832Y007727D01*
X026845Y007686D01*
X026861Y007647D01*
X026881Y007610D01*
X026904Y007574D01*
X026929Y007541D01*
X026958Y007510D01*
X026989Y007481D01*
X027022Y007456D01*
X027058Y007433D01*
X027095Y007413D01*
X027134Y007397D01*
X027175Y007384D01*
X027216Y007375D01*
X027258Y007370D01*
X027300Y007368D01*
X033330Y007368D01*
X033330Y007367D02*
X033392Y007369D01*
X033454Y007375D01*
X033515Y007384D01*
X033575Y007398D01*
X033635Y007415D01*
X033693Y007436D01*
X033750Y007461D01*
X033805Y007489D01*
X033858Y007520D01*
X033910Y007555D01*
X033959Y007593D01*
X034005Y007634D01*
X034049Y007678D01*
X034090Y007724D01*
X034128Y007773D01*
X034163Y007825D01*
X034194Y007878D01*
X034222Y007933D01*
X034247Y007990D01*
X034268Y008048D01*
X034285Y008108D01*
X034299Y008168D01*
X034308Y008229D01*
X034314Y008291D01*
X034316Y008353D01*
X034316Y008352D01*
X027800Y013118D02*
X026800Y013118D01*
X027800Y013118D02*
X027800Y013868D01*
X027802Y013912D01*
X027808Y013955D01*
X027817Y013997D01*
X027830Y014039D01*
X027847Y014079D01*
X027867Y014118D01*
X027890Y014155D01*
X027917Y014189D01*
X027946Y014222D01*
X027979Y014251D01*
X028013Y014278D01*
X028050Y014301D01*
X028089Y014321D01*
X028129Y014338D01*
X028171Y014351D01*
X028213Y014360D01*
X028256Y014366D01*
X028300Y014368D01*
X028344Y014370D01*
X028387Y014376D01*
X028429Y014385D01*
X028471Y014398D01*
X028511Y014415D01*
X028550Y014435D01*
X028587Y014458D01*
X028621Y014485D01*
X028654Y014514D01*
X028683Y014547D01*
X028710Y014581D01*
X028733Y014618D01*
X028753Y014657D01*
X028770Y014697D01*
X028783Y014739D01*
X028792Y014781D01*
X028798Y014824D01*
X028800Y014868D01*
X028800Y016118D01*
X028800Y016368D01*
X028802Y016428D01*
X028807Y016489D01*
X028816Y016548D01*
X028829Y016607D01*
X028845Y016666D01*
X028865Y016723D01*
X028888Y016778D01*
X028915Y016833D01*
X028944Y016885D01*
X028977Y016936D01*
X029013Y016985D01*
X029051Y017031D01*
X029093Y017075D01*
X029137Y017117D01*
X029183Y017155D01*
X029232Y017191D01*
X029283Y017224D01*
X029335Y017253D01*
X029390Y017280D01*
X029445Y017303D01*
X029502Y017323D01*
X029561Y017339D01*
X029620Y017352D01*
X029679Y017361D01*
X029740Y017366D01*
X029800Y017368D01*
M02*
