G75*
G70*
%OFA0B0*%
%FSLAX24Y24*%
%IPPOS*%
%LPD*%
%AMOC8*
5,1,8,0,0,1.08239X$1,22.5*
%
%ADD10C,0.0000*%
%ADD11C,0.0560*%
%ADD12C,0.0780*%
%ADD13OC8,0.0560*%
%ADD14C,0.0820*%
%ADD15C,0.0690*%
%ADD16R,0.0690X0.0690*%
%ADD17C,0.1306*%
%ADD18C,0.0800*%
%ADD19C,0.1615*%
%ADD20OC8,0.0780*%
%ADD21R,0.0780X0.0780*%
%ADD22R,0.0808X0.0808*%
%ADD23C,0.0808*%
D10*
X000300Y006368D02*
X000300Y018368D01*
X039670Y018368D01*
X039670Y006368D01*
X000300Y006368D01*
D11*
X021800Y012858D02*
X021800Y013378D01*
X022800Y013378D02*
X022800Y012858D01*
X023800Y012858D02*
X023800Y013378D01*
X024800Y013378D02*
X024800Y012858D01*
X025800Y012858D02*
X025800Y013378D01*
X026800Y013378D02*
X026800Y012858D01*
X027800Y012858D02*
X027800Y013378D01*
X028800Y013378D02*
X028800Y012858D01*
X029800Y012858D02*
X029800Y013378D01*
X030800Y013378D02*
X030800Y012858D01*
X031800Y012858D02*
X031800Y013378D01*
X032800Y013378D02*
X032800Y012858D01*
X033800Y012858D02*
X033800Y013378D01*
X034800Y013378D02*
X034800Y012858D01*
X034800Y015858D02*
X034800Y016378D01*
X033800Y016378D02*
X033800Y015858D01*
X032800Y015858D02*
X032800Y016378D01*
X031800Y016378D02*
X031800Y015858D01*
X030800Y015858D02*
X030800Y016378D01*
X029800Y016378D02*
X029800Y015858D01*
X028800Y015858D02*
X028800Y016378D01*
X027800Y016378D02*
X027800Y015858D01*
X026800Y015858D02*
X026800Y016378D01*
X025800Y016378D02*
X025800Y015858D01*
X024800Y015858D02*
X024800Y016378D01*
X023800Y016378D02*
X023800Y015858D01*
X022800Y015858D02*
X022800Y016378D01*
X021800Y016378D02*
X021800Y015858D01*
D12*
X021300Y017368D03*
X022300Y017368D03*
X023300Y017368D03*
X025300Y017368D03*
X026300Y017368D03*
X027300Y017368D03*
X032800Y017368D03*
X033800Y017368D03*
X034800Y017368D03*
X035800Y017368D03*
X036800Y017368D03*
X037800Y017368D03*
X035800Y012118D03*
X034800Y012118D03*
X033800Y012118D03*
X013300Y007368D03*
X012300Y007368D03*
X005800Y007368D03*
X004800Y007368D03*
D13*
X004800Y008868D03*
X007800Y008868D03*
X012300Y008868D03*
X015300Y008868D03*
X014800Y012868D03*
X015800Y012868D03*
X015800Y014368D03*
X014800Y014368D03*
X011800Y014368D03*
X011800Y012868D03*
X011800Y015868D03*
X010300Y016368D03*
X009550Y016868D03*
X010300Y017368D03*
X011800Y017368D03*
X014800Y017368D03*
X015800Y017368D03*
X015800Y015868D03*
X014800Y015868D03*
X018800Y015868D03*
X019550Y016868D03*
X020300Y016368D03*
X020300Y017368D03*
X018800Y017368D03*
X018800Y014368D03*
X018800Y012868D03*
X029800Y017368D03*
X031800Y017368D03*
X036300Y016118D03*
X037300Y015118D03*
X038300Y016118D03*
X037300Y012118D03*
D14*
X004800Y013368D03*
X004800Y014868D03*
X000800Y014868D03*
X000800Y013368D03*
D15*
X008300Y014368D03*
D16*
X007300Y014368D03*
D17*
X010300Y010836D03*
X010300Y008868D03*
X010300Y006899D03*
X002800Y006899D03*
X002800Y008868D03*
X002800Y010836D03*
D18*
X016816Y008353D03*
X017800Y008353D03*
X018784Y008353D03*
X026816Y008353D03*
X027800Y008353D03*
X028784Y008353D03*
X034316Y008353D03*
X035300Y008353D03*
X036284Y008353D03*
D19*
X037072Y009968D03*
X033528Y009968D03*
X029572Y009968D03*
X026028Y009968D03*
X019572Y009968D03*
X016028Y009968D03*
D20*
X008300Y016368D03*
X007300Y016368D03*
X006300Y016368D03*
X005300Y016368D03*
X004300Y016368D03*
X003300Y016368D03*
X002300Y016368D03*
X001300Y016368D03*
X001300Y017368D03*
X002300Y017368D03*
X003300Y017368D03*
X004300Y017368D03*
X005300Y017368D03*
X006300Y017368D03*
X007300Y017368D03*
X008300Y017368D03*
D21*
X024300Y017368D03*
X032800Y012118D03*
D22*
X024650Y011868D03*
X022800Y011868D03*
X020950Y011868D03*
D23*
X021416Y006868D02*
X022184Y006868D01*
X023416Y006868D02*
X024184Y006868D01*
M02*
