G75*
G70*
%OFA0B0*%
%FSLAX24Y24*%
%IPPOS*%
%LPD*%
%AMOC8*
5,1,8,0,0,1.08239X$1,22.5*
%
%ADD10C,0.0000*%
%ADD11C,0.0030*%
%ADD12C,0.0060*%
%ADD13C,0.0020*%
%ADD14C,0.0070*%
%ADD15C,0.0080*%
%ADD16C,0.0120*%
%ADD17C,0.0050*%
%ADD18R,0.0150X0.0200*%
%ADD19C,0.0040*%
%ADD20C,0.0100*%
%ADD21R,0.0200X0.0150*%
%ADD22C,0.0010*%
D10*
X000300Y006368D02*
X000300Y018368D01*
X039670Y018368D01*
X039670Y006368D01*
X000300Y006368D01*
D11*
X000683Y015383D02*
X000930Y015383D01*
X001052Y015383D02*
X001299Y015629D01*
X001299Y015691D01*
X001237Y015753D01*
X001113Y015753D01*
X001052Y015691D01*
X000807Y015753D02*
X000683Y015629D01*
X000562Y015568D02*
X000315Y015568D01*
X000807Y015753D02*
X000807Y015383D01*
X001052Y015383D02*
X001299Y015383D01*
X001420Y015506D02*
X001543Y015383D01*
X001667Y015506D01*
X001667Y015753D01*
X001420Y015753D02*
X001420Y015506D01*
D12*
X001550Y015868D02*
X001050Y015868D01*
X000800Y016118D01*
X000800Y017618D01*
X001050Y017868D01*
X001550Y017868D01*
X001800Y017618D01*
X001800Y016118D01*
X002050Y015868D01*
X002550Y015868D01*
X002800Y016118D01*
X002800Y017618D01*
X003050Y017868D01*
X003550Y017868D01*
X003800Y017618D01*
X003800Y016118D01*
X004050Y015868D01*
X004550Y015868D01*
X004800Y016118D01*
X004800Y017618D01*
X005050Y017868D01*
X005550Y017868D01*
X005800Y017618D01*
X005800Y016118D01*
X006050Y015868D01*
X006550Y015868D01*
X006800Y016118D01*
X006800Y017618D01*
X007050Y017868D01*
X007550Y017868D01*
X007800Y017618D01*
X007800Y016118D01*
X007550Y015868D01*
X007050Y015868D01*
X006800Y016118D01*
X005800Y016118D02*
X005550Y015868D01*
X005050Y015868D01*
X004800Y016118D01*
X003800Y016118D02*
X003550Y015868D01*
X003050Y015868D01*
X002800Y016118D01*
X001800Y016118D02*
X001550Y015868D01*
X001800Y017618D02*
X002050Y017868D01*
X002550Y017868D01*
X002800Y017618D01*
X003800Y017618D02*
X004050Y017868D01*
X004550Y017868D01*
X004800Y017618D01*
X005800Y017618D02*
X006050Y017868D01*
X006550Y017868D01*
X006800Y017618D01*
X007800Y017618D02*
X008050Y017868D01*
X008550Y017868D01*
X008800Y017618D01*
X008800Y016118D01*
X008550Y015868D01*
X008050Y015868D01*
X007800Y016118D01*
X012300Y016168D02*
X012300Y015568D01*
X012302Y015551D01*
X012306Y015534D01*
X012313Y015518D01*
X012323Y015504D01*
X012336Y015491D01*
X012350Y015481D01*
X012366Y015474D01*
X012383Y015470D01*
X012400Y015468D01*
X012550Y015468D01*
X012600Y015518D01*
X014000Y015518D01*
X014050Y015468D01*
X014200Y015468D01*
X014217Y015470D01*
X014234Y015474D01*
X014250Y015481D01*
X014264Y015491D01*
X014277Y015504D01*
X014287Y015518D01*
X014294Y015534D01*
X014298Y015551D01*
X014300Y015568D01*
X014300Y016168D01*
X014298Y016185D01*
X014294Y016202D01*
X014287Y016218D01*
X014277Y016232D01*
X014264Y016245D01*
X014250Y016255D01*
X014234Y016262D01*
X014217Y016266D01*
X014200Y016268D01*
X014050Y016268D01*
X014000Y016218D01*
X012600Y016218D01*
X012550Y016268D01*
X012400Y016268D01*
X012383Y016266D01*
X012366Y016262D01*
X012350Y016255D01*
X012336Y016245D01*
X012323Y016232D01*
X012313Y016218D01*
X012306Y016202D01*
X012302Y016185D01*
X012300Y016168D01*
X012400Y016968D02*
X012550Y016968D01*
X012600Y017018D01*
X014000Y017018D01*
X014050Y016968D01*
X014200Y016968D01*
X014217Y016970D01*
X014234Y016974D01*
X014250Y016981D01*
X014264Y016991D01*
X014277Y017004D01*
X014287Y017018D01*
X014294Y017034D01*
X014298Y017051D01*
X014300Y017068D01*
X014300Y017668D01*
X014298Y017685D01*
X014294Y017702D01*
X014287Y017718D01*
X014277Y017732D01*
X014264Y017745D01*
X014250Y017755D01*
X014234Y017762D01*
X014217Y017766D01*
X014200Y017768D01*
X014050Y017768D01*
X014000Y017718D01*
X012600Y017718D01*
X012550Y017768D01*
X012400Y017768D01*
X012383Y017766D01*
X012366Y017762D01*
X012350Y017755D01*
X012336Y017745D01*
X012323Y017732D01*
X012313Y017718D01*
X012306Y017702D01*
X012302Y017685D01*
X012300Y017668D01*
X012300Y017068D01*
X012302Y017051D01*
X012306Y017034D01*
X012313Y017018D01*
X012323Y017004D01*
X012336Y016991D01*
X012350Y016981D01*
X012366Y016974D01*
X012383Y016970D01*
X012400Y016968D01*
X016300Y017068D02*
X016300Y017668D01*
X016302Y017685D01*
X016306Y017702D01*
X016313Y017718D01*
X016323Y017732D01*
X016336Y017745D01*
X016350Y017755D01*
X016366Y017762D01*
X016383Y017766D01*
X016400Y017768D01*
X016550Y017768D01*
X016600Y017718D01*
X018000Y017718D01*
X018050Y017768D01*
X018200Y017768D01*
X018217Y017766D01*
X018234Y017762D01*
X018250Y017755D01*
X018264Y017745D01*
X018277Y017732D01*
X018287Y017718D01*
X018294Y017702D01*
X018298Y017685D01*
X018300Y017668D01*
X018300Y017068D01*
X018298Y017051D01*
X018294Y017034D01*
X018287Y017018D01*
X018277Y017004D01*
X018264Y016991D01*
X018250Y016981D01*
X018234Y016974D01*
X018217Y016970D01*
X018200Y016968D01*
X018050Y016968D01*
X018000Y017018D01*
X016600Y017018D01*
X016550Y016968D01*
X016400Y016968D01*
X016383Y016970D01*
X016366Y016974D01*
X016350Y016981D01*
X016336Y016991D01*
X016323Y017004D01*
X016313Y017018D01*
X016306Y017034D01*
X016302Y017051D01*
X016300Y017068D01*
X016400Y016268D02*
X016550Y016268D01*
X016600Y016218D01*
X018000Y016218D01*
X018050Y016268D01*
X018200Y016268D01*
X018217Y016266D01*
X018234Y016262D01*
X018250Y016255D01*
X018264Y016245D01*
X018277Y016232D01*
X018287Y016218D01*
X018294Y016202D01*
X018298Y016185D01*
X018300Y016168D01*
X018300Y015568D01*
X018298Y015551D01*
X018294Y015534D01*
X018287Y015518D01*
X018277Y015504D01*
X018264Y015491D01*
X018250Y015481D01*
X018234Y015474D01*
X018217Y015470D01*
X018200Y015468D01*
X018050Y015468D01*
X018000Y015518D01*
X016600Y015518D01*
X016550Y015468D01*
X016400Y015468D01*
X016383Y015470D01*
X016366Y015474D01*
X016350Y015481D01*
X016336Y015491D01*
X016323Y015504D01*
X016313Y015518D01*
X016306Y015534D01*
X016302Y015551D01*
X016300Y015568D01*
X016300Y016168D01*
X016302Y016185D01*
X016306Y016202D01*
X016313Y016218D01*
X016323Y016232D01*
X016336Y016245D01*
X016350Y016255D01*
X016366Y016262D01*
X016383Y016266D01*
X016400Y016268D01*
X016400Y014768D02*
X016550Y014768D01*
X016600Y014718D01*
X018000Y014718D01*
X018050Y014768D01*
X018200Y014768D01*
X018217Y014766D01*
X018234Y014762D01*
X018250Y014755D01*
X018264Y014745D01*
X018277Y014732D01*
X018287Y014718D01*
X018294Y014702D01*
X018298Y014685D01*
X018300Y014668D01*
X018300Y014068D01*
X018298Y014051D01*
X018294Y014034D01*
X018287Y014018D01*
X018277Y014004D01*
X018264Y013991D01*
X018250Y013981D01*
X018234Y013974D01*
X018217Y013970D01*
X018200Y013968D01*
X018050Y013968D01*
X018000Y014018D01*
X016600Y014018D01*
X016550Y013968D01*
X016400Y013968D01*
X016383Y013970D01*
X016366Y013974D01*
X016350Y013981D01*
X016336Y013991D01*
X016323Y014004D01*
X016313Y014018D01*
X016306Y014034D01*
X016302Y014051D01*
X016300Y014068D01*
X016300Y014668D01*
X016302Y014685D01*
X016306Y014702D01*
X016313Y014718D01*
X016323Y014732D01*
X016336Y014745D01*
X016350Y014755D01*
X016366Y014762D01*
X016383Y014766D01*
X016400Y014768D01*
X014300Y014668D02*
X014300Y014068D01*
X014298Y014051D01*
X014294Y014034D01*
X014287Y014018D01*
X014277Y014004D01*
X014264Y013991D01*
X014250Y013981D01*
X014234Y013974D01*
X014217Y013970D01*
X014200Y013968D01*
X014050Y013968D01*
X014000Y014018D01*
X012600Y014018D01*
X012550Y013968D01*
X012400Y013968D01*
X012383Y013970D01*
X012366Y013974D01*
X012350Y013981D01*
X012336Y013991D01*
X012323Y014004D01*
X012313Y014018D01*
X012306Y014034D01*
X012302Y014051D01*
X012300Y014068D01*
X012300Y014668D01*
X012302Y014685D01*
X012306Y014702D01*
X012313Y014718D01*
X012323Y014732D01*
X012336Y014745D01*
X012350Y014755D01*
X012366Y014762D01*
X012383Y014766D01*
X012400Y014768D01*
X012550Y014768D01*
X012600Y014718D01*
X014000Y014718D01*
X014050Y014768D01*
X014200Y014768D01*
X014217Y014766D01*
X014234Y014762D01*
X014250Y014755D01*
X014264Y014745D01*
X014277Y014732D01*
X014287Y014718D01*
X014294Y014702D01*
X014298Y014685D01*
X014300Y014668D01*
X014200Y013268D02*
X014050Y013268D01*
X014000Y013218D01*
X012600Y013218D01*
X012550Y013268D01*
X012400Y013268D01*
X012383Y013266D01*
X012366Y013262D01*
X012350Y013255D01*
X012336Y013245D01*
X012323Y013232D01*
X012313Y013218D01*
X012306Y013202D01*
X012302Y013185D01*
X012300Y013168D01*
X012300Y012568D01*
X012302Y012551D01*
X012306Y012534D01*
X012313Y012518D01*
X012323Y012504D01*
X012336Y012491D01*
X012350Y012481D01*
X012366Y012474D01*
X012383Y012470D01*
X012400Y012468D01*
X012550Y012468D01*
X012600Y012518D01*
X014000Y012518D01*
X014050Y012468D01*
X014200Y012468D01*
X014217Y012470D01*
X014234Y012474D01*
X014250Y012481D01*
X014264Y012491D01*
X014277Y012504D01*
X014287Y012518D01*
X014294Y012534D01*
X014298Y012551D01*
X014300Y012568D01*
X014300Y013168D01*
X014298Y013185D01*
X014294Y013202D01*
X014287Y013218D01*
X014277Y013232D01*
X014264Y013245D01*
X014250Y013255D01*
X014234Y013262D01*
X014217Y013266D01*
X014200Y013268D01*
X014115Y012395D02*
X014115Y012288D01*
X014115Y012075D02*
X014115Y011648D01*
X014008Y011648D02*
X014222Y011648D01*
X014438Y011754D02*
X014545Y011648D01*
X014758Y011648D01*
X014865Y011754D01*
X014865Y011968D01*
X014758Y012075D01*
X014545Y012075D01*
X014438Y011968D01*
X014438Y011754D01*
X013792Y011648D02*
X013685Y011754D01*
X013685Y012181D01*
X013578Y012075D02*
X013792Y012075D01*
X014008Y012075D02*
X014115Y012075D01*
X013361Y012075D02*
X013041Y012075D01*
X012934Y011968D01*
X012934Y011754D01*
X013041Y011648D01*
X013361Y011648D01*
X012716Y011648D02*
X012396Y011648D01*
X012289Y011754D01*
X012396Y011861D01*
X012716Y011861D01*
X012716Y011968D02*
X012716Y011648D01*
X012716Y011968D02*
X012610Y012075D01*
X012396Y012075D01*
X012072Y012075D02*
X011966Y012075D01*
X011752Y011861D01*
X011752Y011648D02*
X011752Y012075D01*
X011535Y012288D02*
X011108Y012288D01*
X011108Y011648D01*
X011108Y011968D02*
X011321Y011968D01*
X010246Y012075D02*
X010246Y011541D01*
X010139Y011434D01*
X010032Y011434D01*
X009925Y011648D02*
X010246Y011648D01*
X009925Y011648D02*
X009819Y011754D01*
X009819Y012075D01*
X009601Y012075D02*
X009281Y012075D01*
X009174Y011968D01*
X009174Y011754D01*
X009281Y011648D01*
X009601Y011648D01*
X009601Y011541D02*
X009601Y012075D01*
X008956Y011968D02*
X008850Y012075D01*
X008636Y012075D01*
X008529Y011968D01*
X008529Y011754D01*
X008636Y011648D01*
X008850Y011648D01*
X008956Y011754D01*
X008956Y011968D01*
X009388Y011434D02*
X009494Y011434D01*
X009601Y011541D01*
X008313Y011648D02*
X008100Y011648D01*
X008207Y011648D02*
X008207Y012288D01*
X008100Y012288D01*
X007882Y011968D02*
X007775Y012075D01*
X007562Y012075D01*
X007455Y011968D01*
X007455Y011754D01*
X007562Y011648D01*
X007775Y011648D01*
X007882Y011754D01*
X007882Y011968D01*
X007238Y011968D02*
X007238Y011648D01*
X007238Y011968D02*
X007131Y012075D01*
X006811Y012075D01*
X006811Y011648D01*
X006593Y011648D02*
X006593Y011968D01*
X006486Y012075D01*
X006273Y012075D01*
X006166Y011968D01*
X005949Y012075D02*
X005628Y012075D01*
X005522Y011968D01*
X005522Y011754D01*
X005628Y011648D01*
X005949Y011648D01*
X006166Y011648D02*
X006166Y012288D01*
X005304Y011968D02*
X005304Y011861D01*
X004877Y011861D01*
X004877Y011754D02*
X004877Y011968D01*
X004984Y012075D01*
X005197Y012075D01*
X005304Y011968D01*
X005197Y011648D02*
X004984Y011648D01*
X004877Y011754D01*
X004446Y011648D02*
X004446Y012288D01*
X004659Y012288D02*
X004232Y012288D01*
X003265Y012288D02*
X003265Y011648D01*
X003158Y011648D02*
X003372Y011648D01*
X002941Y011861D02*
X002514Y011861D01*
X002514Y011754D02*
X002514Y011968D01*
X002620Y012075D01*
X002834Y012075D01*
X002941Y011968D01*
X002941Y011861D01*
X002834Y011648D02*
X002620Y011648D01*
X002514Y011754D01*
X002296Y011754D02*
X002296Y011968D01*
X002189Y012075D01*
X001869Y012075D01*
X001869Y012288D02*
X001869Y011648D01*
X002189Y011648D01*
X002296Y011754D01*
X001652Y011861D02*
X001225Y011861D01*
X001225Y011754D02*
X001225Y011968D01*
X001331Y012075D01*
X001545Y012075D01*
X001652Y011968D01*
X001652Y011861D01*
X001545Y011648D02*
X001331Y011648D01*
X001225Y011754D01*
X001007Y011648D02*
X000794Y011861D01*
X000900Y011861D02*
X000580Y011861D01*
X000580Y011648D02*
X000580Y012288D01*
X000900Y012288D01*
X001007Y012181D01*
X001007Y011968D01*
X000900Y011861D01*
X003158Y012288D02*
X003265Y012288D01*
X005400Y009268D02*
X005550Y009268D01*
X005600Y009218D01*
X007000Y009218D01*
X007050Y009268D01*
X007200Y009268D01*
X007217Y009266D01*
X007234Y009262D01*
X007250Y009255D01*
X007264Y009245D01*
X007277Y009232D01*
X007287Y009218D01*
X007294Y009202D01*
X007298Y009185D01*
X007300Y009168D01*
X007300Y008568D01*
X007298Y008551D01*
X007294Y008534D01*
X007287Y008518D01*
X007277Y008504D01*
X007264Y008491D01*
X007250Y008481D01*
X007234Y008474D01*
X007217Y008470D01*
X007200Y008468D01*
X007050Y008468D01*
X007000Y008518D01*
X005600Y008518D01*
X005550Y008468D01*
X005400Y008468D01*
X005383Y008470D01*
X005366Y008474D01*
X005350Y008481D01*
X005336Y008491D01*
X005323Y008504D01*
X005313Y008518D01*
X005306Y008534D01*
X005302Y008551D01*
X005300Y008568D01*
X005300Y009168D01*
X005302Y009185D01*
X005306Y009202D01*
X005313Y009218D01*
X005323Y009232D01*
X005336Y009245D01*
X005350Y009255D01*
X005366Y009262D01*
X005383Y009266D01*
X005400Y009268D01*
X012800Y009168D02*
X012800Y008568D01*
X012802Y008551D01*
X012806Y008534D01*
X012813Y008518D01*
X012823Y008504D01*
X012836Y008491D01*
X012850Y008481D01*
X012866Y008474D01*
X012883Y008470D01*
X012900Y008468D01*
X013050Y008468D01*
X013100Y008518D01*
X014500Y008518D01*
X014550Y008468D01*
X014700Y008468D01*
X014717Y008470D01*
X014734Y008474D01*
X014750Y008481D01*
X014764Y008491D01*
X014777Y008504D01*
X014787Y008518D01*
X014794Y008534D01*
X014798Y008551D01*
X014800Y008568D01*
X014800Y009168D01*
X014798Y009185D01*
X014794Y009202D01*
X014787Y009218D01*
X014777Y009232D01*
X014764Y009245D01*
X014750Y009255D01*
X014734Y009262D01*
X014717Y009266D01*
X014700Y009268D01*
X014550Y009268D01*
X014500Y009218D01*
X013100Y009218D01*
X013050Y009268D01*
X012900Y009268D01*
X012883Y009266D01*
X012866Y009262D01*
X012850Y009255D01*
X012836Y009245D01*
X012823Y009232D01*
X012813Y009218D01*
X012806Y009202D01*
X012802Y009185D01*
X012800Y009168D01*
X015082Y011648D02*
X015082Y012075D01*
X015403Y012075D01*
X015509Y011968D01*
X015509Y011648D01*
X015727Y011648D02*
X016047Y011648D01*
X016154Y011754D01*
X016047Y011861D01*
X015834Y011861D01*
X015727Y011968D01*
X015834Y012075D01*
X016154Y012075D01*
X016400Y012468D02*
X016550Y012468D01*
X016600Y012518D01*
X018000Y012518D01*
X018050Y012468D01*
X018200Y012468D01*
X018217Y012470D01*
X018234Y012474D01*
X018250Y012481D01*
X018264Y012491D01*
X018277Y012504D01*
X018287Y012518D01*
X018294Y012534D01*
X018298Y012551D01*
X018300Y012568D01*
X018300Y013168D01*
X018298Y013185D01*
X018294Y013202D01*
X018287Y013218D01*
X018277Y013232D01*
X018264Y013245D01*
X018250Y013255D01*
X018234Y013262D01*
X018217Y013266D01*
X018200Y013268D01*
X018050Y013268D01*
X018000Y013218D01*
X016600Y013218D01*
X016550Y013268D01*
X016400Y013268D01*
X016383Y013266D01*
X016366Y013262D01*
X016350Y013255D01*
X016336Y013245D01*
X016323Y013232D01*
X016313Y013218D01*
X016306Y013202D01*
X016302Y013185D01*
X016300Y013168D01*
X016300Y012568D01*
X016302Y012551D01*
X016306Y012534D01*
X016313Y012518D01*
X016323Y012504D01*
X016336Y012491D01*
X016350Y012481D01*
X016366Y012474D01*
X016383Y012470D01*
X016400Y012468D01*
X017016Y012288D02*
X017336Y012288D01*
X017443Y012181D01*
X017443Y011968D01*
X017336Y011861D01*
X017016Y011861D01*
X017016Y011648D02*
X017016Y012288D01*
X017661Y011968D02*
X017767Y012075D01*
X017981Y012075D01*
X018088Y011968D01*
X018088Y011861D01*
X017661Y011861D01*
X017661Y011754D02*
X017661Y011968D01*
X017661Y011754D02*
X017767Y011648D01*
X017981Y011648D01*
X018305Y012075D02*
X018519Y011648D01*
X018732Y012075D01*
X018950Y012181D02*
X019056Y012288D01*
X019270Y012288D01*
X019377Y012181D01*
X018950Y011754D01*
X019056Y011648D01*
X019270Y011648D01*
X019377Y011754D01*
X019377Y012181D01*
X019594Y012075D02*
X019808Y012288D01*
X019808Y011648D01*
X020021Y011648D02*
X019594Y011648D01*
X018950Y011754D02*
X018950Y012181D01*
X017443Y011648D02*
X017230Y011861D01*
X021000Y013518D02*
X021000Y015718D01*
X035600Y015718D01*
X035600Y014868D01*
X035570Y014866D01*
X035540Y014861D01*
X035511Y014852D01*
X035484Y014839D01*
X035458Y014824D01*
X035434Y014805D01*
X035413Y014784D01*
X035394Y014760D01*
X035379Y014734D01*
X035366Y014707D01*
X035357Y014678D01*
X035352Y014648D01*
X035350Y014618D01*
X035352Y014588D01*
X035357Y014558D01*
X035366Y014529D01*
X035379Y014502D01*
X035394Y014476D01*
X035413Y014452D01*
X035434Y014431D01*
X035458Y014412D01*
X035484Y014397D01*
X035511Y014384D01*
X035540Y014375D01*
X035570Y014370D01*
X035600Y014368D01*
X035600Y013518D01*
X021000Y013518D01*
X030150Y016918D02*
X031450Y016918D01*
X031476Y016920D01*
X031502Y016925D01*
X031527Y016933D01*
X031550Y016945D01*
X031572Y016959D01*
X031591Y016977D01*
X031609Y016996D01*
X031623Y017018D01*
X031635Y017041D01*
X031643Y017066D01*
X031648Y017092D01*
X031650Y017118D01*
X031300Y017368D02*
X030930Y017368D01*
X030680Y017368D02*
X030300Y017368D01*
X029950Y017618D02*
X029952Y017644D01*
X029957Y017670D01*
X029965Y017695D01*
X029977Y017718D01*
X029991Y017740D01*
X030009Y017759D01*
X030028Y017777D01*
X030050Y017791D01*
X030073Y017803D01*
X030098Y017811D01*
X030124Y017816D01*
X030150Y017818D01*
X031450Y017818D01*
X031476Y017816D01*
X031502Y017811D01*
X031527Y017803D01*
X031550Y017791D01*
X031572Y017777D01*
X031591Y017759D01*
X031609Y017740D01*
X031623Y017718D01*
X031635Y017695D01*
X031643Y017670D01*
X031648Y017644D01*
X031650Y017618D01*
X030150Y016918D02*
X030124Y016920D01*
X030098Y016925D01*
X030073Y016933D01*
X030050Y016945D01*
X030028Y016959D01*
X030009Y016977D01*
X029991Y016996D01*
X029977Y017018D01*
X029965Y017041D01*
X029957Y017066D01*
X029952Y017092D01*
X029950Y017118D01*
X036650Y016568D02*
X037950Y016568D01*
X037976Y016566D01*
X038002Y016561D01*
X038027Y016553D01*
X038050Y016541D01*
X038072Y016527D01*
X038091Y016509D01*
X038109Y016490D01*
X038123Y016468D01*
X038135Y016445D01*
X038143Y016420D01*
X038148Y016394D01*
X038150Y016368D01*
X037800Y016118D02*
X037420Y016118D01*
X037170Y016118D02*
X036800Y016118D01*
X036450Y016368D02*
X036452Y016394D01*
X036457Y016420D01*
X036465Y016445D01*
X036477Y016468D01*
X036491Y016490D01*
X036509Y016509D01*
X036528Y016527D01*
X036550Y016541D01*
X036573Y016553D01*
X036598Y016561D01*
X036624Y016566D01*
X036650Y016568D01*
X036450Y015868D02*
X036452Y015842D01*
X036457Y015816D01*
X036465Y015791D01*
X036477Y015768D01*
X036491Y015746D01*
X036509Y015727D01*
X036528Y015709D01*
X036550Y015695D01*
X036573Y015683D01*
X036598Y015675D01*
X036624Y015670D01*
X036650Y015668D01*
X037950Y015668D01*
X037976Y015670D01*
X038002Y015675D01*
X038027Y015683D01*
X038050Y015695D01*
X038072Y015709D01*
X038091Y015727D01*
X038109Y015746D01*
X038123Y015768D01*
X038135Y015791D01*
X038143Y015816D01*
X038148Y015842D01*
X038150Y015868D01*
X037600Y014618D02*
X037000Y014618D01*
X036983Y014616D01*
X036966Y014612D01*
X036950Y014605D01*
X036936Y014595D01*
X036923Y014582D01*
X036913Y014568D01*
X036906Y014552D01*
X036902Y014535D01*
X036900Y014518D01*
X036900Y014368D01*
X036950Y014318D01*
X036950Y012918D01*
X036900Y012868D01*
X036900Y012718D01*
X036902Y012701D01*
X036906Y012684D01*
X036913Y012668D01*
X036923Y012654D01*
X036936Y012641D01*
X036950Y012631D01*
X036966Y012624D01*
X036983Y012620D01*
X037000Y012618D01*
X037600Y012618D01*
X037617Y012620D01*
X037634Y012624D01*
X037650Y012631D01*
X037664Y012641D01*
X037677Y012654D01*
X037687Y012668D01*
X037694Y012684D01*
X037698Y012701D01*
X037700Y012718D01*
X037700Y012868D01*
X037650Y012918D01*
X037650Y014318D01*
X037700Y014368D01*
X037700Y014518D01*
X037698Y014535D01*
X037694Y014552D01*
X037687Y014568D01*
X037677Y014582D01*
X037664Y014595D01*
X037650Y014605D01*
X037634Y014612D01*
X037617Y014616D01*
X037600Y014618D01*
D13*
X038420Y006848D02*
X038310Y006738D01*
X038457Y006738D01*
X038531Y006664D02*
X038531Y006628D01*
X038531Y006664D02*
X038678Y006811D01*
X038678Y006848D01*
X038531Y006848D01*
X038420Y006848D02*
X038420Y006628D01*
X038752Y006664D02*
X038752Y006811D01*
X038789Y006848D01*
X038862Y006848D01*
X038899Y006811D01*
X038752Y006664D01*
X038789Y006628D01*
X038862Y006628D01*
X038899Y006664D01*
X038899Y006811D01*
X038973Y006811D02*
X039010Y006848D01*
X039083Y006848D01*
X039120Y006811D01*
X039120Y006774D01*
X038973Y006628D01*
X039120Y006628D01*
X039194Y006664D02*
X039231Y006628D01*
X039304Y006628D01*
X039341Y006664D01*
X039341Y006701D01*
X039304Y006738D01*
X039194Y006738D01*
X039194Y006664D01*
X039194Y006738D02*
X039267Y006811D01*
X039341Y006848D01*
D14*
X035025Y013934D02*
X035025Y014144D01*
X035025Y014039D02*
X034394Y014039D01*
X034394Y013934D02*
X034394Y014144D01*
X034500Y014363D02*
X034920Y014363D01*
X035025Y014469D01*
X035025Y014679D01*
X034920Y014784D01*
X035025Y015008D02*
X035025Y015428D01*
X035025Y015218D02*
X034394Y015218D01*
X034605Y015008D01*
X034500Y014784D02*
X034394Y014679D01*
X034394Y014469D01*
X034500Y014363D01*
D15*
X034550Y012618D02*
X035050Y012618D01*
X035300Y012368D01*
X035550Y012618D01*
X036050Y012618D01*
X036300Y012368D01*
X036300Y011868D01*
X036050Y011618D01*
X035550Y011618D01*
X035300Y011868D01*
X035050Y011618D01*
X034550Y011618D01*
X034300Y011868D01*
X034050Y011618D01*
X033550Y011618D01*
X033300Y011868D01*
X033050Y011618D01*
X032550Y011618D01*
X032300Y011868D01*
X032300Y012368D01*
X032550Y012618D01*
X033050Y012618D01*
X033300Y012368D01*
X033550Y012618D01*
X034050Y012618D01*
X034300Y012368D01*
X034550Y012618D01*
X033194Y010243D02*
X037406Y010243D01*
X029906Y010243D02*
X025694Y010243D01*
X025400Y018068D02*
X025759Y018100D01*
X026120Y018116D01*
X026480Y018116D01*
X026841Y018100D01*
X027200Y018068D01*
X027252Y018058D01*
X027303Y018044D01*
X027353Y018026D01*
X027401Y018005D01*
X027448Y017980D01*
X027492Y017952D01*
X027535Y017920D01*
X027575Y017886D01*
X027612Y017848D01*
X027646Y017808D01*
X027678Y017766D01*
X027706Y017721D01*
X027730Y017674D01*
X027751Y017626D01*
X027769Y017576D01*
X027782Y017525D01*
X027792Y017473D01*
X027798Y017421D01*
X027800Y017368D01*
X027798Y017315D01*
X027792Y017263D01*
X027782Y017211D01*
X027769Y017160D01*
X027751Y017110D01*
X027730Y017062D01*
X027706Y017015D01*
X027678Y016970D01*
X027646Y016928D01*
X027612Y016888D01*
X027575Y016850D01*
X027535Y016816D01*
X027492Y016784D01*
X027448Y016756D01*
X027401Y016731D01*
X027353Y016710D01*
X027303Y016692D01*
X027252Y016678D01*
X027200Y016668D01*
X025400Y016668D02*
X025348Y016678D01*
X025297Y016692D01*
X025247Y016710D01*
X025199Y016731D01*
X025152Y016756D01*
X025108Y016784D01*
X025065Y016816D01*
X025025Y016850D01*
X024988Y016888D01*
X024954Y016928D01*
X024922Y016970D01*
X024894Y017015D01*
X024870Y017062D01*
X024849Y017110D01*
X024831Y017160D01*
X024818Y017211D01*
X024808Y017263D01*
X024802Y017315D01*
X024800Y017368D01*
X024802Y017421D01*
X024808Y017473D01*
X024818Y017525D01*
X024831Y017576D01*
X024849Y017626D01*
X024870Y017674D01*
X024894Y017721D01*
X024922Y017766D01*
X024954Y017808D01*
X024988Y017848D01*
X025025Y017886D01*
X025065Y017920D01*
X025108Y017952D01*
X025152Y017980D01*
X025199Y018005D01*
X025247Y018026D01*
X025297Y018044D01*
X025348Y018058D01*
X025400Y018068D01*
X024800Y017618D02*
X024550Y017868D01*
X024050Y017868D01*
X023800Y017618D01*
X023550Y017868D01*
X023050Y017868D01*
X022800Y017618D01*
X022550Y017868D01*
X022050Y017868D01*
X021800Y017618D01*
X021550Y017868D01*
X021050Y017868D01*
X020800Y017618D01*
X020800Y017118D01*
X021050Y016868D01*
X021550Y016868D01*
X021800Y017118D01*
X022050Y016868D01*
X022550Y016868D01*
X022800Y017118D01*
X023050Y016868D01*
X023550Y016868D01*
X023800Y017118D01*
X024050Y016868D01*
X024550Y016868D01*
X024800Y017118D01*
X024800Y017618D01*
X025400Y016668D02*
X025759Y016636D01*
X026120Y016620D01*
X026480Y016620D01*
X026841Y016636D01*
X027200Y016668D01*
X032300Y017118D02*
X032300Y017618D01*
X032550Y017868D01*
X033050Y017868D01*
X033300Y017618D01*
X033550Y017868D01*
X034050Y017868D01*
X034300Y017618D01*
X034550Y017868D01*
X035050Y017868D01*
X035300Y017618D01*
X035550Y017868D01*
X036050Y017868D01*
X036300Y017618D01*
X036550Y017868D01*
X037050Y017868D01*
X037300Y017618D01*
X037550Y017868D01*
X038050Y017868D01*
X038300Y017618D01*
X038300Y017118D01*
X038050Y016868D01*
X037550Y016868D01*
X037300Y017118D01*
X037050Y016868D01*
X036550Y016868D01*
X036300Y017118D01*
X036050Y016868D01*
X035550Y016868D01*
X035300Y017118D01*
X035050Y016868D01*
X034550Y016868D01*
X034300Y017118D01*
X034050Y016868D01*
X033550Y016868D01*
X033300Y017118D01*
X033050Y016868D01*
X032550Y016868D01*
X032300Y017118D01*
X019906Y010243D02*
X015694Y010243D01*
X008550Y013868D02*
X008050Y013868D01*
X006520Y014368D02*
X006522Y014439D01*
X006528Y014510D01*
X006538Y014581D01*
X006552Y014650D01*
X006569Y014719D01*
X006591Y014787D01*
X006616Y014854D01*
X006645Y014919D01*
X006677Y014982D01*
X006713Y015044D01*
X006752Y015103D01*
X006795Y015160D01*
X006840Y015215D01*
X006889Y015267D01*
X006940Y015316D01*
X006994Y015362D01*
X007051Y015406D01*
X007109Y015446D01*
X007170Y015482D01*
X007233Y015516D01*
X007298Y015545D01*
X007364Y015571D01*
X007432Y015594D01*
X007500Y015612D01*
X007570Y015627D01*
X007640Y015638D01*
X007711Y015645D01*
X007782Y015648D01*
X007853Y015647D01*
X007924Y015642D01*
X007995Y015633D01*
X008065Y015620D01*
X008134Y015604D01*
X008202Y015583D01*
X008269Y015559D01*
X008335Y015531D01*
X008398Y015499D01*
X008460Y015464D01*
X008520Y015426D01*
X008578Y015384D01*
X008633Y015340D01*
X008686Y015292D01*
X008736Y015241D01*
X008783Y015188D01*
X008827Y015132D01*
X008868Y015074D01*
X008906Y015013D01*
X008940Y014951D01*
X008970Y014886D01*
X008997Y014821D01*
X009021Y014753D01*
X009040Y014685D01*
X009056Y014616D01*
X009068Y014545D01*
X009076Y014475D01*
X009080Y014404D01*
X009080Y014332D01*
X009076Y014261D01*
X009068Y014191D01*
X009056Y014120D01*
X009040Y014051D01*
X009021Y013983D01*
X008997Y013915D01*
X008970Y013850D01*
X008940Y013785D01*
X008906Y013723D01*
X008868Y013662D01*
X008827Y013604D01*
X008783Y013548D01*
X008736Y013495D01*
X008686Y013444D01*
X008633Y013396D01*
X008578Y013352D01*
X008520Y013310D01*
X008460Y013272D01*
X008398Y013237D01*
X008335Y013205D01*
X008269Y013177D01*
X008202Y013153D01*
X008134Y013132D01*
X008065Y013116D01*
X007995Y013103D01*
X007924Y013094D01*
X007853Y013089D01*
X007782Y013088D01*
X007711Y013091D01*
X007640Y013098D01*
X007570Y013109D01*
X007500Y013124D01*
X007432Y013142D01*
X007364Y013165D01*
X007298Y013191D01*
X007233Y013220D01*
X007170Y013254D01*
X007109Y013290D01*
X007051Y013330D01*
X006994Y013374D01*
X006940Y013420D01*
X006889Y013469D01*
X006840Y013521D01*
X006795Y013576D01*
X006752Y013633D01*
X006713Y013692D01*
X006677Y013754D01*
X006645Y013817D01*
X006616Y013882D01*
X006591Y013949D01*
X006569Y014017D01*
X006552Y014086D01*
X006538Y014155D01*
X006528Y014226D01*
X006522Y014297D01*
X006520Y014368D01*
X015694Y006031D02*
X016028Y006031D01*
X019572Y006031D01*
X019906Y006031D01*
X025694Y006031D02*
X026028Y006031D01*
X029572Y006031D01*
X029906Y006031D01*
X033194Y006031D02*
X033528Y006031D01*
X037072Y006031D01*
X037406Y006031D01*
D16*
X037420Y015818D02*
X037420Y016118D01*
X037420Y016418D01*
X037170Y016418D02*
X037170Y016118D01*
X037170Y015818D01*
X030930Y017068D02*
X030930Y017368D01*
X030930Y017668D01*
X030680Y017668D02*
X030680Y017368D01*
X030680Y017068D01*
D17*
X003981Y004655D02*
X001619Y004655D01*
X001619Y006230D01*
X003981Y006230D01*
X003981Y004655D01*
X003981Y006230D02*
X004217Y006230D01*
X004217Y011348D01*
X001383Y011348D01*
X001383Y006230D01*
X001619Y006230D01*
X006225Y006551D02*
X006675Y006551D01*
X006675Y006851D01*
X006675Y007011D02*
X006225Y007011D01*
X006225Y007312D01*
X006225Y007472D02*
X006225Y007697D01*
X006300Y007772D01*
X006600Y007772D01*
X006675Y007697D01*
X006675Y007472D01*
X006225Y007472D01*
X006675Y007312D02*
X006675Y007011D01*
X006450Y007011D02*
X006450Y007161D01*
X006300Y007932D02*
X006225Y008007D01*
X006225Y008157D01*
X006300Y008232D01*
X006375Y008232D01*
X006675Y007932D01*
X006675Y008232D01*
X008883Y006230D02*
X009119Y006230D01*
X009119Y004655D01*
X011481Y004655D01*
X011481Y006230D01*
X011717Y006230D01*
X011717Y011348D01*
X008883Y011348D01*
X008883Y006230D01*
X009119Y006230D02*
X011481Y006230D01*
X013725Y006551D02*
X014175Y006551D01*
X014175Y006851D01*
X014175Y007011D02*
X014175Y007312D01*
X014175Y007472D02*
X014175Y007697D01*
X014100Y007772D01*
X013800Y007772D01*
X013725Y007697D01*
X013725Y007472D01*
X014175Y007472D01*
X013950Y007161D02*
X013950Y007011D01*
X013725Y007011D02*
X014175Y007011D01*
X013725Y007011D02*
X013725Y007312D01*
X013875Y007932D02*
X013725Y008082D01*
X014175Y008082D01*
X014175Y007932D02*
X014175Y008232D01*
X015694Y010243D02*
X015694Y006031D01*
X016028Y006031D02*
X016028Y004062D01*
X016619Y004062D01*
X016619Y000125D01*
X018981Y000125D01*
X018981Y004062D01*
X019572Y004062D01*
X019572Y006031D01*
X019906Y006031D02*
X019906Y010243D01*
X020300Y010368D02*
X020300Y006868D01*
X021550Y006868D01*
X021550Y003988D01*
X022275Y003988D01*
X022275Y001868D01*
X022277Y001823D01*
X022283Y001779D01*
X022292Y001736D01*
X022305Y001693D01*
X022322Y001652D01*
X022342Y001612D01*
X022365Y001574D01*
X022392Y001538D01*
X022421Y001505D01*
X022453Y001474D01*
X022488Y001446D01*
X022525Y001421D01*
X022564Y001399D01*
X022604Y001381D01*
X022646Y001366D01*
X022689Y001355D01*
X022733Y001347D01*
X022778Y001343D01*
X022822Y001343D01*
X022867Y001347D01*
X022911Y001355D01*
X022954Y001366D01*
X022996Y001381D01*
X023036Y001399D01*
X023075Y001421D01*
X023112Y001446D01*
X023147Y001474D01*
X023179Y001505D01*
X023208Y001538D01*
X023235Y001574D01*
X023258Y001612D01*
X023278Y001652D01*
X023295Y001693D01*
X023308Y001736D01*
X023317Y001779D01*
X023323Y001823D01*
X023325Y001868D01*
X023325Y003988D01*
X024050Y003988D01*
X024050Y006868D01*
X025300Y006868D01*
X025300Y010368D01*
X020300Y010368D01*
X025694Y010243D02*
X025694Y006031D01*
X026028Y006031D02*
X026028Y004062D01*
X026619Y004062D01*
X026619Y000125D01*
X028981Y000125D01*
X028981Y004062D01*
X029572Y004062D01*
X029572Y006031D01*
X029906Y006031D02*
X029906Y010243D01*
X033194Y010243D02*
X033194Y006031D01*
X033528Y006031D02*
X033528Y004062D01*
X034119Y004062D01*
X034119Y000125D01*
X036481Y000125D01*
X036481Y004062D01*
X037072Y004062D01*
X037072Y006031D01*
X037406Y006031D02*
X037406Y010243D01*
X036765Y015093D02*
X036465Y015093D01*
X036615Y015093D02*
X036615Y015543D01*
X036465Y015393D01*
X036304Y015468D02*
X036229Y015543D01*
X036079Y015543D01*
X036004Y015468D01*
X036004Y015168D01*
X036079Y015093D01*
X036229Y015093D01*
X036304Y015168D01*
X029236Y017268D02*
X029161Y017193D01*
X029010Y017193D01*
X028935Y017268D01*
X028775Y017268D02*
X028700Y017193D01*
X028550Y017193D01*
X028475Y017268D01*
X028475Y017568D01*
X028550Y017643D01*
X028700Y017643D01*
X028775Y017568D01*
X028935Y017568D02*
X029010Y017643D01*
X029161Y017643D01*
X029236Y017568D01*
X029236Y017493D01*
X029161Y017418D01*
X029236Y017343D01*
X029236Y017268D01*
X029161Y017418D02*
X029086Y017418D01*
X020950Y017692D02*
X020950Y016043D01*
X020400Y015980D02*
X020400Y015822D01*
X020515Y015593D02*
X020515Y015143D01*
X020365Y015143D02*
X020665Y015143D01*
X020365Y015443D02*
X020515Y015593D01*
X020204Y015518D02*
X020204Y015218D01*
X020129Y015143D01*
X019979Y015143D01*
X019904Y015218D01*
X019904Y015518D01*
X019979Y015593D01*
X020129Y015593D01*
X020204Y015518D01*
X020054Y015293D02*
X020204Y015143D01*
X020400Y016755D02*
X020400Y016980D01*
X020950Y016043D02*
X020902Y016008D01*
X020852Y015975D01*
X020800Y015944D01*
X020746Y015917D01*
X020691Y015893D01*
X020634Y015873D01*
X020577Y015855D01*
X020519Y015841D01*
X020460Y015830D01*
X020400Y015823D01*
X020338Y015819D01*
X020275Y015818D01*
X020213Y015822D01*
X020151Y015829D01*
X020090Y015839D01*
X020029Y015854D01*
X019969Y015872D01*
X019910Y015893D01*
X019853Y015918D01*
X019798Y015946D01*
X019744Y015977D01*
X019692Y016012D01*
X019642Y016050D01*
X019595Y016090D01*
X019550Y016134D01*
X019507Y016179D01*
X019468Y016228D01*
X019431Y016278D01*
X019398Y016331D01*
X019367Y016385D01*
X019340Y016442D01*
X019317Y016499D01*
X019297Y016558D01*
X019297Y017178D02*
X019317Y017238D01*
X019341Y017297D01*
X019369Y017354D01*
X019400Y017409D01*
X019435Y017463D01*
X019472Y017514D01*
X019513Y017563D01*
X019557Y017609D01*
X019603Y017653D01*
X019652Y017694D01*
X019703Y017732D01*
X019756Y017766D01*
X019812Y017798D01*
X019869Y017825D01*
X019928Y017850D01*
X019988Y017870D01*
X020049Y017888D01*
X020111Y017901D01*
X020174Y017910D01*
X020237Y017916D01*
X020301Y017918D01*
X020365Y017916D01*
X020428Y017910D01*
X020491Y017901D01*
X020553Y017887D01*
X020614Y017870D01*
X020674Y017849D01*
X020733Y017825D01*
X020790Y017797D01*
X020846Y017765D01*
X020899Y017730D01*
X020950Y017693D01*
X020400Y017755D02*
X020400Y017913D01*
X010950Y017692D02*
X010950Y016043D01*
X010400Y015980D02*
X010400Y015822D01*
X010440Y015593D02*
X010365Y015518D01*
X010440Y015593D02*
X010590Y015593D01*
X010665Y015518D01*
X010665Y015443D01*
X010365Y015143D01*
X010665Y015143D01*
X010204Y015143D02*
X010054Y015293D01*
X009979Y015143D02*
X009904Y015218D01*
X009904Y015518D01*
X009979Y015593D01*
X010129Y015593D01*
X010204Y015518D01*
X010204Y015218D01*
X010129Y015143D01*
X009979Y015143D01*
X010400Y016755D02*
X010400Y016980D01*
X010950Y016043D02*
X010902Y016008D01*
X010852Y015975D01*
X010800Y015944D01*
X010746Y015917D01*
X010691Y015893D01*
X010634Y015873D01*
X010577Y015855D01*
X010519Y015841D01*
X010460Y015830D01*
X010400Y015823D01*
X010338Y015819D01*
X010275Y015818D01*
X010213Y015822D01*
X010151Y015829D01*
X010090Y015839D01*
X010029Y015854D01*
X009969Y015872D01*
X009910Y015893D01*
X009853Y015918D01*
X009798Y015946D01*
X009744Y015977D01*
X009692Y016012D01*
X009642Y016050D01*
X009595Y016090D01*
X009550Y016134D01*
X009507Y016179D01*
X009468Y016228D01*
X009431Y016278D01*
X009398Y016331D01*
X009367Y016385D01*
X009340Y016442D01*
X009317Y016499D01*
X009297Y016558D01*
X009297Y017178D02*
X009317Y017238D01*
X009341Y017297D01*
X009369Y017354D01*
X009400Y017409D01*
X009435Y017463D01*
X009472Y017514D01*
X009513Y017563D01*
X009557Y017609D01*
X009603Y017653D01*
X009652Y017694D01*
X009703Y017732D01*
X009756Y017766D01*
X009812Y017798D01*
X009869Y017825D01*
X009928Y017850D01*
X009988Y017870D01*
X010049Y017888D01*
X010111Y017901D01*
X010174Y017910D01*
X010237Y017916D01*
X010301Y017918D01*
X010365Y017916D01*
X010428Y017910D01*
X010491Y017901D01*
X010553Y017887D01*
X010614Y017870D01*
X010674Y017849D01*
X010733Y017825D01*
X010790Y017797D01*
X010846Y017765D01*
X010899Y017730D01*
X010950Y017693D01*
X010400Y017755D02*
X010400Y017913D01*
X021550Y006868D02*
X024050Y006868D01*
X026619Y004062D02*
X028981Y004062D01*
X034119Y004062D02*
X036481Y004062D01*
X023325Y003988D02*
X022275Y003988D01*
X018981Y004062D02*
X016619Y004062D01*
D18*
X014875Y008868D03*
X012725Y008868D03*
X007375Y008868D03*
X005225Y008868D03*
X012225Y012868D03*
X014375Y012868D03*
X016225Y012868D03*
X018375Y012868D03*
X018375Y014368D03*
X016225Y014368D03*
X014375Y014368D03*
X012225Y014368D03*
X012225Y015868D03*
X014375Y015868D03*
X016225Y015868D03*
X018375Y015868D03*
X018375Y017368D03*
X016225Y017368D03*
X014375Y017368D03*
X012225Y017368D03*
D19*
X013070Y017264D02*
X013245Y017264D01*
X013304Y017323D01*
X013304Y017439D01*
X013245Y017498D01*
X013070Y017498D01*
X013070Y017148D01*
X013187Y017264D02*
X013304Y017148D01*
X013429Y017206D02*
X013429Y017264D01*
X013487Y017323D01*
X013604Y017323D01*
X013663Y017264D01*
X013663Y017206D01*
X013604Y017148D01*
X013487Y017148D01*
X013429Y017206D01*
X013487Y017323D02*
X013429Y017381D01*
X013429Y017439D01*
X013487Y017498D01*
X013604Y017498D01*
X013663Y017439D01*
X013663Y017381D01*
X013604Y017323D01*
X013663Y015998D02*
X013663Y015939D01*
X013429Y015706D01*
X013429Y015648D01*
X013304Y015648D02*
X013187Y015764D01*
X013245Y015764D02*
X013070Y015764D01*
X013070Y015648D02*
X013070Y015998D01*
X013245Y015998D01*
X013304Y015939D01*
X013304Y015823D01*
X013245Y015764D01*
X013429Y015998D02*
X013663Y015998D01*
X013663Y014498D02*
X013546Y014439D01*
X013429Y014323D01*
X013604Y014323D01*
X013663Y014264D01*
X013663Y014206D01*
X013604Y014148D01*
X013487Y014148D01*
X013429Y014206D01*
X013429Y014323D01*
X013304Y014323D02*
X013304Y014439D01*
X013245Y014498D01*
X013070Y014498D01*
X013070Y014148D01*
X013070Y014264D02*
X013245Y014264D01*
X013304Y014323D01*
X013187Y014264D02*
X013304Y014148D01*
X013245Y012998D02*
X013304Y012939D01*
X013304Y012823D01*
X013245Y012764D01*
X013070Y012764D01*
X013070Y012648D02*
X013070Y012998D01*
X013245Y012998D01*
X013429Y012998D02*
X013429Y012823D01*
X013546Y012881D01*
X013604Y012881D01*
X013663Y012823D01*
X013663Y012706D01*
X013604Y012648D01*
X013487Y012648D01*
X013429Y012706D01*
X013304Y012648D02*
X013187Y012764D01*
X013429Y012998D02*
X013663Y012998D01*
X017070Y012998D02*
X017070Y012648D01*
X017070Y012764D02*
X017245Y012764D01*
X017304Y012823D01*
X017304Y012939D01*
X017245Y012998D01*
X017070Y012998D01*
X017187Y012764D02*
X017304Y012648D01*
X017429Y012648D02*
X017663Y012648D01*
X017546Y012648D02*
X017546Y012998D01*
X017429Y012881D01*
X017429Y014148D02*
X017663Y014381D01*
X017663Y014439D01*
X017604Y014498D01*
X017487Y014498D01*
X017429Y014439D01*
X017304Y014439D02*
X017304Y014323D01*
X017245Y014264D01*
X017070Y014264D01*
X017070Y014148D02*
X017070Y014498D01*
X017245Y014498D01*
X017304Y014439D01*
X017187Y014264D02*
X017304Y014148D01*
X017429Y014148D02*
X017663Y014148D01*
X017604Y015648D02*
X017487Y015648D01*
X017429Y015706D01*
X017304Y015648D02*
X017187Y015764D01*
X017245Y015764D02*
X017070Y015764D01*
X017070Y015648D02*
X017070Y015998D01*
X017245Y015998D01*
X017304Y015939D01*
X017304Y015823D01*
X017245Y015764D01*
X017429Y015939D02*
X017487Y015998D01*
X017604Y015998D01*
X017663Y015939D01*
X017663Y015881D01*
X017604Y015823D01*
X017663Y015764D01*
X017663Y015706D01*
X017604Y015648D01*
X017604Y015823D02*
X017546Y015823D01*
X017604Y017148D02*
X017604Y017498D01*
X017429Y017323D01*
X017663Y017323D01*
X017304Y017323D02*
X017304Y017439D01*
X017245Y017498D01*
X017070Y017498D01*
X017070Y017148D01*
X017070Y017264D02*
X017245Y017264D01*
X017304Y017323D01*
X017187Y017264D02*
X017304Y017148D01*
X008217Y015371D02*
X008140Y015448D01*
X007986Y015448D01*
X007910Y015371D01*
X007756Y015371D02*
X007679Y015448D01*
X007526Y015448D01*
X007449Y015371D01*
X007449Y015064D01*
X007526Y014988D01*
X007679Y014988D01*
X007756Y015064D01*
X007910Y014988D02*
X008217Y015294D01*
X008217Y015371D01*
X008217Y014988D02*
X007910Y014988D01*
X002937Y014921D02*
X002861Y014998D01*
X002707Y014998D01*
X002630Y014921D01*
X002477Y014921D02*
X002400Y014998D01*
X002170Y014998D01*
X002170Y014538D01*
X002400Y014538D01*
X002477Y014614D01*
X002477Y014921D01*
X002630Y014538D02*
X002937Y014844D01*
X002937Y014921D01*
X002937Y014538D02*
X002630Y014538D01*
X002784Y013498D02*
X002784Y013038D01*
X002937Y013038D02*
X002630Y013038D01*
X002477Y013114D02*
X002477Y013421D01*
X002400Y013498D01*
X002170Y013498D01*
X002170Y013038D01*
X002400Y013038D01*
X002477Y013114D01*
X002630Y013344D02*
X002784Y013498D01*
X005820Y008998D02*
X005995Y008998D01*
X006054Y008939D01*
X006054Y008823D01*
X005995Y008764D01*
X005820Y008764D01*
X005820Y008648D02*
X005820Y008998D01*
X005937Y008764D02*
X006054Y008648D01*
X006179Y008648D02*
X006413Y008648D01*
X006296Y008648D02*
X006296Y008998D01*
X006179Y008881D01*
X006538Y008939D02*
X006597Y008998D01*
X006713Y008998D01*
X006772Y008939D01*
X006538Y008706D01*
X006597Y008648D01*
X006713Y008648D01*
X006772Y008706D01*
X006772Y008939D01*
X006538Y008939D02*
X006538Y008706D01*
X013320Y008764D02*
X013495Y008764D01*
X013554Y008823D01*
X013554Y008939D01*
X013495Y008998D01*
X013320Y008998D01*
X013320Y008648D01*
X013437Y008764D02*
X013554Y008648D01*
X013679Y008706D02*
X013737Y008648D01*
X013854Y008648D01*
X013913Y008706D01*
X013913Y008939D01*
X013854Y008998D01*
X013737Y008998D01*
X013679Y008939D01*
X013679Y008881D01*
X013737Y008823D01*
X013913Y008823D01*
X016751Y010663D02*
X016751Y011123D01*
X016981Y011123D01*
X017058Y011046D01*
X017058Y010893D01*
X016981Y010816D01*
X016751Y010816D01*
X016905Y010816D02*
X017058Y010663D01*
X017211Y010663D02*
X017211Y010970D01*
X017365Y011123D01*
X017518Y010970D01*
X017518Y010663D01*
X017518Y010893D02*
X017211Y010893D01*
X017672Y011123D02*
X017979Y011123D01*
X018132Y011123D02*
X018132Y010663D01*
X018439Y010663D01*
X018593Y010663D02*
X018823Y010663D01*
X018900Y010739D01*
X018900Y010816D01*
X018823Y010893D01*
X018593Y010893D01*
X018823Y010893D02*
X018900Y010970D01*
X018900Y011046D01*
X018823Y011123D01*
X018593Y011123D01*
X018593Y010663D01*
X018286Y010893D02*
X018132Y010893D01*
X018132Y011123D02*
X018439Y011123D01*
X017825Y011123D02*
X017825Y010663D01*
X026751Y010663D02*
X026981Y010663D01*
X027058Y010739D01*
X027058Y011046D01*
X026981Y011123D01*
X026751Y011123D01*
X026751Y010663D01*
X027211Y010739D02*
X027288Y010663D01*
X027442Y010663D01*
X027518Y010739D01*
X027518Y011123D01*
X027672Y011123D02*
X027979Y011123D01*
X028132Y011123D02*
X028132Y011046D01*
X028286Y010893D01*
X028286Y010663D01*
X028286Y010893D02*
X028439Y011046D01*
X028439Y011123D01*
X028593Y010970D02*
X028746Y011123D01*
X028900Y010970D01*
X028900Y010663D01*
X028900Y010893D02*
X028593Y010893D01*
X028593Y010970D02*
X028593Y010663D01*
X027825Y010663D02*
X027825Y011123D01*
X027211Y011123D02*
X027211Y010739D01*
X034251Y010663D02*
X034251Y011123D01*
X034481Y011123D01*
X034558Y011046D01*
X034558Y010893D01*
X034481Y010816D01*
X034251Y010816D01*
X034405Y010816D02*
X034558Y010663D01*
X034711Y010663D02*
X034711Y010970D01*
X034865Y011123D01*
X035018Y010970D01*
X035018Y010663D01*
X035018Y010893D02*
X034711Y010893D01*
X035172Y011123D02*
X035479Y011123D01*
X035632Y011123D02*
X035632Y010663D01*
X035939Y010663D01*
X036093Y010663D02*
X036093Y010970D01*
X036246Y011123D01*
X036400Y010970D01*
X036400Y010663D01*
X036400Y010893D02*
X036093Y010893D01*
X035939Y011123D02*
X035632Y011123D01*
X035632Y010893D02*
X035786Y010893D01*
X035325Y010663D02*
X035325Y011123D01*
X037170Y013138D02*
X037170Y013313D01*
X037228Y013371D01*
X037345Y013371D01*
X037403Y013313D01*
X037403Y013138D01*
X037403Y013254D02*
X037520Y013371D01*
X037520Y013497D02*
X037520Y013730D01*
X037520Y013613D02*
X037170Y013613D01*
X037286Y013497D01*
X037170Y013138D02*
X037520Y013138D01*
X037520Y013856D02*
X037520Y014089D01*
X037520Y013972D02*
X037170Y013972D01*
X037286Y013856D01*
D20*
X012180Y007878D02*
X012180Y007698D01*
X012180Y007058D02*
X012180Y006858D01*
X004680Y006858D02*
X004680Y007058D01*
X004680Y007698D02*
X004680Y007878D01*
X004050Y012868D02*
X003550Y012868D01*
X003550Y013868D01*
X001550Y013868D01*
X001550Y013368D01*
X001300Y013368D01*
X001550Y013368D02*
X001550Y012868D01*
X003550Y012868D01*
X004050Y012868D02*
X004050Y013368D01*
X004300Y013368D01*
X004050Y013368D02*
X004050Y013868D01*
X003550Y013868D01*
X003550Y014368D02*
X003550Y015368D01*
X001550Y015368D01*
X001550Y014868D01*
X001300Y014868D01*
X001550Y014868D02*
X001550Y014368D01*
X003550Y014368D01*
X004050Y014368D01*
X004050Y014868D01*
X004300Y014868D01*
X004050Y014868D02*
X004050Y015368D01*
X003550Y015368D01*
D21*
X037300Y014693D03*
X037300Y012543D03*
D22*
X013531Y007791D02*
X013453Y007746D01*
X013453Y007747D02*
X013425Y007791D01*
X013394Y007833D01*
X013361Y007873D01*
X013325Y007911D01*
X013286Y007946D01*
X013245Y007978D01*
X013201Y008008D01*
X013156Y008034D01*
X013109Y008057D01*
X013061Y008077D01*
X013011Y008093D01*
X012961Y008106D01*
X012909Y008115D01*
X012857Y008121D01*
X012805Y008123D01*
X012804Y008212D01*
X012805Y008213D01*
X012860Y008211D01*
X012914Y008205D01*
X012969Y008196D01*
X013022Y008183D01*
X013074Y008167D01*
X013126Y008148D01*
X013176Y008125D01*
X013224Y008099D01*
X013271Y008070D01*
X013315Y008038D01*
X013358Y008003D01*
X013398Y007965D01*
X013435Y007925D01*
X013470Y007883D01*
X013502Y007838D01*
X013531Y007792D01*
X013523Y007787D01*
X013495Y007833D01*
X013463Y007877D01*
X013428Y007919D01*
X013391Y007959D01*
X013352Y007996D01*
X013310Y008031D01*
X013266Y008062D01*
X013220Y008091D01*
X013172Y008117D01*
X013122Y008139D01*
X013072Y008159D01*
X013020Y008175D01*
X012967Y008187D01*
X012913Y008196D01*
X012859Y008202D01*
X012805Y008204D01*
X012805Y008195D01*
X012859Y008193D01*
X012912Y008187D01*
X012965Y008178D01*
X013017Y008166D01*
X013069Y008150D01*
X013119Y008131D01*
X013168Y008109D01*
X013215Y008083D01*
X013261Y008055D01*
X013304Y008023D01*
X013346Y007989D01*
X013385Y007953D01*
X013422Y007913D01*
X013456Y007872D01*
X013487Y007828D01*
X013516Y007783D01*
X013508Y007778D01*
X013478Y007826D01*
X013444Y007872D01*
X013408Y007915D01*
X013368Y007956D01*
X013326Y007994D01*
X013282Y008029D01*
X013235Y008061D01*
X013186Y008089D01*
X013135Y008114D01*
X013082Y008136D01*
X013029Y008153D01*
X012974Y008167D01*
X012918Y008177D01*
X012862Y008184D01*
X012805Y008186D01*
X012805Y008177D01*
X012861Y008175D01*
X012917Y008169D01*
X012972Y008159D01*
X013026Y008145D01*
X013079Y008127D01*
X013131Y008106D01*
X013182Y008081D01*
X013230Y008053D01*
X013276Y008022D01*
X013321Y007987D01*
X013362Y007950D01*
X013401Y007909D01*
X013437Y007867D01*
X013470Y007821D01*
X013500Y007774D01*
X013492Y007769D01*
X013463Y007816D01*
X013430Y007861D01*
X013394Y007903D01*
X013356Y007943D01*
X013315Y007980D01*
X013271Y008015D01*
X013225Y008046D01*
X013177Y008073D01*
X013128Y008098D01*
X013076Y008119D01*
X013024Y008136D01*
X012970Y008150D01*
X012915Y008160D01*
X012860Y008166D01*
X012805Y008168D01*
X012805Y008159D01*
X012860Y008157D01*
X012914Y008151D01*
X012968Y008141D01*
X013021Y008127D01*
X013073Y008110D01*
X013124Y008090D01*
X013173Y008065D01*
X013220Y008038D01*
X013266Y008007D01*
X013309Y007974D01*
X013350Y007937D01*
X013388Y007897D01*
X013423Y007855D01*
X013455Y007811D01*
X013484Y007765D01*
X013476Y007760D01*
X013448Y007806D01*
X013416Y007850D01*
X013381Y007891D01*
X013343Y007930D01*
X013303Y007967D01*
X013261Y008000D01*
X013216Y008030D01*
X013169Y008058D01*
X013120Y008081D01*
X013070Y008102D01*
X013019Y008119D01*
X012966Y008132D01*
X012913Y008142D01*
X012859Y008148D01*
X012805Y008150D01*
X012805Y008141D01*
X012858Y008139D01*
X012912Y008133D01*
X012964Y008123D01*
X013016Y008110D01*
X013067Y008093D01*
X013117Y008073D01*
X013165Y008050D01*
X013211Y008023D01*
X013255Y007993D01*
X013297Y007960D01*
X013337Y007924D01*
X013374Y007885D01*
X013409Y007844D01*
X013440Y007801D01*
X013469Y007756D01*
X013461Y007751D01*
X013433Y007796D01*
X013402Y007839D01*
X013368Y007879D01*
X013331Y007917D01*
X013292Y007953D01*
X013250Y007985D01*
X013206Y008015D01*
X013160Y008042D01*
X013113Y008065D01*
X013064Y008085D01*
X013014Y008102D01*
X012962Y008115D01*
X012910Y008124D01*
X012858Y008130D01*
X012805Y008132D01*
X012805Y006524D02*
X012805Y006614D01*
X012805Y006613D02*
X012859Y006615D01*
X012912Y006621D01*
X012965Y006631D01*
X013017Y006645D01*
X013068Y006662D01*
X013117Y006683D01*
X013165Y006707D01*
X013211Y006735D01*
X013255Y006766D01*
X013297Y006800D01*
X013336Y006836D01*
X013373Y006876D01*
X013406Y006918D01*
X013437Y006962D01*
X013464Y007008D01*
X013543Y006966D01*
X013515Y006917D01*
X013483Y006871D01*
X013448Y006826D01*
X013411Y006784D01*
X013370Y006744D01*
X013327Y006708D01*
X013282Y006674D01*
X013235Y006643D01*
X013185Y006616D01*
X013134Y006592D01*
X013082Y006571D01*
X013028Y006554D01*
X012973Y006541D01*
X012918Y006531D01*
X012861Y006525D01*
X012805Y006523D01*
X012805Y006532D01*
X012861Y006534D01*
X012916Y006540D01*
X012971Y006550D01*
X013026Y006563D01*
X013079Y006580D01*
X013131Y006600D01*
X013181Y006624D01*
X013230Y006651D01*
X013277Y006681D01*
X013322Y006715D01*
X013364Y006751D01*
X013404Y006790D01*
X013441Y006832D01*
X013476Y006876D01*
X013507Y006922D01*
X013535Y006970D01*
X013527Y006974D01*
X013499Y006927D01*
X013468Y006881D01*
X013434Y006838D01*
X013398Y006796D01*
X013358Y006758D01*
X013316Y006722D01*
X013272Y006689D01*
X013226Y006659D01*
X013177Y006632D01*
X013127Y006609D01*
X013076Y006588D01*
X013023Y006572D01*
X012970Y006559D01*
X012915Y006549D01*
X012860Y006543D01*
X012805Y006541D01*
X012805Y006550D01*
X012860Y006552D01*
X012914Y006558D01*
X012968Y006567D01*
X013021Y006580D01*
X013073Y006597D01*
X013124Y006617D01*
X013173Y006640D01*
X013221Y006667D01*
X013267Y006696D01*
X013311Y006729D01*
X013352Y006764D01*
X013391Y006803D01*
X013428Y006843D01*
X013461Y006886D01*
X013492Y006932D01*
X013519Y006979D01*
X013511Y006983D01*
X013484Y006936D01*
X013454Y006892D01*
X013421Y006849D01*
X013385Y006809D01*
X013346Y006771D01*
X013305Y006736D01*
X013262Y006704D01*
X013216Y006674D01*
X013169Y006648D01*
X013120Y006625D01*
X013070Y006605D01*
X013018Y006589D01*
X012966Y006576D01*
X012913Y006567D01*
X012859Y006561D01*
X012805Y006559D01*
X012805Y006568D01*
X012858Y006570D01*
X012911Y006576D01*
X012964Y006585D01*
X013016Y006598D01*
X013067Y006614D01*
X013117Y006633D01*
X013165Y006656D01*
X013212Y006682D01*
X013256Y006711D01*
X013299Y006743D01*
X013340Y006778D01*
X013378Y006815D01*
X013414Y006855D01*
X013447Y006897D01*
X013477Y006941D01*
X013504Y006987D01*
X013496Y006991D01*
X013469Y006946D01*
X013439Y006902D01*
X013407Y006861D01*
X013372Y006821D01*
X013334Y006784D01*
X013294Y006750D01*
X013251Y006718D01*
X013207Y006690D01*
X013161Y006664D01*
X013113Y006642D01*
X013064Y006622D01*
X013014Y006606D01*
X012962Y006594D01*
X012910Y006585D01*
X012858Y006579D01*
X012805Y006577D01*
X012805Y006586D01*
X012861Y006588D01*
X012916Y006595D01*
X012971Y006605D01*
X013025Y006619D01*
X013077Y006637D01*
X013129Y006658D01*
X013178Y006684D01*
X013226Y006712D01*
X013272Y006744D01*
X013315Y006779D01*
X013355Y006817D01*
X013393Y006858D01*
X013428Y006902D01*
X013459Y006948D01*
X013488Y006996D01*
X013480Y007000D01*
X013452Y006952D01*
X013421Y006907D01*
X013386Y006864D01*
X013349Y006824D01*
X013309Y006786D01*
X013266Y006751D01*
X013221Y006720D01*
X013174Y006691D01*
X013125Y006667D01*
X013074Y006645D01*
X013022Y006628D01*
X012969Y006614D01*
X012915Y006604D01*
X012860Y006597D01*
X012805Y006595D01*
X012805Y006604D01*
X012859Y006606D01*
X012913Y006612D01*
X012967Y006622D01*
X013019Y006636D01*
X013071Y006654D01*
X013121Y006675D01*
X013170Y006699D01*
X013216Y006727D01*
X013261Y006759D01*
X013303Y006793D01*
X013342Y006830D01*
X013379Y006870D01*
X013413Y006912D01*
X013444Y006957D01*
X013472Y007004D01*
X012155Y006824D02*
X012224Y006881D01*
X012223Y006881D02*
X012260Y006841D01*
X012299Y006803D01*
X012341Y006769D01*
X012385Y006737D01*
X012431Y006709D01*
X012480Y006684D01*
X012530Y006663D01*
X012581Y006645D01*
X012634Y006632D01*
X012687Y006622D01*
X012741Y006615D01*
X012795Y006613D01*
X012796Y006524D01*
X012795Y006523D01*
X012739Y006525D01*
X012683Y006531D01*
X012628Y006541D01*
X012573Y006554D01*
X012520Y006571D01*
X012467Y006591D01*
X012416Y006615D01*
X012367Y006642D01*
X012320Y006673D01*
X012275Y006706D01*
X012232Y006742D01*
X012192Y006781D01*
X012154Y006823D01*
X012161Y006829D01*
X012198Y006788D01*
X012238Y006749D01*
X012280Y006713D01*
X012325Y006680D01*
X012372Y006650D01*
X012420Y006623D01*
X012471Y006600D01*
X012523Y006579D01*
X012576Y006563D01*
X012630Y006550D01*
X012684Y006540D01*
X012739Y006534D01*
X012795Y006532D01*
X012795Y006541D01*
X012740Y006543D01*
X012685Y006549D01*
X012631Y006558D01*
X012578Y006571D01*
X012526Y006588D01*
X012474Y006608D01*
X012425Y006631D01*
X012376Y006658D01*
X012330Y006687D01*
X012286Y006720D01*
X012244Y006756D01*
X012205Y006794D01*
X012168Y006835D01*
X012175Y006840D01*
X012211Y006800D01*
X012250Y006762D01*
X012292Y006727D01*
X012335Y006695D01*
X012381Y006665D01*
X012429Y006639D01*
X012478Y006616D01*
X012528Y006596D01*
X012580Y006580D01*
X012633Y006567D01*
X012687Y006558D01*
X012741Y006552D01*
X012795Y006550D01*
X012795Y006559D01*
X012741Y006561D01*
X012688Y006567D01*
X012635Y006576D01*
X012583Y006589D01*
X012531Y006605D01*
X012481Y006624D01*
X012433Y006647D01*
X012386Y006673D01*
X012340Y006702D01*
X012297Y006734D01*
X012256Y006769D01*
X012218Y006806D01*
X012182Y006846D01*
X012189Y006852D01*
X012224Y006813D01*
X012262Y006776D01*
X012303Y006741D01*
X012346Y006710D01*
X012390Y006681D01*
X012437Y006655D01*
X012485Y006633D01*
X012534Y006613D01*
X012585Y006597D01*
X012637Y006585D01*
X012689Y006576D01*
X012742Y006570D01*
X012795Y006568D01*
X012795Y006577D01*
X012743Y006579D01*
X012690Y006585D01*
X012639Y006594D01*
X012588Y006606D01*
X012537Y006622D01*
X012488Y006641D01*
X012441Y006663D01*
X012395Y006689D01*
X012351Y006717D01*
X012309Y006748D01*
X012268Y006782D01*
X012231Y006819D01*
X012196Y006858D01*
X012202Y006864D01*
X012237Y006825D01*
X012275Y006789D01*
X012314Y006755D01*
X012356Y006724D01*
X012400Y006696D01*
X012445Y006671D01*
X012492Y006649D01*
X012540Y006630D01*
X012590Y006615D01*
X012640Y006602D01*
X012692Y006594D01*
X012743Y006588D01*
X012795Y006586D01*
X012795Y006595D01*
X012744Y006597D01*
X012693Y006602D01*
X012642Y006611D01*
X012592Y006623D01*
X012543Y006639D01*
X012496Y006657D01*
X012449Y006679D01*
X012404Y006704D01*
X012361Y006732D01*
X012320Y006762D01*
X012281Y006795D01*
X012244Y006831D01*
X012209Y006869D01*
X012216Y006875D01*
X012253Y006834D01*
X012293Y006796D01*
X012335Y006762D01*
X012380Y006730D01*
X012427Y006701D01*
X012476Y006676D01*
X012527Y006655D01*
X012578Y006637D01*
X012632Y006623D01*
X012686Y006613D01*
X012740Y006606D01*
X012795Y006604D01*
X012796Y008212D02*
X012796Y008122D01*
X012795Y008123D02*
X012741Y008121D01*
X012688Y008115D01*
X012635Y008105D01*
X012583Y008091D01*
X012532Y008074D01*
X012482Y008053D01*
X012434Y008029D01*
X012388Y008001D01*
X012344Y007970D01*
X012303Y007936D01*
X012263Y007899D01*
X012227Y007860D01*
X012159Y007917D01*
X012158Y007918D01*
X012196Y007959D01*
X012236Y007997D01*
X012279Y008033D01*
X012324Y008066D01*
X012371Y008096D01*
X012419Y008122D01*
X012470Y008146D01*
X012522Y008166D01*
X012575Y008182D01*
X012629Y008196D01*
X012684Y008205D01*
X012739Y008211D01*
X012795Y008213D01*
X012795Y008204D01*
X012740Y008202D01*
X012685Y008196D01*
X012631Y008187D01*
X012577Y008174D01*
X012525Y008157D01*
X012473Y008138D01*
X012423Y008114D01*
X012375Y008088D01*
X012329Y008058D01*
X012284Y008026D01*
X012242Y007991D01*
X012202Y007952D01*
X012165Y007912D01*
X012172Y007906D01*
X012209Y007946D01*
X012248Y007984D01*
X012290Y008019D01*
X012334Y008051D01*
X012380Y008080D01*
X012428Y008106D01*
X012477Y008129D01*
X012528Y008149D01*
X012580Y008165D01*
X012633Y008178D01*
X012686Y008187D01*
X012741Y008193D01*
X012795Y008195D01*
X012795Y008186D01*
X012741Y008184D01*
X012688Y008178D01*
X012635Y008169D01*
X012582Y008156D01*
X012531Y008140D01*
X012480Y008121D01*
X012432Y008098D01*
X012384Y008073D01*
X012339Y008044D01*
X012295Y008012D01*
X012254Y007977D01*
X012215Y007940D01*
X012179Y007900D01*
X012186Y007894D01*
X012222Y007934D01*
X012260Y007971D01*
X012301Y008005D01*
X012344Y008036D01*
X012389Y008065D01*
X012436Y008090D01*
X012484Y008113D01*
X012534Y008132D01*
X012585Y008148D01*
X012636Y008160D01*
X012689Y008169D01*
X012742Y008175D01*
X012795Y008177D01*
X012795Y008168D01*
X012742Y008166D01*
X012690Y008160D01*
X012638Y008151D01*
X012587Y008139D01*
X012537Y008123D01*
X012487Y008104D01*
X012440Y008082D01*
X012393Y008057D01*
X012349Y008029D01*
X012307Y007998D01*
X012266Y007964D01*
X012228Y007927D01*
X012193Y007889D01*
X012199Y007883D01*
X012235Y007921D01*
X012272Y007957D01*
X012312Y007991D01*
X012354Y008021D01*
X012398Y008049D01*
X012444Y008074D01*
X012491Y008096D01*
X012540Y008115D01*
X012589Y008130D01*
X012640Y008143D01*
X012691Y008151D01*
X012743Y008157D01*
X012795Y008159D01*
X012795Y008150D01*
X012739Y008148D01*
X012684Y008141D01*
X012629Y008131D01*
X012575Y008117D01*
X012522Y008099D01*
X012471Y008077D01*
X012421Y008052D01*
X012373Y008023D01*
X012328Y007991D01*
X012285Y007956D01*
X012244Y007918D01*
X012206Y007877D01*
X012213Y007871D01*
X012250Y007912D01*
X012291Y007949D01*
X012333Y007984D01*
X012378Y008016D01*
X012426Y008044D01*
X012475Y008069D01*
X012526Y008091D01*
X012578Y008108D01*
X012631Y008122D01*
X012685Y008132D01*
X012740Y008139D01*
X012795Y008141D01*
X012795Y008132D01*
X012741Y008130D01*
X012687Y008124D01*
X012633Y008114D01*
X012580Y008100D01*
X012529Y008082D01*
X012479Y008061D01*
X012430Y008036D01*
X012383Y008008D01*
X012339Y007977D01*
X012297Y007943D01*
X012257Y007905D01*
X012220Y007865D01*
X006031Y007791D02*
X005953Y007746D01*
X005953Y007747D02*
X005925Y007791D01*
X005894Y007833D01*
X005861Y007873D01*
X005825Y007911D01*
X005786Y007946D01*
X005745Y007978D01*
X005701Y008008D01*
X005656Y008034D01*
X005609Y008057D01*
X005561Y008077D01*
X005511Y008093D01*
X005461Y008106D01*
X005409Y008115D01*
X005357Y008121D01*
X005305Y008123D01*
X005304Y008212D01*
X005305Y008213D01*
X005360Y008211D01*
X005414Y008205D01*
X005469Y008196D01*
X005522Y008183D01*
X005574Y008167D01*
X005626Y008148D01*
X005676Y008125D01*
X005724Y008099D01*
X005771Y008070D01*
X005815Y008038D01*
X005858Y008003D01*
X005898Y007965D01*
X005935Y007925D01*
X005970Y007883D01*
X006002Y007838D01*
X006031Y007792D01*
X006023Y007787D01*
X005995Y007833D01*
X005963Y007877D01*
X005928Y007919D01*
X005891Y007959D01*
X005852Y007996D01*
X005810Y008031D01*
X005766Y008062D01*
X005720Y008091D01*
X005672Y008117D01*
X005622Y008139D01*
X005572Y008159D01*
X005520Y008175D01*
X005467Y008187D01*
X005413Y008196D01*
X005359Y008202D01*
X005305Y008204D01*
X005305Y008195D01*
X005359Y008193D01*
X005412Y008187D01*
X005465Y008178D01*
X005517Y008166D01*
X005569Y008150D01*
X005619Y008131D01*
X005668Y008109D01*
X005715Y008083D01*
X005761Y008055D01*
X005804Y008023D01*
X005846Y007989D01*
X005885Y007953D01*
X005922Y007913D01*
X005956Y007872D01*
X005987Y007828D01*
X006016Y007783D01*
X006008Y007778D01*
X005978Y007826D01*
X005944Y007872D01*
X005908Y007915D01*
X005868Y007956D01*
X005826Y007994D01*
X005782Y008029D01*
X005735Y008061D01*
X005686Y008089D01*
X005635Y008114D01*
X005582Y008136D01*
X005529Y008153D01*
X005474Y008167D01*
X005418Y008177D01*
X005362Y008184D01*
X005305Y008186D01*
X005305Y008177D01*
X005361Y008175D01*
X005417Y008169D01*
X005472Y008159D01*
X005526Y008145D01*
X005579Y008127D01*
X005631Y008106D01*
X005682Y008081D01*
X005730Y008053D01*
X005776Y008022D01*
X005821Y007987D01*
X005862Y007950D01*
X005901Y007909D01*
X005937Y007867D01*
X005970Y007821D01*
X006000Y007774D01*
X005992Y007769D01*
X005963Y007816D01*
X005930Y007861D01*
X005894Y007903D01*
X005856Y007943D01*
X005815Y007980D01*
X005771Y008015D01*
X005725Y008046D01*
X005677Y008073D01*
X005628Y008098D01*
X005576Y008119D01*
X005524Y008136D01*
X005470Y008150D01*
X005415Y008160D01*
X005360Y008166D01*
X005305Y008168D01*
X005305Y008159D01*
X005360Y008157D01*
X005414Y008151D01*
X005468Y008141D01*
X005521Y008127D01*
X005573Y008110D01*
X005624Y008090D01*
X005673Y008065D01*
X005720Y008038D01*
X005766Y008007D01*
X005809Y007974D01*
X005850Y007937D01*
X005888Y007897D01*
X005923Y007855D01*
X005955Y007811D01*
X005984Y007765D01*
X005976Y007760D01*
X005948Y007806D01*
X005916Y007850D01*
X005881Y007891D01*
X005843Y007930D01*
X005803Y007967D01*
X005761Y008000D01*
X005716Y008030D01*
X005669Y008058D01*
X005620Y008081D01*
X005570Y008102D01*
X005519Y008119D01*
X005466Y008132D01*
X005413Y008142D01*
X005359Y008148D01*
X005305Y008150D01*
X005305Y008141D01*
X005358Y008139D01*
X005412Y008133D01*
X005464Y008123D01*
X005516Y008110D01*
X005567Y008093D01*
X005617Y008073D01*
X005665Y008050D01*
X005711Y008023D01*
X005755Y007993D01*
X005797Y007960D01*
X005837Y007924D01*
X005874Y007885D01*
X005909Y007844D01*
X005940Y007801D01*
X005969Y007756D01*
X005961Y007751D01*
X005933Y007796D01*
X005902Y007839D01*
X005868Y007879D01*
X005831Y007917D01*
X005792Y007953D01*
X005750Y007985D01*
X005706Y008015D01*
X005660Y008042D01*
X005613Y008065D01*
X005564Y008085D01*
X005514Y008102D01*
X005462Y008115D01*
X005410Y008124D01*
X005358Y008130D01*
X005305Y008132D01*
X005305Y006524D02*
X005305Y006614D01*
X005305Y006613D02*
X005359Y006615D01*
X005412Y006621D01*
X005465Y006631D01*
X005517Y006645D01*
X005568Y006662D01*
X005617Y006683D01*
X005665Y006707D01*
X005711Y006735D01*
X005755Y006766D01*
X005797Y006800D01*
X005836Y006836D01*
X005873Y006876D01*
X005906Y006918D01*
X005937Y006962D01*
X005964Y007008D01*
X006043Y006966D01*
X006015Y006917D01*
X005983Y006871D01*
X005948Y006826D01*
X005911Y006784D01*
X005870Y006744D01*
X005827Y006708D01*
X005782Y006674D01*
X005735Y006643D01*
X005685Y006616D01*
X005634Y006592D01*
X005582Y006571D01*
X005528Y006554D01*
X005473Y006541D01*
X005418Y006531D01*
X005361Y006525D01*
X005305Y006523D01*
X005305Y006532D01*
X005361Y006534D01*
X005416Y006540D01*
X005471Y006550D01*
X005526Y006563D01*
X005579Y006580D01*
X005631Y006600D01*
X005681Y006624D01*
X005730Y006651D01*
X005777Y006681D01*
X005822Y006715D01*
X005864Y006751D01*
X005904Y006790D01*
X005941Y006832D01*
X005976Y006876D01*
X006007Y006922D01*
X006035Y006970D01*
X006027Y006974D01*
X005999Y006927D01*
X005968Y006881D01*
X005934Y006838D01*
X005898Y006796D01*
X005858Y006758D01*
X005816Y006722D01*
X005772Y006689D01*
X005726Y006659D01*
X005677Y006632D01*
X005627Y006609D01*
X005576Y006588D01*
X005523Y006572D01*
X005470Y006559D01*
X005415Y006549D01*
X005360Y006543D01*
X005305Y006541D01*
X005305Y006550D01*
X005360Y006552D01*
X005414Y006558D01*
X005468Y006567D01*
X005521Y006580D01*
X005573Y006597D01*
X005624Y006617D01*
X005673Y006640D01*
X005721Y006667D01*
X005767Y006696D01*
X005811Y006729D01*
X005852Y006764D01*
X005891Y006803D01*
X005928Y006843D01*
X005961Y006886D01*
X005992Y006932D01*
X006019Y006979D01*
X006011Y006983D01*
X005984Y006936D01*
X005954Y006892D01*
X005921Y006849D01*
X005885Y006809D01*
X005846Y006771D01*
X005805Y006736D01*
X005762Y006704D01*
X005716Y006674D01*
X005669Y006648D01*
X005620Y006625D01*
X005570Y006605D01*
X005518Y006589D01*
X005466Y006576D01*
X005413Y006567D01*
X005359Y006561D01*
X005305Y006559D01*
X005305Y006568D01*
X005358Y006570D01*
X005411Y006576D01*
X005464Y006585D01*
X005516Y006598D01*
X005567Y006614D01*
X005617Y006633D01*
X005665Y006656D01*
X005712Y006682D01*
X005756Y006711D01*
X005799Y006743D01*
X005840Y006778D01*
X005878Y006815D01*
X005914Y006855D01*
X005947Y006897D01*
X005977Y006941D01*
X006004Y006987D01*
X005996Y006991D01*
X005969Y006946D01*
X005939Y006902D01*
X005907Y006861D01*
X005872Y006821D01*
X005834Y006784D01*
X005794Y006750D01*
X005751Y006718D01*
X005707Y006690D01*
X005661Y006664D01*
X005613Y006642D01*
X005564Y006622D01*
X005514Y006606D01*
X005462Y006594D01*
X005410Y006585D01*
X005358Y006579D01*
X005305Y006577D01*
X005305Y006586D01*
X005361Y006588D01*
X005416Y006595D01*
X005471Y006605D01*
X005525Y006619D01*
X005577Y006637D01*
X005629Y006658D01*
X005678Y006684D01*
X005726Y006712D01*
X005772Y006744D01*
X005815Y006779D01*
X005855Y006817D01*
X005893Y006858D01*
X005928Y006902D01*
X005959Y006948D01*
X005988Y006996D01*
X005980Y007000D01*
X005952Y006952D01*
X005921Y006907D01*
X005886Y006864D01*
X005849Y006824D01*
X005809Y006786D01*
X005766Y006751D01*
X005721Y006720D01*
X005674Y006691D01*
X005625Y006667D01*
X005574Y006645D01*
X005522Y006628D01*
X005469Y006614D01*
X005415Y006604D01*
X005360Y006597D01*
X005305Y006595D01*
X005305Y006604D01*
X005359Y006606D01*
X005413Y006612D01*
X005467Y006622D01*
X005519Y006636D01*
X005571Y006654D01*
X005621Y006675D01*
X005670Y006699D01*
X005716Y006727D01*
X005761Y006759D01*
X005803Y006793D01*
X005842Y006830D01*
X005879Y006870D01*
X005913Y006912D01*
X005944Y006957D01*
X005972Y007004D01*
X004655Y006824D02*
X004724Y006881D01*
X004723Y006881D02*
X004760Y006841D01*
X004799Y006803D01*
X004841Y006769D01*
X004885Y006737D01*
X004931Y006709D01*
X004980Y006684D01*
X005030Y006663D01*
X005081Y006645D01*
X005134Y006632D01*
X005187Y006622D01*
X005241Y006615D01*
X005295Y006613D01*
X005296Y006524D01*
X005295Y006523D01*
X005239Y006525D01*
X005183Y006531D01*
X005128Y006541D01*
X005073Y006554D01*
X005020Y006571D01*
X004967Y006591D01*
X004916Y006615D01*
X004867Y006642D01*
X004820Y006673D01*
X004775Y006706D01*
X004732Y006742D01*
X004692Y006781D01*
X004654Y006823D01*
X004661Y006829D01*
X004698Y006788D01*
X004738Y006749D01*
X004780Y006713D01*
X004825Y006680D01*
X004872Y006650D01*
X004920Y006623D01*
X004971Y006600D01*
X005023Y006579D01*
X005076Y006563D01*
X005130Y006550D01*
X005184Y006540D01*
X005239Y006534D01*
X005295Y006532D01*
X005295Y006541D01*
X005240Y006543D01*
X005185Y006549D01*
X005131Y006558D01*
X005078Y006571D01*
X005026Y006588D01*
X004974Y006608D01*
X004925Y006631D01*
X004876Y006658D01*
X004830Y006687D01*
X004786Y006720D01*
X004744Y006756D01*
X004705Y006794D01*
X004668Y006835D01*
X004675Y006840D01*
X004711Y006800D01*
X004750Y006762D01*
X004792Y006727D01*
X004835Y006695D01*
X004881Y006665D01*
X004929Y006639D01*
X004978Y006616D01*
X005028Y006596D01*
X005080Y006580D01*
X005133Y006567D01*
X005187Y006558D01*
X005241Y006552D01*
X005295Y006550D01*
X005295Y006559D01*
X005241Y006561D01*
X005188Y006567D01*
X005135Y006576D01*
X005083Y006589D01*
X005031Y006605D01*
X004981Y006624D01*
X004933Y006647D01*
X004886Y006673D01*
X004840Y006702D01*
X004797Y006734D01*
X004756Y006769D01*
X004718Y006806D01*
X004682Y006846D01*
X004689Y006852D01*
X004724Y006813D01*
X004762Y006776D01*
X004803Y006741D01*
X004846Y006710D01*
X004890Y006681D01*
X004937Y006655D01*
X004985Y006633D01*
X005034Y006613D01*
X005085Y006597D01*
X005137Y006585D01*
X005189Y006576D01*
X005242Y006570D01*
X005295Y006568D01*
X005295Y006577D01*
X005243Y006579D01*
X005190Y006585D01*
X005139Y006594D01*
X005088Y006606D01*
X005037Y006622D01*
X004988Y006641D01*
X004941Y006663D01*
X004895Y006689D01*
X004851Y006717D01*
X004809Y006748D01*
X004768Y006782D01*
X004731Y006819D01*
X004696Y006858D01*
X004702Y006864D01*
X004737Y006825D01*
X004775Y006789D01*
X004814Y006755D01*
X004856Y006724D01*
X004900Y006696D01*
X004945Y006671D01*
X004992Y006649D01*
X005040Y006630D01*
X005090Y006615D01*
X005140Y006602D01*
X005192Y006594D01*
X005243Y006588D01*
X005295Y006586D01*
X005295Y006595D01*
X005244Y006597D01*
X005193Y006602D01*
X005142Y006611D01*
X005092Y006623D01*
X005043Y006639D01*
X004996Y006657D01*
X004949Y006679D01*
X004904Y006704D01*
X004861Y006732D01*
X004820Y006762D01*
X004781Y006795D01*
X004744Y006831D01*
X004709Y006869D01*
X004716Y006875D01*
X004753Y006834D01*
X004793Y006796D01*
X004835Y006762D01*
X004880Y006730D01*
X004927Y006701D01*
X004976Y006676D01*
X005027Y006655D01*
X005078Y006637D01*
X005132Y006623D01*
X005186Y006613D01*
X005240Y006606D01*
X005295Y006604D01*
X005296Y008212D02*
X005296Y008122D01*
X005295Y008123D02*
X005241Y008121D01*
X005188Y008115D01*
X005135Y008105D01*
X005083Y008091D01*
X005032Y008074D01*
X004982Y008053D01*
X004934Y008029D01*
X004888Y008001D01*
X004844Y007970D01*
X004803Y007936D01*
X004763Y007899D01*
X004727Y007860D01*
X004659Y007917D01*
X004658Y007918D01*
X004696Y007959D01*
X004736Y007997D01*
X004779Y008033D01*
X004824Y008066D01*
X004871Y008096D01*
X004919Y008122D01*
X004970Y008146D01*
X005022Y008166D01*
X005075Y008182D01*
X005129Y008196D01*
X005184Y008205D01*
X005239Y008211D01*
X005295Y008213D01*
X005295Y008204D01*
X005240Y008202D01*
X005185Y008196D01*
X005131Y008187D01*
X005077Y008174D01*
X005025Y008157D01*
X004973Y008138D01*
X004923Y008114D01*
X004875Y008088D01*
X004829Y008058D01*
X004784Y008026D01*
X004742Y007991D01*
X004702Y007952D01*
X004665Y007912D01*
X004672Y007906D01*
X004709Y007946D01*
X004748Y007984D01*
X004790Y008019D01*
X004834Y008051D01*
X004880Y008080D01*
X004928Y008106D01*
X004977Y008129D01*
X005028Y008149D01*
X005080Y008165D01*
X005133Y008178D01*
X005186Y008187D01*
X005241Y008193D01*
X005295Y008195D01*
X005295Y008186D01*
X005241Y008184D01*
X005188Y008178D01*
X005135Y008169D01*
X005082Y008156D01*
X005031Y008140D01*
X004980Y008121D01*
X004932Y008098D01*
X004884Y008073D01*
X004839Y008044D01*
X004795Y008012D01*
X004754Y007977D01*
X004715Y007940D01*
X004679Y007900D01*
X004686Y007894D01*
X004722Y007934D01*
X004760Y007971D01*
X004801Y008005D01*
X004844Y008036D01*
X004889Y008065D01*
X004936Y008090D01*
X004984Y008113D01*
X005034Y008132D01*
X005085Y008148D01*
X005136Y008160D01*
X005189Y008169D01*
X005242Y008175D01*
X005295Y008177D01*
X005295Y008168D01*
X005242Y008166D01*
X005190Y008160D01*
X005138Y008151D01*
X005087Y008139D01*
X005037Y008123D01*
X004987Y008104D01*
X004940Y008082D01*
X004893Y008057D01*
X004849Y008029D01*
X004807Y007998D01*
X004766Y007964D01*
X004728Y007927D01*
X004693Y007889D01*
X004699Y007883D01*
X004735Y007921D01*
X004772Y007957D01*
X004812Y007991D01*
X004854Y008021D01*
X004898Y008049D01*
X004944Y008074D01*
X004991Y008096D01*
X005040Y008115D01*
X005089Y008130D01*
X005140Y008143D01*
X005191Y008151D01*
X005243Y008157D01*
X005295Y008159D01*
X005295Y008150D01*
X005239Y008148D01*
X005184Y008141D01*
X005129Y008131D01*
X005075Y008117D01*
X005022Y008099D01*
X004971Y008077D01*
X004921Y008052D01*
X004873Y008023D01*
X004828Y007991D01*
X004785Y007956D01*
X004744Y007918D01*
X004706Y007877D01*
X004713Y007871D01*
X004750Y007912D01*
X004791Y007949D01*
X004833Y007984D01*
X004878Y008016D01*
X004926Y008044D01*
X004975Y008069D01*
X005026Y008091D01*
X005078Y008108D01*
X005131Y008122D01*
X005185Y008132D01*
X005240Y008139D01*
X005295Y008141D01*
X005295Y008132D01*
X005241Y008130D01*
X005187Y008124D01*
X005133Y008114D01*
X005080Y008100D01*
X005029Y008082D01*
X004979Y008061D01*
X004930Y008036D01*
X004883Y008008D01*
X004839Y007977D01*
X004797Y007943D01*
X004757Y007905D01*
X004720Y007865D01*
M02*
