999
DXF created by Inkscape
  0
SECTION
  2
HEADER
  9
$ACADVER
  1
AC1014
  9
$HANDSEED
  5
FFFF
  9
$MEASUREMENT
 70
     1
  0
ENDSEC
  0
SECTION
  2
TABLES
  0
TABLE
  2
VPORT
  5
8
330
0
100
AcDbSymbolTable
 70
     4
  0
VPORT
  5
2E
330
8
100
AcDbSymbolTableRecord
100
AcDbViewportTableRecord
  2
*ACTIVE
 70
     0
 10
0.0
 20
0.0
 11
1.0
 21
1.0
 12
210.0
 22
148.5
 13
0.0
 23
0.0
 14
10.0
 24
10.0
 15
10.0
 25
10.0
 16
0.0
 26
0.0
 36
1.0
 17
0.0
 27
0.0
 37
0.0
 40
341.0
 41
1.24
 42
50.0
 43
0.0
 44
0.0
 50
0.0
 51
0.0
 71
     0
 72
   100
 73
     1
 74
     3
 75
     0
 76
     0
 77
     0
 78
     0
  0
ENDTAB
  0
TABLE
  2
LTYPE
  5
5
330
0
100
AcDbSymbolTable
 70
     1
  0
LTYPE
  5
14
330
5
100
AcDbSymbolTableRecord
100
AcDbLinetypeTableRecord
  2
BYBLOCK
 70
     0
  3

 72
    65
 73
     0
 40
0.0
  0
LTYPE
  5
15
330
5
100
AcDbSymbolTableRecord
100
AcDbLinetypeTableRecord
  2
BYLAYER
 70
     0
  3

 72
    65
 73
     0
 40
0.0
  0
LTYPE
  5
16
330
5
100
AcDbSymbolTableRecord
100
AcDbLinetypeTableRecord
  2
CONTINUOUS
 70
     0
  3
Solid line
 72
    65
 73
     0
 40
0.0
  0
ENDTAB
  0
TABLE
  2
LAYER
  5
2
100
AcDbSymbolTable
 70
2
  0
LAYER
  5
50
100
AcDbSymbolTableRecord
100
AcDbLayerTableRecord
  2
0
 70
0
  6
CONTINUOUS
  0
LAYER
  5
51
100
AcDbSymbolTableRecord
100
AcDbLayerTableRecord
  2
Cut
 70
0
  6
CONTINUOUS
  0
ENDTAB
  0
TABLE
  2
STYLE
  5
3
330
0
100
AcDbSymbolTable
 70
     1
  0
STYLE
  5
11
330
3
100
AcDbSymbolTableRecord
100
AcDbTextStyleTableRecord
  2
STANDARD
 70
     0
 40
0.0
 41
1.0
 50
0.0
 71
     0
 42
2.5
  3
txt
  4

  0
ENDTAB
  0
TABLE
  2
VIEW
  5
6
330
0
100
AcDbSymbolTable
 70
     0
  0
ENDTAB
  0
TABLE
  2
UCS
  5
7
330
0
100
AcDbSymbolTable
 70
     0
  0
ENDTAB
  0
TABLE
  2
APPID
  5
9
330
0
100
AcDbSymbolTable
 70
     2
  0
APPID
  5
12
330
9
100
AcDbSymbolTableRecord
100
AcDbRegAppTableRecord
  2
ACAD
 70
     0
  0
ENDTAB
  0
TABLE
  2
DIMSTYLE
  5
A
330
0
100
AcDbSymbolTable
 70
     1
  0
DIMSTYLE
105
27
330
A
100
AcDbSymbolTableRecord
100
AcDbDimStyleTableRecord
  2
ISO-25
 70
     0
  3

  4

  5

  6

  7

 40
1.0
 41
2.5
 42
0.625
 43
3.75
 44
1.25
 45
0.0
 46
0.0
 47
0.0
 48
0.0
140
2.5
141
2.5
142
0.0
143
0.03937007874016
144
1.0
145
0.0
146
1.0
147
0.625
 71
     0
 72
     0
 73
     0
 74
     0
 75
     0
 76
     0
 77
     1
 78
     8
170
     0
171
     3
172
     1
173
     0
174
     0
175
     0
176
     0
177
     0
178
     0
270
     2
271
     2
272
     2
273
     2
274
     3
340
11
275
     0
280
     0
281
     0
282
     0
283
     0
284
     8
285
     0
286
     0
287
     3
288
     0
  0
ENDTAB
  0
TABLE
  2
BLOCK_RECORD
  5
1
330
0
100
AcDbSymbolTable
 70
     1
  0
BLOCK_RECORD
  5
1F
330
1
100
AcDbSymbolTableRecord
100
AcDbBlockTableRecord
  2
*MODEL_SPACE
  0
BLOCK_RECORD
  5
1B
330
1
100
AcDbSymbolTableRecord
100
AcDbBlockTableRecord
  2
*PAPER_SPACE
  0
ENDTAB
  0
ENDSEC
  0
SECTION
  2
BLOCKS
  0
BLOCK
  5
20
330
1F
100
AcDbEntity
  8
0
100
AcDbBlockBegin
  2
*MODEL_SPACE
 70
     0
 10
0.0
 20
0.0
 30
0.0
  3
*MODEL_SPACE
  1

  0
ENDBLK
  5
21
330
1F
100
AcDbEntity
  8
0
100
AcDbBlockEnd
  0
BLOCK
  5
1C
330
1B
100
AcDbEntity
 67
     1
  8
0
100
AcDbBlockBegin
  2
*PAPER_SPACE
  1

  0
ENDBLK
  5
1D
330
1B
100
AcDbEntity
 67
     1
  8
0
100
AcDbBlockEnd
  0
ENDSEC
  0
SECTION
  2
ENTITIES
  0
SPLINE
  5
100
100
AcDbEntity
  8
Cut
 62
7
100
AcDbSpline
 70
8
 71
3
 72
8
 73
4
 74
0
 40
0
 40
0
 40
0
 40
0
 40
1
 40
1
 40
1
 40
1
 10
9.199989
 20
125.500005
 30
0.0
 10
9.199989
 20
124.616350
 30
0.0
 10
8.483644
 20
123.900005
 30
0.0
 10
7.599989
 20
123.900005
 30
0.0
  0
SPLINE
  5
101
100
AcDbEntity
  8
Cut
 62
7
100
AcDbSpline
 70
8
 71
3
 72
8
 73
4
 74
0
 40
0
 40
0
 40
0
 40
0
 40
1
 40
1
 40
1
 40
1
 10
7.599989
 20
123.900005
 30
0.0
 10
6.716333
 20
123.900005
 30
0.0
 10
5.999989
 20
124.616350
 30
0.0
 10
5.999989
 20
125.500005
 30
0.0
  0
SPLINE
  5
102
100
AcDbEntity
  8
Cut
 62
7
100
AcDbSpline
 70
8
 71
3
 72
8
 73
4
 74
0
 40
0
 40
0
 40
0
 40
0
 40
1
 40
1
 40
1
 40
1
 10
5.999989
 20
125.500005
 30
0.0
 10
5.999989
 20
126.383661
 30
0.0
 10
6.716333
 20
127.100005
 30
0.0
 10
7.599989
 20
127.100005
 30
0.0
  0
SPLINE
  5
103
100
AcDbEntity
  8
Cut
 62
7
100
AcDbSpline
 70
8
 71
3
 72
8
 73
4
 74
0
 40
0
 40
0
 40
0
 40
0
 40
1
 40
1
 40
1
 40
1
 10
7.599989
 20
127.100005
 30
0.0
 10
8.483644
 20
127.100005
 30
0.0
 10
9.199989
 20
126.383661
 30
0.0
 10
9.199989
 20
125.500005
 30
0.0
  0
LWPOLYLINE
  5
104
100
AcDbEntity
  8
Cut
 62
7
100
AcDbPolyline
 90
5
 70
0
 10
0.099988
 20
128.500005
 30
0.0
 10
50.599990
 20
128.500005
 30
0.0
 10
50.599990
 20
0.000001
 30
0.0
 10
0.099988
 20
0.000001
 30
0.0
 10
0.099988
 20
128.500005
 30
0.0
  0
SPLINE
  5
105
100
AcDbEntity
  8
Cut
 62
7
100
AcDbSpline
 70
8
 71
3
 72
8
 73
4
 74
0
 40
0
 40
0
 40
0
 40
0
 40
1
 40
1
 40
1
 40
1
 10
9.199989
 20
3.000001
 30
0.0
 10
9.199989
 20
2.116341
 30
0.0
 10
8.483644
 20
1.400001
 30
0.0
 10
7.599989
 20
1.400001
 30
0.0
  0
SPLINE
  5
106
100
AcDbEntity
  8
Cut
 62
7
100
AcDbSpline
 70
8
 71
3
 72
8
 73
4
 74
0
 40
0
 40
0
 40
0
 40
0
 40
1
 40
1
 40
1
 40
1
 10
7.599989
 20
1.400001
 30
0.0
 10
6.716333
 20
1.400001
 30
0.0
 10
5.999989
 20
2.116341
 30
0.0
 10
5.999989
 20
3.000001
 30
0.0
  0
SPLINE
  5
107
100
AcDbEntity
  8
Cut
 62
7
100
AcDbSpline
 70
8
 71
3
 72
8
 73
4
 74
0
 40
0
 40
0
 40
0
 40
0
 40
1
 40
1
 40
1
 40
1
 10
5.999989
 20
3.000001
 30
0.0
 10
5.999989
 20
3.883661
 30
0.0
 10
6.716333
 20
4.600002
 30
0.0
 10
7.599989
 20
4.600002
 30
0.0
  0
SPLINE
  5
108
100
AcDbEntity
  8
Cut
 62
7
100
AcDbSpline
 70
8
 71
3
 72
8
 73
4
 74
0
 40
0
 40
0
 40
0
 40
0
 40
1
 40
1
 40
1
 40
1
 10
7.599989
 20
4.600002
 30
0.0
 10
8.483644
 20
4.600002
 30
0.0
 10
9.199989
 20
3.883661
 30
0.0
 10
9.199989
 20
3.000001
 30
0.0
  0
LWPOLYLINE
  5
109
100
AcDbEntity
  8
Cut
 62
7
100
AcDbPolyline
 90
2
 70
0
 10
9.199989
 20
125.500005
 30
0.0
 10
9.199989
 20
125.500005
 30
0.0
  0
SPLINE
  5
10a
100
AcDbEntity
  8
Cut
 62
7
100
AcDbSpline
 70
8
 71
3
 72
8
 73
4
 74
0
 40
0
 40
0
 40
0
 40
0
 40
1
 40
1
 40
1
 40
1
 10
44.759991
 20
125.500005
 30
0.0
 10
44.759991
 20
124.616350
 30
0.0
 10
44.043647
 20
123.900005
 30
0.0
 10
43.159991
 20
123.900005
 30
0.0
  0
SPLINE
  5
10b
100
AcDbEntity
  8
Cut
 62
7
100
AcDbSpline
 70
8
 71
3
 72
8
 73
4
 74
0
 40
0
 40
0
 40
0
 40
0
 40
1
 40
1
 40
1
 40
1
 10
43.159991
 20
123.900005
 30
0.0
 10
42.276336
 20
123.900005
 30
0.0
 10
41.559991
 20
124.616350
 30
0.0
 10
41.559991
 20
125.500005
 30
0.0
  0
SPLINE
  5
10c
100
AcDbEntity
  8
Cut
 62
7
100
AcDbSpline
 70
8
 71
3
 72
8
 73
4
 74
0
 40
0
 40
0
 40
0
 40
0
 40
1
 40
1
 40
1
 40
1
 10
41.559991
 20
125.500005
 30
0.0
 10
41.559991
 20
126.383661
 30
0.0
 10
42.276336
 20
127.100005
 30
0.0
 10
43.159991
 20
127.100005
 30
0.0
  0
SPLINE
  5
10d
100
AcDbEntity
  8
Cut
 62
7
100
AcDbSpline
 70
8
 71
3
 72
8
 73
4
 74
0
 40
0
 40
0
 40
0
 40
0
 40
1
 40
1
 40
1
 40
1
 10
43.159991
 20
127.100005
 30
0.0
 10
44.043647
 20
127.100005
 30
0.0
 10
44.759991
 20
126.383661
 30
0.0
 10
44.759991
 20
125.500005
 30
0.0
  0
LWPOLYLINE
  5
10e
100
AcDbEntity
  8
Cut
 62
7
100
AcDbPolyline
 90
2
 70
0
 10
9.199989
 20
3.000001
 30
0.0
 10
9.199989
 20
3.000001
 30
0.0
  0
SPLINE
  5
10f
100
AcDbEntity
  8
Cut
 62
7
100
AcDbSpline
 70
8
 71
3
 72
8
 73
4
 74
0
 40
0
 40
0
 40
0
 40
0
 40
1
 40
1
 40
1
 40
1
 10
44.759991
 20
3.000001
 30
0.0
 10
44.759991
 20
2.116341
 30
0.0
 10
44.043647
 20
1.400001
 30
0.0
 10
43.159991
 20
1.400001
 30
0.0
  0
SPLINE
  5
110
100
AcDbEntity
  8
Cut
 62
7
100
AcDbSpline
 70
8
 71
3
 72
8
 73
4
 74
0
 40
0
 40
0
 40
0
 40
0
 40
1
 40
1
 40
1
 40
1
 10
43.159991
 20
1.400001
 30
0.0
 10
42.276336
 20
1.400001
 30
0.0
 10
41.559991
 20
2.116341
 30
0.0
 10
41.559991
 20
3.000001
 30
0.0
  0
SPLINE
  5
111
100
AcDbEntity
  8
Cut
 62
7
100
AcDbSpline
 70
8
 71
3
 72
8
 73
4
 74
0
 40
0
 40
0
 40
0
 40
0
 40
1
 40
1
 40
1
 40
1
 10
41.559991
 20
3.000001
 30
0.0
 10
41.559991
 20
3.883661
 30
0.0
 10
42.276336
 20
4.600002
 30
0.0
 10
43.159991
 20
4.600002
 30
0.0
  0
SPLINE
  5
112
100
AcDbEntity
  8
Cut
 62
7
100
AcDbSpline
 70
8
 71
3
 72
8
 73
4
 74
0
 40
0
 40
0
 40
0
 40
0
 40
1
 40
1
 40
1
 40
1
 10
43.159991
 20
4.600002
 30
0.0
 10
44.043647
 20
4.600002
 30
0.0
 10
44.759991
 20
3.883661
 30
0.0
 10
44.759991
 20
3.000001
 30
0.0
  0
LWPOLYLINE
  5
113
100
AcDbEntity
  8
Cut
 62
7
100
AcDbPolyline
 90
2
 70
0
 10
44.759991
 20
125.500005
 30
0.0
 10
44.759991
 20
125.500005
 30
0.0
  0
SPLINE
  5
114
100
AcDbEntity
  8
Cut
 62
7
100
AcDbSpline
 70
8
 71
3
 72
8
 73
4
 74
0
 40
0
 40
0
 40
0
 40
0
 40
1
 40
1
 40
1
 40
1
 10
17.149989
 20
64.250003
 30
0.0
 10
17.149989
 20
61.764722
 30
0.0
 10
15.135271
 20
59.750003
 30
0.0
 10
12.649989
 20
59.750003
 30
0.0
  0
SPLINE
  5
115
100
AcDbEntity
  8
Cut
 62
7
100
AcDbSpline
 70
8
 71
3
 72
8
 73
4
 74
0
 40
0
 40
0
 40
0
 40
0
 40
1
 40
1
 40
1
 40
1
 10
12.649989
 20
59.750003
 30
0.0
 10
10.164708
 20
59.750003
 30
0.0
 10
8.149989
 20
61.764722
 30
0.0
 10
8.149989
 20
64.250003
 30
0.0
  0
SPLINE
  5
116
100
AcDbEntity
  8
Cut
 62
7
100
AcDbSpline
 70
8
 71
3
 72
8
 73
4
 74
0
 40
0
 40
0
 40
0
 40
0
 40
1
 40
1
 40
1
 40
1
 10
8.149989
 20
64.250003
 30
0.0
 10
8.149989
 20
66.735284
 30
0.0
 10
10.164708
 20
68.750004
 30
0.0
 10
12.649989
 20
68.750004
 30
0.0
  0
SPLINE
  5
117
100
AcDbEntity
  8
Cut
 62
7
100
AcDbSpline
 70
8
 71
3
 72
8
 73
4
 74
0
 40
0
 40
0
 40
0
 40
0
 40
1
 40
1
 40
1
 40
1
 10
12.649989
 20
68.750004
 30
0.0
 10
15.135271
 20
68.750004
 30
0.0
 10
17.149989
 20
66.735284
 30
0.0
 10
17.149989
 20
64.250003
 30
0.0
  0
LWPOLYLINE
  5
118
100
AcDbEntity
  8
Cut
 62
7
100
AcDbPolyline
 90
2
 70
0
 10
44.759991
 20
3.000001
 30
0.0
 10
44.759991
 20
3.000001
 30
0.0
  0
SPLINE
  5
119
100
AcDbEntity
  8
Cut
 62
7
100
AcDbSpline
 70
8
 71
3
 72
8
 73
4
 74
0
 40
0
 40
0
 40
0
 40
0
 40
1
 40
1
 40
1
 40
1
 10
42.549991
 20
64.250003
 30
0.0
 10
42.549991
 20
61.764722
 30
0.0
 10
40.535272
 20
59.750003
 30
0.0
 10
38.049991
 20
59.750003
 30
0.0
  0
SPLINE
  5
11a
100
AcDbEntity
  8
Cut
 62
7
100
AcDbSpline
 70
8
 71
3
 72
8
 73
4
 74
0
 40
0
 40
0
 40
0
 40
0
 40
1
 40
1
 40
1
 40
1
 10
38.049991
 20
59.750003
 30
0.0
 10
35.564708
 20
59.750003
 30
0.0
 10
33.549990
 20
61.764722
 30
0.0
 10
33.549990
 20
64.250003
 30
0.0
  0
SPLINE
  5
11b
100
AcDbEntity
  8
Cut
 62
7
100
AcDbSpline
 70
8
 71
3
 72
8
 73
4
 74
0
 40
0
 40
0
 40
0
 40
0
 40
1
 40
1
 40
1
 40
1
 10
33.549990
 20
64.250003
 30
0.0
 10
33.549990
 20
66.735284
 30
0.0
 10
35.564708
 20
68.750004
 30
0.0
 10
38.049991
 20
68.750004
 30
0.0
  0
SPLINE
  5
11c
100
AcDbEntity
  8
Cut
 62
7
100
AcDbSpline
 70
8
 71
3
 72
8
 73
4
 74
0
 40
0
 40
0
 40
0
 40
0
 40
1
 40
1
 40
1
 40
1
 10
38.049991
 20
68.750004
 30
0.0
 10
40.535272
 20
68.750004
 30
0.0
 10
42.549991
 20
66.735284
 30
0.0
 10
42.549991
 20
64.250003
 30
0.0
  0
LWPOLYLINE
  5
11d
100
AcDbEntity
  8
Cut
 62
7
100
AcDbPolyline
 90
2
 70
0
 10
17.149989
 20
64.250003
 30
0.0
 10
17.149989
 20
64.250003
 30
0.0
  0
SPLINE
  5
11e
100
AcDbEntity
  8
Cut
 62
7
100
AcDbSpline
 70
8
 71
3
 72
8
 73
4
 74
0
 40
0
 40
0
 40
0
 40
0
 40
1
 40
1
 40
1
 40
1
 10
17.149989
 20
83.300003
 30
0.0
 10
17.149989
 20
80.814722
 30
0.0
 10
15.135271
 20
78.800003
 30
0.0
 10
12.649989
 20
78.800003
 30
0.0
  0
SPLINE
  5
11f
100
AcDbEntity
  8
Cut
 62
7
100
AcDbSpline
 70
8
 71
3
 72
8
 73
4
 74
0
 40
0
 40
0
 40
0
 40
0
 40
1
 40
1
 40
1
 40
1
 10
12.649989
 20
78.800003
 30
0.0
 10
10.164708
 20
78.800003
 30
0.0
 10
8.149989
 20
80.814722
 30
0.0
 10
8.149989
 20
83.300003
 30
0.0
  0
SPLINE
  5
120
100
AcDbEntity
  8
Cut
 62
7
100
AcDbSpline
 70
8
 71
3
 72
8
 73
4
 74
0
 40
0
 40
0
 40
0
 40
0
 40
1
 40
1
 40
1
 40
1
 10
8.149989
 20
83.300003
 30
0.0
 10
8.149989
 20
85.785285
 30
0.0
 10
10.164708
 20
87.800003
 30
0.0
 10
12.649989
 20
87.800003
 30
0.0
  0
SPLINE
  5
121
100
AcDbEntity
  8
Cut
 62
7
100
AcDbSpline
 70
8
 71
3
 72
8
 73
4
 74
0
 40
0
 40
0
 40
0
 40
0
 40
1
 40
1
 40
1
 40
1
 10
12.649989
 20
87.800003
 30
0.0
 10
15.135271
 20
87.800003
 30
0.0
 10
17.149989
 20
85.785285
 30
0.0
 10
17.149989
 20
83.300003
 30
0.0
  0
LWPOLYLINE
  5
122
100
AcDbEntity
  8
Cut
 62
7
100
AcDbPolyline
 90
2
 70
0
 10
42.549991
 20
64.250003
 30
0.0
 10
42.549991
 20
64.250003
 30
0.0
  0
SPLINE
  5
123
100
AcDbEntity
  8
Cut
 62
7
100
AcDbSpline
 70
8
 71
3
 72
8
 73
4
 74
0
 40
0
 40
0
 40
0
 40
0
 40
1
 40
1
 40
1
 40
1
 10
42.549991
 20
83.300003
 30
0.0
 10
42.549991
 20
80.814722
 30
0.0
 10
40.535272
 20
78.800003
 30
0.0
 10
38.049991
 20
78.800003
 30
0.0
  0
SPLINE
  5
124
100
AcDbEntity
  8
Cut
 62
7
100
AcDbSpline
 70
8
 71
3
 72
8
 73
4
 74
0
 40
0
 40
0
 40
0
 40
0
 40
1
 40
1
 40
1
 40
1
 10
38.049991
 20
78.800003
 30
0.0
 10
35.564708
 20
78.800003
 30
0.0
 10
33.549990
 20
80.814722
 30
0.0
 10
33.549990
 20
83.300003
 30
0.0
  0
SPLINE
  5
125
100
AcDbEntity
  8
Cut
 62
7
100
AcDbSpline
 70
8
 71
3
 72
8
 73
4
 74
0
 40
0
 40
0
 40
0
 40
0
 40
1
 40
1
 40
1
 40
1
 10
33.549990
 20
83.300003
 30
0.0
 10
33.549990
 20
85.785285
 30
0.0
 10
35.564708
 20
87.800003
 30
0.0
 10
38.049991
 20
87.800003
 30
0.0
  0
SPLINE
  5
126
100
AcDbEntity
  8
Cut
 62
7
100
AcDbSpline
 70
8
 71
3
 72
8
 73
4
 74
0
 40
0
 40
0
 40
0
 40
0
 40
1
 40
1
 40
1
 40
1
 10
38.049991
 20
87.800003
 30
0.0
 10
40.535272
 20
87.800003
 30
0.0
 10
42.549991
 20
85.785285
 30
0.0
 10
42.549991
 20
83.300003
 30
0.0
  0
LWPOLYLINE
  5
127
100
AcDbEntity
  8
Cut
 62
7
100
AcDbPolyline
 90
2
 70
0
 10
17.149989
 20
83.300003
 30
0.0
 10
17.149989
 20
83.300003
 30
0.0
  0
SPLINE
  5
128
100
AcDbEntity
  8
Cut
 62
7
100
AcDbSpline
 70
8
 71
3
 72
8
 73
4
 74
0
 40
0
 40
0
 40
0
 40
0
 40
1
 40
1
 40
1
 40
1
 10
17.149989
 20
102.350005
 30
0.0
 10
17.149989
 20
99.864724
 30
0.0
 10
15.135271
 20
97.850004
 30
0.0
 10
12.649989
 20
97.850004
 30
0.0
  0
SPLINE
  5
129
100
AcDbEntity
  8
Cut
 62
7
100
AcDbSpline
 70
8
 71
3
 72
8
 73
4
 74
0
 40
0
 40
0
 40
0
 40
0
 40
1
 40
1
 40
1
 40
1
 10
12.649989
 20
97.850004
 30
0.0
 10
10.164708
 20
97.850004
 30
0.0
 10
8.149989
 20
99.864724
 30
0.0
 10
8.149989
 20
102.350005
 30
0.0
  0
SPLINE
  5
12a
100
AcDbEntity
  8
Cut
 62
7
100
AcDbSpline
 70
8
 71
3
 72
8
 73
4
 74
0
 40
0
 40
0
 40
0
 40
0
 40
1
 40
1
 40
1
 40
1
 10
8.149989
 20
102.350005
 30
0.0
 10
8.149989
 20
104.835287
 30
0.0
 10
10.164708
 20
106.850005
 30
0.0
 10
12.649989
 20
106.850005
 30
0.0
  0
SPLINE
  5
12b
100
AcDbEntity
  8
Cut
 62
7
100
AcDbSpline
 70
8
 71
3
 72
8
 73
4
 74
0
 40
0
 40
0
 40
0
 40
0
 40
1
 40
1
 40
1
 40
1
 10
12.649989
 20
106.850005
 30
0.0
 10
15.135271
 20
106.850005
 30
0.0
 10
17.149989
 20
104.835287
 30
0.0
 10
17.149989
 20
102.350005
 30
0.0
  0
LWPOLYLINE
  5
12c
100
AcDbEntity
  8
Cut
 62
7
100
AcDbPolyline
 90
2
 70
0
 10
42.549991
 20
83.300003
 30
0.0
 10
42.549991
 20
83.300003
 30
0.0
  0
SPLINE
  5
12d
100
AcDbEntity
  8
Cut
 62
7
100
AcDbSpline
 70
8
 71
3
 72
8
 73
4
 74
0
 40
0
 40
0
 40
0
 40
0
 40
1
 40
1
 40
1
 40
1
 10
42.549991
 20
102.350005
 30
0.0
 10
42.549991
 20
99.864724
 30
0.0
 10
40.535272
 20
97.850004
 30
0.0
 10
38.049991
 20
97.850004
 30
0.0
  0
SPLINE
  5
12e
100
AcDbEntity
  8
Cut
 62
7
100
AcDbSpline
 70
8
 71
3
 72
8
 73
4
 74
0
 40
0
 40
0
 40
0
 40
0
 40
1
 40
1
 40
1
 40
1
 10
38.049991
 20
97.850004
 30
0.0
 10
35.564708
 20
97.850004
 30
0.0
 10
33.549990
 20
99.864724
 30
0.0
 10
33.549990
 20
102.350005
 30
0.0
  0
SPLINE
  5
12f
100
AcDbEntity
  8
Cut
 62
7
100
AcDbSpline
 70
8
 71
3
 72
8
 73
4
 74
0
 40
0
 40
0
 40
0
 40
0
 40
1
 40
1
 40
1
 40
1
 10
33.549990
 20
102.350005
 30
0.0
 10
33.549990
 20
104.835287
 30
0.0
 10
35.564708
 20
106.850005
 30
0.0
 10
38.049991
 20
106.850005
 30
0.0
  0
SPLINE
  5
130
100
AcDbEntity
  8
Cut
 62
7
100
AcDbSpline
 70
8
 71
3
 72
8
 73
4
 74
0
 40
0
 40
0
 40
0
 40
0
 40
1
 40
1
 40
1
 40
1
 10
38.049991
 20
106.850005
 30
0.0
 10
40.535272
 20
106.850005
 30
0.0
 10
42.549991
 20
104.835287
 30
0.0
 10
42.549991
 20
102.350005
 30
0.0
  0
LWPOLYLINE
  5
131
100
AcDbEntity
  8
Cut
 62
7
100
AcDbPolyline
 90
2
 70
0
 10
17.149989
 20
102.350005
 30
0.0
 10
17.149989
 20
102.350005
 30
0.0
  0
SPLINE
  5
132
100
AcDbEntity
  8
Cut
 62
7
100
AcDbSpline
 70
8
 71
3
 72
8
 73
4
 74
0
 40
0
 40
0
 40
0
 40
0
 40
1
 40
1
 40
1
 40
1
 10
26.849989
 20
57.900005
 30
0.0
 10
26.849989
 20
57.071577
 30
0.0
 10
26.178416
 20
56.400005
 30
0.0
 10
25.349989
 20
56.400005
 30
0.0
  0
SPLINE
  5
133
100
AcDbEntity
  8
Cut
 62
7
100
AcDbSpline
 70
8
 71
3
 72
8
 73
4
 74
0
 40
0
 40
0
 40
0
 40
0
 40
1
 40
1
 40
1
 40
1
 10
25.349989
 20
56.400005
 30
0.0
 10
24.521562
 20
56.400005
 30
0.0
 10
23.849989
 20
57.071577
 30
0.0
 10
23.849989
 20
57.900005
 30
0.0
  0
SPLINE
  5
134
100
AcDbEntity
  8
Cut
 62
7
100
AcDbSpline
 70
8
 71
3
 72
8
 73
4
 74
0
 40
0
 40
0
 40
0
 40
0
 40
1
 40
1
 40
1
 40
1
 10
23.849989
 20
57.900005
 30
0.0
 10
23.849989
 20
58.728432
 30
0.0
 10
24.521562
 20
59.400005
 30
0.0
 10
25.349989
 20
59.400005
 30
0.0
  0
SPLINE
  5
135
100
AcDbEntity
  8
Cut
 62
7
100
AcDbSpline
 70
8
 71
3
 72
8
 73
4
 74
0
 40
0
 40
0
 40
0
 40
0
 40
1
 40
1
 40
1
 40
1
 10
25.349989
 20
59.400005
 30
0.0
 10
26.178416
 20
59.400005
 30
0.0
 10
26.849989
 20
58.728432
 30
0.0
 10
26.849989
 20
57.900005
 30
0.0
  0
LWPOLYLINE
  5
136
100
AcDbEntity
  8
Cut
 62
7
100
AcDbPolyline
 90
2
 70
0
 10
42.549991
 20
102.350005
 30
0.0
 10
42.549991
 20
102.350005
 30
0.0
  0
SPLINE
  5
137
100
AcDbEntity
  8
Cut
 62
7
100
AcDbSpline
 70
8
 71
3
 72
8
 73
4
 74
0
 40
0
 40
0
 40
0
 40
0
 40
1
 40
1
 40
1
 40
1
 10
14.149989
 20
45.200000
 30
0.0
 10
14.149989
 20
44.371573
 30
0.0
 10
13.478416
 20
43.700000
 30
0.0
 10
12.649989
 20
43.700000
 30
0.0
  0
SPLINE
  5
138
100
AcDbEntity
  8
Cut
 62
7
100
AcDbSpline
 70
8
 71
3
 72
8
 73
4
 74
0
 40
0
 40
0
 40
0
 40
0
 40
1
 40
1
 40
1
 40
1
 10
12.649989
 20
43.700000
 30
0.0
 10
11.821562
 20
43.700000
 30
0.0
 10
11.149989
 20
44.371573
 30
0.0
 10
11.149989
 20
45.200000
 30
0.0
  0
SPLINE
  5
139
100
AcDbEntity
  8
Cut
 62
7
100
AcDbSpline
 70
8
 71
3
 72
8
 73
4
 74
0
 40
0
 40
0
 40
0
 40
0
 40
1
 40
1
 40
1
 40
1
 10
11.149989
 20
45.200000
 30
0.0
 10
11.149989
 20
46.028427
 30
0.0
 10
11.821562
 20
46.700000
 30
0.0
 10
12.649989
 20
46.700000
 30
0.0
  0
SPLINE
  5
13a
100
AcDbEntity
  8
Cut
 62
7
100
AcDbSpline
 70
8
 71
3
 72
8
 73
4
 74
0
 40
0
 40
0
 40
0
 40
0
 40
1
 40
1
 40
1
 40
1
 10
12.649989
 20
46.700000
 30
0.0
 10
13.478416
 20
46.700000
 30
0.0
 10
14.149989
 20
46.028427
 30
0.0
 10
14.149989
 20
45.200000
 30
0.0
  0
LWPOLYLINE
  5
13b
100
AcDbEntity
  8
Cut
 62
7
100
AcDbPolyline
 90
2
 70
0
 10
26.849989
 20
57.900005
 30
0.0
 10
26.849989
 20
57.900005
 30
0.0
  0
SPLINE
  5
13c
100
AcDbEntity
  8
Cut
 62
7
100
AcDbSpline
 70
8
 71
3
 72
8
 73
4
 74
0
 40
0
 40
0
 40
0
 40
0
 40
1
 40
1
 40
1
 40
1
 10
39.549991
 20
45.200000
 30
0.0
 10
39.549991
 20
44.371573
 30
0.0
 10
38.878418
 20
43.700000
 30
0.0
 10
38.049991
 20
43.700000
 30
0.0
  0
SPLINE
  5
13d
100
AcDbEntity
  8
Cut
 62
7
100
AcDbSpline
 70
8
 71
3
 72
8
 73
4
 74
0
 40
0
 40
0
 40
0
 40
0
 40
1
 40
1
 40
1
 40
1
 10
38.049991
 20
43.700000
 30
0.0
 10
37.221564
 20
43.700000
 30
0.0
 10
36.549990
 20
44.371573
 30
0.0
 10
36.549990
 20
45.200000
 30
0.0
  0
SPLINE
  5
13e
100
AcDbEntity
  8
Cut
 62
7
100
AcDbSpline
 70
8
 71
3
 72
8
 73
4
 74
0
 40
0
 40
0
 40
0
 40
0
 40
1
 40
1
 40
1
 40
1
 10
36.549990
 20
45.200000
 30
0.0
 10
36.549990
 20
46.028427
 30
0.0
 10
37.221564
 20
46.700000
 30
0.0
 10
38.049991
 20
46.700000
 30
0.0
  0
SPLINE
  5
13f
100
AcDbEntity
  8
Cut
 62
7
100
AcDbSpline
 70
8
 71
3
 72
8
 73
4
 74
0
 40
0
 40
0
 40
0
 40
0
 40
1
 40
1
 40
1
 40
1
 10
38.049991
 20
46.700000
 30
0.0
 10
38.878418
 20
46.700000
 30
0.0
 10
39.549991
 20
46.028427
 30
0.0
 10
39.549991
 20
45.200000
 30
0.0
  0
LWPOLYLINE
  5
140
100
AcDbEntity
  8
Cut
 62
7
100
AcDbPolyline
 90
2
 70
0
 10
14.149989
 20
45.200000
 30
0.0
 10
14.149989
 20
45.200000
 30
0.0
  0
SPLINE
  5
141
100
AcDbEntity
  8
Cut
 62
7
100
AcDbSpline
 70
8
 71
3
 72
8
 73
4
 74
0
 40
0
 40
0
 40
0
 40
0
 40
1
 40
1
 40
1
 40
1
 10
28.349989
 20
45.200000
 30
0.0
 10
28.349989
 20
43.543146
 30
0.0
 10
27.006843
 20
42.200000
 30
0.0
 10
25.349989
 20
42.200000
 30
0.0
  0
SPLINE
  5
142
100
AcDbEntity
  8
Cut
 62
7
100
AcDbSpline
 70
8
 71
3
 72
8
 73
4
 74
0
 40
0
 40
0
 40
0
 40
0
 40
1
 40
1
 40
1
 40
1
 10
25.349989
 20
42.200000
 30
0.0
 10
23.693135
 20
42.200000
 30
0.0
 10
22.349989
 20
43.543146
 30
0.0
 10
22.349989
 20
45.200000
 30
0.0
  0
SPLINE
  5
143
100
AcDbEntity
  8
Cut
 62
7
100
AcDbSpline
 70
8
 71
3
 72
8
 73
4
 74
0
 40
0
 40
0
 40
0
 40
0
 40
1
 40
1
 40
1
 40
1
 10
22.349989
 20
45.200000
 30
0.0
 10
22.349989
 20
46.856854
 30
0.0
 10
23.693135
 20
48.200000
 30
0.0
 10
25.349989
 20
48.200000
 30
0.0
  0
SPLINE
  5
144
100
AcDbEntity
  8
Cut
 62
7
100
AcDbSpline
 70
8
 71
3
 72
8
 73
4
 74
0
 40
0
 40
0
 40
0
 40
0
 40
1
 40
1
 40
1
 40
1
 10
25.349989
 20
48.200000
 30
0.0
 10
27.006843
 20
48.200000
 30
0.0
 10
28.349989
 20
46.856854
 30
0.0
 10
28.349989
 20
45.200000
 30
0.0
  0
LWPOLYLINE
  5
145
100
AcDbEntity
  8
Cut
 62
7
100
AcDbPolyline
 90
2
 70
0
 10
39.549991
 20
45.200000
 30
0.0
 10
39.549991
 20
45.200000
 30
0.0
  0
SPLINE
  5
146
100
AcDbEntity
  8
Cut
 62
7
100
AcDbSpline
 70
8
 71
3
 72
8
 73
4
 74
0
 40
0
 40
0
 40
0
 40
0
 40
1
 40
1
 40
1
 40
1
 10
15.649989
 20
32.500002
 30
0.0
 10
15.649989
 20
30.843148
 30
0.0
 10
14.306843
 20
29.500002
 30
0.0
 10
12.649989
 20
29.500002
 30
0.0
  0
SPLINE
  5
147
100
AcDbEntity
  8
Cut
 62
7
100
AcDbSpline
 70
8
 71
3
 72
8
 73
4
 74
0
 40
0
 40
0
 40
0
 40
0
 40
1
 40
1
 40
1
 40
1
 10
12.649989
 20
29.500002
 30
0.0
 10
10.993135
 20
29.500002
 30
0.0
 10
9.649989
 20
30.843148
 30
0.0
 10
9.649989
 20
32.500002
 30
0.0
  0
SPLINE
  5
148
100
AcDbEntity
  8
Cut
 62
7
100
AcDbSpline
 70
8
 71
3
 72
8
 73
4
 74
0
 40
0
 40
0
 40
0
 40
0
 40
1
 40
1
 40
1
 40
1
 10
9.649989
 20
32.500002
 30
0.0
 10
9.649989
 20
34.156856
 30
0.0
 10
10.993135
 20
35.500002
 30
0.0
 10
12.649989
 20
35.500002
 30
0.0
  0
SPLINE
  5
149
100
AcDbEntity
  8
Cut
 62
7
100
AcDbSpline
 70
8
 71
3
 72
8
 73
4
 74
0
 40
0
 40
0
 40
0
 40
0
 40
1
 40
1
 40
1
 40
1
 10
12.649989
 20
35.500002
 30
0.0
 10
14.306843
 20
35.500002
 30
0.0
 10
15.649989
 20
34.156856
 30
0.0
 10
15.649989
 20
32.500002
 30
0.0
  0
LWPOLYLINE
  5
14a
100
AcDbEntity
  8
Cut
 62
7
100
AcDbPolyline
 90
2
 70
0
 10
28.349989
 20
45.200000
 30
0.0
 10
28.349989
 20
45.200000
 30
0.0
  0
SPLINE
  5
14b
100
AcDbEntity
  8
Cut
 62
7
100
AcDbSpline
 70
8
 71
3
 72
8
 73
4
 74
0
 40
0
 40
0
 40
0
 40
0
 40
1
 40
1
 40
1
 40
1
 10
41.049991
 20
32.500002
 30
0.0
 10
41.049991
 20
30.843148
 30
0.0
 10
39.706845
 20
29.500002
 30
0.0
 10
38.049991
 20
29.500002
 30
0.0
  0
SPLINE
  5
14c
100
AcDbEntity
  8
Cut
 62
7
100
AcDbSpline
 70
8
 71
3
 72
8
 73
4
 74
0
 40
0
 40
0
 40
0
 40
0
 40
1
 40
1
 40
1
 40
1
 10
38.049991
 20
29.500002
 30
0.0
 10
36.393136
 20
29.500002
 30
0.0
 10
35.049990
 20
30.843148
 30
0.0
 10
35.049990
 20
32.500002
 30
0.0
  0
SPLINE
  5
14d
100
AcDbEntity
  8
Cut
 62
7
100
AcDbSpline
 70
8
 71
3
 72
8
 73
4
 74
0
 40
0
 40
0
 40
0
 40
0
 40
1
 40
1
 40
1
 40
1
 10
35.049990
 20
32.500002
 30
0.0
 10
35.049990
 20
34.156856
 30
0.0
 10
36.393136
 20
35.500002
 30
0.0
 10
38.049991
 20
35.500002
 30
0.0
  0
SPLINE
  5
14e
100
AcDbEntity
  8
Cut
 62
7
100
AcDbSpline
 70
8
 71
3
 72
8
 73
4
 74
0
 40
0
 40
0
 40
0
 40
0
 40
1
 40
1
 40
1
 40
1
 10
38.049991
 20
35.500002
 30
0.0
 10
39.706845
 20
35.500002
 30
0.0
 10
41.049991
 20
34.156856
 30
0.0
 10
41.049991
 20
32.500002
 30
0.0
  0
LWPOLYLINE
  5
14f
100
AcDbEntity
  8
Cut
 62
7
100
AcDbPolyline
 90
2
 70
0
 10
15.649989
 20
32.500002
 30
0.0
 10
15.649989
 20
32.500002
 30
0.0
  0
SPLINE
  5
150
100
AcDbEntity
  8
Cut
 62
7
100
AcDbSpline
 70
8
 71
3
 72
8
 73
4
 74
0
 40
0
 40
0
 40
0
 40
0
 40
1
 40
1
 40
1
 40
1
 10
28.349989
 20
32.500002
 30
0.0
 10
28.349989
 20
30.843148
 30
0.0
 10
27.006843
 20
29.500002
 30
0.0
 10
25.349989
 20
29.500002
 30
0.0
  0
SPLINE
  5
151
100
AcDbEntity
  8
Cut
 62
7
100
AcDbSpline
 70
8
 71
3
 72
8
 73
4
 74
0
 40
0
 40
0
 40
0
 40
0
 40
1
 40
1
 40
1
 40
1
 10
25.349989
 20
29.500002
 30
0.0
 10
23.693135
 20
29.500002
 30
0.0
 10
22.349989
 20
30.843148
 30
0.0
 10
22.349989
 20
32.500002
 30
0.0
  0
SPLINE
  5
152
100
AcDbEntity
  8
Cut
 62
7
100
AcDbSpline
 70
8
 71
3
 72
8
 73
4
 74
0
 40
0
 40
0
 40
0
 40
0
 40
1
 40
1
 40
1
 40
1
 10
22.349989
 20
32.500002
 30
0.0
 10
22.349989
 20
34.156856
 30
0.0
 10
23.693135
 20
35.500002
 30
0.0
 10
25.349989
 20
35.500002
 30
0.0
  0
SPLINE
  5
153
100
AcDbEntity
  8
Cut
 62
7
100
AcDbSpline
 70
8
 71
3
 72
8
 73
4
 74
0
 40
0
 40
0
 40
0
 40
0
 40
1
 40
1
 40
1
 40
1
 10
25.349989
 20
35.500002
 30
0.0
 10
27.006843
 20
35.500002
 30
0.0
 10
28.349989
 20
34.156856
 30
0.0
 10
28.349989
 20
32.500002
 30
0.0
  0
LWPOLYLINE
  5
154
100
AcDbEntity
  8
Cut
 62
7
100
AcDbPolyline
 90
2
 70
0
 10
41.049991
 20
32.500002
 30
0.0
 10
41.049991
 20
32.500002
 30
0.0
  0
SPLINE
  5
155
100
AcDbEntity
  8
Cut
 62
7
100
AcDbSpline
 70
8
 71
3
 72
8
 73
4
 74
0
 40
0
 40
0
 40
0
 40
0
 40
1
 40
1
 40
1
 40
1
 10
21.999989
 20
19.800002
 30
0.0
 10
21.999989
 20
18.143152
 30
0.0
 10
20.656843
 20
16.800002
 30
0.0
 10
18.999989
 20
16.800002
 30
0.0
  0
SPLINE
  5
156
100
AcDbEntity
  8
Cut
 62
7
100
AcDbSpline
 70
8
 71
3
 72
8
 73
4
 74
0
 40
0
 40
0
 40
0
 40
0
 40
1
 40
1
 40
1
 40
1
 10
18.999989
 20
16.800002
 30
0.0
 10
17.343134
 20
16.800002
 30
0.0
 10
15.999989
 20
18.143152
 30
0.0
 10
15.999989
 20
19.800002
 30
0.0
  0
SPLINE
  5
157
100
AcDbEntity
  8
Cut
 62
7
100
AcDbSpline
 70
8
 71
3
 72
8
 73
4
 74
0
 40
0
 40
0
 40
0
 40
0
 40
1
 40
1
 40
1
 40
1
 10
15.999989
 20
19.800002
 30
0.0
 10
15.999989
 20
21.456862
 30
0.0
 10
17.343134
 20
22.800002
 30
0.0
 10
18.999989
 20
22.800002
 30
0.0
  0
SPLINE
  5
158
100
AcDbEntity
  8
Cut
 62
7
100
AcDbSpline
 70
8
 71
3
 72
8
 73
4
 74
0
 40
0
 40
0
 40
0
 40
0
 40
1
 40
1
 40
1
 40
1
 10
18.999989
 20
22.800002
 30
0.0
 10
20.656843
 20
22.800002
 30
0.0
 10
21.999989
 20
21.456862
 30
0.0
 10
21.999989
 20
19.800002
 30
0.0
  0
LWPOLYLINE
  5
159
100
AcDbEntity
  8
Cut
 62
7
100
AcDbPolyline
 90
2
 70
0
 10
28.349989
 20
32.500002
 30
0.0
 10
28.349989
 20
32.500002
 30
0.0
  0
SPLINE
  5
15a
100
AcDbEntity
  8
Cut
 62
7
100
AcDbSpline
 70
8
 71
3
 72
8
 73
4
 74
0
 40
0
 40
0
 40
0
 40
0
 40
1
 40
1
 40
1
 40
1
 10
34.699989
 20
19.800002
 30
0.0
 10
34.699989
 20
18.143152
 30
0.0
 10
33.356844
 20
16.800002
 30
0.0
 10
31.699989
 20
16.800002
 30
0.0
  0
SPLINE
  5
15b
100
AcDbEntity
  8
Cut
 62
7
100
AcDbSpline
 70
8
 71
3
 72
8
 73
4
 74
0
 40
0
 40
0
 40
0
 40
0
 40
1
 40
1
 40
1
 40
1
 10
31.699989
 20
16.800002
 30
0.0
 10
30.043135
 20
16.800002
 30
0.0
 10
28.699989
 20
18.143152
 30
0.0
 10
28.699989
 20
19.800002
 30
0.0
  0
SPLINE
  5
15c
100
AcDbEntity
  8
Cut
 62
7
100
AcDbSpline
 70
8
 71
3
 72
8
 73
4
 74
0
 40
0
 40
0
 40
0
 40
0
 40
1
 40
1
 40
1
 40
1
 10
28.699989
 20
19.800002
 30
0.0
 10
28.699989
 20
21.456862
 30
0.0
 10
30.043135
 20
22.800002
 30
0.0
 10
31.699989
 20
22.800002
 30
0.0
  0
SPLINE
  5
15d
100
AcDbEntity
  8
Cut
 62
7
100
AcDbSpline
 70
8
 71
3
 72
8
 73
4
 74
0
 40
0
 40
0
 40
0
 40
0
 40
1
 40
1
 40
1
 40
1
 10
31.699989
 20
22.800002
 30
0.0
 10
33.356844
 20
22.800002
 30
0.0
 10
34.699989
 20
21.456862
 30
0.0
 10
34.699989
 20
19.800002
 30
0.0
  0
LWPOLYLINE
  5
15e
100
AcDbEntity
  8
Cut
 62
7
100
AcDbPolyline
 90
2
 70
0
 10
21.999989
 20
19.800002
 30
0.0
 10
21.999989
 20
19.800002
 30
0.0
  0
SPLINE
  5
15f
100
AcDbEntity
  8
Cut
 62
7
100
AcDbSpline
 70
8
 71
3
 72
8
 73
4
 74
0
 40
0
 40
0
 40
0
 40
0
 40
1
 40
1
 40
1
 40
1
 10
9.299988
 20
19.800002
 30
0.0
 10
9.299988
 20
18.143152
 30
0.0
 10
7.956843
 20
16.800002
 30
0.0
 10
6.299988
 20
16.800002
 30
0.0
  0
SPLINE
  5
160
100
AcDbEntity
  8
Cut
 62
7
100
AcDbSpline
 70
8
 71
3
 72
8
 73
4
 74
0
 40
0
 40
0
 40
0
 40
0
 40
1
 40
1
 40
1
 40
1
 10
6.299988
 20
16.800002
 30
0.0
 10
4.643134
 20
16.800002
 30
0.0
 10
3.299988
 20
18.143152
 30
0.0
 10
3.299988
 20
19.800002
 30
0.0
  0
SPLINE
  5
161
100
AcDbEntity
  8
Cut
 62
7
100
AcDbSpline
 70
8
 71
3
 72
8
 73
4
 74
0
 40
0
 40
0
 40
0
 40
0
 40
1
 40
1
 40
1
 40
1
 10
3.299988
 20
19.800002
 30
0.0
 10
3.299988
 20
21.456862
 30
0.0
 10
4.643134
 20
22.800002
 30
0.0
 10
6.299988
 20
22.800002
 30
0.0
  0
SPLINE
  5
162
100
AcDbEntity
  8
Cut
 62
7
100
AcDbSpline
 70
8
 71
3
 72
8
 73
4
 74
0
 40
0
 40
0
 40
0
 40
0
 40
1
 40
1
 40
1
 40
1
 10
6.299988
 20
22.800002
 30
0.0
 10
7.956843
 20
22.800002
 30
0.0
 10
9.299988
 20
21.456862
 30
0.0
 10
9.299988
 20
19.800002
 30
0.0
  0
LWPOLYLINE
  5
163
100
AcDbEntity
  8
Cut
 62
7
100
AcDbPolyline
 90
2
 70
0
 10
34.699989
 20
19.800002
 30
0.0
 10
34.699989
 20
19.800002
 30
0.0
  0
SPLINE
  5
164
100
AcDbEntity
  8
Cut
 62
7
100
AcDbSpline
 70
8
 71
3
 72
8
 73
4
 74
0
 40
0
 40
0
 40
0
 40
0
 40
1
 40
1
 40
1
 40
1
 10
47.399989
 20
19.800002
 30
0.0
 10
47.399989
 20
18.143152
 30
0.0
 10
46.056843
 20
16.800002
 30
0.0
 10
44.399989
 20
16.800002
 30
0.0
  0
SPLINE
  5
165
100
AcDbEntity
  8
Cut
 62
7
100
AcDbSpline
 70
8
 71
3
 72
8
 73
4
 74
0
 40
0
 40
0
 40
0
 40
0
 40
1
 40
1
 40
1
 40
1
 10
44.399989
 20
16.800002
 30
0.0
 10
42.743135
 20
16.800002
 30
0.0
 10
41.399989
 20
18.143152
 30
0.0
 10
41.399989
 20
19.800002
 30
0.0
  0
SPLINE
  5
166
100
AcDbEntity
  8
Cut
 62
7
100
AcDbSpline
 70
8
 71
3
 72
8
 73
4
 74
0
 40
0
 40
0
 40
0
 40
0
 40
1
 40
1
 40
1
 40
1
 10
41.399989
 20
19.800002
 30
0.0
 10
41.399989
 20
21.456862
 30
0.0
 10
42.743135
 20
22.800002
 30
0.0
 10
44.399989
 20
22.800002
 30
0.0
  0
SPLINE
  5
167
100
AcDbEntity
  8
Cut
 62
7
100
AcDbSpline
 70
8
 71
3
 72
8
 73
4
 74
0
 40
0
 40
0
 40
0
 40
0
 40
1
 40
1
 40
1
 40
1
 10
44.399989
 20
22.800002
 30
0.0
 10
46.056843
 20
22.800002
 30
0.0
 10
47.399989
 20
21.456862
 30
0.0
 10
47.399989
 20
19.800002
 30
0.0
  0
LWPOLYLINE
  5
168
100
AcDbEntity
  8
Cut
 62
7
100
AcDbPolyline
 90
2
 70
0
 10
9.299988
 20
19.800002
 30
0.0
 10
9.299988
 20
19.800002
 30
0.0
  0
LWPOLYLINE
  5
169
100
AcDbEntity
  8
Cut
 62
7
100
AcDbPolyline
 90
2
 70
0
 10
47.399989
 20
19.800002
 30
0.0
 10
47.399989
 20
19.800002
 30
0.0
  0
ENDSEC
  0
SECTION
  2
OBJECTS
  0
DICTIONARY
  5
C
330
0
100
AcDbDictionary
  3
ACAD_GROUP
350
D
  3
ACAD_MLINESTYLE
350
17
  0
DICTIONARY
  5
D
330
C
100
AcDbDictionary
  0
DICTIONARY
  5
1A
330
C
100
AcDbDictionary
  0
DICTIONARY
  5
17
330
C
100
AcDbDictionary
  3
STANDARD
350
18
  0
DICTIONARY
  5
19
330
C
100
AcDbDictionary
  0
ENDSEC
  0
EOF
