 0
SECTION
 2
ENTITIES
  0
LINE
 8
Layer0
10
8.45344973232417
20
89.962330772018
30
0.0
11
8.11102962568179
21
88.8386081612907
31
0.0
  0
LINE
 8
Layer0
10
8.05
20
50.0
30
0.0
11
8.20333378169919
21
48.8353142970387
31
0.0
  0
LINE
 8
Layer0
10
15.1665512136782
20
84.438899107345
30
0.0
11
16.0249570301607
21
85.2408613817206
31
0.0
  0
LINE
 8
Layer0
10
16.9889703743182
20
87.3613918387093
30
0.0
11
17.0288819856962
21
88.5354493750208
31
0.0
  0
LINE
 8
Layer0
10
16.0249570301607
20
85.2408613817206
30
0.0
11
16.6465502676758
21
86.237669227982
31
0.0
  0
LINE
 8
Layer0
10
17.05
20
50.0
30
0.0
11
16.8966662183008
21
51.1646857029613
31
0.0
  0
LINE
 8
Layer0
10
11.3853142970387
20
45.6533337816992
30
0.0
11
12.55
21
45.5
31
0.0
  0
LINE
 8
Layer0
10
17.0288819856962
20
88.5354493750208
30
0.0
11
16.7635651914514
21
89.6798317560388
31
0.0
  0
LINE
 8
Layer0
10
10.9701682439612
20
92.3135651914514
30
0.0
11
9.93344878632179
21
91.761100892655
31
0.0
  0
LINE
 8
Layer0
10
16.44711431703
20
52.25
30
0.0
11
15.7319805153395
21
53.1819805153395
31
0.0
  0
LINE
 8
Layer0
10
12.1145506249792
20
92.5788819856962
30
0.0
11
10.9701682439612
21
92.3135651914514
31
0.0
  0
LINE
 8
Layer0
10
9.07504296983926
20
90.9591386182794
30
0.0
11
8.45344973232417
21
89.962330772018
31
0.0
  0
LINE
 8
Layer0
10
12.55
20
54.5
30
0.0
11
11.3853142970387
21
54.3466662183008
31
0.0
  0
LINE
 8
Layer0
10
12.55
20
45.5
30
0.0
11
13.7146857029613
21
45.6533337816992
31
0.0
  0
LINE
 8
Layer0
10
16.7635651914514
20
89.6798317560388
30
0.0
11
16.211100892655
21
90.7165512136782
31
0.0
  0
LINE
 8
Layer0
10
13.7146857029613
20
54.3466662183008
30
0.0
11
12.55
21
54.5
31
0.0
  0
LINE
 8
Layer0
10
9.93344878632179
20
91.761100892655
30
0.0
11
9.07504296983926
21
90.9591386182794
31
0.0
  0
LINE
 8
Layer0
10
10.3
20
46.10288568297
30
0.0
11
11.3853142970387
21
45.6533337816992
31
0.0
  0
LINE
 8
Layer0
10
8.11102962568179
20
88.8386081612907
30
0.0
11
8.0711180143038
21
87.6645506249791
31
0.0
  0
LINE
 8
Layer0
10
12.9854493750208
20
83.6211180143038
30
0.0
11
14.1298317560388
21
83.8864348085486
31
0.0
  0
LINE
 8
Layer0
10
16.8966662183008
20
48.8353142970387
30
0.0
11
17.05
21
50.0
31
0.0
  0
LINE
 8
Layer0
10
16.8966662183008
20
51.1646857029613
30
0.0
11
16.44711431703
21
52.25
31
0.0
  0
LINE
 8
Layer0
10
8.65288568297002
20
47.75
30
0.0
11
9.36801948466053
21
46.8180194846605
31
0.0
  0
LINE
 8
Layer0
10
15.7319805153395
20
46.8180194846605
30
0.0
11
16.44711431703
21
47.75
31
0.0
  0
LINE
 8
Layer0
10
8.20333378169919
20
48.8353142970387
30
0.0
11
8.65288568297002
21
47.75
31
0.0
  0
LINE
 8
Layer0
10
8.88889910734502
20
85.4834487863218
30
0.0
11
9.69086138172063
21
84.6250429698393
31
0.0
  0
LINE
 8
Layer0
10
14.412330772018
20
92.1965502676758
30
0.0
11
13.2886081612907
21
92.5389703743182
31
0.0
  0
LINE
 8
Layer0
10
14.8
20
46.10288568297
30
0.0
11
15.7319805153395
21
46.8180194846605
31
0.0
  0
LINE
 8
Layer0
10
14.8
20
53.89711431703
30
0.0
11
13.7146857029613
21
54.3466662183008
31
0.0
  0
LINE
 8
Layer0
10
14.1298317560388
20
83.8864348085486
30
0.0
11
15.1665512136782
21
84.438899107345
31
0.0
  0
LINE
 8
Layer0
10
8.33643480854856
20
86.5201682439612
30
0.0
11
8.88889910734502
21
85.4834487863218
31
0.0
  0
LINE
 8
Layer0
10
13.2886081612907
20
92.5389703743182
30
0.0
11
12.1145506249792
21
92.5788819856962
31
0.0
  0
LINE
 8
Layer0
10
11.8113918387093
20
83.6610296256818
30
0.0
11
12.9854493750208
21
83.6211180143038
31
0.0
  0
LINE
 8
Layer0
10
9.36801948466054
20
53.1819805153395
30
0.0
11
8.65288568297003
21
52.25
31
0.0
  0
LINE
 8
Layer0
10
10.3
20
53.89711431703
30
0.0
11
9.36801948466054
21
53.1819805153395
31
0.0
  0
LINE
 8
Layer0
10
10.687669227982
20
84.0034497323242
30
0.0
11
11.8113918387093
21
83.6610296256818
31
0.0
  0
LINE
 8
Layer0
10
8.20333378169919
20
51.1646857029613
30
0.0
11
8.05
21
50.0
31
0.0
  0
LINE
 8
Layer0
10
9.69086138172063
20
84.6250429698393
30
0.0
11
10.687669227982
21
84.0034497323242
31
0.0
  0
LINE
 8
Layer0
10
16.6465502676758
20
86.237669227982
30
0.0
11
16.9889703743182
21
87.3613918387093
31
0.0
  0
LINE
 8
Layer0
10
16.211100892655
20
90.7165512136782
30
0.0
11
15.4091386182794
21
91.5749570301607
31
0.0
  0
LINE
 8
Layer0
10
8.65288568297003
20
52.25
30
0.0
11
8.20333378169919
21
51.1646857029613
31
0.0
  0
LINE
 8
Layer0
10
15.4091386182794
20
91.5749570301607
30
0.0
11
14.412330772018
21
92.1965502676758
31
0.0
  0
LINE
 8
Layer0
10
16.44711431703
20
47.75
30
0.0
11
16.8966662183008
21
48.8353142970387
31
0.0
  0
LINE
 8
Layer0
10
15.7319805153395
20
53.1819805153395
30
0.0
11
14.8
21
53.89711431703
31
0.0
  0
LINE
 8
Layer0
10
11.3853142970387
20
54.3466662183008
30
0.0
11
10.3
21
53.89711431703
31
0.0
  0
LINE
 8
Layer0
10
13.7146857029613
20
45.6533337816992
30
0.0
11
14.8
21
46.10288568297
31
0.0
  0
LINE
 8
Layer0
10
9.36801948466053
20
46.8180194846605
30
0.0
11
10.3
21
46.10288568297
31
0.0
  0
LINE
 8
Layer0
10
8.0711180143038
20
87.6645506249791
30
0.0
11
8.33643480854856
21
86.5201682439612
31
0.0
  0
LINE
 8
Layer0
10
16.44711431703
20
66.8
30
0.0
11
16.8966662183008
21
67.8853142970386
31
0.0
  0
LINE
 8
Layer0
10
16.8966662183008
20
67.8853142970386
30
0.0
11
17.05
21
69.05
31
0.0
  0
LINE
 8
Layer0
10
15.7319805153395
20
65.8680194846605
30
0.0
11
16.44711431703
21
66.8
31
0.0
  0
LINE
 8
Layer0
10
14.8
20
65.15288568297
30
0.0
11
15.7319805153395
21
65.8680194846605
31
0.0
  0
LINE
 8
Layer0
10
13.7146857029613
20
64.7033337816992
30
0.0
11
14.8
21
65.15288568297
31
0.0
  0
LINE
 8
Layer0
10
12.55
20
64.55
30
0.0
11
13.7146857029613
21
64.7033337816992
31
0.0
  0
LINE
 8
Layer0
10
11.3853142970387
20
64.7033337816992
30
0.0
11
12.55
21
64.55
31
0.0
  0
LINE
 8
Layer0
10
10.3
20
65.15288568297
30
0.0
11
11.3853142970387
21
64.7033337816992
31
0.0
  0
LINE
 8
Layer0
10
9.36801948466053
20
65.8680194846605
30
0.0
11
10.3
21
65.15288568297
31
0.0
  0
LINE
 8
Layer0
10
8.65288568297002
20
66.8
30
0.0
11
9.36801948466053
21
65.8680194846605
31
0.0
  0
LINE
 8
Layer0
10
8.20333378169919
20
67.8853142970386
30
0.0
11
8.65288568297002
21
66.8
31
0.0
  0
LINE
 8
Layer0
10
8.05
20
69.05
30
0.0
11
8.20333378169919
21
67.8853142970386
31
0.0
  0
LINE
 8
Layer0
10
8.20333378169919
20
70.2146857029613
30
0.0
11
8.05
21
69.05
31
0.0
  0
LINE
 8
Layer0
10
8.65288568297003
20
71.3
30
0.0
11
8.20333378169919
21
70.2146857029613
31
0.0
  0
LINE
 8
Layer0
10
9.36801948466054
20
72.2319805153395
30
0.0
11
8.65288568297003
21
71.3
31
0.0
  0
LINE
 8
Layer0
10
10.3
20
72.94711431703
30
0.0
11
9.36801948466054
21
72.2319805153395
31
0.0
  0
LINE
 8
Layer0
10
12.55
20
73.55
30
0.0
11
11.3853142970387
21
73.3966662183008
31
0.0
  0
LINE
 8
Layer0
10
13.7146857029613
20
73.3966662183008
30
0.0
11
12.55
21
73.55
31
0.0
  0
LINE
 8
Layer0
10
14.8
20
72.94711431703
30
0.0
11
13.7146857029613
21
73.3966662183008
31
0.0
  0
LINE
 8
Layer0
10
15.7319805153395
20
72.2319805153395
30
0.0
11
14.8
21
72.94711431703
31
0.0
  0
LINE
 8
Layer0
10
11.3853142970387
20
73.3966662183008
30
0.0
11
10.3
21
72.94711431703
31
0.0
  0
LINE
 8
Layer0
10
16.44711431703
20
71.3
30
0.0
11
15.7319805153395
21
72.2319805153395
31
0.0
  0
LINE
 8
Layer0
10
16.8966662183008
20
70.2146857029613
30
0.0
11
16.44711431703
21
71.3
31
0.0
  0
LINE
 8
Layer0
10
17.05
20
69.05
30
0.0
11
16.8966662183008
21
70.2146857029613
31
0.0
  0
LINE
 8
Layer0
10
33.45
20
88.1
30
0.0
11
33.6033337816992
21
86.9353142970386
31
0.0
  0
LINE
 8
Layer0
10
33.6033337816992
20
86.9353142970386
30
0.0
11
34.05288568297
21
85.85
31
0.0
  0
LINE
 8
Layer0
10
34.05288568297
20
85.85
30
0.0
11
34.7680194846605
21
84.9180194846605
31
0.0
  0
LINE
 8
Layer0
10
34.7680194846605
20
84.9180194846605
30
0.0
11
35.7
21
84.20288568297
31
0.0
  0
LINE
 8
Layer0
10
35.7
20
84.20288568297
30
0.0
11
36.7853142970387
21
83.7533337816992
31
0.0
  0
LINE
 8
Layer0
10
36.7853142970387
20
83.7533337816992
30
0.0
11
37.95
21
83.6
31
0.0
  0
LINE
 8
Layer0
10
37.95
20
83.6
30
0.0
11
39.1146857029613
21
83.7533337816992
31
0.0
  0
LINE
 8
Layer0
10
39.1146857029613
20
83.7533337816992
30
0.0
11
40.2
21
84.20288568297
31
0.0
  0
LINE
 8
Layer0
10
40.2
20
84.20288568297
30
0.0
11
41.1319805153395
21
84.9180194846605
31
0.0
  0
LINE
 8
Layer0
10
41.1319805153395
20
84.9180194846605
30
0.0
11
41.84711431703
21
85.85
31
0.0
  0
LINE
 8
Layer0
10
41.84711431703
20
85.85
30
0.0
11
42.2966662183008
21
86.9353142970386
31
0.0
  0
LINE
 8
Layer0
10
42.2966662183008
20
86.9353142970386
30
0.0
11
42.45
21
88.1
31
0.0
  0
LINE
 8
Layer0
10
42.45
20
88.1
30
0.0
11
42.2966662183008
21
89.2646857029613
31
0.0
  0
LINE
 8
Layer0
10
42.2966662183008
20
89.2646857029613
30
0.0
11
41.84711431703
21
90.35
31
0.0
  0
LINE
 8
Layer0
10
41.84711431703
20
90.35
30
0.0
11
41.1319805153395
21
91.2819805153395
31
0.0
  0
LINE
 8
Layer0
10
41.1319805153395
20
91.2819805153395
30
0.0
11
40.2
21
91.99711431703
31
0.0
  0
LINE
 8
Layer0
10
40.2
20
91.99711431703
30
0.0
11
39.1146857029614
21
92.4466662183008
31
0.0
  0
LINE
 8
Layer0
10
39.1146857029614
20
92.4466662183008
30
0.0
11
37.95
21
92.6
31
0.0
  0
LINE
 8
Layer0
10
37.95
20
92.6
30
0.0
11
36.7853142970387
21
92.4466662183008
31
0.0
  0
LINE
 8
Layer0
10
36.7853142970387
20
92.4466662183008
30
0.0
11
35.7
21
91.99711431703
31
0.0
  0
LINE
 8
Layer0
10
35.7
20
91.99711431703
30
0.0
11
34.7680194846605
21
91.2819805153395
31
0.0
  0
LINE
 8
Layer0
10
34.7680194846605
20
91.2819805153395
30
0.0
11
34.05288568297
21
90.35
31
0.0
  0
LINE
 8
Layer0
10
34.05288568297
20
90.35
30
0.0
11
33.6033337816992
21
89.2646857029613
31
0.0
  0
LINE
 8
Layer0
10
33.6033337816992
20
89.2646857029613
30
0.0
11
33.45
21
88.1
31
0.0
  0
LINE
 8
Layer0
10
33.45
20
50.0
30
0.0
11
33.6033337816992
21
48.8353142970387
31
0.0
  0
LINE
 8
Layer0
10
33.6033337816992
20
48.8353142970387
30
0.0
11
34.05288568297
21
47.75
31
0.0
  0
LINE
 8
Layer0
10
34.05288568297
20
47.75
30
0.0
11
34.7680194846605
21
46.8180194846605
31
0.0
  0
LINE
 8
Layer0
10
34.7680194846605
20
46.8180194846605
30
0.0
11
35.7
21
46.10288568297
31
0.0
  0
LINE
 8
Layer0
10
35.7
20
46.10288568297
30
0.0
11
36.7853142970387
21
45.6533337816992
31
0.0
  0
LINE
 8
Layer0
10
36.7853142970387
20
45.6533337816992
30
0.0
11
37.95
21
45.5
31
0.0
  0
LINE
 8
Layer0
10
37.95
20
45.5
30
0.0
11
39.1146857029613
21
45.6533337816992
31
0.0
  0
LINE
 8
Layer0
10
39.1146857029613
20
45.6533337816992
30
0.0
11
40.2
21
46.10288568297
31
0.0
  0
LINE
 8
Layer0
10
40.2
20
46.10288568297
30
0.0
11
41.1319805153395
21
46.8180194846605
31
0.0
  0
LINE
 8
Layer0
10
41.1319805153395
20
46.8180194846605
30
0.0
11
41.84711431703
21
47.75
31
0.0
  0
LINE
 8
Layer0
10
41.84711431703
20
47.75
30
0.0
11
42.2966662183008
21
48.8353142970387
31
0.0
  0
LINE
 8
Layer0
10
42.2966662183008
20
48.8353142970387
30
0.0
11
42.45
21
50.0
31
0.0
  0
LINE
 8
Layer0
10
42.45
20
50.0
30
0.0
11
42.2966662183008
21
51.1646857029613
31
0.0
  0
LINE
 8
Layer0
10
42.2966662183008
20
51.1646857029613
30
0.0
11
41.84711431703
21
52.25
31
0.0
  0
LINE
 8
Layer0
10
41.84711431703
20
52.25
30
0.0
11
41.1319805153395
21
53.1819805153395
31
0.0
  0
LINE
 8
Layer0
10
41.1319805153395
20
53.1819805153395
30
0.0
11
40.2
21
53.89711431703
31
0.0
  0
LINE
 8
Layer0
10
40.2
20
53.89711431703
30
0.0
11
39.1146857029614
21
54.3466662183008
31
0.0
  0
LINE
 8
Layer0
10
39.1146857029614
20
54.3466662183008
30
0.0
11
37.95
21
54.5
31
0.0
  0
LINE
 8
Layer0
10
37.95
20
54.5
30
0.0
11
36.7853142970387
21
54.3466662183008
31
0.0
  0
LINE
 8
Layer0
10
36.7853142970387
20
54.3466662183008
30
0.0
11
35.7
21
53.89711431703
31
0.0
  0
LINE
 8
Layer0
10
35.7
20
53.89711431703
30
0.0
11
34.7680194846605
21
53.1819805153395
31
0.0
  0
LINE
 8
Layer0
10
34.7680194846605
20
53.1819805153395
30
0.0
11
34.05288568297
21
52.25
31
0.0
  0
LINE
 8
Layer0
10
34.05288568297
20
52.25
30
0.0
11
33.6033337816992
21
51.1646857029613
31
0.0
  0
LINE
 8
Layer0
10
33.6033337816992
20
51.1646857029613
30
0.0
11
33.45
21
50.0
31
0.0
  0
LINE
 8
Layer0
10
12.55
20
32.45
30
0.0
11
12.1769651692527
21
32.4028747416929
31
0.0
  0
LINE
 8
Layer0
10
12.1769651692527
20
32.4028747416929
30
0.0
11
11.8273694888474
21
32.2644600200658
31
0.0
  0
LINE
 8
Layer0
10
11.8273694888474
20
32.2644600200658
30
0.0
11
11.523179341107
21
32.0434529411321
31
0.0
  0
LINE
 8
Layer0
10
11.523179341107
20
32.0434529411321
30
0.0
11
11.283508111747
21
31.7537401924685
31
0.0
  0
LINE
 8
Layer0
10
11.283508111747
20
31.7537401924685
30
0.0
11
11.1234152255573
21
31.4135254915624
31
0.0
  0
LINE
 8
Layer0
10
11.1234152255573
20
31.4135254915624
30
0.0
11
11.0529599073576
21
31.044185779294
31
0.0
  0
LINE
 8
Layer0
10
11.0529599073576
20
31.044185779294
30
0.0
11
11.076569123907
21
30.6689280281214
31
0.0
  0
LINE
 8
Layer0
10
11.076569123907
20
30.6689280281214
30
0.0
11
11.192759421301
21
30.3113310626524
31
0.0
  0
LINE
 8
Layer0
10
11.192759421301
20
30.3113310626524
30
0.0
11
11.3942301358363
21
29.993864015377
31
0.0
  0
LINE
 8
Layer0
10
11.3942301358363
20
29.993864015377
30
0.0
11
11.6683221215613
21
29.7364745084376
31
0.0
  0
LINE
 8
Layer0
10
11.6683221215613
20
29.7364745084376
30
0.0
11
11.997813170973
21
29.5553352711676
31
0.0
  0
LINE
 8
Layer0
10
11.997813170973
20
29.5553352711676
30
0.0
11
12.3620001496535
21
29.4618279480283
31
0.0
  0
LINE
 8
Layer0
10
12.3620001496535
20
29.4618279480283
30
0.0
11
12.7379998503465
21
29.4618279480283
31
0.0
  0
LINE
 8
Layer0
10
12.7379998503465
20
29.4618279480283
30
0.0
11
13.102186829027
21
29.5553352711676
31
0.0
  0
LINE
 8
Layer0
10
13.4316778784387
20
29.7364745084376
30
0.0
11
13.7057698641637
21
29.993864015377
31
0.0
  0
LINE
 8
Layer0
10
13.7057698641637
20
29.993864015377
30
0.0
11
13.907240578699
21
30.3113310626524
31
0.0
  0
LINE
 8
Layer0
10
13.907240578699
20
30.3113310626524
30
0.0
11
14.023430876093
21
30.6689280281214
31
0.0
  0
LINE
 8
Layer0
10
14.023430876093
20
30.6689280281214
30
0.0
11
14.0470400926424
21
31.044185779294
31
0.0
  0
LINE
 8
Layer0
10
14.0470400926424
20
31.044185779294
30
0.0
11
13.9765847744427
21
31.4135254915624
31
0.0
  0
LINE
 8
Layer0
10
13.9765847744427
20
31.4135254915624
30
0.0
11
13.816491888253
21
31.7537401924685
31
0.0
  0
LINE
 8
Layer0
10
13.816491888253
20
31.7537401924685
30
0.0
11
13.576820658893
21
32.0434529411321
31
0.0
  0
LINE
 8
Layer0
10
13.576820658893
20
32.0434529411321
30
0.0
11
13.2726305111526
21
32.2644600200658
31
0.0
  0
LINE
 8
Layer0
10
13.2726305111526
20
32.2644600200658
30
0.0
11
12.9230348307473
21
32.4028747416929
31
0.0
  0
LINE
 8
Layer0
10
12.9230348307473
20
32.4028747416929
30
0.0
11
12.55
21
32.45
31
0.0
  0
LINE
 8
Layer0
10
39.45
20
30.95
30
0.0
11
39.4028747416929
21
31.3230348307473
31
0.0
  0
LINE
 8
Layer0
10
39.4028747416929
20
31.3230348307473
30
0.0
11
39.2644600200658
21
31.6726305111526
31
0.0
  0
LINE
 8
Layer0
10
39.2644600200658
20
31.6726305111526
30
0.0
11
39.0434529411321
21
31.976820658893
31
0.0
  0
LINE
 8
Layer0
10
39.0434529411321
20
31.976820658893
30
0.0
11
38.7537401924685
21
32.216491888253
31
0.0
  0
LINE
 8
Layer0
10
38.7537401924685
20
32.216491888253
30
0.0
11
38.4135254915624
21
32.3765847744427
31
0.0
  0
LINE
 8
Layer0
10
38.4135254915624
20
32.3765847744427
30
0.0
11
38.044185779294
21
32.4470400926424
31
0.0
  0
LINE
 8
Layer0
10
38.044185779294
20
32.4470400926424
30
0.0
11
37.6689280281214
21
32.423430876093
31
0.0
  0
LINE
 8
Layer0
10
37.6689280281214
20
32.423430876093
30
0.0
11
37.3113310626524
21
32.307240578699
31
0.0
  0
LINE
 8
Layer0
10
37.3113310626524
20
32.307240578699
30
0.0
11
36.993864015377
21
32.1057698641637
31
0.0
  0
LINE
 8
Layer0
10
36.993864015377
20
32.1057698641637
30
0.0
11
36.7364745084376
21
31.8316778784387
31
0.0
  0
LINE
 8
Layer0
10
36.7364745084376
20
31.8316778784387
30
0.0
11
36.5553352711676
21
31.502186829027
31
0.0
  0
LINE
 8
Layer0
10
36.5553352711676
20
31.502186829027
30
0.0
11
36.4618279480283
21
31.1379998503465
31
0.0
  0
LINE
 8
Layer0
10
36.4618279480283
20
31.1379998503465
30
0.0
11
36.4618279480283
21
30.7620001496535
31
0.0
  0
LINE
 8
Layer0
10
36.4618279480283
20
30.7620001496535
30
0.0
11
36.5553352711676
21
30.397813170973
31
0.0
  0
LINE
 8
Layer0
10
36.5553352711676
20
30.397813170973
30
0.0
11
36.7364745084376
21
30.0683221215613
31
0.0
  0
LINE
 8
Layer0
10
36.7364745084376
20
30.0683221215613
30
0.0
11
36.993864015377
21
29.7942301358363
31
0.0
  0
LINE
 8
Layer0
10
36.993864015377
20
29.7942301358363
30
0.0
11
37.3113310626524
21
29.592759421301
31
0.0
  0
LINE
 8
Layer0
10
37.6689280281214
20
29.476569123907
30
0.0
11
38.044185779294
21
29.4529599073576
31
0.0
  0
LINE
 8
Layer0
10
38.044185779294
20
29.4529599073576
30
0.0
11
38.4135254915624
21
29.5234152255573
31
0.0
  0
LINE
 8
Layer0
10
38.4135254915624
20
29.5234152255573
30
0.0
11
38.7537401924685
21
29.683508111747
31
0.0
  0
LINE
 8
Layer0
10
38.7537401924685
20
29.683508111747
30
0.0
11
39.0434529411321
21
29.923179341107
31
0.0
  0
LINE
 8
Layer0
10
39.0434529411321
20
29.923179341107
30
0.0
11
39.2644600200658
21
30.2273694888474
31
0.0
  0
LINE
 8
Layer0
10
39.2644600200658
20
30.2273694888474
30
0.0
11
39.402874741693
21
30.5769651692527
31
0.0
  0
LINE
 8
Layer0
10
39.402874741693
20
30.5769651692527
30
0.0
11
39.45
21
30.95
31
0.0
  0
LINE
 8
Layer0
10
25.25
20
33.95
30
0.0
11
24.4735428646924
21
33.8477774788672
31
0.0
  0
LINE
 8
Layer0
10
24.4735428646924
20
33.8477774788672
30
0.0
11
23.75
21
33.5480762113533
31
0.0
  0
LINE
 8
Layer0
10
23.75
20
33.5480762113533
30
0.0
11
23.1286796564404
21
33.0713203435596
31
0.0
  0
LINE
 8
Layer0
10
23.1286796564404
20
33.0713203435596
30
0.0
11
22.6519237886467
21
32.45
31
0.0
  0
LINE
 8
Layer0
10
22.6519237886467
20
32.45
30
0.0
11
22.3522225211328
21
31.7264571353076
31
0.0
  0
LINE
 8
Layer0
10
22.3522225211328
20
31.7264571353076
30
0.0
11
22.25
21
30.95
31
0.0
  0
LINE
 8
Layer0
10
22.25
20
30.95
30
0.0
11
22.3522225211328
21
30.1735428646924
31
0.0
  0
LINE
 8
Layer0
10
22.3522225211328
20
30.1735428646924
30
0.0
11
22.6519237886467
21
29.45
31
0.0
  0
LINE
 8
Layer0
10
22.6519237886467
20
29.45
30
0.0
11
23.1286796564404
21
28.8286796564404
31
0.0
  0
LINE
 8
Layer0
10
23.1286796564404
20
28.8286796564404
30
0.0
11
23.75
21
28.3519237886467
31
0.0
  0
LINE
 8
Layer0
10
23.75
20
28.3519237886467
30
0.0
11
24.4735428646924
21
28.0522225211328
31
0.0
  0
LINE
 8
Layer0
10
24.4735428646924
20
28.0522225211328
30
0.0
11
25.25
21
27.95
31
0.0
  0
LINE
 8
Layer0
10
25.25
20
27.95
30
0.0
11
26.0264571353076
21
28.0522225211328
31
0.0
  0
LINE
 8
Layer0
10
26.0264571353076
20
28.0522225211328
30
0.0
11
26.75
21
28.3519237886467
31
0.0
  0
LINE
 8
Layer0
10
26.75
20
28.3519237886467
30
0.0
11
27.3713203435596
21
28.8286796564404
31
0.0
  0
LINE
 8
Layer0
10
27.3713203435596
20
28.8286796564404
30
0.0
11
27.8480762113533
21
29.45
31
0.0
  0
LINE
 8
Layer0
10
27.8480762113533
20
29.45
30
0.0
11
28.1477774788672
21
30.1735428646924
31
0.0
  0
LINE
 8
Layer0
10
28.1477774788672
20
30.1735428646924
30
0.0
11
28.25
21
30.95
31
0.0
  0
LINE
 8
Layer0
10
28.25
20
30.95
30
0.0
11
28.1477774788672
21
31.7264571353076
31
0.0
  0
LINE
 8
Layer0
10
28.1477774788672
20
31.7264571353076
30
0.0
11
27.8480762113533
21
32.45
31
0.0
  0
LINE
 8
Layer0
10
27.8480762113533
20
32.45
30
0.0
11
27.3713203435596
21
33.0713203435596
31
0.0
  0
LINE
 8
Layer0
10
27.3713203435596
20
33.0713203435596
30
0.0
11
26.75
21
33.5480762113533
31
0.0
  0
LINE
 8
Layer0
10
26.75
20
33.5480762113533
30
0.0
11
26.0264571353076
21
33.8477774788672
31
0.0
  0
LINE
 8
Layer0
10
26.0264571353076
20
33.8477774788672
30
0.0
11
25.25
21
33.95
31
0.0
  0
LINE
 8
Layer0
10
12.55
20
21.25
30
0.0
11
11.7735428646924
21
21.1477774788672
31
0.0
  0
LINE
 8
Layer0
10
11.7735428646924
20
21.1477774788672
30
0.0
11
11.05
21
20.8480762113533
31
0.0
  0
LINE
 8
Layer0
10
11.05
20
20.8480762113533
30
0.0
11
10.4286796564404
21
20.3713203435596
31
0.0
  0
LINE
 8
Layer0
10
10.4286796564404
20
20.3713203435596
30
0.0
11
9.95192378864668
21
19.75
31
0.0
  0
LINE
 8
Layer0
10
9.95192378864668
20
19.75
30
0.0
11
9.65222252113279
21
19.0264571353076
31
0.0
  0
LINE
 8
Layer0
10
9.65222252113279
20
19.0264571353076
30
0.0
11
9.55
21
18.25
31
0.0
  0
LINE
 8
Layer0
10
9.55
20
18.25
30
0.0
11
9.65222252113279
21
17.4735428646924
31
0.0
  0
LINE
 8
Layer0
10
9.65222252113279
20
17.4735428646924
30
0.0
11
9.95192378864668
21
16.75
31
0.0
  0
LINE
 8
Layer0
10
9.95192378864668
20
16.75
30
0.0
11
10.4286796564404
21
16.1286796564404
31
0.0
  0
LINE
 8
Layer0
10
10.4286796564404
20
16.1286796564404
30
0.0
11
11.05
21
15.6519237886467
31
0.0
  0
LINE
 8
Layer0
10
11.05
20
15.6519237886467
30
0.0
11
11.7735428646924
21
15.3522225211328
31
0.0
  0
LINE
 8
Layer0
10
11.7735428646924
20
15.3522225211328
30
0.0
11
12.55
21
15.25
31
0.0
  0
LINE
 8
Layer0
10
12.55
20
15.25
30
0.0
11
13.3264571353076
21
15.3522225211328
31
0.0
  0
LINE
 8
Layer0
10
13.3264571353076
20
15.3522225211328
30
0.0
11
14.05
21
15.6519237886467
31
0.0
  0
LINE
 8
Layer0
10
14.05
20
15.6519237886467
30
0.0
11
14.6713203435596
21
16.1286796564404
31
0.0
  0
LINE
 8
Layer0
10
14.6713203435596
20
16.1286796564404
30
0.0
11
15.1480762113533
21
16.75
31
0.0
  0
LINE
 8
Layer0
10
15.1480762113533
20
16.75
30
0.0
11
15.4477774788672
21
17.4735428646924
31
0.0
  0
LINE
 8
Layer0
10
15.4477774788672
20
17.4735428646924
30
0.0
11
15.55
21
18.25
31
0.0
  0
LINE
 8
Layer0
10
15.55
20
18.25
30
0.0
11
15.4477774788672
21
19.0264571353076
31
0.0
  0
LINE
 8
Layer0
10
15.4477774788672
20
19.0264571353076
30
0.0
11
15.1480762113533
21
19.75
31
0.0
  0
LINE
 8
Layer0
10
15.1480762113533
20
19.75
30
0.0
11
14.6713203435596
21
20.3713203435596
31
0.0
  0
LINE
 8
Layer0
10
14.6713203435596
20
20.3713203435596
30
0.0
11
14.05
21
20.8480762113533
31
0.0
  0
LINE
 8
Layer0
10
14.05
20
20.8480762113533
30
0.0
11
13.3264571353076
21
21.1477774788672
31
0.0
  0
LINE
 8
Layer0
10
13.3264571353076
20
21.1477774788672
30
0.0
11
12.55
21
21.25
31
0.0
  0
LINE
 8
Layer0
10
28.25
20
18.25
30
0.0
11
28.1477774788672
21
19.0264571353076
31
0.0
  0
LINE
 8
Layer0
10
28.1477774788672
20
19.0264571353076
30
0.0
11
27.8480762113533
21
19.75
31
0.0
  0
LINE
 8
Layer0
10
27.8480762113533
20
19.75
30
0.0
11
27.3713203435596
21
20.3713203435596
31
0.0
  0
LINE
 8
Layer0
10
27.3713203435596
20
20.3713203435596
30
0.0
11
26.75
21
20.8480762113533
31
0.0
  0
LINE
 8
Layer0
10
26.75
20
20.8480762113533
30
0.0
11
26.0264571353076
21
21.1477774788672
31
0.0
  0
LINE
 8
Layer0
10
26.0264571353076
20
21.1477774788672
30
0.0
11
25.25
21
21.25
31
0.0
  0
LINE
 8
Layer0
10
25.25
20
21.25
30
0.0
11
24.4735428646924
21
21.1477774788672
31
0.0
  0
LINE
 8
Layer0
10
24.4735428646924
20
21.1477774788672
30
0.0
11
23.75
21
20.8480762113533
31
0.0
  0
LINE
 8
Layer0
10
23.75
20
20.8480762113533
30
0.0
11
23.1286796564404
21
20.3713203435596
31
0.0
  0
LINE
 8
Layer0
10
23.1286796564404
20
20.3713203435596
30
0.0
11
22.6519237886467
21
19.75
31
0.0
  0
LINE
 8
Layer0
10
22.6519237886467
20
19.75
30
0.0
11
22.3522225211328
21
19.0264571353076
31
0.0
  0
LINE
 8
Layer0
10
22.3522225211328
20
19.0264571353076
30
0.0
11
22.25
21
18.25
31
0.0
  0
LINE
 8
Layer0
10
22.25
20
18.25
30
0.0
11
22.3522225211328
21
17.4735428646924
31
0.0
  0
LINE
 8
Layer0
10
22.3522225211328
20
17.4735428646924
30
0.0
11
22.6519237886467
21
16.75
31
0.0
  0
LINE
 8
Layer0
10
22.6519237886467
20
16.75
30
0.0
11
22.7697225323925
21
16.5964816882617
31
0.0
  0
LINE
 8
Layer0
10
23.1286796564404
20
16.1286796564404
30
0.0
11
23.75
21
15.6519237886467
31
0.0
  0
LINE
 8
Layer0
10
23.75
20
15.6519237886467
30
0.0
11
24.4735428646924
21
15.3522225211328
31
0.0
  0
LINE
 8
Layer0
10
24.4735428646924
20
15.3522225211328
30
0.0
11
25.25
21
15.25
31
0.0
  0
LINE
 8
Layer0
10
25.25
20
15.25
30
0.0
11
26.0264571353076
21
15.3522225211328
31
0.0
  0
LINE
 8
Layer0
10
26.0264571353076
20
15.3522225211328
30
0.0
11
26.75
21
15.6519237886467
31
0.0
  0
LINE
 8
Layer0
10
26.75
20
15.6519237886467
30
0.0
11
27.3713203435596
21
16.1286796564404
31
0.0
  0
LINE
 8
Layer0
10
27.3713203435596
20
16.1286796564404
30
0.0
11
27.7302774676075
21
16.5964816882617
31
0.0
  0
LINE
 8
Layer0
10
27.8480762113533
20
16.75
30
0.0
11
28.1477774788672
21
17.4735428646924
31
0.0
  0
LINE
 8
Layer0
10
28.1477774788672
20
17.4735428646924
30
0.0
11
28.25
21
18.25
31
0.0
  0
LINE
 8
Layer0
10
40.95
20
18.25
30
0.0
11
40.8477774788672
21
19.0264571353076
31
0.0
  0
LINE
 8
Layer0
10
40.8477774788672
20
19.0264571353076
30
0.0
11
40.5480762113533
21
19.75
31
0.0
  0
LINE
 8
Layer0
10
40.5480762113533
20
19.75
30
0.0
11
40.0713203435596
21
20.3713203435596
31
0.0
  0
LINE
 8
Layer0
10
40.0713203435596
20
20.3713203435596
30
0.0
11
39.45
21
20.8480762113533
31
0.0
  0
LINE
 8
Layer0
10
39.45
20
20.8480762113533
30
0.0
11
38.7264571353076
21
21.1477774788672
31
0.0
  0
LINE
 8
Layer0
10
38.7264571353076
20
21.1477774788672
30
0.0
11
37.95
21
21.25
31
0.0
  0
LINE
 8
Layer0
10
37.95
20
21.25
30
0.0
11
37.1735428646924
21
21.1477774788672
31
0.0
  0
LINE
 8
Layer0
10
37.1735428646924
20
21.1477774788672
30
0.0
11
36.45
21
20.8480762113533
31
0.0
  0
LINE
 8
Layer0
10
36.45
20
20.8480762113533
30
0.0
11
35.8286796564404
21
20.3713203435596
31
0.0
  0
LINE
 8
Layer0
10
35.8286796564404
20
20.3713203435596
30
0.0
11
35.3519237886467
21
19.75
31
0.0
  0
LINE
 8
Layer0
10
35.3519237886467
20
19.75
30
0.0
11
35.0522225211328
21
19.0264571353076
31
0.0
  0
LINE
 8
Layer0
10
35.0522225211328
20
19.0264571353076
30
0.0
11
34.95
21
18.25
31
0.0
  0
LINE
 8
Layer0
10
34.95
20
18.25
30
0.0
11
35.0522225211328
21
17.4735428646924
31
0.0
  0
LINE
 8
Layer0
10
35.0522225211328
20
17.4735428646924
30
0.0
11
35.3519237886467
21
16.75
31
0.0
  0
LINE
 8
Layer0
10
35.3519237886467
20
16.75
30
0.0
11
35.8286796564404
21
16.1286796564404
31
0.0
  0
LINE
 8
Layer0
10
35.8286796564404
20
16.1286796564404
30
0.0
11
36.45
21
15.6519237886467
31
0.0
  0
LINE
 8
Layer0
10
36.45
20
15.6519237886467
30
0.0
11
37.1735428646924
21
15.3522225211328
31
0.0
  0
LINE
 8
Layer0
10
37.1735428646924
20
15.3522225211328
30
0.0
11
37.95
21
15.25
31
0.0
  0
LINE
 8
Layer0
10
37.95
20
15.25
30
0.0
11
38.7264571353076
21
15.3522225211328
31
0.0
  0
LINE
 8
Layer0
10
38.7264571353076
20
15.3522225211328
30
0.0
11
39.45
21
15.6519237886467
31
0.0
  0
LINE
 8
Layer0
10
39.45
20
15.6519237886467
30
0.0
11
40.0713203435596
21
16.1286796564404
31
0.0
  0
LINE
 8
Layer0
10
40.0713203435596
20
16.1286796564404
30
0.0
11
40.5480762113533
21
16.75
31
0.0
  0
LINE
 8
Layer0
10
40.5480762113533
20
16.75
30
0.0
11
40.8477774788672
21
17.4735428646924
31
0.0
  0
LINE
 8
Layer0
10
40.8477774788672
20
17.4735428646924
30
0.0
11
40.95
21
18.25
31
0.0
  0
LINE
 8
Layer0
10
50.5
20
-14.25
30
0.0
11
50.5
21
114.25
31
0.0
  0
LINE
 8
Layer0
10
50.5
20
114.25
30
0.0
11
0.0
21
114.25
31
0.0
  0
LINE
 8
Layer0
10
0.0
20
-14.25
30
0.0
11
50.5
21
-14.25
31
0.0
  0
LINE
 8
Layer0
10
0.0
20
114.25
30
0.0
11
0.0
21
-14.25
31
0.0
  0
LINE
 8
Layer0
10
9.2
20
5.55
30
0.0
11
9.0977774788672
21
6.32645713530756
31
0.0
  0
LINE
 8
Layer0
10
9.0977774788672
20
6.32645713530756
30
0.0
11
8.79807621135332
21
7.05
31
0.0
  0
LINE
 8
Layer0
10
8.79807621135332
20
7.05
30
0.0
11
8.68027746760752
21
7.20351831173835
31
0.0
  0
LINE
 8
Layer0
10
8.32132034355964
20
7.67132034355964
30
0.0
11
7.7
21
8.14807621135332
31
0.0
  0
LINE
 8
Layer0
10
7.7
20
8.14807621135332
30
0.0
11
6.97645713530756
21
8.44777747886721
31
0.0
  0
LINE
 8
Layer0
10
6.97645713530756
20
8.44777747886721
30
0.0
11
6.2
21
8.55
31
0.0
  0
LINE
 8
Layer0
10
6.2
20
8.55
30
0.0
11
5.42354286469244
21
8.44777747886721
31
0.0
  0
LINE
 8
Layer0
10
5.42354286469244
20
8.44777747886721
30
0.0
11
4.7
21
8.14807621135332
31
0.0
  0
LINE
 8
Layer0
10
4.7
20
8.14807621135332
30
0.0
11
4.07867965644036
21
7.67132034355964
31
0.0
  0
LINE
 8
Layer0
10
4.07867965644036
20
7.67132034355964
30
0.0
11
3.60192378864668
21
7.05
31
0.0
  0
LINE
 8
Layer0
10
3.60192378864668
20
7.05
30
0.0
11
3.3022225211328
21
6.32645713530756
31
0.0
  0
LINE
 8
Layer0
10
3.3022225211328
20
6.32645713530756
30
0.0
11
3.2
21
5.55
31
0.0
  0
LINE
 8
Layer0
10
3.2
20
5.55
30
0.0
11
3.3022225211328
21
4.77354286469244
31
0.0
  0
LINE
 8
Layer0
10
3.3022225211328
20
4.77354286469244
30
0.0
11
3.60192378864668
21
4.05
31
0.0
  0
LINE
 8
Layer0
10
3.60192378864668
20
4.05
30
0.0
11
4.07867965644036
21
3.42867965644036
31
0.0
  0
LINE
 8
Layer0
10
4.07867965644036
20
3.42867965644036
30
0.0
11
4.7
21
2.95192378864669
31
0.0
  0
LINE
 8
Layer0
10
4.7
20
2.95192378864669
30
0.0
11
5.42354286469244
21
2.6522225211328
31
0.0
  0
LINE
 8
Layer0
10
5.42354286469244
20
2.6522225211328
30
0.0
11
6.2
21
2.55
31
0.0
  0
LINE
 8
Layer0
10
6.2
20
2.55
30
0.0
11
6.97645713530756
21
2.6522225211328
31
0.0
  0
LINE
 8
Layer0
10
6.97645713530756
20
2.6522225211328
30
0.0
11
7.7
21
2.95192378864668
31
0.0
  0
LINE
 8
Layer0
10
7.7
20
2.95192378864668
30
0.0
11
8.32132034355964
21
3.42867965644036
31
0.0
  0
LINE
 8
Layer0
10
8.32132034355964
20
3.42867965644036
30
0.0
11
8.79807621135332
21
4.05
31
0.0
  0
LINE
 8
Layer0
10
8.79807621135332
20
4.05
30
0.0
11
9.0977774788672
21
4.77354286469244
31
0.0
  0
LINE
 8
Layer0
10
9.0977774788672
20
4.77354286469244
30
0.0
11
9.2
21
5.55
31
0.0
  0
LINE
 8
Layer0
10
21.9
20
5.55
30
0.0
11
21.7977774788672
21
6.32645713530756
31
0.0
  0
LINE
 8
Layer0
10
21.7977774788672
20
6.32645713530756
30
0.0
11
21.4980762113533
21
7.05
31
0.0
  0
LINE
 8
Layer0
10
21.4980762113533
20
7.05
30
0.0
11
21.0213203435596
21
7.67132034355964
31
0.0
  0
LINE
 8
Layer0
10
21.0213203435596
20
7.67132034355964
30
0.0
11
20.4
21
8.14807621135332
31
0.0
  0
LINE
 8
Layer0
10
20.4
20
8.14807621135332
30
0.0
11
19.6764571353076
21
8.44777747886721
31
0.0
  0
LINE
 8
Layer0
10
19.6764571353076
20
8.44777747886721
30
0.0
11
18.9
21
8.55
31
0.0
  0
LINE
 8
Layer0
10
18.9
20
8.55
30
0.0
11
18.1235428646924
21
8.44777747886721
31
0.0
  0
LINE
 8
Layer0
10
18.1235428646924
20
8.44777747886721
30
0.0
11
18.0922514749607
21
8.4348161608548
31
0.0
  0
LINE
 8
Layer0
10
17.4
20
8.14807621135332
30
0.0
11
16.7786796564404
21
7.67132034355964
31
0.0
  0
LINE
 8
Layer0
10
16.7786796564404
20
7.67132034355964
30
0.0
11
16.3019237886467
21
7.05
31
0.0
  0
LINE
 8
Layer0
10
16.3019237886467
20
7.05
30
0.0
11
16.0022225211328
21
6.32645713530756
31
0.0
  0
LINE
 8
Layer0
10
16.0022225211328
20
6.32645713530756
30
0.0
11
15.9
21
5.55
31
0.0
  0
LINE
 8
Layer0
10
15.9
20
5.55
30
0.0
11
16.0022225211328
21
4.77354286469244
31
0.0
  0
LINE
 8
Layer0
10
16.0022225211328
20
4.77354286469244
30
0.0
11
16.3019237886467
21
4.05
31
0.0
  0
LINE
 8
Layer0
10
16.3019237886467
20
4.05
30
0.0
11
16.7786796564404
21
3.42867965644036
31
0.0
  0
LINE
 8
Layer0
10
16.7786796564404
20
3.42867965644036
30
0.0
11
17.4
21
2.95192378864669
31
0.0
  0
LINE
 8
Layer0
10
17.4
20
2.95192378864669
30
0.0
11
18.1235428646924
21
2.6522225211328
31
0.0
  0
LINE
 8
Layer0
10
18.1235428646924
20
2.6522225211328
30
0.0
11
18.9
21
2.55
31
0.0
  0
LINE
 8
Layer0
10
18.9
20
2.55
30
0.0
11
19.6764571353076
21
2.6522225211328
31
0.0
  0
LINE
 8
Layer0
10
19.6764571353076
20
2.6522225211328
30
0.0
11
20.4
21
2.95192378864668
31
0.0
  0
LINE
 8
Layer0
10
20.4
20
2.95192378864668
30
0.0
11
21.0213203435596
21
3.42867965644036
31
0.0
  0
LINE
 8
Layer0
10
21.0213203435596
20
3.42867965644036
30
0.0
11
21.4980762113533
21
4.05
31
0.0
  0
LINE
 8
Layer0
10
21.4980762113533
20
4.05
30
0.0
11
21.7977774788672
21
4.77354286469244
31
0.0
  0
LINE
 8
Layer0
10
21.7977774788672
20
4.77354286469244
30
0.0
11
21.9
21
5.55
31
0.0
  0
LINE
 8
Layer0
10
47.3
20
5.55
30
0.0
11
47.1977774788672
21
6.32645713530756
31
0.0
  0
LINE
 8
Layer0
10
47.1977774788672
20
6.32645713530756
30
0.0
11
46.8980762113533
21
7.05
31
0.0
  0
LINE
 8
Layer0
10
46.8980762113533
20
7.05
30
0.0
11
46.4213203435596
21
7.67132034355964
31
0.0
  0
LINE
 8
Layer0
10
46.4213203435596
20
7.67132034355964
30
0.0
11
45.8
21
8.14807621135332
31
0.0
  0
LINE
 8
Layer0
10
45.8
20
8.14807621135332
30
0.0
11
45.0764571353076
21
8.44777747886721
31
0.0
  0
LINE
 8
Layer0
10
45.0764571353076
20
8.44777747886721
30
0.0
11
44.3
21
8.55
31
0.0
  0
LINE
 8
Layer0
10
44.3
20
8.55
30
0.0
11
43.5235428646924
21
8.44777747886721
31
0.0
  0
LINE
 8
Layer0
10
43.5235428646924
20
8.44777747886721
30
0.0
11
42.8
21
8.14807621135332
31
0.0
  0
LINE
 8
Layer0
10
42.8
20
8.14807621135332
30
0.0
11
42.1786796564404
21
7.67132034355964
31
0.0
  0
LINE
 8
Layer0
10
42.1786796564404
20
7.67132034355964
30
0.0
11
41.8197225323925
21
7.20351831173835
31
0.0
  0
LINE
 8
Layer0
10
41.7019237886467
20
7.05
30
0.0
11
41.4022225211328
21
6.32645713530756
31
0.0
  0
LINE
 8
Layer0
10
41.4022225211328
20
6.32645713530756
30
0.0
11
41.3
21
5.55
31
0.0
  0
LINE
 8
Layer0
10
41.3
20
5.55
30
0.0
11
41.4022225211328
21
4.77354286469244
31
0.0
  0
LINE
 8
Layer0
10
41.4022225211328
20
4.77354286469244
30
0.0
11
41.7019237886467
21
4.05
31
0.0
  0
LINE
 8
Layer0
10
41.7019237886467
20
4.05
30
0.0
11
42.1786796564404
21
3.42867965644036
31
0.0
  0
LINE
 8
Layer0
10
42.1786796564404
20
3.42867965644036
30
0.0
11
42.8
21
2.95192378864669
31
0.0
  0
LINE
 8
Layer0
10
42.8
20
2.95192378864669
30
0.0
11
43.5235428646924
21
2.6522225211328
31
0.0
  0
LINE
 8
Layer0
10
43.5235428646924
20
2.6522225211328
30
0.0
11
44.3
21
2.55
31
0.0
  0
LINE
 8
Layer0
10
44.3
20
2.55
30
0.0
11
45.0764571353076
21
2.6522225211328
31
0.0
  0
LINE
 8
Layer0
10
45.0764571353076
20
2.6522225211328
30
0.0
11
45.8
21
2.95192378864668
31
0.0
  0
LINE
 8
Layer0
10
45.8
20
2.95192378864668
30
0.0
11
46.4213203435596
21
3.42867965644036
31
0.0
  0
LINE
 8
Layer0
10
46.4213203435596
20
3.42867965644036
30
0.0
11
46.8980762113533
21
4.05
31
0.0
  0
LINE
 8
Layer0
10
46.8980762113533
20
4.05
30
0.0
11
47.1977774788672
21
4.77354286469244
31
0.0
  0
LINE
 8
Layer0
10
47.1977774788672
20
4.77354286469244
30
0.0
11
47.3
21
5.55
31
0.0
  0
LINE
 8
Layer0
10
34.6
20
5.55
30
0.0
11
34.4977774788672
21
6.32645713530756
31
0.0
  0
LINE
 8
Layer0
10
34.4977774788672
20
6.32645713530756
30
0.0
11
34.1980762113533
21
7.05
31
0.0
  0
LINE
 8
Layer0
10
34.1980762113533
20
7.05
30
0.0
11
33.7213203435596
21
7.67132034355964
31
0.0
  0
LINE
 8
Layer0
10
33.7213203435596
20
7.67132034355964
30
0.0
11
33.1
21
8.14807621135332
31
0.0
  0
LINE
 8
Layer0
10
33.1
20
8.14807621135332
30
0.0
11
32.4077485250393
21
8.4348161608548
31
0.0
  0
LINE
 8
Layer0
10
32.3764571353076
20
8.44777747886721
30
0.0
11
31.6
21
8.55
31
0.0
  0
LINE
 8
Layer0
10
31.6
20
8.55
30
0.0
11
30.8235428646924
21
8.44777747886721
31
0.0
  0
LINE
 8
Layer0
10
30.8235428646924
20
8.44777747886721
30
0.0
11
30.1
21
8.14807621135332
31
0.0
  0
LINE
 8
Layer0
10
30.1
20
8.14807621135332
30
0.0
11
29.4786796564404
21
7.67132034355964
31
0.0
  0
LINE
 8
Layer0
10
29.4786796564404
20
7.67132034355964
30
0.0
11
29.0019237886467
21
7.05
31
0.0
  0
LINE
 8
Layer0
10
29.0019237886467
20
7.05
30
0.0
11
28.7022225211328
21
6.32645713530756
31
0.0
  0
LINE
 8
Layer0
10
28.7022225211328
20
6.32645713530756
30
0.0
11
28.6
21
5.55
31
0.0
  0
LINE
 8
Layer0
10
28.6
20
5.55
30
0.0
11
28.7022225211328
21
4.77354286469244
31
0.0
  0
LINE
 8
Layer0
10
28.7022225211328
20
4.77354286469244
30
0.0
11
29.0019237886467
21
4.05
31
0.0
  0
LINE
 8
Layer0
10
29.0019237886467
20
4.05
30
0.0
11
29.4786796564404
21
3.42867965644036
31
0.0
  0
LINE
 8
Layer0
10
29.4786796564404
20
3.42867965644036
30
0.0
11
30.1
21
2.95192378864669
31
0.0
  0
LINE
 8
Layer0
10
30.1
20
2.95192378864669
30
0.0
11
30.8235428646924
21
2.6522225211328
31
0.0
  0
LINE
 8
Layer0
10
30.8235428646924
20
2.6522225211328
30
0.0
11
31.6
21
2.55
31
0.0
  0
LINE
 8
Layer0
10
31.6
20
2.55
30
0.0
11
32.3764571353076
21
2.6522225211328
31
0.0
  0
LINE
 8
Layer0
10
32.3764571353076
20
2.6522225211328
30
0.0
11
33.1
21
2.95192378864668
31
0.0
  0
LINE
 8
Layer0
10
33.1
20
2.95192378864668
30
0.0
11
33.7213203435596
21
3.42867965644036
31
0.0
  0
LINE
 8
Layer0
10
33.7213203435596
20
3.42867965644036
30
0.0
11
34.1980762113533
21
4.05
31
0.0
  0
LINE
 8
Layer0
10
34.1980762113533
20
4.05
30
0.0
11
34.4977774788672
21
4.77354286469244
31
0.0
  0
LINE
 8
Layer0
10
34.4977774788672
20
4.77354286469244
30
0.0
11
34.6
21
5.55
31
0.0
  0
LINE
 8
Layer0
10
27.7302774676075
20
16.5964816882617
30
0.0
11
27.8480762113533
21
16.75
31
0.0
  0
LINE
 8
Layer0
10
41.8197225323925
20
7.20351831173835
30
0.0
11
41.7019237886467
21
7.05
31
0.0
  0
LINE
 8
Layer0
10
22.7697225323925
20
16.5964816882617
30
0.0
11
23.1286796564404
21
16.1286796564404
31
0.0
  0
LINE
 8
Layer0
10
8.68027746760752
20
7.20351831173835
30
0.0
11
8.32132034355964
21
7.67132034355964
31
0.0
  0
LINE
 8
Layer0
10
13.102186829027
20
29.5553352711676
30
0.0
11
13.4316778784387
21
29.7364745084376
31
0.0
  0
LINE
 8
Layer0
10
18.0922514749607
20
8.4348161608548
30
0.0
11
17.4
21
8.14807621135332
31
0.0
  0
LINE
 8
Layer0
10
37.3113310626524
20
29.592759421301
30
0.0
11
37.6689280281214
21
29.476569123907
31
0.0
  0
LINE
 8
Layer0
10
32.4077485250393
20
8.4348161608548
30
0.0
11
32.3764571353076
21
8.44777747886721
31
0.0
  0
LINE
 8
Layer0
10
26.75
20
43.65
30
0.0
11
26.6988887394336
21
44.0382285676538
31
0.0
  0
LINE
 8
Layer0
10
26.6988887394336
20
44.0382285676538
30
0.0
11
26.5490381056767
21
44.4
31
0.0
  0
LINE
 8
Layer0
10
26.5490381056767
20
44.4
30
0.0
11
26.3106601717798
21
44.7106601717798
31
0.0
  0
LINE
 8
Layer0
10
26.3106601717798
20
44.7106601717798
30
0.0
11
26.0
21
44.9490381056767
31
0.0
  0
LINE
 8
Layer0
10
26.0
20
44.9490381056767
30
0.0
11
25.6382285676538
21
45.0988887394336
31
0.0
  0
LINE
 8
Layer0
10
25.6382285676538
20
45.0988887394336
30
0.0
11
25.25
21
45.15
31
0.0
  0
LINE
 8
Layer0
10
25.25
20
45.15
30
0.0
11
24.8617714323462
21
45.0988887394336
31
0.0
  0
LINE
 8
Layer0
10
24.8617714323462
20
45.0988887394336
30
0.0
11
24.5
21
44.9490381056767
31
0.0
  0
LINE
 8
Layer0
10
24.5
20
44.9490381056767
30
0.0
11
24.1893398282202
21
44.7106601717798
31
0.0
  0
LINE
 8
Layer0
10
24.1893398282202
20
44.7106601717798
30
0.0
11
23.9509618943233
21
44.4
31
0.0
  0
LINE
 8
Layer0
10
23.9509618943233
20
44.4
30
0.0
11
23.8011112605664
21
44.0382285676538
31
0.0
  0
LINE
 8
Layer0
10
23.8011112605664
20
44.0382285676538
30
0.0
11
23.75
21
43.65
31
0.0
  0
LINE
 8
Layer0
10
23.75
20
43.65
30
0.0
11
23.8011112605664
21
43.2617714323462
31
0.0
  0
LINE
 8
Layer0
10
23.8011112605664
20
43.2617714323462
30
0.0
11
23.9509618943233
21
42.9
31
0.0
  0
LINE
 8
Layer0
10
23.9509618943233
20
42.9
30
0.0
11
24.1893398282202
21
42.5893398282202
31
0.0
  0
LINE
 8
Layer0
10
24.1893398282202
20
42.5893398282202
30
0.0
11
24.5
21
42.3509618943233
31
0.0
  0
LINE
 8
Layer0
10
24.5
20
42.3509618943233
30
0.0
11
24.8617714323462
21
42.2011112605664
31
0.0
  0
LINE
 8
Layer0
10
24.8617714323462
20
42.2011112605664
30
0.0
11
25.25
21
42.15
31
0.0
  0
LINE
 8
Layer0
10
25.25
20
42.15
30
0.0
11
25.6382285676538
21
42.2011112605664
31
0.0
  0
LINE
 8
Layer0
10
25.6382285676538
20
42.2011112605664
30
0.0
11
26.0
21
42.3509618943233
31
0.0
  0
LINE
 8
Layer0
10
26.0
20
42.3509618943233
30
0.0
11
26.3106601717798
21
42.5893398282202
31
0.0
  0
LINE
 8
Layer0
10
26.3106601717798
20
42.5893398282202
30
0.0
11
26.5490381056767
21
42.9
31
0.0
  0
LINE
 8
Layer0
10
26.5490381056767
20
42.9
30
0.0
11
26.6988887394336
21
43.2617714323462
31
0.0
  0
LINE
 8
Layer0
10
26.6988887394336
20
43.2617714323462
30
0.0
11
26.75
21
43.65
31
0.0
  0
LINE
 8
Layer0
10
9.0
20
111.25
30
0.0
11
8.9488887394336
21
111.638228567654
31
0.0
  0
LINE
 8
Layer0
10
8.9488887394336
20
111.638228567654
30
0.0
11
8.79903810567666
21
112.0
31
0.0
  0
LINE
 8
Layer0
10
8.79903810567666
20
112.0
30
0.0
11
8.56066017177982
21
112.31066017178
31
0.0
  0
LINE
 8
Layer0
10
8.56066017177982
20
112.31066017178
30
0.0
11
8.25
21
112.549038105677
31
0.0
  0
LINE
 8
Layer0
10
8.25
20
112.549038105677
30
0.0
11
7.88822856765378
21
112.698888739434
31
0.0
  0
LINE
 8
Layer0
10
7.88822856765378
20
112.698888739434
30
0.0
11
7.5
21
112.75
31
0.0
  0
LINE
 8
Layer0
10
7.5
20
112.75
30
0.0
11
7.11177143234622
21
112.698888739434
31
0.0
  0
LINE
 8
Layer0
10
7.11177143234622
20
112.698888739434
30
0.0
11
6.75
21
112.549038105677
31
0.0
  0
LINE
 8
Layer0
10
6.75
20
112.549038105677
30
0.0
11
6.43933982822018
21
112.31066017178
31
0.0
  0
LINE
 8
Layer0
10
6.43933982822018
20
112.31066017178
30
0.0
11
6.20096189432334
21
112.0
31
0.0
  0
LINE
 8
Layer0
10
6.20096189432334
20
112.0
30
0.0
11
6.0511112605664
21
111.638228567654
31
0.0
  0
LINE
 8
Layer0
10
6.0511112605664
20
111.638228567654
30
0.0
11
6.0
21
111.25
31
0.0
  0
LINE
 8
Layer0
10
6.0
20
111.25
30
0.0
11
6.0511112605664
21
110.861771432346
31
0.0
  0
LINE
 8
Layer0
10
6.0511112605664
20
110.861771432346
30
0.0
11
6.20096189432334
21
110.5
31
0.0
  0
LINE
 8
Layer0
10
6.20096189432334
20
110.5
30
0.0
11
6.43933982822018
21
110.18933982822
31
0.0
  0
LINE
 8
Layer0
10
6.43933982822018
20
110.18933982822
30
0.0
11
6.75
21
109.950961894323
31
0.0
  0
LINE
 8
Layer0
10
6.75
20
109.950961894323
30
0.0
11
7.11177143234622
21
109.801111260566
31
0.0
  0
LINE
 8
Layer0
10
7.11177143234622
20
109.801111260566
30
0.0
11
7.5
21
109.75
31
0.0
  0
LINE
 8
Layer0
10
7.5
20
109.75
30
0.0
11
7.88822856765378
21
109.801111260566
31
0.0
  0
LINE
 8
Layer0
10
7.88822856765378
20
109.801111260566
30
0.0
11
8.25
21
109.950961894323
31
0.0
  0
LINE
 8
Layer0
10
8.25
20
109.950961894323
30
0.0
11
8.56066017177982
21
110.18933982822
31
0.0
  0
LINE
 8
Layer0
10
8.56066017177982
20
110.18933982822
30
0.0
11
8.79903810567666
21
110.5
31
0.0
  0
LINE
 8
Layer0
10
8.79903810567666
20
110.5
30
0.0
11
8.9488887394336
21
110.861771432346
31
0.0
  0
LINE
 8
Layer0
10
8.9488887394336
20
110.861771432346
30
0.0
11
9.0
21
111.25
31
0.0
  0
LINE
 8
Layer0
10
9.0
20
-11.25
30
0.0
11
8.9488887394336
21
-10.8617714323462
31
0.0
  0
LINE
 8
Layer0
10
8.9488887394336
20
-10.8617714323462
30
0.0
11
8.79903810567666
21
-10.5
31
0.0
  0
LINE
 8
Layer0
10
8.79903810567666
20
-10.5
30
0.0
11
8.56066017177982
21
-10.1893398282202
31
0.0
  0
LINE
 8
Layer0
10
8.56066017177982
20
-10.1893398282202
30
0.0
11
8.25
21
-9.95096189432334
31
0.0
  0
LINE
 8
Layer0
10
8.25
20
-9.95096189432334
30
0.0
11
7.88822856765378
21
-9.8011112605664
31
0.0
  0
LINE
 8
Layer0
10
7.88822856765378
20
-9.8011112605664
30
0.0
11
7.5
21
-9.75
31
0.0
  0
LINE
 8
Layer0
10
7.5
20
-9.75
30
0.0
11
7.11177143234622
21
-9.8011112605664
31
0.0
  0
LINE
 8
Layer0
10
7.11177143234622
20
-9.8011112605664
30
0.0
11
6.75
21
-9.95096189432334
31
0.0
  0
LINE
 8
Layer0
10
6.75
20
-9.95096189432334
30
0.0
11
6.43933982822018
21
-10.1893398282202
31
0.0
  0
LINE
 8
Layer0
10
6.43933982822018
20
-10.1893398282202
30
0.0
11
6.20096189432334
21
-10.5
31
0.0
  0
LINE
 8
Layer0
10
6.20096189432334
20
-10.5
30
0.0
11
6.0511112605664
21
-10.8617714323462
31
0.0
  0
LINE
 8
Layer0
10
6.0511112605664
20
-10.8617714323462
30
0.0
11
6.0
21
-11.25
31
0.0
  0
LINE
 8
Layer0
10
6.0
20
-11.25
30
0.0
11
6.0511112605664
21
-11.6382285676538
31
0.0
  0
LINE
 8
Layer0
10
6.0511112605664
20
-11.6382285676538
30
0.0
11
6.20096189432334
21
-12.0
31
0.0
  0
LINE
 8
Layer0
10
6.20096189432334
20
-12.0
30
0.0
11
6.43933982822018
21
-12.3106601717798
31
0.0
  0
LINE
 8
Layer0
10
6.43933982822018
20
-12.3106601717798
30
0.0
11
6.75
21
-12.5490381056767
31
0.0
  0
LINE
 8
Layer0
10
6.75
20
-12.5490381056767
30
0.0
11
7.11177143234622
21
-12.6988887394336
31
0.0
  0
LINE
 8
Layer0
10
7.11177143234622
20
-12.6988887394336
30
0.0
11
7.5
21
-12.75
31
0.0
  0
LINE
 8
Layer0
10
7.5
20
-12.75
30
0.0
11
7.88822856765378
21
-12.6988887394336
31
0.0
  0
LINE
 8
Layer0
10
7.88822856765378
20
-12.6988887394336
30
0.0
11
8.25
21
-12.5490381056767
31
0.0
  0
LINE
 8
Layer0
10
8.25
20
-12.5490381056767
30
0.0
11
8.56066017177982
21
-12.3106601717798
31
0.0
  0
LINE
 8
Layer0
10
8.56066017177982
20
-12.3106601717798
30
0.0
11
8.79903810567666
21
-12.0
31
0.0
  0
LINE
 8
Layer0
10
8.79903810567666
20
-12.0
30
0.0
11
8.9488887394336
21
-11.6382285676538
31
0.0
  0
LINE
 8
Layer0
10
8.9488887394336
20
-11.6382285676538
30
0.0
11
9.0
21
-11.25
31
0.0
  0
LINE
 8
Layer0
10
44.56
20
111.25
30
0.0
11
44.5088887394336
21
111.638228567654
31
0.0
  0
LINE
 8
Layer0
10
44.5088887394336
20
111.638228567654
30
0.0
11
44.3590381056767
21
112.0
31
0.0
  0
LINE
 8
Layer0
10
44.3590381056767
20
112.0
30
0.0
11
44.1206601717798
21
112.31066017178
31
0.0
  0
LINE
 8
Layer0
10
44.1206601717798
20
112.31066017178
30
0.0
11
43.81
21
112.549038105677
31
0.0
  0
LINE
 8
Layer0
10
43.81
20
112.549038105677
30
0.0
11
43.4482285676538
21
112.698888739434
31
0.0
  0
LINE
 8
Layer0
10
43.4482285676538
20
112.698888739434
30
0.0
11
43.06
21
112.75
31
0.0
  0
LINE
 8
Layer0
10
43.06
20
112.75
30
0.0
11
42.6717714323462
21
112.698888739434
31
0.0
  0
LINE
 8
Layer0
10
42.6717714323462
20
112.698888739434
30
0.0
11
42.31
21
112.549038105677
31
0.0
  0
LINE
 8
Layer0
10
42.31
20
112.549038105677
30
0.0
11
41.9993398282202
21
112.31066017178
31
0.0
  0
LINE
 8
Layer0
10
41.9993398282202
20
112.31066017178
30
0.0
11
41.7609618943234
21
112.0
31
0.0
  0
LINE
 8
Layer0
10
41.7609618943234
20
112.0
30
0.0
11
41.6111112605664
21
111.638228567654
31
0.0
  0
LINE
 8
Layer0
10
41.6111112605664
20
111.638228567654
30
0.0
11
41.56
21
111.25
31
0.0
  0
LINE
 8
Layer0
10
41.56
20
111.25
30
0.0
11
41.6111112605664
21
110.861771432346
31
0.0
  0
LINE
 8
Layer0
10
41.6111112605664
20
110.861771432346
30
0.0
11
41.7609618943234
21
110.5
31
0.0
  0
LINE
 8
Layer0
10
41.7609618943234
20
110.5
30
0.0
11
41.9993398282202
21
110.18933982822
31
0.0
  0
LINE
 8
Layer0
10
41.9993398282202
20
110.18933982822
30
0.0
11
42.31
21
109.950961894323
31
0.0
  0
LINE
 8
Layer0
10
42.31
20
109.950961894323
30
0.0
11
42.6717714323462
21
109.801111260566
31
0.0
  0
LINE
 8
Layer0
10
42.6717714323462
20
109.801111260566
30
0.0
11
43.06
21
109.75
31
0.0
  0
LINE
 8
Layer0
10
43.06
20
109.75
30
0.0
11
43.4482285676538
21
109.801111260566
31
0.0
  0
LINE
 8
Layer0
10
43.4482285676538
20
109.801111260566
30
0.0
11
43.81
21
109.950961894323
31
0.0
  0
LINE
 8
Layer0
10
43.81
20
109.950961894323
30
0.0
11
44.1206601717798
21
110.18933982822
31
0.0
  0
LINE
 8
Layer0
10
44.1206601717798
20
110.18933982822
30
0.0
11
44.3590381056767
21
110.5
31
0.0
  0
LINE
 8
Layer0
10
44.3590381056767
20
110.5
30
0.0
11
44.5088887394336
21
110.861771432346
31
0.0
  0
LINE
 8
Layer0
10
44.5088887394336
20
110.861771432346
30
0.0
11
44.56
21
111.25
31
0.0
  0
LINE
 8
Layer0
10
44.56
20
-11.25
30
0.0
11
44.5088887394336
21
-10.8617714323462
31
0.0
  0
LINE
 8
Layer0
10
44.5088887394336
20
-10.8617714323462
30
0.0
11
44.3590381056767
21
-10.5
31
0.0
  0
LINE
 8
Layer0
10
44.3590381056767
20
-10.5
30
0.0
11
44.1206601717798
21
-10.1893398282202
31
0.0
  0
LINE
 8
Layer0
10
44.1206601717798
20
-10.1893398282202
30
0.0
11
43.81
21
-9.95096189432334
31
0.0
  0
LINE
 8
Layer0
10
43.81
20
-9.95096189432334
30
0.0
11
43.4482285676538
21
-9.80111126056639
31
0.0
  0
LINE
 8
Layer0
10
43.4482285676538
20
-9.80111126056639
30
0.0
11
43.06
21
-9.74999999999999
31
0.0
  0
LINE
 8
Layer0
10
43.06
20
-9.74999999999999
30
0.0
11
42.6717714323462
21
-9.80111126056639
31
0.0
  0
LINE
 8
Layer0
10
42.6717714323462
20
-9.80111126056639
30
0.0
11
42.31
21
-9.95096189432334
31
0.0
  0
LINE
 8
Layer0
10
42.31
20
-9.95096189432334
30
0.0
11
41.9993398282202
21
-10.1893398282202
31
0.0
  0
LINE
 8
Layer0
10
41.9993398282202
20
-10.1893398282202
30
0.0
11
41.7609618943234
21
-10.5
31
0.0
  0
LINE
 8
Layer0
10
41.7609618943234
20
-10.5
30
0.0
11
41.6111112605664
21
-10.8617714323462
31
0.0
  0
LINE
 8
Layer0
10
41.6111112605664
20
-10.8617714323462
30
0.0
11
41.56
21
-11.25
31
0.0
  0
LINE
 8
Layer0
10
41.56
20
-11.25
30
0.0
11
41.6111112605664
21
-11.6382285676538
31
0.0
  0
LINE
 8
Layer0
10
41.6111112605664
20
-11.6382285676538
30
0.0
11
41.7609618943234
21
-12.0
31
0.0
  0
LINE
 8
Layer0
10
41.7609618943234
20
-12.0
30
0.0
11
41.9993398282202
21
-12.3106601717798
31
0.0
  0
LINE
 8
Layer0
10
41.9993398282202
20
-12.3106601717798
30
0.0
11
42.31
21
-12.5490381056767
31
0.0
  0
LINE
 8
Layer0
10
42.31
20
-12.5490381056767
30
0.0
11
42.6717714323462
21
-12.6988887394336
31
0.0
  0
LINE
 8
Layer0
10
42.6717714323462
20
-12.6988887394336
30
0.0
11
43.06
21
-12.75
31
0.0
  0
LINE
 8
Layer0
10
43.06
20
-12.75
30
0.0
11
43.4482285676538
21
-12.6988887394336
31
0.0
  0
LINE
 8
Layer0
10
43.4482285676538
20
-12.6988887394336
30
0.0
11
43.81
21
-12.5490381056767
31
0.0
  0
LINE
 8
Layer0
10
43.81
20
-12.5490381056767
30
0.0
11
44.1206601717798
21
-12.3106601717798
31
0.0
  0
LINE
 8
Layer0
10
44.1206601717798
20
-12.3106601717798
30
0.0
11
44.3590381056767
21
-12.0
31
0.0
  0
LINE
 8
Layer0
10
44.3590381056767
20
-12.0
30
0.0
11
44.5088887394336
21
-11.6382285676538
31
0.0
  0
LINE
 8
Layer0
10
44.5088887394336
20
-11.6382285676538
30
0.0
11
44.56
21
-11.25
31
0.0
  0
LINE
 8
Layer0
10
36.7853142970387
20
73.3966662183008
30
0.0
11
35.7
21
72.94711431703
31
0.0
  0
LINE
 8
Layer0
10
39.1146857029614
20
73.3966662183008
30
0.0
11
37.95
21
73.55
31
0.0
  0
LINE
 8
Layer0
10
35.7
20
72.94711431703
30
0.0
11
34.7680194846605
21
72.2319805153395
31
0.0
  0
LINE
 8
Layer0
10
34.7680194846605
20
72.2319805153395
30
0.0
11
34.05288568297
21
71.3
31
0.0
  0
LINE
 8
Layer0
10
34.7680194846605
20
65.8680194846605
30
0.0
11
35.7
21
65.15288568297
31
0.0
  0
LINE
 8
Layer0
10
33.6033337816992
20
67.8853142970386
30
0.0
11
34.05288568297
21
66.8
31
0.0
  0
LINE
 8
Layer0
10
34.05288568297
20
66.8
30
0.0
11
34.7680194846605
21
65.8680194846605
31
0.0
  0
LINE
 8
Layer0
10
33.45
20
69.05
30
0.0
11
33.6033337816992
21
67.8853142970386
31
0.0
  0
LINE
 8
Layer0
10
34.05288568297
20
71.3
30
0.0
11
33.6033337816992
21
70.2146857029613
31
0.0
  0
LINE
 8
Layer0
10
33.6033337816992
20
70.2146857029613
30
0.0
11
33.45
21
69.05
31
0.0
  0
LINE
 8
Layer0
10
35.7
20
65.15288568297
30
0.0
11
36.7853142970387
21
64.7033337816992
31
0.0
  0
LINE
 8
Layer0
10
36.7853142970387
20
64.7033337816992
30
0.0
11
37.95
21
64.55
31
0.0
  0
LINE
 8
Layer0
10
37.95
20
64.55
30
0.0
11
39.1146857029613
21
64.7033337816992
31
0.0
  0
LINE
 8
Layer0
10
39.1146857029613
20
64.7033337816992
30
0.0
11
40.2
21
65.15288568297
31
0.0
  0
LINE
 8
Layer0
10
40.2
20
65.15288568297
30
0.0
11
41.1319805153395
21
65.8680194846605
31
0.0
  0
LINE
 8
Layer0
10
37.95
20
73.55
30
0.0
11
36.7853142970387
21
73.3966662183008
31
0.0
  0
LINE
 8
Layer0
10
41.1319805153395
20
65.8680194846605
30
0.0
11
41.84711431703
21
66.8
31
0.0
  0
LINE
 8
Layer0
10
41.84711431703
20
66.8
30
0.0
11
42.2966662183008
21
67.8853142970386
31
0.0
  0
LINE
 8
Layer0
10
42.2966662183008
20
67.8853142970386
30
0.0
11
42.45
21
69.05
31
0.0
  0
LINE
 8
Layer0
10
42.45
20
69.05
30
0.0
11
42.2966662183008
21
70.2146857029613
31
0.0
  0
LINE
 8
Layer0
10
40.2
20
72.94711431703
30
0.0
11
39.1146857029614
21
73.3966662183008
31
0.0
  0
LINE
 8
Layer0
10
42.2966662183008
20
70.2146857029613
30
0.0
11
41.84711431703
21
71.3
31
0.0
  0
LINE
 8
Layer0
10
41.84711431703
20
71.3
30
0.0
11
41.1319805153395
21
72.2319805153395
31
0.0
  0
LINE
 8
Layer0
10
41.1319805153395
20
72.2319805153395
30
0.0
11
40.2
21
72.94711431703
31
0.0
 0
ENDSEC
 0
EOF
