<?xml version="1.0" encoding="UTF-8" standalone="no"?>
<svg
   xmlns:dc="http://purl.org/dc/elements/1.1/"
   xmlns:cc="http://creativecommons.org/ns#"
   xmlns:rdf="http://www.w3.org/1999/02/22-rdf-syntax-ns#"
   xmlns:svg="http://www.w3.org/2000/svg"
   xmlns="http://www.w3.org/2000/svg"
   xmlns:sodipodi="http://sodipodi.sourceforge.net/DTD/sodipodi-0.dtd"
   xmlns:inkscape="http://www.inkscape.org/namespaces/inkscape"
   version="1.1"
   width="210mm"
   height="297mm"
   viewBox="0 0 210 297"
   id="svg2"
   inkscape:version="0.48.4 r9939"
   sodipodi:docname="LinearMixer.svg">
  <metadata
     id="metadata467">
    <rdf:RDF>
      <cc:Work
         rdf:about="">
        <dc:format>image/svg+xml</dc:format>
        <dc:type
           rdf:resource="http://purl.org/dc/dcmitype/StillImage" />
        <dc:title />
      </cc:Work>
    </rdf:RDF>
  </metadata>
  <sodipodi:namedview
     pagecolor="#ffffff"
     bordercolor="#666666"
     borderopacity="1"
     objecttolerance="10"
     gridtolerance="10"
     guidetolerance="10"
     inkscape:pageopacity="0"
     inkscape:pageshadow="2"
     inkscape:window-width="1280"
     inkscape:window-height="974"
     id="namedview465"
     showgrid="false"
     inkscape:zoom="1.6986003"
     inkscape:cx="89.822833"
     inkscape:cy="227.65748"
     inkscape:window-x="0"
     inkscape:window-y="0"
     inkscape:window-maximized="1"
     inkscape:current-layer="layer2" />
  <defs
     id="defs4">
    <g
       id="potgrading">
      <path
         d="M 22.469177,65.29487 C 12.864593,59.897939 6.3758317,49.616792 6.3758317,37.815007 c 0,-17.395119 14.1022403,-31.4975588 31.4994303,-31.4975588 17.392315,0 31.496992,14.1012398 31.496992,31.4975588 0,11.809085 -6.498509,22.101133 -16.116497,27.493263"
         style="fill:none;stroke:#030303;stroke-width:0.41032487"
         id="path7" />
      <path
         d="m 28.906759,4.4567034 0.78974,2.9366707"
         style="fill:none;stroke:#030303;stroke-width:0.75"
         id="path9" />
      <path
         d="M 19.149856,5.4303268 22.099957,10.54465"
         style="fill:none;stroke:#030303;stroke-width:1.0"
         id="path11" />
      <path
         d="m 13.42878,13.404619 2.150735,2.149652"
         style="fill:none;stroke:#030303;stroke-width:0.75"
         id="path13" />
      <path
         d="m 5.5191934,19.159858 5.0557506,2.91857"
         style="fill:none;stroke:#030303;stroke-width:1.0"
         id="path15" />
      <path
         d="m 4.4968328,28.890192 2.9366973,0.786019"
         style="fill:none;stroke:#030303;stroke-width:0.75"
         id="path17" />
      <path
         d="m 0.49999997,37.829608 5.86364623,0"
         style="fill:none;stroke:#030303;stroke-width:1.0"
         id="path19" />
      <path
         d="M 4.5053627,46.769023 7.44206,45.980604"
         style="fill:none;stroke:#030303;stroke-width:0.75"
         id="path21" />
      <path
         d="M 5.5106636,56.509058 10.590785,53.578387"
         style="fill:none;stroke:#030303;stroke-width:1.0"
         id="path23" />
      <path
         d="m 13.451932,62.247196 2.145861,-2.149452"
         style="fill:none;stroke:#030303;stroke-width:0.75"
         id="path25" />
      <path
         d="m 19.291208,70.009583 2.834339,-4.907218"
         style="fill:none;stroke:#030303;stroke-width:1.0"
         id="path27" />
      <path
         d="m 56.484784,70.043684 -2.861026,-4.95962"
         style="fill:none;stroke:#030303;stroke-width:1.0"
         id="path29" />
      <path
         d="M 62.293717,62.224096 60.144201,60.079444"
         style="fill:none;stroke:#030303;stroke-width:0.75"
         id="path31" />
      <path
         d="m 70.111912,56.418856 -4.965577,-2.86977"
         style="fill:none;stroke:#030303;stroke-width:1.0"
         id="path33" />
      <path
         d="M 71.224445,46.738522 68.290307,45.951403"
         style="fill:none;stroke:#030303;stroke-width:0.75"
         id="path35" />
      <path
         d="m 75.037277,37.799107 -5.678427,0"
         style="fill:none;stroke:#030303;stroke-width:1.0"
         id="path37" />
      <path
         d="M 71.216037,28.859791 68.280436,29.64821"
         style="fill:none;stroke:#030303;stroke-width:0.75"
         id="path39" />
      <path
         d="m 70.076574,19.198959 -4.943643,2.855068"
         style="fill:none;stroke:#030303;stroke-width:1.0"
         id="path41" />
      <path
         d="M 62.27288,13.382718 60.124704,15.53107"
         style="fill:none;stroke:#030303;stroke-width:0.75"
         id="path43" />
      <path
         d="M 56.550707,5.4181265 53.598168,10.52765"
         style="fill:none;stroke:#030303;stroke-width:1.0"
         id="path45" />
      <path
         d="M 46.785274,4.4507032 45.999312,7.386174"
         style="fill:none;stroke:#030303;stroke-width:0.75"
         id="path47" />
      <path
         d="m 37.844676,0.500008 0,5.8162402"
         style="fill:none;stroke:#030303;stroke-width:1.0"
         id="path49" />
      <path
         d="m 69.475831,37.723605 c 0,17.397619 -14.103337,31.501159 -31.500648,31.501159 -17.397312,0 -31.500649,-14.10354 -31.500649,-31.501159 0,-17.397619 14.103337,-31.5012591 31.500649,-31.5012591 17.397311,0 31.500648,14.1036401 31.500648,31.5012591 z"
         style="fill:none"
         id="path51" />
    </g>
  </defs>
  <g
     style="font-size:2.82222223px;font-style:normal;font-variant:normal;font-weight:normal;font-stretch:normal;text-align:start;line-height:125%;letter-spacing:0px;word-spacing:0px;writing-mode:lr-tb;text-anchor:start;fill:#000000;fill-opacity:1;stroke:none;font-family:Saab;-inkscape-font-specification:Saab"
     id="text3499">
    <path
       d="m 24.981154,197.95322 0,-1.67294 -0.322461,0.19569 0,-0.14056 0.334864,-0.20671 0.184657,0 0,1.82452 -0.19706,0"
       style=""
       id="path5131" />
  </g>
  <g
     style="font-size:2.82222223px;font-style:normal;font-variant:normal;font-weight:normal;font-stretch:normal;text-align:start;line-height:125%;letter-spacing:0px;word-spacing:0px;writing-mode:lr-tb;text-anchor:start;fill:#000000;fill-opacity:1;stroke:none;font-family:Saab;-inkscape-font-specification:Saab"
     id="text3503">
    <path
       d="m 12.706292,254.74666 -0.377583,1.02389 0.756543,0 -0.37896,-1.02389 m -0.157097,-0.27422 0.315571,0 0.784104,2.05741 -0.289388,0 -0.187413,-0.52779 -0.92742,0 -0.187413,0.52779 -0.293523,0 0.785482,-2.05741"
       style=""
       id="path5134" />
  </g>
  <g
     style="font-size:2.82222223px;font-style:normal;font-variant:normal;font-weight:normal;font-stretch:normal;text-align:start;line-height:125%;letter-spacing:0px;word-spacing:0px;writing-mode:lr-tb;text-anchor:start;fill:#000000;fill-opacity:1;stroke:none;font-family:Saab;-inkscape-font-specification:Saab"
     id="text3507">
    <path
       d="m 37.697001,255.5473 0,0.75379 0.446484,0 c 0.149746,0 0.260448,-0.0308 0.332107,-0.0923 0.07258,-0.0625 0.108864,-0.15755 0.108865,-0.28525 -10e-7,-0.12862 -0.03629,-0.22324 -0.108865,-0.28388 -0.07166,-0.0616 -0.182361,-0.0923 -0.332107,-0.0923 l -0.446484,0 m 0,-0.84611 0,0.62012 0.412033,0 c 0.135965,0 0.237021,-0.0253 0.303168,-0.0758 0.06706,-0.0514 0.100596,-0.12953 0.100597,-0.23426 -1e-6,-0.10381 -0.03353,-0.18144 -0.100597,-0.23289 -0.06615,-0.0514 -0.167203,-0.0772 -0.303168,-0.0772 l -0.412033,0 m -0.278364,-0.22875 0.711068,0 c 0.212216,0 0.375743,0.0441 0.490581,0.13229 0.114835,0.0882 0.172253,0.21359 0.172255,0.3762 -2e-6,0.12586 -0.0294,0.226 -0.08819,0.30041 -0.0588,0.0744 -0.145154,0.12081 -0.259071,0.13919 0.136884,0.0294 0.242993,0.0909 0.318327,0.18465 0.07625,0.0928 0.114376,0.20901 0.114377,0.34865 -1e-6,0.18374 -0.06247,0.32567 -0.187413,0.42581 -0.124943,0.10014 -0.30271,0.15021 -0.533301,0.15021 l -0.738628,0 0,-2.05741"
       style=""
       id="path5137" />
  </g>
  <g
     style="font-size:2.82222223px;font-style:normal;font-variant:normal;font-weight:normal;font-stretch:normal;text-align:start;line-height:125%;letter-spacing:0px;word-spacing:0px;writing-mode:lr-tb;text-anchor:start;fill:#000000;fill-opacity:1;stroke:none;font-family:Saab;-inkscape-font-specification:Saab"
     id="text3511">
    <path
       d="m 24.469902,215.84045 c 0.128617,-0.14148 0.23151,-0.25815 0.308681,-0.35002 0.07809,-0.0928 0.135965,-0.16169 0.173633,-0.2067 0.03399,-0.0413 0.0666,-0.085 0.09784,-0.13092 0.03123,-0.0468 0.0588,-0.0951 0.08268,-0.14469 0.02388,-0.0496 0.04272,-0.1006 0.0565,-0.15296 0.0147,-0.0524 0.02205,-0.10519 0.02205,-0.15848 -10e-7,-0.0625 -0.0096,-0.11621 -0.02894,-0.16123 -0.01929,-0.045 -0.04548,-0.0818 -0.07855,-0.11024 -0.03307,-0.0294 -0.07166,-0.051 -0.115755,-0.0648 -0.0441,-0.0138 -0.09095,-0.0202 -0.14056,-0.0193 -0.04961,0 -0.100598,0.007 -0.152963,0.0207 -0.05236,0.0138 -0.103353,0.0335 -0.152962,0.0592 l -0.04685,-0.11575 c 0.05972,-0.0386 0.124023,-0.0671 0.192925,-0.0854 0.0689,-0.0184 0.137803,-0.0266 0.206706,-0.0248 0.0689,9.2e-4 0.135047,0.0119 0.198437,0.0331 0.06431,0.0211 0.120807,0.0524 0.169499,0.0937 0.04961,0.0413 0.08911,0.0928 0.118511,0.15435 0.0294,0.0615 0.0441,0.13275 0.0441,0.21359 -2e-6,0.079 -0.0092,0.15067 -0.02756,0.21498 -0.01746,0.0634 -0.04272,0.12356 -0.07579,0.18052 -0.03307,0.057 -0.07258,0.11208 -0.118512,0.16536 -0.04594,0.0524 -0.09692,0.10657 -0.152962,0.16261 -0.05604,0.056 -0.116215,0.11576 -0.180523,0.17915 -0.06431,0.0625 -0.131373,0.13229 -0.201193,0.20946 l 0.828201,0 0,0.21359 -1.026639,0 0,-0.17501"
       style=""
       id="path5140" />
  </g>
  <g
     style="font-size:2.82222223px;font-style:normal;font-variant:normal;font-weight:normal;font-stretch:normal;text-align:start;line-height:125%;letter-spacing:0px;word-spacing:0px;writing-mode:lr-tb;text-anchor:start;fill:#000000;fill-opacity:1;stroke:none;font-family:Saab;-inkscape-font-specification:Saab"
     id="text3515">
    <path
       d="m 25.080373,234.24058 c 0.05328,0.0101 0.102893,0.0271 0.148828,0.051 0.04593,0.0239 0.0859,0.0538 0.11989,0.0896 0.03491,0.0349 0.06201,0.0753 0.0813,0.12126 0.02021,0.0459 0.03031,0.096 0.03032,0.15021 -2e-6,0.0827 -0.01654,0.15664 -0.04961,0.22186 -0.03307,0.0652 -0.07671,0.12127 -0.130913,0.16812 -0.0542,0.0459 -0.116675,0.0822 -0.187414,0.10887 -0.07074,0.0276 -0.143776,0.0446 -0.219108,0.051 -0.07441,0.006 -0.148828,0.002 -0.223242,-0.0138 -0.07441,-0.0147 -0.142857,-0.0413 -0.205328,-0.0799 l 0.05099,-0.12127 c 0.0542,0.0276 0.110243,0.0487 0.168121,0.0634 0.05879,0.0138 0.115754,0.0207 0.170876,0.0207 0.05604,-9.2e-4 0.108865,-0.009 0.158475,-0.0248 0.05053,-0.0156 0.09417,-0.04 0.130913,-0.073 0.03767,-0.0331 0.06752,-0.0749 0.08957,-0.1254 0.02205,-0.0514 0.03307,-0.11254 0.03307,-0.18328 -10e-7,-0.0469 -0.01332,-0.0919 -0.03996,-0.13505 -0.02573,-0.0441 -0.05926,-0.0813 -0.100597,-0.11162 -0.04134,-0.0303 -0.08774,-0.0533 -0.139182,-0.0689 -0.05053,-0.0156 -0.108866,-0.0234 -0.175011,-0.0234 l -0.04685,0 0,-0.15709 0.0083,0 c 0.124023,0 0.226457,-0.0294 0.307303,-0.0882 0.0441,-0.0294 0.07992,-0.0652 0.107487,-0.10748 0.02848,-0.0432 0.04272,-0.0887 0.04272,-0.13643 -10e-7,-0.0597 -0.01057,-0.11024 -0.03169,-0.15158 -0.02113,-0.0423 -0.04915,-0.0762 -0.08406,-0.10198 -0.03399,-0.0266 -0.07396,-0.0455 -0.11989,-0.0565 -0.04502,-0.011 -0.09233,-0.0156 -0.141938,-0.0138 -0.04869,0.002 -0.09738,0.01 -0.146072,0.0234 -0.04869,0.0129 -0.09417,0.0308 -0.136426,0.0537 l -0.04272,-0.1254 c 0.05512,-0.0303 0.115755,-0.0524 0.181901,-0.0661 0.06706,-0.0138 0.134588,-0.0193 0.202572,-0.0165 0.06798,0.003 0.133669,0.0142 0.197059,0.0344 0.06339,0.0202 0.119889,0.0492 0.169499,0.0868 0.04961,0.0367 0.08911,0.0827 0.118511,0.1378 0.03032,0.0551 0.04547,0.11943 0.04548,0.19292 -2e-6,0.0441 -0.0087,0.0873 -0.02618,0.12954 -0.01746,0.0423 -0.04272,0.0813 -0.07579,0.11713 -0.03307,0.0349 -0.0735,0.0661 -0.121268,0.0937 -0.04685,0.0266 -0.09968,0.0469 -0.158474,0.0606 l 0.03859,0.006 0,0"
       style=""
       id="path5143" />
  </g>
  <g
     style="font-size:2.82222223px;font-style:normal;font-variant:normal;font-weight:normal;font-stretch:normal;text-align:start;line-height:125%;letter-spacing:0px;word-spacing:0px;writing-mode:lr-tb;text-anchor:start;fill:#000000;fill-opacity:1;stroke:none;font-family:Saab;-inkscape-font-specification:Saab"
     id="text3519">
    <path
       d="m 25.3422,253.83326 -0.205327,0 0,-0.45751 -0.795128,0 0,-0.13229 0.691775,-1.23335 0.30868,0 0,1.23335 0.256315,0 0,0.13229 -0.256315,0 0,0.45751 m -0.847493,-0.5898 0.642166,0 -0.0041,-1.13826 -0.638032,1.13826"
       style=""
       id="path5146" />
  </g>
  <g
     inkscape:groupmode="layer"
     id="layer2"
     inkscape:label="Cut"
     style="display:inline">
    <g
       style="fill:none;stroke:#ff0000;stroke-width:0.10000000000000001;display:inline"
       id="g53"
       transform="translate(0.09999861,168.5)">
      <path
         d="m 0,0 50.5,0 0,128.5 -50.5,0 z"
         id="rect55"
         inkscape:connector-curvature="0"
         style="stroke:#ff0000" />
      <path
         d="M 9.1,3 C 9.1,3.8836556 8.3836556,4.6 7.5,4.6 6.6163444,4.6 5.9,3.8836556 5.9,3 5.9,2.1163444 6.6163444,1.4 7.5,1.4 8.3836556,1.4 9.1,2.1163444 9.1,3 z"
         id="circle57"
         inkscape:connector-curvature="0"
         style="stroke:#ff0000" />
      <path
         d="m 9.1,125.5 c 0,0.88366 -0.7163444,1.6 -1.6,1.6 -0.8836556,0 -1.6,-0.71634 -1.6,-1.6 0,-0.88366 0.7163444,-1.6 1.6,-1.6 0.8836556,0 1.6,0.71634 1.6,1.6 z"
         id="circle59"
         inkscape:connector-curvature="0"
         style="stroke:#ff0000" />
      <path
         d="m 44.660001,3 c 0,0.8836556 -0.716344,1.6 -1.6,1.6 -0.883655,0 -1.6,-0.7163444 -1.6,-1.6 0,-0.8836556 0.716345,-1.6 1.6,-1.6 0.883656,0 1.6,0.7163444 1.6,1.6 z"
         id="circle61"
         inkscape:connector-curvature="0"
         style="stroke:#ff0000" />
      <path
         d="m 44.660001,125.5 c 0,0.88366 -0.716344,1.6 -1.6,1.6 -0.883655,0 -1.6,-0.71634 -1.6,-1.6 0,-0.88366 0.716345,-1.6 1.6,-1.6 0.883656,0 1.6,0.71634 1.6,1.6 z"
         id="circle63"
         inkscape:connector-curvature="0"
         style="stroke:#ff0000" />
      <path
         d="m 12.55,15.05 c -2.6220187,0 -4.7546972,2.123364 -4.7546972,4.745368 0,2.143796 1.4261951,3.960351 3.3776012,4.54998 l 0,2.679746 2.642536,0 0,-2.651834 c 2.003484,-0.55658 3.479956,-2.397067 3.479956,-4.577892 C 17.295396,17.173364 15.172027,15.05 12.55,15.05 z"
         style="fill:none;stroke:#ff0000;stroke-width:0.09990668000000000"
         inkscape:connector-curvature="0"
         id="path65" />
      <path
         d="m 37.95,15.05 c -2.622019,0 -4.754697,2.123364 -4.754697,4.745368 0,2.143796 1.426195,3.960351 3.377601,4.54998 l 0,2.679746 2.642536,0 0,-2.651834 c 2.003484,-0.55658 3.479956,-2.397067 3.479956,-4.577892 C 42.695396,17.173364 40.572027,15.05 37.95,15.05 z"
         style="fill:none;stroke:#ff0000;stroke-width:0.09990668000000000"
         inkscape:connector-curvature="0"
         id="path113" />
      <path
         d="m 12.55,34.1 c -2.6220187,0 -4.7546972,2.123364 -4.7546972,4.745368 0,2.143796 1.4261951,3.960351 3.3776012,4.54998 l 0,2.679746 2.642536,0 0,-2.651834 c 2.003484,-0.55658 3.479956,-2.397067 3.479956,-4.577892 C 17.295396,36.223364 15.172027,34.1 12.55,34.1 z"
         style="fill:none;stroke:#ff0000;stroke-width:0.09990668000000000"
         inkscape:connector-curvature="0"
         id="path161" />
      <path
         d="m 37.95,34.1 c -2.622019,0 -4.754697,2.123364 -4.754697,4.745368 0,2.143796 1.426195,3.960351 3.377601,4.54998 l 0,2.679746 2.642536,0 0,-2.651834 c 2.003484,-0.55658 3.479956,-2.397067 3.479956,-4.577892 C 42.695396,36.223364 40.572027,34.1 37.95,34.1 z"
         style="fill:none;stroke:#ff0000;stroke-width:0.09990668000000000"
         inkscape:connector-curvature="0"
         id="path209" />
      <path
         d="m 12.55,53.15 c -2.6220187,0 -4.7546972,2.123364 -4.7546972,4.745368 0,2.143796 1.4261951,3.960351 3.3776012,4.54998 l 0,2.679746 2.642536,0 0,-2.651834 c 2.003484,-0.55658 3.479956,-2.397067 3.479956,-4.577892 C 17.295396,55.273364 15.172027,53.15 12.55,53.15 z"
         style="fill:none;stroke:#ff0000;stroke-width:0.09990668000000000"
         inkscape:connector-curvature="0"
         id="path257" />
      <path
         d="m 37.95,53.15 c -2.622019,0 -4.754697,2.123364 -4.754697,4.745368 0,2.143796 1.426195,3.960351 3.377601,4.54998 l 0,2.679746 2.642536,0 0,-2.651834 c 2.003484,-0.55658 3.479956,-2.397067 3.479956,-4.577892 C 42.695396,55.273364 40.572027,53.15 37.95,53.15 z"
         style="fill:none;stroke:#ff0000;stroke-width:0.09990668000000000"
         inkscape:connector-curvature="0"
         id="path305" />
      <path
         d="m 12.55,72.2 c -2.6220187,0 -4.7546972,2.123364 -4.7546972,4.745368 0,2.143796 1.4261951,3.960351 3.3776012,4.54998 l 0,2.679746 2.642536,0 0,-2.651834 c 2.003484,-0.55658 3.479956,-2.397067 3.479956,-4.577892 C 17.295396,74.323364 15.172027,72.2 12.55,72.2 z"
         style="fill:none;stroke:#ff0000;stroke-width:0.09990668000000000"
         inkscape:connector-curvature="0"
         id="path353" />
      <path
         d="m 37.95,72.2 c -2.622019,0 -4.754697,2.123364 -4.754697,4.745368 0,2.143796 1.426195,3.960351 3.377601,4.54998 l 0,2.679746 2.642536,0 0,-2.651834 c 2.003484,-0.55658 3.479956,-2.397067 3.479956,-4.577892 C 42.695396,74.323364 40.572027,72.2 37.95,72.2 z"
         style="fill:none;stroke:#ff0000;stroke-width:0.09990668000000000"
         inkscape:connector-curvature="0"
         id="path401" />
      <path
         d="m 9.4499998,96 c 0,1.794925 -1.4550746,3.25 -3.25,3.25 -1.7949254,0 -3.25,-1.455075 -3.25,-3.25 0,-1.794925 1.4550746,-3.25 3.25,-3.25 1.7949254,0 3.25,1.455075 3.25,3.25 z"
         id="circle449"
         inkscape:connector-curvature="0"
         style="stroke:#ff0000" />
      <path
         d="m 22.15,96 c 0,1.794925 -1.455075,3.25 -3.25,3.25 -1.794926,0 -3.25,-1.455075 -3.25,-3.25 0,-1.794925 1.455074,-3.25 3.25,-3.25 1.794925,0 3.25,1.455075 3.25,3.25 z"
         id="circle451"
         inkscape:connector-curvature="0"
         style="stroke:#ff0000" />
      <path
         d="m 34.85,96 c 0,1.794925 -1.455074,3.25 -3.25,3.25 -1.794925,0 -3.25,-1.455075 -3.25,-3.25 0,-1.794925 1.455075,-3.25 3.25,-3.25 1.794926,0 3.25,1.455075 3.25,3.25 z"
         id="circle453"
         inkscape:connector-curvature="0"
         style="stroke:#ff0000" />
      <path
         d="m 47.549999,96 c 0,1.794925 -1.455074,3.25 -3.25,3.25 -1.794925,0 -3.25,-1.455075 -3.25,-3.25 0,-1.794925 1.455075,-3.25 3.25,-3.25 1.794926,0 3.25,1.455075 3.25,3.25 z"
         id="circle455"
         inkscape:connector-curvature="0"
         style="stroke:#ff0000" />
      <path
         d="m 9.4499998,108.7 c 0,1.79492 -1.4550746,3.25 -3.25,3.25 -1.7949254,0 -3.25,-1.45508 -3.25,-3.25 0,-1.79493 1.4550746,-3.25 3.25,-3.25 1.7949254,0 3.25,1.45507 3.25,3.25 z"
         id="circle457"
         inkscape:connector-curvature="0"
         style="stroke:#ff0000" />
      <path
         d="m 22.15,108.7 c 0,1.79492 -1.455075,3.25 -3.25,3.25 -1.794926,0 -3.25,-1.45508 -3.25,-3.25 0,-1.79493 1.455074,-3.25 3.25,-3.25 1.794925,0 3.25,1.45507 3.25,3.25 z"
         id="circle459"
         inkscape:connector-curvature="0"
         style="stroke:#ff0000" />
      <path
         d="m 34.85,108.7 c 0,1.79492 -1.455074,3.25 -3.25,3.25 -1.794925,0 -3.25,-1.45508 -3.25,-3.25 0,-1.79493 1.455075,-3.25 3.25,-3.25 1.794926,0 3.25,1.45507 3.25,3.25 z"
         id="circle461"
         inkscape:connector-curvature="0"
         style="stroke:#ff0000" />
      <path
         d="m 47.549999,108.7 c 0,1.79492 -1.455074,3.25 -3.25,3.25 -1.794925,0 -3.25,-1.45508 -3.25,-3.25 0,-1.79493 1.455075,-3.25 3.25,-3.25 1.794926,0 3.25,1.45507 3.25,3.25 z"
         id="circle463"
         inkscape:connector-curvature="0"
         style="stroke:#ff0000" />
    </g>
    <g
       transform="translate(12.649999,188.3)"
       style="fill:none;stroke:#000000;stroke-width:0.237;stroke-miterlimit:4;stroke-opacity:1;stroke-dasharray:none;display:inline"
       id="g67">
      <path
         d="M -4.2037748,7.5814929 C -6.8346316,6.1114925 -8.6120123,3.3014922 -8.6120123,0.07148931 c 0,-4.75000381 3.8628404,-8.61000481 8.6282233,-8.61000481 4.764047,0 8.627555,3.8600011 8.627555,8.61000481 0,3.23000299 -1.780051,6.04000329 -4.414579,7.52000359"
         style="fill:none;stroke:#030303;stroke-width:0.1411"
         id="path69"
         inkscape:connector-curvature="0" />
      <path
         style="fill:none;stroke:#030303;stroke-width:0.21170001"
         d="m -2.440413,-9.0485165 0.216323,0.810001"
         id="path71"
         inkscape:connector-curvature="0" />
      <path
         style="fill:none;stroke:#030303;stroke-width:0.2832"
         d="m -5.1129926,-8.7785155 0.8080822,1.4000001"
         id="path73"
         inkscape:connector-curvature="0" />
      <path
         style="fill:none;stroke:#030303;stroke-width:0.21170001"
         d="m -6.6800914,-6.5985155 0.5891225,0.59"
         id="path75"
         inkscape:connector-curvature="0" />
      <path
         style="fill:none;stroke:#030303;stroke-width:0.2832"
         d="m -8.8466601,-5.0285155 1.3848552,0.8000013"
         id="path77"
         inkscape:connector-curvature="0" />
      <path
         style="fill:none;stroke:#030303;stroke-width:0.21170001"
         d="m -9.1267017,-2.3685125 0.8044106,0.2200004"
         id="path79"
         inkscape:connector-curvature="0" />
      <path
         style="fill:none;stroke:#030303;stroke-width:0.2832"
         d="m -10.221501,0.08148931 1.6061507,0"
         id="path81"
         inkscape:connector-curvature="0" />
      <path
         style="fill:none;stroke:#030303;stroke-width:0.21170001"
         d="M -9.1243652,2.5214918 -8.3199546,2.3014913"
         id="path83"
         inkscape:connector-curvature="0" />
      <path
         style="fill:none;stroke:#030303;stroke-width:0.2832"
         d="M -8.8489964,5.181492 -7.4574658,4.3814921"
         id="path85"
         inkscape:connector-curvature="0" />
      <path
         style="fill:none;stroke:#030303;stroke-width:0.21170001"
         d="m -6.6737496,6.7514925 0.5877873,-0.59"
         id="path87"
         inkscape:connector-curvature="0" />
      <path
         style="fill:none;stroke:#030303;stroke-width:0.2832"
         d="m -5.0742739,8.871494 0.776373,-1.3400011"
         id="path89"
         inkscape:connector-curvature="0" />
      <path
         style="fill:none;stroke:#030303;stroke-width:0.2832"
         d="M 5.113671,8.8814939 4.329988,7.5214929"
         id="path91"
         inkscape:connector-curvature="0" />
      <path
         style="fill:none;stroke:#030303;stroke-width:0.21170001"
         d="m 6.704836,6.7414925 -0.588789,-0.58"
         id="path93"
         inkscape:connector-curvature="0" />
      <path
         style="fill:none;stroke:#030303;stroke-width:0.2832"
         d="m 8.846371,5.1614921 -1.360155,-0.79"
         id="path95"
         inkscape:connector-curvature="0" />
      <path
         style="fill:none;stroke:#030303;stroke-width:0.21170001"
         d="M 9.151112,2.5114918 8.347402,2.2914913"
         id="path97"
         inkscape:connector-curvature="0" />
      <path
         style="fill:none;stroke:#030303;stroke-width:0.2832"
         d="m 10.195511,0.07148931 -1.555417,0"
         id="path99"
         inkscape:connector-curvature="0" />
      <path
         style="fill:none;stroke:#030303;stroke-width:0.21170001"
         d="M 9.148809,-2.3785126 8.344698,-2.1585121"
         id="path101"
         inkscape:connector-curvature="0" />
      <path
         style="fill:none;stroke:#030303;stroke-width:0.2832"
         d="M 8.836691,-5.0185155 7.482544,-4.2385142"
         id="path103"
         inkscape:connector-curvature="0" />
      <path
         style="fill:none;stroke:#030303;stroke-width:0.21170001"
         d="m 6.699128,-6.6085155 -0.588421,0.59"
         id="path105"
         inkscape:connector-curvature="0" />
      <path
         style="fill:none;stroke:#030303;stroke-width:0.2832"
         d="m 5.131729,-8.7785155 -0.80875,1.39"
         id="path107"
         inkscape:connector-curvature="0" />
      <path
         style="fill:none;stroke:#030303;stroke-width:0.21170001"
         d="m 2.456813,-9.0485165 -0.215288,0.800001"
         id="path109"
         inkscape:connector-curvature="0" />
      <path
         style="fill:none;stroke:#030303;stroke-width:0.2832"
         d="m 0.007833,-10.128517 0,1.5900015"
         id="path111"
         inkscape:connector-curvature="0" />
    </g>
    <g
       transform="translate(38.049998,188.3)"
       style="fill:none;stroke:#000000;stroke-width:0.237;stroke-miterlimit:4;stroke-opacity:1;stroke-dasharray:none;display:inline"
       id="g115">
      <path
         d="M -4.2037748,7.5814929 C -6.8346316,6.1114925 -8.6120123,3.3014922 -8.6120123,0.07148931 c 0,-4.75000381 3.8628404,-8.61000481 8.6282233,-8.61000481 4.764047,0 8.627555,3.8600011 8.627555,8.61000481 0,3.23000299 -1.780051,6.04000329 -4.414579,7.52000359"
         style="fill:none;stroke:#030303;stroke-width:0.1411"
         id="path117"
         inkscape:connector-curvature="0" />
      <path
         style="fill:none;stroke:#030303;stroke-width:0.21170001"
         d="m -2.440413,-9.0485165 0.216323,0.810001"
         id="path119"
         inkscape:connector-curvature="0" />
      <path
         style="fill:none;stroke:#030303;stroke-width:0.2832"
         d="m -5.1129926,-8.7785155 0.8080822,1.4000001"
         id="path121"
         inkscape:connector-curvature="0" />
      <path
         style="fill:none;stroke:#030303;stroke-width:0.21170001"
         d="m -6.6800914,-6.5985155 0.5891225,0.59"
         id="path123"
         inkscape:connector-curvature="0" />
      <path
         style="fill:none;stroke:#030303;stroke-width:0.2832"
         d="m -8.8466601,-5.0285155 1.3848552,0.8000013"
         id="path125"
         inkscape:connector-curvature="0" />
      <path
         style="fill:none;stroke:#030303;stroke-width:0.21170001"
         d="m -9.1267017,-2.3685125 0.8044106,0.2200004"
         id="path127"
         inkscape:connector-curvature="0" />
      <path
         style="fill:none;stroke:#030303;stroke-width:0.2832"
         d="m -10.221501,0.08148931 1.6061507,0"
         id="path129"
         inkscape:connector-curvature="0" />
      <path
         style="fill:none;stroke:#030303;stroke-width:0.21170001"
         d="M -9.1243652,2.5214918 -8.3199546,2.3014913"
         id="path131"
         inkscape:connector-curvature="0" />
      <path
         style="fill:none;stroke:#030303;stroke-width:0.2832"
         d="M -8.8489964,5.181492 -7.4574658,4.3814921"
         id="path133"
         inkscape:connector-curvature="0" />
      <path
         style="fill:none;stroke:#030303;stroke-width:0.21170001"
         d="m -6.6737496,6.7514925 0.5877873,-0.59"
         id="path135"
         inkscape:connector-curvature="0" />
      <path
         style="fill:none;stroke:#030303;stroke-width:0.2832"
         d="m -5.0742739,8.871494 0.776373,-1.3400011"
         id="path137"
         inkscape:connector-curvature="0" />
      <path
         style="fill:none;stroke:#030303;stroke-width:0.2832"
         d="M 5.113671,8.8814939 4.329988,7.5214929"
         id="path139"
         inkscape:connector-curvature="0" />
      <path
         style="fill:none;stroke:#030303;stroke-width:0.21170001"
         d="m 6.704836,6.7414925 -0.588789,-0.58"
         id="path141"
         inkscape:connector-curvature="0" />
      <path
         style="fill:none;stroke:#030303;stroke-width:0.2832"
         d="m 8.846371,5.1614921 -1.360155,-0.79"
         id="path143"
         inkscape:connector-curvature="0" />
      <path
         style="fill:none;stroke:#030303;stroke-width:0.21170001"
         d="M 9.151112,2.5114918 8.347402,2.2914913"
         id="path145"
         inkscape:connector-curvature="0" />
      <path
         style="fill:none;stroke:#030303;stroke-width:0.2832"
         d="m 10.195511,0.07148931 -1.555417,0"
         id="path147"
         inkscape:connector-curvature="0" />
      <path
         style="fill:none;stroke:#030303;stroke-width:0.21170001"
         d="M 9.148809,-2.3785126 8.344698,-2.1585121"
         id="path149"
         inkscape:connector-curvature="0" />
      <path
         style="fill:none;stroke:#030303;stroke-width:0.2832"
         d="M 8.836691,-5.0185155 7.482544,-4.2385142"
         id="path151"
         inkscape:connector-curvature="0" />
      <path
         style="fill:none;stroke:#030303;stroke-width:0.21170001"
         d="m 6.699128,-6.6085155 -0.588421,0.59"
         id="path153"
         inkscape:connector-curvature="0" />
      <path
         style="fill:none;stroke:#030303;stroke-width:0.2832"
         d="m 5.131729,-8.7785155 -0.80875,1.39"
         id="path155"
         inkscape:connector-curvature="0" />
      <path
         style="fill:none;stroke:#030303;stroke-width:0.21170001"
         d="m 2.456813,-9.0485165 -0.215288,0.800001"
         id="path157"
         inkscape:connector-curvature="0" />
      <path
         style="fill:none;stroke:#030303;stroke-width:0.2832"
         d="m 0.007833,-10.128517 0,1.5900015"
         id="path159"
         inkscape:connector-curvature="0" />
    </g>
    <g
       transform="translate(12.649999,207.35)"
       style="fill:none;stroke:#000000;stroke-width:0.237;stroke-miterlimit:4;stroke-opacity:1;stroke-dasharray:none;display:inline"
       id="g163">
      <path
         d="M -4.2037748,7.5814929 C -6.8346316,6.1114925 -8.6120123,3.3014922 -8.6120123,0.07148931 c 0,-4.75000381 3.8628404,-8.61000481 8.6282233,-8.61000481 4.764047,0 8.627555,3.8600011 8.627555,8.61000481 0,3.23000299 -1.780051,6.04000329 -4.414579,7.52000359"
         style="fill:none;stroke:#030303;stroke-width:0.1411"
         id="path165"
         inkscape:connector-curvature="0" />
      <path
         style="fill:none;stroke:#030303;stroke-width:0.21170001"
         d="m -2.440413,-9.0485165 0.216323,0.810001"
         id="path167"
         inkscape:connector-curvature="0" />
      <path
         style="fill:none;stroke:#030303;stroke-width:0.2832"
         d="m -5.1129926,-8.7785155 0.8080822,1.4000001"
         id="path169"
         inkscape:connector-curvature="0" />
      <path
         style="fill:none;stroke:#030303;stroke-width:0.21170001"
         d="m -6.6800914,-6.5985155 0.5891225,0.59"
         id="path171"
         inkscape:connector-curvature="0" />
      <path
         style="fill:none;stroke:#030303;stroke-width:0.2832"
         d="m -8.8466601,-5.0285155 1.3848552,0.8000013"
         id="path173"
         inkscape:connector-curvature="0" />
      <path
         style="fill:none;stroke:#030303;stroke-width:0.21170001"
         d="m -9.1267017,-2.3685125 0.8044106,0.2200004"
         id="path175"
         inkscape:connector-curvature="0" />
      <path
         style="fill:none;stroke:#030303;stroke-width:0.2832"
         d="m -10.221501,0.08148931 1.6061507,0"
         id="path177"
         inkscape:connector-curvature="0" />
      <path
         style="fill:none;stroke:#030303;stroke-width:0.21170001"
         d="M -9.1243652,2.5214918 -8.3199546,2.3014913"
         id="path179"
         inkscape:connector-curvature="0" />
      <path
         style="fill:none;stroke:#030303;stroke-width:0.2832"
         d="M -8.8489964,5.181492 -7.4574658,4.3814921"
         id="path181"
         inkscape:connector-curvature="0" />
      <path
         style="fill:none;stroke:#030303;stroke-width:0.21170001"
         d="m -6.6737496,6.7514925 0.5877873,-0.59"
         id="path183"
         inkscape:connector-curvature="0" />
      <path
         style="fill:none;stroke:#030303;stroke-width:0.2832"
         d="m -5.0742739,8.871494 0.776373,-1.3400011"
         id="path185"
         inkscape:connector-curvature="0" />
      <path
         style="fill:none;stroke:#030303;stroke-width:0.2832"
         d="M 5.113671,8.8814939 4.329988,7.5214929"
         id="path187"
         inkscape:connector-curvature="0" />
      <path
         style="fill:none;stroke:#030303;stroke-width:0.21170001"
         d="m 6.704836,6.7414925 -0.588789,-0.58"
         id="path189"
         inkscape:connector-curvature="0" />
      <path
         style="fill:none;stroke:#030303;stroke-width:0.2832"
         d="m 8.846371,5.1614921 -1.360155,-0.79"
         id="path191"
         inkscape:connector-curvature="0" />
      <path
         style="fill:none;stroke:#030303;stroke-width:0.21170001"
         d="M 9.151112,2.5114918 8.347402,2.2914913"
         id="path193"
         inkscape:connector-curvature="0" />
      <path
         style="fill:none;stroke:#030303;stroke-width:0.2832"
         d="m 10.195511,0.07148931 -1.555417,0"
         id="path195"
         inkscape:connector-curvature="0" />
      <path
         style="fill:none;stroke:#030303;stroke-width:0.21170001"
         d="M 9.148809,-2.3785126 8.344698,-2.1585121"
         id="path197"
         inkscape:connector-curvature="0" />
      <path
         style="fill:none;stroke:#030303;stroke-width:0.2832"
         d="M 8.836691,-5.0185155 7.482544,-4.2385142"
         id="path199"
         inkscape:connector-curvature="0" />
      <path
         style="fill:none;stroke:#030303;stroke-width:0.21170001"
         d="m 6.699128,-6.6085155 -0.588421,0.59"
         id="path201"
         inkscape:connector-curvature="0" />
      <path
         style="fill:none;stroke:#030303;stroke-width:0.2832"
         d="m 5.131729,-8.7785155 -0.80875,1.39"
         id="path203"
         inkscape:connector-curvature="0" />
      <path
         style="fill:none;stroke:#030303;stroke-width:0.21170001"
         d="m 2.456813,-9.0485165 -0.215288,0.800001"
         id="path205"
         inkscape:connector-curvature="0" />
      <path
         style="fill:none;stroke:#030303;stroke-width:0.2832"
         d="m 0.007833,-10.128517 0,1.5900015"
         id="path207"
         inkscape:connector-curvature="0" />
    </g>
    <g
       transform="translate(38.049998,207.35)"
       style="fill:none;stroke:#000000;stroke-width:0.237;stroke-miterlimit:4;stroke-opacity:1;stroke-dasharray:none;display:inline"
       id="g211">
      <path
         d="M -4.2037748,7.5814929 C -6.8346316,6.1114925 -8.6120123,3.3014922 -8.6120123,0.07148931 c 0,-4.75000381 3.8628404,-8.61000481 8.6282233,-8.61000481 4.764047,0 8.627555,3.8600011 8.627555,8.61000481 0,3.23000299 -1.780051,6.04000329 -4.414579,7.52000359"
         style="fill:none;stroke:#030303;stroke-width:0.1411"
         id="path213"
         inkscape:connector-curvature="0" />
      <path
         style="fill:none;stroke:#030303;stroke-width:0.21170001"
         d="m -2.440413,-9.0485165 0.216323,0.810001"
         id="path215"
         inkscape:connector-curvature="0" />
      <path
         style="fill:none;stroke:#030303;stroke-width:0.2832"
         d="m -5.1129926,-8.7785155 0.8080822,1.4000001"
         id="path217"
         inkscape:connector-curvature="0" />
      <path
         style="fill:none;stroke:#030303;stroke-width:0.21170001"
         d="m -6.6800914,-6.5985155 0.5891225,0.59"
         id="path219"
         inkscape:connector-curvature="0" />
      <path
         style="fill:none;stroke:#030303;stroke-width:0.2832"
         d="m -8.8466601,-5.0285155 1.3848552,0.8000013"
         id="path221"
         inkscape:connector-curvature="0" />
      <path
         style="fill:none;stroke:#030303;stroke-width:0.21170001"
         d="m -9.1267017,-2.3685125 0.8044106,0.2200004"
         id="path223"
         inkscape:connector-curvature="0" />
      <path
         style="fill:none;stroke:#030303;stroke-width:0.2832"
         d="m -10.221501,0.08148931 1.6061507,0"
         id="path225"
         inkscape:connector-curvature="0" />
      <path
         style="fill:none;stroke:#030303;stroke-width:0.21170001"
         d="M -9.1243652,2.5214918 -8.3199546,2.3014913"
         id="path227"
         inkscape:connector-curvature="0" />
      <path
         style="fill:none;stroke:#030303;stroke-width:0.2832"
         d="M -8.8489964,5.181492 -7.4574658,4.3814921"
         id="path229"
         inkscape:connector-curvature="0" />
      <path
         style="fill:none;stroke:#030303;stroke-width:0.21170001"
         d="m -6.6737496,6.7514925 0.5877873,-0.59"
         id="path231"
         inkscape:connector-curvature="0" />
      <path
         style="fill:none;stroke:#030303;stroke-width:0.2832"
         d="m -5.0742739,8.871494 0.776373,-1.3400011"
         id="path233"
         inkscape:connector-curvature="0" />
      <path
         style="fill:none;stroke:#030303;stroke-width:0.2832"
         d="M 5.113671,8.8814939 4.329988,7.5214929"
         id="path235"
         inkscape:connector-curvature="0" />
      <path
         style="fill:none;stroke:#030303;stroke-width:0.21170001"
         d="m 6.704836,6.7414925 -0.588789,-0.58"
         id="path237"
         inkscape:connector-curvature="0" />
      <path
         style="fill:none;stroke:#030303;stroke-width:0.2832"
         d="m 8.846371,5.1614921 -1.360155,-0.79"
         id="path239"
         inkscape:connector-curvature="0" />
      <path
         style="fill:none;stroke:#030303;stroke-width:0.21170001"
         d="M 9.151112,2.5114918 8.347402,2.2914913"
         id="path241"
         inkscape:connector-curvature="0" />
      <path
         style="fill:none;stroke:#030303;stroke-width:0.2832"
         d="m 10.195511,0.07148931 -1.555417,0"
         id="path243"
         inkscape:connector-curvature="0" />
      <path
         style="fill:none;stroke:#030303;stroke-width:0.21170001"
         d="M 9.148809,-2.3785126 8.344698,-2.1585121"
         id="path245"
         inkscape:connector-curvature="0" />
      <path
         style="fill:none;stroke:#030303;stroke-width:0.2832"
         d="M 8.836691,-5.0185155 7.482544,-4.2385142"
         id="path247"
         inkscape:connector-curvature="0" />
      <path
         style="fill:none;stroke:#030303;stroke-width:0.21170001"
         d="m 6.699128,-6.6085155 -0.588421,0.59"
         id="path249"
         inkscape:connector-curvature="0" />
      <path
         style="fill:none;stroke:#030303;stroke-width:0.2832"
         d="m 5.131729,-8.7785155 -0.80875,1.39"
         id="path251"
         inkscape:connector-curvature="0" />
      <path
         style="fill:none;stroke:#030303;stroke-width:0.21170001"
         d="m 2.456813,-9.0485165 -0.215288,0.800001"
         id="path253"
         inkscape:connector-curvature="0" />
      <path
         style="fill:none;stroke:#030303;stroke-width:0.2832"
         d="m 0.007833,-10.128517 0,1.5900015"
         id="path255"
         inkscape:connector-curvature="0" />
    </g>
    <g
       transform="translate(12.649999,226.4)"
       style="fill:none;stroke:#000000;stroke-width:0.237;stroke-miterlimit:4;stroke-opacity:1;stroke-dasharray:none;display:inline"
       id="g259">
      <path
         d="M -4.2037748,7.5814929 C -6.8346316,6.1114925 -8.6120123,3.3014922 -8.6120123,0.07148931 c 0,-4.75000381 3.8628404,-8.61000481 8.6282233,-8.61000481 4.764047,0 8.627555,3.8600011 8.627555,8.61000481 0,3.23000299 -1.780051,6.04000329 -4.414579,7.52000359"
         style="fill:none;stroke:#030303;stroke-width:0.1411"
         id="path261"
         inkscape:connector-curvature="0" />
      <path
         style="fill:none;stroke:#030303;stroke-width:0.21170001"
         d="m -2.440413,-9.0485165 0.216323,0.810001"
         id="path263"
         inkscape:connector-curvature="0" />
      <path
         style="fill:none;stroke:#030303;stroke-width:0.2832"
         d="m -5.1129926,-8.7785155 0.8080822,1.4000001"
         id="path265"
         inkscape:connector-curvature="0" />
      <path
         style="fill:none;stroke:#030303;stroke-width:0.21170001"
         d="m -6.6800914,-6.5985155 0.5891225,0.59"
         id="path267"
         inkscape:connector-curvature="0" />
      <path
         style="fill:none;stroke:#030303;stroke-width:0.2832"
         d="m -8.8466601,-5.0285155 1.3848552,0.8000013"
         id="path269"
         inkscape:connector-curvature="0" />
      <path
         style="fill:none;stroke:#030303;stroke-width:0.21170001"
         d="m -9.1267017,-2.3685125 0.8044106,0.2200004"
         id="path271"
         inkscape:connector-curvature="0" />
      <path
         style="fill:none;stroke:#030303;stroke-width:0.2832"
         d="m -10.221501,0.08148931 1.6061507,0"
         id="path273"
         inkscape:connector-curvature="0" />
      <path
         style="fill:none;stroke:#030303;stroke-width:0.21170001"
         d="M -9.1243652,2.5214918 -8.3199546,2.3014913"
         id="path275"
         inkscape:connector-curvature="0" />
      <path
         style="fill:none;stroke:#030303;stroke-width:0.2832"
         d="M -8.8489964,5.181492 -7.4574658,4.3814921"
         id="path277"
         inkscape:connector-curvature="0" />
      <path
         style="fill:none;stroke:#030303;stroke-width:0.21170001"
         d="m -6.6737496,6.7514925 0.5877873,-0.59"
         id="path279"
         inkscape:connector-curvature="0" />
      <path
         style="fill:none;stroke:#030303;stroke-width:0.2832"
         d="m -5.0742739,8.871494 0.776373,-1.3400011"
         id="path281"
         inkscape:connector-curvature="0" />
      <path
         style="fill:none;stroke:#030303;stroke-width:0.2832"
         d="M 5.113671,8.8814939 4.329988,7.5214929"
         id="path283"
         inkscape:connector-curvature="0" />
      <path
         style="fill:none;stroke:#030303;stroke-width:0.21170001"
         d="m 6.704836,6.7414925 -0.588789,-0.58"
         id="path285"
         inkscape:connector-curvature="0" />
      <path
         style="fill:none;stroke:#030303;stroke-width:0.2832"
         d="m 8.846371,5.1614921 -1.360155,-0.79"
         id="path287"
         inkscape:connector-curvature="0" />
      <path
         style="fill:none;stroke:#030303;stroke-width:0.21170001"
         d="M 9.151112,2.5114918 8.347402,2.2914913"
         id="path289"
         inkscape:connector-curvature="0" />
      <path
         style="fill:none;stroke:#030303;stroke-width:0.2832"
         d="m 10.195511,0.07148931 -1.555417,0"
         id="path291"
         inkscape:connector-curvature="0" />
      <path
         style="fill:none;stroke:#030303;stroke-width:0.21170001"
         d="M 9.148809,-2.3785126 8.344698,-2.1585121"
         id="path293"
         inkscape:connector-curvature="0" />
      <path
         style="fill:none;stroke:#030303;stroke-width:0.2832"
         d="M 8.836691,-5.0185155 7.482544,-4.2385142"
         id="path295"
         inkscape:connector-curvature="0" />
      <path
         style="fill:none;stroke:#030303;stroke-width:0.21170001"
         d="m 6.699128,-6.6085155 -0.588421,0.59"
         id="path297"
         inkscape:connector-curvature="0" />
      <path
         style="fill:none;stroke:#030303;stroke-width:0.2832"
         d="m 5.131729,-8.7785155 -0.80875,1.39"
         id="path299"
         inkscape:connector-curvature="0" />
      <path
         style="fill:none;stroke:#030303;stroke-width:0.21170001"
         d="m 2.456813,-9.0485165 -0.215288,0.800001"
         id="path301"
         inkscape:connector-curvature="0" />
      <path
         style="fill:none;stroke:#030303;stroke-width:0.2832"
         d="m 0.007833,-10.128517 0,1.5900015"
         id="path303"
         inkscape:connector-curvature="0" />
    </g>
    <g
       transform="translate(38.049998,226.4)"
       style="fill:none;stroke:#000000;stroke-width:0.237;stroke-miterlimit:4;stroke-opacity:1;stroke-dasharray:none;display:inline"
       id="g307">
      <path
         d="M -4.2037748,7.5814929 C -6.8346316,6.1114925 -8.6120123,3.3014922 -8.6120123,0.07148931 c 0,-4.75000381 3.8628404,-8.61000481 8.6282233,-8.61000481 4.764047,0 8.627555,3.8600011 8.627555,8.61000481 0,3.23000299 -1.780051,6.04000329 -4.414579,7.52000359"
         style="fill:none;stroke:#030303;stroke-width:0.1411"
         id="path309"
         inkscape:connector-curvature="0" />
      <path
         style="fill:none;stroke:#030303;stroke-width:0.21170001"
         d="m -2.440413,-9.0485165 0.216323,0.810001"
         id="path311"
         inkscape:connector-curvature="0" />
      <path
         style="fill:none;stroke:#030303;stroke-width:0.2832"
         d="m -5.1129926,-8.7785155 0.8080822,1.4000001"
         id="path313"
         inkscape:connector-curvature="0" />
      <path
         style="fill:none;stroke:#030303;stroke-width:0.21170001"
         d="m -6.6800914,-6.5985155 0.5891225,0.59"
         id="path315"
         inkscape:connector-curvature="0" />
      <path
         style="fill:none;stroke:#030303;stroke-width:0.2832"
         d="m -8.8466601,-5.0285155 1.3848552,0.8000013"
         id="path317"
         inkscape:connector-curvature="0" />
      <path
         style="fill:none;stroke:#030303;stroke-width:0.21170001"
         d="m -9.1267017,-2.3685125 0.8044106,0.2200004"
         id="path319"
         inkscape:connector-curvature="0" />
      <path
         style="fill:none;stroke:#030303;stroke-width:0.2832"
         d="m -10.221501,0.08148931 1.6061507,0"
         id="path321"
         inkscape:connector-curvature="0" />
      <path
         style="fill:none;stroke:#030303;stroke-width:0.21170001"
         d="M -9.1243652,2.5214918 -8.3199546,2.3014913"
         id="path323"
         inkscape:connector-curvature="0" />
      <path
         style="fill:none;stroke:#030303;stroke-width:0.2832"
         d="M -8.8489964,5.181492 -7.4574658,4.3814921"
         id="path325"
         inkscape:connector-curvature="0" />
      <path
         style="fill:none;stroke:#030303;stroke-width:0.21170001"
         d="m -6.6737496,6.7514925 0.5877873,-0.59"
         id="path327"
         inkscape:connector-curvature="0" />
      <path
         style="fill:none;stroke:#030303;stroke-width:0.2832"
         d="m -5.0742739,8.871494 0.776373,-1.3400011"
         id="path329"
         inkscape:connector-curvature="0" />
      <path
         style="fill:none;stroke:#030303;stroke-width:0.2832"
         d="M 5.113671,8.8814939 4.329988,7.5214929"
         id="path331"
         inkscape:connector-curvature="0" />
      <path
         style="fill:none;stroke:#030303;stroke-width:0.21170001"
         d="m 6.704836,6.7414925 -0.588789,-0.58"
         id="path333"
         inkscape:connector-curvature="0" />
      <path
         style="fill:none;stroke:#030303;stroke-width:0.2832"
         d="m 8.846371,5.1614921 -1.360155,-0.79"
         id="path335"
         inkscape:connector-curvature="0" />
      <path
         style="fill:none;stroke:#030303;stroke-width:0.21170001"
         d="M 9.151112,2.5114918 8.347402,2.2914913"
         id="path337"
         inkscape:connector-curvature="0" />
      <path
         style="fill:none;stroke:#030303;stroke-width:0.2832"
         d="m 10.195511,0.07148931 -1.555417,0"
         id="path339"
         inkscape:connector-curvature="0" />
      <path
         style="fill:none;stroke:#030303;stroke-width:0.21170001"
         d="M 9.148809,-2.3785126 8.344698,-2.1585121"
         id="path341"
         inkscape:connector-curvature="0" />
      <path
         style="fill:none;stroke:#030303;stroke-width:0.2832"
         d="M 8.836691,-5.0185155 7.482544,-4.2385142"
         id="path343"
         inkscape:connector-curvature="0" />
      <path
         style="fill:none;stroke:#030303;stroke-width:0.21170001"
         d="m 6.699128,-6.6085155 -0.588421,0.59"
         id="path345"
         inkscape:connector-curvature="0" />
      <path
         style="fill:none;stroke:#030303;stroke-width:0.2832"
         d="m 5.131729,-8.7785155 -0.80875,1.39"
         id="path347"
         inkscape:connector-curvature="0" />
      <path
         style="fill:none;stroke:#030303;stroke-width:0.21170001"
         d="m 2.456813,-9.0485165 -0.215288,0.800001"
         id="path349"
         inkscape:connector-curvature="0" />
      <path
         style="fill:none;stroke:#030303;stroke-width:0.2832"
         d="m 0.007833,-10.128517 0,1.5900015"
         id="path351"
         inkscape:connector-curvature="0" />
    </g>
    <g
       transform="translate(12.649999,245.45)"
       style="fill:none;stroke:#000000;stroke-width:0.237;stroke-miterlimit:4;stroke-opacity:1;stroke-dasharray:none;display:inline"
       id="g355">
      <path
         d="M -4.2037748,7.5814929 C -6.8346316,6.1114925 -8.6120123,3.3014922 -8.6120123,0.07148931 c 0,-4.75000381 3.8628404,-8.61000481 8.6282233,-8.61000481 4.764047,0 8.627555,3.8600011 8.627555,8.61000481 0,3.23000299 -1.780051,6.04000329 -4.414579,7.52000359"
         style="fill:none;stroke:#030303;stroke-width:0.1411"
         id="path357"
         inkscape:connector-curvature="0" />
      <path
         style="fill:none;stroke:#030303;stroke-width:0.21170001"
         d="m -2.440413,-9.0485165 0.216323,0.810001"
         id="path359"
         inkscape:connector-curvature="0" />
      <path
         style="fill:none;stroke:#030303;stroke-width:0.2832"
         d="m -5.1129926,-8.7785155 0.8080822,1.4000001"
         id="path361"
         inkscape:connector-curvature="0" />
      <path
         style="fill:none;stroke:#030303;stroke-width:0.21170001"
         d="m -6.6800914,-6.5985155 0.5891225,0.59"
         id="path363"
         inkscape:connector-curvature="0" />
      <path
         style="fill:none;stroke:#030303;stroke-width:0.2832"
         d="m -8.8466601,-5.0285155 1.3848552,0.8000013"
         id="path365"
         inkscape:connector-curvature="0" />
      <path
         style="fill:none;stroke:#030303;stroke-width:0.21170001"
         d="m -9.1267017,-2.3685125 0.8044106,0.2200004"
         id="path367"
         inkscape:connector-curvature="0" />
      <path
         style="fill:none;stroke:#030303;stroke-width:0.2832"
         d="m -10.221501,0.08148931 1.6061507,0"
         id="path369"
         inkscape:connector-curvature="0" />
      <path
         style="fill:none;stroke:#030303;stroke-width:0.21170001"
         d="M -9.1243652,2.5214918 -8.3199546,2.3014913"
         id="path371"
         inkscape:connector-curvature="0" />
      <path
         style="fill:none;stroke:#030303;stroke-width:0.2832"
         d="M -8.8489964,5.181492 -7.4574658,4.3814921"
         id="path373"
         inkscape:connector-curvature="0" />
      <path
         style="fill:none;stroke:#030303;stroke-width:0.21170001"
         d="m -6.6737496,6.7514925 0.5877873,-0.59"
         id="path375"
         inkscape:connector-curvature="0" />
      <path
         style="fill:none;stroke:#030303;stroke-width:0.2832"
         d="m -5.0742739,8.871494 0.776373,-1.3400011"
         id="path377"
         inkscape:connector-curvature="0" />
      <path
         style="fill:none;stroke:#030303;stroke-width:0.2832"
         d="M 5.113671,8.8814939 4.329988,7.5214929"
         id="path379"
         inkscape:connector-curvature="0" />
      <path
         style="fill:none;stroke:#030303;stroke-width:0.21170001"
         d="m 6.704836,6.7414925 -0.588789,-0.58"
         id="path381"
         inkscape:connector-curvature="0" />
      <path
         style="fill:none;stroke:#030303;stroke-width:0.2832"
         d="m 8.846371,5.1614921 -1.360155,-0.79"
         id="path383"
         inkscape:connector-curvature="0" />
      <path
         style="fill:none;stroke:#030303;stroke-width:0.21170001"
         d="M 9.151112,2.5114918 8.347402,2.2914913"
         id="path385"
         inkscape:connector-curvature="0" />
      <path
         style="fill:none;stroke:#030303;stroke-width:0.2832"
         d="m 10.195511,0.07148931 -1.555417,0"
         id="path387"
         inkscape:connector-curvature="0" />
      <path
         style="fill:none;stroke:#030303;stroke-width:0.21170001"
         d="M 9.148809,-2.3785126 8.344698,-2.1585121"
         id="path389"
         inkscape:connector-curvature="0" />
      <path
         style="fill:none;stroke:#030303;stroke-width:0.2832"
         d="M 8.836691,-5.0185155 7.482544,-4.2385142"
         id="path391"
         inkscape:connector-curvature="0" />
      <path
         style="fill:none;stroke:#030303;stroke-width:0.21170001"
         d="m 6.699128,-6.6085155 -0.588421,0.59"
         id="path393"
         inkscape:connector-curvature="0" />
      <path
         style="fill:none;stroke:#030303;stroke-width:0.2832"
         d="m 5.131729,-8.7785155 -0.80875,1.39"
         id="path395"
         inkscape:connector-curvature="0" />
      <path
         style="fill:none;stroke:#030303;stroke-width:0.21170001"
         d="m 2.456813,-9.0485165 -0.215288,0.800001"
         id="path397"
         inkscape:connector-curvature="0" />
      <path
         style="fill:none;stroke:#030303;stroke-width:0.2832"
         d="m 0.007833,-10.128517 0,1.5900015"
         id="path399"
         inkscape:connector-curvature="0" />
    </g>
    <g
       transform="translate(38.049998,245.45)"
       style="fill:none;stroke:#000000;stroke-width:0.237;stroke-miterlimit:4;stroke-opacity:1;stroke-dasharray:none;display:inline"
       id="g403">
      <path
         d="M -4.2037748,7.5814929 C -6.8346316,6.1114925 -8.6120123,3.3014922 -8.6120123,0.07148931 c 0,-4.75000381 3.8628404,-8.61000481 8.6282233,-8.61000481 4.764047,0 8.627555,3.8600011 8.627555,8.61000481 0,3.23000299 -1.780051,6.04000329 -4.414579,7.52000359"
         style="fill:none;stroke:#030303;stroke-width:0.1411"
         id="path405"
         inkscape:connector-curvature="0" />
      <path
         style="fill:none;stroke:#030303;stroke-width:0.21170001"
         d="m -2.440413,-9.0485165 0.216323,0.810001"
         id="path407"
         inkscape:connector-curvature="0" />
      <path
         style="fill:none;stroke:#030303;stroke-width:0.2832"
         d="m -5.1129926,-8.7785155 0.8080822,1.4000001"
         id="path409"
         inkscape:connector-curvature="0" />
      <path
         style="fill:none;stroke:#030303;stroke-width:0.21170001"
         d="m -6.6800914,-6.5985155 0.5891225,0.59"
         id="path411"
         inkscape:connector-curvature="0" />
      <path
         style="fill:none;stroke:#030303;stroke-width:0.2832"
         d="m -8.8466601,-5.0285155 1.3848552,0.8000013"
         id="path413"
         inkscape:connector-curvature="0" />
      <path
         style="fill:none;stroke:#030303;stroke-width:0.21170001"
         d="m -9.1267017,-2.3685125 0.8044106,0.2200004"
         id="path415"
         inkscape:connector-curvature="0" />
      <path
         style="fill:none;stroke:#030303;stroke-width:0.2832"
         d="m -10.221501,0.08148931 1.6061507,0"
         id="path417"
         inkscape:connector-curvature="0" />
      <path
         style="fill:none;stroke:#030303;stroke-width:0.21170001"
         d="M -9.1243652,2.5214918 -8.3199546,2.3014913"
         id="path419"
         inkscape:connector-curvature="0" />
      <path
         style="fill:none;stroke:#030303;stroke-width:0.2832"
         d="M -8.8489964,5.181492 -7.4574658,4.3814921"
         id="path421"
         inkscape:connector-curvature="0" />
      <path
         style="fill:none;stroke:#030303;stroke-width:0.21170001"
         d="m -6.6737496,6.7514925 0.5877873,-0.59"
         id="path423"
         inkscape:connector-curvature="0" />
      <path
         style="fill:none;stroke:#030303;stroke-width:0.2832"
         d="m -5.0742739,8.871494 0.776373,-1.3400011"
         id="path425"
         inkscape:connector-curvature="0" />
      <path
         style="fill:none;stroke:#030303;stroke-width:0.2832"
         d="M 5.113671,8.8814939 4.329988,7.5214929"
         id="path427"
         inkscape:connector-curvature="0" />
      <path
         style="fill:none;stroke:#030303;stroke-width:0.21170001"
         d="m 6.704836,6.7414925 -0.588789,-0.58"
         id="path429"
         inkscape:connector-curvature="0" />
      <path
         style="fill:none;stroke:#030303;stroke-width:0.2832"
         d="m 8.846371,5.1614921 -1.360155,-0.79"
         id="path431"
         inkscape:connector-curvature="0" />
      <path
         style="fill:none;stroke:#030303;stroke-width:0.21170001"
         d="M 9.151112,2.5114918 8.347402,2.2914913"
         id="path433"
         inkscape:connector-curvature="0" />
      <path
         style="fill:none;stroke:#030303;stroke-width:0.2832"
         d="m 10.195511,0.07148931 -1.555417,0"
         id="path435"
         inkscape:connector-curvature="0" />
      <path
         style="fill:none;stroke:#030303;stroke-width:0.21170001"
         d="M 9.148809,-2.3785126 8.344698,-2.1585121"
         id="path437"
         inkscape:connector-curvature="0" />
      <path
         style="fill:none;stroke:#030303;stroke-width:0.2832"
         d="M 8.836691,-5.0185155 7.482544,-4.2385142"
         id="path439"
         inkscape:connector-curvature="0" />
      <path
         style="fill:none;stroke:#030303;stroke-width:0.21170001"
         d="m 6.699128,-6.6085155 -0.588421,0.59"
         id="path441"
         inkscape:connector-curvature="0" />
      <path
         style="fill:none;stroke:#030303;stroke-width:0.2832"
         d="m 5.131729,-8.7785155 -0.80875,1.39"
         id="path443"
         inkscape:connector-curvature="0" />
      <path
         style="fill:none;stroke:#030303;stroke-width:0.21170001"
         d="m 2.456813,-9.0485165 -0.215288,0.800001"
         id="path445"
         inkscape:connector-curvature="0" />
      <path
         style="fill:none;stroke:#030303;stroke-width:0.2832"
         d="m 0.007833,-10.128517 0,1.5900015"
         id="path447"
         inkscape:connector-curvature="0" />
    </g>
  </g>
  <g
     inkscape:groupmode="layer"
     id="layer1"
     inkscape:label="Engrave"
     style="display:inline">
    <g
       style="font-size:2.82222223px;font-style:normal;font-variant:normal;font-weight:normal;font-stretch:normal;text-align:start;line-height:125%;letter-spacing:0px;word-spacing:0px;writing-mode:lr-tb;text-anchor:start;fill:#000000;fill-opacity:1;stroke:none;display:inline;font-family:Saab;-inkscape-font-specification:Saab"
       id="text3479">
      <path
         d="m 6.426846,282.47503 -0.3775825,1.02388 0.756543,0 -0.3789605,-1.02388 m -0.1570964,-0.27423 0.3155708,0 0.7841037,2.05741 -0.289388,0 -0.1874132,-0.52779 -0.9274197,0 -0.1874132,0.52779 -0.2935222,0 0.7854818,-2.05741"
         id="path5111"
         inkscape:connector-curvature="0" />
      <path
         d="m 8.701987,283.41485 0,0.13505 -1.1355035,0 0,-0.13505 1.1355035,0"
         id="path5113"
         inkscape:connector-curvature="0" />
    </g>
    <g
       style="font-size:2.82222223px;font-style:normal;font-variant:normal;font-weight:normal;font-stretch:normal;text-align:start;line-height:125%;letter-spacing:0px;word-spacing:0px;writing-mode:lr-tb;text-anchor:start;fill:#000000;fill-opacity:1;stroke:none;display:inline;font-family:Saab;-inkscape-font-specification:Saab"
       id="text3483">
      <path
         d="m 18.28018,282.47503 -0.377582,1.02388 0.756543,0 -0.378961,-1.02388 m -0.157096,-0.27423 0.315571,0 0.784104,2.05741 -0.289388,0 -0.187414,-0.52779 -0.927419,0 -0.187414,0.52779 -0.293522,0 0.785482,-2.05741"
         id="path5116"
         inkscape:connector-curvature="0" />
      <path
         d="m 20.053716,282.91324 0,0.50161 0.501605,0 0,0.13505 -0.501605,0 0,0.49885 -0.13367,0 0,-0.49885 -0.500228,0 0,-0.13505 0.500228,0 0,-0.50161 0.13367,0"
         id="path5118"
         inkscape:connector-curvature="0" />
    </g>
    <g
       style="font-size:2.82222223px;font-style:normal;font-variant:normal;font-weight:normal;font-stretch:normal;text-align:start;line-height:125%;letter-spacing:0px;word-spacing:0px;writing-mode:lr-tb;text-anchor:start;fill:#000000;fill-opacity:1;stroke:none;display:inline;font-family:Saab;-inkscape-font-specification:Saab"
       id="text3491">
      <path
         d="m 31.417555,283.27567 0,0.75378 0.446484,0 c 0.149746,10e-6 0.260448,-0.0308 0.332107,-0.0923 0.07258,-0.0625 0.108864,-0.15756 0.108866,-0.28526 -2e-6,-0.12861 -0.03629,-0.22324 -0.108866,-0.28387 -0.07166,-0.0616 -0.182361,-0.0923 -0.332107,-0.0923 l -0.446484,0 m 0,-0.84612 0,0.62012 0.412033,0 c 0.135966,0 0.237022,-0.0253 0.303169,-0.0758 0.06706,-0.0514 0.100595,-0.12954 0.100597,-0.23427 -2e-6,-0.10381 -0.03353,-0.18144 -0.100597,-0.23289 -0.06615,-0.0514 -0.167203,-0.0772 -0.303169,-0.0772 l -0.412033,0 m -0.278364,-0.22875 0.711068,0 c 0.212217,0 0.375744,0.0441 0.490581,0.13229 0.114835,0.0882 0.172254,0.2136 0.172255,0.3762 -10e-7,0.12587 -0.0294,0.226 -0.08819,0.30042 -0.0588,0.0744 -0.145155,0.12081 -0.259071,0.13918 0.136883,0.0294 0.242992,0.091 0.318326,0.18466 0.07625,0.0928 0.114376,0.209 0.114378,0.34864 -2e-6,0.18374 -0.06247,0.32568 -0.187414,0.42581 -0.124943,0.10014 -0.30271,0.15021 -0.5333,0.15021 l -0.738629,0 0,-2.05741"
         id="path5121"
         inkscape:connector-curvature="0" />
      <path
         d="m 34.107485,283.41485 0,0.13505 -1.135503,0 0,-0.13505 1.135503,0"
         id="path5123"
         inkscape:connector-curvature="0" />
    </g>
    <g
       style="font-size:2.82222223px;font-style:normal;font-variant:normal;font-weight:normal;font-stretch:normal;text-align:start;line-height:125%;letter-spacing:0px;word-spacing:0px;writing-mode:lr-tb;text-anchor:start;fill:#000000;fill-opacity:1;stroke:none;display:inline;font-family:Saab;-inkscape-font-specification:Saab"
       id="text3495">
      <path
         d="m 43.270899,283.27567 0,0.75378 0.446484,0 c 0.149746,10e-6 0.260448,-0.0308 0.332107,-0.0923 0.07258,-0.0625 0.108864,-0.15756 0.108865,-0.28526 -10e-7,-0.12861 -0.03629,-0.22324 -0.108865,-0.28387 -0.07166,-0.0616 -0.182361,-0.0923 -0.332107,-0.0923 l -0.446484,0 m 0,-0.84612 0,0.62012 0.412033,0 c 0.135966,0 0.237022,-0.0253 0.303169,-0.0758 0.06706,-0.0514 0.100595,-0.12954 0.100596,-0.23427 -10e-7,-0.10381 -0.03353,-0.18144 -0.100596,-0.23289 -0.06615,-0.0514 -0.167203,-0.0772 -0.303169,-0.0772 l -0.412033,0 m -0.278364,-0.22875 0.711068,0 c 0.212217,0 0.375744,0.0441 0.490581,0.13229 0.114835,0.0882 0.172254,0.2136 0.172255,0.3762 -10e-7,0.12587 -0.0294,0.226 -0.08819,0.30042 -0.0588,0.0744 -0.145155,0.12081 -0.259071,0.13918 0.136883,0.0294 0.242992,0.091 0.318326,0.18466 0.07625,0.0928 0.114376,0.209 0.114378,0.34864 -2e-6,0.18374 -0.06247,0.32568 -0.187414,0.42581 -0.124943,0.10014 -0.30271,0.15021 -0.5333,0.15021 l -0.738629,0 0,-2.05741"
         id="path5126"
         inkscape:connector-curvature="0" />
      <path
         d="m 45.459223,282.91324 0,0.50161 0.501606,0 0,0.13505 -0.501606,0 0,0.49885 -0.133669,0 0,-0.49885 -0.500228,0 0,-0.13505 0.500228,0 0,-0.50161 0.133669,0"
         id="path5128"
         inkscape:connector-curvature="0" />
    </g>
    <path
       style="display:inline"
       inkscape:connector-curvature="0"
       id="path5224"
       d="m 4.4394876,290.16148 -0.1123244,1.03096 -0.1021645,-1.03096 v -4.23869 h 2.2289912 v 2.85185 l -0.5319889,0.2684 0.5319889,0.27629 v 0.83989 l -0.1126067,1.03322 -0.1016,-1.03096 v -0.7095 l -0.7893756,-0.416 0.7893756,-0.3937 v -2.50529 H 4.4403343 l -8.467e-4,4.02449 0,0 z m 1.3430956,-3.56672 v 1.7653 l -0.8870244,0.44817 v -2.21347 h 0.8870244 z m -0.78486,4.59796 -0.1021644,-1.02729 v -0.87178 l 0.8870244,0.4524 v 0.41459 l -0.1126067,1.03208 -0.1016,-1.03096 v -0.28504 L 5.111741,289.64078 v 0.52098 l -0.1140178,1.03096 z m 0.5698066,-4.38319 H 5.1108943 v 1.64507 l 0.4566355,-0.22973 v -1.41534 z" />
    <path
       style="display:inline"
       inkscape:connector-curvature="0"
       id="path5226"
       d="m 9.2527877,290.16148 -0.1126067,1.03096 -0.1016,-1.03096 v -0.66576 H 7.6954854 v -0.89154 H 9.038581 v -0.45127 H 7.6954854 v -1.56351 h 0.8867423 v 0.67168 H 9.038581 v -1.12296 H 7.2391321 v 4.02364 l -0.1126067,1.03096 -0.1018822,-1.03096 v -4.23869 h 2.2289912 v 1.5525 h -0.88646 v -0.6714 H 7.9105388 v 1.13397 h 1.3430956 v 0.88053 H 7.9105388 v 0.462 h 1.3430956 l -8.467e-4,0.88081 0,0 z" />
    <path
       style="display:inline"
       inkscape:connector-curvature="0"
       id="path5228"
       d="m 12.035217,290.16035 -0.112889,1.03209 -0.1016,-1.03039 v -1.38007 l -0.786836,-0.41346 0.786836,-0.39398 v -1.83726 h -1.799449 v 4.02364 l -0.1123242,1.03096 -0.101883,-1.03096 v -4.2387 h 2.2289922 v 2.18356 l -0.529449,0.26754 0.529449,0.27517 -8.47e-4,1.51186 0,0 z m -0.671407,-3.56559 v 1.09361 l -0.886742,0.44845 v -1.54206 h 0.886742 z m 0,2.47339 v 0.42193 h -0.886742 v -0.87066 l 0.886742,0.44873 z m -0.215335,-2.25862 h -0.456636 v 0.9779 l 0.456636,-0.23029 v -0.74761 z m 0,2.39099 -0.456636,-0.23086 v 0.30649 h 0.456636 v -0.0756 z" />
    <path
       style="display:inline"
       inkscape:connector-curvature="0"
       id="path5230"
       d="m 14.833732,290.16148 -0.112889,1.03096 -0.101318,-1.03096 v -0.66576 H 13.27643 v -0.89154 h 1.343095 v -0.45127 H 13.27643 v -1.56351 h 0.88646 v 0.67168 h 0.456635 v -1.12296 h -1.79973 v 4.02364 l -0.112325,1.03096 -0.101882,-1.03096 v -4.23869 h 2.228991 v 1.5525 h -0.886742 v -0.6714 h -0.456353 v 1.13397 h 1.343095 v 0.88053 h -1.343095 v 0.462 h 1.343095 l -8.47e-4,0.88081 0,0 z" />
    <path
       style="display:inline"
       inkscape:connector-curvature="0"
       id="path5232"
       d="m 16.944472,290.16148 -0.112889,1.03096 -0.1016,-1.03096 v -0.66576 h -0.671406 v -3.35732 h -0.456636 v 4.02365 l -0.112324,1.03095 -0.101883,-1.03095 v -4.2387 h 0.886743 v 3.35732 h 0.671689 v 0.88138 l -0.0017,0 0,0 z" />
    <path
       style="display:inline"
       inkscape:connector-curvature="0"
       id="path5234"
       d="m 21.650246,290.16148 -0.112607,1.03096 -0.101882,-1.03096 v -3.57237 h 0.671689 v -0.45127 h -1.799449 v 0.45127 h 0.671406 v 3.57237 l -0.112324,1.03096 -0.1016,-1.03096 v -3.35731 H 20.09379 v -0.8811 h 2.228709 v 0.8811 h -0.671407 l -8.46e-4,3.35731 0,0 z" />
    <path
       style="display:inline"
       inkscape:connector-curvature="0"
       id="path5236"
       d="m 25.050741,290.16148 -0.112606,1.03096 -0.1016,-1.03096 v -0.66576 h -1.34366 v -0.89154 h 1.34366 v -0.45127 h -1.34366 v -1.56351 h 0.887024 v 0.67168 h 0.456636 v -1.12296 h -1.799732 v 4.02364 l -0.112324,1.03096 -0.102164,-1.03096 v -4.23869 h 2.229273 v 1.5525 h -0.886742 v -0.6714 H 23.70821 v 1.13397 h 1.343378 v 0.88053 H 23.70821 v 0.462 h 1.343378 l -8.47e-4,0.88081 0,0 z" />
    <path
       style="display:inline"
       inkscape:connector-curvature="0"
       id="path5238"
       d="m 27.832888,290.16148 -0.112607,1.03096 -0.1016,-1.03096 v -1.33688 h -0.456635 v 0.67112 h -0.886742 v -2.90632 h 0.886742 v 0.67168 h 0.456635 v -1.12296 H 25.81895 v 4.02364 l -0.112324,1.03096 -0.102165,-1.03096 v -4.23869 h 2.229274 v 1.5525 h -0.886743 v -0.6714 h -0.456635 v 2.47565 h 0.456635 v -0.67141 h 0.886743 l -8.47e-4,1.55307 0,0 z" />
    <path
       style="display:inline"
       inkscape:connector-curvature="0"
       id="path5240"
       d="m 30.605156,290.16148 -0.112325,1.03096 -0.1016,-1.03096 v -4.02364 h -0.456635 v 2.68676 h -0.886742 v -2.68676 H 28.5915 v 4.02364 l -0.112606,1.03096 -0.101883,-1.03096 v -4.23869 h 0.887025 v 2.68619 h 0.456353 v -2.68619 h 0.88646 v 4.23869 h -0.0017 z m -0.671407,0 -0.112889,1.03096 -0.1016,-1.03096 v -0.6714 h -0.456353 v 0.6714 l -0.112607,1.03096 -0.1016,-1.03096 v -0.88618 h 0.886742 v 0.88618 h -0.0017 z" />
    <path
       style="display:inline"
       inkscape:connector-curvature="0"
       id="path5242"
       d="m 33.404237,290.16148 -0.112607,1.03096 -0.101882,-1.03096 v -4.02364 h -0.46228 v 2.47283 l -0.85203,-2.47283 h -0.486269 v 4.02364 l -0.112042,1.03096 -0.102165,-1.03096 v -4.23869 h 0.854005 l 0.483448,1.41308 v -1.41308 h 0.891822 v 4.23869 l 0,0 z m -0.639516,-0.003 -0.113453,1.03378 -0.103011,-1.03096 -0.487399,-1.41308 v 1.41308 l -0.112324,1.03096 -0.101883,-1.03096 v -2.67462 l 0.91807,2.6718 z" />
    <path
       style="display:inline"
       inkscape:connector-curvature="0"
       id="path5244"
       d="m 36.202753,290.16148 -0.112607,1.03096 -0.101882,-1.03096 v -4.02364 h -1.799731 v 4.02364 l -0.112043,1.03096 -0.102164,-1.03096 v -4.23869 h 2.229273 l -8.46e-4,4.23869 0,0 z m -0.671689,-3.56672 v 2.8956 h -0.886743 v -2.8956 h 0.886743 z m -0.215336,0.21477 h -0.456071 v 2.46577 h 0.456071 v -2.46577 z" />
    <path
       style="display:inline"
       inkscape:connector-curvature="0"
       id="path5246"
       d="m 38.329862,290.16148 -0.112889,1.03096 -0.1016,-1.03096 v -0.66576 H 37.443966 V 286.1384 H 36.98733 v 4.02365 l -0.112324,1.03095 -0.101882,-1.03095 v -4.2387 h 0.887024 v 3.35732 h 0.671407 v 0.88138 l -0.0017,0 0,0 z" />
    <path
       style="display:inline"
       inkscape:connector-curvature="0"
       id="path5248"
       d="m 41.021415,290.16148 -0.112889,1.03096 -0.1016,-1.03096 v -4.02364 h -1.799731 v 4.02364 l -0.112325,1.03096 -0.101882,-1.03096 v -4.23869 h 2.229274 l -8.47e-4,4.23869 0,0 z m -0.671971,-3.56672 v 2.8956 h -0.887025 v -2.8956 h 0.887025 z m -0.215054,0.21477 h -0.456635 v 2.46577 h 0.456635 v -2.46577 z" />
    <path
       style="display:inline"
       inkscape:connector-curvature="0"
       id="path5250"
       d="m 43.819931,290.16148 -0.112889,1.03096 -0.1016,-1.03096 v -2.00857 h -0.456636 v 1.34281 h -0.887024 v -2.90604 h 0.887024 v 0.6714 h 0.456636 v -1.12296 h -1.799731 v 4.02364 l -0.112325,1.03096 -0.102164,-1.03096 v -4.23869 h 2.229273 v 1.5525 h -0.886742 v -0.6714 h -0.456636 v 2.47565 h 0.456636 v -1.34253 h 0.886742 l -5.64e-4,2.22419 0,0 z" />
    <path
       style="display:inline"
       inkscape:connector-curvature="0"
       id="path5252"
       d="m 46.607722,290.16148 -0.112607,1.03096 -0.101882,-1.03096 v -4.02364 h -0.456354 v 2.01478 h -0.887024 v -2.01478 h -0.456071 v 2.46549 h 1.343095 v 0.89154 h -1.343095 v 0.66577 l -0.112042,1.03095 -0.102165,-1.03095 v -0.8811 h 1.342814 v -0.462 h -1.342814 v -2.8956 h 0.88646 v 2.01507 h 0.456354 v -2.01507 h 0.887024 v 4.23898 l -0.0017,0 0,0 z" />
    <g
       style="font-size:2.82222223px;font-style:normal;font-variant:normal;font-weight:normal;font-stretch:normal;text-align:start;line-height:125%;letter-spacing:0px;word-spacing:0px;writing-mode:lr-tb;text-anchor:start;fill:#000000;fill-opacity:1;stroke:none;font-family:Saab;-inkscape-font-specification:Saab"
       id="text3444">
      <path
         d="m 6.2132501,271.33112 0,-1.67294 -0.322461,0.19569 0,-0.14056 0.3348633,-0.20671 0.1846571,0 0,1.82452 -0.1970594,0"
         id="path5099"
         inkscape:connector-curvature="0" />
    </g>
    <g
       style="font-size:2.82222223px;font-style:normal;font-variant:normal;font-weight:normal;font-stretch:normal;text-align:start;line-height:125%;letter-spacing:0px;word-spacing:0px;writing-mode:lr-tb;text-anchor:start;fill:#000000;fill-opacity:1;stroke:none;font-family:Saab;-inkscape-font-specification:Saab"
       id="text3448">
      <path
         d="m 18.531084,271.15611 c 0.128617,-0.14148 0.23151,-0.25815 0.308681,-0.35002 0.07809,-0.0928 0.135965,-0.16169 0.173633,-0.20671 0.03399,-0.0413 0.0666,-0.085 0.09784,-0.13091 0.03123,-0.0469 0.0588,-0.0951 0.08268,-0.14469 0.02388,-0.0496 0.04272,-0.1006 0.0565,-0.15297 0.0147,-0.0524 0.02205,-0.10518 0.02205,-0.15847 -1e-6,-0.0625 -0.0096,-0.11621 -0.02894,-0.16123 -0.01929,-0.045 -0.04548,-0.0818 -0.07855,-0.11024 -0.03307,-0.0294 -0.07166,-0.051 -0.115755,-0.0648 -0.0441,-0.0138 -0.09095,-0.0202 -0.14056,-0.0193 -0.04961,0 -0.100598,0.007 -0.152963,0.0207 -0.05237,0.0138 -0.103353,0.0335 -0.152962,0.0593 l -0.04685,-0.11575 c 0.05972,-0.0386 0.124023,-0.0671 0.192925,-0.0854 0.0689,-0.0184 0.137803,-0.0266 0.206706,-0.0248 0.0689,9.2e-4 0.135047,0.0119 0.198437,0.0331 0.06431,0.0211 0.120807,0.0524 0.169499,0.0937 0.04961,0.0413 0.08911,0.0928 0.118511,0.15434 0.0294,0.0616 0.0441,0.13276 0.0441,0.2136 -2e-6,0.079 -0.0092,0.15067 -0.02756,0.21497 -0.01746,0.0634 -0.04272,0.12357 -0.07579,0.18053 -0.03307,0.057 -0.07258,0.11208 -0.118511,0.16536 -0.04594,0.0524 -0.09692,0.10657 -0.152963,0.16261 -0.05604,0.056 -0.116215,0.11576 -0.180523,0.17914 -0.06431,0.0625 -0.131373,0.1323 -0.201193,0.20947 l 0.828201,0 0,0.21359 -1.026639,0 0,-0.17501"
         id="path5102"
         inkscape:connector-curvature="0" />
    </g>
    <g
       style="font-size:2.82222223px;font-style:normal;font-variant:normal;font-weight:normal;font-stretch:normal;text-align:start;line-height:125%;letter-spacing:0px;word-spacing:0px;writing-mode:lr-tb;text-anchor:start;fill:#000000;fill-opacity:1;stroke:none;font-family:Saab;-inkscape-font-specification:Saab"
       id="text3452">
      <path
         d="m 31.910104,270.35962 c 0.05328,0.0101 0.102893,0.0271 0.148828,0.051 0.04593,0.0239 0.0859,0.0537 0.11989,0.0896 0.03491,0.0349 0.06201,0.0753 0.0813,0.12127 0.02021,0.0459 0.03032,0.096 0.03032,0.15021 -2e-6,0.0827 -0.01654,0.15664 -0.04961,0.22186 -0.03307,0.0652 -0.07671,0.12127 -0.130913,0.16812 -0.0542,0.0459 -0.116675,0.0822 -0.187414,0.10887 -0.07074,0.0276 -0.143776,0.0446 -0.219108,0.051 -0.07441,0.006 -0.148828,0.002 -0.223242,-0.0138 -0.07441,-0.0147 -0.142857,-0.0413 -0.205328,-0.0799 l 0.05099,-0.12127 c 0.0542,0.0276 0.110243,0.0487 0.168121,0.0634 0.05879,0.0138 0.115754,0.0207 0.170876,0.0207 0.05604,-9.2e-4 0.108865,-0.009 0.158475,-0.0248 0.05053,-0.0156 0.09416,-0.04 0.130913,-0.073 0.03767,-0.0331 0.06752,-0.0749 0.08957,-0.1254 0.02205,-0.0514 0.03307,-0.11254 0.03307,-0.18328 -10e-7,-0.0469 -0.01332,-0.0919 -0.03996,-0.13505 -0.02573,-0.0441 -0.05926,-0.0813 -0.100597,-0.11162 -0.04134,-0.0303 -0.08774,-0.0533 -0.139182,-0.0689 -0.05053,-0.0156 -0.108866,-0.0234 -0.175011,-0.0234 l -0.04685,0 0,-0.15709 0.0083,0 c 0.124023,0 0.226457,-0.0294 0.307303,-0.0882 0.0441,-0.0294 0.07992,-0.0652 0.107487,-0.10748 0.02848,-0.0432 0.04272,-0.0887 0.04272,-0.13643 -10e-7,-0.0597 -0.01057,-0.11024 -0.03169,-0.15158 -0.02113,-0.0423 -0.04915,-0.0763 -0.08406,-0.10198 -0.03399,-0.0266 -0.07396,-0.0455 -0.119889,-0.0565 -0.04502,-0.011 -0.09233,-0.0156 -0.141938,-0.0138 -0.04869,0.002 -0.09738,0.01 -0.146072,0.0234 -0.04869,0.0129 -0.09417,0.0308 -0.136426,0.0537 l -0.04272,-0.1254 c 0.05512,-0.0303 0.115755,-0.0524 0.181901,-0.0662 0.06706,-0.0138 0.134588,-0.0193 0.202572,-0.0165 0.06798,0.003 0.133669,0.0142 0.197059,0.0344 0.06339,0.0202 0.119889,0.0491 0.169499,0.0868 0.04961,0.0367 0.08911,0.0827 0.118511,0.13781 0.03032,0.0551 0.04547,0.11943 0.04548,0.19292 -2e-6,0.0441 -0.0087,0.0873 -0.02618,0.12954 -0.01746,0.0423 -0.04272,0.0813 -0.07579,0.11713 -0.03307,0.0349 -0.0735,0.0661 -0.121268,0.0937 -0.04685,0.0266 -0.09968,0.0469 -0.158474,0.0606 l 0.03859,0.006 0,0"
         id="path5105"
         inkscape:connector-curvature="0" />
    </g>
    <g
       style="font-size:2.82222223px;font-style:normal;font-variant:normal;font-weight:normal;font-stretch:normal;text-align:start;line-height:125%;letter-spacing:0px;word-spacing:0px;writing-mode:lr-tb;text-anchor:start;fill:#000000;fill-opacity:1;stroke:none;font-family:Saab;-inkscape-font-specification:Saab"
       id="text3456">
      <path
         d="m 44.859574,271.33112 -0.205327,0 0,-0.45751 -0.795128,0 0,-0.13229 0.691775,-1.23334 0.30868,0 0,1.23334 0.256315,0 0,0.13229 -0.256315,0 0,0.45751 m -0.847493,-0.5898 0.642166,0 -0.0041,-1.13826 -0.638032,1.13826"
         id="path5108"
         inkscape:connector-curvature="0" />
    </g>
  </g>
</svg>
