<?xml version="1.0" encoding="UTF-8" standalone="no"?>
<!-- Created with Inkscape (http://www.inkscape.org/) -->

<svg
   xmlns:dc="http://purl.org/dc/elements/1.1/"
   xmlns:cc="http://creativecommons.org/ns#"
   xmlns:rdf="http://www.w3.org/1999/02/22-rdf-syntax-ns#"
   xmlns:svg="http://www.w3.org/2000/svg"
   xmlns="http://www.w3.org/2000/svg"
   xmlns:xlink="http://www.w3.org/1999/xlink"
   xmlns:sodipodi="http://sodipodi.sourceforge.net/DTD/sodipodi-0.dtd"
   xmlns:inkscape="http://www.inkscape.org/namespaces/inkscape"
   id="svg4373"
   version="1.1"
   inkscape:version="0.92.4 (5da689c313, 2019-01-14)"
   width="793.70129"
   height="1122.52"
   xml:space="preserve"
   sodipodi:docname="Mix01Labels.svg"><sodipodi:namedview
     pagecolor="#ffffff"
     bordercolor="#666666"
     borderopacity="1"
     objecttolerance="10"
     gridtolerance="10"
     guidetolerance="10"
     inkscape:pageopacity="0"
     inkscape:pageshadow="2"
     inkscape:window-width="1920"
     inkscape:window-height="1043"
     id="namedview4375"
     showgrid="false"
     inkscape:zoom="0.55378378"
     inkscape:cx="444.57456"
     inkscape:cy="494.5041"
     inkscape:window-x="0"
     inkscape:window-y="0"
     inkscape:window-maximized="1"
     inkscape:current-layer="g4381"
     inkscape:document-units="mm"
     showguides="false"
     inkscape:guide-bbox="true" /><metadata
     id="metadata4379"><rdf:RDF><cc:Work
         rdf:about=""><dc:format>image/svg+xml</dc:format><dc:type
           rdf:resource="http://purl.org/dc/dcmitype/StillImage" /><dc:title /></cc:Work></rdf:RDF></metadata><defs
     id="defs4377"><clipPath
       id="clipPath4387"
       clipPathUnits="userSpaceOnUse"><path
         id="path4389"
         d="M 0,0 H 595.276 V 841.89 H 0 Z"
         inkscape:connector-curvature="0" /></clipPath><clipPath
       id="clipPath4421"
       clipPathUnits="userSpaceOnUse"><path
         id="path4423"
         d="M 0,0 H 595.276 V 841.89 H 0 Z"
         inkscape:connector-curvature="0" /></clipPath><clipPath
       id="clipPath4443"
       clipPathUnits="userSpaceOnUse"><path
         id="path4445"
         d="M 0,0 H 595.276 V 841.89 H 0 Z"
         inkscape:connector-curvature="0" /></clipPath><clipPath
       id="clipPath7941"
       clipPathUnits="userSpaceOnUse"><path
         id="path7943"
         d="M 0,0 H 595.276 V 841.89 H 0 Z"
         inkscape:connector-curvature="0" /></clipPath><clipPath
       id="clipPath7975"
       clipPathUnits="userSpaceOnUse"><path
         id="path7977"
         d="M 0,0 H 595.276 V 841.89 H 0 Z"
         inkscape:connector-curvature="0" /></clipPath><clipPath
       id="clipPath7997"
       clipPathUnits="userSpaceOnUse"><path
         id="path7999"
         d="M 0,0 H 595.276 V 841.89 H 0 Z"
         inkscape:connector-curvature="0" /></clipPath></defs><g
     transform="matrix(1.25,0,0,-1.25,0,1122.52)"
     inkscape:label="Label Planet LP21 70 Portrait"
     inkscape:groupmode="layer"
     id="g4381"><g
       inkscape:tile-y0="912.55037"
       inkscape:tile-x0="22.281616"
       inkscape:tile-h="129.62935"
       inkscape:tile-w="203.15552"
       inkscape:tile-cy="977.36505"
       inkscape:tile-cx="123.85937"
       transform="matrix(0.948428,0,0,0.93749919,1.9369687,-719.48975)"
       id="g4685"
       style="stroke-width:1.06050646"><g
         transform="matrix(0.68631727,0,0,-0.68631727,-33.95986,942.67475)"
         style="font-style:normal;font-variant:normal;font-weight:normal;font-stretch:normal;font-size:40px;line-height:125%;font-family:'More than human';-inkscape-font-specification:'More than human';text-align:start;letter-spacing:0px;word-spacing:0px;writing-mode:lr-tb;text-anchor:start;fill:#000000;fill-opacity:1;stroke:none;stroke-width:1.06050646"
         id="flowRoot2985"><path
           inkscape:connector-curvature="0"
           d="m 84.84,86.885991 h -2.72 v 9.824 l 2.72,-1.376 v -8.448 m 1.28,-1.28 v 10.528 l -5.28,2.656 v -13.184 h 5.28 m -8,21.247999 -0.672,6.144 -0.608,-6.144 V 81.605991 h 13.28 v 16.992 l -3.168,1.599999 3.168,1.664 v 4.992 l -0.672,6.144 -0.608,-6.144 v -4.224 l -4.672,-2.464 4.672,-2.335999 v -14.944 H 78.12 v 23.967999 m 4,0 -0.672,6.144 -0.608,-6.144 v -5.216 l 5.28,2.752 v 2.464 l -0.672,6.144 -0.608,-6.144 v -1.696 l -2.688,-1.408 v 3.104 H 82.12"
           style="font-size:30px;line-height:125%;font-family:'More than human';-inkscape-font-specification:'More than human';stroke-width:1.13120699"
           id="path3134" /><path
           inkscape:connector-curvature="0"
           d="m 106.8075,109.41399 -0.672,6.144 -0.608,-6.144 v -6.528 h -8 v -5.311999 h 8 v -2.688 h -8 v -9.312 h 5.28 v 4 h 2.72 v -6.688 h -10.72 v 24.607999 l -0.672,6.144 -0.608,-6.144 V 81.605991 h 13.28 v 9.248 h -5.28 v -4 h -2.72 v 6.752 h 8 v 5.248 h -8 v 2.751999 h 8 v 7.808"
           style="font-size:30px;line-height:125%;font-family:'More than human';-inkscape-font-specification:'More than human';stroke-width:1.13120699"
           id="path3136" /><path
           inkscape:connector-curvature="0"
           d="m 118.08999,86.885991 h -2.72 v 5.824 l 2.72,-1.376 v -4.448 m 1.28,-1.28 v 6.528 l -5.28,2.656 v -9.184 h 5.28 m -1.28,15.519999 -2.72,-1.375999 v 1.823999 h 2.72 v -0.448 m 1.28,-0.8 v 2.528 h -5.28 v -5.183999 l 5.28,2.655999 m 4,6.208 -0.67198,6.144 -0.60802,-6.144 v -7.903999 l -4.67198,-2.464 4.67198,-2.336 v -10.944 h -10.72 v 26.207999 l -0.67198,6.144 -0.60802,-6.144 V 81.605991 h 13.28 v 12.992 l -3.168,1.6 3.168,1.664 v 8.671999"
           style="font-size:30px;line-height:125%;font-family:'More than human';-inkscape-font-specification:'More than human';stroke-width:1.13120699"
           id="path3139" /><path
           inkscape:connector-curvature="0"
           d="m 140.0575,109.41399 -0.672,6.144 -0.608,-6.144 v -6.528 h -8 v -5.311999 h 8 v -2.688 h -8 v -9.312 h 5.28 v 4 h 2.72 v -6.688 h -10.72 v 24.607999 l -0.672,6.144 -0.608,-6.144 V 81.605991 h 13.28 v 9.248 h -5.28 v -4 h -2.72 v 6.752 h 8 v 5.248 h -8 v 2.751999 h 8 v 7.808"
           style="font-size:30px;line-height:125%;font-family:'More than human';-inkscape-font-specification:'More than human';stroke-width:1.13120699"
           id="path3141" /><path
           inkscape:connector-curvature="0"
           d="m 152.62,106.21399 -0.672,6.144 -0.608,-6.144 v -3.328 h -4 V 82.885991 h -2.72 v 26.207999 l -0.672,6.144 -0.608,-6.144 V 81.605991 h 5.28 v 19.999999 h 4 v 4.608"
           style="font-size:30px;line-height:125%;font-family:'More than human';-inkscape-font-specification:'More than human';stroke-width:1.13120699"
           id="path3143" /><path
           inkscape:connector-curvature="0"
           d="m 180.6825,106.85399 -0.672,6.144 -0.608,-6.144 V 85.573991 h 4 v -2.688 h -10.72 v 2.688 h 4 v 21.279999 l -0.672,6.144 -0.608,-6.144 V 86.853991 h -4 v -5.248 h 13.28 v 5.248 h -4 v 19.999999"
           style="font-size:30px;line-height:125%;font-family:'More than human';-inkscape-font-specification:'More than human';stroke-width:1.13120699"
           id="path3145" /><path
           inkscape:connector-curvature="0"
           d="m 200.9325,109.41399 -0.672,6.144 -0.608,-6.144 v -6.528 h -8 v -5.311999 h 8 v -2.688 h -8 v -9.312 h 5.28 v 4 h 2.72 v -6.688 h -10.72 v 24.607999 l -0.672,6.144 -0.608,-6.144 V 81.605991 h 13.28 v 9.248 h -5.28 v -4 h -2.72 v 6.752 h 8 v 5.248 h -8 v 2.751999 h 8 v 7.808"
           style="font-size:30px;line-height:125%;font-family:'More than human';-inkscape-font-specification:'More than human';stroke-width:1.13120699"
           id="path3147" /><path
           inkscape:connector-curvature="0"
           d="m 217.495,109.09399 -0.672,6.144 -0.608,-6.144 V 98.885991 h -2.72 v 3.999999 h -5.28 V 85.573991 h 5.28 v 4 h 2.72 v -6.688 h -10.72 v 23.647999 l -0.672,6.144 -0.608,-6.144 V 81.605991 h 13.28 v 9.248 h -5.28 v -4 h -2.72 v 14.751999 h 2.72 v -3.999999 h 5.28 v 11.487999"
           style="font-size:30px;line-height:125%;font-family:'More than human';-inkscape-font-specification:'More than human';stroke-width:1.13120699"
           id="path3149" /><path
           inkscape:connector-curvature="0"
           d="m 233.995,107.49399 -0.672,6.144 -0.608,-6.144 V 82.885991 h -2.72 v 16 h -5.28 v -16 h -2.72 v 23.647999 l -0.672,6.144 -0.608,-6.144 V 81.605991 h 5.28 v 16 h 2.72 v -16 h 5.28 v 25.887999 m -4,-1.6 -0.672,6.144 -0.608,-6.144 v -3.04 h -2.72 v 7.52 l -0.672,6.144 -0.608,-6.144 v -8.8 h 5.28 v 4.32"
           style="font-size:30px;line-height:125%;font-family:'More than human';-inkscape-font-specification:'More than human';stroke-width:1.13120699"
           id="path3151" /><path
           inkscape:connector-curvature="0"
           d="m 246.8745,106.85399 -0.672,6.144 -0.608,-6.144 -2.88,-8.415999 v 7.775999 l -0.672,6.144 -0.608,-6.144 h -0.032 l 0.032,-15.391999 5.44,16.031999 m 3.808,0.96 -0.672,6.144 -0.608,-6.144 V 82.885991 h -2.752 v 14.752 l -5.088,-14.752 h -2.88 v 27.487999 l -0.672,6.144 -0.608,-6.144 V 81.605991 h 5.088 l 2.88,8.416 v -8.416 h 5.312 v 26.207999"
           style="font-size:30px;line-height:125%;font-family:'More than human';-inkscape-font-specification:'More than human';stroke-width:1.13120699"
           id="path3153" /><path
           inkscape:connector-curvature="0"
           d="m 262.08999,86.885991 h -2.72 v 14.687999 h 2.72 V 86.885991 m 1.28,-1.28 v 17.247999 h -5.28 V 85.605991 h 5.28 m 4,20.927999 -0.672,6.144 -0.608,-6.144 V 82.885991 h -10.72 v 27.167999 l -0.672,6.144 -0.608,-6.144 V 81.605991 h 13.28 v 24.927999"
           style="font-size:30px;line-height:125%;font-family:'More than human';-inkscape-font-specification:'More than human';stroke-width:1.13120699"
           id="path3155" /><path
           inkscape:connector-curvature="0"
           d="m 280.0575,106.21399 -0.672,6.144 -0.608,-6.144 v -3.328 h -4 V 82.885991 h -2.72 v 26.207999 l -0.672,6.144 -0.608,-6.144 V 81.605991 h 5.28 v 19.999999 h 4 v 4.608"
           style="font-size:30px;line-height:125%;font-family:'More than human';-inkscape-font-specification:'More than human';stroke-width:1.13120699"
           id="path3157" /><path
           inkscape:connector-curvature="0"
           d="m 290.84,86.885991 h -2.72 v 14.687999 h 2.72 V 86.885991 m 1.28,-1.28 v 17.247999 h -5.28 V 85.605991 h 5.28 m 4,20.927999 -0.672,6.144 -0.608,-6.144 V 82.885991 h -10.72 v 27.167999 l -0.672,6.144 -0.608,-6.144 V 81.605991 h 13.28 v 24.927999"
           style="font-size:30px;line-height:125%;font-family:'More than human';-inkscape-font-specification:'More than human';stroke-width:1.13120699"
           id="path3159" /><path
           inkscape:connector-curvature="0"
           d="m 312.8075,108.77399 -0.672,6.144 -0.608,-6.144 V 94.885991 h -2.72 v 7.999999 h -5.28 V 85.573991 h 5.28 v 4 h 2.72 v -6.688 h -10.72 v 23.327999 l -0.672,6.144 -0.608,-6.144 V 81.605991 h 13.28 v 9.248 h -5.28 v -4 h -2.72 v 14.751999 h 2.72 v -7.999999 h 5.28 v 15.167999"
           style="font-size:30px;line-height:125%;font-family:'More than human';-inkscape-font-specification:'More than human';stroke-width:1.13120699"
           id="path3161" /><path
           inkscape:connector-curvature="0"
           d="m 329.4325,106.21399 -0.672,6.144 -0.608,-6.144 V 82.885991 h -2.72 v 12 h -5.28 v -12 h -2.72 v 14.688 h 8 v 5.311999 h -8 v 7.808 l -0.672,6.144 -0.608,-6.144 v -9.088 h 8 v -2.751999 h -8 v -17.248 h 5.28 v 12 h 2.72 v -12 h 5.28 v 24.607999"
           style="font-size:30px;line-height:125%;font-family:'More than human';-inkscape-font-specification:'More than human';stroke-width:1.13120699"
           id="path3163" /></g><g
         transform="matrix(0.68631727,0,0,-0.68631727,5.7487573,986.68299)"
         style="font-style:normal;font-variant:normal;font-weight:normal;font-stretch:normal;font-size:12px;line-height:125%;font-family:Sans;-inkscape-font-specification:Sans;text-align:start;letter-spacing:0px;word-spacing:0px;writing-mode:lr-tb;text-anchor:start;fill:#000000;fill-opacity:1;stroke:none;stroke-width:1.06050646"
         id="flowRoot3001"><path
   inkscape:connector-curvature="0"
   d="m 25.719664,266.92109 c 0.225696,0.0764 0.444437,0.23959 0.656256,0.48959 0.215264,0.24999 0.430549,0.59375 0.645835,1.03124 l 1.067701,2.125 h -1.130208 l -0.994784,-1.99479 c -0.256949,-0.52082 -0.506955,-0.86632 -0.750005,-1.03646 -0.239584,-0.17013 -0.567712,-0.2552 -0.984374,-0.2552 h -1.145834 v 3.28645 h -1.052086 v -7.77604 h 2.374998 c 0.888885,10e-6 1.552085,0.18577 1.989589,0.55729 0.437493,0.37154 0.656245,0.9323 0.656245,1.68229 0,0.48959 -0.114581,0.89584 -0.343744,1.21876 -0.225706,0.32292 -0.555562,0.54688 -0.989589,0.67187 m -2.635413,-3.26562 v 2.76041 h 1.322912 c 0.506944,0 0.888885,-0.11632 1.145834,-0.34896 0.260416,-0.2361 0.390624,-0.58159 0.390624,-1.03646 0,-0.45484 -0.130208,-0.79686 -0.390624,-1.02603 -0.256949,-0.23263 -0.63889,-0.34895 -1.145834,-0.34896 h -1.322912"
   style="font-size:10px;line-height:125%;font-family:Sans;-inkscape-font-specification:Sans;stroke-width:1.13120699"
   id="path3213" /><path
   inkscape:connector-curvature="0"
   d="m 33.917584,267.41068 v 0.46874 h -4.406251 c 0.04171,0.65973 0.239584,1.1632 0.59375,1.51043 0.357642,0.34374 0.854165,0.51562 1.489589,0.51561 0.368043,10e-6 0.723947,-0.0451 1.067701,-0.13541 0.347222,-0.0902 0.690966,-0.2257 1.031254,-0.40625 v 0.90625 c -0.343755,0.14583 -0.696192,0.25695 -1.057291,0.33333 -0.36112,0.0764 -0.727435,0.11458 -1.098965,0.11458 -0.93055,0 -1.668406,-0.27082 -2.213536,-0.8125 -0.541664,-0.54166 -0.812502,-1.2743 -0.812502,-2.19791 0,-0.95486 0.256939,-1.71181 0.770838,-2.27084 0.517354,-0.56249 1.213536,-0.84374 2.088533,-0.84374 0.784725,0 1.404512,0.25347 1.859381,0.76042 0.458326,0.50347 0.687488,1.18923 0.687499,2.05729 m -0.958336,-0.28125 c -0.0075,-0.52431 -0.154517,-0.94271 -0.442709,-1.25521 -0.284726,-0.3125 -0.6632,-0.46875 -1.135414,-0.46876 -0.53472,10e-6 -0.963541,0.15105 -1.286453,0.45313 -0.319456,0.30209 -0.503477,0.72744 -0.552085,1.27604 l 3.416661,-0.005"
   style="font-size:10px;line-height:125%;font-family:Sans;-inkscape-font-specification:Sans;stroke-width:1.13120699"
   id="path3215" /><path
   inkscape:connector-curvature="0"
   d="m 39.678,267.65547 c 0,-0.70486 -0.145835,-1.25694 -0.437504,-1.65625 -0.288192,-0.40277 -0.68576,-0.60417 -1.192704,-0.60417 -0.506944,0 -0.906251,0.2014 -1.19792,0.60417 -0.288192,0.39931 -0.432288,0.95139 -0.432288,1.65625 0,0.70486 0.144096,1.25867 0.432288,1.66146 0.291669,0.3993 0.690976,0.59895 1.19792,0.59895 0.506944,0 0.904512,-0.19965 1.192704,-0.59895 0.291669,-0.40279 0.437504,-0.9566 0.437504,-1.66146 m -3.260416,-2.03646 c 0.201387,-0.34722 0.454859,-0.60416 0.760416,-0.77084 0.309024,-0.17013 0.677077,-0.2552 1.104171,-0.2552 0.70832,0 1.282976,0.28125 1.723957,0.84374 0.444437,0.56251 0.666656,1.3021 0.666667,2.21876 -1.1e-5,0.91667 -0.22223,1.65624 -0.666667,2.21875 -0.440981,0.56249 -1.015637,0.84374 -1.723957,0.84374 -0.427094,0 -0.795147,-0.0833 -1.104171,-0.24999 -0.305557,-0.17015 -0.559029,-0.42882 -0.760416,-0.77604 v 0.87499 h -0.963541 v -8.10416 h 0.963541 v 3.15625"
   style="font-size:10px;line-height:125%;font-family:Sans;-inkscape-font-specification:Sans;stroke-width:1.13120699"
   id="path3217" /><path
   inkscape:connector-curvature="0"
   d="m 47.250917,267.41068 v 0.46874 h -4.40625 c 0.04171,0.65973 0.239584,1.1632 0.593749,1.51043 0.357643,0.34374 0.854165,0.51562 1.489589,0.51561 0.368043,10e-6 0.723947,-0.0451 1.067702,-0.13541 0.347221,-0.0902 0.690965,-0.2257 1.031253,-0.40625 v 0.90625 c -0.343755,0.14583 -0.696192,0.25695 -1.057291,0.33333 -0.36112,0.0764 -0.727434,0.11458 -1.098965,0.11458 -0.930549,0 -1.668405,-0.27082 -2.213536,-0.8125 -0.541664,-0.54166 -0.812501,-1.2743 -0.812501,-2.19791 0,-0.95486 0.256938,-1.71181 0.770837,-2.27084 0.517355,-0.56249 1.213536,-0.84374 2.088533,-0.84374 0.784726,0 1.404512,0.25347 1.859382,0.76042 0.458325,0.50347 0.687488,1.18923 0.687498,2.05729 m -0.958336,-0.28125 c -0.0075,-0.52431 -0.154517,-0.94271 -0.442709,-1.25521 -0.284725,-0.3125 -0.6632,-0.46875 -1.135413,-0.46876 -0.53472,10e-6 -0.963542,0.15105 -1.286454,0.45313 -0.319456,0.30209 -0.503477,0.72744 -0.552085,1.27604 l 3.416661,-0.005"
   style="font-size:10px;line-height:125%;font-family:Sans;-inkscape-font-specification:Sans;stroke-width:1.13120699"
   id="path3219" /><path
   inkscape:connector-curvature="0"
   d="m 48.823835,262.46276 h 0.958336 v 8.10416 h -0.958336 v -8.10416"
   style="font-size:10px;line-height:125%;font-family:Sans;-inkscape-font-specification:Sans;stroke-width:1.13120699"
   id="path3221" /><path
   inkscape:connector-curvature="0"
   d="m 54.141541,262.79088 h 6.578123 v 0.88542 h -2.760416 v 6.89062 h -1.057291 v -6.89062 h -2.760416 v -0.88542"
   style="font-size:10px;line-height:125%;font-family:Sans;-inkscape-font-specification:Sans;stroke-width:1.13120699"
   id="path3223" /><path
   inkscape:connector-curvature="0"
   d="m 64.87592,267.41068 v 0.46874 h -4.406251 c 0.04171,0.65973 0.239584,1.1632 0.59375,1.51043 0.357632,0.34374 0.854165,0.51562 1.489578,0.51561 0.368054,10e-6 0.723958,-0.0451 1.067712,-0.13541 0.347222,-0.0902 0.690966,-0.2257 1.031254,-0.40625 v 0.90625 c -0.343755,0.14583 -0.696192,0.25695 -1.057291,0.33333 -0.36112,0.0764 -0.727435,0.11458 -1.098965,0.11458 -0.93056,0 -1.668406,-0.27082 -2.213536,-0.8125 -0.541675,-0.54166 -0.812502,-1.2743 -0.812502,-2.19791 0,-0.95486 0.256939,-1.71181 0.770827,-2.27084 0.517365,-0.56249 1.213547,-0.84374 2.088544,-0.84374 0.784715,0 1.404512,0.25347 1.859381,0.76042 0.458326,0.50347 0.687488,1.18923 0.687499,2.05729 m -0.958336,-0.28125 c -0.0075,-0.52431 -0.154517,-0.94271 -0.442709,-1.25521 -0.284726,-0.3125 -0.6632,-0.46875 -1.135414,-0.46876 -0.53473,10e-6 -0.963552,0.15105 -1.286464,0.45313 -0.319445,0.30209 -0.503466,0.72744 -0.552085,1.27604 l 3.416672,-0.005"
   style="font-size:10px;line-height:125%;font-family:Sans;-inkscape-font-specification:Sans;stroke-width:1.13120699"
   id="path3225" /><path
   inkscape:connector-curvature="0"
   d="m 70.646747,264.95755 v 0.89584 c -0.270838,-0.1493 -0.543403,-0.26042 -0.817707,-0.33334 -0.270837,-0.0764 -0.545141,-0.11458 -0.822912,-0.11459 -0.621536,10e-6 -1.104171,0.19793 -1.447915,0.59376 -0.343754,0.39236 -0.515626,0.94445 -0.515626,1.65625 0,0.7118 0.171872,1.26562 0.515626,1.66146 0.343744,0.39236 0.826379,0.58854 1.447915,0.58853 0.277771,10e-6 0.552075,-0.0365 0.822912,-0.10936 0.274304,-0.0764 0.546869,-0.18924 0.817707,-0.33855 v 0.88542 c -0.26736,0.125 -0.545142,0.21875 -0.833334,0.28124 -0.284725,0.0625 -0.588544,0.0938 -0.911456,0.0938 -0.878474,0 -1.576394,-0.27604 -2.093749,-0.82811 -0.517365,-0.55209 -0.776043,-1.29688 -0.776043,-2.23438 0,-0.95138 0.260416,-1.69965 0.781248,-2.24479 0.52431,-0.54514 1.241323,-0.81771 2.15104,-0.81771 0.295136,0 0.583339,0.0312 0.864587,0.0938 0.281248,0.059 0.553813,0.14931 0.817707,0.27083"
   style="font-size:10px;line-height:125%;font-family:Sans;-inkscape-font-specification:Sans;stroke-width:1.13120699"
   id="path3227" /><path
   inkscape:connector-curvature="0"
   d="m 77.172795,267.04609 v 3.52083 h -0.958336 v -3.48958 c 0,-0.55208 -0.107648,-0.96528 -0.322912,-1.23958 -0.215286,-0.2743 -0.538208,-0.41146 -0.968758,-0.41146 -0.517365,0 -0.925344,0.16493 -1.223957,0.49479 -0.298613,0.32986 -0.447915,0.77952 -0.447915,1.34896 v 3.29687 h -0.963541 v -8.10416 h 0.963541 v 3.17708 c 0.229163,-0.35069 0.498262,-0.61284 0.807296,-0.78645 0.312491,-0.17361 0.671872,-0.26042 1.078123,-0.26042 0.670133,0 1.177077,0.20833 1.520832,0.62499 0.343744,0.41321 0.515616,1.02258 0.515627,1.82813"
   style="font-size:10px;line-height:125%;font-family:Sans;-inkscape-font-specification:Sans;stroke-width:1.13120699"
   id="path3229" /><path
   inkscape:connector-curvature="0"
   d="m 83.943621,267.04609 v 3.52083 h -0.958325 v -3.48958 c -1.1e-5,-0.55208 -0.107648,-0.96528 -0.322923,-1.23958 -0.215285,-0.2743 -0.538197,-0.41146 -0.968746,-0.41146 -0.517366,0 -0.925355,0.16493 -1.223958,0.49479 -0.298613,0.32986 -0.447925,0.77952 -0.447914,1.34896 v 3.29687 h -0.963542 v -5.83333 h 0.963542 v 0.90625 c 0.229162,-0.35069 0.498261,-0.61284 0.807285,-0.78645 0.312501,-0.17361 0.671872,-0.26042 1.078123,-0.26042 0.670144,0 1.177088,0.20833 1.520842,0.62499 0.343744,0.41321 0.515616,1.02258 0.515616,1.82813"
   style="font-size:10px;line-height:125%;font-family:Sans;-inkscape-font-specification:Sans;stroke-width:1.13120699"
   id="path3231" /><path
   inkscape:connector-curvature="0"
   d="m 88.125915,265.40546 c -0.513888,10e-6 -0.920139,0.2014 -1.218752,0.60417 -0.298614,0.39931 -0.447915,0.94793 -0.447915,1.64584 0,0.69792 0.147573,1.24826 0.442709,1.65104 0.298614,0.3993 0.706592,0.59896 1.223958,0.59895 0.51041,10e-6 0.914933,-0.20139 1.213546,-0.60416 0.298603,-0.40277 0.447904,-0.95139 0.447915,-1.64583 -1.1e-5,-0.69097 -0.149312,-1.23785 -0.447915,-1.64063 -0.298613,-0.40624 -0.703136,-0.60937 -1.213546,-0.60938 m 0,-0.81249 c 0.833333,0 1.48784,0.27084 1.963541,0.81249 0.475691,0.54168 0.713536,1.29168 0.713547,2.25001 -1.1e-5,0.95486 -0.237856,1.70486 -0.713547,2.24999 -0.475701,0.54168 -1.130208,0.8125 -1.963541,0.8125 -0.836811,0 -1.493056,-0.27082 -1.968747,-0.8125 -0.472224,-0.54513 -0.708331,-1.29513 -0.708331,-2.24999 0,-0.95833 0.236107,-1.70833 0.708331,-2.25001 0.475691,-0.54165 1.131936,-0.81249 1.968747,-0.81249"
   style="font-size:10px;line-height:125%;font-family:Sans;-inkscape-font-specification:Sans;stroke-width:1.13120699"
   id="path3233" /><path
   inkscape:connector-curvature="0"
   d="m 92.386331,262.46276 h 0.958336 v 8.10416 h -0.958336 v -8.10416"
   style="font-size:10px;line-height:125%;font-family:Sans;-inkscape-font-specification:Sans;stroke-width:1.13120699"
   id="path3235" /><path
   inkscape:connector-curvature="0"
   d="m 97.605083,265.40546 c -0.513888,10e-6 -0.920139,0.2014 -1.218752,0.60417 -0.298614,0.39931 -0.447915,0.94793 -0.447915,1.64584 0,0.69792 0.147573,1.24826 0.442709,1.65104 0.298614,0.3993 0.706592,0.59896 1.223958,0.59895 0.51041,10e-6 0.914922,-0.20139 1.213546,-0.60416 0.298603,-0.40277 0.447904,-0.95139 0.447915,-1.64583 -1.1e-5,-0.69097 -0.149312,-1.23785 -0.447915,-1.64063 -0.298624,-0.40624 -0.703136,-0.60937 -1.213546,-0.60938 m 0,-0.81249 c 0.833333,0 1.48784,0.27084 1.963541,0.81249 0.475686,0.54168 0.713536,1.29168 0.713546,2.25001 -10e-6,0.95486 -0.23786,1.70486 -0.713546,2.24999 -0.475701,0.54168 -1.130208,0.8125 -1.963541,0.8125 -0.836811,0 -1.493056,-0.27082 -1.968747,-0.8125 -0.472224,-0.54513 -0.708341,-1.29513 -0.708331,-2.24999 -1e-5,-0.95833 0.236107,-1.70833 0.708331,-2.25001 0.475691,-0.54165 1.131936,-0.81249 1.968747,-0.81249"
   style="font-size:10px;line-height:125%;font-family:Sans;-inkscape-font-specification:Sans;stroke-width:1.13120699"
   id="path3237" /><path
   inkscape:connector-curvature="0"
   d="m 105.70404,267.58255 c 0,-0.69444 -0.1441,-1.23263 -0.43229,-1.61458 -0.28473,-0.38194 -0.68577,-0.57292 -1.20313,-0.57292 -0.51388,0 -0.91493,0.19098 -1.20312,0.57292 -0.28473,0.38195 -0.42708,0.92014 -0.42708,1.61458 0,0.69098 0.14235,1.22743 0.42708,1.60938 0.28819,0.38194 0.68924,0.57291 1.20312,0.57291 0.51736,0 0.9184,-0.19097 1.20313,-0.57291 0.28819,-0.38195 0.43229,-0.9184 0.43229,-1.60938 m 0.95833,2.26042 c 0,0.99305 -0.22049,1.7309 -0.66146,2.21354 -0.44097,0.4861 -1.11632,0.72916 -2.02604,0.72916 -0.33681,0 -0.65451,-0.026 -0.95312,-0.0781 -0.29861,-0.0486 -0.58854,-0.125 -0.86979,-0.22917 v -0.93229 c 0.28125,0.15278 0.55902,0.26562 0.83334,0.33854 0.2743,0.073 0.55381,0.10938 0.83853,0.10938 0.62847,0 1.09896,-0.16493 1.41146,-0.49479 0.3125,-0.3264 0.46875,-0.82118 0.46875,-1.48438 v -0.47395 c -0.19792,0.34374 -0.45139,0.60069 -0.76042,0.77082 -0.30902,0.17015 -0.67881,0.25522 -1.10937,0.25522 -0.71528,0 -1.29166,-0.27257 -1.72917,-0.81771 -0.4375,-0.54514 -0.65624,-1.26736 -0.65624,-2.16667 0,-0.90277 0.21874,-1.62673 0.65624,-2.17187 0.43751,-0.54514 1.01389,-0.81771 1.72917,-0.81771 0.43056,0 0.80035,0.085 1.10937,0.2552 0.30903,0.17015 0.5625,0.4271 0.76042,0.77084 v -0.88542 h 0.95833 v 5.10938"
   style="font-size:10px;line-height:125%;font-family:Sans;-inkscape-font-specification:Sans;stroke-width:1.13120699"
   id="path3239" /><path
   inkscape:connector-curvature="0"
   d="m 111.06342,271.10859 c -0.27083,0.69444 -0.53473,1.14757 -0.79167,1.35938 -0.25694,0.2118 -0.60069,0.3177 -1.03125,0.3177 h -0.76562 v -0.80208 h 0.5625 c 0.26389,0 0.46875,-0.0625 0.61459,-0.18749 0.14582,-0.12501 0.30728,-0.42015 0.48437,-0.88542 l 0.17187,-0.43751 -2.35937,-5.73958 h 1.01562 l 1.82292,4.56251 1.82291,-4.56251 h 1.01563 l -2.5625,6.375"
   style="font-size:10px;line-height:125%;font-family:Sans;-inkscape-font-specification:Sans;stroke-width:1.13120699"
   id="path3241" /><text
   id="text6700"
   y="287.82147"
   x="21.030743"
   style="font-style:normal;font-weight:normal;font-size:12.80000019px;line-height:0%;font-family:sans-serif;letter-spacing:0px;word-spacing:0px;fill:#000000;fill-opacity:1;stroke:none;stroke-width:1.13120699"
   xml:space="preserve"><tspan
     y="287.82147"
     x="21.030743"
     id="tspan6702"
     sodipodi:role="line"
     style="font-size:10.60903358px;line-height:1.25;font-family:sans-serif;stroke-width:1.13120699">mix-01</tspan></text>

<g
   style="fill:#000000;stroke-width:1.06050646"
   id="barcode"
   transform="translate(-228.74466,-302.95141)"><rect
   id="barcode_bar1"
   height="32"
   width="1.0666667"
   y="561.06665"
   x="396.79999"
   style="stroke-width:1.13120699" /><rect
   id="barcode_bar3"
   height="32"
   width="1.0666667"
   y="561.06665"
   x="398.93332"
   style="stroke-width:1.13120699" /><rect
   id="barcode_bar5"
   height="26.666666"
   width="2.1333334"
   y="561.06665"
   x="403.20001"
   style="stroke-width:1.13120699" /><rect
   id="barcode_bar7"
   height="26.666666"
   width="1.0666667"
   y="561.06665"
   x="406.39999"
   style="stroke-width:1.13120699" /><rect
   id="barcode_bar9"
   height="26.666666"
   width="1.0666667"
   y="561.06665"
   x="411.73334"
   style="stroke-width:1.13120699" /><rect
   id="barcode_bar11"
   height="26.666666"
   width="1.0666667"
   y="561.06665"
   x="413.86667"
   style="stroke-width:1.13120699" /><rect
   id="barcode_bar13"
   height="26.666666"
   width="1.0666667"
   y="561.06665"
   x="416"
   style="stroke-width:1.13120699" /><rect
   id="barcode_bar15"
   height="26.666666"
   width="3.2"
   y="561.06665"
   x="419.20001"
   style="stroke-width:1.13120699" /><rect
   id="barcode_bar17"
   height="26.666666"
   width="2.1333334"
   y="561.06665"
   x="423.46667"
   style="stroke-width:1.13120699" /><rect
   id="barcode_bar19"
   height="26.666666"
   width="1.0666667"
   y="561.06665"
   x="428.79999"
   style="stroke-width:1.13120699" /><rect
   id="barcode_bar21"
   height="26.666666"
   width="1.0666667"
   y="561.06665"
   x="432"
   style="stroke-width:1.13120699" /><rect
   id="barcode_bar23"
   height="26.666666"
   width="2.1333334"
   y="561.06665"
   x="435.20001"
   style="stroke-width:1.13120699" /><rect
   id="barcode_bar25"
   height="26.666666"
   width="1.0666667"
   y="561.06665"
   x="438.39999"
   style="stroke-width:1.13120699" /><rect
   id="barcode_bar27"
   height="26.666666"
   width="3.2"
   y="561.06665"
   x="441.60001"
   style="stroke-width:1.13120699" /><rect
   id="barcode_bar29"
   height="32"
   width="1.0666667"
   y="561.06665"
   x="445.86667"
   style="stroke-width:1.13120699" /><rect
   id="barcode_bar31"
   height="32"
   width="1.0666667"
   y="561.06665"
   x="448"
   style="stroke-width:1.13120699" /><rect
   id="barcode_bar33"
   height="26.666666"
   width="1.0666667"
   y="561.06665"
   x="450.13333"
   style="stroke-width:1.13120699" /><rect
   id="barcode_bar35"
   height="26.666666"
   width="1.0666667"
   y="561.06665"
   x="455.46667"
   style="stroke-width:1.13120699" /><rect
   id="barcode_bar37"
   height="26.666666"
   width="2.1333334"
   y="561.06665"
   x="457.60001"
   style="stroke-width:1.13120699" /><rect
   id="barcode_bar39"
   height="26.666666"
   width="2.1333334"
   y="561.06665"
   x="461.86667"
   style="stroke-width:1.13120699" /><rect
   id="barcode_bar41"
   height="26.666666"
   width="3.2"
   y="561.06665"
   x="465.06668"
   style="stroke-width:1.13120699" /><rect
   id="barcode_bar43"
   height="26.666666"
   width="1.0666667"
   y="561.06665"
   x="470.39999"
   style="stroke-width:1.13120699" /><rect
   id="barcode_bar45"
   height="26.666666"
   width="3.2"
   y="561.06665"
   x="472.53333"
   style="stroke-width:1.13120699" /><rect
   id="barcode_bar47"
   height="26.666666"
   width="1.0666667"
   y="561.06665"
   x="477.86667"
   style="stroke-width:1.13120699" /><rect
   id="barcode_bar49"
   height="26.666666"
   width="1.0666667"
   y="561.06665"
   x="480"
   style="stroke-width:1.13120699" /><rect
   id="barcode_bar51"
   height="26.666666"
   width="1.0666667"
   y="561.06665"
   x="483.20001"
   style="stroke-width:1.13120699" /><rect
   id="barcode_bar53"
   height="26.666666"
   width="1.0666667"
   y="561.06665"
   x="487.46667"
   style="stroke-width:1.13120699" /><rect
   id="barcode_bar55"
   height="26.666666"
   width="3.2"
   y="561.06665"
   x="489.60001"
   style="stroke-width:1.13120699" /><rect
   id="barcode_bar57"
   height="32"
   width="1.0666667"
   y="561.06665"
   x="494.93332"
   style="stroke-width:1.13120699" /><rect
   id="barcode_bar59"
   height="32"
   width="1.0666667"
   y="561.06665"
   x="497.06668"
   style="stroke-width:1.13120699" /><text
   id="barcode_bottomtext"
   xml:space="preserve"
   style="font-size:9.60000038px;line-height:0%;font-family:sans-serif;text-align:center;text-anchor:middle;stroke-width:1.13120699"
   y="598.40002"
   x="446.93332">5    060520    310084       </text>

</g></g><g
         id="g6969"
         transform="matrix(2.3745785,0,0,-2.3745892,-1019.7712,1487.9466)"
         style="stroke-width:1.06050646"><path
           d="m 447.26827,267.82187 5.63306,9.7504 5.62454,-9.7504 h 0.9664 l -0.0373,0.0661 v 14.9344 h -0.84373 v -13.472 l -5.71093,9.8816 -5.7184,-9.8816 v 13.472 h -0.84374 V 267.888 l -0.0373,-0.0661 z"
           id="path6971"
           inkscape:connector-curvature="0"
           style="stroke-width:1.13120699" /><path
           d="m 463.3376,267.82187 v 14.99946 h -0.84373 v -14.99946 z"
           id="path6973"
           inkscape:connector-curvature="0"
           style="stroke-width:1.13120699" /><path
           d="m 465.39947,282.8224 4.752,-8.24107 -3.89974,-6.75946 h 0.9664 l 3.41227,5.92533 3.43147,-5.92533 h 0.96426 l -3.91893,6.75946 4.77333,8.24107 h -0.9664 l -4.28373,-7.40587 -4.2752,7.40587 z"
           id="path6975"
           inkscape:connector-curvature="0"
           style="stroke-width:1.13120699" /><path
           d="m 493.9936,277.93707 c 0,1.41866 -0.5024,2.63146 -1.50507,3.63733 -1.00266,1.00587 -2.2176,1.50933 -3.64266,1.50933 -1.41867,0 -2.63147,-0.50346 -3.63734,-1.50933 -1.00586,-1.00587 -1.50826,-2.21867 -1.50826,-3.63733 v -4.96854 c 0,-1.41866 0.5024,-2.63146 1.50826,-3.63733 1.00587,-1.00587 2.21867,-1.50933 3.63734,-1.50933 1.42506,0 2.64,0.50346 3.64266,1.50933 1.00267,1.00587 1.50507,2.21867 1.50507,3.63733 z m -0.89173,-4.96854 c 0,-1.17546 -0.41494,-2.17706 -1.24587,-3.0048 -0.83093,-0.82773 -1.83573,-1.24266 -3.01013,-1.24266 -1.1744,0 -2.17707,0.41386 -3.008,1.24266 -0.83094,0.8288 -1.248,1.82934 -1.248,3.0048 v 4.96854 c 0,1.17546 0.41706,2.17706 1.248,3.0048 0.83093,0.82773 1.8336,1.24266 3.008,1.24266 1.1744,0 2.1792,-0.41386 3.01013,-1.24266 0.83093,-0.8288 1.24587,-1.82934 1.24587,-3.0048 z"
           id="path6977"
           inkscape:connector-curvature="0"
           style="stroke-width:1.13120699" /><path
           d="m 501.4272,267.82187 v 14.99946 h -0.84373 V 269.3024 h -0.8896 l 1.152,-1.4816 h 0.58133 z"
           id="path6979"
           inkscape:connector-curvature="0"
           style="stroke-width:1.13120699" /></g></g><use
       id="use8245"
       transform="translate(-0.01497277,127.9008)"
       xlink:href="#g4685"
       inkscape:tiled-clone-of="#g4685"
       y="0"
       x="0"
       width="100%"
       height="100%"
       style="stroke-width:1.02683055" /><use
       id="use8247"
       transform="translate(-0.01497277,255.8008)"
       xlink:href="#g4685"
       inkscape:tiled-clone-of="#g4685"
       y="0"
       x="0"
       width="100%"
       height="100%"
       style="stroke-width:1.02683055" /><use
       id="use8249"
       transform="translate(-0.01497277,383.7008)"
       xlink:href="#g4685"
       inkscape:tiled-clone-of="#g4685"
       y="0"
       x="0"
       width="100%"
       height="100%"
       style="stroke-width:1.02683055" /><use
       id="use8251"
       transform="translate(-0.01497277,511.6008)"
       xlink:href="#g4685"
       inkscape:tiled-clone-of="#g4685"
       y="0"
       x="0"
       width="100%"
       height="100%"
       style="stroke-width:1.02683055" /><use
       id="use8253"
       transform="translate(-0.01497277,639.5008)"
       xlink:href="#g4685"
       inkscape:tiled-clone-of="#g4685"
       y="0"
       x="0"
       width="100%"
       height="100%"
       style="stroke-width:1.02683055" /><use
       id="use8255"
       transform="translate(-0.01497277,767.4016)"
       xlink:href="#g4685"
       inkscape:tiled-clone-of="#g4685"
       y="0"
       x="0"
       width="100%"
       height="100%"
       style="stroke-width:1.02683055" /><use
       id="use8257"
       transform="translate(212.34903)"
       xlink:href="#g4685"
       inkscape:tiled-clone-of="#g4685"
       y="0"
       x="0"
       width="100%"
       height="100%" /><use
       id="use8259"
       transform="translate(212.34903,127.9008)"
       xlink:href="#g4685"
       inkscape:tiled-clone-of="#g4685"
       y="0"
       x="0"
       width="100%"
       height="100%" /><use
       id="use8261"
       transform="translate(212.34903,255.8008)"
       xlink:href="#g4685"
       inkscape:tiled-clone-of="#g4685"
       y="0"
       x="0"
       width="100%"
       height="100%" /><use
       id="use8263"
       transform="translate(212.34903,383.7008)"
       xlink:href="#g4685"
       inkscape:tiled-clone-of="#g4685"
       y="0"
       x="0"
       width="100%"
       height="100%" /><use
       id="use8265"
       transform="translate(212.34903,511.6008)"
       xlink:href="#g4685"
       inkscape:tiled-clone-of="#g4685"
       y="0"
       x="0"
       width="100%"
       height="100%" /><use
       id="use8267"
       transform="translate(212.34903,639.5008)"
       xlink:href="#g4685"
       inkscape:tiled-clone-of="#g4685"
       y="0"
       x="0"
       width="100%"
       height="100%" /><use
       id="use8269"
       transform="translate(212.34903,767.4016)"
       xlink:href="#g4685"
       inkscape:tiled-clone-of="#g4685"
       y="0"
       x="0"
       width="100%"
       height="100%" /><use
       id="use8271"
       transform="translate(424.71303)"
       xlink:href="#g4685"
       inkscape:tiled-clone-of="#g4685"
       y="0"
       x="0"
       width="100%"
       height="100%" /><use
       id="use8273"
       transform="translate(424.71303,127.9008)"
       xlink:href="#g4685"
       inkscape:tiled-clone-of="#g4685"
       y="0"
       x="0"
       width="100%"
       height="100%" /><use
       id="use8275"
       transform="translate(424.71303,255.8008)"
       xlink:href="#g4685"
       inkscape:tiled-clone-of="#g4685"
       y="0"
       x="0"
       width="100%"
       height="100%" /><use
       id="use8277"
       transform="translate(424.71303,383.7008)"
       xlink:href="#g4685"
       inkscape:tiled-clone-of="#g4685"
       y="0"
       x="0"
       width="100%"
       height="100%" /><use
       id="use8279"
       transform="translate(424.71303,511.6008)"
       xlink:href="#g4685"
       inkscape:tiled-clone-of="#g4685"
       y="0"
       x="0"
       width="100%"
       height="100%" /><use
       id="use8281"
       transform="translate(424.71303,639.5008)"
       xlink:href="#g4685"
       inkscape:tiled-clone-of="#g4685"
       y="0"
       x="0"
       width="100%"
       height="100%" /><use
       id="use8283"
       transform="translate(424.71303,767.4016)"
       xlink:href="#g4685"
       inkscape:tiled-clone-of="#g4685"
       y="0"
       x="0"
       width="100%"
       height="100%" /></g></svg>