<?xml version="1.0" encoding="UTF-8" standalone="no"?>
<!-- Created with Inkscape (http://www.inkscape.org/) -->

<svg
   xmlns:dc="http://purl.org/dc/elements/1.1/"
   xmlns:cc="http://creativecommons.org/ns#"
   xmlns:rdf="http://www.w3.org/1999/02/22-rdf-syntax-ns#"
   xmlns:svg="http://www.w3.org/2000/svg"
   xmlns="http://www.w3.org/2000/svg"
   xmlns:xlink="http://www.w3.org/1999/xlink"
   xmlns:sodipodi="http://sodipodi.sourceforge.net/DTD/sodipodi-0.dtd"
   xmlns:inkscape="http://www.inkscape.org/namespaces/inkscape"
   id="svg4373"
   version="1.1"
   inkscape:version="0.92.4 (5da689c313, 2019-01-14)"
   width="210mm"
   height="297mm"
   xml:space="preserve"
   sodipodi:docname="CLKLabels.svg"><sodipodi:namedview
     pagecolor="#ffffff"
     bordercolor="#666666"
     borderopacity="1"
     objecttolerance="10"
     gridtolerance="10"
     guidetolerance="10"
     inkscape:pageopacity="0"
     inkscape:pageshadow="2"
     inkscape:window-width="1920"
     inkscape:window-height="1016"
     id="namedview4375"
     showgrid="false"
     inkscape:zoom="0.55468617"
     inkscape:cx="335.97585"
     inkscape:cy="644.14726"
     inkscape:window-x="0"
     inkscape:window-y="27"
     inkscape:window-maximized="1"
     inkscape:current-layer="g4381"
     inkscape:document-units="mm"
     showguides="false"
     inkscape:guide-bbox="true"
     units="mm" /><metadata
     id="metadata4379"><rdf:RDF><cc:Work
         rdf:about=""><dc:format>image/svg+xml</dc:format><dc:type
           rdf:resource="http://purl.org/dc/dcmitype/StillImage" /><dc:title></dc:title></cc:Work></rdf:RDF></metadata><defs
     id="defs4377"><clipPath
       id="clipPath4387"
       clipPathUnits="userSpaceOnUse"><path
         id="path4389"
         d="M 0,0 H 595.276 V 841.89 H 0 Z"
         inkscape:connector-curvature="0" /></clipPath><clipPath
       id="clipPath4421"
       clipPathUnits="userSpaceOnUse"><path
         id="path4423"
         d="M 0,0 H 595.276 V 841.89 H 0 Z"
         inkscape:connector-curvature="0" /></clipPath><clipPath
       id="clipPath4443"
       clipPathUnits="userSpaceOnUse"><path
         id="path4445"
         d="M 0,0 H 595.276 V 841.89 H 0 Z"
         inkscape:connector-curvature="0" /></clipPath><clipPath
       id="clipPath7941"
       clipPathUnits="userSpaceOnUse"><path
         id="path7943"
         d="M 0,0 H 595.276 V 841.89 H 0 Z"
         inkscape:connector-curvature="0" /></clipPath><clipPath
       id="clipPath7975"
       clipPathUnits="userSpaceOnUse"><path
         id="path7977"
         d="M 0,0 H 595.276 V 841.89 H 0 Z"
         inkscape:connector-curvature="0" /></clipPath><clipPath
       id="clipPath7997"
       clipPathUnits="userSpaceOnUse"><path
         id="path7999"
         d="M 0,0 H 595.276 V 841.89 H 0 Z"
         inkscape:connector-curvature="0" /></clipPath></defs><g
     transform="matrix(1.25,0,0,-1.25,0,1122.5196)"
     inkscape:label="Label Planet LP21 70 Portrait"
     inkscape:groupmode="layer"
     id="g4381"><g
       inkscape:tile-y0="912.55037"
       inkscape:tile-x0="22.281616"
       inkscape:tile-h="129.62935"
       inkscape:tile-w="203.15552"
       inkscape:tile-cy="977.36505"
       inkscape:tile-cx="123.85937"
       transform="matrix(1.0000045,0,0,1,2.1271094,-719.49045)"
       id="g4685"><g
         transform="matrix(0.68631727,0,0,-0.68631727,-31.837369,883.75758)"
         style="font-style:normal;font-variant:normal;font-weight:normal;font-stretch:normal;font-size:40px;line-height:125%;font-family:'More than human';-inkscape-font-specification:'More than human';text-align:start;letter-spacing:0px;word-spacing:0px;writing-mode:lr-tb;text-anchor:start;fill:#000000;fill-opacity:1;stroke:none"
         id="flowRoot2985"><path
           inkscape:connector-curvature="0"
           d="m 79.5375,81.455617 h -2.55 v 9.21 l 2.55,-1.29 v -7.92 m 1.2,-1.2 v 9.87 l -4.95,2.49 v -12.36 h 4.95 m -7.5,19.920003 -0.63,5.76 -0.57,-5.76 V 76.505617 h 12.45 v 15.93 l -2.97,1.5 2.97,1.56 v 4.680003 l -0.63,5.76 -0.57,-5.76 v -3.960003 l -4.38,-2.31 4.38,-2.19 v -14.01 h -10.05 v 22.470003 m 3.75,0 -0.63,5.76 -0.57,-5.76 v -4.890003 l 4.95,2.58 v 2.310003 l -0.63,5.76 -0.57,-5.76 v -1.590003 l -2.52,-1.32 v 2.910003 h -0.03"
           style="font-size:30px;line-height:125%;font-family:'More than human';-inkscape-font-specification:'More than human'"
           id="path3134" /><path
           inkscape:connector-curvature="0"
           d="m 100.13203,102.57562 -0.629999,5.76 -0.57,-5.76 v -6.120003 h -7.5 v -4.98 h 7.5 v -2.52 h -7.5 v -8.73 h 4.95 v 3.75 h 2.55 v -6.27 h -10.05 v 23.070003 l -0.63,5.76 -0.57,-5.76 V 76.505617 h 12.449999 v 8.67 h -4.949999 v -3.75 h -2.55 v 6.33 h 7.499999 v 4.92 h -7.499999 v 2.58 h 7.499999 v 7.320003"
           style="font-size:30px;line-height:125%;font-family:'More than human';-inkscape-font-specification:'More than human'"
           id="path3136" /><path
           inkscape:connector-curvature="0"
           d="m 110.70937,81.455617 h -2.55 v 5.46 l 2.55,-1.29 v -4.17 m 1.2,-1.2 v 6.12 l -4.95,2.49 v -8.61 h 4.95 m -1.2,14.55 -2.55,-1.29 v 1.71 h 2.55 v -0.42 m 1.2,-0.75 v 2.37 h -4.95 v -4.86 l 4.95,2.49 m 3.75,5.82 -0.62999,5.760003 -0.57001,-5.760003 v -7.41 l -4.37999,-2.31 4.37999,-2.19 v -10.26 h -10.05 v 24.570003 l -0.62999,5.76 -0.57001,-5.76 V 76.505617 h 12.45 v 12.18 l -2.97,1.5 2.97,1.56 v 8.13"
           style="font-size:30px;line-height:125%;font-family:'More than human';-inkscape-font-specification:'More than human'"
           id="path3139" /><path
           inkscape:connector-curvature="0"
           d="m 131.30391,102.57562 -0.63,5.76 -0.57,-5.76 v -6.120003 h -7.5 v -4.98 h 7.5 v -2.52 h -7.5 v -8.73 h 4.95 v 3.75 h 2.55 v -6.27 h -10.05 v 23.070003 l -0.63,5.76 -0.57,-5.76 V 76.505617 h 12.45 v 8.67 h -4.95 v -3.75 h -2.55 v 6.33 h 7.5 v 4.92 h -7.5 v 2.58 h 7.5 v 7.320003"
           style="font-size:30px;line-height:125%;font-family:'More than human';-inkscape-font-specification:'More than human'"
           id="path3141" /><path
           inkscape:connector-curvature="0"
           d="m 143.08125,99.575617 -0.63,5.760003 -0.57,-5.760003 v -3.12 h -3.75 v -18.75 h -2.55 v 24.570003 l -0.63,5.76 -0.57,-5.76 V 76.505617 h 4.95 v 18.75 h 3.75 v 4.32"
           style="font-size:30px;line-height:125%;font-family:'More than human';-inkscape-font-specification:'More than human'"
           id="path3143" /><path
           inkscape:connector-curvature="0"
           d="m 169.38984,100.17562 -0.63,5.76 -0.57,-5.76 V 80.225617 h 3.75 v -2.52 h -10.05 v 2.52 h 3.75 v 19.950003 l -0.63,5.76 -0.57,-5.76 V 81.425617 h -3.75 v -4.92 h 12.45 v 4.92 h -3.75 v 18.750003"
           style="font-size:30px;line-height:125%;font-family:'More than human';-inkscape-font-specification:'More than human'"
           id="path3145" /><path
           inkscape:connector-curvature="0"
           d="m 188.37422,102.57562 -0.63,5.76 -0.57,-5.76 v -6.120003 h -7.5 v -4.98 h 7.5 v -2.52 h -7.5 v -8.73 h 4.95 v 3.75 h 2.55 v -6.27 h -10.05 v 23.070003 l -0.63,5.76 -0.57,-5.76 V 76.505617 h 12.45 v 8.67 h -4.95 v -3.75 h -2.55 v 6.33 h 7.5 v 4.92 h -7.5 v 2.58 h 7.5 v 7.320003"
           style="font-size:30px;line-height:125%;font-family:'More than human';-inkscape-font-specification:'More than human'"
           id="path3147" /><path
           inkscape:connector-curvature="0"
           d="m 203.90156,102.27562 -0.63,5.76 -0.57,-5.76 v -9.570003 h -2.55 v 3.75 h -4.95 v -16.23 h 4.95 v 3.75 h 2.55 v -6.27 h -10.05 v 22.17 l -0.63,5.760003 -0.57,-5.760003 v -23.37 h 12.45 v 8.67 h -4.95 v -3.75 h -2.55 v 13.83 h 2.55 v -3.75 h 4.95 v 10.770003"
           style="font-size:30px;line-height:125%;font-family:'More than human';-inkscape-font-specification:'More than human'"
           id="path3149" /><path
           inkscape:connector-curvature="0"
           d="m 219.37031,100.77562 -0.63,5.76 -0.57,-5.76 V 77.705617 h -2.55 v 15 h -4.95 v -15 h -2.55 v 22.17 l -0.63,5.760003 -0.57,-5.760003 v -23.37 h 4.95 v 15 h 2.55 v -15 h 4.95 v 24.270003 m -3.75,-1.500003 -0.63,5.760003 -0.57,-5.760003 v -2.85 h -2.55 v 7.050003 l -0.63,5.76 -0.57,-5.76 v -8.250003 h 4.95 v 4.05"
           style="font-size:30px;line-height:125%;font-family:'More than human';-inkscape-font-specification:'More than human'"
           id="path3151" /><path
           inkscape:connector-curvature="0"
           d="m 231.44484,100.17562 -0.63,5.76 -0.57,-5.76 -2.7,-7.890003 v 7.29 l -0.63,5.760003 -0.57,-5.760003 h -0.03 l 0.03,-14.43 5.1,15.030003 m 3.57,0.9 -0.63,5.76 -0.57,-5.76 V 77.705617 h -2.58 v 13.83 l -4.77,-13.83 h -2.7 v 25.770003 l -0.63,5.76 -0.57,-5.76 V 76.505617 h 4.77 l 2.7,7.89 v -7.89 h 4.98 v 24.570003"
           style="font-size:30px;line-height:125%;font-family:'More than human';-inkscape-font-specification:'More than human'"
           id="path3153" /><path
           inkscape:connector-curvature="0"
           d="m 245.70937,81.455617 h -2.55 v 13.77 h 2.55 v -13.77 m 1.2,-1.2 v 16.17 h -4.95 v -16.17 h 4.95 m 3.75,19.62 -0.63,5.760003 -0.57,-5.760003 v -22.17 h -10.05 v 25.470003 l -0.63,5.76 -0.57,-5.76 V 76.505617 h 12.45 v 23.37"
           style="font-size:30px;line-height:125%;font-family:'More than human';-inkscape-font-specification:'More than human'"
           id="path3155" /><path
           inkscape:connector-curvature="0"
           d="m 262.55391,99.575617 -0.63,5.760003 -0.57,-5.760003 v -3.12 h -3.75 v -18.75 h -2.55 v 24.570003 l -0.63,5.76 -0.57,-5.76 V 76.505617 h 4.95 v 18.75 h 3.75 v 4.32"
           style="font-size:30px;line-height:125%;font-family:'More than human';-inkscape-font-specification:'More than human'"
           id="path3157" /><path
           inkscape:connector-curvature="0"
           d="m 272.6625,81.455617 h -2.55 v 13.77 h 2.55 v -13.77 m 1.2,-1.2 v 16.17 h -4.95 v -16.17 h 4.95 m 3.75,19.62 -0.63,5.760003 -0.57,-5.760003 v -22.17 h -10.05 v 25.470003 l -0.63,5.76 -0.57,-5.76 V 76.505617 h 12.45 v 23.37"
           style="font-size:30px;line-height:125%;font-family:'More than human';-inkscape-font-specification:'More than human'"
           id="path3159" /><path
           inkscape:connector-curvature="0"
           d="m 293.25703,101.97562 -0.63,5.76 -0.57,-5.76 V 88.955617 h -2.55 v 7.5 h -4.95 v -16.23 h 4.95 v 3.75 h 2.55 v -6.27 h -10.05 v 21.87 l -0.63,5.760003 -0.57,-5.760003 v -23.07 h 12.45 v 8.67 h -4.95 v -3.75 h -2.55 v 13.83 h 2.55 v -7.5 h 4.95 v 14.220003"
           style="font-size:30px;line-height:125%;font-family:'More than human';-inkscape-font-specification:'More than human'"
           id="path3161" /><path
           inkscape:connector-curvature="0"
           d="m 308.84297,99.575617 -0.63,5.760003 -0.57,-5.760003 v -21.87 h -2.55 v 11.25 h -4.95 v -11.25 h -2.55 v 13.77 h 7.5 v 4.98 h -7.5 v 7.320003 l -0.63,5.76 -0.57,-5.76 v -8.520003 h 7.5 v -2.58 h -7.5 v -16.17 h 4.95 v 11.25 h 2.55 v -11.25 h 4.95 v 23.07"
           style="font-size:30px;line-height:125%;font-family:'More than human';-inkscape-font-specification:'More than human'"
           id="path3163" /></g><g
         id="flowRoot3001-3"
         style="font-style:normal;font-variant:normal;font-weight:normal;font-stretch:normal;font-size:12px;line-height:125%;font-family:Sans;-inkscape-font-specification:Sans;text-align:start;letter-spacing:0px;word-spacing:0px;writing-mode:lr-tb;text-anchor:start;fill:#000000;fill-opacity:1;stroke:none"
         transform="matrix(0.68631727,0,0,-0.68631727,5.3894602,925.0153)"><text
   xml:space="preserve"
   style="font-style:normal;font-weight:normal;line-height:0%;font-family:sans-serif;letter-spacing:0px;word-spacing:0px;fill:#000000;fill-opacity:1;stroke:none"
   x="19.715643"
   y="269.83456"
   id="text6700-0"><tspan
     sodipodi:role="line"
     id="tspan6702-6"
     x="19.715643"
     y="269.83456"
     style="font-size:9.94596863px;line-height:1.25;font-family:sans-serif">clk</tspan></text>

<text
   id="text4244"
   y="253.66774"
   x="19.715643"
   style="font-style:normal;font-weight:normal;line-height:0%;font-family:sans-serif;letter-spacing:0px;word-spacing:0px;fill:#000000;fill-opacity:1;stroke:none"
   xml:space="preserve"><tspan
     y="253.66774"
     x="19.715643"
     sodipodi:role="line"
     id="tspan4248"
     style="font-size:9.94596863px;line-height:1.25;font-family:sans-serif">Rebel Technology</tspan></text>

<g
   transform="translate(158.9845,242.98305)"
   style="fill:#000000"
   id="barcode"><rect
   id="barcode_bar1"
   height="29"
   width="1"
   y="0"
   x="0" /><rect
   id="barcode_bar3"
   height="29"
   width="1"
   y="0"
   x="2" /><rect
   id="barcode_bar5"
   height="25"
   width="2"
   y="0"
   x="6" /><rect
   id="barcode_bar7"
   height="25"
   width="1"
   y="0"
   x="9" /><rect
   id="barcode_bar9"
   height="25"
   width="1"
   y="0"
   x="14" /><rect
   id="barcode_bar11"
   height="25"
   width="1"
   y="0"
   x="16" /><rect
   id="barcode_bar13"
   height="25"
   width="1"
   y="0"
   x="18" /><rect
   id="barcode_bar15"
   height="25"
   width="3"
   y="0"
   x="21" /><rect
   id="barcode_bar17"
   height="25"
   width="2"
   y="0"
   x="25" /><rect
   id="barcode_bar19"
   height="25"
   width="1"
   y="0"
   x="30" /><rect
   id="barcode_bar21"
   height="25"
   width="1"
   y="0"
   x="33" /><rect
   id="barcode_bar23"
   height="25"
   width="2"
   y="0"
   x="36" /><rect
   id="barcode_bar25"
   height="25"
   width="1"
   y="0"
   x="39" /><rect
   id="barcode_bar27"
   height="25"
   width="3"
   y="0"
   x="42" /><rect
   id="barcode_bar29"
   height="29"
   width="1"
   y="0"
   x="46" /><rect
   id="barcode_bar31"
   height="29"
   width="1"
   y="0"
   x="48" /><rect
   id="barcode_bar33"
   height="25"
   width="1"
   y="0"
   x="50" /><rect
   id="barcode_bar35"
   height="25"
   width="1"
   y="0"
   x="55" /><rect
   id="barcode_bar37"
   height="25"
   width="2"
   y="0"
   x="57" /><rect
   id="barcode_bar39"
   height="25"
   width="2"
   y="0"
   x="61" /><rect
   id="barcode_bar41"
   height="25"
   width="3"
   y="0"
   x="64" /><rect
   id="barcode_bar43"
   height="25"
   width="1"
   y="0"
   x="69" /><rect
   id="barcode_bar45"
   height="25"
   width="2"
   y="0"
   x="71" /><rect
   id="barcode_bar47"
   height="25"
   width="2"
   y="0"
   x="75" /><rect
   id="barcode_bar49"
   height="25"
   width="1"
   y="0"
   x="78" /><rect
   id="barcode_bar51"
   height="25"
   width="1"
   y="0"
   x="80" /><rect
   id="barcode_bar53"
   height="25"
   width="3"
   y="0"
   x="85" /><rect
   id="barcode_bar55"
   height="25"
   width="1"
   y="0"
   x="89" /><rect
   id="barcode_bar57"
   height="29"
   width="1"
   y="0"
   x="92" /><rect
   id="barcode_bar59"
   height="29"
   width="1"
   y="0"
   x="94" /><text
   id="barcode_text"
   xml:space="preserve"
   style="font-size:9px;line-height:0%;font-family:sans-serif;text-align:center;text-anchor:middle"
   y="34"
   x="47">5    060520     310169       </text>

</g></g><g
         id="text5812"
         style="font-style:normal;font-variant:normal;font-weight:normal;font-stretch:normal;font-size:74.0359726px;line-height:125%;font-family:'Champagne &amp; Limousines';-inkscape-font-specification:'Champagne &amp; Limousines';letter-spacing:0px;word-spacing:0px;fill:#000000;fill-opacity:1;stroke:none"
         transform="scale(0.9999978,-1.0000022)"><path
           id="path5917"
           style="font-size:37.72339249px"
           d="m 85.649192,-796.01011 v 3.92338 q -1.878802,-1.74987 -4.015478,-2.61559 -2.118257,-0.86572 -4.512808,-0.86572 -4.715424,0 -7.220494,2.89188 -2.505069,2.87346 -2.505069,8.32567 0,5.43379 2.505069,8.32567 2.50507,2.87346 7.220494,2.87346 2.394551,0 4.512808,-0.86572 2.136676,-0.86572 4.015478,-2.61559 v 3.88654 q -1.95248,1.32622 -4.144416,1.98932 -2.173515,0.66311 -4.604906,0.66311 -6.244253,0 -9.83608,-3.81286 -3.591827,-3.83128 -3.591827,-10.44393 0,-6.63106 3.591827,-10.44393 3.591827,-3.83128 9.83608,-3.83128 2.46823,0 4.641746,0.66311 2.191935,0.64468 4.107576,1.95248 z"
           inkscape:connector-curvature="0" /><path
           id="path5919"
           style="font-size:37.72339249px"
           d="m 91.432955,-798.12837 h 3.720764 v 24.36917 h 13.391071 v 3.13133 H 91.432955 Z"
           inkscape:connector-curvature="0" /><path
           id="path5921"
           style="font-size:37.72339249px"
           d="m 112.43133,-798.12837 h 3.72076 v 11.62278 l 12.34115,-11.62278 h 4.7891 l -13.64894,12.82006 14.62518,14.68044 h -4.89962 l -13.20687,-13.24371 v 13.24371 h -3.72076 z"
           inkscape:connector-curvature="0" /></g></g><use
       id="use8245"
       transform="translate(-2.7923971e-8,127.9008)"
       xlink:href="#g4685"
       inkscape:tiled-clone-of="#g4685"
       y="0"
       x="0"
       width="100%"
       height="100%" /><use
       id="use8247"
       transform="translate(-2.7923971e-8,255.8008)"
       xlink:href="#g4685"
       inkscape:tiled-clone-of="#g4685"
       y="0"
       x="0"
       width="100%"
       height="100%" /><use
       id="use8249"
       transform="translate(-2.7923971e-8,383.7008)"
       xlink:href="#g4685"
       inkscape:tiled-clone-of="#g4685"
       y="0"
       x="0"
       width="100%"
       height="100%" /><use
       id="use8251"
       transform="translate(-2.7923971e-8,511.6008)"
       xlink:href="#g4685"
       inkscape:tiled-clone-of="#g4685"
       y="0"
       x="0"
       width="100%"
       height="100%" /><use
       id="use8253"
       transform="translate(-2.7923971e-8,639.5008)"
       xlink:href="#g4685"
       inkscape:tiled-clone-of="#g4685"
       y="0"
       x="0"
       width="100%"
       height="100%" /><use
       id="use8255"
       transform="translate(-2.7923971e-8,767.4016)"
       xlink:href="#g4685"
       inkscape:tiled-clone-of="#g4685"
       y="0"
       x="0"
       width="100%"
       height="100%" /><use
       id="use8257"
       transform="translate(212.364)"
       xlink:href="#g4685"
       inkscape:tiled-clone-of="#g4685"
       y="0"
       x="0"
       width="100%"
       height="100%" /><use
       id="use8259"
       transform="translate(212.364,127.9008)"
       xlink:href="#g4685"
       inkscape:tiled-clone-of="#g4685"
       y="0"
       x="0"
       width="100%"
       height="100%" /><use
       id="use8261"
       transform="translate(212.364,255.8008)"
       xlink:href="#g4685"
       inkscape:tiled-clone-of="#g4685"
       y="0"
       x="0"
       width="100%"
       height="100%" /><use
       id="use8263"
       transform="translate(212.364,383.7008)"
       xlink:href="#g4685"
       inkscape:tiled-clone-of="#g4685"
       y="0"
       x="0"
       width="100%"
       height="100%" /><use
       id="use8265"
       transform="translate(212.364,511.6008)"
       xlink:href="#g4685"
       inkscape:tiled-clone-of="#g4685"
       y="0"
       x="0"
       width="100%"
       height="100%" /><use
       id="use8267"
       transform="translate(212.364,639.5008)"
       xlink:href="#g4685"
       inkscape:tiled-clone-of="#g4685"
       y="0"
       x="0"
       width="100%"
       height="100%" /><use
       id="use8269"
       transform="translate(212.364,767.4016)"
       xlink:href="#g4685"
       inkscape:tiled-clone-of="#g4685"
       y="0"
       x="0"
       width="100%"
       height="100%" /><use
       id="use8271"
       transform="translate(424.728)"
       xlink:href="#g4685"
       inkscape:tiled-clone-of="#g4685"
       y="0"
       x="0"
       width="100%"
       height="100%" /><use
       id="use8273"
       transform="translate(424.728,127.9008)"
       xlink:href="#g4685"
       inkscape:tiled-clone-of="#g4685"
       y="0"
       x="0"
       width="100%"
       height="100%" /><use
       id="use8275"
       transform="translate(424.728,255.8008)"
       xlink:href="#g4685"
       inkscape:tiled-clone-of="#g4685"
       y="0"
       x="0"
       width="100%"
       height="100%" /><use
       id="use8277"
       transform="translate(424.728,383.7008)"
       xlink:href="#g4685"
       inkscape:tiled-clone-of="#g4685"
       y="0"
       x="0"
       width="100%"
       height="100%" /><use
       id="use8279"
       transform="translate(424.728,511.6008)"
       xlink:href="#g4685"
       inkscape:tiled-clone-of="#g4685"
       y="0"
       x="0"
       width="100%"
       height="100%" /><use
       id="use8281"
       transform="translate(424.728,639.5008)"
       xlink:href="#g4685"
       inkscape:tiled-clone-of="#g4685"
       y="0"
       x="0"
       width="100%"
       height="100%" /><use
       id="use8283"
       transform="translate(424.728,767.4016)"
       xlink:href="#g4685"
       inkscape:tiled-clone-of="#g4685"
       y="0"
       x="0"
       width="100%"
       height="100%" /></g></svg>