G75*
G70*
%OFA0B0*%
%FSLAX24Y24*%
%IPPOS*%
%LPD*%
%AMOC8*
5,1,8,0,0,1.08239X$1,22.5*
%
%ADD10C,0.0000*%
%ADD11R,0.0906X0.0276*%
%ADD12R,0.0434X0.0473*%
%ADD13C,0.0800*%
%ADD14OC8,0.1221*%
%ADD15OC8,0.1306*%
%ADD16R,0.0540X0.0260*%
%ADD17R,0.0260X0.0540*%
%ADD18R,0.0709X0.0316*%
%ADD19C,0.0780*%
%ADD20R,0.0473X0.0434*%
%ADD21R,0.0434X0.0591*%
%ADD22R,0.0591X0.0434*%
%ADD23R,0.0540X0.0619*%
%ADD24OC8,0.0780*%
%ADD25R,0.0631X0.0827*%
%ADD26OC8,0.1280*%
%ADD27R,0.0749X0.0749*%
%ADD28C,0.1306*%
%ADD29R,0.0280X0.0910*%
%ADD30R,0.0316X0.0434*%
%ADD31R,0.0780X0.0780*%
D10*
X003791Y000319D02*
X027661Y000319D01*
X027661Y020119D01*
X003791Y020119D01*
X003791Y000319D01*
D11*
X017018Y013569D03*
X017018Y014069D03*
X017018Y014569D03*
X017018Y015069D03*
X019065Y015069D03*
X019065Y014569D03*
X019065Y014069D03*
X019065Y013569D03*
D12*
X022957Y012319D03*
X023626Y012319D03*
X023626Y011319D03*
X022957Y011319D03*
X022957Y010319D03*
X023626Y010319D03*
X023626Y009319D03*
X022957Y009319D03*
X021126Y007819D03*
X020457Y007819D03*
X019126Y007819D03*
X018457Y007819D03*
X015126Y003069D03*
X014457Y003069D03*
X013126Y002319D03*
X012457Y002319D03*
X009126Y002319D03*
X008457Y002319D03*
X007626Y002319D03*
X006957Y002319D03*
X006957Y001319D03*
X007626Y001319D03*
X009541Y009984D03*
X009541Y010653D03*
X005376Y012319D03*
X004707Y012319D03*
X024957Y012319D03*
X025626Y012319D03*
D13*
X020839Y014334D03*
X020839Y015319D03*
X020839Y016303D03*
X020839Y006303D03*
X020839Y005319D03*
X020839Y004334D03*
D14*
X023791Y003547D03*
X023791Y007090D03*
X023791Y013547D03*
X023791Y017090D03*
D15*
X020641Y010319D03*
X018791Y010319D03*
X016941Y010319D03*
D16*
X013731Y010476D03*
X013731Y010161D03*
X013731Y009846D03*
X013731Y009531D03*
X013731Y009216D03*
X013731Y010791D03*
X013731Y011106D03*
X013731Y011421D03*
X010351Y011421D03*
X010351Y011106D03*
X010351Y010791D03*
X010351Y010476D03*
X010351Y010161D03*
X010351Y009846D03*
X010351Y009531D03*
X010351Y009216D03*
D17*
X010939Y008629D03*
X011254Y008629D03*
X011569Y008629D03*
X011884Y008629D03*
X012199Y008629D03*
X012514Y008629D03*
X012829Y008629D03*
X013144Y008629D03*
X013144Y012009D03*
X012829Y012009D03*
X012514Y012009D03*
X012199Y012009D03*
X011884Y012009D03*
X011569Y012009D03*
X011254Y012009D03*
X010939Y012009D03*
D18*
X015041Y011291D03*
X015041Y010819D03*
X015041Y010346D03*
D19*
X012791Y018069D03*
X012791Y019319D03*
X010791Y019319D03*
X010791Y018069D03*
X022541Y019319D03*
X024541Y019319D03*
X027041Y011819D03*
X027041Y010819D03*
X027041Y009819D03*
X019041Y001069D03*
X018041Y001069D03*
X017041Y001069D03*
X016041Y001069D03*
X015041Y001069D03*
X014041Y001069D03*
D20*
X014457Y004069D03*
X015126Y004069D03*
X018291Y004403D03*
X018291Y003734D03*
X019291Y003734D03*
X019291Y004403D03*
X015541Y012484D03*
X015541Y013153D03*
X015541Y013984D03*
X015541Y014653D03*
X014541Y014653D03*
X014541Y013984D03*
X005376Y009069D03*
X004707Y009069D03*
D21*
X018417Y005386D03*
X019165Y005386D03*
X018791Y006252D03*
D22*
X011224Y001819D03*
X010358Y002193D03*
X010358Y001445D03*
D23*
X009388Y018069D03*
X009388Y019319D03*
X007695Y019319D03*
X007695Y018069D03*
X022695Y018319D03*
X024388Y018319D03*
D24*
X021041Y018069D03*
X020041Y018069D03*
X019041Y018069D03*
X018041Y018069D03*
X017041Y018069D03*
X016041Y018069D03*
X015041Y018069D03*
X014041Y018069D03*
X014041Y019069D03*
X015041Y019069D03*
X016041Y019069D03*
X017041Y019069D03*
X018041Y019069D03*
X019041Y019069D03*
X020041Y019069D03*
X021041Y019069D03*
D25*
X026291Y019330D03*
X026291Y018307D03*
D26*
X004791Y001319D03*
D27*
X006291Y003819D03*
X011291Y003819D03*
X011291Y013819D03*
X006291Y013819D03*
D28*
X004791Y015319D03*
X006291Y016819D03*
X008291Y015319D03*
X009791Y015319D03*
X011291Y016819D03*
X013291Y015319D03*
X011291Y006819D03*
X009791Y005319D03*
X008291Y005319D03*
X006291Y006819D03*
X004791Y005319D03*
X013291Y005319D03*
D29*
X007541Y009289D03*
X007041Y009289D03*
X006541Y009289D03*
X006041Y009289D03*
X006041Y011349D03*
X006541Y011349D03*
X007041Y011349D03*
X007541Y011349D03*
D30*
X005415Y010752D03*
X004667Y010752D03*
X005041Y009886D03*
D31*
X027041Y008819D03*
M02*
