G75*
G70*
%OFA0B0*%
%FSLAX24Y24*%
%IPPOS*%
%LPD*%
%AMOC8*
5,1,8,0,0,1.08239X$1,22.5*
%
%ADD10C,0.0000*%
%ADD11R,0.0866X0.0236*%
%ADD12R,0.0394X0.0433*%
%ADD13C,0.0760*%
%ADD14OC8,0.1181*%
%ADD15OC8,0.1266*%
%ADD16R,0.0500X0.0220*%
%ADD17R,0.0220X0.0500*%
%ADD18R,0.0669X0.0276*%
%ADD19C,0.0740*%
%ADD20R,0.0433X0.0394*%
%ADD21R,0.0394X0.0551*%
%ADD22R,0.0551X0.0394*%
%ADD23R,0.0500X0.0579*%
%ADD24OC8,0.0740*%
%ADD25R,0.0591X0.0787*%
%ADD26OC8,0.1240*%
%ADD27R,0.0709X0.0709*%
%ADD28C,0.1266*%
%ADD29R,0.0240X0.0870*%
%ADD30R,0.0276X0.0394*%
%ADD31R,0.0740X0.0740*%
%ADD32C,0.0240*%
%ADD33R,0.0356X0.0356*%
%ADD34C,0.0160*%
%ADD35C,0.0120*%
D10*
X003791Y000319D02*
X027661Y000319D01*
X027661Y020119D01*
X003791Y020119D01*
X003791Y000319D01*
D11*
X017018Y013569D03*
X017018Y014069D03*
X017018Y014569D03*
X017018Y015069D03*
X019065Y015069D03*
X019065Y014569D03*
X019065Y014069D03*
X019065Y013569D03*
D12*
X022957Y012319D03*
X023626Y012319D03*
X023626Y011319D03*
X022957Y011319D03*
X022957Y010319D03*
X023626Y010319D03*
X023626Y009319D03*
X022957Y009319D03*
X021126Y007819D03*
X020457Y007819D03*
X019126Y007819D03*
X018457Y007819D03*
X015126Y003069D03*
X014457Y003069D03*
X013126Y002319D03*
X012457Y002319D03*
X009126Y002319D03*
X008457Y002319D03*
X007626Y002319D03*
X006957Y002319D03*
X006957Y001319D03*
X007626Y001319D03*
X009541Y009984D03*
X009541Y010653D03*
X005376Y012319D03*
X004707Y012319D03*
X024957Y012319D03*
X025626Y012319D03*
D13*
X020839Y014334D03*
X020839Y015319D03*
X020839Y016303D03*
X020839Y006303D03*
X020839Y005319D03*
X020839Y004334D03*
D14*
X023791Y003547D03*
X023791Y007090D03*
X023791Y013547D03*
X023791Y017090D03*
D15*
X020641Y010319D03*
X018791Y010319D03*
X016941Y010319D03*
D16*
X013731Y010476D03*
X013731Y010161D03*
X013731Y009846D03*
X013731Y009531D03*
X013731Y009216D03*
X013731Y010791D03*
X013731Y011106D03*
X013731Y011421D03*
X010351Y011421D03*
X010351Y011106D03*
X010351Y010791D03*
X010351Y010476D03*
X010351Y010161D03*
X010351Y009846D03*
X010351Y009531D03*
X010351Y009216D03*
D17*
X010939Y008629D03*
X011254Y008629D03*
X011569Y008629D03*
X011884Y008629D03*
X012199Y008629D03*
X012514Y008629D03*
X012829Y008629D03*
X013144Y008629D03*
X013144Y012009D03*
X012829Y012009D03*
X012514Y012009D03*
X012199Y012009D03*
X011884Y012009D03*
X011569Y012009D03*
X011254Y012009D03*
X010939Y012009D03*
D18*
X015041Y011291D03*
X015041Y010819D03*
X015041Y010346D03*
D19*
X012791Y018069D03*
X012791Y019319D03*
X010791Y019319D03*
X010791Y018069D03*
X022541Y019319D03*
X024541Y019319D03*
X027041Y011819D03*
X027041Y010819D03*
X027041Y009819D03*
X019041Y001069D03*
X018041Y001069D03*
X017041Y001069D03*
X016041Y001069D03*
X015041Y001069D03*
X014041Y001069D03*
D20*
X014457Y004069D03*
X015126Y004069D03*
X018291Y004403D03*
X018291Y003734D03*
X019291Y003734D03*
X019291Y004403D03*
X015541Y012484D03*
X015541Y013153D03*
X015541Y013984D03*
X015541Y014653D03*
X014541Y014653D03*
X014541Y013984D03*
X005376Y009069D03*
X004707Y009069D03*
D21*
X018417Y005386D03*
X019165Y005386D03*
X018791Y006252D03*
D22*
X011224Y001819D03*
X010358Y002193D03*
X010358Y001445D03*
D23*
X009388Y018069D03*
X009388Y019319D03*
X007695Y019319D03*
X007695Y018069D03*
X022695Y018319D03*
X024388Y018319D03*
D24*
X021041Y018069D03*
X020041Y018069D03*
X019041Y018069D03*
X018041Y018069D03*
X017041Y018069D03*
X016041Y018069D03*
X015041Y018069D03*
X014041Y018069D03*
X014041Y019069D03*
X015041Y019069D03*
X016041Y019069D03*
X017041Y019069D03*
X018041Y019069D03*
X019041Y019069D03*
X020041Y019069D03*
X021041Y019069D03*
D25*
X026291Y019330D03*
X026291Y018307D03*
D26*
X004791Y001319D03*
D27*
X006291Y003819D03*
X011291Y003819D03*
X011291Y013819D03*
X006291Y013819D03*
D28*
X004791Y015319D03*
X006291Y016819D03*
X008291Y015319D03*
X009791Y015319D03*
X011291Y016819D03*
X013291Y015319D03*
X011291Y006819D03*
X009791Y005319D03*
X008291Y005319D03*
X006291Y006819D03*
X004791Y005319D03*
X013291Y005319D03*
D29*
X007541Y009289D03*
X007041Y009289D03*
X006541Y009289D03*
X006041Y009289D03*
X006041Y011349D03*
X006541Y011349D03*
X007041Y011349D03*
X007541Y011349D03*
D30*
X005415Y010752D03*
X004667Y010752D03*
X005041Y009886D03*
D31*
X027041Y008819D03*
D32*
X026291Y010819D02*
X026291Y016722D01*
X024541Y018472D01*
X024541Y019319D01*
X026280Y019319D01*
X026303Y018307D02*
X026291Y017569D01*
X022695Y018319D02*
X022041Y018319D01*
X022291Y019319D02*
X021791Y019819D01*
X019791Y019819D01*
X019041Y019069D01*
X019041Y018069D01*
X018041Y018069D02*
X018041Y019069D01*
X018041Y018069D02*
X017291Y017319D01*
X013541Y017319D01*
X012791Y018069D01*
X012791Y019319D02*
X013791Y019319D01*
X014041Y019069D01*
X014041Y018069D01*
X010791Y018069D02*
X009388Y018069D01*
X009041Y018069D01*
X004707Y013734D01*
X004707Y012319D01*
X005415Y012279D02*
X005415Y010752D01*
X005598Y010569D01*
X006791Y010569D01*
X007041Y010819D01*
X007041Y011349D01*
X007291Y010569D02*
X009457Y010569D01*
X009719Y010476D02*
X010351Y010476D01*
X011634Y010476D01*
X011004Y011106D01*
X013004Y011106D01*
X013319Y010791D01*
X013731Y010791D01*
X013731Y010161D02*
X011949Y010161D01*
X011634Y010476D01*
X011004Y011106D02*
X010351Y011106D01*
X007291Y010569D02*
X006791Y010069D01*
X006291Y010069D01*
X006041Y009819D01*
X005876Y009653D01*
X005376Y009069D01*
X006041Y009289D02*
X006041Y009819D01*
X004707Y009069D02*
X004291Y009069D01*
X004667Y010695D02*
X004291Y010819D01*
X004667Y010752D02*
X004667Y010695D01*
X007041Y018069D02*
X007695Y018069D01*
X007695Y019319D02*
X007041Y019319D01*
X009388Y019319D02*
X010791Y019319D01*
X013731Y010161D02*
X014284Y010161D01*
X015376Y009069D01*
X017041Y009069D01*
X017541Y009069D01*
X018291Y008319D01*
X018876Y008319D01*
X019126Y008069D01*
X019376Y008319D01*
X023791Y008319D01*
X026291Y010819D01*
X019126Y008069D02*
X019126Y007819D01*
X017041Y005569D02*
X017041Y003069D01*
X015126Y003069D01*
X022291Y019319D02*
X022541Y019319D01*
D33*
X022041Y018319D03*
X026291Y017569D03*
X019791Y011819D03*
X021791Y009319D03*
X021791Y007819D03*
X024291Y010319D03*
X025791Y011069D03*
X024791Y005319D03*
X022291Y002569D03*
X020791Y002069D03*
X017041Y003069D03*
X016541Y003569D03*
X016541Y004319D03*
X015541Y003819D03*
X017041Y005569D03*
X017541Y006569D03*
X016041Y006569D03*
X017541Y008069D03*
X016541Y008569D03*
X017041Y009069D03*
X015541Y010819D03*
X012791Y010569D03*
X011541Y009819D03*
X009541Y009319D03*
X008541Y009569D03*
X008041Y010069D03*
X008041Y011069D03*
X008541Y011569D03*
X009041Y012069D03*
X010041Y013069D03*
X007541Y012069D03*
X006541Y012069D03*
X004291Y010819D03*
X004291Y009069D03*
X009041Y007569D03*
X014541Y013569D03*
X016041Y015319D03*
X018291Y014819D03*
X007041Y018069D03*
X007041Y019319D03*
X008041Y001319D03*
X009791Y001319D03*
D34*
X010358Y001386D01*
X010358Y001445D01*
X010358Y002193D02*
X010232Y002319D01*
X009126Y002319D01*
X008457Y002319D02*
X008457Y002484D01*
X010791Y004819D01*
X010791Y005819D01*
X009041Y007569D01*
X007041Y008069D02*
X011791Y008069D01*
X011884Y008161D01*
X011884Y008629D01*
X012199Y008629D02*
X012199Y007911D01*
X014457Y005653D01*
X014457Y004069D01*
X014457Y003069D01*
X014041Y002569D02*
X022291Y002569D01*
X020791Y002069D02*
X020541Y002319D01*
X013126Y002319D01*
X012457Y002319D02*
X011957Y001819D01*
X011224Y001819D01*
X008041Y001819D01*
X007626Y002234D01*
X007626Y002319D01*
X006957Y002319D02*
X006957Y001319D01*
X007626Y001319D02*
X008041Y001319D01*
X006957Y002319D02*
X006957Y002734D01*
X008291Y004069D01*
X008291Y005319D01*
X007041Y008069D02*
X006541Y008569D01*
X006541Y009289D01*
X007041Y009289D02*
X007041Y009819D01*
X007291Y010069D01*
X008041Y010069D01*
X008541Y009569D02*
X008291Y009319D01*
X007511Y009319D01*
X007541Y009289D01*
X009457Y010569D02*
X009541Y010653D01*
X009719Y010476D01*
X009541Y010569D02*
X009541Y010653D01*
X009541Y011069D02*
X009894Y011421D01*
X010351Y011421D01*
X009981Y012009D02*
X009541Y011569D01*
X008541Y011569D01*
X008041Y011069D02*
X009541Y011069D01*
X009719Y010161D02*
X009541Y009984D01*
X009541Y009319D01*
X010389Y009569D02*
X010791Y009569D01*
X011041Y009319D01*
X013041Y009319D01*
X014791Y007569D01*
X017791Y007569D01*
X018041Y007319D01*
X019957Y007319D01*
X020457Y007819D01*
X021126Y007819D02*
X021791Y007819D01*
X021041Y007069D02*
X022041Y006069D01*
X025041Y006069D01*
X027041Y008069D01*
X027041Y008819D01*
X024957Y009984D02*
X023791Y008819D01*
X018541Y008819D01*
X017791Y009569D01*
X017791Y011069D01*
X017041Y011819D01*
X014791Y011819D01*
X014601Y012009D01*
X013144Y012009D01*
X012829Y012009D02*
X012829Y012356D01*
X013041Y012569D01*
X014541Y012569D01*
X015041Y012069D01*
X018041Y012069D01*
X018791Y011319D01*
X020041Y011319D01*
X020641Y010719D01*
X020641Y010319D01*
X021541Y009569D02*
X021791Y009319D01*
X022957Y009319D01*
X023626Y009319D02*
X023626Y009484D01*
X022957Y010153D01*
X022957Y010319D01*
X022291Y010319D01*
X021791Y010819D01*
X021791Y011819D01*
X019541Y014069D01*
X019791Y014319D02*
X022041Y012069D01*
X022041Y011569D01*
X022291Y011319D01*
X022957Y011319D01*
X023626Y011319D02*
X023626Y012319D01*
X022957Y012319D02*
X022957Y013403D01*
X021041Y015319D01*
X020839Y015319D01*
X019791Y014819D02*
X019791Y014319D01*
X019791Y014819D02*
X019541Y015069D01*
X019065Y015069D01*
X018791Y015069D01*
X018791Y015569D01*
X017541Y016819D01*
X013291Y016819D01*
X010791Y019319D01*
X010791Y018069D02*
X011541Y018069D01*
X013041Y016569D01*
X016791Y016569D01*
X017791Y015569D01*
X017791Y013819D01*
X019791Y011819D01*
X021541Y011569D02*
X019541Y013569D01*
X019065Y014569D02*
X018541Y014569D01*
X018291Y014819D01*
X017791Y013819D02*
X017541Y013569D01*
X017018Y013569D01*
X017018Y014069D02*
X015876Y014069D01*
X015541Y013984D01*
X015541Y013153D01*
X015541Y012484D02*
X015126Y012484D01*
X014541Y013069D01*
X010041Y013069D01*
X009541Y012569D02*
X011291Y012569D01*
X011541Y012319D01*
X011541Y012036D01*
X011569Y012009D01*
X010939Y012009D02*
X009981Y012009D01*
X009541Y012569D02*
X009041Y012069D01*
X008541Y012569D02*
X006291Y012569D01*
X006041Y012319D01*
X006041Y011349D01*
X006541Y011349D02*
X006541Y012069D01*
X007541Y012069D02*
X007541Y011349D01*
X008541Y012569D02*
X012291Y016319D01*
X016268Y016319D01*
X017018Y015569D01*
X017018Y015069D01*
X017018Y014569D02*
X015876Y014569D01*
X015791Y014653D01*
X015541Y014653D01*
X014541Y014653D01*
X014541Y013984D02*
X014541Y013569D01*
X013291Y015319D02*
X016041Y015319D01*
X014661Y011421D02*
X013731Y011421D01*
X013731Y011106D02*
X014004Y011106D01*
X014764Y010346D01*
X015041Y010346D01*
X015041Y010819D02*
X015541Y010819D01*
X015041Y011291D02*
X014661Y011421D01*
X013731Y010476D02*
X013134Y010476D01*
X013041Y010569D01*
X012791Y010569D01*
X013704Y009819D02*
X011541Y009819D01*
X011291Y009819D01*
X010949Y010161D01*
X010351Y010161D01*
X009719Y010161D01*
X012514Y008629D02*
X012541Y008601D01*
X012541Y008069D01*
X015041Y005569D01*
X015041Y005069D01*
X016541Y003569D01*
X016541Y004319D02*
X015541Y005319D01*
X015541Y005569D01*
X012791Y008319D01*
X012791Y008591D01*
X012829Y008629D01*
X013144Y008629D02*
X013231Y008629D01*
X014791Y007069D01*
X021041Y007069D01*
X020839Y006303D02*
X019921Y005386D01*
X019165Y005386D01*
X019165Y004529D01*
X019291Y004403D01*
X019291Y003819D02*
X019291Y003734D01*
X019291Y003819D02*
X019041Y003819D01*
X018417Y004443D01*
X018417Y004529D01*
X018291Y004403D01*
X018417Y004529D02*
X018417Y005386D01*
X017791Y005569D02*
X017791Y004069D01*
X018041Y003819D01*
X018207Y003819D01*
X018291Y003734D01*
X017791Y005569D02*
X017291Y006069D01*
X016541Y006069D01*
X016041Y006569D01*
X017541Y006569D02*
X017858Y006252D01*
X018791Y006252D01*
X018457Y007819D02*
X018041Y007819D01*
X017791Y008069D01*
X017541Y008069D01*
X015041Y008069D01*
X013894Y009216D01*
X013731Y009216D01*
X013731Y009531D02*
X014079Y009531D01*
X015041Y008569D01*
X016541Y008569D01*
X013731Y009846D02*
X013704Y009819D01*
X013291Y005319D02*
X013291Y003319D01*
X014041Y002569D01*
X015126Y004069D02*
X015541Y003819D01*
X020839Y005319D02*
X024791Y005319D01*
X021541Y009569D02*
X021541Y011569D01*
X022957Y010649D02*
X023626Y011319D01*
X022957Y010649D02*
X022957Y010319D01*
X023626Y010319D02*
X024291Y010319D01*
X024957Y009984D02*
X024957Y012319D01*
X025626Y012319D02*
X025626Y011234D01*
X025791Y011069D01*
X026291Y018307D02*
X026303Y018307D01*
X026280Y019319D02*
X026291Y019330D01*
X024541Y018472D02*
X024388Y018319D01*
X005415Y012279D02*
X005376Y012319D01*
D35*
X010351Y009531D02*
X010389Y009569D01*
X019065Y013569D02*
X019541Y013569D01*
X019541Y014069D02*
X019065Y014069D01*
M02*
