<?xml version="1.0" encoding="UTF-8" standalone="no"?>
<svg
   xmlns:dc="http://purl.org/dc/elements/1.1/"
   xmlns:cc="http://creativecommons.org/ns#"
   xmlns:rdf="http://www.w3.org/1999/02/22-rdf-syntax-ns#"
   xmlns:svg="http://www.w3.org/2000/svg"
   xmlns="http://www.w3.org/2000/svg"
   xmlns:sodipodi="http://sodipodi.sourceforge.net/DTD/sodipodi-0.dtd"
   xmlns:inkscape="http://www.inkscape.org/namespaces/inkscape"
   version="1.1"
   width="210mm"
   height="297mm"
   viewBox="0 0 210 297"
   id="svg3657"
   inkscape:version="0.48.4 r9939"
   sodipodi:docname="DualVca.svg">
  <metadata
     id="metadata3995">
    <rdf:RDF>
      <cc:Work
         rdf:about="">
        <dc:format>image/svg+xml</dc:format>
        <dc:type
           rdf:resource="http://purl.org/dc/dcmitype/StillImage" />
        <dc:title></dc:title>
      </cc:Work>
    </rdf:RDF>
  </metadata>
  <sodipodi:namedview
     id="base"
     inkscape:document-units="mm"
     units="mm"
     showgrid="false"
     inkscape:zoom="1.7563421"
     inkscape:cx="120.20952"
     inkscape:cy="831.8269"
     inkscape:window-width="1680"
     inkscape:window-height="1000"
     inkscape:window-x="0"
     inkscape:window-y="0"
     inkscape:window-maximized="1"
     inkscape:current-layer="svg3657" />
  <defs
     id="defs3660">
    <g
       id="potgrading" />
  </defs>
  <g
     style="fill:none;stroke-width:0.05;stroke:#ff0000"
     id="g3663">
    <rect
       x="0.0"
       y="0.0"
       width="50.50"
       height="128.50"
       id="rect3665" />
    <circle
       cx="7.5"
       cy="3"
       r="1.6"
       id="circle3667" />
    <circle
       cx="7.5"
       cy="125.5"
       r="1.6"
       id="circle3669" />
    <circle
       cx="43.06"
       cy="3"
       r="1.6"
       id="circle3671" />
    <circle
       cx="43.06"
       cy="125.5"
       r="1.6"
       id="circle3673" />
    <path
       inkscape:connector-curvature="0"
       d="m 12.55,21.4 c -2.6129013,0 -4.7375971,2.115556 -4.7375971,4.727735 0,2.135913 1.421033,3.945767 3.3650681,4.5331 l 0,2.107204 2.632936,1.41e-4 0,-2.079677 c 1.996054,-0.554631 3.466996,-2.388302 3.466996,-4.561134 3.38e-4,-2.612179 -2.115205,-4.727369 -4.727403,-4.727369 z"
       style="fill:none;stroke:#ff0000"
       id="path3675" />
    <g
       transform="translate(12.55,26.15)"
       id="g3677">
      <g
         transform="scale(1.0)"
         id="g3679">
        <path
           d="M -4.2037748,7.5814929 C -6.8346316,6.1114925 -8.6120123,3.3014922 -8.6120123,0.07148931 c 0,-4.75000381 3.8628404,-8.61000481 8.6282233,-8.61000481 4.764047,0 8.627555,3.8600011 8.627555,8.61000481 0,3.23000299 -1.780051,6.04000329 -4.414579,7.52000359"
           style="fill:none;stroke:#030303;stroke-width:0.265"
           id="path3681" />
        <path
           style="fill:none;stroke:#030303;stroke-width:0.265"
           d="m -2.440413,-9.0485165 0.216323,0.810001"
           id="path3683" />
        <path
           style="fill:none;stroke:#030303;stroke-width:0.353"
           d="m -5.1129926,-8.7785155 0.8080822,1.4000001"
           id="path3685" />
        <path
           style="fill:none;stroke:#030303;stroke-width:0.265"
           d="m -6.6800914,-6.5985155 0.5891225,0.59"
           id="path3687" />
        <path
           style="fill:none;stroke:#030303;stroke-width:0.353"
           d="m -8.8466601,-5.0285155 1.3848552,0.8000013"
           id="path3689" />
        <path
           style="fill:none;stroke:#030303;stroke-width:0.265"
           d="m -9.1267017,-2.3685125 0.8044106,0.2200004"
           id="path3691" />
        <path
           style="fill:none;stroke:#030303;stroke-width:0.353"
           d="m -10.221501,0.08148931 1.6061507,0"
           id="path3693" />
        <path
           style="fill:none;stroke:#030303;stroke-width:0.265"
           d="M -9.1243652,2.5214918 -8.3199546,2.3014913"
           id="path3695" />
        <path
           style="fill:none;stroke:#030303;stroke-width:0.353"
           d="M -8.8489964,5.181492 -7.4574658,4.3814921"
           id="path3697" />
        <path
           style="fill:none;stroke:#030303;stroke-width:0.265"
           d="m -6.6737496,6.7514925 0.5877873,-0.59"
           id="path3699" />
        <path
           style="fill:none;stroke:#030303;stroke-width:0.353"
           d="m -5.0742739,8.871494 0.776373,-1.3400011"
           id="path3701" />
        <path
           style="fill:none;stroke:#030303;stroke-width:0.353"
           d="M 5.113671,8.8814939 4.329988,7.5214929"
           id="path3703" />
        <path
           style="fill:none;stroke:#030303;stroke-width:0.265"
           d="m 6.704836,6.7414925 -0.588789,-0.58"
           id="path3705" />
        <path
           style="fill:none;stroke:#030303;stroke-width:0.353"
           d="m 8.846371,5.1614921 -1.360155,-0.79"
           id="path3707" />
        <path
           style="fill:none;stroke:#030303;stroke-width:0.265"
           d="M 9.151112,2.5114918 8.347402,2.2914913"
           id="path3709" />
        <path
           style="fill:none;stroke:#030303;stroke-width:0.353"
           d="m 10.195511,0.07148931 -1.555417,0"
           id="path3711" />
        <path
           style="fill:none;stroke:#030303;stroke-width:0.265"
           d="M 9.148809,-2.3785126 8.344698,-2.1585121"
           id="path3713" />
        <path
           style="fill:none;stroke:#030303;stroke-width:0.353"
           d="M 8.836691,-5.0185155 7.482544,-4.2385142"
           id="path3715" />
        <path
           style="fill:none;stroke:#030303;stroke-width:0.265"
           d="m 6.699128,-6.6085155 -0.588421,0.59"
           id="path3717" />
        <path
           style="fill:none;stroke:#030303;stroke-width:0.353"
           d="m 5.131729,-8.7785155 -0.80875,1.39"
           id="path3719" />
        <path
           style="fill:none;stroke:#030303;stroke-width:0.265"
           d="m 2.456813,-9.0485165 -0.215288,0.800001"
           id="path3721" />
        <path
           style="fill:none;stroke:#030303;stroke-width:0.353"
           d="m 0.007833,-10.128517 0,1.5900015"
           id="path3723" />
      </g>
    </g>
    <path
       inkscape:connector-curvature="0"
       d="m 37.95,21.4 c -2.6129013,0 -4.7375971,2.115556 -4.7375971,4.727735 0,2.135913 1.421033,3.945767 3.3650681,4.5331 l 0,2.107204 2.632936,1.41e-4 0,-2.079677 c 1.996054,-0.554631 3.466996,-2.388302 3.466996,-4.561134 3.38e-4,-2.612179 -2.115205,-4.727369 -4.727403,-4.727369 z"
       style="fill:none;stroke:#ff0000"
       id="path3725" />
    <g
       transform="translate(37.95,26.15)"
       id="g3727">
      <g
         transform="scale(1.0)"
         id="g3729">
        <path
           d="M -4.2037748,7.5814929 C -6.8346316,6.1114925 -8.6120123,3.3014922 -8.6120123,0.07148931 c 0,-4.75000381 3.8628404,-8.61000481 8.6282233,-8.61000481 4.764047,0 8.627555,3.8600011 8.627555,8.61000481 0,3.23000299 -1.780051,6.04000329 -4.414579,7.52000359"
           style="fill:none;stroke:#030303;stroke-width:0.265"
           id="path3731" />
        <path
           style="fill:none;stroke:#030303;stroke-width:0.265"
           d="m -2.440413,-9.0485165 0.216323,0.810001"
           id="path3733" />
        <path
           style="fill:none;stroke:#030303;stroke-width:0.353"
           d="m -5.1129926,-8.7785155 0.8080822,1.4000001"
           id="path3735" />
        <path
           style="fill:none;stroke:#030303;stroke-width:0.265"
           d="m -6.6800914,-6.5985155 0.5891225,0.59"
           id="path3737" />
        <path
           style="fill:none;stroke:#030303;stroke-width:0.353"
           d="m -8.8466601,-5.0285155 1.3848552,0.8000013"
           id="path3739" />
        <path
           style="fill:none;stroke:#030303;stroke-width:0.265"
           d="m -9.1267017,-2.3685125 0.8044106,0.2200004"
           id="path3741" />
        <path
           style="fill:none;stroke:#030303;stroke-width:0.353"
           d="m -10.221501,0.08148931 1.6061507,0"
           id="path3743" />
        <path
           style="fill:none;stroke:#030303;stroke-width:0.265"
           d="M -9.1243652,2.5214918 -8.3199546,2.3014913"
           id="path3745" />
        <path
           style="fill:none;stroke:#030303;stroke-width:0.353"
           d="M -8.8489964,5.181492 -7.4574658,4.3814921"
           id="path3747" />
        <path
           style="fill:none;stroke:#030303;stroke-width:0.265"
           d="m -6.6737496,6.7514925 0.5877873,-0.59"
           id="path3749" />
        <path
           style="fill:none;stroke:#030303;stroke-width:0.353"
           d="m -5.0742739,8.871494 0.776373,-1.3400011"
           id="path3751" />
        <path
           style="fill:none;stroke:#030303;stroke-width:0.353"
           d="M 5.113671,8.8814939 4.329988,7.5214929"
           id="path3753" />
        <path
           style="fill:none;stroke:#030303;stroke-width:0.265"
           d="m 6.704836,6.7414925 -0.588789,-0.58"
           id="path3755" />
        <path
           style="fill:none;stroke:#030303;stroke-width:0.353"
           d="m 8.846371,5.1614921 -1.360155,-0.79"
           id="path3757" />
        <path
           style="fill:none;stroke:#030303;stroke-width:0.265"
           d="M 9.151112,2.5114918 8.347402,2.2914913"
           id="path3759" />
        <path
           style="fill:none;stroke:#030303;stroke-width:0.353"
           d="m 10.195511,0.07148931 -1.555417,0"
           id="path3761" />
        <path
           style="fill:none;stroke:#030303;stroke-width:0.265"
           d="M 9.148809,-2.3785126 8.344698,-2.1585121"
           id="path3763" />
        <path
           style="fill:none;stroke:#030303;stroke-width:0.353"
           d="M 8.836691,-5.0185155 7.482544,-4.2385142"
           id="path3765" />
        <path
           style="fill:none;stroke:#030303;stroke-width:0.265"
           d="m 6.699128,-6.6085155 -0.588421,0.59"
           id="path3767" />
        <path
           style="fill:none;stroke:#030303;stroke-width:0.353"
           d="m 5.131729,-8.7785155 -0.80875,1.39"
           id="path3769" />
        <path
           style="fill:none;stroke:#030303;stroke-width:0.265"
           d="m 2.456813,-9.0485165 -0.215288,0.800001"
           id="path3771" />
        <path
           style="fill:none;stroke:#030303;stroke-width:0.353"
           d="m 0.007833,-10.128517 0,1.5900015"
           id="path3773" />
      </g>
    </g>
    <path
       inkscape:connector-curvature="0"
       d="m 12.55,40.45 c -2.6129013,0 -4.7375971,2.115556 -4.7375971,4.727735 0,2.135913 1.421033,3.945767 3.3650681,4.5331 l 0,2.107204 2.632936,1.41e-4 0,-2.079677 c 1.996054,-0.554631 3.466996,-2.388302 3.466996,-4.561134 3.38e-4,-2.612179 -2.115205,-4.727369 -4.727403,-4.727369 z"
       style="fill:none;stroke:#ff0000"
       id="path3775" />
    <g
       transform="translate(12.55,45.2)"
       id="g3777">
      <g
         transform="scale(1.0)"
         id="g3779">
        <path
           d="M -4.2037748,7.5814929 C -6.8346316,6.1114925 -8.6120123,3.3014922 -8.6120123,0.07148931 c 0,-4.75000381 3.8628404,-8.61000481 8.6282233,-8.61000481 4.764047,0 8.627555,3.8600011 8.627555,8.61000481 0,3.23000299 -1.780051,6.04000329 -4.414579,7.52000359"
           style="fill:none;stroke:#030303;stroke-width:0.265"
           id="path3781" />
        <path
           style="fill:none;stroke:#030303;stroke-width:0.265"
           d="m -2.440413,-9.0485165 0.216323,0.810001"
           id="path3783" />
        <path
           style="fill:none;stroke:#030303;stroke-width:0.353"
           d="m -5.1129926,-8.7785155 0.8080822,1.4000001"
           id="path3785" />
        <path
           style="fill:none;stroke:#030303;stroke-width:0.265"
           d="m -6.6800914,-6.5985155 0.5891225,0.59"
           id="path3787" />
        <path
           style="fill:none;stroke:#030303;stroke-width:0.353"
           d="m -8.8466601,-5.0285155 1.3848552,0.8000013"
           id="path3789" />
        <path
           style="fill:none;stroke:#030303;stroke-width:0.265"
           d="m -9.1267017,-2.3685125 0.8044106,0.2200004"
           id="path3791" />
        <path
           style="fill:none;stroke:#030303;stroke-width:0.353"
           d="m -10.221501,0.08148931 1.6061507,0"
           id="path3793" />
        <path
           style="fill:none;stroke:#030303;stroke-width:0.265"
           d="M -9.1243652,2.5214918 -8.3199546,2.3014913"
           id="path3795" />
        <path
           style="fill:none;stroke:#030303;stroke-width:0.353"
           d="M -8.8489964,5.181492 -7.4574658,4.3814921"
           id="path3797" />
        <path
           style="fill:none;stroke:#030303;stroke-width:0.265"
           d="m -6.6737496,6.7514925 0.5877873,-0.59"
           id="path3799" />
        <path
           style="fill:none;stroke:#030303;stroke-width:0.353"
           d="m -5.0742739,8.871494 0.776373,-1.3400011"
           id="path3801" />
        <path
           style="fill:none;stroke:#030303;stroke-width:0.353"
           d="M 5.113671,8.8814939 4.329988,7.5214929"
           id="path3803" />
        <path
           style="fill:none;stroke:#030303;stroke-width:0.265"
           d="m 6.704836,6.7414925 -0.588789,-0.58"
           id="path3805" />
        <path
           style="fill:none;stroke:#030303;stroke-width:0.353"
           d="m 8.846371,5.1614921 -1.360155,-0.79"
           id="path3807" />
        <path
           style="fill:none;stroke:#030303;stroke-width:0.265"
           d="M 9.151112,2.5114918 8.347402,2.2914913"
           id="path3809" />
        <path
           style="fill:none;stroke:#030303;stroke-width:0.353"
           d="m 10.195511,0.07148931 -1.555417,0"
           id="path3811" />
        <path
           style="fill:none;stroke:#030303;stroke-width:0.265"
           d="M 9.148809,-2.3785126 8.344698,-2.1585121"
           id="path3813" />
        <path
           style="fill:none;stroke:#030303;stroke-width:0.353"
           d="M 8.836691,-5.0185155 7.482544,-4.2385142"
           id="path3815" />
        <path
           style="fill:none;stroke:#030303;stroke-width:0.265"
           d="m 6.699128,-6.6085155 -0.588421,0.59"
           id="path3817" />
        <path
           style="fill:none;stroke:#030303;stroke-width:0.353"
           d="m 5.131729,-8.7785155 -0.80875,1.39"
           id="path3819" />
        <path
           style="fill:none;stroke:#030303;stroke-width:0.265"
           d="m 2.456813,-9.0485165 -0.215288,0.800001"
           id="path3821" />
        <path
           style="fill:none;stroke:#030303;stroke-width:0.353"
           d="m 0.007833,-10.128517 0,1.5900015"
           id="path3823" />
      </g>
    </g>
    <path
       inkscape:connector-curvature="0"
       d="m 37.95,40.45 c -2.6129013,0 -4.7375971,2.115556 -4.7375971,4.727735 0,2.135913 1.421033,3.945767 3.3650681,4.5331 l 0,2.107204 2.632936,1.41e-4 0,-2.079677 c 1.996054,-0.554631 3.466996,-2.388302 3.466996,-4.561134 3.38e-4,-2.612179 -2.115205,-4.727369 -4.727403,-4.727369 z"
       style="fill:none;stroke:#ff0000"
       id="path3825" />
    <g
       transform="translate(37.95,45.2)"
       id="g3827">
      <g
         transform="scale(1.0)"
         id="g3829">
        <path
           d="M -4.2037748,7.5814929 C -6.8346316,6.1114925 -8.6120123,3.3014922 -8.6120123,0.07148931 c 0,-4.75000381 3.8628404,-8.61000481 8.6282233,-8.61000481 4.764047,0 8.627555,3.8600011 8.627555,8.61000481 0,3.23000299 -1.780051,6.04000329 -4.414579,7.52000359"
           style="fill:none;stroke:#030303;stroke-width:0.265"
           id="path3831" />
        <path
           style="fill:none;stroke:#030303;stroke-width:0.265"
           d="m -2.440413,-9.0485165 0.216323,0.810001"
           id="path3833" />
        <path
           style="fill:none;stroke:#030303;stroke-width:0.353"
           d="m -5.1129926,-8.7785155 0.8080822,1.4000001"
           id="path3835" />
        <path
           style="fill:none;stroke:#030303;stroke-width:0.265"
           d="m -6.6800914,-6.5985155 0.5891225,0.59"
           id="path3837" />
        <path
           style="fill:none;stroke:#030303;stroke-width:0.353"
           d="m -8.8466601,-5.0285155 1.3848552,0.8000013"
           id="path3839" />
        <path
           style="fill:none;stroke:#030303;stroke-width:0.265"
           d="m -9.1267017,-2.3685125 0.8044106,0.2200004"
           id="path3841" />
        <path
           style="fill:none;stroke:#030303;stroke-width:0.353"
           d="m -10.221501,0.08148931 1.6061507,0"
           id="path3843" />
        <path
           style="fill:none;stroke:#030303;stroke-width:0.265"
           d="M -9.1243652,2.5214918 -8.3199546,2.3014913"
           id="path3845" />
        <path
           style="fill:none;stroke:#030303;stroke-width:0.353"
           d="M -8.8489964,5.181492 -7.4574658,4.3814921"
           id="path3847" />
        <path
           style="fill:none;stroke:#030303;stroke-width:0.265"
           d="m -6.6737496,6.7514925 0.5877873,-0.59"
           id="path3849" />
        <path
           style="fill:none;stroke:#030303;stroke-width:0.353"
           d="m -5.0742739,8.871494 0.776373,-1.3400011"
           id="path3851" />
        <path
           style="fill:none;stroke:#030303;stroke-width:0.353"
           d="M 5.113671,8.8814939 4.329988,7.5214929"
           id="path3853" />
        <path
           style="fill:none;stroke:#030303;stroke-width:0.265"
           d="m 6.704836,6.7414925 -0.588789,-0.58"
           id="path3855" />
        <path
           style="fill:none;stroke:#030303;stroke-width:0.353"
           d="m 8.846371,5.1614921 -1.360155,-0.79"
           id="path3857" />
        <path
           style="fill:none;stroke:#030303;stroke-width:0.265"
           d="M 9.151112,2.5114918 8.347402,2.2914913"
           id="path3859" />
        <path
           style="fill:none;stroke:#030303;stroke-width:0.353"
           d="m 10.195511,0.07148931 -1.555417,0"
           id="path3861" />
        <path
           style="fill:none;stroke:#030303;stroke-width:0.265"
           d="M 9.148809,-2.3785126 8.344698,-2.1585121"
           id="path3863" />
        <path
           style="fill:none;stroke:#030303;stroke-width:0.353"
           d="M 8.836691,-5.0185155 7.482544,-4.2385142"
           id="path3865" />
        <path
           style="fill:none;stroke:#030303;stroke-width:0.265"
           d="m 6.699128,-6.6085155 -0.588421,0.59"
           id="path3867" />
        <path
           style="fill:none;stroke:#030303;stroke-width:0.353"
           d="m 5.131729,-8.7785155 -0.80875,1.39"
           id="path3869" />
        <path
           style="fill:none;stroke:#030303;stroke-width:0.265"
           d="m 2.456813,-9.0485165 -0.215288,0.800001"
           id="path3871" />
        <path
           style="fill:none;stroke:#030303;stroke-width:0.353"
           d="m 0.007833,-10.128517 0,1.5900015"
           id="path3873" />
      </g>
    </g>
    <path
       inkscape:connector-curvature="0"
       d="m 12.55,59.5 c -2.6129013,0 -4.7375971,2.115556 -4.7375971,4.727735 0,2.135913 1.421033,3.945767 3.3650681,4.5331 l 0,2.107204 2.632936,1.41e-4 0,-2.079677 c 1.996054,-0.554631 3.466996,-2.388302 3.466996,-4.561134 3.38e-4,-2.612179 -2.115205,-4.727369 -4.727403,-4.727369 z"
       style="fill:none;stroke:#ff0000"
       id="path3875" />
    <g
       transform="translate(12.55,64.25)"
       id="g3877">
      <g
         transform="scale(1.0)"
         id="g3879">
        <path
           d="M -4.2037748,7.5814929 C -6.8346316,6.1114925 -8.6120123,3.3014922 -8.6120123,0.07148931 c 0,-4.75000381 3.8628404,-8.61000481 8.6282233,-8.61000481 4.764047,0 8.627555,3.8600011 8.627555,8.61000481 0,3.23000299 -1.780051,6.04000329 -4.414579,7.52000359"
           style="fill:none;stroke:#030303;stroke-width:0.265"
           id="path3881" />
        <path
           style="fill:none;stroke:#030303;stroke-width:0.265"
           d="m -2.440413,-9.0485165 0.216323,0.810001"
           id="path3883" />
        <path
           style="fill:none;stroke:#030303;stroke-width:0.353"
           d="m -5.1129926,-8.7785155 0.8080822,1.4000001"
           id="path3885" />
        <path
           style="fill:none;stroke:#030303;stroke-width:0.265"
           d="m -6.6800914,-6.5985155 0.5891225,0.59"
           id="path3887" />
        <path
           style="fill:none;stroke:#030303;stroke-width:0.353"
           d="m -8.8466601,-5.0285155 1.3848552,0.8000013"
           id="path3889" />
        <path
           style="fill:none;stroke:#030303;stroke-width:0.265"
           d="m -9.1267017,-2.3685125 0.8044106,0.2200004"
           id="path3891" />
        <path
           style="fill:none;stroke:#030303;stroke-width:0.353"
           d="m -10.221501,0.08148931 1.6061507,0"
           id="path3893" />
        <path
           style="fill:none;stroke:#030303;stroke-width:0.265"
           d="M -9.1243652,2.5214918 -8.3199546,2.3014913"
           id="path3895" />
        <path
           style="fill:none;stroke:#030303;stroke-width:0.353"
           d="M -8.8489964,5.181492 -7.4574658,4.3814921"
           id="path3897" />
        <path
           style="fill:none;stroke:#030303;stroke-width:0.265"
           d="m -6.6737496,6.7514925 0.5877873,-0.59"
           id="path3899" />
        <path
           style="fill:none;stroke:#030303;stroke-width:0.353"
           d="m -5.0742739,8.871494 0.776373,-1.3400011"
           id="path3901" />
        <path
           style="fill:none;stroke:#030303;stroke-width:0.353"
           d="M 5.113671,8.8814939 4.329988,7.5214929"
           id="path3903" />
        <path
           style="fill:none;stroke:#030303;stroke-width:0.265"
           d="m 6.704836,6.7414925 -0.588789,-0.58"
           id="path3905" />
        <path
           style="fill:none;stroke:#030303;stroke-width:0.353"
           d="m 8.846371,5.1614921 -1.360155,-0.79"
           id="path3907" />
        <path
           style="fill:none;stroke:#030303;stroke-width:0.265"
           d="M 9.151112,2.5114918 8.347402,2.2914913"
           id="path3909" />
        <path
           style="fill:none;stroke:#030303;stroke-width:0.353"
           d="m 10.195511,0.07148931 -1.555417,0"
           id="path3911" />
        <path
           style="fill:none;stroke:#030303;stroke-width:0.265"
           d="M 9.148809,-2.3785126 8.344698,-2.1585121"
           id="path3913" />
        <path
           style="fill:none;stroke:#030303;stroke-width:0.353"
           d="M 8.836691,-5.0185155 7.482544,-4.2385142"
           id="path3915" />
        <path
           style="fill:none;stroke:#030303;stroke-width:0.265"
           d="m 6.699128,-6.6085155 -0.588421,0.59"
           id="path3917" />
        <path
           style="fill:none;stroke:#030303;stroke-width:0.353"
           d="m 5.131729,-8.7785155 -0.80875,1.39"
           id="path3919" />
        <path
           style="fill:none;stroke:#030303;stroke-width:0.265"
           d="m 2.456813,-9.0485165 -0.215288,0.800001"
           id="path3921" />
        <path
           style="fill:none;stroke:#030303;stroke-width:0.353"
           d="m 0.007833,-10.128517 0,1.5900015"
           id="path3923" />
      </g>
    </g>
    <path
       inkscape:connector-curvature="0"
       d="m 37.95,59.5 c -2.6129013,0 -4.7375971,2.115556 -4.7375971,4.727735 0,2.135913 1.421033,3.945767 3.3650681,4.5331 l 0,2.107204 2.632936,1.41e-4 0,-2.079677 c 1.996054,-0.554631 3.466996,-2.388302 3.466996,-4.561134 3.38e-4,-2.612179 -2.115205,-4.727369 -4.727403,-4.727369 z"
       style="fill:none;stroke:#ff0000"
       id="path3925" />
    <g
       transform="translate(37.95,64.25)"
       id="g3927">
      <g
         transform="scale(1.0)"
         id="g3929">
        <path
           d="M -4.2037748,7.5814929 C -6.8346316,6.1114925 -8.6120123,3.3014922 -8.6120123,0.07148931 c 0,-4.75000381 3.8628404,-8.61000481 8.6282233,-8.61000481 4.764047,0 8.627555,3.8600011 8.627555,8.61000481 0,3.23000299 -1.780051,6.04000329 -4.414579,7.52000359"
           style="fill:none;stroke:#030303;stroke-width:0.265"
           id="path3931" />
        <path
           style="fill:none;stroke:#030303;stroke-width:0.265"
           d="m -2.440413,-9.0485165 0.216323,0.810001"
           id="path3933" />
        <path
           style="fill:none;stroke:#030303;stroke-width:0.353"
           d="m -5.1129926,-8.7785155 0.8080822,1.4000001"
           id="path3935" />
        <path
           style="fill:none;stroke:#030303;stroke-width:0.265"
           d="m -6.6800914,-6.5985155 0.5891225,0.59"
           id="path3937" />
        <path
           style="fill:none;stroke:#030303;stroke-width:0.353"
           d="m -8.8466601,-5.0285155 1.3848552,0.8000013"
           id="path3939" />
        <path
           style="fill:none;stroke:#030303;stroke-width:0.265"
           d="m -9.1267017,-2.3685125 0.8044106,0.2200004"
           id="path3941" />
        <path
           style="fill:none;stroke:#030303;stroke-width:0.353"
           d="m -10.221501,0.08148931 1.6061507,0"
           id="path3943" />
        <path
           style="fill:none;stroke:#030303;stroke-width:0.265"
           d="M -9.1243652,2.5214918 -8.3199546,2.3014913"
           id="path3945" />
        <path
           style="fill:none;stroke:#030303;stroke-width:0.353"
           d="M -8.8489964,5.181492 -7.4574658,4.3814921"
           id="path3947" />
        <path
           style="fill:none;stroke:#030303;stroke-width:0.265"
           d="m -6.6737496,6.7514925 0.5877873,-0.59"
           id="path3949" />
        <path
           style="fill:none;stroke:#030303;stroke-width:0.353"
           d="m -5.0742739,8.871494 0.776373,-1.3400011"
           id="path3951" />
        <path
           style="fill:none;stroke:#030303;stroke-width:0.353"
           d="M 5.113671,8.8814939 4.329988,7.5214929"
           id="path3953" />
        <path
           style="fill:none;stroke:#030303;stroke-width:0.265"
           d="m 6.704836,6.7414925 -0.588789,-0.58"
           id="path3955" />
        <path
           style="fill:none;stroke:#030303;stroke-width:0.353"
           d="m 8.846371,5.1614921 -1.360155,-0.79"
           id="path3957" />
        <path
           style="fill:none;stroke:#030303;stroke-width:0.265"
           d="M 9.151112,2.5114918 8.347402,2.2914913"
           id="path3959" />
        <path
           style="fill:none;stroke:#030303;stroke-width:0.353"
           d="m 10.195511,0.07148931 -1.555417,0"
           id="path3961" />
        <path
           style="fill:none;stroke:#030303;stroke-width:0.265"
           d="M 9.148809,-2.3785126 8.344698,-2.1585121"
           id="path3963" />
        <path
           style="fill:none;stroke:#030303;stroke-width:0.353"
           d="M 8.836691,-5.0185155 7.482544,-4.2385142"
           id="path3965" />
        <path
           style="fill:none;stroke:#030303;stroke-width:0.265"
           d="m 6.699128,-6.6085155 -0.588421,0.59"
           id="path3967" />
        <path
           style="fill:none;stroke:#030303;stroke-width:0.353"
           d="m 5.131729,-8.7785155 -0.80875,1.39"
           id="path3969" />
        <path
           style="fill:none;stroke:#030303;stroke-width:0.265"
           d="m 2.456813,-9.0485165 -0.215288,0.800001"
           id="path3971" />
        <path
           style="fill:none;stroke:#030303;stroke-width:0.353"
           d="m 0.007833,-10.128517 0,1.5900015"
           id="path3973" />
      </g>
    </g>
    <circle
       cx="12.55"
       cy="83.3"
       r="1.5"
       style="fill:none;stroke:#ff0000"
       id="circle3975" />
    <circle
       cx="37.95"
       cy="83.3"
       r="1.5"
       style="fill:none;stroke:#ff0000"
       id="circle3977" />
    <circle
       cx="18.9"
       cy="96"
       r="3.25"
       style="fill:none;stroke:#ff0000"
       id="circle3979" />
    <circle
       cx="31.6"
       cy="96"
       r="3.25"
       style="fill:none;stroke:#ff0000"
       id="circle3981" />
    <circle
       cx="6.200000000000003"
       cy="96"
       r="3.25"
       style="fill:none;stroke:#ff0000"
       id="circle3983" />
    <circle
       cx="44.3"
       cy="96"
       r="3.25"
       style="fill:none;stroke:#ff0000"
       id="circle3985" />
    <circle
       cx="18.9"
       cy="108.7"
       r="3.25"
       style="fill:none;stroke:#ff0000"
       id="circle3987" />
    <circle
       cx="31.6"
       cy="108.7"
       r="3.25"
       style="fill:none;stroke:#ff0000"
       id="circle3989" />
    <circle
       cx="6.200000000000003"
       cy="108.7"
       r="3.25"
       style="fill:none;stroke:#ff0000"
       id="circle3991" />
    <circle
       cx="44.3"
       cy="108.7"
       r="3.25"
       style="fill:none;stroke:#ff0000"
       id="circle3993" />
  </g>
  <text
     xml:space="preserve"
     style="font-size:10px;font-style:normal;font-weight:normal;line-height:125%;letter-spacing:0px;word-spacing:0px;fill:#000000;fill-opacity:1;stroke:none;font-family:Sans"
     x="79.711121"
     y="127.14382"
     id="text3997"
     sodipodi:linespacing="125%"
     transform="matrix(0.28222223,0,0,0.28222223,-1.3919578e-6,0)"><tspan
       sodipodi:role="line"
       id="tspan3999"
       x="79.711121"
       y="127.14382">Gain</tspan></text>
  <text
     xml:space="preserve"
     style="font-size:10px;font-style:normal;font-weight:normal;line-height:125%;letter-spacing:0px;word-spacing:0px;fill:#000000;fill-opacity:1;stroke:none;font-family:Sans"
     x="79.711121"
     y="196.60637"
     id="text4001"
     sodipodi:linespacing="125%"
     transform="matrix(0.28222223,0,0,0.28222223,-1.3919578e-6,0)"><tspan
       sodipodi:role="line"
       id="tspan4003"
       x="79.711121"
       y="196.60637">Lin</tspan></text>
  <text
     xml:space="preserve"
     style="font-size:10px;font-style:normal;font-weight:normal;line-height:125%;letter-spacing:0px;word-spacing:0px;fill:#000000;fill-opacity:1;stroke:none;font-family:Sans"
     x="81.988579"
     y="260.37527"
     id="text4005"
     sodipodi:linespacing="125%"
     transform="matrix(0.28222223,0,0,0.28222223,-1.3919578e-6,0)"><tspan
       sodipodi:role="line"
       id="tspan4007"
       x="81.988579"
       y="260.37527">Exp</tspan></text>
  <text
     xml:space="preserve"
     style="font-size:2.82222223px;font-style:normal;font-weight:normal;line-height:125%;letter-spacing:0px;word-spacing:0px;fill:#000000;fill-opacity:1;stroke:none;font-family:Sans"
     x="4.946013"
     y="102.16844"
     id="text4009"
     sodipodi:linespacing="125%"><tspan
       sodipodi:role="line"
       id="tspan4011"
       x="4.946013"
       y="102.16844">In</tspan></text>
  <text
     xml:space="preserve"
     style="font-size:2.82222223px;font-style:normal;font-weight:normal;line-height:125%;letter-spacing:0px;word-spacing:0px;fill:#000000;fill-opacity:1;stroke:none;font-family:Sans"
     x="3.7741168"
     y="114.86276"
     id="text4013"
     sodipodi:linespacing="125%"><tspan
       sodipodi:role="line"
       id="tspan4015"
       x="3.7741168"
       y="114.86276">Out</tspan></text>
  <text
     xml:space="preserve"
     style="font-size:2.82222223px;font-style:normal;font-weight:normal;line-height:125%;letter-spacing:0px;word-spacing:0px;fill:#000000;fill-opacity:1;stroke:none;font-family:Sans"
     x="16.629118"
     y="102.147"
     id="text4017"
     sodipodi:linespacing="125%"><tspan
       sodipodi:role="line"
       id="tspan4019"
       x="16.629118"
       y="102.147">Lin</tspan></text>
  <text
     xml:space="preserve"
     style="font-size:2.82222223px;font-style:normal;font-weight:normal;line-height:125%;letter-spacing:0px;word-spacing:0px;fill:#000000;fill-opacity:1;stroke:none;font-family:Sans"
     x="16.468428"
     y="114.78038"
     id="text4021"
     sodipodi:linespacing="125%"><tspan
       sodipodi:role="line"
       id="tspan4023"
       x="16.468428"
       y="114.78038">Exp</tspan></text>
  <text
     sodipodi:linespacing="125%"
     id="text4025"
     y="102.16844"
     x="42.763802"
     style="font-size:2.82222223px;font-style:normal;font-weight:normal;line-height:125%;letter-spacing:0px;word-spacing:0px;fill:#000000;fill-opacity:1;stroke:none;font-family:Sans"
     xml:space="preserve"><tspan
       y="102.16844"
       x="42.763802"
       id="tspan4027"
       sodipodi:role="line">In</tspan></text>
  <text
     sodipodi:linespacing="125%"
     id="text4029"
     y="114.86276"
     x="41.591904"
     style="font-size:2.82222223px;font-style:normal;font-weight:normal;line-height:125%;letter-spacing:0px;word-spacing:0px;fill:#000000;fill-opacity:1;stroke:none;font-family:Sans"
     xml:space="preserve"><tspan
       y="114.86276"
       x="41.591904"
       id="tspan4031"
       sodipodi:role="line">Out</tspan></text>
  <text
     sodipodi:linespacing="125%"
     id="text4047"
     y="102.147"
     x="29.046896"
     style="font-size:2.82222223px;font-style:normal;font-weight:normal;line-height:125%;letter-spacing:0px;word-spacing:0px;fill:#000000;fill-opacity:1;stroke:none;font-family:Sans"
     xml:space="preserve"><tspan
       y="102.147"
       x="29.046896"
       id="tspan4049"
       sodipodi:role="line">Lin</tspan></text>
  <text
     sodipodi:linespacing="125%"
     id="text4051"
     y="114.78038"
     x="28.886206"
     style="font-size:2.82222223px;font-style:normal;font-weight:normal;line-height:125%;letter-spacing:0px;word-spacing:0px;fill:#000000;fill-opacity:1;stroke:none;font-family:Sans"
     xml:space="preserve"><tspan
       y="114.78038"
       x="28.886206"
       id="tspan4053"
       sodipodi:role="line">Exp</tspan></text>
  <text
     xml:space="preserve"
     style="font-size:10px;font-style:normal;font-weight:normal;line-height:125%;letter-spacing:0px;word-spacing:0px;fill:#000000;fill-opacity:1;stroke:none;font-family:Sans"
     x="39.286194"
     y="316.7424"
     id="text4055"
     sodipodi:linespacing="125%"
     transform="matrix(0.28222223,0,0,0.28222223,-1.3919578e-6,0)"><tspan
       sodipodi:role="line"
       id="tspan4057"
       x="39.286194"
       y="316.7424">A</tspan></text>
  <text
     xml:space="preserve"
     style="font-size:10px;font-style:normal;font-weight:normal;line-height:125%;letter-spacing:0px;word-spacing:0px;fill:#000000;fill-opacity:1;stroke:none;font-family:Sans"
     x="129.81525"
     y="315.60367"
     id="text4059"
     sodipodi:linespacing="125%"
     transform="matrix(0.28222223,0,0,0.28222223,-1.3919578e-6,0)"><tspan
       sodipodi:role="line"
       id="tspan4061"
       x="129.81525"
       y="315.60367">B</tspan></text>
  <path
     style="fill:none;stroke:#000000;stroke-width:0.3316519px;stroke-linecap:butt;stroke-linejoin:miter;stroke-opacity:1"
     d="m 16.959509,98.617243 c -1.884797,3.070977 -2.166029,7.823287 -0.457961,7.943077"
     id="path3642"
     inkscape:connector-curvature="0"
     sodipodi:nodetypes="cc" />
  <path
     sodipodi:nodetypes="cc"
     inkscape:connector-curvature="0"
     id="path4070"
     d="m 29.64151,98.617243 c -1.884797,3.070977 -2.166029,7.823287 -0.457961,7.943077"
     style="fill:none;stroke:#000000;stroke-width:0.3316519px;stroke-linecap:butt;stroke-linejoin:miter;stroke-opacity:1" />
</svg>
