  0
SECTION
  2
HEADER
  9
$ACADVER
  1
AC1012
  9
$DWGCODEPAGE
  3
ansi_1252
  9
$INSBASE
 10
0.0
 20
0.0
 30
0.0
  9
$EXTMIN
 10
1.000000000000000E+20
 20
1.000000000000000E+20
 30
1.000000000000000E+20
  9
$EXTMAX
 10
-1.000000000000000E+20
 20
-1.000000000000000E+20
 30
-1.000000000000000E+20
  9
$LIMMIN
 10
0.0
 20
0.0
  9
$LIMMAX
 10
12.0
 20
9.0
  9
$ORTHOMODE
 70
     0
  9
$REGENMODE
 70
     1
  9
$FILLMODE
 70
     1
  9
$QTEXTMODE
 70
     0
  9
$MIRRTEXT
 70
     1
  9
$DRAGMODE
 70
     2
  9
$LTSCALE
 40
1.0
  9
$OSMODE
 70
    37
  9
$ATTMODE
 70
     1
  9
$TEXTSIZE
 40
0.2
  9
$TRACEWID
 40
0.05
  9
$TEXTSTYLE
  7
STANDARD
  9
$CLAYER
  8
0
  9
$CELTYPE
  6
BYLAYER
  9
$CECOLOR
 62
   256
  9
$CELTSCALE
 40
1.0
  9
$DELOBJ
 70
     1
  9
$DISPSILH
 70
     0
  9
$DIMSCALE
 40
1.0
  9
$DIMASZ
 40
0.18
  9
$DIMEXO
 40
0.0625
  9
$DIMDLI
 40
0.38
  9
$DIMRND
 40
0.0
  9
$DIMDLE
 40
0.0
  9
$DIMEXE
 40
0.18
  9
$DIMTP
 40
0.0
  9
$DIMTM
 40
0.0
  9
$DIMTXT
 40
0.18
  9
$DIMCEN
 40
0.09
  9
$DIMTSZ
 40
0.0
  9
$DIMTOL
 70
     0
  9
$DIMLIM
 70
     0
  9
$DIMTIH
 70
     1
  9
$DIMTOH
 70
     1
  9
$DIMSE1
 70
     0
  9
$DIMSE2
 70
     0
  9
$DIMTAD
 70
     0
  9
$DIMZIN
 70
     0
  9
$DIMBLK
  1

  9
$DIMASO
 70
     1
  9
$DIMSHO
 70
     1
  9
$DIMPOST
  1

  9
$DIMAPOST
  1

  9
$DIMALT
 70
     0
  9
$DIMALTD
 70
     2
  9
$DIMALTF
 40
25.4
  9
$DIMLFAC
 40
1.0
  9
$DIMTOFL
 70
     0
  9
$DIMTVP
 40
0.0
  9
$DIMTIX
 70
     0
  9
$DIMSOXD
 70
     0
  9
$DIMSAH
 70
     0
  9
$DIMBLK1
  1

  9
$DIMBLK2
  1

  9
$DIMSTYLE
  2
STANDARD
  9
$DIMCLRD
 70
     0
  9
$DIMCLRE
 70
     0
  9
$DIMCLRT
 70
     0
  9
$DIMTFAC
 40
1.0
  9
$DIMGAP
 40
0.09
  9
$DIMJUST
 70
     0
  9
$DIMSD1
 70
     0
  9
$DIMSD2
 70
     0
  9
$DIMTOLJ
 70
     1
  9
$DIMTZIN
 70
     0
  9
$DIMALTZ
 70
     0
  9
$DIMALTTZ
 70
     0
  9
$DIMFIT
 70
     3
  9
$DIMUPT
 70
     0
  9
$DIMUNIT
 70
     2
  9
$DIMDEC
 70
     4
  9
$DIMTDEC
 70
     4
  9
$DIMALTU
 70
     2
  9
$DIMALTTD
 70
     2
  9
$DIMTXSTY
  7
STANDARD
  9
$DIMAUNIT
 70
     0
  9
$LUNITS
 70
     2
  9
$LUPREC
 70
     4
  9
$SKETCHINC
 40
0.1
  9
$FILLETRAD
 40
0.5
  9
$AUNITS
 70
     0
  9
$AUPREC
 70
     0
  9
$MENU
  1
.
  9
$ELEVATION
 40
0.0
  9
$PELEVATION
 40
0.0
  9
$THICKNESS
 40
0.0
  9
$LIMCHECK
 70
     0
  9
$CHAMFERA
 40
0.5
  9
$CHAMFERB
 40
0.5
  9
$CHAMFERC
 40
1.0
  9
$CHAMFERD
 40
0.0
  9
$SKPOLY
 70
     0
  9
$TDCREATE
 40
2457751.691971829
  9
$TDUPDATE
 40
2457751.69197184
  9
$TDINDWG
 40
0.0000000116
  9
$TDUSRTIMER
 40
0.0000000116
  9
$USRTIMER
 70
     1
  9
$ANGBASE
 50
0.0
  9
$ANGDIR
 70
     0
  9
$PDMODE
 70
     0
  9
$PDSIZE
 40
0.0
  9
$PLINEWID
 40
0.0
  9
$COORDS
 70
     1
  9
$SPLFRAME
 70
     0
  9
$SPLINETYPE
 70
     6
  9
$SPLINESEGS
 70
     8
  9
$ATTDIA
 70
     0
  9
$ATTREQ
 70
     1
  9
$HANDLING
 70
     1
  9
$HANDSEED
  5
9D
  9
$SURFTAB1
 70
     6
  9
$SURFTAB2
 70
     6
  9
$SURFTYPE
 70
     6
  9
$SURFU
 70
     6
  9
$SURFV
 70
     6
  9
$UCSNAME
  2

  9
$UCSORG
 10
0.0
 20
0.0
 30
0.0
  9
$UCSXDIR
 10
1.0
 20
0.0
 30
0.0
  9
$UCSYDIR
 10
0.0
 20
1.0
 30
0.0
  9
$PUCSNAME
  2

  9
$PUCSORG
 10
0.0
 20
0.0
 30
0.0
  9
$PUCSXDIR
 10
1.0
 20
0.0
 30
0.0
  9
$PUCSYDIR
 10
0.0
 20
1.0
 30
0.0
  9
$USERI1
 70
     0
  9
$USERI2
 70
     0
  9
$USERI3
 70
     0
  9
$USERI4
 70
     0
  9
$USERI5
 70
     0
  9
$USERR1
 40
0.0
  9
$USERR2
 40
0.0
  9
$USERR3
 40
0.0
  9
$USERR4
 40
0.0
  9
$USERR5
 40
0.0
  9
$WORLDVIEW
 70
     1
  9
$SHADEDGE
 70
     3
  9
$SHADEDIF
 70
    70
  9
$TILEMODE
 70
     1
  9
$MAXACTVP
 70
    64
  9
$PINSBASE
 10
0.0
 20
0.0
 30
0.0
  9
$PLIMCHECK
 70
     0
  9
$PEXTMIN
 10
1.000000000000000E+20
 20
1.000000000000000E+20
 30
1.000000000000000E+20
  9
$PEXTMAX
 10
-1.000000000000000E+20
 20
-1.000000000000000E+20
 30
-1.000000000000000E+20
  9
$PLIMMIN
 10
0.0
 20
0.0
  9
$PLIMMAX
 10
12.0
 20
9.0
  9
$UNITMODE
 70
     0
  9
$VISRETAIN
 70
     1
  9
$PLINEGEN
 70
     0
  9
$PSLTSCALE
 70
     1
  9
$TREEDEPTH
 70
  3020
  9
$PICKSTYLE
 70
     1
  9
$CMLSTYLE
  2
STANDARD
  9
$CMLJUST
 70
     0
  9
$CMLSCALE
 40
1.0
  9
$SAVEIMAGES
 70
     1
  0
ENDSEC
  0
SECTION
  2
CLASSES
  0
CLASS
  1
ACDBDICTIONARYWDFLT
  2
AcDbDictionaryWithDefault
  3
ObjectDBX Classes
 90
    32768
280
     0
281
     0
  0
CLASS
  1
VISUALSTYLE
  2
AcDbVisualStyle
  3
ObjectDBX Classes
 90
     4095
280
     0
281
     0
  0
CLASS
  1
XRECORD
  2
AcDbXrecord
  3
AutoCAD 2000
 90
    32768
280
     0
281
     0
  0
CLASS
  1
LWPOLYLINE
  2
AcDbPolyline
  3
AutoCAD 2000
 90
    32768
280
     0
281
     1
  0
CLASS
  1
HATCH
  2
AcDbHatch
  3
AutoCAD 2000
 90
    32768
280
     0
281
     1
  0
CLASS
  1
ACDBPLACEHOLDER
  2
AcDbPlaceHolder
  3
ObjectDBX Classes
 90
        0
280
     0
281
     0
  0
CLASS
  1
LAYOUT
  2
AcDbLayout
  3
ObjectDBX Classes
 90
        0
280
     0
281
     0
  0
ENDSEC
  0
SECTION
  2
TABLES
  0
TABLE
  2
VPORT
  5
8
330
0
100
AcDbSymbolTable
 70
     1
  0
VPORT
  5
29
330
8
100
AcDbSymbolTableRecord
100
AcDbViewportTableRecord
  2
*ACTIVE
 70
     0
 10
0.0
 20
0.0
 11
1.0
 21
1.0
 12
0.0
 22
0.0
 13
0.0
 23
0.0
 14
0.5
 24
0.5
 15
0.5
 25
0.5
 16
0.0
 26
0.0
 36
1.0
 17
148.4999796178229
 27
-105.0008259828644
 37
0.0
 40
210.0016519657288
 41
1.414274394775308
 42
50.0
 43
0.0
 44
0.0
 50
0.0
 51
0.0
 71
     0
 72
   100
 73
     1
 74
     3
 75
     0
 76
     0
 77
     0
 78
     0
  0
ENDTAB
  0
TABLE
  2
LTYPE
  5
5
330
0
100
AcDbSymbolTable
 70
     1
  0
LTYPE
  5
14
330
5
100
AcDbSymbolTableRecord
100
AcDbLinetypeTableRecord
  2
BYBLOCK
 70
     0
  3

 72
    65
 73
     0
 40
0.0
  0
LTYPE
  5
15
330
5
100
AcDbSymbolTableRecord
100
AcDbLinetypeTableRecord
  2
BYLAYER
 70
     0
  3

 72
    65
 73
     0
 40
0.0
  0
LTYPE
  5
16
330
5
100
AcDbSymbolTableRecord
100
AcDbLinetypeTableRecord
  2
CONTINUOUS
 70
     0
  3
Solid line
 72
    65
 73
     0
 40
0.0
  0
ENDTAB
  0
TABLE
  2
LAYER
  5
2
330
0
100
AcDbSymbolTable
 70
     2
  0
LAYER
  5
10
330
2
100
AcDbSymbolTableRecord
100
AcDbLayerTableRecord
  2
0
 70
     0
 62
     7
  6
CONTINUOUS
  0
LAYER
  5
3B
330
2
100
AcDbSymbolTableRecord
100
AcDbLayerTableRecord
  2
LAYER_1
 70
     0
 62
     7
  6
CONTINUOUS
  0
ENDTAB
  0
TABLE
  2
STYLE
  5
3
330
0
100
AcDbSymbolTable
 70
     1
  0
STYLE
  5
11
330
3
100
AcDbSymbolTableRecord
100
AcDbTextStyleTableRecord
  2
STANDARD
 70
     0
 40
0.0
 41
1.0
 50
0.0
 71
     0
 42
0.2
  3
txt
  4

  0
ENDTAB
  0
TABLE
  2
VIEW
  5
6
330
0
100
AcDbSymbolTable
 70
     0
  0
ENDTAB
  0
TABLE
  2
UCS
  5
7
330
0
100
AcDbSymbolTable
 70
     0
  0
ENDTAB
  0
TABLE
  2
APPID
  5
9
330
0
100
AcDbSymbolTable
 70
     1
  0
APPID
  5
12
330
9
100
AcDbSymbolTableRecord
100
AcDbRegAppTableRecord
  2
ACAD
 70
     0
  0
ENDTAB
  0
TABLE
  2
DIMSTYLE
  5
A
330
0
100
AcDbSymbolTable
 70
     1
  0
DIMSTYLE
105
27
330
A
100
AcDbSymbolTableRecord
100
AcDbDimStyleTableRecord
  2
STANDARD
 70
     0
  3

  4

  5

  6

  7

 40
1.0
 41
0.18
 42
0.0625
 43
0.38
 44
0.18
 45
0.0
 46
0.0
 47
0.0
 48
0.0
140
0.18
141
0.09
142
0.0
143
25.4
144
1.0
145
0.0
146
1.0
147
0.09
 71
     0
 72
     0
 73
     1
 74
     1
 75
     0
 76
     0
 77
     0
 78
     0
170
     0
171
     2
172
     0
173
     0
174
     0
175
     0
176
     0
177
     0
178
     0
270
     2
271
     4
272
     4
273
     2
274
     2
340
11
275
     0
280
     0
281
     0
282
     0
283
     1
284
     0
285
     0
286
     0
287
     3
288
     0
  0
ENDTAB
  0
TABLE
  2
BLOCK_RECORD
  5
1
330
0
100
AcDbSymbolTable
 70
     1
  0
BLOCK_RECORD
  5
1F
330
1
100
AcDbSymbolTableRecord
100
AcDbBlockTableRecord
  2
*MODEL_SPACE
  0
BLOCK_RECORD
  5
1B
330
1
100
AcDbSymbolTableRecord
100
AcDbBlockTableRecord
  2
*PAPER_SPACE
  0
ENDTAB
  0
ENDSEC
  0
SECTION
  2
BLOCKS
  0
BLOCK
  5
20
330
1F
100
AcDbEntity
  8
0
100
AcDbBlockBegin
  2
*MODEL_SPACE
 70
     0
 71
     0
 10
0.0
 20
0.0
 30
0.0
  3
*MODEL_SPACE
  1

  0
ENDBLK
  5
21
330
1F
100
AcDbEntity
  8
0
100
AcDbBlockEnd
  0
BLOCK
  5
1C
330
1B
100
AcDbEntity
 67
     1
  8
0
100
AcDbBlockBegin
  2
*PAPER_SPACE
 70
     0
 71
     0
 10
0.0
 20
0.0
 30
0.0
  3
*PAPER_SPACE
  1

  0
ENDBLK
  5
1D
330
1B
100
AcDbEntity
 67
     1
  8
0
100
AcDbBlockEnd
  0
ENDSEC
  0
SECTION
  2
ENTITIES
  0
POLYLINE
  5
3C
330
1F
100
AcDbEntity
  8
LAYER_1
 62
     7
100
AcDb2dPolyline
 66
     1
 10
0.0
 20
0.0
 30
0.0
  0
VERTEX
  5
3D
330
3C
100
AcDbEntity
  8
LAYER_1
 62
     7
100
AcDbVertex
100
AcDb2dVertex
 10
133.3996093416501
 20
-40.54877386139059
 30
0.0
  0
VERTEX
  5
3E
330
3C
100
AcDbEntity
  8
LAYER_1
 62
     7
100
AcDbVertex
100
AcDb2dVertex
 10
163.4139702282437
 20
-40.54877386139059
 30
0.0
  0
VERTEX
  5
3F
330
3C
100
AcDbEntity
  8
LAYER_1
 62
     7
100
AcDbVertex
100
AcDb2dVertex
 10
163.4139702282437
 20
-169.0515244803066
 30
0.0
  0
VERTEX
  5
40
330
3C
100
AcDbEntity
  8
LAYER_1
 62
     7
100
AcDbVertex
100
AcDb2dVertex
 10
133.3996093416501
 20
-169.0515244803066
 30
0.0
  0
VERTEX
  5
41
330
3C
100
AcDbEntity
  8
LAYER_1
 62
     7
100
AcDbVertex
100
AcDb2dVertex
 10
133.3996093416501
 20
-40.54877386139059
 30
0.0
  0
SEQEND
  5
42
330
3C
100
AcDbEntity
  8
LAYER_1
  0
SPLINE
  5
43
330
1F
100
AcDbEntity
  8
LAYER_1
 62
     7
100
AcDbSpline
210
0.0
220
0.0
230
1.0
 70
    11
 71
     3
 72
    20
 73
    16
 74
     0
 42
0.0000000001
 43
0.0000000001
 40
0.0
 40
0.0
 40
0.0
 40
0.0
 40
1.0
 40
1.0
 40
1.0
 40
2.0
 40
2.0
 40
2.0
 40
3.0
 40
3.0
 40
3.0
 40
4.0
 40
4.0
 40
4.0
 40
5.0
 40
5.0
 40
5.0
 40
5.0
 10
142.5013793589059
 20
-43.55444741749681
 30
0.0
 10
142.5013793589059
 20
-44.44345430746553
 30
0.0
 10
141.7816989120372
 20
-45.16313475433422
 30
0.0
 10
140.9138793593028
 20
-45.16313475433422
 30
0.0
 10
140.0248724693341
 20
-45.16313475433422
 30
0.0
 10
139.3051920224654
 20
-44.44345430746553
 30
0.0
 10
139.3051920224654
 20
-43.55444741749681
 30
0.0
 10
139.3051920224654
 20
-42.66544052752808
 30
0.0
 10
140.0248724693341
 20
-41.96694741789369
 30
0.0
 10
140.9138793593028
 20
-41.96694741789369
 30
0.0
 10
141.7816989120372
 20
-41.96694741789369
 30
0.0
 10
142.5013793589059
 20
-42.66544052752808
 30
0.0
 10
142.5013793589059
 20
-43.55444741749681
 30
0.0
 10
142.5013793589059
 20
-43.55444741749681
 30
0.0
 10
142.5013793589059
 20
-43.55444741749681
 30
0.0
 10
142.5013793589059
 20
-43.55444741749681
 30
0.0
  0
SPLINE
  5
44
330
1F
100
AcDbEntity
  8
LAYER_1
 62
     7
100
AcDbSpline
210
0.0
220
0.0
230
1.0
 70
    11
 71
     3
 72
    20
 73
    16
 74
     0
 42
0.0000000001
 43
0.0000000001
 40
0.0
 40
0.0
 40
0.0
 40
0.0
 40
1.0
 40
1.0
 40
1.0
 40
2.0
 40
2.0
 40
2.0
 40
3.0
 40
3.0
 40
3.0
 40
4.0
 40
4.0
 40
4.0
 40
5.0
 40
5.0
 40
5.0
 40
5.0
 10
142.5013793589059
 20
-166.0456786694261
 30
0.0
 10
142.5013793589059
 20
-166.9348578141691
 30
0.0
 10
141.7816989120372
 20
-167.6545382610378
 30
0.0
 10
140.9138793593028
 20
-167.6545382610378
 30
0.0
 10
140.0248724693341
 20
-167.6545382610378
 30
0.0
 10
139.3051920224654
 20
-166.9348578141691
 30
0.0
 10
139.3051920224654
 20
-166.0456786694261
 30
0.0
 10
139.3051920224654
 20
-165.1782036262402
 30
0.0
 10
140.0248724693341
 20
-164.458178669823
 30
0.0
 10
140.9138793593028
 20
-164.458178669823
 30
0.0
 10
141.7816989120372
 20
-164.458178669823
 30
0.0
 10
142.5013793589059
 20
-165.1782036262402
 30
0.0
 10
142.5013793589059
 20
-166.0456786694261
 30
0.0
 10
142.5013793589059
 20
-166.0456786694261
 30
0.0
 10
142.5013793589059
 20
-166.0456786694261
 30
0.0
 10
142.5013793589059
 20
-166.0456786694261
 30
0.0
  0
POLYLINE
  5
45
330
1F
100
AcDbEntity
  8
LAYER_1
 62
   250
100
AcDb2dPolyline
 66
     1
 10
0.0
 20
0.0
 30
0.0
  0
VERTEX
  5
46
330
45
100
AcDbEntity
  8
LAYER_1
 62
   250
100
AcDbVertex
100
AcDb2dVertex
 10
152.407234662419
 20
-143.3762613573851
 30
0.0
  0
VERTEX
  5
47
330
45
100
AcDbEntity
  8
LAYER_1
 62
   250
100
AcDbVertex
100
AcDb2dVertex
 10
153.4655679954878
 20
-143.3762613573851
 30
0.0
  0
VERTEX
  5
48
330
45
100
AcDbEntity
  8
LAYER_1
 62
   250
100
AcDbVertex
100
AcDb2dVertex
 10
153.4655679954878
 20
-144.5617187138596
 30
0.0
  0
VERTEX
  5
49
330
45
100
AcDbEntity
  8
LAYER_1
 62
   250
100
AcDbVertex
100
AcDb2dVertex
 10
150.7563449058873
 20
-144.5617187138596
 30
0.0
  0
VERTEX
  5
4A
330
45
100
AcDbEntity
  8
LAYER_1
 62
   250
100
AcDbVertex
100
AcDb2dVertex
 10
151.0739827096274
 20
-143.9688177808481
 30
0.0
  0
VERTEX
  5
4B
330
45
100
AcDbEntity
  8
LAYER_1
 62
   250
100
AcDbVertex
100
AcDb2dVertex
 10
151.3702609213588
 20
-143.3762613573851
 30
0.0
  0
VERTEX
  5
4C
330
45
100
AcDbEntity
  8
LAYER_1
 62
   250
100
AcDbVertex
100
AcDb2dVertex
 10
152.407234662419
 20
-143.3762613573851
 30
0.0
  0
VERTEX
  5
4D
330
45
100
AcDbEntity
  8
LAYER_1
 62
   250
100
AcDbVertex
100
AcDb2dVertex
 10
152.407234662419
 20
-143.3762613573851
 30
0.0
  0
SEQEND
  5
4E
330
45
100
AcDbEntity
  8
LAYER_1
  0
POLYLINE
  5
4F
330
1F
100
AcDbEntity
  8
LAYER_1
 62
   250
100
AcDb2dPolyline
 66
     1
 10
0.0
 20
0.0
 30
0.0
  0
VERTEX
  5
50
330
4F
100
AcDbEntity
  8
LAYER_1
 62
   250
100
AcDbVertex
100
AcDb2dVertex
 10
151.9628173448218
 20
-145.1756347293311
 30
0.0
  0
VERTEX
  5
51
330
4F
100
AcDbEntity
  8
LAYER_1
 62
   250
100
AcDbVertex
100
AcDb2dVertex
 10
154.0584689284993
 20
-145.1756347293311
 30
0.0
  0
VERTEX
  5
52
330
4F
100
AcDbEntity
  8
LAYER_1
 62
   250
100
AcDbVertex
100
AcDb2dVertex
 10
154.0584689284993
 20
-142.7623453419136
 30
0.0
  0
VERTEX
  5
53
330
4F
100
AcDbEntity
  8
LAYER_1
 62
   250
100
AcDbVertex
100
AcDb2dVertex
 10
151.0739827096274
 20
-142.7623453419136
 30
0.0
  0
VERTEX
  5
54
330
4F
100
AcDbEntity
  8
LAYER_1
 62
   250
100
AcDbVertex
100
AcDb2dVertex
 10
150.4600666941558
 20
-143.9688177808481
 30
0.0
  0
VERTEX
  5
55
330
4F
100
AcDbEntity
  8
LAYER_1
 62
   250
100
AcDbVertex
100
AcDb2dVertex
 10
149.8671657611443
 20
-145.1756347293311
 30
0.0
  0
VERTEX
  5
56
330
4F
100
AcDbEntity
  8
LAYER_1
 62
   250
100
AcDbVertex
100
AcDb2dVertex
 10
151.9628173448218
 20
-145.1756347293311
 30
0.0
  0
VERTEX
  5
57
330
4F
100
AcDbEntity
  8
LAYER_1
 62
   250
100
AcDbVertex
100
AcDb2dVertex
 10
151.9628173448218
 20
-145.1756347293311
 30
0.0
  0
SEQEND
  5
58
330
4F
100
AcDbEntity
  8
LAYER_1
  0
POLYLINE
  5
59
330
1F
100
AcDbEntity
  8
LAYER_1
 62
   250
100
AcDb2dPolyline
 66
     1
 10
0.0
 20
0.0
 30
0.0
  0
VERTEX
  5
5A
330
59
100
AcDbEntity
  8
LAYER_1
 62
   250
100
AcDbVertex
100
AcDb2dVertex
 10
151.5184000272246
 20
-158.4892062320791
 30
0.0
  0
VERTEX
  5
5B
330
59
100
AcDbEntity
  8
LAYER_1
 62
   250
100
AcDbVertex
100
AcDb2dVertex
 10
153.4655679954878
 20
-158.4892062320791
 30
0.0
  0
VERTEX
  5
5C
330
59
100
AcDbEntity
  8
LAYER_1
 62
   250
100
AcDbVertex
100
AcDb2dVertex
 10
153.4655679954878
 20
-159.6746635885536
 30
0.0
  0
VERTEX
  5
5D
330
59
100
AcDbEntity
  8
LAYER_1
 62
   250
100
AcDbVertex
100
AcDb2dVertex
 10
148.9783311259499
 20
-159.6746635885536
 30
0.0
  0
VERTEX
  5
5E
330
59
100
AcDbEntity
  8
LAYER_1
 62
   250
100
AcDbVertex
100
AcDb2dVertex
 10
149.2746093376813
 20
-159.0821071650906
 30
0.0
  0
VERTEX
  5
5F
330
59
100
AcDbEntity
  8
LAYER_1
 62
   250
100
AcDbVertex
100
AcDb2dVertex
 10
149.5708875494128
 20
-158.4892062320791
 30
0.0
  0
VERTEX
  5
60
330
59
100
AcDbEntity
  8
LAYER_1
 62
   250
100
AcDbVertex
100
AcDb2dVertex
 10
151.5184000272246
 20
-158.4892062320791
 30
0.0
  0
VERTEX
  5
61
330
59
100
AcDbEntity
  8
LAYER_1
 62
   250
100
AcDbVertex
100
AcDb2dVertex
 10
151.5184000272246
 20
-158.4892062320791
 30
0.0
  0
SEQEND
  5
62
330
59
100
AcDbEntity
  8
LAYER_1
  0
SPLINE
  5
63
330
1F
100
AcDbEntity
  8
LAYER_1
 62
   250
100
AcDbSpline
210
0.0
220
0.0
230
1.0
 70
    11
 71
     3
 72
    26
 73
    22
 74
     0
 42
0.0000000001
 43
0.0000000001
 40
0.0
 40
0.0
 40
0.0
 40
0.0
 40
1.0
 40
1.0
 40
1.0
 40
2.0
 40
2.0
 40
2.0
 40
3.0
 40
3.0
 40
3.0
 40
4.0
 40
4.0
 40
4.0
 40
5.0
 40
5.0
 40
5.0
 40
6.0
 40
6.0
 40
6.0
 40
7.0
 40
7.0
 40
7.0
 40
7.0
 10
151.0739827096274
 20
-160.267564521565
 30
0.0
 10
151.0739827096274
 20
-160.267564521565
 30
0.0
 10
154.0584689284993
 20
-160.267564521565
 30
0.0
 10
154.0584689284993
 20
-160.267564521565
 30
0.0
 10
154.0584689284993
 20
-160.267564521565
 30
0.0
 10
154.0584689284993
 20
-157.8756347261561
 30
0.0
 10
154.0584689284993
 20
-157.8756347261561
 30
0.0
 10
154.0584689284993
 20
-157.8756347261561
 30
0.0
 10
149.2959689296899
 20
-157.8756347261561
 30
0.0
 10
149.2959689296899
 20
-157.8756347261561
 30
0.0
 10
149.2959689296899
 20
-157.8756347261561
 30
0.0
 10
148.6820529142184
 20
-158.9973578161535
 30
0.0
 10
148.6820529142184
 20
-158.9973578161535
 30
0.0
 10
148.3434000280183
 20
-159.611273831625
 30
0.0
 10
148.0681368987469
 20
-160.1404404981593
 30
0.0
 10
148.0681368987469
 20
-160.203830255088
 30
0.0
 10
148.0681368987469
 20
-160.2462049295565
 30
0.0
 10
149.4227484435471
 20
-160.267564521565
 30
0.0
 10
151.0739827096274
 20
-160.267564521565
 30
0.0
 10
151.0739827096274
 20
-160.267564521565
 30
0.0
 10
151.0739827096274
 20
-160.267564521565
 30
0.0
 10
151.0739827096274
 20
-160.267564521565
 30
0.0
  0
POLYLINE
  5
64
330
1F
100
AcDbEntity
  8
LAYER_1
 62
   250
100
AcDb2dPolyline
 66
     1
 10
0.0
 20
0.0
 30
0.0
  0
VERTEX
  5
65
330
64
100
AcDbEntity
  8
LAYER_1
 62
   250
100
AcDbVertex
100
AcDb2dVertex
 10
150.1000542159472
 20
-64.97501761613472
 30
0.0
  0
VERTEX
  5
66
330
64
100
AcDbEntity
  8
LAYER_1
 62
   250
100
AcDbVertex
100
AcDb2dVertex
 10
153.4655679954878
 20
-64.97501761613472
 30
0.0
  0
VERTEX
  5
67
330
64
100
AcDbEntity
  8
LAYER_1
 62
   250
100
AcDbVertex
100
AcDb2dVertex
 10
153.4655679954878
 20
-66.18149005506922
 30
0.0
  0
VERTEX
  5
68
330
64
100
AcDbEntity
  8
LAYER_1
 62
   250
100
AcDbVertex
100
AcDb2dVertex
 10
146.7347126911809
 20
-66.18149005506922
 30
0.0
  0
VERTEX
  5
69
330
64
100
AcDbEntity
  8
LAYER_1
 62
   250
100
AcDbVertex
100
AcDb2dVertex
 10
146.7347126911809
 20
-64.97501761613472
 30
0.0
  0
VERTEX
  5
6A
330
64
100
AcDbEntity
  8
LAYER_1
 62
   250
100
AcDbVertex
100
AcDb2dVertex
 10
150.1000542159472
 20
-64.97501761613472
 30
0.0
  0
VERTEX
  5
6B
330
64
100
AcDbEntity
  8
LAYER_1
 62
   250
100
AcDbVertex
100
AcDb2dVertex
 10
150.1000542159472
 20
-64.97501761613472
 30
0.0
  0
SEQEND
  5
6C
330
64
100
AcDbEntity
  8
LAYER_1
  0
POLYLINE
  5
6D
330
1F
100
AcDbEntity
  8
LAYER_1
 62
   250
100
AcDb2dPolyline
 66
     1
 10
0.0
 20
0.0
 30
0.0
  0
VERTEX
  5
6E
330
6D
100
AcDbEntity
  8
LAYER_1
 62
   250
100
AcDbVertex
100
AcDb2dVertex
 10
150.1000542159472
 20
-66.77421873330645
 30
0.0
  0
VERTEX
  5
6F
330
6D
100
AcDbEntity
  8
LAYER_1
 62
   250
100
AcDbVertex
100
AcDb2dVertex
 10
154.0584689284993
 20
-66.77421873330645
 30
0.0
  0
VERTEX
  5
70
330
6D
100
AcDbEntity
  8
LAYER_1
 62
   250
100
AcDbVertex
100
AcDb2dVertex
 10
154.0584689284993
 20
-64.38246119267176
 30
0.0
  0
VERTEX
  5
71
330
6D
100
AcDbEntity
  8
LAYER_1
 62
   250
100
AcDbVertex
100
AcDb2dVertex
 10
146.1207966757094
 20
-64.38246119267176
 30
0.0
  0
VERTEX
  5
72
330
6D
100
AcDbEntity
  8
LAYER_1
 62
   250
100
AcDbVertex
100
AcDb2dVertex
 10
146.1207966757094
 20
-66.77421873330645
 30
0.0
  0
VERTEX
  5
73
330
6D
100
AcDbEntity
  8
LAYER_1
 62
   250
100
AcDbVertex
100
AcDb2dVertex
 10
150.1000542159472
 20
-66.77421873330645
 30
0.0
  0
VERTEX
  5
74
330
6D
100
AcDbEntity
  8
LAYER_1
 62
   250
100
AcDbVertex
100
AcDb2dVertex
 10
150.1000542159472
 20
-66.77421873330645
 30
0.0
  0
SEQEND
  5
75
330
6D
100
AcDbEntity
  8
LAYER_1
  0
POLYLINE
  5
76
330
1F
100
AcDbEntity
  8
LAYER_1
 62
   250
100
AcDb2dPolyline
 66
     1
 10
0.0
 20
0.0
 30
0.0
  0
VERTEX
  5
77
330
76
100
AcDbEntity
  8
LAYER_1
 62
   250
100
AcDbVertex
100
AcDb2dVertex
 10
150.1000542159472
 20
-77.99248316192549
 30
0.0
  0
VERTEX
  5
78
330
76
100
AcDbEntity
  8
LAYER_1
 62
   250
100
AcDbVertex
100
AcDb2dVertex
 10
153.4655679954878
 20
-77.99248316192549
 30
0.0
  0
VERTEX
  5
79
330
76
100
AcDbEntity
  8
LAYER_1
 62
   250
100
AcDbVertex
100
AcDb2dVertex
 10
153.4655679954878
 20
-79.19912785563425
 30
0.0
  0
VERTEX
  5
7A
330
76
100
AcDbEntity
  8
LAYER_1
 62
   250
100
AcDbVertex
100
AcDb2dVertex
 10
146.7347126911809
 20
-79.19912785563425
 30
0.0
  0
VERTEX
  5
7B
330
76
100
AcDbEntity
  8
LAYER_1
 62
   250
100
AcDbVertex
100
AcDb2dVertex
 10
146.7347126911809
 20
-77.99248316192549
 30
0.0
  0
VERTEX
  5
7C
330
76
100
AcDbEntity
  8
LAYER_1
 62
   250
100
AcDbVertex
100
AcDb2dVertex
 10
150.1000542159472
 20
-77.99248316192549
 30
0.0
  0
VERTEX
  5
7D
330
76
100
AcDbEntity
  8
LAYER_1
 62
   250
100
AcDbVertex
100
AcDb2dVertex
 10
150.1000542159472
 20
-77.99248316192549
 30
0.0
  0
SEQEND
  5
7E
330
76
100
AcDbEntity
  8
LAYER_1
  0
POLYLINE
  5
7F
330
1F
100
AcDbEntity
  8
LAYER_1
 62
   250
100
AcDb2dPolyline
 66
     1
 10
0.0
 20
0.0
 30
0.0
  0
VERTEX
  5
80
330
7F
100
AcDbEntity
  8
LAYER_1
 62
   250
100
AcDbVertex
100
AcDb2dVertex
 10
150.1000542159472
 20
-79.79168427909723
 30
0.0
  0
VERTEX
  5
81
330
7F
100
AcDbEntity
  8
LAYER_1
 62
   250
100
AcDbVertex
100
AcDb2dVertex
 10
154.0584689284993
 20
-79.79168427909723
 30
0.0
  0
VERTEX
  5
82
330
7F
100
AcDbEntity
  8
LAYER_1
 62
   250
100
AcDbVertex
100
AcDb2dVertex
 10
154.0584689284993
 20
-77.39992673846253
 30
0.0
  0
VERTEX
  5
83
330
7F
100
AcDbEntity
  8
LAYER_1
 62
   250
100
AcDbVertex
100
AcDb2dVertex
 10
146.1207966757094
 20
-77.39992673846253
 30
0.0
  0
VERTEX
  5
84
330
7F
100
AcDbEntity
  8
LAYER_1
 62
   250
100
AcDbVertex
100
AcDb2dVertex
 10
146.1207966757094
 20
-79.79168427909723
 30
0.0
  0
VERTEX
  5
85
330
7F
100
AcDbEntity
  8
LAYER_1
 62
   250
100
AcDbVertex
100
AcDb2dVertex
 10
150.1000542159472
 20
-79.79168427909723
 30
0.0
  0
VERTEX
  5
86
330
7F
100
AcDbEntity
  8
LAYER_1
 62
   250
100
AcDbVertex
100
AcDb2dVertex
 10
150.1000542159472
 20
-79.79168427909723
 30
0.0
  0
SEQEND
  5
87
330
7F
100
AcDbEntity
  8
LAYER_1
  0
SPLINE
  5
88
330
1F
100
AcDbEntity
  8
LAYER_1
 62
   250
100
AcDbSpline
210
0.0
220
0.0
230
1.0
 70
    11
 71
     3
 72
    20
 73
    16
 74
     0
 42
0.0000000001
 43
0.0000000001
 40
0.0
 40
0.0
 40
0.0
 40
0.0
 40
1.0
 40
1.0
 40
1.0
 40
2.0
 40
2.0
 40
2.0
 40
3.0
 40
3.0
 40
3.0
 40
4.0
 40
4.0
 40
4.0
 40
5.0
 40
5.0
 40
5.0
 40
5.0
 10
146.8616644598124
 20
-143.3762613573851
 30
0.0
 10
146.9674288912096
 20
-143.3762613573851
 30
0.0
 10
147.4755804752839
 20
-144.3078151765967
 30
0.0
 10
147.4755804752839
 20
-144.4979844473825
 30
0.0
 10
147.4755804752839
 20
-144.5407036313996
 30
0.0
 10
147.3062540321839
 20
-144.5617187138596
 30
0.0
 10
147.0945529146153
 20
-144.5617187138596
 30
0.0
 10
146.7770873656495
 20
-144.5617187138596
 30
0.0
 10
146.7347126911809
 20
-144.4979844473825
 30
0.0
 10
146.7347126911809
 20
-143.9688177808481
 30
0.0
 10
146.7347126911809
 20
-143.6305094041965
 30
0.0
 10
146.7770873656495
 20
-143.3762613573851
 30
0.0
 10
146.8616644598124
 20
-143.3762613573851
 30
0.0
 10
146.8616644598124
 20
-143.3762613573851
 30
0.0
 10
146.8616644598124
 20
-143.3762613573851
 30
0.0
 10
146.8616644598124
 20
-143.3762613573851
 30
0.0
  0
SPLINE
  5
89
330
1F
100
AcDbEntity
  8
LAYER_1
 62
   250
100
AcDbSpline
210
0.0
220
0.0
230
1.0
 70
    11
 71
     3
 72
    26
 73
    22
 74
     0
 42
0.0000000001
 43
0.0000000001
 40
0.0
 40
0.0
 40
0.0
 40
0.0
 40
1.0
 40
1.0
 40
1.0
 40
2.0
 40
2.0
 40
2.0
 40
3.0
 40
3.0
 40
3.0
 40
4.0
 40
4.0
 40
4.0
 40
5.0
 40
5.0
 40
5.0
 40
6.0
 40
6.0
 40
6.0
 40
7.0
 40
7.0
 40
7.0
 40
7.0
 10
147.3272691146439
 20
-145.1756347293311
 30
0.0
 10
147.3272691146439
 20
-145.1756347293311
 30
0.0
 10
148.5339138083527
 20
-145.1756347293311
 30
0.0
 10
148.5339138083527
 20
-145.1756347293311
 30
0.0
 10
148.5339138083527
 20
-145.1756347293311
 30
0.0
 10
147.9199977928811
 20
-143.9688177808481
 30
0.0
 10
147.9199977928811
 20
-143.9688177808481
 30
0.0
 10
147.3272691146439
 20
-142.7837049339221
 30
0.0
 10
147.3272691146439
 20
-142.7623453419136
 30
0.0
 10
146.7347126911809
 20
-142.7623453419136
 30
0.0
 10
146.7347126911809
 20
-142.7623453419136
 30
0.0
 10
146.1207966757094
 20
-142.7623453419136
 30
0.0
 10
146.1207966757094
 20
-142.7623453419136
 30
0.0
 10
146.1207966757094
 20
-142.7623453419136
 30
0.0
 10
146.1207966757094
 20
-145.1756347293311
 30
0.0
 10
146.1207966757094
 20
-145.1756347293311
 30
0.0
 10
146.1207966757094
 20
-145.1756347293311
 30
0.0
 10
147.3272691146439
 20
-145.1756347293311
 30
0.0
 10
147.3272691146439
 20
-145.1756347293311
 30
0.0
 10
147.3272691146439
 20
-145.1756347293311
 30
0.0
 10
147.3272691146439
 20
-145.1756347293311
 30
0.0
 10
147.3272691146439
 20
-145.1756347293311
 30
0.0
  0
SPLINE
  5
8A
330
1F
100
AcDbEntity
  8
LAYER_1
 62
   250
100
AcDbSpline
210
0.0
220
0.0
230
1.0
 70
    11
 71
     3
 72
    68
 73
    64
 74
     0
 42
0.0000000001
 43
0.0000000001
 40
0.0
 40
0.0
 40
0.0
 40
0.0
 40
1.0
 40
1.0
 40
1.0
 40
2.0
 40
2.0
 40
2.0
 40
3.0
 40
3.0
 40
3.0
 40
4.0
 40
4.0
 40
4.0
 40
5.0
 40
5.0
 40
5.0
 40
6.0
 40
6.0
 40
6.0
 40
7.0
 40
7.0
 40
7.0
 40
8.0
 40
8.0
 40
8.0
 40
9.0
 40
9.0
 40
9.0
 40
10.0
 40
10.0
 40
10.0
 40
11.0
 40
11.0
 40
11.0
 40
12.0
 40
12.0
 40
12.0
 40
13.0
 40
13.0
 40
13.0
 40
14.0
 40
14.0
 40
14.0
 40
15.0
 40
15.0
 40
15.0
 40
16.0
 40
16.0
 40
16.0
 40
17.0
 40
17.0
 40
17.0
 40
18.0
 40
18.0
 40
18.0
 40
19.0
 40
19.0
 40
19.0
 40
20.0
 40
20.0
 40
20.0
 40
21.0
 40
21.0
 40
21.0
 40
21.0
 10
143.3691989116404
 20
-117.2355658344064
 30
0.0
 10
144.0041300095719
 20
-117.298955591335
 30
0.0
 10
146.5441989108466
 20
-117.3413302658036
 30
0.0
 10
148.9993462084099
 20
-117.3413302658036
 30
0.0
 10
148.9993462084099
 20
-117.3413302658036
 30
0.0
 10
153.4655679954878
 20
-117.3413302658036
 30
0.0
 10
153.4655679954878
 20
-117.3413302658036
 30
0.0
 10
153.4655679954878
 20
-117.3413302658036
 30
0.0
 10
153.4655679954878
 20
-119.1407036377496
 30
0.0
 10
153.4655679954878
 20
-119.1407036377496
 30
0.0
 10
153.4655679954878
 20
-119.1407036377496
 30
0.0
 10
155.8574977908967
 20
-119.1407036377496
 30
0.0
 10
155.8574977908967
 20
-119.1407036377496
 30
0.0
 10
155.8574977908967
 20
-119.1407036377496
 30
0.0
 10
155.8574977908967
 20
-113.1503716079971
 30
0.0
 10
155.8574977908967
 20
-113.1503716079971
 30
0.0
 10
155.8574977908967
 20
-113.1503716079971
 30
0.0
 10
153.4655679954878
 20
-113.1503716079971
 30
0.0
 10
153.4655679954878
 20
-113.1503716079971
 30
0.0
 10
153.4655679954878
 20
-113.1503716079971
 30
0.0
 10
153.4655679954878
 20
-114.9494004703946
 30
0.0
 10
153.4655679954878
 20
-114.9494004703946
 30
0.0
 10
153.4655679954878
 20
-114.9494004703946
 30
0.0
 10
148.8513793573184
 20
-114.9494004703946
 30
0.0
 10
148.8513793573184
 20
-114.9494004703946
 30
0.0
 10
143.7924288920033
 20
-114.9494004703946
 30
0.0
 10
142.1203517982373
 20
-115.0341498193317
 30
0.0
 10
142.3954426727345
 20
-115.3094129486032
 30
0.0
 10
142.5013793589059
 20
-115.4151773800004
 30
0.0
 10
144.3851575702405
 20
-115.478567136929
 30
0.0
 10
148.3010253535498
 20
-115.5212863209461
 30
0.0
 10
148.3010253535498
 20
-115.5212863209461
 30
0.0
 10
154.0584689284993
 20
-115.5633164858661
 30
0.0
 10
154.0584689284993
 20
-115.5633164858661
 30
0.0
 10
154.0584689284993
 20
-115.5633164858661
 30
0.0
 10
154.0584689284993
 20
-113.7429280314601
 30
0.0
 10
154.0584689284993
 20
-113.7429280314601
 30
0.0
 10
154.0584689284993
 20
-113.7429280314601
 30
0.0
 10
155.2649413674338
 20
-113.7429280314601
 30
0.0
 10
155.2649413674338
 20
-113.7429280314601
 30
0.0
 10
155.2649413674338
 20
-113.7429280314601
 30
0.0
 10
155.2649413674338
 20
-118.526787622278
 30
0.0
 10
155.2649413674338
 20
-118.526787622278
 30
0.0
 10
155.2649413674338
 20
-118.526787622278
 30
0.0
 10
154.0584689284993
 20
-118.526787622278
 30
0.0
 10
154.0584689284993
 20
-118.526787622278
 30
0.0
 10
154.0584689284993
 20
-118.526787622278
 30
0.0
 10
154.0584689284993
 20
-116.706399167872
 30
0.0
 10
154.0584689284993
 20
-116.706399167872
 30
0.0
 10
154.0584689284993
 20
-116.706399167872
 30
0.0
 10
148.3010253535498
 20
-116.7697889248006
 30
0.0
 10
148.3010253535498
 20
-116.7697889248006
 30
0.0
 10
144.3851575702405
 20
-116.7911485168092
 30
0.0
 10
142.5013793589059
 20
-116.8758978657463
 30
0.0
 10
142.3954426727345
 20
-116.981317787595
 30
0.0
 10
142.268490904103
 20
-117.1087863205492
 30
0.0
 10
142.5437540333745
 20
-117.1721760774778
 30
0.0
 10
143.3691989116404
 20
-117.2355658344064
 30
0.0
 10
143.3691989116404
 20
-117.2355658344064
 30
0.0
 10
143.3691989116404
 20
-117.2355658344064
 30
0.0
 10
143.3691989116404
 20
-117.2355658344064
 30
0.0
 10
143.3691989116404
 20
-117.2355658344064
 30
0.0
 10
143.3691989116404
 20
-117.2355658344064
 30
0.0
 10
143.3691989116404
 20
-117.2355658344064
 30
0.0
  0
SPLINE
  5
8B
330
1F
100
AcDbEntity
  8
LAYER_1
 62
   250
100
AcDbSpline
210
0.0
220
0.0
230
1.0
 70
    11
 71
     3
 72
    47
 73
    43
 74
     0
 42
0.0000000001
 43
0.0000000001
 40
0.0
 40
0.0
 40
0.0
 40
0.0
 40
1.0
 40
1.0
 40
1.0
 40
2.0
 40
2.0
 40
2.0
 40
3.0
 40
3.0
 40
3.0
 40
4.0
 40
4.0
 40
4.0
 40
5.0
 40
5.0
 40
5.0
 40
6.0
 40
6.0
 40
6.0
 40
7.0
 40
7.0
 40
7.0
 40
8.0
 40
8.0
 40
8.0
 40
9.0
 40
9.0
 40
9.0
 40
10.0
 40
10.0
 40
10.0
 40
11.0
 40
11.0
 40
11.0
 40
12.0
 40
12.0
 40
12.0
 40
13.0
 40
13.0
 40
13.0
 40
14.0
 40
14.0
 40
14.0
 40
14.0
 10
143.3691989116404
 20
-160.1828151726279
 30
0.0
 10
144.0041300095719
 20
-160.224845337548
 30
0.0
 10
145.0202609229463
 20
-160.267564521565
 30
0.0
 10
145.6340046836436
 20
-160.267564521565
 30
0.0
 10
145.6340046836436
 20
-160.267564521565
 30
0.0
 10
146.7559000284152
 20
-160.267564521565
 30
0.0
 10
146.7559000284152
 20
-160.267564521565
 30
0.0
 10
146.7559000284152
 20
-160.267564521565
 30
0.0
 10
146.0996093384751
 20
-159.0821071650906
 30
0.0
 10
146.0996093384751
 20
-159.0821071650906
 30
0.0
 10
145.4646782405435
 20
-157.8966498086161
 30
0.0
 10
145.4646782405435
 20
-157.8756347261561
 30
0.0
 10
144.850762225072
 20
-157.8756347261561
 30
0.0
 10
143.8136162292376
 20
-157.8966498086161
 30
0.0
 10
142.2473035668687
 20
-158.0661485064904
 30
0.0
 10
142.3108655785716
 20
-158.1929280203476
 30
0.0
 10
142.3532402530402
 20
-158.2563177772762
 30
0.0
 10
143.009358688206
 20
-158.3410671262133
 30
0.0
 10
143.7924288920033
 20
-158.4048013926905
 30
0.0
 10
143.7924288920033
 20
-158.4048013926905
 30
0.0
 10
145.1895873660464
 20
-158.5105658240876
 30
0.0
 10
145.1895873660464
 20
-158.5105658240876
 30
0.0
 10
145.1895873660464
 20
-158.5105658240876
 30
0.0
 10
145.4434909033093
 20
-159.0183728986135
 30
0.0
 10
145.4434909033093
 20
-159.0183728986135
 30
0.0
 10
145.5704426719407
 20
-159.314651110345
 30
0.0
 10
145.6763793581122
 20
-159.5688991571564
 30
0.0
 10
145.6763793581122
 20
-159.5902587491649
 30
0.0
 10
145.6763793581122
 20
-159.611273831625
 30
0.0
 10
144.9566989112435
 20
-159.6746635885536
 30
0.0
 10
144.0676920212748
 20
-159.7383978550307
 30
0.0
 10
143.1998724685403
 20
-159.8017876119593
 30
0.0
 10
142.4166300099688
 20
-159.8865369608964
 30
0.0
 10
142.3532402530402
 20
-159.9712863098336
 30
0.0
 10
142.2896782413373
 20
-160.0346760667622
 30
0.0
 10
142.7552828961688
 20
-160.1194254156993
 30
0.0
 10
143.3691989116404
 20
-160.1828151726279
 30
0.0
 10
143.3691989116404
 20
-160.1828151726279
 30
0.0
 10
143.3691989116404
 20
-160.1828151726279
 30
0.0
 10
143.3691989116404
 20
-160.1828151726279
 30
0.0
 10
143.3691989116404
 20
-160.1828151726279
 30
0.0
 10
143.3691989116404
 20
-160.1828151726279
 30
0.0
 10
143.3691989116404
 20
-160.1828151726279
 30
0.0
  0
SPLINE
  5
8C
330
1F
100
AcDbEntity
  8
LAYER_1
 62
   250
100
AcDbSpline
210
0.0
220
0.0
230
1.0
 70
    11
 71
     3
 72
    77
 73
    73
 74
     0
 42
0.0000000001
 43
0.0000000001
 40
0.0
 40
0.0
 40
0.0
 40
0.0
 40
1.0
 40
1.0
 40
1.0
 40
2.0
 40
2.0
 40
2.0
 40
3.0
 40
3.0
 40
3.0
 40
4.0
 40
4.0
 40
4.0
 40
5.0
 40
5.0
 40
5.0
 40
6.0
 40
6.0
 40
6.0
 40
7.0
 40
7.0
 40
7.0
 40
8.0
 40
8.0
 40
8.0
 40
9.0
 40
9.0
 40
9.0
 40
10.0
 40
10.0
 40
10.0
 40
11.0
 40
11.0
 40
11.0
 40
12.0
 40
12.0
 40
12.0
 40
13.0
 40
13.0
 40
13.0
 40
14.0
 40
14.0
 40
14.0
 40
15.0
 40
15.0
 40
15.0
 40
16.0
 40
16.0
 40
16.0
 40
17.0
 40
17.0
 40
17.0
 40
18.0
 40
18.0
 40
18.0
 40
19.0
 40
19.0
 40
19.0
 40
20.0
 40
20.0
 40
20.0
 40
21.0
 40
21.0
 40
21.0
 40
22.0
 40
22.0
 40
22.0
 40
23.0
 40
23.0
 40
23.0
 40
24.0
 40
24.0
 40
24.0
 40
24.0
 10
143.1998724685403
 20
-161.9818440350254
 30
0.0
 10
143.8559909037062
 20
-162.024218709494
 30
0.0
 10
146.9674288912096
 20
-162.0665933839625
 30
0.0
 10
150.1214138079558
 20
-162.0665933839625
 30
0.0
 10
150.1214138079558
 20
-162.0665933839625
 30
0.0
 10
155.8574977908967
 20
-162.0665933839625
 30
0.0
 10
155.8574977908967
 20
-162.0665933839625
 30
0.0
 10
155.8574977908967
 20
-162.0665933839625
 30
0.0
 10
155.8574977908967
 20
-156.0976209462187
 30
0.0
 10
155.8574977908967
 20
-156.0976209462187
 30
0.0
 10
155.8574977908967
 20
-156.0976209462187
 30
0.0
 10
148.0893242359811
 20
-156.0976209462187
 30
0.0
 10
148.0893242359811
 20
-156.0976209462187
 30
0.0
 10
148.0893242359811
 20
-156.0976209462187
 30
0.0
 10
147.7294840125468
 20
-156.7962863106273
 30
0.0
 10
147.7294840125468
 20
-156.7962863106273
 30
0.0
 10
147.7294840125468
 20
-156.7962863106273
 30
0.0
 10
147.3696437891124
 20
-157.5156222479475
 30
0.0
 10
147.3696437891124
 20
-157.5156222479475
 30
0.0
 10
147.3696437891124
 20
-157.5156222479475
 30
0.0
 10
147.0098035656781
 20
-156.7962863106273
 30
0.0
 10
147.0098035656781
 20
-156.7962863106273
 30
0.0
 10
147.0098035656781
 20
-156.7962863106273
 30
0.0
 10
146.671150679478
 20
-156.0976209462187
 30
0.0
 10
146.671150679478
 20
-156.0976209462187
 30
0.0
 10
146.671150679478
 20
-156.0976209462187
 30
0.0
 10
145.1684000288121
 20
-156.0976209462187
 30
0.0
 10
145.1684000288121
 20
-156.0976209462187
 30
0.0
 10
144.342782895772
 20
-156.1189805382272
 30
0.0
 10
143.2844495627032
 20
-156.1610107031472
 30
0.0
 10
142.840032245106
 20
-156.2244004600759
 30
0.0
 10
142.0356024493001
 20
-156.3305094010215
 30
0.0
 10
142.0356024493001
 20
-156.3305094010215
 30
0.0
 10
142.5437540333745
 20
-156.4362738324187
 30
0.0
 10
142.8188449078717
 20
-156.4996635893473
 30
0.0
 10
143.8136162292376
 20
-156.5844129382845
 30
0.0
 10
144.7026231192063
 20
-156.6481472047616
 30
0.0
 10
144.7026231192063
 20
-156.6481472047616
 30
0.0
 10
146.3536851305123
 20
-156.7535671266102
 30
0.0
 10
146.3536851305123
 20
-156.7535671266102
 30
0.0
 10
146.3536851305123
 20
-156.7535671266102
 30
0.0
 10
146.7981024481095
 20
-157.6217311888932
 30
0.0
 10
146.7981024481095
 20
-157.6217311888932
 30
0.0
 10
147.0521782401467
 20
-158.0871635889504
 30
0.0
 10
147.3062540321839
 20
-158.5105658240876
 30
0.0
 10
147.3696437891124
 20
-158.5739555810162
 30
0.0
 10
147.412018463581
 20
-158.6163302554848
 30
0.0
 10
147.6871093380782
 20
-158.2142876123561
 30
0.0
 10
147.9411851301154
 20
-157.6851209458218
 30
0.0
 10
147.9411851301154
 20
-157.6851209458218
 30
0.0
 10
148.4491644594155
 20
-156.6901773696816
 30
0.0
 10
148.4491644594155
 20
-156.6901773696816
 30
0.0
 10
148.4491644594155
 20
-156.6901773696816
 30
0.0
 10
155.2649413674338
 20
-156.6901773696816
 30
0.0
 10
155.2649413674338
 20
-156.6901773696816
 30
0.0
 10
155.2649413674338
 20
-156.6901773696816
 30
0.0
 10
155.2649413674338
 20
-161.452677368491
 30
0.0
 10
155.2649413674338
 20
-161.452677368491
 30
0.0
 10
155.2649413674338
 20
-161.452677368491
 30
0.0
 10
149.0207058004185
 20
-161.5160671254196
 30
0.0
 10
149.0207058004185
 20
-161.5160671254196
 30
0.0
 10
145.2317897857407
 20
-161.5374267174282
 30
0.0
 10
142.6283311275374
 20
-161.6221760663653
 30
0.0
 10
142.3954426727345
 20
-161.7279404977625
 30
0.0
 10
142.099164461003
 20
-161.8550645211682
 30
0.0
 10
142.2261162296344
 20
-161.8970946860882
 30
0.0
 10
143.1998724685403
 20
-161.9818440350254
 30
0.0
 10
143.1998724685403
 20
-161.9818440350254
 30
0.0
 10
143.1998724685403
 20
-161.9818440350254
 30
0.0
 10
143.1998724685403
 20
-161.9818440350254
 30
0.0
 10
143.1998724685403
 20
-161.9818440350254
 30
0.0
 10
143.1998724685403
 20
-161.9818440350254
 30
0.0
 10
143.1998724685403
 20
-161.9818440350254
 30
0.0
  0
SPLINE
  5
8D
330
1F
100
AcDbEntity
  8
LAYER_1
 62
   250
100
AcDbSpline
210
0.0
220
0.0
230
1.0
 70
    11
 71
     3
 72
    41
 73
    37
 74
     0
 42
0.0000000001
 43
0.0000000001
 40
0.0
 40
0.0
 40
0.0
 40
0.0
 40
1.0
 40
1.0
 40
1.0
 40
2.0
 40
2.0
 40
2.0
 40
3.0
 40
3.0
 40
3.0
 40
4.0
 40
4.0
 40
4.0
 40
5.0
 40
5.0
 40
5.0
 40
6.0
 40
6.0
 40
6.0
 40
7.0
 40
7.0
 40
7.0
 40
8.0
 40
8.0
 40
8.0
 40
9.0
 40
9.0
 40
9.0
 40
10.0
 40
10.0
 40
10.0
 40
11.0
 40
11.0
 40
11.0
 40
12.0
 40
12.0
 40
12.0
 40
12.0
 10
143.0729206999088
 20
-85.37980141094673
 30
0.0
 10
143.8348035664719
 20
-85.44319116787531
 30
0.0
 10
144.9355115740092
 20
-85.6972669599125
 30
0.0
 10
146.1207966757094
 20
-86.12049694027543
 30
0.0
 10
146.1207966757094
 20
-86.12049694027543
 30
0.0
 10
148.0047471418183
 20
-86.73441295574696
 30
0.0
 10
148.0047471418183
 20
-86.73441295574696
 30
0.0
 10
148.0047471418183
 20
-86.73441295574696
 30
0.0
 10
145.7609564522751
 20
-86.84017738714412
 30
0.0
 10
145.7609564522751
 20
-86.84017738714412
 30
0.0
 10
144.5332966761063
 20
-86.8825520616127
 30
0.0
 10
143.2844495627032
 20
-86.94611407331556
 30
0.0
 10
142.9881713509717
 20
-86.94611407331556
 30
0.0
 10
142.5859564530688
 20
-86.96730141054985
 30
0.0
 10
142.5225666961402
 20
-87.00950383024416
 30
0.0
 10
142.670705802006
 20
-87.1576429361099
 30
0.0
 10
142.7764702334031
 20
-87.28476695951562
 30
0.0
 10
143.9829426723376
 20
-87.34815671644421
 30
0.0
 10
146.7770873656495
 20
-87.39053139091278
 30
0.0
 10
148.9359564514813
 20
-87.43290606538136
 30
0.0
 10
150.8621093372845
 20
-87.43290606538136
 30
0.0
 10
151.0739827096274
 20
-87.39053139091278
 30
0.0
 10
151.3065266548817
 20
-87.34815671644421
 30
0.0
 10
150.2271782393529
 20
-86.92492673608128
 30
0.0
 10
147.9199977928811
 20
-86.162871614744
 30
0.0
 10
144.3005804760776
 20
-84.93521183857523
 30
0.0
 10
143.9829426723376
 20
-84.87164982687237
 30
0.0
 10
142.4590046844373
 20
-85.14691295614384
 30
0.0
 10
141.9086506806687
 20
-85.252677387541
 30
0.0
 10
141.9722126923715
 20
-85.2738647247753
 30
0.0
 10
143.0729206999088
 20
-85.37980141094673
 30
0.0
 10
143.0729206999088
 20
-85.37980141094673
 30
0.0
 10
143.0729206999088
 20
-85.37980141094673
 30
0.0
 10
143.0729206999088
 20
-85.37980141094673
 30
0.0
 10
143.0729206999088
 20
-85.37980141094673
 30
0.0
 10
143.0729206999088
 20
-85.37980141094673
 30
0.0
 10
143.0729206999088
 20
-85.37980141094673
 30
0.0
  0
SPLINE
  5
8E
330
1F
100
AcDbEntity
  8
LAYER_1
 62
   250
100
AcDbSpline
210
0.0
220
0.0
230
1.0
 70
    11
 71
     3
 72
    65
 73
    61
 74
     0
 42
0.0000000001
 43
0.0000000001
 40
0.0
 40
0.0
 40
0.0
 40
0.0
 40
1.0
 40
1.0
 40
1.0
 40
2.0
 40
2.0
 40
2.0
 40
3.0
 40
3.0
 40
3.0
 40
4.0
 40
4.0
 40
4.0
 40
5.0
 40
5.0
 40
5.0
 40
6.0
 40
6.0
 40
6.0
 40
7.0
 40
7.0
 40
7.0
 40
8.0
 40
8.0
 40
8.0
 40
9.0
 40
9.0
 40
9.0
 40
10.0
 40
10.0
 40
10.0
 40
11.0
 40
11.0
 40
11.0
 40
12.0
 40
12.0
 40
12.0
 40
13.0
 40
13.0
 40
13.0
 40
14.0
 40
14.0
 40
14.0
 40
15.0
 40
15.0
 40
15.0
 40
16.0
 40
16.0
 40
16.0
 40
17.0
 40
17.0
 40
17.0
 40
18.0
 40
18.0
 40
18.0
 40
19.0
 40
19.0
 40
19.0
 40
20.0
 40
20.0
 40
20.0
 40
20.0
 10
142.099164461003
 20
-91.22164982528487
 30
0.0
 10
142.2896782413373
 20
-91.28521183698773
 30
0.0
 10
145.3377264719121
 20
-91.36996118592488
 30
0.0
 10
148.8513793573184
 20
-91.41216360561918
 30
0.0
 10
148.8513793573184
 20
-91.41216360561918
 30
0.0
 10
155.2649413674338
 20
-91.49691295455634
 30
0.0
 10
155.2649413674338
 20
-91.49691295455634
 30
0.0
 10
155.2649413674338
 20
-91.49691295455634
 30
0.0
 10
155.2649413674338
 20
-92.66101071902226
 30
0.0
 10
155.2649413674338
 20
-92.66101071902226
 30
0.0
 10
155.2649413674338
 20
-92.66101071902226
 30
0.0
 10
147.9199977928811
 20
-92.66101071902226
 30
0.0
 10
147.9199977928811
 20
-92.66101071902226
 30
0.0
 10
147.9199977928811
 20
-92.66101071902226
 30
0.0
 10
147.9199977928811
 20
-95.05294051443121
 30
0.0
 10
147.9199977928811
 20
-95.05294051443121
 30
0.0
 10
147.9199977928811
 20
-95.05294051443121
 30
0.0
 10
155.2649413674338
 20
-95.05294051443121
 30
0.0
 10
155.2649413674338
 20
-95.05294051443121
 30
0.0
 10
155.2649413674338
 20
-95.05294051443121
 30
0.0
 10
155.2649413674338
 20
-96.21703827889714
 30
0.0
 10
155.2649413674338
 20
-96.21703827889714
 30
0.0
 10
155.2649413674338
 20
-96.21703827889714
 30
0.0
 10
149.084095557347
 20
-96.28060029059999
 30
0.0
 10
149.084095557347
 20
-96.28060029059999
 30
0.0
 10
145.6551920208779
 20
-96.32297496506857
 30
0.0
 10
142.7130804764745
 20
-96.40755205923145
 30
0.0
 10
142.4590046844373
 20
-96.4923014081686
 30
0.0
 10
141.7181369003344
 20
-96.74620494543151
 30
0.0
 10
143.9619275898776
 20
-96.83095429436865
 30
0.0
 10
150.2061631568929
 20
-96.85214163160295
 30
0.0
 10
150.2061631568929
 20
-96.85214163160295
 30
0.0
 10
155.8574977908967
 20
-96.85214163160295
 30
0.0
 10
155.8574977908967
 20
-96.85214163160295
 30
0.0
 10
155.8574977908967
 20
-96.85214163160295
 30
0.0
 10
155.8574977908967
 20
-94.4390244989597
 30
0.0
 10
155.8574977908967
 20
-94.4390244989597
 30
0.0
 10
155.8574977908967
 20
-94.4390244989597
 30
0.0
 10
148.5339138083527
 20
-94.4390244989597
 30
0.0
 10
148.5339138083527
 20
-94.4390244989597
 30
0.0
 10
148.5339138083527
 20
-94.4390244989597
 30
0.0
 10
148.5339138083527
 20
-93.25373939725948
 30
0.0
 10
148.5339138083527
 20
-93.25373939725948
 30
0.0
 10
148.5339138083527
 20
-93.25373939725948
 30
0.0
 10
155.8574977908967
 20
-93.25373939725948
 30
0.0
 10
155.8574977908967
 20
-93.25373939725948
 30
0.0
 10
155.8574977908967
 20
-93.25373939725948
 30
0.0
 10
155.8574977908967
 20
-90.86180960185052
 30
0.0
 10
155.8574977908967
 20
-90.86180960185052
 30
0.0
 10
155.8574977908967
 20
-90.86180960185052
 30
0.0
 10
149.6132622238814
 20
-90.8829969390848
 30
0.0
 10
149.6132622238814
 20
-90.8829969390848
 30
0.0
 10
143.1998724685403
 20
-90.8829969390848
 30
0.0
 10
141.3794840141343
 20
-90.96774628802196
 30
0.0
 10
142.099164461003
 20
-91.22164982528487
 30
0.0
 10
142.099164461003
 20
-91.22164982528487
 30
0.0
 10
142.099164461003
 20
-91.22164982528487
 30
0.0
 10
142.099164461003
 20
-91.22164982528487
 30
0.0
 10
142.099164461003
 20
-91.22164982528487
 30
0.0
 10
142.099164461003
 20
-91.22164982528487
 30
0.0
 10
142.099164461003
 20
-91.22164982528487
 30
0.0
  0
SPLINE
  5
8F
330
1F
100
AcDbEntity
  8
LAYER_1
 62
   250
100
AcDbSpline
210
0.0
220
0.0
230
1.0
 70
    11
 71
     3
 72
    89
 73
    85
 74
     0
 42
0.0000000001
 43
0.0000000001
 40
0.0
 40
0.0
 40
0.0
 40
0.0
 40
1.0
 40
1.0
 40
1.0
 40
2.0
 40
2.0
 40
2.0
 40
3.0
 40
3.0
 40
3.0
 40
4.0
 40
4.0
 40
4.0
 40
5.0
 40
5.0
 40
5.0
 40
6.0
 40
6.0
 40
6.0
 40
7.0
 40
7.0
 40
7.0
 40
8.0
 40
8.0
 40
8.0
 40
9.0
 40
9.0
 40
9.0
 40
10.0
 40
10.0
 40
10.0
 40
11.0
 40
11.0
 40
11.0
 40
12.0
 40
12.0
 40
12.0
 40
13.0
 40
13.0
 40
13.0
 40
14.0
 40
14.0
 40
14.0
 40
15.0
 40
15.0
 40
15.0
 40
16.0
 40
16.0
 40
16.0
 40
17.0
 40
17.0
 40
17.0
 40
18.0
 40
18.0
 40
18.0
 40
19.0
 40
19.0
 40
19.0
 40
20.0
 40
20.0
 40
20.0
 40
21.0
 40
21.0
 40
21.0
 40
22.0
 40
22.0
 40
22.0
 40
23.0
 40
23.0
 40
23.0
 40
24.0
 40
24.0
 40
24.0
 40
25.0
 40
25.0
 40
25.0
 40
26.0
 40
26.0
 40
26.0
 40
27.0
 40
27.0
 40
27.0
 40
28.0
 40
28.0
 40
28.0
 40
28.0
 10
141.5699977944686
 20
-55.30187851265023
 30
0.0
 10
141.8240735865058
 20
-55.36544052435309
 30
0.0
 10
143.750226472309
 20
-55.45001761851597
 30
0.0
 10
145.8668931384465
 20
-55.51357963021883
 30
0.0
 10
145.8668931384465
 20
-55.51357963021883
 30
0.0
 10
149.7190266552786
 20
-55.59815672438172
 30
0.0
 10
149.7190266552786
 20
-55.59815672438172
 30
0.0
 10
149.7190266552786
 20
-55.59815672438172
 30
0.0
 10
149.7190266552786
 20
-56.74123940638761
 30
0.0
 10
149.7190266552786
 20
-56.74123940638761
 30
0.0
 10
149.7190266552786
 20
-56.74123940638761
 30
0.0
 10
146.1207966757094
 20
-56.74123940638761
 30
0.0
 10
146.1207966757094
 20
-56.74123940638761
 30
0.0
 10
146.1207966757094
 20
-56.74123940638761
 30
0.0
 10
146.1207966757094
 20
-59.13299694702231
 30
0.0
 10
146.1207966757094
 20
-59.13299694702231
 30
0.0
 10
146.1207966757094
 20
-59.13299694702231
 30
0.0
 10
154.0584689284993
 20
-59.13299694702231
 30
0.0
 10
154.0584689284993
 20
-59.13299694702231
 30
0.0
 10
154.0584689284993
 20
-59.13299694702231
 30
0.0
 10
154.0584689284993
 20
-56.74123940638761
 30
0.0
 10
154.0584689284993
 20
-56.74123940638761
 30
0.0
 10
154.0584689284993
 20
-56.74123940638761
 30
0.0
 10
152.2590955565533
 20
-56.74123940638761
 30
0.0
 10
152.2590955565533
 20
-56.74123940638761
 30
0.0
 10
152.2590955565533
 20
-56.74123940638761
 30
0.0
 10
152.2590955565533
 20
-55.5559543046874
 30
0.0
 10
152.2590955565533
 20
-55.5559543046874
 30
0.0
 10
152.2590955565533
 20
-55.5559543046874
 30
0.0
 10
155.2649413674338
 20
-55.5559543046874
 30
0.0
 10
155.2649413674338
 20
-55.5559543046874
 30
0.0
 10
155.2649413674338
 20
-55.5559543046874
 30
0.0
 10
155.2649413674338
 20
-60.31845430349678
 30
0.0
 10
155.2649413674338
 20
-60.31845430349678
 30
0.0
 10
155.2649413674338
 20
-60.31845430349678
 30
0.0
 10
149.1688449062842
 20
-60.38184406042537
 30
0.0
 10
149.1688449062842
 20
-60.38184406042537
 30
0.0
 10
145.4434909033093
 20
-60.40303139765966
 30
0.0
 10
142.9246093392688
 20
-60.4877807465968
 30
0.0
 10
142.6918931392402
 20
-60.59354517799398
 30
0.0
 10
142.099164461003
 20
-60.84762097003115
 30
0.0
 10
144.1312540329776
 20
-60.93219806419404
 30
0.0
 10
150.2695529138215
 20
-60.93219806419404
 30
0.0
 10
150.2695529138215
 20
-60.93219806419404
 30
0.0
 10
155.8574977908967
 20
-60.93219806419404
 30
0.0
 10
155.8574977908967
 20
-60.93219806419404
 30
0.0
 10
155.8574977908967
 20
-60.93219806419404
 30
0.0
 10
155.8574977908967
 20
-54.96322562645017
 30
0.0
 10
155.8574977908967
 20
-54.96322562645017
 30
0.0
 10
155.8574977908967
 20
-54.96322562645017
 30
0.0
 10
151.6665391330903
 20
-54.96322562645017
 30
0.0
 10
151.6665391330903
 20
-54.96322562645017
 30
0.0
 10
151.6665391330903
 20
-54.96322562645017
 30
0.0
 10
151.6665391330903
 20
-57.35498316708487
 30
0.0
 10
151.6665391330903
 20
-57.35498316708487
 30
0.0
 10
151.6665391330903
 20
-57.35498316708487
 30
0.0
 10
153.4655679954878
 20
-57.35498316708487
 30
0.0
 10
153.4655679954878
 20
-57.35498316708487
 30
0.0
 10
153.4655679954878
 20
-57.35498316708487
 30
0.0
 10
153.4655679954878
 20
-58.54044052355934
 30
0.0
 10
153.4655679954878
 20
-58.54044052355934
 30
0.0
 10
153.4655679954878
 20
-58.54044052355934
 30
0.0
 10
146.7347126911809
 20
-58.54044052355934
 30
0.0
 10
146.7347126911809
 20
-58.54044052355934
 30
0.0
 10
146.7347126911809
 20
-58.54044052355934
 30
0.0
 10
146.7347126911809
 20
-57.35498316708487
 30
0.0
 10
146.7347126911809
 20
-57.35498316708487
 30
0.0
 10
146.7347126911809
 20
-57.35498316708487
 30
0.0
 10
150.3119275882901
 20
-57.35498316708487
 30
0.0
 10
150.3119275882901
 20
-57.35498316708487
 30
0.0
 10
150.3119275882901
 20
-57.35498316708487
 30
0.0
 10
150.3119275882901
 20
-54.96322562645017
 30
0.0
 10
150.3119275882901
 20
-54.96322562645017
 30
0.0
 10
150.3119275882901
 20
-54.96322562645017
 30
0.0
 10
146.5441989108466
 20
-54.96322562645017
 30
0.0
 10
146.5441989108466
 20
-54.96322562645017
 30
0.0
 10
144.4699069191777
 20
-54.98441296368446
 30
0.0
 10
142.3954426727345
 20
-55.02678763815302
 30
0.0
 10
141.9510253551373
 20
-55.09017739508162
 30
0.0
 10
141.1889702338
 20
-55.17492674401877
 30
0.0
 10
141.1677828965657
 20
-55.19611408125306
 30
0.0
 10
141.5699977944686
 20
-55.30187851265023
 30
0.0
 10
141.5699977944686
 20
-55.30187851265023
 30
0.0
 10
141.5699977944686
 20
-55.30187851265023
 30
0.0
 10
141.5699977944686
 20
-55.30187851265023
 30
0.0
  0
SPLINE
  5
90
330
1F
100
AcDbEntity
  8
LAYER_1
 62
   250
100
AcDbSpline
210
0.0
220
0.0
230
1.0
 70
    11
 71
     3
 72
    56
 73
    52
 74
     0
 42
0.0000000001
 43
0.0000000001
 40
0.0
 40
0.0
 40
0.0
 40
0.0
 40
1.0
 40
1.0
 40
1.0
 40
2.0
 40
2.0
 40
2.0
 40
3.0
 40
3.0
 40
3.0
 40
4.0
 40
4.0
 40
4.0
 40
5.0
 40
5.0
 40
5.0
 40
6.0
 40
6.0
 40
6.0
 40
7.0
 40
7.0
 40
7.0
 40
8.0
 40
8.0
 40
8.0
 40
9.0
 40
9.0
 40
9.0
 40
10.0
 40
10.0
 40
10.0
 40
11.0
 40
11.0
 40
11.0
 40
12.0
 40
12.0
 40
12.0
 40
13.0
 40
13.0
 40
13.0
 40
14.0
 40
14.0
 40
14.0
 40
15.0
 40
15.0
 40
15.0
 40
16.0
 40
16.0
 40
16.0
 40
17.0
 40
17.0
 40
17.0
 40
17.0
 10
142.1627264727059
 20
-73.84389917858763
 30
0.0
 10
142.7976575706374
 20
-73.9074611902905
 30
0.0
 10
146.1419840129437
 20
-73.94966360998481
 30
0.0
 10
149.5922471414214
 20
-73.94966360998481
 30
0.0
 10
149.5922471414214
 20
-73.94966360998481
 30
0.0
 10
155.8574977908967
 20
-73.94966360998481
 30
0.0
 10
155.8574977908967
 20
-73.94966360998481
 30
0.0
 10
155.8574977908967
 20
-73.94966360998481
 30
0.0
 10
155.8574977908967
 20
-71.55790606935011
 30
0.0
 10
155.8574977908967
 20
-71.55790606935011
 30
0.0
 10
155.8574977908967
 20
-71.55790606935011
 30
0.0
 10
146.7347126911809
 20
-71.55790606935011
 30
0.0
 10
146.7347126911809
 20
-71.55790606935011
 30
0.0
 10
146.7347126911809
 20
-71.55790606935011
 30
0.0
 10
146.7347126911809
 20
-69.75870495217838
 30
0.0
 10
146.7347126911809
 20
-69.75870495217838
 30
0.0
 10
146.7347126911809
 20
-69.75870495217838
 30
0.0
 10
145.6551920208779
 20
-69.75870495217838
 30
0.0
 10
145.6551920208779
 20
-69.75870495217838
 30
0.0
 10
144.1312540329776
 20
-69.75870495217838
 30
0.0
 10
142.5013793589059
 20
-69.92803139527841
 30
0.0
 10
142.6495184647717
 20
-70.07617050114416
 30
0.0
 10
142.7130804764745
 20
-70.13973251284702
 30
0.0
 10
143.5173380175061
 20
-70.24549694424418
 30
0.0
 10
144.4487195819434
 20
-70.30905895594704
 30
0.0
 10
144.4487195819434
 20
-70.30905895594704
 30
0.0
 10
146.1207966757094
 20
-70.41482338734421
 30
0.0
 10
146.1207966757094
 20
-70.41482338734421
 30
0.0
 10
146.1207966757094
 20
-70.41482338734421
 30
0.0
 10
146.1207966757094
 20
-72.15063474758735
 30
0.0
 10
146.1207966757094
 20
-72.15063474758735
 30
0.0
 10
146.1207966757094
 20
-72.15063474758735
 30
0.0
 10
155.2649413674338
 20
-72.15063474758735
 30
0.0
 10
155.2649413674338
 20
-72.15063474758735
 30
0.0
 10
155.2649413674338
 20
-72.15063474758735
 30
0.0
 10
155.2649413674338
 20
-73.33591984928755
 30
0.0
 10
155.2649413674338
 20
-73.33591984928755
 30
0.0
 10
155.2649413674338
 20
-73.33591984928755
 30
0.0
 10
148.4915391338841
 20
-73.37829452375613
 30
0.0
 10
148.4915391338841
 20
-73.37829452375613
 30
0.0
 10
144.3215955585377
 20
-73.42049694345043
 30
0.0
 10
141.5699977944686
 20
-73.50524629238758
 30
0.0
 10
141.3582966769
 20
-73.61101072378474
 30
0.0
 10
141.0408311279342
 20
-73.73813474719047
 30
0.0
 10
141.1677828965657
 20
-73.78033716688478
 30
0.0
 10
142.1627264727059
 20
-73.84389917858763
 30
0.0
 10
142.1627264727059
 20
-73.84389917858763
 30
0.0
 10
142.1627264727059
 20
-73.84389917858763
 30
0.0
 10
142.1627264727059
 20
-73.84389917858763
 30
0.0
 10
142.1627264727059
 20
-73.84389917858763
 30
0.0
 10
142.1627264727059
 20
-73.84389917858763
 30
0.0
 10
142.1627264727059
 20
-73.84389917858763
 30
0.0
  0
SPLINE
  5
91
330
1F
100
AcDbEntity
  8
LAYER_1
 62
   250
100
AcDbSpline
210
0.0
220
0.0
230
1.0
 70
    11
 71
     3
 72
    92
 73
    88
 74
     0
 42
0.0000000001
 43
0.0000000001
 40
0.0
 40
0.0
 40
0.0
 40
0.0
 40
1.0
 40
1.0
 40
1.0
 40
2.0
 40
2.0
 40
2.0
 40
3.0
 40
3.0
 40
3.0
 40
4.0
 40
4.0
 40
4.0
 40
5.0
 40
5.0
 40
5.0
 40
6.0
 40
6.0
 40
6.0
 40
7.0
 40
7.0
 40
7.0
 40
8.0
 40
8.0
 40
8.0
 40
9.0
 40
9.0
 40
9.0
 40
10.0
 40
10.0
 40
10.0
 40
11.0
 40
11.0
 40
11.0
 40
12.0
 40
12.0
 40
12.0
 40
13.0
 40
13.0
 40
13.0
 40
14.0
 40
14.0
 40
14.0
 40
15.0
 40
15.0
 40
15.0
 40
16.0
 40
16.0
 40
16.0
 40
17.0
 40
17.0
 40
17.0
 40
18.0
 40
18.0
 40
18.0
 40
19.0
 40
19.0
 40
19.0
 40
20.0
 40
20.0
 40
20.0
 40
21.0
 40
21.0
 40
21.0
 40
22.0
 40
22.0
 40
22.0
 40
23.0
 40
23.0
 40
23.0
 40
24.0
 40
24.0
 40
24.0
 40
25.0
 40
25.0
 40
25.0
 40
26.0
 40
26.0
 40
26.0
 40
27.0
 40
27.0
 40
27.0
 40
28.0
 40
28.0
 40
28.0
 40
29.0
 40
29.0
 40
29.0
 40
29.0
 10
141.4218586886029
 20
-98.67235783123469
 30
0.0
 10
141.6757622258658
 20
-98.73591984293755
 30
0.0
 10
143.2210598057746
 20
-98.84168427433472
 30
0.0
 10
144.8931368995406
 20
-98.8840589488033
 30
0.0
 10
144.8931368995406
 20
-98.8840589488033
 30
0.0
 10
147.9199977928811
 20
-98.98982338020046
 30
0.0
 10
147.9199977928811
 20
-98.98982338020046
 30
0.0
 10
147.9199977928811
 20
-98.98982338020046
 30
0.0
 10
147.9199977928811
 20
-100.1329060622064
 30
0.0
 10
147.9199977928811
 20
-100.1329060622064
 30
0.0
 10
147.9199977928811
 20
-100.1329060622064
 30
0.0
 10
146.1207966757094
 20
-100.1329060622064
 30
0.0
 10
146.1207966757094
 20
-100.1329060622064
 30
0.0
 10
146.1207966757094
 20
-100.1329060622064
 30
0.0
 10
146.1207966757094
 20
-102.5246636028411
 30
0.0
 10
146.1207966757094
 20
-102.5246636028411
 30
0.0
 10
146.1207966757094
 20
-102.5246636028411
 30
0.0
 10
154.0584689284993
 20
-102.5246636028411
 30
0.0
 10
154.0584689284993
 20
-102.5246636028411
 30
0.0
 10
154.0584689284993
 20
-102.5246636028411
 30
0.0
 10
154.0584689284993
 20
-100.1329060622064
 30
0.0
 10
154.0584689284993
 20
-100.1329060622064
 30
0.0
 10
154.0584689284993
 20
-100.1329060622064
 30
0.0
 10
152.2590955565533
 20
-100.1329060622064
 30
0.0
 10
152.2590955565533
 20
-100.1329060622064
 30
0.0
 10
152.2590955565533
 20
-100.1329060622064
 30
0.0
 10
152.2590955565533
 20
-98.94762096050616
 30
0.0
 10
152.2590955565533
 20
-98.94762096050616
 30
0.0
 10
152.2590955565533
 20
-98.94762096050616
 30
0.0
 10
155.2649413674338
 20
-98.94762096050616
 30
0.0
 10
155.2649413674338
 20
-98.94762096050616
 30
0.0
 10
155.2649413674338
 20
-98.94762096050616
 30
0.0
 10
155.2649413674338
 20
-103.6889336220812
 30
0.0
 10
155.2649413674338
 20
-103.6889336220812
 30
0.0
 10
155.2649413674338
 20
-103.6889336220812
 30
0.0
 10
149.084095557347
 20
-103.7523233790098
 30
0.0
 10
149.084095557347
 20
-103.7523233790098
 30
0.0
 10
145.3589138091464
 20
-103.7946980534784
 30
0.0
 10
142.7764702334031
 20
-103.8794474024156
 30
0.0
 10
142.5437540333745
 20
-103.9640244965784
 30
0.0
 10
141.9510253551373
 20
-104.2392876258499
 30
0.0
 10
144.0041300095719
 20
-104.3238647200128
 30
0.0
 10
150.1848035648844
 20
-104.3238647200128
 30
0.0
 10
150.1848035648844
 20
-104.3238647200128
 30
0.0
 10
155.8574977908967
 20
-104.3238647200128
 30
0.0
 10
155.8574977908967
 20
-104.3238647200128
 30
0.0
 10
155.8574977908967
 20
-104.3238647200128
 30
0.0
 10
155.8574977908967
 20
-98.33370494503464
 30
0.0
 10
155.8574977908967
 20
-98.33370494503464
 30
0.0
 10
155.8574977908967
 20
-98.33370494503464
 30
0.0
 10
151.6665391330903
 20
-98.33370494503464
 30
0.0
 10
151.6665391330903
 20
-98.33370494503464
 30
0.0
 10
151.6665391330903
 20
-98.33370494503464
 30
0.0
 10
151.6665391330903
 20
-100.7256347404436
 30
0.0
 10
151.6665391330903
 20
-100.7256347404436
 30
0.0
 10
151.6665391330903
 20
-100.7256347404436
 30
0.0
 10
153.4655679954878
 20
-100.7256347404436
 30
0.0
 10
153.4655679954878
 20
-100.7256347404436
 30
0.0
 10
153.4655679954878
 20
-100.7256347404436
 30
0.0
 10
153.4655679954878
 20
-101.9321071793781
 30
0.0
 10
153.4655679954878
 20
-101.9321071793781
 30
0.0
 10
153.4655679954878
 20
-101.9321071793781
 30
0.0
 10
146.7347126911809
 20
-101.9321071793781
 30
0.0
 10
146.7347126911809
 20
-101.9321071793781
 30
0.0
 10
146.7347126911809
 20
-101.9321071793781
 30
0.0
 10
146.7347126911809
 20
-100.7256347404436
 30
0.0
 10
146.7347126911809
 20
-100.7256347404436
 30
0.0
 10
146.7347126911809
 20
-100.7256347404436
 30
0.0
 10
148.5339138083527
 20
-100.7256347404436
 30
0.0
 10
148.5339138083527
 20
-100.7256347404436
 30
0.0
 10
148.5339138083527
 20
-100.7256347404436
 30
0.0
 10
148.5339138083527
 20
-98.33370494503464
 30
0.0
 10
148.5339138083527
 20
-98.33370494503464
 30
0.0
 10
148.5339138083527
 20
-98.33370494503464
 30
0.0
 10
145.5704426719407
 20
-98.35489228226892
 30
0.0
 10
145.5704426719407
 20
-98.35489228226892
 30
0.0
 10
143.9407402526433
 20
-98.35489228226892
 30
0.0
 10
142.2473035668687
 20
-98.41845429397178
 30
0.0
 10
141.8028862492715
 20
-98.4606567136661
 30
0.0
 10
141.0408311279342
 20
-98.56659339983753
 30
0.0
 10
141.0196437906999
 20
-98.58778073707181
 30
0.0
 10
141.4218586886029
 20
-98.67235783123469
 30
0.0
 10
141.4218586886029
 20
-98.67235783123469
 30
0.0
 10
141.4218586886029
 20
-98.67235783123469
 30
0.0
 10
141.4218586886029
 20
-98.67235783123469
 30
0.0
 10
141.4218586886029
 20
-98.67235783123469
 30
0.0
 10
141.4218586886029
 20
-98.67235783123469
 30
0.0
 10
141.4218586886029
 20
-98.67235783123469
 30
0.0
  0
SPLINE
  5
92
330
1F
100
AcDbEntity
  8
LAYER_1
 62
   250
100
AcDbSpline
210
0.0
220
0.0
230
1.0
 70
    11
 71
     3
 72
    56
 73
    52
 74
     0
 42
0.0000000001
 43
0.0000000001
 40
0.0
 40
0.0
 40
0.0
 40
0.0
 40
1.0
 40
1.0
 40
1.0
 40
2.0
 40
2.0
 40
2.0
 40
3.0
 40
3.0
 40
3.0
 40
4.0
 40
4.0
 40
4.0
 40
5.0
 40
5.0
 40
5.0
 40
6.0
 40
6.0
 40
6.0
 40
7.0
 40
7.0
 40
7.0
 40
8.0
 40
8.0
 40
8.0
 40
9.0
 40
9.0
 40
9.0
 40
10.0
 40
10.0
 40
10.0
 40
11.0
 40
11.0
 40
11.0
 40
12.0
 40
12.0
 40
12.0
 40
13.0
 40
13.0
 40
13.0
 40
14.0
 40
14.0
 40
14.0
 40
15.0
 40
15.0
 40
15.0
 40
16.0
 40
16.0
 40
16.0
 40
17.0
 40
17.0
 40
17.0
 40
17.0
 10
142.1627264727059
 20
-131.7559542856374
 30
0.0
 10
142.7976575706374
 20
-131.7979844505575
 30
0.0
 10
146.1419840129437
 20
-131.8617187170346
 30
0.0
 10
149.5922471414214
 20
-131.8617187170346
 30
0.0
 10
149.5922471414214
 20
-131.8617187170346
 30
0.0
 10
155.8574977908967
 20
-131.8617187170346
 30
0.0
 10
155.8574977908967
 20
-131.8617187170346
 30
0.0
 10
155.8574977908967
 20
-131.8617187170346
 30
0.0
 10
155.8574977908967
 20
-129.4487738391656
 30
0.0
 10
155.8574977908967
 20
-129.4487738391656
 30
0.0
 10
155.8574977908967
 20
-129.4487738391656
 30
0.0
 10
146.7347126911809
 20
-129.4487738391656
 30
0.0
 10
146.7347126911809
 20
-129.4487738391656
 30
0.0
 10
146.7347126911809
 20
-129.4487738391656
 30
0.0
 10
146.7347126911809
 20
-127.6707600592281
 30
0.0
 10
146.7347126911809
 20
-127.6707600592281
 30
0.0
 10
146.7347126911809
 20
-127.6707600592281
 30
0.0
 10
145.6551920208779
 20
-127.6707600592281
 30
0.0
 10
145.6551920208779
 20
-127.6707600592281
 30
0.0
 10
144.1312540329776
 20
-127.6707600592281
 30
0.0
 10
142.5013793589059
 20
-127.8402587571024
 30
0.0
 10
142.6495184647717
 20
-127.9670382709596
 30
0.0
 10
142.7130804764745
 20
-128.0304280278882
 30
0.0
 10
143.5173380175061
 20
-128.1365369688339
 30
0.0
 10
144.4487195819434
 20
-128.1999267257625
 30
0.0
 10
144.4487195819434
 20
-128.1999267257625
 30
0.0
 10
146.1207966757094
 20
-128.3056911571597
 30
0.0
 10
146.1207966757094
 20
-128.3056911571597
 30
0.0
 10
146.1207966757094
 20
-128.3056911571597
 30
0.0
 10
146.1207966757094
 20
-130.0623453450886
 30
0.0
 10
146.1207966757094
 20
-130.0623453450886
 30
0.0
 10
146.1207966757094
 20
-130.0623453450886
 30
0.0
 10
155.2649413674338
 20
-130.0623453450886
 30
0.0
 10
155.2649413674338
 20
-130.0623453450886
 30
0.0
 10
155.2649413674338
 20
-130.0623453450886
 30
0.0
 10
155.2649413674338
 20
-131.226787619103
 30
0.0
 10
155.2649413674338
 20
-131.226787619103
 30
0.0
 10
155.2649413674338
 20
-131.226787619103
 30
0.0
 10
148.4915391338841
 20
-131.2901773760316
 30
0.0
 10
148.4915391338841
 20
-131.2901773760316
 30
0.0
 10
144.3215955585377
 20
-131.3325520505002
 30
0.0
 10
141.5699977944686
 20
-131.3962863169773
 30
0.0
 10
141.3582966769
 20
-131.501706238826
 30
0.0
 10
141.0408311279342
 20
-131.6288302622317
 30
0.0
 10
141.1677828965657
 20
-131.6712049367003
 30
0.0
 10
142.1627264727059
 20
-131.7559542856374
 30
0.0
 10
142.1627264727059
 20
-131.7559542856374
 30
0.0
 10
142.1627264727059
 20
-131.7559542856374
 30
0.0
 10
142.1627264727059
 20
-131.7559542856374
 30
0.0
 10
142.1627264727059
 20
-131.7559542856374
 30
0.0
 10
142.1627264727059
 20
-131.7559542856374
 30
0.0
 10
142.1627264727059
 20
-131.7559542856374
 30
0.0
  0
SPLINE
  5
93
330
1F
100
AcDbEntity
  8
LAYER_1
 62
   250
100
AcDbSpline
210
0.0
220
0.0
230
1.0
 70
    11
 71
     3
 72
    80
 73
    76
 74
     0
 42
0.0000000001
 43
0.0000000001
 40
0.0
 40
0.0
 40
0.0
 40
0.0
 40
1.0
 40
1.0
 40
1.0
 40
2.0
 40
2.0
 40
2.0
 40
3.0
 40
3.0
 40
3.0
 40
4.0
 40
4.0
 40
4.0
 40
5.0
 40
5.0
 40
5.0
 40
6.0
 40
6.0
 40
6.0
 40
7.0
 40
7.0
 40
7.0
 40
8.0
 40
8.0
 40
8.0
 40
9.0
 40
9.0
 40
9.0
 40
10.0
 40
10.0
 40
10.0
 40
11.0
 40
11.0
 40
11.0
 40
12.0
 40
12.0
 40
12.0
 40
13.0
 40
13.0
 40
13.0
 40
14.0
 40
14.0
 40
14.0
 40
15.0
 40
15.0
 40
15.0
 40
16.0
 40
16.0
 40
16.0
 40
17.0
 40
17.0
 40
17.0
 40
18.0
 40
18.0
 40
18.0
 40
19.0
 40
19.0
 40
19.0
 40
20.0
 40
20.0
 40
20.0
 40
21.0
 40
21.0
 40
21.0
 40
22.0
 40
22.0
 40
22.0
 40
23.0
 40
23.0
 40
23.0
 40
24.0
 40
24.0
 40
24.0
 40
25.0
 40
25.0
 40
25.0
 40
25.0
 10
142.1627264727059
 20
-146.8688991603314
 30
0.0
 10
142.7976575706374
 20
-146.9112738348
 30
0.0
 10
146.1419840129437
 20
-146.9536485092685
 30
0.0
 10
149.5922471414214
 20
-146.9536485092685
 30
0.0
 10
149.5922471414214
 20
-146.9536485092685
 30
0.0
 10
155.8574977908967
 20
-146.9536485092685
 30
0.0
 10
155.8574977908967
 20
-146.9536485092685
 30
0.0
 10
155.8574977908967
 20
-146.9536485092685
 30
0.0
 10
155.8574977908967
 20
-140.9846760715247
 30
0.0
 10
155.8574977908967
 20
-140.9846760715247
 30
0.0
 10
155.8574977908967
 20
-140.9846760715247
 30
0.0
 10
152.8730115720248
 20
-140.9846760715247
 30
0.0
 10
152.8730115720248
 20
-140.9846760715247
 30
0.0
 10
151.2221218154931
 20
-140.9846760715247
 30
0.0
 10
149.8671657611443
 20
-141.0267062364447
 30
0.0
 10
149.8671657611443
 20
-141.0904405029218
 30
0.0
 10
149.8671657611443
 20
-141.1538302598505
 30
0.0
 10
149.6980115728186
 20
-141.4714680635905
 30
0.0
 10
149.5074977924842
 20
-141.788761357782
 30
0.0
 10
149.5074977924842
 20
-141.788761357782
 30
0.0
 10
149.1478298238242
 20
-142.3813177812449
 30
0.0
 10
149.1478298238242
 20
-142.3813177812449
 30
0.0
 10
149.1478298238242
 20
-142.3813177812449
 30
0.0
 10
148.8090046828498
 20
-141.6829969263848
 30
0.0
 10
148.8090046828498
 20
-141.6829969263848
 30
0.0
 10
148.8090046828498
 20
-141.6829969263848
 30
0.0
 10
148.4703517966498
 20
-140.9846760715247
 30
0.0
 10
148.4703517966498
 20
-140.9846760715247
 30
0.0
 10
148.4703517966498
 20
-140.9846760715247
 30
0.0
 10
146.1419840129437
 20
-140.9846760715247
 30
0.0
 10
146.1419840129437
 20
-140.9846760715247
 30
0.0
 10
144.850762225072
 20
-141.0056911539847
 30
0.0
 10
143.4327609233432
 20
-141.0480658284533
 30
0.0
 10
142.9881713509717
 20
-141.1114555853819
 30
0.0
 10
142.1627264727059
 20
-141.2175645263275
 30
0.0
 10
142.1627264727059
 20
-141.2175645263275
 30
0.0
 10
142.6918931392402
 20
-141.3443440401848
 30
0.0
 10
142.9669840137374
 20
-141.4077337971133
 30
0.0
 10
144.3215955585377
 20
-141.5138427380591
 30
0.0
 10
145.6763793581122
 20
-141.5558729029791
 30
0.0
 10
145.6763793581122
 20
-141.5558729029791
 30
0.0
 10
148.152886247684
 20
-141.6406222519162
 30
0.0
 10
148.152886247684
 20
-141.6406222519162
 30
0.0
 10
148.152886247684
 20
-141.6406222519162
 30
0.0
 10
148.5973035652812
 20
-142.5087863141992
 30
0.0
 10
148.5973035652812
 20
-142.5087863141992
 30
0.0
 10
148.8513793573184
 20
-142.9742187142565
 30
0.0
 10
149.1054551493556
 20
-143.3976209493937
 30
0.0
 10
149.1478298238242
 20
-143.4610107063222
 30
0.0
 10
149.2112195807528
 20
-143.5033853807908
 30
0.0
 10
149.4864827100242
 20
-143.1013427376622
 30
0.0
 10
149.7403862472871
 20
-142.5721760711278
 30
0.0
 10
149.7403862472871
 20
-142.5721760711278
 30
0.0
 10
150.2271782393529
 20
-141.5772324949876
 30
0.0
 10
150.2271782393529
 20
-141.5772324949876
 30
0.0
 10
150.2271782393529
 20
-141.5772324949876
 30
0.0
 10
155.2649413674338
 20
-141.5772324949876
 30
0.0
 10
155.2649413674338
 20
-141.5772324949876
 30
0.0
 10
155.2649413674338
 20
-141.5772324949876
 30
0.0
 10
155.2649413674338
 20
-146.339732493797
 30
0.0
 10
155.2649413674338
 20
-146.339732493797
 30
0.0
 10
155.2649413674338
 20
-146.339732493797
 30
0.0
 10
148.4915391338841
 20
-146.4031222507256
 30
0.0
 10
148.4915391338841
 20
-146.4031222507256
 30
0.0
 10
144.3215955585377
 20
-146.4244818427342
 30
0.0
 10
141.5699977944686
 20
-146.5092311916713
 30
0.0
 10
141.3582966769
 20
-146.61465111352
 30
0.0
 10
141.0408311279342
 20
-146.7421196464742
 30
0.0
 10
141.1677828965657
 20
-146.7841498113943
 30
0.0
 10
142.1627264727059
 20
-146.8688991603314
 30
0.0
 10
142.1627264727059
 20
-146.8688991603314
 30
0.0
 10
142.1627264727059
 20
-146.8688991603314
 30
0.0
 10
142.1627264727059
 20
-146.8688991603314
 30
0.0
 10
142.1627264727059
 20
-146.8688991603314
 30
0.0
 10
142.1627264727059
 20
-146.8688991603314
 30
0.0
 10
142.1627264727059
 20
-146.8688991603314
 30
0.0
  0
SPLINE
  5
94
330
1F
100
AcDbEntity
  8
LAYER_1
 62
   250
100
AcDbSpline
210
0.0
220
0.0
230
1.0
 70
    11
 71
     3
 72
   104
 73
   100
 74
     0
 42
0.0000000001
 43
0.0000000001
 40
0.0
 40
0.0
 40
0.0
 40
0.0
 40
1.0
 40
1.0
 40
1.0
 40
2.0
 40
2.0
 40
2.0
 40
3.0
 40
3.0
 40
3.0
 40
4.0
 40
4.0
 40
4.0
 40
5.0
 40
5.0
 40
5.0
 40
6.0
 40
6.0
 40
6.0
 40
7.0
 40
7.0
 40
7.0
 40
8.0
 40
8.0
 40
8.0
 40
9.0
 40
9.0
 40
9.0
 40
10.0
 40
10.0
 40
10.0
 40
11.0
 40
11.0
 40
11.0
 40
12.0
 40
12.0
 40
12.0
 40
13.0
 40
13.0
 40
13.0
 40
14.0
 40
14.0
 40
14.0
 40
15.0
 40
15.0
 40
15.0
 40
16.0
 40
16.0
 40
16.0
 40
17.0
 40
17.0
 40
17.0
 40
18.0
 40
18.0
 40
18.0
 40
19.0
 40
19.0
 40
19.0
 40
20.0
 40
20.0
 40
20.0
 40
21.0
 40
21.0
 40
21.0
 40
22.0
 40
22.0
 40
22.0
 40
23.0
 40
23.0
 40
23.0
 40
24.0
 40
24.0
 40
24.0
 40
25.0
 40
25.0
 40
25.0
 40
26.0
 40
26.0
 40
26.0
 40
27.0
 40
27.0
 40
27.0
 40
28.0
 40
28.0
 40
28.0
 40
29.0
 40
29.0
 40
29.0
 40
30.0
 40
30.0
 40
30.0
 40
31.0
 40
31.0
 40
31.0
 40
32.0
 40
32.0
 40
32.0
 40
33.0
 40
33.0
 40
33.0
 40
33.0
 10
141.2737195827371
 20
-106.1654405116531
 30
0.0
 10
141.5064357827657
 20
-106.2078151861217
 30
0.0
 10
142.7130804764745
 20
-106.3135796175188
 30
0.0
 10
143.919552915409
 20
-106.3559542919874
 30
0.0
 10
143.919552915409
 20
-106.3559542919874
 30
0.0
 10
146.1207966757094
 20
-106.4617187233846
 30
0.0
 10
146.1207966757094
 20
-106.4617187233846
 30
0.0
 10
146.1207966757094
 20
-106.4617187233846
 30
0.0
 10
146.1207966757094
 20
-110.0177462832595
 30
0.0
 10
146.1207966757094
 20
-110.0177462832595
 30
0.0
 10
146.1207966757094
 20
-110.0177462832595
 30
0.0
 10
148.5339138083527
 20
-110.0177462832595
 30
0.0
 10
148.5339138083527
 20
-110.0177462832595
 30
0.0
 10
148.5339138083527
 20
-110.0177462832595
 30
0.0
 10
148.5339138083527
 20
-106.419344048916
 30
0.0
 10
148.5339138083527
 20
-106.419344048916
 30
0.0
 10
148.5339138083527
 20
-106.419344048916
 30
0.0
 10
149.7190266552786
 20
-106.419344048916
 30
0.0
 10
149.7190266552786
 20
-106.419344048916
 30
0.0
 10
149.7190266552786
 20
-106.419344048916
 30
0.0
 10
149.7190266552786
 20
-110.0177462832595
 30
0.0
 10
149.7190266552786
 20
-110.0177462832595
 30
0.0
 10
149.7190266552786
 20
-110.0177462832595
 30
0.0
 10
154.0584689284993
 20
-110.0177462832595
 30
0.0
 10
154.0584689284993
 20
-110.0177462832595
 30
0.0
 10
154.0584689284993
 20
-110.0177462832595
 30
0.0
 10
154.0584689284993
 20
-107.6048014053905
 30
0.0
 10
154.0584689284993
 20
-107.6048014053905
 30
0.0
 10
154.0584689284993
 20
-107.6048014053905
 30
0.0
 10
152.2590955565533
 20
-107.6048014053905
 30
0.0
 10
152.2590955565533
 20
-107.6048014053905
 30
0.0
 10
152.2590955565533
 20
-107.6048014053905
 30
0.0
 10
152.2590955565533
 20
-106.419344048916
 30
0.0
 10
152.2590955565533
 20
-106.419344048916
 30
0.0
 10
152.2590955565533
 20
-106.419344048916
 30
0.0
 10
155.2649413674338
 20
-106.419344048916
 30
0.0
 10
155.2649413674338
 20
-106.419344048916
 30
0.0
 10
155.2649413674338
 20
-106.419344048916
 30
0.0
 10
155.2649413674338
 20
-111.1818440477254
 30
0.0
 10
155.2649413674338
 20
-111.1818440477254
 30
0.0
 10
155.2649413674338
 20
-111.1818440477254
 30
0.0
 10
148.8513793573184
 20
-111.245233804654
 30
0.0
 10
148.8513793573184
 20
-111.245233804654
 30
0.0
 10
144.9778862484777
 20
-111.2665933966625
 30
0.0
 10
142.3320529158059
 20
-111.3513427455997
 30
0.0
 10
142.099164461003
 20
-111.4571071769968
 30
0.0
 10
141.4854207003057
 20
-111.7110107142598
 30
0.0
 10
143.5597126919747
 20
-111.7957600631969
 30
0.0
 10
149.97327470209
 20
-111.7957600631969
 30
0.0
 10
149.97327470209
 20
-111.7957600631969
 30
0.0
 10
155.8574977908967
 20
-111.7957600631969
 30
0.0
 10
155.8574977908967
 20
-111.7957600631969
 30
0.0
 10
155.8574977908967
 20
-111.7957600631969
 30
0.0
 10
155.8574977908967
 20
-105.826787625453
 30
0.0
 10
155.8574977908967
 20
-105.826787625453
 30
0.0
 10
155.8574977908967
 20
-105.826787625453
 30
0.0
 10
151.6665391330903
 20
-105.826787625453
 30
0.0
 10
151.6665391330903
 20
-105.826787625453
 30
0.0
 10
151.6665391330903
 20
-105.826787625453
 30
0.0
 10
151.6665391330903
 20
-108.2183729113135
 30
0.0
 10
151.6665391330903
 20
-108.2183729113135
 30
0.0
 10
151.6665391330903
 20
-108.2183729113135
 30
0.0
 10
153.4655679954878
 20
-108.2183729113135
 30
0.0
 10
153.4655679954878
 20
-108.2183729113135
 30
0.0
 10
153.4655679954878
 20
-108.2183729113135
 30
0.0
 10
153.4655679954878
 20
-109.4038302677879
 30
0.0
 10
153.4655679954878
 20
-109.4038302677879
 30
0.0
 10
153.4655679954878
 20
-109.4038302677879
 30
0.0
 10
150.3119275882901
 20
-109.4038302677879
 30
0.0
 10
150.3119275882901
 20
-109.4038302677879
 30
0.0
 10
150.3119275882901
 20
-109.4038302677879
 30
0.0
 10
150.3119275882901
 20
-105.826787625453
 30
0.0
 10
150.3119275882901
 20
-105.826787625453
 30
0.0
 10
150.3119275882901
 20
-105.826787625453
 30
0.0
 10
147.9199977928811
 20
-105.826787625453
 30
0.0
 10
147.9199977928811
 20
-105.826787625453
 30
0.0
 10
147.9199977928811
 20
-105.826787625453
 30
0.0
 10
147.9199977928811
 20
-109.4038302677879
 30
0.0
 10
147.9199977928811
 20
-109.4038302677879
 30
0.0
 10
147.9199977928811
 20
-109.4038302677879
 30
0.0
 10
146.7347126911809
 20
-109.4038302677879
 30
0.0
 10
146.7347126911809
 20
-109.4038302677879
 30
0.0
 10
146.7347126911809
 20
-109.4038302677879
 30
0.0
 10
146.7347126911809
 20
-105.826787625453
 30
0.0
 10
146.7347126911809
 20
-105.826787625453
 30
0.0
 10
146.7347126911809
 20
-105.826787625453
 30
0.0
 10
144.5968586878091
 20
-105.826787625453
 30
0.0
 10
144.5968586878091
 20
-105.826787625453
 30
0.0
 10
143.4327609233432
 20
-105.8481472174616
 30
0.0
 10
142.099164461003
 20
-105.8901773823816
 30
0.0
 10
141.6335598061715
 20
-105.9535671393102
 30
0.0
 10
140.9138793593028
 20
-106.0383164882474
 30
0.0
 10
140.8715046848342
 20
-106.0596760802559
 30
0.0
 10
141.2737195827371
 20
-106.1654405116531
 30
0.0
 10
141.2737195827371
 20
-106.1654405116531
 30
0.0
 10
141.2737195827371
 20
-106.1654405116531
 30
0.0
 10
141.2737195827371
 20
-106.1654405116531
 30
0.0
 10
141.2737195827371
 20
-106.1654405116531
 30
0.0
 10
141.2737195827371
 20
-106.1654405116531
 30
0.0
 10
141.2737195827371
 20
-106.1654405116531
 30
0.0
  0
SPLINE
  5
95
330
1F
100
AcDbEntity
  8
LAYER_1
 62
   250
100
AcDbSpline
210
0.0
220
0.0
230
1.0
 70
    11
 71
     3
 72
   104
 73
   100
 74
     0
 42
0.0000000001
 43
0.0000000001
 40
0.0
 40
0.0
 40
0.0
 40
0.0
 40
1.0
 40
1.0
 40
1.0
 40
2.0
 40
2.0
 40
2.0
 40
3.0
 40
3.0
 40
3.0
 40
4.0
 40
4.0
 40
4.0
 40
5.0
 40
5.0
 40
5.0
 40
6.0
 40
6.0
 40
6.0
 40
7.0
 40
7.0
 40
7.0
 40
8.0
 40
8.0
 40
8.0
 40
9.0
 40
9.0
 40
9.0
 40
10.0
 40
10.0
 40
10.0
 40
11.0
 40
11.0
 40
11.0
 40
12.0
 40
12.0
 40
12.0
 40
13.0
 40
13.0
 40
13.0
 40
14.0
 40
14.0
 40
14.0
 40
15.0
 40
15.0
 40
15.0
 40
16.0
 40
16.0
 40
16.0
 40
17.0
 40
17.0
 40
17.0
 40
18.0
 40
18.0
 40
18.0
 40
19.0
 40
19.0
 40
19.0
 40
20.0
 40
20.0
 40
20.0
 40
21.0
 40
21.0
 40
21.0
 40
22.0
 40
22.0
 40
22.0
 40
23.0
 40
23.0
 40
23.0
 40
24.0
 40
24.0
 40
24.0
 40
25.0
 40
25.0
 40
25.0
 40
26.0
 40
26.0
 40
26.0
 40
27.0
 40
27.0
 40
27.0
 40
28.0
 40
28.0
 40
28.0
 40
29.0
 40
29.0
 40
29.0
 40
30.0
 40
30.0
 40
30.0
 40
31.0
 40
31.0
 40
31.0
 40
32.0
 40
32.0
 40
32.0
 40
33.0
 40
33.0
 40
33.0
 40
33.0
 10
141.2737195827371
 20
-133.6821071714406
 30
0.0
 10
141.5064357827657
 20
-133.7454969283692
 30
0.0
 10
142.7130804764745
 20
-133.8302462773063
 30
0.0
 10
143.919552915409
 20
-133.8939805437834
 30
0.0
 10
143.919552915409
 20
-133.8939805437834
 30
0.0
 10
146.1207966757094
 20
-133.9994004656321
 30
0.0
 10
146.1207966757094
 20
-133.9994004656321
 30
0.0
 10
146.1207966757094
 20
-133.9994004656321
 30
0.0
 10
146.1207966757094
 20
-137.534412943047
 30
0.0
 10
146.1207966757094
 20
-137.534412943047
 30
0.0
 10
146.1207966757094
 20
-137.534412943047
 30
0.0
 10
148.5339138083527
 20
-137.534412943047
 30
0.0
 10
148.5339138083527
 20
-137.534412943047
 30
0.0
 10
148.5339138083527
 20
-137.534412943047
 30
0.0
 10
148.5339138083527
 20
-133.9360107087035
 30
0.0
 10
148.5339138083527
 20
-133.9360107087035
 30
0.0
 10
148.5339138083527
 20
-133.9360107087035
 30
0.0
 10
149.7190266552786
 20
-133.9360107087035
 30
0.0
 10
149.7190266552786
 20
-133.9360107087035
 30
0.0
 10
149.7190266552786
 20
-133.9360107087035
 30
0.0
 10
149.7190266552786
 20
-137.534412943047
 30
0.0
 10
149.7190266552786
 20
-137.534412943047
 30
0.0
 10
149.7190266552786
 20
-137.534412943047
 30
0.0
 10
154.0584689284993
 20
-137.534412943047
 30
0.0
 10
154.0584689284993
 20
-137.534412943047
 30
0.0
 10
154.0584689284993
 20
-137.534412943047
 30
0.0
 10
154.0584689284993
 20
-135.142483147638
 30
0.0
 10
154.0584689284993
 20
-135.142483147638
 30
0.0
 10
154.0584689284993
 20
-135.142483147638
 30
0.0
 10
152.2590955565533
 20
-135.142483147638
 30
0.0
 10
152.2590955565533
 20
-135.142483147638
 30
0.0
 10
152.2590955565533
 20
-135.142483147638
 30
0.0
 10
152.2590955565533
 20
-133.9360107087035
 30
0.0
 10
152.2590955565533
 20
-133.9360107087035
 30
0.0
 10
152.2590955565533
 20
-133.9360107087035
 30
0.0
 10
155.2649413674338
 20
-133.9360107087035
 30
0.0
 10
155.2649413674338
 20
-133.9360107087035
 30
0.0
 10
155.2649413674338
 20
-133.9360107087035
 30
0.0
 10
155.2649413674338
 20
-138.6985107075129
 30
0.0
 10
155.2649413674338
 20
-138.6985107075129
 30
0.0
 10
155.2649413674338
 20
-138.6985107075129
 30
0.0
 10
148.8513793573184
 20
-138.7619004644415
 30
0.0
 10
148.8513793573184
 20
-138.7619004644415
 30
0.0
 10
144.9778862484777
 20
-138.8046196484586
 30
0.0
 10
142.3320529158059
 20
-138.8890244878472
 30
0.0
 10
142.099164461003
 20
-138.9737738367843
 30
0.0
 10
141.4854207003057
 20
-139.2490369660558
 30
0.0
 10
143.5597126919747
 20
-139.3337863149929
 30
0.0
 10
149.97327470209
 20
-139.3337863149929
 30
0.0
 10
149.97327470209
 20
-139.3337863149929
 30
0.0
 10
155.8574977908967
 20
-139.3337863149929
 30
0.0
 10
155.8574977908967
 20
-139.3337863149929
 30
0.0
 10
155.8574977908967
 20
-139.3337863149929
 30
0.0
 10
155.8574977908967
 20
-133.3434542852405
 30
0.0
 10
155.8574977908967
 20
-133.3434542852405
 30
0.0
 10
155.8574977908967
 20
-133.3434542852405
 30
0.0
 10
151.6665391330903
 20
-133.3434542852405
 30
0.0
 10
151.6665391330903
 20
-133.3434542852405
 30
0.0
 10
151.6665391330903
 20
-133.3434542852405
 30
0.0
 10
151.6665391330903
 20
-135.735039571101
 30
0.0
 10
151.6665391330903
 20
-135.735039571101
 30
0.0
 10
151.6665391330903
 20
-135.735039571101
 30
0.0
 10
153.4655679954878
 20
-135.735039571101
 30
0.0
 10
153.4655679954878
 20
-135.735039571101
 30
0.0
 10
153.4655679954878
 20
-135.735039571101
 30
0.0
 10
153.4655679954878
 20
-136.9415120100355
 30
0.0
 10
153.4655679954878
 20
-136.9415120100355
 30
0.0
 10
153.4655679954878
 20
-136.9415120100355
 30
0.0
 10
150.3119275882901
 20
-136.9415120100355
 30
0.0
 10
150.3119275882901
 20
-136.9415120100355
 30
0.0
 10
150.3119275882901
 20
-136.9415120100355
 30
0.0
 10
150.3119275882901
 20
-133.3434542852405
 30
0.0
 10
150.3119275882901
 20
-133.3434542852405
 30
0.0
 10
150.3119275882901
 20
-133.3434542852405
 30
0.0
 10
147.9199977928811
 20
-133.3434542852405
 30
0.0
 10
147.9199977928811
 20
-133.3434542852405
 30
0.0
 10
147.9199977928811
 20
-133.3434542852405
 30
0.0
 10
147.9199977928811
 20
-136.9415120100355
 30
0.0
 10
147.9199977928811
 20
-136.9415120100355
 30
0.0
 10
147.9199977928811
 20
-136.9415120100355
 30
0.0
 10
146.7347126911809
 20
-136.9415120100355
 30
0.0
 10
146.7347126911809
 20
-136.9415120100355
 30
0.0
 10
146.7347126911809
 20
-136.9415120100355
 30
0.0
 10
146.7347126911809
 20
-133.3434542852405
 30
0.0
 10
146.7347126911809
 20
-133.3434542852405
 30
0.0
 10
146.7347126911809
 20
-133.3434542852405
 30
0.0
 10
144.5968586878091
 20
-133.3648138772491
 30
0.0
 10
144.5968586878091
 20
-133.3648138772491
 30
0.0
 10
143.4327609233432
 20
-133.3648138772491
 30
0.0
 10
142.099164461003
 20
-133.4282036341777
 30
0.0
 10
141.6335598061715
 20
-133.4702337990977
 30
0.0
 10
140.9138793593028
 20
-133.5763427400434
 30
0.0
 10
140.8715046848342
 20
-133.5973578225035
 30
0.0
 10
141.2737195827371
 20
-133.6821071714406
 30
0.0
 10
141.2737195827371
 20
-133.6821071714406
 30
0.0
 10
141.2737195827371
 20
-133.6821071714406
 30
0.0
 10
141.2737195827371
 20
-133.6821071714406
 30
0.0
 10
141.2737195827371
 20
-133.6821071714406
 30
0.0
 10
141.2737195827371
 20
-133.6821071714406
 30
0.0
 10
141.2737195827371
 20
-133.6821071714406
 30
0.0
  0
SPLINE
  5
96
330
1F
100
AcDbEntity
  8
LAYER_1
 62
   250
100
AcDbSpline
210
0.0
220
0.0
230
1.0
 70
    11
 71
     3
 72
   101
 73
    97
 74
     0
 42
0.0000000001
 43
0.0000000001
 40
0.0
 40
0.0
 40
0.0
 40
0.0
 40
1.0
 40
1.0
 40
1.0
 40
2.0
 40
2.0
 40
2.0
 40
3.0
 40
3.0
 40
3.0
 40
4.0
 40
4.0
 40
4.0
 40
5.0
 40
5.0
 40
5.0
 40
6.0
 40
6.0
 40
6.0
 40
7.0
 40
7.0
 40
7.0
 40
8.0
 40
8.0
 40
8.0
 40
9.0
 40
9.0
 40
9.0
 40
10.0
 40
10.0
 40
10.0
 40
11.0
 40
11.0
 40
11.0
 40
12.0
 40
12.0
 40
12.0
 40
13.0
 40
13.0
 40
13.0
 40
14.0
 40
14.0
 40
14.0
 40
15.0
 40
15.0
 40
15.0
 40
16.0
 40
16.0
 40
16.0
 40
17.0
 40
17.0
 40
17.0
 40
18.0
 40
18.0
 40
18.0
 40
19.0
 40
19.0
 40
19.0
 40
20.0
 40
20.0
 40
20.0
 40
21.0
 40
21.0
 40
21.0
 40
22.0
 40
22.0
 40
22.0
 40
23.0
 40
23.0
 40
23.0
 40
24.0
 40
24.0
 40
24.0
 40
25.0
 40
25.0
 40
25.0
 40
26.0
 40
26.0
 40
26.0
 40
27.0
 40
27.0
 40
27.0
 40
28.0
 40
28.0
 40
28.0
 40
29.0
 40
29.0
 40
29.0
 40
30.0
 40
30.0
 40
30.0
 40
31.0
 40
31.0
 40
31.0
 40
32.0
 40
32.0
 40
32.0
 40
32.0
 10
141.2737195827371
 20
-148.7950520461346
 30
0.0
 10
141.5064357827657
 20
-148.8587863126117
 30
0.0
 10
142.7130804764745
 20
-148.9431911520003
 30
0.0
 10
143.919552915409
 20
-149.0069254184774
 30
0.0
 10
143.919552915409
 20
-149.0069254184774
 30
0.0
 10
146.1207966757094
 20
-149.1123453403261
 30
0.0
 10
146.1207966757094
 20
-149.1123453403261
 30
0.0
 10
146.1207966757094
 20
-149.1123453403261
 30
0.0
 10
146.1207966757094
 20
-152.647357817741
 30
0.0
 10
146.1207966757094
 20
-152.647357817741
 30
0.0
 10
146.1207966757094
 20
-152.647357817741
 30
0.0
 10
148.5339138083527
 20
-152.647357817741
 30
0.0
 10
148.5339138083527
 20
-152.647357817741
 30
0.0
 10
148.5339138083527
 20
-152.647357817741
 30
0.0
 10
148.5339138083527
 20
-149.0489555833975
 30
0.0
 10
148.5339138083527
 20
-149.0489555833975
 30
0.0
 10
148.5339138083527
 20
-149.0489555833975
 30
0.0
 10
149.7190266552786
 20
-149.0489555833975
 30
0.0
 10
149.7190266552786
 20
-149.0489555833975
 30
0.0
 10
149.7190266552786
 20
-149.0489555833975
 30
0.0
 10
149.7190266552786
 20
-152.647357817741
 30
0.0
 10
149.7190266552786
 20
-152.647357817741
 30
0.0
 10
149.7190266552786
 20
-152.647357817741
 30
0.0
 10
154.0584689284993
 20
-152.647357817741
 30
0.0
 10
154.0584689284993
 20
-152.647357817741
 30
0.0
 10
154.0584689284993
 20
-152.647357817741
 30
0.0
 10
154.0584689284993
 20
-150.255428022332
 30
0.0
 10
154.0584689284993
 20
-150.255428022332
 30
0.0
 10
154.0584689284993
 20
-150.255428022332
 30
0.0
 10
152.2590955565533
 20
-150.255428022332
 30
0.0
 10
152.2590955565533
 20
-150.255428022332
 30
0.0
 10
152.2590955565533
 20
-150.255428022332
 30
0.0
 10
152.2590955565533
 20
-149.0489555833975
 30
0.0
 10
152.2590955565533
 20
-149.0489555833975
 30
0.0
 10
152.2590955565533
 20
-149.0489555833975
 30
0.0
 10
155.2649413674338
 20
-149.0489555833975
 30
0.0
 10
155.2649413674338
 20
-149.0489555833975
 30
0.0
 10
155.2649413674338
 20
-149.0489555833975
 30
0.0
 10
155.2649413674338
 20
-153.8114555822069
 30
0.0
 10
155.2649413674338
 20
-153.8114555822069
 30
0.0
 10
155.2649413674338
 20
-153.8114555822069
 30
0.0
 10
148.8513793573184
 20
-153.8748453391355
 30
0.0
 10
148.8513793573184
 20
-153.8748453391355
 30
0.0
 10
144.9778862484777
 20
-153.9175645231525
 30
0.0
 10
142.3320529158059
 20
-154.0023138720897
 30
0.0
 10
142.099164461003
 20
-154.0867187114783
 30
0.0
 10
141.4854207003057
 20
-154.3406222487412
 30
0.0
 10
143.5597126919747
 20
-154.4467311896869
 30
0.0
 10
149.97327470209
 20
-154.4467311896869
 30
0.0
 10
149.97327470209
 20
-154.4467311896869
 30
0.0
 10
155.8574977908967
 20
-154.4467311896869
 30
0.0
 10
155.8574977908967
 20
-154.4467311896869
 30
0.0
 10
155.8574977908967
 20
-154.4467311896869
 30
0.0
 10
155.8574977908967
 20
-148.4563991599345
 30
0.0
 10
155.8574977908967
 20
-148.4563991599345
 30
0.0
 10
155.8574977908967
 20
-148.4563991599345
 30
0.0
 10
151.6665391330903
 20
-148.4563991599345
 30
0.0
 10
151.6665391330903
 20
-148.4563991599345
 30
0.0
 10
151.6665391330903
 20
-148.4563991599345
 30
0.0
 10
151.6665391330903
 20
-150.847984445795
 30
0.0
 10
151.6665391330903
 20
-150.847984445795
 30
0.0
 10
151.6665391330903
 20
-150.847984445795
 30
0.0
 10
153.4655679954878
 20
-150.847984445795
 30
0.0
 10
153.4655679954878
 20
-150.847984445795
 30
0.0
 10
153.4655679954878
 20
-150.847984445795
 30
0.0
 10
153.4655679954878
 20
-152.054801394278
 30
0.0
 10
153.4655679954878
 20
-152.054801394278
 30
0.0
 10
153.4655679954878
 20
-152.054801394278
 30
0.0
 10
150.3119275882901
 20
-152.054801394278
 30
0.0
 10
150.3119275882901
 20
-152.054801394278
 30
0.0
 10
150.3119275882901
 20
-152.054801394278
 30
0.0
 10
150.3119275882901
 20
-148.4563991599345
 30
0.0
 10
150.3119275882901
 20
-148.4563991599345
 30
0.0
 10
150.3119275882901
 20
-148.4563991599345
 30
0.0
 10
147.9199977928811
 20
-148.4563991599345
 30
0.0
 10
147.9199977928811
 20
-148.4563991599345
 30
0.0
 10
147.9199977928811
 20
-148.4563991599345
 30
0.0
 10
147.9199977928811
 20
-152.054801394278
 30
0.0
 10
147.9199977928811
 20
-152.054801394278
 30
0.0
 10
147.9199977928811
 20
-152.054801394278
 30
0.0
 10
146.7347126911809
 20
-152.054801394278
 30
0.0
 10
146.7347126911809
 20
-152.054801394278
 30
0.0
 10
146.7347126911809
 20
-152.054801394278
 30
0.0
 10
146.7347126911809
 20
-148.4563991599345
 30
0.0
 10
146.7347126911809
 20
-148.4563991599345
 30
0.0
 10
146.7347126911809
 20
-148.4563991599345
 30
0.0
 10
144.5968586878091
 20
-148.4777587519431
 30
0.0
 10
144.5968586878091
 20
-148.4777587519431
 30
0.0
 10
143.4327609233432
 20
-148.4777587519431
 30
0.0
 10
142.099164461003
 20
-148.5411485088717
 30
0.0
 10
141.6335598061715
 20
-148.5831786737917
 30
0.0
 10
140.9138793593028
 20
-148.6892876147374
 30
0.0
 10
140.8715046848342
 20
-148.710647206746
 30
0.0
 10
141.2737195827371
 20
-148.7950520461346
 30
0.0
 10
141.2737195827371
 20
-148.7950520461346
 30
0.0
 10
141.2737195827371
 20
-148.7950520461346
 30
0.0
 10
141.2737195827371
 20
-148.7950520461346
 30
0.0
  0
SPLINE
  5
97
330
1F
100
AcDbEntity
  8
LAYER_1
 62
   250
100
AcDbSpline
210
0.0
220
0.0
230
1.0
 70
    11
 71
     3
 72
    44
 73
    40
 74
     0
 42
0.0000000001
 43
0.0000000001
 40
0.0
 40
0.0
 40
0.0
 40
0.0
 40
1.0
 40
1.0
 40
1.0
 40
2.0
 40
2.0
 40
2.0
 40
3.0
 40
3.0
 40
3.0
 40
4.0
 40
4.0
 40
4.0
 40
5.0
 40
5.0
 40
5.0
 40
6.0
 40
6.0
 40
6.0
 40
7.0
 40
7.0
 40
7.0
 40
8.0
 40
8.0
 40
8.0
 40
9.0
 40
9.0
 40
9.0
 40
10.0
 40
10.0
 40
10.0
 40
11.0
 40
11.0
 40
11.0
 40
12.0
 40
12.0
 40
12.0
 40
13.0
 40
13.0
 40
13.0
 40
13.0
 10
141.7181369003344
 20
-68.46748316430674
 30
0.0
 10
142.3532402530402
 20
-68.5310451760096
 30
0.0
 10
145.8033311267436
 20
-68.57341985047817
 30
0.0
 10
149.3803737690785
 20
-68.57341985047817
 30
0.0
 10
149.3803737690785
 20
-68.57341985047817
 30
0.0
 10
155.8574977908967
 20
-68.57341985047817
 30
0.0
 10
155.8574977908967
 20
-68.57341985047817
 30
0.0
 10
155.8574977908967
 20
-68.57341985047817
 30
0.0
 10
155.8574977908967
 20
-62.58326007550002
 30
0.0
 10
155.8574977908967
 20
-62.58326007550002
 30
0.0
 10
155.8574977908967
 20
-62.58326007550002
 30
0.0
 10
150.0576795414786
 20
-62.58326007550002
 30
0.0
 10
150.0576795414786
 20
-62.58326007550002
 30
0.0
 10
143.7924288920033
 20
-62.58326007550002
 30
0.0
 10
141.929838017903
 20
-62.6678371696629
 30
0.0
 10
142.5437540333745
 20
-62.94310029893437
 30
0.0
 10
142.7764702334031
 20
-63.02767739309725
 30
0.0
 10
145.3589138091464
 20
-63.11242674203439
 30
0.0
 10
149.084095557347
 20
-63.15480141650297
 30
0.0
 10
149.084095557347
 20
-63.15480141650297
 30
0.0
 10
155.2649413674338
 20
-63.21819117343156
 30
0.0
 10
155.2649413674338
 20
-63.21819117343156
 30
0.0
 10
155.2649413674338
 20
-63.21819117343156
 30
0.0
 10
155.2649413674338
 20
-67.93831649777236
 30
0.0
 10
155.2649413674338
 20
-67.93831649777236
 30
0.0
 10
155.2649413674338
 20
-67.93831649777236
 30
0.0
 10
148.2586506790812
 20
-68.00187850947523
 30
0.0
 10
148.2586506790812
 20
-68.00187850947523
 30
0.0
 10
143.919552915409
 20
-68.0442531839438
 30
0.0
 10
141.1255804768714
 20
-68.12883027810669
 30
0.0
 10
140.9138793593028
 20
-68.21357962704383
 30
0.0
 10
140.596413810337
 20
-68.34053139567528
 30
0.0
 10
140.7233655789685
 20
-68.38290607014386
 30
0.0
 10
141.7181369003344
 20
-68.46748316430674
 30
0.0
 10
141.7181369003344
 20
-68.46748316430674
 30
0.0
 10
141.7181369003344
 20
-68.46748316430674
 30
0.0
 10
141.7181369003344
 20
-68.46748316430674
 30
0.0
 10
141.7181369003344
 20
-68.46748316430674
 30
0.0
 10
141.7181369003344
 20
-68.46748316430674
 30
0.0
 10
141.7181369003344
 20
-68.46748316430674
 30
0.0
  0
SPLINE
  5
98
330
1F
100
AcDbEntity
  8
LAYER_1
 62
   250
100
AcDbSpline
210
0.0
220
0.0
230
1.0
 70
    11
 71
     3
 72
    44
 73
    40
 74
     0
 42
0.0000000001
 43
0.0000000001
 40
0.0
 40
0.0
 40
0.0
 40
0.0
 40
1.0
 40
1.0
 40
1.0
 40
2.0
 40
2.0
 40
2.0
 40
3.0
 40
3.0
 40
3.0
 40
4.0
 40
4.0
 40
4.0
 40
5.0
 40
5.0
 40
5.0
 40
6.0
 40
6.0
 40
6.0
 40
7.0
 40
7.0
 40
7.0
 40
8.0
 40
8.0
 40
8.0
 40
9.0
 40
9.0
 40
9.0
 40
10.0
 40
10.0
 40
10.0
 40
11.0
 40
11.0
 40
11.0
 40
12.0
 40
12.0
 40
12.0
 40
13.0
 40
13.0
 40
13.0
 40
13.0
 10
141.7181369003344
 20
-81.48512096487178
 30
0.0
 10
142.3532402530402
 20
-81.54851072180037
 30
0.0
 10
145.8033311267436
 20
-81.59088539626894
 30
0.0
 10
149.3803737690785
 20
-81.59088539626894
 30
0.0
 10
149.3803737690785
 20
-81.59088539626894
 30
0.0
 10
155.8574977908967
 20
-81.59088539626894
 30
0.0
 10
155.8574977908967
 20
-81.59088539626894
 30
0.0
 10
155.8574977908967
 20
-81.59088539626894
 30
0.0
 10
155.8574977908967
 20
-75.60072562129079
 30
0.0
 10
155.8574977908967
 20
-75.60072562129079
 30
0.0
 10
155.8574977908967
 20
-75.60072562129079
 30
0.0
 10
150.0576795414786
 20
-75.60072562129079
 30
0.0
 10
150.0576795414786
 20
-75.60072562129079
 30
0.0
 10
143.7924288920033
 20
-75.60072562129079
 30
0.0
 10
141.929838017903
 20
-75.68547497022794
 30
0.0
 10
142.5437540333745
 20
-75.93937850749086
 30
0.0
 10
142.7764702334031
 20
-76.04531519366229
 30
0.0
 10
145.3589138091464
 20
-76.12989228782517
 30
0.0
 10
149.084095557347
 20
-76.17226696229375
 30
0.0
 10
149.084095557347
 20
-76.17226696229375
 30
0.0
 10
155.2649413674338
 20
-76.21464163676231
 30
0.0
 10
155.2649413674338
 20
-76.21464163676231
 30
0.0
 10
155.2649413674338
 20
-76.21464163676231
 30
0.0
 10
155.2649413674338
 20
-80.9559542983374
 30
0.0
 10
155.2649413674338
 20
-80.9559542983374
 30
0.0
 10
155.2649413674338
 20
-80.9559542983374
 30
0.0
 10
148.2586506790812
 20
-81.019344055266
 30
0.0
 10
148.2586506790812
 20
-81.019344055266
 30
0.0
 10
143.919552915409
 20
-81.06171872973458
 30
0.0
 10
141.1255804768714
 20
-81.12528074143744
 30
0.0
 10
140.9138793593028
 20
-81.2310451728346
 30
0.0
 10
140.596413810337
 20
-81.35799694146606
 30
0.0
 10
140.7233655789685
 20
-81.40037161593463
 30
0.0
 10
141.7181369003344
 20
-81.48512096487178
 30
0.0
 10
141.7181369003344
 20
-81.48512096487178
 30
0.0
 10
141.7181369003344
 20
-81.48512096487178
 30
0.0
 10
141.7181369003344
 20
-81.48512096487178
 30
0.0
 10
141.7181369003344
 20
-81.48512096487178
 30
0.0
 10
141.7181369003344
 20
-81.48512096487178
 30
0.0
 10
141.7181369003344
 20
-81.48512096487178
 30
0.0
  0
SPLINE
  5
99
330
1F
100
AcDbEntity
  8
LAYER_1
 62
   250
100
AcDbSpline
210
0.0
220
0.0
230
1.0
 70
    11
 71
     3
 72
    38
 73
    34
 74
     0
 42
0.0000000001
 43
0.0000000001
 40
0.0
 40
0.0
 40
0.0
 40
0.0
 40
1.0
 40
1.0
 40
1.0
 40
2.0
 40
2.0
 40
2.0
 40
3.0
 40
3.0
 40
3.0
 40
4.0
 40
4.0
 40
4.0
 40
5.0
 40
5.0
 40
5.0
 40
6.0
 40
6.0
 40
6.0
 40
7.0
 40
7.0
 40
7.0
 40
8.0
 40
8.0
 40
8.0
 40
9.0
 40
9.0
 40
9.0
 40
10.0
 40
10.0
 40
10.0
 40
11.0
 40
11.0
 40
11.0
 40
11.0
 10
141.7393242375686
 20
-94.94700382825978
 30
0.0
 10
142.3744275902745
 20
-95.01056583996264
 30
0.0
 10
143.750226472309
 20
-95.05294051443121
 30
0.0
 10
144.8085598053777
 20
-95.05294051443121
 30
0.0
 10
144.8085598053777
 20
-95.05294051443121
 30
0.0
 10
146.7347126911809
 20
-95.05294051443121
 30
0.0
 10
146.7347126911809
 20
-95.05294051443121
 30
0.0
 10
146.7347126911809
 20
-95.05294051443121
 30
0.0
 10
146.7347126911809
 20
-92.66101071902226
 30
0.0
 10
146.7347126911809
 20
-92.66101071902226
 30
0.0
 10
146.7347126911809
 20
-92.66101071902226
 30
0.0
 10
145.7187540325807
 20
-92.66101071902226
 30
0.0
 10
145.7187540325807
 20
-92.66101071902226
 30
0.0
 10
144.3005804760776
 20
-92.66101071902226
 30
0.0
 10
142.6918931392402
 20
-92.83033716212228
 30
0.0
 10
142.7764702334031
 20
-92.957461185528
 30
0.0
 10
142.8188449078717
 20
-93.02085094245659
 30
0.0
 10
143.5809000292089
 20
-93.12678762862802
 30
0.0
 10
144.491094256412
 20
-93.19017738555662
 30
0.0
 10
144.491094256412
 20
-93.19017738555662
 30
0.0
 10
146.1207966757094
 20
-93.29611407172806
 30
0.0
 10
146.1207966757094
 20
-93.29611407172806
 30
0.0
 10
146.1207966757094
 20
-93.29611407172806
 30
0.0
 10
146.1207966757094
 20
-94.39664982449112
 30
0.0
 10
146.1207966757094
 20
-94.39664982449112
 30
0.0
 10
146.1207966757094
 20
-94.39664982449112
 30
0.0
 10
143.4961506802718
 20
-94.48139917342827
 30
0.0
 10
143.4961506802718
 20
-94.48139917342827
 30
0.0
 10
140.6386162300313
 20
-94.58716360482543
 30
0.0
 10
139.8343586889997
 20
-94.79886472239404
 30
0.0
 10
141.7393242375686
 20
-94.94700382825978
 30
0.0
 10
141.7393242375686
 20
-94.94700382825978
 30
0.0
 10
141.7393242375686
 20
-94.94700382825978
 30
0.0
 10
141.7393242375686
 20
-94.94700382825978
 30
0.0
  0
SPLINE
  5
9A
330
1F
100
AcDbEntity
  8
LAYER_1
 62
   250
100
AcDbSpline
210
0.0
220
0.0
230
1.0
 70
    11
 71
     3
 72
    77
 73
    73
 74
     0
 42
0.0000000001
 43
0.0000000001
 40
0.0
 40
0.0
 40
0.0
 40
0.0
 40
1.0
 40
1.0
 40
1.0
 40
2.0
 40
2.0
 40
2.0
 40
3.0
 40
3.0
 40
3.0
 40
4.0
 40
4.0
 40
4.0
 40
5.0
 40
5.0
 40
5.0
 40
6.0
 40
6.0
 40
6.0
 40
7.0
 40
7.0
 40
7.0
 40
8.0
 40
8.0
 40
8.0
 40
9.0
 40
9.0
 40
9.0
 40
10.0
 40
10.0
 40
10.0
 40
11.0
 40
11.0
 40
11.0
 40
12.0
 40
12.0
 40
12.0
 40
13.0
 40
13.0
 40
13.0
 40
14.0
 40
14.0
 40
14.0
 40
15.0
 40
15.0
 40
15.0
 40
16.0
 40
16.0
 40
16.0
 40
17.0
 40
17.0
 40
17.0
 40
18.0
 40
18.0
 40
18.0
 40
19.0
 40
19.0
 40
19.0
 40
20.0
 40
20.0
 40
20.0
 40
21.0
 40
21.0
 40
21.0
 40
22.0
 40
22.0
 40
22.0
 40
23.0
 40
23.0
 40
23.0
 40
24.0
 40
24.0
 40
24.0
 40
24.0
 10
141.5488104572343
 20
-89.10498315914737
 30
0.0
 10
142.2049288924002
 20
-89.16854517085022
 30
0.0
 10
145.6975666953464
 20
-89.2109198453188
 30
0.0
 10
149.2959689296899
 20
-89.2109198453188
 30
0.0
 10
149.2959689296899
 20
-89.2109198453188
 30
0.0
 10
155.8785128733568
 20
-89.2109198453188
 30
0.0
 10
155.8785128733568
 20
-89.2109198453188
 30
0.0
 10
155.8785128733568
 20
-89.2109198453188
 30
0.0
 10
155.8151231164282
 20
-88.04664982607862
 30
0.0
 10
155.8151231164282
 20
-88.04664982607862
 30
0.0
 10
155.8151231164282
 20
-88.04664982607862
 30
0.0
 10
155.7727484419596
 20
-86.90373939884698
 30
0.0
 10
155.7727484419596
 20
-86.90373939884698
 30
0.0
 10
155.7727484419596
 20
-86.90373939884698
 30
0.0
 10
153.9947346620222
 20
-86.26880830091544
 30
0.0
 10
153.9947346620222
 20
-86.26880830091544
 30
0.0
 10
153.9947346620222
 20
-86.26880830091544
 30
0.0
 10
152.1957057996247
 20
-85.63370494820963
 30
0.0
 10
152.1957057996247
 20
-85.63370494820963
 30
0.0
 10
152.1957057996247
 20
-85.63370494820963
 30
0.0
 10
154.0160942540307
 20
-85.63370494820963
 30
0.0
 10
154.0160942540307
 20
-85.63370494820963
 30
0.0
 10
154.0160942540307
 20
-85.63370494820963
 30
0.0
 10
155.8574977908967
 20
-85.61251761097535
 30
0.0
 10
155.8574977908967
 20
-85.61251761097535
 30
0.0
 10
155.8574977908967
 20
-85.61251761097535
 30
0.0
 10
155.8574977908967
 20
-83.22076007034065
 30
0.0
 10
155.8574977908967
 20
-83.22076007034065
 30
0.0
 10
155.8574977908967
 20
-83.22076007034065
 30
0.0
 10
149.7614013297471
 20
-83.22076007034065
 30
0.0
 10
149.7614013297471
 20
-83.22076007034065
 30
0.0
 10
146.3960598049809
 20
-83.22076007034065
 30
0.0
 10
143.1998724685403
 20
-83.28414982726925
 30
0.0
 10
142.6071437903031
 20
-83.32652450173782
 30
0.0
 10
140.278776006597
 20
-83.55941295654071
 30
0.0
 10
142.6071437903031
 20
-83.72873939964073
 30
0.0
 10
148.8513793573184
 20
-83.7923014113436
 30
0.0
 10
148.8513793573184
 20
-83.7923014113436
 30
0.0
 10
155.2649413674338
 20
-83.85569116827219
 30
0.0
 10
155.2649413674338
 20
-83.85569116827219
 30
0.0
 10
155.2649413674338
 20
-83.85569116827219
 30
0.0
 10
155.2649413674338
 20
-85.01996118751238
 30
0.0
 10
155.2649413674338
 20
-85.01996118751238
 30
0.0
 10
155.2649413674338
 20
-85.01996118751238
 30
0.0
 10
152.0051920192904
 20
-85.06216360720668
 30
0.0
 10
152.0051920192904
 20
-85.06216360720668
 30
0.0
 10
152.0051920192904
 20
-85.06216360720668
 30
0.0
 10
148.7666300083813
 20
-85.10453828167526
 30
0.0
 10
148.7666300083813
 20
-85.10453828167526
 30
0.0
 10
148.7666300083813
 20
-85.10453828167526
 30
0.0
 10
152.0051920192904
 20
-86.20524628921258
 30
0.0
 10
152.0051920192904
 20
-86.20524628921258
 30
0.0
 10
152.0051920192904
 20
-86.20524628921258
 30
0.0
 10
155.2649413674338
 20
-87.3059542967499
 30
0.0
 10
155.2649413674338
 20
-87.3059542967499
 30
0.0
 10
155.2649413674338
 20
-87.3059542967499
 30
0.0
 10
155.2649413674338
 20
-88.59700382984728
 30
0.0
 10
155.2649413674338
 20
-88.59700382984728
 30
0.0
 10
155.2649413674338
 20
-88.59700382984728
 30
0.0
 10
148.2586506790812
 20
-88.66056584155014
 30
0.0
 10
148.2586506790812
 20
-88.66056584155014
 30
0.0
 10
144.2370184643748
 20
-88.68175317878443
 30
0.0
 10
141.0832058024028
 20
-88.7875176101816
 30
0.0
 10
140.8291300103656
 20
-88.87226695911875
 30
0.0
 10
140.427087367237
 20
-88.9992187277502
 30
0.0
 10
140.5116644613999
 20
-89.02040606498448
 30
0.0
 10
141.5488104572343
 20
-89.10498315914737
 30
0.0
 10
141.5488104572343
 20
-89.10498315914737
 30
0.0
 10
141.5488104572343
 20
-89.10498315914737
 30
0.0
 10
141.5488104572343
 20
-89.10498315914737
 30
0.0
 10
141.5488104572343
 20
-89.10498315914737
 30
0.0
 10
141.5488104572343
 20
-89.10498315914737
 30
0.0
 10
141.5488104572343
 20
-89.10498315914737
 30
0.0
  0
SPLINE
  5
9B
330
1F
100
AcDbEntity
  8
LAYER_1
 62
   250
100
AcDbSpline
210
0.0
220
0.0
230
1.0
 70
    11
 71
     3
 72
    86
 73
    82
 74
     0
 42
0.0000000001
 43
0.0000000001
 40
0.0
 40
0.0
 40
0.0
 40
0.0
 40
1.0
 40
1.0
 40
1.0
 40
2.0
 40
2.0
 40
2.0
 40
3.0
 40
3.0
 40
3.0
 40
4.0
 40
4.0
 40
4.0
 40
5.0
 40
5.0
 40
5.0
 40
6.0
 40
6.0
 40
6.0
 40
7.0
 40
7.0
 40
7.0
 40
8.0
 40
8.0
 40
8.0
 40
9.0
 40
9.0
 40
9.0
 40
10.0
 40
10.0
 40
10.0
 40
11.0
 40
11.0
 40
11.0
 40
12.0
 40
12.0
 40
12.0
 40
13.0
 40
13.0
 40
13.0
 40
14.0
 40
14.0
 40
14.0
 40
15.0
 40
15.0
 40
15.0
 40
16.0
 40
16.0
 40
16.0
 40
17.0
 40
17.0
 40
17.0
 40
18.0
 40
18.0
 40
18.0
 40
19.0
 40
19.0
 40
19.0
 40
20.0
 40
20.0
 40
20.0
 40
21.0
 40
21.0
 40
21.0
 40
22.0
 40
22.0
 40
22.0
 40
23.0
 40
23.0
 40
23.0
 40
24.0
 40
24.0
 40
24.0
 40
25.0
 40
25.0
 40
25.0
 40
26.0
 40
26.0
 40
26.0
 40
27.0
 40
27.0
 40
27.0
 40
27.0
 10
141.4006713513686
 20
-53.35453828961275
 30
0.0
 10
142.0567897865344
 20
-53.41810030131562
 30
0.0
 10
143.5173380175061
 20
-53.46047497578419
 30
0.0
 10
144.660420699512
 20
-53.46047497578419
 30
0.0
 10
144.660420699512
 20
-53.46047497578419
 30
0.0
 10
146.7347126911809
 20
-53.46047497578419
 30
0.0
 10
146.7347126911809
 20
-53.46047497578419
 30
0.0
 10
146.7347126911809
 20
-53.46047497578419
 30
0.0
 10
146.7347126911809
 20
-49.86207274144073
 30
0.0
 10
146.7347126911809
 20
-49.86207274144073
 30
0.0
 10
146.7347126911809
 20
-49.86207274144073
 30
0.0
 10
147.9199977928811
 20
-49.86207274144073
 30
0.0
 10
147.9199977928811
 20
-49.86207274144073
 30
0.0
 10
147.9199977928811
 20
-49.86207274144073
 30
0.0
 10
147.9199977928811
 20
-53.46047497578419
 30
0.0
 10
147.9199977928811
 20
-53.46047497578419
 30
0.0
 10
147.9199977928811
 20
-53.46047497578419
 30
0.0
 10
155.8574977908967
 20
-53.46047497578419
 30
0.0
 10
155.8574977908967
 20
-53.46047497578419
 30
0.0
 10
155.8574977908967
 20
-53.46047497578419
 30
0.0
 10
155.8574977908967
 20
-51.06854518037522
 30
0.0
 10
155.8574977908967
 20
-51.06854518037522
 30
0.0
 10
155.8574977908967
 20
-51.06854518037522
 30
0.0
 10
150.3119275882901
 20
-51.06854518037522
 30
0.0
 10
150.3119275882901
 20
-51.06854518037522
 30
0.0
 10
150.3119275882901
 20
-51.06854518037522
 30
0.0
 10
150.3119275882901
 20
-49.86207274144073
 30
0.0
 10
150.3119275882901
 20
-49.86207274144073
 30
0.0
 10
150.3119275882901
 20
-49.86207274144073
 30
0.0
 10
155.8574977908967
 20
-49.86207274144073
 30
0.0
 10
155.8574977908967
 20
-49.86207274144073
 30
0.0
 10
155.8574977908967
 20
-49.86207274144073
 30
0.0
 10
155.8574977908967
 20
-47.47031520080603
 30
0.0
 10
155.8574977908967
 20
-47.47031520080603
 30
0.0
 10
155.8574977908967
 20
-47.47031520080603
 30
0.0
 10
150.1424288904158
 20
-47.47031520080603
 30
0.0
 10
150.1424288904158
 20
-47.47031520080603
 30
0.0
 10
143.9407402526433
 20
-47.47031520080603
 30
0.0
 10
142.0779771237687
 20
-47.55489229496892
 30
0.0
 10
142.6918931392402
 20
-47.82998316946612
 30
0.0
 10
142.9246093392688
 20
-47.91473251840326
 30
0.0
 10
145.4858655777778
 20
-47.99948186734041
 30
0.0
 10
149.1688449062842
 20
-48.04168428703472
 30
0.0
 10
149.1688449062842
 20
-48.04168428703472
 30
0.0
 10
155.2649413674338
 20
-48.10524629873758
 30
0.0
 10
155.2649413674338
 20
-48.10524629873758
 30
0.0
 10
155.2649413674338
 20
-48.10524629873758
 30
0.0
 10
155.2649413674338
 20
-49.2693440632035
 30
0.0
 10
155.2649413674338
 20
-49.2693440632035
 30
0.0
 10
155.2649413674338
 20
-49.2693440632035
 30
0.0
 10
149.7190266552786
 20
-49.2693440632035
 30
0.0
 10
149.7190266552786
 20
-49.2693440632035
 30
0.0
 10
149.7190266552786
 20
-49.2693440632035
 30
0.0
 10
149.7190266552786
 20
-51.66127385861246
 30
0.0
 10
149.7190266552786
 20
-51.66127385861246
 30
0.0
 10
149.7190266552786
 20
-51.66127385861246
 30
0.0
 10
155.2649413674338
 20
-51.66127385861246
 30
0.0
 10
155.2649413674338
 20
-51.66127385861246
 30
0.0
 10
155.2649413674338
 20
-51.66127385861246
 30
0.0
 10
155.2649413674338
 20
-52.86774629754696
 30
0.0
 10
155.2649413674338
 20
-52.86774629754696
 30
0.0
 10
155.2649413674338
 20
-52.86774629754696
 30
0.0
 10
148.5339138083527
 20
-52.86774629754696
 30
0.0
 10
148.5339138083527
 20
-52.86774629754696
 30
0.0
 10
148.5339138083527
 20
-52.86774629754696
 30
0.0
 10
148.5339138083527
 20
-49.2693440632035
 30
0.0
 10
148.5339138083527
 20
-49.2693440632035
 30
0.0
 10
148.5339138083527
 20
-49.2693440632035
 30
0.0
 10
146.1207966757094
 20
-49.2693440632035
 30
0.0
 10
146.1207966757094
 20
-49.2693440632035
 30
0.0
 10
146.1207966757094
 20
-49.2693440632035
 30
0.0
 10
146.1207966757094
 20
-52.80418428584409
 30
0.0
 10
146.1207966757094
 20
-52.80418428584409
 30
0.0
 10
146.1207966757094
 20
-52.80418428584409
 30
0.0
 10
143.6231024489033
 20
-52.91012097201553
 30
0.0
 10
143.6231024489033
 20
-52.91012097201553
 30
0.0
 10
140.5752264731027
 20
-53.0158854034127
 30
0.0
 10
139.6226575714311
 20
-53.20639918374702
 30
0.0
 10
141.4006713513686
 20
-53.35453828961275
 30
0.0
 10
141.4006713513686
 20
-53.35453828961275
 30
0.0
 10
141.4006713513686
 20
-53.35453828961275
 30
0.0
 10
141.4006713513686
 20
-53.35453828961275
 30
0.0
  0
ENDSEC
  0
SECTION
  2
OBJECTS
  0
DICTIONARY
  5
C
330
0
100
AcDbDictionary
  3
ACAD_GROUP
350
D
  3
ACAD_LAYOUT
350
1A
  3
ACAD_MLINESTYLE
350
17
  3
ACAD_PLOTSETTINGS
350
19
  3
ACAD_TABLESTYLE
350
9C
  3
ACAD_VISUALSTYLE
350
2A
1001
ACAD
1000
TREAT_AS_HARD
1070
     0
  0
DICTIONARY
  5
D
102
{ACAD_REACTORS
330
C
102
}
330
C
100
AcDbDictionary
1001
ACAD
1000
TREAT_AS_HARD
1070
     0
  0
DICTIONARY
  5
1A
102
{ACAD_REACTORS
330
C
102
}
330
C
100
AcDbDictionary
1001
ACAD
1000
TREAT_AS_HARD
1070
     0
  0
DICTIONARY
  5
17
102
{ACAD_REACTORS
330
C
102
}
330
C
100
AcDbDictionary
  3
STANDARD
350
18
1001
ACAD
1000
TREAT_AS_HARD
1070
     0
  0
DICTIONARY
  5
19
102
{ACAD_REACTORS
330
C
102
}
330
C
100
AcDbDictionary
1001
ACAD
1000
TREAT_AS_HARD
1070
     0
  0
DICTIONARY
  5
9C
102
{ACAD_REACTORS
330
C
102
}
330
C
100
AcDbDictionary
1001
ACAD
1000
TREAT_AS_HARD
1070
     0
  0
DICTIONARY
  5
2A
102
{ACAD_REACTORS
330
C
102
}
330
C
100
AcDbDictionary
  3
2DWIREFRAME
350
2F
  3
3D_HIDDEN
350
31
  3
3DWIREFRAME
350
30
  3
BASIC
350
32
  3
BRIGHTEN
350
36
  3
COLORCHANGE
350
3A
  3
CONCEPTUAL
350
34
  3
DIM
350
35
  3
FACEPATTERN
350
39
  3
FLAT
350
2B
  3
FLATWITHEDGES
350
2C
  3
GOURAUD
350
2D
  3
GOURAUDWITHEDGES
350
2E
  3
LINEPATTERN
350
38
  3
REALISTIC
350
33
  3
THICKEN
350
37
1001
ACAD
1000
TREAT_AS_HARD
1070
     0
  0
MLINESTYLE
  5
18
102
{ACAD_REACTORS
330
17
102
}
330
17
100
AcDbMlineStyle
  2
Standard
 70
     0
  3

 62
   256
 51
90.0
 52
90.0
 71
     2
 49
0.5
 62
   256
  6
BYLAYER
 49
-0.5
 62
   256
  6
BYLAYER
  0
VISUALSTYLE
  5
2F
102
{ACAD_REACTORS
330
2A
102
}
330
2A
100
AcDbVisualStyle
  2
2dWireframe
 70
     4
 71
     0
 72
     2
 73
     0
 90
        0
 40
-0.6
 41
-30.0
 62
     5
 63
     7
 74
     1
 91
        4
 64
     7
 65
   257
 75
     1
175
     1
 42
1.0
 92
        0
 66
   257
 43
1.0
 76
     1
 77
     6
 78
     2
 67
     7
 79
     5
170
     0
171
     0
290
     0
174
     0
 93
        1
 44
0.0
173
     0
291
     0
 45
0.0
1001
ACAD
1000
AcDbSavedByObjectVersion
1070
     0
  0
VISUALSTYLE
  5
31
102
{ACAD_REACTORS
330
2A
102
}
330
2A
100
AcDbVisualStyle
  2
3D Hidden
 70
     6
 71
     1
 72
     2
 73
     2
 90
        0
 40
-0.6
 41
-30.0
 62
     5
 63
     7
 74
     2
 91
        2
 64
     7
 65
   257
 75
     2
175
     1
 42
40.0
 92
        0
 66
   257
 43
1.0
 76
     1
 77
     6
 78
     2
 67
     7
 79
     3
170
     0
171
     0
290
     0
174
     0
 93
        1
 44
0.0
173
     0
291
     0
 45
0.0
1001
ACAD
1000
AcDbSavedByObjectVersion
1070
     0
  0
VISUALSTYLE
  5
30
102
{ACAD_REACTORS
330
2A
102
}
330
2A
100
AcDbVisualStyle
  2
3dWireframe
 70
     5
 71
     0
 72
     2
 73
     0
 90
        0
 40
-0.6
 41
-30.0
 62
     5
 63
     7
 74
     1
 91
        4
 64
     7
 65
   257
 75
     1
175
     1
 42
1.0
 92
        0
 66
   257
 43
1.0
 76
     1
 77
     6
 78
     2
 67
     7
 79
     5
170
     0
171
     0
290
     0
174
     0
 93
        1
 44
0.0
173
     0
291
     0
 45
0.0
1001
ACAD
1000
AcDbSavedByObjectVersion
1070
     0
  0
VISUALSTYLE
  5
32
102
{ACAD_REACTORS
330
2A
102
}
330
2A
100
AcDbVisualStyle
  2
Basic
 70
     7
 71
     1
 72
     0
 73
     1
 90
        0
 40
-0.6
 41
-30.0
 62
     5
 63
     7
 74
     0
 91
        4
 64
     7
 65
   257
 75
     1
175
     1
 42
1.0
 92
        8
 66
     7
 43
1.0
 76
     1
 77
     6
 78
     2
 67
     7
 79
     5
170
     0
171
     0
290
     0
174
     0
 93
        1
 44
0.0
173
     0
291
     1
 45
0.0
1001
ACAD
1000
AcDbSavedByObjectVersion
1070
     0
  0
VISUALSTYLE
  5
36
102
{ACAD_REACTORS
330
2A
102
}
330
2A
100
AcDbVisualStyle
  2
Brighten
 70
    12
 71
     2
 72
     2
 73
     0
 90
        0
 40
-0.6
 41
-30.0
 62
     5
 63
     7
 74
     1
 91
        4
 64
     7
 65
   257
 75
     1
175
     1
 42
1.0
 92
        8
 66
     7
 43
1.0
 76
     1
 77
     6
 78
     2
 67
     7
 79
     5
170
     0
171
     0
290
     0
174
     0
 93
        1
 44
50.0
173
     0
291
     1
 45
0.0
1001
ACAD
1000
AcDbSavedByObjectVersion
1070
     0
  0
VISUALSTYLE
  5
3A
102
{ACAD_REACTORS
330
2A
102
}
330
2A
100
AcDbVisualStyle
  2
ColorChange
 70
    16
 71
     2
 72
     2
 73
     3
 90
        0
 40
-0.6
 41
-30.0
 62
     5
 63
     8
 74
     1
 91
        4
 64
     7
 65
   257
 75
     1
175
     1
 42
1.0
 92
        8
 66
     8
 43
1.0
 76
     1
 77
     6
 78
     2
 67
     7
 79
     5
170
     0
171
     0
290
     0
174
     0
 93
        1
 44
0.0
173
     0
291
     1
 45
0.0
1001
ACAD
1000
AcDbSavedByObjectVersion
1070
     0
  0
VISUALSTYLE
  5
34
102
{ACAD_REACTORS
330
2A
102
}
330
2A
100
AcDbVisualStyle
  2
Conceptual
 70
     9
 71
     3
 72
     2
 73
     0
 90
        0
 40
-0.6
 41
-30.0
 62
     5
 63
     7
 74
     2
 91
        2
 64
     7
 65
   257
 75
     1
175
     1
 42
40.0
 92
        8
 66
     7
 43
1.0
 76
     1
 77
     6
 78
     2
 67
     7
 79
     3
170
     0
171
     0
290
     0
174
     0
 93
        1
 44
0.0
173
     0
291
     0
 45
0.0
1001
ACAD
1000
AcDbSavedByObjectVersion
1070
     0
  0
VISUALSTYLE
  5
35
102
{ACAD_REACTORS
330
2A
102
}
330
2A
100
AcDbVisualStyle
  2
Dim
 70
    11
 71
     2
 72
     2
 73
     0
 90
        0
 40
-0.6
 41
-30.0
 62
     5
 63
     7
 74
     1
 91
        4
 64
     7
 65
   257
 75
     1
175
     1
 42
1.0
 92
        8
 66
     7
 43
1.0
 76
     1
 77
     6
 78
     2
 67
     7
 79
     5
170
     0
171
     0
290
     0
174
     0
 93
        1
 44
-50.0
173
     0
291
     1
 45
0.0
1001
ACAD
1000
AcDbSavedByObjectVersion
1070
     0
  0
VISUALSTYLE
  5
39
102
{ACAD_REACTORS
330
2A
102
}
330
2A
100
AcDbVisualStyle
  2
Facepattern
 70
    15
 71
     2
 72
     2
 73
     0
 90
        0
 40
-0.6
 41
-30.0
 62
     5
 63
     7
 74
     1
 91
        4
 64
     7
 65
   257
 75
     1
175
     1
 42
1.0
 92
        8
 66
     7
 43
1.0
 76
     1
 77
     6
 78
     2
 67
     7
 79
     5
170
     0
171
     0
290
     0
174
     0
 93
        1
 44
0.0
173
     0
291
     1
 45
0.0
1001
ACAD
1000
AcDbSavedByObjectVersion
1070
     0
  0
VISUALSTYLE
  5
2B
102
{ACAD_REACTORS
330
2A
102
}
330
2A
100
AcDbVisualStyle
  2
Flat
 70
     0
 71
     2
 72
     1
 73
     1
 90
        2
 40
-0.6
 41
30.0
 62
     5
 63
     7
 74
     0
 91
        4
 64
     7
 65
   257
 75
     1
175
     1
 42
1.0
 92
        8
 66
     7
 43
1.0
 76
     1
 77
     6
 78
     2
 67
     7
 79
     5
170
     0
171
     0
290
     0
174
     0
 93
       13
 44
0.0
173
     0
291
     1
 45
0.0
1001
ACAD
1000
AcDbSavedByObjectVersion
1070
     0
  0
VISUALSTYLE
  5
2C
102
{ACAD_REACTORS
330
2A
102
}
330
2A
100
AcDbVisualStyle
  2
FlatWithEdges
 70
     1
 71
     2
 72
     1
 73
     1
 90
        2
 40
-0.6
 41
30.0
 62
     5
 63
     7
 74
     1
 91
        4
 64
     7
 65
   257
 75
     1
175
     1
 42
1.0
 92
        0
 66
   257
 43
1.0
 76
     1
 77
     6
 78
     2
 67
     7
 79
     5
170
     0
171
     0
290
     0
174
     0
 93
       13
 44
0.0
173
     0
291
     1
 45
0.0
1001
ACAD
1000
AcDbSavedByObjectVersion
1070
     0
  0
VISUALSTYLE
  5
2D
102
{ACAD_REACTORS
330
2A
102
}
330
2A
100
AcDbVisualStyle
  2
Gouraud
 70
     2
 71
     2
 72
     2
 73
     1
 90
        2
 40
-0.6
 41
30.0
 62
     5
 63
     7
 74
     0
 91
        4
 64
     7
 65
   257
 75
     1
175
     1
 42
1.0
 92
        0
 66
     7
 43
1.0
 76
     1
 77
     6
 78
     2
 67
     7
 79
     5
170
     0
171
     0
290
     0
174
     0
 93
       13
 44
0.0
173
     0
291
     1
 45
0.0
1001
ACAD
1000
AcDbSavedByObjectVersion
1070
     0
  0
VISUALSTYLE
  5
2E
102
{ACAD_REACTORS
330
2A
102
}
330
2A
100
AcDbVisualStyle
  2
GouraudWithEdges
 70
     3
 71
     2
 72
     2
 73
     1
 90
        2
 40
-0.6
 41
30.0
 62
     5
 63
     7
 74
     1
 91
        4
 64
     7
 65
   257
 75
     1
175
     1
 42
1.0
 92
        0
 66
   257
 43
1.0
 76
     1
 77
     6
 78
     2
 67
     7
 79
     5
170
     0
171
     0
290
     0
174
     0
 93
       13
 44
0.0
173
     0
291
     1
 45
0.0
1001
ACAD
1000
AcDbSavedByObjectVersion
1070
     0
  0
VISUALSTYLE
  5
38
102
{ACAD_REACTORS
330
2A
102
}
330
2A
100
AcDbVisualStyle
  2
Linepattern
 70
    14
 71
     2
 72
     2
 73
     0
 90
        0
 40
-0.6
 41
-30.0
 62
     5
 63
     7
 74
     1
 91
        4
 64
     7
 65
   257
 75
     7
175
     7
 42
1.0
 92
        8
 66
     7
 43
1.0
 76
     1
 77
     6
 78
     2
 67
     7
 79
     5
170
     0
171
     0
290
     0
174
     0
 93
        1
 44
0.0
173
     0
291
     1
 45
0.0
1001
ACAD
1000
AcDbSavedByObjectVersion
1070
     0
  0
VISUALSTYLE
  5
33
102
{ACAD_REACTORS
330
2A
102
}
330
2A
100
AcDbVisualStyle
  2
Realistic
 70
     8
 71
     2
 72
     2
 73
     0
 90
        0
 40
-0.6
 41
-30.0
 62
     5
 63
     7
 74
     1
 91
        0
 64
     7
 65
   257
 75
     1
175
     1
 42
1.0
 92
        8
 66
     8
 43
1.0
 76
     1
 77
     6
 78
     2
 67
     7
 79
     5
170
     0
171
     0
290
     0
174
     0
 93
       13
 44
0.0
173
     0
291
     0
 45
0.0
1001
ACAD
1000
AcDbSavedByObjectVersion
1070
     0
  0
VISUALSTYLE
  5
37
102
{ACAD_REACTORS
330
2A
102
}
330
2A
100
AcDbVisualStyle
  2
Thicken
 70
    13
 71
     2
 72
     2
 73
     0
 90
        0
 40
-0.6
 41
-30.0
 62
     5
 63
     7
 74
     1
 91
        4
 64
     7
 65
   257
 75
     1
175
     1
 42
1.0
 92
       12
 66
     7
 43
1.0
 76
     1
 77
     6
 78
     2
 67
     7
 79
     5
170
     0
171
     0
290
     0
174
     0
 93
        1
 44
0.0
173
     0
291
     1
 45
0.0
1001
ACAD
1000
AcDbSavedByObjectVersion
1070
     0
  0
ENDSEC
  0
EOF
