  0
SECTION
  2
HEADER
  9
$ACADVER
  1
AC1012
  9
$DWGCODEPAGE
  3
ansi_1252
  9
$INSBASE
 10
0.0
 20
0.0
 30
0.0
  9
$EXTMIN
 10
1.000000000000000E+20
 20
1.000000000000000E+20
 30
1.000000000000000E+20
  9
$EXTMAX
 10
-1.000000000000000E+20
 20
-1.000000000000000E+20
 30
-1.000000000000000E+20
  9
$LIMMIN
 10
0.0
 20
0.0
  9
$LIMMAX
 10
12.0
 20
9.0
  9
$ORTHOMODE
 70
     0
  9
$REGENMODE
 70
     1
  9
$FILLMODE
 70
     1
  9
$QTEXTMODE
 70
     0
  9
$MIRRTEXT
 70
     1
  9
$DRAGMODE
 70
     2
  9
$LTSCALE
 40
1.0
  9
$OSMODE
 70
    37
  9
$ATTMODE
 70
     1
  9
$TEXTSIZE
 40
0.2
  9
$TRACEWID
 40
0.05
  9
$TEXTSTYLE
  7
STANDARD
  9
$CLAYER
  8
0
  9
$CELTYPE
  6
BYLAYER
  9
$CECOLOR
 62
   256
  9
$CELTSCALE
 40
1.0
  9
$DELOBJ
 70
     1
  9
$DISPSILH
 70
     0
  9
$DIMSCALE
 40
1.0
  9
$DIMASZ
 40
0.18
  9
$DIMEXO
 40
0.0625
  9
$DIMDLI
 40
0.38
  9
$DIMRND
 40
0.0
  9
$DIMDLE
 40
0.0
  9
$DIMEXE
 40
0.18
  9
$DIMTP
 40
0.0
  9
$DIMTM
 40
0.0
  9
$DIMTXT
 40
0.18
  9
$DIMCEN
 40
0.09
  9
$DIMTSZ
 40
0.0
  9
$DIMTOL
 70
     0
  9
$DIMLIM
 70
     0
  9
$DIMTIH
 70
     1
  9
$DIMTOH
 70
     1
  9
$DIMSE1
 70
     0
  9
$DIMSE2
 70
     0
  9
$DIMTAD
 70
     0
  9
$DIMZIN
 70
     0
  9
$DIMBLK
  1

  9
$DIMASO
 70
     1
  9
$DIMSHO
 70
     1
  9
$DIMPOST
  1

  9
$DIMAPOST
  1

  9
$DIMALT
 70
     0
  9
$DIMALTD
 70
     2
  9
$DIMALTF
 40
25.4
  9
$DIMLFAC
 40
1.0
  9
$DIMTOFL
 70
     0
  9
$DIMTVP
 40
0.0
  9
$DIMTIX
 70
     0
  9
$DIMSOXD
 70
     0
  9
$DIMSAH
 70
     0
  9
$DIMBLK1
  1

  9
$DIMBLK2
  1

  9
$DIMSTYLE
  2
STANDARD
  9
$DIMCLRD
 70
     0
  9
$DIMCLRE
 70
     0
  9
$DIMCLRT
 70
     0
  9
$DIMTFAC
 40
1.0
  9
$DIMGAP
 40
0.09
  9
$DIMJUST
 70
     0
  9
$DIMSD1
 70
     0
  9
$DIMSD2
 70
     0
  9
$DIMTOLJ
 70
     1
  9
$DIMTZIN
 70
     0
  9
$DIMALTZ
 70
     0
  9
$DIMALTTZ
 70
     0
  9
$DIMFIT
 70
     3
  9
$DIMUPT
 70
     0
  9
$DIMUNIT
 70
     2
  9
$DIMDEC
 70
     4
  9
$DIMTDEC
 70
     4
  9
$DIMALTU
 70
     2
  9
$DIMALTTD
 70
     2
  9
$DIMTXSTY
  7
STANDARD
  9
$DIMAUNIT
 70
     0
  9
$LUNITS
 70
     2
  9
$LUPREC
 70
     4
  9
$SKETCHINC
 40
0.1
  9
$FILLETRAD
 40
0.5
  9
$AUNITS
 70
     0
  9
$AUPREC
 70
     0
  9
$MENU
  1
.
  9
$ELEVATION
 40
0.0
  9
$PELEVATION
 40
0.0
  9
$THICKNESS
 40
0.0
  9
$LIMCHECK
 70
     0
  9
$CHAMFERA
 40
0.5
  9
$CHAMFERB
 40
0.5
  9
$CHAMFERC
 40
1.0
  9
$CHAMFERD
 40
0.0
  9
$SKPOLY
 70
     0
  9
$TDCREATE
 40
2457751.682495243
  9
$TDUPDATE
 40
2457751.682495255
  9
$TDINDWG
 40
0.0000000116
  9
$TDUSRTIMER
 40
0.0000000116
  9
$USRTIMER
 70
     1
  9
$ANGBASE
 50
0.0
  9
$ANGDIR
 70
     0
  9
$PDMODE
 70
     0
  9
$PDSIZE
 40
0.0
  9
$PLINEWID
 40
0.0
  9
$COORDS
 70
     1
  9
$SPLFRAME
 70
     0
  9
$SPLINETYPE
 70
     6
  9
$SPLINESEGS
 70
     8
  9
$ATTDIA
 70
     0
  9
$ATTREQ
 70
     1
  9
$HANDLING
 70
     1
  9
$HANDSEED
  5
9D
  9
$SURFTAB1
 70
     6
  9
$SURFTAB2
 70
     6
  9
$SURFTYPE
 70
     6
  9
$SURFU
 70
     6
  9
$SURFV
 70
     6
  9
$UCSNAME
  2

  9
$UCSORG
 10
0.0
 20
0.0
 30
0.0
  9
$UCSXDIR
 10
1.0
 20
0.0
 30
0.0
  9
$UCSYDIR
 10
0.0
 20
1.0
 30
0.0
  9
$PUCSNAME
  2

  9
$PUCSORG
 10
0.0
 20
0.0
 30
0.0
  9
$PUCSXDIR
 10
1.0
 20
0.0
 30
0.0
  9
$PUCSYDIR
 10
0.0
 20
1.0
 30
0.0
  9
$USERI1
 70
     0
  9
$USERI2
 70
     0
  9
$USERI3
 70
     0
  9
$USERI4
 70
     0
  9
$USERI5
 70
     0
  9
$USERR1
 40
0.0
  9
$USERR2
 40
0.0
  9
$USERR3
 40
0.0
  9
$USERR4
 40
0.0
  9
$USERR5
 40
0.0
  9
$WORLDVIEW
 70
     1
  9
$SHADEDGE
 70
     3
  9
$SHADEDIF
 70
    70
  9
$TILEMODE
 70
     1
  9
$MAXACTVP
 70
    64
  9
$PINSBASE
 10
0.0
 20
0.0
 30
0.0
  9
$PLIMCHECK
 70
     0
  9
$PEXTMIN
 10
1.000000000000000E+20
 20
1.000000000000000E+20
 30
1.000000000000000E+20
  9
$PEXTMAX
 10
-1.000000000000000E+20
 20
-1.000000000000000E+20
 30
-1.000000000000000E+20
  9
$PLIMMIN
 10
0.0
 20
0.0
  9
$PLIMMAX
 10
12.0
 20
9.0
  9
$UNITMODE
 70
     0
  9
$VISRETAIN
 70
     1
  9
$PLINEGEN
 70
     0
  9
$PSLTSCALE
 70
     1
  9
$TREEDEPTH
 70
  3020
  9
$PICKSTYLE
 70
     1
  9
$CMLSTYLE
  2
STANDARD
  9
$CMLJUST
 70
     0
  9
$CMLSCALE
 40
1.0
  9
$SAVEIMAGES
 70
     1
  0
ENDSEC
  0
SECTION
  2
CLASSES
  0
CLASS
  1
ACDBDICTIONARYWDFLT
  2
AcDbDictionaryWithDefault
  3
ObjectDBX Classes
 90
    32768
280
     0
281
     0
  0
CLASS
  1
VISUALSTYLE
  2
AcDbVisualStyle
  3
ObjectDBX Classes
 90
     4095
280
     0
281
     0
  0
CLASS
  1
XRECORD
  2
AcDbXrecord
  3
AutoCAD 2000
 90
    32768
280
     0
281
     0
  0
CLASS
  1
LWPOLYLINE
  2
AcDbPolyline
  3
AutoCAD 2000
 90
    32768
280
     0
281
     1
  0
CLASS
  1
HATCH
  2
AcDbHatch
  3
AutoCAD 2000
 90
    32768
280
     0
281
     1
  0
CLASS
  1
ACDBPLACEHOLDER
  2
AcDbPlaceHolder
  3
ObjectDBX Classes
 90
        0
280
     0
281
     0
  0
CLASS
  1
LAYOUT
  2
AcDbLayout
  3
ObjectDBX Classes
 90
        0
280
     0
281
     0
  0
ENDSEC
  0
SECTION
  2
TABLES
  0
TABLE
  2
VPORT
  5
8
330
0
100
AcDbSymbolTable
 70
     1
  0
VPORT
  5
29
330
8
100
AcDbSymbolTableRecord
100
AcDbViewportTableRecord
  2
*ACTIVE
 70
     0
 10
0.0
 20
0.0
 11
1.0
 21
1.0
 12
0.0
 22
0.0
 13
0.0
 23
0.0
 14
0.5
 24
0.5
 15
0.5
 25
0.5
 16
0.0
 26
0.0
 36
1.0
 17
148.4999796178229
 27
-105.0008259828644
 37
0.0
 40
210.0016519657288
 41
1.414274394775308
 42
50.0
 43
0.0
 44
0.0
 50
0.0
 51
0.0
 71
     0
 72
   100
 73
     1
 74
     3
 75
     0
 76
     0
 77
     0
 78
     0
  0
ENDTAB
  0
TABLE
  2
LTYPE
  5
5
330
0
100
AcDbSymbolTable
 70
     1
  0
LTYPE
  5
14
330
5
100
AcDbSymbolTableRecord
100
AcDbLinetypeTableRecord
  2
BYBLOCK
 70
     0
  3

 72
    65
 73
     0
 40
0.0
  0
LTYPE
  5
15
330
5
100
AcDbSymbolTableRecord
100
AcDbLinetypeTableRecord
  2
BYLAYER
 70
     0
  3

 72
    65
 73
     0
 40
0.0
  0
LTYPE
  5
16
330
5
100
AcDbSymbolTableRecord
100
AcDbLinetypeTableRecord
  2
CONTINUOUS
 70
     0
  3
Solid line
 72
    65
 73
     0
 40
0.0
  0
ENDTAB
  0
TABLE
  2
LAYER
  5
2
330
0
100
AcDbSymbolTable
 70
     2
  0
LAYER
  5
10
330
2
100
AcDbSymbolTableRecord
100
AcDbLayerTableRecord
  2
0
 70
     0
 62
     7
  6
CONTINUOUS
  0
LAYER
  5
3B
330
2
100
AcDbSymbolTableRecord
100
AcDbLayerTableRecord
  2
LAYER_1
 70
     0
 62
     7
  6
CONTINUOUS
  0
ENDTAB
  0
TABLE
  2
STYLE
  5
3
330
0
100
AcDbSymbolTable
 70
     1
  0
STYLE
  5
11
330
3
100
AcDbSymbolTableRecord
100
AcDbTextStyleTableRecord
  2
STANDARD
 70
     0
 40
0.0
 41
1.0
 50
0.0
 71
     0
 42
0.2
  3
txt
  4

  0
ENDTAB
  0
TABLE
  2
VIEW
  5
6
330
0
100
AcDbSymbolTable
 70
     0
  0
ENDTAB
  0
TABLE
  2
UCS
  5
7
330
0
100
AcDbSymbolTable
 70
     0
  0
ENDTAB
  0
TABLE
  2
APPID
  5
9
330
0
100
AcDbSymbolTable
 70
     1
  0
APPID
  5
12
330
9
100
AcDbSymbolTableRecord
100
AcDbRegAppTableRecord
  2
ACAD
 70
     0
  0
ENDTAB
  0
TABLE
  2
DIMSTYLE
  5
A
330
0
100
AcDbSymbolTable
 70
     1
  0
DIMSTYLE
105
27
330
A
100
AcDbSymbolTableRecord
100
AcDbDimStyleTableRecord
  2
STANDARD
 70
     0
  3

  4

  5

  6

  7

 40
1.0
 41
0.18
 42
0.0625
 43
0.38
 44
0.18
 45
0.0
 46
0.0
 47
0.0
 48
0.0
140
0.18
141
0.09
142
0.0
143
25.4
144
1.0
145
0.0
146
1.0
147
0.09
 71
     0
 72
     0
 73
     1
 74
     1
 75
     0
 76
     0
 77
     0
 78
     0
170
     0
171
     2
172
     0
173
     0
174
     0
175
     0
176
     0
177
     0
178
     0
270
     2
271
     4
272
     4
273
     2
274
     2
340
11
275
     0
280
     0
281
     0
282
     0
283
     1
284
     0
285
     0
286
     0
287
     3
288
     0
  0
ENDTAB
  0
TABLE
  2
BLOCK_RECORD
  5
1
330
0
100
AcDbSymbolTable
 70
     1
  0
BLOCK_RECORD
  5
1F
330
1
100
AcDbSymbolTableRecord
100
AcDbBlockTableRecord
  2
*MODEL_SPACE
  0
BLOCK_RECORD
  5
1B
330
1
100
AcDbSymbolTableRecord
100
AcDbBlockTableRecord
  2
*PAPER_SPACE
  0
ENDTAB
  0
ENDSEC
  0
SECTION
  2
BLOCKS
  0
BLOCK
  5
20
330
1F
100
AcDbEntity
  8
0
100
AcDbBlockBegin
  2
*MODEL_SPACE
 70
     0
 71
     0
 10
0.0
 20
0.0
 30
0.0
  3
*MODEL_SPACE
  1

  0
ENDBLK
  5
21
330
1F
100
AcDbEntity
  8
0
100
AcDbBlockEnd
  0
BLOCK
  5
1C
330
1B
100
AcDbEntity
 67
     1
  8
0
100
AcDbBlockBegin
  2
*PAPER_SPACE
 70
     0
 71
     0
 10
0.0
 20
0.0
 30
0.0
  3
*PAPER_SPACE
  1

  0
ENDBLK
  5
1D
330
1B
100
AcDbEntity
 67
     1
  8
0
100
AcDbBlockEnd
  0
ENDSEC
  0
SECTION
  2
ENTITIES
  0
POLYLINE
  5
3C
330
1F
100
AcDbEntity
  8
LAYER_1
 62
     7
100
AcDb2dPolyline
 66
     1
 10
0.0
 20
0.0
 30
0.0
  0
VERTEX
  5
3D
330
3C
100
AcDbEntity
  8
LAYER_1
 62
     7
100
AcDbVertex
100
AcDb2dVertex
 10
133.3996093416501
 20
-40.54877386139059
 30
0.0
  0
VERTEX
  5
3E
330
3C
100
AcDbEntity
  8
LAYER_1
 62
     7
100
AcDbVertex
100
AcDb2dVertex
 10
163.4139702282437
 20
-40.54877386139059
 30
0.0
  0
VERTEX
  5
3F
330
3C
100
AcDbEntity
  8
LAYER_1
 62
     7
100
AcDbVertex
100
AcDb2dVertex
 10
163.4139702282437
 20
-169.0515244803066
 30
0.0
  0
VERTEX
  5
40
330
3C
100
AcDbEntity
  8
LAYER_1
 62
     7
100
AcDbVertex
100
AcDb2dVertex
 10
133.3996093416501
 20
-169.0515244803066
 30
0.0
  0
VERTEX
  5
41
330
3C
100
AcDbEntity
  8
LAYER_1
 62
     7
100
AcDbVertex
100
AcDb2dVertex
 10
133.3996093416501
 20
-40.54877386139059
 30
0.0
  0
SEQEND
  5
42
330
3C
100
AcDbEntity
  8
LAYER_1
  0
SPLINE
  5
43
330
1F
100
AcDbEntity
  8
LAYER_1
 62
     7
100
AcDbSpline
210
0.0
220
0.0
230
1.0
 70
    11
 71
     3
 72
    20
 73
    16
 74
     0
 42
0.0000000001
 43
0.0000000001
 40
0.0
 40
0.0
 40
0.0
 40
0.0
 40
1.0
 40
1.0
 40
1.0
 40
2.0
 40
2.0
 40
2.0
 40
3.0
 40
3.0
 40
3.0
 40
4.0
 40
4.0
 40
4.0
 40
5.0
 40
5.0
 40
5.0
 40
5.0
 10
142.5013793589059
 20
-43.55444741749681
 30
0.0
 10
142.5013793589059
 20
-44.44345430746553
 30
0.0
 10
141.7816989120372
 20
-45.16313475433422
 30
0.0
 10
140.9138793593028
 20
-45.16313475433422
 30
0.0
 10
140.0248724693341
 20
-45.16313475433422
 30
0.0
 10
139.3051920224654
 20
-44.44345430746553
 30
0.0
 10
139.3051920224654
 20
-43.55444741749681
 30
0.0
 10
139.3051920224654
 20
-42.66544052752808
 30
0.0
 10
140.0248724693341
 20
-41.96694741789369
 30
0.0
 10
140.9138793593028
 20
-41.96694741789369
 30
0.0
 10
141.7816989120372
 20
-41.96694741789369
 30
0.0
 10
142.5013793589059
 20
-42.66544052752808
 30
0.0
 10
142.5013793589059
 20
-43.55444741749681
 30
0.0
 10
142.5013793589059
 20
-43.55444741749681
 30
0.0
 10
142.5013793589059
 20
-43.55444741749681
 30
0.0
 10
142.5013793589059
 20
-43.55444741749681
 30
0.0
  0
SPLINE
  5
44
330
1F
100
AcDbEntity
  8
LAYER_1
 62
     7
100
AcDbSpline
210
0.0
220
0.0
230
1.0
 70
    11
 71
     3
 72
    20
 73
    16
 74
     0
 42
0.0000000001
 43
0.0000000001
 40
0.0
 40
0.0
 40
0.0
 40
0.0
 40
1.0
 40
1.0
 40
1.0
 40
2.0
 40
2.0
 40
2.0
 40
3.0
 40
3.0
 40
3.0
 40
4.0
 40
4.0
 40
4.0
 40
5.0
 40
5.0
 40
5.0
 40
5.0
 10
142.5013793589059
 20
-166.0456786694261
 30
0.0
 10
142.5013793589059
 20
-166.9348578141691
 30
0.0
 10
141.7816989120372
 20
-167.6545382610378
 30
0.0
 10
140.9138793593028
 20
-167.6545382610378
 30
0.0
 10
140.0248724693341
 20
-167.6545382610378
 30
0.0
 10
139.3051920224654
 20
-166.9348578141691
 30
0.0
 10
139.3051920224654
 20
-166.0456786694261
 30
0.0
 10
139.3051920224654
 20
-165.1782036262402
 30
0.0
 10
140.0248724693341
 20
-164.458178669823
 30
0.0
 10
140.9138793593028
 20
-164.458178669823
 30
0.0
 10
141.7816989120372
 20
-164.458178669823
 30
0.0
 10
142.5013793589059
 20
-165.1782036262402
 30
0.0
 10
142.5013793589059
 20
-166.0456786694261
 30
0.0
 10
142.5013793589059
 20
-166.0456786694261
 30
0.0
 10
142.5013793589059
 20
-166.0456786694261
 30
0.0
 10
142.5013793589059
 20
-166.0456786694261
 30
0.0
  0
POLYLINE
  5
45
330
1F
100
AcDbEntity
  8
LAYER_1
 62
   250
100
AcDb2dPolyline
 66
     1
 10
0.0
 20
0.0
 30
0.0
  0
VERTEX
  5
46
330
45
100
AcDbEntity
  8
LAYER_1
 62
   250
100
AcDbVertex
100
AcDb2dVertex
 10
152.407234662419
 20
-66.18149005506922
 30
0.0
  0
VERTEX
  5
47
330
45
100
AcDbEntity
  8
LAYER_1
 62
   250
100
AcDbVertex
100
AcDb2dVertex
 10
153.4655679954878
 20
-66.18149005506922
 30
0.0
  0
VERTEX
  5
48
330
45
100
AcDbEntity
  8
LAYER_1
 62
   250
100
AcDbVertex
100
AcDb2dVertex
 10
153.4655679954878
 20
-64.97501761613472
 30
0.0
  0
VERTEX
  5
49
330
45
100
AcDbEntity
  8
LAYER_1
 62
   250
100
AcDbVertex
100
AcDb2dVertex
 10
150.7563449058873
 20
-64.97501761613472
 30
0.0
  0
VERTEX
  5
4A
330
45
100
AcDbEntity
  8
LAYER_1
 62
   250
100
AcDbVertex
100
AcDb2dVertex
 10
151.0739827096274
 20
-65.56774629437196
 30
0.0
  0
VERTEX
  5
4B
330
45
100
AcDbEntity
  8
LAYER_1
 62
   250
100
AcDbVertex
100
AcDb2dVertex
 10
151.3702609213588
 20
-66.18149005506922
 30
0.0
  0
VERTEX
  5
4C
330
45
100
AcDbEntity
  8
LAYER_1
 62
   250
100
AcDbVertex
100
AcDb2dVertex
 10
152.407234662419
 20
-66.18149005506922
 30
0.0
  0
VERTEX
  5
4D
330
45
100
AcDbEntity
  8
LAYER_1
 62
   250
100
AcDbVertex
100
AcDb2dVertex
 10
152.407234662419
 20
-66.18149005506922
 30
0.0
  0
SEQEND
  5
4E
330
45
100
AcDbEntity
  8
LAYER_1
  0
POLYLINE
  5
4F
330
1F
100
AcDbEntity
  8
LAYER_1
 62
   250
100
AcDb2dPolyline
 66
     1
 10
0.0
 20
0.0
 30
0.0
  0
VERTEX
  5
50
330
4F
100
AcDbEntity
  8
LAYER_1
 62
   250
100
AcDbVertex
100
AcDb2dVertex
 10
151.9628173448218
 20
-64.38246119267176
 30
0.0
  0
VERTEX
  5
51
330
4F
100
AcDbEntity
  8
LAYER_1
 62
   250
100
AcDbVertex
100
AcDb2dVertex
 10
154.0584689284993
 20
-64.38246119267176
 30
0.0
  0
VERTEX
  5
52
330
4F
100
AcDbEntity
  8
LAYER_1
 62
   250
100
AcDbVertex
100
AcDb2dVertex
 10
154.0584689284993
 20
-66.77421873330645
 30
0.0
  0
VERTEX
  5
53
330
4F
100
AcDbEntity
  8
LAYER_1
 62
   250
100
AcDbVertex
100
AcDb2dVertex
 10
151.0739827096274
 20
-66.77421873330645
 30
0.0
  0
VERTEX
  5
54
330
4F
100
AcDbEntity
  8
LAYER_1
 62
   250
100
AcDbVertex
100
AcDb2dVertex
 10
150.4600666941558
 20
-65.56774629437196
 30
0.0
  0
VERTEX
  5
55
330
4F
100
AcDbEntity
  8
LAYER_1
 62
   250
100
AcDbVertex
100
AcDb2dVertex
 10
149.8671657611443
 20
-64.38246119267176
 30
0.0
  0
VERTEX
  5
56
330
4F
100
AcDbEntity
  8
LAYER_1
 62
   250
100
AcDbVertex
100
AcDb2dVertex
 10
151.9628173448218
 20
-64.38246119267176
 30
0.0
  0
VERTEX
  5
57
330
4F
100
AcDbEntity
  8
LAYER_1
 62
   250
100
AcDbVertex
100
AcDb2dVertex
 10
151.9628173448218
 20
-64.38246119267176
 30
0.0
  0
SEQEND
  5
58
330
4F
100
AcDbEntity
  8
LAYER_1
  0
POLYLINE
  5
59
330
1F
100
AcDbEntity
  8
LAYER_1
 62
   250
100
AcDb2dPolyline
 66
     1
 10
0.0
 20
0.0
 30
0.0
  0
VERTEX
  5
5A
330
59
100
AcDbEntity
  8
LAYER_1
 62
   250
100
AcDbVertex
100
AcDb2dVertex
 10
151.5184000272246
 20
-51.06854518037522
 30
0.0
  0
VERTEX
  5
5B
330
59
100
AcDbEntity
  8
LAYER_1
 62
   250
100
AcDbVertex
100
AcDb2dVertex
 10
153.4655679954878
 20
-51.06854518037522
 30
0.0
  0
VERTEX
  5
5C
330
59
100
AcDbEntity
  8
LAYER_1
 62
   250
100
AcDbVertex
100
AcDb2dVertex
 10
153.4655679954878
 20
-49.86207274144073
 30
0.0
  0
VERTEX
  5
5D
330
59
100
AcDbEntity
  8
LAYER_1
 62
   250
100
AcDbVertex
100
AcDb2dVertex
 10
148.9783311259499
 20
-49.86207274144073
 30
0.0
  0
VERTEX
  5
5E
330
59
100
AcDbEntity
  8
LAYER_1
 62
   250
100
AcDbVertex
100
AcDb2dVertex
 10
149.2746093376813
 20
-50.45480141967797
 30
0.0
  0
VERTEX
  5
5F
330
59
100
AcDbEntity
  8
LAYER_1
 62
   250
100
AcDbVertex
100
AcDb2dVertex
 10
149.5708875494128
 20
-51.06854518037522
 30
0.0
  0
VERTEX
  5
60
330
59
100
AcDbEntity
  8
LAYER_1
 62
   250
100
AcDbVertex
100
AcDb2dVertex
 10
151.5184000272246
 20
-51.06854518037522
 30
0.0
  0
VERTEX
  5
61
330
59
100
AcDbEntity
  8
LAYER_1
 62
   250
100
AcDbVertex
100
AcDb2dVertex
 10
151.5184000272246
 20
-51.06854518037522
 30
0.0
  0
SEQEND
  5
62
330
59
100
AcDbEntity
  8
LAYER_1
  0
SPLINE
  5
63
330
1F
100
AcDbEntity
  8
LAYER_1
 62
   250
100
AcDbSpline
210
0.0
220
0.0
230
1.0
 70
    11
 71
     3
 72
    26
 73
    22
 74
     0
 42
0.0000000001
 43
0.0000000001
 40
0.0
 40
0.0
 40
0.0
 40
0.0
 40
1.0
 40
1.0
 40
1.0
 40
2.0
 40
2.0
 40
2.0
 40
3.0
 40
3.0
 40
3.0
 40
4.0
 40
4.0
 40
4.0
 40
5.0
 40
5.0
 40
5.0
 40
6.0
 40
6.0
 40
6.0
 40
7.0
 40
7.0
 40
7.0
 40
7.0
 10
151.0739827096274
 20
-49.2693440632035
 30
0.0
 10
151.0739827096274
 20
-49.2693440632035
 30
0.0
 10
154.0584689284993
 20
-49.2693440632035
 30
0.0
 10
154.0584689284993
 20
-49.2693440632035
 30
0.0
 10
154.0584689284993
 20
-49.2693440632035
 30
0.0
 10
154.0584689284993
 20
-51.66127385861246
 30
0.0
 10
154.0584689284993
 20
-51.66127385861246
 30
0.0
 10
154.0584689284993
 20
-51.66127385861246
 30
0.0
 10
149.2959689296899
 20
-51.66127385861246
 30
0.0
 10
149.2959689296899
 20
-51.66127385861246
 30
0.0
 10
149.2959689296899
 20
-51.66127385861246
 30
0.0
 10
148.6820529142184
 20
-50.53937851384085
 30
0.0
 10
148.6820529142184
 20
-50.53937851384085
 30
0.0
 10
148.3434000280183
 20
-49.92563475314359
 30
0.0
 10
148.0681368987469
 20
-49.39646808660922
 30
0.0
 10
148.0681368987469
 20
-49.35409341214064
 30
0.0
 10
148.0681368987469
 20
-49.31171873767207
 30
0.0
 10
149.4227484435471
 20
-49.2693440632035
 30
0.0
 10
151.0739827096274
 20
-49.2693440632035
 30
0.0
 10
151.0739827096274
 20
-49.2693440632035
 30
0.0
 10
151.0739827096274
 20
-49.2693440632035
 30
0.0
 10
151.0739827096274
 20
-49.2693440632035
 30
0.0
  0
POLYLINE
  5
64
330
1F
100
AcDbEntity
  8
LAYER_1
 62
   250
100
AcDb2dPolyline
 66
     1
 10
0.0
 20
0.0
 30
0.0
  0
VERTEX
  5
65
330
64
100
AcDbEntity
  8
LAYER_1
 62
   250
100
AcDbVertex
100
AcDb2dVertex
 10
150.1000542159472
 20
-144.5617187138596
 30
0.0
  0
VERTEX
  5
66
330
64
100
AcDbEntity
  8
LAYER_1
 62
   250
100
AcDbVertex
100
AcDb2dVertex
 10
153.4655679954878
 20
-144.5617187138596
 30
0.0
  0
VERTEX
  5
67
330
64
100
AcDbEntity
  8
LAYER_1
 62
   250
100
AcDbVertex
100
AcDb2dVertex
 10
153.4655679954878
 20
-143.3762613573851
 30
0.0
  0
VERTEX
  5
68
330
64
100
AcDbEntity
  8
LAYER_1
 62
   250
100
AcDbVertex
100
AcDb2dVertex
 10
146.7347126911809
 20
-143.3762613573851
 30
0.0
  0
VERTEX
  5
69
330
64
100
AcDbEntity
  8
LAYER_1
 62
   250
100
AcDbVertex
100
AcDb2dVertex
 10
146.7347126911809
 20
-144.5617187138596
 30
0.0
  0
VERTEX
  5
6A
330
64
100
AcDbEntity
  8
LAYER_1
 62
   250
100
AcDbVertex
100
AcDb2dVertex
 10
150.1000542159472
 20
-144.5617187138596
 30
0.0
  0
VERTEX
  5
6B
330
64
100
AcDbEntity
  8
LAYER_1
 62
   250
100
AcDbVertex
100
AcDb2dVertex
 10
150.1000542159472
 20
-144.5617187138596
 30
0.0
  0
SEQEND
  5
6C
330
64
100
AcDbEntity
  8
LAYER_1
  0
POLYLINE
  5
6D
330
1F
100
AcDbEntity
  8
LAYER_1
 62
   250
100
AcDb2dPolyline
 66
     1
 10
0.0
 20
0.0
 30
0.0
  0
VERTEX
  5
6E
330
6D
100
AcDbEntity
  8
LAYER_1
 62
   250
100
AcDbVertex
100
AcDb2dVertex
 10
150.1000542159472
 20
-142.7837049339221
 30
0.0
  0
VERTEX
  5
6F
330
6D
100
AcDbEntity
  8
LAYER_1
 62
   250
100
AcDbVertex
100
AcDb2dVertex
 10
154.0584689284993
 20
-142.7837049339221
 30
0.0
  0
VERTEX
  5
70
330
6D
100
AcDbEntity
  8
LAYER_1
 62
   250
100
AcDbVertex
100
AcDb2dVertex
 10
154.0584689284993
 20
-145.1756347293311
 30
0.0
  0
VERTEX
  5
71
330
6D
100
AcDbEntity
  8
LAYER_1
 62
   250
100
AcDbVertex
100
AcDb2dVertex
 10
146.1207966757094
 20
-145.1756347293311
 30
0.0
  0
VERTEX
  5
72
330
6D
100
AcDbEntity
  8
LAYER_1
 62
   250
100
AcDbVertex
100
AcDb2dVertex
 10
146.1207966757094
 20
-142.7837049339221
 30
0.0
  0
VERTEX
  5
73
330
6D
100
AcDbEntity
  8
LAYER_1
 62
   250
100
AcDbVertex
100
AcDb2dVertex
 10
150.1000542159472
 20
-142.7837049339221
 30
0.0
  0
VERTEX
  5
74
330
6D
100
AcDbEntity
  8
LAYER_1
 62
   250
100
AcDbVertex
100
AcDb2dVertex
 10
150.1000542159472
 20
-142.7837049339221
 30
0.0
  0
SEQEND
  5
75
330
6D
100
AcDbEntity
  8
LAYER_1
  0
POLYLINE
  5
76
330
1F
100
AcDbEntity
  8
LAYER_1
 62
   250
100
AcDb2dPolyline
 66
     1
 10
0.0
 20
0.0
 30
0.0
  0
VERTEX
  5
77
330
76
100
AcDbEntity
  8
LAYER_1
 62
   250
100
AcDbVertex
100
AcDb2dVertex
 10
150.1000542159472
 20
-131.5444254228431
 30
0.0
  0
VERTEX
  5
78
330
76
100
AcDbEntity
  8
LAYER_1
 62
   250
100
AcDbVertex
100
AcDb2dVertex
 10
153.4655679954878
 20
-131.5444254228431
 30
0.0
  0
VERTEX
  5
79
330
76
100
AcDbEntity
  8
LAYER_1
 62
   250
100
AcDbVertex
100
AcDb2dVertex
 10
153.4655679954878
 20
-130.3589680663686
 30
0.0
  0
VERTEX
  5
7A
330
76
100
AcDbEntity
  8
LAYER_1
 62
   250
100
AcDbVertex
100
AcDb2dVertex
 10
146.7347126911809
 20
-130.3589680663686
 30
0.0
  0
VERTEX
  5
7B
330
76
100
AcDbEntity
  8
LAYER_1
 62
   250
100
AcDbVertex
100
AcDb2dVertex
 10
146.7347126911809
 20
-131.5444254228431
 30
0.0
  0
VERTEX
  5
7C
330
76
100
AcDbEntity
  8
LAYER_1
 62
   250
100
AcDbVertex
100
AcDb2dVertex
 10
150.1000542159472
 20
-131.5444254228431
 30
0.0
  0
VERTEX
  5
7D
330
76
100
AcDbEntity
  8
LAYER_1
 62
   250
100
AcDbVertex
100
AcDb2dVertex
 10
150.1000542159472
 20
-131.5444254228431
 30
0.0
  0
SEQEND
  5
7E
330
76
100
AcDbEntity
  8
LAYER_1
  0
POLYLINE
  5
7F
330
1F
100
AcDbEntity
  8
LAYER_1
 62
   250
100
AcDb2dPolyline
 66
     1
 10
0.0
 20
0.0
 30
0.0
  0
VERTEX
  5
80
330
7F
100
AcDbEntity
  8
LAYER_1
 62
   250
100
AcDbVertex
100
AcDb2dVertex
 10
150.1000542159472
 20
-129.7660671333571
 30
0.0
  0
VERTEX
  5
81
330
7F
100
AcDbEntity
  8
LAYER_1
 62
   250
100
AcDbVertex
100
AcDb2dVertex
 10
154.0584689284993
 20
-129.7660671333571
 30
0.0
  0
VERTEX
  5
82
330
7F
100
AcDbEntity
  8
LAYER_1
 62
   250
100
AcDbVertex
100
AcDb2dVertex
 10
154.0584689284993
 20
-132.1579969287661
 30
0.0
  0
VERTEX
  5
83
330
7F
100
AcDbEntity
  8
LAYER_1
 62
   250
100
AcDbVertex
100
AcDb2dVertex
 10
146.1207966757094
 20
-132.1579969287661
 30
0.0
  0
VERTEX
  5
84
330
7F
100
AcDbEntity
  8
LAYER_1
 62
   250
100
AcDbVertex
100
AcDb2dVertex
 10
146.1207966757094
 20
-129.7660671333571
 30
0.0
  0
VERTEX
  5
85
330
7F
100
AcDbEntity
  8
LAYER_1
 62
   250
100
AcDbVertex
100
AcDb2dVertex
 10
150.1000542159472
 20
-129.7660671333571
 30
0.0
  0
VERTEX
  5
86
330
7F
100
AcDbEntity
  8
LAYER_1
 62
   250
100
AcDbVertex
100
AcDb2dVertex
 10
150.1000542159472
 20
-129.7660671333571
 30
0.0
  0
SEQEND
  5
87
330
7F
100
AcDbEntity
  8
LAYER_1
  0
SPLINE
  5
88
330
1F
100
AcDbEntity
  8
LAYER_1
 62
   250
100
AcDbSpline
210
0.0
220
0.0
230
1.0
 70
    11
 71
     3
 72
    20
 73
    16
 74
     0
 42
0.0000000001
 43
0.0000000001
 40
0.0
 40
0.0
 40
0.0
 40
0.0
 40
1.0
 40
1.0
 40
1.0
 40
2.0
 40
2.0
 40
2.0
 40
3.0
 40
3.0
 40
3.0
 40
4.0
 40
4.0
 40
4.0
 40
5.0
 40
5.0
 40
5.0
 40
5.0
 10
146.8616644598124
 20
-66.18149005506922
 30
0.0
 10
146.9674288912096
 20
-66.18149005506922
 30
0.0
 10
147.4755804752839
 20
-65.22909340817189
 30
0.0
 10
147.4755804752839
 20
-65.03857962783758
 30
0.0
 10
147.4755804752839
 20
-65.0173922906033
 30
0.0
 10
147.3062540321839
 20
-64.97501761613472
 30
0.0
 10
147.0945529146153
 20
-64.97501761613472
 30
0.0
 10
146.7770873656495
 20
-64.97501761613472
 30
0.0
 10
146.7347126911809
 20
-65.03857962783758
 30
0.0
 10
146.7347126911809
 20
-65.56774629437196
 30
0.0
 10
146.7347126911809
 20
-65.90639918057201
 30
0.0
 10
146.7770873656495
 20
-66.18149005506922
 30
0.0
 10
146.8616644598124
 20
-66.18149005506922
 30
0.0
 10
146.8616644598124
 20
-66.18149005506922
 30
0.0
 10
146.8616644598124
 20
-66.18149005506922
 30
0.0
 10
146.8616644598124
 20
-66.18149005506922
 30
0.0
  0
SPLINE
  5
89
330
1F
100
AcDbEntity
  8
LAYER_1
 62
   250
100
AcDbSpline
210
0.0
220
0.0
230
1.0
 70
    11
 71
     3
 72
    26
 73
    22
 74
     0
 42
0.0000000001
 43
0.0000000001
 40
0.0
 40
0.0
 40
0.0
 40
0.0
 40
1.0
 40
1.0
 40
1.0
 40
2.0
 40
2.0
 40
2.0
 40
3.0
 40
3.0
 40
3.0
 40
4.0
 40
4.0
 40
4.0
 40
5.0
 40
5.0
 40
5.0
 40
6.0
 40
6.0
 40
6.0
 40
7.0
 40
7.0
 40
7.0
 40
7.0
 10
147.3272691146439
 20
-64.38246119267176
 30
0.0
 10
147.3272691146439
 20
-64.38246119267176
 30
0.0
 10
148.5339138083527
 20
-64.38246119267176
 30
0.0
 10
148.5339138083527
 20
-64.38246119267176
 30
0.0
 10
148.5339138083527
 20
-64.38246119267176
 30
0.0
 10
147.9199977928811
 20
-65.56774629437196
 30
0.0
 10
147.9199977928811
 20
-65.56774629437196
 30
0.0
 10
147.3272691146439
 20
-66.77421873330645
 30
0.0
 10
147.3272691146439
 20
-66.77421873330645
 30
0.0
 10
146.7347126911809
 20
-66.77421873330645
 30
0.0
 10
146.7347126911809
 20
-66.77421873330645
 30
0.0
 10
146.1207966757094
 20
-66.77421873330645
 30
0.0
 10
146.1207966757094
 20
-66.77421873330645
 30
0.0
 10
146.1207966757094
 20
-66.77421873330645
 30
0.0
 10
146.1207966757094
 20
-64.38246119267176
 30
0.0
 10
146.1207966757094
 20
-64.38246119267176
 30
0.0
 10
146.1207966757094
 20
-64.38246119267176
 30
0.0
 10
147.3272691146439
 20
-64.38246119267176
 30
0.0
 10
147.3272691146439
 20
-64.38246119267176
 30
0.0
 10
147.3272691146439
 20
-64.38246119267176
 30
0.0
 10
147.3272691146439
 20
-64.38246119267176
 30
0.0
 10
147.3272691146439
 20
-64.38246119267176
 30
0.0
  0
SPLINE
  5
8A
330
1F
100
AcDbEntity
  8
LAYER_1
 62
   250
100
AcDbSpline
210
0.0
220
0.0
230
1.0
 70
    11
 71
     3
 72
    68
 73
    64
 74
     0
 42
0.0000000001
 43
0.0000000001
 40
0.0
 40
0.0
 40
0.0
 40
0.0
 40
1.0
 40
1.0
 40
1.0
 40
2.0
 40
2.0
 40
2.0
 40
3.0
 40
3.0
 40
3.0
 40
4.0
 40
4.0
 40
4.0
 40
5.0
 40
5.0
 40
5.0
 40
6.0
 40
6.0
 40
6.0
 40
7.0
 40
7.0
 40
7.0
 40
8.0
 40
8.0
 40
8.0
 40
9.0
 40
9.0
 40
9.0
 40
10.0
 40
10.0
 40
10.0
 40
11.0
 40
11.0
 40
11.0
 40
12.0
 40
12.0
 40
12.0
 40
13.0
 40
13.0
 40
13.0
 40
14.0
 40
14.0
 40
14.0
 40
15.0
 40
15.0
 40
15.0
 40
16.0
 40
16.0
 40
16.0
 40
17.0
 40
17.0
 40
17.0
 40
18.0
 40
18.0
 40
18.0
 40
19.0
 40
19.0
 40
19.0
 40
20.0
 40
20.0
 40
20.0
 40
21.0
 40
21.0
 40
21.0
 40
21.0
 10
143.3691989116404
 20
-92.30117049558791
 30
0.0
 10
144.0041300095719
 20
-92.25896807589359
 30
0.0
 10
146.5441989108466
 20
-92.19540606419073
 30
0.0
 10
148.9993462084099
 20
-92.19540606419073
 30
0.0
 10
148.9993462084099
 20
-92.19540606419073
 30
0.0
 10
153.4655679954878
 20
-92.19540606419073
 30
0.0
 10
153.4655679954878
 20
-92.19540606419073
 30
0.0
 10
153.4655679954878
 20
-92.19540606419073
 30
0.0
 10
153.4655679954878
 20
-90.4173922842533
 30
0.0
 10
153.4655679954878
 20
-90.4173922842533
 30
0.0
 10
153.4655679954878
 20
-90.4173922842533
 30
0.0
 10
155.8574977908967
 20
-90.4173922842533
 30
0.0
 10
155.8574977908967
 20
-90.4173922842533
 30
0.0
 10
155.8574977908967
 20
-90.4173922842533
 30
0.0
 10
155.8574977908967
 20
-96.38636472199717
 30
0.0
 10
155.8574977908967
 20
-96.38636472199717
 30
0.0
 10
155.8574977908967
 20
-96.38636472199717
 30
0.0
 10
153.4655679954878
 20
-96.38636472199717
 30
0.0
 10
153.4655679954878
 20
-96.38636472199717
 30
0.0
 10
153.4655679954878
 20
-96.38636472199717
 30
0.0
 10
153.4655679954878
 20
-94.60835094205972
 30
0.0
 10
153.4655679954878
 20
-94.60835094205972
 30
0.0
 10
153.4655679954878
 20
-94.60835094205972
 30
0.0
 10
148.8513793573184
 20
-94.60835094205972
 30
0.0
 10
148.8513793573184
 20
-94.60835094205972
 30
0.0
 10
143.7924288920033
 20
-94.58716360482543
 30
0.0
 10
142.1203517982373
 20
-94.50258651066255
 30
0.0
 10
142.3954426727345
 20
-94.24851071862538
 30
0.0
 10
142.5013793589059
 20
-94.12155894999393
 30
0.0
 10
144.3851575702405
 20
-94.05799693829105
 30
0.0
 10
148.3010253535498
 20
-94.01579451859675
 30
0.0
 10
148.3010253535498
 20
-94.01579451859675
 30
0.0
 10
154.0584689284993
 20
-93.97341984412817
 30
0.0
 10
154.0584689284993
 20
-93.97341984412817
 30
0.0
 10
154.0584689284993
 20
-93.97341984412817
 30
0.0
 10
154.0584689284993
 20
-95.79380829853419
 30
0.0
 10
154.0584689284993
 20
-95.79380829853419
 30
0.0
 10
154.0584689284993
 20
-95.79380829853419
 30
0.0
 10
155.2649413674338
 20
-95.79380829853419
 30
0.0
 10
155.2649413674338
 20
-95.79380829853419
 30
0.0
 10
155.2649413674338
 20
-95.79380829853419
 30
0.0
 10
155.2649413674338
 20
-91.01012096249053
 30
0.0
 10
155.2649413674338
 20
-91.01012096249053
 30
0.0
 10
155.2649413674338
 20
-91.01012096249053
 30
0.0
 10
154.0584689284993
 20
-91.01012096249053
 30
0.0
 10
154.0584689284993
 20
-91.01012096249053
 30
0.0
 10
154.0584689284993
 20
-91.01012096249053
 30
0.0
 10
154.0584689284993
 20
-92.83033716212228
 30
0.0
 10
154.0584689284993
 20
-92.83033716212228
 30
0.0
 10
154.0584689284993
 20
-92.83033716212228
 30
0.0
 10
148.3010253535498
 20
-92.78813474242797
 30
0.0
 10
148.3010253535498
 20
-92.78813474242797
 30
0.0
 10
144.3851575702405
 20
-92.7457600679594
 30
0.0
 10
142.5013793589059
 20
-92.68219805625654
 30
0.0
 10
142.3954426727345
 20
-92.55524628762508
 30
0.0
 10
142.268490904103
 20
-92.44930960145365
 30
0.0
 10
142.5437540333745
 20
-92.36473250729077
 30
0.0
 10
143.3691989116404
 20
-92.30117049558791
 30
0.0
 10
143.3691989116404
 20
-92.30117049558791
 30
0.0
 10
143.3691989116404
 20
-92.30117049558791
 30
0.0
 10
143.3691989116404
 20
-92.30117049558791
 30
0.0
 10
143.3691989116404
 20
-92.30117049558791
 30
0.0
 10
143.3691989116404
 20
-92.30117049558791
 30
0.0
 10
143.3691989116404
 20
-92.30117049558791
 30
0.0
  0
SPLINE
  5
8B
330
1F
100
AcDbEntity
  8
LAYER_1
 62
   250
100
AcDbSpline
210
0.0
220
0.0
230
1.0
 70
    11
 71
     3
 72
    47
 73
    43
 74
     0
 42
0.0000000001
 43
0.0000000001
 40
0.0
 40
0.0
 40
0.0
 40
0.0
 40
1.0
 40
1.0
 40
1.0
 40
2.0
 40
2.0
 40
2.0
 40
3.0
 40
3.0
 40
3.0
 40
4.0
 40
4.0
 40
4.0
 40
5.0
 40
5.0
 40
5.0
 40
6.0
 40
6.0
 40
6.0
 40
7.0
 40
7.0
 40
7.0
 40
8.0
 40
8.0
 40
8.0
 40
9.0
 40
9.0
 40
9.0
 40
10.0
 40
10.0
 40
10.0
 40
11.0
 40
11.0
 40
11.0
 40
12.0
 40
12.0
 40
12.0
 40
13.0
 40
13.0
 40
13.0
 40
14.0
 40
14.0
 40
14.0
 40
14.0
 10
143.3691989116404
 20
-49.37528074937493
 30
0.0
 10
144.0041300095719
 20
-49.31171873767207
 30
0.0
 10
145.0202609229463
 20
-49.2693440632035
 30
0.0
 10
145.6340046836436
 20
-49.2693440632035
 30
0.0
 10
145.6340046836436
 20
-49.2693440632035
 30
0.0
 10
146.7559000284152
 20
-49.2693440632035
 30
0.0
 10
146.7559000284152
 20
-49.2693440632035
 30
0.0
 10
146.7559000284152
 20
-49.2693440632035
 30
0.0
 10
146.0996093384751
 20
-50.45480141967797
 30
0.0
 10
146.0996093384751
 20
-50.45480141967797
 30
0.0
 10
145.4646782405435
 20
-51.66127385861246
 30
0.0
 10
145.4646782405435
 20
-51.66127385861246
 30
0.0
 10
144.850762225072
 20
-51.66127385861246
 30
0.0
 10
143.8136162292376
 20
-51.66127385861246
 30
0.0
 10
142.2473035668687
 20
-51.47076007827815
 30
0.0
 10
142.3108655785716
 20
-51.36482339210671
 30
0.0
 10
142.3532402530402
 20
-51.30143363517811
 30
0.0
 10
143.009358688206
 20
-51.19549694900668
 30
0.0
 10
143.7924288920033
 20
-51.15329452931238
 30
0.0
 10
143.7924288920033
 20
-51.15329452931238
 30
0.0
 10
145.1895873660464
 20
-51.04735784314094
 30
0.0
 10
145.1895873660464
 20
-51.04735784314094
 30
0.0
 10
145.1895873660464
 20
-51.04735784314094
 30
0.0
 10
145.4434909033093
 20
-50.51819117660656
 30
0.0
 10
145.4434909033093
 20
-50.51819117660656
 30
0.0
 10
145.5704426719407
 20
-50.24310030210937
 30
0.0
 10
145.6763793581122
 20
-49.98902451007219
 30
0.0
 10
145.6763793581122
 20
-49.9678371728379
 30
0.0
 10
145.6763793581122
 20
-49.92563475314359
 30
0.0
 10
144.9566989112435
 20
-49.86207274144073
 30
0.0
 10
144.0676920212748
 20
-49.79851072973788
 30
0.0
 10
143.1998724685403
 20
-49.75630831004356
 30
0.0
 10
142.4166300099688
 20
-49.65037162387213
 30
0.0
 10
142.3532402530402
 20
-49.58698186694353
 30
0.0
 10
142.2896782413373
 20
-49.52341985524068
 30
0.0
 10
142.7552828961688
 20
-49.41748316906924
 30
0.0
 10
143.3691989116404
 20
-49.37528074937493
 30
0.0
 10
143.3691989116404
 20
-49.37528074937493
 30
0.0
 10
143.3691989116404
 20
-49.37528074937493
 30
0.0
 10
143.3691989116404
 20
-49.37528074937493
 30
0.0
 10
143.3691989116404
 20
-49.37528074937493
 30
0.0
 10
143.3691989116404
 20
-49.37528074937493
 30
0.0
 10
143.3691989116404
 20
-49.37528074937493
 30
0.0
  0
SPLINE
  5
8C
330
1F
100
AcDbEntity
  8
LAYER_1
 62
   250
100
AcDbSpline
210
0.0
220
0.0
230
1.0
 70
    11
 71
     3
 72
    77
 73
    73
 74
     0
 42
0.0000000001
 43
0.0000000001
 40
0.0
 40
0.0
 40
0.0
 40
0.0
 40
1.0
 40
1.0
 40
1.0
 40
2.0
 40
2.0
 40
2.0
 40
3.0
 40
3.0
 40
3.0
 40
4.0
 40
4.0
 40
4.0
 40
5.0
 40
5.0
 40
5.0
 40
6.0
 40
6.0
 40
6.0
 40
7.0
 40
7.0
 40
7.0
 40
8.0
 40
8.0
 40
8.0
 40
9.0
 40
9.0
 40
9.0
 40
10.0
 40
10.0
 40
10.0
 40
11.0
 40
11.0
 40
11.0
 40
12.0
 40
12.0
 40
12.0
 40
13.0
 40
13.0
 40
13.0
 40
14.0
 40
14.0
 40
14.0
 40
15.0
 40
15.0
 40
15.0
 40
16.0
 40
16.0
 40
16.0
 40
17.0
 40
17.0
 40
17.0
 40
18.0
 40
18.0
 40
18.0
 40
19.0
 40
19.0
 40
19.0
 40
20.0
 40
20.0
 40
20.0
 40
21.0
 40
21.0
 40
21.0
 40
22.0
 40
22.0
 40
22.0
 40
23.0
 40
23.0
 40
23.0
 40
24.0
 40
24.0
 40
24.0
 40
24.0
 10
143.1998724685403
 20
-47.5760796322032
 30
0.0
 10
143.8559909037062
 20
-47.51251762050035
 30
0.0
 10
146.9674288912096
 20
-47.47031520080603
 30
0.0
 10
150.1214138079558
 20
-47.47031520080603
 30
0.0
 10
150.1214138079558
 20
-47.47031520080603
 30
0.0
 10
155.8574977908967
 20
-47.47031520080603
 30
0.0
 10
155.8574977908967
 20
-47.47031520080603
 30
0.0
 10
155.8574977908967
 20
-47.47031520080603
 30
0.0
 10
155.8574977908967
 20
-53.46047497578419
 30
0.0
 10
155.8574977908967
 20
-53.46047497578419
 30
0.0
 10
155.8574977908967
 20
-53.46047497578419
 30
0.0
 10
148.0893242359811
 20
-53.46047497578419
 30
0.0
 10
148.0893242359811
 20
-53.46047497578419
 30
0.0
 10
148.0893242359811
 20
-53.46047497578419
 30
0.0
 10
147.7294840125468
 20
-52.7407945289155
 30
0.0
 10
147.7294840125468
 20
-52.7407945289155
 30
0.0
 10
147.7294840125468
 20
-52.7407945289155
 30
0.0
 10
147.3696437891124
 20
-52.0423014192811
 30
0.0
 10
147.3696437891124
 20
-52.0423014192811
 30
0.0
 10
147.3696437891124
 20
-52.0423014192811
 30
0.0
 10
147.0098035656781
 20
-52.7407945289155
 30
0.0
 10
147.0098035656781
 20
-52.7407945289155
 30
0.0
 10
147.0098035656781
 20
-52.7407945289155
 30
0.0
 10
146.671150679478
 20
-53.46047497578419
 30
0.0
 10
146.671150679478
 20
-53.46047497578419
 30
0.0
 10
146.671150679478
 20
-53.46047497578419
 30
0.0
 10
145.1684000288121
 20
-53.4392876385499
 30
0.0
 10
145.1684000288121
 20
-53.4392876385499
 30
0.0
 10
144.342782895772
 20
-53.4392876385499
 30
0.0
 10
143.2844495627032
 20
-53.37572562684704
 30
0.0
 10
142.840032245106
 20
-53.31216361514419
 30
0.0
 10
142.0356024493001
 20
-53.20639918374702
 30
0.0
 10
142.0356024493001
 20
-53.20639918374702
 30
0.0
 10
142.5437540333745
 20
-53.10063475234984
 30
0.0
 10
142.8188449078717
 20
-53.05826007788127
 30
0.0
 10
143.8136162292376
 20
-52.95232339170984
 30
0.0
 10
144.7026231192063
 20
-52.88893363478124
 30
0.0
 10
144.7026231192063
 20
-52.88893363478124
 30
0.0
 10
146.3536851305123
 20
-52.78299694860981
 30
0.0
 10
146.3536851305123
 20
-52.78299694860981
 30
0.0
 10
146.3536851305123
 20
-52.78299694860981
 30
0.0
 10
146.7981024481095
 20
-51.93636473310966
 30
0.0
 10
146.7981024481095
 20
-51.93636473310966
 30
0.0
 10
147.0521782401467
 20
-51.47076007827815
 30
0.0
 10
147.3062540321839
 20
-51.02617050590666
 30
0.0
 10
147.3696437891124
 20
-50.98396808621234
 30
0.0
 10
147.412018463581
 20
-50.92040607450949
 30
0.0
 10
147.6871093380782
 20
-51.3226209724124
 30
0.0
 10
147.9411851301154
 20
-51.87297497618106
 30
0.0
 10
147.9411851301154
 20
-51.87297497618106
 30
0.0
 10
148.4491644594155
 20
-52.86774629754696
 30
0.0
 10
148.4491644594155
 20
-52.86774629754696
 30
0.0
 10
148.4491644594155
 20
-52.86774629754696
 30
0.0
 10
155.2649413674338
 20
-52.86774629754696
 30
0.0
 10
155.2649413674338
 20
-52.86774629754696
 30
0.0
 10
155.2649413674338
 20
-52.86774629754696
 30
0.0
 10
155.2649413674338
 20
-48.10524629873758
 30
0.0
 10
155.2649413674338
 20
-48.10524629873758
 30
0.0
 10
155.2649413674338
 20
-48.10524629873758
 30
0.0
 10
149.0207058004185
 20
-48.04168428703472
 30
0.0
 10
149.0207058004185
 20
-48.04168428703472
 30
0.0
 10
145.2317897857407
 20
-47.99948186734041
 30
0.0
 10
142.6283311275374
 20
-47.91473251840326
 30
0.0
 10
142.3954426727345
 20
-47.82998316946612
 30
0.0
 10
142.099164461003
 20
-47.70303140083466
 30
0.0
 10
142.2261162296344
 20
-47.66065672636608
 30
0.0
 10
143.1998724685403
 20
-47.5760796322032
 30
0.0
 10
143.1998724685403
 20
-47.5760796322032
 30
0.0
 10
143.1998724685403
 20
-47.5760796322032
 30
0.0
 10
143.1998724685403
 20
-47.5760796322032
 30
0.0
 10
143.1998724685403
 20
-47.5760796322032
 30
0.0
 10
143.1998724685403
 20
-47.5760796322032
 30
0.0
 10
143.1998724685403
 20
-47.5760796322032
 30
0.0
  0
SPLINE
  5
8D
330
1F
100
AcDbEntity
  8
LAYER_1
 62
   250
100
AcDbSpline
210
0.0
220
0.0
230
1.0
 70
    11
 71
     3
 72
    41
 73
    37
 74
     0
 42
0.0000000001
 43
0.0000000001
 40
0.0
 40
0.0
 40
0.0
 40
0.0
 40
1.0
 40
1.0
 40
1.0
 40
2.0
 40
2.0
 40
2.0
 40
3.0
 40
3.0
 40
3.0
 40
4.0
 40
4.0
 40
4.0
 40
5.0
 40
5.0
 40
5.0
 40
6.0
 40
6.0
 40
6.0
 40
7.0
 40
7.0
 40
7.0
 40
8.0
 40
8.0
 40
8.0
 40
9.0
 40
9.0
 40
9.0
 40
10.0
 40
10.0
 40
10.0
 40
11.0
 40
11.0
 40
11.0
 40
12.0
 40
12.0
 40
12.0
 40
12.0
 10
143.0729206999088
 20
-124.1781222562819
 30
0.0
 10
143.8348035664719
 20
-124.0933729073447
 30
0.0
 10
144.9355115740092
 20
-123.8398138796303
 30
0.0
 10
146.1207966757094
 20
-123.4374267269531
 30
0.0
 10
146.1207966757094
 20
-123.4374267269531
 30
0.0
 10
148.0047471418183
 20
-122.8021511194731
 30
0.0
 10
148.0047471418183
 20
-122.8021511194731
 30
0.0
 10
148.0047471418183
 20
-122.8021511194731
 30
0.0
 10
145.7609564522751
 20
-122.7177462800845
 30
0.0
 10
145.7609564522751
 20
-122.7177462800845
 30
0.0
 10
144.5332966761063
 20
-122.6540120136073
 30
0.0
 10
143.2844495627032
 20
-122.6119818486873
 30
0.0
 10
142.9881713509717
 20
-122.5906222566787
 30
0.0
 10
142.5859564530688
 20
-122.5906222566787
 30
0.0
 10
142.5225666961402
 20
-122.5272324997501
 30
0.0
 10
142.670705802006
 20
-122.400452985893
 30
0.0
 10
142.7764702334031
 20
-122.2729844529387
 30
0.0
 10
143.9829426723376
 20
-122.2095946960101
 30
0.0
 10
146.7770873656495
 20
-122.1462049390815
 30
0.0
 10
148.9359564514813
 20
-122.124845347073
 30
0.0
 10
150.8621093372845
 20
-122.124845347073
 30
0.0
 10
151.0739827096274
 20
-122.1462049390815
 30
0.0
 10
151.3065266548817
 20
-122.1885796135501
 30
0.0
 10
150.2271782393529
 20
-122.6119818486873
 30
0.0
 10
147.9199977928811
 20
-123.3950520524846
 30
0.0
 10
144.3005804760776
 20
-124.6015244914191
 30
0.0
 10
143.9829426723376
 20
-124.6652587578962
 30
0.0
 10
142.4590046844373
 20
-124.3896511190762
 30
0.0
 10
141.9086506806687
 20
-124.2842311972276
 30
0.0
 10
141.9722126923715
 20
-124.262871605219
 30
0.0
 10
143.0729206999088
 20
-124.1781222562819
 30
0.0
 10
143.0729206999088
 20
-124.1781222562819
 30
0.0
 10
143.0729206999088
 20
-124.1781222562819
 30
0.0
 10
143.0729206999088
 20
-124.1781222562819
 30
0.0
 10
143.0729206999088
 20
-124.1781222562819
 30
0.0
 10
143.0729206999088
 20
-124.1781222562819
 30
0.0
 10
143.0729206999088
 20
-124.1781222562819
 30
0.0
  0
SPLINE
  5
8E
330
1F
100
AcDbEntity
  8
LAYER_1
 62
   250
100
AcDbSpline
210
0.0
220
0.0
230
1.0
 70
    11
 71
     3
 72
    65
 73
    61
 74
     0
 42
0.0000000001
 43
0.0000000001
 40
0.0
 40
0.0
 40
0.0
 40
0.0
 40
1.0
 40
1.0
 40
1.0
 40
2.0
 40
2.0
 40
2.0
 40
3.0
 40
3.0
 40
3.0
 40
4.0
 40
4.0
 40
4.0
 40
5.0
 40
5.0
 40
5.0
 40
6.0
 40
6.0
 40
6.0
 40
7.0
 40
7.0
 40
7.0
 40
8.0
 40
8.0
 40
8.0
 40
9.0
 40
9.0
 40
9.0
 40
10.0
 40
10.0
 40
10.0
 40
11.0
 40
11.0
 40
11.0
 40
12.0
 40
12.0
 40
12.0
 40
13.0
 40
13.0
 40
13.0
 40
14.0
 40
14.0
 40
14.0
 40
15.0
 40
15.0
 40
15.0
 40
16.0
 40
16.0
 40
16.0
 40
17.0
 40
17.0
 40
17.0
 40
18.0
 40
18.0
 40
18.0
 40
19.0
 40
19.0
 40
19.0
 40
20.0
 40
20.0
 40
20.0
 40
20.0
 10
142.099164461003
 20
-118.3362738419437
 30
0.0
 10
142.2896782413373
 20
-118.2515244930066
 30
0.0
 10
145.3377264719121
 20
-118.1671196536179
 30
0.0
 10
148.8513793573184
 20
-118.1244004696008
 30
0.0
 10
148.8513793573184
 20
-118.1244004696008
 30
0.0
 10
155.2649413674338
 20
-118.0610107126723
 30
0.0
 10
155.2649413674338
 20
-118.0610107126723
 30
0.0
 10
155.2649413674338
 20
-118.0610107126723
 30
0.0
 10
155.2649413674338
 20
-116.8969129482063
 30
0.0
 10
155.2649413674338
 20
-116.8969129482063
 30
0.0
 10
155.2649413674338
 20
-116.8969129482063
 30
0.0
 10
147.9199977928811
 20
-116.8969129482063
 30
0.0
 10
147.9199977928811
 20
-116.8969129482063
 30
0.0
 10
147.9199977928811
 20
-116.8969129482063
 30
0.0
 10
147.9199977928811
 20
-114.5049831527974
 30
0.0
 10
147.9199977928811
 20
-114.5049831527974
 30
0.0
 10
147.9199977928811
 20
-114.5049831527974
 30
0.0
 10
155.2649413674338
 20
-114.5049831527974
 30
0.0
 10
155.2649413674338
 20
-114.5049831527974
 30
0.0
 10
155.2649413674338
 20
-114.5049831527974
 30
0.0
 10
155.2649413674338
 20
-113.3198703058714
 30
0.0
 10
155.2649413674338
 20
-113.3198703058714
 30
0.0
 10
155.2649413674338
 20
-113.3198703058714
 30
0.0
 10
149.084095557347
 20
-113.2564805489428
 30
0.0
 10
149.084095557347
 20
-113.2564805489428
 30
0.0
 10
145.6551920208779
 20
-113.2351209569343
 30
0.0
 10
142.7130804764745
 20
-113.1290120159886
 30
0.0
 10
142.4590046844373
 20
-113.0446071766
 30
0.0
 10
141.7181369003344
 20
-112.8117187217971
 30
0.0
 10
143.9619275898776
 20
-112.7059542903999
 30
0.0
 10
150.2061631568929
 20
-112.7059542903999
 30
0.0
 10
150.2061631568929
 20
-112.7059542903999
 30
0.0
 10
155.8574977908967
 20
-112.7059542903999
 30
0.0
 10
155.8574977908967
 20
-112.7059542903999
 30
0.0
 10
155.8574977908967
 20
-112.7059542903999
 30
0.0
 10
155.8574977908967
 20
-115.0975395762603
 30
0.0
 10
155.8574977908967
 20
-115.0975395762603
 30
0.0
 10
155.8574977908967
 20
-115.0975395762603
 30
0.0
 10
148.5339138083527
 20
-115.0975395762603
 30
0.0
 10
148.5339138083527
 20
-115.0975395762603
 30
0.0
 10
148.5339138083527
 20
-115.0975395762603
 30
0.0
 10
148.5339138083527
 20
-116.2829969327348
 30
0.0
 10
148.5339138083527
 20
-116.2829969327348
 30
0.0
 10
148.5339138083527
 20
-116.2829969327348
 30
0.0
 10
155.8574977908967
 20
-116.2829969327348
 30
0.0
 10
155.8574977908967
 20
-116.2829969327348
 30
0.0
 10
155.8574977908967
 20
-116.2829969327348
 30
0.0
 10
155.8574977908967
 20
-118.6962863201523
 30
0.0
 10
155.8574977908967
 20
-118.6962863201523
 30
0.0
 10
155.8574977908967
 20
-118.6962863201523
 30
0.0
 10
149.6132622238814
 20
-118.6749267281438
 30
0.0
 10
149.6132622238814
 20
-118.6749267281438
 30
0.0
 10
143.1998724685403
 20
-118.6535671361352
 30
0.0
 10
141.3794840141343
 20
-118.5688177871981
 30
0.0
 10
142.099164461003
 20
-118.3362738419437
 30
0.0
 10
142.099164461003
 20
-118.3362738419437
 30
0.0
 10
142.099164461003
 20
-118.3362738419437
 30
0.0
 10
142.099164461003
 20
-118.3362738419437
 30
0.0
 10
142.099164461003
 20
-118.3362738419437
 30
0.0
 10
142.099164461003
 20
-118.3362738419437
 30
0.0
 10
142.099164461003
 20
-118.3362738419437
 30
0.0
  0
SPLINE
  5
8F
330
1F
100
AcDbEntity
  8
LAYER_1
 62
   250
100
AcDbSpline
210
0.0
220
0.0
230
1.0
 70
    11
 71
     3
 72
    89
 73
    85
 74
     0
 42
0.0000000001
 43
0.0000000001
 40
0.0
 40
0.0
 40
0.0
 40
0.0
 40
1.0
 40
1.0
 40
1.0
 40
2.0
 40
2.0
 40
2.0
 40
3.0
 40
3.0
 40
3.0
 40
4.0
 40
4.0
 40
4.0
 40
5.0
 40
5.0
 40
5.0
 40
6.0
 40
6.0
 40
6.0
 40
7.0
 40
7.0
 40
7.0
 40
8.0
 40
8.0
 40
8.0
 40
9.0
 40
9.0
 40
9.0
 40
10.0
 40
10.0
 40
10.0
 40
11.0
 40
11.0
 40
11.0
 40
12.0
 40
12.0
 40
12.0
 40
13.0
 40
13.0
 40
13.0
 40
14.0
 40
14.0
 40
14.0
 40
15.0
 40
15.0
 40
15.0
 40
16.0
 40
16.0
 40
16.0
 40
17.0
 40
17.0
 40
17.0
 40
18.0
 40
18.0
 40
18.0
 40
19.0
 40
19.0
 40
19.0
 40
20.0
 40
20.0
 40
20.0
 40
21.0
 40
21.0
 40
21.0
 40
22.0
 40
22.0
 40
22.0
 40
23.0
 40
23.0
 40
23.0
 40
24.0
 40
24.0
 40
24.0
 40
25.0
 40
25.0
 40
25.0
 40
26.0
 40
26.0
 40
26.0
 40
27.0
 40
27.0
 40
27.0
 40
28.0
 40
28.0
 40
28.0
 40
28.0
 10
141.5699977944686
 20
-154.2348578173441
 30
0.0
 10
141.8240735865058
 20
-154.1714680604155
 30
0.0
 10
143.750226472309
 20
-154.0867187114783
 30
0.0
 10
145.8668931384465
 20
-154.0443440370098
 30
0.0
 10
145.8668931384465
 20
-154.0443440370098
 30
0.0
 10
149.7190266552786
 20
-153.9595946880726
 30
0.0
 10
149.7190266552786
 20
-153.9595946880726
 30
0.0
 10
149.7190266552786
 20
-153.9595946880726
 30
0.0
 10
149.7190266552786
 20
-152.7954969236067
 30
0.0
 10
149.7190266552786
 20
-152.7954969236067
 30
0.0
 10
149.7190266552786
 20
-152.7954969236067
 30
0.0
 10
146.1207966757094
 20
-152.7954969236067
 30
0.0
 10
146.1207966757094
 20
-152.7954969236067
 30
0.0
 10
146.1207966757094
 20
-152.7954969236067
 30
0.0
 10
146.1207966757094
 20
-150.4035671281977
 30
0.0
 10
146.1207966757094
 20
-150.4035671281977
 30
0.0
 10
146.1207966757094
 20
-150.4035671281977
 30
0.0
 10
154.0584689284993
 20
-150.4035671281977
 30
0.0
 10
154.0584689284993
 20
-150.4035671281977
 30
0.0
 10
154.0584689284993
 20
-150.4035671281977
 30
0.0
 10
154.0584689284993
 20
-152.7954969236067
 30
0.0
 10
154.0584689284993
 20
-152.7954969236067
 30
0.0
 10
154.0584689284993
 20
-152.7954969236067
 30
0.0
 10
152.2590955565533
 20
-152.7954969236067
 30
0.0
 10
152.2590955565533
 20
-152.7954969236067
 30
0.0
 10
152.2590955565533
 20
-152.7954969236067
 30
0.0
 10
152.2590955565533
 20
-154.0023138720897
 30
0.0
 10
152.2590955565533
 20
-154.0023138720897
 30
0.0
 10
152.2590955565533
 20
-154.0023138720897
 30
0.0
 10
155.2649413674338
 20
-154.0023138720897
 30
0.0
 10
155.2649413674338
 20
-154.0023138720897
 30
0.0
 10
155.2649413674338
 20
-154.0023138720897
 30
0.0
 10
155.2649413674338
 20
-149.2398138732803
 30
0.0
 10
155.2649413674338
 20
-149.2398138732803
 30
0.0
 10
155.2649413674338
 20
-149.2398138732803
 30
0.0
 10
149.1688449062842
 20
-149.1760796068032
 30
0.0
 10
149.1688449062842
 20
-149.1760796068032
 30
0.0
 10
145.4434909033093
 20
-149.1337049323346
 30
0.0
 10
142.9246093392688
 20
-149.0489555833975
 30
0.0
 10
142.6918931392402
 20
-148.9642062344603
 30
0.0
 10
142.099164461003
 20
-148.710647206746
 30
0.0
 10
144.1312540329776
 20
-148.6045382658003
 30
0.0
 10
150.2695529138215
 20
-148.6045382658003
 30
0.0
 10
150.2695529138215
 20
-148.6045382658003
 30
0.0
 10
155.8574977908967
 20
-148.6045382658003
 30
0.0
 10
155.8574977908967
 20
-148.6045382658003
 30
0.0
 10
155.8574977908967
 20
-148.6045382658003
 30
0.0
 10
155.8574977908967
 20
-154.5948702955527
 30
0.0
 10
155.8574977908967
 20
-154.5948702955527
 30
0.0
 10
155.8574977908967
 20
-154.5948702955527
 30
0.0
 10
151.6665391330903
 20
-154.5948702955527
 30
0.0
 10
151.6665391330903
 20
-154.5948702955527
 30
0.0
 10
151.6665391330903
 20
-154.5948702955527
 30
0.0
 10
151.6665391330903
 20
-152.2029405001437
 30
0.0
 10
151.6665391330903
 20
-152.2029405001437
 30
0.0
 10
151.6665391330903
 20
-152.2029405001437
 30
0.0
 10
153.4655679954878
 20
-152.2029405001437
 30
0.0
 10
153.4655679954878
 20
-152.2029405001437
 30
0.0
 10
153.4655679954878
 20
-152.2029405001437
 30
0.0
 10
153.4655679954878
 20
-150.9964680612092
 30
0.0
 10
153.4655679954878
 20
-150.9964680612092
 30
0.0
 10
153.4655679954878
 20
-150.9964680612092
 30
0.0
 10
146.7347126911809
 20
-150.9964680612092
 30
0.0
 10
146.7347126911809
 20
-150.9964680612092
 30
0.0
 10
146.7347126911809
 20
-150.9964680612092
 30
0.0
 10
146.7347126911809
 20
-152.2029405001437
 30
0.0
 10
146.7347126911809
 20
-152.2029405001437
 30
0.0
 10
146.7347126911809
 20
-152.2029405001437
 30
0.0
 10
150.3119275882901
 20
-152.2029405001437
 30
0.0
 10
150.3119275882901
 20
-152.2029405001437
 30
0.0
 10
150.3119275882901
 20
-152.2029405001437
 30
0.0
 10
150.3119275882901
 20
-154.5948702955527
 30
0.0
 10
150.3119275882901
 20
-154.5948702955527
 30
0.0
 10
150.3119275882901
 20
-154.5948702955527
 30
0.0
 10
146.5441989108466
 20
-154.5735107035441
 30
0.0
 10
146.5441989108466
 20
-154.5735107035441
 30
0.0
 10
144.4699069191777
 20
-154.5735107035441
 30
0.0
 10
142.3954426727345
 20
-154.5101209466155
 30
0.0
 10
141.9510253551373
 20
-154.467746272147
 30
0.0
 10
141.1889702338
 20
-154.3619818407498
 30
0.0
 10
141.1677828965657
 20
-154.3406222487412
 30
0.0
 10
141.5699977944686
 20
-154.2348578173441
 30
0.0
 10
141.5699977944686
 20
-154.2348578173441
 30
0.0
 10
141.5699977944686
 20
-154.2348578173441
 30
0.0
 10
141.5699977944686
 20
-154.2348578173441
 30
0.0
  0
SPLINE
  5
90
330
1F
100
AcDbEntity
  8
LAYER_1
 62
   250
100
AcDbSpline
210
0.0
220
0.0
230
1.0
 70
    11
 71
     3
 72
    56
 73
    52
 74
     0
 42
0.0000000001
 43
0.0000000001
 40
0.0
 40
0.0
 40
0.0
 40
0.0
 40
1.0
 40
1.0
 40
1.0
 40
2.0
 40
2.0
 40
2.0
 40
3.0
 40
3.0
 40
3.0
 40
4.0
 40
4.0
 40
4.0
 40
5.0
 40
5.0
 40
5.0
 40
6.0
 40
6.0
 40
6.0
 40
7.0
 40
7.0
 40
7.0
 40
8.0
 40
8.0
 40
8.0
 40
9.0
 40
9.0
 40
9.0
 40
10.0
 40
10.0
 40
10.0
 40
11.0
 40
11.0
 40
11.0
 40
12.0
 40
12.0
 40
12.0
 40
13.0
 40
13.0
 40
13.0
 40
14.0
 40
14.0
 40
14.0
 40
15.0
 40
15.0
 40
15.0
 40
16.0
 40
16.0
 40
16.0
 40
17.0
 40
17.0
 40
17.0
 40
17.0
 10
142.1627264727059
 20
-135.6930094061809
 30
0.0
 10
142.7976575706374
 20
-135.6296196492523
 30
0.0
 10
146.1419840129437
 20
-135.5869004652352
 30
0.0
 10
149.5922471414214
 20
-135.5869004652352
 30
0.0
 10
149.5922471414214
 20
-135.5869004652352
 30
0.0
 10
155.8574977908967
 20
-135.5869004652352
 30
0.0
 10
155.8574977908967
 20
-135.5869004652352
 30
0.0
 10
155.8574977908967
 20
-135.5869004652352
 30
0.0
 10
155.8574977908967
 20
-137.9788302606442
 30
0.0
 10
155.8574977908967
 20
-137.9788302606442
 30
0.0
 10
155.8574977908967
 20
-137.9788302606442
 30
0.0
 10
146.7347126911809
 20
-137.9788302606442
 30
0.0
 10
146.7347126911809
 20
-137.9788302606442
 30
0.0
 10
146.7347126911809
 20
-137.9788302606442
 30
0.0
 10
146.7347126911809
 20
-139.7782036325902
 30
0.0
 10
146.7347126911809
 20
-139.7782036325902
 30
0.0
 10
146.7347126911809
 20
-139.7782036325902
 30
0.0
 10
145.6551920208779
 20
-139.7782036325902
 30
0.0
 10
145.6551920208779
 20
-139.7782036325902
 30
0.0
 10
144.1312540329776
 20
-139.7782036325902
 30
0.0
 10
142.5013793589059
 20
-139.6087049347159
 30
0.0
 10
142.6495184647717
 20
-139.4605658288502
 30
0.0
 10
142.7130804764745
 20
-139.3971760719215
 30
0.0
 10
143.5173380175061
 20
-139.3124267229844
 30
0.0
 10
144.4487195819434
 20
-139.2490369660558
 30
0.0
 10
144.4487195819434
 20
-139.2490369660558
 30
0.0
 10
146.1207966757094
 20
-139.1429280251101
 30
0.0
 10
146.1207966757094
 20
-139.1429280251101
 30
0.0
 10
146.1207966757094
 20
-139.1429280251101
 30
0.0
 10
146.1207966757094
 20
-137.3862738371812
 30
0.0
 10
146.1207966757094
 20
-137.3862738371812
 30
0.0
 10
146.1207966757094
 20
-137.3862738371812
 30
0.0
 10
155.2649413674338
 20
-137.3862738371812
 30
0.0
 10
155.2649413674338
 20
-137.3862738371812
 30
0.0
 10
155.2649413674338
 20
-137.3862738371812
 30
0.0
 10
155.2649413674338
 20
-136.2221760727153
 30
0.0
 10
155.2649413674338
 20
-136.2221760727153
 30
0.0
 10
155.2649413674338
 20
-136.2221760727153
 30
0.0
 10
148.4915391338841
 20
-136.1587863157867
 30
0.0
 10
148.4915391338841
 20
-136.1587863157867
 30
0.0
 10
144.3215955585377
 20
-136.1160671317696
 30
0.0
 10
141.5699977944686
 20
-136.0313177828324
 30
0.0
 10
141.3582966769
 20
-135.9469129434438
 30
0.0
 10
141.0408311279342
 20
-135.8197889200381
 30
0.0
 10
141.1677828965657
 20
-135.7777587551181
 30
0.0
 10
142.1627264727059
 20
-135.6930094061809
 30
0.0
 10
142.1627264727059
 20
-135.6930094061809
 30
0.0
 10
142.1627264727059
 20
-135.6930094061809
 30
0.0
 10
142.1627264727059
 20
-135.6930094061809
 30
0.0
 10
142.1627264727059
 20
-135.6930094061809
 30
0.0
 10
142.1627264727059
 20
-135.6930094061809
 30
0.0
 10
142.1627264727059
 20
-135.6930094061809
 30
0.0
  0
SPLINE
  5
91
330
1F
100
AcDbEntity
  8
LAYER_1
 62
   250
100
AcDbSpline
210
0.0
220
0.0
230
1.0
 70
    11
 71
     3
 72
    92
 73
    88
 74
     0
 42
0.0000000001
 43
0.0000000001
 40
0.0
 40
0.0
 40
0.0
 40
0.0
 40
1.0
 40
1.0
 40
1.0
 40
2.0
 40
2.0
 40
2.0
 40
3.0
 40
3.0
 40
3.0
 40
4.0
 40
4.0
 40
4.0
 40
5.0
 40
5.0
 40
5.0
 40
6.0
 40
6.0
 40
6.0
 40
7.0
 40
7.0
 40
7.0
 40
8.0
 40
8.0
 40
8.0
 40
9.0
 40
9.0
 40
9.0
 40
10.0
 40
10.0
 40
10.0
 40
11.0
 40
11.0
 40
11.0
 40
12.0
 40
12.0
 40
12.0
 40
13.0
 40
13.0
 40
13.0
 40
14.0
 40
14.0
 40
14.0
 40
15.0
 40
15.0
 40
15.0
 40
16.0
 40
16.0
 40
16.0
 40
17.0
 40
17.0
 40
17.0
 40
18.0
 40
18.0
 40
18.0
 40
19.0
 40
19.0
 40
19.0
 40
20.0
 40
20.0
 40
20.0
 40
21.0
 40
21.0
 40
21.0
 40
22.0
 40
22.0
 40
22.0
 40
23.0
 40
23.0
 40
23.0
 40
24.0
 40
24.0
 40
24.0
 40
25.0
 40
25.0
 40
25.0
 40
26.0
 40
26.0
 40
26.0
 40
27.0
 40
27.0
 40
27.0
 40
28.0
 40
28.0
 40
28.0
 40
29.0
 40
29.0
 40
29.0
 40
29.0
 10
141.4218586886029
 20
-110.8642062439853
 30
0.0
 10
141.6757622258658
 20
-110.8008164870567
 30
0.0
 10
143.2210598057746
 20
-110.7160671381196
 30
0.0
 10
144.8931368995406
 20
-110.652677381191
 30
0.0
 10
144.8931368995406
 20
-110.652677381191
 30
0.0
 10
147.9199977928811
 20
-110.5679280322539
 30
0.0
 10
147.9199977928811
 20
-110.5679280322539
 30
0.0
 10
147.9199977928811
 20
-110.5679280322539
 30
0.0
 10
147.9199977928811
 20
-109.4038302677879
 30
0.0
 10
147.9199977928811
 20
-109.4038302677879
 30
0.0
 10
147.9199977928811
 20
-109.4038302677879
 30
0.0
 10
146.1207966757094
 20
-109.4038302677879
 30
0.0
 10
146.1207966757094
 20
-109.4038302677879
 30
0.0
 10
146.1207966757094
 20
-109.4038302677879
 30
0.0
 10
146.1207966757094
 20
-107.011900472379
 30
0.0
 10
146.1207966757094
 20
-107.011900472379
 30
0.0
 10
146.1207966757094
 20
-107.011900472379
 30
0.0
 10
154.0584689284993
 20
-107.011900472379
 30
0.0
 10
154.0584689284993
 20
-107.011900472379
 30
0.0
 10
154.0584689284993
 20
-107.011900472379
 30
0.0
 10
154.0584689284993
 20
-109.4038302677879
 30
0.0
 10
154.0584689284993
 20
-109.4038302677879
 30
0.0
 10
154.0584689284993
 20
-109.4038302677879
 30
0.0
 10
152.2590955565533
 20
-109.4038302677879
 30
0.0
 10
152.2590955565533
 20
-109.4038302677879
 30
0.0
 10
152.2590955565533
 20
-109.4038302677879
 30
0.0
 10
152.2590955565533
 20
-110.6106472162709
 30
0.0
 10
152.2590955565533
 20
-110.6106472162709
 30
0.0
 10
152.2590955565533
 20
-110.6106472162709
 30
0.0
 10
155.2649413674338
 20
-110.6106472162709
 30
0.0
 10
155.2649413674338
 20
-110.6106472162709
 30
0.0
 10
155.2649413674338
 20
-110.6106472162709
 30
0.0
 10
155.2649413674338
 20
-105.8481472174616
 30
0.0
 10
155.2649413674338
 20
-105.8481472174616
 30
0.0
 10
155.2649413674338
 20
-105.8481472174616
 30
0.0
 10
149.084095557347
 20
-105.7844129509845
 30
0.0
 10
149.084095557347
 20
-105.7844129509845
 30
0.0
 10
145.3589138091464
 20
-105.7420382765159
 30
0.0
 10
142.7764702334031
 20
-105.6572889275787
 30
0.0
 10
142.5437540333745
 20
-105.5725395786416
 30
0.0
 10
141.9510253551373
 20
-105.3189805509272
 30
0.0
 10
144.0041300095719
 20
-105.2128716099815
 30
0.0
 10
150.1848035648844
 20
-105.2128716099815
 30
0.0
 10
150.1848035648844
 20
-105.2128716099815
 30
0.0
 10
155.8574977908967
 20
-105.2128716099815
 30
0.0
 10
155.8574977908967
 20
-105.2128716099815
 30
0.0
 10
155.8574977908967
 20
-105.2128716099815
 30
0.0
 10
155.8574977908967
 20
-111.2032036397339
 30
0.0
 10
155.8574977908967
 20
-111.2032036397339
 30
0.0
 10
155.8574977908967
 20
-111.2032036397339
 30
0.0
 10
151.6665391330903
 20
-111.2032036397339
 30
0.0
 10
151.6665391330903
 20
-111.2032036397339
 30
0.0
 10
151.6665391330903
 20
-111.2032036397339
 30
0.0
 10
151.6665391330903
 20
-108.811273844325
 30
0.0
 10
151.6665391330903
 20
-108.811273844325
 30
0.0
 10
151.6665391330903
 20
-108.811273844325
 30
0.0
 10
153.4655679954878
 20
-108.811273844325
 30
0.0
 10
153.4655679954878
 20
-108.811273844325
 30
0.0
 10
153.4655679954878
 20
-108.811273844325
 30
0.0
 10
153.4655679954878
 20
-107.6258164878505
 30
0.0
 10
153.4655679954878
 20
-107.6258164878505
 30
0.0
 10
153.4655679954878
 20
-107.6258164878505
 30
0.0
 10
146.7347126911809
 20
-107.6258164878505
 30
0.0
 10
146.7347126911809
 20
-107.6258164878505
 30
0.0
 10
146.7347126911809
 20
-107.6258164878505
 30
0.0
 10
146.7347126911809
 20
-108.811273844325
 30
0.0
 10
146.7347126911809
 20
-108.811273844325
 30
0.0
 10
146.7347126911809
 20
-108.811273844325
 30
0.0
 10
148.5339138083527
 20
-108.811273844325
 30
0.0
 10
148.5339138083527
 20
-108.811273844325
 30
0.0
 10
148.5339138083527
 20
-108.811273844325
 30
0.0
 10
148.5339138083527
 20
-111.2032036397339
 30
0.0
 10
148.5339138083527
 20
-111.2032036397339
 30
0.0
 10
148.5339138083527
 20
-111.2032036397339
 30
0.0
 10
145.5704426719407
 20
-111.1818440477254
 30
0.0
 10
145.5704426719407
 20
-111.1818440477254
 30
0.0
 10
143.9407402526433
 20
-111.1818440477254
 30
0.0
 10
142.2473035668687
 20
-111.1398138828053
 30
0.0
 10
141.8028862492715
 20
-111.0760796163282
 30
0.0
 10
141.0408311279342
 20
-110.9913302673911
 30
0.0
 10
141.0196437906999
 20
-110.970315184931
 30
0.0
 10
141.4218586886029
 20
-110.8642062439853
 30
0.0
 10
141.4218586886029
 20
-110.8642062439853
 30
0.0
 10
141.4218586886029
 20
-110.8642062439853
 30
0.0
 10
141.4218586886029
 20
-110.8642062439853
 30
0.0
 10
141.4218586886029
 20
-110.8642062439853
 30
0.0
 10
141.4218586886029
 20
-110.8642062439853
 30
0.0
 10
141.4218586886029
 20
-110.8642062439853
 30
0.0
  0
SPLINE
  5
92
330
1F
100
AcDbEntity
  8
LAYER_1
 62
   250
100
AcDbSpline
210
0.0
220
0.0
230
1.0
 70
    11
 71
     3
 72
    56
 73
    52
 74
     0
 42
0.0000000001
 43
0.0000000001
 40
0.0
 40
0.0
 40
0.0
 40
0.0
 40
1.0
 40
1.0
 40
1.0
 40
2.0
 40
2.0
 40
2.0
 40
3.0
 40
3.0
 40
3.0
 40
4.0
 40
4.0
 40
4.0
 40
5.0
 40
5.0
 40
5.0
 40
6.0
 40
6.0
 40
6.0
 40
7.0
 40
7.0
 40
7.0
 40
8.0
 40
8.0
 40
8.0
 40
9.0
 40
9.0
 40
9.0
 40
10.0
 40
10.0
 40
10.0
 40
11.0
 40
11.0
 40
11.0
 40
12.0
 40
12.0
 40
12.0
 40
13.0
 40
13.0
 40
13.0
 40
14.0
 40
14.0
 40
14.0
 40
15.0
 40
15.0
 40
15.0
 40
16.0
 40
16.0
 40
16.0
 40
17.0
 40
17.0
 40
17.0
 40
17.0
 10
142.1627264727059
 20
-77.80214163636543
 30
0.0
 10
142.7976575706374
 20
-77.73857962466258
 30
0.0
 10
146.1419840129437
 20
-77.696204950194
 30
0.0
 10
149.5922471414214
 20
-77.696204950194
 30
0.0
 10
149.5922471414214
 20
-77.696204950194
 30
0.0
 10
155.8574977908967
 20
-77.696204950194
 30
0.0
 10
155.8574977908967
 20
-77.696204950194
 30
0.0
 10
155.8574977908967
 20
-77.696204950194
 30
0.0
 10
155.8574977908967
 20
-80.08813474560297
 30
0.0
 10
155.8574977908967
 20
-80.08813474560297
 30
0.0
 10
155.8574977908967
 20
-80.08813474560297
 30
0.0
 10
146.7347126911809
 20
-80.08813474560297
 30
0.0
 10
146.7347126911809
 20
-80.08813474560297
 30
0.0
 10
146.7347126911809
 20
-80.08813474560297
 30
0.0
 10
146.7347126911809
 20
-81.88716360800044
 30
0.0
 10
146.7347126911809
 20
-81.88716360800044
 30
0.0
 10
146.7347126911809
 20
-81.88716360800044
 30
0.0
 10
145.6551920208779
 20
-81.88716360800044
 30
0.0
 10
145.6551920208779
 20
-81.88716360800044
 30
0.0
 10
144.1312540329776
 20
-81.88716360800044
 30
0.0
 10
142.5013793589059
 20
-81.7178371649004
 30
0.0
 10
142.6495184647717
 20
-81.56969805903466
 30
0.0
 10
142.7130804764745
 20
-81.50630830210606
 30
0.0
 10
143.5173380175061
 20
-81.40037161593463
 30
0.0
 10
144.4487195819434
 20
-81.33698185900603
 30
0.0
 10
144.4487195819434
 20
-81.33698185900603
 30
0.0
 10
146.1207966757094
 20
-81.2310451728346
 30
0.0
 10
146.1207966757094
 20
-81.2310451728346
 30
0.0
 10
146.1207966757094
 20
-81.2310451728346
 30
0.0
 10
146.1207966757094
 20
-79.49540606736574
 30
0.0
 10
146.1207966757094
 20
-79.49540606736574
 30
0.0
 10
146.1207966757094
 20
-79.49540606736574
 30
0.0
 10
155.2649413674338
 20
-79.49540606736574
 30
0.0
 10
155.2649413674338
 20
-79.49540606736574
 30
0.0
 10
155.2649413674338
 20
-79.49540606736574
 30
0.0
 10
155.2649413674338
 20
-78.31012096566553
 30
0.0
 10
155.2649413674338
 20
-78.31012096566553
 30
0.0
 10
155.2649413674338
 20
-78.31012096566553
 30
0.0
 10
148.4915391338841
 20
-78.26774629119696
 30
0.0
 10
148.4915391338841
 20
-78.26774629119696
 30
0.0
 10
144.3215955585377
 20
-78.22537161672838
 30
0.0
 10
141.5699977944686
 20
-78.1407945225655
 30
0.0
 10
141.3582966769
 20
-78.03485783639407
 30
0.0
 10
141.0408311279342
 20
-77.90790606776261
 30
0.0
 10
141.1677828965657
 20
-77.86553139329403
 30
0.0
 10
142.1627264727059
 20
-77.80214163636543
 30
0.0
 10
142.1627264727059
 20
-77.80214163636543
 30
0.0
 10
142.1627264727059
 20
-77.80214163636543
 30
0.0
 10
142.1627264727059
 20
-77.80214163636543
 30
0.0
 10
142.1627264727059
 20
-77.80214163636543
 30
0.0
 10
142.1627264727059
 20
-77.80214163636543
 30
0.0
 10
142.1627264727059
 20
-77.80214163636543
 30
0.0
  0
SPLINE
  5
93
330
1F
100
AcDbEntity
  8
LAYER_1
 62
   250
100
AcDbSpline
210
0.0
220
0.0
230
1.0
 70
    11
 71
     3
 72
    80
 73
    76
 74
     0
 42
0.0000000001
 43
0.0000000001
 40
0.0
 40
0.0
 40
0.0
 40
0.0
 40
1.0
 40
1.0
 40
1.0
 40
2.0
 40
2.0
 40
2.0
 40
3.0
 40
3.0
 40
3.0
 40
4.0
 40
4.0
 40
4.0
 40
5.0
 40
5.0
 40
5.0
 40
6.0
 40
6.0
 40
6.0
 40
7.0
 40
7.0
 40
7.0
 40
8.0
 40
8.0
 40
8.0
 40
9.0
 40
9.0
 40
9.0
 40
10.0
 40
10.0
 40
10.0
 40
11.0
 40
11.0
 40
11.0
 40
12.0
 40
12.0
 40
12.0
 40
13.0
 40
13.0
 40
13.0
 40
14.0
 40
14.0
 40
14.0
 40
15.0
 40
15.0
 40
15.0
 40
16.0
 40
16.0
 40
16.0
 40
17.0
 40
17.0
 40
17.0
 40
18.0
 40
18.0
 40
18.0
 40
19.0
 40
19.0
 40
19.0
 40
20.0
 40
20.0
 40
20.0
 40
21.0
 40
21.0
 40
21.0
 40
22.0
 40
22.0
 40
22.0
 40
23.0
 40
23.0
 40
23.0
 40
24.0
 40
24.0
 40
24.0
 40
25.0
 40
25.0
 40
25.0
 40
25.0
 10
142.1627264727059
 20
-62.68902450689719
 30
0.0
 10
142.7976575706374
 20
-62.6256347499686
 30
0.0
 10
146.1419840129437
 20
-62.58326007550002
 30
0.0
 10
149.5922471414214
 20
-62.58326007550002
 30
0.0
 10
149.5922471414214
 20
-62.58326007550002
 30
0.0
 10
155.8574977908967
 20
-62.58326007550002
 30
0.0
 10
155.8574977908967
 20
-62.58326007550002
 30
0.0
 10
155.8574977908967
 20
-62.58326007550002
 30
0.0
 10
155.8574977908967
 20
-68.57341985047817
 30
0.0
 10
155.8574977908967
 20
-68.57341985047817
 30
0.0
 10
155.8574977908967
 20
-68.57341985047817
 30
0.0
 10
152.8730115720248
 20
-68.57341985047817
 30
0.0
 10
152.8730115720248
 20
-68.57341985047817
 30
0.0
 10
151.2221218154931
 20
-68.57341985047817
 30
0.0
 10
149.8671657611443
 20
-68.50985783877532
 30
0.0
 10
149.8671657611443
 20
-68.44646808184672
 30
0.0
 10
149.8671657611443
 20
-68.38290607014386
 30
0.0
 10
149.6980115728186
 20
-68.06544052117809
 30
0.0
 10
149.5074977924842
 20
-67.74797497221232
 30
0.0
 10
149.5074977924842
 20
-67.74797497221232
 30
0.0
 10
149.1478298238242
 20
-67.15524629397508
 30
0.0
 10
149.1478298238242
 20
-67.15524629397508
 30
0.0
 10
149.1478298238242
 20
-67.15524629397508
 30
0.0
 10
148.8090046828498
 20
-67.85373940360948
 30
0.0
 10
148.8090046828498
 20
-67.85373940360948
 30
0.0
 10
148.8090046828498
 20
-67.85373940360948
 30
0.0
 10
148.4703517966498
 20
-68.57341985047817
 30
0.0
 10
148.4703517966498
 20
-68.57341985047817
 30
0.0
 10
148.4703517966498
 20
-68.57341985047817
 30
0.0
 10
146.1419840129437
 20
-68.5522325132439
 30
0.0
 10
146.1419840129437
 20
-68.5522325132439
 30
0.0
 10
144.850762225072
 20
-68.5522325132439
 30
0.0
 10
143.4327609233432
 20
-68.48867050154102
 30
0.0
 10
142.9881713509717
 20
-68.42528074461244
 30
0.0
 10
142.1627264727059
 20
-68.34053139567528
 30
0.0
 10
142.1627264727059
 20
-68.34053139567528
 30
0.0
 10
142.6918931392402
 20
-68.21357962704383
 30
0.0
 10
142.9669840137374
 20
-68.12883027810669
 30
0.0
 10
144.3215955585377
 20
-68.0442531839438
 30
0.0
 10
145.6763793581122
 20
-67.98069117224094
 30
0.0
 10
145.6763793581122
 20
-67.98069117224094
 30
0.0
 10
148.152886247684
 20
-67.89611407807806
 30
0.0
 10
148.152886247684
 20
-67.89611407807806
 30
0.0
 10
148.152886247684
 20
-67.89611407807806
 30
0.0
 10
148.5973035652812
 20
-67.0494818625779
 30
0.0
 10
148.5973035652812
 20
-67.0494818625779
 30
0.0
 10
148.8513793573184
 20
-66.58370495297213
 30
0.0
 10
149.1054551493556
 20
-66.1392876353749
 30
0.0
 10
149.1478298238242
 20
-66.09691296090634
 30
0.0
 10
149.2112195807528
 20
-66.03335094920347
 30
0.0
 10
149.4864827100242
 20
-66.43556584710639
 30
0.0
 10
149.7403862472871
 20
-66.98591985087505
 30
0.0
 10
149.7403862472871
 20
-66.98591985087505
 30
0.0
 10
150.2271782393529
 20
-67.95950383500666
 30
0.0
 10
150.2271782393529
 20
-67.95950383500666
 30
0.0
 10
150.2271782393529
 20
-67.95950383500666
 30
0.0
 10
155.2649413674338
 20
-67.95950383500666
 30
0.0
 10
155.2649413674338
 20
-67.95950383500666
 30
0.0
 10
155.2649413674338
 20
-67.95950383500666
 30
0.0
 10
155.2649413674338
 20
-63.19700383619728
 30
0.0
 10
155.2649413674338
 20
-63.19700383619728
 30
0.0
 10
155.2649413674338
 20
-63.19700383619728
 30
0.0
 10
148.4915391338841
 20
-63.15480141650297
 30
0.0
 10
148.4915391338841
 20
-63.15480141650297
 30
0.0
 10
144.3215955585377
 20
-63.11242674203439
 30
0.0
 10
141.5699977944686
 20
-63.02767739309725
 30
0.0
 10
141.3582966769
 20
-62.94310029893437
 30
0.0
 10
141.0408311279342
 20
-62.79496119306862
 30
0.0
 10
141.1677828965657
 20
-62.77377385583434
 30
0.0
 10
142.1627264727059
 20
-62.68902450689719
 30
0.0
 10
142.1627264727059
 20
-62.68902450689719
 30
0.0
 10
142.1627264727059
 20
-62.68902450689719
 30
0.0
 10
142.1627264727059
 20
-62.68902450689719
 30
0.0
 10
142.1627264727059
 20
-62.68902450689719
 30
0.0
 10
142.1627264727059
 20
-62.68902450689719
 30
0.0
 10
142.1627264727059
 20
-62.68902450689719
 30
0.0
  0
SPLINE
  5
94
330
1F
100
AcDbEntity
  8
LAYER_1
 62
   250
100
AcDbSpline
210
0.0
220
0.0
230
1.0
 70
    11
 71
     3
 72
   104
 73
   100
 74
     0
 42
0.0000000001
 43
0.0000000001
 40
0.0
 40
0.0
 40
0.0
 40
0.0
 40
1.0
 40
1.0
 40
1.0
 40
2.0
 40
2.0
 40
2.0
 40
3.0
 40
3.0
 40
3.0
 40
4.0
 40
4.0
 40
4.0
 40
5.0
 40
5.0
 40
5.0
 40
6.0
 40
6.0
 40
6.0
 40
7.0
 40
7.0
 40
7.0
 40
8.0
 40
8.0
 40
8.0
 40
9.0
 40
9.0
 40
9.0
 40
10.0
 40
10.0
 40
10.0
 40
11.0
 40
11.0
 40
11.0
 40
12.0
 40
12.0
 40
12.0
 40
13.0
 40
13.0
 40
13.0
 40
14.0
 40
14.0
 40
14.0
 40
15.0
 40
15.0
 40
15.0
 40
16.0
 40
16.0
 40
16.0
 40
17.0
 40
17.0
 40
17.0
 40
18.0
 40
18.0
 40
18.0
 40
19.0
 40
19.0
 40
19.0
 40
20.0
 40
20.0
 40
20.0
 40
21.0
 40
21.0
 40
21.0
 40
22.0
 40
22.0
 40
22.0
 40
23.0
 40
23.0
 40
23.0
 40
24.0
 40
24.0
 40
24.0
 40
25.0
 40
25.0
 40
25.0
 40
26.0
 40
26.0
 40
26.0
 40
27.0
 40
27.0
 40
27.0
 40
28.0
 40
28.0
 40
28.0
 40
29.0
 40
29.0
 40
29.0
 40
30.0
 40
30.0
 40
30.0
 40
31.0
 40
31.0
 40
31.0
 40
32.0
 40
32.0
 40
32.0
 40
33.0
 40
33.0
 40
33.0
 40
33.0
 10
141.2737195827371
 20
-103.3924831555755
 30
0.0
 10
141.5064357827657
 20
-103.3290933986469
 30
0.0
 10
142.7130804764745
 20
-103.2443440497098
 30
0.0
 10
143.919552915409
 20
-103.1809542927812
 30
0.0
 10
143.919552915409
 20
-103.1809542927812
 30
0.0
 10
146.1207966757094
 20
-103.0750176066097
 30
0.0
 10
146.1207966757094
 20
-103.0750176066097
 30
0.0
 10
146.1207966757094
 20
-103.0750176066097
 30
0.0
 10
146.1207966757094
 20
-99.54017738396912
 30
0.0
 10
146.1207966757094
 20
-99.54017738396912
 30
0.0
 10
146.1207966757094
 20
-99.54017738396912
 30
0.0
 10
148.5339138083527
 20
-99.54017738396912
 30
0.0
 10
148.5339138083527
 20
-99.54017738396912
 30
0.0
 10
148.5339138083527
 20
-99.54017738396912
 30
0.0
 10
148.5339138083527
 20
-103.1173922810783
 30
0.0
 10
148.5339138083527
 20
-103.1173922810783
 30
0.0
 10
148.5339138083527
 20
-103.1173922810783
 30
0.0
 10
149.7190266552786
 20
-103.1173922810783
 30
0.0
 10
149.7190266552786
 20
-103.1173922810783
 30
0.0
 10
149.7190266552786
 20
-103.1173922810783
 30
0.0
 10
149.7190266552786
 20
-99.54017738396912
 30
0.0
 10
149.7190266552786
 20
-99.54017738396912
 30
0.0
 10
149.7190266552786
 20
-99.54017738396912
 30
0.0
 10
154.0584689284993
 20
-99.54017738396912
 30
0.0
 10
154.0584689284993
 20
-99.54017738396912
 30
0.0
 10
154.0584689284993
 20
-99.54017738396912
 30
0.0
 10
154.0584689284993
 20
-101.9321071793781
 30
0.0
 10
154.0584689284993
 20
-101.9321071793781
 30
0.0
 10
154.0584689284993
 20
-101.9321071793781
 30
0.0
 10
152.2590955565533
 20
-101.9321071793781
 30
0.0
 10
152.2590955565533
 20
-101.9321071793781
 30
0.0
 10
152.2590955565533
 20
-101.9321071793781
 30
0.0
 10
152.2590955565533
 20
-103.1173922810783
 30
0.0
 10
152.2590955565533
 20
-103.1173922810783
 30
0.0
 10
152.2590955565533
 20
-103.1173922810783
 30
0.0
 10
155.2649413674338
 20
-103.1173922810783
 30
0.0
 10
155.2649413674338
 20
-103.1173922810783
 30
0.0
 10
155.2649413674338
 20
-103.1173922810783
 30
0.0
 10
155.2649413674338
 20
-98.3760796195032
 30
0.0
 10
155.2649413674338
 20
-98.3760796195032
 30
0.0
 10
155.2649413674338
 20
-98.3760796195032
 30
0.0
 10
148.8513793573184
 20
-98.31251760780034
 30
0.0
 10
148.8513793573184
 20
-98.31251760780034
 30
0.0
 10
144.9778862484777
 20
-98.27014293333177
 30
0.0
 10
142.3320529158059
 20
-98.18556583916889
 30
0.0
 10
142.099164461003
 20
-98.10081649023175
 30
0.0
 10
141.4854207003057
 20
-97.82572561573454
 30
0.0
 10
143.5597126919747
 20
-97.7409762667974
 30
0.0
 10
149.97327470209
 20
-97.7409762667974
 30
0.0
 10
149.97327470209
 20
-97.7409762667974
 30
0.0
 10
155.8574977908967
 20
-97.7409762667974
 30
0.0
 10
155.8574977908967
 20
-97.7409762667974
 30
0.0
 10
155.8574977908967
 20
-97.7409762667974
 30
0.0
 10
155.8574977908967
 20
-103.7313082965498
 30
0.0
 10
155.8574977908967
 20
-103.7313082965498
 30
0.0
 10
155.8574977908967
 20
-103.7313082965498
 30
0.0
 10
151.6665391330903
 20
-103.7313082965498
 30
0.0
 10
151.6665391330903
 20
-103.7313082965498
 30
0.0
 10
151.6665391330903
 20
-103.7313082965498
 30
0.0
 10
151.6665391330903
 20
-101.3393785011409
 30
0.0
 10
151.6665391330903
 20
-101.3393785011409
 30
0.0
 10
151.6665391330903
 20
-101.3393785011409
 30
0.0
 10
153.4655679954878
 20
-101.3393785011409
 30
0.0
 10
153.4655679954878
 20
-101.3393785011409
 30
0.0
 10
153.4655679954878
 20
-101.3393785011409
 30
0.0
 10
153.4655679954878
 20
-100.1329060622064
 30
0.0
 10
153.4655679954878
 20
-100.1329060622064
 30
0.0
 10
153.4655679954878
 20
-100.1329060622064
 30
0.0
 10
150.3119275882901
 20
-100.1329060622064
 30
0.0
 10
150.3119275882901
 20
-100.1329060622064
 30
0.0
 10
150.3119275882901
 20
-100.1329060622064
 30
0.0
 10
150.3119275882901
 20
-103.7313082965498
 30
0.0
 10
150.3119275882901
 20
-103.7313082965498
 30
0.0
 10
150.3119275882901
 20
-103.7313082965498
 30
0.0
 10
147.9199977928811
 20
-103.7313082965498
 30
0.0
 10
147.9199977928811
 20
-103.7313082965498
 30
0.0
 10
147.9199977928811
 20
-103.7313082965498
 30
0.0
 10
147.9199977928811
 20
-100.1329060622064
 30
0.0
 10
147.9199977928811
 20
-100.1329060622064
 30
0.0
 10
147.9199977928811
 20
-100.1329060622064
 30
0.0
 10
146.7347126911809
 20
-100.1329060622064
 30
0.0
 10
146.7347126911809
 20
-100.1329060622064
 30
0.0
 10
146.7347126911809
 20
-100.1329060622064
 30
0.0
 10
146.7347126911809
 20
-103.7313082965498
 30
0.0
 10
146.7347126911809
 20
-103.7313082965498
 30
0.0
 10
146.7347126911809
 20
-103.7313082965498
 30
0.0
 10
144.5968586878091
 20
-103.7101209593155
 30
0.0
 10
144.5968586878091
 20
-103.7101209593155
 30
0.0
 10
143.4327609233432
 20
-103.7101209593155
 30
0.0
 10
142.099164461003
 20
-103.6465589476127
 30
0.0
 10
141.6335598061715
 20
-103.6041842731441
 30
0.0
 10
140.9138793593028
 20
-103.4984198417469
 30
0.0
 10
140.8715046848342
 20
-103.4772325045126
 30
0.0
 10
141.2737195827371
 20
-103.3924831555755
 30
0.0
 10
141.2737195827371
 20
-103.3924831555755
 30
0.0
 10
141.2737195827371
 20
-103.3924831555755
 30
0.0
 10
141.2737195827371
 20
-103.3924831555755
 30
0.0
 10
141.2737195827371
 20
-103.3924831555755
 30
0.0
 10
141.2737195827371
 20
-103.3924831555755
 30
0.0
 10
141.2737195827371
 20
-103.3924831555755
 30
0.0
  0
SPLINE
  5
95
330
1F
100
AcDbEntity
  8
LAYER_1
 62
   250
100
AcDbSpline
210
0.0
220
0.0
230
1.0
 70
    11
 71
     3
 72
   104
 73
   100
 74
     0
 42
0.0000000001
 43
0.0000000001
 40
0.0
 40
0.0
 40
0.0
 40
0.0
 40
1.0
 40
1.0
 40
1.0
 40
2.0
 40
2.0
 40
2.0
 40
3.0
 40
3.0
 40
3.0
 40
4.0
 40
4.0
 40
4.0
 40
5.0
 40
5.0
 40
5.0
 40
6.0
 40
6.0
 40
6.0
 40
7.0
 40
7.0
 40
7.0
 40
8.0
 40
8.0
 40
8.0
 40
9.0
 40
9.0
 40
9.0
 40
10.0
 40
10.0
 40
10.0
 40
11.0
 40
11.0
 40
11.0
 40
12.0
 40
12.0
 40
12.0
 40
13.0
 40
13.0
 40
13.0
 40
14.0
 40
14.0
 40
14.0
 40
15.0
 40
15.0
 40
15.0
 40
16.0
 40
16.0
 40
16.0
 40
17.0
 40
17.0
 40
17.0
 40
18.0
 40
18.0
 40
18.0
 40
19.0
 40
19.0
 40
19.0
 40
20.0
 40
20.0
 40
20.0
 40
21.0
 40
21.0
 40
21.0
 40
22.0
 40
22.0
 40
22.0
 40
23.0
 40
23.0
 40
23.0
 40
24.0
 40
24.0
 40
24.0
 40
25.0
 40
25.0
 40
25.0
 40
26.0
 40
26.0
 40
26.0
 40
27.0
 40
27.0
 40
27.0
 40
28.0
 40
28.0
 40
28.0
 40
29.0
 40
29.0
 40
29.0
 40
30.0
 40
30.0
 40
30.0
 40
31.0
 40
31.0
 40
31.0
 40
32.0
 40
32.0
 40
32.0
 40
33.0
 40
33.0
 40
33.0
 40
33.0
 10
141.2737195827371
 20
-75.85480141332798
 30
0.0
 10
141.5064357827657
 20
-75.8124267388594
 30
0.0
 10
142.7130804764745
 20
-75.70649005268797
 30
0.0
 10
143.919552915409
 20
-75.64310029575937
 30
0.0
 10
143.919552915409
 20
-75.64310029575937
 30
0.0
 10
146.1207966757094
 20
-75.55835094682222
 30
0.0
 10
146.1207966757094
 20
-75.55835094682222
 30
0.0
 10
146.1207966757094
 20
-75.55835094682222
 30
0.0
 10
146.1207966757094
 20
-72.00232338694734
 30
0.0
 10
146.1207966757094
 20
-72.00232338694734
 30
0.0
 10
146.1207966757094
 20
-72.00232338694734
 30
0.0
 10
148.5339138083527
 20
-72.00232338694734
 30
0.0
 10
148.5339138083527
 20
-72.00232338694734
 30
0.0
 10
148.5339138083527
 20
-72.00232338694734
 30
0.0
 10
148.5339138083527
 20
-75.60072562129079
 30
0.0
 10
148.5339138083527
 20
-75.60072562129079
 30
0.0
 10
148.5339138083527
 20
-75.60072562129079
 30
0.0
 10
149.7190266552786
 20
-75.60072562129079
 30
0.0
 10
149.7190266552786
 20
-75.60072562129079
 30
0.0
 10
149.7190266552786
 20
-75.60072562129079
 30
0.0
 10
149.7190266552786
 20
-72.00232338694734
 30
0.0
 10
149.7190266552786
 20
-72.00232338694734
 30
0.0
 10
149.7190266552786
 20
-72.00232338694734
 30
0.0
 10
154.0584689284993
 20
-72.00232338694734
 30
0.0
 10
154.0584689284993
 20
-72.00232338694734
 30
0.0
 10
154.0584689284993
 20
-72.00232338694734
 30
0.0
 10
154.0584689284993
 20
-74.3942531823563
 30
0.0
 10
154.0584689284993
 20
-74.3942531823563
 30
0.0
 10
154.0584689284993
 20
-74.3942531823563
 30
0.0
 10
152.2590955565533
 20
-74.3942531823563
 30
0.0
 10
152.2590955565533
 20
-74.3942531823563
 30
0.0
 10
152.2590955565533
 20
-74.3942531823563
 30
0.0
 10
152.2590955565533
 20
-75.60072562129079
 30
0.0
 10
152.2590955565533
 20
-75.60072562129079
 30
0.0
 10
152.2590955565533
 20
-75.60072562129079
 30
0.0
 10
155.2649413674338
 20
-75.60072562129079
 30
0.0
 10
155.2649413674338
 20
-75.60072562129079
 30
0.0
 10
155.2649413674338
 20
-75.60072562129079
 30
0.0
 10
155.2649413674338
 20
-70.83822562248142
 30
0.0
 10
155.2649413674338
 20
-70.83822562248142
 30
0.0
 10
155.2649413674338
 20
-70.83822562248142
 30
0.0
 10
148.8513793573184
 20
-70.77466361077856
 30
0.0
 10
148.8513793573184
 20
-70.77466361077856
 30
0.0
 10
144.9778862484777
 20
-70.73246119108425
 30
0.0
 10
142.3320529158059
 20
-70.6477118421471
 30
0.0
 10
142.099164461003
 20
-70.56313474798422
 30
0.0
 10
141.4854207003057
 20
-70.30905895594704
 30
0.0
 10
143.5597126919747
 20
-70.20329452454988
 30
0.0
 10
149.97327470209
 20
-70.20329452454988
 30
0.0
 10
149.97327470209
 20
-70.20329452454988
 30
0.0
 10
155.8574977908967
 20
-70.20329452454988
 30
0.0
 10
155.8574977908967
 20
-70.20329452454988
 30
0.0
 10
155.8574977908967
 20
-70.20329452454988
 30
0.0
 10
155.8574977908967
 20
-76.19345429952803
 30
0.0
 10
155.8574977908967
 20
-76.19345429952803
 30
0.0
 10
155.8574977908967
 20
-76.19345429952803
 30
0.0
 10
151.6665391330903
 20
-76.19345429952803
 30
0.0
 10
151.6665391330903
 20
-76.19345429952803
 30
0.0
 10
151.6665391330903
 20
-76.19345429952803
 30
0.0
 10
151.6665391330903
 20
-73.80152450411907
 30
0.0
 10
151.6665391330903
 20
-73.80152450411907
 30
0.0
 10
151.6665391330903
 20
-73.80152450411907
 30
0.0
 10
153.4655679954878
 20
-73.80152450411907
 30
0.0
 10
153.4655679954878
 20
-73.80152450411907
 30
0.0
 10
153.4655679954878
 20
-73.80152450411907
 30
0.0
 10
153.4655679954878
 20
-72.61623940241886
 30
0.0
 10
153.4655679954878
 20
-72.61623940241886
 30
0.0
 10
153.4655679954878
 20
-72.61623940241886
 30
0.0
 10
150.3119275882901
 20
-72.61623940241886
 30
0.0
 10
150.3119275882901
 20
-72.61623940241886
 30
0.0
 10
150.3119275882901
 20
-72.61623940241886
 30
0.0
 10
150.3119275882901
 20
-76.19345429952803
 30
0.0
 10
150.3119275882901
 20
-76.19345429952803
 30
0.0
 10
150.3119275882901
 20
-76.19345429952803
 30
0.0
 10
147.9199977928811
 20
-76.19345429952803
 30
0.0
 10
147.9199977928811
 20
-76.19345429952803
 30
0.0
 10
147.9199977928811
 20
-76.19345429952803
 30
0.0
 10
147.9199977928811
 20
-72.61623940241886
 30
0.0
 10
147.9199977928811
 20
-72.61623940241886
 30
0.0
 10
147.9199977928811
 20
-72.61623940241886
 30
0.0
 10
146.7347126911809
 20
-72.61623940241886
 30
0.0
 10
146.7347126911809
 20
-72.61623940241886
 30
0.0
 10
146.7347126911809
 20
-72.61623940241886
 30
0.0
 10
146.7347126911809
 20
-76.19345429952803
 30
0.0
 10
146.7347126911809
 20
-76.19345429952803
 30
0.0
 10
146.7347126911809
 20
-76.19345429952803
 30
0.0
 10
144.5968586878091
 20
-76.17226696229375
 30
0.0
 10
144.5968586878091
 20
-76.17226696229375
 30
0.0
 10
143.4327609233432
 20
-76.17226696229375
 30
0.0
 10
142.099164461003
 20
-76.12989228782517
 30
0.0
 10
141.6335598061715
 20
-76.06633027612232
 30
0.0
 10
140.9138793593028
 20
-75.98175318195942
 30
0.0
 10
140.8715046848342
 20
-75.96056584472514
 30
0.0
 10
141.2737195827371
 20
-75.85480141332798
 30
0.0
 10
141.2737195827371
 20
-75.85480141332798
 30
0.0
 10
141.2737195827371
 20
-75.85480141332798
 30
0.0
 10
141.2737195827371
 20
-75.85480141332798
 30
0.0
 10
141.2737195827371
 20
-75.85480141332798
 30
0.0
 10
141.2737195827371
 20
-75.85480141332798
 30
0.0
 10
141.2737195827371
 20
-75.85480141332798
 30
0.0
  0
SPLINE
  5
96
330
1F
100
AcDbEntity
  8
LAYER_1
 62
   250
100
AcDbSpline
210
0.0
220
0.0
230
1.0
 70
    11
 71
     3
 72
   101
 73
    97
 74
     0
 42
0.0000000001
 43
0.0000000001
 40
0.0
 40
0.0
 40
0.0
 40
0.0
 40
1.0
 40
1.0
 40
1.0
 40
2.0
 40
2.0
 40
2.0
 40
3.0
 40
3.0
 40
3.0
 40
4.0
 40
4.0
 40
4.0
 40
5.0
 40
5.0
 40
5.0
 40
6.0
 40
6.0
 40
6.0
 40
7.0
 40
7.0
 40
7.0
 40
8.0
 40
8.0
 40
8.0
 40
9.0
 40
9.0
 40
9.0
 40
10.0
 40
10.0
 40
10.0
 40
11.0
 40
11.0
 40
11.0
 40
12.0
 40
12.0
 40
12.0
 40
13.0
 40
13.0
 40
13.0
 40
14.0
 40
14.0
 40
14.0
 40
15.0
 40
15.0
 40
15.0
 40
16.0
 40
16.0
 40
16.0
 40
17.0
 40
17.0
 40
17.0
 40
18.0
 40
18.0
 40
18.0
 40
19.0
 40
19.0
 40
19.0
 40
20.0
 40
20.0
 40
20.0
 40
21.0
 40
21.0
 40
21.0
 40
22.0
 40
22.0
 40
22.0
 40
23.0
 40
23.0
 40
23.0
 40
24.0
 40
24.0
 40
24.0
 40
25.0
 40
25.0
 40
25.0
 40
26.0
 40
26.0
 40
26.0
 40
27.0
 40
27.0
 40
27.0
 40
28.0
 40
28.0
 40
28.0
 40
29.0
 40
29.0
 40
29.0
 40
30.0
 40
30.0
 40
30.0
 40
31.0
 40
31.0
 40
31.0
 40
32.0
 40
32.0
 40
32.0
 40
32.0
 10
141.2737195827371
 20
-60.74168428385972
 30
0.0
 10
141.5064357827657
 20
-60.69948186416541
 30
0.0
 10
142.7130804764745
 20
-60.59354517799398
 30
0.0
 10
143.919552915409
 20
-60.55117050352541
 30
0.0
 10
143.919552915409
 20
-60.55117050352541
 30
0.0
 10
146.1207966757094
 20
-60.44540607212824
 30
0.0
 10
146.1207966757094
 20
-60.44540607212824
 30
0.0
 10
146.1207966757094
 20
-60.44540607212824
 30
0.0
 10
146.1207966757094
 20
-56.88937851225335
 30
0.0
 10
146.1207966757094
 20
-56.88937851225335
 30
0.0
 10
146.1207966757094
 20
-56.88937851225335
 30
0.0
 10
148.5339138083527
 20
-56.88937851225335
 30
0.0
 10
148.5339138083527
 20
-56.88937851225335
 30
0.0
 10
148.5339138083527
 20
-56.88937851225335
 30
0.0
 10
148.5339138083527
 20
-60.4877807465968
 30
0.0
 10
148.5339138083527
 20
-60.4877807465968
 30
0.0
 10
148.5339138083527
 20
-60.4877807465968
 30
0.0
 10
149.7190266552786
 20
-60.4877807465968
 30
0.0
 10
149.7190266552786
 20
-60.4877807465968
 30
0.0
 10
149.7190266552786
 20
-60.4877807465968
 30
0.0
 10
149.7190266552786
 20
-56.88937851225335
 30
0.0
 10
149.7190266552786
 20
-56.88937851225335
 30
0.0
 10
149.7190266552786
 20
-56.88937851225335
 30
0.0
 10
154.0584689284993
 20
-56.88937851225335
 30
0.0
 10
154.0584689284993
 20
-56.88937851225335
 30
0.0
 10
154.0584689284993
 20
-56.88937851225335
 30
0.0
 10
154.0584689284993
 20
-59.28130830766231
 30
0.0
 10
154.0584689284993
 20
-59.28130830766231
 30
0.0
 10
154.0584689284993
 20
-59.28130830766231
 30
0.0
 10
152.2590955565533
 20
-59.28130830766231
 30
0.0
 10
152.2590955565533
 20
-59.28130830766231
 30
0.0
 10
152.2590955565533
 20
-59.28130830766231
 30
0.0
 10
152.2590955565533
 20
-60.4877807465968
 30
0.0
 10
152.2590955565533
 20
-60.4877807465968
 30
0.0
 10
152.2590955565533
 20
-60.4877807465968
 30
0.0
 10
155.2649413674338
 20
-60.4877807465968
 30
0.0
 10
155.2649413674338
 20
-60.4877807465968
 30
0.0
 10
155.2649413674338
 20
-60.4877807465968
 30
0.0
 10
155.2649413674338
 20
-55.72528074778743
 30
0.0
 10
155.2649413674338
 20
-55.72528074778743
 30
0.0
 10
155.2649413674338
 20
-55.72528074778743
 30
0.0
 10
148.8513793573184
 20
-55.66171873608457
 30
0.0
 10
148.8513793573184
 20
-55.66171873608457
 30
0.0
 10
144.9778862484777
 20
-55.64053139885029
 30
0.0
 10
142.3320529158059
 20
-55.5559543046874
 30
0.0
 10
142.099164461003
 20
-55.45001761851597
 30
0.0
 10
141.4854207003057
 20
-55.19611408125306
 30
0.0
 10
143.5597126919747
 20
-55.11136473231591
 30
0.0
 10
149.97327470209
 20
-55.11136473231591
 30
0.0
 10
149.97327470209
 20
-55.11136473231591
 30
0.0
 10
155.8574977908967
 20
-55.11136473231591
 30
0.0
 10
155.8574977908967
 20
-55.11136473231591
 30
0.0
 10
155.8574977908967
 20
-55.11136473231591
 30
0.0
 10
155.8574977908967
 20
-61.08033717005978
 30
0.0
 10
155.8574977908967
 20
-61.08033717005978
 30
0.0
 10
155.8574977908967
 20
-61.08033717005978
 30
0.0
 10
151.6665391330903
 20
-61.08033717005978
 30
0.0
 10
151.6665391330903
 20
-61.08033717005978
 30
0.0
 10
151.6665391330903
 20
-61.08033717005978
 30
0.0
 10
151.6665391330903
 20
-58.68857962942508
 30
0.0
 10
151.6665391330903
 20
-58.68857962942508
 30
0.0
 10
151.6665391330903
 20
-58.68857962942508
 30
0.0
 10
153.4655679954878
 20
-58.68857962942508
 30
0.0
 10
153.4655679954878
 20
-58.68857962942508
 30
0.0
 10
153.4655679954878
 20
-58.68857962942508
 30
0.0
 10
153.4655679954878
 20
-57.50329452772488
 30
0.0
 10
153.4655679954878
 20
-57.50329452772488
 30
0.0
 10
153.4655679954878
 20
-57.50329452772488
 30
0.0
 10
150.3119275882901
 20
-57.50329452772488
 30
0.0
 10
150.3119275882901
 20
-57.50329452772488
 30
0.0
 10
150.3119275882901
 20
-57.50329452772488
 30
0.0
 10
150.3119275882901
 20
-61.08033717005978
 30
0.0
 10
150.3119275882901
 20
-61.08033717005978
 30
0.0
 10
150.3119275882901
 20
-61.08033717005978
 30
0.0
 10
147.9199977928811
 20
-61.08033717005978
 30
0.0
 10
147.9199977928811
 20
-61.08033717005978
 30
0.0
 10
147.9199977928811
 20
-61.08033717005978
 30
0.0
 10
147.9199977928811
 20
-57.50329452772488
 30
0.0
 10
147.9199977928811
 20
-57.50329452772488
 30
0.0
 10
147.9199977928811
 20
-57.50329452772488
 30
0.0
 10
146.7347126911809
 20
-57.50329452772488
 30
0.0
 10
146.7347126911809
 20
-57.50329452772488
 30
0.0
 10
146.7347126911809
 20
-57.50329452772488
 30
0.0
 10
146.7347126911809
 20
-61.08033717005978
 30
0.0
 10
146.7347126911809
 20
-61.08033717005978
 30
0.0
 10
146.7347126911809
 20
-61.08033717005978
 30
0.0
 10
144.5968586878091
 20
-61.08033717005978
 30
0.0
 10
144.5968586878091
 20
-61.08033717005978
 30
0.0
 10
143.4327609233432
 20
-61.05914983282549
 30
0.0
 10
142.099164461003
 20
-61.01694741313118
 30
0.0
 10
141.6335598061715
 20
-60.95338540142832
 30
0.0
 10
140.9138793593028
 20
-60.86880830726544
 30
0.0
 10
140.8715046848342
 20
-60.84762097003115
 30
0.0
 10
141.2737195827371
 20
-60.74168428385972
 30
0.0
 10
141.2737195827371
 20
-60.74168428385972
 30
0.0
 10
141.2737195827371
 20
-60.74168428385972
 30
0.0
 10
141.2737195827371
 20
-60.74168428385972
 30
0.0
  0
SPLINE
  5
97
330
1F
100
AcDbEntity
  8
LAYER_1
 62
   250
100
AcDbSpline
210
0.0
220
0.0
230
1.0
 70
    11
 71
     3
 72
    44
 73
    40
 74
     0
 42
0.0000000001
 43
0.0000000001
 40
0.0
 40
0.0
 40
0.0
 40
0.0
 40
1.0
 40
1.0
 40
1.0
 40
2.0
 40
2.0
 40
2.0
 40
3.0
 40
3.0
 40
3.0
 40
4.0
 40
4.0
 40
4.0
 40
5.0
 40
5.0
 40
5.0
 40
6.0
 40
6.0
 40
6.0
 40
7.0
 40
7.0
 40
7.0
 40
8.0
 40
8.0
 40
8.0
 40
9.0
 40
9.0
 40
9.0
 40
10.0
 40
10.0
 40
10.0
 40
11.0
 40
11.0
 40
11.0
 40
12.0
 40
12.0
 40
12.0
 40
13.0
 40
13.0
 40
13.0
 40
13.0
 10
141.7181369003344
 20
-141.0694254204618
 30
0.0
 10
142.3532402530402
 20
-141.0267062364447
 30
0.0
 10
145.8033311267436
 20
-140.9846760715247
 30
0.0
 10
149.3803737690785
 20
-140.9846760715247
 30
0.0
 10
149.3803737690785
 20
-140.9846760715247
 30
0.0
 10
155.8574977908967
 20
-140.9846760715247
 30
0.0
 10
155.8574977908967
 20
-140.9846760715247
 30
0.0
 10
155.8574977908967
 20
-140.9846760715247
 30
0.0
 10
155.8574977908967
 20
-146.9536485092685
 30
0.0
 10
155.8574977908967
 20
-146.9536485092685
 30
0.0
 10
155.8574977908967
 20
-146.9536485092685
 30
0.0
 10
150.0576795414786
 20
-146.9536485092685
 30
0.0
 10
150.0576795414786
 20
-146.9536485092685
 30
0.0
 10
143.7924288920033
 20
-146.9536485092685
 30
0.0
 10
141.929838017903
 20
-146.8688991603314
 30
0.0
 10
142.5437540333745
 20
-146.61465111352
 30
0.0
 10
142.7764702334031
 20
-146.5092311916713
 30
0.0
 10
145.3589138091464
 20
-146.4244818427342
 30
0.0
 10
149.084095557347
 20
-146.4031222507256
 30
0.0
 10
149.084095557347
 20
-146.4031222507256
 30
0.0
 10
155.2649413674338
 20
-146.339732493797
 30
0.0
 10
155.2649413674338
 20
-146.339732493797
 30
0.0
 10
155.2649413674338
 20
-146.339732493797
 30
0.0
 10
155.2649413674338
 20
-141.5985920869962
 30
0.0
 10
155.2649413674338
 20
-141.5985920869962
 30
0.0
 10
155.2649413674338
 20
-141.5985920869962
 30
0.0
 10
148.2586506790812
 20
-141.5348578205191
 30
0.0
 10
148.2586506790812
 20
-141.5348578205191
 30
0.0
 10
143.919552915409
 20
-141.5138427380591
 30
0.0
 10
141.1255804768714
 20
-141.4290933891219
 30
0.0
 10
140.9138793593028
 20
-141.3229844481762
 30
0.0
 10
140.596413810337
 20
-141.196204934319
 30
0.0
 10
140.7233655789685
 20
-141.1538302598505
 30
0.0
 10
141.7181369003344
 20
-141.0694254204618
 30
0.0
 10
141.7181369003344
 20
-141.0694254204618
 30
0.0
 10
141.7181369003344
 20
-141.0694254204618
 30
0.0
 10
141.7181369003344
 20
-141.0694254204618
 30
0.0
 10
141.7181369003344
 20
-141.0694254204618
 30
0.0
 10
141.7181369003344
 20
-141.0694254204618
 30
0.0
 10
141.7181369003344
 20
-141.0694254204618
 30
0.0
  0
SPLINE
  5
98
330
1F
100
AcDbEntity
  8
LAYER_1
 62
   250
100
AcDbSpline
210
0.0
220
0.0
230
1.0
 70
    11
 71
     3
 72
    44
 73
    40
 74
     0
 42
0.0000000001
 43
0.0000000001
 40
0.0
 40
0.0
 40
0.0
 40
0.0
 40
1.0
 40
1.0
 40
1.0
 40
2.0
 40
2.0
 40
2.0
 40
3.0
 40
3.0
 40
3.0
 40
4.0
 40
4.0
 40
4.0
 40
5.0
 40
5.0
 40
5.0
 40
6.0
 40
6.0
 40
6.0
 40
7.0
 40
7.0
 40
7.0
 40
8.0
 40
8.0
 40
8.0
 40
9.0
 40
9.0
 40
9.0
 40
10.0
 40
10.0
 40
10.0
 40
11.0
 40
11.0
 40
11.0
 40
12.0
 40
12.0
 40
12.0
 40
13.0
 40
13.0
 40
13.0
 40
13.0
 10
141.7181369003344
 20
-128.0517876198968
 30
0.0
 10
142.3532402530402
 20
-128.0094129454282
 30
0.0
 10
145.8033311267436
 20
-127.9670382709596
 30
0.0
 10
149.3803737690785
 20
-127.9670382709596
 30
0.0
 10
149.3803737690785
 20
-127.9670382709596
 30
0.0
 10
155.8574977908967
 20
-127.9670382709596
 30
0.0
 10
155.8574977908967
 20
-127.9670382709596
 30
0.0
 10
155.8574977908967
 20
-127.9670382709596
 30
0.0
 10
155.8574977908967
 20
-133.9360107087035
 30
0.0
 10
155.8574977908967
 20
-133.9360107087035
 30
0.0
 10
155.8574977908967
 20
-133.9360107087035
 30
0.0
 10
150.0576795414786
 20
-133.9360107087035
 30
0.0
 10
150.0576795414786
 20
-133.9360107087035
 30
0.0
 10
143.7924288920033
 20
-133.9360107087035
 30
0.0
 10
141.929838017903
 20
-133.8512613597664
 30
0.0
 10
142.5437540333745
 20
-133.5973578225035
 30
0.0
 10
142.7764702334031
 20
-133.5129529831148
 30
0.0
 10
145.3589138091464
 20
-133.4282036341777
 30
0.0
 10
149.084095557347
 20
-133.3854844501606
 30
0.0
 10
149.084095557347
 20
-133.3854844501606
 30
0.0
 10
155.2649413674338
 20
-133.322094693232
 30
0.0
 10
155.2649413674338
 20
-133.322094693232
 30
0.0
 10
155.2649413674338
 20
-133.322094693232
 30
0.0
 10
155.2649413674338
 20
-128.5809542864312
 30
0.0
 10
155.2649413674338
 20
-128.5809542864312
 30
0.0
 10
155.2649413674338
 20
-128.5809542864312
 30
0.0
 10
148.2586506790812
 20
-128.5175645295026
 30
0.0
 10
148.2586506790812
 20
-128.5175645295026
 30
0.0
 10
143.919552915409
 20
-128.496204937494
 30
0.0
 10
141.1255804768714
 20
-128.4114555885569
 30
0.0
 10
140.9138793593028
 20
-128.3056911571597
 30
0.0
 10
140.596413810337
 20
-128.178567133754
 30
0.0
 10
140.7233655789685
 20
-128.1365369688339
 30
0.0
 10
141.7181369003344
 20
-128.0517876198968
 30
0.0
 10
141.7181369003344
 20
-128.0517876198968
 30
0.0
 10
141.7181369003344
 20
-128.0517876198968
 30
0.0
 10
141.7181369003344
 20
-128.0517876198968
 30
0.0
 10
141.7181369003344
 20
-128.0517876198968
 30
0.0
 10
141.7181369003344
 20
-128.0517876198968
 30
0.0
 10
141.7181369003344
 20
-128.0517876198968
 30
0.0
  0
SPLINE
  5
99
330
1F
100
AcDbEntity
  8
LAYER_1
 62
   250
100
AcDbSpline
210
0.0
220
0.0
230
1.0
 70
    11
 71
     3
 72
    38
 73
    34
 74
     0
 42
0.0000000001
 43
0.0000000001
 40
0.0
 40
0.0
 40
0.0
 40
0.0
 40
1.0
 40
1.0
 40
1.0
 40
2.0
 40
2.0
 40
2.0
 40
3.0
 40
3.0
 40
3.0
 40
4.0
 40
4.0
 40
4.0
 40
5.0
 40
5.0
 40
5.0
 40
6.0
 40
6.0
 40
6.0
 40
7.0
 40
7.0
 40
7.0
 40
8.0
 40
8.0
 40
8.0
 40
9.0
 40
9.0
 40
9.0
 40
10.0
 40
10.0
 40
10.0
 40
11.0
 40
11.0
 40
11.0
 40
11.0
 10
141.7393242375686
 20
-114.5897325017345
 30
0.0
 10
142.3744275902745
 20
-114.5473578272659
 30
0.0
 10
143.750226472309
 20
-114.5049831527974
 30
0.0
 10
144.8085598053777
 20
-114.5049831527974
 30
0.0
 10
144.8085598053777
 20
-114.5049831527974
 30
0.0
 10
146.7347126911809
 20
-114.5049831527974
 30
0.0
 10
146.7347126911809
 20
-114.5049831527974
 30
0.0
 10
146.7347126911809
 20
-114.5049831527974
 30
0.0
 10
146.7347126911809
 20
-116.8969129482063
 30
0.0
 10
146.7347126911809
 20
-116.8969129482063
 30
0.0
 10
146.7347126911809
 20
-116.8969129482063
 30
0.0
 10
145.7187540325807
 20
-116.8969129482063
 30
0.0
 10
145.7187540325807
 20
-116.8969129482063
 30
0.0
 10
144.3005804760776
 20
-116.8969129482063
 30
0.0
 10
142.6918931392402
 20
-116.7277587598806
 30
0.0
 10
142.7764702334031
 20
-116.5796196540148
 30
0.0
 10
142.8188449078717
 20
-116.5158853875377
 30
0.0
 10
143.5809000292089
 20
-116.4101209561405
 30
0.0
 10
144.491094256412
 20
-116.367746281672
 30
0.0
 10
144.491094256412
 20
-116.367746281672
 30
0.0
 10
146.1207966757094
 20
-116.2619818502748
 30
0.0
 10
146.1207966757094
 20
-116.2619818502748
 30
0.0
 10
146.1207966757094
 20
-116.2619818502748
 30
0.0
 10
146.1207966757094
 20
-115.1402587602774
 30
0.0
 10
146.1207966757094
 20
-115.1402587602774
 30
0.0
 10
146.1207966757094
 20
-115.1402587602774
 30
0.0
 10
143.4961506802718
 20
-115.0555094113403
 30
0.0
 10
143.4961506802718
 20
-115.0555094113403
 30
0.0
 10
140.6386162300313
 20
-114.9707600624031
 30
0.0
 10
139.8343586889997
 20
-114.7592311996088
 30
0.0
 10
141.7393242375686
 20
-114.5897325017345
 30
0.0
 10
141.7393242375686
 20
-114.5897325017345
 30
0.0
 10
141.7393242375686
 20
-114.5897325017345
 30
0.0
 10
141.7393242375686
 20
-114.5897325017345
 30
0.0
  0
SPLINE
  5
9A
330
1F
100
AcDbEntity
  8
LAYER_1
 62
   250
100
AcDbSpline
210
0.0
220
0.0
230
1.0
 70
    11
 71
     3
 72
    77
 73
    73
 74
     0
 42
0.0000000001
 43
0.0000000001
 40
0.0
 40
0.0
 40
0.0
 40
0.0
 40
1.0
 40
1.0
 40
1.0
 40
2.0
 40
2.0
 40
2.0
 40
3.0
 40
3.0
 40
3.0
 40
4.0
 40
4.0
 40
4.0
 40
5.0
 40
5.0
 40
5.0
 40
6.0
 40
6.0
 40
6.0
 40
7.0
 40
7.0
 40
7.0
 40
8.0
 40
8.0
 40
8.0
 40
9.0
 40
9.0
 40
9.0
 40
10.0
 40
10.0
 40
10.0
 40
11.0
 40
11.0
 40
11.0
 40
12.0
 40
12.0
 40
12.0
 40
13.0
 40
13.0
 40
13.0
 40
14.0
 40
14.0
 40
14.0
 40
15.0
 40
15.0
 40
15.0
 40
16.0
 40
16.0
 40
16.0
 40
17.0
 40
17.0
 40
17.0
 40
18.0
 40
18.0
 40
18.0
 40
19.0
 40
19.0
 40
19.0
 40
20.0
 40
20.0
 40
20.0
 40
21.0
 40
21.0
 40
21.0
 40
22.0
 40
22.0
 40
22.0
 40
23.0
 40
23.0
 40
23.0
 40
24.0
 40
24.0
 40
24.0
 40
24.0
 10
141.5488104572343
 20
-120.4319254256212
 30
0.0
 10
142.2049288924002
 20
-120.3681911591441
 30
0.0
 10
145.6975666953464
 20
-120.3258164846755
 30
0.0
 10
149.2959689296899
 20
-120.3258164846755
 30
0.0
 10
149.2959689296899
 20
-120.3258164846755
 30
0.0
 10
155.8785128733568
 20
-120.3258164846755
 30
0.0
 10
155.8785128733568
 20
-120.3258164846755
 30
0.0
 10
155.8785128733568
 20
-120.3258164846755
 30
0.0
 10
155.8151231164282
 20
-121.4902587586899
 30
0.0
 10
155.8151231164282
 20
-121.4902587586899
 30
0.0
 10
155.8151231164282
 20
-121.4902587586899
 30
0.0
 10
155.7727484419596
 20
-122.6540120136073
 30
0.0
 10
155.7727484419596
 20
-122.6540120136073
 30
0.0
 10
155.7727484419596
 20
-122.6540120136073
 30
0.0
 10
153.9947346620222
 20
-123.2679280290789
 30
0.0
 10
153.9947346620222
 20
-123.2679280290789
 30
0.0
 10
153.9947346620222
 20
-123.2679280290789
 30
0.0
 10
152.1957057996247
 20
-123.9032036365589
 30
0.0
 10
152.1957057996247
 20
-123.9032036365589
 30
0.0
 10
152.1957057996247
 20
-123.9032036365589
 30
0.0
 10
154.0160942540307
 20
-123.9032036365589
 30
0.0
 10
154.0160942540307
 20
-123.9032036365589
 30
0.0
 10
154.0160942540307
 20
-123.9032036365589
 30
0.0
 10
155.8574977908967
 20
-123.924218719019
 30
0.0
 10
155.8574977908967
 20
-123.924218719019
 30
0.0
 10
155.8574977908967
 20
-123.924218719019
 30
0.0
 10
155.8574977908967
 20
-126.3161485144279
 30
0.0
 10
155.8574977908967
 20
-126.3161485144279
 30
0.0
 10
155.8574977908967
 20
-126.3161485144279
 30
0.0
 10
149.7614013297471
 20
-126.3161485144279
 30
0.0
 10
149.7614013297471
 20
-126.3161485144279
 30
0.0
 10
146.3960598049809
 20
-126.3161485144279
 30
0.0
 10
143.1998724685403
 20
-126.2737738399593
 30
0.0
 10
142.6071437903031
 20
-126.2100395734822
 30
0.0
 10
140.278776006597
 20
-125.9985107106879
 30
0.0
 10
142.6071437903031
 20
-125.8290120128136
 30
0.0
 10
148.8513793573184
 20
-125.765622255885
 30
0.0
 10
148.8513793573184
 20
-125.765622255885
 30
0.0
 10
155.2649413674338
 20
-125.6808729069478
 30
0.0
 10
155.2649413674338
 20
-125.6808729069478
 30
0.0
 10
155.2649413674338
 20
-125.6808729069478
 30
0.0
 10
155.2649413674338
 20
-124.5171196520304
 30
0.0
 10
155.2649413674338
 20
-124.5171196520304
 30
0.0
 10
155.2649413674338
 20
-124.5171196520304
 30
0.0
 10
152.0051920192904
 20
-124.4957600600219
 30
0.0
 10
152.0051920192904
 20
-124.4957600600219
 30
0.0
 10
152.0051920192904
 20
-124.4957600600219
 30
0.0
 10
148.7666300083813
 20
-124.4533853855533
 30
0.0
 10
148.7666300083813
 20
-124.4533853855533
 30
0.0
 10
148.7666300083813
 20
-124.4533853855533
 30
0.0
 10
152.0051920192904
 20
-123.3313177860075
 30
0.0
 10
152.0051920192904
 20
-123.3313177860075
 30
0.0
 10
152.0051920192904
 20
-123.3313177860075
 30
0.0
 10
155.2649413674338
 20
-122.2309542880187
 30
0.0
 10
155.2649413674338
 20
-122.2309542880187
 30
0.0
 10
155.2649413674338
 20
-122.2309542880187
 30
0.0
 10
155.2649413674338
 20
-120.9610920921556
 30
0.0
 10
155.2649413674338
 20
-120.9610920921556
 30
0.0
 10
155.2649413674338
 20
-120.9610920921556
 30
0.0
 10
148.2586506790812
 20
-120.8973578256784
 30
0.0
 10
148.2586506790812
 20
-120.8973578256784
 30
0.0
 10
144.2370184643748
 20
-120.8549831512099
 30
0.0
 10
141.0832058024028
 20
-120.7702338022727
 30
0.0
 10
140.8291300103656
 20
-120.6854844533356
 30
0.0
 10
140.427087367237
 20
-120.5587049394784
 30
0.0
 10
140.5116644613999
 20
-120.5163302650098
 30
0.0
 10
141.5488104572343
 20
-120.4319254256212
 30
0.0
 10
141.5488104572343
 20
-120.4319254256212
 30
0.0
 10
141.5488104572343
 20
-120.4319254256212
 30
0.0
 10
141.5488104572343
 20
-120.4319254256212
 30
0.0
 10
141.5488104572343
 20
-120.4319254256212
 30
0.0
 10
141.5488104572343
 20
-120.4319254256212
 30
0.0
 10
141.5488104572343
 20
-120.4319254256212
 30
0.0
  0
SPLINE
  5
9B
330
1F
100
AcDbEntity
  8
LAYER_1
 62
   250
100
AcDbSpline
210
0.0
220
0.0
230
1.0
 70
    11
 71
     3
 72
    86
 73
    82
 74
     0
 42
0.0000000001
 43
0.0000000001
 40
0.0
 40
0.0
 40
0.0
 40
0.0
 40
1.0
 40
1.0
 40
1.0
 40
2.0
 40
2.0
 40
2.0
 40
3.0
 40
3.0
 40
3.0
 40
4.0
 40
4.0
 40
4.0
 40
5.0
 40
5.0
 40
5.0
 40
6.0
 40
6.0
 40
6.0
 40
7.0
 40
7.0
 40
7.0
 40
8.0
 40
8.0
 40
8.0
 40
9.0
 40
9.0
 40
9.0
 40
10.0
 40
10.0
 40
10.0
 40
11.0
 40
11.0
 40
11.0
 40
12.0
 40
12.0
 40
12.0
 40
13.0
 40
13.0
 40
13.0
 40
14.0
 40
14.0
 40
14.0
 40
15.0
 40
15.0
 40
15.0
 40
16.0
 40
16.0
 40
16.0
 40
17.0
 40
17.0
 40
17.0
 40
18.0
 40
18.0
 40
18.0
 40
19.0
 40
19.0
 40
19.0
 40
20.0
 40
20.0
 40
20.0
 40
21.0
 40
21.0
 40
21.0
 40
22.0
 40
22.0
 40
22.0
 40
23.0
 40
23.0
 40
23.0
 40
24.0
 40
24.0
 40
24.0
 40
25.0
 40
25.0
 40
25.0
 40
26.0
 40
26.0
 40
26.0
 40
27.0
 40
27.0
 40
27.0
 40
27.0
 10
141.4006713513686
 20
-156.1823702951558
 30
0.0
 10
142.0567897865344
 20
-156.1396511111387
 30
0.0
 10
143.5173380175061
 20
-156.0976209462187
 30
0.0
 10
144.660420699512
 20
-156.0976209462187
 30
0.0
 10
144.660420699512
 20
-156.0976209462187
 30
0.0
 10
146.7347126911809
 20
-156.0976209462187
 30
0.0
 10
146.7347126911809
 20
-156.0976209462187
 30
0.0
 10
146.7347126911809
 20
-156.0976209462187
 30
0.0
 10
146.7347126911809
 20
-159.6746635885536
 30
0.0
 10
146.7347126911809
 20
-159.6746635885536
 30
0.0
 10
146.7347126911809
 20
-159.6746635885536
 30
0.0
 10
147.9199977928811
 20
-159.6746635885536
 30
0.0
 10
147.9199977928811
 20
-159.6746635885536
 30
0.0
 10
147.9199977928811
 20
-159.6746635885536
 30
0.0
 10
147.9199977928811
 20
-156.0976209462187
 30
0.0
 10
147.9199977928811
 20
-156.0976209462187
 30
0.0
 10
147.9199977928811
 20
-156.0976209462187
 30
0.0
 10
155.8574977908967
 20
-156.0976209462187
 30
0.0
 10
155.8574977908967
 20
-156.0976209462187
 30
0.0
 10
155.8574977908967
 20
-156.0976209462187
 30
0.0
 10
155.8574977908967
 20
-158.4892062320791
 30
0.0
 10
155.8574977908967
 20
-158.4892062320791
 30
0.0
 10
155.8574977908967
 20
-158.4892062320791
 30
0.0
 10
150.3119275882901
 20
-158.4892062320791
 30
0.0
 10
150.3119275882901
 20
-158.4892062320791
 30
0.0
 10
150.3119275882901
 20
-158.4892062320791
 30
0.0
 10
150.3119275882901
 20
-159.6746635885536
 30
0.0
 10
150.3119275882901
 20
-159.6746635885536
 30
0.0
 10
150.3119275882901
 20
-159.6746635885536
 30
0.0
 10
155.8574977908967
 20
-159.6746635885536
 30
0.0
 10
155.8574977908967
 20
-159.6746635885536
 30
0.0
 10
155.8574977908967
 20
-159.6746635885536
 30
0.0
 10
155.8574977908967
 20
-162.0665933839625
 30
0.0
 10
155.8574977908967
 20
-162.0665933839625
 30
0.0
 10
155.8574977908967
 20
-162.0665933839625
 30
0.0
 10
150.1424288904158
 20
-162.0665933839625
 30
0.0
 10
150.1424288904158
 20
-162.0665933839625
 30
0.0
 10
143.9407402526433
 20
-162.0665933839625
 30
0.0
 10
142.0779771237687
 20
-161.9818440350254
 30
0.0
 10
142.6918931392402
 20
-161.7279404977625
 30
0.0
 10
142.9246093392688
 20
-161.6221760663653
 30
0.0
 10
145.4858655777778
 20
-161.5374267174282
 30
0.0
 10
149.1688449062842
 20
-161.5160671254196
 30
0.0
 10
149.1688449062842
 20
-161.5160671254196
 30
0.0
 10
155.2649413674338
 20
-161.452677368491
 30
0.0
 10
155.2649413674338
 20
-161.452677368491
 30
0.0
 10
155.2649413674338
 20
-161.452677368491
 30
0.0
 10
155.2649413674338
 20
-160.267564521565
 30
0.0
 10
155.2649413674338
 20
-160.267564521565
 30
0.0
 10
155.2649413674338
 20
-160.267564521565
 30
0.0
 10
149.7190266552786
 20
-160.267564521565
 30
0.0
 10
149.7190266552786
 20
-160.267564521565
 30
0.0
 10
149.7190266552786
 20
-160.267564521565
 30
0.0
 10
149.7190266552786
 20
-157.8756347261561
 30
0.0
 10
149.7190266552786
 20
-157.8756347261561
 30
0.0
 10
149.7190266552786
 20
-157.8756347261561
 30
0.0
 10
155.2649413674338
 20
-157.8756347261561
 30
0.0
 10
155.2649413674338
 20
-157.8756347261561
 30
0.0
 10
155.2649413674338
 20
-157.8756347261561
 30
0.0
 10
155.2649413674338
 20
-156.6901773696816
 30
0.0
 10
155.2649413674338
 20
-156.6901773696816
 30
0.0
 10
155.2649413674338
 20
-156.6901773696816
 30
0.0
 10
148.5339138083527
 20
-156.6901773696816
 30
0.0
 10
148.5339138083527
 20
-156.6901773696816
 30
0.0
 10
148.5339138083527
 20
-156.6901773696816
 30
0.0
 10
148.5339138083527
 20
-160.267564521565
 30
0.0
 10
148.5339138083527
 20
-160.267564521565
 30
0.0
 10
148.5339138083527
 20
-160.267564521565
 30
0.0
 10
146.1207966757094
 20
-160.267564521565
 30
0.0
 10
146.1207966757094
 20
-160.267564521565
 30
0.0
 10
146.1207966757094
 20
-160.267564521565
 30
0.0
 10
146.1207966757094
 20
-156.7325520441502
 30
0.0
 10
146.1207966757094
 20
-156.7325520441502
 30
0.0
 10
146.1207966757094
 20
-156.7325520441502
 30
0.0
 10
143.6231024489033
 20
-156.6481472047616
 30
0.0
 10
143.6231024489033
 20
-156.6481472047616
 30
0.0
 10
140.5752264731027
 20
-156.5420382638159
 30
0.0
 10
139.6226575714311
 20
-156.3305094010215
 30
0.0
 10
141.4006713513686
 20
-156.1823702951558
 30
0.0
 10
141.4006713513686
 20
-156.1823702951558
 30
0.0
 10
141.4006713513686
 20
-156.1823702951558
 30
0.0
 10
141.4006713513686
 20
-156.1823702951558
 30
0.0
  0
ENDSEC
  0
SECTION
  2
OBJECTS
  0
DICTIONARY
  5
C
330
0
100
AcDbDictionary
  3
ACAD_GROUP
350
D
  3
ACAD_LAYOUT
350
1A
  3
ACAD_MLINESTYLE
350
17
  3
ACAD_PLOTSETTINGS
350
19
  3
ACAD_TABLESTYLE
350
9C
  3
ACAD_VISUALSTYLE
350
2A
1001
ACAD
1000
TREAT_AS_HARD
1070
     0
  0
DICTIONARY
  5
D
102
{ACAD_REACTORS
330
C
102
}
330
C
100
AcDbDictionary
1001
ACAD
1000
TREAT_AS_HARD
1070
     0
  0
DICTIONARY
  5
1A
102
{ACAD_REACTORS
330
C
102
}
330
C
100
AcDbDictionary
1001
ACAD
1000
TREAT_AS_HARD
1070
     0
  0
DICTIONARY
  5
17
102
{ACAD_REACTORS
330
C
102
}
330
C
100
AcDbDictionary
  3
STANDARD
350
18
1001
ACAD
1000
TREAT_AS_HARD
1070
     0
  0
DICTIONARY
  5
19
102
{ACAD_REACTORS
330
C
102
}
330
C
100
AcDbDictionary
1001
ACAD
1000
TREAT_AS_HARD
1070
     0
  0
DICTIONARY
  5
9C
102
{ACAD_REACTORS
330
C
102
}
330
C
100
AcDbDictionary
1001
ACAD
1000
TREAT_AS_HARD
1070
     0
  0
DICTIONARY
  5
2A
102
{ACAD_REACTORS
330
C
102
}
330
C
100
AcDbDictionary
  3
2DWIREFRAME
350
2F
  3
3D_HIDDEN
350
31
  3
3DWIREFRAME
350
30
  3
BASIC
350
32
  3
BRIGHTEN
350
36
  3
COLORCHANGE
350
3A
  3
CONCEPTUAL
350
34
  3
DIM
350
35
  3
FACEPATTERN
350
39
  3
FLAT
350
2B
  3
FLATWITHEDGES
350
2C
  3
GOURAUD
350
2D
  3
GOURAUDWITHEDGES
350
2E
  3
LINEPATTERN
350
38
  3
REALISTIC
350
33
  3
THICKEN
350
37
1001
ACAD
1000
TREAT_AS_HARD
1070
     0
  0
MLINESTYLE
  5
18
102
{ACAD_REACTORS
330
17
102
}
330
17
100
AcDbMlineStyle
  2
Standard
 70
     0
  3

 62
   256
 51
90.0
 52
90.0
 71
     2
 49
0.5
 62
   256
  6
BYLAYER
 49
-0.5
 62
   256
  6
BYLAYER
  0
VISUALSTYLE
  5
2F
102
{ACAD_REACTORS
330
2A
102
}
330
2A
100
AcDbVisualStyle
  2
2dWireframe
 70
     4
 71
     0
 72
     2
 73
     0
 90
        0
 40
-0.6
 41
-30.0
 62
     5
 63
     7
 74
     1
 91
        4
 64
     7
 65
   257
 75
     1
175
     1
 42
1.0
 92
        0
 66
   257
 43
1.0
 76
     1
 77
     6
 78
     2
 67
     7
 79
     5
170
     0
171
     0
290
     0
174
     0
 93
        1
 44
0.0
173
     0
291
     0
 45
0.0
1001
ACAD
1000
AcDbSavedByObjectVersion
1070
     0
  0
VISUALSTYLE
  5
31
102
{ACAD_REACTORS
330
2A
102
}
330
2A
100
AcDbVisualStyle
  2
3D Hidden
 70
     6
 71
     1
 72
     2
 73
     2
 90
        0
 40
-0.6
 41
-30.0
 62
     5
 63
     7
 74
     2
 91
        2
 64
     7
 65
   257
 75
     2
175
     1
 42
40.0
 92
        0
 66
   257
 43
1.0
 76
     1
 77
     6
 78
     2
 67
     7
 79
     3
170
     0
171
     0
290
     0
174
     0
 93
        1
 44
0.0
173
     0
291
     0
 45
0.0
1001
ACAD
1000
AcDbSavedByObjectVersion
1070
     0
  0
VISUALSTYLE
  5
30
102
{ACAD_REACTORS
330
2A
102
}
330
2A
100
AcDbVisualStyle
  2
3dWireframe
 70
     5
 71
     0
 72
     2
 73
     0
 90
        0
 40
-0.6
 41
-30.0
 62
     5
 63
     7
 74
     1
 91
        4
 64
     7
 65
   257
 75
     1
175
     1
 42
1.0
 92
        0
 66
   257
 43
1.0
 76
     1
 77
     6
 78
     2
 67
     7
 79
     5
170
     0
171
     0
290
     0
174
     0
 93
        1
 44
0.0
173
     0
291
     0
 45
0.0
1001
ACAD
1000
AcDbSavedByObjectVersion
1070
     0
  0
VISUALSTYLE
  5
32
102
{ACAD_REACTORS
330
2A
102
}
330
2A
100
AcDbVisualStyle
  2
Basic
 70
     7
 71
     1
 72
     0
 73
     1
 90
        0
 40
-0.6
 41
-30.0
 62
     5
 63
     7
 74
     0
 91
        4
 64
     7
 65
   257
 75
     1
175
     1
 42
1.0
 92
        8
 66
     7
 43
1.0
 76
     1
 77
     6
 78
     2
 67
     7
 79
     5
170
     0
171
     0
290
     0
174
     0
 93
        1
 44
0.0
173
     0
291
     1
 45
0.0
1001
ACAD
1000
AcDbSavedByObjectVersion
1070
     0
  0
VISUALSTYLE
  5
36
102
{ACAD_REACTORS
330
2A
102
}
330
2A
100
AcDbVisualStyle
  2
Brighten
 70
    12
 71
     2
 72
     2
 73
     0
 90
        0
 40
-0.6
 41
-30.0
 62
     5
 63
     7
 74
     1
 91
        4
 64
     7
 65
   257
 75
     1
175
     1
 42
1.0
 92
        8
 66
     7
 43
1.0
 76
     1
 77
     6
 78
     2
 67
     7
 79
     5
170
     0
171
     0
290
     0
174
     0
 93
        1
 44
50.0
173
     0
291
     1
 45
0.0
1001
ACAD
1000
AcDbSavedByObjectVersion
1070
     0
  0
VISUALSTYLE
  5
3A
102
{ACAD_REACTORS
330
2A
102
}
330
2A
100
AcDbVisualStyle
  2
ColorChange
 70
    16
 71
     2
 72
     2
 73
     3
 90
        0
 40
-0.6
 41
-30.0
 62
     5
 63
     8
 74
     1
 91
        4
 64
     7
 65
   257
 75
     1
175
     1
 42
1.0
 92
        8
 66
     8
 43
1.0
 76
     1
 77
     6
 78
     2
 67
     7
 79
     5
170
     0
171
     0
290
     0
174
     0
 93
        1
 44
0.0
173
     0
291
     1
 45
0.0
1001
ACAD
1000
AcDbSavedByObjectVersion
1070
     0
  0
VISUALSTYLE
  5
34
102
{ACAD_REACTORS
330
2A
102
}
330
2A
100
AcDbVisualStyle
  2
Conceptual
 70
     9
 71
     3
 72
     2
 73
     0
 90
        0
 40
-0.6
 41
-30.0
 62
     5
 63
     7
 74
     2
 91
        2
 64
     7
 65
   257
 75
     1
175
     1
 42
40.0
 92
        8
 66
     7
 43
1.0
 76
     1
 77
     6
 78
     2
 67
     7
 79
     3
170
     0
171
     0
290
     0
174
     0
 93
        1
 44
0.0
173
     0
291
     0
 45
0.0
1001
ACAD
1000
AcDbSavedByObjectVersion
1070
     0
  0
VISUALSTYLE
  5
35
102
{ACAD_REACTORS
330
2A
102
}
330
2A
100
AcDbVisualStyle
  2
Dim
 70
    11
 71
     2
 72
     2
 73
     0
 90
        0
 40
-0.6
 41
-30.0
 62
     5
 63
     7
 74
     1
 91
        4
 64
     7
 65
   257
 75
     1
175
     1
 42
1.0
 92
        8
 66
     7
 43
1.0
 76
     1
 77
     6
 78
     2
 67
     7
 79
     5
170
     0
171
     0
290
     0
174
     0
 93
        1
 44
-50.0
173
     0
291
     1
 45
0.0
1001
ACAD
1000
AcDbSavedByObjectVersion
1070
     0
  0
VISUALSTYLE
  5
39
102
{ACAD_REACTORS
330
2A
102
}
330
2A
100
AcDbVisualStyle
  2
Facepattern
 70
    15
 71
     2
 72
     2
 73
     0
 90
        0
 40
-0.6
 41
-30.0
 62
     5
 63
     7
 74
     1
 91
        4
 64
     7
 65
   257
 75
     1
175
     1
 42
1.0
 92
        8
 66
     7
 43
1.0
 76
     1
 77
     6
 78
     2
 67
     7
 79
     5
170
     0
171
     0
290
     0
174
     0
 93
        1
 44
0.0
173
     0
291
     1
 45
0.0
1001
ACAD
1000
AcDbSavedByObjectVersion
1070
     0
  0
VISUALSTYLE
  5
2B
102
{ACAD_REACTORS
330
2A
102
}
330
2A
100
AcDbVisualStyle
  2
Flat
 70
     0
 71
     2
 72
     1
 73
     1
 90
        2
 40
-0.6
 41
30.0
 62
     5
 63
     7
 74
     0
 91
        4
 64
     7
 65
   257
 75
     1
175
     1
 42
1.0
 92
        8
 66
     7
 43
1.0
 76
     1
 77
     6
 78
     2
 67
     7
 79
     5
170
     0
171
     0
290
     0
174
     0
 93
       13
 44
0.0
173
     0
291
     1
 45
0.0
1001
ACAD
1000
AcDbSavedByObjectVersion
1070
     0
  0
VISUALSTYLE
  5
2C
102
{ACAD_REACTORS
330
2A
102
}
330
2A
100
AcDbVisualStyle
  2
FlatWithEdges
 70
     1
 71
     2
 72
     1
 73
     1
 90
        2
 40
-0.6
 41
30.0
 62
     5
 63
     7
 74
     1
 91
        4
 64
     7
 65
   257
 75
     1
175
     1
 42
1.0
 92
        0
 66
   257
 43
1.0
 76
     1
 77
     6
 78
     2
 67
     7
 79
     5
170
     0
171
     0
290
     0
174
     0
 93
       13
 44
0.0
173
     0
291
     1
 45
0.0
1001
ACAD
1000
AcDbSavedByObjectVersion
1070
     0
  0
VISUALSTYLE
  5
2D
102
{ACAD_REACTORS
330
2A
102
}
330
2A
100
AcDbVisualStyle
  2
Gouraud
 70
     2
 71
     2
 72
     2
 73
     1
 90
        2
 40
-0.6
 41
30.0
 62
     5
 63
     7
 74
     0
 91
        4
 64
     7
 65
   257
 75
     1
175
     1
 42
1.0
 92
        0
 66
     7
 43
1.0
 76
     1
 77
     6
 78
     2
 67
     7
 79
     5
170
     0
171
     0
290
     0
174
     0
 93
       13
 44
0.0
173
     0
291
     1
 45
0.0
1001
ACAD
1000
AcDbSavedByObjectVersion
1070
     0
  0
VISUALSTYLE
  5
2E
102
{ACAD_REACTORS
330
2A
102
}
330
2A
100
AcDbVisualStyle
  2
GouraudWithEdges
 70
     3
 71
     2
 72
     2
 73
     1
 90
        2
 40
-0.6
 41
30.0
 62
     5
 63
     7
 74
     1
 91
        4
 64
     7
 65
   257
 75
     1
175
     1
 42
1.0
 92
        0
 66
   257
 43
1.0
 76
     1
 77
     6
 78
     2
 67
     7
 79
     5
170
     0
171
     0
290
     0
174
     0
 93
       13
 44
0.0
173
     0
291
     1
 45
0.0
1001
ACAD
1000
AcDbSavedByObjectVersion
1070
     0
  0
VISUALSTYLE
  5
38
102
{ACAD_REACTORS
330
2A
102
}
330
2A
100
AcDbVisualStyle
  2
Linepattern
 70
    14
 71
     2
 72
     2
 73
     0
 90
        0
 40
-0.6
 41
-30.0
 62
     5
 63
     7
 74
     1
 91
        4
 64
     7
 65
   257
 75
     7
175
     7
 42
1.0
 92
        8
 66
     7
 43
1.0
 76
     1
 77
     6
 78
     2
 67
     7
 79
     5
170
     0
171
     0
290
     0
174
     0
 93
        1
 44
0.0
173
     0
291
     1
 45
0.0
1001
ACAD
1000
AcDbSavedByObjectVersion
1070
     0
  0
VISUALSTYLE
  5
33
102
{ACAD_REACTORS
330
2A
102
}
330
2A
100
AcDbVisualStyle
  2
Realistic
 70
     8
 71
     2
 72
     2
 73
     0
 90
        0
 40
-0.6
 41
-30.0
 62
     5
 63
     7
 74
     1
 91
        0
 64
     7
 65
   257
 75
     1
175
     1
 42
1.0
 92
        8
 66
     8
 43
1.0
 76
     1
 77
     6
 78
     2
 67
     7
 79
     5
170
     0
171
     0
290
     0
174
     0
 93
       13
 44
0.0
173
     0
291
     0
 45
0.0
1001
ACAD
1000
AcDbSavedByObjectVersion
1070
     0
  0
VISUALSTYLE
  5
37
102
{ACAD_REACTORS
330
2A
102
}
330
2A
100
AcDbVisualStyle
  2
Thicken
 70
    13
 71
     2
 72
     2
 73
     0
 90
        0
 40
-0.6
 41
-30.0
 62
     5
 63
     7
 74
     1
 91
        4
 64
     7
 65
   257
 75
     1
175
     1
 42
1.0
 92
       12
 66
     7
 43
1.0
 76
     1
 77
     6
 78
     2
 67
     7
 79
     5
170
     0
171
     0
290
     0
174
     0
 93
        1
 44
0.0
173
     0
291
     1
 45
0.0
1001
ACAD
1000
AcDbSavedByObjectVersion
1070
     0
  0
ENDSEC
  0
EOF
