<?xml version="1.0" encoding="UTF-8" standalone="no"?>
<svg
   xmlns:dc="http://purl.org/dc/elements/1.1/"
   xmlns:cc="http://creativecommons.org/ns#"
   xmlns:rdf="http://www.w3.org/1999/02/22-rdf-syntax-ns#"
   xmlns:svg="http://www.w3.org/2000/svg"
   xmlns="http://www.w3.org/2000/svg"
   xmlns:sodipodi="http://sodipodi.sourceforge.net/DTD/sodipodi-0.dtd"
   xmlns:inkscape="http://www.inkscape.org/namespaces/inkscape"
   version="1.1"
   width="210mm"
   height="297mm"
   viewBox="0 0 210 297"
   id="svg4689"
   inkscape:version="0.48.4 r9939"
   sodipodi:docname="blank6hp.svg">
  <metadata
     id="metadata4750">
    <rdf:RDF>
      <cc:Work
         rdf:about="">
        <dc:format>image/svg+xml</dc:format>
        <dc:type
           rdf:resource="http://purl.org/dc/dcmitype/StillImage" />
        <dc:title></dc:title>
      </cc:Work>
    </rdf:RDF>
  </metadata>
  <sodipodi:namedview
     pagecolor="#ffffff"
     bordercolor="#666666"
     borderopacity="1"
     objecttolerance="10"
     gridtolerance="10"
     guidetolerance="10"
     inkscape:pageopacity="0"
     inkscape:pageshadow="2"
     inkscape:window-width="1223"
     inkscape:window-height="1000"
     id="namedview4748"
     showgrid="false"
     inkscape:zoom="1.7885779"
     inkscape:cx="53.14961"
     inkscape:cy="824.70471"
     inkscape:window-x="57"
     inkscape:window-y="24"
     inkscape:window-maximized="1"
     inkscape:current-layer="svg4689" />
  <defs
     id="defs4691">
    <g
       id="potgrading">
      <path
         d="M 22.469177,65.29487 C 12.864593,59.897939 6.3758317,49.616792 6.3758317,37.815007 c 0,-17.395119 14.1022403,-31.4975588 31.4994303,-31.4975588 17.392315,0 31.496992,14.1012398 31.496992,31.4975588 0,11.809085 -6.498509,22.101133 -16.116497,27.493263"
         style="fill:none;stroke:#030303;stroke-width:0.41032487"
         id="path4694" />
      <path
         d="m 28.906759,4.4567034 0.78974,2.9366707"
         style="fill:none;stroke:#030303;stroke-width:0.75"
         id="path4696" />
      <path
         d="M 19.149856,5.4303268 22.099957,10.54465"
         style="fill:none;stroke:#030303;stroke-width:1.0"
         id="path4698" />
      <path
         d="m 13.42878,13.404619 2.150735,2.149652"
         style="fill:none;stroke:#030303;stroke-width:0.75"
         id="path4700" />
      <path
         d="m 5.5191934,19.159858 5.0557506,2.91857"
         style="fill:none;stroke:#030303;stroke-width:1.0"
         id="path4702" />
      <path
         d="m 4.4968328,28.890192 2.9366973,0.786019"
         style="fill:none;stroke:#030303;stroke-width:0.75"
         id="path4704" />
      <path
         d="m 0.49999997,37.829608 5.86364623,0"
         style="fill:none;stroke:#030303;stroke-width:1.0"
         id="path4706" />
      <path
         d="M 4.5053627,46.769023 7.44206,45.980604"
         style="fill:none;stroke:#030303;stroke-width:0.75"
         id="path4708" />
      <path
         d="M 5.5106636,56.509058 10.590785,53.578387"
         style="fill:none;stroke:#030303;stroke-width:1.0"
         id="path4710" />
      <path
         d="m 13.451932,62.247196 2.145861,-2.149452"
         style="fill:none;stroke:#030303;stroke-width:0.75"
         id="path4712" />
      <path
         d="m 19.291208,70.009583 2.834339,-4.907218"
         style="fill:none;stroke:#030303;stroke-width:1.0"
         id="path4714" />
      <path
         d="m 56.484784,70.043684 -2.861026,-4.95962"
         style="fill:none;stroke:#030303;stroke-width:1.0"
         id="path4716" />
      <path
         d="M 62.293717,62.224096 60.144201,60.079444"
         style="fill:none;stroke:#030303;stroke-width:0.75"
         id="path4718" />
      <path
         d="m 70.111912,56.418856 -4.965577,-2.86977"
         style="fill:none;stroke:#030303;stroke-width:1.0"
         id="path4720" />
      <path
         d="M 71.224445,46.738522 68.290307,45.951403"
         style="fill:none;stroke:#030303;stroke-width:0.75"
         id="path4722" />
      <path
         d="m 75.037277,37.799107 -5.678427,0"
         style="fill:none;stroke:#030303;stroke-width:1.0"
         id="path4724" />
      <path
         d="M 71.216037,28.859791 68.280436,29.64821"
         style="fill:none;stroke:#030303;stroke-width:0.75"
         id="path4726" />
      <path
         d="m 70.076574,19.198959 -4.943643,2.855068"
         style="fill:none;stroke:#030303;stroke-width:1.0"
         id="path4728" />
      <path
         d="M 62.27288,13.382718 60.124704,15.53107"
         style="fill:none;stroke:#030303;stroke-width:0.75"
         id="path4730" />
      <path
         d="M 56.550707,5.4181265 53.598168,10.52765"
         style="fill:none;stroke:#030303;stroke-width:1.0"
         id="path4732" />
      <path
         d="M 46.785274,4.4507032 45.999312,7.386174"
         style="fill:none;stroke:#030303;stroke-width:0.75"
         id="path4734" />
      <path
         d="m 37.844676,0.500008 0,5.8162402"
         style="fill:none;stroke:#030303;stroke-width:1.0"
         id="path4736" />
      <path
         d="m 69.475831,37.723605 c 0,17.397619 -14.103337,31.501159 -31.500648,31.501159 -17.397312,0 -31.500649,-14.10354 -31.500649,-31.501159 0,-17.397619 14.103337,-31.5012591 31.500649,-31.5012591 17.397311,0 31.500648,14.1036401 31.500648,31.5012591 z"
         style="fill:none"
         id="path4738" />
    </g>
  </defs>
  <g
     style="fill:none;stroke-width:0.1;stroke:black"
     id="g4740">
    <rect
       x="0.0"
       y="0.0"
       width="30.00"
       height="128.50"
       id="rect4742" />
    <circle
       cx="7.5"
       cy="3"
       r="1.6"
       id="circle4744" />
    <circle
       cx="7.5"
       cy="125.5"
       r="1.6"
       id="circle4746" />
  </g>
  <path
     id="path3182"
     style="fill:none;stroke:#231f20;stroke-width:0.01310595;stroke-linecap:butt;stroke-linejoin:miter;stroke-miterlimit:10;stroke-opacity:1;stroke-dasharray:none"
     d="m 19.010541,102.81481 1.044359,0 0,1.19694 -2.699079,0 0.30531,-0.59847 0.3051,-0.59847 1.0443,0 z m -0.45349,1.79541 2.096209,0 0,-2.39378 -2.988549,0 -0.60193,1.19684 -0.60193,1.19694 2.0962,0 z m -0.44412,13.31509 1.941969,0 0,1.19687 -4.494384,0 0.30531,-0.59845 0.305095,-0.59842 1.94201,0 z m -0.4518,1.79527 2.992129,0 0,-2.39371 -4.760494,0 -0.61188,1.11507 c -0.33657,0.61298 -0.6119,1.15152 -0.6119,1.19681 0,0.045 1.346565,0.0818 2.992145,0.0818 z m -0.97234,-95.300889 3.366109,0 0,1.19673 -6.732354,0 0,-1.19673 3.366245,0 z m 0,1.7953 3.964469,0 0,-2.39388 -7.929204,0 0,2.39388 3.964735,0 z m 0,11.221224 3.366109,0 0,1.19672 -6.732354,0 0,-1.19672 3.366245,0 z m 0,1.7953 3.964469,0 0,-2.39388 -7.929204,0 0,2.39388 3.964735,0 z m -3.244305,63.583295 c 0.106,0 0.62604,0.93628 0.62604,1.12711 0,0.0383 -0.16817,0.0698 -0.37389,0.0698 -0.33667,0 -0.37409,-0.0599 -0.37409,-0.59848 0,-0.32932 0.0549,-0.59847 0.12194,-0.59847 z m 0.4782,1.79541 1.19873,0 -0.60206,-1.19694 c -0.60095,-1.19569 -0.60245,-1.19684 -1.1985,-1.19684 l -0.5968,0 0,2.39378 1.19863,0 z M 9.9716012,76.68551 c 0.6333748,0.0537 3.1616948,0.0973 5.6176248,0.0973 l 4.465674,0 0,1.7952 2.393675,0 0,-5.984285 -2.393675,0 0,1.795305 -4.600484,10e-4 c -5.063309,0.001 -6.7346948,0.0935 -6.4704648,0.35796 0.11216,0.11218 1.9963848,0.18117 5.9167348,0.21682 l 5.752574,0.0519 0,-1.824455 1.196955,0 0,4.787445 -1.196955,0 0,-1.82256 -5.752574,0.0509 c -3.91687,0.0348 -5.8045748,0.10348 -5.9167348,0.21545 -0.11922,0.11942 0.15076,0.19104 0.98765,0.26181 l 0,0 z m 0,42.93748 c 0.6333748,0.0538 1.6514648,0.0976 2.2616848,0.0976 l 1.10969,0 -0.64627,-1.19685 c -0.64167,-1.18931 -0.64962,-1.19655 -1.24425,-1.19571 -1.048969,0.002 -2.6117348,0.18673 -2.5409448,0.30123 0.0374,0.0608 0.6989,0.15779 1.4697558,0.21536 l 1.401359,0.10522 0.2464,0.51631 c 0.13526,0.28403 0.24629,0.53795 0.24629,0.56429 0,0.026 -0.72345,0.0943 -1.60774,0.15162 -0.8847148,0.057 -1.6620248,0.15781 -1.7280048,0.22382 -0.0661,0.0657 0.39855,0.16362 1.03203,0.21711 l 0,0 z m -0.16889,1.79383 c 0.6440658,0.0544 3.7530048,0.0991 6.9084998,0.0991 l 5.737364,0 0,-5.98433 -7.773709,0 -0.3611,0.71003 -0.36067,0.71013 -0.34537,-0.71013 -0.34473,-0.71003 -1.50372,0.0146 c -0.82695,0.008 -1.8742748,0.0628 -2.3264948,0.12152 -0.803,0.10379 -0.81003,0.10904 -0.29934,0.21189 0.28813,0.0579 1.2641658,0.15486 2.1694348,0.21536 l 1.64568,0.10988 0.45179,0.85094 c 0.24857,0.46783 0.49792,0.89643 0.55401,0.95255 0.0558,0.0561 0.32134,-0.3437 0.58999,-0.88828 l 0.48817,-0.98997 6.817699,0 0,4.75968 -6.246209,0.0608 c -3.77931,0.0368 -6.3891948,0.12152 -6.6095648,0.21416 -0.30564,0.12885 -0.17824,0.16862 0.80827,0.25216 l 0,0 z m -0.14565,-76.59975 c 0.7703358,0.0702 1.8631648,0.33383 3.0669948,0.7399 l 1.87018,0.630775 -2.24417,0.0927 c -1.23414,0.0515 -2.4760848,0.10181 -2.7600948,0.1123 -0.40085,0.0151 -0.47634,0.0596 -0.33722,0.19878 0.12679,0.12676 1.3295848,0.19743 4.1065948,0.24126 2.16036,0.034 4.096075,0.0357 4.301785,0.003 0.24575,-0.0378 -0.8309,-0.46279 -3.141765,-1.238255 -3.61797,-1.21497 -3.94353,-1.27463 -5.4606748,-0.99878 -0.54875,0.0994 -0.49896,0.11753 0.59836,0.21788 l 0,0 z m -0.97236,5.843685 c 0.20573,0.0712 3.2522648,0.16115 6.7697148,0.1992 l 6.395799,0.07 0,1.167695 -7.330859,0 0,2.39388 7.330859,0 0,1.17114 -6.171329,0.0647 c -3.42517,0.0357 -6.3712948,0.1298 -6.6201848,0.21117 -0.75039,0.24524 1.4990158,0.34578 7.7422598,0.34704 l 5.647614,5.7e-4 0,-2.39388 -7.330729,0 0,-1.19673 7.330729,0 0,-2.393885 -6.246074,0.0153 c -6.4161598,0.0152 -8.2278298,0.0981 -7.5177998,0.3437 l 0,0 z m -0.52361,-35.915774 c 0.24662,0.064 2.1821058,0.15517 4.3011748,0.20235 l 3.852535,0.086 0,1.15857 -3.590745,0 0,2.39367 7.929204,0 0,-2.39367 -1.795169,0 0,-1.19736 2.992124,0 0,4.76113 -6.096579,0.0598 c -3.71675,0.0356 -6.2384448,0.11953 -6.4599848,0.21284 -0.60602,0.25687 1.4306448,0.35229 7.5672698,0.35229 l 5.587654,0 0,-5.98365 -4.188984,0 0,2.39367 1.795309,0 0,1.19631 -6.732354,0 0,-1.19631 3.590605,0 0,-2.39367 -3.777655,0.0147 c -2.07746,0.007 -4.1480148,0.0598 -4.6004148,0.11534 -0.75386,0.0933 -0.78489,0.11114 -0.37399,0.21808 z m 0.5944,18.552369 c 0.64386,0.0543 3.9885048,0.0994 7.4320998,0.0994 l 6.260984,0 0,-2.39431 -9.126029,0 0,-1.7953 -1.08465,0.001 c -1.51483,0.001 -3.1429148,0.17059 -2.9997948,0.31151 0.066,0.0649 0.8772408,0.16482 1.8029448,0.22321 l 1.68301,0.10527 0,1.75253 9.126159,0 0,1.17114 -6.769789,0.0591 c -4.1761,0.0363 -6.9087448,0.11796 -7.1332148,0.21316 -0.30691,0.13042 -0.18129,0.16954 0.80828,0.2531 l 0,0 z m -0.74402,24.829085 c 0.24662,0.0621 1.8122,0.15433 3.4784448,0.20518 l 3.02945,0.0924 0,1.15416 -1.79531,0 0,2.39368 7.929204,0 0,-2.39368 -1.795169,0 0,-1.19683 2.992124,0 0,4.759455 -6.171329,0.0607 c -3.72273,0.0373 -6.3156148,0.12215 -6.5348548,0.21453 -0.60957,0.25656 1.4458748,0.3505 7.6420498,0.3505 l 5.662494,0 0,-5.984285 -4.188974,0 0,2.39388 1.795299,0 0,1.19673 -6.732354,0 0,-1.19673 1.7953,0 0,-2.39388 -2.95469,0.0153 c -1.625259,0.008 -3.3253848,0.0602 -3.7775748,0.11576 -0.74694,0.0923 -0.78144,0.11155 -0.37411,0.21315 l 0,0 z m 0.74402,33.06958 c 0.64386,0.0543 3.9885048,0.099 7.4320998,0.099 l 6.260984,0 0,-2.393685 -9.126029,0 0,-1.7953 -1.08465,10e-4 c -1.51483,0.001 -3.1429148,0.17027 -2.9997948,0.31108 0.066,0.065 0.8772408,0.16545 1.8029448,0.22333 l 1.68301,0.10547 0,1.75294 9.126159,0 0,1.17084 -6.769789,0.0587 c -4.1761,0.0366 -6.9087448,0.11806 -7.1332148,0.21336 -0.30691,0.13033 -0.18129,0.169755 0.80828,0.253315 l 0,0 z m 0,15.110425 c 0.64386,0.0543 3.9885048,0.0991 7.4320998,0.0991 l 6.260984,0 0,-5.98438 -2.992124,0 c -1.64569,0 -2.99277,0.0502 -2.9931,0.11219 0,0.0616 -0.16229,0.37934 -0.35982,0.70573 l -0.359555,0.59375 -0.34263,-0.70604 -0.34317,-0.70563 -2.32646,0.0147 c -1.27925,0.008 -2.697004,0.0613 -3.1493148,0.11828 -0.82,0.10285 -0.82107,0.10369 -0.30216,0.22909 0.28696,0.069 1.6334348,0.16744 2.9921548,0.2183 l 2.47146,0.0929 0.4518,0.85094 c 0.24856,0.46772 0.49791,0.89644 0.55401,0.95254 0.0558,0.0561 0.321345,-0.34359 0.589855,-0.88827 l 0.48827,-0.98997 5.022424,0 0,4.76144 -6.769789,0.0587 c -4.1761,0.0365 -6.9087448,0.11806 -7.1332148,0.21326 -0.30691,0.13033 -0.18129,0.16975 0.80828,0.25342 l 0,0 z m -0.89361,-40.70573 c 0.24658,0.0579 1.44165,0.15076 2.6555558,0.20634 l 2.206619,0.10107 0,3.544165 2.39379,0 0,-3.590615 1.196955,0 0,3.590615 4.338459,0 0,-2.393775 -1.795169,0 0,-1.19684 2.992124,0 0,4.760295 -6.395799,0.0602 c -3.89268,0.0368 -6.5376848,0.12036 -6.7591248,0.21389 -0.61314,0.25887 1.4545508,0.35155 7.8663198,0.35155 l 5.886964,0 0,-5.984275 -4.188974,0 0,2.39366 1.795299,0 0,1.196845 -3.141739,0 0,-3.590505 -2.393795,0 0,3.590505 -1.19682,0 0,-3.590505 -2.13197,0.0146 c -1.172204,0.008 -2.5023948,0.0605 -2.9546148,0.11596 -0.73709,0.0906 -0.77621,0.11218 -0.37408,0.20686 l 0,0 z m 0,27.527955 c 0.24658,0.0578 1.44165,0.15077 2.6555558,0.20624 l 2.206619,0.10108 0,3.544155 2.39379,0 0,-3.590615 1.196955,0 0,3.590615 4.338459,0 0,-2.393665 -1.795169,0 0,-1.19695 2.992124,0 0,4.760295 -6.395799,0.0603 c -3.89268,0.0368 -6.5376848,0.12026 -6.7591248,0.21389 -0.61314,0.25887 1.4545508,0.35144 7.8663198,0.35144 l 5.886964,0 0,-5.984385 -4.188974,0 0,2.39378 1.795299,0 0,1.19694 -3.141739,0 0,-3.59072 -2.393795,0 0,3.59072 -1.19682,0 0,-3.59072 -2.13197,0.0147 c -1.172204,0.008 -2.5023948,0.0605 -2.9546148,0.11607 -0.73709,0.0908 -0.77621,0.1124 -0.37408,0.20686 l 0,0 z m 0,15.110335 c 0.24658,0.0579 1.44165,0.15077 2.6555558,0.20634 l 2.206619,0.10118 0,3.54406 2.39379,0 0,-3.59062 1.196955,0 0,3.59062 4.338459,0 0,-2.39368 -1.795169,0 0,-1.19694 2.992124,0 0,4.7603 -6.395799,0.0602 c -3.89268,0.0368 -6.5376848,0.12036 -6.7591248,0.21388 -0.61314,0.25887 1.4545508,0.35156 7.8663198,0.35156 l 5.886964,0 0,-5.98429 -4.188974,0 0,2.39368 1.795299,0 0,1.19683 -3.141739,0 0,-3.59051 -2.393795,0 0,3.59051 -1.19682,0 0,-3.59051 -2.13197,0.0146 c -1.172204,0.008 -2.5023948,0.0605 -2.9546148,0.11597 -0.73709,0.0909 -0.77621,0.1125 -0.37408,0.20686 z m 0.44474,-80.327569 c 0.64397,0.0545 4.0896048,0.0988 7.6566098,0.0988 l 6.485344,0 0,-5.9846 -5.797234,10e-4 c -6.265984,0.002 -8.1291498,0.0891 -7.5073098,0.3502 0.21924,0.0923 2.8104348,0.17719 6.5348548,0.21493 l 6.171329,0.0608 0,4.73398 -6.994189,0.0586 c -4.346229,0.0363 -7.1315248,0.1169 -7.3576848,0.21274 -0.30678,0.13084 -0.18233,0.16995 0.80828,0.25351 l 0,0 z m 0,13.015899 c 0.64397,0.0544 4.0896048,0.0995 7.6566098,0.0995 l 6.485344,0 0,-5.984495 -5.797234,5.6e-4 c -6.265984,10e-4 -8.1291498,0.0883 -7.5073098,0.3502 0.21924,0.0923 2.8104348,0.17688 6.5348548,0.2143 l 6.171329,0.0609 0,4.734295 -6.994189,0.0584 c -4.346229,0.0362 -7.1315248,0.1169 -7.3576848,0.21273 -0.30678,0.13085 -0.18233,0.16996 0.80828,0.25353 l 0,0 z m 0.0192,13.46652 c 0.6336,0.0537 2.0173758,0.0971 3.0745348,0.0971 l 1.92219,0 0,-2.39388 -1.0098,10e-4 c -1.42132,0.002 -3.0342948,0.16954 -2.9494748,0.30668 0.0398,0.0637 0.8117508,0.16429 1.7163748,0.2228 l 1.64441,0.10631 0,1.11338 -2.635544,0.0852 c -2.8549108,0.0924 -3.6537308,0.30103 -1.7626908,0.46112 z m -0.17941,-5.838225 c 0.64997,0.0555 4.1367748,0.10055 7.7481348,0.10055 l 6.566729,0 -0.0435,-1.15951 -0.0438,-1.15951 -1.795315,-0.625115 -1.795399,-0.62604 1.832729,-0.01 1.832635,-0.0106 0,-2.39377 -6.096454,10e-4 c -3.353255,5.6e-4 -6.5675698,0.0461 -7.1437998,0.10096 -2.33705,0.22217 -0.0188,0.39171 6.2460948,0.45703 l 6.395799,0.0666 0,1.16423 -3.248074,0.0403 -3.248295,0.0404 3.248295,1.10813 3.248074,1.108045 0,1.27641 -6.994189,0.0619 c -4.02593,0.0355 -7.1846648,0.12508 -7.4430148,0.21022 -0.39865,0.13168 -0.31666,0.15915 0.7334,0.24848 l 0,0 z m -0.14949,-35.756614 c 0.64984,0.0556 2.1143308,0.10066 3.2539448,0.10066 l 2.07168,0 0,-3.5899902 1.19682,0 0,3.5899902 7.929209,0 0,-2.39368 -5.535414,0 0,-1.1963102 5.535414,0 0,-2.39367 -5.722454,0.001 c -6.193574,0.001 -8.0530498,0.0881 -7.4324598,0.34915 0.21862,0.0923 2.7923048,0.17719 6.4599748,0.21493 l 6.096579,0.0619 0,1.168 -5.535414,0 0,2.3936602 5.535414,0 0,1.19632 -6.732359,0 0,-3.5899802 -2.3938,0 0,3.5469902 -2.505834,0.0891 c -3.0570608,0.10799 -4.0020608,0.30091 -2.2213008,0.45189 z"
     inkscape:connector-curvature="0" />
</svg>
