<?xml version="1.0" encoding="UTF-8" standalone="no"?>
<svg
   xmlns:dc="http://purl.org/dc/elements/1.1/"
   xmlns:cc="http://creativecommons.org/ns#"
   xmlns:rdf="http://www.w3.org/1999/02/22-rdf-syntax-ns#"
   xmlns:svg="http://www.w3.org/2000/svg"
   xmlns="http://www.w3.org/2000/svg"
   xmlns:sodipodi="http://sodipodi.sourceforge.net/DTD/sodipodi-0.dtd"
   xmlns:inkscape="http://www.inkscape.org/namespaces/inkscape"
   version="1.1"
   width="210mm"
   height="297mm"
   viewBox="0 0 210 297"
   id="svg4841"
   inkscape:version="0.48.4 r9939"
   sodipodi:docname="blank5hp-inv.svg">
  <metadata
     id="metadata4902">
    <rdf:RDF>
      <cc:Work
         rdf:about="">
        <dc:format>image/svg+xml</dc:format>
        <dc:type
           rdf:resource="http://purl.org/dc/dcmitype/StillImage" />
        <dc:title></dc:title>
      </cc:Work>
    </rdf:RDF>
  </metadata>
  <sodipodi:namedview
     pagecolor="#ffffff"
     bordercolor="#666666"
     borderopacity="1"
     objecttolerance="10"
     gridtolerance="10"
     guidetolerance="10"
     inkscape:pageopacity="0"
     inkscape:pageshadow="2"
     inkscape:window-width="1280"
     inkscape:window-height="974"
     id="namedview4900"
     showgrid="false"
     inkscape:zoom="1.6986004"
     inkscape:cx="44.468509"
     inkscape:cy="824.70471"
     inkscape:window-x="0"
     inkscape:window-y="0"
     inkscape:window-maximized="1"
     inkscape:current-layer="svg4841" />
  <defs
     id="defs4843">
    <g
       id="potgrading">
      <path
         d="M 22.469177,65.29487 C 12.864593,59.897939 6.3758317,49.616792 6.3758317,37.815007 c 0,-17.395119 14.1022403,-31.4975588 31.4994303,-31.4975588 17.392315,0 31.496992,14.1012398 31.496992,31.4975588 0,11.809085 -6.498509,22.101133 -16.116497,27.493263"
         style="fill:none;stroke:#030303;stroke-width:0.41032487"
         id="path4846" />
      <path
         d="m 28.906759,4.4567034 0.78974,2.9366707"
         style="fill:none;stroke:#030303;stroke-width:0.75"
         id="path4848" />
      <path
         d="M 19.149856,5.4303268 22.099957,10.54465"
         style="fill:none;stroke:#030303;stroke-width:1.0"
         id="path4850" />
      <path
         d="m 13.42878,13.404619 2.150735,2.149652"
         style="fill:none;stroke:#030303;stroke-width:0.75"
         id="path4852" />
      <path
         d="m 5.5191934,19.159858 5.0557506,2.91857"
         style="fill:none;stroke:#030303;stroke-width:1.0"
         id="path4854" />
      <path
         d="m 4.4968328,28.890192 2.9366973,0.786019"
         style="fill:none;stroke:#030303;stroke-width:0.75"
         id="path4856" />
      <path
         d="m 0.49999997,37.829608 5.86364623,0"
         style="fill:none;stroke:#030303;stroke-width:1.0"
         id="path4858" />
      <path
         d="M 4.5053627,46.769023 7.44206,45.980604"
         style="fill:none;stroke:#030303;stroke-width:0.75"
         id="path4860" />
      <path
         d="M 5.5106636,56.509058 10.590785,53.578387"
         style="fill:none;stroke:#030303;stroke-width:1.0"
         id="path4862" />
      <path
         d="m 13.451932,62.247196 2.145861,-2.149452"
         style="fill:none;stroke:#030303;stroke-width:0.75"
         id="path4864" />
      <path
         d="m 19.291208,70.009583 2.834339,-4.907218"
         style="fill:none;stroke:#030303;stroke-width:1.0"
         id="path4866" />
      <path
         d="m 56.484784,70.043684 -2.861026,-4.95962"
         style="fill:none;stroke:#030303;stroke-width:1.0"
         id="path4868" />
      <path
         d="M 62.293717,62.224096 60.144201,60.079444"
         style="fill:none;stroke:#030303;stroke-width:0.75"
         id="path4870" />
      <path
         d="m 70.111912,56.418856 -4.965577,-2.86977"
         style="fill:none;stroke:#030303;stroke-width:1.0"
         id="path4872" />
      <path
         d="M 71.224445,46.738522 68.290307,45.951403"
         style="fill:none;stroke:#030303;stroke-width:0.75"
         id="path4874" />
      <path
         d="m 75.037277,37.799107 -5.678427,0"
         style="fill:none;stroke:#030303;stroke-width:1.0"
         id="path4876" />
      <path
         d="M 71.216037,28.859791 68.280436,29.64821"
         style="fill:none;stroke:#030303;stroke-width:0.75"
         id="path4878" />
      <path
         d="m 70.076574,19.198959 -4.943643,2.855068"
         style="fill:none;stroke:#030303;stroke-width:1.0"
         id="path4880" />
      <path
         d="M 62.27288,13.382718 60.124704,15.53107"
         style="fill:none;stroke:#030303;stroke-width:0.75"
         id="path4882" />
      <path
         d="M 56.550707,5.4181265 53.598168,10.52765"
         style="fill:none;stroke:#030303;stroke-width:1.0"
         id="path4884" />
      <path
         d="M 46.785274,4.4507032 45.999312,7.386174"
         style="fill:none;stroke:#030303;stroke-width:0.75"
         id="path4886" />
      <path
         d="m 37.844676,0.500008 0,5.8162402"
         style="fill:none;stroke:#030303;stroke-width:1.0"
         id="path4888" />
      <path
         d="m 69.475831,37.723605 c 0,17.397619 -14.103337,31.501159 -31.500648,31.501159 -17.397312,0 -31.500649,-14.10354 -31.500649,-31.501159 0,-17.397619 14.103337,-31.5012591 31.500649,-31.5012591 17.397311,0 31.500648,14.1036401 31.500648,31.5012591 z"
         style="fill:none"
         id="path4890" />
    </g>
  </defs>
  <g
     style="fill:none;stroke-width:0.1;stroke:black"
     id="g4892">
    <path
       style="stroke-width:0.11199479"
       d="m 0.00599739,0.00599739 25.08800561,0 0,128.48800261 -25.08800561,0 z"
       id="rect4894"
       inkscape:connector-curvature="0" />
    <path
       style=""
       d="M 9.1,3 C 9.1,3.8836556 8.3836556,4.6 7.5,4.6 6.6163444,4.6 5.9,3.8836556 5.9,3 5.9,2.1163444 6.6163444,1.4 7.5,1.4 8.3836556,1.4 9.1,2.1163444 9.1,3 z"
       id="circle4896" />
    <path
       style=""
       d="m 9.1,125.5 c 0,0.88366 -0.7163444,1.6 -1.6,1.6 -0.8836556,0 -1.6,-0.71634 -1.6,-1.6 0,-0.88366 0.7163444,-1.6 1.6,-1.6 0.8836556,0 1.6,0.71634 1.6,1.6 z"
       id="circle4898" />
  </g>
  <path
     id="path3182"
     style="fill:#000000;fill-opacity:1;stroke:#231f20;stroke-width:0.01298222;stroke-linecap:butt;stroke-linejoin:miter;stroke-miterlimit:10;stroke-opacity:1;stroke-dasharray:none"
     d="m 16.779043,102.8701 1.04436,0 0,1.19694 -2.699078,0 0.305309,-0.59847 0.3051,-0.59847 1.044299,0 z m -0.45349,1.79541 2.09621,0 0,-2.39378 -2.988549,0 -0.601929,1.19684 -0.60193,1.19694 2.096198,0 z m -0.444119,13.3151 1.941969,0 0,1.19685 -4.494382,0 0.30531,-0.59845 0.305095,-0.5984 1.942008,0 z m -0.4518,1.79526 2.992129,0 0,-2.3937 -4.760492,0 -0.61188,1.11505 c -0.33657,0.61298 -0.6119,1.15153 -0.6119,1.19682 0,0.045 1.346565,0.0818 2.992143,0.0818 z m -0.972339,-95.30089 3.366108,0 0,1.19673 -6.732352,0 0,-1.19673 3.366244,0 z m 0,1.7953 3.964468,0 0,-2.39387 -7.929202,0 0,2.39387 3.964734,0 z m 0,11.221226 3.366108,0 0,1.19672 -6.732352,0 0,-1.19672 3.366244,0 z m 0,1.7953 3.964468,0 0,-2.39388 -7.929202,0 0,2.39388 3.964734,0 z M 11.212991,102.8701 c 0.106,0 0.62604,0.93628 0.62604,1.12711 0,0.0383 -0.16817,0.0698 -0.37389,0.0698 -0.33667,0 -0.37409,-0.0599 -0.37409,-0.59848 0,-0.32932 0.0549,-0.59847 0.12194,-0.59847 z m 0.4782,1.79541 1.19873,0 -0.60206,-1.19694 c -0.60095,-1.19569 -0.60245,-1.19684 -1.1985,-1.19684 l -0.5968,0 0,2.39378 1.19863,0 z M 7.7401067,76.740798 c 0.6333741,0.0537 3.1616943,0.0973 5.6176243,0.0973 l 4.465672,0 0,1.795198 2.393675,0 0,-5.984285 -2.393675,0 0,1.795306 -4.600482,0.0011 c -5.063309,0.0012 -6.7346946,0.09353 -6.4704646,0.357993 0.11216,0.112178 1.9963845,0.18117 5.9167346,0.21682 l 5.752572,0.0519 0,-1.824454 1.196955,0 0,4.787446 -1.196955,0 0,-1.82256 -5.752572,0.0509 c -3.91687,0.0348 -5.8045746,0.103476 -5.9167346,0.215448 -0.11922,0.119419 0.15076,0.191039 0.9876503,0.261809 l 0,0 z m 0,42.937482 c 0.6333741,0.0538 1.6514643,0.0976 2.2616843,0.0976 l 1.10969,0 -0.64627,-1.19686 c -0.6416701,-1.18929 -0.64962,-1.19653 -1.2442501,-1.19569 -1.048969,0.002 -2.6117345,0.18673 -2.5409445,0.30123 0.0374,0.0608 0.6989001,0.15779 1.4697553,0.21536 l 1.4013593,0.10522 0.2463997,0.51629 c 0.1352601,0.28403 0.2462903,0.53795 0.2462903,0.56429 0,0.026 -0.7234502,0.0943 -1.6077402,0.15162 -0.8847143,0.057 -1.6620244,0.15782 -1.7280044,0.22383 -0.0661,0.0657 0.39855,0.16362 1.0320303,0.21711 l 0,0 z m -0.1688902,1.79383 c 0.6440652,0.0544 3.7530045,0.0991 6.9084985,0.0991 l 5.737363,0 0,-5.98432 -7.773707,0 -0.3611,0.71003 -0.36067,0.71013 -0.34537,-0.71013 -0.34473,-0.71003 -1.5037202,0.0146 c -0.8269498,0.008 -1.874274,0.0628 -2.3264944,0.12152 -0.803,0.10379 -0.81003,0.10904 -0.29934,0.21189 0.28813,0.0579 1.2641654,0.15486 2.1694344,0.21536 l 1.6456802,0.10988 0.45179,0.85094 c 0.24857,0.46783 0.49792,0.89643 0.55401,0.95255 0.0558,0.0561 0.32134,-0.3437 0.58999,-0.88828 l 0.48817,-0.98997 6.817697,0 0,4.75967 -6.246207,0.0608 c -3.7793103,0.0368 -6.3891946,0.12152 -6.6095646,0.21416 -0.30564,0.12885 -0.17824,0.16862 0.8082701,0.25216 l 0,0 z m -0.14565,-76.599749 c 0.7703353,0.0702 1.8631644,0.333828 3.0669945,0.739898 l 1.87018,0.630775 -2.24417,0.0927 c -1.2341401,0.0515 -2.4760842,0.101812 -2.7600945,0.112302 -0.4008501,0.0151 -0.4763401,0.0596 -0.3372201,0.19878 0.12679,0.12676 1.3295846,0.197429 4.1065946,0.241258 2.16036,0.034 4.096073,0.0357 4.301783,0.003 0.24575,-0.0378 -0.830899,-0.462788 -3.141763,-1.238253 -3.6179702,-1.21497 -3.9435302,-1.27463 -5.4606746,-0.99878 -0.54875,0.0994 -0.49896,0.11753 0.5983601,0.21788 l 0,0 z m -0.9723601,5.843684 c 0.20573,0.0712 3.2522646,0.161149 6.7697146,0.199198 l 6.395797,0.07 0,1.167695 -7.330857,0 0,2.393879 7.330857,0 0,1.171141 -6.171327,0.0647 c -3.42517,0.0357 -6.3712946,0.129801 -6.6201846,0.211171 -0.7503901,0.24524 1.4990155,0.345779 7.7422586,0.34704 l 5.647613,5.65e-4 0,-2.39388 -7.330727,0 0,-1.196729 7.330727,0 0,-2.393885 -6.246072,0.0153 c -6.4161595,0.0152 -8.2278297,0.0981 -7.5177996,0.343703 l 0,0 z M 5.9295963,14.80028 c 0.24662,0.064 2.1821056,0.15517 4.3011747,0.20235 l 3.852534,0.086 0,1.15857 -3.590744,0 0,2.39367 7.929202,0 0,-2.39367 -1.79517,0 0,-1.19736 2.992125,0 0,4.76113 -6.096577,0.0598 c -3.7167501,0.0356 -6.2384446,0.11953 -6.4599846,0.21284 -0.60602,0.25687 1.4306443,0.35229 7.5672686,0.35229 l 5.587653,0 0,-5.98365 -4.188984,0 0,2.39367 1.795309,0 0,1.19631 -6.732352,0 0,-1.19631 3.590604,0 0,-2.39367 -3.777654,0.0147 c -2.0774601,0.007 -4.1480146,0.0598 -4.6004146,0.11533 -0.7538601,0.0933 -0.7848901,0.11114 -0.3739901,0.21808 z m 0.5944001,18.552361 c 0.64386,0.0543 3.9885046,0.0994 7.4320996,0.0994 l 6.260982,0 0,-2.39431 -9.126027,0 0,-1.7953 -1.08465,0.001 c -1.5148302,10e-4 -3.1429146,0.17062 -2.9997946,0.31154 0.066,0.0649 0.8772403,0.16482 1.8029445,0.2232 l 1.6830101,0.10528 0,1.75253 9.126157,0 0,1.17114 -6.769787,0.0591 c -4.1761002,0.0362 -6.9087447,0.11783 -7.1332147,0.21303 -0.30691,0.13042 -0.18129,0.16954 0.8082801,0.2531 l 0,0 z M 5.7799763,58.181723 c 0.24662,0.0621 1.8122002,0.154331 3.4784445,0.205181 l 3.0294502,0.0924 0,1.154159 -1.79531,0 0,2.393682 7.929202,0 0,-2.393682 -1.79517,0 0,-1.196828 2.992125,0 0,4.759455 -6.171327,0.0607 c -3.72273,0.0373 -6.3156146,0.122149 -6.5348546,0.214528 -0.60957,0.25656 1.4458743,0.350501 7.6420486,0.350501 l 5.662493,0 0,-5.984286 -4.188974,0 0,2.39388 1.795299,0 0,1.196732 -6.732352,0 0,-1.196732 1.7953,0 0,-2.39388 -2.9546902,0.0153 c -1.6252588,0.008 -3.3253844,0.0602 -3.7775745,0.115759 -0.74694,0.0923 -0.78144,0.111548 -0.37411,0.213148 l 0,0 z m 0.7440201,33.069582 c 0.64386,0.0543 3.9885046,0.099 7.4320996,0.099 l 6.260982,0 0,-2.393687 -9.126027,0 0,-1.795298 -1.08465,0.0011 c -1.5148302,0.0012 -3.1429146,0.1703 -2.9997946,0.311109 0.066,0.065 0.8772403,0.16545 1.8029445,0.223331 l 1.6830101,0.105469 0,1.752939 9.126157,0 0,1.170841 -6.769787,0.0587 c -4.1761002,0.0366 -6.9087447,0.118061 -7.1332147,0.213359 -0.30691,0.13033 -0.18129,0.169757 0.8082801,0.253317 l 0,0 z m 0,15.110425 c 0.64386,0.0543 3.9885046,0.0991 7.4320996,0.0991 l 6.260982,0 0,-5.98438 -2.992125,0 c -1.645689,0 -2.992768,0.0502 -2.993098,0.11219 0,0.0616 -0.16229,0.37934 -0.359819,0.70573 l -0.359555,0.59375 -0.34263,-0.70604 -0.34317,-0.70563 -2.32646,0.0147 c -1.2792502,0.008 -2.697004,0.0613 -3.1493145,0.11828 -0.8200001,0.10285 -0.8210701,0.10369 -0.3021601,0.22909 0.2869601,0.069 1.6334345,0.16744 2.9921546,0.2183 l 2.47146,0.0929 0.4518,0.85094 c 0.24856,0.46772 0.49791,0.89644 0.55401,0.95254 0.0558,0.0561 0.321345,-0.34359 0.589854,-0.88827 l 0.48827,-0.98997 5.022423,0 0,4.76144 -6.769787,0.0587 c -4.1761002,0.0365 -6.9087447,0.11806 -7.1332147,0.21326 -0.30691,0.13033 -0.18129,0.16975 0.8082801,0.25342 l 0,0 z M 5.6303863,65.655998 c 0.24658,0.0579 1.4416501,0.15076 2.6555557,0.206341 l 2.206619,0.101069 0,3.544167 2.39379,0 0,-3.590615 1.196954,0 0,3.590615 4.338458,0 0,-2.393775 -1.79517,0 0,-1.19684 2.992125,0 0,4.760293 -6.395797,0.0602 c -3.8926803,0.0368 -6.5376846,0.120361 -6.7591246,0.213892 -0.6131401,0.258868 1.4545506,0.35155 7.8663186,0.35155 l 5.886963,0 0,-5.984277 -4.188974,0 0,2.393662 1.795299,0 0,1.196846 -3.141738,0 0,-3.590508 -2.393794,0 0,3.590508 -1.19682,0 0,-3.590508 -2.13197,0.01459 c -1.1722041,0.008 -2.5023946,0.0605 -2.9546147,0.11596 -0.73709,0.0906 -0.77621,0.11218 -0.37408,0.20686 l 0,0 z m 0,27.527956 c 0.24658,0.0578 1.4416501,0.150769 2.6555557,0.20624 l 2.206619,0.10108 0,3.544155 2.39379,0 0,-3.590615 1.196954,0 0,3.590615 4.338458,0 0,-2.393665 -1.79517,0 0,-1.19695 2.992125,0 0,4.760295 -6.395797,0.0603 c -3.8926803,0.0368 -6.5376846,0.12026 -6.7591246,0.21389 -0.6131401,0.25887 1.4545506,0.35144 7.8663186,0.35144 l 5.886963,0 0,-5.984385 -4.188974,0 0,2.39378 1.795299,0 0,1.19694 -3.141738,0 0,-3.59072 -2.393794,0 0,3.59072 -1.19682,0 0,-3.59072 -2.13197,0.0147 c -1.1722041,0.008 -2.5023946,0.0605 -2.9546147,0.116073 -0.73709,0.0908 -0.77621,0.112401 -0.37408,0.206861 l 0,0 z m 0,15.110336 c 0.24658,0.0579 1.4416501,0.15077 2.6555557,0.20634 l 2.206619,0.10118 0,3.54406 2.39379,0 0,-3.59062 1.196954,0 0,3.59062 4.338458,0 0,-2.39368 -1.79517,0 0,-1.19694 2.992125,0 0,4.7603 -6.395797,0.0602 c -3.8926803,0.0368 -6.5376846,0.12036 -6.7591246,0.21388 -0.6131401,0.25887 1.4545506,0.35156 7.8663186,0.35156 l 5.886963,0 0,-5.98429 -4.188974,0 0,2.39368 1.795299,0 0,1.19683 -3.141738,0 0,-3.59051 -2.393794,0 0,3.59051 -1.19682,0 0,-3.59051 -2.13197,0.0146 c -1.1722041,0.008 -2.5023946,0.0605 -2.9546147,0.11597 -0.73709,0.0909 -0.77621,0.1125 -0.37408,0.20686 z m 0.44474,-80.32756 c 0.6439701,0.0545 4.0896047,0.0988 7.6566097,0.0988 l 6.485342,0 0,-5.9846 -5.797233,0.001 c -6.265983,0.002 -8.1291486,0.0891 -7.5073086,0.35019 0.21924,0.0923 2.8104343,0.17719 6.5348546,0.21493 l 6.171327,0.0608 0,4.73398 -6.994187,0.0586 c -4.346229,0.0362 -7.1315247,0.1168 -7.3576847,0.21264 -0.30678,0.13085 -0.18233,0.16996 0.80828,0.25352 l 0,0 z m 0,13.015891 c 0.6439701,0.0544 4.0896047,0.0995 7.6566097,0.0995 l 6.485342,0 0,-5.984495 -5.797233,5.6e-4 c -6.265983,0.001 -8.1291486,0.0883 -7.5073086,0.3502 0.21924,0.0923 2.8104343,0.17688 6.5348546,0.2143 l 6.171327,0.0609 0,4.734295 -6.994187,0.0584 c -4.346229,0.0362 -7.1315247,0.11691 -7.3576847,0.21274 -0.30678,0.13085 -0.18233,0.16996 0.80828,0.25353 l 0,0 z m 0.0192,13.466518 c 0.6336001,0.0537 2.0173755,0.0971 3.0745346,0.0971 l 1.9221901,0 0,-2.393879 -1.0098,0.0011 c -1.4213203,0.002 -3.0342946,0.16954 -2.9494746,0.30668 0.0398,0.0637 0.8117503,0.16429 1.7163745,0.2228 l 1.6444101,0.106308 0,1.113381 -2.6355441,0.0852 c -2.8549106,0.0924 -3.6537306,0.301029 -1.7626906,0.46112 z m -0.17941,-5.838224 c 0.6499701,0.0555 4.1367747,0.100551 7.7481347,0.100551 l 6.566727,0 -0.0435,-1.15951 -0.0438,-1.15951 -1.795315,-0.625117 -1.7954,-0.626039 1.83273,-0.01 1.832635,-0.01061 0,-2.393769 -6.096453,10e-4 c -3.353254,5.6e-4 -6.5675685,0.0461 -7.1437986,0.10096 -2.3370501,0.22217 -0.0188,0.39171 6.2460946,0.45703 l 6.395797,0.0666 0,1.16423 -3.248075,0.0403 -3.248292,0.0404 3.248292,1.108129 3.248075,1.108044 0,1.27641 -6.994187,0.0619 c -4.02593,0.03553 -7.1846647,0.125114 -7.4430147,0.210255 -0.39865,0.131679 -0.31666,0.159148 0.7334,0.24848 l 0,0 z M 5.7654263,12.85431 c 0.6498401,0.0556 2.1143306,0.10066 3.2539448,0.10066 l 2.0716799,0 0,-3.5899804 1.19682,0 0,3.5899804 7.929207,0 0,-2.39367 -5.535413,0 0,-1.1963104 5.535413,0 0,-2.39367 -5.722453,10e-4 c -6.1935732,0.001 -8.0530486,0.0881 -7.4324586,0.34915 0.21862,0.0923 2.7923043,0.17719 6.4599746,0.21493 l 6.096577,0.0619 0,1.168 -5.535413,0 0,2.3936504 5.535413,0 0,1.19632 -6.732357,0 0,-3.5899704 -2.3938,0 0,3.5469804 -2.5058342,0.0891 c -3.0570605,0.10786 -4.0020605,0.30078 -2.2213005,0.45176 z"
     inkscape:connector-curvature="0" />
</svg>
