<?xml version="1.0" encoding="UTF-8" standalone="no"?>
<!-- Created with Inkscape (http://www.inkscape.org/) -->

<svg
   xmlns:dc="http://purl.org/dc/elements/1.1/"
   xmlns:cc="http://creativecommons.org/ns#"
   xmlns:rdf="http://www.w3.org/1999/02/22-rdf-syntax-ns#"
   xmlns:svg="http://www.w3.org/2000/svg"
   xmlns="http://www.w3.org/2000/svg"
   xmlns:sodipodi="http://sodipodi.sourceforge.net/DTD/sodipodi-0.dtd"
   xmlns:inkscape="http://www.inkscape.org/namespaces/inkscape"
   id="svg2"
   version="1.1"
   inkscape:version="0.48.4 r9939"
   width="1603.3875"
   height="1612.2375"
   xml:space="preserve"
   sodipodi:docname="SubRackBack1.svg"><metadata
     id="metadata8"><rdf:RDF><cc:Work
         rdf:about=""><dc:format>image/svg+xml</dc:format><dc:type
           rdf:resource="http://purl.org/dc/dcmitype/StillImage" /><dc:title></dc:title></cc:Work></rdf:RDF></metadata><defs
     id="defs6" /><sodipodi:namedview
     pagecolor="#ffffff"
     bordercolor="#666666"
     borderopacity="1"
     objecttolerance="10"
     gridtolerance="10"
     guidetolerance="10"
     inkscape:pageopacity="0"
     inkscape:pageshadow="2"
     inkscape:window-width="1223"
     inkscape:window-height="1000"
     id="namedview4"
     showgrid="false"
     inkscape:zoom="0.50550811"
     inkscape:cx="801.69754"
     inkscape:cy="885.24256"
     inkscape:window-x="57"
     inkscape:window-y="24"
     inkscape:window-maximized="1"
     inkscape:current-layer="g12" /><g
     id="g10"
     inkscape:groupmode="layer"
     inkscape:label="ink_ext_XXXXXX"
     transform="matrix(1.25,0,0,-1.25,0,1612.2375)"><g
       id="g12"
       transform="scale(0.1,0.1)"><path
         d="m 11153.6,7769.72 c 0,-15.65 12.7,-28.34 28.4,-28.34 l 739.8,0 c 15.7,0 28.4,12.69 28.4,28.34 l 0,1278.43 c 0,15.65 -12.7,28.34 -28.4,28.34 l -739.8,0 c -15.7,0 -28.4,-12.69 -28.4,-28.34 l 0,-1278.43"
         style="fill:#ffffff;fill-opacity:1;fill-rule:nonzero;stroke:none"
         id="path34" /><path
         d="m 11153.6,7769.72 c 0,-15.65 12.7,-28.34 28.4,-28.34 l 739.8,0 c 15.7,0 28.4,12.69 28.4,28.34 l 0,1278.43 c 0,15.65 -12.7,28.34 -28.4,28.34 l -739.8,0 c -15.7,0 -28.4,-12.69 -28.4,-28.34 l 0,-1278.43 z"
         style="fill:none;stroke:#231f20;stroke-opacity:1;stroke-width:10;stroke-linecap:butt;stroke-linejoin:miter;stroke-miterlimit:10;stroke-dasharray:none"
         id="path36" /><path
         d="m 11503.7,9202.64 c 0,-26.62 21.6,-48.2 48.2,-48.2 26.6,0 48.2,21.58 48.2,48.2 0,26.61 -21.6,48.19 -48.2,48.19 -26.6,0 -48.2,-21.58 -48.2,-48.19"
         style="fill:#ffffff;fill-opacity:1;fill-rule:nonzero;stroke:none"
         id="path38" /><path
         d="m 11503.7,9202.64 c 0,-26.62 21.6,-48.2 48.2,-48.2 26.6,0 48.2,21.58 48.2,48.2 0,26.61 -21.6,48.19 -48.2,48.19 -26.6,0 -48.2,-21.58 -48.2,-48.19 z"
         style="fill:none;stroke:#231f20;stroke-opacity:1;stroke-width:10;stroke-linecap:butt;stroke-linejoin:miter;stroke-miterlimit:10;stroke-dasharray:none"
         id="path40" /><path
         d="m 11503.7,7615.23 c 0,-26.61 21.6,-48.19 48.2,-48.19 26.6,0 48.2,21.58 48.2,48.19 0,26.62 -21.6,48.2 -48.2,48.2 -26.6,0 -48.2,-21.58 -48.2,-48.2"
         style="fill:#ffffff;fill-opacity:1;fill-rule:nonzero;stroke:none"
         id="path42" /><path
         d="m 11503.7,7615.23 c 0,-26.61 21.6,-48.19 48.2,-48.19 26.6,0 48.2,21.58 48.2,48.19 0,26.62 -21.6,48.2 -48.2,48.2 -26.6,0 -48.2,-21.58 -48.2,-48.2 z"
         style="fill:none;stroke:#231f20;stroke-opacity:1;stroke-width:10;stroke-linecap:butt;stroke-linejoin:miter;stroke-miterlimit:10;stroke-dasharray:none"
         id="path44" /><path
         d="m 7409.17,9217.84 0,34.9 40,0 0,-90.2 -20,10.2 -20,10.2 0,34.9 z m 60,-15.15 0,70.05 -80,0 0,-99.88 40,-20.12 40,-20.11 0,70.06 z m 445,-14.85 0,64.9 40,0 0,-150.2 -20,10.2 -20,10.2 0,64.9 z m 60,-15.1 0,100 -80,0 0,-159.1 37.27,-20.45 c 20.48,-11.25 38.48,-20.45 40,-20.45 1.5,0 2.73,45 2.73,100 z m -3185.02,-32.5 0,112.5 40,0 0,-225 -40,0 0,112.5 z m 60,0 0,132.5 -80,0 0,-265 80,0 0,132.5 z m 375.02,0 0,112.5 40,0 0,-225 -40,0 0,112.5 z m 60,0 0,132.5 -80,0 0,-265 80,0 0,132.5 z m 2125,-108.42 c 0,3.54 31.29,20.92 37.67,20.92 1.27,0 2.33,-5.62 2.33,-12.5 0,-11.25 -2,-12.5 -20,-12.5 -11.01,0 -20,1.84 -20,4.08 z m 60,15.98 0,40.06 -40,-20.12 c -39.96,-20.08 -40,-20.13 -40,-40.05 l 0,-19.95 80,0 0,40.06 z m -933.26,-132.05 c 1.79,21.17 3.25,105.67 3.25,187.75 l 0,149.24 60,0 0,80 -200,0 0,-80 60,0 0.04,-153.75 c 0.04,-169.22 3.12,-225.07 11.96,-216.25 3.75,3.75 6.06,66.72 7.25,197.75 l 1.74,192.25 -60.98,0 0,40 160,0 0,-40 -60.91,0 1.7,-192.25 c 1.16,-130.91 3.46,-194 7.2,-197.75 3.99,-3.98 6.38,5.04 8.75,33.01 l 0,0 z m 1435,0 c 1.79,21.17 3.26,55.2 3.26,75.59 l 0,37.09 -40,-21.6 c -39.75,-21.45 -39.99,-21.71 -39.96,-41.59 0.05,-35.05 6.24,-87.28 10.07,-84.92 2.03,1.25 5.27,23.36 7.19,49.12 l 3.52,46.84 17.26,8.23 c 9.49,4.52 17.97,8.23 18.85,8.23 0.87,0 3.16,-24.18 5.07,-53.73 1.91,-29.57 5.27,-55.54 7.48,-57.75 2.2,-2.21 5.47,13.32 7.26,34.49 l 0,0 z m 59.95,-5.64 c 1.82,21.52 3.31,125.43 3.31,230.89 l 0,191.74 -200,0 0,-259.8 23.73,-12.07 23.73,-12.05 -23.73,-11.55 -23.73,-11.52 0.49,-50.25 c 0.27,-27.64 2.1,-62.64 4.06,-77.76 3.47,-26.83 3.64,-27.07 7.08,-10 1.93,9.63 5.18,42.25 7.2,72.5 l 3.67,55 28.44,15.1 c 15.63,8.31 29.96,16.64 31.83,18.52 1.88,1.86 -11.48,10.74 -29.68,19.71 l -33.09,16.32 0,227.85 159.07,0 2.03,-208.75 c 1.23,-126.3 4.07,-213.53 7.16,-220.89 4.31,-10.22 5.64,-5.96 8.43,27.01 l 0,0 z m -2560.01,-4.87 c 2.34,25.75 11.15,62.27 24.73,102.5 l 21.07,62.5 3.11,-75 c 1.71,-41.25 3.39,-82.75 3.75,-92.24 0.5,-13.4 1.99,-15.92 6.64,-11.27 4.23,4.24 6.6,44.43 8.06,137.24 1.14,72.2 1.19,136.9 0.12,143.77 -1.27,8.22 -15.47,-27.77 -41.39,-105 -40.6,-120.91 -42.59,-131.79 -33.38,-182.5 3.32,-18.34 3.93,-16.68 7.29,20 l 0,0 z m 195.29,-32.5 c 2.39,6.88 5.39,108.7 6.66,226.25 l 2.35,213.75 39.02,0 0,-245 80,0 0,245 39.14,0 2.17,-206.25 c 1.19,-114.47 4.33,-212.93 7.05,-221.25 8.2,-25.07 11.56,50.1 11.6,258.75 l 0.02,188.75 -80,0 0,-245 -40,0 0,245 -80,0 0.51,-208.75 c 0.51,-214.43 3.28,-274.98 11.48,-251.25 l 0,0 z m -1200.33,-17.5 c 2.15,8.25 5.2,72.93 6.76,143.75 l 2.87,128.75 38.73,0 0,-120 80,0 0,265 -80,0 0,-60 -40,0 0,100 159.12,0 1.97,-203.75 c 1.19,-124.22 3.99,-208.49 7.13,-215.89 8.6,-20.26 11.78,47.81 11.78,252.9 l 0,186.74 -200,0 0,-140 80,0 0,60 40,0 0,-225 -40,0 0,120 -80,0 0.49,-126.25 c 0.27,-69.43 2.01,-138.63 3.87,-153.75 3.1,-25.19 3.71,-26.23 7.28,-12.5 z m 620.04,19.87 c 1.82,21.52 3.32,133.3 3.32,248.39 l 0,209.24 -80.02,0 0,-305 -60,0 0.04,-36.25 c 0.06,-50.62 5.7,-105.04 10.41,-100.25 2.17,2.21 5.51,29.32 7.46,60.25 l 3.52,56.25 58.57,0 0,305 39.14,0 1.97,-226.25 c 1.21,-139.57 3.95,-230.89 7.13,-238.39 4.36,-10.26 5.67,-6.06 8.46,27.01 l 0,0 z m 829.8,-24.87 c 2.07,8.25 5.16,60.57 6.86,116.25 l 3.09,101.25 38.57,0 0,-60 80,0 0,265 -80,0 0,-60 -40,0 0,100 159.06,0 2.03,-206.25 c 1.25,-124.41 4.09,-211.07 7.17,-218.39 8.58,-20.38 11.72,48.32 11.72,255.4 l 0,189.24 -200,0 0,-140 80,0 0,60 40,0 0,-225 -40,0 0,60 -80,0 0.51,-98.75 c 0.27,-54.31 2.01,-111.13 3.87,-126.25 3.08,-24.96 3.73,-26.11 7.12,-12.5 l 0,0 z m 1105.21,24.87 c 1.82,21.52 3.31,133.3 3.31,248.39 l 0,209.24 -80,0 0,-305 -60,0 0.03,-36.25 c 0.05,-50.62 5.69,-105.04 10.4,-100.25 2.17,2.21 5.53,29.32 7.46,60.25 l 3.53,56.25 58.58,0 0,305 39.13,0 1.96,-226.25 c 1.22,-139.57 3.95,-230.89 7.13,-238.39 4.36,-10.26 5.68,-6.06 8.47,27.01 l 0,0 z m 505,0 c 1.82,21.52 3.31,133.3 3.31,248.39 l 0,209.24 -200,0 0,-100 c 0,-55 1.68,-100.02 3.75,-100.03 2.06,-0.01 12.68,-5.43 23.58,-12.03 l 19.85,-12.01 -23.6,-11.45 -23.58,-11.47 0.49,-77.75 c 0.27,-42.76 2.05,-90.14 3.95,-105.26 3.44,-27.4 3.47,-27.44 7.66,-10.09 2.3,9.59 5.59,54.59 7.29,100 l 3.11,82.59 28.44,15.1 c 15.63,8.31 29.96,16.64 31.83,18.52 1.88,1.86 -11.48,10.74 -29.68,19.71 l -33.09,16.32 0,167.85 159.13,0 1.96,-226.25 c 1.22,-139.57 3.95,-230.89 7.13,-238.39 4.36,-10.26 5.68,-6.06 8.47,27.01 l 0,0 z m -1360.41,-29.87 c 1.93,8.25 5.04,48.19 6.89,88.75 l 3.38,73.75 118.45,0 0,80 -120,0 0,40 120,0 0,145 -80,0 0,-60 -40,0 0,100 159.09,0 2.01,-213.75 c 1.23,-130.09 4.03,-218.49 7.15,-225.89 8.65,-20.49 11.75,48.61 11.75,262.9 l 0,196.74 -200,0 0,-140 80,0 0,60 40,0 0,-105 -120,0 0,-80 120,0 0,-40 -120,0 0.49,-71.25 c 0.27,-39.18 2.02,-83.63 3.87,-98.75 3.03,-24.63 3.75,-25.93 6.92,-12.5 l 0,0 z m 920,0 c 1.93,8.25 5.04,48.19 6.89,88.75 l 3.38,73.75 118.45,0 0,80 -120,0 0,40 120,0 0,145 -80,0 0,-60 -40,0 0,100 159.09,0 2.01,-213.75 c 1.23,-130.09 4.03,-218.49 7.15,-225.89 8.65,-20.49 11.75,48.61 11.75,262.9 l 0,196.74 -200,0 0,-140 80,0 0,60 40,0 0,-105 -120,0 0,-80 120,0 0,-40 -120,0 0.49,-71.25 c 0.27,-39.18 2.02,-83.63 3.87,-98.75 3.04,-24.63 3.76,-25.93 6.92,-12.5 l 0,0 z m 505,0 c 1.93,8.25 5.04,48.19 6.89,88.75 l 3.38,73.75 118.45,0 0,80 -120,0 0,40 120,0 0,145 -80,0 0,-60 -40,0 0,100 159.09,0 2.01,-213.75 c 1.23,-130.09 4.03,-218.49 7.15,-225.89 8.65,-20.49 11.75,48.61 11.75,262.9 l 0,196.74 -200,0 0,-140 80,0 0,60 40,0 0,-105 -120,0 0,-80 120,0 0,-40 -120,0 0.49,-71.25 c 0.27,-39.18 2.02,-83.63 3.87,-98.75 3.04,-24.63 3.76,-25.93 6.92,-12.5 z m -2684.6,14.87 c 1.82,21.52 3.3,136.68 3.3,255.89 l 0,216.74 -200,0 0.04,-193.75 c 0.04,-209.41 2.95,-271.68 11.7,-250.89 3.08,7.32 5.92,93.92 7.17,218.39 l 2.03,206.25 158.22,0 1.95,-233.75 c 1.21,-145.25 3.91,-238.34 7.11,-245.89 4.38,-10.26 5.69,-6.1 8.48,27.01 l 0,0 z m 435,0 c 1.82,21.52 3.32,136.68 3.32,255.89 l 0,216.74 -200,0 0.02,-193.75 c 0.04,-209.41 2.95,-271.68 11.7,-250.89 3.08,7.32 5.92,93.92 7.17,218.39 l 2.03,206.25 158.22,0 1.95,-233.75 c 1.21,-145.25 3.91,-238.34 7.11,-245.89 4.38,-10.26 5.69,-6.1 8.48,27.01 l 0,0 z m 450.06,0.64 c 1.79,21.17 3.24,67.42 3.24,102.76 l 0,64.23 -80,0 0.04,-33.75 c 0.06,-47.5 5.66,-101.4 10.25,-98.57 2.13,1.33 5.49,27.13 7.44,57.36 l 3.56,54.96 37.21,0 2.85,-88.08 c 3.08,-95.41 10.06,-122.11 15.41,-58.91 z m -195.12,-5.99 c 1.86,21.71 3.36,138.25 3.36,258.94 l 0,219.46 -38.75,-1.45 -38.75,-1.47 -20.9,-60 -20.92,-60 -0.33,61.25 -0.35,61.25 -80,0 0.04,-203.75 c 0.02,-112.07 1.54,-219.49 3.38,-238.75 7.42,-78.1 13.08,-0.62 15.27,208.75 l 2.23,213.75 38.9,0 1.35,-108.55 1.35,-108.56 37.03,108.56 37.03,108.55 42.66,0 2.07,-233.75 c 1.19,-134.55 4.18,-240.11 7.03,-248.75 4.39,-13.32 5.31,-10.58 8.3,24.52 l 0,0 z m -1195,-5 c 1.86,21.71 3.36,70.66 3.36,108.75 l 0,69.23 -120,0 0,40 120,0 0,265 -80,0 0,-185 -40,0 0,185 -80,0 0.04,-191.25 c 0.04,-206.99 2.97,-269.14 11.7,-248.39 3.06,7.3 5.92,93.32 7.15,215.89 l 2.07,203.75 39.04,0 0,-185 80,0 0,185 40,0 0,-225 -120,0 0,-80 118.54,0 2.98,-83.75 c 3.62,-102.16 10.06,-133.75 15.12,-74.23 z"
         style="fill:none;stroke:#231f20;stroke-width:1.25;stroke-linecap:butt;stroke-linejoin:miter;stroke-miterlimit:10;stroke-opacity:1;stroke-dasharray:none"
         id="path46"
         inkscape:connector-curvature="0" /><path
         d="m 9800.556,5183.96 0,99.61 114.16,0 0,-257.43 -57.08,29.12 -57.08,29.1 0,99.6 z m 171.24,-43.25 0,199.93 -228.31,0 0,-285.04 114.15,-57.41 114.16,-57.41 0,199.93 z m 1269.947,-42.36 0,185.22 114.152,0 0,-428.66 -57.078,29.12 -57.074,29.1 0,185.22 z m 171.226,-43.09 0,285.38 -228.303,0 0,-454.04 106.35,-58.36 c 58.465,-32.1 109.828,-58.36 114.148,-58.36 4.293,0 7.805,128.43 7.805,285.38 z m -9089.463,-92.74 0,321.05 114.14,0 0,-642.11 -114.14,0 0,321.06 z m 171.23,0 0,378.12 -228.32,0 0,-756.26 228.32,0 0,378.14 z m 1070.24,0 0,321.05 114.14,0 0,-642.11 -114.14,0 0,321.06 z m 171.23,0 0,378.12 -228.32,0 0,-756.26 228.32,0 0,378.14 z m 6064.35,-309.43 c 0,10.11 89.3,59.71 107.5,59.71 3.65,0 6.66,-16.04 6.66,-35.66 0,-32.11 -5.71,-35.68 -57.08,-35.68 -31.41,0 -57.08,5.24 -57.08,11.63 z m 171.24,45.61 0,114.33 -114.16,-57.42 c -114.04,-57.32 -114.15,-57.46 -114.15,-114.31 l 0,-56.92 228.31,0 0,114.32 z m -2663.36,-376.84 c 5.12,60.41 9.28,301.55 9.28,535.79 l 0,425.92 171.22,0 0,228.3 -570.76,0 0,-228.3 171.23,0 0.11,-438.78 c 0.11,-482.92 8.92,-642.33 34.14,-617.13 10.7,10.7 17.28,190.41 20.68,564.32 l 4.96,548.66 -174.01,0 0,114.16 456.61,0 0,-114.16 -173.83,0 4.85,-548.66 c 3.32,-373.58 9.87,-553.62 20.55,-564.32 11.39,-11.37 18.22,14.38 24.97,94.2 l 0,0 z m 4095.225,0 c 5.128,60.41 9.308,157.51 9.308,215.71 l 0,105.84 -114.152,-61.64 c -113.431,-61.2 -114.121,-61.96 -114.041,-118.67 0.14,-100.05 17.81,-249.1 28.73,-242.35 5.8,3.57 15.05,66.66 20.54,140.18 l 10.036,133.66 49.243,23.5 c 27.089,12.9 51.308,23.49 53.82,23.49 2.476,0 8.996,-69 14.461,-153.34 5.433,-84.38 15.051,-158.52 21.347,-164.81 6.27,-6.31 15.606,38.01 20.708,98.43 l 0,0 z m 171.089,-16.11 c 5.188,61.43 9.45,357.95 9.45,658.91 l 0,547.21 -570.764,0 0,-741.43 67.72,-34.44 67.73,-34.4 -67.73,-32.94 -67.72,-32.88 1.39,-143.42 c 0.78,-78.87 5.99,-178.76 11.59,-221.89 9.9,-76.59 10.4,-77.26 20.21,-28.55 5.52,27.48 14.77,120.57 20.54,206.91 l 10.48,156.96 81.16,43.09 c 44.62,23.71 85.499,47.49 90.851,52.84 5.347,5.32 -32.781,30.65 -84.721,56.27 l -94.42,46.56 0,650.25 453.961,0 5.797,-595.74 c 3.512,-360.46 11.59,-609.38 20.426,-630.4 12.289,-29.15 16.082,-17 24.05,77.09 l 0,0 z m -7305.814,-13.89 c 6.7,73.47 31.84,177.7 70.57,292.52 l 60.16,178.37 8.84,-214.04 c 4.91,-117.71 9.71,-236.16 10.71,-263.25 1.44,-38.23 5.68,-45.43 18.96,-32.16 12.09,12.09 18.83,126.81 23.01,391.67 3.24,206.05 3.4,390.67 0.33,410.29 -3.61,23.44 -44.14,-79.25 -118.1,-299.65 -115.88,-345.07 -121.57,-376.12 -95.26,-520.82 9.48,-52.34 11.21,-47.59 20.78,57.07 l 0,0 z m 557.35,-92.74 c 6.79,19.62 15.37,310.19 19,645.67 l 6.68,610.01 111.37,0 0,-699.19 228.32,0 0,699.19 111.7,0 6.17,-588.6 c 3.4,-326.68 12.38,-607.67 20.14,-631.41 23.39,-71.57 32.98,142.97 33.1,738.43 l 0.06,538.65 -228.32,0 0,-699.18 -114.14,0 0,699.18 -228.32,0 1.46,-595.73 c 1.45,-611.95 9.36,-784.74 32.78,-717.02 l 0,0 z m -3425.52,-49.94 c 6.1,23.52 14.8,208.12 19.3,410.23 l 8.2,367.44 110.5,0 0,-342.47 228.3,0 0,756.26 -228.3,0 0,-171.22 -114.2,0 0,285.38 454.1,0 5.7,-581.47 c 3.4,-354.49 11.4,-595 20.3,-616.13 24.5,-57.8 33.6,136.45 33.6,721.74 l 0,532.93 -570.7,0 0,-399.53 228.3,0 0,171.23 114.1,0 0,-642.11 -114.1,0 0,342.46 -228.3,0 1.4,-360.3 c 0.7,-198.14 5.7,-395.62 11,-438.77 8.9,-71.9 10.6,-74.86 20.8,-35.67 z m 1769.46,56.69 c 5.18,61.41 9.48,380.41 9.48,708.85 l 0,597.15 -228.36,0 0,-870.41 -171.23,0 0.11,-103.45 c 0.16,-144.48 16.27,-299.76 29.71,-286.11 6.19,6.3 15.72,83.67 21.29,171.96 l 10.04,160.52 167.15,0 0,870.42 111.7,0 5.64,-645.68 c 3.46,-398.3 11.25,-658.93 20.33,-680.34 12.44,-29.27 16.17,-17.29 24.14,77.09 l 0,0 z m 2368.11,-70.96 c 5.92,23.52 14.72,172.84 19.57,331.76 l 8.81,288.94 110.08,0 0,-171.23 228.3,0 0,756.26 -228.3,0 0,-171.22 -114.15,0 0,285.38 453.94,0 5.79,-588.6 c 3.56,-355.06 11.65,-602.36 20.46,-623.27 24.47,-58.14 33.43,137.9 33.43,728.87 l 0,540.07 -570.76,0 0,-399.53 228.32,0 0,171.23 114.14,0 0,-642.11 -114.14,0 0,171.23 -228.32,0 1.46,-281.81 c 0.78,-155.01 5.74,-317.16 11.04,-360.29 8.8,-71.24 10.64,-74.53 20.33,-35.68 l 0,0 z m 3154.06,70.96 c 5.18,61.41 9.44,380.41 9.44,708.85 l 0,597.15 -228.3,0 0,-870.41 -171.23,0 0.09,-103.45 c 0.13,-144.48 16.24,-299.76 29.67,-286.11 6.2,6.3 15.78,83.67 21.3,171.96 l 10.06,160.52 167.19,0 0,870.42 111.67,0 5.6,-645.68 c 3.49,-398.3 11.26,-658.93 20.35,-680.34 12.43,-29.27 16.19,-17.29 24.16,77.09 l 0,0 z m 1441.18,0 c 5.18,61.41 9.45,380.41 9.45,708.85 l 0,597.15 -570.77,0 0,-285.38 c 0,-156.96 4.79,-285.44 10.7,-285.47 5.88,-0.01 36.18,-15.48 67.31,-34.32 l 56.63,-34.29 -67.34,-32.68 -67.3,-32.73 1.4,-221.89 c 0.77,-122.01 5.85,-257.23 11.28,-300.37 9.81,-78.21 9.89,-78.31 21.85,-28.82 6.58,27.37 15.97,155.79 20.82,285.38 l 8.86,235.72 81.16,43.09 c 44.61,23.71 85.5,47.49 90.85,52.84 5.35,5.32 -32.77,30.65 -84.72,56.26 l -94.42,46.57 0,479.02 454.13,0 5.6,-645.68 c 3.48,-398.3 11.26,-658.93 20.34,-680.34 12.43,-29.27 16.19,-17.29 24.17,77.09 l 0,0 z m -3882.37,-85.23 c 5.52,23.52 14.38,137.5 19.68,253.28 l 9.64,210.46 338.03,0 0,228.31 -342.46,0 0,114.16 342.46,0 0,413.79 -228.31,0 0,-171.22 -114.15,0 0,285.38 454.02,0 5.74,-610.01 c 3.51,-371.27 11.48,-623.54 20.4,-644.66 24.69,-58.48 33.53,138.73 33.53,750.26 l 0,561.48 -570.76,0 0,-399.53 228.3,0 0,171.23 114.15,0 0,-299.65 -342.45,0 0,-228.31 342.45,0 0,-114.15 -342.45,0 1.39,-203.34 c 0.77,-111.8 5.77,-238.67 11.06,-281.8 8.64,-70.3 10.7,-74.03 19.73,-35.68 l 0,0 z m 2625.52,0 c 5.51,23.52 14.38,137.5 19.67,253.28 l 9.64,210.46 338.03,0 0,228.31 -342.46,0 0,114.16 342.46,0 0,413.79 -228.3,0 0,-171.22 -114.16,0 0,285.38 454.02,0 5.75,-610.01 c 3.51,-371.27 11.47,-623.54 20.4,-644.66 24.69,-58.48 33.52,138.73 33.52,750.26 l 0,561.48 -570.77,0 0,-399.53 228.31,0 0,171.23 114.16,0 0,-299.65 -342.47,0 0,-228.31 342.47,0 0,-114.15 -342.47,0 1.4,-203.34 c 0.78,-111.8 5.77,-238.67 11.07,-281.8 8.66,-70.3 10.72,-74.03 19.73,-35.68 l 0,0 z m 1441.17,0 c 5.52,23.52 14.38,137.5 19.68,253.28 l 9.65,210.46 338.02,0 0,228.31 -342.46,0 0,114.16 342.46,0 0,413.79 -228.3,0 0,-171.22 -114.16,0 0,285.38 454.02,0 5.74,-610.01 c 3.51,-371.27 11.48,-623.54 20.4,-644.66 24.69,-58.48 33.53,138.73 33.53,750.26 l 0,561.48 -570.76,0 0,-399.53 228.3,0 0,171.23 114.15,0 0,-299.65 -342.45,0 0,-228.31 342.45,0 0,-114.15 -342.45,0 1.39,-203.34 c 0.78,-111.8 5.77,-238.67 11.06,-281.8 8.67,-70.3 10.73,-74.03 19.73,-35.68 z m -7661.36,42.42 c 5.2,61.42 9.42,390.05 9.42,730.26 l 0,618.55 -570.79,0 0.1,-552.92 c 0.2,-597.63 8.5,-775.33 33.4,-716.02 8.8,20.91 16.9,268.05 20.5,623.27 l 5.8,588.6 451.51,0 5.59,-667.08 c 3.46,-414.53 11.15,-680.18 20.29,-701.75 12.48,-29.26 16.21,-17.39 24.18,77.09 l 0,0 z m 1241.41,0 c 5.19,61.42 9.49,390.05 9.49,730.26 l 0,618.55 -570.78,0 0.06,-552.92 c 0.11,-597.63 8.42,-775.33 33.4,-716.02 8.8,20.91 16.87,268.05 20.44,623.27 l 5.81,588.6 451.54,0 5.57,-667.08 c 3.45,-414.53 11.15,-680.18 20.29,-701.75 12.48,-29.26 16.21,-17.39 24.18,77.09 l 0,0 z m 1284.39,1.83 c 5.12,60.43 9.26,192.41 9.26,293.24 l 0,183.33 -228.32,0 0.12,-96.31 c 0.17,-135.56 16.17,-289.4 29.25,-281.31 6.08,3.79 15.67,77.42 21.25,163.7 l 10.14,156.84 106.19,0 8.13,-251.37 c 8.81,-272.29 28.71,-348.48 43.98,-168.12 z m -556.83,-17.11 c 5.29,61.99 9.59,394.55 9.59,738.99 l 0,626.31 -110.59,-4.15 -110.59,-4.18 -59.62,-171.23 -59.71,-171.24 -0.94,174.8 -1.01,174.79 -228.31,0 0.12,-581.46 c 0.06,-319.82 4.4,-626.39 9.63,-681.35 21.19,-222.9 37.36,-1.79 43.59,595.73 l 6.35,610.01 111.04,0 3.84,-309.79 3.85,-309.81 105.69,309.81 105.68,309.79 121.74,0 5.9,-667.08 c 3.39,-383.98 11.93,-685.25 20.05,-709.89 12.56,-38.02 15.18,-30.2 23.7,69.95 l 0,0 z m -3410.34,-14.26 c 5.3,61.98 9.6,201.66 9.6,310.35 l 0,197.59 -342.4,0 0,114.15 342.4,0 0,756.26 -228.3,0 0,-527.95 -114.1,0 0,527.95 -228.3,0 0.1,-545.79 c 0.1,-590.72 8.4,-768.07 33.3,-708.88 8.8,20.85 16.9,266.32 20.5,616.13 l 5.9,581.47 111.4,0 0,-527.95 228.3,0 0,527.95 114.1,0 0,-642.11 -342.4,0 0,-228.31 338.3,0 8.5,-239 c 10.3,-291.57 28.7,-381.7 43.1,-211.86 z"
         style="fill:none;stroke:#231f20;stroke-width:1.25;stroke-linecap:butt;stroke-linejoin:miter;stroke-miterlimit:10;stroke-opacity:1;stroke-dasharray:none"
         id="path48"
         inkscape:connector-curvature="0" /><path
         d="m 3.40625,7062.48 12231.49975,0 0,2692.91 -12231.49975,0 0,-2692.91 z"
         style="fill:none;stroke:#231f20;stroke-opacity:1;stroke-width:6.81203;stroke-linecap:butt;stroke-linejoin:miter;stroke-miterlimit:10;stroke-dasharray:none"
         id="path52" /><path
         d="m 12059.7,9684.53 c 0,-19.57 15.9,-35.44 35.5,-35.44 19.5,0 35.4,15.87 35.4,35.44 0,19.57 -15.9,35.43 -35.4,35.43 -19.6,0 -35.5,-15.86 -35.5,-35.43 z"
         style="fill:none;stroke:#231f20;stroke-opacity:1;stroke-width:6.81203;stroke-linecap:butt;stroke-linejoin:miter;stroke-miterlimit:10;stroke-dasharray:none"
         id="path54" /><path
         d="m 12059.7,7133.35 c 0,-19.57 15.9,-35.44 35.5,-35.44 19.5,0 35.4,15.87 35.4,35.44 0,19.57 -15.9,35.43 -35.4,35.43 -19.6,0 -35.5,-15.86 -35.5,-35.43 z"
         style="fill:none;stroke:#231f20;stroke-opacity:1;stroke-width:6.81203;stroke-linecap:butt;stroke-linejoin:miter;stroke-miterlimit:10;stroke-dasharray:none"
         id="path56" /><path
         d="m 6155.73,9684.53 c 0,-19.57 15.86,-35.44 35.43,-35.44 19.57,0 35.43,15.87 35.43,35.44 0,19.57 -15.86,35.43 -35.43,35.43 -19.57,0 -35.43,-15.86 -35.43,-35.43 z"
         style="fill:none;stroke:#231f20;stroke-opacity:1;stroke-width:6.81203;stroke-linecap:butt;stroke-linejoin:miter;stroke-miterlimit:10;stroke-dasharray:none"
         id="path58" /><path
         d="m 6155.73,7133.35 c 0,-19.57 15.86,-35.44 35.43,-35.44 19.57,0 35.43,15.87 35.43,35.44 0,19.57 -15.86,35.43 -35.43,35.43 -19.57,0 -35.43,-15.86 -35.43,-35.43 z"
         style="fill:none;stroke:#231f20;stroke-opacity:1;stroke-width:6.81203;stroke-linecap:butt;stroke-linejoin:miter;stroke-miterlimit:10;stroke-dasharray:none"
         id="path60" /><path
         d="m 107.727,9684.53 c 0,-19.57 15.859,-35.44 35.425,-35.44 19.575,0 35.434,15.87 35.434,35.44 0,19.57 -15.859,35.43 -35.434,35.43 -19.566,0 -35.425,-15.86 -35.425,-35.43 z"
         style="fill:none;stroke:#231f20;stroke-opacity:1;stroke-width:6.81203;stroke-linecap:butt;stroke-linejoin:miter;stroke-miterlimit:10;stroke-dasharray:none"
         id="path62" /><path
         d="m 107.727,6693.99 c 0,-19.57 15.859,-35.44 35.425,-35.44 19.575,0 35.434,15.87 35.434,35.44 0,19.57 -15.859,35.43 -35.434,35.43 -19.566,0 -35.425,-15.86 -35.425,-35.43 z"
         style="fill:none;stroke:#231f20;stroke-opacity:1;stroke-width:6.81203;stroke-linecap:butt;stroke-linejoin:miter;stroke-miterlimit:10;stroke-dasharray:none"
         id="path64" /><path
         d="m 107.727,2867.2 c 0,-19.5 15.859,-35.4 35.425,-35.4 19.575,0 35.434,15.9 35.434,35.4 0,19.6 -15.859,35.46 -35.434,35.46 -19.566,0 -35.425,-15.86 -35.425,-35.46 z"
         style="fill:none;stroke:#231f20;stroke-opacity:1;stroke-width:6.81203;stroke-linecap:butt;stroke-linejoin:miter;stroke-miterlimit:10;stroke-dasharray:none"
         id="path66" /><path
         d="m 12059.7,6693.99 c 0,-19.57 15.9,-35.44 35.5,-35.44 19.5,0 35.4,15.87 35.4,35.44 0,19.57 -15.9,35.43 -35.4,35.43 -19.6,0 -35.5,-15.86 -35.5,-35.43 z"
         style="fill:none;stroke:#231f20;stroke-opacity:1;stroke-width:6.81203;stroke-linecap:butt;stroke-linejoin:miter;stroke-miterlimit:10;stroke-dasharray:none"
         id="path68" /><path
         d="m 12059.7,2867.2 c 0,-19.5 15.9,-35.4 35.5,-35.4 19.5,0 35.4,15.9 35.4,35.4 0,19.6 -15.9,35.46 -35.4,35.46 -19.6,0 -35.5,-15.86 -35.5,-35.46 z"
         style="fill:none;stroke:#231f20;stroke-opacity:1;stroke-width:6.81203;stroke-linecap:butt;stroke-linejoin:miter;stroke-miterlimit:10;stroke-dasharray:none"
         id="path70" /><path
         d="m 6155.73,6693.99 c 0,-19.57 15.86,-35.44 35.43,-35.44 19.57,0 35.43,15.87 35.43,35.44 0,19.57 -15.86,35.43 -35.43,35.43 -19.57,0 -35.43,-15.86 -35.43,-35.43 z"
         style="fill:none;stroke:#231f20;stroke-opacity:1;stroke-width:6.81203;stroke-linecap:butt;stroke-linejoin:miter;stroke-miterlimit:10;stroke-dasharray:none"
         id="path72" /><path
         d="m 6155.73,2867.2 c 0,-19.5 15.86,-35.4 35.43,-35.4 19.57,0 35.43,15.9 35.43,35.4 0,19.6 -15.86,35.46 -35.43,35.46 -19.57,0 -35.43,-15.86 -35.43,-35.46 z"
         style="fill:none;stroke:#231f20;stroke-opacity:1;stroke-width:6.81203;stroke-linecap:butt;stroke-linejoin:miter;stroke-miterlimit:10;stroke-dasharray:none"
         id="path74" /><path
         d="m 107.727,7133.35 c 0,-19.57 15.859,-35.44 35.425,-35.44 19.575,0 35.434,15.87 35.434,35.44 0,19.57 -15.859,35.43 -35.434,35.43 -19.566,0 -35.425,-15.86 -35.425,-35.43 z"
         style="fill:none;stroke:#231f20;stroke-opacity:1;stroke-width:6.81203;stroke-linecap:butt;stroke-linejoin:miter;stroke-miterlimit:10;stroke-dasharray:none"
         id="path76" /><path
         d="m 7804.29,7344.79 c 0,-23.48 19.03,-42.52 42.52,-42.52 23.47,0 42.52,19.04 42.52,42.52 0,23.49 -19.05,42.52 -42.52,42.52 -23.49,0 -42.52,-19.03 -42.52,-42.52 z"
         style="fill:none;stroke:#181c41;stroke-opacity:1;stroke-width:7.08661;stroke-linecap:round;stroke-linejoin:round;stroke-miterlimit:10;stroke-dasharray:none"
         id="path122" /><path
         d="m 6868.28,8424.79 c 0,-23.48 19.03,-42.52 42.52,-42.52 23.49,0 42.52,19.04 42.52,42.52 0,23.49 -19.03,42.52 -42.52,42.52 -23.49,0 -42.52,-19.03 -42.52,-42.52 z"
         style="fill:none;stroke:#181c41;stroke-opacity:1;stroke-width:7.08661;stroke-linecap:round;stroke-linejoin:round;stroke-miterlimit:10;stroke-dasharray:none"
         id="path124" /><path
         d="m 5932.29,7344.79 c 0,-23.48 19.03,-42.52 42.51,-42.52 23.49,0 42.52,19.04 42.52,42.52 0,23.49 -19.03,42.52 -42.52,42.52 -23.48,0 -42.51,-19.03 -42.51,-42.52 z"
         style="fill:none;stroke:#181c41;stroke-opacity:1;stroke-width:7.08661;stroke-linecap:round;stroke-linejoin:round;stroke-miterlimit:10;stroke-dasharray:none"
         id="path126" /><path
         d="m 4996.28,8424.79 c 0,-23.48 19.03,-42.52 42.52,-42.52 23.49,0 42.52,19.04 42.52,42.52 0,23.49 -19.03,42.52 -42.52,42.52 -23.49,0 -42.52,-19.03 -42.52,-42.52 z"
         style="fill:none;stroke:#181c41;stroke-opacity:1;stroke-width:7.08661;stroke-linecap:round;stroke-linejoin:round;stroke-miterlimit:10;stroke-dasharray:none"
         id="path128" /><path
         d="m 3718.89,7344.79 c 0,-23.48 19.03,-42.52 42.52,-42.52 23.47,0 42.52,19.04 42.52,42.52 0,23.49 -19.05,42.52 -42.52,42.52 -23.49,0 -42.52,-19.03 -42.52,-42.52 z"
         style="fill:none;stroke:#181c41;stroke-opacity:1;stroke-width:7.08661;stroke-linecap:round;stroke-linejoin:round;stroke-miterlimit:10;stroke-dasharray:none"
         id="path158" /><path
         d="m 2782.88,8424.79 c 0,-23.48 19.03,-42.52 42.52,-42.52 23.49,0 42.52,19.04 42.52,42.52 0,23.49 -19.03,42.52 -42.52,42.52 -23.49,0 -42.52,-19.03 -42.52,-42.52 z"
         style="fill:none;stroke:#181c41;stroke-opacity:1;stroke-width:7.08661;stroke-linecap:round;stroke-linejoin:round;stroke-miterlimit:10;stroke-dasharray:none"
         id="path160" /><path
         d="m 1846.88,7344.79 c 0,-23.48 19.04,-42.52 42.52,-42.52 23.49,0 42.52,19.04 42.52,42.52 0,23.49 -19.03,42.52 -42.52,42.52 -23.48,0 -42.52,-19.03 -42.52,-42.52 z"
         style="fill:none;stroke:#181c41;stroke-opacity:1;stroke-width:7.08661;stroke-linecap:round;stroke-linejoin:round;stroke-miterlimit:10;stroke-dasharray:none"
         id="path162" /><path
         d="m 910.879,8424.79 c 0,-23.48 19.031,-42.52 42.519,-42.52 23.489,0 42.52,19.04 42.52,42.52 0,23.49 -19.031,42.52 -42.52,42.52 -23.488,0 -42.519,-19.03 -42.519,-42.52 z"
         style="fill:none;stroke:#181c41;stroke-opacity:1;stroke-width:7.08661;stroke-linecap:round;stroke-linejoin:round;stroke-miterlimit:10;stroke-dasharray:none"
         id="path164" /><path
         d="m 2105.76,9157.72 c 0,-186.29 -151.02,-337.32 -337.32,-337.32 -186.3,0 -337.32,151.03 -337.32,337.32 0,186.3 151.02,337.33 337.32,337.33 186.3,0 337.32,-151.03 337.32,-337.33 z"
         style="fill:none;stroke:#100f0d;stroke-opacity:1;stroke-width:7.08661;stroke-linecap:round;stroke-linejoin:round;stroke-miterlimit:10;stroke-dasharray:none"
         id="path166" /><path
         d="m 1530.33,9489.38 c 0,-25.04 -20.31,-45.36 -45.35,-45.36 -25.05,0 -45.36,20.32 -45.36,45.36 0,25.05 20.31,45.36 45.36,45.36 25.04,0 45.35,-20.31 45.35,-45.36 z"
         style="fill:none;stroke:#100f0d;stroke-opacity:1;stroke-width:7.08661;stroke-linecap:round;stroke-linejoin:round;stroke-miterlimit:10;stroke-dasharray:none"
         id="path168" /><path
         d="m 2097.26,8826.07 c 0,-25.05 -20.31,-45.36 -45.36,-45.36 -25.04,0 -45.35,20.31 -45.35,45.36 0,25.05 20.31,45.36 45.35,45.36 25.05,0 45.36,-20.31 45.36,-45.36 z"
         style="fill:none;stroke:#100f0d;stroke-opacity:1;stroke-width:7.08661;stroke-linecap:round;stroke-linejoin:round;stroke-miterlimit:10;stroke-dasharray:none"
         id="path170" /><path
         d="m 2897.76,9157.72 c 0,-186.29 -151.02,-337.32 -337.32,-337.32 -186.29,0 -337.32,151.03 -337.32,337.32 0,186.3 151.03,337.33 337.32,337.33 186.3,0 337.32,-151.03 337.32,-337.33 z"
         style="fill:none;stroke:#100f0d;stroke-opacity:1;stroke-width:7.08661;stroke-linecap:round;stroke-linejoin:round;stroke-miterlimit:10;stroke-dasharray:none"
         id="path172" /><path
         d="m 2322.33,9489.38 c 0,-25.04 -20.31,-45.36 -45.35,-45.36 -25.05,0 -45.36,20.32 -45.36,45.36 0,25.05 20.31,45.36 45.36,45.36 25.04,0 45.35,-20.31 45.35,-45.36 z"
         style="fill:none;stroke:#100f0d;stroke-opacity:1;stroke-width:7.08661;stroke-linecap:round;stroke-linejoin:round;stroke-miterlimit:10;stroke-dasharray:none"
         id="path174" /><path
         d="m 2889.26,8826.07 c 0,-25.05 -20.3,-45.36 -45.35,-45.36 -25.05,0 -45.36,20.31 -45.36,45.36 0,25.05 20.31,45.36 45.36,45.36 25.05,0 45.35,-20.31 45.35,-45.36 z"
         style="fill:none;stroke:#100f0d;stroke-opacity:1;stroke-width:7.08661;stroke-linecap:round;stroke-linejoin:round;stroke-miterlimit:10;stroke-dasharray:none"
         id="path176" /><path
         d="m 8943.97,7346.65 c 0,-23.49 -19.03,-42.52 -42.51,-42.52 -23.49,0 -42.52,19.03 -42.52,42.52 0,23.49 19.03,42.52 42.52,42.52 23.48,0 42.51,-19.03 42.51,-42.52 z"
         style="fill:none;stroke:#535456;stroke-opacity:1;stroke-width:7.08661;stroke-linecap:round;stroke-linejoin:round;stroke-miterlimit:10;stroke-dasharray:none"
         id="path178" /><path
         d="m 10384,7346.65 c 0,-23.49 -19,-42.52 -42.5,-42.52 -23.5,0 -42.6,19.03 -42.6,42.52 0,23.49 19.1,42.52 42.6,42.52 23.5,0 42.5,-19.03 42.5,-42.52 z"
         style="fill:none;stroke:#535456;stroke-opacity:1;stroke-width:7.08661;stroke-linecap:round;stroke-linejoin:round;stroke-miterlimit:10;stroke-dasharray:none"
         id="path180" /><path
         d="m 10384,9506.65 c 0,-23.49 -19,-42.52 -42.5,-42.52 -23.5,0 -42.6,19.03 -42.6,42.52 0,23.49 19.1,42.52 42.6,42.52 23.5,0 42.5,-19.03 42.5,-42.52 z"
         style="fill:none;stroke:#535456;stroke-opacity:1;stroke-width:7.08661;stroke-linecap:round;stroke-linejoin:round;stroke-miterlimit:10;stroke-dasharray:none"
         id="path182" /><path
         d="m 8943.97,9506.65 c 0,-23.49 -19.03,-42.52 -42.51,-42.52 -23.49,0 -42.52,19.03 -42.52,42.52 0,23.49 19.03,42.52 42.52,42.52 23.48,0 42.51,-19.03 42.51,-42.52 z"
         style="fill:none;stroke:#535456;stroke-opacity:1;stroke-width:7.08661;stroke-linecap:round;stroke-linejoin:round;stroke-miterlimit:10;stroke-dasharray:none"
         id="path184" /><path
         d="m 3.40625,2745.3 12231.49975,0 0,4070.58 -12231.49975,0 0,-4070.58 z"
         style="fill:none;stroke:#231f20;stroke-opacity:1;stroke-width:6.81203;stroke-linecap:butt;stroke-linejoin:miter;stroke-miterlimit:10;stroke-dasharray:none"
         id="path186" /></g></g></svg>