<?xml version="1.0" encoding="UTF-8" standalone="no"?>
<svg
   xmlns:dc="http://purl.org/dc/elements/1.1/"
   xmlns:cc="http://creativecommons.org/ns#"
   xmlns:rdf="http://www.w3.org/1999/02/22-rdf-syntax-ns#"
   xmlns:svg="http://www.w3.org/2000/svg"
   xmlns="http://www.w3.org/2000/svg"
   xmlns:sodipodi="http://sodipodi.sourceforge.net/DTD/sodipodi-0.dtd"
   xmlns:inkscape="http://www.inkscape.org/namespaces/inkscape"
   version="1.1"
   width="210mm"
   height="297mm"
   viewBox="0 0 210 297"
   id="svg958"
   sodipodi:docname="Genius.svg"
   inkscape:version="0.92.4 (5da689c313, 2019-01-14)">
  <metadata
     id="metadata960">
    <rdf:RDF>
      <cc:Work
         rdf:about="">
        <dc:format>image/svg+xml</dc:format>
        <dc:type
           rdf:resource="http://purl.org/dc/dcmitype/StillImage" />
        <dc:title></dc:title>
      </cc:Work>
    </rdf:RDF>
  </metadata>
  <sodipodi:namedview
     id="base"
     inkscape:document-units="mm"
     units="mm"
     showgrid="false"
     inkscape:zoom="0.5946522"
     inkscape:cx="-247.90705"
     inkscape:cy="833.70207"
     inkscape:window-width="1920"
     inkscape:window-height="1016"
     inkscape:window-x="0"
     inkscape:window-y="1107"
     inkscape:window-maximized="1"
     inkscape:current-layer="svg958" />
  <defs
     id="defs902">
    <g
       id="potgrading" />
  </defs>
  <g
     style="fill:none;stroke:#ff0000;stroke-width:0.05"
     id="g956"
     transform="translate(79.75,84.25)">
    <path
       style=""
       d="M 0,0 H 50.5 V 128.5 H 0 Z"
       id="rect904" />
    <path
       style=""
       d="M 9.1,3 A 1.6,1.6 0 0 1 7.5,4.6 1.6,1.6 0 0 1 5.9,3 1.6,1.6 0 0 1 7.5,1.4 1.6,1.6 0 0 1 9.1,3 Z"
       id="circle906" />
    <path
       style=""
       d="m 9.1,125.5 a 1.6,1.6 0 0 1 -1.6,1.6 1.6,1.6 0 0 1 -1.6,-1.6 1.6,1.6 0 0 1 1.6,-1.6 1.6,1.6 0 0 1 1.6,1.6 z"
       id="circle908" />
    <path
       style=""
       d="m 44.660001,3 a 1.6,1.6 0 0 1 -1.6,1.6 1.6,1.6 0 0 1 -1.6,-1.6 1.6,1.6 0 0 1 1.6,-1.6 1.6,1.6 0 0 1 1.6,1.6 z"
       id="circle910" />
    <path
       style=""
       d="m 44.660001,125.5 a 1.6,1.6 0 0 1 -1.6,1.6 1.6,1.6 0 0 1 -1.6,-1.6 1.6,1.6 0 0 1 1.6,-1.6 1.6,1.6 0 0 1 1.6,1.6 z"
       id="circle912" />
    <path
       style="fill:none;stroke:#ff0000"
       d="M 6.724,17.027 H 43.775998 V 36.543001 H 6.724 Z"
       id="rect914" />
    <path
       style="fill:none;stroke:#ff0000"
       d="m 47.549999,45.200001 a 3.25,3.25 0 0 1 -3.25,3.25 3.25,3.25 0 0 1 -3.25,-3.25 3.25,3.25 0 0 1 3.25,-3.25 3.25,3.25 0 0 1 3.25,3.25 z"
       id="circle916" />
    <path
       style="fill:none;stroke:#ff0000"
       d="m 47.549999,57.900002 a 3.25,3.25 0 0 1 -3.25,3.25 3.25,3.25 0 0 1 -3.25,-3.25 3.25,3.25 0 0 1 3.25,-3.25 3.25,3.25 0 0 1 3.25,3.25 z"
       id="circle918" />
    <path
       style="fill:none;stroke:#ff0000"
       d="m 47.549999,70.599998 a 3.25,3.25 0 0 1 -3.25,3.25 3.25,3.25 0 0 1 -3.25,-3.25 3.25,3.25 0 0 1 3.25,-3.25 3.25,3.25 0 0 1 3.25,3.25 z"
       id="circle920" />
    <path
       style="fill:none;stroke:#ff0000"
       d="m 47.549999,83.300003 a 3.25,3.25 0 0 1 -3.25,3.25 3.25,3.25 0 0 1 -3.25,-3.25 3.25,3.25 0 0 1 3.25,-3.25 3.25,3.25 0 0 1 3.25,3.25 z"
       id="circle922" />
    <path
       style="fill:none;stroke:#ff0000"
       d="m 47.549999,96 a 3.25,3.25 0 0 1 -3.25,3.25 3.25,3.25 0 0 1 -3.25,-3.25 3.25,3.25 0 0 1 3.25,-3.25 3.25,3.25 0 0 1 3.25,3.25 z"
       id="circle924" />
    <path
       style="fill:none;stroke:#ff0000"
       d="m 47.549999,108.7 a 3.25,3.25 0 0 1 -3.25,3.25 3.25,3.25 0 0 1 -3.25,-3.25 3.25,3.25 0 0 1 3.25,-3.25 3.25,3.25 0 0 1 3.25,3.25 z"
       id="circle926" />
    <path
       style="fill:none;stroke:#ff0000"
       d="m 9.4499998,45.200001 a 3.25,3.25 0 0 1 -3.25,3.25 3.25,3.25 0 0 1 -3.25,-3.25 3.25,3.25 0 0 1 3.25,-3.25 3.25,3.25 0 0 1 3.25,3.25 z"
       id="circle928" />
    <path
       style="fill:none;stroke:#ff0000"
       d="m 9.4499998,57.900002 a 3.25,3.25 0 0 1 -3.25,3.25 3.25,3.25 0 0 1 -3.25,-3.25 3.25,3.25 0 0 1 3.25,-3.25 3.25,3.25 0 0 1 3.25,3.25 z"
       id="circle930" />
    <path
       style="fill:none;stroke:#ff0000"
       d="m 9.4499998,70.599998 a 3.25,3.25 0 0 1 -3.25,3.25 3.25,3.25 0 0 1 -3.25,-3.25 3.25,3.25 0 0 1 3.25,-3.25 3.25,3.25 0 0 1 3.25,3.25 z"
       id="circle932" />
    <path
       style="fill:none;stroke:#ff0000"
       d="m 9.4499998,83.300003 a 3.25,3.25 0 0 1 -3.25,3.25 3.25,3.25 0 0 1 -3.25,-3.25 3.25,3.25 0 0 1 3.25,-3.25 3.25,3.25 0 0 1 3.25,3.25 z"
       id="circle934" />
    <path
       style="fill:none;stroke:#ff0000"
       d="m 9.4499998,96 a 3.25,3.25 0 0 1 -3.25,3.25 3.25,3.25 0 0 1 -3.25,-3.25 3.25,3.25 0 0 1 3.25,-3.25 3.25,3.25 0 0 1 3.25,3.25 z"
       id="circle936" />
    <path
       style="fill:none;stroke:#ff0000"
       d="m 9.4499998,108.7 a 3.25,3.25 0 0 1 -3.25,3.25 3.25,3.25 0 0 1 -3.25,-3.25 3.25,3.25 0 0 1 3.25,-3.25 3.25,3.25 0 0 1 3.25,3.25 z"
       id="circle938" />
    <path
       style="fill:none;stroke:#ff0000"
       d="m 22.15,85.839996 a 3.25,3.25 0 0 1 -3.25,3.25 3.25,3.25 0 0 1 -3.25,-3.25 3.25,3.25 0 0 1 3.25,-3.25 3.25,3.25 0 0 1 3.25,3.25 z"
       id="circle940" />
    <path
       style="fill:none;stroke:#ff0000"
       d="m 34.85,85.839996 a 3.25,3.25 0 0 1 -3.25,3.25 3.25,3.25 0 0 1 -3.25,-3.25 3.25,3.25 0 0 1 3.25,-3.25 3.25,3.25 0 0 1 3.25,3.25 z"
       id="circle942" />
    <path
       style="fill:none;stroke:#ff0000"
       d="m 35.419999,59.169998 a 2.55,2.55 0 0 1 -2.55,2.55 2.55,2.55 0 0 1 -2.55,-2.55 2.55,2.55 0 0 1 2.55,-2.55 2.55,2.55 0 0 1 2.55,2.55 z"
       id="circle944" />
    <path
       style="fill:none;stroke:#ff0000"
       d="m 20.179999,59.169998 a 2.55,2.55 0 0 1 -2.55,2.55 2.55,2.55 0 0 1 -2.55,-2.55 2.55,2.55 0 0 1 2.55,-2.55 2.55,2.55 0 0 1 2.55,2.55 z"
       id="circle946" />
    <path
       style="fill:none;stroke:#ff0000"
       d="m 29,47.740002 a 3.75,3.75 0 0 1 -3.75,3.75 3.75,3.75 0 0 1 -3.75,-3.75 3.75,3.75 0 0 1 3.75,-3.75 3.75,3.75 0 0 1 3.75,3.75 z"
       id="circle948" />
    <path
       style="fill:none;stroke:#ff0000"
       d="m 29,70.599998 a 3.75,3.75 0 0 1 -3.75,3.75 3.75,3.75 0 0 1 -3.75,-3.75 3.75,3.75 0 0 1 3.75,-3.75 3.75,3.75 0 0 1 3.75,3.75 z"
       id="circle950" />
    <path
       style="fill:none;stroke:#ff0000"
       d="m 19.25,92.531998 h 12 V 103.532 h -12 z"
       id="rect952" />
    <path
       style="fill:none;stroke:#ff0000"
       d="m 17.875,107.74 h 14.75 v 7 h -14.75 z"
       id="rect954" />
  </g>
</svg>
