<?xml version="1.0" encoding="UTF-8" standalone="no"?>
<!-- Created with Inkscape (http://www.inkscape.org/) -->

<svg
   xmlns:dc="http://purl.org/dc/elements/1.1/"
   xmlns:cc="http://creativecommons.org/ns#"
   xmlns:rdf="http://www.w3.org/1999/02/22-rdf-syntax-ns#"
   xmlns:svg="http://www.w3.org/2000/svg"
   xmlns="http://www.w3.org/2000/svg"
   xmlns:xlink="http://www.w3.org/1999/xlink"
   xmlns:sodipodi="http://sodipodi.sourceforge.net/DTD/sodipodi-0.dtd"
   xmlns:inkscape="http://www.inkscape.org/namespaces/inkscape"
   id="svg4373"
   version="1.1"
   inkscape:version="0.91 r13725"
   width="744.095"
   height="1052.3625"
   xml:space="preserve"
   sodipodi:docname="Mix02Labels.svg"><sodipodi:namedview
     pagecolor="#ffffff"
     bordercolor="#666666"
     borderopacity="1"
     objecttolerance="10"
     gridtolerance="10"
     guidetolerance="10"
     inkscape:pageopacity="0"
     inkscape:pageshadow="2"
     inkscape:window-width="1280"
     inkscape:window-height="657"
     id="namedview4375"
     showgrid="false"
     inkscape:zoom="2.6339388"
     inkscape:cx="163.02348"
     inkscape:cy="51.941882"
     inkscape:window-x="-8"
     inkscape:window-y="-8"
     inkscape:window-maximized="1"
     inkscape:current-layer="g4685"
     inkscape:document-units="mm"
     showguides="false"
     inkscape:guide-bbox="true" /><metadata
     id="metadata4379"><rdf:RDF><cc:Work
         rdf:about=""><dc:format>image/svg+xml</dc:format><dc:type
           rdf:resource="http://purl.org/dc/dcmitype/StillImage" /><dc:title /></cc:Work></rdf:RDF></metadata><defs
     id="defs4377"><clipPath
       id="clipPath4387"
       clipPathUnits="userSpaceOnUse"><path
         id="path4389"
         d="m 0,0 595.276,0 0,841.89 L 0,841.89 0,0 z" /></clipPath><clipPath
       id="clipPath4421"
       clipPathUnits="userSpaceOnUse"><path
         id="path4423"
         d="m 0,0 595.276,0 0,841.89 L 0,841.89 0,0 z" /></clipPath><clipPath
       id="clipPath4443"
       clipPathUnits="userSpaceOnUse"><path
         id="path4445"
         d="m 0,0 595.276,0 0,841.89 L 0,841.89 0,0 z" /></clipPath><clipPath
       id="clipPath7941"
       clipPathUnits="userSpaceOnUse"><path
         id="path7943"
         d="m 0,0 595.276,0 0,841.89 L 0,841.89 0,0 z"
         inkscape:connector-curvature="0" /></clipPath><clipPath
       id="clipPath7975"
       clipPathUnits="userSpaceOnUse"><path
         id="path7977"
         d="m 0,0 595.276,0 0,841.89 L 0,841.89 0,0 z"
         inkscape:connector-curvature="0" /></clipPath><clipPath
       id="clipPath7997"
       clipPathUnits="userSpaceOnUse"><path
         id="path7999"
         d="m 0,0 595.276,0 0,841.89 L 0,841.89 0,0 z"
         inkscape:connector-curvature="0" /></clipPath></defs><g
     transform="matrix(1.25,0,0,-1.25,0,1052.3625)"
     inkscape:label="Label Planet LP21 70 Portrait"
     inkscape:groupmode="layer"
     id="g4381"><g
       inkscape:tile-y0="912.55037"
       inkscape:tile-x0="22.281616"
       inkscape:tile-h="129.62935"
       inkscape:tile-w="203.15552"
       inkscape:tile-cy="977.36505"
       inkscape:tile-cx="123.85937"
       transform="matrix(1.0000045,0,0,1,0.22200192,-721.66836)"
       id="g4685"><g
         transform="matrix(0.68631727,0,0,-0.68631727,-31.837369,883.75758)"
         style="font-size:40px;font-style:normal;font-variant:normal;font-weight:normal;font-stretch:normal;text-align:start;line-height:125%;letter-spacing:0px;word-spacing:0px;writing-mode:lr-tb;text-anchor:start;fill:#000000;fill-opacity:1;stroke:none;font-family:More than human;-inkscape-font-specification:More than human"
         id="flowRoot2985"><path
           inkscape:connector-curvature="0"
           d="m 79.5375,81.455617 -2.55,0 0,9.21 2.55,-1.29 0,-7.92 m 1.2,-1.2 0,9.87 -4.95,2.49 0,-12.36 4.95,0 m -7.5,19.920003 -0.63,5.76 -0.57,-5.76 0,-23.670003 12.45,0 0,15.93 -2.97,1.5 2.97,1.56 0,4.680003 -0.63,5.76 -0.57,-5.76 0,-3.960003 -4.38,-2.31 4.38,-2.19 0,-14.01 -10.05,0 0,22.470003 m 3.75,0 -0.63,5.76 -0.57,-5.76 0,-4.890003 4.95,2.58 0,2.310003 -0.63,5.76 -0.57,-5.76 0,-1.590003 -2.52,-1.32 0,2.910003 -0.03,0"
           style="font-size:30px;line-height:125%;font-family:More than human;-inkscape-font-specification:More than human"
           id="path3134" /><path
           inkscape:connector-curvature="0"
           d="m 100.13203,102.57562 -0.629999,5.76 -0.57,-5.76 0,-6.120003 -7.5,0 0,-4.98 7.5,0 0,-2.52 -7.5,0 0,-8.73 4.95,0 0,3.75 2.55,0 0,-6.27 -10.05,0 0,23.070003 -0.63,5.76 -0.57,-5.76 0,-24.270003 12.449999,0 0,8.67 -4.949999,0 0,-3.75 -2.55,0 0,6.33 7.499999,0 0,4.92 -7.499999,0 0,2.58 7.499999,0 0,7.320003"
           style="font-size:30px;line-height:125%;font-family:More than human;-inkscape-font-specification:More than human"
           id="path3136" /><path
           inkscape:connector-curvature="0"
           d="m 110.70937,81.455617 -2.55,0 0,5.46 2.55,-1.29 0,-4.17 m 1.2,-1.2 0,6.12 -4.95,2.49 0,-8.61 4.95,0 m -1.2,14.55 -2.55,-1.29 0,1.71 2.55,0 0,-0.42 m 1.2,-0.75 0,2.37 -4.95,0 0,-4.86 4.95,2.49 m 3.75,5.82 -0.62999,5.760003 -0.57001,-5.760003 0,-7.41 -4.37999,-2.31 4.37999,-2.19 0,-10.26 -10.05,0 0,24.570003 -0.62999,5.76 -0.57001,-5.76 0,-25.770003 12.45,0 0,12.18 -2.97,1.5 2.97,1.56 0,8.13"
           style="font-size:30px;line-height:125%;font-family:More than human;-inkscape-font-specification:More than human"
           id="path3139" /><path
           inkscape:connector-curvature="0"
           d="m 131.30391,102.57562 -0.63,5.76 -0.57,-5.76 0,-6.120003 -7.5,0 0,-4.98 7.5,0 0,-2.52 -7.5,0 0,-8.73 4.95,0 0,3.75 2.55,0 0,-6.27 -10.05,0 0,23.070003 -0.63,5.76 -0.57,-5.76 0,-24.270003 12.45,0 0,8.67 -4.95,0 0,-3.75 -2.55,0 0,6.33 7.5,0 0,4.92 -7.5,0 0,2.58 7.5,0 0,7.320003"
           style="font-size:30px;line-height:125%;font-family:More than human;-inkscape-font-specification:More than human"
           id="path3141" /><path
           inkscape:connector-curvature="0"
           d="m 143.08125,99.575617 -0.63,5.760003 -0.57,-5.760003 0,-3.12 -3.75,0 0,-18.75 -2.55,0 0,24.570003 -0.63,5.76 -0.57,-5.76 0,-25.770003 4.95,0 0,18.75 3.75,0 0,4.32"
           style="font-size:30px;line-height:125%;font-family:More than human;-inkscape-font-specification:More than human"
           id="path3143" /><path
           inkscape:connector-curvature="0"
           d="m 169.38984,100.17562 -0.63,5.76 -0.57,-5.76 0,-19.950003 3.75,0 0,-2.52 -10.05,0 0,2.52 3.75,0 0,19.950003 -0.63,5.76 -0.57,-5.76 0,-18.750003 -3.75,0 0,-4.92 12.45,0 0,4.92 -3.75,0 0,18.750003"
           style="font-size:30px;line-height:125%;font-family:More than human;-inkscape-font-specification:More than human"
           id="path3145" /><path
           inkscape:connector-curvature="0"
           d="m 188.37422,102.57562 -0.63,5.76 -0.57,-5.76 0,-6.120003 -7.5,0 0,-4.98 7.5,0 0,-2.52 -7.5,0 0,-8.73 4.95,0 0,3.75 2.55,0 0,-6.27 -10.05,0 0,23.070003 -0.63,5.76 -0.57,-5.76 0,-24.270003 12.45,0 0,8.67 -4.95,0 0,-3.75 -2.55,0 0,6.33 7.5,0 0,4.92 -7.5,0 0,2.58 7.5,0 0,7.320003"
           style="font-size:30px;line-height:125%;font-family:More than human;-inkscape-font-specification:More than human"
           id="path3147" /><path
           inkscape:connector-curvature="0"
           d="m 203.90156,102.27562 -0.63,5.76 -0.57,-5.76 0,-9.570003 -2.55,0 0,3.75 -4.95,0 0,-16.23 4.95,0 0,3.75 2.55,0 0,-6.27 -10.05,0 0,22.17 -0.63,5.760003 -0.57,-5.760003 0,-23.37 12.45,0 0,8.67 -4.95,0 0,-3.75 -2.55,0 0,13.83 2.55,0 0,-3.75 4.95,0 0,10.770003"
           style="font-size:30px;line-height:125%;font-family:More than human;-inkscape-font-specification:More than human"
           id="path3149" /><path
           inkscape:connector-curvature="0"
           d="m 219.37031,100.77562 -0.63,5.76 -0.57,-5.76 0,-23.070003 -2.55,0 0,15 -4.95,0 0,-15 -2.55,0 0,22.17 -0.63,5.760003 -0.57,-5.760003 0,-23.37 4.95,0 0,15 2.55,0 0,-15 4.95,0 0,24.270003 m -3.75,-1.500003 -0.63,5.760003 -0.57,-5.760003 0,-2.85 -2.55,0 0,7.050003 -0.63,5.76 -0.57,-5.76 0,-8.250003 4.95,0 0,4.05"
           style="font-size:30px;line-height:125%;font-family:More than human;-inkscape-font-specification:More than human"
           id="path3151" /><path
           inkscape:connector-curvature="0"
           d="m 231.44484,100.17562 -0.63,5.76 -0.57,-5.76 -2.7,-7.890003 0,7.29 -0.63,5.760003 -0.57,-5.760003 -0.03,0 0.03,-14.43 5.1,15.030003 m 3.57,0.9 -0.63,5.76 -0.57,-5.76 0,-23.370003 -2.58,0 0,13.83 -4.77,-13.83 -2.7,0 0,25.770003 -0.63,5.76 -0.57,-5.76 0,-26.970003 4.77,0 2.7,7.89 0,-7.89 4.98,0 0,24.570003"
           style="font-size:30px;line-height:125%;font-family:More than human;-inkscape-font-specification:More than human"
           id="path3153" /><path
           inkscape:connector-curvature="0"
           d="m 245.70937,81.455617 -2.55,0 0,13.77 2.55,0 0,-13.77 m 1.2,-1.2 0,16.17 -4.95,0 0,-16.17 4.95,0 m 3.75,19.62 -0.63,5.760003 -0.57,-5.760003 0,-22.17 -10.05,0 0,25.470003 -0.63,5.76 -0.57,-5.76 0,-26.670003 12.45,0 0,23.37"
           style="font-size:30px;line-height:125%;font-family:More than human;-inkscape-font-specification:More than human"
           id="path3155" /><path
           inkscape:connector-curvature="0"
           d="m 262.55391,99.575617 -0.63,5.760003 -0.57,-5.760003 0,-3.12 -3.75,0 0,-18.75 -2.55,0 0,24.570003 -0.63,5.76 -0.57,-5.76 0,-25.770003 4.95,0 0,18.75 3.75,0 0,4.32"
           style="font-size:30px;line-height:125%;font-family:More than human;-inkscape-font-specification:More than human"
           id="path3157" /><path
           inkscape:connector-curvature="0"
           d="m 272.6625,81.455617 -2.55,0 0,13.77 2.55,0 0,-13.77 m 1.2,-1.2 0,16.17 -4.95,0 0,-16.17 4.95,0 m 3.75,19.62 -0.63,5.760003 -0.57,-5.760003 0,-22.17 -10.05,0 0,25.470003 -0.63,5.76 -0.57,-5.76 0,-26.670003 12.45,0 0,23.37"
           style="font-size:30px;line-height:125%;font-family:More than human;-inkscape-font-specification:More than human"
           id="path3159" /><path
           inkscape:connector-curvature="0"
           d="m 293.25703,101.97562 -0.63,5.76 -0.57,-5.76 0,-13.020003 -2.55,0 0,7.5 -4.95,0 0,-16.23 4.95,0 0,3.75 2.55,0 0,-6.27 -10.05,0 0,21.87 -0.63,5.760003 -0.57,-5.760003 0,-23.07 12.45,0 0,8.67 -4.95,0 0,-3.75 -2.55,0 0,13.83 2.55,0 0,-7.5 4.95,0 0,14.220003"
           style="font-size:30px;line-height:125%;font-family:More than human;-inkscape-font-specification:More than human"
           id="path3161" /><path
           inkscape:connector-curvature="0"
           d="m 308.84297,99.575617 -0.63,5.760003 -0.57,-5.760003 0,-21.87 -2.55,0 0,11.25 -4.95,0 0,-11.25 -2.55,0 0,13.77 7.5,0 0,4.98 -7.5,0 0,7.320003 -0.63,5.76 -0.57,-5.76 0,-8.520003 7.5,0 0,-2.58 -7.5,0 0,-16.17 4.95,0 0,11.25 2.55,0 0,-11.25 4.95,0 0,23.07"
           style="font-size:30px;line-height:125%;font-family:More than human;-inkscape-font-specification:More than human"
           id="path3163" /></g><g
         transform="matrix(0.68631727,0,0,-0.68631727,5.38946,925.0153)"
         style="font-size:12px;font-style:normal;font-variant:normal;font-weight:normal;font-stretch:normal;text-align:start;line-height:125%;letter-spacing:0px;word-spacing:0px;writing-mode:lr-tb;text-anchor:start;fill:#000000;fill-opacity:1;stroke:none;font-family:Sans;-inkscape-font-specification:Sans"
         id="flowRoot3001"><text
           xml:space="preserve"
           style="font-style:normal;font-variant:normal;font-weight:normal;font-stretch:normal;font-size:9.94596863px;line-height:125%;font-family:Sans;-inkscape-font-specification:Sans;text-align:start;letter-spacing:0px;word-spacing:0px;writing-mode:lr-tb;text-anchor:start;fill:#000000;fill-opacity:1;stroke:none"
           x="19.716322"
           y="269.83459"
           id="text6700"
           sodipodi:linespacing="125%"><tspan
             sodipodi:role="line"
             id="tspan6702"
             x="19.716322"
             y="269.83459">mix-02</tspan></text>
<text
           sodipodi:linespacing="125%"
           id="text3207"
           y="253.66774"
           x="19.716322"
           style="font-style:normal;font-variant:normal;font-weight:normal;font-stretch:normal;font-size:9.94596863px;line-height:125%;font-family:Sans;-inkscape-font-specification:Sans;text-align:start;letter-spacing:0px;word-spacing:0px;writing-mode:lr-tb;text-anchor:start;fill:#000000;fill-opacity:1;stroke:none"
           xml:space="preserve"><tspan
             y="253.66774"
             x="19.716322"
             id="tspan3209"
             sodipodi:role="line">Rebel Technology</tspan></text>
<g
           transform="translate(158.9845,241.98305)"
           style="fill:#000000"
           id="barcode"><rect
             id="barcode_bar1"
             height="30"
             width="1"
             y="0"
             x="0" /><rect
             id="barcode_bar3"
             height="30"
             width="1"
             y="0"
             x="2" /><rect
             id="barcode_bar5"
             height="26"
             width="2"
             y="0"
             x="6" /><rect
             id="barcode_bar7"
             height="26"
             width="1"
             y="0"
             x="9" /><rect
             id="barcode_bar9"
             height="26"
             width="1"
             y="0"
             x="14" /><rect
             id="barcode_bar11"
             height="26"
             width="1"
             y="0"
             x="16" /><rect
             id="barcode_bar13"
             height="26"
             width="1"
             y="0"
             x="18" /><rect
             id="barcode_bar15"
             height="26"
             width="3"
             y="0"
             x="21" /><rect
             id="barcode_bar17"
             height="26"
             width="2"
             y="0"
             x="25" /><rect
             id="barcode_bar19"
             height="26"
             width="1"
             y="0"
             x="30" /><rect
             id="barcode_bar21"
             height="26"
             width="1"
             y="0"
             x="33" /><rect
             id="barcode_bar23"
             height="26"
             width="2"
             y="0"
             x="36" /><rect
             id="barcode_bar25"
             height="26"
             width="1"
             y="0"
             x="39" /><rect
             id="barcode_bar27"
             height="26"
             width="3"
             y="0"
             x="42" /><rect
             id="barcode_bar29"
             height="30"
             width="1"
             y="0"
             x="46" /><rect
             id="barcode_bar31"
             height="30"
             width="1"
             y="0"
             x="48" /><rect
             id="barcode_bar33"
             height="26"
             width="1"
             y="0"
             x="50" /><rect
             id="barcode_bar35"
             height="26"
             width="1"
             y="0"
             x="55" /><rect
             id="barcode_bar37"
             height="26"
             width="2"
             y="0"
             x="57" /><rect
             id="barcode_bar39"
             height="26"
             width="2"
             y="0"
             x="61" /><rect
             id="barcode_bar41"
             height="26"
             width="3"
             y="0"
             x="64" /><rect
             id="barcode_bar43"
             height="26"
             width="1"
             y="0"
             x="69" /><rect
             id="barcode_bar45"
             height="26"
             width="2"
             y="0"
             x="71" /><rect
             id="barcode_bar47"
             height="26"
             width="2"
             y="0"
             x="75" /><rect
             id="barcode_bar49"
             height="26"
             width="2"
             y="0"
             x="78" /><rect
             id="barcode_bar51"
             height="26"
             width="2"
             y="0"
             x="82" /><rect
             id="barcode_bar53"
             height="26"
             width="1"
             y="0"
             x="85" /><rect
             id="barcode_bar55"
             height="26"
             width="3"
             y="0"
             x="87" /><rect
             id="barcode_bar57"
             height="30"
             width="1"
             y="0"
             x="92" /><rect
             id="barcode_bar59"
             height="30"
             width="1"
             y="0"
             x="94" /><text
             id="barcode_text"
             xml:space="preserve"
             style="font-size:9px;text-align:center;text-anchor:middle"
             y="35"
             x="47">5    060520     310114       </text>
</g></g><g
         id="g6969"
         transform="matrix(2.2494385,0,0,-2.2494486,-904.88665,1365.9152)"><g
           transform="matrix(1.0041782,0,0,1.0041752,-42.843186,-0.84217917)"
           id="g6741"><g
             id="g6791"><g
               id="g6964"><path
                 inkscape:connector-curvature="0"
                 id="path6966"
                 d="m 460.282,250.854 5.282,9.141 5.273,-9.141 0.905,0 -0.035,0.062 0,14.001 -0.791,0 0,-12.63 -5.353,9.264 -5.361,-9.264 0,12.63 -0.791,0 0,-14.001 -0.035,-0.062 0.906,0 z" /><path
                 inkscape:connector-curvature="0"
                 id="path6968"
                 d="m 475.346,250.854 0,14.062 -0.791,0 0,-14.062 0.791,0 z" /><path
                 inkscape:connector-curvature="0"
                 id="path6970"
                 d="m 477.28,264.917 4.456,-7.726 -3.656,-6.337 0.905,0 3.199,5.555 3.217,-5.555 0.905,0 -3.674,6.337 4.474,7.726 -0.905,0 -4.017,-6.943 -4.008,6.943 -0.896,0 z" /><path
                 inkscape:connector-curvature="0"
                 id="path6972"
                 d="m 504.086,260.337 c 0,1.33 -0.47,2.467 -1.41,3.41 -0.94,0.943 -2.079,1.415 -3.415,1.415 -1.33,0 -2.467,-0.472 -3.41,-1.415 -0.943,-0.943 -1.415,-2.08 -1.415,-3.41 l 0,-4.658 c 0,-1.33 0.472,-2.467 1.415,-3.41 0.943,-0.943 2.08,-1.415 3.41,-1.415 1.336,0 2.475,0.472 3.415,1.415 0.94,0.943 1.41,2.08 1.41,3.41 l 0,4.658 z m -0.835,-4.658 c 0,-1.102 -0.39,-2.041 -1.169,-2.817 -0.779,-0.776 -1.72,-1.165 -2.821,-1.165 -1.101,0 -2.042,0.388 -2.821,1.165 -0.779,0.777 -1.169,1.715 -1.169,2.817 l 0,4.658 c 0,1.102 0.39,2.041 1.169,2.817 0.779,0.776 1.72,1.165 2.821,1.165 1.101,0 2.042,-0.388 2.821,-1.165 0.779,-0.777 1.169,-1.715 1.169,-2.817 l 0,-4.658 z" /><path
                 inkscape:connector-curvature="0"
                 id="path6974"
                 d="m 507.985,261.106 c 0.97,-0.724 1.826,-1.365 2.57,-1.925 0.744,-0.56 1.436,-1.188 2.074,-1.885 0.638,-0.697 0.958,-1.509 0.958,-2.435 0,-0.932 -0.328,-1.726 -0.984,-2.382 -0.656,-0.656 -1.45,-0.984 -2.382,-0.984 -0.92,0 -1.711,0.328 -2.373,0.984 -0.562,0.562 -0.885,1.233 -0.967,2.013 l -0.8,-0.29 c 0.135,-0.879 0.527,-1.646 1.178,-2.303 0.82,-0.826 1.808,-1.239 2.962,-1.239 1.16,0 2.149,0.41 2.967,1.23 0.818,0.82 1.226,1.811 1.226,2.971 0,1.154 -0.401,2.162 -1.204,3.023 -0.545,0.592 -1.189,1.166 -1.934,1.723 -0.745,0.557 -1.582,1.184 -2.514,1.881 -0.932,0.697 -1.512,1.576 -1.74,2.637 l 7.392,0 0,0.791 -8.288,0 c 0.269,-1.816 0.889,-3.086 1.859,-3.81 z" /></g></g></g></g></g><use
       id="use8245"
       transform="translate(0,119.90715)"
       xlink:href="#g4685"
       inkscape:tiled-clone-of="#g4685"
       y="0"
       x="0" /><use
       id="use8247"
       transform="translate(0,239.8143)"
       xlink:href="#g4685"
       inkscape:tiled-clone-of="#g4685"
       y="0"
       x="0" /><use
       id="use8249"
       transform="translate(0,359.72145)"
       xlink:href="#g4685"
       inkscape:tiled-clone-of="#g4685"
       y="0"
       x="0" /><use
       id="use8251"
       transform="translate(0,479.6286)"
       xlink:href="#g4685"
       inkscape:tiled-clone-of="#g4685"
       y="0"
       x="0" /><use
       id="use8253"
       transform="translate(0,599.53575)"
       xlink:href="#g4685"
       inkscape:tiled-clone-of="#g4685"
       y="0"
       x="0" /><use
       id="use8255"
       transform="translate(0,719.44289)"
       xlink:href="#g4685"
       inkscape:tiled-clone-of="#g4685"
       y="0"
       x="0" /><use
       id="use8257"
       transform="translate(199.09241,0)"
       xlink:href="#g4685"
       inkscape:tiled-clone-of="#g4685"
       y="0"
       x="0" /><use
       id="use8259"
       transform="translate(199.09241,119.90715)"
       xlink:href="#g4685"
       inkscape:tiled-clone-of="#g4685"
       y="0"
       x="0" /><use
       id="use8261"
       transform="translate(199.09241,239.8143)"
       xlink:href="#g4685"
       inkscape:tiled-clone-of="#g4685"
       y="0"
       x="0" /><use
       id="use8263"
       transform="translate(199.09241,359.72145)"
       xlink:href="#g4685"
       inkscape:tiled-clone-of="#g4685"
       y="0"
       x="0" /><use
       id="use8265"
       transform="translate(199.09241,479.6286)"
       xlink:href="#g4685"
       inkscape:tiled-clone-of="#g4685"
       y="0"
       x="0" /><use
       id="use8267"
       transform="translate(199.09241,599.53575)"
       xlink:href="#g4685"
       inkscape:tiled-clone-of="#g4685"
       y="0"
       x="0" /><use
       id="use8269"
       transform="translate(199.09241,719.44289)"
       xlink:href="#g4685"
       inkscape:tiled-clone-of="#g4685"
       y="0"
       x="0" /><use
       id="use8271"
       transform="translate(398.18482,0)"
       xlink:href="#g4685"
       inkscape:tiled-clone-of="#g4685"
       y="0"
       x="0" /><use
       id="use8273"
       transform="translate(398.18482,119.90715)"
       xlink:href="#g4685"
       inkscape:tiled-clone-of="#g4685"
       y="0"
       x="0" /><use
       id="use8275"
       transform="translate(398.18482,239.8143)"
       xlink:href="#g4685"
       inkscape:tiled-clone-of="#g4685"
       y="0"
       x="0" /><use
       id="use8277"
       transform="translate(398.18482,359.72145)"
       xlink:href="#g4685"
       inkscape:tiled-clone-of="#g4685"
       y="0"
       x="0" /><use
       id="use8279"
       transform="translate(398.18482,479.6286)"
       xlink:href="#g4685"
       inkscape:tiled-clone-of="#g4685"
       y="0"
       x="0" /><use
       id="use8281"
       transform="translate(398.18482,599.53575)"
       xlink:href="#g4685"
       inkscape:tiled-clone-of="#g4685"
       y="0"
       x="0" /><use
       id="use8283"
       transform="translate(398.18482,719.44289)"
       xlink:href="#g4685"
       inkscape:tiled-clone-of="#g4685"
       y="0"
       x="0" /></g></svg>