<?xml version="1.0" encoding="UTF-8" standalone="no"?>
<svg
   xmlns:dc="http://purl.org/dc/elements/1.1/"
   xmlns:cc="http://creativecommons.org/ns#"
   xmlns:rdf="http://www.w3.org/1999/02/22-rdf-syntax-ns#"
   xmlns:svg="http://www.w3.org/2000/svg"
   xmlns="http://www.w3.org/2000/svg"
   xmlns:xlink="http://www.w3.org/1999/xlink"
   xmlns:sodipodi="http://sodipodi.sourceforge.net/DTD/sodipodi-0.dtd"
   xmlns:inkscape="http://www.inkscape.org/namespaces/inkscape"
   sodipodi:docname="TonicLabels.svg"
   xml:space="preserve"
   height="297mm"
   width="210mm"
   inkscape:version="1.0 (4035a4f, 2020-05-01)"
   version="1.1"
   id="svg4373"><sodipodi:namedview
     units="mm"
     inkscape:document-rotation="0"
     inkscape:guide-bbox="true"
     showguides="true"
     inkscape:document-units="mm"
     inkscape:current-layer="g4381"
     inkscape:window-maximized="1"
     inkscape:window-y="0"
     inkscape:window-x="0"
     inkscape:cy="543.70164"
     inkscape:cx="471.29535"
     inkscape:zoom="0.55468617"
     showgrid="false"
     id="namedview4375"
     inkscape:window-height="1016"
     inkscape:window-width="1920"
     inkscape:pageshadow="2"
     inkscape:pageopacity="0"
     guidetolerance="10"
     gridtolerance="10"
     objecttolerance="10"
     borderopacity="1"
     bordercolor="#666666"
     pagecolor="#ffffff" /><metadata
     id="metadata4379"><rdf:RDF><cc:Work
         rdf:about=""><dc:format>image/svg+xml</dc:format><dc:type
           rdf:resource="http://purl.org/dc/dcmitype/StillImage" /><dc:title></dc:title></cc:Work></rdf:RDF></metadata><defs
     id="defs4377"><clipPath
       id="clipPath4387"
       clipPathUnits="userSpaceOnUse"><path
         id="path4389"
         d="M 0,0 H 595.276 V 841.89 H 0 Z" /></clipPath><clipPath
       id="clipPath4421"
       clipPathUnits="userSpaceOnUse"><path
         id="path4423"
         d="M 0,0 H 595.276 V 841.89 H 0 Z" /></clipPath><clipPath
       id="clipPath4443"
       clipPathUnits="userSpaceOnUse"><path
         id="path4445"
         d="M 0,0 H 595.276 V 841.89 H 0 Z" /></clipPath><clipPath
       id="clipPath7941"
       clipPathUnits="userSpaceOnUse"><path
         id="path7943"
         d="M 0,0 H 595.276 V 841.89 H 0 Z"
         inkscape:connector-curvature="0" /></clipPath><clipPath
       id="clipPath7975"
       clipPathUnits="userSpaceOnUse"><path
         id="path7977"
         d="M 0,0 H 595.276 V 841.89 H 0 Z"
         inkscape:connector-curvature="0" /></clipPath><clipPath
       id="clipPath7997"
       clipPathUnits="userSpaceOnUse"><path
         id="path7999"
         d="M 0,0 H 595.276 V 841.89 H 0 Z"
         inkscape:connector-curvature="0" /></clipPath></defs><g
     transform="matrix(1.25,0,0,-1.25,0,1052.3625)"
     inkscape:label="Label Planet LP21 70 Portrait"
     inkscape:groupmode="layer"
     id="g4381"><g
       style="stroke-width:0.953537"
       inkscape:tile-y0="912.55037"
       inkscape:tile-x0="22.281616"
       inkscape:tile-h="129.62935"
       inkscape:tile-w="203.15552"
       inkscape:tile-cy="977.36505"
       inkscape:tile-cx="123.85937"
       transform="matrix(1.070792,0,0,1.027122,0.8810225,-795.54565)"
       id="g4685"><g
         style="stroke-width:0.953537"
         id="g1629"><g
           id="flowRoot2985"
           style="font-style:normal;font-variant:normal;font-weight:normal;font-stretch:normal;font-size:40px;line-height:125%;font-family:'More than human';-inkscape-font-specification:'More than human';text-align:start;letter-spacing:0px;word-spacing:0px;writing-mode:lr-tb;text-anchor:start;fill:#000000;fill-opacity:1;stroke:none;stroke-width:0.953537"
           transform="matrix(0.68631727,0,0,-0.68631727,-31.837369,883.75758)"><path
             id="path3134"
             style="font-size:30px;line-height:125%;font-family:'More than human';-inkscape-font-specification:'More than human';stroke-width:0.953537"
             d="m 79.5375,81.455617 h -2.55 v 9.21 l 2.55,-1.29 v -7.92 m 1.2,-1.2 v 9.87 l -4.95,2.49 v -12.36 h 4.95 m -7.5,19.920003 -0.63,5.76 -0.57,-5.76 V 76.505617 h 12.45 v 15.93 l -2.97,1.5 2.97,1.56 v 4.680003 l -0.63,5.76 -0.57,-5.76 v -3.960003 l -4.38,-2.31 4.38,-2.19 v -14.01 h -10.05 v 22.470003 m 3.75,0 -0.63,5.76 -0.57,-5.76 v -4.890003 l 4.95,2.58 v 2.310003 l -0.63,5.76 -0.57,-5.76 v -1.590003 l -2.52,-1.32 v 2.910003 h -0.03"
             inkscape:connector-curvature="0" /><path
             id="path3136"
             style="font-size:30px;line-height:125%;font-family:'More than human';-inkscape-font-specification:'More than human';stroke-width:0.953537"
             d="m 100.13203,102.57562 -0.629999,5.76 -0.57,-5.76 v -6.120003 h -7.5 v -4.98 h 7.5 v -2.52 h -7.5 v -8.73 h 4.95 v 3.75 h 2.55 v -6.27 h -10.05 v 23.070003 l -0.63,5.76 -0.57,-5.76 V 76.505617 h 12.449999 v 8.67 h -4.949999 v -3.75 h -2.55 v 6.33 h 7.499999 v 4.92 h -7.499999 v 2.58 h 7.499999 v 7.320003"
             inkscape:connector-curvature="0" /><path
             id="path3139"
             style="font-size:30px;line-height:125%;font-family:'More than human';-inkscape-font-specification:'More than human';stroke-width:0.953537"
             d="m 110.70937,81.455617 h -2.55 v 5.46 l 2.55,-1.29 v -4.17 m 1.2,-1.2 v 6.12 l -4.95,2.49 v -8.61 h 4.95 m -1.2,14.55 -2.55,-1.29 v 1.71 h 2.55 v -0.42 m 1.2,-0.75 v 2.37 h -4.95 v -4.86 l 4.95,2.49 m 3.75,5.82 -0.62999,5.760003 -0.57001,-5.760003 v -7.41 l -4.37999,-2.31 4.37999,-2.19 v -10.26 h -10.05 v 24.570003 l -0.62999,5.76 -0.57001,-5.76 V 76.505617 h 12.45 v 12.18 l -2.97,1.5 2.97,1.56 v 8.13"
             inkscape:connector-curvature="0" /><path
             id="path3141"
             style="font-size:30px;line-height:125%;font-family:'More than human';-inkscape-font-specification:'More than human';stroke-width:0.953537"
             d="m 131.30391,102.57562 -0.63,5.76 -0.57,-5.76 v -6.120003 h -7.5 v -4.98 h 7.5 v -2.52 h -7.5 v -8.73 h 4.95 v 3.75 h 2.55 v -6.27 h -10.05 v 23.070003 l -0.63,5.76 -0.57,-5.76 V 76.505617 h 12.45 v 8.67 h -4.95 v -3.75 h -2.55 v 6.33 h 7.5 v 4.92 h -7.5 v 2.58 h 7.5 v 7.320003"
             inkscape:connector-curvature="0" /><path
             id="path3143"
             style="font-size:30px;line-height:125%;font-family:'More than human';-inkscape-font-specification:'More than human';stroke-width:0.953537"
             d="m 143.08125,99.575617 -0.63,5.760003 -0.57,-5.760003 v -3.12 h -3.75 v -18.75 h -2.55 v 24.570003 l -0.63,5.76 -0.57,-5.76 V 76.505617 h 4.95 v 18.75 h 3.75 v 4.32"
             inkscape:connector-curvature="0" /><path
             id="path3145"
             style="font-size:30px;line-height:125%;font-family:'More than human';-inkscape-font-specification:'More than human';stroke-width:0.953537"
             d="m 169.38984,100.17562 -0.63,5.76 -0.57,-5.76 V 80.225617 h 3.75 v -2.52 h -10.05 v 2.52 h 3.75 v 19.950003 l -0.63,5.76 -0.57,-5.76 V 81.425617 h -3.75 v -4.92 h 12.45 v 4.92 h -3.75 v 18.750003"
             inkscape:connector-curvature="0" /><path
             id="path3147"
             style="font-size:30px;line-height:125%;font-family:'More than human';-inkscape-font-specification:'More than human';stroke-width:0.953537"
             d="m 188.37422,102.57562 -0.63,5.76 -0.57,-5.76 v -6.120003 h -7.5 v -4.98 h 7.5 v -2.52 h -7.5 v -8.73 h 4.95 v 3.75 h 2.55 v -6.27 h -10.05 v 23.070003 l -0.63,5.76 -0.57,-5.76 V 76.505617 h 12.45 v 8.67 h -4.95 v -3.75 h -2.55 v 6.33 h 7.5 v 4.92 h -7.5 v 2.58 h 7.5 v 7.320003"
             inkscape:connector-curvature="0" /><path
             id="path3149"
             style="font-size:30px;line-height:125%;font-family:'More than human';-inkscape-font-specification:'More than human';stroke-width:0.953537"
             d="m 203.90156,102.27562 -0.63,5.76 -0.57,-5.76 v -9.570003 h -2.55 v 3.75 h -4.95 v -16.23 h 4.95 v 3.75 h 2.55 v -6.27 h -10.05 v 22.17 l -0.63,5.760003 -0.57,-5.760003 v -23.37 h 12.45 v 8.67 h -4.95 v -3.75 h -2.55 v 13.83 h 2.55 v -3.75 h 4.95 v 10.770003"
             inkscape:connector-curvature="0" /><path
             id="path3151"
             style="font-size:30px;line-height:125%;font-family:'More than human';-inkscape-font-specification:'More than human';stroke-width:0.953537"
             d="m 219.37031,100.77562 -0.63,5.76 -0.57,-5.76 V 77.705617 h -2.55 v 15 h -4.95 v -15 h -2.55 v 22.17 l -0.63,5.760003 -0.57,-5.760003 v -23.37 h 4.95 v 15 h 2.55 v -15 h 4.95 v 24.270003 m -3.75,-1.500003 -0.63,5.760003 -0.57,-5.760003 v -2.85 h -2.55 v 7.050003 l -0.63,5.76 -0.57,-5.76 v -8.250003 h 4.95 v 4.05"
             inkscape:connector-curvature="0" /><path
             id="path3153"
             style="font-size:30px;line-height:125%;font-family:'More than human';-inkscape-font-specification:'More than human';stroke-width:0.953537"
             d="m 231.44484,100.17562 -0.63,5.76 -0.57,-5.76 -2.7,-7.890003 v 7.29 l -0.63,5.760003 -0.57,-5.760003 h -0.03 l 0.03,-14.43 5.1,15.030003 m 3.57,0.9 -0.63,5.76 -0.57,-5.76 V 77.705617 h -2.58 v 13.83 l -4.77,-13.83 h -2.7 v 25.770003 l -0.63,5.76 -0.57,-5.76 V 76.505617 h 4.77 l 2.7,7.89 v -7.89 h 4.98 v 24.570003"
             inkscape:connector-curvature="0" /><path
             id="path3155"
             style="font-size:30px;line-height:125%;font-family:'More than human';-inkscape-font-specification:'More than human';stroke-width:0.953537"
             d="m 245.70937,81.455617 h -2.55 v 13.77 h 2.55 v -13.77 m 1.2,-1.2 v 16.17 h -4.95 v -16.17 h 4.95 m 3.75,19.62 -0.63,5.760003 -0.57,-5.760003 v -22.17 h -10.05 v 25.470003 l -0.63,5.76 -0.57,-5.76 V 76.505617 h 12.45 v 23.37"
             inkscape:connector-curvature="0" /><path
             id="path3157"
             style="font-size:30px;line-height:125%;font-family:'More than human';-inkscape-font-specification:'More than human';stroke-width:0.953537"
             d="m 262.55391,99.575617 -0.63,5.760003 -0.57,-5.760003 v -3.12 h -3.75 v -18.75 h -2.55 v 24.570003 l -0.63,5.76 -0.57,-5.76 V 76.505617 h 4.95 v 18.75 h 3.75 v 4.32"
             inkscape:connector-curvature="0" /><path
             id="path3159"
             style="font-size:30px;line-height:125%;font-family:'More than human';-inkscape-font-specification:'More than human';stroke-width:0.953537"
             d="m 272.6625,81.455617 h -2.55 v 13.77 h 2.55 v -13.77 m 1.2,-1.2 v 16.17 h -4.95 v -16.17 h 4.95 m 3.75,19.62 -0.63,5.760003 -0.57,-5.760003 v -22.17 h -10.05 v 25.470003 l -0.63,5.76 -0.57,-5.76 V 76.505617 h 12.45 v 23.37"
             inkscape:connector-curvature="0" /><path
             id="path3161"
             style="font-size:30px;line-height:125%;font-family:'More than human';-inkscape-font-specification:'More than human';stroke-width:0.953537"
             d="m 293.25703,101.97562 -0.63,5.76 -0.57,-5.76 V 88.955617 h -2.55 v 7.5 h -4.95 v -16.23 h 4.95 v 3.75 h 2.55 v -6.27 h -10.05 v 21.87 l -0.63,5.760003 -0.57,-5.760003 v -23.07 h 12.45 v 8.67 h -4.95 v -3.75 h -2.55 v 13.83 h 2.55 v -7.5 h 4.95 v 14.220003"
             inkscape:connector-curvature="0" /><path
             id="path3163"
             style="font-size:30px;line-height:125%;font-family:'More than human';-inkscape-font-specification:'More than human';stroke-width:0.953537"
             d="m 308.84297,99.575617 -0.63,5.760003 -0.57,-5.760003 v -21.87 h -2.55 v 11.25 h -4.95 v -11.25 h -2.55 v 13.77 h 7.5 v 4.98 h -7.5 v 7.320003 l -0.63,5.76 -0.57,-5.76 v -8.520003 h 7.5 v -2.58 h -7.5 v -16.17 h 4.95 v 11.25 h 2.55 v -11.25 h 4.95 v 23.07"
             inkscape:connector-curvature="0" /></g><g
           transform="matrix(0.68631727,0,0,-0.68631727,5.3894602,925.0153)"
           style="font-style:normal;font-variant:normal;font-weight:normal;font-stretch:normal;font-size:12px;line-height:125%;font-family:Sans;-inkscape-font-specification:Sans;text-align:start;letter-spacing:0px;word-spacing:0px;writing-mode:lr-tb;text-anchor:start;fill:#000000;fill-opacity:1;stroke:none;stroke-width:0.953537"
           id="flowRoot3001-3"><text
   id="text6700-0"
   y="269.83456"
   x="19.715643"
   style="font-style:normal;font-weight:normal;font-size:9.94597px;line-height:125%;font-family:Sans;letter-spacing:0px;word-spacing:0px;fill:#000000;fill-opacity:1;stroke:none;stroke-width:0.953537"
   xml:space="preserve"><tspan
     style="stroke-width:0.953537"
     y="269.83456"
     x="19.715643"
     id="tspan6702-6"
     sodipodi:role="line">tonic</tspan></text>
<text
   xml:space="preserve"
   style="font-style:normal;font-weight:normal;font-size:9.94597px;line-height:125%;font-family:Sans;letter-spacing:0px;word-spacing:0px;fill:#000000;fill-opacity:1;stroke:none;stroke-width:0.953537"
   x="19.715643"
   y="253.66774"
   id="text4244"><tspan
     style="stroke-width:0.953537"
     id="tspan4248"
     sodipodi:role="line"
     x="19.715643"
     y="253.66774">Rebel Technology</tspan></text>
<g
   style="fill:#000000;stroke-width:0.953537"
   id="barcode0"
   transform="translate(30.551884,-742.01695)"><rect
   style="stroke-width:0.953537"
   id="barcode0_bar1"
   height="30"
   width="1"
   y="984"
   x="127" /><rect
   style="stroke-width:0.953537"
   id="barcode0_bar3"
   height="30"
   width="1"
   y="984"
   x="129" /><rect
   style="stroke-width:0.953537"
   id="barcode0_bar5"
   height="25"
   width="2"
   y="984"
   x="133" /><rect
   style="stroke-width:0.953537"
   id="barcode0_bar7"
   height="25"
   width="1"
   y="984"
   x="136" /><rect
   style="stroke-width:0.953537"
   id="barcode0_bar9"
   height="25"
   width="1"
   y="984"
   x="141" /><rect
   style="stroke-width:0.953537"
   id="barcode0_bar11"
   height="25"
   width="1"
   y="984"
   x="143" /><rect
   style="stroke-width:0.953537"
   id="barcode0_bar13"
   height="25"
   width="1"
   y="984"
   x="145" /><rect
   style="stroke-width:0.953537"
   id="barcode0_bar15"
   height="25"
   width="3"
   y="984"
   x="148" /><rect
   style="stroke-width:0.953537"
   id="barcode0_bar17"
   height="25"
   width="2"
   y="984"
   x="152" /><rect
   style="stroke-width:0.953537"
   id="barcode0_bar19"
   height="25"
   width="1"
   y="984"
   x="157" /><rect
   style="stroke-width:0.953537"
   id="barcode0_bar21"
   height="25"
   width="1"
   y="984"
   x="160" /><rect
   style="stroke-width:0.953537"
   id="barcode0_bar23"
   height="25"
   width="2"
   y="984"
   x="163" /><rect
   style="stroke-width:0.953537"
   id="barcode0_bar25"
   height="25"
   width="1"
   y="984"
   x="166" /><rect
   style="stroke-width:0.953537"
   id="barcode0_bar27"
   height="25"
   width="3"
   y="984"
   x="169" /><rect
   style="stroke-width:0.953537"
   id="barcode0_bar29"
   height="30"
   width="1"
   y="984"
   x="173" /><rect
   style="stroke-width:0.953537"
   id="barcode0_bar31"
   height="30"
   width="1"
   y="984"
   x="175" /><rect
   style="stroke-width:0.953537"
   id="barcode0_bar33"
   height="25"
   width="1"
   y="984"
   x="177" /><rect
   style="stroke-width:0.953537"
   id="barcode0_bar35"
   height="25"
   width="1"
   y="984"
   x="182" /><rect
   style="stroke-width:0.953537"
   id="barcode0_bar37"
   height="25"
   width="2"
   y="984"
   x="184" /><rect
   style="stroke-width:0.953537"
   id="barcode0_bar39"
   height="25"
   width="2"
   y="984"
   x="188" /><rect
   style="stroke-width:0.953537"
   id="barcode0_bar41"
   height="25"
   width="3"
   y="984"
   x="191" /><rect
   style="stroke-width:0.953537"
   id="barcode0_bar43"
   height="25"
   width="1"
   y="984"
   x="196" /><rect
   style="stroke-width:0.953537"
   id="barcode0_bar45"
   height="25"
   width="2"
   y="984"
   x="198" /><rect
   style="stroke-width:0.953537"
   id="barcode0_bar47"
   height="25"
   width="2"
   y="984"
   x="202" /><rect
   style="stroke-width:0.953537"
   id="barcode0_bar49"
   height="25"
   width="1"
   y="984"
   x="205" /><rect
   style="stroke-width:0.953537"
   id="barcode0_bar51"
   height="25"
   width="3"
   y="984"
   x="208" /><rect
   style="stroke-width:0.953537"
   id="barcode0_bar53"
   height="25"
   width="2"
   y="984"
   x="212" /><rect
   style="stroke-width:0.953537"
   id="barcode0_bar55"
   height="25"
   width="2"
   y="984"
   x="215" /><rect
   style="stroke-width:0.953537"
   id="barcode0_bar57"
   height="30"
   width="1"
   y="984"
   x="219" /><rect
   style="stroke-width:0.953537"
   id="barcode0_bar59"
   height="30"
   width="1"
   y="984"
   x="221" /><text
   id="barcode0_bottomtext"
   xml:space="preserve"
   style="font-size:9px;text-align:center;text-anchor:middle;stroke-width:0.953537"
   y="1019"
   x="174">5    060520    310152       </text>
</g></g><g
           style="stroke-width:0.953537"
           transform="matrix(0.92530341,0,0,-0.92530757,-190.33317,919.25301)"
           id="g3491"><path
             style="stroke-width:0.953537"
             inkscape:connector-curvature="0"
             id="path3493"
             d="m 277.68,136.191 v 21.056 h -1.255 v -21.056 h -5.646 v -1.254 h 12.547 v 1.254 z" /><path
             style="stroke-width:0.953537"
             inkscape:connector-curvature="0"
             id="path3495"
             d="m 304.292,137.969 c 2.232,2.236 3.352,4.935 3.352,8.094 0,3.162 -1.117,5.858 -3.352,8.093 -2.234,2.235 -4.936,3.354 -8.096,3.354 -3.157,0 -5.858,-1.118 -8.094,-3.354 -2.236,-2.234 -3.352,-4.932 -3.352,-8.093 0,-3.161 1.116,-5.856 3.352,-8.094 2.235,-2.235 4.937,-3.354 8.094,-3.354 3.16,0 5.862,1.12 8.096,3.354 z m -8.096,-2.07 c -2.808,0 -5.203,0.993 -7.188,2.979 -1.982,1.984 -2.976,4.38 -2.976,7.188 0,2.809 0.993,5.205 2.976,7.194 1.985,1.989 4.381,2.983 7.188,2.983 2.807,0 5.204,-0.995 7.188,-2.983 1.982,-1.99 2.977,-4.387 2.977,-7.194 0,-2.807 -0.99,-5.201 -2.977,-7.188 -1.985,-1.986 -4.38,-2.979 -7.188,-2.979 z" /><path
             style="stroke-width:0.953537"
             inkscape:connector-curvature="0"
             id="path3497"
             d="m 311.479,134.936 h 1.382 l 11.46,19.842 v -19.842 h 1.258 v 22.311 h -1.258 L 312.736,137.21 v 20.037 h -1.257 z" /><path
             style="stroke-width:0.953537"
             inkscape:connector-curvature="0"
             id="path3499"
             d="m 331.29,134.936 v 22.311 h -1.253 v -22.311 z" /><path
             style="stroke-width:0.953537"
             inkscape:connector-curvature="0"
             id="path3501"
             d="m 353.558,153.692 0.948,0.851 c -2.176,1.98 -4.733,2.971 -7.682,2.971 -3.158,0 -5.854,-1.114 -8.08,-3.339 -2.224,-2.226 -3.341,-4.919 -3.341,-8.08 0,-3.15 1.117,-5.843 3.341,-8.073 2.226,-2.229 4.922,-3.346 8.08,-3.346 2.946,0 5.509,0.991 7.682,2.969 l -0.948,0.865 c -1.911,-1.701 -4.158,-2.551 -6.735,-2.551 -2.798,0 -5.187,0.987 -7.167,2.97 -1.981,1.98 -2.972,4.369 -2.972,7.167 0,2.808 0.989,5.2 2.972,7.181 1.98,1.98 4.366,2.971 7.167,2.971 2.575,-0.006 4.823,-0.856 6.735,-2.556 z" /></g></g></g><use
       height="100%"
       width="100%"
       id="use8245"
       transform="translate(2.7923971e-8,127.9)"
       xlink:href="#g4685"
       inkscape:tiled-clone-of="#g4685"
       y="0"
       x="0" /><use
       height="100%"
       width="100%"
       id="use8247"
       transform="translate(2.7923971e-8,255.8)"
       xlink:href="#g4685"
       inkscape:tiled-clone-of="#g4685"
       y="0"
       x="0" /><use
       height="100%"
       width="100%"
       id="use8249"
       transform="translate(2.7923971e-8,383.7)"
       xlink:href="#g4685"
       inkscape:tiled-clone-of="#g4685"
       y="0"
       x="0" /><use
       height="100%"
       width="100%"
       id="use8251"
       transform="translate(2.7923971e-8,511.6008)"
       xlink:href="#g4685"
       inkscape:tiled-clone-of="#g4685"
       y="0"
       x="0" /><use
       height="100%"
       width="100%"
       id="use8253"
       transform="translate(2.7923971e-8,639.5008)"
       xlink:href="#g4685"
       inkscape:tiled-clone-of="#g4685"
       y="0"
       x="0" /><use
       height="100%"
       width="100%"
       id="use8255"
       transform="translate(2.7923971e-8,767.4008)"
       xlink:href="#g4685"
       inkscape:tiled-clone-of="#g4685"
       y="0"
       x="0" /><use
       height="100%"
       width="100%"
       id="use8257"
       transform="translate(212.364)"
       xlink:href="#g4685"
       inkscape:tiled-clone-of="#g4685"
       y="0"
       x="0" /><use
       height="100%"
       width="100%"
       id="use8259"
       transform="translate(212.364,127.9)"
       xlink:href="#g4685"
       inkscape:tiled-clone-of="#g4685"
       y="0"
       x="0" /><use
       height="100%"
       width="100%"
       id="use8261"
       transform="translate(212.364,255.8)"
       xlink:href="#g4685"
       inkscape:tiled-clone-of="#g4685"
       y="0"
       x="0" /><use
       height="100%"
       width="100%"
       id="use8263"
       transform="translate(212.364,383.7)"
       xlink:href="#g4685"
       inkscape:tiled-clone-of="#g4685"
       y="0"
       x="0" /><use
       height="100%"
       width="100%"
       id="use8265"
       transform="translate(212.364,511.6008)"
       xlink:href="#g4685"
       inkscape:tiled-clone-of="#g4685"
       y="0"
       x="0" /><use
       height="100%"
       width="100%"
       id="use8267"
       transform="translate(212.364,639.5008)"
       xlink:href="#g4685"
       inkscape:tiled-clone-of="#g4685"
       y="0"
       x="0" /><use
       height="100%"
       width="100%"
       id="use8269"
       transform="translate(212.364,767.4008)"
       xlink:href="#g4685"
       inkscape:tiled-clone-of="#g4685"
       y="0"
       x="0" /><use
       height="100%"
       width="100%"
       id="use8271"
       transform="translate(424.728)"
       xlink:href="#g4685"
       inkscape:tiled-clone-of="#g4685"
       y="0"
       x="0" /><use
       height="100%"
       width="100%"
       id="use8273"
       transform="translate(424.728,127.9)"
       xlink:href="#g4685"
       inkscape:tiled-clone-of="#g4685"
       y="0"
       x="0" /><use
       height="100%"
       width="100%"
       id="use8275"
       transform="translate(424.728,255.8)"
       xlink:href="#g4685"
       inkscape:tiled-clone-of="#g4685"
       y="0"
       x="0" /><use
       height="100%"
       width="100%"
       id="use8277"
       transform="translate(424.728,383.7)"
       xlink:href="#g4685"
       inkscape:tiled-clone-of="#g4685"
       y="0"
       x="0" /><use
       height="100%"
       width="100%"
       id="use8279"
       transform="translate(424.728,511.6008)"
       xlink:href="#g4685"
       inkscape:tiled-clone-of="#g4685"
       y="0"
       x="0" /><use
       height="100%"
       width="100%"
       id="use8281"
       transform="translate(424.728,639.5008)"
       xlink:href="#g4685"
       inkscape:tiled-clone-of="#g4685"
       y="0"
       x="0" /><use
       height="100%"
       width="100%"
       id="use8283"
       transform="translate(424.728,767.4008)"
       xlink:href="#g4685"
       inkscape:tiled-clone-of="#g4685"
       y="0"
       x="0" /></g></svg>
