<?xml version="1.0" encoding="UTF-8" standalone="no"?>
<!-- Created with Inkscape (http://www.inkscape.org/) -->

<svg
   xmlns:dc="http://purl.org/dc/elements/1.1/"
   xmlns:cc="http://creativecommons.org/ns#"
   xmlns:rdf="http://www.w3.org/1999/02/22-rdf-syntax-ns#"
   xmlns:svg="http://www.w3.org/2000/svg"
   xmlns="http://www.w3.org/2000/svg"
   xmlns:xlink="http://www.w3.org/1999/xlink"
   xmlns:sodipodi="http://sodipodi.sourceforge.net/DTD/sodipodi-0.dtd"
   xmlns:inkscape="http://www.inkscape.org/namespaces/inkscape"
   id="svg4373"
   version="1.1"
   inkscape:version="0.48.4 r9939"
   width="744.095"
   height="1052.3625"
   xml:space="preserve"
   sodipodi:docname="TonicLabels.svg"><sodipodi:namedview
     pagecolor="#ffffff"
     bordercolor="#666666"
     borderopacity="1"
     objecttolerance="10"
     gridtolerance="10"
     guidetolerance="10"
     inkscape:pageopacity="0"
     inkscape:pageshadow="2"
     inkscape:window-width="1680"
     inkscape:window-height="1000"
     id="namedview4375"
     showgrid="false"
     inkscape:zoom="0.7844447"
     inkscape:cx="375.83693"
     inkscape:cy="526.36643"
     inkscape:window-x="0"
     inkscape:window-y="0"
     inkscape:window-maximized="1"
     inkscape:current-layer="g4685"
     inkscape:document-units="mm"
     showguides="false"
     inkscape:guide-bbox="true" /><metadata
     id="metadata4379"><rdf:RDF><cc:Work
         rdf:about=""><dc:format>image/svg+xml</dc:format><dc:type
           rdf:resource="http://purl.org/dc/dcmitype/StillImage" /><dc:title /></cc:Work></rdf:RDF></metadata><defs
     id="defs4377"><clipPath
       clipPathUnits="userSpaceOnUse"
       id="clipPath4387"><path
         d="m 0,0 595.276,0 0,841.89 L 0,841.89 0,0 z"
         id="path4389" /></clipPath><clipPath
       clipPathUnits="userSpaceOnUse"
       id="clipPath4421"><path
         d="m 0,0 595.276,0 0,841.89 L 0,841.89 0,0 z"
         id="path4423" /></clipPath><clipPath
       clipPathUnits="userSpaceOnUse"
       id="clipPath4443"><path
         d="m 0,0 595.276,0 0,841.89 L 0,841.89 0,0 z"
         id="path4445" /></clipPath><clipPath
       clipPathUnits="userSpaceOnUse"
       id="clipPath7941"><path
         inkscape:connector-curvature="0"
         d="m 0,0 595.276,0 0,841.89 L 0,841.89 0,0 z"
         id="path7943" /></clipPath><clipPath
       clipPathUnits="userSpaceOnUse"
       id="clipPath7975"><path
         inkscape:connector-curvature="0"
         d="m 0,0 595.276,0 0,841.89 L 0,841.89 0,0 z"
         id="path7977" /></clipPath><clipPath
       clipPathUnits="userSpaceOnUse"
       id="clipPath7997"><path
         inkscape:connector-curvature="0"
         d="m 0,0 595.276,0 0,841.89 L 0,841.89 0,0 z"
         id="path7999" /></clipPath></defs><g
     id="g4381"
     inkscape:groupmode="layer"
     inkscape:label="Label Planet LP21 70 Portrait"
     transform="matrix(1.25,0,0,-1.25,0,1052.3625)"><g
       id="g4685"
       transform="matrix(1.0000045,0,0,1,0.22200192,-721.66836)"
       inkscape:tile-cx="123.85937"
       inkscape:tile-cy="977.36505"
       inkscape:tile-w="203.15552"
       inkscape:tile-h="129.62935"
       inkscape:tile-x0="22.281616"
       inkscape:tile-y0="912.55037"><g
         id="flowRoot2985"
         style="font-size:40px;font-style:normal;font-variant:normal;font-weight:normal;font-stretch:normal;text-align:start;line-height:125%;letter-spacing:0px;word-spacing:0px;writing-mode:lr-tb;text-anchor:start;fill:#000000;fill-opacity:1;stroke:none;font-family:More than human;-inkscape-font-specification:More than human"
         transform="matrix(0.68631727,0,0,-0.68631727,-31.837369,883.75758)"><path
           id="path3134"
           style="font-size:30px;line-height:125%;font-family:More than human;-inkscape-font-specification:More than human"
           d="m 79.5375,81.455617 -2.55,0 0,9.21 2.55,-1.29 0,-7.92 m 1.2,-1.2 0,9.87 -4.95,2.49 0,-12.36 4.95,0 m -7.5,19.920003 -0.63,5.76 -0.57,-5.76 0,-23.670003 12.45,0 0,15.93 -2.97,1.5 2.97,1.56 0,4.680003 -0.63,5.76 -0.57,-5.76 0,-3.960003 -4.38,-2.31 4.38,-2.19 0,-14.01 -10.05,0 0,22.470003 m 3.75,0 -0.63,5.76 -0.57,-5.76 0,-4.890003 4.95,2.58 0,2.310003 -0.63,5.76 -0.57,-5.76 0,-1.590003 -2.52,-1.32 0,2.910003 -0.03,0"
           inkscape:connector-curvature="0" /><path
           id="path3136"
           style="font-size:30px;line-height:125%;font-family:More than human;-inkscape-font-specification:More than human"
           d="m 100.13203,102.57562 -0.629999,5.76 -0.57,-5.76 0,-6.120003 -7.5,0 0,-4.98 7.5,0 0,-2.52 -7.5,0 0,-8.73 4.95,0 0,3.75 2.55,0 0,-6.27 -10.05,0 0,23.070003 -0.63,5.76 -0.57,-5.76 0,-24.270003 12.449999,0 0,8.67 -4.949999,0 0,-3.75 -2.55,0 0,6.33 7.499999,0 0,4.92 -7.499999,0 0,2.58 7.499999,0 0,7.320003"
           inkscape:connector-curvature="0" /><path
           id="path3139"
           style="font-size:30px;line-height:125%;font-family:More than human;-inkscape-font-specification:More than human"
           d="m 110.70937,81.455617 -2.55,0 0,5.46 2.55,-1.29 0,-4.17 m 1.2,-1.2 0,6.12 -4.95,2.49 0,-8.61 4.95,0 m -1.2,14.55 -2.55,-1.29 0,1.71 2.55,0 0,-0.42 m 1.2,-0.75 0,2.37 -4.95,0 0,-4.86 4.95,2.49 m 3.75,5.82 -0.62999,5.760003 -0.57001,-5.760003 0,-7.41 -4.37999,-2.31 4.37999,-2.19 0,-10.26 -10.05,0 0,24.570003 -0.62999,5.76 -0.57001,-5.76 0,-25.770003 12.45,0 0,12.18 -2.97,1.5 2.97,1.56 0,8.13"
           inkscape:connector-curvature="0" /><path
           id="path3141"
           style="font-size:30px;line-height:125%;font-family:More than human;-inkscape-font-specification:More than human"
           d="m 131.30391,102.57562 -0.63,5.76 -0.57,-5.76 0,-6.120003 -7.5,0 0,-4.98 7.5,0 0,-2.52 -7.5,0 0,-8.73 4.95,0 0,3.75 2.55,0 0,-6.27 -10.05,0 0,23.070003 -0.63,5.76 -0.57,-5.76 0,-24.270003 12.45,0 0,8.67 -4.95,0 0,-3.75 -2.55,0 0,6.33 7.5,0 0,4.92 -7.5,0 0,2.58 7.5,0 0,7.320003"
           inkscape:connector-curvature="0" /><path
           id="path3143"
           style="font-size:30px;line-height:125%;font-family:More than human;-inkscape-font-specification:More than human"
           d="m 143.08125,99.575617 -0.63,5.760003 -0.57,-5.760003 0,-3.12 -3.75,0 0,-18.75 -2.55,0 0,24.570003 -0.63,5.76 -0.57,-5.76 0,-25.770003 4.95,0 0,18.75 3.75,0 0,4.32"
           inkscape:connector-curvature="0" /><path
           id="path3145"
           style="font-size:30px;line-height:125%;font-family:More than human;-inkscape-font-specification:More than human"
           d="m 169.38984,100.17562 -0.63,5.76 -0.57,-5.76 0,-19.950003 3.75,0 0,-2.52 -10.05,0 0,2.52 3.75,0 0,19.950003 -0.63,5.76 -0.57,-5.76 0,-18.750003 -3.75,0 0,-4.92 12.45,0 0,4.92 -3.75,0 0,18.750003"
           inkscape:connector-curvature="0" /><path
           id="path3147"
           style="font-size:30px;line-height:125%;font-family:More than human;-inkscape-font-specification:More than human"
           d="m 188.37422,102.57562 -0.63,5.76 -0.57,-5.76 0,-6.120003 -7.5,0 0,-4.98 7.5,0 0,-2.52 -7.5,0 0,-8.73 4.95,0 0,3.75 2.55,0 0,-6.27 -10.05,0 0,23.070003 -0.63,5.76 -0.57,-5.76 0,-24.270003 12.45,0 0,8.67 -4.95,0 0,-3.75 -2.55,0 0,6.33 7.5,0 0,4.92 -7.5,0 0,2.58 7.5,0 0,7.320003"
           inkscape:connector-curvature="0" /><path
           id="path3149"
           style="font-size:30px;line-height:125%;font-family:More than human;-inkscape-font-specification:More than human"
           d="m 203.90156,102.27562 -0.63,5.76 -0.57,-5.76 0,-9.570003 -2.55,0 0,3.75 -4.95,0 0,-16.23 4.95,0 0,3.75 2.55,0 0,-6.27 -10.05,0 0,22.17 -0.63,5.760003 -0.57,-5.760003 0,-23.37 12.45,0 0,8.67 -4.95,0 0,-3.75 -2.55,0 0,13.83 2.55,0 0,-3.75 4.95,0 0,10.770003"
           inkscape:connector-curvature="0" /><path
           id="path3151"
           style="font-size:30px;line-height:125%;font-family:More than human;-inkscape-font-specification:More than human"
           d="m 219.37031,100.77562 -0.63,5.76 -0.57,-5.76 0,-23.070003 -2.55,0 0,15 -4.95,0 0,-15 -2.55,0 0,22.17 -0.63,5.760003 -0.57,-5.760003 0,-23.37 4.95,0 0,15 2.55,0 0,-15 4.95,0 0,24.270003 m -3.75,-1.500003 -0.63,5.760003 -0.57,-5.760003 0,-2.85 -2.55,0 0,7.050003 -0.63,5.76 -0.57,-5.76 0,-8.250003 4.95,0 0,4.05"
           inkscape:connector-curvature="0" /><path
           id="path3153"
           style="font-size:30px;line-height:125%;font-family:More than human;-inkscape-font-specification:More than human"
           d="m 231.44484,100.17562 -0.63,5.76 -0.57,-5.76 -2.7,-7.890003 0,7.29 -0.63,5.760003 -0.57,-5.760003 -0.03,0 0.03,-14.43 5.1,15.030003 m 3.57,0.9 -0.63,5.76 -0.57,-5.76 0,-23.370003 -2.58,0 0,13.83 -4.77,-13.83 -2.7,0 0,25.770003 -0.63,5.76 -0.57,-5.76 0,-26.970003 4.77,0 2.7,7.89 0,-7.89 4.98,0 0,24.570003"
           inkscape:connector-curvature="0" /><path
           id="path3155"
           style="font-size:30px;line-height:125%;font-family:More than human;-inkscape-font-specification:More than human"
           d="m 245.70937,81.455617 -2.55,0 0,13.77 2.55,0 0,-13.77 m 1.2,-1.2 0,16.17 -4.95,0 0,-16.17 4.95,0 m 3.75,19.62 -0.63,5.760003 -0.57,-5.760003 0,-22.17 -10.05,0 0,25.470003 -0.63,5.76 -0.57,-5.76 0,-26.670003 12.45,0 0,23.37"
           inkscape:connector-curvature="0" /><path
           id="path3157"
           style="font-size:30px;line-height:125%;font-family:More than human;-inkscape-font-specification:More than human"
           d="m 262.55391,99.575617 -0.63,5.760003 -0.57,-5.760003 0,-3.12 -3.75,0 0,-18.75 -2.55,0 0,24.570003 -0.63,5.76 -0.57,-5.76 0,-25.770003 4.95,0 0,18.75 3.75,0 0,4.32"
           inkscape:connector-curvature="0" /><path
           id="path3159"
           style="font-size:30px;line-height:125%;font-family:More than human;-inkscape-font-specification:More than human"
           d="m 272.6625,81.455617 -2.55,0 0,13.77 2.55,0 0,-13.77 m 1.2,-1.2 0,16.17 -4.95,0 0,-16.17 4.95,0 m 3.75,19.62 -0.63,5.760003 -0.57,-5.760003 0,-22.17 -10.05,0 0,25.470003 -0.63,5.76 -0.57,-5.76 0,-26.670003 12.45,0 0,23.37"
           inkscape:connector-curvature="0" /><path
           id="path3161"
           style="font-size:30px;line-height:125%;font-family:More than human;-inkscape-font-specification:More than human"
           d="m 293.25703,101.97562 -0.63,5.76 -0.57,-5.76 0,-13.020003 -2.55,0 0,7.5 -4.95,0 0,-16.23 4.95,0 0,3.75 2.55,0 0,-6.27 -10.05,0 0,21.87 -0.63,5.760003 -0.57,-5.760003 0,-23.07 12.45,0 0,8.67 -4.95,0 0,-3.75 -2.55,0 0,13.83 2.55,0 0,-7.5 4.95,0 0,14.220003"
           inkscape:connector-curvature="0" /><path
           id="path3163"
           style="font-size:30px;line-height:125%;font-family:More than human;-inkscape-font-specification:More than human"
           d="m 308.84297,99.575617 -0.63,5.760003 -0.57,-5.760003 0,-21.87 -2.55,0 0,11.25 -4.95,0 0,-11.25 -2.55,0 0,13.77 7.5,0 0,4.98 -7.5,0 0,7.320003 -0.63,5.76 -0.57,-5.76 0,-8.520003 7.5,0 0,-2.58 -7.5,0 0,-16.17 4.95,0 0,11.25 2.55,0 0,-11.25 4.95,0 0,23.07"
           inkscape:connector-curvature="0" /></g><g
         transform="matrix(0.68631727,0,0,-0.68631727,5.3894602,925.0153)"
         style="font-size:12px;font-style:normal;font-variant:normal;font-weight:normal;font-stretch:normal;text-align:start;line-height:125%;letter-spacing:0px;word-spacing:0px;writing-mode:lr-tb;text-anchor:start;fill:#000000;fill-opacity:1;stroke:none;font-family:Sans;-inkscape-font-specification:Sans"
         id="flowRoot3001-3"><text
           sodipodi:linespacing="125%"
           id="text6700-0"
           y="269.83456"
           x="19.715643"
           style="font-size:9.94596863px;font-style:normal;font-weight:normal;line-height:125%;letter-spacing:0px;word-spacing:0px;fill:#000000;fill-opacity:1;stroke:none;font-family:Sans"
           xml:space="preserve"><tspan
             y="269.83456"
             x="19.715643"
             id="tspan6702-6"
             sodipodi:role="line">tonic</tspan></text>
<text
           xml:space="preserve"
           style="font-size:9.94596863px;font-style:normal;font-weight:normal;line-height:125%;letter-spacing:0px;word-spacing:0px;fill:#000000;fill-opacity:1;stroke:none;font-family:Sans"
           x="19.715643"
           y="253.66774"
           id="text4244"
           sodipodi:linespacing="125%"><tspan
             id="tspan4248"
             sodipodi:role="line"
             x="19.715643"
             y="253.66774">Rebel Technology</tspan></text>
<g
           style="fill:#000000"
           id="barcode0"
           transform="translate(30.551884,-742.01695)"><rect
             id="barcode0_bar1"
             height="30"
             width="1"
             y="984"
             x="127" /><rect
             id="barcode0_bar3"
             height="30"
             width="1"
             y="984"
             x="129" /><rect
             id="barcode0_bar5"
             height="25"
             width="2"
             y="984"
             x="133" /><rect
             id="barcode0_bar7"
             height="25"
             width="1"
             y="984"
             x="136" /><rect
             id="barcode0_bar9"
             height="25"
             width="1"
             y="984"
             x="141" /><rect
             id="barcode0_bar11"
             height="25"
             width="1"
             y="984"
             x="143" /><rect
             id="barcode0_bar13"
             height="25"
             width="1"
             y="984"
             x="145" /><rect
             id="barcode0_bar15"
             height="25"
             width="3"
             y="984"
             x="148" /><rect
             id="barcode0_bar17"
             height="25"
             width="2"
             y="984"
             x="152" /><rect
             id="barcode0_bar19"
             height="25"
             width="1"
             y="984"
             x="157" /><rect
             id="barcode0_bar21"
             height="25"
             width="1"
             y="984"
             x="160" /><rect
             id="barcode0_bar23"
             height="25"
             width="2"
             y="984"
             x="163" /><rect
             id="barcode0_bar25"
             height="25"
             width="1"
             y="984"
             x="166" /><rect
             id="barcode0_bar27"
             height="25"
             width="3"
             y="984"
             x="169" /><rect
             id="barcode0_bar29"
             height="30"
             width="1"
             y="984"
             x="173" /><rect
             id="barcode0_bar31"
             height="30"
             width="1"
             y="984"
             x="175" /><rect
             id="barcode0_bar33"
             height="25"
             width="1"
             y="984"
             x="177" /><rect
             id="barcode0_bar35"
             height="25"
             width="1"
             y="984"
             x="182" /><rect
             id="barcode0_bar37"
             height="25"
             width="2"
             y="984"
             x="184" /><rect
             id="barcode0_bar39"
             height="25"
             width="2"
             y="984"
             x="188" /><rect
             id="barcode0_bar41"
             height="25"
             width="3"
             y="984"
             x="191" /><rect
             id="barcode0_bar43"
             height="25"
             width="1"
             y="984"
             x="196" /><rect
             id="barcode0_bar45"
             height="25"
             width="2"
             y="984"
             x="198" /><rect
             id="barcode0_bar47"
             height="25"
             width="2"
             y="984"
             x="202" /><rect
             id="barcode0_bar49"
             height="25"
             width="1"
             y="984"
             x="205" /><rect
             id="barcode0_bar51"
             height="25"
             width="3"
             y="984"
             x="208" /><rect
             id="barcode0_bar53"
             height="25"
             width="2"
             y="984"
             x="212" /><rect
             id="barcode0_bar55"
             height="25"
             width="2"
             y="984"
             x="215" /><rect
             id="barcode0_bar57"
             height="30"
             width="1"
             y="984"
             x="219" /><rect
             id="barcode0_bar59"
             height="30"
             width="1"
             y="984"
             x="221" /><text
             id="barcode0_bottomtext"
             xml:space="preserve"
             style="font-size:9px;text-align:center;text-anchor:middle"
             y="1019"
             x="174">5    060520    310152       </text>
</g></g><g
         transform="matrix(0.92530341,0,0,-0.92530757,-190.33317,919.25301)"
         id="g3491"><path
           inkscape:connector-curvature="0"
           id="path3493"
           d="m 277.68,136.191 v 21.056 h -1.255 v -21.056 h -5.646 v -1.254 h 12.547 v 1.254 h -5.646 l 0,0 z" /><path
           inkscape:connector-curvature="0"
           id="path3495"
           d="m 304.292,137.969 c 2.232,2.236 3.352,4.935 3.352,8.094 0,3.162 -1.117,5.858 -3.352,8.093 -2.234,2.235 -4.936,3.354 -8.096,3.354 -3.157,0 -5.858,-1.118 -8.094,-3.354 -2.236,-2.234 -3.352,-4.932 -3.352,-8.093 0,-3.161 1.116,-5.856 3.352,-8.094 2.235,-2.235 4.937,-3.354 8.094,-3.354 3.16,0 5.862,1.12 8.096,3.354 z m -8.096,-2.07 c -2.808,0 -5.203,0.993 -7.188,2.979 -1.982,1.984 -2.976,4.38 -2.976,7.188 0,2.809 0.993,5.205 2.976,7.194 1.985,1.989 4.381,2.983 7.188,2.983 2.807,0 5.204,-0.995 7.188,-2.983 1.982,-1.99 2.977,-4.387 2.977,-7.194 0,-2.807 -0.99,-5.201 -2.977,-7.188 -1.985,-1.986 -4.38,-2.979 -7.188,-2.979 z" /><path
           inkscape:connector-curvature="0"
           id="path3497"
           d="m 311.479,134.936 h 1.382 l 11.46,19.842 v -19.842 h 1.258 v 22.311 h -1.258 L 312.736,137.21 v 20.037 h -1.257 v -22.311 l 0,0 z" /><path
           inkscape:connector-curvature="0"
           id="path3499"
           d="m 331.29,134.936 v 22.311 h -1.253 v -22.311 h 1.253 z" /><path
           inkscape:connector-curvature="0"
           id="path3501"
           d="m 353.558,153.692 0.948,0.851 c -2.176,1.98 -4.733,2.971 -7.682,2.971 -3.158,0 -5.854,-1.114 -8.08,-3.339 -2.224,-2.226 -3.341,-4.919 -3.341,-8.08 0,-3.15 1.117,-5.843 3.341,-8.073 2.226,-2.229 4.922,-3.346 8.08,-3.346 2.946,0 5.509,0.991 7.682,2.969 l -0.948,0.865 c -1.911,-1.701 -4.158,-2.551 -6.735,-2.551 -2.798,0 -5.187,0.987 -7.167,2.97 -1.981,1.98 -2.972,4.369 -2.972,7.167 0,2.808 0.989,5.2 2.972,7.181 1.98,1.98 4.366,2.971 7.167,2.971 2.575,-0.006 4.823,-0.856 6.735,-2.556 z" /></g></g><use
       x="0"
       y="0"
       inkscape:tiled-clone-of="#g4685"
       xlink:href="#g4685"
       transform="translate(0,119.90715)"
       id="use8245" /><use
       x="0"
       y="0"
       inkscape:tiled-clone-of="#g4685"
       xlink:href="#g4685"
       transform="translate(0,239.8143)"
       id="use8247" /><use
       x="0"
       y="0"
       inkscape:tiled-clone-of="#g4685"
       xlink:href="#g4685"
       transform="translate(0,359.72145)"
       id="use8249" /><use
       x="0"
       y="0"
       inkscape:tiled-clone-of="#g4685"
       xlink:href="#g4685"
       transform="translate(0,479.6286)"
       id="use8251" /><use
       x="0"
       y="0"
       inkscape:tiled-clone-of="#g4685"
       xlink:href="#g4685"
       transform="translate(0,599.53575)"
       id="use8253" /><use
       x="0"
       y="0"
       inkscape:tiled-clone-of="#g4685"
       xlink:href="#g4685"
       transform="translate(0,719.44289)"
       id="use8255" /><use
       x="0"
       y="0"
       inkscape:tiled-clone-of="#g4685"
       xlink:href="#g4685"
       transform="translate(199.09241,0)"
       id="use8257" /><use
       x="0"
       y="0"
       inkscape:tiled-clone-of="#g4685"
       xlink:href="#g4685"
       transform="translate(199.09241,119.90715)"
       id="use8259" /><use
       x="0"
       y="0"
       inkscape:tiled-clone-of="#g4685"
       xlink:href="#g4685"
       transform="translate(199.09241,239.8143)"
       id="use8261" /><use
       x="0"
       y="0"
       inkscape:tiled-clone-of="#g4685"
       xlink:href="#g4685"
       transform="translate(199.09241,359.72145)"
       id="use8263" /><use
       x="0"
       y="0"
       inkscape:tiled-clone-of="#g4685"
       xlink:href="#g4685"
       transform="translate(199.09241,479.6286)"
       id="use8265" /><use
       x="0"
       y="0"
       inkscape:tiled-clone-of="#g4685"
       xlink:href="#g4685"
       transform="translate(199.09241,599.53575)"
       id="use8267" /><use
       x="0"
       y="0"
       inkscape:tiled-clone-of="#g4685"
       xlink:href="#g4685"
       transform="translate(199.09241,719.44289)"
       id="use8269" /><use
       x="0"
       y="0"
       inkscape:tiled-clone-of="#g4685"
       xlink:href="#g4685"
       transform="translate(398.18482,0)"
       id="use8271" /><use
       x="0"
       y="0"
       inkscape:tiled-clone-of="#g4685"
       xlink:href="#g4685"
       transform="translate(398.18482,119.90715)"
       id="use8273" /><use
       x="0"
       y="0"
       inkscape:tiled-clone-of="#g4685"
       xlink:href="#g4685"
       transform="translate(398.18482,239.8143)"
       id="use8275" /><use
       x="0"
       y="0"
       inkscape:tiled-clone-of="#g4685"
       xlink:href="#g4685"
       transform="translate(398.18482,359.72145)"
       id="use8277" /><use
       x="0"
       y="0"
       inkscape:tiled-clone-of="#g4685"
       xlink:href="#g4685"
       transform="translate(398.18482,479.6286)"
       id="use8279" /><use
       x="0"
       y="0"
       inkscape:tiled-clone-of="#g4685"
       xlink:href="#g4685"
       transform="translate(398.18482,599.53575)"
       id="use8281" /><use
       x="0"
       y="0"
       inkscape:tiled-clone-of="#g4685"
       xlink:href="#g4685"
       transform="translate(398.18482,719.44289)"
       id="use8283" /></g></svg>