G75*
%MOIN*%
%OFA0B0*%
%FSLAX24Y24*%
%IPPOS*%
%LPD*%
%AMOC8*
5,1,8,0,0,1.08239X$1,22.5*
%
%ADD10C,0.0010*%
%ADD11C,0.0800*%
%ADD12OC8,0.1147*%
%ADD13C,0.0780*%
%ADD14C,0.0820*%
%ADD15C,0.1540*%
%ADD16OC8,0.0560*%
%ADD17C,0.1040*%
%ADD18R,0.0780X0.0780*%
%ADD19C,0.0560*%
%ADD20C,0.0634*%
%ADD21C,0.0640*%
%ADD22C,0.0000*%
%ADD23C,0.1340*%
%ADD24OC8,0.0670*%
%ADD25C,0.0670*%
D10*
X006460Y012268D02*
X006460Y033893D01*
X006449Y033893D01*
X008199Y035593D01*
X045445Y035593D01*
X046945Y034018D01*
X047060Y033893D01*
X047060Y004293D01*
X033760Y004293D01*
X033760Y012268D01*
X006460Y012268D01*
D11*
X010775Y028441D03*
X011760Y028441D03*
X012744Y028441D03*
X020775Y028441D03*
X021760Y028441D03*
X022744Y028441D03*
X030775Y028441D03*
X031760Y028441D03*
X032744Y028441D03*
X040775Y028441D03*
X041760Y028441D03*
X042744Y028441D03*
D12*
X043531Y031393D03*
X039988Y031393D03*
X033531Y031393D03*
X029988Y031393D03*
X023531Y031393D03*
X019988Y031393D03*
X013531Y031393D03*
X009988Y031393D03*
D13*
X015635Y031268D03*
X015635Y032268D03*
X016635Y033768D03*
X017635Y033768D03*
X015635Y030268D03*
X015635Y029268D03*
X015635Y028268D03*
X015635Y027268D03*
X015635Y026268D03*
X015635Y025268D03*
X015635Y024268D03*
X015635Y023268D03*
X015635Y022268D03*
X015635Y021268D03*
X015635Y020268D03*
X015635Y019268D03*
X015635Y018268D03*
X015635Y017268D03*
X015635Y016268D03*
X015635Y015268D03*
X015635Y014268D03*
X016635Y013268D03*
X017635Y013268D03*
X018635Y013268D03*
X022635Y013268D03*
X023635Y013268D03*
X024635Y013268D03*
X025635Y013268D03*
X026635Y013268D03*
X027635Y013268D03*
X028635Y013268D03*
X029635Y013268D03*
X030635Y013268D03*
X032635Y013268D03*
X033635Y013268D03*
X034635Y013268D03*
X035635Y013268D03*
X036635Y013268D03*
X036635Y024268D03*
X036635Y025268D03*
X036635Y026268D03*
X036635Y027268D03*
X036635Y028268D03*
X036635Y029268D03*
X036635Y030268D03*
X036635Y031268D03*
X036635Y032268D03*
X036635Y033268D03*
X037260Y034393D03*
X039260Y034393D03*
X046385Y032393D03*
X046385Y031393D03*
X046385Y030393D03*
D14*
X044760Y034393D03*
X040760Y034393D03*
X035635Y034393D03*
X031635Y034393D03*
D15*
X029110Y033056D03*
X027260Y034237D03*
X027260Y031875D03*
D16*
X027760Y028768D03*
X025760Y028768D03*
X020260Y026893D03*
X020260Y025893D03*
X020260Y024893D03*
X020260Y023893D03*
X022260Y023393D03*
X024260Y023393D03*
X020260Y021893D03*
X020260Y019893D03*
X020260Y018893D03*
X021260Y018893D03*
X022260Y017393D03*
X024260Y018893D03*
X025260Y017393D03*
X025260Y014393D03*
X022260Y014393D03*
X019260Y014393D03*
X019260Y017393D03*
X017260Y018893D03*
X017260Y019893D03*
X017260Y021893D03*
X017260Y023893D03*
X017260Y024893D03*
X017260Y025893D03*
X017260Y026893D03*
X028760Y017393D03*
X031260Y018393D03*
X031260Y019393D03*
X031260Y020393D03*
X031260Y021393D03*
X031260Y023393D03*
X031260Y024393D03*
X031260Y025393D03*
X031760Y026893D03*
X033760Y026893D03*
X034260Y025393D03*
X034260Y024393D03*
X034260Y023393D03*
X034260Y021393D03*
X034260Y020393D03*
X034260Y019393D03*
X034260Y018393D03*
X028760Y014393D03*
X036260Y010393D03*
X036760Y011143D03*
X037260Y010393D03*
X036760Y008643D03*
X037260Y007893D03*
X036260Y007893D03*
X035260Y005893D03*
X035260Y004893D03*
X038260Y004893D03*
X038260Y005893D03*
X038260Y026893D03*
X039260Y026893D03*
X039260Y028893D03*
X038260Y028893D03*
D17*
X041447Y027362D03*
X043916Y027362D03*
X046416Y027362D03*
X046416Y020956D03*
X046416Y019362D03*
X043916Y019362D03*
X043885Y020956D03*
X041447Y020956D03*
X041447Y019362D03*
X041447Y012956D03*
X041447Y011362D03*
X043916Y011362D03*
X043885Y012956D03*
X046416Y012956D03*
X046416Y011362D03*
X046416Y004956D03*
X043885Y004956D03*
X041447Y004956D03*
X012072Y012925D03*
X009603Y012925D03*
X007103Y012925D03*
X007103Y019331D03*
X007103Y020925D03*
X009603Y020925D03*
X009635Y019331D03*
X012072Y019331D03*
X012072Y020925D03*
X012072Y027331D03*
X009635Y027331D03*
X007103Y027331D03*
D18*
X015635Y013268D03*
X019635Y013268D03*
D19*
X023760Y024508D02*
X023760Y025028D01*
X024760Y025028D02*
X024760Y024508D01*
X025760Y024508D02*
X025760Y025028D01*
X026760Y025028D02*
X026760Y024508D01*
X027760Y024508D02*
X027760Y025028D01*
X028760Y025028D02*
X028760Y024508D01*
X029760Y024508D02*
X029760Y025028D01*
X029760Y027508D02*
X029760Y028028D01*
X028760Y028028D02*
X028760Y027508D01*
X027760Y027508D02*
X027760Y028028D01*
X026760Y028028D02*
X026760Y027508D01*
X025760Y027508D02*
X025760Y028028D01*
X024760Y028028D02*
X024760Y027508D01*
X023760Y027508D02*
X023760Y028028D01*
X035260Y011653D02*
X035260Y011133D01*
X035260Y007653D02*
X035260Y007133D01*
D20*
X028260Y019393D03*
X025260Y019393D03*
X025260Y023393D03*
X028260Y023393D03*
D21*
X038335Y023268D02*
X038935Y023268D01*
X038935Y024268D02*
X038335Y024268D01*
X038335Y025268D02*
X038935Y025268D01*
D22*
X043885Y024268D02*
X043887Y024318D01*
X043893Y024368D01*
X043903Y024418D01*
X043916Y024466D01*
X043933Y024514D01*
X043954Y024560D01*
X043978Y024604D01*
X044006Y024646D01*
X044037Y024686D01*
X044071Y024723D01*
X044108Y024758D01*
X044147Y024789D01*
X044188Y024818D01*
X044232Y024843D01*
X044278Y024865D01*
X044325Y024883D01*
X044373Y024897D01*
X044422Y024908D01*
X044472Y024915D01*
X044522Y024918D01*
X044573Y024917D01*
X044623Y024912D01*
X044673Y024903D01*
X044721Y024891D01*
X044769Y024874D01*
X044815Y024854D01*
X044860Y024831D01*
X044903Y024804D01*
X044943Y024774D01*
X044981Y024741D01*
X045016Y024705D01*
X045049Y024666D01*
X045078Y024625D01*
X045104Y024582D01*
X045127Y024537D01*
X045146Y024490D01*
X045161Y024442D01*
X045173Y024393D01*
X045181Y024343D01*
X045185Y024293D01*
X045185Y024243D01*
X045181Y024193D01*
X045173Y024143D01*
X045161Y024094D01*
X045146Y024046D01*
X045127Y023999D01*
X045104Y023954D01*
X045078Y023911D01*
X045049Y023870D01*
X045016Y023831D01*
X044981Y023795D01*
X044943Y023762D01*
X044903Y023732D01*
X044860Y023705D01*
X044815Y023682D01*
X044769Y023662D01*
X044721Y023645D01*
X044673Y023633D01*
X044623Y023624D01*
X044573Y023619D01*
X044522Y023618D01*
X044472Y023621D01*
X044422Y023628D01*
X044373Y023639D01*
X044325Y023653D01*
X044278Y023671D01*
X044232Y023693D01*
X044188Y023718D01*
X044147Y023747D01*
X044108Y023778D01*
X044071Y023813D01*
X044037Y023850D01*
X044006Y023890D01*
X043978Y023932D01*
X043954Y023976D01*
X043933Y024022D01*
X043916Y024070D01*
X043903Y024118D01*
X043893Y024168D01*
X043887Y024218D01*
X043885Y024268D01*
D23*
X044535Y024268D03*
D24*
X037260Y020893D03*
X037260Y019143D03*
X037260Y016393D03*
X030260Y016893D03*
X030260Y014893D03*
X026760Y014893D03*
X026760Y016893D03*
X023760Y016893D03*
X023760Y014893D03*
X020760Y014893D03*
X020760Y016893D03*
X021260Y024893D03*
X022260Y024893D03*
X022260Y026893D03*
X021260Y026893D03*
X032260Y022393D03*
X034260Y022393D03*
D25*
X037260Y021893D03*
X037260Y018143D03*
X037260Y015393D03*
M02*
