G75*
%MOIN*%
%OFA0B0*%
%FSLAX24Y24*%
%IPPOS*%
%LPD*%
%AMOC8*
5,1,8,0,0,1.08239X$1,22.5*
%
%ADD10C,0.0010*%
%ADD11C,0.0000*%
D10*
X006460Y012268D02*
X006460Y033893D01*
X006449Y033893D01*
X008199Y035593D01*
X045445Y035593D01*
X046945Y034018D01*
X047060Y033893D01*
X047060Y004293D01*
X033760Y004293D01*
X033760Y012268D01*
X006460Y012268D01*
D11*
X043885Y024268D02*
X043887Y024318D01*
X043893Y024368D01*
X043903Y024418D01*
X043916Y024466D01*
X043933Y024514D01*
X043954Y024560D01*
X043978Y024604D01*
X044006Y024646D01*
X044037Y024686D01*
X044071Y024723D01*
X044108Y024758D01*
X044147Y024789D01*
X044188Y024818D01*
X044232Y024843D01*
X044278Y024865D01*
X044325Y024883D01*
X044373Y024897D01*
X044422Y024908D01*
X044472Y024915D01*
X044522Y024918D01*
X044573Y024917D01*
X044623Y024912D01*
X044673Y024903D01*
X044721Y024891D01*
X044769Y024874D01*
X044815Y024854D01*
X044860Y024831D01*
X044903Y024804D01*
X044943Y024774D01*
X044981Y024741D01*
X045016Y024705D01*
X045049Y024666D01*
X045078Y024625D01*
X045104Y024582D01*
X045127Y024537D01*
X045146Y024490D01*
X045161Y024442D01*
X045173Y024393D01*
X045181Y024343D01*
X045185Y024293D01*
X045185Y024243D01*
X045181Y024193D01*
X045173Y024143D01*
X045161Y024094D01*
X045146Y024046D01*
X045127Y023999D01*
X045104Y023954D01*
X045078Y023911D01*
X045049Y023870D01*
X045016Y023831D01*
X044981Y023795D01*
X044943Y023762D01*
X044903Y023732D01*
X044860Y023705D01*
X044815Y023682D01*
X044769Y023662D01*
X044721Y023645D01*
X044673Y023633D01*
X044623Y023624D01*
X044573Y023619D01*
X044522Y023618D01*
X044472Y023621D01*
X044422Y023628D01*
X044373Y023639D01*
X044325Y023653D01*
X044278Y023671D01*
X044232Y023693D01*
X044188Y023718D01*
X044147Y023747D01*
X044108Y023778D01*
X044071Y023813D01*
X044037Y023850D01*
X044006Y023890D01*
X043978Y023932D01*
X043954Y023976D01*
X043933Y024022D01*
X043916Y024070D01*
X043903Y024118D01*
X043893Y024168D01*
X043887Y024218D01*
X043885Y024268D01*
M02*
