G75*
%MOIN*%
%OFA0B0*%
%FSLAX24Y24*%
%IPPOS*%
%LPD*%
%AMOC8*
5,1,8,0,0,1.08239X$1,22.5*
%
%ADD10C,0.0010*%
%ADD11C,0.0030*%
%ADD12C,0.0060*%
%ADD13C,0.0080*%
%ADD14C,0.0050*%
%ADD15C,0.0040*%
%ADD16C,0.0000*%
D10*
X006460Y012268D02*
X006460Y033893D01*
X006449Y033893D01*
X008199Y035593D01*
X045445Y035593D01*
X046945Y034018D01*
X047060Y033893D01*
X047060Y004293D01*
X033760Y004293D01*
X033760Y012268D01*
X006460Y012268D01*
X025802Y035113D02*
X025902Y035113D01*
X025852Y035113D02*
X025852Y035263D01*
X025902Y035213D01*
X025949Y035263D02*
X025999Y035263D01*
X025974Y035263D02*
X025974Y035138D01*
X025999Y035113D01*
X026024Y035113D01*
X026049Y035138D01*
D11*
X044616Y032405D02*
X044739Y032158D01*
X044863Y032405D01*
X044984Y032343D02*
X044984Y032220D01*
X045046Y032158D01*
X045169Y032158D01*
X045231Y032220D01*
X045231Y032343D02*
X045108Y032405D01*
X045046Y032405D01*
X044984Y032343D01*
X044984Y032529D02*
X045231Y032529D01*
X045231Y032343D01*
X045231Y031405D02*
X045046Y031405D01*
X044984Y031343D01*
X044984Y031158D01*
X044863Y031220D02*
X044863Y031343D01*
X044801Y031405D01*
X044616Y031405D01*
X044616Y031529D02*
X044616Y031158D01*
X044801Y031158D01*
X044863Y031220D01*
X045231Y031158D02*
X045231Y031405D01*
X045353Y031405D02*
X045538Y031405D01*
X045599Y031343D01*
X045599Y031220D01*
X045538Y031158D01*
X045353Y031158D01*
X045353Y031097D02*
X045353Y031405D01*
X045353Y031097D02*
X045414Y031035D01*
X045476Y031035D01*
X045414Y030529D02*
X045353Y030467D01*
X045353Y030405D01*
X045414Y030343D01*
X045353Y030282D01*
X045353Y030220D01*
X045414Y030158D01*
X045538Y030158D01*
X045599Y030220D01*
X045476Y030343D02*
X045414Y030343D01*
X045414Y030529D02*
X045538Y030529D01*
X045599Y030467D01*
X045231Y030405D02*
X045108Y030158D01*
X044984Y030405D01*
X044863Y030467D02*
X044801Y030529D01*
X044678Y030529D01*
X044616Y030467D01*
X044616Y030405D01*
X044678Y030343D01*
X044616Y030282D01*
X044616Y030220D01*
X044678Y030158D01*
X044801Y030158D01*
X044863Y030220D01*
X044739Y030343D02*
X044678Y030343D01*
D12*
X025355Y034673D02*
X025355Y035374D01*
X025004Y035374D01*
X024887Y035257D01*
X024887Y035024D01*
X025004Y034907D01*
X025355Y034907D01*
X025121Y034907D02*
X024887Y034673D01*
X024655Y034790D02*
X024655Y035024D01*
X024538Y035140D01*
X024304Y035140D01*
X024188Y035024D01*
X024188Y034907D01*
X024655Y034907D01*
X024655Y034790D02*
X024538Y034673D01*
X024304Y034673D01*
X023955Y034673D02*
X023605Y034673D01*
X023488Y034790D01*
X023488Y035024D01*
X023605Y035140D01*
X023955Y035140D01*
X023955Y035374D02*
X023955Y034673D01*
X023255Y034790D02*
X023255Y035024D01*
X023138Y035140D01*
X022905Y035140D01*
X022788Y035024D01*
X022788Y034907D01*
X023255Y034907D01*
X023255Y034790D02*
X023138Y034673D01*
X022905Y034673D01*
X022555Y034673D02*
X022322Y034673D01*
X022439Y034673D02*
X022439Y035374D01*
X022555Y035374D01*
X021389Y035374D02*
X020922Y035374D01*
X021155Y035374D02*
X021155Y034673D01*
X020689Y034790D02*
X020689Y035024D01*
X020572Y035140D01*
X020339Y035140D01*
X020222Y035024D01*
X020222Y034907D01*
X020689Y034907D01*
X020689Y034790D02*
X020572Y034673D01*
X020339Y034673D01*
X019989Y034790D02*
X019989Y035024D01*
X019873Y035140D01*
X019522Y035140D01*
X019290Y035024D02*
X019173Y035140D01*
X018939Y035140D01*
X018823Y035024D01*
X018823Y034673D01*
X018590Y034673D02*
X018590Y035140D01*
X018240Y035140D01*
X018123Y035024D01*
X018123Y034673D01*
X017890Y034790D02*
X017773Y034673D01*
X017540Y034673D01*
X017423Y034790D01*
X017423Y035024D01*
X017540Y035140D01*
X017773Y035140D01*
X017890Y035024D01*
X017890Y034790D01*
X017190Y034673D02*
X016957Y034673D01*
X017073Y034673D02*
X017073Y035374D01*
X017190Y035374D01*
X016724Y035024D02*
X016724Y034790D01*
X016607Y034673D01*
X016373Y034673D01*
X016257Y034790D01*
X016257Y035024D01*
X016373Y035140D01*
X016607Y035140D01*
X016724Y035024D01*
X016024Y035024D02*
X016024Y034790D01*
X015907Y034673D01*
X015557Y034673D01*
X015557Y034557D02*
X015557Y035140D01*
X015907Y035140D01*
X016024Y035024D01*
X015557Y034557D02*
X015674Y034440D01*
X015790Y034440D01*
X015324Y034790D02*
X015207Y034673D01*
X014857Y034673D01*
X014857Y034557D02*
X014974Y034440D01*
X015091Y034440D01*
X014857Y034557D02*
X014857Y035140D01*
X015324Y035140D02*
X015324Y034790D01*
X013980Y034790D02*
X013863Y034673D01*
X013629Y034673D01*
X013512Y034790D01*
X013512Y035257D01*
X013629Y035374D01*
X013863Y035374D01*
X013980Y035257D01*
X013980Y034790D01*
X013280Y034673D02*
X013046Y034907D01*
X012813Y034673D01*
X012813Y035374D01*
X012580Y035374D02*
X012580Y034673D01*
X012113Y034673D01*
X011180Y034673D02*
X011180Y035374D01*
X010830Y035374D01*
X010713Y035257D01*
X010713Y035024D01*
X010830Y034907D01*
X011180Y034907D01*
X010947Y034907D02*
X010713Y034673D01*
X010481Y034790D02*
X010481Y035024D01*
X010364Y035140D01*
X010130Y035140D01*
X010013Y035024D01*
X010013Y034907D01*
X010481Y034907D01*
X010481Y034790D02*
X010364Y034673D01*
X010130Y034673D01*
X009547Y034673D02*
X009314Y035140D01*
X009081Y035257D02*
X009081Y034790D01*
X008614Y035257D01*
X008614Y034790D01*
X008731Y034673D01*
X008964Y034673D01*
X009081Y034790D01*
X009081Y035257D02*
X008964Y035374D01*
X008731Y035374D01*
X008614Y035257D01*
X008381Y035374D02*
X008381Y035024D01*
X008148Y035140D01*
X008031Y035140D01*
X007914Y035024D01*
X007914Y034790D01*
X008031Y034673D01*
X008264Y034673D01*
X008381Y034790D01*
X008381Y035374D02*
X007914Y035374D01*
X009547Y034673D02*
X009781Y035140D01*
X013280Y035374D02*
X013280Y034673D01*
X019290Y034673D02*
X019290Y035374D01*
X019522Y034673D02*
X019873Y034673D01*
X019989Y034790D01*
D13*
X025488Y036087D02*
X025488Y031875D01*
X026315Y031875D01*
X028204Y031875D02*
X029031Y031875D01*
X029031Y032150D01*
X029031Y034001D02*
X029031Y036087D01*
X025488Y036087D01*
D14*
X013761Y027768D02*
X012502Y027768D01*
X011554Y027768D02*
X010294Y027768D01*
X008997Y027768D02*
X007737Y027768D01*
X006517Y027768D02*
X005510Y027768D01*
X005510Y026331D01*
X005510Y021956D01*
X005510Y020518D01*
X006517Y020518D01*
X006517Y019768D02*
X005510Y019768D01*
X005510Y018331D01*
X005510Y013956D01*
X005510Y012518D01*
X006517Y012518D01*
X007738Y012518D02*
X008998Y012518D01*
X010297Y012518D02*
X011478Y012518D01*
X012502Y012518D02*
X013761Y012518D01*
X013760Y012518D02*
X013760Y014393D01*
X013760Y017893D01*
X013760Y019768D01*
X013761Y019768D02*
X012502Y019768D01*
X012502Y020518D02*
X013761Y020518D01*
X013760Y020518D02*
X013760Y022393D01*
X013760Y025893D01*
X013760Y027768D01*
X011478Y020518D02*
X010297Y020518D01*
X010294Y019768D02*
X011554Y019768D01*
X008997Y019768D02*
X007737Y019768D01*
X007738Y020518D02*
X008998Y020518D01*
X039758Y020518D02*
X041017Y020518D01*
X041017Y019768D02*
X039758Y019768D01*
X039760Y019768D02*
X039760Y017893D01*
X039760Y014393D01*
X039760Y012518D01*
X039758Y012518D02*
X041017Y012518D01*
X041017Y011768D02*
X039758Y011768D01*
X039760Y011768D02*
X039760Y009893D01*
X039760Y006393D01*
X039760Y004518D01*
X039758Y004518D02*
X041017Y004518D01*
X041965Y004518D02*
X043225Y004518D01*
X044522Y004518D02*
X045782Y004518D01*
X047002Y004518D02*
X048010Y004518D01*
X048010Y005956D01*
X048010Y010331D01*
X048010Y011768D01*
X047002Y011768D01*
X047002Y012518D02*
X048010Y012518D01*
X048010Y013956D01*
X048010Y018331D01*
X048010Y019768D01*
X047002Y019768D01*
X047002Y020518D02*
X048010Y020518D01*
X048010Y021956D01*
X048010Y026331D01*
X048010Y027768D01*
X047002Y027768D01*
X045781Y027768D02*
X044521Y027768D01*
X043222Y027768D02*
X042041Y027768D01*
X041017Y027768D02*
X039758Y027768D01*
X039760Y027768D02*
X039760Y025893D01*
X039760Y022393D01*
X039760Y020518D01*
X041965Y020518D02*
X043225Y020518D01*
X043222Y019768D02*
X042041Y019768D01*
X044521Y019768D02*
X045781Y019768D01*
X045782Y020518D02*
X044522Y020518D01*
X044522Y012518D02*
X045782Y012518D01*
X045781Y011768D02*
X044521Y011768D01*
X043222Y011768D02*
X042041Y011768D01*
X041965Y012518D02*
X043225Y012518D01*
D15*
X043123Y015413D02*
X043200Y015490D01*
X043123Y015413D02*
X042970Y015413D01*
X042893Y015490D01*
X042893Y015644D01*
X042970Y015720D01*
X043046Y015720D01*
X043200Y015644D01*
X043200Y015874D01*
X042893Y015874D01*
X043353Y015874D02*
X043507Y015874D01*
X043430Y015874D02*
X043430Y015490D01*
X043507Y015413D01*
X043584Y015413D01*
X043660Y015490D01*
X043507Y007874D02*
X043353Y007874D01*
X043430Y007874D02*
X043430Y007490D01*
X043507Y007413D01*
X043584Y007413D01*
X043660Y007490D01*
X043200Y007490D02*
X043200Y007644D01*
X042970Y007644D01*
X042893Y007567D01*
X042893Y007490D01*
X042970Y007413D01*
X043123Y007413D01*
X043200Y007490D01*
X043200Y007644D02*
X043046Y007797D01*
X042893Y007874D01*
X042970Y023413D02*
X042970Y023874D01*
X043200Y023644D01*
X042893Y023644D01*
X043353Y023874D02*
X043507Y023874D01*
X043430Y023874D02*
X043430Y023490D01*
X043507Y023413D01*
X043584Y023413D01*
X043660Y023490D01*
X010740Y024490D02*
X010663Y024413D01*
X010586Y024413D01*
X010509Y024490D01*
X010509Y024874D01*
X010433Y024874D02*
X010586Y024874D01*
X010279Y024797D02*
X010202Y024874D01*
X010049Y024874D01*
X009972Y024797D01*
X009972Y024720D01*
X010279Y024413D01*
X009972Y024413D01*
X010049Y016874D02*
X009972Y016797D01*
X009972Y016720D01*
X010049Y016644D01*
X009972Y016567D01*
X009972Y016490D01*
X010049Y016413D01*
X010202Y016413D01*
X010279Y016490D01*
X010126Y016644D02*
X010049Y016644D01*
X010049Y016874D02*
X010202Y016874D01*
X010279Y016797D01*
X010433Y016874D02*
X010586Y016874D01*
X010509Y016874D02*
X010509Y016490D01*
X010586Y016413D01*
X010663Y016413D01*
X010740Y016490D01*
D16*
X043885Y024268D02*
X043887Y024318D01*
X043893Y024368D01*
X043903Y024418D01*
X043916Y024466D01*
X043933Y024514D01*
X043954Y024560D01*
X043978Y024604D01*
X044006Y024646D01*
X044037Y024686D01*
X044071Y024723D01*
X044108Y024758D01*
X044147Y024789D01*
X044188Y024818D01*
X044232Y024843D01*
X044278Y024865D01*
X044325Y024883D01*
X044373Y024897D01*
X044422Y024908D01*
X044472Y024915D01*
X044522Y024918D01*
X044573Y024917D01*
X044623Y024912D01*
X044673Y024903D01*
X044721Y024891D01*
X044769Y024874D01*
X044815Y024854D01*
X044860Y024831D01*
X044903Y024804D01*
X044943Y024774D01*
X044981Y024741D01*
X045016Y024705D01*
X045049Y024666D01*
X045078Y024625D01*
X045104Y024582D01*
X045127Y024537D01*
X045146Y024490D01*
X045161Y024442D01*
X045173Y024393D01*
X045181Y024343D01*
X045185Y024293D01*
X045185Y024243D01*
X045181Y024193D01*
X045173Y024143D01*
X045161Y024094D01*
X045146Y024046D01*
X045127Y023999D01*
X045104Y023954D01*
X045078Y023911D01*
X045049Y023870D01*
X045016Y023831D01*
X044981Y023795D01*
X044943Y023762D01*
X044903Y023732D01*
X044860Y023705D01*
X044815Y023682D01*
X044769Y023662D01*
X044721Y023645D01*
X044673Y023633D01*
X044623Y023624D01*
X044573Y023619D01*
X044522Y023618D01*
X044472Y023621D01*
X044422Y023628D01*
X044373Y023639D01*
X044325Y023653D01*
X044278Y023671D01*
X044232Y023693D01*
X044188Y023718D01*
X044147Y023747D01*
X044108Y023778D01*
X044071Y023813D01*
X044037Y023850D01*
X044006Y023890D01*
X043978Y023932D01*
X043954Y023976D01*
X043933Y024022D01*
X043916Y024070D01*
X043903Y024118D01*
X043893Y024168D01*
X043887Y024218D01*
X043885Y024268D01*
M02*
