%
M48
M72
T01C0.0197
T02C0.0236
T03C0.0315
T04C0.0320
T05C0.0394
T06C0.0400
T07C0.0591
T08C0.0787
T09C0.1180
T10C0.1300
%
T01
X26135Y15893
X27635Y18893
X26135Y19393
X26260Y20393
X27385Y22893
X30260Y25518
X30760Y25893
X24260Y30518
X34760Y17893
X31760Y15393
X32635Y14393
X31760Y12893
X42760Y18143
T02
X35885Y21393
X35385Y21893
X33010Y23393
X34885Y24268
X29760Y20893
X28760Y21393
X23010Y17643
X18260Y16268
X17760Y15768
X14510Y13143
X28135Y15893
X34635Y15393
X17760Y28018
X16885Y30518
X14510Y24893
X31760Y30018
X32760Y29643
X34885Y29143
X41760Y30893
T03
X39260Y34393
X37260Y34393
T04
X38260Y28893
X39260Y28893
X39260Y26893
X38260Y26893
X34260Y25393
X34260Y24393
X34260Y23393
X34260Y22393
X34260Y21393
X34260Y20393
X34260Y19393
X34260Y18393
X37260Y18143
X37260Y19143
X37260Y20893
X37260Y21893
X32260Y22393
X31260Y21393
X31260Y20393
X31260Y19393
X31260Y18393
X30260Y16893
X28760Y17393
X26760Y16893
X25260Y17393
X23760Y16893
X22260Y17393
X20760Y16893
X19260Y17393
X20260Y18893
X21260Y18893
X20260Y19893
X20260Y21893
X22260Y23393
X22260Y24893
X21260Y24893
X20260Y24893
X20260Y23893
X20260Y25893
X20260Y26893
X21260Y26893
X22260Y26893
X23760Y27768
X24760Y27768
X25760Y27768
X26760Y27768
X27760Y27768
X28760Y27768
X29760Y27768
X27760Y28768
X25760Y28768
X25760Y24768
X26760Y24768
X27760Y24768
X28760Y24768
X29760Y24768
X31260Y24393
X31260Y23393
X31260Y25393
X31760Y26893
X33760Y26893
X24760Y24768
X23760Y24768
X24260Y23393
X24260Y18893
X23760Y14893
X22260Y14393
X20760Y14893
X19260Y14393
X17260Y18893
X17260Y19893
X17260Y21893
X17260Y23893
X17260Y24893
X17260Y25893
X17260Y26893
X26760Y14893
X25260Y14393
X28760Y14393
X30260Y14893
X35260Y11393
X36760Y11143
X37260Y10393
X36260Y10393
X36760Y8643
X37260Y7893
X36260Y7893
X35260Y7393
X35260Y5893
X35260Y4893
X38260Y4893
X38260Y5893
X37260Y15393
X37260Y16393
T05
X28260Y19393
X25260Y19393
X25260Y23393
X28260Y23393
X30775Y28441
X31760Y28441
X32744Y28441
X31635Y34393
X35635Y34393
X40760Y34393
X44760Y34393
X42744Y28441
X41760Y28441
X40775Y28441
X22744Y28441
X21760Y28441
X20775Y28441
X12744Y28441
X11760Y28441
X10775Y28441
T06
X15635Y28268
X15635Y27268
X15635Y26268
X15635Y25268
X15635Y24268
X15635Y23268
X15635Y22268
X15635Y21268
X15635Y20268
X15635Y19268
X15635Y18268
X15635Y17268
X15635Y16268
X15635Y15268
X15635Y14268
X15635Y13268
X16635Y13268
X17635Y13268
X18635Y13268
X19635Y13268
X22635Y13268
X23635Y13268
X24635Y13268
X25635Y13268
X26635Y13268
X27635Y13268
X28635Y13268
X29635Y13268
X30635Y13268
X32635Y13268
X33635Y13268
X34635Y13268
X35635Y13268
X36635Y13268
X38635Y23268
X38635Y24268
X38635Y25268
X36635Y25268
X36635Y24268
X36635Y26268
X36635Y27268
X36635Y28268
X36635Y29268
X36635Y30268
X36635Y31268
X36635Y32268
X36635Y33268
X46385Y32393
X46385Y31393
X46385Y30393
X17635Y33768
X16635Y33768
X15635Y32268
X15635Y31268
X15635Y30268
X15635Y29268
T07
X7103Y12925
X9603Y12925
X12072Y12925
X12072Y19331
X12072Y20925
X9603Y20925
X9635Y19331
X7103Y19331
X7103Y20925
X7103Y27331
X9635Y27331
X12072Y27331
X41447Y27362
X43916Y27362
X46416Y27362
X46416Y20956
X46416Y19362
X43916Y19362
X43885Y20956
X41447Y20956
X41447Y19362
X41447Y12956
X41447Y11362
X43916Y11362
X43885Y12956
X46416Y12956
X46416Y11362
X46416Y4956
X43885Y4956
X41447Y4956
T08
X39988Y31393
X43531Y31393
X33531Y31393
X29988Y31393
X23531Y31393
X19988Y31393
X13531Y31393
X9988Y31393
T09
X27260Y31875
X29110Y33056
X27260Y34237
T10
X44535Y24268
M30
