G75*
G70*
%OFA0B0*%
%FSLAX24Y24*%
%IPPOS*%
%LPD*%
%AMOC8*
5,1,8,0,0,1.08239X$1,22.5*
%
%ADD10C,0.0010*%
%ADD11C,0.0000*%
D10*
X002650Y000376D02*
X002650Y020061D01*
X042020Y020061D01*
X042020Y000376D01*
X002650Y000376D01*
D11*
X011123Y018077D02*
X011125Y018102D01*
X011131Y018126D01*
X011140Y018148D01*
X011153Y018169D01*
X011169Y018188D01*
X011188Y018204D01*
X011209Y018217D01*
X011231Y018226D01*
X011255Y018232D01*
X011280Y018234D01*
X011305Y018232D01*
X011329Y018226D01*
X011351Y018217D01*
X011372Y018204D01*
X011391Y018188D01*
X011407Y018169D01*
X011420Y018148D01*
X011429Y018126D01*
X011435Y018102D01*
X011437Y018077D01*
X011435Y018052D01*
X011429Y018028D01*
X011420Y018006D01*
X011407Y017985D01*
X011391Y017966D01*
X011372Y017950D01*
X011351Y017937D01*
X011329Y017928D01*
X011305Y017922D01*
X011280Y017920D01*
X011255Y017922D01*
X011231Y017928D01*
X011209Y017937D01*
X011188Y017950D01*
X011169Y017966D01*
X011153Y017985D01*
X011140Y018006D01*
X011131Y018028D01*
X011125Y018052D01*
X011123Y018077D01*
X010542Y019219D02*
X010544Y019252D01*
X010550Y019284D01*
X010559Y019315D01*
X010572Y019345D01*
X010589Y019373D01*
X010609Y019399D01*
X010632Y019423D01*
X010657Y019443D01*
X010685Y019461D01*
X010714Y019475D01*
X010745Y019485D01*
X010777Y019492D01*
X010810Y019495D01*
X010843Y019494D01*
X010875Y019489D01*
X010906Y019480D01*
X010937Y019468D01*
X010965Y019452D01*
X010992Y019433D01*
X011016Y019411D01*
X011037Y019386D01*
X011056Y019359D01*
X011071Y019330D01*
X011082Y019300D01*
X011090Y019268D01*
X011094Y019235D01*
X011094Y019203D01*
X011090Y019170D01*
X011082Y019138D01*
X011071Y019108D01*
X011056Y019079D01*
X011037Y019052D01*
X011016Y019027D01*
X010992Y019005D01*
X010965Y018986D01*
X010937Y018970D01*
X010906Y018958D01*
X010875Y018949D01*
X010843Y018944D01*
X010810Y018943D01*
X010777Y018946D01*
X010745Y018953D01*
X010714Y018963D01*
X010685Y018977D01*
X010657Y018995D01*
X010632Y019015D01*
X010609Y019039D01*
X010589Y019065D01*
X010572Y019093D01*
X010559Y019123D01*
X010550Y019154D01*
X010544Y019186D01*
X010542Y019219D01*
X013033Y018077D02*
X013035Y018102D01*
X013041Y018126D01*
X013050Y018148D01*
X013063Y018169D01*
X013079Y018188D01*
X013098Y018204D01*
X013119Y018217D01*
X013141Y018226D01*
X013165Y018232D01*
X013190Y018234D01*
X013215Y018232D01*
X013239Y018226D01*
X013261Y018217D01*
X013282Y018204D01*
X013301Y018188D01*
X013317Y018169D01*
X013330Y018148D01*
X013339Y018126D01*
X013345Y018102D01*
X013347Y018077D01*
X013345Y018052D01*
X013339Y018028D01*
X013330Y018006D01*
X013317Y017985D01*
X013301Y017966D01*
X013282Y017950D01*
X013261Y017937D01*
X013239Y017928D01*
X013215Y017922D01*
X013190Y017920D01*
X013165Y017922D01*
X013141Y017928D01*
X013119Y017937D01*
X013098Y017950D01*
X013079Y017966D01*
X013063Y017985D01*
X013050Y018006D01*
X013041Y018028D01*
X013035Y018052D01*
X013033Y018077D01*
X013376Y019219D02*
X013378Y019252D01*
X013384Y019284D01*
X013393Y019315D01*
X013406Y019345D01*
X013423Y019373D01*
X013443Y019399D01*
X013466Y019423D01*
X013491Y019443D01*
X013519Y019461D01*
X013548Y019475D01*
X013579Y019485D01*
X013611Y019492D01*
X013644Y019495D01*
X013677Y019494D01*
X013709Y019489D01*
X013740Y019480D01*
X013771Y019468D01*
X013799Y019452D01*
X013826Y019433D01*
X013850Y019411D01*
X013871Y019386D01*
X013890Y019359D01*
X013905Y019330D01*
X013916Y019300D01*
X013924Y019268D01*
X013928Y019235D01*
X013928Y019203D01*
X013924Y019170D01*
X013916Y019138D01*
X013905Y019108D01*
X013890Y019079D01*
X013871Y019052D01*
X013850Y019027D01*
X013826Y019005D01*
X013799Y018986D01*
X013771Y018970D01*
X013740Y018958D01*
X013709Y018949D01*
X013677Y018944D01*
X013644Y018943D01*
X013611Y018946D01*
X013579Y018953D01*
X013548Y018963D01*
X013519Y018977D01*
X013491Y018995D01*
X013466Y019015D01*
X013443Y019039D01*
X013423Y019065D01*
X013406Y019093D01*
X013393Y019123D01*
X013384Y019154D01*
X013378Y019186D01*
X013376Y019219D01*
M02*
