G75*
G70*
%OFA0B0*%
%FSLAX24Y24*%
%IPPOS*%
%LPD*%
%AMOC8*
5,1,8,0,0,1.08239X$1,22.5*
%
%ADD10C,0.0010*%
%ADD11R,0.0512X0.0158*%
%ADD12R,0.0158X0.0512*%
%ADD13C,0.0800*%
%ADD14OC8,0.1147*%
%ADD15C,0.0780*%
%ADD16R,0.0434X0.0749*%
%ADD17R,0.0540X0.0619*%
%ADD18R,0.0434X0.0473*%
%ADD19R,0.0473X0.0434*%
%ADD20R,0.0630X0.0830*%
%ADD21R,0.1540X0.0830*%
%ADD22R,0.0827X0.0631*%
%ADD23R,0.1221X0.0355*%
%ADD24R,0.0800X0.2140*%
%ADD25R,0.0631X0.0197*%
%ADD26R,0.0190X0.0790*%
%ADD27R,0.2240X0.0880*%
%ADD28R,0.0640X0.0640*%
%ADD29C,0.0640*%
%ADD30R,0.0670X0.0749*%
%ADD31R,0.0749X0.0670*%
%ADD32R,0.0276X0.0906*%
%ADD33C,0.1540*%
%ADD34R,0.0591X0.0512*%
%ADD35OC8,0.0600*%
%ADD36R,0.0197X0.0591*%
%ADD37R,0.0827X0.0788*%
%ADD38C,0.0000*%
%ADD39C,0.0591*%
%ADD40C,0.0355*%
%ADD41R,0.0906X0.0748*%
D10*
X002650Y000376D02*
X002650Y020061D01*
X042020Y020061D01*
X042020Y000376D01*
X002650Y000376D01*
D11*
X008491Y004742D03*
X008491Y004939D03*
X008491Y005136D03*
X008491Y005333D03*
X008491Y005530D03*
X008491Y005727D03*
X008491Y005923D03*
X008491Y006120D03*
X008491Y006317D03*
X008491Y006514D03*
X008491Y006711D03*
X008491Y006908D03*
X008491Y007104D03*
X008491Y007301D03*
X008491Y007498D03*
X008491Y007695D03*
X012979Y007695D03*
X012979Y007498D03*
X012979Y007301D03*
X012979Y007104D03*
X012979Y006908D03*
X012979Y006711D03*
X012979Y006514D03*
X012979Y006317D03*
X012979Y006120D03*
X012979Y005923D03*
X012979Y005727D03*
X012979Y005530D03*
X012979Y005333D03*
X012979Y005136D03*
X012979Y004939D03*
X012979Y004742D03*
D12*
X012211Y003975D03*
X012014Y003975D03*
X011818Y003975D03*
X011621Y003975D03*
X011424Y003975D03*
X011227Y003975D03*
X011030Y003975D03*
X010833Y003975D03*
X010636Y003975D03*
X010440Y003975D03*
X010243Y003975D03*
X010046Y003975D03*
X009849Y003975D03*
X009652Y003975D03*
X009455Y003975D03*
X009258Y003975D03*
X009258Y008463D03*
X009455Y008463D03*
X009652Y008463D03*
X009849Y008463D03*
X010046Y008463D03*
X010243Y008463D03*
X010440Y008463D03*
X010636Y008463D03*
X010833Y008463D03*
X011030Y008463D03*
X011227Y008463D03*
X011424Y008463D03*
X011621Y008463D03*
X011818Y008463D03*
X012014Y008463D03*
X012211Y008463D03*
D13*
X008219Y012266D03*
X007235Y012266D03*
X006251Y012266D03*
X016251Y012266D03*
X017235Y012266D03*
X018219Y012266D03*
X026251Y012266D03*
X027235Y012266D03*
X028219Y012266D03*
X036251Y012266D03*
X037235Y012266D03*
X038219Y012266D03*
D14*
X039007Y015219D03*
X035463Y015219D03*
X029007Y015219D03*
X025463Y015219D03*
X019007Y015219D03*
X015463Y015219D03*
X009007Y015219D03*
X005463Y015219D03*
D15*
X003235Y015219D03*
X003235Y014219D03*
X003235Y013219D03*
X003235Y012219D03*
X003235Y011219D03*
X003235Y010219D03*
X003235Y016719D03*
X004235Y016719D03*
X004235Y019219D03*
X005235Y019219D03*
X006235Y019219D03*
X007235Y019219D03*
X008235Y019219D03*
X009235Y019219D03*
X028735Y008719D03*
X028735Y007719D03*
X028735Y006719D03*
X028735Y005719D03*
X033985Y006719D03*
X033985Y007719D03*
X032235Y002719D03*
X031235Y002719D03*
X015485Y000969D03*
X014485Y000969D03*
X013485Y000969D03*
X012485Y000969D03*
X011485Y000969D03*
X010485Y000969D03*
X009485Y000969D03*
X008485Y000969D03*
X007485Y000969D03*
X006485Y000969D03*
X030235Y014219D03*
X031235Y014219D03*
X036235Y019219D03*
X037235Y019219D03*
X038235Y019219D03*
D16*
X029286Y018719D03*
X028184Y018719D03*
D17*
X026081Y018719D03*
X024388Y018719D03*
D18*
X007569Y010094D03*
X006900Y010094D03*
X006735Y006303D03*
X007485Y006303D03*
X007485Y005634D03*
X006735Y005634D03*
X006735Y005053D03*
X006735Y004384D03*
X023735Y004553D03*
X023735Y003884D03*
X025235Y003884D03*
X025235Y004553D03*
X027985Y004428D03*
X027985Y003759D03*
X028735Y002553D03*
X028735Y001884D03*
X039485Y006384D03*
X040235Y006384D03*
X040235Y007053D03*
X039485Y007053D03*
X039485Y007884D03*
X040235Y007884D03*
X040235Y008553D03*
X039485Y008553D03*
D19*
X038735Y008553D03*
X038735Y007884D03*
X038735Y007053D03*
X038735Y006384D03*
X038735Y005553D03*
X039735Y005553D03*
X039735Y004884D03*
X038735Y004884D03*
X038735Y004053D03*
X039735Y004053D03*
X039735Y003384D03*
X038735Y003384D03*
X035735Y006384D03*
X034985Y006384D03*
X034985Y007053D03*
X035735Y007053D03*
X035735Y007884D03*
X034985Y007884D03*
X034985Y008553D03*
X035735Y008553D03*
X030235Y008384D03*
X030235Y009053D03*
X028069Y009719D03*
X027400Y009719D03*
X023069Y009219D03*
X022400Y009219D03*
X022569Y012219D03*
X021900Y012219D03*
X023400Y012219D03*
X024069Y012219D03*
X014569Y008094D03*
X013900Y008094D03*
X013900Y007594D03*
X014569Y007594D03*
X014069Y003969D03*
X013400Y003969D03*
X013400Y003469D03*
X014069Y003469D03*
X009319Y002969D03*
X008650Y002969D03*
X005069Y003344D03*
X004400Y003344D03*
X006900Y007844D03*
X007569Y007844D03*
X007569Y008594D03*
X006900Y008594D03*
X006900Y009344D03*
X007569Y009344D03*
X005069Y010094D03*
X004400Y010094D03*
X011735Y015759D03*
X011735Y016428D03*
X012860Y016428D03*
X012860Y015759D03*
X030235Y007178D03*
X030235Y006509D03*
X027985Y002553D03*
X027985Y001884D03*
X022235Y003384D03*
X022235Y004053D03*
X020735Y004053D03*
X020735Y003384D03*
X019235Y003384D03*
X019235Y004053D03*
D20*
X021345Y016979D03*
X022245Y016979D03*
X023145Y016979D03*
D21*
X022235Y019459D03*
D22*
X022973Y015469D03*
X023997Y015469D03*
X021497Y015469D03*
X020473Y015469D03*
X036723Y008219D03*
X037747Y008219D03*
X037747Y006719D03*
X036723Y006719D03*
X036723Y005219D03*
X037747Y005219D03*
X037747Y003719D03*
X036723Y003719D03*
D23*
X004735Y006128D03*
X004735Y006719D03*
X004735Y007309D03*
D24*
X004735Y008619D03*
X004735Y004819D03*
D25*
X005485Y006246D03*
X005485Y006719D03*
X005485Y007191D03*
D26*
X023944Y005741D03*
X024199Y005741D03*
X024455Y005741D03*
X024711Y005741D03*
X024967Y005741D03*
X025223Y005741D03*
X025479Y005741D03*
X025735Y005741D03*
X025991Y005741D03*
X026247Y005741D03*
X026503Y005741D03*
X026758Y005741D03*
X027014Y005741D03*
X027270Y005741D03*
X027270Y008696D03*
X027014Y008696D03*
X026758Y008696D03*
X026503Y008696D03*
X026247Y008696D03*
X025991Y008696D03*
X025735Y008696D03*
X025479Y008696D03*
X025223Y008696D03*
X024967Y008696D03*
X024711Y008696D03*
X024455Y008696D03*
X024199Y008696D03*
X023944Y008696D03*
D27*
X025114Y010719D03*
X021355Y010719D03*
D28*
X033985Y010719D03*
X041235Y008969D03*
X041235Y005719D03*
X026735Y001719D03*
D29*
X026735Y002719D03*
X026735Y003719D03*
X033985Y008719D03*
X033985Y009719D03*
X041235Y007969D03*
X041235Y006969D03*
X041235Y004719D03*
X041235Y003719D03*
D30*
X030286Y010219D03*
X029184Y010219D03*
X021286Y009219D03*
X020184Y009219D03*
D31*
X023735Y002770D03*
X025235Y002770D03*
X025235Y001667D03*
X023735Y001667D03*
X029735Y001667D03*
X029735Y002770D03*
D32*
X031485Y006695D03*
X031985Y006695D03*
X032485Y006695D03*
X032985Y006695D03*
X032985Y008742D03*
X032485Y008742D03*
X031985Y008742D03*
X031485Y008742D03*
D33*
X032235Y015825D03*
X030384Y017006D03*
X032235Y018187D03*
D34*
X022235Y002309D03*
X020735Y002309D03*
X020735Y001128D03*
X022235Y001128D03*
D35*
X022735Y005219D03*
X021735Y005219D03*
D36*
X012747Y018097D03*
X012491Y018097D03*
X012235Y018097D03*
X011979Y018097D03*
X011723Y018097D03*
D37*
X011743Y019219D03*
X012727Y019219D03*
D38*
X013376Y019219D02*
X013378Y019252D01*
X013384Y019284D01*
X013393Y019315D01*
X013406Y019345D01*
X013423Y019373D01*
X013443Y019399D01*
X013466Y019423D01*
X013491Y019443D01*
X013519Y019461D01*
X013548Y019475D01*
X013579Y019485D01*
X013611Y019492D01*
X013644Y019495D01*
X013677Y019494D01*
X013709Y019489D01*
X013740Y019480D01*
X013771Y019468D01*
X013799Y019452D01*
X013826Y019433D01*
X013850Y019411D01*
X013871Y019386D01*
X013890Y019359D01*
X013905Y019330D01*
X013916Y019300D01*
X013924Y019268D01*
X013928Y019235D01*
X013928Y019203D01*
X013924Y019170D01*
X013916Y019138D01*
X013905Y019108D01*
X013890Y019079D01*
X013871Y019052D01*
X013850Y019027D01*
X013826Y019005D01*
X013799Y018986D01*
X013771Y018970D01*
X013740Y018958D01*
X013709Y018949D01*
X013677Y018944D01*
X013644Y018943D01*
X013611Y018946D01*
X013579Y018953D01*
X013548Y018963D01*
X013519Y018977D01*
X013491Y018995D01*
X013466Y019015D01*
X013443Y019039D01*
X013423Y019065D01*
X013406Y019093D01*
X013393Y019123D01*
X013384Y019154D01*
X013378Y019186D01*
X013376Y019219D01*
X013033Y018077D02*
X013035Y018102D01*
X013041Y018126D01*
X013050Y018148D01*
X013063Y018169D01*
X013079Y018188D01*
X013098Y018204D01*
X013119Y018217D01*
X013141Y018226D01*
X013165Y018232D01*
X013190Y018234D01*
X013215Y018232D01*
X013239Y018226D01*
X013261Y018217D01*
X013282Y018204D01*
X013301Y018188D01*
X013317Y018169D01*
X013330Y018148D01*
X013339Y018126D01*
X013345Y018102D01*
X013347Y018077D01*
X013345Y018052D01*
X013339Y018028D01*
X013330Y018006D01*
X013317Y017985D01*
X013301Y017966D01*
X013282Y017950D01*
X013261Y017937D01*
X013239Y017928D01*
X013215Y017922D01*
X013190Y017920D01*
X013165Y017922D01*
X013141Y017928D01*
X013119Y017937D01*
X013098Y017950D01*
X013079Y017966D01*
X013063Y017985D01*
X013050Y018006D01*
X013041Y018028D01*
X013035Y018052D01*
X013033Y018077D01*
X011123Y018077D02*
X011125Y018102D01*
X011131Y018126D01*
X011140Y018148D01*
X011153Y018169D01*
X011169Y018188D01*
X011188Y018204D01*
X011209Y018217D01*
X011231Y018226D01*
X011255Y018232D01*
X011280Y018234D01*
X011305Y018232D01*
X011329Y018226D01*
X011351Y018217D01*
X011372Y018204D01*
X011391Y018188D01*
X011407Y018169D01*
X011420Y018148D01*
X011429Y018126D01*
X011435Y018102D01*
X011437Y018077D01*
X011435Y018052D01*
X011429Y018028D01*
X011420Y018006D01*
X011407Y017985D01*
X011391Y017966D01*
X011372Y017950D01*
X011351Y017937D01*
X011329Y017928D01*
X011305Y017922D01*
X011280Y017920D01*
X011255Y017922D01*
X011231Y017928D01*
X011209Y017937D01*
X011188Y017950D01*
X011169Y017966D01*
X011153Y017985D01*
X011140Y018006D01*
X011131Y018028D01*
X011125Y018052D01*
X011123Y018077D01*
X010542Y019219D02*
X010544Y019252D01*
X010550Y019284D01*
X010559Y019315D01*
X010572Y019345D01*
X010589Y019373D01*
X010609Y019399D01*
X010632Y019423D01*
X010657Y019443D01*
X010685Y019461D01*
X010714Y019475D01*
X010745Y019485D01*
X010777Y019492D01*
X010810Y019495D01*
X010843Y019494D01*
X010875Y019489D01*
X010906Y019480D01*
X010937Y019468D01*
X010965Y019452D01*
X010992Y019433D01*
X011016Y019411D01*
X011037Y019386D01*
X011056Y019359D01*
X011071Y019330D01*
X011082Y019300D01*
X011090Y019268D01*
X011094Y019235D01*
X011094Y019203D01*
X011090Y019170D01*
X011082Y019138D01*
X011071Y019108D01*
X011056Y019079D01*
X011037Y019052D01*
X011016Y019027D01*
X010992Y019005D01*
X010965Y018986D01*
X010937Y018970D01*
X010906Y018958D01*
X010875Y018949D01*
X010843Y018944D01*
X010810Y018943D01*
X010777Y018946D01*
X010745Y018953D01*
X010714Y018963D01*
X010685Y018977D01*
X010657Y018995D01*
X010632Y019015D01*
X010609Y019039D01*
X010589Y019065D01*
X010572Y019093D01*
X010559Y019123D01*
X010550Y019154D01*
X010544Y019186D01*
X010542Y019219D01*
D39*
X010818Y019219D03*
X013652Y019219D03*
D40*
X013190Y018077D03*
X011280Y018077D03*
D41*
X010758Y019219D03*
X013711Y019219D03*
M02*
