G75*
G70*
%OFA0B0*%
%FSLAX24Y24*%
%IPPOS*%
%LPD*%
%AMOC8*
5,1,8,0,0,1.08239X$1,22.5*
%
%ADD10C,0.0010*%
%ADD11C,0.0760*%
%ADD12OC8,0.1107*%
%ADD13C,0.0740*%
%ADD14R,0.0600X0.0600*%
%ADD15C,0.0600*%
%ADD16C,0.1500*%
%ADD17OC8,0.0560*%
%ADD18C,0.0000*%
%ADD19C,0.0120*%
%ADD20C,0.0356*%
%ADD21C,0.0240*%
%ADD22C,0.0160*%
%ADD23C,0.0320*%
D10*
X002650Y000376D02*
X002650Y020061D01*
X042020Y020061D01*
X042020Y000376D01*
X002650Y000376D01*
D11*
X006251Y012266D03*
X007235Y012266D03*
X008219Y012266D03*
X016251Y012266D03*
X017235Y012266D03*
X018219Y012266D03*
X026251Y012266D03*
X027235Y012266D03*
X028219Y012266D03*
X036251Y012266D03*
X037235Y012266D03*
X038219Y012266D03*
D12*
X039007Y015219D03*
X035463Y015219D03*
X029007Y015219D03*
X025463Y015219D03*
X019007Y015219D03*
X015463Y015219D03*
X009007Y015219D03*
X005463Y015219D03*
D13*
X003235Y015219D03*
X003235Y014219D03*
X003235Y013219D03*
X003235Y012219D03*
X003235Y011219D03*
X003235Y010219D03*
X003235Y016719D03*
X004235Y016719D03*
X004235Y019219D03*
X005235Y019219D03*
X006235Y019219D03*
X007235Y019219D03*
X008235Y019219D03*
X009235Y019219D03*
X028735Y008719D03*
X028735Y007719D03*
X028735Y006719D03*
X028735Y005719D03*
X033985Y006719D03*
X033985Y007719D03*
X032235Y002719D03*
X031235Y002719D03*
X015485Y000969D03*
X014485Y000969D03*
X013485Y000969D03*
X012485Y000969D03*
X011485Y000969D03*
X010485Y000969D03*
X009485Y000969D03*
X008485Y000969D03*
X007485Y000969D03*
X006485Y000969D03*
X030235Y014219D03*
X031235Y014219D03*
X036235Y019219D03*
X037235Y019219D03*
X038235Y019219D03*
D14*
X033985Y010719D03*
X041235Y008969D03*
X041235Y005719D03*
X026735Y001719D03*
D15*
X026735Y002719D03*
X026735Y003719D03*
X033985Y008719D03*
X033985Y009719D03*
X041235Y007969D03*
X041235Y006969D03*
X041235Y004719D03*
X041235Y003719D03*
D16*
X032235Y015825D03*
X030384Y017006D03*
X032235Y018187D03*
D17*
X022735Y005219D03*
X021735Y005219D03*
D18*
X013033Y018077D02*
X013035Y018102D01*
X013041Y018126D01*
X013050Y018148D01*
X013063Y018169D01*
X013079Y018188D01*
X013098Y018204D01*
X013119Y018217D01*
X013141Y018226D01*
X013165Y018232D01*
X013190Y018234D01*
X013215Y018232D01*
X013239Y018226D01*
X013261Y018217D01*
X013282Y018204D01*
X013301Y018188D01*
X013317Y018169D01*
X013330Y018148D01*
X013339Y018126D01*
X013345Y018102D01*
X013347Y018077D01*
X013345Y018052D01*
X013339Y018028D01*
X013330Y018006D01*
X013317Y017985D01*
X013301Y017966D01*
X013282Y017950D01*
X013261Y017937D01*
X013239Y017928D01*
X013215Y017922D01*
X013190Y017920D01*
X013165Y017922D01*
X013141Y017928D01*
X013119Y017937D01*
X013098Y017950D01*
X013079Y017966D01*
X013063Y017985D01*
X013050Y018006D01*
X013041Y018028D01*
X013035Y018052D01*
X013033Y018077D01*
X011123Y018077D02*
X011125Y018102D01*
X011131Y018126D01*
X011140Y018148D01*
X011153Y018169D01*
X011169Y018188D01*
X011188Y018204D01*
X011209Y018217D01*
X011231Y018226D01*
X011255Y018232D01*
X011280Y018234D01*
X011305Y018232D01*
X011329Y018226D01*
X011351Y018217D01*
X011372Y018204D01*
X011391Y018188D01*
X011407Y018169D01*
X011420Y018148D01*
X011429Y018126D01*
X011435Y018102D01*
X011437Y018077D01*
X011435Y018052D01*
X011429Y018028D01*
X011420Y018006D01*
X011407Y017985D01*
X011391Y017966D01*
X011372Y017950D01*
X011351Y017937D01*
X011329Y017928D01*
X011305Y017922D01*
X011280Y017920D01*
X011255Y017922D01*
X011231Y017928D01*
X011209Y017937D01*
X011188Y017950D01*
X011169Y017966D01*
X011153Y017985D01*
X011140Y018006D01*
X011131Y018028D01*
X011125Y018052D01*
X011123Y018077D01*
X010542Y019219D02*
X010544Y019252D01*
X010550Y019284D01*
X010559Y019315D01*
X010572Y019345D01*
X010589Y019373D01*
X010609Y019399D01*
X010632Y019423D01*
X010657Y019443D01*
X010685Y019461D01*
X010714Y019475D01*
X010745Y019485D01*
X010777Y019492D01*
X010810Y019495D01*
X010843Y019494D01*
X010875Y019489D01*
X010906Y019480D01*
X010937Y019468D01*
X010965Y019452D01*
X010992Y019433D01*
X011016Y019411D01*
X011037Y019386D01*
X011056Y019359D01*
X011071Y019330D01*
X011082Y019300D01*
X011090Y019268D01*
X011094Y019235D01*
X011094Y019203D01*
X011090Y019170D01*
X011082Y019138D01*
X011071Y019108D01*
X011056Y019079D01*
X011037Y019052D01*
X011016Y019027D01*
X010992Y019005D01*
X010965Y018986D01*
X010937Y018970D01*
X010906Y018958D01*
X010875Y018949D01*
X010843Y018944D01*
X010810Y018943D01*
X010777Y018946D01*
X010745Y018953D01*
X010714Y018963D01*
X010685Y018977D01*
X010657Y018995D01*
X010632Y019015D01*
X010609Y019039D01*
X010589Y019065D01*
X010572Y019093D01*
X010559Y019123D01*
X010550Y019154D01*
X010544Y019186D01*
X010542Y019219D01*
X013376Y019219D02*
X013378Y019252D01*
X013384Y019284D01*
X013393Y019315D01*
X013406Y019345D01*
X013423Y019373D01*
X013443Y019399D01*
X013466Y019423D01*
X013491Y019443D01*
X013519Y019461D01*
X013548Y019475D01*
X013579Y019485D01*
X013611Y019492D01*
X013644Y019495D01*
X013677Y019494D01*
X013709Y019489D01*
X013740Y019480D01*
X013771Y019468D01*
X013799Y019452D01*
X013826Y019433D01*
X013850Y019411D01*
X013871Y019386D01*
X013890Y019359D01*
X013905Y019330D01*
X013916Y019300D01*
X013924Y019268D01*
X013928Y019235D01*
X013928Y019203D01*
X013924Y019170D01*
X013916Y019138D01*
X013905Y019108D01*
X013890Y019079D01*
X013871Y019052D01*
X013850Y019027D01*
X013826Y019005D01*
X013799Y018986D01*
X013771Y018970D01*
X013740Y018958D01*
X013709Y018949D01*
X013677Y018944D01*
X013644Y018943D01*
X013611Y018946D01*
X013579Y018953D01*
X013548Y018963D01*
X013519Y018977D01*
X013491Y018995D01*
X013466Y019015D01*
X013443Y019039D01*
X013423Y019065D01*
X013406Y019093D01*
X013393Y019123D01*
X013384Y019154D01*
X013378Y019186D01*
X013376Y019219D01*
D19*
X013217Y019179D02*
X011253Y019179D01*
X011253Y019132D02*
X011187Y018972D01*
X011064Y018849D01*
X010904Y018783D01*
X010731Y018783D01*
X010571Y018849D01*
X010448Y018972D01*
X010382Y019132D01*
X010382Y019305D01*
X010448Y019465D01*
X010571Y019588D01*
X010731Y019654D01*
X010904Y019654D01*
X011064Y019588D01*
X011187Y019465D01*
X011253Y019305D01*
X011253Y019132D01*
X011223Y019060D02*
X013246Y019060D01*
X013217Y019132D02*
X013283Y018972D01*
X013405Y018849D01*
X013566Y018783D01*
X013739Y018783D01*
X013899Y018849D01*
X014021Y018972D01*
X014088Y019132D01*
X014088Y019305D01*
X014021Y019465D01*
X013899Y019588D01*
X013739Y019654D01*
X013566Y019654D01*
X013405Y019588D01*
X013283Y019465D01*
X013217Y019305D01*
X013217Y019132D01*
X013217Y019297D02*
X011253Y019297D01*
X011207Y019416D02*
X013262Y019416D01*
X013352Y019534D02*
X011118Y019534D01*
X010908Y019653D02*
X013562Y019653D01*
X013743Y019653D02*
X025735Y019653D01*
X025735Y019771D02*
X002815Y019771D01*
X002815Y019653D02*
X004002Y019653D01*
X003957Y019634D02*
X003819Y019496D01*
X003745Y019316D01*
X003745Y019121D01*
X003819Y018941D01*
X003957Y018803D01*
X004137Y018729D01*
X004332Y018729D01*
X004512Y018803D01*
X004650Y018941D01*
X004725Y019121D01*
X004725Y019316D01*
X004650Y019496D01*
X004512Y019634D01*
X004332Y019709D01*
X004137Y019709D01*
X003957Y019634D01*
X003857Y019534D02*
X002815Y019534D01*
X002815Y019416D02*
X003786Y019416D01*
X003745Y019297D02*
X002815Y019297D01*
X002815Y019179D02*
X003745Y019179D01*
X003770Y019060D02*
X002815Y019060D01*
X002815Y018942D02*
X003819Y018942D01*
X003937Y018823D02*
X002815Y018823D01*
X002815Y018705D02*
X007102Y018705D01*
X007111Y018702D02*
X007193Y018689D01*
X007195Y018689D01*
X007195Y019179D01*
X007275Y019179D01*
X007275Y018689D01*
X007277Y018689D01*
X007359Y018702D01*
X007438Y018727D01*
X007513Y018765D01*
X007580Y018814D01*
X007639Y018873D01*
X007688Y018941D01*
X007726Y019015D01*
X007752Y019095D01*
X007753Y019102D01*
X007819Y018941D01*
X007957Y018803D01*
X008137Y018729D01*
X008332Y018729D01*
X008512Y018803D01*
X008650Y018941D01*
X008725Y019121D01*
X008725Y019316D01*
X008650Y019496D01*
X008512Y019634D01*
X008332Y019709D01*
X008137Y019709D01*
X007957Y019634D01*
X007819Y019496D01*
X007753Y019336D01*
X007752Y019343D01*
X007726Y019422D01*
X007688Y019496D01*
X007639Y019564D01*
X007580Y019623D01*
X007513Y019672D01*
X007438Y019710D01*
X007359Y019736D01*
X007277Y019749D01*
X007275Y019749D01*
X007275Y019259D01*
X007195Y019259D01*
X007195Y019749D01*
X007193Y019749D01*
X007111Y019736D01*
X007031Y019710D01*
X006957Y019672D01*
X006890Y019623D01*
X006831Y019564D01*
X006782Y019496D01*
X006744Y019422D01*
X006718Y019343D01*
X006717Y019336D01*
X006650Y019496D01*
X006512Y019634D01*
X006332Y019709D01*
X006137Y019709D01*
X005957Y019634D01*
X005819Y019496D01*
X005745Y019316D01*
X005745Y019121D01*
X005819Y018941D01*
X005957Y018803D01*
X006137Y018729D01*
X006332Y018729D01*
X006512Y018803D01*
X006650Y018941D01*
X006717Y019102D01*
X006718Y019095D01*
X006744Y019015D01*
X006782Y018941D01*
X006831Y018873D01*
X006890Y018814D01*
X006957Y018765D01*
X007031Y018727D01*
X007111Y018702D01*
X007195Y018705D02*
X007275Y018705D01*
X007368Y018705D02*
X025735Y018705D01*
X025735Y018823D02*
X013836Y018823D01*
X013991Y018942D02*
X025735Y018942D01*
X025735Y019060D02*
X014058Y019060D01*
X014088Y019179D02*
X025735Y019179D01*
X025735Y019297D02*
X014088Y019297D01*
X014042Y019416D02*
X025735Y019416D01*
X025735Y019534D02*
X013953Y019534D01*
X013313Y018942D02*
X011157Y018942D01*
X011001Y018823D02*
X013469Y018823D01*
X013253Y018394D02*
X013126Y018394D01*
X013010Y018346D01*
X012920Y018257D01*
X012872Y018140D01*
X012872Y018014D01*
X012920Y017897D01*
X013010Y017808D01*
X013126Y017759D01*
X013253Y017759D01*
X013369Y017808D01*
X013459Y017897D01*
X013507Y018014D01*
X013507Y018140D01*
X013459Y018257D01*
X013369Y018346D01*
X013253Y018394D01*
X013362Y018349D02*
X025735Y018349D01*
X025735Y018231D02*
X013470Y018231D01*
X013507Y018112D02*
X025735Y018112D01*
X025735Y017994D02*
X013499Y017994D01*
X013437Y017875D02*
X025735Y017875D01*
X025735Y017757D02*
X002815Y017757D01*
X002815Y017875D02*
X011033Y017875D01*
X011011Y017897D02*
X011100Y017808D01*
X011217Y017759D01*
X011343Y017759D01*
X011460Y017808D01*
X011549Y017897D01*
X011598Y018014D01*
X011598Y018140D01*
X011549Y018257D01*
X011460Y018346D01*
X011343Y018394D01*
X011217Y018394D01*
X011100Y018346D01*
X011011Y018257D01*
X010963Y018140D01*
X010963Y018014D01*
X011011Y017897D01*
X010971Y017994D02*
X002815Y017994D01*
X002815Y018112D02*
X010963Y018112D01*
X011000Y018231D02*
X002815Y018231D01*
X002815Y018349D02*
X011108Y018349D01*
X011452Y018349D02*
X013017Y018349D01*
X012910Y018231D02*
X011560Y018231D01*
X011598Y018112D02*
X012872Y018112D01*
X012880Y017994D02*
X011589Y017994D01*
X011527Y017875D02*
X012942Y017875D01*
X013566Y016846D02*
X013482Y016762D01*
X013437Y016653D01*
X013437Y016534D01*
X013482Y016425D01*
X013566Y016341D01*
X013676Y016296D01*
X013750Y016296D01*
X014535Y015511D01*
X014535Y015298D01*
X014033Y015800D01*
X014033Y015903D01*
X013988Y016012D01*
X013904Y016096D01*
X013794Y016142D01*
X013676Y016142D01*
X013566Y016096D01*
X013482Y016012D01*
X013437Y015903D01*
X013437Y015784D01*
X013482Y015675D01*
X013563Y015594D01*
X013482Y015512D01*
X013437Y015403D01*
X013437Y015284D01*
X013482Y015175D01*
X013566Y015091D01*
X013676Y015046D01*
X013778Y015046D01*
X013805Y015019D01*
X013805Y007210D01*
X012540Y007210D01*
X012540Y007092D02*
X013713Y007092D01*
X013732Y007137D02*
X013687Y007028D01*
X013687Y006909D01*
X013732Y006800D01*
X013816Y006716D01*
X013926Y006671D01*
X014044Y006671D01*
X014154Y006716D01*
X014180Y006742D01*
X014180Y006710D01*
X014107Y006637D01*
X014062Y006528D01*
X014062Y006409D01*
X014107Y006300D01*
X014191Y006216D01*
X014301Y006171D01*
X014419Y006171D01*
X014529Y006216D01*
X014555Y006242D01*
X014555Y006210D01*
X014482Y006137D01*
X014437Y006028D01*
X014437Y005909D01*
X014482Y005800D01*
X014566Y005716D01*
X014676Y005671D01*
X014794Y005671D01*
X014904Y005716D01*
X014988Y005800D01*
X015033Y005909D01*
X015033Y006028D01*
X014988Y006137D01*
X014915Y006210D01*
X014915Y013727D01*
X014988Y013800D01*
X015033Y013909D01*
X015033Y014028D01*
X014988Y014137D01*
X014935Y014190D01*
X014935Y014738D01*
X015168Y014505D01*
X015403Y014505D01*
X015403Y015159D01*
X015523Y015159D01*
X015523Y015279D01*
X015403Y015279D01*
X015403Y015932D01*
X015168Y015932D01*
X014923Y015688D01*
X014818Y015794D01*
X014033Y016578D01*
X014033Y016653D01*
X013988Y016762D01*
X013904Y016846D01*
X013794Y016892D01*
X013676Y016892D01*
X013566Y016846D01*
X013528Y016809D02*
X004725Y016809D01*
X004725Y016816D02*
X004650Y016996D01*
X004512Y017134D01*
X004332Y017209D01*
X004137Y017209D01*
X003957Y017134D01*
X003819Y016996D01*
X003745Y016816D01*
X003745Y016621D01*
X003819Y016441D01*
X003957Y016303D01*
X004055Y016263D01*
X004055Y013293D01*
X003430Y012668D01*
X003332Y012709D01*
X003137Y012709D01*
X002957Y012634D01*
X002819Y012496D01*
X002815Y012485D01*
X002815Y012952D01*
X002819Y012941D01*
X002957Y012803D01*
X003137Y012729D01*
X003332Y012729D01*
X003512Y012803D01*
X003650Y012941D01*
X003725Y013121D01*
X003725Y013316D01*
X003650Y013496D01*
X003512Y013634D01*
X003332Y013709D01*
X003137Y013709D01*
X002957Y013634D01*
X002819Y013496D01*
X002815Y013485D01*
X002815Y013952D01*
X002819Y013941D01*
X002957Y013803D01*
X003137Y013729D01*
X003332Y013729D01*
X003512Y013803D01*
X003650Y013941D01*
X003725Y014121D01*
X003725Y014316D01*
X003650Y014496D01*
X003512Y014634D01*
X003332Y014709D01*
X003137Y014709D01*
X002957Y014634D01*
X002819Y014496D01*
X002815Y014485D01*
X002815Y014952D01*
X002819Y014941D01*
X002957Y014803D01*
X003137Y014729D01*
X003332Y014729D01*
X003512Y014803D01*
X003650Y014941D01*
X003725Y015121D01*
X003725Y015316D01*
X003650Y015496D01*
X003512Y015634D01*
X003332Y015709D01*
X003137Y015709D01*
X002957Y015634D01*
X002819Y015496D01*
X002815Y015485D01*
X002815Y016452D01*
X002819Y016441D01*
X002957Y016303D01*
X003137Y016229D01*
X003332Y016229D01*
X003512Y016303D01*
X003650Y016441D01*
X003725Y016621D01*
X003725Y016816D01*
X003650Y016996D01*
X003512Y017134D01*
X003332Y017209D01*
X003137Y017209D01*
X002957Y017134D01*
X002819Y016996D01*
X002815Y016985D01*
X002815Y019896D01*
X025735Y019896D01*
X025735Y015932D01*
X025523Y015932D01*
X025523Y015279D01*
X025403Y015279D01*
X025403Y015932D01*
X025168Y015932D01*
X024749Y015514D01*
X024749Y015279D01*
X025403Y015279D01*
X025403Y015159D01*
X024749Y015159D01*
X024749Y014923D01*
X025168Y014505D01*
X025403Y014505D01*
X025403Y015159D01*
X025523Y015159D01*
X025523Y014505D01*
X025735Y014505D01*
X025735Y012426D01*
X025724Y012392D01*
X025711Y012308D01*
X025711Y012304D01*
X025735Y012304D01*
X025735Y012227D01*
X025711Y012227D01*
X025711Y012223D01*
X025724Y012139D01*
X025735Y012106D01*
X025735Y008219D01*
X025985Y008219D01*
X025985Y011795D01*
X026043Y011765D01*
X026124Y011739D01*
X026208Y011726D01*
X026212Y011726D01*
X026212Y012227D01*
X026289Y012227D01*
X026289Y011726D01*
X026293Y011726D01*
X026377Y011739D01*
X026458Y011765D01*
X026534Y011804D01*
X026602Y011854D01*
X026662Y011914D01*
X026712Y011983D01*
X026751Y012059D01*
X026764Y012097D01*
X026811Y011983D01*
X026952Y011842D01*
X027135Y011766D01*
X027334Y011766D01*
X027518Y011842D01*
X027659Y011983D01*
X027727Y012147D01*
X027795Y011983D01*
X027936Y011842D01*
X028120Y011766D01*
X028319Y011766D01*
X028502Y011842D01*
X028643Y011983D01*
X028719Y012166D01*
X028719Y012365D01*
X028643Y012549D01*
X028502Y012690D01*
X028319Y012766D01*
X028120Y012766D01*
X027936Y012690D01*
X027795Y012549D01*
X027727Y012384D01*
X027659Y012549D01*
X027518Y012690D01*
X027334Y012766D01*
X027135Y012766D01*
X026952Y012690D01*
X026811Y012549D01*
X026764Y012435D01*
X026751Y012473D01*
X026712Y012549D01*
X026662Y012618D01*
X026602Y012678D01*
X026534Y012728D01*
X026458Y012766D01*
X026377Y012793D01*
X026293Y012806D01*
X026289Y012806D01*
X026289Y012304D01*
X026212Y012304D01*
X026212Y012806D01*
X026208Y012806D01*
X026124Y012793D01*
X026043Y012766D01*
X025985Y012737D01*
X025985Y014731D01*
X026177Y014923D01*
X026177Y015159D01*
X025985Y015159D01*
X025985Y015279D01*
X026177Y015279D01*
X026177Y015514D01*
X025985Y015706D01*
X025985Y019896D01*
X041855Y019896D01*
X041855Y000541D01*
X025985Y000541D01*
X025985Y006219D01*
X025735Y006219D01*
X025735Y000541D01*
X015733Y000541D01*
X015762Y000553D01*
X015900Y000691D01*
X015975Y000871D01*
X015975Y001066D01*
X015900Y001246D01*
X015762Y001384D01*
X015582Y001459D01*
X015387Y001459D01*
X015207Y001384D01*
X015069Y001246D01*
X014995Y001066D01*
X014995Y000871D01*
X015069Y000691D01*
X015207Y000553D01*
X015237Y000541D01*
X014733Y000541D01*
X014762Y000553D01*
X014900Y000691D01*
X014975Y000871D01*
X014975Y001066D01*
X014934Y001164D01*
X015566Y001796D01*
X015669Y001796D01*
X015779Y001841D01*
X015863Y001925D01*
X015908Y002034D01*
X015908Y002153D01*
X015863Y002262D01*
X015779Y002346D01*
X015669Y002392D01*
X015551Y002392D01*
X015441Y002346D01*
X015357Y002262D01*
X015312Y002153D01*
X015312Y002050D01*
X014680Y001418D01*
X014582Y001459D01*
X014387Y001459D01*
X014207Y001384D01*
X014069Y001246D01*
X013995Y001066D01*
X013995Y000871D01*
X014069Y000691D01*
X014207Y000553D01*
X014237Y000541D01*
X013733Y000541D01*
X013762Y000553D01*
X013900Y000691D01*
X013975Y000871D01*
X013975Y001066D01*
X013900Y001246D01*
X013762Y001384D01*
X013582Y001459D01*
X013387Y001459D01*
X013207Y001384D01*
X013069Y001246D01*
X012995Y001066D01*
X012995Y000871D01*
X013069Y000691D01*
X013207Y000553D01*
X013237Y000541D01*
X012733Y000541D01*
X012762Y000553D01*
X012900Y000691D01*
X012975Y000871D01*
X012975Y001066D01*
X012900Y001246D01*
X012762Y001384D01*
X012582Y001459D01*
X012387Y001459D01*
X012207Y001384D01*
X012069Y001246D01*
X011995Y001066D01*
X011995Y000871D01*
X012069Y000691D01*
X012207Y000553D01*
X012237Y000541D01*
X011733Y000541D01*
X011762Y000553D01*
X011900Y000691D01*
X011975Y000871D01*
X011975Y001066D01*
X011900Y001246D01*
X011762Y001384D01*
X011582Y001459D01*
X011387Y001459D01*
X011207Y001384D01*
X011069Y001246D01*
X010995Y001066D01*
X010995Y000871D01*
X011069Y000691D01*
X011207Y000553D01*
X011237Y000541D01*
X010733Y000541D01*
X010762Y000553D01*
X010900Y000691D01*
X010975Y000871D01*
X010975Y001066D01*
X010900Y001246D01*
X010762Y001384D01*
X010582Y001459D01*
X010387Y001459D01*
X010207Y001384D01*
X010069Y001246D01*
X009995Y001066D01*
X009995Y000871D01*
X010069Y000691D01*
X010207Y000553D01*
X010237Y000541D01*
X009733Y000541D01*
X009762Y000553D01*
X009900Y000691D01*
X009975Y000871D01*
X009975Y001066D01*
X009900Y001246D01*
X009762Y001384D01*
X009582Y001459D01*
X009387Y001459D01*
X009207Y001384D01*
X009069Y001246D01*
X008995Y001066D01*
X008995Y000871D01*
X009069Y000691D01*
X009207Y000553D01*
X009237Y000541D01*
X008733Y000541D01*
X008762Y000553D01*
X008900Y000691D01*
X008975Y000871D01*
X008975Y001066D01*
X008900Y001246D01*
X008762Y001384D01*
X008582Y001459D01*
X008387Y001459D01*
X008207Y001384D01*
X008069Y001246D01*
X007995Y001066D01*
X007995Y000871D01*
X008069Y000691D01*
X008207Y000553D01*
X008237Y000541D01*
X007733Y000541D01*
X007762Y000553D01*
X007900Y000691D01*
X007975Y000871D01*
X007975Y001066D01*
X007900Y001246D01*
X007762Y001384D01*
X007582Y001459D01*
X007387Y001459D01*
X007207Y001384D01*
X007069Y001246D01*
X006995Y001066D01*
X006995Y000871D01*
X007069Y000691D01*
X007207Y000553D01*
X007237Y000541D01*
X006733Y000541D01*
X006762Y000553D01*
X006900Y000691D01*
X006975Y000871D01*
X006975Y001066D01*
X006900Y001246D01*
X006762Y001384D01*
X006582Y001459D01*
X006387Y001459D01*
X006207Y001384D01*
X006069Y001246D01*
X005995Y001066D01*
X005995Y000871D01*
X006069Y000691D01*
X006207Y000553D01*
X006237Y000541D01*
X002815Y000541D01*
X002815Y009895D01*
X002831Y009873D01*
X002890Y009814D01*
X002957Y009765D01*
X003031Y009727D01*
X003111Y009702D01*
X003193Y009689D01*
X003195Y009689D01*
X003195Y010179D01*
X003275Y010179D01*
X003275Y010259D01*
X003765Y010259D01*
X003765Y010260D01*
X003752Y010343D01*
X003726Y010422D01*
X003688Y010496D01*
X003639Y010564D01*
X003580Y010623D01*
X003513Y010672D01*
X003438Y010710D01*
X003359Y010736D01*
X003352Y010737D01*
X003512Y010803D01*
X003650Y010941D01*
X003725Y011121D01*
X003725Y011316D01*
X003650Y011496D01*
X003512Y011634D01*
X003332Y011709D01*
X003137Y011709D01*
X002957Y011634D01*
X002819Y011496D01*
X002815Y011485D01*
X002815Y011952D01*
X002819Y011941D01*
X002957Y011803D01*
X003137Y011729D01*
X003332Y011729D01*
X003512Y011803D01*
X003650Y011941D01*
X003725Y012121D01*
X003725Y012316D01*
X003684Y012414D01*
X004309Y013039D01*
X004415Y013144D01*
X004415Y016263D01*
X004512Y016303D01*
X004650Y016441D01*
X004725Y016621D01*
X004725Y016816D01*
X004679Y016927D02*
X025735Y016927D01*
X025735Y016809D02*
X013941Y016809D01*
X014018Y016690D02*
X025735Y016690D01*
X025735Y016572D02*
X014040Y016572D01*
X014158Y016453D02*
X025735Y016453D01*
X025735Y016335D02*
X014277Y016335D01*
X014395Y016216D02*
X025735Y016216D01*
X025735Y016098D02*
X014514Y016098D01*
X014632Y015979D02*
X025735Y015979D01*
X025523Y015861D02*
X025403Y015861D01*
X025403Y015742D02*
X025523Y015742D01*
X025523Y015624D02*
X025403Y015624D01*
X025403Y015505D02*
X025523Y015505D01*
X025523Y015387D02*
X025403Y015387D01*
X025403Y015268D02*
X019067Y015268D01*
X019067Y015279D02*
X019720Y015279D01*
X019720Y015514D01*
X019302Y015932D01*
X019067Y015932D01*
X019067Y015279D01*
X019067Y015159D01*
X019720Y015159D01*
X019720Y014923D01*
X019302Y014505D01*
X019067Y014505D01*
X019067Y015159D01*
X018947Y015159D01*
X018947Y014505D01*
X018711Y014505D01*
X018293Y014923D01*
X018293Y015159D01*
X018946Y015159D01*
X018946Y015279D01*
X018293Y015279D01*
X018293Y015514D01*
X018711Y015932D01*
X018947Y015932D01*
X018947Y015279D01*
X019067Y015279D01*
X019067Y015387D02*
X018947Y015387D01*
X018947Y015505D02*
X019067Y015505D01*
X019067Y015624D02*
X018947Y015624D01*
X018947Y015742D02*
X019067Y015742D01*
X019067Y015861D02*
X018947Y015861D01*
X018639Y015861D02*
X015830Y015861D01*
X015759Y015932D02*
X015523Y015932D01*
X015523Y015279D01*
X016177Y015279D01*
X016177Y015514D01*
X015759Y015932D01*
X015523Y015861D02*
X015403Y015861D01*
X015403Y015742D02*
X015523Y015742D01*
X015523Y015624D02*
X015403Y015624D01*
X015403Y015505D02*
X015523Y015505D01*
X015523Y015387D02*
X015403Y015387D01*
X015523Y015268D02*
X018946Y015268D01*
X018947Y015150D02*
X019067Y015150D01*
X019067Y015031D02*
X018947Y015031D01*
X018947Y014913D02*
X019067Y014913D01*
X019067Y014794D02*
X018947Y014794D01*
X018947Y014676D02*
X019067Y014676D01*
X019067Y014557D02*
X018947Y014557D01*
X018659Y014557D02*
X018568Y014557D01*
X018529Y014596D02*
X018419Y014642D01*
X018301Y014642D01*
X018191Y014596D01*
X018107Y014512D01*
X018062Y014403D01*
X018062Y014385D01*
X018016Y014339D01*
X017979Y014251D01*
X017979Y012708D01*
X017936Y012690D01*
X017795Y012549D01*
X017727Y012384D01*
X017659Y012549D01*
X017518Y012690D01*
X017334Y012766D01*
X017135Y012766D01*
X016952Y012690D01*
X016811Y012549D01*
X016764Y012435D01*
X016751Y012473D01*
X016712Y012549D01*
X016662Y012618D01*
X016602Y012678D01*
X016534Y012728D01*
X016458Y012766D01*
X016377Y012793D01*
X016293Y012806D01*
X016289Y012806D01*
X016289Y012304D01*
X016212Y012304D01*
X016212Y012227D01*
X016289Y012227D01*
X016289Y011726D01*
X016293Y011726D01*
X016377Y011739D01*
X016458Y011765D01*
X016534Y011804D01*
X016602Y011854D01*
X016662Y011914D01*
X016712Y011983D01*
X016751Y012059D01*
X016764Y012097D01*
X016811Y011983D01*
X016952Y011842D01*
X017135Y011766D01*
X017334Y011766D01*
X017518Y011842D01*
X017659Y011983D01*
X017727Y012147D01*
X017795Y011983D01*
X017936Y011842D01*
X018120Y011766D01*
X018319Y011766D01*
X018502Y011842D01*
X018643Y011983D01*
X018719Y012166D01*
X018719Y012365D01*
X018643Y012549D01*
X018502Y012690D01*
X018459Y012708D01*
X018459Y014062D01*
X018529Y014091D01*
X018613Y014175D01*
X018658Y014284D01*
X018658Y014403D01*
X018613Y014512D01*
X018529Y014596D01*
X018540Y014676D02*
X015930Y014676D01*
X016048Y014794D02*
X018422Y014794D01*
X018303Y014913D02*
X016167Y014913D01*
X016177Y014923D02*
X016177Y015159D01*
X015523Y015159D01*
X015523Y014505D01*
X015759Y014505D01*
X016177Y014923D01*
X016177Y015031D02*
X018293Y015031D01*
X018293Y015150D02*
X016177Y015150D01*
X016177Y015387D02*
X018293Y015387D01*
X018293Y015505D02*
X016177Y015505D01*
X016067Y015624D02*
X018402Y015624D01*
X018521Y015742D02*
X015949Y015742D01*
X015096Y015861D02*
X014751Y015861D01*
X014869Y015742D02*
X014977Y015742D01*
X014535Y015505D02*
X014328Y015505D01*
X014422Y015624D02*
X014209Y015624D01*
X014303Y015742D02*
X014091Y015742D01*
X014033Y015861D02*
X014185Y015861D01*
X014066Y015979D02*
X014001Y015979D01*
X013948Y016098D02*
X013901Y016098D01*
X013829Y016216D02*
X004415Y016216D01*
X004415Y016098D02*
X013569Y016098D01*
X013468Y015979D02*
X004415Y015979D01*
X004415Y015861D02*
X005096Y015861D01*
X005168Y015932D02*
X004749Y015514D01*
X004749Y015279D01*
X005403Y015279D01*
X005403Y015932D01*
X005168Y015932D01*
X005403Y015861D02*
X005523Y015861D01*
X005523Y015932D02*
X005759Y015932D01*
X006177Y015514D01*
X006177Y015279D01*
X005523Y015279D01*
X005403Y015279D01*
X005403Y015159D01*
X004749Y015159D01*
X004749Y014923D01*
X005168Y014505D01*
X005403Y014505D01*
X005403Y015159D01*
X005523Y015159D01*
X005523Y015279D01*
X005523Y015932D01*
X005523Y015742D02*
X005403Y015742D01*
X005403Y015624D02*
X005523Y015624D01*
X005523Y015505D02*
X005403Y015505D01*
X005403Y015387D02*
X005523Y015387D01*
X005523Y015268D02*
X008946Y015268D01*
X008946Y015279D02*
X008946Y015159D01*
X008293Y015159D01*
X008293Y014923D01*
X008711Y014505D01*
X008947Y014505D01*
X008947Y015159D01*
X009067Y015159D01*
X009067Y015279D01*
X009720Y015279D01*
X009720Y015514D01*
X009302Y015932D01*
X009067Y015932D01*
X009067Y015279D01*
X008947Y015279D01*
X008947Y015932D01*
X008711Y015932D01*
X008293Y015514D01*
X008293Y015279D01*
X008946Y015279D01*
X008947Y015387D02*
X009067Y015387D01*
X009067Y015505D02*
X008947Y015505D01*
X008947Y015624D02*
X009067Y015624D01*
X009067Y015742D02*
X008947Y015742D01*
X008947Y015861D02*
X009067Y015861D01*
X009374Y015861D02*
X013437Y015861D01*
X013454Y015742D02*
X009492Y015742D01*
X009611Y015624D02*
X013533Y015624D01*
X013479Y015505D02*
X009720Y015505D01*
X009720Y015387D02*
X013437Y015387D01*
X013443Y015268D02*
X009067Y015268D01*
X009067Y015159D02*
X009720Y015159D01*
X009720Y014923D01*
X009302Y014505D01*
X009067Y014505D01*
X009067Y015159D01*
X009067Y015150D02*
X008947Y015150D01*
X008947Y015031D02*
X009067Y015031D01*
X009067Y014913D02*
X008947Y014913D01*
X008947Y014794D02*
X009067Y014794D01*
X009067Y014676D02*
X008947Y014676D01*
X008947Y014557D02*
X009067Y014557D01*
X009354Y014557D02*
X012729Y014557D01*
X012732Y014550D02*
X012805Y014477D01*
X012805Y013043D01*
X012783Y013021D01*
X012783Y013028D01*
X012738Y013137D01*
X012654Y013221D01*
X012544Y013267D01*
X012426Y013267D01*
X012396Y013254D01*
X012408Y013284D01*
X012408Y013403D01*
X012363Y013512D01*
X012279Y013596D01*
X012169Y013642D01*
X012051Y013642D01*
X012021Y013629D01*
X012033Y013659D01*
X012033Y013778D01*
X011988Y013887D01*
X011904Y013971D01*
X011794Y014017D01*
X011676Y014017D01*
X011566Y013971D01*
X011482Y013887D01*
X011437Y013778D01*
X011437Y013675D01*
X010035Y012274D01*
X009930Y012168D01*
X009930Y006695D01*
X009915Y006710D01*
X009915Y012227D01*
X009988Y012300D01*
X010033Y012409D01*
X010033Y012528D01*
X009988Y012637D01*
X009904Y012721D01*
X009794Y012767D01*
X009676Y012767D01*
X009566Y012721D01*
X009482Y012637D01*
X009437Y012528D01*
X009437Y012409D01*
X009482Y012300D01*
X009555Y012227D01*
X009555Y006710D01*
X009533Y006688D01*
X009533Y006778D01*
X009488Y006887D01*
X009415Y006960D01*
X009415Y012977D01*
X009488Y013050D01*
X009533Y013159D01*
X009533Y013278D01*
X009488Y013387D01*
X009404Y013471D01*
X009294Y013517D01*
X009176Y013517D01*
X009066Y013471D01*
X008982Y013387D01*
X008937Y013278D01*
X008937Y013159D01*
X008982Y013050D01*
X009055Y012977D01*
X009055Y006960D01*
X008982Y006887D01*
X008937Y006778D01*
X008937Y006659D01*
X008982Y006550D01*
X009066Y006466D01*
X009176Y006421D01*
X009294Y006421D01*
X009404Y006466D01*
X009437Y006499D01*
X009437Y006409D01*
X009482Y006300D01*
X009566Y006216D01*
X009676Y006171D01*
X009794Y006171D01*
X009904Y006216D01*
X009930Y006242D01*
X009930Y005210D01*
X009857Y005137D01*
X009812Y005028D01*
X009812Y004909D01*
X009857Y004800D01*
X009941Y004716D01*
X010051Y004671D01*
X010169Y004671D01*
X010279Y004716D01*
X010363Y004800D01*
X010408Y004909D01*
X010408Y005028D01*
X010363Y005137D01*
X010290Y005210D01*
X010290Y005367D01*
X010316Y005341D01*
X010426Y005296D01*
X010544Y005296D01*
X010654Y005341D01*
X010738Y005425D01*
X010783Y005534D01*
X010783Y005653D01*
X010738Y005762D01*
X010665Y005835D01*
X010665Y005992D01*
X010691Y005966D01*
X010801Y005921D01*
X010919Y005921D01*
X011029Y005966D01*
X011113Y006050D01*
X011158Y006159D01*
X011158Y006262D01*
X014145Y006262D01*
X014074Y006381D02*
X011276Y006381D01*
X011158Y006262D02*
X011415Y006519D01*
X011415Y011644D01*
X011437Y011666D01*
X011437Y011659D01*
X011482Y011550D01*
X011555Y011477D01*
X011555Y007460D01*
X011482Y007387D01*
X011437Y007278D01*
X011437Y007159D01*
X011482Y007050D01*
X011566Y006966D01*
X011676Y006921D01*
X011794Y006921D01*
X011904Y006966D01*
X011988Y007050D01*
X012033Y007159D01*
X012033Y007278D01*
X011988Y007387D01*
X011915Y007460D01*
X011915Y011477D01*
X011988Y011550D01*
X012033Y011659D01*
X012033Y011778D01*
X011988Y011887D01*
X011904Y011971D01*
X011794Y012017D01*
X011788Y012017D01*
X012180Y012409D01*
X012180Y006960D01*
X012107Y006887D01*
X012062Y006778D01*
X012062Y006659D01*
X012107Y006550D01*
X012191Y006466D01*
X012301Y006421D01*
X012419Y006421D01*
X012529Y006466D01*
X012613Y006550D01*
X012658Y006659D01*
X012658Y006778D01*
X012613Y006887D01*
X012540Y006960D01*
X012540Y012269D01*
X013059Y012789D01*
X013165Y012894D01*
X013165Y014477D01*
X013238Y014550D01*
X013283Y014659D01*
X013283Y014778D01*
X013238Y014887D01*
X013154Y014971D01*
X013044Y015017D01*
X012926Y015017D01*
X012816Y014971D01*
X012732Y014887D01*
X012687Y014778D01*
X012687Y014659D01*
X012732Y014550D01*
X012805Y014439D02*
X004415Y014439D01*
X004415Y014557D02*
X005115Y014557D01*
X004997Y014676D02*
X004415Y014676D01*
X004415Y014794D02*
X004878Y014794D01*
X004760Y014913D02*
X004415Y014913D01*
X004415Y015031D02*
X004749Y015031D01*
X004749Y015150D02*
X004415Y015150D01*
X004415Y015268D02*
X005403Y015268D01*
X005403Y015150D02*
X005523Y015150D01*
X005523Y015159D02*
X005523Y014505D01*
X005759Y014505D01*
X006177Y014923D01*
X006177Y015159D01*
X005523Y015159D01*
X005523Y015031D02*
X005403Y015031D01*
X005403Y014913D02*
X005523Y014913D01*
X005523Y014794D02*
X005403Y014794D01*
X005403Y014676D02*
X005523Y014676D01*
X005523Y014557D02*
X005403Y014557D01*
X005811Y014557D02*
X008659Y014557D01*
X008540Y014676D02*
X005930Y014676D01*
X006048Y014794D02*
X008422Y014794D01*
X008303Y014913D02*
X006167Y014913D01*
X006177Y015031D02*
X008293Y015031D01*
X008293Y015150D02*
X006177Y015150D01*
X006177Y015387D02*
X008293Y015387D01*
X008293Y015505D02*
X006177Y015505D01*
X006067Y015624D02*
X008402Y015624D01*
X008521Y015742D02*
X005949Y015742D01*
X005830Y015861D02*
X008639Y015861D01*
X009720Y015150D02*
X013507Y015150D01*
X013735Y015344D02*
X013985Y015094D01*
X013985Y006969D01*
X013687Y006973D02*
X012540Y006973D01*
X012626Y006855D02*
X013709Y006855D01*
X013796Y006736D02*
X012658Y006736D01*
X012641Y006618D02*
X014099Y006618D01*
X014062Y006499D02*
X012562Y006499D01*
X012360Y006719D02*
X012360Y012344D01*
X012985Y012969D01*
X012985Y014719D01*
X013212Y014913D02*
X013805Y014913D01*
X013793Y015031D02*
X009720Y015031D01*
X009710Y014913D02*
X012757Y014913D01*
X012693Y014794D02*
X009591Y014794D01*
X009473Y014676D02*
X012687Y014676D01*
X012805Y014320D02*
X004415Y014320D01*
X004415Y014202D02*
X012805Y014202D01*
X012805Y014083D02*
X004415Y014083D01*
X004415Y013965D02*
X011559Y013965D01*
X011465Y013846D02*
X004415Y013846D01*
X004415Y013728D02*
X011437Y013728D01*
X011371Y013609D02*
X004415Y013609D01*
X004415Y013491D02*
X009113Y013491D01*
X008976Y013372D02*
X004415Y013372D01*
X004415Y013254D02*
X008937Y013254D01*
X008947Y013135D02*
X004406Y013135D01*
X004287Y013017D02*
X009015Y013017D01*
X009055Y012898D02*
X004169Y012898D01*
X004050Y012780D02*
X006084Y012780D01*
X006124Y012793D02*
X006043Y012766D01*
X005968Y012728D01*
X005899Y012678D01*
X005839Y012618D01*
X005789Y012549D01*
X005750Y012473D01*
X005724Y012392D01*
X005711Y012308D01*
X005711Y012304D01*
X006212Y012304D01*
X006212Y012227D01*
X006289Y012227D01*
X006289Y011726D01*
X006293Y011726D01*
X006377Y011739D01*
X006458Y011765D01*
X006534Y011804D01*
X006602Y011854D01*
X006662Y011914D01*
X006712Y011983D01*
X006751Y012059D01*
X006764Y012097D01*
X006811Y011983D01*
X006952Y011842D01*
X007135Y011766D01*
X007334Y011766D01*
X007518Y011842D01*
X007659Y011983D01*
X007727Y012147D01*
X007795Y011983D01*
X007936Y011842D01*
X007979Y011824D01*
X007979Y009384D01*
X007920Y009325D01*
X007874Y009215D01*
X007874Y009097D01*
X007920Y008987D01*
X008003Y008903D01*
X008113Y008858D01*
X008232Y008858D01*
X008341Y008903D01*
X008425Y008987D01*
X008470Y009097D01*
X008470Y009215D01*
X008459Y009243D01*
X008459Y011824D01*
X008502Y011842D01*
X008643Y011983D01*
X008719Y012166D01*
X008719Y012365D01*
X008643Y012549D01*
X008502Y012690D01*
X008319Y012766D01*
X008120Y012766D01*
X007936Y012690D01*
X007795Y012549D01*
X007727Y012384D01*
X007659Y012549D01*
X007518Y012690D01*
X007334Y012766D01*
X007135Y012766D01*
X006952Y012690D01*
X006811Y012549D01*
X006764Y012435D01*
X006751Y012473D01*
X006712Y012549D01*
X006662Y012618D01*
X006602Y012678D01*
X006534Y012728D01*
X006458Y012766D01*
X006377Y012793D01*
X006293Y012806D01*
X006289Y012806D01*
X006289Y012304D01*
X006212Y012304D01*
X006212Y012806D01*
X006208Y012806D01*
X006124Y012793D01*
X006212Y012780D02*
X006289Y012780D01*
X006289Y012661D02*
X006212Y012661D01*
X006212Y012543D02*
X006289Y012543D01*
X006289Y012424D02*
X006212Y012424D01*
X006212Y012306D02*
X006289Y012306D01*
X006212Y012227D02*
X005711Y012227D01*
X005711Y012223D01*
X005724Y012139D01*
X005750Y012059D01*
X005789Y011983D01*
X005839Y011914D01*
X005899Y011854D01*
X005968Y011804D01*
X006043Y011765D01*
X006124Y011739D01*
X006208Y011726D01*
X006212Y011726D01*
X006212Y012227D01*
X006212Y012187D02*
X006289Y012187D01*
X006289Y012069D02*
X006212Y012069D01*
X006212Y011950D02*
X006289Y011950D01*
X006289Y011832D02*
X006212Y011832D01*
X005930Y011832D02*
X003541Y011832D01*
X003654Y011950D02*
X005813Y011950D01*
X005747Y012069D02*
X003703Y012069D01*
X003725Y012187D02*
X005716Y012187D01*
X005711Y012306D02*
X003725Y012306D01*
X003695Y012424D02*
X005734Y012424D01*
X005786Y012543D02*
X003813Y012543D01*
X003932Y012661D02*
X005882Y012661D01*
X006417Y012780D02*
X009055Y012780D01*
X009055Y012661D02*
X008531Y012661D01*
X008646Y012543D02*
X009055Y012543D01*
X009055Y012424D02*
X008695Y012424D01*
X008719Y012306D02*
X009055Y012306D01*
X009055Y012187D02*
X008719Y012187D01*
X008679Y012069D02*
X009055Y012069D01*
X009055Y011950D02*
X008610Y011950D01*
X008477Y011832D02*
X009055Y011832D01*
X009055Y011713D02*
X008459Y011713D01*
X008459Y011595D02*
X009055Y011595D01*
X009055Y011476D02*
X008459Y011476D01*
X008459Y011358D02*
X009055Y011358D01*
X009055Y011239D02*
X008459Y011239D01*
X008459Y011121D02*
X009055Y011121D01*
X009055Y011002D02*
X008459Y011002D01*
X008459Y010884D02*
X009055Y010884D01*
X009055Y010765D02*
X008459Y010765D01*
X008459Y010647D02*
X009055Y010647D01*
X009055Y010528D02*
X008459Y010528D01*
X008459Y010410D02*
X009055Y010410D01*
X009055Y010291D02*
X008459Y010291D01*
X008459Y010173D02*
X009055Y010173D01*
X009055Y010054D02*
X008459Y010054D01*
X008459Y009936D02*
X009055Y009936D01*
X009055Y009817D02*
X008459Y009817D01*
X008459Y009699D02*
X009055Y009699D01*
X009055Y009580D02*
X008459Y009580D01*
X008459Y009462D02*
X009055Y009462D01*
X009055Y009343D02*
X008459Y009343D01*
X008467Y009225D02*
X009055Y009225D01*
X009055Y009106D02*
X008470Y009106D01*
X008425Y008988D02*
X009055Y008988D01*
X009055Y008869D02*
X008259Y008869D01*
X008086Y008869D02*
X002815Y008869D01*
X002815Y008751D02*
X009055Y008751D01*
X009055Y008632D02*
X002815Y008632D01*
X002815Y008514D02*
X009055Y008514D01*
X009055Y008395D02*
X002815Y008395D01*
X002815Y008277D02*
X009055Y008277D01*
X009055Y008158D02*
X002815Y008158D01*
X002815Y008040D02*
X009055Y008040D01*
X009055Y007921D02*
X002815Y007921D01*
X002815Y007803D02*
X009055Y007803D01*
X009055Y007684D02*
X002815Y007684D01*
X002815Y007566D02*
X009055Y007566D01*
X009055Y007447D02*
X002815Y007447D01*
X002815Y007329D02*
X009055Y007329D01*
X009055Y007210D02*
X002815Y007210D01*
X002815Y007092D02*
X009055Y007092D01*
X009055Y006973D02*
X002815Y006973D01*
X002815Y006855D02*
X008969Y006855D01*
X008937Y006736D02*
X002815Y006736D01*
X002815Y006618D02*
X008954Y006618D01*
X009033Y006499D02*
X002815Y006499D01*
X002815Y006381D02*
X009449Y006381D01*
X009520Y006262D02*
X002815Y006262D01*
X002815Y006144D02*
X009930Y006144D01*
X009930Y006025D02*
X002815Y006025D01*
X002815Y005907D02*
X009930Y005907D01*
X009930Y005788D02*
X002815Y005788D01*
X002815Y005670D02*
X009930Y005670D01*
X009930Y005551D02*
X002815Y005551D01*
X002815Y005433D02*
X009930Y005433D01*
X009930Y005314D02*
X002815Y005314D01*
X002815Y005196D02*
X009915Y005196D01*
X009832Y005077D02*
X002815Y005077D01*
X002815Y004959D02*
X009812Y004959D01*
X009840Y004840D02*
X002815Y004840D01*
X002815Y004722D02*
X009935Y004722D01*
X010110Y004969D02*
X010110Y012094D01*
X011735Y013719D01*
X012033Y013728D02*
X012805Y013728D01*
X012805Y013846D02*
X012005Y013846D01*
X011910Y013965D02*
X012805Y013965D01*
X013165Y013965D02*
X013805Y013965D01*
X013805Y014083D02*
X013165Y014083D01*
X013165Y014202D02*
X013805Y014202D01*
X013805Y014320D02*
X013165Y014320D01*
X013165Y014439D02*
X013805Y014439D01*
X013805Y014557D02*
X013241Y014557D01*
X013283Y014676D02*
X013805Y014676D01*
X013805Y014794D02*
X013276Y014794D01*
X013735Y015844D02*
X014360Y015219D01*
X014360Y006469D01*
X014488Y006144D02*
X011151Y006144D01*
X011088Y006025D02*
X014437Y006025D01*
X014438Y005907D02*
X010665Y005907D01*
X010712Y005788D02*
X014494Y005788D01*
X014735Y005969D02*
X014735Y013969D01*
X015010Y014083D02*
X017979Y014083D01*
X017979Y013965D02*
X015033Y013965D01*
X015007Y013846D02*
X017979Y013846D01*
X017979Y013728D02*
X014915Y013728D01*
X014915Y013609D02*
X017979Y013609D01*
X017979Y013491D02*
X014915Y013491D01*
X014915Y013372D02*
X017979Y013372D01*
X017979Y013254D02*
X015326Y013254D01*
X015294Y013267D02*
X015176Y013267D01*
X015066Y013221D01*
X014982Y013137D01*
X014937Y013028D01*
X014937Y012909D01*
X014982Y012800D01*
X014995Y012787D01*
X014995Y008775D01*
X014982Y008762D01*
X014937Y008653D01*
X014937Y008534D01*
X014982Y008425D01*
X015066Y008341D01*
X015176Y008296D01*
X015294Y008296D01*
X015404Y008341D01*
X015488Y008425D01*
X015533Y008534D01*
X015533Y008653D01*
X015488Y008762D01*
X015475Y008775D01*
X015475Y012787D01*
X015488Y012800D01*
X015533Y012909D01*
X015533Y013028D01*
X015488Y013137D01*
X015404Y013221D01*
X015294Y013267D01*
X015144Y013254D02*
X014915Y013254D01*
X014915Y013135D02*
X014981Y013135D01*
X014937Y013017D02*
X014915Y013017D01*
X014915Y012898D02*
X014941Y012898D01*
X014915Y012780D02*
X014995Y012780D01*
X014995Y012661D02*
X014915Y012661D01*
X014915Y012543D02*
X014995Y012543D01*
X014995Y012424D02*
X014915Y012424D01*
X014915Y012306D02*
X014995Y012306D01*
X014995Y012187D02*
X014915Y012187D01*
X014915Y012069D02*
X014995Y012069D01*
X014995Y011950D02*
X014915Y011950D01*
X014915Y011832D02*
X014995Y011832D01*
X014995Y011713D02*
X014915Y011713D01*
X014915Y011595D02*
X014995Y011595D01*
X014995Y011476D02*
X014915Y011476D01*
X014915Y011358D02*
X014995Y011358D01*
X014995Y011239D02*
X014915Y011239D01*
X014915Y011121D02*
X014995Y011121D01*
X014995Y011002D02*
X014915Y011002D01*
X014915Y010884D02*
X014995Y010884D01*
X014995Y010765D02*
X014915Y010765D01*
X014915Y010647D02*
X014995Y010647D01*
X014995Y010528D02*
X014915Y010528D01*
X014915Y010410D02*
X014995Y010410D01*
X014995Y010291D02*
X014915Y010291D01*
X014915Y010173D02*
X014995Y010173D01*
X014995Y010054D02*
X014915Y010054D01*
X014915Y009936D02*
X014995Y009936D01*
X014995Y009817D02*
X014915Y009817D01*
X014915Y009699D02*
X014995Y009699D01*
X014995Y009580D02*
X014915Y009580D01*
X014915Y009462D02*
X014995Y009462D01*
X014995Y009343D02*
X014915Y009343D01*
X014915Y009225D02*
X014995Y009225D01*
X014995Y009106D02*
X014915Y009106D01*
X014915Y008988D02*
X014995Y008988D01*
X014995Y008869D02*
X014915Y008869D01*
X014915Y008751D02*
X014977Y008751D01*
X014937Y008632D02*
X014915Y008632D01*
X014915Y008514D02*
X014945Y008514D01*
X014915Y008395D02*
X015012Y008395D01*
X014915Y008277D02*
X022495Y008277D01*
X022495Y008395D02*
X015458Y008395D01*
X015524Y008514D02*
X022445Y008514D01*
X022437Y008534D02*
X022482Y008425D01*
X022495Y008412D01*
X022495Y006275D01*
X022482Y006262D01*
X018540Y006262D01*
X018540Y006144D02*
X022437Y006144D01*
X022437Y006153D02*
X022437Y006034D01*
X022482Y005925D01*
X022566Y005841D01*
X022676Y005796D01*
X022794Y005796D01*
X022904Y005841D01*
X022988Y005925D01*
X023033Y006034D01*
X023033Y006153D01*
X022988Y006262D01*
X028556Y006262D01*
X028637Y006229D02*
X028832Y006229D01*
X029012Y006303D01*
X029150Y006441D01*
X029225Y006621D01*
X029225Y006816D01*
X029150Y006996D01*
X029012Y007134D01*
X028832Y007209D01*
X028637Y007209D01*
X028457Y007134D01*
X028319Y006996D01*
X028245Y006816D01*
X028245Y006621D01*
X028319Y006441D01*
X028457Y006303D01*
X028637Y006229D01*
X028637Y006209D02*
X028457Y006134D01*
X028319Y005996D01*
X028245Y005816D01*
X028245Y005621D01*
X028319Y005441D01*
X028457Y005303D01*
X028637Y005229D01*
X028832Y005229D01*
X029012Y005303D01*
X029150Y005441D01*
X029225Y005621D01*
X029225Y005816D01*
X029150Y005996D01*
X029012Y006134D01*
X028832Y006209D01*
X028637Y006209D01*
X028480Y006144D02*
X025985Y006144D01*
X025985Y006025D02*
X028348Y006025D01*
X028282Y005907D02*
X025985Y005907D01*
X025985Y005788D02*
X028245Y005788D01*
X028245Y005670D02*
X025985Y005670D01*
X025985Y005551D02*
X028274Y005551D01*
X028328Y005433D02*
X025985Y005433D01*
X025985Y005314D02*
X028446Y005314D01*
X029023Y005314D02*
X030705Y005314D01*
X030705Y005196D02*
X025985Y005196D01*
X025985Y005077D02*
X030705Y005077D01*
X030705Y004959D02*
X025985Y004959D01*
X025985Y004840D02*
X030705Y004840D01*
X030705Y004722D02*
X025985Y004722D01*
X025985Y004603D02*
X030705Y004603D01*
X030705Y004485D02*
X025985Y004485D01*
X025985Y004366D02*
X030705Y004366D01*
X030705Y004248D02*
X025985Y004248D01*
X025985Y004129D02*
X026628Y004129D01*
X026651Y004139D02*
X026497Y004075D01*
X026379Y003957D01*
X026315Y003802D01*
X026315Y003635D01*
X026379Y003481D01*
X026497Y003363D01*
X026651Y003299D01*
X026818Y003299D01*
X026973Y003363D01*
X027091Y003481D01*
X027155Y003635D01*
X027155Y003802D01*
X027091Y003957D01*
X026973Y004075D01*
X026818Y004139D01*
X026651Y004139D01*
X026841Y004129D02*
X030705Y004129D01*
X030705Y004011D02*
X027037Y004011D01*
X027118Y003892D02*
X030705Y003892D01*
X030705Y003774D02*
X027155Y003774D01*
X027155Y003655D02*
X030705Y003655D01*
X030705Y003537D02*
X027114Y003537D01*
X027028Y003418D02*
X030705Y003418D01*
X030705Y003300D02*
X026821Y003300D01*
X026771Y003179D02*
X026765Y003179D01*
X026765Y002749D01*
X026705Y002749D01*
X026705Y003179D01*
X026699Y003179D01*
X026627Y003167D01*
X026558Y003145D01*
X026494Y003112D01*
X026435Y003070D01*
X026384Y003018D01*
X026341Y002960D01*
X026309Y002895D01*
X026286Y002826D01*
X025985Y002826D01*
X025985Y002944D02*
X026333Y002944D01*
X026286Y002826D02*
X026275Y002755D01*
X026275Y002749D01*
X026705Y002749D01*
X026705Y002689D01*
X026275Y002689D01*
X026275Y002682D01*
X026286Y002611D01*
X026309Y002542D01*
X026341Y002478D01*
X026384Y002419D01*
X026435Y002368D01*
X026494Y002325D01*
X026558Y002292D01*
X026627Y002270D01*
X026699Y002259D01*
X026705Y002259D01*
X026705Y002689D01*
X026765Y002689D01*
X026765Y002749D01*
X027195Y002749D01*
X027195Y002755D01*
X027184Y002826D01*
X030741Y002826D01*
X030745Y002816D02*
X030705Y002913D01*
X030705Y008616D01*
X030687Y008659D01*
X030687Y008778D01*
X030732Y008887D01*
X030816Y008971D01*
X030926Y009017D01*
X031044Y009017D01*
X031154Y008971D01*
X031238Y008887D01*
X031283Y008778D01*
X031283Y008659D01*
X031265Y008616D01*
X031265Y003209D01*
X031332Y003209D01*
X031512Y003134D01*
X031650Y002996D01*
X031717Y002836D01*
X031718Y002843D01*
X031744Y002922D01*
X031782Y002996D01*
X031831Y003064D01*
X031890Y003123D01*
X031957Y003172D01*
X032031Y003210D01*
X032111Y003236D01*
X032193Y003249D01*
X032195Y003249D01*
X032195Y002759D01*
X032275Y002759D01*
X032275Y003249D01*
X032277Y003249D01*
X032359Y003236D01*
X032438Y003210D01*
X032513Y003172D01*
X032580Y003123D01*
X032639Y003064D01*
X032688Y002996D01*
X032726Y002922D01*
X032752Y002843D01*
X032765Y002760D01*
X032765Y002759D01*
X032275Y002759D01*
X032275Y002679D01*
X032765Y002679D01*
X032765Y002677D01*
X032752Y002595D01*
X032726Y002515D01*
X032688Y002441D01*
X032639Y002373D01*
X032580Y002314D01*
X032513Y002265D01*
X032438Y002227D01*
X032359Y002202D01*
X032277Y002189D01*
X032275Y002189D01*
X032275Y002679D01*
X032195Y002679D01*
X032195Y002189D01*
X032193Y002189D01*
X032111Y002202D01*
X032031Y002227D01*
X031957Y002265D01*
X031890Y002314D01*
X031831Y002373D01*
X031782Y002441D01*
X031744Y002515D01*
X031718Y002595D01*
X031717Y002602D01*
X031650Y002441D01*
X031512Y002303D01*
X031332Y002229D01*
X031137Y002229D01*
X030957Y002303D01*
X030819Y002441D01*
X030745Y002621D01*
X030745Y002816D01*
X030745Y002816D01*
X030745Y002707D02*
X026765Y002707D01*
X026765Y002689D02*
X027195Y002689D01*
X027195Y002682D01*
X027184Y002611D01*
X027161Y002542D01*
X027128Y002478D01*
X027086Y002419D01*
X027035Y002368D01*
X026976Y002325D01*
X026911Y002292D01*
X026843Y002270D01*
X026771Y002259D01*
X026765Y002259D01*
X026765Y002689D01*
X026705Y002707D02*
X025985Y002707D01*
X025985Y002589D02*
X026293Y002589D01*
X026347Y002470D02*
X025985Y002470D01*
X025985Y002352D02*
X026457Y002352D01*
X026385Y002139D02*
X026315Y002068D01*
X026315Y001369D01*
X026385Y001299D01*
X027085Y001299D01*
X027155Y001369D01*
X027155Y002068D01*
X027085Y002139D01*
X026385Y002139D01*
X026361Y002115D02*
X025985Y002115D01*
X025985Y002233D02*
X031127Y002233D01*
X031343Y002233D02*
X032020Y002233D01*
X032195Y002233D02*
X032275Y002233D01*
X032275Y002352D02*
X032195Y002352D01*
X032195Y002470D02*
X032275Y002470D01*
X032275Y002589D02*
X032195Y002589D01*
X032275Y002707D02*
X041855Y002707D01*
X041855Y002589D02*
X032750Y002589D01*
X032703Y002470D02*
X041855Y002470D01*
X041855Y002352D02*
X032617Y002352D01*
X032449Y002233D02*
X041855Y002233D01*
X041855Y002115D02*
X027109Y002115D01*
X027155Y001996D02*
X041855Y001996D01*
X041855Y001878D02*
X027155Y001878D01*
X027155Y001759D02*
X041855Y001759D01*
X041855Y001641D02*
X027155Y001641D01*
X027155Y001522D02*
X041855Y001522D01*
X041855Y001404D02*
X027155Y001404D01*
X026315Y001404D02*
X025985Y001404D01*
X025985Y001522D02*
X026315Y001522D01*
X026315Y001641D02*
X025985Y001641D01*
X025985Y001759D02*
X026315Y001759D01*
X026315Y001878D02*
X025985Y001878D01*
X025985Y001996D02*
X026315Y001996D01*
X026705Y002352D02*
X026765Y002352D01*
X026765Y002470D02*
X026705Y002470D01*
X026705Y002589D02*
X026765Y002589D01*
X027012Y002352D02*
X030909Y002352D01*
X030807Y002470D02*
X027123Y002470D01*
X027176Y002589D02*
X030758Y002589D01*
X030705Y002944D02*
X027136Y002944D01*
X027128Y002960D02*
X027086Y003018D01*
X027035Y003070D01*
X026976Y003112D01*
X026911Y003145D01*
X026843Y003167D01*
X026771Y003179D01*
X026765Y003063D02*
X026705Y003063D01*
X026705Y002944D02*
X026765Y002944D01*
X026765Y002826D02*
X026705Y002826D01*
X026428Y003063D02*
X025985Y003063D01*
X025985Y003181D02*
X030705Y003181D01*
X030705Y003063D02*
X027041Y003063D01*
X027128Y002960D02*
X027161Y002895D01*
X027184Y002826D01*
X026649Y003300D02*
X025985Y003300D01*
X025985Y003418D02*
X026441Y003418D01*
X026356Y003537D02*
X025985Y003537D01*
X025985Y003655D02*
X026315Y003655D01*
X026315Y003774D02*
X025985Y003774D01*
X025985Y003892D02*
X026352Y003892D01*
X026433Y004011D02*
X025985Y004011D01*
X025735Y004011D02*
X018540Y004011D01*
X018540Y004129D02*
X025735Y004129D01*
X025735Y004248D02*
X018540Y004248D01*
X018540Y004366D02*
X025735Y004366D01*
X025735Y004485D02*
X018540Y004485D01*
X018540Y004603D02*
X025735Y004603D01*
X025735Y004722D02*
X018540Y004722D01*
X018540Y004840D02*
X021548Y004840D01*
X021569Y004819D02*
X021901Y004819D01*
X022135Y005053D01*
X022135Y005384D01*
X021901Y005619D01*
X021569Y005619D01*
X021335Y005384D01*
X021335Y005053D01*
X021569Y004819D01*
X021429Y004959D02*
X018540Y004959D01*
X018540Y005077D02*
X021335Y005077D01*
X021335Y005196D02*
X018540Y005196D01*
X018540Y005314D02*
X021335Y005314D01*
X021383Y005433D02*
X018540Y005433D01*
X018540Y005551D02*
X021502Y005551D01*
X021968Y005551D02*
X022445Y005551D01*
X022553Y005659D02*
X022295Y005401D01*
X022295Y005239D01*
X022715Y005239D01*
X022715Y005659D01*
X022553Y005659D01*
X022715Y005551D02*
X022755Y005551D01*
X022755Y005659D02*
X022755Y005239D01*
X022715Y005239D01*
X022715Y005199D01*
X022295Y005199D01*
X022295Y005036D01*
X022553Y004779D01*
X022715Y004779D01*
X022715Y005199D01*
X022755Y005199D01*
X022755Y005239D01*
X023175Y005239D01*
X023175Y005401D01*
X022917Y005659D01*
X022755Y005659D01*
X022755Y005433D02*
X022715Y005433D01*
X022715Y005314D02*
X022755Y005314D01*
X022755Y005199D02*
X023175Y005199D01*
X023175Y005036D01*
X022917Y004779D01*
X022755Y004779D01*
X022755Y005199D01*
X022755Y005196D02*
X022715Y005196D01*
X022715Y005077D02*
X022755Y005077D01*
X022755Y004959D02*
X022715Y004959D01*
X022715Y004840D02*
X022755Y004840D01*
X022979Y004840D02*
X025735Y004840D01*
X025735Y004959D02*
X023097Y004959D01*
X023175Y005077D02*
X025735Y005077D01*
X025735Y005196D02*
X023175Y005196D01*
X023175Y005314D02*
X025735Y005314D01*
X025735Y005433D02*
X023143Y005433D01*
X023025Y005551D02*
X025735Y005551D01*
X025735Y005670D02*
X018540Y005670D01*
X018540Y005788D02*
X025735Y005788D01*
X025735Y005907D02*
X022969Y005907D01*
X023029Y006025D02*
X025735Y006025D01*
X025735Y006144D02*
X023033Y006144D01*
X022988Y006262D02*
X022975Y006275D01*
X022975Y008412D01*
X022988Y008425D01*
X023033Y008534D01*
X023033Y008653D01*
X022988Y008762D01*
X022904Y008846D01*
X022794Y008892D01*
X022676Y008892D01*
X022566Y008846D01*
X022482Y008762D01*
X022437Y008653D01*
X022437Y008534D01*
X022437Y008632D02*
X015533Y008632D01*
X015492Y008751D02*
X022477Y008751D01*
X022621Y008869D02*
X015475Y008869D01*
X015475Y008988D02*
X025735Y008988D01*
X025735Y009106D02*
X015475Y009106D01*
X015475Y009225D02*
X025735Y009225D01*
X025735Y009343D02*
X015475Y009343D01*
X015475Y009462D02*
X025735Y009462D01*
X025735Y009580D02*
X015475Y009580D01*
X015475Y009699D02*
X025735Y009699D01*
X025735Y009817D02*
X015475Y009817D01*
X015475Y009936D02*
X025735Y009936D01*
X025735Y010054D02*
X015475Y010054D01*
X015475Y010173D02*
X025735Y010173D01*
X025735Y010291D02*
X015475Y010291D01*
X015475Y010410D02*
X025735Y010410D01*
X025735Y010528D02*
X015475Y010528D01*
X015475Y010647D02*
X025735Y010647D01*
X025735Y010765D02*
X015475Y010765D01*
X015475Y010884D02*
X025735Y010884D01*
X025735Y011002D02*
X015475Y011002D01*
X015475Y011121D02*
X025735Y011121D01*
X025735Y011239D02*
X015475Y011239D01*
X015475Y011358D02*
X025735Y011358D01*
X025735Y011476D02*
X015475Y011476D01*
X015475Y011595D02*
X025735Y011595D01*
X025735Y011713D02*
X015475Y011713D01*
X015475Y011832D02*
X015930Y011832D01*
X015899Y011854D02*
X015968Y011804D01*
X016043Y011765D01*
X016124Y011739D01*
X016208Y011726D01*
X016212Y011726D01*
X016212Y012227D01*
X015711Y012227D01*
X015711Y012223D01*
X015724Y012139D01*
X015750Y012059D01*
X015789Y011983D01*
X015839Y011914D01*
X015899Y011854D01*
X015813Y011950D02*
X015475Y011950D01*
X015475Y012069D02*
X015747Y012069D01*
X015716Y012187D02*
X015475Y012187D01*
X015475Y012306D02*
X015711Y012306D01*
X015711Y012304D02*
X016212Y012304D01*
X016212Y012806D01*
X016208Y012806D01*
X016124Y012793D01*
X016043Y012766D01*
X015968Y012728D01*
X015899Y012678D01*
X015839Y012618D01*
X015789Y012549D01*
X015750Y012473D01*
X015724Y012392D01*
X015711Y012308D01*
X015711Y012304D01*
X015734Y012424D02*
X015475Y012424D01*
X015475Y012543D02*
X015786Y012543D01*
X015882Y012661D02*
X015475Y012661D01*
X015475Y012780D02*
X016084Y012780D01*
X016212Y012780D02*
X016289Y012780D01*
X016289Y012661D02*
X016212Y012661D01*
X016212Y012543D02*
X016289Y012543D01*
X016289Y012424D02*
X016212Y012424D01*
X016212Y012306D02*
X016289Y012306D01*
X016289Y012187D02*
X016212Y012187D01*
X016212Y012069D02*
X016289Y012069D01*
X016289Y011950D02*
X016212Y011950D01*
X016212Y011832D02*
X016289Y011832D01*
X016572Y011832D02*
X016977Y011832D01*
X016843Y011950D02*
X016689Y011950D01*
X016754Y012069D02*
X016775Y012069D01*
X016808Y012543D02*
X016716Y012543D01*
X016619Y012661D02*
X016923Y012661D01*
X016417Y012780D02*
X017979Y012780D01*
X017979Y012898D02*
X015528Y012898D01*
X015533Y013017D02*
X017979Y013017D01*
X017979Y013135D02*
X015489Y013135D01*
X013805Y013135D02*
X013165Y013135D01*
X013165Y013017D02*
X013805Y013017D01*
X013805Y012898D02*
X013165Y012898D01*
X013050Y012780D02*
X013805Y012780D01*
X013805Y012661D02*
X012932Y012661D01*
X012813Y012543D02*
X013805Y012543D01*
X013805Y012424D02*
X012695Y012424D01*
X012576Y012306D02*
X013805Y012306D01*
X013805Y012187D02*
X012540Y012187D01*
X012540Y012069D02*
X013805Y012069D01*
X013805Y011950D02*
X012540Y011950D01*
X012540Y011832D02*
X013805Y011832D01*
X013805Y011713D02*
X012540Y011713D01*
X012540Y011595D02*
X013805Y011595D01*
X013805Y011476D02*
X012540Y011476D01*
X012540Y011358D02*
X013805Y011358D01*
X013805Y011239D02*
X012540Y011239D01*
X012540Y011121D02*
X013805Y011121D01*
X013805Y011002D02*
X012540Y011002D01*
X012540Y010884D02*
X013805Y010884D01*
X013805Y010765D02*
X012540Y010765D01*
X012540Y010647D02*
X013805Y010647D01*
X013805Y010528D02*
X012540Y010528D01*
X012540Y010410D02*
X013805Y010410D01*
X013805Y010291D02*
X012540Y010291D01*
X012540Y010173D02*
X013805Y010173D01*
X013805Y010054D02*
X012540Y010054D01*
X012540Y009936D02*
X013805Y009936D01*
X013805Y009817D02*
X012540Y009817D01*
X012540Y009699D02*
X013805Y009699D01*
X013805Y009580D02*
X012540Y009580D01*
X012540Y009462D02*
X013805Y009462D01*
X013805Y009343D02*
X012540Y009343D01*
X012540Y009225D02*
X013805Y009225D01*
X013805Y009106D02*
X012540Y009106D01*
X012540Y008988D02*
X013805Y008988D01*
X013805Y008869D02*
X012540Y008869D01*
X012540Y008751D02*
X013805Y008751D01*
X013805Y008632D02*
X012540Y008632D01*
X012540Y008514D02*
X013805Y008514D01*
X013805Y008395D02*
X012540Y008395D01*
X012540Y008277D02*
X013805Y008277D01*
X013805Y008158D02*
X012540Y008158D01*
X012540Y008040D02*
X013805Y008040D01*
X013805Y007921D02*
X012540Y007921D01*
X012540Y007803D02*
X013805Y007803D01*
X013805Y007684D02*
X012540Y007684D01*
X012540Y007566D02*
X013805Y007566D01*
X013805Y007447D02*
X012540Y007447D01*
X012540Y007329D02*
X013805Y007329D01*
X013805Y007210D02*
X013732Y007137D01*
X014174Y006736D02*
X014180Y006736D01*
X014915Y006736D02*
X016430Y006736D01*
X016430Y006852D02*
X016430Y005585D01*
X016357Y005512D01*
X016312Y005403D01*
X016312Y005284D01*
X016357Y005175D01*
X016441Y005091D01*
X016551Y005046D01*
X016669Y005046D01*
X016779Y005091D01*
X016805Y005117D01*
X016805Y003335D01*
X016732Y003262D01*
X016687Y003153D01*
X016687Y003034D01*
X016732Y002925D01*
X016816Y002841D01*
X016926Y002796D01*
X017044Y002796D01*
X017154Y002841D01*
X017238Y002925D01*
X017283Y003034D01*
X017283Y003153D01*
X017238Y003262D01*
X017165Y003335D01*
X017165Y007477D01*
X017238Y007550D01*
X017283Y007659D01*
X017283Y007778D01*
X017238Y007887D01*
X017154Y007971D01*
X017044Y008017D01*
X016926Y008017D01*
X016816Y007971D01*
X016732Y007887D01*
X016687Y007778D01*
X016687Y007659D01*
X016732Y007550D01*
X016805Y007477D01*
X016805Y007320D01*
X016779Y007346D01*
X016669Y007392D01*
X016551Y007392D01*
X016441Y007346D01*
X016357Y007262D01*
X016312Y007153D01*
X016312Y007034D01*
X016357Y006925D01*
X016430Y006852D01*
X016427Y006855D02*
X014915Y006855D01*
X014915Y006973D02*
X016337Y006973D01*
X016312Y007092D02*
X014915Y007092D01*
X014915Y007210D02*
X016335Y007210D01*
X016423Y007329D02*
X014915Y007329D01*
X014915Y007447D02*
X016805Y007447D01*
X016796Y007329D02*
X016805Y007329D01*
X016726Y007566D02*
X014915Y007566D01*
X014915Y007684D02*
X016687Y007684D01*
X016697Y007803D02*
X014915Y007803D01*
X014915Y007921D02*
X016766Y007921D01*
X016985Y007719D02*
X016985Y003094D01*
X017200Y003300D02*
X018180Y003300D01*
X018180Y003418D02*
X017165Y003418D01*
X017165Y003537D02*
X018180Y003537D01*
X018180Y003655D02*
X017165Y003655D01*
X017165Y003774D02*
X018180Y003774D01*
X018180Y003892D02*
X017165Y003892D01*
X017165Y004011D02*
X018180Y004011D01*
X018180Y004129D02*
X017165Y004129D01*
X017165Y004248D02*
X018180Y004248D01*
X018180Y004366D02*
X017165Y004366D01*
X017165Y004485D02*
X018180Y004485D01*
X018180Y004603D02*
X017165Y004603D01*
X017165Y004722D02*
X017560Y004722D01*
X017566Y004716D02*
X017676Y004671D01*
X017794Y004671D01*
X017904Y004716D01*
X017988Y004800D01*
X018033Y004909D01*
X018033Y005028D01*
X017988Y005137D01*
X017915Y005210D01*
X017915Y007102D01*
X017988Y007175D01*
X018033Y007284D01*
X018033Y007403D01*
X017988Y007512D01*
X017904Y007596D01*
X017794Y007642D01*
X017676Y007642D01*
X017566Y007596D01*
X017482Y007512D01*
X017437Y007403D01*
X017437Y007284D01*
X017482Y007175D01*
X017555Y007102D01*
X017555Y005210D01*
X017482Y005137D01*
X017437Y005028D01*
X017437Y004909D01*
X017482Y004800D01*
X017566Y004716D01*
X017465Y004840D02*
X017165Y004840D01*
X017165Y004959D02*
X017437Y004959D01*
X017457Y005077D02*
X017165Y005077D01*
X017165Y005196D02*
X017540Y005196D01*
X017555Y005314D02*
X017165Y005314D01*
X017165Y005433D02*
X017555Y005433D01*
X017555Y005551D02*
X017165Y005551D01*
X017165Y005670D02*
X017555Y005670D01*
X017555Y005788D02*
X017165Y005788D01*
X017165Y005907D02*
X017555Y005907D01*
X017555Y006025D02*
X017165Y006025D01*
X017165Y006144D02*
X017555Y006144D01*
X017555Y006262D02*
X017165Y006262D01*
X017165Y006381D02*
X017555Y006381D01*
X017555Y006499D02*
X017165Y006499D01*
X017165Y006618D02*
X017555Y006618D01*
X017555Y006736D02*
X017165Y006736D01*
X017165Y006855D02*
X017555Y006855D01*
X017555Y006973D02*
X017165Y006973D01*
X017165Y007092D02*
X017555Y007092D01*
X017467Y007210D02*
X017165Y007210D01*
X017165Y007329D02*
X017437Y007329D01*
X017455Y007447D02*
X017165Y007447D01*
X017244Y007566D02*
X017535Y007566D01*
X017283Y007684D02*
X018180Y007684D01*
X018180Y007793D02*
X018180Y002960D01*
X018107Y002887D01*
X018062Y002778D01*
X018062Y002659D01*
X018107Y002550D01*
X018191Y002466D01*
X018301Y002421D01*
X018419Y002421D01*
X018529Y002466D01*
X018613Y002550D01*
X018658Y002659D01*
X018658Y002778D01*
X018613Y002887D01*
X018540Y002960D01*
X018540Y007546D01*
X018544Y007546D01*
X018654Y007591D01*
X018738Y007675D01*
X018783Y007784D01*
X018783Y007903D01*
X018738Y008012D01*
X018654Y008096D01*
X018544Y008142D01*
X018426Y008142D01*
X018316Y008096D01*
X018232Y008012D01*
X018187Y007903D01*
X018187Y007800D01*
X018180Y007793D01*
X018187Y007803D02*
X017273Y007803D01*
X017204Y007921D02*
X018194Y007921D01*
X018259Y008040D02*
X014915Y008040D01*
X014915Y008158D02*
X022495Y008158D01*
X022495Y008040D02*
X018710Y008040D01*
X018775Y007921D02*
X022495Y007921D01*
X022495Y007803D02*
X018783Y007803D01*
X018741Y007684D02*
X022495Y007684D01*
X022495Y007566D02*
X018593Y007566D01*
X018540Y007447D02*
X022495Y007447D01*
X022495Y007329D02*
X018540Y007329D01*
X018540Y007210D02*
X022495Y007210D01*
X022495Y007092D02*
X018540Y007092D01*
X018540Y006973D02*
X022495Y006973D01*
X022495Y006855D02*
X018540Y006855D01*
X018540Y006736D02*
X022495Y006736D01*
X022495Y006618D02*
X018540Y006618D01*
X018540Y006499D02*
X022495Y006499D01*
X022495Y006381D02*
X018540Y006381D01*
X018180Y006381D02*
X017915Y006381D01*
X017915Y006499D02*
X018180Y006499D01*
X018180Y006618D02*
X017915Y006618D01*
X017915Y006736D02*
X018180Y006736D01*
X018180Y006855D02*
X017915Y006855D01*
X017915Y006973D02*
X018180Y006973D01*
X018180Y007092D02*
X017915Y007092D01*
X018002Y007210D02*
X018180Y007210D01*
X018180Y007329D02*
X018033Y007329D01*
X018015Y007447D02*
X018180Y007447D01*
X018180Y007566D02*
X017934Y007566D01*
X017735Y007344D02*
X017735Y004969D01*
X018013Y005077D02*
X018180Y005077D01*
X018180Y004959D02*
X018033Y004959D01*
X018004Y004840D02*
X018180Y004840D01*
X018180Y004722D02*
X017909Y004722D01*
X017929Y005196D02*
X018180Y005196D01*
X018180Y005314D02*
X017915Y005314D01*
X017915Y005433D02*
X018180Y005433D01*
X018180Y005551D02*
X017915Y005551D01*
X017915Y005670D02*
X018180Y005670D01*
X018180Y005788D02*
X017915Y005788D01*
X017915Y005907D02*
X018180Y005907D01*
X018180Y006025D02*
X017915Y006025D01*
X017915Y006144D02*
X018180Y006144D01*
X018180Y006262D02*
X017915Y006262D01*
X018540Y006025D02*
X022441Y006025D01*
X022437Y006153D02*
X022482Y006262D01*
X022500Y005907D02*
X018540Y005907D01*
X016805Y005077D02*
X016745Y005077D01*
X016805Y004959D02*
X010408Y004959D01*
X010388Y005077D02*
X016474Y005077D01*
X016348Y005196D02*
X010304Y005196D01*
X010290Y005314D02*
X010381Y005314D01*
X010589Y005314D02*
X016312Y005314D01*
X016324Y005433D02*
X010741Y005433D01*
X010783Y005551D02*
X016396Y005551D01*
X016430Y005670D02*
X010776Y005670D01*
X010485Y005594D02*
X010485Y011969D01*
X011860Y013344D01*
X012110Y013344D01*
X011901Y013131D02*
X011941Y013091D01*
X012051Y013046D01*
X012169Y013046D01*
X012199Y013058D01*
X012187Y013028D01*
X012187Y012925D01*
X011160Y011899D01*
X011055Y011793D01*
X011055Y006668D01*
X010903Y006517D01*
X010801Y006517D01*
X010691Y006471D01*
X010665Y006445D01*
X010665Y011894D01*
X011901Y013131D01*
X011787Y013017D02*
X012187Y013017D01*
X012160Y012898D02*
X011669Y012898D01*
X011550Y012780D02*
X012041Y012780D01*
X011923Y012661D02*
X011432Y012661D01*
X011313Y012543D02*
X011804Y012543D01*
X011686Y012424D02*
X011195Y012424D01*
X011076Y012306D02*
X011567Y012306D01*
X011449Y012187D02*
X010958Y012187D01*
X010839Y012069D02*
X011330Y012069D01*
X011212Y011950D02*
X010721Y011950D01*
X010665Y011832D02*
X011093Y011832D01*
X011055Y011713D02*
X010665Y011713D01*
X010665Y011595D02*
X011055Y011595D01*
X011055Y011476D02*
X010665Y011476D01*
X010665Y011358D02*
X011055Y011358D01*
X011055Y011239D02*
X010665Y011239D01*
X010665Y011121D02*
X011055Y011121D01*
X011055Y011002D02*
X010665Y011002D01*
X010665Y010884D02*
X011055Y010884D01*
X011055Y010765D02*
X010665Y010765D01*
X010665Y010647D02*
X011055Y010647D01*
X011055Y010528D02*
X010665Y010528D01*
X010665Y010410D02*
X011055Y010410D01*
X011055Y010291D02*
X010665Y010291D01*
X010665Y010173D02*
X011055Y010173D01*
X011055Y010054D02*
X010665Y010054D01*
X010665Y009936D02*
X011055Y009936D01*
X011055Y009817D02*
X010665Y009817D01*
X010665Y009699D02*
X011055Y009699D01*
X011055Y009580D02*
X010665Y009580D01*
X010665Y009462D02*
X011055Y009462D01*
X011055Y009343D02*
X010665Y009343D01*
X010665Y009225D02*
X011055Y009225D01*
X011055Y009106D02*
X010665Y009106D01*
X010665Y008988D02*
X011055Y008988D01*
X011055Y008869D02*
X010665Y008869D01*
X010665Y008751D02*
X011055Y008751D01*
X011055Y008632D02*
X010665Y008632D01*
X010665Y008514D02*
X011055Y008514D01*
X011055Y008395D02*
X010665Y008395D01*
X010665Y008277D02*
X011055Y008277D01*
X011055Y008158D02*
X010665Y008158D01*
X010665Y008040D02*
X011055Y008040D01*
X011055Y007921D02*
X010665Y007921D01*
X010665Y007803D02*
X011055Y007803D01*
X011055Y007684D02*
X010665Y007684D01*
X010665Y007566D02*
X011055Y007566D01*
X011055Y007447D02*
X010665Y007447D01*
X010665Y007329D02*
X011055Y007329D01*
X011055Y007210D02*
X010665Y007210D01*
X010665Y007092D02*
X011055Y007092D01*
X011055Y006973D02*
X010665Y006973D01*
X010665Y006855D02*
X011055Y006855D01*
X011055Y006736D02*
X010665Y006736D01*
X010665Y006618D02*
X011004Y006618D01*
X011235Y006594D02*
X010860Y006219D01*
X010758Y006499D02*
X010665Y006499D01*
X011235Y006594D02*
X011235Y011719D01*
X012485Y012969D01*
X012739Y013135D02*
X012805Y013135D01*
X012805Y013254D02*
X012576Y013254D01*
X012408Y013372D02*
X012805Y013372D01*
X012805Y013491D02*
X012372Y013491D01*
X012248Y013609D02*
X012805Y013609D01*
X013165Y013609D02*
X013805Y013609D01*
X013805Y013491D02*
X013165Y013491D01*
X013165Y013372D02*
X013805Y013372D01*
X013805Y013254D02*
X013165Y013254D01*
X013165Y013728D02*
X013805Y013728D01*
X013805Y013846D02*
X013165Y013846D01*
X014935Y014202D02*
X017979Y014202D01*
X018008Y014320D02*
X014935Y014320D01*
X014935Y014439D02*
X018077Y014439D01*
X018152Y014557D02*
X015811Y014557D01*
X015523Y014557D02*
X015403Y014557D01*
X015403Y014676D02*
X015523Y014676D01*
X015523Y014794D02*
X015403Y014794D01*
X015403Y014913D02*
X015523Y014913D01*
X015523Y015031D02*
X015403Y015031D01*
X015403Y015150D02*
X015523Y015150D01*
X014997Y014676D02*
X014935Y014676D01*
X014935Y014557D02*
X015115Y014557D01*
X014535Y015387D02*
X014446Y015387D01*
X013581Y016335D02*
X004544Y016335D01*
X004655Y016453D02*
X013470Y016453D01*
X013437Y016572D02*
X004704Y016572D01*
X004725Y016690D02*
X013452Y016690D01*
X010634Y018823D02*
X009532Y018823D01*
X009512Y018803D02*
X009650Y018941D01*
X009725Y019121D01*
X009725Y019316D01*
X009650Y019496D01*
X009512Y019634D01*
X009332Y019709D01*
X009137Y019709D01*
X008957Y019634D01*
X008819Y019496D01*
X008745Y019316D01*
X008745Y019121D01*
X008819Y018941D01*
X008957Y018803D01*
X009137Y018729D01*
X009332Y018729D01*
X009512Y018803D01*
X009651Y018942D02*
X010478Y018942D01*
X010412Y019060D02*
X009700Y019060D01*
X009725Y019179D02*
X010382Y019179D01*
X010382Y019297D02*
X009725Y019297D01*
X009684Y019416D02*
X010428Y019416D01*
X010517Y019534D02*
X009612Y019534D01*
X009467Y019653D02*
X010727Y019653D01*
X009002Y019653D02*
X008467Y019653D01*
X008612Y019534D02*
X008857Y019534D01*
X008786Y019416D02*
X008684Y019416D01*
X008725Y019297D02*
X008745Y019297D01*
X008745Y019179D02*
X008725Y019179D01*
X008700Y019060D02*
X008770Y019060D01*
X008819Y018942D02*
X008651Y018942D01*
X008532Y018823D02*
X008937Y018823D01*
X007937Y018823D02*
X007589Y018823D01*
X007689Y018942D02*
X007819Y018942D01*
X007770Y019060D02*
X007741Y019060D01*
X007275Y019060D02*
X007195Y019060D01*
X007195Y018942D02*
X007275Y018942D01*
X007275Y018823D02*
X007195Y018823D01*
X006881Y018823D02*
X006532Y018823D01*
X006651Y018942D02*
X006781Y018942D01*
X006729Y019060D02*
X006700Y019060D01*
X007195Y019297D02*
X007275Y019297D01*
X007275Y019416D02*
X007195Y019416D01*
X007195Y019534D02*
X007275Y019534D01*
X007275Y019653D02*
X007195Y019653D01*
X006931Y019653D02*
X006467Y019653D01*
X006612Y019534D02*
X006809Y019534D01*
X006742Y019416D02*
X006684Y019416D01*
X006002Y019653D02*
X005467Y019653D01*
X005512Y019634D02*
X005332Y019709D01*
X005137Y019709D01*
X004957Y019634D01*
X004819Y019496D01*
X004745Y019316D01*
X004745Y019121D01*
X004819Y018941D01*
X004957Y018803D01*
X005137Y018729D01*
X005332Y018729D01*
X005512Y018803D01*
X005650Y018941D01*
X005725Y019121D01*
X005725Y019316D01*
X005650Y019496D01*
X005512Y019634D01*
X005612Y019534D02*
X005857Y019534D01*
X005786Y019416D02*
X005684Y019416D01*
X005725Y019297D02*
X005745Y019297D01*
X005745Y019179D02*
X005725Y019179D01*
X005700Y019060D02*
X005770Y019060D01*
X005819Y018942D02*
X005651Y018942D01*
X005532Y018823D02*
X005937Y018823D01*
X004937Y018823D02*
X004532Y018823D01*
X004651Y018942D02*
X004819Y018942D01*
X004770Y019060D02*
X004700Y019060D01*
X004725Y019179D02*
X004745Y019179D01*
X004745Y019297D02*
X004725Y019297D01*
X004684Y019416D02*
X004786Y019416D01*
X004857Y019534D02*
X004612Y019534D01*
X004467Y019653D02*
X005002Y019653D01*
X002815Y019890D02*
X025735Y019890D01*
X025985Y019890D02*
X041855Y019890D01*
X041855Y019771D02*
X025985Y019771D01*
X025985Y019653D02*
X036002Y019653D01*
X035957Y019634D02*
X035819Y019496D01*
X035745Y019316D01*
X035745Y019121D01*
X035819Y018941D01*
X035957Y018803D01*
X036137Y018729D01*
X036332Y018729D01*
X036512Y018803D01*
X036650Y018941D01*
X036717Y019102D01*
X036718Y019095D01*
X036744Y019015D01*
X036782Y018941D01*
X036831Y018873D01*
X036890Y018814D01*
X036957Y018765D01*
X037031Y018727D01*
X037111Y018702D01*
X037193Y018689D01*
X037195Y018689D01*
X037195Y019179D01*
X037275Y019179D01*
X037275Y018689D01*
X037277Y018689D01*
X037359Y018702D01*
X037438Y018727D01*
X037513Y018765D01*
X037580Y018814D01*
X037639Y018873D01*
X037688Y018941D01*
X037726Y019015D01*
X037752Y019095D01*
X037753Y019102D01*
X037819Y018941D01*
X037957Y018803D01*
X038137Y018729D01*
X038332Y018729D01*
X038512Y018803D01*
X038650Y018941D01*
X038725Y019121D01*
X038725Y019316D01*
X038650Y019496D01*
X038512Y019634D01*
X038332Y019709D01*
X038137Y019709D01*
X037957Y019634D01*
X037819Y019496D01*
X037753Y019336D01*
X037752Y019343D01*
X037726Y019422D01*
X037688Y019496D01*
X037639Y019564D01*
X037580Y019623D01*
X037513Y019672D01*
X037438Y019710D01*
X037359Y019736D01*
X037277Y019749D01*
X037275Y019749D01*
X037275Y019259D01*
X037195Y019259D01*
X037195Y019749D01*
X037193Y019749D01*
X037111Y019736D01*
X037031Y019710D01*
X036957Y019672D01*
X036890Y019623D01*
X036831Y019564D01*
X036782Y019496D01*
X036744Y019422D01*
X036718Y019343D01*
X036717Y019336D01*
X036650Y019496D01*
X036512Y019634D01*
X036332Y019709D01*
X036137Y019709D01*
X035957Y019634D01*
X035857Y019534D02*
X025985Y019534D01*
X025985Y019416D02*
X035786Y019416D01*
X035745Y019297D02*
X025985Y019297D01*
X025985Y019179D02*
X035745Y019179D01*
X035770Y019060D02*
X025985Y019060D01*
X025985Y018942D02*
X031783Y018942D01*
X031742Y018925D02*
X031497Y018680D01*
X031365Y018360D01*
X031365Y018014D01*
X031497Y017694D01*
X031742Y017450D01*
X032062Y017317D01*
X032408Y017317D01*
X032728Y017450D01*
X032972Y017694D01*
X033105Y018014D01*
X033105Y018360D01*
X032972Y018680D01*
X032728Y018925D01*
X032408Y019057D01*
X032062Y019057D01*
X031742Y018925D01*
X031641Y018823D02*
X025985Y018823D01*
X025985Y018705D02*
X031522Y018705D01*
X031458Y018586D02*
X025985Y018586D01*
X025985Y018468D02*
X031409Y018468D01*
X031365Y018349D02*
X025985Y018349D01*
X025985Y018231D02*
X031365Y018231D01*
X031365Y018112D02*
X025985Y018112D01*
X025985Y017994D02*
X031373Y017994D01*
X031422Y017875D02*
X030560Y017875D01*
X030558Y017876D02*
X030211Y017876D01*
X029892Y017744D01*
X029647Y017499D01*
X029514Y017179D01*
X029514Y016833D01*
X029647Y016513D01*
X029892Y016268D01*
X030211Y016136D01*
X030558Y016136D01*
X030877Y016268D01*
X031122Y016513D01*
X031254Y016833D01*
X031254Y017179D01*
X031122Y017499D01*
X030877Y017744D01*
X030558Y017876D01*
X030846Y017757D02*
X031471Y017757D01*
X031553Y017638D02*
X030983Y017638D01*
X031101Y017520D02*
X031672Y017520D01*
X031859Y017401D02*
X031162Y017401D01*
X031212Y017283D02*
X041855Y017283D01*
X041855Y017401D02*
X032611Y017401D01*
X032798Y017520D02*
X041855Y017520D01*
X041855Y017638D02*
X032916Y017638D01*
X032998Y017757D02*
X041855Y017757D01*
X041855Y017875D02*
X033047Y017875D01*
X033096Y017994D02*
X041855Y017994D01*
X041855Y018112D02*
X033105Y018112D01*
X033105Y018231D02*
X041855Y018231D01*
X041855Y018349D02*
X033105Y018349D01*
X033060Y018468D02*
X041855Y018468D01*
X041855Y018586D02*
X033011Y018586D01*
X032948Y018705D02*
X037102Y018705D01*
X037195Y018705D02*
X037275Y018705D01*
X037368Y018705D02*
X041855Y018705D01*
X041855Y018823D02*
X038532Y018823D01*
X038651Y018942D02*
X041855Y018942D01*
X041855Y019060D02*
X038700Y019060D01*
X038725Y019179D02*
X041855Y019179D01*
X041855Y019297D02*
X038725Y019297D01*
X038684Y019416D02*
X041855Y019416D01*
X041855Y019534D02*
X038612Y019534D01*
X038467Y019653D02*
X041855Y019653D01*
X038002Y019653D02*
X037539Y019653D01*
X037661Y019534D02*
X037857Y019534D01*
X037786Y019416D02*
X037728Y019416D01*
X037275Y019416D02*
X037195Y019416D01*
X037195Y019534D02*
X037275Y019534D01*
X037275Y019653D02*
X037195Y019653D01*
X036931Y019653D02*
X036467Y019653D01*
X036612Y019534D02*
X036809Y019534D01*
X036742Y019416D02*
X036684Y019416D01*
X037195Y019297D02*
X037275Y019297D01*
X037275Y019060D02*
X037195Y019060D01*
X037195Y018942D02*
X037275Y018942D01*
X037275Y018823D02*
X037195Y018823D01*
X036881Y018823D02*
X036532Y018823D01*
X036651Y018942D02*
X036781Y018942D01*
X036729Y019060D02*
X036700Y019060D01*
X035937Y018823D02*
X032829Y018823D01*
X032687Y018942D02*
X035819Y018942D01*
X037589Y018823D02*
X037937Y018823D01*
X037819Y018942D02*
X037689Y018942D01*
X037741Y019060D02*
X037770Y019060D01*
X041855Y017164D02*
X031254Y017164D01*
X031254Y017046D02*
X041855Y017046D01*
X041855Y016927D02*
X031254Y016927D01*
X031244Y016809D02*
X041855Y016809D01*
X041855Y016690D02*
X032522Y016690D01*
X032528Y016688D02*
X032413Y016719D01*
X032295Y016735D01*
X032295Y015885D01*
X033145Y015885D01*
X033129Y016003D01*
X033098Y016118D01*
X033053Y016228D01*
X032993Y016332D01*
X032920Y016426D01*
X032836Y016511D01*
X032742Y016583D01*
X032638Y016643D01*
X032528Y016688D01*
X032295Y016690D02*
X032175Y016690D01*
X032175Y016735D02*
X032057Y016719D01*
X031942Y016688D01*
X031832Y016643D01*
X031728Y016583D01*
X031634Y016511D01*
X031549Y016426D01*
X031477Y016332D01*
X031417Y016228D01*
X031371Y016118D01*
X031340Y016003D01*
X031325Y015885D01*
X032175Y015885D01*
X032175Y016735D01*
X032175Y016572D02*
X032295Y016572D01*
X032295Y016453D02*
X032175Y016453D01*
X032175Y016335D02*
X032295Y016335D01*
X032295Y016216D02*
X032175Y016216D01*
X032175Y016098D02*
X032295Y016098D01*
X032295Y015979D02*
X032175Y015979D01*
X032175Y015885D02*
X032295Y015885D01*
X032295Y015765D01*
X033145Y015765D01*
X033129Y015647D01*
X033098Y015532D01*
X033053Y015422D01*
X032993Y015318D01*
X032920Y015224D01*
X032836Y015139D01*
X032742Y015067D01*
X032638Y015007D01*
X032528Y014961D01*
X032413Y014931D01*
X032295Y014915D01*
X032295Y015765D01*
X032175Y015765D01*
X032175Y014915D01*
X032057Y014931D01*
X031942Y014961D01*
X031832Y015007D01*
X031728Y015067D01*
X031634Y015139D01*
X031549Y015224D01*
X031477Y015318D01*
X031417Y015422D01*
X031371Y015532D01*
X031340Y015647D01*
X031325Y015765D01*
X032175Y015765D01*
X032175Y015885D01*
X032175Y015861D02*
X029374Y015861D01*
X029302Y015932D02*
X029067Y015932D01*
X029067Y015279D01*
X029720Y015279D01*
X029720Y015514D01*
X029302Y015932D01*
X029067Y015861D02*
X028947Y015861D01*
X028947Y015932D02*
X028711Y015932D01*
X028293Y015514D01*
X028293Y015279D01*
X028946Y015279D01*
X028946Y015159D01*
X028293Y015159D01*
X028293Y014923D01*
X028711Y014505D01*
X028947Y014505D01*
X028947Y015159D01*
X029067Y015159D01*
X029067Y015279D01*
X028947Y015279D01*
X028947Y015932D01*
X028947Y015742D02*
X029067Y015742D01*
X029067Y015624D02*
X028947Y015624D01*
X028947Y015505D02*
X029067Y015505D01*
X029067Y015387D02*
X028947Y015387D01*
X028946Y015268D02*
X025985Y015268D01*
X026177Y015150D02*
X028293Y015150D01*
X028293Y015031D02*
X026177Y015031D01*
X026167Y014913D02*
X028303Y014913D01*
X028422Y014794D02*
X026048Y014794D01*
X025985Y014676D02*
X028540Y014676D01*
X028659Y014557D02*
X025985Y014557D01*
X025985Y014439D02*
X029796Y014439D01*
X029819Y014496D02*
X029745Y014316D01*
X029745Y014121D01*
X029819Y013941D01*
X029957Y013803D01*
X030137Y013729D01*
X030332Y013729D01*
X030512Y013803D01*
X030650Y013941D01*
X030725Y014121D01*
X030725Y014316D01*
X030650Y014496D01*
X030512Y014634D01*
X030332Y014709D01*
X030137Y014709D01*
X029957Y014634D01*
X029819Y014496D01*
X029880Y014557D02*
X029354Y014557D01*
X029302Y014505D02*
X029067Y014505D01*
X029067Y015159D01*
X029720Y015159D01*
X029720Y014923D01*
X029302Y014505D01*
X029067Y014557D02*
X028947Y014557D01*
X028947Y014676D02*
X029067Y014676D01*
X029067Y014794D02*
X028947Y014794D01*
X028947Y014913D02*
X029067Y014913D01*
X029067Y015031D02*
X028947Y015031D01*
X028947Y015150D02*
X029067Y015150D01*
X029067Y015268D02*
X031515Y015268D01*
X031437Y015387D02*
X029720Y015387D01*
X029720Y015505D02*
X031382Y015505D01*
X031347Y015624D02*
X029611Y015624D01*
X029492Y015742D02*
X031328Y015742D01*
X031337Y015979D02*
X025985Y015979D01*
X025985Y015861D02*
X028639Y015861D01*
X028521Y015742D02*
X025985Y015742D01*
X026067Y015624D02*
X028402Y015624D01*
X028293Y015505D02*
X026177Y015505D01*
X026177Y015387D02*
X028293Y015387D01*
X029473Y014676D02*
X030058Y014676D01*
X030412Y014676D02*
X031058Y014676D01*
X031137Y014709D02*
X030957Y014634D01*
X030819Y014496D01*
X030745Y014316D01*
X030745Y014121D01*
X030819Y013941D01*
X030957Y013803D01*
X031137Y013729D01*
X031332Y013729D01*
X031512Y013803D01*
X031650Y013941D01*
X031725Y014121D01*
X031725Y014316D01*
X031650Y014496D01*
X031512Y014634D01*
X031332Y014709D01*
X031137Y014709D01*
X031412Y014676D02*
X034997Y014676D01*
X034878Y014794D02*
X029591Y014794D01*
X029710Y014913D02*
X034760Y014913D01*
X034749Y014923D02*
X035168Y014505D01*
X035403Y014505D01*
X035403Y015159D01*
X034749Y015159D01*
X034749Y014923D01*
X034749Y015031D02*
X032680Y015031D01*
X032847Y015150D02*
X034749Y015150D01*
X034749Y015279D02*
X035403Y015279D01*
X035403Y015932D01*
X035168Y015932D01*
X034749Y015514D01*
X034749Y015279D01*
X034749Y015387D02*
X033033Y015387D01*
X033087Y015505D02*
X034749Y015505D01*
X034859Y015624D02*
X033123Y015624D01*
X033142Y015742D02*
X034977Y015742D01*
X035096Y015861D02*
X032295Y015861D01*
X032295Y015742D02*
X032175Y015742D01*
X032175Y015624D02*
X032295Y015624D01*
X032295Y015505D02*
X032175Y015505D01*
X032175Y015387D02*
X032295Y015387D01*
X032295Y015268D02*
X032175Y015268D01*
X032175Y015150D02*
X032295Y015150D01*
X032295Y015031D02*
X032175Y015031D01*
X031790Y015031D02*
X029720Y015031D01*
X029720Y015150D02*
X031623Y015150D01*
X031589Y014557D02*
X035115Y014557D01*
X035403Y014557D02*
X035523Y014557D01*
X035523Y014505D02*
X035759Y014505D01*
X036177Y014923D01*
X036177Y015159D01*
X035523Y015159D01*
X035523Y015279D01*
X035403Y015279D01*
X035403Y015159D01*
X035523Y015159D01*
X035523Y014505D01*
X035523Y014676D02*
X035403Y014676D01*
X035403Y014794D02*
X035523Y014794D01*
X035523Y014913D02*
X035403Y014913D01*
X035403Y015031D02*
X035523Y015031D01*
X035523Y015150D02*
X035403Y015150D01*
X035403Y015268D02*
X032955Y015268D01*
X033132Y015979D02*
X041855Y015979D01*
X041855Y015861D02*
X039374Y015861D01*
X039302Y015932D02*
X039067Y015932D01*
X039067Y015279D01*
X039720Y015279D01*
X039720Y015514D01*
X039302Y015932D01*
X039067Y015861D02*
X038947Y015861D01*
X038947Y015932D02*
X038711Y015932D01*
X038293Y015514D01*
X038293Y015279D01*
X038946Y015279D01*
X038946Y015159D01*
X038293Y015159D01*
X038293Y014923D01*
X038711Y014505D01*
X038947Y014505D01*
X038947Y015159D01*
X039067Y015159D01*
X039067Y015279D01*
X038947Y015279D01*
X038947Y015932D01*
X038947Y015742D02*
X039067Y015742D01*
X039067Y015624D02*
X038947Y015624D01*
X038947Y015505D02*
X039067Y015505D01*
X039067Y015387D02*
X038947Y015387D01*
X038946Y015268D02*
X035523Y015268D01*
X035523Y015279D02*
X036177Y015279D01*
X036177Y015514D01*
X035759Y015932D01*
X035523Y015932D01*
X035523Y015279D01*
X035523Y015387D02*
X035403Y015387D01*
X035403Y015505D02*
X035523Y015505D01*
X035523Y015624D02*
X035403Y015624D01*
X035403Y015742D02*
X035523Y015742D01*
X035523Y015861D02*
X035403Y015861D01*
X035830Y015861D02*
X038639Y015861D01*
X038521Y015742D02*
X035949Y015742D01*
X036067Y015624D02*
X038402Y015624D01*
X038293Y015505D02*
X036177Y015505D01*
X036177Y015387D02*
X038293Y015387D01*
X038293Y015150D02*
X036177Y015150D01*
X036177Y015031D02*
X038293Y015031D01*
X038303Y014913D02*
X036167Y014913D01*
X036048Y014794D02*
X038422Y014794D01*
X038540Y014676D02*
X035930Y014676D01*
X035811Y014557D02*
X038659Y014557D01*
X038947Y014557D02*
X039067Y014557D01*
X039067Y014505D02*
X039302Y014505D01*
X039720Y014923D01*
X039720Y015159D01*
X039067Y015159D01*
X039067Y014505D01*
X039067Y014676D02*
X038947Y014676D01*
X038947Y014794D02*
X039067Y014794D01*
X039067Y014913D02*
X038947Y014913D01*
X038947Y015031D02*
X039067Y015031D01*
X039067Y015150D02*
X038947Y015150D01*
X039067Y015268D02*
X041855Y015268D01*
X041855Y015150D02*
X039720Y015150D01*
X039720Y015031D02*
X041855Y015031D01*
X041855Y014913D02*
X039710Y014913D01*
X039591Y014794D02*
X041855Y014794D01*
X041855Y014676D02*
X039473Y014676D01*
X039354Y014557D02*
X041855Y014557D01*
X041855Y014439D02*
X031674Y014439D01*
X031723Y014320D02*
X041855Y014320D01*
X041855Y014202D02*
X031725Y014202D01*
X031709Y014083D02*
X041855Y014083D01*
X041855Y013965D02*
X031660Y013965D01*
X031555Y013846D02*
X041855Y013846D01*
X041855Y013728D02*
X025985Y013728D01*
X025985Y013846D02*
X029914Y013846D01*
X029810Y013965D02*
X025985Y013965D01*
X025985Y014083D02*
X029761Y014083D01*
X029745Y014202D02*
X025985Y014202D01*
X025985Y014320D02*
X029747Y014320D01*
X030589Y014557D02*
X030880Y014557D01*
X030796Y014439D02*
X030674Y014439D01*
X030723Y014320D02*
X030747Y014320D01*
X030745Y014202D02*
X030725Y014202D01*
X030709Y014083D02*
X030761Y014083D01*
X030810Y013965D02*
X030660Y013965D01*
X030555Y013846D02*
X030914Y013846D01*
X028531Y012661D02*
X035882Y012661D01*
X035899Y012678D02*
X035839Y012618D01*
X035789Y012549D01*
X035750Y012473D01*
X035724Y012392D01*
X035711Y012308D01*
X035711Y012304D01*
X036212Y012304D01*
X036212Y012227D01*
X036289Y012227D01*
X036289Y011726D01*
X036293Y011726D01*
X036377Y011739D01*
X036458Y011765D01*
X036534Y011804D01*
X036602Y011854D01*
X036662Y011914D01*
X036712Y011983D01*
X036751Y012059D01*
X036764Y012097D01*
X036811Y011983D01*
X036952Y011842D01*
X037135Y011766D01*
X037334Y011766D01*
X037518Y011842D01*
X037659Y011983D01*
X037727Y012147D01*
X037795Y011983D01*
X037936Y011842D01*
X038120Y011766D01*
X038319Y011766D01*
X038502Y011842D01*
X038643Y011983D01*
X038719Y012166D01*
X038719Y012365D01*
X038643Y012549D01*
X038502Y012690D01*
X038319Y012766D01*
X038120Y012766D01*
X037936Y012690D01*
X037795Y012549D01*
X037727Y012384D01*
X037659Y012549D01*
X037518Y012690D01*
X037334Y012766D01*
X037135Y012766D01*
X036952Y012690D01*
X036811Y012549D01*
X036764Y012435D01*
X036751Y012473D01*
X036712Y012549D01*
X036662Y012618D01*
X036602Y012678D01*
X036534Y012728D01*
X036458Y012766D01*
X036377Y012793D01*
X036293Y012806D01*
X036289Y012806D01*
X036289Y012304D01*
X036212Y012304D01*
X036212Y012806D01*
X036208Y012806D01*
X036124Y012793D01*
X036043Y012766D01*
X035968Y012728D01*
X035899Y012678D01*
X035786Y012543D02*
X028646Y012543D01*
X028695Y012424D02*
X035734Y012424D01*
X035711Y012306D02*
X028719Y012306D01*
X028719Y012187D02*
X035716Y012187D01*
X035711Y012223D02*
X035724Y012139D01*
X035750Y012059D01*
X035789Y011983D01*
X035839Y011914D01*
X035899Y011854D01*
X035968Y011804D01*
X036043Y011765D01*
X036124Y011739D01*
X036208Y011726D01*
X036212Y011726D01*
X036212Y012227D01*
X035711Y012227D01*
X035711Y012223D01*
X035747Y012069D02*
X028679Y012069D01*
X028610Y011950D02*
X035813Y011950D01*
X035930Y011832D02*
X028477Y011832D01*
X027961Y011832D02*
X027493Y011832D01*
X027626Y011950D02*
X027828Y011950D01*
X027760Y012069D02*
X027694Y012069D01*
X027710Y012424D02*
X027743Y012424D01*
X027793Y012543D02*
X027661Y012543D01*
X027547Y012661D02*
X027907Y012661D01*
X026923Y012661D02*
X026619Y012661D01*
X026716Y012543D02*
X026808Y012543D01*
X026417Y012780D02*
X036084Y012780D01*
X036212Y012780D02*
X036289Y012780D01*
X036289Y012661D02*
X036212Y012661D01*
X036212Y012543D02*
X036289Y012543D01*
X036289Y012424D02*
X036212Y012424D01*
X036212Y012306D02*
X036289Y012306D01*
X036289Y012187D02*
X036212Y012187D01*
X036212Y012069D02*
X036289Y012069D01*
X036289Y011950D02*
X036212Y011950D01*
X036212Y011832D02*
X036289Y011832D01*
X036572Y011832D02*
X036977Y011832D01*
X036843Y011950D02*
X036689Y011950D01*
X036754Y012069D02*
X036775Y012069D01*
X036808Y012543D02*
X036716Y012543D01*
X036619Y012661D02*
X036923Y012661D01*
X037547Y012661D02*
X037907Y012661D01*
X037793Y012543D02*
X037661Y012543D01*
X037710Y012424D02*
X037743Y012424D01*
X037760Y012069D02*
X037694Y012069D01*
X037626Y011950D02*
X037828Y011950D01*
X037961Y011832D02*
X037493Y011832D01*
X038477Y011832D02*
X041855Y011832D01*
X041855Y011950D02*
X038610Y011950D01*
X038679Y012069D02*
X041855Y012069D01*
X041855Y012187D02*
X038719Y012187D01*
X038719Y012306D02*
X041855Y012306D01*
X041855Y012424D02*
X038695Y012424D01*
X038646Y012543D02*
X041855Y012543D01*
X041855Y012661D02*
X038531Y012661D01*
X036417Y012780D02*
X041855Y012780D01*
X041855Y012898D02*
X025985Y012898D01*
X025985Y012780D02*
X026084Y012780D01*
X026212Y012780D02*
X026289Y012780D01*
X026289Y012661D02*
X026212Y012661D01*
X026212Y012543D02*
X026289Y012543D01*
X026289Y012424D02*
X026212Y012424D01*
X026212Y012306D02*
X026289Y012306D01*
X026289Y012187D02*
X026212Y012187D01*
X026212Y012069D02*
X026289Y012069D01*
X026289Y011950D02*
X026212Y011950D01*
X026212Y011832D02*
X026289Y011832D01*
X026572Y011832D02*
X026977Y011832D01*
X026843Y011950D02*
X026689Y011950D01*
X026754Y012069D02*
X026775Y012069D01*
X025985Y011713D02*
X041855Y011713D01*
X041855Y011595D02*
X025985Y011595D01*
X025985Y011476D02*
X041855Y011476D01*
X041855Y011358D02*
X025985Y011358D01*
X025985Y011239D02*
X041855Y011239D01*
X041855Y011121D02*
X034353Y011121D01*
X034335Y011139D02*
X033635Y011139D01*
X033565Y011068D01*
X033565Y010369D01*
X033635Y010299D01*
X034335Y010299D01*
X034405Y010369D01*
X034405Y011068D01*
X034335Y011139D01*
X034405Y011002D02*
X041855Y011002D01*
X041855Y010884D02*
X034405Y010884D01*
X034405Y010765D02*
X041855Y010765D01*
X041855Y010647D02*
X034405Y010647D01*
X034405Y010528D02*
X041855Y010528D01*
X041855Y010410D02*
X034405Y010410D01*
X034226Y010112D02*
X034161Y010145D01*
X034093Y010167D01*
X034021Y010179D01*
X034015Y010179D01*
X034015Y009749D01*
X033955Y009749D01*
X033955Y010179D01*
X033949Y010179D01*
X033877Y010167D01*
X033808Y010145D01*
X033744Y010112D01*
X033685Y010070D01*
X033634Y010018D01*
X033591Y009960D01*
X033559Y009895D01*
X033536Y009826D01*
X033525Y009755D01*
X033525Y009749D01*
X033955Y009749D01*
X033955Y009689D01*
X033525Y009689D01*
X033525Y009682D01*
X033536Y009611D01*
X033559Y009542D01*
X033591Y009478D01*
X033634Y009419D01*
X033685Y009368D01*
X033744Y009325D01*
X033808Y009292D01*
X033877Y009270D01*
X033949Y009259D01*
X033955Y009259D01*
X033955Y009689D01*
X034015Y009689D01*
X034015Y009749D01*
X034445Y009749D01*
X034445Y009755D01*
X034434Y009826D01*
X034411Y009895D01*
X034378Y009960D01*
X034336Y010018D01*
X034285Y010070D01*
X034226Y010112D01*
X034300Y010054D02*
X041855Y010054D01*
X041855Y009936D02*
X034391Y009936D01*
X034435Y009817D02*
X041855Y009817D01*
X041855Y009699D02*
X034015Y009699D01*
X034015Y009689D02*
X034445Y009689D01*
X034445Y009682D01*
X034434Y009611D01*
X034411Y009542D01*
X034378Y009478D01*
X034336Y009419D01*
X034285Y009368D01*
X034226Y009325D01*
X034161Y009292D01*
X034093Y009270D01*
X034021Y009259D01*
X034015Y009259D01*
X034015Y009689D01*
X033955Y009699D02*
X025985Y009699D01*
X025985Y009817D02*
X033535Y009817D01*
X033579Y009936D02*
X025985Y009936D01*
X025985Y010054D02*
X033670Y010054D01*
X033911Y010173D02*
X025985Y010173D01*
X025985Y010291D02*
X041855Y010291D01*
X041855Y010173D02*
X034059Y010173D01*
X034015Y010173D02*
X033955Y010173D01*
X033955Y010054D02*
X034015Y010054D01*
X034015Y009936D02*
X033955Y009936D01*
X033955Y009817D02*
X034015Y009817D01*
X034015Y009580D02*
X033955Y009580D01*
X033955Y009462D02*
X034015Y009462D01*
X034015Y009343D02*
X033955Y009343D01*
X033901Y009139D02*
X033747Y009075D01*
X033629Y008957D01*
X033565Y008802D01*
X033565Y008635D01*
X033629Y008481D01*
X033747Y008363D01*
X033901Y008299D01*
X034068Y008299D01*
X034223Y008363D01*
X034341Y008481D01*
X034405Y008635D01*
X034405Y008802D01*
X034341Y008957D01*
X034223Y009075D01*
X034068Y009139D01*
X033901Y009139D01*
X033823Y009106D02*
X029040Y009106D01*
X029012Y009134D02*
X029150Y008996D01*
X029225Y008816D01*
X029225Y008621D01*
X029150Y008441D01*
X029012Y008303D01*
X028832Y008229D01*
X028637Y008229D01*
X028457Y008303D01*
X028319Y008441D01*
X028245Y008621D01*
X028245Y008816D01*
X028319Y008996D01*
X028457Y009134D01*
X028637Y009209D01*
X028832Y009209D01*
X029012Y009134D01*
X029154Y008988D02*
X030855Y008988D01*
X030725Y008869D02*
X029203Y008869D01*
X029225Y008751D02*
X030687Y008751D01*
X030698Y008632D02*
X029225Y008632D01*
X029180Y008514D02*
X030705Y008514D01*
X030705Y008395D02*
X029104Y008395D01*
X028948Y008277D02*
X030705Y008277D01*
X030705Y008158D02*
X028954Y008158D01*
X029012Y008134D02*
X028832Y008209D01*
X028637Y008209D01*
X028457Y008134D01*
X028319Y007996D01*
X028245Y007816D01*
X028245Y007621D01*
X028319Y007441D01*
X028457Y007303D01*
X028637Y007229D01*
X028832Y007229D01*
X029012Y007303D01*
X029150Y007441D01*
X029225Y007621D01*
X029225Y007816D01*
X029150Y007996D01*
X029012Y008134D01*
X029107Y008040D02*
X030705Y008040D01*
X030705Y007921D02*
X029181Y007921D01*
X029225Y007803D02*
X030705Y007803D01*
X030705Y007684D02*
X029225Y007684D01*
X029202Y007566D02*
X030705Y007566D01*
X030705Y007447D02*
X029153Y007447D01*
X029038Y007329D02*
X030705Y007329D01*
X030705Y007210D02*
X022975Y007210D01*
X022975Y007092D02*
X028415Y007092D01*
X028310Y006973D02*
X022975Y006973D01*
X022975Y006855D02*
X028261Y006855D01*
X028245Y006736D02*
X022975Y006736D01*
X022975Y006618D02*
X028246Y006618D01*
X028295Y006499D02*
X022975Y006499D01*
X022975Y006381D02*
X028380Y006381D01*
X028913Y006262D02*
X030705Y006262D01*
X030705Y006144D02*
X028989Y006144D01*
X029121Y006025D02*
X030705Y006025D01*
X030705Y005907D02*
X029187Y005907D01*
X029225Y005788D02*
X030705Y005788D01*
X030705Y005670D02*
X029225Y005670D01*
X029196Y005551D02*
X030705Y005551D01*
X030705Y005433D02*
X029142Y005433D01*
X029090Y006381D02*
X030705Y006381D01*
X030705Y006499D02*
X029174Y006499D01*
X029223Y006618D02*
X030705Y006618D01*
X030705Y006736D02*
X029225Y006736D01*
X029209Y006855D02*
X030705Y006855D01*
X030705Y006973D02*
X029160Y006973D01*
X029055Y007092D02*
X030705Y007092D01*
X031265Y007092D02*
X033665Y007092D01*
X033707Y007134D02*
X033569Y006996D01*
X033495Y006816D01*
X033495Y006621D01*
X033569Y006441D01*
X033707Y006303D01*
X033887Y006229D01*
X034082Y006229D01*
X034262Y006303D01*
X034400Y006441D01*
X034475Y006621D01*
X034475Y006816D01*
X034400Y006996D01*
X034262Y007134D01*
X034082Y007209D01*
X033887Y007209D01*
X033707Y007134D01*
X033707Y007303D02*
X033887Y007229D01*
X034082Y007229D01*
X034262Y007303D01*
X034400Y007441D01*
X034475Y007621D01*
X034475Y007816D01*
X034400Y007996D01*
X034262Y008134D01*
X034082Y008209D01*
X033887Y008209D01*
X033707Y008134D01*
X033569Y007996D01*
X033495Y007816D01*
X033495Y007621D01*
X033569Y007441D01*
X033707Y007303D01*
X033682Y007329D02*
X031265Y007329D01*
X031265Y007447D02*
X033567Y007447D01*
X033518Y007566D02*
X031265Y007566D01*
X031265Y007684D02*
X033495Y007684D01*
X033495Y007803D02*
X031265Y007803D01*
X031265Y007921D02*
X033538Y007921D01*
X033613Y008040D02*
X031265Y008040D01*
X031265Y008158D02*
X033766Y008158D01*
X033714Y008395D02*
X031265Y008395D01*
X031265Y008277D02*
X040892Y008277D01*
X040884Y008268D02*
X040841Y008210D01*
X040809Y008145D01*
X040786Y008076D01*
X040775Y008005D01*
X040775Y007999D01*
X041205Y007999D01*
X041205Y008429D01*
X041199Y008429D01*
X041127Y008417D01*
X041058Y008395D01*
X040994Y008362D01*
X040935Y008320D01*
X040884Y008268D01*
X040815Y008158D02*
X034204Y008158D01*
X034357Y008040D02*
X040780Y008040D01*
X040775Y007939D02*
X040775Y007932D01*
X040786Y007861D01*
X040809Y007792D01*
X040841Y007728D01*
X040884Y007669D01*
X040935Y007618D01*
X040994Y007575D01*
X041058Y007542D01*
X041127Y007520D01*
X041199Y007509D01*
X041205Y007509D01*
X041205Y007939D01*
X040775Y007939D01*
X040777Y007921D02*
X034431Y007921D01*
X034475Y007803D02*
X040805Y007803D01*
X040873Y007684D02*
X034475Y007684D01*
X034452Y007566D02*
X041013Y007566D01*
X041205Y007566D02*
X041265Y007566D01*
X041265Y007509D02*
X041271Y007509D01*
X041343Y007520D01*
X041411Y007542D01*
X041476Y007575D01*
X041535Y007618D01*
X041586Y007669D01*
X041628Y007728D01*
X041661Y007792D01*
X041684Y007861D01*
X041695Y007932D01*
X041695Y007939D01*
X041265Y007939D01*
X041265Y007999D01*
X041205Y007999D01*
X041205Y007939D01*
X041265Y007939D01*
X041265Y007509D01*
X041318Y007389D02*
X041151Y007389D01*
X040997Y007325D01*
X040879Y007207D01*
X040815Y007052D01*
X040815Y006885D01*
X040879Y006731D01*
X040997Y006613D01*
X041151Y006549D01*
X041318Y006549D01*
X041473Y006613D01*
X041591Y006731D01*
X041655Y006885D01*
X041655Y007052D01*
X041591Y007207D01*
X041473Y007325D01*
X041318Y007389D01*
X041463Y007329D02*
X041855Y007329D01*
X041855Y007447D02*
X034403Y007447D01*
X034288Y007329D02*
X041006Y007329D01*
X040882Y007210D02*
X031265Y007210D01*
X031265Y006973D02*
X033560Y006973D01*
X033511Y006855D02*
X031265Y006855D01*
X031265Y006736D02*
X033495Y006736D01*
X033496Y006618D02*
X031265Y006618D01*
X031265Y006499D02*
X033545Y006499D01*
X033630Y006381D02*
X031265Y006381D01*
X031265Y006262D02*
X033806Y006262D01*
X034163Y006262D02*
X041855Y006262D01*
X041855Y006144D02*
X031265Y006144D01*
X031265Y006025D02*
X040815Y006025D01*
X040815Y006068D02*
X040815Y005369D01*
X040885Y005299D01*
X041585Y005299D01*
X041655Y005369D01*
X041655Y006068D01*
X041585Y006139D01*
X040885Y006139D01*
X040815Y006068D01*
X040815Y005907D02*
X031265Y005907D01*
X031265Y005788D02*
X040815Y005788D01*
X040815Y005670D02*
X031265Y005670D01*
X031265Y005551D02*
X040815Y005551D01*
X040815Y005433D02*
X031265Y005433D01*
X031265Y005314D02*
X040870Y005314D01*
X040994Y005112D02*
X040935Y005070D01*
X040884Y005018D01*
X040841Y004960D01*
X040809Y004895D01*
X040786Y004826D01*
X040775Y004755D01*
X040775Y004749D01*
X041205Y004749D01*
X041205Y005179D01*
X041199Y005179D01*
X041127Y005167D01*
X041058Y005145D01*
X040994Y005112D01*
X040946Y005077D02*
X031265Y005077D01*
X031265Y004959D02*
X040841Y004959D01*
X040791Y004840D02*
X031265Y004840D01*
X031265Y004722D02*
X041205Y004722D01*
X041205Y004749D02*
X041205Y004689D01*
X040775Y004689D01*
X040775Y004682D01*
X040786Y004611D01*
X040809Y004542D01*
X040841Y004478D01*
X040884Y004419D01*
X040935Y004368D01*
X040994Y004325D01*
X041058Y004292D01*
X041127Y004270D01*
X041199Y004259D01*
X041205Y004259D01*
X041205Y004689D01*
X041265Y004689D01*
X041265Y004749D01*
X041205Y004749D01*
X041265Y004749D02*
X041265Y005179D01*
X041271Y005179D01*
X041343Y005167D01*
X041411Y005145D01*
X041476Y005112D01*
X041535Y005070D01*
X041586Y005018D01*
X041628Y004960D01*
X041661Y004895D01*
X041684Y004826D01*
X041695Y004755D01*
X041695Y004749D01*
X041265Y004749D01*
X041265Y004722D02*
X041855Y004722D01*
X041855Y004840D02*
X041679Y004840D01*
X041629Y004959D02*
X041855Y004959D01*
X041855Y005077D02*
X041524Y005077D01*
X041600Y005314D02*
X041855Y005314D01*
X041855Y005196D02*
X031265Y005196D01*
X031265Y004603D02*
X040789Y004603D01*
X040838Y004485D02*
X031265Y004485D01*
X031265Y004366D02*
X040937Y004366D01*
X041205Y004366D02*
X041265Y004366D01*
X041265Y004259D02*
X041271Y004259D01*
X041343Y004270D01*
X041411Y004292D01*
X041476Y004325D01*
X041535Y004368D01*
X041586Y004419D01*
X041628Y004478D01*
X041661Y004542D01*
X041684Y004611D01*
X041695Y004682D01*
X041695Y004689D01*
X041265Y004689D01*
X041265Y004259D01*
X041318Y004139D02*
X041151Y004139D01*
X040997Y004075D01*
X040879Y003957D01*
X040815Y003802D01*
X040815Y003635D01*
X040879Y003481D01*
X040997Y003363D01*
X041151Y003299D01*
X041318Y003299D01*
X041473Y003363D01*
X041591Y003481D01*
X041655Y003635D01*
X041655Y003802D01*
X041591Y003957D01*
X041473Y004075D01*
X041318Y004139D01*
X041341Y004129D02*
X041855Y004129D01*
X041855Y004011D02*
X041537Y004011D01*
X041618Y003892D02*
X041855Y003892D01*
X041855Y003774D02*
X041655Y003774D01*
X041655Y003655D02*
X041855Y003655D01*
X041855Y003537D02*
X041614Y003537D01*
X041528Y003418D02*
X041855Y003418D01*
X041855Y003300D02*
X041321Y003300D01*
X041149Y003300D02*
X031265Y003300D01*
X031265Y003418D02*
X040941Y003418D01*
X040856Y003537D02*
X031265Y003537D01*
X031265Y003655D02*
X040815Y003655D01*
X040815Y003774D02*
X031265Y003774D01*
X031265Y003892D02*
X040852Y003892D01*
X040933Y004011D02*
X031265Y004011D01*
X031265Y004129D02*
X041128Y004129D01*
X041205Y004485D02*
X041265Y004485D01*
X041265Y004603D02*
X041205Y004603D01*
X041205Y004840D02*
X041265Y004840D01*
X041265Y004959D02*
X041205Y004959D01*
X041205Y005077D02*
X041265Y005077D01*
X041655Y005433D02*
X041855Y005433D01*
X041855Y005551D02*
X041655Y005551D01*
X041655Y005670D02*
X041855Y005670D01*
X041855Y005788D02*
X041655Y005788D01*
X041655Y005907D02*
X041855Y005907D01*
X041855Y006025D02*
X041655Y006025D01*
X041855Y006381D02*
X034340Y006381D01*
X034424Y006499D02*
X041855Y006499D01*
X041855Y006618D02*
X041478Y006618D01*
X041593Y006736D02*
X041855Y006736D01*
X041855Y006855D02*
X041642Y006855D01*
X041655Y006973D02*
X041855Y006973D01*
X041855Y007092D02*
X041639Y007092D01*
X041587Y007210D02*
X041855Y007210D01*
X041855Y007566D02*
X041457Y007566D01*
X041597Y007684D02*
X041855Y007684D01*
X041855Y007803D02*
X041665Y007803D01*
X041693Y007921D02*
X041855Y007921D01*
X041855Y008040D02*
X041689Y008040D01*
X041695Y008005D02*
X041684Y008076D01*
X041661Y008145D01*
X041628Y008210D01*
X041586Y008268D01*
X041535Y008320D01*
X041476Y008362D01*
X041411Y008395D01*
X041855Y008395D01*
X041855Y008277D02*
X041577Y008277D01*
X041655Y008158D02*
X041855Y008158D01*
X041695Y008005D02*
X041695Y007999D01*
X041265Y007999D01*
X041265Y008429D01*
X041271Y008429D01*
X041343Y008417D01*
X041411Y008395D01*
X041265Y008395D02*
X041205Y008395D01*
X041205Y008277D02*
X041265Y008277D01*
X041265Y008158D02*
X041205Y008158D01*
X041205Y008040D02*
X041265Y008040D01*
X041265Y007921D02*
X041205Y007921D01*
X041205Y007803D02*
X041265Y007803D01*
X041265Y007684D02*
X041205Y007684D01*
X040831Y007092D02*
X034305Y007092D01*
X034410Y006973D02*
X040815Y006973D01*
X040827Y006855D02*
X034459Y006855D01*
X034475Y006736D02*
X040877Y006736D01*
X040992Y006618D02*
X034473Y006618D01*
X034255Y008395D02*
X041059Y008395D01*
X040885Y008549D02*
X041585Y008549D01*
X041655Y008619D01*
X041655Y009318D01*
X041585Y009389D01*
X040885Y009389D01*
X040815Y009318D01*
X040815Y008619D01*
X040885Y008549D01*
X040815Y008632D02*
X034404Y008632D01*
X034405Y008751D02*
X040815Y008751D01*
X040815Y008869D02*
X034377Y008869D01*
X034310Y008988D02*
X040815Y008988D01*
X040815Y009106D02*
X034147Y009106D01*
X033660Y008988D02*
X031114Y008988D01*
X031245Y008869D02*
X033593Y008869D01*
X033565Y008751D02*
X031283Y008751D01*
X031272Y008632D02*
X033566Y008632D01*
X033615Y008514D02*
X031265Y008514D01*
X033546Y009580D02*
X025985Y009580D01*
X025985Y009462D02*
X033603Y009462D01*
X033719Y009343D02*
X025985Y009343D01*
X025985Y009225D02*
X040815Y009225D01*
X040840Y009343D02*
X034251Y009343D01*
X034367Y009462D02*
X041855Y009462D01*
X041855Y009580D02*
X034424Y009580D01*
X033565Y010410D02*
X025985Y010410D01*
X025985Y010528D02*
X033565Y010528D01*
X033565Y010647D02*
X025985Y010647D01*
X025985Y010765D02*
X033565Y010765D01*
X033565Y010884D02*
X025985Y010884D01*
X025985Y011002D02*
X033565Y011002D01*
X033617Y011121D02*
X025985Y011121D01*
X025735Y011832D02*
X018477Y011832D01*
X018610Y011950D02*
X025735Y011950D01*
X025735Y012069D02*
X018679Y012069D01*
X018719Y012187D02*
X025716Y012187D01*
X025711Y012306D02*
X018719Y012306D01*
X018695Y012424D02*
X025734Y012424D01*
X025735Y012543D02*
X018646Y012543D01*
X018531Y012661D02*
X025735Y012661D01*
X025735Y012780D02*
X018459Y012780D01*
X018459Y012898D02*
X025735Y012898D01*
X025735Y013017D02*
X018459Y013017D01*
X018459Y013135D02*
X025735Y013135D01*
X025735Y013254D02*
X018459Y013254D01*
X018459Y013372D02*
X025735Y013372D01*
X025735Y013491D02*
X018459Y013491D01*
X018459Y013609D02*
X025735Y013609D01*
X025735Y013728D02*
X018459Y013728D01*
X018459Y013846D02*
X025735Y013846D01*
X025735Y013965D02*
X018459Y013965D01*
X018510Y014083D02*
X025735Y014083D01*
X025735Y014202D02*
X018624Y014202D01*
X018658Y014320D02*
X025735Y014320D01*
X025735Y014439D02*
X018643Y014439D01*
X019354Y014557D02*
X025115Y014557D01*
X024997Y014676D02*
X019473Y014676D01*
X019591Y014794D02*
X024878Y014794D01*
X024760Y014913D02*
X019710Y014913D01*
X019720Y015031D02*
X024749Y015031D01*
X024749Y015150D02*
X019720Y015150D01*
X019720Y015387D02*
X024749Y015387D01*
X024749Y015505D02*
X019720Y015505D01*
X019611Y015624D02*
X024859Y015624D01*
X024977Y015742D02*
X019492Y015742D01*
X019374Y015861D02*
X025096Y015861D01*
X025985Y016098D02*
X031366Y016098D01*
X031412Y016216D02*
X030751Y016216D01*
X030943Y016335D02*
X031479Y016335D01*
X031576Y016453D02*
X031062Y016453D01*
X031146Y016572D02*
X031713Y016572D01*
X031948Y016690D02*
X031195Y016690D01*
X030018Y016216D02*
X025985Y016216D01*
X025985Y016335D02*
X029825Y016335D01*
X029707Y016453D02*
X025985Y016453D01*
X025985Y016572D02*
X029623Y016572D01*
X029574Y016690D02*
X025985Y016690D01*
X025985Y016809D02*
X029525Y016809D01*
X029514Y016927D02*
X025985Y016927D01*
X025985Y017046D02*
X029514Y017046D01*
X029514Y017164D02*
X025985Y017164D01*
X025985Y017283D02*
X029557Y017283D01*
X029606Y017401D02*
X025985Y017401D01*
X025985Y017520D02*
X029668Y017520D01*
X029786Y017638D02*
X025985Y017638D01*
X025985Y017757D02*
X029923Y017757D01*
X030209Y017875D02*
X025985Y017875D01*
X025735Y017638D02*
X002815Y017638D01*
X002815Y017520D02*
X025735Y017520D01*
X025735Y017401D02*
X002815Y017401D01*
X002815Y017283D02*
X025735Y017283D01*
X025735Y017164D02*
X004440Y017164D01*
X004601Y017046D02*
X025735Y017046D01*
X025735Y018468D02*
X002815Y018468D01*
X002815Y018586D02*
X025735Y018586D01*
X025523Y015150D02*
X025403Y015150D01*
X025403Y015031D02*
X025523Y015031D01*
X025523Y014913D02*
X025403Y014913D01*
X025403Y014794D02*
X025523Y014794D01*
X025523Y014676D02*
X025403Y014676D01*
X025403Y014557D02*
X025523Y014557D01*
X025985Y013609D02*
X041855Y013609D01*
X041855Y013491D02*
X025985Y013491D01*
X025985Y013372D02*
X041855Y013372D01*
X041855Y013254D02*
X025985Y013254D01*
X025985Y013135D02*
X041855Y013135D01*
X041855Y013017D02*
X025985Y013017D01*
X032894Y016453D02*
X041855Y016453D01*
X041855Y016335D02*
X032991Y016335D01*
X033058Y016216D02*
X041855Y016216D01*
X041855Y016098D02*
X033104Y016098D01*
X032757Y016572D02*
X041855Y016572D01*
X041855Y015742D02*
X039492Y015742D01*
X039611Y015624D02*
X041855Y015624D01*
X041855Y015505D02*
X039720Y015505D01*
X039720Y015387D02*
X041855Y015387D01*
X041855Y009343D02*
X041630Y009343D01*
X041655Y009225D02*
X041855Y009225D01*
X041855Y009106D02*
X041655Y009106D01*
X041655Y008988D02*
X041855Y008988D01*
X041855Y008869D02*
X041655Y008869D01*
X041655Y008751D02*
X041855Y008751D01*
X041855Y008632D02*
X041655Y008632D01*
X041855Y008514D02*
X034355Y008514D01*
X028521Y008277D02*
X025985Y008277D01*
X025985Y008395D02*
X028365Y008395D01*
X028289Y008514D02*
X025985Y008514D01*
X025985Y008632D02*
X028245Y008632D01*
X028245Y008751D02*
X025985Y008751D01*
X025985Y008869D02*
X028267Y008869D01*
X028316Y008988D02*
X025985Y008988D01*
X025985Y009106D02*
X028429Y009106D01*
X028516Y008158D02*
X022975Y008158D01*
X022975Y008040D02*
X028363Y008040D01*
X028288Y007921D02*
X022975Y007921D01*
X022975Y007803D02*
X028245Y007803D01*
X028245Y007684D02*
X022975Y007684D01*
X022975Y007566D02*
X028268Y007566D01*
X028317Y007447D02*
X022975Y007447D01*
X022975Y007329D02*
X028432Y007329D01*
X025735Y008277D02*
X022975Y008277D01*
X022975Y008395D02*
X025735Y008395D01*
X025735Y008514D02*
X023024Y008514D01*
X023033Y008632D02*
X025735Y008632D01*
X025735Y008751D02*
X022992Y008751D01*
X022849Y008869D02*
X025735Y008869D01*
X022327Y005433D02*
X022087Y005433D01*
X022135Y005314D02*
X022295Y005314D01*
X022295Y005196D02*
X022135Y005196D01*
X022135Y005077D02*
X022295Y005077D01*
X022373Y004959D02*
X022041Y004959D01*
X021922Y004840D02*
X022491Y004840D01*
X025735Y003892D02*
X018540Y003892D01*
X018540Y003774D02*
X025735Y003774D01*
X025735Y003655D02*
X018540Y003655D01*
X018540Y003537D02*
X025735Y003537D01*
X025735Y003418D02*
X018540Y003418D01*
X018540Y003300D02*
X025735Y003300D01*
X025735Y003181D02*
X018540Y003181D01*
X018540Y003063D02*
X025735Y003063D01*
X025735Y002944D02*
X018556Y002944D01*
X018638Y002826D02*
X025735Y002826D01*
X025735Y002707D02*
X018658Y002707D01*
X018629Y002589D02*
X025735Y002589D01*
X025735Y002470D02*
X018533Y002470D01*
X018360Y002719D02*
X018360Y007719D01*
X018485Y007844D01*
X016610Y007094D02*
X016610Y005344D01*
X016430Y005788D02*
X014976Y005788D01*
X015032Y005907D02*
X016430Y005907D01*
X016430Y006025D02*
X015033Y006025D01*
X014981Y006144D02*
X016430Y006144D01*
X016430Y006262D02*
X014915Y006262D01*
X014915Y006381D02*
X016430Y006381D01*
X016430Y006499D02*
X014915Y006499D01*
X014915Y006618D02*
X016430Y006618D01*
X016805Y004840D02*
X010379Y004840D01*
X010284Y004722D02*
X016805Y004722D01*
X016805Y004603D02*
X002815Y004603D01*
X002815Y004485D02*
X016805Y004485D01*
X016805Y004366D02*
X002815Y004366D01*
X002815Y004248D02*
X016805Y004248D01*
X016805Y004129D02*
X002815Y004129D01*
X002815Y004011D02*
X016805Y004011D01*
X016805Y003892D02*
X002815Y003892D01*
X002815Y003774D02*
X016805Y003774D01*
X016805Y003655D02*
X002815Y003655D01*
X002815Y003537D02*
X016805Y003537D01*
X016805Y003418D02*
X002815Y003418D01*
X002815Y003300D02*
X016769Y003300D01*
X016698Y003181D02*
X002815Y003181D01*
X002815Y003063D02*
X016687Y003063D01*
X016724Y002944D02*
X002815Y002944D01*
X002815Y002826D02*
X016853Y002826D01*
X017117Y002826D02*
X018082Y002826D01*
X018062Y002707D02*
X002815Y002707D01*
X002815Y002589D02*
X018091Y002589D01*
X018187Y002470D02*
X002815Y002470D01*
X002815Y002352D02*
X015454Y002352D01*
X015345Y002233D02*
X002815Y002233D01*
X002815Y002115D02*
X015312Y002115D01*
X015258Y001996D02*
X002815Y001996D01*
X002815Y001878D02*
X015139Y001878D01*
X015021Y001759D02*
X002815Y001759D01*
X002815Y001641D02*
X014902Y001641D01*
X014784Y001522D02*
X002815Y001522D01*
X002815Y001404D02*
X006255Y001404D01*
X006108Y001285D02*
X002815Y001285D01*
X002815Y001167D02*
X006036Y001167D01*
X005995Y001048D02*
X002815Y001048D01*
X002815Y000930D02*
X005995Y000930D01*
X006020Y000811D02*
X002815Y000811D01*
X002815Y000693D02*
X006069Y000693D01*
X006186Y000574D02*
X002815Y000574D01*
X006783Y000574D02*
X007186Y000574D01*
X007069Y000693D02*
X006901Y000693D01*
X006950Y000811D02*
X007020Y000811D01*
X006995Y000930D02*
X006975Y000930D01*
X006975Y001048D02*
X006995Y001048D01*
X007036Y001167D02*
X006933Y001167D01*
X006861Y001285D02*
X007108Y001285D01*
X007255Y001404D02*
X006715Y001404D01*
X007715Y001404D02*
X008255Y001404D01*
X008108Y001285D02*
X007861Y001285D01*
X007933Y001167D02*
X008036Y001167D01*
X007995Y001048D02*
X007975Y001048D01*
X007975Y000930D02*
X007995Y000930D01*
X008020Y000811D02*
X007950Y000811D01*
X007901Y000693D02*
X008069Y000693D01*
X008186Y000574D02*
X007783Y000574D01*
X008783Y000574D02*
X009186Y000574D01*
X009069Y000693D02*
X008901Y000693D01*
X008950Y000811D02*
X009020Y000811D01*
X008995Y000930D02*
X008975Y000930D01*
X008975Y001048D02*
X008995Y001048D01*
X009036Y001167D02*
X008933Y001167D01*
X008861Y001285D02*
X009108Y001285D01*
X009255Y001404D02*
X008715Y001404D01*
X009715Y001404D02*
X010255Y001404D01*
X010108Y001285D02*
X009861Y001285D01*
X009933Y001167D02*
X010036Y001167D01*
X009995Y001048D02*
X009975Y001048D01*
X009975Y000930D02*
X009995Y000930D01*
X010020Y000811D02*
X009950Y000811D01*
X009901Y000693D02*
X010069Y000693D01*
X010186Y000574D02*
X009783Y000574D01*
X010783Y000574D02*
X011186Y000574D01*
X011069Y000693D02*
X010901Y000693D01*
X010950Y000811D02*
X011020Y000811D01*
X010995Y000930D02*
X010975Y000930D01*
X010975Y001048D02*
X010995Y001048D01*
X011036Y001167D02*
X010933Y001167D01*
X010861Y001285D02*
X011108Y001285D01*
X011255Y001404D02*
X010715Y001404D01*
X011715Y001404D02*
X012255Y001404D01*
X012108Y001285D02*
X011861Y001285D01*
X011933Y001167D02*
X012036Y001167D01*
X011995Y001048D02*
X011975Y001048D01*
X011975Y000930D02*
X011995Y000930D01*
X012020Y000811D02*
X011950Y000811D01*
X011901Y000693D02*
X012069Y000693D01*
X012186Y000574D02*
X011783Y000574D01*
X012783Y000574D02*
X013186Y000574D01*
X013069Y000693D02*
X012901Y000693D01*
X012950Y000811D02*
X013020Y000811D01*
X012995Y000930D02*
X012975Y000930D01*
X012975Y001048D02*
X012995Y001048D01*
X013036Y001167D02*
X012933Y001167D01*
X012861Y001285D02*
X013108Y001285D01*
X013255Y001404D02*
X012715Y001404D01*
X013715Y001404D02*
X014255Y001404D01*
X014108Y001285D02*
X013861Y001285D01*
X013933Y001167D02*
X014036Y001167D01*
X013995Y001048D02*
X013975Y001048D01*
X013975Y000930D02*
X013995Y000930D01*
X014020Y000811D02*
X013950Y000811D01*
X013901Y000693D02*
X014069Y000693D01*
X014186Y000574D02*
X013783Y000574D01*
X014485Y000969D02*
X015610Y002094D01*
X015815Y001878D02*
X025735Y001878D01*
X025735Y001996D02*
X015892Y001996D01*
X015908Y002115D02*
X025735Y002115D01*
X025735Y002233D02*
X015875Y002233D01*
X015766Y002352D02*
X025735Y002352D01*
X025735Y001759D02*
X015530Y001759D01*
X015411Y001641D02*
X025735Y001641D01*
X025735Y001522D02*
X015293Y001522D01*
X015255Y001404D02*
X015174Y001404D01*
X015108Y001285D02*
X015056Y001285D01*
X015036Y001167D02*
X014937Y001167D01*
X014975Y001048D02*
X014995Y001048D01*
X014995Y000930D02*
X014975Y000930D01*
X014950Y000811D02*
X015020Y000811D01*
X015069Y000693D02*
X014901Y000693D01*
X014783Y000574D02*
X015186Y000574D01*
X015783Y000574D02*
X025735Y000574D01*
X025735Y000693D02*
X015901Y000693D01*
X015950Y000811D02*
X025735Y000811D01*
X025735Y000930D02*
X015975Y000930D01*
X015975Y001048D02*
X025735Y001048D01*
X025735Y001167D02*
X015933Y001167D01*
X015861Y001285D02*
X025735Y001285D01*
X025735Y001404D02*
X015715Y001404D01*
X017246Y002944D02*
X018164Y002944D01*
X018180Y003063D02*
X017283Y003063D01*
X017271Y003181D02*
X018180Y003181D01*
X012158Y006499D02*
X011395Y006499D01*
X011415Y006618D02*
X012079Y006618D01*
X012062Y006736D02*
X011415Y006736D01*
X011415Y006855D02*
X012094Y006855D01*
X012180Y006973D02*
X011911Y006973D01*
X012005Y007092D02*
X012180Y007092D01*
X012180Y007210D02*
X012033Y007210D01*
X012012Y007329D02*
X012180Y007329D01*
X012180Y007447D02*
X011928Y007447D01*
X011915Y007566D02*
X012180Y007566D01*
X012180Y007684D02*
X011915Y007684D01*
X011915Y007803D02*
X012180Y007803D01*
X012180Y007921D02*
X011915Y007921D01*
X011915Y008040D02*
X012180Y008040D01*
X012180Y008158D02*
X011915Y008158D01*
X011915Y008277D02*
X012180Y008277D01*
X012180Y008395D02*
X011915Y008395D01*
X011915Y008514D02*
X012180Y008514D01*
X012180Y008632D02*
X011915Y008632D01*
X011915Y008751D02*
X012180Y008751D01*
X012180Y008869D02*
X011915Y008869D01*
X011915Y008988D02*
X012180Y008988D01*
X012180Y009106D02*
X011915Y009106D01*
X011915Y009225D02*
X012180Y009225D01*
X012180Y009343D02*
X011915Y009343D01*
X011915Y009462D02*
X012180Y009462D01*
X012180Y009580D02*
X011915Y009580D01*
X011915Y009699D02*
X012180Y009699D01*
X012180Y009817D02*
X011915Y009817D01*
X011915Y009936D02*
X012180Y009936D01*
X012180Y010054D02*
X011915Y010054D01*
X011915Y010173D02*
X012180Y010173D01*
X012180Y010291D02*
X011915Y010291D01*
X011915Y010410D02*
X012180Y010410D01*
X012180Y010528D02*
X011915Y010528D01*
X011915Y010647D02*
X012180Y010647D01*
X012180Y010765D02*
X011915Y010765D01*
X011915Y010884D02*
X012180Y010884D01*
X012180Y011002D02*
X011915Y011002D01*
X011915Y011121D02*
X012180Y011121D01*
X012180Y011239D02*
X011915Y011239D01*
X011915Y011358D02*
X012180Y011358D01*
X012180Y011476D02*
X011915Y011476D01*
X012006Y011595D02*
X012180Y011595D01*
X012180Y011713D02*
X012033Y011713D01*
X012011Y011832D02*
X012180Y011832D01*
X012180Y011950D02*
X011925Y011950D01*
X011839Y012069D02*
X012180Y012069D01*
X012180Y012187D02*
X011958Y012187D01*
X012076Y012306D02*
X012180Y012306D01*
X011735Y011719D02*
X011735Y007219D01*
X011458Y007329D02*
X011415Y007329D01*
X011415Y007447D02*
X011542Y007447D01*
X011555Y007566D02*
X011415Y007566D01*
X011415Y007684D02*
X011555Y007684D01*
X011555Y007803D02*
X011415Y007803D01*
X011415Y007921D02*
X011555Y007921D01*
X011555Y008040D02*
X011415Y008040D01*
X011415Y008158D02*
X011555Y008158D01*
X011555Y008277D02*
X011415Y008277D01*
X011415Y008395D02*
X011555Y008395D01*
X011555Y008514D02*
X011415Y008514D01*
X011415Y008632D02*
X011555Y008632D01*
X011555Y008751D02*
X011415Y008751D01*
X011415Y008869D02*
X011555Y008869D01*
X011555Y008988D02*
X011415Y008988D01*
X011415Y009106D02*
X011555Y009106D01*
X011555Y009225D02*
X011415Y009225D01*
X011415Y009343D02*
X011555Y009343D01*
X011555Y009462D02*
X011415Y009462D01*
X011415Y009580D02*
X011555Y009580D01*
X011555Y009699D02*
X011415Y009699D01*
X011415Y009817D02*
X011555Y009817D01*
X011555Y009936D02*
X011415Y009936D01*
X011415Y010054D02*
X011555Y010054D01*
X011555Y010173D02*
X011415Y010173D01*
X011415Y010291D02*
X011555Y010291D01*
X011555Y010410D02*
X011415Y010410D01*
X011415Y010528D02*
X011555Y010528D01*
X011555Y010647D02*
X011415Y010647D01*
X011415Y010765D02*
X011555Y010765D01*
X011555Y010884D02*
X011415Y010884D01*
X011415Y011002D02*
X011555Y011002D01*
X011555Y011121D02*
X011415Y011121D01*
X011415Y011239D02*
X011555Y011239D01*
X011555Y011358D02*
X011415Y011358D01*
X011415Y011476D02*
X011555Y011476D01*
X011464Y011595D02*
X011415Y011595D01*
X009930Y011595D02*
X009915Y011595D01*
X009915Y011713D02*
X009930Y011713D01*
X009915Y011832D02*
X009930Y011832D01*
X009915Y011950D02*
X009930Y011950D01*
X009915Y012069D02*
X009930Y012069D01*
X009915Y012187D02*
X009949Y012187D01*
X009990Y012306D02*
X010067Y012306D01*
X010033Y012424D02*
X010186Y012424D01*
X010304Y012543D02*
X010027Y012543D01*
X009964Y012661D02*
X010423Y012661D01*
X010541Y012780D02*
X009415Y012780D01*
X009415Y012898D02*
X010660Y012898D01*
X010778Y013017D02*
X009454Y013017D01*
X009523Y013135D02*
X010897Y013135D01*
X011015Y013254D02*
X009533Y013254D01*
X009494Y013372D02*
X011134Y013372D01*
X011252Y013491D02*
X009357Y013491D01*
X009235Y013219D02*
X009235Y006719D01*
X009533Y006736D02*
X009555Y006736D01*
X009555Y006855D02*
X009501Y006855D01*
X009555Y006973D02*
X009415Y006973D01*
X009415Y007092D02*
X009555Y007092D01*
X009555Y007210D02*
X009415Y007210D01*
X009415Y007329D02*
X009555Y007329D01*
X009555Y007447D02*
X009415Y007447D01*
X009415Y007566D02*
X009555Y007566D01*
X009555Y007684D02*
X009415Y007684D01*
X009415Y007803D02*
X009555Y007803D01*
X009555Y007921D02*
X009415Y007921D01*
X009415Y008040D02*
X009555Y008040D01*
X009555Y008158D02*
X009415Y008158D01*
X009415Y008277D02*
X009555Y008277D01*
X009555Y008395D02*
X009415Y008395D01*
X009415Y008514D02*
X009555Y008514D01*
X009555Y008632D02*
X009415Y008632D01*
X009415Y008751D02*
X009555Y008751D01*
X009555Y008869D02*
X009415Y008869D01*
X009415Y008988D02*
X009555Y008988D01*
X009555Y009106D02*
X009415Y009106D01*
X009415Y009225D02*
X009555Y009225D01*
X009555Y009343D02*
X009415Y009343D01*
X009415Y009462D02*
X009555Y009462D01*
X009555Y009580D02*
X009415Y009580D01*
X009415Y009699D02*
X009555Y009699D01*
X009555Y009817D02*
X009415Y009817D01*
X009415Y009936D02*
X009555Y009936D01*
X009555Y010054D02*
X009415Y010054D01*
X009415Y010173D02*
X009555Y010173D01*
X009555Y010291D02*
X009415Y010291D01*
X009415Y010410D02*
X009555Y010410D01*
X009555Y010528D02*
X009415Y010528D01*
X009415Y010647D02*
X009555Y010647D01*
X009555Y010765D02*
X009415Y010765D01*
X009415Y010884D02*
X009555Y010884D01*
X009555Y011002D02*
X009415Y011002D01*
X009415Y011121D02*
X009555Y011121D01*
X009555Y011239D02*
X009415Y011239D01*
X009415Y011358D02*
X009555Y011358D01*
X009555Y011476D02*
X009415Y011476D01*
X009415Y011595D02*
X009555Y011595D01*
X009555Y011713D02*
X009415Y011713D01*
X009415Y011832D02*
X009555Y011832D01*
X009555Y011950D02*
X009415Y011950D01*
X009415Y012069D02*
X009555Y012069D01*
X009555Y012187D02*
X009415Y012187D01*
X009415Y012306D02*
X009480Y012306D01*
X009437Y012424D02*
X009415Y012424D01*
X009415Y012543D02*
X009443Y012543D01*
X009415Y012661D02*
X009506Y012661D01*
X009735Y012469D02*
X009735Y006469D01*
X009915Y006736D02*
X009930Y006736D01*
X009915Y006855D02*
X009930Y006855D01*
X009915Y006973D02*
X009930Y006973D01*
X009915Y007092D02*
X009930Y007092D01*
X009915Y007210D02*
X009930Y007210D01*
X009915Y007329D02*
X009930Y007329D01*
X009915Y007447D02*
X009930Y007447D01*
X009915Y007566D02*
X009930Y007566D01*
X009915Y007684D02*
X009930Y007684D01*
X009915Y007803D02*
X009930Y007803D01*
X009915Y007921D02*
X009930Y007921D01*
X009915Y008040D02*
X009930Y008040D01*
X009915Y008158D02*
X009930Y008158D01*
X009915Y008277D02*
X009930Y008277D01*
X009915Y008395D02*
X009930Y008395D01*
X009915Y008514D02*
X009930Y008514D01*
X009915Y008632D02*
X009930Y008632D01*
X009915Y008751D02*
X009930Y008751D01*
X009915Y008869D02*
X009930Y008869D01*
X009915Y008988D02*
X009930Y008988D01*
X009915Y009106D02*
X009930Y009106D01*
X009915Y009225D02*
X009930Y009225D01*
X009915Y009343D02*
X009930Y009343D01*
X009915Y009462D02*
X009930Y009462D01*
X009915Y009580D02*
X009930Y009580D01*
X009915Y009699D02*
X009930Y009699D01*
X009915Y009817D02*
X009930Y009817D01*
X009915Y009936D02*
X009930Y009936D01*
X009915Y010054D02*
X009930Y010054D01*
X009915Y010173D02*
X009930Y010173D01*
X009915Y010291D02*
X009930Y010291D01*
X009915Y010410D02*
X009930Y010410D01*
X009915Y010528D02*
X009930Y010528D01*
X009915Y010647D02*
X009930Y010647D01*
X009915Y010765D02*
X009930Y010765D01*
X009915Y010884D02*
X009930Y010884D01*
X009915Y011002D02*
X009930Y011002D01*
X009915Y011121D02*
X009930Y011121D01*
X009915Y011239D02*
X009930Y011239D01*
X009915Y011358D02*
X009930Y011358D01*
X009915Y011476D02*
X009930Y011476D01*
X007979Y011476D02*
X003659Y011476D01*
X003708Y011358D02*
X007979Y011358D01*
X007979Y011239D02*
X003725Y011239D01*
X003725Y011121D02*
X007979Y011121D01*
X007979Y011002D02*
X003676Y011002D01*
X003593Y010884D02*
X007979Y010884D01*
X007979Y010765D02*
X003420Y010765D01*
X003547Y010647D02*
X007979Y010647D01*
X007979Y010528D02*
X003665Y010528D01*
X003730Y010410D02*
X007979Y010410D01*
X007979Y010291D02*
X003760Y010291D01*
X003765Y010179D02*
X003275Y010179D01*
X003275Y009689D01*
X003277Y009689D01*
X003359Y009702D01*
X003438Y009727D01*
X003513Y009765D01*
X003580Y009814D01*
X003639Y009873D01*
X003688Y009941D01*
X003726Y010015D01*
X003752Y010095D01*
X003765Y010177D01*
X003765Y010179D01*
X003764Y010173D02*
X007979Y010173D01*
X007979Y010054D02*
X003739Y010054D01*
X003684Y009936D02*
X007979Y009936D01*
X007979Y009817D02*
X003583Y009817D01*
X003340Y009699D02*
X007979Y009699D01*
X007979Y009580D02*
X002815Y009580D01*
X002815Y009462D02*
X007979Y009462D01*
X007938Y009343D02*
X002815Y009343D01*
X002815Y009225D02*
X007878Y009225D01*
X007874Y009106D02*
X002815Y009106D01*
X002815Y008988D02*
X007919Y008988D01*
X011415Y007210D02*
X011437Y007210D01*
X011415Y007092D02*
X011465Y007092D01*
X011415Y006973D02*
X011559Y006973D01*
X003275Y009699D02*
X003195Y009699D01*
X003130Y009699D02*
X002815Y009699D01*
X002815Y009817D02*
X002887Y009817D01*
X003195Y009817D02*
X003275Y009817D01*
X003275Y009936D02*
X003195Y009936D01*
X003195Y010054D02*
X003275Y010054D01*
X003275Y010173D02*
X003195Y010173D01*
X002918Y011595D02*
X002815Y011595D01*
X002815Y011713D02*
X007979Y011713D01*
X007979Y011595D02*
X003552Y011595D01*
X002929Y011832D02*
X002815Y011832D01*
X002815Y011950D02*
X002816Y011950D01*
X003235Y012219D02*
X004235Y013219D01*
X004235Y016719D01*
X003791Y016927D02*
X003679Y016927D01*
X003725Y016809D02*
X003745Y016809D01*
X003745Y016690D02*
X003725Y016690D01*
X003704Y016572D02*
X003765Y016572D01*
X003814Y016453D02*
X003655Y016453D01*
X003544Y016335D02*
X003926Y016335D01*
X004055Y016216D02*
X002815Y016216D01*
X002815Y016098D02*
X004055Y016098D01*
X004055Y015979D02*
X002815Y015979D01*
X002815Y015861D02*
X004055Y015861D01*
X004055Y015742D02*
X002815Y015742D01*
X002815Y015624D02*
X002947Y015624D01*
X002828Y015505D02*
X002815Y015505D01*
X003523Y015624D02*
X004055Y015624D01*
X004055Y015505D02*
X003641Y015505D01*
X003696Y015387D02*
X004055Y015387D01*
X004055Y015268D02*
X003725Y015268D01*
X003725Y015150D02*
X004055Y015150D01*
X004055Y015031D02*
X003688Y015031D01*
X003622Y014913D02*
X004055Y014913D01*
X004055Y014794D02*
X003491Y014794D01*
X003412Y014676D02*
X004055Y014676D01*
X004055Y014557D02*
X003589Y014557D01*
X003674Y014439D02*
X004055Y014439D01*
X004055Y014320D02*
X003723Y014320D01*
X003725Y014202D02*
X004055Y014202D01*
X004055Y014083D02*
X003709Y014083D01*
X003660Y013965D02*
X004055Y013965D01*
X004055Y013846D02*
X003555Y013846D01*
X003537Y013609D02*
X004055Y013609D01*
X004055Y013491D02*
X003653Y013491D01*
X003702Y013372D02*
X004055Y013372D01*
X004015Y013254D02*
X003725Y013254D01*
X003725Y013135D02*
X003897Y013135D01*
X003778Y013017D02*
X003682Y013017D01*
X003660Y012898D02*
X003607Y012898D01*
X003541Y012780D02*
X003456Y012780D01*
X003014Y012780D02*
X002815Y012780D01*
X002815Y012898D02*
X002862Y012898D01*
X002815Y012661D02*
X003023Y012661D01*
X002866Y012543D02*
X002815Y012543D01*
X002815Y013491D02*
X002817Y013491D01*
X002815Y013609D02*
X002932Y013609D01*
X002815Y013728D02*
X004055Y013728D01*
X002914Y013846D02*
X002815Y013846D01*
X002815Y014557D02*
X002880Y014557D01*
X002815Y014676D02*
X003058Y014676D01*
X002979Y014794D02*
X002815Y014794D01*
X002815Y014913D02*
X002848Y014913D01*
X004415Y015387D02*
X004749Y015387D01*
X004749Y015505D02*
X004415Y015505D01*
X004415Y015624D02*
X004859Y015624D01*
X004977Y015742D02*
X004415Y015742D01*
X002926Y016335D02*
X002815Y016335D01*
X002815Y017046D02*
X002869Y017046D01*
X002815Y017164D02*
X003030Y017164D01*
X003440Y017164D02*
X004030Y017164D01*
X003869Y017046D02*
X003601Y017046D01*
X007728Y019416D02*
X007786Y019416D01*
X007857Y019534D02*
X007661Y019534D01*
X007539Y019653D02*
X008002Y019653D01*
X007907Y012661D02*
X007547Y012661D01*
X007661Y012543D02*
X007793Y012543D01*
X007743Y012424D02*
X007710Y012424D01*
X007694Y012069D02*
X007760Y012069D01*
X007828Y011950D02*
X007626Y011950D01*
X007493Y011832D02*
X007961Y011832D01*
X006977Y011832D02*
X006572Y011832D01*
X006689Y011950D02*
X006843Y011950D01*
X006775Y012069D02*
X006754Y012069D01*
X006716Y012543D02*
X006808Y012543D01*
X006923Y012661D02*
X006619Y012661D01*
X017493Y011832D02*
X017961Y011832D01*
X017828Y011950D02*
X017626Y011950D01*
X017694Y012069D02*
X017760Y012069D01*
X017743Y012424D02*
X017710Y012424D01*
X017661Y012543D02*
X017793Y012543D01*
X017907Y012661D02*
X017547Y012661D01*
X031265Y004248D02*
X041855Y004248D01*
X041855Y004366D02*
X041532Y004366D01*
X041632Y004485D02*
X041855Y004485D01*
X041855Y004603D02*
X041681Y004603D01*
X041855Y003181D02*
X032495Y003181D01*
X032640Y003063D02*
X041855Y003063D01*
X041855Y002944D02*
X032715Y002944D01*
X032755Y002826D02*
X041855Y002826D01*
X041855Y001285D02*
X025985Y001285D01*
X025985Y001167D02*
X041855Y001167D01*
X041855Y001048D02*
X025985Y001048D01*
X025985Y000930D02*
X041855Y000930D01*
X041855Y000811D02*
X025985Y000811D01*
X025985Y000693D02*
X041855Y000693D01*
X041855Y000574D02*
X025985Y000574D01*
X031561Y002352D02*
X031852Y002352D01*
X031767Y002470D02*
X031662Y002470D01*
X031711Y002589D02*
X031720Y002589D01*
X031755Y002944D02*
X031672Y002944D01*
X031584Y003063D02*
X031830Y003063D01*
X031975Y003181D02*
X031399Y003181D01*
X032195Y003181D02*
X032275Y003181D01*
X032275Y003063D02*
X032195Y003063D01*
X032195Y002944D02*
X032275Y002944D01*
X032275Y002826D02*
X032195Y002826D01*
D20*
X027735Y003219D03*
X025235Y003469D03*
X024485Y004969D03*
X022735Y006094D03*
X025610Y007344D03*
X023360Y008594D03*
X022735Y008594D03*
X018485Y007844D03*
X017735Y007344D03*
X016985Y007719D03*
X016610Y007094D03*
X015985Y008094D03*
X015235Y008594D03*
X013985Y006969D03*
X014360Y006469D03*
X014735Y005969D03*
X016610Y005344D03*
X017735Y004969D03*
X016985Y003094D03*
X018360Y002719D03*
X015610Y002094D03*
X010110Y004969D03*
X009235Y005219D03*
X010485Y005594D03*
X010860Y006219D03*
X011860Y006094D03*
X012360Y006719D03*
X011735Y007219D03*
X010860Y007094D03*
X009735Y006469D03*
X009235Y006719D03*
X007360Y005094D03*
X008610Y003594D03*
X008235Y008344D03*
X008172Y009156D03*
X008735Y009344D03*
X011735Y011719D03*
X009735Y012469D03*
X009235Y013219D03*
X011735Y013719D03*
X012110Y013344D03*
X012485Y012969D03*
X011860Y012844D03*
X014735Y013969D03*
X012985Y014719D03*
X013735Y015344D03*
X013735Y015844D03*
X013735Y016594D03*
X018360Y014344D03*
X015235Y012969D03*
X019485Y012344D03*
X027735Y009219D03*
X029735Y007719D03*
X030985Y008719D03*
X023610Y019469D03*
D21*
X018360Y014344D02*
X018219Y014203D01*
X018219Y012266D01*
X015235Y012969D02*
X015235Y008594D01*
X008219Y009203D02*
X008172Y009156D01*
X008219Y009203D02*
X008219Y012266D01*
X022735Y008594D02*
X022735Y006094D01*
D22*
X014735Y013969D02*
X014735Y015594D01*
X013735Y016594D01*
D23*
X030985Y008719D02*
X030985Y002969D01*
X031235Y002719D01*
M02*
