%
M48
M72
T01C0.0236
T02C0.0315
T03C0.0320
T04C0.0360
T05C0.0394
T06C0.0400
T07C0.0551
T08C0.0787
T09C0.1180
%
T01
X8610Y3594
X10110Y4969
X9235Y5219
X10485Y5594
X10860Y6219
X11860Y6094
X12360Y6719
X11735Y7219
X10860Y7094
X9735Y6469
X9235Y6719
X7360Y5094
X8235Y8344
X8172Y9156
X8735Y9344
X11735Y11719
X9735Y12469
X9235Y13219
X11735Y13719
X12110Y13344
X12485Y12969
X11860Y12844
X14735Y13969
X12985Y14719
X13735Y15344
X13735Y15844
X13735Y16594
X18360Y14344
X15235Y12969
X19485Y12344
X22735Y8594
X23360Y8594
X25610Y7344
X22735Y6094
X24485Y4969
X25235Y3469
X27735Y3219
X29735Y7719
X30985Y8719
X27735Y9219
X18485Y7844
X17735Y7344
X16985Y7719
X16610Y7094
X15985Y8094
X15235Y8594
X13985Y6969
X14360Y6469
X14735Y5969
X16610Y5344
X17735Y4969
X16985Y3094
X18360Y2719
X15610Y2094
X23610Y19469
T02
X13190Y18077
X11280Y18077
T03
X21735Y5219
X22735Y5219
T04
X26735Y3719
X26735Y2719
X26735Y1719
X33985Y8719
X33985Y9719
X33985Y10719
X41235Y8969
X41235Y7969
X41235Y6969
X41235Y5719
X41235Y4719
X41235Y3719
T05
X38219Y12266
X37235Y12266
X36251Y12266
X28219Y12266
X27235Y12266
X26251Y12266
X18219Y12266
X17235Y12266
X16251Y12266
X8219Y12266
X7235Y12266
X6251Y12266
T06
X6485Y969
X7485Y969
X8485Y969
X9485Y969
X10485Y969
X11485Y969
X12485Y969
X13485Y969
X14485Y969
X15485Y969
X28735Y5719
X28735Y6719
X28735Y7719
X28735Y8719
X33985Y7719
X33985Y6719
X32235Y2719
X31235Y2719
X31235Y14219
X30235Y14219
X36235Y19219
X37235Y19219
X38235Y19219
X9235Y19219
X8235Y19219
X7235Y19219
X6235Y19219
X5235Y19219
X4235Y19219
X4235Y16719
X3235Y16719
X3235Y15219
X3235Y14219
X3235Y13219
X3235Y12219
X3235Y11219
X3235Y10219
T07
X10818Y19219
X13652Y19219
T08
X15463Y15219
X19007Y15219
X25463Y15219
X29007Y15219
X35463Y15219
X39007Y15219
X9007Y15219
X5463Y15219
T09
X30384Y17006
X32235Y18187
X32235Y15825
M30
