G75*
G70*
%OFA0B0*%
%FSLAX24Y24*%
%IPPOS*%
%LPD*%
%AMOC8*
5,1,8,0,0,1.08239X$1,22.5*
%
%ADD10C,0.0010*%
%ADD11C,0.0060*%
%ADD12C,0.0030*%
%ADD13C,0.0080*%
%ADD14C,0.0100*%
%ADD15R,0.0472X0.0079*%
%ADD16R,0.0079X0.0472*%
%ADD17C,0.0050*%
%ADD18C,0.0040*%
%ADD19C,0.0020*%
%ADD20C,0.0070*%
%ADD21C,0.0000*%
D10*
X002650Y000376D02*
X002650Y020061D01*
X042020Y020061D01*
X042020Y000376D01*
X002650Y000376D01*
X021290Y001484D02*
X021440Y001484D01*
X021440Y001584D01*
X021440Y001632D02*
X021440Y001732D01*
X021440Y001779D02*
X021440Y001854D01*
X021415Y001879D01*
X021315Y001879D01*
X021290Y001854D01*
X021290Y001779D01*
X021440Y001779D01*
X021365Y001682D02*
X021365Y001632D01*
X021290Y001632D02*
X021440Y001632D01*
X021290Y001632D02*
X021290Y001732D01*
X021315Y001926D02*
X021290Y001951D01*
X021290Y002001D01*
X021315Y002026D01*
X021340Y002026D01*
X021440Y001926D01*
X021440Y002026D01*
X022790Y001976D02*
X022840Y001926D01*
X022815Y001879D02*
X022790Y001854D01*
X022790Y001779D01*
X022940Y001779D01*
X022940Y001854D01*
X022915Y001879D01*
X022815Y001879D01*
X022790Y001976D02*
X022940Y001976D01*
X022940Y001926D02*
X022940Y002026D01*
X022940Y001732D02*
X022940Y001632D01*
X022790Y001632D01*
X022790Y001732D01*
X022865Y001682D02*
X022865Y001632D01*
X022940Y001584D02*
X022940Y001484D01*
X022790Y001484D01*
X025095Y017914D02*
X025170Y017914D01*
X025195Y017939D01*
X025195Y018039D01*
X025170Y018064D01*
X025095Y018064D01*
X025095Y017914D01*
X025243Y017939D02*
X025268Y017914D01*
X025318Y017914D01*
X025343Y017939D01*
X025343Y017964D01*
X025318Y017989D01*
X025293Y017989D01*
X025318Y017989D02*
X025343Y018014D01*
X025343Y018039D01*
X025318Y018064D01*
X025268Y018064D01*
X025243Y018039D01*
X029265Y018099D02*
X029265Y018249D01*
X029365Y018249D01*
X029412Y018224D02*
X029437Y018249D01*
X029487Y018249D01*
X029512Y018224D01*
X029512Y018199D01*
X029487Y018174D01*
X029512Y018149D01*
X029512Y018124D01*
X029487Y018099D01*
X029437Y018099D01*
X029412Y018124D01*
X029462Y018174D02*
X029487Y018174D01*
X029315Y018174D02*
X029265Y018174D01*
X033445Y019089D02*
X033470Y019064D01*
X033495Y019064D01*
X033520Y019089D01*
X033520Y019214D01*
X033495Y019214D02*
X033545Y019214D01*
X033593Y019164D02*
X033643Y019214D01*
X033643Y019064D01*
X033593Y019064D02*
X033693Y019064D01*
X014740Y019454D02*
X014740Y019504D01*
X014715Y019529D01*
X014590Y019529D01*
X014615Y019576D02*
X014590Y019601D01*
X014590Y019651D01*
X014615Y019676D01*
X014640Y019676D01*
X014665Y019651D01*
X014690Y019676D01*
X014715Y019676D01*
X014740Y019651D01*
X014740Y019601D01*
X014715Y019576D01*
X014665Y019626D02*
X014665Y019651D01*
X014740Y019454D02*
X014715Y019429D01*
X014590Y019429D01*
D11*
X014632Y018949D02*
X014515Y018832D01*
X014515Y018365D01*
X014632Y018249D01*
X014865Y018249D01*
X014982Y018365D01*
X014982Y018832D01*
X014865Y018949D01*
X014632Y018949D01*
X015215Y018949D02*
X015215Y018249D01*
X015448Y018482D01*
X015682Y018249D01*
X015682Y018949D01*
X015914Y018949D02*
X015914Y018249D01*
X016382Y018249D01*
X017314Y018249D02*
X017314Y018949D01*
X017664Y018949D01*
X017781Y018832D01*
X017781Y018599D01*
X017664Y018482D01*
X017314Y018482D01*
X017548Y018482D02*
X017781Y018249D01*
X018014Y018365D02*
X018014Y018599D01*
X018131Y018716D01*
X018364Y018716D01*
X018481Y018599D01*
X018481Y018482D01*
X018014Y018482D01*
X018014Y018365D02*
X018131Y018249D01*
X018364Y018249D01*
X018714Y018716D02*
X018947Y018249D01*
X019181Y018716D01*
X019413Y018832D02*
X019530Y018949D01*
X019764Y018949D01*
X019880Y018832D01*
X019413Y018365D01*
X019530Y018249D01*
X019764Y018249D01*
X019880Y018365D01*
X019880Y018832D01*
X020113Y018716D02*
X020347Y018949D01*
X020347Y018249D01*
X020580Y018249D02*
X020113Y018249D01*
X019413Y018365D02*
X019413Y018832D01*
X021005Y018900D02*
X023465Y018900D01*
X023465Y017538D01*
X021005Y017538D01*
X021005Y018900D01*
X033485Y011119D02*
X033485Y010319D01*
X033585Y010219D01*
X033485Y010119D01*
X033485Y009319D01*
X033585Y009219D01*
X033485Y009119D01*
X033485Y008319D01*
X033585Y008219D01*
X034385Y008219D01*
X034485Y008319D01*
X034485Y009119D01*
X034385Y009219D01*
X034485Y009319D01*
X034485Y010119D01*
X034385Y010219D01*
X034485Y010319D01*
X034485Y011119D01*
X034385Y011219D01*
X033585Y011219D01*
X033485Y011119D01*
X027523Y008221D02*
X023700Y008221D01*
X023700Y006216D01*
X027523Y006216D01*
X027523Y008221D01*
X023860Y006599D02*
X023862Y006628D01*
X023868Y006656D01*
X023877Y006683D01*
X023891Y006708D01*
X023907Y006732D01*
X023927Y006752D01*
X023949Y006771D01*
X023973Y006785D01*
X024000Y006797D01*
X024027Y006805D01*
X024056Y006809D01*
X024084Y006809D01*
X024113Y006805D01*
X024140Y006797D01*
X024167Y006785D01*
X024191Y006771D01*
X024213Y006752D01*
X024233Y006732D01*
X024249Y006708D01*
X024263Y006683D01*
X024272Y006656D01*
X024278Y006628D01*
X024280Y006599D01*
X024278Y006570D01*
X024272Y006542D01*
X024263Y006515D01*
X024249Y006490D01*
X024233Y006466D01*
X024213Y006446D01*
X024191Y006427D01*
X024167Y006413D01*
X024140Y006401D01*
X024113Y006393D01*
X024084Y006389D01*
X024056Y006389D01*
X024027Y006393D01*
X024000Y006401D01*
X023973Y006413D01*
X023949Y006427D01*
X023927Y006446D01*
X023907Y006466D01*
X023891Y006490D01*
X023877Y006515D01*
X023868Y006542D01*
X023862Y006570D01*
X023860Y006599D01*
X022235Y004619D02*
X022190Y004621D01*
X022144Y004626D01*
X022100Y004634D01*
X022056Y004646D01*
X022013Y004662D01*
X021971Y004680D01*
X021931Y004702D01*
X021893Y004726D01*
X021857Y004753D01*
X021822Y004783D01*
X021791Y004816D01*
X021761Y004851D01*
X022235Y005819D02*
X022282Y005817D01*
X022330Y005811D01*
X022376Y005802D01*
X022422Y005789D01*
X022466Y005773D01*
X022510Y005752D01*
X022551Y005729D01*
X022590Y005703D01*
X022627Y005673D01*
X022662Y005640D01*
X022694Y005605D01*
X022723Y005568D01*
X022235Y005819D02*
X022189Y005817D01*
X022143Y005812D01*
X022097Y005803D01*
X022052Y005791D01*
X022009Y005775D01*
X021967Y005756D01*
X021926Y005733D01*
X021887Y005708D01*
X021851Y005680D01*
X021816Y005649D01*
X021784Y005615D01*
X021755Y005579D01*
X022235Y004619D02*
X022280Y004621D01*
X022326Y004626D01*
X022370Y004634D01*
X022414Y004646D01*
X022457Y004662D01*
X022499Y004680D01*
X022539Y004702D01*
X022577Y004726D01*
X022613Y004753D01*
X022648Y004783D01*
X022679Y004816D01*
X022709Y004851D01*
X026235Y004119D02*
X026235Y003319D01*
X026335Y003219D01*
X026235Y003119D01*
X026235Y002319D01*
X026335Y002219D01*
X026235Y002119D01*
X026235Y001319D01*
X026335Y001219D01*
X027135Y001219D01*
X027235Y001319D01*
X027235Y002119D01*
X027135Y002219D01*
X027235Y002319D01*
X027235Y003119D01*
X027135Y003219D01*
X027235Y003319D01*
X027235Y004119D01*
X027135Y004219D01*
X026335Y004219D01*
X026235Y004119D01*
X031015Y001449D02*
X031365Y001449D01*
X031482Y001332D01*
X031482Y001099D01*
X031365Y000982D01*
X031015Y000982D01*
X031015Y000749D02*
X031015Y001449D01*
X031715Y001099D02*
X031831Y001216D01*
X032065Y001216D01*
X032182Y001099D01*
X032182Y000982D01*
X031715Y000982D01*
X031715Y000865D02*
X031715Y001099D01*
X031482Y000749D02*
X031248Y000982D01*
X031715Y000865D02*
X031831Y000749D01*
X032065Y000749D01*
X032414Y000749D02*
X032765Y000749D01*
X032882Y000865D01*
X032882Y001099D01*
X032765Y001216D01*
X032414Y001216D01*
X032414Y001449D02*
X032414Y000749D01*
X033114Y000865D02*
X033114Y001099D01*
X033231Y001216D01*
X033465Y001216D01*
X033581Y001099D01*
X033581Y000982D01*
X033114Y000982D01*
X033114Y000865D02*
X033231Y000749D01*
X033465Y000749D01*
X033814Y000749D02*
X034048Y000749D01*
X033931Y000749D02*
X033931Y001449D01*
X033814Y001449D01*
X034980Y001449D02*
X035447Y001449D01*
X035214Y001449D02*
X035214Y000749D01*
X035680Y000865D02*
X035680Y001099D01*
X035797Y001216D01*
X036030Y001216D01*
X036147Y001099D01*
X036147Y000982D01*
X035680Y000982D01*
X035680Y000865D02*
X035797Y000749D01*
X036030Y000749D01*
X036380Y000865D02*
X036497Y000749D01*
X036847Y000749D01*
X037080Y000749D02*
X037080Y001449D01*
X037197Y001216D02*
X037430Y001216D01*
X037547Y001099D01*
X037547Y000749D01*
X037780Y000749D02*
X037780Y001216D01*
X038130Y001216D01*
X038247Y001099D01*
X038247Y000749D01*
X038479Y000865D02*
X038596Y000749D01*
X038830Y000749D01*
X038946Y000865D01*
X038946Y001099D01*
X038830Y001216D01*
X038596Y001216D01*
X038479Y001099D01*
X038479Y000865D01*
X039179Y000749D02*
X039413Y000749D01*
X039296Y000749D02*
X039296Y001449D01*
X039179Y001449D01*
X039646Y001099D02*
X039646Y000865D01*
X039762Y000749D01*
X039996Y000749D01*
X040113Y000865D01*
X040113Y001099D01*
X039996Y001216D01*
X039762Y001216D01*
X039646Y001099D01*
X040345Y001099D02*
X040345Y000865D01*
X040462Y000749D01*
X040813Y000749D01*
X040813Y000632D02*
X040696Y000515D01*
X040579Y000515D01*
X040813Y000632D02*
X040813Y001216D01*
X040462Y001216D01*
X040345Y001099D01*
X041045Y001216D02*
X041045Y000865D01*
X041162Y000749D01*
X041512Y000749D01*
X041512Y000632D02*
X041396Y000515D01*
X041279Y000515D01*
X041512Y000632D02*
X041512Y001216D01*
X041635Y003219D02*
X040835Y003219D01*
X040735Y003319D01*
X040735Y004119D01*
X040835Y004219D01*
X040735Y004319D01*
X040735Y005119D01*
X040835Y005219D01*
X040735Y005319D01*
X040735Y006119D01*
X040835Y006219D01*
X041635Y006219D01*
X041735Y006119D01*
X041735Y005319D01*
X041635Y005219D01*
X041735Y005119D01*
X041735Y004319D01*
X041635Y004219D01*
X041735Y004119D01*
X041735Y003319D01*
X041635Y003219D01*
X037197Y001216D02*
X037080Y001099D01*
X036847Y001216D02*
X036497Y001216D01*
X036380Y001099D01*
X036380Y000865D01*
X040835Y006469D02*
X041635Y006469D01*
X041735Y006569D01*
X041735Y007369D01*
X041635Y007469D01*
X041735Y007569D01*
X041735Y008369D01*
X041635Y008469D01*
X041735Y008569D01*
X041735Y009369D01*
X041635Y009469D01*
X040835Y009469D01*
X040735Y009369D01*
X040735Y008569D01*
X040835Y008469D01*
X040735Y008369D01*
X040735Y007569D01*
X040835Y007469D01*
X040735Y007369D01*
X040735Y006569D01*
X040835Y006469D01*
X012336Y004849D02*
X011909Y004849D01*
X012123Y004849D02*
X012123Y005489D01*
X011909Y005276D01*
X011692Y005489D02*
X011692Y004955D01*
X011585Y004849D01*
X011372Y004849D01*
X011265Y004955D01*
X011265Y005489D01*
X005685Y004569D02*
X005685Y008869D01*
X005683Y008886D01*
X005679Y008903D01*
X005672Y008919D01*
X005662Y008933D01*
X005649Y008946D01*
X005635Y008956D01*
X005619Y008963D01*
X005602Y008967D01*
X005585Y008969D01*
X005185Y008969D01*
X004285Y008969D02*
X003885Y008969D01*
X003868Y008967D01*
X003851Y008963D01*
X003835Y008956D01*
X003821Y008946D01*
X003808Y008933D01*
X003798Y008919D01*
X003791Y008903D01*
X003787Y008886D01*
X003785Y008869D01*
X003785Y004569D01*
X003787Y004552D01*
X003791Y004535D01*
X003798Y004519D01*
X003808Y004505D01*
X003821Y004492D01*
X003835Y004482D01*
X003851Y004475D01*
X003868Y004471D01*
X003885Y004469D01*
X004285Y004469D01*
X005185Y004469D02*
X005585Y004469D01*
X005602Y004471D01*
X005619Y004475D01*
X005635Y004482D01*
X005649Y004492D01*
X005662Y004505D01*
X005672Y004519D01*
X005679Y004535D01*
X005683Y004552D01*
X005685Y004569D01*
X004985Y006469D02*
X004735Y006469D01*
X004485Y006469D01*
X004485Y006619D02*
X004485Y006819D01*
X004985Y006819D01*
X004985Y006619D01*
X004485Y006619D01*
X004485Y006969D02*
X004735Y006969D01*
X004985Y006969D01*
D12*
X005988Y007720D02*
X006050Y007659D01*
X006173Y007659D01*
X006235Y007720D01*
X006357Y007659D02*
X006603Y007906D01*
X006603Y007967D01*
X006542Y008029D01*
X006418Y008029D01*
X006357Y007967D01*
X006235Y007967D02*
X006173Y008029D01*
X006050Y008029D01*
X005988Y007967D01*
X005988Y007720D01*
X006357Y007659D02*
X006603Y007659D01*
X006585Y007029D02*
X006462Y007029D01*
X006400Y006967D01*
X006400Y006720D01*
X006462Y006659D01*
X006585Y006659D01*
X006647Y006720D01*
X006768Y006720D02*
X006768Y006659D01*
X006768Y006720D02*
X007015Y006967D01*
X007015Y007029D01*
X006768Y007029D01*
X006647Y006967D02*
X006585Y007029D01*
X007400Y006967D02*
X007400Y006720D01*
X007462Y006659D01*
X007585Y006659D01*
X007647Y006720D01*
X007768Y006720D02*
X007768Y006782D01*
X007830Y006844D01*
X007953Y006844D01*
X008015Y006782D01*
X008015Y006720D01*
X007953Y006659D01*
X007830Y006659D01*
X007768Y006720D01*
X007830Y006844D02*
X007768Y006906D01*
X007768Y006967D01*
X007830Y007029D01*
X007953Y007029D01*
X008015Y006967D01*
X008015Y006906D01*
X007953Y006844D01*
X007647Y006967D02*
X007585Y007029D01*
X007462Y007029D01*
X007400Y006967D01*
X006603Y008409D02*
X006357Y008409D01*
X006480Y008409D02*
X006480Y008779D01*
X006357Y008656D01*
X006235Y008717D02*
X006173Y008779D01*
X006050Y008779D01*
X005988Y008717D01*
X005988Y008470D01*
X006050Y008409D01*
X006173Y008409D01*
X006235Y008470D01*
X006293Y009159D02*
X006417Y009159D01*
X006478Y009220D01*
X006478Y009282D01*
X006417Y009344D01*
X006232Y009344D01*
X006232Y009220D01*
X006293Y009159D01*
X006110Y009220D02*
X006048Y009159D01*
X005925Y009159D01*
X005863Y009220D01*
X005863Y009467D01*
X005925Y009529D01*
X006048Y009529D01*
X006110Y009467D01*
X006232Y009344D02*
X006355Y009467D01*
X006478Y009529D01*
X006478Y009984D02*
X006232Y009984D01*
X006110Y009984D02*
X005987Y010107D01*
X006048Y010107D02*
X005863Y010107D01*
X005863Y009984D02*
X005863Y010354D01*
X006048Y010354D01*
X006110Y010292D01*
X006110Y010169D01*
X006048Y010107D01*
X006232Y010231D02*
X006355Y010354D01*
X006355Y009984D01*
X005228Y010409D02*
X004982Y010409D01*
X005228Y010656D01*
X005228Y010717D01*
X005167Y010779D01*
X005043Y010779D01*
X004982Y010717D01*
X004737Y010779D02*
X004737Y010409D01*
X004860Y010409D02*
X004613Y010409D01*
X004492Y010470D02*
X004430Y010409D01*
X004307Y010409D01*
X004245Y010470D01*
X004245Y010717D01*
X004307Y010779D01*
X004430Y010779D01*
X004492Y010717D01*
X004613Y010656D02*
X004737Y010779D01*
X014900Y008217D02*
X014900Y007970D01*
X014962Y007909D01*
X015085Y007909D01*
X015147Y007970D01*
X015268Y007970D02*
X015330Y007909D01*
X015453Y007909D01*
X015515Y007970D01*
X015515Y008217D01*
X015453Y008279D01*
X015330Y008279D01*
X015268Y008217D01*
X015268Y008156D01*
X015330Y008094D01*
X015515Y008094D01*
X015147Y008217D02*
X015085Y008279D01*
X014962Y008279D01*
X014900Y008217D01*
X014962Y007779D02*
X014900Y007717D01*
X014900Y007470D01*
X014962Y007409D01*
X015085Y007409D01*
X015147Y007470D01*
X015268Y007594D02*
X015515Y007594D01*
X015453Y007409D02*
X015453Y007779D01*
X015268Y007594D01*
X015147Y007717D02*
X015085Y007779D01*
X014962Y007779D01*
X014892Y004154D02*
X014892Y003784D01*
X015015Y003784D02*
X014768Y003784D01*
X014647Y003845D02*
X014585Y003784D01*
X014462Y003784D01*
X014400Y003845D01*
X014400Y004092D01*
X014462Y004154D01*
X014585Y004154D01*
X014647Y004092D01*
X014768Y004031D02*
X014892Y004154D01*
X015136Y004092D02*
X015198Y004154D01*
X015322Y004154D01*
X015383Y004092D01*
X015136Y003845D01*
X015198Y003784D01*
X015322Y003784D01*
X015383Y003845D01*
X015383Y004092D01*
X015136Y004092D02*
X015136Y003845D01*
X014953Y003654D02*
X014830Y003654D01*
X014768Y003592D01*
X014647Y003592D02*
X014585Y003654D01*
X014462Y003654D01*
X014400Y003592D01*
X014400Y003345D01*
X014462Y003284D01*
X014585Y003284D01*
X014647Y003345D01*
X014768Y003345D02*
X014830Y003284D01*
X014953Y003284D01*
X015015Y003345D01*
X015015Y003407D01*
X014953Y003469D01*
X014892Y003469D01*
X014953Y003469D02*
X015015Y003531D01*
X015015Y003592D01*
X014953Y003654D01*
X015000Y001899D02*
X015145Y001899D01*
X015193Y001851D01*
X015193Y001754D01*
X015145Y001705D01*
X015000Y001705D01*
X015000Y001609D02*
X015000Y001899D01*
X015295Y001899D02*
X015295Y001609D01*
X015440Y001609D01*
X015488Y001657D01*
X015488Y001705D01*
X015440Y001754D01*
X015295Y001754D01*
X015440Y001754D02*
X015488Y001802D01*
X015488Y001851D01*
X015440Y001899D01*
X015295Y001899D01*
X015589Y001851D02*
X015638Y001899D01*
X015734Y001899D01*
X015783Y001851D01*
X015783Y001802D01*
X015589Y001609D01*
X015783Y001609D01*
X014783Y001609D02*
X014589Y001609D01*
X014686Y001609D02*
X014686Y001899D01*
X014589Y001802D01*
X014488Y001802D02*
X014440Y001754D01*
X014295Y001754D01*
X014193Y001754D02*
X014145Y001705D01*
X014000Y001705D01*
X014000Y001609D02*
X014000Y001899D01*
X014145Y001899D01*
X014193Y001851D01*
X014193Y001754D01*
X014295Y001899D02*
X014440Y001899D01*
X014488Y001851D01*
X014488Y001802D01*
X014440Y001754D02*
X014488Y001705D01*
X014488Y001657D01*
X014440Y001609D01*
X014295Y001609D01*
X014295Y001899D01*
X013783Y001851D02*
X013589Y001657D01*
X013638Y001609D01*
X013734Y001609D01*
X013783Y001657D01*
X013783Y001851D01*
X013734Y001899D01*
X013638Y001899D01*
X013589Y001851D01*
X013589Y001657D01*
X013488Y001657D02*
X013440Y001609D01*
X013295Y001609D01*
X013295Y001899D01*
X013440Y001899D01*
X013488Y001851D01*
X013488Y001802D01*
X013440Y001754D01*
X013295Y001754D01*
X013193Y001754D02*
X013145Y001705D01*
X013000Y001705D01*
X013000Y001609D02*
X013000Y001899D01*
X013145Y001899D01*
X013193Y001851D01*
X013193Y001754D01*
X013440Y001754D02*
X013488Y001705D01*
X013488Y001657D01*
X012783Y001657D02*
X012783Y001754D01*
X012734Y001802D01*
X012686Y001802D01*
X012589Y001754D01*
X012589Y001899D01*
X012783Y001899D01*
X012783Y001657D02*
X012734Y001609D01*
X012638Y001609D01*
X012589Y001657D01*
X012488Y001657D02*
X012440Y001609D01*
X012343Y001609D01*
X012295Y001657D01*
X012295Y001851D01*
X012343Y001899D01*
X012440Y001899D01*
X012488Y001851D01*
X012193Y001851D02*
X012193Y001754D01*
X012145Y001705D01*
X012000Y001705D01*
X012000Y001609D02*
X012000Y001899D01*
X012145Y001899D01*
X012193Y001851D01*
X011783Y001754D02*
X011589Y001754D01*
X011734Y001899D01*
X011734Y001609D01*
X011488Y001657D02*
X011440Y001609D01*
X011343Y001609D01*
X011295Y001657D01*
X011295Y001851D01*
X011343Y001899D01*
X011440Y001899D01*
X011488Y001851D01*
X011193Y001851D02*
X011193Y001754D01*
X011145Y001705D01*
X011000Y001705D01*
X011000Y001609D02*
X011000Y001899D01*
X011145Y001899D01*
X011193Y001851D01*
X010783Y001851D02*
X010589Y001657D01*
X010589Y001609D01*
X010488Y001609D02*
X010488Y001802D01*
X010391Y001899D01*
X010295Y001802D01*
X010295Y001609D01*
X010295Y001754D02*
X010488Y001754D01*
X010589Y001899D02*
X010783Y001899D01*
X010783Y001851D01*
X010193Y001851D02*
X010193Y001754D01*
X010145Y001705D01*
X010000Y001705D01*
X010000Y001609D02*
X010000Y001899D01*
X010145Y001899D01*
X010193Y001851D01*
X009783Y001899D02*
X009686Y001851D01*
X009589Y001754D01*
X009734Y001754D01*
X009783Y001705D01*
X009783Y001657D01*
X009734Y001609D01*
X009638Y001609D01*
X009589Y001657D01*
X009589Y001754D01*
X009488Y001754D02*
X009295Y001754D01*
X009295Y001802D02*
X009391Y001899D01*
X009488Y001802D01*
X009488Y001609D01*
X009295Y001609D02*
X009295Y001802D01*
X009193Y001754D02*
X009145Y001705D01*
X009000Y001705D01*
X009000Y001609D02*
X009000Y001899D01*
X009145Y001899D01*
X009193Y001851D01*
X009193Y001754D01*
X008783Y001754D02*
X008783Y001657D01*
X008734Y001609D01*
X008638Y001609D01*
X008589Y001657D01*
X008589Y001754D02*
X008686Y001802D01*
X008734Y001802D01*
X008783Y001754D01*
X008783Y001899D02*
X008589Y001899D01*
X008589Y001754D01*
X008488Y001754D02*
X008295Y001754D01*
X008295Y001802D02*
X008391Y001899D01*
X008488Y001802D01*
X008488Y001609D01*
X008295Y001609D02*
X008295Y001802D01*
X008193Y001754D02*
X008145Y001705D01*
X008000Y001705D01*
X008000Y001609D02*
X008000Y001899D01*
X008145Y001899D01*
X008193Y001851D01*
X008193Y001754D01*
X007783Y001754D02*
X007589Y001754D01*
X007734Y001899D01*
X007734Y001609D01*
X007488Y001609D02*
X007488Y001802D01*
X007391Y001899D01*
X007295Y001802D01*
X007295Y001609D01*
X007295Y001754D02*
X007488Y001754D01*
X007193Y001754D02*
X007145Y001705D01*
X007000Y001705D01*
X007000Y001609D02*
X007000Y001899D01*
X007145Y001899D01*
X007193Y001851D01*
X007193Y001754D01*
X006783Y001802D02*
X006734Y001754D01*
X006783Y001705D01*
X006783Y001657D01*
X006734Y001609D01*
X006638Y001609D01*
X006589Y001657D01*
X006488Y001609D02*
X006488Y001802D01*
X006391Y001899D01*
X006295Y001802D01*
X006295Y001609D01*
X006295Y001754D02*
X006488Y001754D01*
X006589Y001851D02*
X006638Y001899D01*
X006734Y001899D01*
X006783Y001851D01*
X006783Y001802D01*
X006734Y001754D02*
X006686Y001754D01*
X006193Y001754D02*
X006145Y001705D01*
X006000Y001705D01*
X006000Y001609D02*
X006000Y001899D01*
X006145Y001899D01*
X006193Y001851D01*
X006193Y001754D01*
X005228Y002534D02*
X004982Y002534D01*
X004860Y002534D02*
X004613Y002534D01*
X004737Y002534D02*
X004737Y002904D01*
X004613Y002781D01*
X004492Y002842D02*
X004430Y002904D01*
X004307Y002904D01*
X004245Y002842D01*
X004245Y002595D01*
X004307Y002534D01*
X004430Y002534D01*
X004492Y002595D01*
X004982Y002781D02*
X005105Y002904D01*
X005105Y002534D01*
X007613Y002845D02*
X007675Y002784D01*
X007798Y002784D01*
X007860Y002845D01*
X007982Y002845D02*
X008043Y002784D01*
X008167Y002784D01*
X008228Y002845D01*
X008228Y002969D01*
X008167Y003031D01*
X008105Y003031D01*
X007982Y002969D01*
X007982Y003154D01*
X008228Y003154D01*
X007860Y003092D02*
X007798Y003154D01*
X007675Y003154D01*
X007613Y003092D01*
X007613Y002845D01*
X007640Y004409D02*
X007393Y004409D01*
X007272Y004409D02*
X007025Y004409D01*
X007025Y004779D01*
X007393Y004656D02*
X007517Y004779D01*
X007517Y004409D01*
X020350Y014359D02*
X020412Y014298D01*
X020535Y014298D01*
X020597Y014359D01*
X020719Y014359D02*
X020719Y014421D01*
X020780Y014483D01*
X020904Y014483D01*
X020965Y014421D01*
X020965Y014359D01*
X020904Y014298D01*
X020780Y014298D01*
X020719Y014359D01*
X020780Y014483D02*
X020719Y014544D01*
X020719Y014606D01*
X020780Y014668D01*
X020904Y014668D01*
X020965Y014606D01*
X020965Y014544D01*
X020904Y014483D01*
X021087Y014606D02*
X021087Y014359D01*
X021334Y014606D01*
X021334Y014359D01*
X021272Y014298D01*
X021149Y014298D01*
X021087Y014359D01*
X021087Y014606D02*
X021149Y014668D01*
X021272Y014668D01*
X021334Y014606D01*
X021455Y014606D02*
X021517Y014668D01*
X021640Y014668D01*
X021702Y014606D01*
X021702Y014544D01*
X021455Y014298D01*
X021702Y014298D01*
X022850Y014359D02*
X022850Y014606D01*
X022912Y014668D01*
X023035Y014668D01*
X023097Y014606D01*
X023219Y014606D02*
X023219Y014544D01*
X023280Y014483D01*
X023404Y014483D01*
X023465Y014421D01*
X023465Y014359D01*
X023404Y014298D01*
X023280Y014298D01*
X023219Y014359D01*
X023219Y014421D01*
X023280Y014483D01*
X023404Y014483D02*
X023465Y014544D01*
X023465Y014606D01*
X023404Y014668D01*
X023280Y014668D01*
X023219Y014606D01*
X023097Y014359D02*
X023035Y014298D01*
X022912Y014298D01*
X022850Y014359D01*
X023587Y014359D02*
X023649Y014298D01*
X023772Y014298D01*
X023834Y014359D01*
X023834Y014606D01*
X023587Y014359D01*
X023587Y014606D01*
X023649Y014668D01*
X023772Y014668D01*
X023834Y014606D01*
X023955Y014544D02*
X024079Y014668D01*
X024079Y014298D01*
X024202Y014298D02*
X023955Y014298D01*
X020597Y014606D02*
X020535Y014668D01*
X020412Y014668D01*
X020350Y014606D01*
X020350Y014359D01*
X035750Y018170D02*
X035812Y018109D01*
X035935Y018109D01*
X035997Y018170D01*
X035997Y018294D01*
X035935Y018356D01*
X035873Y018356D01*
X035750Y018294D01*
X035750Y018479D01*
X035997Y018479D01*
X036118Y018356D02*
X036242Y018109D01*
X036365Y018356D01*
X036750Y018294D02*
X036750Y018170D01*
X036812Y018109D01*
X036997Y018109D01*
X036997Y018047D02*
X036997Y018356D01*
X036812Y018356D01*
X036750Y018294D01*
X036997Y018047D02*
X036935Y017985D01*
X036873Y017985D01*
X037118Y018109D02*
X037118Y018356D01*
X037303Y018356D01*
X037365Y018294D01*
X037365Y018109D01*
X037486Y018170D02*
X037486Y018294D01*
X037548Y018356D01*
X037733Y018356D01*
X037733Y018479D02*
X037733Y018109D01*
X037548Y018109D01*
X037486Y018170D01*
X038000Y018170D02*
X038062Y018109D01*
X038185Y018109D01*
X038247Y018170D01*
X038247Y018232D01*
X038185Y018294D01*
X038123Y018294D01*
X038185Y018294D02*
X038247Y018356D01*
X038247Y018417D01*
X038185Y018479D01*
X038062Y018479D01*
X038000Y018417D01*
X038368Y018356D02*
X038492Y018109D01*
X038615Y018356D01*
X038736Y018417D02*
X038798Y018479D01*
X038922Y018479D01*
X038983Y018417D01*
X038983Y018356D01*
X038922Y018294D01*
X038983Y018232D01*
X038983Y018170D01*
X038922Y018109D01*
X038798Y018109D01*
X038736Y018170D01*
X038860Y018294D02*
X038922Y018294D01*
X037829Y009293D02*
X037705Y009169D01*
X037584Y009231D02*
X037337Y008984D01*
X037399Y008923D01*
X037522Y008923D01*
X037584Y008984D01*
X037584Y009231D01*
X037522Y009293D01*
X037399Y009293D01*
X037337Y009231D01*
X037337Y008984D01*
X037215Y008984D02*
X037215Y009046D01*
X037154Y009108D01*
X036969Y009108D01*
X036969Y008984D01*
X037030Y008923D01*
X037154Y008923D01*
X037215Y008984D01*
X037092Y009231D02*
X036969Y009108D01*
X036847Y009231D02*
X036785Y009293D01*
X036662Y009293D01*
X036600Y009231D01*
X036600Y008984D01*
X036662Y008923D01*
X036785Y008923D01*
X036847Y008984D01*
X037092Y009231D02*
X037215Y009293D01*
X037705Y008923D02*
X037952Y008923D01*
X037829Y008923D02*
X037829Y009293D01*
X036247Y007512D02*
X036000Y007512D01*
X036247Y007265D01*
X036309Y007327D01*
X036309Y007450D01*
X036247Y007512D01*
X036000Y007512D02*
X035939Y007450D01*
X035939Y007327D01*
X036000Y007265D01*
X036247Y007265D01*
X036247Y007143D02*
X036000Y007143D01*
X036247Y006897D01*
X036309Y006958D01*
X036309Y007082D01*
X036247Y007143D01*
X036247Y006897D02*
X036000Y006897D01*
X035939Y006958D01*
X035939Y007082D01*
X036000Y007143D01*
X035939Y006775D02*
X036000Y006652D01*
X036124Y006528D01*
X036124Y006713D01*
X036185Y006775D01*
X036247Y006775D01*
X036309Y006713D01*
X036309Y006590D01*
X036247Y006528D01*
X036124Y006528D01*
X036247Y006407D02*
X036309Y006345D01*
X036309Y006222D01*
X036247Y006160D01*
X036000Y006160D01*
X035939Y006222D01*
X035939Y006345D01*
X036000Y006407D01*
X036000Y005762D02*
X036247Y005515D01*
X036309Y005577D01*
X036309Y005700D01*
X036247Y005762D01*
X036000Y005762D01*
X035939Y005700D01*
X035939Y005577D01*
X036000Y005515D01*
X036247Y005515D01*
X036247Y005393D02*
X036000Y005393D01*
X036247Y005147D01*
X036309Y005208D01*
X036309Y005332D01*
X036247Y005393D01*
X036247Y005147D02*
X036000Y005147D01*
X035939Y005208D01*
X035939Y005332D01*
X036000Y005393D01*
X036000Y005025D02*
X036247Y004778D01*
X036309Y004778D01*
X036247Y004657D02*
X036309Y004595D01*
X036309Y004472D01*
X036247Y004410D01*
X036000Y004410D01*
X035939Y004472D01*
X035939Y004595D01*
X036000Y004657D01*
X035939Y004778D02*
X035939Y005025D01*
X036000Y005025D01*
X038080Y004928D02*
X038080Y005122D01*
X038128Y005122D01*
X038321Y004928D01*
X038370Y004928D01*
X038370Y004827D02*
X038273Y004730D01*
X038273Y004779D02*
X038273Y004634D01*
X038370Y004634D02*
X038080Y004634D01*
X038080Y004779D01*
X038128Y004827D01*
X038225Y004827D01*
X038273Y004779D01*
X038321Y005223D02*
X038128Y005416D01*
X038321Y005416D01*
X038370Y005368D01*
X038370Y005271D01*
X038321Y005223D01*
X038128Y005223D01*
X038080Y005271D01*
X038080Y005368D01*
X038128Y005416D01*
X038176Y005518D02*
X038080Y005614D01*
X038370Y005614D01*
X038370Y005518D02*
X038370Y005711D01*
X038370Y006134D02*
X038080Y006134D01*
X038080Y006279D01*
X038128Y006327D01*
X038225Y006327D01*
X038273Y006279D01*
X038273Y006134D01*
X038273Y006230D02*
X038370Y006327D01*
X038321Y006428D02*
X038370Y006477D01*
X038370Y006573D01*
X038321Y006622D01*
X038273Y006622D01*
X038225Y006573D01*
X038225Y006428D01*
X038321Y006428D01*
X038225Y006428D02*
X038128Y006525D01*
X038080Y006622D01*
X038128Y006723D02*
X038080Y006771D01*
X038080Y006868D01*
X038128Y006916D01*
X038321Y006723D01*
X038370Y006771D01*
X038370Y006868D01*
X038321Y006916D01*
X038128Y006916D01*
X038225Y007018D02*
X038128Y007114D01*
X038080Y007211D01*
X038225Y007163D02*
X038225Y007018D01*
X038321Y007018D01*
X038370Y007066D01*
X038370Y007163D01*
X038321Y007211D01*
X038273Y007211D01*
X038225Y007163D01*
X038880Y007163D02*
X038928Y007211D01*
X039121Y007018D01*
X039170Y007066D01*
X039170Y007163D01*
X039121Y007211D01*
X038928Y007211D01*
X038880Y007163D02*
X038880Y007066D01*
X038928Y007018D01*
X039121Y007018D01*
X039121Y006916D02*
X038928Y006916D01*
X039121Y006723D01*
X039170Y006771D01*
X039170Y006868D01*
X039121Y006916D01*
X038928Y006916D02*
X038880Y006868D01*
X038880Y006771D01*
X038928Y006723D01*
X039121Y006723D01*
X039121Y006622D02*
X039073Y006622D01*
X039025Y006573D01*
X039025Y006428D01*
X039121Y006428D01*
X039170Y006477D01*
X039170Y006573D01*
X039121Y006622D01*
X038928Y006525D02*
X039025Y006428D01*
X038928Y006525D02*
X038880Y006622D01*
X039170Y006327D02*
X039170Y006134D01*
X038880Y006134D01*
X039128Y005711D02*
X039176Y005711D01*
X039225Y005663D01*
X039273Y005711D01*
X039321Y005711D01*
X039370Y005663D01*
X039370Y005566D01*
X039321Y005518D01*
X039321Y005416D02*
X039370Y005368D01*
X039370Y005271D01*
X039321Y005223D01*
X039128Y005416D01*
X039321Y005416D01*
X039128Y005416D02*
X039080Y005368D01*
X039080Y005271D01*
X039128Y005223D01*
X039321Y005223D01*
X039128Y005122D02*
X039321Y004928D01*
X039370Y004928D01*
X039370Y004827D02*
X039273Y004730D01*
X039273Y004779D02*
X039273Y004634D01*
X039370Y004634D02*
X039080Y004634D01*
X039080Y004779D01*
X039128Y004827D01*
X039225Y004827D01*
X039273Y004779D01*
X039080Y004928D02*
X039080Y005122D01*
X039128Y005122D01*
X039128Y005518D02*
X039080Y005566D01*
X039080Y005663D01*
X039128Y005711D01*
X039225Y005663D02*
X039225Y005614D01*
X039678Y006134D02*
X039871Y006134D01*
X039920Y006182D01*
X039920Y006279D01*
X039871Y006327D01*
X039871Y006428D02*
X039920Y006477D01*
X039920Y006573D01*
X039871Y006622D01*
X039823Y006622D01*
X039775Y006573D01*
X039775Y006428D01*
X039871Y006428D01*
X039775Y006428D02*
X039678Y006525D01*
X039630Y006622D01*
X039678Y006723D02*
X039630Y006771D01*
X039630Y006868D01*
X039678Y006916D01*
X039871Y006723D01*
X039920Y006771D01*
X039920Y006868D01*
X039871Y006916D01*
X039678Y006916D01*
X039678Y007018D02*
X039630Y007066D01*
X039630Y007163D01*
X039678Y007211D01*
X039726Y007211D01*
X039920Y007018D01*
X039920Y007211D01*
X039871Y006723D02*
X039678Y006723D01*
X039678Y006327D02*
X039630Y006279D01*
X039630Y006182D01*
X039678Y006134D01*
X038321Y006723D02*
X038128Y006723D01*
X041430Y006593D02*
X041430Y006448D01*
X041720Y006448D01*
X041720Y006593D01*
X041671Y006641D01*
X041478Y006641D01*
X041430Y006593D01*
X041430Y006347D02*
X041720Y006347D01*
X041430Y006153D01*
X041720Y006153D01*
X041671Y006052D02*
X041575Y006052D01*
X041575Y005955D01*
X041671Y005859D02*
X041720Y005907D01*
X041720Y006004D01*
X041671Y006052D01*
X041478Y006052D02*
X041430Y006004D01*
X041430Y005907D01*
X041478Y005859D01*
X041671Y005859D01*
X041671Y005641D02*
X041720Y005593D01*
X041720Y005496D01*
X041671Y005448D01*
X041623Y005347D02*
X041430Y005347D01*
X041478Y005448D02*
X041430Y005496D01*
X041430Y005593D01*
X041478Y005641D01*
X041526Y005641D01*
X041575Y005593D01*
X041623Y005641D01*
X041671Y005641D01*
X041575Y005593D02*
X041575Y005545D01*
X041623Y005347D02*
X041720Y005250D01*
X041623Y005153D01*
X041430Y005153D01*
X041478Y005052D02*
X041526Y005052D01*
X041575Y005004D01*
X041623Y005052D01*
X041671Y005052D01*
X041720Y005004D01*
X041720Y004907D01*
X041671Y004859D01*
X041575Y004955D02*
X041575Y005004D01*
X041478Y005052D02*
X041430Y005004D01*
X041430Y004907D01*
X041478Y004859D01*
X037905Y003015D02*
X037905Y002645D01*
X038028Y002645D02*
X037781Y002645D01*
X037660Y002706D02*
X037660Y002953D01*
X037413Y002706D01*
X037475Y002645D01*
X037598Y002645D01*
X037660Y002706D01*
X037781Y002892D02*
X037905Y003015D01*
X037660Y002953D02*
X037598Y003015D01*
X037475Y003015D01*
X037413Y002953D01*
X037413Y002706D01*
X037291Y002953D02*
X037045Y002706D01*
X037045Y002645D01*
X036923Y002706D02*
X036861Y002645D01*
X036738Y002645D01*
X036676Y002706D01*
X036676Y002953D01*
X036738Y003015D01*
X036861Y003015D01*
X036923Y002953D01*
X037045Y003015D02*
X037291Y003015D01*
X037291Y002953D01*
D13*
X032735Y002969D02*
X032735Y002469D01*
X032485Y002219D01*
X031985Y002219D01*
X031735Y002469D01*
X031485Y002219D01*
X030985Y002219D01*
X030735Y002469D01*
X030735Y002969D01*
X030985Y003219D01*
X031485Y003219D01*
X031735Y002969D01*
X031985Y003219D01*
X032485Y003219D01*
X032735Y002969D01*
X029235Y005469D02*
X028985Y005219D01*
X028485Y005219D01*
X028235Y005469D01*
X028235Y005969D01*
X028485Y006219D01*
X028235Y006469D01*
X028235Y006969D01*
X028485Y007219D01*
X028985Y007219D01*
X029235Y006969D01*
X029235Y006469D01*
X028985Y006219D01*
X029235Y005969D01*
X029235Y005469D01*
X028985Y007219D02*
X028485Y007219D01*
X028235Y007469D01*
X028235Y007969D01*
X028485Y008219D01*
X028235Y008469D01*
X028235Y008969D01*
X028485Y009219D01*
X028985Y009219D01*
X029235Y008969D01*
X029235Y008469D01*
X028985Y008219D01*
X029235Y007969D01*
X029235Y007469D01*
X028985Y007219D01*
X033485Y007469D02*
X033485Y007969D01*
X033735Y008219D01*
X034235Y008219D01*
X034485Y007969D01*
X034485Y007469D01*
X034235Y007219D01*
X034485Y006969D01*
X034485Y006469D01*
X034235Y006219D01*
X033735Y006219D01*
X033485Y006469D01*
X033485Y006969D01*
X033735Y007219D01*
X033485Y007469D01*
X026322Y009690D02*
X026322Y011747D01*
X020148Y011747D01*
X020148Y009690D01*
X026322Y009690D01*
X025266Y013250D02*
X029203Y013250D01*
X029735Y013969D02*
X029985Y013719D01*
X030485Y013719D01*
X030735Y013969D01*
X030985Y013719D01*
X031485Y013719D01*
X031735Y013969D01*
X031735Y014469D01*
X031485Y014719D01*
X030985Y014719D01*
X030735Y014469D01*
X030485Y014719D01*
X029985Y014719D01*
X029735Y014469D01*
X029735Y013969D01*
X030463Y015825D02*
X030463Y016101D01*
X030463Y015825D02*
X031290Y015825D01*
X033180Y015825D02*
X034007Y015825D01*
X034007Y020038D01*
X030463Y020038D01*
X030463Y017951D01*
X029203Y017384D02*
X025266Y017384D01*
X026140Y018148D02*
X024329Y018148D01*
X024329Y018325D01*
X024329Y019112D02*
X024329Y019289D01*
X026140Y019289D01*
X026140Y019112D01*
X025629Y019112D02*
X025629Y018325D01*
X026140Y018325D02*
X026140Y018148D01*
X028485Y018419D02*
X028985Y018419D01*
X028985Y019019D02*
X028485Y019019D01*
X035266Y017384D02*
X039203Y017384D01*
X038485Y018719D02*
X037985Y018719D01*
X037735Y018969D01*
X037485Y018719D01*
X036985Y018719D01*
X036735Y018969D01*
X036485Y018719D01*
X035985Y018719D01*
X035735Y018969D01*
X035735Y019469D01*
X035985Y019719D01*
X036485Y019719D01*
X036735Y019469D01*
X036985Y019719D01*
X037485Y019719D01*
X037735Y019469D01*
X037985Y019719D01*
X038485Y019719D01*
X038735Y019469D01*
X038735Y018969D01*
X038485Y018719D01*
X039203Y013250D02*
X035266Y013250D01*
X019203Y013250D02*
X015266Y013250D01*
X009203Y013250D02*
X005266Y013250D01*
X003735Y013469D02*
X003735Y012969D01*
X003485Y012719D01*
X003735Y012469D01*
X003735Y011969D01*
X003485Y011719D01*
X003735Y011469D01*
X003735Y010969D01*
X003485Y010719D01*
X003735Y010469D01*
X003735Y009969D01*
X003485Y009719D01*
X002985Y009719D01*
X002735Y009969D01*
X002735Y010469D01*
X002985Y010719D01*
X002735Y010969D01*
X002735Y011469D01*
X002985Y011719D01*
X002735Y011969D01*
X002735Y012469D01*
X002985Y012719D01*
X002735Y012969D01*
X002735Y013469D01*
X002985Y013719D01*
X002735Y013969D01*
X002735Y014469D01*
X002985Y014719D01*
X002735Y014969D01*
X002735Y015469D01*
X002985Y015719D01*
X003485Y015719D01*
X003735Y015469D01*
X003735Y014969D01*
X003485Y014719D01*
X003735Y014469D01*
X003735Y013969D01*
X003485Y013719D01*
X003735Y013469D01*
X003985Y016219D02*
X003735Y016469D01*
X003485Y016219D01*
X002985Y016219D01*
X002735Y016469D01*
X002735Y016969D01*
X002985Y017219D01*
X003485Y017219D01*
X003735Y016969D01*
X003985Y017219D01*
X004485Y017219D01*
X004735Y016969D01*
X004735Y016469D01*
X004485Y016219D01*
X003985Y016219D01*
X005266Y017384D02*
X009203Y017384D01*
X008985Y018719D02*
X008735Y018969D01*
X008485Y018719D01*
X007985Y018719D01*
X007735Y018969D01*
X007485Y018719D01*
X006985Y018719D01*
X006735Y018969D01*
X006485Y018719D01*
X005985Y018719D01*
X005735Y018969D01*
X005485Y018719D01*
X004985Y018719D01*
X004735Y018969D01*
X004485Y018719D01*
X003985Y018719D01*
X003735Y018969D01*
X003735Y019469D01*
X003985Y019719D01*
X004485Y019719D01*
X004735Y019469D01*
X004985Y019719D01*
X005485Y019719D01*
X005735Y019469D01*
X005985Y019719D01*
X006485Y019719D01*
X006735Y019469D01*
X006985Y019719D01*
X007485Y019719D01*
X007735Y019469D01*
X007985Y019719D01*
X008485Y019719D01*
X008735Y019469D01*
X008985Y019719D01*
X009485Y019719D01*
X009735Y019469D01*
X009735Y018969D01*
X009485Y018719D01*
X008985Y018719D01*
X015266Y017384D02*
X019203Y017384D01*
X012467Y008108D02*
X009003Y008108D01*
X008845Y007951D01*
X008845Y004486D01*
X009003Y004329D01*
X012467Y004329D01*
X012625Y004486D01*
X012625Y007951D01*
X012467Y008108D01*
X020341Y002664D02*
X020341Y002112D01*
X020499Y001837D02*
X020735Y001601D01*
X020971Y001837D01*
X020499Y001837D01*
X020459Y001601D02*
X020735Y001601D01*
X021010Y001601D01*
X021129Y001325D02*
X021129Y000774D01*
X020341Y000774D01*
X020341Y001325D01*
X021129Y002112D02*
X021129Y002664D01*
X020341Y002664D01*
X021841Y002664D02*
X021841Y002112D01*
X021999Y001837D02*
X022235Y001601D01*
X022471Y001837D01*
X021999Y001837D01*
X021959Y001601D02*
X022235Y001601D01*
X022510Y001601D01*
X022629Y001325D02*
X022629Y000774D01*
X021841Y000774D01*
X021841Y001325D01*
X022629Y002112D02*
X022629Y002664D01*
X021841Y002664D01*
X015985Y001219D02*
X015985Y000719D01*
X015735Y000469D01*
X015235Y000469D01*
X014985Y000719D01*
X014735Y000469D01*
X014235Y000469D01*
X013985Y000719D01*
X013735Y000469D01*
X013235Y000469D01*
X012985Y000719D01*
X012735Y000469D01*
X012235Y000469D01*
X011985Y000719D01*
X011735Y000469D01*
X011235Y000469D01*
X010985Y000719D01*
X010735Y000469D01*
X010235Y000469D01*
X009985Y000719D01*
X009735Y000469D01*
X009235Y000469D01*
X008985Y000719D01*
X008735Y000469D01*
X008235Y000469D01*
X007985Y000719D01*
X007735Y000469D01*
X007235Y000469D01*
X006985Y000719D01*
X006735Y000469D01*
X006235Y000469D01*
X005985Y000719D01*
X005985Y001219D01*
X006235Y001469D01*
X006735Y001469D01*
X006985Y001219D01*
X007235Y001469D01*
X007735Y001469D01*
X007985Y001219D01*
X008235Y001469D01*
X008735Y001469D01*
X008985Y001219D01*
X009235Y001469D01*
X009735Y001469D01*
X009985Y001219D01*
X010235Y001469D01*
X010735Y001469D01*
X010985Y001219D01*
X011235Y001469D01*
X011735Y001469D01*
X011985Y001219D01*
X012235Y001469D01*
X012735Y001469D01*
X012985Y001219D01*
X013235Y001469D01*
X013735Y001469D01*
X013985Y001219D01*
X014235Y001469D01*
X014735Y001469D01*
X014985Y001219D01*
X015235Y001469D01*
X015735Y001469D01*
X015985Y001219D01*
D14*
X022735Y004639D02*
X022735Y004819D01*
X022735Y004639D02*
X022703Y004605D01*
X022668Y004573D01*
X022631Y004544D01*
X022592Y004518D01*
X022552Y004494D01*
X022509Y004474D01*
X022466Y004457D01*
X022421Y004442D01*
X022375Y004432D01*
X022329Y004424D01*
X022282Y004420D01*
X022235Y004419D01*
X021529Y005595D02*
X021556Y005642D01*
X021586Y005687D01*
X021619Y005730D01*
X021655Y005770D01*
X021694Y005808D01*
X021735Y005843D01*
X021778Y005876D01*
X021823Y005905D01*
X021871Y005931D01*
X021920Y005954D01*
X021970Y005974D01*
X022021Y005990D01*
X022074Y006003D01*
X022127Y006012D01*
X022181Y006017D01*
X022235Y006019D01*
X022735Y005799D02*
X022735Y005619D01*
X022735Y005799D02*
X022703Y005833D01*
X022668Y005865D01*
X022631Y005894D01*
X022592Y005920D01*
X022552Y005944D01*
X022509Y005964D01*
X022466Y005982D01*
X022421Y005996D01*
X022375Y006007D01*
X022329Y006014D01*
X022282Y006018D01*
X022235Y006019D01*
X021540Y004822D02*
X021570Y004774D01*
X021603Y004729D01*
X021639Y004686D01*
X021677Y004645D01*
X021719Y004608D01*
X021763Y004573D01*
X021809Y004542D01*
X021858Y004513D01*
X021908Y004489D01*
X021960Y004468D01*
X022014Y004450D01*
X022068Y004437D01*
X022123Y004427D01*
X022179Y004421D01*
X022235Y004419D01*
X009049Y007793D02*
X009051Y007813D01*
X009056Y007833D01*
X009066Y007851D01*
X009078Y007868D01*
X009093Y007882D01*
X009111Y007892D01*
X009130Y007900D01*
X009150Y007904D01*
X009170Y007904D01*
X009190Y007900D01*
X009209Y007892D01*
X009227Y007882D01*
X009242Y007868D01*
X009254Y007851D01*
X009264Y007833D01*
X009269Y007813D01*
X009271Y007793D01*
X009269Y007773D01*
X009264Y007753D01*
X009254Y007735D01*
X009242Y007718D01*
X009227Y007704D01*
X009209Y007694D01*
X009190Y007686D01*
X009170Y007682D01*
X009150Y007682D01*
X009130Y007686D01*
X009111Y007694D01*
X009093Y007704D01*
X009078Y007718D01*
X009066Y007735D01*
X009056Y007753D01*
X009051Y007773D01*
X009049Y007793D01*
X010621Y018038D02*
X010621Y018746D01*
X010621Y018038D02*
X011026Y018038D01*
X013444Y018038D02*
X013849Y018038D01*
X013849Y018746D01*
X013849Y019691D02*
X013849Y019967D01*
X010621Y019967D02*
X010621Y019691D01*
D15*
X008609Y007695D03*
X008609Y007498D03*
X008609Y007301D03*
X008609Y007104D03*
X008609Y006908D03*
X008609Y006711D03*
X008609Y006514D03*
X008609Y006317D03*
X008609Y006120D03*
X008609Y005923D03*
X008609Y005727D03*
X008609Y005530D03*
X008609Y005333D03*
X008609Y005136D03*
X008609Y004939D03*
X008609Y004742D03*
X012861Y004742D03*
X012861Y004939D03*
X012861Y005136D03*
X012861Y005333D03*
X012861Y005530D03*
X012861Y005727D03*
X012861Y005923D03*
X012861Y006120D03*
X012861Y006317D03*
X012861Y006514D03*
X012861Y006711D03*
X012861Y006908D03*
X012861Y007104D03*
X012861Y007301D03*
X012861Y007498D03*
X012861Y007695D03*
D16*
X012211Y008345D03*
X012014Y008345D03*
X011818Y008345D03*
X011621Y008345D03*
X011424Y008345D03*
X011227Y008345D03*
X011030Y008345D03*
X010833Y008345D03*
X010636Y008345D03*
X010440Y008345D03*
X010243Y008345D03*
X010046Y008345D03*
X009849Y008345D03*
X009652Y008345D03*
X009455Y008345D03*
X009258Y008345D03*
X009258Y004093D03*
X009455Y004093D03*
X009652Y004093D03*
X009849Y004093D03*
X010046Y004093D03*
X010243Y004093D03*
X010440Y004093D03*
X010636Y004093D03*
X010833Y004093D03*
X011030Y004093D03*
X011227Y004093D03*
X011424Y004093D03*
X011621Y004093D03*
X011818Y004093D03*
X012014Y004093D03*
X012211Y004093D03*
D17*
X005741Y006128D02*
X005741Y007309D01*
X005742Y007322D01*
X005739Y007335D01*
X005734Y007347D01*
X005725Y007357D01*
X005714Y007364D01*
X005702Y007368D01*
X005701Y007368D02*
X005308Y007368D01*
X005292Y007369D01*
X005277Y007366D01*
X005263Y007359D01*
X005250Y007350D01*
X005240Y007338D01*
X005233Y007324D01*
X005229Y007309D01*
X005229Y006128D01*
X005233Y006113D01*
X005240Y006099D01*
X005250Y006087D01*
X005263Y006078D01*
X005277Y006071D01*
X005292Y006068D01*
X005308Y006069D01*
X005682Y006069D01*
X005695Y006070D01*
X005708Y006075D01*
X005719Y006082D01*
X005728Y006091D01*
X005735Y006102D01*
X005740Y006115D01*
X005741Y006128D01*
X005129Y006207D02*
X005113Y006205D01*
X005097Y006200D01*
X005083Y006192D01*
X005070Y006181D01*
X005061Y006168D01*
X005054Y006152D01*
X005050Y006136D01*
X005050Y006120D01*
X005054Y006104D01*
X005061Y006089D01*
X005070Y006075D01*
X005083Y006064D01*
X005097Y006056D01*
X005113Y006051D01*
X005129Y006049D01*
X005129Y005833D01*
X004341Y005833D01*
X004341Y005971D01*
X004459Y005971D01*
X004479Y005971D02*
X004479Y006286D01*
X004341Y006286D01*
X004341Y006561D01*
X004459Y006561D01*
X004341Y006561D02*
X004341Y006640D01*
X004357Y006642D01*
X004373Y006647D01*
X004387Y006655D01*
X004400Y006666D01*
X004409Y006680D01*
X004416Y006695D01*
X004420Y006711D01*
X004420Y006727D01*
X004416Y006743D01*
X004409Y006759D01*
X004400Y006772D01*
X004387Y006783D01*
X004373Y006791D01*
X004357Y006796D01*
X004341Y006798D01*
X004341Y006797D02*
X004341Y006876D01*
X004459Y006876D01*
X004341Y006876D02*
X004341Y007152D01*
X004459Y007152D01*
X004341Y007152D02*
X004341Y007230D01*
X004357Y007232D01*
X004373Y007237D01*
X004387Y007245D01*
X004400Y007256D01*
X004409Y007270D01*
X004416Y007285D01*
X004420Y007301D01*
X004420Y007317D01*
X004416Y007333D01*
X004409Y007349D01*
X004400Y007362D01*
X004387Y007373D01*
X004373Y007381D01*
X004357Y007386D01*
X004341Y007388D01*
X004341Y007467D01*
X004459Y007467D01*
X004479Y007447D02*
X004479Y006286D01*
X004341Y006286D02*
X004341Y006207D01*
X004357Y006205D01*
X004373Y006200D01*
X004387Y006192D01*
X004400Y006181D01*
X004409Y006168D01*
X004416Y006152D01*
X004420Y006136D01*
X004420Y006120D01*
X004416Y006104D01*
X004409Y006089D01*
X004400Y006075D01*
X004387Y006064D01*
X004373Y006056D01*
X004357Y006051D01*
X004341Y006049D01*
X004341Y005971D01*
X004479Y005971D02*
X004480Y005961D01*
X004484Y005952D01*
X004490Y005943D01*
X004499Y005937D01*
X004508Y005933D01*
X004518Y005932D01*
X004518Y005931D02*
X004912Y005931D01*
X004927Y005933D01*
X004942Y005937D01*
X004956Y005944D01*
X004968Y005954D01*
X004978Y005966D01*
X004985Y005980D01*
X004989Y005995D01*
X004991Y006010D01*
X004991Y006561D01*
X005109Y006561D01*
X005129Y006640D02*
X005129Y006207D01*
X005109Y006286D02*
X005010Y006286D01*
X005010Y005971D02*
X005109Y005971D01*
X004991Y006561D02*
X004991Y007427D01*
X005010Y007467D02*
X005109Y007467D01*
X005129Y007388D02*
X005129Y007604D01*
X004341Y007604D01*
X004341Y007467D01*
X004479Y007447D02*
X004480Y007460D01*
X004485Y007473D01*
X004492Y007484D01*
X004501Y007493D01*
X004512Y007500D01*
X004525Y007505D01*
X004538Y007506D01*
X004912Y007506D01*
X004927Y007504D01*
X004942Y007500D01*
X004956Y007493D01*
X004968Y007483D01*
X004978Y007471D01*
X004985Y007457D01*
X004989Y007442D01*
X004991Y007427D01*
X005129Y007388D02*
X005113Y007386D01*
X005097Y007381D01*
X005083Y007373D01*
X005070Y007362D01*
X005061Y007349D01*
X005054Y007333D01*
X005050Y007317D01*
X005050Y007301D01*
X005054Y007285D01*
X005061Y007270D01*
X005070Y007256D01*
X005083Y007245D01*
X005097Y007237D01*
X005113Y007232D01*
X005129Y007230D01*
X005129Y006797D01*
X005129Y006798D02*
X005113Y006796D01*
X005097Y006791D01*
X005083Y006783D01*
X005070Y006772D01*
X005061Y006759D01*
X005054Y006743D01*
X005050Y006727D01*
X005050Y006711D01*
X005054Y006695D01*
X005061Y006680D01*
X005070Y006666D01*
X005083Y006655D01*
X005097Y006647D01*
X005113Y006642D01*
X005129Y006640D01*
X005109Y006876D02*
X005010Y006876D01*
X005010Y007152D02*
X005109Y007152D01*
X003430Y008007D02*
X003430Y008157D01*
X003355Y008232D01*
X002979Y008232D01*
X003130Y008392D02*
X002979Y008543D01*
X003130Y008693D01*
X003430Y008693D01*
X003430Y008853D02*
X002979Y008853D01*
X002979Y009078D01*
X003055Y009153D01*
X003205Y009153D01*
X003280Y009078D01*
X003280Y008853D01*
X003280Y009003D02*
X003430Y009153D01*
X003430Y009463D02*
X002979Y009463D01*
X002979Y009313D02*
X002979Y009613D01*
X003205Y008693D02*
X003205Y008392D01*
X003130Y008392D02*
X003430Y008392D01*
X003430Y008007D02*
X003355Y007932D01*
X002979Y007932D01*
X005266Y013250D02*
X005266Y017384D01*
X004411Y017539D02*
X004411Y017839D01*
X004111Y017539D01*
X004186Y017464D01*
X004336Y017464D01*
X004411Y017539D01*
X004111Y017539D02*
X004111Y017839D01*
X004186Y017914D01*
X004336Y017914D01*
X004411Y017839D01*
X003951Y017464D02*
X003651Y017464D01*
X003801Y017464D02*
X003801Y017914D01*
X003651Y017764D01*
X003490Y017839D02*
X003490Y017689D01*
X003415Y017614D01*
X003190Y017614D01*
X003190Y017464D02*
X003190Y017914D01*
X003415Y017914D01*
X003490Y017839D01*
X003030Y017914D02*
X002880Y017914D01*
X002955Y017914D02*
X002955Y017539D01*
X002880Y017464D01*
X002805Y017464D01*
X002730Y017539D01*
X008409Y018099D02*
X008484Y018024D01*
X008634Y018024D01*
X008709Y018099D01*
X008709Y018174D01*
X008634Y018249D01*
X008484Y018249D01*
X008409Y018324D01*
X008409Y018399D01*
X008484Y018474D01*
X008634Y018474D01*
X008709Y018399D01*
X008869Y018474D02*
X008869Y018024D01*
X009019Y018174D01*
X009169Y018024D01*
X009169Y018474D01*
X009329Y018474D02*
X009555Y018474D01*
X009630Y018399D01*
X009630Y018099D01*
X009555Y018024D01*
X009329Y018024D01*
X009329Y018474D01*
X009203Y017384D02*
X009203Y013250D01*
X015266Y013250D02*
X015266Y017384D01*
X019203Y017384D02*
X019203Y013250D01*
X021985Y011719D02*
X021924Y011714D01*
X021863Y011705D01*
X021802Y011693D01*
X021743Y011676D01*
X021684Y011657D01*
X021627Y011633D01*
X021572Y011606D01*
X021518Y011576D01*
X021466Y011543D01*
X021417Y011506D01*
X021369Y011467D01*
X021325Y011424D01*
X021282Y011379D01*
X021243Y011331D01*
X021207Y011282D01*
X021174Y011230D01*
X021144Y011176D01*
X021118Y011120D01*
X021095Y011063D01*
X021075Y011004D01*
X021060Y010945D01*
X021048Y010884D01*
X021039Y010823D01*
X021035Y010761D01*
X021034Y010700D01*
X021037Y010638D01*
X021044Y010577D01*
X021055Y010516D01*
X021069Y010456D01*
X021087Y010397D01*
X021109Y010340D01*
X021134Y010283D01*
X021162Y010229D01*
X021194Y010176D01*
X021229Y010125D01*
X021267Y010077D01*
X021308Y010031D01*
X021352Y009987D01*
X021398Y009946D01*
X021447Y009909D01*
X021498Y009874D01*
X021551Y009843D01*
X021606Y009815D01*
X021663Y009790D01*
X021720Y009769D01*
X021780Y009751D01*
X021840Y009737D01*
X021900Y009727D01*
X021962Y009721D01*
X022023Y009718D01*
X022085Y009719D01*
X024435Y009719D02*
X024497Y009721D01*
X024558Y009727D01*
X024619Y009736D01*
X024679Y009749D01*
X024738Y009766D01*
X024796Y009787D01*
X024853Y009811D01*
X024908Y009838D01*
X024961Y009869D01*
X025013Y009903D01*
X025062Y009940D01*
X025109Y009980D01*
X025153Y010023D01*
X025194Y010068D01*
X025233Y010116D01*
X025269Y010167D01*
X025301Y010219D01*
X025330Y010273D01*
X025356Y010329D01*
X025378Y010387D01*
X025397Y010445D01*
X025412Y010505D01*
X025423Y010566D01*
X025431Y010627D01*
X025435Y010688D01*
X025435Y010750D01*
X025431Y010811D01*
X025423Y010872D01*
X025412Y010933D01*
X025397Y010993D01*
X025378Y011051D01*
X025356Y011109D01*
X025330Y011165D01*
X025301Y011219D01*
X025269Y011271D01*
X025233Y011322D01*
X025194Y011370D01*
X025153Y011415D01*
X025109Y011458D01*
X025062Y011498D01*
X025013Y011535D01*
X024961Y011569D01*
X024908Y011600D01*
X024853Y011627D01*
X024796Y011651D01*
X024738Y011672D01*
X024679Y011689D01*
X024619Y011702D01*
X024558Y011711D01*
X024497Y011717D01*
X024435Y011719D01*
X025266Y013250D02*
X025266Y017384D01*
X022577Y018069D02*
X022277Y018069D01*
X022427Y018069D02*
X022427Y018519D01*
X022277Y018369D01*
X022117Y018444D02*
X022042Y018519D01*
X021892Y018519D01*
X021817Y018444D01*
X021817Y018144D01*
X021892Y018069D01*
X022042Y018069D01*
X022117Y018144D01*
X021660Y018069D02*
X021510Y018069D01*
X021585Y018069D02*
X021585Y018519D01*
X021510Y018519D02*
X021660Y018519D01*
X029203Y017384D02*
X029203Y013250D01*
X030409Y013099D02*
X030484Y013024D01*
X030559Y013024D01*
X030634Y013099D01*
X030634Y013474D01*
X030559Y013474D02*
X030709Y013474D01*
X030869Y013474D02*
X031094Y013474D01*
X031169Y013399D01*
X031169Y013249D01*
X031094Y013174D01*
X030869Y013174D01*
X030869Y013024D02*
X030869Y013474D01*
X031329Y013399D02*
X031329Y013324D01*
X031405Y013249D01*
X031630Y013249D01*
X031630Y013399D02*
X031555Y013474D01*
X031405Y013474D01*
X031329Y013399D01*
X031329Y013099D02*
X031405Y013024D01*
X031555Y013024D01*
X031630Y013099D01*
X031630Y013399D01*
X033859Y012336D02*
X033859Y012186D01*
X033935Y012111D01*
X034235Y012111D01*
X034310Y012186D01*
X034310Y012336D01*
X034235Y012411D01*
X033935Y012411D02*
X033859Y012336D01*
X033859Y011954D02*
X033859Y011804D01*
X033859Y011879D02*
X034310Y011879D01*
X034310Y011804D02*
X034310Y011954D01*
X034310Y011644D02*
X033859Y011644D01*
X034010Y011494D01*
X033859Y011344D01*
X034310Y011344D01*
X035266Y013250D02*
X035266Y017384D01*
X039203Y017384D02*
X039203Y013250D01*
X041109Y010201D02*
X041560Y010201D01*
X041109Y009901D01*
X041560Y009901D01*
X041560Y009744D02*
X041560Y009594D01*
X041560Y009669D02*
X041109Y009669D01*
X041109Y009594D02*
X041109Y009744D01*
X031951Y003839D02*
X031876Y003914D01*
X031726Y003914D01*
X031651Y003839D01*
X031651Y003764D01*
X031726Y003689D01*
X031876Y003689D01*
X031951Y003614D01*
X031951Y003539D01*
X031876Y003464D01*
X031726Y003464D01*
X031651Y003539D01*
X031651Y003614D01*
X031726Y003689D01*
X031876Y003689D02*
X031951Y003764D01*
X031951Y003839D01*
X031490Y003839D02*
X031490Y003689D01*
X031415Y003614D01*
X031190Y003614D01*
X031190Y003464D02*
X031190Y003914D01*
X031415Y003914D01*
X031490Y003839D01*
X031030Y003914D02*
X030880Y003914D01*
X030955Y003914D02*
X030955Y003539D01*
X030880Y003464D01*
X030805Y003464D01*
X030730Y003539D01*
X027060Y004344D02*
X026609Y004344D01*
X026835Y004344D02*
X026835Y004644D01*
X026910Y004804D02*
X026910Y005029D01*
X026835Y005104D01*
X026685Y005104D01*
X026609Y005029D01*
X026609Y004804D01*
X027060Y004804D01*
X027060Y004644D02*
X026609Y004644D01*
X041109Y003065D02*
X041109Y002764D01*
X041109Y002915D02*
X041560Y002915D01*
X041485Y002604D02*
X041109Y002604D01*
X041109Y002304D02*
X041485Y002304D01*
X041560Y002379D01*
X041560Y002529D01*
X041485Y002604D01*
X041485Y002144D02*
X041185Y002144D01*
X041109Y002069D01*
X041109Y001919D01*
X041185Y001844D01*
X041485Y001844D01*
X041560Y001919D01*
X041560Y002069D01*
X041485Y002144D01*
D18*
X040065Y001957D02*
X039988Y001957D01*
X039681Y002264D01*
X039604Y002264D01*
X039604Y001957D01*
X039681Y001804D02*
X039835Y001804D01*
X039911Y001727D01*
X039911Y001497D01*
X039911Y001651D02*
X040065Y001804D01*
X039681Y001804D02*
X039604Y001727D01*
X039604Y001497D01*
X040065Y001497D01*
X039065Y001497D02*
X038604Y001497D01*
X038604Y001727D01*
X038681Y001804D01*
X038835Y001804D01*
X038911Y001727D01*
X038911Y001497D01*
X038911Y001651D02*
X039065Y001804D01*
X039065Y001957D02*
X038988Y001957D01*
X038681Y002264D01*
X038604Y002264D01*
X038604Y001957D01*
X038681Y002418D02*
X038604Y002495D01*
X038604Y002648D01*
X038681Y002725D01*
X038988Y002418D01*
X039065Y002495D01*
X039065Y002648D01*
X038988Y002725D01*
X038681Y002725D01*
X038681Y002878D02*
X038604Y002955D01*
X038604Y003108D01*
X038681Y003185D01*
X038988Y002878D01*
X039065Y002955D01*
X039065Y003108D01*
X038988Y003185D01*
X038681Y003185D01*
X038681Y002878D02*
X038988Y002878D01*
X038988Y002418D02*
X038681Y002418D01*
X039604Y002495D02*
X039604Y002648D01*
X039681Y002725D01*
X039988Y002418D01*
X040065Y002495D01*
X040065Y002648D01*
X039988Y002725D01*
X039681Y002725D01*
X039681Y002878D02*
X039604Y002955D01*
X039604Y003108D01*
X039681Y003185D01*
X039758Y003185D01*
X040065Y002878D01*
X040065Y003185D01*
X039988Y002418D02*
X039681Y002418D01*
X039604Y002495D01*
X037865Y003089D02*
X037865Y003345D01*
X037865Y003089D02*
X036920Y003089D01*
X036644Y003364D01*
X036782Y004074D02*
X036812Y004109D01*
X036844Y004141D01*
X036879Y004171D01*
X036917Y004198D01*
X036956Y004222D01*
X036997Y004242D01*
X037040Y004260D01*
X037084Y004273D01*
X037129Y004283D01*
X037174Y004290D01*
X037220Y004293D01*
X037266Y004292D01*
X037312Y004288D01*
X037357Y004279D01*
X037402Y004268D01*
X037445Y004252D01*
X037487Y004234D01*
X037528Y004211D01*
X037566Y004186D01*
X037603Y004158D01*
X037637Y004127D01*
X037668Y004093D01*
X037865Y004093D02*
X037865Y004349D01*
X036920Y004349D01*
X036644Y004073D01*
X036802Y003345D02*
X036834Y003311D01*
X036869Y003280D01*
X036906Y003251D01*
X036945Y003226D01*
X036986Y003204D01*
X037029Y003185D01*
X037074Y003170D01*
X037119Y003159D01*
X037165Y003151D01*
X037212Y003147D01*
X037258Y003147D01*
X037305Y003151D01*
X037351Y003159D01*
X037396Y003170D01*
X037441Y003185D01*
X037484Y003204D01*
X037525Y003226D01*
X037564Y003251D01*
X037601Y003280D01*
X037636Y003311D01*
X037668Y003345D01*
X035815Y004247D02*
X035354Y004247D01*
X035354Y004477D01*
X035431Y004554D01*
X035585Y004554D01*
X035661Y004477D01*
X035661Y004247D01*
X035661Y004401D02*
X035815Y004554D01*
X035738Y004707D02*
X035585Y004707D01*
X035585Y004938D01*
X035661Y005014D01*
X035738Y005014D01*
X035815Y004938D01*
X035815Y004784D01*
X035738Y004707D01*
X035585Y004707D02*
X035431Y004861D01*
X035354Y005014D01*
X035431Y005168D02*
X035354Y005245D01*
X035354Y005398D01*
X035431Y005475D01*
X035738Y005168D01*
X035815Y005245D01*
X035815Y005398D01*
X035738Y005475D01*
X035431Y005475D01*
X035431Y005628D02*
X035354Y005705D01*
X035354Y005858D01*
X035431Y005935D01*
X035738Y005628D01*
X035815Y005705D01*
X035815Y005858D01*
X035738Y005935D01*
X035431Y005935D01*
X035065Y005858D02*
X035065Y005705D01*
X034988Y005628D01*
X034988Y005475D02*
X035065Y005398D01*
X035065Y005245D01*
X034988Y005168D01*
X034681Y005475D01*
X034988Y005475D01*
X034681Y005475D02*
X034604Y005398D01*
X034604Y005245D01*
X034681Y005168D01*
X034988Y005168D01*
X034988Y005014D02*
X034911Y005014D01*
X034835Y004938D01*
X034835Y004707D01*
X034988Y004707D01*
X035065Y004784D01*
X035065Y004938D01*
X034988Y005014D01*
X034681Y004861D02*
X034835Y004707D01*
X034835Y004554D02*
X034681Y004554D01*
X034604Y004477D01*
X034604Y004247D01*
X035065Y004247D01*
X034911Y004247D02*
X034911Y004477D01*
X034835Y004554D01*
X034911Y004401D02*
X035065Y004554D01*
X034681Y004861D02*
X034604Y005014D01*
X034681Y005628D02*
X034604Y005705D01*
X034604Y005858D01*
X034681Y005935D01*
X034758Y005935D01*
X034835Y005858D01*
X034911Y005935D01*
X034988Y005935D01*
X035065Y005858D01*
X034835Y005858D02*
X034835Y005782D01*
X035431Y005628D02*
X035738Y005628D01*
X035738Y005168D02*
X035431Y005168D01*
X036644Y004864D02*
X036920Y004589D01*
X037865Y004589D01*
X037865Y004845D01*
X037668Y004845D02*
X037636Y004811D01*
X037601Y004780D01*
X037564Y004751D01*
X037525Y004726D01*
X037484Y004704D01*
X037441Y004685D01*
X037396Y004670D01*
X037351Y004659D01*
X037305Y004651D01*
X037258Y004647D01*
X037212Y004647D01*
X037165Y004651D01*
X037119Y004659D01*
X037074Y004670D01*
X037029Y004685D01*
X036986Y004704D01*
X036945Y004726D01*
X036906Y004751D01*
X036869Y004780D01*
X036834Y004811D01*
X036802Y004845D01*
X036782Y005574D02*
X036812Y005609D01*
X036844Y005641D01*
X036879Y005671D01*
X036917Y005698D01*
X036956Y005722D01*
X036997Y005742D01*
X037040Y005760D01*
X037084Y005773D01*
X037129Y005783D01*
X037174Y005790D01*
X037220Y005793D01*
X037266Y005792D01*
X037312Y005788D01*
X037357Y005779D01*
X037402Y005768D01*
X037445Y005752D01*
X037487Y005734D01*
X037528Y005711D01*
X037566Y005686D01*
X037603Y005658D01*
X037637Y005627D01*
X037668Y005593D01*
X037865Y005593D02*
X037865Y005849D01*
X036920Y005849D01*
X036644Y005573D01*
X036920Y006089D02*
X036644Y006364D01*
X036920Y006089D02*
X037865Y006089D01*
X037865Y006345D01*
X037668Y006345D02*
X037636Y006311D01*
X037601Y006280D01*
X037564Y006251D01*
X037525Y006226D01*
X037484Y006204D01*
X037441Y006185D01*
X037396Y006170D01*
X037351Y006159D01*
X037305Y006151D01*
X037258Y006147D01*
X037212Y006147D01*
X037165Y006151D01*
X037119Y006159D01*
X037074Y006170D01*
X037029Y006185D01*
X036986Y006204D01*
X036945Y006226D01*
X036906Y006251D01*
X036869Y006280D01*
X036834Y006311D01*
X036802Y006345D01*
X036782Y007074D02*
X036812Y007109D01*
X036844Y007141D01*
X036879Y007171D01*
X036917Y007198D01*
X036956Y007222D01*
X036997Y007242D01*
X037040Y007260D01*
X037084Y007273D01*
X037129Y007283D01*
X037174Y007290D01*
X037220Y007293D01*
X037266Y007292D01*
X037312Y007288D01*
X037357Y007279D01*
X037402Y007268D01*
X037445Y007252D01*
X037487Y007234D01*
X037528Y007211D01*
X037566Y007186D01*
X037603Y007158D01*
X037637Y007127D01*
X037668Y007093D01*
X037865Y007093D02*
X037865Y007349D01*
X036920Y007349D01*
X036644Y007073D01*
X036920Y007589D02*
X036644Y007864D01*
X036782Y008574D02*
X036812Y008609D01*
X036844Y008641D01*
X036879Y008671D01*
X036917Y008698D01*
X036956Y008722D01*
X036997Y008742D01*
X037040Y008760D01*
X037084Y008773D01*
X037129Y008783D01*
X037174Y008790D01*
X037220Y008793D01*
X037266Y008792D01*
X037312Y008788D01*
X037357Y008779D01*
X037402Y008768D01*
X037445Y008752D01*
X037487Y008734D01*
X037528Y008711D01*
X037566Y008686D01*
X037603Y008658D01*
X037637Y008627D01*
X037668Y008593D01*
X037865Y008593D02*
X037865Y008849D01*
X036920Y008849D01*
X036644Y008573D01*
X036802Y007845D02*
X036834Y007811D01*
X036869Y007780D01*
X036906Y007751D01*
X036945Y007726D01*
X036986Y007704D01*
X037029Y007685D01*
X037074Y007670D01*
X037119Y007659D01*
X037165Y007651D01*
X037212Y007647D01*
X037258Y007647D01*
X037305Y007651D01*
X037351Y007659D01*
X037396Y007670D01*
X037441Y007685D01*
X037484Y007704D01*
X037525Y007726D01*
X037564Y007751D01*
X037601Y007780D01*
X037636Y007811D01*
X037668Y007845D01*
X037865Y007845D02*
X037865Y007589D01*
X036920Y007589D01*
X035865Y008889D02*
X035404Y008889D01*
X035404Y009119D01*
X035481Y009196D01*
X035635Y009196D01*
X035711Y009119D01*
X035711Y008889D01*
X035711Y009042D02*
X035865Y009196D01*
X035788Y009349D02*
X035865Y009426D01*
X035865Y009579D01*
X035788Y009656D01*
X035711Y009656D01*
X035635Y009579D01*
X035635Y009349D01*
X035788Y009349D01*
X035635Y009349D02*
X035481Y009502D01*
X035404Y009656D01*
X035481Y009809D02*
X035404Y009886D01*
X035404Y010040D01*
X035481Y010116D01*
X035788Y009809D01*
X035865Y009886D01*
X035865Y010040D01*
X035788Y010116D01*
X035481Y010116D01*
X035558Y010270D02*
X035404Y010423D01*
X035865Y010423D01*
X035865Y010270D02*
X035865Y010577D01*
X035115Y010577D02*
X035115Y010270D01*
X034808Y010577D01*
X034731Y010577D01*
X034654Y010500D01*
X034654Y010347D01*
X034731Y010270D01*
X034731Y010116D02*
X035038Y009809D01*
X035115Y009886D01*
X035115Y010040D01*
X035038Y010116D01*
X034731Y010116D01*
X034654Y010040D01*
X034654Y009886D01*
X034731Y009809D01*
X035038Y009809D01*
X035038Y009656D02*
X034961Y009656D01*
X034885Y009579D01*
X034885Y009349D01*
X035038Y009349D01*
X035115Y009426D01*
X035115Y009579D01*
X035038Y009656D01*
X034731Y009502D02*
X034885Y009349D01*
X034885Y009196D02*
X034731Y009196D01*
X034654Y009119D01*
X034654Y008889D01*
X035115Y008889D01*
X034961Y008889D02*
X034961Y009119D01*
X034885Y009196D01*
X034961Y009042D02*
X035115Y009196D01*
X034731Y009502D02*
X034654Y009656D01*
X035481Y009809D02*
X035788Y009809D01*
X038404Y009886D02*
X038404Y010040D01*
X038481Y010116D01*
X038788Y009809D01*
X038865Y009886D01*
X038865Y010040D01*
X038788Y010116D01*
X038481Y010116D01*
X038404Y010270D02*
X038404Y010577D01*
X038481Y010577D01*
X038788Y010270D01*
X038865Y010270D01*
X039204Y010423D02*
X039665Y010423D01*
X039665Y010270D02*
X039665Y010577D01*
X039954Y010500D02*
X039954Y010347D01*
X040031Y010270D01*
X040031Y010116D02*
X040338Y009809D01*
X040415Y009886D01*
X040415Y010040D01*
X040338Y010116D01*
X040031Y010116D01*
X039954Y010040D01*
X039954Y009886D01*
X040031Y009809D01*
X040338Y009809D01*
X040338Y009656D02*
X040261Y009656D01*
X040185Y009579D01*
X040185Y009349D01*
X040338Y009349D01*
X040415Y009426D01*
X040415Y009579D01*
X040338Y009656D01*
X040031Y009502D02*
X040185Y009349D01*
X040338Y009196D02*
X040415Y009119D01*
X040415Y008965D01*
X040338Y008889D01*
X040031Y008889D01*
X039954Y008965D01*
X039954Y009119D01*
X040031Y009196D01*
X040031Y009502D02*
X039954Y009656D01*
X039665Y009579D02*
X039665Y009426D01*
X039588Y009349D01*
X039435Y009349D01*
X039435Y009579D01*
X039511Y009656D01*
X039588Y009656D01*
X039665Y009579D01*
X039588Y009809D02*
X039281Y009809D01*
X039204Y009886D01*
X039204Y010040D01*
X039281Y010116D01*
X039588Y009809D01*
X039665Y009886D01*
X039665Y010040D01*
X039588Y010116D01*
X039281Y010116D01*
X039358Y010270D02*
X039204Y010423D01*
X038788Y009809D02*
X038481Y009809D01*
X038404Y009886D01*
X038404Y009656D02*
X038481Y009502D01*
X038635Y009349D01*
X038635Y009579D01*
X038711Y009656D01*
X038788Y009656D01*
X038865Y009579D01*
X038865Y009426D01*
X038788Y009349D01*
X038635Y009349D01*
X038635Y009196D02*
X038481Y009196D01*
X038404Y009119D01*
X038404Y008889D01*
X038865Y008889D01*
X038711Y008889D02*
X038711Y009119D01*
X038635Y009196D01*
X038711Y009042D02*
X038865Y009196D01*
X039281Y009502D02*
X039435Y009349D01*
X039281Y009502D02*
X039204Y009656D01*
X039665Y009196D02*
X039665Y008889D01*
X039204Y008889D01*
X040338Y010270D02*
X040415Y010347D01*
X040415Y010500D01*
X040338Y010577D01*
X040261Y010577D01*
X040185Y010500D01*
X040185Y010423D01*
X040185Y010500D02*
X040108Y010577D01*
X040031Y010577D01*
X039954Y010500D01*
X032851Y007822D02*
X032851Y007746D01*
X032544Y007439D01*
X032851Y007439D01*
X032391Y007515D02*
X032314Y007439D01*
X032161Y007439D01*
X032084Y007515D01*
X032084Y007822D01*
X032161Y007899D01*
X032314Y007899D01*
X032391Y007822D01*
X032544Y007822D02*
X032621Y007899D01*
X032775Y007899D01*
X032851Y007822D01*
X031931Y007899D02*
X031777Y007899D01*
X031854Y007899D02*
X031854Y007439D01*
X031777Y007439D02*
X031931Y007439D01*
X031065Y006983D02*
X030604Y006983D01*
X030835Y006753D01*
X030835Y007060D01*
X030988Y006600D02*
X030681Y006600D01*
X030988Y006293D01*
X031065Y006370D01*
X031065Y006523D01*
X030988Y006600D01*
X030681Y006600D02*
X030604Y006523D01*
X030604Y006370D01*
X030681Y006293D01*
X030988Y006293D01*
X030988Y006139D02*
X030911Y006139D01*
X030835Y006063D01*
X030835Y005832D01*
X030988Y005832D01*
X031065Y005909D01*
X031065Y006063D01*
X030988Y006139D01*
X030681Y005986D02*
X030835Y005832D01*
X030835Y005679D02*
X030911Y005602D01*
X030911Y005372D01*
X030911Y005526D02*
X031065Y005679D01*
X030835Y005679D02*
X030681Y005679D01*
X030604Y005602D01*
X030604Y005372D01*
X031065Y005372D01*
X030681Y005986D02*
X030604Y006139D01*
X028765Y004733D02*
X028688Y004810D01*
X028611Y004810D01*
X028535Y004733D01*
X028535Y004657D01*
X028535Y004733D02*
X028458Y004810D01*
X028381Y004810D01*
X028304Y004733D01*
X028304Y004580D01*
X028381Y004503D01*
X028381Y004350D02*
X028688Y004043D01*
X028765Y004120D01*
X028765Y004273D01*
X028688Y004350D01*
X028381Y004350D01*
X028304Y004273D01*
X028304Y004120D01*
X028381Y004043D01*
X028688Y004043D01*
X028688Y003889D02*
X028765Y003813D01*
X028765Y003659D01*
X028688Y003582D01*
X028688Y003429D02*
X028765Y003352D01*
X028765Y003199D01*
X028688Y003122D01*
X028381Y003122D01*
X028304Y003199D01*
X028304Y003352D01*
X028381Y003429D01*
X028381Y003582D02*
X028304Y003659D01*
X028304Y003813D01*
X028381Y003889D01*
X028458Y003889D01*
X028535Y003813D01*
X028611Y003889D01*
X028688Y003889D01*
X028535Y003813D02*
X028535Y003736D01*
X028688Y004503D02*
X028765Y004580D01*
X028765Y004733D01*
X026015Y004685D02*
X026015Y004378D01*
X026015Y004532D02*
X025554Y004532D01*
X025708Y004378D01*
X025631Y004225D02*
X025938Y003918D01*
X026015Y003995D01*
X026015Y004148D01*
X025938Y004225D01*
X025631Y004225D01*
X025554Y004148D01*
X025554Y003995D01*
X025631Y003918D01*
X025938Y003918D01*
X025938Y003764D02*
X025861Y003764D01*
X025785Y003688D01*
X025785Y003611D01*
X025785Y003688D02*
X025708Y003764D01*
X025631Y003764D01*
X025554Y003688D01*
X025554Y003534D01*
X025631Y003457D01*
X025631Y003304D02*
X025554Y003227D01*
X025554Y003074D01*
X025631Y002997D01*
X025938Y002997D01*
X026015Y003074D01*
X026015Y003227D01*
X025938Y003304D01*
X025938Y003457D02*
X026015Y003534D01*
X026015Y003688D01*
X025938Y003764D01*
X024515Y003688D02*
X024515Y003534D01*
X024438Y003457D01*
X024438Y003304D02*
X024515Y003227D01*
X024515Y003074D01*
X024438Y002997D01*
X024131Y002997D01*
X024054Y003074D01*
X024054Y003227D01*
X024131Y003304D01*
X024131Y003457D02*
X024054Y003534D01*
X024054Y003688D01*
X024131Y003764D01*
X024208Y003764D01*
X024285Y003688D01*
X024361Y003764D01*
X024438Y003764D01*
X024515Y003688D01*
X024285Y003688D02*
X024285Y003611D01*
X024438Y003918D02*
X024131Y003918D01*
X024054Y003995D01*
X024054Y004148D01*
X024131Y004225D01*
X024438Y003918D01*
X024515Y003995D01*
X024515Y004148D01*
X024438Y004225D01*
X024131Y004225D01*
X024285Y004378D02*
X024285Y004685D01*
X024515Y004608D02*
X024054Y004608D01*
X024285Y004378D01*
X023065Y004185D02*
X023065Y003878D01*
X023065Y003725D02*
X023065Y003418D01*
X023065Y003571D02*
X022604Y003571D01*
X022758Y003418D01*
X022835Y003264D02*
X022911Y003188D01*
X022911Y002957D01*
X023065Y002957D02*
X022604Y002957D01*
X022604Y003188D01*
X022681Y003264D01*
X022835Y003264D01*
X022911Y003111D02*
X023065Y003264D01*
X022758Y003878D02*
X022604Y004032D01*
X023065Y004032D01*
X021565Y004185D02*
X021565Y003878D01*
X021258Y004185D01*
X021181Y004185D01*
X021104Y004108D01*
X021104Y003955D01*
X021181Y003878D01*
X021104Y003571D02*
X021565Y003571D01*
X021565Y003418D02*
X021565Y003725D01*
X021258Y003418D02*
X021104Y003571D01*
X021181Y003264D02*
X021335Y003264D01*
X021411Y003188D01*
X021411Y002957D01*
X021565Y002957D02*
X021104Y002957D01*
X021104Y003188D01*
X021181Y003264D01*
X021411Y003111D02*
X021565Y003264D01*
X020065Y003264D02*
X019911Y003111D01*
X019911Y003188D02*
X019911Y002957D01*
X020065Y002957D02*
X019604Y002957D01*
X019604Y003188D01*
X019681Y003264D01*
X019835Y003264D01*
X019911Y003188D01*
X019758Y003418D02*
X019604Y003571D01*
X020065Y003571D01*
X020065Y003418D02*
X020065Y003725D01*
X019988Y003878D02*
X020065Y003955D01*
X020065Y004108D01*
X019988Y004185D01*
X019911Y004185D01*
X019835Y004108D01*
X019835Y004032D01*
X019835Y004108D02*
X019758Y004185D01*
X019681Y004185D01*
X019604Y004108D01*
X019604Y003955D01*
X019681Y003878D01*
X020955Y004489D02*
X021315Y004489D01*
X021315Y004729D01*
X021315Y004857D02*
X020955Y004857D01*
X020955Y005097D01*
X020955Y005225D02*
X020955Y005405D01*
X021015Y005465D01*
X021255Y005465D01*
X021315Y005405D01*
X021315Y005225D01*
X020955Y005225D01*
X021015Y005594D02*
X020955Y005654D01*
X020955Y005774D01*
X021015Y005834D01*
X021075Y005834D01*
X021135Y005774D01*
X021195Y005834D01*
X021255Y005834D01*
X021315Y005774D01*
X021315Y005654D01*
X021255Y005594D01*
X021135Y005714D02*
X021135Y005774D01*
X021315Y005097D02*
X021315Y004857D01*
X021135Y004857D02*
X021135Y004977D01*
X021781Y007889D02*
X022088Y007889D01*
X022165Y007965D01*
X022165Y008119D01*
X022088Y008196D01*
X022088Y008349D02*
X022165Y008426D01*
X022165Y008579D01*
X022088Y008656D01*
X022011Y008656D01*
X021935Y008579D01*
X021935Y008502D01*
X021935Y008579D02*
X021858Y008656D01*
X021781Y008656D01*
X021704Y008579D01*
X021704Y008426D01*
X021781Y008349D01*
X021781Y008196D02*
X021704Y008119D01*
X021704Y007965D01*
X021781Y007889D01*
X021781Y008809D02*
X021704Y008886D01*
X021704Y009040D01*
X021781Y009116D01*
X022088Y008809D01*
X022165Y008886D01*
X022165Y009040D01*
X022088Y009116D01*
X021781Y009116D01*
X021935Y009270D02*
X021935Y009500D01*
X022011Y009577D01*
X022088Y009577D01*
X022165Y009500D01*
X022165Y009347D01*
X022088Y009270D01*
X021935Y009270D01*
X021781Y009423D01*
X021704Y009577D01*
X021781Y008809D02*
X022088Y008809D01*
X019765Y008679D02*
X019765Y008526D01*
X019688Y008449D01*
X019688Y008296D02*
X019765Y008219D01*
X019765Y008065D01*
X019688Y007989D01*
X019381Y007989D01*
X019304Y008065D01*
X019304Y008219D01*
X019381Y008296D01*
X019381Y008449D02*
X019304Y008526D01*
X019304Y008679D01*
X019381Y008756D01*
X019458Y008756D01*
X019535Y008679D01*
X019611Y008756D01*
X019688Y008756D01*
X019765Y008679D01*
X019535Y008679D02*
X019535Y008602D01*
X019688Y008909D02*
X019381Y008909D01*
X019304Y008986D01*
X019304Y009140D01*
X019381Y009216D01*
X019688Y008909D01*
X019765Y008986D01*
X019765Y009140D01*
X019688Y009216D01*
X019381Y009216D01*
X019304Y009370D02*
X019304Y009677D01*
X019381Y009677D01*
X019688Y009370D01*
X019765Y009370D01*
X021232Y012539D02*
X021385Y012539D01*
X021462Y012615D01*
X021615Y012615D02*
X021692Y012539D01*
X021845Y012539D01*
X021922Y012615D01*
X021922Y012692D01*
X021845Y012769D01*
X021769Y012769D01*
X021845Y012769D02*
X021922Y012846D01*
X021922Y012922D01*
X021845Y012999D01*
X021692Y012999D01*
X021615Y012922D01*
X021462Y012922D02*
X021385Y012999D01*
X021232Y012999D01*
X021155Y012922D01*
X021155Y012615D01*
X021232Y012539D01*
X022076Y012539D02*
X022383Y012539D01*
X022536Y012539D02*
X022843Y012539D01*
X022689Y012539D02*
X022689Y012999D01*
X022536Y012846D01*
X022229Y012999D02*
X022229Y012539D01*
X022076Y012846D02*
X022229Y012999D01*
X023405Y012922D02*
X023405Y012615D01*
X023482Y012539D01*
X023635Y012539D01*
X023712Y012615D01*
X023865Y012615D02*
X023942Y012539D01*
X024095Y012539D01*
X024172Y012615D01*
X024172Y012692D01*
X024095Y012769D01*
X024019Y012769D01*
X024095Y012769D02*
X024172Y012846D01*
X024172Y012922D01*
X024095Y012999D01*
X023942Y012999D01*
X023865Y012922D01*
X023712Y012922D02*
X023635Y012999D01*
X023482Y012999D01*
X023405Y012922D01*
X024326Y012846D02*
X024479Y012999D01*
X024479Y012539D01*
X024326Y012539D02*
X024633Y012539D01*
X024786Y012615D02*
X024863Y012539D01*
X025016Y012539D01*
X025093Y012615D01*
X025093Y012922D01*
X024786Y012615D01*
X024786Y012922D01*
X024863Y012999D01*
X025016Y012999D01*
X025093Y012922D01*
X028755Y011072D02*
X028832Y011149D01*
X028985Y011149D01*
X029062Y011072D01*
X029215Y011072D02*
X029292Y011149D01*
X029445Y011149D01*
X029522Y011072D01*
X029522Y010996D01*
X029445Y010919D01*
X029522Y010842D01*
X029522Y010765D01*
X029445Y010689D01*
X029292Y010689D01*
X029215Y010765D01*
X029062Y010765D02*
X028985Y010689D01*
X028832Y010689D01*
X028755Y010765D01*
X028755Y011072D01*
X028516Y010499D02*
X028363Y010499D01*
X028286Y010422D01*
X028286Y010346D01*
X028363Y010269D01*
X028593Y010269D01*
X028593Y010422D02*
X028516Y010499D01*
X028593Y010422D02*
X028593Y010115D01*
X028516Y010039D01*
X028363Y010039D01*
X028286Y010115D01*
X028133Y010115D02*
X028056Y010039D01*
X027902Y010039D01*
X027826Y010115D01*
X028133Y010422D01*
X028133Y010115D01*
X028133Y010422D02*
X028056Y010499D01*
X027902Y010499D01*
X027826Y010422D01*
X027826Y010115D01*
X027672Y010115D02*
X027595Y010039D01*
X027442Y010039D01*
X027365Y010115D01*
X027212Y010115D02*
X027135Y010039D01*
X026982Y010039D01*
X026905Y010115D01*
X026905Y010422D01*
X026982Y010499D01*
X027135Y010499D01*
X027212Y010422D01*
X027365Y010422D02*
X027442Y010499D01*
X027595Y010499D01*
X027672Y010422D01*
X027672Y010346D01*
X027595Y010269D01*
X027672Y010192D01*
X027672Y010115D01*
X027595Y010269D02*
X027519Y010269D01*
X029404Y010077D02*
X029404Y009770D01*
X029635Y009770D01*
X029558Y009923D01*
X029558Y010000D01*
X029635Y010077D01*
X029788Y010077D01*
X029865Y010000D01*
X029865Y009847D01*
X029788Y009770D01*
X029788Y009616D02*
X029865Y009540D01*
X029865Y009386D01*
X029788Y009309D01*
X029481Y009616D01*
X029788Y009616D01*
X029481Y009616D02*
X029404Y009540D01*
X029404Y009386D01*
X029481Y009309D01*
X029788Y009309D01*
X029788Y009156D02*
X029711Y009156D01*
X029635Y009079D01*
X029635Y008849D01*
X029788Y008849D01*
X029865Y008926D01*
X029865Y009079D01*
X029788Y009156D01*
X029481Y009002D02*
X029635Y008849D01*
X029635Y008696D02*
X029711Y008619D01*
X029711Y008389D01*
X029711Y008542D02*
X029865Y008696D01*
X029635Y008696D02*
X029481Y008696D01*
X029404Y008619D01*
X029404Y008389D01*
X029865Y008389D01*
X029481Y009002D02*
X029404Y009156D01*
X029752Y010689D02*
X029676Y010765D01*
X029983Y011072D01*
X029983Y010765D01*
X029906Y010689D01*
X029752Y010689D01*
X029676Y010765D02*
X029676Y011072D01*
X029752Y011149D01*
X029906Y011149D01*
X029983Y011072D01*
X030136Y011072D02*
X030213Y011149D01*
X030366Y011149D01*
X030443Y011072D01*
X030443Y010996D01*
X030366Y010919D01*
X030213Y010919D01*
X030136Y010996D01*
X030136Y011072D01*
X030213Y010919D02*
X030136Y010842D01*
X030136Y010765D01*
X030213Y010689D01*
X030366Y010689D01*
X030443Y010765D01*
X030443Y010842D01*
X030366Y010919D01*
X029445Y010919D02*
X029369Y010919D01*
X024115Y014839D02*
X023170Y014839D01*
X022894Y015114D01*
X023032Y015824D02*
X023062Y015859D01*
X023094Y015891D01*
X023129Y015921D01*
X023167Y015948D01*
X023206Y015972D01*
X023247Y015992D01*
X023290Y016010D01*
X023334Y016023D01*
X023379Y016033D01*
X023424Y016040D01*
X023470Y016043D01*
X023516Y016042D01*
X023562Y016038D01*
X023607Y016029D01*
X023652Y016018D01*
X023695Y016002D01*
X023737Y015984D01*
X023778Y015961D01*
X023816Y015936D01*
X023853Y015908D01*
X023887Y015877D01*
X023918Y015843D01*
X024115Y015843D02*
X024115Y016099D01*
X023170Y016099D01*
X022894Y015823D01*
X023052Y015095D02*
X023084Y015061D01*
X023119Y015030D01*
X023156Y015001D01*
X023195Y014976D01*
X023236Y014954D01*
X023279Y014935D01*
X023324Y014920D01*
X023369Y014909D01*
X023415Y014901D01*
X023462Y014897D01*
X023508Y014897D01*
X023555Y014901D01*
X023601Y014909D01*
X023646Y014920D01*
X023691Y014935D01*
X023734Y014954D01*
X023775Y014976D01*
X023814Y015001D01*
X023851Y015030D01*
X023886Y015061D01*
X023918Y015095D01*
X024115Y015095D02*
X024115Y014839D01*
X021575Y015114D02*
X021300Y014839D01*
X020355Y014839D01*
X020355Y015095D01*
X020552Y015843D02*
X020584Y015877D01*
X020619Y015908D01*
X020656Y015937D01*
X020695Y015962D01*
X020736Y015984D01*
X020779Y016003D01*
X020824Y016018D01*
X020869Y016029D01*
X020915Y016037D01*
X020962Y016041D01*
X021008Y016041D01*
X021055Y016037D01*
X021101Y016029D01*
X021146Y016018D01*
X021191Y016003D01*
X021234Y015984D01*
X021275Y015962D01*
X021314Y015937D01*
X021351Y015908D01*
X021386Y015877D01*
X021418Y015843D01*
X021575Y015823D02*
X021300Y016099D01*
X020355Y016099D01*
X020355Y015843D01*
X020552Y015095D02*
X020583Y015061D01*
X020617Y015030D01*
X020654Y015002D01*
X020692Y014977D01*
X020733Y014954D01*
X020775Y014936D01*
X020818Y014920D01*
X020863Y014909D01*
X020908Y014900D01*
X020954Y014896D01*
X021000Y014895D01*
X021046Y014898D01*
X021091Y014905D01*
X021136Y014915D01*
X021180Y014928D01*
X021223Y014946D01*
X021264Y014966D01*
X021303Y014990D01*
X021341Y015017D01*
X021376Y015047D01*
X021408Y015079D01*
X021438Y015114D01*
X017624Y016664D02*
X017317Y016664D01*
X017624Y016971D01*
X017624Y017047D01*
X017547Y017124D01*
X017394Y017124D01*
X017317Y017047D01*
X017164Y017124D02*
X016857Y017124D01*
X017010Y017124D02*
X017010Y016664D01*
X016703Y016741D02*
X016703Y017047D01*
X016627Y017124D01*
X016473Y017124D01*
X016396Y017047D01*
X016396Y016741D01*
X016473Y016664D01*
X016627Y016664D01*
X016703Y016741D01*
X016243Y016894D02*
X016243Y017047D01*
X016166Y017124D01*
X015936Y017124D01*
X015936Y016664D01*
X015936Y016817D02*
X016166Y016817D01*
X016243Y016894D01*
X013690Y016233D02*
X013690Y016080D01*
X013613Y016003D01*
X013460Y016003D02*
X013383Y016157D01*
X013383Y016233D01*
X013460Y016310D01*
X013613Y016310D01*
X013690Y016233D01*
X013460Y016003D02*
X013229Y016003D01*
X013229Y016310D01*
X012565Y016233D02*
X012104Y016233D01*
X012335Y016003D01*
X012335Y016310D01*
X012335Y015850D02*
X012181Y015850D01*
X012104Y015773D01*
X012104Y015543D01*
X012565Y015543D01*
X012411Y015543D02*
X012411Y015773D01*
X012335Y015850D01*
X012411Y015696D02*
X012565Y015850D01*
X013229Y015773D02*
X013229Y015543D01*
X013690Y015543D01*
X013536Y015543D02*
X013536Y015773D01*
X013460Y015850D01*
X013306Y015850D01*
X013229Y015773D01*
X013536Y015696D02*
X013690Y015850D01*
X007624Y016664D02*
X007317Y016664D01*
X007471Y016664D02*
X007471Y017124D01*
X007317Y016971D01*
X007164Y017124D02*
X006857Y017124D01*
X007010Y017124D02*
X007010Y016664D01*
X006703Y016741D02*
X006703Y017047D01*
X006627Y017124D01*
X006473Y017124D01*
X006396Y017047D01*
X006396Y016741D01*
X006473Y016664D01*
X006627Y016664D01*
X006703Y016741D01*
X006243Y016894D02*
X006243Y017047D01*
X006166Y017124D01*
X005936Y017124D01*
X005936Y016664D01*
X005936Y016817D02*
X006166Y016817D01*
X006243Y016894D01*
X025936Y016817D02*
X026166Y016817D01*
X026243Y016894D01*
X026243Y017047D01*
X026166Y017124D01*
X025936Y017124D01*
X025936Y016664D01*
X026396Y016741D02*
X026473Y016664D01*
X026627Y016664D01*
X026703Y016741D01*
X026703Y017047D01*
X026627Y017124D01*
X026473Y017124D01*
X026396Y017047D01*
X026396Y016741D01*
X026857Y017124D02*
X027164Y017124D01*
X027010Y017124D02*
X027010Y016664D01*
X027317Y016741D02*
X027394Y016664D01*
X027547Y016664D01*
X027624Y016741D01*
X027624Y016817D01*
X027547Y016894D01*
X027471Y016894D01*
X027547Y016894D02*
X027624Y016971D01*
X027624Y017047D01*
X027547Y017124D01*
X027394Y017124D01*
X027317Y017047D01*
X035936Y017124D02*
X035936Y016664D01*
X035936Y016817D02*
X036166Y016817D01*
X036243Y016894D01*
X036243Y017047D01*
X036166Y017124D01*
X035936Y017124D01*
X036396Y017047D02*
X036396Y016741D01*
X036473Y016664D01*
X036627Y016664D01*
X036703Y016741D01*
X036703Y017047D01*
X036627Y017124D01*
X036473Y017124D01*
X036396Y017047D01*
X036857Y017124D02*
X037164Y017124D01*
X037010Y017124D02*
X037010Y016664D01*
X037317Y016894D02*
X037624Y016894D01*
X037547Y016664D02*
X037547Y017124D01*
X037317Y016894D01*
X030665Y002585D02*
X030665Y002278D01*
X030358Y002585D01*
X030281Y002585D01*
X030204Y002508D01*
X030204Y002355D01*
X030281Y002278D01*
X030281Y002125D02*
X030588Y001818D01*
X030665Y001895D01*
X030665Y002048D01*
X030588Y002125D01*
X030281Y002125D01*
X030204Y002048D01*
X030204Y001895D01*
X030281Y001818D01*
X030588Y001818D01*
X030588Y001664D02*
X030511Y001664D01*
X030435Y001588D01*
X030435Y001511D01*
X030435Y001588D02*
X030358Y001664D01*
X030281Y001664D01*
X030204Y001588D01*
X030204Y001434D01*
X030281Y001357D01*
X030281Y001204D02*
X030204Y001127D01*
X030204Y000974D01*
X030281Y000897D01*
X030588Y000897D01*
X030665Y000974D01*
X030665Y001127D01*
X030588Y001204D01*
X030588Y001357D02*
X030665Y001434D01*
X030665Y001588D01*
X030588Y001664D01*
X029015Y001608D02*
X029015Y001455D01*
X028938Y001378D01*
X029015Y001225D02*
X029015Y000918D01*
X029015Y001071D02*
X028554Y001071D01*
X028708Y000918D01*
X028631Y000764D02*
X028554Y000688D01*
X028554Y000534D01*
X028631Y000457D01*
X028938Y000457D01*
X029015Y000534D01*
X029015Y000688D01*
X028938Y000764D01*
X028315Y000918D02*
X027854Y000918D01*
X027854Y001148D01*
X027931Y001225D01*
X028085Y001225D01*
X028161Y001148D01*
X028161Y000918D01*
X028161Y001071D02*
X028315Y001225D01*
X028238Y001378D02*
X028315Y001455D01*
X028315Y001608D01*
X028238Y001685D01*
X028161Y001685D01*
X028085Y001608D01*
X028085Y001378D01*
X028238Y001378D01*
X028085Y001378D02*
X027931Y001532D01*
X027854Y001685D01*
X028554Y001608D02*
X028554Y001455D01*
X028631Y001378D01*
X028785Y001532D02*
X028785Y001608D01*
X028861Y001685D01*
X028938Y001685D01*
X029015Y001608D01*
X028785Y001608D02*
X028708Y001685D01*
X028631Y001685D01*
X028554Y001608D01*
X026693Y001072D02*
X026386Y000765D01*
X026463Y000689D01*
X026616Y000689D01*
X026693Y000765D01*
X026693Y001072D01*
X026616Y001149D01*
X026463Y001149D01*
X026386Y001072D01*
X026386Y000765D01*
X026233Y000765D02*
X026233Y001072D01*
X025926Y000765D01*
X026002Y000689D01*
X026156Y000689D01*
X026233Y000765D01*
X026233Y001072D02*
X026156Y001149D01*
X026002Y001149D01*
X025926Y001072D01*
X025926Y000765D01*
X025772Y000765D02*
X025695Y000689D01*
X025542Y000689D01*
X025465Y000765D01*
X025312Y000765D02*
X025235Y000689D01*
X025082Y000689D01*
X025005Y000765D01*
X025005Y001072D01*
X025082Y001149D01*
X025235Y001149D01*
X025312Y001072D01*
X025465Y001072D02*
X025542Y001149D01*
X025695Y001149D01*
X025772Y001072D01*
X025772Y000996D01*
X025695Y000919D01*
X025772Y000842D01*
X025772Y000765D01*
X025695Y000919D02*
X025619Y000919D01*
X024693Y000919D02*
X024693Y000765D01*
X024616Y000689D01*
X024463Y000689D01*
X024386Y000765D01*
X024233Y000765D02*
X024156Y000689D01*
X024002Y000689D01*
X023926Y000765D01*
X024233Y001072D01*
X024233Y000765D01*
X024386Y000919D02*
X024539Y000996D01*
X024616Y000996D01*
X024693Y000919D01*
X024693Y001149D02*
X024386Y001149D01*
X024386Y000919D01*
X024233Y001072D02*
X024156Y001149D01*
X024002Y001149D01*
X023926Y001072D01*
X023926Y000765D01*
X023772Y000765D02*
X023695Y000689D01*
X023542Y000689D01*
X023465Y000765D01*
X023312Y000765D02*
X023235Y000689D01*
X023082Y000689D01*
X023005Y000765D01*
X023005Y001072D01*
X023082Y001149D01*
X023235Y001149D01*
X023312Y001072D01*
X023465Y001072D02*
X023542Y001149D01*
X023695Y001149D01*
X023772Y001072D01*
X023772Y000996D01*
X023695Y000919D01*
X023772Y000842D01*
X023772Y000765D01*
X023695Y000919D02*
X023619Y000919D01*
D19*
X005535Y005369D02*
X005535Y008069D01*
X005235Y008069D02*
X005235Y005369D01*
X005234Y005331D01*
X005229Y005294D01*
X005222Y005257D01*
X005213Y005221D01*
X005200Y005185D01*
X005185Y005151D01*
X005535Y005369D02*
X005533Y005313D01*
X005527Y005258D01*
X005518Y005203D01*
X005504Y005149D01*
X005487Y005096D01*
X005466Y005045D01*
X005442Y004995D01*
X005414Y004947D01*
X005383Y004900D01*
X005349Y004857D01*
X005312Y004815D01*
X005272Y004776D01*
X005230Y004740D01*
X005185Y004708D01*
X004285Y005151D02*
X004270Y005185D01*
X004257Y005221D01*
X004248Y005257D01*
X004241Y005294D01*
X004236Y005331D01*
X004235Y005369D01*
X004235Y008069D01*
X003935Y008069D02*
X003935Y005369D01*
X003937Y005313D01*
X003943Y005258D01*
X003952Y005203D01*
X003966Y005149D01*
X003983Y005096D01*
X004004Y005045D01*
X004028Y004995D01*
X004056Y004947D01*
X004087Y004900D01*
X004121Y004856D01*
X004158Y004815D01*
X004198Y004776D01*
X004240Y004740D01*
X004285Y004708D01*
X004735Y006319D02*
X004735Y006469D01*
X004735Y006969D02*
X004735Y007119D01*
X005535Y008069D02*
X005533Y008125D01*
X005527Y008180D01*
X005518Y008235D01*
X005504Y008289D01*
X005487Y008342D01*
X005466Y008393D01*
X005442Y008443D01*
X005414Y008491D01*
X005383Y008538D01*
X005349Y008582D01*
X005312Y008623D01*
X005272Y008662D01*
X005230Y008698D01*
X005185Y008730D01*
X004285Y008730D02*
X004240Y008698D01*
X004198Y008662D01*
X004158Y008623D01*
X004121Y008581D01*
X004087Y008538D01*
X004056Y008491D01*
X004028Y008443D01*
X004004Y008393D01*
X003983Y008342D01*
X003966Y008289D01*
X003952Y008235D01*
X003943Y008180D01*
X003937Y008125D01*
X003935Y008069D01*
X004235Y008069D02*
X004236Y008107D01*
X004241Y008144D01*
X004248Y008181D01*
X004257Y008217D01*
X004270Y008253D01*
X004285Y008287D01*
X005185Y008287D02*
X005200Y008253D01*
X005213Y008217D01*
X005222Y008181D01*
X005229Y008144D01*
X005234Y008107D01*
X005235Y008069D01*
D20*
X026181Y007420D02*
X026181Y006894D01*
X026286Y006789D01*
X026496Y006789D01*
X026601Y006894D01*
X026601Y007420D01*
X026825Y007315D02*
X026930Y007420D01*
X027141Y007420D01*
X027246Y007315D01*
X027246Y007209D01*
X026825Y006789D01*
X027246Y006789D01*
D21*
X013033Y018077D02*
X013035Y018102D01*
X013041Y018126D01*
X013050Y018148D01*
X013063Y018169D01*
X013079Y018188D01*
X013098Y018204D01*
X013119Y018217D01*
X013141Y018226D01*
X013165Y018232D01*
X013190Y018234D01*
X013215Y018232D01*
X013239Y018226D01*
X013261Y018217D01*
X013282Y018204D01*
X013301Y018188D01*
X013317Y018169D01*
X013330Y018148D01*
X013339Y018126D01*
X013345Y018102D01*
X013347Y018077D01*
X013345Y018052D01*
X013339Y018028D01*
X013330Y018006D01*
X013317Y017985D01*
X013301Y017966D01*
X013282Y017950D01*
X013261Y017937D01*
X013239Y017928D01*
X013215Y017922D01*
X013190Y017920D01*
X013165Y017922D01*
X013141Y017928D01*
X013119Y017937D01*
X013098Y017950D01*
X013079Y017966D01*
X013063Y017985D01*
X013050Y018006D01*
X013041Y018028D01*
X013035Y018052D01*
X013033Y018077D01*
X011123Y018077D02*
X011125Y018102D01*
X011131Y018126D01*
X011140Y018148D01*
X011153Y018169D01*
X011169Y018188D01*
X011188Y018204D01*
X011209Y018217D01*
X011231Y018226D01*
X011255Y018232D01*
X011280Y018234D01*
X011305Y018232D01*
X011329Y018226D01*
X011351Y018217D01*
X011372Y018204D01*
X011391Y018188D01*
X011407Y018169D01*
X011420Y018148D01*
X011429Y018126D01*
X011435Y018102D01*
X011437Y018077D01*
X011435Y018052D01*
X011429Y018028D01*
X011420Y018006D01*
X011407Y017985D01*
X011391Y017966D01*
X011372Y017950D01*
X011351Y017937D01*
X011329Y017928D01*
X011305Y017922D01*
X011280Y017920D01*
X011255Y017922D01*
X011231Y017928D01*
X011209Y017937D01*
X011188Y017950D01*
X011169Y017966D01*
X011153Y017985D01*
X011140Y018006D01*
X011131Y018028D01*
X011125Y018052D01*
X011123Y018077D01*
X010542Y019219D02*
X010544Y019252D01*
X010550Y019284D01*
X010559Y019315D01*
X010572Y019345D01*
X010589Y019373D01*
X010609Y019399D01*
X010632Y019423D01*
X010657Y019443D01*
X010685Y019461D01*
X010714Y019475D01*
X010745Y019485D01*
X010777Y019492D01*
X010810Y019495D01*
X010843Y019494D01*
X010875Y019489D01*
X010906Y019480D01*
X010937Y019468D01*
X010965Y019452D01*
X010992Y019433D01*
X011016Y019411D01*
X011037Y019386D01*
X011056Y019359D01*
X011071Y019330D01*
X011082Y019300D01*
X011090Y019268D01*
X011094Y019235D01*
X011094Y019203D01*
X011090Y019170D01*
X011082Y019138D01*
X011071Y019108D01*
X011056Y019079D01*
X011037Y019052D01*
X011016Y019027D01*
X010992Y019005D01*
X010965Y018986D01*
X010937Y018970D01*
X010906Y018958D01*
X010875Y018949D01*
X010843Y018944D01*
X010810Y018943D01*
X010777Y018946D01*
X010745Y018953D01*
X010714Y018963D01*
X010685Y018977D01*
X010657Y018995D01*
X010632Y019015D01*
X010609Y019039D01*
X010589Y019065D01*
X010572Y019093D01*
X010559Y019123D01*
X010550Y019154D01*
X010544Y019186D01*
X010542Y019219D01*
X013376Y019219D02*
X013378Y019252D01*
X013384Y019284D01*
X013393Y019315D01*
X013406Y019345D01*
X013423Y019373D01*
X013443Y019399D01*
X013466Y019423D01*
X013491Y019443D01*
X013519Y019461D01*
X013548Y019475D01*
X013579Y019485D01*
X013611Y019492D01*
X013644Y019495D01*
X013677Y019494D01*
X013709Y019489D01*
X013740Y019480D01*
X013771Y019468D01*
X013799Y019452D01*
X013826Y019433D01*
X013850Y019411D01*
X013871Y019386D01*
X013890Y019359D01*
X013905Y019330D01*
X013916Y019300D01*
X013924Y019268D01*
X013928Y019235D01*
X013928Y019203D01*
X013924Y019170D01*
X013916Y019138D01*
X013905Y019108D01*
X013890Y019079D01*
X013871Y019052D01*
X013850Y019027D01*
X013826Y019005D01*
X013799Y018986D01*
X013771Y018970D01*
X013740Y018958D01*
X013709Y018949D01*
X013677Y018944D01*
X013644Y018943D01*
X013611Y018946D01*
X013579Y018953D01*
X013548Y018963D01*
X013519Y018977D01*
X013491Y018995D01*
X013466Y019015D01*
X013443Y019039D01*
X013423Y019065D01*
X013406Y019093D01*
X013393Y019123D01*
X013384Y019154D01*
X013378Y019186D01*
X013376Y019219D01*
M02*
