G75*
G70*
%OFA0B0*%
%FSLAX25Y25*%
%IPPOS*%
%LPD*%
%AMOC8*
5,1,8,0,0,1.08239X$1,22.5*
%
%ADD10C,0.07000*%
%ADD103R,0.07800X0.07800*%
%ADD108C,0.13400*%
%ADD11C,0.10400*%
%ADD110OC8,0.11470*%
%ADD13C,0.05600*%
%ADD14C,0.05940*%
%ADD21OC8,0.07800*%
%ADD22R,0.06400X0.06400*%
%ADD29C,0.12600*%
%ADD44OC8,0.05600*%
%ADD46OC8,0.06700*%
%ADD48C,0.08000*%
%ADD54C,0.05140*%
%ADD56R,0.07490X0.07490*%
%ADD61C,0.03570*%
%ADD63C,0.06700*%
%ADD77C,0.15400*%
%ADD79C,0.07800*%
%ADD83C,0.13840*%
%ADD96C,0.08200*%
%ADD98C,0.06400*%
X0010000Y0010000D02*
G75*
%LPD*%
D48*
X0053150Y0251730D03*
X0063000Y0251730D03*
X0072840Y0251730D03*
X0153150Y0251730D03*
X0163000Y0251730D03*
X0172840Y0251730D03*
X0253150Y0251730D03*
X0263000Y0251730D03*
X0272840Y0251730D03*
X0353150Y0251730D03*
X0363000Y0251730D03*
X0372840Y0251730D03*
D110*
X0380710Y0281250D03*
X0345280Y0281250D03*
X0280710Y0281250D03*
X0245280Y0281250D03*
X0180710Y0281250D03*
X0145280Y0281250D03*
X0080710Y0281250D03*
X0045280Y0281250D03*
D79*
X0101750Y0280000D03*
X0111750Y0280000D03*
X0111750Y0290000D03*
X0111750Y0300000D03*
X0101750Y0290000D03*
X0101750Y0270000D03*
X0111750Y0270000D03*
X0101750Y0260000D03*
X0101750Y0250000D03*
X0101750Y0240000D03*
X0101750Y0230000D03*
X0101750Y0220000D03*
X0101750Y0210000D03*
X0101750Y0200000D03*
X0101750Y0190000D03*
X0101750Y0180000D03*
X0101750Y0170000D03*
X0101750Y0160000D03*
X0101750Y0150000D03*
X0101750Y0140000D03*
X0101750Y0130000D03*
X0101750Y0120000D03*
X0101750Y0110000D03*
X0111750Y0100000D03*
X0121750Y0100000D03*
X0131750Y0100000D03*
X0171750Y0100000D03*
X0181750Y0100000D03*
X0191750Y0100000D03*
X0201750Y0100000D03*
X0211750Y0100000D03*
X0221750Y0100000D03*
X0231750Y0100000D03*
X0241750Y0100000D03*
X0251750Y0100000D03*
X0271750Y0100000D03*
X0281750Y0100000D03*
X0291750Y0100000D03*
X0301750Y0100000D03*
X0311750Y0100000D03*
X0311750Y0210000D03*
X0311750Y0220000D03*
X0311750Y0230000D03*
X0311750Y0240000D03*
X0311750Y0250000D03*
X0311750Y0260000D03*
X0311750Y0270000D03*
X0311750Y0280000D03*
X0311750Y0290000D03*
X0311750Y0300000D03*
X0311750Y0310000D03*
X0311750Y0320000D03*
X0409250Y0291250D03*
X0409250Y0281250D03*
X0409250Y0271250D03*
X0176750Y0315000D03*
X0156750Y0315000D03*
D96*
X0194250Y0320000D03*
X0194250Y0280000D03*
X0091750Y0100000D03*
X0091750Y0060000D03*
D44*
X0066750Y0046250D03*
X0058000Y0046250D03*
X0058000Y0016250D03*
X0066750Y0016250D03*
X0138000Y0111250D03*
X0168000Y0111250D03*
X0198000Y0111250D03*
X0228000Y0111250D03*
X0228000Y0141250D03*
X0198000Y0141250D03*
X0188000Y0156250D03*
X0168000Y0141250D03*
X0158000Y0156250D03*
X0148000Y0156250D03*
X0148000Y0166250D03*
X0148000Y0176250D03*
X0148000Y0186250D03*
X0168000Y0201250D03*
X0188000Y0201250D03*
X0148000Y0206250D03*
X0148000Y0216250D03*
X0148000Y0226250D03*
X0148000Y0236250D03*
X0118000Y0236250D03*
X0118000Y0226250D03*
X0118000Y0216250D03*
X0118000Y0206250D03*
X0118000Y0186250D03*
X0118000Y0176250D03*
X0118000Y0166250D03*
X0118000Y0156250D03*
X0138000Y0141250D03*
X0263000Y0141250D03*
X0263000Y0151250D03*
X0263000Y0161250D03*
X0263000Y0171250D03*
X0263000Y0181250D03*
X0293000Y0181250D03*
X0293000Y0171250D03*
X0293000Y0161250D03*
X0293000Y0151250D03*
X0293000Y0141250D03*
X0313000Y0078750D03*
X0318000Y0071250D03*
X0308000Y0071250D03*
X0313000Y0053750D03*
X0318000Y0046250D03*
X0308000Y0046250D03*
X0298000Y0026250D03*
X0298000Y0016250D03*
X0328000Y0016250D03*
X0328000Y0026250D03*
X0293000Y0211250D03*
X0293000Y0221250D03*
X0293000Y0231250D03*
X0283000Y0241250D03*
X0263000Y0241250D03*
X0263000Y0231250D03*
X0263000Y0221250D03*
X0263000Y0211250D03*
X0223000Y0256250D03*
X0203000Y0256250D03*
D77*
X0218000Y0286070D03*
X0236500Y0297880D03*
X0218000Y0309690D03*
D11*
X0359870Y0240940D03*
X0384560Y0240940D03*
X0409560Y0240940D03*
X0409560Y0176880D03*
X0409560Y0160940D03*
X0384560Y0160940D03*
X0384250Y0176880D03*
X0359870Y0176880D03*
X0359870Y0160940D03*
X0359870Y0096880D03*
X0359870Y0080940D03*
X0384560Y0080940D03*
X0384250Y0096880D03*
X0409560Y0096880D03*
X0409560Y0080940D03*
X0409560Y0016880D03*
X0384250Y0016880D03*
X0359870Y0016880D03*
X0066120Y0096570D03*
X0041430Y0096570D03*
X0016430Y0096570D03*
X0016430Y0160630D03*
X0016430Y0176570D03*
X0041430Y0176570D03*
X0041750Y0160630D03*
X0066120Y0160630D03*
X0066120Y0176570D03*
X0066120Y0240630D03*
X0041750Y0240630D03*
X0016430Y0240630D03*
D103*
X0101750Y0100000D03*
X0141750Y0100000D03*
D13*
X0183000Y0213650D02*
X0183000Y0218850D01*
X0193000Y0218850D02*
X0193000Y0213650D01*
X0203000Y0213650D02*
X0203000Y0218850D01*
X0213000Y0218850D02*
X0213000Y0213650D01*
X0223000Y0213650D02*
X0223000Y0218850D01*
X0233000Y0218850D02*
X0233000Y0213650D01*
X0243000Y0213650D02*
X0243000Y0218850D01*
X0243000Y0243650D02*
X0243000Y0248850D01*
X0233000Y0248850D02*
X0233000Y0243650D01*
X0223000Y0243650D02*
X0223000Y0248850D01*
X0213000Y0248850D02*
X0213000Y0243650D01*
X0203000Y0243650D02*
X0203000Y0248850D01*
X0193000Y0248850D02*
X0193000Y0243650D01*
X0183000Y0243650D02*
X0183000Y0248850D01*
X0298000Y0083850D02*
X0298000Y0078650D01*
X0298000Y0043850D02*
X0298000Y0038650D01*
D14*
X0228000Y0161250D03*
X0198000Y0161250D03*
X0198000Y0201250D03*
X0228000Y0201250D03*
D10*
X0045800Y0051170D03*
X0038000Y0051170D03*
X0038000Y0041330D03*
X0045800Y0041330D03*
D29*
X0027300Y0022550D03*
X0027300Y0069950D03*
D98*
X0114250Y0078250D02*
X0114250Y0084250D01*
X0124250Y0084250D02*
X0124250Y0078250D01*
X0134250Y0078250D02*
X0134250Y0084250D01*
D108*
X0124250Y0022250D03*
D46*
X0083000Y0041250D03*
X0063000Y0071250D03*
X0153000Y0116250D03*
X0153000Y0136250D03*
X0183000Y0136250D03*
X0183000Y0116250D03*
X0213000Y0116250D03*
X0213000Y0136250D03*
X0243000Y0136250D03*
X0253000Y0151250D03*
X0253000Y0171250D03*
X0263000Y0191250D03*
X0263000Y0201250D03*
X0283000Y0201250D03*
X0283000Y0191250D03*
X0313000Y0186250D03*
X0313000Y0158750D03*
X0313000Y0131250D03*
X0243000Y0116250D03*
X0158000Y0166250D03*
X0158000Y0186250D03*
X0138000Y0196250D03*
X0118000Y0196250D03*
X0158000Y0216250D03*
X0168000Y0216250D03*
X0168000Y0236250D03*
X0158000Y0236250D03*
D63*
X0313000Y0176250D03*
X0313000Y0148750D03*
X0313000Y0121250D03*
X0093000Y0041250D03*
X0073000Y0071250D03*
X0010000Y0345000D02*
G75*
%LPD*%
D48*
X0053150Y0586730D03*
X0063000Y0586730D03*
X0072840Y0586730D03*
X0153150Y0586730D03*
X0163000Y0586730D03*
X0172840Y0586730D03*
X0253150Y0586730D03*
X0263000Y0586730D03*
X0272840Y0586730D03*
X0353150Y0586730D03*
X0363000Y0586730D03*
X0372840Y0586730D03*
D110*
X0380710Y0616250D03*
X0345280Y0616250D03*
X0280710Y0616250D03*
X0245280Y0616250D03*
X0180710Y0616250D03*
X0145280Y0616250D03*
X0080710Y0616250D03*
X0045280Y0616250D03*
D79*
X0101750Y0615000D03*
X0111750Y0615000D03*
X0111750Y0625000D03*
X0111750Y0635000D03*
X0101750Y0625000D03*
X0101750Y0605000D03*
X0111750Y0605000D03*
X0101750Y0595000D03*
X0101750Y0585000D03*
X0101750Y0575000D03*
X0101750Y0565000D03*
X0101750Y0555000D03*
X0101750Y0545000D03*
X0101750Y0535000D03*
X0101750Y0525000D03*
X0101750Y0515000D03*
X0101750Y0505000D03*
X0101750Y0495000D03*
X0101750Y0485000D03*
X0101750Y0475000D03*
X0101750Y0465000D03*
X0101750Y0455000D03*
X0101750Y0445000D03*
X0111750Y0435000D03*
X0121750Y0435000D03*
X0131750Y0435000D03*
X0171750Y0435000D03*
X0181750Y0435000D03*
X0191750Y0435000D03*
X0201750Y0435000D03*
X0211750Y0435000D03*
X0221750Y0435000D03*
X0231750Y0435000D03*
X0241750Y0435000D03*
X0251750Y0435000D03*
X0271750Y0435000D03*
X0281750Y0435000D03*
X0291750Y0435000D03*
X0301750Y0435000D03*
X0311750Y0435000D03*
X0311750Y0545000D03*
X0311750Y0555000D03*
X0311750Y0565000D03*
X0311750Y0575000D03*
X0311750Y0585000D03*
X0311750Y0595000D03*
X0311750Y0605000D03*
X0311750Y0615000D03*
X0311750Y0625000D03*
X0311750Y0635000D03*
X0311750Y0645000D03*
X0311750Y0655000D03*
X0409250Y0626250D03*
X0409250Y0616250D03*
X0409250Y0606250D03*
X0176750Y0650000D03*
X0156750Y0650000D03*
D96*
X0194250Y0655000D03*
X0194250Y0615000D03*
X0091750Y0435000D03*
X0091750Y0395000D03*
D44*
X0066750Y0381250D03*
X0058000Y0381250D03*
X0058000Y0351250D03*
X0066750Y0351250D03*
X0138000Y0446250D03*
X0168000Y0446250D03*
X0198000Y0446250D03*
X0228000Y0446250D03*
X0228000Y0476250D03*
X0198000Y0476250D03*
X0188000Y0491250D03*
X0168000Y0476250D03*
X0158000Y0491250D03*
X0148000Y0491250D03*
X0148000Y0501250D03*
X0148000Y0511250D03*
X0148000Y0521250D03*
X0168000Y0536250D03*
X0188000Y0536250D03*
X0148000Y0541250D03*
X0148000Y0551250D03*
X0148000Y0561250D03*
X0148000Y0571250D03*
X0118000Y0571250D03*
X0118000Y0561250D03*
X0118000Y0551250D03*
X0118000Y0541250D03*
X0118000Y0521250D03*
X0118000Y0511250D03*
X0118000Y0501250D03*
X0118000Y0491250D03*
X0138000Y0476250D03*
X0263000Y0476250D03*
X0263000Y0486250D03*
X0263000Y0496250D03*
X0263000Y0506250D03*
X0263000Y0516250D03*
X0293000Y0516250D03*
X0293000Y0506250D03*
X0293000Y0496250D03*
X0293000Y0486250D03*
X0293000Y0476250D03*
X0313000Y0413750D03*
X0318000Y0406250D03*
X0308000Y0406250D03*
X0313000Y0388750D03*
X0318000Y0381250D03*
X0308000Y0381250D03*
X0298000Y0361250D03*
X0298000Y0351250D03*
X0328000Y0351250D03*
X0328000Y0361250D03*
X0293000Y0546250D03*
X0293000Y0556250D03*
X0293000Y0566250D03*
X0283000Y0576250D03*
X0263000Y0576250D03*
X0263000Y0566250D03*
X0263000Y0556250D03*
X0263000Y0546250D03*
X0223000Y0591250D03*
X0203000Y0591250D03*
D77*
X0218000Y0621070D03*
X0236500Y0632880D03*
X0218000Y0644690D03*
D11*
X0359870Y0575940D03*
X0384560Y0575940D03*
X0409560Y0575940D03*
X0409560Y0511880D03*
X0409560Y0495940D03*
X0384560Y0495940D03*
X0384250Y0511880D03*
X0359870Y0511880D03*
X0359870Y0495940D03*
X0359870Y0431880D03*
X0359870Y0415940D03*
X0384560Y0415940D03*
X0384250Y0431880D03*
X0409560Y0431880D03*
X0409560Y0415940D03*
X0409560Y0351880D03*
X0384250Y0351880D03*
X0359870Y0351880D03*
X0066120Y0431570D03*
X0041430Y0431570D03*
X0016430Y0431570D03*
X0016430Y0495630D03*
X0016430Y0511570D03*
X0041430Y0511570D03*
X0041750Y0495630D03*
X0066120Y0495630D03*
X0066120Y0511570D03*
X0066120Y0575630D03*
X0041750Y0575630D03*
X0016430Y0575630D03*
D103*
X0101750Y0435000D03*
X0141750Y0435000D03*
D13*
X0183000Y0548650D02*
X0183000Y0553850D01*
X0193000Y0553850D02*
X0193000Y0548650D01*
X0203000Y0548650D02*
X0203000Y0553850D01*
X0213000Y0553850D02*
X0213000Y0548650D01*
X0223000Y0548650D02*
X0223000Y0553850D01*
X0233000Y0553850D02*
X0233000Y0548650D01*
X0243000Y0548650D02*
X0243000Y0553850D01*
X0243000Y0578650D02*
X0243000Y0583850D01*
X0233000Y0583850D02*
X0233000Y0578650D01*
X0223000Y0578650D02*
X0223000Y0583850D01*
X0213000Y0583850D02*
X0213000Y0578650D01*
X0203000Y0578650D02*
X0203000Y0583850D01*
X0193000Y0583850D02*
X0193000Y0578650D01*
X0183000Y0578650D02*
X0183000Y0583850D01*
X0298000Y0418850D02*
X0298000Y0413650D01*
X0298000Y0378850D02*
X0298000Y0373650D01*
D14*
X0228000Y0496250D03*
X0198000Y0496250D03*
X0198000Y0536250D03*
X0228000Y0536250D03*
D10*
X0045800Y0386170D03*
X0038000Y0386170D03*
X0038000Y0376330D03*
X0045800Y0376330D03*
D29*
X0027300Y0357550D03*
X0027300Y0404950D03*
D98*
X0114250Y0413250D02*
X0114250Y0419250D01*
X0124250Y0419250D02*
X0124250Y0413250D01*
X0134250Y0413250D02*
X0134250Y0419250D01*
D108*
X0124250Y0357250D03*
D46*
X0083000Y0376250D03*
X0063000Y0406250D03*
X0153000Y0451250D03*
X0153000Y0471250D03*
X0183000Y0471250D03*
X0183000Y0451250D03*
X0213000Y0451250D03*
X0213000Y0471250D03*
X0243000Y0471250D03*
X0253000Y0486250D03*
X0253000Y0506250D03*
X0263000Y0526250D03*
X0263000Y0536250D03*
X0283000Y0536250D03*
X0283000Y0526250D03*
X0313000Y0521250D03*
X0313000Y0493750D03*
X0313000Y0466250D03*
X0243000Y0451250D03*
X0158000Y0501250D03*
X0158000Y0521250D03*
X0138000Y0531250D03*
X0118000Y0531250D03*
X0158000Y0551250D03*
X0168000Y0551250D03*
X0168000Y0571250D03*
X0158000Y0571250D03*
D63*
X0313000Y0511250D03*
X0313000Y0483750D03*
X0313000Y0456250D03*
X0093000Y0376250D03*
X0073000Y0406250D03*
X0010000Y0680000D02*
G75*
%LPD*%
D48*
X0053150Y0921730D03*
X0063000Y0921730D03*
X0072840Y0921730D03*
X0153150Y0921730D03*
X0163000Y0921730D03*
X0172840Y0921730D03*
X0253150Y0921730D03*
X0263000Y0921730D03*
X0272840Y0921730D03*
X0353150Y0921730D03*
X0363000Y0921730D03*
X0372840Y0921730D03*
D110*
X0380710Y0951250D03*
X0345280Y0951250D03*
X0280710Y0951250D03*
X0245280Y0951250D03*
X0180710Y0951250D03*
X0145280Y0951250D03*
X0080710Y0951250D03*
X0045280Y0951250D03*
D79*
X0101750Y0950000D03*
X0111750Y0950000D03*
X0111750Y0960000D03*
X0111750Y0970000D03*
X0101750Y0960000D03*
X0101750Y0940000D03*
X0111750Y0940000D03*
X0101750Y0930000D03*
X0101750Y0920000D03*
X0101750Y0910000D03*
X0101750Y0900000D03*
X0101750Y0890000D03*
X0101750Y0880000D03*
X0101750Y0870000D03*
X0101750Y0860000D03*
X0101750Y0850000D03*
X0101750Y0840000D03*
X0101750Y0830000D03*
X0101750Y0820000D03*
X0101750Y0810000D03*
X0101750Y0800000D03*
X0101750Y0790000D03*
X0101750Y0780000D03*
X0111750Y0770000D03*
X0121750Y0770000D03*
X0131750Y0770000D03*
X0171750Y0770000D03*
X0181750Y0770000D03*
X0191750Y0770000D03*
X0201750Y0770000D03*
X0211750Y0770000D03*
X0221750Y0770000D03*
X0231750Y0770000D03*
X0241750Y0770000D03*
X0251750Y0770000D03*
X0271750Y0770000D03*
X0281750Y0770000D03*
X0291750Y0770000D03*
X0301750Y0770000D03*
X0311750Y0770000D03*
X0311750Y0880000D03*
X0311750Y0890000D03*
X0311750Y0900000D03*
X0311750Y0910000D03*
X0311750Y0920000D03*
X0311750Y0930000D03*
X0311750Y0940000D03*
X0311750Y0950000D03*
X0311750Y0960000D03*
X0311750Y0970000D03*
X0311750Y0980000D03*
X0311750Y0990000D03*
X0409250Y0961250D03*
X0409250Y0951250D03*
X0409250Y0941250D03*
X0176750Y0985000D03*
X0156750Y0985000D03*
D96*
X0194250Y0990000D03*
X0194250Y0950000D03*
X0091750Y0770000D03*
X0091750Y0730000D03*
D44*
X0066750Y0716250D03*
X0058000Y0716250D03*
X0058000Y0686250D03*
X0066750Y0686250D03*
X0138000Y0781250D03*
X0168000Y0781250D03*
X0198000Y0781250D03*
X0228000Y0781250D03*
X0228000Y0811250D03*
X0198000Y0811250D03*
X0188000Y0826250D03*
X0168000Y0811250D03*
X0158000Y0826250D03*
X0148000Y0826250D03*
X0148000Y0836250D03*
X0148000Y0846250D03*
X0148000Y0856250D03*
X0168000Y0871250D03*
X0188000Y0871250D03*
X0148000Y0876250D03*
X0148000Y0886250D03*
X0148000Y0896250D03*
X0148000Y0906250D03*
X0118000Y0906250D03*
X0118000Y0896250D03*
X0118000Y0886250D03*
X0118000Y0876250D03*
X0118000Y0856250D03*
X0118000Y0846250D03*
X0118000Y0836250D03*
X0118000Y0826250D03*
X0138000Y0811250D03*
X0263000Y0811250D03*
X0263000Y0821250D03*
X0263000Y0831250D03*
X0263000Y0841250D03*
X0263000Y0851250D03*
X0293000Y0851250D03*
X0293000Y0841250D03*
X0293000Y0831250D03*
X0293000Y0821250D03*
X0293000Y0811250D03*
X0313000Y0748750D03*
X0318000Y0741250D03*
X0308000Y0741250D03*
X0313000Y0723750D03*
X0318000Y0716250D03*
X0308000Y0716250D03*
X0298000Y0696250D03*
X0298000Y0686250D03*
X0328000Y0686250D03*
X0328000Y0696250D03*
X0293000Y0881250D03*
X0293000Y0891250D03*
X0293000Y0901250D03*
X0283000Y0911250D03*
X0263000Y0911250D03*
X0263000Y0901250D03*
X0263000Y0891250D03*
X0263000Y0881250D03*
X0223000Y0926250D03*
X0203000Y0926250D03*
D77*
X0218000Y0956070D03*
X0236500Y0967880D03*
X0218000Y0979690D03*
D11*
X0359870Y0910940D03*
X0384560Y0910940D03*
X0409560Y0910940D03*
X0409560Y0846880D03*
X0409560Y0830940D03*
X0384560Y0830940D03*
X0384250Y0846880D03*
X0359870Y0846880D03*
X0359870Y0830940D03*
X0359870Y0766880D03*
X0359870Y0750940D03*
X0384560Y0750940D03*
X0384250Y0766880D03*
X0409560Y0766880D03*
X0409560Y0750940D03*
X0409560Y0686880D03*
X0384250Y0686880D03*
X0359870Y0686880D03*
X0066120Y0766570D03*
X0041430Y0766570D03*
X0016430Y0766570D03*
X0016430Y0830630D03*
X0016430Y0846570D03*
X0041430Y0846570D03*
X0041750Y0830630D03*
X0066120Y0830630D03*
X0066120Y0846570D03*
X0066120Y0910630D03*
X0041750Y0910630D03*
X0016430Y0910630D03*
D103*
X0101750Y0770000D03*
X0141750Y0770000D03*
D13*
X0183000Y0883650D02*
X0183000Y0888850D01*
X0193000Y0888850D02*
X0193000Y0883650D01*
X0203000Y0883650D02*
X0203000Y0888850D01*
X0213000Y0888850D02*
X0213000Y0883650D01*
X0223000Y0883650D02*
X0223000Y0888850D01*
X0233000Y0888850D02*
X0233000Y0883650D01*
X0243000Y0883650D02*
X0243000Y0888850D01*
X0243000Y0913650D02*
X0243000Y0918850D01*
X0233000Y0918850D02*
X0233000Y0913650D01*
X0223000Y0913650D02*
X0223000Y0918850D01*
X0213000Y0918850D02*
X0213000Y0913650D01*
X0203000Y0913650D02*
X0203000Y0918850D01*
X0193000Y0918850D02*
X0193000Y0913650D01*
X0183000Y0913650D02*
X0183000Y0918850D01*
X0298000Y0753850D02*
X0298000Y0748650D01*
X0298000Y0713850D02*
X0298000Y0708650D01*
D14*
X0228000Y0831250D03*
X0198000Y0831250D03*
X0198000Y0871250D03*
X0228000Y0871250D03*
D10*
X0045800Y0721170D03*
X0038000Y0721170D03*
X0038000Y0711330D03*
X0045800Y0711330D03*
D29*
X0027300Y0692550D03*
X0027300Y0739950D03*
D98*
X0114250Y0748250D02*
X0114250Y0754250D01*
X0124250Y0754250D02*
X0124250Y0748250D01*
X0134250Y0748250D02*
X0134250Y0754250D01*
D108*
X0124250Y0692250D03*
D46*
X0083000Y0711250D03*
X0063000Y0741250D03*
X0153000Y0786250D03*
X0153000Y0806250D03*
X0183000Y0806250D03*
X0183000Y0786250D03*
X0213000Y0786250D03*
X0213000Y0806250D03*
X0243000Y0806250D03*
X0253000Y0821250D03*
X0253000Y0841250D03*
X0263000Y0861250D03*
X0263000Y0871250D03*
X0283000Y0871250D03*
X0283000Y0861250D03*
X0313000Y0856250D03*
X0313000Y0828750D03*
X0313000Y0801250D03*
X0243000Y0786250D03*
X0158000Y0836250D03*
X0158000Y0856250D03*
X0138000Y0866250D03*
X0118000Y0866250D03*
X0158000Y0886250D03*
X0168000Y0886250D03*
X0168000Y0906250D03*
X0158000Y0906250D03*
D63*
X0313000Y0846250D03*
X0313000Y0818750D03*
X0313000Y0791250D03*
X0093000Y0711250D03*
X0073000Y0741250D03*
X0425000Y0010000D02*
G75*
%LPD*%
D48*
X0468150Y0251730D03*
X0478000Y0251730D03*
X0487840Y0251730D03*
X0568150Y0251730D03*
X0578000Y0251730D03*
X0587840Y0251730D03*
X0668150Y0251730D03*
X0678000Y0251730D03*
X0687840Y0251730D03*
X0768150Y0251730D03*
X0778000Y0251730D03*
X0787840Y0251730D03*
D110*
X0795710Y0281250D03*
X0760280Y0281250D03*
X0695710Y0281250D03*
X0660280Y0281250D03*
X0595710Y0281250D03*
X0560280Y0281250D03*
X0495710Y0281250D03*
X0460280Y0281250D03*
D79*
X0516750Y0280000D03*
X0526750Y0280000D03*
X0526750Y0290000D03*
X0526750Y0300000D03*
X0516750Y0290000D03*
X0516750Y0270000D03*
X0526750Y0270000D03*
X0516750Y0260000D03*
X0516750Y0250000D03*
X0516750Y0240000D03*
X0516750Y0230000D03*
X0516750Y0220000D03*
X0516750Y0210000D03*
X0516750Y0200000D03*
X0516750Y0190000D03*
X0516750Y0180000D03*
X0516750Y0170000D03*
X0516750Y0160000D03*
X0516750Y0150000D03*
X0516750Y0140000D03*
X0516750Y0130000D03*
X0516750Y0120000D03*
X0516750Y0110000D03*
X0526750Y0100000D03*
X0536750Y0100000D03*
X0546750Y0100000D03*
X0586750Y0100000D03*
X0596750Y0100000D03*
X0606750Y0100000D03*
X0616750Y0100000D03*
X0626750Y0100000D03*
X0636750Y0100000D03*
X0646750Y0100000D03*
X0656750Y0100000D03*
X0666750Y0100000D03*
X0686750Y0100000D03*
X0696750Y0100000D03*
X0706750Y0100000D03*
X0716750Y0100000D03*
X0726750Y0100000D03*
X0726750Y0210000D03*
X0726750Y0220000D03*
X0726750Y0230000D03*
X0726750Y0240000D03*
X0726750Y0250000D03*
X0726750Y0260000D03*
X0726750Y0270000D03*
X0726750Y0280000D03*
X0726750Y0290000D03*
X0726750Y0300000D03*
X0726750Y0310000D03*
X0726750Y0320000D03*
X0824250Y0291250D03*
X0824250Y0281250D03*
X0824250Y0271250D03*
X0591750Y0315000D03*
X0571750Y0315000D03*
D96*
X0609250Y0320000D03*
X0609250Y0280000D03*
X0506750Y0100000D03*
X0506750Y0060000D03*
D44*
X0481750Y0046250D03*
X0473000Y0046250D03*
X0473000Y0016250D03*
X0481750Y0016250D03*
X0553000Y0111250D03*
X0583000Y0111250D03*
X0613000Y0111250D03*
X0643000Y0111250D03*
X0643000Y0141250D03*
X0613000Y0141250D03*
X0603000Y0156250D03*
X0583000Y0141250D03*
X0573000Y0156250D03*
X0563000Y0156250D03*
X0563000Y0166250D03*
X0563000Y0176250D03*
X0563000Y0186250D03*
X0583000Y0201250D03*
X0603000Y0201250D03*
X0563000Y0206250D03*
X0563000Y0216250D03*
X0563000Y0226250D03*
X0563000Y0236250D03*
X0533000Y0236250D03*
X0533000Y0226250D03*
X0533000Y0216250D03*
X0533000Y0206250D03*
X0533000Y0186250D03*
X0533000Y0176250D03*
X0533000Y0166250D03*
X0533000Y0156250D03*
X0553000Y0141250D03*
X0678000Y0141250D03*
X0678000Y0151250D03*
X0678000Y0161250D03*
X0678000Y0171250D03*
X0678000Y0181250D03*
X0708000Y0181250D03*
X0708000Y0171250D03*
X0708000Y0161250D03*
X0708000Y0151250D03*
X0708000Y0141250D03*
X0728000Y0078750D03*
X0733000Y0071250D03*
X0723000Y0071250D03*
X0728000Y0053750D03*
X0733000Y0046250D03*
X0723000Y0046250D03*
X0713000Y0026250D03*
X0713000Y0016250D03*
X0743000Y0016250D03*
X0743000Y0026250D03*
X0708000Y0211250D03*
X0708000Y0221250D03*
X0708000Y0231250D03*
X0698000Y0241250D03*
X0678000Y0241250D03*
X0678000Y0231250D03*
X0678000Y0221250D03*
X0678000Y0211250D03*
X0638000Y0256250D03*
X0618000Y0256250D03*
D77*
X0633000Y0286070D03*
X0651500Y0297880D03*
X0633000Y0309690D03*
D11*
X0774870Y0240940D03*
X0799560Y0240940D03*
X0824560Y0240940D03*
X0824560Y0176880D03*
X0824560Y0160940D03*
X0799560Y0160940D03*
X0799250Y0176880D03*
X0774870Y0176880D03*
X0774870Y0160940D03*
X0774870Y0096880D03*
X0774870Y0080940D03*
X0799560Y0080940D03*
X0799250Y0096880D03*
X0824560Y0096880D03*
X0824560Y0080940D03*
X0824560Y0016880D03*
X0799250Y0016880D03*
X0774870Y0016880D03*
X0481120Y0096570D03*
X0456430Y0096570D03*
X0431430Y0096570D03*
X0431430Y0160630D03*
X0431430Y0176570D03*
X0456430Y0176570D03*
X0456750Y0160630D03*
X0481120Y0160630D03*
X0481120Y0176570D03*
X0481120Y0240630D03*
X0456750Y0240630D03*
X0431430Y0240630D03*
D103*
X0516750Y0100000D03*
X0556750Y0100000D03*
D13*
X0598000Y0213650D02*
X0598000Y0218850D01*
X0608000Y0218850D02*
X0608000Y0213650D01*
X0618000Y0213650D02*
X0618000Y0218850D01*
X0628000Y0218850D02*
X0628000Y0213650D01*
X0638000Y0213650D02*
X0638000Y0218850D01*
X0648000Y0218850D02*
X0648000Y0213650D01*
X0658000Y0213650D02*
X0658000Y0218850D01*
X0658000Y0243650D02*
X0658000Y0248850D01*
X0648000Y0248850D02*
X0648000Y0243650D01*
X0638000Y0243650D02*
X0638000Y0248850D01*
X0628000Y0248850D02*
X0628000Y0243650D01*
X0618000Y0243650D02*
X0618000Y0248850D01*
X0608000Y0248850D02*
X0608000Y0243650D01*
X0598000Y0243650D02*
X0598000Y0248850D01*
X0713000Y0083850D02*
X0713000Y0078650D01*
X0713000Y0043850D02*
X0713000Y0038650D01*
D14*
X0643000Y0161250D03*
X0613000Y0161250D03*
X0613000Y0201250D03*
X0643000Y0201250D03*
D10*
X0460800Y0051170D03*
X0453000Y0051170D03*
X0453000Y0041330D03*
X0460800Y0041330D03*
D29*
X0442300Y0022550D03*
X0442300Y0069950D03*
D98*
X0529250Y0078250D02*
X0529250Y0084250D01*
X0539250Y0084250D02*
X0539250Y0078250D01*
X0549250Y0078250D02*
X0549250Y0084250D01*
D108*
X0539250Y0022250D03*
D46*
X0498000Y0041250D03*
X0478000Y0071250D03*
X0568000Y0116250D03*
X0568000Y0136250D03*
X0598000Y0136250D03*
X0598000Y0116250D03*
X0628000Y0116250D03*
X0628000Y0136250D03*
X0658000Y0136250D03*
X0668000Y0151250D03*
X0668000Y0171250D03*
X0678000Y0191250D03*
X0678000Y0201250D03*
X0698000Y0201250D03*
X0698000Y0191250D03*
X0728000Y0186250D03*
X0728000Y0158750D03*
X0728000Y0131250D03*
X0658000Y0116250D03*
X0573000Y0166250D03*
X0573000Y0186250D03*
X0553000Y0196250D03*
X0533000Y0196250D03*
X0573000Y0216250D03*
X0583000Y0216250D03*
X0583000Y0236250D03*
X0573000Y0236250D03*
D63*
X0728000Y0176250D03*
X0728000Y0148750D03*
X0728000Y0121250D03*
X0508000Y0041250D03*
X0488000Y0071250D03*
X0425000Y0345000D02*
G75*
%LPD*%
D48*
X0468150Y0586730D03*
X0478000Y0586730D03*
X0487840Y0586730D03*
X0568150Y0586730D03*
X0578000Y0586730D03*
X0587840Y0586730D03*
X0668150Y0586730D03*
X0678000Y0586730D03*
X0687840Y0586730D03*
X0768150Y0586730D03*
X0778000Y0586730D03*
X0787840Y0586730D03*
D110*
X0795710Y0616250D03*
X0760280Y0616250D03*
X0695710Y0616250D03*
X0660280Y0616250D03*
X0595710Y0616250D03*
X0560280Y0616250D03*
X0495710Y0616250D03*
X0460280Y0616250D03*
D79*
X0516750Y0615000D03*
X0526750Y0615000D03*
X0526750Y0625000D03*
X0526750Y0635000D03*
X0516750Y0625000D03*
X0516750Y0605000D03*
X0526750Y0605000D03*
X0516750Y0595000D03*
X0516750Y0585000D03*
X0516750Y0575000D03*
X0516750Y0565000D03*
X0516750Y0555000D03*
X0516750Y0545000D03*
X0516750Y0535000D03*
X0516750Y0525000D03*
X0516750Y0515000D03*
X0516750Y0505000D03*
X0516750Y0495000D03*
X0516750Y0485000D03*
X0516750Y0475000D03*
X0516750Y0465000D03*
X0516750Y0455000D03*
X0516750Y0445000D03*
X0526750Y0435000D03*
X0536750Y0435000D03*
X0546750Y0435000D03*
X0586750Y0435000D03*
X0596750Y0435000D03*
X0606750Y0435000D03*
X0616750Y0435000D03*
X0626750Y0435000D03*
X0636750Y0435000D03*
X0646750Y0435000D03*
X0656750Y0435000D03*
X0666750Y0435000D03*
X0686750Y0435000D03*
X0696750Y0435000D03*
X0706750Y0435000D03*
X0716750Y0435000D03*
X0726750Y0435000D03*
X0726750Y0545000D03*
X0726750Y0555000D03*
X0726750Y0565000D03*
X0726750Y0575000D03*
X0726750Y0585000D03*
X0726750Y0595000D03*
X0726750Y0605000D03*
X0726750Y0615000D03*
X0726750Y0625000D03*
X0726750Y0635000D03*
X0726750Y0645000D03*
X0726750Y0655000D03*
X0824250Y0626250D03*
X0824250Y0616250D03*
X0824250Y0606250D03*
X0591750Y0650000D03*
X0571750Y0650000D03*
D96*
X0609250Y0655000D03*
X0609250Y0615000D03*
X0506750Y0435000D03*
X0506750Y0395000D03*
D44*
X0481750Y0381250D03*
X0473000Y0381250D03*
X0473000Y0351250D03*
X0481750Y0351250D03*
X0553000Y0446250D03*
X0583000Y0446250D03*
X0613000Y0446250D03*
X0643000Y0446250D03*
X0643000Y0476250D03*
X0613000Y0476250D03*
X0603000Y0491250D03*
X0583000Y0476250D03*
X0573000Y0491250D03*
X0563000Y0491250D03*
X0563000Y0501250D03*
X0563000Y0511250D03*
X0563000Y0521250D03*
X0583000Y0536250D03*
X0603000Y0536250D03*
X0563000Y0541250D03*
X0563000Y0551250D03*
X0563000Y0561250D03*
X0563000Y0571250D03*
X0533000Y0571250D03*
X0533000Y0561250D03*
X0533000Y0551250D03*
X0533000Y0541250D03*
X0533000Y0521250D03*
X0533000Y0511250D03*
X0533000Y0501250D03*
X0533000Y0491250D03*
X0553000Y0476250D03*
X0678000Y0476250D03*
X0678000Y0486250D03*
X0678000Y0496250D03*
X0678000Y0506250D03*
X0678000Y0516250D03*
X0708000Y0516250D03*
X0708000Y0506250D03*
X0708000Y0496250D03*
X0708000Y0486250D03*
X0708000Y0476250D03*
X0728000Y0413750D03*
X0733000Y0406250D03*
X0723000Y0406250D03*
X0728000Y0388750D03*
X0733000Y0381250D03*
X0723000Y0381250D03*
X0713000Y0361250D03*
X0713000Y0351250D03*
X0743000Y0351250D03*
X0743000Y0361250D03*
X0708000Y0546250D03*
X0708000Y0556250D03*
X0708000Y0566250D03*
X0698000Y0576250D03*
X0678000Y0576250D03*
X0678000Y0566250D03*
X0678000Y0556250D03*
X0678000Y0546250D03*
X0638000Y0591250D03*
X0618000Y0591250D03*
D77*
X0633000Y0621070D03*
X0651500Y0632880D03*
X0633000Y0644690D03*
D11*
X0774870Y0575940D03*
X0799560Y0575940D03*
X0824560Y0575940D03*
X0824560Y0511880D03*
X0824560Y0495940D03*
X0799560Y0495940D03*
X0799250Y0511880D03*
X0774870Y0511880D03*
X0774870Y0495940D03*
X0774870Y0431880D03*
X0774870Y0415940D03*
X0799560Y0415940D03*
X0799250Y0431880D03*
X0824560Y0431880D03*
X0824560Y0415940D03*
X0824560Y0351880D03*
X0799250Y0351880D03*
X0774870Y0351880D03*
X0481120Y0431570D03*
X0456430Y0431570D03*
X0431430Y0431570D03*
X0431430Y0495630D03*
X0431430Y0511570D03*
X0456430Y0511570D03*
X0456750Y0495630D03*
X0481120Y0495630D03*
X0481120Y0511570D03*
X0481120Y0575630D03*
X0456750Y0575630D03*
X0431430Y0575630D03*
D103*
X0516750Y0435000D03*
X0556750Y0435000D03*
D13*
X0598000Y0548650D02*
X0598000Y0553850D01*
X0608000Y0553850D02*
X0608000Y0548650D01*
X0618000Y0548650D02*
X0618000Y0553850D01*
X0628000Y0553850D02*
X0628000Y0548650D01*
X0638000Y0548650D02*
X0638000Y0553850D01*
X0648000Y0553850D02*
X0648000Y0548650D01*
X0658000Y0548650D02*
X0658000Y0553850D01*
X0658000Y0578650D02*
X0658000Y0583850D01*
X0648000Y0583850D02*
X0648000Y0578650D01*
X0638000Y0578650D02*
X0638000Y0583850D01*
X0628000Y0583850D02*
X0628000Y0578650D01*
X0618000Y0578650D02*
X0618000Y0583850D01*
X0608000Y0583850D02*
X0608000Y0578650D01*
X0598000Y0578650D02*
X0598000Y0583850D01*
X0713000Y0418850D02*
X0713000Y0413650D01*
X0713000Y0378850D02*
X0713000Y0373650D01*
D14*
X0643000Y0496250D03*
X0613000Y0496250D03*
X0613000Y0536250D03*
X0643000Y0536250D03*
D10*
X0460800Y0386170D03*
X0453000Y0386170D03*
X0453000Y0376330D03*
X0460800Y0376330D03*
D29*
X0442300Y0357550D03*
X0442300Y0404950D03*
D98*
X0529250Y0413250D02*
X0529250Y0419250D01*
X0539250Y0419250D02*
X0539250Y0413250D01*
X0549250Y0413250D02*
X0549250Y0419250D01*
D108*
X0539250Y0357250D03*
D46*
X0498000Y0376250D03*
X0478000Y0406250D03*
X0568000Y0451250D03*
X0568000Y0471250D03*
X0598000Y0471250D03*
X0598000Y0451250D03*
X0628000Y0451250D03*
X0628000Y0471250D03*
X0658000Y0471250D03*
X0668000Y0486250D03*
X0668000Y0506250D03*
X0678000Y0526250D03*
X0678000Y0536250D03*
X0698000Y0536250D03*
X0698000Y0526250D03*
X0728000Y0521250D03*
X0728000Y0493750D03*
X0728000Y0466250D03*
X0658000Y0451250D03*
X0573000Y0501250D03*
X0573000Y0521250D03*
X0553000Y0531250D03*
X0533000Y0531250D03*
X0573000Y0551250D03*
X0583000Y0551250D03*
X0583000Y0571250D03*
X0573000Y0571250D03*
D63*
X0728000Y0511250D03*
X0728000Y0483750D03*
X0728000Y0456250D03*
X0508000Y0376250D03*
X0488000Y0406250D03*
X0425000Y0680000D02*
G75*
%LPD*%
D48*
X0468150Y0921730D03*
X0478000Y0921730D03*
X0487840Y0921730D03*
X0568150Y0921730D03*
X0578000Y0921730D03*
X0587840Y0921730D03*
X0668150Y0921730D03*
X0678000Y0921730D03*
X0687840Y0921730D03*
X0768150Y0921730D03*
X0778000Y0921730D03*
X0787840Y0921730D03*
D110*
X0795710Y0951250D03*
X0760280Y0951250D03*
X0695710Y0951250D03*
X0660280Y0951250D03*
X0595710Y0951250D03*
X0560280Y0951250D03*
X0495710Y0951250D03*
X0460280Y0951250D03*
D79*
X0516750Y0950000D03*
X0526750Y0950000D03*
X0526750Y0960000D03*
X0526750Y0970000D03*
X0516750Y0960000D03*
X0516750Y0940000D03*
X0526750Y0940000D03*
X0516750Y0930000D03*
X0516750Y0920000D03*
X0516750Y0910000D03*
X0516750Y0900000D03*
X0516750Y0890000D03*
X0516750Y0880000D03*
X0516750Y0870000D03*
X0516750Y0860000D03*
X0516750Y0850000D03*
X0516750Y0840000D03*
X0516750Y0830000D03*
X0516750Y0820000D03*
X0516750Y0810000D03*
X0516750Y0800000D03*
X0516750Y0790000D03*
X0516750Y0780000D03*
X0526750Y0770000D03*
X0536750Y0770000D03*
X0546750Y0770000D03*
X0586750Y0770000D03*
X0596750Y0770000D03*
X0606750Y0770000D03*
X0616750Y0770000D03*
X0626750Y0770000D03*
X0636750Y0770000D03*
X0646750Y0770000D03*
X0656750Y0770000D03*
X0666750Y0770000D03*
X0686750Y0770000D03*
X0696750Y0770000D03*
X0706750Y0770000D03*
X0716750Y0770000D03*
X0726750Y0770000D03*
X0726750Y0880000D03*
X0726750Y0890000D03*
X0726750Y0900000D03*
X0726750Y0910000D03*
X0726750Y0920000D03*
X0726750Y0930000D03*
X0726750Y0940000D03*
X0726750Y0950000D03*
X0726750Y0960000D03*
X0726750Y0970000D03*
X0726750Y0980000D03*
X0726750Y0990000D03*
X0824250Y0961250D03*
X0824250Y0951250D03*
X0824250Y0941250D03*
X0591750Y0985000D03*
X0571750Y0985000D03*
D96*
X0609250Y0990000D03*
X0609250Y0950000D03*
X0506750Y0770000D03*
X0506750Y0730000D03*
D44*
X0481750Y0716250D03*
X0473000Y0716250D03*
X0473000Y0686250D03*
X0481750Y0686250D03*
X0553000Y0781250D03*
X0583000Y0781250D03*
X0613000Y0781250D03*
X0643000Y0781250D03*
X0643000Y0811250D03*
X0613000Y0811250D03*
X0603000Y0826250D03*
X0583000Y0811250D03*
X0573000Y0826250D03*
X0563000Y0826250D03*
X0563000Y0836250D03*
X0563000Y0846250D03*
X0563000Y0856250D03*
X0583000Y0871250D03*
X0603000Y0871250D03*
X0563000Y0876250D03*
X0563000Y0886250D03*
X0563000Y0896250D03*
X0563000Y0906250D03*
X0533000Y0906250D03*
X0533000Y0896250D03*
X0533000Y0886250D03*
X0533000Y0876250D03*
X0533000Y0856250D03*
X0533000Y0846250D03*
X0533000Y0836250D03*
X0533000Y0826250D03*
X0553000Y0811250D03*
X0678000Y0811250D03*
X0678000Y0821250D03*
X0678000Y0831250D03*
X0678000Y0841250D03*
X0678000Y0851250D03*
X0708000Y0851250D03*
X0708000Y0841250D03*
X0708000Y0831250D03*
X0708000Y0821250D03*
X0708000Y0811250D03*
X0728000Y0748750D03*
X0733000Y0741250D03*
X0723000Y0741250D03*
X0728000Y0723750D03*
X0733000Y0716250D03*
X0723000Y0716250D03*
X0713000Y0696250D03*
X0713000Y0686250D03*
X0743000Y0686250D03*
X0743000Y0696250D03*
X0708000Y0881250D03*
X0708000Y0891250D03*
X0708000Y0901250D03*
X0698000Y0911250D03*
X0678000Y0911250D03*
X0678000Y0901250D03*
X0678000Y0891250D03*
X0678000Y0881250D03*
X0638000Y0926250D03*
X0618000Y0926250D03*
D77*
X0633000Y0956070D03*
X0651500Y0967880D03*
X0633000Y0979690D03*
D11*
X0774870Y0910940D03*
X0799560Y0910940D03*
X0824560Y0910940D03*
X0824560Y0846880D03*
X0824560Y0830940D03*
X0799560Y0830940D03*
X0799250Y0846880D03*
X0774870Y0846880D03*
X0774870Y0830940D03*
X0774870Y0766880D03*
X0774870Y0750940D03*
X0799560Y0750940D03*
X0799250Y0766880D03*
X0824560Y0766880D03*
X0824560Y0750940D03*
X0824560Y0686880D03*
X0799250Y0686880D03*
X0774870Y0686880D03*
X0481120Y0766570D03*
X0456430Y0766570D03*
X0431430Y0766570D03*
X0431430Y0830630D03*
X0431430Y0846570D03*
X0456430Y0846570D03*
X0456750Y0830630D03*
X0481120Y0830630D03*
X0481120Y0846570D03*
X0481120Y0910630D03*
X0456750Y0910630D03*
X0431430Y0910630D03*
D103*
X0516750Y0770000D03*
X0556750Y0770000D03*
D13*
X0598000Y0883650D02*
X0598000Y0888850D01*
X0608000Y0888850D02*
X0608000Y0883650D01*
X0618000Y0883650D02*
X0618000Y0888850D01*
X0628000Y0888850D02*
X0628000Y0883650D01*
X0638000Y0883650D02*
X0638000Y0888850D01*
X0648000Y0888850D02*
X0648000Y0883650D01*
X0658000Y0883650D02*
X0658000Y0888850D01*
X0658000Y0913650D02*
X0658000Y0918850D01*
X0648000Y0918850D02*
X0648000Y0913650D01*
X0638000Y0913650D02*
X0638000Y0918850D01*
X0628000Y0918850D02*
X0628000Y0913650D01*
X0618000Y0913650D02*
X0618000Y0918850D01*
X0608000Y0918850D02*
X0608000Y0913650D01*
X0598000Y0913650D02*
X0598000Y0918850D01*
X0713000Y0753850D02*
X0713000Y0748650D01*
X0713000Y0713850D02*
X0713000Y0708650D01*
D14*
X0643000Y0831250D03*
X0613000Y0831250D03*
X0613000Y0871250D03*
X0643000Y0871250D03*
D10*
X0460800Y0721170D03*
X0453000Y0721170D03*
X0453000Y0711330D03*
X0460800Y0711330D03*
D29*
X0442300Y0692550D03*
X0442300Y0739950D03*
D98*
X0529250Y0748250D02*
X0529250Y0754250D01*
X0539250Y0754250D02*
X0539250Y0748250D01*
X0549250Y0748250D02*
X0549250Y0754250D01*
D108*
X0539250Y0692250D03*
D46*
X0498000Y0711250D03*
X0478000Y0741250D03*
X0568000Y0786250D03*
X0568000Y0806250D03*
X0598000Y0806250D03*
X0598000Y0786250D03*
X0628000Y0786250D03*
X0628000Y0806250D03*
X0658000Y0806250D03*
X0668000Y0821250D03*
X0668000Y0841250D03*
X0678000Y0861250D03*
X0678000Y0871250D03*
X0698000Y0871250D03*
X0698000Y0861250D03*
X0728000Y0856250D03*
X0728000Y0828750D03*
X0728000Y0801250D03*
X0658000Y0786250D03*
X0573000Y0836250D03*
X0573000Y0856250D03*
X0553000Y0866250D03*
X0533000Y0866250D03*
X0573000Y0886250D03*
X0583000Y0886250D03*
X0583000Y0906250D03*
X0573000Y0906250D03*
D63*
X0728000Y0846250D03*
X0728000Y0818750D03*
X0728000Y0791250D03*
X0508000Y0711250D03*
X0488000Y0741250D03*
X0845000Y0010000D02*
G75*
%LPD*%
D79*
X0850000Y0065250D03*
X0850000Y0075250D03*
X0850000Y0085250D03*
X0850000Y0095250D03*
X0850000Y0105250D03*
X0850000Y0195250D03*
X0850000Y0205250D03*
X0850000Y0215250D03*
X0860000Y0225250D03*
X0870000Y0225250D03*
X0880000Y0225250D03*
X0890000Y0225250D03*
X0900000Y0225250D03*
X0910000Y0225250D03*
X0920000Y0225250D03*
X0930000Y0225250D03*
X0940000Y0225250D03*
X0950000Y0225250D03*
X0960000Y0225250D03*
X0970000Y0225250D03*
X0980000Y0225250D03*
X0990000Y0225250D03*
X1000000Y0225250D03*
X1010000Y0225250D03*
X1020000Y0225250D03*
X1030000Y0225250D03*
X1040000Y0225250D03*
X1040000Y0015250D03*
X1050000Y0015250D03*
X1060000Y0015250D03*
X1070000Y0015250D03*
X1030000Y0015250D03*
X1020000Y0015250D03*
X1010000Y0015250D03*
X1000000Y0015250D03*
X0990000Y0015250D03*
D21*
X0890000Y0045250D03*
X0880000Y0045250D03*
X0880000Y0055250D03*
X0890000Y0055250D03*
X0870000Y0055250D03*
X0870000Y0045250D03*
X0860000Y0045250D03*
X0860000Y0055250D03*
X0850000Y0055250D03*
X0850000Y0045250D03*
D103*
X0850000Y0185250D03*
X0850000Y0225250D03*
D22*
X0850000Y0035250D03*
X0960000Y0015250D03*
D98*
X0850000Y0015250D03*
X0850000Y0025250D03*
X0970000Y0015250D03*
X0980000Y0015250D03*
D56*
X1074630Y0192570D03*
X1074630Y0225440D03*
D54*
X1062330Y0217760D02*
X1057590Y0217760D01*
X1057590Y0200240D02*
X1062330Y0200240D01*
D61*
X1008750Y0046500D03*
X1003750Y0046500D03*
X1003750Y0036500D03*
X1008750Y0036500D03*
X0845000Y0250000D02*
G75*
%LPD*%
D79*
X0850000Y0305250D03*
X0850000Y0315250D03*
X0850000Y0325250D03*
X0850000Y0335250D03*
X0850000Y0345250D03*
X0850000Y0435250D03*
X0850000Y0445250D03*
X0850000Y0455250D03*
X0860000Y0465250D03*
X0870000Y0465250D03*
X0880000Y0465250D03*
X0890000Y0465250D03*
X0900000Y0465250D03*
X0910000Y0465250D03*
X0920000Y0465250D03*
X0930000Y0465250D03*
X0940000Y0465250D03*
X0950000Y0465250D03*
X0960000Y0465250D03*
X0970000Y0465250D03*
X0980000Y0465250D03*
X0990000Y0465250D03*
X1000000Y0465250D03*
X1010000Y0465250D03*
X1020000Y0465250D03*
X1030000Y0465250D03*
X1040000Y0465250D03*
X1040000Y0255250D03*
X1050000Y0255250D03*
X1060000Y0255250D03*
X1070000Y0255250D03*
X1030000Y0255250D03*
X1020000Y0255250D03*
X1010000Y0255250D03*
X1000000Y0255250D03*
X0990000Y0255250D03*
D21*
X0890000Y0285250D03*
X0880000Y0285250D03*
X0880000Y0295250D03*
X0890000Y0295250D03*
X0870000Y0295250D03*
X0870000Y0285250D03*
X0860000Y0285250D03*
X0860000Y0295250D03*
X0850000Y0295250D03*
X0850000Y0285250D03*
D103*
X0850000Y0425250D03*
X0850000Y0465250D03*
D22*
X0850000Y0275250D03*
X0960000Y0255250D03*
D98*
X0850000Y0255250D03*
X0850000Y0265250D03*
X0970000Y0255250D03*
X0980000Y0255250D03*
D56*
X1074630Y0432570D03*
X1074630Y0465440D03*
D54*
X1062330Y0457760D02*
X1057590Y0457760D01*
X1057590Y0440240D02*
X1062330Y0440240D01*
D61*
X1008750Y0286500D03*
X1003750Y0286500D03*
X1003750Y0276500D03*
X1008750Y0276500D03*
X0845000Y0490000D02*
G75*
%LPD*%
D79*
X0850000Y0545250D03*
X0850000Y0555250D03*
X0850000Y0565250D03*
X0850000Y0575250D03*
X0850000Y0585250D03*
X0850000Y0675250D03*
X0850000Y0685250D03*
X0850000Y0695250D03*
X0860000Y0705250D03*
X0870000Y0705250D03*
X0880000Y0705250D03*
X0890000Y0705250D03*
X0900000Y0705250D03*
X0910000Y0705250D03*
X0920000Y0705250D03*
X0930000Y0705250D03*
X0940000Y0705250D03*
X0950000Y0705250D03*
X0960000Y0705250D03*
X0970000Y0705250D03*
X0980000Y0705250D03*
X0990000Y0705250D03*
X1000000Y0705250D03*
X1010000Y0705250D03*
X1020000Y0705250D03*
X1030000Y0705250D03*
X1040000Y0705250D03*
X1040000Y0495250D03*
X1050000Y0495250D03*
X1060000Y0495250D03*
X1070000Y0495250D03*
X1030000Y0495250D03*
X1020000Y0495250D03*
X1010000Y0495250D03*
X1000000Y0495250D03*
X0990000Y0495250D03*
D21*
X0890000Y0525250D03*
X0880000Y0525250D03*
X0880000Y0535250D03*
X0890000Y0535250D03*
X0870000Y0535250D03*
X0870000Y0525250D03*
X0860000Y0525250D03*
X0860000Y0535250D03*
X0850000Y0535250D03*
X0850000Y0525250D03*
D103*
X0850000Y0665250D03*
X0850000Y0705250D03*
D22*
X0850000Y0515250D03*
X0960000Y0495250D03*
D98*
X0850000Y0495250D03*
X0850000Y0505250D03*
X0970000Y0495250D03*
X0980000Y0495250D03*
D56*
X1074630Y0672570D03*
X1074630Y0705440D03*
D54*
X1062330Y0697760D02*
X1057590Y0697760D01*
X1057590Y0680240D02*
X1062330Y0680240D01*
D61*
X1008750Y0526500D03*
X1003750Y0526500D03*
X1003750Y0516500D03*
X1008750Y0516500D03*
X0845000Y0730000D02*
G75*
%LPD*%
D79*
X0850000Y0785250D03*
X0850000Y0795250D03*
X0850000Y0805250D03*
X0850000Y0815250D03*
X0850000Y0825250D03*
X0850000Y0915250D03*
X0850000Y0925250D03*
X0850000Y0935250D03*
X0860000Y0945250D03*
X0870000Y0945250D03*
X0880000Y0945250D03*
X0890000Y0945250D03*
X0900000Y0945250D03*
X0910000Y0945250D03*
X0920000Y0945250D03*
X0930000Y0945250D03*
X0940000Y0945250D03*
X0950000Y0945250D03*
X0960000Y0945250D03*
X0970000Y0945250D03*
X0980000Y0945250D03*
X0990000Y0945250D03*
X1000000Y0945250D03*
X1010000Y0945250D03*
X1020000Y0945250D03*
X1030000Y0945250D03*
X1040000Y0945250D03*
X1040000Y0735250D03*
X1050000Y0735250D03*
X1060000Y0735250D03*
X1070000Y0735250D03*
X1030000Y0735250D03*
X1020000Y0735250D03*
X1010000Y0735250D03*
X1000000Y0735250D03*
X0990000Y0735250D03*
D21*
X0890000Y0765250D03*
X0880000Y0765250D03*
X0880000Y0775250D03*
X0890000Y0775250D03*
X0870000Y0775250D03*
X0870000Y0765250D03*
X0860000Y0765250D03*
X0860000Y0775250D03*
X0850000Y0775250D03*
X0850000Y0765250D03*
D103*
X0850000Y0905250D03*
X0850000Y0945250D03*
D22*
X0850000Y0755250D03*
X0960000Y0735250D03*
D98*
X0850000Y0735250D03*
X0850000Y0745250D03*
X0970000Y0735250D03*
X0980000Y0735250D03*
D56*
X1074630Y0912570D03*
X1074630Y0945440D03*
D54*
X1062330Y0937760D02*
X1057590Y0937760D01*
X1057590Y0920240D02*
X1062330Y0920240D01*
D61*
X1008750Y0766500D03*
X1003750Y0766500D03*
X1003750Y0756500D03*
X1008750Y0756500D03*
X1090000Y0010000D02*
G75*
%LPD*%
D79*
X1095000Y0065250D03*
X1095000Y0075250D03*
X1095000Y0085250D03*
X1095000Y0095250D03*
X1095000Y0105250D03*
X1095000Y0195250D03*
X1095000Y0205250D03*
X1095000Y0215250D03*
X1105000Y0225250D03*
X1115000Y0225250D03*
X1125000Y0225250D03*
X1135000Y0225250D03*
X1145000Y0225250D03*
X1155000Y0225250D03*
X1165000Y0225250D03*
X1175000Y0225250D03*
X1185000Y0225250D03*
X1195000Y0225250D03*
X1205000Y0225250D03*
X1215000Y0225250D03*
X1225000Y0225250D03*
X1235000Y0225250D03*
X1245000Y0225250D03*
X1255000Y0225250D03*
X1265000Y0225250D03*
X1275000Y0225250D03*
X1285000Y0225250D03*
X1285000Y0015250D03*
X1295000Y0015250D03*
X1305000Y0015250D03*
X1315000Y0015250D03*
X1275000Y0015250D03*
X1265000Y0015250D03*
X1255000Y0015250D03*
X1245000Y0015250D03*
X1235000Y0015250D03*
D21*
X1135000Y0045250D03*
X1125000Y0045250D03*
X1125000Y0055250D03*
X1135000Y0055250D03*
X1115000Y0055250D03*
X1115000Y0045250D03*
X1105000Y0045250D03*
X1105000Y0055250D03*
X1095000Y0055250D03*
X1095000Y0045250D03*
D103*
X1095000Y0185250D03*
X1095000Y0225250D03*
D22*
X1095000Y0035250D03*
X1205000Y0015250D03*
D98*
X1095000Y0015250D03*
X1095000Y0025250D03*
X1215000Y0015250D03*
X1225000Y0015250D03*
D56*
X1319630Y0192570D03*
X1319630Y0225440D03*
D54*
X1307330Y0217760D02*
X1302590Y0217760D01*
X1302590Y0200240D02*
X1307330Y0200240D01*
D61*
X1253750Y0046500D03*
X1248750Y0046500D03*
X1248750Y0036500D03*
X1253750Y0036500D03*
X1090000Y0250000D02*
G75*
%LPD*%
D79*
X1095000Y0305250D03*
X1095000Y0315250D03*
X1095000Y0325250D03*
X1095000Y0335250D03*
X1095000Y0345250D03*
X1095000Y0435250D03*
X1095000Y0445250D03*
X1095000Y0455250D03*
X1105000Y0465250D03*
X1115000Y0465250D03*
X1125000Y0465250D03*
X1135000Y0465250D03*
X1145000Y0465250D03*
X1155000Y0465250D03*
X1165000Y0465250D03*
X1175000Y0465250D03*
X1185000Y0465250D03*
X1195000Y0465250D03*
X1205000Y0465250D03*
X1215000Y0465250D03*
X1225000Y0465250D03*
X1235000Y0465250D03*
X1245000Y0465250D03*
X1255000Y0465250D03*
X1265000Y0465250D03*
X1275000Y0465250D03*
X1285000Y0465250D03*
X1285000Y0255250D03*
X1295000Y0255250D03*
X1305000Y0255250D03*
X1315000Y0255250D03*
X1275000Y0255250D03*
X1265000Y0255250D03*
X1255000Y0255250D03*
X1245000Y0255250D03*
X1235000Y0255250D03*
D21*
X1135000Y0285250D03*
X1125000Y0285250D03*
X1125000Y0295250D03*
X1135000Y0295250D03*
X1115000Y0295250D03*
X1115000Y0285250D03*
X1105000Y0285250D03*
X1105000Y0295250D03*
X1095000Y0295250D03*
X1095000Y0285250D03*
D103*
X1095000Y0425250D03*
X1095000Y0465250D03*
D22*
X1095000Y0275250D03*
X1205000Y0255250D03*
D98*
X1095000Y0255250D03*
X1095000Y0265250D03*
X1215000Y0255250D03*
X1225000Y0255250D03*
D56*
X1319630Y0432570D03*
X1319630Y0465440D03*
D54*
X1307330Y0457760D02*
X1302590Y0457760D01*
X1302590Y0440240D02*
X1307330Y0440240D01*
D61*
X1253750Y0286500D03*
X1248750Y0286500D03*
X1248750Y0276500D03*
X1253750Y0276500D03*
X1090000Y0490000D02*
G75*
%LPD*%
D79*
X1095000Y0545250D03*
X1095000Y0555250D03*
X1095000Y0565250D03*
X1095000Y0575250D03*
X1095000Y0585250D03*
X1095000Y0675250D03*
X1095000Y0685250D03*
X1095000Y0695250D03*
X1105000Y0705250D03*
X1115000Y0705250D03*
X1125000Y0705250D03*
X1135000Y0705250D03*
X1145000Y0705250D03*
X1155000Y0705250D03*
X1165000Y0705250D03*
X1175000Y0705250D03*
X1185000Y0705250D03*
X1195000Y0705250D03*
X1205000Y0705250D03*
X1215000Y0705250D03*
X1225000Y0705250D03*
X1235000Y0705250D03*
X1245000Y0705250D03*
X1255000Y0705250D03*
X1265000Y0705250D03*
X1275000Y0705250D03*
X1285000Y0705250D03*
X1285000Y0495250D03*
X1295000Y0495250D03*
X1305000Y0495250D03*
X1315000Y0495250D03*
X1275000Y0495250D03*
X1265000Y0495250D03*
X1255000Y0495250D03*
X1245000Y0495250D03*
X1235000Y0495250D03*
D21*
X1135000Y0525250D03*
X1125000Y0525250D03*
X1125000Y0535250D03*
X1135000Y0535250D03*
X1115000Y0535250D03*
X1115000Y0525250D03*
X1105000Y0525250D03*
X1105000Y0535250D03*
X1095000Y0535250D03*
X1095000Y0525250D03*
D103*
X1095000Y0665250D03*
X1095000Y0705250D03*
D22*
X1095000Y0515250D03*
X1205000Y0495250D03*
D98*
X1095000Y0495250D03*
X1095000Y0505250D03*
X1215000Y0495250D03*
X1225000Y0495250D03*
D56*
X1319630Y0672570D03*
X1319630Y0705440D03*
D54*
X1307330Y0697760D02*
X1302590Y0697760D01*
X1302590Y0680240D02*
X1307330Y0680240D01*
D61*
X1253750Y0526500D03*
X1248750Y0526500D03*
X1248750Y0516500D03*
X1253750Y0516500D03*
X1090000Y0730000D02*
G75*
%LPD*%
D79*
X1095000Y0785250D03*
X1095000Y0795250D03*
X1095000Y0805250D03*
X1095000Y0815250D03*
X1095000Y0825250D03*
X1095000Y0915250D03*
X1095000Y0925250D03*
X1095000Y0935250D03*
X1105000Y0945250D03*
X1115000Y0945250D03*
X1125000Y0945250D03*
X1135000Y0945250D03*
X1145000Y0945250D03*
X1155000Y0945250D03*
X1165000Y0945250D03*
X1175000Y0945250D03*
X1185000Y0945250D03*
X1195000Y0945250D03*
X1205000Y0945250D03*
X1215000Y0945250D03*
X1225000Y0945250D03*
X1235000Y0945250D03*
X1245000Y0945250D03*
X1255000Y0945250D03*
X1265000Y0945250D03*
X1275000Y0945250D03*
X1285000Y0945250D03*
X1285000Y0735250D03*
X1295000Y0735250D03*
X1305000Y0735250D03*
X1315000Y0735250D03*
X1275000Y0735250D03*
X1265000Y0735250D03*
X1255000Y0735250D03*
X1245000Y0735250D03*
X1235000Y0735250D03*
D21*
X1135000Y0765250D03*
X1125000Y0765250D03*
X1125000Y0775250D03*
X1135000Y0775250D03*
X1115000Y0775250D03*
X1115000Y0765250D03*
X1105000Y0765250D03*
X1105000Y0775250D03*
X1095000Y0775250D03*
X1095000Y0765250D03*
D103*
X1095000Y0905250D03*
X1095000Y0945250D03*
D22*
X1095000Y0755250D03*
X1205000Y0735250D03*
D98*
X1095000Y0735250D03*
X1095000Y0745250D03*
X1215000Y0735250D03*
X1225000Y0735250D03*
D56*
X1319630Y0912570D03*
X1319630Y0945440D03*
D54*
X1307330Y0937760D02*
X1302590Y0937760D01*
X1302590Y0920240D02*
X1307330Y0920240D01*
D61*
X1253750Y0766500D03*
X1248750Y0766500D03*
X1248750Y0756500D03*
X1253750Y0756500D03*
X1335000Y0010000D02*
G75*
%LPD*%
D83*
X1348990Y0036890D03*
X1348990Y0055000D03*
X1369660Y0055000D03*
X1390330Y0055000D03*
X1390330Y0036890D03*
X1369660Y0036890D03*
X1411000Y0036890D03*
X1411000Y0055000D03*
X1411000Y0073110D03*
X1390330Y0073110D03*
X1369660Y0073110D03*
X1348990Y0073110D03*
D79*
X1340000Y0015000D03*
X1350000Y0015000D03*
X1360000Y0015000D03*
X1370000Y0015000D03*
X1380000Y0015000D03*
X1390000Y0015000D03*
X1400000Y0015000D03*
X1410000Y0015000D03*
X1420000Y0015000D03*
X1335000Y0091000D02*
G75*
%LPD*%
D83*
X1348990Y0117890D03*
X1348990Y0136000D03*
X1369660Y0136000D03*
X1390330Y0136000D03*
X1390330Y0117890D03*
X1369660Y0117890D03*
X1411000Y0117890D03*
X1411000Y0136000D03*
X1411000Y0154110D03*
X1390330Y0154110D03*
X1369660Y0154110D03*
X1348990Y0154110D03*
D79*
X1340000Y0096000D03*
X1350000Y0096000D03*
X1360000Y0096000D03*
X1370000Y0096000D03*
X1380000Y0096000D03*
X1390000Y0096000D03*
X1400000Y0096000D03*
X1410000Y0096000D03*
X1420000Y0096000D03*
X1335000Y0172000D02*
G75*
%LPD*%
D83*
X1348990Y0198890D03*
X1348990Y0217000D03*
X1369660Y0217000D03*
X1390330Y0217000D03*
X1390330Y0198890D03*
X1369660Y0198890D03*
X1411000Y0198890D03*
X1411000Y0217000D03*
X1411000Y0235110D03*
X1390330Y0235110D03*
X1369660Y0235110D03*
X1348990Y0235110D03*
D79*
X1340000Y0177000D03*
X1350000Y0177000D03*
X1360000Y0177000D03*
X1370000Y0177000D03*
X1380000Y0177000D03*
X1390000Y0177000D03*
X1400000Y0177000D03*
X1410000Y0177000D03*
X1420000Y0177000D03*
X1335000Y0253000D02*
G75*
%LPD*%
D83*
X1348990Y0279890D03*
X1348990Y0298000D03*
X1369660Y0298000D03*
X1390330Y0298000D03*
X1390330Y0279890D03*
X1369660Y0279890D03*
X1411000Y0279890D03*
X1411000Y0298000D03*
X1411000Y0316110D03*
X1390330Y0316110D03*
X1369660Y0316110D03*
X1348990Y0316110D03*
D79*
X1340000Y0258000D03*
X1350000Y0258000D03*
X1360000Y0258000D03*
X1370000Y0258000D03*
X1380000Y0258000D03*
X1390000Y0258000D03*
X1400000Y0258000D03*
X1410000Y0258000D03*
X1420000Y0258000D03*
X1335000Y0334000D02*
G75*
%LPD*%
D83*
X1348990Y0360890D03*
X1348990Y0379000D03*
X1369660Y0379000D03*
X1390330Y0379000D03*
X1390330Y0360890D03*
X1369660Y0360890D03*
X1411000Y0360890D03*
X1411000Y0379000D03*
X1411000Y0397110D03*
X1390330Y0397110D03*
X1369660Y0397110D03*
X1348990Y0397110D03*
D79*
X1340000Y0339000D03*
X1350000Y0339000D03*
X1360000Y0339000D03*
X1370000Y0339000D03*
X1380000Y0339000D03*
X1390000Y0339000D03*
X1400000Y0339000D03*
X1410000Y0339000D03*
X1420000Y0339000D03*
X1335000Y0415000D02*
G75*
%LPD*%
D83*
X1348990Y0441890D03*
X1348990Y0460000D03*
X1369660Y0460000D03*
X1390330Y0460000D03*
X1390330Y0441890D03*
X1369660Y0441890D03*
X1411000Y0441890D03*
X1411000Y0460000D03*
X1411000Y0478110D03*
X1390330Y0478110D03*
X1369660Y0478110D03*
X1348990Y0478110D03*
D79*
X1340000Y0420000D03*
X1350000Y0420000D03*
X1360000Y0420000D03*
X1370000Y0420000D03*
X1380000Y0420000D03*
X1390000Y0420000D03*
X1400000Y0420000D03*
X1410000Y0420000D03*
X1420000Y0420000D03*
X1335000Y0496000D02*
G75*
%LPD*%
D83*
X1348990Y0522890D03*
X1348990Y0541000D03*
X1369660Y0541000D03*
X1390330Y0541000D03*
X1390330Y0522890D03*
X1369660Y0522890D03*
X1411000Y0522890D03*
X1411000Y0541000D03*
X1411000Y0559110D03*
X1390330Y0559110D03*
X1369660Y0559110D03*
X1348990Y0559110D03*
D79*
X1340000Y0501000D03*
X1350000Y0501000D03*
X1360000Y0501000D03*
X1370000Y0501000D03*
X1380000Y0501000D03*
X1390000Y0501000D03*
X1400000Y0501000D03*
X1410000Y0501000D03*
X1420000Y0501000D03*
X1335000Y0577000D02*
G75*
%LPD*%
D83*
X1348990Y0603890D03*
X1348990Y0622000D03*
X1369660Y0622000D03*
X1390330Y0622000D03*
X1390330Y0603890D03*
X1369660Y0603890D03*
X1411000Y0603890D03*
X1411000Y0622000D03*
X1411000Y0640110D03*
X1390330Y0640110D03*
X1369660Y0640110D03*
X1348990Y0640110D03*
D79*
X1340000Y0582000D03*
X1350000Y0582000D03*
X1360000Y0582000D03*
X1370000Y0582000D03*
X1380000Y0582000D03*
X1390000Y0582000D03*
X1400000Y0582000D03*
X1410000Y0582000D03*
X1420000Y0582000D03*
X1335000Y0658000D02*
G75*
%LPD*%
D83*
X1348990Y0684890D03*
X1348990Y0703000D03*
X1369660Y0703000D03*
X1390330Y0703000D03*
X1390330Y0684890D03*
X1369660Y0684890D03*
X1411000Y0684890D03*
X1411000Y0703000D03*
X1411000Y0721110D03*
X1390330Y0721110D03*
X1369660Y0721110D03*
X1348990Y0721110D03*
D79*
X1340000Y0663000D03*
X1350000Y0663000D03*
X1360000Y0663000D03*
X1370000Y0663000D03*
X1380000Y0663000D03*
X1390000Y0663000D03*
X1400000Y0663000D03*
X1410000Y0663000D03*
X1420000Y0663000D03*
X1335000Y0739000D02*
G75*
%LPD*%
D83*
X1348990Y0765890D03*
X1348990Y0784000D03*
X1369660Y0784000D03*
X1390330Y0784000D03*
X1390330Y0765890D03*
X1369660Y0765890D03*
X1411000Y0765890D03*
X1411000Y0784000D03*
X1411000Y0802110D03*
X1390330Y0802110D03*
X1369660Y0802110D03*
X1348990Y0802110D03*
D79*
X1340000Y0744000D03*
X1350000Y0744000D03*
X1360000Y0744000D03*
X1370000Y0744000D03*
X1380000Y0744000D03*
X1390000Y0744000D03*
X1400000Y0744000D03*
X1410000Y0744000D03*
X1420000Y0744000D03*
X1335000Y0820000D02*
G75*
%LPD*%
D83*
X1348990Y0846890D03*
X1348990Y0865000D03*
X1369660Y0865000D03*
X1390330Y0865000D03*
X1390330Y0846890D03*
X1369660Y0846890D03*
X1411000Y0846890D03*
X1411000Y0865000D03*
X1411000Y0883110D03*
X1390330Y0883110D03*
X1369660Y0883110D03*
X1348990Y0883110D03*
D79*
X1340000Y0825000D03*
X1350000Y0825000D03*
X1360000Y0825000D03*
X1370000Y0825000D03*
X1380000Y0825000D03*
X1390000Y0825000D03*
X1400000Y0825000D03*
X1410000Y0825000D03*
X1420000Y0825000D03*
X1335000Y0901000D02*
G75*
%LPD*%
D83*
X1348990Y0927890D03*
X1348990Y0946000D03*
X1369660Y0946000D03*
X1390330Y0946000D03*
X1390330Y0927890D03*
X1369660Y0927890D03*
X1411000Y0927890D03*
X1411000Y0946000D03*
X1411000Y0964110D03*
X1390330Y0964110D03*
X1369660Y0964110D03*
X1348990Y0964110D03*
D79*
X1340000Y0906000D03*
X1350000Y0906000D03*
X1360000Y0906000D03*
X1370000Y0906000D03*
X1380000Y0906000D03*
X1390000Y0906000D03*
X1400000Y0906000D03*
X1410000Y0906000D03*
X1420000Y0906000D03*
X1435000Y0010000D02*
G75*
%LPD*%
D83*
X1448990Y0036890D03*
X1448990Y0055000D03*
X1469660Y0055000D03*
X1490330Y0055000D03*
X1490330Y0036890D03*
X1469660Y0036890D03*
X1511000Y0036890D03*
X1511000Y0055000D03*
X1511000Y0073110D03*
X1490330Y0073110D03*
X1469660Y0073110D03*
X1448990Y0073110D03*
D79*
X1440000Y0015000D03*
X1450000Y0015000D03*
X1460000Y0015000D03*
X1470000Y0015000D03*
X1480000Y0015000D03*
X1490000Y0015000D03*
X1500000Y0015000D03*
X1510000Y0015000D03*
X1520000Y0015000D03*
X1435000Y0091000D02*
G75*
%LPD*%
D83*
X1448990Y0117890D03*
X1448990Y0136000D03*
X1469660Y0136000D03*
X1490330Y0136000D03*
X1490330Y0117890D03*
X1469660Y0117890D03*
X1511000Y0117890D03*
X1511000Y0136000D03*
X1511000Y0154110D03*
X1490330Y0154110D03*
X1469660Y0154110D03*
X1448990Y0154110D03*
D79*
X1440000Y0096000D03*
X1450000Y0096000D03*
X1460000Y0096000D03*
X1470000Y0096000D03*
X1480000Y0096000D03*
X1490000Y0096000D03*
X1500000Y0096000D03*
X1510000Y0096000D03*
X1520000Y0096000D03*
X1435000Y0172000D02*
G75*
%LPD*%
D83*
X1448990Y0198890D03*
X1448990Y0217000D03*
X1469660Y0217000D03*
X1490330Y0217000D03*
X1490330Y0198890D03*
X1469660Y0198890D03*
X1511000Y0198890D03*
X1511000Y0217000D03*
X1511000Y0235110D03*
X1490330Y0235110D03*
X1469660Y0235110D03*
X1448990Y0235110D03*
D79*
X1440000Y0177000D03*
X1450000Y0177000D03*
X1460000Y0177000D03*
X1470000Y0177000D03*
X1480000Y0177000D03*
X1490000Y0177000D03*
X1500000Y0177000D03*
X1510000Y0177000D03*
X1520000Y0177000D03*
X1435000Y0253000D02*
G75*
%LPD*%
D83*
X1448990Y0279890D03*
X1448990Y0298000D03*
X1469660Y0298000D03*
X1490330Y0298000D03*
X1490330Y0279890D03*
X1469660Y0279890D03*
X1511000Y0279890D03*
X1511000Y0298000D03*
X1511000Y0316110D03*
X1490330Y0316110D03*
X1469660Y0316110D03*
X1448990Y0316110D03*
D79*
X1440000Y0258000D03*
X1450000Y0258000D03*
X1460000Y0258000D03*
X1470000Y0258000D03*
X1480000Y0258000D03*
X1490000Y0258000D03*
X1500000Y0258000D03*
X1510000Y0258000D03*
X1520000Y0258000D03*
X1435000Y0334000D02*
G75*
%LPD*%
D83*
X1448990Y0360890D03*
X1448990Y0379000D03*
X1469660Y0379000D03*
X1490330Y0379000D03*
X1490330Y0360890D03*
X1469660Y0360890D03*
X1511000Y0360890D03*
X1511000Y0379000D03*
X1511000Y0397110D03*
X1490330Y0397110D03*
X1469660Y0397110D03*
X1448990Y0397110D03*
D79*
X1440000Y0339000D03*
X1450000Y0339000D03*
X1460000Y0339000D03*
X1470000Y0339000D03*
X1480000Y0339000D03*
X1490000Y0339000D03*
X1500000Y0339000D03*
X1510000Y0339000D03*
X1520000Y0339000D03*
X1435000Y0415000D02*
G75*
%LPD*%
D83*
X1448990Y0441890D03*
X1448990Y0460000D03*
X1469660Y0460000D03*
X1490330Y0460000D03*
X1490330Y0441890D03*
X1469660Y0441890D03*
X1511000Y0441890D03*
X1511000Y0460000D03*
X1511000Y0478110D03*
X1490330Y0478110D03*
X1469660Y0478110D03*
X1448990Y0478110D03*
D79*
X1440000Y0420000D03*
X1450000Y0420000D03*
X1460000Y0420000D03*
X1470000Y0420000D03*
X1480000Y0420000D03*
X1490000Y0420000D03*
X1500000Y0420000D03*
X1510000Y0420000D03*
X1520000Y0420000D03*
X1435000Y0496000D02*
G75*
%LPD*%
D83*
X1448990Y0522890D03*
X1448990Y0541000D03*
X1469660Y0541000D03*
X1490330Y0541000D03*
X1490330Y0522890D03*
X1469660Y0522890D03*
X1511000Y0522890D03*
X1511000Y0541000D03*
X1511000Y0559110D03*
X1490330Y0559110D03*
X1469660Y0559110D03*
X1448990Y0559110D03*
D79*
X1440000Y0501000D03*
X1450000Y0501000D03*
X1460000Y0501000D03*
X1470000Y0501000D03*
X1480000Y0501000D03*
X1490000Y0501000D03*
X1500000Y0501000D03*
X1510000Y0501000D03*
X1520000Y0501000D03*
X1435000Y0577000D02*
G75*
%LPD*%
D83*
X1448990Y0603890D03*
X1448990Y0622000D03*
X1469660Y0622000D03*
X1490330Y0622000D03*
X1490330Y0603890D03*
X1469660Y0603890D03*
X1511000Y0603890D03*
X1511000Y0622000D03*
X1511000Y0640110D03*
X1490330Y0640110D03*
X1469660Y0640110D03*
X1448990Y0640110D03*
D79*
X1440000Y0582000D03*
X1450000Y0582000D03*
X1460000Y0582000D03*
X1470000Y0582000D03*
X1480000Y0582000D03*
X1490000Y0582000D03*
X1500000Y0582000D03*
X1510000Y0582000D03*
X1520000Y0582000D03*
X1435000Y0658000D02*
G75*
%LPD*%
D83*
X1448990Y0684890D03*
X1448990Y0703000D03*
X1469660Y0703000D03*
X1490330Y0703000D03*
X1490330Y0684890D03*
X1469660Y0684890D03*
X1511000Y0684890D03*
X1511000Y0703000D03*
X1511000Y0721110D03*
X1490330Y0721110D03*
X1469660Y0721110D03*
X1448990Y0721110D03*
D79*
X1440000Y0663000D03*
X1450000Y0663000D03*
X1460000Y0663000D03*
X1470000Y0663000D03*
X1480000Y0663000D03*
X1490000Y0663000D03*
X1500000Y0663000D03*
X1510000Y0663000D03*
X1520000Y0663000D03*
X1435000Y0739000D02*
G75*
%LPD*%
D83*
X1448990Y0765890D03*
X1448990Y0784000D03*
X1469660Y0784000D03*
X1490330Y0784000D03*
X1490330Y0765890D03*
X1469660Y0765890D03*
X1511000Y0765890D03*
X1511000Y0784000D03*
X1511000Y0802110D03*
X1490330Y0802110D03*
X1469660Y0802110D03*
X1448990Y0802110D03*
D79*
X1440000Y0744000D03*
X1450000Y0744000D03*
X1460000Y0744000D03*
X1470000Y0744000D03*
X1480000Y0744000D03*
X1490000Y0744000D03*
X1500000Y0744000D03*
X1510000Y0744000D03*
X1520000Y0744000D03*
X1435000Y0820000D02*
G75*
%LPD*%
D83*
X1448990Y0846890D03*
X1448990Y0865000D03*
X1469660Y0865000D03*
X1490330Y0865000D03*
X1490330Y0846890D03*
X1469660Y0846890D03*
X1511000Y0846890D03*
X1511000Y0865000D03*
X1511000Y0883110D03*
X1490330Y0883110D03*
X1469660Y0883110D03*
X1448990Y0883110D03*
D79*
X1440000Y0825000D03*
X1450000Y0825000D03*
X1460000Y0825000D03*
X1470000Y0825000D03*
X1480000Y0825000D03*
X1490000Y0825000D03*
X1500000Y0825000D03*
X1510000Y0825000D03*
X1520000Y0825000D03*
X1435000Y0901000D02*
G75*
%LPD*%
D83*
X1448990Y0927890D03*
X1448990Y0946000D03*
X1469660Y0946000D03*
X1490330Y0946000D03*
X1490330Y0927890D03*
X1469660Y0927890D03*
X1511000Y0927890D03*
X1511000Y0946000D03*
X1511000Y0964110D03*
X1490330Y0964110D03*
X1469660Y0964110D03*
X1448990Y0964110D03*
D79*
X1440000Y0906000D03*
X1450000Y0906000D03*
X1460000Y0906000D03*
X1470000Y0906000D03*
X1480000Y0906000D03*
X1490000Y0906000D03*
X1500000Y0906000D03*
X1510000Y0906000D03*
X1520000Y0906000D03*
X1535000Y0010000D02*
G75*
%LPD*%
D83*
X1579360Y0023990D03*
X1561250Y0023990D03*
X1561250Y0044660D03*
X1561250Y0065330D03*
X1579360Y0065330D03*
X1579360Y0044660D03*
X1579360Y0086000D03*
X1561250Y0086000D03*
X1543140Y0086000D03*
X1543140Y0065330D03*
X1543140Y0044660D03*
X1543140Y0023990D03*
D79*
X1601250Y0015000D03*
X1601250Y0025000D03*
X1601250Y0035000D03*
X1601250Y0045000D03*
X1601250Y0055000D03*
X1601250Y0065000D03*
X1601250Y0075000D03*
X1601250Y0085000D03*
X1601250Y0095000D03*
X1535000Y0110000D02*
G75*
%LPD*%
D83*
X1579360Y0123990D03*
X1561250Y0123990D03*
X1561250Y0144660D03*
X1561250Y0165330D03*
X1579360Y0165330D03*
X1579360Y0144660D03*
X1579360Y0186000D03*
X1561250Y0186000D03*
X1543140Y0186000D03*
X1543140Y0165330D03*
X1543140Y0144660D03*
X1543140Y0123990D03*
D79*
X1601250Y0115000D03*
X1601250Y0125000D03*
X1601250Y0135000D03*
X1601250Y0145000D03*
X1601250Y0155000D03*
X1601250Y0165000D03*
X1601250Y0175000D03*
X1601250Y0185000D03*
X1601250Y0195000D03*
X1535000Y0210000D02*
G75*
%LPD*%
D83*
X1579360Y0223990D03*
X1561250Y0223990D03*
X1561250Y0244660D03*
X1561250Y0265330D03*
X1579360Y0265330D03*
X1579360Y0244660D03*
X1579360Y0286000D03*
X1561250Y0286000D03*
X1543140Y0286000D03*
X1543140Y0265330D03*
X1543140Y0244660D03*
X1543140Y0223990D03*
D79*
X1601250Y0215000D03*
X1601250Y0225000D03*
X1601250Y0235000D03*
X1601250Y0245000D03*
X1601250Y0255000D03*
X1601250Y0265000D03*
X1601250Y0275000D03*
X1601250Y0285000D03*
X1601250Y0295000D03*
X1535000Y0310000D02*
G75*
%LPD*%
D83*
X1579360Y0323990D03*
X1561250Y0323990D03*
X1561250Y0344660D03*
X1561250Y0365330D03*
X1579360Y0365330D03*
X1579360Y0344660D03*
X1579360Y0386000D03*
X1561250Y0386000D03*
X1543140Y0386000D03*
X1543140Y0365330D03*
X1543140Y0344660D03*
X1543140Y0323990D03*
D79*
X1601250Y0315000D03*
X1601250Y0325000D03*
X1601250Y0335000D03*
X1601250Y0345000D03*
X1601250Y0355000D03*
X1601250Y0365000D03*
X1601250Y0375000D03*
X1601250Y0385000D03*
X1601250Y0395000D03*
X1535000Y0410000D02*
G75*
%LPD*%
D83*
X1579360Y0423990D03*
X1561250Y0423990D03*
X1561250Y0444660D03*
X1561250Y0465330D03*
X1579360Y0465330D03*
X1579360Y0444660D03*
X1579360Y0486000D03*
X1561250Y0486000D03*
X1543140Y0486000D03*
X1543140Y0465330D03*
X1543140Y0444660D03*
X1543140Y0423990D03*
D79*
X1601250Y0415000D03*
X1601250Y0425000D03*
X1601250Y0435000D03*
X1601250Y0445000D03*
X1601250Y0455000D03*
X1601250Y0465000D03*
X1601250Y0475000D03*
X1601250Y0485000D03*
X1601250Y0495000D03*
X1535000Y0510000D02*
G75*
%LPD*%
D83*
X1579360Y0523990D03*
X1561250Y0523990D03*
X1561250Y0544660D03*
X1561250Y0565330D03*
X1579360Y0565330D03*
X1579360Y0544660D03*
X1579360Y0586000D03*
X1561250Y0586000D03*
X1543140Y0586000D03*
X1543140Y0565330D03*
X1543140Y0544660D03*
X1543140Y0523990D03*
D79*
X1601250Y0515000D03*
X1601250Y0525000D03*
X1601250Y0535000D03*
X1601250Y0545000D03*
X1601250Y0555000D03*
X1601250Y0565000D03*
X1601250Y0575000D03*
X1601250Y0585000D03*
X1601250Y0595000D03*
X1535000Y0610000D02*
G75*
%LPD*%
D83*
X1579360Y0623990D03*
X1561250Y0623990D03*
X1561250Y0644660D03*
X1561250Y0665330D03*
X1579360Y0665330D03*
X1579360Y0644660D03*
X1579360Y0686000D03*
X1561250Y0686000D03*
X1543140Y0686000D03*
X1543140Y0665330D03*
X1543140Y0644660D03*
X1543140Y0623990D03*
D79*
X1601250Y0615000D03*
X1601250Y0625000D03*
X1601250Y0635000D03*
X1601250Y0645000D03*
X1601250Y0655000D03*
X1601250Y0665000D03*
X1601250Y0675000D03*
X1601250Y0685000D03*
X1601250Y0695000D03*
X1535000Y0710000D02*
G75*
%LPD*%
D83*
X1579360Y0723990D03*
X1561250Y0723990D03*
X1561250Y0744660D03*
X1561250Y0765330D03*
X1579360Y0765330D03*
X1579360Y0744660D03*
X1579360Y0786000D03*
X1561250Y0786000D03*
X1543140Y0786000D03*
X1543140Y0765330D03*
X1543140Y0744660D03*
X1543140Y0723990D03*
D79*
X1601250Y0715000D03*
X1601250Y0725000D03*
X1601250Y0735000D03*
X1601250Y0745000D03*
X1601250Y0755000D03*
X1601250Y0765000D03*
X1601250Y0775000D03*
X1601250Y0785000D03*
X1601250Y0795000D03*
X1535000Y0810000D02*
G75*
%LPD*%
D83*
X1579360Y0823990D03*
X1561250Y0823990D03*
X1561250Y0844660D03*
X1561250Y0865330D03*
X1579360Y0865330D03*
X1579360Y0844660D03*
X1579360Y0886000D03*
X1561250Y0886000D03*
X1543140Y0886000D03*
X1543140Y0865330D03*
X1543140Y0844660D03*
X1543140Y0823990D03*
D79*
X1601250Y0815000D03*
X1601250Y0825000D03*
X1601250Y0835000D03*
X1601250Y0845000D03*
X1601250Y0855000D03*
X1601250Y0865000D03*
X1601250Y0875000D03*
X1601250Y0885000D03*
X1601250Y0895000D03*
X1535000Y0910000D02*
G75*
%LPD*%
D83*
X1579360Y0923990D03*
X1561250Y0923990D03*
X1561250Y0944660D03*
X1561250Y0965330D03*
X1579360Y0965330D03*
X1579360Y0944660D03*
X1579360Y0986000D03*
X1561250Y0986000D03*
X1543140Y0986000D03*
X1543140Y0965330D03*
X1543140Y0944660D03*
X1543140Y0923990D03*
D79*
X1601250Y0915000D03*
X1601250Y0925000D03*
X1601250Y0935000D03*
X1601250Y0945000D03*
X1601250Y0955000D03*
X1601250Y0965000D03*
X1601250Y0975000D03*
X1601250Y0985000D03*
X1601250Y0995000D03*
M02*
