%
T01C0.021650
X2249Y22851
X4001Y22851
X22625Y5750
X21750Y5750
X19000Y9500
X17750Y9500
X17750Y10250
X17500Y10750
X17375Y11750
X18250Y12500
X18750Y13000
X19250Y12500
X18750Y12000
X19000Y11250
X20750Y13500
X21750Y16250
X21000Y16750
X20375Y16750
X20375Y17250
X19375Y17250
X19375Y16750
X18250Y16375
X18375Y13750
X15375Y17250
X15955Y18170
X16250Y18625
X16500Y19000
X16750Y19375
X17875Y20125
X18750Y20125
X21750Y18250
X22500Y21250
X15125Y15375
X14875Y15750
X14625Y16125
X14375Y16500
X12420Y18170
X12375Y17375
X11250Y16625
X11000Y16250
X10750Y15875
X10500Y15500
X9375Y15500
X8875Y14875
X8625Y15250
X7875Y14750
X7375Y14750
X7375Y14250
X7000Y13500
X7375Y12750
X8500Y12750
X9250Y11500
X9750Y11500
X10250Y11500
X11250Y11250
X12375Y10750
X12375Y9750
X13750Y11000
X13250Y11750
X13750Y13250
X13250Y13375
X12375Y13750
X12250Y14250
X12000Y14625
X12250Y15000
X10625Y16875
X10125Y17000
X9000Y18625
X8500Y18625
X7750Y18875
X7000Y17500
X7333Y17167
X7420Y15500
X6625Y14500
X6250Y14875
X5875Y15250
X5250Y15625
X5500Y16000
X5750Y16375
X5625Y17000
X5000Y15250
X4750Y14875
X4500Y14500
X4500Y14000
X5000Y13875
X5000Y12750
X5000Y12250
X4500Y11875
X4000Y10750
X4000Y10000
X3000Y10000
X3000Y8750
X2500Y8250
X2500Y7750
X2875Y7250
X3500Y7250
X3500Y7750
X1750Y8000
X2875Y5750
X3500Y5750
X3250Y4500
X3750Y3500
X5250Y5750
X5250Y6250
X5250Y7000
X5250Y7500
X5125Y8875
X5125Y9500
X5750Y10250
X5250Y10750
X5500Y11250
X6250Y11500
X6750Y11500
X7250Y11500
X6250Y11000
X8500Y10750
X8750Y9000
X10000Y9250
X10250Y9750
X11750Y7750
X11500Y7250
X11250Y6875
X11000Y6500
X10750Y6125
X10500Y5750
X10000Y5000
X9500Y5250
X10500Y4750
X11000Y4500
X11500Y5000
X11250Y5375
X12125Y4875
X13750Y4750
X13750Y5250
X13625Y3875
X13375Y2875
X11750Y2875
X10250Y2875
X9000Y3000
X7500Y3000
X6250Y3250
X6125Y2875
X12375Y7375
X15000Y9250
X15250Y7000
X15250Y4375
X15625Y3875
X15250Y3500
X15250Y2750
X17750Y6000
X9125Y14500
X11742Y18617
X11427Y18927
X11112Y19237
X9500Y23375
X8000Y23375
X6276Y21625
X6250Y21125
X6250Y20625
X5000Y19750
X4000Y20625
X4375Y21125
X4750Y21625
X3500Y21250
X3000Y20000
X2375Y19500
X2625Y17500
X2375Y17000
X2000Y16125
X2375Y15375
X40600Y17811
X38225Y19186
X36850Y20686
X37850Y21186
X37350Y22686
X40350Y26436
X38850Y27186
X42975Y25311
X44475Y23186
X46100Y25311
X36350Y18436
X32850Y20686
X29350Y21186
X29225Y25811
X32225Y30061
X33350Y29061
X29850Y31186
X29225Y30561
X30100Y13061
X29475Y12561
X28475Y11686
X26132Y11010
X26132Y12762
X30600Y8436
X32100Y8436
X40350Y12186
X72925Y17811
X70550Y19186
X69175Y20686
X70175Y21186
X69675Y22686
X72675Y26436
X71175Y27186
X75300Y25311
X76800Y23186
X78425Y25311
X68675Y18436
X65175Y20686
X61675Y21186
X61550Y25811
X64550Y30061
X65675Y29061
X62175Y31186
X61550Y30561
X62425Y13061
X61800Y12561
X60800Y11686
X58457Y11010
X58457Y12762
X62925Y8436
X64425Y8436
X72675Y12186
X105250Y17811
X102875Y19186
X101500Y20686
X102500Y21186
X102000Y22686
X105000Y26436
X103500Y27186
X107625Y25311
X109125Y23186
X110750Y25311
X101000Y18436
X97500Y20686
X94000Y21186
X93875Y25811
X96875Y30061
X98000Y29061
X94500Y31186
X93875Y30561
X94750Y13061
X94125Y12561
X93125Y11686
X90782Y11010
X90782Y12762
X95250Y8436
X96750Y8436
X105000Y12186
X138186Y15875
X139561Y18250
X141061Y19625
X141561Y18625
X143061Y19125
X146811Y16125
X147561Y17625
X145686Y13500
X143561Y12000
X145686Y10375
X138811Y20125
X141061Y23625
X141561Y27125
X146186Y27250
X150436Y24250
X149436Y23125
X151561Y26625
X150936Y27250
X133436Y26375
X132936Y27000
X132061Y28000
X131385Y30343
X133137Y30343
X128811Y25875
X128811Y24375
X132561Y16125
X138186Y48200
X139561Y50575
X141061Y51950
X141561Y50950
X143061Y51450
X146811Y48450
X147561Y49950
X145686Y45825
X143561Y44325
X145686Y42700
X138811Y52450
X141061Y55950
X141561Y59450
X146186Y59575
X150436Y56575
X149436Y55450
X151561Y58950
X150936Y59575
X133436Y58700
X132936Y59325
X132061Y60325
X131385Y62668
X133137Y62668
X128811Y58200
X128811Y56700
X132561Y48450
X2249Y47723
X4001Y47723
X22625Y30622
X21750Y30622
X19000Y34372
X17750Y34372
X17750Y35122
X17500Y35622
X17375Y36622
X18250Y37372
X18750Y37872
X19250Y37372
X18750Y36872
X19000Y36122
X20750Y38372
X21750Y41122
X21000Y41622
X20375Y41622
X20375Y42122
X19375Y42122
X19375Y41622
X18250Y41247
X18375Y38622
X15375Y42122
X15955Y43042
X16250Y43497
X16500Y43872
X16750Y44247
X17875Y44997
X18750Y44997
X21750Y43122
X22500Y46122
X15125Y40247
X14875Y40622
X14625Y40997
X14375Y41372
X12420Y43042
X12375Y42247
X11250Y41497
X11000Y41122
X10750Y40747
X10500Y40372
X9375Y40372
X8875Y39747
X8625Y40122
X7875Y39622
X7375Y39622
X7375Y39122
X7000Y38372
X7375Y37622
X8500Y37622
X9250Y36372
X9750Y36372
X10250Y36372
X11250Y36122
X12375Y35622
X12375Y34622
X13750Y35872
X13250Y36622
X13750Y38122
X13250Y38247
X12375Y38622
X12250Y39122
X12000Y39497
X12250Y39872
X10625Y41747
X10125Y41872
X9000Y43497
X8500Y43497
X7750Y43747
X7000Y42372
X7333Y42039
X7420Y40372
X6625Y39372
X6250Y39747
X5875Y40122
X5250Y40497
X5500Y40872
X5750Y41247
X5625Y41872
X5000Y40122
X4750Y39747
X4500Y39372
X4500Y38872
X5000Y38747
X5000Y37622
X5000Y37122
X4500Y36747
X4000Y35622
X4000Y34872
X3000Y34872
X3000Y33622
X2500Y33122
X2500Y32622
X2875Y32122
X3500Y32122
X3500Y32622
X1750Y32872
X2875Y30622
X3500Y30622
X3250Y29372
X3750Y28372
X5250Y30622
X5250Y31122
X5250Y31872
X5250Y32372
X5125Y33747
X5125Y34372
X5750Y35122
X5250Y35622
X5500Y36122
X6250Y36372
X6750Y36372
X7250Y36372
X6250Y35872
X8500Y35622
X8750Y33872
X10000Y34122
X10250Y34622
X11750Y32622
X11500Y32122
X11250Y31747
X11000Y31372
X10750Y30997
X10500Y30622
X10000Y29872
X9500Y30122
X10500Y29622
X11000Y29372
X11500Y29872
X11250Y30247
X12125Y29747
X13750Y29622
X13750Y30122
X13625Y28747
X13375Y27747
X11750Y27747
X10250Y27747
X9000Y27872
X7500Y27872
X6250Y28122
X6125Y27747
X12375Y32247
X15000Y34122
X15250Y31872
X15250Y29247
X15625Y28747
X15250Y28372
X15250Y27622
X17750Y30872
X9125Y39372
X11742Y43489
X11427Y43799
X11112Y44109
X9500Y48247
X8000Y48247
X6276Y46497
X6250Y45997
X6250Y45497
X5000Y44622
X4000Y45497
X4375Y45997
X4750Y46497
X3500Y46122
X3000Y44872
X2375Y44372
X2625Y42372
X2375Y41872
X2000Y40997
X2375Y40247
X22851Y71645
X22851Y69893
X5750Y51269
X5750Y52144
X9500Y54894
X9500Y56144
X10250Y56144
X10750Y56394
X11750Y56519
X12500Y55644
X13000Y55144
X12500Y54644
X12000Y55144
X11250Y54894
X13500Y53144
X16250Y52144
X16750Y52894
X16750Y53519
X17250Y53519
X17250Y54519
X16750Y54519
X16375Y55644
X13750Y55519
X17250Y58519
X18170Y57939
X18625Y57644
X19000Y57394
X19375Y57144
X20125Y56019
X20125Y55144
X18250Y52144
X21250Y51394
X15375Y58769
X15750Y59019
X16125Y59269
X16500Y59519
X18170Y61474
X17375Y61519
X16625Y62644
X16250Y62894
X15875Y63144
X15500Y63394
X15500Y64519
X14875Y65019
X15250Y65269
X14750Y66019
X14750Y66519
X14250Y66519
X13500Y66894
X12750Y66519
X12750Y65394
X11500Y64644
X11500Y64144
X11500Y63644
X11250Y62644
X10750Y61519
X9750Y61519
X11000Y60144
X11750Y60644
X13250Y60144
X13375Y60644
X13750Y61519
X14250Y61644
X14625Y61894
X15000Y61644
X16875Y63269
X17000Y63769
X18625Y64894
X18625Y65394
X18875Y66144
X17500Y66894
X17167Y66561
X15500Y66474
X14500Y67269
X14875Y67644
X15250Y68019
X15625Y68644
X16000Y68394
X16375Y68144
X17000Y68269
X15250Y68894
X14875Y69144
X14500Y69394
X14000Y69394
X13875Y68894
X12750Y68894
X12250Y68894
X11875Y69394
X10750Y69894
X10000Y69894
X10000Y70894
X8750Y70894
X8250Y71394
X7750Y71394
X7250Y71019
X7250Y70394
X7750Y70394
X8000Y72144
X5750Y71019
X5750Y70394
X4500Y70644
X3500Y70144
X5750Y68644
X6250Y68644
X7000Y68644
X7500Y68644
X8875Y68769
X9500Y68769
X10250Y68144
X10750Y68644
X11250Y68394
X11500Y67644
X11500Y67144
X11500Y66644
X11000Y67644
X10750Y65394
X9000Y65144
X9250Y63894
X9750Y63644
X7750Y62144
X7250Y62394
X6875Y62644
X6500Y62894
X6125Y63144
X5750Y63394
X5000Y63894
X5250Y64394
X4750Y63394
X4500Y62894
X5000Y62394
X5375Y62644
X4875Y61769
X4750Y60144
X5250Y60144
X3875Y60269
X2875Y60519
X2875Y62144
X2875Y63644
X3000Y64894
X3000Y66394
X3250Y67644
X2875Y67769
X7375Y61519
X9250Y58894
X7000Y58644
X4375Y58644
X3875Y58269
X3500Y58644
X2750Y58644
X6000Y56144
X14500Y64769
X18617Y62152
X18927Y62467
X19237Y62782
X23375Y64394
X23375Y65894
X21625Y67618
X21125Y67644
X20625Y67644
X19750Y68894
X20625Y69894
X21125Y69519
X21625Y69144
X21250Y70394
X20000Y70894
X19500Y71519
X17500Y71269
X17000Y71519
X16125Y71894
X15375Y71519
X42683Y56496
X44058Y58871
X45558Y60246
X46058Y59246
X47558Y59746
X51308Y56746
X52058Y58246
X50183Y54121
X48058Y52621
X50183Y50996
X43308Y60746
X45558Y64246
X46058Y67746
X50683Y67871
X54933Y64871
X53933Y63746
X56058Y67246
X55433Y67871
X37933Y66996
X37433Y67621
X36558Y68621
X35882Y70964
X37634Y70964
X33308Y66496
X33308Y64996
X37058Y56746
X22851Y95045
X22851Y93293
X5750Y74669
X5750Y75544
X9500Y78294
X9500Y79544
X10250Y79544
X10750Y79794
X11750Y79919
X12500Y79044
X13000Y78544
X12500Y78044
X12000Y78544
X11250Y78294
X13500Y76544
X16250Y75544
X16750Y76294
X16750Y76919
X17250Y76919
X17250Y77919
X16750Y77919
X16375Y79044
X13750Y78919
X17250Y81919
X18170Y81339
X18625Y81044
X19000Y80794
X19375Y80544
X20125Y79419
X20125Y78544
X18250Y75544
X21250Y74794
X15375Y82169
X15750Y82419
X16125Y82669
X16500Y82919
X18170Y84874
X17375Y84919
X16625Y86044
X16250Y86294
X15875Y86544
X15500Y86794
X15500Y87919
X14875Y88419
X15250Y88669
X14750Y89419
X14750Y89919
X14250Y89919
X13500Y90294
X12750Y89919
X12750Y88794
X11500Y88044
X11500Y87544
X11500Y87044
X11250Y86044
X10750Y84919
X9750Y84919
X11000Y83544
X11750Y84044
X13250Y83544
X13375Y84044
X13750Y84919
X14250Y85044
X14625Y85294
X15000Y85044
X16875Y86669
X17000Y87169
X18625Y88294
X18625Y88794
X18875Y89544
X17500Y90294
X17167Y89961
X15500Y89874
X14500Y90669
X14875Y91044
X15250Y91419
X15625Y92044
X16000Y91794
X16375Y91544
X17000Y91669
X15250Y92294
X14875Y92544
X14500Y92794
X14000Y92794
X13875Y92294
X12750Y92294
X12250Y92294
X11875Y92794
X10750Y93294
X10000Y93294
X10000Y94294
X8750Y94294
X8250Y94794
X7750Y94794
X7250Y94419
X7250Y93794
X7750Y93794
X8000Y95544
X5750Y94419
X5750Y93794
X4500Y94044
X3500Y93544
X5750Y92044
X6250Y92044
X7000Y92044
X7500Y92044
X8875Y92169
X9500Y92169
X10250Y91544
X10750Y92044
X11250Y91794
X11500Y91044
X11500Y90544
X11500Y90044
X11000Y91044
X10750Y88794
X9000Y88544
X9250Y87294
X9750Y87044
X7750Y85544
X7250Y85794
X6875Y86044
X6500Y86294
X6125Y86544
X5750Y86794
X5000Y87294
X5250Y87794
X4750Y86794
X4500Y86294
X5000Y85794
X5375Y86044
X4875Y85169
X4750Y83544
X5250Y83544
X3875Y83669
X2875Y83919
X2875Y85544
X2875Y87044
X3000Y88294
X3000Y89794
X3250Y91044
X2875Y91169
X7375Y84919
X9250Y82294
X7000Y82044
X4375Y82044
X3875Y81669
X3500Y82044
X2750Y82044
X6000Y79544
X14500Y88169
X18617Y85552
X18927Y85867
X19237Y86182
X23375Y87794
X23375Y89294
X21625Y91018
X21125Y91044
X20625Y91044
X19750Y92294
X20625Y93294
X21125Y92919
X21625Y92544
X21250Y93794
X20000Y94294
X19500Y94919
X17500Y94669
X17000Y94919
X16125Y95294
X15375Y94919
X47723Y94847
X47723Y93095
X30622Y74471
X30622Y75346
X34372Y78096
X34372Y79346
X35122Y79346
X35622Y79596
X36622Y79721
X37372Y78846
X37872Y78346
X37372Y77846
X36872Y78346
X36122Y78096
X38372Y76346
X41122Y75346
X41622Y76096
X41622Y76721
X42122Y76721
X42122Y77721
X41622Y77721
X41247Y78846
X38622Y78721
X42122Y81721
X43042Y81141
X43497Y80846
X43872Y80596
X44247Y80346
X44997Y79221
X44997Y78346
X43122Y75346
X46122Y74596
X40247Y81971
X40622Y82221
X40997Y82471
X41372Y82721
X43042Y84676
X42247Y84721
X41497Y85846
X41122Y86096
X40747Y86346
X40372Y86596
X40372Y87721
X39747Y88221
X40122Y88471
X39622Y89221
X39622Y89721
X39122Y89721
X38372Y90096
X37622Y89721
X37622Y88596
X36372Y87846
X36372Y87346
X36372Y86846
X36122Y85846
X35622Y84721
X34622Y84721
X35872Y83346
X36622Y83846
X38122Y83346
X38247Y83846
X38622Y84721
X39122Y84846
X39497Y85096
X39872Y84846
X41747Y86471
X41872Y86971
X43497Y88096
X43497Y88596
X43747Y89346
X42372Y90096
X42039Y89763
X40372Y89676
X39372Y90471
X39747Y90846
X40122Y91221
X40497Y91846
X40872Y91596
X41247Y91346
X41872Y91471
X40122Y92096
X39747Y92346
X39372Y92596
X38872Y92596
X38747Y92096
X37622Y92096
X37122Y92096
X36747Y92596
X35622Y93096
X34872Y93096
X34872Y94096
X33622Y94096
X33122Y94596
X32622Y94596
X32122Y94221
X32122Y93596
X32622Y93596
X32872Y95346
X30622Y94221
X30622Y93596
X29372Y93846
X28372Y93346
X30622Y91846
X31122Y91846
X31872Y91846
X32372Y91846
X33747Y91971
X34372Y91971
X35122Y91346
X35622Y91846
X36122Y91596
X36372Y90846
X36372Y90346
X36372Y89846
X35872Y90846
X35622Y88596
X33872Y88346
X34122Y87096
X34622Y86846
X32622Y85346
X32122Y85596
X31747Y85846
X31372Y86096
X30997Y86346
X30622Y86596
X29872Y87096
X30122Y87596
X29622Y86596
X29372Y86096
X29872Y85596
X30247Y85846
X29747Y84971
X29622Y83346
X30122Y83346
X28747Y83471
X27747Y83721
X27747Y85346
X27747Y86846
X27872Y88096
X27872Y89596
X28122Y90846
X27747Y90971
X32247Y84721
X34122Y82096
X31872Y81846
X29247Y81846
X28747Y81471
X28372Y81846
X27622Y81846
X30872Y79346
X39372Y87971
X43489Y85354
X43799Y85669
X44109Y85984
X48247Y87596
X48247Y89096
X46497Y90820
X45997Y90846
X45497Y90846
X44622Y92096
X45497Y93096
X45997Y92721
X46497Y92346
X46122Y93596
X44872Y94096
X44372Y94721
X42372Y94471
X41872Y94721
X40997Y95096
X40247Y94721
X118354Y62522
X118354Y60770
X101253Y42146
X101253Y43021
X105003Y45771
X105003Y47021
X105753Y47021
X106253Y47271
X107253Y47396
X108003Y46521
X108503Y46021
X108003Y45521
X107503Y46021
X106753Y45771
X109003Y44021
X111753Y43021
X112253Y43771
X112253Y44396
X112753Y44396
X112753Y45396
X112253Y45396
X111878Y46521
X109253Y46396
X112753Y49396
X113673Y48816
X114128Y48521
X114503Y48271
X114878Y48021
X115628Y46896
X115628Y46021
X113753Y43021
X116753Y42271
X110878Y49646
X111253Y49896
X111628Y50146
X112003Y50396
X113673Y52351
X112878Y52396
X112128Y53521
X111753Y53771
X111378Y54021
X111003Y54271
X111003Y55396
X110378Y55896
X110753Y56146
X110253Y56896
X110253Y57396
X109753Y57396
X109003Y57771
X108253Y57396
X108253Y56271
X107003Y55521
X107003Y55021
X107003Y54521
X106753Y53521
X106253Y52396
X105253Y52396
X106503Y51021
X107253Y51521
X108753Y51021
X108878Y51521
X109253Y52396
X109753Y52521
X110128Y52771
X110503Y52521
X112378Y54146
X112503Y54646
X114128Y55771
X114128Y56271
X114378Y57021
X113003Y57771
X112670Y57438
X111003Y57351
X110003Y58146
X110378Y58521
X110753Y58896
X111128Y59521
X111503Y59271
X111878Y59021
X112503Y59146
X110753Y59771
X110378Y60021
X110003Y60271
X109503Y60271
X109378Y59771
X108253Y59771
X107753Y59771
X107378Y60271
X106253Y60771
X105503Y60771
X105503Y61771
X104253Y61771
X103753Y62271
X103253Y62271
X102753Y61896
X102753Y61271
X103253Y61271
X103503Y63021
X101253Y61896
X101253Y61271
X100003Y61521
X99003Y61021
X101253Y59521
X101753Y59521
X102503Y59521
X103003Y59521
X104378Y59646
X105003Y59646
X105753Y59021
X106253Y59521
X106753Y59271
X107003Y58521
X107003Y58021
X107003Y57521
X106503Y58521
X106253Y56271
X104503Y56021
X104753Y54771
X105253Y54521
X103253Y53021
X102753Y53271
X102378Y53521
X102003Y53771
X101628Y54021
X101253Y54271
X100503Y54771
X100753Y55271
X100253Y54271
X100003Y53771
X100503Y53271
X100878Y53521
X100378Y52646
X100253Y51021
X100753Y51021
X99378Y51146
X98378Y51396
X98378Y53021
X98378Y54521
X98503Y55771
X98503Y57271
X98753Y58521
X98378Y58646
X102878Y52396
X104753Y49771
X102503Y49521
X99878Y49521
X99378Y49146
X99003Y49521
X98253Y49521
X101503Y47021
X110003Y55646
X114120Y53029
X114430Y53344
X114740Y53659
X118878Y55271
X118878Y56771
X117128Y58495
X116628Y58521
X116128Y58521
X115253Y59771
X116128Y60771
X116628Y60396
X117128Y60021
X116753Y61271
X115503Y61771
X115003Y62396
X113003Y62146
X112503Y62396
X111628Y62771
X110878Y62396
X97565Y79896
X98940Y82271
X100440Y83646
X100940Y82646
X102440Y83146
X106190Y80146
X106940Y81646
X105065Y77521
X102940Y76021
X105065Y74396
X98190Y84146
X100440Y87646
X100940Y91146
X105565Y91271
X109815Y88271
X108815Y87146
X110940Y90646
X110315Y91271
X92815Y90396
X92315Y91021
X91440Y92021
X90764Y94364
X92516Y94364
X88190Y89896
X88190Y88396
X91940Y80146
X88344Y62522
X88344Y60770
X71243Y42146
X71243Y43021
X74993Y45771
X74993Y47021
X75743Y47021
X76243Y47271
X77243Y47396
X77993Y46521
X78493Y46021
X77993Y45521
X77493Y46021
X76743Y45771
X78993Y44021
X81743Y43021
X82243Y43771
X82243Y44396
X82743Y44396
X82743Y45396
X82243Y45396
X81868Y46521
X79243Y46396
X82743Y49396
X83663Y48816
X84118Y48521
X84493Y48271
X84868Y48021
X85618Y46896
X85618Y46021
X83743Y43021
X86743Y42271
X80868Y49646
X81243Y49896
X81618Y50146
X81993Y50396
X83663Y52351
X82868Y52396
X82118Y53521
X81743Y53771
X81368Y54021
X80993Y54271
X80993Y55396
X80368Y55896
X80743Y56146
X80243Y56896
X80243Y57396
X79743Y57396
X78993Y57771
X78243Y57396
X78243Y56271
X76993Y55521
X76993Y55021
X76993Y54521
X76743Y53521
X76243Y52396
X75243Y52396
X76493Y51021
X77243Y51521
X78743Y51021
X78868Y51521
X79243Y52396
X79743Y52521
X80118Y52771
X80493Y52521
X82368Y54146
X82493Y54646
X84118Y55771
X84118Y56271
X84368Y57021
X82993Y57771
X82660Y57438
X80993Y57351
X79993Y58146
X80368Y58521
X80743Y58896
X81118Y59521
X81493Y59271
X81868Y59021
X82493Y59146
X80743Y59771
X80368Y60021
X79993Y60271
X79493Y60271
X79368Y59771
X78243Y59771
X77743Y59771
X77368Y60271
X76243Y60771
X75493Y60771
X75493Y61771
X74243Y61771
X73743Y62271
X73243Y62271
X72743Y61896
X72743Y61271
X73243Y61271
X73493Y63021
X71243Y61896
X71243Y61271
X69993Y61521
X68993Y61021
X71243Y59521
X71743Y59521
X72493Y59521
X72993Y59521
X74368Y59646
X74993Y59646
X75743Y59021
X76243Y59521
X76743Y59271
X76993Y58521
X76993Y58021
X76993Y57521
X76493Y58521
X76243Y56271
X74493Y56021
X74743Y54771
X75243Y54521
X73243Y53021
X72743Y53271
X72368Y53521
X71993Y53771
X71618Y54021
X71243Y54271
X70493Y54771
X70743Y55271
X70243Y54271
X69993Y53771
X70493Y53271
X70868Y53521
X70368Y52646
X70243Y51021
X70743Y51021
X69368Y51146
X68368Y51396
X68368Y53021
X68368Y54521
X68493Y55771
X68493Y57271
X68743Y58521
X68368Y58646
X72868Y52396
X74743Y49771
X72493Y49521
X69868Y49521
X69368Y49146
X68993Y49521
X68243Y49521
X71493Y47021
X79993Y55646
X84110Y53029
X84420Y53344
X84730Y53659
X88868Y55271
X88868Y56771
X87118Y58495
X86618Y58521
X86118Y58521
X85243Y59771
X86118Y60771
X86618Y60396
X87118Y60021
X86743Y61271
X85493Y61771
X84993Y62396
X82993Y62146
X82493Y62396
X81618Y62771
X80868Y62396
X72595Y94847
X72595Y93095
X55494Y74471
X55494Y75346
X59244Y78096
X59244Y79346
X59994Y79346
X60494Y79596
X61494Y79721
X62244Y78846
X62744Y78346
X62244Y77846
X61744Y78346
X60994Y78096
X63244Y76346
X65994Y75346
X66494Y76096
X66494Y76721
X66994Y76721
X66994Y77721
X66494Y77721
X66119Y78846
X63494Y78721
X66994Y81721
X67914Y81141
X68369Y80846
X68744Y80596
X69119Y80346
X69869Y79221
X69869Y78346
X67994Y75346
X70994Y74596
X65119Y81971
X65494Y82221
X65869Y82471
X66244Y82721
X67914Y84676
X67119Y84721
X66369Y85846
X65994Y86096
X65619Y86346
X65244Y86596
X65244Y87721
X64619Y88221
X64994Y88471
X64494Y89221
X64494Y89721
X63994Y89721
X63244Y90096
X62494Y89721
X62494Y88596
X61244Y87846
X61244Y87346
X61244Y86846
X60994Y85846
X60494Y84721
X59494Y84721
X60744Y83346
X61494Y83846
X62994Y83346
X63119Y83846
X63494Y84721
X63994Y84846
X64369Y85096
X64744Y84846
X66619Y86471
X66744Y86971
X68369Y88096
X68369Y88596
X68619Y89346
X67244Y90096
X66911Y89763
X65244Y89676
X64244Y90471
X64619Y90846
X64994Y91221
X65369Y91846
X65744Y91596
X66119Y91346
X66744Y91471
X64994Y92096
X64619Y92346
X64244Y92596
X63744Y92596
X63619Y92096
X62494Y92096
X61994Y92096
X61619Y92596
X60494Y93096
X59744Y93096
X59744Y94096
X58494Y94096
X57994Y94596
X57494Y94596
X56994Y94221
X56994Y93596
X57494Y93596
X57744Y95346
X55494Y94221
X55494Y93596
X54244Y93846
X53244Y93346
X55494Y91846
X55994Y91846
X56744Y91846
X57244Y91846
X58619Y91971
X59244Y91971
X59994Y91346
X60494Y91846
X60994Y91596
X61244Y90846
X61244Y90346
X61244Y89846
X60744Y90846
X60494Y88596
X58744Y88346
X58994Y87096
X59494Y86846
X57494Y85346
X56994Y85596
X56619Y85846
X56244Y86096
X55869Y86346
X55494Y86596
X54744Y87096
X54994Y87596
X54494Y86596
X54244Y86096
X54744Y85596
X55119Y85846
X54619Y84971
X54494Y83346
X54994Y83346
X53619Y83471
X52619Y83721
X52619Y85346
X52619Y86846
X52744Y88096
X52744Y89596
X52994Y90846
X52619Y90971
X57119Y84721
X58994Y82096
X56744Y81846
X54119Y81846
X53619Y81471
X53244Y81846
X52494Y81846
X55744Y79346
X64244Y87971
X68361Y85354
X68671Y85669
X68981Y85984
X73119Y87596
X73119Y89096
X71369Y90820
X70869Y90846
X70369Y90846
X69494Y92096
X70369Y93096
X70869Y92721
X71369Y92346
X70994Y93596
X69744Y94096
X69244Y94721
X67244Y94471
X66744Y94721
X65869Y95096
X65119Y94721
X138186Y80525
X139561Y82900
X141061Y84275
X141561Y83275
X143061Y83775
X146811Y80775
X147561Y82275
X145686Y78150
X143561Y76650
X145686Y75025
X138811Y84775
X141061Y88275
X141561Y91775
X146186Y91900
X150436Y88900
X149436Y87775
X151561Y91275
X150936Y91900
X133436Y91025
X132936Y91650
X132061Y92650
X131385Y94993
X133137Y94993
X128811Y90525
X128811Y89025
X132561Y80775
T02C0.033450
X36350Y19186
X36350Y22186
X40350Y22186
X40350Y19186
X31850Y22186
X32850Y22186
X33850Y22186
X34850Y22186
X34850Y24186
X35850Y24186
X36850Y24186
X38350Y24686
X39350Y24686
X38225Y23061
X41225Y23061
X42350Y22686
X42350Y23686
X42350Y24686
X40850Y27186
X39850Y27186
X36850Y27186
X35850Y27186
X34850Y27186
X33850Y27186
X32850Y27186
X32850Y24186
X33850Y24186
X33850Y19186
X34850Y19186
X32850Y19186
X31850Y19186
X33850Y16686
X34850Y16686
X36350Y15186
X37350Y15186
X38350Y15186
X37850Y16686
X36850Y16686
X34850Y13686
X33850Y13686
X36350Y12186
X37350Y12186
X38350Y12186
X39850Y13686
X40850Y13686
X42850Y14186
X42850Y13186
X44850Y13186
X44850Y14186
X45350Y17186
X45350Y18186
X45350Y19186
X44850Y20186
X42850Y20186
X42350Y19186
X42350Y18186
X42350Y17186
X40850Y16686
X39850Y16686
X45350Y22686
X45350Y23686
X45350Y24686
X44350Y28686
X43600Y29186
X44350Y29686
X43350Y31186
X46100Y29186
X46850Y29686
X46850Y28686
X47350Y31186
X30850Y12561
X30850Y11686
X27850Y11686
X27850Y12561
X29225Y20311
X29225Y22311
X68675Y19186
X68675Y22186
X72675Y22186
X72675Y19186
X64175Y22186
X65175Y22186
X66175Y22186
X67175Y22186
X67175Y24186
X68175Y24186
X69175Y24186
X70675Y24686
X71675Y24686
X70550Y23061
X73550Y23061
X74675Y22686
X74675Y23686
X74675Y24686
X73175Y27186
X72175Y27186
X69175Y27186
X68175Y27186
X67175Y27186
X66175Y27186
X65175Y27186
X65175Y24186
X66175Y24186
X66175Y19186
X67175Y19186
X65175Y19186
X64175Y19186
X66175Y16686
X67175Y16686
X68675Y15186
X69675Y15186
X70675Y15186
X70175Y16686
X69175Y16686
X67175Y13686
X66175Y13686
X68675Y12186
X69675Y12186
X70675Y12186
X72175Y13686
X73175Y13686
X75175Y14186
X75175Y13186
X77175Y13186
X77175Y14186
X77675Y17186
X77675Y18186
X77675Y19186
X77175Y20186
X75175Y20186
X74675Y19186
X74675Y18186
X74675Y17186
X73175Y16686
X72175Y16686
X77675Y22686
X77675Y23686
X77675Y24686
X76675Y28686
X75925Y29186
X76675Y29686
X75675Y31186
X78425Y29186
X79175Y29686
X79175Y28686
X79675Y31186
X63175Y12561
X63175Y11686
X60175Y11686
X60175Y12561
X61550Y20311
X61550Y22311
X101000Y19186
X101000Y22186
X105000Y22186
X105000Y19186
X96500Y22186
X97500Y22186
X98500Y22186
X99500Y22186
X99500Y24186
X100500Y24186
X101500Y24186
X103000Y24686
X104000Y24686
X102875Y23061
X105875Y23061
X107000Y22686
X107000Y23686
X107000Y24686
X105500Y27186
X104500Y27186
X101500Y27186
X100500Y27186
X99500Y27186
X98500Y27186
X97500Y27186
X97500Y24186
X98500Y24186
X98500Y19186
X99500Y19186
X97500Y19186
X96500Y19186
X98500Y16686
X99500Y16686
X101000Y15186
X102000Y15186
X103000Y15186
X102500Y16686
X101500Y16686
X99500Y13686
X98500Y13686
X101000Y12186
X102000Y12186
X103000Y12186
X104500Y13686
X105500Y13686
X107500Y14186
X107500Y13186
X109500Y13186
X109500Y14186
X110000Y17186
X110000Y18186
X110000Y19186
X109500Y20186
X107500Y20186
X107000Y19186
X107000Y18186
X107000Y17186
X105500Y16686
X104500Y16686
X110000Y22686
X110000Y23686
X110000Y24686
X109000Y28686
X108250Y29186
X109000Y29686
X108000Y31186
X110750Y29186
X111500Y29686
X111500Y28686
X112000Y31186
X95500Y12561
X95500Y11686
X92500Y11686
X92500Y12561
X93875Y20311
X93875Y22311
X139561Y20125
X142561Y20125
X142561Y16125
X139561Y16125
X142561Y24625
X142561Y23625
X142561Y22625
X142561Y21625
X144561Y21625
X144561Y20625
X144561Y19625
X145061Y18125
X145061Y17125
X143436Y18250
X143436Y15250
X143061Y14125
X144061Y14125
X145061Y14125
X147561Y15625
X147561Y16625
X147561Y19625
X147561Y20625
X147561Y21625
X147561Y22625
X147561Y23625
X144561Y23625
X144561Y22625
X139561Y22625
X139561Y21625
X139561Y23625
X139561Y24625
X137061Y22625
X137061Y21625
X135561Y20125
X135561Y19125
X135561Y18125
X137061Y18625
X137061Y19625
X134061Y21625
X134061Y22625
X132561Y20125
X132561Y19125
X132561Y18125
X134061Y16625
X134061Y15625
X134561Y13625
X133561Y13625
X133561Y11625
X134561Y11625
X137561Y11125
X138561Y11125
X139561Y11125
X140561Y11625
X140561Y13625
X139561Y14125
X138561Y14125
X137561Y14125
X137061Y15625
X137061Y16625
X143061Y11125
X144061Y11125
X145061Y11125
X149061Y12125
X149561Y12875
X150061Y12125
X151561Y13125
X149561Y10375
X150061Y9625
X149061Y9625
X151561Y9125
X132936Y25625
X132061Y25625
X132061Y28625
X132936Y28625
X140686Y27250
X142686Y27250
X139561Y52450
X142561Y52450
X142561Y48450
X139561Y48450
X142561Y56950
X142561Y55950
X142561Y54950
X142561Y53950
X144561Y53950
X144561Y52950
X144561Y51950
X145061Y50450
X145061Y49450
X143436Y50575
X143436Y47575
X143061Y46450
X144061Y46450
X145061Y46450
X147561Y47950
X147561Y48950
X147561Y51950
X147561Y52950
X147561Y53950
X147561Y54950
X147561Y55950
X144561Y55950
X144561Y54950
X139561Y54950
X139561Y53950
X139561Y55950
X139561Y56950
X137061Y54950
X137061Y53950
X135561Y52450
X135561Y51450
X135561Y50450
X137061Y50950
X137061Y51950
X134061Y53950
X134061Y54950
X132561Y52450
X132561Y51450
X132561Y50450
X134061Y48950
X134061Y47950
X134561Y45950
X133561Y45950
X133561Y43950
X134561Y43950
X137561Y43450
X138561Y43450
X139561Y43450
X140561Y43950
X140561Y45950
X139561Y46450
X138561Y46450
X137561Y46450
X137061Y47950
X137061Y48950
X143061Y43450
X144061Y43450
X145061Y43450
X149061Y44450
X149561Y45200
X150061Y44450
X151561Y45450
X149561Y42700
X150061Y41950
X149061Y41950
X151561Y41450
X132936Y57950
X132061Y57950
X132061Y60950
X132936Y60950
X140686Y59575
X142686Y59575
X44058Y60746
X47058Y60746
X47058Y56746
X44058Y56746
X47058Y65246
X47058Y64246
X47058Y63246
X47058Y62246
X49058Y62246
X49058Y61246
X49058Y60246
X49558Y58746
X49558Y57746
X47933Y58871
X47933Y55871
X47558Y54746
X48558Y54746
X49558Y54746
X52058Y56246
X52058Y57246
X52058Y60246
X52058Y61246
X52058Y62246
X52058Y63246
X52058Y64246
X49058Y64246
X49058Y63246
X44058Y63246
X44058Y62246
X44058Y64246
X44058Y65246
X41558Y63246
X41558Y62246
X40058Y60746
X40058Y59746
X40058Y58746
X41558Y59246
X41558Y60246
X38558Y62246
X38558Y63246
X37058Y60746
X37058Y59746
X37058Y58746
X38558Y57246
X38558Y56246
X39058Y54246
X38058Y54246
X38058Y52246
X39058Y52246
X42058Y51746
X43058Y51746
X44058Y51746
X45058Y52246
X45058Y54246
X44058Y54746
X43058Y54746
X42058Y54746
X41558Y56246
X41558Y57246
X47558Y51746
X48558Y51746
X49558Y51746
X53558Y52746
X54058Y53496
X54558Y52746
X56058Y53746
X54058Y50996
X54558Y50246
X53558Y50246
X56058Y49746
X37433Y66246
X36558Y66246
X36558Y69246
X37433Y69246
X45183Y67871
X47183Y67871
X98940Y84146
X101940Y84146
X101940Y80146
X98940Y80146
X101940Y88646
X101940Y87646
X101940Y86646
X101940Y85646
X103940Y85646
X103940Y84646
X103940Y83646
X104440Y82146
X104440Y81146
X102815Y82271
X102815Y79271
X102440Y78146
X103440Y78146
X104440Y78146
X106940Y79646
X106940Y80646
X106940Y83646
X106940Y84646
X106940Y85646
X106940Y86646
X106940Y87646
X103940Y87646
X103940Y86646
X98940Y86646
X98940Y85646
X98940Y87646
X98940Y88646
X96440Y86646
X96440Y85646
X94940Y84146
X94940Y83146
X94940Y82146
X96440Y82646
X96440Y83646
X93440Y85646
X93440Y86646
X91940Y84146
X91940Y83146
X91940Y82146
X93440Y80646
X93440Y79646
X93940Y77646
X92940Y77646
X92940Y75646
X93940Y75646
X96940Y75146
X97940Y75146
X98940Y75146
X99940Y75646
X99940Y77646
X98940Y78146
X97940Y78146
X96940Y78146
X96440Y79646
X96440Y80646
X102440Y75146
X103440Y75146
X104440Y75146
X108440Y76146
X108940Y76896
X109440Y76146
X110940Y77146
X108940Y74396
X109440Y73646
X108440Y73646
X110940Y73146
X92315Y89646
X91440Y89646
X91440Y92646
X92315Y92646
X100065Y91271
X102065Y91271
X139561Y84775
X142561Y84775
X142561Y80775
X139561Y80775
X142561Y89275
X142561Y88275
X142561Y87275
X142561Y86275
X144561Y86275
X144561Y85275
X144561Y84275
X145061Y82775
X145061Y81775
X143436Y82900
X143436Y79900
X143061Y78775
X144061Y78775
X145061Y78775
X147561Y80275
X147561Y81275
X147561Y84275
X147561Y85275
X147561Y86275
X147561Y87275
X147561Y88275
X144561Y88275
X144561Y87275
X139561Y87275
X139561Y86275
X139561Y88275
X139561Y89275
X137061Y87275
X137061Y86275
X135561Y84775
X135561Y83775
X135561Y82775
X137061Y83275
X137061Y84275
X134061Y86275
X134061Y87275
X132561Y84775
X132561Y83775
X132561Y82775
X134061Y81275
X134061Y80275
X134561Y78275
X133561Y78275
X133561Y76275
X134561Y76275
X137561Y75775
X138561Y75775
X139561Y75775
X140561Y76275
X140561Y78275
X139561Y78775
X138561Y78775
X137561Y78775
X137061Y80275
X137061Y81275
X143061Y75775
X144061Y75775
X145061Y75775
X149061Y76775
X149561Y77525
X150061Y76775
X151561Y77775
X149561Y75025
X150061Y74275
X149061Y74275
X151561Y73775
X132936Y90275
X132061Y90275
X132061Y93275
X132936Y93275
X140686Y91900
X142686Y91900
T03C0.037700
X20750Y23000
X20750Y24000
X21750Y24000
X21750Y23000
X21750Y22000
X20750Y22000
X20750Y12500
X21750Y12500
X21750Y11500
X20750Y11500
X20750Y10500
X21750Y10500
X20750Y8500
X20750Y7500
X20750Y6500
X38475Y29061
X38475Y30061
X37475Y30061
X37475Y29061
X36475Y29061
X36475Y30061
X26975Y30061
X26975Y29061
X25975Y29061
X25975Y30061
X24975Y30061
X24975Y29061
X70800Y29061
X70800Y30061
X69800Y30061
X69800Y29061
X68800Y29061
X68800Y30061
X59300Y30061
X59300Y29061
X58300Y29061
X58300Y30061
X57300Y30061
X57300Y29061
X103125Y29061
X103125Y30061
X102125Y30061
X102125Y29061
X101125Y29061
X101125Y30061
X91625Y30061
X91625Y29061
X90625Y29061
X90625Y30061
X89625Y30061
X89625Y29061
X149436Y18000
X150436Y18000
X150436Y19000
X149436Y19000
X149436Y20000
X150436Y20000
X150436Y29500
X149436Y29500
X149436Y30500
X150436Y30500
X150436Y31500
X149436Y31500
X149436Y50325
X150436Y50325
X150436Y51325
X149436Y51325
X149436Y52325
X150436Y52325
X150436Y61825
X149436Y61825
X149436Y62825
X150436Y62825
X150436Y63825
X149436Y63825
X20750Y47872
X20750Y48872
X21750Y48872
X21750Y47872
X21750Y46872
X20750Y46872
X20750Y37372
X21750Y37372
X21750Y36372
X20750Y36372
X20750Y35372
X21750Y35372
X20750Y33372
X20750Y32372
X20750Y31372
X23000Y53144
X24000Y53144
X24000Y52144
X23000Y52144
X22000Y52144
X22000Y53144
X12500Y53144
X12500Y52144
X11500Y52144
X11500Y53144
X10500Y53144
X10500Y52144
X8500Y53144
X7500Y53144
X6500Y53144
X53933Y58621
X54933Y58621
X54933Y59621
X53933Y59621
X53933Y60621
X54933Y60621
X54933Y70121
X53933Y70121
X53933Y71121
X54933Y71121
X54933Y72121
X53933Y72121
X23000Y76544
X24000Y76544
X24000Y75544
X23000Y75544
X22000Y75544
X22000Y76544
X12500Y76544
X12500Y75544
X11500Y75544
X11500Y76544
X10500Y76544
X10500Y75544
X8500Y76544
X7500Y76544
X6500Y76544
X47872Y76346
X48872Y76346
X48872Y75346
X47872Y75346
X46872Y75346
X46872Y76346
X37372Y76346
X37372Y75346
X36372Y75346
X36372Y76346
X35372Y76346
X35372Y75346
X33372Y76346
X32372Y76346
X31372Y76346
X118503Y44021
X119503Y44021
X119503Y43021
X118503Y43021
X117503Y43021
X117503Y44021
X108003Y44021
X108003Y43021
X107003Y43021
X107003Y44021
X106003Y44021
X106003Y43021
X104003Y44021
X103003Y44021
X102003Y44021
X108815Y82021
X109815Y82021
X109815Y83021
X108815Y83021
X108815Y84021
X109815Y84021
X109815Y93521
X108815Y93521
X108815Y94521
X109815Y94521
X109815Y95521
X108815Y95521
X88493Y44021
X89493Y44021
X89493Y43021
X88493Y43021
X87493Y43021
X87493Y44021
X77993Y44021
X77993Y43021
X76993Y43021
X76993Y44021
X75993Y44021
X75993Y43021
X73993Y44021
X72993Y44021
X71993Y44021
X72744Y76346
X73744Y76346
X73744Y75346
X72744Y75346
X71744Y75346
X71744Y76346
X62244Y76346
X62244Y75346
X61244Y75346
X61244Y76346
X60244Y76346
X60244Y75346
X58244Y76346
X57244Y76346
X56244Y76346
X149436Y82650
X150436Y82650
X150436Y83650
X149436Y83650
X149436Y84650
X150436Y84650
X150436Y94150
X149436Y94150
X149436Y95150
X150436Y95150
X150436Y96150
X149436Y96150
T04C0.040000
X19250Y1500
X19250Y2500
X19250Y3500
X19250Y4500
X19250Y5500
X18250Y5500
X18250Y4500
X18250Y3500
X18250Y2500
X18250Y1500
X20750Y9500
X21750Y9500
X2500Y4500
X1500Y4500
X1500Y5500
X1500Y6500
X1500Y3500
X2500Y3500
X2500Y2500
X2500Y1500
X1500Y1500
X1500Y2500
X1500Y10500
X1500Y11500
X1500Y12500
X1500Y13500
X1500Y14500
X1500Y15500
X1500Y18500
X1500Y19500
X1500Y20500
X1500Y21500
X1500Y22500
X4769Y24081
X1481Y24081
X47475Y10061
X47475Y11061
X46475Y11061
X45475Y11061
X44475Y11061
X44475Y10061
X45475Y10061
X46475Y10061
X43475Y10061
X42475Y10061
X38475Y10061
X37475Y10061
X36475Y10061
X35475Y10061
X34475Y10061
X33475Y10061
X30475Y10061
X29475Y10061
X28475Y10061
X27475Y10061
X26475Y10061
X25225Y24811
X25225Y25811
X39475Y29061
X39475Y30061
X40475Y29061
X41475Y29061
X42475Y29061
X43475Y27061
X43475Y26061
X44475Y26061
X44475Y27061
X45475Y27061
X45475Y26061
X46475Y26061
X46475Y27061
X47475Y27061
X47475Y26061
X47475Y25061
X47475Y24061
X47475Y23061
X47475Y22061
X47475Y21061
X47475Y20061
X47475Y19061
X47475Y18061
X47475Y17061
X47475Y16061
X31303Y26670
X31303Y25686
X31303Y24701
X29225Y18561
X31303Y16670
X31303Y15686
X31303Y14701
X25225Y18561
X24902Y13530
X24902Y10243
X31303Y6670
X31303Y5686
X31303Y4701
X41600Y15686
X46100Y15686
X46100Y21686
X41600Y21686
X31303Y34701
X31303Y35686
X31303Y36670
X79800Y10061
X79800Y11061
X78800Y11061
X77800Y11061
X76800Y11061
X76800Y10061
X77800Y10061
X78800Y10061
X75800Y10061
X74800Y10061
X70800Y10061
X69800Y10061
X68800Y10061
X67800Y10061
X66800Y10061
X65800Y10061
X62800Y10061
X61800Y10061
X60800Y10061
X59800Y10061
X58800Y10061
X57550Y24811
X57550Y25811
X71800Y29061
X71800Y30061
X72800Y29061
X73800Y29061
X74800Y29061
X75800Y27061
X75800Y26061
X76800Y26061
X76800Y27061
X77800Y27061
X77800Y26061
X78800Y26061
X78800Y27061
X79800Y27061
X79800Y26061
X79800Y25061
X79800Y24061
X79800Y23061
X79800Y22061
X79800Y21061
X79800Y20061
X79800Y19061
X79800Y18061
X79800Y17061
X79800Y16061
X63628Y26670
X63628Y25686
X63628Y24701
X61550Y18561
X63628Y16670
X63628Y15686
X63628Y14701
X57550Y18561
X57227Y13530
X57227Y10243
X63628Y6670
X63628Y5686
X63628Y4701
X73925Y15686
X78425Y15686
X78425Y21686
X73925Y21686
X63628Y34701
X63628Y35686
X63628Y36670
X112125Y10061
X112125Y11061
X111125Y11061
X110125Y11061
X109125Y11061
X109125Y10061
X110125Y10061
X111125Y10061
X108125Y10061
X107125Y10061
X103125Y10061
X102125Y10061
X101125Y10061
X100125Y10061
X99125Y10061
X98125Y10061
X95125Y10061
X94125Y10061
X93125Y10061
X92125Y10061
X91125Y10061
X89875Y24811
X89875Y25811
X104125Y29061
X104125Y30061
X105125Y29061
X106125Y29061
X107125Y29061
X108125Y27061
X108125Y26061
X109125Y26061
X109125Y27061
X110125Y27061
X110125Y26061
X111125Y26061
X111125Y27061
X112125Y27061
X112125Y26061
X112125Y25061
X112125Y24061
X112125Y23061
X112125Y22061
X112125Y21061
X112125Y20061
X112125Y19061
X112125Y18061
X112125Y17061
X112125Y16061
X95953Y26670
X95953Y25686
X95953Y24701
X93875Y18561
X95953Y16670
X95953Y15686
X95953Y14701
X89875Y18561
X89552Y13530
X89552Y10243
X95953Y6670
X95953Y5686
X95953Y4701
X106250Y15686
X110750Y15686
X110750Y21686
X106250Y21686
X95953Y34701
X95953Y35686
X95953Y36670
X130436Y9000
X131436Y9000
X131436Y10000
X131436Y11000
X131436Y12000
X130436Y12000
X130436Y11000
X130436Y10000
X130436Y13000
X130436Y14000
X130436Y18000
X130436Y19000
X130436Y20000
X130436Y21000
X130436Y22000
X130436Y23000
X130436Y26000
X130436Y27000
X130436Y28000
X130436Y29000
X130436Y30000
X145186Y31250
X146186Y31250
X149436Y17000
X150436Y17000
X149436Y16000
X149436Y15000
X149436Y14000
X147436Y13000
X146436Y13000
X146436Y12000
X147436Y12000
X147436Y11000
X146436Y11000
X146436Y10000
X147436Y10000
X147436Y9000
X146436Y9000
X145436Y9000
X144436Y9000
X143436Y9000
X142436Y9000
X141436Y9000
X140436Y9000
X139436Y9000
X138436Y9000
X137436Y9000
X136436Y9000
X147045Y25172
X146061Y25172
X145076Y25172
X138936Y27250
X137045Y25172
X136061Y25172
X135076Y25172
X138936Y31250
X133905Y31573
X130618Y31573
X127045Y25172
X126061Y25172
X125076Y25172
X136061Y14875
X136061Y10375
X142061Y10375
X142061Y14875
X155076Y25172
X156061Y25172
X157045Y25172
X130436Y41325
X131436Y41325
X131436Y42325
X131436Y43325
X131436Y44325
X130436Y44325
X130436Y43325
X130436Y42325
X130436Y45325
X130436Y46325
X130436Y50325
X130436Y51325
X130436Y52325
X130436Y53325
X130436Y54325
X130436Y55325
X130436Y58325
X130436Y59325
X130436Y60325
X130436Y61325
X130436Y62325
X145186Y63575
X146186Y63575
X149436Y49325
X150436Y49325
X149436Y48325
X149436Y47325
X149436Y46325
X147436Y45325
X146436Y45325
X146436Y44325
X147436Y44325
X147436Y43325
X146436Y43325
X146436Y42325
X147436Y42325
X147436Y41325
X146436Y41325
X145436Y41325
X144436Y41325
X143436Y41325
X142436Y41325
X141436Y41325
X140436Y41325
X139436Y41325
X138436Y41325
X137436Y41325
X136436Y41325
X147045Y57497
X146061Y57497
X145076Y57497
X138936Y59575
X137045Y57497
X136061Y57497
X135076Y57497
X138936Y63575
X133905Y63898
X130618Y63898
X127045Y57497
X126061Y57497
X125076Y57497
X136061Y47200
X136061Y42700
X142061Y42700
X142061Y47200
X155076Y57497
X156061Y57497
X157045Y57497
X19250Y26372
X19250Y27372
X19250Y28372
X19250Y29372
X19250Y30372
X18250Y30372
X18250Y29372
X18250Y28372
X18250Y27372
X18250Y26372
X20750Y34372
X21750Y34372
X2500Y29372
X1500Y29372
X1500Y30372
X1500Y31372
X1500Y28372
X2500Y28372
X2500Y27372
X2500Y26372
X1500Y26372
X1500Y27372
X1500Y35372
X1500Y36372
X1500Y37372
X1500Y38372
X1500Y39372
X1500Y40372
X1500Y43372
X1500Y44372
X1500Y45372
X1500Y46372
X1500Y47372
X4769Y48953
X1481Y48953
X1500Y54644
X2500Y54644
X3500Y54644
X4500Y54644
X5500Y54644
X5500Y55644
X4500Y55644
X3500Y55644
X2500Y55644
X1500Y55644
X9500Y53144
X9500Y52144
X4500Y71394
X4500Y72394
X5500Y72394
X6500Y72394
X3500Y72394
X3500Y71394
X2500Y71394
X1500Y71394
X1500Y72394
X2500Y72394
X10500Y72394
X11500Y72394
X12500Y72394
X13500Y72394
X14500Y72394
X15500Y72394
X18500Y72394
X19500Y72394
X20500Y72394
X21500Y72394
X22500Y72394
X24081Y69125
X24081Y72413
X34933Y49621
X35933Y49621
X35933Y50621
X35933Y51621
X35933Y52621
X34933Y52621
X34933Y51621
X34933Y50621
X34933Y53621
X34933Y54621
X34933Y58621
X34933Y59621
X34933Y60621
X34933Y61621
X34933Y62621
X34933Y63621
X34933Y66621
X34933Y67621
X34933Y68621
X34933Y69621
X34933Y70621
X49683Y71871
X50683Y71871
X53933Y57621
X54933Y57621
X53933Y56621
X53933Y55621
X53933Y54621
X51933Y53621
X50933Y53621
X50933Y52621
X51933Y52621
X51933Y51621
X50933Y51621
X50933Y50621
X51933Y50621
X51933Y49621
X50933Y49621
X49933Y49621
X48933Y49621
X47933Y49621
X46933Y49621
X45933Y49621
X44933Y49621
X43933Y49621
X42933Y49621
X41933Y49621
X40933Y49621
X51542Y65793
X50558Y65793
X49573Y65793
X43433Y67871
X41542Y65793
X40558Y65793
X39573Y65793
X43433Y71871
X38402Y72194
X35115Y72194
X31542Y65793
X30558Y65793
X29573Y65793
X40558Y55496
X40558Y50996
X46558Y50996
X46558Y55496
X59573Y65793
X60558Y65793
X61542Y65793
X1500Y78044
X2500Y78044
X3500Y78044
X4500Y78044
X5500Y78044
X5500Y79044
X4500Y79044
X3500Y79044
X2500Y79044
X1500Y79044
X9500Y76544
X9500Y75544
X4500Y94794
X4500Y95794
X5500Y95794
X6500Y95794
X3500Y95794
X3500Y94794
X2500Y94794
X1500Y94794
X1500Y95794
X2500Y95794
X10500Y95794
X11500Y95794
X12500Y95794
X13500Y95794
X14500Y95794
X15500Y95794
X18500Y95794
X19500Y95794
X20500Y95794
X21500Y95794
X22500Y95794
X24081Y92525
X24081Y95813
X26372Y77846
X27372Y77846
X28372Y77846
X29372Y77846
X30372Y77846
X30372Y78846
X29372Y78846
X28372Y78846
X27372Y78846
X26372Y78846
X34372Y76346
X34372Y75346
X29372Y94596
X29372Y95596
X30372Y95596
X31372Y95596
X28372Y95596
X28372Y94596
X27372Y94596
X26372Y94596
X26372Y95596
X27372Y95596
X35372Y95596
X36372Y95596
X37372Y95596
X38372Y95596
X39372Y95596
X40372Y95596
X43372Y95596
X44372Y95596
X45372Y95596
X46372Y95596
X47372Y95596
X48953Y92327
X48953Y95615
X97003Y45521
X98003Y45521
X99003Y45521
X100003Y45521
X101003Y45521
X101003Y46521
X100003Y46521
X99003Y46521
X98003Y46521
X97003Y46521
X105003Y44021
X105003Y43021
X100003Y62271
X100003Y63271
X101003Y63271
X102003Y63271
X99003Y63271
X99003Y62271
X98003Y62271
X97003Y62271
X97003Y63271
X98003Y63271
X106003Y63271
X107003Y63271
X108003Y63271
X109003Y63271
X110003Y63271
X111003Y63271
X114003Y63271
X115003Y63271
X116003Y63271
X117003Y63271
X118003Y63271
X119584Y60002
X119584Y63290
X89815Y73021
X90815Y73021
X90815Y74021
X90815Y75021
X90815Y76021
X89815Y76021
X89815Y75021
X89815Y74021
X89815Y77021
X89815Y78021
X89815Y82021
X89815Y83021
X89815Y84021
X89815Y85021
X89815Y86021
X89815Y87021
X89815Y90021
X89815Y91021
X89815Y92021
X89815Y93021
X89815Y94021
X104565Y95271
X105565Y95271
X108815Y81021
X109815Y81021
X108815Y80021
X108815Y79021
X108815Y78021
X106815Y77021
X105815Y77021
X105815Y76021
X106815Y76021
X106815Y75021
X105815Y75021
X105815Y74021
X106815Y74021
X106815Y73021
X105815Y73021
X104815Y73021
X103815Y73021
X102815Y73021
X101815Y73021
X100815Y73021
X99815Y73021
X98815Y73021
X97815Y73021
X96815Y73021
X95815Y73021
X106424Y89193
X105440Y89193
X104455Y89193
X98315Y91271
X96424Y89193
X95440Y89193
X94455Y89193
X98315Y95271
X93284Y95594
X89997Y95594
X86424Y89193
X85440Y89193
X84455Y89193
X95440Y78896
X95440Y74396
X101440Y74396
X101440Y78896
X114455Y89193
X115440Y89193
X116424Y89193
X66993Y45521
X67993Y45521
X68993Y45521
X69993Y45521
X70993Y45521
X70993Y46521
X69993Y46521
X68993Y46521
X67993Y46521
X66993Y46521
X74993Y44021
X74993Y43021
X69993Y62271
X69993Y63271
X70993Y63271
X71993Y63271
X68993Y63271
X68993Y62271
X67993Y62271
X66993Y62271
X66993Y63271
X67993Y63271
X75993Y63271
X76993Y63271
X77993Y63271
X78993Y63271
X79993Y63271
X80993Y63271
X83993Y63271
X84993Y63271
X85993Y63271
X86993Y63271
X87993Y63271
X89574Y60002
X89574Y63290
X51244Y77846
X52244Y77846
X53244Y77846
X54244Y77846
X55244Y77846
X55244Y78846
X54244Y78846
X53244Y78846
X52244Y78846
X51244Y78846
X59244Y76346
X59244Y75346
X54244Y94596
X54244Y95596
X55244Y95596
X56244Y95596
X53244Y95596
X53244Y94596
X52244Y94596
X51244Y94596
X51244Y95596
X52244Y95596
X60244Y95596
X61244Y95596
X62244Y95596
X63244Y95596
X64244Y95596
X65244Y95596
X68244Y95596
X69244Y95596
X70244Y95596
X71244Y95596
X72244Y95596
X73825Y92327
X73825Y95615
X130436Y73650
X131436Y73650
X131436Y74650
X131436Y75650
X131436Y76650
X130436Y76650
X130436Y75650
X130436Y74650
X130436Y77650
X130436Y78650
X130436Y82650
X130436Y83650
X130436Y84650
X130436Y85650
X130436Y86650
X130436Y87650
X130436Y90650
X130436Y91650
X130436Y92650
X130436Y93650
X130436Y94650
X145186Y95900
X146186Y95900
X149436Y81650
X150436Y81650
X149436Y80650
X149436Y79650
X149436Y78650
X147436Y77650
X146436Y77650
X146436Y76650
X147436Y76650
X147436Y75650
X146436Y75650
X146436Y74650
X147436Y74650
X147436Y73650
X146436Y73650
X145436Y73650
X144436Y73650
X143436Y73650
X142436Y73650
X141436Y73650
X140436Y73650
X139436Y73650
X138436Y73650
X137436Y73650
X136436Y73650
X147045Y89822
X146061Y89822
X145076Y89822
X138936Y91900
X137045Y89822
X136061Y89822
X135076Y89822
X138936Y95900
X133905Y96223
X130618Y96223
X127045Y89822
X126061Y89822
X125076Y89822
X136061Y79525
X136061Y75025
X142061Y75025
X142061Y79525
X155076Y89822
X156061Y89822
X157045Y89822
T05C0.059100
X46819Y6623
X46819Y4154
X46819Y1654
X40412Y1654
X38819Y1654
X38819Y4154
X40412Y4186
X40413Y6623
X38819Y6623
X32413Y6623
X32412Y4186
X32412Y1654
X32381Y34748
X32381Y37217
X32381Y39717
X38788Y39717
X40381Y39717
X40381Y37217
X38788Y37186
X38787Y34748
X40381Y34748
X46787Y34748
X48381Y34748
X48381Y37217
X46788Y37186
X46788Y39717
X48381Y39717
X54788Y39717
X54788Y37186
X54787Y34748
X79144Y6623
X79144Y4154
X79144Y1654
X72737Y1654
X71144Y1654
X71144Y4154
X72737Y4186
X72738Y6623
X71144Y6623
X64738Y6623
X64737Y4186
X64737Y1654
X64706Y34748
X64706Y37217
X64706Y39717
X71113Y39717
X72706Y39717
X72706Y37217
X71113Y37186
X71112Y34748
X72706Y34748
X79112Y34748
X80706Y34748
X80706Y37217
X79113Y37186
X79113Y39717
X80706Y39717
X87113Y39717
X87113Y37186
X87112Y34748
X111469Y6623
X111469Y4154
X111469Y1654
X105062Y1654
X103469Y1654
X103469Y4154
X105062Y4186
X105063Y6623
X103469Y6623
X97063Y6623
X97062Y4186
X97062Y1654
X97031Y34748
X97031Y37217
X97031Y39717
X103438Y39717
X105031Y39717
X105031Y37217
X103438Y37186
X103437Y34748
X105031Y34748
X111437Y34748
X113031Y34748
X113031Y37217
X111438Y37186
X111438Y39717
X113031Y39717
X119438Y39717
X119438Y37186
X119437Y34748
X126998Y9656
X124529Y9656
X122029Y9656
X122029Y16063
X122029Y17656
X124529Y17656
X124561Y16063
X126998Y16062
X126998Y17656
X126998Y24062
X124561Y24063
X122029Y24063
X155123Y24094
X157592Y24094
X160092Y24094
X160092Y17687
X160092Y16094
X157592Y16094
X157561Y17687
X155123Y17688
X155123Y16094
X155123Y9688
X155123Y8094
X157592Y8094
X157561Y9687
X160092Y9687
X160092Y8094
X160092Y1687
X157561Y1687
X155123Y1688
X126998Y41981
X124529Y41981
X122029Y41981
X122029Y48388
X122029Y49981
X124529Y49981
X124561Y48388
X126998Y48387
X126998Y49981
X126998Y56387
X124561Y56388
X122029Y56388
X155123Y56419
X157592Y56419
X160092Y56419
X160092Y50012
X160092Y48419
X157592Y48419
X157561Y50012
X155123Y50013
X155123Y48419
X155123Y42013
X155123Y40419
X157592Y40419
X157561Y42012
X160092Y42012
X160092Y40419
X160092Y34012
X157561Y34012
X155123Y34013
X31495Y50277
X29026Y50277
X26526Y50277
X26526Y56684
X26526Y58277
X29026Y58277
X29058Y56684
X31495Y56683
X31495Y58277
X31495Y64683
X29058Y64684
X26526Y64684
X59620Y64715
X62089Y64715
X64589Y64715
X64589Y58308
X64589Y56715
X62089Y56715
X62058Y58308
X59620Y58309
X59620Y56715
X59620Y50309
X59620Y48715
X62089Y48715
X62058Y50308
X64589Y50308
X64589Y48715
X64589Y42308
X62058Y42308
X59620Y42309
X86377Y73677
X83908Y73677
X81408Y73677
X81408Y80084
X81408Y81677
X83908Y81677
X83940Y80084
X86377Y80083
X86377Y81677
X86377Y88083
X83940Y88084
X81408Y88084
X114502Y88115
X116971Y88115
X119471Y88115
X119471Y81708
X119471Y80115
X116971Y80115
X116940Y81708
X114502Y81709
X114502Y80115
X114502Y73709
X114502Y72115
X116971Y72115
X116940Y73708
X119471Y73708
X119471Y72115
X119471Y65708
X116940Y65708
X114502Y65709
X126998Y74306
X124529Y74306
X122029Y74306
X122029Y80713
X122029Y82306
X124529Y82306
X124561Y80713
X126998Y80712
X126998Y82306
X126998Y88712
X124561Y88713
X122029Y88713
X155123Y88744
X157592Y88744
X160092Y88744
X160092Y82337
X160092Y80744
X157592Y80744
X157561Y82337
X155123Y82338
X155123Y80744
X155123Y74338
X155123Y72744
X157592Y72744
X157561Y74337
X160092Y74337
X160092Y72744
X160092Y66337
X157561Y66337
X155123Y66338
T06C0.078700
X28350Y33914
X28350Y37457
X28350Y27457
X28350Y23914
X28350Y17457
X28350Y13914
X28350Y7457
X28350Y3914
X60675Y33914
X60675Y37457
X60675Y27457
X60675Y23914
X60675Y17457
X60675Y13914
X60675Y7457
X60675Y3914
X93000Y33914
X93000Y37457
X93000Y27457
X93000Y23914
X93000Y17457
X93000Y13914
X93000Y7457
X93000Y3914
X154289Y28125
X157832Y28125
X147832Y28125
X144289Y28125
X137832Y28125
X134289Y28125
X127832Y28125
X124289Y28125
X154289Y60450
X157832Y60450
X147832Y60450
X144289Y60450
X137832Y60450
X134289Y60450
X127832Y60450
X124289Y60450
X58786Y68746
X62329Y68746
X52329Y68746
X48786Y68746
X42329Y68746
X38786Y68746
X32329Y68746
X28786Y68746
X113668Y92146
X117211Y92146
X107211Y92146
X103668Y92146
X97211Y92146
X93668Y92146
X87211Y92146
X83668Y92146
X154289Y92775
X157832Y92775
X147832Y92775
X144289Y92775
X137832Y92775
X134289Y92775
X127832Y92775
X124289Y92775
T07C0.118000
X27869Y21186
X26688Y23036
X25506Y21186
X60194Y21186
X59013Y23036
X57831Y21186
X92519Y21186
X91338Y23036
X90156Y21186
X141561Y28606
X143411Y29787
X141561Y30969
X141561Y60931
X143411Y62112
X141561Y63294
X46058Y69227
X47908Y70408
X46058Y71590
X100940Y92627
X102790Y93808
X100940Y94990
X141561Y93256
X143411Y94437
X141561Y95619
M30
