%
T01C0.021650
X13300Y26125
X12300Y27125
X11800Y29500
X13300Y30625
X7300Y30625
X3425Y29125
X4300Y26625
X2425Y23125
X2925Y22625
X5550Y19625
X12800Y13000
X12300Y12500
X17550Y15125
X23550Y12625
X24300Y17625
X23300Y18625
X30425Y20125
X26300Y27125
X5675Y8625
X11300Y13625
X8425Y16000
X20675Y16125
X22800Y17125
X20800Y18125
X21800Y19625
X24800Y22625
X25300Y23125
X30425Y18125
X29800Y13625
X27175Y11125
X26300Y12125
X26300Y9625
X20675Y12625
X32800Y11125
X33800Y12125
X33800Y23000
X18800Y26625
X13300Y58625
X12300Y59625
X11800Y62000
X13300Y63125
X7300Y63125
X3425Y61625
X4300Y59125
X2425Y55625
X2925Y55125
X5550Y52125
X12800Y45500
X12300Y45000
X17550Y47625
X23550Y45125
X24300Y50125
X23300Y51125
X30425Y52625
X26300Y59625
X5675Y41125
X11300Y46125
X8425Y48500
X20675Y48625
X22800Y49625
X20800Y50625
X21800Y52125
X24800Y55125
X25300Y55625
X30425Y50625
X29800Y46125
X27175Y43625
X26300Y44625
X26300Y42125
X20675Y45125
X32800Y43625
X33800Y44625
X33800Y55500
X18800Y59125
X13300Y91125
X12300Y92125
X11800Y94500
X13300Y95625
X7300Y95625
X3425Y94125
X4300Y91625
X2425Y88125
X2925Y87625
X5550Y84625
X12800Y78000
X12300Y77500
X17550Y80125
X23550Y77625
X24300Y82625
X23300Y83625
X30425Y85125
X26300Y92125
X5675Y73625
X11300Y78625
X8425Y81000
X20675Y81125
X22800Y82125
X20800Y83125
X21800Y84625
X24800Y87625
X25300Y88125
X30425Y83125
X29800Y78625
X27175Y76125
X26300Y77125
X26300Y74625
X20675Y77625
X32800Y76125
X33800Y77125
X33800Y88000
X18800Y91625
X54800Y26125
X53800Y27125
X53300Y29500
X54800Y30625
X48800Y30625
X44925Y29125
X45800Y26625
X43925Y23125
X44425Y22625
X47050Y19625
X54300Y13000
X53800Y12500
X59050Y15125
X65050Y12625
X65800Y17625
X64800Y18625
X71925Y20125
X67800Y27125
X47175Y8625
X52800Y13625
X49925Y16000
X62175Y16125
X64300Y17125
X62300Y18125
X63300Y19625
X66300Y22625
X66800Y23125
X71925Y18125
X71300Y13625
X68675Y11125
X67800Y12125
X67800Y9625
X62175Y12625
X74300Y11125
X75300Y12125
X75300Y23000
X60300Y26625
X54800Y58625
X53800Y59625
X53300Y62000
X54800Y63125
X48800Y63125
X44925Y61625
X45800Y59125
X43925Y55625
X44425Y55125
X47050Y52125
X54300Y45500
X53800Y45000
X59050Y47625
X65050Y45125
X65800Y50125
X64800Y51125
X71925Y52625
X67800Y59625
X47175Y41125
X52800Y46125
X49925Y48500
X62175Y48625
X64300Y49625
X62300Y50625
X63300Y52125
X66300Y55125
X66800Y55625
X71925Y50625
X71300Y46125
X68675Y43625
X67800Y44625
X67800Y42125
X62175Y45125
X74300Y43625
X75300Y44625
X75300Y55500
X60300Y59125
X54800Y91125
X53800Y92125
X53300Y94500
X54800Y95625
X48800Y95625
X44925Y94125
X45800Y91625
X43925Y88125
X44425Y87625
X47050Y84625
X54300Y78000
X53800Y77500
X59050Y80125
X65050Y77625
X65800Y82625
X64800Y83625
X71925Y85125
X67800Y92125
X47175Y73625
X52800Y78625
X49925Y81000
X62175Y81125
X64300Y82125
X62300Y83125
X63300Y84625
X66300Y87625
X66800Y88125
X71925Y83125
X71300Y78625
X68675Y76125
X67800Y77125
X67800Y74625
X62175Y77625
X74300Y76125
X75300Y77125
X75300Y88000
X60300Y91625
X90375Y1525
X90375Y2400
X93125Y1650
X93125Y3400
X93000Y5025
X93250Y5650
X93000Y6275
X94750Y6275
X95500Y6650
X96875Y5400
X97250Y5775
X98000Y4900
X97625Y4650
X96500Y4775
X97000Y3400
X97000Y2400
X98625Y2400
X98625Y3275
X98625Y3775
X100375Y3650
X100875Y3650
X101500Y3525
X101500Y3025
X102875Y2400
X104000Y3150
X103500Y5650
X103500Y6525
X102125Y7275
X101750Y7525
X101375Y7775
X101170Y8196
X100250Y8650
X99750Y9650
X99375Y9400
X99000Y9150
X98625Y8900
X96750Y10275
X96875Y10775
X97250Y11650
X97750Y11775
X98125Y12025
X98500Y11775
X99875Y12400
X99875Y12900
X99875Y13400
X99375Y13400
X99000Y13650
X99750Y13900
X99000Y14650
X98375Y15150
X98750Y15400
X98000Y14900
X98250Y16150
X98250Y16650
X97750Y16650
X98000Y17400
X98375Y17775
X98750Y18150
X99000Y18525
X99500Y18900
X99125Y19150
X98375Y19150
X98000Y19400
X97625Y19150
X97125Y19025
X96250Y19025
X95750Y19025
X95375Y19525
X95000Y18900
X94625Y18400
X94250Y18775
X93750Y18275
X94500Y17775
X95000Y17775
X95000Y17275
X95000Y16775
X94375Y15650
X95000Y14775
X95000Y14275
X95000Y13775
X94750Y12775
X93375Y13650
X93000Y14400
X92500Y15275
X90000Y13025
X90375Y12775
X90750Y12525
X91250Y12275
X90875Y11650
X89250Y13025
X89625Y13275
X88875Y12775
X88500Y12525
X88000Y13025
X88250Y13400
X88500Y13775
X88750Y14150
X86625Y14900
X86250Y15150
X85875Y14900
X86500Y13775
X86500Y12275
X85625Y11025
X85625Y10025
X86250Y8275
X87000Y8275
X88250Y10275
X88750Y10275
X88250Y11775
X90625Y8775
X92750Y9025
X94625Y10150
X95250Y10775
X94250Y11650
X93000Y11650
X96250Y15525
X96250Y16650
X97000Y17025
X99000Y16605
X99792Y16693
X100125Y17025
X101625Y15525
X101625Y15025
X102125Y15275
X102625Y14650
X102625Y14150
X102625Y13650
X102237Y12913
X101927Y12598
X101617Y12283
X100625Y11775
X101170Y11605
X106375Y14525
X106375Y16025
X103250Y17775
X102875Y17400
X102125Y19025
X103250Y19525
X102875Y20025
X102625Y21025
X102250Y21650
X104125Y20525
X99750Y21400
X98500Y21275
X97000Y21650
X94500Y20025
X93750Y20025
X93750Y21025
X92625Y21150
X92125Y20900
X91750Y21150
X91500Y21900
X90750Y21150
X90750Y20400
X89250Y20400
X88125Y20650
X87000Y20275
X89250Y18900
X89750Y18900
X91000Y18900
X91500Y18900
X92250Y18900
X92625Y18650
X92750Y18275
X93000Y18900
X86625Y16900
X86375Y16525
X86000Y18025
X89500Y6275
X94750Y5025
X99875Y5775
X100375Y4650
X100875Y4650
X107625Y5900
X107625Y7150
X90375Y25525
X90375Y26400
X93125Y25650
X93125Y27400
X93000Y29025
X93250Y29650
X93000Y30275
X94750Y30275
X95500Y30650
X96875Y29400
X97250Y29775
X98000Y28900
X97625Y28650
X96500Y28775
X97000Y27400
X97000Y26400
X98625Y26400
X98625Y27275
X98625Y27775
X100375Y27650
X100875Y27650
X101500Y27525
X101500Y27025
X102875Y26400
X104000Y27150
X103500Y29650
X103500Y30525
X102125Y31275
X101750Y31525
X101375Y31775
X101170Y32196
X100250Y32650
X99750Y33650
X99375Y33400
X99000Y33150
X98625Y32900
X96750Y34275
X96875Y34775
X97250Y35650
X97750Y35775
X98125Y36025
X98500Y35775
X99875Y36400
X99875Y36900
X99875Y37400
X99375Y37400
X99000Y37650
X99750Y37900
X99000Y38650
X98375Y39150
X98750Y39400
X98000Y38900
X98250Y40150
X98250Y40650
X97750Y40650
X98000Y41400
X98375Y41775
X98750Y42150
X99000Y42525
X99500Y42900
X99125Y43150
X98375Y43150
X98000Y43400
X97625Y43150
X97125Y43025
X96250Y43025
X95750Y43025
X95375Y43525
X95000Y42900
X94625Y42400
X94250Y42775
X93750Y42275
X94500Y41775
X95000Y41775
X95000Y41275
X95000Y40775
X94375Y39650
X95000Y38775
X95000Y38275
X95000Y37775
X94750Y36775
X93375Y37650
X93000Y38400
X92500Y39275
X90000Y37025
X90375Y36775
X90750Y36525
X91250Y36275
X90875Y35650
X89250Y37025
X89625Y37275
X88875Y36775
X88500Y36525
X88000Y37025
X88250Y37400
X88500Y37775
X88750Y38150
X86625Y38900
X86250Y39150
X85875Y38900
X86500Y37775
X86500Y36275
X85625Y35025
X85625Y34025
X86250Y32275
X87000Y32275
X88250Y34275
X88750Y34275
X88250Y35775
X90625Y32775
X92750Y33025
X94625Y34150
X95250Y34775
X94250Y35650
X93000Y35650
X96250Y39525
X96250Y40650
X97000Y41025
X99000Y40605
X99792Y40693
X100125Y41025
X101625Y39525
X101625Y39025
X102125Y39275
X102625Y38650
X102625Y38150
X102625Y37650
X102237Y36913
X101927Y36598
X101617Y36283
X100625Y35775
X101170Y35605
X106375Y38525
X106375Y40025
X103250Y41775
X102875Y41400
X102125Y43025
X103250Y43525
X102875Y44025
X102625Y45025
X102250Y45650
X104125Y44525
X99750Y45400
X98500Y45275
X97000Y45650
X94500Y44025
X93750Y44025
X93750Y45025
X92625Y45150
X92125Y44900
X91750Y45150
X91500Y45900
X90750Y45150
X90750Y44400
X89250Y44400
X88125Y44650
X87000Y44275
X89250Y42900
X89750Y42900
X91000Y42900
X91500Y42900
X92250Y42900
X92625Y42650
X92750Y42275
X93000Y42900
X86625Y40900
X86375Y40525
X86000Y42025
X89500Y30275
X94750Y29025
X99875Y29775
X100375Y28650
X100875Y28650
X107625Y29900
X107625Y31150
X90375Y49525
X90375Y50400
X93125Y49650
X93125Y51400
X93000Y53025
X93250Y53650
X93000Y54275
X94750Y54275
X95500Y54650
X96875Y53400
X97250Y53775
X98000Y52900
X97625Y52650
X96500Y52775
X97000Y51400
X97000Y50400
X98625Y50400
X98625Y51275
X98625Y51775
X100375Y51650
X100875Y51650
X101500Y51525
X101500Y51025
X102875Y50400
X104000Y51150
X103500Y53650
X103500Y54525
X102125Y55275
X101750Y55525
X101375Y55775
X101170Y56196
X100250Y56650
X99750Y57650
X99375Y57400
X99000Y57150
X98625Y56900
X96750Y58275
X96875Y58775
X97250Y59650
X97750Y59775
X98125Y60025
X98500Y59775
X99875Y60400
X99875Y60900
X99875Y61400
X99375Y61400
X99000Y61650
X99750Y61900
X99000Y62650
X98375Y63150
X98750Y63400
X98000Y62900
X98250Y64150
X98250Y64650
X97750Y64650
X98000Y65400
X98375Y65775
X98750Y66150
X99000Y66525
X99500Y66900
X99125Y67150
X98375Y67150
X98000Y67400
X97625Y67150
X97125Y67025
X96250Y67025
X95750Y67025
X95375Y67525
X95000Y66900
X94625Y66400
X94250Y66775
X93750Y66275
X94500Y65775
X95000Y65775
X95000Y65275
X95000Y64775
X94375Y63650
X95000Y62775
X95000Y62275
X95000Y61775
X94750Y60775
X93375Y61650
X93000Y62400
X92500Y63275
X90000Y61025
X90375Y60775
X90750Y60525
X91250Y60275
X90875Y59650
X89250Y61025
X89625Y61275
X88875Y60775
X88500Y60525
X88000Y61025
X88250Y61400
X88500Y61775
X88750Y62150
X86625Y62900
X86250Y63150
X85875Y62900
X86500Y61775
X86500Y60275
X85625Y59025
X85625Y58025
X86250Y56275
X87000Y56275
X88250Y58275
X88750Y58275
X88250Y59775
X90625Y56775
X92750Y57025
X94625Y58150
X95250Y58775
X94250Y59650
X93000Y59650
X96250Y63525
X96250Y64650
X97000Y65025
X99000Y64605
X99792Y64693
X100125Y65025
X101625Y63525
X101625Y63025
X102125Y63275
X102625Y62650
X102625Y62150
X102625Y61650
X102237Y60913
X101927Y60598
X101617Y60283
X100625Y59775
X101170Y59605
X106375Y62525
X106375Y64025
X103250Y65775
X102875Y65400
X102125Y67025
X103250Y67525
X102875Y68025
X102625Y69025
X102250Y69650
X104125Y68525
X99750Y69400
X98500Y69275
X97000Y69650
X94500Y68025
X93750Y68025
X93750Y69025
X92625Y69150
X92125Y68900
X91750Y69150
X91500Y69900
X90750Y69150
X90750Y68400
X89250Y68400
X88125Y68650
X87000Y68275
X89250Y66900
X89750Y66900
X91000Y66900
X91500Y66900
X92250Y66900
X92625Y66650
X92750Y66275
X93000Y66900
X86625Y64900
X86375Y64525
X86000Y66025
X89500Y54275
X94750Y53025
X99875Y53775
X100375Y52650
X100875Y52650
X107625Y53900
X107625Y55150
X90375Y73525
X90375Y74400
X93125Y73650
X93125Y75400
X93000Y77025
X93250Y77650
X93000Y78275
X94750Y78275
X95500Y78650
X96875Y77400
X97250Y77775
X98000Y76900
X97625Y76650
X96500Y76775
X97000Y75400
X97000Y74400
X98625Y74400
X98625Y75275
X98625Y75775
X100375Y75650
X100875Y75650
X101500Y75525
X101500Y75025
X102875Y74400
X104000Y75150
X103500Y77650
X103500Y78525
X102125Y79275
X101750Y79525
X101375Y79775
X101170Y80196
X100250Y80650
X99750Y81650
X99375Y81400
X99000Y81150
X98625Y80900
X96750Y82275
X96875Y82775
X97250Y83650
X97750Y83775
X98125Y84025
X98500Y83775
X99875Y84400
X99875Y84900
X99875Y85400
X99375Y85400
X99000Y85650
X99750Y85900
X99000Y86650
X98375Y87150
X98750Y87400
X98000Y86900
X98250Y88150
X98250Y88650
X97750Y88650
X98000Y89400
X98375Y89775
X98750Y90150
X99000Y90525
X99500Y90900
X99125Y91150
X98375Y91150
X98000Y91400
X97625Y91150
X97125Y91025
X96250Y91025
X95750Y91025
X95375Y91525
X95000Y90900
X94625Y90400
X94250Y90775
X93750Y90275
X94500Y89775
X95000Y89775
X95000Y89275
X95000Y88775
X94375Y87650
X95000Y86775
X95000Y86275
X95000Y85775
X94750Y84775
X93375Y85650
X93000Y86400
X92500Y87275
X90000Y85025
X90375Y84775
X90750Y84525
X91250Y84275
X90875Y83650
X89250Y85025
X89625Y85275
X88875Y84775
X88500Y84525
X88000Y85025
X88250Y85400
X88500Y85775
X88750Y86150
X86625Y86900
X86250Y87150
X85875Y86900
X86500Y85775
X86500Y84275
X85625Y83025
X85625Y82025
X86250Y80275
X87000Y80275
X88250Y82275
X88750Y82275
X88250Y83775
X90625Y80775
X92750Y81025
X94625Y82150
X95250Y82775
X94250Y83650
X93000Y83650
X96250Y87525
X96250Y88650
X97000Y89025
X99000Y88605
X99792Y88693
X100125Y89025
X101625Y87525
X101625Y87025
X102125Y87275
X102625Y86650
X102625Y86150
X102625Y85650
X102237Y84913
X101927Y84598
X101617Y84283
X100625Y83775
X101170Y83605
X106375Y86525
X106375Y88025
X103250Y89775
X102875Y89400
X102125Y91025
X103250Y91525
X102875Y92025
X102625Y93025
X102250Y93650
X104125Y92525
X99750Y93400
X98500Y93275
X97000Y93650
X94500Y92025
X93750Y92025
X93750Y93025
X92625Y93150
X92125Y92900
X91750Y93150
X91500Y93900
X90750Y93150
X90750Y92400
X89250Y92400
X88125Y92650
X87000Y92275
X89250Y90900
X89750Y90900
X91000Y90900
X91500Y90900
X92250Y90900
X92625Y90650
X92750Y90275
X93000Y90900
X86625Y88900
X86375Y88525
X86000Y90025
X89500Y78275
X94750Y77025
X99875Y77775
X100375Y76650
X100875Y76650
X107625Y77900
X107625Y79150
X115375Y1525
X115375Y2400
X118125Y1650
X118125Y3400
X118000Y5025
X118250Y5650
X118000Y6275
X119750Y6275
X120500Y6650
X121875Y5400
X122250Y5775
X123000Y4900
X122625Y4650
X121500Y4775
X122000Y3400
X122000Y2400
X123625Y2400
X123625Y3275
X123625Y3775
X125375Y3650
X125875Y3650
X126500Y3525
X126500Y3025
X127875Y2400
X129000Y3150
X128500Y5650
X128500Y6525
X127125Y7275
X126750Y7525
X126375Y7775
X126170Y8196
X125250Y8650
X124750Y9650
X124375Y9400
X124000Y9150
X123625Y8900
X121750Y10275
X121875Y10775
X122250Y11650
X122750Y11775
X123125Y12025
X123500Y11775
X124875Y12400
X124875Y12900
X124875Y13400
X124375Y13400
X124000Y13650
X124750Y13900
X124000Y14650
X123375Y15150
X123750Y15400
X123000Y14900
X123250Y16150
X123250Y16650
X122750Y16650
X123000Y17400
X123375Y17775
X123750Y18150
X124000Y18525
X124500Y18900
X124125Y19150
X123375Y19150
X123000Y19400
X122625Y19150
X122125Y19025
X121250Y19025
X120750Y19025
X120375Y19525
X120000Y18900
X119625Y18400
X119250Y18775
X118750Y18275
X119500Y17775
X120000Y17775
X120000Y17275
X120000Y16775
X119375Y15650
X120000Y14775
X120000Y14275
X120000Y13775
X119750Y12775
X118375Y13650
X118000Y14400
X117500Y15275
X115000Y13025
X115375Y12775
X115750Y12525
X116250Y12275
X115875Y11650
X114250Y13025
X114625Y13275
X113875Y12775
X113500Y12525
X113000Y13025
X113250Y13400
X113500Y13775
X113750Y14150
X111625Y14900
X111250Y15150
X110875Y14900
X111500Y13775
X111500Y12275
X110625Y11025
X110625Y10025
X111250Y8275
X112000Y8275
X113250Y10275
X113750Y10275
X113250Y11775
X115625Y8775
X117750Y9025
X119625Y10150
X120250Y10775
X119250Y11650
X118000Y11650
X121250Y15525
X121250Y16650
X122000Y17025
X124000Y16605
X124792Y16693
X125125Y17025
X126625Y15525
X126625Y15025
X127125Y15275
X127625Y14650
X127625Y14150
X127625Y13650
X127237Y12913
X126927Y12598
X126617Y12283
X125625Y11775
X126170Y11605
X131375Y14525
X131375Y16025
X128250Y17775
X127875Y17400
X127125Y19025
X128250Y19525
X127875Y20025
X127625Y21025
X127250Y21650
X129125Y20525
X124750Y21400
X123500Y21275
X122000Y21650
X119500Y20025
X118750Y20025
X118750Y21025
X117625Y21150
X117125Y20900
X116750Y21150
X116500Y21900
X115750Y21150
X115750Y20400
X114250Y20400
X113125Y20650
X112000Y20275
X114250Y18900
X114750Y18900
X116000Y18900
X116500Y18900
X117250Y18900
X117625Y18650
X117750Y18275
X118000Y18900
X111625Y16900
X111375Y16525
X111000Y18025
X114500Y6275
X119750Y5025
X124875Y5775
X125375Y4650
X125875Y4650
X132625Y5900
X132625Y7150
X115375Y25525
X115375Y26400
X118125Y25650
X118125Y27400
X118000Y29025
X118250Y29650
X118000Y30275
X119750Y30275
X120500Y30650
X121875Y29400
X122250Y29775
X123000Y28900
X122625Y28650
X121500Y28775
X122000Y27400
X122000Y26400
X123625Y26400
X123625Y27275
X123625Y27775
X125375Y27650
X125875Y27650
X126500Y27525
X126500Y27025
X127875Y26400
X129000Y27150
X128500Y29650
X128500Y30525
X127125Y31275
X126750Y31525
X126375Y31775
X126170Y32196
X125250Y32650
X124750Y33650
X124375Y33400
X124000Y33150
X123625Y32900
X121750Y34275
X121875Y34775
X122250Y35650
X122750Y35775
X123125Y36025
X123500Y35775
X124875Y36400
X124875Y36900
X124875Y37400
X124375Y37400
X124000Y37650
X124750Y37900
X124000Y38650
X123375Y39150
X123750Y39400
X123000Y38900
X123250Y40150
X123250Y40650
X122750Y40650
X123000Y41400
X123375Y41775
X123750Y42150
X124000Y42525
X124500Y42900
X124125Y43150
X123375Y43150
X123000Y43400
X122625Y43150
X122125Y43025
X121250Y43025
X120750Y43025
X120375Y43525
X120000Y42900
X119625Y42400
X119250Y42775
X118750Y42275
X119500Y41775
X120000Y41775
X120000Y41275
X120000Y40775
X119375Y39650
X120000Y38775
X120000Y38275
X120000Y37775
X119750Y36775
X118375Y37650
X118000Y38400
X117500Y39275
X115000Y37025
X115375Y36775
X115750Y36525
X116250Y36275
X115875Y35650
X114250Y37025
X114625Y37275
X113875Y36775
X113500Y36525
X113000Y37025
X113250Y37400
X113500Y37775
X113750Y38150
X111625Y38900
X111250Y39150
X110875Y38900
X111500Y37775
X111500Y36275
X110625Y35025
X110625Y34025
X111250Y32275
X112000Y32275
X113250Y34275
X113750Y34275
X113250Y35775
X115625Y32775
X117750Y33025
X119625Y34150
X120250Y34775
X119250Y35650
X118000Y35650
X121250Y39525
X121250Y40650
X122000Y41025
X124000Y40605
X124792Y40693
X125125Y41025
X126625Y39525
X126625Y39025
X127125Y39275
X127625Y38650
X127625Y38150
X127625Y37650
X127237Y36913
X126927Y36598
X126617Y36283
X125625Y35775
X126170Y35605
X131375Y38525
X131375Y40025
X128250Y41775
X127875Y41400
X127125Y43025
X128250Y43525
X127875Y44025
X127625Y45025
X127250Y45650
X129125Y44525
X124750Y45400
X123500Y45275
X122000Y45650
X119500Y44025
X118750Y44025
X118750Y45025
X117625Y45150
X117125Y44900
X116750Y45150
X116500Y45900
X115750Y45150
X115750Y44400
X114250Y44400
X113125Y44650
X112000Y44275
X114250Y42900
X114750Y42900
X116000Y42900
X116500Y42900
X117250Y42900
X117625Y42650
X117750Y42275
X118000Y42900
X111625Y40900
X111375Y40525
X111000Y42025
X114500Y30275
X119750Y29025
X124875Y29775
X125375Y28650
X125875Y28650
X132625Y29900
X132625Y31150
X115375Y49525
X115375Y50400
X118125Y49650
X118125Y51400
X118000Y53025
X118250Y53650
X118000Y54275
X119750Y54275
X120500Y54650
X121875Y53400
X122250Y53775
X123000Y52900
X122625Y52650
X121500Y52775
X122000Y51400
X122000Y50400
X123625Y50400
X123625Y51275
X123625Y51775
X125375Y51650
X125875Y51650
X126500Y51525
X126500Y51025
X127875Y50400
X129000Y51150
X128500Y53650
X128500Y54525
X127125Y55275
X126750Y55525
X126375Y55775
X126170Y56196
X125250Y56650
X124750Y57650
X124375Y57400
X124000Y57150
X123625Y56900
X121750Y58275
X121875Y58775
X122250Y59650
X122750Y59775
X123125Y60025
X123500Y59775
X124875Y60400
X124875Y60900
X124875Y61400
X124375Y61400
X124000Y61650
X124750Y61900
X124000Y62650
X123375Y63150
X123750Y63400
X123000Y62900
X123250Y64150
X123250Y64650
X122750Y64650
X123000Y65400
X123375Y65775
X123750Y66150
X124000Y66525
X124500Y66900
X124125Y67150
X123375Y67150
X123000Y67400
X122625Y67150
X122125Y67025
X121250Y67025
X120750Y67025
X120375Y67525
X120000Y66900
X119625Y66400
X119250Y66775
X118750Y66275
X119500Y65775
X120000Y65775
X120000Y65275
X120000Y64775
X119375Y63650
X120000Y62775
X120000Y62275
X120000Y61775
X119750Y60775
X118375Y61650
X118000Y62400
X117500Y63275
X115000Y61025
X115375Y60775
X115750Y60525
X116250Y60275
X115875Y59650
X114250Y61025
X114625Y61275
X113875Y60775
X113500Y60525
X113000Y61025
X113250Y61400
X113500Y61775
X113750Y62150
X111625Y62900
X111250Y63150
X110875Y62900
X111500Y61775
X111500Y60275
X110625Y59025
X110625Y58025
X111250Y56275
X112000Y56275
X113250Y58275
X113750Y58275
X113250Y59775
X115625Y56775
X117750Y57025
X119625Y58150
X120250Y58775
X119250Y59650
X118000Y59650
X121250Y63525
X121250Y64650
X122000Y65025
X124000Y64605
X124792Y64693
X125125Y65025
X126625Y63525
X126625Y63025
X127125Y63275
X127625Y62650
X127625Y62150
X127625Y61650
X127237Y60913
X126927Y60598
X126617Y60283
X125625Y59775
X126170Y59605
X131375Y62525
X131375Y64025
X128250Y65775
X127875Y65400
X127125Y67025
X128250Y67525
X127875Y68025
X127625Y69025
X127250Y69650
X129125Y68525
X124750Y69400
X123500Y69275
X122000Y69650
X119500Y68025
X118750Y68025
X118750Y69025
X117625Y69150
X117125Y68900
X116750Y69150
X116500Y69900
X115750Y69150
X115750Y68400
X114250Y68400
X113125Y68650
X112000Y68275
X114250Y66900
X114750Y66900
X116000Y66900
X116500Y66900
X117250Y66900
X117625Y66650
X117750Y66275
X118000Y66900
X111625Y64900
X111375Y64525
X111000Y66025
X114500Y54275
X119750Y53025
X124875Y53775
X125375Y52650
X125875Y52650
X132625Y53900
X132625Y55150
X115375Y73525
X115375Y74400
X118125Y73650
X118125Y75400
X118000Y77025
X118250Y77650
X118000Y78275
X119750Y78275
X120500Y78650
X121875Y77400
X122250Y77775
X123000Y76900
X122625Y76650
X121500Y76775
X122000Y75400
X122000Y74400
X123625Y74400
X123625Y75275
X123625Y75775
X125375Y75650
X125875Y75650
X126500Y75525
X126500Y75025
X127875Y74400
X129000Y75150
X128500Y77650
X128500Y78525
X127125Y79275
X126750Y79525
X126375Y79775
X126170Y80196
X125250Y80650
X124750Y81650
X124375Y81400
X124000Y81150
X123625Y80900
X121750Y82275
X121875Y82775
X122250Y83650
X122750Y83775
X123125Y84025
X123500Y83775
X124875Y84400
X124875Y84900
X124875Y85400
X124375Y85400
X124000Y85650
X124750Y85900
X124000Y86650
X123375Y87150
X123750Y87400
X123000Y86900
X123250Y88150
X123250Y88650
X122750Y88650
X123000Y89400
X123375Y89775
X123750Y90150
X124000Y90525
X124500Y90900
X124125Y91150
X123375Y91150
X123000Y91400
X122625Y91150
X122125Y91025
X121250Y91025
X120750Y91025
X120375Y91525
X120000Y90900
X119625Y90400
X119250Y90775
X118750Y90275
X119500Y89775
X120000Y89775
X120000Y89275
X120000Y88775
X119375Y87650
X120000Y86775
X120000Y86275
X120000Y85775
X119750Y84775
X118375Y85650
X118000Y86400
X117500Y87275
X115000Y85025
X115375Y84775
X115750Y84525
X116250Y84275
X115875Y83650
X114250Y85025
X114625Y85275
X113875Y84775
X113500Y84525
X113000Y85025
X113250Y85400
X113500Y85775
X113750Y86150
X111625Y86900
X111250Y87150
X110875Y86900
X111500Y85775
X111500Y84275
X110625Y83025
X110625Y82025
X111250Y80275
X112000Y80275
X113250Y82275
X113750Y82275
X113250Y83775
X115625Y80775
X117750Y81025
X119625Y82150
X120250Y82775
X119250Y83650
X118000Y83650
X121250Y87525
X121250Y88650
X122000Y89025
X124000Y88605
X124792Y88693
X125125Y89025
X126625Y87525
X126625Y87025
X127125Y87275
X127625Y86650
X127625Y86150
X127625Y85650
X127237Y84913
X126927Y84598
X126617Y84283
X125625Y83775
X126170Y83605
X131375Y86525
X131375Y88025
X128250Y89775
X127875Y89400
X127125Y91025
X128250Y91525
X127875Y92025
X127625Y93025
X127250Y93650
X129125Y92525
X124750Y93400
X123500Y93275
X122000Y93650
X119500Y92025
X118750Y92025
X118750Y93025
X117625Y93150
X117125Y92900
X116750Y93150
X116500Y93900
X115750Y93150
X115750Y92400
X114250Y92400
X113125Y92650
X112000Y92275
X114250Y90900
X114750Y90900
X116000Y90900
X116500Y90900
X117250Y90900
X117625Y90650
X117750Y90275
X118000Y90900
X111625Y88900
X111375Y88525
X111000Y90025
X114500Y78275
X119750Y77025
X124875Y77775
X125375Y76650
X125875Y76650
X132625Y77900
X132625Y79150
T02C0.033450
X19800Y20125
X22800Y20125
X22800Y16125
X19800Y16125
X20300Y25625
X20300Y24625
X21300Y24625
X22300Y24625
X23300Y24625
X24300Y24625
X22300Y25625
X19300Y24625
X18300Y24625
X16800Y23625
X15800Y23625
X14800Y23625
X14800Y22625
X14800Y21625
X15800Y21625
X16800Y21625
X18300Y21625
X19300Y21625
X20300Y21625
X21300Y21625
X22300Y21625
X23300Y21625
X24300Y21625
X26300Y21125
X26300Y20125
X26300Y19125
X26300Y18125
X26300Y17125
X26300Y16125
X26300Y15125
X25300Y15125
X26300Y14125
X24300Y13625
X22800Y14125
X21300Y13625
X19800Y14125
X18300Y13625
X16800Y14125
X15300Y13625
X13800Y14125
X14800Y15625
X15800Y15625
X15800Y16625
X14800Y16625
X14800Y17625
X14800Y18625
X15800Y18625
X16800Y20125
X18800Y20125
X14800Y20625
X13800Y19625
X11800Y19625
X11800Y18625
X11800Y17625
X11800Y16625
X11800Y15625
X15300Y11625
X16800Y11125
X18300Y11625
X19800Y11125
X21300Y11625
X22800Y11125
X24300Y11625
X29300Y14125
X29300Y15125
X29300Y16125
X29300Y17125
X29300Y18125
X28300Y19125
X28300Y20125
X29300Y21125
X29300Y22125
X29300Y23125
X28300Y24125
X26300Y24125
X26300Y23125
X26300Y22125
X31300Y18625
X31300Y17625
X31300Y15875
X31300Y14875
X31300Y13125
X31300Y12125
X29800Y8125
X31300Y7875
X31800Y7125
X30800Y7125
X31300Y5375
X31800Y4625
X30800Y4625
X29800Y4125
X29800Y2625
X29800Y1625
X32800Y1625
X32800Y2625
X18800Y15625
X13800Y11125
X7300Y7125
X6300Y7125
X6675Y4625
X5800Y4625
X8300Y4125
X9300Y4125
X6675Y1625
X5800Y1625
X25300Y17125
X11800Y20625
X11800Y21625
X11800Y22625
X11800Y23625
X15675Y31500
X17675Y31500
X19800Y52625
X22800Y52625
X22800Y48625
X19800Y48625
X20300Y58125
X20300Y57125
X21300Y57125
X22300Y57125
X23300Y57125
X24300Y57125
X22300Y58125
X19300Y57125
X18300Y57125
X16800Y56125
X15800Y56125
X14800Y56125
X14800Y55125
X14800Y54125
X15800Y54125
X16800Y54125
X18300Y54125
X19300Y54125
X20300Y54125
X21300Y54125
X22300Y54125
X23300Y54125
X24300Y54125
X26300Y53625
X26300Y52625
X26300Y51625
X26300Y50625
X26300Y49625
X26300Y48625
X26300Y47625
X25300Y47625
X26300Y46625
X24300Y46125
X22800Y46625
X21300Y46125
X19800Y46625
X18300Y46125
X16800Y46625
X15300Y46125
X13800Y46625
X14800Y48125
X15800Y48125
X15800Y49125
X14800Y49125
X14800Y50125
X14800Y51125
X15800Y51125
X16800Y52625
X18800Y52625
X14800Y53125
X13800Y52125
X11800Y52125
X11800Y51125
X11800Y50125
X11800Y49125
X11800Y48125
X15300Y44125
X16800Y43625
X18300Y44125
X19800Y43625
X21300Y44125
X22800Y43625
X24300Y44125
X29300Y46625
X29300Y47625
X29300Y48625
X29300Y49625
X29300Y50625
X28300Y51625
X28300Y52625
X29300Y53625
X29300Y54625
X29300Y55625
X28300Y56625
X26300Y56625
X26300Y55625
X26300Y54625
X31300Y51125
X31300Y50125
X31300Y48375
X31300Y47375
X31300Y45625
X31300Y44625
X29800Y40625
X31300Y40375
X31800Y39625
X30800Y39625
X31300Y37875
X31800Y37125
X30800Y37125
X29800Y36625
X29800Y35125
X29800Y34125
X32800Y34125
X32800Y35125
X18800Y48125
X13800Y43625
X7300Y39625
X6300Y39625
X6675Y37125
X5800Y37125
X8300Y36625
X9300Y36625
X6675Y34125
X5800Y34125
X25300Y49625
X11800Y53125
X11800Y54125
X11800Y55125
X11800Y56125
X15675Y64000
X17675Y64000
X19800Y85125
X22800Y85125
X22800Y81125
X19800Y81125
X20300Y90625
X20300Y89625
X21300Y89625
X22300Y89625
X23300Y89625
X24300Y89625
X22300Y90625
X19300Y89625
X18300Y89625
X16800Y88625
X15800Y88625
X14800Y88625
X14800Y87625
X14800Y86625
X15800Y86625
X16800Y86625
X18300Y86625
X19300Y86625
X20300Y86625
X21300Y86625
X22300Y86625
X23300Y86625
X24300Y86625
X26300Y86125
X26300Y85125
X26300Y84125
X26300Y83125
X26300Y82125
X26300Y81125
X26300Y80125
X25300Y80125
X26300Y79125
X24300Y78625
X22800Y79125
X21300Y78625
X19800Y79125
X18300Y78625
X16800Y79125
X15300Y78625
X13800Y79125
X14800Y80625
X15800Y80625
X15800Y81625
X14800Y81625
X14800Y82625
X14800Y83625
X15800Y83625
X16800Y85125
X18800Y85125
X14800Y85625
X13800Y84625
X11800Y84625
X11800Y83625
X11800Y82625
X11800Y81625
X11800Y80625
X15300Y76625
X16800Y76125
X18300Y76625
X19800Y76125
X21300Y76625
X22800Y76125
X24300Y76625
X29300Y79125
X29300Y80125
X29300Y81125
X29300Y82125
X29300Y83125
X28300Y84125
X28300Y85125
X29300Y86125
X29300Y87125
X29300Y88125
X28300Y89125
X26300Y89125
X26300Y88125
X26300Y87125
X31300Y83625
X31300Y82625
X31300Y80875
X31300Y79875
X31300Y78125
X31300Y77125
X29800Y73125
X31300Y72875
X31800Y72125
X30800Y72125
X31300Y70375
X31800Y69625
X30800Y69625
X29800Y69125
X29800Y67625
X29800Y66625
X32800Y66625
X32800Y67625
X18800Y80625
X13800Y76125
X7300Y72125
X6300Y72125
X6675Y69625
X5800Y69625
X8300Y69125
X9300Y69125
X6675Y66625
X5800Y66625
X25300Y82125
X11800Y85625
X11800Y86625
X11800Y87625
X11800Y88625
X15675Y96500
X17675Y96500
X61300Y20125
X64300Y20125
X64300Y16125
X61300Y16125
X61800Y25625
X61800Y24625
X62800Y24625
X63800Y24625
X64800Y24625
X65800Y24625
X63800Y25625
X60800Y24625
X59800Y24625
X58300Y23625
X57300Y23625
X56300Y23625
X56300Y22625
X56300Y21625
X57300Y21625
X58300Y21625
X59800Y21625
X60800Y21625
X61800Y21625
X62800Y21625
X63800Y21625
X64800Y21625
X65800Y21625
X67800Y21125
X67800Y20125
X67800Y19125
X67800Y18125
X67800Y17125
X67800Y16125
X67800Y15125
X66800Y15125
X67800Y14125
X65800Y13625
X64300Y14125
X62800Y13625
X61300Y14125
X59800Y13625
X58300Y14125
X56800Y13625
X55300Y14125
X56300Y15625
X57300Y15625
X57300Y16625
X56300Y16625
X56300Y17625
X56300Y18625
X57300Y18625
X58300Y20125
X60300Y20125
X56300Y20625
X55300Y19625
X53300Y19625
X53300Y18625
X53300Y17625
X53300Y16625
X53300Y15625
X56800Y11625
X58300Y11125
X59800Y11625
X61300Y11125
X62800Y11625
X64300Y11125
X65800Y11625
X70800Y14125
X70800Y15125
X70800Y16125
X70800Y17125
X70800Y18125
X69800Y19125
X69800Y20125
X70800Y21125
X70800Y22125
X70800Y23125
X69800Y24125
X67800Y24125
X67800Y23125
X67800Y22125
X72800Y18625
X72800Y17625
X72800Y15875
X72800Y14875
X72800Y13125
X72800Y12125
X71300Y8125
X72800Y7875
X73300Y7125
X72300Y7125
X72800Y5375
X73300Y4625
X72300Y4625
X71300Y4125
X71300Y2625
X71300Y1625
X74300Y1625
X74300Y2625
X60300Y15625
X55300Y11125
X48800Y7125
X47800Y7125
X48175Y4625
X47300Y4625
X49800Y4125
X50800Y4125
X48175Y1625
X47300Y1625
X66800Y17125
X53300Y20625
X53300Y21625
X53300Y22625
X53300Y23625
X57175Y31500
X59175Y31500
X61300Y52625
X64300Y52625
X64300Y48625
X61300Y48625
X61800Y58125
X61800Y57125
X62800Y57125
X63800Y57125
X64800Y57125
X65800Y57125
X63800Y58125
X60800Y57125
X59800Y57125
X58300Y56125
X57300Y56125
X56300Y56125
X56300Y55125
X56300Y54125
X57300Y54125
X58300Y54125
X59800Y54125
X60800Y54125
X61800Y54125
X62800Y54125
X63800Y54125
X64800Y54125
X65800Y54125
X67800Y53625
X67800Y52625
X67800Y51625
X67800Y50625
X67800Y49625
X67800Y48625
X67800Y47625
X66800Y47625
X67800Y46625
X65800Y46125
X64300Y46625
X62800Y46125
X61300Y46625
X59800Y46125
X58300Y46625
X56800Y46125
X55300Y46625
X56300Y48125
X57300Y48125
X57300Y49125
X56300Y49125
X56300Y50125
X56300Y51125
X57300Y51125
X58300Y52625
X60300Y52625
X56300Y53125
X55300Y52125
X53300Y52125
X53300Y51125
X53300Y50125
X53300Y49125
X53300Y48125
X56800Y44125
X58300Y43625
X59800Y44125
X61300Y43625
X62800Y44125
X64300Y43625
X65800Y44125
X70800Y46625
X70800Y47625
X70800Y48625
X70800Y49625
X70800Y50625
X69800Y51625
X69800Y52625
X70800Y53625
X70800Y54625
X70800Y55625
X69800Y56625
X67800Y56625
X67800Y55625
X67800Y54625
X72800Y51125
X72800Y50125
X72800Y48375
X72800Y47375
X72800Y45625
X72800Y44625
X71300Y40625
X72800Y40375
X73300Y39625
X72300Y39625
X72800Y37875
X73300Y37125
X72300Y37125
X71300Y36625
X71300Y35125
X71300Y34125
X74300Y34125
X74300Y35125
X60300Y48125
X55300Y43625
X48800Y39625
X47800Y39625
X48175Y37125
X47300Y37125
X49800Y36625
X50800Y36625
X48175Y34125
X47300Y34125
X66800Y49625
X53300Y53125
X53300Y54125
X53300Y55125
X53300Y56125
X57175Y64000
X59175Y64000
X61300Y85125
X64300Y85125
X64300Y81125
X61300Y81125
X61800Y90625
X61800Y89625
X62800Y89625
X63800Y89625
X64800Y89625
X65800Y89625
X63800Y90625
X60800Y89625
X59800Y89625
X58300Y88625
X57300Y88625
X56300Y88625
X56300Y87625
X56300Y86625
X57300Y86625
X58300Y86625
X59800Y86625
X60800Y86625
X61800Y86625
X62800Y86625
X63800Y86625
X64800Y86625
X65800Y86625
X67800Y86125
X67800Y85125
X67800Y84125
X67800Y83125
X67800Y82125
X67800Y81125
X67800Y80125
X66800Y80125
X67800Y79125
X65800Y78625
X64300Y79125
X62800Y78625
X61300Y79125
X59800Y78625
X58300Y79125
X56800Y78625
X55300Y79125
X56300Y80625
X57300Y80625
X57300Y81625
X56300Y81625
X56300Y82625
X56300Y83625
X57300Y83625
X58300Y85125
X60300Y85125
X56300Y85625
X55300Y84625
X53300Y84625
X53300Y83625
X53300Y82625
X53300Y81625
X53300Y80625
X56800Y76625
X58300Y76125
X59800Y76625
X61300Y76125
X62800Y76625
X64300Y76125
X65800Y76625
X70800Y79125
X70800Y80125
X70800Y81125
X70800Y82125
X70800Y83125
X69800Y84125
X69800Y85125
X70800Y86125
X70800Y87125
X70800Y88125
X69800Y89125
X67800Y89125
X67800Y88125
X67800Y87125
X72800Y83625
X72800Y82625
X72800Y80875
X72800Y79875
X72800Y78125
X72800Y77125
X71300Y73125
X72800Y72875
X73300Y72125
X72300Y72125
X72800Y70375
X73300Y69625
X72300Y69625
X71300Y69125
X71300Y67625
X71300Y66625
X74300Y66625
X74300Y67625
X60300Y80625
X55300Y76125
X48800Y72125
X47800Y72125
X48175Y69625
X47300Y69625
X49800Y69125
X50800Y69125
X48175Y66625
X47300Y66625
X66800Y82125
X53300Y85625
X53300Y86625
X53300Y87625
X53300Y88625
X57175Y96500
X59175Y96500
T03C0.037700
X4580Y5117
X3800Y5117
X3800Y4133
X4580Y4133
X4580Y37617
X3800Y37617
X3800Y36633
X4580Y36633
X4580Y70117
X3800Y70117
X3800Y69133
X4580Y69133
X46080Y5117
X45300Y5117
X45300Y4133
X46080Y4133
X46080Y37617
X45300Y37617
X45300Y36633
X46080Y36633
X46080Y70117
X45300Y70117
X45300Y69133
X46080Y69133
X85000Y1525
X85000Y2525
X85000Y3525
X96000Y1525
X97000Y1525
X98000Y1525
X85000Y25525
X85000Y26525
X85000Y27525
X96000Y25525
X97000Y25525
X98000Y25525
X85000Y49525
X85000Y50525
X85000Y51525
X96000Y49525
X97000Y49525
X98000Y49525
X85000Y73525
X85000Y74525
X85000Y75525
X96000Y73525
X97000Y73525
X98000Y73525
X110000Y1525
X110000Y2525
X110000Y3525
X121000Y1525
X122000Y1525
X123000Y1525
X110000Y25525
X110000Y26525
X110000Y27525
X121000Y25525
X122000Y25525
X123000Y25525
X110000Y49525
X110000Y50525
X110000Y51525
X121000Y49525
X122000Y49525
X123000Y49525
X110000Y73525
X110000Y74525
X110000Y75525
X121000Y73525
X122000Y73525
X123000Y73525
T04C0.040000
X9175Y6000
X9175Y10000
X7284Y25173
X6300Y25173
X5315Y25173
X15315Y25173
X16300Y25173
X17284Y25173
X19425Y28000
X19425Y32000
X25315Y25173
X26300Y25173
X27284Y25173
X35315Y25173
X36300Y25173
X37284Y25173
X40925Y27125
X40925Y28125
X40925Y29125
X31175Y29000
X31175Y28000
X31175Y27000
X31175Y26000
X31175Y25000
X31175Y24000
X31175Y23000
X31175Y22000
X31175Y21000
X31175Y30000
X31175Y31000
X31175Y32000
X11175Y30000
X11175Y29000
X11175Y28000
X10175Y28000
X10175Y29000
X10175Y27000
X11175Y27000
X10175Y26000
X10175Y25000
X10175Y24000
X10175Y23000
X10175Y22000
X10175Y21000
X10175Y20000
X10175Y19000
X10175Y18000
X10175Y17000
X10175Y16000
X10175Y15000
X10175Y14000
X10175Y13000
X10175Y12000
X10175Y11000
X10175Y10000
X11175Y10000
X12175Y10000
X13175Y10000
X14175Y10000
X13425Y8125
X12425Y8125
X11425Y8125
X17175Y10000
X18175Y10000
X19175Y10000
X20175Y10000
X21175Y10000
X22175Y10000
X23175Y10000
X24175Y10000
X25175Y10000
X27175Y10000
X28175Y10000
X29175Y10000
X30175Y10000
X31175Y10000
X25300Y1625
X24300Y1625
X23300Y1625
X22300Y1625
X21300Y1625
X20300Y1625
X19300Y1625
X18300Y1625
X17300Y1625
X9175Y38500
X9175Y42500
X7284Y57673
X6300Y57673
X5315Y57673
X15315Y57673
X16300Y57673
X17284Y57673
X19425Y60500
X19425Y64500
X25315Y57673
X26300Y57673
X27284Y57673
X35315Y57673
X36300Y57673
X37284Y57673
X40925Y59625
X40925Y60625
X40925Y61625
X31175Y61500
X31175Y60500
X31175Y59500
X31175Y58500
X31175Y57500
X31175Y56500
X31175Y55500
X31175Y54500
X31175Y53500
X31175Y62500
X31175Y63500
X31175Y64500
X11175Y62500
X11175Y61500
X11175Y60500
X10175Y60500
X10175Y61500
X10175Y59500
X11175Y59500
X10175Y58500
X10175Y57500
X10175Y56500
X10175Y55500
X10175Y54500
X10175Y53500
X10175Y52500
X10175Y51500
X10175Y50500
X10175Y49500
X10175Y48500
X10175Y47500
X10175Y46500
X10175Y45500
X10175Y44500
X10175Y43500
X10175Y42500
X11175Y42500
X12175Y42500
X13175Y42500
X14175Y42500
X13425Y40625
X12425Y40625
X11425Y40625
X17175Y42500
X18175Y42500
X19175Y42500
X20175Y42500
X21175Y42500
X22175Y42500
X23175Y42500
X24175Y42500
X25175Y42500
X27175Y42500
X28175Y42500
X29175Y42500
X30175Y42500
X31175Y42500
X25300Y34125
X24300Y34125
X23300Y34125
X22300Y34125
X21300Y34125
X20300Y34125
X19300Y34125
X18300Y34125
X17300Y34125
X9175Y71000
X9175Y75000
X7284Y90173
X6300Y90173
X5315Y90173
X15315Y90173
X16300Y90173
X17284Y90173
X19425Y93000
X19425Y97000
X25315Y90173
X26300Y90173
X27284Y90173
X35315Y90173
X36300Y90173
X37284Y90173
X40925Y92125
X40925Y93125
X40925Y94125
X31175Y94000
X31175Y93000
X31175Y92000
X31175Y91000
X31175Y90000
X31175Y89000
X31175Y88000
X31175Y87000
X31175Y86000
X31175Y95000
X31175Y96000
X31175Y97000
X11175Y95000
X11175Y94000
X11175Y93000
X10175Y93000
X10175Y94000
X10175Y92000
X11175Y92000
X10175Y91000
X10175Y90000
X10175Y89000
X10175Y88000
X10175Y87000
X10175Y86000
X10175Y85000
X10175Y84000
X10175Y83000
X10175Y82000
X10175Y81000
X10175Y80000
X10175Y79000
X10175Y78000
X10175Y77000
X10175Y76000
X10175Y75000
X11175Y75000
X12175Y75000
X13175Y75000
X14175Y75000
X13425Y73125
X12425Y73125
X11425Y73125
X17175Y75000
X18175Y75000
X19175Y75000
X20175Y75000
X21175Y75000
X22175Y75000
X23175Y75000
X24175Y75000
X25175Y75000
X27175Y75000
X28175Y75000
X29175Y75000
X30175Y75000
X31175Y75000
X25300Y66625
X24300Y66625
X23300Y66625
X22300Y66625
X21300Y66625
X20300Y66625
X19300Y66625
X18300Y66625
X17300Y66625
X50675Y6000
X50675Y10000
X48784Y25173
X47800Y25173
X46815Y25173
X56815Y25173
X57800Y25173
X58784Y25173
X60925Y28000
X60925Y32000
X66815Y25173
X67800Y25173
X68784Y25173
X76815Y25173
X77800Y25173
X78784Y25173
X82425Y27125
X82425Y28125
X82425Y29125
X72675Y29000
X72675Y28000
X72675Y27000
X72675Y26000
X72675Y25000
X72675Y24000
X72675Y23000
X72675Y22000
X72675Y21000
X72675Y30000
X72675Y31000
X72675Y32000
X52675Y30000
X52675Y29000
X52675Y28000
X51675Y28000
X51675Y29000
X51675Y27000
X52675Y27000
X51675Y26000
X51675Y25000
X51675Y24000
X51675Y23000
X51675Y22000
X51675Y21000
X51675Y20000
X51675Y19000
X51675Y18000
X51675Y17000
X51675Y16000
X51675Y15000
X51675Y14000
X51675Y13000
X51675Y12000
X51675Y11000
X51675Y10000
X52675Y10000
X53675Y10000
X54675Y10000
X55675Y10000
X54925Y8125
X53925Y8125
X52925Y8125
X58675Y10000
X59675Y10000
X60675Y10000
X61675Y10000
X62675Y10000
X63675Y10000
X64675Y10000
X65675Y10000
X66675Y10000
X68675Y10000
X69675Y10000
X70675Y10000
X71675Y10000
X72675Y10000
X66800Y1625
X65800Y1625
X64800Y1625
X63800Y1625
X62800Y1625
X61800Y1625
X60800Y1625
X59800Y1625
X58800Y1625
X50675Y38500
X50675Y42500
X48784Y57673
X47800Y57673
X46815Y57673
X56815Y57673
X57800Y57673
X58784Y57673
X60925Y60500
X60925Y64500
X66815Y57673
X67800Y57673
X68784Y57673
X76815Y57673
X77800Y57673
X78784Y57673
X82425Y59625
X82425Y60625
X82425Y61625
X72675Y61500
X72675Y60500
X72675Y59500
X72675Y58500
X72675Y57500
X72675Y56500
X72675Y55500
X72675Y54500
X72675Y53500
X72675Y62500
X72675Y63500
X72675Y64500
X52675Y62500
X52675Y61500
X52675Y60500
X51675Y60500
X51675Y61500
X51675Y59500
X52675Y59500
X51675Y58500
X51675Y57500
X51675Y56500
X51675Y55500
X51675Y54500
X51675Y53500
X51675Y52500
X51675Y51500
X51675Y50500
X51675Y49500
X51675Y48500
X51675Y47500
X51675Y46500
X51675Y45500
X51675Y44500
X51675Y43500
X51675Y42500
X52675Y42500
X53675Y42500
X54675Y42500
X55675Y42500
X54925Y40625
X53925Y40625
X52925Y40625
X58675Y42500
X59675Y42500
X60675Y42500
X61675Y42500
X62675Y42500
X63675Y42500
X64675Y42500
X65675Y42500
X66675Y42500
X68675Y42500
X69675Y42500
X70675Y42500
X71675Y42500
X72675Y42500
X66800Y34125
X65800Y34125
X64800Y34125
X63800Y34125
X62800Y34125
X61800Y34125
X60800Y34125
X59800Y34125
X58800Y34125
X50675Y71000
X50675Y75000
X48784Y90173
X47800Y90173
X46815Y90173
X56815Y90173
X57800Y90173
X58784Y90173
X60925Y93000
X60925Y97000
X66815Y90173
X67800Y90173
X68784Y90173
X76815Y90173
X77800Y90173
X78784Y90173
X82425Y92125
X82425Y93125
X82425Y94125
X72675Y94000
X72675Y93000
X72675Y92000
X72675Y91000
X72675Y90000
X72675Y89000
X72675Y88000
X72675Y87000
X72675Y86000
X72675Y95000
X72675Y96000
X72675Y97000
X52675Y95000
X52675Y94000
X52675Y93000
X51675Y93000
X51675Y94000
X51675Y92000
X52675Y92000
X51675Y91000
X51675Y90000
X51675Y89000
X51675Y88000
X51675Y87000
X51675Y86000
X51675Y85000
X51675Y84000
X51675Y83000
X51675Y82000
X51675Y81000
X51675Y80000
X51675Y79000
X51675Y78000
X51675Y77000
X51675Y76000
X51675Y75000
X52675Y75000
X53675Y75000
X54675Y75000
X55675Y75000
X54925Y73125
X53925Y73125
X52925Y73125
X58675Y75000
X59675Y75000
X60675Y75000
X61675Y75000
X62675Y75000
X63675Y75000
X64675Y75000
X65675Y75000
X66675Y75000
X68675Y75000
X69675Y75000
X70675Y75000
X71675Y75000
X72675Y75000
X66800Y66625
X65800Y66625
X64800Y66625
X63800Y66625
X62800Y66625
X61800Y66625
X60800Y66625
X59800Y66625
X58800Y66625
X104000Y22525
X103000Y22525
X102000Y22525
X101000Y22525
X100000Y22525
X99000Y22525
X98000Y22525
X97000Y22525
X96000Y22525
X95000Y22525
X94000Y22525
X93000Y22525
X92000Y22525
X91000Y22525
X90000Y22525
X89000Y22525
X88000Y22525
X87000Y22525
X86000Y22525
X85000Y22525
X85000Y21525
X85000Y20525
X85000Y19525
X85000Y18525
X85000Y10525
X85000Y9525
X85000Y8525
X85000Y7525
X85000Y6525
X85000Y5525
X86000Y5525
X87000Y5525
X88000Y5525
X89000Y5525
X89000Y4525
X88000Y4525
X87000Y4525
X86000Y4525
X85000Y4525
X99000Y1525
X100000Y1525
X101000Y1525
X102000Y1525
X103000Y1525
X104000Y1525
X105000Y1525
X106000Y1525
X107000Y1525
X107463Y19257
X106233Y20024
X106233Y21776
X107463Y22544
X104000Y46525
X103000Y46525
X102000Y46525
X101000Y46525
X100000Y46525
X99000Y46525
X98000Y46525
X97000Y46525
X96000Y46525
X95000Y46525
X94000Y46525
X93000Y46525
X92000Y46525
X91000Y46525
X90000Y46525
X89000Y46525
X88000Y46525
X87000Y46525
X86000Y46525
X85000Y46525
X85000Y45525
X85000Y44525
X85000Y43525
X85000Y42525
X85000Y34525
X85000Y33525
X85000Y32525
X85000Y31525
X85000Y30525
X85000Y29525
X86000Y29525
X87000Y29525
X88000Y29525
X89000Y29525
X89000Y28525
X88000Y28525
X87000Y28525
X86000Y28525
X85000Y28525
X99000Y25525
X100000Y25525
X101000Y25525
X102000Y25525
X103000Y25525
X104000Y25525
X105000Y25525
X106000Y25525
X107000Y25525
X107463Y43257
X106233Y44024
X106233Y45776
X107463Y46544
X104000Y70525
X103000Y70525
X102000Y70525
X101000Y70525
X100000Y70525
X99000Y70525
X98000Y70525
X97000Y70525
X96000Y70525
X95000Y70525
X94000Y70525
X93000Y70525
X92000Y70525
X91000Y70525
X90000Y70525
X89000Y70525
X88000Y70525
X87000Y70525
X86000Y70525
X85000Y70525
X85000Y69525
X85000Y68525
X85000Y67525
X85000Y66525
X85000Y58525
X85000Y57525
X85000Y56525
X85000Y55525
X85000Y54525
X85000Y53525
X86000Y53525
X87000Y53525
X88000Y53525
X89000Y53525
X89000Y52525
X88000Y52525
X87000Y52525
X86000Y52525
X85000Y52525
X99000Y49525
X100000Y49525
X101000Y49525
X102000Y49525
X103000Y49525
X104000Y49525
X105000Y49525
X106000Y49525
X107000Y49525
X107463Y67257
X106233Y68024
X106233Y69776
X107463Y70544
X104000Y94525
X103000Y94525
X102000Y94525
X101000Y94525
X100000Y94525
X99000Y94525
X98000Y94525
X97000Y94525
X96000Y94525
X95000Y94525
X94000Y94525
X93000Y94525
X92000Y94525
X91000Y94525
X90000Y94525
X89000Y94525
X88000Y94525
X87000Y94525
X86000Y94525
X85000Y94525
X85000Y93525
X85000Y92525
X85000Y91525
X85000Y90525
X85000Y82525
X85000Y81525
X85000Y80525
X85000Y79525
X85000Y78525
X85000Y77525
X86000Y77525
X87000Y77525
X88000Y77525
X89000Y77525
X89000Y76525
X88000Y76525
X87000Y76525
X86000Y76525
X85000Y76525
X99000Y73525
X100000Y73525
X101000Y73525
X102000Y73525
X103000Y73525
X104000Y73525
X105000Y73525
X106000Y73525
X107000Y73525
X107463Y91257
X106233Y92024
X106233Y93776
X107463Y94544
X129000Y22525
X128000Y22525
X127000Y22525
X126000Y22525
X125000Y22525
X124000Y22525
X123000Y22525
X122000Y22525
X121000Y22525
X120000Y22525
X119000Y22525
X118000Y22525
X117000Y22525
X116000Y22525
X115000Y22525
X114000Y22525
X113000Y22525
X112000Y22525
X111000Y22525
X110000Y22525
X110000Y21525
X110000Y20525
X110000Y19525
X110000Y18525
X110000Y10525
X110000Y9525
X110000Y8525
X110000Y7525
X110000Y6525
X110000Y5525
X111000Y5525
X112000Y5525
X113000Y5525
X114000Y5525
X114000Y4525
X113000Y4525
X112000Y4525
X111000Y4525
X110000Y4525
X124000Y1525
X125000Y1525
X126000Y1525
X127000Y1525
X128000Y1525
X129000Y1525
X130000Y1525
X131000Y1525
X132000Y1525
X132463Y19257
X131233Y20024
X131233Y21776
X132463Y22544
X129000Y46525
X128000Y46525
X127000Y46525
X126000Y46525
X125000Y46525
X124000Y46525
X123000Y46525
X122000Y46525
X121000Y46525
X120000Y46525
X119000Y46525
X118000Y46525
X117000Y46525
X116000Y46525
X115000Y46525
X114000Y46525
X113000Y46525
X112000Y46525
X111000Y46525
X110000Y46525
X110000Y45525
X110000Y44525
X110000Y43525
X110000Y42525
X110000Y34525
X110000Y33525
X110000Y32525
X110000Y31525
X110000Y30525
X110000Y29525
X111000Y29525
X112000Y29525
X113000Y29525
X114000Y29525
X114000Y28525
X113000Y28525
X112000Y28525
X111000Y28525
X110000Y28525
X124000Y25525
X125000Y25525
X126000Y25525
X127000Y25525
X128000Y25525
X129000Y25525
X130000Y25525
X131000Y25525
X132000Y25525
X132463Y43257
X131233Y44024
X131233Y45776
X132463Y46544
X129000Y70525
X128000Y70525
X127000Y70525
X126000Y70525
X125000Y70525
X124000Y70525
X123000Y70525
X122000Y70525
X121000Y70525
X120000Y70525
X119000Y70525
X118000Y70525
X117000Y70525
X116000Y70525
X115000Y70525
X114000Y70525
X113000Y70525
X112000Y70525
X111000Y70525
X110000Y70525
X110000Y69525
X110000Y68525
X110000Y67525
X110000Y66525
X110000Y58525
X110000Y57525
X110000Y56525
X110000Y55525
X110000Y54525
X110000Y53525
X111000Y53525
X112000Y53525
X113000Y53525
X114000Y53525
X114000Y52525
X113000Y52525
X112000Y52525
X111000Y52525
X110000Y52525
X124000Y49525
X125000Y49525
X126000Y49525
X127000Y49525
X128000Y49525
X129000Y49525
X130000Y49525
X131000Y49525
X132000Y49525
X132463Y67257
X131233Y68024
X131233Y69776
X132463Y70544
X129000Y94525
X128000Y94525
X127000Y94525
X126000Y94525
X125000Y94525
X124000Y94525
X123000Y94525
X122000Y94525
X121000Y94525
X120000Y94525
X119000Y94525
X118000Y94525
X117000Y94525
X116000Y94525
X115000Y94525
X114000Y94525
X113000Y94525
X112000Y94525
X111000Y94525
X110000Y94525
X110000Y93525
X110000Y92525
X110000Y91525
X110000Y90525
X110000Y82525
X110000Y81525
X110000Y80525
X110000Y79525
X110000Y78525
X110000Y77525
X111000Y77525
X112000Y77525
X113000Y77525
X114000Y77525
X114000Y76525
X113000Y76525
X112000Y76525
X111000Y76525
X110000Y76525
X124000Y73525
X125000Y73525
X126000Y73525
X127000Y73525
X128000Y73525
X129000Y73525
X130000Y73525
X131000Y73525
X132000Y73525
X132463Y91257
X131233Y92024
X131233Y93776
X132463Y94544
X134500Y1500
X135500Y1500
X136500Y1500
X137500Y1500
X138500Y1500
X139500Y1500
X140500Y1500
X141500Y1500
X142500Y1500
X134500Y9500
X135500Y9500
X136500Y9500
X137500Y9500
X138500Y9500
X139500Y9500
X140500Y9500
X141500Y9500
X142500Y9500
X134500Y17500
X135500Y17500
X136500Y17500
X137500Y17500
X138500Y17500
X139500Y17500
X140500Y17500
X141500Y17500
X142500Y17500
X134500Y25500
X135500Y25500
X136500Y25500
X137500Y25500
X138500Y25500
X139500Y25500
X140500Y25500
X141500Y25500
X142500Y25500
X134500Y33500
X135500Y33500
X136500Y33500
X137500Y33500
X138500Y33500
X139500Y33500
X140500Y33500
X141500Y33500
X142500Y33500
X134500Y51500
X135500Y51500
X136500Y51500
X137500Y51500
X138500Y51500
X139500Y51500
X140500Y51500
X141500Y51500
X142500Y51500
X134500Y59500
X135500Y59500
X136500Y59500
X137500Y59500
X138500Y59500
X139500Y59500
X140500Y59500
X141500Y59500
X142500Y59500
X134500Y67500
X135500Y67500
X136500Y67500
X137500Y67500
X138500Y67500
X139500Y67500
X140500Y67500
X141500Y67500
X142500Y67500
X134500Y75500
X135500Y75500
X136500Y75500
X137500Y75500
X138500Y75500
X139500Y75500
X140500Y75500
X141500Y75500
X142500Y75500
X134500Y83500
X135500Y83500
X136500Y83500
X137500Y83500
X138500Y83500
X139500Y83500
X140500Y83500
X141500Y83500
X142500Y83500
X144500Y1500
X145500Y1500
X146500Y1500
X147500Y1500
X148500Y1500
X149500Y1500
X150500Y1500
X151500Y1500
X152500Y1500
X144500Y9500
X145500Y9500
X146500Y9500
X147500Y9500
X148500Y9500
X149500Y9500
X150500Y9500
X151500Y9500
X152500Y9500
X144500Y17500
X145500Y17500
X146500Y17500
X147500Y17500
X148500Y17500
X149500Y17500
X150500Y17500
X151500Y17500
X152500Y17500
X144500Y25500
X145500Y25500
X146500Y25500
X147500Y25500
X148500Y25500
X149500Y25500
X150500Y25500
X151500Y25500
X152500Y25500
X144500Y33500
X145500Y33500
X146500Y33500
X147500Y33500
X148500Y33500
X149500Y33500
X150500Y33500
X151500Y33500
X152500Y33500
X144500Y51500
X145500Y51500
X146500Y51500
X147500Y51500
X148500Y51500
X149500Y51500
X150500Y51500
X151500Y51500
X152500Y51500
X144500Y59500
X145500Y59500
X146500Y59500
X147500Y59500
X148500Y59500
X149500Y59500
X150500Y59500
X151500Y59500
X152500Y59500
X144500Y67500
X145500Y67500
X146500Y67500
X147500Y67500
X148500Y67500
X149500Y67500
X150500Y67500
X151500Y67500
X152500Y67500
X144500Y75500
X145500Y75500
X146500Y75500
X147500Y75500
X148500Y75500
X149500Y75500
X150500Y75500
X151500Y75500
X152500Y75500
X144500Y83500
X145500Y83500
X146500Y83500
X147500Y83500
X148500Y83500
X149500Y83500
X150500Y83500
X151500Y83500
X152500Y83500
T05C0.059100
X6612Y9657
X4143Y9657
X1643Y9657
X1643Y16063
X1643Y17657
X4143Y17657
X4175Y16063
X6612Y16063
X6612Y17657
X6612Y24063
X4175Y24063
X1643Y24063
X35987Y24094
X38456Y24094
X40956Y24094
X40956Y17688
X40956Y16094
X38456Y16094
X38425Y17688
X35987Y17688
X35987Y16094
X35987Y9688
X35987Y8094
X38456Y8094
X38425Y9688
X40956Y9688
X40956Y8094
X40956Y1688
X38425Y1688
X35987Y1688
X6612Y42157
X4143Y42157
X1643Y42157
X1643Y48563
X1643Y50157
X4143Y50157
X4175Y48563
X6612Y48563
X6612Y50157
X6612Y56563
X4175Y56563
X1643Y56563
X35987Y56594
X38456Y56594
X40956Y56594
X40956Y50188
X40956Y48594
X38456Y48594
X38425Y50188
X35987Y50188
X35987Y48594
X35987Y42188
X35987Y40594
X38456Y40594
X38425Y42188
X40956Y42188
X40956Y40594
X40956Y34188
X38425Y34188
X35987Y34188
X6612Y74657
X4143Y74657
X1643Y74657
X1643Y81063
X1643Y82657
X4143Y82657
X4175Y81063
X6612Y81063
X6612Y82657
X6612Y89063
X4175Y89063
X1643Y89063
X35987Y89094
X38456Y89094
X40956Y89094
X40956Y82688
X40956Y81094
X38456Y81094
X38425Y82688
X35987Y82688
X35987Y81094
X35987Y74688
X35987Y73094
X38456Y73094
X38425Y74688
X40956Y74688
X40956Y73094
X40956Y66688
X38425Y66688
X35987Y66688
X48112Y9657
X45643Y9657
X43143Y9657
X43143Y16063
X43143Y17657
X45643Y17657
X45675Y16063
X48112Y16063
X48112Y17657
X48112Y24063
X45675Y24063
X43143Y24063
X77487Y24094
X79956Y24094
X82456Y24094
X82456Y17688
X82456Y16094
X79956Y16094
X79925Y17688
X77487Y17688
X77487Y16094
X77487Y9688
X77487Y8094
X79956Y8094
X79925Y9688
X82456Y9688
X82456Y8094
X82456Y1688
X79925Y1688
X77487Y1688
X48112Y42157
X45643Y42157
X43143Y42157
X43143Y48563
X43143Y50157
X45643Y50157
X45675Y48563
X48112Y48563
X48112Y50157
X48112Y56563
X45675Y56563
X43143Y56563
X77487Y56594
X79956Y56594
X82456Y56594
X82456Y50188
X82456Y48594
X79956Y48594
X79925Y50188
X77487Y50188
X77487Y48594
X77487Y42188
X77487Y40594
X79956Y40594
X79925Y42188
X82456Y42188
X82456Y40594
X82456Y34188
X79925Y34188
X77487Y34188
X48112Y74657
X45643Y74657
X43143Y74657
X43143Y81063
X43143Y82657
X45643Y82657
X45675Y81063
X48112Y81063
X48112Y82657
X48112Y89063
X45675Y89063
X43143Y89063
X77487Y89094
X79956Y89094
X82456Y89094
X82456Y82688
X82456Y81094
X79956Y81094
X79925Y82688
X77487Y82688
X77487Y81094
X77487Y74688
X77487Y73094
X79956Y73094
X79925Y74688
X82456Y74688
X82456Y73094
X82456Y66688
X79925Y66688
X77487Y66688
T06C0.078700
X34528Y28125
X38071Y28125
X28071Y28125
X24528Y28125
X18071Y28125
X14528Y28125
X8071Y28125
X4528Y28125
X34528Y60625
X38071Y60625
X28071Y60625
X24528Y60625
X18071Y60625
X14528Y60625
X8071Y60625
X4528Y60625
X34528Y93125
X38071Y93125
X28071Y93125
X24528Y93125
X18071Y93125
X14528Y93125
X8071Y93125
X4528Y93125
X76028Y28125
X79571Y28125
X69571Y28125
X66028Y28125
X59571Y28125
X56028Y28125
X49571Y28125
X46028Y28125
X76028Y60625
X79571Y60625
X69571Y60625
X66028Y60625
X59571Y60625
X56028Y60625
X49571Y60625
X46028Y60625
X76028Y93125
X79571Y93125
X69571Y93125
X66028Y93125
X59571Y93125
X56028Y93125
X49571Y93125
X46028Y93125
T07C0.090300
X2730Y2255
X2730Y6995
X18199Y7436
X18199Y5625
X18199Y3814
X20266Y3814
X20266Y5625
X20266Y7436
X22333Y7436
X22333Y5625
X22333Y3814
X24400Y3814
X24400Y5625
X24400Y7436
X2730Y34755
X2730Y39495
X18199Y39936
X18199Y38125
X18199Y36314
X20266Y36314
X20266Y38125
X20266Y39936
X22333Y39936
X22333Y38125
X22333Y36314
X24400Y36314
X24400Y38125
X24400Y39936
X2730Y67255
X2730Y71995
X18199Y72436
X18199Y70625
X18199Y68814
X20266Y68814
X20266Y70625
X20266Y72436
X22333Y72436
X22333Y70625
X22333Y68814
X24400Y68814
X24400Y70625
X24400Y72436
X44230Y2255
X44230Y6995
X59699Y7436
X59699Y5625
X59699Y3814
X61766Y3814
X61766Y5625
X61766Y7436
X63833Y7436
X63833Y5625
X63833Y3814
X65900Y3814
X65900Y5625
X65900Y7436
X44230Y34755
X44230Y39495
X59699Y39936
X59699Y38125
X59699Y36314
X61766Y36314
X61766Y38125
X61766Y39936
X63833Y39936
X63833Y38125
X63833Y36314
X65900Y36314
X65900Y38125
X65900Y39936
X44230Y67255
X44230Y71995
X59699Y72436
X59699Y70625
X59699Y68814
X61766Y68814
X61766Y70625
X61766Y72436
X63833Y72436
X63833Y70625
X63833Y68814
X65900Y68814
X65900Y70625
X65900Y72436
X141600Y3689
X141600Y5500
X139533Y5500
X137466Y5500
X137466Y3689
X139533Y3689
X135399Y3689
X135399Y5500
X135399Y7311
X137466Y7311
X139533Y7311
X141600Y7311
X141600Y11689
X141600Y13500
X139533Y13500
X137466Y13500
X137466Y11689
X139533Y11689
X135399Y11689
X135399Y13500
X135399Y15311
X137466Y15311
X139533Y15311
X141600Y15311
X141600Y19689
X141600Y21500
X139533Y21500
X137466Y21500
X137466Y19689
X139533Y19689
X135399Y19689
X135399Y21500
X135399Y23311
X137466Y23311
X139533Y23311
X141600Y23311
X141600Y27689
X141600Y29500
X139533Y29500
X137466Y29500
X137466Y27689
X139533Y27689
X135399Y27689
X135399Y29500
X135399Y31311
X137466Y31311
X139533Y31311
X141600Y31311
X141600Y35689
X141600Y37500
X139533Y37500
X137466Y37500
X137466Y35689
X139533Y35689
X135399Y35689
X135399Y37500
X135399Y39311
X137466Y39311
X139533Y39311
X141600Y39311
X141600Y53689
X141600Y55500
X139533Y55500
X137466Y55500
X137466Y53689
X139533Y53689
X135399Y53689
X135399Y55500
X135399Y57311
X137466Y57311
X139533Y57311
X141600Y57311
X141600Y61689
X141600Y63500
X139533Y63500
X137466Y63500
X137466Y61689
X139533Y61689
X135399Y61689
X135399Y63500
X135399Y65311
X137466Y65311
X139533Y65311
X141600Y65311
X141600Y69689
X141600Y71500
X139533Y71500
X137466Y71500
X137466Y69689
X139533Y69689
X135399Y69689
X135399Y71500
X135399Y73311
X137466Y73311
X139533Y73311
X141600Y73311
X141600Y77689
X141600Y79500
X139533Y79500
X137466Y79500
X137466Y77689
X139533Y77689
X135399Y77689
X135399Y79500
X135399Y81311
X137466Y81311
X139533Y81311
X141600Y81311
X141600Y85689
X141600Y87500
X139533Y87500
X137466Y87500
X137466Y85689
X139533Y85689
X135399Y85689
X135399Y87500
X135399Y89311
X137466Y89311
X139533Y89311
X141600Y89311
X151600Y3689
X151600Y5500
X149533Y5500
X147466Y5500
X147466Y3689
X149533Y3689
X145399Y3689
X145399Y5500
X145399Y7311
X147466Y7311
X149533Y7311
X151600Y7311
X151600Y11689
X151600Y13500
X149533Y13500
X147466Y13500
X147466Y11689
X149533Y11689
X145399Y11689
X145399Y13500
X145399Y15311
X147466Y15311
X149533Y15311
X151600Y15311
X151600Y19689
X151600Y21500
X149533Y21500
X147466Y21500
X147466Y19689
X149533Y19689
X145399Y19689
X145399Y21500
X145399Y23311
X147466Y23311
X149533Y23311
X151600Y23311
X151600Y27689
X151600Y29500
X149533Y29500
X147466Y29500
X147466Y27689
X149533Y27689
X145399Y27689
X145399Y29500
X145399Y31311
X147466Y31311
X149533Y31311
X151600Y31311
X151600Y35689
X151600Y37500
X149533Y37500
X147466Y37500
X147466Y35689
X149533Y35689
X145399Y35689
X145399Y37500
X145399Y39311
X147466Y39311
X149533Y39311
X151600Y39311
X151600Y53689
X151600Y55500
X149533Y55500
X147466Y55500
X147466Y53689
X149533Y53689
X145399Y53689
X145399Y55500
X145399Y57311
X147466Y57311
X149533Y57311
X151600Y57311
X151600Y61689
X151600Y63500
X149533Y63500
X147466Y63500
X147466Y61689
X149533Y61689
X145399Y61689
X145399Y63500
X145399Y65311
X147466Y65311
X149533Y65311
X151600Y65311
X151600Y69689
X151600Y71500
X149533Y71500
X147466Y71500
X147466Y69689
X149533Y69689
X145399Y69689
X145399Y71500
X145399Y73311
X147466Y73311
X149533Y73311
X151600Y73311
X151600Y77689
X151600Y79500
X149533Y79500
X147466Y79500
X147466Y77689
X149533Y77689
X145399Y77689
X145399Y79500
X145399Y81311
X147466Y81311
X149533Y81311
X151600Y81311
X151600Y85689
X151600Y87500
X149533Y87500
X147466Y87500
X147466Y85689
X149533Y85689
X145399Y85689
X145399Y87500
X145399Y89311
X147466Y89311
X149533Y89311
X151600Y89311
T08C0.118000
X21800Y28607
X23650Y29788
X21800Y30969
X21800Y61107
X23650Y62288
X21800Y63469
X21800Y93607
X23650Y94788
X21800Y95969
X63300Y28607
X65150Y29788
X63300Y30969
X63300Y61107
X65150Y62288
X63300Y63469
X63300Y93607
X65150Y94788
X63300Y95969
T09C0.130000
X12425Y2225
X12425Y34725
X12425Y67225
X53925Y2225
X53925Y34725
X53925Y67225
M30
