G75*
G70*
%OFA0B0*%
%FSLAX25Y25*%
%IPPOS*%
%LPD*%
%AMOC8*
5,1,8,0,0,1.08239X$1,22.5*
%
%ADD10C,0.07000*%
%ADD103R,0.07800X0.07800*%
%ADD106R,0.07490X0.06700*%
%ADD108C,0.13400*%
%ADD11C,0.10400*%
%ADD110OC8,0.11470*%
%ADD13C,0.05600*%
%ADD14C,0.05940*%
%ADD15R,0.03940X0.01970*%
%ADD18R,0.08000X0.21400*%
%ADD19R,0.06200X0.01500*%
%ADD21OC8,0.07800*%
%ADD22R,0.06400X0.06400*%
%ADD25R,0.06700X0.07490*%
%ADD29C,0.12600*%
%ADD32R,0.05710X0.01970*%
%ADD34R,0.07900X0.01900*%
%ADD44OC8,0.05600*%
%ADD46OC8,0.06700*%
%ADD47R,0.07880X0.07490*%
%ADD48C,0.08000*%
%ADD52R,0.01500X0.06200*%
%ADD54C,0.05140*%
%ADD55R,0.04340X0.04730*%
%ADD56R,0.07490X0.07490*%
%ADD57R,0.08300X0.06300*%
%ADD59R,0.05120X0.05910*%
%ADD61C,0.03570*%
%ADD63C,0.06700*%
%ADD65R,0.03350X0.01190*%
%ADD70R,0.05400X0.02900*%
%ADD72R,0.08300X0.15400*%
%ADD73C,0.00590*%
%ADD77C,0.15400*%
%ADD79C,0.07800*%
%ADD83C,0.13840*%
%ADD90R,0.04730X0.04340*%
%ADD94R,0.08270X0.06310*%
%ADD96C,0.08200*%
%ADD98C,0.06400*%
X0010000Y0010000D02*
G75*
%LPD*%
D48*
X0053150Y0251730D03*
X0063000Y0251730D03*
X0072840Y0251730D03*
X0153150Y0251730D03*
X0163000Y0251730D03*
X0172840Y0251730D03*
X0253150Y0251730D03*
X0263000Y0251730D03*
X0272840Y0251730D03*
X0353150Y0251730D03*
X0363000Y0251730D03*
X0372840Y0251730D03*
D110*
X0380710Y0281250D03*
X0345280Y0281250D03*
X0280710Y0281250D03*
X0245280Y0281250D03*
X0180710Y0281250D03*
X0145280Y0281250D03*
X0080710Y0281250D03*
X0045280Y0281250D03*
D79*
X0101750Y0280000D03*
X0111750Y0280000D03*
X0111750Y0290000D03*
X0111750Y0300000D03*
X0101750Y0290000D03*
X0101750Y0270000D03*
X0111750Y0270000D03*
X0101750Y0260000D03*
X0101750Y0250000D03*
X0101750Y0240000D03*
X0101750Y0230000D03*
X0101750Y0220000D03*
X0101750Y0210000D03*
X0101750Y0200000D03*
X0101750Y0190000D03*
X0101750Y0180000D03*
X0101750Y0170000D03*
X0101750Y0160000D03*
X0101750Y0150000D03*
X0101750Y0140000D03*
X0101750Y0130000D03*
X0101750Y0120000D03*
X0101750Y0110000D03*
X0111750Y0100000D03*
X0121750Y0100000D03*
X0131750Y0100000D03*
X0171750Y0100000D03*
X0181750Y0100000D03*
X0191750Y0100000D03*
X0201750Y0100000D03*
X0211750Y0100000D03*
X0221750Y0100000D03*
X0231750Y0100000D03*
X0241750Y0100000D03*
X0251750Y0100000D03*
X0271750Y0100000D03*
X0281750Y0100000D03*
X0291750Y0100000D03*
X0301750Y0100000D03*
X0311750Y0100000D03*
X0311750Y0210000D03*
X0311750Y0220000D03*
X0311750Y0230000D03*
X0311750Y0240000D03*
X0311750Y0250000D03*
X0311750Y0260000D03*
X0311750Y0270000D03*
X0311750Y0280000D03*
X0311750Y0290000D03*
X0311750Y0300000D03*
X0311750Y0310000D03*
X0311750Y0320000D03*
X0409250Y0291250D03*
X0409250Y0281250D03*
X0409250Y0271250D03*
X0176750Y0315000D03*
X0156750Y0315000D03*
D96*
X0194250Y0320000D03*
X0194250Y0280000D03*
X0091750Y0100000D03*
X0091750Y0060000D03*
D44*
X0066750Y0046250D03*
X0058000Y0046250D03*
X0058000Y0016250D03*
X0066750Y0016250D03*
X0138000Y0111250D03*
X0168000Y0111250D03*
X0198000Y0111250D03*
X0228000Y0111250D03*
X0228000Y0141250D03*
X0198000Y0141250D03*
X0188000Y0156250D03*
X0168000Y0141250D03*
X0158000Y0156250D03*
X0148000Y0156250D03*
X0148000Y0166250D03*
X0148000Y0176250D03*
X0148000Y0186250D03*
X0168000Y0201250D03*
X0188000Y0201250D03*
X0148000Y0206250D03*
X0148000Y0216250D03*
X0148000Y0226250D03*
X0148000Y0236250D03*
X0118000Y0236250D03*
X0118000Y0226250D03*
X0118000Y0216250D03*
X0118000Y0206250D03*
X0118000Y0186250D03*
X0118000Y0176250D03*
X0118000Y0166250D03*
X0118000Y0156250D03*
X0138000Y0141250D03*
X0263000Y0141250D03*
X0263000Y0151250D03*
X0263000Y0161250D03*
X0263000Y0171250D03*
X0263000Y0181250D03*
X0293000Y0181250D03*
X0293000Y0171250D03*
X0293000Y0161250D03*
X0293000Y0151250D03*
X0293000Y0141250D03*
X0313000Y0078750D03*
X0318000Y0071250D03*
X0308000Y0071250D03*
X0313000Y0053750D03*
X0318000Y0046250D03*
X0308000Y0046250D03*
X0298000Y0026250D03*
X0298000Y0016250D03*
X0328000Y0016250D03*
X0328000Y0026250D03*
X0293000Y0211250D03*
X0293000Y0221250D03*
X0293000Y0231250D03*
X0283000Y0241250D03*
X0263000Y0241250D03*
X0263000Y0231250D03*
X0263000Y0221250D03*
X0263000Y0211250D03*
X0223000Y0256250D03*
X0203000Y0256250D03*
D77*
X0218000Y0286070D03*
X0236500Y0297880D03*
X0218000Y0309690D03*
D11*
X0359870Y0240940D03*
X0384560Y0240940D03*
X0409560Y0240940D03*
X0409560Y0176880D03*
X0409560Y0160940D03*
X0384560Y0160940D03*
X0384250Y0176880D03*
X0359870Y0176880D03*
X0359870Y0160940D03*
X0359870Y0096880D03*
X0359870Y0080940D03*
X0384560Y0080940D03*
X0384250Y0096880D03*
X0409560Y0096880D03*
X0409560Y0080940D03*
X0409560Y0016880D03*
X0384250Y0016880D03*
X0359870Y0016880D03*
X0066120Y0096570D03*
X0041430Y0096570D03*
X0016430Y0096570D03*
X0016430Y0160630D03*
X0016430Y0176570D03*
X0041430Y0176570D03*
X0041750Y0160630D03*
X0066120Y0160630D03*
X0066120Y0176570D03*
X0066120Y0240630D03*
X0041750Y0240630D03*
X0016430Y0240630D03*
D103*
X0101750Y0100000D03*
X0141750Y0100000D03*
D13*
X0183000Y0213650D02*
X0183000Y0218850D01*
X0193000Y0218850D02*
X0193000Y0213650D01*
X0203000Y0213650D02*
X0203000Y0218850D01*
X0213000Y0218850D02*
X0213000Y0213650D01*
X0223000Y0213650D02*
X0223000Y0218850D01*
X0233000Y0218850D02*
X0233000Y0213650D01*
X0243000Y0213650D02*
X0243000Y0218850D01*
X0243000Y0243650D02*
X0243000Y0248850D01*
X0233000Y0248850D02*
X0233000Y0243650D01*
X0223000Y0243650D02*
X0223000Y0248850D01*
X0213000Y0248850D02*
X0213000Y0243650D01*
X0203000Y0243650D02*
X0203000Y0248850D01*
X0193000Y0248850D02*
X0193000Y0243650D01*
X0183000Y0243650D02*
X0183000Y0248850D01*
X0298000Y0083850D02*
X0298000Y0078650D01*
X0298000Y0043850D02*
X0298000Y0038650D01*
D14*
X0228000Y0161250D03*
X0198000Y0161250D03*
X0198000Y0201250D03*
X0228000Y0201250D03*
D10*
X0045800Y0051170D03*
X0038000Y0051170D03*
X0038000Y0041330D03*
X0045800Y0041330D03*
D29*
X0027300Y0022550D03*
X0027300Y0069950D03*
D98*
X0114250Y0078250D02*
X0114250Y0084250D01*
X0124250Y0084250D02*
X0124250Y0078250D01*
X0134250Y0078250D02*
X0134250Y0084250D01*
D108*
X0124250Y0022250D03*
D46*
X0083000Y0041250D03*
X0063000Y0071250D03*
X0153000Y0116250D03*
X0153000Y0136250D03*
X0183000Y0136250D03*
X0183000Y0116250D03*
X0213000Y0116250D03*
X0213000Y0136250D03*
X0243000Y0136250D03*
X0253000Y0151250D03*
X0253000Y0171250D03*
X0263000Y0191250D03*
X0263000Y0201250D03*
X0283000Y0201250D03*
X0283000Y0191250D03*
X0313000Y0186250D03*
X0313000Y0158750D03*
X0313000Y0131250D03*
X0243000Y0116250D03*
X0158000Y0166250D03*
X0158000Y0186250D03*
X0138000Y0196250D03*
X0118000Y0196250D03*
X0158000Y0216250D03*
X0168000Y0216250D03*
X0168000Y0236250D03*
X0158000Y0236250D03*
D63*
X0313000Y0176250D03*
X0313000Y0148750D03*
X0313000Y0121250D03*
X0093000Y0041250D03*
X0073000Y0071250D03*
X0010000Y0345000D02*
G75*
%LPD*%
D48*
X0053150Y0586730D03*
X0063000Y0586730D03*
X0072840Y0586730D03*
X0153150Y0586730D03*
X0163000Y0586730D03*
X0172840Y0586730D03*
X0253150Y0586730D03*
X0263000Y0586730D03*
X0272840Y0586730D03*
X0353150Y0586730D03*
X0363000Y0586730D03*
X0372840Y0586730D03*
D110*
X0380710Y0616250D03*
X0345280Y0616250D03*
X0280710Y0616250D03*
X0245280Y0616250D03*
X0180710Y0616250D03*
X0145280Y0616250D03*
X0080710Y0616250D03*
X0045280Y0616250D03*
D79*
X0101750Y0615000D03*
X0111750Y0615000D03*
X0111750Y0625000D03*
X0111750Y0635000D03*
X0101750Y0625000D03*
X0101750Y0605000D03*
X0111750Y0605000D03*
X0101750Y0595000D03*
X0101750Y0585000D03*
X0101750Y0575000D03*
X0101750Y0565000D03*
X0101750Y0555000D03*
X0101750Y0545000D03*
X0101750Y0535000D03*
X0101750Y0525000D03*
X0101750Y0515000D03*
X0101750Y0505000D03*
X0101750Y0495000D03*
X0101750Y0485000D03*
X0101750Y0475000D03*
X0101750Y0465000D03*
X0101750Y0455000D03*
X0101750Y0445000D03*
X0111750Y0435000D03*
X0121750Y0435000D03*
X0131750Y0435000D03*
X0171750Y0435000D03*
X0181750Y0435000D03*
X0191750Y0435000D03*
X0201750Y0435000D03*
X0211750Y0435000D03*
X0221750Y0435000D03*
X0231750Y0435000D03*
X0241750Y0435000D03*
X0251750Y0435000D03*
X0271750Y0435000D03*
X0281750Y0435000D03*
X0291750Y0435000D03*
X0301750Y0435000D03*
X0311750Y0435000D03*
X0311750Y0545000D03*
X0311750Y0555000D03*
X0311750Y0565000D03*
X0311750Y0575000D03*
X0311750Y0585000D03*
X0311750Y0595000D03*
X0311750Y0605000D03*
X0311750Y0615000D03*
X0311750Y0625000D03*
X0311750Y0635000D03*
X0311750Y0645000D03*
X0311750Y0655000D03*
X0409250Y0626250D03*
X0409250Y0616250D03*
X0409250Y0606250D03*
X0176750Y0650000D03*
X0156750Y0650000D03*
D96*
X0194250Y0655000D03*
X0194250Y0615000D03*
X0091750Y0435000D03*
X0091750Y0395000D03*
D44*
X0066750Y0381250D03*
X0058000Y0381250D03*
X0058000Y0351250D03*
X0066750Y0351250D03*
X0138000Y0446250D03*
X0168000Y0446250D03*
X0198000Y0446250D03*
X0228000Y0446250D03*
X0228000Y0476250D03*
X0198000Y0476250D03*
X0188000Y0491250D03*
X0168000Y0476250D03*
X0158000Y0491250D03*
X0148000Y0491250D03*
X0148000Y0501250D03*
X0148000Y0511250D03*
X0148000Y0521250D03*
X0168000Y0536250D03*
X0188000Y0536250D03*
X0148000Y0541250D03*
X0148000Y0551250D03*
X0148000Y0561250D03*
X0148000Y0571250D03*
X0118000Y0571250D03*
X0118000Y0561250D03*
X0118000Y0551250D03*
X0118000Y0541250D03*
X0118000Y0521250D03*
X0118000Y0511250D03*
X0118000Y0501250D03*
X0118000Y0491250D03*
X0138000Y0476250D03*
X0263000Y0476250D03*
X0263000Y0486250D03*
X0263000Y0496250D03*
X0263000Y0506250D03*
X0263000Y0516250D03*
X0293000Y0516250D03*
X0293000Y0506250D03*
X0293000Y0496250D03*
X0293000Y0486250D03*
X0293000Y0476250D03*
X0313000Y0413750D03*
X0318000Y0406250D03*
X0308000Y0406250D03*
X0313000Y0388750D03*
X0318000Y0381250D03*
X0308000Y0381250D03*
X0298000Y0361250D03*
X0298000Y0351250D03*
X0328000Y0351250D03*
X0328000Y0361250D03*
X0293000Y0546250D03*
X0293000Y0556250D03*
X0293000Y0566250D03*
X0283000Y0576250D03*
X0263000Y0576250D03*
X0263000Y0566250D03*
X0263000Y0556250D03*
X0263000Y0546250D03*
X0223000Y0591250D03*
X0203000Y0591250D03*
D77*
X0218000Y0621070D03*
X0236500Y0632880D03*
X0218000Y0644690D03*
D11*
X0359870Y0575940D03*
X0384560Y0575940D03*
X0409560Y0575940D03*
X0409560Y0511880D03*
X0409560Y0495940D03*
X0384560Y0495940D03*
X0384250Y0511880D03*
X0359870Y0511880D03*
X0359870Y0495940D03*
X0359870Y0431880D03*
X0359870Y0415940D03*
X0384560Y0415940D03*
X0384250Y0431880D03*
X0409560Y0431880D03*
X0409560Y0415940D03*
X0409560Y0351880D03*
X0384250Y0351880D03*
X0359870Y0351880D03*
X0066120Y0431570D03*
X0041430Y0431570D03*
X0016430Y0431570D03*
X0016430Y0495630D03*
X0016430Y0511570D03*
X0041430Y0511570D03*
X0041750Y0495630D03*
X0066120Y0495630D03*
X0066120Y0511570D03*
X0066120Y0575630D03*
X0041750Y0575630D03*
X0016430Y0575630D03*
D103*
X0101750Y0435000D03*
X0141750Y0435000D03*
D13*
X0183000Y0548650D02*
X0183000Y0553850D01*
X0193000Y0553850D02*
X0193000Y0548650D01*
X0203000Y0548650D02*
X0203000Y0553850D01*
X0213000Y0553850D02*
X0213000Y0548650D01*
X0223000Y0548650D02*
X0223000Y0553850D01*
X0233000Y0553850D02*
X0233000Y0548650D01*
X0243000Y0548650D02*
X0243000Y0553850D01*
X0243000Y0578650D02*
X0243000Y0583850D01*
X0233000Y0583850D02*
X0233000Y0578650D01*
X0223000Y0578650D02*
X0223000Y0583850D01*
X0213000Y0583850D02*
X0213000Y0578650D01*
X0203000Y0578650D02*
X0203000Y0583850D01*
X0193000Y0583850D02*
X0193000Y0578650D01*
X0183000Y0578650D02*
X0183000Y0583850D01*
X0298000Y0418850D02*
X0298000Y0413650D01*
X0298000Y0378850D02*
X0298000Y0373650D01*
D14*
X0228000Y0496250D03*
X0198000Y0496250D03*
X0198000Y0536250D03*
X0228000Y0536250D03*
D10*
X0045800Y0386170D03*
X0038000Y0386170D03*
X0038000Y0376330D03*
X0045800Y0376330D03*
D29*
X0027300Y0357550D03*
X0027300Y0404950D03*
D98*
X0114250Y0413250D02*
X0114250Y0419250D01*
X0124250Y0419250D02*
X0124250Y0413250D01*
X0134250Y0413250D02*
X0134250Y0419250D01*
D108*
X0124250Y0357250D03*
D46*
X0083000Y0376250D03*
X0063000Y0406250D03*
X0153000Y0451250D03*
X0153000Y0471250D03*
X0183000Y0471250D03*
X0183000Y0451250D03*
X0213000Y0451250D03*
X0213000Y0471250D03*
X0243000Y0471250D03*
X0253000Y0486250D03*
X0253000Y0506250D03*
X0263000Y0526250D03*
X0263000Y0536250D03*
X0283000Y0536250D03*
X0283000Y0526250D03*
X0313000Y0521250D03*
X0313000Y0493750D03*
X0313000Y0466250D03*
X0243000Y0451250D03*
X0158000Y0501250D03*
X0158000Y0521250D03*
X0138000Y0531250D03*
X0118000Y0531250D03*
X0158000Y0551250D03*
X0168000Y0551250D03*
X0168000Y0571250D03*
X0158000Y0571250D03*
D63*
X0313000Y0511250D03*
X0313000Y0483750D03*
X0313000Y0456250D03*
X0093000Y0376250D03*
X0073000Y0406250D03*
X0010000Y0680000D02*
G75*
%LPD*%
D48*
X0053150Y0921730D03*
X0063000Y0921730D03*
X0072840Y0921730D03*
X0153150Y0921730D03*
X0163000Y0921730D03*
X0172840Y0921730D03*
X0253150Y0921730D03*
X0263000Y0921730D03*
X0272840Y0921730D03*
X0353150Y0921730D03*
X0363000Y0921730D03*
X0372840Y0921730D03*
D110*
X0380710Y0951250D03*
X0345280Y0951250D03*
X0280710Y0951250D03*
X0245280Y0951250D03*
X0180710Y0951250D03*
X0145280Y0951250D03*
X0080710Y0951250D03*
X0045280Y0951250D03*
D79*
X0101750Y0950000D03*
X0111750Y0950000D03*
X0111750Y0960000D03*
X0111750Y0970000D03*
X0101750Y0960000D03*
X0101750Y0940000D03*
X0111750Y0940000D03*
X0101750Y0930000D03*
X0101750Y0920000D03*
X0101750Y0910000D03*
X0101750Y0900000D03*
X0101750Y0890000D03*
X0101750Y0880000D03*
X0101750Y0870000D03*
X0101750Y0860000D03*
X0101750Y0850000D03*
X0101750Y0840000D03*
X0101750Y0830000D03*
X0101750Y0820000D03*
X0101750Y0810000D03*
X0101750Y0800000D03*
X0101750Y0790000D03*
X0101750Y0780000D03*
X0111750Y0770000D03*
X0121750Y0770000D03*
X0131750Y0770000D03*
X0171750Y0770000D03*
X0181750Y0770000D03*
X0191750Y0770000D03*
X0201750Y0770000D03*
X0211750Y0770000D03*
X0221750Y0770000D03*
X0231750Y0770000D03*
X0241750Y0770000D03*
X0251750Y0770000D03*
X0271750Y0770000D03*
X0281750Y0770000D03*
X0291750Y0770000D03*
X0301750Y0770000D03*
X0311750Y0770000D03*
X0311750Y0880000D03*
X0311750Y0890000D03*
X0311750Y0900000D03*
X0311750Y0910000D03*
X0311750Y0920000D03*
X0311750Y0930000D03*
X0311750Y0940000D03*
X0311750Y0950000D03*
X0311750Y0960000D03*
X0311750Y0970000D03*
X0311750Y0980000D03*
X0311750Y0990000D03*
X0409250Y0961250D03*
X0409250Y0951250D03*
X0409250Y0941250D03*
X0176750Y0985000D03*
X0156750Y0985000D03*
D96*
X0194250Y0990000D03*
X0194250Y0950000D03*
X0091750Y0770000D03*
X0091750Y0730000D03*
D44*
X0066750Y0716250D03*
X0058000Y0716250D03*
X0058000Y0686250D03*
X0066750Y0686250D03*
X0138000Y0781250D03*
X0168000Y0781250D03*
X0198000Y0781250D03*
X0228000Y0781250D03*
X0228000Y0811250D03*
X0198000Y0811250D03*
X0188000Y0826250D03*
X0168000Y0811250D03*
X0158000Y0826250D03*
X0148000Y0826250D03*
X0148000Y0836250D03*
X0148000Y0846250D03*
X0148000Y0856250D03*
X0168000Y0871250D03*
X0188000Y0871250D03*
X0148000Y0876250D03*
X0148000Y0886250D03*
X0148000Y0896250D03*
X0148000Y0906250D03*
X0118000Y0906250D03*
X0118000Y0896250D03*
X0118000Y0886250D03*
X0118000Y0876250D03*
X0118000Y0856250D03*
X0118000Y0846250D03*
X0118000Y0836250D03*
X0118000Y0826250D03*
X0138000Y0811250D03*
X0263000Y0811250D03*
X0263000Y0821250D03*
X0263000Y0831250D03*
X0263000Y0841250D03*
X0263000Y0851250D03*
X0293000Y0851250D03*
X0293000Y0841250D03*
X0293000Y0831250D03*
X0293000Y0821250D03*
X0293000Y0811250D03*
X0313000Y0748750D03*
X0318000Y0741250D03*
X0308000Y0741250D03*
X0313000Y0723750D03*
X0318000Y0716250D03*
X0308000Y0716250D03*
X0298000Y0696250D03*
X0298000Y0686250D03*
X0328000Y0686250D03*
X0328000Y0696250D03*
X0293000Y0881250D03*
X0293000Y0891250D03*
X0293000Y0901250D03*
X0283000Y0911250D03*
X0263000Y0911250D03*
X0263000Y0901250D03*
X0263000Y0891250D03*
X0263000Y0881250D03*
X0223000Y0926250D03*
X0203000Y0926250D03*
D77*
X0218000Y0956070D03*
X0236500Y0967880D03*
X0218000Y0979690D03*
D11*
X0359870Y0910940D03*
X0384560Y0910940D03*
X0409560Y0910940D03*
X0409560Y0846880D03*
X0409560Y0830940D03*
X0384560Y0830940D03*
X0384250Y0846880D03*
X0359870Y0846880D03*
X0359870Y0830940D03*
X0359870Y0766880D03*
X0359870Y0750940D03*
X0384560Y0750940D03*
X0384250Y0766880D03*
X0409560Y0766880D03*
X0409560Y0750940D03*
X0409560Y0686880D03*
X0384250Y0686880D03*
X0359870Y0686880D03*
X0066120Y0766570D03*
X0041430Y0766570D03*
X0016430Y0766570D03*
X0016430Y0830630D03*
X0016430Y0846570D03*
X0041430Y0846570D03*
X0041750Y0830630D03*
X0066120Y0830630D03*
X0066120Y0846570D03*
X0066120Y0910630D03*
X0041750Y0910630D03*
X0016430Y0910630D03*
D103*
X0101750Y0770000D03*
X0141750Y0770000D03*
D13*
X0183000Y0883650D02*
X0183000Y0888850D01*
X0193000Y0888850D02*
X0193000Y0883650D01*
X0203000Y0883650D02*
X0203000Y0888850D01*
X0213000Y0888850D02*
X0213000Y0883650D01*
X0223000Y0883650D02*
X0223000Y0888850D01*
X0233000Y0888850D02*
X0233000Y0883650D01*
X0243000Y0883650D02*
X0243000Y0888850D01*
X0243000Y0913650D02*
X0243000Y0918850D01*
X0233000Y0918850D02*
X0233000Y0913650D01*
X0223000Y0913650D02*
X0223000Y0918850D01*
X0213000Y0918850D02*
X0213000Y0913650D01*
X0203000Y0913650D02*
X0203000Y0918850D01*
X0193000Y0918850D02*
X0193000Y0913650D01*
X0183000Y0913650D02*
X0183000Y0918850D01*
X0298000Y0753850D02*
X0298000Y0748650D01*
X0298000Y0713850D02*
X0298000Y0708650D01*
D14*
X0228000Y0831250D03*
X0198000Y0831250D03*
X0198000Y0871250D03*
X0228000Y0871250D03*
D10*
X0045800Y0721170D03*
X0038000Y0721170D03*
X0038000Y0711330D03*
X0045800Y0711330D03*
D29*
X0027300Y0692550D03*
X0027300Y0739950D03*
D98*
X0114250Y0748250D02*
X0114250Y0754250D01*
X0124250Y0754250D02*
X0124250Y0748250D01*
X0134250Y0748250D02*
X0134250Y0754250D01*
D108*
X0124250Y0692250D03*
D46*
X0083000Y0711250D03*
X0063000Y0741250D03*
X0153000Y0786250D03*
X0153000Y0806250D03*
X0183000Y0806250D03*
X0183000Y0786250D03*
X0213000Y0786250D03*
X0213000Y0806250D03*
X0243000Y0806250D03*
X0253000Y0821250D03*
X0253000Y0841250D03*
X0263000Y0861250D03*
X0263000Y0871250D03*
X0283000Y0871250D03*
X0283000Y0861250D03*
X0313000Y0856250D03*
X0313000Y0828750D03*
X0313000Y0801250D03*
X0243000Y0786250D03*
X0158000Y0836250D03*
X0158000Y0856250D03*
X0138000Y0866250D03*
X0118000Y0866250D03*
X0158000Y0886250D03*
X0168000Y0886250D03*
X0168000Y0906250D03*
X0158000Y0906250D03*
D63*
X0313000Y0846250D03*
X0313000Y0818750D03*
X0313000Y0791250D03*
X0093000Y0711250D03*
X0073000Y0741250D03*
X0425000Y0010000D02*
G75*
%LPD*%
D48*
X0468150Y0251730D03*
X0478000Y0251730D03*
X0487840Y0251730D03*
X0568150Y0251730D03*
X0578000Y0251730D03*
X0587840Y0251730D03*
X0668150Y0251730D03*
X0678000Y0251730D03*
X0687840Y0251730D03*
X0768150Y0251730D03*
X0778000Y0251730D03*
X0787840Y0251730D03*
D110*
X0795710Y0281250D03*
X0760280Y0281250D03*
X0695710Y0281250D03*
X0660280Y0281250D03*
X0595710Y0281250D03*
X0560280Y0281250D03*
X0495710Y0281250D03*
X0460280Y0281250D03*
D79*
X0516750Y0280000D03*
X0526750Y0280000D03*
X0526750Y0290000D03*
X0526750Y0300000D03*
X0516750Y0290000D03*
X0516750Y0270000D03*
X0526750Y0270000D03*
X0516750Y0260000D03*
X0516750Y0250000D03*
X0516750Y0240000D03*
X0516750Y0230000D03*
X0516750Y0220000D03*
X0516750Y0210000D03*
X0516750Y0200000D03*
X0516750Y0190000D03*
X0516750Y0180000D03*
X0516750Y0170000D03*
X0516750Y0160000D03*
X0516750Y0150000D03*
X0516750Y0140000D03*
X0516750Y0130000D03*
X0516750Y0120000D03*
X0516750Y0110000D03*
X0526750Y0100000D03*
X0536750Y0100000D03*
X0546750Y0100000D03*
X0586750Y0100000D03*
X0596750Y0100000D03*
X0606750Y0100000D03*
X0616750Y0100000D03*
X0626750Y0100000D03*
X0636750Y0100000D03*
X0646750Y0100000D03*
X0656750Y0100000D03*
X0666750Y0100000D03*
X0686750Y0100000D03*
X0696750Y0100000D03*
X0706750Y0100000D03*
X0716750Y0100000D03*
X0726750Y0100000D03*
X0726750Y0210000D03*
X0726750Y0220000D03*
X0726750Y0230000D03*
X0726750Y0240000D03*
X0726750Y0250000D03*
X0726750Y0260000D03*
X0726750Y0270000D03*
X0726750Y0280000D03*
X0726750Y0290000D03*
X0726750Y0300000D03*
X0726750Y0310000D03*
X0726750Y0320000D03*
X0824250Y0291250D03*
X0824250Y0281250D03*
X0824250Y0271250D03*
X0591750Y0315000D03*
X0571750Y0315000D03*
D96*
X0609250Y0320000D03*
X0609250Y0280000D03*
X0506750Y0100000D03*
X0506750Y0060000D03*
D44*
X0481750Y0046250D03*
X0473000Y0046250D03*
X0473000Y0016250D03*
X0481750Y0016250D03*
X0553000Y0111250D03*
X0583000Y0111250D03*
X0613000Y0111250D03*
X0643000Y0111250D03*
X0643000Y0141250D03*
X0613000Y0141250D03*
X0603000Y0156250D03*
X0583000Y0141250D03*
X0573000Y0156250D03*
X0563000Y0156250D03*
X0563000Y0166250D03*
X0563000Y0176250D03*
X0563000Y0186250D03*
X0583000Y0201250D03*
X0603000Y0201250D03*
X0563000Y0206250D03*
X0563000Y0216250D03*
X0563000Y0226250D03*
X0563000Y0236250D03*
X0533000Y0236250D03*
X0533000Y0226250D03*
X0533000Y0216250D03*
X0533000Y0206250D03*
X0533000Y0186250D03*
X0533000Y0176250D03*
X0533000Y0166250D03*
X0533000Y0156250D03*
X0553000Y0141250D03*
X0678000Y0141250D03*
X0678000Y0151250D03*
X0678000Y0161250D03*
X0678000Y0171250D03*
X0678000Y0181250D03*
X0708000Y0181250D03*
X0708000Y0171250D03*
X0708000Y0161250D03*
X0708000Y0151250D03*
X0708000Y0141250D03*
X0728000Y0078750D03*
X0733000Y0071250D03*
X0723000Y0071250D03*
X0728000Y0053750D03*
X0733000Y0046250D03*
X0723000Y0046250D03*
X0713000Y0026250D03*
X0713000Y0016250D03*
X0743000Y0016250D03*
X0743000Y0026250D03*
X0708000Y0211250D03*
X0708000Y0221250D03*
X0708000Y0231250D03*
X0698000Y0241250D03*
X0678000Y0241250D03*
X0678000Y0231250D03*
X0678000Y0221250D03*
X0678000Y0211250D03*
X0638000Y0256250D03*
X0618000Y0256250D03*
D77*
X0633000Y0286070D03*
X0651500Y0297880D03*
X0633000Y0309690D03*
D11*
X0774870Y0240940D03*
X0799560Y0240940D03*
X0824560Y0240940D03*
X0824560Y0176880D03*
X0824560Y0160940D03*
X0799560Y0160940D03*
X0799250Y0176880D03*
X0774870Y0176880D03*
X0774870Y0160940D03*
X0774870Y0096880D03*
X0774870Y0080940D03*
X0799560Y0080940D03*
X0799250Y0096880D03*
X0824560Y0096880D03*
X0824560Y0080940D03*
X0824560Y0016880D03*
X0799250Y0016880D03*
X0774870Y0016880D03*
X0481120Y0096570D03*
X0456430Y0096570D03*
X0431430Y0096570D03*
X0431430Y0160630D03*
X0431430Y0176570D03*
X0456430Y0176570D03*
X0456750Y0160630D03*
X0481120Y0160630D03*
X0481120Y0176570D03*
X0481120Y0240630D03*
X0456750Y0240630D03*
X0431430Y0240630D03*
D103*
X0516750Y0100000D03*
X0556750Y0100000D03*
D13*
X0598000Y0213650D02*
X0598000Y0218850D01*
X0608000Y0218850D02*
X0608000Y0213650D01*
X0618000Y0213650D02*
X0618000Y0218850D01*
X0628000Y0218850D02*
X0628000Y0213650D01*
X0638000Y0213650D02*
X0638000Y0218850D01*
X0648000Y0218850D02*
X0648000Y0213650D01*
X0658000Y0213650D02*
X0658000Y0218850D01*
X0658000Y0243650D02*
X0658000Y0248850D01*
X0648000Y0248850D02*
X0648000Y0243650D01*
X0638000Y0243650D02*
X0638000Y0248850D01*
X0628000Y0248850D02*
X0628000Y0243650D01*
X0618000Y0243650D02*
X0618000Y0248850D01*
X0608000Y0248850D02*
X0608000Y0243650D01*
X0598000Y0243650D02*
X0598000Y0248850D01*
X0713000Y0083850D02*
X0713000Y0078650D01*
X0713000Y0043850D02*
X0713000Y0038650D01*
D14*
X0643000Y0161250D03*
X0613000Y0161250D03*
X0613000Y0201250D03*
X0643000Y0201250D03*
D10*
X0460800Y0051170D03*
X0453000Y0051170D03*
X0453000Y0041330D03*
X0460800Y0041330D03*
D29*
X0442300Y0022550D03*
X0442300Y0069950D03*
D98*
X0529250Y0078250D02*
X0529250Y0084250D01*
X0539250Y0084250D02*
X0539250Y0078250D01*
X0549250Y0078250D02*
X0549250Y0084250D01*
D108*
X0539250Y0022250D03*
D46*
X0498000Y0041250D03*
X0478000Y0071250D03*
X0568000Y0116250D03*
X0568000Y0136250D03*
X0598000Y0136250D03*
X0598000Y0116250D03*
X0628000Y0116250D03*
X0628000Y0136250D03*
X0658000Y0136250D03*
X0668000Y0151250D03*
X0668000Y0171250D03*
X0678000Y0191250D03*
X0678000Y0201250D03*
X0698000Y0201250D03*
X0698000Y0191250D03*
X0728000Y0186250D03*
X0728000Y0158750D03*
X0728000Y0131250D03*
X0658000Y0116250D03*
X0573000Y0166250D03*
X0573000Y0186250D03*
X0553000Y0196250D03*
X0533000Y0196250D03*
X0573000Y0216250D03*
X0583000Y0216250D03*
X0583000Y0236250D03*
X0573000Y0236250D03*
D63*
X0728000Y0176250D03*
X0728000Y0148750D03*
X0728000Y0121250D03*
X0508000Y0041250D03*
X0488000Y0071250D03*
X0425000Y0345000D02*
G75*
%LPD*%
D48*
X0468150Y0586730D03*
X0478000Y0586730D03*
X0487840Y0586730D03*
X0568150Y0586730D03*
X0578000Y0586730D03*
X0587840Y0586730D03*
X0668150Y0586730D03*
X0678000Y0586730D03*
X0687840Y0586730D03*
X0768150Y0586730D03*
X0778000Y0586730D03*
X0787840Y0586730D03*
D110*
X0795710Y0616250D03*
X0760280Y0616250D03*
X0695710Y0616250D03*
X0660280Y0616250D03*
X0595710Y0616250D03*
X0560280Y0616250D03*
X0495710Y0616250D03*
X0460280Y0616250D03*
D79*
X0516750Y0615000D03*
X0526750Y0615000D03*
X0526750Y0625000D03*
X0526750Y0635000D03*
X0516750Y0625000D03*
X0516750Y0605000D03*
X0526750Y0605000D03*
X0516750Y0595000D03*
X0516750Y0585000D03*
X0516750Y0575000D03*
X0516750Y0565000D03*
X0516750Y0555000D03*
X0516750Y0545000D03*
X0516750Y0535000D03*
X0516750Y0525000D03*
X0516750Y0515000D03*
X0516750Y0505000D03*
X0516750Y0495000D03*
X0516750Y0485000D03*
X0516750Y0475000D03*
X0516750Y0465000D03*
X0516750Y0455000D03*
X0516750Y0445000D03*
X0526750Y0435000D03*
X0536750Y0435000D03*
X0546750Y0435000D03*
X0586750Y0435000D03*
X0596750Y0435000D03*
X0606750Y0435000D03*
X0616750Y0435000D03*
X0626750Y0435000D03*
X0636750Y0435000D03*
X0646750Y0435000D03*
X0656750Y0435000D03*
X0666750Y0435000D03*
X0686750Y0435000D03*
X0696750Y0435000D03*
X0706750Y0435000D03*
X0716750Y0435000D03*
X0726750Y0435000D03*
X0726750Y0545000D03*
X0726750Y0555000D03*
X0726750Y0565000D03*
X0726750Y0575000D03*
X0726750Y0585000D03*
X0726750Y0595000D03*
X0726750Y0605000D03*
X0726750Y0615000D03*
X0726750Y0625000D03*
X0726750Y0635000D03*
X0726750Y0645000D03*
X0726750Y0655000D03*
X0824250Y0626250D03*
X0824250Y0616250D03*
X0824250Y0606250D03*
X0591750Y0650000D03*
X0571750Y0650000D03*
D96*
X0609250Y0655000D03*
X0609250Y0615000D03*
X0506750Y0435000D03*
X0506750Y0395000D03*
D44*
X0481750Y0381250D03*
X0473000Y0381250D03*
X0473000Y0351250D03*
X0481750Y0351250D03*
X0553000Y0446250D03*
X0583000Y0446250D03*
X0613000Y0446250D03*
X0643000Y0446250D03*
X0643000Y0476250D03*
X0613000Y0476250D03*
X0603000Y0491250D03*
X0583000Y0476250D03*
X0573000Y0491250D03*
X0563000Y0491250D03*
X0563000Y0501250D03*
X0563000Y0511250D03*
X0563000Y0521250D03*
X0583000Y0536250D03*
X0603000Y0536250D03*
X0563000Y0541250D03*
X0563000Y0551250D03*
X0563000Y0561250D03*
X0563000Y0571250D03*
X0533000Y0571250D03*
X0533000Y0561250D03*
X0533000Y0551250D03*
X0533000Y0541250D03*
X0533000Y0521250D03*
X0533000Y0511250D03*
X0533000Y0501250D03*
X0533000Y0491250D03*
X0553000Y0476250D03*
X0678000Y0476250D03*
X0678000Y0486250D03*
X0678000Y0496250D03*
X0678000Y0506250D03*
X0678000Y0516250D03*
X0708000Y0516250D03*
X0708000Y0506250D03*
X0708000Y0496250D03*
X0708000Y0486250D03*
X0708000Y0476250D03*
X0728000Y0413750D03*
X0733000Y0406250D03*
X0723000Y0406250D03*
X0728000Y0388750D03*
X0733000Y0381250D03*
X0723000Y0381250D03*
X0713000Y0361250D03*
X0713000Y0351250D03*
X0743000Y0351250D03*
X0743000Y0361250D03*
X0708000Y0546250D03*
X0708000Y0556250D03*
X0708000Y0566250D03*
X0698000Y0576250D03*
X0678000Y0576250D03*
X0678000Y0566250D03*
X0678000Y0556250D03*
X0678000Y0546250D03*
X0638000Y0591250D03*
X0618000Y0591250D03*
D77*
X0633000Y0621070D03*
X0651500Y0632880D03*
X0633000Y0644690D03*
D11*
X0774870Y0575940D03*
X0799560Y0575940D03*
X0824560Y0575940D03*
X0824560Y0511880D03*
X0824560Y0495940D03*
X0799560Y0495940D03*
X0799250Y0511880D03*
X0774870Y0511880D03*
X0774870Y0495940D03*
X0774870Y0431880D03*
X0774870Y0415940D03*
X0799560Y0415940D03*
X0799250Y0431880D03*
X0824560Y0431880D03*
X0824560Y0415940D03*
X0824560Y0351880D03*
X0799250Y0351880D03*
X0774870Y0351880D03*
X0481120Y0431570D03*
X0456430Y0431570D03*
X0431430Y0431570D03*
X0431430Y0495630D03*
X0431430Y0511570D03*
X0456430Y0511570D03*
X0456750Y0495630D03*
X0481120Y0495630D03*
X0481120Y0511570D03*
X0481120Y0575630D03*
X0456750Y0575630D03*
X0431430Y0575630D03*
D103*
X0516750Y0435000D03*
X0556750Y0435000D03*
D13*
X0598000Y0548650D02*
X0598000Y0553850D01*
X0608000Y0553850D02*
X0608000Y0548650D01*
X0618000Y0548650D02*
X0618000Y0553850D01*
X0628000Y0553850D02*
X0628000Y0548650D01*
X0638000Y0548650D02*
X0638000Y0553850D01*
X0648000Y0553850D02*
X0648000Y0548650D01*
X0658000Y0548650D02*
X0658000Y0553850D01*
X0658000Y0578650D02*
X0658000Y0583850D01*
X0648000Y0583850D02*
X0648000Y0578650D01*
X0638000Y0578650D02*
X0638000Y0583850D01*
X0628000Y0583850D02*
X0628000Y0578650D01*
X0618000Y0578650D02*
X0618000Y0583850D01*
X0608000Y0583850D02*
X0608000Y0578650D01*
X0598000Y0578650D02*
X0598000Y0583850D01*
X0713000Y0418850D02*
X0713000Y0413650D01*
X0713000Y0378850D02*
X0713000Y0373650D01*
D14*
X0643000Y0496250D03*
X0613000Y0496250D03*
X0613000Y0536250D03*
X0643000Y0536250D03*
D10*
X0460800Y0386170D03*
X0453000Y0386170D03*
X0453000Y0376330D03*
X0460800Y0376330D03*
D29*
X0442300Y0357550D03*
X0442300Y0404950D03*
D98*
X0529250Y0413250D02*
X0529250Y0419250D01*
X0539250Y0419250D02*
X0539250Y0413250D01*
X0549250Y0413250D02*
X0549250Y0419250D01*
D108*
X0539250Y0357250D03*
D46*
X0498000Y0376250D03*
X0478000Y0406250D03*
X0568000Y0451250D03*
X0568000Y0471250D03*
X0598000Y0471250D03*
X0598000Y0451250D03*
X0628000Y0451250D03*
X0628000Y0471250D03*
X0658000Y0471250D03*
X0668000Y0486250D03*
X0668000Y0506250D03*
X0678000Y0526250D03*
X0678000Y0536250D03*
X0698000Y0536250D03*
X0698000Y0526250D03*
X0728000Y0521250D03*
X0728000Y0493750D03*
X0728000Y0466250D03*
X0658000Y0451250D03*
X0573000Y0501250D03*
X0573000Y0521250D03*
X0553000Y0531250D03*
X0533000Y0531250D03*
X0573000Y0551250D03*
X0583000Y0551250D03*
X0583000Y0571250D03*
X0573000Y0571250D03*
D63*
X0728000Y0511250D03*
X0728000Y0483750D03*
X0728000Y0456250D03*
X0508000Y0376250D03*
X0488000Y0406250D03*
X0425000Y0680000D02*
G75*
%LPD*%
D48*
X0468150Y0921730D03*
X0478000Y0921730D03*
X0487840Y0921730D03*
X0568150Y0921730D03*
X0578000Y0921730D03*
X0587840Y0921730D03*
X0668150Y0921730D03*
X0678000Y0921730D03*
X0687840Y0921730D03*
X0768150Y0921730D03*
X0778000Y0921730D03*
X0787840Y0921730D03*
D110*
X0795710Y0951250D03*
X0760280Y0951250D03*
X0695710Y0951250D03*
X0660280Y0951250D03*
X0595710Y0951250D03*
X0560280Y0951250D03*
X0495710Y0951250D03*
X0460280Y0951250D03*
D79*
X0516750Y0950000D03*
X0526750Y0950000D03*
X0526750Y0960000D03*
X0526750Y0970000D03*
X0516750Y0960000D03*
X0516750Y0940000D03*
X0526750Y0940000D03*
X0516750Y0930000D03*
X0516750Y0920000D03*
X0516750Y0910000D03*
X0516750Y0900000D03*
X0516750Y0890000D03*
X0516750Y0880000D03*
X0516750Y0870000D03*
X0516750Y0860000D03*
X0516750Y0850000D03*
X0516750Y0840000D03*
X0516750Y0830000D03*
X0516750Y0820000D03*
X0516750Y0810000D03*
X0516750Y0800000D03*
X0516750Y0790000D03*
X0516750Y0780000D03*
X0526750Y0770000D03*
X0536750Y0770000D03*
X0546750Y0770000D03*
X0586750Y0770000D03*
X0596750Y0770000D03*
X0606750Y0770000D03*
X0616750Y0770000D03*
X0626750Y0770000D03*
X0636750Y0770000D03*
X0646750Y0770000D03*
X0656750Y0770000D03*
X0666750Y0770000D03*
X0686750Y0770000D03*
X0696750Y0770000D03*
X0706750Y0770000D03*
X0716750Y0770000D03*
X0726750Y0770000D03*
X0726750Y0880000D03*
X0726750Y0890000D03*
X0726750Y0900000D03*
X0726750Y0910000D03*
X0726750Y0920000D03*
X0726750Y0930000D03*
X0726750Y0940000D03*
X0726750Y0950000D03*
X0726750Y0960000D03*
X0726750Y0970000D03*
X0726750Y0980000D03*
X0726750Y0990000D03*
X0824250Y0961250D03*
X0824250Y0951250D03*
X0824250Y0941250D03*
X0591750Y0985000D03*
X0571750Y0985000D03*
D96*
X0609250Y0990000D03*
X0609250Y0950000D03*
X0506750Y0770000D03*
X0506750Y0730000D03*
D44*
X0481750Y0716250D03*
X0473000Y0716250D03*
X0473000Y0686250D03*
X0481750Y0686250D03*
X0553000Y0781250D03*
X0583000Y0781250D03*
X0613000Y0781250D03*
X0643000Y0781250D03*
X0643000Y0811250D03*
X0613000Y0811250D03*
X0603000Y0826250D03*
X0583000Y0811250D03*
X0573000Y0826250D03*
X0563000Y0826250D03*
X0563000Y0836250D03*
X0563000Y0846250D03*
X0563000Y0856250D03*
X0583000Y0871250D03*
X0603000Y0871250D03*
X0563000Y0876250D03*
X0563000Y0886250D03*
X0563000Y0896250D03*
X0563000Y0906250D03*
X0533000Y0906250D03*
X0533000Y0896250D03*
X0533000Y0886250D03*
X0533000Y0876250D03*
X0533000Y0856250D03*
X0533000Y0846250D03*
X0533000Y0836250D03*
X0533000Y0826250D03*
X0553000Y0811250D03*
X0678000Y0811250D03*
X0678000Y0821250D03*
X0678000Y0831250D03*
X0678000Y0841250D03*
X0678000Y0851250D03*
X0708000Y0851250D03*
X0708000Y0841250D03*
X0708000Y0831250D03*
X0708000Y0821250D03*
X0708000Y0811250D03*
X0728000Y0748750D03*
X0733000Y0741250D03*
X0723000Y0741250D03*
X0728000Y0723750D03*
X0733000Y0716250D03*
X0723000Y0716250D03*
X0713000Y0696250D03*
X0713000Y0686250D03*
X0743000Y0686250D03*
X0743000Y0696250D03*
X0708000Y0881250D03*
X0708000Y0891250D03*
X0708000Y0901250D03*
X0698000Y0911250D03*
X0678000Y0911250D03*
X0678000Y0901250D03*
X0678000Y0891250D03*
X0678000Y0881250D03*
X0638000Y0926250D03*
X0618000Y0926250D03*
D77*
X0633000Y0956070D03*
X0651500Y0967880D03*
X0633000Y0979690D03*
D11*
X0774870Y0910940D03*
X0799560Y0910940D03*
X0824560Y0910940D03*
X0824560Y0846880D03*
X0824560Y0830940D03*
X0799560Y0830940D03*
X0799250Y0846880D03*
X0774870Y0846880D03*
X0774870Y0830940D03*
X0774870Y0766880D03*
X0774870Y0750940D03*
X0799560Y0750940D03*
X0799250Y0766880D03*
X0824560Y0766880D03*
X0824560Y0750940D03*
X0824560Y0686880D03*
X0799250Y0686880D03*
X0774870Y0686880D03*
X0481120Y0766570D03*
X0456430Y0766570D03*
X0431430Y0766570D03*
X0431430Y0830630D03*
X0431430Y0846570D03*
X0456430Y0846570D03*
X0456750Y0830630D03*
X0481120Y0830630D03*
X0481120Y0846570D03*
X0481120Y0910630D03*
X0456750Y0910630D03*
X0431430Y0910630D03*
D103*
X0516750Y0770000D03*
X0556750Y0770000D03*
D13*
X0598000Y0883650D02*
X0598000Y0888850D01*
X0608000Y0888850D02*
X0608000Y0883650D01*
X0618000Y0883650D02*
X0618000Y0888850D01*
X0628000Y0888850D02*
X0628000Y0883650D01*
X0638000Y0883650D02*
X0638000Y0888850D01*
X0648000Y0888850D02*
X0648000Y0883650D01*
X0658000Y0883650D02*
X0658000Y0888850D01*
X0658000Y0913650D02*
X0658000Y0918850D01*
X0648000Y0918850D02*
X0648000Y0913650D01*
X0638000Y0913650D02*
X0638000Y0918850D01*
X0628000Y0918850D02*
X0628000Y0913650D01*
X0618000Y0913650D02*
X0618000Y0918850D01*
X0608000Y0918850D02*
X0608000Y0913650D01*
X0598000Y0913650D02*
X0598000Y0918850D01*
X0713000Y0753850D02*
X0713000Y0748650D01*
X0713000Y0713850D02*
X0713000Y0708650D01*
D14*
X0643000Y0831250D03*
X0613000Y0831250D03*
X0613000Y0871250D03*
X0643000Y0871250D03*
D10*
X0460800Y0721170D03*
X0453000Y0721170D03*
X0453000Y0711330D03*
X0460800Y0711330D03*
D29*
X0442300Y0692550D03*
X0442300Y0739950D03*
D98*
X0529250Y0748250D02*
X0529250Y0754250D01*
X0539250Y0754250D02*
X0539250Y0748250D01*
X0549250Y0748250D02*
X0549250Y0754250D01*
D108*
X0539250Y0692250D03*
D46*
X0498000Y0711250D03*
X0478000Y0741250D03*
X0568000Y0786250D03*
X0568000Y0806250D03*
X0598000Y0806250D03*
X0598000Y0786250D03*
X0628000Y0786250D03*
X0628000Y0806250D03*
X0658000Y0806250D03*
X0668000Y0821250D03*
X0668000Y0841250D03*
X0678000Y0861250D03*
X0678000Y0871250D03*
X0698000Y0871250D03*
X0698000Y0861250D03*
X0728000Y0856250D03*
X0728000Y0828750D03*
X0728000Y0801250D03*
X0658000Y0786250D03*
X0573000Y0836250D03*
X0573000Y0856250D03*
X0553000Y0866250D03*
X0533000Y0866250D03*
X0573000Y0886250D03*
X0583000Y0886250D03*
X0583000Y0906250D03*
X0573000Y0906250D03*
D63*
X0728000Y0846250D03*
X0728000Y0818750D03*
X0728000Y0791250D03*
X0508000Y0711250D03*
X0488000Y0741250D03*
X0845000Y0010000D02*
G75*
%LPD*%
D79*
X0850000Y0065250D03*
X0850000Y0075250D03*
X0850000Y0085250D03*
X0850000Y0095250D03*
X0850000Y0105250D03*
X0850000Y0195250D03*
X0850000Y0205250D03*
X0850000Y0215250D03*
X0860000Y0225250D03*
X0870000Y0225250D03*
X0880000Y0225250D03*
X0890000Y0225250D03*
X0900000Y0225250D03*
X0910000Y0225250D03*
X0920000Y0225250D03*
X0930000Y0225250D03*
X0940000Y0225250D03*
X0950000Y0225250D03*
X0960000Y0225250D03*
X0970000Y0225250D03*
X0980000Y0225250D03*
X0990000Y0225250D03*
X1000000Y0225250D03*
X1010000Y0225250D03*
X1020000Y0225250D03*
X1030000Y0225250D03*
X1040000Y0225250D03*
X1040000Y0015250D03*
X1050000Y0015250D03*
X1060000Y0015250D03*
X1070000Y0015250D03*
X1030000Y0015250D03*
X1020000Y0015250D03*
X1010000Y0015250D03*
X1000000Y0015250D03*
X0990000Y0015250D03*
D55*
X1031250Y0056910D03*
X1031250Y0063600D03*
X1076250Y0054850D03*
X1076250Y0048160D03*
X1076250Y0075660D03*
X1076250Y0082350D03*
X1001250Y0146910D03*
X1001250Y0153600D03*
X1063750Y0156100D03*
X1063750Y0149410D03*
X0925000Y0101100D03*
X0925000Y0094410D03*
X0906250Y0091910D03*
X0906250Y0098600D03*
X0895000Y0098600D03*
X0887500Y0098600D03*
X0887500Y0091910D03*
X0895000Y0091910D03*
X0877500Y0093600D03*
X0877500Y0086910D03*
X0870000Y0086910D03*
X0870000Y0093600D03*
X0862500Y0093600D03*
X0862500Y0086910D03*
X0860000Y0109410D03*
X0860000Y0116100D03*
X0865000Y0126910D03*
X0865000Y0133600D03*
X0865000Y0154410D03*
X0865000Y0161100D03*
D90*
X0857090Y0176500D03*
X0850400Y0176500D03*
X0874150Y0202750D03*
X0880840Y0202750D03*
X0896650Y0204000D03*
X0903340Y0204000D03*
X0903340Y0211500D03*
X0896650Y0211500D03*
X0921650Y0204000D03*
X0928340Y0204000D03*
X0959150Y0195250D03*
X0965840Y0195250D03*
X0966650Y0186500D03*
X0973340Y0186500D03*
X0973340Y0165250D03*
X0966650Y0165250D03*
X0969150Y0140250D03*
X0975840Y0140250D03*
X0963340Y0109000D03*
X0963340Y0102750D03*
X0956650Y0102750D03*
X0956650Y0109000D03*
X0943340Y0062750D03*
X0936650Y0062750D03*
X0936650Y0050250D03*
X0943340Y0050250D03*
X0976650Y0057750D03*
X0983340Y0057750D03*
X0980840Y0034000D03*
X0974150Y0034000D03*
X0974150Y0024000D03*
X0980840Y0024000D03*
X1035400Y0024000D03*
X1042090Y0024000D03*
X0905840Y0050250D03*
X0899150Y0050250D03*
X0899150Y0062750D03*
X0905840Y0062750D03*
X1031650Y0210250D03*
X1038340Y0210250D03*
X1038340Y0216500D03*
X1031650Y0216500D03*
X0980840Y0216500D03*
X0974150Y0216500D03*
D59*
X0925900Y0062750D03*
X0914090Y0062750D03*
X0914090Y0050250D03*
X0925900Y0050250D03*
D21*
X0890000Y0045250D03*
X0880000Y0045250D03*
X0880000Y0055250D03*
X0890000Y0055250D03*
X0870000Y0055250D03*
X0870000Y0045250D03*
X0860000Y0045250D03*
X0860000Y0055250D03*
X0850000Y0055250D03*
X0850000Y0045250D03*
D19*
X0872800Y0118350D03*
X0872800Y0120250D03*
X0872800Y0122250D03*
X0872800Y0124250D03*
X0872800Y0126150D03*
X0872800Y0128150D03*
X0872800Y0130150D03*
X0872800Y0132050D03*
X0872800Y0134050D03*
X0872800Y0136050D03*
X0872800Y0137950D03*
X0872800Y0139950D03*
X0872800Y0141950D03*
X0872800Y0143850D03*
X0872800Y0145850D03*
X0872800Y0147850D03*
X0872800Y0149750D03*
X0872800Y0151750D03*
X0872800Y0153750D03*
X0872800Y0155750D03*
X0872800Y0157650D03*
X0872800Y0159650D03*
X0872800Y0161650D03*
X0872800Y0163550D03*
X0872800Y0165550D03*
X0872800Y0167550D03*
X0872800Y0169450D03*
X0872800Y0171450D03*
X0872800Y0173450D03*
X0872800Y0175350D03*
X0872800Y0177350D03*
X0872800Y0179350D03*
X0872800Y0181250D03*
X0872800Y0183250D03*
X0872800Y0185250D03*
X0872800Y0187150D03*
X0957200Y0187150D03*
X0957200Y0185250D03*
X0957200Y0183250D03*
X0957200Y0181250D03*
X0957200Y0179350D03*
X0957200Y0177350D03*
X0957200Y0175350D03*
X0957200Y0173450D03*
X0957200Y0171450D03*
X0957200Y0169450D03*
X0957200Y0167550D03*
X0957200Y0165550D03*
X0957200Y0163550D03*
X0957200Y0161650D03*
X0957200Y0159650D03*
X0957200Y0157650D03*
X0957200Y0155750D03*
X0957200Y0153750D03*
X0957200Y0151750D03*
X0957200Y0149750D03*
X0957200Y0147850D03*
X0957200Y0145850D03*
X0957200Y0143850D03*
X0957200Y0141950D03*
X0957200Y0139950D03*
X0957200Y0137950D03*
X0957200Y0136050D03*
X0957200Y0134050D03*
X0957200Y0132050D03*
X0957200Y0130150D03*
X0957200Y0128150D03*
X0957200Y0126150D03*
X0957200Y0124250D03*
X0957200Y0122250D03*
X0957200Y0120250D03*
X0957200Y0118350D03*
D52*
X0949400Y0110550D03*
X0947500Y0110550D03*
X0945500Y0110550D03*
X0943500Y0110550D03*
X0941600Y0110550D03*
X0939600Y0110550D03*
X0937600Y0110550D03*
X0935700Y0110550D03*
X0933700Y0110550D03*
X0931700Y0110550D03*
X0929800Y0110550D03*
X0927800Y0110550D03*
X0925800Y0110550D03*
X0923900Y0110550D03*
X0921900Y0110550D03*
X0919900Y0110550D03*
X0918000Y0110550D03*
X0916000Y0110550D03*
X0914000Y0110550D03*
X0912000Y0110550D03*
X0910100Y0110550D03*
X0908100Y0110550D03*
X0906100Y0110550D03*
X0904200Y0110550D03*
X0902200Y0110550D03*
X0900200Y0110550D03*
X0898300Y0110550D03*
X0896300Y0110550D03*
X0894300Y0110550D03*
X0892400Y0110550D03*
X0890400Y0110550D03*
X0888400Y0110550D03*
X0886500Y0110550D03*
X0884500Y0110550D03*
X0882500Y0110550D03*
X0880600Y0110550D03*
X0880600Y0194950D03*
X0882500Y0194950D03*
X0884500Y0194950D03*
X0886500Y0194950D03*
X0888400Y0194950D03*
X0890400Y0194950D03*
X0892400Y0194950D03*
X0894300Y0194950D03*
X0896300Y0194950D03*
X0898300Y0194950D03*
X0900200Y0194950D03*
X0902200Y0194950D03*
X0904200Y0194950D03*
X0906100Y0194950D03*
X0908100Y0194950D03*
X0910100Y0194950D03*
X0912000Y0194950D03*
X0914000Y0194950D03*
X0916000Y0194950D03*
X0918000Y0194950D03*
X0919900Y0194950D03*
X0921900Y0194950D03*
X0923900Y0194950D03*
X0925800Y0194950D03*
X0927800Y0194950D03*
X0929800Y0194950D03*
X0931700Y0194950D03*
X0933700Y0194950D03*
X0935700Y0194950D03*
X0937600Y0194950D03*
X0939600Y0194950D03*
X0941600Y0194950D03*
X0943500Y0194950D03*
X0945500Y0194950D03*
X0947500Y0194950D03*
X0949400Y0194950D03*
D18*
X0852500Y0161750D03*
X0852500Y0123750D03*
X1063750Y0084250D03*
X1063750Y0046250D03*
D15*
X1055790Y0119680D03*
X1055790Y0122830D03*
X1055790Y0125980D03*
X1055790Y0129130D03*
X1055790Y0132280D03*
X1055790Y0135430D03*
X1055790Y0138580D03*
X1055790Y0141730D03*
X1055790Y0144880D03*
X1055790Y0148030D03*
X1055790Y0151180D03*
X1055790Y0154330D03*
X1055790Y0157480D03*
X1055790Y0160630D03*
X1055790Y0163780D03*
X1055790Y0166930D03*
X1055790Y0170080D03*
X1055790Y0173230D03*
X1055790Y0176380D03*
X1055790Y0179520D03*
X1055790Y0182670D03*
X1055790Y0185820D03*
X1011700Y0185820D03*
X1011700Y0182670D03*
X1011700Y0179520D03*
X1011700Y0176380D03*
X1011700Y0173230D03*
X1011700Y0170080D03*
X1011700Y0166930D03*
X1011700Y0163780D03*
X1011700Y0160630D03*
X1011700Y0157480D03*
X1011700Y0154330D03*
X1011700Y0151180D03*
X1011700Y0148030D03*
X1011700Y0144880D03*
X1011700Y0141730D03*
X1011700Y0138580D03*
X1011700Y0135430D03*
X1011700Y0132280D03*
X1011700Y0129130D03*
X1011700Y0125980D03*
X1011700Y0122830D03*
X1011700Y0119680D03*
D57*
X0897400Y0033100D03*
X0897400Y0024100D03*
X0897400Y0015100D03*
D72*
X0872600Y0024000D03*
D94*
X0914880Y0016500D03*
X0925110Y0016500D03*
X0925110Y0034000D03*
X0914880Y0034000D03*
D34*
X0992720Y0035130D03*
X0992720Y0032580D03*
X0992720Y0030020D03*
X0992720Y0027460D03*
X0992720Y0024900D03*
X0992720Y0037690D03*
X0992720Y0040250D03*
X0992720Y0042810D03*
X0992720Y0045370D03*
X0992720Y0047930D03*
X0992720Y0050490D03*
X0992720Y0053050D03*
X0992720Y0055610D03*
X0992720Y0058170D03*
X1022270Y0058170D03*
X1022270Y0055610D03*
X1022270Y0053050D03*
X1022270Y0050490D03*
X1022270Y0047930D03*
X1022270Y0045370D03*
X1022270Y0042810D03*
X1022270Y0040250D03*
X1022270Y0037690D03*
X1022270Y0035130D03*
X1022270Y0032580D03*
X1022270Y0030020D03*
X1022270Y0027460D03*
X1022270Y0024900D03*
D25*
X1034480Y0031500D03*
X1045510Y0031500D03*
D106*
X1041250Y0054740D03*
X1041250Y0065760D03*
X0963750Y0035760D03*
X0963750Y0024740D03*
D103*
X0850000Y0185250D03*
X0850000Y0225250D03*
D22*
X0850000Y0035250D03*
X0960000Y0015250D03*
D98*
X0850000Y0015250D03*
X0850000Y0025250D03*
X0970000Y0015250D03*
X0980000Y0015250D03*
D56*
X1074630Y0192570D03*
X1074630Y0225440D03*
D54*
X1062330Y0217760D02*
X1057590Y0217760D01*
X1057590Y0200240D02*
X1062330Y0200240D01*
D32*
X1063610Y0206440D03*
X1063610Y0209000D03*
X1063610Y0211560D03*
D73*
X1066200Y0213430D02*
X1066200Y0214810D01*
X1066200Y0213430D02*
X1063620Y0213430D01*
X1063620Y0214810D01*
X1066200Y0214810D01*
X1066200Y0214010D02*
X1063620Y0214010D01*
X1063620Y0214590D02*
X1066200Y0214590D01*
X1066200Y0204570D02*
X1066200Y0203190D01*
X1063620Y0203190D01*
X1063620Y0204570D01*
X1066200Y0204570D01*
X1066200Y0203770D02*
X1063620Y0203770D01*
X1063620Y0204350D02*
X1066200Y0204350D01*
D47*
X1074630Y0204480D03*
X1074630Y0213530D03*
D65*
X1062470Y0213730D03*
X1062470Y0204280D03*
D70*
X0865000Y0176000D03*
X0865000Y0172000D03*
D61*
X1003750Y0046500D03*
X1008750Y0046500D03*
X1008750Y0036500D03*
X1003750Y0036500D03*
X0845000Y0250000D02*
G75*
%LPD*%
D79*
X0850000Y0305250D03*
X0850000Y0315250D03*
X0850000Y0325250D03*
X0850000Y0335250D03*
X0850000Y0345250D03*
X0850000Y0435250D03*
X0850000Y0445250D03*
X0850000Y0455250D03*
X0860000Y0465250D03*
X0870000Y0465250D03*
X0880000Y0465250D03*
X0890000Y0465250D03*
X0900000Y0465250D03*
X0910000Y0465250D03*
X0920000Y0465250D03*
X0930000Y0465250D03*
X0940000Y0465250D03*
X0950000Y0465250D03*
X0960000Y0465250D03*
X0970000Y0465250D03*
X0980000Y0465250D03*
X0990000Y0465250D03*
X1000000Y0465250D03*
X1010000Y0465250D03*
X1020000Y0465250D03*
X1030000Y0465250D03*
X1040000Y0465250D03*
X1040000Y0255250D03*
X1050000Y0255250D03*
X1060000Y0255250D03*
X1070000Y0255250D03*
X1030000Y0255250D03*
X1020000Y0255250D03*
X1010000Y0255250D03*
X1000000Y0255250D03*
X0990000Y0255250D03*
D55*
X1031250Y0296910D03*
X1031250Y0303600D03*
X1076250Y0294850D03*
X1076250Y0288160D03*
X1076250Y0315660D03*
X1076250Y0322350D03*
X1001250Y0386910D03*
X1001250Y0393600D03*
X1063750Y0396100D03*
X1063750Y0389410D03*
X0925000Y0341100D03*
X0925000Y0334410D03*
X0906250Y0331910D03*
X0906250Y0338600D03*
X0895000Y0338600D03*
X0887500Y0338600D03*
X0887500Y0331910D03*
X0895000Y0331910D03*
X0877500Y0333600D03*
X0877500Y0326910D03*
X0870000Y0326910D03*
X0870000Y0333600D03*
X0862500Y0333600D03*
X0862500Y0326910D03*
X0860000Y0349410D03*
X0860000Y0356100D03*
X0865000Y0366910D03*
X0865000Y0373600D03*
X0865000Y0394410D03*
X0865000Y0401100D03*
D90*
X0857090Y0416500D03*
X0850400Y0416500D03*
X0874150Y0442750D03*
X0880840Y0442750D03*
X0896650Y0444000D03*
X0903340Y0444000D03*
X0903340Y0451500D03*
X0896650Y0451500D03*
X0921650Y0444000D03*
X0928340Y0444000D03*
X0959150Y0435250D03*
X0965840Y0435250D03*
X0966650Y0426500D03*
X0973340Y0426500D03*
X0973340Y0405250D03*
X0966650Y0405250D03*
X0969150Y0380250D03*
X0975840Y0380250D03*
X0963340Y0349000D03*
X0963340Y0342750D03*
X0956650Y0342750D03*
X0956650Y0349000D03*
X0943340Y0302750D03*
X0936650Y0302750D03*
X0936650Y0290250D03*
X0943340Y0290250D03*
X0976650Y0297750D03*
X0983340Y0297750D03*
X0980840Y0274000D03*
X0974150Y0274000D03*
X0974150Y0264000D03*
X0980840Y0264000D03*
X1035400Y0264000D03*
X1042090Y0264000D03*
X0905840Y0290250D03*
X0899150Y0290250D03*
X0899150Y0302750D03*
X0905840Y0302750D03*
X1031650Y0450250D03*
X1038340Y0450250D03*
X1038340Y0456500D03*
X1031650Y0456500D03*
X0980840Y0456500D03*
X0974150Y0456500D03*
D59*
X0925900Y0302750D03*
X0914090Y0302750D03*
X0914090Y0290250D03*
X0925900Y0290250D03*
D21*
X0890000Y0285250D03*
X0880000Y0285250D03*
X0880000Y0295250D03*
X0890000Y0295250D03*
X0870000Y0295250D03*
X0870000Y0285250D03*
X0860000Y0285250D03*
X0860000Y0295250D03*
X0850000Y0295250D03*
X0850000Y0285250D03*
D19*
X0872800Y0358350D03*
X0872800Y0360250D03*
X0872800Y0362250D03*
X0872800Y0364250D03*
X0872800Y0366150D03*
X0872800Y0368150D03*
X0872800Y0370150D03*
X0872800Y0372050D03*
X0872800Y0374050D03*
X0872800Y0376050D03*
X0872800Y0377950D03*
X0872800Y0379950D03*
X0872800Y0381950D03*
X0872800Y0383850D03*
X0872800Y0385850D03*
X0872800Y0387850D03*
X0872800Y0389750D03*
X0872800Y0391750D03*
X0872800Y0393750D03*
X0872800Y0395750D03*
X0872800Y0397650D03*
X0872800Y0399650D03*
X0872800Y0401650D03*
X0872800Y0403550D03*
X0872800Y0405550D03*
X0872800Y0407550D03*
X0872800Y0409450D03*
X0872800Y0411450D03*
X0872800Y0413450D03*
X0872800Y0415350D03*
X0872800Y0417350D03*
X0872800Y0419350D03*
X0872800Y0421250D03*
X0872800Y0423250D03*
X0872800Y0425250D03*
X0872800Y0427150D03*
X0957200Y0427150D03*
X0957200Y0425250D03*
X0957200Y0423250D03*
X0957200Y0421250D03*
X0957200Y0419350D03*
X0957200Y0417350D03*
X0957200Y0415350D03*
X0957200Y0413450D03*
X0957200Y0411450D03*
X0957200Y0409450D03*
X0957200Y0407550D03*
X0957200Y0405550D03*
X0957200Y0403550D03*
X0957200Y0401650D03*
X0957200Y0399650D03*
X0957200Y0397650D03*
X0957200Y0395750D03*
X0957200Y0393750D03*
X0957200Y0391750D03*
X0957200Y0389750D03*
X0957200Y0387850D03*
X0957200Y0385850D03*
X0957200Y0383850D03*
X0957200Y0381950D03*
X0957200Y0379950D03*
X0957200Y0377950D03*
X0957200Y0376050D03*
X0957200Y0374050D03*
X0957200Y0372050D03*
X0957200Y0370150D03*
X0957200Y0368150D03*
X0957200Y0366150D03*
X0957200Y0364250D03*
X0957200Y0362250D03*
X0957200Y0360250D03*
X0957200Y0358350D03*
D52*
X0949400Y0350550D03*
X0947500Y0350550D03*
X0945500Y0350550D03*
X0943500Y0350550D03*
X0941600Y0350550D03*
X0939600Y0350550D03*
X0937600Y0350550D03*
X0935700Y0350550D03*
X0933700Y0350550D03*
X0931700Y0350550D03*
X0929800Y0350550D03*
X0927800Y0350550D03*
X0925800Y0350550D03*
X0923900Y0350550D03*
X0921900Y0350550D03*
X0919900Y0350550D03*
X0918000Y0350550D03*
X0916000Y0350550D03*
X0914000Y0350550D03*
X0912000Y0350550D03*
X0910100Y0350550D03*
X0908100Y0350550D03*
X0906100Y0350550D03*
X0904200Y0350550D03*
X0902200Y0350550D03*
X0900200Y0350550D03*
X0898300Y0350550D03*
X0896300Y0350550D03*
X0894300Y0350550D03*
X0892400Y0350550D03*
X0890400Y0350550D03*
X0888400Y0350550D03*
X0886500Y0350550D03*
X0884500Y0350550D03*
X0882500Y0350550D03*
X0880600Y0350550D03*
X0880600Y0434950D03*
X0882500Y0434950D03*
X0884500Y0434950D03*
X0886500Y0434950D03*
X0888400Y0434950D03*
X0890400Y0434950D03*
X0892400Y0434950D03*
X0894300Y0434950D03*
X0896300Y0434950D03*
X0898300Y0434950D03*
X0900200Y0434950D03*
X0902200Y0434950D03*
X0904200Y0434950D03*
X0906100Y0434950D03*
X0908100Y0434950D03*
X0910100Y0434950D03*
X0912000Y0434950D03*
X0914000Y0434950D03*
X0916000Y0434950D03*
X0918000Y0434950D03*
X0919900Y0434950D03*
X0921900Y0434950D03*
X0923900Y0434950D03*
X0925800Y0434950D03*
X0927800Y0434950D03*
X0929800Y0434950D03*
X0931700Y0434950D03*
X0933700Y0434950D03*
X0935700Y0434950D03*
X0937600Y0434950D03*
X0939600Y0434950D03*
X0941600Y0434950D03*
X0943500Y0434950D03*
X0945500Y0434950D03*
X0947500Y0434950D03*
X0949400Y0434950D03*
D18*
X0852500Y0401750D03*
X0852500Y0363750D03*
X1063750Y0324250D03*
X1063750Y0286250D03*
D15*
X1055790Y0359680D03*
X1055790Y0362830D03*
X1055790Y0365980D03*
X1055790Y0369130D03*
X1055790Y0372280D03*
X1055790Y0375430D03*
X1055790Y0378580D03*
X1055790Y0381730D03*
X1055790Y0384880D03*
X1055790Y0388030D03*
X1055790Y0391180D03*
X1055790Y0394330D03*
X1055790Y0397480D03*
X1055790Y0400630D03*
X1055790Y0403780D03*
X1055790Y0406930D03*
X1055790Y0410080D03*
X1055790Y0413230D03*
X1055790Y0416380D03*
X1055790Y0419520D03*
X1055790Y0422670D03*
X1055790Y0425820D03*
X1011700Y0425820D03*
X1011700Y0422670D03*
X1011700Y0419520D03*
X1011700Y0416380D03*
X1011700Y0413230D03*
X1011700Y0410080D03*
X1011700Y0406930D03*
X1011700Y0403780D03*
X1011700Y0400630D03*
X1011700Y0397480D03*
X1011700Y0394330D03*
X1011700Y0391180D03*
X1011700Y0388030D03*
X1011700Y0384880D03*
X1011700Y0381730D03*
X1011700Y0378580D03*
X1011700Y0375430D03*
X1011700Y0372280D03*
X1011700Y0369130D03*
X1011700Y0365980D03*
X1011700Y0362830D03*
X1011700Y0359680D03*
D57*
X0897400Y0273100D03*
X0897400Y0264100D03*
X0897400Y0255100D03*
D72*
X0872600Y0264000D03*
D94*
X0914880Y0256500D03*
X0925110Y0256500D03*
X0925110Y0274000D03*
X0914880Y0274000D03*
D34*
X0992720Y0275130D03*
X0992720Y0272580D03*
X0992720Y0270020D03*
X0992720Y0267460D03*
X0992720Y0264900D03*
X0992720Y0277690D03*
X0992720Y0280250D03*
X0992720Y0282810D03*
X0992720Y0285370D03*
X0992720Y0287930D03*
X0992720Y0290490D03*
X0992720Y0293050D03*
X0992720Y0295610D03*
X0992720Y0298170D03*
X1022270Y0298170D03*
X1022270Y0295610D03*
X1022270Y0293050D03*
X1022270Y0290490D03*
X1022270Y0287930D03*
X1022270Y0285370D03*
X1022270Y0282810D03*
X1022270Y0280250D03*
X1022270Y0277690D03*
X1022270Y0275130D03*
X1022270Y0272580D03*
X1022270Y0270020D03*
X1022270Y0267460D03*
X1022270Y0264900D03*
D25*
X1034480Y0271500D03*
X1045510Y0271500D03*
D106*
X1041250Y0294740D03*
X1041250Y0305760D03*
X0963750Y0275760D03*
X0963750Y0264740D03*
D103*
X0850000Y0425250D03*
X0850000Y0465250D03*
D22*
X0850000Y0275250D03*
X0960000Y0255250D03*
D98*
X0850000Y0255250D03*
X0850000Y0265250D03*
X0970000Y0255250D03*
X0980000Y0255250D03*
D56*
X1074630Y0432570D03*
X1074630Y0465440D03*
D54*
X1062330Y0457760D02*
X1057590Y0457760D01*
X1057590Y0440240D02*
X1062330Y0440240D01*
D32*
X1063610Y0446440D03*
X1063610Y0449000D03*
X1063610Y0451560D03*
D73*
X1066200Y0453430D02*
X1066200Y0454810D01*
X1066200Y0453430D02*
X1063620Y0453430D01*
X1063620Y0454810D01*
X1066200Y0454810D01*
X1066200Y0454010D02*
X1063620Y0454010D01*
X1063620Y0454590D02*
X1066200Y0454590D01*
X1066200Y0444570D02*
X1066200Y0443190D01*
X1063620Y0443190D01*
X1063620Y0444570D01*
X1066200Y0444570D01*
X1066200Y0443770D02*
X1063620Y0443770D01*
X1063620Y0444350D02*
X1066200Y0444350D01*
D47*
X1074630Y0444480D03*
X1074630Y0453530D03*
D65*
X1062470Y0453730D03*
X1062470Y0444280D03*
D70*
X0865000Y0416000D03*
X0865000Y0412000D03*
D61*
X1003750Y0286500D03*
X1008750Y0286500D03*
X1008750Y0276500D03*
X1003750Y0276500D03*
X0845000Y0490000D02*
G75*
%LPD*%
D79*
X0850000Y0545250D03*
X0850000Y0555250D03*
X0850000Y0565250D03*
X0850000Y0575250D03*
X0850000Y0585250D03*
X0850000Y0675250D03*
X0850000Y0685250D03*
X0850000Y0695250D03*
X0860000Y0705250D03*
X0870000Y0705250D03*
X0880000Y0705250D03*
X0890000Y0705250D03*
X0900000Y0705250D03*
X0910000Y0705250D03*
X0920000Y0705250D03*
X0930000Y0705250D03*
X0940000Y0705250D03*
X0950000Y0705250D03*
X0960000Y0705250D03*
X0970000Y0705250D03*
X0980000Y0705250D03*
X0990000Y0705250D03*
X1000000Y0705250D03*
X1010000Y0705250D03*
X1020000Y0705250D03*
X1030000Y0705250D03*
X1040000Y0705250D03*
X1040000Y0495250D03*
X1050000Y0495250D03*
X1060000Y0495250D03*
X1070000Y0495250D03*
X1030000Y0495250D03*
X1020000Y0495250D03*
X1010000Y0495250D03*
X1000000Y0495250D03*
X0990000Y0495250D03*
D55*
X1031250Y0536910D03*
X1031250Y0543600D03*
X1076250Y0534850D03*
X1076250Y0528160D03*
X1076250Y0555660D03*
X1076250Y0562350D03*
X1001250Y0626910D03*
X1001250Y0633600D03*
X1063750Y0636100D03*
X1063750Y0629410D03*
X0925000Y0581100D03*
X0925000Y0574410D03*
X0906250Y0571910D03*
X0906250Y0578600D03*
X0895000Y0578600D03*
X0887500Y0578600D03*
X0887500Y0571910D03*
X0895000Y0571910D03*
X0877500Y0573600D03*
X0877500Y0566910D03*
X0870000Y0566910D03*
X0870000Y0573600D03*
X0862500Y0573600D03*
X0862500Y0566910D03*
X0860000Y0589410D03*
X0860000Y0596100D03*
X0865000Y0606910D03*
X0865000Y0613600D03*
X0865000Y0634410D03*
X0865000Y0641100D03*
D90*
X0857090Y0656500D03*
X0850400Y0656500D03*
X0874150Y0682750D03*
X0880840Y0682750D03*
X0896650Y0684000D03*
X0903340Y0684000D03*
X0903340Y0691500D03*
X0896650Y0691500D03*
X0921650Y0684000D03*
X0928340Y0684000D03*
X0959150Y0675250D03*
X0965840Y0675250D03*
X0966650Y0666500D03*
X0973340Y0666500D03*
X0973340Y0645250D03*
X0966650Y0645250D03*
X0969150Y0620250D03*
X0975840Y0620250D03*
X0963340Y0589000D03*
X0963340Y0582750D03*
X0956650Y0582750D03*
X0956650Y0589000D03*
X0943340Y0542750D03*
X0936650Y0542750D03*
X0936650Y0530250D03*
X0943340Y0530250D03*
X0976650Y0537750D03*
X0983340Y0537750D03*
X0980840Y0514000D03*
X0974150Y0514000D03*
X0974150Y0504000D03*
X0980840Y0504000D03*
X1035400Y0504000D03*
X1042090Y0504000D03*
X0905840Y0530250D03*
X0899150Y0530250D03*
X0899150Y0542750D03*
X0905840Y0542750D03*
X1031650Y0690250D03*
X1038340Y0690250D03*
X1038340Y0696500D03*
X1031650Y0696500D03*
X0980840Y0696500D03*
X0974150Y0696500D03*
D59*
X0925900Y0542750D03*
X0914090Y0542750D03*
X0914090Y0530250D03*
X0925900Y0530250D03*
D21*
X0890000Y0525250D03*
X0880000Y0525250D03*
X0880000Y0535250D03*
X0890000Y0535250D03*
X0870000Y0535250D03*
X0870000Y0525250D03*
X0860000Y0525250D03*
X0860000Y0535250D03*
X0850000Y0535250D03*
X0850000Y0525250D03*
D19*
X0872800Y0598350D03*
X0872800Y0600250D03*
X0872800Y0602250D03*
X0872800Y0604250D03*
X0872800Y0606150D03*
X0872800Y0608150D03*
X0872800Y0610150D03*
X0872800Y0612050D03*
X0872800Y0614050D03*
X0872800Y0616050D03*
X0872800Y0617950D03*
X0872800Y0619950D03*
X0872800Y0621950D03*
X0872800Y0623850D03*
X0872800Y0625850D03*
X0872800Y0627850D03*
X0872800Y0629750D03*
X0872800Y0631750D03*
X0872800Y0633750D03*
X0872800Y0635750D03*
X0872800Y0637650D03*
X0872800Y0639650D03*
X0872800Y0641650D03*
X0872800Y0643550D03*
X0872800Y0645550D03*
X0872800Y0647550D03*
X0872800Y0649450D03*
X0872800Y0651450D03*
X0872800Y0653450D03*
X0872800Y0655350D03*
X0872800Y0657350D03*
X0872800Y0659350D03*
X0872800Y0661250D03*
X0872800Y0663250D03*
X0872800Y0665250D03*
X0872800Y0667150D03*
X0957200Y0667150D03*
X0957200Y0665250D03*
X0957200Y0663250D03*
X0957200Y0661250D03*
X0957200Y0659350D03*
X0957200Y0657350D03*
X0957200Y0655350D03*
X0957200Y0653450D03*
X0957200Y0651450D03*
X0957200Y0649450D03*
X0957200Y0647550D03*
X0957200Y0645550D03*
X0957200Y0643550D03*
X0957200Y0641650D03*
X0957200Y0639650D03*
X0957200Y0637650D03*
X0957200Y0635750D03*
X0957200Y0633750D03*
X0957200Y0631750D03*
X0957200Y0629750D03*
X0957200Y0627850D03*
X0957200Y0625850D03*
X0957200Y0623850D03*
X0957200Y0621950D03*
X0957200Y0619950D03*
X0957200Y0617950D03*
X0957200Y0616050D03*
X0957200Y0614050D03*
X0957200Y0612050D03*
X0957200Y0610150D03*
X0957200Y0608150D03*
X0957200Y0606150D03*
X0957200Y0604250D03*
X0957200Y0602250D03*
X0957200Y0600250D03*
X0957200Y0598350D03*
D52*
X0949400Y0590550D03*
X0947500Y0590550D03*
X0945500Y0590550D03*
X0943500Y0590550D03*
X0941600Y0590550D03*
X0939600Y0590550D03*
X0937600Y0590550D03*
X0935700Y0590550D03*
X0933700Y0590550D03*
X0931700Y0590550D03*
X0929800Y0590550D03*
X0927800Y0590550D03*
X0925800Y0590550D03*
X0923900Y0590550D03*
X0921900Y0590550D03*
X0919900Y0590550D03*
X0918000Y0590550D03*
X0916000Y0590550D03*
X0914000Y0590550D03*
X0912000Y0590550D03*
X0910100Y0590550D03*
X0908100Y0590550D03*
X0906100Y0590550D03*
X0904200Y0590550D03*
X0902200Y0590550D03*
X0900200Y0590550D03*
X0898300Y0590550D03*
X0896300Y0590550D03*
X0894300Y0590550D03*
X0892400Y0590550D03*
X0890400Y0590550D03*
X0888400Y0590550D03*
X0886500Y0590550D03*
X0884500Y0590550D03*
X0882500Y0590550D03*
X0880600Y0590550D03*
X0880600Y0674950D03*
X0882500Y0674950D03*
X0884500Y0674950D03*
X0886500Y0674950D03*
X0888400Y0674950D03*
X0890400Y0674950D03*
X0892400Y0674950D03*
X0894300Y0674950D03*
X0896300Y0674950D03*
X0898300Y0674950D03*
X0900200Y0674950D03*
X0902200Y0674950D03*
X0904200Y0674950D03*
X0906100Y0674950D03*
X0908100Y0674950D03*
X0910100Y0674950D03*
X0912000Y0674950D03*
X0914000Y0674950D03*
X0916000Y0674950D03*
X0918000Y0674950D03*
X0919900Y0674950D03*
X0921900Y0674950D03*
X0923900Y0674950D03*
X0925800Y0674950D03*
X0927800Y0674950D03*
X0929800Y0674950D03*
X0931700Y0674950D03*
X0933700Y0674950D03*
X0935700Y0674950D03*
X0937600Y0674950D03*
X0939600Y0674950D03*
X0941600Y0674950D03*
X0943500Y0674950D03*
X0945500Y0674950D03*
X0947500Y0674950D03*
X0949400Y0674950D03*
D18*
X0852500Y0641750D03*
X0852500Y0603750D03*
X1063750Y0564250D03*
X1063750Y0526250D03*
D15*
X1055790Y0599680D03*
X1055790Y0602830D03*
X1055790Y0605980D03*
X1055790Y0609130D03*
X1055790Y0612280D03*
X1055790Y0615430D03*
X1055790Y0618580D03*
X1055790Y0621730D03*
X1055790Y0624880D03*
X1055790Y0628030D03*
X1055790Y0631180D03*
X1055790Y0634330D03*
X1055790Y0637480D03*
X1055790Y0640630D03*
X1055790Y0643780D03*
X1055790Y0646930D03*
X1055790Y0650080D03*
X1055790Y0653230D03*
X1055790Y0656380D03*
X1055790Y0659520D03*
X1055790Y0662670D03*
X1055790Y0665820D03*
X1011700Y0665820D03*
X1011700Y0662670D03*
X1011700Y0659520D03*
X1011700Y0656380D03*
X1011700Y0653230D03*
X1011700Y0650080D03*
X1011700Y0646930D03*
X1011700Y0643780D03*
X1011700Y0640630D03*
X1011700Y0637480D03*
X1011700Y0634330D03*
X1011700Y0631180D03*
X1011700Y0628030D03*
X1011700Y0624880D03*
X1011700Y0621730D03*
X1011700Y0618580D03*
X1011700Y0615430D03*
X1011700Y0612280D03*
X1011700Y0609130D03*
X1011700Y0605980D03*
X1011700Y0602830D03*
X1011700Y0599680D03*
D57*
X0897400Y0513100D03*
X0897400Y0504100D03*
X0897400Y0495100D03*
D72*
X0872600Y0504000D03*
D94*
X0914880Y0496500D03*
X0925110Y0496500D03*
X0925110Y0514000D03*
X0914880Y0514000D03*
D34*
X0992720Y0515130D03*
X0992720Y0512580D03*
X0992720Y0510020D03*
X0992720Y0507460D03*
X0992720Y0504900D03*
X0992720Y0517690D03*
X0992720Y0520250D03*
X0992720Y0522810D03*
X0992720Y0525370D03*
X0992720Y0527930D03*
X0992720Y0530490D03*
X0992720Y0533050D03*
X0992720Y0535610D03*
X0992720Y0538170D03*
X1022270Y0538170D03*
X1022270Y0535610D03*
X1022270Y0533050D03*
X1022270Y0530490D03*
X1022270Y0527930D03*
X1022270Y0525370D03*
X1022270Y0522810D03*
X1022270Y0520250D03*
X1022270Y0517690D03*
X1022270Y0515130D03*
X1022270Y0512580D03*
X1022270Y0510020D03*
X1022270Y0507460D03*
X1022270Y0504900D03*
D25*
X1034480Y0511500D03*
X1045510Y0511500D03*
D106*
X1041250Y0534740D03*
X1041250Y0545760D03*
X0963750Y0515760D03*
X0963750Y0504740D03*
D103*
X0850000Y0665250D03*
X0850000Y0705250D03*
D22*
X0850000Y0515250D03*
X0960000Y0495250D03*
D98*
X0850000Y0495250D03*
X0850000Y0505250D03*
X0970000Y0495250D03*
X0980000Y0495250D03*
D56*
X1074630Y0672570D03*
X1074630Y0705440D03*
D54*
X1062330Y0697760D02*
X1057590Y0697760D01*
X1057590Y0680240D02*
X1062330Y0680240D01*
D32*
X1063610Y0686440D03*
X1063610Y0689000D03*
X1063610Y0691560D03*
D73*
X1066200Y0693430D02*
X1066200Y0694810D01*
X1066200Y0693430D02*
X1063620Y0693430D01*
X1063620Y0694810D01*
X1066200Y0694810D01*
X1066200Y0694010D02*
X1063620Y0694010D01*
X1063620Y0694590D02*
X1066200Y0694590D01*
X1066200Y0684570D02*
X1066200Y0683190D01*
X1063620Y0683190D01*
X1063620Y0684570D01*
X1066200Y0684570D01*
X1066200Y0683770D02*
X1063620Y0683770D01*
X1063620Y0684350D02*
X1066200Y0684350D01*
D47*
X1074630Y0684480D03*
X1074630Y0693530D03*
D65*
X1062470Y0693730D03*
X1062470Y0684280D03*
D70*
X0865000Y0656000D03*
X0865000Y0652000D03*
D61*
X1003750Y0526500D03*
X1008750Y0526500D03*
X1008750Y0516500D03*
X1003750Y0516500D03*
X0845000Y0730000D02*
G75*
%LPD*%
D79*
X0850000Y0785250D03*
X0850000Y0795250D03*
X0850000Y0805250D03*
X0850000Y0815250D03*
X0850000Y0825250D03*
X0850000Y0915250D03*
X0850000Y0925250D03*
X0850000Y0935250D03*
X0860000Y0945250D03*
X0870000Y0945250D03*
X0880000Y0945250D03*
X0890000Y0945250D03*
X0900000Y0945250D03*
X0910000Y0945250D03*
X0920000Y0945250D03*
X0930000Y0945250D03*
X0940000Y0945250D03*
X0950000Y0945250D03*
X0960000Y0945250D03*
X0970000Y0945250D03*
X0980000Y0945250D03*
X0990000Y0945250D03*
X1000000Y0945250D03*
X1010000Y0945250D03*
X1020000Y0945250D03*
X1030000Y0945250D03*
X1040000Y0945250D03*
X1040000Y0735250D03*
X1050000Y0735250D03*
X1060000Y0735250D03*
X1070000Y0735250D03*
X1030000Y0735250D03*
X1020000Y0735250D03*
X1010000Y0735250D03*
X1000000Y0735250D03*
X0990000Y0735250D03*
D55*
X1031250Y0776910D03*
X1031250Y0783600D03*
X1076250Y0774850D03*
X1076250Y0768160D03*
X1076250Y0795660D03*
X1076250Y0802350D03*
X1001250Y0866910D03*
X1001250Y0873600D03*
X1063750Y0876100D03*
X1063750Y0869410D03*
X0925000Y0821100D03*
X0925000Y0814410D03*
X0906250Y0811910D03*
X0906250Y0818600D03*
X0895000Y0818600D03*
X0887500Y0818600D03*
X0887500Y0811910D03*
X0895000Y0811910D03*
X0877500Y0813600D03*
X0877500Y0806910D03*
X0870000Y0806910D03*
X0870000Y0813600D03*
X0862500Y0813600D03*
X0862500Y0806910D03*
X0860000Y0829410D03*
X0860000Y0836100D03*
X0865000Y0846910D03*
X0865000Y0853600D03*
X0865000Y0874410D03*
X0865000Y0881100D03*
D90*
X0857090Y0896500D03*
X0850400Y0896500D03*
X0874150Y0922750D03*
X0880840Y0922750D03*
X0896650Y0924000D03*
X0903340Y0924000D03*
X0903340Y0931500D03*
X0896650Y0931500D03*
X0921650Y0924000D03*
X0928340Y0924000D03*
X0959150Y0915250D03*
X0965840Y0915250D03*
X0966650Y0906500D03*
X0973340Y0906500D03*
X0973340Y0885250D03*
X0966650Y0885250D03*
X0969150Y0860250D03*
X0975840Y0860250D03*
X0963340Y0829000D03*
X0963340Y0822750D03*
X0956650Y0822750D03*
X0956650Y0829000D03*
X0943340Y0782750D03*
X0936650Y0782750D03*
X0936650Y0770250D03*
X0943340Y0770250D03*
X0976650Y0777750D03*
X0983340Y0777750D03*
X0980840Y0754000D03*
X0974150Y0754000D03*
X0974150Y0744000D03*
X0980840Y0744000D03*
X1035400Y0744000D03*
X1042090Y0744000D03*
X0905840Y0770250D03*
X0899150Y0770250D03*
X0899150Y0782750D03*
X0905840Y0782750D03*
X1031650Y0930250D03*
X1038340Y0930250D03*
X1038340Y0936500D03*
X1031650Y0936500D03*
X0980840Y0936500D03*
X0974150Y0936500D03*
D59*
X0925900Y0782750D03*
X0914090Y0782750D03*
X0914090Y0770250D03*
X0925900Y0770250D03*
D21*
X0890000Y0765250D03*
X0880000Y0765250D03*
X0880000Y0775250D03*
X0890000Y0775250D03*
X0870000Y0775250D03*
X0870000Y0765250D03*
X0860000Y0765250D03*
X0860000Y0775250D03*
X0850000Y0775250D03*
X0850000Y0765250D03*
D19*
X0872800Y0838350D03*
X0872800Y0840250D03*
X0872800Y0842250D03*
X0872800Y0844250D03*
X0872800Y0846150D03*
X0872800Y0848150D03*
X0872800Y0850150D03*
X0872800Y0852050D03*
X0872800Y0854050D03*
X0872800Y0856050D03*
X0872800Y0857950D03*
X0872800Y0859950D03*
X0872800Y0861950D03*
X0872800Y0863850D03*
X0872800Y0865850D03*
X0872800Y0867850D03*
X0872800Y0869750D03*
X0872800Y0871750D03*
X0872800Y0873750D03*
X0872800Y0875750D03*
X0872800Y0877650D03*
X0872800Y0879650D03*
X0872800Y0881650D03*
X0872800Y0883550D03*
X0872800Y0885550D03*
X0872800Y0887550D03*
X0872800Y0889450D03*
X0872800Y0891450D03*
X0872800Y0893450D03*
X0872800Y0895350D03*
X0872800Y0897350D03*
X0872800Y0899350D03*
X0872800Y0901250D03*
X0872800Y0903250D03*
X0872800Y0905250D03*
X0872800Y0907150D03*
X0957200Y0907150D03*
X0957200Y0905250D03*
X0957200Y0903250D03*
X0957200Y0901250D03*
X0957200Y0899350D03*
X0957200Y0897350D03*
X0957200Y0895350D03*
X0957200Y0893450D03*
X0957200Y0891450D03*
X0957200Y0889450D03*
X0957200Y0887550D03*
X0957200Y0885550D03*
X0957200Y0883550D03*
X0957200Y0881650D03*
X0957200Y0879650D03*
X0957200Y0877650D03*
X0957200Y0875750D03*
X0957200Y0873750D03*
X0957200Y0871750D03*
X0957200Y0869750D03*
X0957200Y0867850D03*
X0957200Y0865850D03*
X0957200Y0863850D03*
X0957200Y0861950D03*
X0957200Y0859950D03*
X0957200Y0857950D03*
X0957200Y0856050D03*
X0957200Y0854050D03*
X0957200Y0852050D03*
X0957200Y0850150D03*
X0957200Y0848150D03*
X0957200Y0846150D03*
X0957200Y0844250D03*
X0957200Y0842250D03*
X0957200Y0840250D03*
X0957200Y0838350D03*
D52*
X0949400Y0830550D03*
X0947500Y0830550D03*
X0945500Y0830550D03*
X0943500Y0830550D03*
X0941600Y0830550D03*
X0939600Y0830550D03*
X0937600Y0830550D03*
X0935700Y0830550D03*
X0933700Y0830550D03*
X0931700Y0830550D03*
X0929800Y0830550D03*
X0927800Y0830550D03*
X0925800Y0830550D03*
X0923900Y0830550D03*
X0921900Y0830550D03*
X0919900Y0830550D03*
X0918000Y0830550D03*
X0916000Y0830550D03*
X0914000Y0830550D03*
X0912000Y0830550D03*
X0910100Y0830550D03*
X0908100Y0830550D03*
X0906100Y0830550D03*
X0904200Y0830550D03*
X0902200Y0830550D03*
X0900200Y0830550D03*
X0898300Y0830550D03*
X0896300Y0830550D03*
X0894300Y0830550D03*
X0892400Y0830550D03*
X0890400Y0830550D03*
X0888400Y0830550D03*
X0886500Y0830550D03*
X0884500Y0830550D03*
X0882500Y0830550D03*
X0880600Y0830550D03*
X0880600Y0914950D03*
X0882500Y0914950D03*
X0884500Y0914950D03*
X0886500Y0914950D03*
X0888400Y0914950D03*
X0890400Y0914950D03*
X0892400Y0914950D03*
X0894300Y0914950D03*
X0896300Y0914950D03*
X0898300Y0914950D03*
X0900200Y0914950D03*
X0902200Y0914950D03*
X0904200Y0914950D03*
X0906100Y0914950D03*
X0908100Y0914950D03*
X0910100Y0914950D03*
X0912000Y0914950D03*
X0914000Y0914950D03*
X0916000Y0914950D03*
X0918000Y0914950D03*
X0919900Y0914950D03*
X0921900Y0914950D03*
X0923900Y0914950D03*
X0925800Y0914950D03*
X0927800Y0914950D03*
X0929800Y0914950D03*
X0931700Y0914950D03*
X0933700Y0914950D03*
X0935700Y0914950D03*
X0937600Y0914950D03*
X0939600Y0914950D03*
X0941600Y0914950D03*
X0943500Y0914950D03*
X0945500Y0914950D03*
X0947500Y0914950D03*
X0949400Y0914950D03*
D18*
X0852500Y0881750D03*
X0852500Y0843750D03*
X1063750Y0804250D03*
X1063750Y0766250D03*
D15*
X1055790Y0839680D03*
X1055790Y0842830D03*
X1055790Y0845980D03*
X1055790Y0849130D03*
X1055790Y0852280D03*
X1055790Y0855430D03*
X1055790Y0858580D03*
X1055790Y0861730D03*
X1055790Y0864880D03*
X1055790Y0868030D03*
X1055790Y0871180D03*
X1055790Y0874330D03*
X1055790Y0877480D03*
X1055790Y0880630D03*
X1055790Y0883780D03*
X1055790Y0886930D03*
X1055790Y0890080D03*
X1055790Y0893230D03*
X1055790Y0896380D03*
X1055790Y0899520D03*
X1055790Y0902670D03*
X1055790Y0905820D03*
X1011700Y0905820D03*
X1011700Y0902670D03*
X1011700Y0899520D03*
X1011700Y0896380D03*
X1011700Y0893230D03*
X1011700Y0890080D03*
X1011700Y0886930D03*
X1011700Y0883780D03*
X1011700Y0880630D03*
X1011700Y0877480D03*
X1011700Y0874330D03*
X1011700Y0871180D03*
X1011700Y0868030D03*
X1011700Y0864880D03*
X1011700Y0861730D03*
X1011700Y0858580D03*
X1011700Y0855430D03*
X1011700Y0852280D03*
X1011700Y0849130D03*
X1011700Y0845980D03*
X1011700Y0842830D03*
X1011700Y0839680D03*
D57*
X0897400Y0753100D03*
X0897400Y0744100D03*
X0897400Y0735100D03*
D72*
X0872600Y0744000D03*
D94*
X0914880Y0736500D03*
X0925110Y0736500D03*
X0925110Y0754000D03*
X0914880Y0754000D03*
D34*
X0992720Y0755130D03*
X0992720Y0752580D03*
X0992720Y0750020D03*
X0992720Y0747460D03*
X0992720Y0744900D03*
X0992720Y0757690D03*
X0992720Y0760250D03*
X0992720Y0762810D03*
X0992720Y0765370D03*
X0992720Y0767930D03*
X0992720Y0770490D03*
X0992720Y0773050D03*
X0992720Y0775610D03*
X0992720Y0778170D03*
X1022270Y0778170D03*
X1022270Y0775610D03*
X1022270Y0773050D03*
X1022270Y0770490D03*
X1022270Y0767930D03*
X1022270Y0765370D03*
X1022270Y0762810D03*
X1022270Y0760250D03*
X1022270Y0757690D03*
X1022270Y0755130D03*
X1022270Y0752580D03*
X1022270Y0750020D03*
X1022270Y0747460D03*
X1022270Y0744900D03*
D25*
X1034480Y0751500D03*
X1045510Y0751500D03*
D106*
X1041250Y0774740D03*
X1041250Y0785760D03*
X0963750Y0755760D03*
X0963750Y0744740D03*
D103*
X0850000Y0905250D03*
X0850000Y0945250D03*
D22*
X0850000Y0755250D03*
X0960000Y0735250D03*
D98*
X0850000Y0735250D03*
X0850000Y0745250D03*
X0970000Y0735250D03*
X0980000Y0735250D03*
D56*
X1074630Y0912570D03*
X1074630Y0945440D03*
D54*
X1062330Y0937760D02*
X1057590Y0937760D01*
X1057590Y0920240D02*
X1062330Y0920240D01*
D32*
X1063610Y0926440D03*
X1063610Y0929000D03*
X1063610Y0931560D03*
D73*
X1066200Y0933430D02*
X1066200Y0934810D01*
X1066200Y0933430D02*
X1063620Y0933430D01*
X1063620Y0934810D01*
X1066200Y0934810D01*
X1066200Y0934010D02*
X1063620Y0934010D01*
X1063620Y0934590D02*
X1066200Y0934590D01*
X1066200Y0924570D02*
X1066200Y0923190D01*
X1063620Y0923190D01*
X1063620Y0924570D01*
X1066200Y0924570D01*
X1066200Y0923770D02*
X1063620Y0923770D01*
X1063620Y0924350D02*
X1066200Y0924350D01*
D47*
X1074630Y0924480D03*
X1074630Y0933530D03*
D65*
X1062470Y0933730D03*
X1062470Y0924280D03*
D70*
X0865000Y0896000D03*
X0865000Y0892000D03*
D61*
X1003750Y0766500D03*
X1008750Y0766500D03*
X1008750Y0756500D03*
X1003750Y0756500D03*
X1090000Y0010000D02*
G75*
%LPD*%
D79*
X1095000Y0065250D03*
X1095000Y0075250D03*
X1095000Y0085250D03*
X1095000Y0095250D03*
X1095000Y0105250D03*
X1095000Y0195250D03*
X1095000Y0205250D03*
X1095000Y0215250D03*
X1105000Y0225250D03*
X1115000Y0225250D03*
X1125000Y0225250D03*
X1135000Y0225250D03*
X1145000Y0225250D03*
X1155000Y0225250D03*
X1165000Y0225250D03*
X1175000Y0225250D03*
X1185000Y0225250D03*
X1195000Y0225250D03*
X1205000Y0225250D03*
X1215000Y0225250D03*
X1225000Y0225250D03*
X1235000Y0225250D03*
X1245000Y0225250D03*
X1255000Y0225250D03*
X1265000Y0225250D03*
X1275000Y0225250D03*
X1285000Y0225250D03*
X1285000Y0015250D03*
X1295000Y0015250D03*
X1305000Y0015250D03*
X1315000Y0015250D03*
X1275000Y0015250D03*
X1265000Y0015250D03*
X1255000Y0015250D03*
X1245000Y0015250D03*
X1235000Y0015250D03*
D55*
X1276250Y0056910D03*
X1276250Y0063600D03*
X1321250Y0054850D03*
X1321250Y0048160D03*
X1321250Y0075660D03*
X1321250Y0082350D03*
X1246250Y0146910D03*
X1246250Y0153600D03*
X1308750Y0156100D03*
X1308750Y0149410D03*
X1170000Y0101100D03*
X1170000Y0094410D03*
X1151250Y0091910D03*
X1151250Y0098600D03*
X1140000Y0098600D03*
X1132500Y0098600D03*
X1132500Y0091910D03*
X1140000Y0091910D03*
X1122500Y0093600D03*
X1122500Y0086910D03*
X1115000Y0086910D03*
X1115000Y0093600D03*
X1107500Y0093600D03*
X1107500Y0086910D03*
X1105000Y0109410D03*
X1105000Y0116100D03*
X1110000Y0126910D03*
X1110000Y0133600D03*
X1110000Y0154410D03*
X1110000Y0161100D03*
D90*
X1102090Y0176500D03*
X1095400Y0176500D03*
X1119150Y0202750D03*
X1125840Y0202750D03*
X1141650Y0204000D03*
X1148340Y0204000D03*
X1148340Y0211500D03*
X1141650Y0211500D03*
X1166650Y0204000D03*
X1173340Y0204000D03*
X1204150Y0195250D03*
X1210840Y0195250D03*
X1211650Y0186500D03*
X1218340Y0186500D03*
X1218340Y0165250D03*
X1211650Y0165250D03*
X1214150Y0140250D03*
X1220840Y0140250D03*
X1208340Y0109000D03*
X1208340Y0102750D03*
X1201650Y0102750D03*
X1201650Y0109000D03*
X1188340Y0062750D03*
X1181650Y0062750D03*
X1181650Y0050250D03*
X1188340Y0050250D03*
X1221650Y0057750D03*
X1228340Y0057750D03*
X1225840Y0034000D03*
X1219150Y0034000D03*
X1219150Y0024000D03*
X1225840Y0024000D03*
X1280400Y0024000D03*
X1287090Y0024000D03*
X1150840Y0050250D03*
X1144150Y0050250D03*
X1144150Y0062750D03*
X1150840Y0062750D03*
X1276650Y0210250D03*
X1283340Y0210250D03*
X1283340Y0216500D03*
X1276650Y0216500D03*
X1225840Y0216500D03*
X1219150Y0216500D03*
D59*
X1170900Y0062750D03*
X1159090Y0062750D03*
X1159090Y0050250D03*
X1170900Y0050250D03*
D21*
X1135000Y0045250D03*
X1125000Y0045250D03*
X1125000Y0055250D03*
X1135000Y0055250D03*
X1115000Y0055250D03*
X1115000Y0045250D03*
X1105000Y0045250D03*
X1105000Y0055250D03*
X1095000Y0055250D03*
X1095000Y0045250D03*
D19*
X1117800Y0118350D03*
X1117800Y0120250D03*
X1117800Y0122250D03*
X1117800Y0124250D03*
X1117800Y0126150D03*
X1117800Y0128150D03*
X1117800Y0130150D03*
X1117800Y0132050D03*
X1117800Y0134050D03*
X1117800Y0136050D03*
X1117800Y0137950D03*
X1117800Y0139950D03*
X1117800Y0141950D03*
X1117800Y0143850D03*
X1117800Y0145850D03*
X1117800Y0147850D03*
X1117800Y0149750D03*
X1117800Y0151750D03*
X1117800Y0153750D03*
X1117800Y0155750D03*
X1117800Y0157650D03*
X1117800Y0159650D03*
X1117800Y0161650D03*
X1117800Y0163550D03*
X1117800Y0165550D03*
X1117800Y0167550D03*
X1117800Y0169450D03*
X1117800Y0171450D03*
X1117800Y0173450D03*
X1117800Y0175350D03*
X1117800Y0177350D03*
X1117800Y0179350D03*
X1117800Y0181250D03*
X1117800Y0183250D03*
X1117800Y0185250D03*
X1117800Y0187150D03*
X1202200Y0187150D03*
X1202200Y0185250D03*
X1202200Y0183250D03*
X1202200Y0181250D03*
X1202200Y0179350D03*
X1202200Y0177350D03*
X1202200Y0175350D03*
X1202200Y0173450D03*
X1202200Y0171450D03*
X1202200Y0169450D03*
X1202200Y0167550D03*
X1202200Y0165550D03*
X1202200Y0163550D03*
X1202200Y0161650D03*
X1202200Y0159650D03*
X1202200Y0157650D03*
X1202200Y0155750D03*
X1202200Y0153750D03*
X1202200Y0151750D03*
X1202200Y0149750D03*
X1202200Y0147850D03*
X1202200Y0145850D03*
X1202200Y0143850D03*
X1202200Y0141950D03*
X1202200Y0139950D03*
X1202200Y0137950D03*
X1202200Y0136050D03*
X1202200Y0134050D03*
X1202200Y0132050D03*
X1202200Y0130150D03*
X1202200Y0128150D03*
X1202200Y0126150D03*
X1202200Y0124250D03*
X1202200Y0122250D03*
X1202200Y0120250D03*
X1202200Y0118350D03*
D52*
X1194400Y0110550D03*
X1192500Y0110550D03*
X1190500Y0110550D03*
X1188500Y0110550D03*
X1186600Y0110550D03*
X1184600Y0110550D03*
X1182600Y0110550D03*
X1180700Y0110550D03*
X1178700Y0110550D03*
X1176700Y0110550D03*
X1174800Y0110550D03*
X1172800Y0110550D03*
X1170800Y0110550D03*
X1168900Y0110550D03*
X1166900Y0110550D03*
X1164900Y0110550D03*
X1163000Y0110550D03*
X1161000Y0110550D03*
X1159000Y0110550D03*
X1157000Y0110550D03*
X1155100Y0110550D03*
X1153100Y0110550D03*
X1151100Y0110550D03*
X1149200Y0110550D03*
X1147200Y0110550D03*
X1145200Y0110550D03*
X1143300Y0110550D03*
X1141300Y0110550D03*
X1139300Y0110550D03*
X1137400Y0110550D03*
X1135400Y0110550D03*
X1133400Y0110550D03*
X1131500Y0110550D03*
X1129500Y0110550D03*
X1127500Y0110550D03*
X1125600Y0110550D03*
X1125600Y0194950D03*
X1127500Y0194950D03*
X1129500Y0194950D03*
X1131500Y0194950D03*
X1133400Y0194950D03*
X1135400Y0194950D03*
X1137400Y0194950D03*
X1139300Y0194950D03*
X1141300Y0194950D03*
X1143300Y0194950D03*
X1145200Y0194950D03*
X1147200Y0194950D03*
X1149200Y0194950D03*
X1151100Y0194950D03*
X1153100Y0194950D03*
X1155100Y0194950D03*
X1157000Y0194950D03*
X1159000Y0194950D03*
X1161000Y0194950D03*
X1163000Y0194950D03*
X1164900Y0194950D03*
X1166900Y0194950D03*
X1168900Y0194950D03*
X1170800Y0194950D03*
X1172800Y0194950D03*
X1174800Y0194950D03*
X1176700Y0194950D03*
X1178700Y0194950D03*
X1180700Y0194950D03*
X1182600Y0194950D03*
X1184600Y0194950D03*
X1186600Y0194950D03*
X1188500Y0194950D03*
X1190500Y0194950D03*
X1192500Y0194950D03*
X1194400Y0194950D03*
D18*
X1097500Y0161750D03*
X1097500Y0123750D03*
X1308750Y0084250D03*
X1308750Y0046250D03*
D15*
X1300790Y0119680D03*
X1300790Y0122830D03*
X1300790Y0125980D03*
X1300790Y0129130D03*
X1300790Y0132280D03*
X1300790Y0135430D03*
X1300790Y0138580D03*
X1300790Y0141730D03*
X1300790Y0144880D03*
X1300790Y0148030D03*
X1300790Y0151180D03*
X1300790Y0154330D03*
X1300790Y0157480D03*
X1300790Y0160630D03*
X1300790Y0163780D03*
X1300790Y0166930D03*
X1300790Y0170080D03*
X1300790Y0173230D03*
X1300790Y0176380D03*
X1300790Y0179520D03*
X1300790Y0182670D03*
X1300790Y0185820D03*
X1256700Y0185820D03*
X1256700Y0182670D03*
X1256700Y0179520D03*
X1256700Y0176380D03*
X1256700Y0173230D03*
X1256700Y0170080D03*
X1256700Y0166930D03*
X1256700Y0163780D03*
X1256700Y0160630D03*
X1256700Y0157480D03*
X1256700Y0154330D03*
X1256700Y0151180D03*
X1256700Y0148030D03*
X1256700Y0144880D03*
X1256700Y0141730D03*
X1256700Y0138580D03*
X1256700Y0135430D03*
X1256700Y0132280D03*
X1256700Y0129130D03*
X1256700Y0125980D03*
X1256700Y0122830D03*
X1256700Y0119680D03*
D57*
X1142400Y0033100D03*
X1142400Y0024100D03*
X1142400Y0015100D03*
D72*
X1117600Y0024000D03*
D94*
X1159880Y0016500D03*
X1170110Y0016500D03*
X1170110Y0034000D03*
X1159880Y0034000D03*
D34*
X1237720Y0035130D03*
X1237720Y0032580D03*
X1237720Y0030020D03*
X1237720Y0027460D03*
X1237720Y0024900D03*
X1237720Y0037690D03*
X1237720Y0040250D03*
X1237720Y0042810D03*
X1237720Y0045370D03*
X1237720Y0047930D03*
X1237720Y0050490D03*
X1237720Y0053050D03*
X1237720Y0055610D03*
X1237720Y0058170D03*
X1267270Y0058170D03*
X1267270Y0055610D03*
X1267270Y0053050D03*
X1267270Y0050490D03*
X1267270Y0047930D03*
X1267270Y0045370D03*
X1267270Y0042810D03*
X1267270Y0040250D03*
X1267270Y0037690D03*
X1267270Y0035130D03*
X1267270Y0032580D03*
X1267270Y0030020D03*
X1267270Y0027460D03*
X1267270Y0024900D03*
D25*
X1279480Y0031500D03*
X1290510Y0031500D03*
D106*
X1286250Y0054740D03*
X1286250Y0065760D03*
X1208750Y0035760D03*
X1208750Y0024740D03*
D103*
X1095000Y0185250D03*
X1095000Y0225250D03*
D22*
X1095000Y0035250D03*
X1205000Y0015250D03*
D98*
X1095000Y0015250D03*
X1095000Y0025250D03*
X1215000Y0015250D03*
X1225000Y0015250D03*
D56*
X1319630Y0192570D03*
X1319630Y0225440D03*
D54*
X1307330Y0217760D02*
X1302590Y0217760D01*
X1302590Y0200240D02*
X1307330Y0200240D01*
D32*
X1308610Y0206440D03*
X1308610Y0209000D03*
X1308610Y0211560D03*
D73*
X1311200Y0213430D02*
X1311200Y0214810D01*
X1311200Y0213430D02*
X1308620Y0213430D01*
X1308620Y0214810D01*
X1311200Y0214810D01*
X1311200Y0214010D02*
X1308620Y0214010D01*
X1308620Y0214590D02*
X1311200Y0214590D01*
X1311200Y0204570D02*
X1311200Y0203190D01*
X1308620Y0203190D01*
X1308620Y0204570D01*
X1311200Y0204570D01*
X1311200Y0203770D02*
X1308620Y0203770D01*
X1308620Y0204350D02*
X1311200Y0204350D01*
D47*
X1319630Y0204480D03*
X1319630Y0213530D03*
D65*
X1307470Y0213730D03*
X1307470Y0204280D03*
D70*
X1110000Y0176000D03*
X1110000Y0172000D03*
D61*
X1248750Y0046500D03*
X1253750Y0046500D03*
X1253750Y0036500D03*
X1248750Y0036500D03*
X1090000Y0250000D02*
G75*
%LPD*%
D79*
X1095000Y0305250D03*
X1095000Y0315250D03*
X1095000Y0325250D03*
X1095000Y0335250D03*
X1095000Y0345250D03*
X1095000Y0435250D03*
X1095000Y0445250D03*
X1095000Y0455250D03*
X1105000Y0465250D03*
X1115000Y0465250D03*
X1125000Y0465250D03*
X1135000Y0465250D03*
X1145000Y0465250D03*
X1155000Y0465250D03*
X1165000Y0465250D03*
X1175000Y0465250D03*
X1185000Y0465250D03*
X1195000Y0465250D03*
X1205000Y0465250D03*
X1215000Y0465250D03*
X1225000Y0465250D03*
X1235000Y0465250D03*
X1245000Y0465250D03*
X1255000Y0465250D03*
X1265000Y0465250D03*
X1275000Y0465250D03*
X1285000Y0465250D03*
X1285000Y0255250D03*
X1295000Y0255250D03*
X1305000Y0255250D03*
X1315000Y0255250D03*
X1275000Y0255250D03*
X1265000Y0255250D03*
X1255000Y0255250D03*
X1245000Y0255250D03*
X1235000Y0255250D03*
D55*
X1276250Y0296910D03*
X1276250Y0303600D03*
X1321250Y0294850D03*
X1321250Y0288160D03*
X1321250Y0315660D03*
X1321250Y0322350D03*
X1246250Y0386910D03*
X1246250Y0393600D03*
X1308750Y0396100D03*
X1308750Y0389410D03*
X1170000Y0341100D03*
X1170000Y0334410D03*
X1151250Y0331910D03*
X1151250Y0338600D03*
X1140000Y0338600D03*
X1132500Y0338600D03*
X1132500Y0331910D03*
X1140000Y0331910D03*
X1122500Y0333600D03*
X1122500Y0326910D03*
X1115000Y0326910D03*
X1115000Y0333600D03*
X1107500Y0333600D03*
X1107500Y0326910D03*
X1105000Y0349410D03*
X1105000Y0356100D03*
X1110000Y0366910D03*
X1110000Y0373600D03*
X1110000Y0394410D03*
X1110000Y0401100D03*
D90*
X1102090Y0416500D03*
X1095400Y0416500D03*
X1119150Y0442750D03*
X1125840Y0442750D03*
X1141650Y0444000D03*
X1148340Y0444000D03*
X1148340Y0451500D03*
X1141650Y0451500D03*
X1166650Y0444000D03*
X1173340Y0444000D03*
X1204150Y0435250D03*
X1210840Y0435250D03*
X1211650Y0426500D03*
X1218340Y0426500D03*
X1218340Y0405250D03*
X1211650Y0405250D03*
X1214150Y0380250D03*
X1220840Y0380250D03*
X1208340Y0349000D03*
X1208340Y0342750D03*
X1201650Y0342750D03*
X1201650Y0349000D03*
X1188340Y0302750D03*
X1181650Y0302750D03*
X1181650Y0290250D03*
X1188340Y0290250D03*
X1221650Y0297750D03*
X1228340Y0297750D03*
X1225840Y0274000D03*
X1219150Y0274000D03*
X1219150Y0264000D03*
X1225840Y0264000D03*
X1280400Y0264000D03*
X1287090Y0264000D03*
X1150840Y0290250D03*
X1144150Y0290250D03*
X1144150Y0302750D03*
X1150840Y0302750D03*
X1276650Y0450250D03*
X1283340Y0450250D03*
X1283340Y0456500D03*
X1276650Y0456500D03*
X1225840Y0456500D03*
X1219150Y0456500D03*
D59*
X1170900Y0302750D03*
X1159090Y0302750D03*
X1159090Y0290250D03*
X1170900Y0290250D03*
D21*
X1135000Y0285250D03*
X1125000Y0285250D03*
X1125000Y0295250D03*
X1135000Y0295250D03*
X1115000Y0295250D03*
X1115000Y0285250D03*
X1105000Y0285250D03*
X1105000Y0295250D03*
X1095000Y0295250D03*
X1095000Y0285250D03*
D19*
X1117800Y0358350D03*
X1117800Y0360250D03*
X1117800Y0362250D03*
X1117800Y0364250D03*
X1117800Y0366150D03*
X1117800Y0368150D03*
X1117800Y0370150D03*
X1117800Y0372050D03*
X1117800Y0374050D03*
X1117800Y0376050D03*
X1117800Y0377950D03*
X1117800Y0379950D03*
X1117800Y0381950D03*
X1117800Y0383850D03*
X1117800Y0385850D03*
X1117800Y0387850D03*
X1117800Y0389750D03*
X1117800Y0391750D03*
X1117800Y0393750D03*
X1117800Y0395750D03*
X1117800Y0397650D03*
X1117800Y0399650D03*
X1117800Y0401650D03*
X1117800Y0403550D03*
X1117800Y0405550D03*
X1117800Y0407550D03*
X1117800Y0409450D03*
X1117800Y0411450D03*
X1117800Y0413450D03*
X1117800Y0415350D03*
X1117800Y0417350D03*
X1117800Y0419350D03*
X1117800Y0421250D03*
X1117800Y0423250D03*
X1117800Y0425250D03*
X1117800Y0427150D03*
X1202200Y0427150D03*
X1202200Y0425250D03*
X1202200Y0423250D03*
X1202200Y0421250D03*
X1202200Y0419350D03*
X1202200Y0417350D03*
X1202200Y0415350D03*
X1202200Y0413450D03*
X1202200Y0411450D03*
X1202200Y0409450D03*
X1202200Y0407550D03*
X1202200Y0405550D03*
X1202200Y0403550D03*
X1202200Y0401650D03*
X1202200Y0399650D03*
X1202200Y0397650D03*
X1202200Y0395750D03*
X1202200Y0393750D03*
X1202200Y0391750D03*
X1202200Y0389750D03*
X1202200Y0387850D03*
X1202200Y0385850D03*
X1202200Y0383850D03*
X1202200Y0381950D03*
X1202200Y0379950D03*
X1202200Y0377950D03*
X1202200Y0376050D03*
X1202200Y0374050D03*
X1202200Y0372050D03*
X1202200Y0370150D03*
X1202200Y0368150D03*
X1202200Y0366150D03*
X1202200Y0364250D03*
X1202200Y0362250D03*
X1202200Y0360250D03*
X1202200Y0358350D03*
D52*
X1194400Y0350550D03*
X1192500Y0350550D03*
X1190500Y0350550D03*
X1188500Y0350550D03*
X1186600Y0350550D03*
X1184600Y0350550D03*
X1182600Y0350550D03*
X1180700Y0350550D03*
X1178700Y0350550D03*
X1176700Y0350550D03*
X1174800Y0350550D03*
X1172800Y0350550D03*
X1170800Y0350550D03*
X1168900Y0350550D03*
X1166900Y0350550D03*
X1164900Y0350550D03*
X1163000Y0350550D03*
X1161000Y0350550D03*
X1159000Y0350550D03*
X1157000Y0350550D03*
X1155100Y0350550D03*
X1153100Y0350550D03*
X1151100Y0350550D03*
X1149200Y0350550D03*
X1147200Y0350550D03*
X1145200Y0350550D03*
X1143300Y0350550D03*
X1141300Y0350550D03*
X1139300Y0350550D03*
X1137400Y0350550D03*
X1135400Y0350550D03*
X1133400Y0350550D03*
X1131500Y0350550D03*
X1129500Y0350550D03*
X1127500Y0350550D03*
X1125600Y0350550D03*
X1125600Y0434950D03*
X1127500Y0434950D03*
X1129500Y0434950D03*
X1131500Y0434950D03*
X1133400Y0434950D03*
X1135400Y0434950D03*
X1137400Y0434950D03*
X1139300Y0434950D03*
X1141300Y0434950D03*
X1143300Y0434950D03*
X1145200Y0434950D03*
X1147200Y0434950D03*
X1149200Y0434950D03*
X1151100Y0434950D03*
X1153100Y0434950D03*
X1155100Y0434950D03*
X1157000Y0434950D03*
X1159000Y0434950D03*
X1161000Y0434950D03*
X1163000Y0434950D03*
X1164900Y0434950D03*
X1166900Y0434950D03*
X1168900Y0434950D03*
X1170800Y0434950D03*
X1172800Y0434950D03*
X1174800Y0434950D03*
X1176700Y0434950D03*
X1178700Y0434950D03*
X1180700Y0434950D03*
X1182600Y0434950D03*
X1184600Y0434950D03*
X1186600Y0434950D03*
X1188500Y0434950D03*
X1190500Y0434950D03*
X1192500Y0434950D03*
X1194400Y0434950D03*
D18*
X1097500Y0401750D03*
X1097500Y0363750D03*
X1308750Y0324250D03*
X1308750Y0286250D03*
D15*
X1300790Y0359680D03*
X1300790Y0362830D03*
X1300790Y0365980D03*
X1300790Y0369130D03*
X1300790Y0372280D03*
X1300790Y0375430D03*
X1300790Y0378580D03*
X1300790Y0381730D03*
X1300790Y0384880D03*
X1300790Y0388030D03*
X1300790Y0391180D03*
X1300790Y0394330D03*
X1300790Y0397480D03*
X1300790Y0400630D03*
X1300790Y0403780D03*
X1300790Y0406930D03*
X1300790Y0410080D03*
X1300790Y0413230D03*
X1300790Y0416380D03*
X1300790Y0419520D03*
X1300790Y0422670D03*
X1300790Y0425820D03*
X1256700Y0425820D03*
X1256700Y0422670D03*
X1256700Y0419520D03*
X1256700Y0416380D03*
X1256700Y0413230D03*
X1256700Y0410080D03*
X1256700Y0406930D03*
X1256700Y0403780D03*
X1256700Y0400630D03*
X1256700Y0397480D03*
X1256700Y0394330D03*
X1256700Y0391180D03*
X1256700Y0388030D03*
X1256700Y0384880D03*
X1256700Y0381730D03*
X1256700Y0378580D03*
X1256700Y0375430D03*
X1256700Y0372280D03*
X1256700Y0369130D03*
X1256700Y0365980D03*
X1256700Y0362830D03*
X1256700Y0359680D03*
D57*
X1142400Y0273100D03*
X1142400Y0264100D03*
X1142400Y0255100D03*
D72*
X1117600Y0264000D03*
D94*
X1159880Y0256500D03*
X1170110Y0256500D03*
X1170110Y0274000D03*
X1159880Y0274000D03*
D34*
X1237720Y0275130D03*
X1237720Y0272580D03*
X1237720Y0270020D03*
X1237720Y0267460D03*
X1237720Y0264900D03*
X1237720Y0277690D03*
X1237720Y0280250D03*
X1237720Y0282810D03*
X1237720Y0285370D03*
X1237720Y0287930D03*
X1237720Y0290490D03*
X1237720Y0293050D03*
X1237720Y0295610D03*
X1237720Y0298170D03*
X1267270Y0298170D03*
X1267270Y0295610D03*
X1267270Y0293050D03*
X1267270Y0290490D03*
X1267270Y0287930D03*
X1267270Y0285370D03*
X1267270Y0282810D03*
X1267270Y0280250D03*
X1267270Y0277690D03*
X1267270Y0275130D03*
X1267270Y0272580D03*
X1267270Y0270020D03*
X1267270Y0267460D03*
X1267270Y0264900D03*
D25*
X1279480Y0271500D03*
X1290510Y0271500D03*
D106*
X1286250Y0294740D03*
X1286250Y0305760D03*
X1208750Y0275760D03*
X1208750Y0264740D03*
D103*
X1095000Y0425250D03*
X1095000Y0465250D03*
D22*
X1095000Y0275250D03*
X1205000Y0255250D03*
D98*
X1095000Y0255250D03*
X1095000Y0265250D03*
X1215000Y0255250D03*
X1225000Y0255250D03*
D56*
X1319630Y0432570D03*
X1319630Y0465440D03*
D54*
X1307330Y0457760D02*
X1302590Y0457760D01*
X1302590Y0440240D02*
X1307330Y0440240D01*
D32*
X1308610Y0446440D03*
X1308610Y0449000D03*
X1308610Y0451560D03*
D73*
X1311200Y0453430D02*
X1311200Y0454810D01*
X1311200Y0453430D02*
X1308620Y0453430D01*
X1308620Y0454810D01*
X1311200Y0454810D01*
X1311200Y0454010D02*
X1308620Y0454010D01*
X1308620Y0454590D02*
X1311200Y0454590D01*
X1311200Y0444570D02*
X1311200Y0443190D01*
X1308620Y0443190D01*
X1308620Y0444570D01*
X1311200Y0444570D01*
X1311200Y0443770D02*
X1308620Y0443770D01*
X1308620Y0444350D02*
X1311200Y0444350D01*
D47*
X1319630Y0444480D03*
X1319630Y0453530D03*
D65*
X1307470Y0453730D03*
X1307470Y0444280D03*
D70*
X1110000Y0416000D03*
X1110000Y0412000D03*
D61*
X1248750Y0286500D03*
X1253750Y0286500D03*
X1253750Y0276500D03*
X1248750Y0276500D03*
X1090000Y0490000D02*
G75*
%LPD*%
D79*
X1095000Y0545250D03*
X1095000Y0555250D03*
X1095000Y0565250D03*
X1095000Y0575250D03*
X1095000Y0585250D03*
X1095000Y0675250D03*
X1095000Y0685250D03*
X1095000Y0695250D03*
X1105000Y0705250D03*
X1115000Y0705250D03*
X1125000Y0705250D03*
X1135000Y0705250D03*
X1145000Y0705250D03*
X1155000Y0705250D03*
X1165000Y0705250D03*
X1175000Y0705250D03*
X1185000Y0705250D03*
X1195000Y0705250D03*
X1205000Y0705250D03*
X1215000Y0705250D03*
X1225000Y0705250D03*
X1235000Y0705250D03*
X1245000Y0705250D03*
X1255000Y0705250D03*
X1265000Y0705250D03*
X1275000Y0705250D03*
X1285000Y0705250D03*
X1285000Y0495250D03*
X1295000Y0495250D03*
X1305000Y0495250D03*
X1315000Y0495250D03*
X1275000Y0495250D03*
X1265000Y0495250D03*
X1255000Y0495250D03*
X1245000Y0495250D03*
X1235000Y0495250D03*
D55*
X1276250Y0536910D03*
X1276250Y0543600D03*
X1321250Y0534850D03*
X1321250Y0528160D03*
X1321250Y0555660D03*
X1321250Y0562350D03*
X1246250Y0626910D03*
X1246250Y0633600D03*
X1308750Y0636100D03*
X1308750Y0629410D03*
X1170000Y0581100D03*
X1170000Y0574410D03*
X1151250Y0571910D03*
X1151250Y0578600D03*
X1140000Y0578600D03*
X1132500Y0578600D03*
X1132500Y0571910D03*
X1140000Y0571910D03*
X1122500Y0573600D03*
X1122500Y0566910D03*
X1115000Y0566910D03*
X1115000Y0573600D03*
X1107500Y0573600D03*
X1107500Y0566910D03*
X1105000Y0589410D03*
X1105000Y0596100D03*
X1110000Y0606910D03*
X1110000Y0613600D03*
X1110000Y0634410D03*
X1110000Y0641100D03*
D90*
X1102090Y0656500D03*
X1095400Y0656500D03*
X1119150Y0682750D03*
X1125840Y0682750D03*
X1141650Y0684000D03*
X1148340Y0684000D03*
X1148340Y0691500D03*
X1141650Y0691500D03*
X1166650Y0684000D03*
X1173340Y0684000D03*
X1204150Y0675250D03*
X1210840Y0675250D03*
X1211650Y0666500D03*
X1218340Y0666500D03*
X1218340Y0645250D03*
X1211650Y0645250D03*
X1214150Y0620250D03*
X1220840Y0620250D03*
X1208340Y0589000D03*
X1208340Y0582750D03*
X1201650Y0582750D03*
X1201650Y0589000D03*
X1188340Y0542750D03*
X1181650Y0542750D03*
X1181650Y0530250D03*
X1188340Y0530250D03*
X1221650Y0537750D03*
X1228340Y0537750D03*
X1225840Y0514000D03*
X1219150Y0514000D03*
X1219150Y0504000D03*
X1225840Y0504000D03*
X1280400Y0504000D03*
X1287090Y0504000D03*
X1150840Y0530250D03*
X1144150Y0530250D03*
X1144150Y0542750D03*
X1150840Y0542750D03*
X1276650Y0690250D03*
X1283340Y0690250D03*
X1283340Y0696500D03*
X1276650Y0696500D03*
X1225840Y0696500D03*
X1219150Y0696500D03*
D59*
X1170900Y0542750D03*
X1159090Y0542750D03*
X1159090Y0530250D03*
X1170900Y0530250D03*
D21*
X1135000Y0525250D03*
X1125000Y0525250D03*
X1125000Y0535250D03*
X1135000Y0535250D03*
X1115000Y0535250D03*
X1115000Y0525250D03*
X1105000Y0525250D03*
X1105000Y0535250D03*
X1095000Y0535250D03*
X1095000Y0525250D03*
D19*
X1117800Y0598350D03*
X1117800Y0600250D03*
X1117800Y0602250D03*
X1117800Y0604250D03*
X1117800Y0606150D03*
X1117800Y0608150D03*
X1117800Y0610150D03*
X1117800Y0612050D03*
X1117800Y0614050D03*
X1117800Y0616050D03*
X1117800Y0617950D03*
X1117800Y0619950D03*
X1117800Y0621950D03*
X1117800Y0623850D03*
X1117800Y0625850D03*
X1117800Y0627850D03*
X1117800Y0629750D03*
X1117800Y0631750D03*
X1117800Y0633750D03*
X1117800Y0635750D03*
X1117800Y0637650D03*
X1117800Y0639650D03*
X1117800Y0641650D03*
X1117800Y0643550D03*
X1117800Y0645550D03*
X1117800Y0647550D03*
X1117800Y0649450D03*
X1117800Y0651450D03*
X1117800Y0653450D03*
X1117800Y0655350D03*
X1117800Y0657350D03*
X1117800Y0659350D03*
X1117800Y0661250D03*
X1117800Y0663250D03*
X1117800Y0665250D03*
X1117800Y0667150D03*
X1202200Y0667150D03*
X1202200Y0665250D03*
X1202200Y0663250D03*
X1202200Y0661250D03*
X1202200Y0659350D03*
X1202200Y0657350D03*
X1202200Y0655350D03*
X1202200Y0653450D03*
X1202200Y0651450D03*
X1202200Y0649450D03*
X1202200Y0647550D03*
X1202200Y0645550D03*
X1202200Y0643550D03*
X1202200Y0641650D03*
X1202200Y0639650D03*
X1202200Y0637650D03*
X1202200Y0635750D03*
X1202200Y0633750D03*
X1202200Y0631750D03*
X1202200Y0629750D03*
X1202200Y0627850D03*
X1202200Y0625850D03*
X1202200Y0623850D03*
X1202200Y0621950D03*
X1202200Y0619950D03*
X1202200Y0617950D03*
X1202200Y0616050D03*
X1202200Y0614050D03*
X1202200Y0612050D03*
X1202200Y0610150D03*
X1202200Y0608150D03*
X1202200Y0606150D03*
X1202200Y0604250D03*
X1202200Y0602250D03*
X1202200Y0600250D03*
X1202200Y0598350D03*
D52*
X1194400Y0590550D03*
X1192500Y0590550D03*
X1190500Y0590550D03*
X1188500Y0590550D03*
X1186600Y0590550D03*
X1184600Y0590550D03*
X1182600Y0590550D03*
X1180700Y0590550D03*
X1178700Y0590550D03*
X1176700Y0590550D03*
X1174800Y0590550D03*
X1172800Y0590550D03*
X1170800Y0590550D03*
X1168900Y0590550D03*
X1166900Y0590550D03*
X1164900Y0590550D03*
X1163000Y0590550D03*
X1161000Y0590550D03*
X1159000Y0590550D03*
X1157000Y0590550D03*
X1155100Y0590550D03*
X1153100Y0590550D03*
X1151100Y0590550D03*
X1149200Y0590550D03*
X1147200Y0590550D03*
X1145200Y0590550D03*
X1143300Y0590550D03*
X1141300Y0590550D03*
X1139300Y0590550D03*
X1137400Y0590550D03*
X1135400Y0590550D03*
X1133400Y0590550D03*
X1131500Y0590550D03*
X1129500Y0590550D03*
X1127500Y0590550D03*
X1125600Y0590550D03*
X1125600Y0674950D03*
X1127500Y0674950D03*
X1129500Y0674950D03*
X1131500Y0674950D03*
X1133400Y0674950D03*
X1135400Y0674950D03*
X1137400Y0674950D03*
X1139300Y0674950D03*
X1141300Y0674950D03*
X1143300Y0674950D03*
X1145200Y0674950D03*
X1147200Y0674950D03*
X1149200Y0674950D03*
X1151100Y0674950D03*
X1153100Y0674950D03*
X1155100Y0674950D03*
X1157000Y0674950D03*
X1159000Y0674950D03*
X1161000Y0674950D03*
X1163000Y0674950D03*
X1164900Y0674950D03*
X1166900Y0674950D03*
X1168900Y0674950D03*
X1170800Y0674950D03*
X1172800Y0674950D03*
X1174800Y0674950D03*
X1176700Y0674950D03*
X1178700Y0674950D03*
X1180700Y0674950D03*
X1182600Y0674950D03*
X1184600Y0674950D03*
X1186600Y0674950D03*
X1188500Y0674950D03*
X1190500Y0674950D03*
X1192500Y0674950D03*
X1194400Y0674950D03*
D18*
X1097500Y0641750D03*
X1097500Y0603750D03*
X1308750Y0564250D03*
X1308750Y0526250D03*
D15*
X1300790Y0599680D03*
X1300790Y0602830D03*
X1300790Y0605980D03*
X1300790Y0609130D03*
X1300790Y0612280D03*
X1300790Y0615430D03*
X1300790Y0618580D03*
X1300790Y0621730D03*
X1300790Y0624880D03*
X1300790Y0628030D03*
X1300790Y0631180D03*
X1300790Y0634330D03*
X1300790Y0637480D03*
X1300790Y0640630D03*
X1300790Y0643780D03*
X1300790Y0646930D03*
X1300790Y0650080D03*
X1300790Y0653230D03*
X1300790Y0656380D03*
X1300790Y0659520D03*
X1300790Y0662670D03*
X1300790Y0665820D03*
X1256700Y0665820D03*
X1256700Y0662670D03*
X1256700Y0659520D03*
X1256700Y0656380D03*
X1256700Y0653230D03*
X1256700Y0650080D03*
X1256700Y0646930D03*
X1256700Y0643780D03*
X1256700Y0640630D03*
X1256700Y0637480D03*
X1256700Y0634330D03*
X1256700Y0631180D03*
X1256700Y0628030D03*
X1256700Y0624880D03*
X1256700Y0621730D03*
X1256700Y0618580D03*
X1256700Y0615430D03*
X1256700Y0612280D03*
X1256700Y0609130D03*
X1256700Y0605980D03*
X1256700Y0602830D03*
X1256700Y0599680D03*
D57*
X1142400Y0513100D03*
X1142400Y0504100D03*
X1142400Y0495100D03*
D72*
X1117600Y0504000D03*
D94*
X1159880Y0496500D03*
X1170110Y0496500D03*
X1170110Y0514000D03*
X1159880Y0514000D03*
D34*
X1237720Y0515130D03*
X1237720Y0512580D03*
X1237720Y0510020D03*
X1237720Y0507460D03*
X1237720Y0504900D03*
X1237720Y0517690D03*
X1237720Y0520250D03*
X1237720Y0522810D03*
X1237720Y0525370D03*
X1237720Y0527930D03*
X1237720Y0530490D03*
X1237720Y0533050D03*
X1237720Y0535610D03*
X1237720Y0538170D03*
X1267270Y0538170D03*
X1267270Y0535610D03*
X1267270Y0533050D03*
X1267270Y0530490D03*
X1267270Y0527930D03*
X1267270Y0525370D03*
X1267270Y0522810D03*
X1267270Y0520250D03*
X1267270Y0517690D03*
X1267270Y0515130D03*
X1267270Y0512580D03*
X1267270Y0510020D03*
X1267270Y0507460D03*
X1267270Y0504900D03*
D25*
X1279480Y0511500D03*
X1290510Y0511500D03*
D106*
X1286250Y0534740D03*
X1286250Y0545760D03*
X1208750Y0515760D03*
X1208750Y0504740D03*
D103*
X1095000Y0665250D03*
X1095000Y0705250D03*
D22*
X1095000Y0515250D03*
X1205000Y0495250D03*
D98*
X1095000Y0495250D03*
X1095000Y0505250D03*
X1215000Y0495250D03*
X1225000Y0495250D03*
D56*
X1319630Y0672570D03*
X1319630Y0705440D03*
D54*
X1307330Y0697760D02*
X1302590Y0697760D01*
X1302590Y0680240D02*
X1307330Y0680240D01*
D32*
X1308610Y0686440D03*
X1308610Y0689000D03*
X1308610Y0691560D03*
D73*
X1311200Y0693430D02*
X1311200Y0694810D01*
X1311200Y0693430D02*
X1308620Y0693430D01*
X1308620Y0694810D01*
X1311200Y0694810D01*
X1311200Y0694010D02*
X1308620Y0694010D01*
X1308620Y0694590D02*
X1311200Y0694590D01*
X1311200Y0684570D02*
X1311200Y0683190D01*
X1308620Y0683190D01*
X1308620Y0684570D01*
X1311200Y0684570D01*
X1311200Y0683770D02*
X1308620Y0683770D01*
X1308620Y0684350D02*
X1311200Y0684350D01*
D47*
X1319630Y0684480D03*
X1319630Y0693530D03*
D65*
X1307470Y0693730D03*
X1307470Y0684280D03*
D70*
X1110000Y0656000D03*
X1110000Y0652000D03*
D61*
X1248750Y0526500D03*
X1253750Y0526500D03*
X1253750Y0516500D03*
X1248750Y0516500D03*
X1090000Y0730000D02*
G75*
%LPD*%
D79*
X1095000Y0785250D03*
X1095000Y0795250D03*
X1095000Y0805250D03*
X1095000Y0815250D03*
X1095000Y0825250D03*
X1095000Y0915250D03*
X1095000Y0925250D03*
X1095000Y0935250D03*
X1105000Y0945250D03*
X1115000Y0945250D03*
X1125000Y0945250D03*
X1135000Y0945250D03*
X1145000Y0945250D03*
X1155000Y0945250D03*
X1165000Y0945250D03*
X1175000Y0945250D03*
X1185000Y0945250D03*
X1195000Y0945250D03*
X1205000Y0945250D03*
X1215000Y0945250D03*
X1225000Y0945250D03*
X1235000Y0945250D03*
X1245000Y0945250D03*
X1255000Y0945250D03*
X1265000Y0945250D03*
X1275000Y0945250D03*
X1285000Y0945250D03*
X1285000Y0735250D03*
X1295000Y0735250D03*
X1305000Y0735250D03*
X1315000Y0735250D03*
X1275000Y0735250D03*
X1265000Y0735250D03*
X1255000Y0735250D03*
X1245000Y0735250D03*
X1235000Y0735250D03*
D55*
X1276250Y0776910D03*
X1276250Y0783600D03*
X1321250Y0774850D03*
X1321250Y0768160D03*
X1321250Y0795660D03*
X1321250Y0802350D03*
X1246250Y0866910D03*
X1246250Y0873600D03*
X1308750Y0876100D03*
X1308750Y0869410D03*
X1170000Y0821100D03*
X1170000Y0814410D03*
X1151250Y0811910D03*
X1151250Y0818600D03*
X1140000Y0818600D03*
X1132500Y0818600D03*
X1132500Y0811910D03*
X1140000Y0811910D03*
X1122500Y0813600D03*
X1122500Y0806910D03*
X1115000Y0806910D03*
X1115000Y0813600D03*
X1107500Y0813600D03*
X1107500Y0806910D03*
X1105000Y0829410D03*
X1105000Y0836100D03*
X1110000Y0846910D03*
X1110000Y0853600D03*
X1110000Y0874410D03*
X1110000Y0881100D03*
D90*
X1102090Y0896500D03*
X1095400Y0896500D03*
X1119150Y0922750D03*
X1125840Y0922750D03*
X1141650Y0924000D03*
X1148340Y0924000D03*
X1148340Y0931500D03*
X1141650Y0931500D03*
X1166650Y0924000D03*
X1173340Y0924000D03*
X1204150Y0915250D03*
X1210840Y0915250D03*
X1211650Y0906500D03*
X1218340Y0906500D03*
X1218340Y0885250D03*
X1211650Y0885250D03*
X1214150Y0860250D03*
X1220840Y0860250D03*
X1208340Y0829000D03*
X1208340Y0822750D03*
X1201650Y0822750D03*
X1201650Y0829000D03*
X1188340Y0782750D03*
X1181650Y0782750D03*
X1181650Y0770250D03*
X1188340Y0770250D03*
X1221650Y0777750D03*
X1228340Y0777750D03*
X1225840Y0754000D03*
X1219150Y0754000D03*
X1219150Y0744000D03*
X1225840Y0744000D03*
X1280400Y0744000D03*
X1287090Y0744000D03*
X1150840Y0770250D03*
X1144150Y0770250D03*
X1144150Y0782750D03*
X1150840Y0782750D03*
X1276650Y0930250D03*
X1283340Y0930250D03*
X1283340Y0936500D03*
X1276650Y0936500D03*
X1225840Y0936500D03*
X1219150Y0936500D03*
D59*
X1170900Y0782750D03*
X1159090Y0782750D03*
X1159090Y0770250D03*
X1170900Y0770250D03*
D21*
X1135000Y0765250D03*
X1125000Y0765250D03*
X1125000Y0775250D03*
X1135000Y0775250D03*
X1115000Y0775250D03*
X1115000Y0765250D03*
X1105000Y0765250D03*
X1105000Y0775250D03*
X1095000Y0775250D03*
X1095000Y0765250D03*
D19*
X1117800Y0838350D03*
X1117800Y0840250D03*
X1117800Y0842250D03*
X1117800Y0844250D03*
X1117800Y0846150D03*
X1117800Y0848150D03*
X1117800Y0850150D03*
X1117800Y0852050D03*
X1117800Y0854050D03*
X1117800Y0856050D03*
X1117800Y0857950D03*
X1117800Y0859950D03*
X1117800Y0861950D03*
X1117800Y0863850D03*
X1117800Y0865850D03*
X1117800Y0867850D03*
X1117800Y0869750D03*
X1117800Y0871750D03*
X1117800Y0873750D03*
X1117800Y0875750D03*
X1117800Y0877650D03*
X1117800Y0879650D03*
X1117800Y0881650D03*
X1117800Y0883550D03*
X1117800Y0885550D03*
X1117800Y0887550D03*
X1117800Y0889450D03*
X1117800Y0891450D03*
X1117800Y0893450D03*
X1117800Y0895350D03*
X1117800Y0897350D03*
X1117800Y0899350D03*
X1117800Y0901250D03*
X1117800Y0903250D03*
X1117800Y0905250D03*
X1117800Y0907150D03*
X1202200Y0907150D03*
X1202200Y0905250D03*
X1202200Y0903250D03*
X1202200Y0901250D03*
X1202200Y0899350D03*
X1202200Y0897350D03*
X1202200Y0895350D03*
X1202200Y0893450D03*
X1202200Y0891450D03*
X1202200Y0889450D03*
X1202200Y0887550D03*
X1202200Y0885550D03*
X1202200Y0883550D03*
X1202200Y0881650D03*
X1202200Y0879650D03*
X1202200Y0877650D03*
X1202200Y0875750D03*
X1202200Y0873750D03*
X1202200Y0871750D03*
X1202200Y0869750D03*
X1202200Y0867850D03*
X1202200Y0865850D03*
X1202200Y0863850D03*
X1202200Y0861950D03*
X1202200Y0859950D03*
X1202200Y0857950D03*
X1202200Y0856050D03*
X1202200Y0854050D03*
X1202200Y0852050D03*
X1202200Y0850150D03*
X1202200Y0848150D03*
X1202200Y0846150D03*
X1202200Y0844250D03*
X1202200Y0842250D03*
X1202200Y0840250D03*
X1202200Y0838350D03*
D52*
X1194400Y0830550D03*
X1192500Y0830550D03*
X1190500Y0830550D03*
X1188500Y0830550D03*
X1186600Y0830550D03*
X1184600Y0830550D03*
X1182600Y0830550D03*
X1180700Y0830550D03*
X1178700Y0830550D03*
X1176700Y0830550D03*
X1174800Y0830550D03*
X1172800Y0830550D03*
X1170800Y0830550D03*
X1168900Y0830550D03*
X1166900Y0830550D03*
X1164900Y0830550D03*
X1163000Y0830550D03*
X1161000Y0830550D03*
X1159000Y0830550D03*
X1157000Y0830550D03*
X1155100Y0830550D03*
X1153100Y0830550D03*
X1151100Y0830550D03*
X1149200Y0830550D03*
X1147200Y0830550D03*
X1145200Y0830550D03*
X1143300Y0830550D03*
X1141300Y0830550D03*
X1139300Y0830550D03*
X1137400Y0830550D03*
X1135400Y0830550D03*
X1133400Y0830550D03*
X1131500Y0830550D03*
X1129500Y0830550D03*
X1127500Y0830550D03*
X1125600Y0830550D03*
X1125600Y0914950D03*
X1127500Y0914950D03*
X1129500Y0914950D03*
X1131500Y0914950D03*
X1133400Y0914950D03*
X1135400Y0914950D03*
X1137400Y0914950D03*
X1139300Y0914950D03*
X1141300Y0914950D03*
X1143300Y0914950D03*
X1145200Y0914950D03*
X1147200Y0914950D03*
X1149200Y0914950D03*
X1151100Y0914950D03*
X1153100Y0914950D03*
X1155100Y0914950D03*
X1157000Y0914950D03*
X1159000Y0914950D03*
X1161000Y0914950D03*
X1163000Y0914950D03*
X1164900Y0914950D03*
X1166900Y0914950D03*
X1168900Y0914950D03*
X1170800Y0914950D03*
X1172800Y0914950D03*
X1174800Y0914950D03*
X1176700Y0914950D03*
X1178700Y0914950D03*
X1180700Y0914950D03*
X1182600Y0914950D03*
X1184600Y0914950D03*
X1186600Y0914950D03*
X1188500Y0914950D03*
X1190500Y0914950D03*
X1192500Y0914950D03*
X1194400Y0914950D03*
D18*
X1097500Y0881750D03*
X1097500Y0843750D03*
X1308750Y0804250D03*
X1308750Y0766250D03*
D15*
X1300790Y0839680D03*
X1300790Y0842830D03*
X1300790Y0845980D03*
X1300790Y0849130D03*
X1300790Y0852280D03*
X1300790Y0855430D03*
X1300790Y0858580D03*
X1300790Y0861730D03*
X1300790Y0864880D03*
X1300790Y0868030D03*
X1300790Y0871180D03*
X1300790Y0874330D03*
X1300790Y0877480D03*
X1300790Y0880630D03*
X1300790Y0883780D03*
X1300790Y0886930D03*
X1300790Y0890080D03*
X1300790Y0893230D03*
X1300790Y0896380D03*
X1300790Y0899520D03*
X1300790Y0902670D03*
X1300790Y0905820D03*
X1256700Y0905820D03*
X1256700Y0902670D03*
X1256700Y0899520D03*
X1256700Y0896380D03*
X1256700Y0893230D03*
X1256700Y0890080D03*
X1256700Y0886930D03*
X1256700Y0883780D03*
X1256700Y0880630D03*
X1256700Y0877480D03*
X1256700Y0874330D03*
X1256700Y0871180D03*
X1256700Y0868030D03*
X1256700Y0864880D03*
X1256700Y0861730D03*
X1256700Y0858580D03*
X1256700Y0855430D03*
X1256700Y0852280D03*
X1256700Y0849130D03*
X1256700Y0845980D03*
X1256700Y0842830D03*
X1256700Y0839680D03*
D57*
X1142400Y0753100D03*
X1142400Y0744100D03*
X1142400Y0735100D03*
D72*
X1117600Y0744000D03*
D94*
X1159880Y0736500D03*
X1170110Y0736500D03*
X1170110Y0754000D03*
X1159880Y0754000D03*
D34*
X1237720Y0755130D03*
X1237720Y0752580D03*
X1237720Y0750020D03*
X1237720Y0747460D03*
X1237720Y0744900D03*
X1237720Y0757690D03*
X1237720Y0760250D03*
X1237720Y0762810D03*
X1237720Y0765370D03*
X1237720Y0767930D03*
X1237720Y0770490D03*
X1237720Y0773050D03*
X1237720Y0775610D03*
X1237720Y0778170D03*
X1267270Y0778170D03*
X1267270Y0775610D03*
X1267270Y0773050D03*
X1267270Y0770490D03*
X1267270Y0767930D03*
X1267270Y0765370D03*
X1267270Y0762810D03*
X1267270Y0760250D03*
X1267270Y0757690D03*
X1267270Y0755130D03*
X1267270Y0752580D03*
X1267270Y0750020D03*
X1267270Y0747460D03*
X1267270Y0744900D03*
D25*
X1279480Y0751500D03*
X1290510Y0751500D03*
D106*
X1286250Y0774740D03*
X1286250Y0785760D03*
X1208750Y0755760D03*
X1208750Y0744740D03*
D103*
X1095000Y0905250D03*
X1095000Y0945250D03*
D22*
X1095000Y0755250D03*
X1205000Y0735250D03*
D98*
X1095000Y0735250D03*
X1095000Y0745250D03*
X1215000Y0735250D03*
X1225000Y0735250D03*
D56*
X1319630Y0912570D03*
X1319630Y0945440D03*
D54*
X1307330Y0937760D02*
X1302590Y0937760D01*
X1302590Y0920240D02*
X1307330Y0920240D01*
D32*
X1308610Y0926440D03*
X1308610Y0929000D03*
X1308610Y0931560D03*
D73*
X1311200Y0933430D02*
X1311200Y0934810D01*
X1311200Y0933430D02*
X1308620Y0933430D01*
X1308620Y0934810D01*
X1311200Y0934810D01*
X1311200Y0934010D02*
X1308620Y0934010D01*
X1308620Y0934590D02*
X1311200Y0934590D01*
X1311200Y0924570D02*
X1311200Y0923190D01*
X1308620Y0923190D01*
X1308620Y0924570D01*
X1311200Y0924570D01*
X1311200Y0923770D02*
X1308620Y0923770D01*
X1308620Y0924350D02*
X1311200Y0924350D01*
D47*
X1319630Y0924480D03*
X1319630Y0933530D03*
D65*
X1307470Y0933730D03*
X1307470Y0924280D03*
D70*
X1110000Y0896000D03*
X1110000Y0892000D03*
D61*
X1248750Y0766500D03*
X1253750Y0766500D03*
X1253750Y0756500D03*
X1248750Y0756500D03*
X1335000Y0010000D02*
G75*
%LPD*%
D83*
X1348990Y0036890D03*
X1348990Y0055000D03*
X1369660Y0055000D03*
X1390330Y0055000D03*
X1390330Y0036890D03*
X1369660Y0036890D03*
X1411000Y0036890D03*
X1411000Y0055000D03*
X1411000Y0073110D03*
X1390330Y0073110D03*
X1369660Y0073110D03*
X1348990Y0073110D03*
D79*
X1340000Y0015000D03*
X1350000Y0015000D03*
X1360000Y0015000D03*
X1370000Y0015000D03*
X1380000Y0015000D03*
X1390000Y0015000D03*
X1400000Y0015000D03*
X1410000Y0015000D03*
X1420000Y0015000D03*
X1335000Y0091000D02*
G75*
%LPD*%
D83*
X1348990Y0117890D03*
X1348990Y0136000D03*
X1369660Y0136000D03*
X1390330Y0136000D03*
X1390330Y0117890D03*
X1369660Y0117890D03*
X1411000Y0117890D03*
X1411000Y0136000D03*
X1411000Y0154110D03*
X1390330Y0154110D03*
X1369660Y0154110D03*
X1348990Y0154110D03*
D79*
X1340000Y0096000D03*
X1350000Y0096000D03*
X1360000Y0096000D03*
X1370000Y0096000D03*
X1380000Y0096000D03*
X1390000Y0096000D03*
X1400000Y0096000D03*
X1410000Y0096000D03*
X1420000Y0096000D03*
X1335000Y0172000D02*
G75*
%LPD*%
D83*
X1348990Y0198890D03*
X1348990Y0217000D03*
X1369660Y0217000D03*
X1390330Y0217000D03*
X1390330Y0198890D03*
X1369660Y0198890D03*
X1411000Y0198890D03*
X1411000Y0217000D03*
X1411000Y0235110D03*
X1390330Y0235110D03*
X1369660Y0235110D03*
X1348990Y0235110D03*
D79*
X1340000Y0177000D03*
X1350000Y0177000D03*
X1360000Y0177000D03*
X1370000Y0177000D03*
X1380000Y0177000D03*
X1390000Y0177000D03*
X1400000Y0177000D03*
X1410000Y0177000D03*
X1420000Y0177000D03*
X1335000Y0253000D02*
G75*
%LPD*%
D83*
X1348990Y0279890D03*
X1348990Y0298000D03*
X1369660Y0298000D03*
X1390330Y0298000D03*
X1390330Y0279890D03*
X1369660Y0279890D03*
X1411000Y0279890D03*
X1411000Y0298000D03*
X1411000Y0316110D03*
X1390330Y0316110D03*
X1369660Y0316110D03*
X1348990Y0316110D03*
D79*
X1340000Y0258000D03*
X1350000Y0258000D03*
X1360000Y0258000D03*
X1370000Y0258000D03*
X1380000Y0258000D03*
X1390000Y0258000D03*
X1400000Y0258000D03*
X1410000Y0258000D03*
X1420000Y0258000D03*
X1335000Y0334000D02*
G75*
%LPD*%
D83*
X1348990Y0360890D03*
X1348990Y0379000D03*
X1369660Y0379000D03*
X1390330Y0379000D03*
X1390330Y0360890D03*
X1369660Y0360890D03*
X1411000Y0360890D03*
X1411000Y0379000D03*
X1411000Y0397110D03*
X1390330Y0397110D03*
X1369660Y0397110D03*
X1348990Y0397110D03*
D79*
X1340000Y0339000D03*
X1350000Y0339000D03*
X1360000Y0339000D03*
X1370000Y0339000D03*
X1380000Y0339000D03*
X1390000Y0339000D03*
X1400000Y0339000D03*
X1410000Y0339000D03*
X1420000Y0339000D03*
X1335000Y0415000D02*
G75*
%LPD*%
D83*
X1348990Y0441890D03*
X1348990Y0460000D03*
X1369660Y0460000D03*
X1390330Y0460000D03*
X1390330Y0441890D03*
X1369660Y0441890D03*
X1411000Y0441890D03*
X1411000Y0460000D03*
X1411000Y0478110D03*
X1390330Y0478110D03*
X1369660Y0478110D03*
X1348990Y0478110D03*
D79*
X1340000Y0420000D03*
X1350000Y0420000D03*
X1360000Y0420000D03*
X1370000Y0420000D03*
X1380000Y0420000D03*
X1390000Y0420000D03*
X1400000Y0420000D03*
X1410000Y0420000D03*
X1420000Y0420000D03*
X1335000Y0496000D02*
G75*
%LPD*%
D83*
X1348990Y0522890D03*
X1348990Y0541000D03*
X1369660Y0541000D03*
X1390330Y0541000D03*
X1390330Y0522890D03*
X1369660Y0522890D03*
X1411000Y0522890D03*
X1411000Y0541000D03*
X1411000Y0559110D03*
X1390330Y0559110D03*
X1369660Y0559110D03*
X1348990Y0559110D03*
D79*
X1340000Y0501000D03*
X1350000Y0501000D03*
X1360000Y0501000D03*
X1370000Y0501000D03*
X1380000Y0501000D03*
X1390000Y0501000D03*
X1400000Y0501000D03*
X1410000Y0501000D03*
X1420000Y0501000D03*
X1335000Y0577000D02*
G75*
%LPD*%
D83*
X1348990Y0603890D03*
X1348990Y0622000D03*
X1369660Y0622000D03*
X1390330Y0622000D03*
X1390330Y0603890D03*
X1369660Y0603890D03*
X1411000Y0603890D03*
X1411000Y0622000D03*
X1411000Y0640110D03*
X1390330Y0640110D03*
X1369660Y0640110D03*
X1348990Y0640110D03*
D79*
X1340000Y0582000D03*
X1350000Y0582000D03*
X1360000Y0582000D03*
X1370000Y0582000D03*
X1380000Y0582000D03*
X1390000Y0582000D03*
X1400000Y0582000D03*
X1410000Y0582000D03*
X1420000Y0582000D03*
X1335000Y0658000D02*
G75*
%LPD*%
D83*
X1348990Y0684890D03*
X1348990Y0703000D03*
X1369660Y0703000D03*
X1390330Y0703000D03*
X1390330Y0684890D03*
X1369660Y0684890D03*
X1411000Y0684890D03*
X1411000Y0703000D03*
X1411000Y0721110D03*
X1390330Y0721110D03*
X1369660Y0721110D03*
X1348990Y0721110D03*
D79*
X1340000Y0663000D03*
X1350000Y0663000D03*
X1360000Y0663000D03*
X1370000Y0663000D03*
X1380000Y0663000D03*
X1390000Y0663000D03*
X1400000Y0663000D03*
X1410000Y0663000D03*
X1420000Y0663000D03*
X1335000Y0739000D02*
G75*
%LPD*%
D83*
X1348990Y0765890D03*
X1348990Y0784000D03*
X1369660Y0784000D03*
X1390330Y0784000D03*
X1390330Y0765890D03*
X1369660Y0765890D03*
X1411000Y0765890D03*
X1411000Y0784000D03*
X1411000Y0802110D03*
X1390330Y0802110D03*
X1369660Y0802110D03*
X1348990Y0802110D03*
D79*
X1340000Y0744000D03*
X1350000Y0744000D03*
X1360000Y0744000D03*
X1370000Y0744000D03*
X1380000Y0744000D03*
X1390000Y0744000D03*
X1400000Y0744000D03*
X1410000Y0744000D03*
X1420000Y0744000D03*
X1335000Y0820000D02*
G75*
%LPD*%
D83*
X1348990Y0846890D03*
X1348990Y0865000D03*
X1369660Y0865000D03*
X1390330Y0865000D03*
X1390330Y0846890D03*
X1369660Y0846890D03*
X1411000Y0846890D03*
X1411000Y0865000D03*
X1411000Y0883110D03*
X1390330Y0883110D03*
X1369660Y0883110D03*
X1348990Y0883110D03*
D79*
X1340000Y0825000D03*
X1350000Y0825000D03*
X1360000Y0825000D03*
X1370000Y0825000D03*
X1380000Y0825000D03*
X1390000Y0825000D03*
X1400000Y0825000D03*
X1410000Y0825000D03*
X1420000Y0825000D03*
X1335000Y0901000D02*
G75*
%LPD*%
D83*
X1348990Y0927890D03*
X1348990Y0946000D03*
X1369660Y0946000D03*
X1390330Y0946000D03*
X1390330Y0927890D03*
X1369660Y0927890D03*
X1411000Y0927890D03*
X1411000Y0946000D03*
X1411000Y0964110D03*
X1390330Y0964110D03*
X1369660Y0964110D03*
X1348990Y0964110D03*
D79*
X1340000Y0906000D03*
X1350000Y0906000D03*
X1360000Y0906000D03*
X1370000Y0906000D03*
X1380000Y0906000D03*
X1390000Y0906000D03*
X1400000Y0906000D03*
X1410000Y0906000D03*
X1420000Y0906000D03*
X1435000Y0010000D02*
G75*
%LPD*%
D83*
X1448990Y0036890D03*
X1448990Y0055000D03*
X1469660Y0055000D03*
X1490330Y0055000D03*
X1490330Y0036890D03*
X1469660Y0036890D03*
X1511000Y0036890D03*
X1511000Y0055000D03*
X1511000Y0073110D03*
X1490330Y0073110D03*
X1469660Y0073110D03*
X1448990Y0073110D03*
D79*
X1440000Y0015000D03*
X1450000Y0015000D03*
X1460000Y0015000D03*
X1470000Y0015000D03*
X1480000Y0015000D03*
X1490000Y0015000D03*
X1500000Y0015000D03*
X1510000Y0015000D03*
X1520000Y0015000D03*
X1435000Y0091000D02*
G75*
%LPD*%
D83*
X1448990Y0117890D03*
X1448990Y0136000D03*
X1469660Y0136000D03*
X1490330Y0136000D03*
X1490330Y0117890D03*
X1469660Y0117890D03*
X1511000Y0117890D03*
X1511000Y0136000D03*
X1511000Y0154110D03*
X1490330Y0154110D03*
X1469660Y0154110D03*
X1448990Y0154110D03*
D79*
X1440000Y0096000D03*
X1450000Y0096000D03*
X1460000Y0096000D03*
X1470000Y0096000D03*
X1480000Y0096000D03*
X1490000Y0096000D03*
X1500000Y0096000D03*
X1510000Y0096000D03*
X1520000Y0096000D03*
X1435000Y0172000D02*
G75*
%LPD*%
D83*
X1448990Y0198890D03*
X1448990Y0217000D03*
X1469660Y0217000D03*
X1490330Y0217000D03*
X1490330Y0198890D03*
X1469660Y0198890D03*
X1511000Y0198890D03*
X1511000Y0217000D03*
X1511000Y0235110D03*
X1490330Y0235110D03*
X1469660Y0235110D03*
X1448990Y0235110D03*
D79*
X1440000Y0177000D03*
X1450000Y0177000D03*
X1460000Y0177000D03*
X1470000Y0177000D03*
X1480000Y0177000D03*
X1490000Y0177000D03*
X1500000Y0177000D03*
X1510000Y0177000D03*
X1520000Y0177000D03*
X1435000Y0253000D02*
G75*
%LPD*%
D83*
X1448990Y0279890D03*
X1448990Y0298000D03*
X1469660Y0298000D03*
X1490330Y0298000D03*
X1490330Y0279890D03*
X1469660Y0279890D03*
X1511000Y0279890D03*
X1511000Y0298000D03*
X1511000Y0316110D03*
X1490330Y0316110D03*
X1469660Y0316110D03*
X1448990Y0316110D03*
D79*
X1440000Y0258000D03*
X1450000Y0258000D03*
X1460000Y0258000D03*
X1470000Y0258000D03*
X1480000Y0258000D03*
X1490000Y0258000D03*
X1500000Y0258000D03*
X1510000Y0258000D03*
X1520000Y0258000D03*
X1435000Y0334000D02*
G75*
%LPD*%
D83*
X1448990Y0360890D03*
X1448990Y0379000D03*
X1469660Y0379000D03*
X1490330Y0379000D03*
X1490330Y0360890D03*
X1469660Y0360890D03*
X1511000Y0360890D03*
X1511000Y0379000D03*
X1511000Y0397110D03*
X1490330Y0397110D03*
X1469660Y0397110D03*
X1448990Y0397110D03*
D79*
X1440000Y0339000D03*
X1450000Y0339000D03*
X1460000Y0339000D03*
X1470000Y0339000D03*
X1480000Y0339000D03*
X1490000Y0339000D03*
X1500000Y0339000D03*
X1510000Y0339000D03*
X1520000Y0339000D03*
X1435000Y0415000D02*
G75*
%LPD*%
D83*
X1448990Y0441890D03*
X1448990Y0460000D03*
X1469660Y0460000D03*
X1490330Y0460000D03*
X1490330Y0441890D03*
X1469660Y0441890D03*
X1511000Y0441890D03*
X1511000Y0460000D03*
X1511000Y0478110D03*
X1490330Y0478110D03*
X1469660Y0478110D03*
X1448990Y0478110D03*
D79*
X1440000Y0420000D03*
X1450000Y0420000D03*
X1460000Y0420000D03*
X1470000Y0420000D03*
X1480000Y0420000D03*
X1490000Y0420000D03*
X1500000Y0420000D03*
X1510000Y0420000D03*
X1520000Y0420000D03*
X1435000Y0496000D02*
G75*
%LPD*%
D83*
X1448990Y0522890D03*
X1448990Y0541000D03*
X1469660Y0541000D03*
X1490330Y0541000D03*
X1490330Y0522890D03*
X1469660Y0522890D03*
X1511000Y0522890D03*
X1511000Y0541000D03*
X1511000Y0559110D03*
X1490330Y0559110D03*
X1469660Y0559110D03*
X1448990Y0559110D03*
D79*
X1440000Y0501000D03*
X1450000Y0501000D03*
X1460000Y0501000D03*
X1470000Y0501000D03*
X1480000Y0501000D03*
X1490000Y0501000D03*
X1500000Y0501000D03*
X1510000Y0501000D03*
X1520000Y0501000D03*
X1435000Y0577000D02*
G75*
%LPD*%
D83*
X1448990Y0603890D03*
X1448990Y0622000D03*
X1469660Y0622000D03*
X1490330Y0622000D03*
X1490330Y0603890D03*
X1469660Y0603890D03*
X1511000Y0603890D03*
X1511000Y0622000D03*
X1511000Y0640110D03*
X1490330Y0640110D03*
X1469660Y0640110D03*
X1448990Y0640110D03*
D79*
X1440000Y0582000D03*
X1450000Y0582000D03*
X1460000Y0582000D03*
X1470000Y0582000D03*
X1480000Y0582000D03*
X1490000Y0582000D03*
X1500000Y0582000D03*
X1510000Y0582000D03*
X1520000Y0582000D03*
X1435000Y0658000D02*
G75*
%LPD*%
D83*
X1448990Y0684890D03*
X1448990Y0703000D03*
X1469660Y0703000D03*
X1490330Y0703000D03*
X1490330Y0684890D03*
X1469660Y0684890D03*
X1511000Y0684890D03*
X1511000Y0703000D03*
X1511000Y0721110D03*
X1490330Y0721110D03*
X1469660Y0721110D03*
X1448990Y0721110D03*
D79*
X1440000Y0663000D03*
X1450000Y0663000D03*
X1460000Y0663000D03*
X1470000Y0663000D03*
X1480000Y0663000D03*
X1490000Y0663000D03*
X1500000Y0663000D03*
X1510000Y0663000D03*
X1520000Y0663000D03*
X1435000Y0739000D02*
G75*
%LPD*%
D83*
X1448990Y0765890D03*
X1448990Y0784000D03*
X1469660Y0784000D03*
X1490330Y0784000D03*
X1490330Y0765890D03*
X1469660Y0765890D03*
X1511000Y0765890D03*
X1511000Y0784000D03*
X1511000Y0802110D03*
X1490330Y0802110D03*
X1469660Y0802110D03*
X1448990Y0802110D03*
D79*
X1440000Y0744000D03*
X1450000Y0744000D03*
X1460000Y0744000D03*
X1470000Y0744000D03*
X1480000Y0744000D03*
X1490000Y0744000D03*
X1500000Y0744000D03*
X1510000Y0744000D03*
X1520000Y0744000D03*
X1435000Y0820000D02*
G75*
%LPD*%
D83*
X1448990Y0846890D03*
X1448990Y0865000D03*
X1469660Y0865000D03*
X1490330Y0865000D03*
X1490330Y0846890D03*
X1469660Y0846890D03*
X1511000Y0846890D03*
X1511000Y0865000D03*
X1511000Y0883110D03*
X1490330Y0883110D03*
X1469660Y0883110D03*
X1448990Y0883110D03*
D79*
X1440000Y0825000D03*
X1450000Y0825000D03*
X1460000Y0825000D03*
X1470000Y0825000D03*
X1480000Y0825000D03*
X1490000Y0825000D03*
X1500000Y0825000D03*
X1510000Y0825000D03*
X1520000Y0825000D03*
X1435000Y0901000D02*
G75*
%LPD*%
D83*
X1448990Y0927890D03*
X1448990Y0946000D03*
X1469660Y0946000D03*
X1490330Y0946000D03*
X1490330Y0927890D03*
X1469660Y0927890D03*
X1511000Y0927890D03*
X1511000Y0946000D03*
X1511000Y0964110D03*
X1490330Y0964110D03*
X1469660Y0964110D03*
X1448990Y0964110D03*
D79*
X1440000Y0906000D03*
X1450000Y0906000D03*
X1460000Y0906000D03*
X1470000Y0906000D03*
X1480000Y0906000D03*
X1490000Y0906000D03*
X1500000Y0906000D03*
X1510000Y0906000D03*
X1520000Y0906000D03*
X1535000Y0010000D02*
G75*
%LPD*%
D83*
X1579360Y0023990D03*
X1561250Y0023990D03*
X1561250Y0044660D03*
X1561250Y0065330D03*
X1579360Y0065330D03*
X1579360Y0044660D03*
X1579360Y0086000D03*
X1561250Y0086000D03*
X1543140Y0086000D03*
X1543140Y0065330D03*
X1543140Y0044660D03*
X1543140Y0023990D03*
D79*
X1601250Y0015000D03*
X1601250Y0025000D03*
X1601250Y0035000D03*
X1601250Y0045000D03*
X1601250Y0055000D03*
X1601250Y0065000D03*
X1601250Y0075000D03*
X1601250Y0085000D03*
X1601250Y0095000D03*
X1535000Y0110000D02*
G75*
%LPD*%
D83*
X1579360Y0123990D03*
X1561250Y0123990D03*
X1561250Y0144660D03*
X1561250Y0165330D03*
X1579360Y0165330D03*
X1579360Y0144660D03*
X1579360Y0186000D03*
X1561250Y0186000D03*
X1543140Y0186000D03*
X1543140Y0165330D03*
X1543140Y0144660D03*
X1543140Y0123990D03*
D79*
X1601250Y0115000D03*
X1601250Y0125000D03*
X1601250Y0135000D03*
X1601250Y0145000D03*
X1601250Y0155000D03*
X1601250Y0165000D03*
X1601250Y0175000D03*
X1601250Y0185000D03*
X1601250Y0195000D03*
X1535000Y0210000D02*
G75*
%LPD*%
D83*
X1579360Y0223990D03*
X1561250Y0223990D03*
X1561250Y0244660D03*
X1561250Y0265330D03*
X1579360Y0265330D03*
X1579360Y0244660D03*
X1579360Y0286000D03*
X1561250Y0286000D03*
X1543140Y0286000D03*
X1543140Y0265330D03*
X1543140Y0244660D03*
X1543140Y0223990D03*
D79*
X1601250Y0215000D03*
X1601250Y0225000D03*
X1601250Y0235000D03*
X1601250Y0245000D03*
X1601250Y0255000D03*
X1601250Y0265000D03*
X1601250Y0275000D03*
X1601250Y0285000D03*
X1601250Y0295000D03*
X1535000Y0310000D02*
G75*
%LPD*%
D83*
X1579360Y0323990D03*
X1561250Y0323990D03*
X1561250Y0344660D03*
X1561250Y0365330D03*
X1579360Y0365330D03*
X1579360Y0344660D03*
X1579360Y0386000D03*
X1561250Y0386000D03*
X1543140Y0386000D03*
X1543140Y0365330D03*
X1543140Y0344660D03*
X1543140Y0323990D03*
D79*
X1601250Y0315000D03*
X1601250Y0325000D03*
X1601250Y0335000D03*
X1601250Y0345000D03*
X1601250Y0355000D03*
X1601250Y0365000D03*
X1601250Y0375000D03*
X1601250Y0385000D03*
X1601250Y0395000D03*
X1535000Y0410000D02*
G75*
%LPD*%
D83*
X1579360Y0423990D03*
X1561250Y0423990D03*
X1561250Y0444660D03*
X1561250Y0465330D03*
X1579360Y0465330D03*
X1579360Y0444660D03*
X1579360Y0486000D03*
X1561250Y0486000D03*
X1543140Y0486000D03*
X1543140Y0465330D03*
X1543140Y0444660D03*
X1543140Y0423990D03*
D79*
X1601250Y0415000D03*
X1601250Y0425000D03*
X1601250Y0435000D03*
X1601250Y0445000D03*
X1601250Y0455000D03*
X1601250Y0465000D03*
X1601250Y0475000D03*
X1601250Y0485000D03*
X1601250Y0495000D03*
X1535000Y0510000D02*
G75*
%LPD*%
D83*
X1579360Y0523990D03*
X1561250Y0523990D03*
X1561250Y0544660D03*
X1561250Y0565330D03*
X1579360Y0565330D03*
X1579360Y0544660D03*
X1579360Y0586000D03*
X1561250Y0586000D03*
X1543140Y0586000D03*
X1543140Y0565330D03*
X1543140Y0544660D03*
X1543140Y0523990D03*
D79*
X1601250Y0515000D03*
X1601250Y0525000D03*
X1601250Y0535000D03*
X1601250Y0545000D03*
X1601250Y0555000D03*
X1601250Y0565000D03*
X1601250Y0575000D03*
X1601250Y0585000D03*
X1601250Y0595000D03*
X1535000Y0610000D02*
G75*
%LPD*%
D83*
X1579360Y0623990D03*
X1561250Y0623990D03*
X1561250Y0644660D03*
X1561250Y0665330D03*
X1579360Y0665330D03*
X1579360Y0644660D03*
X1579360Y0686000D03*
X1561250Y0686000D03*
X1543140Y0686000D03*
X1543140Y0665330D03*
X1543140Y0644660D03*
X1543140Y0623990D03*
D79*
X1601250Y0615000D03*
X1601250Y0625000D03*
X1601250Y0635000D03*
X1601250Y0645000D03*
X1601250Y0655000D03*
X1601250Y0665000D03*
X1601250Y0675000D03*
X1601250Y0685000D03*
X1601250Y0695000D03*
X1535000Y0710000D02*
G75*
%LPD*%
D83*
X1579360Y0723990D03*
X1561250Y0723990D03*
X1561250Y0744660D03*
X1561250Y0765330D03*
X1579360Y0765330D03*
X1579360Y0744660D03*
X1579360Y0786000D03*
X1561250Y0786000D03*
X1543140Y0786000D03*
X1543140Y0765330D03*
X1543140Y0744660D03*
X1543140Y0723990D03*
D79*
X1601250Y0715000D03*
X1601250Y0725000D03*
X1601250Y0735000D03*
X1601250Y0745000D03*
X1601250Y0755000D03*
X1601250Y0765000D03*
X1601250Y0775000D03*
X1601250Y0785000D03*
X1601250Y0795000D03*
X1535000Y0810000D02*
G75*
%LPD*%
D83*
X1579360Y0823990D03*
X1561250Y0823990D03*
X1561250Y0844660D03*
X1561250Y0865330D03*
X1579360Y0865330D03*
X1579360Y0844660D03*
X1579360Y0886000D03*
X1561250Y0886000D03*
X1543140Y0886000D03*
X1543140Y0865330D03*
X1543140Y0844660D03*
X1543140Y0823990D03*
D79*
X1601250Y0815000D03*
X1601250Y0825000D03*
X1601250Y0835000D03*
X1601250Y0845000D03*
X1601250Y0855000D03*
X1601250Y0865000D03*
X1601250Y0875000D03*
X1601250Y0885000D03*
X1601250Y0895000D03*
X1535000Y0910000D02*
G75*
%LPD*%
D83*
X1579360Y0923990D03*
X1561250Y0923990D03*
X1561250Y0944660D03*
X1561250Y0965330D03*
X1579360Y0965330D03*
X1579360Y0944660D03*
X1579360Y0986000D03*
X1561250Y0986000D03*
X1543140Y0986000D03*
X1543140Y0965330D03*
X1543140Y0944660D03*
X1543140Y0923990D03*
D79*
X1601250Y0915000D03*
X1601250Y0925000D03*
X1601250Y0935000D03*
X1601250Y0945000D03*
X1601250Y0955000D03*
X1601250Y0965000D03*
X1601250Y0975000D03*
X1601250Y0985000D03*
X1601250Y0995000D03*
M02*
