G75*
G70*
%OFA0B0*%
%FSLAX25Y25*%
%IPPOS*%
%LPD*%
%AMOC8*
5,1,8,0,0,1.08239X$1,22.5*
%
%ADD100C,0.06400*%
%ADD105R,0.07800X0.07800*%
%ADD11C,0.07000*%
%ADD110C,0.13400*%
%ADD111OC8,0.11470*%
%ADD114C,0.13860*%
%ADD12C,0.10400*%
%ADD14C,0.05600*%
%ADD15C,0.05940*%
%ADD22OC8,0.07800*%
%ADD23R,0.06400X0.06400*%
%ADD31C,0.12600*%
%ADD46OC8,0.05600*%
%ADD48OC8,0.06700*%
%ADD50C,0.08000*%
%ADD56C,0.05140*%
%ADD58R,0.07490X0.07490*%
%ADD63C,0.03570*%
%ADD65C,0.12660*%
%ADD66C,0.06700*%
%ADD80C,0.15400*%
%ADD82C,0.07800*%
%ADD98C,0.08200*%
X0010000Y0010000D02*
G75*
%LPD*%
D50*
X0053150Y0251730D03*
X0063000Y0251730D03*
X0072840Y0251730D03*
X0153150Y0251730D03*
X0163000Y0251730D03*
X0172840Y0251730D03*
X0253150Y0251730D03*
X0263000Y0251730D03*
X0272840Y0251730D03*
X0353150Y0251730D03*
X0363000Y0251730D03*
X0372840Y0251730D03*
D111*
X0380710Y0281250D03*
X0345280Y0281250D03*
X0280710Y0281250D03*
X0245280Y0281250D03*
X0180710Y0281250D03*
X0145280Y0281250D03*
X0080710Y0281250D03*
X0045280Y0281250D03*
D82*
X0101750Y0280000D03*
X0111750Y0280000D03*
X0111750Y0290000D03*
X0111750Y0300000D03*
X0101750Y0290000D03*
X0101750Y0270000D03*
X0111750Y0270000D03*
X0101750Y0260000D03*
X0101750Y0250000D03*
X0101750Y0240000D03*
X0101750Y0230000D03*
X0101750Y0220000D03*
X0101750Y0210000D03*
X0101750Y0200000D03*
X0101750Y0190000D03*
X0101750Y0180000D03*
X0101750Y0170000D03*
X0101750Y0160000D03*
X0101750Y0150000D03*
X0101750Y0140000D03*
X0101750Y0130000D03*
X0101750Y0120000D03*
X0101750Y0110000D03*
X0111750Y0100000D03*
X0121750Y0100000D03*
X0131750Y0100000D03*
X0171750Y0100000D03*
X0181750Y0100000D03*
X0191750Y0100000D03*
X0201750Y0100000D03*
X0211750Y0100000D03*
X0221750Y0100000D03*
X0231750Y0100000D03*
X0241750Y0100000D03*
X0251750Y0100000D03*
X0271750Y0100000D03*
X0281750Y0100000D03*
X0291750Y0100000D03*
X0301750Y0100000D03*
X0311750Y0100000D03*
X0253000Y0016250D03*
X0243000Y0016250D03*
X0233000Y0016250D03*
X0223000Y0016250D03*
X0213000Y0016250D03*
X0203000Y0016250D03*
X0193000Y0016250D03*
X0183000Y0016250D03*
X0173000Y0016250D03*
X0311750Y0210000D03*
X0311750Y0220000D03*
X0311750Y0230000D03*
X0311750Y0240000D03*
X0311750Y0250000D03*
X0311750Y0260000D03*
X0311750Y0270000D03*
X0311750Y0280000D03*
X0311750Y0290000D03*
X0311750Y0300000D03*
X0311750Y0310000D03*
X0311750Y0320000D03*
X0409250Y0291250D03*
X0409250Y0281250D03*
X0409250Y0271250D03*
X0176750Y0315000D03*
X0156750Y0315000D03*
D98*
X0194250Y0320000D03*
X0194250Y0280000D03*
X0091750Y0100000D03*
X0091750Y0060000D03*
D46*
X0066750Y0046250D03*
X0058000Y0046250D03*
X0058000Y0016250D03*
X0066750Y0016250D03*
X0138000Y0111250D03*
X0168000Y0111250D03*
X0198000Y0111250D03*
X0228000Y0111250D03*
X0228000Y0141250D03*
X0198000Y0141250D03*
X0188000Y0156250D03*
X0168000Y0141250D03*
X0158000Y0156250D03*
X0148000Y0156250D03*
X0148000Y0166250D03*
X0148000Y0176250D03*
X0148000Y0186250D03*
X0168000Y0201250D03*
X0188000Y0201250D03*
X0148000Y0206250D03*
X0148000Y0216250D03*
X0148000Y0226250D03*
X0148000Y0236250D03*
X0118000Y0236250D03*
X0118000Y0226250D03*
X0118000Y0216250D03*
X0118000Y0206250D03*
X0118000Y0186250D03*
X0118000Y0176250D03*
X0118000Y0166250D03*
X0118000Y0156250D03*
X0138000Y0141250D03*
X0263000Y0141250D03*
X0263000Y0151250D03*
X0263000Y0161250D03*
X0263000Y0171250D03*
X0263000Y0181250D03*
X0293000Y0181250D03*
X0293000Y0171250D03*
X0293000Y0161250D03*
X0293000Y0151250D03*
X0293000Y0141250D03*
X0313000Y0078750D03*
X0318000Y0071250D03*
X0308000Y0071250D03*
X0313000Y0053750D03*
X0318000Y0046250D03*
X0308000Y0046250D03*
X0298000Y0026250D03*
X0298000Y0016250D03*
X0328000Y0016250D03*
X0328000Y0026250D03*
X0293000Y0211250D03*
X0293000Y0221250D03*
X0293000Y0231250D03*
X0283000Y0241250D03*
X0263000Y0241250D03*
X0263000Y0231250D03*
X0263000Y0221250D03*
X0263000Y0211250D03*
X0223000Y0256250D03*
X0203000Y0256250D03*
D80*
X0218000Y0286070D03*
X0236500Y0297880D03*
X0218000Y0309690D03*
D12*
X0359870Y0240940D03*
X0384560Y0240940D03*
X0409560Y0240940D03*
X0409560Y0176880D03*
X0409560Y0160940D03*
X0384560Y0160940D03*
X0384250Y0176880D03*
X0359870Y0176880D03*
X0359870Y0160940D03*
X0359870Y0096880D03*
X0359870Y0080940D03*
X0384560Y0080940D03*
X0384250Y0096880D03*
X0409560Y0096880D03*
X0409560Y0080940D03*
X0409560Y0016880D03*
X0384250Y0016880D03*
X0359870Y0016880D03*
X0066120Y0096570D03*
X0041430Y0096570D03*
X0016430Y0096570D03*
X0016430Y0160630D03*
X0016430Y0176570D03*
X0041430Y0176570D03*
X0041750Y0160630D03*
X0066120Y0160630D03*
X0066120Y0176570D03*
X0066120Y0240630D03*
X0041750Y0240630D03*
X0016430Y0240630D03*
D105*
X0101750Y0100000D03*
X0141750Y0100000D03*
D14*
X0183000Y0213650D02*
X0183000Y0218850D01*
X0193000Y0218850D02*
X0193000Y0213650D01*
X0203000Y0213650D02*
X0203000Y0218850D01*
X0213000Y0218850D02*
X0213000Y0213650D01*
X0223000Y0213650D02*
X0223000Y0218850D01*
X0233000Y0218850D02*
X0233000Y0213650D01*
X0243000Y0213650D02*
X0243000Y0218850D01*
X0243000Y0243650D02*
X0243000Y0248850D01*
X0233000Y0248850D02*
X0233000Y0243650D01*
X0223000Y0243650D02*
X0223000Y0248850D01*
X0213000Y0248850D02*
X0213000Y0243650D01*
X0203000Y0243650D02*
X0203000Y0248850D01*
X0193000Y0248850D02*
X0193000Y0243650D01*
X0183000Y0243650D02*
X0183000Y0248850D01*
X0298000Y0083850D02*
X0298000Y0078650D01*
X0298000Y0043850D02*
X0298000Y0038650D01*
D15*
X0228000Y0161250D03*
X0198000Y0161250D03*
X0198000Y0201250D03*
X0228000Y0201250D03*
D11*
X0045800Y0051170D03*
X0038000Y0051170D03*
X0038000Y0041330D03*
X0045800Y0041330D03*
D31*
X0027300Y0022550D03*
X0027300Y0069950D03*
D100*
X0114250Y0078250D02*
X0114250Y0084250D01*
X0124250Y0084250D02*
X0124250Y0078250D01*
X0134250Y0078250D02*
X0134250Y0084250D01*
D110*
X0124250Y0022250D03*
D48*
X0083000Y0041250D03*
X0063000Y0071250D03*
X0153000Y0116250D03*
X0153000Y0136250D03*
X0183000Y0136250D03*
X0183000Y0116250D03*
X0213000Y0116250D03*
X0213000Y0136250D03*
X0243000Y0136250D03*
X0253000Y0151250D03*
X0253000Y0171250D03*
X0263000Y0191250D03*
X0263000Y0201250D03*
X0283000Y0201250D03*
X0283000Y0191250D03*
X0313000Y0186250D03*
X0313000Y0158750D03*
X0313000Y0131250D03*
X0243000Y0116250D03*
X0158000Y0166250D03*
X0158000Y0186250D03*
X0138000Y0196250D03*
X0118000Y0196250D03*
X0158000Y0216250D03*
X0168000Y0216250D03*
X0168000Y0236250D03*
X0158000Y0236250D03*
D66*
X0313000Y0176250D03*
X0313000Y0148750D03*
X0313000Y0121250D03*
X0093000Y0041250D03*
X0073000Y0071250D03*
D65*
X0181990Y0074360D03*
X0181990Y0056250D03*
X0181990Y0038140D03*
X0202660Y0038140D03*
X0202660Y0056250D03*
X0202660Y0074360D03*
X0223330Y0074360D03*
X0223330Y0056250D03*
X0223330Y0038140D03*
X0244000Y0038140D03*
X0244000Y0056250D03*
X0244000Y0074360D03*
X0010000Y0335000D02*
G75*
%LPD*%
D50*
X0053150Y0576730D03*
X0063000Y0576730D03*
X0072840Y0576730D03*
X0153150Y0576730D03*
X0163000Y0576730D03*
X0172840Y0576730D03*
X0253150Y0576730D03*
X0263000Y0576730D03*
X0272840Y0576730D03*
X0353150Y0576730D03*
X0363000Y0576730D03*
X0372840Y0576730D03*
D111*
X0380710Y0606250D03*
X0345280Y0606250D03*
X0280710Y0606250D03*
X0245280Y0606250D03*
X0180710Y0606250D03*
X0145280Y0606250D03*
X0080710Y0606250D03*
X0045280Y0606250D03*
D82*
X0101750Y0605000D03*
X0111750Y0605000D03*
X0111750Y0615000D03*
X0111750Y0625000D03*
X0101750Y0615000D03*
X0101750Y0595000D03*
X0111750Y0595000D03*
X0101750Y0585000D03*
X0101750Y0575000D03*
X0101750Y0565000D03*
X0101750Y0555000D03*
X0101750Y0545000D03*
X0101750Y0535000D03*
X0101750Y0525000D03*
X0101750Y0515000D03*
X0101750Y0505000D03*
X0101750Y0495000D03*
X0101750Y0485000D03*
X0101750Y0475000D03*
X0101750Y0465000D03*
X0101750Y0455000D03*
X0101750Y0445000D03*
X0101750Y0435000D03*
X0111750Y0425000D03*
X0121750Y0425000D03*
X0131750Y0425000D03*
X0171750Y0425000D03*
X0181750Y0425000D03*
X0191750Y0425000D03*
X0201750Y0425000D03*
X0211750Y0425000D03*
X0221750Y0425000D03*
X0231750Y0425000D03*
X0241750Y0425000D03*
X0251750Y0425000D03*
X0271750Y0425000D03*
X0281750Y0425000D03*
X0291750Y0425000D03*
X0301750Y0425000D03*
X0311750Y0425000D03*
X0253000Y0341250D03*
X0243000Y0341250D03*
X0233000Y0341250D03*
X0223000Y0341250D03*
X0213000Y0341250D03*
X0203000Y0341250D03*
X0193000Y0341250D03*
X0183000Y0341250D03*
X0173000Y0341250D03*
X0311750Y0535000D03*
X0311750Y0545000D03*
X0311750Y0555000D03*
X0311750Y0565000D03*
X0311750Y0575000D03*
X0311750Y0585000D03*
X0311750Y0595000D03*
X0311750Y0605000D03*
X0311750Y0615000D03*
X0311750Y0625000D03*
X0311750Y0635000D03*
X0311750Y0645000D03*
X0409250Y0616250D03*
X0409250Y0606250D03*
X0409250Y0596250D03*
X0176750Y0640000D03*
X0156750Y0640000D03*
D98*
X0194250Y0645000D03*
X0194250Y0605000D03*
X0091750Y0425000D03*
X0091750Y0385000D03*
D46*
X0066750Y0371250D03*
X0058000Y0371250D03*
X0058000Y0341250D03*
X0066750Y0341250D03*
X0138000Y0436250D03*
X0168000Y0436250D03*
X0198000Y0436250D03*
X0228000Y0436250D03*
X0228000Y0466250D03*
X0198000Y0466250D03*
X0188000Y0481250D03*
X0168000Y0466250D03*
X0158000Y0481250D03*
X0148000Y0481250D03*
X0148000Y0491250D03*
X0148000Y0501250D03*
X0148000Y0511250D03*
X0168000Y0526250D03*
X0188000Y0526250D03*
X0148000Y0531250D03*
X0148000Y0541250D03*
X0148000Y0551250D03*
X0148000Y0561250D03*
X0118000Y0561250D03*
X0118000Y0551250D03*
X0118000Y0541250D03*
X0118000Y0531250D03*
X0118000Y0511250D03*
X0118000Y0501250D03*
X0118000Y0491250D03*
X0118000Y0481250D03*
X0138000Y0466250D03*
X0263000Y0466250D03*
X0263000Y0476250D03*
X0263000Y0486250D03*
X0263000Y0496250D03*
X0263000Y0506250D03*
X0293000Y0506250D03*
X0293000Y0496250D03*
X0293000Y0486250D03*
X0293000Y0476250D03*
X0293000Y0466250D03*
X0313000Y0403750D03*
X0318000Y0396250D03*
X0308000Y0396250D03*
X0313000Y0378750D03*
X0318000Y0371250D03*
X0308000Y0371250D03*
X0298000Y0351250D03*
X0298000Y0341250D03*
X0328000Y0341250D03*
X0328000Y0351250D03*
X0293000Y0536250D03*
X0293000Y0546250D03*
X0293000Y0556250D03*
X0283000Y0566250D03*
X0263000Y0566250D03*
X0263000Y0556250D03*
X0263000Y0546250D03*
X0263000Y0536250D03*
X0223000Y0581250D03*
X0203000Y0581250D03*
D80*
X0218000Y0611070D03*
X0236500Y0622880D03*
X0218000Y0634690D03*
D12*
X0359870Y0565940D03*
X0384560Y0565940D03*
X0409560Y0565940D03*
X0409560Y0501880D03*
X0409560Y0485940D03*
X0384560Y0485940D03*
X0384250Y0501880D03*
X0359870Y0501880D03*
X0359870Y0485940D03*
X0359870Y0421880D03*
X0359870Y0405940D03*
X0384560Y0405940D03*
X0384250Y0421880D03*
X0409560Y0421880D03*
X0409560Y0405940D03*
X0409560Y0341880D03*
X0384250Y0341880D03*
X0359870Y0341880D03*
X0066120Y0421570D03*
X0041430Y0421570D03*
X0016430Y0421570D03*
X0016430Y0485630D03*
X0016430Y0501570D03*
X0041430Y0501570D03*
X0041750Y0485630D03*
X0066120Y0485630D03*
X0066120Y0501570D03*
X0066120Y0565630D03*
X0041750Y0565630D03*
X0016430Y0565630D03*
D105*
X0101750Y0425000D03*
X0141750Y0425000D03*
D14*
X0183000Y0538650D02*
X0183000Y0543850D01*
X0193000Y0543850D02*
X0193000Y0538650D01*
X0203000Y0538650D02*
X0203000Y0543850D01*
X0213000Y0543850D02*
X0213000Y0538650D01*
X0223000Y0538650D02*
X0223000Y0543850D01*
X0233000Y0543850D02*
X0233000Y0538650D01*
X0243000Y0538650D02*
X0243000Y0543850D01*
X0243000Y0568650D02*
X0243000Y0573850D01*
X0233000Y0573850D02*
X0233000Y0568650D01*
X0223000Y0568650D02*
X0223000Y0573850D01*
X0213000Y0573850D02*
X0213000Y0568650D01*
X0203000Y0568650D02*
X0203000Y0573850D01*
X0193000Y0573850D02*
X0193000Y0568650D01*
X0183000Y0568650D02*
X0183000Y0573850D01*
X0298000Y0408850D02*
X0298000Y0403650D01*
X0298000Y0368850D02*
X0298000Y0363650D01*
D15*
X0228000Y0486250D03*
X0198000Y0486250D03*
X0198000Y0526250D03*
X0228000Y0526250D03*
D11*
X0045800Y0376170D03*
X0038000Y0376170D03*
X0038000Y0366330D03*
X0045800Y0366330D03*
D31*
X0027300Y0347550D03*
X0027300Y0394950D03*
D100*
X0114250Y0403250D02*
X0114250Y0409250D01*
X0124250Y0409250D02*
X0124250Y0403250D01*
X0134250Y0403250D02*
X0134250Y0409250D01*
D110*
X0124250Y0347250D03*
D48*
X0083000Y0366250D03*
X0063000Y0396250D03*
X0153000Y0441250D03*
X0153000Y0461250D03*
X0183000Y0461250D03*
X0183000Y0441250D03*
X0213000Y0441250D03*
X0213000Y0461250D03*
X0243000Y0461250D03*
X0253000Y0476250D03*
X0253000Y0496250D03*
X0263000Y0516250D03*
X0263000Y0526250D03*
X0283000Y0526250D03*
X0283000Y0516250D03*
X0313000Y0511250D03*
X0313000Y0483750D03*
X0313000Y0456250D03*
X0243000Y0441250D03*
X0158000Y0491250D03*
X0158000Y0511250D03*
X0138000Y0521250D03*
X0118000Y0521250D03*
X0158000Y0541250D03*
X0168000Y0541250D03*
X0168000Y0561250D03*
X0158000Y0561250D03*
D66*
X0313000Y0501250D03*
X0313000Y0473750D03*
X0313000Y0446250D03*
X0093000Y0366250D03*
X0073000Y0396250D03*
D65*
X0181990Y0399360D03*
X0181990Y0381250D03*
X0181990Y0363140D03*
X0202660Y0363140D03*
X0202660Y0381250D03*
X0202660Y0399360D03*
X0223330Y0399360D03*
X0223330Y0381250D03*
X0223330Y0363140D03*
X0244000Y0363140D03*
X0244000Y0381250D03*
X0244000Y0399360D03*
X0010000Y0660000D02*
G75*
%LPD*%
D50*
X0053150Y0901730D03*
X0063000Y0901730D03*
X0072840Y0901730D03*
X0153150Y0901730D03*
X0163000Y0901730D03*
X0172840Y0901730D03*
X0253150Y0901730D03*
X0263000Y0901730D03*
X0272840Y0901730D03*
X0353150Y0901730D03*
X0363000Y0901730D03*
X0372840Y0901730D03*
D111*
X0380710Y0931250D03*
X0345280Y0931250D03*
X0280710Y0931250D03*
X0245280Y0931250D03*
X0180710Y0931250D03*
X0145280Y0931250D03*
X0080710Y0931250D03*
X0045280Y0931250D03*
D82*
X0101750Y0930000D03*
X0111750Y0930000D03*
X0111750Y0940000D03*
X0111750Y0950000D03*
X0101750Y0940000D03*
X0101750Y0920000D03*
X0111750Y0920000D03*
X0101750Y0910000D03*
X0101750Y0900000D03*
X0101750Y0890000D03*
X0101750Y0880000D03*
X0101750Y0870000D03*
X0101750Y0860000D03*
X0101750Y0850000D03*
X0101750Y0840000D03*
X0101750Y0830000D03*
X0101750Y0820000D03*
X0101750Y0810000D03*
X0101750Y0800000D03*
X0101750Y0790000D03*
X0101750Y0780000D03*
X0101750Y0770000D03*
X0101750Y0760000D03*
X0111750Y0750000D03*
X0121750Y0750000D03*
X0131750Y0750000D03*
X0171750Y0750000D03*
X0181750Y0750000D03*
X0191750Y0750000D03*
X0201750Y0750000D03*
X0211750Y0750000D03*
X0221750Y0750000D03*
X0231750Y0750000D03*
X0241750Y0750000D03*
X0251750Y0750000D03*
X0271750Y0750000D03*
X0281750Y0750000D03*
X0291750Y0750000D03*
X0301750Y0750000D03*
X0311750Y0750000D03*
X0253000Y0666250D03*
X0243000Y0666250D03*
X0233000Y0666250D03*
X0223000Y0666250D03*
X0213000Y0666250D03*
X0203000Y0666250D03*
X0193000Y0666250D03*
X0183000Y0666250D03*
X0173000Y0666250D03*
X0311750Y0860000D03*
X0311750Y0870000D03*
X0311750Y0880000D03*
X0311750Y0890000D03*
X0311750Y0900000D03*
X0311750Y0910000D03*
X0311750Y0920000D03*
X0311750Y0930000D03*
X0311750Y0940000D03*
X0311750Y0950000D03*
X0311750Y0960000D03*
X0311750Y0970000D03*
X0409250Y0941250D03*
X0409250Y0931250D03*
X0409250Y0921250D03*
X0176750Y0965000D03*
X0156750Y0965000D03*
D98*
X0194250Y0970000D03*
X0194250Y0930000D03*
X0091750Y0750000D03*
X0091750Y0710000D03*
D46*
X0066750Y0696250D03*
X0058000Y0696250D03*
X0058000Y0666250D03*
X0066750Y0666250D03*
X0138000Y0761250D03*
X0168000Y0761250D03*
X0198000Y0761250D03*
X0228000Y0761250D03*
X0228000Y0791250D03*
X0198000Y0791250D03*
X0188000Y0806250D03*
X0168000Y0791250D03*
X0158000Y0806250D03*
X0148000Y0806250D03*
X0148000Y0816250D03*
X0148000Y0826250D03*
X0148000Y0836250D03*
X0168000Y0851250D03*
X0188000Y0851250D03*
X0148000Y0856250D03*
X0148000Y0866250D03*
X0148000Y0876250D03*
X0148000Y0886250D03*
X0118000Y0886250D03*
X0118000Y0876250D03*
X0118000Y0866250D03*
X0118000Y0856250D03*
X0118000Y0836250D03*
X0118000Y0826250D03*
X0118000Y0816250D03*
X0118000Y0806250D03*
X0138000Y0791250D03*
X0263000Y0791250D03*
X0263000Y0801250D03*
X0263000Y0811250D03*
X0263000Y0821250D03*
X0263000Y0831250D03*
X0293000Y0831250D03*
X0293000Y0821250D03*
X0293000Y0811250D03*
X0293000Y0801250D03*
X0293000Y0791250D03*
X0313000Y0728750D03*
X0318000Y0721250D03*
X0308000Y0721250D03*
X0313000Y0703750D03*
X0318000Y0696250D03*
X0308000Y0696250D03*
X0298000Y0676250D03*
X0298000Y0666250D03*
X0328000Y0666250D03*
X0328000Y0676250D03*
X0293000Y0861250D03*
X0293000Y0871250D03*
X0293000Y0881250D03*
X0283000Y0891250D03*
X0263000Y0891250D03*
X0263000Y0881250D03*
X0263000Y0871250D03*
X0263000Y0861250D03*
X0223000Y0906250D03*
X0203000Y0906250D03*
D80*
X0218000Y0936070D03*
X0236500Y0947880D03*
X0218000Y0959690D03*
D12*
X0359870Y0890940D03*
X0384560Y0890940D03*
X0409560Y0890940D03*
X0409560Y0826880D03*
X0409560Y0810940D03*
X0384560Y0810940D03*
X0384250Y0826880D03*
X0359870Y0826880D03*
X0359870Y0810940D03*
X0359870Y0746880D03*
X0359870Y0730940D03*
X0384560Y0730940D03*
X0384250Y0746880D03*
X0409560Y0746880D03*
X0409560Y0730940D03*
X0409560Y0666880D03*
X0384250Y0666880D03*
X0359870Y0666880D03*
X0066120Y0746570D03*
X0041430Y0746570D03*
X0016430Y0746570D03*
X0016430Y0810630D03*
X0016430Y0826570D03*
X0041430Y0826570D03*
X0041750Y0810630D03*
X0066120Y0810630D03*
X0066120Y0826570D03*
X0066120Y0890630D03*
X0041750Y0890630D03*
X0016430Y0890630D03*
D105*
X0101750Y0750000D03*
X0141750Y0750000D03*
D14*
X0183000Y0863650D02*
X0183000Y0868850D01*
X0193000Y0868850D02*
X0193000Y0863650D01*
X0203000Y0863650D02*
X0203000Y0868850D01*
X0213000Y0868850D02*
X0213000Y0863650D01*
X0223000Y0863650D02*
X0223000Y0868850D01*
X0233000Y0868850D02*
X0233000Y0863650D01*
X0243000Y0863650D02*
X0243000Y0868850D01*
X0243000Y0893650D02*
X0243000Y0898850D01*
X0233000Y0898850D02*
X0233000Y0893650D01*
X0223000Y0893650D02*
X0223000Y0898850D01*
X0213000Y0898850D02*
X0213000Y0893650D01*
X0203000Y0893650D02*
X0203000Y0898850D01*
X0193000Y0898850D02*
X0193000Y0893650D01*
X0183000Y0893650D02*
X0183000Y0898850D01*
X0298000Y0733850D02*
X0298000Y0728650D01*
X0298000Y0693850D02*
X0298000Y0688650D01*
D15*
X0228000Y0811250D03*
X0198000Y0811250D03*
X0198000Y0851250D03*
X0228000Y0851250D03*
D11*
X0045800Y0701170D03*
X0038000Y0701170D03*
X0038000Y0691330D03*
X0045800Y0691330D03*
D31*
X0027300Y0672550D03*
X0027300Y0719950D03*
D100*
X0114250Y0728250D02*
X0114250Y0734250D01*
X0124250Y0734250D02*
X0124250Y0728250D01*
X0134250Y0728250D02*
X0134250Y0734250D01*
D110*
X0124250Y0672250D03*
D48*
X0083000Y0691250D03*
X0063000Y0721250D03*
X0153000Y0766250D03*
X0153000Y0786250D03*
X0183000Y0786250D03*
X0183000Y0766250D03*
X0213000Y0766250D03*
X0213000Y0786250D03*
X0243000Y0786250D03*
X0253000Y0801250D03*
X0253000Y0821250D03*
X0263000Y0841250D03*
X0263000Y0851250D03*
X0283000Y0851250D03*
X0283000Y0841250D03*
X0313000Y0836250D03*
X0313000Y0808750D03*
X0313000Y0781250D03*
X0243000Y0766250D03*
X0158000Y0816250D03*
X0158000Y0836250D03*
X0138000Y0846250D03*
X0118000Y0846250D03*
X0158000Y0866250D03*
X0168000Y0866250D03*
X0168000Y0886250D03*
X0158000Y0886250D03*
D66*
X0313000Y0826250D03*
X0313000Y0798750D03*
X0313000Y0771250D03*
X0093000Y0691250D03*
X0073000Y0721250D03*
D65*
X0181990Y0724360D03*
X0181990Y0706250D03*
X0181990Y0688140D03*
X0202660Y0688140D03*
X0202660Y0706250D03*
X0202660Y0724360D03*
X0223330Y0724360D03*
X0223330Y0706250D03*
X0223330Y0688140D03*
X0244000Y0688140D03*
X0244000Y0706250D03*
X0244000Y0724360D03*
X0425000Y0010000D02*
G75*
%LPD*%
D50*
X0468150Y0251730D03*
X0478000Y0251730D03*
X0487840Y0251730D03*
X0568150Y0251730D03*
X0578000Y0251730D03*
X0587840Y0251730D03*
X0668150Y0251730D03*
X0678000Y0251730D03*
X0687840Y0251730D03*
X0768150Y0251730D03*
X0778000Y0251730D03*
X0787840Y0251730D03*
D111*
X0795710Y0281250D03*
X0760280Y0281250D03*
X0695710Y0281250D03*
X0660280Y0281250D03*
X0595710Y0281250D03*
X0560280Y0281250D03*
X0495710Y0281250D03*
X0460280Y0281250D03*
D82*
X0516750Y0280000D03*
X0526750Y0280000D03*
X0526750Y0290000D03*
X0526750Y0300000D03*
X0516750Y0290000D03*
X0516750Y0270000D03*
X0526750Y0270000D03*
X0516750Y0260000D03*
X0516750Y0250000D03*
X0516750Y0240000D03*
X0516750Y0230000D03*
X0516750Y0220000D03*
X0516750Y0210000D03*
X0516750Y0200000D03*
X0516750Y0190000D03*
X0516750Y0180000D03*
X0516750Y0170000D03*
X0516750Y0160000D03*
X0516750Y0150000D03*
X0516750Y0140000D03*
X0516750Y0130000D03*
X0516750Y0120000D03*
X0516750Y0110000D03*
X0526750Y0100000D03*
X0536750Y0100000D03*
X0546750Y0100000D03*
X0586750Y0100000D03*
X0596750Y0100000D03*
X0606750Y0100000D03*
X0616750Y0100000D03*
X0626750Y0100000D03*
X0636750Y0100000D03*
X0646750Y0100000D03*
X0656750Y0100000D03*
X0666750Y0100000D03*
X0686750Y0100000D03*
X0696750Y0100000D03*
X0706750Y0100000D03*
X0716750Y0100000D03*
X0726750Y0100000D03*
X0668000Y0016250D03*
X0658000Y0016250D03*
X0648000Y0016250D03*
X0638000Y0016250D03*
X0628000Y0016250D03*
X0618000Y0016250D03*
X0608000Y0016250D03*
X0598000Y0016250D03*
X0588000Y0016250D03*
X0726750Y0210000D03*
X0726750Y0220000D03*
X0726750Y0230000D03*
X0726750Y0240000D03*
X0726750Y0250000D03*
X0726750Y0260000D03*
X0726750Y0270000D03*
X0726750Y0280000D03*
X0726750Y0290000D03*
X0726750Y0300000D03*
X0726750Y0310000D03*
X0726750Y0320000D03*
X0824250Y0291250D03*
X0824250Y0281250D03*
X0824250Y0271250D03*
X0591750Y0315000D03*
X0571750Y0315000D03*
D98*
X0609250Y0320000D03*
X0609250Y0280000D03*
X0506750Y0100000D03*
X0506750Y0060000D03*
D46*
X0481750Y0046250D03*
X0473000Y0046250D03*
X0473000Y0016250D03*
X0481750Y0016250D03*
X0553000Y0111250D03*
X0583000Y0111250D03*
X0613000Y0111250D03*
X0643000Y0111250D03*
X0643000Y0141250D03*
X0613000Y0141250D03*
X0603000Y0156250D03*
X0583000Y0141250D03*
X0573000Y0156250D03*
X0563000Y0156250D03*
X0563000Y0166250D03*
X0563000Y0176250D03*
X0563000Y0186250D03*
X0583000Y0201250D03*
X0603000Y0201250D03*
X0563000Y0206250D03*
X0563000Y0216250D03*
X0563000Y0226250D03*
X0563000Y0236250D03*
X0533000Y0236250D03*
X0533000Y0226250D03*
X0533000Y0216250D03*
X0533000Y0206250D03*
X0533000Y0186250D03*
X0533000Y0176250D03*
X0533000Y0166250D03*
X0533000Y0156250D03*
X0553000Y0141250D03*
X0678000Y0141250D03*
X0678000Y0151250D03*
X0678000Y0161250D03*
X0678000Y0171250D03*
X0678000Y0181250D03*
X0708000Y0181250D03*
X0708000Y0171250D03*
X0708000Y0161250D03*
X0708000Y0151250D03*
X0708000Y0141250D03*
X0728000Y0078750D03*
X0733000Y0071250D03*
X0723000Y0071250D03*
X0728000Y0053750D03*
X0733000Y0046250D03*
X0723000Y0046250D03*
X0713000Y0026250D03*
X0713000Y0016250D03*
X0743000Y0016250D03*
X0743000Y0026250D03*
X0708000Y0211250D03*
X0708000Y0221250D03*
X0708000Y0231250D03*
X0698000Y0241250D03*
X0678000Y0241250D03*
X0678000Y0231250D03*
X0678000Y0221250D03*
X0678000Y0211250D03*
X0638000Y0256250D03*
X0618000Y0256250D03*
D80*
X0633000Y0286070D03*
X0651500Y0297880D03*
X0633000Y0309690D03*
D12*
X0774870Y0240940D03*
X0799560Y0240940D03*
X0824560Y0240940D03*
X0824560Y0176880D03*
X0824560Y0160940D03*
X0799560Y0160940D03*
X0799250Y0176880D03*
X0774870Y0176880D03*
X0774870Y0160940D03*
X0774870Y0096880D03*
X0774870Y0080940D03*
X0799560Y0080940D03*
X0799250Y0096880D03*
X0824560Y0096880D03*
X0824560Y0080940D03*
X0824560Y0016880D03*
X0799250Y0016880D03*
X0774870Y0016880D03*
X0481120Y0096570D03*
X0456430Y0096570D03*
X0431430Y0096570D03*
X0431430Y0160630D03*
X0431430Y0176570D03*
X0456430Y0176570D03*
X0456750Y0160630D03*
X0481120Y0160630D03*
X0481120Y0176570D03*
X0481120Y0240630D03*
X0456750Y0240630D03*
X0431430Y0240630D03*
D105*
X0516750Y0100000D03*
X0556750Y0100000D03*
D14*
X0598000Y0213650D02*
X0598000Y0218850D01*
X0608000Y0218850D02*
X0608000Y0213650D01*
X0618000Y0213650D02*
X0618000Y0218850D01*
X0628000Y0218850D02*
X0628000Y0213650D01*
X0638000Y0213650D02*
X0638000Y0218850D01*
X0648000Y0218850D02*
X0648000Y0213650D01*
X0658000Y0213650D02*
X0658000Y0218850D01*
X0658000Y0243650D02*
X0658000Y0248850D01*
X0648000Y0248850D02*
X0648000Y0243650D01*
X0638000Y0243650D02*
X0638000Y0248850D01*
X0628000Y0248850D02*
X0628000Y0243650D01*
X0618000Y0243650D02*
X0618000Y0248850D01*
X0608000Y0248850D02*
X0608000Y0243650D01*
X0598000Y0243650D02*
X0598000Y0248850D01*
X0713000Y0083850D02*
X0713000Y0078650D01*
X0713000Y0043850D02*
X0713000Y0038650D01*
D15*
X0643000Y0161250D03*
X0613000Y0161250D03*
X0613000Y0201250D03*
X0643000Y0201250D03*
D11*
X0460800Y0051170D03*
X0453000Y0051170D03*
X0453000Y0041330D03*
X0460800Y0041330D03*
D31*
X0442300Y0022550D03*
X0442300Y0069950D03*
D100*
X0529250Y0078250D02*
X0529250Y0084250D01*
X0539250Y0084250D02*
X0539250Y0078250D01*
X0549250Y0078250D02*
X0549250Y0084250D01*
D110*
X0539250Y0022250D03*
D48*
X0498000Y0041250D03*
X0478000Y0071250D03*
X0568000Y0116250D03*
X0568000Y0136250D03*
X0598000Y0136250D03*
X0598000Y0116250D03*
X0628000Y0116250D03*
X0628000Y0136250D03*
X0658000Y0136250D03*
X0668000Y0151250D03*
X0668000Y0171250D03*
X0678000Y0191250D03*
X0678000Y0201250D03*
X0698000Y0201250D03*
X0698000Y0191250D03*
X0728000Y0186250D03*
X0728000Y0158750D03*
X0728000Y0131250D03*
X0658000Y0116250D03*
X0573000Y0166250D03*
X0573000Y0186250D03*
X0553000Y0196250D03*
X0533000Y0196250D03*
X0573000Y0216250D03*
X0583000Y0216250D03*
X0583000Y0236250D03*
X0573000Y0236250D03*
D66*
X0728000Y0176250D03*
X0728000Y0148750D03*
X0728000Y0121250D03*
X0508000Y0041250D03*
X0488000Y0071250D03*
D65*
X0596990Y0074360D03*
X0596990Y0056250D03*
X0596990Y0038140D03*
X0617660Y0038140D03*
X0617660Y0056250D03*
X0617660Y0074360D03*
X0638330Y0074360D03*
X0638330Y0056250D03*
X0638330Y0038140D03*
X0659000Y0038140D03*
X0659000Y0056250D03*
X0659000Y0074360D03*
X0425000Y0335000D02*
G75*
%LPD*%
D50*
X0468150Y0576730D03*
X0478000Y0576730D03*
X0487840Y0576730D03*
X0568150Y0576730D03*
X0578000Y0576730D03*
X0587840Y0576730D03*
X0668150Y0576730D03*
X0678000Y0576730D03*
X0687840Y0576730D03*
X0768150Y0576730D03*
X0778000Y0576730D03*
X0787840Y0576730D03*
D111*
X0795710Y0606250D03*
X0760280Y0606250D03*
X0695710Y0606250D03*
X0660280Y0606250D03*
X0595710Y0606250D03*
X0560280Y0606250D03*
X0495710Y0606250D03*
X0460280Y0606250D03*
D82*
X0516750Y0605000D03*
X0526750Y0605000D03*
X0526750Y0615000D03*
X0526750Y0625000D03*
X0516750Y0615000D03*
X0516750Y0595000D03*
X0526750Y0595000D03*
X0516750Y0585000D03*
X0516750Y0575000D03*
X0516750Y0565000D03*
X0516750Y0555000D03*
X0516750Y0545000D03*
X0516750Y0535000D03*
X0516750Y0525000D03*
X0516750Y0515000D03*
X0516750Y0505000D03*
X0516750Y0495000D03*
X0516750Y0485000D03*
X0516750Y0475000D03*
X0516750Y0465000D03*
X0516750Y0455000D03*
X0516750Y0445000D03*
X0516750Y0435000D03*
X0526750Y0425000D03*
X0536750Y0425000D03*
X0546750Y0425000D03*
X0586750Y0425000D03*
X0596750Y0425000D03*
X0606750Y0425000D03*
X0616750Y0425000D03*
X0626750Y0425000D03*
X0636750Y0425000D03*
X0646750Y0425000D03*
X0656750Y0425000D03*
X0666750Y0425000D03*
X0686750Y0425000D03*
X0696750Y0425000D03*
X0706750Y0425000D03*
X0716750Y0425000D03*
X0726750Y0425000D03*
X0668000Y0341250D03*
X0658000Y0341250D03*
X0648000Y0341250D03*
X0638000Y0341250D03*
X0628000Y0341250D03*
X0618000Y0341250D03*
X0608000Y0341250D03*
X0598000Y0341250D03*
X0588000Y0341250D03*
X0726750Y0535000D03*
X0726750Y0545000D03*
X0726750Y0555000D03*
X0726750Y0565000D03*
X0726750Y0575000D03*
X0726750Y0585000D03*
X0726750Y0595000D03*
X0726750Y0605000D03*
X0726750Y0615000D03*
X0726750Y0625000D03*
X0726750Y0635000D03*
X0726750Y0645000D03*
X0824250Y0616250D03*
X0824250Y0606250D03*
X0824250Y0596250D03*
X0591750Y0640000D03*
X0571750Y0640000D03*
D98*
X0609250Y0645000D03*
X0609250Y0605000D03*
X0506750Y0425000D03*
X0506750Y0385000D03*
D46*
X0481750Y0371250D03*
X0473000Y0371250D03*
X0473000Y0341250D03*
X0481750Y0341250D03*
X0553000Y0436250D03*
X0583000Y0436250D03*
X0613000Y0436250D03*
X0643000Y0436250D03*
X0643000Y0466250D03*
X0613000Y0466250D03*
X0603000Y0481250D03*
X0583000Y0466250D03*
X0573000Y0481250D03*
X0563000Y0481250D03*
X0563000Y0491250D03*
X0563000Y0501250D03*
X0563000Y0511250D03*
X0583000Y0526250D03*
X0603000Y0526250D03*
X0563000Y0531250D03*
X0563000Y0541250D03*
X0563000Y0551250D03*
X0563000Y0561250D03*
X0533000Y0561250D03*
X0533000Y0551250D03*
X0533000Y0541250D03*
X0533000Y0531250D03*
X0533000Y0511250D03*
X0533000Y0501250D03*
X0533000Y0491250D03*
X0533000Y0481250D03*
X0553000Y0466250D03*
X0678000Y0466250D03*
X0678000Y0476250D03*
X0678000Y0486250D03*
X0678000Y0496250D03*
X0678000Y0506250D03*
X0708000Y0506250D03*
X0708000Y0496250D03*
X0708000Y0486250D03*
X0708000Y0476250D03*
X0708000Y0466250D03*
X0728000Y0403750D03*
X0733000Y0396250D03*
X0723000Y0396250D03*
X0728000Y0378750D03*
X0733000Y0371250D03*
X0723000Y0371250D03*
X0713000Y0351250D03*
X0713000Y0341250D03*
X0743000Y0341250D03*
X0743000Y0351250D03*
X0708000Y0536250D03*
X0708000Y0546250D03*
X0708000Y0556250D03*
X0698000Y0566250D03*
X0678000Y0566250D03*
X0678000Y0556250D03*
X0678000Y0546250D03*
X0678000Y0536250D03*
X0638000Y0581250D03*
X0618000Y0581250D03*
D80*
X0633000Y0611070D03*
X0651500Y0622880D03*
X0633000Y0634690D03*
D12*
X0774870Y0565940D03*
X0799560Y0565940D03*
X0824560Y0565940D03*
X0824560Y0501880D03*
X0824560Y0485940D03*
X0799560Y0485940D03*
X0799250Y0501880D03*
X0774870Y0501880D03*
X0774870Y0485940D03*
X0774870Y0421880D03*
X0774870Y0405940D03*
X0799560Y0405940D03*
X0799250Y0421880D03*
X0824560Y0421880D03*
X0824560Y0405940D03*
X0824560Y0341880D03*
X0799250Y0341880D03*
X0774870Y0341880D03*
X0481120Y0421570D03*
X0456430Y0421570D03*
X0431430Y0421570D03*
X0431430Y0485630D03*
X0431430Y0501570D03*
X0456430Y0501570D03*
X0456750Y0485630D03*
X0481120Y0485630D03*
X0481120Y0501570D03*
X0481120Y0565630D03*
X0456750Y0565630D03*
X0431430Y0565630D03*
D105*
X0516750Y0425000D03*
X0556750Y0425000D03*
D14*
X0598000Y0538650D02*
X0598000Y0543850D01*
X0608000Y0543850D02*
X0608000Y0538650D01*
X0618000Y0538650D02*
X0618000Y0543850D01*
X0628000Y0543850D02*
X0628000Y0538650D01*
X0638000Y0538650D02*
X0638000Y0543850D01*
X0648000Y0543850D02*
X0648000Y0538650D01*
X0658000Y0538650D02*
X0658000Y0543850D01*
X0658000Y0568650D02*
X0658000Y0573850D01*
X0648000Y0573850D02*
X0648000Y0568650D01*
X0638000Y0568650D02*
X0638000Y0573850D01*
X0628000Y0573850D02*
X0628000Y0568650D01*
X0618000Y0568650D02*
X0618000Y0573850D01*
X0608000Y0573850D02*
X0608000Y0568650D01*
X0598000Y0568650D02*
X0598000Y0573850D01*
X0713000Y0408850D02*
X0713000Y0403650D01*
X0713000Y0368850D02*
X0713000Y0363650D01*
D15*
X0643000Y0486250D03*
X0613000Y0486250D03*
X0613000Y0526250D03*
X0643000Y0526250D03*
D11*
X0460800Y0376170D03*
X0453000Y0376170D03*
X0453000Y0366330D03*
X0460800Y0366330D03*
D31*
X0442300Y0347550D03*
X0442300Y0394950D03*
D100*
X0529250Y0403250D02*
X0529250Y0409250D01*
X0539250Y0409250D02*
X0539250Y0403250D01*
X0549250Y0403250D02*
X0549250Y0409250D01*
D110*
X0539250Y0347250D03*
D48*
X0498000Y0366250D03*
X0478000Y0396250D03*
X0568000Y0441250D03*
X0568000Y0461250D03*
X0598000Y0461250D03*
X0598000Y0441250D03*
X0628000Y0441250D03*
X0628000Y0461250D03*
X0658000Y0461250D03*
X0668000Y0476250D03*
X0668000Y0496250D03*
X0678000Y0516250D03*
X0678000Y0526250D03*
X0698000Y0526250D03*
X0698000Y0516250D03*
X0728000Y0511250D03*
X0728000Y0483750D03*
X0728000Y0456250D03*
X0658000Y0441250D03*
X0573000Y0491250D03*
X0573000Y0511250D03*
X0553000Y0521250D03*
X0533000Y0521250D03*
X0573000Y0541250D03*
X0583000Y0541250D03*
X0583000Y0561250D03*
X0573000Y0561250D03*
D66*
X0728000Y0501250D03*
X0728000Y0473750D03*
X0728000Y0446250D03*
X0508000Y0366250D03*
X0488000Y0396250D03*
D65*
X0596990Y0399360D03*
X0596990Y0381250D03*
X0596990Y0363140D03*
X0617660Y0363140D03*
X0617660Y0381250D03*
X0617660Y0399360D03*
X0638330Y0399360D03*
X0638330Y0381250D03*
X0638330Y0363140D03*
X0659000Y0363140D03*
X0659000Y0381250D03*
X0659000Y0399360D03*
X0425000Y0660000D02*
G75*
%LPD*%
D50*
X0468150Y0901730D03*
X0478000Y0901730D03*
X0487840Y0901730D03*
X0568150Y0901730D03*
X0578000Y0901730D03*
X0587840Y0901730D03*
X0668150Y0901730D03*
X0678000Y0901730D03*
X0687840Y0901730D03*
X0768150Y0901730D03*
X0778000Y0901730D03*
X0787840Y0901730D03*
D111*
X0795710Y0931250D03*
X0760280Y0931250D03*
X0695710Y0931250D03*
X0660280Y0931250D03*
X0595710Y0931250D03*
X0560280Y0931250D03*
X0495710Y0931250D03*
X0460280Y0931250D03*
D82*
X0516750Y0930000D03*
X0526750Y0930000D03*
X0526750Y0940000D03*
X0526750Y0950000D03*
X0516750Y0940000D03*
X0516750Y0920000D03*
X0526750Y0920000D03*
X0516750Y0910000D03*
X0516750Y0900000D03*
X0516750Y0890000D03*
X0516750Y0880000D03*
X0516750Y0870000D03*
X0516750Y0860000D03*
X0516750Y0850000D03*
X0516750Y0840000D03*
X0516750Y0830000D03*
X0516750Y0820000D03*
X0516750Y0810000D03*
X0516750Y0800000D03*
X0516750Y0790000D03*
X0516750Y0780000D03*
X0516750Y0770000D03*
X0516750Y0760000D03*
X0526750Y0750000D03*
X0536750Y0750000D03*
X0546750Y0750000D03*
X0586750Y0750000D03*
X0596750Y0750000D03*
X0606750Y0750000D03*
X0616750Y0750000D03*
X0626750Y0750000D03*
X0636750Y0750000D03*
X0646750Y0750000D03*
X0656750Y0750000D03*
X0666750Y0750000D03*
X0686750Y0750000D03*
X0696750Y0750000D03*
X0706750Y0750000D03*
X0716750Y0750000D03*
X0726750Y0750000D03*
X0668000Y0666250D03*
X0658000Y0666250D03*
X0648000Y0666250D03*
X0638000Y0666250D03*
X0628000Y0666250D03*
X0618000Y0666250D03*
X0608000Y0666250D03*
X0598000Y0666250D03*
X0588000Y0666250D03*
X0726750Y0860000D03*
X0726750Y0870000D03*
X0726750Y0880000D03*
X0726750Y0890000D03*
X0726750Y0900000D03*
X0726750Y0910000D03*
X0726750Y0920000D03*
X0726750Y0930000D03*
X0726750Y0940000D03*
X0726750Y0950000D03*
X0726750Y0960000D03*
X0726750Y0970000D03*
X0824250Y0941250D03*
X0824250Y0931250D03*
X0824250Y0921250D03*
X0591750Y0965000D03*
X0571750Y0965000D03*
D98*
X0609250Y0970000D03*
X0609250Y0930000D03*
X0506750Y0750000D03*
X0506750Y0710000D03*
D46*
X0481750Y0696250D03*
X0473000Y0696250D03*
X0473000Y0666250D03*
X0481750Y0666250D03*
X0553000Y0761250D03*
X0583000Y0761250D03*
X0613000Y0761250D03*
X0643000Y0761250D03*
X0643000Y0791250D03*
X0613000Y0791250D03*
X0603000Y0806250D03*
X0583000Y0791250D03*
X0573000Y0806250D03*
X0563000Y0806250D03*
X0563000Y0816250D03*
X0563000Y0826250D03*
X0563000Y0836250D03*
X0583000Y0851250D03*
X0603000Y0851250D03*
X0563000Y0856250D03*
X0563000Y0866250D03*
X0563000Y0876250D03*
X0563000Y0886250D03*
X0533000Y0886250D03*
X0533000Y0876250D03*
X0533000Y0866250D03*
X0533000Y0856250D03*
X0533000Y0836250D03*
X0533000Y0826250D03*
X0533000Y0816250D03*
X0533000Y0806250D03*
X0553000Y0791250D03*
X0678000Y0791250D03*
X0678000Y0801250D03*
X0678000Y0811250D03*
X0678000Y0821250D03*
X0678000Y0831250D03*
X0708000Y0831250D03*
X0708000Y0821250D03*
X0708000Y0811250D03*
X0708000Y0801250D03*
X0708000Y0791250D03*
X0728000Y0728750D03*
X0733000Y0721250D03*
X0723000Y0721250D03*
X0728000Y0703750D03*
X0733000Y0696250D03*
X0723000Y0696250D03*
X0713000Y0676250D03*
X0713000Y0666250D03*
X0743000Y0666250D03*
X0743000Y0676250D03*
X0708000Y0861250D03*
X0708000Y0871250D03*
X0708000Y0881250D03*
X0698000Y0891250D03*
X0678000Y0891250D03*
X0678000Y0881250D03*
X0678000Y0871250D03*
X0678000Y0861250D03*
X0638000Y0906250D03*
X0618000Y0906250D03*
D80*
X0633000Y0936070D03*
X0651500Y0947880D03*
X0633000Y0959690D03*
D12*
X0774870Y0890940D03*
X0799560Y0890940D03*
X0824560Y0890940D03*
X0824560Y0826880D03*
X0824560Y0810940D03*
X0799560Y0810940D03*
X0799250Y0826880D03*
X0774870Y0826880D03*
X0774870Y0810940D03*
X0774870Y0746880D03*
X0774870Y0730940D03*
X0799560Y0730940D03*
X0799250Y0746880D03*
X0824560Y0746880D03*
X0824560Y0730940D03*
X0824560Y0666880D03*
X0799250Y0666880D03*
X0774870Y0666880D03*
X0481120Y0746570D03*
X0456430Y0746570D03*
X0431430Y0746570D03*
X0431430Y0810630D03*
X0431430Y0826570D03*
X0456430Y0826570D03*
X0456750Y0810630D03*
X0481120Y0810630D03*
X0481120Y0826570D03*
X0481120Y0890630D03*
X0456750Y0890630D03*
X0431430Y0890630D03*
D105*
X0516750Y0750000D03*
X0556750Y0750000D03*
D14*
X0598000Y0863650D02*
X0598000Y0868850D01*
X0608000Y0868850D02*
X0608000Y0863650D01*
X0618000Y0863650D02*
X0618000Y0868850D01*
X0628000Y0868850D02*
X0628000Y0863650D01*
X0638000Y0863650D02*
X0638000Y0868850D01*
X0648000Y0868850D02*
X0648000Y0863650D01*
X0658000Y0863650D02*
X0658000Y0868850D01*
X0658000Y0893650D02*
X0658000Y0898850D01*
X0648000Y0898850D02*
X0648000Y0893650D01*
X0638000Y0893650D02*
X0638000Y0898850D01*
X0628000Y0898850D02*
X0628000Y0893650D01*
X0618000Y0893650D02*
X0618000Y0898850D01*
X0608000Y0898850D02*
X0608000Y0893650D01*
X0598000Y0893650D02*
X0598000Y0898850D01*
X0713000Y0733850D02*
X0713000Y0728650D01*
X0713000Y0693850D02*
X0713000Y0688650D01*
D15*
X0643000Y0811250D03*
X0613000Y0811250D03*
X0613000Y0851250D03*
X0643000Y0851250D03*
D11*
X0460800Y0701170D03*
X0453000Y0701170D03*
X0453000Y0691330D03*
X0460800Y0691330D03*
D31*
X0442300Y0672550D03*
X0442300Y0719950D03*
D100*
X0529250Y0728250D02*
X0529250Y0734250D01*
X0539250Y0734250D02*
X0539250Y0728250D01*
X0549250Y0728250D02*
X0549250Y0734250D01*
D110*
X0539250Y0672250D03*
D48*
X0498000Y0691250D03*
X0478000Y0721250D03*
X0568000Y0766250D03*
X0568000Y0786250D03*
X0598000Y0786250D03*
X0598000Y0766250D03*
X0628000Y0766250D03*
X0628000Y0786250D03*
X0658000Y0786250D03*
X0668000Y0801250D03*
X0668000Y0821250D03*
X0678000Y0841250D03*
X0678000Y0851250D03*
X0698000Y0851250D03*
X0698000Y0841250D03*
X0728000Y0836250D03*
X0728000Y0808750D03*
X0728000Y0781250D03*
X0658000Y0766250D03*
X0573000Y0816250D03*
X0573000Y0836250D03*
X0553000Y0846250D03*
X0533000Y0846250D03*
X0573000Y0866250D03*
X0583000Y0866250D03*
X0583000Y0886250D03*
X0573000Y0886250D03*
D66*
X0728000Y0826250D03*
X0728000Y0798750D03*
X0728000Y0771250D03*
X0508000Y0691250D03*
X0488000Y0721250D03*
D65*
X0596990Y0724360D03*
X0596990Y0706250D03*
X0596990Y0688140D03*
X0617660Y0688140D03*
X0617660Y0706250D03*
X0617660Y0724360D03*
X0638330Y0724360D03*
X0638330Y0706250D03*
X0638330Y0688140D03*
X0659000Y0688140D03*
X0659000Y0706250D03*
X0659000Y0724360D03*
X0845000Y0010000D02*
G75*
%LPD*%
D82*
X0850000Y0065250D03*
X0850000Y0075250D03*
X0850000Y0085250D03*
X0850000Y0095250D03*
X0850000Y0105250D03*
X0850000Y0195250D03*
X0850000Y0205250D03*
X0850000Y0215250D03*
X0860000Y0225250D03*
X0870000Y0225250D03*
X0880000Y0225250D03*
X0890000Y0225250D03*
X0900000Y0225250D03*
X0910000Y0225250D03*
X0920000Y0225250D03*
X0930000Y0225250D03*
X0940000Y0225250D03*
X0950000Y0225250D03*
X0960000Y0225250D03*
X0970000Y0225250D03*
X0980000Y0225250D03*
X0990000Y0225250D03*
X1000000Y0225250D03*
X1010000Y0225250D03*
X1020000Y0225250D03*
X1030000Y0225250D03*
X1040000Y0225250D03*
X1040000Y0015250D03*
X1050000Y0015250D03*
X1060000Y0015250D03*
X1070000Y0015250D03*
X1030000Y0015250D03*
X1020000Y0015250D03*
X1010000Y0015250D03*
X1000000Y0015250D03*
X0990000Y0015250D03*
D22*
X0890000Y0045250D03*
X0880000Y0045250D03*
X0880000Y0055250D03*
X0890000Y0055250D03*
X0870000Y0055250D03*
X0870000Y0045250D03*
X0860000Y0045250D03*
X0860000Y0055250D03*
X0850000Y0055250D03*
X0850000Y0045250D03*
D105*
X0850000Y0185250D03*
X0850000Y0225250D03*
D23*
X0850000Y0035250D03*
X0960000Y0015250D03*
D100*
X0850000Y0015250D03*
X0850000Y0025250D03*
X0970000Y0015250D03*
X0980000Y0015250D03*
D58*
X1074630Y0192570D03*
X1074630Y0225440D03*
D56*
X1062330Y0217760D02*
X1057590Y0217760D01*
X1057590Y0200240D02*
X1062330Y0200240D01*
D63*
X1008750Y0046500D03*
X1003750Y0046500D03*
X1003750Y0036500D03*
X1008750Y0036500D03*
X0845000Y0250000D02*
G75*
%LPD*%
D82*
X0850000Y0305250D03*
X0850000Y0315250D03*
X0850000Y0325250D03*
X0850000Y0335250D03*
X0850000Y0345250D03*
X0850000Y0435250D03*
X0850000Y0445250D03*
X0850000Y0455250D03*
X0860000Y0465250D03*
X0870000Y0465250D03*
X0880000Y0465250D03*
X0890000Y0465250D03*
X0900000Y0465250D03*
X0910000Y0465250D03*
X0920000Y0465250D03*
X0930000Y0465250D03*
X0940000Y0465250D03*
X0950000Y0465250D03*
X0960000Y0465250D03*
X0970000Y0465250D03*
X0980000Y0465250D03*
X0990000Y0465250D03*
X1000000Y0465250D03*
X1010000Y0465250D03*
X1020000Y0465250D03*
X1030000Y0465250D03*
X1040000Y0465250D03*
X1040000Y0255250D03*
X1050000Y0255250D03*
X1060000Y0255250D03*
X1070000Y0255250D03*
X1030000Y0255250D03*
X1020000Y0255250D03*
X1010000Y0255250D03*
X1000000Y0255250D03*
X0990000Y0255250D03*
D22*
X0890000Y0285250D03*
X0880000Y0285250D03*
X0880000Y0295250D03*
X0890000Y0295250D03*
X0870000Y0295250D03*
X0870000Y0285250D03*
X0860000Y0285250D03*
X0860000Y0295250D03*
X0850000Y0295250D03*
X0850000Y0285250D03*
D105*
X0850000Y0425250D03*
X0850000Y0465250D03*
D23*
X0850000Y0275250D03*
X0960000Y0255250D03*
D100*
X0850000Y0255250D03*
X0850000Y0265250D03*
X0970000Y0255250D03*
X0980000Y0255250D03*
D58*
X1074630Y0432570D03*
X1074630Y0465440D03*
D56*
X1062330Y0457760D02*
X1057590Y0457760D01*
X1057590Y0440240D02*
X1062330Y0440240D01*
D63*
X1008750Y0286500D03*
X1003750Y0286500D03*
X1003750Y0276500D03*
X1008750Y0276500D03*
X0845000Y0490000D02*
G75*
%LPD*%
D82*
X0850000Y0545250D03*
X0850000Y0555250D03*
X0850000Y0565250D03*
X0850000Y0575250D03*
X0850000Y0585250D03*
X0850000Y0675250D03*
X0850000Y0685250D03*
X0850000Y0695250D03*
X0860000Y0705250D03*
X0870000Y0705250D03*
X0880000Y0705250D03*
X0890000Y0705250D03*
X0900000Y0705250D03*
X0910000Y0705250D03*
X0920000Y0705250D03*
X0930000Y0705250D03*
X0940000Y0705250D03*
X0950000Y0705250D03*
X0960000Y0705250D03*
X0970000Y0705250D03*
X0980000Y0705250D03*
X0990000Y0705250D03*
X1000000Y0705250D03*
X1010000Y0705250D03*
X1020000Y0705250D03*
X1030000Y0705250D03*
X1040000Y0705250D03*
X1040000Y0495250D03*
X1050000Y0495250D03*
X1060000Y0495250D03*
X1070000Y0495250D03*
X1030000Y0495250D03*
X1020000Y0495250D03*
X1010000Y0495250D03*
X1000000Y0495250D03*
X0990000Y0495250D03*
D22*
X0890000Y0525250D03*
X0880000Y0525250D03*
X0880000Y0535250D03*
X0890000Y0535250D03*
X0870000Y0535250D03*
X0870000Y0525250D03*
X0860000Y0525250D03*
X0860000Y0535250D03*
X0850000Y0535250D03*
X0850000Y0525250D03*
D105*
X0850000Y0665250D03*
X0850000Y0705250D03*
D23*
X0850000Y0515250D03*
X0960000Y0495250D03*
D100*
X0850000Y0495250D03*
X0850000Y0505250D03*
X0970000Y0495250D03*
X0980000Y0495250D03*
D58*
X1074630Y0672570D03*
X1074630Y0705440D03*
D56*
X1062330Y0697760D02*
X1057590Y0697760D01*
X1057590Y0680240D02*
X1062330Y0680240D01*
D63*
X1008750Y0526500D03*
X1003750Y0526500D03*
X1003750Y0516500D03*
X1008750Y0516500D03*
X0845000Y0730000D02*
G75*
%LPD*%
D82*
X0850000Y0785250D03*
X0850000Y0795250D03*
X0850000Y0805250D03*
X0850000Y0815250D03*
X0850000Y0825250D03*
X0850000Y0915250D03*
X0850000Y0925250D03*
X0850000Y0935250D03*
X0860000Y0945250D03*
X0870000Y0945250D03*
X0880000Y0945250D03*
X0890000Y0945250D03*
X0900000Y0945250D03*
X0910000Y0945250D03*
X0920000Y0945250D03*
X0930000Y0945250D03*
X0940000Y0945250D03*
X0950000Y0945250D03*
X0960000Y0945250D03*
X0970000Y0945250D03*
X0980000Y0945250D03*
X0990000Y0945250D03*
X1000000Y0945250D03*
X1010000Y0945250D03*
X1020000Y0945250D03*
X1030000Y0945250D03*
X1040000Y0945250D03*
X1040000Y0735250D03*
X1050000Y0735250D03*
X1060000Y0735250D03*
X1070000Y0735250D03*
X1030000Y0735250D03*
X1020000Y0735250D03*
X1010000Y0735250D03*
X1000000Y0735250D03*
X0990000Y0735250D03*
D22*
X0890000Y0765250D03*
X0880000Y0765250D03*
X0880000Y0775250D03*
X0890000Y0775250D03*
X0870000Y0775250D03*
X0870000Y0765250D03*
X0860000Y0765250D03*
X0860000Y0775250D03*
X0850000Y0775250D03*
X0850000Y0765250D03*
D105*
X0850000Y0905250D03*
X0850000Y0945250D03*
D23*
X0850000Y0755250D03*
X0960000Y0735250D03*
D100*
X0850000Y0735250D03*
X0850000Y0745250D03*
X0970000Y0735250D03*
X0980000Y0735250D03*
D58*
X1074630Y0912570D03*
X1074630Y0945440D03*
D56*
X1062330Y0937760D02*
X1057590Y0937760D01*
X1057590Y0920240D02*
X1062330Y0920240D01*
D63*
X1008750Y0766500D03*
X1003750Y0766500D03*
X1003750Y0756500D03*
X1008750Y0756500D03*
X1095000Y0010000D02*
G75*
%LPD*%
D82*
X1100000Y0065250D03*
X1100000Y0075250D03*
X1100000Y0085250D03*
X1100000Y0095250D03*
X1100000Y0105250D03*
X1100000Y0195250D03*
X1100000Y0205250D03*
X1100000Y0215250D03*
X1110000Y0225250D03*
X1120000Y0225250D03*
X1130000Y0225250D03*
X1140000Y0225250D03*
X1150000Y0225250D03*
X1160000Y0225250D03*
X1170000Y0225250D03*
X1180000Y0225250D03*
X1190000Y0225250D03*
X1200000Y0225250D03*
X1210000Y0225250D03*
X1220000Y0225250D03*
X1230000Y0225250D03*
X1240000Y0225250D03*
X1250000Y0225250D03*
X1260000Y0225250D03*
X1270000Y0225250D03*
X1280000Y0225250D03*
X1290000Y0225250D03*
X1290000Y0015250D03*
X1300000Y0015250D03*
X1310000Y0015250D03*
X1320000Y0015250D03*
X1280000Y0015250D03*
X1270000Y0015250D03*
X1260000Y0015250D03*
X1250000Y0015250D03*
X1240000Y0015250D03*
D22*
X1140000Y0045250D03*
X1130000Y0045250D03*
X1130000Y0055250D03*
X1140000Y0055250D03*
X1120000Y0055250D03*
X1120000Y0045250D03*
X1110000Y0045250D03*
X1110000Y0055250D03*
X1100000Y0055250D03*
X1100000Y0045250D03*
D105*
X1100000Y0185250D03*
X1100000Y0225250D03*
D23*
X1100000Y0035250D03*
X1210000Y0015250D03*
D100*
X1100000Y0015250D03*
X1100000Y0025250D03*
X1220000Y0015250D03*
X1230000Y0015250D03*
D58*
X1324630Y0192570D03*
X1324630Y0225440D03*
D56*
X1312330Y0217760D02*
X1307590Y0217760D01*
X1307590Y0200240D02*
X1312330Y0200240D01*
D63*
X1258750Y0046500D03*
X1253750Y0046500D03*
X1253750Y0036500D03*
X1258750Y0036500D03*
X1095000Y0250000D02*
G75*
%LPD*%
D82*
X1100000Y0305250D03*
X1100000Y0315250D03*
X1100000Y0325250D03*
X1100000Y0335250D03*
X1100000Y0345250D03*
X1100000Y0435250D03*
X1100000Y0445250D03*
X1100000Y0455250D03*
X1110000Y0465250D03*
X1120000Y0465250D03*
X1130000Y0465250D03*
X1140000Y0465250D03*
X1150000Y0465250D03*
X1160000Y0465250D03*
X1170000Y0465250D03*
X1180000Y0465250D03*
X1190000Y0465250D03*
X1200000Y0465250D03*
X1210000Y0465250D03*
X1220000Y0465250D03*
X1230000Y0465250D03*
X1240000Y0465250D03*
X1250000Y0465250D03*
X1260000Y0465250D03*
X1270000Y0465250D03*
X1280000Y0465250D03*
X1290000Y0465250D03*
X1290000Y0255250D03*
X1300000Y0255250D03*
X1310000Y0255250D03*
X1320000Y0255250D03*
X1280000Y0255250D03*
X1270000Y0255250D03*
X1260000Y0255250D03*
X1250000Y0255250D03*
X1240000Y0255250D03*
D22*
X1140000Y0285250D03*
X1130000Y0285250D03*
X1130000Y0295250D03*
X1140000Y0295250D03*
X1120000Y0295250D03*
X1120000Y0285250D03*
X1110000Y0285250D03*
X1110000Y0295250D03*
X1100000Y0295250D03*
X1100000Y0285250D03*
D105*
X1100000Y0425250D03*
X1100000Y0465250D03*
D23*
X1100000Y0275250D03*
X1210000Y0255250D03*
D100*
X1100000Y0255250D03*
X1100000Y0265250D03*
X1220000Y0255250D03*
X1230000Y0255250D03*
D58*
X1324630Y0432570D03*
X1324630Y0465440D03*
D56*
X1312330Y0457760D02*
X1307590Y0457760D01*
X1307590Y0440240D02*
X1312330Y0440240D01*
D63*
X1258750Y0286500D03*
X1253750Y0286500D03*
X1253750Y0276500D03*
X1258750Y0276500D03*
X1095000Y0490000D02*
G75*
%LPD*%
D82*
X1100000Y0545250D03*
X1100000Y0555250D03*
X1100000Y0565250D03*
X1100000Y0575250D03*
X1100000Y0585250D03*
X1100000Y0675250D03*
X1100000Y0685250D03*
X1100000Y0695250D03*
X1110000Y0705250D03*
X1120000Y0705250D03*
X1130000Y0705250D03*
X1140000Y0705250D03*
X1150000Y0705250D03*
X1160000Y0705250D03*
X1170000Y0705250D03*
X1180000Y0705250D03*
X1190000Y0705250D03*
X1200000Y0705250D03*
X1210000Y0705250D03*
X1220000Y0705250D03*
X1230000Y0705250D03*
X1240000Y0705250D03*
X1250000Y0705250D03*
X1260000Y0705250D03*
X1270000Y0705250D03*
X1280000Y0705250D03*
X1290000Y0705250D03*
X1290000Y0495250D03*
X1300000Y0495250D03*
X1310000Y0495250D03*
X1320000Y0495250D03*
X1280000Y0495250D03*
X1270000Y0495250D03*
X1260000Y0495250D03*
X1250000Y0495250D03*
X1240000Y0495250D03*
D22*
X1140000Y0525250D03*
X1130000Y0525250D03*
X1130000Y0535250D03*
X1140000Y0535250D03*
X1120000Y0535250D03*
X1120000Y0525250D03*
X1110000Y0525250D03*
X1110000Y0535250D03*
X1100000Y0535250D03*
X1100000Y0525250D03*
D105*
X1100000Y0665250D03*
X1100000Y0705250D03*
D23*
X1100000Y0515250D03*
X1210000Y0495250D03*
D100*
X1100000Y0495250D03*
X1100000Y0505250D03*
X1220000Y0495250D03*
X1230000Y0495250D03*
D58*
X1324630Y0672570D03*
X1324630Y0705440D03*
D56*
X1312330Y0697760D02*
X1307590Y0697760D01*
X1307590Y0680240D02*
X1312330Y0680240D01*
D63*
X1258750Y0526500D03*
X1253750Y0526500D03*
X1253750Y0516500D03*
X1258750Y0516500D03*
X1095000Y0730000D02*
G75*
%LPD*%
D82*
X1100000Y0785250D03*
X1100000Y0795250D03*
X1100000Y0805250D03*
X1100000Y0815250D03*
X1100000Y0825250D03*
X1100000Y0915250D03*
X1100000Y0925250D03*
X1100000Y0935250D03*
X1110000Y0945250D03*
X1120000Y0945250D03*
X1130000Y0945250D03*
X1140000Y0945250D03*
X1150000Y0945250D03*
X1160000Y0945250D03*
X1170000Y0945250D03*
X1180000Y0945250D03*
X1190000Y0945250D03*
X1200000Y0945250D03*
X1210000Y0945250D03*
X1220000Y0945250D03*
X1230000Y0945250D03*
X1240000Y0945250D03*
X1250000Y0945250D03*
X1260000Y0945250D03*
X1270000Y0945250D03*
X1280000Y0945250D03*
X1290000Y0945250D03*
X1290000Y0735250D03*
X1300000Y0735250D03*
X1310000Y0735250D03*
X1320000Y0735250D03*
X1280000Y0735250D03*
X1270000Y0735250D03*
X1260000Y0735250D03*
X1250000Y0735250D03*
X1240000Y0735250D03*
D22*
X1140000Y0765250D03*
X1130000Y0765250D03*
X1130000Y0775250D03*
X1140000Y0775250D03*
X1120000Y0775250D03*
X1120000Y0765250D03*
X1110000Y0765250D03*
X1110000Y0775250D03*
X1100000Y0775250D03*
X1100000Y0765250D03*
D105*
X1100000Y0905250D03*
X1100000Y0945250D03*
D23*
X1100000Y0755250D03*
X1210000Y0735250D03*
D100*
X1100000Y0735250D03*
X1100000Y0745250D03*
X1220000Y0735250D03*
X1230000Y0735250D03*
D58*
X1324630Y0912570D03*
X1324630Y0945440D03*
D56*
X1312330Y0937760D02*
X1307590Y0937760D01*
X1307590Y0920240D02*
X1312330Y0920240D01*
D63*
X1258750Y0766500D03*
X1253750Y0766500D03*
X1253750Y0756500D03*
X1258750Y0756500D03*
X1340000Y0010000D02*
G75*
%LPD*%
D114*
X1353990Y0036890D03*
X1353990Y0055000D03*
X1374660Y0055000D03*
X1395330Y0055000D03*
X1395330Y0036890D03*
X1374660Y0036890D03*
X1416000Y0036890D03*
X1416000Y0055000D03*
X1416000Y0073110D03*
X1395330Y0073110D03*
X1374660Y0073110D03*
X1353990Y0073110D03*
D98*
X1345000Y0015000D03*
X1355000Y0015000D03*
X1365000Y0015000D03*
X1375000Y0015000D03*
X1385000Y0015000D03*
X1395000Y0015000D03*
X1405000Y0015000D03*
X1415000Y0015000D03*
X1425000Y0015000D03*
X1340000Y0090000D02*
G75*
%LPD*%
D114*
X1353990Y0116890D03*
X1353990Y0135000D03*
X1374660Y0135000D03*
X1395330Y0135000D03*
X1395330Y0116890D03*
X1374660Y0116890D03*
X1416000Y0116890D03*
X1416000Y0135000D03*
X1416000Y0153110D03*
X1395330Y0153110D03*
X1374660Y0153110D03*
X1353990Y0153110D03*
D98*
X1345000Y0095000D03*
X1355000Y0095000D03*
X1365000Y0095000D03*
X1375000Y0095000D03*
X1385000Y0095000D03*
X1395000Y0095000D03*
X1405000Y0095000D03*
X1415000Y0095000D03*
X1425000Y0095000D03*
X1340000Y0170000D02*
G75*
%LPD*%
D114*
X1353990Y0196890D03*
X1353990Y0215000D03*
X1374660Y0215000D03*
X1395330Y0215000D03*
X1395330Y0196890D03*
X1374660Y0196890D03*
X1416000Y0196890D03*
X1416000Y0215000D03*
X1416000Y0233110D03*
X1395330Y0233110D03*
X1374660Y0233110D03*
X1353990Y0233110D03*
D98*
X1345000Y0175000D03*
X1355000Y0175000D03*
X1365000Y0175000D03*
X1375000Y0175000D03*
X1385000Y0175000D03*
X1395000Y0175000D03*
X1405000Y0175000D03*
X1415000Y0175000D03*
X1425000Y0175000D03*
X1340000Y0250000D02*
G75*
%LPD*%
D114*
X1353990Y0276890D03*
X1353990Y0295000D03*
X1374660Y0295000D03*
X1395330Y0295000D03*
X1395330Y0276890D03*
X1374660Y0276890D03*
X1416000Y0276890D03*
X1416000Y0295000D03*
X1416000Y0313110D03*
X1395330Y0313110D03*
X1374660Y0313110D03*
X1353990Y0313110D03*
D98*
X1345000Y0255000D03*
X1355000Y0255000D03*
X1365000Y0255000D03*
X1375000Y0255000D03*
X1385000Y0255000D03*
X1395000Y0255000D03*
X1405000Y0255000D03*
X1415000Y0255000D03*
X1425000Y0255000D03*
X1340000Y0330000D02*
G75*
%LPD*%
D114*
X1353990Y0356890D03*
X1353990Y0375000D03*
X1374660Y0375000D03*
X1395330Y0375000D03*
X1395330Y0356890D03*
X1374660Y0356890D03*
X1416000Y0356890D03*
X1416000Y0375000D03*
X1416000Y0393110D03*
X1395330Y0393110D03*
X1374660Y0393110D03*
X1353990Y0393110D03*
D98*
X1345000Y0335000D03*
X1355000Y0335000D03*
X1365000Y0335000D03*
X1375000Y0335000D03*
X1385000Y0335000D03*
X1395000Y0335000D03*
X1405000Y0335000D03*
X1415000Y0335000D03*
X1425000Y0335000D03*
X1340000Y0510000D02*
G75*
%LPD*%
D114*
X1353990Y0536890D03*
X1353990Y0555000D03*
X1374660Y0555000D03*
X1395330Y0555000D03*
X1395330Y0536890D03*
X1374660Y0536890D03*
X1416000Y0536890D03*
X1416000Y0555000D03*
X1416000Y0573110D03*
X1395330Y0573110D03*
X1374660Y0573110D03*
X1353990Y0573110D03*
D98*
X1345000Y0515000D03*
X1355000Y0515000D03*
X1365000Y0515000D03*
X1375000Y0515000D03*
X1385000Y0515000D03*
X1395000Y0515000D03*
X1405000Y0515000D03*
X1415000Y0515000D03*
X1425000Y0515000D03*
X1340000Y0590000D02*
G75*
%LPD*%
D114*
X1353990Y0616890D03*
X1353990Y0635000D03*
X1374660Y0635000D03*
X1395330Y0635000D03*
X1395330Y0616890D03*
X1374660Y0616890D03*
X1416000Y0616890D03*
X1416000Y0635000D03*
X1416000Y0653110D03*
X1395330Y0653110D03*
X1374660Y0653110D03*
X1353990Y0653110D03*
D98*
X1345000Y0595000D03*
X1355000Y0595000D03*
X1365000Y0595000D03*
X1375000Y0595000D03*
X1385000Y0595000D03*
X1395000Y0595000D03*
X1405000Y0595000D03*
X1415000Y0595000D03*
X1425000Y0595000D03*
X1340000Y0670000D02*
G75*
%LPD*%
D114*
X1353990Y0696890D03*
X1353990Y0715000D03*
X1374660Y0715000D03*
X1395330Y0715000D03*
X1395330Y0696890D03*
X1374660Y0696890D03*
X1416000Y0696890D03*
X1416000Y0715000D03*
X1416000Y0733110D03*
X1395330Y0733110D03*
X1374660Y0733110D03*
X1353990Y0733110D03*
D98*
X1345000Y0675000D03*
X1355000Y0675000D03*
X1365000Y0675000D03*
X1375000Y0675000D03*
X1385000Y0675000D03*
X1395000Y0675000D03*
X1405000Y0675000D03*
X1415000Y0675000D03*
X1425000Y0675000D03*
X1340000Y0750000D02*
G75*
%LPD*%
D114*
X1353990Y0776890D03*
X1353990Y0795000D03*
X1374660Y0795000D03*
X1395330Y0795000D03*
X1395330Y0776890D03*
X1374660Y0776890D03*
X1416000Y0776890D03*
X1416000Y0795000D03*
X1416000Y0813110D03*
X1395330Y0813110D03*
X1374660Y0813110D03*
X1353990Y0813110D03*
D98*
X1345000Y0755000D03*
X1355000Y0755000D03*
X1365000Y0755000D03*
X1375000Y0755000D03*
X1385000Y0755000D03*
X1395000Y0755000D03*
X1405000Y0755000D03*
X1415000Y0755000D03*
X1425000Y0755000D03*
X1340000Y0830000D02*
G75*
%LPD*%
D114*
X1353990Y0856890D03*
X1353990Y0875000D03*
X1374660Y0875000D03*
X1395330Y0875000D03*
X1395330Y0856890D03*
X1374660Y0856890D03*
X1416000Y0856890D03*
X1416000Y0875000D03*
X1416000Y0893110D03*
X1395330Y0893110D03*
X1374660Y0893110D03*
X1353990Y0893110D03*
D98*
X1345000Y0835000D03*
X1355000Y0835000D03*
X1365000Y0835000D03*
X1375000Y0835000D03*
X1385000Y0835000D03*
X1395000Y0835000D03*
X1405000Y0835000D03*
X1415000Y0835000D03*
X1425000Y0835000D03*
X1440000Y0010000D02*
G75*
%LPD*%
D114*
X1453990Y0036890D03*
X1453990Y0055000D03*
X1474660Y0055000D03*
X1495330Y0055000D03*
X1495330Y0036890D03*
X1474660Y0036890D03*
X1516000Y0036890D03*
X1516000Y0055000D03*
X1516000Y0073110D03*
X1495330Y0073110D03*
X1474660Y0073110D03*
X1453990Y0073110D03*
D98*
X1445000Y0015000D03*
X1455000Y0015000D03*
X1465000Y0015000D03*
X1475000Y0015000D03*
X1485000Y0015000D03*
X1495000Y0015000D03*
X1505000Y0015000D03*
X1515000Y0015000D03*
X1525000Y0015000D03*
X1440000Y0090000D02*
G75*
%LPD*%
D114*
X1453990Y0116890D03*
X1453990Y0135000D03*
X1474660Y0135000D03*
X1495330Y0135000D03*
X1495330Y0116890D03*
X1474660Y0116890D03*
X1516000Y0116890D03*
X1516000Y0135000D03*
X1516000Y0153110D03*
X1495330Y0153110D03*
X1474660Y0153110D03*
X1453990Y0153110D03*
D98*
X1445000Y0095000D03*
X1455000Y0095000D03*
X1465000Y0095000D03*
X1475000Y0095000D03*
X1485000Y0095000D03*
X1495000Y0095000D03*
X1505000Y0095000D03*
X1515000Y0095000D03*
X1525000Y0095000D03*
X1440000Y0170000D02*
G75*
%LPD*%
D114*
X1453990Y0196890D03*
X1453990Y0215000D03*
X1474660Y0215000D03*
X1495330Y0215000D03*
X1495330Y0196890D03*
X1474660Y0196890D03*
X1516000Y0196890D03*
X1516000Y0215000D03*
X1516000Y0233110D03*
X1495330Y0233110D03*
X1474660Y0233110D03*
X1453990Y0233110D03*
D98*
X1445000Y0175000D03*
X1455000Y0175000D03*
X1465000Y0175000D03*
X1475000Y0175000D03*
X1485000Y0175000D03*
X1495000Y0175000D03*
X1505000Y0175000D03*
X1515000Y0175000D03*
X1525000Y0175000D03*
X1440000Y0250000D02*
G75*
%LPD*%
D114*
X1453990Y0276890D03*
X1453990Y0295000D03*
X1474660Y0295000D03*
X1495330Y0295000D03*
X1495330Y0276890D03*
X1474660Y0276890D03*
X1516000Y0276890D03*
X1516000Y0295000D03*
X1516000Y0313110D03*
X1495330Y0313110D03*
X1474660Y0313110D03*
X1453990Y0313110D03*
D98*
X1445000Y0255000D03*
X1455000Y0255000D03*
X1465000Y0255000D03*
X1475000Y0255000D03*
X1485000Y0255000D03*
X1495000Y0255000D03*
X1505000Y0255000D03*
X1515000Y0255000D03*
X1525000Y0255000D03*
X1440000Y0330000D02*
G75*
%LPD*%
D114*
X1453990Y0356890D03*
X1453990Y0375000D03*
X1474660Y0375000D03*
X1495330Y0375000D03*
X1495330Y0356890D03*
X1474660Y0356890D03*
X1516000Y0356890D03*
X1516000Y0375000D03*
X1516000Y0393110D03*
X1495330Y0393110D03*
X1474660Y0393110D03*
X1453990Y0393110D03*
D98*
X1445000Y0335000D03*
X1455000Y0335000D03*
X1465000Y0335000D03*
X1475000Y0335000D03*
X1485000Y0335000D03*
X1495000Y0335000D03*
X1505000Y0335000D03*
X1515000Y0335000D03*
X1525000Y0335000D03*
X1440000Y0510000D02*
G75*
%LPD*%
D114*
X1453990Y0536890D03*
X1453990Y0555000D03*
X1474660Y0555000D03*
X1495330Y0555000D03*
X1495330Y0536890D03*
X1474660Y0536890D03*
X1516000Y0536890D03*
X1516000Y0555000D03*
X1516000Y0573110D03*
X1495330Y0573110D03*
X1474660Y0573110D03*
X1453990Y0573110D03*
D98*
X1445000Y0515000D03*
X1455000Y0515000D03*
X1465000Y0515000D03*
X1475000Y0515000D03*
X1485000Y0515000D03*
X1495000Y0515000D03*
X1505000Y0515000D03*
X1515000Y0515000D03*
X1525000Y0515000D03*
X1440000Y0590000D02*
G75*
%LPD*%
D114*
X1453990Y0616890D03*
X1453990Y0635000D03*
X1474660Y0635000D03*
X1495330Y0635000D03*
X1495330Y0616890D03*
X1474660Y0616890D03*
X1516000Y0616890D03*
X1516000Y0635000D03*
X1516000Y0653110D03*
X1495330Y0653110D03*
X1474660Y0653110D03*
X1453990Y0653110D03*
D98*
X1445000Y0595000D03*
X1455000Y0595000D03*
X1465000Y0595000D03*
X1475000Y0595000D03*
X1485000Y0595000D03*
X1495000Y0595000D03*
X1505000Y0595000D03*
X1515000Y0595000D03*
X1525000Y0595000D03*
X1440000Y0670000D02*
G75*
%LPD*%
D114*
X1453990Y0696890D03*
X1453990Y0715000D03*
X1474660Y0715000D03*
X1495330Y0715000D03*
X1495330Y0696890D03*
X1474660Y0696890D03*
X1516000Y0696890D03*
X1516000Y0715000D03*
X1516000Y0733110D03*
X1495330Y0733110D03*
X1474660Y0733110D03*
X1453990Y0733110D03*
D98*
X1445000Y0675000D03*
X1455000Y0675000D03*
X1465000Y0675000D03*
X1475000Y0675000D03*
X1485000Y0675000D03*
X1495000Y0675000D03*
X1505000Y0675000D03*
X1515000Y0675000D03*
X1525000Y0675000D03*
X1440000Y0750000D02*
G75*
%LPD*%
D114*
X1453990Y0776890D03*
X1453990Y0795000D03*
X1474660Y0795000D03*
X1495330Y0795000D03*
X1495330Y0776890D03*
X1474660Y0776890D03*
X1516000Y0776890D03*
X1516000Y0795000D03*
X1516000Y0813110D03*
X1495330Y0813110D03*
X1474660Y0813110D03*
X1453990Y0813110D03*
D98*
X1445000Y0755000D03*
X1455000Y0755000D03*
X1465000Y0755000D03*
X1475000Y0755000D03*
X1485000Y0755000D03*
X1495000Y0755000D03*
X1505000Y0755000D03*
X1515000Y0755000D03*
X1525000Y0755000D03*
X1440000Y0830000D02*
G75*
%LPD*%
D114*
X1453990Y0856890D03*
X1453990Y0875000D03*
X1474660Y0875000D03*
X1495330Y0875000D03*
X1495330Y0856890D03*
X1474660Y0856890D03*
X1516000Y0856890D03*
X1516000Y0875000D03*
X1516000Y0893110D03*
X1495330Y0893110D03*
X1474660Y0893110D03*
X1453990Y0893110D03*
D98*
X1445000Y0835000D03*
X1455000Y0835000D03*
X1465000Y0835000D03*
X1475000Y0835000D03*
X1485000Y0835000D03*
X1495000Y0835000D03*
X1505000Y0835000D03*
X1515000Y0835000D03*
X1525000Y0835000D03*
M02*
