G75*
G70*
%OFA0B0*%
%FSLAX25Y25*%
%IPPOS*%
%LPD*%
%AMOC8*
5,1,8,0,0,1.08239X$1,22.5*
%
%ADD103C,0.00100*%
X0010000Y0010000D02*
G75*
%LPD*%
D103*
X0231500Y0010000D02*
X0010000Y0010000D01*
X0010000Y0246220D01*
X0231500Y0246220D01*
X0231500Y0010000D01*
X0244000Y0010000D02*
G75*
%LPD*%
D103*
X0483500Y0010000D02*
X0244000Y0010000D01*
X0244000Y0403710D01*
X0554750Y0403710D01*
X0554750Y0314360D01*
X0483500Y0314360D01*
X0483500Y0010000D01*
X0567250Y0010000D02*
G75*
%LPD*%
D103*
X0806750Y0010000D02*
X0567250Y0010000D01*
X0567250Y0403710D01*
X0878000Y0403710D01*
X0878000Y0314360D01*
X0806750Y0314360D01*
X0806750Y0010000D01*
X0890500Y0010000D02*
G75*
%LPD*%
D103*
X1130000Y0010000D02*
X0890500Y0010000D01*
X0890500Y0403710D01*
X1201250Y0403710D01*
X1201250Y0314360D01*
X1130000Y0314360D01*
X1130000Y0010000D01*
X1213750Y0010000D02*
G75*
%LPD*%
D103*
X1213750Y0081250D02*
X1213750Y0320750D01*
X1607460Y0320750D01*
X1607460Y0010000D01*
X1518110Y0010000D01*
X1518110Y0081250D01*
X1213750Y0081250D01*
X1213750Y0333250D02*
G75*
%LPD*%
D103*
X1213750Y0404500D02*
X1213750Y0644000D01*
X1607460Y0644000D01*
X1607460Y0333250D01*
X1518110Y0333250D01*
X1518110Y0404500D01*
X1213750Y0404500D01*
X0010000Y0258720D02*
G75*
%LPD*%
D103*
X0231500Y0258720D02*
X0010000Y0258720D01*
X0010000Y0494940D01*
X0231500Y0494940D01*
X0231500Y0258720D01*
X0010000Y0507440D02*
G75*
%LPD*%
D103*
X0010000Y0507440D02*
X0010000Y0728940D01*
X0246220Y0728940D01*
X0246220Y0507440D01*
X0010000Y0507440D01*
X0258720Y0416210D02*
G75*
%LPD*%
D103*
X0258720Y0487460D02*
X0258720Y0726960D01*
X0652430Y0726960D01*
X0652430Y0416210D01*
X0563080Y0416210D01*
X0563080Y0487460D01*
X0258720Y0487460D01*
X0010000Y0741440D02*
G75*
%LPD*%
D103*
X0010000Y0741440D02*
X0010000Y0962940D01*
X0246220Y0962940D01*
X0246220Y0741440D01*
X0010000Y0741440D01*
X0258720Y0739460D02*
G75*
%LPD*%
D103*
X0258720Y0739460D02*
X0258720Y0960960D01*
X0494940Y0960960D01*
X0494940Y0739460D01*
X0258720Y0739460D01*
X0965030Y0416210D02*
G75*
%LPD*%
D103*
X0965030Y0416210D02*
X0965030Y0637710D01*
X1201250Y0637710D01*
X1201250Y0416210D01*
X0965030Y0416210D01*
X0807540Y0650210D02*
G75*
%LPD*%
D103*
X0807540Y0721460D02*
X0807540Y0960960D01*
X1201250Y0960960D01*
X1201250Y0650210D01*
X1111900Y0650210D01*
X1111900Y0721460D01*
X0807540Y0721460D01*
X0664930Y0416210D02*
G75*
%LPD*%
D103*
X0664930Y0416210D02*
X0664930Y0637710D01*
X0901150Y0637710D01*
X0901150Y0416210D01*
X0664930Y0416210D01*
X0507440Y0739460D02*
G75*
%LPD*%
D103*
X0507440Y0739460D02*
X0507440Y0960960D01*
X0743660Y0960960D01*
X0743660Y0739460D01*
X0507440Y0739460D01*
X1213750Y0656500D02*
G75*
%LPD*%
D103*
X1213750Y0727750D02*
X1213750Y0967250D01*
X1607460Y0967250D01*
X1607460Y0656500D01*
X1518110Y0656500D01*
X1518110Y0727750D01*
X1213750Y0727750D01*
M02*
