G75*
G70*
%OFA0B0*%
%FSLAX25Y25*%
%IPPOS*%
%LPD*%
%AMOC8*
5,1,8,0,0,1.08239X$1,22.5*
%
%ADD115C,0.00100*%
%ADD47C,0.00000*%
X0010000Y0010000D02*
G75*
%LPD*%
D115*
X0010000Y0010000D02*
X0010000Y0306250D01*
X0016140Y0306250D01*
X0016140Y0328250D01*
X0409850Y0328250D01*
X0409850Y0306250D01*
X0416000Y0306250D01*
X0416000Y0010250D01*
X0283000Y0010250D01*
X0283000Y0091250D01*
X0143000Y0091250D01*
X0143000Y0010000D01*
X0010000Y0010000D01*
X0168000Y0011250D02*
X0168000Y0082500D01*
X0258000Y0082500D01*
X0258000Y0011250D01*
X0168000Y0011250D01*
D47*
X0117750Y0022250D02*
X0117770Y0022750D01*
X0117830Y0023250D01*
X0117930Y0023750D01*
X0118060Y0024230D01*
X0118230Y0024710D01*
X0118440Y0025170D01*
X0118680Y0025610D01*
X0118960Y0026030D01*
X0119270Y0026430D01*
X0119610Y0026800D01*
X0119980Y0027150D01*
X0120370Y0027460D01*
X0120780Y0027750D01*
X0121220Y0028000D01*
X0121680Y0028220D01*
X0122150Y0028400D01*
X0122630Y0028540D01*
X0123120Y0028650D01*
X0123620Y0028720D01*
X0124120Y0028750D01*
X0124630Y0028740D01*
X0125130Y0028690D01*
X0125630Y0028600D01*
X0126110Y0028480D01*
X0126590Y0028310D01*
X0127050Y0028110D01*
X0127500Y0027880D01*
X0127930Y0027610D01*
X0128330Y0027310D01*
X0128710Y0026980D01*
X0129060Y0026620D01*
X0129390Y0026230D01*
X0129680Y0025820D01*
X0129940Y0025390D01*
X0130170Y0024940D01*
X0130360Y0024470D01*
X0130510Y0023990D01*
X0130630Y0023500D01*
X0130710Y0023000D01*
X0130750Y0022500D01*
X0130750Y0022000D01*
X0130710Y0021500D01*
X0130630Y0021000D01*
X0130510Y0020510D01*
X0130360Y0020030D01*
X0130170Y0019560D01*
X0129940Y0019110D01*
X0129680Y0018680D01*
X0129390Y0018270D01*
X0129060Y0017880D01*
X0128710Y0017520D01*
X0128330Y0017190D01*
X0127930Y0016890D01*
X0127500Y0016620D01*
X0127050Y0016390D01*
X0126590Y0016190D01*
X0126110Y0016020D01*
X0125630Y0015900D01*
X0125130Y0015810D01*
X0124630Y0015760D01*
X0124120Y0015750D01*
X0123620Y0015780D01*
X0123120Y0015850D01*
X0122630Y0015960D01*
X0122150Y0016100D01*
X0121680Y0016280D01*
X0121220Y0016500D01*
X0120780Y0016750D01*
X0120370Y0017040D01*
X0119980Y0017350D01*
X0119610Y0017700D01*
X0119270Y0018070D01*
X0118960Y0018470D01*
X0118680Y0018890D01*
X0118440Y0019330D01*
X0118230Y0019790D01*
X0118060Y0020270D01*
X0117930Y0020750D01*
X0117830Y0021250D01*
X0117770Y0021750D01*
X0117750Y0022250D01*
X0010000Y0335000D02*
G75*
%LPD*%
D115*
X0010000Y0335000D02*
X0010000Y0631250D01*
X0016140Y0631250D01*
X0016140Y0653250D01*
X0409850Y0653250D01*
X0409850Y0631250D01*
X0416000Y0631250D01*
X0416000Y0335250D01*
X0283000Y0335250D01*
X0283000Y0416250D01*
X0143000Y0416250D01*
X0143000Y0335000D01*
X0010000Y0335000D01*
X0168000Y0336250D02*
X0168000Y0407500D01*
X0258000Y0407500D01*
X0258000Y0336250D01*
X0168000Y0336250D01*
D47*
X0117750Y0347250D02*
X0117770Y0347750D01*
X0117830Y0348250D01*
X0117930Y0348750D01*
X0118060Y0349230D01*
X0118230Y0349710D01*
X0118440Y0350170D01*
X0118680Y0350610D01*
X0118960Y0351030D01*
X0119270Y0351430D01*
X0119610Y0351800D01*
X0119980Y0352150D01*
X0120370Y0352460D01*
X0120780Y0352750D01*
X0121220Y0353000D01*
X0121680Y0353220D01*
X0122150Y0353400D01*
X0122630Y0353540D01*
X0123120Y0353650D01*
X0123620Y0353720D01*
X0124120Y0353750D01*
X0124630Y0353740D01*
X0125130Y0353690D01*
X0125630Y0353600D01*
X0126110Y0353480D01*
X0126590Y0353310D01*
X0127050Y0353110D01*
X0127500Y0352880D01*
X0127930Y0352610D01*
X0128330Y0352310D01*
X0128710Y0351980D01*
X0129060Y0351620D01*
X0129390Y0351230D01*
X0129680Y0350820D01*
X0129940Y0350390D01*
X0130170Y0349940D01*
X0130360Y0349470D01*
X0130510Y0348990D01*
X0130630Y0348500D01*
X0130710Y0348000D01*
X0130750Y0347500D01*
X0130750Y0347000D01*
X0130710Y0346500D01*
X0130630Y0346000D01*
X0130510Y0345510D01*
X0130360Y0345030D01*
X0130170Y0344560D01*
X0129940Y0344110D01*
X0129680Y0343680D01*
X0129390Y0343270D01*
X0129060Y0342880D01*
X0128710Y0342520D01*
X0128330Y0342190D01*
X0127930Y0341890D01*
X0127500Y0341620D01*
X0127050Y0341390D01*
X0126590Y0341190D01*
X0126110Y0341020D01*
X0125630Y0340900D01*
X0125130Y0340810D01*
X0124630Y0340760D01*
X0124120Y0340750D01*
X0123620Y0340780D01*
X0123120Y0340850D01*
X0122630Y0340960D01*
X0122150Y0341100D01*
X0121680Y0341280D01*
X0121220Y0341500D01*
X0120780Y0341750D01*
X0120370Y0342040D01*
X0119980Y0342350D01*
X0119610Y0342700D01*
X0119270Y0343070D01*
X0118960Y0343470D01*
X0118680Y0343890D01*
X0118440Y0344330D01*
X0118230Y0344790D01*
X0118060Y0345270D01*
X0117930Y0345750D01*
X0117830Y0346250D01*
X0117770Y0346750D01*
X0117750Y0347250D01*
X0010000Y0660000D02*
G75*
%LPD*%
D115*
X0010000Y0660000D02*
X0010000Y0956250D01*
X0016140Y0956250D01*
X0016140Y0978250D01*
X0409850Y0978250D01*
X0409850Y0956250D01*
X0416000Y0956250D01*
X0416000Y0660250D01*
X0283000Y0660250D01*
X0283000Y0741250D01*
X0143000Y0741250D01*
X0143000Y0660000D01*
X0010000Y0660000D01*
X0168000Y0661250D02*
X0168000Y0732500D01*
X0258000Y0732500D01*
X0258000Y0661250D01*
X0168000Y0661250D01*
D47*
X0117750Y0672250D02*
X0117770Y0672750D01*
X0117830Y0673250D01*
X0117930Y0673750D01*
X0118060Y0674230D01*
X0118230Y0674710D01*
X0118440Y0675170D01*
X0118680Y0675610D01*
X0118960Y0676030D01*
X0119270Y0676430D01*
X0119610Y0676800D01*
X0119980Y0677150D01*
X0120370Y0677460D01*
X0120780Y0677750D01*
X0121220Y0678000D01*
X0121680Y0678220D01*
X0122150Y0678400D01*
X0122630Y0678540D01*
X0123120Y0678650D01*
X0123620Y0678720D01*
X0124120Y0678750D01*
X0124630Y0678740D01*
X0125130Y0678690D01*
X0125630Y0678600D01*
X0126110Y0678480D01*
X0126590Y0678310D01*
X0127050Y0678110D01*
X0127500Y0677880D01*
X0127930Y0677610D01*
X0128330Y0677310D01*
X0128710Y0676980D01*
X0129060Y0676620D01*
X0129390Y0676230D01*
X0129680Y0675820D01*
X0129940Y0675390D01*
X0130170Y0674940D01*
X0130360Y0674470D01*
X0130510Y0673990D01*
X0130630Y0673500D01*
X0130710Y0673000D01*
X0130750Y0672500D01*
X0130750Y0672000D01*
X0130710Y0671500D01*
X0130630Y0671000D01*
X0130510Y0670510D01*
X0130360Y0670030D01*
X0130170Y0669560D01*
X0129940Y0669110D01*
X0129680Y0668680D01*
X0129390Y0668270D01*
X0129060Y0667880D01*
X0128710Y0667520D01*
X0128330Y0667190D01*
X0127930Y0666890D01*
X0127500Y0666620D01*
X0127050Y0666390D01*
X0126590Y0666190D01*
X0126110Y0666020D01*
X0125630Y0665900D01*
X0125130Y0665810D01*
X0124630Y0665760D01*
X0124120Y0665750D01*
X0123620Y0665780D01*
X0123120Y0665850D01*
X0122630Y0665960D01*
X0122150Y0666100D01*
X0121680Y0666280D01*
X0121220Y0666500D01*
X0120780Y0666750D01*
X0120370Y0667040D01*
X0119980Y0667350D01*
X0119610Y0667700D01*
X0119270Y0668070D01*
X0118960Y0668470D01*
X0118680Y0668890D01*
X0118440Y0669330D01*
X0118230Y0669790D01*
X0118060Y0670270D01*
X0117930Y0670750D01*
X0117830Y0671250D01*
X0117770Y0671750D01*
X0117750Y0672250D01*
X0425000Y0010000D02*
G75*
%LPD*%
D115*
X0425000Y0010000D02*
X0425000Y0306250D01*
X0431140Y0306250D01*
X0431140Y0328250D01*
X0824850Y0328250D01*
X0824850Y0306250D01*
X0831000Y0306250D01*
X0831000Y0010250D01*
X0698000Y0010250D01*
X0698000Y0091250D01*
X0558000Y0091250D01*
X0558000Y0010000D01*
X0425000Y0010000D01*
X0583000Y0011250D02*
X0583000Y0082500D01*
X0673000Y0082500D01*
X0673000Y0011250D01*
X0583000Y0011250D01*
D47*
X0532750Y0022250D02*
X0532770Y0022750D01*
X0532830Y0023250D01*
X0532930Y0023750D01*
X0533060Y0024230D01*
X0533230Y0024710D01*
X0533440Y0025170D01*
X0533680Y0025610D01*
X0533960Y0026030D01*
X0534270Y0026430D01*
X0534610Y0026800D01*
X0534980Y0027150D01*
X0535370Y0027460D01*
X0535780Y0027750D01*
X0536220Y0028000D01*
X0536680Y0028220D01*
X0537150Y0028400D01*
X0537630Y0028540D01*
X0538120Y0028650D01*
X0538620Y0028720D01*
X0539120Y0028750D01*
X0539630Y0028740D01*
X0540130Y0028690D01*
X0540630Y0028600D01*
X0541110Y0028480D01*
X0541590Y0028310D01*
X0542050Y0028110D01*
X0542500Y0027880D01*
X0542930Y0027610D01*
X0543330Y0027310D01*
X0543710Y0026980D01*
X0544060Y0026620D01*
X0544390Y0026230D01*
X0544680Y0025820D01*
X0544940Y0025390D01*
X0545170Y0024940D01*
X0545360Y0024470D01*
X0545510Y0023990D01*
X0545630Y0023500D01*
X0545710Y0023000D01*
X0545750Y0022500D01*
X0545750Y0022000D01*
X0545710Y0021500D01*
X0545630Y0021000D01*
X0545510Y0020510D01*
X0545360Y0020030D01*
X0545170Y0019560D01*
X0544940Y0019110D01*
X0544680Y0018680D01*
X0544390Y0018270D01*
X0544060Y0017880D01*
X0543710Y0017520D01*
X0543330Y0017190D01*
X0542930Y0016890D01*
X0542500Y0016620D01*
X0542050Y0016390D01*
X0541590Y0016190D01*
X0541110Y0016020D01*
X0540630Y0015900D01*
X0540130Y0015810D01*
X0539630Y0015760D01*
X0539120Y0015750D01*
X0538620Y0015780D01*
X0538120Y0015850D01*
X0537630Y0015960D01*
X0537150Y0016100D01*
X0536680Y0016280D01*
X0536220Y0016500D01*
X0535780Y0016750D01*
X0535370Y0017040D01*
X0534980Y0017350D01*
X0534610Y0017700D01*
X0534270Y0018070D01*
X0533960Y0018470D01*
X0533680Y0018890D01*
X0533440Y0019330D01*
X0533230Y0019790D01*
X0533060Y0020270D01*
X0532930Y0020750D01*
X0532830Y0021250D01*
X0532770Y0021750D01*
X0532750Y0022250D01*
X0425000Y0335000D02*
G75*
%LPD*%
D115*
X0425000Y0335000D02*
X0425000Y0631250D01*
X0431140Y0631250D01*
X0431140Y0653250D01*
X0824850Y0653250D01*
X0824850Y0631250D01*
X0831000Y0631250D01*
X0831000Y0335250D01*
X0698000Y0335250D01*
X0698000Y0416250D01*
X0558000Y0416250D01*
X0558000Y0335000D01*
X0425000Y0335000D01*
X0583000Y0336250D02*
X0583000Y0407500D01*
X0673000Y0407500D01*
X0673000Y0336250D01*
X0583000Y0336250D01*
D47*
X0532750Y0347250D02*
X0532770Y0347750D01*
X0532830Y0348250D01*
X0532930Y0348750D01*
X0533060Y0349230D01*
X0533230Y0349710D01*
X0533440Y0350170D01*
X0533680Y0350610D01*
X0533960Y0351030D01*
X0534270Y0351430D01*
X0534610Y0351800D01*
X0534980Y0352150D01*
X0535370Y0352460D01*
X0535780Y0352750D01*
X0536220Y0353000D01*
X0536680Y0353220D01*
X0537150Y0353400D01*
X0537630Y0353540D01*
X0538120Y0353650D01*
X0538620Y0353720D01*
X0539120Y0353750D01*
X0539630Y0353740D01*
X0540130Y0353690D01*
X0540630Y0353600D01*
X0541110Y0353480D01*
X0541590Y0353310D01*
X0542050Y0353110D01*
X0542500Y0352880D01*
X0542930Y0352610D01*
X0543330Y0352310D01*
X0543710Y0351980D01*
X0544060Y0351620D01*
X0544390Y0351230D01*
X0544680Y0350820D01*
X0544940Y0350390D01*
X0545170Y0349940D01*
X0545360Y0349470D01*
X0545510Y0348990D01*
X0545630Y0348500D01*
X0545710Y0348000D01*
X0545750Y0347500D01*
X0545750Y0347000D01*
X0545710Y0346500D01*
X0545630Y0346000D01*
X0545510Y0345510D01*
X0545360Y0345030D01*
X0545170Y0344560D01*
X0544940Y0344110D01*
X0544680Y0343680D01*
X0544390Y0343270D01*
X0544060Y0342880D01*
X0543710Y0342520D01*
X0543330Y0342190D01*
X0542930Y0341890D01*
X0542500Y0341620D01*
X0542050Y0341390D01*
X0541590Y0341190D01*
X0541110Y0341020D01*
X0540630Y0340900D01*
X0540130Y0340810D01*
X0539630Y0340760D01*
X0539120Y0340750D01*
X0538620Y0340780D01*
X0538120Y0340850D01*
X0537630Y0340960D01*
X0537150Y0341100D01*
X0536680Y0341280D01*
X0536220Y0341500D01*
X0535780Y0341750D01*
X0535370Y0342040D01*
X0534980Y0342350D01*
X0534610Y0342700D01*
X0534270Y0343070D01*
X0533960Y0343470D01*
X0533680Y0343890D01*
X0533440Y0344330D01*
X0533230Y0344790D01*
X0533060Y0345270D01*
X0532930Y0345750D01*
X0532830Y0346250D01*
X0532770Y0346750D01*
X0532750Y0347250D01*
X0425000Y0660000D02*
G75*
%LPD*%
D115*
X0425000Y0660000D02*
X0425000Y0956250D01*
X0431140Y0956250D01*
X0431140Y0978250D01*
X0824850Y0978250D01*
X0824850Y0956250D01*
X0831000Y0956250D01*
X0831000Y0660250D01*
X0698000Y0660250D01*
X0698000Y0741250D01*
X0558000Y0741250D01*
X0558000Y0660000D01*
X0425000Y0660000D01*
X0583000Y0661250D02*
X0583000Y0732500D01*
X0673000Y0732500D01*
X0673000Y0661250D01*
X0583000Y0661250D01*
D47*
X0532750Y0672250D02*
X0532770Y0672750D01*
X0532830Y0673250D01*
X0532930Y0673750D01*
X0533060Y0674230D01*
X0533230Y0674710D01*
X0533440Y0675170D01*
X0533680Y0675610D01*
X0533960Y0676030D01*
X0534270Y0676430D01*
X0534610Y0676800D01*
X0534980Y0677150D01*
X0535370Y0677460D01*
X0535780Y0677750D01*
X0536220Y0678000D01*
X0536680Y0678220D01*
X0537150Y0678400D01*
X0537630Y0678540D01*
X0538120Y0678650D01*
X0538620Y0678720D01*
X0539120Y0678750D01*
X0539630Y0678740D01*
X0540130Y0678690D01*
X0540630Y0678600D01*
X0541110Y0678480D01*
X0541590Y0678310D01*
X0542050Y0678110D01*
X0542500Y0677880D01*
X0542930Y0677610D01*
X0543330Y0677310D01*
X0543710Y0676980D01*
X0544060Y0676620D01*
X0544390Y0676230D01*
X0544680Y0675820D01*
X0544940Y0675390D01*
X0545170Y0674940D01*
X0545360Y0674470D01*
X0545510Y0673990D01*
X0545630Y0673500D01*
X0545710Y0673000D01*
X0545750Y0672500D01*
X0545750Y0672000D01*
X0545710Y0671500D01*
X0545630Y0671000D01*
X0545510Y0670510D01*
X0545360Y0670030D01*
X0545170Y0669560D01*
X0544940Y0669110D01*
X0544680Y0668680D01*
X0544390Y0668270D01*
X0544060Y0667880D01*
X0543710Y0667520D01*
X0543330Y0667190D01*
X0542930Y0666890D01*
X0542500Y0666620D01*
X0542050Y0666390D01*
X0541590Y0666190D01*
X0541110Y0666020D01*
X0540630Y0665900D01*
X0540130Y0665810D01*
X0539630Y0665760D01*
X0539120Y0665750D01*
X0538620Y0665780D01*
X0538120Y0665850D01*
X0537630Y0665960D01*
X0537150Y0666100D01*
X0536680Y0666280D01*
X0536220Y0666500D01*
X0535780Y0666750D01*
X0535370Y0667040D01*
X0534980Y0667350D01*
X0534610Y0667700D01*
X0534270Y0668070D01*
X0533960Y0668470D01*
X0533680Y0668890D01*
X0533440Y0669330D01*
X0533230Y0669790D01*
X0533060Y0670270D01*
X0532930Y0670750D01*
X0532830Y0671250D01*
X0532770Y0671750D01*
X0532750Y0672250D01*
X0845000Y0010000D02*
G75*
%LPD*%
D115*
X0845000Y0010000D02*
X0845000Y0230250D01*
X1079640Y0230250D01*
X1079640Y0010000D01*
X0845000Y0010000D01*
X0845000Y0250000D02*
G75*
%LPD*%
D115*
X0845000Y0250000D02*
X0845000Y0470250D01*
X1079640Y0470250D01*
X1079640Y0250000D01*
X0845000Y0250000D01*
X0845000Y0490000D02*
G75*
%LPD*%
D115*
X0845000Y0490000D02*
X0845000Y0710250D01*
X1079640Y0710250D01*
X1079640Y0490000D01*
X0845000Y0490000D01*
X0845000Y0730000D02*
G75*
%LPD*%
D115*
X0845000Y0730000D02*
X0845000Y0950250D01*
X1079640Y0950250D01*
X1079640Y0730000D01*
X0845000Y0730000D01*
X1095000Y0010000D02*
G75*
%LPD*%
D115*
X1095000Y0010000D02*
X1095000Y0230250D01*
X1329640Y0230250D01*
X1329640Y0010000D01*
X1095000Y0010000D01*
X1095000Y0250000D02*
G75*
%LPD*%
D115*
X1095000Y0250000D02*
X1095000Y0470250D01*
X1329640Y0470250D01*
X1329640Y0250000D01*
X1095000Y0250000D01*
X1095000Y0490000D02*
G75*
%LPD*%
D115*
X1095000Y0490000D02*
X1095000Y0710250D01*
X1329640Y0710250D01*
X1329640Y0490000D01*
X1095000Y0490000D01*
X1095000Y0730000D02*
G75*
%LPD*%
D115*
X1095000Y0730000D02*
X1095000Y0950250D01*
X1329640Y0950250D01*
X1329640Y0730000D01*
X1095000Y0730000D01*
X1340000Y0010000D02*
G75*
%LPD*%
D115*
X1340000Y0010000D02*
X1340000Y0081250D01*
X1430000Y0081250D01*
X1430000Y0010000D01*
X1340000Y0010000D01*
X1340000Y0090000D02*
G75*
%LPD*%
D115*
X1340000Y0090000D02*
X1340000Y0161250D01*
X1430000Y0161250D01*
X1430000Y0090000D01*
X1340000Y0090000D01*
X1340000Y0170000D02*
G75*
%LPD*%
D115*
X1340000Y0170000D02*
X1340000Y0241250D01*
X1430000Y0241250D01*
X1430000Y0170000D01*
X1340000Y0170000D01*
X1340000Y0250000D02*
G75*
%LPD*%
D115*
X1340000Y0250000D02*
X1340000Y0321250D01*
X1430000Y0321250D01*
X1430000Y0250000D01*
X1340000Y0250000D01*
X1340000Y0330000D02*
G75*
%LPD*%
D115*
X1340000Y0330000D02*
X1340000Y0401250D01*
X1430000Y0401250D01*
X1430000Y0330000D01*
X1340000Y0330000D01*
X1340000Y0510000D02*
G75*
%LPD*%
D115*
X1340000Y0510000D02*
X1340000Y0581250D01*
X1430000Y0581250D01*
X1430000Y0510000D01*
X1340000Y0510000D01*
X1340000Y0590000D02*
G75*
%LPD*%
D115*
X1340000Y0590000D02*
X1340000Y0661250D01*
X1430000Y0661250D01*
X1430000Y0590000D01*
X1340000Y0590000D01*
X1340000Y0670000D02*
G75*
%LPD*%
D115*
X1340000Y0670000D02*
X1340000Y0741250D01*
X1430000Y0741250D01*
X1430000Y0670000D01*
X1340000Y0670000D01*
X1340000Y0750000D02*
G75*
%LPD*%
D115*
X1340000Y0750000D02*
X1340000Y0821250D01*
X1430000Y0821250D01*
X1430000Y0750000D01*
X1340000Y0750000D01*
X1340000Y0830000D02*
G75*
%LPD*%
D115*
X1340000Y0830000D02*
X1340000Y0901250D01*
X1430000Y0901250D01*
X1430000Y0830000D01*
X1340000Y0830000D01*
X1440000Y0010000D02*
G75*
%LPD*%
D115*
X1440000Y0010000D02*
X1440000Y0081250D01*
X1530000Y0081250D01*
X1530000Y0010000D01*
X1440000Y0010000D01*
X1440000Y0090000D02*
G75*
%LPD*%
D115*
X1440000Y0090000D02*
X1440000Y0161250D01*
X1530000Y0161250D01*
X1530000Y0090000D01*
X1440000Y0090000D01*
X1440000Y0170000D02*
G75*
%LPD*%
D115*
X1440000Y0170000D02*
X1440000Y0241250D01*
X1530000Y0241250D01*
X1530000Y0170000D01*
X1440000Y0170000D01*
X1440000Y0250000D02*
G75*
%LPD*%
D115*
X1440000Y0250000D02*
X1440000Y0321250D01*
X1530000Y0321250D01*
X1530000Y0250000D01*
X1440000Y0250000D01*
X1440000Y0330000D02*
G75*
%LPD*%
D115*
X1440000Y0330000D02*
X1440000Y0401250D01*
X1530000Y0401250D01*
X1530000Y0330000D01*
X1440000Y0330000D01*
X1440000Y0510000D02*
G75*
%LPD*%
D115*
X1440000Y0510000D02*
X1440000Y0581250D01*
X1530000Y0581250D01*
X1530000Y0510000D01*
X1440000Y0510000D01*
X1440000Y0590000D02*
G75*
%LPD*%
D115*
X1440000Y0590000D02*
X1440000Y0661250D01*
X1530000Y0661250D01*
X1530000Y0590000D01*
X1440000Y0590000D01*
X1440000Y0670000D02*
G75*
%LPD*%
D115*
X1440000Y0670000D02*
X1440000Y0741250D01*
X1530000Y0741250D01*
X1530000Y0670000D01*
X1440000Y0670000D01*
X1440000Y0750000D02*
G75*
%LPD*%
D115*
X1440000Y0750000D02*
X1440000Y0821250D01*
X1530000Y0821250D01*
X1530000Y0750000D01*
X1440000Y0750000D01*
X1440000Y0830000D02*
G75*
%LPD*%
D115*
X1440000Y0830000D02*
X1440000Y0901250D01*
X1530000Y0901250D01*
X1530000Y0830000D01*
X1440000Y0830000D01*
M02*
