G75*
G70*
%OFA0B0*%
%FSLAX25Y25*%
%IPPOS*%
%LPD*%
%AMOC8*
5,1,8,0,0,1.08239X$1,22.5*
%
%ADD102OC8,0.07400*%
%ADD24C,0.10000*%
%ADD26C,0.01200*%
%ADD27R,0.05310X0.01570*%
%ADD29C,0.15000*%
%ADD35C,0.06600*%
%ADD36R,0.07480X0.07090*%
%ADD37R,0.07090X0.07480*%
%ADD38R,0.06000X0.06000*%
%ADD39C,0.01600*%
%ADD44R,0.07400X0.07400*%
%ADD48R,0.03170X0.03170*%
%ADD49OC8,0.11070*%
%ADD51C,0.03170*%
%ADD57C,0.00800*%
%ADD61C,0.03560*%
%ADD65C,0.07600*%
%ADD69C,0.04360*%
%ADD70C,0.06300*%
%ADD74C,0.07800*%
%ADD75R,0.01570X0.05310*%
%ADD76OC8,0.05200*%
%ADD79C,0.05200*%
%ADD82C,0.06000*%
%ADD86R,0.07090X0.07090*%
%ADD90R,0.03560X0.03560*%
%ADD91C,0.05540*%
%ADD92C,0.07400*%
%ADD95OC8,0.06300*%
X0010000Y0010000D02*
G75*
%LPD*%
D92*
X0217500Y0095000D03*
X0207500Y0095000D03*
X0025000Y0045000D03*
X0015000Y0045000D03*
X0015000Y0055000D03*
X0015000Y0065000D03*
X0015000Y0035000D03*
X0025000Y0035000D03*
X0025000Y0025000D03*
X0015000Y0025000D03*
X0015000Y0015000D03*
X0015000Y0105000D03*
X0015000Y0115000D03*
X0015000Y0125000D03*
X0015000Y0135000D03*
X0015000Y0145000D03*
X0015000Y0155000D03*
X0015000Y0185000D03*
X0015000Y0195000D03*
X0015000Y0205000D03*
X0015000Y0215000D03*
X0015000Y0225000D03*
D102*
X0192500Y0015000D03*
X0192500Y0025000D03*
X0192500Y0035000D03*
X0192500Y0045000D03*
X0192500Y0055000D03*
X0182500Y0055000D03*
X0182500Y0045000D03*
X0182500Y0035000D03*
X0182500Y0025000D03*
X0182500Y0015000D03*
D38*
X0207500Y0065000D03*
X0217500Y0105000D03*
X0207500Y0125000D03*
X0207500Y0220000D03*
X0217500Y0220000D03*
D82*
X0217500Y0230000D03*
X0217500Y0240000D03*
X0207500Y0240000D03*
X0207500Y0230000D03*
X0217500Y0125000D03*
X0217500Y0115000D03*
X0207500Y0115000D03*
X0207500Y0105000D03*
X0207500Y0085000D03*
X0207500Y0075000D03*
D44*
X0025000Y0015000D03*
D86*
X0014810Y0240810D03*
X0047690Y0240810D03*
D69*
X0040010Y0228510D02*
X0040010Y0224150D01*
X0022490Y0224150D02*
X0022490Y0228510D01*
D51*
X0035000Y0212500D03*
X0040000Y0206250D03*
X0043750Y0211250D03*
X0047500Y0216250D03*
X0062760Y0216250D03*
X0062500Y0211250D03*
X0062500Y0206250D03*
X0050000Y0197500D03*
X0070000Y0175000D03*
X0073330Y0171670D03*
X0074200Y0155000D03*
X0073750Y0147500D03*
X0078750Y0147500D03*
X0073750Y0142500D03*
X0070000Y0135000D03*
X0073750Y0127500D03*
X0085000Y0127500D03*
X0092500Y0115000D03*
X0097500Y0115000D03*
X0102500Y0115000D03*
X0112500Y0112500D03*
X0123750Y0107500D03*
X0123750Y0097500D03*
X0137500Y0110000D03*
X0132500Y0117500D03*
X0137500Y0132500D03*
X0132500Y0133750D03*
X0123750Y0137500D03*
X0122500Y0142500D03*
X0120000Y0146250D03*
X0122500Y0150000D03*
X0110000Y0162500D03*
X0112500Y0166250D03*
X0106250Y0168750D03*
X0101250Y0170000D03*
X0107500Y0158750D03*
X0105000Y0155000D03*
X0093750Y0155000D03*
X0088750Y0148750D03*
X0086250Y0152500D03*
X0091250Y0145000D03*
X0066250Y0145000D03*
X0062500Y0148750D03*
X0058750Y0152500D03*
X0052500Y0156250D03*
X0055000Y0160000D03*
X0057500Y0163750D03*
X0056250Y0170000D03*
X0050000Y0152500D03*
X0047500Y0148750D03*
X0045000Y0145000D03*
X0045000Y0140000D03*
X0050000Y0138750D03*
X0050000Y0127500D03*
X0050000Y0122500D03*
X0045000Y0118750D03*
X0040000Y0107500D03*
X0040000Y0100000D03*
X0030000Y0100000D03*
X0030000Y0087500D03*
X0025000Y0082500D03*
X0025000Y0077500D03*
X0028750Y0072500D03*
X0035000Y0072500D03*
X0035000Y0077500D03*
X0017500Y0080000D03*
X0035000Y0057500D03*
X0032500Y0045000D03*
X0037500Y0035000D03*
X0052500Y0057500D03*
X0052500Y0062500D03*
X0052500Y0070000D03*
X0052500Y0075000D03*
X0051250Y0088750D03*
X0051250Y0095000D03*
X0057500Y0102500D03*
X0052500Y0107500D03*
X0055000Y0112500D03*
X0062500Y0115000D03*
X0067500Y0115000D03*
X0072500Y0115000D03*
X0062500Y0110000D03*
X0085000Y0107500D03*
X0087500Y0090000D03*
X0100000Y0092500D03*
X0102500Y0097500D03*
X0117500Y0077500D03*
X0115000Y0072500D03*
X0112500Y0068750D03*
X0110000Y0065000D03*
X0107500Y0061250D03*
X0105000Y0057500D03*
X0100000Y0050000D03*
X0095000Y0052500D03*
X0105000Y0047500D03*
X0110000Y0045000D03*
X0115000Y0050000D03*
X0112500Y0053750D03*
X0121250Y0048750D03*
X0137500Y0047500D03*
X0137500Y0052500D03*
X0136250Y0038750D03*
X0133750Y0028750D03*
X0117500Y0028750D03*
X0102500Y0028750D03*
X0090000Y0030000D03*
X0075000Y0030000D03*
X0062500Y0032500D03*
X0061250Y0028750D03*
X0123750Y0073750D03*
X0150000Y0092500D03*
X0152500Y0070000D03*
X0152500Y0043750D03*
X0156250Y0038750D03*
X0152500Y0035000D03*
X0152500Y0027500D03*
X0177500Y0060000D03*
X0177500Y0095000D03*
X0177500Y0102500D03*
X0175000Y0107500D03*
X0173750Y0117500D03*
X0182500Y0125000D03*
X0187500Y0130000D03*
X0192500Y0125000D03*
X0187500Y0120000D03*
X0190000Y0112500D03*
X0190000Y0095000D03*
X0217500Y0057500D03*
X0226250Y0057500D03*
X0207500Y0135000D03*
X0217500Y0162500D03*
X0210000Y0167500D03*
X0203750Y0167500D03*
X0203750Y0172500D03*
X0193750Y0172500D03*
X0193750Y0167500D03*
X0182500Y0163750D03*
X0183750Y0137500D03*
X0153750Y0172500D03*
X0159550Y0181700D03*
X0162500Y0186250D03*
X0165000Y0190000D03*
X0167500Y0193750D03*
X0178750Y0201250D03*
X0187500Y0201250D03*
X0217500Y0182500D03*
X0225000Y0212500D03*
X0151250Y0153750D03*
X0148750Y0157500D03*
X0146250Y0161250D03*
X0143750Y0165000D03*
X0124200Y0181700D03*
X0123750Y0173750D03*
X0117420Y0186170D03*
X0114270Y0189270D03*
X0111120Y0192370D03*
X0090000Y0186250D03*
X0085000Y0186250D03*
X0077500Y0188750D03*
X0080000Y0233750D03*
X0095000Y0233750D03*
X0030000Y0200000D03*
X0023750Y0195000D03*
X0026250Y0175000D03*
X0023750Y0170000D03*
X0020000Y0161250D03*
X0023750Y0153750D03*
D57*
X0027500Y0150000D01*
X0040000Y0150000D01*
X0045000Y0145000D01*
X0047500Y0148750D02*
X0045000Y0151250D01*
X0045000Y0160000D01*
X0042500Y0162500D01*
X0023750Y0162500D01*
X0018750Y0167500D01*
X0018750Y0181250D01*
X0015000Y0185000D01*
X0015000Y0195000D02*
X0023750Y0195000D01*
X0020000Y0200000D02*
X0015000Y0205000D01*
X0020000Y0200000D02*
X0030000Y0200000D01*
X0040000Y0206250D02*
X0062500Y0206250D01*
X0062500Y0211250D02*
X0043750Y0211250D01*
X0047500Y0216250D02*
X0062760Y0216250D01*
X0068750Y0197500D02*
X0050000Y0197500D01*
X0035000Y0212500D02*
X0017500Y0212500D01*
X0015000Y0215000D01*
X0026250Y0175000D02*
X0070000Y0175000D01*
X0073330Y0171670D02*
X0075000Y0170000D01*
X0101250Y0170000D01*
X0103750Y0166250D02*
X0106250Y0168750D01*
X0108750Y0166250D02*
X0106250Y0163750D01*
X0057500Y0163750D01*
X0058750Y0161250D02*
X0057500Y0160000D01*
X0055000Y0160000D01*
X0058750Y0161250D02*
X0106250Y0161250D01*
X0107500Y0162500D01*
X0110000Y0162500D01*
X0108750Y0166250D02*
X0112500Y0166250D01*
X0107500Y0158750D02*
X0058750Y0158750D01*
X0056250Y0156250D01*
X0052500Y0156250D01*
X0050000Y0152500D02*
X0047500Y0155000D01*
X0047500Y0161250D01*
X0042500Y0166250D01*
X0027500Y0166250D01*
X0023750Y0170000D01*
X0020000Y0161250D02*
X0020000Y0152500D01*
X0027500Y0145000D01*
X0040000Y0145000D01*
X0045000Y0140000D01*
X0058750Y0152500D02*
X0058750Y0113750D01*
X0062500Y0110000D01*
X0058750Y0107500D02*
X0052500Y0107500D01*
X0052500Y0112500D02*
X0055000Y0112500D01*
X0035000Y0112500D01*
X0032500Y0115000D01*
X0025000Y0115000D01*
X0015000Y0125000D01*
X0020000Y0123750D02*
X0020000Y0140000D01*
X0015000Y0145000D01*
X0020000Y0123750D02*
X0025000Y0118750D01*
X0045000Y0118750D01*
X0047500Y0107500D02*
X0040000Y0107500D01*
X0036250Y0106250D02*
X0023750Y0106250D01*
X0015000Y0115000D01*
X0015000Y0105000D02*
X0013750Y0103750D01*
X0013750Y0077500D01*
X0023750Y0067500D01*
X0050000Y0067500D01*
X0052500Y0070000D01*
X0052500Y0075000D02*
X0050000Y0077500D01*
X0040000Y0077500D01*
X0035000Y0082500D01*
X0025000Y0082500D01*
X0025000Y0077500D02*
X0035000Y0077500D01*
X0041250Y0085000D02*
X0038750Y0087500D01*
X0030000Y0087500D01*
X0030000Y0100000D02*
X0040000Y0100000D01*
X0038750Y0103750D02*
X0036250Y0106250D01*
X0038750Y0103750D02*
X0048750Y0103750D01*
X0057500Y0095000D01*
X0097500Y0095000D01*
X0100000Y0092500D01*
X0102500Y0097500D02*
X0057500Y0097500D01*
X0047500Y0107500D01*
X0057500Y0102500D02*
X0070000Y0102500D01*
X0080000Y0112500D01*
X0080000Y0146250D01*
X0078750Y0147500D01*
X0077500Y0143750D02*
X0073750Y0147500D01*
X0077500Y0143750D02*
X0077500Y0115000D01*
X0067500Y0105000D01*
X0061250Y0105000D01*
X0058750Y0107500D01*
X0062500Y0115000D02*
X0062500Y0148750D01*
X0066250Y0145000D02*
X0066250Y0116250D01*
X0067500Y0115000D01*
X0070000Y0117500D02*
X0070000Y0135000D01*
X0085000Y0127500D02*
X0085000Y0112500D01*
X0087500Y0110000D01*
X0110000Y0110000D01*
X0112500Y0112500D01*
X0118750Y0107500D02*
X0123750Y0112500D01*
X0132500Y0112500D01*
X0137500Y0117500D01*
X0173750Y0117500D01*
X0171250Y0115000D02*
X0173750Y0112500D01*
X0190000Y0112500D01*
X0187500Y0120000D02*
X0182500Y0120000D01*
X0170000Y0132500D01*
X0142500Y0132500D01*
X0137500Y0137500D01*
X0123750Y0137500D01*
X0122500Y0142500D02*
X0135000Y0142500D01*
X0142500Y0135000D01*
X0172500Y0135000D01*
X0182500Y0125000D01*
X0187500Y0125000D02*
X0181250Y0131250D01*
X0180000Y0131250D01*
X0173750Y0137500D01*
X0142500Y0137500D01*
X0135000Y0145000D01*
X0125000Y0145000D01*
X0123750Y0146250D01*
X0120000Y0146250D01*
X0122500Y0150000D02*
X0125000Y0147500D01*
X0135000Y0147500D01*
X0142500Y0140000D01*
X0175000Y0140000D01*
X0181250Y0133750D01*
X0183750Y0133750D01*
X0187500Y0130000D01*
X0187500Y0125000D02*
X0192500Y0125000D01*
X0175000Y0107500D02*
X0172500Y0110000D01*
X0137500Y0110000D01*
X0132500Y0110000D02*
X0137500Y0115000D01*
X0171250Y0115000D01*
X0156250Y0080000D02*
X0163750Y0072500D01*
X0163750Y0062500D01*
X0171250Y0055000D01*
X0182500Y0055000D01*
X0187500Y0050000D02*
X0192500Y0055000D01*
X0187500Y0050000D02*
X0170000Y0050000D01*
X0158750Y0061250D01*
X0158750Y0068750D01*
X0150000Y0077500D01*
X0122500Y0077500D01*
X0117500Y0072500D01*
X0115000Y0072500D01*
X0112500Y0068750D02*
X0148750Y0068750D01*
X0172500Y0045000D01*
X0182500Y0045000D01*
X0187500Y0040000D02*
X0192500Y0045000D01*
X0187500Y0040000D02*
X0175000Y0040000D01*
X0148750Y0066250D01*
X0115000Y0066250D01*
X0113750Y0065000D01*
X0110000Y0065000D01*
X0112500Y0061250D02*
X0107500Y0061250D01*
X0105000Y0057500D02*
X0111250Y0057500D01*
X0115000Y0061250D01*
X0148750Y0061250D01*
X0180000Y0030000D01*
X0187500Y0030000D01*
X0192500Y0035000D01*
X0182500Y0035000D02*
X0177500Y0035000D01*
X0148750Y0063750D01*
X0115000Y0063750D01*
X0112500Y0061250D01*
X0117500Y0058750D02*
X0112500Y0053750D01*
X0115000Y0050000D02*
X0121250Y0056250D01*
X0148750Y0056250D01*
X0177500Y0027500D01*
X0177500Y0022500D01*
X0180000Y0020000D01*
X0187500Y0020000D01*
X0192500Y0025000D01*
X0182500Y0025000D02*
X0148750Y0058750D01*
X0117500Y0058750D01*
X0121250Y0048750D02*
X0138750Y0031250D01*
X0157500Y0031250D01*
X0173750Y0015000D01*
X0182500Y0015000D01*
X0156250Y0038750D02*
X0136250Y0038750D01*
X0110000Y0045000D02*
X0107500Y0042500D01*
X0052500Y0042500D01*
X0025000Y0015000D01*
X0025000Y0025000D02*
X0032500Y0025000D01*
X0052500Y0045000D01*
X0102500Y0045000D01*
X0105000Y0047500D01*
X0100000Y0050000D02*
X0097500Y0047500D01*
X0040000Y0047500D01*
X0027500Y0035000D01*
X0025000Y0035000D01*
X0025000Y0045000D02*
X0030000Y0050000D01*
X0092500Y0050000D01*
X0095000Y0052500D01*
X0117500Y0077500D02*
X0120000Y0080000D01*
X0156250Y0080000D01*
X0132500Y0110000D02*
X0126250Y0110000D01*
X0123750Y0107500D01*
X0118750Y0107500D02*
X0085000Y0107500D01*
X0092500Y0115000D02*
X0092500Y0127500D01*
X0095000Y0130000D01*
X0128750Y0130000D01*
X0132500Y0133750D01*
X0146250Y0153750D02*
X0151250Y0153750D01*
X0148750Y0157500D02*
X0145000Y0157500D01*
X0142500Y0160000D01*
X0122500Y0160000D01*
X0111250Y0148750D01*
X0088750Y0148750D01*
X0091250Y0152500D02*
X0092500Y0151250D01*
X0111250Y0151250D01*
X0122500Y0162500D01*
X0142500Y0162500D01*
X0143750Y0161250D01*
X0146250Y0161250D01*
X0142500Y0157500D02*
X0146250Y0153750D01*
X0142500Y0157500D02*
X0122500Y0157500D01*
X0111250Y0146250D01*
X0092500Y0146250D01*
X0091250Y0145000D01*
X0091250Y0152500D02*
X0086250Y0152500D01*
X0092500Y0156250D02*
X0093750Y0155000D01*
X0092500Y0156250D02*
X0076250Y0156250D01*
X0075000Y0155000D01*
X0074200Y0155000D01*
X0060000Y0166250D02*
X0056250Y0170000D01*
X0060000Y0166250D02*
X0103750Y0166250D01*
X0105000Y0155000D02*
X0112500Y0155000D01*
X0122500Y0165000D01*
X0143750Y0165000D01*
X0153750Y0172500D02*
X0125000Y0172500D01*
X0123750Y0173750D01*
X0124200Y0181700D02*
X0159550Y0181700D01*
X0156250Y0183750D02*
X0158670Y0186170D01*
X0162420Y0186170D01*
X0162500Y0186250D01*
X0160000Y0190000D02*
X0165000Y0190000D01*
X0167500Y0193750D02*
X0160000Y0193750D01*
X0156250Y0190000D01*
X0126250Y0190000D01*
X0122500Y0193750D01*
X0112500Y0193750D01*
X0111120Y0192370D01*
X0114270Y0189270D02*
X0115000Y0190000D01*
X0122500Y0190000D01*
X0126250Y0186250D01*
X0156250Y0186250D01*
X0160000Y0190000D01*
X0156250Y0183750D02*
X0126250Y0183750D01*
X0123750Y0186250D01*
X0117420Y0186170D01*
X0077500Y0188750D02*
X0068750Y0197500D01*
X0070000Y0117500D02*
X0072500Y0115000D01*
X0087500Y0090000D02*
X0082500Y0085000D01*
X0041250Y0085000D01*
X0052500Y0062500D02*
X0022500Y0062500D01*
X0015000Y0055000D01*
X0022500Y0052500D02*
X0015000Y0045000D01*
X0022500Y0052500D02*
X0050000Y0052500D01*
X0052500Y0055000D01*
X0052500Y0057500D01*
D48*
X0028750Y0057500D03*
D39*
X0035000Y0212500D02*
X0065000Y0242500D01*
X0188750Y0242500D01*
X0196250Y0235000D01*
X0222500Y0235000D01*
X0228750Y0228750D01*
X0228750Y0101250D01*
X0222500Y0095000D01*
X0217500Y0095000D01*
X0244000Y0010000D02*
G75*
%LPD*%
D65*
X0313030Y0047010D03*
X0313030Y0056860D03*
X0313030Y0066700D03*
X0313030Y0147010D03*
X0313030Y0156860D03*
X0313030Y0166700D03*
X0313030Y0247010D03*
X0313030Y0256860D03*
X0313030Y0266700D03*
X0313030Y0347010D03*
X0313030Y0356860D03*
X0313030Y0366700D03*
D49*
X0283500Y0374570D03*
X0283500Y0339140D03*
X0283500Y0274570D03*
X0283500Y0239140D03*
X0283500Y0174570D03*
X0283500Y0139140D03*
X0283500Y0074570D03*
X0283500Y0039140D03*
D92*
X0284750Y0100610D03*
X0274750Y0100610D03*
X0264750Y0100610D03*
X0294750Y0100610D03*
X0304750Y0100610D03*
X0334750Y0100610D03*
X0344750Y0100610D03*
X0354750Y0100610D03*
X0364750Y0100610D03*
X0374750Y0100610D03*
X0384750Y0100610D03*
X0424750Y0100610D03*
X0434750Y0100610D03*
X0444750Y0100610D03*
X0444750Y0110610D03*
X0454750Y0110610D03*
X0464750Y0110610D03*
X0464750Y0100610D03*
X0474750Y0100610D03*
X0454750Y0100610D03*
X0474750Y0160610D03*
X0474750Y0170610D03*
X0474750Y0180610D03*
X0474750Y0190610D03*
X0474750Y0200610D03*
X0474750Y0210610D03*
X0474750Y0220610D03*
X0474750Y0230610D03*
X0474750Y0240610D03*
X0474750Y0250610D03*
X0424750Y0290610D03*
X0414750Y0290610D03*
X0404750Y0290610D03*
X0394750Y0290610D03*
X0394750Y0300610D03*
X0292250Y0223110D03*
X0292250Y0203110D03*
X0252250Y0248110D03*
X0252250Y0258110D03*
D74*
X0252250Y0185610D03*
X0292250Y0185610D03*
D38*
X0249750Y0290610D03*
X0269750Y0300610D03*
X0384750Y0300610D03*
X0384750Y0290610D03*
D82*
X0374750Y0290610D03*
X0374750Y0300610D03*
X0364750Y0300610D03*
X0364750Y0290610D03*
X0269750Y0290610D03*
X0259750Y0290610D03*
X0259750Y0300610D03*
X0249750Y0300610D03*
D76*
X0328500Y0271860D03*
X0338500Y0271860D03*
X0348500Y0271860D03*
X0358500Y0271860D03*
X0368500Y0271860D03*
X0368500Y0241860D03*
X0358500Y0241860D03*
X0348500Y0241860D03*
X0338500Y0241860D03*
X0328500Y0241860D03*
X0382250Y0230610D03*
X0412250Y0230610D03*
X0423500Y0226860D03*
X0423500Y0236860D03*
X0423500Y0246860D03*
X0453500Y0246860D03*
X0453500Y0236860D03*
X0453500Y0226860D03*
X0448500Y0201860D03*
X0453500Y0191860D03*
X0453500Y0181860D03*
X0453500Y0171860D03*
X0448500Y0141860D03*
X0448500Y0131860D03*
X0428500Y0131860D03*
X0428500Y0141860D03*
X0423500Y0171860D03*
X0423500Y0181860D03*
X0423500Y0191860D03*
X0428500Y0201860D03*
X0383500Y0151860D03*
X0373500Y0151860D03*
X0363500Y0151860D03*
X0363500Y0121860D03*
X0373500Y0121860D03*
X0383500Y0121860D03*
X0308500Y0125610D03*
X0308500Y0116860D03*
X0278500Y0116860D03*
X0278500Y0125610D03*
X0436000Y0291860D03*
X0443500Y0296860D03*
X0443500Y0286860D03*
X0461000Y0291860D03*
X0468500Y0296860D03*
X0468500Y0286860D03*
D95*
X0408500Y0271860D03*
X0393500Y0246860D03*
X0408500Y0166860D03*
X0408500Y0136860D03*
X0378500Y0166860D03*
X0348500Y0166860D03*
X0348500Y0136860D03*
D70*
X0338500Y0136860D03*
X0338500Y0166860D03*
X0368500Y0166860D03*
X0398500Y0166860D03*
X0398500Y0136860D03*
X0383500Y0246860D03*
X0398500Y0271860D03*
D79*
X0348500Y0221860D03*
X0338500Y0221860D03*
X0328500Y0221860D03*
X0318500Y0221860D03*
X0318500Y0191860D03*
X0328500Y0191860D03*
X0338500Y0191860D03*
X0348500Y0191860D03*
D35*
X0416000Y0216860D03*
X0461000Y0216860D03*
X0461000Y0156860D03*
X0416000Y0156860D03*
D29*
X0278690Y0211860D03*
X0266880Y0230360D03*
X0255060Y0211860D03*
D102*
X0434750Y0260610D03*
X0434750Y0270610D03*
X0444750Y0270610D03*
X0444750Y0260610D03*
X0454750Y0260610D03*
X0454750Y0270610D03*
X0464750Y0270610D03*
X0464750Y0260610D03*
X0474750Y0260610D03*
X0474750Y0270610D03*
D24*
X0467870Y0347480D03*
X0483810Y0347480D03*
X0483810Y0372170D03*
X0467880Y0371860D03*
X0467880Y0397170D03*
X0483810Y0397170D03*
X0547880Y0397170D03*
X0547880Y0371860D03*
X0547870Y0347480D03*
X0403810Y0347480D03*
X0387870Y0347480D03*
X0387880Y0371860D03*
X0403810Y0372170D03*
X0403810Y0397170D03*
X0387880Y0397170D03*
X0323810Y0397170D03*
X0323810Y0372170D03*
X0323810Y0347480D03*
X0324130Y0066230D03*
X0324120Y0041860D03*
X0324120Y0016540D03*
X0388190Y0016540D03*
X0404120Y0016540D03*
X0404120Y0041860D03*
X0388190Y0041540D03*
X0388190Y0066230D03*
X0404130Y0066230D03*
X0468190Y0066230D03*
X0468190Y0041540D03*
X0468190Y0016540D03*
D44*
X0474750Y0110610D03*
D86*
X0249020Y0102430D03*
X0249020Y0135300D03*
D69*
X0261320Y0127620D02*
X0265690Y0127620D01*
X0265690Y0110100D02*
X0261320Y0110100D01*
D27*
X0260050Y0113740D03*
X0260050Y0116300D03*
X0260050Y0118860D03*
X0260050Y0121420D03*
X0260050Y0123980D03*
D36*
X0249020Y0123390D03*
X0249020Y0114340D03*
D79*
X0430900Y0311860D02*
X0436100Y0311860D01*
X0470900Y0311860D02*
X0476100Y0311860D01*
D91*
X0403500Y0221860D03*
X0403500Y0191860D03*
X0363500Y0191860D03*
X0363500Y0221860D03*
D26*
X0481000Y0089360D02*
X0468500Y0076860D01*
X0414750Y0076860D01*
X0404130Y0066230D01*
X0403500Y0096860D02*
X0372870Y0066230D01*
X0324130Y0066230D01*
X0321000Y0084360D02*
X0306000Y0084360D01*
X0308500Y0116860D02*
X0284750Y0116860D01*
X0278500Y0116860D02*
X0277950Y0116300D01*
X0260050Y0116300D01*
X0260050Y0113740D02*
X0267860Y0113740D01*
X0274750Y0106860D01*
X0274750Y0100610D01*
X0271760Y0118860D02*
X0278500Y0125610D01*
X0277250Y0130610D02*
X0301000Y0130610D01*
X0294750Y0125610D02*
X0308500Y0125610D01*
X0277250Y0130610D02*
X0268070Y0121420D01*
X0260050Y0121420D01*
X0260050Y0118860D02*
X0271760Y0118860D01*
X0261320Y0127620D02*
X0260050Y0126340D01*
X0260050Y0123980D01*
X0270060Y0196860D02*
X0286000Y0196860D01*
X0292250Y0203110D01*
X0298500Y0206860D02*
X0293500Y0211860D01*
X0298500Y0206860D02*
X0328500Y0206860D01*
X0368500Y0206860D01*
X0378500Y0211860D02*
X0343500Y0211860D01*
X0338500Y0216860D01*
X0338500Y0221860D01*
X0323500Y0226860D02*
X0318500Y0221860D01*
X0293500Y0221860D01*
X0292250Y0223110D01*
X0270060Y0196860D02*
X0255060Y0211860D01*
X0252250Y0258110D02*
X0292250Y0258110D01*
X0269750Y0290610D02*
X0333500Y0290610D01*
X0322250Y0300610D02*
X0364750Y0300610D01*
X0389750Y0305610D02*
X0292250Y0305610D01*
X0298500Y0311860D02*
X0413500Y0311860D01*
X0423500Y0301860D01*
X0423500Y0291860D01*
X0424750Y0290610D01*
X0418500Y0296860D01*
X0401000Y0296860D01*
X0394750Y0290610D01*
X0398500Y0281860D02*
X0388500Y0271860D01*
X0398500Y0281860D02*
X0463500Y0281860D01*
X0474750Y0270610D01*
X0461000Y0253110D02*
X0429750Y0253110D01*
X0423500Y0246860D02*
X0393500Y0246860D01*
X0403500Y0264360D02*
X0409750Y0264360D01*
X0416000Y0270610D01*
X0434750Y0270610D01*
X0436000Y0291860D02*
X0453500Y0291860D01*
X0458500Y0296860D01*
X0468500Y0296860D01*
X0433500Y0311860D02*
X0423500Y0301860D01*
X0394750Y0300610D02*
X0389750Y0305610D01*
X0348500Y0271860D02*
X0343500Y0266860D01*
X0333500Y0266860D01*
X0328500Y0271860D01*
X0323500Y0226860D02*
X0373500Y0226860D01*
X0382250Y0191860D02*
X0363500Y0191860D01*
X0363500Y0184360D02*
X0406000Y0184360D01*
X0413500Y0191860D01*
X0423500Y0191860D01*
X0406000Y0178110D02*
X0352250Y0178110D01*
X0338500Y0191860D01*
X0368500Y0166860D02*
X0378500Y0166860D01*
X0403500Y0121860D02*
X0403500Y0096860D01*
X0453500Y0191860D02*
X0462250Y0200610D01*
X0474750Y0200610D01*
X0461000Y0216860D02*
X0464750Y0220610D01*
X0474750Y0220610D01*
X0474750Y0240610D02*
X0457250Y0240610D01*
X0453500Y0236860D01*
X0444750Y0231860D02*
X0413500Y0231860D01*
X0412250Y0230610D01*
X0474750Y0250610D02*
X0481000Y0244360D01*
X0481000Y0089360D01*
D61*
X0406000Y0178110D03*
X0382250Y0191860D03*
X0368500Y0206860D03*
X0378500Y0211860D03*
X0373500Y0226860D03*
X0403500Y0264360D03*
X0388500Y0271860D03*
X0429750Y0253110D03*
X0444750Y0231860D03*
X0461000Y0253110D03*
X0363500Y0184360D03*
X0328500Y0206860D03*
X0292250Y0258110D03*
X0322250Y0300610D03*
X0333500Y0290610D03*
X0298500Y0311860D03*
X0292250Y0305610D03*
X0301000Y0130610D03*
X0294750Y0125610D03*
X0284750Y0116860D03*
X0306000Y0084360D03*
X0321000Y0084360D03*
X0403500Y0121860D03*
D90*
X0293500Y0211860D03*
X0567250Y0010000D02*
G75*
%LPD*%
D65*
X0636280Y0047010D03*
X0636280Y0056860D03*
X0636280Y0066700D03*
X0636280Y0147010D03*
X0636280Y0156860D03*
X0636280Y0166700D03*
X0636280Y0247010D03*
X0636280Y0256860D03*
X0636280Y0266700D03*
X0636280Y0347010D03*
X0636280Y0356860D03*
X0636280Y0366700D03*
D49*
X0606750Y0374570D03*
X0606750Y0339140D03*
X0606750Y0274570D03*
X0606750Y0239140D03*
X0606750Y0174570D03*
X0606750Y0139140D03*
X0606750Y0074570D03*
X0606750Y0039140D03*
D92*
X0608000Y0100610D03*
X0598000Y0100610D03*
X0588000Y0100610D03*
X0618000Y0100610D03*
X0628000Y0100610D03*
X0658000Y0100610D03*
X0668000Y0100610D03*
X0678000Y0100610D03*
X0688000Y0100610D03*
X0698000Y0100610D03*
X0708000Y0100610D03*
X0748000Y0100610D03*
X0758000Y0100610D03*
X0768000Y0100610D03*
X0768000Y0110610D03*
X0778000Y0110610D03*
X0788000Y0110610D03*
X0788000Y0100610D03*
X0798000Y0100610D03*
X0778000Y0100610D03*
X0798000Y0160610D03*
X0798000Y0170610D03*
X0798000Y0180610D03*
X0798000Y0190610D03*
X0798000Y0200610D03*
X0798000Y0210610D03*
X0798000Y0220610D03*
X0798000Y0230610D03*
X0798000Y0240610D03*
X0798000Y0250610D03*
X0748000Y0290610D03*
X0738000Y0290610D03*
X0728000Y0290610D03*
X0718000Y0290610D03*
X0718000Y0300610D03*
X0615500Y0223110D03*
X0615500Y0203110D03*
X0575500Y0248110D03*
X0575500Y0258110D03*
D74*
X0575500Y0185610D03*
X0615500Y0185610D03*
D38*
X0573000Y0290610D03*
X0593000Y0300610D03*
X0708000Y0300610D03*
X0708000Y0290610D03*
D82*
X0698000Y0290610D03*
X0698000Y0300610D03*
X0688000Y0300610D03*
X0688000Y0290610D03*
X0593000Y0290610D03*
X0583000Y0290610D03*
X0583000Y0300610D03*
X0573000Y0300610D03*
D76*
X0651750Y0271860D03*
X0661750Y0271860D03*
X0671750Y0271860D03*
X0681750Y0271860D03*
X0691750Y0271860D03*
X0691750Y0241860D03*
X0681750Y0241860D03*
X0671750Y0241860D03*
X0661750Y0241860D03*
X0651750Y0241860D03*
X0705500Y0230610D03*
X0735500Y0230610D03*
X0746750Y0226860D03*
X0746750Y0236860D03*
X0746750Y0246860D03*
X0776750Y0246860D03*
X0776750Y0236860D03*
X0776750Y0226860D03*
X0771750Y0201860D03*
X0776750Y0191860D03*
X0776750Y0181860D03*
X0776750Y0171860D03*
X0771750Y0141860D03*
X0771750Y0131860D03*
X0751750Y0131860D03*
X0751750Y0141860D03*
X0746750Y0171860D03*
X0746750Y0181860D03*
X0746750Y0191860D03*
X0751750Y0201860D03*
X0706750Y0151860D03*
X0696750Y0151860D03*
X0686750Y0151860D03*
X0686750Y0121860D03*
X0696750Y0121860D03*
X0706750Y0121860D03*
X0631750Y0125610D03*
X0631750Y0116860D03*
X0601750Y0116860D03*
X0601750Y0125610D03*
X0759250Y0291860D03*
X0766750Y0296860D03*
X0766750Y0286860D03*
X0784250Y0291860D03*
X0791750Y0296860D03*
X0791750Y0286860D03*
D95*
X0731750Y0271860D03*
X0716750Y0246860D03*
X0731750Y0166860D03*
X0731750Y0136860D03*
X0701750Y0166860D03*
X0671750Y0166860D03*
X0671750Y0136860D03*
D70*
X0661750Y0136860D03*
X0661750Y0166860D03*
X0691750Y0166860D03*
X0721750Y0166860D03*
X0721750Y0136860D03*
X0706750Y0246860D03*
X0721750Y0271860D03*
D79*
X0671750Y0221860D03*
X0661750Y0221860D03*
X0651750Y0221860D03*
X0641750Y0221860D03*
X0641750Y0191860D03*
X0651750Y0191860D03*
X0661750Y0191860D03*
X0671750Y0191860D03*
D35*
X0739250Y0216860D03*
X0784250Y0216860D03*
X0784250Y0156860D03*
X0739250Y0156860D03*
D29*
X0601940Y0211860D03*
X0590130Y0230360D03*
X0578310Y0211860D03*
D102*
X0758000Y0260610D03*
X0758000Y0270610D03*
X0768000Y0270610D03*
X0768000Y0260610D03*
X0778000Y0260610D03*
X0778000Y0270610D03*
X0788000Y0270610D03*
X0788000Y0260610D03*
X0798000Y0260610D03*
X0798000Y0270610D03*
D24*
X0791120Y0347480D03*
X0807060Y0347480D03*
X0807060Y0372170D03*
X0791130Y0371860D03*
X0791130Y0397170D03*
X0807060Y0397170D03*
X0871130Y0397170D03*
X0871130Y0371860D03*
X0871120Y0347480D03*
X0727060Y0347480D03*
X0711120Y0347480D03*
X0711130Y0371860D03*
X0727060Y0372170D03*
X0727060Y0397170D03*
X0711130Y0397170D03*
X0647060Y0397170D03*
X0647060Y0372170D03*
X0647060Y0347480D03*
X0647380Y0066230D03*
X0647370Y0041860D03*
X0647370Y0016540D03*
X0711440Y0016540D03*
X0727370Y0016540D03*
X0727370Y0041860D03*
X0711440Y0041540D03*
X0711440Y0066230D03*
X0727380Y0066230D03*
X0791440Y0066230D03*
X0791440Y0041540D03*
X0791440Y0016540D03*
D44*
X0798000Y0110610D03*
D86*
X0572270Y0102430D03*
X0572270Y0135300D03*
D69*
X0584570Y0127620D02*
X0588940Y0127620D01*
X0588940Y0110100D02*
X0584570Y0110100D01*
D27*
X0583300Y0113740D03*
X0583300Y0116300D03*
X0583300Y0118860D03*
X0583300Y0121420D03*
X0583300Y0123980D03*
D36*
X0572270Y0123390D03*
X0572270Y0114340D03*
D79*
X0754150Y0311860D02*
X0759350Y0311860D01*
X0794150Y0311860D02*
X0799350Y0311860D01*
D91*
X0726750Y0221860D03*
X0726750Y0191860D03*
X0686750Y0191860D03*
X0686750Y0221860D03*
D26*
X0804250Y0089360D02*
X0791750Y0076860D01*
X0738000Y0076860D01*
X0727380Y0066230D01*
X0726750Y0096860D02*
X0696120Y0066230D01*
X0647380Y0066230D01*
X0644250Y0084360D02*
X0629250Y0084360D01*
X0631750Y0116860D02*
X0608000Y0116860D01*
X0601750Y0116860D02*
X0601200Y0116300D01*
X0583300Y0116300D01*
X0583300Y0113740D02*
X0591110Y0113740D01*
X0598000Y0106860D01*
X0598000Y0100610D01*
X0595010Y0118860D02*
X0601750Y0125610D01*
X0600500Y0130610D02*
X0624250Y0130610D01*
X0618000Y0125610D02*
X0631750Y0125610D01*
X0600500Y0130610D02*
X0591320Y0121420D01*
X0583300Y0121420D01*
X0583300Y0118860D02*
X0595010Y0118860D01*
X0584570Y0127620D02*
X0583300Y0126340D01*
X0583300Y0123980D01*
X0593310Y0196860D02*
X0609250Y0196860D01*
X0615500Y0203110D01*
X0621750Y0206860D02*
X0616750Y0211860D01*
X0621750Y0206860D02*
X0651750Y0206860D01*
X0691750Y0206860D01*
X0701750Y0211860D02*
X0666750Y0211860D01*
X0661750Y0216860D01*
X0661750Y0221860D01*
X0646750Y0226860D02*
X0641750Y0221860D01*
X0616750Y0221860D01*
X0615500Y0223110D01*
X0593310Y0196860D02*
X0578310Y0211860D01*
X0575500Y0258110D02*
X0615500Y0258110D01*
X0593000Y0290610D02*
X0656750Y0290610D01*
X0645500Y0300610D02*
X0688000Y0300610D01*
X0713000Y0305610D02*
X0615500Y0305610D01*
X0621750Y0311860D02*
X0736750Y0311860D01*
X0746750Y0301860D01*
X0746750Y0291860D01*
X0748000Y0290610D01*
X0741750Y0296860D01*
X0724250Y0296860D01*
X0718000Y0290610D01*
X0721750Y0281860D02*
X0711750Y0271860D01*
X0721750Y0281860D02*
X0786750Y0281860D01*
X0798000Y0270610D01*
X0784250Y0253110D02*
X0753000Y0253110D01*
X0746750Y0246860D02*
X0716750Y0246860D01*
X0726750Y0264360D02*
X0733000Y0264360D01*
X0739250Y0270610D01*
X0758000Y0270610D01*
X0759250Y0291860D02*
X0776750Y0291860D01*
X0781750Y0296860D01*
X0791750Y0296860D01*
X0756750Y0311860D02*
X0746750Y0301860D01*
X0718000Y0300610D02*
X0713000Y0305610D01*
X0671750Y0271860D02*
X0666750Y0266860D01*
X0656750Y0266860D01*
X0651750Y0271860D01*
X0646750Y0226860D02*
X0696750Y0226860D01*
X0705500Y0191860D02*
X0686750Y0191860D01*
X0686750Y0184360D02*
X0729250Y0184360D01*
X0736750Y0191860D01*
X0746750Y0191860D01*
X0729250Y0178110D02*
X0675500Y0178110D01*
X0661750Y0191860D01*
X0691750Y0166860D02*
X0701750Y0166860D01*
X0726750Y0121860D02*
X0726750Y0096860D01*
X0776750Y0191860D02*
X0785500Y0200610D01*
X0798000Y0200610D01*
X0784250Y0216860D02*
X0788000Y0220610D01*
X0798000Y0220610D01*
X0798000Y0240610D02*
X0780500Y0240610D01*
X0776750Y0236860D01*
X0768000Y0231860D02*
X0736750Y0231860D01*
X0735500Y0230610D01*
X0798000Y0250610D02*
X0804250Y0244360D01*
X0804250Y0089360D01*
D61*
X0729250Y0178110D03*
X0705500Y0191860D03*
X0691750Y0206860D03*
X0701750Y0211860D03*
X0696750Y0226860D03*
X0726750Y0264360D03*
X0711750Y0271860D03*
X0753000Y0253110D03*
X0768000Y0231860D03*
X0784250Y0253110D03*
X0686750Y0184360D03*
X0651750Y0206860D03*
X0615500Y0258110D03*
X0645500Y0300610D03*
X0656750Y0290610D03*
X0621750Y0311860D03*
X0615500Y0305610D03*
X0624250Y0130610D03*
X0618000Y0125610D03*
X0608000Y0116860D03*
X0629250Y0084360D03*
X0644250Y0084360D03*
X0726750Y0121860D03*
D90*
X0616750Y0211860D03*
X0890500Y0010000D02*
G75*
%LPD*%
D65*
X0959530Y0047010D03*
X0959530Y0056860D03*
X0959530Y0066700D03*
X0959530Y0147010D03*
X0959530Y0156860D03*
X0959530Y0166700D03*
X0959530Y0247010D03*
X0959530Y0256860D03*
X0959530Y0266700D03*
X0959530Y0347010D03*
X0959530Y0356860D03*
X0959530Y0366700D03*
D49*
X0930000Y0374570D03*
X0930000Y0339140D03*
X0930000Y0274570D03*
X0930000Y0239140D03*
X0930000Y0174570D03*
X0930000Y0139140D03*
X0930000Y0074570D03*
X0930000Y0039140D03*
D92*
X0931250Y0100610D03*
X0921250Y0100610D03*
X0911250Y0100610D03*
X0941250Y0100610D03*
X0951250Y0100610D03*
X0981250Y0100610D03*
X0991250Y0100610D03*
X1001250Y0100610D03*
X1011250Y0100610D03*
X1021250Y0100610D03*
X1031250Y0100610D03*
X1071250Y0100610D03*
X1081250Y0100610D03*
X1091250Y0100610D03*
X1091250Y0110610D03*
X1101250Y0110610D03*
X1111250Y0110610D03*
X1111250Y0100610D03*
X1121250Y0100610D03*
X1101250Y0100610D03*
X1121250Y0160610D03*
X1121250Y0170610D03*
X1121250Y0180610D03*
X1121250Y0190610D03*
X1121250Y0200610D03*
X1121250Y0210610D03*
X1121250Y0220610D03*
X1121250Y0230610D03*
X1121250Y0240610D03*
X1121250Y0250610D03*
X1071250Y0290610D03*
X1061250Y0290610D03*
X1051250Y0290610D03*
X1041250Y0290610D03*
X1041250Y0300610D03*
X0938750Y0223110D03*
X0938750Y0203110D03*
X0898750Y0248110D03*
X0898750Y0258110D03*
D74*
X0898750Y0185610D03*
X0938750Y0185610D03*
D38*
X0896250Y0290610D03*
X0916250Y0300610D03*
X1031250Y0300610D03*
X1031250Y0290610D03*
D82*
X1021250Y0290610D03*
X1021250Y0300610D03*
X1011250Y0300610D03*
X1011250Y0290610D03*
X0916250Y0290610D03*
X0906250Y0290610D03*
X0906250Y0300610D03*
X0896250Y0300610D03*
D76*
X0975000Y0271860D03*
X0985000Y0271860D03*
X0995000Y0271860D03*
X1005000Y0271860D03*
X1015000Y0271860D03*
X1015000Y0241860D03*
X1005000Y0241860D03*
X0995000Y0241860D03*
X0985000Y0241860D03*
X0975000Y0241860D03*
X1028750Y0230610D03*
X1058750Y0230610D03*
X1070000Y0226860D03*
X1070000Y0236860D03*
X1070000Y0246860D03*
X1100000Y0246860D03*
X1100000Y0236860D03*
X1100000Y0226860D03*
X1095000Y0201860D03*
X1100000Y0191860D03*
X1100000Y0181860D03*
X1100000Y0171860D03*
X1095000Y0141860D03*
X1095000Y0131860D03*
X1075000Y0131860D03*
X1075000Y0141860D03*
X1070000Y0171860D03*
X1070000Y0181860D03*
X1070000Y0191860D03*
X1075000Y0201860D03*
X1030000Y0151860D03*
X1020000Y0151860D03*
X1010000Y0151860D03*
X1010000Y0121860D03*
X1020000Y0121860D03*
X1030000Y0121860D03*
X0955000Y0125610D03*
X0955000Y0116860D03*
X0925000Y0116860D03*
X0925000Y0125610D03*
X1082500Y0291860D03*
X1090000Y0296860D03*
X1090000Y0286860D03*
X1107500Y0291860D03*
X1115000Y0296860D03*
X1115000Y0286860D03*
D95*
X1055000Y0271860D03*
X1040000Y0246860D03*
X1055000Y0166860D03*
X1055000Y0136860D03*
X1025000Y0166860D03*
X0995000Y0166860D03*
X0995000Y0136860D03*
D70*
X0985000Y0136860D03*
X0985000Y0166860D03*
X1015000Y0166860D03*
X1045000Y0166860D03*
X1045000Y0136860D03*
X1030000Y0246860D03*
X1045000Y0271860D03*
D79*
X0995000Y0221860D03*
X0985000Y0221860D03*
X0975000Y0221860D03*
X0965000Y0221860D03*
X0965000Y0191860D03*
X0975000Y0191860D03*
X0985000Y0191860D03*
X0995000Y0191860D03*
D35*
X1062500Y0216860D03*
X1107500Y0216860D03*
X1107500Y0156860D03*
X1062500Y0156860D03*
D29*
X0925190Y0211860D03*
X0913380Y0230360D03*
X0901560Y0211860D03*
D102*
X1081250Y0260610D03*
X1081250Y0270610D03*
X1091250Y0270610D03*
X1091250Y0260610D03*
X1101250Y0260610D03*
X1101250Y0270610D03*
X1111250Y0270610D03*
X1111250Y0260610D03*
X1121250Y0260610D03*
X1121250Y0270610D03*
D24*
X1114370Y0347480D03*
X1130310Y0347480D03*
X1130310Y0372170D03*
X1114380Y0371860D03*
X1114380Y0397170D03*
X1130310Y0397170D03*
X1194380Y0397170D03*
X1194380Y0371860D03*
X1194370Y0347480D03*
X1050310Y0347480D03*
X1034370Y0347480D03*
X1034380Y0371860D03*
X1050310Y0372170D03*
X1050310Y0397170D03*
X1034380Y0397170D03*
X0970310Y0397170D03*
X0970310Y0372170D03*
X0970310Y0347480D03*
X0970630Y0066230D03*
X0970620Y0041860D03*
X0970620Y0016540D03*
X1034690Y0016540D03*
X1050620Y0016540D03*
X1050620Y0041860D03*
X1034690Y0041540D03*
X1034690Y0066230D03*
X1050630Y0066230D03*
X1114690Y0066230D03*
X1114690Y0041540D03*
X1114690Y0016540D03*
D44*
X1121250Y0110610D03*
D86*
X0895520Y0102430D03*
X0895520Y0135300D03*
D69*
X0907820Y0127620D02*
X0912190Y0127620D01*
X0912190Y0110100D02*
X0907820Y0110100D01*
D27*
X0906550Y0113740D03*
X0906550Y0116300D03*
X0906550Y0118860D03*
X0906550Y0121420D03*
X0906550Y0123980D03*
D36*
X0895520Y0123390D03*
X0895520Y0114340D03*
D79*
X1077400Y0311860D02*
X1082600Y0311860D01*
X1117400Y0311860D02*
X1122600Y0311860D01*
D91*
X1050000Y0221860D03*
X1050000Y0191860D03*
X1010000Y0191860D03*
X1010000Y0221860D03*
D26*
X1127500Y0089360D02*
X1115000Y0076860D01*
X1061250Y0076860D01*
X1050630Y0066230D01*
X1050000Y0096860D02*
X1019370Y0066230D01*
X0970630Y0066230D01*
X0967500Y0084360D02*
X0952500Y0084360D01*
X0955000Y0116860D02*
X0931250Y0116860D01*
X0925000Y0116860D02*
X0924450Y0116300D01*
X0906550Y0116300D01*
X0906550Y0113740D02*
X0914360Y0113740D01*
X0921250Y0106860D01*
X0921250Y0100610D01*
X0918260Y0118860D02*
X0925000Y0125610D01*
X0923750Y0130610D02*
X0947500Y0130610D01*
X0941250Y0125610D02*
X0955000Y0125610D01*
X0923750Y0130610D02*
X0914570Y0121420D01*
X0906550Y0121420D01*
X0906550Y0118860D02*
X0918260Y0118860D01*
X0907820Y0127620D02*
X0906550Y0126340D01*
X0906550Y0123980D01*
X0916560Y0196860D02*
X0932500Y0196860D01*
X0938750Y0203110D01*
X0945000Y0206860D02*
X0940000Y0211860D01*
X0945000Y0206860D02*
X0975000Y0206860D01*
X1015000Y0206860D01*
X1025000Y0211860D02*
X0990000Y0211860D01*
X0985000Y0216860D01*
X0985000Y0221860D01*
X0970000Y0226860D02*
X0965000Y0221860D01*
X0940000Y0221860D01*
X0938750Y0223110D01*
X0916560Y0196860D02*
X0901560Y0211860D01*
X0898750Y0258110D02*
X0938750Y0258110D01*
X0916250Y0290610D02*
X0980000Y0290610D01*
X0968750Y0300610D02*
X1011250Y0300610D01*
X1036250Y0305610D02*
X0938750Y0305610D01*
X0945000Y0311860D02*
X1060000Y0311860D01*
X1070000Y0301860D01*
X1070000Y0291860D01*
X1071250Y0290610D01*
X1065000Y0296860D01*
X1047500Y0296860D01*
X1041250Y0290610D01*
X1045000Y0281860D02*
X1035000Y0271860D01*
X1045000Y0281860D02*
X1110000Y0281860D01*
X1121250Y0270610D01*
X1107500Y0253110D02*
X1076250Y0253110D01*
X1070000Y0246860D02*
X1040000Y0246860D01*
X1050000Y0264360D02*
X1056250Y0264360D01*
X1062500Y0270610D01*
X1081250Y0270610D01*
X1082500Y0291860D02*
X1100000Y0291860D01*
X1105000Y0296860D01*
X1115000Y0296860D01*
X1080000Y0311860D02*
X1070000Y0301860D01*
X1041250Y0300610D02*
X1036250Y0305610D01*
X0995000Y0271860D02*
X0990000Y0266860D01*
X0980000Y0266860D01*
X0975000Y0271860D01*
X0970000Y0226860D02*
X1020000Y0226860D01*
X1028750Y0191860D02*
X1010000Y0191860D01*
X1010000Y0184360D02*
X1052500Y0184360D01*
X1060000Y0191860D01*
X1070000Y0191860D01*
X1052500Y0178110D02*
X0998750Y0178110D01*
X0985000Y0191860D01*
X1015000Y0166860D02*
X1025000Y0166860D01*
X1050000Y0121860D02*
X1050000Y0096860D01*
X1100000Y0191860D02*
X1108750Y0200610D01*
X1121250Y0200610D01*
X1107500Y0216860D02*
X1111250Y0220610D01*
X1121250Y0220610D01*
X1121250Y0240610D02*
X1103750Y0240610D01*
X1100000Y0236860D01*
X1091250Y0231860D02*
X1060000Y0231860D01*
X1058750Y0230610D01*
X1121250Y0250610D02*
X1127500Y0244360D01*
X1127500Y0089360D01*
D61*
X1052500Y0178110D03*
X1028750Y0191860D03*
X1015000Y0206860D03*
X1025000Y0211860D03*
X1020000Y0226860D03*
X1050000Y0264360D03*
X1035000Y0271860D03*
X1076250Y0253110D03*
X1091250Y0231860D03*
X1107500Y0253110D03*
X1010000Y0184360D03*
X0975000Y0206860D03*
X0938750Y0258110D03*
X0968750Y0300610D03*
X0980000Y0290610D03*
X0945000Y0311860D03*
X0938750Y0305610D03*
X0947500Y0130610D03*
X0941250Y0125610D03*
X0931250Y0116860D03*
X0952500Y0084360D03*
X0967500Y0084360D03*
X1050000Y0121860D03*
D90*
X0940000Y0211860D03*
X1213750Y0010000D02*
G75*
%LPD*%
D65*
X1250760Y0251720D03*
X1260610Y0251720D03*
X1270450Y0251720D03*
X1350760Y0251720D03*
X1360610Y0251720D03*
X1370450Y0251720D03*
X1450760Y0251720D03*
X1460610Y0251720D03*
X1470450Y0251720D03*
X1550760Y0251720D03*
X1560610Y0251720D03*
X1570450Y0251720D03*
D49*
X1578320Y0281250D03*
X1542890Y0281250D03*
X1478320Y0281250D03*
X1442890Y0281250D03*
X1378320Y0281250D03*
X1342890Y0281250D03*
X1278320Y0281250D03*
X1242890Y0281250D03*
D92*
X1304360Y0280000D03*
X1304360Y0290000D03*
X1304360Y0300000D03*
X1304360Y0270000D03*
X1304360Y0260000D03*
X1304360Y0230000D03*
X1304360Y0220000D03*
X1304360Y0210000D03*
X1304360Y0200000D03*
X1304360Y0190000D03*
X1304360Y0180000D03*
X1304360Y0140000D03*
X1304360Y0130000D03*
X1304360Y0120000D03*
X1314360Y0120000D03*
X1314360Y0110000D03*
X1314360Y0100000D03*
X1304360Y0100000D03*
X1304360Y0090000D03*
X1304360Y0110000D03*
X1364360Y0090000D03*
X1374360Y0090000D03*
X1384360Y0090000D03*
X1394360Y0090000D03*
X1404360Y0090000D03*
X1414360Y0090000D03*
X1424360Y0090000D03*
X1434360Y0090000D03*
X1444360Y0090000D03*
X1454360Y0090000D03*
X1494360Y0140000D03*
X1494360Y0150000D03*
X1494360Y0160000D03*
X1494360Y0170000D03*
X1504360Y0170000D03*
X1426860Y0272500D03*
X1406860Y0272500D03*
X1451860Y0312500D03*
X1461860Y0312500D03*
D74*
X1389360Y0312500D03*
X1389360Y0272500D03*
D38*
X1494360Y0315000D03*
X1504360Y0295000D03*
X1504360Y0180000D03*
X1494360Y0180000D03*
D82*
X1494360Y0190000D03*
X1504360Y0190000D03*
X1504360Y0200000D03*
X1494360Y0200000D03*
X1494360Y0295000D03*
X1494360Y0305000D03*
X1504360Y0305000D03*
X1504360Y0315000D03*
D76*
X1475610Y0236250D03*
X1475610Y0226250D03*
X1475610Y0216250D03*
X1475610Y0206250D03*
X1475610Y0196250D03*
X1445610Y0196250D03*
X1445610Y0206250D03*
X1445610Y0216250D03*
X1445610Y0226250D03*
X1445610Y0236250D03*
X1434360Y0182500D03*
X1434360Y0152500D03*
X1430610Y0141250D03*
X1440610Y0141250D03*
X1450610Y0141250D03*
X1450610Y0111250D03*
X1440610Y0111250D03*
X1430610Y0111250D03*
X1405610Y0116250D03*
X1395610Y0111250D03*
X1385610Y0111250D03*
X1375610Y0111250D03*
X1345610Y0116250D03*
X1335610Y0116250D03*
X1335610Y0136250D03*
X1345610Y0136250D03*
X1375610Y0141250D03*
X1385610Y0141250D03*
X1395610Y0141250D03*
X1405610Y0136250D03*
X1355610Y0181250D03*
X1355610Y0191250D03*
X1355610Y0201250D03*
X1325610Y0201250D03*
X1325610Y0191250D03*
X1325610Y0181250D03*
X1329360Y0256250D03*
X1320610Y0256250D03*
X1320610Y0286250D03*
X1329360Y0286250D03*
X1495610Y0128750D03*
X1500610Y0121250D03*
X1490610Y0121250D03*
X1495610Y0103750D03*
X1500610Y0096250D03*
X1490610Y0096250D03*
D95*
X1475610Y0156250D03*
X1450610Y0171250D03*
X1370610Y0156250D03*
X1340610Y0156250D03*
X1370610Y0186250D03*
X1370610Y0216250D03*
X1340610Y0216250D03*
D70*
X1340610Y0226250D03*
X1370610Y0226250D03*
X1370610Y0196250D03*
X1370610Y0166250D03*
X1340610Y0166250D03*
X1450610Y0181250D03*
X1475610Y0166250D03*
D79*
X1425610Y0216250D03*
X1425610Y0226250D03*
X1425610Y0236250D03*
X1425610Y0246250D03*
X1395610Y0246250D03*
X1395610Y0236250D03*
X1395610Y0226250D03*
X1395610Y0216250D03*
D35*
X1420610Y0148750D03*
X1420610Y0103750D03*
X1360610Y0103750D03*
X1360610Y0148750D03*
D29*
X1415610Y0286060D03*
X1434110Y0297870D03*
X1415610Y0309690D03*
D102*
X1464360Y0130000D03*
X1474360Y0130000D03*
X1474360Y0120000D03*
X1464360Y0120000D03*
X1464360Y0110000D03*
X1474360Y0110000D03*
X1474360Y0100000D03*
X1464360Y0100000D03*
X1464360Y0090000D03*
X1474360Y0090000D03*
D24*
X1551230Y0096880D03*
X1551230Y0080940D03*
X1575920Y0080940D03*
X1575610Y0096870D03*
X1600920Y0096870D03*
X1600920Y0080940D03*
X1600920Y0016870D03*
X1575610Y0016870D03*
X1551230Y0016880D03*
X1551230Y0160940D03*
X1551230Y0176880D03*
X1575610Y0176870D03*
X1575920Y0160940D03*
X1600920Y0160940D03*
X1600920Y0176870D03*
X1600920Y0240940D03*
X1575920Y0240940D03*
X1551230Y0240940D03*
X1269980Y0240620D03*
X1245610Y0240630D03*
X1220290Y0240630D03*
X1220290Y0176560D03*
X1220290Y0160630D03*
X1245610Y0160630D03*
X1245290Y0176560D03*
X1269980Y0176560D03*
X1269980Y0160620D03*
X1269980Y0096560D03*
X1245290Y0096560D03*
X1220290Y0096560D03*
D44*
X1314360Y0090000D03*
D86*
X1306180Y0315730D03*
X1339050Y0315730D03*
D69*
X1331370Y0303430D02*
X1331370Y0299060D01*
X1313850Y0299060D02*
X1313850Y0303430D01*
D75*
X1317490Y0304700D03*
X1320050Y0304700D03*
X1322610Y0304700D03*
X1325170Y0304700D03*
X1327730Y0304700D03*
D37*
X1327140Y0315730D03*
X1318090Y0315730D03*
D79*
X1515610Y0133850D02*
X1515610Y0128650D01*
X1515610Y0093850D02*
X1515610Y0088650D01*
D91*
X1425610Y0161250D03*
X1395610Y0161250D03*
X1395610Y0201250D03*
X1425610Y0201250D03*
D26*
X1293110Y0083750D02*
X1280610Y0096250D01*
X1280610Y0150000D01*
X1269980Y0160620D01*
X1300610Y0161250D02*
X1269980Y0191880D01*
X1269980Y0240620D01*
X1288110Y0243750D02*
X1288110Y0258750D01*
X1320610Y0256250D02*
X1320610Y0280000D01*
X1320610Y0286250D02*
X1320050Y0286800D01*
X1320050Y0304700D01*
X1317490Y0304700D02*
X1317490Y0296890D01*
X1310610Y0290000D01*
X1304360Y0290000D01*
X1322610Y0292990D02*
X1329360Y0286250D01*
X1334360Y0287500D02*
X1334360Y0263750D01*
X1329360Y0270000D02*
X1329360Y0256250D01*
X1334360Y0287500D02*
X1325170Y0296680D01*
X1325170Y0304700D01*
X1322610Y0304700D02*
X1322610Y0292990D01*
X1331370Y0303430D02*
X1330090Y0304700D01*
X1327730Y0304700D01*
X1400610Y0294690D02*
X1400610Y0278750D01*
X1406860Y0272500D01*
X1410610Y0266250D02*
X1415610Y0271250D01*
X1410610Y0266250D02*
X1410610Y0236250D01*
X1410610Y0196250D01*
X1415610Y0186250D02*
X1415610Y0221250D01*
X1420610Y0226250D01*
X1425610Y0226250D01*
X1430610Y0241250D02*
X1425610Y0246250D01*
X1425610Y0271250D01*
X1426860Y0272500D01*
X1400610Y0294690D02*
X1415610Y0309690D01*
X1461860Y0312500D02*
X1461860Y0272500D01*
X1494360Y0295000D02*
X1494360Y0231250D01*
X1504360Y0242500D02*
X1504360Y0200000D01*
X1509360Y0175000D02*
X1509360Y0272500D01*
X1515610Y0266250D02*
X1515610Y0151250D01*
X1505610Y0141250D01*
X1495610Y0141250D01*
X1494360Y0140000D01*
X1500610Y0146250D01*
X1500610Y0163750D01*
X1494360Y0170000D01*
X1485610Y0166250D02*
X1475610Y0176250D01*
X1485610Y0166250D02*
X1485610Y0101250D01*
X1474360Y0090000D01*
X1456860Y0103750D02*
X1456860Y0135000D01*
X1450610Y0141250D02*
X1450610Y0171250D01*
X1468110Y0161250D02*
X1468110Y0155000D01*
X1474360Y0148750D01*
X1474360Y0130000D01*
X1495610Y0128750D02*
X1495610Y0111250D01*
X1500610Y0106250D01*
X1500610Y0096250D01*
X1515610Y0131250D02*
X1505610Y0141250D01*
X1504360Y0170000D02*
X1509360Y0175000D01*
X1475610Y0216250D02*
X1470610Y0221250D01*
X1470610Y0231250D01*
X1475610Y0236250D01*
X1430610Y0241250D02*
X1430610Y0191250D01*
X1395610Y0182500D02*
X1395610Y0201250D01*
X1388110Y0201250D02*
X1388110Y0158750D01*
X1395610Y0151250D01*
X1395610Y0141250D01*
X1381860Y0158750D02*
X1381860Y0212500D01*
X1395610Y0226250D01*
X1370610Y0196250D02*
X1370610Y0186250D01*
X1325610Y0161250D02*
X1300610Y0161250D01*
X1395610Y0111250D02*
X1404360Y0102500D01*
X1404360Y0090000D01*
X1420610Y0103750D02*
X1424360Y0100000D01*
X1424360Y0090000D01*
X1444360Y0090000D02*
X1444360Y0107500D01*
X1440610Y0111250D01*
X1435610Y0120000D02*
X1435610Y0151250D01*
X1434360Y0152500D01*
X1454360Y0090000D02*
X1448110Y0083750D01*
X1293110Y0083750D01*
D61*
X1381860Y0158750D03*
X1395610Y0182500D03*
X1410610Y0196250D03*
X1415610Y0186250D03*
X1430610Y0191250D03*
X1468110Y0161250D03*
X1475610Y0176250D03*
X1456860Y0135000D03*
X1435610Y0120000D03*
X1456860Y0103750D03*
X1388110Y0201250D03*
X1410610Y0236250D03*
X1461860Y0272500D03*
X1504360Y0242500D03*
X1494360Y0231250D03*
X1515610Y0266250D03*
X1509360Y0272500D03*
X1334360Y0263750D03*
X1329360Y0270000D03*
X1320610Y0280000D03*
X1288110Y0258750D03*
X1288110Y0243750D03*
X1325610Y0161250D03*
D90*
X1415610Y0271250D03*
X1213750Y0333250D02*
G75*
%LPD*%
D65*
X1250760Y0574970D03*
X1260610Y0574970D03*
X1270450Y0574970D03*
X1350760Y0574970D03*
X1360610Y0574970D03*
X1370450Y0574970D03*
X1450760Y0574970D03*
X1460610Y0574970D03*
X1470450Y0574970D03*
X1550760Y0574970D03*
X1560610Y0574970D03*
X1570450Y0574970D03*
D49*
X1578320Y0604500D03*
X1542890Y0604500D03*
X1478320Y0604500D03*
X1442890Y0604500D03*
X1378320Y0604500D03*
X1342890Y0604500D03*
X1278320Y0604500D03*
X1242890Y0604500D03*
D92*
X1304360Y0603250D03*
X1304360Y0613250D03*
X1304360Y0623250D03*
X1304360Y0593250D03*
X1304360Y0583250D03*
X1304360Y0553250D03*
X1304360Y0543250D03*
X1304360Y0533250D03*
X1304360Y0523250D03*
X1304360Y0513250D03*
X1304360Y0503250D03*
X1304360Y0463250D03*
X1304360Y0453250D03*
X1304360Y0443250D03*
X1314360Y0443250D03*
X1314360Y0433250D03*
X1314360Y0423250D03*
X1304360Y0423250D03*
X1304360Y0413250D03*
X1304360Y0433250D03*
X1364360Y0413250D03*
X1374360Y0413250D03*
X1384360Y0413250D03*
X1394360Y0413250D03*
X1404360Y0413250D03*
X1414360Y0413250D03*
X1424360Y0413250D03*
X1434360Y0413250D03*
X1444360Y0413250D03*
X1454360Y0413250D03*
X1494360Y0463250D03*
X1494360Y0473250D03*
X1494360Y0483250D03*
X1494360Y0493250D03*
X1504360Y0493250D03*
X1426860Y0595750D03*
X1406860Y0595750D03*
X1451860Y0635750D03*
X1461860Y0635750D03*
D74*
X1389360Y0635750D03*
X1389360Y0595750D03*
D38*
X1494360Y0638250D03*
X1504360Y0618250D03*
X1504360Y0503250D03*
X1494360Y0503250D03*
D82*
X1494360Y0513250D03*
X1504360Y0513250D03*
X1504360Y0523250D03*
X1494360Y0523250D03*
X1494360Y0618250D03*
X1494360Y0628250D03*
X1504360Y0628250D03*
X1504360Y0638250D03*
D76*
X1475610Y0559500D03*
X1475610Y0549500D03*
X1475610Y0539500D03*
X1475610Y0529500D03*
X1475610Y0519500D03*
X1445610Y0519500D03*
X1445610Y0529500D03*
X1445610Y0539500D03*
X1445610Y0549500D03*
X1445610Y0559500D03*
X1434360Y0505750D03*
X1434360Y0475750D03*
X1430610Y0464500D03*
X1440610Y0464500D03*
X1450610Y0464500D03*
X1450610Y0434500D03*
X1440610Y0434500D03*
X1430610Y0434500D03*
X1405610Y0439500D03*
X1395610Y0434500D03*
X1385610Y0434500D03*
X1375610Y0434500D03*
X1345610Y0439500D03*
X1335610Y0439500D03*
X1335610Y0459500D03*
X1345610Y0459500D03*
X1375610Y0464500D03*
X1385610Y0464500D03*
X1395610Y0464500D03*
X1405610Y0459500D03*
X1355610Y0504500D03*
X1355610Y0514500D03*
X1355610Y0524500D03*
X1325610Y0524500D03*
X1325610Y0514500D03*
X1325610Y0504500D03*
X1329360Y0579500D03*
X1320610Y0579500D03*
X1320610Y0609500D03*
X1329360Y0609500D03*
X1495610Y0452000D03*
X1500610Y0444500D03*
X1490610Y0444500D03*
X1495610Y0427000D03*
X1500610Y0419500D03*
X1490610Y0419500D03*
D95*
X1475610Y0479500D03*
X1450610Y0494500D03*
X1370610Y0479500D03*
X1340610Y0479500D03*
X1370610Y0509500D03*
X1370610Y0539500D03*
X1340610Y0539500D03*
D70*
X1340610Y0549500D03*
X1370610Y0549500D03*
X1370610Y0519500D03*
X1370610Y0489500D03*
X1340610Y0489500D03*
X1450610Y0504500D03*
X1475610Y0489500D03*
D79*
X1425610Y0539500D03*
X1425610Y0549500D03*
X1425610Y0559500D03*
X1425610Y0569500D03*
X1395610Y0569500D03*
X1395610Y0559500D03*
X1395610Y0549500D03*
X1395610Y0539500D03*
D35*
X1420610Y0472000D03*
X1420610Y0427000D03*
X1360610Y0427000D03*
X1360610Y0472000D03*
D29*
X1415610Y0609310D03*
X1434110Y0621120D03*
X1415610Y0632940D03*
D102*
X1464360Y0453250D03*
X1474360Y0453250D03*
X1474360Y0443250D03*
X1464360Y0443250D03*
X1464360Y0433250D03*
X1474360Y0433250D03*
X1474360Y0423250D03*
X1464360Y0423250D03*
X1464360Y0413250D03*
X1474360Y0413250D03*
D24*
X1551230Y0420130D03*
X1551230Y0404190D03*
X1575920Y0404190D03*
X1575610Y0420120D03*
X1600920Y0420120D03*
X1600920Y0404190D03*
X1600920Y0340120D03*
X1575610Y0340120D03*
X1551230Y0340130D03*
X1551230Y0484190D03*
X1551230Y0500130D03*
X1575610Y0500120D03*
X1575920Y0484190D03*
X1600920Y0484190D03*
X1600920Y0500120D03*
X1600920Y0564190D03*
X1575920Y0564190D03*
X1551230Y0564190D03*
X1269980Y0563870D03*
X1245610Y0563880D03*
X1220290Y0563880D03*
X1220290Y0499810D03*
X1220290Y0483880D03*
X1245610Y0483880D03*
X1245290Y0499810D03*
X1269980Y0499810D03*
X1269980Y0483870D03*
X1269980Y0419810D03*
X1245290Y0419810D03*
X1220290Y0419810D03*
D44*
X1314360Y0413250D03*
D86*
X1306180Y0638980D03*
X1339050Y0638980D03*
D69*
X1331370Y0626680D02*
X1331370Y0622310D01*
X1313850Y0622310D02*
X1313850Y0626680D01*
D75*
X1317490Y0627950D03*
X1320050Y0627950D03*
X1322610Y0627950D03*
X1325170Y0627950D03*
X1327730Y0627950D03*
D37*
X1327140Y0638980D03*
X1318090Y0638980D03*
D79*
X1515610Y0457100D02*
X1515610Y0451900D01*
X1515610Y0417100D02*
X1515610Y0411900D01*
D91*
X1425610Y0484500D03*
X1395610Y0484500D03*
X1395610Y0524500D03*
X1425610Y0524500D03*
D26*
X1293110Y0407000D02*
X1280610Y0419500D01*
X1280610Y0473250D01*
X1269980Y0483870D01*
X1300610Y0484500D02*
X1269980Y0515130D01*
X1269980Y0563870D01*
X1288110Y0567000D02*
X1288110Y0582000D01*
X1320610Y0579500D02*
X1320610Y0603250D01*
X1320610Y0609500D02*
X1320050Y0610050D01*
X1320050Y0627950D01*
X1317490Y0627950D02*
X1317490Y0620140D01*
X1310610Y0613250D01*
X1304360Y0613250D01*
X1322610Y0616240D02*
X1329360Y0609500D01*
X1334360Y0610750D02*
X1334360Y0587000D01*
X1329360Y0593250D02*
X1329360Y0579500D01*
X1334360Y0610750D02*
X1325170Y0619930D01*
X1325170Y0627950D01*
X1322610Y0627950D02*
X1322610Y0616240D01*
X1331370Y0626680D02*
X1330090Y0627950D01*
X1327730Y0627950D01*
X1400610Y0617940D02*
X1400610Y0602000D01*
X1406860Y0595750D01*
X1410610Y0589500D02*
X1415610Y0594500D01*
X1410610Y0589500D02*
X1410610Y0559500D01*
X1410610Y0519500D01*
X1415610Y0509500D02*
X1415610Y0544500D01*
X1420610Y0549500D01*
X1425610Y0549500D01*
X1430610Y0564500D02*
X1425610Y0569500D01*
X1425610Y0594500D01*
X1426860Y0595750D01*
X1400610Y0617940D02*
X1415610Y0632940D01*
X1461860Y0635750D02*
X1461860Y0595750D01*
X1494360Y0618250D02*
X1494360Y0554500D01*
X1504360Y0565750D02*
X1504360Y0523250D01*
X1509360Y0498250D02*
X1509360Y0595750D01*
X1515610Y0589500D02*
X1515610Y0474500D01*
X1505610Y0464500D01*
X1495610Y0464500D01*
X1494360Y0463250D01*
X1500610Y0469500D01*
X1500610Y0487000D01*
X1494360Y0493250D01*
X1485610Y0489500D02*
X1475610Y0499500D01*
X1485610Y0489500D02*
X1485610Y0424500D01*
X1474360Y0413250D01*
X1456860Y0427000D02*
X1456860Y0458250D01*
X1450610Y0464500D02*
X1450610Y0494500D01*
X1468110Y0484500D02*
X1468110Y0478250D01*
X1474360Y0472000D01*
X1474360Y0453250D01*
X1495610Y0452000D02*
X1495610Y0434500D01*
X1500610Y0429500D01*
X1500610Y0419500D01*
X1515610Y0454500D02*
X1505610Y0464500D01*
X1504360Y0493250D02*
X1509360Y0498250D01*
X1475610Y0539500D02*
X1470610Y0544500D01*
X1470610Y0554500D01*
X1475610Y0559500D01*
X1430610Y0564500D02*
X1430610Y0514500D01*
X1395610Y0505750D02*
X1395610Y0524500D01*
X1388110Y0524500D02*
X1388110Y0482000D01*
X1395610Y0474500D01*
X1395610Y0464500D01*
X1381860Y0482000D02*
X1381860Y0535750D01*
X1395610Y0549500D01*
X1370610Y0519500D02*
X1370610Y0509500D01*
X1325610Y0484500D02*
X1300610Y0484500D01*
X1395610Y0434500D02*
X1404360Y0425750D01*
X1404360Y0413250D01*
X1420610Y0427000D02*
X1424360Y0423250D01*
X1424360Y0413250D01*
X1444360Y0413250D02*
X1444360Y0430750D01*
X1440610Y0434500D01*
X1435610Y0443250D02*
X1435610Y0474500D01*
X1434360Y0475750D01*
X1454360Y0413250D02*
X1448110Y0407000D01*
X1293110Y0407000D01*
D61*
X1381860Y0482000D03*
X1395610Y0505750D03*
X1410610Y0519500D03*
X1415610Y0509500D03*
X1430610Y0514500D03*
X1468110Y0484500D03*
X1475610Y0499500D03*
X1456860Y0458250D03*
X1435610Y0443250D03*
X1456860Y0427000D03*
X1388110Y0524500D03*
X1410610Y0559500D03*
X1461860Y0595750D03*
X1504360Y0565750D03*
X1494360Y0554500D03*
X1515610Y0589500D03*
X1509360Y0595750D03*
X1334360Y0587000D03*
X1329360Y0593250D03*
X1320610Y0603250D03*
X1288110Y0582000D03*
X1288110Y0567000D03*
X1325610Y0484500D03*
D90*
X1415610Y0594500D03*
X0010000Y0258720D02*
G75*
%LPD*%
D92*
X0217500Y0343720D03*
X0207500Y0343720D03*
X0025000Y0293720D03*
X0015000Y0293720D03*
X0015000Y0303720D03*
X0015000Y0313720D03*
X0015000Y0283720D03*
X0025000Y0283720D03*
X0025000Y0273720D03*
X0015000Y0273720D03*
X0015000Y0263720D03*
X0015000Y0353720D03*
X0015000Y0363720D03*
X0015000Y0373720D03*
X0015000Y0383720D03*
X0015000Y0393720D03*
X0015000Y0403720D03*
X0015000Y0433720D03*
X0015000Y0443720D03*
X0015000Y0453720D03*
X0015000Y0463720D03*
X0015000Y0473720D03*
D102*
X0192500Y0263720D03*
X0192500Y0273720D03*
X0192500Y0283720D03*
X0192500Y0293720D03*
X0192500Y0303720D03*
X0182500Y0303720D03*
X0182500Y0293720D03*
X0182500Y0283720D03*
X0182500Y0273720D03*
X0182500Y0263720D03*
D38*
X0207500Y0313720D03*
X0217500Y0353720D03*
X0207500Y0373720D03*
X0207500Y0468720D03*
X0217500Y0468720D03*
D82*
X0217500Y0478720D03*
X0217500Y0488720D03*
X0207500Y0488720D03*
X0207500Y0478720D03*
X0217500Y0373720D03*
X0217500Y0363720D03*
X0207500Y0363720D03*
X0207500Y0353720D03*
X0207500Y0333720D03*
X0207500Y0323720D03*
D44*
X0025000Y0263720D03*
D86*
X0014810Y0489530D03*
X0047690Y0489530D03*
D69*
X0040010Y0477230D02*
X0040010Y0472870D01*
X0022490Y0472870D02*
X0022490Y0477230D01*
D51*
X0035000Y0461220D03*
X0040000Y0454970D03*
X0043750Y0459970D03*
X0047500Y0464970D03*
X0062760Y0464970D03*
X0062500Y0459970D03*
X0062500Y0454970D03*
X0050000Y0446220D03*
X0070000Y0423720D03*
X0073330Y0420390D03*
X0074200Y0403720D03*
X0073750Y0396220D03*
X0078750Y0396220D03*
X0073750Y0391220D03*
X0070000Y0383720D03*
X0073750Y0376220D03*
X0085000Y0376220D03*
X0092500Y0363720D03*
X0097500Y0363720D03*
X0102500Y0363720D03*
X0112500Y0361220D03*
X0123750Y0356220D03*
X0123750Y0346220D03*
X0137500Y0358720D03*
X0132500Y0366220D03*
X0137500Y0381220D03*
X0132500Y0382470D03*
X0123750Y0386220D03*
X0122500Y0391220D03*
X0120000Y0394970D03*
X0122500Y0398720D03*
X0110000Y0411220D03*
X0112500Y0414970D03*
X0106250Y0417470D03*
X0101250Y0418720D03*
X0107500Y0407470D03*
X0105000Y0403720D03*
X0093750Y0403720D03*
X0088750Y0397470D03*
X0086250Y0401220D03*
X0091250Y0393720D03*
X0066250Y0393720D03*
X0062500Y0397470D03*
X0058750Y0401220D03*
X0052500Y0404970D03*
X0055000Y0408720D03*
X0057500Y0412470D03*
X0056250Y0418720D03*
X0050000Y0401220D03*
X0047500Y0397470D03*
X0045000Y0393720D03*
X0045000Y0388720D03*
X0050000Y0387470D03*
X0050000Y0376220D03*
X0050000Y0371220D03*
X0045000Y0367470D03*
X0040000Y0356220D03*
X0040000Y0348720D03*
X0030000Y0348720D03*
X0030000Y0336220D03*
X0025000Y0331220D03*
X0025000Y0326220D03*
X0028750Y0321220D03*
X0035000Y0321220D03*
X0035000Y0326220D03*
X0017500Y0328720D03*
X0035000Y0306220D03*
X0032500Y0293720D03*
X0037500Y0283720D03*
X0052500Y0306220D03*
X0052500Y0311220D03*
X0052500Y0318720D03*
X0052500Y0323720D03*
X0051250Y0337470D03*
X0051250Y0343720D03*
X0057500Y0351220D03*
X0052500Y0356220D03*
X0055000Y0361220D03*
X0062500Y0363720D03*
X0067500Y0363720D03*
X0072500Y0363720D03*
X0062500Y0358720D03*
X0085000Y0356220D03*
X0087500Y0338720D03*
X0100000Y0341220D03*
X0102500Y0346220D03*
X0117500Y0326220D03*
X0115000Y0321220D03*
X0112500Y0317470D03*
X0110000Y0313720D03*
X0107500Y0309970D03*
X0105000Y0306220D03*
X0100000Y0298720D03*
X0095000Y0301220D03*
X0105000Y0296220D03*
X0110000Y0293720D03*
X0115000Y0298720D03*
X0112500Y0302470D03*
X0121250Y0297470D03*
X0137500Y0296220D03*
X0137500Y0301220D03*
X0136250Y0287470D03*
X0133750Y0277470D03*
X0117500Y0277470D03*
X0102500Y0277470D03*
X0090000Y0278720D03*
X0075000Y0278720D03*
X0062500Y0281220D03*
X0061250Y0277470D03*
X0123750Y0322470D03*
X0150000Y0341220D03*
X0152500Y0318720D03*
X0152500Y0292470D03*
X0156250Y0287470D03*
X0152500Y0283720D03*
X0152500Y0276220D03*
X0177500Y0308720D03*
X0177500Y0343720D03*
X0177500Y0351220D03*
X0175000Y0356220D03*
X0173750Y0366220D03*
X0182500Y0373720D03*
X0187500Y0378720D03*
X0192500Y0373720D03*
X0187500Y0368720D03*
X0190000Y0361220D03*
X0190000Y0343720D03*
X0217500Y0306220D03*
X0226250Y0306220D03*
X0207500Y0383720D03*
X0217500Y0411220D03*
X0210000Y0416220D03*
X0203750Y0416220D03*
X0203750Y0421220D03*
X0193750Y0421220D03*
X0193750Y0416220D03*
X0182500Y0412470D03*
X0183750Y0386220D03*
X0153750Y0421220D03*
X0159550Y0430420D03*
X0162500Y0434970D03*
X0165000Y0438720D03*
X0167500Y0442470D03*
X0178750Y0449970D03*
X0187500Y0449970D03*
X0217500Y0431220D03*
X0225000Y0461220D03*
X0151250Y0402470D03*
X0148750Y0406220D03*
X0146250Y0409970D03*
X0143750Y0413720D03*
X0124200Y0430420D03*
X0123750Y0422470D03*
X0117420Y0434890D03*
X0114270Y0437990D03*
X0111120Y0441090D03*
X0090000Y0434970D03*
X0085000Y0434970D03*
X0077500Y0437470D03*
X0080000Y0482470D03*
X0095000Y0482470D03*
X0030000Y0448720D03*
X0023750Y0443720D03*
X0026250Y0423720D03*
X0023750Y0418720D03*
X0020000Y0409970D03*
X0023750Y0402470D03*
D57*
X0027500Y0398720D01*
X0040000Y0398720D01*
X0045000Y0393720D01*
X0047500Y0397470D02*
X0045000Y0399970D01*
X0045000Y0408720D01*
X0042500Y0411220D01*
X0023750Y0411220D01*
X0018750Y0416220D01*
X0018750Y0429970D01*
X0015000Y0433720D01*
X0015000Y0443720D02*
X0023750Y0443720D01*
X0020000Y0448720D02*
X0015000Y0453720D01*
X0020000Y0448720D02*
X0030000Y0448720D01*
X0040000Y0454970D02*
X0062500Y0454970D01*
X0062500Y0459970D02*
X0043750Y0459970D01*
X0047500Y0464970D02*
X0062760Y0464970D01*
X0068750Y0446220D02*
X0050000Y0446220D01*
X0035000Y0461220D02*
X0017500Y0461220D01*
X0015000Y0463720D01*
X0026250Y0423720D02*
X0070000Y0423720D01*
X0073330Y0420390D02*
X0075000Y0418720D01*
X0101250Y0418720D01*
X0103750Y0414970D02*
X0106250Y0417470D01*
X0108750Y0414970D02*
X0106250Y0412470D01*
X0057500Y0412470D01*
X0058750Y0409970D02*
X0057500Y0408720D01*
X0055000Y0408720D01*
X0058750Y0409970D02*
X0106250Y0409970D01*
X0107500Y0411220D01*
X0110000Y0411220D01*
X0108750Y0414970D02*
X0112500Y0414970D01*
X0107500Y0407470D02*
X0058750Y0407470D01*
X0056250Y0404970D01*
X0052500Y0404970D01*
X0050000Y0401220D02*
X0047500Y0403720D01*
X0047500Y0409970D01*
X0042500Y0414970D01*
X0027500Y0414970D01*
X0023750Y0418720D01*
X0020000Y0409970D02*
X0020000Y0401220D01*
X0027500Y0393720D01*
X0040000Y0393720D01*
X0045000Y0388720D01*
X0058750Y0401220D02*
X0058750Y0362470D01*
X0062500Y0358720D01*
X0058750Y0356220D02*
X0052500Y0356220D01*
X0052500Y0361220D02*
X0055000Y0361220D01*
X0035000Y0361220D01*
X0032500Y0363720D01*
X0025000Y0363720D01*
X0015000Y0373720D01*
X0020000Y0372470D02*
X0020000Y0388720D01*
X0015000Y0393720D01*
X0020000Y0372470D02*
X0025000Y0367470D01*
X0045000Y0367470D01*
X0047500Y0356220D02*
X0040000Y0356220D01*
X0036250Y0354970D02*
X0023750Y0354970D01*
X0015000Y0363720D01*
X0015000Y0353720D02*
X0013750Y0352470D01*
X0013750Y0326220D01*
X0023750Y0316220D01*
X0050000Y0316220D01*
X0052500Y0318720D01*
X0052500Y0323720D02*
X0050000Y0326220D01*
X0040000Y0326220D01*
X0035000Y0331220D01*
X0025000Y0331220D01*
X0025000Y0326220D02*
X0035000Y0326220D01*
X0041250Y0333720D02*
X0038750Y0336220D01*
X0030000Y0336220D01*
X0030000Y0348720D02*
X0040000Y0348720D01*
X0038750Y0352470D02*
X0036250Y0354970D01*
X0038750Y0352470D02*
X0048750Y0352470D01*
X0057500Y0343720D01*
X0097500Y0343720D01*
X0100000Y0341220D01*
X0102500Y0346220D02*
X0057500Y0346220D01*
X0047500Y0356220D01*
X0057500Y0351220D02*
X0070000Y0351220D01*
X0080000Y0361220D01*
X0080000Y0394970D01*
X0078750Y0396220D01*
X0077500Y0392470D02*
X0073750Y0396220D01*
X0077500Y0392470D02*
X0077500Y0363720D01*
X0067500Y0353720D01*
X0061250Y0353720D01*
X0058750Y0356220D01*
X0062500Y0363720D02*
X0062500Y0397470D01*
X0066250Y0393720D02*
X0066250Y0364970D01*
X0067500Y0363720D01*
X0070000Y0366220D02*
X0070000Y0383720D01*
X0085000Y0376220D02*
X0085000Y0361220D01*
X0087500Y0358720D01*
X0110000Y0358720D01*
X0112500Y0361220D01*
X0118750Y0356220D02*
X0123750Y0361220D01*
X0132500Y0361220D01*
X0137500Y0366220D01*
X0173750Y0366220D01*
X0171250Y0363720D02*
X0173750Y0361220D01*
X0190000Y0361220D01*
X0187500Y0368720D02*
X0182500Y0368720D01*
X0170000Y0381220D01*
X0142500Y0381220D01*
X0137500Y0386220D01*
X0123750Y0386220D01*
X0122500Y0391220D02*
X0135000Y0391220D01*
X0142500Y0383720D01*
X0172500Y0383720D01*
X0182500Y0373720D01*
X0187500Y0373720D02*
X0181250Y0379970D01*
X0180000Y0379970D01*
X0173750Y0386220D01*
X0142500Y0386220D01*
X0135000Y0393720D01*
X0125000Y0393720D01*
X0123750Y0394970D01*
X0120000Y0394970D01*
X0122500Y0398720D02*
X0125000Y0396220D01*
X0135000Y0396220D01*
X0142500Y0388720D01*
X0175000Y0388720D01*
X0181250Y0382470D01*
X0183750Y0382470D01*
X0187500Y0378720D01*
X0187500Y0373720D02*
X0192500Y0373720D01*
X0175000Y0356220D02*
X0172500Y0358720D01*
X0137500Y0358720D01*
X0132500Y0358720D02*
X0137500Y0363720D01*
X0171250Y0363720D01*
X0156250Y0328720D02*
X0163750Y0321220D01*
X0163750Y0311220D01*
X0171250Y0303720D01*
X0182500Y0303720D01*
X0187500Y0298720D02*
X0192500Y0303720D01*
X0187500Y0298720D02*
X0170000Y0298720D01*
X0158750Y0309970D01*
X0158750Y0317470D01*
X0150000Y0326220D01*
X0122500Y0326220D01*
X0117500Y0321220D01*
X0115000Y0321220D01*
X0112500Y0317470D02*
X0148750Y0317470D01*
X0172500Y0293720D01*
X0182500Y0293720D01*
X0187500Y0288720D02*
X0192500Y0293720D01*
X0187500Y0288720D02*
X0175000Y0288720D01*
X0148750Y0314970D01*
X0115000Y0314970D01*
X0113750Y0313720D01*
X0110000Y0313720D01*
X0112500Y0309970D02*
X0107500Y0309970D01*
X0105000Y0306220D02*
X0111250Y0306220D01*
X0115000Y0309970D01*
X0148750Y0309970D01*
X0180000Y0278720D01*
X0187500Y0278720D01*
X0192500Y0283720D01*
X0182500Y0283720D02*
X0177500Y0283720D01*
X0148750Y0312470D01*
X0115000Y0312470D01*
X0112500Y0309970D01*
X0117500Y0307470D02*
X0112500Y0302470D01*
X0115000Y0298720D02*
X0121250Y0304970D01*
X0148750Y0304970D01*
X0177500Y0276220D01*
X0177500Y0271220D01*
X0180000Y0268720D01*
X0187500Y0268720D01*
X0192500Y0273720D01*
X0182500Y0273720D02*
X0148750Y0307470D01*
X0117500Y0307470D01*
X0121250Y0297470D02*
X0138750Y0279970D01*
X0157500Y0279970D01*
X0173750Y0263720D01*
X0182500Y0263720D01*
X0156250Y0287470D02*
X0136250Y0287470D01*
X0110000Y0293720D02*
X0107500Y0291220D01*
X0052500Y0291220D01*
X0025000Y0263720D01*
X0025000Y0273720D02*
X0032500Y0273720D01*
X0052500Y0293720D01*
X0102500Y0293720D01*
X0105000Y0296220D01*
X0100000Y0298720D02*
X0097500Y0296220D01*
X0040000Y0296220D01*
X0027500Y0283720D01*
X0025000Y0283720D01*
X0025000Y0293720D02*
X0030000Y0298720D01*
X0092500Y0298720D01*
X0095000Y0301220D01*
X0117500Y0326220D02*
X0120000Y0328720D01*
X0156250Y0328720D01*
X0132500Y0358720D02*
X0126250Y0358720D01*
X0123750Y0356220D01*
X0118750Y0356220D02*
X0085000Y0356220D01*
X0092500Y0363720D02*
X0092500Y0376220D01*
X0095000Y0378720D01*
X0128750Y0378720D01*
X0132500Y0382470D01*
X0146250Y0402470D02*
X0151250Y0402470D01*
X0148750Y0406220D02*
X0145000Y0406220D01*
X0142500Y0408720D01*
X0122500Y0408720D01*
X0111250Y0397470D01*
X0088750Y0397470D01*
X0091250Y0401220D02*
X0092500Y0399970D01*
X0111250Y0399970D01*
X0122500Y0411220D01*
X0142500Y0411220D01*
X0143750Y0409970D01*
X0146250Y0409970D01*
X0142500Y0406220D02*
X0146250Y0402470D01*
X0142500Y0406220D02*
X0122500Y0406220D01*
X0111250Y0394970D01*
X0092500Y0394970D01*
X0091250Y0393720D01*
X0091250Y0401220D02*
X0086250Y0401220D01*
X0092500Y0404970D02*
X0093750Y0403720D01*
X0092500Y0404970D02*
X0076250Y0404970D01*
X0075000Y0403720D01*
X0074200Y0403720D01*
X0060000Y0414970D02*
X0056250Y0418720D01*
X0060000Y0414970D02*
X0103750Y0414970D01*
X0105000Y0403720D02*
X0112500Y0403720D01*
X0122500Y0413720D01*
X0143750Y0413720D01*
X0153750Y0421220D02*
X0125000Y0421220D01*
X0123750Y0422470D01*
X0124200Y0430420D02*
X0159550Y0430420D01*
X0156250Y0432470D02*
X0158670Y0434890D01*
X0162420Y0434890D01*
X0162500Y0434970D01*
X0160000Y0438720D02*
X0165000Y0438720D01*
X0167500Y0442470D02*
X0160000Y0442470D01*
X0156250Y0438720D01*
X0126250Y0438720D01*
X0122500Y0442470D01*
X0112500Y0442470D01*
X0111120Y0441090D01*
X0114270Y0437990D02*
X0115000Y0438720D01*
X0122500Y0438720D01*
X0126250Y0434970D01*
X0156250Y0434970D01*
X0160000Y0438720D01*
X0156250Y0432470D02*
X0126250Y0432470D01*
X0123750Y0434970D01*
X0117420Y0434890D01*
X0077500Y0437470D02*
X0068750Y0446220D01*
X0070000Y0366220D02*
X0072500Y0363720D01*
X0087500Y0338720D02*
X0082500Y0333720D01*
X0041250Y0333720D01*
X0052500Y0311220D02*
X0022500Y0311220D01*
X0015000Y0303720D01*
X0022500Y0301220D02*
X0015000Y0293720D01*
X0022500Y0301220D02*
X0050000Y0301220D01*
X0052500Y0303720D01*
X0052500Y0306220D01*
D48*
X0028750Y0306220D03*
D39*
X0035000Y0461220D02*
X0065000Y0491220D01*
X0188750Y0491220D01*
X0196250Y0483720D01*
X0222500Y0483720D01*
X0228750Y0477470D01*
X0228750Y0349970D01*
X0222500Y0343720D01*
X0217500Y0343720D01*
X0010000Y0507440D02*
G75*
%LPD*%
D92*
X0095000Y0521440D03*
X0095000Y0531440D03*
X0045000Y0713940D03*
X0045000Y0723940D03*
X0055000Y0723940D03*
X0065000Y0723940D03*
X0035000Y0723940D03*
X0035000Y0713940D03*
X0025000Y0713940D03*
X0025000Y0723940D03*
X0015000Y0723940D03*
X0105000Y0723940D03*
X0115000Y0723940D03*
X0125000Y0723940D03*
X0135000Y0723940D03*
X0145000Y0723940D03*
X0155000Y0723940D03*
X0185000Y0723940D03*
X0195000Y0723940D03*
X0205000Y0723940D03*
X0215000Y0723940D03*
X0225000Y0723940D03*
D102*
X0015000Y0546440D03*
X0025000Y0546440D03*
X0035000Y0546440D03*
X0045000Y0546440D03*
X0055000Y0546440D03*
X0055000Y0556440D03*
X0045000Y0556440D03*
X0035000Y0556440D03*
X0025000Y0556440D03*
X0015000Y0556440D03*
D38*
X0065000Y0531440D03*
X0105000Y0521440D03*
X0125000Y0531440D03*
X0220000Y0531440D03*
X0220000Y0521440D03*
D82*
X0230000Y0521440D03*
X0240000Y0521440D03*
X0240000Y0531440D03*
X0230000Y0531440D03*
X0125000Y0521440D03*
X0115000Y0521440D03*
X0115000Y0531440D03*
X0105000Y0531440D03*
X0085000Y0531440D03*
X0075000Y0531440D03*
D44*
X0015000Y0713940D03*
D86*
X0240810Y0724130D03*
X0240810Y0691250D03*
D69*
X0228510Y0698930D02*
X0224150Y0698930D01*
X0224150Y0716450D02*
X0228510Y0716450D01*
D51*
X0212500Y0703940D03*
X0206250Y0698940D03*
X0211250Y0695190D03*
X0216250Y0691440D03*
X0216250Y0676180D03*
X0211250Y0676440D03*
X0206250Y0676440D03*
X0197500Y0688940D03*
X0175000Y0668940D03*
X0171670Y0665610D03*
X0155000Y0664740D03*
X0147500Y0665190D03*
X0147500Y0660190D03*
X0142500Y0665190D03*
X0135000Y0668940D03*
X0127500Y0665190D03*
X0127500Y0653940D03*
X0115000Y0646440D03*
X0115000Y0641440D03*
X0115000Y0636440D03*
X0112500Y0626440D03*
X0107500Y0615190D03*
X0097500Y0615190D03*
X0110000Y0601440D03*
X0117500Y0606440D03*
X0132500Y0601440D03*
X0133750Y0606440D03*
X0137500Y0615190D03*
X0142500Y0616440D03*
X0146250Y0618940D03*
X0150000Y0616440D03*
X0162500Y0628940D03*
X0166250Y0626440D03*
X0168750Y0632690D03*
X0170000Y0637690D03*
X0158750Y0631440D03*
X0155000Y0633940D03*
X0155000Y0645190D03*
X0148750Y0650190D03*
X0152500Y0652690D03*
X0145000Y0647690D03*
X0145000Y0672690D03*
X0148750Y0676440D03*
X0152500Y0680190D03*
X0156250Y0686440D03*
X0160000Y0683940D03*
X0163750Y0681440D03*
X0170000Y0682690D03*
X0152500Y0688940D03*
X0148750Y0691440D03*
X0145000Y0693940D03*
X0140000Y0693940D03*
X0138750Y0688940D03*
X0127500Y0688940D03*
X0122500Y0688940D03*
X0118750Y0693940D03*
X0107500Y0698940D03*
X0100000Y0698940D03*
X0100000Y0708940D03*
X0087500Y0708940D03*
X0082500Y0713940D03*
X0077500Y0713940D03*
X0072500Y0710190D03*
X0072500Y0703940D03*
X0077500Y0703940D03*
X0080000Y0721440D03*
X0057500Y0703940D03*
X0045000Y0706440D03*
X0035000Y0701440D03*
X0057500Y0686440D03*
X0062500Y0686440D03*
X0070000Y0686440D03*
X0075000Y0686440D03*
X0088750Y0687690D03*
X0095000Y0687690D03*
X0102500Y0681440D03*
X0107500Y0686440D03*
X0112500Y0683940D03*
X0115000Y0676440D03*
X0115000Y0671440D03*
X0115000Y0666440D03*
X0110000Y0676440D03*
X0107500Y0653940D03*
X0090000Y0651440D03*
X0092500Y0638940D03*
X0097500Y0636440D03*
X0077500Y0621440D03*
X0072500Y0623940D03*
X0068750Y0626440D03*
X0065000Y0628940D03*
X0061250Y0631440D03*
X0057500Y0633940D03*
X0050000Y0638940D03*
X0052500Y0643940D03*
X0047500Y0633940D03*
X0045000Y0628940D03*
X0050000Y0623940D03*
X0053750Y0626440D03*
X0048750Y0617690D03*
X0047500Y0601440D03*
X0052500Y0601440D03*
X0038750Y0602690D03*
X0028750Y0605190D03*
X0028750Y0621440D03*
X0028750Y0636440D03*
X0030000Y0648940D03*
X0030000Y0663940D03*
X0032500Y0676440D03*
X0028750Y0677690D03*
X0073750Y0615190D03*
X0092500Y0588940D03*
X0070000Y0586440D03*
X0043750Y0586440D03*
X0038750Y0582690D03*
X0035000Y0586440D03*
X0027500Y0586440D03*
X0060000Y0561440D03*
X0095000Y0561440D03*
X0102500Y0561440D03*
X0107500Y0563940D03*
X0117500Y0565190D03*
X0125000Y0556440D03*
X0130000Y0551440D03*
X0125000Y0546440D03*
X0120000Y0551440D03*
X0112500Y0548940D03*
X0095000Y0548940D03*
X0057500Y0521440D03*
X0057500Y0512690D03*
X0135000Y0531440D03*
X0162500Y0521440D03*
X0167500Y0528940D03*
X0167500Y0535190D03*
X0172500Y0535190D03*
X0172500Y0545190D03*
X0167500Y0545190D03*
X0163750Y0556440D03*
X0137500Y0555190D03*
X0172500Y0585190D03*
X0181700Y0579390D03*
X0186250Y0576440D03*
X0190000Y0573940D03*
X0193750Y0571440D03*
X0201250Y0560190D03*
X0201250Y0551440D03*
X0182500Y0521440D03*
X0212500Y0513940D03*
X0153750Y0587690D03*
X0157500Y0590190D03*
X0161250Y0592690D03*
X0165000Y0595190D03*
X0181700Y0614740D03*
X0173750Y0615190D03*
X0186170Y0621520D03*
X0189270Y0624670D03*
X0192370Y0627820D03*
X0186250Y0648940D03*
X0186250Y0653940D03*
X0188750Y0661440D03*
X0233750Y0658940D03*
X0233750Y0643940D03*
X0200000Y0708940D03*
X0195000Y0715190D03*
X0175000Y0712690D03*
X0170000Y0715190D03*
X0161250Y0718940D03*
X0153750Y0715190D03*
D57*
X0150000Y0711440D01*
X0150000Y0698940D01*
X0145000Y0693940D01*
X0148750Y0691440D02*
X0151250Y0693940D01*
X0160000Y0693940D01*
X0162500Y0696440D01*
X0162500Y0715190D01*
X0167500Y0720190D01*
X0181250Y0720190D01*
X0185000Y0723940D01*
X0195000Y0723940D02*
X0195000Y0715190D01*
X0200000Y0718940D02*
X0205000Y0723940D01*
X0200000Y0718940D02*
X0200000Y0708940D01*
X0206250Y0698940D02*
X0206250Y0676440D01*
X0211250Y0676440D02*
X0211250Y0695190D01*
X0216250Y0691440D02*
X0216250Y0676180D01*
X0197500Y0670190D02*
X0197500Y0688940D01*
X0212500Y0703940D02*
X0212500Y0721440D01*
X0215000Y0723940D01*
X0175000Y0712690D02*
X0175000Y0668940D01*
X0171670Y0665610D02*
X0170000Y0663940D01*
X0170000Y0637690D01*
X0166250Y0635190D02*
X0168750Y0632690D01*
X0166250Y0630190D02*
X0163750Y0632690D01*
X0163750Y0681440D01*
X0161250Y0680190D02*
X0160000Y0681440D01*
X0160000Y0683940D01*
X0161250Y0680190D02*
X0161250Y0632690D01*
X0162500Y0631440D01*
X0162500Y0628940D01*
X0166250Y0630190D02*
X0166250Y0626440D01*
X0158750Y0631440D02*
X0158750Y0680190D01*
X0156250Y0682690D01*
X0156250Y0686440D01*
X0152500Y0688940D02*
X0155000Y0691440D01*
X0161250Y0691440D01*
X0166250Y0696440D01*
X0166250Y0711440D01*
X0170000Y0715190D01*
X0161250Y0718940D02*
X0152500Y0718940D01*
X0145000Y0711440D01*
X0145000Y0698940D01*
X0140000Y0693940D01*
X0152500Y0680190D02*
X0113750Y0680190D01*
X0110000Y0676440D01*
X0107500Y0680190D02*
X0107500Y0686440D01*
X0112500Y0686440D02*
X0112500Y0683940D01*
X0112500Y0703940D01*
X0115000Y0706440D01*
X0115000Y0713940D01*
X0125000Y0723940D01*
X0123750Y0718940D02*
X0140000Y0718940D01*
X0145000Y0723940D01*
X0123750Y0718940D02*
X0118750Y0713940D01*
X0118750Y0693940D01*
X0107500Y0691440D02*
X0107500Y0698940D01*
X0106250Y0702690D02*
X0106250Y0715190D01*
X0115000Y0723940D01*
X0105000Y0723940D02*
X0103750Y0725190D01*
X0077500Y0725190D01*
X0067500Y0715190D01*
X0067500Y0688940D01*
X0070000Y0686440D01*
X0075000Y0686440D02*
X0077500Y0688940D01*
X0077500Y0698940D01*
X0082500Y0703940D01*
X0082500Y0713940D01*
X0077500Y0713940D02*
X0077500Y0703940D01*
X0085000Y0697690D02*
X0087500Y0700190D01*
X0087500Y0708940D01*
X0100000Y0708940D02*
X0100000Y0698940D01*
X0103750Y0700190D02*
X0106250Y0702690D01*
X0103750Y0700190D02*
X0103750Y0690190D01*
X0095000Y0681440D01*
X0095000Y0641440D01*
X0092500Y0638940D01*
X0097500Y0636440D02*
X0097500Y0681440D01*
X0107500Y0691440D01*
X0102500Y0681440D02*
X0102500Y0668940D01*
X0112500Y0658940D01*
X0146250Y0658940D01*
X0147500Y0660190D01*
X0143750Y0661440D02*
X0147500Y0665190D01*
X0143750Y0661440D02*
X0115000Y0661440D01*
X0105000Y0671440D01*
X0105000Y0677690D01*
X0107500Y0680190D01*
X0115000Y0676440D02*
X0148750Y0676440D01*
X0145000Y0672690D02*
X0116250Y0672690D01*
X0115000Y0671440D01*
X0117500Y0668940D02*
X0135000Y0668940D01*
X0127500Y0653940D02*
X0112500Y0653940D01*
X0110000Y0651440D01*
X0110000Y0628940D01*
X0112500Y0626440D01*
X0107500Y0620190D02*
X0112500Y0615190D01*
X0112500Y0606440D01*
X0117500Y0601440D01*
X0117500Y0565190D01*
X0115000Y0567690D02*
X0112500Y0565190D01*
X0112500Y0548940D01*
X0120000Y0551440D02*
X0120000Y0556440D01*
X0132500Y0568940D01*
X0132500Y0596440D01*
X0137500Y0601440D01*
X0137500Y0615190D01*
X0142500Y0616440D02*
X0142500Y0603940D01*
X0135000Y0596440D01*
X0135000Y0566440D01*
X0125000Y0556440D01*
X0125000Y0551440D02*
X0131250Y0557690D01*
X0131250Y0558940D01*
X0137500Y0565190D01*
X0137500Y0596440D01*
X0145000Y0603940D01*
X0145000Y0613940D01*
X0146250Y0615190D01*
X0146250Y0618940D01*
X0150000Y0616440D02*
X0147500Y0613940D01*
X0147500Y0603940D01*
X0140000Y0596440D01*
X0140000Y0563940D01*
X0133750Y0557690D01*
X0133750Y0555190D01*
X0130000Y0551440D01*
X0125000Y0551440D02*
X0125000Y0546440D01*
X0107500Y0563940D02*
X0110000Y0566440D01*
X0110000Y0601440D01*
X0110000Y0606440D02*
X0115000Y0601440D01*
X0115000Y0567690D01*
X0080000Y0582690D02*
X0072500Y0575190D01*
X0062500Y0575190D01*
X0055000Y0567690D01*
X0055000Y0556440D01*
X0050000Y0551440D02*
X0055000Y0546440D01*
X0050000Y0551440D02*
X0050000Y0568940D01*
X0061250Y0580190D01*
X0068750Y0580190D01*
X0077500Y0588940D01*
X0077500Y0616440D01*
X0072500Y0621440D01*
X0072500Y0623940D01*
X0068750Y0626440D02*
X0068750Y0590190D01*
X0045000Y0566440D01*
X0045000Y0556440D01*
X0040000Y0551440D02*
X0045000Y0546440D01*
X0040000Y0551440D02*
X0040000Y0563940D01*
X0066250Y0590190D01*
X0066250Y0623940D01*
X0065000Y0625190D01*
X0065000Y0628940D01*
X0061250Y0626440D02*
X0061250Y0631440D01*
X0057500Y0633940D02*
X0057500Y0627690D01*
X0061250Y0623940D01*
X0061250Y0590190D01*
X0030000Y0558940D01*
X0030000Y0551440D01*
X0035000Y0546440D01*
X0035000Y0556440D02*
X0035000Y0561440D01*
X0063750Y0590190D01*
X0063750Y0623940D01*
X0061250Y0626440D01*
X0058750Y0621440D02*
X0053750Y0626440D01*
X0050000Y0623940D02*
X0056250Y0617690D01*
X0056250Y0590190D01*
X0027500Y0561440D01*
X0022500Y0561440D01*
X0020000Y0558940D01*
X0020000Y0551440D01*
X0025000Y0546440D01*
X0025000Y0556440D02*
X0058750Y0590190D01*
X0058750Y0621440D01*
X0048750Y0617690D02*
X0031250Y0600190D01*
X0031250Y0581440D01*
X0015000Y0565190D01*
X0015000Y0556440D01*
X0038750Y0582690D02*
X0038750Y0602690D01*
X0045000Y0628940D02*
X0042500Y0631440D01*
X0042500Y0686440D01*
X0015000Y0713940D01*
X0025000Y0713940D02*
X0025000Y0706440D01*
X0045000Y0686440D01*
X0045000Y0636440D01*
X0047500Y0633940D01*
X0050000Y0638940D02*
X0047500Y0641440D01*
X0047500Y0698940D01*
X0035000Y0711440D01*
X0035000Y0713940D01*
X0045000Y0713940D02*
X0050000Y0708940D01*
X0050000Y0646440D01*
X0052500Y0643940D01*
X0077500Y0621440D02*
X0080000Y0618940D01*
X0080000Y0582690D01*
X0110000Y0606440D02*
X0110000Y0612690D01*
X0107500Y0615190D01*
X0107500Y0620190D02*
X0107500Y0653940D01*
X0115000Y0646440D02*
X0127500Y0646440D01*
X0130000Y0643940D01*
X0130000Y0610190D01*
X0133750Y0606440D01*
X0153750Y0592690D02*
X0153750Y0587690D01*
X0157500Y0590190D02*
X0157500Y0593940D01*
X0160000Y0596440D01*
X0160000Y0616440D01*
X0148750Y0627690D01*
X0148750Y0650190D01*
X0152500Y0647690D02*
X0151250Y0646440D01*
X0151250Y0627690D01*
X0162500Y0616440D01*
X0162500Y0596440D01*
X0161250Y0595190D01*
X0161250Y0592690D01*
X0157500Y0596440D02*
X0153750Y0592690D01*
X0157500Y0596440D02*
X0157500Y0616440D01*
X0146250Y0627690D01*
X0146250Y0646440D01*
X0145000Y0647690D01*
X0152500Y0647690D02*
X0152500Y0652690D01*
X0156250Y0646440D02*
X0155000Y0645190D01*
X0156250Y0646440D02*
X0156250Y0662690D01*
X0155000Y0663940D01*
X0155000Y0664740D01*
X0166250Y0678940D02*
X0170000Y0682690D01*
X0166250Y0678940D02*
X0166250Y0635190D01*
X0155000Y0633940D02*
X0155000Y0626440D01*
X0165000Y0616440D01*
X0165000Y0595190D01*
X0172500Y0585190D02*
X0172500Y0613940D01*
X0173750Y0615190D01*
X0181700Y0614740D02*
X0181700Y0579390D01*
X0183750Y0582690D02*
X0186170Y0580270D01*
X0186170Y0576520D01*
X0186250Y0576440D01*
X0190000Y0578940D02*
X0190000Y0573940D01*
X0193750Y0571440D02*
X0193750Y0578940D01*
X0190000Y0582690D01*
X0190000Y0612690D01*
X0193750Y0616440D01*
X0193750Y0626440D01*
X0192370Y0627820D01*
X0189270Y0624670D02*
X0190000Y0623940D01*
X0190000Y0616440D01*
X0186250Y0612690D01*
X0186250Y0582690D01*
X0190000Y0578940D01*
X0183750Y0582690D02*
X0183750Y0612690D01*
X0186250Y0615190D01*
X0186170Y0621520D01*
X0188750Y0661440D02*
X0197500Y0670190D01*
X0117500Y0668940D02*
X0115000Y0666440D01*
X0090000Y0651440D02*
X0085000Y0656440D01*
X0085000Y0697690D01*
X0062500Y0686440D02*
X0062500Y0716440D01*
X0055000Y0723940D01*
X0052500Y0716440D02*
X0045000Y0723940D01*
X0052500Y0716440D02*
X0052500Y0688940D01*
X0055000Y0686440D01*
X0057500Y0686440D01*
D48*
X0057500Y0710190D03*
D39*
X0212500Y0703940D02*
X0242500Y0673940D01*
X0242500Y0550190D01*
X0235000Y0542690D01*
X0235000Y0516440D01*
X0228750Y0510190D01*
X0101250Y0510190D01*
X0095000Y0516440D01*
X0095000Y0521440D01*
X0258720Y0416210D02*
G75*
%LPD*%
D65*
X0295730Y0657930D03*
X0305580Y0657930D03*
X0315420Y0657930D03*
X0395730Y0657930D03*
X0405580Y0657930D03*
X0415420Y0657930D03*
X0495730Y0657930D03*
X0505580Y0657930D03*
X0515420Y0657930D03*
X0595730Y0657930D03*
X0605580Y0657930D03*
X0615420Y0657930D03*
D49*
X0623290Y0687460D03*
X0587860Y0687460D03*
X0523290Y0687460D03*
X0487860Y0687460D03*
X0423290Y0687460D03*
X0387860Y0687460D03*
X0323290Y0687460D03*
X0287860Y0687460D03*
D92*
X0349330Y0686210D03*
X0349330Y0696210D03*
X0349330Y0706210D03*
X0349330Y0676210D03*
X0349330Y0666210D03*
X0349330Y0636210D03*
X0349330Y0626210D03*
X0349330Y0616210D03*
X0349330Y0606210D03*
X0349330Y0596210D03*
X0349330Y0586210D03*
X0349330Y0546210D03*
X0349330Y0536210D03*
X0349330Y0526210D03*
X0359330Y0526210D03*
X0359330Y0516210D03*
X0359330Y0506210D03*
X0349330Y0506210D03*
X0349330Y0496210D03*
X0349330Y0516210D03*
X0409330Y0496210D03*
X0419330Y0496210D03*
X0429330Y0496210D03*
X0439330Y0496210D03*
X0449330Y0496210D03*
X0459330Y0496210D03*
X0469330Y0496210D03*
X0479330Y0496210D03*
X0489330Y0496210D03*
X0499330Y0496210D03*
X0539330Y0546210D03*
X0539330Y0556210D03*
X0539330Y0566210D03*
X0539330Y0576210D03*
X0549330Y0576210D03*
X0471830Y0678710D03*
X0451830Y0678710D03*
X0496830Y0718710D03*
X0506830Y0718710D03*
D74*
X0434330Y0718710D03*
X0434330Y0678710D03*
D38*
X0539330Y0721210D03*
X0549330Y0701210D03*
X0549330Y0586210D03*
X0539330Y0586210D03*
D82*
X0539330Y0596210D03*
X0549330Y0596210D03*
X0549330Y0606210D03*
X0539330Y0606210D03*
X0539330Y0701210D03*
X0539330Y0711210D03*
X0549330Y0711210D03*
X0549330Y0721210D03*
D76*
X0520580Y0642460D03*
X0520580Y0632460D03*
X0520580Y0622460D03*
X0520580Y0612460D03*
X0520580Y0602460D03*
X0490580Y0602460D03*
X0490580Y0612460D03*
X0490580Y0622460D03*
X0490580Y0632460D03*
X0490580Y0642460D03*
X0479330Y0588710D03*
X0479330Y0558710D03*
X0475580Y0547460D03*
X0485580Y0547460D03*
X0495580Y0547460D03*
X0495580Y0517460D03*
X0485580Y0517460D03*
X0475580Y0517460D03*
X0450580Y0522460D03*
X0440580Y0517460D03*
X0430580Y0517460D03*
X0420580Y0517460D03*
X0390580Y0522460D03*
X0380580Y0522460D03*
X0380580Y0542460D03*
X0390580Y0542460D03*
X0420580Y0547460D03*
X0430580Y0547460D03*
X0440580Y0547460D03*
X0450580Y0542460D03*
X0400580Y0587460D03*
X0400580Y0597460D03*
X0400580Y0607460D03*
X0370580Y0607460D03*
X0370580Y0597460D03*
X0370580Y0587460D03*
X0374330Y0662460D03*
X0365580Y0662460D03*
X0365580Y0692460D03*
X0374330Y0692460D03*
X0540580Y0534960D03*
X0545580Y0527460D03*
X0535580Y0527460D03*
X0540580Y0509960D03*
X0545580Y0502460D03*
X0535580Y0502460D03*
D95*
X0520580Y0562460D03*
X0495580Y0577460D03*
X0415580Y0562460D03*
X0385580Y0562460D03*
X0415580Y0592460D03*
X0415580Y0622460D03*
X0385580Y0622460D03*
D70*
X0385580Y0632460D03*
X0415580Y0632460D03*
X0415580Y0602460D03*
X0415580Y0572460D03*
X0385580Y0572460D03*
X0495580Y0587460D03*
X0520580Y0572460D03*
D79*
X0470580Y0622460D03*
X0470580Y0632460D03*
X0470580Y0642460D03*
X0470580Y0652460D03*
X0440580Y0652460D03*
X0440580Y0642460D03*
X0440580Y0632460D03*
X0440580Y0622460D03*
D35*
X0465580Y0554960D03*
X0465580Y0509960D03*
X0405580Y0509960D03*
X0405580Y0554960D03*
D29*
X0460580Y0692270D03*
X0479080Y0704080D03*
X0460580Y0715900D03*
D102*
X0509330Y0536210D03*
X0519330Y0536210D03*
X0519330Y0526210D03*
X0509330Y0526210D03*
X0509330Y0516210D03*
X0519330Y0516210D03*
X0519330Y0506210D03*
X0509330Y0506210D03*
X0509330Y0496210D03*
X0519330Y0496210D03*
D24*
X0596200Y0503090D03*
X0596200Y0487150D03*
X0620890Y0487150D03*
X0620580Y0503080D03*
X0645890Y0503080D03*
X0645890Y0487150D03*
X0645890Y0423080D03*
X0620580Y0423080D03*
X0596200Y0423090D03*
X0596200Y0567150D03*
X0596200Y0583090D03*
X0620580Y0583080D03*
X0620890Y0567150D03*
X0645890Y0567150D03*
X0645890Y0583080D03*
X0645890Y0647150D03*
X0620890Y0647150D03*
X0596200Y0647150D03*
X0314950Y0646830D03*
X0290580Y0646840D03*
X0265260Y0646840D03*
X0265260Y0582770D03*
X0265260Y0566840D03*
X0290580Y0566840D03*
X0290260Y0582770D03*
X0314950Y0582770D03*
X0314950Y0566830D03*
X0314950Y0502770D03*
X0290260Y0502770D03*
X0265260Y0502770D03*
D44*
X0359330Y0496210D03*
D86*
X0351150Y0721940D03*
X0384020Y0721940D03*
D69*
X0376340Y0709640D02*
X0376340Y0705270D01*
X0358820Y0705270D02*
X0358820Y0709640D01*
D75*
X0362460Y0710910D03*
X0365020Y0710910D03*
X0367580Y0710910D03*
X0370140Y0710910D03*
X0372700Y0710910D03*
D37*
X0372110Y0721940D03*
X0363060Y0721940D03*
D79*
X0560580Y0540060D02*
X0560580Y0534860D01*
X0560580Y0500060D02*
X0560580Y0494860D01*
D91*
X0470580Y0567460D03*
X0440580Y0567460D03*
X0440580Y0607460D03*
X0470580Y0607460D03*
D26*
X0338080Y0489960D02*
X0325580Y0502460D01*
X0325580Y0556210D01*
X0314950Y0566830D01*
X0345580Y0567460D02*
X0314950Y0598090D01*
X0314950Y0646830D01*
X0333080Y0649960D02*
X0333080Y0664960D01*
X0365580Y0662460D02*
X0365580Y0686210D01*
X0365580Y0692460D02*
X0365020Y0693010D01*
X0365020Y0710910D01*
X0362460Y0710910D02*
X0362460Y0703100D01*
X0355580Y0696210D01*
X0349330Y0696210D01*
X0367580Y0699200D02*
X0374330Y0692460D01*
X0379330Y0693710D02*
X0379330Y0669960D01*
X0374330Y0676210D02*
X0374330Y0662460D01*
X0379330Y0693710D02*
X0370140Y0702890D01*
X0370140Y0710910D01*
X0367580Y0710910D02*
X0367580Y0699200D01*
X0376340Y0709640D02*
X0375060Y0710910D01*
X0372700Y0710910D01*
X0445580Y0700900D02*
X0445580Y0684960D01*
X0451830Y0678710D01*
X0455580Y0672460D02*
X0460580Y0677460D01*
X0455580Y0672460D02*
X0455580Y0642460D01*
X0455580Y0602460D01*
X0460580Y0592460D02*
X0460580Y0627460D01*
X0465580Y0632460D01*
X0470580Y0632460D01*
X0475580Y0647460D02*
X0470580Y0652460D01*
X0470580Y0677460D01*
X0471830Y0678710D01*
X0445580Y0700900D02*
X0460580Y0715900D01*
X0506830Y0718710D02*
X0506830Y0678710D01*
X0539330Y0701210D02*
X0539330Y0637460D01*
X0549330Y0648710D02*
X0549330Y0606210D01*
X0554330Y0581210D02*
X0554330Y0678710D01*
X0560580Y0672460D02*
X0560580Y0557460D01*
X0550580Y0547460D01*
X0540580Y0547460D01*
X0539330Y0546210D01*
X0545580Y0552460D01*
X0545580Y0569960D01*
X0539330Y0576210D01*
X0530580Y0572460D02*
X0520580Y0582460D01*
X0530580Y0572460D02*
X0530580Y0507460D01*
X0519330Y0496210D01*
X0501830Y0509960D02*
X0501830Y0541210D01*
X0495580Y0547460D02*
X0495580Y0577460D01*
X0513080Y0567460D02*
X0513080Y0561210D01*
X0519330Y0554960D01*
X0519330Y0536210D01*
X0540580Y0534960D02*
X0540580Y0517460D01*
X0545580Y0512460D01*
X0545580Y0502460D01*
X0560580Y0537460D02*
X0550580Y0547460D01*
X0549330Y0576210D02*
X0554330Y0581210D01*
X0520580Y0622460D02*
X0515580Y0627460D01*
X0515580Y0637460D01*
X0520580Y0642460D01*
X0475580Y0647460D02*
X0475580Y0597460D01*
X0440580Y0588710D02*
X0440580Y0607460D01*
X0433080Y0607460D02*
X0433080Y0564960D01*
X0440580Y0557460D01*
X0440580Y0547460D01*
X0426830Y0564960D02*
X0426830Y0618710D01*
X0440580Y0632460D01*
X0415580Y0602460D02*
X0415580Y0592460D01*
X0370580Y0567460D02*
X0345580Y0567460D01*
X0440580Y0517460D02*
X0449330Y0508710D01*
X0449330Y0496210D01*
X0465580Y0509960D02*
X0469330Y0506210D01*
X0469330Y0496210D01*
X0489330Y0496210D02*
X0489330Y0513710D01*
X0485580Y0517460D01*
X0480580Y0526210D02*
X0480580Y0557460D01*
X0479330Y0558710D01*
X0499330Y0496210D02*
X0493080Y0489960D01*
X0338080Y0489960D01*
D61*
X0426830Y0564960D03*
X0440580Y0588710D03*
X0455580Y0602460D03*
X0460580Y0592460D03*
X0475580Y0597460D03*
X0513080Y0567460D03*
X0520580Y0582460D03*
X0501830Y0541210D03*
X0480580Y0526210D03*
X0501830Y0509960D03*
X0433080Y0607460D03*
X0455580Y0642460D03*
X0506830Y0678710D03*
X0549330Y0648710D03*
X0539330Y0637460D03*
X0560580Y0672460D03*
X0554330Y0678710D03*
X0379330Y0669960D03*
X0374330Y0676210D03*
X0365580Y0686210D03*
X0333080Y0664960D03*
X0333080Y0649960D03*
X0370580Y0567460D03*
D90*
X0460580Y0677460D03*
X0010000Y0741440D02*
G75*
%LPD*%
D92*
X0095000Y0755440D03*
X0095000Y0765440D03*
X0045000Y0947940D03*
X0045000Y0957940D03*
X0055000Y0957940D03*
X0065000Y0957940D03*
X0035000Y0957940D03*
X0035000Y0947940D03*
X0025000Y0947940D03*
X0025000Y0957940D03*
X0015000Y0957940D03*
X0105000Y0957940D03*
X0115000Y0957940D03*
X0125000Y0957940D03*
X0135000Y0957940D03*
X0145000Y0957940D03*
X0155000Y0957940D03*
X0185000Y0957940D03*
X0195000Y0957940D03*
X0205000Y0957940D03*
X0215000Y0957940D03*
X0225000Y0957940D03*
D102*
X0015000Y0780440D03*
X0025000Y0780440D03*
X0035000Y0780440D03*
X0045000Y0780440D03*
X0055000Y0780440D03*
X0055000Y0790440D03*
X0045000Y0790440D03*
X0035000Y0790440D03*
X0025000Y0790440D03*
X0015000Y0790440D03*
D38*
X0065000Y0765440D03*
X0105000Y0755440D03*
X0125000Y0765440D03*
X0220000Y0765440D03*
X0220000Y0755440D03*
D82*
X0230000Y0755440D03*
X0240000Y0755440D03*
X0240000Y0765440D03*
X0230000Y0765440D03*
X0125000Y0755440D03*
X0115000Y0755440D03*
X0115000Y0765440D03*
X0105000Y0765440D03*
X0085000Y0765440D03*
X0075000Y0765440D03*
D44*
X0015000Y0947940D03*
D86*
X0240810Y0958130D03*
X0240810Y0925250D03*
D69*
X0228510Y0932930D02*
X0224150Y0932930D01*
X0224150Y0950450D02*
X0228510Y0950450D01*
D51*
X0212500Y0937940D03*
X0206250Y0932940D03*
X0211250Y0929190D03*
X0216250Y0925440D03*
X0216250Y0910180D03*
X0211250Y0910440D03*
X0206250Y0910440D03*
X0197500Y0922940D03*
X0175000Y0902940D03*
X0171670Y0899610D03*
X0155000Y0898740D03*
X0147500Y0899190D03*
X0147500Y0894190D03*
X0142500Y0899190D03*
X0135000Y0902940D03*
X0127500Y0899190D03*
X0127500Y0887940D03*
X0115000Y0880440D03*
X0115000Y0875440D03*
X0115000Y0870440D03*
X0112500Y0860440D03*
X0107500Y0849190D03*
X0097500Y0849190D03*
X0110000Y0835440D03*
X0117500Y0840440D03*
X0132500Y0835440D03*
X0133750Y0840440D03*
X0137500Y0849190D03*
X0142500Y0850440D03*
X0146250Y0852940D03*
X0150000Y0850440D03*
X0162500Y0862940D03*
X0166250Y0860440D03*
X0168750Y0866690D03*
X0170000Y0871690D03*
X0158750Y0865440D03*
X0155000Y0867940D03*
X0155000Y0879190D03*
X0148750Y0884190D03*
X0152500Y0886690D03*
X0145000Y0881690D03*
X0145000Y0906690D03*
X0148750Y0910440D03*
X0152500Y0914190D03*
X0156250Y0920440D03*
X0160000Y0917940D03*
X0163750Y0915440D03*
X0170000Y0916690D03*
X0152500Y0922940D03*
X0148750Y0925440D03*
X0145000Y0927940D03*
X0140000Y0927940D03*
X0138750Y0922940D03*
X0127500Y0922940D03*
X0122500Y0922940D03*
X0118750Y0927940D03*
X0107500Y0932940D03*
X0100000Y0932940D03*
X0100000Y0942940D03*
X0087500Y0942940D03*
X0082500Y0947940D03*
X0077500Y0947940D03*
X0072500Y0944190D03*
X0072500Y0937940D03*
X0077500Y0937940D03*
X0080000Y0955440D03*
X0057500Y0937940D03*
X0045000Y0940440D03*
X0035000Y0935440D03*
X0057500Y0920440D03*
X0062500Y0920440D03*
X0070000Y0920440D03*
X0075000Y0920440D03*
X0088750Y0921690D03*
X0095000Y0921690D03*
X0102500Y0915440D03*
X0107500Y0920440D03*
X0112500Y0917940D03*
X0115000Y0910440D03*
X0115000Y0905440D03*
X0115000Y0900440D03*
X0110000Y0910440D03*
X0107500Y0887940D03*
X0090000Y0885440D03*
X0092500Y0872940D03*
X0097500Y0870440D03*
X0077500Y0855440D03*
X0072500Y0857940D03*
X0068750Y0860440D03*
X0065000Y0862940D03*
X0061250Y0865440D03*
X0057500Y0867940D03*
X0050000Y0872940D03*
X0052500Y0877940D03*
X0047500Y0867940D03*
X0045000Y0862940D03*
X0050000Y0857940D03*
X0053750Y0860440D03*
X0048750Y0851690D03*
X0047500Y0835440D03*
X0052500Y0835440D03*
X0038750Y0836690D03*
X0028750Y0839190D03*
X0028750Y0855440D03*
X0028750Y0870440D03*
X0030000Y0882940D03*
X0030000Y0897940D03*
X0032500Y0910440D03*
X0028750Y0911690D03*
X0073750Y0849190D03*
X0092500Y0822940D03*
X0070000Y0820440D03*
X0043750Y0820440D03*
X0038750Y0816690D03*
X0035000Y0820440D03*
X0027500Y0820440D03*
X0060000Y0795440D03*
X0095000Y0795440D03*
X0102500Y0795440D03*
X0107500Y0797940D03*
X0117500Y0799190D03*
X0125000Y0790440D03*
X0130000Y0785440D03*
X0125000Y0780440D03*
X0120000Y0785440D03*
X0112500Y0782940D03*
X0095000Y0782940D03*
X0057500Y0755440D03*
X0057500Y0746690D03*
X0135000Y0765440D03*
X0162500Y0755440D03*
X0167500Y0762940D03*
X0167500Y0769190D03*
X0172500Y0769190D03*
X0172500Y0779190D03*
X0167500Y0779190D03*
X0163750Y0790440D03*
X0137500Y0789190D03*
X0172500Y0819190D03*
X0181700Y0813390D03*
X0186250Y0810440D03*
X0190000Y0807940D03*
X0193750Y0805440D03*
X0201250Y0794190D03*
X0201250Y0785440D03*
X0182500Y0755440D03*
X0212500Y0747940D03*
X0153750Y0821690D03*
X0157500Y0824190D03*
X0161250Y0826690D03*
X0165000Y0829190D03*
X0181700Y0848740D03*
X0173750Y0849190D03*
X0186170Y0855520D03*
X0189270Y0858670D03*
X0192370Y0861820D03*
X0186250Y0882940D03*
X0186250Y0887940D03*
X0188750Y0895440D03*
X0233750Y0892940D03*
X0233750Y0877940D03*
X0200000Y0942940D03*
X0195000Y0949190D03*
X0175000Y0946690D03*
X0170000Y0949190D03*
X0161250Y0952940D03*
X0153750Y0949190D03*
D57*
X0150000Y0945440D01*
X0150000Y0932940D01*
X0145000Y0927940D01*
X0148750Y0925440D02*
X0151250Y0927940D01*
X0160000Y0927940D01*
X0162500Y0930440D01*
X0162500Y0949190D01*
X0167500Y0954190D01*
X0181250Y0954190D01*
X0185000Y0957940D01*
X0195000Y0957940D02*
X0195000Y0949190D01*
X0200000Y0952940D02*
X0205000Y0957940D01*
X0200000Y0952940D02*
X0200000Y0942940D01*
X0206250Y0932940D02*
X0206250Y0910440D01*
X0211250Y0910440D02*
X0211250Y0929190D01*
X0216250Y0925440D02*
X0216250Y0910180D01*
X0197500Y0904190D02*
X0197500Y0922940D01*
X0212500Y0937940D02*
X0212500Y0955440D01*
X0215000Y0957940D01*
X0175000Y0946690D02*
X0175000Y0902940D01*
X0171670Y0899610D02*
X0170000Y0897940D01*
X0170000Y0871690D01*
X0166250Y0869190D02*
X0168750Y0866690D01*
X0166250Y0864190D02*
X0163750Y0866690D01*
X0163750Y0915440D01*
X0161250Y0914190D02*
X0160000Y0915440D01*
X0160000Y0917940D01*
X0161250Y0914190D02*
X0161250Y0866690D01*
X0162500Y0865440D01*
X0162500Y0862940D01*
X0166250Y0864190D02*
X0166250Y0860440D01*
X0158750Y0865440D02*
X0158750Y0914190D01*
X0156250Y0916690D01*
X0156250Y0920440D01*
X0152500Y0922940D02*
X0155000Y0925440D01*
X0161250Y0925440D01*
X0166250Y0930440D01*
X0166250Y0945440D01*
X0170000Y0949190D01*
X0161250Y0952940D02*
X0152500Y0952940D01*
X0145000Y0945440D01*
X0145000Y0932940D01*
X0140000Y0927940D01*
X0152500Y0914190D02*
X0113750Y0914190D01*
X0110000Y0910440D01*
X0107500Y0914190D02*
X0107500Y0920440D01*
X0112500Y0920440D02*
X0112500Y0917940D01*
X0112500Y0937940D01*
X0115000Y0940440D01*
X0115000Y0947940D01*
X0125000Y0957940D01*
X0123750Y0952940D02*
X0140000Y0952940D01*
X0145000Y0957940D01*
X0123750Y0952940D02*
X0118750Y0947940D01*
X0118750Y0927940D01*
X0107500Y0925440D02*
X0107500Y0932940D01*
X0106250Y0936690D02*
X0106250Y0949190D01*
X0115000Y0957940D01*
X0105000Y0957940D02*
X0103750Y0959190D01*
X0077500Y0959190D01*
X0067500Y0949190D01*
X0067500Y0922940D01*
X0070000Y0920440D01*
X0075000Y0920440D02*
X0077500Y0922940D01*
X0077500Y0932940D01*
X0082500Y0937940D01*
X0082500Y0947940D01*
X0077500Y0947940D02*
X0077500Y0937940D01*
X0085000Y0931690D02*
X0087500Y0934190D01*
X0087500Y0942940D01*
X0100000Y0942940D02*
X0100000Y0932940D01*
X0103750Y0934190D02*
X0106250Y0936690D01*
X0103750Y0934190D02*
X0103750Y0924190D01*
X0095000Y0915440D01*
X0095000Y0875440D01*
X0092500Y0872940D01*
X0097500Y0870440D02*
X0097500Y0915440D01*
X0107500Y0925440D01*
X0102500Y0915440D02*
X0102500Y0902940D01*
X0112500Y0892940D01*
X0146250Y0892940D01*
X0147500Y0894190D01*
X0143750Y0895440D02*
X0147500Y0899190D01*
X0143750Y0895440D02*
X0115000Y0895440D01*
X0105000Y0905440D01*
X0105000Y0911690D01*
X0107500Y0914190D01*
X0115000Y0910440D02*
X0148750Y0910440D01*
X0145000Y0906690D02*
X0116250Y0906690D01*
X0115000Y0905440D01*
X0117500Y0902940D02*
X0135000Y0902940D01*
X0127500Y0887940D02*
X0112500Y0887940D01*
X0110000Y0885440D01*
X0110000Y0862940D01*
X0112500Y0860440D01*
X0107500Y0854190D02*
X0112500Y0849190D01*
X0112500Y0840440D01*
X0117500Y0835440D01*
X0117500Y0799190D01*
X0115000Y0801690D02*
X0112500Y0799190D01*
X0112500Y0782940D01*
X0120000Y0785440D02*
X0120000Y0790440D01*
X0132500Y0802940D01*
X0132500Y0830440D01*
X0137500Y0835440D01*
X0137500Y0849190D01*
X0142500Y0850440D02*
X0142500Y0837940D01*
X0135000Y0830440D01*
X0135000Y0800440D01*
X0125000Y0790440D01*
X0125000Y0785440D02*
X0131250Y0791690D01*
X0131250Y0792940D01*
X0137500Y0799190D01*
X0137500Y0830440D01*
X0145000Y0837940D01*
X0145000Y0847940D01*
X0146250Y0849190D01*
X0146250Y0852940D01*
X0150000Y0850440D02*
X0147500Y0847940D01*
X0147500Y0837940D01*
X0140000Y0830440D01*
X0140000Y0797940D01*
X0133750Y0791690D01*
X0133750Y0789190D01*
X0130000Y0785440D01*
X0125000Y0785440D02*
X0125000Y0780440D01*
X0107500Y0797940D02*
X0110000Y0800440D01*
X0110000Y0835440D01*
X0110000Y0840440D02*
X0115000Y0835440D01*
X0115000Y0801690D01*
X0080000Y0816690D02*
X0072500Y0809190D01*
X0062500Y0809190D01*
X0055000Y0801690D01*
X0055000Y0790440D01*
X0050000Y0785440D02*
X0055000Y0780440D01*
X0050000Y0785440D02*
X0050000Y0802940D01*
X0061250Y0814190D01*
X0068750Y0814190D01*
X0077500Y0822940D01*
X0077500Y0850440D01*
X0072500Y0855440D01*
X0072500Y0857940D01*
X0068750Y0860440D02*
X0068750Y0824190D01*
X0045000Y0800440D01*
X0045000Y0790440D01*
X0040000Y0785440D02*
X0045000Y0780440D01*
X0040000Y0785440D02*
X0040000Y0797940D01*
X0066250Y0824190D01*
X0066250Y0857940D01*
X0065000Y0859190D01*
X0065000Y0862940D01*
X0061250Y0860440D02*
X0061250Y0865440D01*
X0057500Y0867940D02*
X0057500Y0861690D01*
X0061250Y0857940D01*
X0061250Y0824190D01*
X0030000Y0792940D01*
X0030000Y0785440D01*
X0035000Y0780440D01*
X0035000Y0790440D02*
X0035000Y0795440D01*
X0063750Y0824190D01*
X0063750Y0857940D01*
X0061250Y0860440D01*
X0058750Y0855440D02*
X0053750Y0860440D01*
X0050000Y0857940D02*
X0056250Y0851690D01*
X0056250Y0824190D01*
X0027500Y0795440D01*
X0022500Y0795440D01*
X0020000Y0792940D01*
X0020000Y0785440D01*
X0025000Y0780440D01*
X0025000Y0790440D02*
X0058750Y0824190D01*
X0058750Y0855440D01*
X0048750Y0851690D02*
X0031250Y0834190D01*
X0031250Y0815440D01*
X0015000Y0799190D01*
X0015000Y0790440D01*
X0038750Y0816690D02*
X0038750Y0836690D01*
X0045000Y0862940D02*
X0042500Y0865440D01*
X0042500Y0920440D01*
X0015000Y0947940D01*
X0025000Y0947940D02*
X0025000Y0940440D01*
X0045000Y0920440D01*
X0045000Y0870440D01*
X0047500Y0867940D01*
X0050000Y0872940D02*
X0047500Y0875440D01*
X0047500Y0932940D01*
X0035000Y0945440D01*
X0035000Y0947940D01*
X0045000Y0947940D02*
X0050000Y0942940D01*
X0050000Y0880440D01*
X0052500Y0877940D01*
X0077500Y0855440D02*
X0080000Y0852940D01*
X0080000Y0816690D01*
X0110000Y0840440D02*
X0110000Y0846690D01*
X0107500Y0849190D01*
X0107500Y0854190D02*
X0107500Y0887940D01*
X0115000Y0880440D02*
X0127500Y0880440D01*
X0130000Y0877940D01*
X0130000Y0844190D01*
X0133750Y0840440D01*
X0153750Y0826690D02*
X0153750Y0821690D01*
X0157500Y0824190D02*
X0157500Y0827940D01*
X0160000Y0830440D01*
X0160000Y0850440D01*
X0148750Y0861690D01*
X0148750Y0884190D01*
X0152500Y0881690D02*
X0151250Y0880440D01*
X0151250Y0861690D01*
X0162500Y0850440D01*
X0162500Y0830440D01*
X0161250Y0829190D01*
X0161250Y0826690D01*
X0157500Y0830440D02*
X0153750Y0826690D01*
X0157500Y0830440D02*
X0157500Y0850440D01*
X0146250Y0861690D01*
X0146250Y0880440D01*
X0145000Y0881690D01*
X0152500Y0881690D02*
X0152500Y0886690D01*
X0156250Y0880440D02*
X0155000Y0879190D01*
X0156250Y0880440D02*
X0156250Y0896690D01*
X0155000Y0897940D01*
X0155000Y0898740D01*
X0166250Y0912940D02*
X0170000Y0916690D01*
X0166250Y0912940D02*
X0166250Y0869190D01*
X0155000Y0867940D02*
X0155000Y0860440D01*
X0165000Y0850440D01*
X0165000Y0829190D01*
X0172500Y0819190D02*
X0172500Y0847940D01*
X0173750Y0849190D01*
X0181700Y0848740D02*
X0181700Y0813390D01*
X0183750Y0816690D02*
X0186170Y0814270D01*
X0186170Y0810520D01*
X0186250Y0810440D01*
X0190000Y0812940D02*
X0190000Y0807940D01*
X0193750Y0805440D02*
X0193750Y0812940D01*
X0190000Y0816690D01*
X0190000Y0846690D01*
X0193750Y0850440D01*
X0193750Y0860440D01*
X0192370Y0861820D01*
X0189270Y0858670D02*
X0190000Y0857940D01*
X0190000Y0850440D01*
X0186250Y0846690D01*
X0186250Y0816690D01*
X0190000Y0812940D01*
X0183750Y0816690D02*
X0183750Y0846690D01*
X0186250Y0849190D01*
X0186170Y0855520D01*
X0188750Y0895440D02*
X0197500Y0904190D01*
X0117500Y0902940D02*
X0115000Y0900440D01*
X0090000Y0885440D02*
X0085000Y0890440D01*
X0085000Y0931690D01*
X0062500Y0920440D02*
X0062500Y0950440D01*
X0055000Y0957940D01*
X0052500Y0950440D02*
X0045000Y0957940D01*
X0052500Y0950440D02*
X0052500Y0922940D01*
X0055000Y0920440D01*
X0057500Y0920440D01*
D48*
X0057500Y0944190D03*
D39*
X0212500Y0937940D02*
X0242500Y0907940D01*
X0242500Y0784190D01*
X0235000Y0776690D01*
X0235000Y0750440D01*
X0228750Y0744190D01*
X0101250Y0744190D01*
X0095000Y0750440D01*
X0095000Y0755440D01*
X0258720Y0739460D02*
G75*
%LPD*%
D92*
X0343720Y0753460D03*
X0343720Y0763460D03*
X0293720Y0945960D03*
X0293720Y0955960D03*
X0303720Y0955960D03*
X0313720Y0955960D03*
X0283720Y0955960D03*
X0283720Y0945960D03*
X0273720Y0945960D03*
X0273720Y0955960D03*
X0263720Y0955960D03*
X0353720Y0955960D03*
X0363720Y0955960D03*
X0373720Y0955960D03*
X0383720Y0955960D03*
X0393720Y0955960D03*
X0403720Y0955960D03*
X0433720Y0955960D03*
X0443720Y0955960D03*
X0453720Y0955960D03*
X0463720Y0955960D03*
X0473720Y0955960D03*
D102*
X0263720Y0778460D03*
X0273720Y0778460D03*
X0283720Y0778460D03*
X0293720Y0778460D03*
X0303720Y0778460D03*
X0303720Y0788460D03*
X0293720Y0788460D03*
X0283720Y0788460D03*
X0273720Y0788460D03*
X0263720Y0788460D03*
D38*
X0313720Y0763460D03*
X0353720Y0753460D03*
X0373720Y0763460D03*
X0468720Y0763460D03*
X0468720Y0753460D03*
D82*
X0478720Y0753460D03*
X0488720Y0753460D03*
X0488720Y0763460D03*
X0478720Y0763460D03*
X0373720Y0753460D03*
X0363720Y0753460D03*
X0363720Y0763460D03*
X0353720Y0763460D03*
X0333720Y0763460D03*
X0323720Y0763460D03*
D44*
X0263720Y0945960D03*
D86*
X0489530Y0956150D03*
X0489530Y0923270D03*
D69*
X0477230Y0930950D02*
X0472870Y0930950D01*
X0472870Y0948470D02*
X0477230Y0948470D01*
D51*
X0461220Y0935960D03*
X0454970Y0930960D03*
X0459970Y0927210D03*
X0464970Y0923460D03*
X0464970Y0908200D03*
X0459970Y0908460D03*
X0454970Y0908460D03*
X0446220Y0920960D03*
X0423720Y0900960D03*
X0420390Y0897630D03*
X0403720Y0896760D03*
X0396220Y0897210D03*
X0396220Y0892210D03*
X0391220Y0897210D03*
X0383720Y0900960D03*
X0376220Y0897210D03*
X0376220Y0885960D03*
X0363720Y0878460D03*
X0363720Y0873460D03*
X0363720Y0868460D03*
X0361220Y0858460D03*
X0356220Y0847210D03*
X0346220Y0847210D03*
X0358720Y0833460D03*
X0366220Y0838460D03*
X0381220Y0833460D03*
X0382470Y0838460D03*
X0386220Y0847210D03*
X0391220Y0848460D03*
X0394970Y0850960D03*
X0398720Y0848460D03*
X0411220Y0860960D03*
X0414970Y0858460D03*
X0417470Y0864710D03*
X0418720Y0869710D03*
X0407470Y0863460D03*
X0403720Y0865960D03*
X0403720Y0877210D03*
X0397470Y0882210D03*
X0401220Y0884710D03*
X0393720Y0879710D03*
X0393720Y0904710D03*
X0397470Y0908460D03*
X0401220Y0912210D03*
X0404970Y0918460D03*
X0408720Y0915960D03*
X0412470Y0913460D03*
X0418720Y0914710D03*
X0401220Y0920960D03*
X0397470Y0923460D03*
X0393720Y0925960D03*
X0388720Y0925960D03*
X0387470Y0920960D03*
X0376220Y0920960D03*
X0371220Y0920960D03*
X0367470Y0925960D03*
X0356220Y0930960D03*
X0348720Y0930960D03*
X0348720Y0940960D03*
X0336220Y0940960D03*
X0331220Y0945960D03*
X0326220Y0945960D03*
X0321220Y0942210D03*
X0321220Y0935960D03*
X0326220Y0935960D03*
X0328720Y0953460D03*
X0306220Y0935960D03*
X0293720Y0938460D03*
X0283720Y0933460D03*
X0306220Y0918460D03*
X0311220Y0918460D03*
X0318720Y0918460D03*
X0323720Y0918460D03*
X0337470Y0919710D03*
X0343720Y0919710D03*
X0351220Y0913460D03*
X0356220Y0918460D03*
X0361220Y0915960D03*
X0363720Y0908460D03*
X0363720Y0903460D03*
X0363720Y0898460D03*
X0358720Y0908460D03*
X0356220Y0885960D03*
X0338720Y0883460D03*
X0341220Y0870960D03*
X0346220Y0868460D03*
X0326220Y0853460D03*
X0321220Y0855960D03*
X0317470Y0858460D03*
X0313720Y0860960D03*
X0309970Y0863460D03*
X0306220Y0865960D03*
X0298720Y0870960D03*
X0301220Y0875960D03*
X0296220Y0865960D03*
X0293720Y0860960D03*
X0298720Y0855960D03*
X0302470Y0858460D03*
X0297470Y0849710D03*
X0296220Y0833460D03*
X0301220Y0833460D03*
X0287470Y0834710D03*
X0277470Y0837210D03*
X0277470Y0853460D03*
X0277470Y0868460D03*
X0278720Y0880960D03*
X0278720Y0895960D03*
X0281220Y0908460D03*
X0277470Y0909710D03*
X0322470Y0847210D03*
X0341220Y0820960D03*
X0318720Y0818460D03*
X0292470Y0818460D03*
X0287470Y0814710D03*
X0283720Y0818460D03*
X0276220Y0818460D03*
X0308720Y0793460D03*
X0343720Y0793460D03*
X0351220Y0793460D03*
X0356220Y0795960D03*
X0366220Y0797210D03*
X0373720Y0788460D03*
X0378720Y0783460D03*
X0373720Y0778460D03*
X0368720Y0783460D03*
X0361220Y0780960D03*
X0343720Y0780960D03*
X0306220Y0753460D03*
X0306220Y0744710D03*
X0383720Y0763460D03*
X0411220Y0753460D03*
X0416220Y0760960D03*
X0416220Y0767210D03*
X0421220Y0767210D03*
X0421220Y0777210D03*
X0416220Y0777210D03*
X0412470Y0788460D03*
X0386220Y0787210D03*
X0421220Y0817210D03*
X0430420Y0811410D03*
X0434970Y0808460D03*
X0438720Y0805960D03*
X0442470Y0803460D03*
X0449970Y0792210D03*
X0449970Y0783460D03*
X0431220Y0753460D03*
X0461220Y0745960D03*
X0402470Y0819710D03*
X0406220Y0822210D03*
X0409970Y0824710D03*
X0413720Y0827210D03*
X0430420Y0846760D03*
X0422470Y0847210D03*
X0434890Y0853540D03*
X0437990Y0856690D03*
X0441090Y0859840D03*
X0434970Y0880960D03*
X0434970Y0885960D03*
X0437470Y0893460D03*
X0482470Y0890960D03*
X0482470Y0875960D03*
X0448720Y0940960D03*
X0443720Y0947210D03*
X0423720Y0944710D03*
X0418720Y0947210D03*
X0409970Y0950960D03*
X0402470Y0947210D03*
D57*
X0398720Y0943460D01*
X0398720Y0930960D01*
X0393720Y0925960D01*
X0397470Y0923460D02*
X0399970Y0925960D01*
X0408720Y0925960D01*
X0411220Y0928460D01*
X0411220Y0947210D01*
X0416220Y0952210D01*
X0429970Y0952210D01*
X0433720Y0955960D01*
X0443720Y0955960D02*
X0443720Y0947210D01*
X0448720Y0950960D02*
X0453720Y0955960D01*
X0448720Y0950960D02*
X0448720Y0940960D01*
X0454970Y0930960D02*
X0454970Y0908460D01*
X0459970Y0908460D02*
X0459970Y0927210D01*
X0464970Y0923460D02*
X0464970Y0908200D01*
X0446220Y0902210D02*
X0446220Y0920960D01*
X0461220Y0935960D02*
X0461220Y0953460D01*
X0463720Y0955960D01*
X0423720Y0944710D02*
X0423720Y0900960D01*
X0420390Y0897630D02*
X0418720Y0895960D01*
X0418720Y0869710D01*
X0414970Y0867210D02*
X0417470Y0864710D01*
X0414970Y0862210D02*
X0412470Y0864710D01*
X0412470Y0913460D01*
X0409970Y0912210D02*
X0408720Y0913460D01*
X0408720Y0915960D01*
X0409970Y0912210D02*
X0409970Y0864710D01*
X0411220Y0863460D01*
X0411220Y0860960D01*
X0414970Y0862210D02*
X0414970Y0858460D01*
X0407470Y0863460D02*
X0407470Y0912210D01*
X0404970Y0914710D01*
X0404970Y0918460D01*
X0401220Y0920960D02*
X0403720Y0923460D01*
X0409970Y0923460D01*
X0414970Y0928460D01*
X0414970Y0943460D01*
X0418720Y0947210D01*
X0409970Y0950960D02*
X0401220Y0950960D01*
X0393720Y0943460D01*
X0393720Y0930960D01*
X0388720Y0925960D01*
X0401220Y0912210D02*
X0362470Y0912210D01*
X0358720Y0908460D01*
X0356220Y0912210D02*
X0356220Y0918460D01*
X0361220Y0918460D02*
X0361220Y0915960D01*
X0361220Y0935960D01*
X0363720Y0938460D01*
X0363720Y0945960D01*
X0373720Y0955960D01*
X0372470Y0950960D02*
X0388720Y0950960D01*
X0393720Y0955960D01*
X0372470Y0950960D02*
X0367470Y0945960D01*
X0367470Y0925960D01*
X0356220Y0923460D02*
X0356220Y0930960D01*
X0354970Y0934710D02*
X0354970Y0947210D01*
X0363720Y0955960D01*
X0353720Y0955960D02*
X0352470Y0957210D01*
X0326220Y0957210D01*
X0316220Y0947210D01*
X0316220Y0920960D01*
X0318720Y0918460D01*
X0323720Y0918460D02*
X0326220Y0920960D01*
X0326220Y0930960D01*
X0331220Y0935960D01*
X0331220Y0945960D01*
X0326220Y0945960D02*
X0326220Y0935960D01*
X0333720Y0929710D02*
X0336220Y0932210D01*
X0336220Y0940960D01*
X0348720Y0940960D02*
X0348720Y0930960D01*
X0352470Y0932210D02*
X0354970Y0934710D01*
X0352470Y0932210D02*
X0352470Y0922210D01*
X0343720Y0913460D01*
X0343720Y0873460D01*
X0341220Y0870960D01*
X0346220Y0868460D02*
X0346220Y0913460D01*
X0356220Y0923460D01*
X0351220Y0913460D02*
X0351220Y0900960D01*
X0361220Y0890960D01*
X0394970Y0890960D01*
X0396220Y0892210D01*
X0392470Y0893460D02*
X0396220Y0897210D01*
X0392470Y0893460D02*
X0363720Y0893460D01*
X0353720Y0903460D01*
X0353720Y0909710D01*
X0356220Y0912210D01*
X0363720Y0908460D02*
X0397470Y0908460D01*
X0393720Y0904710D02*
X0364970Y0904710D01*
X0363720Y0903460D01*
X0366220Y0900960D02*
X0383720Y0900960D01*
X0376220Y0885960D02*
X0361220Y0885960D01*
X0358720Y0883460D01*
X0358720Y0860960D01*
X0361220Y0858460D01*
X0356220Y0852210D02*
X0361220Y0847210D01*
X0361220Y0838460D01*
X0366220Y0833460D01*
X0366220Y0797210D01*
X0363720Y0799710D02*
X0361220Y0797210D01*
X0361220Y0780960D01*
X0368720Y0783460D02*
X0368720Y0788460D01*
X0381220Y0800960D01*
X0381220Y0828460D01*
X0386220Y0833460D01*
X0386220Y0847210D01*
X0391220Y0848460D02*
X0391220Y0835960D01*
X0383720Y0828460D01*
X0383720Y0798460D01*
X0373720Y0788460D01*
X0373720Y0783460D02*
X0379970Y0789710D01*
X0379970Y0790960D01*
X0386220Y0797210D01*
X0386220Y0828460D01*
X0393720Y0835960D01*
X0393720Y0845960D01*
X0394970Y0847210D01*
X0394970Y0850960D01*
X0398720Y0848460D02*
X0396220Y0845960D01*
X0396220Y0835960D01*
X0388720Y0828460D01*
X0388720Y0795960D01*
X0382470Y0789710D01*
X0382470Y0787210D01*
X0378720Y0783460D01*
X0373720Y0783460D02*
X0373720Y0778460D01*
X0356220Y0795960D02*
X0358720Y0798460D01*
X0358720Y0833460D01*
X0358720Y0838460D02*
X0363720Y0833460D01*
X0363720Y0799710D01*
X0328720Y0814710D02*
X0321220Y0807210D01*
X0311220Y0807210D01*
X0303720Y0799710D01*
X0303720Y0788460D01*
X0298720Y0783460D02*
X0303720Y0778460D01*
X0298720Y0783460D02*
X0298720Y0800960D01*
X0309970Y0812210D01*
X0317470Y0812210D01*
X0326220Y0820960D01*
X0326220Y0848460D01*
X0321220Y0853460D01*
X0321220Y0855960D01*
X0317470Y0858460D02*
X0317470Y0822210D01*
X0293720Y0798460D01*
X0293720Y0788460D01*
X0288720Y0783460D02*
X0293720Y0778460D01*
X0288720Y0783460D02*
X0288720Y0795960D01*
X0314970Y0822210D01*
X0314970Y0855960D01*
X0313720Y0857210D01*
X0313720Y0860960D01*
X0309970Y0858460D02*
X0309970Y0863460D01*
X0306220Y0865960D02*
X0306220Y0859710D01*
X0309970Y0855960D01*
X0309970Y0822210D01*
X0278720Y0790960D01*
X0278720Y0783460D01*
X0283720Y0778460D01*
X0283720Y0788460D02*
X0283720Y0793460D01*
X0312470Y0822210D01*
X0312470Y0855960D01*
X0309970Y0858460D01*
X0307470Y0853460D02*
X0302470Y0858460D01*
X0298720Y0855960D02*
X0304970Y0849710D01*
X0304970Y0822210D01*
X0276220Y0793460D01*
X0271220Y0793460D01*
X0268720Y0790960D01*
X0268720Y0783460D01*
X0273720Y0778460D01*
X0273720Y0788460D02*
X0307470Y0822210D01*
X0307470Y0853460D01*
X0297470Y0849710D02*
X0279970Y0832210D01*
X0279970Y0813460D01*
X0263720Y0797210D01*
X0263720Y0788460D01*
X0287470Y0814710D02*
X0287470Y0834710D01*
X0293720Y0860960D02*
X0291220Y0863460D01*
X0291220Y0918460D01*
X0263720Y0945960D01*
X0273720Y0945960D02*
X0273720Y0938460D01*
X0293720Y0918460D01*
X0293720Y0868460D01*
X0296220Y0865960D01*
X0298720Y0870960D02*
X0296220Y0873460D01*
X0296220Y0930960D01*
X0283720Y0943460D01*
X0283720Y0945960D01*
X0293720Y0945960D02*
X0298720Y0940960D01*
X0298720Y0878460D01*
X0301220Y0875960D01*
X0326220Y0853460D02*
X0328720Y0850960D01*
X0328720Y0814710D01*
X0358720Y0838460D02*
X0358720Y0844710D01*
X0356220Y0847210D01*
X0356220Y0852210D02*
X0356220Y0885960D01*
X0363720Y0878460D02*
X0376220Y0878460D01*
X0378720Y0875960D01*
X0378720Y0842210D01*
X0382470Y0838460D01*
X0402470Y0824710D02*
X0402470Y0819710D01*
X0406220Y0822210D02*
X0406220Y0825960D01*
X0408720Y0828460D01*
X0408720Y0848460D01*
X0397470Y0859710D01*
X0397470Y0882210D01*
X0401220Y0879710D02*
X0399970Y0878460D01*
X0399970Y0859710D01*
X0411220Y0848460D01*
X0411220Y0828460D01*
X0409970Y0827210D01*
X0409970Y0824710D01*
X0406220Y0828460D02*
X0402470Y0824710D01*
X0406220Y0828460D02*
X0406220Y0848460D01*
X0394970Y0859710D01*
X0394970Y0878460D01*
X0393720Y0879710D01*
X0401220Y0879710D02*
X0401220Y0884710D01*
X0404970Y0878460D02*
X0403720Y0877210D01*
X0404970Y0878460D02*
X0404970Y0894710D01*
X0403720Y0895960D01*
X0403720Y0896760D01*
X0414970Y0910960D02*
X0418720Y0914710D01*
X0414970Y0910960D02*
X0414970Y0867210D01*
X0403720Y0865960D02*
X0403720Y0858460D01*
X0413720Y0848460D01*
X0413720Y0827210D01*
X0421220Y0817210D02*
X0421220Y0845960D01*
X0422470Y0847210D01*
X0430420Y0846760D02*
X0430420Y0811410D01*
X0432470Y0814710D02*
X0434890Y0812290D01*
X0434890Y0808540D01*
X0434970Y0808460D01*
X0438720Y0810960D02*
X0438720Y0805960D01*
X0442470Y0803460D02*
X0442470Y0810960D01*
X0438720Y0814710D01*
X0438720Y0844710D01*
X0442470Y0848460D01*
X0442470Y0858460D01*
X0441090Y0859840D01*
X0437990Y0856690D02*
X0438720Y0855960D01*
X0438720Y0848460D01*
X0434970Y0844710D01*
X0434970Y0814710D01*
X0438720Y0810960D01*
X0432470Y0814710D02*
X0432470Y0844710D01*
X0434970Y0847210D01*
X0434890Y0853540D01*
X0437470Y0893460D02*
X0446220Y0902210D01*
X0366220Y0900960D02*
X0363720Y0898460D01*
X0338720Y0883460D02*
X0333720Y0888460D01*
X0333720Y0929710D01*
X0311220Y0918460D02*
X0311220Y0948460D01*
X0303720Y0955960D01*
X0301220Y0948460D02*
X0293720Y0955960D01*
X0301220Y0948460D02*
X0301220Y0920960D01*
X0303720Y0918460D01*
X0306220Y0918460D01*
D48*
X0306220Y0942210D03*
D39*
X0461220Y0935960D02*
X0491220Y0905960D01*
X0491220Y0782210D01*
X0483720Y0774710D01*
X0483720Y0748460D01*
X0477470Y0742210D01*
X0349970Y0742210D01*
X0343720Y0748460D01*
X0343720Y0753460D01*
X0965030Y0416210D02*
G75*
%LPD*%
D92*
X1050030Y0430210D03*
X1050030Y0440210D03*
X1000030Y0622710D03*
X1000030Y0632710D03*
X1010030Y0632710D03*
X1020030Y0632710D03*
X0990030Y0632710D03*
X0990030Y0622710D03*
X0980030Y0622710D03*
X0980030Y0632710D03*
X0970030Y0632710D03*
X1060030Y0632710D03*
X1070030Y0632710D03*
X1080030Y0632710D03*
X1090030Y0632710D03*
X1100030Y0632710D03*
X1110030Y0632710D03*
X1140030Y0632710D03*
X1150030Y0632710D03*
X1160030Y0632710D03*
X1170030Y0632710D03*
X1180030Y0632710D03*
D102*
X0970030Y0455210D03*
X0980030Y0455210D03*
X0990030Y0455210D03*
X1000030Y0455210D03*
X1010030Y0455210D03*
X1010030Y0465210D03*
X1000030Y0465210D03*
X0990030Y0465210D03*
X0980030Y0465210D03*
X0970030Y0465210D03*
D38*
X1020030Y0440210D03*
X1060030Y0430210D03*
X1080030Y0440210D03*
X1175030Y0440210D03*
X1175030Y0430210D03*
D82*
X1185030Y0430210D03*
X1195030Y0430210D03*
X1195030Y0440210D03*
X1185030Y0440210D03*
X1080030Y0430210D03*
X1070030Y0430210D03*
X1070030Y0440210D03*
X1060030Y0440210D03*
X1040030Y0440210D03*
X1030030Y0440210D03*
D44*
X0970030Y0622710D03*
D86*
X1195840Y0632900D03*
X1195840Y0600020D03*
D69*
X1183540Y0607700D02*
X1179180Y0607700D01*
X1179180Y0625220D02*
X1183540Y0625220D01*
D51*
X1167530Y0612710D03*
X1161280Y0607710D03*
X1166280Y0603960D03*
X1171280Y0600210D03*
X1171280Y0584950D03*
X1166280Y0585210D03*
X1161280Y0585210D03*
X1152530Y0597710D03*
X1130030Y0577710D03*
X1126700Y0574380D03*
X1110030Y0573510D03*
X1102530Y0573960D03*
X1102530Y0568960D03*
X1097530Y0573960D03*
X1090030Y0577710D03*
X1082530Y0573960D03*
X1082530Y0562710D03*
X1070030Y0555210D03*
X1070030Y0550210D03*
X1070030Y0545210D03*
X1067530Y0535210D03*
X1062530Y0523960D03*
X1052530Y0523960D03*
X1065030Y0510210D03*
X1072530Y0515210D03*
X1087530Y0510210D03*
X1088780Y0515210D03*
X1092530Y0523960D03*
X1097530Y0525210D03*
X1101280Y0527710D03*
X1105030Y0525210D03*
X1117530Y0537710D03*
X1121280Y0535210D03*
X1123780Y0541460D03*
X1125030Y0546460D03*
X1113780Y0540210D03*
X1110030Y0542710D03*
X1110030Y0553960D03*
X1103780Y0558960D03*
X1107530Y0561460D03*
X1100030Y0556460D03*
X1100030Y0581460D03*
X1103780Y0585210D03*
X1107530Y0588960D03*
X1111280Y0595210D03*
X1115030Y0592710D03*
X1118780Y0590210D03*
X1125030Y0591460D03*
X1107530Y0597710D03*
X1103780Y0600210D03*
X1100030Y0602710D03*
X1095030Y0602710D03*
X1093780Y0597710D03*
X1082530Y0597710D03*
X1077530Y0597710D03*
X1073780Y0602710D03*
X1062530Y0607710D03*
X1055030Y0607710D03*
X1055030Y0617710D03*
X1042530Y0617710D03*
X1037530Y0622710D03*
X1032530Y0622710D03*
X1027530Y0618960D03*
X1027530Y0612710D03*
X1032530Y0612710D03*
X1035030Y0630210D03*
X1012530Y0612710D03*
X1000030Y0615210D03*
X0990030Y0610210D03*
X1012530Y0595210D03*
X1017530Y0595210D03*
X1025030Y0595210D03*
X1030030Y0595210D03*
X1043780Y0596460D03*
X1050030Y0596460D03*
X1057530Y0590210D03*
X1062530Y0595210D03*
X1067530Y0592710D03*
X1070030Y0585210D03*
X1070030Y0580210D03*
X1070030Y0575210D03*
X1065030Y0585210D03*
X1062530Y0562710D03*
X1045030Y0560210D03*
X1047530Y0547710D03*
X1052530Y0545210D03*
X1032530Y0530210D03*
X1027530Y0532710D03*
X1023780Y0535210D03*
X1020030Y0537710D03*
X1016280Y0540210D03*
X1012530Y0542710D03*
X1005030Y0547710D03*
X1007530Y0552710D03*
X1002530Y0542710D03*
X1000030Y0537710D03*
X1005030Y0532710D03*
X1008780Y0535210D03*
X1003780Y0526460D03*
X1002530Y0510210D03*
X1007530Y0510210D03*
X0993780Y0511460D03*
X0983780Y0513960D03*
X0983780Y0530210D03*
X0983780Y0545210D03*
X0985030Y0557710D03*
X0985030Y0572710D03*
X0987530Y0585210D03*
X0983780Y0586460D03*
X1028780Y0523960D03*
X1047530Y0497710D03*
X1025030Y0495210D03*
X0998780Y0495210D03*
X0993780Y0491460D03*
X0990030Y0495210D03*
X0982530Y0495210D03*
X1015030Y0470210D03*
X1050030Y0470210D03*
X1057530Y0470210D03*
X1062530Y0472710D03*
X1072530Y0473960D03*
X1080030Y0465210D03*
X1085030Y0460210D03*
X1080030Y0455210D03*
X1075030Y0460210D03*
X1067530Y0457710D03*
X1050030Y0457710D03*
X1012530Y0430210D03*
X1012530Y0421460D03*
X1090030Y0440210D03*
X1117530Y0430210D03*
X1122530Y0437710D03*
X1122530Y0443960D03*
X1127530Y0443960D03*
X1127530Y0453960D03*
X1122530Y0453960D03*
X1118780Y0465210D03*
X1092530Y0463960D03*
X1127530Y0493960D03*
X1136730Y0488160D03*
X1141280Y0485210D03*
X1145030Y0482710D03*
X1148780Y0480210D03*
X1156280Y0468960D03*
X1156280Y0460210D03*
X1137530Y0430210D03*
X1167530Y0422710D03*
X1108780Y0496460D03*
X1112530Y0498960D03*
X1116280Y0501460D03*
X1120030Y0503960D03*
X1136730Y0523510D03*
X1128780Y0523960D03*
X1141200Y0530290D03*
X1144300Y0533440D03*
X1147400Y0536590D03*
X1141280Y0557710D03*
X1141280Y0562710D03*
X1143780Y0570210D03*
X1188780Y0567710D03*
X1188780Y0552710D03*
X1155030Y0617710D03*
X1150030Y0623960D03*
X1130030Y0621460D03*
X1125030Y0623960D03*
X1116280Y0627710D03*
X1108780Y0623960D03*
D57*
X1105030Y0620210D01*
X1105030Y0607710D01*
X1100030Y0602710D01*
X1103780Y0600210D02*
X1106280Y0602710D01*
X1115030Y0602710D01*
X1117530Y0605210D01*
X1117530Y0623960D01*
X1122530Y0628960D01*
X1136280Y0628960D01*
X1140030Y0632710D01*
X1150030Y0632710D02*
X1150030Y0623960D01*
X1155030Y0627710D02*
X1160030Y0632710D01*
X1155030Y0627710D02*
X1155030Y0617710D01*
X1161280Y0607710D02*
X1161280Y0585210D01*
X1166280Y0585210D02*
X1166280Y0603960D01*
X1171280Y0600210D02*
X1171280Y0584950D01*
X1152530Y0578960D02*
X1152530Y0597710D01*
X1167530Y0612710D02*
X1167530Y0630210D01*
X1170030Y0632710D01*
X1130030Y0621460D02*
X1130030Y0577710D01*
X1126700Y0574380D02*
X1125030Y0572710D01*
X1125030Y0546460D01*
X1121280Y0543960D02*
X1123780Y0541460D01*
X1121280Y0538960D02*
X1118780Y0541460D01*
X1118780Y0590210D01*
X1116280Y0588960D02*
X1115030Y0590210D01*
X1115030Y0592710D01*
X1116280Y0588960D02*
X1116280Y0541460D01*
X1117530Y0540210D01*
X1117530Y0537710D01*
X1121280Y0538960D02*
X1121280Y0535210D01*
X1113780Y0540210D02*
X1113780Y0588960D01*
X1111280Y0591460D01*
X1111280Y0595210D01*
X1107530Y0597710D02*
X1110030Y0600210D01*
X1116280Y0600210D01*
X1121280Y0605210D01*
X1121280Y0620210D01*
X1125030Y0623960D01*
X1116280Y0627710D02*
X1107530Y0627710D01*
X1100030Y0620210D01*
X1100030Y0607710D01*
X1095030Y0602710D01*
X1107530Y0588960D02*
X1068780Y0588960D01*
X1065030Y0585210D01*
X1062530Y0588960D02*
X1062530Y0595210D01*
X1067530Y0595210D02*
X1067530Y0592710D01*
X1067530Y0612710D01*
X1070030Y0615210D01*
X1070030Y0622710D01*
X1080030Y0632710D01*
X1078780Y0627710D02*
X1095030Y0627710D01*
X1100030Y0632710D01*
X1078780Y0627710D02*
X1073780Y0622710D01*
X1073780Y0602710D01*
X1062530Y0600210D02*
X1062530Y0607710D01*
X1061280Y0611460D02*
X1061280Y0623960D01*
X1070030Y0632710D01*
X1060030Y0632710D02*
X1058780Y0633960D01*
X1032530Y0633960D01*
X1022530Y0623960D01*
X1022530Y0597710D01*
X1025030Y0595210D01*
X1030030Y0595210D02*
X1032530Y0597710D01*
X1032530Y0607710D01*
X1037530Y0612710D01*
X1037530Y0622710D01*
X1032530Y0622710D02*
X1032530Y0612710D01*
X1040030Y0606460D02*
X1042530Y0608960D01*
X1042530Y0617710D01*
X1055030Y0617710D02*
X1055030Y0607710D01*
X1058780Y0608960D02*
X1061280Y0611460D01*
X1058780Y0608960D02*
X1058780Y0598960D01*
X1050030Y0590210D01*
X1050030Y0550210D01*
X1047530Y0547710D01*
X1052530Y0545210D02*
X1052530Y0590210D01*
X1062530Y0600210D01*
X1057530Y0590210D02*
X1057530Y0577710D01*
X1067530Y0567710D01*
X1101280Y0567710D01*
X1102530Y0568960D01*
X1098780Y0570210D02*
X1102530Y0573960D01*
X1098780Y0570210D02*
X1070030Y0570210D01*
X1060030Y0580210D01*
X1060030Y0586460D01*
X1062530Y0588960D01*
X1070030Y0585210D02*
X1103780Y0585210D01*
X1100030Y0581460D02*
X1071280Y0581460D01*
X1070030Y0580210D01*
X1072530Y0577710D02*
X1090030Y0577710D01*
X1082530Y0562710D02*
X1067530Y0562710D01*
X1065030Y0560210D01*
X1065030Y0537710D01*
X1067530Y0535210D01*
X1062530Y0528960D02*
X1067530Y0523960D01*
X1067530Y0515210D01*
X1072530Y0510210D01*
X1072530Y0473960D01*
X1070030Y0476460D02*
X1067530Y0473960D01*
X1067530Y0457710D01*
X1075030Y0460210D02*
X1075030Y0465210D01*
X1087530Y0477710D01*
X1087530Y0505210D01*
X1092530Y0510210D01*
X1092530Y0523960D01*
X1097530Y0525210D02*
X1097530Y0512710D01*
X1090030Y0505210D01*
X1090030Y0475210D01*
X1080030Y0465210D01*
X1080030Y0460210D02*
X1086280Y0466460D01*
X1086280Y0467710D01*
X1092530Y0473960D01*
X1092530Y0505210D01*
X1100030Y0512710D01*
X1100030Y0522710D01*
X1101280Y0523960D01*
X1101280Y0527710D01*
X1105030Y0525210D02*
X1102530Y0522710D01*
X1102530Y0512710D01*
X1095030Y0505210D01*
X1095030Y0472710D01*
X1088780Y0466460D01*
X1088780Y0463960D01*
X1085030Y0460210D01*
X1080030Y0460210D02*
X1080030Y0455210D01*
X1062530Y0472710D02*
X1065030Y0475210D01*
X1065030Y0510210D01*
X1065030Y0515210D02*
X1070030Y0510210D01*
X1070030Y0476460D01*
X1035030Y0491460D02*
X1027530Y0483960D01*
X1017530Y0483960D01*
X1010030Y0476460D01*
X1010030Y0465210D01*
X1005030Y0460210D02*
X1010030Y0455210D01*
X1005030Y0460210D02*
X1005030Y0477710D01*
X1016280Y0488960D01*
X1023780Y0488960D01*
X1032530Y0497710D01*
X1032530Y0525210D01*
X1027530Y0530210D01*
X1027530Y0532710D01*
X1023780Y0535210D02*
X1023780Y0498960D01*
X1000030Y0475210D01*
X1000030Y0465210D01*
X0995030Y0460210D02*
X1000030Y0455210D01*
X0995030Y0460210D02*
X0995030Y0472710D01*
X1021280Y0498960D01*
X1021280Y0532710D01*
X1020030Y0533960D01*
X1020030Y0537710D01*
X1016280Y0535210D02*
X1016280Y0540210D01*
X1012530Y0542710D02*
X1012530Y0536460D01*
X1016280Y0532710D01*
X1016280Y0498960D01*
X0985030Y0467710D01*
X0985030Y0460210D01*
X0990030Y0455210D01*
X0990030Y0465210D02*
X0990030Y0470210D01*
X1018780Y0498960D01*
X1018780Y0532710D01*
X1016280Y0535210D01*
X1013780Y0530210D02*
X1008780Y0535210D01*
X1005030Y0532710D02*
X1011280Y0526460D01*
X1011280Y0498960D01*
X0982530Y0470210D01*
X0977530Y0470210D01*
X0975030Y0467710D01*
X0975030Y0460210D01*
X0980030Y0455210D01*
X0980030Y0465210D02*
X1013780Y0498960D01*
X1013780Y0530210D01*
X1003780Y0526460D02*
X0986280Y0508960D01*
X0986280Y0490210D01*
X0970030Y0473960D01*
X0970030Y0465210D01*
X0993780Y0491460D02*
X0993780Y0511460D01*
X1000030Y0537710D02*
X0997530Y0540210D01*
X0997530Y0595210D01*
X0970030Y0622710D01*
X0980030Y0622710D02*
X0980030Y0615210D01*
X1000030Y0595210D01*
X1000030Y0545210D01*
X1002530Y0542710D01*
X1005030Y0547710D02*
X1002530Y0550210D01*
X1002530Y0607710D01*
X0990030Y0620210D01*
X0990030Y0622710D01*
X1000030Y0622710D02*
X1005030Y0617710D01*
X1005030Y0555210D01*
X1007530Y0552710D01*
X1032530Y0530210D02*
X1035030Y0527710D01*
X1035030Y0491460D01*
X1065030Y0515210D02*
X1065030Y0521460D01*
X1062530Y0523960D01*
X1062530Y0528960D02*
X1062530Y0562710D01*
X1070030Y0555210D02*
X1082530Y0555210D01*
X1085030Y0552710D01*
X1085030Y0518960D01*
X1088780Y0515210D01*
X1108780Y0501460D02*
X1108780Y0496460D01*
X1112530Y0498960D02*
X1112530Y0502710D01*
X1115030Y0505210D01*
X1115030Y0525210D01*
X1103780Y0536460D01*
X1103780Y0558960D01*
X1107530Y0556460D02*
X1106280Y0555210D01*
X1106280Y0536460D01*
X1117530Y0525210D01*
X1117530Y0505210D01*
X1116280Y0503960D01*
X1116280Y0501460D01*
X1112530Y0505210D02*
X1108780Y0501460D01*
X1112530Y0505210D02*
X1112530Y0525210D01*
X1101280Y0536460D01*
X1101280Y0555210D01*
X1100030Y0556460D01*
X1107530Y0556460D02*
X1107530Y0561460D01*
X1111280Y0555210D02*
X1110030Y0553960D01*
X1111280Y0555210D02*
X1111280Y0571460D01*
X1110030Y0572710D01*
X1110030Y0573510D01*
X1121280Y0587710D02*
X1125030Y0591460D01*
X1121280Y0587710D02*
X1121280Y0543960D01*
X1110030Y0542710D02*
X1110030Y0535210D01*
X1120030Y0525210D01*
X1120030Y0503960D01*
X1127530Y0493960D02*
X1127530Y0522710D01*
X1128780Y0523960D01*
X1136730Y0523510D02*
X1136730Y0488160D01*
X1138780Y0491460D02*
X1141200Y0489040D01*
X1141200Y0485290D01*
X1141280Y0485210D01*
X1145030Y0487710D02*
X1145030Y0482710D01*
X1148780Y0480210D02*
X1148780Y0487710D01*
X1145030Y0491460D01*
X1145030Y0521460D01*
X1148780Y0525210D01*
X1148780Y0535210D01*
X1147400Y0536590D01*
X1144300Y0533440D02*
X1145030Y0532710D01*
X1145030Y0525210D01*
X1141280Y0521460D01*
X1141280Y0491460D01*
X1145030Y0487710D01*
X1138780Y0491460D02*
X1138780Y0521460D01*
X1141280Y0523960D01*
X1141200Y0530290D01*
X1143780Y0570210D02*
X1152530Y0578960D01*
X1072530Y0577710D02*
X1070030Y0575210D01*
X1045030Y0560210D02*
X1040030Y0565210D01*
X1040030Y0606460D01*
X1017530Y0595210D02*
X1017530Y0625210D01*
X1010030Y0632710D01*
X1007530Y0625210D02*
X1000030Y0632710D01*
X1007530Y0625210D02*
X1007530Y0597710D01*
X1010030Y0595210D01*
X1012530Y0595210D01*
D48*
X1012530Y0618960D03*
D39*
X1167530Y0612710D02*
X1197530Y0582710D01*
X1197530Y0458960D01*
X1190030Y0451460D01*
X1190030Y0425210D01*
X1183780Y0418960D01*
X1056280Y0418960D01*
X1050030Y0425210D01*
X1050030Y0430210D01*
X0807540Y0650210D02*
G75*
%LPD*%
D65*
X0844550Y0891930D03*
X0854400Y0891930D03*
X0864240Y0891930D03*
X0944550Y0891930D03*
X0954400Y0891930D03*
X0964240Y0891930D03*
X1044550Y0891930D03*
X1054400Y0891930D03*
X1064240Y0891930D03*
X1144550Y0891930D03*
X1154400Y0891930D03*
X1164240Y0891930D03*
D49*
X1172110Y0921460D03*
X1136680Y0921460D03*
X1072110Y0921460D03*
X1036680Y0921460D03*
X0972110Y0921460D03*
X0936680Y0921460D03*
X0872110Y0921460D03*
X0836680Y0921460D03*
D92*
X0898150Y0920210D03*
X0898150Y0930210D03*
X0898150Y0940210D03*
X0898150Y0910210D03*
X0898150Y0900210D03*
X0898150Y0870210D03*
X0898150Y0860210D03*
X0898150Y0850210D03*
X0898150Y0840210D03*
X0898150Y0830210D03*
X0898150Y0820210D03*
X0898150Y0780210D03*
X0898150Y0770210D03*
X0898150Y0760210D03*
X0908150Y0760210D03*
X0908150Y0750210D03*
X0908150Y0740210D03*
X0898150Y0740210D03*
X0898150Y0730210D03*
X0898150Y0750210D03*
X0958150Y0730210D03*
X0968150Y0730210D03*
X0978150Y0730210D03*
X0988150Y0730210D03*
X0998150Y0730210D03*
X1008150Y0730210D03*
X1018150Y0730210D03*
X1028150Y0730210D03*
X1038150Y0730210D03*
X1048150Y0730210D03*
X1088150Y0780210D03*
X1088150Y0790210D03*
X1088150Y0800210D03*
X1088150Y0810210D03*
X1098150Y0810210D03*
X1020650Y0912710D03*
X1000650Y0912710D03*
X1045650Y0952710D03*
X1055650Y0952710D03*
D74*
X0983150Y0952710D03*
X0983150Y0912710D03*
D38*
X1088150Y0955210D03*
X1098150Y0935210D03*
X1098150Y0820210D03*
X1088150Y0820210D03*
D82*
X1088150Y0830210D03*
X1098150Y0830210D03*
X1098150Y0840210D03*
X1088150Y0840210D03*
X1088150Y0935210D03*
X1088150Y0945210D03*
X1098150Y0945210D03*
X1098150Y0955210D03*
D76*
X1069400Y0876460D03*
X1069400Y0866460D03*
X1069400Y0856460D03*
X1069400Y0846460D03*
X1069400Y0836460D03*
X1039400Y0836460D03*
X1039400Y0846460D03*
X1039400Y0856460D03*
X1039400Y0866460D03*
X1039400Y0876460D03*
X1028150Y0822710D03*
X1028150Y0792710D03*
X1024400Y0781460D03*
X1034400Y0781460D03*
X1044400Y0781460D03*
X1044400Y0751460D03*
X1034400Y0751460D03*
X1024400Y0751460D03*
X0999400Y0756460D03*
X0989400Y0751460D03*
X0979400Y0751460D03*
X0969400Y0751460D03*
X0939400Y0756460D03*
X0929400Y0756460D03*
X0929400Y0776460D03*
X0939400Y0776460D03*
X0969400Y0781460D03*
X0979400Y0781460D03*
X0989400Y0781460D03*
X0999400Y0776460D03*
X0949400Y0821460D03*
X0949400Y0831460D03*
X0949400Y0841460D03*
X0919400Y0841460D03*
X0919400Y0831460D03*
X0919400Y0821460D03*
X0923150Y0896460D03*
X0914400Y0896460D03*
X0914400Y0926460D03*
X0923150Y0926460D03*
X1089400Y0768960D03*
X1094400Y0761460D03*
X1084400Y0761460D03*
X1089400Y0743960D03*
X1094400Y0736460D03*
X1084400Y0736460D03*
D95*
X1069400Y0796460D03*
X1044400Y0811460D03*
X0964400Y0796460D03*
X0934400Y0796460D03*
X0964400Y0826460D03*
X0964400Y0856460D03*
X0934400Y0856460D03*
D70*
X0934400Y0866460D03*
X0964400Y0866460D03*
X0964400Y0836460D03*
X0964400Y0806460D03*
X0934400Y0806460D03*
X1044400Y0821460D03*
X1069400Y0806460D03*
D79*
X1019400Y0856460D03*
X1019400Y0866460D03*
X1019400Y0876460D03*
X1019400Y0886460D03*
X0989400Y0886460D03*
X0989400Y0876460D03*
X0989400Y0866460D03*
X0989400Y0856460D03*
D35*
X1014400Y0788960D03*
X1014400Y0743960D03*
X0954400Y0743960D03*
X0954400Y0788960D03*
D29*
X1009400Y0926270D03*
X1027900Y0938080D03*
X1009400Y0949900D03*
D102*
X1058150Y0770210D03*
X1068150Y0770210D03*
X1068150Y0760210D03*
X1058150Y0760210D03*
X1058150Y0750210D03*
X1068150Y0750210D03*
X1068150Y0740210D03*
X1058150Y0740210D03*
X1058150Y0730210D03*
X1068150Y0730210D03*
D24*
X1145020Y0737090D03*
X1145020Y0721150D03*
X1169710Y0721150D03*
X1169400Y0737080D03*
X1194710Y0737080D03*
X1194710Y0721150D03*
X1194710Y0657080D03*
X1169400Y0657080D03*
X1145020Y0657090D03*
X1145020Y0801150D03*
X1145020Y0817090D03*
X1169400Y0817080D03*
X1169710Y0801150D03*
X1194710Y0801150D03*
X1194710Y0817080D03*
X1194710Y0881150D03*
X1169710Y0881150D03*
X1145020Y0881150D03*
X0863770Y0880830D03*
X0839400Y0880840D03*
X0814080Y0880840D03*
X0814080Y0816770D03*
X0814080Y0800840D03*
X0839400Y0800840D03*
X0839080Y0816770D03*
X0863770Y0816770D03*
X0863770Y0800830D03*
X0863770Y0736770D03*
X0839080Y0736770D03*
X0814080Y0736770D03*
D44*
X0908150Y0730210D03*
D86*
X0899970Y0955940D03*
X0932840Y0955940D03*
D69*
X0925160Y0943640D02*
X0925160Y0939270D01*
X0907640Y0939270D02*
X0907640Y0943640D01*
D75*
X0911280Y0944910D03*
X0913840Y0944910D03*
X0916400Y0944910D03*
X0918960Y0944910D03*
X0921520Y0944910D03*
D37*
X0920930Y0955940D03*
X0911880Y0955940D03*
D79*
X1109400Y0774060D02*
X1109400Y0768860D01*
X1109400Y0734060D02*
X1109400Y0728860D01*
D91*
X1019400Y0801460D03*
X0989400Y0801460D03*
X0989400Y0841460D03*
X1019400Y0841460D03*
D26*
X0886900Y0723960D02*
X0874400Y0736460D01*
X0874400Y0790210D01*
X0863770Y0800830D01*
X0894400Y0801460D02*
X0863770Y0832090D01*
X0863770Y0880830D01*
X0881900Y0883960D02*
X0881900Y0898960D01*
X0914400Y0896460D02*
X0914400Y0920210D01*
X0914400Y0926460D02*
X0913840Y0927010D01*
X0913840Y0944910D01*
X0911280Y0944910D02*
X0911280Y0937100D01*
X0904400Y0930210D01*
X0898150Y0930210D01*
X0916400Y0933200D02*
X0923150Y0926460D01*
X0928150Y0927710D02*
X0928150Y0903960D01*
X0923150Y0910210D02*
X0923150Y0896460D01*
X0928150Y0927710D02*
X0918960Y0936890D01*
X0918960Y0944910D01*
X0916400Y0944910D02*
X0916400Y0933200D01*
X0925160Y0943640D02*
X0923880Y0944910D01*
X0921520Y0944910D01*
X0994400Y0934900D02*
X0994400Y0918960D01*
X1000650Y0912710D01*
X1004400Y0906460D02*
X1009400Y0911460D01*
X1004400Y0906460D02*
X1004400Y0876460D01*
X1004400Y0836460D01*
X1009400Y0826460D02*
X1009400Y0861460D01*
X1014400Y0866460D01*
X1019400Y0866460D01*
X1024400Y0881460D02*
X1019400Y0886460D01*
X1019400Y0911460D01*
X1020650Y0912710D01*
X0994400Y0934900D02*
X1009400Y0949900D01*
X1055650Y0952710D02*
X1055650Y0912710D01*
X1088150Y0935210D02*
X1088150Y0871460D01*
X1098150Y0882710D02*
X1098150Y0840210D01*
X1103150Y0815210D02*
X1103150Y0912710D01*
X1109400Y0906460D02*
X1109400Y0791460D01*
X1099400Y0781460D01*
X1089400Y0781460D01*
X1088150Y0780210D01*
X1094400Y0786460D01*
X1094400Y0803960D01*
X1088150Y0810210D01*
X1079400Y0806460D02*
X1069400Y0816460D01*
X1079400Y0806460D02*
X1079400Y0741460D01*
X1068150Y0730210D01*
X1050650Y0743960D02*
X1050650Y0775210D01*
X1044400Y0781460D02*
X1044400Y0811460D01*
X1061900Y0801460D02*
X1061900Y0795210D01*
X1068150Y0788960D01*
X1068150Y0770210D01*
X1089400Y0768960D02*
X1089400Y0751460D01*
X1094400Y0746460D01*
X1094400Y0736460D01*
X1109400Y0771460D02*
X1099400Y0781460D01*
X1098150Y0810210D02*
X1103150Y0815210D01*
X1069400Y0856460D02*
X1064400Y0861460D01*
X1064400Y0871460D01*
X1069400Y0876460D01*
X1024400Y0881460D02*
X1024400Y0831460D01*
X0989400Y0822710D02*
X0989400Y0841460D01*
X0981900Y0841460D02*
X0981900Y0798960D01*
X0989400Y0791460D01*
X0989400Y0781460D01*
X0975650Y0798960D02*
X0975650Y0852710D01*
X0989400Y0866460D01*
X0964400Y0836460D02*
X0964400Y0826460D01*
X0919400Y0801460D02*
X0894400Y0801460D01*
X0989400Y0751460D02*
X0998150Y0742710D01*
X0998150Y0730210D01*
X1014400Y0743960D02*
X1018150Y0740210D01*
X1018150Y0730210D01*
X1038150Y0730210D02*
X1038150Y0747710D01*
X1034400Y0751460D01*
X1029400Y0760210D02*
X1029400Y0791460D01*
X1028150Y0792710D01*
X1048150Y0730210D02*
X1041900Y0723960D01*
X0886900Y0723960D01*
D61*
X0975650Y0798960D03*
X0989400Y0822710D03*
X1004400Y0836460D03*
X1009400Y0826460D03*
X1024400Y0831460D03*
X1061900Y0801460D03*
X1069400Y0816460D03*
X1050650Y0775210D03*
X1029400Y0760210D03*
X1050650Y0743960D03*
X0981900Y0841460D03*
X1004400Y0876460D03*
X1055650Y0912710D03*
X1098150Y0882710D03*
X1088150Y0871460D03*
X1109400Y0906460D03*
X1103150Y0912710D03*
X0928150Y0903960D03*
X0923150Y0910210D03*
X0914400Y0920210D03*
X0881900Y0898960D03*
X0881900Y0883960D03*
X0919400Y0801460D03*
D90*
X1009400Y0911460D03*
X0664930Y0416210D02*
G75*
%LPD*%
D92*
X0749930Y0430210D03*
X0749930Y0440210D03*
X0699930Y0622710D03*
X0699930Y0632710D03*
X0709930Y0632710D03*
X0719930Y0632710D03*
X0689930Y0632710D03*
X0689930Y0622710D03*
X0679930Y0622710D03*
X0679930Y0632710D03*
X0669930Y0632710D03*
X0759930Y0632710D03*
X0769930Y0632710D03*
X0779930Y0632710D03*
X0789930Y0632710D03*
X0799930Y0632710D03*
X0809930Y0632710D03*
X0839930Y0632710D03*
X0849930Y0632710D03*
X0859930Y0632710D03*
X0869930Y0632710D03*
X0879930Y0632710D03*
D102*
X0669930Y0455210D03*
X0679930Y0455210D03*
X0689930Y0455210D03*
X0699930Y0455210D03*
X0709930Y0455210D03*
X0709930Y0465210D03*
X0699930Y0465210D03*
X0689930Y0465210D03*
X0679930Y0465210D03*
X0669930Y0465210D03*
D38*
X0719930Y0440210D03*
X0759930Y0430210D03*
X0779930Y0440210D03*
X0874930Y0440210D03*
X0874930Y0430210D03*
D82*
X0884930Y0430210D03*
X0894930Y0430210D03*
X0894930Y0440210D03*
X0884930Y0440210D03*
X0779930Y0430210D03*
X0769930Y0430210D03*
X0769930Y0440210D03*
X0759930Y0440210D03*
X0739930Y0440210D03*
X0729930Y0440210D03*
D44*
X0669930Y0622710D03*
D86*
X0895740Y0632900D03*
X0895740Y0600020D03*
D69*
X0883440Y0607700D02*
X0879080Y0607700D01*
X0879080Y0625220D02*
X0883440Y0625220D01*
D51*
X0867430Y0612710D03*
X0861180Y0607710D03*
X0866180Y0603960D03*
X0871180Y0600210D03*
X0871180Y0584950D03*
X0866180Y0585210D03*
X0861180Y0585210D03*
X0852430Y0597710D03*
X0829930Y0577710D03*
X0826600Y0574380D03*
X0809930Y0573510D03*
X0802430Y0573960D03*
X0802430Y0568960D03*
X0797430Y0573960D03*
X0789930Y0577710D03*
X0782430Y0573960D03*
X0782430Y0562710D03*
X0769930Y0555210D03*
X0769930Y0550210D03*
X0769930Y0545210D03*
X0767430Y0535210D03*
X0762430Y0523960D03*
X0752430Y0523960D03*
X0764930Y0510210D03*
X0772430Y0515210D03*
X0787430Y0510210D03*
X0788680Y0515210D03*
X0792430Y0523960D03*
X0797430Y0525210D03*
X0801180Y0527710D03*
X0804930Y0525210D03*
X0817430Y0537710D03*
X0821180Y0535210D03*
X0823680Y0541460D03*
X0824930Y0546460D03*
X0813680Y0540210D03*
X0809930Y0542710D03*
X0809930Y0553960D03*
X0803680Y0558960D03*
X0807430Y0561460D03*
X0799930Y0556460D03*
X0799930Y0581460D03*
X0803680Y0585210D03*
X0807430Y0588960D03*
X0811180Y0595210D03*
X0814930Y0592710D03*
X0818680Y0590210D03*
X0824930Y0591460D03*
X0807430Y0597710D03*
X0803680Y0600210D03*
X0799930Y0602710D03*
X0794930Y0602710D03*
X0793680Y0597710D03*
X0782430Y0597710D03*
X0777430Y0597710D03*
X0773680Y0602710D03*
X0762430Y0607710D03*
X0754930Y0607710D03*
X0754930Y0617710D03*
X0742430Y0617710D03*
X0737430Y0622710D03*
X0732430Y0622710D03*
X0727430Y0618960D03*
X0727430Y0612710D03*
X0732430Y0612710D03*
X0734930Y0630210D03*
X0712430Y0612710D03*
X0699930Y0615210D03*
X0689930Y0610210D03*
X0712430Y0595210D03*
X0717430Y0595210D03*
X0724930Y0595210D03*
X0729930Y0595210D03*
X0743680Y0596460D03*
X0749930Y0596460D03*
X0757430Y0590210D03*
X0762430Y0595210D03*
X0767430Y0592710D03*
X0769930Y0585210D03*
X0769930Y0580210D03*
X0769930Y0575210D03*
X0764930Y0585210D03*
X0762430Y0562710D03*
X0744930Y0560210D03*
X0747430Y0547710D03*
X0752430Y0545210D03*
X0732430Y0530210D03*
X0727430Y0532710D03*
X0723680Y0535210D03*
X0719930Y0537710D03*
X0716180Y0540210D03*
X0712430Y0542710D03*
X0704930Y0547710D03*
X0707430Y0552710D03*
X0702430Y0542710D03*
X0699930Y0537710D03*
X0704930Y0532710D03*
X0708680Y0535210D03*
X0703680Y0526460D03*
X0702430Y0510210D03*
X0707430Y0510210D03*
X0693680Y0511460D03*
X0683680Y0513960D03*
X0683680Y0530210D03*
X0683680Y0545210D03*
X0684930Y0557710D03*
X0684930Y0572710D03*
X0687430Y0585210D03*
X0683680Y0586460D03*
X0728680Y0523960D03*
X0747430Y0497710D03*
X0724930Y0495210D03*
X0698680Y0495210D03*
X0693680Y0491460D03*
X0689930Y0495210D03*
X0682430Y0495210D03*
X0714930Y0470210D03*
X0749930Y0470210D03*
X0757430Y0470210D03*
X0762430Y0472710D03*
X0772430Y0473960D03*
X0779930Y0465210D03*
X0784930Y0460210D03*
X0779930Y0455210D03*
X0774930Y0460210D03*
X0767430Y0457710D03*
X0749930Y0457710D03*
X0712430Y0430210D03*
X0712430Y0421460D03*
X0789930Y0440210D03*
X0817430Y0430210D03*
X0822430Y0437710D03*
X0822430Y0443960D03*
X0827430Y0443960D03*
X0827430Y0453960D03*
X0822430Y0453960D03*
X0818680Y0465210D03*
X0792430Y0463960D03*
X0827430Y0493960D03*
X0836630Y0488160D03*
X0841180Y0485210D03*
X0844930Y0482710D03*
X0848680Y0480210D03*
X0856180Y0468960D03*
X0856180Y0460210D03*
X0837430Y0430210D03*
X0867430Y0422710D03*
X0808680Y0496460D03*
X0812430Y0498960D03*
X0816180Y0501460D03*
X0819930Y0503960D03*
X0836630Y0523510D03*
X0828680Y0523960D03*
X0841100Y0530290D03*
X0844200Y0533440D03*
X0847300Y0536590D03*
X0841180Y0557710D03*
X0841180Y0562710D03*
X0843680Y0570210D03*
X0888680Y0567710D03*
X0888680Y0552710D03*
X0854930Y0617710D03*
X0849930Y0623960D03*
X0829930Y0621460D03*
X0824930Y0623960D03*
X0816180Y0627710D03*
X0808680Y0623960D03*
D57*
X0804930Y0620210D01*
X0804930Y0607710D01*
X0799930Y0602710D01*
X0803680Y0600210D02*
X0806180Y0602710D01*
X0814930Y0602710D01*
X0817430Y0605210D01*
X0817430Y0623960D01*
X0822430Y0628960D01*
X0836180Y0628960D01*
X0839930Y0632710D01*
X0849930Y0632710D02*
X0849930Y0623960D01*
X0854930Y0627710D02*
X0859930Y0632710D01*
X0854930Y0627710D02*
X0854930Y0617710D01*
X0861180Y0607710D02*
X0861180Y0585210D01*
X0866180Y0585210D02*
X0866180Y0603960D01*
X0871180Y0600210D02*
X0871180Y0584950D01*
X0852430Y0578960D02*
X0852430Y0597710D01*
X0867430Y0612710D02*
X0867430Y0630210D01*
X0869930Y0632710D01*
X0829930Y0621460D02*
X0829930Y0577710D01*
X0826600Y0574380D02*
X0824930Y0572710D01*
X0824930Y0546460D01*
X0821180Y0543960D02*
X0823680Y0541460D01*
X0821180Y0538960D02*
X0818680Y0541460D01*
X0818680Y0590210D01*
X0816180Y0588960D02*
X0814930Y0590210D01*
X0814930Y0592710D01*
X0816180Y0588960D02*
X0816180Y0541460D01*
X0817430Y0540210D01*
X0817430Y0537710D01*
X0821180Y0538960D02*
X0821180Y0535210D01*
X0813680Y0540210D02*
X0813680Y0588960D01*
X0811180Y0591460D01*
X0811180Y0595210D01*
X0807430Y0597710D02*
X0809930Y0600210D01*
X0816180Y0600210D01*
X0821180Y0605210D01*
X0821180Y0620210D01*
X0824930Y0623960D01*
X0816180Y0627710D02*
X0807430Y0627710D01*
X0799930Y0620210D01*
X0799930Y0607710D01*
X0794930Y0602710D01*
X0807430Y0588960D02*
X0768680Y0588960D01*
X0764930Y0585210D01*
X0762430Y0588960D02*
X0762430Y0595210D01*
X0767430Y0595210D02*
X0767430Y0592710D01*
X0767430Y0612710D01*
X0769930Y0615210D01*
X0769930Y0622710D01*
X0779930Y0632710D01*
X0778680Y0627710D02*
X0794930Y0627710D01*
X0799930Y0632710D01*
X0778680Y0627710D02*
X0773680Y0622710D01*
X0773680Y0602710D01*
X0762430Y0600210D02*
X0762430Y0607710D01*
X0761180Y0611460D02*
X0761180Y0623960D01*
X0769930Y0632710D01*
X0759930Y0632710D02*
X0758680Y0633960D01*
X0732430Y0633960D01*
X0722430Y0623960D01*
X0722430Y0597710D01*
X0724930Y0595210D01*
X0729930Y0595210D02*
X0732430Y0597710D01*
X0732430Y0607710D01*
X0737430Y0612710D01*
X0737430Y0622710D01*
X0732430Y0622710D02*
X0732430Y0612710D01*
X0739930Y0606460D02*
X0742430Y0608960D01*
X0742430Y0617710D01*
X0754930Y0617710D02*
X0754930Y0607710D01*
X0758680Y0608960D02*
X0761180Y0611460D01*
X0758680Y0608960D02*
X0758680Y0598960D01*
X0749930Y0590210D01*
X0749930Y0550210D01*
X0747430Y0547710D01*
X0752430Y0545210D02*
X0752430Y0590210D01*
X0762430Y0600210D01*
X0757430Y0590210D02*
X0757430Y0577710D01*
X0767430Y0567710D01*
X0801180Y0567710D01*
X0802430Y0568960D01*
X0798680Y0570210D02*
X0802430Y0573960D01*
X0798680Y0570210D02*
X0769930Y0570210D01*
X0759930Y0580210D01*
X0759930Y0586460D01*
X0762430Y0588960D01*
X0769930Y0585210D02*
X0803680Y0585210D01*
X0799930Y0581460D02*
X0771180Y0581460D01*
X0769930Y0580210D01*
X0772430Y0577710D02*
X0789930Y0577710D01*
X0782430Y0562710D02*
X0767430Y0562710D01*
X0764930Y0560210D01*
X0764930Y0537710D01*
X0767430Y0535210D01*
X0762430Y0528960D02*
X0767430Y0523960D01*
X0767430Y0515210D01*
X0772430Y0510210D01*
X0772430Y0473960D01*
X0769930Y0476460D02*
X0767430Y0473960D01*
X0767430Y0457710D01*
X0774930Y0460210D02*
X0774930Y0465210D01*
X0787430Y0477710D01*
X0787430Y0505210D01*
X0792430Y0510210D01*
X0792430Y0523960D01*
X0797430Y0525210D02*
X0797430Y0512710D01*
X0789930Y0505210D01*
X0789930Y0475210D01*
X0779930Y0465210D01*
X0779930Y0460210D02*
X0786180Y0466460D01*
X0786180Y0467710D01*
X0792430Y0473960D01*
X0792430Y0505210D01*
X0799930Y0512710D01*
X0799930Y0522710D01*
X0801180Y0523960D01*
X0801180Y0527710D01*
X0804930Y0525210D02*
X0802430Y0522710D01*
X0802430Y0512710D01*
X0794930Y0505210D01*
X0794930Y0472710D01*
X0788680Y0466460D01*
X0788680Y0463960D01*
X0784930Y0460210D01*
X0779930Y0460210D02*
X0779930Y0455210D01*
X0762430Y0472710D02*
X0764930Y0475210D01*
X0764930Y0510210D01*
X0764930Y0515210D02*
X0769930Y0510210D01*
X0769930Y0476460D01*
X0734930Y0491460D02*
X0727430Y0483960D01*
X0717430Y0483960D01*
X0709930Y0476460D01*
X0709930Y0465210D01*
X0704930Y0460210D02*
X0709930Y0455210D01*
X0704930Y0460210D02*
X0704930Y0477710D01*
X0716180Y0488960D01*
X0723680Y0488960D01*
X0732430Y0497710D01*
X0732430Y0525210D01*
X0727430Y0530210D01*
X0727430Y0532710D01*
X0723680Y0535210D02*
X0723680Y0498960D01*
X0699930Y0475210D01*
X0699930Y0465210D01*
X0694930Y0460210D02*
X0699930Y0455210D01*
X0694930Y0460210D02*
X0694930Y0472710D01*
X0721180Y0498960D01*
X0721180Y0532710D01*
X0719930Y0533960D01*
X0719930Y0537710D01*
X0716180Y0535210D02*
X0716180Y0540210D01*
X0712430Y0542710D02*
X0712430Y0536460D01*
X0716180Y0532710D01*
X0716180Y0498960D01*
X0684930Y0467710D01*
X0684930Y0460210D01*
X0689930Y0455210D01*
X0689930Y0465210D02*
X0689930Y0470210D01*
X0718680Y0498960D01*
X0718680Y0532710D01*
X0716180Y0535210D01*
X0713680Y0530210D02*
X0708680Y0535210D01*
X0704930Y0532710D02*
X0711180Y0526460D01*
X0711180Y0498960D01*
X0682430Y0470210D01*
X0677430Y0470210D01*
X0674930Y0467710D01*
X0674930Y0460210D01*
X0679930Y0455210D01*
X0679930Y0465210D02*
X0713680Y0498960D01*
X0713680Y0530210D01*
X0703680Y0526460D02*
X0686180Y0508960D01*
X0686180Y0490210D01*
X0669930Y0473960D01*
X0669930Y0465210D01*
X0693680Y0491460D02*
X0693680Y0511460D01*
X0699930Y0537710D02*
X0697430Y0540210D01*
X0697430Y0595210D01*
X0669930Y0622710D01*
X0679930Y0622710D02*
X0679930Y0615210D01*
X0699930Y0595210D01*
X0699930Y0545210D01*
X0702430Y0542710D01*
X0704930Y0547710D02*
X0702430Y0550210D01*
X0702430Y0607710D01*
X0689930Y0620210D01*
X0689930Y0622710D01*
X0699930Y0622710D02*
X0704930Y0617710D01*
X0704930Y0555210D01*
X0707430Y0552710D01*
X0732430Y0530210D02*
X0734930Y0527710D01*
X0734930Y0491460D01*
X0764930Y0515210D02*
X0764930Y0521460D01*
X0762430Y0523960D01*
X0762430Y0528960D02*
X0762430Y0562710D01*
X0769930Y0555210D02*
X0782430Y0555210D01*
X0784930Y0552710D01*
X0784930Y0518960D01*
X0788680Y0515210D01*
X0808680Y0501460D02*
X0808680Y0496460D01*
X0812430Y0498960D02*
X0812430Y0502710D01*
X0814930Y0505210D01*
X0814930Y0525210D01*
X0803680Y0536460D01*
X0803680Y0558960D01*
X0807430Y0556460D02*
X0806180Y0555210D01*
X0806180Y0536460D01*
X0817430Y0525210D01*
X0817430Y0505210D01*
X0816180Y0503960D01*
X0816180Y0501460D01*
X0812430Y0505210D02*
X0808680Y0501460D01*
X0812430Y0505210D02*
X0812430Y0525210D01*
X0801180Y0536460D01*
X0801180Y0555210D01*
X0799930Y0556460D01*
X0807430Y0556460D02*
X0807430Y0561460D01*
X0811180Y0555210D02*
X0809930Y0553960D01*
X0811180Y0555210D02*
X0811180Y0571460D01*
X0809930Y0572710D01*
X0809930Y0573510D01*
X0821180Y0587710D02*
X0824930Y0591460D01*
X0821180Y0587710D02*
X0821180Y0543960D01*
X0809930Y0542710D02*
X0809930Y0535210D01*
X0819930Y0525210D01*
X0819930Y0503960D01*
X0827430Y0493960D02*
X0827430Y0522710D01*
X0828680Y0523960D01*
X0836630Y0523510D02*
X0836630Y0488160D01*
X0838680Y0491460D02*
X0841100Y0489040D01*
X0841100Y0485290D01*
X0841180Y0485210D01*
X0844930Y0487710D02*
X0844930Y0482710D01*
X0848680Y0480210D02*
X0848680Y0487710D01*
X0844930Y0491460D01*
X0844930Y0521460D01*
X0848680Y0525210D01*
X0848680Y0535210D01*
X0847300Y0536590D01*
X0844200Y0533440D02*
X0844930Y0532710D01*
X0844930Y0525210D01*
X0841180Y0521460D01*
X0841180Y0491460D01*
X0844930Y0487710D01*
X0838680Y0491460D02*
X0838680Y0521460D01*
X0841180Y0523960D01*
X0841100Y0530290D01*
X0843680Y0570210D02*
X0852430Y0578960D01*
X0772430Y0577710D02*
X0769930Y0575210D01*
X0744930Y0560210D02*
X0739930Y0565210D01*
X0739930Y0606460D01*
X0717430Y0595210D02*
X0717430Y0625210D01*
X0709930Y0632710D01*
X0707430Y0625210D02*
X0699930Y0632710D01*
X0707430Y0625210D02*
X0707430Y0597710D01*
X0709930Y0595210D01*
X0712430Y0595210D01*
D48*
X0712430Y0618960D03*
D39*
X0867430Y0612710D02*
X0897430Y0582710D01*
X0897430Y0458960D01*
X0889930Y0451460D01*
X0889930Y0425210D01*
X0883680Y0418960D01*
X0756180Y0418960D01*
X0749930Y0425210D01*
X0749930Y0430210D01*
X0507440Y0739460D02*
G75*
%LPD*%
D92*
X0592440Y0753460D03*
X0592440Y0763460D03*
X0542440Y0945960D03*
X0542440Y0955960D03*
X0552440Y0955960D03*
X0562440Y0955960D03*
X0532440Y0955960D03*
X0532440Y0945960D03*
X0522440Y0945960D03*
X0522440Y0955960D03*
X0512440Y0955960D03*
X0602440Y0955960D03*
X0612440Y0955960D03*
X0622440Y0955960D03*
X0632440Y0955960D03*
X0642440Y0955960D03*
X0652440Y0955960D03*
X0682440Y0955960D03*
X0692440Y0955960D03*
X0702440Y0955960D03*
X0712440Y0955960D03*
X0722440Y0955960D03*
D102*
X0512440Y0778460D03*
X0522440Y0778460D03*
X0532440Y0778460D03*
X0542440Y0778460D03*
X0552440Y0778460D03*
X0552440Y0788460D03*
X0542440Y0788460D03*
X0532440Y0788460D03*
X0522440Y0788460D03*
X0512440Y0788460D03*
D38*
X0562440Y0763460D03*
X0602440Y0753460D03*
X0622440Y0763460D03*
X0717440Y0763460D03*
X0717440Y0753460D03*
D82*
X0727440Y0753460D03*
X0737440Y0753460D03*
X0737440Y0763460D03*
X0727440Y0763460D03*
X0622440Y0753460D03*
X0612440Y0753460D03*
X0612440Y0763460D03*
X0602440Y0763460D03*
X0582440Y0763460D03*
X0572440Y0763460D03*
D44*
X0512440Y0945960D03*
D86*
X0738250Y0956150D03*
X0738250Y0923270D03*
D69*
X0725950Y0930950D02*
X0721590Y0930950D01*
X0721590Y0948470D02*
X0725950Y0948470D01*
D51*
X0709940Y0935960D03*
X0703690Y0930960D03*
X0708690Y0927210D03*
X0713690Y0923460D03*
X0713690Y0908200D03*
X0708690Y0908460D03*
X0703690Y0908460D03*
X0694940Y0920960D03*
X0672440Y0900960D03*
X0669110Y0897630D03*
X0652440Y0896760D03*
X0644940Y0897210D03*
X0644940Y0892210D03*
X0639940Y0897210D03*
X0632440Y0900960D03*
X0624940Y0897210D03*
X0624940Y0885960D03*
X0612440Y0878460D03*
X0612440Y0873460D03*
X0612440Y0868460D03*
X0609940Y0858460D03*
X0604940Y0847210D03*
X0594940Y0847210D03*
X0607440Y0833460D03*
X0614940Y0838460D03*
X0629940Y0833460D03*
X0631190Y0838460D03*
X0634940Y0847210D03*
X0639940Y0848460D03*
X0643690Y0850960D03*
X0647440Y0848460D03*
X0659940Y0860960D03*
X0663690Y0858460D03*
X0666190Y0864710D03*
X0667440Y0869710D03*
X0656190Y0863460D03*
X0652440Y0865960D03*
X0652440Y0877210D03*
X0646190Y0882210D03*
X0649940Y0884710D03*
X0642440Y0879710D03*
X0642440Y0904710D03*
X0646190Y0908460D03*
X0649940Y0912210D03*
X0653690Y0918460D03*
X0657440Y0915960D03*
X0661190Y0913460D03*
X0667440Y0914710D03*
X0649940Y0920960D03*
X0646190Y0923460D03*
X0642440Y0925960D03*
X0637440Y0925960D03*
X0636190Y0920960D03*
X0624940Y0920960D03*
X0619940Y0920960D03*
X0616190Y0925960D03*
X0604940Y0930960D03*
X0597440Y0930960D03*
X0597440Y0940960D03*
X0584940Y0940960D03*
X0579940Y0945960D03*
X0574940Y0945960D03*
X0569940Y0942210D03*
X0569940Y0935960D03*
X0574940Y0935960D03*
X0577440Y0953460D03*
X0554940Y0935960D03*
X0542440Y0938460D03*
X0532440Y0933460D03*
X0554940Y0918460D03*
X0559940Y0918460D03*
X0567440Y0918460D03*
X0572440Y0918460D03*
X0586190Y0919710D03*
X0592440Y0919710D03*
X0599940Y0913460D03*
X0604940Y0918460D03*
X0609940Y0915960D03*
X0612440Y0908460D03*
X0612440Y0903460D03*
X0612440Y0898460D03*
X0607440Y0908460D03*
X0604940Y0885960D03*
X0587440Y0883460D03*
X0589940Y0870960D03*
X0594940Y0868460D03*
X0574940Y0853460D03*
X0569940Y0855960D03*
X0566190Y0858460D03*
X0562440Y0860960D03*
X0558690Y0863460D03*
X0554940Y0865960D03*
X0547440Y0870960D03*
X0549940Y0875960D03*
X0544940Y0865960D03*
X0542440Y0860960D03*
X0547440Y0855960D03*
X0551190Y0858460D03*
X0546190Y0849710D03*
X0544940Y0833460D03*
X0549940Y0833460D03*
X0536190Y0834710D03*
X0526190Y0837210D03*
X0526190Y0853460D03*
X0526190Y0868460D03*
X0527440Y0880960D03*
X0527440Y0895960D03*
X0529940Y0908460D03*
X0526190Y0909710D03*
X0571190Y0847210D03*
X0589940Y0820960D03*
X0567440Y0818460D03*
X0541190Y0818460D03*
X0536190Y0814710D03*
X0532440Y0818460D03*
X0524940Y0818460D03*
X0557440Y0793460D03*
X0592440Y0793460D03*
X0599940Y0793460D03*
X0604940Y0795960D03*
X0614940Y0797210D03*
X0622440Y0788460D03*
X0627440Y0783460D03*
X0622440Y0778460D03*
X0617440Y0783460D03*
X0609940Y0780960D03*
X0592440Y0780960D03*
X0554940Y0753460D03*
X0554940Y0744710D03*
X0632440Y0763460D03*
X0659940Y0753460D03*
X0664940Y0760960D03*
X0664940Y0767210D03*
X0669940Y0767210D03*
X0669940Y0777210D03*
X0664940Y0777210D03*
X0661190Y0788460D03*
X0634940Y0787210D03*
X0669940Y0817210D03*
X0679140Y0811410D03*
X0683690Y0808460D03*
X0687440Y0805960D03*
X0691190Y0803460D03*
X0698690Y0792210D03*
X0698690Y0783460D03*
X0679940Y0753460D03*
X0709940Y0745960D03*
X0651190Y0819710D03*
X0654940Y0822210D03*
X0658690Y0824710D03*
X0662440Y0827210D03*
X0679140Y0846760D03*
X0671190Y0847210D03*
X0683610Y0853540D03*
X0686710Y0856690D03*
X0689810Y0859840D03*
X0683690Y0880960D03*
X0683690Y0885960D03*
X0686190Y0893460D03*
X0731190Y0890960D03*
X0731190Y0875960D03*
X0697440Y0940960D03*
X0692440Y0947210D03*
X0672440Y0944710D03*
X0667440Y0947210D03*
X0658690Y0950960D03*
X0651190Y0947210D03*
D57*
X0647440Y0943460D01*
X0647440Y0930960D01*
X0642440Y0925960D01*
X0646190Y0923460D02*
X0648690Y0925960D01*
X0657440Y0925960D01*
X0659940Y0928460D01*
X0659940Y0947210D01*
X0664940Y0952210D01*
X0678690Y0952210D01*
X0682440Y0955960D01*
X0692440Y0955960D02*
X0692440Y0947210D01*
X0697440Y0950960D02*
X0702440Y0955960D01*
X0697440Y0950960D02*
X0697440Y0940960D01*
X0703690Y0930960D02*
X0703690Y0908460D01*
X0708690Y0908460D02*
X0708690Y0927210D01*
X0713690Y0923460D02*
X0713690Y0908200D01*
X0694940Y0902210D02*
X0694940Y0920960D01*
X0709940Y0935960D02*
X0709940Y0953460D01*
X0712440Y0955960D01*
X0672440Y0944710D02*
X0672440Y0900960D01*
X0669110Y0897630D02*
X0667440Y0895960D01*
X0667440Y0869710D01*
X0663690Y0867210D02*
X0666190Y0864710D01*
X0663690Y0862210D02*
X0661190Y0864710D01*
X0661190Y0913460D01*
X0658690Y0912210D02*
X0657440Y0913460D01*
X0657440Y0915960D01*
X0658690Y0912210D02*
X0658690Y0864710D01*
X0659940Y0863460D01*
X0659940Y0860960D01*
X0663690Y0862210D02*
X0663690Y0858460D01*
X0656190Y0863460D02*
X0656190Y0912210D01*
X0653690Y0914710D01*
X0653690Y0918460D01*
X0649940Y0920960D02*
X0652440Y0923460D01*
X0658690Y0923460D01*
X0663690Y0928460D01*
X0663690Y0943460D01*
X0667440Y0947210D01*
X0658690Y0950960D02*
X0649940Y0950960D01*
X0642440Y0943460D01*
X0642440Y0930960D01*
X0637440Y0925960D01*
X0649940Y0912210D02*
X0611190Y0912210D01*
X0607440Y0908460D01*
X0604940Y0912210D02*
X0604940Y0918460D01*
X0609940Y0918460D02*
X0609940Y0915960D01*
X0609940Y0935960D01*
X0612440Y0938460D01*
X0612440Y0945960D01*
X0622440Y0955960D01*
X0621190Y0950960D02*
X0637440Y0950960D01*
X0642440Y0955960D01*
X0621190Y0950960D02*
X0616190Y0945960D01*
X0616190Y0925960D01*
X0604940Y0923460D02*
X0604940Y0930960D01*
X0603690Y0934710D02*
X0603690Y0947210D01*
X0612440Y0955960D01*
X0602440Y0955960D02*
X0601190Y0957210D01*
X0574940Y0957210D01*
X0564940Y0947210D01*
X0564940Y0920960D01*
X0567440Y0918460D01*
X0572440Y0918460D02*
X0574940Y0920960D01*
X0574940Y0930960D01*
X0579940Y0935960D01*
X0579940Y0945960D01*
X0574940Y0945960D02*
X0574940Y0935960D01*
X0582440Y0929710D02*
X0584940Y0932210D01*
X0584940Y0940960D01*
X0597440Y0940960D02*
X0597440Y0930960D01*
X0601190Y0932210D02*
X0603690Y0934710D01*
X0601190Y0932210D02*
X0601190Y0922210D01*
X0592440Y0913460D01*
X0592440Y0873460D01*
X0589940Y0870960D01*
X0594940Y0868460D02*
X0594940Y0913460D01*
X0604940Y0923460D01*
X0599940Y0913460D02*
X0599940Y0900960D01*
X0609940Y0890960D01*
X0643690Y0890960D01*
X0644940Y0892210D01*
X0641190Y0893460D02*
X0644940Y0897210D01*
X0641190Y0893460D02*
X0612440Y0893460D01*
X0602440Y0903460D01*
X0602440Y0909710D01*
X0604940Y0912210D01*
X0612440Y0908460D02*
X0646190Y0908460D01*
X0642440Y0904710D02*
X0613690Y0904710D01*
X0612440Y0903460D01*
X0614940Y0900960D02*
X0632440Y0900960D01*
X0624940Y0885960D02*
X0609940Y0885960D01*
X0607440Y0883460D01*
X0607440Y0860960D01*
X0609940Y0858460D01*
X0604940Y0852210D02*
X0609940Y0847210D01*
X0609940Y0838460D01*
X0614940Y0833460D01*
X0614940Y0797210D01*
X0612440Y0799710D02*
X0609940Y0797210D01*
X0609940Y0780960D01*
X0617440Y0783460D02*
X0617440Y0788460D01*
X0629940Y0800960D01*
X0629940Y0828460D01*
X0634940Y0833460D01*
X0634940Y0847210D01*
X0639940Y0848460D02*
X0639940Y0835960D01*
X0632440Y0828460D01*
X0632440Y0798460D01*
X0622440Y0788460D01*
X0622440Y0783460D02*
X0628690Y0789710D01*
X0628690Y0790960D01*
X0634940Y0797210D01*
X0634940Y0828460D01*
X0642440Y0835960D01*
X0642440Y0845960D01*
X0643690Y0847210D01*
X0643690Y0850960D01*
X0647440Y0848460D02*
X0644940Y0845960D01*
X0644940Y0835960D01*
X0637440Y0828460D01*
X0637440Y0795960D01*
X0631190Y0789710D01*
X0631190Y0787210D01*
X0627440Y0783460D01*
X0622440Y0783460D02*
X0622440Y0778460D01*
X0604940Y0795960D02*
X0607440Y0798460D01*
X0607440Y0833460D01*
X0607440Y0838460D02*
X0612440Y0833460D01*
X0612440Y0799710D01*
X0577440Y0814710D02*
X0569940Y0807210D01*
X0559940Y0807210D01*
X0552440Y0799710D01*
X0552440Y0788460D01*
X0547440Y0783460D02*
X0552440Y0778460D01*
X0547440Y0783460D02*
X0547440Y0800960D01*
X0558690Y0812210D01*
X0566190Y0812210D01*
X0574940Y0820960D01*
X0574940Y0848460D01*
X0569940Y0853460D01*
X0569940Y0855960D01*
X0566190Y0858460D02*
X0566190Y0822210D01*
X0542440Y0798460D01*
X0542440Y0788460D01*
X0537440Y0783460D02*
X0542440Y0778460D01*
X0537440Y0783460D02*
X0537440Y0795960D01*
X0563690Y0822210D01*
X0563690Y0855960D01*
X0562440Y0857210D01*
X0562440Y0860960D01*
X0558690Y0858460D02*
X0558690Y0863460D01*
X0554940Y0865960D02*
X0554940Y0859710D01*
X0558690Y0855960D01*
X0558690Y0822210D01*
X0527440Y0790960D01*
X0527440Y0783460D01*
X0532440Y0778460D01*
X0532440Y0788460D02*
X0532440Y0793460D01*
X0561190Y0822210D01*
X0561190Y0855960D01*
X0558690Y0858460D01*
X0556190Y0853460D02*
X0551190Y0858460D01*
X0547440Y0855960D02*
X0553690Y0849710D01*
X0553690Y0822210D01*
X0524940Y0793460D01*
X0519940Y0793460D01*
X0517440Y0790960D01*
X0517440Y0783460D01*
X0522440Y0778460D01*
X0522440Y0788460D02*
X0556190Y0822210D01*
X0556190Y0853460D01*
X0546190Y0849710D02*
X0528690Y0832210D01*
X0528690Y0813460D01*
X0512440Y0797210D01*
X0512440Y0788460D01*
X0536190Y0814710D02*
X0536190Y0834710D01*
X0542440Y0860960D02*
X0539940Y0863460D01*
X0539940Y0918460D01*
X0512440Y0945960D01*
X0522440Y0945960D02*
X0522440Y0938460D01*
X0542440Y0918460D01*
X0542440Y0868460D01*
X0544940Y0865960D01*
X0547440Y0870960D02*
X0544940Y0873460D01*
X0544940Y0930960D01*
X0532440Y0943460D01*
X0532440Y0945960D01*
X0542440Y0945960D02*
X0547440Y0940960D01*
X0547440Y0878460D01*
X0549940Y0875960D01*
X0574940Y0853460D02*
X0577440Y0850960D01*
X0577440Y0814710D01*
X0607440Y0838460D02*
X0607440Y0844710D01*
X0604940Y0847210D01*
X0604940Y0852210D02*
X0604940Y0885960D01*
X0612440Y0878460D02*
X0624940Y0878460D01*
X0627440Y0875960D01*
X0627440Y0842210D01*
X0631190Y0838460D01*
X0651190Y0824710D02*
X0651190Y0819710D01*
X0654940Y0822210D02*
X0654940Y0825960D01*
X0657440Y0828460D01*
X0657440Y0848460D01*
X0646190Y0859710D01*
X0646190Y0882210D01*
X0649940Y0879710D02*
X0648690Y0878460D01*
X0648690Y0859710D01*
X0659940Y0848460D01*
X0659940Y0828460D01*
X0658690Y0827210D01*
X0658690Y0824710D01*
X0654940Y0828460D02*
X0651190Y0824710D01*
X0654940Y0828460D02*
X0654940Y0848460D01*
X0643690Y0859710D01*
X0643690Y0878460D01*
X0642440Y0879710D01*
X0649940Y0879710D02*
X0649940Y0884710D01*
X0653690Y0878460D02*
X0652440Y0877210D01*
X0653690Y0878460D02*
X0653690Y0894710D01*
X0652440Y0895960D01*
X0652440Y0896760D01*
X0663690Y0910960D02*
X0667440Y0914710D01*
X0663690Y0910960D02*
X0663690Y0867210D01*
X0652440Y0865960D02*
X0652440Y0858460D01*
X0662440Y0848460D01*
X0662440Y0827210D01*
X0669940Y0817210D02*
X0669940Y0845960D01*
X0671190Y0847210D01*
X0679140Y0846760D02*
X0679140Y0811410D01*
X0681190Y0814710D02*
X0683610Y0812290D01*
X0683610Y0808540D01*
X0683690Y0808460D01*
X0687440Y0810960D02*
X0687440Y0805960D01*
X0691190Y0803460D02*
X0691190Y0810960D01*
X0687440Y0814710D01*
X0687440Y0844710D01*
X0691190Y0848460D01*
X0691190Y0858460D01*
X0689810Y0859840D01*
X0686710Y0856690D02*
X0687440Y0855960D01*
X0687440Y0848460D01*
X0683690Y0844710D01*
X0683690Y0814710D01*
X0687440Y0810960D01*
X0681190Y0814710D02*
X0681190Y0844710D01*
X0683690Y0847210D01*
X0683610Y0853540D01*
X0686190Y0893460D02*
X0694940Y0902210D01*
X0614940Y0900960D02*
X0612440Y0898460D01*
X0587440Y0883460D02*
X0582440Y0888460D01*
X0582440Y0929710D01*
X0559940Y0918460D02*
X0559940Y0948460D01*
X0552440Y0955960D01*
X0549940Y0948460D02*
X0542440Y0955960D01*
X0549940Y0948460D02*
X0549940Y0920960D01*
X0552440Y0918460D01*
X0554940Y0918460D01*
D48*
X0554940Y0942210D03*
D39*
X0709940Y0935960D02*
X0739940Y0905960D01*
X0739940Y0782210D01*
X0732440Y0774710D01*
X0732440Y0748460D01*
X0726190Y0742210D01*
X0598690Y0742210D01*
X0592440Y0748460D01*
X0592440Y0753460D01*
X1213750Y0656500D02*
G75*
%LPD*%
D65*
X1250760Y0898220D03*
X1260610Y0898220D03*
X1270450Y0898220D03*
X1350760Y0898220D03*
X1360610Y0898220D03*
X1370450Y0898220D03*
X1450760Y0898220D03*
X1460610Y0898220D03*
X1470450Y0898220D03*
X1550760Y0898220D03*
X1560610Y0898220D03*
X1570450Y0898220D03*
D49*
X1578320Y0927750D03*
X1542890Y0927750D03*
X1478320Y0927750D03*
X1442890Y0927750D03*
X1378320Y0927750D03*
X1342890Y0927750D03*
X1278320Y0927750D03*
X1242890Y0927750D03*
D92*
X1304360Y0926500D03*
X1304360Y0936500D03*
X1304360Y0946500D03*
X1304360Y0916500D03*
X1304360Y0906500D03*
X1304360Y0876500D03*
X1304360Y0866500D03*
X1304360Y0856500D03*
X1304360Y0846500D03*
X1304360Y0836500D03*
X1304360Y0826500D03*
X1304360Y0786500D03*
X1304360Y0776500D03*
X1304360Y0766500D03*
X1314360Y0766500D03*
X1314360Y0756500D03*
X1314360Y0746500D03*
X1304360Y0746500D03*
X1304360Y0736500D03*
X1304360Y0756500D03*
X1364360Y0736500D03*
X1374360Y0736500D03*
X1384360Y0736500D03*
X1394360Y0736500D03*
X1404360Y0736500D03*
X1414360Y0736500D03*
X1424360Y0736500D03*
X1434360Y0736500D03*
X1444360Y0736500D03*
X1454360Y0736500D03*
X1494360Y0786500D03*
X1494360Y0796500D03*
X1494360Y0806500D03*
X1494360Y0816500D03*
X1504360Y0816500D03*
X1426860Y0919000D03*
X1406860Y0919000D03*
X1451860Y0959000D03*
X1461860Y0959000D03*
D74*
X1389360Y0959000D03*
X1389360Y0919000D03*
D38*
X1494360Y0961500D03*
X1504360Y0941500D03*
X1504360Y0826500D03*
X1494360Y0826500D03*
D82*
X1494360Y0836500D03*
X1504360Y0836500D03*
X1504360Y0846500D03*
X1494360Y0846500D03*
X1494360Y0941500D03*
X1494360Y0951500D03*
X1504360Y0951500D03*
X1504360Y0961500D03*
D76*
X1475610Y0882750D03*
X1475610Y0872750D03*
X1475610Y0862750D03*
X1475610Y0852750D03*
X1475610Y0842750D03*
X1445610Y0842750D03*
X1445610Y0852750D03*
X1445610Y0862750D03*
X1445610Y0872750D03*
X1445610Y0882750D03*
X1434360Y0829000D03*
X1434360Y0799000D03*
X1430610Y0787750D03*
X1440610Y0787750D03*
X1450610Y0787750D03*
X1450610Y0757750D03*
X1440610Y0757750D03*
X1430610Y0757750D03*
X1405610Y0762750D03*
X1395610Y0757750D03*
X1385610Y0757750D03*
X1375610Y0757750D03*
X1345610Y0762750D03*
X1335610Y0762750D03*
X1335610Y0782750D03*
X1345610Y0782750D03*
X1375610Y0787750D03*
X1385610Y0787750D03*
X1395610Y0787750D03*
X1405610Y0782750D03*
X1355610Y0827750D03*
X1355610Y0837750D03*
X1355610Y0847750D03*
X1325610Y0847750D03*
X1325610Y0837750D03*
X1325610Y0827750D03*
X1329360Y0902750D03*
X1320610Y0902750D03*
X1320610Y0932750D03*
X1329360Y0932750D03*
X1495610Y0775250D03*
X1500610Y0767750D03*
X1490610Y0767750D03*
X1495610Y0750250D03*
X1500610Y0742750D03*
X1490610Y0742750D03*
D95*
X1475610Y0802750D03*
X1450610Y0817750D03*
X1370610Y0802750D03*
X1340610Y0802750D03*
X1370610Y0832750D03*
X1370610Y0862750D03*
X1340610Y0862750D03*
D70*
X1340610Y0872750D03*
X1370610Y0872750D03*
X1370610Y0842750D03*
X1370610Y0812750D03*
X1340610Y0812750D03*
X1450610Y0827750D03*
X1475610Y0812750D03*
D79*
X1425610Y0862750D03*
X1425610Y0872750D03*
X1425610Y0882750D03*
X1425610Y0892750D03*
X1395610Y0892750D03*
X1395610Y0882750D03*
X1395610Y0872750D03*
X1395610Y0862750D03*
D35*
X1420610Y0795250D03*
X1420610Y0750250D03*
X1360610Y0750250D03*
X1360610Y0795250D03*
D29*
X1415610Y0932560D03*
X1434110Y0944370D03*
X1415610Y0956190D03*
D102*
X1464360Y0776500D03*
X1474360Y0776500D03*
X1474360Y0766500D03*
X1464360Y0766500D03*
X1464360Y0756500D03*
X1474360Y0756500D03*
X1474360Y0746500D03*
X1464360Y0746500D03*
X1464360Y0736500D03*
X1474360Y0736500D03*
D24*
X1551230Y0743380D03*
X1551230Y0727440D03*
X1575920Y0727440D03*
X1575610Y0743370D03*
X1600920Y0743370D03*
X1600920Y0727440D03*
X1600920Y0663370D03*
X1575610Y0663370D03*
X1551230Y0663380D03*
X1551230Y0807440D03*
X1551230Y0823380D03*
X1575610Y0823370D03*
X1575920Y0807440D03*
X1600920Y0807440D03*
X1600920Y0823370D03*
X1600920Y0887440D03*
X1575920Y0887440D03*
X1551230Y0887440D03*
X1269980Y0887120D03*
X1245610Y0887130D03*
X1220290Y0887130D03*
X1220290Y0823060D03*
X1220290Y0807130D03*
X1245610Y0807130D03*
X1245290Y0823060D03*
X1269980Y0823060D03*
X1269980Y0807120D03*
X1269980Y0743060D03*
X1245290Y0743060D03*
X1220290Y0743060D03*
D44*
X1314360Y0736500D03*
D86*
X1306180Y0962230D03*
X1339050Y0962230D03*
D69*
X1331370Y0949930D02*
X1331370Y0945560D01*
X1313850Y0945560D02*
X1313850Y0949930D01*
D75*
X1317490Y0951200D03*
X1320050Y0951200D03*
X1322610Y0951200D03*
X1325170Y0951200D03*
X1327730Y0951200D03*
D37*
X1327140Y0962230D03*
X1318090Y0962230D03*
D79*
X1515610Y0780350D02*
X1515610Y0775150D01*
X1515610Y0740350D02*
X1515610Y0735150D01*
D91*
X1425610Y0807750D03*
X1395610Y0807750D03*
X1395610Y0847750D03*
X1425610Y0847750D03*
D26*
X1293110Y0730250D02*
X1280610Y0742750D01*
X1280610Y0796500D01*
X1269980Y0807120D01*
X1300610Y0807750D02*
X1269980Y0838380D01*
X1269980Y0887120D01*
X1288110Y0890250D02*
X1288110Y0905250D01*
X1320610Y0902750D02*
X1320610Y0926500D01*
X1320610Y0932750D02*
X1320050Y0933300D01*
X1320050Y0951200D01*
X1317490Y0951200D02*
X1317490Y0943390D01*
X1310610Y0936500D01*
X1304360Y0936500D01*
X1322610Y0939490D02*
X1329360Y0932750D01*
X1334360Y0934000D02*
X1334360Y0910250D01*
X1329360Y0916500D02*
X1329360Y0902750D01*
X1334360Y0934000D02*
X1325170Y0943180D01*
X1325170Y0951200D01*
X1322610Y0951200D02*
X1322610Y0939490D01*
X1331370Y0949930D02*
X1330090Y0951200D01*
X1327730Y0951200D01*
X1400610Y0941190D02*
X1400610Y0925250D01*
X1406860Y0919000D01*
X1410610Y0912750D02*
X1415610Y0917750D01*
X1410610Y0912750D02*
X1410610Y0882750D01*
X1410610Y0842750D01*
X1415610Y0832750D02*
X1415610Y0867750D01*
X1420610Y0872750D01*
X1425610Y0872750D01*
X1430610Y0887750D02*
X1425610Y0892750D01*
X1425610Y0917750D01*
X1426860Y0919000D01*
X1400610Y0941190D02*
X1415610Y0956190D01*
X1461860Y0959000D02*
X1461860Y0919000D01*
X1494360Y0941500D02*
X1494360Y0877750D01*
X1504360Y0889000D02*
X1504360Y0846500D01*
X1509360Y0821500D02*
X1509360Y0919000D01*
X1515610Y0912750D02*
X1515610Y0797750D01*
X1505610Y0787750D01*
X1495610Y0787750D01*
X1494360Y0786500D01*
X1500610Y0792750D01*
X1500610Y0810250D01*
X1494360Y0816500D01*
X1485610Y0812750D02*
X1475610Y0822750D01*
X1485610Y0812750D02*
X1485610Y0747750D01*
X1474360Y0736500D01*
X1456860Y0750250D02*
X1456860Y0781500D01*
X1450610Y0787750D02*
X1450610Y0817750D01*
X1468110Y0807750D02*
X1468110Y0801500D01*
X1474360Y0795250D01*
X1474360Y0776500D01*
X1495610Y0775250D02*
X1495610Y0757750D01*
X1500610Y0752750D01*
X1500610Y0742750D01*
X1515610Y0777750D02*
X1505610Y0787750D01*
X1504360Y0816500D02*
X1509360Y0821500D01*
X1475610Y0862750D02*
X1470610Y0867750D01*
X1470610Y0877750D01*
X1475610Y0882750D01*
X1430610Y0887750D02*
X1430610Y0837750D01*
X1395610Y0829000D02*
X1395610Y0847750D01*
X1388110Y0847750D02*
X1388110Y0805250D01*
X1395610Y0797750D01*
X1395610Y0787750D01*
X1381860Y0805250D02*
X1381860Y0859000D01*
X1395610Y0872750D01*
X1370610Y0842750D02*
X1370610Y0832750D01*
X1325610Y0807750D02*
X1300610Y0807750D01*
X1395610Y0757750D02*
X1404360Y0749000D01*
X1404360Y0736500D01*
X1420610Y0750250D02*
X1424360Y0746500D01*
X1424360Y0736500D01*
X1444360Y0736500D02*
X1444360Y0754000D01*
X1440610Y0757750D01*
X1435610Y0766500D02*
X1435610Y0797750D01*
X1434360Y0799000D01*
X1454360Y0736500D02*
X1448110Y0730250D01*
X1293110Y0730250D01*
D61*
X1381860Y0805250D03*
X1395610Y0829000D03*
X1410610Y0842750D03*
X1415610Y0832750D03*
X1430610Y0837750D03*
X1468110Y0807750D03*
X1475610Y0822750D03*
X1456860Y0781500D03*
X1435610Y0766500D03*
X1456860Y0750250D03*
X1388110Y0847750D03*
X1410610Y0882750D03*
X1461860Y0919000D03*
X1504360Y0889000D03*
X1494360Y0877750D03*
X1515610Y0912750D03*
X1509360Y0919000D03*
X1334360Y0910250D03*
X1329360Y0916500D03*
X1320610Y0926500D03*
X1288110Y0905250D03*
X1288110Y0890250D03*
X1325610Y0807750D03*
D90*
X1415610Y0917750D03*
M02*
