G75*
G70*
%OFA0B0*%
%FSLAX25Y25*%
%IPPOS*%
%LPD*%
%AMOC8*
5,1,8,0,0,1.08239X$1,22.5*
%
%ADD113C,0.00100*%
%ADD80C,0.00000*%
X0010000Y0010000D02*
G75*
%LPD*%
D113*
X0010000Y0010000D02*
X0010000Y0306250D01*
X0016140Y0306250D01*
X0016140Y0328250D01*
X0409850Y0328250D01*
X0409850Y0306250D01*
X0416000Y0306250D01*
X0416000Y0010250D01*
X0283000Y0010250D01*
X0283000Y0091250D01*
X0143000Y0091250D01*
X0143000Y0010000D01*
X0010000Y0010000D01*
D80*
X0117750Y0022250D02*
X0117770Y0022750D01*
X0117830Y0023250D01*
X0117930Y0023750D01*
X0118060Y0024230D01*
X0118230Y0024710D01*
X0118440Y0025170D01*
X0118680Y0025610D01*
X0118960Y0026030D01*
X0119270Y0026430D01*
X0119610Y0026800D01*
X0119980Y0027150D01*
X0120370Y0027460D01*
X0120780Y0027750D01*
X0121220Y0028000D01*
X0121680Y0028220D01*
X0122150Y0028400D01*
X0122630Y0028540D01*
X0123120Y0028650D01*
X0123620Y0028720D01*
X0124120Y0028750D01*
X0124630Y0028740D01*
X0125130Y0028690D01*
X0125630Y0028600D01*
X0126110Y0028480D01*
X0126590Y0028310D01*
X0127050Y0028110D01*
X0127500Y0027880D01*
X0127930Y0027610D01*
X0128330Y0027310D01*
X0128710Y0026980D01*
X0129060Y0026620D01*
X0129390Y0026230D01*
X0129680Y0025820D01*
X0129940Y0025390D01*
X0130170Y0024940D01*
X0130360Y0024470D01*
X0130510Y0023990D01*
X0130630Y0023500D01*
X0130710Y0023000D01*
X0130750Y0022500D01*
X0130750Y0022000D01*
X0130710Y0021500D01*
X0130630Y0021000D01*
X0130510Y0020510D01*
X0130360Y0020030D01*
X0130170Y0019560D01*
X0129940Y0019110D01*
X0129680Y0018680D01*
X0129390Y0018270D01*
X0129060Y0017880D01*
X0128710Y0017520D01*
X0128330Y0017190D01*
X0127930Y0016890D01*
X0127500Y0016620D01*
X0127050Y0016390D01*
X0126590Y0016190D01*
X0126110Y0016020D01*
X0125630Y0015900D01*
X0125130Y0015810D01*
X0124630Y0015760D01*
X0124120Y0015750D01*
X0123620Y0015780D01*
X0123120Y0015850D01*
X0122630Y0015960D01*
X0122150Y0016100D01*
X0121680Y0016280D01*
X0121220Y0016500D01*
X0120780Y0016750D01*
X0120370Y0017040D01*
X0119980Y0017350D01*
X0119610Y0017700D01*
X0119270Y0018070D01*
X0118960Y0018470D01*
X0118680Y0018890D01*
X0118440Y0019330D01*
X0118230Y0019790D01*
X0118060Y0020270D01*
X0117930Y0020750D01*
X0117830Y0021250D01*
X0117770Y0021750D01*
X0117750Y0022250D01*
X0010000Y0345000D02*
G75*
%LPD*%
D113*
X0010000Y0345000D02*
X0010000Y0641250D01*
X0016140Y0641250D01*
X0016140Y0663250D01*
X0409850Y0663250D01*
X0409850Y0641250D01*
X0416000Y0641250D01*
X0416000Y0345250D01*
X0283000Y0345250D01*
X0283000Y0426250D01*
X0143000Y0426250D01*
X0143000Y0345000D01*
X0010000Y0345000D01*
D80*
X0117750Y0357250D02*
X0117770Y0357750D01*
X0117830Y0358250D01*
X0117930Y0358750D01*
X0118060Y0359230D01*
X0118230Y0359710D01*
X0118440Y0360170D01*
X0118680Y0360610D01*
X0118960Y0361030D01*
X0119270Y0361430D01*
X0119610Y0361800D01*
X0119980Y0362150D01*
X0120370Y0362460D01*
X0120780Y0362750D01*
X0121220Y0363000D01*
X0121680Y0363220D01*
X0122150Y0363400D01*
X0122630Y0363540D01*
X0123120Y0363650D01*
X0123620Y0363720D01*
X0124120Y0363750D01*
X0124630Y0363740D01*
X0125130Y0363690D01*
X0125630Y0363600D01*
X0126110Y0363480D01*
X0126590Y0363310D01*
X0127050Y0363110D01*
X0127500Y0362880D01*
X0127930Y0362610D01*
X0128330Y0362310D01*
X0128710Y0361980D01*
X0129060Y0361620D01*
X0129390Y0361230D01*
X0129680Y0360820D01*
X0129940Y0360390D01*
X0130170Y0359940D01*
X0130360Y0359470D01*
X0130510Y0358990D01*
X0130630Y0358500D01*
X0130710Y0358000D01*
X0130750Y0357500D01*
X0130750Y0357000D01*
X0130710Y0356500D01*
X0130630Y0356000D01*
X0130510Y0355510D01*
X0130360Y0355030D01*
X0130170Y0354560D01*
X0129940Y0354110D01*
X0129680Y0353680D01*
X0129390Y0353270D01*
X0129060Y0352880D01*
X0128710Y0352520D01*
X0128330Y0352190D01*
X0127930Y0351890D01*
X0127500Y0351620D01*
X0127050Y0351390D01*
X0126590Y0351190D01*
X0126110Y0351020D01*
X0125630Y0350900D01*
X0125130Y0350810D01*
X0124630Y0350760D01*
X0124120Y0350750D01*
X0123620Y0350780D01*
X0123120Y0350850D01*
X0122630Y0350960D01*
X0122150Y0351100D01*
X0121680Y0351280D01*
X0121220Y0351500D01*
X0120780Y0351750D01*
X0120370Y0352040D01*
X0119980Y0352350D01*
X0119610Y0352700D01*
X0119270Y0353070D01*
X0118960Y0353470D01*
X0118680Y0353890D01*
X0118440Y0354330D01*
X0118230Y0354790D01*
X0118060Y0355270D01*
X0117930Y0355750D01*
X0117830Y0356250D01*
X0117770Y0356750D01*
X0117750Y0357250D01*
X0010000Y0680000D02*
G75*
%LPD*%
D113*
X0010000Y0680000D02*
X0010000Y0976250D01*
X0016140Y0976250D01*
X0016140Y0998250D01*
X0409850Y0998250D01*
X0409850Y0976250D01*
X0416000Y0976250D01*
X0416000Y0680250D01*
X0283000Y0680250D01*
X0283000Y0761250D01*
X0143000Y0761250D01*
X0143000Y0680000D01*
X0010000Y0680000D01*
D80*
X0117750Y0692250D02*
X0117770Y0692750D01*
X0117830Y0693250D01*
X0117930Y0693750D01*
X0118060Y0694230D01*
X0118230Y0694710D01*
X0118440Y0695170D01*
X0118680Y0695610D01*
X0118960Y0696030D01*
X0119270Y0696430D01*
X0119610Y0696800D01*
X0119980Y0697150D01*
X0120370Y0697460D01*
X0120780Y0697750D01*
X0121220Y0698000D01*
X0121680Y0698220D01*
X0122150Y0698400D01*
X0122630Y0698540D01*
X0123120Y0698650D01*
X0123620Y0698720D01*
X0124120Y0698750D01*
X0124630Y0698740D01*
X0125130Y0698690D01*
X0125630Y0698600D01*
X0126110Y0698480D01*
X0126590Y0698310D01*
X0127050Y0698110D01*
X0127500Y0697880D01*
X0127930Y0697610D01*
X0128330Y0697310D01*
X0128710Y0696980D01*
X0129060Y0696620D01*
X0129390Y0696230D01*
X0129680Y0695820D01*
X0129940Y0695390D01*
X0130170Y0694940D01*
X0130360Y0694470D01*
X0130510Y0693990D01*
X0130630Y0693500D01*
X0130710Y0693000D01*
X0130750Y0692500D01*
X0130750Y0692000D01*
X0130710Y0691500D01*
X0130630Y0691000D01*
X0130510Y0690510D01*
X0130360Y0690030D01*
X0130170Y0689560D01*
X0129940Y0689110D01*
X0129680Y0688680D01*
X0129390Y0688270D01*
X0129060Y0687880D01*
X0128710Y0687520D01*
X0128330Y0687190D01*
X0127930Y0686890D01*
X0127500Y0686620D01*
X0127050Y0686390D01*
X0126590Y0686190D01*
X0126110Y0686020D01*
X0125630Y0685900D01*
X0125130Y0685810D01*
X0124630Y0685760D01*
X0124120Y0685750D01*
X0123620Y0685780D01*
X0123120Y0685850D01*
X0122630Y0685960D01*
X0122150Y0686100D01*
X0121680Y0686280D01*
X0121220Y0686500D01*
X0120780Y0686750D01*
X0120370Y0687040D01*
X0119980Y0687350D01*
X0119610Y0687700D01*
X0119270Y0688070D01*
X0118960Y0688470D01*
X0118680Y0688890D01*
X0118440Y0689330D01*
X0118230Y0689790D01*
X0118060Y0690270D01*
X0117930Y0690750D01*
X0117830Y0691250D01*
X0117770Y0691750D01*
X0117750Y0692250D01*
X0425000Y0010000D02*
G75*
%LPD*%
D113*
X0425000Y0010000D02*
X0425000Y0306250D01*
X0431140Y0306250D01*
X0431140Y0328250D01*
X0824850Y0328250D01*
X0824850Y0306250D01*
X0831000Y0306250D01*
X0831000Y0010250D01*
X0698000Y0010250D01*
X0698000Y0091250D01*
X0558000Y0091250D01*
X0558000Y0010000D01*
X0425000Y0010000D01*
D80*
X0532750Y0022250D02*
X0532770Y0022750D01*
X0532830Y0023250D01*
X0532930Y0023750D01*
X0533060Y0024230D01*
X0533230Y0024710D01*
X0533440Y0025170D01*
X0533680Y0025610D01*
X0533960Y0026030D01*
X0534270Y0026430D01*
X0534610Y0026800D01*
X0534980Y0027150D01*
X0535370Y0027460D01*
X0535780Y0027750D01*
X0536220Y0028000D01*
X0536680Y0028220D01*
X0537150Y0028400D01*
X0537630Y0028540D01*
X0538120Y0028650D01*
X0538620Y0028720D01*
X0539120Y0028750D01*
X0539630Y0028740D01*
X0540130Y0028690D01*
X0540630Y0028600D01*
X0541110Y0028480D01*
X0541590Y0028310D01*
X0542050Y0028110D01*
X0542500Y0027880D01*
X0542930Y0027610D01*
X0543330Y0027310D01*
X0543710Y0026980D01*
X0544060Y0026620D01*
X0544390Y0026230D01*
X0544680Y0025820D01*
X0544940Y0025390D01*
X0545170Y0024940D01*
X0545360Y0024470D01*
X0545510Y0023990D01*
X0545630Y0023500D01*
X0545710Y0023000D01*
X0545750Y0022500D01*
X0545750Y0022000D01*
X0545710Y0021500D01*
X0545630Y0021000D01*
X0545510Y0020510D01*
X0545360Y0020030D01*
X0545170Y0019560D01*
X0544940Y0019110D01*
X0544680Y0018680D01*
X0544390Y0018270D01*
X0544060Y0017880D01*
X0543710Y0017520D01*
X0543330Y0017190D01*
X0542930Y0016890D01*
X0542500Y0016620D01*
X0542050Y0016390D01*
X0541590Y0016190D01*
X0541110Y0016020D01*
X0540630Y0015900D01*
X0540130Y0015810D01*
X0539630Y0015760D01*
X0539120Y0015750D01*
X0538620Y0015780D01*
X0538120Y0015850D01*
X0537630Y0015960D01*
X0537150Y0016100D01*
X0536680Y0016280D01*
X0536220Y0016500D01*
X0535780Y0016750D01*
X0535370Y0017040D01*
X0534980Y0017350D01*
X0534610Y0017700D01*
X0534270Y0018070D01*
X0533960Y0018470D01*
X0533680Y0018890D01*
X0533440Y0019330D01*
X0533230Y0019790D01*
X0533060Y0020270D01*
X0532930Y0020750D01*
X0532830Y0021250D01*
X0532770Y0021750D01*
X0532750Y0022250D01*
X0425000Y0345000D02*
G75*
%LPD*%
D113*
X0425000Y0345000D02*
X0425000Y0641250D01*
X0431140Y0641250D01*
X0431140Y0663250D01*
X0824850Y0663250D01*
X0824850Y0641250D01*
X0831000Y0641250D01*
X0831000Y0345250D01*
X0698000Y0345250D01*
X0698000Y0426250D01*
X0558000Y0426250D01*
X0558000Y0345000D01*
X0425000Y0345000D01*
D80*
X0532750Y0357250D02*
X0532770Y0357750D01*
X0532830Y0358250D01*
X0532930Y0358750D01*
X0533060Y0359230D01*
X0533230Y0359710D01*
X0533440Y0360170D01*
X0533680Y0360610D01*
X0533960Y0361030D01*
X0534270Y0361430D01*
X0534610Y0361800D01*
X0534980Y0362150D01*
X0535370Y0362460D01*
X0535780Y0362750D01*
X0536220Y0363000D01*
X0536680Y0363220D01*
X0537150Y0363400D01*
X0537630Y0363540D01*
X0538120Y0363650D01*
X0538620Y0363720D01*
X0539120Y0363750D01*
X0539630Y0363740D01*
X0540130Y0363690D01*
X0540630Y0363600D01*
X0541110Y0363480D01*
X0541590Y0363310D01*
X0542050Y0363110D01*
X0542500Y0362880D01*
X0542930Y0362610D01*
X0543330Y0362310D01*
X0543710Y0361980D01*
X0544060Y0361620D01*
X0544390Y0361230D01*
X0544680Y0360820D01*
X0544940Y0360390D01*
X0545170Y0359940D01*
X0545360Y0359470D01*
X0545510Y0358990D01*
X0545630Y0358500D01*
X0545710Y0358000D01*
X0545750Y0357500D01*
X0545750Y0357000D01*
X0545710Y0356500D01*
X0545630Y0356000D01*
X0545510Y0355510D01*
X0545360Y0355030D01*
X0545170Y0354560D01*
X0544940Y0354110D01*
X0544680Y0353680D01*
X0544390Y0353270D01*
X0544060Y0352880D01*
X0543710Y0352520D01*
X0543330Y0352190D01*
X0542930Y0351890D01*
X0542500Y0351620D01*
X0542050Y0351390D01*
X0541590Y0351190D01*
X0541110Y0351020D01*
X0540630Y0350900D01*
X0540130Y0350810D01*
X0539630Y0350760D01*
X0539120Y0350750D01*
X0538620Y0350780D01*
X0538120Y0350850D01*
X0537630Y0350960D01*
X0537150Y0351100D01*
X0536680Y0351280D01*
X0536220Y0351500D01*
X0535780Y0351750D01*
X0535370Y0352040D01*
X0534980Y0352350D01*
X0534610Y0352700D01*
X0534270Y0353070D01*
X0533960Y0353470D01*
X0533680Y0353890D01*
X0533440Y0354330D01*
X0533230Y0354790D01*
X0533060Y0355270D01*
X0532930Y0355750D01*
X0532830Y0356250D01*
X0532770Y0356750D01*
X0532750Y0357250D01*
X0425000Y0680000D02*
G75*
%LPD*%
D113*
X0425000Y0680000D02*
X0425000Y0976250D01*
X0431140Y0976250D01*
X0431140Y0998250D01*
X0824850Y0998250D01*
X0824850Y0976250D01*
X0831000Y0976250D01*
X0831000Y0680250D01*
X0698000Y0680250D01*
X0698000Y0761250D01*
X0558000Y0761250D01*
X0558000Y0680000D01*
X0425000Y0680000D01*
D80*
X0532750Y0692250D02*
X0532770Y0692750D01*
X0532830Y0693250D01*
X0532930Y0693750D01*
X0533060Y0694230D01*
X0533230Y0694710D01*
X0533440Y0695170D01*
X0533680Y0695610D01*
X0533960Y0696030D01*
X0534270Y0696430D01*
X0534610Y0696800D01*
X0534980Y0697150D01*
X0535370Y0697460D01*
X0535780Y0697750D01*
X0536220Y0698000D01*
X0536680Y0698220D01*
X0537150Y0698400D01*
X0537630Y0698540D01*
X0538120Y0698650D01*
X0538620Y0698720D01*
X0539120Y0698750D01*
X0539630Y0698740D01*
X0540130Y0698690D01*
X0540630Y0698600D01*
X0541110Y0698480D01*
X0541590Y0698310D01*
X0542050Y0698110D01*
X0542500Y0697880D01*
X0542930Y0697610D01*
X0543330Y0697310D01*
X0543710Y0696980D01*
X0544060Y0696620D01*
X0544390Y0696230D01*
X0544680Y0695820D01*
X0544940Y0695390D01*
X0545170Y0694940D01*
X0545360Y0694470D01*
X0545510Y0693990D01*
X0545630Y0693500D01*
X0545710Y0693000D01*
X0545750Y0692500D01*
X0545750Y0692000D01*
X0545710Y0691500D01*
X0545630Y0691000D01*
X0545510Y0690510D01*
X0545360Y0690030D01*
X0545170Y0689560D01*
X0544940Y0689110D01*
X0544680Y0688680D01*
X0544390Y0688270D01*
X0544060Y0687880D01*
X0543710Y0687520D01*
X0543330Y0687190D01*
X0542930Y0686890D01*
X0542500Y0686620D01*
X0542050Y0686390D01*
X0541590Y0686190D01*
X0541110Y0686020D01*
X0540630Y0685900D01*
X0540130Y0685810D01*
X0539630Y0685760D01*
X0539120Y0685750D01*
X0538620Y0685780D01*
X0538120Y0685850D01*
X0537630Y0685960D01*
X0537150Y0686100D01*
X0536680Y0686280D01*
X0536220Y0686500D01*
X0535780Y0686750D01*
X0535370Y0687040D01*
X0534980Y0687350D01*
X0534610Y0687700D01*
X0534270Y0688070D01*
X0533960Y0688470D01*
X0533680Y0688890D01*
X0533440Y0689330D01*
X0533230Y0689790D01*
X0533060Y0690270D01*
X0532930Y0690750D01*
X0532830Y0691250D01*
X0532770Y0691750D01*
X0532750Y0692250D01*
X0845000Y0010000D02*
G75*
%LPD*%
D113*
X0845000Y0010000D02*
X0845000Y0230250D01*
X1079640Y0230250D01*
X1079640Y0010000D01*
X0845000Y0010000D01*
X0845000Y0250000D02*
G75*
%LPD*%
D113*
X0845000Y0250000D02*
X0845000Y0470250D01*
X1079640Y0470250D01*
X1079640Y0250000D01*
X0845000Y0250000D01*
X0845000Y0490000D02*
G75*
%LPD*%
D113*
X0845000Y0490000D02*
X0845000Y0710250D01*
X1079640Y0710250D01*
X1079640Y0490000D01*
X0845000Y0490000D01*
X0845000Y0730000D02*
G75*
%LPD*%
D113*
X0845000Y0730000D02*
X0845000Y0950250D01*
X1079640Y0950250D01*
X1079640Y0730000D01*
X0845000Y0730000D01*
X1090000Y0010000D02*
G75*
%LPD*%
D113*
X1090000Y0010000D02*
X1090000Y0230250D01*
X1324640Y0230250D01*
X1324640Y0010000D01*
X1090000Y0010000D01*
X1090000Y0250000D02*
G75*
%LPD*%
D113*
X1090000Y0250000D02*
X1090000Y0470250D01*
X1324640Y0470250D01*
X1324640Y0250000D01*
X1090000Y0250000D01*
X1090000Y0490000D02*
G75*
%LPD*%
D113*
X1090000Y0490000D02*
X1090000Y0710250D01*
X1324640Y0710250D01*
X1324640Y0490000D01*
X1090000Y0490000D01*
X1090000Y0730000D02*
G75*
%LPD*%
D113*
X1090000Y0730000D02*
X1090000Y0950250D01*
X1324640Y0950250D01*
X1324640Y0730000D01*
X1090000Y0730000D01*
X1335000Y0010000D02*
G75*
%LPD*%
D113*
X1335000Y0010000D02*
X1335000Y0081250D01*
X1425000Y0081250D01*
X1425000Y0010000D01*
X1335000Y0010000D01*
X1335000Y0091000D02*
G75*
%LPD*%
D113*
X1335000Y0091000D02*
X1335000Y0162250D01*
X1425000Y0162250D01*
X1425000Y0091000D01*
X1335000Y0091000D01*
X1335000Y0172000D02*
G75*
%LPD*%
D113*
X1335000Y0172000D02*
X1335000Y0243250D01*
X1425000Y0243250D01*
X1425000Y0172000D01*
X1335000Y0172000D01*
X1335000Y0253000D02*
G75*
%LPD*%
D113*
X1335000Y0253000D02*
X1335000Y0324250D01*
X1425000Y0324250D01*
X1425000Y0253000D01*
X1335000Y0253000D01*
X1335000Y0334000D02*
G75*
%LPD*%
D113*
X1335000Y0334000D02*
X1335000Y0405250D01*
X1425000Y0405250D01*
X1425000Y0334000D01*
X1335000Y0334000D01*
X1335000Y0415000D02*
G75*
%LPD*%
D113*
X1335000Y0415000D02*
X1335000Y0486250D01*
X1425000Y0486250D01*
X1425000Y0415000D01*
X1335000Y0415000D01*
X1335000Y0496000D02*
G75*
%LPD*%
D113*
X1335000Y0496000D02*
X1335000Y0567250D01*
X1425000Y0567250D01*
X1425000Y0496000D01*
X1335000Y0496000D01*
X1335000Y0577000D02*
G75*
%LPD*%
D113*
X1335000Y0577000D02*
X1335000Y0648250D01*
X1425000Y0648250D01*
X1425000Y0577000D01*
X1335000Y0577000D01*
X1335000Y0658000D02*
G75*
%LPD*%
D113*
X1335000Y0658000D02*
X1335000Y0729250D01*
X1425000Y0729250D01*
X1425000Y0658000D01*
X1335000Y0658000D01*
X1335000Y0739000D02*
G75*
%LPD*%
D113*
X1335000Y0739000D02*
X1335000Y0810250D01*
X1425000Y0810250D01*
X1425000Y0739000D01*
X1335000Y0739000D01*
X1335000Y0820000D02*
G75*
%LPD*%
D113*
X1335000Y0820000D02*
X1335000Y0891250D01*
X1425000Y0891250D01*
X1425000Y0820000D01*
X1335000Y0820000D01*
X1335000Y0901000D02*
G75*
%LPD*%
D113*
X1335000Y0901000D02*
X1335000Y0972250D01*
X1425000Y0972250D01*
X1425000Y0901000D01*
X1335000Y0901000D01*
X1435000Y0010000D02*
G75*
%LPD*%
D113*
X1435000Y0010000D02*
X1435000Y0081250D01*
X1525000Y0081250D01*
X1525000Y0010000D01*
X1435000Y0010000D01*
X1435000Y0091000D02*
G75*
%LPD*%
D113*
X1435000Y0091000D02*
X1435000Y0162250D01*
X1525000Y0162250D01*
X1525000Y0091000D01*
X1435000Y0091000D01*
X1435000Y0172000D02*
G75*
%LPD*%
D113*
X1435000Y0172000D02*
X1435000Y0243250D01*
X1525000Y0243250D01*
X1525000Y0172000D01*
X1435000Y0172000D01*
X1435000Y0253000D02*
G75*
%LPD*%
D113*
X1435000Y0253000D02*
X1435000Y0324250D01*
X1525000Y0324250D01*
X1525000Y0253000D01*
X1435000Y0253000D01*
X1435000Y0334000D02*
G75*
%LPD*%
D113*
X1435000Y0334000D02*
X1435000Y0405250D01*
X1525000Y0405250D01*
X1525000Y0334000D01*
X1435000Y0334000D01*
X1435000Y0415000D02*
G75*
%LPD*%
D113*
X1435000Y0415000D02*
X1435000Y0486250D01*
X1525000Y0486250D01*
X1525000Y0415000D01*
X1435000Y0415000D01*
X1435000Y0496000D02*
G75*
%LPD*%
D113*
X1435000Y0496000D02*
X1435000Y0567250D01*
X1525000Y0567250D01*
X1525000Y0496000D01*
X1435000Y0496000D01*
X1435000Y0577000D02*
G75*
%LPD*%
D113*
X1435000Y0577000D02*
X1435000Y0648250D01*
X1525000Y0648250D01*
X1525000Y0577000D01*
X1435000Y0577000D01*
X1435000Y0658000D02*
G75*
%LPD*%
D113*
X1435000Y0658000D02*
X1435000Y0729250D01*
X1525000Y0729250D01*
X1525000Y0658000D01*
X1435000Y0658000D01*
X1435000Y0739000D02*
G75*
%LPD*%
D113*
X1435000Y0739000D02*
X1435000Y0810250D01*
X1525000Y0810250D01*
X1525000Y0739000D01*
X1435000Y0739000D01*
X1435000Y0820000D02*
G75*
%LPD*%
D113*
X1435000Y0820000D02*
X1435000Y0891250D01*
X1525000Y0891250D01*
X1525000Y0820000D01*
X1435000Y0820000D01*
X1435000Y0901000D02*
G75*
%LPD*%
D113*
X1435000Y0901000D02*
X1435000Y0972250D01*
X1525000Y0972250D01*
X1525000Y0901000D01*
X1435000Y0901000D01*
X1535000Y0010000D02*
G75*
%LPD*%
D113*
X1606250Y0010000D02*
X1535000Y0010000D01*
X1535000Y0100000D01*
X1606250Y0100000D01*
X1606250Y0010000D01*
X1535000Y0110000D02*
G75*
%LPD*%
D113*
X1606250Y0110000D02*
X1535000Y0110000D01*
X1535000Y0200000D01*
X1606250Y0200000D01*
X1606250Y0110000D01*
X1535000Y0210000D02*
G75*
%LPD*%
D113*
X1606250Y0210000D02*
X1535000Y0210000D01*
X1535000Y0300000D01*
X1606250Y0300000D01*
X1606250Y0210000D01*
X1535000Y0310000D02*
G75*
%LPD*%
D113*
X1606250Y0310000D02*
X1535000Y0310000D01*
X1535000Y0400000D01*
X1606250Y0400000D01*
X1606250Y0310000D01*
X1535000Y0410000D02*
G75*
%LPD*%
D113*
X1606250Y0410000D02*
X1535000Y0410000D01*
X1535000Y0500000D01*
X1606250Y0500000D01*
X1606250Y0410000D01*
X1535000Y0510000D02*
G75*
%LPD*%
D113*
X1606250Y0510000D02*
X1535000Y0510000D01*
X1535000Y0600000D01*
X1606250Y0600000D01*
X1606250Y0510000D01*
X1535000Y0610000D02*
G75*
%LPD*%
D113*
X1606250Y0610000D02*
X1535000Y0610000D01*
X1535000Y0700000D01*
X1606250Y0700000D01*
X1606250Y0610000D01*
X1535000Y0710000D02*
G75*
%LPD*%
D113*
X1606250Y0710000D02*
X1535000Y0710000D01*
X1535000Y0800000D01*
X1606250Y0800000D01*
X1606250Y0710000D01*
X1535000Y0810000D02*
G75*
%LPD*%
D113*
X1606250Y0810000D02*
X1535000Y0810000D01*
X1535000Y0900000D01*
X1606250Y0900000D01*
X1606250Y0810000D01*
X1535000Y0910000D02*
G75*
%LPD*%
D113*
X1606250Y0910000D02*
X1535000Y0910000D01*
X1535000Y1000000D01*
X1606250Y1000000D01*
X1606250Y0910000D01*
M02*
