G75*
G70*
%OFA0B0*%
%FSLAX25Y25*%
%IPPOS*%
%LPD*%
%AMOC8*
5,1,8,0,0,1.08239X$1,22.5*
%
%ADD10C,0.07000*%
%ADD101OC8,0.11470*%
%ADD11C,0.10400*%
%ADD13C,0.05600*%
%ADD14C,0.05940*%
%ADD21OC8,0.07800*%
%ADD22R,0.06400X0.06400*%
%ADD31R,0.05710X0.01970*%
%ADD33R,0.01970X0.05710*%
%ADD40C,0.15400*%
%ADD43OC8,0.05600*%
%ADD45OC8,0.06700*%
%ADD46R,0.07880X0.07490*%
%ADD47C,0.08000*%
%ADD55R,0.07490X0.07490*%
%ADD62C,0.06700*%
%ADD74C,0.07800*%
%ADD77R,0.07490X0.07880*%
%ADD87C,0.08200*%
%ADD89C,0.06400*%
%ADD94C,0.04760*%
%ADD96R,0.07800X0.07800*%
X0010000Y0010000D02*
G75*
%LPD*%
D74*
X0217500Y0095000D03*
X0207500Y0095000D03*
X0025000Y0045000D03*
X0015000Y0045000D03*
X0015000Y0055000D03*
X0015000Y0065000D03*
X0015000Y0035000D03*
X0025000Y0035000D03*
X0025000Y0025000D03*
X0015000Y0025000D03*
X0015000Y0015000D03*
X0015000Y0105000D03*
X0015000Y0115000D03*
X0015000Y0125000D03*
X0015000Y0135000D03*
X0015000Y0145000D03*
X0015000Y0155000D03*
X0015000Y0185000D03*
X0015000Y0195000D03*
X0015000Y0205000D03*
X0015000Y0215000D03*
X0015000Y0225000D03*
D21*
X0192500Y0015000D03*
X0192500Y0025000D03*
X0192500Y0035000D03*
X0192500Y0045000D03*
X0192500Y0055000D03*
X0182500Y0055000D03*
X0182500Y0045000D03*
X0182500Y0035000D03*
X0182500Y0025000D03*
X0182500Y0015000D03*
D22*
X0207500Y0065000D03*
X0217500Y0105000D03*
X0207500Y0125000D03*
X0207500Y0220000D03*
X0217500Y0220000D03*
D89*
X0217500Y0230000D03*
X0217500Y0240000D03*
X0207500Y0240000D03*
X0207500Y0230000D03*
X0217500Y0125000D03*
X0217500Y0115000D03*
X0207500Y0115000D03*
X0207500Y0105000D03*
X0207500Y0085000D03*
X0207500Y0075000D03*
D96*
X0025000Y0015000D03*
D55*
X0014810Y0240810D03*
X0047690Y0240810D03*
D94*
X0040010Y0228510D02*
X0040010Y0224150D01*
X0022490Y0224150D02*
X0022490Y0228510D01*
X0244000Y0010000D02*
G75*
%LPD*%
D47*
X0313030Y0047010D03*
X0313030Y0056860D03*
X0313030Y0066700D03*
X0313030Y0147010D03*
X0313030Y0156860D03*
X0313030Y0166700D03*
X0313030Y0247010D03*
X0313030Y0256860D03*
X0313030Y0266700D03*
X0313030Y0347010D03*
X0313030Y0356860D03*
X0313030Y0366700D03*
D101*
X0283500Y0374570D03*
X0283500Y0339140D03*
X0283500Y0274570D03*
X0283500Y0239140D03*
X0283500Y0174570D03*
X0283500Y0139140D03*
X0283500Y0074570D03*
X0283500Y0039140D03*
D74*
X0474750Y0100610D03*
X0464750Y0100610D03*
X0464750Y0110610D03*
X0454750Y0110610D03*
X0444750Y0110610D03*
X0444750Y0100610D03*
X0454750Y0100610D03*
X0434750Y0100610D03*
X0424750Y0100610D03*
X0384750Y0100610D03*
X0374750Y0100610D03*
X0364750Y0100610D03*
X0354750Y0100610D03*
X0344750Y0100610D03*
X0334750Y0100610D03*
X0304750Y0100610D03*
X0294750Y0100610D03*
X0284750Y0100610D03*
X0274750Y0100610D03*
X0264750Y0100610D03*
X0292250Y0203110D03*
X0292250Y0223110D03*
X0252250Y0248110D03*
X0252250Y0258110D03*
X0394750Y0290610D03*
X0394750Y0300610D03*
X0404750Y0290610D03*
X0414750Y0290610D03*
X0424750Y0290610D03*
X0474750Y0250610D03*
X0474750Y0240610D03*
X0474750Y0230610D03*
X0474750Y0220610D03*
X0474750Y0210610D03*
X0474750Y0200610D03*
X0474750Y0190610D03*
X0474750Y0180610D03*
X0474750Y0170610D03*
X0474750Y0160610D03*
D87*
X0292250Y0185610D03*
X0252250Y0185610D03*
D22*
X0249750Y0290610D03*
X0269750Y0300610D03*
X0384750Y0300610D03*
X0384750Y0290610D03*
D89*
X0374750Y0290610D03*
X0374750Y0300610D03*
X0364750Y0300610D03*
X0364750Y0290610D03*
X0269750Y0290610D03*
X0259750Y0290610D03*
X0259750Y0300610D03*
X0249750Y0300610D03*
D43*
X0328500Y0271860D03*
X0338500Y0271860D03*
X0348500Y0271860D03*
X0358500Y0271860D03*
X0368500Y0271860D03*
X0368500Y0241860D03*
X0358500Y0241860D03*
X0348500Y0241860D03*
X0338500Y0241860D03*
X0328500Y0241860D03*
X0382250Y0230610D03*
X0412250Y0230610D03*
X0423500Y0226860D03*
X0423500Y0236860D03*
X0423500Y0246860D03*
X0453500Y0246860D03*
X0453500Y0236860D03*
X0453500Y0226860D03*
X0448500Y0201860D03*
X0453500Y0191860D03*
X0453500Y0181860D03*
X0453500Y0171860D03*
X0448500Y0141860D03*
X0448500Y0131860D03*
X0428500Y0131860D03*
X0428500Y0141860D03*
X0423500Y0171860D03*
X0423500Y0181860D03*
X0423500Y0191860D03*
X0428500Y0201860D03*
X0383500Y0151860D03*
X0373500Y0151860D03*
X0363500Y0151860D03*
X0363500Y0121860D03*
X0373500Y0121860D03*
X0383500Y0121860D03*
X0308500Y0125610D03*
X0308500Y0116860D03*
X0278500Y0116860D03*
X0278500Y0125610D03*
X0436000Y0291860D03*
X0443500Y0296860D03*
X0443500Y0286860D03*
X0461000Y0291860D03*
X0468500Y0296860D03*
X0468500Y0286860D03*
D45*
X0408500Y0271860D03*
X0393500Y0246860D03*
X0408500Y0166860D03*
X0408500Y0136860D03*
X0378500Y0166860D03*
X0348500Y0166860D03*
X0348500Y0136860D03*
D62*
X0338500Y0136860D03*
X0338500Y0166860D03*
X0368500Y0166860D03*
X0398500Y0166860D03*
X0398500Y0136860D03*
X0383500Y0246860D03*
X0398500Y0271860D03*
D13*
X0348500Y0221860D03*
X0338500Y0221860D03*
X0328500Y0221860D03*
X0318500Y0221860D03*
X0318500Y0191860D03*
X0328500Y0191860D03*
X0338500Y0191860D03*
X0348500Y0191860D03*
D10*
X0416000Y0216860D03*
X0461000Y0216860D03*
X0461000Y0156860D03*
X0416000Y0156860D03*
D40*
X0278690Y0211860D03*
X0266880Y0230360D03*
X0255060Y0211860D03*
D21*
X0434750Y0260610D03*
X0434750Y0270610D03*
X0444750Y0270610D03*
X0444750Y0260610D03*
X0454750Y0260610D03*
X0454750Y0270610D03*
X0464750Y0270610D03*
X0464750Y0260610D03*
X0474750Y0260610D03*
X0474750Y0270610D03*
D11*
X0467870Y0347480D03*
X0483810Y0347480D03*
X0483810Y0372170D03*
X0467880Y0371860D03*
X0467880Y0397170D03*
X0483810Y0397170D03*
X0547880Y0397170D03*
X0547880Y0371860D03*
X0547870Y0347480D03*
X0403810Y0347480D03*
X0387870Y0347480D03*
X0387880Y0371860D03*
X0403810Y0372170D03*
X0403810Y0397170D03*
X0387880Y0397170D03*
X0323810Y0397170D03*
X0323810Y0372170D03*
X0323810Y0347480D03*
X0324130Y0066230D03*
X0324120Y0041860D03*
X0324120Y0016540D03*
X0388190Y0016540D03*
X0404120Y0016540D03*
X0404120Y0041860D03*
X0388190Y0041540D03*
X0388190Y0066230D03*
X0404130Y0066230D03*
X0468190Y0066230D03*
X0468190Y0041540D03*
X0468190Y0016540D03*
D96*
X0474750Y0110610D03*
D55*
X0249020Y0102430D03*
X0249020Y0135300D03*
D94*
X0261320Y0127620D02*
X0265690Y0127620D01*
X0265690Y0110100D02*
X0261320Y0110100D01*
D31*
X0260050Y0113740D03*
X0260050Y0116300D03*
X0260050Y0118860D03*
X0260050Y0121420D03*
X0260050Y0123980D03*
D46*
X0249020Y0123390D03*
X0249020Y0114340D03*
D13*
X0430900Y0311860D02*
X0436100Y0311860D01*
X0470900Y0311860D02*
X0476100Y0311860D01*
D14*
X0403500Y0221860D03*
X0403500Y0191860D03*
X0363500Y0191860D03*
X0363500Y0221860D03*
X0567250Y0010000D02*
G75*
%LPD*%
D47*
X0636280Y0047010D03*
X0636280Y0056860D03*
X0636280Y0066700D03*
X0636280Y0147010D03*
X0636280Y0156860D03*
X0636280Y0166700D03*
X0636280Y0247010D03*
X0636280Y0256860D03*
X0636280Y0266700D03*
X0636280Y0347010D03*
X0636280Y0356860D03*
X0636280Y0366700D03*
D101*
X0606750Y0374570D03*
X0606750Y0339140D03*
X0606750Y0274570D03*
X0606750Y0239140D03*
X0606750Y0174570D03*
X0606750Y0139140D03*
X0606750Y0074570D03*
X0606750Y0039140D03*
D74*
X0798000Y0100610D03*
X0788000Y0100610D03*
X0788000Y0110610D03*
X0778000Y0110610D03*
X0768000Y0110610D03*
X0768000Y0100610D03*
X0778000Y0100610D03*
X0758000Y0100610D03*
X0748000Y0100610D03*
X0708000Y0100610D03*
X0698000Y0100610D03*
X0688000Y0100610D03*
X0678000Y0100610D03*
X0668000Y0100610D03*
X0658000Y0100610D03*
X0628000Y0100610D03*
X0618000Y0100610D03*
X0608000Y0100610D03*
X0598000Y0100610D03*
X0588000Y0100610D03*
X0615500Y0203110D03*
X0615500Y0223110D03*
X0575500Y0248110D03*
X0575500Y0258110D03*
X0718000Y0290610D03*
X0718000Y0300610D03*
X0728000Y0290610D03*
X0738000Y0290610D03*
X0748000Y0290610D03*
X0798000Y0250610D03*
X0798000Y0240610D03*
X0798000Y0230610D03*
X0798000Y0220610D03*
X0798000Y0210610D03*
X0798000Y0200610D03*
X0798000Y0190610D03*
X0798000Y0180610D03*
X0798000Y0170610D03*
X0798000Y0160610D03*
D87*
X0615500Y0185610D03*
X0575500Y0185610D03*
D22*
X0573000Y0290610D03*
X0593000Y0300610D03*
X0708000Y0300610D03*
X0708000Y0290610D03*
D89*
X0698000Y0290610D03*
X0698000Y0300610D03*
X0688000Y0300610D03*
X0688000Y0290610D03*
X0593000Y0290610D03*
X0583000Y0290610D03*
X0583000Y0300610D03*
X0573000Y0300610D03*
D43*
X0651750Y0271860D03*
X0661750Y0271860D03*
X0671750Y0271860D03*
X0681750Y0271860D03*
X0691750Y0271860D03*
X0691750Y0241860D03*
X0681750Y0241860D03*
X0671750Y0241860D03*
X0661750Y0241860D03*
X0651750Y0241860D03*
X0705500Y0230610D03*
X0735500Y0230610D03*
X0746750Y0226860D03*
X0746750Y0236860D03*
X0746750Y0246860D03*
X0776750Y0246860D03*
X0776750Y0236860D03*
X0776750Y0226860D03*
X0771750Y0201860D03*
X0776750Y0191860D03*
X0776750Y0181860D03*
X0776750Y0171860D03*
X0771750Y0141860D03*
X0771750Y0131860D03*
X0751750Y0131860D03*
X0751750Y0141860D03*
X0746750Y0171860D03*
X0746750Y0181860D03*
X0746750Y0191860D03*
X0751750Y0201860D03*
X0706750Y0151860D03*
X0696750Y0151860D03*
X0686750Y0151860D03*
X0686750Y0121860D03*
X0696750Y0121860D03*
X0706750Y0121860D03*
X0631750Y0125610D03*
X0631750Y0116860D03*
X0601750Y0116860D03*
X0601750Y0125610D03*
X0759250Y0291860D03*
X0766750Y0296860D03*
X0766750Y0286860D03*
X0784250Y0291860D03*
X0791750Y0296860D03*
X0791750Y0286860D03*
D45*
X0731750Y0271860D03*
X0716750Y0246860D03*
X0731750Y0166860D03*
X0731750Y0136860D03*
X0701750Y0166860D03*
X0671750Y0166860D03*
X0671750Y0136860D03*
D62*
X0661750Y0136860D03*
X0661750Y0166860D03*
X0691750Y0166860D03*
X0721750Y0166860D03*
X0721750Y0136860D03*
X0706750Y0246860D03*
X0721750Y0271860D03*
D13*
X0671750Y0221860D03*
X0661750Y0221860D03*
X0651750Y0221860D03*
X0641750Y0221860D03*
X0641750Y0191860D03*
X0651750Y0191860D03*
X0661750Y0191860D03*
X0671750Y0191860D03*
D10*
X0739250Y0216860D03*
X0784250Y0216860D03*
X0784250Y0156860D03*
X0739250Y0156860D03*
D40*
X0601940Y0211860D03*
X0590130Y0230360D03*
X0578310Y0211860D03*
D21*
X0758000Y0260610D03*
X0758000Y0270610D03*
X0768000Y0270610D03*
X0768000Y0260610D03*
X0778000Y0260610D03*
X0778000Y0270610D03*
X0788000Y0270610D03*
X0788000Y0260610D03*
X0798000Y0260610D03*
X0798000Y0270610D03*
D11*
X0791120Y0347480D03*
X0807060Y0347480D03*
X0807060Y0372170D03*
X0791130Y0371860D03*
X0791130Y0397170D03*
X0807060Y0397170D03*
X0871130Y0397170D03*
X0871130Y0371860D03*
X0871120Y0347480D03*
X0727060Y0347480D03*
X0711120Y0347480D03*
X0711130Y0371860D03*
X0727060Y0372170D03*
X0727060Y0397170D03*
X0711130Y0397170D03*
X0647060Y0397170D03*
X0647060Y0372170D03*
X0647060Y0347480D03*
X0647380Y0066230D03*
X0647370Y0041860D03*
X0647370Y0016540D03*
X0711440Y0016540D03*
X0727370Y0016540D03*
X0727370Y0041860D03*
X0711440Y0041540D03*
X0711440Y0066230D03*
X0727380Y0066230D03*
X0791440Y0066230D03*
X0791440Y0041540D03*
X0791440Y0016540D03*
D96*
X0798000Y0110610D03*
D55*
X0572270Y0102430D03*
X0572270Y0135300D03*
D94*
X0584570Y0127620D02*
X0588940Y0127620D01*
X0588940Y0110100D02*
X0584570Y0110100D01*
D31*
X0583300Y0113740D03*
X0583300Y0116300D03*
X0583300Y0118860D03*
X0583300Y0121420D03*
X0583300Y0123980D03*
D46*
X0572270Y0123390D03*
X0572270Y0114340D03*
D13*
X0754150Y0311860D02*
X0759350Y0311860D01*
X0794150Y0311860D02*
X0799350Y0311860D01*
D14*
X0726750Y0221860D03*
X0726750Y0191860D03*
X0686750Y0191860D03*
X0686750Y0221860D03*
X0890500Y0010000D02*
G75*
%LPD*%
D47*
X0959530Y0047010D03*
X0959530Y0056860D03*
X0959530Y0066700D03*
X0959530Y0147010D03*
X0959530Y0156860D03*
X0959530Y0166700D03*
X0959530Y0247010D03*
X0959530Y0256860D03*
X0959530Y0266700D03*
X0959530Y0347010D03*
X0959530Y0356860D03*
X0959530Y0366700D03*
D101*
X0930000Y0374570D03*
X0930000Y0339140D03*
X0930000Y0274570D03*
X0930000Y0239140D03*
X0930000Y0174570D03*
X0930000Y0139140D03*
X0930000Y0074570D03*
X0930000Y0039140D03*
D74*
X1121250Y0100610D03*
X1111250Y0100610D03*
X1111250Y0110610D03*
X1101250Y0110610D03*
X1091250Y0110610D03*
X1091250Y0100610D03*
X1101250Y0100610D03*
X1081250Y0100610D03*
X1071250Y0100610D03*
X1031250Y0100610D03*
X1021250Y0100610D03*
X1011250Y0100610D03*
X1001250Y0100610D03*
X0991250Y0100610D03*
X0981250Y0100610D03*
X0951250Y0100610D03*
X0941250Y0100610D03*
X0931250Y0100610D03*
X0921250Y0100610D03*
X0911250Y0100610D03*
X0938750Y0203110D03*
X0938750Y0223110D03*
X0898750Y0248110D03*
X0898750Y0258110D03*
X1041250Y0290610D03*
X1041250Y0300610D03*
X1051250Y0290610D03*
X1061250Y0290610D03*
X1071250Y0290610D03*
X1121250Y0250610D03*
X1121250Y0240610D03*
X1121250Y0230610D03*
X1121250Y0220610D03*
X1121250Y0210610D03*
X1121250Y0200610D03*
X1121250Y0190610D03*
X1121250Y0180610D03*
X1121250Y0170610D03*
X1121250Y0160610D03*
D87*
X0938750Y0185610D03*
X0898750Y0185610D03*
D22*
X0896250Y0290610D03*
X0916250Y0300610D03*
X1031250Y0300610D03*
X1031250Y0290610D03*
D89*
X1021250Y0290610D03*
X1021250Y0300610D03*
X1011250Y0300610D03*
X1011250Y0290610D03*
X0916250Y0290610D03*
X0906250Y0290610D03*
X0906250Y0300610D03*
X0896250Y0300610D03*
D43*
X0975000Y0271860D03*
X0985000Y0271860D03*
X0995000Y0271860D03*
X1005000Y0271860D03*
X1015000Y0271860D03*
X1015000Y0241860D03*
X1005000Y0241860D03*
X0995000Y0241860D03*
X0985000Y0241860D03*
X0975000Y0241860D03*
X1028750Y0230610D03*
X1058750Y0230610D03*
X1070000Y0226860D03*
X1070000Y0236860D03*
X1070000Y0246860D03*
X1100000Y0246860D03*
X1100000Y0236860D03*
X1100000Y0226860D03*
X1095000Y0201860D03*
X1100000Y0191860D03*
X1100000Y0181860D03*
X1100000Y0171860D03*
X1095000Y0141860D03*
X1095000Y0131860D03*
X1075000Y0131860D03*
X1075000Y0141860D03*
X1070000Y0171860D03*
X1070000Y0181860D03*
X1070000Y0191860D03*
X1075000Y0201860D03*
X1030000Y0151860D03*
X1020000Y0151860D03*
X1010000Y0151860D03*
X1010000Y0121860D03*
X1020000Y0121860D03*
X1030000Y0121860D03*
X0955000Y0125610D03*
X0955000Y0116860D03*
X0925000Y0116860D03*
X0925000Y0125610D03*
X1082500Y0291860D03*
X1090000Y0296860D03*
X1090000Y0286860D03*
X1107500Y0291860D03*
X1115000Y0296860D03*
X1115000Y0286860D03*
D45*
X1055000Y0271860D03*
X1040000Y0246860D03*
X1055000Y0166860D03*
X1055000Y0136860D03*
X1025000Y0166860D03*
X0995000Y0166860D03*
X0995000Y0136860D03*
D62*
X0985000Y0136860D03*
X0985000Y0166860D03*
X1015000Y0166860D03*
X1045000Y0166860D03*
X1045000Y0136860D03*
X1030000Y0246860D03*
X1045000Y0271860D03*
D13*
X0995000Y0221860D03*
X0985000Y0221860D03*
X0975000Y0221860D03*
X0965000Y0221860D03*
X0965000Y0191860D03*
X0975000Y0191860D03*
X0985000Y0191860D03*
X0995000Y0191860D03*
D10*
X1062500Y0216860D03*
X1107500Y0216860D03*
X1107500Y0156860D03*
X1062500Y0156860D03*
D40*
X0925190Y0211860D03*
X0913380Y0230360D03*
X0901560Y0211860D03*
D21*
X1081250Y0260610D03*
X1081250Y0270610D03*
X1091250Y0270610D03*
X1091250Y0260610D03*
X1101250Y0260610D03*
X1101250Y0270610D03*
X1111250Y0270610D03*
X1111250Y0260610D03*
X1121250Y0260610D03*
X1121250Y0270610D03*
D11*
X1114370Y0347480D03*
X1130310Y0347480D03*
X1130310Y0372170D03*
X1114380Y0371860D03*
X1114380Y0397170D03*
X1130310Y0397170D03*
X1194380Y0397170D03*
X1194380Y0371860D03*
X1194370Y0347480D03*
X1050310Y0347480D03*
X1034370Y0347480D03*
X1034380Y0371860D03*
X1050310Y0372170D03*
X1050310Y0397170D03*
X1034380Y0397170D03*
X0970310Y0397170D03*
X0970310Y0372170D03*
X0970310Y0347480D03*
X0970630Y0066230D03*
X0970620Y0041860D03*
X0970620Y0016540D03*
X1034690Y0016540D03*
X1050620Y0016540D03*
X1050620Y0041860D03*
X1034690Y0041540D03*
X1034690Y0066230D03*
X1050630Y0066230D03*
X1114690Y0066230D03*
X1114690Y0041540D03*
X1114690Y0016540D03*
D96*
X1121250Y0110610D03*
D55*
X0895520Y0102430D03*
X0895520Y0135300D03*
D94*
X0907820Y0127620D02*
X0912190Y0127620D01*
X0912190Y0110100D02*
X0907820Y0110100D01*
D31*
X0906550Y0113740D03*
X0906550Y0116300D03*
X0906550Y0118860D03*
X0906550Y0121420D03*
X0906550Y0123980D03*
D46*
X0895520Y0123390D03*
X0895520Y0114340D03*
D13*
X1077400Y0311860D02*
X1082600Y0311860D01*
X1117400Y0311860D02*
X1122600Y0311860D01*
D14*
X1050000Y0221860D03*
X1050000Y0191860D03*
X1010000Y0191860D03*
X1010000Y0221860D03*
X1213750Y0010000D02*
G75*
%LPD*%
D47*
X1250760Y0251720D03*
X1260610Y0251720D03*
X1270450Y0251720D03*
X1350760Y0251720D03*
X1360610Y0251720D03*
X1370450Y0251720D03*
X1450760Y0251720D03*
X1460610Y0251720D03*
X1470450Y0251720D03*
X1550760Y0251720D03*
X1560610Y0251720D03*
X1570450Y0251720D03*
D101*
X1578320Y0281250D03*
X1542890Y0281250D03*
X1478320Y0281250D03*
X1442890Y0281250D03*
X1378320Y0281250D03*
X1342890Y0281250D03*
X1278320Y0281250D03*
X1242890Y0281250D03*
D74*
X1304360Y0090000D03*
X1304360Y0100000D03*
X1314360Y0100000D03*
X1314360Y0110000D03*
X1314360Y0120000D03*
X1304360Y0120000D03*
X1304360Y0110000D03*
X1304360Y0130000D03*
X1304360Y0140000D03*
X1304360Y0180000D03*
X1304360Y0190000D03*
X1304360Y0200000D03*
X1304360Y0210000D03*
X1304360Y0220000D03*
X1304360Y0230000D03*
X1304360Y0260000D03*
X1304360Y0270000D03*
X1304360Y0280000D03*
X1304360Y0290000D03*
X1304360Y0300000D03*
X1406860Y0272500D03*
X1426860Y0272500D03*
X1451860Y0312500D03*
X1461860Y0312500D03*
X1494360Y0170000D03*
X1504360Y0170000D03*
X1494360Y0160000D03*
X1494360Y0150000D03*
X1494360Y0140000D03*
X1454360Y0090000D03*
X1444360Y0090000D03*
X1434360Y0090000D03*
X1424360Y0090000D03*
X1414360Y0090000D03*
X1404360Y0090000D03*
X1394360Y0090000D03*
X1384360Y0090000D03*
X1374360Y0090000D03*
X1364360Y0090000D03*
D87*
X1389360Y0272500D03*
X1389360Y0312500D03*
D22*
X1494360Y0315000D03*
X1504360Y0295000D03*
X1504360Y0180000D03*
X1494360Y0180000D03*
D89*
X1494360Y0190000D03*
X1504360Y0190000D03*
X1504360Y0200000D03*
X1494360Y0200000D03*
X1494360Y0295000D03*
X1494360Y0305000D03*
X1504360Y0305000D03*
X1504360Y0315000D03*
D43*
X1475610Y0236250D03*
X1475610Y0226250D03*
X1475610Y0216250D03*
X1475610Y0206250D03*
X1475610Y0196250D03*
X1445610Y0196250D03*
X1445610Y0206250D03*
X1445610Y0216250D03*
X1445610Y0226250D03*
X1445610Y0236250D03*
X1434360Y0182500D03*
X1434360Y0152500D03*
X1430610Y0141250D03*
X1440610Y0141250D03*
X1450610Y0141250D03*
X1450610Y0111250D03*
X1440610Y0111250D03*
X1430610Y0111250D03*
X1405610Y0116250D03*
X1395610Y0111250D03*
X1385610Y0111250D03*
X1375610Y0111250D03*
X1345610Y0116250D03*
X1335610Y0116250D03*
X1335610Y0136250D03*
X1345610Y0136250D03*
X1375610Y0141250D03*
X1385610Y0141250D03*
X1395610Y0141250D03*
X1405610Y0136250D03*
X1355610Y0181250D03*
X1355610Y0191250D03*
X1355610Y0201250D03*
X1325610Y0201250D03*
X1325610Y0191250D03*
X1325610Y0181250D03*
X1329360Y0256250D03*
X1320610Y0256250D03*
X1320610Y0286250D03*
X1329360Y0286250D03*
X1495610Y0128750D03*
X1500610Y0121250D03*
X1490610Y0121250D03*
X1495610Y0103750D03*
X1500610Y0096250D03*
X1490610Y0096250D03*
D45*
X1475610Y0156250D03*
X1450610Y0171250D03*
X1370610Y0156250D03*
X1340610Y0156250D03*
X1370610Y0186250D03*
X1370610Y0216250D03*
X1340610Y0216250D03*
D62*
X1340610Y0226250D03*
X1370610Y0226250D03*
X1370610Y0196250D03*
X1370610Y0166250D03*
X1340610Y0166250D03*
X1450610Y0181250D03*
X1475610Y0166250D03*
D13*
X1425610Y0216250D03*
X1425610Y0226250D03*
X1425610Y0236250D03*
X1425610Y0246250D03*
X1395610Y0246250D03*
X1395610Y0236250D03*
X1395610Y0226250D03*
X1395610Y0216250D03*
D10*
X1420610Y0148750D03*
X1420610Y0103750D03*
X1360610Y0103750D03*
X1360610Y0148750D03*
D40*
X1415610Y0286060D03*
X1434110Y0297870D03*
X1415610Y0309690D03*
D21*
X1464360Y0130000D03*
X1474360Y0130000D03*
X1474360Y0120000D03*
X1464360Y0120000D03*
X1464360Y0110000D03*
X1474360Y0110000D03*
X1474360Y0100000D03*
X1464360Y0100000D03*
X1464360Y0090000D03*
X1474360Y0090000D03*
D11*
X1551230Y0096880D03*
X1551230Y0080940D03*
X1575920Y0080940D03*
X1575610Y0096870D03*
X1600920Y0096870D03*
X1600920Y0080940D03*
X1600920Y0016870D03*
X1575610Y0016870D03*
X1551230Y0016880D03*
X1551230Y0160940D03*
X1551230Y0176880D03*
X1575610Y0176870D03*
X1575920Y0160940D03*
X1600920Y0160940D03*
X1600920Y0176870D03*
X1600920Y0240940D03*
X1575920Y0240940D03*
X1551230Y0240940D03*
X1269980Y0240620D03*
X1245610Y0240630D03*
X1220290Y0240630D03*
X1220290Y0176560D03*
X1220290Y0160630D03*
X1245610Y0160630D03*
X1245290Y0176560D03*
X1269980Y0176560D03*
X1269980Y0160620D03*
X1269980Y0096560D03*
X1245290Y0096560D03*
X1220290Y0096560D03*
D96*
X1314360Y0090000D03*
D55*
X1306180Y0315730D03*
X1339050Y0315730D03*
D94*
X1331370Y0303430D02*
X1331370Y0299060D01*
X1313850Y0299060D02*
X1313850Y0303430D01*
D33*
X1317490Y0304700D03*
X1320050Y0304700D03*
X1322610Y0304700D03*
X1325170Y0304700D03*
X1327730Y0304700D03*
D77*
X1327140Y0315730D03*
X1318090Y0315730D03*
D13*
X1515610Y0133850D02*
X1515610Y0128650D01*
X1515610Y0093850D02*
X1515610Y0088650D01*
D14*
X1425610Y0161250D03*
X1395610Y0161250D03*
X1395610Y0201250D03*
X1425610Y0201250D03*
X1213750Y0333250D02*
G75*
%LPD*%
D47*
X1250760Y0574970D03*
X1260610Y0574970D03*
X1270450Y0574970D03*
X1350760Y0574970D03*
X1360610Y0574970D03*
X1370450Y0574970D03*
X1450760Y0574970D03*
X1460610Y0574970D03*
X1470450Y0574970D03*
X1550760Y0574970D03*
X1560610Y0574970D03*
X1570450Y0574970D03*
D101*
X1578320Y0604500D03*
X1542890Y0604500D03*
X1478320Y0604500D03*
X1442890Y0604500D03*
X1378320Y0604500D03*
X1342890Y0604500D03*
X1278320Y0604500D03*
X1242890Y0604500D03*
D74*
X1304360Y0413250D03*
X1304360Y0423250D03*
X1314360Y0423250D03*
X1314360Y0433250D03*
X1314360Y0443250D03*
X1304360Y0443250D03*
X1304360Y0433250D03*
X1304360Y0453250D03*
X1304360Y0463250D03*
X1304360Y0503250D03*
X1304360Y0513250D03*
X1304360Y0523250D03*
X1304360Y0533250D03*
X1304360Y0543250D03*
X1304360Y0553250D03*
X1304360Y0583250D03*
X1304360Y0593250D03*
X1304360Y0603250D03*
X1304360Y0613250D03*
X1304360Y0623250D03*
X1406860Y0595750D03*
X1426860Y0595750D03*
X1451860Y0635750D03*
X1461860Y0635750D03*
X1494360Y0493250D03*
X1504360Y0493250D03*
X1494360Y0483250D03*
X1494360Y0473250D03*
X1494360Y0463250D03*
X1454360Y0413250D03*
X1444360Y0413250D03*
X1434360Y0413250D03*
X1424360Y0413250D03*
X1414360Y0413250D03*
X1404360Y0413250D03*
X1394360Y0413250D03*
X1384360Y0413250D03*
X1374360Y0413250D03*
X1364360Y0413250D03*
D87*
X1389360Y0595750D03*
X1389360Y0635750D03*
D22*
X1494360Y0638250D03*
X1504360Y0618250D03*
X1504360Y0503250D03*
X1494360Y0503250D03*
D89*
X1494360Y0513250D03*
X1504360Y0513250D03*
X1504360Y0523250D03*
X1494360Y0523250D03*
X1494360Y0618250D03*
X1494360Y0628250D03*
X1504360Y0628250D03*
X1504360Y0638250D03*
D43*
X1475610Y0559500D03*
X1475610Y0549500D03*
X1475610Y0539500D03*
X1475610Y0529500D03*
X1475610Y0519500D03*
X1445610Y0519500D03*
X1445610Y0529500D03*
X1445610Y0539500D03*
X1445610Y0549500D03*
X1445610Y0559500D03*
X1434360Y0505750D03*
X1434360Y0475750D03*
X1430610Y0464500D03*
X1440610Y0464500D03*
X1450610Y0464500D03*
X1450610Y0434500D03*
X1440610Y0434500D03*
X1430610Y0434500D03*
X1405610Y0439500D03*
X1395610Y0434500D03*
X1385610Y0434500D03*
X1375610Y0434500D03*
X1345610Y0439500D03*
X1335610Y0439500D03*
X1335610Y0459500D03*
X1345610Y0459500D03*
X1375610Y0464500D03*
X1385610Y0464500D03*
X1395610Y0464500D03*
X1405610Y0459500D03*
X1355610Y0504500D03*
X1355610Y0514500D03*
X1355610Y0524500D03*
X1325610Y0524500D03*
X1325610Y0514500D03*
X1325610Y0504500D03*
X1329360Y0579500D03*
X1320610Y0579500D03*
X1320610Y0609500D03*
X1329360Y0609500D03*
X1495610Y0452000D03*
X1500610Y0444500D03*
X1490610Y0444500D03*
X1495610Y0427000D03*
X1500610Y0419500D03*
X1490610Y0419500D03*
D45*
X1475610Y0479500D03*
X1450610Y0494500D03*
X1370610Y0479500D03*
X1340610Y0479500D03*
X1370610Y0509500D03*
X1370610Y0539500D03*
X1340610Y0539500D03*
D62*
X1340610Y0549500D03*
X1370610Y0549500D03*
X1370610Y0519500D03*
X1370610Y0489500D03*
X1340610Y0489500D03*
X1450610Y0504500D03*
X1475610Y0489500D03*
D13*
X1425610Y0539500D03*
X1425610Y0549500D03*
X1425610Y0559500D03*
X1425610Y0569500D03*
X1395610Y0569500D03*
X1395610Y0559500D03*
X1395610Y0549500D03*
X1395610Y0539500D03*
D10*
X1420610Y0472000D03*
X1420610Y0427000D03*
X1360610Y0427000D03*
X1360610Y0472000D03*
D40*
X1415610Y0609310D03*
X1434110Y0621120D03*
X1415610Y0632940D03*
D21*
X1464360Y0453250D03*
X1474360Y0453250D03*
X1474360Y0443250D03*
X1464360Y0443250D03*
X1464360Y0433250D03*
X1474360Y0433250D03*
X1474360Y0423250D03*
X1464360Y0423250D03*
X1464360Y0413250D03*
X1474360Y0413250D03*
D11*
X1551230Y0420130D03*
X1551230Y0404190D03*
X1575920Y0404190D03*
X1575610Y0420120D03*
X1600920Y0420120D03*
X1600920Y0404190D03*
X1600920Y0340120D03*
X1575610Y0340120D03*
X1551230Y0340130D03*
X1551230Y0484190D03*
X1551230Y0500130D03*
X1575610Y0500120D03*
X1575920Y0484190D03*
X1600920Y0484190D03*
X1600920Y0500120D03*
X1600920Y0564190D03*
X1575920Y0564190D03*
X1551230Y0564190D03*
X1269980Y0563870D03*
X1245610Y0563880D03*
X1220290Y0563880D03*
X1220290Y0499810D03*
X1220290Y0483880D03*
X1245610Y0483880D03*
X1245290Y0499810D03*
X1269980Y0499810D03*
X1269980Y0483870D03*
X1269980Y0419810D03*
X1245290Y0419810D03*
X1220290Y0419810D03*
D96*
X1314360Y0413250D03*
D55*
X1306180Y0638980D03*
X1339050Y0638980D03*
D94*
X1331370Y0626680D02*
X1331370Y0622310D01*
X1313850Y0622310D02*
X1313850Y0626680D01*
D33*
X1317490Y0627950D03*
X1320050Y0627950D03*
X1322610Y0627950D03*
X1325170Y0627950D03*
X1327730Y0627950D03*
D77*
X1327140Y0638980D03*
X1318090Y0638980D03*
D13*
X1515610Y0457100D02*
X1515610Y0451900D01*
X1515610Y0417100D02*
X1515610Y0411900D01*
D14*
X1425610Y0484500D03*
X1395610Y0484500D03*
X1395610Y0524500D03*
X1425610Y0524500D03*
X0010000Y0258720D02*
G75*
%LPD*%
D74*
X0217500Y0343720D03*
X0207500Y0343720D03*
X0025000Y0293720D03*
X0015000Y0293720D03*
X0015000Y0303720D03*
X0015000Y0313720D03*
X0015000Y0283720D03*
X0025000Y0283720D03*
X0025000Y0273720D03*
X0015000Y0273720D03*
X0015000Y0263720D03*
X0015000Y0353720D03*
X0015000Y0363720D03*
X0015000Y0373720D03*
X0015000Y0383720D03*
X0015000Y0393720D03*
X0015000Y0403720D03*
X0015000Y0433720D03*
X0015000Y0443720D03*
X0015000Y0453720D03*
X0015000Y0463720D03*
X0015000Y0473720D03*
D21*
X0192500Y0263720D03*
X0192500Y0273720D03*
X0192500Y0283720D03*
X0192500Y0293720D03*
X0192500Y0303720D03*
X0182500Y0303720D03*
X0182500Y0293720D03*
X0182500Y0283720D03*
X0182500Y0273720D03*
X0182500Y0263720D03*
D22*
X0207500Y0313720D03*
X0217500Y0353720D03*
X0207500Y0373720D03*
X0207500Y0468720D03*
X0217500Y0468720D03*
D89*
X0217500Y0478720D03*
X0217500Y0488720D03*
X0207500Y0488720D03*
X0207500Y0478720D03*
X0217500Y0373720D03*
X0217500Y0363720D03*
X0207500Y0363720D03*
X0207500Y0353720D03*
X0207500Y0333720D03*
X0207500Y0323720D03*
D96*
X0025000Y0263720D03*
D55*
X0014810Y0489530D03*
X0047690Y0489530D03*
D94*
X0040010Y0477230D02*
X0040010Y0472870D01*
X0022490Y0472870D02*
X0022490Y0477230D01*
X0010000Y0507440D02*
G75*
%LPD*%
D74*
X0095000Y0521440D03*
X0095000Y0531440D03*
X0045000Y0713940D03*
X0045000Y0723940D03*
X0055000Y0723940D03*
X0065000Y0723940D03*
X0035000Y0723940D03*
X0035000Y0713940D03*
X0025000Y0713940D03*
X0025000Y0723940D03*
X0015000Y0723940D03*
X0105000Y0723940D03*
X0115000Y0723940D03*
X0125000Y0723940D03*
X0135000Y0723940D03*
X0145000Y0723940D03*
X0155000Y0723940D03*
X0185000Y0723940D03*
X0195000Y0723940D03*
X0205000Y0723940D03*
X0215000Y0723940D03*
X0225000Y0723940D03*
D21*
X0015000Y0546440D03*
X0025000Y0546440D03*
X0035000Y0546440D03*
X0045000Y0546440D03*
X0055000Y0546440D03*
X0055000Y0556440D03*
X0045000Y0556440D03*
X0035000Y0556440D03*
X0025000Y0556440D03*
X0015000Y0556440D03*
D22*
X0065000Y0531440D03*
X0105000Y0521440D03*
X0125000Y0531440D03*
X0220000Y0531440D03*
X0220000Y0521440D03*
D89*
X0230000Y0521440D03*
X0240000Y0521440D03*
X0240000Y0531440D03*
X0230000Y0531440D03*
X0125000Y0521440D03*
X0115000Y0521440D03*
X0115000Y0531440D03*
X0105000Y0531440D03*
X0085000Y0531440D03*
X0075000Y0531440D03*
D96*
X0015000Y0713940D03*
D55*
X0240810Y0724130D03*
X0240810Y0691250D03*
D94*
X0228510Y0698930D02*
X0224150Y0698930D01*
X0224150Y0716450D02*
X0228510Y0716450D01*
X0258720Y0416210D02*
G75*
%LPD*%
D47*
X0295730Y0657930D03*
X0305580Y0657930D03*
X0315420Y0657930D03*
X0395730Y0657930D03*
X0405580Y0657930D03*
X0415420Y0657930D03*
X0495730Y0657930D03*
X0505580Y0657930D03*
X0515420Y0657930D03*
X0595730Y0657930D03*
X0605580Y0657930D03*
X0615420Y0657930D03*
D101*
X0623290Y0687460D03*
X0587860Y0687460D03*
X0523290Y0687460D03*
X0487860Y0687460D03*
X0423290Y0687460D03*
X0387860Y0687460D03*
X0323290Y0687460D03*
X0287860Y0687460D03*
D74*
X0349330Y0496210D03*
X0349330Y0506210D03*
X0359330Y0506210D03*
X0359330Y0516210D03*
X0359330Y0526210D03*
X0349330Y0526210D03*
X0349330Y0516210D03*
X0349330Y0536210D03*
X0349330Y0546210D03*
X0349330Y0586210D03*
X0349330Y0596210D03*
X0349330Y0606210D03*
X0349330Y0616210D03*
X0349330Y0626210D03*
X0349330Y0636210D03*
X0349330Y0666210D03*
X0349330Y0676210D03*
X0349330Y0686210D03*
X0349330Y0696210D03*
X0349330Y0706210D03*
X0451830Y0678710D03*
X0471830Y0678710D03*
X0496830Y0718710D03*
X0506830Y0718710D03*
X0539330Y0576210D03*
X0549330Y0576210D03*
X0539330Y0566210D03*
X0539330Y0556210D03*
X0539330Y0546210D03*
X0499330Y0496210D03*
X0489330Y0496210D03*
X0479330Y0496210D03*
X0469330Y0496210D03*
X0459330Y0496210D03*
X0449330Y0496210D03*
X0439330Y0496210D03*
X0429330Y0496210D03*
X0419330Y0496210D03*
X0409330Y0496210D03*
D87*
X0434330Y0678710D03*
X0434330Y0718710D03*
D22*
X0539330Y0721210D03*
X0549330Y0701210D03*
X0549330Y0586210D03*
X0539330Y0586210D03*
D89*
X0539330Y0596210D03*
X0549330Y0596210D03*
X0549330Y0606210D03*
X0539330Y0606210D03*
X0539330Y0701210D03*
X0539330Y0711210D03*
X0549330Y0711210D03*
X0549330Y0721210D03*
D43*
X0520580Y0642460D03*
X0520580Y0632460D03*
X0520580Y0622460D03*
X0520580Y0612460D03*
X0520580Y0602460D03*
X0490580Y0602460D03*
X0490580Y0612460D03*
X0490580Y0622460D03*
X0490580Y0632460D03*
X0490580Y0642460D03*
X0479330Y0588710D03*
X0479330Y0558710D03*
X0475580Y0547460D03*
X0485580Y0547460D03*
X0495580Y0547460D03*
X0495580Y0517460D03*
X0485580Y0517460D03*
X0475580Y0517460D03*
X0450580Y0522460D03*
X0440580Y0517460D03*
X0430580Y0517460D03*
X0420580Y0517460D03*
X0390580Y0522460D03*
X0380580Y0522460D03*
X0380580Y0542460D03*
X0390580Y0542460D03*
X0420580Y0547460D03*
X0430580Y0547460D03*
X0440580Y0547460D03*
X0450580Y0542460D03*
X0400580Y0587460D03*
X0400580Y0597460D03*
X0400580Y0607460D03*
X0370580Y0607460D03*
X0370580Y0597460D03*
X0370580Y0587460D03*
X0374330Y0662460D03*
X0365580Y0662460D03*
X0365580Y0692460D03*
X0374330Y0692460D03*
X0540580Y0534960D03*
X0545580Y0527460D03*
X0535580Y0527460D03*
X0540580Y0509960D03*
X0545580Y0502460D03*
X0535580Y0502460D03*
D45*
X0520580Y0562460D03*
X0495580Y0577460D03*
X0415580Y0562460D03*
X0385580Y0562460D03*
X0415580Y0592460D03*
X0415580Y0622460D03*
X0385580Y0622460D03*
D62*
X0385580Y0632460D03*
X0415580Y0632460D03*
X0415580Y0602460D03*
X0415580Y0572460D03*
X0385580Y0572460D03*
X0495580Y0587460D03*
X0520580Y0572460D03*
D13*
X0470580Y0622460D03*
X0470580Y0632460D03*
X0470580Y0642460D03*
X0470580Y0652460D03*
X0440580Y0652460D03*
X0440580Y0642460D03*
X0440580Y0632460D03*
X0440580Y0622460D03*
D10*
X0465580Y0554960D03*
X0465580Y0509960D03*
X0405580Y0509960D03*
X0405580Y0554960D03*
D40*
X0460580Y0692270D03*
X0479080Y0704080D03*
X0460580Y0715900D03*
D21*
X0509330Y0536210D03*
X0519330Y0536210D03*
X0519330Y0526210D03*
X0509330Y0526210D03*
X0509330Y0516210D03*
X0519330Y0516210D03*
X0519330Y0506210D03*
X0509330Y0506210D03*
X0509330Y0496210D03*
X0519330Y0496210D03*
D11*
X0596200Y0503090D03*
X0596200Y0487150D03*
X0620890Y0487150D03*
X0620580Y0503080D03*
X0645890Y0503080D03*
X0645890Y0487150D03*
X0645890Y0423080D03*
X0620580Y0423080D03*
X0596200Y0423090D03*
X0596200Y0567150D03*
X0596200Y0583090D03*
X0620580Y0583080D03*
X0620890Y0567150D03*
X0645890Y0567150D03*
X0645890Y0583080D03*
X0645890Y0647150D03*
X0620890Y0647150D03*
X0596200Y0647150D03*
X0314950Y0646830D03*
X0290580Y0646840D03*
X0265260Y0646840D03*
X0265260Y0582770D03*
X0265260Y0566840D03*
X0290580Y0566840D03*
X0290260Y0582770D03*
X0314950Y0582770D03*
X0314950Y0566830D03*
X0314950Y0502770D03*
X0290260Y0502770D03*
X0265260Y0502770D03*
D96*
X0359330Y0496210D03*
D55*
X0351150Y0721940D03*
X0384020Y0721940D03*
D94*
X0376340Y0709640D02*
X0376340Y0705270D01*
X0358820Y0705270D02*
X0358820Y0709640D01*
D33*
X0362460Y0710910D03*
X0365020Y0710910D03*
X0367580Y0710910D03*
X0370140Y0710910D03*
X0372700Y0710910D03*
D77*
X0372110Y0721940D03*
X0363060Y0721940D03*
D13*
X0560580Y0540060D02*
X0560580Y0534860D01*
X0560580Y0500060D02*
X0560580Y0494860D01*
D14*
X0470580Y0567460D03*
X0440580Y0567460D03*
X0440580Y0607460D03*
X0470580Y0607460D03*
X0010000Y0741440D02*
G75*
%LPD*%
D74*
X0095000Y0755440D03*
X0095000Y0765440D03*
X0045000Y0947940D03*
X0045000Y0957940D03*
X0055000Y0957940D03*
X0065000Y0957940D03*
X0035000Y0957940D03*
X0035000Y0947940D03*
X0025000Y0947940D03*
X0025000Y0957940D03*
X0015000Y0957940D03*
X0105000Y0957940D03*
X0115000Y0957940D03*
X0125000Y0957940D03*
X0135000Y0957940D03*
X0145000Y0957940D03*
X0155000Y0957940D03*
X0185000Y0957940D03*
X0195000Y0957940D03*
X0205000Y0957940D03*
X0215000Y0957940D03*
X0225000Y0957940D03*
D21*
X0015000Y0780440D03*
X0025000Y0780440D03*
X0035000Y0780440D03*
X0045000Y0780440D03*
X0055000Y0780440D03*
X0055000Y0790440D03*
X0045000Y0790440D03*
X0035000Y0790440D03*
X0025000Y0790440D03*
X0015000Y0790440D03*
D22*
X0065000Y0765440D03*
X0105000Y0755440D03*
X0125000Y0765440D03*
X0220000Y0765440D03*
X0220000Y0755440D03*
D89*
X0230000Y0755440D03*
X0240000Y0755440D03*
X0240000Y0765440D03*
X0230000Y0765440D03*
X0125000Y0755440D03*
X0115000Y0755440D03*
X0115000Y0765440D03*
X0105000Y0765440D03*
X0085000Y0765440D03*
X0075000Y0765440D03*
D96*
X0015000Y0947940D03*
D55*
X0240810Y0958130D03*
X0240810Y0925250D03*
D94*
X0228510Y0932930D02*
X0224150Y0932930D01*
X0224150Y0950450D02*
X0228510Y0950450D01*
X0258720Y0739460D02*
G75*
%LPD*%
D74*
X0343720Y0753460D03*
X0343720Y0763460D03*
X0293720Y0945960D03*
X0293720Y0955960D03*
X0303720Y0955960D03*
X0313720Y0955960D03*
X0283720Y0955960D03*
X0283720Y0945960D03*
X0273720Y0945960D03*
X0273720Y0955960D03*
X0263720Y0955960D03*
X0353720Y0955960D03*
X0363720Y0955960D03*
X0373720Y0955960D03*
X0383720Y0955960D03*
X0393720Y0955960D03*
X0403720Y0955960D03*
X0433720Y0955960D03*
X0443720Y0955960D03*
X0453720Y0955960D03*
X0463720Y0955960D03*
X0473720Y0955960D03*
D21*
X0263720Y0778460D03*
X0273720Y0778460D03*
X0283720Y0778460D03*
X0293720Y0778460D03*
X0303720Y0778460D03*
X0303720Y0788460D03*
X0293720Y0788460D03*
X0283720Y0788460D03*
X0273720Y0788460D03*
X0263720Y0788460D03*
D22*
X0313720Y0763460D03*
X0353720Y0753460D03*
X0373720Y0763460D03*
X0468720Y0763460D03*
X0468720Y0753460D03*
D89*
X0478720Y0753460D03*
X0488720Y0753460D03*
X0488720Y0763460D03*
X0478720Y0763460D03*
X0373720Y0753460D03*
X0363720Y0753460D03*
X0363720Y0763460D03*
X0353720Y0763460D03*
X0333720Y0763460D03*
X0323720Y0763460D03*
D96*
X0263720Y0945960D03*
D55*
X0489530Y0956150D03*
X0489530Y0923270D03*
D94*
X0477230Y0930950D02*
X0472870Y0930950D01*
X0472870Y0948470D02*
X0477230Y0948470D01*
X0965030Y0416210D02*
G75*
%LPD*%
D74*
X1050030Y0430210D03*
X1050030Y0440210D03*
X1000030Y0622710D03*
X1000030Y0632710D03*
X1010030Y0632710D03*
X1020030Y0632710D03*
X0990030Y0632710D03*
X0990030Y0622710D03*
X0980030Y0622710D03*
X0980030Y0632710D03*
X0970030Y0632710D03*
X1060030Y0632710D03*
X1070030Y0632710D03*
X1080030Y0632710D03*
X1090030Y0632710D03*
X1100030Y0632710D03*
X1110030Y0632710D03*
X1140030Y0632710D03*
X1150030Y0632710D03*
X1160030Y0632710D03*
X1170030Y0632710D03*
X1180030Y0632710D03*
D21*
X0970030Y0455210D03*
X0980030Y0455210D03*
X0990030Y0455210D03*
X1000030Y0455210D03*
X1010030Y0455210D03*
X1010030Y0465210D03*
X1000030Y0465210D03*
X0990030Y0465210D03*
X0980030Y0465210D03*
X0970030Y0465210D03*
D22*
X1020030Y0440210D03*
X1060030Y0430210D03*
X1080030Y0440210D03*
X1175030Y0440210D03*
X1175030Y0430210D03*
D89*
X1185030Y0430210D03*
X1195030Y0430210D03*
X1195030Y0440210D03*
X1185030Y0440210D03*
X1080030Y0430210D03*
X1070030Y0430210D03*
X1070030Y0440210D03*
X1060030Y0440210D03*
X1040030Y0440210D03*
X1030030Y0440210D03*
D96*
X0970030Y0622710D03*
D55*
X1195840Y0632900D03*
X1195840Y0600020D03*
D94*
X1183540Y0607700D02*
X1179180Y0607700D01*
X1179180Y0625220D02*
X1183540Y0625220D01*
X0807540Y0650210D02*
G75*
%LPD*%
D47*
X0844550Y0891930D03*
X0854400Y0891930D03*
X0864240Y0891930D03*
X0944550Y0891930D03*
X0954400Y0891930D03*
X0964240Y0891930D03*
X1044550Y0891930D03*
X1054400Y0891930D03*
X1064240Y0891930D03*
X1144550Y0891930D03*
X1154400Y0891930D03*
X1164240Y0891930D03*
D101*
X1172110Y0921460D03*
X1136680Y0921460D03*
X1072110Y0921460D03*
X1036680Y0921460D03*
X0972110Y0921460D03*
X0936680Y0921460D03*
X0872110Y0921460D03*
X0836680Y0921460D03*
D74*
X0898150Y0730210D03*
X0898150Y0740210D03*
X0908150Y0740210D03*
X0908150Y0750210D03*
X0908150Y0760210D03*
X0898150Y0760210D03*
X0898150Y0750210D03*
X0898150Y0770210D03*
X0898150Y0780210D03*
X0898150Y0820210D03*
X0898150Y0830210D03*
X0898150Y0840210D03*
X0898150Y0850210D03*
X0898150Y0860210D03*
X0898150Y0870210D03*
X0898150Y0900210D03*
X0898150Y0910210D03*
X0898150Y0920210D03*
X0898150Y0930210D03*
X0898150Y0940210D03*
X1000650Y0912710D03*
X1020650Y0912710D03*
X1045650Y0952710D03*
X1055650Y0952710D03*
X1088150Y0810210D03*
X1098150Y0810210D03*
X1088150Y0800210D03*
X1088150Y0790210D03*
X1088150Y0780210D03*
X1048150Y0730210D03*
X1038150Y0730210D03*
X1028150Y0730210D03*
X1018150Y0730210D03*
X1008150Y0730210D03*
X0998150Y0730210D03*
X0988150Y0730210D03*
X0978150Y0730210D03*
X0968150Y0730210D03*
X0958150Y0730210D03*
D87*
X0983150Y0912710D03*
X0983150Y0952710D03*
D22*
X1088150Y0955210D03*
X1098150Y0935210D03*
X1098150Y0820210D03*
X1088150Y0820210D03*
D89*
X1088150Y0830210D03*
X1098150Y0830210D03*
X1098150Y0840210D03*
X1088150Y0840210D03*
X1088150Y0935210D03*
X1088150Y0945210D03*
X1098150Y0945210D03*
X1098150Y0955210D03*
D43*
X1069400Y0876460D03*
X1069400Y0866460D03*
X1069400Y0856460D03*
X1069400Y0846460D03*
X1069400Y0836460D03*
X1039400Y0836460D03*
X1039400Y0846460D03*
X1039400Y0856460D03*
X1039400Y0866460D03*
X1039400Y0876460D03*
X1028150Y0822710D03*
X1028150Y0792710D03*
X1024400Y0781460D03*
X1034400Y0781460D03*
X1044400Y0781460D03*
X1044400Y0751460D03*
X1034400Y0751460D03*
X1024400Y0751460D03*
X0999400Y0756460D03*
X0989400Y0751460D03*
X0979400Y0751460D03*
X0969400Y0751460D03*
X0939400Y0756460D03*
X0929400Y0756460D03*
X0929400Y0776460D03*
X0939400Y0776460D03*
X0969400Y0781460D03*
X0979400Y0781460D03*
X0989400Y0781460D03*
X0999400Y0776460D03*
X0949400Y0821460D03*
X0949400Y0831460D03*
X0949400Y0841460D03*
X0919400Y0841460D03*
X0919400Y0831460D03*
X0919400Y0821460D03*
X0923150Y0896460D03*
X0914400Y0896460D03*
X0914400Y0926460D03*
X0923150Y0926460D03*
X1089400Y0768960D03*
X1094400Y0761460D03*
X1084400Y0761460D03*
X1089400Y0743960D03*
X1094400Y0736460D03*
X1084400Y0736460D03*
D45*
X1069400Y0796460D03*
X1044400Y0811460D03*
X0964400Y0796460D03*
X0934400Y0796460D03*
X0964400Y0826460D03*
X0964400Y0856460D03*
X0934400Y0856460D03*
D62*
X0934400Y0866460D03*
X0964400Y0866460D03*
X0964400Y0836460D03*
X0964400Y0806460D03*
X0934400Y0806460D03*
X1044400Y0821460D03*
X1069400Y0806460D03*
D13*
X1019400Y0856460D03*
X1019400Y0866460D03*
X1019400Y0876460D03*
X1019400Y0886460D03*
X0989400Y0886460D03*
X0989400Y0876460D03*
X0989400Y0866460D03*
X0989400Y0856460D03*
D10*
X1014400Y0788960D03*
X1014400Y0743960D03*
X0954400Y0743960D03*
X0954400Y0788960D03*
D40*
X1009400Y0926270D03*
X1027900Y0938080D03*
X1009400Y0949900D03*
D21*
X1058150Y0770210D03*
X1068150Y0770210D03*
X1068150Y0760210D03*
X1058150Y0760210D03*
X1058150Y0750210D03*
X1068150Y0750210D03*
X1068150Y0740210D03*
X1058150Y0740210D03*
X1058150Y0730210D03*
X1068150Y0730210D03*
D11*
X1145020Y0737090D03*
X1145020Y0721150D03*
X1169710Y0721150D03*
X1169400Y0737080D03*
X1194710Y0737080D03*
X1194710Y0721150D03*
X1194710Y0657080D03*
X1169400Y0657080D03*
X1145020Y0657090D03*
X1145020Y0801150D03*
X1145020Y0817090D03*
X1169400Y0817080D03*
X1169710Y0801150D03*
X1194710Y0801150D03*
X1194710Y0817080D03*
X1194710Y0881150D03*
X1169710Y0881150D03*
X1145020Y0881150D03*
X0863770Y0880830D03*
X0839400Y0880840D03*
X0814080Y0880840D03*
X0814080Y0816770D03*
X0814080Y0800840D03*
X0839400Y0800840D03*
X0839080Y0816770D03*
X0863770Y0816770D03*
X0863770Y0800830D03*
X0863770Y0736770D03*
X0839080Y0736770D03*
X0814080Y0736770D03*
D96*
X0908150Y0730210D03*
D55*
X0899970Y0955940D03*
X0932840Y0955940D03*
D94*
X0925160Y0943640D02*
X0925160Y0939270D01*
X0907640Y0939270D02*
X0907640Y0943640D01*
D33*
X0911280Y0944910D03*
X0913840Y0944910D03*
X0916400Y0944910D03*
X0918960Y0944910D03*
X0921520Y0944910D03*
D77*
X0920930Y0955940D03*
X0911880Y0955940D03*
D13*
X1109400Y0774060D02*
X1109400Y0768860D01*
X1109400Y0734060D02*
X1109400Y0728860D01*
D14*
X1019400Y0801460D03*
X0989400Y0801460D03*
X0989400Y0841460D03*
X1019400Y0841460D03*
X0664930Y0416210D02*
G75*
%LPD*%
D74*
X0749930Y0430210D03*
X0749930Y0440210D03*
X0699930Y0622710D03*
X0699930Y0632710D03*
X0709930Y0632710D03*
X0719930Y0632710D03*
X0689930Y0632710D03*
X0689930Y0622710D03*
X0679930Y0622710D03*
X0679930Y0632710D03*
X0669930Y0632710D03*
X0759930Y0632710D03*
X0769930Y0632710D03*
X0779930Y0632710D03*
X0789930Y0632710D03*
X0799930Y0632710D03*
X0809930Y0632710D03*
X0839930Y0632710D03*
X0849930Y0632710D03*
X0859930Y0632710D03*
X0869930Y0632710D03*
X0879930Y0632710D03*
D21*
X0669930Y0455210D03*
X0679930Y0455210D03*
X0689930Y0455210D03*
X0699930Y0455210D03*
X0709930Y0455210D03*
X0709930Y0465210D03*
X0699930Y0465210D03*
X0689930Y0465210D03*
X0679930Y0465210D03*
X0669930Y0465210D03*
D22*
X0719930Y0440210D03*
X0759930Y0430210D03*
X0779930Y0440210D03*
X0874930Y0440210D03*
X0874930Y0430210D03*
D89*
X0884930Y0430210D03*
X0894930Y0430210D03*
X0894930Y0440210D03*
X0884930Y0440210D03*
X0779930Y0430210D03*
X0769930Y0430210D03*
X0769930Y0440210D03*
X0759930Y0440210D03*
X0739930Y0440210D03*
X0729930Y0440210D03*
D96*
X0669930Y0622710D03*
D55*
X0895740Y0632900D03*
X0895740Y0600020D03*
D94*
X0883440Y0607700D02*
X0879080Y0607700D01*
X0879080Y0625220D02*
X0883440Y0625220D01*
X0507440Y0739460D02*
G75*
%LPD*%
D74*
X0592440Y0753460D03*
X0592440Y0763460D03*
X0542440Y0945960D03*
X0542440Y0955960D03*
X0552440Y0955960D03*
X0562440Y0955960D03*
X0532440Y0955960D03*
X0532440Y0945960D03*
X0522440Y0945960D03*
X0522440Y0955960D03*
X0512440Y0955960D03*
X0602440Y0955960D03*
X0612440Y0955960D03*
X0622440Y0955960D03*
X0632440Y0955960D03*
X0642440Y0955960D03*
X0652440Y0955960D03*
X0682440Y0955960D03*
X0692440Y0955960D03*
X0702440Y0955960D03*
X0712440Y0955960D03*
X0722440Y0955960D03*
D21*
X0512440Y0778460D03*
X0522440Y0778460D03*
X0532440Y0778460D03*
X0542440Y0778460D03*
X0552440Y0778460D03*
X0552440Y0788460D03*
X0542440Y0788460D03*
X0532440Y0788460D03*
X0522440Y0788460D03*
X0512440Y0788460D03*
D22*
X0562440Y0763460D03*
X0602440Y0753460D03*
X0622440Y0763460D03*
X0717440Y0763460D03*
X0717440Y0753460D03*
D89*
X0727440Y0753460D03*
X0737440Y0753460D03*
X0737440Y0763460D03*
X0727440Y0763460D03*
X0622440Y0753460D03*
X0612440Y0753460D03*
X0612440Y0763460D03*
X0602440Y0763460D03*
X0582440Y0763460D03*
X0572440Y0763460D03*
D96*
X0512440Y0945960D03*
D55*
X0738250Y0956150D03*
X0738250Y0923270D03*
D94*
X0725950Y0930950D02*
X0721590Y0930950D01*
X0721590Y0948470D02*
X0725950Y0948470D01*
X1213750Y0656500D02*
G75*
%LPD*%
D47*
X1250760Y0898220D03*
X1260610Y0898220D03*
X1270450Y0898220D03*
X1350760Y0898220D03*
X1360610Y0898220D03*
X1370450Y0898220D03*
X1450760Y0898220D03*
X1460610Y0898220D03*
X1470450Y0898220D03*
X1550760Y0898220D03*
X1560610Y0898220D03*
X1570450Y0898220D03*
D101*
X1578320Y0927750D03*
X1542890Y0927750D03*
X1478320Y0927750D03*
X1442890Y0927750D03*
X1378320Y0927750D03*
X1342890Y0927750D03*
X1278320Y0927750D03*
X1242890Y0927750D03*
D74*
X1304360Y0736500D03*
X1304360Y0746500D03*
X1314360Y0746500D03*
X1314360Y0756500D03*
X1314360Y0766500D03*
X1304360Y0766500D03*
X1304360Y0756500D03*
X1304360Y0776500D03*
X1304360Y0786500D03*
X1304360Y0826500D03*
X1304360Y0836500D03*
X1304360Y0846500D03*
X1304360Y0856500D03*
X1304360Y0866500D03*
X1304360Y0876500D03*
X1304360Y0906500D03*
X1304360Y0916500D03*
X1304360Y0926500D03*
X1304360Y0936500D03*
X1304360Y0946500D03*
X1406860Y0919000D03*
X1426860Y0919000D03*
X1451860Y0959000D03*
X1461860Y0959000D03*
X1494360Y0816500D03*
X1504360Y0816500D03*
X1494360Y0806500D03*
X1494360Y0796500D03*
X1494360Y0786500D03*
X1454360Y0736500D03*
X1444360Y0736500D03*
X1434360Y0736500D03*
X1424360Y0736500D03*
X1414360Y0736500D03*
X1404360Y0736500D03*
X1394360Y0736500D03*
X1384360Y0736500D03*
X1374360Y0736500D03*
X1364360Y0736500D03*
D87*
X1389360Y0919000D03*
X1389360Y0959000D03*
D22*
X1494360Y0961500D03*
X1504360Y0941500D03*
X1504360Y0826500D03*
X1494360Y0826500D03*
D89*
X1494360Y0836500D03*
X1504360Y0836500D03*
X1504360Y0846500D03*
X1494360Y0846500D03*
X1494360Y0941500D03*
X1494360Y0951500D03*
X1504360Y0951500D03*
X1504360Y0961500D03*
D43*
X1475610Y0882750D03*
X1475610Y0872750D03*
X1475610Y0862750D03*
X1475610Y0852750D03*
X1475610Y0842750D03*
X1445610Y0842750D03*
X1445610Y0852750D03*
X1445610Y0862750D03*
X1445610Y0872750D03*
X1445610Y0882750D03*
X1434360Y0829000D03*
X1434360Y0799000D03*
X1430610Y0787750D03*
X1440610Y0787750D03*
X1450610Y0787750D03*
X1450610Y0757750D03*
X1440610Y0757750D03*
X1430610Y0757750D03*
X1405610Y0762750D03*
X1395610Y0757750D03*
X1385610Y0757750D03*
X1375610Y0757750D03*
X1345610Y0762750D03*
X1335610Y0762750D03*
X1335610Y0782750D03*
X1345610Y0782750D03*
X1375610Y0787750D03*
X1385610Y0787750D03*
X1395610Y0787750D03*
X1405610Y0782750D03*
X1355610Y0827750D03*
X1355610Y0837750D03*
X1355610Y0847750D03*
X1325610Y0847750D03*
X1325610Y0837750D03*
X1325610Y0827750D03*
X1329360Y0902750D03*
X1320610Y0902750D03*
X1320610Y0932750D03*
X1329360Y0932750D03*
X1495610Y0775250D03*
X1500610Y0767750D03*
X1490610Y0767750D03*
X1495610Y0750250D03*
X1500610Y0742750D03*
X1490610Y0742750D03*
D45*
X1475610Y0802750D03*
X1450610Y0817750D03*
X1370610Y0802750D03*
X1340610Y0802750D03*
X1370610Y0832750D03*
X1370610Y0862750D03*
X1340610Y0862750D03*
D62*
X1340610Y0872750D03*
X1370610Y0872750D03*
X1370610Y0842750D03*
X1370610Y0812750D03*
X1340610Y0812750D03*
X1450610Y0827750D03*
X1475610Y0812750D03*
D13*
X1425610Y0862750D03*
X1425610Y0872750D03*
X1425610Y0882750D03*
X1425610Y0892750D03*
X1395610Y0892750D03*
X1395610Y0882750D03*
X1395610Y0872750D03*
X1395610Y0862750D03*
D10*
X1420610Y0795250D03*
X1420610Y0750250D03*
X1360610Y0750250D03*
X1360610Y0795250D03*
D40*
X1415610Y0932560D03*
X1434110Y0944370D03*
X1415610Y0956190D03*
D21*
X1464360Y0776500D03*
X1474360Y0776500D03*
X1474360Y0766500D03*
X1464360Y0766500D03*
X1464360Y0756500D03*
X1474360Y0756500D03*
X1474360Y0746500D03*
X1464360Y0746500D03*
X1464360Y0736500D03*
X1474360Y0736500D03*
D11*
X1551230Y0743380D03*
X1551230Y0727440D03*
X1575920Y0727440D03*
X1575610Y0743370D03*
X1600920Y0743370D03*
X1600920Y0727440D03*
X1600920Y0663370D03*
X1575610Y0663370D03*
X1551230Y0663380D03*
X1551230Y0807440D03*
X1551230Y0823380D03*
X1575610Y0823370D03*
X1575920Y0807440D03*
X1600920Y0807440D03*
X1600920Y0823370D03*
X1600920Y0887440D03*
X1575920Y0887440D03*
X1551230Y0887440D03*
X1269980Y0887120D03*
X1245610Y0887130D03*
X1220290Y0887130D03*
X1220290Y0823060D03*
X1220290Y0807130D03*
X1245610Y0807130D03*
X1245290Y0823060D03*
X1269980Y0823060D03*
X1269980Y0807120D03*
X1269980Y0743060D03*
X1245290Y0743060D03*
X1220290Y0743060D03*
D96*
X1314360Y0736500D03*
D55*
X1306180Y0962230D03*
X1339050Y0962230D03*
D94*
X1331370Y0949930D02*
X1331370Y0945560D01*
X1313850Y0945560D02*
X1313850Y0949930D01*
D33*
X1317490Y0951200D03*
X1320050Y0951200D03*
X1322610Y0951200D03*
X1325170Y0951200D03*
X1327730Y0951200D03*
D77*
X1327140Y0962230D03*
X1318090Y0962230D03*
D13*
X1515610Y0780350D02*
X1515610Y0775150D01*
X1515610Y0740350D02*
X1515610Y0735150D01*
D14*
X1425610Y0807750D03*
X1395610Y0807750D03*
X1395610Y0847750D03*
X1425610Y0847750D03*
M02*
