%
T01C0.021650
X13300Y26125
X12300Y27125
X11800Y29500
X13300Y30625
X7300Y30625
X3425Y29125
X4300Y26625
X2425Y23125
X2925Y22625
X5550Y19625
X12800Y13000
X12300Y12500
X17550Y15125
X23550Y12625
X24300Y17625
X23300Y18625
X30425Y20125
X26300Y27125
X5675Y8625
X11300Y13625
X8425Y16000
X20675Y16125
X22800Y17125
X20800Y18125
X21800Y19625
X24800Y22625
X25300Y23125
X30425Y18125
X29800Y13625
X27175Y11125
X26300Y12125
X26300Y9625
X20675Y12625
X32800Y11125
X33800Y12125
X33800Y23000
X18800Y26625
X13300Y59625
X12300Y60625
X11800Y63000
X13300Y64125
X7300Y64125
X3425Y62625
X4300Y60125
X2425Y56625
X2925Y56125
X5550Y53125
X12800Y46500
X12300Y46000
X17550Y48625
X23550Y46125
X24300Y51125
X23300Y52125
X30425Y53625
X26300Y60625
X5675Y42125
X11300Y47125
X8425Y49500
X20675Y49625
X22800Y50625
X20800Y51625
X21800Y53125
X24800Y56125
X25300Y56625
X30425Y51625
X29800Y47125
X27175Y44625
X26300Y45625
X26300Y43125
X20675Y46125
X32800Y44625
X33800Y45625
X33800Y56500
X18800Y60125
X13300Y93125
X12300Y94125
X11800Y96500
X13300Y97625
X7300Y97625
X3425Y96125
X4300Y93625
X2425Y90125
X2925Y89625
X5550Y86625
X12800Y80000
X12300Y79500
X17550Y82125
X23550Y79625
X24300Y84625
X23300Y85625
X30425Y87125
X26300Y94125
X5675Y75625
X11300Y80625
X8425Y83000
X20675Y83125
X22800Y84125
X20800Y85125
X21800Y86625
X24800Y89625
X25300Y90125
X30425Y85125
X29800Y80625
X27175Y78125
X26300Y79125
X26300Y76625
X20675Y79625
X32800Y78125
X33800Y79125
X33800Y90000
X18800Y93625
X54800Y26125
X53800Y27125
X53300Y29500
X54800Y30625
X48800Y30625
X44925Y29125
X45800Y26625
X43925Y23125
X44425Y22625
X47050Y19625
X54300Y13000
X53800Y12500
X59050Y15125
X65050Y12625
X65800Y17625
X64800Y18625
X71925Y20125
X67800Y27125
X47175Y8625
X52800Y13625
X49925Y16000
X62175Y16125
X64300Y17125
X62300Y18125
X63300Y19625
X66300Y22625
X66800Y23125
X71925Y18125
X71300Y13625
X68675Y11125
X67800Y12125
X67800Y9625
X62175Y12625
X74300Y11125
X75300Y12125
X75300Y23000
X60300Y26625
X54800Y59625
X53800Y60625
X53300Y63000
X54800Y64125
X48800Y64125
X44925Y62625
X45800Y60125
X43925Y56625
X44425Y56125
X47050Y53125
X54300Y46500
X53800Y46000
X59050Y48625
X65050Y46125
X65800Y51125
X64800Y52125
X71925Y53625
X67800Y60625
X47175Y42125
X52800Y47125
X49925Y49500
X62175Y49625
X64300Y50625
X62300Y51625
X63300Y53125
X66300Y56125
X66800Y56625
X71925Y51625
X71300Y47125
X68675Y44625
X67800Y45625
X67800Y43125
X62175Y46125
X74300Y44625
X75300Y45625
X75300Y56500
X60300Y60125
X54800Y93125
X53800Y94125
X53300Y96500
X54800Y97625
X48800Y97625
X44925Y96125
X45800Y93625
X43925Y90125
X44425Y89625
X47050Y86625
X54300Y80000
X53800Y79500
X59050Y82125
X65050Y79625
X65800Y84625
X64800Y85625
X71925Y87125
X67800Y94125
X47175Y75625
X52800Y80625
X49925Y83000
X62175Y83125
X64300Y84125
X62300Y85125
X63300Y86625
X66300Y89625
X66800Y90125
X71925Y85125
X71300Y80625
X68675Y78125
X67800Y79125
X67800Y76625
X62175Y79625
X74300Y78125
X75300Y79125
X75300Y90000
X60300Y93625
X90375Y1525
X90375Y2400
X93125Y1650
X93125Y3400
X93000Y5025
X93250Y5650
X93000Y6275
X94750Y6275
X95500Y6650
X96875Y5400
X97250Y5775
X98000Y4900
X97625Y4650
X96500Y4775
X97000Y3400
X97000Y2400
X98625Y2400
X98625Y3275
X98625Y3775
X100375Y3650
X100875Y3650
X101500Y3525
X101500Y3025
X102875Y2400
X104000Y3150
X103500Y5650
X103500Y6525
X102125Y7275
X101750Y7525
X101375Y7775
X101170Y8196
X100250Y8650
X99750Y9650
X99375Y9400
X99000Y9150
X98625Y8900
X96750Y10275
X96875Y10775
X97250Y11650
X97750Y11775
X98125Y12025
X98500Y11775
X99875Y12400
X99875Y12900
X99875Y13400
X99375Y13400
X99000Y13650
X99750Y13900
X99000Y14650
X98375Y15150
X98750Y15400
X98000Y14900
X98250Y16150
X98250Y16650
X97750Y16650
X98000Y17400
X98375Y17775
X98750Y18150
X99000Y18525
X99500Y18900
X99125Y19150
X98375Y19150
X98000Y19400
X97625Y19150
X97125Y19025
X96250Y19025
X95750Y19025
X95375Y19525
X95000Y18900
X94625Y18400
X94250Y18775
X93750Y18275
X94500Y17775
X95000Y17775
X95000Y17275
X95000Y16775
X94375Y15650
X95000Y14775
X95000Y14275
X95000Y13775
X94750Y12775
X93375Y13650
X93000Y14400
X92500Y15275
X90000Y13025
X90375Y12775
X90750Y12525
X91250Y12275
X90875Y11650
X89250Y13025
X89625Y13275
X88875Y12775
X88500Y12525
X88000Y13025
X88250Y13400
X88500Y13775
X88750Y14150
X86625Y14900
X86250Y15150
X85875Y14900
X86500Y13775
X86500Y12275
X85625Y11025
X85625Y10025
X86250Y8275
X87000Y8275
X88250Y10275
X88750Y10275
X88250Y11775
X90625Y8775
X92750Y9025
X94625Y10150
X95250Y10775
X94250Y11650
X93000Y11650
X96250Y15525
X96250Y16650
X97000Y17025
X99000Y16605
X99792Y16693
X100125Y17025
X101625Y15525
X101625Y15025
X102125Y15275
X102625Y14650
X102625Y14150
X102625Y13650
X102237Y12913
X101927Y12598
X101617Y12283
X100625Y11775
X101170Y11605
X106375Y14525
X106375Y16025
X103250Y17775
X102875Y17400
X102125Y19025
X103250Y19525
X102875Y20025
X102625Y21025
X102250Y21650
X104125Y20525
X99750Y21400
X98500Y21275
X97000Y21650
X94500Y20025
X93750Y20025
X93750Y21025
X92625Y21150
X92125Y20900
X91750Y21150
X91500Y21900
X90750Y21150
X90750Y20400
X89250Y20400
X88125Y20650
X87000Y20275
X89250Y18900
X89750Y18900
X91000Y18900
X91500Y18900
X92250Y18900
X92625Y18650
X92750Y18275
X93000Y18900
X86625Y16900
X86375Y16525
X86000Y18025
X89500Y6275
X94750Y5025
X99875Y5775
X100375Y4650
X100875Y4650
X107625Y5900
X107625Y7150
X90375Y25525
X90375Y26400
X93125Y25650
X93125Y27400
X93000Y29025
X93250Y29650
X93000Y30275
X94750Y30275
X95500Y30650
X96875Y29400
X97250Y29775
X98000Y28900
X97625Y28650
X96500Y28775
X97000Y27400
X97000Y26400
X98625Y26400
X98625Y27275
X98625Y27775
X100375Y27650
X100875Y27650
X101500Y27525
X101500Y27025
X102875Y26400
X104000Y27150
X103500Y29650
X103500Y30525
X102125Y31275
X101750Y31525
X101375Y31775
X101170Y32196
X100250Y32650
X99750Y33650
X99375Y33400
X99000Y33150
X98625Y32900
X96750Y34275
X96875Y34775
X97250Y35650
X97750Y35775
X98125Y36025
X98500Y35775
X99875Y36400
X99875Y36900
X99875Y37400
X99375Y37400
X99000Y37650
X99750Y37900
X99000Y38650
X98375Y39150
X98750Y39400
X98000Y38900
X98250Y40150
X98250Y40650
X97750Y40650
X98000Y41400
X98375Y41775
X98750Y42150
X99000Y42525
X99500Y42900
X99125Y43150
X98375Y43150
X98000Y43400
X97625Y43150
X97125Y43025
X96250Y43025
X95750Y43025
X95375Y43525
X95000Y42900
X94625Y42400
X94250Y42775
X93750Y42275
X94500Y41775
X95000Y41775
X95000Y41275
X95000Y40775
X94375Y39650
X95000Y38775
X95000Y38275
X95000Y37775
X94750Y36775
X93375Y37650
X93000Y38400
X92500Y39275
X90000Y37025
X90375Y36775
X90750Y36525
X91250Y36275
X90875Y35650
X89250Y37025
X89625Y37275
X88875Y36775
X88500Y36525
X88000Y37025
X88250Y37400
X88500Y37775
X88750Y38150
X86625Y38900
X86250Y39150
X85875Y38900
X86500Y37775
X86500Y36275
X85625Y35025
X85625Y34025
X86250Y32275
X87000Y32275
X88250Y34275
X88750Y34275
X88250Y35775
X90625Y32775
X92750Y33025
X94625Y34150
X95250Y34775
X94250Y35650
X93000Y35650
X96250Y39525
X96250Y40650
X97000Y41025
X99000Y40605
X99792Y40693
X100125Y41025
X101625Y39525
X101625Y39025
X102125Y39275
X102625Y38650
X102625Y38150
X102625Y37650
X102237Y36913
X101927Y36598
X101617Y36283
X100625Y35775
X101170Y35605
X106375Y38525
X106375Y40025
X103250Y41775
X102875Y41400
X102125Y43025
X103250Y43525
X102875Y44025
X102625Y45025
X102250Y45650
X104125Y44525
X99750Y45400
X98500Y45275
X97000Y45650
X94500Y44025
X93750Y44025
X93750Y45025
X92625Y45150
X92125Y44900
X91750Y45150
X91500Y45900
X90750Y45150
X90750Y44400
X89250Y44400
X88125Y44650
X87000Y44275
X89250Y42900
X89750Y42900
X91000Y42900
X91500Y42900
X92250Y42900
X92625Y42650
X92750Y42275
X93000Y42900
X86625Y40900
X86375Y40525
X86000Y42025
X89500Y30275
X94750Y29025
X99875Y29775
X100375Y28650
X100875Y28650
X107625Y29900
X107625Y31150
X90375Y49525
X90375Y50400
X93125Y49650
X93125Y51400
X93000Y53025
X93250Y53650
X93000Y54275
X94750Y54275
X95500Y54650
X96875Y53400
X97250Y53775
X98000Y52900
X97625Y52650
X96500Y52775
X97000Y51400
X97000Y50400
X98625Y50400
X98625Y51275
X98625Y51775
X100375Y51650
X100875Y51650
X101500Y51525
X101500Y51025
X102875Y50400
X104000Y51150
X103500Y53650
X103500Y54525
X102125Y55275
X101750Y55525
X101375Y55775
X101170Y56196
X100250Y56650
X99750Y57650
X99375Y57400
X99000Y57150
X98625Y56900
X96750Y58275
X96875Y58775
X97250Y59650
X97750Y59775
X98125Y60025
X98500Y59775
X99875Y60400
X99875Y60900
X99875Y61400
X99375Y61400
X99000Y61650
X99750Y61900
X99000Y62650
X98375Y63150
X98750Y63400
X98000Y62900
X98250Y64150
X98250Y64650
X97750Y64650
X98000Y65400
X98375Y65775
X98750Y66150
X99000Y66525
X99500Y66900
X99125Y67150
X98375Y67150
X98000Y67400
X97625Y67150
X97125Y67025
X96250Y67025
X95750Y67025
X95375Y67525
X95000Y66900
X94625Y66400
X94250Y66775
X93750Y66275
X94500Y65775
X95000Y65775
X95000Y65275
X95000Y64775
X94375Y63650
X95000Y62775
X95000Y62275
X95000Y61775
X94750Y60775
X93375Y61650
X93000Y62400
X92500Y63275
X90000Y61025
X90375Y60775
X90750Y60525
X91250Y60275
X90875Y59650
X89250Y61025
X89625Y61275
X88875Y60775
X88500Y60525
X88000Y61025
X88250Y61400
X88500Y61775
X88750Y62150
X86625Y62900
X86250Y63150
X85875Y62900
X86500Y61775
X86500Y60275
X85625Y59025
X85625Y58025
X86250Y56275
X87000Y56275
X88250Y58275
X88750Y58275
X88250Y59775
X90625Y56775
X92750Y57025
X94625Y58150
X95250Y58775
X94250Y59650
X93000Y59650
X96250Y63525
X96250Y64650
X97000Y65025
X99000Y64605
X99792Y64693
X100125Y65025
X101625Y63525
X101625Y63025
X102125Y63275
X102625Y62650
X102625Y62150
X102625Y61650
X102237Y60913
X101927Y60598
X101617Y60283
X100625Y59775
X101170Y59605
X106375Y62525
X106375Y64025
X103250Y65775
X102875Y65400
X102125Y67025
X103250Y67525
X102875Y68025
X102625Y69025
X102250Y69650
X104125Y68525
X99750Y69400
X98500Y69275
X97000Y69650
X94500Y68025
X93750Y68025
X93750Y69025
X92625Y69150
X92125Y68900
X91750Y69150
X91500Y69900
X90750Y69150
X90750Y68400
X89250Y68400
X88125Y68650
X87000Y68275
X89250Y66900
X89750Y66900
X91000Y66900
X91500Y66900
X92250Y66900
X92625Y66650
X92750Y66275
X93000Y66900
X86625Y64900
X86375Y64525
X86000Y66025
X89500Y54275
X94750Y53025
X99875Y53775
X100375Y52650
X100875Y52650
X107625Y53900
X107625Y55150
X90375Y73525
X90375Y74400
X93125Y73650
X93125Y75400
X93000Y77025
X93250Y77650
X93000Y78275
X94750Y78275
X95500Y78650
X96875Y77400
X97250Y77775
X98000Y76900
X97625Y76650
X96500Y76775
X97000Y75400
X97000Y74400
X98625Y74400
X98625Y75275
X98625Y75775
X100375Y75650
X100875Y75650
X101500Y75525
X101500Y75025
X102875Y74400
X104000Y75150
X103500Y77650
X103500Y78525
X102125Y79275
X101750Y79525
X101375Y79775
X101170Y80196
X100250Y80650
X99750Y81650
X99375Y81400
X99000Y81150
X98625Y80900
X96750Y82275
X96875Y82775
X97250Y83650
X97750Y83775
X98125Y84025
X98500Y83775
X99875Y84400
X99875Y84900
X99875Y85400
X99375Y85400
X99000Y85650
X99750Y85900
X99000Y86650
X98375Y87150
X98750Y87400
X98000Y86900
X98250Y88150
X98250Y88650
X97750Y88650
X98000Y89400
X98375Y89775
X98750Y90150
X99000Y90525
X99500Y90900
X99125Y91150
X98375Y91150
X98000Y91400
X97625Y91150
X97125Y91025
X96250Y91025
X95750Y91025
X95375Y91525
X95000Y90900
X94625Y90400
X94250Y90775
X93750Y90275
X94500Y89775
X95000Y89775
X95000Y89275
X95000Y88775
X94375Y87650
X95000Y86775
X95000Y86275
X95000Y85775
X94750Y84775
X93375Y85650
X93000Y86400
X92500Y87275
X90000Y85025
X90375Y84775
X90750Y84525
X91250Y84275
X90875Y83650
X89250Y85025
X89625Y85275
X88875Y84775
X88500Y84525
X88000Y85025
X88250Y85400
X88500Y85775
X88750Y86150
X86625Y86900
X86250Y87150
X85875Y86900
X86500Y85775
X86500Y84275
X85625Y83025
X85625Y82025
X86250Y80275
X87000Y80275
X88250Y82275
X88750Y82275
X88250Y83775
X90625Y80775
X92750Y81025
X94625Y82150
X95250Y82775
X94250Y83650
X93000Y83650
X96250Y87525
X96250Y88650
X97000Y89025
X99000Y88605
X99792Y88693
X100125Y89025
X101625Y87525
X101625Y87025
X102125Y87275
X102625Y86650
X102625Y86150
X102625Y85650
X102237Y84913
X101927Y84598
X101617Y84283
X100625Y83775
X101170Y83605
X106375Y86525
X106375Y88025
X103250Y89775
X102875Y89400
X102125Y91025
X103250Y91525
X102875Y92025
X102625Y93025
X102250Y93650
X104125Y92525
X99750Y93400
X98500Y93275
X97000Y93650
X94500Y92025
X93750Y92025
X93750Y93025
X92625Y93150
X92125Y92900
X91750Y93150
X91500Y93900
X90750Y93150
X90750Y92400
X89250Y92400
X88125Y92650
X87000Y92275
X89250Y90900
X89750Y90900
X91000Y90900
X91500Y90900
X92250Y90900
X92625Y90650
X92750Y90275
X93000Y90900
X86625Y88900
X86375Y88525
X86000Y90025
X89500Y78275
X94750Y77025
X99875Y77775
X100375Y76650
X100875Y76650
X107625Y77900
X107625Y79150
X114875Y1525
X114875Y2400
X117625Y1650
X117625Y3400
X117500Y5025
X117750Y5650
X117500Y6275
X119250Y6275
X120000Y6650
X121375Y5400
X121750Y5775
X122500Y4900
X122125Y4650
X121000Y4775
X121500Y3400
X121500Y2400
X123125Y2400
X123125Y3275
X123125Y3775
X124875Y3650
X125375Y3650
X126000Y3525
X126000Y3025
X127375Y2400
X128500Y3150
X128000Y5650
X128000Y6525
X126625Y7275
X126250Y7525
X125875Y7775
X125670Y8196
X124750Y8650
X124250Y9650
X123875Y9400
X123500Y9150
X123125Y8900
X121250Y10275
X121375Y10775
X121750Y11650
X122250Y11775
X122625Y12025
X123000Y11775
X124375Y12400
X124375Y12900
X124375Y13400
X123875Y13400
X123500Y13650
X124250Y13900
X123500Y14650
X122875Y15150
X123250Y15400
X122500Y14900
X122750Y16150
X122750Y16650
X122250Y16650
X122500Y17400
X122875Y17775
X123250Y18150
X123500Y18525
X124000Y18900
X123625Y19150
X122875Y19150
X122500Y19400
X122125Y19150
X121625Y19025
X120750Y19025
X120250Y19025
X119875Y19525
X119500Y18900
X119125Y18400
X118750Y18775
X118250Y18275
X119000Y17775
X119500Y17775
X119500Y17275
X119500Y16775
X118875Y15650
X119500Y14775
X119500Y14275
X119500Y13775
X119250Y12775
X117875Y13650
X117500Y14400
X117000Y15275
X114500Y13025
X114875Y12775
X115250Y12525
X115750Y12275
X115375Y11650
X113750Y13025
X114125Y13275
X113375Y12775
X113000Y12525
X112500Y13025
X112750Y13400
X113000Y13775
X113250Y14150
X111125Y14900
X110750Y15150
X110375Y14900
X111000Y13775
X111000Y12275
X110125Y11025
X110125Y10025
X110750Y8275
X111500Y8275
X112750Y10275
X113250Y10275
X112750Y11775
X115125Y8775
X117250Y9025
X119125Y10150
X119750Y10775
X118750Y11650
X117500Y11650
X120750Y15525
X120750Y16650
X121500Y17025
X123500Y16605
X124292Y16693
X124625Y17025
X126125Y15525
X126125Y15025
X126625Y15275
X127125Y14650
X127125Y14150
X127125Y13650
X126737Y12913
X126427Y12598
X126117Y12283
X125125Y11775
X125670Y11605
X130875Y14525
X130875Y16025
X127750Y17775
X127375Y17400
X126625Y19025
X127750Y19525
X127375Y20025
X127125Y21025
X126750Y21650
X128625Y20525
X124250Y21400
X123000Y21275
X121500Y21650
X119000Y20025
X118250Y20025
X118250Y21025
X117125Y21150
X116625Y20900
X116250Y21150
X116000Y21900
X115250Y21150
X115250Y20400
X113750Y20400
X112625Y20650
X111500Y20275
X113750Y18900
X114250Y18900
X115500Y18900
X116000Y18900
X116750Y18900
X117125Y18650
X117250Y18275
X117500Y18900
X111125Y16900
X110875Y16525
X110500Y18025
X114000Y6275
X119250Y5025
X124375Y5775
X124875Y4650
X125375Y4650
X132125Y5900
X132125Y7150
X114875Y25525
X114875Y26400
X117625Y25650
X117625Y27400
X117500Y29025
X117750Y29650
X117500Y30275
X119250Y30275
X120000Y30650
X121375Y29400
X121750Y29775
X122500Y28900
X122125Y28650
X121000Y28775
X121500Y27400
X121500Y26400
X123125Y26400
X123125Y27275
X123125Y27775
X124875Y27650
X125375Y27650
X126000Y27525
X126000Y27025
X127375Y26400
X128500Y27150
X128000Y29650
X128000Y30525
X126625Y31275
X126250Y31525
X125875Y31775
X125670Y32196
X124750Y32650
X124250Y33650
X123875Y33400
X123500Y33150
X123125Y32900
X121250Y34275
X121375Y34775
X121750Y35650
X122250Y35775
X122625Y36025
X123000Y35775
X124375Y36400
X124375Y36900
X124375Y37400
X123875Y37400
X123500Y37650
X124250Y37900
X123500Y38650
X122875Y39150
X123250Y39400
X122500Y38900
X122750Y40150
X122750Y40650
X122250Y40650
X122500Y41400
X122875Y41775
X123250Y42150
X123500Y42525
X124000Y42900
X123625Y43150
X122875Y43150
X122500Y43400
X122125Y43150
X121625Y43025
X120750Y43025
X120250Y43025
X119875Y43525
X119500Y42900
X119125Y42400
X118750Y42775
X118250Y42275
X119000Y41775
X119500Y41775
X119500Y41275
X119500Y40775
X118875Y39650
X119500Y38775
X119500Y38275
X119500Y37775
X119250Y36775
X117875Y37650
X117500Y38400
X117000Y39275
X114500Y37025
X114875Y36775
X115250Y36525
X115750Y36275
X115375Y35650
X113750Y37025
X114125Y37275
X113375Y36775
X113000Y36525
X112500Y37025
X112750Y37400
X113000Y37775
X113250Y38150
X111125Y38900
X110750Y39150
X110375Y38900
X111000Y37775
X111000Y36275
X110125Y35025
X110125Y34025
X110750Y32275
X111500Y32275
X112750Y34275
X113250Y34275
X112750Y35775
X115125Y32775
X117250Y33025
X119125Y34150
X119750Y34775
X118750Y35650
X117500Y35650
X120750Y39525
X120750Y40650
X121500Y41025
X123500Y40605
X124292Y40693
X124625Y41025
X126125Y39525
X126125Y39025
X126625Y39275
X127125Y38650
X127125Y38150
X127125Y37650
X126737Y36913
X126427Y36598
X126117Y36283
X125125Y35775
X125670Y35605
X130875Y38525
X130875Y40025
X127750Y41775
X127375Y41400
X126625Y43025
X127750Y43525
X127375Y44025
X127125Y45025
X126750Y45650
X128625Y44525
X124250Y45400
X123000Y45275
X121500Y45650
X119000Y44025
X118250Y44025
X118250Y45025
X117125Y45150
X116625Y44900
X116250Y45150
X116000Y45900
X115250Y45150
X115250Y44400
X113750Y44400
X112625Y44650
X111500Y44275
X113750Y42900
X114250Y42900
X115500Y42900
X116000Y42900
X116750Y42900
X117125Y42650
X117250Y42275
X117500Y42900
X111125Y40900
X110875Y40525
X110500Y42025
X114000Y30275
X119250Y29025
X124375Y29775
X124875Y28650
X125375Y28650
X132125Y29900
X132125Y31150
X114875Y49525
X114875Y50400
X117625Y49650
X117625Y51400
X117500Y53025
X117750Y53650
X117500Y54275
X119250Y54275
X120000Y54650
X121375Y53400
X121750Y53775
X122500Y52900
X122125Y52650
X121000Y52775
X121500Y51400
X121500Y50400
X123125Y50400
X123125Y51275
X123125Y51775
X124875Y51650
X125375Y51650
X126000Y51525
X126000Y51025
X127375Y50400
X128500Y51150
X128000Y53650
X128000Y54525
X126625Y55275
X126250Y55525
X125875Y55775
X125670Y56196
X124750Y56650
X124250Y57650
X123875Y57400
X123500Y57150
X123125Y56900
X121250Y58275
X121375Y58775
X121750Y59650
X122250Y59775
X122625Y60025
X123000Y59775
X124375Y60400
X124375Y60900
X124375Y61400
X123875Y61400
X123500Y61650
X124250Y61900
X123500Y62650
X122875Y63150
X123250Y63400
X122500Y62900
X122750Y64150
X122750Y64650
X122250Y64650
X122500Y65400
X122875Y65775
X123250Y66150
X123500Y66525
X124000Y66900
X123625Y67150
X122875Y67150
X122500Y67400
X122125Y67150
X121625Y67025
X120750Y67025
X120250Y67025
X119875Y67525
X119500Y66900
X119125Y66400
X118750Y66775
X118250Y66275
X119000Y65775
X119500Y65775
X119500Y65275
X119500Y64775
X118875Y63650
X119500Y62775
X119500Y62275
X119500Y61775
X119250Y60775
X117875Y61650
X117500Y62400
X117000Y63275
X114500Y61025
X114875Y60775
X115250Y60525
X115750Y60275
X115375Y59650
X113750Y61025
X114125Y61275
X113375Y60775
X113000Y60525
X112500Y61025
X112750Y61400
X113000Y61775
X113250Y62150
X111125Y62900
X110750Y63150
X110375Y62900
X111000Y61775
X111000Y60275
X110125Y59025
X110125Y58025
X110750Y56275
X111500Y56275
X112750Y58275
X113250Y58275
X112750Y59775
X115125Y56775
X117250Y57025
X119125Y58150
X119750Y58775
X118750Y59650
X117500Y59650
X120750Y63525
X120750Y64650
X121500Y65025
X123500Y64605
X124292Y64693
X124625Y65025
X126125Y63525
X126125Y63025
X126625Y63275
X127125Y62650
X127125Y62150
X127125Y61650
X126737Y60913
X126427Y60598
X126117Y60283
X125125Y59775
X125670Y59605
X130875Y62525
X130875Y64025
X127750Y65775
X127375Y65400
X126625Y67025
X127750Y67525
X127375Y68025
X127125Y69025
X126750Y69650
X128625Y68525
X124250Y69400
X123000Y69275
X121500Y69650
X119000Y68025
X118250Y68025
X118250Y69025
X117125Y69150
X116625Y68900
X116250Y69150
X116000Y69900
X115250Y69150
X115250Y68400
X113750Y68400
X112625Y68650
X111500Y68275
X113750Y66900
X114250Y66900
X115500Y66900
X116000Y66900
X116750Y66900
X117125Y66650
X117250Y66275
X117500Y66900
X111125Y64900
X110875Y64525
X110500Y66025
X114000Y54275
X119250Y53025
X124375Y53775
X124875Y52650
X125375Y52650
X132125Y53900
X132125Y55150
X114875Y73525
X114875Y74400
X117625Y73650
X117625Y75400
X117500Y77025
X117750Y77650
X117500Y78275
X119250Y78275
X120000Y78650
X121375Y77400
X121750Y77775
X122500Y76900
X122125Y76650
X121000Y76775
X121500Y75400
X121500Y74400
X123125Y74400
X123125Y75275
X123125Y75775
X124875Y75650
X125375Y75650
X126000Y75525
X126000Y75025
X127375Y74400
X128500Y75150
X128000Y77650
X128000Y78525
X126625Y79275
X126250Y79525
X125875Y79775
X125670Y80196
X124750Y80650
X124250Y81650
X123875Y81400
X123500Y81150
X123125Y80900
X121250Y82275
X121375Y82775
X121750Y83650
X122250Y83775
X122625Y84025
X123000Y83775
X124375Y84400
X124375Y84900
X124375Y85400
X123875Y85400
X123500Y85650
X124250Y85900
X123500Y86650
X122875Y87150
X123250Y87400
X122500Y86900
X122750Y88150
X122750Y88650
X122250Y88650
X122500Y89400
X122875Y89775
X123250Y90150
X123500Y90525
X124000Y90900
X123625Y91150
X122875Y91150
X122500Y91400
X122125Y91150
X121625Y91025
X120750Y91025
X120250Y91025
X119875Y91525
X119500Y90900
X119125Y90400
X118750Y90775
X118250Y90275
X119000Y89775
X119500Y89775
X119500Y89275
X119500Y88775
X118875Y87650
X119500Y86775
X119500Y86275
X119500Y85775
X119250Y84775
X117875Y85650
X117500Y86400
X117000Y87275
X114500Y85025
X114875Y84775
X115250Y84525
X115750Y84275
X115375Y83650
X113750Y85025
X114125Y85275
X113375Y84775
X113000Y84525
X112500Y85025
X112750Y85400
X113000Y85775
X113250Y86150
X111125Y86900
X110750Y87150
X110375Y86900
X111000Y85775
X111000Y84275
X110125Y83025
X110125Y82025
X110750Y80275
X111500Y80275
X112750Y82275
X113250Y82275
X112750Y83775
X115125Y80775
X117250Y81025
X119125Y82150
X119750Y82775
X118750Y83650
X117500Y83650
X120750Y87525
X120750Y88650
X121500Y89025
X123500Y88605
X124292Y88693
X124625Y89025
X126125Y87525
X126125Y87025
X126625Y87275
X127125Y86650
X127125Y86150
X127125Y85650
X126737Y84913
X126427Y84598
X126117Y84283
X125125Y83775
X125670Y83605
X130875Y86525
X130875Y88025
X127750Y89775
X127375Y89400
X126625Y91025
X127750Y91525
X127375Y92025
X127125Y93025
X126750Y93650
X128625Y92525
X124250Y93400
X123000Y93275
X121500Y93650
X119000Y92025
X118250Y92025
X118250Y93025
X117125Y93150
X116625Y92900
X116250Y93150
X116000Y93900
X115250Y93150
X115250Y92400
X113750Y92400
X112625Y92650
X111500Y92275
X113750Y90900
X114250Y90900
X115500Y90900
X116000Y90900
X116750Y90900
X117125Y90650
X117250Y90275
X117500Y90900
X111125Y88900
X110875Y88525
X110500Y90025
X114000Y78275
X119250Y77025
X124375Y77775
X124875Y76650
X125375Y76650
X132125Y77900
X132125Y79150
T02C0.033450
X19800Y20125
X22800Y20125
X22800Y16125
X19800Y16125
X20300Y25625
X20300Y24625
X21300Y24625
X22300Y24625
X23300Y24625
X24300Y24625
X22300Y25625
X19300Y24625
X18300Y24625
X16800Y23625
X15800Y23625
X14800Y23625
X14800Y22625
X14800Y21625
X15800Y21625
X16800Y21625
X18300Y21625
X19300Y21625
X20300Y21625
X21300Y21625
X22300Y21625
X23300Y21625
X24300Y21625
X26300Y21125
X26300Y20125
X26300Y19125
X26300Y18125
X26300Y17125
X26300Y16125
X26300Y15125
X25300Y15125
X26300Y14125
X24300Y13625
X22800Y14125
X21300Y13625
X19800Y14125
X18300Y13625
X16800Y14125
X15300Y13625
X13800Y14125
X14800Y15625
X15800Y15625
X15800Y16625
X14800Y16625
X14800Y17625
X14800Y18625
X15800Y18625
X16800Y20125
X18800Y20125
X14800Y20625
X13800Y19625
X11800Y19625
X11800Y18625
X11800Y17625
X11800Y16625
X11800Y15625
X15300Y11625
X16800Y11125
X18300Y11625
X19800Y11125
X21300Y11625
X22800Y11125
X24300Y11625
X29300Y14125
X29300Y15125
X29300Y16125
X29300Y17125
X29300Y18125
X28300Y19125
X28300Y20125
X29300Y21125
X29300Y22125
X29300Y23125
X28300Y24125
X26300Y24125
X26300Y23125
X26300Y22125
X31300Y18625
X31300Y17625
X31300Y15875
X31300Y14875
X31300Y13125
X31300Y12125
X29800Y8125
X31300Y7875
X31800Y7125
X30800Y7125
X31300Y5375
X31800Y4625
X30800Y4625
X29800Y4125
X29800Y2625
X29800Y1625
X32800Y1625
X32800Y2625
X18800Y15625
X13800Y11125
X7300Y7125
X6300Y7125
X6675Y4625
X5800Y4625
X8300Y4125
X9300Y4125
X6675Y1625
X5800Y1625
X25300Y17125
X11800Y20625
X11800Y21625
X11800Y22625
X11800Y23625
X15675Y31500
X17675Y31500
X19800Y53625
X22800Y53625
X22800Y49625
X19800Y49625
X20300Y59125
X20300Y58125
X21300Y58125
X22300Y58125
X23300Y58125
X24300Y58125
X22300Y59125
X19300Y58125
X18300Y58125
X16800Y57125
X15800Y57125
X14800Y57125
X14800Y56125
X14800Y55125
X15800Y55125
X16800Y55125
X18300Y55125
X19300Y55125
X20300Y55125
X21300Y55125
X22300Y55125
X23300Y55125
X24300Y55125
X26300Y54625
X26300Y53625
X26300Y52625
X26300Y51625
X26300Y50625
X26300Y49625
X26300Y48625
X25300Y48625
X26300Y47625
X24300Y47125
X22800Y47625
X21300Y47125
X19800Y47625
X18300Y47125
X16800Y47625
X15300Y47125
X13800Y47625
X14800Y49125
X15800Y49125
X15800Y50125
X14800Y50125
X14800Y51125
X14800Y52125
X15800Y52125
X16800Y53625
X18800Y53625
X14800Y54125
X13800Y53125
X11800Y53125
X11800Y52125
X11800Y51125
X11800Y50125
X11800Y49125
X15300Y45125
X16800Y44625
X18300Y45125
X19800Y44625
X21300Y45125
X22800Y44625
X24300Y45125
X29300Y47625
X29300Y48625
X29300Y49625
X29300Y50625
X29300Y51625
X28300Y52625
X28300Y53625
X29300Y54625
X29300Y55625
X29300Y56625
X28300Y57625
X26300Y57625
X26300Y56625
X26300Y55625
X31300Y52125
X31300Y51125
X31300Y49375
X31300Y48375
X31300Y46625
X31300Y45625
X29800Y41625
X31300Y41375
X31800Y40625
X30800Y40625
X31300Y38875
X31800Y38125
X30800Y38125
X29800Y37625
X29800Y36125
X29800Y35125
X32800Y35125
X32800Y36125
X18800Y49125
X13800Y44625
X7300Y40625
X6300Y40625
X6675Y38125
X5800Y38125
X8300Y37625
X9300Y37625
X6675Y35125
X5800Y35125
X25300Y50625
X11800Y54125
X11800Y55125
X11800Y56125
X11800Y57125
X15675Y65000
X17675Y65000
X19800Y87125
X22800Y87125
X22800Y83125
X19800Y83125
X20300Y92625
X20300Y91625
X21300Y91625
X22300Y91625
X23300Y91625
X24300Y91625
X22300Y92625
X19300Y91625
X18300Y91625
X16800Y90625
X15800Y90625
X14800Y90625
X14800Y89625
X14800Y88625
X15800Y88625
X16800Y88625
X18300Y88625
X19300Y88625
X20300Y88625
X21300Y88625
X22300Y88625
X23300Y88625
X24300Y88625
X26300Y88125
X26300Y87125
X26300Y86125
X26300Y85125
X26300Y84125
X26300Y83125
X26300Y82125
X25300Y82125
X26300Y81125
X24300Y80625
X22800Y81125
X21300Y80625
X19800Y81125
X18300Y80625
X16800Y81125
X15300Y80625
X13800Y81125
X14800Y82625
X15800Y82625
X15800Y83625
X14800Y83625
X14800Y84625
X14800Y85625
X15800Y85625
X16800Y87125
X18800Y87125
X14800Y87625
X13800Y86625
X11800Y86625
X11800Y85625
X11800Y84625
X11800Y83625
X11800Y82625
X15300Y78625
X16800Y78125
X18300Y78625
X19800Y78125
X21300Y78625
X22800Y78125
X24300Y78625
X29300Y81125
X29300Y82125
X29300Y83125
X29300Y84125
X29300Y85125
X28300Y86125
X28300Y87125
X29300Y88125
X29300Y89125
X29300Y90125
X28300Y91125
X26300Y91125
X26300Y90125
X26300Y89125
X31300Y85625
X31300Y84625
X31300Y82875
X31300Y81875
X31300Y80125
X31300Y79125
X29800Y75125
X31300Y74875
X31800Y74125
X30800Y74125
X31300Y72375
X31800Y71625
X30800Y71625
X29800Y71125
X29800Y69625
X29800Y68625
X32800Y68625
X32800Y69625
X18800Y82625
X13800Y78125
X7300Y74125
X6300Y74125
X6675Y71625
X5800Y71625
X8300Y71125
X9300Y71125
X6675Y68625
X5800Y68625
X25300Y84125
X11800Y87625
X11800Y88625
X11800Y89625
X11800Y90625
X15675Y98500
X17675Y98500
X61300Y20125
X64300Y20125
X64300Y16125
X61300Y16125
X61800Y25625
X61800Y24625
X62800Y24625
X63800Y24625
X64800Y24625
X65800Y24625
X63800Y25625
X60800Y24625
X59800Y24625
X58300Y23625
X57300Y23625
X56300Y23625
X56300Y22625
X56300Y21625
X57300Y21625
X58300Y21625
X59800Y21625
X60800Y21625
X61800Y21625
X62800Y21625
X63800Y21625
X64800Y21625
X65800Y21625
X67800Y21125
X67800Y20125
X67800Y19125
X67800Y18125
X67800Y17125
X67800Y16125
X67800Y15125
X66800Y15125
X67800Y14125
X65800Y13625
X64300Y14125
X62800Y13625
X61300Y14125
X59800Y13625
X58300Y14125
X56800Y13625
X55300Y14125
X56300Y15625
X57300Y15625
X57300Y16625
X56300Y16625
X56300Y17625
X56300Y18625
X57300Y18625
X58300Y20125
X60300Y20125
X56300Y20625
X55300Y19625
X53300Y19625
X53300Y18625
X53300Y17625
X53300Y16625
X53300Y15625
X56800Y11625
X58300Y11125
X59800Y11625
X61300Y11125
X62800Y11625
X64300Y11125
X65800Y11625
X70800Y14125
X70800Y15125
X70800Y16125
X70800Y17125
X70800Y18125
X69800Y19125
X69800Y20125
X70800Y21125
X70800Y22125
X70800Y23125
X69800Y24125
X67800Y24125
X67800Y23125
X67800Y22125
X72800Y18625
X72800Y17625
X72800Y15875
X72800Y14875
X72800Y13125
X72800Y12125
X71300Y8125
X72800Y7875
X73300Y7125
X72300Y7125
X72800Y5375
X73300Y4625
X72300Y4625
X71300Y4125
X71300Y2625
X71300Y1625
X74300Y1625
X74300Y2625
X60300Y15625
X55300Y11125
X48800Y7125
X47800Y7125
X48175Y4625
X47300Y4625
X49800Y4125
X50800Y4125
X48175Y1625
X47300Y1625
X66800Y17125
X53300Y20625
X53300Y21625
X53300Y22625
X53300Y23625
X57175Y31500
X59175Y31500
X61300Y53625
X64300Y53625
X64300Y49625
X61300Y49625
X61800Y59125
X61800Y58125
X62800Y58125
X63800Y58125
X64800Y58125
X65800Y58125
X63800Y59125
X60800Y58125
X59800Y58125
X58300Y57125
X57300Y57125
X56300Y57125
X56300Y56125
X56300Y55125
X57300Y55125
X58300Y55125
X59800Y55125
X60800Y55125
X61800Y55125
X62800Y55125
X63800Y55125
X64800Y55125
X65800Y55125
X67800Y54625
X67800Y53625
X67800Y52625
X67800Y51625
X67800Y50625
X67800Y49625
X67800Y48625
X66800Y48625
X67800Y47625
X65800Y47125
X64300Y47625
X62800Y47125
X61300Y47625
X59800Y47125
X58300Y47625
X56800Y47125
X55300Y47625
X56300Y49125
X57300Y49125
X57300Y50125
X56300Y50125
X56300Y51125
X56300Y52125
X57300Y52125
X58300Y53625
X60300Y53625
X56300Y54125
X55300Y53125
X53300Y53125
X53300Y52125
X53300Y51125
X53300Y50125
X53300Y49125
X56800Y45125
X58300Y44625
X59800Y45125
X61300Y44625
X62800Y45125
X64300Y44625
X65800Y45125
X70800Y47625
X70800Y48625
X70800Y49625
X70800Y50625
X70800Y51625
X69800Y52625
X69800Y53625
X70800Y54625
X70800Y55625
X70800Y56625
X69800Y57625
X67800Y57625
X67800Y56625
X67800Y55625
X72800Y52125
X72800Y51125
X72800Y49375
X72800Y48375
X72800Y46625
X72800Y45625
X71300Y41625
X72800Y41375
X73300Y40625
X72300Y40625
X72800Y38875
X73300Y38125
X72300Y38125
X71300Y37625
X71300Y36125
X71300Y35125
X74300Y35125
X74300Y36125
X60300Y49125
X55300Y44625
X48800Y40625
X47800Y40625
X48175Y38125
X47300Y38125
X49800Y37625
X50800Y37625
X48175Y35125
X47300Y35125
X66800Y50625
X53300Y54125
X53300Y55125
X53300Y56125
X53300Y57125
X57175Y65000
X59175Y65000
X61300Y87125
X64300Y87125
X64300Y83125
X61300Y83125
X61800Y92625
X61800Y91625
X62800Y91625
X63800Y91625
X64800Y91625
X65800Y91625
X63800Y92625
X60800Y91625
X59800Y91625
X58300Y90625
X57300Y90625
X56300Y90625
X56300Y89625
X56300Y88625
X57300Y88625
X58300Y88625
X59800Y88625
X60800Y88625
X61800Y88625
X62800Y88625
X63800Y88625
X64800Y88625
X65800Y88625
X67800Y88125
X67800Y87125
X67800Y86125
X67800Y85125
X67800Y84125
X67800Y83125
X67800Y82125
X66800Y82125
X67800Y81125
X65800Y80625
X64300Y81125
X62800Y80625
X61300Y81125
X59800Y80625
X58300Y81125
X56800Y80625
X55300Y81125
X56300Y82625
X57300Y82625
X57300Y83625
X56300Y83625
X56300Y84625
X56300Y85625
X57300Y85625
X58300Y87125
X60300Y87125
X56300Y87625
X55300Y86625
X53300Y86625
X53300Y85625
X53300Y84625
X53300Y83625
X53300Y82625
X56800Y78625
X58300Y78125
X59800Y78625
X61300Y78125
X62800Y78625
X64300Y78125
X65800Y78625
X70800Y81125
X70800Y82125
X70800Y83125
X70800Y84125
X70800Y85125
X69800Y86125
X69800Y87125
X70800Y88125
X70800Y89125
X70800Y90125
X69800Y91125
X67800Y91125
X67800Y90125
X67800Y89125
X72800Y85625
X72800Y84625
X72800Y82875
X72800Y81875
X72800Y80125
X72800Y79125
X71300Y75125
X72800Y74875
X73300Y74125
X72300Y74125
X72800Y72375
X73300Y71625
X72300Y71625
X71300Y71125
X71300Y69625
X71300Y68625
X74300Y68625
X74300Y69625
X60300Y82625
X55300Y78125
X48800Y74125
X47800Y74125
X48175Y71625
X47300Y71625
X49800Y71125
X50800Y71125
X48175Y68625
X47300Y68625
X66800Y84125
X53300Y87625
X53300Y88625
X53300Y89625
X53300Y90625
X57175Y98500
X59175Y98500
T03C0.037700
X4580Y5117
X3800Y5117
X3800Y4133
X4580Y4133
X4580Y38617
X3800Y38617
X3800Y37633
X4580Y37633
X4580Y72117
X3800Y72117
X3800Y71133
X4580Y71133
X46080Y5117
X45300Y5117
X45300Y4133
X46080Y4133
X46080Y38617
X45300Y38617
X45300Y37633
X46080Y37633
X46080Y72117
X45300Y72117
X45300Y71133
X46080Y71133
X85000Y1525
X85000Y2525
X85000Y3525
X96000Y1525
X97000Y1525
X98000Y1525
X85000Y25525
X85000Y26525
X85000Y27525
X96000Y25525
X97000Y25525
X98000Y25525
X85000Y49525
X85000Y50525
X85000Y51525
X96000Y49525
X97000Y49525
X98000Y49525
X85000Y73525
X85000Y74525
X85000Y75525
X96000Y73525
X97000Y73525
X98000Y73525
X109500Y1525
X109500Y2525
X109500Y3525
X120500Y1525
X121500Y1525
X122500Y1525
X109500Y25525
X109500Y26525
X109500Y27525
X120500Y25525
X121500Y25525
X122500Y25525
X109500Y49525
X109500Y50525
X109500Y51525
X120500Y49525
X121500Y49525
X122500Y49525
X109500Y73525
X109500Y74525
X109500Y75525
X120500Y73525
X121500Y73525
X122500Y73525
T04C0.040000
X9175Y6000
X9175Y10000
X7284Y25173
X6300Y25173
X5315Y25173
X15315Y25173
X16300Y25173
X17284Y25173
X19425Y28000
X19425Y32000
X25315Y25173
X26300Y25173
X27284Y25173
X35315Y25173
X36300Y25173
X37284Y25173
X40925Y27125
X40925Y28125
X40925Y29125
X31175Y29000
X31175Y28000
X31175Y27000
X31175Y26000
X31175Y25000
X31175Y24000
X31175Y23000
X31175Y22000
X31175Y21000
X31175Y30000
X31175Y31000
X31175Y32000
X11175Y30000
X11175Y29000
X11175Y28000
X10175Y28000
X10175Y29000
X10175Y27000
X11175Y27000
X10175Y26000
X10175Y25000
X10175Y24000
X10175Y23000
X10175Y22000
X10175Y21000
X10175Y20000
X10175Y19000
X10175Y18000
X10175Y17000
X10175Y16000
X10175Y15000
X10175Y14000
X10175Y13000
X10175Y12000
X10175Y11000
X10175Y10000
X11175Y10000
X12175Y10000
X13175Y10000
X14175Y10000
X13425Y8125
X12425Y8125
X11425Y8125
X17175Y10000
X18175Y10000
X19175Y10000
X20175Y10000
X21175Y10000
X22175Y10000
X23175Y10000
X24175Y10000
X25175Y10000
X27175Y10000
X28175Y10000
X29175Y10000
X30175Y10000
X31175Y10000
X9175Y39500
X9175Y43500
X7284Y58673
X6300Y58673
X5315Y58673
X15315Y58673
X16300Y58673
X17284Y58673
X19425Y61500
X19425Y65500
X25315Y58673
X26300Y58673
X27284Y58673
X35315Y58673
X36300Y58673
X37284Y58673
X40925Y60625
X40925Y61625
X40925Y62625
X31175Y62500
X31175Y61500
X31175Y60500
X31175Y59500
X31175Y58500
X31175Y57500
X31175Y56500
X31175Y55500
X31175Y54500
X31175Y63500
X31175Y64500
X31175Y65500
X11175Y63500
X11175Y62500
X11175Y61500
X10175Y61500
X10175Y62500
X10175Y60500
X11175Y60500
X10175Y59500
X10175Y58500
X10175Y57500
X10175Y56500
X10175Y55500
X10175Y54500
X10175Y53500
X10175Y52500
X10175Y51500
X10175Y50500
X10175Y49500
X10175Y48500
X10175Y47500
X10175Y46500
X10175Y45500
X10175Y44500
X10175Y43500
X11175Y43500
X12175Y43500
X13175Y43500
X14175Y43500
X13425Y41625
X12425Y41625
X11425Y41625
X17175Y43500
X18175Y43500
X19175Y43500
X20175Y43500
X21175Y43500
X22175Y43500
X23175Y43500
X24175Y43500
X25175Y43500
X27175Y43500
X28175Y43500
X29175Y43500
X30175Y43500
X31175Y43500
X9175Y73000
X9175Y77000
X7284Y92173
X6300Y92173
X5315Y92173
X15315Y92173
X16300Y92173
X17284Y92173
X19425Y95000
X19425Y99000
X25315Y92173
X26300Y92173
X27284Y92173
X35315Y92173
X36300Y92173
X37284Y92173
X40925Y94125
X40925Y95125
X40925Y96125
X31175Y96000
X31175Y95000
X31175Y94000
X31175Y93000
X31175Y92000
X31175Y91000
X31175Y90000
X31175Y89000
X31175Y88000
X31175Y97000
X31175Y98000
X31175Y99000
X11175Y97000
X11175Y96000
X11175Y95000
X10175Y95000
X10175Y96000
X10175Y94000
X11175Y94000
X10175Y93000
X10175Y92000
X10175Y91000
X10175Y90000
X10175Y89000
X10175Y88000
X10175Y87000
X10175Y86000
X10175Y85000
X10175Y84000
X10175Y83000
X10175Y82000
X10175Y81000
X10175Y80000
X10175Y79000
X10175Y78000
X10175Y77000
X11175Y77000
X12175Y77000
X13175Y77000
X14175Y77000
X13425Y75125
X12425Y75125
X11425Y75125
X17175Y77000
X18175Y77000
X19175Y77000
X20175Y77000
X21175Y77000
X22175Y77000
X23175Y77000
X24175Y77000
X25175Y77000
X27175Y77000
X28175Y77000
X29175Y77000
X30175Y77000
X31175Y77000
X50675Y6000
X50675Y10000
X48784Y25173
X47800Y25173
X46815Y25173
X56815Y25173
X57800Y25173
X58784Y25173
X60925Y28000
X60925Y32000
X66815Y25173
X67800Y25173
X68784Y25173
X76815Y25173
X77800Y25173
X78784Y25173
X82425Y27125
X82425Y28125
X82425Y29125
X72675Y29000
X72675Y28000
X72675Y27000
X72675Y26000
X72675Y25000
X72675Y24000
X72675Y23000
X72675Y22000
X72675Y21000
X72675Y30000
X72675Y31000
X72675Y32000
X52675Y30000
X52675Y29000
X52675Y28000
X51675Y28000
X51675Y29000
X51675Y27000
X52675Y27000
X51675Y26000
X51675Y25000
X51675Y24000
X51675Y23000
X51675Y22000
X51675Y21000
X51675Y20000
X51675Y19000
X51675Y18000
X51675Y17000
X51675Y16000
X51675Y15000
X51675Y14000
X51675Y13000
X51675Y12000
X51675Y11000
X51675Y10000
X52675Y10000
X53675Y10000
X54675Y10000
X55675Y10000
X54925Y8125
X53925Y8125
X52925Y8125
X58675Y10000
X59675Y10000
X60675Y10000
X61675Y10000
X62675Y10000
X63675Y10000
X64675Y10000
X65675Y10000
X66675Y10000
X68675Y10000
X69675Y10000
X70675Y10000
X71675Y10000
X72675Y10000
X50675Y39500
X50675Y43500
X48784Y58673
X47800Y58673
X46815Y58673
X56815Y58673
X57800Y58673
X58784Y58673
X60925Y61500
X60925Y65500
X66815Y58673
X67800Y58673
X68784Y58673
X76815Y58673
X77800Y58673
X78784Y58673
X82425Y60625
X82425Y61625
X82425Y62625
X72675Y62500
X72675Y61500
X72675Y60500
X72675Y59500
X72675Y58500
X72675Y57500
X72675Y56500
X72675Y55500
X72675Y54500
X72675Y63500
X72675Y64500
X72675Y65500
X52675Y63500
X52675Y62500
X52675Y61500
X51675Y61500
X51675Y62500
X51675Y60500
X52675Y60500
X51675Y59500
X51675Y58500
X51675Y57500
X51675Y56500
X51675Y55500
X51675Y54500
X51675Y53500
X51675Y52500
X51675Y51500
X51675Y50500
X51675Y49500
X51675Y48500
X51675Y47500
X51675Y46500
X51675Y45500
X51675Y44500
X51675Y43500
X52675Y43500
X53675Y43500
X54675Y43500
X55675Y43500
X54925Y41625
X53925Y41625
X52925Y41625
X58675Y43500
X59675Y43500
X60675Y43500
X61675Y43500
X62675Y43500
X63675Y43500
X64675Y43500
X65675Y43500
X66675Y43500
X68675Y43500
X69675Y43500
X70675Y43500
X71675Y43500
X72675Y43500
X50675Y73000
X50675Y77000
X48784Y92173
X47800Y92173
X46815Y92173
X56815Y92173
X57800Y92173
X58784Y92173
X60925Y95000
X60925Y99000
X66815Y92173
X67800Y92173
X68784Y92173
X76815Y92173
X77800Y92173
X78784Y92173
X82425Y94125
X82425Y95125
X82425Y96125
X72675Y96000
X72675Y95000
X72675Y94000
X72675Y93000
X72675Y92000
X72675Y91000
X72675Y90000
X72675Y89000
X72675Y88000
X72675Y97000
X72675Y98000
X72675Y99000
X52675Y97000
X52675Y96000
X52675Y95000
X51675Y95000
X51675Y96000
X51675Y94000
X52675Y94000
X51675Y93000
X51675Y92000
X51675Y91000
X51675Y90000
X51675Y89000
X51675Y88000
X51675Y87000
X51675Y86000
X51675Y85000
X51675Y84000
X51675Y83000
X51675Y82000
X51675Y81000
X51675Y80000
X51675Y79000
X51675Y78000
X51675Y77000
X52675Y77000
X53675Y77000
X54675Y77000
X55675Y77000
X54925Y75125
X53925Y75125
X52925Y75125
X58675Y77000
X59675Y77000
X60675Y77000
X61675Y77000
X62675Y77000
X63675Y77000
X64675Y77000
X65675Y77000
X66675Y77000
X68675Y77000
X69675Y77000
X70675Y77000
X71675Y77000
X72675Y77000
X104000Y22525
X103000Y22525
X102000Y22525
X101000Y22525
X100000Y22525
X99000Y22525
X98000Y22525
X97000Y22525
X96000Y22525
X95000Y22525
X94000Y22525
X93000Y22525
X92000Y22525
X91000Y22525
X90000Y22525
X89000Y22525
X88000Y22525
X87000Y22525
X86000Y22525
X85000Y22525
X85000Y21525
X85000Y20525
X85000Y19525
X85000Y18525
X85000Y10525
X85000Y9525
X85000Y8525
X85000Y7525
X85000Y6525
X85000Y5525
X86000Y5525
X87000Y5525
X88000Y5525
X89000Y5525
X89000Y4525
X88000Y4525
X87000Y4525
X86000Y4525
X85000Y4525
X99000Y1525
X100000Y1525
X101000Y1525
X102000Y1525
X103000Y1525
X104000Y1525
X105000Y1525
X106000Y1525
X107000Y1525
X107463Y19257
X106233Y20024
X106233Y21776
X107463Y22544
X104000Y46525
X103000Y46525
X102000Y46525
X101000Y46525
X100000Y46525
X99000Y46525
X98000Y46525
X97000Y46525
X96000Y46525
X95000Y46525
X94000Y46525
X93000Y46525
X92000Y46525
X91000Y46525
X90000Y46525
X89000Y46525
X88000Y46525
X87000Y46525
X86000Y46525
X85000Y46525
X85000Y45525
X85000Y44525
X85000Y43525
X85000Y42525
X85000Y34525
X85000Y33525
X85000Y32525
X85000Y31525
X85000Y30525
X85000Y29525
X86000Y29525
X87000Y29525
X88000Y29525
X89000Y29525
X89000Y28525
X88000Y28525
X87000Y28525
X86000Y28525
X85000Y28525
X99000Y25525
X100000Y25525
X101000Y25525
X102000Y25525
X103000Y25525
X104000Y25525
X105000Y25525
X106000Y25525
X107000Y25525
X107463Y43257
X106233Y44024
X106233Y45776
X107463Y46544
X104000Y70525
X103000Y70525
X102000Y70525
X101000Y70525
X100000Y70525
X99000Y70525
X98000Y70525
X97000Y70525
X96000Y70525
X95000Y70525
X94000Y70525
X93000Y70525
X92000Y70525
X91000Y70525
X90000Y70525
X89000Y70525
X88000Y70525
X87000Y70525
X86000Y70525
X85000Y70525
X85000Y69525
X85000Y68525
X85000Y67525
X85000Y66525
X85000Y58525
X85000Y57525
X85000Y56525
X85000Y55525
X85000Y54525
X85000Y53525
X86000Y53525
X87000Y53525
X88000Y53525
X89000Y53525
X89000Y52525
X88000Y52525
X87000Y52525
X86000Y52525
X85000Y52525
X99000Y49525
X100000Y49525
X101000Y49525
X102000Y49525
X103000Y49525
X104000Y49525
X105000Y49525
X106000Y49525
X107000Y49525
X107463Y67257
X106233Y68024
X106233Y69776
X107463Y70544
X104000Y94525
X103000Y94525
X102000Y94525
X101000Y94525
X100000Y94525
X99000Y94525
X98000Y94525
X97000Y94525
X96000Y94525
X95000Y94525
X94000Y94525
X93000Y94525
X92000Y94525
X91000Y94525
X90000Y94525
X89000Y94525
X88000Y94525
X87000Y94525
X86000Y94525
X85000Y94525
X85000Y93525
X85000Y92525
X85000Y91525
X85000Y90525
X85000Y82525
X85000Y81525
X85000Y80525
X85000Y79525
X85000Y78525
X85000Y77525
X86000Y77525
X87000Y77525
X88000Y77525
X89000Y77525
X89000Y76525
X88000Y76525
X87000Y76525
X86000Y76525
X85000Y76525
X99000Y73525
X100000Y73525
X101000Y73525
X102000Y73525
X103000Y73525
X104000Y73525
X105000Y73525
X106000Y73525
X107000Y73525
X107463Y91257
X106233Y92024
X106233Y93776
X107463Y94544
X128500Y22525
X127500Y22525
X126500Y22525
X125500Y22525
X124500Y22525
X123500Y22525
X122500Y22525
X121500Y22525
X120500Y22525
X119500Y22525
X118500Y22525
X117500Y22525
X116500Y22525
X115500Y22525
X114500Y22525
X113500Y22525
X112500Y22525
X111500Y22525
X110500Y22525
X109500Y22525
X109500Y21525
X109500Y20525
X109500Y19525
X109500Y18525
X109500Y10525
X109500Y9525
X109500Y8525
X109500Y7525
X109500Y6525
X109500Y5525
X110500Y5525
X111500Y5525
X112500Y5525
X113500Y5525
X113500Y4525
X112500Y4525
X111500Y4525
X110500Y4525
X109500Y4525
X123500Y1525
X124500Y1525
X125500Y1525
X126500Y1525
X127500Y1525
X128500Y1525
X129500Y1525
X130500Y1525
X131500Y1525
X131963Y19257
X130733Y20024
X130733Y21776
X131963Y22544
X128500Y46525
X127500Y46525
X126500Y46525
X125500Y46525
X124500Y46525
X123500Y46525
X122500Y46525
X121500Y46525
X120500Y46525
X119500Y46525
X118500Y46525
X117500Y46525
X116500Y46525
X115500Y46525
X114500Y46525
X113500Y46525
X112500Y46525
X111500Y46525
X110500Y46525
X109500Y46525
X109500Y45525
X109500Y44525
X109500Y43525
X109500Y42525
X109500Y34525
X109500Y33525
X109500Y32525
X109500Y31525
X109500Y30525
X109500Y29525
X110500Y29525
X111500Y29525
X112500Y29525
X113500Y29525
X113500Y28525
X112500Y28525
X111500Y28525
X110500Y28525
X109500Y28525
X123500Y25525
X124500Y25525
X125500Y25525
X126500Y25525
X127500Y25525
X128500Y25525
X129500Y25525
X130500Y25525
X131500Y25525
X131963Y43257
X130733Y44024
X130733Y45776
X131963Y46544
X128500Y70525
X127500Y70525
X126500Y70525
X125500Y70525
X124500Y70525
X123500Y70525
X122500Y70525
X121500Y70525
X120500Y70525
X119500Y70525
X118500Y70525
X117500Y70525
X116500Y70525
X115500Y70525
X114500Y70525
X113500Y70525
X112500Y70525
X111500Y70525
X110500Y70525
X109500Y70525
X109500Y69525
X109500Y68525
X109500Y67525
X109500Y66525
X109500Y58525
X109500Y57525
X109500Y56525
X109500Y55525
X109500Y54525
X109500Y53525
X110500Y53525
X111500Y53525
X112500Y53525
X113500Y53525
X113500Y52525
X112500Y52525
X111500Y52525
X110500Y52525
X109500Y52525
X123500Y49525
X124500Y49525
X125500Y49525
X126500Y49525
X127500Y49525
X128500Y49525
X129500Y49525
X130500Y49525
X131500Y49525
X131963Y67257
X130733Y68024
X130733Y69776
X131963Y70544
X128500Y94525
X127500Y94525
X126500Y94525
X125500Y94525
X124500Y94525
X123500Y94525
X122500Y94525
X121500Y94525
X120500Y94525
X119500Y94525
X118500Y94525
X117500Y94525
X116500Y94525
X115500Y94525
X114500Y94525
X113500Y94525
X112500Y94525
X111500Y94525
X110500Y94525
X109500Y94525
X109500Y93525
X109500Y92525
X109500Y91525
X109500Y90525
X109500Y82525
X109500Y81525
X109500Y80525
X109500Y79525
X109500Y78525
X109500Y77525
X110500Y77525
X111500Y77525
X112500Y77525
X113500Y77525
X113500Y76525
X112500Y76525
X111500Y76525
X110500Y76525
X109500Y76525
X123500Y73525
X124500Y73525
X125500Y73525
X126500Y73525
X127500Y73525
X128500Y73525
X129500Y73525
X130500Y73525
X131500Y73525
X131963Y91257
X130733Y92024
X130733Y93776
X131963Y94544
X134000Y1500
X135000Y1500
X136000Y1500
X137000Y1500
X138000Y1500
X139000Y1500
X140000Y1500
X141000Y1500
X142000Y1500
X134000Y9600
X135000Y9600
X136000Y9600
X137000Y9600
X138000Y9600
X139000Y9600
X140000Y9600
X141000Y9600
X142000Y9600
X134000Y17700
X135000Y17700
X136000Y17700
X137000Y17700
X138000Y17700
X139000Y17700
X140000Y17700
X141000Y17700
X142000Y17700
X134000Y25800
X135000Y25800
X136000Y25800
X137000Y25800
X138000Y25800
X139000Y25800
X140000Y25800
X141000Y25800
X142000Y25800
X134000Y33900
X135000Y33900
X136000Y33900
X137000Y33900
X138000Y33900
X139000Y33900
X140000Y33900
X141000Y33900
X142000Y33900
X134000Y42000
X135000Y42000
X136000Y42000
X137000Y42000
X138000Y42000
X139000Y42000
X140000Y42000
X141000Y42000
X142000Y42000
X134000Y50100
X135000Y50100
X136000Y50100
X137000Y50100
X138000Y50100
X139000Y50100
X140000Y50100
X141000Y50100
X142000Y50100
X134000Y58200
X135000Y58200
X136000Y58200
X137000Y58200
X138000Y58200
X139000Y58200
X140000Y58200
X141000Y58200
X142000Y58200
X134000Y66300
X135000Y66300
X136000Y66300
X137000Y66300
X138000Y66300
X139000Y66300
X140000Y66300
X141000Y66300
X142000Y66300
X134000Y74400
X135000Y74400
X136000Y74400
X137000Y74400
X138000Y74400
X139000Y74400
X140000Y74400
X141000Y74400
X142000Y74400
X134000Y82500
X135000Y82500
X136000Y82500
X137000Y82500
X138000Y82500
X139000Y82500
X140000Y82500
X141000Y82500
X142000Y82500
X134000Y90600
X135000Y90600
X136000Y90600
X137000Y90600
X138000Y90600
X139000Y90600
X140000Y90600
X141000Y90600
X142000Y90600
X144000Y1500
X145000Y1500
X146000Y1500
X147000Y1500
X148000Y1500
X149000Y1500
X150000Y1500
X151000Y1500
X152000Y1500
X144000Y9600
X145000Y9600
X146000Y9600
X147000Y9600
X148000Y9600
X149000Y9600
X150000Y9600
X151000Y9600
X152000Y9600
X144000Y17700
X145000Y17700
X146000Y17700
X147000Y17700
X148000Y17700
X149000Y17700
X150000Y17700
X151000Y17700
X152000Y17700
X144000Y25800
X145000Y25800
X146000Y25800
X147000Y25800
X148000Y25800
X149000Y25800
X150000Y25800
X151000Y25800
X152000Y25800
X144000Y33900
X145000Y33900
X146000Y33900
X147000Y33900
X148000Y33900
X149000Y33900
X150000Y33900
X151000Y33900
X152000Y33900
X144000Y42000
X145000Y42000
X146000Y42000
X147000Y42000
X148000Y42000
X149000Y42000
X150000Y42000
X151000Y42000
X152000Y42000
X144000Y50100
X145000Y50100
X146000Y50100
X147000Y50100
X148000Y50100
X149000Y50100
X150000Y50100
X151000Y50100
X152000Y50100
X144000Y58200
X145000Y58200
X146000Y58200
X147000Y58200
X148000Y58200
X149000Y58200
X150000Y58200
X151000Y58200
X152000Y58200
X144000Y66300
X145000Y66300
X146000Y66300
X147000Y66300
X148000Y66300
X149000Y66300
X150000Y66300
X151000Y66300
X152000Y66300
X144000Y74400
X145000Y74400
X146000Y74400
X147000Y74400
X148000Y74400
X149000Y74400
X150000Y74400
X151000Y74400
X152000Y74400
X144000Y82500
X145000Y82500
X146000Y82500
X147000Y82500
X148000Y82500
X149000Y82500
X150000Y82500
X151000Y82500
X152000Y82500
X144000Y90600
X145000Y90600
X146000Y90600
X147000Y90600
X148000Y90600
X149000Y90600
X150000Y90600
X151000Y90600
X152000Y90600
X160125Y1500
X160125Y2500
X160125Y3500
X160125Y4500
X160125Y5500
X160125Y6500
X160125Y7500
X160125Y8500
X160125Y9500
X160125Y11500
X160125Y12500
X160125Y13500
X160125Y14500
X160125Y15500
X160125Y16500
X160125Y17500
X160125Y18500
X160125Y19500
X160125Y21500
X160125Y22500
X160125Y23500
X160125Y24500
X160125Y25500
X160125Y26500
X160125Y27500
X160125Y28500
X160125Y29500
X160125Y31500
X160125Y32500
X160125Y33500
X160125Y34500
X160125Y35500
X160125Y36500
X160125Y37500
X160125Y38500
X160125Y39500
X160125Y41500
X160125Y42500
X160125Y43500
X160125Y44500
X160125Y45500
X160125Y46500
X160125Y47500
X160125Y48500
X160125Y49500
X160125Y51500
X160125Y52500
X160125Y53500
X160125Y54500
X160125Y55500
X160125Y56500
X160125Y57500
X160125Y58500
X160125Y59500
X160125Y61500
X160125Y62500
X160125Y63500
X160125Y64500
X160125Y65500
X160125Y66500
X160125Y67500
X160125Y68500
X160125Y69500
X160125Y71500
X160125Y72500
X160125Y73500
X160125Y74500
X160125Y75500
X160125Y76500
X160125Y77500
X160125Y78500
X160125Y79500
X160125Y81500
X160125Y82500
X160125Y83500
X160125Y84500
X160125Y85500
X160125Y86500
X160125Y87500
X160125Y88500
X160125Y89500
X160125Y91500
X160125Y92500
X160125Y93500
X160125Y94500
X160125Y95500
X160125Y96500
X160125Y97500
X160125Y98500
X160125Y99500
T05C0.059100
X35987Y9688
X35987Y8094
X38456Y8094
X38425Y9688
X40956Y9688
X40956Y8094
X40956Y1688
X38425Y1688
X35987Y1688
X35987Y16094
X35987Y17688
X38425Y17688
X38456Y16094
X40956Y16094
X40956Y17688
X40956Y24094
X38456Y24094
X35987Y24094
X6612Y24063
X4175Y24063
X1643Y24063
X1643Y17657
X1643Y16063
X4175Y16063
X4143Y17657
X6612Y17657
X6612Y16063
X6612Y9657
X4143Y9657
X1643Y9657
X35987Y43188
X35987Y41594
X38456Y41594
X38425Y43188
X40956Y43188
X40956Y41594
X40956Y35188
X38425Y35188
X35987Y35188
X35987Y49594
X35987Y51188
X38425Y51188
X38456Y49594
X40956Y49594
X40956Y51188
X40956Y57594
X38456Y57594
X35987Y57594
X6612Y57563
X4175Y57563
X1643Y57563
X1643Y51157
X1643Y49563
X4175Y49563
X4143Y51157
X6612Y51157
X6612Y49563
X6612Y43157
X4143Y43157
X1643Y43157
X35987Y76688
X35987Y75094
X38456Y75094
X38425Y76688
X40956Y76688
X40956Y75094
X40956Y68688
X38425Y68688
X35987Y68688
X35987Y83094
X35987Y84688
X38425Y84688
X38456Y83094
X40956Y83094
X40956Y84688
X40956Y91094
X38456Y91094
X35987Y91094
X6612Y91063
X4175Y91063
X1643Y91063
X1643Y84657
X1643Y83063
X4175Y83063
X4143Y84657
X6612Y84657
X6612Y83063
X6612Y76657
X4143Y76657
X1643Y76657
X77487Y9688
X77487Y8094
X79956Y8094
X79925Y9688
X82456Y9688
X82456Y8094
X82456Y1688
X79925Y1688
X77487Y1688
X77487Y16094
X77487Y17688
X79925Y17688
X79956Y16094
X82456Y16094
X82456Y17688
X82456Y24094
X79956Y24094
X77487Y24094
X48112Y24063
X45675Y24063
X43143Y24063
X43143Y17657
X43143Y16063
X45675Y16063
X45643Y17657
X48112Y17657
X48112Y16063
X48112Y9657
X45643Y9657
X43143Y9657
X77487Y43188
X77487Y41594
X79956Y41594
X79925Y43188
X82456Y43188
X82456Y41594
X82456Y35188
X79925Y35188
X77487Y35188
X77487Y49594
X77487Y51188
X79925Y51188
X79956Y49594
X82456Y49594
X82456Y51188
X82456Y57594
X79956Y57594
X77487Y57594
X48112Y57563
X45675Y57563
X43143Y57563
X43143Y51157
X43143Y49563
X45675Y49563
X45643Y51157
X48112Y51157
X48112Y49563
X48112Y43157
X45643Y43157
X43143Y43157
X77487Y76688
X77487Y75094
X79956Y75094
X79925Y76688
X82456Y76688
X82456Y75094
X82456Y68688
X79925Y68688
X77487Y68688
X77487Y83094
X77487Y84688
X79925Y84688
X79956Y83094
X82456Y83094
X82456Y84688
X82456Y91094
X79956Y91094
X77487Y91094
X48112Y91063
X45675Y91063
X43143Y91063
X43143Y84657
X43143Y83063
X45675Y83063
X45643Y84657
X48112Y84657
X48112Y83063
X48112Y76657
X45643Y76657
X43143Y76657
T06C0.078700
X4528Y28125
X8071Y28125
X14528Y28125
X18071Y28125
X24528Y28125
X28071Y28125
X34528Y28125
X38071Y28125
X4528Y61625
X8071Y61625
X14528Y61625
X18071Y61625
X24528Y61625
X28071Y61625
X34528Y61625
X38071Y61625
X4528Y95125
X8071Y95125
X14528Y95125
X18071Y95125
X24528Y95125
X28071Y95125
X34528Y95125
X38071Y95125
X46028Y28125
X49571Y28125
X56028Y28125
X59571Y28125
X66028Y28125
X69571Y28125
X76028Y28125
X79571Y28125
X46028Y61625
X49571Y61625
X56028Y61625
X59571Y61625
X66028Y61625
X69571Y61625
X76028Y61625
X79571Y61625
X46028Y95125
X49571Y95125
X56028Y95125
X59571Y95125
X66028Y95125
X69571Y95125
X76028Y95125
X79571Y95125
T07C0.090000
X2730Y2255
X2730Y6995
X2730Y35755
X2730Y40495
X2730Y69255
X2730Y73995
X44230Y2255
X44230Y6995
X44230Y35755
X44230Y40495
X44230Y69255
X44230Y73995
T08C0.102400
X141100Y3689
X141100Y5500
X139033Y5500
X136966Y5500
X136966Y3689
X139033Y3689
X134899Y3689
X134899Y5500
X134899Y7311
X136966Y7311
X139033Y7311
X141100Y7311
X141100Y11789
X141100Y13600
X139033Y13600
X136966Y13600
X136966Y11789
X139033Y11789
X134899Y11789
X134899Y13600
X134899Y15411
X136966Y15411
X139033Y15411
X141100Y15411
X141100Y19889
X141100Y21700
X139033Y21700
X136966Y21700
X136966Y19889
X139033Y19889
X134899Y19889
X134899Y21700
X134899Y23511
X136966Y23511
X139033Y23511
X141100Y23511
X141100Y27989
X141100Y29800
X139033Y29800
X136966Y29800
X136966Y27989
X139033Y27989
X134899Y27989
X134899Y29800
X134899Y31611
X136966Y31611
X139033Y31611
X141100Y31611
X141100Y36089
X141100Y37900
X139033Y37900
X136966Y37900
X136966Y36089
X139033Y36089
X134899Y36089
X134899Y37900
X134899Y39711
X136966Y39711
X139033Y39711
X141100Y39711
X141100Y44189
X141100Y46000
X139033Y46000
X136966Y46000
X136966Y44189
X139033Y44189
X134899Y44189
X134899Y46000
X134899Y47811
X136966Y47811
X139033Y47811
X141100Y47811
X141100Y52289
X141100Y54100
X139033Y54100
X136966Y54100
X136966Y52289
X139033Y52289
X134899Y52289
X134899Y54100
X134899Y55911
X136966Y55911
X139033Y55911
X141100Y55911
X141100Y60389
X141100Y62200
X139033Y62200
X136966Y62200
X136966Y60389
X139033Y60389
X134899Y60389
X134899Y62200
X134899Y64011
X136966Y64011
X139033Y64011
X141100Y64011
X141100Y68489
X141100Y70300
X139033Y70300
X136966Y70300
X136966Y68489
X139033Y68489
X134899Y68489
X134899Y70300
X134899Y72111
X136966Y72111
X139033Y72111
X141100Y72111
X141100Y76589
X141100Y78400
X139033Y78400
X136966Y78400
X136966Y76589
X139033Y76589
X134899Y76589
X134899Y78400
X134899Y80211
X136966Y80211
X139033Y80211
X141100Y80211
X141100Y84689
X141100Y86500
X139033Y86500
X136966Y86500
X136966Y84689
X139033Y84689
X134899Y84689
X134899Y86500
X134899Y88311
X136966Y88311
X139033Y88311
X141100Y88311
X141100Y92789
X141100Y94600
X139033Y94600
X136966Y94600
X136966Y92789
X139033Y92789
X134899Y92789
X134899Y94600
X134899Y96411
X136966Y96411
X139033Y96411
X141100Y96411
X151100Y3689
X151100Y5500
X149033Y5500
X146966Y5500
X146966Y3689
X149033Y3689
X144899Y3689
X144899Y5500
X144899Y7311
X146966Y7311
X149033Y7311
X151100Y7311
X151100Y11789
X151100Y13600
X149033Y13600
X146966Y13600
X146966Y11789
X149033Y11789
X144899Y11789
X144899Y13600
X144899Y15411
X146966Y15411
X149033Y15411
X151100Y15411
X151100Y19889
X151100Y21700
X149033Y21700
X146966Y21700
X146966Y19889
X149033Y19889
X144899Y19889
X144899Y21700
X144899Y23511
X146966Y23511
X149033Y23511
X151100Y23511
X151100Y27989
X151100Y29800
X149033Y29800
X146966Y29800
X146966Y27989
X149033Y27989
X144899Y27989
X144899Y29800
X144899Y31611
X146966Y31611
X149033Y31611
X151100Y31611
X151100Y36089
X151100Y37900
X149033Y37900
X146966Y37900
X146966Y36089
X149033Y36089
X144899Y36089
X144899Y37900
X144899Y39711
X146966Y39711
X149033Y39711
X151100Y39711
X151100Y44189
X151100Y46000
X149033Y46000
X146966Y46000
X146966Y44189
X149033Y44189
X144899Y44189
X144899Y46000
X144899Y47811
X146966Y47811
X149033Y47811
X151100Y47811
X151100Y52289
X151100Y54100
X149033Y54100
X146966Y54100
X146966Y52289
X149033Y52289
X144899Y52289
X144899Y54100
X144899Y55911
X146966Y55911
X149033Y55911
X151100Y55911
X151100Y60389
X151100Y62200
X149033Y62200
X146966Y62200
X146966Y60389
X149033Y60389
X144899Y60389
X144899Y62200
X144899Y64011
X146966Y64011
X149033Y64011
X151100Y64011
X151100Y68489
X151100Y70300
X149033Y70300
X146966Y70300
X146966Y68489
X149033Y68489
X144899Y68489
X144899Y70300
X144899Y72111
X146966Y72111
X149033Y72111
X151100Y72111
X151100Y76589
X151100Y78400
X149033Y78400
X146966Y78400
X146966Y76589
X149033Y76589
X144899Y76589
X144899Y78400
X144899Y80211
X146966Y80211
X149033Y80211
X151100Y80211
X151100Y84689
X151100Y86500
X149033Y86500
X146966Y86500
X146966Y84689
X149033Y84689
X144899Y84689
X144899Y86500
X144899Y88311
X146966Y88311
X149033Y88311
X151100Y88311
X151100Y92789
X151100Y94600
X149033Y94600
X146966Y94600
X146966Y92789
X149033Y92789
X144899Y92789
X144899Y94600
X144899Y96411
X146966Y96411
X149033Y96411
X151100Y96411
X157936Y8600
X156125Y8600
X156125Y6533
X156125Y4466
X157936Y4466
X157936Y6533
X157936Y2399
X156125Y2399
X154314Y2399
X154314Y4466
X154314Y6533
X154314Y8600
X157936Y18600
X156125Y18600
X156125Y16533
X156125Y14466
X157936Y14466
X157936Y16533
X157936Y12399
X156125Y12399
X154314Y12399
X154314Y14466
X154314Y16533
X154314Y18600
X157936Y28600
X156125Y28600
X156125Y26533
X156125Y24466
X157936Y24466
X157936Y26533
X157936Y22399
X156125Y22399
X154314Y22399
X154314Y24466
X154314Y26533
X154314Y28600
X157936Y38600
X156125Y38600
X156125Y36533
X156125Y34466
X157936Y34466
X157936Y36533
X157936Y32399
X156125Y32399
X154314Y32399
X154314Y34466
X154314Y36533
X154314Y38600
X157936Y48600
X156125Y48600
X156125Y46533
X156125Y44466
X157936Y44466
X157936Y46533
X157936Y42399
X156125Y42399
X154314Y42399
X154314Y44466
X154314Y46533
X154314Y48600
X157936Y58600
X156125Y58600
X156125Y56533
X156125Y54466
X157936Y54466
X157936Y56533
X157936Y52399
X156125Y52399
X154314Y52399
X154314Y54466
X154314Y56533
X154314Y58600
X157936Y68600
X156125Y68600
X156125Y66533
X156125Y64466
X157936Y64466
X157936Y66533
X157936Y62399
X156125Y62399
X154314Y62399
X154314Y64466
X154314Y66533
X154314Y68600
X157936Y78600
X156125Y78600
X156125Y76533
X156125Y74466
X157936Y74466
X157936Y76533
X157936Y72399
X156125Y72399
X154314Y72399
X154314Y74466
X154314Y76533
X154314Y78600
X157936Y88600
X156125Y88600
X156125Y86533
X156125Y84466
X157936Y84466
X157936Y86533
X157936Y82399
X156125Y82399
X154314Y82399
X154314Y84466
X154314Y86533
X154314Y88600
X157936Y98600
X156125Y98600
X156125Y96533
X156125Y94466
X157936Y94466
X157936Y96533
X157936Y92399
X156125Y92399
X154314Y92399
X154314Y94466
X154314Y96533
X154314Y98600
T09C0.118000
X21800Y28607
X23650Y29788
X21800Y30969
X21800Y62107
X23650Y63288
X21800Y64469
X21800Y95607
X23650Y96788
X21800Y97969
X63300Y28607
X65150Y29788
X63300Y30969
X63300Y62107
X65150Y63288
X63300Y64469
X63300Y95607
X65150Y96788
X63300Y97969
T10C0.130000
X12425Y2225
X12425Y35725
X12425Y69225
X53925Y2225
X53925Y35725
X53925Y69225
M30
