G75*
G70*
%OFA0B0*%
%FSLAX25Y25*%
%IPPOS*%
%LPD*%
%AMOC8*
5,1,8,0,0,1.08239X$1,22.5*
%
%ADD100C,0.06400*%
%ADD105R,0.07800X0.07800*%
%ADD108R,0.07490X0.06700*%
%ADD11C,0.07000*%
%ADD110C,0.13400*%
%ADD111OC8,0.11470*%
%ADD114C,0.13860*%
%ADD12C,0.10400*%
%ADD14C,0.05600*%
%ADD15C,0.05940*%
%ADD16R,0.03940X0.01970*%
%ADD19R,0.08000X0.21400*%
%ADD20R,0.06200X0.01500*%
%ADD22OC8,0.07800*%
%ADD23R,0.06400X0.06400*%
%ADD27R,0.06700X0.07490*%
%ADD31C,0.12600*%
%ADD34R,0.05710X0.01970*%
%ADD36R,0.07900X0.01900*%
%ADD46OC8,0.05600*%
%ADD48OC8,0.06700*%
%ADD49R,0.07880X0.07490*%
%ADD50C,0.08000*%
%ADD54R,0.01500X0.06200*%
%ADD56C,0.05140*%
%ADD57R,0.04340X0.04730*%
%ADD58R,0.07490X0.07490*%
%ADD59R,0.08300X0.06300*%
%ADD61R,0.05120X0.05910*%
%ADD63C,0.03570*%
%ADD65C,0.12660*%
%ADD66C,0.06700*%
%ADD68R,0.03350X0.01190*%
%ADD73R,0.05400X0.02900*%
%ADD75R,0.08300X0.15400*%
%ADD76C,0.00590*%
%ADD80C,0.15400*%
%ADD82C,0.07800*%
%ADD92R,0.04730X0.04340*%
%ADD96R,0.08270X0.06310*%
%ADD98C,0.08200*%
X0010000Y0010000D02*
G75*
%LPD*%
D50*
X0053150Y0251730D03*
X0063000Y0251730D03*
X0072840Y0251730D03*
X0153150Y0251730D03*
X0163000Y0251730D03*
X0172840Y0251730D03*
X0253150Y0251730D03*
X0263000Y0251730D03*
X0272840Y0251730D03*
X0353150Y0251730D03*
X0363000Y0251730D03*
X0372840Y0251730D03*
D111*
X0380710Y0281250D03*
X0345280Y0281250D03*
X0280710Y0281250D03*
X0245280Y0281250D03*
X0180710Y0281250D03*
X0145280Y0281250D03*
X0080710Y0281250D03*
X0045280Y0281250D03*
D82*
X0101750Y0280000D03*
X0111750Y0280000D03*
X0111750Y0290000D03*
X0111750Y0300000D03*
X0101750Y0290000D03*
X0101750Y0270000D03*
X0111750Y0270000D03*
X0101750Y0260000D03*
X0101750Y0250000D03*
X0101750Y0240000D03*
X0101750Y0230000D03*
X0101750Y0220000D03*
X0101750Y0210000D03*
X0101750Y0200000D03*
X0101750Y0190000D03*
X0101750Y0180000D03*
X0101750Y0170000D03*
X0101750Y0160000D03*
X0101750Y0150000D03*
X0101750Y0140000D03*
X0101750Y0130000D03*
X0101750Y0120000D03*
X0101750Y0110000D03*
X0111750Y0100000D03*
X0121750Y0100000D03*
X0131750Y0100000D03*
X0171750Y0100000D03*
X0181750Y0100000D03*
X0191750Y0100000D03*
X0201750Y0100000D03*
X0211750Y0100000D03*
X0221750Y0100000D03*
X0231750Y0100000D03*
X0241750Y0100000D03*
X0251750Y0100000D03*
X0271750Y0100000D03*
X0281750Y0100000D03*
X0291750Y0100000D03*
X0301750Y0100000D03*
X0311750Y0100000D03*
X0253000Y0016250D03*
X0243000Y0016250D03*
X0233000Y0016250D03*
X0223000Y0016250D03*
X0213000Y0016250D03*
X0203000Y0016250D03*
X0193000Y0016250D03*
X0183000Y0016250D03*
X0173000Y0016250D03*
X0311750Y0210000D03*
X0311750Y0220000D03*
X0311750Y0230000D03*
X0311750Y0240000D03*
X0311750Y0250000D03*
X0311750Y0260000D03*
X0311750Y0270000D03*
X0311750Y0280000D03*
X0311750Y0290000D03*
X0311750Y0300000D03*
X0311750Y0310000D03*
X0311750Y0320000D03*
X0409250Y0291250D03*
X0409250Y0281250D03*
X0409250Y0271250D03*
X0176750Y0315000D03*
X0156750Y0315000D03*
D98*
X0194250Y0320000D03*
X0194250Y0280000D03*
X0091750Y0100000D03*
X0091750Y0060000D03*
D46*
X0066750Y0046250D03*
X0058000Y0046250D03*
X0058000Y0016250D03*
X0066750Y0016250D03*
X0138000Y0111250D03*
X0168000Y0111250D03*
X0198000Y0111250D03*
X0228000Y0111250D03*
X0228000Y0141250D03*
X0198000Y0141250D03*
X0188000Y0156250D03*
X0168000Y0141250D03*
X0158000Y0156250D03*
X0148000Y0156250D03*
X0148000Y0166250D03*
X0148000Y0176250D03*
X0148000Y0186250D03*
X0168000Y0201250D03*
X0188000Y0201250D03*
X0148000Y0206250D03*
X0148000Y0216250D03*
X0148000Y0226250D03*
X0148000Y0236250D03*
X0118000Y0236250D03*
X0118000Y0226250D03*
X0118000Y0216250D03*
X0118000Y0206250D03*
X0118000Y0186250D03*
X0118000Y0176250D03*
X0118000Y0166250D03*
X0118000Y0156250D03*
X0138000Y0141250D03*
X0263000Y0141250D03*
X0263000Y0151250D03*
X0263000Y0161250D03*
X0263000Y0171250D03*
X0263000Y0181250D03*
X0293000Y0181250D03*
X0293000Y0171250D03*
X0293000Y0161250D03*
X0293000Y0151250D03*
X0293000Y0141250D03*
X0313000Y0078750D03*
X0318000Y0071250D03*
X0308000Y0071250D03*
X0313000Y0053750D03*
X0318000Y0046250D03*
X0308000Y0046250D03*
X0298000Y0026250D03*
X0298000Y0016250D03*
X0328000Y0016250D03*
X0328000Y0026250D03*
X0293000Y0211250D03*
X0293000Y0221250D03*
X0293000Y0231250D03*
X0283000Y0241250D03*
X0263000Y0241250D03*
X0263000Y0231250D03*
X0263000Y0221250D03*
X0263000Y0211250D03*
X0223000Y0256250D03*
X0203000Y0256250D03*
D80*
X0218000Y0286070D03*
X0236500Y0297880D03*
X0218000Y0309690D03*
D12*
X0359870Y0240940D03*
X0384560Y0240940D03*
X0409560Y0240940D03*
X0409560Y0176880D03*
X0409560Y0160940D03*
X0384560Y0160940D03*
X0384250Y0176880D03*
X0359870Y0176880D03*
X0359870Y0160940D03*
X0359870Y0096880D03*
X0359870Y0080940D03*
X0384560Y0080940D03*
X0384250Y0096880D03*
X0409560Y0096880D03*
X0409560Y0080940D03*
X0409560Y0016880D03*
X0384250Y0016880D03*
X0359870Y0016880D03*
X0066120Y0096570D03*
X0041430Y0096570D03*
X0016430Y0096570D03*
X0016430Y0160630D03*
X0016430Y0176570D03*
X0041430Y0176570D03*
X0041750Y0160630D03*
X0066120Y0160630D03*
X0066120Y0176570D03*
X0066120Y0240630D03*
X0041750Y0240630D03*
X0016430Y0240630D03*
D105*
X0101750Y0100000D03*
X0141750Y0100000D03*
D14*
X0183000Y0213650D02*
X0183000Y0218850D01*
X0193000Y0218850D02*
X0193000Y0213650D01*
X0203000Y0213650D02*
X0203000Y0218850D01*
X0213000Y0218850D02*
X0213000Y0213650D01*
X0223000Y0213650D02*
X0223000Y0218850D01*
X0233000Y0218850D02*
X0233000Y0213650D01*
X0243000Y0213650D02*
X0243000Y0218850D01*
X0243000Y0243650D02*
X0243000Y0248850D01*
X0233000Y0248850D02*
X0233000Y0243650D01*
X0223000Y0243650D02*
X0223000Y0248850D01*
X0213000Y0248850D02*
X0213000Y0243650D01*
X0203000Y0243650D02*
X0203000Y0248850D01*
X0193000Y0248850D02*
X0193000Y0243650D01*
X0183000Y0243650D02*
X0183000Y0248850D01*
X0298000Y0083850D02*
X0298000Y0078650D01*
X0298000Y0043850D02*
X0298000Y0038650D01*
D15*
X0228000Y0161250D03*
X0198000Y0161250D03*
X0198000Y0201250D03*
X0228000Y0201250D03*
D11*
X0045800Y0051170D03*
X0038000Y0051170D03*
X0038000Y0041330D03*
X0045800Y0041330D03*
D31*
X0027300Y0022550D03*
X0027300Y0069950D03*
D100*
X0114250Y0078250D02*
X0114250Y0084250D01*
X0124250Y0084250D02*
X0124250Y0078250D01*
X0134250Y0078250D02*
X0134250Y0084250D01*
D110*
X0124250Y0022250D03*
D48*
X0083000Y0041250D03*
X0063000Y0071250D03*
X0153000Y0116250D03*
X0153000Y0136250D03*
X0183000Y0136250D03*
X0183000Y0116250D03*
X0213000Y0116250D03*
X0213000Y0136250D03*
X0243000Y0136250D03*
X0253000Y0151250D03*
X0253000Y0171250D03*
X0263000Y0191250D03*
X0263000Y0201250D03*
X0283000Y0201250D03*
X0283000Y0191250D03*
X0313000Y0186250D03*
X0313000Y0158750D03*
X0313000Y0131250D03*
X0243000Y0116250D03*
X0158000Y0166250D03*
X0158000Y0186250D03*
X0138000Y0196250D03*
X0118000Y0196250D03*
X0158000Y0216250D03*
X0168000Y0216250D03*
X0168000Y0236250D03*
X0158000Y0236250D03*
D66*
X0313000Y0176250D03*
X0313000Y0148750D03*
X0313000Y0121250D03*
X0093000Y0041250D03*
X0073000Y0071250D03*
D65*
X0181990Y0074360D03*
X0181990Y0056250D03*
X0181990Y0038140D03*
X0202660Y0038140D03*
X0202660Y0056250D03*
X0202660Y0074360D03*
X0223330Y0074360D03*
X0223330Y0056250D03*
X0223330Y0038140D03*
X0244000Y0038140D03*
X0244000Y0056250D03*
X0244000Y0074360D03*
X0010000Y0335000D02*
G75*
%LPD*%
D50*
X0053150Y0576730D03*
X0063000Y0576730D03*
X0072840Y0576730D03*
X0153150Y0576730D03*
X0163000Y0576730D03*
X0172840Y0576730D03*
X0253150Y0576730D03*
X0263000Y0576730D03*
X0272840Y0576730D03*
X0353150Y0576730D03*
X0363000Y0576730D03*
X0372840Y0576730D03*
D111*
X0380710Y0606250D03*
X0345280Y0606250D03*
X0280710Y0606250D03*
X0245280Y0606250D03*
X0180710Y0606250D03*
X0145280Y0606250D03*
X0080710Y0606250D03*
X0045280Y0606250D03*
D82*
X0101750Y0605000D03*
X0111750Y0605000D03*
X0111750Y0615000D03*
X0111750Y0625000D03*
X0101750Y0615000D03*
X0101750Y0595000D03*
X0111750Y0595000D03*
X0101750Y0585000D03*
X0101750Y0575000D03*
X0101750Y0565000D03*
X0101750Y0555000D03*
X0101750Y0545000D03*
X0101750Y0535000D03*
X0101750Y0525000D03*
X0101750Y0515000D03*
X0101750Y0505000D03*
X0101750Y0495000D03*
X0101750Y0485000D03*
X0101750Y0475000D03*
X0101750Y0465000D03*
X0101750Y0455000D03*
X0101750Y0445000D03*
X0101750Y0435000D03*
X0111750Y0425000D03*
X0121750Y0425000D03*
X0131750Y0425000D03*
X0171750Y0425000D03*
X0181750Y0425000D03*
X0191750Y0425000D03*
X0201750Y0425000D03*
X0211750Y0425000D03*
X0221750Y0425000D03*
X0231750Y0425000D03*
X0241750Y0425000D03*
X0251750Y0425000D03*
X0271750Y0425000D03*
X0281750Y0425000D03*
X0291750Y0425000D03*
X0301750Y0425000D03*
X0311750Y0425000D03*
X0253000Y0341250D03*
X0243000Y0341250D03*
X0233000Y0341250D03*
X0223000Y0341250D03*
X0213000Y0341250D03*
X0203000Y0341250D03*
X0193000Y0341250D03*
X0183000Y0341250D03*
X0173000Y0341250D03*
X0311750Y0535000D03*
X0311750Y0545000D03*
X0311750Y0555000D03*
X0311750Y0565000D03*
X0311750Y0575000D03*
X0311750Y0585000D03*
X0311750Y0595000D03*
X0311750Y0605000D03*
X0311750Y0615000D03*
X0311750Y0625000D03*
X0311750Y0635000D03*
X0311750Y0645000D03*
X0409250Y0616250D03*
X0409250Y0606250D03*
X0409250Y0596250D03*
X0176750Y0640000D03*
X0156750Y0640000D03*
D98*
X0194250Y0645000D03*
X0194250Y0605000D03*
X0091750Y0425000D03*
X0091750Y0385000D03*
D46*
X0066750Y0371250D03*
X0058000Y0371250D03*
X0058000Y0341250D03*
X0066750Y0341250D03*
X0138000Y0436250D03*
X0168000Y0436250D03*
X0198000Y0436250D03*
X0228000Y0436250D03*
X0228000Y0466250D03*
X0198000Y0466250D03*
X0188000Y0481250D03*
X0168000Y0466250D03*
X0158000Y0481250D03*
X0148000Y0481250D03*
X0148000Y0491250D03*
X0148000Y0501250D03*
X0148000Y0511250D03*
X0168000Y0526250D03*
X0188000Y0526250D03*
X0148000Y0531250D03*
X0148000Y0541250D03*
X0148000Y0551250D03*
X0148000Y0561250D03*
X0118000Y0561250D03*
X0118000Y0551250D03*
X0118000Y0541250D03*
X0118000Y0531250D03*
X0118000Y0511250D03*
X0118000Y0501250D03*
X0118000Y0491250D03*
X0118000Y0481250D03*
X0138000Y0466250D03*
X0263000Y0466250D03*
X0263000Y0476250D03*
X0263000Y0486250D03*
X0263000Y0496250D03*
X0263000Y0506250D03*
X0293000Y0506250D03*
X0293000Y0496250D03*
X0293000Y0486250D03*
X0293000Y0476250D03*
X0293000Y0466250D03*
X0313000Y0403750D03*
X0318000Y0396250D03*
X0308000Y0396250D03*
X0313000Y0378750D03*
X0318000Y0371250D03*
X0308000Y0371250D03*
X0298000Y0351250D03*
X0298000Y0341250D03*
X0328000Y0341250D03*
X0328000Y0351250D03*
X0293000Y0536250D03*
X0293000Y0546250D03*
X0293000Y0556250D03*
X0283000Y0566250D03*
X0263000Y0566250D03*
X0263000Y0556250D03*
X0263000Y0546250D03*
X0263000Y0536250D03*
X0223000Y0581250D03*
X0203000Y0581250D03*
D80*
X0218000Y0611070D03*
X0236500Y0622880D03*
X0218000Y0634690D03*
D12*
X0359870Y0565940D03*
X0384560Y0565940D03*
X0409560Y0565940D03*
X0409560Y0501880D03*
X0409560Y0485940D03*
X0384560Y0485940D03*
X0384250Y0501880D03*
X0359870Y0501880D03*
X0359870Y0485940D03*
X0359870Y0421880D03*
X0359870Y0405940D03*
X0384560Y0405940D03*
X0384250Y0421880D03*
X0409560Y0421880D03*
X0409560Y0405940D03*
X0409560Y0341880D03*
X0384250Y0341880D03*
X0359870Y0341880D03*
X0066120Y0421570D03*
X0041430Y0421570D03*
X0016430Y0421570D03*
X0016430Y0485630D03*
X0016430Y0501570D03*
X0041430Y0501570D03*
X0041750Y0485630D03*
X0066120Y0485630D03*
X0066120Y0501570D03*
X0066120Y0565630D03*
X0041750Y0565630D03*
X0016430Y0565630D03*
D105*
X0101750Y0425000D03*
X0141750Y0425000D03*
D14*
X0183000Y0538650D02*
X0183000Y0543850D01*
X0193000Y0543850D02*
X0193000Y0538650D01*
X0203000Y0538650D02*
X0203000Y0543850D01*
X0213000Y0543850D02*
X0213000Y0538650D01*
X0223000Y0538650D02*
X0223000Y0543850D01*
X0233000Y0543850D02*
X0233000Y0538650D01*
X0243000Y0538650D02*
X0243000Y0543850D01*
X0243000Y0568650D02*
X0243000Y0573850D01*
X0233000Y0573850D02*
X0233000Y0568650D01*
X0223000Y0568650D02*
X0223000Y0573850D01*
X0213000Y0573850D02*
X0213000Y0568650D01*
X0203000Y0568650D02*
X0203000Y0573850D01*
X0193000Y0573850D02*
X0193000Y0568650D01*
X0183000Y0568650D02*
X0183000Y0573850D01*
X0298000Y0408850D02*
X0298000Y0403650D01*
X0298000Y0368850D02*
X0298000Y0363650D01*
D15*
X0228000Y0486250D03*
X0198000Y0486250D03*
X0198000Y0526250D03*
X0228000Y0526250D03*
D11*
X0045800Y0376170D03*
X0038000Y0376170D03*
X0038000Y0366330D03*
X0045800Y0366330D03*
D31*
X0027300Y0347550D03*
X0027300Y0394950D03*
D100*
X0114250Y0403250D02*
X0114250Y0409250D01*
X0124250Y0409250D02*
X0124250Y0403250D01*
X0134250Y0403250D02*
X0134250Y0409250D01*
D110*
X0124250Y0347250D03*
D48*
X0083000Y0366250D03*
X0063000Y0396250D03*
X0153000Y0441250D03*
X0153000Y0461250D03*
X0183000Y0461250D03*
X0183000Y0441250D03*
X0213000Y0441250D03*
X0213000Y0461250D03*
X0243000Y0461250D03*
X0253000Y0476250D03*
X0253000Y0496250D03*
X0263000Y0516250D03*
X0263000Y0526250D03*
X0283000Y0526250D03*
X0283000Y0516250D03*
X0313000Y0511250D03*
X0313000Y0483750D03*
X0313000Y0456250D03*
X0243000Y0441250D03*
X0158000Y0491250D03*
X0158000Y0511250D03*
X0138000Y0521250D03*
X0118000Y0521250D03*
X0158000Y0541250D03*
X0168000Y0541250D03*
X0168000Y0561250D03*
X0158000Y0561250D03*
D66*
X0313000Y0501250D03*
X0313000Y0473750D03*
X0313000Y0446250D03*
X0093000Y0366250D03*
X0073000Y0396250D03*
D65*
X0181990Y0399360D03*
X0181990Y0381250D03*
X0181990Y0363140D03*
X0202660Y0363140D03*
X0202660Y0381250D03*
X0202660Y0399360D03*
X0223330Y0399360D03*
X0223330Y0381250D03*
X0223330Y0363140D03*
X0244000Y0363140D03*
X0244000Y0381250D03*
X0244000Y0399360D03*
X0010000Y0660000D02*
G75*
%LPD*%
D50*
X0053150Y0901730D03*
X0063000Y0901730D03*
X0072840Y0901730D03*
X0153150Y0901730D03*
X0163000Y0901730D03*
X0172840Y0901730D03*
X0253150Y0901730D03*
X0263000Y0901730D03*
X0272840Y0901730D03*
X0353150Y0901730D03*
X0363000Y0901730D03*
X0372840Y0901730D03*
D111*
X0380710Y0931250D03*
X0345280Y0931250D03*
X0280710Y0931250D03*
X0245280Y0931250D03*
X0180710Y0931250D03*
X0145280Y0931250D03*
X0080710Y0931250D03*
X0045280Y0931250D03*
D82*
X0101750Y0930000D03*
X0111750Y0930000D03*
X0111750Y0940000D03*
X0111750Y0950000D03*
X0101750Y0940000D03*
X0101750Y0920000D03*
X0111750Y0920000D03*
X0101750Y0910000D03*
X0101750Y0900000D03*
X0101750Y0890000D03*
X0101750Y0880000D03*
X0101750Y0870000D03*
X0101750Y0860000D03*
X0101750Y0850000D03*
X0101750Y0840000D03*
X0101750Y0830000D03*
X0101750Y0820000D03*
X0101750Y0810000D03*
X0101750Y0800000D03*
X0101750Y0790000D03*
X0101750Y0780000D03*
X0101750Y0770000D03*
X0101750Y0760000D03*
X0111750Y0750000D03*
X0121750Y0750000D03*
X0131750Y0750000D03*
X0171750Y0750000D03*
X0181750Y0750000D03*
X0191750Y0750000D03*
X0201750Y0750000D03*
X0211750Y0750000D03*
X0221750Y0750000D03*
X0231750Y0750000D03*
X0241750Y0750000D03*
X0251750Y0750000D03*
X0271750Y0750000D03*
X0281750Y0750000D03*
X0291750Y0750000D03*
X0301750Y0750000D03*
X0311750Y0750000D03*
X0253000Y0666250D03*
X0243000Y0666250D03*
X0233000Y0666250D03*
X0223000Y0666250D03*
X0213000Y0666250D03*
X0203000Y0666250D03*
X0193000Y0666250D03*
X0183000Y0666250D03*
X0173000Y0666250D03*
X0311750Y0860000D03*
X0311750Y0870000D03*
X0311750Y0880000D03*
X0311750Y0890000D03*
X0311750Y0900000D03*
X0311750Y0910000D03*
X0311750Y0920000D03*
X0311750Y0930000D03*
X0311750Y0940000D03*
X0311750Y0950000D03*
X0311750Y0960000D03*
X0311750Y0970000D03*
X0409250Y0941250D03*
X0409250Y0931250D03*
X0409250Y0921250D03*
X0176750Y0965000D03*
X0156750Y0965000D03*
D98*
X0194250Y0970000D03*
X0194250Y0930000D03*
X0091750Y0750000D03*
X0091750Y0710000D03*
D46*
X0066750Y0696250D03*
X0058000Y0696250D03*
X0058000Y0666250D03*
X0066750Y0666250D03*
X0138000Y0761250D03*
X0168000Y0761250D03*
X0198000Y0761250D03*
X0228000Y0761250D03*
X0228000Y0791250D03*
X0198000Y0791250D03*
X0188000Y0806250D03*
X0168000Y0791250D03*
X0158000Y0806250D03*
X0148000Y0806250D03*
X0148000Y0816250D03*
X0148000Y0826250D03*
X0148000Y0836250D03*
X0168000Y0851250D03*
X0188000Y0851250D03*
X0148000Y0856250D03*
X0148000Y0866250D03*
X0148000Y0876250D03*
X0148000Y0886250D03*
X0118000Y0886250D03*
X0118000Y0876250D03*
X0118000Y0866250D03*
X0118000Y0856250D03*
X0118000Y0836250D03*
X0118000Y0826250D03*
X0118000Y0816250D03*
X0118000Y0806250D03*
X0138000Y0791250D03*
X0263000Y0791250D03*
X0263000Y0801250D03*
X0263000Y0811250D03*
X0263000Y0821250D03*
X0263000Y0831250D03*
X0293000Y0831250D03*
X0293000Y0821250D03*
X0293000Y0811250D03*
X0293000Y0801250D03*
X0293000Y0791250D03*
X0313000Y0728750D03*
X0318000Y0721250D03*
X0308000Y0721250D03*
X0313000Y0703750D03*
X0318000Y0696250D03*
X0308000Y0696250D03*
X0298000Y0676250D03*
X0298000Y0666250D03*
X0328000Y0666250D03*
X0328000Y0676250D03*
X0293000Y0861250D03*
X0293000Y0871250D03*
X0293000Y0881250D03*
X0283000Y0891250D03*
X0263000Y0891250D03*
X0263000Y0881250D03*
X0263000Y0871250D03*
X0263000Y0861250D03*
X0223000Y0906250D03*
X0203000Y0906250D03*
D80*
X0218000Y0936070D03*
X0236500Y0947880D03*
X0218000Y0959690D03*
D12*
X0359870Y0890940D03*
X0384560Y0890940D03*
X0409560Y0890940D03*
X0409560Y0826880D03*
X0409560Y0810940D03*
X0384560Y0810940D03*
X0384250Y0826880D03*
X0359870Y0826880D03*
X0359870Y0810940D03*
X0359870Y0746880D03*
X0359870Y0730940D03*
X0384560Y0730940D03*
X0384250Y0746880D03*
X0409560Y0746880D03*
X0409560Y0730940D03*
X0409560Y0666880D03*
X0384250Y0666880D03*
X0359870Y0666880D03*
X0066120Y0746570D03*
X0041430Y0746570D03*
X0016430Y0746570D03*
X0016430Y0810630D03*
X0016430Y0826570D03*
X0041430Y0826570D03*
X0041750Y0810630D03*
X0066120Y0810630D03*
X0066120Y0826570D03*
X0066120Y0890630D03*
X0041750Y0890630D03*
X0016430Y0890630D03*
D105*
X0101750Y0750000D03*
X0141750Y0750000D03*
D14*
X0183000Y0863650D02*
X0183000Y0868850D01*
X0193000Y0868850D02*
X0193000Y0863650D01*
X0203000Y0863650D02*
X0203000Y0868850D01*
X0213000Y0868850D02*
X0213000Y0863650D01*
X0223000Y0863650D02*
X0223000Y0868850D01*
X0233000Y0868850D02*
X0233000Y0863650D01*
X0243000Y0863650D02*
X0243000Y0868850D01*
X0243000Y0893650D02*
X0243000Y0898850D01*
X0233000Y0898850D02*
X0233000Y0893650D01*
X0223000Y0893650D02*
X0223000Y0898850D01*
X0213000Y0898850D02*
X0213000Y0893650D01*
X0203000Y0893650D02*
X0203000Y0898850D01*
X0193000Y0898850D02*
X0193000Y0893650D01*
X0183000Y0893650D02*
X0183000Y0898850D01*
X0298000Y0733850D02*
X0298000Y0728650D01*
X0298000Y0693850D02*
X0298000Y0688650D01*
D15*
X0228000Y0811250D03*
X0198000Y0811250D03*
X0198000Y0851250D03*
X0228000Y0851250D03*
D11*
X0045800Y0701170D03*
X0038000Y0701170D03*
X0038000Y0691330D03*
X0045800Y0691330D03*
D31*
X0027300Y0672550D03*
X0027300Y0719950D03*
D100*
X0114250Y0728250D02*
X0114250Y0734250D01*
X0124250Y0734250D02*
X0124250Y0728250D01*
X0134250Y0728250D02*
X0134250Y0734250D01*
D110*
X0124250Y0672250D03*
D48*
X0083000Y0691250D03*
X0063000Y0721250D03*
X0153000Y0766250D03*
X0153000Y0786250D03*
X0183000Y0786250D03*
X0183000Y0766250D03*
X0213000Y0766250D03*
X0213000Y0786250D03*
X0243000Y0786250D03*
X0253000Y0801250D03*
X0253000Y0821250D03*
X0263000Y0841250D03*
X0263000Y0851250D03*
X0283000Y0851250D03*
X0283000Y0841250D03*
X0313000Y0836250D03*
X0313000Y0808750D03*
X0313000Y0781250D03*
X0243000Y0766250D03*
X0158000Y0816250D03*
X0158000Y0836250D03*
X0138000Y0846250D03*
X0118000Y0846250D03*
X0158000Y0866250D03*
X0168000Y0866250D03*
X0168000Y0886250D03*
X0158000Y0886250D03*
D66*
X0313000Y0826250D03*
X0313000Y0798750D03*
X0313000Y0771250D03*
X0093000Y0691250D03*
X0073000Y0721250D03*
D65*
X0181990Y0724360D03*
X0181990Y0706250D03*
X0181990Y0688140D03*
X0202660Y0688140D03*
X0202660Y0706250D03*
X0202660Y0724360D03*
X0223330Y0724360D03*
X0223330Y0706250D03*
X0223330Y0688140D03*
X0244000Y0688140D03*
X0244000Y0706250D03*
X0244000Y0724360D03*
X0425000Y0010000D02*
G75*
%LPD*%
D50*
X0468150Y0251730D03*
X0478000Y0251730D03*
X0487840Y0251730D03*
X0568150Y0251730D03*
X0578000Y0251730D03*
X0587840Y0251730D03*
X0668150Y0251730D03*
X0678000Y0251730D03*
X0687840Y0251730D03*
X0768150Y0251730D03*
X0778000Y0251730D03*
X0787840Y0251730D03*
D111*
X0795710Y0281250D03*
X0760280Y0281250D03*
X0695710Y0281250D03*
X0660280Y0281250D03*
X0595710Y0281250D03*
X0560280Y0281250D03*
X0495710Y0281250D03*
X0460280Y0281250D03*
D82*
X0516750Y0280000D03*
X0526750Y0280000D03*
X0526750Y0290000D03*
X0526750Y0300000D03*
X0516750Y0290000D03*
X0516750Y0270000D03*
X0526750Y0270000D03*
X0516750Y0260000D03*
X0516750Y0250000D03*
X0516750Y0240000D03*
X0516750Y0230000D03*
X0516750Y0220000D03*
X0516750Y0210000D03*
X0516750Y0200000D03*
X0516750Y0190000D03*
X0516750Y0180000D03*
X0516750Y0170000D03*
X0516750Y0160000D03*
X0516750Y0150000D03*
X0516750Y0140000D03*
X0516750Y0130000D03*
X0516750Y0120000D03*
X0516750Y0110000D03*
X0526750Y0100000D03*
X0536750Y0100000D03*
X0546750Y0100000D03*
X0586750Y0100000D03*
X0596750Y0100000D03*
X0606750Y0100000D03*
X0616750Y0100000D03*
X0626750Y0100000D03*
X0636750Y0100000D03*
X0646750Y0100000D03*
X0656750Y0100000D03*
X0666750Y0100000D03*
X0686750Y0100000D03*
X0696750Y0100000D03*
X0706750Y0100000D03*
X0716750Y0100000D03*
X0726750Y0100000D03*
X0668000Y0016250D03*
X0658000Y0016250D03*
X0648000Y0016250D03*
X0638000Y0016250D03*
X0628000Y0016250D03*
X0618000Y0016250D03*
X0608000Y0016250D03*
X0598000Y0016250D03*
X0588000Y0016250D03*
X0726750Y0210000D03*
X0726750Y0220000D03*
X0726750Y0230000D03*
X0726750Y0240000D03*
X0726750Y0250000D03*
X0726750Y0260000D03*
X0726750Y0270000D03*
X0726750Y0280000D03*
X0726750Y0290000D03*
X0726750Y0300000D03*
X0726750Y0310000D03*
X0726750Y0320000D03*
X0824250Y0291250D03*
X0824250Y0281250D03*
X0824250Y0271250D03*
X0591750Y0315000D03*
X0571750Y0315000D03*
D98*
X0609250Y0320000D03*
X0609250Y0280000D03*
X0506750Y0100000D03*
X0506750Y0060000D03*
D46*
X0481750Y0046250D03*
X0473000Y0046250D03*
X0473000Y0016250D03*
X0481750Y0016250D03*
X0553000Y0111250D03*
X0583000Y0111250D03*
X0613000Y0111250D03*
X0643000Y0111250D03*
X0643000Y0141250D03*
X0613000Y0141250D03*
X0603000Y0156250D03*
X0583000Y0141250D03*
X0573000Y0156250D03*
X0563000Y0156250D03*
X0563000Y0166250D03*
X0563000Y0176250D03*
X0563000Y0186250D03*
X0583000Y0201250D03*
X0603000Y0201250D03*
X0563000Y0206250D03*
X0563000Y0216250D03*
X0563000Y0226250D03*
X0563000Y0236250D03*
X0533000Y0236250D03*
X0533000Y0226250D03*
X0533000Y0216250D03*
X0533000Y0206250D03*
X0533000Y0186250D03*
X0533000Y0176250D03*
X0533000Y0166250D03*
X0533000Y0156250D03*
X0553000Y0141250D03*
X0678000Y0141250D03*
X0678000Y0151250D03*
X0678000Y0161250D03*
X0678000Y0171250D03*
X0678000Y0181250D03*
X0708000Y0181250D03*
X0708000Y0171250D03*
X0708000Y0161250D03*
X0708000Y0151250D03*
X0708000Y0141250D03*
X0728000Y0078750D03*
X0733000Y0071250D03*
X0723000Y0071250D03*
X0728000Y0053750D03*
X0733000Y0046250D03*
X0723000Y0046250D03*
X0713000Y0026250D03*
X0713000Y0016250D03*
X0743000Y0016250D03*
X0743000Y0026250D03*
X0708000Y0211250D03*
X0708000Y0221250D03*
X0708000Y0231250D03*
X0698000Y0241250D03*
X0678000Y0241250D03*
X0678000Y0231250D03*
X0678000Y0221250D03*
X0678000Y0211250D03*
X0638000Y0256250D03*
X0618000Y0256250D03*
D80*
X0633000Y0286070D03*
X0651500Y0297880D03*
X0633000Y0309690D03*
D12*
X0774870Y0240940D03*
X0799560Y0240940D03*
X0824560Y0240940D03*
X0824560Y0176880D03*
X0824560Y0160940D03*
X0799560Y0160940D03*
X0799250Y0176880D03*
X0774870Y0176880D03*
X0774870Y0160940D03*
X0774870Y0096880D03*
X0774870Y0080940D03*
X0799560Y0080940D03*
X0799250Y0096880D03*
X0824560Y0096880D03*
X0824560Y0080940D03*
X0824560Y0016880D03*
X0799250Y0016880D03*
X0774870Y0016880D03*
X0481120Y0096570D03*
X0456430Y0096570D03*
X0431430Y0096570D03*
X0431430Y0160630D03*
X0431430Y0176570D03*
X0456430Y0176570D03*
X0456750Y0160630D03*
X0481120Y0160630D03*
X0481120Y0176570D03*
X0481120Y0240630D03*
X0456750Y0240630D03*
X0431430Y0240630D03*
D105*
X0516750Y0100000D03*
X0556750Y0100000D03*
D14*
X0598000Y0213650D02*
X0598000Y0218850D01*
X0608000Y0218850D02*
X0608000Y0213650D01*
X0618000Y0213650D02*
X0618000Y0218850D01*
X0628000Y0218850D02*
X0628000Y0213650D01*
X0638000Y0213650D02*
X0638000Y0218850D01*
X0648000Y0218850D02*
X0648000Y0213650D01*
X0658000Y0213650D02*
X0658000Y0218850D01*
X0658000Y0243650D02*
X0658000Y0248850D01*
X0648000Y0248850D02*
X0648000Y0243650D01*
X0638000Y0243650D02*
X0638000Y0248850D01*
X0628000Y0248850D02*
X0628000Y0243650D01*
X0618000Y0243650D02*
X0618000Y0248850D01*
X0608000Y0248850D02*
X0608000Y0243650D01*
X0598000Y0243650D02*
X0598000Y0248850D01*
X0713000Y0083850D02*
X0713000Y0078650D01*
X0713000Y0043850D02*
X0713000Y0038650D01*
D15*
X0643000Y0161250D03*
X0613000Y0161250D03*
X0613000Y0201250D03*
X0643000Y0201250D03*
D11*
X0460800Y0051170D03*
X0453000Y0051170D03*
X0453000Y0041330D03*
X0460800Y0041330D03*
D31*
X0442300Y0022550D03*
X0442300Y0069950D03*
D100*
X0529250Y0078250D02*
X0529250Y0084250D01*
X0539250Y0084250D02*
X0539250Y0078250D01*
X0549250Y0078250D02*
X0549250Y0084250D01*
D110*
X0539250Y0022250D03*
D48*
X0498000Y0041250D03*
X0478000Y0071250D03*
X0568000Y0116250D03*
X0568000Y0136250D03*
X0598000Y0136250D03*
X0598000Y0116250D03*
X0628000Y0116250D03*
X0628000Y0136250D03*
X0658000Y0136250D03*
X0668000Y0151250D03*
X0668000Y0171250D03*
X0678000Y0191250D03*
X0678000Y0201250D03*
X0698000Y0201250D03*
X0698000Y0191250D03*
X0728000Y0186250D03*
X0728000Y0158750D03*
X0728000Y0131250D03*
X0658000Y0116250D03*
X0573000Y0166250D03*
X0573000Y0186250D03*
X0553000Y0196250D03*
X0533000Y0196250D03*
X0573000Y0216250D03*
X0583000Y0216250D03*
X0583000Y0236250D03*
X0573000Y0236250D03*
D66*
X0728000Y0176250D03*
X0728000Y0148750D03*
X0728000Y0121250D03*
X0508000Y0041250D03*
X0488000Y0071250D03*
D65*
X0596990Y0074360D03*
X0596990Y0056250D03*
X0596990Y0038140D03*
X0617660Y0038140D03*
X0617660Y0056250D03*
X0617660Y0074360D03*
X0638330Y0074360D03*
X0638330Y0056250D03*
X0638330Y0038140D03*
X0659000Y0038140D03*
X0659000Y0056250D03*
X0659000Y0074360D03*
X0425000Y0335000D02*
G75*
%LPD*%
D50*
X0468150Y0576730D03*
X0478000Y0576730D03*
X0487840Y0576730D03*
X0568150Y0576730D03*
X0578000Y0576730D03*
X0587840Y0576730D03*
X0668150Y0576730D03*
X0678000Y0576730D03*
X0687840Y0576730D03*
X0768150Y0576730D03*
X0778000Y0576730D03*
X0787840Y0576730D03*
D111*
X0795710Y0606250D03*
X0760280Y0606250D03*
X0695710Y0606250D03*
X0660280Y0606250D03*
X0595710Y0606250D03*
X0560280Y0606250D03*
X0495710Y0606250D03*
X0460280Y0606250D03*
D82*
X0516750Y0605000D03*
X0526750Y0605000D03*
X0526750Y0615000D03*
X0526750Y0625000D03*
X0516750Y0615000D03*
X0516750Y0595000D03*
X0526750Y0595000D03*
X0516750Y0585000D03*
X0516750Y0575000D03*
X0516750Y0565000D03*
X0516750Y0555000D03*
X0516750Y0545000D03*
X0516750Y0535000D03*
X0516750Y0525000D03*
X0516750Y0515000D03*
X0516750Y0505000D03*
X0516750Y0495000D03*
X0516750Y0485000D03*
X0516750Y0475000D03*
X0516750Y0465000D03*
X0516750Y0455000D03*
X0516750Y0445000D03*
X0516750Y0435000D03*
X0526750Y0425000D03*
X0536750Y0425000D03*
X0546750Y0425000D03*
X0586750Y0425000D03*
X0596750Y0425000D03*
X0606750Y0425000D03*
X0616750Y0425000D03*
X0626750Y0425000D03*
X0636750Y0425000D03*
X0646750Y0425000D03*
X0656750Y0425000D03*
X0666750Y0425000D03*
X0686750Y0425000D03*
X0696750Y0425000D03*
X0706750Y0425000D03*
X0716750Y0425000D03*
X0726750Y0425000D03*
X0668000Y0341250D03*
X0658000Y0341250D03*
X0648000Y0341250D03*
X0638000Y0341250D03*
X0628000Y0341250D03*
X0618000Y0341250D03*
X0608000Y0341250D03*
X0598000Y0341250D03*
X0588000Y0341250D03*
X0726750Y0535000D03*
X0726750Y0545000D03*
X0726750Y0555000D03*
X0726750Y0565000D03*
X0726750Y0575000D03*
X0726750Y0585000D03*
X0726750Y0595000D03*
X0726750Y0605000D03*
X0726750Y0615000D03*
X0726750Y0625000D03*
X0726750Y0635000D03*
X0726750Y0645000D03*
X0824250Y0616250D03*
X0824250Y0606250D03*
X0824250Y0596250D03*
X0591750Y0640000D03*
X0571750Y0640000D03*
D98*
X0609250Y0645000D03*
X0609250Y0605000D03*
X0506750Y0425000D03*
X0506750Y0385000D03*
D46*
X0481750Y0371250D03*
X0473000Y0371250D03*
X0473000Y0341250D03*
X0481750Y0341250D03*
X0553000Y0436250D03*
X0583000Y0436250D03*
X0613000Y0436250D03*
X0643000Y0436250D03*
X0643000Y0466250D03*
X0613000Y0466250D03*
X0603000Y0481250D03*
X0583000Y0466250D03*
X0573000Y0481250D03*
X0563000Y0481250D03*
X0563000Y0491250D03*
X0563000Y0501250D03*
X0563000Y0511250D03*
X0583000Y0526250D03*
X0603000Y0526250D03*
X0563000Y0531250D03*
X0563000Y0541250D03*
X0563000Y0551250D03*
X0563000Y0561250D03*
X0533000Y0561250D03*
X0533000Y0551250D03*
X0533000Y0541250D03*
X0533000Y0531250D03*
X0533000Y0511250D03*
X0533000Y0501250D03*
X0533000Y0491250D03*
X0533000Y0481250D03*
X0553000Y0466250D03*
X0678000Y0466250D03*
X0678000Y0476250D03*
X0678000Y0486250D03*
X0678000Y0496250D03*
X0678000Y0506250D03*
X0708000Y0506250D03*
X0708000Y0496250D03*
X0708000Y0486250D03*
X0708000Y0476250D03*
X0708000Y0466250D03*
X0728000Y0403750D03*
X0733000Y0396250D03*
X0723000Y0396250D03*
X0728000Y0378750D03*
X0733000Y0371250D03*
X0723000Y0371250D03*
X0713000Y0351250D03*
X0713000Y0341250D03*
X0743000Y0341250D03*
X0743000Y0351250D03*
X0708000Y0536250D03*
X0708000Y0546250D03*
X0708000Y0556250D03*
X0698000Y0566250D03*
X0678000Y0566250D03*
X0678000Y0556250D03*
X0678000Y0546250D03*
X0678000Y0536250D03*
X0638000Y0581250D03*
X0618000Y0581250D03*
D80*
X0633000Y0611070D03*
X0651500Y0622880D03*
X0633000Y0634690D03*
D12*
X0774870Y0565940D03*
X0799560Y0565940D03*
X0824560Y0565940D03*
X0824560Y0501880D03*
X0824560Y0485940D03*
X0799560Y0485940D03*
X0799250Y0501880D03*
X0774870Y0501880D03*
X0774870Y0485940D03*
X0774870Y0421880D03*
X0774870Y0405940D03*
X0799560Y0405940D03*
X0799250Y0421880D03*
X0824560Y0421880D03*
X0824560Y0405940D03*
X0824560Y0341880D03*
X0799250Y0341880D03*
X0774870Y0341880D03*
X0481120Y0421570D03*
X0456430Y0421570D03*
X0431430Y0421570D03*
X0431430Y0485630D03*
X0431430Y0501570D03*
X0456430Y0501570D03*
X0456750Y0485630D03*
X0481120Y0485630D03*
X0481120Y0501570D03*
X0481120Y0565630D03*
X0456750Y0565630D03*
X0431430Y0565630D03*
D105*
X0516750Y0425000D03*
X0556750Y0425000D03*
D14*
X0598000Y0538650D02*
X0598000Y0543850D01*
X0608000Y0543850D02*
X0608000Y0538650D01*
X0618000Y0538650D02*
X0618000Y0543850D01*
X0628000Y0543850D02*
X0628000Y0538650D01*
X0638000Y0538650D02*
X0638000Y0543850D01*
X0648000Y0543850D02*
X0648000Y0538650D01*
X0658000Y0538650D02*
X0658000Y0543850D01*
X0658000Y0568650D02*
X0658000Y0573850D01*
X0648000Y0573850D02*
X0648000Y0568650D01*
X0638000Y0568650D02*
X0638000Y0573850D01*
X0628000Y0573850D02*
X0628000Y0568650D01*
X0618000Y0568650D02*
X0618000Y0573850D01*
X0608000Y0573850D02*
X0608000Y0568650D01*
X0598000Y0568650D02*
X0598000Y0573850D01*
X0713000Y0408850D02*
X0713000Y0403650D01*
X0713000Y0368850D02*
X0713000Y0363650D01*
D15*
X0643000Y0486250D03*
X0613000Y0486250D03*
X0613000Y0526250D03*
X0643000Y0526250D03*
D11*
X0460800Y0376170D03*
X0453000Y0376170D03*
X0453000Y0366330D03*
X0460800Y0366330D03*
D31*
X0442300Y0347550D03*
X0442300Y0394950D03*
D100*
X0529250Y0403250D02*
X0529250Y0409250D01*
X0539250Y0409250D02*
X0539250Y0403250D01*
X0549250Y0403250D02*
X0549250Y0409250D01*
D110*
X0539250Y0347250D03*
D48*
X0498000Y0366250D03*
X0478000Y0396250D03*
X0568000Y0441250D03*
X0568000Y0461250D03*
X0598000Y0461250D03*
X0598000Y0441250D03*
X0628000Y0441250D03*
X0628000Y0461250D03*
X0658000Y0461250D03*
X0668000Y0476250D03*
X0668000Y0496250D03*
X0678000Y0516250D03*
X0678000Y0526250D03*
X0698000Y0526250D03*
X0698000Y0516250D03*
X0728000Y0511250D03*
X0728000Y0483750D03*
X0728000Y0456250D03*
X0658000Y0441250D03*
X0573000Y0491250D03*
X0573000Y0511250D03*
X0553000Y0521250D03*
X0533000Y0521250D03*
X0573000Y0541250D03*
X0583000Y0541250D03*
X0583000Y0561250D03*
X0573000Y0561250D03*
D66*
X0728000Y0501250D03*
X0728000Y0473750D03*
X0728000Y0446250D03*
X0508000Y0366250D03*
X0488000Y0396250D03*
D65*
X0596990Y0399360D03*
X0596990Y0381250D03*
X0596990Y0363140D03*
X0617660Y0363140D03*
X0617660Y0381250D03*
X0617660Y0399360D03*
X0638330Y0399360D03*
X0638330Y0381250D03*
X0638330Y0363140D03*
X0659000Y0363140D03*
X0659000Y0381250D03*
X0659000Y0399360D03*
X0425000Y0660000D02*
G75*
%LPD*%
D50*
X0468150Y0901730D03*
X0478000Y0901730D03*
X0487840Y0901730D03*
X0568150Y0901730D03*
X0578000Y0901730D03*
X0587840Y0901730D03*
X0668150Y0901730D03*
X0678000Y0901730D03*
X0687840Y0901730D03*
X0768150Y0901730D03*
X0778000Y0901730D03*
X0787840Y0901730D03*
D111*
X0795710Y0931250D03*
X0760280Y0931250D03*
X0695710Y0931250D03*
X0660280Y0931250D03*
X0595710Y0931250D03*
X0560280Y0931250D03*
X0495710Y0931250D03*
X0460280Y0931250D03*
D82*
X0516750Y0930000D03*
X0526750Y0930000D03*
X0526750Y0940000D03*
X0526750Y0950000D03*
X0516750Y0940000D03*
X0516750Y0920000D03*
X0526750Y0920000D03*
X0516750Y0910000D03*
X0516750Y0900000D03*
X0516750Y0890000D03*
X0516750Y0880000D03*
X0516750Y0870000D03*
X0516750Y0860000D03*
X0516750Y0850000D03*
X0516750Y0840000D03*
X0516750Y0830000D03*
X0516750Y0820000D03*
X0516750Y0810000D03*
X0516750Y0800000D03*
X0516750Y0790000D03*
X0516750Y0780000D03*
X0516750Y0770000D03*
X0516750Y0760000D03*
X0526750Y0750000D03*
X0536750Y0750000D03*
X0546750Y0750000D03*
X0586750Y0750000D03*
X0596750Y0750000D03*
X0606750Y0750000D03*
X0616750Y0750000D03*
X0626750Y0750000D03*
X0636750Y0750000D03*
X0646750Y0750000D03*
X0656750Y0750000D03*
X0666750Y0750000D03*
X0686750Y0750000D03*
X0696750Y0750000D03*
X0706750Y0750000D03*
X0716750Y0750000D03*
X0726750Y0750000D03*
X0668000Y0666250D03*
X0658000Y0666250D03*
X0648000Y0666250D03*
X0638000Y0666250D03*
X0628000Y0666250D03*
X0618000Y0666250D03*
X0608000Y0666250D03*
X0598000Y0666250D03*
X0588000Y0666250D03*
X0726750Y0860000D03*
X0726750Y0870000D03*
X0726750Y0880000D03*
X0726750Y0890000D03*
X0726750Y0900000D03*
X0726750Y0910000D03*
X0726750Y0920000D03*
X0726750Y0930000D03*
X0726750Y0940000D03*
X0726750Y0950000D03*
X0726750Y0960000D03*
X0726750Y0970000D03*
X0824250Y0941250D03*
X0824250Y0931250D03*
X0824250Y0921250D03*
X0591750Y0965000D03*
X0571750Y0965000D03*
D98*
X0609250Y0970000D03*
X0609250Y0930000D03*
X0506750Y0750000D03*
X0506750Y0710000D03*
D46*
X0481750Y0696250D03*
X0473000Y0696250D03*
X0473000Y0666250D03*
X0481750Y0666250D03*
X0553000Y0761250D03*
X0583000Y0761250D03*
X0613000Y0761250D03*
X0643000Y0761250D03*
X0643000Y0791250D03*
X0613000Y0791250D03*
X0603000Y0806250D03*
X0583000Y0791250D03*
X0573000Y0806250D03*
X0563000Y0806250D03*
X0563000Y0816250D03*
X0563000Y0826250D03*
X0563000Y0836250D03*
X0583000Y0851250D03*
X0603000Y0851250D03*
X0563000Y0856250D03*
X0563000Y0866250D03*
X0563000Y0876250D03*
X0563000Y0886250D03*
X0533000Y0886250D03*
X0533000Y0876250D03*
X0533000Y0866250D03*
X0533000Y0856250D03*
X0533000Y0836250D03*
X0533000Y0826250D03*
X0533000Y0816250D03*
X0533000Y0806250D03*
X0553000Y0791250D03*
X0678000Y0791250D03*
X0678000Y0801250D03*
X0678000Y0811250D03*
X0678000Y0821250D03*
X0678000Y0831250D03*
X0708000Y0831250D03*
X0708000Y0821250D03*
X0708000Y0811250D03*
X0708000Y0801250D03*
X0708000Y0791250D03*
X0728000Y0728750D03*
X0733000Y0721250D03*
X0723000Y0721250D03*
X0728000Y0703750D03*
X0733000Y0696250D03*
X0723000Y0696250D03*
X0713000Y0676250D03*
X0713000Y0666250D03*
X0743000Y0666250D03*
X0743000Y0676250D03*
X0708000Y0861250D03*
X0708000Y0871250D03*
X0708000Y0881250D03*
X0698000Y0891250D03*
X0678000Y0891250D03*
X0678000Y0881250D03*
X0678000Y0871250D03*
X0678000Y0861250D03*
X0638000Y0906250D03*
X0618000Y0906250D03*
D80*
X0633000Y0936070D03*
X0651500Y0947880D03*
X0633000Y0959690D03*
D12*
X0774870Y0890940D03*
X0799560Y0890940D03*
X0824560Y0890940D03*
X0824560Y0826880D03*
X0824560Y0810940D03*
X0799560Y0810940D03*
X0799250Y0826880D03*
X0774870Y0826880D03*
X0774870Y0810940D03*
X0774870Y0746880D03*
X0774870Y0730940D03*
X0799560Y0730940D03*
X0799250Y0746880D03*
X0824560Y0746880D03*
X0824560Y0730940D03*
X0824560Y0666880D03*
X0799250Y0666880D03*
X0774870Y0666880D03*
X0481120Y0746570D03*
X0456430Y0746570D03*
X0431430Y0746570D03*
X0431430Y0810630D03*
X0431430Y0826570D03*
X0456430Y0826570D03*
X0456750Y0810630D03*
X0481120Y0810630D03*
X0481120Y0826570D03*
X0481120Y0890630D03*
X0456750Y0890630D03*
X0431430Y0890630D03*
D105*
X0516750Y0750000D03*
X0556750Y0750000D03*
D14*
X0598000Y0863650D02*
X0598000Y0868850D01*
X0608000Y0868850D02*
X0608000Y0863650D01*
X0618000Y0863650D02*
X0618000Y0868850D01*
X0628000Y0868850D02*
X0628000Y0863650D01*
X0638000Y0863650D02*
X0638000Y0868850D01*
X0648000Y0868850D02*
X0648000Y0863650D01*
X0658000Y0863650D02*
X0658000Y0868850D01*
X0658000Y0893650D02*
X0658000Y0898850D01*
X0648000Y0898850D02*
X0648000Y0893650D01*
X0638000Y0893650D02*
X0638000Y0898850D01*
X0628000Y0898850D02*
X0628000Y0893650D01*
X0618000Y0893650D02*
X0618000Y0898850D01*
X0608000Y0898850D02*
X0608000Y0893650D01*
X0598000Y0893650D02*
X0598000Y0898850D01*
X0713000Y0733850D02*
X0713000Y0728650D01*
X0713000Y0693850D02*
X0713000Y0688650D01*
D15*
X0643000Y0811250D03*
X0613000Y0811250D03*
X0613000Y0851250D03*
X0643000Y0851250D03*
D11*
X0460800Y0701170D03*
X0453000Y0701170D03*
X0453000Y0691330D03*
X0460800Y0691330D03*
D31*
X0442300Y0672550D03*
X0442300Y0719950D03*
D100*
X0529250Y0728250D02*
X0529250Y0734250D01*
X0539250Y0734250D02*
X0539250Y0728250D01*
X0549250Y0728250D02*
X0549250Y0734250D01*
D110*
X0539250Y0672250D03*
D48*
X0498000Y0691250D03*
X0478000Y0721250D03*
X0568000Y0766250D03*
X0568000Y0786250D03*
X0598000Y0786250D03*
X0598000Y0766250D03*
X0628000Y0766250D03*
X0628000Y0786250D03*
X0658000Y0786250D03*
X0668000Y0801250D03*
X0668000Y0821250D03*
X0678000Y0841250D03*
X0678000Y0851250D03*
X0698000Y0851250D03*
X0698000Y0841250D03*
X0728000Y0836250D03*
X0728000Y0808750D03*
X0728000Y0781250D03*
X0658000Y0766250D03*
X0573000Y0816250D03*
X0573000Y0836250D03*
X0553000Y0846250D03*
X0533000Y0846250D03*
X0573000Y0866250D03*
X0583000Y0866250D03*
X0583000Y0886250D03*
X0573000Y0886250D03*
D66*
X0728000Y0826250D03*
X0728000Y0798750D03*
X0728000Y0771250D03*
X0508000Y0691250D03*
X0488000Y0721250D03*
D65*
X0596990Y0724360D03*
X0596990Y0706250D03*
X0596990Y0688140D03*
X0617660Y0688140D03*
X0617660Y0706250D03*
X0617660Y0724360D03*
X0638330Y0724360D03*
X0638330Y0706250D03*
X0638330Y0688140D03*
X0659000Y0688140D03*
X0659000Y0706250D03*
X0659000Y0724360D03*
X0845000Y0010000D02*
G75*
%LPD*%
D82*
X0850000Y0065250D03*
X0850000Y0075250D03*
X0850000Y0085250D03*
X0850000Y0095250D03*
X0850000Y0105250D03*
X0850000Y0195250D03*
X0850000Y0205250D03*
X0850000Y0215250D03*
X0860000Y0225250D03*
X0870000Y0225250D03*
X0880000Y0225250D03*
X0890000Y0225250D03*
X0900000Y0225250D03*
X0910000Y0225250D03*
X0920000Y0225250D03*
X0930000Y0225250D03*
X0940000Y0225250D03*
X0950000Y0225250D03*
X0960000Y0225250D03*
X0970000Y0225250D03*
X0980000Y0225250D03*
X0990000Y0225250D03*
X1000000Y0225250D03*
X1010000Y0225250D03*
X1020000Y0225250D03*
X1030000Y0225250D03*
X1040000Y0225250D03*
X1040000Y0015250D03*
X1050000Y0015250D03*
X1060000Y0015250D03*
X1070000Y0015250D03*
X1030000Y0015250D03*
X1020000Y0015250D03*
X1010000Y0015250D03*
X1000000Y0015250D03*
X0990000Y0015250D03*
D57*
X1031250Y0056910D03*
X1031250Y0063600D03*
X1076250Y0054850D03*
X1076250Y0048160D03*
X1076250Y0075660D03*
X1076250Y0082350D03*
X1001250Y0146910D03*
X1001250Y0153600D03*
X1063750Y0156100D03*
X1063750Y0149410D03*
X0925000Y0101100D03*
X0925000Y0094410D03*
X0906250Y0091910D03*
X0906250Y0098600D03*
X0895000Y0098600D03*
X0887500Y0098600D03*
X0887500Y0091910D03*
X0895000Y0091910D03*
X0877500Y0093600D03*
X0877500Y0086910D03*
X0870000Y0086910D03*
X0870000Y0093600D03*
X0862500Y0093600D03*
X0862500Y0086910D03*
X0860000Y0109410D03*
X0860000Y0116100D03*
X0865000Y0126910D03*
X0865000Y0133600D03*
X0865000Y0154410D03*
X0865000Y0161100D03*
D92*
X0857090Y0176500D03*
X0850400Y0176500D03*
X0874150Y0202750D03*
X0880840Y0202750D03*
X0896650Y0204000D03*
X0903340Y0204000D03*
X0903340Y0211500D03*
X0896650Y0211500D03*
X0921650Y0204000D03*
X0928340Y0204000D03*
X0959150Y0195250D03*
X0965840Y0195250D03*
X0966650Y0186500D03*
X0973340Y0186500D03*
X0973340Y0165250D03*
X0966650Y0165250D03*
X0969150Y0140250D03*
X0975840Y0140250D03*
X0963340Y0109000D03*
X0963340Y0102750D03*
X0956650Y0102750D03*
X0956650Y0109000D03*
X0943340Y0062750D03*
X0936650Y0062750D03*
X0936650Y0050250D03*
X0943340Y0050250D03*
X0976650Y0057750D03*
X0983340Y0057750D03*
X0980840Y0034000D03*
X0974150Y0034000D03*
X0974150Y0024000D03*
X0980840Y0024000D03*
X1035400Y0024000D03*
X1042090Y0024000D03*
X0905840Y0050250D03*
X0899150Y0050250D03*
X0899150Y0062750D03*
X0905840Y0062750D03*
X1031650Y0210250D03*
X1038340Y0210250D03*
X1038340Y0216500D03*
X1031650Y0216500D03*
X0980840Y0216500D03*
X0974150Y0216500D03*
D61*
X0925900Y0062750D03*
X0914090Y0062750D03*
X0914090Y0050250D03*
X0925900Y0050250D03*
D22*
X0890000Y0045250D03*
X0880000Y0045250D03*
X0880000Y0055250D03*
X0890000Y0055250D03*
X0870000Y0055250D03*
X0870000Y0045250D03*
X0860000Y0045250D03*
X0860000Y0055250D03*
X0850000Y0055250D03*
X0850000Y0045250D03*
D20*
X0872800Y0118350D03*
X0872800Y0120250D03*
X0872800Y0122250D03*
X0872800Y0124250D03*
X0872800Y0126150D03*
X0872800Y0128150D03*
X0872800Y0130150D03*
X0872800Y0132050D03*
X0872800Y0134050D03*
X0872800Y0136050D03*
X0872800Y0137950D03*
X0872800Y0139950D03*
X0872800Y0141950D03*
X0872800Y0143850D03*
X0872800Y0145850D03*
X0872800Y0147850D03*
X0872800Y0149750D03*
X0872800Y0151750D03*
X0872800Y0153750D03*
X0872800Y0155750D03*
X0872800Y0157650D03*
X0872800Y0159650D03*
X0872800Y0161650D03*
X0872800Y0163550D03*
X0872800Y0165550D03*
X0872800Y0167550D03*
X0872800Y0169450D03*
X0872800Y0171450D03*
X0872800Y0173450D03*
X0872800Y0175350D03*
X0872800Y0177350D03*
X0872800Y0179350D03*
X0872800Y0181250D03*
X0872800Y0183250D03*
X0872800Y0185250D03*
X0872800Y0187150D03*
X0957200Y0187150D03*
X0957200Y0185250D03*
X0957200Y0183250D03*
X0957200Y0181250D03*
X0957200Y0179350D03*
X0957200Y0177350D03*
X0957200Y0175350D03*
X0957200Y0173450D03*
X0957200Y0171450D03*
X0957200Y0169450D03*
X0957200Y0167550D03*
X0957200Y0165550D03*
X0957200Y0163550D03*
X0957200Y0161650D03*
X0957200Y0159650D03*
X0957200Y0157650D03*
X0957200Y0155750D03*
X0957200Y0153750D03*
X0957200Y0151750D03*
X0957200Y0149750D03*
X0957200Y0147850D03*
X0957200Y0145850D03*
X0957200Y0143850D03*
X0957200Y0141950D03*
X0957200Y0139950D03*
X0957200Y0137950D03*
X0957200Y0136050D03*
X0957200Y0134050D03*
X0957200Y0132050D03*
X0957200Y0130150D03*
X0957200Y0128150D03*
X0957200Y0126150D03*
X0957200Y0124250D03*
X0957200Y0122250D03*
X0957200Y0120250D03*
X0957200Y0118350D03*
D54*
X0949400Y0110550D03*
X0947500Y0110550D03*
X0945500Y0110550D03*
X0943500Y0110550D03*
X0941600Y0110550D03*
X0939600Y0110550D03*
X0937600Y0110550D03*
X0935700Y0110550D03*
X0933700Y0110550D03*
X0931700Y0110550D03*
X0929800Y0110550D03*
X0927800Y0110550D03*
X0925800Y0110550D03*
X0923900Y0110550D03*
X0921900Y0110550D03*
X0919900Y0110550D03*
X0918000Y0110550D03*
X0916000Y0110550D03*
X0914000Y0110550D03*
X0912000Y0110550D03*
X0910100Y0110550D03*
X0908100Y0110550D03*
X0906100Y0110550D03*
X0904200Y0110550D03*
X0902200Y0110550D03*
X0900200Y0110550D03*
X0898300Y0110550D03*
X0896300Y0110550D03*
X0894300Y0110550D03*
X0892400Y0110550D03*
X0890400Y0110550D03*
X0888400Y0110550D03*
X0886500Y0110550D03*
X0884500Y0110550D03*
X0882500Y0110550D03*
X0880600Y0110550D03*
X0880600Y0194950D03*
X0882500Y0194950D03*
X0884500Y0194950D03*
X0886500Y0194950D03*
X0888400Y0194950D03*
X0890400Y0194950D03*
X0892400Y0194950D03*
X0894300Y0194950D03*
X0896300Y0194950D03*
X0898300Y0194950D03*
X0900200Y0194950D03*
X0902200Y0194950D03*
X0904200Y0194950D03*
X0906100Y0194950D03*
X0908100Y0194950D03*
X0910100Y0194950D03*
X0912000Y0194950D03*
X0914000Y0194950D03*
X0916000Y0194950D03*
X0918000Y0194950D03*
X0919900Y0194950D03*
X0921900Y0194950D03*
X0923900Y0194950D03*
X0925800Y0194950D03*
X0927800Y0194950D03*
X0929800Y0194950D03*
X0931700Y0194950D03*
X0933700Y0194950D03*
X0935700Y0194950D03*
X0937600Y0194950D03*
X0939600Y0194950D03*
X0941600Y0194950D03*
X0943500Y0194950D03*
X0945500Y0194950D03*
X0947500Y0194950D03*
X0949400Y0194950D03*
D19*
X0852500Y0161750D03*
X0852500Y0123750D03*
X1063750Y0084250D03*
X1063750Y0046250D03*
D16*
X1055790Y0119680D03*
X1055790Y0122830D03*
X1055790Y0125980D03*
X1055790Y0129130D03*
X1055790Y0132280D03*
X1055790Y0135430D03*
X1055790Y0138580D03*
X1055790Y0141730D03*
X1055790Y0144880D03*
X1055790Y0148030D03*
X1055790Y0151180D03*
X1055790Y0154330D03*
X1055790Y0157480D03*
X1055790Y0160630D03*
X1055790Y0163780D03*
X1055790Y0166930D03*
X1055790Y0170080D03*
X1055790Y0173230D03*
X1055790Y0176380D03*
X1055790Y0179520D03*
X1055790Y0182670D03*
X1055790Y0185820D03*
X1011700Y0185820D03*
X1011700Y0182670D03*
X1011700Y0179520D03*
X1011700Y0176380D03*
X1011700Y0173230D03*
X1011700Y0170080D03*
X1011700Y0166930D03*
X1011700Y0163780D03*
X1011700Y0160630D03*
X1011700Y0157480D03*
X1011700Y0154330D03*
X1011700Y0151180D03*
X1011700Y0148030D03*
X1011700Y0144880D03*
X1011700Y0141730D03*
X1011700Y0138580D03*
X1011700Y0135430D03*
X1011700Y0132280D03*
X1011700Y0129130D03*
X1011700Y0125980D03*
X1011700Y0122830D03*
X1011700Y0119680D03*
D59*
X0897400Y0033100D03*
X0897400Y0024100D03*
X0897400Y0015100D03*
D75*
X0872600Y0024000D03*
D96*
X0914880Y0016500D03*
X0925110Y0016500D03*
X0925110Y0034000D03*
X0914880Y0034000D03*
D36*
X0992720Y0035130D03*
X0992720Y0032580D03*
X0992720Y0030020D03*
X0992720Y0027460D03*
X0992720Y0024900D03*
X0992720Y0037690D03*
X0992720Y0040250D03*
X0992720Y0042810D03*
X0992720Y0045370D03*
X0992720Y0047930D03*
X0992720Y0050490D03*
X0992720Y0053050D03*
X0992720Y0055610D03*
X0992720Y0058170D03*
X1022270Y0058170D03*
X1022270Y0055610D03*
X1022270Y0053050D03*
X1022270Y0050490D03*
X1022270Y0047930D03*
X1022270Y0045370D03*
X1022270Y0042810D03*
X1022270Y0040250D03*
X1022270Y0037690D03*
X1022270Y0035130D03*
X1022270Y0032580D03*
X1022270Y0030020D03*
X1022270Y0027460D03*
X1022270Y0024900D03*
D27*
X1034480Y0031500D03*
X1045510Y0031500D03*
D108*
X1041250Y0054740D03*
X1041250Y0065760D03*
X0963750Y0035760D03*
X0963750Y0024740D03*
D105*
X0850000Y0185250D03*
X0850000Y0225250D03*
D23*
X0850000Y0035250D03*
X0960000Y0015250D03*
D100*
X0850000Y0015250D03*
X0850000Y0025250D03*
X0970000Y0015250D03*
X0980000Y0015250D03*
D58*
X1074630Y0192570D03*
X1074630Y0225440D03*
D56*
X1062330Y0217760D02*
X1057590Y0217760D01*
X1057590Y0200240D02*
X1062330Y0200240D01*
D34*
X1063610Y0206440D03*
X1063610Y0209000D03*
X1063610Y0211560D03*
D76*
X1066200Y0213430D02*
X1066200Y0214810D01*
X1066200Y0213430D02*
X1063620Y0213430D01*
X1063620Y0214810D01*
X1066200Y0214810D01*
X1066200Y0214010D02*
X1063620Y0214010D01*
X1063620Y0214590D02*
X1066200Y0214590D01*
X1066200Y0204570D02*
X1066200Y0203190D01*
X1063620Y0203190D01*
X1063620Y0204570D01*
X1066200Y0204570D01*
X1066200Y0203770D02*
X1063620Y0203770D01*
X1063620Y0204350D02*
X1066200Y0204350D01*
D49*
X1074630Y0204480D03*
X1074630Y0213530D03*
D68*
X1062470Y0213730D03*
X1062470Y0204280D03*
D73*
X0865000Y0176000D03*
X0865000Y0172000D03*
D63*
X1003750Y0046500D03*
X1008750Y0046500D03*
X1008750Y0036500D03*
X1003750Y0036500D03*
X0845000Y0250000D02*
G75*
%LPD*%
D82*
X0850000Y0305250D03*
X0850000Y0315250D03*
X0850000Y0325250D03*
X0850000Y0335250D03*
X0850000Y0345250D03*
X0850000Y0435250D03*
X0850000Y0445250D03*
X0850000Y0455250D03*
X0860000Y0465250D03*
X0870000Y0465250D03*
X0880000Y0465250D03*
X0890000Y0465250D03*
X0900000Y0465250D03*
X0910000Y0465250D03*
X0920000Y0465250D03*
X0930000Y0465250D03*
X0940000Y0465250D03*
X0950000Y0465250D03*
X0960000Y0465250D03*
X0970000Y0465250D03*
X0980000Y0465250D03*
X0990000Y0465250D03*
X1000000Y0465250D03*
X1010000Y0465250D03*
X1020000Y0465250D03*
X1030000Y0465250D03*
X1040000Y0465250D03*
X1040000Y0255250D03*
X1050000Y0255250D03*
X1060000Y0255250D03*
X1070000Y0255250D03*
X1030000Y0255250D03*
X1020000Y0255250D03*
X1010000Y0255250D03*
X1000000Y0255250D03*
X0990000Y0255250D03*
D57*
X1031250Y0296910D03*
X1031250Y0303600D03*
X1076250Y0294850D03*
X1076250Y0288160D03*
X1076250Y0315660D03*
X1076250Y0322350D03*
X1001250Y0386910D03*
X1001250Y0393600D03*
X1063750Y0396100D03*
X1063750Y0389410D03*
X0925000Y0341100D03*
X0925000Y0334410D03*
X0906250Y0331910D03*
X0906250Y0338600D03*
X0895000Y0338600D03*
X0887500Y0338600D03*
X0887500Y0331910D03*
X0895000Y0331910D03*
X0877500Y0333600D03*
X0877500Y0326910D03*
X0870000Y0326910D03*
X0870000Y0333600D03*
X0862500Y0333600D03*
X0862500Y0326910D03*
X0860000Y0349410D03*
X0860000Y0356100D03*
X0865000Y0366910D03*
X0865000Y0373600D03*
X0865000Y0394410D03*
X0865000Y0401100D03*
D92*
X0857090Y0416500D03*
X0850400Y0416500D03*
X0874150Y0442750D03*
X0880840Y0442750D03*
X0896650Y0444000D03*
X0903340Y0444000D03*
X0903340Y0451500D03*
X0896650Y0451500D03*
X0921650Y0444000D03*
X0928340Y0444000D03*
X0959150Y0435250D03*
X0965840Y0435250D03*
X0966650Y0426500D03*
X0973340Y0426500D03*
X0973340Y0405250D03*
X0966650Y0405250D03*
X0969150Y0380250D03*
X0975840Y0380250D03*
X0963340Y0349000D03*
X0963340Y0342750D03*
X0956650Y0342750D03*
X0956650Y0349000D03*
X0943340Y0302750D03*
X0936650Y0302750D03*
X0936650Y0290250D03*
X0943340Y0290250D03*
X0976650Y0297750D03*
X0983340Y0297750D03*
X0980840Y0274000D03*
X0974150Y0274000D03*
X0974150Y0264000D03*
X0980840Y0264000D03*
X1035400Y0264000D03*
X1042090Y0264000D03*
X0905840Y0290250D03*
X0899150Y0290250D03*
X0899150Y0302750D03*
X0905840Y0302750D03*
X1031650Y0450250D03*
X1038340Y0450250D03*
X1038340Y0456500D03*
X1031650Y0456500D03*
X0980840Y0456500D03*
X0974150Y0456500D03*
D61*
X0925900Y0302750D03*
X0914090Y0302750D03*
X0914090Y0290250D03*
X0925900Y0290250D03*
D22*
X0890000Y0285250D03*
X0880000Y0285250D03*
X0880000Y0295250D03*
X0890000Y0295250D03*
X0870000Y0295250D03*
X0870000Y0285250D03*
X0860000Y0285250D03*
X0860000Y0295250D03*
X0850000Y0295250D03*
X0850000Y0285250D03*
D20*
X0872800Y0358350D03*
X0872800Y0360250D03*
X0872800Y0362250D03*
X0872800Y0364250D03*
X0872800Y0366150D03*
X0872800Y0368150D03*
X0872800Y0370150D03*
X0872800Y0372050D03*
X0872800Y0374050D03*
X0872800Y0376050D03*
X0872800Y0377950D03*
X0872800Y0379950D03*
X0872800Y0381950D03*
X0872800Y0383850D03*
X0872800Y0385850D03*
X0872800Y0387850D03*
X0872800Y0389750D03*
X0872800Y0391750D03*
X0872800Y0393750D03*
X0872800Y0395750D03*
X0872800Y0397650D03*
X0872800Y0399650D03*
X0872800Y0401650D03*
X0872800Y0403550D03*
X0872800Y0405550D03*
X0872800Y0407550D03*
X0872800Y0409450D03*
X0872800Y0411450D03*
X0872800Y0413450D03*
X0872800Y0415350D03*
X0872800Y0417350D03*
X0872800Y0419350D03*
X0872800Y0421250D03*
X0872800Y0423250D03*
X0872800Y0425250D03*
X0872800Y0427150D03*
X0957200Y0427150D03*
X0957200Y0425250D03*
X0957200Y0423250D03*
X0957200Y0421250D03*
X0957200Y0419350D03*
X0957200Y0417350D03*
X0957200Y0415350D03*
X0957200Y0413450D03*
X0957200Y0411450D03*
X0957200Y0409450D03*
X0957200Y0407550D03*
X0957200Y0405550D03*
X0957200Y0403550D03*
X0957200Y0401650D03*
X0957200Y0399650D03*
X0957200Y0397650D03*
X0957200Y0395750D03*
X0957200Y0393750D03*
X0957200Y0391750D03*
X0957200Y0389750D03*
X0957200Y0387850D03*
X0957200Y0385850D03*
X0957200Y0383850D03*
X0957200Y0381950D03*
X0957200Y0379950D03*
X0957200Y0377950D03*
X0957200Y0376050D03*
X0957200Y0374050D03*
X0957200Y0372050D03*
X0957200Y0370150D03*
X0957200Y0368150D03*
X0957200Y0366150D03*
X0957200Y0364250D03*
X0957200Y0362250D03*
X0957200Y0360250D03*
X0957200Y0358350D03*
D54*
X0949400Y0350550D03*
X0947500Y0350550D03*
X0945500Y0350550D03*
X0943500Y0350550D03*
X0941600Y0350550D03*
X0939600Y0350550D03*
X0937600Y0350550D03*
X0935700Y0350550D03*
X0933700Y0350550D03*
X0931700Y0350550D03*
X0929800Y0350550D03*
X0927800Y0350550D03*
X0925800Y0350550D03*
X0923900Y0350550D03*
X0921900Y0350550D03*
X0919900Y0350550D03*
X0918000Y0350550D03*
X0916000Y0350550D03*
X0914000Y0350550D03*
X0912000Y0350550D03*
X0910100Y0350550D03*
X0908100Y0350550D03*
X0906100Y0350550D03*
X0904200Y0350550D03*
X0902200Y0350550D03*
X0900200Y0350550D03*
X0898300Y0350550D03*
X0896300Y0350550D03*
X0894300Y0350550D03*
X0892400Y0350550D03*
X0890400Y0350550D03*
X0888400Y0350550D03*
X0886500Y0350550D03*
X0884500Y0350550D03*
X0882500Y0350550D03*
X0880600Y0350550D03*
X0880600Y0434950D03*
X0882500Y0434950D03*
X0884500Y0434950D03*
X0886500Y0434950D03*
X0888400Y0434950D03*
X0890400Y0434950D03*
X0892400Y0434950D03*
X0894300Y0434950D03*
X0896300Y0434950D03*
X0898300Y0434950D03*
X0900200Y0434950D03*
X0902200Y0434950D03*
X0904200Y0434950D03*
X0906100Y0434950D03*
X0908100Y0434950D03*
X0910100Y0434950D03*
X0912000Y0434950D03*
X0914000Y0434950D03*
X0916000Y0434950D03*
X0918000Y0434950D03*
X0919900Y0434950D03*
X0921900Y0434950D03*
X0923900Y0434950D03*
X0925800Y0434950D03*
X0927800Y0434950D03*
X0929800Y0434950D03*
X0931700Y0434950D03*
X0933700Y0434950D03*
X0935700Y0434950D03*
X0937600Y0434950D03*
X0939600Y0434950D03*
X0941600Y0434950D03*
X0943500Y0434950D03*
X0945500Y0434950D03*
X0947500Y0434950D03*
X0949400Y0434950D03*
D19*
X0852500Y0401750D03*
X0852500Y0363750D03*
X1063750Y0324250D03*
X1063750Y0286250D03*
D16*
X1055790Y0359680D03*
X1055790Y0362830D03*
X1055790Y0365980D03*
X1055790Y0369130D03*
X1055790Y0372280D03*
X1055790Y0375430D03*
X1055790Y0378580D03*
X1055790Y0381730D03*
X1055790Y0384880D03*
X1055790Y0388030D03*
X1055790Y0391180D03*
X1055790Y0394330D03*
X1055790Y0397480D03*
X1055790Y0400630D03*
X1055790Y0403780D03*
X1055790Y0406930D03*
X1055790Y0410080D03*
X1055790Y0413230D03*
X1055790Y0416380D03*
X1055790Y0419520D03*
X1055790Y0422670D03*
X1055790Y0425820D03*
X1011700Y0425820D03*
X1011700Y0422670D03*
X1011700Y0419520D03*
X1011700Y0416380D03*
X1011700Y0413230D03*
X1011700Y0410080D03*
X1011700Y0406930D03*
X1011700Y0403780D03*
X1011700Y0400630D03*
X1011700Y0397480D03*
X1011700Y0394330D03*
X1011700Y0391180D03*
X1011700Y0388030D03*
X1011700Y0384880D03*
X1011700Y0381730D03*
X1011700Y0378580D03*
X1011700Y0375430D03*
X1011700Y0372280D03*
X1011700Y0369130D03*
X1011700Y0365980D03*
X1011700Y0362830D03*
X1011700Y0359680D03*
D59*
X0897400Y0273100D03*
X0897400Y0264100D03*
X0897400Y0255100D03*
D75*
X0872600Y0264000D03*
D96*
X0914880Y0256500D03*
X0925110Y0256500D03*
X0925110Y0274000D03*
X0914880Y0274000D03*
D36*
X0992720Y0275130D03*
X0992720Y0272580D03*
X0992720Y0270020D03*
X0992720Y0267460D03*
X0992720Y0264900D03*
X0992720Y0277690D03*
X0992720Y0280250D03*
X0992720Y0282810D03*
X0992720Y0285370D03*
X0992720Y0287930D03*
X0992720Y0290490D03*
X0992720Y0293050D03*
X0992720Y0295610D03*
X0992720Y0298170D03*
X1022270Y0298170D03*
X1022270Y0295610D03*
X1022270Y0293050D03*
X1022270Y0290490D03*
X1022270Y0287930D03*
X1022270Y0285370D03*
X1022270Y0282810D03*
X1022270Y0280250D03*
X1022270Y0277690D03*
X1022270Y0275130D03*
X1022270Y0272580D03*
X1022270Y0270020D03*
X1022270Y0267460D03*
X1022270Y0264900D03*
D27*
X1034480Y0271500D03*
X1045510Y0271500D03*
D108*
X1041250Y0294740D03*
X1041250Y0305760D03*
X0963750Y0275760D03*
X0963750Y0264740D03*
D105*
X0850000Y0425250D03*
X0850000Y0465250D03*
D23*
X0850000Y0275250D03*
X0960000Y0255250D03*
D100*
X0850000Y0255250D03*
X0850000Y0265250D03*
X0970000Y0255250D03*
X0980000Y0255250D03*
D58*
X1074630Y0432570D03*
X1074630Y0465440D03*
D56*
X1062330Y0457760D02*
X1057590Y0457760D01*
X1057590Y0440240D02*
X1062330Y0440240D01*
D34*
X1063610Y0446440D03*
X1063610Y0449000D03*
X1063610Y0451560D03*
D76*
X1066200Y0453430D02*
X1066200Y0454810D01*
X1066200Y0453430D02*
X1063620Y0453430D01*
X1063620Y0454810D01*
X1066200Y0454810D01*
X1066200Y0454010D02*
X1063620Y0454010D01*
X1063620Y0454590D02*
X1066200Y0454590D01*
X1066200Y0444570D02*
X1066200Y0443190D01*
X1063620Y0443190D01*
X1063620Y0444570D01*
X1066200Y0444570D01*
X1066200Y0443770D02*
X1063620Y0443770D01*
X1063620Y0444350D02*
X1066200Y0444350D01*
D49*
X1074630Y0444480D03*
X1074630Y0453530D03*
D68*
X1062470Y0453730D03*
X1062470Y0444280D03*
D73*
X0865000Y0416000D03*
X0865000Y0412000D03*
D63*
X1003750Y0286500D03*
X1008750Y0286500D03*
X1008750Y0276500D03*
X1003750Y0276500D03*
X0845000Y0490000D02*
G75*
%LPD*%
D82*
X0850000Y0545250D03*
X0850000Y0555250D03*
X0850000Y0565250D03*
X0850000Y0575250D03*
X0850000Y0585250D03*
X0850000Y0675250D03*
X0850000Y0685250D03*
X0850000Y0695250D03*
X0860000Y0705250D03*
X0870000Y0705250D03*
X0880000Y0705250D03*
X0890000Y0705250D03*
X0900000Y0705250D03*
X0910000Y0705250D03*
X0920000Y0705250D03*
X0930000Y0705250D03*
X0940000Y0705250D03*
X0950000Y0705250D03*
X0960000Y0705250D03*
X0970000Y0705250D03*
X0980000Y0705250D03*
X0990000Y0705250D03*
X1000000Y0705250D03*
X1010000Y0705250D03*
X1020000Y0705250D03*
X1030000Y0705250D03*
X1040000Y0705250D03*
X1040000Y0495250D03*
X1050000Y0495250D03*
X1060000Y0495250D03*
X1070000Y0495250D03*
X1030000Y0495250D03*
X1020000Y0495250D03*
X1010000Y0495250D03*
X1000000Y0495250D03*
X0990000Y0495250D03*
D57*
X1031250Y0536910D03*
X1031250Y0543600D03*
X1076250Y0534850D03*
X1076250Y0528160D03*
X1076250Y0555660D03*
X1076250Y0562350D03*
X1001250Y0626910D03*
X1001250Y0633600D03*
X1063750Y0636100D03*
X1063750Y0629410D03*
X0925000Y0581100D03*
X0925000Y0574410D03*
X0906250Y0571910D03*
X0906250Y0578600D03*
X0895000Y0578600D03*
X0887500Y0578600D03*
X0887500Y0571910D03*
X0895000Y0571910D03*
X0877500Y0573600D03*
X0877500Y0566910D03*
X0870000Y0566910D03*
X0870000Y0573600D03*
X0862500Y0573600D03*
X0862500Y0566910D03*
X0860000Y0589410D03*
X0860000Y0596100D03*
X0865000Y0606910D03*
X0865000Y0613600D03*
X0865000Y0634410D03*
X0865000Y0641100D03*
D92*
X0857090Y0656500D03*
X0850400Y0656500D03*
X0874150Y0682750D03*
X0880840Y0682750D03*
X0896650Y0684000D03*
X0903340Y0684000D03*
X0903340Y0691500D03*
X0896650Y0691500D03*
X0921650Y0684000D03*
X0928340Y0684000D03*
X0959150Y0675250D03*
X0965840Y0675250D03*
X0966650Y0666500D03*
X0973340Y0666500D03*
X0973340Y0645250D03*
X0966650Y0645250D03*
X0969150Y0620250D03*
X0975840Y0620250D03*
X0963340Y0589000D03*
X0963340Y0582750D03*
X0956650Y0582750D03*
X0956650Y0589000D03*
X0943340Y0542750D03*
X0936650Y0542750D03*
X0936650Y0530250D03*
X0943340Y0530250D03*
X0976650Y0537750D03*
X0983340Y0537750D03*
X0980840Y0514000D03*
X0974150Y0514000D03*
X0974150Y0504000D03*
X0980840Y0504000D03*
X1035400Y0504000D03*
X1042090Y0504000D03*
X0905840Y0530250D03*
X0899150Y0530250D03*
X0899150Y0542750D03*
X0905840Y0542750D03*
X1031650Y0690250D03*
X1038340Y0690250D03*
X1038340Y0696500D03*
X1031650Y0696500D03*
X0980840Y0696500D03*
X0974150Y0696500D03*
D61*
X0925900Y0542750D03*
X0914090Y0542750D03*
X0914090Y0530250D03*
X0925900Y0530250D03*
D22*
X0890000Y0525250D03*
X0880000Y0525250D03*
X0880000Y0535250D03*
X0890000Y0535250D03*
X0870000Y0535250D03*
X0870000Y0525250D03*
X0860000Y0525250D03*
X0860000Y0535250D03*
X0850000Y0535250D03*
X0850000Y0525250D03*
D20*
X0872800Y0598350D03*
X0872800Y0600250D03*
X0872800Y0602250D03*
X0872800Y0604250D03*
X0872800Y0606150D03*
X0872800Y0608150D03*
X0872800Y0610150D03*
X0872800Y0612050D03*
X0872800Y0614050D03*
X0872800Y0616050D03*
X0872800Y0617950D03*
X0872800Y0619950D03*
X0872800Y0621950D03*
X0872800Y0623850D03*
X0872800Y0625850D03*
X0872800Y0627850D03*
X0872800Y0629750D03*
X0872800Y0631750D03*
X0872800Y0633750D03*
X0872800Y0635750D03*
X0872800Y0637650D03*
X0872800Y0639650D03*
X0872800Y0641650D03*
X0872800Y0643550D03*
X0872800Y0645550D03*
X0872800Y0647550D03*
X0872800Y0649450D03*
X0872800Y0651450D03*
X0872800Y0653450D03*
X0872800Y0655350D03*
X0872800Y0657350D03*
X0872800Y0659350D03*
X0872800Y0661250D03*
X0872800Y0663250D03*
X0872800Y0665250D03*
X0872800Y0667150D03*
X0957200Y0667150D03*
X0957200Y0665250D03*
X0957200Y0663250D03*
X0957200Y0661250D03*
X0957200Y0659350D03*
X0957200Y0657350D03*
X0957200Y0655350D03*
X0957200Y0653450D03*
X0957200Y0651450D03*
X0957200Y0649450D03*
X0957200Y0647550D03*
X0957200Y0645550D03*
X0957200Y0643550D03*
X0957200Y0641650D03*
X0957200Y0639650D03*
X0957200Y0637650D03*
X0957200Y0635750D03*
X0957200Y0633750D03*
X0957200Y0631750D03*
X0957200Y0629750D03*
X0957200Y0627850D03*
X0957200Y0625850D03*
X0957200Y0623850D03*
X0957200Y0621950D03*
X0957200Y0619950D03*
X0957200Y0617950D03*
X0957200Y0616050D03*
X0957200Y0614050D03*
X0957200Y0612050D03*
X0957200Y0610150D03*
X0957200Y0608150D03*
X0957200Y0606150D03*
X0957200Y0604250D03*
X0957200Y0602250D03*
X0957200Y0600250D03*
X0957200Y0598350D03*
D54*
X0949400Y0590550D03*
X0947500Y0590550D03*
X0945500Y0590550D03*
X0943500Y0590550D03*
X0941600Y0590550D03*
X0939600Y0590550D03*
X0937600Y0590550D03*
X0935700Y0590550D03*
X0933700Y0590550D03*
X0931700Y0590550D03*
X0929800Y0590550D03*
X0927800Y0590550D03*
X0925800Y0590550D03*
X0923900Y0590550D03*
X0921900Y0590550D03*
X0919900Y0590550D03*
X0918000Y0590550D03*
X0916000Y0590550D03*
X0914000Y0590550D03*
X0912000Y0590550D03*
X0910100Y0590550D03*
X0908100Y0590550D03*
X0906100Y0590550D03*
X0904200Y0590550D03*
X0902200Y0590550D03*
X0900200Y0590550D03*
X0898300Y0590550D03*
X0896300Y0590550D03*
X0894300Y0590550D03*
X0892400Y0590550D03*
X0890400Y0590550D03*
X0888400Y0590550D03*
X0886500Y0590550D03*
X0884500Y0590550D03*
X0882500Y0590550D03*
X0880600Y0590550D03*
X0880600Y0674950D03*
X0882500Y0674950D03*
X0884500Y0674950D03*
X0886500Y0674950D03*
X0888400Y0674950D03*
X0890400Y0674950D03*
X0892400Y0674950D03*
X0894300Y0674950D03*
X0896300Y0674950D03*
X0898300Y0674950D03*
X0900200Y0674950D03*
X0902200Y0674950D03*
X0904200Y0674950D03*
X0906100Y0674950D03*
X0908100Y0674950D03*
X0910100Y0674950D03*
X0912000Y0674950D03*
X0914000Y0674950D03*
X0916000Y0674950D03*
X0918000Y0674950D03*
X0919900Y0674950D03*
X0921900Y0674950D03*
X0923900Y0674950D03*
X0925800Y0674950D03*
X0927800Y0674950D03*
X0929800Y0674950D03*
X0931700Y0674950D03*
X0933700Y0674950D03*
X0935700Y0674950D03*
X0937600Y0674950D03*
X0939600Y0674950D03*
X0941600Y0674950D03*
X0943500Y0674950D03*
X0945500Y0674950D03*
X0947500Y0674950D03*
X0949400Y0674950D03*
D19*
X0852500Y0641750D03*
X0852500Y0603750D03*
X1063750Y0564250D03*
X1063750Y0526250D03*
D16*
X1055790Y0599680D03*
X1055790Y0602830D03*
X1055790Y0605980D03*
X1055790Y0609130D03*
X1055790Y0612280D03*
X1055790Y0615430D03*
X1055790Y0618580D03*
X1055790Y0621730D03*
X1055790Y0624880D03*
X1055790Y0628030D03*
X1055790Y0631180D03*
X1055790Y0634330D03*
X1055790Y0637480D03*
X1055790Y0640630D03*
X1055790Y0643780D03*
X1055790Y0646930D03*
X1055790Y0650080D03*
X1055790Y0653230D03*
X1055790Y0656380D03*
X1055790Y0659520D03*
X1055790Y0662670D03*
X1055790Y0665820D03*
X1011700Y0665820D03*
X1011700Y0662670D03*
X1011700Y0659520D03*
X1011700Y0656380D03*
X1011700Y0653230D03*
X1011700Y0650080D03*
X1011700Y0646930D03*
X1011700Y0643780D03*
X1011700Y0640630D03*
X1011700Y0637480D03*
X1011700Y0634330D03*
X1011700Y0631180D03*
X1011700Y0628030D03*
X1011700Y0624880D03*
X1011700Y0621730D03*
X1011700Y0618580D03*
X1011700Y0615430D03*
X1011700Y0612280D03*
X1011700Y0609130D03*
X1011700Y0605980D03*
X1011700Y0602830D03*
X1011700Y0599680D03*
D59*
X0897400Y0513100D03*
X0897400Y0504100D03*
X0897400Y0495100D03*
D75*
X0872600Y0504000D03*
D96*
X0914880Y0496500D03*
X0925110Y0496500D03*
X0925110Y0514000D03*
X0914880Y0514000D03*
D36*
X0992720Y0515130D03*
X0992720Y0512580D03*
X0992720Y0510020D03*
X0992720Y0507460D03*
X0992720Y0504900D03*
X0992720Y0517690D03*
X0992720Y0520250D03*
X0992720Y0522810D03*
X0992720Y0525370D03*
X0992720Y0527930D03*
X0992720Y0530490D03*
X0992720Y0533050D03*
X0992720Y0535610D03*
X0992720Y0538170D03*
X1022270Y0538170D03*
X1022270Y0535610D03*
X1022270Y0533050D03*
X1022270Y0530490D03*
X1022270Y0527930D03*
X1022270Y0525370D03*
X1022270Y0522810D03*
X1022270Y0520250D03*
X1022270Y0517690D03*
X1022270Y0515130D03*
X1022270Y0512580D03*
X1022270Y0510020D03*
X1022270Y0507460D03*
X1022270Y0504900D03*
D27*
X1034480Y0511500D03*
X1045510Y0511500D03*
D108*
X1041250Y0534740D03*
X1041250Y0545760D03*
X0963750Y0515760D03*
X0963750Y0504740D03*
D105*
X0850000Y0665250D03*
X0850000Y0705250D03*
D23*
X0850000Y0515250D03*
X0960000Y0495250D03*
D100*
X0850000Y0495250D03*
X0850000Y0505250D03*
X0970000Y0495250D03*
X0980000Y0495250D03*
D58*
X1074630Y0672570D03*
X1074630Y0705440D03*
D56*
X1062330Y0697760D02*
X1057590Y0697760D01*
X1057590Y0680240D02*
X1062330Y0680240D01*
D34*
X1063610Y0686440D03*
X1063610Y0689000D03*
X1063610Y0691560D03*
D76*
X1066200Y0693430D02*
X1066200Y0694810D01*
X1066200Y0693430D02*
X1063620Y0693430D01*
X1063620Y0694810D01*
X1066200Y0694810D01*
X1066200Y0694010D02*
X1063620Y0694010D01*
X1063620Y0694590D02*
X1066200Y0694590D01*
X1066200Y0684570D02*
X1066200Y0683190D01*
X1063620Y0683190D01*
X1063620Y0684570D01*
X1066200Y0684570D01*
X1066200Y0683770D02*
X1063620Y0683770D01*
X1063620Y0684350D02*
X1066200Y0684350D01*
D49*
X1074630Y0684480D03*
X1074630Y0693530D03*
D68*
X1062470Y0693730D03*
X1062470Y0684280D03*
D73*
X0865000Y0656000D03*
X0865000Y0652000D03*
D63*
X1003750Y0526500D03*
X1008750Y0526500D03*
X1008750Y0516500D03*
X1003750Y0516500D03*
X0845000Y0730000D02*
G75*
%LPD*%
D82*
X0850000Y0785250D03*
X0850000Y0795250D03*
X0850000Y0805250D03*
X0850000Y0815250D03*
X0850000Y0825250D03*
X0850000Y0915250D03*
X0850000Y0925250D03*
X0850000Y0935250D03*
X0860000Y0945250D03*
X0870000Y0945250D03*
X0880000Y0945250D03*
X0890000Y0945250D03*
X0900000Y0945250D03*
X0910000Y0945250D03*
X0920000Y0945250D03*
X0930000Y0945250D03*
X0940000Y0945250D03*
X0950000Y0945250D03*
X0960000Y0945250D03*
X0970000Y0945250D03*
X0980000Y0945250D03*
X0990000Y0945250D03*
X1000000Y0945250D03*
X1010000Y0945250D03*
X1020000Y0945250D03*
X1030000Y0945250D03*
X1040000Y0945250D03*
X1040000Y0735250D03*
X1050000Y0735250D03*
X1060000Y0735250D03*
X1070000Y0735250D03*
X1030000Y0735250D03*
X1020000Y0735250D03*
X1010000Y0735250D03*
X1000000Y0735250D03*
X0990000Y0735250D03*
D57*
X1031250Y0776910D03*
X1031250Y0783600D03*
X1076250Y0774850D03*
X1076250Y0768160D03*
X1076250Y0795660D03*
X1076250Y0802350D03*
X1001250Y0866910D03*
X1001250Y0873600D03*
X1063750Y0876100D03*
X1063750Y0869410D03*
X0925000Y0821100D03*
X0925000Y0814410D03*
X0906250Y0811910D03*
X0906250Y0818600D03*
X0895000Y0818600D03*
X0887500Y0818600D03*
X0887500Y0811910D03*
X0895000Y0811910D03*
X0877500Y0813600D03*
X0877500Y0806910D03*
X0870000Y0806910D03*
X0870000Y0813600D03*
X0862500Y0813600D03*
X0862500Y0806910D03*
X0860000Y0829410D03*
X0860000Y0836100D03*
X0865000Y0846910D03*
X0865000Y0853600D03*
X0865000Y0874410D03*
X0865000Y0881100D03*
D92*
X0857090Y0896500D03*
X0850400Y0896500D03*
X0874150Y0922750D03*
X0880840Y0922750D03*
X0896650Y0924000D03*
X0903340Y0924000D03*
X0903340Y0931500D03*
X0896650Y0931500D03*
X0921650Y0924000D03*
X0928340Y0924000D03*
X0959150Y0915250D03*
X0965840Y0915250D03*
X0966650Y0906500D03*
X0973340Y0906500D03*
X0973340Y0885250D03*
X0966650Y0885250D03*
X0969150Y0860250D03*
X0975840Y0860250D03*
X0963340Y0829000D03*
X0963340Y0822750D03*
X0956650Y0822750D03*
X0956650Y0829000D03*
X0943340Y0782750D03*
X0936650Y0782750D03*
X0936650Y0770250D03*
X0943340Y0770250D03*
X0976650Y0777750D03*
X0983340Y0777750D03*
X0980840Y0754000D03*
X0974150Y0754000D03*
X0974150Y0744000D03*
X0980840Y0744000D03*
X1035400Y0744000D03*
X1042090Y0744000D03*
X0905840Y0770250D03*
X0899150Y0770250D03*
X0899150Y0782750D03*
X0905840Y0782750D03*
X1031650Y0930250D03*
X1038340Y0930250D03*
X1038340Y0936500D03*
X1031650Y0936500D03*
X0980840Y0936500D03*
X0974150Y0936500D03*
D61*
X0925900Y0782750D03*
X0914090Y0782750D03*
X0914090Y0770250D03*
X0925900Y0770250D03*
D22*
X0890000Y0765250D03*
X0880000Y0765250D03*
X0880000Y0775250D03*
X0890000Y0775250D03*
X0870000Y0775250D03*
X0870000Y0765250D03*
X0860000Y0765250D03*
X0860000Y0775250D03*
X0850000Y0775250D03*
X0850000Y0765250D03*
D20*
X0872800Y0838350D03*
X0872800Y0840250D03*
X0872800Y0842250D03*
X0872800Y0844250D03*
X0872800Y0846150D03*
X0872800Y0848150D03*
X0872800Y0850150D03*
X0872800Y0852050D03*
X0872800Y0854050D03*
X0872800Y0856050D03*
X0872800Y0857950D03*
X0872800Y0859950D03*
X0872800Y0861950D03*
X0872800Y0863850D03*
X0872800Y0865850D03*
X0872800Y0867850D03*
X0872800Y0869750D03*
X0872800Y0871750D03*
X0872800Y0873750D03*
X0872800Y0875750D03*
X0872800Y0877650D03*
X0872800Y0879650D03*
X0872800Y0881650D03*
X0872800Y0883550D03*
X0872800Y0885550D03*
X0872800Y0887550D03*
X0872800Y0889450D03*
X0872800Y0891450D03*
X0872800Y0893450D03*
X0872800Y0895350D03*
X0872800Y0897350D03*
X0872800Y0899350D03*
X0872800Y0901250D03*
X0872800Y0903250D03*
X0872800Y0905250D03*
X0872800Y0907150D03*
X0957200Y0907150D03*
X0957200Y0905250D03*
X0957200Y0903250D03*
X0957200Y0901250D03*
X0957200Y0899350D03*
X0957200Y0897350D03*
X0957200Y0895350D03*
X0957200Y0893450D03*
X0957200Y0891450D03*
X0957200Y0889450D03*
X0957200Y0887550D03*
X0957200Y0885550D03*
X0957200Y0883550D03*
X0957200Y0881650D03*
X0957200Y0879650D03*
X0957200Y0877650D03*
X0957200Y0875750D03*
X0957200Y0873750D03*
X0957200Y0871750D03*
X0957200Y0869750D03*
X0957200Y0867850D03*
X0957200Y0865850D03*
X0957200Y0863850D03*
X0957200Y0861950D03*
X0957200Y0859950D03*
X0957200Y0857950D03*
X0957200Y0856050D03*
X0957200Y0854050D03*
X0957200Y0852050D03*
X0957200Y0850150D03*
X0957200Y0848150D03*
X0957200Y0846150D03*
X0957200Y0844250D03*
X0957200Y0842250D03*
X0957200Y0840250D03*
X0957200Y0838350D03*
D54*
X0949400Y0830550D03*
X0947500Y0830550D03*
X0945500Y0830550D03*
X0943500Y0830550D03*
X0941600Y0830550D03*
X0939600Y0830550D03*
X0937600Y0830550D03*
X0935700Y0830550D03*
X0933700Y0830550D03*
X0931700Y0830550D03*
X0929800Y0830550D03*
X0927800Y0830550D03*
X0925800Y0830550D03*
X0923900Y0830550D03*
X0921900Y0830550D03*
X0919900Y0830550D03*
X0918000Y0830550D03*
X0916000Y0830550D03*
X0914000Y0830550D03*
X0912000Y0830550D03*
X0910100Y0830550D03*
X0908100Y0830550D03*
X0906100Y0830550D03*
X0904200Y0830550D03*
X0902200Y0830550D03*
X0900200Y0830550D03*
X0898300Y0830550D03*
X0896300Y0830550D03*
X0894300Y0830550D03*
X0892400Y0830550D03*
X0890400Y0830550D03*
X0888400Y0830550D03*
X0886500Y0830550D03*
X0884500Y0830550D03*
X0882500Y0830550D03*
X0880600Y0830550D03*
X0880600Y0914950D03*
X0882500Y0914950D03*
X0884500Y0914950D03*
X0886500Y0914950D03*
X0888400Y0914950D03*
X0890400Y0914950D03*
X0892400Y0914950D03*
X0894300Y0914950D03*
X0896300Y0914950D03*
X0898300Y0914950D03*
X0900200Y0914950D03*
X0902200Y0914950D03*
X0904200Y0914950D03*
X0906100Y0914950D03*
X0908100Y0914950D03*
X0910100Y0914950D03*
X0912000Y0914950D03*
X0914000Y0914950D03*
X0916000Y0914950D03*
X0918000Y0914950D03*
X0919900Y0914950D03*
X0921900Y0914950D03*
X0923900Y0914950D03*
X0925800Y0914950D03*
X0927800Y0914950D03*
X0929800Y0914950D03*
X0931700Y0914950D03*
X0933700Y0914950D03*
X0935700Y0914950D03*
X0937600Y0914950D03*
X0939600Y0914950D03*
X0941600Y0914950D03*
X0943500Y0914950D03*
X0945500Y0914950D03*
X0947500Y0914950D03*
X0949400Y0914950D03*
D19*
X0852500Y0881750D03*
X0852500Y0843750D03*
X1063750Y0804250D03*
X1063750Y0766250D03*
D16*
X1055790Y0839680D03*
X1055790Y0842830D03*
X1055790Y0845980D03*
X1055790Y0849130D03*
X1055790Y0852280D03*
X1055790Y0855430D03*
X1055790Y0858580D03*
X1055790Y0861730D03*
X1055790Y0864880D03*
X1055790Y0868030D03*
X1055790Y0871180D03*
X1055790Y0874330D03*
X1055790Y0877480D03*
X1055790Y0880630D03*
X1055790Y0883780D03*
X1055790Y0886930D03*
X1055790Y0890080D03*
X1055790Y0893230D03*
X1055790Y0896380D03*
X1055790Y0899520D03*
X1055790Y0902670D03*
X1055790Y0905820D03*
X1011700Y0905820D03*
X1011700Y0902670D03*
X1011700Y0899520D03*
X1011700Y0896380D03*
X1011700Y0893230D03*
X1011700Y0890080D03*
X1011700Y0886930D03*
X1011700Y0883780D03*
X1011700Y0880630D03*
X1011700Y0877480D03*
X1011700Y0874330D03*
X1011700Y0871180D03*
X1011700Y0868030D03*
X1011700Y0864880D03*
X1011700Y0861730D03*
X1011700Y0858580D03*
X1011700Y0855430D03*
X1011700Y0852280D03*
X1011700Y0849130D03*
X1011700Y0845980D03*
X1011700Y0842830D03*
X1011700Y0839680D03*
D59*
X0897400Y0753100D03*
X0897400Y0744100D03*
X0897400Y0735100D03*
D75*
X0872600Y0744000D03*
D96*
X0914880Y0736500D03*
X0925110Y0736500D03*
X0925110Y0754000D03*
X0914880Y0754000D03*
D36*
X0992720Y0755130D03*
X0992720Y0752580D03*
X0992720Y0750020D03*
X0992720Y0747460D03*
X0992720Y0744900D03*
X0992720Y0757690D03*
X0992720Y0760250D03*
X0992720Y0762810D03*
X0992720Y0765370D03*
X0992720Y0767930D03*
X0992720Y0770490D03*
X0992720Y0773050D03*
X0992720Y0775610D03*
X0992720Y0778170D03*
X1022270Y0778170D03*
X1022270Y0775610D03*
X1022270Y0773050D03*
X1022270Y0770490D03*
X1022270Y0767930D03*
X1022270Y0765370D03*
X1022270Y0762810D03*
X1022270Y0760250D03*
X1022270Y0757690D03*
X1022270Y0755130D03*
X1022270Y0752580D03*
X1022270Y0750020D03*
X1022270Y0747460D03*
X1022270Y0744900D03*
D27*
X1034480Y0751500D03*
X1045510Y0751500D03*
D108*
X1041250Y0774740D03*
X1041250Y0785760D03*
X0963750Y0755760D03*
X0963750Y0744740D03*
D105*
X0850000Y0905250D03*
X0850000Y0945250D03*
D23*
X0850000Y0755250D03*
X0960000Y0735250D03*
D100*
X0850000Y0735250D03*
X0850000Y0745250D03*
X0970000Y0735250D03*
X0980000Y0735250D03*
D58*
X1074630Y0912570D03*
X1074630Y0945440D03*
D56*
X1062330Y0937760D02*
X1057590Y0937760D01*
X1057590Y0920240D02*
X1062330Y0920240D01*
D34*
X1063610Y0926440D03*
X1063610Y0929000D03*
X1063610Y0931560D03*
D76*
X1066200Y0933430D02*
X1066200Y0934810D01*
X1066200Y0933430D02*
X1063620Y0933430D01*
X1063620Y0934810D01*
X1066200Y0934810D01*
X1066200Y0934010D02*
X1063620Y0934010D01*
X1063620Y0934590D02*
X1066200Y0934590D01*
X1066200Y0924570D02*
X1066200Y0923190D01*
X1063620Y0923190D01*
X1063620Y0924570D01*
X1066200Y0924570D01*
X1066200Y0923770D02*
X1063620Y0923770D01*
X1063620Y0924350D02*
X1066200Y0924350D01*
D49*
X1074630Y0924480D03*
X1074630Y0933530D03*
D68*
X1062470Y0933730D03*
X1062470Y0924280D03*
D73*
X0865000Y0896000D03*
X0865000Y0892000D03*
D63*
X1003750Y0766500D03*
X1008750Y0766500D03*
X1008750Y0756500D03*
X1003750Y0756500D03*
X1095000Y0010000D02*
G75*
%LPD*%
D82*
X1100000Y0065250D03*
X1100000Y0075250D03*
X1100000Y0085250D03*
X1100000Y0095250D03*
X1100000Y0105250D03*
X1100000Y0195250D03*
X1100000Y0205250D03*
X1100000Y0215250D03*
X1110000Y0225250D03*
X1120000Y0225250D03*
X1130000Y0225250D03*
X1140000Y0225250D03*
X1150000Y0225250D03*
X1160000Y0225250D03*
X1170000Y0225250D03*
X1180000Y0225250D03*
X1190000Y0225250D03*
X1200000Y0225250D03*
X1210000Y0225250D03*
X1220000Y0225250D03*
X1230000Y0225250D03*
X1240000Y0225250D03*
X1250000Y0225250D03*
X1260000Y0225250D03*
X1270000Y0225250D03*
X1280000Y0225250D03*
X1290000Y0225250D03*
X1290000Y0015250D03*
X1300000Y0015250D03*
X1310000Y0015250D03*
X1320000Y0015250D03*
X1280000Y0015250D03*
X1270000Y0015250D03*
X1260000Y0015250D03*
X1250000Y0015250D03*
X1240000Y0015250D03*
D57*
X1281250Y0056910D03*
X1281250Y0063600D03*
X1326250Y0054850D03*
X1326250Y0048160D03*
X1326250Y0075660D03*
X1326250Y0082350D03*
X1251250Y0146910D03*
X1251250Y0153600D03*
X1313750Y0156100D03*
X1313750Y0149410D03*
X1175000Y0101100D03*
X1175000Y0094410D03*
X1156250Y0091910D03*
X1156250Y0098600D03*
X1145000Y0098600D03*
X1137500Y0098600D03*
X1137500Y0091910D03*
X1145000Y0091910D03*
X1127500Y0093600D03*
X1127500Y0086910D03*
X1120000Y0086910D03*
X1120000Y0093600D03*
X1112500Y0093600D03*
X1112500Y0086910D03*
X1110000Y0109410D03*
X1110000Y0116100D03*
X1115000Y0126910D03*
X1115000Y0133600D03*
X1115000Y0154410D03*
X1115000Y0161100D03*
D92*
X1107090Y0176500D03*
X1100400Y0176500D03*
X1124150Y0202750D03*
X1130840Y0202750D03*
X1146650Y0204000D03*
X1153340Y0204000D03*
X1153340Y0211500D03*
X1146650Y0211500D03*
X1171650Y0204000D03*
X1178340Y0204000D03*
X1209150Y0195250D03*
X1215840Y0195250D03*
X1216650Y0186500D03*
X1223340Y0186500D03*
X1223340Y0165250D03*
X1216650Y0165250D03*
X1219150Y0140250D03*
X1225840Y0140250D03*
X1213340Y0109000D03*
X1213340Y0102750D03*
X1206650Y0102750D03*
X1206650Y0109000D03*
X1193340Y0062750D03*
X1186650Y0062750D03*
X1186650Y0050250D03*
X1193340Y0050250D03*
X1226650Y0057750D03*
X1233340Y0057750D03*
X1230840Y0034000D03*
X1224150Y0034000D03*
X1224150Y0024000D03*
X1230840Y0024000D03*
X1285400Y0024000D03*
X1292090Y0024000D03*
X1155840Y0050250D03*
X1149150Y0050250D03*
X1149150Y0062750D03*
X1155840Y0062750D03*
X1281650Y0210250D03*
X1288340Y0210250D03*
X1288340Y0216500D03*
X1281650Y0216500D03*
X1230840Y0216500D03*
X1224150Y0216500D03*
D61*
X1175900Y0062750D03*
X1164090Y0062750D03*
X1164090Y0050250D03*
X1175900Y0050250D03*
D22*
X1140000Y0045250D03*
X1130000Y0045250D03*
X1130000Y0055250D03*
X1140000Y0055250D03*
X1120000Y0055250D03*
X1120000Y0045250D03*
X1110000Y0045250D03*
X1110000Y0055250D03*
X1100000Y0055250D03*
X1100000Y0045250D03*
D20*
X1122800Y0118350D03*
X1122800Y0120250D03*
X1122800Y0122250D03*
X1122800Y0124250D03*
X1122800Y0126150D03*
X1122800Y0128150D03*
X1122800Y0130150D03*
X1122800Y0132050D03*
X1122800Y0134050D03*
X1122800Y0136050D03*
X1122800Y0137950D03*
X1122800Y0139950D03*
X1122800Y0141950D03*
X1122800Y0143850D03*
X1122800Y0145850D03*
X1122800Y0147850D03*
X1122800Y0149750D03*
X1122800Y0151750D03*
X1122800Y0153750D03*
X1122800Y0155750D03*
X1122800Y0157650D03*
X1122800Y0159650D03*
X1122800Y0161650D03*
X1122800Y0163550D03*
X1122800Y0165550D03*
X1122800Y0167550D03*
X1122800Y0169450D03*
X1122800Y0171450D03*
X1122800Y0173450D03*
X1122800Y0175350D03*
X1122800Y0177350D03*
X1122800Y0179350D03*
X1122800Y0181250D03*
X1122800Y0183250D03*
X1122800Y0185250D03*
X1122800Y0187150D03*
X1207200Y0187150D03*
X1207200Y0185250D03*
X1207200Y0183250D03*
X1207200Y0181250D03*
X1207200Y0179350D03*
X1207200Y0177350D03*
X1207200Y0175350D03*
X1207200Y0173450D03*
X1207200Y0171450D03*
X1207200Y0169450D03*
X1207200Y0167550D03*
X1207200Y0165550D03*
X1207200Y0163550D03*
X1207200Y0161650D03*
X1207200Y0159650D03*
X1207200Y0157650D03*
X1207200Y0155750D03*
X1207200Y0153750D03*
X1207200Y0151750D03*
X1207200Y0149750D03*
X1207200Y0147850D03*
X1207200Y0145850D03*
X1207200Y0143850D03*
X1207200Y0141950D03*
X1207200Y0139950D03*
X1207200Y0137950D03*
X1207200Y0136050D03*
X1207200Y0134050D03*
X1207200Y0132050D03*
X1207200Y0130150D03*
X1207200Y0128150D03*
X1207200Y0126150D03*
X1207200Y0124250D03*
X1207200Y0122250D03*
X1207200Y0120250D03*
X1207200Y0118350D03*
D54*
X1199400Y0110550D03*
X1197500Y0110550D03*
X1195500Y0110550D03*
X1193500Y0110550D03*
X1191600Y0110550D03*
X1189600Y0110550D03*
X1187600Y0110550D03*
X1185700Y0110550D03*
X1183700Y0110550D03*
X1181700Y0110550D03*
X1179800Y0110550D03*
X1177800Y0110550D03*
X1175800Y0110550D03*
X1173900Y0110550D03*
X1171900Y0110550D03*
X1169900Y0110550D03*
X1168000Y0110550D03*
X1166000Y0110550D03*
X1164000Y0110550D03*
X1162000Y0110550D03*
X1160100Y0110550D03*
X1158100Y0110550D03*
X1156100Y0110550D03*
X1154200Y0110550D03*
X1152200Y0110550D03*
X1150200Y0110550D03*
X1148300Y0110550D03*
X1146300Y0110550D03*
X1144300Y0110550D03*
X1142400Y0110550D03*
X1140400Y0110550D03*
X1138400Y0110550D03*
X1136500Y0110550D03*
X1134500Y0110550D03*
X1132500Y0110550D03*
X1130600Y0110550D03*
X1130600Y0194950D03*
X1132500Y0194950D03*
X1134500Y0194950D03*
X1136500Y0194950D03*
X1138400Y0194950D03*
X1140400Y0194950D03*
X1142400Y0194950D03*
X1144300Y0194950D03*
X1146300Y0194950D03*
X1148300Y0194950D03*
X1150200Y0194950D03*
X1152200Y0194950D03*
X1154200Y0194950D03*
X1156100Y0194950D03*
X1158100Y0194950D03*
X1160100Y0194950D03*
X1162000Y0194950D03*
X1164000Y0194950D03*
X1166000Y0194950D03*
X1168000Y0194950D03*
X1169900Y0194950D03*
X1171900Y0194950D03*
X1173900Y0194950D03*
X1175800Y0194950D03*
X1177800Y0194950D03*
X1179800Y0194950D03*
X1181700Y0194950D03*
X1183700Y0194950D03*
X1185700Y0194950D03*
X1187600Y0194950D03*
X1189600Y0194950D03*
X1191600Y0194950D03*
X1193500Y0194950D03*
X1195500Y0194950D03*
X1197500Y0194950D03*
X1199400Y0194950D03*
D19*
X1102500Y0161750D03*
X1102500Y0123750D03*
X1313750Y0084250D03*
X1313750Y0046250D03*
D16*
X1305790Y0119680D03*
X1305790Y0122830D03*
X1305790Y0125980D03*
X1305790Y0129130D03*
X1305790Y0132280D03*
X1305790Y0135430D03*
X1305790Y0138580D03*
X1305790Y0141730D03*
X1305790Y0144880D03*
X1305790Y0148030D03*
X1305790Y0151180D03*
X1305790Y0154330D03*
X1305790Y0157480D03*
X1305790Y0160630D03*
X1305790Y0163780D03*
X1305790Y0166930D03*
X1305790Y0170080D03*
X1305790Y0173230D03*
X1305790Y0176380D03*
X1305790Y0179520D03*
X1305790Y0182670D03*
X1305790Y0185820D03*
X1261700Y0185820D03*
X1261700Y0182670D03*
X1261700Y0179520D03*
X1261700Y0176380D03*
X1261700Y0173230D03*
X1261700Y0170080D03*
X1261700Y0166930D03*
X1261700Y0163780D03*
X1261700Y0160630D03*
X1261700Y0157480D03*
X1261700Y0154330D03*
X1261700Y0151180D03*
X1261700Y0148030D03*
X1261700Y0144880D03*
X1261700Y0141730D03*
X1261700Y0138580D03*
X1261700Y0135430D03*
X1261700Y0132280D03*
X1261700Y0129130D03*
X1261700Y0125980D03*
X1261700Y0122830D03*
X1261700Y0119680D03*
D59*
X1147400Y0033100D03*
X1147400Y0024100D03*
X1147400Y0015100D03*
D75*
X1122600Y0024000D03*
D96*
X1164880Y0016500D03*
X1175110Y0016500D03*
X1175110Y0034000D03*
X1164880Y0034000D03*
D36*
X1242720Y0035130D03*
X1242720Y0032580D03*
X1242720Y0030020D03*
X1242720Y0027460D03*
X1242720Y0024900D03*
X1242720Y0037690D03*
X1242720Y0040250D03*
X1242720Y0042810D03*
X1242720Y0045370D03*
X1242720Y0047930D03*
X1242720Y0050490D03*
X1242720Y0053050D03*
X1242720Y0055610D03*
X1242720Y0058170D03*
X1272270Y0058170D03*
X1272270Y0055610D03*
X1272270Y0053050D03*
X1272270Y0050490D03*
X1272270Y0047930D03*
X1272270Y0045370D03*
X1272270Y0042810D03*
X1272270Y0040250D03*
X1272270Y0037690D03*
X1272270Y0035130D03*
X1272270Y0032580D03*
X1272270Y0030020D03*
X1272270Y0027460D03*
X1272270Y0024900D03*
D27*
X1284480Y0031500D03*
X1295510Y0031500D03*
D108*
X1291250Y0054740D03*
X1291250Y0065760D03*
X1213750Y0035760D03*
X1213750Y0024740D03*
D105*
X1100000Y0185250D03*
X1100000Y0225250D03*
D23*
X1100000Y0035250D03*
X1210000Y0015250D03*
D100*
X1100000Y0015250D03*
X1100000Y0025250D03*
X1220000Y0015250D03*
X1230000Y0015250D03*
D58*
X1324630Y0192570D03*
X1324630Y0225440D03*
D56*
X1312330Y0217760D02*
X1307590Y0217760D01*
X1307590Y0200240D02*
X1312330Y0200240D01*
D34*
X1313610Y0206440D03*
X1313610Y0209000D03*
X1313610Y0211560D03*
D76*
X1316200Y0213430D02*
X1316200Y0214810D01*
X1316200Y0213430D02*
X1313620Y0213430D01*
X1313620Y0214810D01*
X1316200Y0214810D01*
X1316200Y0214010D02*
X1313620Y0214010D01*
X1313620Y0214590D02*
X1316200Y0214590D01*
X1316200Y0204570D02*
X1316200Y0203190D01*
X1313620Y0203190D01*
X1313620Y0204570D01*
X1316200Y0204570D01*
X1316200Y0203770D02*
X1313620Y0203770D01*
X1313620Y0204350D02*
X1316200Y0204350D01*
D49*
X1324630Y0204480D03*
X1324630Y0213530D03*
D68*
X1312470Y0213730D03*
X1312470Y0204280D03*
D73*
X1115000Y0176000D03*
X1115000Y0172000D03*
D63*
X1253750Y0046500D03*
X1258750Y0046500D03*
X1258750Y0036500D03*
X1253750Y0036500D03*
X1095000Y0250000D02*
G75*
%LPD*%
D82*
X1100000Y0305250D03*
X1100000Y0315250D03*
X1100000Y0325250D03*
X1100000Y0335250D03*
X1100000Y0345250D03*
X1100000Y0435250D03*
X1100000Y0445250D03*
X1100000Y0455250D03*
X1110000Y0465250D03*
X1120000Y0465250D03*
X1130000Y0465250D03*
X1140000Y0465250D03*
X1150000Y0465250D03*
X1160000Y0465250D03*
X1170000Y0465250D03*
X1180000Y0465250D03*
X1190000Y0465250D03*
X1200000Y0465250D03*
X1210000Y0465250D03*
X1220000Y0465250D03*
X1230000Y0465250D03*
X1240000Y0465250D03*
X1250000Y0465250D03*
X1260000Y0465250D03*
X1270000Y0465250D03*
X1280000Y0465250D03*
X1290000Y0465250D03*
X1290000Y0255250D03*
X1300000Y0255250D03*
X1310000Y0255250D03*
X1320000Y0255250D03*
X1280000Y0255250D03*
X1270000Y0255250D03*
X1260000Y0255250D03*
X1250000Y0255250D03*
X1240000Y0255250D03*
D57*
X1281250Y0296910D03*
X1281250Y0303600D03*
X1326250Y0294850D03*
X1326250Y0288160D03*
X1326250Y0315660D03*
X1326250Y0322350D03*
X1251250Y0386910D03*
X1251250Y0393600D03*
X1313750Y0396100D03*
X1313750Y0389410D03*
X1175000Y0341100D03*
X1175000Y0334410D03*
X1156250Y0331910D03*
X1156250Y0338600D03*
X1145000Y0338600D03*
X1137500Y0338600D03*
X1137500Y0331910D03*
X1145000Y0331910D03*
X1127500Y0333600D03*
X1127500Y0326910D03*
X1120000Y0326910D03*
X1120000Y0333600D03*
X1112500Y0333600D03*
X1112500Y0326910D03*
X1110000Y0349410D03*
X1110000Y0356100D03*
X1115000Y0366910D03*
X1115000Y0373600D03*
X1115000Y0394410D03*
X1115000Y0401100D03*
D92*
X1107090Y0416500D03*
X1100400Y0416500D03*
X1124150Y0442750D03*
X1130840Y0442750D03*
X1146650Y0444000D03*
X1153340Y0444000D03*
X1153340Y0451500D03*
X1146650Y0451500D03*
X1171650Y0444000D03*
X1178340Y0444000D03*
X1209150Y0435250D03*
X1215840Y0435250D03*
X1216650Y0426500D03*
X1223340Y0426500D03*
X1223340Y0405250D03*
X1216650Y0405250D03*
X1219150Y0380250D03*
X1225840Y0380250D03*
X1213340Y0349000D03*
X1213340Y0342750D03*
X1206650Y0342750D03*
X1206650Y0349000D03*
X1193340Y0302750D03*
X1186650Y0302750D03*
X1186650Y0290250D03*
X1193340Y0290250D03*
X1226650Y0297750D03*
X1233340Y0297750D03*
X1230840Y0274000D03*
X1224150Y0274000D03*
X1224150Y0264000D03*
X1230840Y0264000D03*
X1285400Y0264000D03*
X1292090Y0264000D03*
X1155840Y0290250D03*
X1149150Y0290250D03*
X1149150Y0302750D03*
X1155840Y0302750D03*
X1281650Y0450250D03*
X1288340Y0450250D03*
X1288340Y0456500D03*
X1281650Y0456500D03*
X1230840Y0456500D03*
X1224150Y0456500D03*
D61*
X1175900Y0302750D03*
X1164090Y0302750D03*
X1164090Y0290250D03*
X1175900Y0290250D03*
D22*
X1140000Y0285250D03*
X1130000Y0285250D03*
X1130000Y0295250D03*
X1140000Y0295250D03*
X1120000Y0295250D03*
X1120000Y0285250D03*
X1110000Y0285250D03*
X1110000Y0295250D03*
X1100000Y0295250D03*
X1100000Y0285250D03*
D20*
X1122800Y0358350D03*
X1122800Y0360250D03*
X1122800Y0362250D03*
X1122800Y0364250D03*
X1122800Y0366150D03*
X1122800Y0368150D03*
X1122800Y0370150D03*
X1122800Y0372050D03*
X1122800Y0374050D03*
X1122800Y0376050D03*
X1122800Y0377950D03*
X1122800Y0379950D03*
X1122800Y0381950D03*
X1122800Y0383850D03*
X1122800Y0385850D03*
X1122800Y0387850D03*
X1122800Y0389750D03*
X1122800Y0391750D03*
X1122800Y0393750D03*
X1122800Y0395750D03*
X1122800Y0397650D03*
X1122800Y0399650D03*
X1122800Y0401650D03*
X1122800Y0403550D03*
X1122800Y0405550D03*
X1122800Y0407550D03*
X1122800Y0409450D03*
X1122800Y0411450D03*
X1122800Y0413450D03*
X1122800Y0415350D03*
X1122800Y0417350D03*
X1122800Y0419350D03*
X1122800Y0421250D03*
X1122800Y0423250D03*
X1122800Y0425250D03*
X1122800Y0427150D03*
X1207200Y0427150D03*
X1207200Y0425250D03*
X1207200Y0423250D03*
X1207200Y0421250D03*
X1207200Y0419350D03*
X1207200Y0417350D03*
X1207200Y0415350D03*
X1207200Y0413450D03*
X1207200Y0411450D03*
X1207200Y0409450D03*
X1207200Y0407550D03*
X1207200Y0405550D03*
X1207200Y0403550D03*
X1207200Y0401650D03*
X1207200Y0399650D03*
X1207200Y0397650D03*
X1207200Y0395750D03*
X1207200Y0393750D03*
X1207200Y0391750D03*
X1207200Y0389750D03*
X1207200Y0387850D03*
X1207200Y0385850D03*
X1207200Y0383850D03*
X1207200Y0381950D03*
X1207200Y0379950D03*
X1207200Y0377950D03*
X1207200Y0376050D03*
X1207200Y0374050D03*
X1207200Y0372050D03*
X1207200Y0370150D03*
X1207200Y0368150D03*
X1207200Y0366150D03*
X1207200Y0364250D03*
X1207200Y0362250D03*
X1207200Y0360250D03*
X1207200Y0358350D03*
D54*
X1199400Y0350550D03*
X1197500Y0350550D03*
X1195500Y0350550D03*
X1193500Y0350550D03*
X1191600Y0350550D03*
X1189600Y0350550D03*
X1187600Y0350550D03*
X1185700Y0350550D03*
X1183700Y0350550D03*
X1181700Y0350550D03*
X1179800Y0350550D03*
X1177800Y0350550D03*
X1175800Y0350550D03*
X1173900Y0350550D03*
X1171900Y0350550D03*
X1169900Y0350550D03*
X1168000Y0350550D03*
X1166000Y0350550D03*
X1164000Y0350550D03*
X1162000Y0350550D03*
X1160100Y0350550D03*
X1158100Y0350550D03*
X1156100Y0350550D03*
X1154200Y0350550D03*
X1152200Y0350550D03*
X1150200Y0350550D03*
X1148300Y0350550D03*
X1146300Y0350550D03*
X1144300Y0350550D03*
X1142400Y0350550D03*
X1140400Y0350550D03*
X1138400Y0350550D03*
X1136500Y0350550D03*
X1134500Y0350550D03*
X1132500Y0350550D03*
X1130600Y0350550D03*
X1130600Y0434950D03*
X1132500Y0434950D03*
X1134500Y0434950D03*
X1136500Y0434950D03*
X1138400Y0434950D03*
X1140400Y0434950D03*
X1142400Y0434950D03*
X1144300Y0434950D03*
X1146300Y0434950D03*
X1148300Y0434950D03*
X1150200Y0434950D03*
X1152200Y0434950D03*
X1154200Y0434950D03*
X1156100Y0434950D03*
X1158100Y0434950D03*
X1160100Y0434950D03*
X1162000Y0434950D03*
X1164000Y0434950D03*
X1166000Y0434950D03*
X1168000Y0434950D03*
X1169900Y0434950D03*
X1171900Y0434950D03*
X1173900Y0434950D03*
X1175800Y0434950D03*
X1177800Y0434950D03*
X1179800Y0434950D03*
X1181700Y0434950D03*
X1183700Y0434950D03*
X1185700Y0434950D03*
X1187600Y0434950D03*
X1189600Y0434950D03*
X1191600Y0434950D03*
X1193500Y0434950D03*
X1195500Y0434950D03*
X1197500Y0434950D03*
X1199400Y0434950D03*
D19*
X1102500Y0401750D03*
X1102500Y0363750D03*
X1313750Y0324250D03*
X1313750Y0286250D03*
D16*
X1305790Y0359680D03*
X1305790Y0362830D03*
X1305790Y0365980D03*
X1305790Y0369130D03*
X1305790Y0372280D03*
X1305790Y0375430D03*
X1305790Y0378580D03*
X1305790Y0381730D03*
X1305790Y0384880D03*
X1305790Y0388030D03*
X1305790Y0391180D03*
X1305790Y0394330D03*
X1305790Y0397480D03*
X1305790Y0400630D03*
X1305790Y0403780D03*
X1305790Y0406930D03*
X1305790Y0410080D03*
X1305790Y0413230D03*
X1305790Y0416380D03*
X1305790Y0419520D03*
X1305790Y0422670D03*
X1305790Y0425820D03*
X1261700Y0425820D03*
X1261700Y0422670D03*
X1261700Y0419520D03*
X1261700Y0416380D03*
X1261700Y0413230D03*
X1261700Y0410080D03*
X1261700Y0406930D03*
X1261700Y0403780D03*
X1261700Y0400630D03*
X1261700Y0397480D03*
X1261700Y0394330D03*
X1261700Y0391180D03*
X1261700Y0388030D03*
X1261700Y0384880D03*
X1261700Y0381730D03*
X1261700Y0378580D03*
X1261700Y0375430D03*
X1261700Y0372280D03*
X1261700Y0369130D03*
X1261700Y0365980D03*
X1261700Y0362830D03*
X1261700Y0359680D03*
D59*
X1147400Y0273100D03*
X1147400Y0264100D03*
X1147400Y0255100D03*
D75*
X1122600Y0264000D03*
D96*
X1164880Y0256500D03*
X1175110Y0256500D03*
X1175110Y0274000D03*
X1164880Y0274000D03*
D36*
X1242720Y0275130D03*
X1242720Y0272580D03*
X1242720Y0270020D03*
X1242720Y0267460D03*
X1242720Y0264900D03*
X1242720Y0277690D03*
X1242720Y0280250D03*
X1242720Y0282810D03*
X1242720Y0285370D03*
X1242720Y0287930D03*
X1242720Y0290490D03*
X1242720Y0293050D03*
X1242720Y0295610D03*
X1242720Y0298170D03*
X1272270Y0298170D03*
X1272270Y0295610D03*
X1272270Y0293050D03*
X1272270Y0290490D03*
X1272270Y0287930D03*
X1272270Y0285370D03*
X1272270Y0282810D03*
X1272270Y0280250D03*
X1272270Y0277690D03*
X1272270Y0275130D03*
X1272270Y0272580D03*
X1272270Y0270020D03*
X1272270Y0267460D03*
X1272270Y0264900D03*
D27*
X1284480Y0271500D03*
X1295510Y0271500D03*
D108*
X1291250Y0294740D03*
X1291250Y0305760D03*
X1213750Y0275760D03*
X1213750Y0264740D03*
D105*
X1100000Y0425250D03*
X1100000Y0465250D03*
D23*
X1100000Y0275250D03*
X1210000Y0255250D03*
D100*
X1100000Y0255250D03*
X1100000Y0265250D03*
X1220000Y0255250D03*
X1230000Y0255250D03*
D58*
X1324630Y0432570D03*
X1324630Y0465440D03*
D56*
X1312330Y0457760D02*
X1307590Y0457760D01*
X1307590Y0440240D02*
X1312330Y0440240D01*
D34*
X1313610Y0446440D03*
X1313610Y0449000D03*
X1313610Y0451560D03*
D76*
X1316200Y0453430D02*
X1316200Y0454810D01*
X1316200Y0453430D02*
X1313620Y0453430D01*
X1313620Y0454810D01*
X1316200Y0454810D01*
X1316200Y0454010D02*
X1313620Y0454010D01*
X1313620Y0454590D02*
X1316200Y0454590D01*
X1316200Y0444570D02*
X1316200Y0443190D01*
X1313620Y0443190D01*
X1313620Y0444570D01*
X1316200Y0444570D01*
X1316200Y0443770D02*
X1313620Y0443770D01*
X1313620Y0444350D02*
X1316200Y0444350D01*
D49*
X1324630Y0444480D03*
X1324630Y0453530D03*
D68*
X1312470Y0453730D03*
X1312470Y0444280D03*
D73*
X1115000Y0416000D03*
X1115000Y0412000D03*
D63*
X1253750Y0286500D03*
X1258750Y0286500D03*
X1258750Y0276500D03*
X1253750Y0276500D03*
X1095000Y0490000D02*
G75*
%LPD*%
D82*
X1100000Y0545250D03*
X1100000Y0555250D03*
X1100000Y0565250D03*
X1100000Y0575250D03*
X1100000Y0585250D03*
X1100000Y0675250D03*
X1100000Y0685250D03*
X1100000Y0695250D03*
X1110000Y0705250D03*
X1120000Y0705250D03*
X1130000Y0705250D03*
X1140000Y0705250D03*
X1150000Y0705250D03*
X1160000Y0705250D03*
X1170000Y0705250D03*
X1180000Y0705250D03*
X1190000Y0705250D03*
X1200000Y0705250D03*
X1210000Y0705250D03*
X1220000Y0705250D03*
X1230000Y0705250D03*
X1240000Y0705250D03*
X1250000Y0705250D03*
X1260000Y0705250D03*
X1270000Y0705250D03*
X1280000Y0705250D03*
X1290000Y0705250D03*
X1290000Y0495250D03*
X1300000Y0495250D03*
X1310000Y0495250D03*
X1320000Y0495250D03*
X1280000Y0495250D03*
X1270000Y0495250D03*
X1260000Y0495250D03*
X1250000Y0495250D03*
X1240000Y0495250D03*
D57*
X1281250Y0536910D03*
X1281250Y0543600D03*
X1326250Y0534850D03*
X1326250Y0528160D03*
X1326250Y0555660D03*
X1326250Y0562350D03*
X1251250Y0626910D03*
X1251250Y0633600D03*
X1313750Y0636100D03*
X1313750Y0629410D03*
X1175000Y0581100D03*
X1175000Y0574410D03*
X1156250Y0571910D03*
X1156250Y0578600D03*
X1145000Y0578600D03*
X1137500Y0578600D03*
X1137500Y0571910D03*
X1145000Y0571910D03*
X1127500Y0573600D03*
X1127500Y0566910D03*
X1120000Y0566910D03*
X1120000Y0573600D03*
X1112500Y0573600D03*
X1112500Y0566910D03*
X1110000Y0589410D03*
X1110000Y0596100D03*
X1115000Y0606910D03*
X1115000Y0613600D03*
X1115000Y0634410D03*
X1115000Y0641100D03*
D92*
X1107090Y0656500D03*
X1100400Y0656500D03*
X1124150Y0682750D03*
X1130840Y0682750D03*
X1146650Y0684000D03*
X1153340Y0684000D03*
X1153340Y0691500D03*
X1146650Y0691500D03*
X1171650Y0684000D03*
X1178340Y0684000D03*
X1209150Y0675250D03*
X1215840Y0675250D03*
X1216650Y0666500D03*
X1223340Y0666500D03*
X1223340Y0645250D03*
X1216650Y0645250D03*
X1219150Y0620250D03*
X1225840Y0620250D03*
X1213340Y0589000D03*
X1213340Y0582750D03*
X1206650Y0582750D03*
X1206650Y0589000D03*
X1193340Y0542750D03*
X1186650Y0542750D03*
X1186650Y0530250D03*
X1193340Y0530250D03*
X1226650Y0537750D03*
X1233340Y0537750D03*
X1230840Y0514000D03*
X1224150Y0514000D03*
X1224150Y0504000D03*
X1230840Y0504000D03*
X1285400Y0504000D03*
X1292090Y0504000D03*
X1155840Y0530250D03*
X1149150Y0530250D03*
X1149150Y0542750D03*
X1155840Y0542750D03*
X1281650Y0690250D03*
X1288340Y0690250D03*
X1288340Y0696500D03*
X1281650Y0696500D03*
X1230840Y0696500D03*
X1224150Y0696500D03*
D61*
X1175900Y0542750D03*
X1164090Y0542750D03*
X1164090Y0530250D03*
X1175900Y0530250D03*
D22*
X1140000Y0525250D03*
X1130000Y0525250D03*
X1130000Y0535250D03*
X1140000Y0535250D03*
X1120000Y0535250D03*
X1120000Y0525250D03*
X1110000Y0525250D03*
X1110000Y0535250D03*
X1100000Y0535250D03*
X1100000Y0525250D03*
D20*
X1122800Y0598350D03*
X1122800Y0600250D03*
X1122800Y0602250D03*
X1122800Y0604250D03*
X1122800Y0606150D03*
X1122800Y0608150D03*
X1122800Y0610150D03*
X1122800Y0612050D03*
X1122800Y0614050D03*
X1122800Y0616050D03*
X1122800Y0617950D03*
X1122800Y0619950D03*
X1122800Y0621950D03*
X1122800Y0623850D03*
X1122800Y0625850D03*
X1122800Y0627850D03*
X1122800Y0629750D03*
X1122800Y0631750D03*
X1122800Y0633750D03*
X1122800Y0635750D03*
X1122800Y0637650D03*
X1122800Y0639650D03*
X1122800Y0641650D03*
X1122800Y0643550D03*
X1122800Y0645550D03*
X1122800Y0647550D03*
X1122800Y0649450D03*
X1122800Y0651450D03*
X1122800Y0653450D03*
X1122800Y0655350D03*
X1122800Y0657350D03*
X1122800Y0659350D03*
X1122800Y0661250D03*
X1122800Y0663250D03*
X1122800Y0665250D03*
X1122800Y0667150D03*
X1207200Y0667150D03*
X1207200Y0665250D03*
X1207200Y0663250D03*
X1207200Y0661250D03*
X1207200Y0659350D03*
X1207200Y0657350D03*
X1207200Y0655350D03*
X1207200Y0653450D03*
X1207200Y0651450D03*
X1207200Y0649450D03*
X1207200Y0647550D03*
X1207200Y0645550D03*
X1207200Y0643550D03*
X1207200Y0641650D03*
X1207200Y0639650D03*
X1207200Y0637650D03*
X1207200Y0635750D03*
X1207200Y0633750D03*
X1207200Y0631750D03*
X1207200Y0629750D03*
X1207200Y0627850D03*
X1207200Y0625850D03*
X1207200Y0623850D03*
X1207200Y0621950D03*
X1207200Y0619950D03*
X1207200Y0617950D03*
X1207200Y0616050D03*
X1207200Y0614050D03*
X1207200Y0612050D03*
X1207200Y0610150D03*
X1207200Y0608150D03*
X1207200Y0606150D03*
X1207200Y0604250D03*
X1207200Y0602250D03*
X1207200Y0600250D03*
X1207200Y0598350D03*
D54*
X1199400Y0590550D03*
X1197500Y0590550D03*
X1195500Y0590550D03*
X1193500Y0590550D03*
X1191600Y0590550D03*
X1189600Y0590550D03*
X1187600Y0590550D03*
X1185700Y0590550D03*
X1183700Y0590550D03*
X1181700Y0590550D03*
X1179800Y0590550D03*
X1177800Y0590550D03*
X1175800Y0590550D03*
X1173900Y0590550D03*
X1171900Y0590550D03*
X1169900Y0590550D03*
X1168000Y0590550D03*
X1166000Y0590550D03*
X1164000Y0590550D03*
X1162000Y0590550D03*
X1160100Y0590550D03*
X1158100Y0590550D03*
X1156100Y0590550D03*
X1154200Y0590550D03*
X1152200Y0590550D03*
X1150200Y0590550D03*
X1148300Y0590550D03*
X1146300Y0590550D03*
X1144300Y0590550D03*
X1142400Y0590550D03*
X1140400Y0590550D03*
X1138400Y0590550D03*
X1136500Y0590550D03*
X1134500Y0590550D03*
X1132500Y0590550D03*
X1130600Y0590550D03*
X1130600Y0674950D03*
X1132500Y0674950D03*
X1134500Y0674950D03*
X1136500Y0674950D03*
X1138400Y0674950D03*
X1140400Y0674950D03*
X1142400Y0674950D03*
X1144300Y0674950D03*
X1146300Y0674950D03*
X1148300Y0674950D03*
X1150200Y0674950D03*
X1152200Y0674950D03*
X1154200Y0674950D03*
X1156100Y0674950D03*
X1158100Y0674950D03*
X1160100Y0674950D03*
X1162000Y0674950D03*
X1164000Y0674950D03*
X1166000Y0674950D03*
X1168000Y0674950D03*
X1169900Y0674950D03*
X1171900Y0674950D03*
X1173900Y0674950D03*
X1175800Y0674950D03*
X1177800Y0674950D03*
X1179800Y0674950D03*
X1181700Y0674950D03*
X1183700Y0674950D03*
X1185700Y0674950D03*
X1187600Y0674950D03*
X1189600Y0674950D03*
X1191600Y0674950D03*
X1193500Y0674950D03*
X1195500Y0674950D03*
X1197500Y0674950D03*
X1199400Y0674950D03*
D19*
X1102500Y0641750D03*
X1102500Y0603750D03*
X1313750Y0564250D03*
X1313750Y0526250D03*
D16*
X1305790Y0599680D03*
X1305790Y0602830D03*
X1305790Y0605980D03*
X1305790Y0609130D03*
X1305790Y0612280D03*
X1305790Y0615430D03*
X1305790Y0618580D03*
X1305790Y0621730D03*
X1305790Y0624880D03*
X1305790Y0628030D03*
X1305790Y0631180D03*
X1305790Y0634330D03*
X1305790Y0637480D03*
X1305790Y0640630D03*
X1305790Y0643780D03*
X1305790Y0646930D03*
X1305790Y0650080D03*
X1305790Y0653230D03*
X1305790Y0656380D03*
X1305790Y0659520D03*
X1305790Y0662670D03*
X1305790Y0665820D03*
X1261700Y0665820D03*
X1261700Y0662670D03*
X1261700Y0659520D03*
X1261700Y0656380D03*
X1261700Y0653230D03*
X1261700Y0650080D03*
X1261700Y0646930D03*
X1261700Y0643780D03*
X1261700Y0640630D03*
X1261700Y0637480D03*
X1261700Y0634330D03*
X1261700Y0631180D03*
X1261700Y0628030D03*
X1261700Y0624880D03*
X1261700Y0621730D03*
X1261700Y0618580D03*
X1261700Y0615430D03*
X1261700Y0612280D03*
X1261700Y0609130D03*
X1261700Y0605980D03*
X1261700Y0602830D03*
X1261700Y0599680D03*
D59*
X1147400Y0513100D03*
X1147400Y0504100D03*
X1147400Y0495100D03*
D75*
X1122600Y0504000D03*
D96*
X1164880Y0496500D03*
X1175110Y0496500D03*
X1175110Y0514000D03*
X1164880Y0514000D03*
D36*
X1242720Y0515130D03*
X1242720Y0512580D03*
X1242720Y0510020D03*
X1242720Y0507460D03*
X1242720Y0504900D03*
X1242720Y0517690D03*
X1242720Y0520250D03*
X1242720Y0522810D03*
X1242720Y0525370D03*
X1242720Y0527930D03*
X1242720Y0530490D03*
X1242720Y0533050D03*
X1242720Y0535610D03*
X1242720Y0538170D03*
X1272270Y0538170D03*
X1272270Y0535610D03*
X1272270Y0533050D03*
X1272270Y0530490D03*
X1272270Y0527930D03*
X1272270Y0525370D03*
X1272270Y0522810D03*
X1272270Y0520250D03*
X1272270Y0517690D03*
X1272270Y0515130D03*
X1272270Y0512580D03*
X1272270Y0510020D03*
X1272270Y0507460D03*
X1272270Y0504900D03*
D27*
X1284480Y0511500D03*
X1295510Y0511500D03*
D108*
X1291250Y0534740D03*
X1291250Y0545760D03*
X1213750Y0515760D03*
X1213750Y0504740D03*
D105*
X1100000Y0665250D03*
X1100000Y0705250D03*
D23*
X1100000Y0515250D03*
X1210000Y0495250D03*
D100*
X1100000Y0495250D03*
X1100000Y0505250D03*
X1220000Y0495250D03*
X1230000Y0495250D03*
D58*
X1324630Y0672570D03*
X1324630Y0705440D03*
D56*
X1312330Y0697760D02*
X1307590Y0697760D01*
X1307590Y0680240D02*
X1312330Y0680240D01*
D34*
X1313610Y0686440D03*
X1313610Y0689000D03*
X1313610Y0691560D03*
D76*
X1316200Y0693430D02*
X1316200Y0694810D01*
X1316200Y0693430D02*
X1313620Y0693430D01*
X1313620Y0694810D01*
X1316200Y0694810D01*
X1316200Y0694010D02*
X1313620Y0694010D01*
X1313620Y0694590D02*
X1316200Y0694590D01*
X1316200Y0684570D02*
X1316200Y0683190D01*
X1313620Y0683190D01*
X1313620Y0684570D01*
X1316200Y0684570D01*
X1316200Y0683770D02*
X1313620Y0683770D01*
X1313620Y0684350D02*
X1316200Y0684350D01*
D49*
X1324630Y0684480D03*
X1324630Y0693530D03*
D68*
X1312470Y0693730D03*
X1312470Y0684280D03*
D73*
X1115000Y0656000D03*
X1115000Y0652000D03*
D63*
X1253750Y0526500D03*
X1258750Y0526500D03*
X1258750Y0516500D03*
X1253750Y0516500D03*
X1095000Y0730000D02*
G75*
%LPD*%
D82*
X1100000Y0785250D03*
X1100000Y0795250D03*
X1100000Y0805250D03*
X1100000Y0815250D03*
X1100000Y0825250D03*
X1100000Y0915250D03*
X1100000Y0925250D03*
X1100000Y0935250D03*
X1110000Y0945250D03*
X1120000Y0945250D03*
X1130000Y0945250D03*
X1140000Y0945250D03*
X1150000Y0945250D03*
X1160000Y0945250D03*
X1170000Y0945250D03*
X1180000Y0945250D03*
X1190000Y0945250D03*
X1200000Y0945250D03*
X1210000Y0945250D03*
X1220000Y0945250D03*
X1230000Y0945250D03*
X1240000Y0945250D03*
X1250000Y0945250D03*
X1260000Y0945250D03*
X1270000Y0945250D03*
X1280000Y0945250D03*
X1290000Y0945250D03*
X1290000Y0735250D03*
X1300000Y0735250D03*
X1310000Y0735250D03*
X1320000Y0735250D03*
X1280000Y0735250D03*
X1270000Y0735250D03*
X1260000Y0735250D03*
X1250000Y0735250D03*
X1240000Y0735250D03*
D57*
X1281250Y0776910D03*
X1281250Y0783600D03*
X1326250Y0774850D03*
X1326250Y0768160D03*
X1326250Y0795660D03*
X1326250Y0802350D03*
X1251250Y0866910D03*
X1251250Y0873600D03*
X1313750Y0876100D03*
X1313750Y0869410D03*
X1175000Y0821100D03*
X1175000Y0814410D03*
X1156250Y0811910D03*
X1156250Y0818600D03*
X1145000Y0818600D03*
X1137500Y0818600D03*
X1137500Y0811910D03*
X1145000Y0811910D03*
X1127500Y0813600D03*
X1127500Y0806910D03*
X1120000Y0806910D03*
X1120000Y0813600D03*
X1112500Y0813600D03*
X1112500Y0806910D03*
X1110000Y0829410D03*
X1110000Y0836100D03*
X1115000Y0846910D03*
X1115000Y0853600D03*
X1115000Y0874410D03*
X1115000Y0881100D03*
D92*
X1107090Y0896500D03*
X1100400Y0896500D03*
X1124150Y0922750D03*
X1130840Y0922750D03*
X1146650Y0924000D03*
X1153340Y0924000D03*
X1153340Y0931500D03*
X1146650Y0931500D03*
X1171650Y0924000D03*
X1178340Y0924000D03*
X1209150Y0915250D03*
X1215840Y0915250D03*
X1216650Y0906500D03*
X1223340Y0906500D03*
X1223340Y0885250D03*
X1216650Y0885250D03*
X1219150Y0860250D03*
X1225840Y0860250D03*
X1213340Y0829000D03*
X1213340Y0822750D03*
X1206650Y0822750D03*
X1206650Y0829000D03*
X1193340Y0782750D03*
X1186650Y0782750D03*
X1186650Y0770250D03*
X1193340Y0770250D03*
X1226650Y0777750D03*
X1233340Y0777750D03*
X1230840Y0754000D03*
X1224150Y0754000D03*
X1224150Y0744000D03*
X1230840Y0744000D03*
X1285400Y0744000D03*
X1292090Y0744000D03*
X1155840Y0770250D03*
X1149150Y0770250D03*
X1149150Y0782750D03*
X1155840Y0782750D03*
X1281650Y0930250D03*
X1288340Y0930250D03*
X1288340Y0936500D03*
X1281650Y0936500D03*
X1230840Y0936500D03*
X1224150Y0936500D03*
D61*
X1175900Y0782750D03*
X1164090Y0782750D03*
X1164090Y0770250D03*
X1175900Y0770250D03*
D22*
X1140000Y0765250D03*
X1130000Y0765250D03*
X1130000Y0775250D03*
X1140000Y0775250D03*
X1120000Y0775250D03*
X1120000Y0765250D03*
X1110000Y0765250D03*
X1110000Y0775250D03*
X1100000Y0775250D03*
X1100000Y0765250D03*
D20*
X1122800Y0838350D03*
X1122800Y0840250D03*
X1122800Y0842250D03*
X1122800Y0844250D03*
X1122800Y0846150D03*
X1122800Y0848150D03*
X1122800Y0850150D03*
X1122800Y0852050D03*
X1122800Y0854050D03*
X1122800Y0856050D03*
X1122800Y0857950D03*
X1122800Y0859950D03*
X1122800Y0861950D03*
X1122800Y0863850D03*
X1122800Y0865850D03*
X1122800Y0867850D03*
X1122800Y0869750D03*
X1122800Y0871750D03*
X1122800Y0873750D03*
X1122800Y0875750D03*
X1122800Y0877650D03*
X1122800Y0879650D03*
X1122800Y0881650D03*
X1122800Y0883550D03*
X1122800Y0885550D03*
X1122800Y0887550D03*
X1122800Y0889450D03*
X1122800Y0891450D03*
X1122800Y0893450D03*
X1122800Y0895350D03*
X1122800Y0897350D03*
X1122800Y0899350D03*
X1122800Y0901250D03*
X1122800Y0903250D03*
X1122800Y0905250D03*
X1122800Y0907150D03*
X1207200Y0907150D03*
X1207200Y0905250D03*
X1207200Y0903250D03*
X1207200Y0901250D03*
X1207200Y0899350D03*
X1207200Y0897350D03*
X1207200Y0895350D03*
X1207200Y0893450D03*
X1207200Y0891450D03*
X1207200Y0889450D03*
X1207200Y0887550D03*
X1207200Y0885550D03*
X1207200Y0883550D03*
X1207200Y0881650D03*
X1207200Y0879650D03*
X1207200Y0877650D03*
X1207200Y0875750D03*
X1207200Y0873750D03*
X1207200Y0871750D03*
X1207200Y0869750D03*
X1207200Y0867850D03*
X1207200Y0865850D03*
X1207200Y0863850D03*
X1207200Y0861950D03*
X1207200Y0859950D03*
X1207200Y0857950D03*
X1207200Y0856050D03*
X1207200Y0854050D03*
X1207200Y0852050D03*
X1207200Y0850150D03*
X1207200Y0848150D03*
X1207200Y0846150D03*
X1207200Y0844250D03*
X1207200Y0842250D03*
X1207200Y0840250D03*
X1207200Y0838350D03*
D54*
X1199400Y0830550D03*
X1197500Y0830550D03*
X1195500Y0830550D03*
X1193500Y0830550D03*
X1191600Y0830550D03*
X1189600Y0830550D03*
X1187600Y0830550D03*
X1185700Y0830550D03*
X1183700Y0830550D03*
X1181700Y0830550D03*
X1179800Y0830550D03*
X1177800Y0830550D03*
X1175800Y0830550D03*
X1173900Y0830550D03*
X1171900Y0830550D03*
X1169900Y0830550D03*
X1168000Y0830550D03*
X1166000Y0830550D03*
X1164000Y0830550D03*
X1162000Y0830550D03*
X1160100Y0830550D03*
X1158100Y0830550D03*
X1156100Y0830550D03*
X1154200Y0830550D03*
X1152200Y0830550D03*
X1150200Y0830550D03*
X1148300Y0830550D03*
X1146300Y0830550D03*
X1144300Y0830550D03*
X1142400Y0830550D03*
X1140400Y0830550D03*
X1138400Y0830550D03*
X1136500Y0830550D03*
X1134500Y0830550D03*
X1132500Y0830550D03*
X1130600Y0830550D03*
X1130600Y0914950D03*
X1132500Y0914950D03*
X1134500Y0914950D03*
X1136500Y0914950D03*
X1138400Y0914950D03*
X1140400Y0914950D03*
X1142400Y0914950D03*
X1144300Y0914950D03*
X1146300Y0914950D03*
X1148300Y0914950D03*
X1150200Y0914950D03*
X1152200Y0914950D03*
X1154200Y0914950D03*
X1156100Y0914950D03*
X1158100Y0914950D03*
X1160100Y0914950D03*
X1162000Y0914950D03*
X1164000Y0914950D03*
X1166000Y0914950D03*
X1168000Y0914950D03*
X1169900Y0914950D03*
X1171900Y0914950D03*
X1173900Y0914950D03*
X1175800Y0914950D03*
X1177800Y0914950D03*
X1179800Y0914950D03*
X1181700Y0914950D03*
X1183700Y0914950D03*
X1185700Y0914950D03*
X1187600Y0914950D03*
X1189600Y0914950D03*
X1191600Y0914950D03*
X1193500Y0914950D03*
X1195500Y0914950D03*
X1197500Y0914950D03*
X1199400Y0914950D03*
D19*
X1102500Y0881750D03*
X1102500Y0843750D03*
X1313750Y0804250D03*
X1313750Y0766250D03*
D16*
X1305790Y0839680D03*
X1305790Y0842830D03*
X1305790Y0845980D03*
X1305790Y0849130D03*
X1305790Y0852280D03*
X1305790Y0855430D03*
X1305790Y0858580D03*
X1305790Y0861730D03*
X1305790Y0864880D03*
X1305790Y0868030D03*
X1305790Y0871180D03*
X1305790Y0874330D03*
X1305790Y0877480D03*
X1305790Y0880630D03*
X1305790Y0883780D03*
X1305790Y0886930D03*
X1305790Y0890080D03*
X1305790Y0893230D03*
X1305790Y0896380D03*
X1305790Y0899520D03*
X1305790Y0902670D03*
X1305790Y0905820D03*
X1261700Y0905820D03*
X1261700Y0902670D03*
X1261700Y0899520D03*
X1261700Y0896380D03*
X1261700Y0893230D03*
X1261700Y0890080D03*
X1261700Y0886930D03*
X1261700Y0883780D03*
X1261700Y0880630D03*
X1261700Y0877480D03*
X1261700Y0874330D03*
X1261700Y0871180D03*
X1261700Y0868030D03*
X1261700Y0864880D03*
X1261700Y0861730D03*
X1261700Y0858580D03*
X1261700Y0855430D03*
X1261700Y0852280D03*
X1261700Y0849130D03*
X1261700Y0845980D03*
X1261700Y0842830D03*
X1261700Y0839680D03*
D59*
X1147400Y0753100D03*
X1147400Y0744100D03*
X1147400Y0735100D03*
D75*
X1122600Y0744000D03*
D96*
X1164880Y0736500D03*
X1175110Y0736500D03*
X1175110Y0754000D03*
X1164880Y0754000D03*
D36*
X1242720Y0755130D03*
X1242720Y0752580D03*
X1242720Y0750020D03*
X1242720Y0747460D03*
X1242720Y0744900D03*
X1242720Y0757690D03*
X1242720Y0760250D03*
X1242720Y0762810D03*
X1242720Y0765370D03*
X1242720Y0767930D03*
X1242720Y0770490D03*
X1242720Y0773050D03*
X1242720Y0775610D03*
X1242720Y0778170D03*
X1272270Y0778170D03*
X1272270Y0775610D03*
X1272270Y0773050D03*
X1272270Y0770490D03*
X1272270Y0767930D03*
X1272270Y0765370D03*
X1272270Y0762810D03*
X1272270Y0760250D03*
X1272270Y0757690D03*
X1272270Y0755130D03*
X1272270Y0752580D03*
X1272270Y0750020D03*
X1272270Y0747460D03*
X1272270Y0744900D03*
D27*
X1284480Y0751500D03*
X1295510Y0751500D03*
D108*
X1291250Y0774740D03*
X1291250Y0785760D03*
X1213750Y0755760D03*
X1213750Y0744740D03*
D105*
X1100000Y0905250D03*
X1100000Y0945250D03*
D23*
X1100000Y0755250D03*
X1210000Y0735250D03*
D100*
X1100000Y0735250D03*
X1100000Y0745250D03*
X1220000Y0735250D03*
X1230000Y0735250D03*
D58*
X1324630Y0912570D03*
X1324630Y0945440D03*
D56*
X1312330Y0937760D02*
X1307590Y0937760D01*
X1307590Y0920240D02*
X1312330Y0920240D01*
D34*
X1313610Y0926440D03*
X1313610Y0929000D03*
X1313610Y0931560D03*
D76*
X1316200Y0933430D02*
X1316200Y0934810D01*
X1316200Y0933430D02*
X1313620Y0933430D01*
X1313620Y0934810D01*
X1316200Y0934810D01*
X1316200Y0934010D02*
X1313620Y0934010D01*
X1313620Y0934590D02*
X1316200Y0934590D01*
X1316200Y0924570D02*
X1316200Y0923190D01*
X1313620Y0923190D01*
X1313620Y0924570D01*
X1316200Y0924570D01*
X1316200Y0923770D02*
X1313620Y0923770D01*
X1313620Y0924350D02*
X1316200Y0924350D01*
D49*
X1324630Y0924480D03*
X1324630Y0933530D03*
D68*
X1312470Y0933730D03*
X1312470Y0924280D03*
D73*
X1115000Y0896000D03*
X1115000Y0892000D03*
D63*
X1253750Y0766500D03*
X1258750Y0766500D03*
X1258750Y0756500D03*
X1253750Y0756500D03*
X1340000Y0010000D02*
G75*
%LPD*%
D114*
X1353990Y0036890D03*
X1353990Y0055000D03*
X1374660Y0055000D03*
X1395330Y0055000D03*
X1395330Y0036890D03*
X1374660Y0036890D03*
X1416000Y0036890D03*
X1416000Y0055000D03*
X1416000Y0073110D03*
X1395330Y0073110D03*
X1374660Y0073110D03*
X1353990Y0073110D03*
D98*
X1345000Y0015000D03*
X1355000Y0015000D03*
X1365000Y0015000D03*
X1375000Y0015000D03*
X1385000Y0015000D03*
X1395000Y0015000D03*
X1405000Y0015000D03*
X1415000Y0015000D03*
X1425000Y0015000D03*
X1340000Y0090000D02*
G75*
%LPD*%
D114*
X1353990Y0116890D03*
X1353990Y0135000D03*
X1374660Y0135000D03*
X1395330Y0135000D03*
X1395330Y0116890D03*
X1374660Y0116890D03*
X1416000Y0116890D03*
X1416000Y0135000D03*
X1416000Y0153110D03*
X1395330Y0153110D03*
X1374660Y0153110D03*
X1353990Y0153110D03*
D98*
X1345000Y0095000D03*
X1355000Y0095000D03*
X1365000Y0095000D03*
X1375000Y0095000D03*
X1385000Y0095000D03*
X1395000Y0095000D03*
X1405000Y0095000D03*
X1415000Y0095000D03*
X1425000Y0095000D03*
X1340000Y0170000D02*
G75*
%LPD*%
D114*
X1353990Y0196890D03*
X1353990Y0215000D03*
X1374660Y0215000D03*
X1395330Y0215000D03*
X1395330Y0196890D03*
X1374660Y0196890D03*
X1416000Y0196890D03*
X1416000Y0215000D03*
X1416000Y0233110D03*
X1395330Y0233110D03*
X1374660Y0233110D03*
X1353990Y0233110D03*
D98*
X1345000Y0175000D03*
X1355000Y0175000D03*
X1365000Y0175000D03*
X1375000Y0175000D03*
X1385000Y0175000D03*
X1395000Y0175000D03*
X1405000Y0175000D03*
X1415000Y0175000D03*
X1425000Y0175000D03*
X1340000Y0250000D02*
G75*
%LPD*%
D114*
X1353990Y0276890D03*
X1353990Y0295000D03*
X1374660Y0295000D03*
X1395330Y0295000D03*
X1395330Y0276890D03*
X1374660Y0276890D03*
X1416000Y0276890D03*
X1416000Y0295000D03*
X1416000Y0313110D03*
X1395330Y0313110D03*
X1374660Y0313110D03*
X1353990Y0313110D03*
D98*
X1345000Y0255000D03*
X1355000Y0255000D03*
X1365000Y0255000D03*
X1375000Y0255000D03*
X1385000Y0255000D03*
X1395000Y0255000D03*
X1405000Y0255000D03*
X1415000Y0255000D03*
X1425000Y0255000D03*
X1340000Y0330000D02*
G75*
%LPD*%
D114*
X1353990Y0356890D03*
X1353990Y0375000D03*
X1374660Y0375000D03*
X1395330Y0375000D03*
X1395330Y0356890D03*
X1374660Y0356890D03*
X1416000Y0356890D03*
X1416000Y0375000D03*
X1416000Y0393110D03*
X1395330Y0393110D03*
X1374660Y0393110D03*
X1353990Y0393110D03*
D98*
X1345000Y0335000D03*
X1355000Y0335000D03*
X1365000Y0335000D03*
X1375000Y0335000D03*
X1385000Y0335000D03*
X1395000Y0335000D03*
X1405000Y0335000D03*
X1415000Y0335000D03*
X1425000Y0335000D03*
X1340000Y0510000D02*
G75*
%LPD*%
D114*
X1353990Y0536890D03*
X1353990Y0555000D03*
X1374660Y0555000D03*
X1395330Y0555000D03*
X1395330Y0536890D03*
X1374660Y0536890D03*
X1416000Y0536890D03*
X1416000Y0555000D03*
X1416000Y0573110D03*
X1395330Y0573110D03*
X1374660Y0573110D03*
X1353990Y0573110D03*
D98*
X1345000Y0515000D03*
X1355000Y0515000D03*
X1365000Y0515000D03*
X1375000Y0515000D03*
X1385000Y0515000D03*
X1395000Y0515000D03*
X1405000Y0515000D03*
X1415000Y0515000D03*
X1425000Y0515000D03*
X1340000Y0590000D02*
G75*
%LPD*%
D114*
X1353990Y0616890D03*
X1353990Y0635000D03*
X1374660Y0635000D03*
X1395330Y0635000D03*
X1395330Y0616890D03*
X1374660Y0616890D03*
X1416000Y0616890D03*
X1416000Y0635000D03*
X1416000Y0653110D03*
X1395330Y0653110D03*
X1374660Y0653110D03*
X1353990Y0653110D03*
D98*
X1345000Y0595000D03*
X1355000Y0595000D03*
X1365000Y0595000D03*
X1375000Y0595000D03*
X1385000Y0595000D03*
X1395000Y0595000D03*
X1405000Y0595000D03*
X1415000Y0595000D03*
X1425000Y0595000D03*
X1340000Y0670000D02*
G75*
%LPD*%
D114*
X1353990Y0696890D03*
X1353990Y0715000D03*
X1374660Y0715000D03*
X1395330Y0715000D03*
X1395330Y0696890D03*
X1374660Y0696890D03*
X1416000Y0696890D03*
X1416000Y0715000D03*
X1416000Y0733110D03*
X1395330Y0733110D03*
X1374660Y0733110D03*
X1353990Y0733110D03*
D98*
X1345000Y0675000D03*
X1355000Y0675000D03*
X1365000Y0675000D03*
X1375000Y0675000D03*
X1385000Y0675000D03*
X1395000Y0675000D03*
X1405000Y0675000D03*
X1415000Y0675000D03*
X1425000Y0675000D03*
X1340000Y0750000D02*
G75*
%LPD*%
D114*
X1353990Y0776890D03*
X1353990Y0795000D03*
X1374660Y0795000D03*
X1395330Y0795000D03*
X1395330Y0776890D03*
X1374660Y0776890D03*
X1416000Y0776890D03*
X1416000Y0795000D03*
X1416000Y0813110D03*
X1395330Y0813110D03*
X1374660Y0813110D03*
X1353990Y0813110D03*
D98*
X1345000Y0755000D03*
X1355000Y0755000D03*
X1365000Y0755000D03*
X1375000Y0755000D03*
X1385000Y0755000D03*
X1395000Y0755000D03*
X1405000Y0755000D03*
X1415000Y0755000D03*
X1425000Y0755000D03*
X1340000Y0830000D02*
G75*
%LPD*%
D114*
X1353990Y0856890D03*
X1353990Y0875000D03*
X1374660Y0875000D03*
X1395330Y0875000D03*
X1395330Y0856890D03*
X1374660Y0856890D03*
X1416000Y0856890D03*
X1416000Y0875000D03*
X1416000Y0893110D03*
X1395330Y0893110D03*
X1374660Y0893110D03*
X1353990Y0893110D03*
D98*
X1345000Y0835000D03*
X1355000Y0835000D03*
X1365000Y0835000D03*
X1375000Y0835000D03*
X1385000Y0835000D03*
X1395000Y0835000D03*
X1405000Y0835000D03*
X1415000Y0835000D03*
X1425000Y0835000D03*
X1440000Y0010000D02*
G75*
%LPD*%
D114*
X1453990Y0036890D03*
X1453990Y0055000D03*
X1474660Y0055000D03*
X1495330Y0055000D03*
X1495330Y0036890D03*
X1474660Y0036890D03*
X1516000Y0036890D03*
X1516000Y0055000D03*
X1516000Y0073110D03*
X1495330Y0073110D03*
X1474660Y0073110D03*
X1453990Y0073110D03*
D98*
X1445000Y0015000D03*
X1455000Y0015000D03*
X1465000Y0015000D03*
X1475000Y0015000D03*
X1485000Y0015000D03*
X1495000Y0015000D03*
X1505000Y0015000D03*
X1515000Y0015000D03*
X1525000Y0015000D03*
X1440000Y0090000D02*
G75*
%LPD*%
D114*
X1453990Y0116890D03*
X1453990Y0135000D03*
X1474660Y0135000D03*
X1495330Y0135000D03*
X1495330Y0116890D03*
X1474660Y0116890D03*
X1516000Y0116890D03*
X1516000Y0135000D03*
X1516000Y0153110D03*
X1495330Y0153110D03*
X1474660Y0153110D03*
X1453990Y0153110D03*
D98*
X1445000Y0095000D03*
X1455000Y0095000D03*
X1465000Y0095000D03*
X1475000Y0095000D03*
X1485000Y0095000D03*
X1495000Y0095000D03*
X1505000Y0095000D03*
X1515000Y0095000D03*
X1525000Y0095000D03*
X1440000Y0170000D02*
G75*
%LPD*%
D114*
X1453990Y0196890D03*
X1453990Y0215000D03*
X1474660Y0215000D03*
X1495330Y0215000D03*
X1495330Y0196890D03*
X1474660Y0196890D03*
X1516000Y0196890D03*
X1516000Y0215000D03*
X1516000Y0233110D03*
X1495330Y0233110D03*
X1474660Y0233110D03*
X1453990Y0233110D03*
D98*
X1445000Y0175000D03*
X1455000Y0175000D03*
X1465000Y0175000D03*
X1475000Y0175000D03*
X1485000Y0175000D03*
X1495000Y0175000D03*
X1505000Y0175000D03*
X1515000Y0175000D03*
X1525000Y0175000D03*
X1440000Y0250000D02*
G75*
%LPD*%
D114*
X1453990Y0276890D03*
X1453990Y0295000D03*
X1474660Y0295000D03*
X1495330Y0295000D03*
X1495330Y0276890D03*
X1474660Y0276890D03*
X1516000Y0276890D03*
X1516000Y0295000D03*
X1516000Y0313110D03*
X1495330Y0313110D03*
X1474660Y0313110D03*
X1453990Y0313110D03*
D98*
X1445000Y0255000D03*
X1455000Y0255000D03*
X1465000Y0255000D03*
X1475000Y0255000D03*
X1485000Y0255000D03*
X1495000Y0255000D03*
X1505000Y0255000D03*
X1515000Y0255000D03*
X1525000Y0255000D03*
X1440000Y0330000D02*
G75*
%LPD*%
D114*
X1453990Y0356890D03*
X1453990Y0375000D03*
X1474660Y0375000D03*
X1495330Y0375000D03*
X1495330Y0356890D03*
X1474660Y0356890D03*
X1516000Y0356890D03*
X1516000Y0375000D03*
X1516000Y0393110D03*
X1495330Y0393110D03*
X1474660Y0393110D03*
X1453990Y0393110D03*
D98*
X1445000Y0335000D03*
X1455000Y0335000D03*
X1465000Y0335000D03*
X1475000Y0335000D03*
X1485000Y0335000D03*
X1495000Y0335000D03*
X1505000Y0335000D03*
X1515000Y0335000D03*
X1525000Y0335000D03*
X1440000Y0510000D02*
G75*
%LPD*%
D114*
X1453990Y0536890D03*
X1453990Y0555000D03*
X1474660Y0555000D03*
X1495330Y0555000D03*
X1495330Y0536890D03*
X1474660Y0536890D03*
X1516000Y0536890D03*
X1516000Y0555000D03*
X1516000Y0573110D03*
X1495330Y0573110D03*
X1474660Y0573110D03*
X1453990Y0573110D03*
D98*
X1445000Y0515000D03*
X1455000Y0515000D03*
X1465000Y0515000D03*
X1475000Y0515000D03*
X1485000Y0515000D03*
X1495000Y0515000D03*
X1505000Y0515000D03*
X1515000Y0515000D03*
X1525000Y0515000D03*
X1440000Y0590000D02*
G75*
%LPD*%
D114*
X1453990Y0616890D03*
X1453990Y0635000D03*
X1474660Y0635000D03*
X1495330Y0635000D03*
X1495330Y0616890D03*
X1474660Y0616890D03*
X1516000Y0616890D03*
X1516000Y0635000D03*
X1516000Y0653110D03*
X1495330Y0653110D03*
X1474660Y0653110D03*
X1453990Y0653110D03*
D98*
X1445000Y0595000D03*
X1455000Y0595000D03*
X1465000Y0595000D03*
X1475000Y0595000D03*
X1485000Y0595000D03*
X1495000Y0595000D03*
X1505000Y0595000D03*
X1515000Y0595000D03*
X1525000Y0595000D03*
X1440000Y0670000D02*
G75*
%LPD*%
D114*
X1453990Y0696890D03*
X1453990Y0715000D03*
X1474660Y0715000D03*
X1495330Y0715000D03*
X1495330Y0696890D03*
X1474660Y0696890D03*
X1516000Y0696890D03*
X1516000Y0715000D03*
X1516000Y0733110D03*
X1495330Y0733110D03*
X1474660Y0733110D03*
X1453990Y0733110D03*
D98*
X1445000Y0675000D03*
X1455000Y0675000D03*
X1465000Y0675000D03*
X1475000Y0675000D03*
X1485000Y0675000D03*
X1495000Y0675000D03*
X1505000Y0675000D03*
X1515000Y0675000D03*
X1525000Y0675000D03*
X1440000Y0750000D02*
G75*
%LPD*%
D114*
X1453990Y0776890D03*
X1453990Y0795000D03*
X1474660Y0795000D03*
X1495330Y0795000D03*
X1495330Y0776890D03*
X1474660Y0776890D03*
X1516000Y0776890D03*
X1516000Y0795000D03*
X1516000Y0813110D03*
X1495330Y0813110D03*
X1474660Y0813110D03*
X1453990Y0813110D03*
D98*
X1445000Y0755000D03*
X1455000Y0755000D03*
X1465000Y0755000D03*
X1475000Y0755000D03*
X1485000Y0755000D03*
X1495000Y0755000D03*
X1505000Y0755000D03*
X1515000Y0755000D03*
X1525000Y0755000D03*
X1440000Y0830000D02*
G75*
%LPD*%
D114*
X1453990Y0856890D03*
X1453990Y0875000D03*
X1474660Y0875000D03*
X1495330Y0875000D03*
X1495330Y0856890D03*
X1474660Y0856890D03*
X1516000Y0856890D03*
X1516000Y0875000D03*
X1516000Y0893110D03*
X1495330Y0893110D03*
X1474660Y0893110D03*
X1453990Y0893110D03*
D98*
X1445000Y0835000D03*
X1455000Y0835000D03*
X1465000Y0835000D03*
X1475000Y0835000D03*
X1485000Y0835000D03*
X1495000Y0835000D03*
X1505000Y0835000D03*
X1515000Y0835000D03*
X1525000Y0835000D03*
M02*
