%
T01C0.021650
X17811Y15875
X19186Y18250
X20686Y19625
X21186Y18625
X22686Y19125
X26436Y16125
X27186Y17625
X25311Y13500
X23186Y12000
X25311Y10375
X18436Y20125
X20686Y23625
X21186Y27125
X25811Y27250
X30061Y24250
X29061Y23125
X31186Y26625
X30561Y27250
X13061Y26375
X12561Y27000
X11686Y28000
X11010Y30343
X12762Y30343
X8436Y25875
X8436Y24375
X12186Y16125
X17811Y48375
X19186Y50750
X20686Y52125
X21186Y51125
X22686Y51625
X26436Y48625
X27186Y50125
X25311Y46000
X23186Y44500
X25311Y42875
X18436Y52625
X20686Y56125
X21186Y59625
X25811Y59750
X30061Y56750
X29061Y55625
X31186Y59125
X30561Y59750
X13061Y58875
X12561Y59500
X11686Y60500
X11010Y62843
X12762Y62843
X8436Y58375
X8436Y56875
X12186Y48625
X17811Y80875
X19186Y83250
X20686Y84625
X21186Y83625
X22686Y84125
X26436Y81125
X27186Y82625
X25311Y78500
X23186Y77000
X25311Y75375
X18436Y85125
X20686Y88625
X21186Y92125
X25811Y92250
X30061Y89250
X29061Y88125
X31186Y91625
X30561Y92250
X13061Y91375
X12561Y92000
X11686Y93000
X11010Y95343
X12762Y95343
X8436Y90875
X8436Y89375
X12186Y81125
X58311Y15875
X59686Y18250
X61186Y19625
X61686Y18625
X63186Y19125
X66936Y16125
X67686Y17625
X65811Y13500
X63686Y12000
X65811Y10375
X58936Y20125
X61186Y23625
X61686Y27125
X66311Y27250
X70561Y24250
X69561Y23125
X71686Y26625
X71061Y27250
X53561Y26375
X53061Y27000
X52186Y28000
X51510Y30343
X53262Y30343
X48936Y25875
X48936Y24375
X52686Y16125
X58311Y48375
X59686Y50750
X61186Y52125
X61686Y51125
X63186Y51625
X66936Y48625
X67686Y50125
X65811Y46000
X63686Y44500
X65811Y42875
X58936Y52625
X61186Y56125
X61686Y59625
X66311Y59750
X70561Y56750
X69561Y55625
X71686Y59125
X71061Y59750
X53561Y58875
X53061Y59500
X52186Y60500
X51510Y62843
X53262Y62843
X48936Y58375
X48936Y56875
X52686Y48625
X58311Y80875
X59686Y83250
X61186Y84625
X61686Y83625
X63186Y84125
X66936Y81125
X67686Y82625
X65811Y78500
X63686Y77000
X65811Y75375
X58936Y85125
X61186Y88625
X61686Y92125
X66311Y92250
X70561Y89250
X69561Y88125
X71686Y91625
X71061Y92250
X53561Y91375
X53061Y92000
X52186Y93000
X51510Y95343
X53262Y95343
X48936Y90875
X48936Y89375
X52686Y81125
X105351Y21901
X105351Y20149
X88250Y1525
X88250Y2400
X92000Y5150
X92000Y6400
X92750Y6400
X93250Y6650
X94250Y6775
X95000Y5900
X95500Y5400
X95000Y4900
X94500Y5400
X93750Y5150
X96000Y3400
X98750Y2400
X99250Y3150
X99250Y3775
X99750Y3775
X99750Y4775
X99250Y4775
X98875Y5900
X96250Y5775
X99750Y8775
X100670Y8195
X101125Y7900
X101500Y7650
X101875Y7400
X102625Y6275
X102625Y5400
X100750Y2400
X103750Y1650
X97875Y9025
X98250Y9275
X98625Y9525
X99000Y9775
X100670Y11730
X99875Y11775
X99125Y12900
X98750Y13150
X98375Y13400
X98000Y13650
X98000Y14775
X97375Y15275
X97750Y15525
X97250Y16275
X97250Y16775
X96750Y16775
X96000Y17150
X95250Y16775
X95250Y15650
X94000Y14900
X94000Y14400
X94000Y13900
X93750Y12900
X93250Y11775
X92250Y11775
X93500Y10400
X94250Y10900
X95750Y10400
X95875Y10900
X96250Y11775
X96750Y11900
X97125Y12150
X97500Y11900
X99375Y13525
X99500Y14025
X101125Y15150
X101125Y15650
X101375Y16400
X100000Y17150
X99667Y16817
X98000Y16730
X97000Y17525
X97375Y17900
X97750Y18275
X98125Y18900
X98500Y18650
X98875Y18400
X99500Y18525
X97750Y19150
X97375Y19400
X97000Y19650
X96500Y19650
X96375Y19150
X95250Y19150
X94750Y19150
X94375Y19650
X93250Y20150
X92500Y20150
X92500Y21150
X91250Y21150
X90750Y21650
X90250Y21650
X89750Y21275
X89750Y20650
X90250Y20650
X90500Y22400
X88250Y21275
X88250Y20650
X87000Y20900
X86000Y20400
X88250Y18900
X88750Y18900
X89500Y18900
X90000Y18900
X91375Y19025
X92000Y19025
X92750Y18400
X93250Y18900
X93750Y18650
X94000Y17900
X94000Y17400
X94000Y16900
X93500Y17900
X93250Y15650
X91500Y15400
X91750Y14150
X92250Y13900
X90250Y12400
X89750Y12650
X89375Y12900
X89000Y13150
X88625Y13400
X88250Y13650
X87500Y14150
X87750Y14650
X87250Y13650
X87000Y13150
X87500Y12650
X87875Y12900
X87375Y12025
X87250Y10400
X87750Y10400
X86375Y10525
X85375Y10775
X85375Y12400
X85375Y13900
X85500Y15150
X85500Y16650
X85750Y17900
X85375Y18025
X89875Y11775
X91750Y9150
X89500Y8900
X86875Y8900
X86375Y8525
X86000Y8900
X85250Y8900
X88500Y6400
X97000Y15025
X101117Y12408
X101427Y12723
X101737Y13038
X105875Y14650
X105875Y16150
X104125Y17874
X103625Y17900
X103125Y17900
X102250Y19150
X103125Y20150
X103625Y19775
X104125Y19400
X103750Y20650
X102500Y21150
X102000Y21775
X100000Y21525
X99500Y21775
X98625Y22150
X97875Y21775
X105351Y45901
X105351Y44149
X88250Y25525
X88250Y26400
X92000Y29150
X92000Y30400
X92750Y30400
X93250Y30650
X94250Y30775
X95000Y29900
X95500Y29400
X95000Y28900
X94500Y29400
X93750Y29150
X96000Y27400
X98750Y26400
X99250Y27150
X99250Y27775
X99750Y27775
X99750Y28775
X99250Y28775
X98875Y29900
X96250Y29775
X99750Y32775
X100670Y32195
X101125Y31900
X101500Y31650
X101875Y31400
X102625Y30275
X102625Y29400
X100750Y26400
X103750Y25650
X97875Y33025
X98250Y33275
X98625Y33525
X99000Y33775
X100670Y35730
X99875Y35775
X99125Y36900
X98750Y37150
X98375Y37400
X98000Y37650
X98000Y38775
X97375Y39275
X97750Y39525
X97250Y40275
X97250Y40775
X96750Y40775
X96000Y41150
X95250Y40775
X95250Y39650
X94000Y38900
X94000Y38400
X94000Y37900
X93750Y36900
X93250Y35775
X92250Y35775
X93500Y34400
X94250Y34900
X95750Y34400
X95875Y34900
X96250Y35775
X96750Y35900
X97125Y36150
X97500Y35900
X99375Y37525
X99500Y38025
X101125Y39150
X101125Y39650
X101375Y40400
X100000Y41150
X99667Y40817
X98000Y40730
X97000Y41525
X97375Y41900
X97750Y42275
X98125Y42900
X98500Y42650
X98875Y42400
X99500Y42525
X97750Y43150
X97375Y43400
X97000Y43650
X96500Y43650
X96375Y43150
X95250Y43150
X94750Y43150
X94375Y43650
X93250Y44150
X92500Y44150
X92500Y45150
X91250Y45150
X90750Y45650
X90250Y45650
X89750Y45275
X89750Y44650
X90250Y44650
X90500Y46400
X88250Y45275
X88250Y44650
X87000Y44900
X86000Y44400
X88250Y42900
X88750Y42900
X89500Y42900
X90000Y42900
X91375Y43025
X92000Y43025
X92750Y42400
X93250Y42900
X93750Y42650
X94000Y41900
X94000Y41400
X94000Y40900
X93500Y41900
X93250Y39650
X91500Y39400
X91750Y38150
X92250Y37900
X90250Y36400
X89750Y36650
X89375Y36900
X89000Y37150
X88625Y37400
X88250Y37650
X87500Y38150
X87750Y38650
X87250Y37650
X87000Y37150
X87500Y36650
X87875Y36900
X87375Y36025
X87250Y34400
X87750Y34400
X86375Y34525
X85375Y34775
X85375Y36400
X85375Y37900
X85500Y39150
X85500Y40650
X85750Y41900
X85375Y42025
X89875Y35775
X91750Y33150
X89500Y32900
X86875Y32900
X86375Y32525
X86000Y32900
X85250Y32900
X88500Y30400
X97000Y39025
X101117Y36408
X101427Y36723
X101737Y37038
X105875Y38650
X105875Y40150
X104125Y41874
X103625Y41900
X103125Y41900
X102250Y43150
X103125Y44150
X103625Y43775
X104125Y43400
X103750Y44650
X102500Y45150
X102000Y45775
X100000Y45525
X99500Y45775
X98625Y46150
X97875Y45775
X105351Y69901
X105351Y68149
X88250Y49525
X88250Y50400
X92000Y53150
X92000Y54400
X92750Y54400
X93250Y54650
X94250Y54775
X95000Y53900
X95500Y53400
X95000Y52900
X94500Y53400
X93750Y53150
X96000Y51400
X98750Y50400
X99250Y51150
X99250Y51775
X99750Y51775
X99750Y52775
X99250Y52775
X98875Y53900
X96250Y53775
X99750Y56775
X100670Y56195
X101125Y55900
X101500Y55650
X101875Y55400
X102625Y54275
X102625Y53400
X100750Y50400
X103750Y49650
X97875Y57025
X98250Y57275
X98625Y57525
X99000Y57775
X100670Y59730
X99875Y59775
X99125Y60900
X98750Y61150
X98375Y61400
X98000Y61650
X98000Y62775
X97375Y63275
X97750Y63525
X97250Y64275
X97250Y64775
X96750Y64775
X96000Y65150
X95250Y64775
X95250Y63650
X94000Y62900
X94000Y62400
X94000Y61900
X93750Y60900
X93250Y59775
X92250Y59775
X93500Y58400
X94250Y58900
X95750Y58400
X95875Y58900
X96250Y59775
X96750Y59900
X97125Y60150
X97500Y59900
X99375Y61525
X99500Y62025
X101125Y63150
X101125Y63650
X101375Y64400
X100000Y65150
X99667Y64817
X98000Y64730
X97000Y65525
X97375Y65900
X97750Y66275
X98125Y66900
X98500Y66650
X98875Y66400
X99500Y66525
X97750Y67150
X97375Y67400
X97000Y67650
X96500Y67650
X96375Y67150
X95250Y67150
X94750Y67150
X94375Y67650
X93250Y68150
X92500Y68150
X92500Y69150
X91250Y69150
X90750Y69650
X90250Y69650
X89750Y69275
X89750Y68650
X90250Y68650
X90500Y70400
X88250Y69275
X88250Y68650
X87000Y68900
X86000Y68400
X88250Y66900
X88750Y66900
X89500Y66900
X90000Y66900
X91375Y67025
X92000Y67025
X92750Y66400
X93250Y66900
X93750Y66650
X94000Y65900
X94000Y65400
X94000Y64900
X93500Y65900
X93250Y63650
X91500Y63400
X91750Y62150
X92250Y61900
X90250Y60400
X89750Y60650
X89375Y60900
X89000Y61150
X88625Y61400
X88250Y61650
X87500Y62150
X87750Y62650
X87250Y61650
X87000Y61150
X87500Y60650
X87875Y60900
X87375Y60025
X87250Y58400
X87750Y58400
X86375Y58525
X85375Y58775
X85375Y60400
X85375Y61900
X85500Y63150
X85500Y64650
X85750Y65900
X85375Y66025
X89875Y59775
X91750Y57150
X89500Y56900
X86875Y56900
X86375Y56525
X86000Y56900
X85250Y56900
X88500Y54400
X97000Y63025
X101117Y60408
X101427Y60723
X101737Y61038
X105875Y62650
X105875Y64150
X104125Y65874
X103625Y65900
X103125Y65900
X102250Y67150
X103125Y68150
X103625Y67775
X104125Y67400
X103750Y68650
X102500Y69150
X102000Y69775
X100000Y69525
X99500Y69775
X98625Y70150
X97875Y69775
X105351Y93901
X105351Y92149
X88250Y73525
X88250Y74400
X92000Y77150
X92000Y78400
X92750Y78400
X93250Y78650
X94250Y78775
X95000Y77900
X95500Y77400
X95000Y76900
X94500Y77400
X93750Y77150
X96000Y75400
X98750Y74400
X99250Y75150
X99250Y75775
X99750Y75775
X99750Y76775
X99250Y76775
X98875Y77900
X96250Y77775
X99750Y80775
X100670Y80195
X101125Y79900
X101500Y79650
X101875Y79400
X102625Y78275
X102625Y77400
X100750Y74400
X103750Y73650
X97875Y81025
X98250Y81275
X98625Y81525
X99000Y81775
X100670Y83730
X99875Y83775
X99125Y84900
X98750Y85150
X98375Y85400
X98000Y85650
X98000Y86775
X97375Y87275
X97750Y87525
X97250Y88275
X97250Y88775
X96750Y88775
X96000Y89150
X95250Y88775
X95250Y87650
X94000Y86900
X94000Y86400
X94000Y85900
X93750Y84900
X93250Y83775
X92250Y83775
X93500Y82400
X94250Y82900
X95750Y82400
X95875Y82900
X96250Y83775
X96750Y83900
X97125Y84150
X97500Y83900
X99375Y85525
X99500Y86025
X101125Y87150
X101125Y87650
X101375Y88400
X100000Y89150
X99667Y88817
X98000Y88730
X97000Y89525
X97375Y89900
X97750Y90275
X98125Y90900
X98500Y90650
X98875Y90400
X99500Y90525
X97750Y91150
X97375Y91400
X97000Y91650
X96500Y91650
X96375Y91150
X95250Y91150
X94750Y91150
X94375Y91650
X93250Y92150
X92500Y92150
X92500Y93150
X91250Y93150
X90750Y93650
X90250Y93650
X89750Y93275
X89750Y92650
X90250Y92650
X90500Y94400
X88250Y93275
X88250Y92650
X87000Y92900
X86000Y92400
X88250Y90900
X88750Y90900
X89500Y90900
X90000Y90900
X91375Y91025
X92000Y91025
X92750Y90400
X93250Y90900
X93750Y90650
X94000Y89900
X94000Y89400
X94000Y88900
X93500Y89900
X93250Y87650
X91500Y87400
X91750Y86150
X92250Y85900
X90250Y84400
X89750Y84650
X89375Y84900
X89000Y85150
X88625Y85400
X88250Y85650
X87500Y86150
X87750Y86650
X87250Y85650
X87000Y85150
X87500Y84650
X87875Y84900
X87375Y84025
X87250Y82400
X87750Y82400
X86375Y82525
X85375Y82775
X85375Y84400
X85375Y85900
X85500Y87150
X85500Y88650
X85750Y89900
X85375Y90025
X89875Y83775
X91750Y81150
X89500Y80900
X86875Y80900
X86375Y80525
X86000Y80900
X85250Y80900
X88500Y78400
X97000Y87025
X101117Y84408
X101427Y84723
X101737Y85038
X105875Y86650
X105875Y88150
X104125Y89874
X103625Y89900
X103125Y89900
X102250Y91150
X103125Y92150
X103625Y91775
X104125Y91400
X103750Y92650
X102500Y93150
X102000Y93775
X100000Y93525
X99500Y93775
X98625Y94150
X97875Y93775
X130351Y21901
X130351Y20149
X113250Y1525
X113250Y2400
X117000Y5150
X117000Y6400
X117750Y6400
X118250Y6650
X119250Y6775
X120000Y5900
X120500Y5400
X120000Y4900
X119500Y5400
X118750Y5150
X121000Y3400
X123750Y2400
X124250Y3150
X124250Y3775
X124750Y3775
X124750Y4775
X124250Y4775
X123875Y5900
X121250Y5775
X124750Y8775
X125670Y8195
X126125Y7900
X126500Y7650
X126875Y7400
X127625Y6275
X127625Y5400
X125750Y2400
X128750Y1650
X122875Y9025
X123250Y9275
X123625Y9525
X124000Y9775
X125670Y11730
X124875Y11775
X124125Y12900
X123750Y13150
X123375Y13400
X123000Y13650
X123000Y14775
X122375Y15275
X122750Y15525
X122250Y16275
X122250Y16775
X121750Y16775
X121000Y17150
X120250Y16775
X120250Y15650
X119000Y14900
X119000Y14400
X119000Y13900
X118750Y12900
X118250Y11775
X117250Y11775
X118500Y10400
X119250Y10900
X120750Y10400
X120875Y10900
X121250Y11775
X121750Y11900
X122125Y12150
X122500Y11900
X124375Y13525
X124500Y14025
X126125Y15150
X126125Y15650
X126375Y16400
X125000Y17150
X124667Y16817
X123000Y16730
X122000Y17525
X122375Y17900
X122750Y18275
X123125Y18900
X123500Y18650
X123875Y18400
X124500Y18525
X122750Y19150
X122375Y19400
X122000Y19650
X121500Y19650
X121375Y19150
X120250Y19150
X119750Y19150
X119375Y19650
X118250Y20150
X117500Y20150
X117500Y21150
X116250Y21150
X115750Y21650
X115250Y21650
X114750Y21275
X114750Y20650
X115250Y20650
X115500Y22400
X113250Y21275
X113250Y20650
X112000Y20900
X111000Y20400
X113250Y18900
X113750Y18900
X114500Y18900
X115000Y18900
X116375Y19025
X117000Y19025
X117750Y18400
X118250Y18900
X118750Y18650
X119000Y17900
X119000Y17400
X119000Y16900
X118500Y17900
X118250Y15650
X116500Y15400
X116750Y14150
X117250Y13900
X115250Y12400
X114750Y12650
X114375Y12900
X114000Y13150
X113625Y13400
X113250Y13650
X112500Y14150
X112750Y14650
X112250Y13650
X112000Y13150
X112500Y12650
X112875Y12900
X112375Y12025
X112250Y10400
X112750Y10400
X111375Y10525
X110375Y10775
X110375Y12400
X110375Y13900
X110500Y15150
X110500Y16650
X110750Y17900
X110375Y18025
X114875Y11775
X116750Y9150
X114500Y8900
X111875Y8900
X111375Y8525
X111000Y8900
X110250Y8900
X113500Y6400
X122000Y15025
X126117Y12408
X126427Y12723
X126737Y13038
X130875Y14650
X130875Y16150
X129125Y17874
X128625Y17900
X128125Y17900
X127250Y19150
X128125Y20150
X128625Y19775
X129125Y19400
X128750Y20650
X127500Y21150
X127000Y21775
X125000Y21525
X124500Y21775
X123625Y22150
X122875Y21775
X130351Y45901
X130351Y44149
X113250Y25525
X113250Y26400
X117000Y29150
X117000Y30400
X117750Y30400
X118250Y30650
X119250Y30775
X120000Y29900
X120500Y29400
X120000Y28900
X119500Y29400
X118750Y29150
X121000Y27400
X123750Y26400
X124250Y27150
X124250Y27775
X124750Y27775
X124750Y28775
X124250Y28775
X123875Y29900
X121250Y29775
X124750Y32775
X125670Y32195
X126125Y31900
X126500Y31650
X126875Y31400
X127625Y30275
X127625Y29400
X125750Y26400
X128750Y25650
X122875Y33025
X123250Y33275
X123625Y33525
X124000Y33775
X125670Y35730
X124875Y35775
X124125Y36900
X123750Y37150
X123375Y37400
X123000Y37650
X123000Y38775
X122375Y39275
X122750Y39525
X122250Y40275
X122250Y40775
X121750Y40775
X121000Y41150
X120250Y40775
X120250Y39650
X119000Y38900
X119000Y38400
X119000Y37900
X118750Y36900
X118250Y35775
X117250Y35775
X118500Y34400
X119250Y34900
X120750Y34400
X120875Y34900
X121250Y35775
X121750Y35900
X122125Y36150
X122500Y35900
X124375Y37525
X124500Y38025
X126125Y39150
X126125Y39650
X126375Y40400
X125000Y41150
X124667Y40817
X123000Y40730
X122000Y41525
X122375Y41900
X122750Y42275
X123125Y42900
X123500Y42650
X123875Y42400
X124500Y42525
X122750Y43150
X122375Y43400
X122000Y43650
X121500Y43650
X121375Y43150
X120250Y43150
X119750Y43150
X119375Y43650
X118250Y44150
X117500Y44150
X117500Y45150
X116250Y45150
X115750Y45650
X115250Y45650
X114750Y45275
X114750Y44650
X115250Y44650
X115500Y46400
X113250Y45275
X113250Y44650
X112000Y44900
X111000Y44400
X113250Y42900
X113750Y42900
X114500Y42900
X115000Y42900
X116375Y43025
X117000Y43025
X117750Y42400
X118250Y42900
X118750Y42650
X119000Y41900
X119000Y41400
X119000Y40900
X118500Y41900
X118250Y39650
X116500Y39400
X116750Y38150
X117250Y37900
X115250Y36400
X114750Y36650
X114375Y36900
X114000Y37150
X113625Y37400
X113250Y37650
X112500Y38150
X112750Y38650
X112250Y37650
X112000Y37150
X112500Y36650
X112875Y36900
X112375Y36025
X112250Y34400
X112750Y34400
X111375Y34525
X110375Y34775
X110375Y36400
X110375Y37900
X110500Y39150
X110500Y40650
X110750Y41900
X110375Y42025
X114875Y35775
X116750Y33150
X114500Y32900
X111875Y32900
X111375Y32525
X111000Y32900
X110250Y32900
X113500Y30400
X122000Y39025
X126117Y36408
X126427Y36723
X126737Y37038
X130875Y38650
X130875Y40150
X129125Y41874
X128625Y41900
X128125Y41900
X127250Y43150
X128125Y44150
X128625Y43775
X129125Y43400
X128750Y44650
X127500Y45150
X127000Y45775
X125000Y45525
X124500Y45775
X123625Y46150
X122875Y45775
X130351Y69901
X130351Y68149
X113250Y49525
X113250Y50400
X117000Y53150
X117000Y54400
X117750Y54400
X118250Y54650
X119250Y54775
X120000Y53900
X120500Y53400
X120000Y52900
X119500Y53400
X118750Y53150
X121000Y51400
X123750Y50400
X124250Y51150
X124250Y51775
X124750Y51775
X124750Y52775
X124250Y52775
X123875Y53900
X121250Y53775
X124750Y56775
X125670Y56195
X126125Y55900
X126500Y55650
X126875Y55400
X127625Y54275
X127625Y53400
X125750Y50400
X128750Y49650
X122875Y57025
X123250Y57275
X123625Y57525
X124000Y57775
X125670Y59730
X124875Y59775
X124125Y60900
X123750Y61150
X123375Y61400
X123000Y61650
X123000Y62775
X122375Y63275
X122750Y63525
X122250Y64275
X122250Y64775
X121750Y64775
X121000Y65150
X120250Y64775
X120250Y63650
X119000Y62900
X119000Y62400
X119000Y61900
X118750Y60900
X118250Y59775
X117250Y59775
X118500Y58400
X119250Y58900
X120750Y58400
X120875Y58900
X121250Y59775
X121750Y59900
X122125Y60150
X122500Y59900
X124375Y61525
X124500Y62025
X126125Y63150
X126125Y63650
X126375Y64400
X125000Y65150
X124667Y64817
X123000Y64730
X122000Y65525
X122375Y65900
X122750Y66275
X123125Y66900
X123500Y66650
X123875Y66400
X124500Y66525
X122750Y67150
X122375Y67400
X122000Y67650
X121500Y67650
X121375Y67150
X120250Y67150
X119750Y67150
X119375Y67650
X118250Y68150
X117500Y68150
X117500Y69150
X116250Y69150
X115750Y69650
X115250Y69650
X114750Y69275
X114750Y68650
X115250Y68650
X115500Y70400
X113250Y69275
X113250Y68650
X112000Y68900
X111000Y68400
X113250Y66900
X113750Y66900
X114500Y66900
X115000Y66900
X116375Y67025
X117000Y67025
X117750Y66400
X118250Y66900
X118750Y66650
X119000Y65900
X119000Y65400
X119000Y64900
X118500Y65900
X118250Y63650
X116500Y63400
X116750Y62150
X117250Y61900
X115250Y60400
X114750Y60650
X114375Y60900
X114000Y61150
X113625Y61400
X113250Y61650
X112500Y62150
X112750Y62650
X112250Y61650
X112000Y61150
X112500Y60650
X112875Y60900
X112375Y60025
X112250Y58400
X112750Y58400
X111375Y58525
X110375Y58775
X110375Y60400
X110375Y61900
X110500Y63150
X110500Y64650
X110750Y65900
X110375Y66025
X114875Y59775
X116750Y57150
X114500Y56900
X111875Y56900
X111375Y56525
X111000Y56900
X110250Y56900
X113500Y54400
X122000Y63025
X126117Y60408
X126427Y60723
X126737Y61038
X130875Y62650
X130875Y64150
X129125Y65874
X128625Y65900
X128125Y65900
X127250Y67150
X128125Y68150
X128625Y67775
X129125Y67400
X128750Y68650
X127500Y69150
X127000Y69775
X125000Y69525
X124500Y69775
X123625Y70150
X122875Y69775
X130351Y93901
X130351Y92149
X113250Y73525
X113250Y74400
X117000Y77150
X117000Y78400
X117750Y78400
X118250Y78650
X119250Y78775
X120000Y77900
X120500Y77400
X120000Y76900
X119500Y77400
X118750Y77150
X121000Y75400
X123750Y74400
X124250Y75150
X124250Y75775
X124750Y75775
X124750Y76775
X124250Y76775
X123875Y77900
X121250Y77775
X124750Y80775
X125670Y80195
X126125Y79900
X126500Y79650
X126875Y79400
X127625Y78275
X127625Y77400
X125750Y74400
X128750Y73650
X122875Y81025
X123250Y81275
X123625Y81525
X124000Y81775
X125670Y83730
X124875Y83775
X124125Y84900
X123750Y85150
X123375Y85400
X123000Y85650
X123000Y86775
X122375Y87275
X122750Y87525
X122250Y88275
X122250Y88775
X121750Y88775
X121000Y89150
X120250Y88775
X120250Y87650
X119000Y86900
X119000Y86400
X119000Y85900
X118750Y84900
X118250Y83775
X117250Y83775
X118500Y82400
X119250Y82900
X120750Y82400
X120875Y82900
X121250Y83775
X121750Y83900
X122125Y84150
X122500Y83900
X124375Y85525
X124500Y86025
X126125Y87150
X126125Y87650
X126375Y88400
X125000Y89150
X124667Y88817
X123000Y88730
X122000Y89525
X122375Y89900
X122750Y90275
X123125Y90900
X123500Y90650
X123875Y90400
X124500Y90525
X122750Y91150
X122375Y91400
X122000Y91650
X121500Y91650
X121375Y91150
X120250Y91150
X119750Y91150
X119375Y91650
X118250Y92150
X117500Y92150
X117500Y93150
X116250Y93150
X115750Y93650
X115250Y93650
X114750Y93275
X114750Y92650
X115250Y92650
X115500Y94400
X113250Y93275
X113250Y92650
X112000Y92900
X111000Y92400
X113250Y90900
X113750Y90900
X114500Y90900
X115000Y90900
X116375Y91025
X117000Y91025
X117750Y90400
X118250Y90900
X118750Y90650
X119000Y89900
X119000Y89400
X119000Y88900
X118500Y89900
X118250Y87650
X116500Y87400
X116750Y86150
X117250Y85900
X115250Y84400
X114750Y84650
X114375Y84900
X114000Y85150
X113625Y85400
X113250Y85650
X112500Y86150
X112750Y86650
X112250Y85650
X112000Y85150
X112500Y84650
X112875Y84900
X112375Y84025
X112250Y82400
X112750Y82400
X111375Y82525
X110375Y82775
X110375Y84400
X110375Y85900
X110500Y87150
X110500Y88650
X110750Y89900
X110375Y90025
X114875Y83775
X116750Y81150
X114500Y80900
X111875Y80900
X111375Y80525
X111000Y80900
X110250Y80900
X113500Y78400
X122000Y87025
X126117Y84408
X126427Y84723
X126737Y85038
X130875Y86650
X130875Y88150
X129125Y89874
X128625Y89900
X128125Y89900
X127250Y91150
X128125Y92150
X128625Y91775
X129125Y91400
X128750Y92650
X127500Y93150
X127000Y93775
X125000Y93525
X124500Y93775
X123625Y94150
X122875Y93775
X155351Y21901
X155351Y20149
X138250Y1525
X138250Y2400
X142000Y5150
X142000Y6400
X142750Y6400
X143250Y6650
X144250Y6775
X145000Y5900
X145500Y5400
X145000Y4900
X144500Y5400
X143750Y5150
X146000Y3400
X148750Y2400
X149250Y3150
X149250Y3775
X149750Y3775
X149750Y4775
X149250Y4775
X148875Y5900
X146250Y5775
X149750Y8775
X150670Y8195
X151125Y7900
X151500Y7650
X151875Y7400
X152625Y6275
X152625Y5400
X150750Y2400
X153750Y1650
X147875Y9025
X148250Y9275
X148625Y9525
X149000Y9775
X150670Y11730
X149875Y11775
X149125Y12900
X148750Y13150
X148375Y13400
X148000Y13650
X148000Y14775
X147375Y15275
X147750Y15525
X147250Y16275
X147250Y16775
X146750Y16775
X146000Y17150
X145250Y16775
X145250Y15650
X144000Y14900
X144000Y14400
X144000Y13900
X143750Y12900
X143250Y11775
X142250Y11775
X143500Y10400
X144250Y10900
X145750Y10400
X145875Y10900
X146250Y11775
X146750Y11900
X147125Y12150
X147500Y11900
X149375Y13525
X149500Y14025
X151125Y15150
X151125Y15650
X151375Y16400
X150000Y17150
X149667Y16817
X148000Y16730
X147000Y17525
X147375Y17900
X147750Y18275
X148125Y18900
X148500Y18650
X148875Y18400
X149500Y18525
X147750Y19150
X147375Y19400
X147000Y19650
X146500Y19650
X146375Y19150
X145250Y19150
X144750Y19150
X144375Y19650
X143250Y20150
X142500Y20150
X142500Y21150
X141250Y21150
X140750Y21650
X140250Y21650
X139750Y21275
X139750Y20650
X140250Y20650
X140500Y22400
X138250Y21275
X138250Y20650
X137000Y20900
X136000Y20400
X138250Y18900
X138750Y18900
X139500Y18900
X140000Y18900
X141375Y19025
X142000Y19025
X142750Y18400
X143250Y18900
X143750Y18650
X144000Y17900
X144000Y17400
X144000Y16900
X143500Y17900
X143250Y15650
X141500Y15400
X141750Y14150
X142250Y13900
X140250Y12400
X139750Y12650
X139375Y12900
X139000Y13150
X138625Y13400
X138250Y13650
X137500Y14150
X137750Y14650
X137250Y13650
X137000Y13150
X137500Y12650
X137875Y12900
X137375Y12025
X137250Y10400
X137750Y10400
X136375Y10525
X135375Y10775
X135375Y12400
X135375Y13900
X135500Y15150
X135500Y16650
X135750Y17900
X135375Y18025
X139875Y11775
X141750Y9150
X139500Y8900
X136875Y8900
X136375Y8525
X136000Y8900
X135250Y8900
X138500Y6400
X147000Y15025
X151117Y12408
X151427Y12723
X151737Y13038
X155875Y14650
X155875Y16150
X154125Y17874
X153625Y17900
X153125Y17900
X152250Y19150
X153125Y20150
X153625Y19775
X154125Y19400
X153750Y20650
X152500Y21150
X152000Y21775
X150000Y21525
X149500Y21775
X148625Y22150
X147875Y21775
X155351Y45901
X155351Y44149
X138250Y25525
X138250Y26400
X142000Y29150
X142000Y30400
X142750Y30400
X143250Y30650
X144250Y30775
X145000Y29900
X145500Y29400
X145000Y28900
X144500Y29400
X143750Y29150
X146000Y27400
X148750Y26400
X149250Y27150
X149250Y27775
X149750Y27775
X149750Y28775
X149250Y28775
X148875Y29900
X146250Y29775
X149750Y32775
X150670Y32195
X151125Y31900
X151500Y31650
X151875Y31400
X152625Y30275
X152625Y29400
X150750Y26400
X153750Y25650
X147875Y33025
X148250Y33275
X148625Y33525
X149000Y33775
X150670Y35730
X149875Y35775
X149125Y36900
X148750Y37150
X148375Y37400
X148000Y37650
X148000Y38775
X147375Y39275
X147750Y39525
X147250Y40275
X147250Y40775
X146750Y40775
X146000Y41150
X145250Y40775
X145250Y39650
X144000Y38900
X144000Y38400
X144000Y37900
X143750Y36900
X143250Y35775
X142250Y35775
X143500Y34400
X144250Y34900
X145750Y34400
X145875Y34900
X146250Y35775
X146750Y35900
X147125Y36150
X147500Y35900
X149375Y37525
X149500Y38025
X151125Y39150
X151125Y39650
X151375Y40400
X150000Y41150
X149667Y40817
X148000Y40730
X147000Y41525
X147375Y41900
X147750Y42275
X148125Y42900
X148500Y42650
X148875Y42400
X149500Y42525
X147750Y43150
X147375Y43400
X147000Y43650
X146500Y43650
X146375Y43150
X145250Y43150
X144750Y43150
X144375Y43650
X143250Y44150
X142500Y44150
X142500Y45150
X141250Y45150
X140750Y45650
X140250Y45650
X139750Y45275
X139750Y44650
X140250Y44650
X140500Y46400
X138250Y45275
X138250Y44650
X137000Y44900
X136000Y44400
X138250Y42900
X138750Y42900
X139500Y42900
X140000Y42900
X141375Y43025
X142000Y43025
X142750Y42400
X143250Y42900
X143750Y42650
X144000Y41900
X144000Y41400
X144000Y40900
X143500Y41900
X143250Y39650
X141500Y39400
X141750Y38150
X142250Y37900
X140250Y36400
X139750Y36650
X139375Y36900
X139000Y37150
X138625Y37400
X138250Y37650
X137500Y38150
X137750Y38650
X137250Y37650
X137000Y37150
X137500Y36650
X137875Y36900
X137375Y36025
X137250Y34400
X137750Y34400
X136375Y34525
X135375Y34775
X135375Y36400
X135375Y37900
X135500Y39150
X135500Y40650
X135750Y41900
X135375Y42025
X139875Y35775
X141750Y33150
X139500Y32900
X136875Y32900
X136375Y32525
X136000Y32900
X135250Y32900
X138500Y30400
X147000Y39025
X151117Y36408
X151427Y36723
X151737Y37038
X155875Y38650
X155875Y40150
X154125Y41874
X153625Y41900
X153125Y41900
X152250Y43150
X153125Y44150
X153625Y43775
X154125Y43400
X153750Y44650
X152500Y45150
X152000Y45775
X150000Y45525
X149500Y45775
X148625Y46150
X147875Y45775
X155351Y69901
X155351Y68149
X138250Y49525
X138250Y50400
X142000Y53150
X142000Y54400
X142750Y54400
X143250Y54650
X144250Y54775
X145000Y53900
X145500Y53400
X145000Y52900
X144500Y53400
X143750Y53150
X146000Y51400
X148750Y50400
X149250Y51150
X149250Y51775
X149750Y51775
X149750Y52775
X149250Y52775
X148875Y53900
X146250Y53775
X149750Y56775
X150670Y56195
X151125Y55900
X151500Y55650
X151875Y55400
X152625Y54275
X152625Y53400
X150750Y50400
X153750Y49650
X147875Y57025
X148250Y57275
X148625Y57525
X149000Y57775
X150670Y59730
X149875Y59775
X149125Y60900
X148750Y61150
X148375Y61400
X148000Y61650
X148000Y62775
X147375Y63275
X147750Y63525
X147250Y64275
X147250Y64775
X146750Y64775
X146000Y65150
X145250Y64775
X145250Y63650
X144000Y62900
X144000Y62400
X144000Y61900
X143750Y60900
X143250Y59775
X142250Y59775
X143500Y58400
X144250Y58900
X145750Y58400
X145875Y58900
X146250Y59775
X146750Y59900
X147125Y60150
X147500Y59900
X149375Y61525
X149500Y62025
X151125Y63150
X151125Y63650
X151375Y64400
X150000Y65150
X149667Y64817
X148000Y64730
X147000Y65525
X147375Y65900
X147750Y66275
X148125Y66900
X148500Y66650
X148875Y66400
X149500Y66525
X147750Y67150
X147375Y67400
X147000Y67650
X146500Y67650
X146375Y67150
X145250Y67150
X144750Y67150
X144375Y67650
X143250Y68150
X142500Y68150
X142500Y69150
X141250Y69150
X140750Y69650
X140250Y69650
X139750Y69275
X139750Y68650
X140250Y68650
X140500Y70400
X138250Y69275
X138250Y68650
X137000Y68900
X136000Y68400
X138250Y66900
X138750Y66900
X139500Y66900
X140000Y66900
X141375Y67025
X142000Y67025
X142750Y66400
X143250Y66900
X143750Y66650
X144000Y65900
X144000Y65400
X144000Y64900
X143500Y65900
X143250Y63650
X141500Y63400
X141750Y62150
X142250Y61900
X140250Y60400
X139750Y60650
X139375Y60900
X139000Y61150
X138625Y61400
X138250Y61650
X137500Y62150
X137750Y62650
X137250Y61650
X137000Y61150
X137500Y60650
X137875Y60900
X137375Y60025
X137250Y58400
X137750Y58400
X136375Y58525
X135375Y58775
X135375Y60400
X135375Y61900
X135500Y63150
X135500Y64650
X135750Y65900
X135375Y66025
X139875Y59775
X141750Y57150
X139500Y56900
X136875Y56900
X136375Y56525
X136000Y56900
X135250Y56900
X138500Y54400
X147000Y63025
X151117Y60408
X151427Y60723
X151737Y61038
X155875Y62650
X155875Y64150
X154125Y65874
X153625Y65900
X153125Y65900
X152250Y67150
X153125Y68150
X153625Y67775
X154125Y67400
X153750Y68650
X152500Y69150
X152000Y69775
X150000Y69525
X149500Y69775
X148625Y70150
X147875Y69775
X155351Y93901
X155351Y92149
X138250Y73525
X138250Y74400
X142000Y77150
X142000Y78400
X142750Y78400
X143250Y78650
X144250Y78775
X145000Y77900
X145500Y77400
X145000Y76900
X144500Y77400
X143750Y77150
X146000Y75400
X148750Y74400
X149250Y75150
X149250Y75775
X149750Y75775
X149750Y76775
X149250Y76775
X148875Y77900
X146250Y77775
X149750Y80775
X150670Y80195
X151125Y79900
X151500Y79650
X151875Y79400
X152625Y78275
X152625Y77400
X150750Y74400
X153750Y73650
X147875Y81025
X148250Y81275
X148625Y81525
X149000Y81775
X150670Y83730
X149875Y83775
X149125Y84900
X148750Y85150
X148375Y85400
X148000Y85650
X148000Y86775
X147375Y87275
X147750Y87525
X147250Y88275
X147250Y88775
X146750Y88775
X146000Y89150
X145250Y88775
X145250Y87650
X144000Y86900
X144000Y86400
X144000Y85900
X143750Y84900
X143250Y83775
X142250Y83775
X143500Y82400
X144250Y82900
X145750Y82400
X145875Y82900
X146250Y83775
X146750Y83900
X147125Y84150
X147500Y83900
X149375Y85525
X149500Y86025
X151125Y87150
X151125Y87650
X151375Y88400
X150000Y89150
X149667Y88817
X148000Y88730
X147000Y89525
X147375Y89900
X147750Y90275
X148125Y90900
X148500Y90650
X148875Y90400
X149500Y90525
X147750Y91150
X147375Y91400
X147000Y91650
X146500Y91650
X146375Y91150
X145250Y91150
X144750Y91150
X144375Y91650
X143250Y92150
X142500Y92150
X142500Y93150
X141250Y93150
X140750Y93650
X140250Y93650
X139750Y93275
X139750Y92650
X140250Y92650
X140500Y94400
X138250Y93275
X138250Y92650
X137000Y92900
X136000Y92400
X138250Y90900
X138750Y90900
X139500Y90900
X140000Y90900
X141375Y91025
X142000Y91025
X142750Y90400
X143250Y90900
X143750Y90650
X144000Y89900
X144000Y89400
X144000Y88900
X143500Y89900
X143250Y87650
X141500Y87400
X141750Y86150
X142250Y85900
X140250Y84400
X139750Y84650
X139375Y84900
X139000Y85150
X138625Y85400
X138250Y85650
X137500Y86150
X137750Y86650
X137250Y85650
X137000Y85150
X137500Y84650
X137875Y84900
X137375Y84025
X137250Y82400
X137750Y82400
X136375Y82525
X135375Y82775
X135375Y84400
X135375Y85900
X135500Y87150
X135500Y88650
X135750Y89900
X135375Y90025
X139875Y83775
X141750Y81150
X139500Y80900
X136875Y80900
X136375Y80525
X136000Y80900
X135250Y80900
X138500Y78400
X147000Y87025
X151117Y84408
X151427Y84723
X151737Y85038
X155875Y86650
X155875Y88150
X154125Y89874
X153625Y89900
X153125Y89900
X152250Y91150
X153125Y92150
X153625Y91775
X154125Y91400
X153750Y92650
X152500Y93150
X152000Y93775
X150000Y93525
X149500Y93775
X148625Y94150
X147875Y93775
T02C0.033450
X19186Y20125
X22186Y20125
X22186Y16125
X19186Y16125
X22186Y24625
X22186Y23625
X22186Y22625
X22186Y21625
X24186Y21625
X24186Y20625
X24186Y19625
X24686Y18125
X24686Y17125
X23061Y18250
X23061Y15250
X22686Y14125
X23686Y14125
X24686Y14125
X27186Y15625
X27186Y16625
X27186Y19625
X27186Y20625
X27186Y21625
X27186Y22625
X27186Y23625
X24186Y23625
X24186Y22625
X19186Y22625
X19186Y21625
X19186Y23625
X19186Y24625
X16686Y22625
X16686Y21625
X15186Y20125
X15186Y19125
X15186Y18125
X16686Y18625
X16686Y19625
X13686Y21625
X13686Y22625
X12186Y20125
X12186Y19125
X12186Y18125
X13686Y16625
X13686Y15625
X14186Y13625
X13186Y13625
X13186Y11625
X14186Y11625
X17186Y11125
X18186Y11125
X19186Y11125
X20186Y11625
X20186Y13625
X19186Y14125
X18186Y14125
X17186Y14125
X16686Y15625
X16686Y16625
X22686Y11125
X23686Y11125
X24686Y11125
X28686Y12125
X29186Y12875
X29686Y12125
X31186Y13125
X29186Y10375
X29686Y9625
X28686Y9625
X31186Y9125
X12561Y25625
X11686Y25625
X11686Y28625
X12561Y28625
X20311Y27250
X22311Y27250
X19186Y52625
X22186Y52625
X22186Y48625
X19186Y48625
X22186Y57125
X22186Y56125
X22186Y55125
X22186Y54125
X24186Y54125
X24186Y53125
X24186Y52125
X24686Y50625
X24686Y49625
X23061Y50750
X23061Y47750
X22686Y46625
X23686Y46625
X24686Y46625
X27186Y48125
X27186Y49125
X27186Y52125
X27186Y53125
X27186Y54125
X27186Y55125
X27186Y56125
X24186Y56125
X24186Y55125
X19186Y55125
X19186Y54125
X19186Y56125
X19186Y57125
X16686Y55125
X16686Y54125
X15186Y52625
X15186Y51625
X15186Y50625
X16686Y51125
X16686Y52125
X13686Y54125
X13686Y55125
X12186Y52625
X12186Y51625
X12186Y50625
X13686Y49125
X13686Y48125
X14186Y46125
X13186Y46125
X13186Y44125
X14186Y44125
X17186Y43625
X18186Y43625
X19186Y43625
X20186Y44125
X20186Y46125
X19186Y46625
X18186Y46625
X17186Y46625
X16686Y48125
X16686Y49125
X22686Y43625
X23686Y43625
X24686Y43625
X28686Y44625
X29186Y45375
X29686Y44625
X31186Y45625
X29186Y42875
X29686Y42125
X28686Y42125
X31186Y41625
X12561Y58125
X11686Y58125
X11686Y61125
X12561Y61125
X20311Y59750
X22311Y59750
X19186Y85125
X22186Y85125
X22186Y81125
X19186Y81125
X22186Y89625
X22186Y88625
X22186Y87625
X22186Y86625
X24186Y86625
X24186Y85625
X24186Y84625
X24686Y83125
X24686Y82125
X23061Y83250
X23061Y80250
X22686Y79125
X23686Y79125
X24686Y79125
X27186Y80625
X27186Y81625
X27186Y84625
X27186Y85625
X27186Y86625
X27186Y87625
X27186Y88625
X24186Y88625
X24186Y87625
X19186Y87625
X19186Y86625
X19186Y88625
X19186Y89625
X16686Y87625
X16686Y86625
X15186Y85125
X15186Y84125
X15186Y83125
X16686Y83625
X16686Y84625
X13686Y86625
X13686Y87625
X12186Y85125
X12186Y84125
X12186Y83125
X13686Y81625
X13686Y80625
X14186Y78625
X13186Y78625
X13186Y76625
X14186Y76625
X17186Y76125
X18186Y76125
X19186Y76125
X20186Y76625
X20186Y78625
X19186Y79125
X18186Y79125
X17186Y79125
X16686Y80625
X16686Y81625
X22686Y76125
X23686Y76125
X24686Y76125
X28686Y77125
X29186Y77875
X29686Y77125
X31186Y78125
X29186Y75375
X29686Y74625
X28686Y74625
X31186Y74125
X12561Y90625
X11686Y90625
X11686Y93625
X12561Y93625
X20311Y92250
X22311Y92250
X59686Y20125
X62686Y20125
X62686Y16125
X59686Y16125
X62686Y24625
X62686Y23625
X62686Y22625
X62686Y21625
X64686Y21625
X64686Y20625
X64686Y19625
X65186Y18125
X65186Y17125
X63561Y18250
X63561Y15250
X63186Y14125
X64186Y14125
X65186Y14125
X67686Y15625
X67686Y16625
X67686Y19625
X67686Y20625
X67686Y21625
X67686Y22625
X67686Y23625
X64686Y23625
X64686Y22625
X59686Y22625
X59686Y21625
X59686Y23625
X59686Y24625
X57186Y22625
X57186Y21625
X55686Y20125
X55686Y19125
X55686Y18125
X57186Y18625
X57186Y19625
X54186Y21625
X54186Y22625
X52686Y20125
X52686Y19125
X52686Y18125
X54186Y16625
X54186Y15625
X54686Y13625
X53686Y13625
X53686Y11625
X54686Y11625
X57686Y11125
X58686Y11125
X59686Y11125
X60686Y11625
X60686Y13625
X59686Y14125
X58686Y14125
X57686Y14125
X57186Y15625
X57186Y16625
X63186Y11125
X64186Y11125
X65186Y11125
X69186Y12125
X69686Y12875
X70186Y12125
X71686Y13125
X69686Y10375
X70186Y9625
X69186Y9625
X71686Y9125
X53061Y25625
X52186Y25625
X52186Y28625
X53061Y28625
X60811Y27250
X62811Y27250
X59686Y52625
X62686Y52625
X62686Y48625
X59686Y48625
X62686Y57125
X62686Y56125
X62686Y55125
X62686Y54125
X64686Y54125
X64686Y53125
X64686Y52125
X65186Y50625
X65186Y49625
X63561Y50750
X63561Y47750
X63186Y46625
X64186Y46625
X65186Y46625
X67686Y48125
X67686Y49125
X67686Y52125
X67686Y53125
X67686Y54125
X67686Y55125
X67686Y56125
X64686Y56125
X64686Y55125
X59686Y55125
X59686Y54125
X59686Y56125
X59686Y57125
X57186Y55125
X57186Y54125
X55686Y52625
X55686Y51625
X55686Y50625
X57186Y51125
X57186Y52125
X54186Y54125
X54186Y55125
X52686Y52625
X52686Y51625
X52686Y50625
X54186Y49125
X54186Y48125
X54686Y46125
X53686Y46125
X53686Y44125
X54686Y44125
X57686Y43625
X58686Y43625
X59686Y43625
X60686Y44125
X60686Y46125
X59686Y46625
X58686Y46625
X57686Y46625
X57186Y48125
X57186Y49125
X63186Y43625
X64186Y43625
X65186Y43625
X69186Y44625
X69686Y45375
X70186Y44625
X71686Y45625
X69686Y42875
X70186Y42125
X69186Y42125
X71686Y41625
X53061Y58125
X52186Y58125
X52186Y61125
X53061Y61125
X60811Y59750
X62811Y59750
X59686Y85125
X62686Y85125
X62686Y81125
X59686Y81125
X62686Y89625
X62686Y88625
X62686Y87625
X62686Y86625
X64686Y86625
X64686Y85625
X64686Y84625
X65186Y83125
X65186Y82125
X63561Y83250
X63561Y80250
X63186Y79125
X64186Y79125
X65186Y79125
X67686Y80625
X67686Y81625
X67686Y84625
X67686Y85625
X67686Y86625
X67686Y87625
X67686Y88625
X64686Y88625
X64686Y87625
X59686Y87625
X59686Y86625
X59686Y88625
X59686Y89625
X57186Y87625
X57186Y86625
X55686Y85125
X55686Y84125
X55686Y83125
X57186Y83625
X57186Y84625
X54186Y86625
X54186Y87625
X52686Y85125
X52686Y84125
X52686Y83125
X54186Y81625
X54186Y80625
X54686Y78625
X53686Y78625
X53686Y76625
X54686Y76625
X57686Y76125
X58686Y76125
X59686Y76125
X60686Y76625
X60686Y78625
X59686Y79125
X58686Y79125
X57686Y79125
X57186Y80625
X57186Y81625
X63186Y76125
X64186Y76125
X65186Y76125
X69186Y77125
X69686Y77875
X70186Y77125
X71686Y78125
X69686Y75375
X70186Y74625
X69186Y74625
X71686Y74125
X53061Y90625
X52186Y90625
X52186Y93625
X53061Y93625
X60811Y92250
X62811Y92250
T03C0.037700
X29061Y18000
X30061Y18000
X30061Y19000
X29061Y19000
X29061Y20000
X30061Y20000
X30061Y29500
X29061Y29500
X29061Y30500
X30061Y30500
X30061Y31500
X29061Y31500
X29061Y50500
X30061Y50500
X30061Y51500
X29061Y51500
X29061Y52500
X30061Y52500
X30061Y62000
X29061Y62000
X29061Y63000
X30061Y63000
X30061Y64000
X29061Y64000
X29061Y83000
X30061Y83000
X30061Y84000
X29061Y84000
X29061Y85000
X30061Y85000
X30061Y94500
X29061Y94500
X29061Y95500
X30061Y95500
X30061Y96500
X29061Y96500
X69561Y18000
X70561Y18000
X70561Y19000
X69561Y19000
X69561Y20000
X70561Y20000
X70561Y29500
X69561Y29500
X69561Y30500
X70561Y30500
X70561Y31500
X69561Y31500
X69561Y50500
X70561Y50500
X70561Y51500
X69561Y51500
X69561Y52500
X70561Y52500
X70561Y62000
X69561Y62000
X69561Y63000
X70561Y63000
X70561Y64000
X69561Y64000
X69561Y83000
X70561Y83000
X70561Y84000
X69561Y84000
X69561Y85000
X70561Y85000
X70561Y94500
X69561Y94500
X69561Y95500
X70561Y95500
X70561Y96500
X69561Y96500
X105500Y3400
X106500Y3400
X106500Y2400
X105500Y2400
X104500Y2400
X104500Y3400
X95000Y3400
X95000Y2400
X94000Y2400
X94000Y3400
X93000Y3400
X93000Y2400
X91000Y3400
X90000Y3400
X89000Y3400
X105500Y27400
X106500Y27400
X106500Y26400
X105500Y26400
X104500Y26400
X104500Y27400
X95000Y27400
X95000Y26400
X94000Y26400
X94000Y27400
X93000Y27400
X93000Y26400
X91000Y27400
X90000Y27400
X89000Y27400
X105500Y51400
X106500Y51400
X106500Y50400
X105500Y50400
X104500Y50400
X104500Y51400
X95000Y51400
X95000Y50400
X94000Y50400
X94000Y51400
X93000Y51400
X93000Y50400
X91000Y51400
X90000Y51400
X89000Y51400
X105500Y75400
X106500Y75400
X106500Y74400
X105500Y74400
X104500Y74400
X104500Y75400
X95000Y75400
X95000Y74400
X94000Y74400
X94000Y75400
X93000Y75400
X93000Y74400
X91000Y75400
X90000Y75400
X89000Y75400
X130500Y3400
X131500Y3400
X131500Y2400
X130500Y2400
X129500Y2400
X129500Y3400
X120000Y3400
X120000Y2400
X119000Y2400
X119000Y3400
X118000Y3400
X118000Y2400
X116000Y3400
X115000Y3400
X114000Y3400
X130500Y27400
X131500Y27400
X131500Y26400
X130500Y26400
X129500Y26400
X129500Y27400
X120000Y27400
X120000Y26400
X119000Y26400
X119000Y27400
X118000Y27400
X118000Y26400
X116000Y27400
X115000Y27400
X114000Y27400
X130500Y51400
X131500Y51400
X131500Y50400
X130500Y50400
X129500Y50400
X129500Y51400
X120000Y51400
X120000Y50400
X119000Y50400
X119000Y51400
X118000Y51400
X118000Y50400
X116000Y51400
X115000Y51400
X114000Y51400
X130500Y75400
X131500Y75400
X131500Y74400
X130500Y74400
X129500Y74400
X129500Y75400
X120000Y75400
X120000Y74400
X119000Y74400
X119000Y75400
X118000Y75400
X118000Y74400
X116000Y75400
X115000Y75400
X114000Y75400
X155500Y3400
X156500Y3400
X156500Y2400
X155500Y2400
X154500Y2400
X154500Y3400
X145000Y3400
X145000Y2400
X144000Y2400
X144000Y3400
X143000Y3400
X143000Y2400
X141000Y3400
X140000Y3400
X139000Y3400
X155500Y27400
X156500Y27400
X156500Y26400
X155500Y26400
X154500Y26400
X154500Y27400
X145000Y27400
X145000Y26400
X144000Y26400
X144000Y27400
X143000Y27400
X143000Y26400
X141000Y27400
X140000Y27400
X139000Y27400
X155500Y51400
X156500Y51400
X156500Y50400
X155500Y50400
X154500Y50400
X154500Y51400
X145000Y51400
X145000Y50400
X144000Y50400
X144000Y51400
X143000Y51400
X143000Y50400
X141000Y51400
X140000Y51400
X139000Y51400
X155500Y75400
X156500Y75400
X156500Y74400
X155500Y74400
X154500Y74400
X154500Y75400
X145000Y75400
X145000Y74400
X144000Y74400
X144000Y75400
X143000Y75400
X143000Y74400
X141000Y75400
X140000Y75400
X139000Y75400
T04C0.040000
X10061Y9000
X11061Y9000
X11061Y10000
X11061Y11000
X11061Y12000
X10061Y12000
X10061Y11000
X10061Y10000
X10061Y13000
X10061Y14000
X10061Y18000
X10061Y19000
X10061Y20000
X10061Y21000
X10061Y22000
X10061Y23000
X10061Y26000
X10061Y27000
X10061Y28000
X10061Y29000
X10061Y30000
X24811Y31250
X25811Y31250
X29061Y17000
X30061Y17000
X29061Y16000
X29061Y15000
X29061Y14000
X27061Y13000
X26061Y13000
X26061Y12000
X27061Y12000
X27061Y11000
X26061Y11000
X26061Y10000
X27061Y10000
X27061Y9000
X26061Y9000
X25061Y9000
X24061Y9000
X23061Y9000
X22061Y9000
X21061Y9000
X20061Y9000
X19061Y9000
X18061Y9000
X17061Y9000
X16061Y9000
X26670Y25172
X25686Y25172
X24701Y25172
X18561Y27250
X16670Y25172
X15686Y25172
X14701Y25172
X18561Y31250
X13530Y31573
X10243Y31573
X6670Y25172
X5686Y25172
X4701Y25172
X15686Y14875
X15686Y10375
X21686Y10375
X21686Y14875
X34701Y25172
X35686Y25172
X36670Y25172
X10061Y41500
X11061Y41500
X11061Y42500
X11061Y43500
X11061Y44500
X10061Y44500
X10061Y43500
X10061Y42500
X10061Y45500
X10061Y46500
X10061Y50500
X10061Y51500
X10061Y52500
X10061Y53500
X10061Y54500
X10061Y55500
X10061Y58500
X10061Y59500
X10061Y60500
X10061Y61500
X10061Y62500
X24811Y63750
X25811Y63750
X29061Y49500
X30061Y49500
X29061Y48500
X29061Y47500
X29061Y46500
X27061Y45500
X26061Y45500
X26061Y44500
X27061Y44500
X27061Y43500
X26061Y43500
X26061Y42500
X27061Y42500
X27061Y41500
X26061Y41500
X25061Y41500
X24061Y41500
X23061Y41500
X22061Y41500
X21061Y41500
X20061Y41500
X19061Y41500
X18061Y41500
X17061Y41500
X16061Y41500
X26670Y57672
X25686Y57672
X24701Y57672
X18561Y59750
X16670Y57672
X15686Y57672
X14701Y57672
X18561Y63750
X13530Y64073
X10243Y64073
X6670Y57672
X5686Y57672
X4701Y57672
X15686Y47375
X15686Y42875
X21686Y42875
X21686Y47375
X34701Y57672
X35686Y57672
X36670Y57672
X10061Y74000
X11061Y74000
X11061Y75000
X11061Y76000
X11061Y77000
X10061Y77000
X10061Y76000
X10061Y75000
X10061Y78000
X10061Y79000
X10061Y83000
X10061Y84000
X10061Y85000
X10061Y86000
X10061Y87000
X10061Y88000
X10061Y91000
X10061Y92000
X10061Y93000
X10061Y94000
X10061Y95000
X24811Y96250
X25811Y96250
X29061Y82000
X30061Y82000
X29061Y81000
X29061Y80000
X29061Y79000
X27061Y78000
X26061Y78000
X26061Y77000
X27061Y77000
X27061Y76000
X26061Y76000
X26061Y75000
X27061Y75000
X27061Y74000
X26061Y74000
X25061Y74000
X24061Y74000
X23061Y74000
X22061Y74000
X21061Y74000
X20061Y74000
X19061Y74000
X18061Y74000
X17061Y74000
X16061Y74000
X26670Y90172
X25686Y90172
X24701Y90172
X18561Y92250
X16670Y90172
X15686Y90172
X14701Y90172
X18561Y96250
X13530Y96573
X10243Y96573
X6670Y90172
X5686Y90172
X4701Y90172
X15686Y79875
X15686Y75375
X21686Y75375
X21686Y79875
X34701Y90172
X35686Y90172
X36670Y90172
X50561Y9000
X51561Y9000
X51561Y10000
X51561Y11000
X51561Y12000
X50561Y12000
X50561Y11000
X50561Y10000
X50561Y13000
X50561Y14000
X50561Y18000
X50561Y19000
X50561Y20000
X50561Y21000
X50561Y22000
X50561Y23000
X50561Y26000
X50561Y27000
X50561Y28000
X50561Y29000
X50561Y30000
X65311Y31250
X66311Y31250
X69561Y17000
X70561Y17000
X69561Y16000
X69561Y15000
X69561Y14000
X67561Y13000
X66561Y13000
X66561Y12000
X67561Y12000
X67561Y11000
X66561Y11000
X66561Y10000
X67561Y10000
X67561Y9000
X66561Y9000
X65561Y9000
X64561Y9000
X63561Y9000
X62561Y9000
X61561Y9000
X60561Y9000
X59561Y9000
X58561Y9000
X57561Y9000
X56561Y9000
X67170Y25172
X66186Y25172
X65201Y25172
X59061Y27250
X57170Y25172
X56186Y25172
X55201Y25172
X59061Y31250
X54030Y31573
X50743Y31573
X47170Y25172
X46186Y25172
X45201Y25172
X56186Y14875
X56186Y10375
X62186Y10375
X62186Y14875
X75201Y25172
X76186Y25172
X77170Y25172
X50561Y41500
X51561Y41500
X51561Y42500
X51561Y43500
X51561Y44500
X50561Y44500
X50561Y43500
X50561Y42500
X50561Y45500
X50561Y46500
X50561Y50500
X50561Y51500
X50561Y52500
X50561Y53500
X50561Y54500
X50561Y55500
X50561Y58500
X50561Y59500
X50561Y60500
X50561Y61500
X50561Y62500
X65311Y63750
X66311Y63750
X69561Y49500
X70561Y49500
X69561Y48500
X69561Y47500
X69561Y46500
X67561Y45500
X66561Y45500
X66561Y44500
X67561Y44500
X67561Y43500
X66561Y43500
X66561Y42500
X67561Y42500
X67561Y41500
X66561Y41500
X65561Y41500
X64561Y41500
X63561Y41500
X62561Y41500
X61561Y41500
X60561Y41500
X59561Y41500
X58561Y41500
X57561Y41500
X56561Y41500
X67170Y57672
X66186Y57672
X65201Y57672
X59061Y59750
X57170Y57672
X56186Y57672
X55201Y57672
X59061Y63750
X54030Y64073
X50743Y64073
X47170Y57672
X46186Y57672
X45201Y57672
X56186Y47375
X56186Y42875
X62186Y42875
X62186Y47375
X75201Y57672
X76186Y57672
X77170Y57672
X50561Y74000
X51561Y74000
X51561Y75000
X51561Y76000
X51561Y77000
X50561Y77000
X50561Y76000
X50561Y75000
X50561Y78000
X50561Y79000
X50561Y83000
X50561Y84000
X50561Y85000
X50561Y86000
X50561Y87000
X50561Y88000
X50561Y91000
X50561Y92000
X50561Y93000
X50561Y94000
X50561Y95000
X65311Y96250
X66311Y96250
X69561Y82000
X70561Y82000
X69561Y81000
X69561Y80000
X69561Y79000
X67561Y78000
X66561Y78000
X66561Y77000
X67561Y77000
X67561Y76000
X66561Y76000
X66561Y75000
X67561Y75000
X67561Y74000
X66561Y74000
X65561Y74000
X64561Y74000
X63561Y74000
X62561Y74000
X61561Y74000
X60561Y74000
X59561Y74000
X58561Y74000
X57561Y74000
X56561Y74000
X67170Y90172
X66186Y90172
X65201Y90172
X59061Y92250
X57170Y90172
X56186Y90172
X55201Y90172
X59061Y96250
X54030Y96573
X50743Y96573
X47170Y90172
X46186Y90172
X45201Y90172
X56186Y79875
X56186Y75375
X62186Y75375
X62186Y79875
X75201Y90172
X76186Y90172
X77170Y90172
X84000Y4900
X85000Y4900
X86000Y4900
X87000Y4900
X88000Y4900
X88000Y5900
X87000Y5900
X86000Y5900
X85000Y5900
X84000Y5900
X92000Y3400
X92000Y2400
X87000Y21650
X87000Y22650
X88000Y22650
X89000Y22650
X86000Y22650
X86000Y21650
X85000Y21650
X84000Y21650
X84000Y22650
X85000Y22650
X93000Y22650
X94000Y22650
X95000Y22650
X96000Y22650
X97000Y22650
X98000Y22650
X101000Y22650
X102000Y22650
X103000Y22650
X104000Y22650
X105000Y22650
X106581Y19381
X106581Y22669
X84000Y28900
X85000Y28900
X86000Y28900
X87000Y28900
X88000Y28900
X88000Y29900
X87000Y29900
X86000Y29900
X85000Y29900
X84000Y29900
X92000Y27400
X92000Y26400
X87000Y45650
X87000Y46650
X88000Y46650
X89000Y46650
X86000Y46650
X86000Y45650
X85000Y45650
X84000Y45650
X84000Y46650
X85000Y46650
X93000Y46650
X94000Y46650
X95000Y46650
X96000Y46650
X97000Y46650
X98000Y46650
X101000Y46650
X102000Y46650
X103000Y46650
X104000Y46650
X105000Y46650
X106581Y43381
X106581Y46669
X84000Y52900
X85000Y52900
X86000Y52900
X87000Y52900
X88000Y52900
X88000Y53900
X87000Y53900
X86000Y53900
X85000Y53900
X84000Y53900
X92000Y51400
X92000Y50400
X87000Y69650
X87000Y70650
X88000Y70650
X89000Y70650
X86000Y70650
X86000Y69650
X85000Y69650
X84000Y69650
X84000Y70650
X85000Y70650
X93000Y70650
X94000Y70650
X95000Y70650
X96000Y70650
X97000Y70650
X98000Y70650
X101000Y70650
X102000Y70650
X103000Y70650
X104000Y70650
X105000Y70650
X106581Y67381
X106581Y70669
X84000Y76900
X85000Y76900
X86000Y76900
X87000Y76900
X88000Y76900
X88000Y77900
X87000Y77900
X86000Y77900
X85000Y77900
X84000Y77900
X92000Y75400
X92000Y74400
X87000Y93650
X87000Y94650
X88000Y94650
X89000Y94650
X86000Y94650
X86000Y93650
X85000Y93650
X84000Y93650
X84000Y94650
X85000Y94650
X93000Y94650
X94000Y94650
X95000Y94650
X96000Y94650
X97000Y94650
X98000Y94650
X101000Y94650
X102000Y94650
X103000Y94650
X104000Y94650
X105000Y94650
X106581Y91381
X106581Y94669
X109000Y4900
X110000Y4900
X111000Y4900
X112000Y4900
X113000Y4900
X113000Y5900
X112000Y5900
X111000Y5900
X110000Y5900
X109000Y5900
X117000Y3400
X117000Y2400
X112000Y21650
X112000Y22650
X113000Y22650
X114000Y22650
X111000Y22650
X111000Y21650
X110000Y21650
X109000Y21650
X109000Y22650
X110000Y22650
X118000Y22650
X119000Y22650
X120000Y22650
X121000Y22650
X122000Y22650
X123000Y22650
X126000Y22650
X127000Y22650
X128000Y22650
X129000Y22650
X130000Y22650
X131581Y19381
X131581Y22669
X109000Y28900
X110000Y28900
X111000Y28900
X112000Y28900
X113000Y28900
X113000Y29900
X112000Y29900
X111000Y29900
X110000Y29900
X109000Y29900
X117000Y27400
X117000Y26400
X112000Y45650
X112000Y46650
X113000Y46650
X114000Y46650
X111000Y46650
X111000Y45650
X110000Y45650
X109000Y45650
X109000Y46650
X110000Y46650
X118000Y46650
X119000Y46650
X120000Y46650
X121000Y46650
X122000Y46650
X123000Y46650
X126000Y46650
X127000Y46650
X128000Y46650
X129000Y46650
X130000Y46650
X131581Y43381
X131581Y46669
X109000Y52900
X110000Y52900
X111000Y52900
X112000Y52900
X113000Y52900
X113000Y53900
X112000Y53900
X111000Y53900
X110000Y53900
X109000Y53900
X117000Y51400
X117000Y50400
X112000Y69650
X112000Y70650
X113000Y70650
X114000Y70650
X111000Y70650
X111000Y69650
X110000Y69650
X109000Y69650
X109000Y70650
X110000Y70650
X118000Y70650
X119000Y70650
X120000Y70650
X121000Y70650
X122000Y70650
X123000Y70650
X126000Y70650
X127000Y70650
X128000Y70650
X129000Y70650
X130000Y70650
X131581Y67381
X131581Y70669
X109000Y76900
X110000Y76900
X111000Y76900
X112000Y76900
X113000Y76900
X113000Y77900
X112000Y77900
X111000Y77900
X110000Y77900
X109000Y77900
X117000Y75400
X117000Y74400
X112000Y93650
X112000Y94650
X113000Y94650
X114000Y94650
X111000Y94650
X111000Y93650
X110000Y93650
X109000Y93650
X109000Y94650
X110000Y94650
X118000Y94650
X119000Y94650
X120000Y94650
X121000Y94650
X122000Y94650
X123000Y94650
X126000Y94650
X127000Y94650
X128000Y94650
X129000Y94650
X130000Y94650
X131581Y91381
X131581Y94669
X134000Y4900
X135000Y4900
X136000Y4900
X137000Y4900
X138000Y4900
X138000Y5900
X137000Y5900
X136000Y5900
X135000Y5900
X134000Y5900
X142000Y3400
X142000Y2400
X137000Y21650
X137000Y22650
X138000Y22650
X139000Y22650
X136000Y22650
X136000Y21650
X135000Y21650
X134000Y21650
X134000Y22650
X135000Y22650
X143000Y22650
X144000Y22650
X145000Y22650
X146000Y22650
X147000Y22650
X148000Y22650
X151000Y22650
X152000Y22650
X153000Y22650
X154000Y22650
X155000Y22650
X156581Y19381
X156581Y22669
X134000Y28900
X135000Y28900
X136000Y28900
X137000Y28900
X138000Y28900
X138000Y29900
X137000Y29900
X136000Y29900
X135000Y29900
X134000Y29900
X142000Y27400
X142000Y26400
X137000Y45650
X137000Y46650
X138000Y46650
X139000Y46650
X136000Y46650
X136000Y45650
X135000Y45650
X134000Y45650
X134000Y46650
X135000Y46650
X143000Y46650
X144000Y46650
X145000Y46650
X146000Y46650
X147000Y46650
X148000Y46650
X151000Y46650
X152000Y46650
X153000Y46650
X154000Y46650
X155000Y46650
X156581Y43381
X156581Y46669
X134000Y52900
X135000Y52900
X136000Y52900
X137000Y52900
X138000Y52900
X138000Y53900
X137000Y53900
X136000Y53900
X135000Y53900
X134000Y53900
X142000Y51400
X142000Y50400
X137000Y69650
X137000Y70650
X138000Y70650
X139000Y70650
X136000Y70650
X136000Y69650
X135000Y69650
X134000Y69650
X134000Y70650
X135000Y70650
X143000Y70650
X144000Y70650
X145000Y70650
X146000Y70650
X147000Y70650
X148000Y70650
X151000Y70650
X152000Y70650
X153000Y70650
X154000Y70650
X155000Y70650
X156581Y67381
X156581Y70669
X134000Y76900
X135000Y76900
X136000Y76900
X137000Y76900
X138000Y76900
X138000Y77900
X137000Y77900
X136000Y77900
X135000Y77900
X134000Y77900
X142000Y75400
X142000Y74400
X137000Y93650
X137000Y94650
X138000Y94650
X139000Y94650
X136000Y94650
X136000Y93650
X135000Y93650
X134000Y93650
X134000Y94650
X135000Y94650
X143000Y94650
X144000Y94650
X145000Y94650
X146000Y94650
X147000Y94650
X148000Y94650
X151000Y94650
X152000Y94650
X153000Y94650
X154000Y94650
X155000Y94650
X156581Y91381
X156581Y94669
T05C0.059100
X6623Y9656
X4154Y9656
X1654Y9656
X1654Y16063
X1654Y17656
X4154Y17656
X4186Y16063
X6623Y16062
X6623Y17656
X6623Y24062
X4186Y24063
X1654Y24063
X34748Y24094
X37217Y24094
X39717Y24094
X39717Y17687
X39717Y16094
X37217Y16094
X37186Y17687
X34748Y17688
X34748Y16094
X34748Y9688
X34748Y8094
X37217Y8094
X37186Y9687
X39717Y9687
X39717Y8094
X39717Y1687
X37186Y1687
X34748Y1688
X6623Y42156
X4154Y42156
X1654Y42156
X1654Y48563
X1654Y50156
X4154Y50156
X4186Y48563
X6623Y48562
X6623Y50156
X6623Y56562
X4186Y56563
X1654Y56563
X34748Y56594
X37217Y56594
X39717Y56594
X39717Y50187
X39717Y48594
X37217Y48594
X37186Y50187
X34748Y50188
X34748Y48594
X34748Y42188
X34748Y40594
X37217Y40594
X37186Y42187
X39717Y42187
X39717Y40594
X39717Y34187
X37186Y34187
X34748Y34188
X6623Y74656
X4154Y74656
X1654Y74656
X1654Y81063
X1654Y82656
X4154Y82656
X4186Y81063
X6623Y81062
X6623Y82656
X6623Y89062
X4186Y89063
X1654Y89063
X34748Y89094
X37217Y89094
X39717Y89094
X39717Y82687
X39717Y81094
X37217Y81094
X37186Y82687
X34748Y82688
X34748Y81094
X34748Y74688
X34748Y73094
X37217Y73094
X37186Y74687
X39717Y74687
X39717Y73094
X39717Y66687
X37186Y66687
X34748Y66688
X47123Y9656
X44654Y9656
X42154Y9656
X42154Y16063
X42154Y17656
X44654Y17656
X44686Y16063
X47123Y16062
X47123Y17656
X47123Y24062
X44686Y24063
X42154Y24063
X75248Y24094
X77717Y24094
X80217Y24094
X80217Y17687
X80217Y16094
X77717Y16094
X77686Y17687
X75248Y17688
X75248Y16094
X75248Y9688
X75248Y8094
X77717Y8094
X77686Y9687
X80217Y9687
X80217Y8094
X80217Y1687
X77686Y1687
X75248Y1688
X47123Y42156
X44654Y42156
X42154Y42156
X42154Y48563
X42154Y50156
X44654Y50156
X44686Y48563
X47123Y48562
X47123Y50156
X47123Y56562
X44686Y56563
X42154Y56563
X75248Y56594
X77717Y56594
X80217Y56594
X80217Y50187
X80217Y48594
X77717Y48594
X77686Y50187
X75248Y50188
X75248Y48594
X75248Y42188
X75248Y40594
X77717Y40594
X77686Y42187
X80217Y42187
X80217Y40594
X80217Y34187
X77686Y34187
X75248Y34188
X47123Y74656
X44654Y74656
X42154Y74656
X42154Y81063
X42154Y82656
X44654Y82656
X44686Y81063
X47123Y81062
X47123Y82656
X47123Y89062
X44686Y89063
X42154Y89063
X75248Y89094
X77717Y89094
X80217Y89094
X80217Y82687
X80217Y81094
X77717Y81094
X77686Y82687
X75248Y82688
X75248Y81094
X75248Y74688
X75248Y73094
X77717Y73094
X77686Y74687
X80217Y74687
X80217Y73094
X80217Y66687
X77686Y66687
X75248Y66688
T06C0.078700
X33914Y28125
X37457Y28125
X27457Y28125
X23914Y28125
X17457Y28125
X13914Y28125
X7457Y28125
X3914Y28125
X33914Y60625
X37457Y60625
X27457Y60625
X23914Y60625
X17457Y60625
X13914Y60625
X7457Y60625
X3914Y60625
X33914Y93125
X37457Y93125
X27457Y93125
X23914Y93125
X17457Y93125
X13914Y93125
X7457Y93125
X3914Y93125
X74414Y28125
X77957Y28125
X67957Y28125
X64414Y28125
X57957Y28125
X54414Y28125
X47957Y28125
X44414Y28125
X74414Y60625
X77957Y60625
X67957Y60625
X64414Y60625
X57957Y60625
X54414Y60625
X47957Y60625
X44414Y60625
X74414Y93125
X77957Y93125
X67957Y93125
X64414Y93125
X57957Y93125
X54414Y93125
X47957Y93125
X44414Y93125
T07C0.118000
X21186Y28606
X23036Y29787
X21186Y30969
X21186Y61106
X23036Y62287
X21186Y63469
X21186Y93606
X23036Y94787
X21186Y95969
X61686Y28606
X63536Y29787
X61686Y30969
X61686Y61106
X63536Y62287
X61686Y63469
X61686Y93606
X63536Y94787
X61686Y95969
M30
