G75*
G70*
%OFA0B0*%
%FSLAX25Y25*%
%IPPOS*%
%LPD*%
%AMOC8*
5,1,8,0,0,1.08239X$1,22.5*
%
%ADD103C,0.00100*%
X0010000Y0010000D02*
G75*
%LPD*%
D103*
X0010000Y0081250D02*
X0010000Y0320750D01*
X0403710Y0320750D01*
X0403710Y0010000D01*
X0314360Y0010000D01*
X0314360Y0081250D01*
X0010000Y0081250D01*
X0010000Y0335000D02*
G75*
%LPD*%
D103*
X0010000Y0406250D02*
X0010000Y0645750D01*
X0403710Y0645750D01*
X0403710Y0335000D01*
X0314360Y0335000D01*
X0314360Y0406250D01*
X0010000Y0406250D01*
X0010000Y0660000D02*
G75*
%LPD*%
D103*
X0010000Y0731250D02*
X0010000Y0970750D01*
X0403710Y0970750D01*
X0403710Y0660000D01*
X0314360Y0660000D01*
X0314360Y0731250D01*
X0010000Y0731250D01*
X0415000Y0010000D02*
G75*
%LPD*%
D103*
X0415000Y0081250D02*
X0415000Y0320750D01*
X0808710Y0320750D01*
X0808710Y0010000D01*
X0719360Y0010000D01*
X0719360Y0081250D01*
X0415000Y0081250D01*
X0415000Y0335000D02*
G75*
%LPD*%
D103*
X0415000Y0406250D02*
X0415000Y0645750D01*
X0808710Y0645750D01*
X0808710Y0335000D01*
X0719360Y0335000D01*
X0719360Y0406250D01*
X0415000Y0406250D01*
X0415000Y0660000D02*
G75*
%LPD*%
D103*
X0415000Y0731250D02*
X0415000Y0970750D01*
X0808710Y0970750D01*
X0808710Y0660000D01*
X0719360Y0660000D01*
X0719360Y0731250D01*
X0415000Y0731250D01*
X0835000Y0010000D02*
G75*
%LPD*%
D103*
X0835000Y0010000D02*
X0835000Y0231500D01*
X1071220Y0231500D01*
X1071220Y0010000D01*
X0835000Y0010000D01*
X0835000Y0250000D02*
G75*
%LPD*%
D103*
X0835000Y0250000D02*
X0835000Y0471500D01*
X1071220Y0471500D01*
X1071220Y0250000D01*
X0835000Y0250000D01*
X0835000Y0490000D02*
G75*
%LPD*%
D103*
X0835000Y0490000D02*
X0835000Y0711500D01*
X1071220Y0711500D01*
X1071220Y0490000D01*
X0835000Y0490000D01*
X0835000Y0730000D02*
G75*
%LPD*%
D103*
X0835000Y0730000D02*
X0835000Y0951500D01*
X1071220Y0951500D01*
X1071220Y0730000D01*
X0835000Y0730000D01*
X1085000Y0010000D02*
G75*
%LPD*%
D103*
X1085000Y0010000D02*
X1085000Y0231500D01*
X1321220Y0231500D01*
X1321220Y0010000D01*
X1085000Y0010000D01*
X1085000Y0250000D02*
G75*
%LPD*%
D103*
X1085000Y0250000D02*
X1085000Y0471500D01*
X1321220Y0471500D01*
X1321220Y0250000D01*
X1085000Y0250000D01*
X1085000Y0490000D02*
G75*
%LPD*%
D103*
X1085000Y0490000D02*
X1085000Y0711500D01*
X1321220Y0711500D01*
X1321220Y0490000D01*
X1085000Y0490000D01*
X1085000Y0730000D02*
G75*
%LPD*%
D103*
X1085000Y0730000D02*
X1085000Y0951500D01*
X1321220Y0951500D01*
X1321220Y0730000D01*
X1085000Y0730000D01*
X1335000Y0010000D02*
G75*
%LPD*%
D103*
X1335000Y0010000D02*
X1335000Y0231500D01*
X1571220Y0231500D01*
X1571220Y0010000D01*
X1335000Y0010000D01*
X1335000Y0250000D02*
G75*
%LPD*%
D103*
X1335000Y0250000D02*
X1335000Y0471500D01*
X1571220Y0471500D01*
X1571220Y0250000D01*
X1335000Y0250000D01*
X1335000Y0490000D02*
G75*
%LPD*%
D103*
X1335000Y0490000D02*
X1335000Y0711500D01*
X1571220Y0711500D01*
X1571220Y0490000D01*
X1335000Y0490000D01*
X1335000Y0730000D02*
G75*
%LPD*%
D103*
X1335000Y0730000D02*
X1335000Y0951500D01*
X1571220Y0951500D01*
X1571220Y0730000D01*
X1335000Y0730000D01*
M02*
