G75*
G70*
%OFA0B0*%
%FSLAX25Y25*%
%IPPOS*%
%LPD*%
%AMOC8*
5,1,8,0,0,1.08239X$1,22.5*
%
%ADD102OC8,0.07400*%
%ADD24C,0.10000*%
%ADD26C,0.01200*%
%ADD29C,0.15000*%
%ADD35C,0.06600*%
%ADD37R,0.07090X0.07480*%
%ADD38R,0.06000X0.06000*%
%ADD39C,0.01600*%
%ADD44R,0.07400X0.07400*%
%ADD48R,0.03170X0.03170*%
%ADD49OC8,0.11070*%
%ADD51C,0.03170*%
%ADD57C,0.00800*%
%ADD61C,0.03560*%
%ADD65C,0.07600*%
%ADD69C,0.04360*%
%ADD70C,0.06300*%
%ADD74C,0.07800*%
%ADD75R,0.01570X0.05310*%
%ADD76OC8,0.05200*%
%ADD79C,0.05200*%
%ADD82C,0.06000*%
%ADD86R,0.07090X0.07090*%
%ADD90R,0.03560X0.03560*%
%ADD91C,0.05540*%
%ADD92C,0.07400*%
%ADD95OC8,0.06300*%
X0010000Y0010000D02*
G75*
%LPD*%
D65*
X0047010Y0251720D03*
X0056860Y0251720D03*
X0066700Y0251720D03*
X0147010Y0251720D03*
X0156860Y0251720D03*
X0166700Y0251720D03*
X0247010Y0251720D03*
X0256860Y0251720D03*
X0266700Y0251720D03*
X0347010Y0251720D03*
X0356860Y0251720D03*
X0366700Y0251720D03*
D49*
X0374570Y0281250D03*
X0339140Y0281250D03*
X0274570Y0281250D03*
X0239140Y0281250D03*
X0174570Y0281250D03*
X0139140Y0281250D03*
X0074570Y0281250D03*
X0039140Y0281250D03*
D92*
X0100610Y0280000D03*
X0100610Y0290000D03*
X0100610Y0300000D03*
X0100610Y0270000D03*
X0100610Y0260000D03*
X0100610Y0230000D03*
X0100610Y0220000D03*
X0100610Y0210000D03*
X0100610Y0200000D03*
X0100610Y0190000D03*
X0100610Y0180000D03*
X0100610Y0140000D03*
X0100610Y0130000D03*
X0100610Y0120000D03*
X0110610Y0120000D03*
X0110610Y0110000D03*
X0110610Y0100000D03*
X0100610Y0100000D03*
X0100610Y0090000D03*
X0100610Y0110000D03*
X0160610Y0090000D03*
X0170610Y0090000D03*
X0180610Y0090000D03*
X0190610Y0090000D03*
X0200610Y0090000D03*
X0210610Y0090000D03*
X0220610Y0090000D03*
X0230610Y0090000D03*
X0240610Y0090000D03*
X0250610Y0090000D03*
X0290610Y0140000D03*
X0290610Y0150000D03*
X0290610Y0160000D03*
X0290610Y0170000D03*
X0300610Y0170000D03*
X0223110Y0272500D03*
X0203110Y0272500D03*
X0248110Y0312500D03*
X0258110Y0312500D03*
D74*
X0185610Y0312500D03*
X0185610Y0272500D03*
D38*
X0290610Y0315000D03*
X0300610Y0295000D03*
X0300610Y0180000D03*
X0290610Y0180000D03*
D82*
X0290610Y0190000D03*
X0300610Y0190000D03*
X0300610Y0200000D03*
X0290610Y0200000D03*
X0290610Y0295000D03*
X0290610Y0305000D03*
X0300610Y0305000D03*
X0300610Y0315000D03*
D76*
X0271860Y0236250D03*
X0271860Y0226250D03*
X0271860Y0216250D03*
X0271860Y0206250D03*
X0271860Y0196250D03*
X0241860Y0196250D03*
X0241860Y0206250D03*
X0241860Y0216250D03*
X0241860Y0226250D03*
X0241860Y0236250D03*
X0230610Y0182500D03*
X0230610Y0152500D03*
X0226860Y0141250D03*
X0236860Y0141250D03*
X0246860Y0141250D03*
X0246860Y0111250D03*
X0236860Y0111250D03*
X0226860Y0111250D03*
X0201860Y0116250D03*
X0191860Y0111250D03*
X0181860Y0111250D03*
X0171860Y0111250D03*
X0141860Y0116250D03*
X0131860Y0116250D03*
X0131860Y0136250D03*
X0141860Y0136250D03*
X0171860Y0141250D03*
X0181860Y0141250D03*
X0191860Y0141250D03*
X0201860Y0136250D03*
X0151860Y0181250D03*
X0151860Y0191250D03*
X0151860Y0201250D03*
X0121860Y0201250D03*
X0121860Y0191250D03*
X0121860Y0181250D03*
X0125610Y0256250D03*
X0116860Y0256250D03*
X0116860Y0286250D03*
X0125610Y0286250D03*
X0291860Y0128750D03*
X0296860Y0121250D03*
X0286860Y0121250D03*
X0291860Y0103750D03*
X0296860Y0096250D03*
X0286860Y0096250D03*
D95*
X0271860Y0156250D03*
X0246860Y0171250D03*
X0166860Y0156250D03*
X0136860Y0156250D03*
X0166860Y0186250D03*
X0166860Y0216250D03*
X0136860Y0216250D03*
D70*
X0136860Y0226250D03*
X0166860Y0226250D03*
X0166860Y0196250D03*
X0166860Y0166250D03*
X0136860Y0166250D03*
X0246860Y0181250D03*
X0271860Y0166250D03*
D79*
X0221860Y0216250D03*
X0221860Y0226250D03*
X0221860Y0236250D03*
X0221860Y0246250D03*
X0191860Y0246250D03*
X0191860Y0236250D03*
X0191860Y0226250D03*
X0191860Y0216250D03*
D35*
X0216860Y0148750D03*
X0216860Y0103750D03*
X0156860Y0103750D03*
X0156860Y0148750D03*
D29*
X0211860Y0286060D03*
X0230360Y0297870D03*
X0211860Y0309690D03*
D102*
X0260610Y0130000D03*
X0270610Y0130000D03*
X0270610Y0120000D03*
X0260610Y0120000D03*
X0260610Y0110000D03*
X0270610Y0110000D03*
X0270610Y0100000D03*
X0260610Y0100000D03*
X0260610Y0090000D03*
X0270610Y0090000D03*
D24*
X0347480Y0096880D03*
X0347480Y0080940D03*
X0372170Y0080940D03*
X0371860Y0096870D03*
X0397170Y0096870D03*
X0397170Y0080940D03*
X0397170Y0016870D03*
X0371860Y0016870D03*
X0347480Y0016880D03*
X0347480Y0160940D03*
X0347480Y0176880D03*
X0371860Y0176870D03*
X0372170Y0160940D03*
X0397170Y0160940D03*
X0397170Y0176870D03*
X0397170Y0240940D03*
X0372170Y0240940D03*
X0347480Y0240940D03*
X0066230Y0240620D03*
X0041860Y0240630D03*
X0016540Y0240630D03*
X0016540Y0176560D03*
X0016540Y0160630D03*
X0041860Y0160630D03*
X0041540Y0176560D03*
X0066230Y0176560D03*
X0066230Y0160620D03*
X0066230Y0096560D03*
X0041540Y0096560D03*
X0016540Y0096560D03*
D44*
X0110610Y0090000D03*
D86*
X0102430Y0315730D03*
X0135300Y0315730D03*
D69*
X0127620Y0303430D02*
X0127620Y0299060D01*
X0110100Y0299060D02*
X0110100Y0303430D01*
D75*
X0113740Y0304700D03*
X0116300Y0304700D03*
X0118860Y0304700D03*
X0121420Y0304700D03*
X0123980Y0304700D03*
D37*
X0123390Y0315730D03*
X0114340Y0315730D03*
D79*
X0311860Y0133850D02*
X0311860Y0128650D01*
X0311860Y0093850D02*
X0311860Y0088650D01*
D91*
X0221860Y0161250D03*
X0191860Y0161250D03*
X0191860Y0201250D03*
X0221860Y0201250D03*
D26*
X0089360Y0083750D02*
X0076860Y0096250D01*
X0076860Y0150000D01*
X0066230Y0160620D01*
X0096860Y0161250D02*
X0066230Y0191880D01*
X0066230Y0240620D01*
X0084360Y0243750D02*
X0084360Y0258750D01*
X0116860Y0256250D02*
X0116860Y0280000D01*
X0116860Y0286250D02*
X0116300Y0286800D01*
X0116300Y0304700D01*
X0113740Y0304700D02*
X0113740Y0296890D01*
X0106860Y0290000D01*
X0100610Y0290000D01*
X0118860Y0292990D02*
X0125610Y0286250D01*
X0130610Y0287500D02*
X0130610Y0263750D01*
X0125610Y0270000D02*
X0125610Y0256250D01*
X0130610Y0287500D02*
X0121420Y0296680D01*
X0121420Y0304700D01*
X0118860Y0304700D02*
X0118860Y0292990D01*
X0127620Y0303430D02*
X0126340Y0304700D01*
X0123980Y0304700D01*
X0196860Y0294690D02*
X0196860Y0278750D01*
X0203110Y0272500D01*
X0206860Y0266250D02*
X0211860Y0271250D01*
X0206860Y0266250D02*
X0206860Y0236250D01*
X0206860Y0196250D01*
X0211860Y0186250D02*
X0211860Y0221250D01*
X0216860Y0226250D01*
X0221860Y0226250D01*
X0226860Y0241250D02*
X0221860Y0246250D01*
X0221860Y0271250D01*
X0223110Y0272500D01*
X0196860Y0294690D02*
X0211860Y0309690D01*
X0258110Y0312500D02*
X0258110Y0272500D01*
X0290610Y0295000D02*
X0290610Y0231250D01*
X0300610Y0242500D02*
X0300610Y0200000D01*
X0305610Y0175000D02*
X0305610Y0272500D01*
X0311860Y0266250D02*
X0311860Y0151250D01*
X0301860Y0141250D01*
X0291860Y0141250D01*
X0290610Y0140000D01*
X0296860Y0146250D01*
X0296860Y0163750D01*
X0290610Y0170000D01*
X0281860Y0166250D02*
X0271860Y0176250D01*
X0281860Y0166250D02*
X0281860Y0101250D01*
X0270610Y0090000D01*
X0253110Y0103750D02*
X0253110Y0135000D01*
X0246860Y0141250D02*
X0246860Y0171250D01*
X0264360Y0161250D02*
X0264360Y0155000D01*
X0270610Y0148750D01*
X0270610Y0130000D01*
X0291860Y0128750D02*
X0291860Y0111250D01*
X0296860Y0106250D01*
X0296860Y0096250D01*
X0311860Y0131250D02*
X0301860Y0141250D01*
X0300610Y0170000D02*
X0305610Y0175000D01*
X0271860Y0216250D02*
X0266860Y0221250D01*
X0266860Y0231250D01*
X0271860Y0236250D01*
X0226860Y0241250D02*
X0226860Y0191250D01*
X0191860Y0182500D02*
X0191860Y0201250D01*
X0184360Y0201250D02*
X0184360Y0158750D01*
X0191860Y0151250D01*
X0191860Y0141250D01*
X0178110Y0158750D02*
X0178110Y0212500D01*
X0191860Y0226250D01*
X0166860Y0196250D02*
X0166860Y0186250D01*
X0121860Y0161250D02*
X0096860Y0161250D01*
X0191860Y0111250D02*
X0200610Y0102500D01*
X0200610Y0090000D01*
X0216860Y0103750D02*
X0220610Y0100000D01*
X0220610Y0090000D01*
X0240610Y0090000D02*
X0240610Y0107500D01*
X0236860Y0111250D01*
X0231860Y0120000D02*
X0231860Y0151250D01*
X0230610Y0152500D01*
X0250610Y0090000D02*
X0244360Y0083750D01*
X0089360Y0083750D01*
D61*
X0178110Y0158750D03*
X0191860Y0182500D03*
X0206860Y0196250D03*
X0211860Y0186250D03*
X0226860Y0191250D03*
X0264360Y0161250D03*
X0271860Y0176250D03*
X0253110Y0135000D03*
X0231860Y0120000D03*
X0253110Y0103750D03*
X0184360Y0201250D03*
X0206860Y0236250D03*
X0258110Y0272500D03*
X0300610Y0242500D03*
X0290610Y0231250D03*
X0311860Y0266250D03*
X0305610Y0272500D03*
X0130610Y0263750D03*
X0125610Y0270000D03*
X0116860Y0280000D03*
X0084360Y0258750D03*
X0084360Y0243750D03*
X0121860Y0161250D03*
D90*
X0211860Y0271250D03*
X0010000Y0335000D02*
G75*
%LPD*%
D65*
X0047010Y0576720D03*
X0056860Y0576720D03*
X0066700Y0576720D03*
X0147010Y0576720D03*
X0156860Y0576720D03*
X0166700Y0576720D03*
X0247010Y0576720D03*
X0256860Y0576720D03*
X0266700Y0576720D03*
X0347010Y0576720D03*
X0356860Y0576720D03*
X0366700Y0576720D03*
D49*
X0374570Y0606250D03*
X0339140Y0606250D03*
X0274570Y0606250D03*
X0239140Y0606250D03*
X0174570Y0606250D03*
X0139140Y0606250D03*
X0074570Y0606250D03*
X0039140Y0606250D03*
D92*
X0100610Y0605000D03*
X0100610Y0615000D03*
X0100610Y0625000D03*
X0100610Y0595000D03*
X0100610Y0585000D03*
X0100610Y0555000D03*
X0100610Y0545000D03*
X0100610Y0535000D03*
X0100610Y0525000D03*
X0100610Y0515000D03*
X0100610Y0505000D03*
X0100610Y0465000D03*
X0100610Y0455000D03*
X0100610Y0445000D03*
X0110610Y0445000D03*
X0110610Y0435000D03*
X0110610Y0425000D03*
X0100610Y0425000D03*
X0100610Y0415000D03*
X0100610Y0435000D03*
X0160610Y0415000D03*
X0170610Y0415000D03*
X0180610Y0415000D03*
X0190610Y0415000D03*
X0200610Y0415000D03*
X0210610Y0415000D03*
X0220610Y0415000D03*
X0230610Y0415000D03*
X0240610Y0415000D03*
X0250610Y0415000D03*
X0290610Y0465000D03*
X0290610Y0475000D03*
X0290610Y0485000D03*
X0290610Y0495000D03*
X0300610Y0495000D03*
X0223110Y0597500D03*
X0203110Y0597500D03*
X0248110Y0637500D03*
X0258110Y0637500D03*
D74*
X0185610Y0637500D03*
X0185610Y0597500D03*
D38*
X0290610Y0640000D03*
X0300610Y0620000D03*
X0300610Y0505000D03*
X0290610Y0505000D03*
D82*
X0290610Y0515000D03*
X0300610Y0515000D03*
X0300610Y0525000D03*
X0290610Y0525000D03*
X0290610Y0620000D03*
X0290610Y0630000D03*
X0300610Y0630000D03*
X0300610Y0640000D03*
D76*
X0271860Y0561250D03*
X0271860Y0551250D03*
X0271860Y0541250D03*
X0271860Y0531250D03*
X0271860Y0521250D03*
X0241860Y0521250D03*
X0241860Y0531250D03*
X0241860Y0541250D03*
X0241860Y0551250D03*
X0241860Y0561250D03*
X0230610Y0507500D03*
X0230610Y0477500D03*
X0226860Y0466250D03*
X0236860Y0466250D03*
X0246860Y0466250D03*
X0246860Y0436250D03*
X0236860Y0436250D03*
X0226860Y0436250D03*
X0201860Y0441250D03*
X0191860Y0436250D03*
X0181860Y0436250D03*
X0171860Y0436250D03*
X0141860Y0441250D03*
X0131860Y0441250D03*
X0131860Y0461250D03*
X0141860Y0461250D03*
X0171860Y0466250D03*
X0181860Y0466250D03*
X0191860Y0466250D03*
X0201860Y0461250D03*
X0151860Y0506250D03*
X0151860Y0516250D03*
X0151860Y0526250D03*
X0121860Y0526250D03*
X0121860Y0516250D03*
X0121860Y0506250D03*
X0125610Y0581250D03*
X0116860Y0581250D03*
X0116860Y0611250D03*
X0125610Y0611250D03*
X0291860Y0453750D03*
X0296860Y0446250D03*
X0286860Y0446250D03*
X0291860Y0428750D03*
X0296860Y0421250D03*
X0286860Y0421250D03*
D95*
X0271860Y0481250D03*
X0246860Y0496250D03*
X0166860Y0481250D03*
X0136860Y0481250D03*
X0166860Y0511250D03*
X0166860Y0541250D03*
X0136860Y0541250D03*
D70*
X0136860Y0551250D03*
X0166860Y0551250D03*
X0166860Y0521250D03*
X0166860Y0491250D03*
X0136860Y0491250D03*
X0246860Y0506250D03*
X0271860Y0491250D03*
D79*
X0221860Y0541250D03*
X0221860Y0551250D03*
X0221860Y0561250D03*
X0221860Y0571250D03*
X0191860Y0571250D03*
X0191860Y0561250D03*
X0191860Y0551250D03*
X0191860Y0541250D03*
D35*
X0216860Y0473750D03*
X0216860Y0428750D03*
X0156860Y0428750D03*
X0156860Y0473750D03*
D29*
X0211860Y0611060D03*
X0230360Y0622870D03*
X0211860Y0634690D03*
D102*
X0260610Y0455000D03*
X0270610Y0455000D03*
X0270610Y0445000D03*
X0260610Y0445000D03*
X0260610Y0435000D03*
X0270610Y0435000D03*
X0270610Y0425000D03*
X0260610Y0425000D03*
X0260610Y0415000D03*
X0270610Y0415000D03*
D24*
X0347480Y0421880D03*
X0347480Y0405940D03*
X0372170Y0405940D03*
X0371860Y0421870D03*
X0397170Y0421870D03*
X0397170Y0405940D03*
X0397170Y0341870D03*
X0371860Y0341870D03*
X0347480Y0341880D03*
X0347480Y0485940D03*
X0347480Y0501880D03*
X0371860Y0501870D03*
X0372170Y0485940D03*
X0397170Y0485940D03*
X0397170Y0501870D03*
X0397170Y0565940D03*
X0372170Y0565940D03*
X0347480Y0565940D03*
X0066230Y0565620D03*
X0041860Y0565630D03*
X0016540Y0565630D03*
X0016540Y0501560D03*
X0016540Y0485630D03*
X0041860Y0485630D03*
X0041540Y0501560D03*
X0066230Y0501560D03*
X0066230Y0485620D03*
X0066230Y0421560D03*
X0041540Y0421560D03*
X0016540Y0421560D03*
D44*
X0110610Y0415000D03*
D86*
X0102430Y0640730D03*
X0135300Y0640730D03*
D69*
X0127620Y0628430D02*
X0127620Y0624060D01*
X0110100Y0624060D02*
X0110100Y0628430D01*
D75*
X0113740Y0629700D03*
X0116300Y0629700D03*
X0118860Y0629700D03*
X0121420Y0629700D03*
X0123980Y0629700D03*
D37*
X0123390Y0640730D03*
X0114340Y0640730D03*
D79*
X0311860Y0458850D02*
X0311860Y0453650D01*
X0311860Y0418850D02*
X0311860Y0413650D01*
D91*
X0221860Y0486250D03*
X0191860Y0486250D03*
X0191860Y0526250D03*
X0221860Y0526250D03*
D26*
X0089360Y0408750D02*
X0076860Y0421250D01*
X0076860Y0475000D01*
X0066230Y0485620D01*
X0096860Y0486250D02*
X0066230Y0516880D01*
X0066230Y0565620D01*
X0084360Y0568750D02*
X0084360Y0583750D01*
X0116860Y0581250D02*
X0116860Y0605000D01*
X0116860Y0611250D02*
X0116300Y0611800D01*
X0116300Y0629700D01*
X0113740Y0629700D02*
X0113740Y0621890D01*
X0106860Y0615000D01*
X0100610Y0615000D01*
X0118860Y0617990D02*
X0125610Y0611250D01*
X0130610Y0612500D02*
X0130610Y0588750D01*
X0125610Y0595000D02*
X0125610Y0581250D01*
X0130610Y0612500D02*
X0121420Y0621680D01*
X0121420Y0629700D01*
X0118860Y0629700D02*
X0118860Y0617990D01*
X0127620Y0628430D02*
X0126340Y0629700D01*
X0123980Y0629700D01*
X0196860Y0619690D02*
X0196860Y0603750D01*
X0203110Y0597500D01*
X0206860Y0591250D02*
X0211860Y0596250D01*
X0206860Y0591250D02*
X0206860Y0561250D01*
X0206860Y0521250D01*
X0211860Y0511250D02*
X0211860Y0546250D01*
X0216860Y0551250D01*
X0221860Y0551250D01*
X0226860Y0566250D02*
X0221860Y0571250D01*
X0221860Y0596250D01*
X0223110Y0597500D01*
X0196860Y0619690D02*
X0211860Y0634690D01*
X0258110Y0637500D02*
X0258110Y0597500D01*
X0290610Y0620000D02*
X0290610Y0556250D01*
X0300610Y0567500D02*
X0300610Y0525000D01*
X0305610Y0500000D02*
X0305610Y0597500D01*
X0311860Y0591250D02*
X0311860Y0476250D01*
X0301860Y0466250D01*
X0291860Y0466250D01*
X0290610Y0465000D01*
X0296860Y0471250D01*
X0296860Y0488750D01*
X0290610Y0495000D01*
X0281860Y0491250D02*
X0271860Y0501250D01*
X0281860Y0491250D02*
X0281860Y0426250D01*
X0270610Y0415000D01*
X0253110Y0428750D02*
X0253110Y0460000D01*
X0246860Y0466250D02*
X0246860Y0496250D01*
X0264360Y0486250D02*
X0264360Y0480000D01*
X0270610Y0473750D01*
X0270610Y0455000D01*
X0291860Y0453750D02*
X0291860Y0436250D01*
X0296860Y0431250D01*
X0296860Y0421250D01*
X0311860Y0456250D02*
X0301860Y0466250D01*
X0300610Y0495000D02*
X0305610Y0500000D01*
X0271860Y0541250D02*
X0266860Y0546250D01*
X0266860Y0556250D01*
X0271860Y0561250D01*
X0226860Y0566250D02*
X0226860Y0516250D01*
X0191860Y0507500D02*
X0191860Y0526250D01*
X0184360Y0526250D02*
X0184360Y0483750D01*
X0191860Y0476250D01*
X0191860Y0466250D01*
X0178110Y0483750D02*
X0178110Y0537500D01*
X0191860Y0551250D01*
X0166860Y0521250D02*
X0166860Y0511250D01*
X0121860Y0486250D02*
X0096860Y0486250D01*
X0191860Y0436250D02*
X0200610Y0427500D01*
X0200610Y0415000D01*
X0216860Y0428750D02*
X0220610Y0425000D01*
X0220610Y0415000D01*
X0240610Y0415000D02*
X0240610Y0432500D01*
X0236860Y0436250D01*
X0231860Y0445000D02*
X0231860Y0476250D01*
X0230610Y0477500D01*
X0250610Y0415000D02*
X0244360Y0408750D01*
X0089360Y0408750D01*
D61*
X0178110Y0483750D03*
X0191860Y0507500D03*
X0206860Y0521250D03*
X0211860Y0511250D03*
X0226860Y0516250D03*
X0264360Y0486250D03*
X0271860Y0501250D03*
X0253110Y0460000D03*
X0231860Y0445000D03*
X0253110Y0428750D03*
X0184360Y0526250D03*
X0206860Y0561250D03*
X0258110Y0597500D03*
X0300610Y0567500D03*
X0290610Y0556250D03*
X0311860Y0591250D03*
X0305610Y0597500D03*
X0130610Y0588750D03*
X0125610Y0595000D03*
X0116860Y0605000D03*
X0084360Y0583750D03*
X0084360Y0568750D03*
X0121860Y0486250D03*
D90*
X0211860Y0596250D03*
X0010000Y0660000D02*
G75*
%LPD*%
D65*
X0047010Y0901720D03*
X0056860Y0901720D03*
X0066700Y0901720D03*
X0147010Y0901720D03*
X0156860Y0901720D03*
X0166700Y0901720D03*
X0247010Y0901720D03*
X0256860Y0901720D03*
X0266700Y0901720D03*
X0347010Y0901720D03*
X0356860Y0901720D03*
X0366700Y0901720D03*
D49*
X0374570Y0931250D03*
X0339140Y0931250D03*
X0274570Y0931250D03*
X0239140Y0931250D03*
X0174570Y0931250D03*
X0139140Y0931250D03*
X0074570Y0931250D03*
X0039140Y0931250D03*
D92*
X0100610Y0930000D03*
X0100610Y0940000D03*
X0100610Y0950000D03*
X0100610Y0920000D03*
X0100610Y0910000D03*
X0100610Y0880000D03*
X0100610Y0870000D03*
X0100610Y0860000D03*
X0100610Y0850000D03*
X0100610Y0840000D03*
X0100610Y0830000D03*
X0100610Y0790000D03*
X0100610Y0780000D03*
X0100610Y0770000D03*
X0110610Y0770000D03*
X0110610Y0760000D03*
X0110610Y0750000D03*
X0100610Y0750000D03*
X0100610Y0740000D03*
X0100610Y0760000D03*
X0160610Y0740000D03*
X0170610Y0740000D03*
X0180610Y0740000D03*
X0190610Y0740000D03*
X0200610Y0740000D03*
X0210610Y0740000D03*
X0220610Y0740000D03*
X0230610Y0740000D03*
X0240610Y0740000D03*
X0250610Y0740000D03*
X0290610Y0790000D03*
X0290610Y0800000D03*
X0290610Y0810000D03*
X0290610Y0820000D03*
X0300610Y0820000D03*
X0223110Y0922500D03*
X0203110Y0922500D03*
X0248110Y0962500D03*
X0258110Y0962500D03*
D74*
X0185610Y0962500D03*
X0185610Y0922500D03*
D38*
X0290610Y0965000D03*
X0300610Y0945000D03*
X0300610Y0830000D03*
X0290610Y0830000D03*
D82*
X0290610Y0840000D03*
X0300610Y0840000D03*
X0300610Y0850000D03*
X0290610Y0850000D03*
X0290610Y0945000D03*
X0290610Y0955000D03*
X0300610Y0955000D03*
X0300610Y0965000D03*
D76*
X0271860Y0886250D03*
X0271860Y0876250D03*
X0271860Y0866250D03*
X0271860Y0856250D03*
X0271860Y0846250D03*
X0241860Y0846250D03*
X0241860Y0856250D03*
X0241860Y0866250D03*
X0241860Y0876250D03*
X0241860Y0886250D03*
X0230610Y0832500D03*
X0230610Y0802500D03*
X0226860Y0791250D03*
X0236860Y0791250D03*
X0246860Y0791250D03*
X0246860Y0761250D03*
X0236860Y0761250D03*
X0226860Y0761250D03*
X0201860Y0766250D03*
X0191860Y0761250D03*
X0181860Y0761250D03*
X0171860Y0761250D03*
X0141860Y0766250D03*
X0131860Y0766250D03*
X0131860Y0786250D03*
X0141860Y0786250D03*
X0171860Y0791250D03*
X0181860Y0791250D03*
X0191860Y0791250D03*
X0201860Y0786250D03*
X0151860Y0831250D03*
X0151860Y0841250D03*
X0151860Y0851250D03*
X0121860Y0851250D03*
X0121860Y0841250D03*
X0121860Y0831250D03*
X0125610Y0906250D03*
X0116860Y0906250D03*
X0116860Y0936250D03*
X0125610Y0936250D03*
X0291860Y0778750D03*
X0296860Y0771250D03*
X0286860Y0771250D03*
X0291860Y0753750D03*
X0296860Y0746250D03*
X0286860Y0746250D03*
D95*
X0271860Y0806250D03*
X0246860Y0821250D03*
X0166860Y0806250D03*
X0136860Y0806250D03*
X0166860Y0836250D03*
X0166860Y0866250D03*
X0136860Y0866250D03*
D70*
X0136860Y0876250D03*
X0166860Y0876250D03*
X0166860Y0846250D03*
X0166860Y0816250D03*
X0136860Y0816250D03*
X0246860Y0831250D03*
X0271860Y0816250D03*
D79*
X0221860Y0866250D03*
X0221860Y0876250D03*
X0221860Y0886250D03*
X0221860Y0896250D03*
X0191860Y0896250D03*
X0191860Y0886250D03*
X0191860Y0876250D03*
X0191860Y0866250D03*
D35*
X0216860Y0798750D03*
X0216860Y0753750D03*
X0156860Y0753750D03*
X0156860Y0798750D03*
D29*
X0211860Y0936060D03*
X0230360Y0947870D03*
X0211860Y0959690D03*
D102*
X0260610Y0780000D03*
X0270610Y0780000D03*
X0270610Y0770000D03*
X0260610Y0770000D03*
X0260610Y0760000D03*
X0270610Y0760000D03*
X0270610Y0750000D03*
X0260610Y0750000D03*
X0260610Y0740000D03*
X0270610Y0740000D03*
D24*
X0347480Y0746880D03*
X0347480Y0730940D03*
X0372170Y0730940D03*
X0371860Y0746870D03*
X0397170Y0746870D03*
X0397170Y0730940D03*
X0397170Y0666870D03*
X0371860Y0666870D03*
X0347480Y0666880D03*
X0347480Y0810940D03*
X0347480Y0826880D03*
X0371860Y0826870D03*
X0372170Y0810940D03*
X0397170Y0810940D03*
X0397170Y0826870D03*
X0397170Y0890940D03*
X0372170Y0890940D03*
X0347480Y0890940D03*
X0066230Y0890620D03*
X0041860Y0890630D03*
X0016540Y0890630D03*
X0016540Y0826560D03*
X0016540Y0810630D03*
X0041860Y0810630D03*
X0041540Y0826560D03*
X0066230Y0826560D03*
X0066230Y0810620D03*
X0066230Y0746560D03*
X0041540Y0746560D03*
X0016540Y0746560D03*
D44*
X0110610Y0740000D03*
D86*
X0102430Y0965730D03*
X0135300Y0965730D03*
D69*
X0127620Y0953430D02*
X0127620Y0949060D01*
X0110100Y0949060D02*
X0110100Y0953430D01*
D75*
X0113740Y0954700D03*
X0116300Y0954700D03*
X0118860Y0954700D03*
X0121420Y0954700D03*
X0123980Y0954700D03*
D37*
X0123390Y0965730D03*
X0114340Y0965730D03*
D79*
X0311860Y0783850D02*
X0311860Y0778650D01*
X0311860Y0743850D02*
X0311860Y0738650D01*
D91*
X0221860Y0811250D03*
X0191860Y0811250D03*
X0191860Y0851250D03*
X0221860Y0851250D03*
D26*
X0089360Y0733750D02*
X0076860Y0746250D01*
X0076860Y0800000D01*
X0066230Y0810620D01*
X0096860Y0811250D02*
X0066230Y0841880D01*
X0066230Y0890620D01*
X0084360Y0893750D02*
X0084360Y0908750D01*
X0116860Y0906250D02*
X0116860Y0930000D01*
X0116860Y0936250D02*
X0116300Y0936800D01*
X0116300Y0954700D01*
X0113740Y0954700D02*
X0113740Y0946890D01*
X0106860Y0940000D01*
X0100610Y0940000D01*
X0118860Y0942990D02*
X0125610Y0936250D01*
X0130610Y0937500D02*
X0130610Y0913750D01*
X0125610Y0920000D02*
X0125610Y0906250D01*
X0130610Y0937500D02*
X0121420Y0946680D01*
X0121420Y0954700D01*
X0118860Y0954700D02*
X0118860Y0942990D01*
X0127620Y0953430D02*
X0126340Y0954700D01*
X0123980Y0954700D01*
X0196860Y0944690D02*
X0196860Y0928750D01*
X0203110Y0922500D01*
X0206860Y0916250D02*
X0211860Y0921250D01*
X0206860Y0916250D02*
X0206860Y0886250D01*
X0206860Y0846250D01*
X0211860Y0836250D02*
X0211860Y0871250D01*
X0216860Y0876250D01*
X0221860Y0876250D01*
X0226860Y0891250D02*
X0221860Y0896250D01*
X0221860Y0921250D01*
X0223110Y0922500D01*
X0196860Y0944690D02*
X0211860Y0959690D01*
X0258110Y0962500D02*
X0258110Y0922500D01*
X0290610Y0945000D02*
X0290610Y0881250D01*
X0300610Y0892500D02*
X0300610Y0850000D01*
X0305610Y0825000D02*
X0305610Y0922500D01*
X0311860Y0916250D02*
X0311860Y0801250D01*
X0301860Y0791250D01*
X0291860Y0791250D01*
X0290610Y0790000D01*
X0296860Y0796250D01*
X0296860Y0813750D01*
X0290610Y0820000D01*
X0281860Y0816250D02*
X0271860Y0826250D01*
X0281860Y0816250D02*
X0281860Y0751250D01*
X0270610Y0740000D01*
X0253110Y0753750D02*
X0253110Y0785000D01*
X0246860Y0791250D02*
X0246860Y0821250D01*
X0264360Y0811250D02*
X0264360Y0805000D01*
X0270610Y0798750D01*
X0270610Y0780000D01*
X0291860Y0778750D02*
X0291860Y0761250D01*
X0296860Y0756250D01*
X0296860Y0746250D01*
X0311860Y0781250D02*
X0301860Y0791250D01*
X0300610Y0820000D02*
X0305610Y0825000D01*
X0271860Y0866250D02*
X0266860Y0871250D01*
X0266860Y0881250D01*
X0271860Y0886250D01*
X0226860Y0891250D02*
X0226860Y0841250D01*
X0191860Y0832500D02*
X0191860Y0851250D01*
X0184360Y0851250D02*
X0184360Y0808750D01*
X0191860Y0801250D01*
X0191860Y0791250D01*
X0178110Y0808750D02*
X0178110Y0862500D01*
X0191860Y0876250D01*
X0166860Y0846250D02*
X0166860Y0836250D01*
X0121860Y0811250D02*
X0096860Y0811250D01*
X0191860Y0761250D02*
X0200610Y0752500D01*
X0200610Y0740000D01*
X0216860Y0753750D02*
X0220610Y0750000D01*
X0220610Y0740000D01*
X0240610Y0740000D02*
X0240610Y0757500D01*
X0236860Y0761250D01*
X0231860Y0770000D02*
X0231860Y0801250D01*
X0230610Y0802500D01*
X0250610Y0740000D02*
X0244360Y0733750D01*
X0089360Y0733750D01*
D61*
X0178110Y0808750D03*
X0191860Y0832500D03*
X0206860Y0846250D03*
X0211860Y0836250D03*
X0226860Y0841250D03*
X0264360Y0811250D03*
X0271860Y0826250D03*
X0253110Y0785000D03*
X0231860Y0770000D03*
X0253110Y0753750D03*
X0184360Y0851250D03*
X0206860Y0886250D03*
X0258110Y0922500D03*
X0300610Y0892500D03*
X0290610Y0881250D03*
X0311860Y0916250D03*
X0305610Y0922500D03*
X0130610Y0913750D03*
X0125610Y0920000D03*
X0116860Y0930000D03*
X0084360Y0908750D03*
X0084360Y0893750D03*
X0121860Y0811250D03*
D90*
X0211860Y0921250D03*
X0415000Y0010000D02*
G75*
%LPD*%
D65*
X0452010Y0251720D03*
X0461860Y0251720D03*
X0471700Y0251720D03*
X0552010Y0251720D03*
X0561860Y0251720D03*
X0571700Y0251720D03*
X0652010Y0251720D03*
X0661860Y0251720D03*
X0671700Y0251720D03*
X0752010Y0251720D03*
X0761860Y0251720D03*
X0771700Y0251720D03*
D49*
X0779570Y0281250D03*
X0744140Y0281250D03*
X0679570Y0281250D03*
X0644140Y0281250D03*
X0579570Y0281250D03*
X0544140Y0281250D03*
X0479570Y0281250D03*
X0444140Y0281250D03*
D92*
X0505610Y0280000D03*
X0505610Y0290000D03*
X0505610Y0300000D03*
X0505610Y0270000D03*
X0505610Y0260000D03*
X0505610Y0230000D03*
X0505610Y0220000D03*
X0505610Y0210000D03*
X0505610Y0200000D03*
X0505610Y0190000D03*
X0505610Y0180000D03*
X0505610Y0140000D03*
X0505610Y0130000D03*
X0505610Y0120000D03*
X0515610Y0120000D03*
X0515610Y0110000D03*
X0515610Y0100000D03*
X0505610Y0100000D03*
X0505610Y0090000D03*
X0505610Y0110000D03*
X0565610Y0090000D03*
X0575610Y0090000D03*
X0585610Y0090000D03*
X0595610Y0090000D03*
X0605610Y0090000D03*
X0615610Y0090000D03*
X0625610Y0090000D03*
X0635610Y0090000D03*
X0645610Y0090000D03*
X0655610Y0090000D03*
X0695610Y0140000D03*
X0695610Y0150000D03*
X0695610Y0160000D03*
X0695610Y0170000D03*
X0705610Y0170000D03*
X0628110Y0272500D03*
X0608110Y0272500D03*
X0653110Y0312500D03*
X0663110Y0312500D03*
D74*
X0590610Y0312500D03*
X0590610Y0272500D03*
D38*
X0695610Y0315000D03*
X0705610Y0295000D03*
X0705610Y0180000D03*
X0695610Y0180000D03*
D82*
X0695610Y0190000D03*
X0705610Y0190000D03*
X0705610Y0200000D03*
X0695610Y0200000D03*
X0695610Y0295000D03*
X0695610Y0305000D03*
X0705610Y0305000D03*
X0705610Y0315000D03*
D76*
X0676860Y0236250D03*
X0676860Y0226250D03*
X0676860Y0216250D03*
X0676860Y0206250D03*
X0676860Y0196250D03*
X0646860Y0196250D03*
X0646860Y0206250D03*
X0646860Y0216250D03*
X0646860Y0226250D03*
X0646860Y0236250D03*
X0635610Y0182500D03*
X0635610Y0152500D03*
X0631860Y0141250D03*
X0641860Y0141250D03*
X0651860Y0141250D03*
X0651860Y0111250D03*
X0641860Y0111250D03*
X0631860Y0111250D03*
X0606860Y0116250D03*
X0596860Y0111250D03*
X0586860Y0111250D03*
X0576860Y0111250D03*
X0546860Y0116250D03*
X0536860Y0116250D03*
X0536860Y0136250D03*
X0546860Y0136250D03*
X0576860Y0141250D03*
X0586860Y0141250D03*
X0596860Y0141250D03*
X0606860Y0136250D03*
X0556860Y0181250D03*
X0556860Y0191250D03*
X0556860Y0201250D03*
X0526860Y0201250D03*
X0526860Y0191250D03*
X0526860Y0181250D03*
X0530610Y0256250D03*
X0521860Y0256250D03*
X0521860Y0286250D03*
X0530610Y0286250D03*
X0696860Y0128750D03*
X0701860Y0121250D03*
X0691860Y0121250D03*
X0696860Y0103750D03*
X0701860Y0096250D03*
X0691860Y0096250D03*
D95*
X0676860Y0156250D03*
X0651860Y0171250D03*
X0571860Y0156250D03*
X0541860Y0156250D03*
X0571860Y0186250D03*
X0571860Y0216250D03*
X0541860Y0216250D03*
D70*
X0541860Y0226250D03*
X0571860Y0226250D03*
X0571860Y0196250D03*
X0571860Y0166250D03*
X0541860Y0166250D03*
X0651860Y0181250D03*
X0676860Y0166250D03*
D79*
X0626860Y0216250D03*
X0626860Y0226250D03*
X0626860Y0236250D03*
X0626860Y0246250D03*
X0596860Y0246250D03*
X0596860Y0236250D03*
X0596860Y0226250D03*
X0596860Y0216250D03*
D35*
X0621860Y0148750D03*
X0621860Y0103750D03*
X0561860Y0103750D03*
X0561860Y0148750D03*
D29*
X0616860Y0286060D03*
X0635360Y0297870D03*
X0616860Y0309690D03*
D102*
X0665610Y0130000D03*
X0675610Y0130000D03*
X0675610Y0120000D03*
X0665610Y0120000D03*
X0665610Y0110000D03*
X0675610Y0110000D03*
X0675610Y0100000D03*
X0665610Y0100000D03*
X0665610Y0090000D03*
X0675610Y0090000D03*
D24*
X0752480Y0096880D03*
X0752480Y0080940D03*
X0777170Y0080940D03*
X0776860Y0096870D03*
X0802170Y0096870D03*
X0802170Y0080940D03*
X0802170Y0016870D03*
X0776860Y0016870D03*
X0752480Y0016880D03*
X0752480Y0160940D03*
X0752480Y0176880D03*
X0776860Y0176870D03*
X0777170Y0160940D03*
X0802170Y0160940D03*
X0802170Y0176870D03*
X0802170Y0240940D03*
X0777170Y0240940D03*
X0752480Y0240940D03*
X0471230Y0240620D03*
X0446860Y0240630D03*
X0421540Y0240630D03*
X0421540Y0176560D03*
X0421540Y0160630D03*
X0446860Y0160630D03*
X0446540Y0176560D03*
X0471230Y0176560D03*
X0471230Y0160620D03*
X0471230Y0096560D03*
X0446540Y0096560D03*
X0421540Y0096560D03*
D44*
X0515610Y0090000D03*
D86*
X0507430Y0315730D03*
X0540300Y0315730D03*
D69*
X0532620Y0303430D02*
X0532620Y0299060D01*
X0515100Y0299060D02*
X0515100Y0303430D01*
D75*
X0518740Y0304700D03*
X0521300Y0304700D03*
X0523860Y0304700D03*
X0526420Y0304700D03*
X0528980Y0304700D03*
D37*
X0528390Y0315730D03*
X0519340Y0315730D03*
D79*
X0716860Y0133850D02*
X0716860Y0128650D01*
X0716860Y0093850D02*
X0716860Y0088650D01*
D91*
X0626860Y0161250D03*
X0596860Y0161250D03*
X0596860Y0201250D03*
X0626860Y0201250D03*
D26*
X0494360Y0083750D02*
X0481860Y0096250D01*
X0481860Y0150000D01*
X0471230Y0160620D01*
X0501860Y0161250D02*
X0471230Y0191880D01*
X0471230Y0240620D01*
X0489360Y0243750D02*
X0489360Y0258750D01*
X0521860Y0256250D02*
X0521860Y0280000D01*
X0521860Y0286250D02*
X0521300Y0286800D01*
X0521300Y0304700D01*
X0518740Y0304700D02*
X0518740Y0296890D01*
X0511860Y0290000D01*
X0505610Y0290000D01*
X0523860Y0292990D02*
X0530610Y0286250D01*
X0535610Y0287500D02*
X0535610Y0263750D01*
X0530610Y0270000D02*
X0530610Y0256250D01*
X0535610Y0287500D02*
X0526420Y0296680D01*
X0526420Y0304700D01*
X0523860Y0304700D02*
X0523860Y0292990D01*
X0532620Y0303430D02*
X0531340Y0304700D01*
X0528980Y0304700D01*
X0601860Y0294690D02*
X0601860Y0278750D01*
X0608110Y0272500D01*
X0611860Y0266250D02*
X0616860Y0271250D01*
X0611860Y0266250D02*
X0611860Y0236250D01*
X0611860Y0196250D01*
X0616860Y0186250D02*
X0616860Y0221250D01*
X0621860Y0226250D01*
X0626860Y0226250D01*
X0631860Y0241250D02*
X0626860Y0246250D01*
X0626860Y0271250D01*
X0628110Y0272500D01*
X0601860Y0294690D02*
X0616860Y0309690D01*
X0663110Y0312500D02*
X0663110Y0272500D01*
X0695610Y0295000D02*
X0695610Y0231250D01*
X0705610Y0242500D02*
X0705610Y0200000D01*
X0710610Y0175000D02*
X0710610Y0272500D01*
X0716860Y0266250D02*
X0716860Y0151250D01*
X0706860Y0141250D01*
X0696860Y0141250D01*
X0695610Y0140000D01*
X0701860Y0146250D01*
X0701860Y0163750D01*
X0695610Y0170000D01*
X0686860Y0166250D02*
X0676860Y0176250D01*
X0686860Y0166250D02*
X0686860Y0101250D01*
X0675610Y0090000D01*
X0658110Y0103750D02*
X0658110Y0135000D01*
X0651860Y0141250D02*
X0651860Y0171250D01*
X0669360Y0161250D02*
X0669360Y0155000D01*
X0675610Y0148750D01*
X0675610Y0130000D01*
X0696860Y0128750D02*
X0696860Y0111250D01*
X0701860Y0106250D01*
X0701860Y0096250D01*
X0716860Y0131250D02*
X0706860Y0141250D01*
X0705610Y0170000D02*
X0710610Y0175000D01*
X0676860Y0216250D02*
X0671860Y0221250D01*
X0671860Y0231250D01*
X0676860Y0236250D01*
X0631860Y0241250D02*
X0631860Y0191250D01*
X0596860Y0182500D02*
X0596860Y0201250D01*
X0589360Y0201250D02*
X0589360Y0158750D01*
X0596860Y0151250D01*
X0596860Y0141250D01*
X0583110Y0158750D02*
X0583110Y0212500D01*
X0596860Y0226250D01*
X0571860Y0196250D02*
X0571860Y0186250D01*
X0526860Y0161250D02*
X0501860Y0161250D01*
X0596860Y0111250D02*
X0605610Y0102500D01*
X0605610Y0090000D01*
X0621860Y0103750D02*
X0625610Y0100000D01*
X0625610Y0090000D01*
X0645610Y0090000D02*
X0645610Y0107500D01*
X0641860Y0111250D01*
X0636860Y0120000D02*
X0636860Y0151250D01*
X0635610Y0152500D01*
X0655610Y0090000D02*
X0649360Y0083750D01*
X0494360Y0083750D01*
D61*
X0583110Y0158750D03*
X0596860Y0182500D03*
X0611860Y0196250D03*
X0616860Y0186250D03*
X0631860Y0191250D03*
X0669360Y0161250D03*
X0676860Y0176250D03*
X0658110Y0135000D03*
X0636860Y0120000D03*
X0658110Y0103750D03*
X0589360Y0201250D03*
X0611860Y0236250D03*
X0663110Y0272500D03*
X0705610Y0242500D03*
X0695610Y0231250D03*
X0716860Y0266250D03*
X0710610Y0272500D03*
X0535610Y0263750D03*
X0530610Y0270000D03*
X0521860Y0280000D03*
X0489360Y0258750D03*
X0489360Y0243750D03*
X0526860Y0161250D03*
D90*
X0616860Y0271250D03*
X0415000Y0335000D02*
G75*
%LPD*%
D65*
X0452010Y0576720D03*
X0461860Y0576720D03*
X0471700Y0576720D03*
X0552010Y0576720D03*
X0561860Y0576720D03*
X0571700Y0576720D03*
X0652010Y0576720D03*
X0661860Y0576720D03*
X0671700Y0576720D03*
X0752010Y0576720D03*
X0761860Y0576720D03*
X0771700Y0576720D03*
D49*
X0779570Y0606250D03*
X0744140Y0606250D03*
X0679570Y0606250D03*
X0644140Y0606250D03*
X0579570Y0606250D03*
X0544140Y0606250D03*
X0479570Y0606250D03*
X0444140Y0606250D03*
D92*
X0505610Y0605000D03*
X0505610Y0615000D03*
X0505610Y0625000D03*
X0505610Y0595000D03*
X0505610Y0585000D03*
X0505610Y0555000D03*
X0505610Y0545000D03*
X0505610Y0535000D03*
X0505610Y0525000D03*
X0505610Y0515000D03*
X0505610Y0505000D03*
X0505610Y0465000D03*
X0505610Y0455000D03*
X0505610Y0445000D03*
X0515610Y0445000D03*
X0515610Y0435000D03*
X0515610Y0425000D03*
X0505610Y0425000D03*
X0505610Y0415000D03*
X0505610Y0435000D03*
X0565610Y0415000D03*
X0575610Y0415000D03*
X0585610Y0415000D03*
X0595610Y0415000D03*
X0605610Y0415000D03*
X0615610Y0415000D03*
X0625610Y0415000D03*
X0635610Y0415000D03*
X0645610Y0415000D03*
X0655610Y0415000D03*
X0695610Y0465000D03*
X0695610Y0475000D03*
X0695610Y0485000D03*
X0695610Y0495000D03*
X0705610Y0495000D03*
X0628110Y0597500D03*
X0608110Y0597500D03*
X0653110Y0637500D03*
X0663110Y0637500D03*
D74*
X0590610Y0637500D03*
X0590610Y0597500D03*
D38*
X0695610Y0640000D03*
X0705610Y0620000D03*
X0705610Y0505000D03*
X0695610Y0505000D03*
D82*
X0695610Y0515000D03*
X0705610Y0515000D03*
X0705610Y0525000D03*
X0695610Y0525000D03*
X0695610Y0620000D03*
X0695610Y0630000D03*
X0705610Y0630000D03*
X0705610Y0640000D03*
D76*
X0676860Y0561250D03*
X0676860Y0551250D03*
X0676860Y0541250D03*
X0676860Y0531250D03*
X0676860Y0521250D03*
X0646860Y0521250D03*
X0646860Y0531250D03*
X0646860Y0541250D03*
X0646860Y0551250D03*
X0646860Y0561250D03*
X0635610Y0507500D03*
X0635610Y0477500D03*
X0631860Y0466250D03*
X0641860Y0466250D03*
X0651860Y0466250D03*
X0651860Y0436250D03*
X0641860Y0436250D03*
X0631860Y0436250D03*
X0606860Y0441250D03*
X0596860Y0436250D03*
X0586860Y0436250D03*
X0576860Y0436250D03*
X0546860Y0441250D03*
X0536860Y0441250D03*
X0536860Y0461250D03*
X0546860Y0461250D03*
X0576860Y0466250D03*
X0586860Y0466250D03*
X0596860Y0466250D03*
X0606860Y0461250D03*
X0556860Y0506250D03*
X0556860Y0516250D03*
X0556860Y0526250D03*
X0526860Y0526250D03*
X0526860Y0516250D03*
X0526860Y0506250D03*
X0530610Y0581250D03*
X0521860Y0581250D03*
X0521860Y0611250D03*
X0530610Y0611250D03*
X0696860Y0453750D03*
X0701860Y0446250D03*
X0691860Y0446250D03*
X0696860Y0428750D03*
X0701860Y0421250D03*
X0691860Y0421250D03*
D95*
X0676860Y0481250D03*
X0651860Y0496250D03*
X0571860Y0481250D03*
X0541860Y0481250D03*
X0571860Y0511250D03*
X0571860Y0541250D03*
X0541860Y0541250D03*
D70*
X0541860Y0551250D03*
X0571860Y0551250D03*
X0571860Y0521250D03*
X0571860Y0491250D03*
X0541860Y0491250D03*
X0651860Y0506250D03*
X0676860Y0491250D03*
D79*
X0626860Y0541250D03*
X0626860Y0551250D03*
X0626860Y0561250D03*
X0626860Y0571250D03*
X0596860Y0571250D03*
X0596860Y0561250D03*
X0596860Y0551250D03*
X0596860Y0541250D03*
D35*
X0621860Y0473750D03*
X0621860Y0428750D03*
X0561860Y0428750D03*
X0561860Y0473750D03*
D29*
X0616860Y0611060D03*
X0635360Y0622870D03*
X0616860Y0634690D03*
D102*
X0665610Y0455000D03*
X0675610Y0455000D03*
X0675610Y0445000D03*
X0665610Y0445000D03*
X0665610Y0435000D03*
X0675610Y0435000D03*
X0675610Y0425000D03*
X0665610Y0425000D03*
X0665610Y0415000D03*
X0675610Y0415000D03*
D24*
X0752480Y0421880D03*
X0752480Y0405940D03*
X0777170Y0405940D03*
X0776860Y0421870D03*
X0802170Y0421870D03*
X0802170Y0405940D03*
X0802170Y0341870D03*
X0776860Y0341870D03*
X0752480Y0341880D03*
X0752480Y0485940D03*
X0752480Y0501880D03*
X0776860Y0501870D03*
X0777170Y0485940D03*
X0802170Y0485940D03*
X0802170Y0501870D03*
X0802170Y0565940D03*
X0777170Y0565940D03*
X0752480Y0565940D03*
X0471230Y0565620D03*
X0446860Y0565630D03*
X0421540Y0565630D03*
X0421540Y0501560D03*
X0421540Y0485630D03*
X0446860Y0485630D03*
X0446540Y0501560D03*
X0471230Y0501560D03*
X0471230Y0485620D03*
X0471230Y0421560D03*
X0446540Y0421560D03*
X0421540Y0421560D03*
D44*
X0515610Y0415000D03*
D86*
X0507430Y0640730D03*
X0540300Y0640730D03*
D69*
X0532620Y0628430D02*
X0532620Y0624060D01*
X0515100Y0624060D02*
X0515100Y0628430D01*
D75*
X0518740Y0629700D03*
X0521300Y0629700D03*
X0523860Y0629700D03*
X0526420Y0629700D03*
X0528980Y0629700D03*
D37*
X0528390Y0640730D03*
X0519340Y0640730D03*
D79*
X0716860Y0458850D02*
X0716860Y0453650D01*
X0716860Y0418850D02*
X0716860Y0413650D01*
D91*
X0626860Y0486250D03*
X0596860Y0486250D03*
X0596860Y0526250D03*
X0626860Y0526250D03*
D26*
X0494360Y0408750D02*
X0481860Y0421250D01*
X0481860Y0475000D01*
X0471230Y0485620D01*
X0501860Y0486250D02*
X0471230Y0516880D01*
X0471230Y0565620D01*
X0489360Y0568750D02*
X0489360Y0583750D01*
X0521860Y0581250D02*
X0521860Y0605000D01*
X0521860Y0611250D02*
X0521300Y0611800D01*
X0521300Y0629700D01*
X0518740Y0629700D02*
X0518740Y0621890D01*
X0511860Y0615000D01*
X0505610Y0615000D01*
X0523860Y0617990D02*
X0530610Y0611250D01*
X0535610Y0612500D02*
X0535610Y0588750D01*
X0530610Y0595000D02*
X0530610Y0581250D01*
X0535610Y0612500D02*
X0526420Y0621680D01*
X0526420Y0629700D01*
X0523860Y0629700D02*
X0523860Y0617990D01*
X0532620Y0628430D02*
X0531340Y0629700D01*
X0528980Y0629700D01*
X0601860Y0619690D02*
X0601860Y0603750D01*
X0608110Y0597500D01*
X0611860Y0591250D02*
X0616860Y0596250D01*
X0611860Y0591250D02*
X0611860Y0561250D01*
X0611860Y0521250D01*
X0616860Y0511250D02*
X0616860Y0546250D01*
X0621860Y0551250D01*
X0626860Y0551250D01*
X0631860Y0566250D02*
X0626860Y0571250D01*
X0626860Y0596250D01*
X0628110Y0597500D01*
X0601860Y0619690D02*
X0616860Y0634690D01*
X0663110Y0637500D02*
X0663110Y0597500D01*
X0695610Y0620000D02*
X0695610Y0556250D01*
X0705610Y0567500D02*
X0705610Y0525000D01*
X0710610Y0500000D02*
X0710610Y0597500D01*
X0716860Y0591250D02*
X0716860Y0476250D01*
X0706860Y0466250D01*
X0696860Y0466250D01*
X0695610Y0465000D01*
X0701860Y0471250D01*
X0701860Y0488750D01*
X0695610Y0495000D01*
X0686860Y0491250D02*
X0676860Y0501250D01*
X0686860Y0491250D02*
X0686860Y0426250D01*
X0675610Y0415000D01*
X0658110Y0428750D02*
X0658110Y0460000D01*
X0651860Y0466250D02*
X0651860Y0496250D01*
X0669360Y0486250D02*
X0669360Y0480000D01*
X0675610Y0473750D01*
X0675610Y0455000D01*
X0696860Y0453750D02*
X0696860Y0436250D01*
X0701860Y0431250D01*
X0701860Y0421250D01*
X0716860Y0456250D02*
X0706860Y0466250D01*
X0705610Y0495000D02*
X0710610Y0500000D01*
X0676860Y0541250D02*
X0671860Y0546250D01*
X0671860Y0556250D01*
X0676860Y0561250D01*
X0631860Y0566250D02*
X0631860Y0516250D01*
X0596860Y0507500D02*
X0596860Y0526250D01*
X0589360Y0526250D02*
X0589360Y0483750D01*
X0596860Y0476250D01*
X0596860Y0466250D01*
X0583110Y0483750D02*
X0583110Y0537500D01*
X0596860Y0551250D01*
X0571860Y0521250D02*
X0571860Y0511250D01*
X0526860Y0486250D02*
X0501860Y0486250D01*
X0596860Y0436250D02*
X0605610Y0427500D01*
X0605610Y0415000D01*
X0621860Y0428750D02*
X0625610Y0425000D01*
X0625610Y0415000D01*
X0645610Y0415000D02*
X0645610Y0432500D01*
X0641860Y0436250D01*
X0636860Y0445000D02*
X0636860Y0476250D01*
X0635610Y0477500D01*
X0655610Y0415000D02*
X0649360Y0408750D01*
X0494360Y0408750D01*
D61*
X0583110Y0483750D03*
X0596860Y0507500D03*
X0611860Y0521250D03*
X0616860Y0511250D03*
X0631860Y0516250D03*
X0669360Y0486250D03*
X0676860Y0501250D03*
X0658110Y0460000D03*
X0636860Y0445000D03*
X0658110Y0428750D03*
X0589360Y0526250D03*
X0611860Y0561250D03*
X0663110Y0597500D03*
X0705610Y0567500D03*
X0695610Y0556250D03*
X0716860Y0591250D03*
X0710610Y0597500D03*
X0535610Y0588750D03*
X0530610Y0595000D03*
X0521860Y0605000D03*
X0489360Y0583750D03*
X0489360Y0568750D03*
X0526860Y0486250D03*
D90*
X0616860Y0596250D03*
X0415000Y0660000D02*
G75*
%LPD*%
D65*
X0452010Y0901720D03*
X0461860Y0901720D03*
X0471700Y0901720D03*
X0552010Y0901720D03*
X0561860Y0901720D03*
X0571700Y0901720D03*
X0652010Y0901720D03*
X0661860Y0901720D03*
X0671700Y0901720D03*
X0752010Y0901720D03*
X0761860Y0901720D03*
X0771700Y0901720D03*
D49*
X0779570Y0931250D03*
X0744140Y0931250D03*
X0679570Y0931250D03*
X0644140Y0931250D03*
X0579570Y0931250D03*
X0544140Y0931250D03*
X0479570Y0931250D03*
X0444140Y0931250D03*
D92*
X0505610Y0930000D03*
X0505610Y0940000D03*
X0505610Y0950000D03*
X0505610Y0920000D03*
X0505610Y0910000D03*
X0505610Y0880000D03*
X0505610Y0870000D03*
X0505610Y0860000D03*
X0505610Y0850000D03*
X0505610Y0840000D03*
X0505610Y0830000D03*
X0505610Y0790000D03*
X0505610Y0780000D03*
X0505610Y0770000D03*
X0515610Y0770000D03*
X0515610Y0760000D03*
X0515610Y0750000D03*
X0505610Y0750000D03*
X0505610Y0740000D03*
X0505610Y0760000D03*
X0565610Y0740000D03*
X0575610Y0740000D03*
X0585610Y0740000D03*
X0595610Y0740000D03*
X0605610Y0740000D03*
X0615610Y0740000D03*
X0625610Y0740000D03*
X0635610Y0740000D03*
X0645610Y0740000D03*
X0655610Y0740000D03*
X0695610Y0790000D03*
X0695610Y0800000D03*
X0695610Y0810000D03*
X0695610Y0820000D03*
X0705610Y0820000D03*
X0628110Y0922500D03*
X0608110Y0922500D03*
X0653110Y0962500D03*
X0663110Y0962500D03*
D74*
X0590610Y0962500D03*
X0590610Y0922500D03*
D38*
X0695610Y0965000D03*
X0705610Y0945000D03*
X0705610Y0830000D03*
X0695610Y0830000D03*
D82*
X0695610Y0840000D03*
X0705610Y0840000D03*
X0705610Y0850000D03*
X0695610Y0850000D03*
X0695610Y0945000D03*
X0695610Y0955000D03*
X0705610Y0955000D03*
X0705610Y0965000D03*
D76*
X0676860Y0886250D03*
X0676860Y0876250D03*
X0676860Y0866250D03*
X0676860Y0856250D03*
X0676860Y0846250D03*
X0646860Y0846250D03*
X0646860Y0856250D03*
X0646860Y0866250D03*
X0646860Y0876250D03*
X0646860Y0886250D03*
X0635610Y0832500D03*
X0635610Y0802500D03*
X0631860Y0791250D03*
X0641860Y0791250D03*
X0651860Y0791250D03*
X0651860Y0761250D03*
X0641860Y0761250D03*
X0631860Y0761250D03*
X0606860Y0766250D03*
X0596860Y0761250D03*
X0586860Y0761250D03*
X0576860Y0761250D03*
X0546860Y0766250D03*
X0536860Y0766250D03*
X0536860Y0786250D03*
X0546860Y0786250D03*
X0576860Y0791250D03*
X0586860Y0791250D03*
X0596860Y0791250D03*
X0606860Y0786250D03*
X0556860Y0831250D03*
X0556860Y0841250D03*
X0556860Y0851250D03*
X0526860Y0851250D03*
X0526860Y0841250D03*
X0526860Y0831250D03*
X0530610Y0906250D03*
X0521860Y0906250D03*
X0521860Y0936250D03*
X0530610Y0936250D03*
X0696860Y0778750D03*
X0701860Y0771250D03*
X0691860Y0771250D03*
X0696860Y0753750D03*
X0701860Y0746250D03*
X0691860Y0746250D03*
D95*
X0676860Y0806250D03*
X0651860Y0821250D03*
X0571860Y0806250D03*
X0541860Y0806250D03*
X0571860Y0836250D03*
X0571860Y0866250D03*
X0541860Y0866250D03*
D70*
X0541860Y0876250D03*
X0571860Y0876250D03*
X0571860Y0846250D03*
X0571860Y0816250D03*
X0541860Y0816250D03*
X0651860Y0831250D03*
X0676860Y0816250D03*
D79*
X0626860Y0866250D03*
X0626860Y0876250D03*
X0626860Y0886250D03*
X0626860Y0896250D03*
X0596860Y0896250D03*
X0596860Y0886250D03*
X0596860Y0876250D03*
X0596860Y0866250D03*
D35*
X0621860Y0798750D03*
X0621860Y0753750D03*
X0561860Y0753750D03*
X0561860Y0798750D03*
D29*
X0616860Y0936060D03*
X0635360Y0947870D03*
X0616860Y0959690D03*
D102*
X0665610Y0780000D03*
X0675610Y0780000D03*
X0675610Y0770000D03*
X0665610Y0770000D03*
X0665610Y0760000D03*
X0675610Y0760000D03*
X0675610Y0750000D03*
X0665610Y0750000D03*
X0665610Y0740000D03*
X0675610Y0740000D03*
D24*
X0752480Y0746880D03*
X0752480Y0730940D03*
X0777170Y0730940D03*
X0776860Y0746870D03*
X0802170Y0746870D03*
X0802170Y0730940D03*
X0802170Y0666870D03*
X0776860Y0666870D03*
X0752480Y0666880D03*
X0752480Y0810940D03*
X0752480Y0826880D03*
X0776860Y0826870D03*
X0777170Y0810940D03*
X0802170Y0810940D03*
X0802170Y0826870D03*
X0802170Y0890940D03*
X0777170Y0890940D03*
X0752480Y0890940D03*
X0471230Y0890620D03*
X0446860Y0890630D03*
X0421540Y0890630D03*
X0421540Y0826560D03*
X0421540Y0810630D03*
X0446860Y0810630D03*
X0446540Y0826560D03*
X0471230Y0826560D03*
X0471230Y0810620D03*
X0471230Y0746560D03*
X0446540Y0746560D03*
X0421540Y0746560D03*
D44*
X0515610Y0740000D03*
D86*
X0507430Y0965730D03*
X0540300Y0965730D03*
D69*
X0532620Y0953430D02*
X0532620Y0949060D01*
X0515100Y0949060D02*
X0515100Y0953430D01*
D75*
X0518740Y0954700D03*
X0521300Y0954700D03*
X0523860Y0954700D03*
X0526420Y0954700D03*
X0528980Y0954700D03*
D37*
X0528390Y0965730D03*
X0519340Y0965730D03*
D79*
X0716860Y0783850D02*
X0716860Y0778650D01*
X0716860Y0743850D02*
X0716860Y0738650D01*
D91*
X0626860Y0811250D03*
X0596860Y0811250D03*
X0596860Y0851250D03*
X0626860Y0851250D03*
D26*
X0494360Y0733750D02*
X0481860Y0746250D01*
X0481860Y0800000D01*
X0471230Y0810620D01*
X0501860Y0811250D02*
X0471230Y0841880D01*
X0471230Y0890620D01*
X0489360Y0893750D02*
X0489360Y0908750D01*
X0521860Y0906250D02*
X0521860Y0930000D01*
X0521860Y0936250D02*
X0521300Y0936800D01*
X0521300Y0954700D01*
X0518740Y0954700D02*
X0518740Y0946890D01*
X0511860Y0940000D01*
X0505610Y0940000D01*
X0523860Y0942990D02*
X0530610Y0936250D01*
X0535610Y0937500D02*
X0535610Y0913750D01*
X0530610Y0920000D02*
X0530610Y0906250D01*
X0535610Y0937500D02*
X0526420Y0946680D01*
X0526420Y0954700D01*
X0523860Y0954700D02*
X0523860Y0942990D01*
X0532620Y0953430D02*
X0531340Y0954700D01*
X0528980Y0954700D01*
X0601860Y0944690D02*
X0601860Y0928750D01*
X0608110Y0922500D01*
X0611860Y0916250D02*
X0616860Y0921250D01*
X0611860Y0916250D02*
X0611860Y0886250D01*
X0611860Y0846250D01*
X0616860Y0836250D02*
X0616860Y0871250D01*
X0621860Y0876250D01*
X0626860Y0876250D01*
X0631860Y0891250D02*
X0626860Y0896250D01*
X0626860Y0921250D01*
X0628110Y0922500D01*
X0601860Y0944690D02*
X0616860Y0959690D01*
X0663110Y0962500D02*
X0663110Y0922500D01*
X0695610Y0945000D02*
X0695610Y0881250D01*
X0705610Y0892500D02*
X0705610Y0850000D01*
X0710610Y0825000D02*
X0710610Y0922500D01*
X0716860Y0916250D02*
X0716860Y0801250D01*
X0706860Y0791250D01*
X0696860Y0791250D01*
X0695610Y0790000D01*
X0701860Y0796250D01*
X0701860Y0813750D01*
X0695610Y0820000D01*
X0686860Y0816250D02*
X0676860Y0826250D01*
X0686860Y0816250D02*
X0686860Y0751250D01*
X0675610Y0740000D01*
X0658110Y0753750D02*
X0658110Y0785000D01*
X0651860Y0791250D02*
X0651860Y0821250D01*
X0669360Y0811250D02*
X0669360Y0805000D01*
X0675610Y0798750D01*
X0675610Y0780000D01*
X0696860Y0778750D02*
X0696860Y0761250D01*
X0701860Y0756250D01*
X0701860Y0746250D01*
X0716860Y0781250D02*
X0706860Y0791250D01*
X0705610Y0820000D02*
X0710610Y0825000D01*
X0676860Y0866250D02*
X0671860Y0871250D01*
X0671860Y0881250D01*
X0676860Y0886250D01*
X0631860Y0891250D02*
X0631860Y0841250D01*
X0596860Y0832500D02*
X0596860Y0851250D01*
X0589360Y0851250D02*
X0589360Y0808750D01*
X0596860Y0801250D01*
X0596860Y0791250D01*
X0583110Y0808750D02*
X0583110Y0862500D01*
X0596860Y0876250D01*
X0571860Y0846250D02*
X0571860Y0836250D01*
X0526860Y0811250D02*
X0501860Y0811250D01*
X0596860Y0761250D02*
X0605610Y0752500D01*
X0605610Y0740000D01*
X0621860Y0753750D02*
X0625610Y0750000D01*
X0625610Y0740000D01*
X0645610Y0740000D02*
X0645610Y0757500D01*
X0641860Y0761250D01*
X0636860Y0770000D02*
X0636860Y0801250D01*
X0635610Y0802500D01*
X0655610Y0740000D02*
X0649360Y0733750D01*
X0494360Y0733750D01*
D61*
X0583110Y0808750D03*
X0596860Y0832500D03*
X0611860Y0846250D03*
X0616860Y0836250D03*
X0631860Y0841250D03*
X0669360Y0811250D03*
X0676860Y0826250D03*
X0658110Y0785000D03*
X0636860Y0770000D03*
X0658110Y0753750D03*
X0589360Y0851250D03*
X0611860Y0886250D03*
X0663110Y0922500D03*
X0705610Y0892500D03*
X0695610Y0881250D03*
X0716860Y0916250D03*
X0710610Y0922500D03*
X0535610Y0913750D03*
X0530610Y0920000D03*
X0521860Y0930000D03*
X0489360Y0908750D03*
X0489360Y0893750D03*
X0526860Y0811250D03*
D90*
X0616860Y0921250D03*
X0835000Y0010000D02*
G75*
%LPD*%
D92*
X0920000Y0024000D03*
X0920000Y0034000D03*
X0870000Y0216500D03*
X0870000Y0226500D03*
X0880000Y0226500D03*
X0890000Y0226500D03*
X0860000Y0226500D03*
X0860000Y0216500D03*
X0850000Y0216500D03*
X0850000Y0226500D03*
X0840000Y0226500D03*
X0930000Y0226500D03*
X0940000Y0226500D03*
X0950000Y0226500D03*
X0960000Y0226500D03*
X0970000Y0226500D03*
X0980000Y0226500D03*
X1010000Y0226500D03*
X1020000Y0226500D03*
X1030000Y0226500D03*
X1040000Y0226500D03*
X1050000Y0226500D03*
D102*
X0840000Y0049000D03*
X0850000Y0049000D03*
X0860000Y0049000D03*
X0870000Y0049000D03*
X0880000Y0049000D03*
X0880000Y0059000D03*
X0870000Y0059000D03*
X0860000Y0059000D03*
X0850000Y0059000D03*
X0840000Y0059000D03*
D38*
X0890000Y0034000D03*
X0930000Y0024000D03*
X0950000Y0034000D03*
X1045000Y0034000D03*
X1045000Y0024000D03*
D82*
X1055000Y0024000D03*
X1065000Y0024000D03*
X1065000Y0034000D03*
X1055000Y0034000D03*
X0950000Y0024000D03*
X0940000Y0024000D03*
X0940000Y0034000D03*
X0930000Y0034000D03*
X0910000Y0034000D03*
X0900000Y0034000D03*
D44*
X0840000Y0216500D03*
D86*
X1065810Y0226690D03*
X1065810Y0193810D03*
D69*
X1053510Y0201490D02*
X1049150Y0201490D01*
X1049150Y0219010D02*
X1053510Y0219010D01*
D51*
X1037500Y0206500D03*
X1031250Y0201500D03*
X1036250Y0197750D03*
X1041250Y0194000D03*
X1041250Y0178740D03*
X1036250Y0179000D03*
X1031250Y0179000D03*
X1022500Y0191500D03*
X1000000Y0171500D03*
X0996670Y0168170D03*
X0980000Y0167300D03*
X0972500Y0167750D03*
X0972500Y0162750D03*
X0967500Y0167750D03*
X0960000Y0171500D03*
X0952500Y0167750D03*
X0952500Y0156500D03*
X0940000Y0149000D03*
X0940000Y0144000D03*
X0940000Y0139000D03*
X0937500Y0129000D03*
X0932500Y0117750D03*
X0922500Y0117750D03*
X0935000Y0104000D03*
X0942500Y0109000D03*
X0957500Y0104000D03*
X0958750Y0109000D03*
X0962500Y0117750D03*
X0967500Y0119000D03*
X0971250Y0121500D03*
X0975000Y0119000D03*
X0987500Y0131500D03*
X0991250Y0129000D03*
X0993750Y0135250D03*
X0995000Y0140250D03*
X0983750Y0134000D03*
X0980000Y0136500D03*
X0980000Y0147750D03*
X0973750Y0152750D03*
X0977500Y0155250D03*
X0970000Y0150250D03*
X0970000Y0175250D03*
X0973750Y0179000D03*
X0977500Y0182750D03*
X0981250Y0189000D03*
X0985000Y0186500D03*
X0988750Y0184000D03*
X0995000Y0185250D03*
X0977500Y0191500D03*
X0973750Y0194000D03*
X0970000Y0196500D03*
X0965000Y0196500D03*
X0963750Y0191500D03*
X0952500Y0191500D03*
X0947500Y0191500D03*
X0943750Y0196500D03*
X0932500Y0201500D03*
X0925000Y0201500D03*
X0925000Y0211500D03*
X0912500Y0211500D03*
X0907500Y0216500D03*
X0902500Y0216500D03*
X0897500Y0212750D03*
X0897500Y0206500D03*
X0902500Y0206500D03*
X0905000Y0224000D03*
X0882500Y0206500D03*
X0870000Y0209000D03*
X0860000Y0204000D03*
X0882500Y0189000D03*
X0887500Y0189000D03*
X0895000Y0189000D03*
X0900000Y0189000D03*
X0913750Y0190250D03*
X0920000Y0190250D03*
X0927500Y0184000D03*
X0932500Y0189000D03*
X0937500Y0186500D03*
X0940000Y0179000D03*
X0940000Y0174000D03*
X0940000Y0169000D03*
X0935000Y0179000D03*
X0932500Y0156500D03*
X0915000Y0154000D03*
X0917500Y0141500D03*
X0922500Y0139000D03*
X0902500Y0124000D03*
X0897500Y0126500D03*
X0893750Y0129000D03*
X0890000Y0131500D03*
X0886250Y0134000D03*
X0882500Y0136500D03*
X0875000Y0141500D03*
X0877500Y0146500D03*
X0872500Y0136500D03*
X0870000Y0131500D03*
X0875000Y0126500D03*
X0878750Y0129000D03*
X0873750Y0120250D03*
X0872500Y0104000D03*
X0877500Y0104000D03*
X0863750Y0105250D03*
X0853750Y0107750D03*
X0853750Y0124000D03*
X0853750Y0139000D03*
X0855000Y0151500D03*
X0855000Y0166500D03*
X0857500Y0179000D03*
X0853750Y0180250D03*
X0898750Y0117750D03*
X0917500Y0091500D03*
X0895000Y0089000D03*
X0868750Y0089000D03*
X0863750Y0085250D03*
X0860000Y0089000D03*
X0852500Y0089000D03*
X0885000Y0064000D03*
X0920000Y0064000D03*
X0927500Y0064000D03*
X0932500Y0066500D03*
X0942500Y0067750D03*
X0950000Y0059000D03*
X0955000Y0054000D03*
X0950000Y0049000D03*
X0945000Y0054000D03*
X0937500Y0051500D03*
X0920000Y0051500D03*
X0882500Y0024000D03*
X0882500Y0015250D03*
X0960000Y0034000D03*
X0987500Y0024000D03*
X0992500Y0031500D03*
X0992500Y0037750D03*
X0997500Y0037750D03*
X0997500Y0047750D03*
X0992500Y0047750D03*
X0988750Y0059000D03*
X0962500Y0057750D03*
X0997500Y0087750D03*
X1006700Y0081950D03*
X1011250Y0079000D03*
X1015000Y0076500D03*
X1018750Y0074000D03*
X1026250Y0062750D03*
X1026250Y0054000D03*
X1007500Y0024000D03*
X1037500Y0016500D03*
X0978750Y0090250D03*
X0982500Y0092750D03*
X0986250Y0095250D03*
X0990000Y0097750D03*
X1006700Y0117300D03*
X0998750Y0117750D03*
X1011170Y0124080D03*
X1014270Y0127230D03*
X1017370Y0130380D03*
X1011250Y0151500D03*
X1011250Y0156500D03*
X1013750Y0164000D03*
X1058750Y0161500D03*
X1058750Y0146500D03*
X1025000Y0211500D03*
X1020000Y0217750D03*
X1000000Y0215250D03*
X0995000Y0217750D03*
X0986250Y0221500D03*
X0978750Y0217750D03*
D57*
X0975000Y0214000D01*
X0975000Y0201500D01*
X0970000Y0196500D01*
X0973750Y0194000D02*
X0976250Y0196500D01*
X0985000Y0196500D01*
X0987500Y0199000D01*
X0987500Y0217750D01*
X0992500Y0222750D01*
X1006250Y0222750D01*
X1010000Y0226500D01*
X1020000Y0226500D02*
X1020000Y0217750D01*
X1025000Y0221500D02*
X1030000Y0226500D01*
X1025000Y0221500D02*
X1025000Y0211500D01*
X1031250Y0201500D02*
X1031250Y0179000D01*
X1036250Y0179000D02*
X1036250Y0197750D01*
X1041250Y0194000D02*
X1041250Y0178740D01*
X1022500Y0172750D02*
X1022500Y0191500D01*
X1037500Y0206500D02*
X1037500Y0224000D01*
X1040000Y0226500D01*
X1000000Y0215250D02*
X1000000Y0171500D01*
X0996670Y0168170D02*
X0995000Y0166500D01*
X0995000Y0140250D01*
X0991250Y0137750D02*
X0993750Y0135250D01*
X0991250Y0132750D02*
X0988750Y0135250D01*
X0988750Y0184000D01*
X0986250Y0182750D02*
X0985000Y0184000D01*
X0985000Y0186500D01*
X0986250Y0182750D02*
X0986250Y0135250D01*
X0987500Y0134000D01*
X0987500Y0131500D01*
X0991250Y0132750D02*
X0991250Y0129000D01*
X0983750Y0134000D02*
X0983750Y0182750D01*
X0981250Y0185250D01*
X0981250Y0189000D01*
X0977500Y0191500D02*
X0980000Y0194000D01*
X0986250Y0194000D01*
X0991250Y0199000D01*
X0991250Y0214000D01*
X0995000Y0217750D01*
X0986250Y0221500D02*
X0977500Y0221500D01*
X0970000Y0214000D01*
X0970000Y0201500D01*
X0965000Y0196500D01*
X0977500Y0182750D02*
X0938750Y0182750D01*
X0935000Y0179000D01*
X0932500Y0182750D02*
X0932500Y0189000D01*
X0937500Y0189000D02*
X0937500Y0186500D01*
X0937500Y0206500D01*
X0940000Y0209000D01*
X0940000Y0216500D01*
X0950000Y0226500D01*
X0948750Y0221500D02*
X0965000Y0221500D01*
X0970000Y0226500D01*
X0948750Y0221500D02*
X0943750Y0216500D01*
X0943750Y0196500D01*
X0932500Y0194000D02*
X0932500Y0201500D01*
X0931250Y0205250D02*
X0931250Y0217750D01*
X0940000Y0226500D01*
X0930000Y0226500D02*
X0928750Y0227750D01*
X0902500Y0227750D01*
X0892500Y0217750D01*
X0892500Y0191500D01*
X0895000Y0189000D01*
X0900000Y0189000D02*
X0902500Y0191500D01*
X0902500Y0201500D01*
X0907500Y0206500D01*
X0907500Y0216500D01*
X0902500Y0216500D02*
X0902500Y0206500D01*
X0910000Y0200250D02*
X0912500Y0202750D01*
X0912500Y0211500D01*
X0925000Y0211500D02*
X0925000Y0201500D01*
X0928750Y0202750D02*
X0931250Y0205250D01*
X0928750Y0202750D02*
X0928750Y0192750D01*
X0920000Y0184000D01*
X0920000Y0144000D01*
X0917500Y0141500D01*
X0922500Y0139000D02*
X0922500Y0184000D01*
X0932500Y0194000D01*
X0927500Y0184000D02*
X0927500Y0171500D01*
X0937500Y0161500D01*
X0971250Y0161500D01*
X0972500Y0162750D01*
X0968750Y0164000D02*
X0972500Y0167750D01*
X0968750Y0164000D02*
X0940000Y0164000D01*
X0930000Y0174000D01*
X0930000Y0180250D01*
X0932500Y0182750D01*
X0940000Y0179000D02*
X0973750Y0179000D01*
X0970000Y0175250D02*
X0941250Y0175250D01*
X0940000Y0174000D01*
X0942500Y0171500D02*
X0960000Y0171500D01*
X0952500Y0156500D02*
X0937500Y0156500D01*
X0935000Y0154000D01*
X0935000Y0131500D01*
X0937500Y0129000D01*
X0932500Y0122750D02*
X0937500Y0117750D01*
X0937500Y0109000D01*
X0942500Y0104000D01*
X0942500Y0067750D01*
X0940000Y0070250D02*
X0937500Y0067750D01*
X0937500Y0051500D01*
X0945000Y0054000D02*
X0945000Y0059000D01*
X0957500Y0071500D01*
X0957500Y0099000D01*
X0962500Y0104000D01*
X0962500Y0117750D01*
X0967500Y0119000D02*
X0967500Y0106500D01*
X0960000Y0099000D01*
X0960000Y0069000D01*
X0950000Y0059000D01*
X0950000Y0054000D02*
X0956250Y0060250D01*
X0956250Y0061500D01*
X0962500Y0067750D01*
X0962500Y0099000D01*
X0970000Y0106500D01*
X0970000Y0116500D01*
X0971250Y0117750D01*
X0971250Y0121500D01*
X0975000Y0119000D02*
X0972500Y0116500D01*
X0972500Y0106500D01*
X0965000Y0099000D01*
X0965000Y0066500D01*
X0958750Y0060250D01*
X0958750Y0057750D01*
X0955000Y0054000D01*
X0950000Y0054000D02*
X0950000Y0049000D01*
X0932500Y0066500D02*
X0935000Y0069000D01*
X0935000Y0104000D01*
X0935000Y0109000D02*
X0940000Y0104000D01*
X0940000Y0070250D01*
X0905000Y0085250D02*
X0897500Y0077750D01*
X0887500Y0077750D01*
X0880000Y0070250D01*
X0880000Y0059000D01*
X0875000Y0054000D02*
X0880000Y0049000D01*
X0875000Y0054000D02*
X0875000Y0071500D01*
X0886250Y0082750D01*
X0893750Y0082750D01*
X0902500Y0091500D01*
X0902500Y0119000D01*
X0897500Y0124000D01*
X0897500Y0126500D01*
X0893750Y0129000D02*
X0893750Y0092750D01*
X0870000Y0069000D01*
X0870000Y0059000D01*
X0865000Y0054000D02*
X0870000Y0049000D01*
X0865000Y0054000D02*
X0865000Y0066500D01*
X0891250Y0092750D01*
X0891250Y0126500D01*
X0890000Y0127750D01*
X0890000Y0131500D01*
X0886250Y0129000D02*
X0886250Y0134000D01*
X0882500Y0136500D02*
X0882500Y0130250D01*
X0886250Y0126500D01*
X0886250Y0092750D01*
X0855000Y0061500D01*
X0855000Y0054000D01*
X0860000Y0049000D01*
X0860000Y0059000D02*
X0860000Y0064000D01*
X0888750Y0092750D01*
X0888750Y0126500D01*
X0886250Y0129000D01*
X0883750Y0124000D02*
X0878750Y0129000D01*
X0875000Y0126500D02*
X0881250Y0120250D01*
X0881250Y0092750D01*
X0852500Y0064000D01*
X0847500Y0064000D01*
X0845000Y0061500D01*
X0845000Y0054000D01*
X0850000Y0049000D01*
X0850000Y0059000D02*
X0883750Y0092750D01*
X0883750Y0124000D01*
X0873750Y0120250D02*
X0856250Y0102750D01*
X0856250Y0084000D01*
X0840000Y0067750D01*
X0840000Y0059000D01*
X0863750Y0085250D02*
X0863750Y0105250D01*
X0870000Y0131500D02*
X0867500Y0134000D01*
X0867500Y0189000D01*
X0840000Y0216500D01*
X0850000Y0216500D02*
X0850000Y0209000D01*
X0870000Y0189000D01*
X0870000Y0139000D01*
X0872500Y0136500D01*
X0875000Y0141500D02*
X0872500Y0144000D01*
X0872500Y0201500D01*
X0860000Y0214000D01*
X0860000Y0216500D01*
X0870000Y0216500D02*
X0875000Y0211500D01*
X0875000Y0149000D01*
X0877500Y0146500D01*
X0902500Y0124000D02*
X0905000Y0121500D01*
X0905000Y0085250D01*
X0935000Y0109000D02*
X0935000Y0115250D01*
X0932500Y0117750D01*
X0932500Y0122750D02*
X0932500Y0156500D01*
X0940000Y0149000D02*
X0952500Y0149000D01*
X0955000Y0146500D01*
X0955000Y0112750D01*
X0958750Y0109000D01*
X0978750Y0095250D02*
X0978750Y0090250D01*
X0982500Y0092750D02*
X0982500Y0096500D01*
X0985000Y0099000D01*
X0985000Y0119000D01*
X0973750Y0130250D01*
X0973750Y0152750D01*
X0977500Y0150250D02*
X0976250Y0149000D01*
X0976250Y0130250D01*
X0987500Y0119000D01*
X0987500Y0099000D01*
X0986250Y0097750D01*
X0986250Y0095250D01*
X0982500Y0099000D02*
X0978750Y0095250D01*
X0982500Y0099000D02*
X0982500Y0119000D01*
X0971250Y0130250D01*
X0971250Y0149000D01*
X0970000Y0150250D01*
X0977500Y0150250D02*
X0977500Y0155250D01*
X0981250Y0149000D02*
X0980000Y0147750D01*
X0981250Y0149000D02*
X0981250Y0165250D01*
X0980000Y0166500D01*
X0980000Y0167300D01*
X0991250Y0181500D02*
X0995000Y0185250D01*
X0991250Y0181500D02*
X0991250Y0137750D01*
X0980000Y0136500D02*
X0980000Y0129000D01*
X0990000Y0119000D01*
X0990000Y0097750D01*
X0997500Y0087750D02*
X0997500Y0116500D01*
X0998750Y0117750D01*
X1006700Y0117300D02*
X1006700Y0081950D01*
X1008750Y0085250D02*
X1011170Y0082830D01*
X1011170Y0079080D01*
X1011250Y0079000D01*
X1015000Y0081500D02*
X1015000Y0076500D01*
X1018750Y0074000D02*
X1018750Y0081500D01*
X1015000Y0085250D01*
X1015000Y0115250D01*
X1018750Y0119000D01*
X1018750Y0129000D01*
X1017370Y0130380D01*
X1014270Y0127230D02*
X1015000Y0126500D01*
X1015000Y0119000D01*
X1011250Y0115250D01*
X1011250Y0085250D01*
X1015000Y0081500D01*
X1008750Y0085250D02*
X1008750Y0115250D01*
X1011250Y0117750D01*
X1011170Y0124080D01*
X1013750Y0164000D02*
X1022500Y0172750D01*
X0942500Y0171500D02*
X0940000Y0169000D01*
X0915000Y0154000D02*
X0910000Y0159000D01*
X0910000Y0200250D01*
X0887500Y0189000D02*
X0887500Y0219000D01*
X0880000Y0226500D01*
X0877500Y0219000D02*
X0870000Y0226500D01*
X0877500Y0219000D02*
X0877500Y0191500D01*
X0880000Y0189000D01*
X0882500Y0189000D01*
D48*
X0882500Y0212750D03*
D39*
X1037500Y0206500D02*
X1067500Y0176500D01*
X1067500Y0052750D01*
X1060000Y0045250D01*
X1060000Y0019000D01*
X1053750Y0012750D01*
X0926250Y0012750D01*
X0920000Y0019000D01*
X0920000Y0024000D01*
X0835000Y0250000D02*
G75*
%LPD*%
D92*
X0920000Y0264000D03*
X0920000Y0274000D03*
X0870000Y0456500D03*
X0870000Y0466500D03*
X0880000Y0466500D03*
X0890000Y0466500D03*
X0860000Y0466500D03*
X0860000Y0456500D03*
X0850000Y0456500D03*
X0850000Y0466500D03*
X0840000Y0466500D03*
X0930000Y0466500D03*
X0940000Y0466500D03*
X0950000Y0466500D03*
X0960000Y0466500D03*
X0970000Y0466500D03*
X0980000Y0466500D03*
X1010000Y0466500D03*
X1020000Y0466500D03*
X1030000Y0466500D03*
X1040000Y0466500D03*
X1050000Y0466500D03*
D102*
X0840000Y0289000D03*
X0850000Y0289000D03*
X0860000Y0289000D03*
X0870000Y0289000D03*
X0880000Y0289000D03*
X0880000Y0299000D03*
X0870000Y0299000D03*
X0860000Y0299000D03*
X0850000Y0299000D03*
X0840000Y0299000D03*
D38*
X0890000Y0274000D03*
X0930000Y0264000D03*
X0950000Y0274000D03*
X1045000Y0274000D03*
X1045000Y0264000D03*
D82*
X1055000Y0264000D03*
X1065000Y0264000D03*
X1065000Y0274000D03*
X1055000Y0274000D03*
X0950000Y0264000D03*
X0940000Y0264000D03*
X0940000Y0274000D03*
X0930000Y0274000D03*
X0910000Y0274000D03*
X0900000Y0274000D03*
D44*
X0840000Y0456500D03*
D86*
X1065810Y0466690D03*
X1065810Y0433810D03*
D69*
X1053510Y0441490D02*
X1049150Y0441490D01*
X1049150Y0459010D02*
X1053510Y0459010D01*
D51*
X1037500Y0446500D03*
X1031250Y0441500D03*
X1036250Y0437750D03*
X1041250Y0434000D03*
X1041250Y0418740D03*
X1036250Y0419000D03*
X1031250Y0419000D03*
X1022500Y0431500D03*
X1000000Y0411500D03*
X0996670Y0408170D03*
X0980000Y0407300D03*
X0972500Y0407750D03*
X0972500Y0402750D03*
X0967500Y0407750D03*
X0960000Y0411500D03*
X0952500Y0407750D03*
X0952500Y0396500D03*
X0940000Y0389000D03*
X0940000Y0384000D03*
X0940000Y0379000D03*
X0937500Y0369000D03*
X0932500Y0357750D03*
X0922500Y0357750D03*
X0935000Y0344000D03*
X0942500Y0349000D03*
X0957500Y0344000D03*
X0958750Y0349000D03*
X0962500Y0357750D03*
X0967500Y0359000D03*
X0971250Y0361500D03*
X0975000Y0359000D03*
X0987500Y0371500D03*
X0991250Y0369000D03*
X0993750Y0375250D03*
X0995000Y0380250D03*
X0983750Y0374000D03*
X0980000Y0376500D03*
X0980000Y0387750D03*
X0973750Y0392750D03*
X0977500Y0395250D03*
X0970000Y0390250D03*
X0970000Y0415250D03*
X0973750Y0419000D03*
X0977500Y0422750D03*
X0981250Y0429000D03*
X0985000Y0426500D03*
X0988750Y0424000D03*
X0995000Y0425250D03*
X0977500Y0431500D03*
X0973750Y0434000D03*
X0970000Y0436500D03*
X0965000Y0436500D03*
X0963750Y0431500D03*
X0952500Y0431500D03*
X0947500Y0431500D03*
X0943750Y0436500D03*
X0932500Y0441500D03*
X0925000Y0441500D03*
X0925000Y0451500D03*
X0912500Y0451500D03*
X0907500Y0456500D03*
X0902500Y0456500D03*
X0897500Y0452750D03*
X0897500Y0446500D03*
X0902500Y0446500D03*
X0905000Y0464000D03*
X0882500Y0446500D03*
X0870000Y0449000D03*
X0860000Y0444000D03*
X0882500Y0429000D03*
X0887500Y0429000D03*
X0895000Y0429000D03*
X0900000Y0429000D03*
X0913750Y0430250D03*
X0920000Y0430250D03*
X0927500Y0424000D03*
X0932500Y0429000D03*
X0937500Y0426500D03*
X0940000Y0419000D03*
X0940000Y0414000D03*
X0940000Y0409000D03*
X0935000Y0419000D03*
X0932500Y0396500D03*
X0915000Y0394000D03*
X0917500Y0381500D03*
X0922500Y0379000D03*
X0902500Y0364000D03*
X0897500Y0366500D03*
X0893750Y0369000D03*
X0890000Y0371500D03*
X0886250Y0374000D03*
X0882500Y0376500D03*
X0875000Y0381500D03*
X0877500Y0386500D03*
X0872500Y0376500D03*
X0870000Y0371500D03*
X0875000Y0366500D03*
X0878750Y0369000D03*
X0873750Y0360250D03*
X0872500Y0344000D03*
X0877500Y0344000D03*
X0863750Y0345250D03*
X0853750Y0347750D03*
X0853750Y0364000D03*
X0853750Y0379000D03*
X0855000Y0391500D03*
X0855000Y0406500D03*
X0857500Y0419000D03*
X0853750Y0420250D03*
X0898750Y0357750D03*
X0917500Y0331500D03*
X0895000Y0329000D03*
X0868750Y0329000D03*
X0863750Y0325250D03*
X0860000Y0329000D03*
X0852500Y0329000D03*
X0885000Y0304000D03*
X0920000Y0304000D03*
X0927500Y0304000D03*
X0932500Y0306500D03*
X0942500Y0307750D03*
X0950000Y0299000D03*
X0955000Y0294000D03*
X0950000Y0289000D03*
X0945000Y0294000D03*
X0937500Y0291500D03*
X0920000Y0291500D03*
X0882500Y0264000D03*
X0882500Y0255250D03*
X0960000Y0274000D03*
X0987500Y0264000D03*
X0992500Y0271500D03*
X0992500Y0277750D03*
X0997500Y0277750D03*
X0997500Y0287750D03*
X0992500Y0287750D03*
X0988750Y0299000D03*
X0962500Y0297750D03*
X0997500Y0327750D03*
X1006700Y0321950D03*
X1011250Y0319000D03*
X1015000Y0316500D03*
X1018750Y0314000D03*
X1026250Y0302750D03*
X1026250Y0294000D03*
X1007500Y0264000D03*
X1037500Y0256500D03*
X0978750Y0330250D03*
X0982500Y0332750D03*
X0986250Y0335250D03*
X0990000Y0337750D03*
X1006700Y0357300D03*
X0998750Y0357750D03*
X1011170Y0364080D03*
X1014270Y0367230D03*
X1017370Y0370380D03*
X1011250Y0391500D03*
X1011250Y0396500D03*
X1013750Y0404000D03*
X1058750Y0401500D03*
X1058750Y0386500D03*
X1025000Y0451500D03*
X1020000Y0457750D03*
X1000000Y0455250D03*
X0995000Y0457750D03*
X0986250Y0461500D03*
X0978750Y0457750D03*
D57*
X0975000Y0454000D01*
X0975000Y0441500D01*
X0970000Y0436500D01*
X0973750Y0434000D02*
X0976250Y0436500D01*
X0985000Y0436500D01*
X0987500Y0439000D01*
X0987500Y0457750D01*
X0992500Y0462750D01*
X1006250Y0462750D01*
X1010000Y0466500D01*
X1020000Y0466500D02*
X1020000Y0457750D01*
X1025000Y0461500D02*
X1030000Y0466500D01*
X1025000Y0461500D02*
X1025000Y0451500D01*
X1031250Y0441500D02*
X1031250Y0419000D01*
X1036250Y0419000D02*
X1036250Y0437750D01*
X1041250Y0434000D02*
X1041250Y0418740D01*
X1022500Y0412750D02*
X1022500Y0431500D01*
X1037500Y0446500D02*
X1037500Y0464000D01*
X1040000Y0466500D01*
X1000000Y0455250D02*
X1000000Y0411500D01*
X0996670Y0408170D02*
X0995000Y0406500D01*
X0995000Y0380250D01*
X0991250Y0377750D02*
X0993750Y0375250D01*
X0991250Y0372750D02*
X0988750Y0375250D01*
X0988750Y0424000D01*
X0986250Y0422750D02*
X0985000Y0424000D01*
X0985000Y0426500D01*
X0986250Y0422750D02*
X0986250Y0375250D01*
X0987500Y0374000D01*
X0987500Y0371500D01*
X0991250Y0372750D02*
X0991250Y0369000D01*
X0983750Y0374000D02*
X0983750Y0422750D01*
X0981250Y0425250D01*
X0981250Y0429000D01*
X0977500Y0431500D02*
X0980000Y0434000D01*
X0986250Y0434000D01*
X0991250Y0439000D01*
X0991250Y0454000D01*
X0995000Y0457750D01*
X0986250Y0461500D02*
X0977500Y0461500D01*
X0970000Y0454000D01*
X0970000Y0441500D01*
X0965000Y0436500D01*
X0977500Y0422750D02*
X0938750Y0422750D01*
X0935000Y0419000D01*
X0932500Y0422750D02*
X0932500Y0429000D01*
X0937500Y0429000D02*
X0937500Y0426500D01*
X0937500Y0446500D01*
X0940000Y0449000D01*
X0940000Y0456500D01*
X0950000Y0466500D01*
X0948750Y0461500D02*
X0965000Y0461500D01*
X0970000Y0466500D01*
X0948750Y0461500D02*
X0943750Y0456500D01*
X0943750Y0436500D01*
X0932500Y0434000D02*
X0932500Y0441500D01*
X0931250Y0445250D02*
X0931250Y0457750D01*
X0940000Y0466500D01*
X0930000Y0466500D02*
X0928750Y0467750D01*
X0902500Y0467750D01*
X0892500Y0457750D01*
X0892500Y0431500D01*
X0895000Y0429000D01*
X0900000Y0429000D02*
X0902500Y0431500D01*
X0902500Y0441500D01*
X0907500Y0446500D01*
X0907500Y0456500D01*
X0902500Y0456500D02*
X0902500Y0446500D01*
X0910000Y0440250D02*
X0912500Y0442750D01*
X0912500Y0451500D01*
X0925000Y0451500D02*
X0925000Y0441500D01*
X0928750Y0442750D02*
X0931250Y0445250D01*
X0928750Y0442750D02*
X0928750Y0432750D01*
X0920000Y0424000D01*
X0920000Y0384000D01*
X0917500Y0381500D01*
X0922500Y0379000D02*
X0922500Y0424000D01*
X0932500Y0434000D01*
X0927500Y0424000D02*
X0927500Y0411500D01*
X0937500Y0401500D01*
X0971250Y0401500D01*
X0972500Y0402750D01*
X0968750Y0404000D02*
X0972500Y0407750D01*
X0968750Y0404000D02*
X0940000Y0404000D01*
X0930000Y0414000D01*
X0930000Y0420250D01*
X0932500Y0422750D01*
X0940000Y0419000D02*
X0973750Y0419000D01*
X0970000Y0415250D02*
X0941250Y0415250D01*
X0940000Y0414000D01*
X0942500Y0411500D02*
X0960000Y0411500D01*
X0952500Y0396500D02*
X0937500Y0396500D01*
X0935000Y0394000D01*
X0935000Y0371500D01*
X0937500Y0369000D01*
X0932500Y0362750D02*
X0937500Y0357750D01*
X0937500Y0349000D01*
X0942500Y0344000D01*
X0942500Y0307750D01*
X0940000Y0310250D02*
X0937500Y0307750D01*
X0937500Y0291500D01*
X0945000Y0294000D02*
X0945000Y0299000D01*
X0957500Y0311500D01*
X0957500Y0339000D01*
X0962500Y0344000D01*
X0962500Y0357750D01*
X0967500Y0359000D02*
X0967500Y0346500D01*
X0960000Y0339000D01*
X0960000Y0309000D01*
X0950000Y0299000D01*
X0950000Y0294000D02*
X0956250Y0300250D01*
X0956250Y0301500D01*
X0962500Y0307750D01*
X0962500Y0339000D01*
X0970000Y0346500D01*
X0970000Y0356500D01*
X0971250Y0357750D01*
X0971250Y0361500D01*
X0975000Y0359000D02*
X0972500Y0356500D01*
X0972500Y0346500D01*
X0965000Y0339000D01*
X0965000Y0306500D01*
X0958750Y0300250D01*
X0958750Y0297750D01*
X0955000Y0294000D01*
X0950000Y0294000D02*
X0950000Y0289000D01*
X0932500Y0306500D02*
X0935000Y0309000D01*
X0935000Y0344000D01*
X0935000Y0349000D02*
X0940000Y0344000D01*
X0940000Y0310250D01*
X0905000Y0325250D02*
X0897500Y0317750D01*
X0887500Y0317750D01*
X0880000Y0310250D01*
X0880000Y0299000D01*
X0875000Y0294000D02*
X0880000Y0289000D01*
X0875000Y0294000D02*
X0875000Y0311500D01*
X0886250Y0322750D01*
X0893750Y0322750D01*
X0902500Y0331500D01*
X0902500Y0359000D01*
X0897500Y0364000D01*
X0897500Y0366500D01*
X0893750Y0369000D02*
X0893750Y0332750D01*
X0870000Y0309000D01*
X0870000Y0299000D01*
X0865000Y0294000D02*
X0870000Y0289000D01*
X0865000Y0294000D02*
X0865000Y0306500D01*
X0891250Y0332750D01*
X0891250Y0366500D01*
X0890000Y0367750D01*
X0890000Y0371500D01*
X0886250Y0369000D02*
X0886250Y0374000D01*
X0882500Y0376500D02*
X0882500Y0370250D01*
X0886250Y0366500D01*
X0886250Y0332750D01*
X0855000Y0301500D01*
X0855000Y0294000D01*
X0860000Y0289000D01*
X0860000Y0299000D02*
X0860000Y0304000D01*
X0888750Y0332750D01*
X0888750Y0366500D01*
X0886250Y0369000D01*
X0883750Y0364000D02*
X0878750Y0369000D01*
X0875000Y0366500D02*
X0881250Y0360250D01*
X0881250Y0332750D01*
X0852500Y0304000D01*
X0847500Y0304000D01*
X0845000Y0301500D01*
X0845000Y0294000D01*
X0850000Y0289000D01*
X0850000Y0299000D02*
X0883750Y0332750D01*
X0883750Y0364000D01*
X0873750Y0360250D02*
X0856250Y0342750D01*
X0856250Y0324000D01*
X0840000Y0307750D01*
X0840000Y0299000D01*
X0863750Y0325250D02*
X0863750Y0345250D01*
X0870000Y0371500D02*
X0867500Y0374000D01*
X0867500Y0429000D01*
X0840000Y0456500D01*
X0850000Y0456500D02*
X0850000Y0449000D01*
X0870000Y0429000D01*
X0870000Y0379000D01*
X0872500Y0376500D01*
X0875000Y0381500D02*
X0872500Y0384000D01*
X0872500Y0441500D01*
X0860000Y0454000D01*
X0860000Y0456500D01*
X0870000Y0456500D02*
X0875000Y0451500D01*
X0875000Y0389000D01*
X0877500Y0386500D01*
X0902500Y0364000D02*
X0905000Y0361500D01*
X0905000Y0325250D01*
X0935000Y0349000D02*
X0935000Y0355250D01*
X0932500Y0357750D01*
X0932500Y0362750D02*
X0932500Y0396500D01*
X0940000Y0389000D02*
X0952500Y0389000D01*
X0955000Y0386500D01*
X0955000Y0352750D01*
X0958750Y0349000D01*
X0978750Y0335250D02*
X0978750Y0330250D01*
X0982500Y0332750D02*
X0982500Y0336500D01*
X0985000Y0339000D01*
X0985000Y0359000D01*
X0973750Y0370250D01*
X0973750Y0392750D01*
X0977500Y0390250D02*
X0976250Y0389000D01*
X0976250Y0370250D01*
X0987500Y0359000D01*
X0987500Y0339000D01*
X0986250Y0337750D01*
X0986250Y0335250D01*
X0982500Y0339000D02*
X0978750Y0335250D01*
X0982500Y0339000D02*
X0982500Y0359000D01*
X0971250Y0370250D01*
X0971250Y0389000D01*
X0970000Y0390250D01*
X0977500Y0390250D02*
X0977500Y0395250D01*
X0981250Y0389000D02*
X0980000Y0387750D01*
X0981250Y0389000D02*
X0981250Y0405250D01*
X0980000Y0406500D01*
X0980000Y0407300D01*
X0991250Y0421500D02*
X0995000Y0425250D01*
X0991250Y0421500D02*
X0991250Y0377750D01*
X0980000Y0376500D02*
X0980000Y0369000D01*
X0990000Y0359000D01*
X0990000Y0337750D01*
X0997500Y0327750D02*
X0997500Y0356500D01*
X0998750Y0357750D01*
X1006700Y0357300D02*
X1006700Y0321950D01*
X1008750Y0325250D02*
X1011170Y0322830D01*
X1011170Y0319080D01*
X1011250Y0319000D01*
X1015000Y0321500D02*
X1015000Y0316500D01*
X1018750Y0314000D02*
X1018750Y0321500D01*
X1015000Y0325250D01*
X1015000Y0355250D01*
X1018750Y0359000D01*
X1018750Y0369000D01*
X1017370Y0370380D01*
X1014270Y0367230D02*
X1015000Y0366500D01*
X1015000Y0359000D01*
X1011250Y0355250D01*
X1011250Y0325250D01*
X1015000Y0321500D01*
X1008750Y0325250D02*
X1008750Y0355250D01*
X1011250Y0357750D01*
X1011170Y0364080D01*
X1013750Y0404000D02*
X1022500Y0412750D01*
X0942500Y0411500D02*
X0940000Y0409000D01*
X0915000Y0394000D02*
X0910000Y0399000D01*
X0910000Y0440250D01*
X0887500Y0429000D02*
X0887500Y0459000D01*
X0880000Y0466500D01*
X0877500Y0459000D02*
X0870000Y0466500D01*
X0877500Y0459000D02*
X0877500Y0431500D01*
X0880000Y0429000D01*
X0882500Y0429000D01*
D48*
X0882500Y0452750D03*
D39*
X1037500Y0446500D02*
X1067500Y0416500D01*
X1067500Y0292750D01*
X1060000Y0285250D01*
X1060000Y0259000D01*
X1053750Y0252750D01*
X0926250Y0252750D01*
X0920000Y0259000D01*
X0920000Y0264000D01*
X0835000Y0490000D02*
G75*
%LPD*%
D92*
X0920000Y0504000D03*
X0920000Y0514000D03*
X0870000Y0696500D03*
X0870000Y0706500D03*
X0880000Y0706500D03*
X0890000Y0706500D03*
X0860000Y0706500D03*
X0860000Y0696500D03*
X0850000Y0696500D03*
X0850000Y0706500D03*
X0840000Y0706500D03*
X0930000Y0706500D03*
X0940000Y0706500D03*
X0950000Y0706500D03*
X0960000Y0706500D03*
X0970000Y0706500D03*
X0980000Y0706500D03*
X1010000Y0706500D03*
X1020000Y0706500D03*
X1030000Y0706500D03*
X1040000Y0706500D03*
X1050000Y0706500D03*
D102*
X0840000Y0529000D03*
X0850000Y0529000D03*
X0860000Y0529000D03*
X0870000Y0529000D03*
X0880000Y0529000D03*
X0880000Y0539000D03*
X0870000Y0539000D03*
X0860000Y0539000D03*
X0850000Y0539000D03*
X0840000Y0539000D03*
D38*
X0890000Y0514000D03*
X0930000Y0504000D03*
X0950000Y0514000D03*
X1045000Y0514000D03*
X1045000Y0504000D03*
D82*
X1055000Y0504000D03*
X1065000Y0504000D03*
X1065000Y0514000D03*
X1055000Y0514000D03*
X0950000Y0504000D03*
X0940000Y0504000D03*
X0940000Y0514000D03*
X0930000Y0514000D03*
X0910000Y0514000D03*
X0900000Y0514000D03*
D44*
X0840000Y0696500D03*
D86*
X1065810Y0706690D03*
X1065810Y0673810D03*
D69*
X1053510Y0681490D02*
X1049150Y0681490D01*
X1049150Y0699010D02*
X1053510Y0699010D01*
D51*
X1037500Y0686500D03*
X1031250Y0681500D03*
X1036250Y0677750D03*
X1041250Y0674000D03*
X1041250Y0658740D03*
X1036250Y0659000D03*
X1031250Y0659000D03*
X1022500Y0671500D03*
X1000000Y0651500D03*
X0996670Y0648170D03*
X0980000Y0647300D03*
X0972500Y0647750D03*
X0972500Y0642750D03*
X0967500Y0647750D03*
X0960000Y0651500D03*
X0952500Y0647750D03*
X0952500Y0636500D03*
X0940000Y0629000D03*
X0940000Y0624000D03*
X0940000Y0619000D03*
X0937500Y0609000D03*
X0932500Y0597750D03*
X0922500Y0597750D03*
X0935000Y0584000D03*
X0942500Y0589000D03*
X0957500Y0584000D03*
X0958750Y0589000D03*
X0962500Y0597750D03*
X0967500Y0599000D03*
X0971250Y0601500D03*
X0975000Y0599000D03*
X0987500Y0611500D03*
X0991250Y0609000D03*
X0993750Y0615250D03*
X0995000Y0620250D03*
X0983750Y0614000D03*
X0980000Y0616500D03*
X0980000Y0627750D03*
X0973750Y0632750D03*
X0977500Y0635250D03*
X0970000Y0630250D03*
X0970000Y0655250D03*
X0973750Y0659000D03*
X0977500Y0662750D03*
X0981250Y0669000D03*
X0985000Y0666500D03*
X0988750Y0664000D03*
X0995000Y0665250D03*
X0977500Y0671500D03*
X0973750Y0674000D03*
X0970000Y0676500D03*
X0965000Y0676500D03*
X0963750Y0671500D03*
X0952500Y0671500D03*
X0947500Y0671500D03*
X0943750Y0676500D03*
X0932500Y0681500D03*
X0925000Y0681500D03*
X0925000Y0691500D03*
X0912500Y0691500D03*
X0907500Y0696500D03*
X0902500Y0696500D03*
X0897500Y0692750D03*
X0897500Y0686500D03*
X0902500Y0686500D03*
X0905000Y0704000D03*
X0882500Y0686500D03*
X0870000Y0689000D03*
X0860000Y0684000D03*
X0882500Y0669000D03*
X0887500Y0669000D03*
X0895000Y0669000D03*
X0900000Y0669000D03*
X0913750Y0670250D03*
X0920000Y0670250D03*
X0927500Y0664000D03*
X0932500Y0669000D03*
X0937500Y0666500D03*
X0940000Y0659000D03*
X0940000Y0654000D03*
X0940000Y0649000D03*
X0935000Y0659000D03*
X0932500Y0636500D03*
X0915000Y0634000D03*
X0917500Y0621500D03*
X0922500Y0619000D03*
X0902500Y0604000D03*
X0897500Y0606500D03*
X0893750Y0609000D03*
X0890000Y0611500D03*
X0886250Y0614000D03*
X0882500Y0616500D03*
X0875000Y0621500D03*
X0877500Y0626500D03*
X0872500Y0616500D03*
X0870000Y0611500D03*
X0875000Y0606500D03*
X0878750Y0609000D03*
X0873750Y0600250D03*
X0872500Y0584000D03*
X0877500Y0584000D03*
X0863750Y0585250D03*
X0853750Y0587750D03*
X0853750Y0604000D03*
X0853750Y0619000D03*
X0855000Y0631500D03*
X0855000Y0646500D03*
X0857500Y0659000D03*
X0853750Y0660250D03*
X0898750Y0597750D03*
X0917500Y0571500D03*
X0895000Y0569000D03*
X0868750Y0569000D03*
X0863750Y0565250D03*
X0860000Y0569000D03*
X0852500Y0569000D03*
X0885000Y0544000D03*
X0920000Y0544000D03*
X0927500Y0544000D03*
X0932500Y0546500D03*
X0942500Y0547750D03*
X0950000Y0539000D03*
X0955000Y0534000D03*
X0950000Y0529000D03*
X0945000Y0534000D03*
X0937500Y0531500D03*
X0920000Y0531500D03*
X0882500Y0504000D03*
X0882500Y0495250D03*
X0960000Y0514000D03*
X0987500Y0504000D03*
X0992500Y0511500D03*
X0992500Y0517750D03*
X0997500Y0517750D03*
X0997500Y0527750D03*
X0992500Y0527750D03*
X0988750Y0539000D03*
X0962500Y0537750D03*
X0997500Y0567750D03*
X1006700Y0561950D03*
X1011250Y0559000D03*
X1015000Y0556500D03*
X1018750Y0554000D03*
X1026250Y0542750D03*
X1026250Y0534000D03*
X1007500Y0504000D03*
X1037500Y0496500D03*
X0978750Y0570250D03*
X0982500Y0572750D03*
X0986250Y0575250D03*
X0990000Y0577750D03*
X1006700Y0597300D03*
X0998750Y0597750D03*
X1011170Y0604080D03*
X1014270Y0607230D03*
X1017370Y0610380D03*
X1011250Y0631500D03*
X1011250Y0636500D03*
X1013750Y0644000D03*
X1058750Y0641500D03*
X1058750Y0626500D03*
X1025000Y0691500D03*
X1020000Y0697750D03*
X1000000Y0695250D03*
X0995000Y0697750D03*
X0986250Y0701500D03*
X0978750Y0697750D03*
D57*
X0975000Y0694000D01*
X0975000Y0681500D01*
X0970000Y0676500D01*
X0973750Y0674000D02*
X0976250Y0676500D01*
X0985000Y0676500D01*
X0987500Y0679000D01*
X0987500Y0697750D01*
X0992500Y0702750D01*
X1006250Y0702750D01*
X1010000Y0706500D01*
X1020000Y0706500D02*
X1020000Y0697750D01*
X1025000Y0701500D02*
X1030000Y0706500D01*
X1025000Y0701500D02*
X1025000Y0691500D01*
X1031250Y0681500D02*
X1031250Y0659000D01*
X1036250Y0659000D02*
X1036250Y0677750D01*
X1041250Y0674000D02*
X1041250Y0658740D01*
X1022500Y0652750D02*
X1022500Y0671500D01*
X1037500Y0686500D02*
X1037500Y0704000D01*
X1040000Y0706500D01*
X1000000Y0695250D02*
X1000000Y0651500D01*
X0996670Y0648170D02*
X0995000Y0646500D01*
X0995000Y0620250D01*
X0991250Y0617750D02*
X0993750Y0615250D01*
X0991250Y0612750D02*
X0988750Y0615250D01*
X0988750Y0664000D01*
X0986250Y0662750D02*
X0985000Y0664000D01*
X0985000Y0666500D01*
X0986250Y0662750D02*
X0986250Y0615250D01*
X0987500Y0614000D01*
X0987500Y0611500D01*
X0991250Y0612750D02*
X0991250Y0609000D01*
X0983750Y0614000D02*
X0983750Y0662750D01*
X0981250Y0665250D01*
X0981250Y0669000D01*
X0977500Y0671500D02*
X0980000Y0674000D01*
X0986250Y0674000D01*
X0991250Y0679000D01*
X0991250Y0694000D01*
X0995000Y0697750D01*
X0986250Y0701500D02*
X0977500Y0701500D01*
X0970000Y0694000D01*
X0970000Y0681500D01*
X0965000Y0676500D01*
X0977500Y0662750D02*
X0938750Y0662750D01*
X0935000Y0659000D01*
X0932500Y0662750D02*
X0932500Y0669000D01*
X0937500Y0669000D02*
X0937500Y0666500D01*
X0937500Y0686500D01*
X0940000Y0689000D01*
X0940000Y0696500D01*
X0950000Y0706500D01*
X0948750Y0701500D02*
X0965000Y0701500D01*
X0970000Y0706500D01*
X0948750Y0701500D02*
X0943750Y0696500D01*
X0943750Y0676500D01*
X0932500Y0674000D02*
X0932500Y0681500D01*
X0931250Y0685250D02*
X0931250Y0697750D01*
X0940000Y0706500D01*
X0930000Y0706500D02*
X0928750Y0707750D01*
X0902500Y0707750D01*
X0892500Y0697750D01*
X0892500Y0671500D01*
X0895000Y0669000D01*
X0900000Y0669000D02*
X0902500Y0671500D01*
X0902500Y0681500D01*
X0907500Y0686500D01*
X0907500Y0696500D01*
X0902500Y0696500D02*
X0902500Y0686500D01*
X0910000Y0680250D02*
X0912500Y0682750D01*
X0912500Y0691500D01*
X0925000Y0691500D02*
X0925000Y0681500D01*
X0928750Y0682750D02*
X0931250Y0685250D01*
X0928750Y0682750D02*
X0928750Y0672750D01*
X0920000Y0664000D01*
X0920000Y0624000D01*
X0917500Y0621500D01*
X0922500Y0619000D02*
X0922500Y0664000D01*
X0932500Y0674000D01*
X0927500Y0664000D02*
X0927500Y0651500D01*
X0937500Y0641500D01*
X0971250Y0641500D01*
X0972500Y0642750D01*
X0968750Y0644000D02*
X0972500Y0647750D01*
X0968750Y0644000D02*
X0940000Y0644000D01*
X0930000Y0654000D01*
X0930000Y0660250D01*
X0932500Y0662750D01*
X0940000Y0659000D02*
X0973750Y0659000D01*
X0970000Y0655250D02*
X0941250Y0655250D01*
X0940000Y0654000D01*
X0942500Y0651500D02*
X0960000Y0651500D01*
X0952500Y0636500D02*
X0937500Y0636500D01*
X0935000Y0634000D01*
X0935000Y0611500D01*
X0937500Y0609000D01*
X0932500Y0602750D02*
X0937500Y0597750D01*
X0937500Y0589000D01*
X0942500Y0584000D01*
X0942500Y0547750D01*
X0940000Y0550250D02*
X0937500Y0547750D01*
X0937500Y0531500D01*
X0945000Y0534000D02*
X0945000Y0539000D01*
X0957500Y0551500D01*
X0957500Y0579000D01*
X0962500Y0584000D01*
X0962500Y0597750D01*
X0967500Y0599000D02*
X0967500Y0586500D01*
X0960000Y0579000D01*
X0960000Y0549000D01*
X0950000Y0539000D01*
X0950000Y0534000D02*
X0956250Y0540250D01*
X0956250Y0541500D01*
X0962500Y0547750D01*
X0962500Y0579000D01*
X0970000Y0586500D01*
X0970000Y0596500D01*
X0971250Y0597750D01*
X0971250Y0601500D01*
X0975000Y0599000D02*
X0972500Y0596500D01*
X0972500Y0586500D01*
X0965000Y0579000D01*
X0965000Y0546500D01*
X0958750Y0540250D01*
X0958750Y0537750D01*
X0955000Y0534000D01*
X0950000Y0534000D02*
X0950000Y0529000D01*
X0932500Y0546500D02*
X0935000Y0549000D01*
X0935000Y0584000D01*
X0935000Y0589000D02*
X0940000Y0584000D01*
X0940000Y0550250D01*
X0905000Y0565250D02*
X0897500Y0557750D01*
X0887500Y0557750D01*
X0880000Y0550250D01*
X0880000Y0539000D01*
X0875000Y0534000D02*
X0880000Y0529000D01*
X0875000Y0534000D02*
X0875000Y0551500D01*
X0886250Y0562750D01*
X0893750Y0562750D01*
X0902500Y0571500D01*
X0902500Y0599000D01*
X0897500Y0604000D01*
X0897500Y0606500D01*
X0893750Y0609000D02*
X0893750Y0572750D01*
X0870000Y0549000D01*
X0870000Y0539000D01*
X0865000Y0534000D02*
X0870000Y0529000D01*
X0865000Y0534000D02*
X0865000Y0546500D01*
X0891250Y0572750D01*
X0891250Y0606500D01*
X0890000Y0607750D01*
X0890000Y0611500D01*
X0886250Y0609000D02*
X0886250Y0614000D01*
X0882500Y0616500D02*
X0882500Y0610250D01*
X0886250Y0606500D01*
X0886250Y0572750D01*
X0855000Y0541500D01*
X0855000Y0534000D01*
X0860000Y0529000D01*
X0860000Y0539000D02*
X0860000Y0544000D01*
X0888750Y0572750D01*
X0888750Y0606500D01*
X0886250Y0609000D01*
X0883750Y0604000D02*
X0878750Y0609000D01*
X0875000Y0606500D02*
X0881250Y0600250D01*
X0881250Y0572750D01*
X0852500Y0544000D01*
X0847500Y0544000D01*
X0845000Y0541500D01*
X0845000Y0534000D01*
X0850000Y0529000D01*
X0850000Y0539000D02*
X0883750Y0572750D01*
X0883750Y0604000D01*
X0873750Y0600250D02*
X0856250Y0582750D01*
X0856250Y0564000D01*
X0840000Y0547750D01*
X0840000Y0539000D01*
X0863750Y0565250D02*
X0863750Y0585250D01*
X0870000Y0611500D02*
X0867500Y0614000D01*
X0867500Y0669000D01*
X0840000Y0696500D01*
X0850000Y0696500D02*
X0850000Y0689000D01*
X0870000Y0669000D01*
X0870000Y0619000D01*
X0872500Y0616500D01*
X0875000Y0621500D02*
X0872500Y0624000D01*
X0872500Y0681500D01*
X0860000Y0694000D01*
X0860000Y0696500D01*
X0870000Y0696500D02*
X0875000Y0691500D01*
X0875000Y0629000D01*
X0877500Y0626500D01*
X0902500Y0604000D02*
X0905000Y0601500D01*
X0905000Y0565250D01*
X0935000Y0589000D02*
X0935000Y0595250D01*
X0932500Y0597750D01*
X0932500Y0602750D02*
X0932500Y0636500D01*
X0940000Y0629000D02*
X0952500Y0629000D01*
X0955000Y0626500D01*
X0955000Y0592750D01*
X0958750Y0589000D01*
X0978750Y0575250D02*
X0978750Y0570250D01*
X0982500Y0572750D02*
X0982500Y0576500D01*
X0985000Y0579000D01*
X0985000Y0599000D01*
X0973750Y0610250D01*
X0973750Y0632750D01*
X0977500Y0630250D02*
X0976250Y0629000D01*
X0976250Y0610250D01*
X0987500Y0599000D01*
X0987500Y0579000D01*
X0986250Y0577750D01*
X0986250Y0575250D01*
X0982500Y0579000D02*
X0978750Y0575250D01*
X0982500Y0579000D02*
X0982500Y0599000D01*
X0971250Y0610250D01*
X0971250Y0629000D01*
X0970000Y0630250D01*
X0977500Y0630250D02*
X0977500Y0635250D01*
X0981250Y0629000D02*
X0980000Y0627750D01*
X0981250Y0629000D02*
X0981250Y0645250D01*
X0980000Y0646500D01*
X0980000Y0647300D01*
X0991250Y0661500D02*
X0995000Y0665250D01*
X0991250Y0661500D02*
X0991250Y0617750D01*
X0980000Y0616500D02*
X0980000Y0609000D01*
X0990000Y0599000D01*
X0990000Y0577750D01*
X0997500Y0567750D02*
X0997500Y0596500D01*
X0998750Y0597750D01*
X1006700Y0597300D02*
X1006700Y0561950D01*
X1008750Y0565250D02*
X1011170Y0562830D01*
X1011170Y0559080D01*
X1011250Y0559000D01*
X1015000Y0561500D02*
X1015000Y0556500D01*
X1018750Y0554000D02*
X1018750Y0561500D01*
X1015000Y0565250D01*
X1015000Y0595250D01*
X1018750Y0599000D01*
X1018750Y0609000D01*
X1017370Y0610380D01*
X1014270Y0607230D02*
X1015000Y0606500D01*
X1015000Y0599000D01*
X1011250Y0595250D01*
X1011250Y0565250D01*
X1015000Y0561500D01*
X1008750Y0565250D02*
X1008750Y0595250D01*
X1011250Y0597750D01*
X1011170Y0604080D01*
X1013750Y0644000D02*
X1022500Y0652750D01*
X0942500Y0651500D02*
X0940000Y0649000D01*
X0915000Y0634000D02*
X0910000Y0639000D01*
X0910000Y0680250D01*
X0887500Y0669000D02*
X0887500Y0699000D01*
X0880000Y0706500D01*
X0877500Y0699000D02*
X0870000Y0706500D01*
X0877500Y0699000D02*
X0877500Y0671500D01*
X0880000Y0669000D01*
X0882500Y0669000D01*
D48*
X0882500Y0692750D03*
D39*
X1037500Y0686500D02*
X1067500Y0656500D01*
X1067500Y0532750D01*
X1060000Y0525250D01*
X1060000Y0499000D01*
X1053750Y0492750D01*
X0926250Y0492750D01*
X0920000Y0499000D01*
X0920000Y0504000D01*
X0835000Y0730000D02*
G75*
%LPD*%
D92*
X0920000Y0744000D03*
X0920000Y0754000D03*
X0870000Y0936500D03*
X0870000Y0946500D03*
X0880000Y0946500D03*
X0890000Y0946500D03*
X0860000Y0946500D03*
X0860000Y0936500D03*
X0850000Y0936500D03*
X0850000Y0946500D03*
X0840000Y0946500D03*
X0930000Y0946500D03*
X0940000Y0946500D03*
X0950000Y0946500D03*
X0960000Y0946500D03*
X0970000Y0946500D03*
X0980000Y0946500D03*
X1010000Y0946500D03*
X1020000Y0946500D03*
X1030000Y0946500D03*
X1040000Y0946500D03*
X1050000Y0946500D03*
D102*
X0840000Y0769000D03*
X0850000Y0769000D03*
X0860000Y0769000D03*
X0870000Y0769000D03*
X0880000Y0769000D03*
X0880000Y0779000D03*
X0870000Y0779000D03*
X0860000Y0779000D03*
X0850000Y0779000D03*
X0840000Y0779000D03*
D38*
X0890000Y0754000D03*
X0930000Y0744000D03*
X0950000Y0754000D03*
X1045000Y0754000D03*
X1045000Y0744000D03*
D82*
X1055000Y0744000D03*
X1065000Y0744000D03*
X1065000Y0754000D03*
X1055000Y0754000D03*
X0950000Y0744000D03*
X0940000Y0744000D03*
X0940000Y0754000D03*
X0930000Y0754000D03*
X0910000Y0754000D03*
X0900000Y0754000D03*
D44*
X0840000Y0936500D03*
D86*
X1065810Y0946690D03*
X1065810Y0913810D03*
D69*
X1053510Y0921490D02*
X1049150Y0921490D01*
X1049150Y0939010D02*
X1053510Y0939010D01*
D51*
X1037500Y0926500D03*
X1031250Y0921500D03*
X1036250Y0917750D03*
X1041250Y0914000D03*
X1041250Y0898740D03*
X1036250Y0899000D03*
X1031250Y0899000D03*
X1022500Y0911500D03*
X1000000Y0891500D03*
X0996670Y0888170D03*
X0980000Y0887300D03*
X0972500Y0887750D03*
X0972500Y0882750D03*
X0967500Y0887750D03*
X0960000Y0891500D03*
X0952500Y0887750D03*
X0952500Y0876500D03*
X0940000Y0869000D03*
X0940000Y0864000D03*
X0940000Y0859000D03*
X0937500Y0849000D03*
X0932500Y0837750D03*
X0922500Y0837750D03*
X0935000Y0824000D03*
X0942500Y0829000D03*
X0957500Y0824000D03*
X0958750Y0829000D03*
X0962500Y0837750D03*
X0967500Y0839000D03*
X0971250Y0841500D03*
X0975000Y0839000D03*
X0987500Y0851500D03*
X0991250Y0849000D03*
X0993750Y0855250D03*
X0995000Y0860250D03*
X0983750Y0854000D03*
X0980000Y0856500D03*
X0980000Y0867750D03*
X0973750Y0872750D03*
X0977500Y0875250D03*
X0970000Y0870250D03*
X0970000Y0895250D03*
X0973750Y0899000D03*
X0977500Y0902750D03*
X0981250Y0909000D03*
X0985000Y0906500D03*
X0988750Y0904000D03*
X0995000Y0905250D03*
X0977500Y0911500D03*
X0973750Y0914000D03*
X0970000Y0916500D03*
X0965000Y0916500D03*
X0963750Y0911500D03*
X0952500Y0911500D03*
X0947500Y0911500D03*
X0943750Y0916500D03*
X0932500Y0921500D03*
X0925000Y0921500D03*
X0925000Y0931500D03*
X0912500Y0931500D03*
X0907500Y0936500D03*
X0902500Y0936500D03*
X0897500Y0932750D03*
X0897500Y0926500D03*
X0902500Y0926500D03*
X0905000Y0944000D03*
X0882500Y0926500D03*
X0870000Y0929000D03*
X0860000Y0924000D03*
X0882500Y0909000D03*
X0887500Y0909000D03*
X0895000Y0909000D03*
X0900000Y0909000D03*
X0913750Y0910250D03*
X0920000Y0910250D03*
X0927500Y0904000D03*
X0932500Y0909000D03*
X0937500Y0906500D03*
X0940000Y0899000D03*
X0940000Y0894000D03*
X0940000Y0889000D03*
X0935000Y0899000D03*
X0932500Y0876500D03*
X0915000Y0874000D03*
X0917500Y0861500D03*
X0922500Y0859000D03*
X0902500Y0844000D03*
X0897500Y0846500D03*
X0893750Y0849000D03*
X0890000Y0851500D03*
X0886250Y0854000D03*
X0882500Y0856500D03*
X0875000Y0861500D03*
X0877500Y0866500D03*
X0872500Y0856500D03*
X0870000Y0851500D03*
X0875000Y0846500D03*
X0878750Y0849000D03*
X0873750Y0840250D03*
X0872500Y0824000D03*
X0877500Y0824000D03*
X0863750Y0825250D03*
X0853750Y0827750D03*
X0853750Y0844000D03*
X0853750Y0859000D03*
X0855000Y0871500D03*
X0855000Y0886500D03*
X0857500Y0899000D03*
X0853750Y0900250D03*
X0898750Y0837750D03*
X0917500Y0811500D03*
X0895000Y0809000D03*
X0868750Y0809000D03*
X0863750Y0805250D03*
X0860000Y0809000D03*
X0852500Y0809000D03*
X0885000Y0784000D03*
X0920000Y0784000D03*
X0927500Y0784000D03*
X0932500Y0786500D03*
X0942500Y0787750D03*
X0950000Y0779000D03*
X0955000Y0774000D03*
X0950000Y0769000D03*
X0945000Y0774000D03*
X0937500Y0771500D03*
X0920000Y0771500D03*
X0882500Y0744000D03*
X0882500Y0735250D03*
X0960000Y0754000D03*
X0987500Y0744000D03*
X0992500Y0751500D03*
X0992500Y0757750D03*
X0997500Y0757750D03*
X0997500Y0767750D03*
X0992500Y0767750D03*
X0988750Y0779000D03*
X0962500Y0777750D03*
X0997500Y0807750D03*
X1006700Y0801950D03*
X1011250Y0799000D03*
X1015000Y0796500D03*
X1018750Y0794000D03*
X1026250Y0782750D03*
X1026250Y0774000D03*
X1007500Y0744000D03*
X1037500Y0736500D03*
X0978750Y0810250D03*
X0982500Y0812750D03*
X0986250Y0815250D03*
X0990000Y0817750D03*
X1006700Y0837300D03*
X0998750Y0837750D03*
X1011170Y0844080D03*
X1014270Y0847230D03*
X1017370Y0850380D03*
X1011250Y0871500D03*
X1011250Y0876500D03*
X1013750Y0884000D03*
X1058750Y0881500D03*
X1058750Y0866500D03*
X1025000Y0931500D03*
X1020000Y0937750D03*
X1000000Y0935250D03*
X0995000Y0937750D03*
X0986250Y0941500D03*
X0978750Y0937750D03*
D57*
X0975000Y0934000D01*
X0975000Y0921500D01*
X0970000Y0916500D01*
X0973750Y0914000D02*
X0976250Y0916500D01*
X0985000Y0916500D01*
X0987500Y0919000D01*
X0987500Y0937750D01*
X0992500Y0942750D01*
X1006250Y0942750D01*
X1010000Y0946500D01*
X1020000Y0946500D02*
X1020000Y0937750D01*
X1025000Y0941500D02*
X1030000Y0946500D01*
X1025000Y0941500D02*
X1025000Y0931500D01*
X1031250Y0921500D02*
X1031250Y0899000D01*
X1036250Y0899000D02*
X1036250Y0917750D01*
X1041250Y0914000D02*
X1041250Y0898740D01*
X1022500Y0892750D02*
X1022500Y0911500D01*
X1037500Y0926500D02*
X1037500Y0944000D01*
X1040000Y0946500D01*
X1000000Y0935250D02*
X1000000Y0891500D01*
X0996670Y0888170D02*
X0995000Y0886500D01*
X0995000Y0860250D01*
X0991250Y0857750D02*
X0993750Y0855250D01*
X0991250Y0852750D02*
X0988750Y0855250D01*
X0988750Y0904000D01*
X0986250Y0902750D02*
X0985000Y0904000D01*
X0985000Y0906500D01*
X0986250Y0902750D02*
X0986250Y0855250D01*
X0987500Y0854000D01*
X0987500Y0851500D01*
X0991250Y0852750D02*
X0991250Y0849000D01*
X0983750Y0854000D02*
X0983750Y0902750D01*
X0981250Y0905250D01*
X0981250Y0909000D01*
X0977500Y0911500D02*
X0980000Y0914000D01*
X0986250Y0914000D01*
X0991250Y0919000D01*
X0991250Y0934000D01*
X0995000Y0937750D01*
X0986250Y0941500D02*
X0977500Y0941500D01*
X0970000Y0934000D01*
X0970000Y0921500D01*
X0965000Y0916500D01*
X0977500Y0902750D02*
X0938750Y0902750D01*
X0935000Y0899000D01*
X0932500Y0902750D02*
X0932500Y0909000D01*
X0937500Y0909000D02*
X0937500Y0906500D01*
X0937500Y0926500D01*
X0940000Y0929000D01*
X0940000Y0936500D01*
X0950000Y0946500D01*
X0948750Y0941500D02*
X0965000Y0941500D01*
X0970000Y0946500D01*
X0948750Y0941500D02*
X0943750Y0936500D01*
X0943750Y0916500D01*
X0932500Y0914000D02*
X0932500Y0921500D01*
X0931250Y0925250D02*
X0931250Y0937750D01*
X0940000Y0946500D01*
X0930000Y0946500D02*
X0928750Y0947750D01*
X0902500Y0947750D01*
X0892500Y0937750D01*
X0892500Y0911500D01*
X0895000Y0909000D01*
X0900000Y0909000D02*
X0902500Y0911500D01*
X0902500Y0921500D01*
X0907500Y0926500D01*
X0907500Y0936500D01*
X0902500Y0936500D02*
X0902500Y0926500D01*
X0910000Y0920250D02*
X0912500Y0922750D01*
X0912500Y0931500D01*
X0925000Y0931500D02*
X0925000Y0921500D01*
X0928750Y0922750D02*
X0931250Y0925250D01*
X0928750Y0922750D02*
X0928750Y0912750D01*
X0920000Y0904000D01*
X0920000Y0864000D01*
X0917500Y0861500D01*
X0922500Y0859000D02*
X0922500Y0904000D01*
X0932500Y0914000D01*
X0927500Y0904000D02*
X0927500Y0891500D01*
X0937500Y0881500D01*
X0971250Y0881500D01*
X0972500Y0882750D01*
X0968750Y0884000D02*
X0972500Y0887750D01*
X0968750Y0884000D02*
X0940000Y0884000D01*
X0930000Y0894000D01*
X0930000Y0900250D01*
X0932500Y0902750D01*
X0940000Y0899000D02*
X0973750Y0899000D01*
X0970000Y0895250D02*
X0941250Y0895250D01*
X0940000Y0894000D01*
X0942500Y0891500D02*
X0960000Y0891500D01*
X0952500Y0876500D02*
X0937500Y0876500D01*
X0935000Y0874000D01*
X0935000Y0851500D01*
X0937500Y0849000D01*
X0932500Y0842750D02*
X0937500Y0837750D01*
X0937500Y0829000D01*
X0942500Y0824000D01*
X0942500Y0787750D01*
X0940000Y0790250D02*
X0937500Y0787750D01*
X0937500Y0771500D01*
X0945000Y0774000D02*
X0945000Y0779000D01*
X0957500Y0791500D01*
X0957500Y0819000D01*
X0962500Y0824000D01*
X0962500Y0837750D01*
X0967500Y0839000D02*
X0967500Y0826500D01*
X0960000Y0819000D01*
X0960000Y0789000D01*
X0950000Y0779000D01*
X0950000Y0774000D02*
X0956250Y0780250D01*
X0956250Y0781500D01*
X0962500Y0787750D01*
X0962500Y0819000D01*
X0970000Y0826500D01*
X0970000Y0836500D01*
X0971250Y0837750D01*
X0971250Y0841500D01*
X0975000Y0839000D02*
X0972500Y0836500D01*
X0972500Y0826500D01*
X0965000Y0819000D01*
X0965000Y0786500D01*
X0958750Y0780250D01*
X0958750Y0777750D01*
X0955000Y0774000D01*
X0950000Y0774000D02*
X0950000Y0769000D01*
X0932500Y0786500D02*
X0935000Y0789000D01*
X0935000Y0824000D01*
X0935000Y0829000D02*
X0940000Y0824000D01*
X0940000Y0790250D01*
X0905000Y0805250D02*
X0897500Y0797750D01*
X0887500Y0797750D01*
X0880000Y0790250D01*
X0880000Y0779000D01*
X0875000Y0774000D02*
X0880000Y0769000D01*
X0875000Y0774000D02*
X0875000Y0791500D01*
X0886250Y0802750D01*
X0893750Y0802750D01*
X0902500Y0811500D01*
X0902500Y0839000D01*
X0897500Y0844000D01*
X0897500Y0846500D01*
X0893750Y0849000D02*
X0893750Y0812750D01*
X0870000Y0789000D01*
X0870000Y0779000D01*
X0865000Y0774000D02*
X0870000Y0769000D01*
X0865000Y0774000D02*
X0865000Y0786500D01*
X0891250Y0812750D01*
X0891250Y0846500D01*
X0890000Y0847750D01*
X0890000Y0851500D01*
X0886250Y0849000D02*
X0886250Y0854000D01*
X0882500Y0856500D02*
X0882500Y0850250D01*
X0886250Y0846500D01*
X0886250Y0812750D01*
X0855000Y0781500D01*
X0855000Y0774000D01*
X0860000Y0769000D01*
X0860000Y0779000D02*
X0860000Y0784000D01*
X0888750Y0812750D01*
X0888750Y0846500D01*
X0886250Y0849000D01*
X0883750Y0844000D02*
X0878750Y0849000D01*
X0875000Y0846500D02*
X0881250Y0840250D01*
X0881250Y0812750D01*
X0852500Y0784000D01*
X0847500Y0784000D01*
X0845000Y0781500D01*
X0845000Y0774000D01*
X0850000Y0769000D01*
X0850000Y0779000D02*
X0883750Y0812750D01*
X0883750Y0844000D01*
X0873750Y0840250D02*
X0856250Y0822750D01*
X0856250Y0804000D01*
X0840000Y0787750D01*
X0840000Y0779000D01*
X0863750Y0805250D02*
X0863750Y0825250D01*
X0870000Y0851500D02*
X0867500Y0854000D01*
X0867500Y0909000D01*
X0840000Y0936500D01*
X0850000Y0936500D02*
X0850000Y0929000D01*
X0870000Y0909000D01*
X0870000Y0859000D01*
X0872500Y0856500D01*
X0875000Y0861500D02*
X0872500Y0864000D01*
X0872500Y0921500D01*
X0860000Y0934000D01*
X0860000Y0936500D01*
X0870000Y0936500D02*
X0875000Y0931500D01*
X0875000Y0869000D01*
X0877500Y0866500D01*
X0902500Y0844000D02*
X0905000Y0841500D01*
X0905000Y0805250D01*
X0935000Y0829000D02*
X0935000Y0835250D01*
X0932500Y0837750D01*
X0932500Y0842750D02*
X0932500Y0876500D01*
X0940000Y0869000D02*
X0952500Y0869000D01*
X0955000Y0866500D01*
X0955000Y0832750D01*
X0958750Y0829000D01*
X0978750Y0815250D02*
X0978750Y0810250D01*
X0982500Y0812750D02*
X0982500Y0816500D01*
X0985000Y0819000D01*
X0985000Y0839000D01*
X0973750Y0850250D01*
X0973750Y0872750D01*
X0977500Y0870250D02*
X0976250Y0869000D01*
X0976250Y0850250D01*
X0987500Y0839000D01*
X0987500Y0819000D01*
X0986250Y0817750D01*
X0986250Y0815250D01*
X0982500Y0819000D02*
X0978750Y0815250D01*
X0982500Y0819000D02*
X0982500Y0839000D01*
X0971250Y0850250D01*
X0971250Y0869000D01*
X0970000Y0870250D01*
X0977500Y0870250D02*
X0977500Y0875250D01*
X0981250Y0869000D02*
X0980000Y0867750D01*
X0981250Y0869000D02*
X0981250Y0885250D01*
X0980000Y0886500D01*
X0980000Y0887300D01*
X0991250Y0901500D02*
X0995000Y0905250D01*
X0991250Y0901500D02*
X0991250Y0857750D01*
X0980000Y0856500D02*
X0980000Y0849000D01*
X0990000Y0839000D01*
X0990000Y0817750D01*
X0997500Y0807750D02*
X0997500Y0836500D01*
X0998750Y0837750D01*
X1006700Y0837300D02*
X1006700Y0801950D01*
X1008750Y0805250D02*
X1011170Y0802830D01*
X1011170Y0799080D01*
X1011250Y0799000D01*
X1015000Y0801500D02*
X1015000Y0796500D01*
X1018750Y0794000D02*
X1018750Y0801500D01*
X1015000Y0805250D01*
X1015000Y0835250D01*
X1018750Y0839000D01*
X1018750Y0849000D01*
X1017370Y0850380D01*
X1014270Y0847230D02*
X1015000Y0846500D01*
X1015000Y0839000D01*
X1011250Y0835250D01*
X1011250Y0805250D01*
X1015000Y0801500D01*
X1008750Y0805250D02*
X1008750Y0835250D01*
X1011250Y0837750D01*
X1011170Y0844080D01*
X1013750Y0884000D02*
X1022500Y0892750D01*
X0942500Y0891500D02*
X0940000Y0889000D01*
X0915000Y0874000D02*
X0910000Y0879000D01*
X0910000Y0920250D01*
X0887500Y0909000D02*
X0887500Y0939000D01*
X0880000Y0946500D01*
X0877500Y0939000D02*
X0870000Y0946500D01*
X0877500Y0939000D02*
X0877500Y0911500D01*
X0880000Y0909000D01*
X0882500Y0909000D01*
D48*
X0882500Y0932750D03*
D39*
X1037500Y0926500D02*
X1067500Y0896500D01*
X1067500Y0772750D01*
X1060000Y0765250D01*
X1060000Y0739000D01*
X1053750Y0732750D01*
X0926250Y0732750D01*
X0920000Y0739000D01*
X0920000Y0744000D01*
X1085000Y0010000D02*
G75*
%LPD*%
D92*
X1170000Y0024000D03*
X1170000Y0034000D03*
X1120000Y0216500D03*
X1120000Y0226500D03*
X1130000Y0226500D03*
X1140000Y0226500D03*
X1110000Y0226500D03*
X1110000Y0216500D03*
X1100000Y0216500D03*
X1100000Y0226500D03*
X1090000Y0226500D03*
X1180000Y0226500D03*
X1190000Y0226500D03*
X1200000Y0226500D03*
X1210000Y0226500D03*
X1220000Y0226500D03*
X1230000Y0226500D03*
X1260000Y0226500D03*
X1270000Y0226500D03*
X1280000Y0226500D03*
X1290000Y0226500D03*
X1300000Y0226500D03*
D102*
X1090000Y0049000D03*
X1100000Y0049000D03*
X1110000Y0049000D03*
X1120000Y0049000D03*
X1130000Y0049000D03*
X1130000Y0059000D03*
X1120000Y0059000D03*
X1110000Y0059000D03*
X1100000Y0059000D03*
X1090000Y0059000D03*
D38*
X1140000Y0034000D03*
X1180000Y0024000D03*
X1200000Y0034000D03*
X1295000Y0034000D03*
X1295000Y0024000D03*
D82*
X1305000Y0024000D03*
X1315000Y0024000D03*
X1315000Y0034000D03*
X1305000Y0034000D03*
X1200000Y0024000D03*
X1190000Y0024000D03*
X1190000Y0034000D03*
X1180000Y0034000D03*
X1160000Y0034000D03*
X1150000Y0034000D03*
D44*
X1090000Y0216500D03*
D86*
X1315810Y0226690D03*
X1315810Y0193810D03*
D69*
X1303510Y0201490D02*
X1299150Y0201490D01*
X1299150Y0219010D02*
X1303510Y0219010D01*
D51*
X1287500Y0206500D03*
X1281250Y0201500D03*
X1286250Y0197750D03*
X1291250Y0194000D03*
X1291250Y0178740D03*
X1286250Y0179000D03*
X1281250Y0179000D03*
X1272500Y0191500D03*
X1250000Y0171500D03*
X1246670Y0168170D03*
X1230000Y0167300D03*
X1222500Y0167750D03*
X1222500Y0162750D03*
X1217500Y0167750D03*
X1210000Y0171500D03*
X1202500Y0167750D03*
X1202500Y0156500D03*
X1190000Y0149000D03*
X1190000Y0144000D03*
X1190000Y0139000D03*
X1187500Y0129000D03*
X1182500Y0117750D03*
X1172500Y0117750D03*
X1185000Y0104000D03*
X1192500Y0109000D03*
X1207500Y0104000D03*
X1208750Y0109000D03*
X1212500Y0117750D03*
X1217500Y0119000D03*
X1221250Y0121500D03*
X1225000Y0119000D03*
X1237500Y0131500D03*
X1241250Y0129000D03*
X1243750Y0135250D03*
X1245000Y0140250D03*
X1233750Y0134000D03*
X1230000Y0136500D03*
X1230000Y0147750D03*
X1223750Y0152750D03*
X1227500Y0155250D03*
X1220000Y0150250D03*
X1220000Y0175250D03*
X1223750Y0179000D03*
X1227500Y0182750D03*
X1231250Y0189000D03*
X1235000Y0186500D03*
X1238750Y0184000D03*
X1245000Y0185250D03*
X1227500Y0191500D03*
X1223750Y0194000D03*
X1220000Y0196500D03*
X1215000Y0196500D03*
X1213750Y0191500D03*
X1202500Y0191500D03*
X1197500Y0191500D03*
X1193750Y0196500D03*
X1182500Y0201500D03*
X1175000Y0201500D03*
X1175000Y0211500D03*
X1162500Y0211500D03*
X1157500Y0216500D03*
X1152500Y0216500D03*
X1147500Y0212750D03*
X1147500Y0206500D03*
X1152500Y0206500D03*
X1155000Y0224000D03*
X1132500Y0206500D03*
X1120000Y0209000D03*
X1110000Y0204000D03*
X1132500Y0189000D03*
X1137500Y0189000D03*
X1145000Y0189000D03*
X1150000Y0189000D03*
X1163750Y0190250D03*
X1170000Y0190250D03*
X1177500Y0184000D03*
X1182500Y0189000D03*
X1187500Y0186500D03*
X1190000Y0179000D03*
X1190000Y0174000D03*
X1190000Y0169000D03*
X1185000Y0179000D03*
X1182500Y0156500D03*
X1165000Y0154000D03*
X1167500Y0141500D03*
X1172500Y0139000D03*
X1152500Y0124000D03*
X1147500Y0126500D03*
X1143750Y0129000D03*
X1140000Y0131500D03*
X1136250Y0134000D03*
X1132500Y0136500D03*
X1125000Y0141500D03*
X1127500Y0146500D03*
X1122500Y0136500D03*
X1120000Y0131500D03*
X1125000Y0126500D03*
X1128750Y0129000D03*
X1123750Y0120250D03*
X1122500Y0104000D03*
X1127500Y0104000D03*
X1113750Y0105250D03*
X1103750Y0107750D03*
X1103750Y0124000D03*
X1103750Y0139000D03*
X1105000Y0151500D03*
X1105000Y0166500D03*
X1107500Y0179000D03*
X1103750Y0180250D03*
X1148750Y0117750D03*
X1167500Y0091500D03*
X1145000Y0089000D03*
X1118750Y0089000D03*
X1113750Y0085250D03*
X1110000Y0089000D03*
X1102500Y0089000D03*
X1135000Y0064000D03*
X1170000Y0064000D03*
X1177500Y0064000D03*
X1182500Y0066500D03*
X1192500Y0067750D03*
X1200000Y0059000D03*
X1205000Y0054000D03*
X1200000Y0049000D03*
X1195000Y0054000D03*
X1187500Y0051500D03*
X1170000Y0051500D03*
X1132500Y0024000D03*
X1132500Y0015250D03*
X1210000Y0034000D03*
X1237500Y0024000D03*
X1242500Y0031500D03*
X1242500Y0037750D03*
X1247500Y0037750D03*
X1247500Y0047750D03*
X1242500Y0047750D03*
X1238750Y0059000D03*
X1212500Y0057750D03*
X1247500Y0087750D03*
X1256700Y0081950D03*
X1261250Y0079000D03*
X1265000Y0076500D03*
X1268750Y0074000D03*
X1276250Y0062750D03*
X1276250Y0054000D03*
X1257500Y0024000D03*
X1287500Y0016500D03*
X1228750Y0090250D03*
X1232500Y0092750D03*
X1236250Y0095250D03*
X1240000Y0097750D03*
X1256700Y0117300D03*
X1248750Y0117750D03*
X1261170Y0124080D03*
X1264270Y0127230D03*
X1267370Y0130380D03*
X1261250Y0151500D03*
X1261250Y0156500D03*
X1263750Y0164000D03*
X1308750Y0161500D03*
X1308750Y0146500D03*
X1275000Y0211500D03*
X1270000Y0217750D03*
X1250000Y0215250D03*
X1245000Y0217750D03*
X1236250Y0221500D03*
X1228750Y0217750D03*
D57*
X1225000Y0214000D01*
X1225000Y0201500D01*
X1220000Y0196500D01*
X1223750Y0194000D02*
X1226250Y0196500D01*
X1235000Y0196500D01*
X1237500Y0199000D01*
X1237500Y0217750D01*
X1242500Y0222750D01*
X1256250Y0222750D01*
X1260000Y0226500D01*
X1270000Y0226500D02*
X1270000Y0217750D01*
X1275000Y0221500D02*
X1280000Y0226500D01*
X1275000Y0221500D02*
X1275000Y0211500D01*
X1281250Y0201500D02*
X1281250Y0179000D01*
X1286250Y0179000D02*
X1286250Y0197750D01*
X1291250Y0194000D02*
X1291250Y0178740D01*
X1272500Y0172750D02*
X1272500Y0191500D01*
X1287500Y0206500D02*
X1287500Y0224000D01*
X1290000Y0226500D01*
X1250000Y0215250D02*
X1250000Y0171500D01*
X1246670Y0168170D02*
X1245000Y0166500D01*
X1245000Y0140250D01*
X1241250Y0137750D02*
X1243750Y0135250D01*
X1241250Y0132750D02*
X1238750Y0135250D01*
X1238750Y0184000D01*
X1236250Y0182750D02*
X1235000Y0184000D01*
X1235000Y0186500D01*
X1236250Y0182750D02*
X1236250Y0135250D01*
X1237500Y0134000D01*
X1237500Y0131500D01*
X1241250Y0132750D02*
X1241250Y0129000D01*
X1233750Y0134000D02*
X1233750Y0182750D01*
X1231250Y0185250D01*
X1231250Y0189000D01*
X1227500Y0191500D02*
X1230000Y0194000D01*
X1236250Y0194000D01*
X1241250Y0199000D01*
X1241250Y0214000D01*
X1245000Y0217750D01*
X1236250Y0221500D02*
X1227500Y0221500D01*
X1220000Y0214000D01*
X1220000Y0201500D01*
X1215000Y0196500D01*
X1227500Y0182750D02*
X1188750Y0182750D01*
X1185000Y0179000D01*
X1182500Y0182750D02*
X1182500Y0189000D01*
X1187500Y0189000D02*
X1187500Y0186500D01*
X1187500Y0206500D01*
X1190000Y0209000D01*
X1190000Y0216500D01*
X1200000Y0226500D01*
X1198750Y0221500D02*
X1215000Y0221500D01*
X1220000Y0226500D01*
X1198750Y0221500D02*
X1193750Y0216500D01*
X1193750Y0196500D01*
X1182500Y0194000D02*
X1182500Y0201500D01*
X1181250Y0205250D02*
X1181250Y0217750D01*
X1190000Y0226500D01*
X1180000Y0226500D02*
X1178750Y0227750D01*
X1152500Y0227750D01*
X1142500Y0217750D01*
X1142500Y0191500D01*
X1145000Y0189000D01*
X1150000Y0189000D02*
X1152500Y0191500D01*
X1152500Y0201500D01*
X1157500Y0206500D01*
X1157500Y0216500D01*
X1152500Y0216500D02*
X1152500Y0206500D01*
X1160000Y0200250D02*
X1162500Y0202750D01*
X1162500Y0211500D01*
X1175000Y0211500D02*
X1175000Y0201500D01*
X1178750Y0202750D02*
X1181250Y0205250D01*
X1178750Y0202750D02*
X1178750Y0192750D01*
X1170000Y0184000D01*
X1170000Y0144000D01*
X1167500Y0141500D01*
X1172500Y0139000D02*
X1172500Y0184000D01*
X1182500Y0194000D01*
X1177500Y0184000D02*
X1177500Y0171500D01*
X1187500Y0161500D01*
X1221250Y0161500D01*
X1222500Y0162750D01*
X1218750Y0164000D02*
X1222500Y0167750D01*
X1218750Y0164000D02*
X1190000Y0164000D01*
X1180000Y0174000D01*
X1180000Y0180250D01*
X1182500Y0182750D01*
X1190000Y0179000D02*
X1223750Y0179000D01*
X1220000Y0175250D02*
X1191250Y0175250D01*
X1190000Y0174000D01*
X1192500Y0171500D02*
X1210000Y0171500D01*
X1202500Y0156500D02*
X1187500Y0156500D01*
X1185000Y0154000D01*
X1185000Y0131500D01*
X1187500Y0129000D01*
X1182500Y0122750D02*
X1187500Y0117750D01*
X1187500Y0109000D01*
X1192500Y0104000D01*
X1192500Y0067750D01*
X1190000Y0070250D02*
X1187500Y0067750D01*
X1187500Y0051500D01*
X1195000Y0054000D02*
X1195000Y0059000D01*
X1207500Y0071500D01*
X1207500Y0099000D01*
X1212500Y0104000D01*
X1212500Y0117750D01*
X1217500Y0119000D02*
X1217500Y0106500D01*
X1210000Y0099000D01*
X1210000Y0069000D01*
X1200000Y0059000D01*
X1200000Y0054000D02*
X1206250Y0060250D01*
X1206250Y0061500D01*
X1212500Y0067750D01*
X1212500Y0099000D01*
X1220000Y0106500D01*
X1220000Y0116500D01*
X1221250Y0117750D01*
X1221250Y0121500D01*
X1225000Y0119000D02*
X1222500Y0116500D01*
X1222500Y0106500D01*
X1215000Y0099000D01*
X1215000Y0066500D01*
X1208750Y0060250D01*
X1208750Y0057750D01*
X1205000Y0054000D01*
X1200000Y0054000D02*
X1200000Y0049000D01*
X1182500Y0066500D02*
X1185000Y0069000D01*
X1185000Y0104000D01*
X1185000Y0109000D02*
X1190000Y0104000D01*
X1190000Y0070250D01*
X1155000Y0085250D02*
X1147500Y0077750D01*
X1137500Y0077750D01*
X1130000Y0070250D01*
X1130000Y0059000D01*
X1125000Y0054000D02*
X1130000Y0049000D01*
X1125000Y0054000D02*
X1125000Y0071500D01*
X1136250Y0082750D01*
X1143750Y0082750D01*
X1152500Y0091500D01*
X1152500Y0119000D01*
X1147500Y0124000D01*
X1147500Y0126500D01*
X1143750Y0129000D02*
X1143750Y0092750D01*
X1120000Y0069000D01*
X1120000Y0059000D01*
X1115000Y0054000D02*
X1120000Y0049000D01*
X1115000Y0054000D02*
X1115000Y0066500D01*
X1141250Y0092750D01*
X1141250Y0126500D01*
X1140000Y0127750D01*
X1140000Y0131500D01*
X1136250Y0129000D02*
X1136250Y0134000D01*
X1132500Y0136500D02*
X1132500Y0130250D01*
X1136250Y0126500D01*
X1136250Y0092750D01*
X1105000Y0061500D01*
X1105000Y0054000D01*
X1110000Y0049000D01*
X1110000Y0059000D02*
X1110000Y0064000D01*
X1138750Y0092750D01*
X1138750Y0126500D01*
X1136250Y0129000D01*
X1133750Y0124000D02*
X1128750Y0129000D01*
X1125000Y0126500D02*
X1131250Y0120250D01*
X1131250Y0092750D01*
X1102500Y0064000D01*
X1097500Y0064000D01*
X1095000Y0061500D01*
X1095000Y0054000D01*
X1100000Y0049000D01*
X1100000Y0059000D02*
X1133750Y0092750D01*
X1133750Y0124000D01*
X1123750Y0120250D02*
X1106250Y0102750D01*
X1106250Y0084000D01*
X1090000Y0067750D01*
X1090000Y0059000D01*
X1113750Y0085250D02*
X1113750Y0105250D01*
X1120000Y0131500D02*
X1117500Y0134000D01*
X1117500Y0189000D01*
X1090000Y0216500D01*
X1100000Y0216500D02*
X1100000Y0209000D01*
X1120000Y0189000D01*
X1120000Y0139000D01*
X1122500Y0136500D01*
X1125000Y0141500D02*
X1122500Y0144000D01*
X1122500Y0201500D01*
X1110000Y0214000D01*
X1110000Y0216500D01*
X1120000Y0216500D02*
X1125000Y0211500D01*
X1125000Y0149000D01*
X1127500Y0146500D01*
X1152500Y0124000D02*
X1155000Y0121500D01*
X1155000Y0085250D01*
X1185000Y0109000D02*
X1185000Y0115250D01*
X1182500Y0117750D01*
X1182500Y0122750D02*
X1182500Y0156500D01*
X1190000Y0149000D02*
X1202500Y0149000D01*
X1205000Y0146500D01*
X1205000Y0112750D01*
X1208750Y0109000D01*
X1228750Y0095250D02*
X1228750Y0090250D01*
X1232500Y0092750D02*
X1232500Y0096500D01*
X1235000Y0099000D01*
X1235000Y0119000D01*
X1223750Y0130250D01*
X1223750Y0152750D01*
X1227500Y0150250D02*
X1226250Y0149000D01*
X1226250Y0130250D01*
X1237500Y0119000D01*
X1237500Y0099000D01*
X1236250Y0097750D01*
X1236250Y0095250D01*
X1232500Y0099000D02*
X1228750Y0095250D01*
X1232500Y0099000D02*
X1232500Y0119000D01*
X1221250Y0130250D01*
X1221250Y0149000D01*
X1220000Y0150250D01*
X1227500Y0150250D02*
X1227500Y0155250D01*
X1231250Y0149000D02*
X1230000Y0147750D01*
X1231250Y0149000D02*
X1231250Y0165250D01*
X1230000Y0166500D01*
X1230000Y0167300D01*
X1241250Y0181500D02*
X1245000Y0185250D01*
X1241250Y0181500D02*
X1241250Y0137750D01*
X1230000Y0136500D02*
X1230000Y0129000D01*
X1240000Y0119000D01*
X1240000Y0097750D01*
X1247500Y0087750D02*
X1247500Y0116500D01*
X1248750Y0117750D01*
X1256700Y0117300D02*
X1256700Y0081950D01*
X1258750Y0085250D02*
X1261170Y0082830D01*
X1261170Y0079080D01*
X1261250Y0079000D01*
X1265000Y0081500D02*
X1265000Y0076500D01*
X1268750Y0074000D02*
X1268750Y0081500D01*
X1265000Y0085250D01*
X1265000Y0115250D01*
X1268750Y0119000D01*
X1268750Y0129000D01*
X1267370Y0130380D01*
X1264270Y0127230D02*
X1265000Y0126500D01*
X1265000Y0119000D01*
X1261250Y0115250D01*
X1261250Y0085250D01*
X1265000Y0081500D01*
X1258750Y0085250D02*
X1258750Y0115250D01*
X1261250Y0117750D01*
X1261170Y0124080D01*
X1263750Y0164000D02*
X1272500Y0172750D01*
X1192500Y0171500D02*
X1190000Y0169000D01*
X1165000Y0154000D02*
X1160000Y0159000D01*
X1160000Y0200250D01*
X1137500Y0189000D02*
X1137500Y0219000D01*
X1130000Y0226500D01*
X1127500Y0219000D02*
X1120000Y0226500D01*
X1127500Y0219000D02*
X1127500Y0191500D01*
X1130000Y0189000D01*
X1132500Y0189000D01*
D48*
X1132500Y0212750D03*
D39*
X1287500Y0206500D02*
X1317500Y0176500D01*
X1317500Y0052750D01*
X1310000Y0045250D01*
X1310000Y0019000D01*
X1303750Y0012750D01*
X1176250Y0012750D01*
X1170000Y0019000D01*
X1170000Y0024000D01*
X1085000Y0250000D02*
G75*
%LPD*%
D92*
X1170000Y0264000D03*
X1170000Y0274000D03*
X1120000Y0456500D03*
X1120000Y0466500D03*
X1130000Y0466500D03*
X1140000Y0466500D03*
X1110000Y0466500D03*
X1110000Y0456500D03*
X1100000Y0456500D03*
X1100000Y0466500D03*
X1090000Y0466500D03*
X1180000Y0466500D03*
X1190000Y0466500D03*
X1200000Y0466500D03*
X1210000Y0466500D03*
X1220000Y0466500D03*
X1230000Y0466500D03*
X1260000Y0466500D03*
X1270000Y0466500D03*
X1280000Y0466500D03*
X1290000Y0466500D03*
X1300000Y0466500D03*
D102*
X1090000Y0289000D03*
X1100000Y0289000D03*
X1110000Y0289000D03*
X1120000Y0289000D03*
X1130000Y0289000D03*
X1130000Y0299000D03*
X1120000Y0299000D03*
X1110000Y0299000D03*
X1100000Y0299000D03*
X1090000Y0299000D03*
D38*
X1140000Y0274000D03*
X1180000Y0264000D03*
X1200000Y0274000D03*
X1295000Y0274000D03*
X1295000Y0264000D03*
D82*
X1305000Y0264000D03*
X1315000Y0264000D03*
X1315000Y0274000D03*
X1305000Y0274000D03*
X1200000Y0264000D03*
X1190000Y0264000D03*
X1190000Y0274000D03*
X1180000Y0274000D03*
X1160000Y0274000D03*
X1150000Y0274000D03*
D44*
X1090000Y0456500D03*
D86*
X1315810Y0466690D03*
X1315810Y0433810D03*
D69*
X1303510Y0441490D02*
X1299150Y0441490D01*
X1299150Y0459010D02*
X1303510Y0459010D01*
D51*
X1287500Y0446500D03*
X1281250Y0441500D03*
X1286250Y0437750D03*
X1291250Y0434000D03*
X1291250Y0418740D03*
X1286250Y0419000D03*
X1281250Y0419000D03*
X1272500Y0431500D03*
X1250000Y0411500D03*
X1246670Y0408170D03*
X1230000Y0407300D03*
X1222500Y0407750D03*
X1222500Y0402750D03*
X1217500Y0407750D03*
X1210000Y0411500D03*
X1202500Y0407750D03*
X1202500Y0396500D03*
X1190000Y0389000D03*
X1190000Y0384000D03*
X1190000Y0379000D03*
X1187500Y0369000D03*
X1182500Y0357750D03*
X1172500Y0357750D03*
X1185000Y0344000D03*
X1192500Y0349000D03*
X1207500Y0344000D03*
X1208750Y0349000D03*
X1212500Y0357750D03*
X1217500Y0359000D03*
X1221250Y0361500D03*
X1225000Y0359000D03*
X1237500Y0371500D03*
X1241250Y0369000D03*
X1243750Y0375250D03*
X1245000Y0380250D03*
X1233750Y0374000D03*
X1230000Y0376500D03*
X1230000Y0387750D03*
X1223750Y0392750D03*
X1227500Y0395250D03*
X1220000Y0390250D03*
X1220000Y0415250D03*
X1223750Y0419000D03*
X1227500Y0422750D03*
X1231250Y0429000D03*
X1235000Y0426500D03*
X1238750Y0424000D03*
X1245000Y0425250D03*
X1227500Y0431500D03*
X1223750Y0434000D03*
X1220000Y0436500D03*
X1215000Y0436500D03*
X1213750Y0431500D03*
X1202500Y0431500D03*
X1197500Y0431500D03*
X1193750Y0436500D03*
X1182500Y0441500D03*
X1175000Y0441500D03*
X1175000Y0451500D03*
X1162500Y0451500D03*
X1157500Y0456500D03*
X1152500Y0456500D03*
X1147500Y0452750D03*
X1147500Y0446500D03*
X1152500Y0446500D03*
X1155000Y0464000D03*
X1132500Y0446500D03*
X1120000Y0449000D03*
X1110000Y0444000D03*
X1132500Y0429000D03*
X1137500Y0429000D03*
X1145000Y0429000D03*
X1150000Y0429000D03*
X1163750Y0430250D03*
X1170000Y0430250D03*
X1177500Y0424000D03*
X1182500Y0429000D03*
X1187500Y0426500D03*
X1190000Y0419000D03*
X1190000Y0414000D03*
X1190000Y0409000D03*
X1185000Y0419000D03*
X1182500Y0396500D03*
X1165000Y0394000D03*
X1167500Y0381500D03*
X1172500Y0379000D03*
X1152500Y0364000D03*
X1147500Y0366500D03*
X1143750Y0369000D03*
X1140000Y0371500D03*
X1136250Y0374000D03*
X1132500Y0376500D03*
X1125000Y0381500D03*
X1127500Y0386500D03*
X1122500Y0376500D03*
X1120000Y0371500D03*
X1125000Y0366500D03*
X1128750Y0369000D03*
X1123750Y0360250D03*
X1122500Y0344000D03*
X1127500Y0344000D03*
X1113750Y0345250D03*
X1103750Y0347750D03*
X1103750Y0364000D03*
X1103750Y0379000D03*
X1105000Y0391500D03*
X1105000Y0406500D03*
X1107500Y0419000D03*
X1103750Y0420250D03*
X1148750Y0357750D03*
X1167500Y0331500D03*
X1145000Y0329000D03*
X1118750Y0329000D03*
X1113750Y0325250D03*
X1110000Y0329000D03*
X1102500Y0329000D03*
X1135000Y0304000D03*
X1170000Y0304000D03*
X1177500Y0304000D03*
X1182500Y0306500D03*
X1192500Y0307750D03*
X1200000Y0299000D03*
X1205000Y0294000D03*
X1200000Y0289000D03*
X1195000Y0294000D03*
X1187500Y0291500D03*
X1170000Y0291500D03*
X1132500Y0264000D03*
X1132500Y0255250D03*
X1210000Y0274000D03*
X1237500Y0264000D03*
X1242500Y0271500D03*
X1242500Y0277750D03*
X1247500Y0277750D03*
X1247500Y0287750D03*
X1242500Y0287750D03*
X1238750Y0299000D03*
X1212500Y0297750D03*
X1247500Y0327750D03*
X1256700Y0321950D03*
X1261250Y0319000D03*
X1265000Y0316500D03*
X1268750Y0314000D03*
X1276250Y0302750D03*
X1276250Y0294000D03*
X1257500Y0264000D03*
X1287500Y0256500D03*
X1228750Y0330250D03*
X1232500Y0332750D03*
X1236250Y0335250D03*
X1240000Y0337750D03*
X1256700Y0357300D03*
X1248750Y0357750D03*
X1261170Y0364080D03*
X1264270Y0367230D03*
X1267370Y0370380D03*
X1261250Y0391500D03*
X1261250Y0396500D03*
X1263750Y0404000D03*
X1308750Y0401500D03*
X1308750Y0386500D03*
X1275000Y0451500D03*
X1270000Y0457750D03*
X1250000Y0455250D03*
X1245000Y0457750D03*
X1236250Y0461500D03*
X1228750Y0457750D03*
D57*
X1225000Y0454000D01*
X1225000Y0441500D01*
X1220000Y0436500D01*
X1223750Y0434000D02*
X1226250Y0436500D01*
X1235000Y0436500D01*
X1237500Y0439000D01*
X1237500Y0457750D01*
X1242500Y0462750D01*
X1256250Y0462750D01*
X1260000Y0466500D01*
X1270000Y0466500D02*
X1270000Y0457750D01*
X1275000Y0461500D02*
X1280000Y0466500D01*
X1275000Y0461500D02*
X1275000Y0451500D01*
X1281250Y0441500D02*
X1281250Y0419000D01*
X1286250Y0419000D02*
X1286250Y0437750D01*
X1291250Y0434000D02*
X1291250Y0418740D01*
X1272500Y0412750D02*
X1272500Y0431500D01*
X1287500Y0446500D02*
X1287500Y0464000D01*
X1290000Y0466500D01*
X1250000Y0455250D02*
X1250000Y0411500D01*
X1246670Y0408170D02*
X1245000Y0406500D01*
X1245000Y0380250D01*
X1241250Y0377750D02*
X1243750Y0375250D01*
X1241250Y0372750D02*
X1238750Y0375250D01*
X1238750Y0424000D01*
X1236250Y0422750D02*
X1235000Y0424000D01*
X1235000Y0426500D01*
X1236250Y0422750D02*
X1236250Y0375250D01*
X1237500Y0374000D01*
X1237500Y0371500D01*
X1241250Y0372750D02*
X1241250Y0369000D01*
X1233750Y0374000D02*
X1233750Y0422750D01*
X1231250Y0425250D01*
X1231250Y0429000D01*
X1227500Y0431500D02*
X1230000Y0434000D01*
X1236250Y0434000D01*
X1241250Y0439000D01*
X1241250Y0454000D01*
X1245000Y0457750D01*
X1236250Y0461500D02*
X1227500Y0461500D01*
X1220000Y0454000D01*
X1220000Y0441500D01*
X1215000Y0436500D01*
X1227500Y0422750D02*
X1188750Y0422750D01*
X1185000Y0419000D01*
X1182500Y0422750D02*
X1182500Y0429000D01*
X1187500Y0429000D02*
X1187500Y0426500D01*
X1187500Y0446500D01*
X1190000Y0449000D01*
X1190000Y0456500D01*
X1200000Y0466500D01*
X1198750Y0461500D02*
X1215000Y0461500D01*
X1220000Y0466500D01*
X1198750Y0461500D02*
X1193750Y0456500D01*
X1193750Y0436500D01*
X1182500Y0434000D02*
X1182500Y0441500D01*
X1181250Y0445250D02*
X1181250Y0457750D01*
X1190000Y0466500D01*
X1180000Y0466500D02*
X1178750Y0467750D01*
X1152500Y0467750D01*
X1142500Y0457750D01*
X1142500Y0431500D01*
X1145000Y0429000D01*
X1150000Y0429000D02*
X1152500Y0431500D01*
X1152500Y0441500D01*
X1157500Y0446500D01*
X1157500Y0456500D01*
X1152500Y0456500D02*
X1152500Y0446500D01*
X1160000Y0440250D02*
X1162500Y0442750D01*
X1162500Y0451500D01*
X1175000Y0451500D02*
X1175000Y0441500D01*
X1178750Y0442750D02*
X1181250Y0445250D01*
X1178750Y0442750D02*
X1178750Y0432750D01*
X1170000Y0424000D01*
X1170000Y0384000D01*
X1167500Y0381500D01*
X1172500Y0379000D02*
X1172500Y0424000D01*
X1182500Y0434000D01*
X1177500Y0424000D02*
X1177500Y0411500D01*
X1187500Y0401500D01*
X1221250Y0401500D01*
X1222500Y0402750D01*
X1218750Y0404000D02*
X1222500Y0407750D01*
X1218750Y0404000D02*
X1190000Y0404000D01*
X1180000Y0414000D01*
X1180000Y0420250D01*
X1182500Y0422750D01*
X1190000Y0419000D02*
X1223750Y0419000D01*
X1220000Y0415250D02*
X1191250Y0415250D01*
X1190000Y0414000D01*
X1192500Y0411500D02*
X1210000Y0411500D01*
X1202500Y0396500D02*
X1187500Y0396500D01*
X1185000Y0394000D01*
X1185000Y0371500D01*
X1187500Y0369000D01*
X1182500Y0362750D02*
X1187500Y0357750D01*
X1187500Y0349000D01*
X1192500Y0344000D01*
X1192500Y0307750D01*
X1190000Y0310250D02*
X1187500Y0307750D01*
X1187500Y0291500D01*
X1195000Y0294000D02*
X1195000Y0299000D01*
X1207500Y0311500D01*
X1207500Y0339000D01*
X1212500Y0344000D01*
X1212500Y0357750D01*
X1217500Y0359000D02*
X1217500Y0346500D01*
X1210000Y0339000D01*
X1210000Y0309000D01*
X1200000Y0299000D01*
X1200000Y0294000D02*
X1206250Y0300250D01*
X1206250Y0301500D01*
X1212500Y0307750D01*
X1212500Y0339000D01*
X1220000Y0346500D01*
X1220000Y0356500D01*
X1221250Y0357750D01*
X1221250Y0361500D01*
X1225000Y0359000D02*
X1222500Y0356500D01*
X1222500Y0346500D01*
X1215000Y0339000D01*
X1215000Y0306500D01*
X1208750Y0300250D01*
X1208750Y0297750D01*
X1205000Y0294000D01*
X1200000Y0294000D02*
X1200000Y0289000D01*
X1182500Y0306500D02*
X1185000Y0309000D01*
X1185000Y0344000D01*
X1185000Y0349000D02*
X1190000Y0344000D01*
X1190000Y0310250D01*
X1155000Y0325250D02*
X1147500Y0317750D01*
X1137500Y0317750D01*
X1130000Y0310250D01*
X1130000Y0299000D01*
X1125000Y0294000D02*
X1130000Y0289000D01*
X1125000Y0294000D02*
X1125000Y0311500D01*
X1136250Y0322750D01*
X1143750Y0322750D01*
X1152500Y0331500D01*
X1152500Y0359000D01*
X1147500Y0364000D01*
X1147500Y0366500D01*
X1143750Y0369000D02*
X1143750Y0332750D01*
X1120000Y0309000D01*
X1120000Y0299000D01*
X1115000Y0294000D02*
X1120000Y0289000D01*
X1115000Y0294000D02*
X1115000Y0306500D01*
X1141250Y0332750D01*
X1141250Y0366500D01*
X1140000Y0367750D01*
X1140000Y0371500D01*
X1136250Y0369000D02*
X1136250Y0374000D01*
X1132500Y0376500D02*
X1132500Y0370250D01*
X1136250Y0366500D01*
X1136250Y0332750D01*
X1105000Y0301500D01*
X1105000Y0294000D01*
X1110000Y0289000D01*
X1110000Y0299000D02*
X1110000Y0304000D01*
X1138750Y0332750D01*
X1138750Y0366500D01*
X1136250Y0369000D01*
X1133750Y0364000D02*
X1128750Y0369000D01*
X1125000Y0366500D02*
X1131250Y0360250D01*
X1131250Y0332750D01*
X1102500Y0304000D01*
X1097500Y0304000D01*
X1095000Y0301500D01*
X1095000Y0294000D01*
X1100000Y0289000D01*
X1100000Y0299000D02*
X1133750Y0332750D01*
X1133750Y0364000D01*
X1123750Y0360250D02*
X1106250Y0342750D01*
X1106250Y0324000D01*
X1090000Y0307750D01*
X1090000Y0299000D01*
X1113750Y0325250D02*
X1113750Y0345250D01*
X1120000Y0371500D02*
X1117500Y0374000D01*
X1117500Y0429000D01*
X1090000Y0456500D01*
X1100000Y0456500D02*
X1100000Y0449000D01*
X1120000Y0429000D01*
X1120000Y0379000D01*
X1122500Y0376500D01*
X1125000Y0381500D02*
X1122500Y0384000D01*
X1122500Y0441500D01*
X1110000Y0454000D01*
X1110000Y0456500D01*
X1120000Y0456500D02*
X1125000Y0451500D01*
X1125000Y0389000D01*
X1127500Y0386500D01*
X1152500Y0364000D02*
X1155000Y0361500D01*
X1155000Y0325250D01*
X1185000Y0349000D02*
X1185000Y0355250D01*
X1182500Y0357750D01*
X1182500Y0362750D02*
X1182500Y0396500D01*
X1190000Y0389000D02*
X1202500Y0389000D01*
X1205000Y0386500D01*
X1205000Y0352750D01*
X1208750Y0349000D01*
X1228750Y0335250D02*
X1228750Y0330250D01*
X1232500Y0332750D02*
X1232500Y0336500D01*
X1235000Y0339000D01*
X1235000Y0359000D01*
X1223750Y0370250D01*
X1223750Y0392750D01*
X1227500Y0390250D02*
X1226250Y0389000D01*
X1226250Y0370250D01*
X1237500Y0359000D01*
X1237500Y0339000D01*
X1236250Y0337750D01*
X1236250Y0335250D01*
X1232500Y0339000D02*
X1228750Y0335250D01*
X1232500Y0339000D02*
X1232500Y0359000D01*
X1221250Y0370250D01*
X1221250Y0389000D01*
X1220000Y0390250D01*
X1227500Y0390250D02*
X1227500Y0395250D01*
X1231250Y0389000D02*
X1230000Y0387750D01*
X1231250Y0389000D02*
X1231250Y0405250D01*
X1230000Y0406500D01*
X1230000Y0407300D01*
X1241250Y0421500D02*
X1245000Y0425250D01*
X1241250Y0421500D02*
X1241250Y0377750D01*
X1230000Y0376500D02*
X1230000Y0369000D01*
X1240000Y0359000D01*
X1240000Y0337750D01*
X1247500Y0327750D02*
X1247500Y0356500D01*
X1248750Y0357750D01*
X1256700Y0357300D02*
X1256700Y0321950D01*
X1258750Y0325250D02*
X1261170Y0322830D01*
X1261170Y0319080D01*
X1261250Y0319000D01*
X1265000Y0321500D02*
X1265000Y0316500D01*
X1268750Y0314000D02*
X1268750Y0321500D01*
X1265000Y0325250D01*
X1265000Y0355250D01*
X1268750Y0359000D01*
X1268750Y0369000D01*
X1267370Y0370380D01*
X1264270Y0367230D02*
X1265000Y0366500D01*
X1265000Y0359000D01*
X1261250Y0355250D01*
X1261250Y0325250D01*
X1265000Y0321500D01*
X1258750Y0325250D02*
X1258750Y0355250D01*
X1261250Y0357750D01*
X1261170Y0364080D01*
X1263750Y0404000D02*
X1272500Y0412750D01*
X1192500Y0411500D02*
X1190000Y0409000D01*
X1165000Y0394000D02*
X1160000Y0399000D01*
X1160000Y0440250D01*
X1137500Y0429000D02*
X1137500Y0459000D01*
X1130000Y0466500D01*
X1127500Y0459000D02*
X1120000Y0466500D01*
X1127500Y0459000D02*
X1127500Y0431500D01*
X1130000Y0429000D01*
X1132500Y0429000D01*
D48*
X1132500Y0452750D03*
D39*
X1287500Y0446500D02*
X1317500Y0416500D01*
X1317500Y0292750D01*
X1310000Y0285250D01*
X1310000Y0259000D01*
X1303750Y0252750D01*
X1176250Y0252750D01*
X1170000Y0259000D01*
X1170000Y0264000D01*
X1085000Y0490000D02*
G75*
%LPD*%
D92*
X1170000Y0504000D03*
X1170000Y0514000D03*
X1120000Y0696500D03*
X1120000Y0706500D03*
X1130000Y0706500D03*
X1140000Y0706500D03*
X1110000Y0706500D03*
X1110000Y0696500D03*
X1100000Y0696500D03*
X1100000Y0706500D03*
X1090000Y0706500D03*
X1180000Y0706500D03*
X1190000Y0706500D03*
X1200000Y0706500D03*
X1210000Y0706500D03*
X1220000Y0706500D03*
X1230000Y0706500D03*
X1260000Y0706500D03*
X1270000Y0706500D03*
X1280000Y0706500D03*
X1290000Y0706500D03*
X1300000Y0706500D03*
D102*
X1090000Y0529000D03*
X1100000Y0529000D03*
X1110000Y0529000D03*
X1120000Y0529000D03*
X1130000Y0529000D03*
X1130000Y0539000D03*
X1120000Y0539000D03*
X1110000Y0539000D03*
X1100000Y0539000D03*
X1090000Y0539000D03*
D38*
X1140000Y0514000D03*
X1180000Y0504000D03*
X1200000Y0514000D03*
X1295000Y0514000D03*
X1295000Y0504000D03*
D82*
X1305000Y0504000D03*
X1315000Y0504000D03*
X1315000Y0514000D03*
X1305000Y0514000D03*
X1200000Y0504000D03*
X1190000Y0504000D03*
X1190000Y0514000D03*
X1180000Y0514000D03*
X1160000Y0514000D03*
X1150000Y0514000D03*
D44*
X1090000Y0696500D03*
D86*
X1315810Y0706690D03*
X1315810Y0673810D03*
D69*
X1303510Y0681490D02*
X1299150Y0681490D01*
X1299150Y0699010D02*
X1303510Y0699010D01*
D51*
X1287500Y0686500D03*
X1281250Y0681500D03*
X1286250Y0677750D03*
X1291250Y0674000D03*
X1291250Y0658740D03*
X1286250Y0659000D03*
X1281250Y0659000D03*
X1272500Y0671500D03*
X1250000Y0651500D03*
X1246670Y0648170D03*
X1230000Y0647300D03*
X1222500Y0647750D03*
X1222500Y0642750D03*
X1217500Y0647750D03*
X1210000Y0651500D03*
X1202500Y0647750D03*
X1202500Y0636500D03*
X1190000Y0629000D03*
X1190000Y0624000D03*
X1190000Y0619000D03*
X1187500Y0609000D03*
X1182500Y0597750D03*
X1172500Y0597750D03*
X1185000Y0584000D03*
X1192500Y0589000D03*
X1207500Y0584000D03*
X1208750Y0589000D03*
X1212500Y0597750D03*
X1217500Y0599000D03*
X1221250Y0601500D03*
X1225000Y0599000D03*
X1237500Y0611500D03*
X1241250Y0609000D03*
X1243750Y0615250D03*
X1245000Y0620250D03*
X1233750Y0614000D03*
X1230000Y0616500D03*
X1230000Y0627750D03*
X1223750Y0632750D03*
X1227500Y0635250D03*
X1220000Y0630250D03*
X1220000Y0655250D03*
X1223750Y0659000D03*
X1227500Y0662750D03*
X1231250Y0669000D03*
X1235000Y0666500D03*
X1238750Y0664000D03*
X1245000Y0665250D03*
X1227500Y0671500D03*
X1223750Y0674000D03*
X1220000Y0676500D03*
X1215000Y0676500D03*
X1213750Y0671500D03*
X1202500Y0671500D03*
X1197500Y0671500D03*
X1193750Y0676500D03*
X1182500Y0681500D03*
X1175000Y0681500D03*
X1175000Y0691500D03*
X1162500Y0691500D03*
X1157500Y0696500D03*
X1152500Y0696500D03*
X1147500Y0692750D03*
X1147500Y0686500D03*
X1152500Y0686500D03*
X1155000Y0704000D03*
X1132500Y0686500D03*
X1120000Y0689000D03*
X1110000Y0684000D03*
X1132500Y0669000D03*
X1137500Y0669000D03*
X1145000Y0669000D03*
X1150000Y0669000D03*
X1163750Y0670250D03*
X1170000Y0670250D03*
X1177500Y0664000D03*
X1182500Y0669000D03*
X1187500Y0666500D03*
X1190000Y0659000D03*
X1190000Y0654000D03*
X1190000Y0649000D03*
X1185000Y0659000D03*
X1182500Y0636500D03*
X1165000Y0634000D03*
X1167500Y0621500D03*
X1172500Y0619000D03*
X1152500Y0604000D03*
X1147500Y0606500D03*
X1143750Y0609000D03*
X1140000Y0611500D03*
X1136250Y0614000D03*
X1132500Y0616500D03*
X1125000Y0621500D03*
X1127500Y0626500D03*
X1122500Y0616500D03*
X1120000Y0611500D03*
X1125000Y0606500D03*
X1128750Y0609000D03*
X1123750Y0600250D03*
X1122500Y0584000D03*
X1127500Y0584000D03*
X1113750Y0585250D03*
X1103750Y0587750D03*
X1103750Y0604000D03*
X1103750Y0619000D03*
X1105000Y0631500D03*
X1105000Y0646500D03*
X1107500Y0659000D03*
X1103750Y0660250D03*
X1148750Y0597750D03*
X1167500Y0571500D03*
X1145000Y0569000D03*
X1118750Y0569000D03*
X1113750Y0565250D03*
X1110000Y0569000D03*
X1102500Y0569000D03*
X1135000Y0544000D03*
X1170000Y0544000D03*
X1177500Y0544000D03*
X1182500Y0546500D03*
X1192500Y0547750D03*
X1200000Y0539000D03*
X1205000Y0534000D03*
X1200000Y0529000D03*
X1195000Y0534000D03*
X1187500Y0531500D03*
X1170000Y0531500D03*
X1132500Y0504000D03*
X1132500Y0495250D03*
X1210000Y0514000D03*
X1237500Y0504000D03*
X1242500Y0511500D03*
X1242500Y0517750D03*
X1247500Y0517750D03*
X1247500Y0527750D03*
X1242500Y0527750D03*
X1238750Y0539000D03*
X1212500Y0537750D03*
X1247500Y0567750D03*
X1256700Y0561950D03*
X1261250Y0559000D03*
X1265000Y0556500D03*
X1268750Y0554000D03*
X1276250Y0542750D03*
X1276250Y0534000D03*
X1257500Y0504000D03*
X1287500Y0496500D03*
X1228750Y0570250D03*
X1232500Y0572750D03*
X1236250Y0575250D03*
X1240000Y0577750D03*
X1256700Y0597300D03*
X1248750Y0597750D03*
X1261170Y0604080D03*
X1264270Y0607230D03*
X1267370Y0610380D03*
X1261250Y0631500D03*
X1261250Y0636500D03*
X1263750Y0644000D03*
X1308750Y0641500D03*
X1308750Y0626500D03*
X1275000Y0691500D03*
X1270000Y0697750D03*
X1250000Y0695250D03*
X1245000Y0697750D03*
X1236250Y0701500D03*
X1228750Y0697750D03*
D57*
X1225000Y0694000D01*
X1225000Y0681500D01*
X1220000Y0676500D01*
X1223750Y0674000D02*
X1226250Y0676500D01*
X1235000Y0676500D01*
X1237500Y0679000D01*
X1237500Y0697750D01*
X1242500Y0702750D01*
X1256250Y0702750D01*
X1260000Y0706500D01*
X1270000Y0706500D02*
X1270000Y0697750D01*
X1275000Y0701500D02*
X1280000Y0706500D01*
X1275000Y0701500D02*
X1275000Y0691500D01*
X1281250Y0681500D02*
X1281250Y0659000D01*
X1286250Y0659000D02*
X1286250Y0677750D01*
X1291250Y0674000D02*
X1291250Y0658740D01*
X1272500Y0652750D02*
X1272500Y0671500D01*
X1287500Y0686500D02*
X1287500Y0704000D01*
X1290000Y0706500D01*
X1250000Y0695250D02*
X1250000Y0651500D01*
X1246670Y0648170D02*
X1245000Y0646500D01*
X1245000Y0620250D01*
X1241250Y0617750D02*
X1243750Y0615250D01*
X1241250Y0612750D02*
X1238750Y0615250D01*
X1238750Y0664000D01*
X1236250Y0662750D02*
X1235000Y0664000D01*
X1235000Y0666500D01*
X1236250Y0662750D02*
X1236250Y0615250D01*
X1237500Y0614000D01*
X1237500Y0611500D01*
X1241250Y0612750D02*
X1241250Y0609000D01*
X1233750Y0614000D02*
X1233750Y0662750D01*
X1231250Y0665250D01*
X1231250Y0669000D01*
X1227500Y0671500D02*
X1230000Y0674000D01*
X1236250Y0674000D01*
X1241250Y0679000D01*
X1241250Y0694000D01*
X1245000Y0697750D01*
X1236250Y0701500D02*
X1227500Y0701500D01*
X1220000Y0694000D01*
X1220000Y0681500D01*
X1215000Y0676500D01*
X1227500Y0662750D02*
X1188750Y0662750D01*
X1185000Y0659000D01*
X1182500Y0662750D02*
X1182500Y0669000D01*
X1187500Y0669000D02*
X1187500Y0666500D01*
X1187500Y0686500D01*
X1190000Y0689000D01*
X1190000Y0696500D01*
X1200000Y0706500D01*
X1198750Y0701500D02*
X1215000Y0701500D01*
X1220000Y0706500D01*
X1198750Y0701500D02*
X1193750Y0696500D01*
X1193750Y0676500D01*
X1182500Y0674000D02*
X1182500Y0681500D01*
X1181250Y0685250D02*
X1181250Y0697750D01*
X1190000Y0706500D01*
X1180000Y0706500D02*
X1178750Y0707750D01*
X1152500Y0707750D01*
X1142500Y0697750D01*
X1142500Y0671500D01*
X1145000Y0669000D01*
X1150000Y0669000D02*
X1152500Y0671500D01*
X1152500Y0681500D01*
X1157500Y0686500D01*
X1157500Y0696500D01*
X1152500Y0696500D02*
X1152500Y0686500D01*
X1160000Y0680250D02*
X1162500Y0682750D01*
X1162500Y0691500D01*
X1175000Y0691500D02*
X1175000Y0681500D01*
X1178750Y0682750D02*
X1181250Y0685250D01*
X1178750Y0682750D02*
X1178750Y0672750D01*
X1170000Y0664000D01*
X1170000Y0624000D01*
X1167500Y0621500D01*
X1172500Y0619000D02*
X1172500Y0664000D01*
X1182500Y0674000D01*
X1177500Y0664000D02*
X1177500Y0651500D01*
X1187500Y0641500D01*
X1221250Y0641500D01*
X1222500Y0642750D01*
X1218750Y0644000D02*
X1222500Y0647750D01*
X1218750Y0644000D02*
X1190000Y0644000D01*
X1180000Y0654000D01*
X1180000Y0660250D01*
X1182500Y0662750D01*
X1190000Y0659000D02*
X1223750Y0659000D01*
X1220000Y0655250D02*
X1191250Y0655250D01*
X1190000Y0654000D01*
X1192500Y0651500D02*
X1210000Y0651500D01*
X1202500Y0636500D02*
X1187500Y0636500D01*
X1185000Y0634000D01*
X1185000Y0611500D01*
X1187500Y0609000D01*
X1182500Y0602750D02*
X1187500Y0597750D01*
X1187500Y0589000D01*
X1192500Y0584000D01*
X1192500Y0547750D01*
X1190000Y0550250D02*
X1187500Y0547750D01*
X1187500Y0531500D01*
X1195000Y0534000D02*
X1195000Y0539000D01*
X1207500Y0551500D01*
X1207500Y0579000D01*
X1212500Y0584000D01*
X1212500Y0597750D01*
X1217500Y0599000D02*
X1217500Y0586500D01*
X1210000Y0579000D01*
X1210000Y0549000D01*
X1200000Y0539000D01*
X1200000Y0534000D02*
X1206250Y0540250D01*
X1206250Y0541500D01*
X1212500Y0547750D01*
X1212500Y0579000D01*
X1220000Y0586500D01*
X1220000Y0596500D01*
X1221250Y0597750D01*
X1221250Y0601500D01*
X1225000Y0599000D02*
X1222500Y0596500D01*
X1222500Y0586500D01*
X1215000Y0579000D01*
X1215000Y0546500D01*
X1208750Y0540250D01*
X1208750Y0537750D01*
X1205000Y0534000D01*
X1200000Y0534000D02*
X1200000Y0529000D01*
X1182500Y0546500D02*
X1185000Y0549000D01*
X1185000Y0584000D01*
X1185000Y0589000D02*
X1190000Y0584000D01*
X1190000Y0550250D01*
X1155000Y0565250D02*
X1147500Y0557750D01*
X1137500Y0557750D01*
X1130000Y0550250D01*
X1130000Y0539000D01*
X1125000Y0534000D02*
X1130000Y0529000D01*
X1125000Y0534000D02*
X1125000Y0551500D01*
X1136250Y0562750D01*
X1143750Y0562750D01*
X1152500Y0571500D01*
X1152500Y0599000D01*
X1147500Y0604000D01*
X1147500Y0606500D01*
X1143750Y0609000D02*
X1143750Y0572750D01*
X1120000Y0549000D01*
X1120000Y0539000D01*
X1115000Y0534000D02*
X1120000Y0529000D01*
X1115000Y0534000D02*
X1115000Y0546500D01*
X1141250Y0572750D01*
X1141250Y0606500D01*
X1140000Y0607750D01*
X1140000Y0611500D01*
X1136250Y0609000D02*
X1136250Y0614000D01*
X1132500Y0616500D02*
X1132500Y0610250D01*
X1136250Y0606500D01*
X1136250Y0572750D01*
X1105000Y0541500D01*
X1105000Y0534000D01*
X1110000Y0529000D01*
X1110000Y0539000D02*
X1110000Y0544000D01*
X1138750Y0572750D01*
X1138750Y0606500D01*
X1136250Y0609000D01*
X1133750Y0604000D02*
X1128750Y0609000D01*
X1125000Y0606500D02*
X1131250Y0600250D01*
X1131250Y0572750D01*
X1102500Y0544000D01*
X1097500Y0544000D01*
X1095000Y0541500D01*
X1095000Y0534000D01*
X1100000Y0529000D01*
X1100000Y0539000D02*
X1133750Y0572750D01*
X1133750Y0604000D01*
X1123750Y0600250D02*
X1106250Y0582750D01*
X1106250Y0564000D01*
X1090000Y0547750D01*
X1090000Y0539000D01*
X1113750Y0565250D02*
X1113750Y0585250D01*
X1120000Y0611500D02*
X1117500Y0614000D01*
X1117500Y0669000D01*
X1090000Y0696500D01*
X1100000Y0696500D02*
X1100000Y0689000D01*
X1120000Y0669000D01*
X1120000Y0619000D01*
X1122500Y0616500D01*
X1125000Y0621500D02*
X1122500Y0624000D01*
X1122500Y0681500D01*
X1110000Y0694000D01*
X1110000Y0696500D01*
X1120000Y0696500D02*
X1125000Y0691500D01*
X1125000Y0629000D01*
X1127500Y0626500D01*
X1152500Y0604000D02*
X1155000Y0601500D01*
X1155000Y0565250D01*
X1185000Y0589000D02*
X1185000Y0595250D01*
X1182500Y0597750D01*
X1182500Y0602750D02*
X1182500Y0636500D01*
X1190000Y0629000D02*
X1202500Y0629000D01*
X1205000Y0626500D01*
X1205000Y0592750D01*
X1208750Y0589000D01*
X1228750Y0575250D02*
X1228750Y0570250D01*
X1232500Y0572750D02*
X1232500Y0576500D01*
X1235000Y0579000D01*
X1235000Y0599000D01*
X1223750Y0610250D01*
X1223750Y0632750D01*
X1227500Y0630250D02*
X1226250Y0629000D01*
X1226250Y0610250D01*
X1237500Y0599000D01*
X1237500Y0579000D01*
X1236250Y0577750D01*
X1236250Y0575250D01*
X1232500Y0579000D02*
X1228750Y0575250D01*
X1232500Y0579000D02*
X1232500Y0599000D01*
X1221250Y0610250D01*
X1221250Y0629000D01*
X1220000Y0630250D01*
X1227500Y0630250D02*
X1227500Y0635250D01*
X1231250Y0629000D02*
X1230000Y0627750D01*
X1231250Y0629000D02*
X1231250Y0645250D01*
X1230000Y0646500D01*
X1230000Y0647300D01*
X1241250Y0661500D02*
X1245000Y0665250D01*
X1241250Y0661500D02*
X1241250Y0617750D01*
X1230000Y0616500D02*
X1230000Y0609000D01*
X1240000Y0599000D01*
X1240000Y0577750D01*
X1247500Y0567750D02*
X1247500Y0596500D01*
X1248750Y0597750D01*
X1256700Y0597300D02*
X1256700Y0561950D01*
X1258750Y0565250D02*
X1261170Y0562830D01*
X1261170Y0559080D01*
X1261250Y0559000D01*
X1265000Y0561500D02*
X1265000Y0556500D01*
X1268750Y0554000D02*
X1268750Y0561500D01*
X1265000Y0565250D01*
X1265000Y0595250D01*
X1268750Y0599000D01*
X1268750Y0609000D01*
X1267370Y0610380D01*
X1264270Y0607230D02*
X1265000Y0606500D01*
X1265000Y0599000D01*
X1261250Y0595250D01*
X1261250Y0565250D01*
X1265000Y0561500D01*
X1258750Y0565250D02*
X1258750Y0595250D01*
X1261250Y0597750D01*
X1261170Y0604080D01*
X1263750Y0644000D02*
X1272500Y0652750D01*
X1192500Y0651500D02*
X1190000Y0649000D01*
X1165000Y0634000D02*
X1160000Y0639000D01*
X1160000Y0680250D01*
X1137500Y0669000D02*
X1137500Y0699000D01*
X1130000Y0706500D01*
X1127500Y0699000D02*
X1120000Y0706500D01*
X1127500Y0699000D02*
X1127500Y0671500D01*
X1130000Y0669000D01*
X1132500Y0669000D01*
D48*
X1132500Y0692750D03*
D39*
X1287500Y0686500D02*
X1317500Y0656500D01*
X1317500Y0532750D01*
X1310000Y0525250D01*
X1310000Y0499000D01*
X1303750Y0492750D01*
X1176250Y0492750D01*
X1170000Y0499000D01*
X1170000Y0504000D01*
X1085000Y0730000D02*
G75*
%LPD*%
D92*
X1170000Y0744000D03*
X1170000Y0754000D03*
X1120000Y0936500D03*
X1120000Y0946500D03*
X1130000Y0946500D03*
X1140000Y0946500D03*
X1110000Y0946500D03*
X1110000Y0936500D03*
X1100000Y0936500D03*
X1100000Y0946500D03*
X1090000Y0946500D03*
X1180000Y0946500D03*
X1190000Y0946500D03*
X1200000Y0946500D03*
X1210000Y0946500D03*
X1220000Y0946500D03*
X1230000Y0946500D03*
X1260000Y0946500D03*
X1270000Y0946500D03*
X1280000Y0946500D03*
X1290000Y0946500D03*
X1300000Y0946500D03*
D102*
X1090000Y0769000D03*
X1100000Y0769000D03*
X1110000Y0769000D03*
X1120000Y0769000D03*
X1130000Y0769000D03*
X1130000Y0779000D03*
X1120000Y0779000D03*
X1110000Y0779000D03*
X1100000Y0779000D03*
X1090000Y0779000D03*
D38*
X1140000Y0754000D03*
X1180000Y0744000D03*
X1200000Y0754000D03*
X1295000Y0754000D03*
X1295000Y0744000D03*
D82*
X1305000Y0744000D03*
X1315000Y0744000D03*
X1315000Y0754000D03*
X1305000Y0754000D03*
X1200000Y0744000D03*
X1190000Y0744000D03*
X1190000Y0754000D03*
X1180000Y0754000D03*
X1160000Y0754000D03*
X1150000Y0754000D03*
D44*
X1090000Y0936500D03*
D86*
X1315810Y0946690D03*
X1315810Y0913810D03*
D69*
X1303510Y0921490D02*
X1299150Y0921490D01*
X1299150Y0939010D02*
X1303510Y0939010D01*
D51*
X1287500Y0926500D03*
X1281250Y0921500D03*
X1286250Y0917750D03*
X1291250Y0914000D03*
X1291250Y0898740D03*
X1286250Y0899000D03*
X1281250Y0899000D03*
X1272500Y0911500D03*
X1250000Y0891500D03*
X1246670Y0888170D03*
X1230000Y0887300D03*
X1222500Y0887750D03*
X1222500Y0882750D03*
X1217500Y0887750D03*
X1210000Y0891500D03*
X1202500Y0887750D03*
X1202500Y0876500D03*
X1190000Y0869000D03*
X1190000Y0864000D03*
X1190000Y0859000D03*
X1187500Y0849000D03*
X1182500Y0837750D03*
X1172500Y0837750D03*
X1185000Y0824000D03*
X1192500Y0829000D03*
X1207500Y0824000D03*
X1208750Y0829000D03*
X1212500Y0837750D03*
X1217500Y0839000D03*
X1221250Y0841500D03*
X1225000Y0839000D03*
X1237500Y0851500D03*
X1241250Y0849000D03*
X1243750Y0855250D03*
X1245000Y0860250D03*
X1233750Y0854000D03*
X1230000Y0856500D03*
X1230000Y0867750D03*
X1223750Y0872750D03*
X1227500Y0875250D03*
X1220000Y0870250D03*
X1220000Y0895250D03*
X1223750Y0899000D03*
X1227500Y0902750D03*
X1231250Y0909000D03*
X1235000Y0906500D03*
X1238750Y0904000D03*
X1245000Y0905250D03*
X1227500Y0911500D03*
X1223750Y0914000D03*
X1220000Y0916500D03*
X1215000Y0916500D03*
X1213750Y0911500D03*
X1202500Y0911500D03*
X1197500Y0911500D03*
X1193750Y0916500D03*
X1182500Y0921500D03*
X1175000Y0921500D03*
X1175000Y0931500D03*
X1162500Y0931500D03*
X1157500Y0936500D03*
X1152500Y0936500D03*
X1147500Y0932750D03*
X1147500Y0926500D03*
X1152500Y0926500D03*
X1155000Y0944000D03*
X1132500Y0926500D03*
X1120000Y0929000D03*
X1110000Y0924000D03*
X1132500Y0909000D03*
X1137500Y0909000D03*
X1145000Y0909000D03*
X1150000Y0909000D03*
X1163750Y0910250D03*
X1170000Y0910250D03*
X1177500Y0904000D03*
X1182500Y0909000D03*
X1187500Y0906500D03*
X1190000Y0899000D03*
X1190000Y0894000D03*
X1190000Y0889000D03*
X1185000Y0899000D03*
X1182500Y0876500D03*
X1165000Y0874000D03*
X1167500Y0861500D03*
X1172500Y0859000D03*
X1152500Y0844000D03*
X1147500Y0846500D03*
X1143750Y0849000D03*
X1140000Y0851500D03*
X1136250Y0854000D03*
X1132500Y0856500D03*
X1125000Y0861500D03*
X1127500Y0866500D03*
X1122500Y0856500D03*
X1120000Y0851500D03*
X1125000Y0846500D03*
X1128750Y0849000D03*
X1123750Y0840250D03*
X1122500Y0824000D03*
X1127500Y0824000D03*
X1113750Y0825250D03*
X1103750Y0827750D03*
X1103750Y0844000D03*
X1103750Y0859000D03*
X1105000Y0871500D03*
X1105000Y0886500D03*
X1107500Y0899000D03*
X1103750Y0900250D03*
X1148750Y0837750D03*
X1167500Y0811500D03*
X1145000Y0809000D03*
X1118750Y0809000D03*
X1113750Y0805250D03*
X1110000Y0809000D03*
X1102500Y0809000D03*
X1135000Y0784000D03*
X1170000Y0784000D03*
X1177500Y0784000D03*
X1182500Y0786500D03*
X1192500Y0787750D03*
X1200000Y0779000D03*
X1205000Y0774000D03*
X1200000Y0769000D03*
X1195000Y0774000D03*
X1187500Y0771500D03*
X1170000Y0771500D03*
X1132500Y0744000D03*
X1132500Y0735250D03*
X1210000Y0754000D03*
X1237500Y0744000D03*
X1242500Y0751500D03*
X1242500Y0757750D03*
X1247500Y0757750D03*
X1247500Y0767750D03*
X1242500Y0767750D03*
X1238750Y0779000D03*
X1212500Y0777750D03*
X1247500Y0807750D03*
X1256700Y0801950D03*
X1261250Y0799000D03*
X1265000Y0796500D03*
X1268750Y0794000D03*
X1276250Y0782750D03*
X1276250Y0774000D03*
X1257500Y0744000D03*
X1287500Y0736500D03*
X1228750Y0810250D03*
X1232500Y0812750D03*
X1236250Y0815250D03*
X1240000Y0817750D03*
X1256700Y0837300D03*
X1248750Y0837750D03*
X1261170Y0844080D03*
X1264270Y0847230D03*
X1267370Y0850380D03*
X1261250Y0871500D03*
X1261250Y0876500D03*
X1263750Y0884000D03*
X1308750Y0881500D03*
X1308750Y0866500D03*
X1275000Y0931500D03*
X1270000Y0937750D03*
X1250000Y0935250D03*
X1245000Y0937750D03*
X1236250Y0941500D03*
X1228750Y0937750D03*
D57*
X1225000Y0934000D01*
X1225000Y0921500D01*
X1220000Y0916500D01*
X1223750Y0914000D02*
X1226250Y0916500D01*
X1235000Y0916500D01*
X1237500Y0919000D01*
X1237500Y0937750D01*
X1242500Y0942750D01*
X1256250Y0942750D01*
X1260000Y0946500D01*
X1270000Y0946500D02*
X1270000Y0937750D01*
X1275000Y0941500D02*
X1280000Y0946500D01*
X1275000Y0941500D02*
X1275000Y0931500D01*
X1281250Y0921500D02*
X1281250Y0899000D01*
X1286250Y0899000D02*
X1286250Y0917750D01*
X1291250Y0914000D02*
X1291250Y0898740D01*
X1272500Y0892750D02*
X1272500Y0911500D01*
X1287500Y0926500D02*
X1287500Y0944000D01*
X1290000Y0946500D01*
X1250000Y0935250D02*
X1250000Y0891500D01*
X1246670Y0888170D02*
X1245000Y0886500D01*
X1245000Y0860250D01*
X1241250Y0857750D02*
X1243750Y0855250D01*
X1241250Y0852750D02*
X1238750Y0855250D01*
X1238750Y0904000D01*
X1236250Y0902750D02*
X1235000Y0904000D01*
X1235000Y0906500D01*
X1236250Y0902750D02*
X1236250Y0855250D01*
X1237500Y0854000D01*
X1237500Y0851500D01*
X1241250Y0852750D02*
X1241250Y0849000D01*
X1233750Y0854000D02*
X1233750Y0902750D01*
X1231250Y0905250D01*
X1231250Y0909000D01*
X1227500Y0911500D02*
X1230000Y0914000D01*
X1236250Y0914000D01*
X1241250Y0919000D01*
X1241250Y0934000D01*
X1245000Y0937750D01*
X1236250Y0941500D02*
X1227500Y0941500D01*
X1220000Y0934000D01*
X1220000Y0921500D01*
X1215000Y0916500D01*
X1227500Y0902750D02*
X1188750Y0902750D01*
X1185000Y0899000D01*
X1182500Y0902750D02*
X1182500Y0909000D01*
X1187500Y0909000D02*
X1187500Y0906500D01*
X1187500Y0926500D01*
X1190000Y0929000D01*
X1190000Y0936500D01*
X1200000Y0946500D01*
X1198750Y0941500D02*
X1215000Y0941500D01*
X1220000Y0946500D01*
X1198750Y0941500D02*
X1193750Y0936500D01*
X1193750Y0916500D01*
X1182500Y0914000D02*
X1182500Y0921500D01*
X1181250Y0925250D02*
X1181250Y0937750D01*
X1190000Y0946500D01*
X1180000Y0946500D02*
X1178750Y0947750D01*
X1152500Y0947750D01*
X1142500Y0937750D01*
X1142500Y0911500D01*
X1145000Y0909000D01*
X1150000Y0909000D02*
X1152500Y0911500D01*
X1152500Y0921500D01*
X1157500Y0926500D01*
X1157500Y0936500D01*
X1152500Y0936500D02*
X1152500Y0926500D01*
X1160000Y0920250D02*
X1162500Y0922750D01*
X1162500Y0931500D01*
X1175000Y0931500D02*
X1175000Y0921500D01*
X1178750Y0922750D02*
X1181250Y0925250D01*
X1178750Y0922750D02*
X1178750Y0912750D01*
X1170000Y0904000D01*
X1170000Y0864000D01*
X1167500Y0861500D01*
X1172500Y0859000D02*
X1172500Y0904000D01*
X1182500Y0914000D01*
X1177500Y0904000D02*
X1177500Y0891500D01*
X1187500Y0881500D01*
X1221250Y0881500D01*
X1222500Y0882750D01*
X1218750Y0884000D02*
X1222500Y0887750D01*
X1218750Y0884000D02*
X1190000Y0884000D01*
X1180000Y0894000D01*
X1180000Y0900250D01*
X1182500Y0902750D01*
X1190000Y0899000D02*
X1223750Y0899000D01*
X1220000Y0895250D02*
X1191250Y0895250D01*
X1190000Y0894000D01*
X1192500Y0891500D02*
X1210000Y0891500D01*
X1202500Y0876500D02*
X1187500Y0876500D01*
X1185000Y0874000D01*
X1185000Y0851500D01*
X1187500Y0849000D01*
X1182500Y0842750D02*
X1187500Y0837750D01*
X1187500Y0829000D01*
X1192500Y0824000D01*
X1192500Y0787750D01*
X1190000Y0790250D02*
X1187500Y0787750D01*
X1187500Y0771500D01*
X1195000Y0774000D02*
X1195000Y0779000D01*
X1207500Y0791500D01*
X1207500Y0819000D01*
X1212500Y0824000D01*
X1212500Y0837750D01*
X1217500Y0839000D02*
X1217500Y0826500D01*
X1210000Y0819000D01*
X1210000Y0789000D01*
X1200000Y0779000D01*
X1200000Y0774000D02*
X1206250Y0780250D01*
X1206250Y0781500D01*
X1212500Y0787750D01*
X1212500Y0819000D01*
X1220000Y0826500D01*
X1220000Y0836500D01*
X1221250Y0837750D01*
X1221250Y0841500D01*
X1225000Y0839000D02*
X1222500Y0836500D01*
X1222500Y0826500D01*
X1215000Y0819000D01*
X1215000Y0786500D01*
X1208750Y0780250D01*
X1208750Y0777750D01*
X1205000Y0774000D01*
X1200000Y0774000D02*
X1200000Y0769000D01*
X1182500Y0786500D02*
X1185000Y0789000D01*
X1185000Y0824000D01*
X1185000Y0829000D02*
X1190000Y0824000D01*
X1190000Y0790250D01*
X1155000Y0805250D02*
X1147500Y0797750D01*
X1137500Y0797750D01*
X1130000Y0790250D01*
X1130000Y0779000D01*
X1125000Y0774000D02*
X1130000Y0769000D01*
X1125000Y0774000D02*
X1125000Y0791500D01*
X1136250Y0802750D01*
X1143750Y0802750D01*
X1152500Y0811500D01*
X1152500Y0839000D01*
X1147500Y0844000D01*
X1147500Y0846500D01*
X1143750Y0849000D02*
X1143750Y0812750D01*
X1120000Y0789000D01*
X1120000Y0779000D01*
X1115000Y0774000D02*
X1120000Y0769000D01*
X1115000Y0774000D02*
X1115000Y0786500D01*
X1141250Y0812750D01*
X1141250Y0846500D01*
X1140000Y0847750D01*
X1140000Y0851500D01*
X1136250Y0849000D02*
X1136250Y0854000D01*
X1132500Y0856500D02*
X1132500Y0850250D01*
X1136250Y0846500D01*
X1136250Y0812750D01*
X1105000Y0781500D01*
X1105000Y0774000D01*
X1110000Y0769000D01*
X1110000Y0779000D02*
X1110000Y0784000D01*
X1138750Y0812750D01*
X1138750Y0846500D01*
X1136250Y0849000D01*
X1133750Y0844000D02*
X1128750Y0849000D01*
X1125000Y0846500D02*
X1131250Y0840250D01*
X1131250Y0812750D01*
X1102500Y0784000D01*
X1097500Y0784000D01*
X1095000Y0781500D01*
X1095000Y0774000D01*
X1100000Y0769000D01*
X1100000Y0779000D02*
X1133750Y0812750D01*
X1133750Y0844000D01*
X1123750Y0840250D02*
X1106250Y0822750D01*
X1106250Y0804000D01*
X1090000Y0787750D01*
X1090000Y0779000D01*
X1113750Y0805250D02*
X1113750Y0825250D01*
X1120000Y0851500D02*
X1117500Y0854000D01*
X1117500Y0909000D01*
X1090000Y0936500D01*
X1100000Y0936500D02*
X1100000Y0929000D01*
X1120000Y0909000D01*
X1120000Y0859000D01*
X1122500Y0856500D01*
X1125000Y0861500D02*
X1122500Y0864000D01*
X1122500Y0921500D01*
X1110000Y0934000D01*
X1110000Y0936500D01*
X1120000Y0936500D02*
X1125000Y0931500D01*
X1125000Y0869000D01*
X1127500Y0866500D01*
X1152500Y0844000D02*
X1155000Y0841500D01*
X1155000Y0805250D01*
X1185000Y0829000D02*
X1185000Y0835250D01*
X1182500Y0837750D01*
X1182500Y0842750D02*
X1182500Y0876500D01*
X1190000Y0869000D02*
X1202500Y0869000D01*
X1205000Y0866500D01*
X1205000Y0832750D01*
X1208750Y0829000D01*
X1228750Y0815250D02*
X1228750Y0810250D01*
X1232500Y0812750D02*
X1232500Y0816500D01*
X1235000Y0819000D01*
X1235000Y0839000D01*
X1223750Y0850250D01*
X1223750Y0872750D01*
X1227500Y0870250D02*
X1226250Y0869000D01*
X1226250Y0850250D01*
X1237500Y0839000D01*
X1237500Y0819000D01*
X1236250Y0817750D01*
X1236250Y0815250D01*
X1232500Y0819000D02*
X1228750Y0815250D01*
X1232500Y0819000D02*
X1232500Y0839000D01*
X1221250Y0850250D01*
X1221250Y0869000D01*
X1220000Y0870250D01*
X1227500Y0870250D02*
X1227500Y0875250D01*
X1231250Y0869000D02*
X1230000Y0867750D01*
X1231250Y0869000D02*
X1231250Y0885250D01*
X1230000Y0886500D01*
X1230000Y0887300D01*
X1241250Y0901500D02*
X1245000Y0905250D01*
X1241250Y0901500D02*
X1241250Y0857750D01*
X1230000Y0856500D02*
X1230000Y0849000D01*
X1240000Y0839000D01*
X1240000Y0817750D01*
X1247500Y0807750D02*
X1247500Y0836500D01*
X1248750Y0837750D01*
X1256700Y0837300D02*
X1256700Y0801950D01*
X1258750Y0805250D02*
X1261170Y0802830D01*
X1261170Y0799080D01*
X1261250Y0799000D01*
X1265000Y0801500D02*
X1265000Y0796500D01*
X1268750Y0794000D02*
X1268750Y0801500D01*
X1265000Y0805250D01*
X1265000Y0835250D01*
X1268750Y0839000D01*
X1268750Y0849000D01*
X1267370Y0850380D01*
X1264270Y0847230D02*
X1265000Y0846500D01*
X1265000Y0839000D01*
X1261250Y0835250D01*
X1261250Y0805250D01*
X1265000Y0801500D01*
X1258750Y0805250D02*
X1258750Y0835250D01*
X1261250Y0837750D01*
X1261170Y0844080D01*
X1263750Y0884000D02*
X1272500Y0892750D01*
X1192500Y0891500D02*
X1190000Y0889000D01*
X1165000Y0874000D02*
X1160000Y0879000D01*
X1160000Y0920250D01*
X1137500Y0909000D02*
X1137500Y0939000D01*
X1130000Y0946500D01*
X1127500Y0939000D02*
X1120000Y0946500D01*
X1127500Y0939000D02*
X1127500Y0911500D01*
X1130000Y0909000D01*
X1132500Y0909000D01*
D48*
X1132500Y0932750D03*
D39*
X1287500Y0926500D02*
X1317500Y0896500D01*
X1317500Y0772750D01*
X1310000Y0765250D01*
X1310000Y0739000D01*
X1303750Y0732750D01*
X1176250Y0732750D01*
X1170000Y0739000D01*
X1170000Y0744000D01*
X1335000Y0010000D02*
G75*
%LPD*%
D92*
X1420000Y0024000D03*
X1420000Y0034000D03*
X1370000Y0216500D03*
X1370000Y0226500D03*
X1380000Y0226500D03*
X1390000Y0226500D03*
X1360000Y0226500D03*
X1360000Y0216500D03*
X1350000Y0216500D03*
X1350000Y0226500D03*
X1340000Y0226500D03*
X1430000Y0226500D03*
X1440000Y0226500D03*
X1450000Y0226500D03*
X1460000Y0226500D03*
X1470000Y0226500D03*
X1480000Y0226500D03*
X1510000Y0226500D03*
X1520000Y0226500D03*
X1530000Y0226500D03*
X1540000Y0226500D03*
X1550000Y0226500D03*
D102*
X1340000Y0049000D03*
X1350000Y0049000D03*
X1360000Y0049000D03*
X1370000Y0049000D03*
X1380000Y0049000D03*
X1380000Y0059000D03*
X1370000Y0059000D03*
X1360000Y0059000D03*
X1350000Y0059000D03*
X1340000Y0059000D03*
D38*
X1390000Y0034000D03*
X1430000Y0024000D03*
X1450000Y0034000D03*
X1545000Y0034000D03*
X1545000Y0024000D03*
D82*
X1555000Y0024000D03*
X1565000Y0024000D03*
X1565000Y0034000D03*
X1555000Y0034000D03*
X1450000Y0024000D03*
X1440000Y0024000D03*
X1440000Y0034000D03*
X1430000Y0034000D03*
X1410000Y0034000D03*
X1400000Y0034000D03*
D44*
X1340000Y0216500D03*
D86*
X1565810Y0226690D03*
X1565810Y0193810D03*
D69*
X1553510Y0201490D02*
X1549150Y0201490D01*
X1549150Y0219010D02*
X1553510Y0219010D01*
D51*
X1537500Y0206500D03*
X1531250Y0201500D03*
X1536250Y0197750D03*
X1541250Y0194000D03*
X1541250Y0178740D03*
X1536250Y0179000D03*
X1531250Y0179000D03*
X1522500Y0191500D03*
X1500000Y0171500D03*
X1496670Y0168170D03*
X1480000Y0167300D03*
X1472500Y0167750D03*
X1472500Y0162750D03*
X1467500Y0167750D03*
X1460000Y0171500D03*
X1452500Y0167750D03*
X1452500Y0156500D03*
X1440000Y0149000D03*
X1440000Y0144000D03*
X1440000Y0139000D03*
X1437500Y0129000D03*
X1432500Y0117750D03*
X1422500Y0117750D03*
X1435000Y0104000D03*
X1442500Y0109000D03*
X1457500Y0104000D03*
X1458750Y0109000D03*
X1462500Y0117750D03*
X1467500Y0119000D03*
X1471250Y0121500D03*
X1475000Y0119000D03*
X1487500Y0131500D03*
X1491250Y0129000D03*
X1493750Y0135250D03*
X1495000Y0140250D03*
X1483750Y0134000D03*
X1480000Y0136500D03*
X1480000Y0147750D03*
X1473750Y0152750D03*
X1477500Y0155250D03*
X1470000Y0150250D03*
X1470000Y0175250D03*
X1473750Y0179000D03*
X1477500Y0182750D03*
X1481250Y0189000D03*
X1485000Y0186500D03*
X1488750Y0184000D03*
X1495000Y0185250D03*
X1477500Y0191500D03*
X1473750Y0194000D03*
X1470000Y0196500D03*
X1465000Y0196500D03*
X1463750Y0191500D03*
X1452500Y0191500D03*
X1447500Y0191500D03*
X1443750Y0196500D03*
X1432500Y0201500D03*
X1425000Y0201500D03*
X1425000Y0211500D03*
X1412500Y0211500D03*
X1407500Y0216500D03*
X1402500Y0216500D03*
X1397500Y0212750D03*
X1397500Y0206500D03*
X1402500Y0206500D03*
X1405000Y0224000D03*
X1382500Y0206500D03*
X1370000Y0209000D03*
X1360000Y0204000D03*
X1382500Y0189000D03*
X1387500Y0189000D03*
X1395000Y0189000D03*
X1400000Y0189000D03*
X1413750Y0190250D03*
X1420000Y0190250D03*
X1427500Y0184000D03*
X1432500Y0189000D03*
X1437500Y0186500D03*
X1440000Y0179000D03*
X1440000Y0174000D03*
X1440000Y0169000D03*
X1435000Y0179000D03*
X1432500Y0156500D03*
X1415000Y0154000D03*
X1417500Y0141500D03*
X1422500Y0139000D03*
X1402500Y0124000D03*
X1397500Y0126500D03*
X1393750Y0129000D03*
X1390000Y0131500D03*
X1386250Y0134000D03*
X1382500Y0136500D03*
X1375000Y0141500D03*
X1377500Y0146500D03*
X1372500Y0136500D03*
X1370000Y0131500D03*
X1375000Y0126500D03*
X1378750Y0129000D03*
X1373750Y0120250D03*
X1372500Y0104000D03*
X1377500Y0104000D03*
X1363750Y0105250D03*
X1353750Y0107750D03*
X1353750Y0124000D03*
X1353750Y0139000D03*
X1355000Y0151500D03*
X1355000Y0166500D03*
X1357500Y0179000D03*
X1353750Y0180250D03*
X1398750Y0117750D03*
X1417500Y0091500D03*
X1395000Y0089000D03*
X1368750Y0089000D03*
X1363750Y0085250D03*
X1360000Y0089000D03*
X1352500Y0089000D03*
X1385000Y0064000D03*
X1420000Y0064000D03*
X1427500Y0064000D03*
X1432500Y0066500D03*
X1442500Y0067750D03*
X1450000Y0059000D03*
X1455000Y0054000D03*
X1450000Y0049000D03*
X1445000Y0054000D03*
X1437500Y0051500D03*
X1420000Y0051500D03*
X1382500Y0024000D03*
X1382500Y0015250D03*
X1460000Y0034000D03*
X1487500Y0024000D03*
X1492500Y0031500D03*
X1492500Y0037750D03*
X1497500Y0037750D03*
X1497500Y0047750D03*
X1492500Y0047750D03*
X1488750Y0059000D03*
X1462500Y0057750D03*
X1497500Y0087750D03*
X1506700Y0081950D03*
X1511250Y0079000D03*
X1515000Y0076500D03*
X1518750Y0074000D03*
X1526250Y0062750D03*
X1526250Y0054000D03*
X1507500Y0024000D03*
X1537500Y0016500D03*
X1478750Y0090250D03*
X1482500Y0092750D03*
X1486250Y0095250D03*
X1490000Y0097750D03*
X1506700Y0117300D03*
X1498750Y0117750D03*
X1511170Y0124080D03*
X1514270Y0127230D03*
X1517370Y0130380D03*
X1511250Y0151500D03*
X1511250Y0156500D03*
X1513750Y0164000D03*
X1558750Y0161500D03*
X1558750Y0146500D03*
X1525000Y0211500D03*
X1520000Y0217750D03*
X1500000Y0215250D03*
X1495000Y0217750D03*
X1486250Y0221500D03*
X1478750Y0217750D03*
D57*
X1475000Y0214000D01*
X1475000Y0201500D01*
X1470000Y0196500D01*
X1473750Y0194000D02*
X1476250Y0196500D01*
X1485000Y0196500D01*
X1487500Y0199000D01*
X1487500Y0217750D01*
X1492500Y0222750D01*
X1506250Y0222750D01*
X1510000Y0226500D01*
X1520000Y0226500D02*
X1520000Y0217750D01*
X1525000Y0221500D02*
X1530000Y0226500D01*
X1525000Y0221500D02*
X1525000Y0211500D01*
X1531250Y0201500D02*
X1531250Y0179000D01*
X1536250Y0179000D02*
X1536250Y0197750D01*
X1541250Y0194000D02*
X1541250Y0178740D01*
X1522500Y0172750D02*
X1522500Y0191500D01*
X1537500Y0206500D02*
X1537500Y0224000D01*
X1540000Y0226500D01*
X1500000Y0215250D02*
X1500000Y0171500D01*
X1496670Y0168170D02*
X1495000Y0166500D01*
X1495000Y0140250D01*
X1491250Y0137750D02*
X1493750Y0135250D01*
X1491250Y0132750D02*
X1488750Y0135250D01*
X1488750Y0184000D01*
X1486250Y0182750D02*
X1485000Y0184000D01*
X1485000Y0186500D01*
X1486250Y0182750D02*
X1486250Y0135250D01*
X1487500Y0134000D01*
X1487500Y0131500D01*
X1491250Y0132750D02*
X1491250Y0129000D01*
X1483750Y0134000D02*
X1483750Y0182750D01*
X1481250Y0185250D01*
X1481250Y0189000D01*
X1477500Y0191500D02*
X1480000Y0194000D01*
X1486250Y0194000D01*
X1491250Y0199000D01*
X1491250Y0214000D01*
X1495000Y0217750D01*
X1486250Y0221500D02*
X1477500Y0221500D01*
X1470000Y0214000D01*
X1470000Y0201500D01*
X1465000Y0196500D01*
X1477500Y0182750D02*
X1438750Y0182750D01*
X1435000Y0179000D01*
X1432500Y0182750D02*
X1432500Y0189000D01*
X1437500Y0189000D02*
X1437500Y0186500D01*
X1437500Y0206500D01*
X1440000Y0209000D01*
X1440000Y0216500D01*
X1450000Y0226500D01*
X1448750Y0221500D02*
X1465000Y0221500D01*
X1470000Y0226500D01*
X1448750Y0221500D02*
X1443750Y0216500D01*
X1443750Y0196500D01*
X1432500Y0194000D02*
X1432500Y0201500D01*
X1431250Y0205250D02*
X1431250Y0217750D01*
X1440000Y0226500D01*
X1430000Y0226500D02*
X1428750Y0227750D01*
X1402500Y0227750D01*
X1392500Y0217750D01*
X1392500Y0191500D01*
X1395000Y0189000D01*
X1400000Y0189000D02*
X1402500Y0191500D01*
X1402500Y0201500D01*
X1407500Y0206500D01*
X1407500Y0216500D01*
X1402500Y0216500D02*
X1402500Y0206500D01*
X1410000Y0200250D02*
X1412500Y0202750D01*
X1412500Y0211500D01*
X1425000Y0211500D02*
X1425000Y0201500D01*
X1428750Y0202750D02*
X1431250Y0205250D01*
X1428750Y0202750D02*
X1428750Y0192750D01*
X1420000Y0184000D01*
X1420000Y0144000D01*
X1417500Y0141500D01*
X1422500Y0139000D02*
X1422500Y0184000D01*
X1432500Y0194000D01*
X1427500Y0184000D02*
X1427500Y0171500D01*
X1437500Y0161500D01*
X1471250Y0161500D01*
X1472500Y0162750D01*
X1468750Y0164000D02*
X1472500Y0167750D01*
X1468750Y0164000D02*
X1440000Y0164000D01*
X1430000Y0174000D01*
X1430000Y0180250D01*
X1432500Y0182750D01*
X1440000Y0179000D02*
X1473750Y0179000D01*
X1470000Y0175250D02*
X1441250Y0175250D01*
X1440000Y0174000D01*
X1442500Y0171500D02*
X1460000Y0171500D01*
X1452500Y0156500D02*
X1437500Y0156500D01*
X1435000Y0154000D01*
X1435000Y0131500D01*
X1437500Y0129000D01*
X1432500Y0122750D02*
X1437500Y0117750D01*
X1437500Y0109000D01*
X1442500Y0104000D01*
X1442500Y0067750D01*
X1440000Y0070250D02*
X1437500Y0067750D01*
X1437500Y0051500D01*
X1445000Y0054000D02*
X1445000Y0059000D01*
X1457500Y0071500D01*
X1457500Y0099000D01*
X1462500Y0104000D01*
X1462500Y0117750D01*
X1467500Y0119000D02*
X1467500Y0106500D01*
X1460000Y0099000D01*
X1460000Y0069000D01*
X1450000Y0059000D01*
X1450000Y0054000D02*
X1456250Y0060250D01*
X1456250Y0061500D01*
X1462500Y0067750D01*
X1462500Y0099000D01*
X1470000Y0106500D01*
X1470000Y0116500D01*
X1471250Y0117750D01*
X1471250Y0121500D01*
X1475000Y0119000D02*
X1472500Y0116500D01*
X1472500Y0106500D01*
X1465000Y0099000D01*
X1465000Y0066500D01*
X1458750Y0060250D01*
X1458750Y0057750D01*
X1455000Y0054000D01*
X1450000Y0054000D02*
X1450000Y0049000D01*
X1432500Y0066500D02*
X1435000Y0069000D01*
X1435000Y0104000D01*
X1435000Y0109000D02*
X1440000Y0104000D01*
X1440000Y0070250D01*
X1405000Y0085250D02*
X1397500Y0077750D01*
X1387500Y0077750D01*
X1380000Y0070250D01*
X1380000Y0059000D01*
X1375000Y0054000D02*
X1380000Y0049000D01*
X1375000Y0054000D02*
X1375000Y0071500D01*
X1386250Y0082750D01*
X1393750Y0082750D01*
X1402500Y0091500D01*
X1402500Y0119000D01*
X1397500Y0124000D01*
X1397500Y0126500D01*
X1393750Y0129000D02*
X1393750Y0092750D01*
X1370000Y0069000D01*
X1370000Y0059000D01*
X1365000Y0054000D02*
X1370000Y0049000D01*
X1365000Y0054000D02*
X1365000Y0066500D01*
X1391250Y0092750D01*
X1391250Y0126500D01*
X1390000Y0127750D01*
X1390000Y0131500D01*
X1386250Y0129000D02*
X1386250Y0134000D01*
X1382500Y0136500D02*
X1382500Y0130250D01*
X1386250Y0126500D01*
X1386250Y0092750D01*
X1355000Y0061500D01*
X1355000Y0054000D01*
X1360000Y0049000D01*
X1360000Y0059000D02*
X1360000Y0064000D01*
X1388750Y0092750D01*
X1388750Y0126500D01*
X1386250Y0129000D01*
X1383750Y0124000D02*
X1378750Y0129000D01*
X1375000Y0126500D02*
X1381250Y0120250D01*
X1381250Y0092750D01*
X1352500Y0064000D01*
X1347500Y0064000D01*
X1345000Y0061500D01*
X1345000Y0054000D01*
X1350000Y0049000D01*
X1350000Y0059000D02*
X1383750Y0092750D01*
X1383750Y0124000D01*
X1373750Y0120250D02*
X1356250Y0102750D01*
X1356250Y0084000D01*
X1340000Y0067750D01*
X1340000Y0059000D01*
X1363750Y0085250D02*
X1363750Y0105250D01*
X1370000Y0131500D02*
X1367500Y0134000D01*
X1367500Y0189000D01*
X1340000Y0216500D01*
X1350000Y0216500D02*
X1350000Y0209000D01*
X1370000Y0189000D01*
X1370000Y0139000D01*
X1372500Y0136500D01*
X1375000Y0141500D02*
X1372500Y0144000D01*
X1372500Y0201500D01*
X1360000Y0214000D01*
X1360000Y0216500D01*
X1370000Y0216500D02*
X1375000Y0211500D01*
X1375000Y0149000D01*
X1377500Y0146500D01*
X1402500Y0124000D02*
X1405000Y0121500D01*
X1405000Y0085250D01*
X1435000Y0109000D02*
X1435000Y0115250D01*
X1432500Y0117750D01*
X1432500Y0122750D02*
X1432500Y0156500D01*
X1440000Y0149000D02*
X1452500Y0149000D01*
X1455000Y0146500D01*
X1455000Y0112750D01*
X1458750Y0109000D01*
X1478750Y0095250D02*
X1478750Y0090250D01*
X1482500Y0092750D02*
X1482500Y0096500D01*
X1485000Y0099000D01*
X1485000Y0119000D01*
X1473750Y0130250D01*
X1473750Y0152750D01*
X1477500Y0150250D02*
X1476250Y0149000D01*
X1476250Y0130250D01*
X1487500Y0119000D01*
X1487500Y0099000D01*
X1486250Y0097750D01*
X1486250Y0095250D01*
X1482500Y0099000D02*
X1478750Y0095250D01*
X1482500Y0099000D02*
X1482500Y0119000D01*
X1471250Y0130250D01*
X1471250Y0149000D01*
X1470000Y0150250D01*
X1477500Y0150250D02*
X1477500Y0155250D01*
X1481250Y0149000D02*
X1480000Y0147750D01*
X1481250Y0149000D02*
X1481250Y0165250D01*
X1480000Y0166500D01*
X1480000Y0167300D01*
X1491250Y0181500D02*
X1495000Y0185250D01*
X1491250Y0181500D02*
X1491250Y0137750D01*
X1480000Y0136500D02*
X1480000Y0129000D01*
X1490000Y0119000D01*
X1490000Y0097750D01*
X1497500Y0087750D02*
X1497500Y0116500D01*
X1498750Y0117750D01*
X1506700Y0117300D02*
X1506700Y0081950D01*
X1508750Y0085250D02*
X1511170Y0082830D01*
X1511170Y0079080D01*
X1511250Y0079000D01*
X1515000Y0081500D02*
X1515000Y0076500D01*
X1518750Y0074000D02*
X1518750Y0081500D01*
X1515000Y0085250D01*
X1515000Y0115250D01*
X1518750Y0119000D01*
X1518750Y0129000D01*
X1517370Y0130380D01*
X1514270Y0127230D02*
X1515000Y0126500D01*
X1515000Y0119000D01*
X1511250Y0115250D01*
X1511250Y0085250D01*
X1515000Y0081500D01*
X1508750Y0085250D02*
X1508750Y0115250D01*
X1511250Y0117750D01*
X1511170Y0124080D01*
X1513750Y0164000D02*
X1522500Y0172750D01*
X1442500Y0171500D02*
X1440000Y0169000D01*
X1415000Y0154000D02*
X1410000Y0159000D01*
X1410000Y0200250D01*
X1387500Y0189000D02*
X1387500Y0219000D01*
X1380000Y0226500D01*
X1377500Y0219000D02*
X1370000Y0226500D01*
X1377500Y0219000D02*
X1377500Y0191500D01*
X1380000Y0189000D01*
X1382500Y0189000D01*
D48*
X1382500Y0212750D03*
D39*
X1537500Y0206500D02*
X1567500Y0176500D01*
X1567500Y0052750D01*
X1560000Y0045250D01*
X1560000Y0019000D01*
X1553750Y0012750D01*
X1426250Y0012750D01*
X1420000Y0019000D01*
X1420000Y0024000D01*
X1335000Y0250000D02*
G75*
%LPD*%
D92*
X1420000Y0264000D03*
X1420000Y0274000D03*
X1370000Y0456500D03*
X1370000Y0466500D03*
X1380000Y0466500D03*
X1390000Y0466500D03*
X1360000Y0466500D03*
X1360000Y0456500D03*
X1350000Y0456500D03*
X1350000Y0466500D03*
X1340000Y0466500D03*
X1430000Y0466500D03*
X1440000Y0466500D03*
X1450000Y0466500D03*
X1460000Y0466500D03*
X1470000Y0466500D03*
X1480000Y0466500D03*
X1510000Y0466500D03*
X1520000Y0466500D03*
X1530000Y0466500D03*
X1540000Y0466500D03*
X1550000Y0466500D03*
D102*
X1340000Y0289000D03*
X1350000Y0289000D03*
X1360000Y0289000D03*
X1370000Y0289000D03*
X1380000Y0289000D03*
X1380000Y0299000D03*
X1370000Y0299000D03*
X1360000Y0299000D03*
X1350000Y0299000D03*
X1340000Y0299000D03*
D38*
X1390000Y0274000D03*
X1430000Y0264000D03*
X1450000Y0274000D03*
X1545000Y0274000D03*
X1545000Y0264000D03*
D82*
X1555000Y0264000D03*
X1565000Y0264000D03*
X1565000Y0274000D03*
X1555000Y0274000D03*
X1450000Y0264000D03*
X1440000Y0264000D03*
X1440000Y0274000D03*
X1430000Y0274000D03*
X1410000Y0274000D03*
X1400000Y0274000D03*
D44*
X1340000Y0456500D03*
D86*
X1565810Y0466690D03*
X1565810Y0433810D03*
D69*
X1553510Y0441490D02*
X1549150Y0441490D01*
X1549150Y0459010D02*
X1553510Y0459010D01*
D51*
X1537500Y0446500D03*
X1531250Y0441500D03*
X1536250Y0437750D03*
X1541250Y0434000D03*
X1541250Y0418740D03*
X1536250Y0419000D03*
X1531250Y0419000D03*
X1522500Y0431500D03*
X1500000Y0411500D03*
X1496670Y0408170D03*
X1480000Y0407300D03*
X1472500Y0407750D03*
X1472500Y0402750D03*
X1467500Y0407750D03*
X1460000Y0411500D03*
X1452500Y0407750D03*
X1452500Y0396500D03*
X1440000Y0389000D03*
X1440000Y0384000D03*
X1440000Y0379000D03*
X1437500Y0369000D03*
X1432500Y0357750D03*
X1422500Y0357750D03*
X1435000Y0344000D03*
X1442500Y0349000D03*
X1457500Y0344000D03*
X1458750Y0349000D03*
X1462500Y0357750D03*
X1467500Y0359000D03*
X1471250Y0361500D03*
X1475000Y0359000D03*
X1487500Y0371500D03*
X1491250Y0369000D03*
X1493750Y0375250D03*
X1495000Y0380250D03*
X1483750Y0374000D03*
X1480000Y0376500D03*
X1480000Y0387750D03*
X1473750Y0392750D03*
X1477500Y0395250D03*
X1470000Y0390250D03*
X1470000Y0415250D03*
X1473750Y0419000D03*
X1477500Y0422750D03*
X1481250Y0429000D03*
X1485000Y0426500D03*
X1488750Y0424000D03*
X1495000Y0425250D03*
X1477500Y0431500D03*
X1473750Y0434000D03*
X1470000Y0436500D03*
X1465000Y0436500D03*
X1463750Y0431500D03*
X1452500Y0431500D03*
X1447500Y0431500D03*
X1443750Y0436500D03*
X1432500Y0441500D03*
X1425000Y0441500D03*
X1425000Y0451500D03*
X1412500Y0451500D03*
X1407500Y0456500D03*
X1402500Y0456500D03*
X1397500Y0452750D03*
X1397500Y0446500D03*
X1402500Y0446500D03*
X1405000Y0464000D03*
X1382500Y0446500D03*
X1370000Y0449000D03*
X1360000Y0444000D03*
X1382500Y0429000D03*
X1387500Y0429000D03*
X1395000Y0429000D03*
X1400000Y0429000D03*
X1413750Y0430250D03*
X1420000Y0430250D03*
X1427500Y0424000D03*
X1432500Y0429000D03*
X1437500Y0426500D03*
X1440000Y0419000D03*
X1440000Y0414000D03*
X1440000Y0409000D03*
X1435000Y0419000D03*
X1432500Y0396500D03*
X1415000Y0394000D03*
X1417500Y0381500D03*
X1422500Y0379000D03*
X1402500Y0364000D03*
X1397500Y0366500D03*
X1393750Y0369000D03*
X1390000Y0371500D03*
X1386250Y0374000D03*
X1382500Y0376500D03*
X1375000Y0381500D03*
X1377500Y0386500D03*
X1372500Y0376500D03*
X1370000Y0371500D03*
X1375000Y0366500D03*
X1378750Y0369000D03*
X1373750Y0360250D03*
X1372500Y0344000D03*
X1377500Y0344000D03*
X1363750Y0345250D03*
X1353750Y0347750D03*
X1353750Y0364000D03*
X1353750Y0379000D03*
X1355000Y0391500D03*
X1355000Y0406500D03*
X1357500Y0419000D03*
X1353750Y0420250D03*
X1398750Y0357750D03*
X1417500Y0331500D03*
X1395000Y0329000D03*
X1368750Y0329000D03*
X1363750Y0325250D03*
X1360000Y0329000D03*
X1352500Y0329000D03*
X1385000Y0304000D03*
X1420000Y0304000D03*
X1427500Y0304000D03*
X1432500Y0306500D03*
X1442500Y0307750D03*
X1450000Y0299000D03*
X1455000Y0294000D03*
X1450000Y0289000D03*
X1445000Y0294000D03*
X1437500Y0291500D03*
X1420000Y0291500D03*
X1382500Y0264000D03*
X1382500Y0255250D03*
X1460000Y0274000D03*
X1487500Y0264000D03*
X1492500Y0271500D03*
X1492500Y0277750D03*
X1497500Y0277750D03*
X1497500Y0287750D03*
X1492500Y0287750D03*
X1488750Y0299000D03*
X1462500Y0297750D03*
X1497500Y0327750D03*
X1506700Y0321950D03*
X1511250Y0319000D03*
X1515000Y0316500D03*
X1518750Y0314000D03*
X1526250Y0302750D03*
X1526250Y0294000D03*
X1507500Y0264000D03*
X1537500Y0256500D03*
X1478750Y0330250D03*
X1482500Y0332750D03*
X1486250Y0335250D03*
X1490000Y0337750D03*
X1506700Y0357300D03*
X1498750Y0357750D03*
X1511170Y0364080D03*
X1514270Y0367230D03*
X1517370Y0370380D03*
X1511250Y0391500D03*
X1511250Y0396500D03*
X1513750Y0404000D03*
X1558750Y0401500D03*
X1558750Y0386500D03*
X1525000Y0451500D03*
X1520000Y0457750D03*
X1500000Y0455250D03*
X1495000Y0457750D03*
X1486250Y0461500D03*
X1478750Y0457750D03*
D57*
X1475000Y0454000D01*
X1475000Y0441500D01*
X1470000Y0436500D01*
X1473750Y0434000D02*
X1476250Y0436500D01*
X1485000Y0436500D01*
X1487500Y0439000D01*
X1487500Y0457750D01*
X1492500Y0462750D01*
X1506250Y0462750D01*
X1510000Y0466500D01*
X1520000Y0466500D02*
X1520000Y0457750D01*
X1525000Y0461500D02*
X1530000Y0466500D01*
X1525000Y0461500D02*
X1525000Y0451500D01*
X1531250Y0441500D02*
X1531250Y0419000D01*
X1536250Y0419000D02*
X1536250Y0437750D01*
X1541250Y0434000D02*
X1541250Y0418740D01*
X1522500Y0412750D02*
X1522500Y0431500D01*
X1537500Y0446500D02*
X1537500Y0464000D01*
X1540000Y0466500D01*
X1500000Y0455250D02*
X1500000Y0411500D01*
X1496670Y0408170D02*
X1495000Y0406500D01*
X1495000Y0380250D01*
X1491250Y0377750D02*
X1493750Y0375250D01*
X1491250Y0372750D02*
X1488750Y0375250D01*
X1488750Y0424000D01*
X1486250Y0422750D02*
X1485000Y0424000D01*
X1485000Y0426500D01*
X1486250Y0422750D02*
X1486250Y0375250D01*
X1487500Y0374000D01*
X1487500Y0371500D01*
X1491250Y0372750D02*
X1491250Y0369000D01*
X1483750Y0374000D02*
X1483750Y0422750D01*
X1481250Y0425250D01*
X1481250Y0429000D01*
X1477500Y0431500D02*
X1480000Y0434000D01*
X1486250Y0434000D01*
X1491250Y0439000D01*
X1491250Y0454000D01*
X1495000Y0457750D01*
X1486250Y0461500D02*
X1477500Y0461500D01*
X1470000Y0454000D01*
X1470000Y0441500D01*
X1465000Y0436500D01*
X1477500Y0422750D02*
X1438750Y0422750D01*
X1435000Y0419000D01*
X1432500Y0422750D02*
X1432500Y0429000D01*
X1437500Y0429000D02*
X1437500Y0426500D01*
X1437500Y0446500D01*
X1440000Y0449000D01*
X1440000Y0456500D01*
X1450000Y0466500D01*
X1448750Y0461500D02*
X1465000Y0461500D01*
X1470000Y0466500D01*
X1448750Y0461500D02*
X1443750Y0456500D01*
X1443750Y0436500D01*
X1432500Y0434000D02*
X1432500Y0441500D01*
X1431250Y0445250D02*
X1431250Y0457750D01*
X1440000Y0466500D01*
X1430000Y0466500D02*
X1428750Y0467750D01*
X1402500Y0467750D01*
X1392500Y0457750D01*
X1392500Y0431500D01*
X1395000Y0429000D01*
X1400000Y0429000D02*
X1402500Y0431500D01*
X1402500Y0441500D01*
X1407500Y0446500D01*
X1407500Y0456500D01*
X1402500Y0456500D02*
X1402500Y0446500D01*
X1410000Y0440250D02*
X1412500Y0442750D01*
X1412500Y0451500D01*
X1425000Y0451500D02*
X1425000Y0441500D01*
X1428750Y0442750D02*
X1431250Y0445250D01*
X1428750Y0442750D02*
X1428750Y0432750D01*
X1420000Y0424000D01*
X1420000Y0384000D01*
X1417500Y0381500D01*
X1422500Y0379000D02*
X1422500Y0424000D01*
X1432500Y0434000D01*
X1427500Y0424000D02*
X1427500Y0411500D01*
X1437500Y0401500D01*
X1471250Y0401500D01*
X1472500Y0402750D01*
X1468750Y0404000D02*
X1472500Y0407750D01*
X1468750Y0404000D02*
X1440000Y0404000D01*
X1430000Y0414000D01*
X1430000Y0420250D01*
X1432500Y0422750D01*
X1440000Y0419000D02*
X1473750Y0419000D01*
X1470000Y0415250D02*
X1441250Y0415250D01*
X1440000Y0414000D01*
X1442500Y0411500D02*
X1460000Y0411500D01*
X1452500Y0396500D02*
X1437500Y0396500D01*
X1435000Y0394000D01*
X1435000Y0371500D01*
X1437500Y0369000D01*
X1432500Y0362750D02*
X1437500Y0357750D01*
X1437500Y0349000D01*
X1442500Y0344000D01*
X1442500Y0307750D01*
X1440000Y0310250D02*
X1437500Y0307750D01*
X1437500Y0291500D01*
X1445000Y0294000D02*
X1445000Y0299000D01*
X1457500Y0311500D01*
X1457500Y0339000D01*
X1462500Y0344000D01*
X1462500Y0357750D01*
X1467500Y0359000D02*
X1467500Y0346500D01*
X1460000Y0339000D01*
X1460000Y0309000D01*
X1450000Y0299000D01*
X1450000Y0294000D02*
X1456250Y0300250D01*
X1456250Y0301500D01*
X1462500Y0307750D01*
X1462500Y0339000D01*
X1470000Y0346500D01*
X1470000Y0356500D01*
X1471250Y0357750D01*
X1471250Y0361500D01*
X1475000Y0359000D02*
X1472500Y0356500D01*
X1472500Y0346500D01*
X1465000Y0339000D01*
X1465000Y0306500D01*
X1458750Y0300250D01*
X1458750Y0297750D01*
X1455000Y0294000D01*
X1450000Y0294000D02*
X1450000Y0289000D01*
X1432500Y0306500D02*
X1435000Y0309000D01*
X1435000Y0344000D01*
X1435000Y0349000D02*
X1440000Y0344000D01*
X1440000Y0310250D01*
X1405000Y0325250D02*
X1397500Y0317750D01*
X1387500Y0317750D01*
X1380000Y0310250D01*
X1380000Y0299000D01*
X1375000Y0294000D02*
X1380000Y0289000D01*
X1375000Y0294000D02*
X1375000Y0311500D01*
X1386250Y0322750D01*
X1393750Y0322750D01*
X1402500Y0331500D01*
X1402500Y0359000D01*
X1397500Y0364000D01*
X1397500Y0366500D01*
X1393750Y0369000D02*
X1393750Y0332750D01*
X1370000Y0309000D01*
X1370000Y0299000D01*
X1365000Y0294000D02*
X1370000Y0289000D01*
X1365000Y0294000D02*
X1365000Y0306500D01*
X1391250Y0332750D01*
X1391250Y0366500D01*
X1390000Y0367750D01*
X1390000Y0371500D01*
X1386250Y0369000D02*
X1386250Y0374000D01*
X1382500Y0376500D02*
X1382500Y0370250D01*
X1386250Y0366500D01*
X1386250Y0332750D01*
X1355000Y0301500D01*
X1355000Y0294000D01*
X1360000Y0289000D01*
X1360000Y0299000D02*
X1360000Y0304000D01*
X1388750Y0332750D01*
X1388750Y0366500D01*
X1386250Y0369000D01*
X1383750Y0364000D02*
X1378750Y0369000D01*
X1375000Y0366500D02*
X1381250Y0360250D01*
X1381250Y0332750D01*
X1352500Y0304000D01*
X1347500Y0304000D01*
X1345000Y0301500D01*
X1345000Y0294000D01*
X1350000Y0289000D01*
X1350000Y0299000D02*
X1383750Y0332750D01*
X1383750Y0364000D01*
X1373750Y0360250D02*
X1356250Y0342750D01*
X1356250Y0324000D01*
X1340000Y0307750D01*
X1340000Y0299000D01*
X1363750Y0325250D02*
X1363750Y0345250D01*
X1370000Y0371500D02*
X1367500Y0374000D01*
X1367500Y0429000D01*
X1340000Y0456500D01*
X1350000Y0456500D02*
X1350000Y0449000D01*
X1370000Y0429000D01*
X1370000Y0379000D01*
X1372500Y0376500D01*
X1375000Y0381500D02*
X1372500Y0384000D01*
X1372500Y0441500D01*
X1360000Y0454000D01*
X1360000Y0456500D01*
X1370000Y0456500D02*
X1375000Y0451500D01*
X1375000Y0389000D01*
X1377500Y0386500D01*
X1402500Y0364000D02*
X1405000Y0361500D01*
X1405000Y0325250D01*
X1435000Y0349000D02*
X1435000Y0355250D01*
X1432500Y0357750D01*
X1432500Y0362750D02*
X1432500Y0396500D01*
X1440000Y0389000D02*
X1452500Y0389000D01*
X1455000Y0386500D01*
X1455000Y0352750D01*
X1458750Y0349000D01*
X1478750Y0335250D02*
X1478750Y0330250D01*
X1482500Y0332750D02*
X1482500Y0336500D01*
X1485000Y0339000D01*
X1485000Y0359000D01*
X1473750Y0370250D01*
X1473750Y0392750D01*
X1477500Y0390250D02*
X1476250Y0389000D01*
X1476250Y0370250D01*
X1487500Y0359000D01*
X1487500Y0339000D01*
X1486250Y0337750D01*
X1486250Y0335250D01*
X1482500Y0339000D02*
X1478750Y0335250D01*
X1482500Y0339000D02*
X1482500Y0359000D01*
X1471250Y0370250D01*
X1471250Y0389000D01*
X1470000Y0390250D01*
X1477500Y0390250D02*
X1477500Y0395250D01*
X1481250Y0389000D02*
X1480000Y0387750D01*
X1481250Y0389000D02*
X1481250Y0405250D01*
X1480000Y0406500D01*
X1480000Y0407300D01*
X1491250Y0421500D02*
X1495000Y0425250D01*
X1491250Y0421500D02*
X1491250Y0377750D01*
X1480000Y0376500D02*
X1480000Y0369000D01*
X1490000Y0359000D01*
X1490000Y0337750D01*
X1497500Y0327750D02*
X1497500Y0356500D01*
X1498750Y0357750D01*
X1506700Y0357300D02*
X1506700Y0321950D01*
X1508750Y0325250D02*
X1511170Y0322830D01*
X1511170Y0319080D01*
X1511250Y0319000D01*
X1515000Y0321500D02*
X1515000Y0316500D01*
X1518750Y0314000D02*
X1518750Y0321500D01*
X1515000Y0325250D01*
X1515000Y0355250D01*
X1518750Y0359000D01*
X1518750Y0369000D01*
X1517370Y0370380D01*
X1514270Y0367230D02*
X1515000Y0366500D01*
X1515000Y0359000D01*
X1511250Y0355250D01*
X1511250Y0325250D01*
X1515000Y0321500D01*
X1508750Y0325250D02*
X1508750Y0355250D01*
X1511250Y0357750D01*
X1511170Y0364080D01*
X1513750Y0404000D02*
X1522500Y0412750D01*
X1442500Y0411500D02*
X1440000Y0409000D01*
X1415000Y0394000D02*
X1410000Y0399000D01*
X1410000Y0440250D01*
X1387500Y0429000D02*
X1387500Y0459000D01*
X1380000Y0466500D01*
X1377500Y0459000D02*
X1370000Y0466500D01*
X1377500Y0459000D02*
X1377500Y0431500D01*
X1380000Y0429000D01*
X1382500Y0429000D01*
D48*
X1382500Y0452750D03*
D39*
X1537500Y0446500D02*
X1567500Y0416500D01*
X1567500Y0292750D01*
X1560000Y0285250D01*
X1560000Y0259000D01*
X1553750Y0252750D01*
X1426250Y0252750D01*
X1420000Y0259000D01*
X1420000Y0264000D01*
X1335000Y0490000D02*
G75*
%LPD*%
D92*
X1420000Y0504000D03*
X1420000Y0514000D03*
X1370000Y0696500D03*
X1370000Y0706500D03*
X1380000Y0706500D03*
X1390000Y0706500D03*
X1360000Y0706500D03*
X1360000Y0696500D03*
X1350000Y0696500D03*
X1350000Y0706500D03*
X1340000Y0706500D03*
X1430000Y0706500D03*
X1440000Y0706500D03*
X1450000Y0706500D03*
X1460000Y0706500D03*
X1470000Y0706500D03*
X1480000Y0706500D03*
X1510000Y0706500D03*
X1520000Y0706500D03*
X1530000Y0706500D03*
X1540000Y0706500D03*
X1550000Y0706500D03*
D102*
X1340000Y0529000D03*
X1350000Y0529000D03*
X1360000Y0529000D03*
X1370000Y0529000D03*
X1380000Y0529000D03*
X1380000Y0539000D03*
X1370000Y0539000D03*
X1360000Y0539000D03*
X1350000Y0539000D03*
X1340000Y0539000D03*
D38*
X1390000Y0514000D03*
X1430000Y0504000D03*
X1450000Y0514000D03*
X1545000Y0514000D03*
X1545000Y0504000D03*
D82*
X1555000Y0504000D03*
X1565000Y0504000D03*
X1565000Y0514000D03*
X1555000Y0514000D03*
X1450000Y0504000D03*
X1440000Y0504000D03*
X1440000Y0514000D03*
X1430000Y0514000D03*
X1410000Y0514000D03*
X1400000Y0514000D03*
D44*
X1340000Y0696500D03*
D86*
X1565810Y0706690D03*
X1565810Y0673810D03*
D69*
X1553510Y0681490D02*
X1549150Y0681490D01*
X1549150Y0699010D02*
X1553510Y0699010D01*
D51*
X1537500Y0686500D03*
X1531250Y0681500D03*
X1536250Y0677750D03*
X1541250Y0674000D03*
X1541250Y0658740D03*
X1536250Y0659000D03*
X1531250Y0659000D03*
X1522500Y0671500D03*
X1500000Y0651500D03*
X1496670Y0648170D03*
X1480000Y0647300D03*
X1472500Y0647750D03*
X1472500Y0642750D03*
X1467500Y0647750D03*
X1460000Y0651500D03*
X1452500Y0647750D03*
X1452500Y0636500D03*
X1440000Y0629000D03*
X1440000Y0624000D03*
X1440000Y0619000D03*
X1437500Y0609000D03*
X1432500Y0597750D03*
X1422500Y0597750D03*
X1435000Y0584000D03*
X1442500Y0589000D03*
X1457500Y0584000D03*
X1458750Y0589000D03*
X1462500Y0597750D03*
X1467500Y0599000D03*
X1471250Y0601500D03*
X1475000Y0599000D03*
X1487500Y0611500D03*
X1491250Y0609000D03*
X1493750Y0615250D03*
X1495000Y0620250D03*
X1483750Y0614000D03*
X1480000Y0616500D03*
X1480000Y0627750D03*
X1473750Y0632750D03*
X1477500Y0635250D03*
X1470000Y0630250D03*
X1470000Y0655250D03*
X1473750Y0659000D03*
X1477500Y0662750D03*
X1481250Y0669000D03*
X1485000Y0666500D03*
X1488750Y0664000D03*
X1495000Y0665250D03*
X1477500Y0671500D03*
X1473750Y0674000D03*
X1470000Y0676500D03*
X1465000Y0676500D03*
X1463750Y0671500D03*
X1452500Y0671500D03*
X1447500Y0671500D03*
X1443750Y0676500D03*
X1432500Y0681500D03*
X1425000Y0681500D03*
X1425000Y0691500D03*
X1412500Y0691500D03*
X1407500Y0696500D03*
X1402500Y0696500D03*
X1397500Y0692750D03*
X1397500Y0686500D03*
X1402500Y0686500D03*
X1405000Y0704000D03*
X1382500Y0686500D03*
X1370000Y0689000D03*
X1360000Y0684000D03*
X1382500Y0669000D03*
X1387500Y0669000D03*
X1395000Y0669000D03*
X1400000Y0669000D03*
X1413750Y0670250D03*
X1420000Y0670250D03*
X1427500Y0664000D03*
X1432500Y0669000D03*
X1437500Y0666500D03*
X1440000Y0659000D03*
X1440000Y0654000D03*
X1440000Y0649000D03*
X1435000Y0659000D03*
X1432500Y0636500D03*
X1415000Y0634000D03*
X1417500Y0621500D03*
X1422500Y0619000D03*
X1402500Y0604000D03*
X1397500Y0606500D03*
X1393750Y0609000D03*
X1390000Y0611500D03*
X1386250Y0614000D03*
X1382500Y0616500D03*
X1375000Y0621500D03*
X1377500Y0626500D03*
X1372500Y0616500D03*
X1370000Y0611500D03*
X1375000Y0606500D03*
X1378750Y0609000D03*
X1373750Y0600250D03*
X1372500Y0584000D03*
X1377500Y0584000D03*
X1363750Y0585250D03*
X1353750Y0587750D03*
X1353750Y0604000D03*
X1353750Y0619000D03*
X1355000Y0631500D03*
X1355000Y0646500D03*
X1357500Y0659000D03*
X1353750Y0660250D03*
X1398750Y0597750D03*
X1417500Y0571500D03*
X1395000Y0569000D03*
X1368750Y0569000D03*
X1363750Y0565250D03*
X1360000Y0569000D03*
X1352500Y0569000D03*
X1385000Y0544000D03*
X1420000Y0544000D03*
X1427500Y0544000D03*
X1432500Y0546500D03*
X1442500Y0547750D03*
X1450000Y0539000D03*
X1455000Y0534000D03*
X1450000Y0529000D03*
X1445000Y0534000D03*
X1437500Y0531500D03*
X1420000Y0531500D03*
X1382500Y0504000D03*
X1382500Y0495250D03*
X1460000Y0514000D03*
X1487500Y0504000D03*
X1492500Y0511500D03*
X1492500Y0517750D03*
X1497500Y0517750D03*
X1497500Y0527750D03*
X1492500Y0527750D03*
X1488750Y0539000D03*
X1462500Y0537750D03*
X1497500Y0567750D03*
X1506700Y0561950D03*
X1511250Y0559000D03*
X1515000Y0556500D03*
X1518750Y0554000D03*
X1526250Y0542750D03*
X1526250Y0534000D03*
X1507500Y0504000D03*
X1537500Y0496500D03*
X1478750Y0570250D03*
X1482500Y0572750D03*
X1486250Y0575250D03*
X1490000Y0577750D03*
X1506700Y0597300D03*
X1498750Y0597750D03*
X1511170Y0604080D03*
X1514270Y0607230D03*
X1517370Y0610380D03*
X1511250Y0631500D03*
X1511250Y0636500D03*
X1513750Y0644000D03*
X1558750Y0641500D03*
X1558750Y0626500D03*
X1525000Y0691500D03*
X1520000Y0697750D03*
X1500000Y0695250D03*
X1495000Y0697750D03*
X1486250Y0701500D03*
X1478750Y0697750D03*
D57*
X1475000Y0694000D01*
X1475000Y0681500D01*
X1470000Y0676500D01*
X1473750Y0674000D02*
X1476250Y0676500D01*
X1485000Y0676500D01*
X1487500Y0679000D01*
X1487500Y0697750D01*
X1492500Y0702750D01*
X1506250Y0702750D01*
X1510000Y0706500D01*
X1520000Y0706500D02*
X1520000Y0697750D01*
X1525000Y0701500D02*
X1530000Y0706500D01*
X1525000Y0701500D02*
X1525000Y0691500D01*
X1531250Y0681500D02*
X1531250Y0659000D01*
X1536250Y0659000D02*
X1536250Y0677750D01*
X1541250Y0674000D02*
X1541250Y0658740D01*
X1522500Y0652750D02*
X1522500Y0671500D01*
X1537500Y0686500D02*
X1537500Y0704000D01*
X1540000Y0706500D01*
X1500000Y0695250D02*
X1500000Y0651500D01*
X1496670Y0648170D02*
X1495000Y0646500D01*
X1495000Y0620250D01*
X1491250Y0617750D02*
X1493750Y0615250D01*
X1491250Y0612750D02*
X1488750Y0615250D01*
X1488750Y0664000D01*
X1486250Y0662750D02*
X1485000Y0664000D01*
X1485000Y0666500D01*
X1486250Y0662750D02*
X1486250Y0615250D01*
X1487500Y0614000D01*
X1487500Y0611500D01*
X1491250Y0612750D02*
X1491250Y0609000D01*
X1483750Y0614000D02*
X1483750Y0662750D01*
X1481250Y0665250D01*
X1481250Y0669000D01*
X1477500Y0671500D02*
X1480000Y0674000D01*
X1486250Y0674000D01*
X1491250Y0679000D01*
X1491250Y0694000D01*
X1495000Y0697750D01*
X1486250Y0701500D02*
X1477500Y0701500D01*
X1470000Y0694000D01*
X1470000Y0681500D01*
X1465000Y0676500D01*
X1477500Y0662750D02*
X1438750Y0662750D01*
X1435000Y0659000D01*
X1432500Y0662750D02*
X1432500Y0669000D01*
X1437500Y0669000D02*
X1437500Y0666500D01*
X1437500Y0686500D01*
X1440000Y0689000D01*
X1440000Y0696500D01*
X1450000Y0706500D01*
X1448750Y0701500D02*
X1465000Y0701500D01*
X1470000Y0706500D01*
X1448750Y0701500D02*
X1443750Y0696500D01*
X1443750Y0676500D01*
X1432500Y0674000D02*
X1432500Y0681500D01*
X1431250Y0685250D02*
X1431250Y0697750D01*
X1440000Y0706500D01*
X1430000Y0706500D02*
X1428750Y0707750D01*
X1402500Y0707750D01*
X1392500Y0697750D01*
X1392500Y0671500D01*
X1395000Y0669000D01*
X1400000Y0669000D02*
X1402500Y0671500D01*
X1402500Y0681500D01*
X1407500Y0686500D01*
X1407500Y0696500D01*
X1402500Y0696500D02*
X1402500Y0686500D01*
X1410000Y0680250D02*
X1412500Y0682750D01*
X1412500Y0691500D01*
X1425000Y0691500D02*
X1425000Y0681500D01*
X1428750Y0682750D02*
X1431250Y0685250D01*
X1428750Y0682750D02*
X1428750Y0672750D01*
X1420000Y0664000D01*
X1420000Y0624000D01*
X1417500Y0621500D01*
X1422500Y0619000D02*
X1422500Y0664000D01*
X1432500Y0674000D01*
X1427500Y0664000D02*
X1427500Y0651500D01*
X1437500Y0641500D01*
X1471250Y0641500D01*
X1472500Y0642750D01*
X1468750Y0644000D02*
X1472500Y0647750D01*
X1468750Y0644000D02*
X1440000Y0644000D01*
X1430000Y0654000D01*
X1430000Y0660250D01*
X1432500Y0662750D01*
X1440000Y0659000D02*
X1473750Y0659000D01*
X1470000Y0655250D02*
X1441250Y0655250D01*
X1440000Y0654000D01*
X1442500Y0651500D02*
X1460000Y0651500D01*
X1452500Y0636500D02*
X1437500Y0636500D01*
X1435000Y0634000D01*
X1435000Y0611500D01*
X1437500Y0609000D01*
X1432500Y0602750D02*
X1437500Y0597750D01*
X1437500Y0589000D01*
X1442500Y0584000D01*
X1442500Y0547750D01*
X1440000Y0550250D02*
X1437500Y0547750D01*
X1437500Y0531500D01*
X1445000Y0534000D02*
X1445000Y0539000D01*
X1457500Y0551500D01*
X1457500Y0579000D01*
X1462500Y0584000D01*
X1462500Y0597750D01*
X1467500Y0599000D02*
X1467500Y0586500D01*
X1460000Y0579000D01*
X1460000Y0549000D01*
X1450000Y0539000D01*
X1450000Y0534000D02*
X1456250Y0540250D01*
X1456250Y0541500D01*
X1462500Y0547750D01*
X1462500Y0579000D01*
X1470000Y0586500D01*
X1470000Y0596500D01*
X1471250Y0597750D01*
X1471250Y0601500D01*
X1475000Y0599000D02*
X1472500Y0596500D01*
X1472500Y0586500D01*
X1465000Y0579000D01*
X1465000Y0546500D01*
X1458750Y0540250D01*
X1458750Y0537750D01*
X1455000Y0534000D01*
X1450000Y0534000D02*
X1450000Y0529000D01*
X1432500Y0546500D02*
X1435000Y0549000D01*
X1435000Y0584000D01*
X1435000Y0589000D02*
X1440000Y0584000D01*
X1440000Y0550250D01*
X1405000Y0565250D02*
X1397500Y0557750D01*
X1387500Y0557750D01*
X1380000Y0550250D01*
X1380000Y0539000D01*
X1375000Y0534000D02*
X1380000Y0529000D01*
X1375000Y0534000D02*
X1375000Y0551500D01*
X1386250Y0562750D01*
X1393750Y0562750D01*
X1402500Y0571500D01*
X1402500Y0599000D01*
X1397500Y0604000D01*
X1397500Y0606500D01*
X1393750Y0609000D02*
X1393750Y0572750D01*
X1370000Y0549000D01*
X1370000Y0539000D01*
X1365000Y0534000D02*
X1370000Y0529000D01*
X1365000Y0534000D02*
X1365000Y0546500D01*
X1391250Y0572750D01*
X1391250Y0606500D01*
X1390000Y0607750D01*
X1390000Y0611500D01*
X1386250Y0609000D02*
X1386250Y0614000D01*
X1382500Y0616500D02*
X1382500Y0610250D01*
X1386250Y0606500D01*
X1386250Y0572750D01*
X1355000Y0541500D01*
X1355000Y0534000D01*
X1360000Y0529000D01*
X1360000Y0539000D02*
X1360000Y0544000D01*
X1388750Y0572750D01*
X1388750Y0606500D01*
X1386250Y0609000D01*
X1383750Y0604000D02*
X1378750Y0609000D01*
X1375000Y0606500D02*
X1381250Y0600250D01*
X1381250Y0572750D01*
X1352500Y0544000D01*
X1347500Y0544000D01*
X1345000Y0541500D01*
X1345000Y0534000D01*
X1350000Y0529000D01*
X1350000Y0539000D02*
X1383750Y0572750D01*
X1383750Y0604000D01*
X1373750Y0600250D02*
X1356250Y0582750D01*
X1356250Y0564000D01*
X1340000Y0547750D01*
X1340000Y0539000D01*
X1363750Y0565250D02*
X1363750Y0585250D01*
X1370000Y0611500D02*
X1367500Y0614000D01*
X1367500Y0669000D01*
X1340000Y0696500D01*
X1350000Y0696500D02*
X1350000Y0689000D01*
X1370000Y0669000D01*
X1370000Y0619000D01*
X1372500Y0616500D01*
X1375000Y0621500D02*
X1372500Y0624000D01*
X1372500Y0681500D01*
X1360000Y0694000D01*
X1360000Y0696500D01*
X1370000Y0696500D02*
X1375000Y0691500D01*
X1375000Y0629000D01*
X1377500Y0626500D01*
X1402500Y0604000D02*
X1405000Y0601500D01*
X1405000Y0565250D01*
X1435000Y0589000D02*
X1435000Y0595250D01*
X1432500Y0597750D01*
X1432500Y0602750D02*
X1432500Y0636500D01*
X1440000Y0629000D02*
X1452500Y0629000D01*
X1455000Y0626500D01*
X1455000Y0592750D01*
X1458750Y0589000D01*
X1478750Y0575250D02*
X1478750Y0570250D01*
X1482500Y0572750D02*
X1482500Y0576500D01*
X1485000Y0579000D01*
X1485000Y0599000D01*
X1473750Y0610250D01*
X1473750Y0632750D01*
X1477500Y0630250D02*
X1476250Y0629000D01*
X1476250Y0610250D01*
X1487500Y0599000D01*
X1487500Y0579000D01*
X1486250Y0577750D01*
X1486250Y0575250D01*
X1482500Y0579000D02*
X1478750Y0575250D01*
X1482500Y0579000D02*
X1482500Y0599000D01*
X1471250Y0610250D01*
X1471250Y0629000D01*
X1470000Y0630250D01*
X1477500Y0630250D02*
X1477500Y0635250D01*
X1481250Y0629000D02*
X1480000Y0627750D01*
X1481250Y0629000D02*
X1481250Y0645250D01*
X1480000Y0646500D01*
X1480000Y0647300D01*
X1491250Y0661500D02*
X1495000Y0665250D01*
X1491250Y0661500D02*
X1491250Y0617750D01*
X1480000Y0616500D02*
X1480000Y0609000D01*
X1490000Y0599000D01*
X1490000Y0577750D01*
X1497500Y0567750D02*
X1497500Y0596500D01*
X1498750Y0597750D01*
X1506700Y0597300D02*
X1506700Y0561950D01*
X1508750Y0565250D02*
X1511170Y0562830D01*
X1511170Y0559080D01*
X1511250Y0559000D01*
X1515000Y0561500D02*
X1515000Y0556500D01*
X1518750Y0554000D02*
X1518750Y0561500D01*
X1515000Y0565250D01*
X1515000Y0595250D01*
X1518750Y0599000D01*
X1518750Y0609000D01*
X1517370Y0610380D01*
X1514270Y0607230D02*
X1515000Y0606500D01*
X1515000Y0599000D01*
X1511250Y0595250D01*
X1511250Y0565250D01*
X1515000Y0561500D01*
X1508750Y0565250D02*
X1508750Y0595250D01*
X1511250Y0597750D01*
X1511170Y0604080D01*
X1513750Y0644000D02*
X1522500Y0652750D01*
X1442500Y0651500D02*
X1440000Y0649000D01*
X1415000Y0634000D02*
X1410000Y0639000D01*
X1410000Y0680250D01*
X1387500Y0669000D02*
X1387500Y0699000D01*
X1380000Y0706500D01*
X1377500Y0699000D02*
X1370000Y0706500D01*
X1377500Y0699000D02*
X1377500Y0671500D01*
X1380000Y0669000D01*
X1382500Y0669000D01*
D48*
X1382500Y0692750D03*
D39*
X1537500Y0686500D02*
X1567500Y0656500D01*
X1567500Y0532750D01*
X1560000Y0525250D01*
X1560000Y0499000D01*
X1553750Y0492750D01*
X1426250Y0492750D01*
X1420000Y0499000D01*
X1420000Y0504000D01*
X1335000Y0730000D02*
G75*
%LPD*%
D92*
X1420000Y0744000D03*
X1420000Y0754000D03*
X1370000Y0936500D03*
X1370000Y0946500D03*
X1380000Y0946500D03*
X1390000Y0946500D03*
X1360000Y0946500D03*
X1360000Y0936500D03*
X1350000Y0936500D03*
X1350000Y0946500D03*
X1340000Y0946500D03*
X1430000Y0946500D03*
X1440000Y0946500D03*
X1450000Y0946500D03*
X1460000Y0946500D03*
X1470000Y0946500D03*
X1480000Y0946500D03*
X1510000Y0946500D03*
X1520000Y0946500D03*
X1530000Y0946500D03*
X1540000Y0946500D03*
X1550000Y0946500D03*
D102*
X1340000Y0769000D03*
X1350000Y0769000D03*
X1360000Y0769000D03*
X1370000Y0769000D03*
X1380000Y0769000D03*
X1380000Y0779000D03*
X1370000Y0779000D03*
X1360000Y0779000D03*
X1350000Y0779000D03*
X1340000Y0779000D03*
D38*
X1390000Y0754000D03*
X1430000Y0744000D03*
X1450000Y0754000D03*
X1545000Y0754000D03*
X1545000Y0744000D03*
D82*
X1555000Y0744000D03*
X1565000Y0744000D03*
X1565000Y0754000D03*
X1555000Y0754000D03*
X1450000Y0744000D03*
X1440000Y0744000D03*
X1440000Y0754000D03*
X1430000Y0754000D03*
X1410000Y0754000D03*
X1400000Y0754000D03*
D44*
X1340000Y0936500D03*
D86*
X1565810Y0946690D03*
X1565810Y0913810D03*
D69*
X1553510Y0921490D02*
X1549150Y0921490D01*
X1549150Y0939010D02*
X1553510Y0939010D01*
D51*
X1537500Y0926500D03*
X1531250Y0921500D03*
X1536250Y0917750D03*
X1541250Y0914000D03*
X1541250Y0898740D03*
X1536250Y0899000D03*
X1531250Y0899000D03*
X1522500Y0911500D03*
X1500000Y0891500D03*
X1496670Y0888170D03*
X1480000Y0887300D03*
X1472500Y0887750D03*
X1472500Y0882750D03*
X1467500Y0887750D03*
X1460000Y0891500D03*
X1452500Y0887750D03*
X1452500Y0876500D03*
X1440000Y0869000D03*
X1440000Y0864000D03*
X1440000Y0859000D03*
X1437500Y0849000D03*
X1432500Y0837750D03*
X1422500Y0837750D03*
X1435000Y0824000D03*
X1442500Y0829000D03*
X1457500Y0824000D03*
X1458750Y0829000D03*
X1462500Y0837750D03*
X1467500Y0839000D03*
X1471250Y0841500D03*
X1475000Y0839000D03*
X1487500Y0851500D03*
X1491250Y0849000D03*
X1493750Y0855250D03*
X1495000Y0860250D03*
X1483750Y0854000D03*
X1480000Y0856500D03*
X1480000Y0867750D03*
X1473750Y0872750D03*
X1477500Y0875250D03*
X1470000Y0870250D03*
X1470000Y0895250D03*
X1473750Y0899000D03*
X1477500Y0902750D03*
X1481250Y0909000D03*
X1485000Y0906500D03*
X1488750Y0904000D03*
X1495000Y0905250D03*
X1477500Y0911500D03*
X1473750Y0914000D03*
X1470000Y0916500D03*
X1465000Y0916500D03*
X1463750Y0911500D03*
X1452500Y0911500D03*
X1447500Y0911500D03*
X1443750Y0916500D03*
X1432500Y0921500D03*
X1425000Y0921500D03*
X1425000Y0931500D03*
X1412500Y0931500D03*
X1407500Y0936500D03*
X1402500Y0936500D03*
X1397500Y0932750D03*
X1397500Y0926500D03*
X1402500Y0926500D03*
X1405000Y0944000D03*
X1382500Y0926500D03*
X1370000Y0929000D03*
X1360000Y0924000D03*
X1382500Y0909000D03*
X1387500Y0909000D03*
X1395000Y0909000D03*
X1400000Y0909000D03*
X1413750Y0910250D03*
X1420000Y0910250D03*
X1427500Y0904000D03*
X1432500Y0909000D03*
X1437500Y0906500D03*
X1440000Y0899000D03*
X1440000Y0894000D03*
X1440000Y0889000D03*
X1435000Y0899000D03*
X1432500Y0876500D03*
X1415000Y0874000D03*
X1417500Y0861500D03*
X1422500Y0859000D03*
X1402500Y0844000D03*
X1397500Y0846500D03*
X1393750Y0849000D03*
X1390000Y0851500D03*
X1386250Y0854000D03*
X1382500Y0856500D03*
X1375000Y0861500D03*
X1377500Y0866500D03*
X1372500Y0856500D03*
X1370000Y0851500D03*
X1375000Y0846500D03*
X1378750Y0849000D03*
X1373750Y0840250D03*
X1372500Y0824000D03*
X1377500Y0824000D03*
X1363750Y0825250D03*
X1353750Y0827750D03*
X1353750Y0844000D03*
X1353750Y0859000D03*
X1355000Y0871500D03*
X1355000Y0886500D03*
X1357500Y0899000D03*
X1353750Y0900250D03*
X1398750Y0837750D03*
X1417500Y0811500D03*
X1395000Y0809000D03*
X1368750Y0809000D03*
X1363750Y0805250D03*
X1360000Y0809000D03*
X1352500Y0809000D03*
X1385000Y0784000D03*
X1420000Y0784000D03*
X1427500Y0784000D03*
X1432500Y0786500D03*
X1442500Y0787750D03*
X1450000Y0779000D03*
X1455000Y0774000D03*
X1450000Y0769000D03*
X1445000Y0774000D03*
X1437500Y0771500D03*
X1420000Y0771500D03*
X1382500Y0744000D03*
X1382500Y0735250D03*
X1460000Y0754000D03*
X1487500Y0744000D03*
X1492500Y0751500D03*
X1492500Y0757750D03*
X1497500Y0757750D03*
X1497500Y0767750D03*
X1492500Y0767750D03*
X1488750Y0779000D03*
X1462500Y0777750D03*
X1497500Y0807750D03*
X1506700Y0801950D03*
X1511250Y0799000D03*
X1515000Y0796500D03*
X1518750Y0794000D03*
X1526250Y0782750D03*
X1526250Y0774000D03*
X1507500Y0744000D03*
X1537500Y0736500D03*
X1478750Y0810250D03*
X1482500Y0812750D03*
X1486250Y0815250D03*
X1490000Y0817750D03*
X1506700Y0837300D03*
X1498750Y0837750D03*
X1511170Y0844080D03*
X1514270Y0847230D03*
X1517370Y0850380D03*
X1511250Y0871500D03*
X1511250Y0876500D03*
X1513750Y0884000D03*
X1558750Y0881500D03*
X1558750Y0866500D03*
X1525000Y0931500D03*
X1520000Y0937750D03*
X1500000Y0935250D03*
X1495000Y0937750D03*
X1486250Y0941500D03*
X1478750Y0937750D03*
D57*
X1475000Y0934000D01*
X1475000Y0921500D01*
X1470000Y0916500D01*
X1473750Y0914000D02*
X1476250Y0916500D01*
X1485000Y0916500D01*
X1487500Y0919000D01*
X1487500Y0937750D01*
X1492500Y0942750D01*
X1506250Y0942750D01*
X1510000Y0946500D01*
X1520000Y0946500D02*
X1520000Y0937750D01*
X1525000Y0941500D02*
X1530000Y0946500D01*
X1525000Y0941500D02*
X1525000Y0931500D01*
X1531250Y0921500D02*
X1531250Y0899000D01*
X1536250Y0899000D02*
X1536250Y0917750D01*
X1541250Y0914000D02*
X1541250Y0898740D01*
X1522500Y0892750D02*
X1522500Y0911500D01*
X1537500Y0926500D02*
X1537500Y0944000D01*
X1540000Y0946500D01*
X1500000Y0935250D02*
X1500000Y0891500D01*
X1496670Y0888170D02*
X1495000Y0886500D01*
X1495000Y0860250D01*
X1491250Y0857750D02*
X1493750Y0855250D01*
X1491250Y0852750D02*
X1488750Y0855250D01*
X1488750Y0904000D01*
X1486250Y0902750D02*
X1485000Y0904000D01*
X1485000Y0906500D01*
X1486250Y0902750D02*
X1486250Y0855250D01*
X1487500Y0854000D01*
X1487500Y0851500D01*
X1491250Y0852750D02*
X1491250Y0849000D01*
X1483750Y0854000D02*
X1483750Y0902750D01*
X1481250Y0905250D01*
X1481250Y0909000D01*
X1477500Y0911500D02*
X1480000Y0914000D01*
X1486250Y0914000D01*
X1491250Y0919000D01*
X1491250Y0934000D01*
X1495000Y0937750D01*
X1486250Y0941500D02*
X1477500Y0941500D01*
X1470000Y0934000D01*
X1470000Y0921500D01*
X1465000Y0916500D01*
X1477500Y0902750D02*
X1438750Y0902750D01*
X1435000Y0899000D01*
X1432500Y0902750D02*
X1432500Y0909000D01*
X1437500Y0909000D02*
X1437500Y0906500D01*
X1437500Y0926500D01*
X1440000Y0929000D01*
X1440000Y0936500D01*
X1450000Y0946500D01*
X1448750Y0941500D02*
X1465000Y0941500D01*
X1470000Y0946500D01*
X1448750Y0941500D02*
X1443750Y0936500D01*
X1443750Y0916500D01*
X1432500Y0914000D02*
X1432500Y0921500D01*
X1431250Y0925250D02*
X1431250Y0937750D01*
X1440000Y0946500D01*
X1430000Y0946500D02*
X1428750Y0947750D01*
X1402500Y0947750D01*
X1392500Y0937750D01*
X1392500Y0911500D01*
X1395000Y0909000D01*
X1400000Y0909000D02*
X1402500Y0911500D01*
X1402500Y0921500D01*
X1407500Y0926500D01*
X1407500Y0936500D01*
X1402500Y0936500D02*
X1402500Y0926500D01*
X1410000Y0920250D02*
X1412500Y0922750D01*
X1412500Y0931500D01*
X1425000Y0931500D02*
X1425000Y0921500D01*
X1428750Y0922750D02*
X1431250Y0925250D01*
X1428750Y0922750D02*
X1428750Y0912750D01*
X1420000Y0904000D01*
X1420000Y0864000D01*
X1417500Y0861500D01*
X1422500Y0859000D02*
X1422500Y0904000D01*
X1432500Y0914000D01*
X1427500Y0904000D02*
X1427500Y0891500D01*
X1437500Y0881500D01*
X1471250Y0881500D01*
X1472500Y0882750D01*
X1468750Y0884000D02*
X1472500Y0887750D01*
X1468750Y0884000D02*
X1440000Y0884000D01*
X1430000Y0894000D01*
X1430000Y0900250D01*
X1432500Y0902750D01*
X1440000Y0899000D02*
X1473750Y0899000D01*
X1470000Y0895250D02*
X1441250Y0895250D01*
X1440000Y0894000D01*
X1442500Y0891500D02*
X1460000Y0891500D01*
X1452500Y0876500D02*
X1437500Y0876500D01*
X1435000Y0874000D01*
X1435000Y0851500D01*
X1437500Y0849000D01*
X1432500Y0842750D02*
X1437500Y0837750D01*
X1437500Y0829000D01*
X1442500Y0824000D01*
X1442500Y0787750D01*
X1440000Y0790250D02*
X1437500Y0787750D01*
X1437500Y0771500D01*
X1445000Y0774000D02*
X1445000Y0779000D01*
X1457500Y0791500D01*
X1457500Y0819000D01*
X1462500Y0824000D01*
X1462500Y0837750D01*
X1467500Y0839000D02*
X1467500Y0826500D01*
X1460000Y0819000D01*
X1460000Y0789000D01*
X1450000Y0779000D01*
X1450000Y0774000D02*
X1456250Y0780250D01*
X1456250Y0781500D01*
X1462500Y0787750D01*
X1462500Y0819000D01*
X1470000Y0826500D01*
X1470000Y0836500D01*
X1471250Y0837750D01*
X1471250Y0841500D01*
X1475000Y0839000D02*
X1472500Y0836500D01*
X1472500Y0826500D01*
X1465000Y0819000D01*
X1465000Y0786500D01*
X1458750Y0780250D01*
X1458750Y0777750D01*
X1455000Y0774000D01*
X1450000Y0774000D02*
X1450000Y0769000D01*
X1432500Y0786500D02*
X1435000Y0789000D01*
X1435000Y0824000D01*
X1435000Y0829000D02*
X1440000Y0824000D01*
X1440000Y0790250D01*
X1405000Y0805250D02*
X1397500Y0797750D01*
X1387500Y0797750D01*
X1380000Y0790250D01*
X1380000Y0779000D01*
X1375000Y0774000D02*
X1380000Y0769000D01*
X1375000Y0774000D02*
X1375000Y0791500D01*
X1386250Y0802750D01*
X1393750Y0802750D01*
X1402500Y0811500D01*
X1402500Y0839000D01*
X1397500Y0844000D01*
X1397500Y0846500D01*
X1393750Y0849000D02*
X1393750Y0812750D01*
X1370000Y0789000D01*
X1370000Y0779000D01*
X1365000Y0774000D02*
X1370000Y0769000D01*
X1365000Y0774000D02*
X1365000Y0786500D01*
X1391250Y0812750D01*
X1391250Y0846500D01*
X1390000Y0847750D01*
X1390000Y0851500D01*
X1386250Y0849000D02*
X1386250Y0854000D01*
X1382500Y0856500D02*
X1382500Y0850250D01*
X1386250Y0846500D01*
X1386250Y0812750D01*
X1355000Y0781500D01*
X1355000Y0774000D01*
X1360000Y0769000D01*
X1360000Y0779000D02*
X1360000Y0784000D01*
X1388750Y0812750D01*
X1388750Y0846500D01*
X1386250Y0849000D01*
X1383750Y0844000D02*
X1378750Y0849000D01*
X1375000Y0846500D02*
X1381250Y0840250D01*
X1381250Y0812750D01*
X1352500Y0784000D01*
X1347500Y0784000D01*
X1345000Y0781500D01*
X1345000Y0774000D01*
X1350000Y0769000D01*
X1350000Y0779000D02*
X1383750Y0812750D01*
X1383750Y0844000D01*
X1373750Y0840250D02*
X1356250Y0822750D01*
X1356250Y0804000D01*
X1340000Y0787750D01*
X1340000Y0779000D01*
X1363750Y0805250D02*
X1363750Y0825250D01*
X1370000Y0851500D02*
X1367500Y0854000D01*
X1367500Y0909000D01*
X1340000Y0936500D01*
X1350000Y0936500D02*
X1350000Y0929000D01*
X1370000Y0909000D01*
X1370000Y0859000D01*
X1372500Y0856500D01*
X1375000Y0861500D02*
X1372500Y0864000D01*
X1372500Y0921500D01*
X1360000Y0934000D01*
X1360000Y0936500D01*
X1370000Y0936500D02*
X1375000Y0931500D01*
X1375000Y0869000D01*
X1377500Y0866500D01*
X1402500Y0844000D02*
X1405000Y0841500D01*
X1405000Y0805250D01*
X1435000Y0829000D02*
X1435000Y0835250D01*
X1432500Y0837750D01*
X1432500Y0842750D02*
X1432500Y0876500D01*
X1440000Y0869000D02*
X1452500Y0869000D01*
X1455000Y0866500D01*
X1455000Y0832750D01*
X1458750Y0829000D01*
X1478750Y0815250D02*
X1478750Y0810250D01*
X1482500Y0812750D02*
X1482500Y0816500D01*
X1485000Y0819000D01*
X1485000Y0839000D01*
X1473750Y0850250D01*
X1473750Y0872750D01*
X1477500Y0870250D02*
X1476250Y0869000D01*
X1476250Y0850250D01*
X1487500Y0839000D01*
X1487500Y0819000D01*
X1486250Y0817750D01*
X1486250Y0815250D01*
X1482500Y0819000D02*
X1478750Y0815250D01*
X1482500Y0819000D02*
X1482500Y0839000D01*
X1471250Y0850250D01*
X1471250Y0869000D01*
X1470000Y0870250D01*
X1477500Y0870250D02*
X1477500Y0875250D01*
X1481250Y0869000D02*
X1480000Y0867750D01*
X1481250Y0869000D02*
X1481250Y0885250D01*
X1480000Y0886500D01*
X1480000Y0887300D01*
X1491250Y0901500D02*
X1495000Y0905250D01*
X1491250Y0901500D02*
X1491250Y0857750D01*
X1480000Y0856500D02*
X1480000Y0849000D01*
X1490000Y0839000D01*
X1490000Y0817750D01*
X1497500Y0807750D02*
X1497500Y0836500D01*
X1498750Y0837750D01*
X1506700Y0837300D02*
X1506700Y0801950D01*
X1508750Y0805250D02*
X1511170Y0802830D01*
X1511170Y0799080D01*
X1511250Y0799000D01*
X1515000Y0801500D02*
X1515000Y0796500D01*
X1518750Y0794000D02*
X1518750Y0801500D01*
X1515000Y0805250D01*
X1515000Y0835250D01*
X1518750Y0839000D01*
X1518750Y0849000D01*
X1517370Y0850380D01*
X1514270Y0847230D02*
X1515000Y0846500D01*
X1515000Y0839000D01*
X1511250Y0835250D01*
X1511250Y0805250D01*
X1515000Y0801500D01*
X1508750Y0805250D02*
X1508750Y0835250D01*
X1511250Y0837750D01*
X1511170Y0844080D01*
X1513750Y0884000D02*
X1522500Y0892750D01*
X1442500Y0891500D02*
X1440000Y0889000D01*
X1415000Y0874000D02*
X1410000Y0879000D01*
X1410000Y0920250D01*
X1387500Y0909000D02*
X1387500Y0939000D01*
X1380000Y0946500D01*
X1377500Y0939000D02*
X1370000Y0946500D01*
X1377500Y0939000D02*
X1377500Y0911500D01*
X1380000Y0909000D01*
X1382500Y0909000D01*
D48*
X1382500Y0932750D03*
D39*
X1537500Y0926500D02*
X1567500Y0896500D01*
X1567500Y0772750D01*
X1560000Y0765250D01*
X1560000Y0739000D01*
X1553750Y0732750D01*
X1426250Y0732750D01*
X1420000Y0739000D01*
X1420000Y0744000D01*
M02*
