G75*
G70*
%OFA0B0*%
%FSLAX25Y25*%
%IPPOS*%
%LPD*%
%AMOC8*
5,1,8,0,0,1.08239X$1,22.5*
%
%ADD10C,0.07000*%
%ADD101OC8,0.11470*%
%ADD11C,0.10400*%
%ADD114R,0.21400X0.08000*%
%ADD115R,0.05910X0.05120*%
%ADD116R,0.01970X0.03940*%
%ADD117R,0.06300X0.08300*%
%ADD118R,0.08270X0.06310*%
%ADD119R,0.15400X0.08300*%
%ADD120R,0.01900X0.07900*%
%ADD13C,0.05600*%
%ADD14C,0.05940*%
%ADD15R,0.03940X0.01970*%
%ADD18R,0.08000X0.21400*%
%ADD19R,0.06200X0.01500*%
%ADD21OC8,0.07800*%
%ADD22R,0.06400X0.06400*%
%ADD25R,0.06700X0.07490*%
%ADD31R,0.05710X0.01970*%
%ADD33R,0.01970X0.05710*%
%ADD34R,0.07900X0.01900*%
%ADD40C,0.15400*%
%ADD43OC8,0.05600*%
%ADD45OC8,0.06700*%
%ADD46R,0.07880X0.07490*%
%ADD47C,0.08000*%
%ADD52R,0.01500X0.06200*%
%ADD54R,0.04340X0.04730*%
%ADD55R,0.07490X0.07490*%
%ADD56R,0.08300X0.06300*%
%ADD58R,0.05120X0.05910*%
%ADD60R,0.06310X0.08270*%
%ADD62C,0.06700*%
%ADD68R,0.08300X0.15400*%
%ADD74C,0.07800*%
%ADD77R,0.07490X0.07880*%
%ADD84R,0.04730X0.04340*%
%ADD87C,0.08200*%
%ADD89C,0.06400*%
%ADD94C,0.04760*%
%ADD96R,0.07800X0.07800*%
%ADD99R,0.07490X0.06700*%
X0010000Y0010000D02*
G75*
%LPD*%
D74*
X0217500Y0095000D03*
X0207500Y0095000D03*
X0025000Y0045000D03*
X0015000Y0045000D03*
X0015000Y0055000D03*
X0015000Y0065000D03*
X0015000Y0035000D03*
X0025000Y0035000D03*
X0025000Y0025000D03*
X0015000Y0025000D03*
X0015000Y0015000D03*
X0015000Y0105000D03*
X0015000Y0115000D03*
X0015000Y0125000D03*
X0015000Y0135000D03*
X0015000Y0145000D03*
X0015000Y0155000D03*
X0015000Y0185000D03*
X0015000Y0195000D03*
X0015000Y0205000D03*
X0015000Y0215000D03*
X0015000Y0225000D03*
D84*
X0023750Y0212090D03*
X0023750Y0205400D03*
X0030000Y0205400D03*
X0030000Y0212090D03*
X0084150Y0233750D03*
X0090850Y0233750D03*
X0093350Y0171250D03*
X0086650Y0171250D03*
X0139150Y0090000D03*
X0145850Y0090000D03*
X0148350Y0070000D03*
X0141650Y0070000D03*
X0141650Y0060000D03*
X0148350Y0060000D03*
X0148350Y0052500D03*
X0141650Y0052500D03*
X0141650Y0043750D03*
X0148350Y0043750D03*
X0148350Y0035000D03*
X0141650Y0035000D03*
X0141650Y0027500D03*
X0148350Y0027500D03*
X0133350Y0025000D03*
X0126650Y0025000D03*
X0113350Y0030000D03*
X0106650Y0030000D03*
X0085850Y0030000D03*
X0079150Y0030000D03*
X0068350Y0025000D03*
X0061650Y0025000D03*
X0028750Y0061650D03*
X0028750Y0068340D03*
X0017500Y0084150D03*
X0017500Y0090840D03*
X0177500Y0070840D03*
X0177500Y0064150D03*
X0190000Y0064150D03*
X0190000Y0070840D03*
X0190000Y0101650D03*
X0190000Y0108340D03*
X0182500Y0108340D03*
X0182500Y0101650D03*
X0180400Y0197500D03*
X0187100Y0197500D03*
D54*
X0217500Y0199150D03*
X0217500Y0205840D03*
X0221250Y0175840D03*
X0221250Y0169150D03*
X0207500Y0145840D03*
X0207500Y0139150D03*
X0182500Y0141650D03*
X0182500Y0148340D03*
X0137500Y0128340D03*
X0131250Y0128340D03*
X0131250Y0121650D03*
X0137500Y0121650D03*
X0100000Y0134150D03*
X0100000Y0140840D03*
X0075000Y0138340D03*
X0075000Y0131650D03*
X0053750Y0131650D03*
X0053750Y0138340D03*
X0045000Y0130840D03*
X0045000Y0124150D03*
X0035000Y0093340D03*
X0035000Y0086650D03*
X0035000Y0068340D03*
X0035000Y0061650D03*
X0037500Y0045840D03*
X0037500Y0039150D03*
D115*
X0177500Y0079090D03*
X0177500Y0090900D03*
X0190000Y0090900D03*
X0190000Y0079090D03*
D21*
X0192500Y0055000D03*
X0182500Y0055000D03*
X0182500Y0045000D03*
X0192500Y0045000D03*
X0192500Y0035000D03*
X0182500Y0035000D03*
X0182500Y0025000D03*
X0182500Y0015000D03*
X0192500Y0015000D03*
X0192500Y0025000D03*
D52*
X0121900Y0037800D03*
X0120000Y0037800D03*
X0118000Y0037800D03*
X0116000Y0037800D03*
X0114100Y0037800D03*
X0112100Y0037800D03*
X0110100Y0037800D03*
X0108200Y0037800D03*
X0106200Y0037800D03*
X0104200Y0037800D03*
X0102300Y0037800D03*
X0100300Y0037800D03*
X0098300Y0037800D03*
X0096400Y0037800D03*
X0094400Y0037800D03*
X0092400Y0037800D03*
X0090500Y0037800D03*
X0088500Y0037800D03*
X0086500Y0037800D03*
X0084500Y0037800D03*
X0082600Y0037800D03*
X0080600Y0037800D03*
X0078600Y0037800D03*
X0076700Y0037800D03*
X0074700Y0037800D03*
X0072700Y0037800D03*
X0070800Y0037800D03*
X0068800Y0037800D03*
X0066800Y0037800D03*
X0064900Y0037800D03*
X0062900Y0037800D03*
X0060900Y0037800D03*
X0059000Y0037800D03*
X0057000Y0037800D03*
X0055000Y0037800D03*
X0053100Y0037800D03*
X0053100Y0122200D03*
X0055000Y0122200D03*
X0057000Y0122200D03*
X0059000Y0122200D03*
X0060900Y0122200D03*
X0062900Y0122200D03*
X0064900Y0122200D03*
X0066800Y0122200D03*
X0068800Y0122200D03*
X0070800Y0122200D03*
X0072700Y0122200D03*
X0074700Y0122200D03*
X0076700Y0122200D03*
X0078600Y0122200D03*
X0080600Y0122200D03*
X0082600Y0122200D03*
X0084500Y0122200D03*
X0086500Y0122200D03*
X0088500Y0122200D03*
X0090500Y0122200D03*
X0092400Y0122200D03*
X0094400Y0122200D03*
X0096400Y0122200D03*
X0098300Y0122200D03*
X0100300Y0122200D03*
X0102300Y0122200D03*
X0104200Y0122200D03*
X0106200Y0122200D03*
X0108200Y0122200D03*
X0110100Y0122200D03*
X0112100Y0122200D03*
X0114100Y0122200D03*
X0116000Y0122200D03*
X0118000Y0122200D03*
X0120000Y0122200D03*
X0121900Y0122200D03*
D19*
X0129700Y0114400D03*
X0129700Y0112500D03*
X0129700Y0110500D03*
X0129700Y0108500D03*
X0129700Y0106600D03*
X0129700Y0104600D03*
X0129700Y0102600D03*
X0129700Y0100700D03*
X0129700Y0098700D03*
X0129700Y0096700D03*
X0129700Y0094800D03*
X0129700Y0092800D03*
X0129700Y0090800D03*
X0129700Y0088900D03*
X0129700Y0086900D03*
X0129700Y0084900D03*
X0129700Y0083000D03*
X0129700Y0081000D03*
X0129700Y0079000D03*
X0129700Y0077000D03*
X0129700Y0075100D03*
X0129700Y0073100D03*
X0129700Y0071100D03*
X0129700Y0069200D03*
X0129700Y0067200D03*
X0129700Y0065200D03*
X0129700Y0063300D03*
X0129700Y0061300D03*
X0129700Y0059300D03*
X0129700Y0057400D03*
X0129700Y0055400D03*
X0129700Y0053400D03*
X0129700Y0051500D03*
X0129700Y0049500D03*
X0129700Y0047500D03*
X0129700Y0045600D03*
X0045300Y0045600D03*
X0045300Y0047500D03*
X0045300Y0049500D03*
X0045300Y0051500D03*
X0045300Y0053400D03*
X0045300Y0055400D03*
X0045300Y0057400D03*
X0045300Y0059300D03*
X0045300Y0061300D03*
X0045300Y0063300D03*
X0045300Y0065200D03*
X0045300Y0067200D03*
X0045300Y0069200D03*
X0045300Y0071100D03*
X0045300Y0073100D03*
X0045300Y0075100D03*
X0045300Y0077000D03*
X0045300Y0079000D03*
X0045300Y0081000D03*
X0045300Y0083000D03*
X0045300Y0084900D03*
X0045300Y0086900D03*
X0045300Y0088900D03*
X0045300Y0090800D03*
X0045300Y0092800D03*
X0045300Y0094800D03*
X0045300Y0096700D03*
X0045300Y0098700D03*
X0045300Y0100700D03*
X0045300Y0102600D03*
X0045300Y0104600D03*
X0045300Y0106600D03*
X0045300Y0108500D03*
X0045300Y0110500D03*
X0045300Y0112500D03*
X0045300Y0114400D03*
D114*
X0078500Y0017500D03*
X0116500Y0017500D03*
D116*
X0117420Y0181700D03*
X0120570Y0181700D03*
X0114270Y0181700D03*
X0111120Y0181700D03*
X0107970Y0181700D03*
X0104820Y0181700D03*
X0101670Y0181700D03*
X0098520Y0181700D03*
X0095370Y0181700D03*
X0092220Y0181700D03*
X0089070Y0181700D03*
X0085930Y0181700D03*
X0082780Y0181700D03*
X0079630Y0181700D03*
X0076480Y0181700D03*
X0073330Y0181700D03*
X0070180Y0181700D03*
X0067030Y0181700D03*
X0063880Y0181700D03*
X0060730Y0181700D03*
X0057580Y0181700D03*
X0054430Y0181700D03*
X0054430Y0225790D03*
X0057580Y0225790D03*
X0060730Y0225790D03*
X0063880Y0225790D03*
X0067030Y0225790D03*
X0070180Y0225790D03*
X0073330Y0225790D03*
X0076480Y0225790D03*
X0079630Y0225790D03*
X0082780Y0225790D03*
X0085930Y0225790D03*
X0089070Y0225790D03*
X0092220Y0225790D03*
X0095370Y0225790D03*
X0098520Y0225790D03*
X0101670Y0225790D03*
X0104820Y0225790D03*
X0107970Y0225790D03*
X0111120Y0225790D03*
X0114270Y0225790D03*
X0117420Y0225790D03*
X0120570Y0225790D03*
D117*
X0208400Y0049900D03*
X0217400Y0049900D03*
X0226400Y0049900D03*
D119*
X0217500Y0025100D03*
D118*
X0216130Y0065000D03*
X0226370Y0065000D03*
X0226370Y0082500D03*
X0216130Y0082500D03*
D120*
X0215350Y0157720D03*
X0212800Y0157720D03*
X0210240Y0157720D03*
X0207680Y0157720D03*
X0205120Y0157720D03*
X0202560Y0157720D03*
X0200000Y0157720D03*
X0197440Y0157720D03*
X0194880Y0157720D03*
X0192320Y0157720D03*
X0189760Y0157720D03*
X0187200Y0157720D03*
X0184650Y0157720D03*
X0182090Y0157720D03*
X0182090Y0187270D03*
X0184650Y0187270D03*
X0187200Y0187270D03*
X0189760Y0187270D03*
X0192320Y0187270D03*
X0194880Y0187270D03*
X0197440Y0187270D03*
X0200000Y0187270D03*
X0202560Y0187270D03*
X0205120Y0187270D03*
X0207680Y0187270D03*
X0210240Y0187270D03*
X0212800Y0187270D03*
X0215350Y0187270D03*
D22*
X0217500Y0220000D03*
X0207500Y0220000D03*
X0207500Y0125000D03*
X0217500Y0105000D03*
X0207500Y0065000D03*
D89*
X0207500Y0075000D03*
X0207500Y0085000D03*
X0207500Y0105000D03*
X0207500Y0115000D03*
X0217500Y0115000D03*
X0217500Y0125000D03*
X0217500Y0230000D03*
X0217500Y0240000D03*
X0207500Y0240000D03*
X0207500Y0230000D03*
D99*
X0225000Y0208010D03*
X0225000Y0196990D03*
X0225000Y0155510D03*
X0225000Y0144490D03*
D25*
X0189260Y0207500D03*
X0178240Y0207500D03*
D96*
X0025000Y0015000D03*
D55*
X0014810Y0240810D03*
X0047690Y0240810D03*
D94*
X0040010Y0228510D02*
X0040010Y0224150D01*
X0022490Y0224150D02*
X0022490Y0228510D01*
D33*
X0026130Y0229790D03*
X0028690Y0229790D03*
X0031250Y0229790D03*
X0033810Y0229790D03*
X0036370Y0229790D03*
D77*
X0035780Y0240810D03*
X0026720Y0240810D03*
X0244000Y0010000D02*
G75*
%LPD*%
D47*
X0313030Y0047010D03*
X0313030Y0056860D03*
X0313030Y0066700D03*
X0313030Y0147010D03*
X0313030Y0156860D03*
X0313030Y0166700D03*
X0313030Y0247010D03*
X0313030Y0256860D03*
X0313030Y0266700D03*
X0313030Y0347010D03*
X0313030Y0356860D03*
X0313030Y0366700D03*
D101*
X0283500Y0374570D03*
X0283500Y0339140D03*
X0283500Y0274570D03*
X0283500Y0239140D03*
X0283500Y0174570D03*
X0283500Y0139140D03*
X0283500Y0074570D03*
X0283500Y0039140D03*
D74*
X0474750Y0100610D03*
X0464750Y0100610D03*
X0464750Y0110610D03*
X0454750Y0110610D03*
X0444750Y0110610D03*
X0444750Y0100610D03*
X0454750Y0100610D03*
X0434750Y0100610D03*
X0424750Y0100610D03*
X0384750Y0100610D03*
X0374750Y0100610D03*
X0364750Y0100610D03*
X0354750Y0100610D03*
X0344750Y0100610D03*
X0334750Y0100610D03*
X0304750Y0100610D03*
X0294750Y0100610D03*
X0284750Y0100610D03*
X0274750Y0100610D03*
X0264750Y0100610D03*
X0292250Y0203110D03*
X0292250Y0223110D03*
X0252250Y0248110D03*
X0252250Y0258110D03*
X0394750Y0290610D03*
X0394750Y0300610D03*
X0404750Y0290610D03*
X0414750Y0290610D03*
X0424750Y0290610D03*
X0474750Y0250610D03*
X0474750Y0240610D03*
X0474750Y0230610D03*
X0474750Y0220610D03*
X0474750Y0210610D03*
X0474750Y0200610D03*
X0474750Y0190610D03*
X0474750Y0180610D03*
X0474750Y0170610D03*
X0474750Y0160610D03*
D87*
X0292250Y0185610D03*
X0252250Y0185610D03*
D22*
X0249750Y0290610D03*
X0269750Y0300610D03*
X0384750Y0300610D03*
X0384750Y0290610D03*
D89*
X0374750Y0290610D03*
X0374750Y0300610D03*
X0364750Y0300610D03*
X0364750Y0290610D03*
X0269750Y0290610D03*
X0259750Y0290610D03*
X0259750Y0300610D03*
X0249750Y0300610D03*
D43*
X0328500Y0271860D03*
X0338500Y0271860D03*
X0348500Y0271860D03*
X0358500Y0271860D03*
X0368500Y0271860D03*
X0368500Y0241860D03*
X0358500Y0241860D03*
X0348500Y0241860D03*
X0338500Y0241860D03*
X0328500Y0241860D03*
X0382250Y0230610D03*
X0412250Y0230610D03*
X0423500Y0226860D03*
X0423500Y0236860D03*
X0423500Y0246860D03*
X0453500Y0246860D03*
X0453500Y0236860D03*
X0453500Y0226860D03*
X0448500Y0201860D03*
X0453500Y0191860D03*
X0453500Y0181860D03*
X0453500Y0171860D03*
X0448500Y0141860D03*
X0448500Y0131860D03*
X0428500Y0131860D03*
X0428500Y0141860D03*
X0423500Y0171860D03*
X0423500Y0181860D03*
X0423500Y0191860D03*
X0428500Y0201860D03*
X0383500Y0151860D03*
X0373500Y0151860D03*
X0363500Y0151860D03*
X0363500Y0121860D03*
X0373500Y0121860D03*
X0383500Y0121860D03*
X0308500Y0125610D03*
X0308500Y0116860D03*
X0278500Y0116860D03*
X0278500Y0125610D03*
X0436000Y0291860D03*
X0443500Y0296860D03*
X0443500Y0286860D03*
X0461000Y0291860D03*
X0468500Y0296860D03*
X0468500Y0286860D03*
D45*
X0408500Y0271860D03*
X0393500Y0246860D03*
X0408500Y0166860D03*
X0408500Y0136860D03*
X0378500Y0166860D03*
X0348500Y0166860D03*
X0348500Y0136860D03*
D62*
X0338500Y0136860D03*
X0338500Y0166860D03*
X0368500Y0166860D03*
X0398500Y0166860D03*
X0398500Y0136860D03*
X0383500Y0246860D03*
X0398500Y0271860D03*
D13*
X0348500Y0221860D03*
X0338500Y0221860D03*
X0328500Y0221860D03*
X0318500Y0221860D03*
X0318500Y0191860D03*
X0328500Y0191860D03*
X0338500Y0191860D03*
X0348500Y0191860D03*
D10*
X0416000Y0216860D03*
X0461000Y0216860D03*
X0461000Y0156860D03*
X0416000Y0156860D03*
D40*
X0278690Y0211860D03*
X0266880Y0230360D03*
X0255060Y0211860D03*
D21*
X0434750Y0260610D03*
X0434750Y0270610D03*
X0444750Y0270610D03*
X0444750Y0260610D03*
X0454750Y0260610D03*
X0454750Y0270610D03*
X0464750Y0270610D03*
X0464750Y0260610D03*
X0474750Y0260610D03*
X0474750Y0270610D03*
D11*
X0467870Y0347480D03*
X0483810Y0347480D03*
X0483810Y0372170D03*
X0467880Y0371860D03*
X0467880Y0397170D03*
X0483810Y0397170D03*
X0547880Y0397170D03*
X0547880Y0371860D03*
X0547870Y0347480D03*
X0403810Y0347480D03*
X0387870Y0347480D03*
X0387880Y0371860D03*
X0403810Y0372170D03*
X0403810Y0397170D03*
X0387880Y0397170D03*
X0323810Y0397170D03*
X0323810Y0372170D03*
X0323810Y0347480D03*
X0324130Y0066230D03*
X0324120Y0041860D03*
X0324120Y0016540D03*
X0388190Y0016540D03*
X0404120Y0016540D03*
X0404120Y0041860D03*
X0388190Y0041540D03*
X0388190Y0066230D03*
X0404130Y0066230D03*
X0468190Y0066230D03*
X0468190Y0041540D03*
X0468190Y0016540D03*
D96*
X0474750Y0110610D03*
D55*
X0249020Y0102430D03*
X0249020Y0135300D03*
D94*
X0261320Y0127620D02*
X0265690Y0127620D01*
X0265690Y0110100D02*
X0261320Y0110100D01*
D13*
X0430900Y0311860D02*
X0436100Y0311860D01*
X0470900Y0311860D02*
X0476100Y0311860D01*
D14*
X0403500Y0221860D03*
X0403500Y0191860D03*
X0363500Y0191860D03*
X0363500Y0221860D03*
X0567250Y0010000D02*
G75*
%LPD*%
D47*
X0636280Y0047010D03*
X0636280Y0056860D03*
X0636280Y0066700D03*
X0636280Y0147010D03*
X0636280Y0156860D03*
X0636280Y0166700D03*
X0636280Y0247010D03*
X0636280Y0256860D03*
X0636280Y0266700D03*
X0636280Y0347010D03*
X0636280Y0356860D03*
X0636280Y0366700D03*
D101*
X0606750Y0374570D03*
X0606750Y0339140D03*
X0606750Y0274570D03*
X0606750Y0239140D03*
X0606750Y0174570D03*
X0606750Y0139140D03*
X0606750Y0074570D03*
X0606750Y0039140D03*
D74*
X0798000Y0100610D03*
X0788000Y0100610D03*
X0788000Y0110610D03*
X0778000Y0110610D03*
X0768000Y0110610D03*
X0768000Y0100610D03*
X0778000Y0100610D03*
X0758000Y0100610D03*
X0748000Y0100610D03*
X0708000Y0100610D03*
X0698000Y0100610D03*
X0688000Y0100610D03*
X0678000Y0100610D03*
X0668000Y0100610D03*
X0658000Y0100610D03*
X0628000Y0100610D03*
X0618000Y0100610D03*
X0608000Y0100610D03*
X0598000Y0100610D03*
X0588000Y0100610D03*
X0615500Y0203110D03*
X0615500Y0223110D03*
X0575500Y0248110D03*
X0575500Y0258110D03*
X0718000Y0290610D03*
X0718000Y0300610D03*
X0728000Y0290610D03*
X0738000Y0290610D03*
X0748000Y0290610D03*
X0798000Y0250610D03*
X0798000Y0240610D03*
X0798000Y0230610D03*
X0798000Y0220610D03*
X0798000Y0210610D03*
X0798000Y0200610D03*
X0798000Y0190610D03*
X0798000Y0180610D03*
X0798000Y0170610D03*
X0798000Y0160610D03*
D87*
X0615500Y0185610D03*
X0575500Y0185610D03*
D22*
X0573000Y0290610D03*
X0593000Y0300610D03*
X0708000Y0300610D03*
X0708000Y0290610D03*
D89*
X0698000Y0290610D03*
X0698000Y0300610D03*
X0688000Y0300610D03*
X0688000Y0290610D03*
X0593000Y0290610D03*
X0583000Y0290610D03*
X0583000Y0300610D03*
X0573000Y0300610D03*
D43*
X0651750Y0271860D03*
X0661750Y0271860D03*
X0671750Y0271860D03*
X0681750Y0271860D03*
X0691750Y0271860D03*
X0691750Y0241860D03*
X0681750Y0241860D03*
X0671750Y0241860D03*
X0661750Y0241860D03*
X0651750Y0241860D03*
X0705500Y0230610D03*
X0735500Y0230610D03*
X0746750Y0226860D03*
X0746750Y0236860D03*
X0746750Y0246860D03*
X0776750Y0246860D03*
X0776750Y0236860D03*
X0776750Y0226860D03*
X0771750Y0201860D03*
X0776750Y0191860D03*
X0776750Y0181860D03*
X0776750Y0171860D03*
X0771750Y0141860D03*
X0771750Y0131860D03*
X0751750Y0131860D03*
X0751750Y0141860D03*
X0746750Y0171860D03*
X0746750Y0181860D03*
X0746750Y0191860D03*
X0751750Y0201860D03*
X0706750Y0151860D03*
X0696750Y0151860D03*
X0686750Y0151860D03*
X0686750Y0121860D03*
X0696750Y0121860D03*
X0706750Y0121860D03*
X0631750Y0125610D03*
X0631750Y0116860D03*
X0601750Y0116860D03*
X0601750Y0125610D03*
X0759250Y0291860D03*
X0766750Y0296860D03*
X0766750Y0286860D03*
X0784250Y0291860D03*
X0791750Y0296860D03*
X0791750Y0286860D03*
D45*
X0731750Y0271860D03*
X0716750Y0246860D03*
X0731750Y0166860D03*
X0731750Y0136860D03*
X0701750Y0166860D03*
X0671750Y0166860D03*
X0671750Y0136860D03*
D62*
X0661750Y0136860D03*
X0661750Y0166860D03*
X0691750Y0166860D03*
X0721750Y0166860D03*
X0721750Y0136860D03*
X0706750Y0246860D03*
X0721750Y0271860D03*
D13*
X0671750Y0221860D03*
X0661750Y0221860D03*
X0651750Y0221860D03*
X0641750Y0221860D03*
X0641750Y0191860D03*
X0651750Y0191860D03*
X0661750Y0191860D03*
X0671750Y0191860D03*
D10*
X0739250Y0216860D03*
X0784250Y0216860D03*
X0784250Y0156860D03*
X0739250Y0156860D03*
D40*
X0601940Y0211860D03*
X0590130Y0230360D03*
X0578310Y0211860D03*
D21*
X0758000Y0260610D03*
X0758000Y0270610D03*
X0768000Y0270610D03*
X0768000Y0260610D03*
X0778000Y0260610D03*
X0778000Y0270610D03*
X0788000Y0270610D03*
X0788000Y0260610D03*
X0798000Y0260610D03*
X0798000Y0270610D03*
D11*
X0791120Y0347480D03*
X0807060Y0347480D03*
X0807060Y0372170D03*
X0791130Y0371860D03*
X0791130Y0397170D03*
X0807060Y0397170D03*
X0871130Y0397170D03*
X0871130Y0371860D03*
X0871120Y0347480D03*
X0727060Y0347480D03*
X0711120Y0347480D03*
X0711130Y0371860D03*
X0727060Y0372170D03*
X0727060Y0397170D03*
X0711130Y0397170D03*
X0647060Y0397170D03*
X0647060Y0372170D03*
X0647060Y0347480D03*
X0647380Y0066230D03*
X0647370Y0041860D03*
X0647370Y0016540D03*
X0711440Y0016540D03*
X0727370Y0016540D03*
X0727370Y0041860D03*
X0711440Y0041540D03*
X0711440Y0066230D03*
X0727380Y0066230D03*
X0791440Y0066230D03*
X0791440Y0041540D03*
X0791440Y0016540D03*
D96*
X0798000Y0110610D03*
D55*
X0572270Y0102430D03*
X0572270Y0135300D03*
D94*
X0584570Y0127620D02*
X0588940Y0127620D01*
X0588940Y0110100D02*
X0584570Y0110100D01*
D13*
X0754150Y0311860D02*
X0759350Y0311860D01*
X0794150Y0311860D02*
X0799350Y0311860D01*
D14*
X0726750Y0221860D03*
X0726750Y0191860D03*
X0686750Y0191860D03*
X0686750Y0221860D03*
X0890500Y0010000D02*
G75*
%LPD*%
D47*
X0959530Y0047010D03*
X0959530Y0056860D03*
X0959530Y0066700D03*
X0959530Y0147010D03*
X0959530Y0156860D03*
X0959530Y0166700D03*
X0959530Y0247010D03*
X0959530Y0256860D03*
X0959530Y0266700D03*
X0959530Y0347010D03*
X0959530Y0356860D03*
X0959530Y0366700D03*
D101*
X0930000Y0374570D03*
X0930000Y0339140D03*
X0930000Y0274570D03*
X0930000Y0239140D03*
X0930000Y0174570D03*
X0930000Y0139140D03*
X0930000Y0074570D03*
X0930000Y0039140D03*
D74*
X1121250Y0100610D03*
X1111250Y0100610D03*
X1111250Y0110610D03*
X1101250Y0110610D03*
X1091250Y0110610D03*
X1091250Y0100610D03*
X1101250Y0100610D03*
X1081250Y0100610D03*
X1071250Y0100610D03*
X1031250Y0100610D03*
X1021250Y0100610D03*
X1011250Y0100610D03*
X1001250Y0100610D03*
X0991250Y0100610D03*
X0981250Y0100610D03*
X0951250Y0100610D03*
X0941250Y0100610D03*
X0931250Y0100610D03*
X0921250Y0100610D03*
X0911250Y0100610D03*
X0938750Y0203110D03*
X0938750Y0223110D03*
X0898750Y0248110D03*
X0898750Y0258110D03*
X1041250Y0290610D03*
X1041250Y0300610D03*
X1051250Y0290610D03*
X1061250Y0290610D03*
X1071250Y0290610D03*
X1121250Y0250610D03*
X1121250Y0240610D03*
X1121250Y0230610D03*
X1121250Y0220610D03*
X1121250Y0210610D03*
X1121250Y0200610D03*
X1121250Y0190610D03*
X1121250Y0180610D03*
X1121250Y0170610D03*
X1121250Y0160610D03*
D87*
X0938750Y0185610D03*
X0898750Y0185610D03*
D22*
X0896250Y0290610D03*
X0916250Y0300610D03*
X1031250Y0300610D03*
X1031250Y0290610D03*
D89*
X1021250Y0290610D03*
X1021250Y0300610D03*
X1011250Y0300610D03*
X1011250Y0290610D03*
X0916250Y0290610D03*
X0906250Y0290610D03*
X0906250Y0300610D03*
X0896250Y0300610D03*
D43*
X0975000Y0271860D03*
X0985000Y0271860D03*
X0995000Y0271860D03*
X1005000Y0271860D03*
X1015000Y0271860D03*
X1015000Y0241860D03*
X1005000Y0241860D03*
X0995000Y0241860D03*
X0985000Y0241860D03*
X0975000Y0241860D03*
X1028750Y0230610D03*
X1058750Y0230610D03*
X1070000Y0226860D03*
X1070000Y0236860D03*
X1070000Y0246860D03*
X1100000Y0246860D03*
X1100000Y0236860D03*
X1100000Y0226860D03*
X1095000Y0201860D03*
X1100000Y0191860D03*
X1100000Y0181860D03*
X1100000Y0171860D03*
X1095000Y0141860D03*
X1095000Y0131860D03*
X1075000Y0131860D03*
X1075000Y0141860D03*
X1070000Y0171860D03*
X1070000Y0181860D03*
X1070000Y0191860D03*
X1075000Y0201860D03*
X1030000Y0151860D03*
X1020000Y0151860D03*
X1010000Y0151860D03*
X1010000Y0121860D03*
X1020000Y0121860D03*
X1030000Y0121860D03*
X0955000Y0125610D03*
X0955000Y0116860D03*
X0925000Y0116860D03*
X0925000Y0125610D03*
X1082500Y0291860D03*
X1090000Y0296860D03*
X1090000Y0286860D03*
X1107500Y0291860D03*
X1115000Y0296860D03*
X1115000Y0286860D03*
D45*
X1055000Y0271860D03*
X1040000Y0246860D03*
X1055000Y0166860D03*
X1055000Y0136860D03*
X1025000Y0166860D03*
X0995000Y0166860D03*
X0995000Y0136860D03*
D62*
X0985000Y0136860D03*
X0985000Y0166860D03*
X1015000Y0166860D03*
X1045000Y0166860D03*
X1045000Y0136860D03*
X1030000Y0246860D03*
X1045000Y0271860D03*
D13*
X0995000Y0221860D03*
X0985000Y0221860D03*
X0975000Y0221860D03*
X0965000Y0221860D03*
X0965000Y0191860D03*
X0975000Y0191860D03*
X0985000Y0191860D03*
X0995000Y0191860D03*
D10*
X1062500Y0216860D03*
X1107500Y0216860D03*
X1107500Y0156860D03*
X1062500Y0156860D03*
D40*
X0925190Y0211860D03*
X0913380Y0230360D03*
X0901560Y0211860D03*
D21*
X1081250Y0260610D03*
X1081250Y0270610D03*
X1091250Y0270610D03*
X1091250Y0260610D03*
X1101250Y0260610D03*
X1101250Y0270610D03*
X1111250Y0270610D03*
X1111250Y0260610D03*
X1121250Y0260610D03*
X1121250Y0270610D03*
D11*
X1114370Y0347480D03*
X1130310Y0347480D03*
X1130310Y0372170D03*
X1114380Y0371860D03*
X1114380Y0397170D03*
X1130310Y0397170D03*
X1194380Y0397170D03*
X1194380Y0371860D03*
X1194370Y0347480D03*
X1050310Y0347480D03*
X1034370Y0347480D03*
X1034380Y0371860D03*
X1050310Y0372170D03*
X1050310Y0397170D03*
X1034380Y0397170D03*
X0970310Y0397170D03*
X0970310Y0372170D03*
X0970310Y0347480D03*
X0970630Y0066230D03*
X0970620Y0041860D03*
X0970620Y0016540D03*
X1034690Y0016540D03*
X1050620Y0016540D03*
X1050620Y0041860D03*
X1034690Y0041540D03*
X1034690Y0066230D03*
X1050630Y0066230D03*
X1114690Y0066230D03*
X1114690Y0041540D03*
X1114690Y0016540D03*
D96*
X1121250Y0110610D03*
D55*
X0895520Y0102430D03*
X0895520Y0135300D03*
D94*
X0907820Y0127620D02*
X0912190Y0127620D01*
X0912190Y0110100D02*
X0907820Y0110100D01*
D13*
X1077400Y0311860D02*
X1082600Y0311860D01*
X1117400Y0311860D02*
X1122600Y0311860D01*
D14*
X1050000Y0221860D03*
X1050000Y0191860D03*
X1010000Y0191860D03*
X1010000Y0221860D03*
X1213750Y0010000D02*
G75*
%LPD*%
D47*
X1250760Y0251720D03*
X1260610Y0251720D03*
X1270450Y0251720D03*
X1350760Y0251720D03*
X1360610Y0251720D03*
X1370450Y0251720D03*
X1450760Y0251720D03*
X1460610Y0251720D03*
X1470450Y0251720D03*
X1550760Y0251720D03*
X1560610Y0251720D03*
X1570450Y0251720D03*
D101*
X1578320Y0281250D03*
X1542890Y0281250D03*
X1478320Y0281250D03*
X1442890Y0281250D03*
X1378320Y0281250D03*
X1342890Y0281250D03*
X1278320Y0281250D03*
X1242890Y0281250D03*
D74*
X1304360Y0090000D03*
X1304360Y0100000D03*
X1314360Y0100000D03*
X1314360Y0110000D03*
X1314360Y0120000D03*
X1304360Y0120000D03*
X1304360Y0110000D03*
X1304360Y0130000D03*
X1304360Y0140000D03*
X1304360Y0180000D03*
X1304360Y0190000D03*
X1304360Y0200000D03*
X1304360Y0210000D03*
X1304360Y0220000D03*
X1304360Y0230000D03*
X1304360Y0260000D03*
X1304360Y0270000D03*
X1304360Y0280000D03*
X1304360Y0290000D03*
X1304360Y0300000D03*
X1406860Y0272500D03*
X1426860Y0272500D03*
X1451860Y0312500D03*
X1461860Y0312500D03*
X1494360Y0170000D03*
X1504360Y0170000D03*
X1494360Y0160000D03*
X1494360Y0150000D03*
X1494360Y0140000D03*
X1454360Y0090000D03*
X1444360Y0090000D03*
X1434360Y0090000D03*
X1424360Y0090000D03*
X1414360Y0090000D03*
X1404360Y0090000D03*
X1394360Y0090000D03*
X1384360Y0090000D03*
X1374360Y0090000D03*
X1364360Y0090000D03*
D87*
X1389360Y0272500D03*
X1389360Y0312500D03*
D22*
X1494360Y0315000D03*
X1504360Y0295000D03*
X1504360Y0180000D03*
X1494360Y0180000D03*
D89*
X1494360Y0190000D03*
X1504360Y0190000D03*
X1504360Y0200000D03*
X1494360Y0200000D03*
X1494360Y0295000D03*
X1494360Y0305000D03*
X1504360Y0305000D03*
X1504360Y0315000D03*
D43*
X1475610Y0236250D03*
X1475610Y0226250D03*
X1475610Y0216250D03*
X1475610Y0206250D03*
X1475610Y0196250D03*
X1445610Y0196250D03*
X1445610Y0206250D03*
X1445610Y0216250D03*
X1445610Y0226250D03*
X1445610Y0236250D03*
X1434360Y0182500D03*
X1434360Y0152500D03*
X1430610Y0141250D03*
X1440610Y0141250D03*
X1450610Y0141250D03*
X1450610Y0111250D03*
X1440610Y0111250D03*
X1430610Y0111250D03*
X1405610Y0116250D03*
X1395610Y0111250D03*
X1385610Y0111250D03*
X1375610Y0111250D03*
X1345610Y0116250D03*
X1335610Y0116250D03*
X1335610Y0136250D03*
X1345610Y0136250D03*
X1375610Y0141250D03*
X1385610Y0141250D03*
X1395610Y0141250D03*
X1405610Y0136250D03*
X1355610Y0181250D03*
X1355610Y0191250D03*
X1355610Y0201250D03*
X1325610Y0201250D03*
X1325610Y0191250D03*
X1325610Y0181250D03*
X1329360Y0256250D03*
X1320610Y0256250D03*
X1320610Y0286250D03*
X1329360Y0286250D03*
X1495610Y0128750D03*
X1500610Y0121250D03*
X1490610Y0121250D03*
X1495610Y0103750D03*
X1500610Y0096250D03*
X1490610Y0096250D03*
D45*
X1475610Y0156250D03*
X1450610Y0171250D03*
X1370610Y0156250D03*
X1340610Y0156250D03*
X1370610Y0186250D03*
X1370610Y0216250D03*
X1340610Y0216250D03*
D62*
X1340610Y0226250D03*
X1370610Y0226250D03*
X1370610Y0196250D03*
X1370610Y0166250D03*
X1340610Y0166250D03*
X1450610Y0181250D03*
X1475610Y0166250D03*
D13*
X1425610Y0216250D03*
X1425610Y0226250D03*
X1425610Y0236250D03*
X1425610Y0246250D03*
X1395610Y0246250D03*
X1395610Y0236250D03*
X1395610Y0226250D03*
X1395610Y0216250D03*
D10*
X1420610Y0148750D03*
X1420610Y0103750D03*
X1360610Y0103750D03*
X1360610Y0148750D03*
D40*
X1415610Y0286060D03*
X1434110Y0297870D03*
X1415610Y0309690D03*
D21*
X1464360Y0130000D03*
X1474360Y0130000D03*
X1474360Y0120000D03*
X1464360Y0120000D03*
X1464360Y0110000D03*
X1474360Y0110000D03*
X1474360Y0100000D03*
X1464360Y0100000D03*
X1464360Y0090000D03*
X1474360Y0090000D03*
D11*
X1551230Y0096880D03*
X1551230Y0080940D03*
X1575920Y0080940D03*
X1575610Y0096870D03*
X1600920Y0096870D03*
X1600920Y0080940D03*
X1600920Y0016870D03*
X1575610Y0016870D03*
X1551230Y0016880D03*
X1551230Y0160940D03*
X1551230Y0176880D03*
X1575610Y0176870D03*
X1575920Y0160940D03*
X1600920Y0160940D03*
X1600920Y0176870D03*
X1600920Y0240940D03*
X1575920Y0240940D03*
X1551230Y0240940D03*
X1269980Y0240620D03*
X1245610Y0240630D03*
X1220290Y0240630D03*
X1220290Y0176560D03*
X1220290Y0160630D03*
X1245610Y0160630D03*
X1245290Y0176560D03*
X1269980Y0176560D03*
X1269980Y0160620D03*
X1269980Y0096560D03*
X1245290Y0096560D03*
X1220290Y0096560D03*
D96*
X1314360Y0090000D03*
D55*
X1306180Y0315730D03*
X1339050Y0315730D03*
D94*
X1331370Y0303430D02*
X1331370Y0299060D01*
X1313850Y0299060D02*
X1313850Y0303430D01*
D13*
X1515610Y0133850D02*
X1515610Y0128650D01*
X1515610Y0093850D02*
X1515610Y0088650D01*
D14*
X1425610Y0161250D03*
X1395610Y0161250D03*
X1395610Y0201250D03*
X1425610Y0201250D03*
X1213750Y0333250D02*
G75*
%LPD*%
D47*
X1250760Y0574970D03*
X1260610Y0574970D03*
X1270450Y0574970D03*
X1350760Y0574970D03*
X1360610Y0574970D03*
X1370450Y0574970D03*
X1450760Y0574970D03*
X1460610Y0574970D03*
X1470450Y0574970D03*
X1550760Y0574970D03*
X1560610Y0574970D03*
X1570450Y0574970D03*
D101*
X1578320Y0604500D03*
X1542890Y0604500D03*
X1478320Y0604500D03*
X1442890Y0604500D03*
X1378320Y0604500D03*
X1342890Y0604500D03*
X1278320Y0604500D03*
X1242890Y0604500D03*
D74*
X1304360Y0413250D03*
X1304360Y0423250D03*
X1314360Y0423250D03*
X1314360Y0433250D03*
X1314360Y0443250D03*
X1304360Y0443250D03*
X1304360Y0433250D03*
X1304360Y0453250D03*
X1304360Y0463250D03*
X1304360Y0503250D03*
X1304360Y0513250D03*
X1304360Y0523250D03*
X1304360Y0533250D03*
X1304360Y0543250D03*
X1304360Y0553250D03*
X1304360Y0583250D03*
X1304360Y0593250D03*
X1304360Y0603250D03*
X1304360Y0613250D03*
X1304360Y0623250D03*
X1406860Y0595750D03*
X1426860Y0595750D03*
X1451860Y0635750D03*
X1461860Y0635750D03*
X1494360Y0493250D03*
X1504360Y0493250D03*
X1494360Y0483250D03*
X1494360Y0473250D03*
X1494360Y0463250D03*
X1454360Y0413250D03*
X1444360Y0413250D03*
X1434360Y0413250D03*
X1424360Y0413250D03*
X1414360Y0413250D03*
X1404360Y0413250D03*
X1394360Y0413250D03*
X1384360Y0413250D03*
X1374360Y0413250D03*
X1364360Y0413250D03*
D87*
X1389360Y0595750D03*
X1389360Y0635750D03*
D22*
X1494360Y0638250D03*
X1504360Y0618250D03*
X1504360Y0503250D03*
X1494360Y0503250D03*
D89*
X1494360Y0513250D03*
X1504360Y0513250D03*
X1504360Y0523250D03*
X1494360Y0523250D03*
X1494360Y0618250D03*
X1494360Y0628250D03*
X1504360Y0628250D03*
X1504360Y0638250D03*
D43*
X1475610Y0559500D03*
X1475610Y0549500D03*
X1475610Y0539500D03*
X1475610Y0529500D03*
X1475610Y0519500D03*
X1445610Y0519500D03*
X1445610Y0529500D03*
X1445610Y0539500D03*
X1445610Y0549500D03*
X1445610Y0559500D03*
X1434360Y0505750D03*
X1434360Y0475750D03*
X1430610Y0464500D03*
X1440610Y0464500D03*
X1450610Y0464500D03*
X1450610Y0434500D03*
X1440610Y0434500D03*
X1430610Y0434500D03*
X1405610Y0439500D03*
X1395610Y0434500D03*
X1385610Y0434500D03*
X1375610Y0434500D03*
X1345610Y0439500D03*
X1335610Y0439500D03*
X1335610Y0459500D03*
X1345610Y0459500D03*
X1375610Y0464500D03*
X1385610Y0464500D03*
X1395610Y0464500D03*
X1405610Y0459500D03*
X1355610Y0504500D03*
X1355610Y0514500D03*
X1355610Y0524500D03*
X1325610Y0524500D03*
X1325610Y0514500D03*
X1325610Y0504500D03*
X1329360Y0579500D03*
X1320610Y0579500D03*
X1320610Y0609500D03*
X1329360Y0609500D03*
X1495610Y0452000D03*
X1500610Y0444500D03*
X1490610Y0444500D03*
X1495610Y0427000D03*
X1500610Y0419500D03*
X1490610Y0419500D03*
D45*
X1475610Y0479500D03*
X1450610Y0494500D03*
X1370610Y0479500D03*
X1340610Y0479500D03*
X1370610Y0509500D03*
X1370610Y0539500D03*
X1340610Y0539500D03*
D62*
X1340610Y0549500D03*
X1370610Y0549500D03*
X1370610Y0519500D03*
X1370610Y0489500D03*
X1340610Y0489500D03*
X1450610Y0504500D03*
X1475610Y0489500D03*
D13*
X1425610Y0539500D03*
X1425610Y0549500D03*
X1425610Y0559500D03*
X1425610Y0569500D03*
X1395610Y0569500D03*
X1395610Y0559500D03*
X1395610Y0549500D03*
X1395610Y0539500D03*
D10*
X1420610Y0472000D03*
X1420610Y0427000D03*
X1360610Y0427000D03*
X1360610Y0472000D03*
D40*
X1415610Y0609310D03*
X1434110Y0621120D03*
X1415610Y0632940D03*
D21*
X1464360Y0453250D03*
X1474360Y0453250D03*
X1474360Y0443250D03*
X1464360Y0443250D03*
X1464360Y0433250D03*
X1474360Y0433250D03*
X1474360Y0423250D03*
X1464360Y0423250D03*
X1464360Y0413250D03*
X1474360Y0413250D03*
D11*
X1551230Y0420130D03*
X1551230Y0404190D03*
X1575920Y0404190D03*
X1575610Y0420120D03*
X1600920Y0420120D03*
X1600920Y0404190D03*
X1600920Y0340120D03*
X1575610Y0340120D03*
X1551230Y0340130D03*
X1551230Y0484190D03*
X1551230Y0500130D03*
X1575610Y0500120D03*
X1575920Y0484190D03*
X1600920Y0484190D03*
X1600920Y0500120D03*
X1600920Y0564190D03*
X1575920Y0564190D03*
X1551230Y0564190D03*
X1269980Y0563870D03*
X1245610Y0563880D03*
X1220290Y0563880D03*
X1220290Y0499810D03*
X1220290Y0483880D03*
X1245610Y0483880D03*
X1245290Y0499810D03*
X1269980Y0499810D03*
X1269980Y0483870D03*
X1269980Y0419810D03*
X1245290Y0419810D03*
X1220290Y0419810D03*
D96*
X1314360Y0413250D03*
D55*
X1306180Y0638980D03*
X1339050Y0638980D03*
D94*
X1331370Y0626680D02*
X1331370Y0622310D01*
X1313850Y0622310D02*
X1313850Y0626680D01*
D13*
X1515610Y0457100D02*
X1515610Y0451900D01*
X1515610Y0417100D02*
X1515610Y0411900D01*
D14*
X1425610Y0484500D03*
X1395610Y0484500D03*
X1395610Y0524500D03*
X1425610Y0524500D03*
X0010000Y0258720D02*
G75*
%LPD*%
D74*
X0217500Y0343720D03*
X0207500Y0343720D03*
X0025000Y0293720D03*
X0015000Y0293720D03*
X0015000Y0303720D03*
X0015000Y0313720D03*
X0015000Y0283720D03*
X0025000Y0283720D03*
X0025000Y0273720D03*
X0015000Y0273720D03*
X0015000Y0263720D03*
X0015000Y0353720D03*
X0015000Y0363720D03*
X0015000Y0373720D03*
X0015000Y0383720D03*
X0015000Y0393720D03*
X0015000Y0403720D03*
X0015000Y0433720D03*
X0015000Y0443720D03*
X0015000Y0453720D03*
X0015000Y0463720D03*
X0015000Y0473720D03*
D84*
X0023750Y0460810D03*
X0023750Y0454120D03*
X0030000Y0454120D03*
X0030000Y0460810D03*
X0084150Y0482470D03*
X0090850Y0482470D03*
X0093350Y0419970D03*
X0086650Y0419970D03*
X0139150Y0338720D03*
X0145850Y0338720D03*
X0148350Y0318720D03*
X0141650Y0318720D03*
X0141650Y0308720D03*
X0148350Y0308720D03*
X0148350Y0301220D03*
X0141650Y0301220D03*
X0141650Y0292470D03*
X0148350Y0292470D03*
X0148350Y0283720D03*
X0141650Y0283720D03*
X0141650Y0276220D03*
X0148350Y0276220D03*
X0133350Y0273720D03*
X0126650Y0273720D03*
X0113350Y0278720D03*
X0106650Y0278720D03*
X0085850Y0278720D03*
X0079150Y0278720D03*
X0068350Y0273720D03*
X0061650Y0273720D03*
X0028750Y0310370D03*
X0028750Y0317060D03*
X0017500Y0332870D03*
X0017500Y0339560D03*
X0177500Y0319560D03*
X0177500Y0312870D03*
X0190000Y0312870D03*
X0190000Y0319560D03*
X0190000Y0350370D03*
X0190000Y0357060D03*
X0182500Y0357060D03*
X0182500Y0350370D03*
X0180400Y0446220D03*
X0187100Y0446220D03*
D54*
X0217500Y0447870D03*
X0217500Y0454560D03*
X0221250Y0424560D03*
X0221250Y0417870D03*
X0207500Y0394560D03*
X0207500Y0387870D03*
X0182500Y0390370D03*
X0182500Y0397060D03*
X0137500Y0377060D03*
X0131250Y0377060D03*
X0131250Y0370370D03*
X0137500Y0370370D03*
X0100000Y0382870D03*
X0100000Y0389560D03*
X0075000Y0387060D03*
X0075000Y0380370D03*
X0053750Y0380370D03*
X0053750Y0387060D03*
X0045000Y0379560D03*
X0045000Y0372870D03*
X0035000Y0342060D03*
X0035000Y0335370D03*
X0035000Y0317060D03*
X0035000Y0310370D03*
X0037500Y0294560D03*
X0037500Y0287870D03*
D115*
X0177500Y0327810D03*
X0177500Y0339620D03*
X0190000Y0339620D03*
X0190000Y0327810D03*
D21*
X0192500Y0303720D03*
X0182500Y0303720D03*
X0182500Y0293720D03*
X0192500Y0293720D03*
X0192500Y0283720D03*
X0182500Y0283720D03*
X0182500Y0273720D03*
X0182500Y0263720D03*
X0192500Y0263720D03*
X0192500Y0273720D03*
D52*
X0121900Y0286520D03*
X0120000Y0286520D03*
X0118000Y0286520D03*
X0116000Y0286520D03*
X0114100Y0286520D03*
X0112100Y0286520D03*
X0110100Y0286520D03*
X0108200Y0286520D03*
X0106200Y0286520D03*
X0104200Y0286520D03*
X0102300Y0286520D03*
X0100300Y0286520D03*
X0098300Y0286520D03*
X0096400Y0286520D03*
X0094400Y0286520D03*
X0092400Y0286520D03*
X0090500Y0286520D03*
X0088500Y0286520D03*
X0086500Y0286520D03*
X0084500Y0286520D03*
X0082600Y0286520D03*
X0080600Y0286520D03*
X0078600Y0286520D03*
X0076700Y0286520D03*
X0074700Y0286520D03*
X0072700Y0286520D03*
X0070800Y0286520D03*
X0068800Y0286520D03*
X0066800Y0286520D03*
X0064900Y0286520D03*
X0062900Y0286520D03*
X0060900Y0286520D03*
X0059000Y0286520D03*
X0057000Y0286520D03*
X0055000Y0286520D03*
X0053100Y0286520D03*
X0053100Y0370920D03*
X0055000Y0370920D03*
X0057000Y0370920D03*
X0059000Y0370920D03*
X0060900Y0370920D03*
X0062900Y0370920D03*
X0064900Y0370920D03*
X0066800Y0370920D03*
X0068800Y0370920D03*
X0070800Y0370920D03*
X0072700Y0370920D03*
X0074700Y0370920D03*
X0076700Y0370920D03*
X0078600Y0370920D03*
X0080600Y0370920D03*
X0082600Y0370920D03*
X0084500Y0370920D03*
X0086500Y0370920D03*
X0088500Y0370920D03*
X0090500Y0370920D03*
X0092400Y0370920D03*
X0094400Y0370920D03*
X0096400Y0370920D03*
X0098300Y0370920D03*
X0100300Y0370920D03*
X0102300Y0370920D03*
X0104200Y0370920D03*
X0106200Y0370920D03*
X0108200Y0370920D03*
X0110100Y0370920D03*
X0112100Y0370920D03*
X0114100Y0370920D03*
X0116000Y0370920D03*
X0118000Y0370920D03*
X0120000Y0370920D03*
X0121900Y0370920D03*
D19*
X0129700Y0363120D03*
X0129700Y0361220D03*
X0129700Y0359220D03*
X0129700Y0357220D03*
X0129700Y0355320D03*
X0129700Y0353320D03*
X0129700Y0351320D03*
X0129700Y0349420D03*
X0129700Y0347420D03*
X0129700Y0345420D03*
X0129700Y0343520D03*
X0129700Y0341520D03*
X0129700Y0339520D03*
X0129700Y0337620D03*
X0129700Y0335620D03*
X0129700Y0333620D03*
X0129700Y0331720D03*
X0129700Y0329720D03*
X0129700Y0327720D03*
X0129700Y0325720D03*
X0129700Y0323820D03*
X0129700Y0321820D03*
X0129700Y0319820D03*
X0129700Y0317920D03*
X0129700Y0315920D03*
X0129700Y0313920D03*
X0129700Y0312020D03*
X0129700Y0310020D03*
X0129700Y0308020D03*
X0129700Y0306120D03*
X0129700Y0304120D03*
X0129700Y0302120D03*
X0129700Y0300220D03*
X0129700Y0298220D03*
X0129700Y0296220D03*
X0129700Y0294320D03*
X0045300Y0294320D03*
X0045300Y0296220D03*
X0045300Y0298220D03*
X0045300Y0300220D03*
X0045300Y0302120D03*
X0045300Y0304120D03*
X0045300Y0306120D03*
X0045300Y0308020D03*
X0045300Y0310020D03*
X0045300Y0312020D03*
X0045300Y0313920D03*
X0045300Y0315920D03*
X0045300Y0317920D03*
X0045300Y0319820D03*
X0045300Y0321820D03*
X0045300Y0323820D03*
X0045300Y0325720D03*
X0045300Y0327720D03*
X0045300Y0329720D03*
X0045300Y0331720D03*
X0045300Y0333620D03*
X0045300Y0335620D03*
X0045300Y0337620D03*
X0045300Y0339520D03*
X0045300Y0341520D03*
X0045300Y0343520D03*
X0045300Y0345420D03*
X0045300Y0347420D03*
X0045300Y0349420D03*
X0045300Y0351320D03*
X0045300Y0353320D03*
X0045300Y0355320D03*
X0045300Y0357220D03*
X0045300Y0359220D03*
X0045300Y0361220D03*
X0045300Y0363120D03*
D114*
X0078500Y0266220D03*
X0116500Y0266220D03*
D116*
X0117420Y0430420D03*
X0120570Y0430420D03*
X0114270Y0430420D03*
X0111120Y0430420D03*
X0107970Y0430420D03*
X0104820Y0430420D03*
X0101670Y0430420D03*
X0098520Y0430420D03*
X0095370Y0430420D03*
X0092220Y0430420D03*
X0089070Y0430420D03*
X0085930Y0430420D03*
X0082780Y0430420D03*
X0079630Y0430420D03*
X0076480Y0430420D03*
X0073330Y0430420D03*
X0070180Y0430420D03*
X0067030Y0430420D03*
X0063880Y0430420D03*
X0060730Y0430420D03*
X0057580Y0430420D03*
X0054430Y0430420D03*
X0054430Y0474510D03*
X0057580Y0474510D03*
X0060730Y0474510D03*
X0063880Y0474510D03*
X0067030Y0474510D03*
X0070180Y0474510D03*
X0073330Y0474510D03*
X0076480Y0474510D03*
X0079630Y0474510D03*
X0082780Y0474510D03*
X0085930Y0474510D03*
X0089070Y0474510D03*
X0092220Y0474510D03*
X0095370Y0474510D03*
X0098520Y0474510D03*
X0101670Y0474510D03*
X0104820Y0474510D03*
X0107970Y0474510D03*
X0111120Y0474510D03*
X0114270Y0474510D03*
X0117420Y0474510D03*
X0120570Y0474510D03*
D117*
X0208400Y0298620D03*
X0217400Y0298620D03*
X0226400Y0298620D03*
D119*
X0217500Y0273820D03*
D118*
X0216130Y0313720D03*
X0226370Y0313720D03*
X0226370Y0331220D03*
X0216130Y0331220D03*
D120*
X0215350Y0406440D03*
X0212800Y0406440D03*
X0210240Y0406440D03*
X0207680Y0406440D03*
X0205120Y0406440D03*
X0202560Y0406440D03*
X0200000Y0406440D03*
X0197440Y0406440D03*
X0194880Y0406440D03*
X0192320Y0406440D03*
X0189760Y0406440D03*
X0187200Y0406440D03*
X0184650Y0406440D03*
X0182090Y0406440D03*
X0182090Y0435990D03*
X0184650Y0435990D03*
X0187200Y0435990D03*
X0189760Y0435990D03*
X0192320Y0435990D03*
X0194880Y0435990D03*
X0197440Y0435990D03*
X0200000Y0435990D03*
X0202560Y0435990D03*
X0205120Y0435990D03*
X0207680Y0435990D03*
X0210240Y0435990D03*
X0212800Y0435990D03*
X0215350Y0435990D03*
D22*
X0217500Y0468720D03*
X0207500Y0468720D03*
X0207500Y0373720D03*
X0217500Y0353720D03*
X0207500Y0313720D03*
D89*
X0207500Y0323720D03*
X0207500Y0333720D03*
X0207500Y0353720D03*
X0207500Y0363720D03*
X0217500Y0363720D03*
X0217500Y0373720D03*
X0217500Y0478720D03*
X0217500Y0488720D03*
X0207500Y0488720D03*
X0207500Y0478720D03*
D99*
X0225000Y0456730D03*
X0225000Y0445710D03*
X0225000Y0404230D03*
X0225000Y0393210D03*
D25*
X0189260Y0456220D03*
X0178240Y0456220D03*
D96*
X0025000Y0263720D03*
D55*
X0014810Y0489530D03*
X0047690Y0489530D03*
D94*
X0040010Y0477230D02*
X0040010Y0472870D01*
X0022490Y0472870D02*
X0022490Y0477230D01*
D33*
X0026130Y0478510D03*
X0028690Y0478510D03*
X0031250Y0478510D03*
X0033810Y0478510D03*
X0036370Y0478510D03*
D77*
X0035780Y0489530D03*
X0026720Y0489530D03*
X0010000Y0507440D02*
G75*
%LPD*%
D74*
X0095000Y0521440D03*
X0095000Y0531440D03*
X0045000Y0713940D03*
X0045000Y0723940D03*
X0055000Y0723940D03*
X0065000Y0723940D03*
X0035000Y0723940D03*
X0035000Y0713940D03*
X0025000Y0713940D03*
X0025000Y0723940D03*
X0015000Y0723940D03*
X0105000Y0723940D03*
X0115000Y0723940D03*
X0125000Y0723940D03*
X0135000Y0723940D03*
X0145000Y0723940D03*
X0155000Y0723940D03*
X0185000Y0723940D03*
X0195000Y0723940D03*
X0205000Y0723940D03*
X0215000Y0723940D03*
X0225000Y0723940D03*
D54*
X0212090Y0715190D03*
X0205400Y0715190D03*
X0205400Y0708940D03*
X0212090Y0708940D03*
X0233750Y0654790D03*
X0233750Y0648090D03*
X0171250Y0645590D03*
X0171250Y0652290D03*
X0090000Y0599790D03*
X0090000Y0593090D03*
X0070000Y0590590D03*
X0070000Y0597290D03*
X0060000Y0597290D03*
X0060000Y0590590D03*
X0052500Y0590590D03*
X0052500Y0597290D03*
X0043750Y0597290D03*
X0043750Y0590590D03*
X0035000Y0590590D03*
X0035000Y0597290D03*
X0027500Y0597290D03*
X0027500Y0590590D03*
X0025000Y0605590D03*
X0025000Y0612290D03*
X0030000Y0625590D03*
X0030000Y0632290D03*
X0030000Y0653090D03*
X0030000Y0659790D03*
X0025000Y0670590D03*
X0025000Y0677290D03*
X0061650Y0710190D03*
X0068340Y0710190D03*
X0084150Y0721440D03*
X0090840Y0721440D03*
X0070840Y0561440D03*
X0064150Y0561440D03*
X0064150Y0548940D03*
X0070840Y0548940D03*
X0101650Y0548940D03*
X0108340Y0548940D03*
X0108340Y0556440D03*
X0101650Y0556440D03*
X0197500Y0558540D03*
X0197500Y0551840D03*
D84*
X0199150Y0521440D03*
X0205840Y0521440D03*
X0175840Y0517690D03*
X0169150Y0517690D03*
X0145840Y0531440D03*
X0139150Y0531440D03*
X0141650Y0556440D03*
X0148340Y0556440D03*
X0128340Y0601440D03*
X0128340Y0607690D03*
X0121650Y0607690D03*
X0121650Y0601440D03*
X0134150Y0638940D03*
X0140840Y0638940D03*
X0138340Y0663940D03*
X0131650Y0663940D03*
X0131650Y0685190D03*
X0138340Y0685190D03*
X0130840Y0693940D03*
X0124150Y0693940D03*
X0093340Y0703940D03*
X0086650Y0703940D03*
X0068340Y0703940D03*
X0061650Y0703940D03*
X0045840Y0701440D03*
X0039150Y0701440D03*
D58*
X0079090Y0561440D03*
X0090900Y0561440D03*
X0090900Y0548940D03*
X0079090Y0548940D03*
D21*
X0055000Y0546440D03*
X0055000Y0556440D03*
X0045000Y0556440D03*
X0045000Y0546440D03*
X0035000Y0546440D03*
X0035000Y0556440D03*
X0025000Y0556440D03*
X0015000Y0556440D03*
X0015000Y0546440D03*
X0025000Y0546440D03*
D19*
X0037800Y0617040D03*
X0037800Y0618940D03*
X0037800Y0620940D03*
X0037800Y0622940D03*
X0037800Y0624840D03*
X0037800Y0626840D03*
X0037800Y0628840D03*
X0037800Y0630740D03*
X0037800Y0632740D03*
X0037800Y0634740D03*
X0037800Y0636640D03*
X0037800Y0638640D03*
X0037800Y0640640D03*
X0037800Y0642540D03*
X0037800Y0644540D03*
X0037800Y0646540D03*
X0037800Y0648440D03*
X0037800Y0650440D03*
X0037800Y0652440D03*
X0037800Y0654440D03*
X0037800Y0656340D03*
X0037800Y0658340D03*
X0037800Y0660340D03*
X0037800Y0662240D03*
X0037800Y0664240D03*
X0037800Y0666240D03*
X0037800Y0668140D03*
X0037800Y0670140D03*
X0037800Y0672140D03*
X0037800Y0674040D03*
X0037800Y0676040D03*
X0037800Y0678040D03*
X0037800Y0679940D03*
X0037800Y0681940D03*
X0037800Y0683940D03*
X0037800Y0685840D03*
X0122200Y0685840D03*
X0122200Y0683940D03*
X0122200Y0681940D03*
X0122200Y0679940D03*
X0122200Y0678040D03*
X0122200Y0676040D03*
X0122200Y0674040D03*
X0122200Y0672140D03*
X0122200Y0670140D03*
X0122200Y0668140D03*
X0122200Y0666240D03*
X0122200Y0664240D03*
X0122200Y0662240D03*
X0122200Y0660340D03*
X0122200Y0658340D03*
X0122200Y0656340D03*
X0122200Y0654440D03*
X0122200Y0652440D03*
X0122200Y0650440D03*
X0122200Y0648440D03*
X0122200Y0646540D03*
X0122200Y0644540D03*
X0122200Y0642540D03*
X0122200Y0640640D03*
X0122200Y0638640D03*
X0122200Y0636640D03*
X0122200Y0634740D03*
X0122200Y0632740D03*
X0122200Y0630740D03*
X0122200Y0628840D03*
X0122200Y0626840D03*
X0122200Y0624840D03*
X0122200Y0622940D03*
X0122200Y0620940D03*
X0122200Y0618940D03*
X0122200Y0617040D03*
D52*
X0114400Y0609240D03*
X0112500Y0609240D03*
X0110500Y0609240D03*
X0108500Y0609240D03*
X0106600Y0609240D03*
X0104600Y0609240D03*
X0102600Y0609240D03*
X0100700Y0609240D03*
X0098700Y0609240D03*
X0096700Y0609240D03*
X0094800Y0609240D03*
X0092800Y0609240D03*
X0090800Y0609240D03*
X0088900Y0609240D03*
X0086900Y0609240D03*
X0084900Y0609240D03*
X0083000Y0609240D03*
X0081000Y0609240D03*
X0079000Y0609240D03*
X0077000Y0609240D03*
X0075100Y0609240D03*
X0073100Y0609240D03*
X0071100Y0609240D03*
X0069200Y0609240D03*
X0067200Y0609240D03*
X0065200Y0609240D03*
X0063300Y0609240D03*
X0061300Y0609240D03*
X0059300Y0609240D03*
X0057400Y0609240D03*
X0055400Y0609240D03*
X0053400Y0609240D03*
X0051500Y0609240D03*
X0049500Y0609240D03*
X0047500Y0609240D03*
X0045600Y0609240D03*
X0045600Y0693640D03*
X0047500Y0693640D03*
X0049500Y0693640D03*
X0051500Y0693640D03*
X0053400Y0693640D03*
X0055400Y0693640D03*
X0057400Y0693640D03*
X0059300Y0693640D03*
X0061300Y0693640D03*
X0063300Y0693640D03*
X0065200Y0693640D03*
X0067200Y0693640D03*
X0069200Y0693640D03*
X0071100Y0693640D03*
X0073100Y0693640D03*
X0075100Y0693640D03*
X0077000Y0693640D03*
X0079000Y0693640D03*
X0081000Y0693640D03*
X0083000Y0693640D03*
X0084900Y0693640D03*
X0086900Y0693640D03*
X0088900Y0693640D03*
X0090800Y0693640D03*
X0092800Y0693640D03*
X0094800Y0693640D03*
X0096700Y0693640D03*
X0098700Y0693640D03*
X0100700Y0693640D03*
X0102600Y0693640D03*
X0104600Y0693640D03*
X0106600Y0693640D03*
X0108500Y0693640D03*
X0110500Y0693640D03*
X0112500Y0693640D03*
X0114400Y0693640D03*
D18*
X0017500Y0660440D03*
X0017500Y0622440D03*
D15*
X0181700Y0621520D03*
X0181700Y0618370D03*
X0181700Y0624670D03*
X0181700Y0627820D03*
X0181700Y0630970D03*
X0181700Y0634120D03*
X0181700Y0637270D03*
X0181700Y0640420D03*
X0181700Y0643570D03*
X0181700Y0646720D03*
X0181700Y0649870D03*
X0181700Y0653010D03*
X0181700Y0656160D03*
X0181700Y0659310D03*
X0181700Y0662460D03*
X0181700Y0665610D03*
X0181700Y0668760D03*
X0181700Y0671910D03*
X0181700Y0675060D03*
X0181700Y0678210D03*
X0181700Y0681360D03*
X0181700Y0684510D03*
X0225790Y0684510D03*
X0225790Y0681360D03*
X0225790Y0678210D03*
X0225790Y0675060D03*
X0225790Y0671910D03*
X0225790Y0668760D03*
X0225790Y0665610D03*
X0225790Y0662460D03*
X0225790Y0659310D03*
X0225790Y0656160D03*
X0225790Y0653010D03*
X0225790Y0649870D03*
X0225790Y0646720D03*
X0225790Y0643570D03*
X0225790Y0640420D03*
X0225790Y0637270D03*
X0225790Y0634120D03*
X0225790Y0630970D03*
X0225790Y0627820D03*
X0225790Y0624670D03*
X0225790Y0621520D03*
X0225790Y0618370D03*
D56*
X0049900Y0530540D03*
X0049900Y0521540D03*
X0049900Y0512540D03*
D68*
X0025100Y0521440D03*
D60*
X0065000Y0522810D03*
X0065000Y0512570D03*
X0082500Y0512570D03*
X0082500Y0522810D03*
D34*
X0157720Y0523590D03*
X0157720Y0526140D03*
X0157720Y0528700D03*
X0157720Y0531260D03*
X0157720Y0533820D03*
X0157720Y0536380D03*
X0157720Y0538940D03*
X0157720Y0541500D03*
X0157720Y0544060D03*
X0157720Y0546620D03*
X0157720Y0549180D03*
X0157720Y0551740D03*
X0157720Y0554290D03*
X0157720Y0556850D03*
X0187270Y0556850D03*
X0187270Y0554290D03*
X0187270Y0551740D03*
X0187270Y0549180D03*
X0187270Y0546620D03*
X0187270Y0544060D03*
X0187270Y0541500D03*
X0187270Y0538940D03*
X0187270Y0536380D03*
X0187270Y0533820D03*
X0187270Y0531260D03*
X0187270Y0528700D03*
X0187270Y0526140D03*
X0187270Y0523590D03*
D22*
X0220000Y0521440D03*
X0220000Y0531440D03*
X0125000Y0531440D03*
X0105000Y0521440D03*
X0065000Y0531440D03*
D89*
X0075000Y0531440D03*
X0085000Y0531440D03*
X0105000Y0531440D03*
X0115000Y0531440D03*
X0115000Y0521440D03*
X0125000Y0521440D03*
X0230000Y0521440D03*
X0240000Y0521440D03*
X0240000Y0531440D03*
X0230000Y0531440D03*
D25*
X0208010Y0513940D03*
X0196990Y0513940D03*
X0155510Y0513940D03*
X0144490Y0513940D03*
D99*
X0207500Y0549680D03*
X0207500Y0560700D03*
D96*
X0015000Y0713940D03*
D55*
X0240810Y0724130D03*
X0240810Y0691250D03*
D94*
X0228510Y0698930D02*
X0224150Y0698930D01*
X0224150Y0716450D02*
X0228510Y0716450D01*
D31*
X0229790Y0712810D03*
X0229790Y0710250D03*
X0229790Y0707690D03*
X0229790Y0705130D03*
X0229790Y0702570D03*
D46*
X0240810Y0703160D03*
X0240810Y0712220D03*
X0258720Y0416210D02*
G75*
%LPD*%
D47*
X0295730Y0657930D03*
X0305580Y0657930D03*
X0315420Y0657930D03*
X0395730Y0657930D03*
X0405580Y0657930D03*
X0415420Y0657930D03*
X0495730Y0657930D03*
X0505580Y0657930D03*
X0515420Y0657930D03*
X0595730Y0657930D03*
X0605580Y0657930D03*
X0615420Y0657930D03*
D101*
X0623290Y0687460D03*
X0587860Y0687460D03*
X0523290Y0687460D03*
X0487860Y0687460D03*
X0423290Y0687460D03*
X0387860Y0687460D03*
X0323290Y0687460D03*
X0287860Y0687460D03*
D74*
X0349330Y0496210D03*
X0349330Y0506210D03*
X0359330Y0506210D03*
X0359330Y0516210D03*
X0359330Y0526210D03*
X0349330Y0526210D03*
X0349330Y0516210D03*
X0349330Y0536210D03*
X0349330Y0546210D03*
X0349330Y0586210D03*
X0349330Y0596210D03*
X0349330Y0606210D03*
X0349330Y0616210D03*
X0349330Y0626210D03*
X0349330Y0636210D03*
X0349330Y0666210D03*
X0349330Y0676210D03*
X0349330Y0686210D03*
X0349330Y0696210D03*
X0349330Y0706210D03*
X0451830Y0678710D03*
X0471830Y0678710D03*
X0496830Y0718710D03*
X0506830Y0718710D03*
X0539330Y0576210D03*
X0549330Y0576210D03*
X0539330Y0566210D03*
X0539330Y0556210D03*
X0539330Y0546210D03*
X0499330Y0496210D03*
X0489330Y0496210D03*
X0479330Y0496210D03*
X0469330Y0496210D03*
X0459330Y0496210D03*
X0449330Y0496210D03*
X0439330Y0496210D03*
X0429330Y0496210D03*
X0419330Y0496210D03*
X0409330Y0496210D03*
D87*
X0434330Y0678710D03*
X0434330Y0718710D03*
D22*
X0539330Y0721210D03*
X0549330Y0701210D03*
X0549330Y0586210D03*
X0539330Y0586210D03*
D89*
X0539330Y0596210D03*
X0549330Y0596210D03*
X0549330Y0606210D03*
X0539330Y0606210D03*
X0539330Y0701210D03*
X0539330Y0711210D03*
X0549330Y0711210D03*
X0549330Y0721210D03*
D43*
X0520580Y0642460D03*
X0520580Y0632460D03*
X0520580Y0622460D03*
X0520580Y0612460D03*
X0520580Y0602460D03*
X0490580Y0602460D03*
X0490580Y0612460D03*
X0490580Y0622460D03*
X0490580Y0632460D03*
X0490580Y0642460D03*
X0479330Y0588710D03*
X0479330Y0558710D03*
X0475580Y0547460D03*
X0485580Y0547460D03*
X0495580Y0547460D03*
X0495580Y0517460D03*
X0485580Y0517460D03*
X0475580Y0517460D03*
X0450580Y0522460D03*
X0440580Y0517460D03*
X0430580Y0517460D03*
X0420580Y0517460D03*
X0390580Y0522460D03*
X0380580Y0522460D03*
X0380580Y0542460D03*
X0390580Y0542460D03*
X0420580Y0547460D03*
X0430580Y0547460D03*
X0440580Y0547460D03*
X0450580Y0542460D03*
X0400580Y0587460D03*
X0400580Y0597460D03*
X0400580Y0607460D03*
X0370580Y0607460D03*
X0370580Y0597460D03*
X0370580Y0587460D03*
X0374330Y0662460D03*
X0365580Y0662460D03*
X0365580Y0692460D03*
X0374330Y0692460D03*
X0540580Y0534960D03*
X0545580Y0527460D03*
X0535580Y0527460D03*
X0540580Y0509960D03*
X0545580Y0502460D03*
X0535580Y0502460D03*
D45*
X0520580Y0562460D03*
X0495580Y0577460D03*
X0415580Y0562460D03*
X0385580Y0562460D03*
X0415580Y0592460D03*
X0415580Y0622460D03*
X0385580Y0622460D03*
D62*
X0385580Y0632460D03*
X0415580Y0632460D03*
X0415580Y0602460D03*
X0415580Y0572460D03*
X0385580Y0572460D03*
X0495580Y0587460D03*
X0520580Y0572460D03*
D13*
X0470580Y0622460D03*
X0470580Y0632460D03*
X0470580Y0642460D03*
X0470580Y0652460D03*
X0440580Y0652460D03*
X0440580Y0642460D03*
X0440580Y0632460D03*
X0440580Y0622460D03*
D10*
X0465580Y0554960D03*
X0465580Y0509960D03*
X0405580Y0509960D03*
X0405580Y0554960D03*
D40*
X0460580Y0692270D03*
X0479080Y0704080D03*
X0460580Y0715900D03*
D21*
X0509330Y0536210D03*
X0519330Y0536210D03*
X0519330Y0526210D03*
X0509330Y0526210D03*
X0509330Y0516210D03*
X0519330Y0516210D03*
X0519330Y0506210D03*
X0509330Y0506210D03*
X0509330Y0496210D03*
X0519330Y0496210D03*
D11*
X0596200Y0503090D03*
X0596200Y0487150D03*
X0620890Y0487150D03*
X0620580Y0503080D03*
X0645890Y0503080D03*
X0645890Y0487150D03*
X0645890Y0423080D03*
X0620580Y0423080D03*
X0596200Y0423090D03*
X0596200Y0567150D03*
X0596200Y0583090D03*
X0620580Y0583080D03*
X0620890Y0567150D03*
X0645890Y0567150D03*
X0645890Y0583080D03*
X0645890Y0647150D03*
X0620890Y0647150D03*
X0596200Y0647150D03*
X0314950Y0646830D03*
X0290580Y0646840D03*
X0265260Y0646840D03*
X0265260Y0582770D03*
X0265260Y0566840D03*
X0290580Y0566840D03*
X0290260Y0582770D03*
X0314950Y0582770D03*
X0314950Y0566830D03*
X0314950Y0502770D03*
X0290260Y0502770D03*
X0265260Y0502770D03*
D96*
X0359330Y0496210D03*
D55*
X0351150Y0721940D03*
X0384020Y0721940D03*
D94*
X0376340Y0709640D02*
X0376340Y0705270D01*
X0358820Y0705270D02*
X0358820Y0709640D01*
D13*
X0560580Y0540060D02*
X0560580Y0534860D01*
X0560580Y0500060D02*
X0560580Y0494860D01*
D14*
X0470580Y0567460D03*
X0440580Y0567460D03*
X0440580Y0607460D03*
X0470580Y0607460D03*
X0010000Y0741440D02*
G75*
%LPD*%
D74*
X0095000Y0755440D03*
X0095000Y0765440D03*
X0045000Y0947940D03*
X0045000Y0957940D03*
X0055000Y0957940D03*
X0065000Y0957940D03*
X0035000Y0957940D03*
X0035000Y0947940D03*
X0025000Y0947940D03*
X0025000Y0957940D03*
X0015000Y0957940D03*
X0105000Y0957940D03*
X0115000Y0957940D03*
X0125000Y0957940D03*
X0135000Y0957940D03*
X0145000Y0957940D03*
X0155000Y0957940D03*
X0185000Y0957940D03*
X0195000Y0957940D03*
X0205000Y0957940D03*
X0215000Y0957940D03*
X0225000Y0957940D03*
D54*
X0212090Y0949190D03*
X0205400Y0949190D03*
X0205400Y0942940D03*
X0212090Y0942940D03*
X0233750Y0888790D03*
X0233750Y0882090D03*
X0171250Y0879590D03*
X0171250Y0886290D03*
X0090000Y0833790D03*
X0090000Y0827090D03*
X0070000Y0824590D03*
X0070000Y0831290D03*
X0060000Y0831290D03*
X0060000Y0824590D03*
X0052500Y0824590D03*
X0052500Y0831290D03*
X0043750Y0831290D03*
X0043750Y0824590D03*
X0035000Y0824590D03*
X0035000Y0831290D03*
X0027500Y0831290D03*
X0027500Y0824590D03*
X0025000Y0839590D03*
X0025000Y0846290D03*
X0030000Y0859590D03*
X0030000Y0866290D03*
X0030000Y0887090D03*
X0030000Y0893790D03*
X0025000Y0904590D03*
X0025000Y0911290D03*
X0061650Y0944190D03*
X0068340Y0944190D03*
X0084150Y0955440D03*
X0090840Y0955440D03*
X0070840Y0795440D03*
X0064150Y0795440D03*
X0064150Y0782940D03*
X0070840Y0782940D03*
X0101650Y0782940D03*
X0108340Y0782940D03*
X0108340Y0790440D03*
X0101650Y0790440D03*
X0197500Y0792540D03*
X0197500Y0785840D03*
D84*
X0199150Y0755440D03*
X0205840Y0755440D03*
X0175840Y0751690D03*
X0169150Y0751690D03*
X0145840Y0765440D03*
X0139150Y0765440D03*
X0141650Y0790440D03*
X0148340Y0790440D03*
X0128340Y0835440D03*
X0128340Y0841690D03*
X0121650Y0841690D03*
X0121650Y0835440D03*
X0134150Y0872940D03*
X0140840Y0872940D03*
X0138340Y0897940D03*
X0131650Y0897940D03*
X0131650Y0919190D03*
X0138340Y0919190D03*
X0130840Y0927940D03*
X0124150Y0927940D03*
X0093340Y0937940D03*
X0086650Y0937940D03*
X0068340Y0937940D03*
X0061650Y0937940D03*
X0045840Y0935440D03*
X0039150Y0935440D03*
D58*
X0079090Y0795440D03*
X0090900Y0795440D03*
X0090900Y0782940D03*
X0079090Y0782940D03*
D21*
X0055000Y0780440D03*
X0055000Y0790440D03*
X0045000Y0790440D03*
X0045000Y0780440D03*
X0035000Y0780440D03*
X0035000Y0790440D03*
X0025000Y0790440D03*
X0015000Y0790440D03*
X0015000Y0780440D03*
X0025000Y0780440D03*
D19*
X0037800Y0851040D03*
X0037800Y0852940D03*
X0037800Y0854940D03*
X0037800Y0856940D03*
X0037800Y0858840D03*
X0037800Y0860840D03*
X0037800Y0862840D03*
X0037800Y0864740D03*
X0037800Y0866740D03*
X0037800Y0868740D03*
X0037800Y0870640D03*
X0037800Y0872640D03*
X0037800Y0874640D03*
X0037800Y0876540D03*
X0037800Y0878540D03*
X0037800Y0880540D03*
X0037800Y0882440D03*
X0037800Y0884440D03*
X0037800Y0886440D03*
X0037800Y0888440D03*
X0037800Y0890340D03*
X0037800Y0892340D03*
X0037800Y0894340D03*
X0037800Y0896240D03*
X0037800Y0898240D03*
X0037800Y0900240D03*
X0037800Y0902140D03*
X0037800Y0904140D03*
X0037800Y0906140D03*
X0037800Y0908040D03*
X0037800Y0910040D03*
X0037800Y0912040D03*
X0037800Y0913940D03*
X0037800Y0915940D03*
X0037800Y0917940D03*
X0037800Y0919840D03*
X0122200Y0919840D03*
X0122200Y0917940D03*
X0122200Y0915940D03*
X0122200Y0913940D03*
X0122200Y0912040D03*
X0122200Y0910040D03*
X0122200Y0908040D03*
X0122200Y0906140D03*
X0122200Y0904140D03*
X0122200Y0902140D03*
X0122200Y0900240D03*
X0122200Y0898240D03*
X0122200Y0896240D03*
X0122200Y0894340D03*
X0122200Y0892340D03*
X0122200Y0890340D03*
X0122200Y0888440D03*
X0122200Y0886440D03*
X0122200Y0884440D03*
X0122200Y0882440D03*
X0122200Y0880540D03*
X0122200Y0878540D03*
X0122200Y0876540D03*
X0122200Y0874640D03*
X0122200Y0872640D03*
X0122200Y0870640D03*
X0122200Y0868740D03*
X0122200Y0866740D03*
X0122200Y0864740D03*
X0122200Y0862840D03*
X0122200Y0860840D03*
X0122200Y0858840D03*
X0122200Y0856940D03*
X0122200Y0854940D03*
X0122200Y0852940D03*
X0122200Y0851040D03*
D52*
X0114400Y0843240D03*
X0112500Y0843240D03*
X0110500Y0843240D03*
X0108500Y0843240D03*
X0106600Y0843240D03*
X0104600Y0843240D03*
X0102600Y0843240D03*
X0100700Y0843240D03*
X0098700Y0843240D03*
X0096700Y0843240D03*
X0094800Y0843240D03*
X0092800Y0843240D03*
X0090800Y0843240D03*
X0088900Y0843240D03*
X0086900Y0843240D03*
X0084900Y0843240D03*
X0083000Y0843240D03*
X0081000Y0843240D03*
X0079000Y0843240D03*
X0077000Y0843240D03*
X0075100Y0843240D03*
X0073100Y0843240D03*
X0071100Y0843240D03*
X0069200Y0843240D03*
X0067200Y0843240D03*
X0065200Y0843240D03*
X0063300Y0843240D03*
X0061300Y0843240D03*
X0059300Y0843240D03*
X0057400Y0843240D03*
X0055400Y0843240D03*
X0053400Y0843240D03*
X0051500Y0843240D03*
X0049500Y0843240D03*
X0047500Y0843240D03*
X0045600Y0843240D03*
X0045600Y0927640D03*
X0047500Y0927640D03*
X0049500Y0927640D03*
X0051500Y0927640D03*
X0053400Y0927640D03*
X0055400Y0927640D03*
X0057400Y0927640D03*
X0059300Y0927640D03*
X0061300Y0927640D03*
X0063300Y0927640D03*
X0065200Y0927640D03*
X0067200Y0927640D03*
X0069200Y0927640D03*
X0071100Y0927640D03*
X0073100Y0927640D03*
X0075100Y0927640D03*
X0077000Y0927640D03*
X0079000Y0927640D03*
X0081000Y0927640D03*
X0083000Y0927640D03*
X0084900Y0927640D03*
X0086900Y0927640D03*
X0088900Y0927640D03*
X0090800Y0927640D03*
X0092800Y0927640D03*
X0094800Y0927640D03*
X0096700Y0927640D03*
X0098700Y0927640D03*
X0100700Y0927640D03*
X0102600Y0927640D03*
X0104600Y0927640D03*
X0106600Y0927640D03*
X0108500Y0927640D03*
X0110500Y0927640D03*
X0112500Y0927640D03*
X0114400Y0927640D03*
D18*
X0017500Y0894440D03*
X0017500Y0856440D03*
D15*
X0181700Y0855520D03*
X0181700Y0852370D03*
X0181700Y0858670D03*
X0181700Y0861820D03*
X0181700Y0864970D03*
X0181700Y0868120D03*
X0181700Y0871270D03*
X0181700Y0874420D03*
X0181700Y0877570D03*
X0181700Y0880720D03*
X0181700Y0883870D03*
X0181700Y0887010D03*
X0181700Y0890160D03*
X0181700Y0893310D03*
X0181700Y0896460D03*
X0181700Y0899610D03*
X0181700Y0902760D03*
X0181700Y0905910D03*
X0181700Y0909060D03*
X0181700Y0912210D03*
X0181700Y0915360D03*
X0181700Y0918510D03*
X0225790Y0918510D03*
X0225790Y0915360D03*
X0225790Y0912210D03*
X0225790Y0909060D03*
X0225790Y0905910D03*
X0225790Y0902760D03*
X0225790Y0899610D03*
X0225790Y0896460D03*
X0225790Y0893310D03*
X0225790Y0890160D03*
X0225790Y0887010D03*
X0225790Y0883870D03*
X0225790Y0880720D03*
X0225790Y0877570D03*
X0225790Y0874420D03*
X0225790Y0871270D03*
X0225790Y0868120D03*
X0225790Y0864970D03*
X0225790Y0861820D03*
X0225790Y0858670D03*
X0225790Y0855520D03*
X0225790Y0852370D03*
D56*
X0049900Y0764540D03*
X0049900Y0755540D03*
X0049900Y0746540D03*
D68*
X0025100Y0755440D03*
D60*
X0065000Y0756810D03*
X0065000Y0746570D03*
X0082500Y0746570D03*
X0082500Y0756810D03*
D34*
X0157720Y0757590D03*
X0157720Y0760140D03*
X0157720Y0762700D03*
X0157720Y0765260D03*
X0157720Y0767820D03*
X0157720Y0770380D03*
X0157720Y0772940D03*
X0157720Y0775500D03*
X0157720Y0778060D03*
X0157720Y0780620D03*
X0157720Y0783180D03*
X0157720Y0785740D03*
X0157720Y0788290D03*
X0157720Y0790850D03*
X0187270Y0790850D03*
X0187270Y0788290D03*
X0187270Y0785740D03*
X0187270Y0783180D03*
X0187270Y0780620D03*
X0187270Y0778060D03*
X0187270Y0775500D03*
X0187270Y0772940D03*
X0187270Y0770380D03*
X0187270Y0767820D03*
X0187270Y0765260D03*
X0187270Y0762700D03*
X0187270Y0760140D03*
X0187270Y0757590D03*
D22*
X0220000Y0755440D03*
X0220000Y0765440D03*
X0125000Y0765440D03*
X0105000Y0755440D03*
X0065000Y0765440D03*
D89*
X0075000Y0765440D03*
X0085000Y0765440D03*
X0105000Y0765440D03*
X0115000Y0765440D03*
X0115000Y0755440D03*
X0125000Y0755440D03*
X0230000Y0755440D03*
X0240000Y0755440D03*
X0240000Y0765440D03*
X0230000Y0765440D03*
D25*
X0208010Y0747940D03*
X0196990Y0747940D03*
X0155510Y0747940D03*
X0144490Y0747940D03*
D99*
X0207500Y0783680D03*
X0207500Y0794700D03*
D96*
X0015000Y0947940D03*
D55*
X0240810Y0958130D03*
X0240810Y0925250D03*
D94*
X0228510Y0932930D02*
X0224150Y0932930D01*
X0224150Y0950450D02*
X0228510Y0950450D01*
D31*
X0229790Y0946810D03*
X0229790Y0944250D03*
X0229790Y0941690D03*
X0229790Y0939130D03*
X0229790Y0936570D03*
D46*
X0240810Y0937160D03*
X0240810Y0946220D03*
X0258720Y0739460D02*
G75*
%LPD*%
D74*
X0343720Y0753460D03*
X0343720Y0763460D03*
X0293720Y0945960D03*
X0293720Y0955960D03*
X0303720Y0955960D03*
X0313720Y0955960D03*
X0283720Y0955960D03*
X0283720Y0945960D03*
X0273720Y0945960D03*
X0273720Y0955960D03*
X0263720Y0955960D03*
X0353720Y0955960D03*
X0363720Y0955960D03*
X0373720Y0955960D03*
X0383720Y0955960D03*
X0393720Y0955960D03*
X0403720Y0955960D03*
X0433720Y0955960D03*
X0443720Y0955960D03*
X0453720Y0955960D03*
X0463720Y0955960D03*
X0473720Y0955960D03*
D54*
X0460810Y0947210D03*
X0454120Y0947210D03*
X0454120Y0940960D03*
X0460810Y0940960D03*
X0482470Y0886810D03*
X0482470Y0880110D03*
X0419970Y0877610D03*
X0419970Y0884310D03*
X0338720Y0831810D03*
X0338720Y0825110D03*
X0318720Y0822610D03*
X0318720Y0829310D03*
X0308720Y0829310D03*
X0308720Y0822610D03*
X0301220Y0822610D03*
X0301220Y0829310D03*
X0292470Y0829310D03*
X0292470Y0822610D03*
X0283720Y0822610D03*
X0283720Y0829310D03*
X0276220Y0829310D03*
X0276220Y0822610D03*
X0273720Y0837610D03*
X0273720Y0844310D03*
X0278720Y0857610D03*
X0278720Y0864310D03*
X0278720Y0885110D03*
X0278720Y0891810D03*
X0273720Y0902610D03*
X0273720Y0909310D03*
X0310370Y0942210D03*
X0317060Y0942210D03*
X0332870Y0953460D03*
X0339560Y0953460D03*
X0319560Y0793460D03*
X0312870Y0793460D03*
X0312870Y0780960D03*
X0319560Y0780960D03*
X0350370Y0780960D03*
X0357060Y0780960D03*
X0357060Y0788460D03*
X0350370Y0788460D03*
X0446220Y0790560D03*
X0446220Y0783860D03*
D84*
X0447870Y0753460D03*
X0454560Y0753460D03*
X0424560Y0749710D03*
X0417870Y0749710D03*
X0394560Y0763460D03*
X0387870Y0763460D03*
X0390370Y0788460D03*
X0397060Y0788460D03*
X0377060Y0833460D03*
X0377060Y0839710D03*
X0370370Y0839710D03*
X0370370Y0833460D03*
X0382870Y0870960D03*
X0389560Y0870960D03*
X0387060Y0895960D03*
X0380370Y0895960D03*
X0380370Y0917210D03*
X0387060Y0917210D03*
X0379560Y0925960D03*
X0372870Y0925960D03*
X0342060Y0935960D03*
X0335370Y0935960D03*
X0317060Y0935960D03*
X0310370Y0935960D03*
X0294560Y0933460D03*
X0287870Y0933460D03*
D58*
X0327810Y0793460D03*
X0339620Y0793460D03*
X0339620Y0780960D03*
X0327810Y0780960D03*
D21*
X0303720Y0778460D03*
X0303720Y0788460D03*
X0293720Y0788460D03*
X0293720Y0778460D03*
X0283720Y0778460D03*
X0283720Y0788460D03*
X0273720Y0788460D03*
X0263720Y0788460D03*
X0263720Y0778460D03*
X0273720Y0778460D03*
D19*
X0286520Y0849060D03*
X0286520Y0850960D03*
X0286520Y0852960D03*
X0286520Y0854960D03*
X0286520Y0856860D03*
X0286520Y0858860D03*
X0286520Y0860860D03*
X0286520Y0862760D03*
X0286520Y0864760D03*
X0286520Y0866760D03*
X0286520Y0868660D03*
X0286520Y0870660D03*
X0286520Y0872660D03*
X0286520Y0874560D03*
X0286520Y0876560D03*
X0286520Y0878560D03*
X0286520Y0880460D03*
X0286520Y0882460D03*
X0286520Y0884460D03*
X0286520Y0886460D03*
X0286520Y0888360D03*
X0286520Y0890360D03*
X0286520Y0892360D03*
X0286520Y0894260D03*
X0286520Y0896260D03*
X0286520Y0898260D03*
X0286520Y0900160D03*
X0286520Y0902160D03*
X0286520Y0904160D03*
X0286520Y0906060D03*
X0286520Y0908060D03*
X0286520Y0910060D03*
X0286520Y0911960D03*
X0286520Y0913960D03*
X0286520Y0915960D03*
X0286520Y0917860D03*
X0370920Y0917860D03*
X0370920Y0915960D03*
X0370920Y0913960D03*
X0370920Y0911960D03*
X0370920Y0910060D03*
X0370920Y0908060D03*
X0370920Y0906060D03*
X0370920Y0904160D03*
X0370920Y0902160D03*
X0370920Y0900160D03*
X0370920Y0898260D03*
X0370920Y0896260D03*
X0370920Y0894260D03*
X0370920Y0892360D03*
X0370920Y0890360D03*
X0370920Y0888360D03*
X0370920Y0886460D03*
X0370920Y0884460D03*
X0370920Y0882460D03*
X0370920Y0880460D03*
X0370920Y0878560D03*
X0370920Y0876560D03*
X0370920Y0874560D03*
X0370920Y0872660D03*
X0370920Y0870660D03*
X0370920Y0868660D03*
X0370920Y0866760D03*
X0370920Y0864760D03*
X0370920Y0862760D03*
X0370920Y0860860D03*
X0370920Y0858860D03*
X0370920Y0856860D03*
X0370920Y0854960D03*
X0370920Y0852960D03*
X0370920Y0850960D03*
X0370920Y0849060D03*
D52*
X0363120Y0841260D03*
X0361220Y0841260D03*
X0359220Y0841260D03*
X0357220Y0841260D03*
X0355320Y0841260D03*
X0353320Y0841260D03*
X0351320Y0841260D03*
X0349420Y0841260D03*
X0347420Y0841260D03*
X0345420Y0841260D03*
X0343520Y0841260D03*
X0341520Y0841260D03*
X0339520Y0841260D03*
X0337620Y0841260D03*
X0335620Y0841260D03*
X0333620Y0841260D03*
X0331720Y0841260D03*
X0329720Y0841260D03*
X0327720Y0841260D03*
X0325720Y0841260D03*
X0323820Y0841260D03*
X0321820Y0841260D03*
X0319820Y0841260D03*
X0317920Y0841260D03*
X0315920Y0841260D03*
X0313920Y0841260D03*
X0312020Y0841260D03*
X0310020Y0841260D03*
X0308020Y0841260D03*
X0306120Y0841260D03*
X0304120Y0841260D03*
X0302120Y0841260D03*
X0300220Y0841260D03*
X0298220Y0841260D03*
X0296220Y0841260D03*
X0294320Y0841260D03*
X0294320Y0925660D03*
X0296220Y0925660D03*
X0298220Y0925660D03*
X0300220Y0925660D03*
X0302120Y0925660D03*
X0304120Y0925660D03*
X0306120Y0925660D03*
X0308020Y0925660D03*
X0310020Y0925660D03*
X0312020Y0925660D03*
X0313920Y0925660D03*
X0315920Y0925660D03*
X0317920Y0925660D03*
X0319820Y0925660D03*
X0321820Y0925660D03*
X0323820Y0925660D03*
X0325720Y0925660D03*
X0327720Y0925660D03*
X0329720Y0925660D03*
X0331720Y0925660D03*
X0333620Y0925660D03*
X0335620Y0925660D03*
X0337620Y0925660D03*
X0339520Y0925660D03*
X0341520Y0925660D03*
X0343520Y0925660D03*
X0345420Y0925660D03*
X0347420Y0925660D03*
X0349420Y0925660D03*
X0351320Y0925660D03*
X0353320Y0925660D03*
X0355320Y0925660D03*
X0357220Y0925660D03*
X0359220Y0925660D03*
X0361220Y0925660D03*
X0363120Y0925660D03*
D18*
X0266220Y0892460D03*
X0266220Y0854460D03*
D15*
X0430420Y0853540D03*
X0430420Y0850390D03*
X0430420Y0856690D03*
X0430420Y0859840D03*
X0430420Y0862990D03*
X0430420Y0866140D03*
X0430420Y0869290D03*
X0430420Y0872440D03*
X0430420Y0875590D03*
X0430420Y0878740D03*
X0430420Y0881890D03*
X0430420Y0885030D03*
X0430420Y0888180D03*
X0430420Y0891330D03*
X0430420Y0894480D03*
X0430420Y0897630D03*
X0430420Y0900780D03*
X0430420Y0903930D03*
X0430420Y0907080D03*
X0430420Y0910230D03*
X0430420Y0913380D03*
X0430420Y0916530D03*
X0474510Y0916530D03*
X0474510Y0913380D03*
X0474510Y0910230D03*
X0474510Y0907080D03*
X0474510Y0903930D03*
X0474510Y0900780D03*
X0474510Y0897630D03*
X0474510Y0894480D03*
X0474510Y0891330D03*
X0474510Y0888180D03*
X0474510Y0885030D03*
X0474510Y0881890D03*
X0474510Y0878740D03*
X0474510Y0875590D03*
X0474510Y0872440D03*
X0474510Y0869290D03*
X0474510Y0866140D03*
X0474510Y0862990D03*
X0474510Y0859840D03*
X0474510Y0856690D03*
X0474510Y0853540D03*
X0474510Y0850390D03*
D56*
X0298620Y0762560D03*
X0298620Y0753560D03*
X0298620Y0744560D03*
D68*
X0273820Y0753460D03*
D60*
X0313720Y0754830D03*
X0313720Y0744590D03*
X0331220Y0744590D03*
X0331220Y0754830D03*
D34*
X0406440Y0755610D03*
X0406440Y0758160D03*
X0406440Y0760720D03*
X0406440Y0763280D03*
X0406440Y0765840D03*
X0406440Y0768400D03*
X0406440Y0770960D03*
X0406440Y0773520D03*
X0406440Y0776080D03*
X0406440Y0778640D03*
X0406440Y0781200D03*
X0406440Y0783760D03*
X0406440Y0786310D03*
X0406440Y0788870D03*
X0435990Y0788870D03*
X0435990Y0786310D03*
X0435990Y0783760D03*
X0435990Y0781200D03*
X0435990Y0778640D03*
X0435990Y0776080D03*
X0435990Y0773520D03*
X0435990Y0770960D03*
X0435990Y0768400D03*
X0435990Y0765840D03*
X0435990Y0763280D03*
X0435990Y0760720D03*
X0435990Y0758160D03*
X0435990Y0755610D03*
D22*
X0468720Y0753460D03*
X0468720Y0763460D03*
X0373720Y0763460D03*
X0353720Y0753460D03*
X0313720Y0763460D03*
D89*
X0323720Y0763460D03*
X0333720Y0763460D03*
X0353720Y0763460D03*
X0363720Y0763460D03*
X0363720Y0753460D03*
X0373720Y0753460D03*
X0478720Y0753460D03*
X0488720Y0753460D03*
X0488720Y0763460D03*
X0478720Y0763460D03*
D25*
X0456730Y0745960D03*
X0445710Y0745960D03*
X0404230Y0745960D03*
X0393210Y0745960D03*
D99*
X0456220Y0781700D03*
X0456220Y0792720D03*
D96*
X0263720Y0945960D03*
D55*
X0489530Y0956150D03*
X0489530Y0923270D03*
D94*
X0477230Y0930950D02*
X0472870Y0930950D01*
X0472870Y0948470D02*
X0477230Y0948470D01*
D31*
X0478510Y0944830D03*
X0478510Y0942270D03*
X0478510Y0939710D03*
X0478510Y0937150D03*
X0478510Y0934590D03*
D46*
X0489530Y0935180D03*
X0489530Y0944240D03*
X0965030Y0416210D02*
G75*
%LPD*%
D74*
X1050030Y0430210D03*
X1050030Y0440210D03*
X1000030Y0622710D03*
X1000030Y0632710D03*
X1010030Y0632710D03*
X1020030Y0632710D03*
X0990030Y0632710D03*
X0990030Y0622710D03*
X0980030Y0622710D03*
X0980030Y0632710D03*
X0970030Y0632710D03*
X1060030Y0632710D03*
X1070030Y0632710D03*
X1080030Y0632710D03*
X1090030Y0632710D03*
X1100030Y0632710D03*
X1110030Y0632710D03*
X1140030Y0632710D03*
X1150030Y0632710D03*
X1160030Y0632710D03*
X1170030Y0632710D03*
X1180030Y0632710D03*
D54*
X1167120Y0623960D03*
X1160430Y0623960D03*
X1160430Y0617710D03*
X1167120Y0617710D03*
X1188780Y0563560D03*
X1188780Y0556860D03*
X1126280Y0554360D03*
X1126280Y0561060D03*
X1045030Y0508560D03*
X1045030Y0501860D03*
X1025030Y0499360D03*
X1025030Y0506060D03*
X1015030Y0506060D03*
X1015030Y0499360D03*
X1007530Y0499360D03*
X1007530Y0506060D03*
X0998780Y0506060D03*
X0998780Y0499360D03*
X0990030Y0499360D03*
X0990030Y0506060D03*
X0982530Y0506060D03*
X0982530Y0499360D03*
X0980030Y0514360D03*
X0980030Y0521060D03*
X0985030Y0534360D03*
X0985030Y0541060D03*
X0985030Y0561860D03*
X0985030Y0568560D03*
X0980030Y0579360D03*
X0980030Y0586060D03*
X1016680Y0618960D03*
X1023370Y0618960D03*
X1039180Y0630210D03*
X1045870Y0630210D03*
X1025870Y0470210D03*
X1019180Y0470210D03*
X1019180Y0457710D03*
X1025870Y0457710D03*
X1056680Y0457710D03*
X1063370Y0457710D03*
X1063370Y0465210D03*
X1056680Y0465210D03*
X1152530Y0467310D03*
X1152530Y0460610D03*
D84*
X1154180Y0430210D03*
X1160870Y0430210D03*
X1130870Y0426460D03*
X1124180Y0426460D03*
X1100870Y0440210D03*
X1094180Y0440210D03*
X1096680Y0465210D03*
X1103370Y0465210D03*
X1083370Y0510210D03*
X1083370Y0516460D03*
X1076680Y0516460D03*
X1076680Y0510210D03*
X1089180Y0547710D03*
X1095870Y0547710D03*
X1093370Y0572710D03*
X1086680Y0572710D03*
X1086680Y0593960D03*
X1093370Y0593960D03*
X1085870Y0602710D03*
X1079180Y0602710D03*
X1048370Y0612710D03*
X1041680Y0612710D03*
X1023370Y0612710D03*
X1016680Y0612710D03*
X1000870Y0610210D03*
X0994180Y0610210D03*
D58*
X1034120Y0470210D03*
X1045930Y0470210D03*
X1045930Y0457710D03*
X1034120Y0457710D03*
D21*
X1010030Y0455210D03*
X1010030Y0465210D03*
X1000030Y0465210D03*
X1000030Y0455210D03*
X0990030Y0455210D03*
X0990030Y0465210D03*
X0980030Y0465210D03*
X0970030Y0465210D03*
X0970030Y0455210D03*
X0980030Y0455210D03*
D19*
X0992830Y0525810D03*
X0992830Y0527710D03*
X0992830Y0529710D03*
X0992830Y0531710D03*
X0992830Y0533610D03*
X0992830Y0535610D03*
X0992830Y0537610D03*
X0992830Y0539510D03*
X0992830Y0541510D03*
X0992830Y0543510D03*
X0992830Y0545410D03*
X0992830Y0547410D03*
X0992830Y0549410D03*
X0992830Y0551310D03*
X0992830Y0553310D03*
X0992830Y0555310D03*
X0992830Y0557210D03*
X0992830Y0559210D03*
X0992830Y0561210D03*
X0992830Y0563210D03*
X0992830Y0565110D03*
X0992830Y0567110D03*
X0992830Y0569110D03*
X0992830Y0571010D03*
X0992830Y0573010D03*
X0992830Y0575010D03*
X0992830Y0576910D03*
X0992830Y0578910D03*
X0992830Y0580910D03*
X0992830Y0582810D03*
X0992830Y0584810D03*
X0992830Y0586810D03*
X0992830Y0588710D03*
X0992830Y0590710D03*
X0992830Y0592710D03*
X0992830Y0594610D03*
X1077230Y0594610D03*
X1077230Y0592710D03*
X1077230Y0590710D03*
X1077230Y0588710D03*
X1077230Y0586810D03*
X1077230Y0584810D03*
X1077230Y0582810D03*
X1077230Y0580910D03*
X1077230Y0578910D03*
X1077230Y0576910D03*
X1077230Y0575010D03*
X1077230Y0573010D03*
X1077230Y0571010D03*
X1077230Y0569110D03*
X1077230Y0567110D03*
X1077230Y0565110D03*
X1077230Y0563210D03*
X1077230Y0561210D03*
X1077230Y0559210D03*
X1077230Y0557210D03*
X1077230Y0555310D03*
X1077230Y0553310D03*
X1077230Y0551310D03*
X1077230Y0549410D03*
X1077230Y0547410D03*
X1077230Y0545410D03*
X1077230Y0543510D03*
X1077230Y0541510D03*
X1077230Y0539510D03*
X1077230Y0537610D03*
X1077230Y0535610D03*
X1077230Y0533610D03*
X1077230Y0531710D03*
X1077230Y0529710D03*
X1077230Y0527710D03*
X1077230Y0525810D03*
D52*
X1069430Y0518010D03*
X1067530Y0518010D03*
X1065530Y0518010D03*
X1063530Y0518010D03*
X1061630Y0518010D03*
X1059630Y0518010D03*
X1057630Y0518010D03*
X1055730Y0518010D03*
X1053730Y0518010D03*
X1051730Y0518010D03*
X1049830Y0518010D03*
X1047830Y0518010D03*
X1045830Y0518010D03*
X1043930Y0518010D03*
X1041930Y0518010D03*
X1039930Y0518010D03*
X1038030Y0518010D03*
X1036030Y0518010D03*
X1034030Y0518010D03*
X1032030Y0518010D03*
X1030130Y0518010D03*
X1028130Y0518010D03*
X1026130Y0518010D03*
X1024230Y0518010D03*
X1022230Y0518010D03*
X1020230Y0518010D03*
X1018330Y0518010D03*
X1016330Y0518010D03*
X1014330Y0518010D03*
X1012430Y0518010D03*
X1010430Y0518010D03*
X1008430Y0518010D03*
X1006530Y0518010D03*
X1004530Y0518010D03*
X1002530Y0518010D03*
X1000630Y0518010D03*
X1000630Y0602410D03*
X1002530Y0602410D03*
X1004530Y0602410D03*
X1006530Y0602410D03*
X1008430Y0602410D03*
X1010430Y0602410D03*
X1012430Y0602410D03*
X1014330Y0602410D03*
X1016330Y0602410D03*
X1018330Y0602410D03*
X1020230Y0602410D03*
X1022230Y0602410D03*
X1024230Y0602410D03*
X1026130Y0602410D03*
X1028130Y0602410D03*
X1030130Y0602410D03*
X1032030Y0602410D03*
X1034030Y0602410D03*
X1036030Y0602410D03*
X1038030Y0602410D03*
X1039930Y0602410D03*
X1041930Y0602410D03*
X1043930Y0602410D03*
X1045830Y0602410D03*
X1047830Y0602410D03*
X1049830Y0602410D03*
X1051730Y0602410D03*
X1053730Y0602410D03*
X1055730Y0602410D03*
X1057630Y0602410D03*
X1059630Y0602410D03*
X1061630Y0602410D03*
X1063530Y0602410D03*
X1065530Y0602410D03*
X1067530Y0602410D03*
X1069430Y0602410D03*
D18*
X0972530Y0569210D03*
X0972530Y0531210D03*
D15*
X1136730Y0530290D03*
X1136730Y0527140D03*
X1136730Y0533440D03*
X1136730Y0536590D03*
X1136730Y0539740D03*
X1136730Y0542890D03*
X1136730Y0546040D03*
X1136730Y0549190D03*
X1136730Y0552340D03*
X1136730Y0555490D03*
X1136730Y0558640D03*
X1136730Y0561780D03*
X1136730Y0564930D03*
X1136730Y0568080D03*
X1136730Y0571230D03*
X1136730Y0574380D03*
X1136730Y0577530D03*
X1136730Y0580680D03*
X1136730Y0583830D03*
X1136730Y0586980D03*
X1136730Y0590130D03*
X1136730Y0593280D03*
X1180820Y0593280D03*
X1180820Y0590130D03*
X1180820Y0586980D03*
X1180820Y0583830D03*
X1180820Y0580680D03*
X1180820Y0577530D03*
X1180820Y0574380D03*
X1180820Y0571230D03*
X1180820Y0568080D03*
X1180820Y0564930D03*
X1180820Y0561780D03*
X1180820Y0558640D03*
X1180820Y0555490D03*
X1180820Y0552340D03*
X1180820Y0549190D03*
X1180820Y0546040D03*
X1180820Y0542890D03*
X1180820Y0539740D03*
X1180820Y0536590D03*
X1180820Y0533440D03*
X1180820Y0530290D03*
X1180820Y0527140D03*
D56*
X1004930Y0439310D03*
X1004930Y0430310D03*
X1004930Y0421310D03*
D68*
X0980130Y0430210D03*
D60*
X1020030Y0431580D03*
X1020030Y0421340D03*
X1037530Y0421340D03*
X1037530Y0431580D03*
D34*
X1112750Y0432360D03*
X1112750Y0434910D03*
X1112750Y0437470D03*
X1112750Y0440030D03*
X1112750Y0442590D03*
X1112750Y0445150D03*
X1112750Y0447710D03*
X1112750Y0450270D03*
X1112750Y0452830D03*
X1112750Y0455390D03*
X1112750Y0457950D03*
X1112750Y0460510D03*
X1112750Y0463060D03*
X1112750Y0465620D03*
X1142300Y0465620D03*
X1142300Y0463060D03*
X1142300Y0460510D03*
X1142300Y0457950D03*
X1142300Y0455390D03*
X1142300Y0452830D03*
X1142300Y0450270D03*
X1142300Y0447710D03*
X1142300Y0445150D03*
X1142300Y0442590D03*
X1142300Y0440030D03*
X1142300Y0437470D03*
X1142300Y0434910D03*
X1142300Y0432360D03*
D22*
X1175030Y0430210D03*
X1175030Y0440210D03*
X1080030Y0440210D03*
X1060030Y0430210D03*
X1020030Y0440210D03*
D89*
X1030030Y0440210D03*
X1040030Y0440210D03*
X1060030Y0440210D03*
X1070030Y0440210D03*
X1070030Y0430210D03*
X1080030Y0430210D03*
X1185030Y0430210D03*
X1195030Y0430210D03*
X1195030Y0440210D03*
X1185030Y0440210D03*
D25*
X1163040Y0422710D03*
X1152020Y0422710D03*
X1110540Y0422710D03*
X1099520Y0422710D03*
D99*
X1162530Y0458450D03*
X1162530Y0469470D03*
D96*
X0970030Y0622710D03*
D55*
X1195840Y0632900D03*
X1195840Y0600020D03*
D94*
X1183540Y0607700D02*
X1179180Y0607700D01*
X1179180Y0625220D02*
X1183540Y0625220D01*
D31*
X1184820Y0621580D03*
X1184820Y0619020D03*
X1184820Y0616460D03*
X1184820Y0613900D03*
X1184820Y0611340D03*
D46*
X1195840Y0611930D03*
X1195840Y0620990D03*
X0807540Y0650210D02*
G75*
%LPD*%
D47*
X0844550Y0891930D03*
X0854400Y0891930D03*
X0864240Y0891930D03*
X0944550Y0891930D03*
X0954400Y0891930D03*
X0964240Y0891930D03*
X1044550Y0891930D03*
X1054400Y0891930D03*
X1064240Y0891930D03*
X1144550Y0891930D03*
X1154400Y0891930D03*
X1164240Y0891930D03*
D101*
X1172110Y0921460D03*
X1136680Y0921460D03*
X1072110Y0921460D03*
X1036680Y0921460D03*
X0972110Y0921460D03*
X0936680Y0921460D03*
X0872110Y0921460D03*
X0836680Y0921460D03*
D74*
X0898150Y0730210D03*
X0898150Y0740210D03*
X0908150Y0740210D03*
X0908150Y0750210D03*
X0908150Y0760210D03*
X0898150Y0760210D03*
X0898150Y0750210D03*
X0898150Y0770210D03*
X0898150Y0780210D03*
X0898150Y0820210D03*
X0898150Y0830210D03*
X0898150Y0840210D03*
X0898150Y0850210D03*
X0898150Y0860210D03*
X0898150Y0870210D03*
X0898150Y0900210D03*
X0898150Y0910210D03*
X0898150Y0920210D03*
X0898150Y0930210D03*
X0898150Y0940210D03*
X1000650Y0912710D03*
X1020650Y0912710D03*
X1045650Y0952710D03*
X1055650Y0952710D03*
X1088150Y0810210D03*
X1098150Y0810210D03*
X1088150Y0800210D03*
X1088150Y0790210D03*
X1088150Y0780210D03*
X1048150Y0730210D03*
X1038150Y0730210D03*
X1028150Y0730210D03*
X1018150Y0730210D03*
X1008150Y0730210D03*
X0998150Y0730210D03*
X0988150Y0730210D03*
X0978150Y0730210D03*
X0968150Y0730210D03*
X0958150Y0730210D03*
D87*
X0983150Y0912710D03*
X0983150Y0952710D03*
D22*
X1088150Y0955210D03*
X1098150Y0935210D03*
X1098150Y0820210D03*
X1088150Y0820210D03*
D89*
X1088150Y0830210D03*
X1098150Y0830210D03*
X1098150Y0840210D03*
X1088150Y0840210D03*
X1088150Y0935210D03*
X1088150Y0945210D03*
X1098150Y0945210D03*
X1098150Y0955210D03*
D43*
X1069400Y0876460D03*
X1069400Y0866460D03*
X1069400Y0856460D03*
X1069400Y0846460D03*
X1069400Y0836460D03*
X1039400Y0836460D03*
X1039400Y0846460D03*
X1039400Y0856460D03*
X1039400Y0866460D03*
X1039400Y0876460D03*
X1028150Y0822710D03*
X1028150Y0792710D03*
X1024400Y0781460D03*
X1034400Y0781460D03*
X1044400Y0781460D03*
X1044400Y0751460D03*
X1034400Y0751460D03*
X1024400Y0751460D03*
X0999400Y0756460D03*
X0989400Y0751460D03*
X0979400Y0751460D03*
X0969400Y0751460D03*
X0939400Y0756460D03*
X0929400Y0756460D03*
X0929400Y0776460D03*
X0939400Y0776460D03*
X0969400Y0781460D03*
X0979400Y0781460D03*
X0989400Y0781460D03*
X0999400Y0776460D03*
X0949400Y0821460D03*
X0949400Y0831460D03*
X0949400Y0841460D03*
X0919400Y0841460D03*
X0919400Y0831460D03*
X0919400Y0821460D03*
X0923150Y0896460D03*
X0914400Y0896460D03*
X0914400Y0926460D03*
X0923150Y0926460D03*
X1089400Y0768960D03*
X1094400Y0761460D03*
X1084400Y0761460D03*
X1089400Y0743960D03*
X1094400Y0736460D03*
X1084400Y0736460D03*
D45*
X1069400Y0796460D03*
X1044400Y0811460D03*
X0964400Y0796460D03*
X0934400Y0796460D03*
X0964400Y0826460D03*
X0964400Y0856460D03*
X0934400Y0856460D03*
D62*
X0934400Y0866460D03*
X0964400Y0866460D03*
X0964400Y0836460D03*
X0964400Y0806460D03*
X0934400Y0806460D03*
X1044400Y0821460D03*
X1069400Y0806460D03*
D13*
X1019400Y0856460D03*
X1019400Y0866460D03*
X1019400Y0876460D03*
X1019400Y0886460D03*
X0989400Y0886460D03*
X0989400Y0876460D03*
X0989400Y0866460D03*
X0989400Y0856460D03*
D10*
X1014400Y0788960D03*
X1014400Y0743960D03*
X0954400Y0743960D03*
X0954400Y0788960D03*
D40*
X1009400Y0926270D03*
X1027900Y0938080D03*
X1009400Y0949900D03*
D21*
X1058150Y0770210D03*
X1068150Y0770210D03*
X1068150Y0760210D03*
X1058150Y0760210D03*
X1058150Y0750210D03*
X1068150Y0750210D03*
X1068150Y0740210D03*
X1058150Y0740210D03*
X1058150Y0730210D03*
X1068150Y0730210D03*
D11*
X1145020Y0737090D03*
X1145020Y0721150D03*
X1169710Y0721150D03*
X1169400Y0737080D03*
X1194710Y0737080D03*
X1194710Y0721150D03*
X1194710Y0657080D03*
X1169400Y0657080D03*
X1145020Y0657090D03*
X1145020Y0801150D03*
X1145020Y0817090D03*
X1169400Y0817080D03*
X1169710Y0801150D03*
X1194710Y0801150D03*
X1194710Y0817080D03*
X1194710Y0881150D03*
X1169710Y0881150D03*
X1145020Y0881150D03*
X0863770Y0880830D03*
X0839400Y0880840D03*
X0814080Y0880840D03*
X0814080Y0816770D03*
X0814080Y0800840D03*
X0839400Y0800840D03*
X0839080Y0816770D03*
X0863770Y0816770D03*
X0863770Y0800830D03*
X0863770Y0736770D03*
X0839080Y0736770D03*
X0814080Y0736770D03*
D96*
X0908150Y0730210D03*
D55*
X0899970Y0955940D03*
X0932840Y0955940D03*
D94*
X0925160Y0943640D02*
X0925160Y0939270D01*
X0907640Y0939270D02*
X0907640Y0943640D01*
D13*
X1109400Y0774060D02*
X1109400Y0768860D01*
X1109400Y0734060D02*
X1109400Y0728860D01*
D14*
X1019400Y0801460D03*
X0989400Y0801460D03*
X0989400Y0841460D03*
X1019400Y0841460D03*
X0664930Y0416210D02*
G75*
%LPD*%
D74*
X0749930Y0430210D03*
X0749930Y0440210D03*
X0699930Y0622710D03*
X0699930Y0632710D03*
X0709930Y0632710D03*
X0719930Y0632710D03*
X0689930Y0632710D03*
X0689930Y0622710D03*
X0679930Y0622710D03*
X0679930Y0632710D03*
X0669930Y0632710D03*
X0759930Y0632710D03*
X0769930Y0632710D03*
X0779930Y0632710D03*
X0789930Y0632710D03*
X0799930Y0632710D03*
X0809930Y0632710D03*
X0839930Y0632710D03*
X0849930Y0632710D03*
X0859930Y0632710D03*
X0869930Y0632710D03*
X0879930Y0632710D03*
D54*
X0867020Y0623960D03*
X0860330Y0623960D03*
X0860330Y0617710D03*
X0867020Y0617710D03*
X0888680Y0563560D03*
X0888680Y0556860D03*
X0826180Y0554360D03*
X0826180Y0561060D03*
X0744930Y0508560D03*
X0744930Y0501860D03*
X0724930Y0499360D03*
X0724930Y0506060D03*
X0714930Y0506060D03*
X0714930Y0499360D03*
X0707430Y0499360D03*
X0707430Y0506060D03*
X0698680Y0506060D03*
X0698680Y0499360D03*
X0689930Y0499360D03*
X0689930Y0506060D03*
X0682430Y0506060D03*
X0682430Y0499360D03*
X0679930Y0514360D03*
X0679930Y0521060D03*
X0684930Y0534360D03*
X0684930Y0541060D03*
X0684930Y0561860D03*
X0684930Y0568560D03*
X0679930Y0579360D03*
X0679930Y0586060D03*
X0716580Y0618960D03*
X0723270Y0618960D03*
X0739080Y0630210D03*
X0745770Y0630210D03*
X0725770Y0470210D03*
X0719080Y0470210D03*
X0719080Y0457710D03*
X0725770Y0457710D03*
X0756580Y0457710D03*
X0763270Y0457710D03*
X0763270Y0465210D03*
X0756580Y0465210D03*
X0852430Y0467310D03*
X0852430Y0460610D03*
D84*
X0854080Y0430210D03*
X0860770Y0430210D03*
X0830770Y0426460D03*
X0824080Y0426460D03*
X0800770Y0440210D03*
X0794080Y0440210D03*
X0796580Y0465210D03*
X0803270Y0465210D03*
X0783270Y0510210D03*
X0783270Y0516460D03*
X0776580Y0516460D03*
X0776580Y0510210D03*
X0789080Y0547710D03*
X0795770Y0547710D03*
X0793270Y0572710D03*
X0786580Y0572710D03*
X0786580Y0593960D03*
X0793270Y0593960D03*
X0785770Y0602710D03*
X0779080Y0602710D03*
X0748270Y0612710D03*
X0741580Y0612710D03*
X0723270Y0612710D03*
X0716580Y0612710D03*
X0700770Y0610210D03*
X0694080Y0610210D03*
D58*
X0734020Y0470210D03*
X0745830Y0470210D03*
X0745830Y0457710D03*
X0734020Y0457710D03*
D21*
X0709930Y0455210D03*
X0709930Y0465210D03*
X0699930Y0465210D03*
X0699930Y0455210D03*
X0689930Y0455210D03*
X0689930Y0465210D03*
X0679930Y0465210D03*
X0669930Y0465210D03*
X0669930Y0455210D03*
X0679930Y0455210D03*
D19*
X0692730Y0525810D03*
X0692730Y0527710D03*
X0692730Y0529710D03*
X0692730Y0531710D03*
X0692730Y0533610D03*
X0692730Y0535610D03*
X0692730Y0537610D03*
X0692730Y0539510D03*
X0692730Y0541510D03*
X0692730Y0543510D03*
X0692730Y0545410D03*
X0692730Y0547410D03*
X0692730Y0549410D03*
X0692730Y0551310D03*
X0692730Y0553310D03*
X0692730Y0555310D03*
X0692730Y0557210D03*
X0692730Y0559210D03*
X0692730Y0561210D03*
X0692730Y0563210D03*
X0692730Y0565110D03*
X0692730Y0567110D03*
X0692730Y0569110D03*
X0692730Y0571010D03*
X0692730Y0573010D03*
X0692730Y0575010D03*
X0692730Y0576910D03*
X0692730Y0578910D03*
X0692730Y0580910D03*
X0692730Y0582810D03*
X0692730Y0584810D03*
X0692730Y0586810D03*
X0692730Y0588710D03*
X0692730Y0590710D03*
X0692730Y0592710D03*
X0692730Y0594610D03*
X0777130Y0594610D03*
X0777130Y0592710D03*
X0777130Y0590710D03*
X0777130Y0588710D03*
X0777130Y0586810D03*
X0777130Y0584810D03*
X0777130Y0582810D03*
X0777130Y0580910D03*
X0777130Y0578910D03*
X0777130Y0576910D03*
X0777130Y0575010D03*
X0777130Y0573010D03*
X0777130Y0571010D03*
X0777130Y0569110D03*
X0777130Y0567110D03*
X0777130Y0565110D03*
X0777130Y0563210D03*
X0777130Y0561210D03*
X0777130Y0559210D03*
X0777130Y0557210D03*
X0777130Y0555310D03*
X0777130Y0553310D03*
X0777130Y0551310D03*
X0777130Y0549410D03*
X0777130Y0547410D03*
X0777130Y0545410D03*
X0777130Y0543510D03*
X0777130Y0541510D03*
X0777130Y0539510D03*
X0777130Y0537610D03*
X0777130Y0535610D03*
X0777130Y0533610D03*
X0777130Y0531710D03*
X0777130Y0529710D03*
X0777130Y0527710D03*
X0777130Y0525810D03*
D52*
X0769330Y0518010D03*
X0767430Y0518010D03*
X0765430Y0518010D03*
X0763430Y0518010D03*
X0761530Y0518010D03*
X0759530Y0518010D03*
X0757530Y0518010D03*
X0755630Y0518010D03*
X0753630Y0518010D03*
X0751630Y0518010D03*
X0749730Y0518010D03*
X0747730Y0518010D03*
X0745730Y0518010D03*
X0743830Y0518010D03*
X0741830Y0518010D03*
X0739830Y0518010D03*
X0737930Y0518010D03*
X0735930Y0518010D03*
X0733930Y0518010D03*
X0731930Y0518010D03*
X0730030Y0518010D03*
X0728030Y0518010D03*
X0726030Y0518010D03*
X0724130Y0518010D03*
X0722130Y0518010D03*
X0720130Y0518010D03*
X0718230Y0518010D03*
X0716230Y0518010D03*
X0714230Y0518010D03*
X0712330Y0518010D03*
X0710330Y0518010D03*
X0708330Y0518010D03*
X0706430Y0518010D03*
X0704430Y0518010D03*
X0702430Y0518010D03*
X0700530Y0518010D03*
X0700530Y0602410D03*
X0702430Y0602410D03*
X0704430Y0602410D03*
X0706430Y0602410D03*
X0708330Y0602410D03*
X0710330Y0602410D03*
X0712330Y0602410D03*
X0714230Y0602410D03*
X0716230Y0602410D03*
X0718230Y0602410D03*
X0720130Y0602410D03*
X0722130Y0602410D03*
X0724130Y0602410D03*
X0726030Y0602410D03*
X0728030Y0602410D03*
X0730030Y0602410D03*
X0731930Y0602410D03*
X0733930Y0602410D03*
X0735930Y0602410D03*
X0737930Y0602410D03*
X0739830Y0602410D03*
X0741830Y0602410D03*
X0743830Y0602410D03*
X0745730Y0602410D03*
X0747730Y0602410D03*
X0749730Y0602410D03*
X0751630Y0602410D03*
X0753630Y0602410D03*
X0755630Y0602410D03*
X0757530Y0602410D03*
X0759530Y0602410D03*
X0761530Y0602410D03*
X0763430Y0602410D03*
X0765430Y0602410D03*
X0767430Y0602410D03*
X0769330Y0602410D03*
D18*
X0672430Y0569210D03*
X0672430Y0531210D03*
D15*
X0836630Y0530290D03*
X0836630Y0527140D03*
X0836630Y0533440D03*
X0836630Y0536590D03*
X0836630Y0539740D03*
X0836630Y0542890D03*
X0836630Y0546040D03*
X0836630Y0549190D03*
X0836630Y0552340D03*
X0836630Y0555490D03*
X0836630Y0558640D03*
X0836630Y0561780D03*
X0836630Y0564930D03*
X0836630Y0568080D03*
X0836630Y0571230D03*
X0836630Y0574380D03*
X0836630Y0577530D03*
X0836630Y0580680D03*
X0836630Y0583830D03*
X0836630Y0586980D03*
X0836630Y0590130D03*
X0836630Y0593280D03*
X0880720Y0593280D03*
X0880720Y0590130D03*
X0880720Y0586980D03*
X0880720Y0583830D03*
X0880720Y0580680D03*
X0880720Y0577530D03*
X0880720Y0574380D03*
X0880720Y0571230D03*
X0880720Y0568080D03*
X0880720Y0564930D03*
X0880720Y0561780D03*
X0880720Y0558640D03*
X0880720Y0555490D03*
X0880720Y0552340D03*
X0880720Y0549190D03*
X0880720Y0546040D03*
X0880720Y0542890D03*
X0880720Y0539740D03*
X0880720Y0536590D03*
X0880720Y0533440D03*
X0880720Y0530290D03*
X0880720Y0527140D03*
D56*
X0704830Y0439310D03*
X0704830Y0430310D03*
X0704830Y0421310D03*
D68*
X0680030Y0430210D03*
D60*
X0719930Y0431580D03*
X0719930Y0421340D03*
X0737430Y0421340D03*
X0737430Y0431580D03*
D34*
X0812650Y0432360D03*
X0812650Y0434910D03*
X0812650Y0437470D03*
X0812650Y0440030D03*
X0812650Y0442590D03*
X0812650Y0445150D03*
X0812650Y0447710D03*
X0812650Y0450270D03*
X0812650Y0452830D03*
X0812650Y0455390D03*
X0812650Y0457950D03*
X0812650Y0460510D03*
X0812650Y0463060D03*
X0812650Y0465620D03*
X0842200Y0465620D03*
X0842200Y0463060D03*
X0842200Y0460510D03*
X0842200Y0457950D03*
X0842200Y0455390D03*
X0842200Y0452830D03*
X0842200Y0450270D03*
X0842200Y0447710D03*
X0842200Y0445150D03*
X0842200Y0442590D03*
X0842200Y0440030D03*
X0842200Y0437470D03*
X0842200Y0434910D03*
X0842200Y0432360D03*
D22*
X0874930Y0430210D03*
X0874930Y0440210D03*
X0779930Y0440210D03*
X0759930Y0430210D03*
X0719930Y0440210D03*
D89*
X0729930Y0440210D03*
X0739930Y0440210D03*
X0759930Y0440210D03*
X0769930Y0440210D03*
X0769930Y0430210D03*
X0779930Y0430210D03*
X0884930Y0430210D03*
X0894930Y0430210D03*
X0894930Y0440210D03*
X0884930Y0440210D03*
D25*
X0862940Y0422710D03*
X0851920Y0422710D03*
X0810440Y0422710D03*
X0799420Y0422710D03*
D99*
X0862430Y0458450D03*
X0862430Y0469470D03*
D96*
X0669930Y0622710D03*
D55*
X0895740Y0632900D03*
X0895740Y0600020D03*
D94*
X0883440Y0607700D02*
X0879080Y0607700D01*
X0879080Y0625220D02*
X0883440Y0625220D01*
D31*
X0884720Y0621580D03*
X0884720Y0619020D03*
X0884720Y0616460D03*
X0884720Y0613900D03*
X0884720Y0611340D03*
D46*
X0895740Y0611930D03*
X0895740Y0620990D03*
X0507440Y0739460D02*
G75*
%LPD*%
D74*
X0592440Y0753460D03*
X0592440Y0763460D03*
X0542440Y0945960D03*
X0542440Y0955960D03*
X0552440Y0955960D03*
X0562440Y0955960D03*
X0532440Y0955960D03*
X0532440Y0945960D03*
X0522440Y0945960D03*
X0522440Y0955960D03*
X0512440Y0955960D03*
X0602440Y0955960D03*
X0612440Y0955960D03*
X0622440Y0955960D03*
X0632440Y0955960D03*
X0642440Y0955960D03*
X0652440Y0955960D03*
X0682440Y0955960D03*
X0692440Y0955960D03*
X0702440Y0955960D03*
X0712440Y0955960D03*
X0722440Y0955960D03*
D54*
X0709530Y0947210D03*
X0702840Y0947210D03*
X0702840Y0940960D03*
X0709530Y0940960D03*
X0731190Y0886810D03*
X0731190Y0880110D03*
X0668690Y0877610D03*
X0668690Y0884310D03*
X0587440Y0831810D03*
X0587440Y0825110D03*
X0567440Y0822610D03*
X0567440Y0829310D03*
X0557440Y0829310D03*
X0557440Y0822610D03*
X0549940Y0822610D03*
X0549940Y0829310D03*
X0541190Y0829310D03*
X0541190Y0822610D03*
X0532440Y0822610D03*
X0532440Y0829310D03*
X0524940Y0829310D03*
X0524940Y0822610D03*
X0522440Y0837610D03*
X0522440Y0844310D03*
X0527440Y0857610D03*
X0527440Y0864310D03*
X0527440Y0885110D03*
X0527440Y0891810D03*
X0522440Y0902610D03*
X0522440Y0909310D03*
X0559090Y0942210D03*
X0565780Y0942210D03*
X0581590Y0953460D03*
X0588280Y0953460D03*
X0568280Y0793460D03*
X0561590Y0793460D03*
X0561590Y0780960D03*
X0568280Y0780960D03*
X0599090Y0780960D03*
X0605780Y0780960D03*
X0605780Y0788460D03*
X0599090Y0788460D03*
X0694940Y0790560D03*
X0694940Y0783860D03*
D84*
X0696590Y0753460D03*
X0703280Y0753460D03*
X0673280Y0749710D03*
X0666590Y0749710D03*
X0643280Y0763460D03*
X0636590Y0763460D03*
X0639090Y0788460D03*
X0645780Y0788460D03*
X0625780Y0833460D03*
X0625780Y0839710D03*
X0619090Y0839710D03*
X0619090Y0833460D03*
X0631590Y0870960D03*
X0638280Y0870960D03*
X0635780Y0895960D03*
X0629090Y0895960D03*
X0629090Y0917210D03*
X0635780Y0917210D03*
X0628280Y0925960D03*
X0621590Y0925960D03*
X0590780Y0935960D03*
X0584090Y0935960D03*
X0565780Y0935960D03*
X0559090Y0935960D03*
X0543280Y0933460D03*
X0536590Y0933460D03*
D58*
X0576530Y0793460D03*
X0588340Y0793460D03*
X0588340Y0780960D03*
X0576530Y0780960D03*
D21*
X0552440Y0778460D03*
X0552440Y0788460D03*
X0542440Y0788460D03*
X0542440Y0778460D03*
X0532440Y0778460D03*
X0532440Y0788460D03*
X0522440Y0788460D03*
X0512440Y0788460D03*
X0512440Y0778460D03*
X0522440Y0778460D03*
D19*
X0535240Y0849060D03*
X0535240Y0850960D03*
X0535240Y0852960D03*
X0535240Y0854960D03*
X0535240Y0856860D03*
X0535240Y0858860D03*
X0535240Y0860860D03*
X0535240Y0862760D03*
X0535240Y0864760D03*
X0535240Y0866760D03*
X0535240Y0868660D03*
X0535240Y0870660D03*
X0535240Y0872660D03*
X0535240Y0874560D03*
X0535240Y0876560D03*
X0535240Y0878560D03*
X0535240Y0880460D03*
X0535240Y0882460D03*
X0535240Y0884460D03*
X0535240Y0886460D03*
X0535240Y0888360D03*
X0535240Y0890360D03*
X0535240Y0892360D03*
X0535240Y0894260D03*
X0535240Y0896260D03*
X0535240Y0898260D03*
X0535240Y0900160D03*
X0535240Y0902160D03*
X0535240Y0904160D03*
X0535240Y0906060D03*
X0535240Y0908060D03*
X0535240Y0910060D03*
X0535240Y0911960D03*
X0535240Y0913960D03*
X0535240Y0915960D03*
X0535240Y0917860D03*
X0619640Y0917860D03*
X0619640Y0915960D03*
X0619640Y0913960D03*
X0619640Y0911960D03*
X0619640Y0910060D03*
X0619640Y0908060D03*
X0619640Y0906060D03*
X0619640Y0904160D03*
X0619640Y0902160D03*
X0619640Y0900160D03*
X0619640Y0898260D03*
X0619640Y0896260D03*
X0619640Y0894260D03*
X0619640Y0892360D03*
X0619640Y0890360D03*
X0619640Y0888360D03*
X0619640Y0886460D03*
X0619640Y0884460D03*
X0619640Y0882460D03*
X0619640Y0880460D03*
X0619640Y0878560D03*
X0619640Y0876560D03*
X0619640Y0874560D03*
X0619640Y0872660D03*
X0619640Y0870660D03*
X0619640Y0868660D03*
X0619640Y0866760D03*
X0619640Y0864760D03*
X0619640Y0862760D03*
X0619640Y0860860D03*
X0619640Y0858860D03*
X0619640Y0856860D03*
X0619640Y0854960D03*
X0619640Y0852960D03*
X0619640Y0850960D03*
X0619640Y0849060D03*
D52*
X0611840Y0841260D03*
X0609940Y0841260D03*
X0607940Y0841260D03*
X0605940Y0841260D03*
X0604040Y0841260D03*
X0602040Y0841260D03*
X0600040Y0841260D03*
X0598140Y0841260D03*
X0596140Y0841260D03*
X0594140Y0841260D03*
X0592240Y0841260D03*
X0590240Y0841260D03*
X0588240Y0841260D03*
X0586340Y0841260D03*
X0584340Y0841260D03*
X0582340Y0841260D03*
X0580440Y0841260D03*
X0578440Y0841260D03*
X0576440Y0841260D03*
X0574440Y0841260D03*
X0572540Y0841260D03*
X0570540Y0841260D03*
X0568540Y0841260D03*
X0566640Y0841260D03*
X0564640Y0841260D03*
X0562640Y0841260D03*
X0560740Y0841260D03*
X0558740Y0841260D03*
X0556740Y0841260D03*
X0554840Y0841260D03*
X0552840Y0841260D03*
X0550840Y0841260D03*
X0548940Y0841260D03*
X0546940Y0841260D03*
X0544940Y0841260D03*
X0543040Y0841260D03*
X0543040Y0925660D03*
X0544940Y0925660D03*
X0546940Y0925660D03*
X0548940Y0925660D03*
X0550840Y0925660D03*
X0552840Y0925660D03*
X0554840Y0925660D03*
X0556740Y0925660D03*
X0558740Y0925660D03*
X0560740Y0925660D03*
X0562640Y0925660D03*
X0564640Y0925660D03*
X0566640Y0925660D03*
X0568540Y0925660D03*
X0570540Y0925660D03*
X0572540Y0925660D03*
X0574440Y0925660D03*
X0576440Y0925660D03*
X0578440Y0925660D03*
X0580440Y0925660D03*
X0582340Y0925660D03*
X0584340Y0925660D03*
X0586340Y0925660D03*
X0588240Y0925660D03*
X0590240Y0925660D03*
X0592240Y0925660D03*
X0594140Y0925660D03*
X0596140Y0925660D03*
X0598140Y0925660D03*
X0600040Y0925660D03*
X0602040Y0925660D03*
X0604040Y0925660D03*
X0605940Y0925660D03*
X0607940Y0925660D03*
X0609940Y0925660D03*
X0611840Y0925660D03*
D18*
X0514940Y0892460D03*
X0514940Y0854460D03*
D15*
X0679140Y0853540D03*
X0679140Y0850390D03*
X0679140Y0856690D03*
X0679140Y0859840D03*
X0679140Y0862990D03*
X0679140Y0866140D03*
X0679140Y0869290D03*
X0679140Y0872440D03*
X0679140Y0875590D03*
X0679140Y0878740D03*
X0679140Y0881890D03*
X0679140Y0885030D03*
X0679140Y0888180D03*
X0679140Y0891330D03*
X0679140Y0894480D03*
X0679140Y0897630D03*
X0679140Y0900780D03*
X0679140Y0903930D03*
X0679140Y0907080D03*
X0679140Y0910230D03*
X0679140Y0913380D03*
X0679140Y0916530D03*
X0723230Y0916530D03*
X0723230Y0913380D03*
X0723230Y0910230D03*
X0723230Y0907080D03*
X0723230Y0903930D03*
X0723230Y0900780D03*
X0723230Y0897630D03*
X0723230Y0894480D03*
X0723230Y0891330D03*
X0723230Y0888180D03*
X0723230Y0885030D03*
X0723230Y0881890D03*
X0723230Y0878740D03*
X0723230Y0875590D03*
X0723230Y0872440D03*
X0723230Y0869290D03*
X0723230Y0866140D03*
X0723230Y0862990D03*
X0723230Y0859840D03*
X0723230Y0856690D03*
X0723230Y0853540D03*
X0723230Y0850390D03*
D56*
X0547340Y0762560D03*
X0547340Y0753560D03*
X0547340Y0744560D03*
D68*
X0522540Y0753460D03*
D60*
X0562440Y0754830D03*
X0562440Y0744590D03*
X0579940Y0744590D03*
X0579940Y0754830D03*
D34*
X0655160Y0755610D03*
X0655160Y0758160D03*
X0655160Y0760720D03*
X0655160Y0763280D03*
X0655160Y0765840D03*
X0655160Y0768400D03*
X0655160Y0770960D03*
X0655160Y0773520D03*
X0655160Y0776080D03*
X0655160Y0778640D03*
X0655160Y0781200D03*
X0655160Y0783760D03*
X0655160Y0786310D03*
X0655160Y0788870D03*
X0684710Y0788870D03*
X0684710Y0786310D03*
X0684710Y0783760D03*
X0684710Y0781200D03*
X0684710Y0778640D03*
X0684710Y0776080D03*
X0684710Y0773520D03*
X0684710Y0770960D03*
X0684710Y0768400D03*
X0684710Y0765840D03*
X0684710Y0763280D03*
X0684710Y0760720D03*
X0684710Y0758160D03*
X0684710Y0755610D03*
D22*
X0717440Y0753460D03*
X0717440Y0763460D03*
X0622440Y0763460D03*
X0602440Y0753460D03*
X0562440Y0763460D03*
D89*
X0572440Y0763460D03*
X0582440Y0763460D03*
X0602440Y0763460D03*
X0612440Y0763460D03*
X0612440Y0753460D03*
X0622440Y0753460D03*
X0727440Y0753460D03*
X0737440Y0753460D03*
X0737440Y0763460D03*
X0727440Y0763460D03*
D25*
X0705450Y0745960D03*
X0694430Y0745960D03*
X0652950Y0745960D03*
X0641930Y0745960D03*
D99*
X0704940Y0781700D03*
X0704940Y0792720D03*
D96*
X0512440Y0945960D03*
D55*
X0738250Y0956150D03*
X0738250Y0923270D03*
D94*
X0725950Y0930950D02*
X0721590Y0930950D01*
X0721590Y0948470D02*
X0725950Y0948470D01*
D31*
X0727230Y0944830D03*
X0727230Y0942270D03*
X0727230Y0939710D03*
X0727230Y0937150D03*
X0727230Y0934590D03*
D46*
X0738250Y0935180D03*
X0738250Y0944240D03*
X1213750Y0656500D02*
G75*
%LPD*%
D47*
X1250760Y0898220D03*
X1260610Y0898220D03*
X1270450Y0898220D03*
X1350760Y0898220D03*
X1360610Y0898220D03*
X1370450Y0898220D03*
X1450760Y0898220D03*
X1460610Y0898220D03*
X1470450Y0898220D03*
X1550760Y0898220D03*
X1560610Y0898220D03*
X1570450Y0898220D03*
D101*
X1578320Y0927750D03*
X1542890Y0927750D03*
X1478320Y0927750D03*
X1442890Y0927750D03*
X1378320Y0927750D03*
X1342890Y0927750D03*
X1278320Y0927750D03*
X1242890Y0927750D03*
D74*
X1304360Y0736500D03*
X1304360Y0746500D03*
X1314360Y0746500D03*
X1314360Y0756500D03*
X1314360Y0766500D03*
X1304360Y0766500D03*
X1304360Y0756500D03*
X1304360Y0776500D03*
X1304360Y0786500D03*
X1304360Y0826500D03*
X1304360Y0836500D03*
X1304360Y0846500D03*
X1304360Y0856500D03*
X1304360Y0866500D03*
X1304360Y0876500D03*
X1304360Y0906500D03*
X1304360Y0916500D03*
X1304360Y0926500D03*
X1304360Y0936500D03*
X1304360Y0946500D03*
X1406860Y0919000D03*
X1426860Y0919000D03*
X1451860Y0959000D03*
X1461860Y0959000D03*
X1494360Y0816500D03*
X1504360Y0816500D03*
X1494360Y0806500D03*
X1494360Y0796500D03*
X1494360Y0786500D03*
X1454360Y0736500D03*
X1444360Y0736500D03*
X1434360Y0736500D03*
X1424360Y0736500D03*
X1414360Y0736500D03*
X1404360Y0736500D03*
X1394360Y0736500D03*
X1384360Y0736500D03*
X1374360Y0736500D03*
X1364360Y0736500D03*
D87*
X1389360Y0919000D03*
X1389360Y0959000D03*
D22*
X1494360Y0961500D03*
X1504360Y0941500D03*
X1504360Y0826500D03*
X1494360Y0826500D03*
D89*
X1494360Y0836500D03*
X1504360Y0836500D03*
X1504360Y0846500D03*
X1494360Y0846500D03*
X1494360Y0941500D03*
X1494360Y0951500D03*
X1504360Y0951500D03*
X1504360Y0961500D03*
D43*
X1475610Y0882750D03*
X1475610Y0872750D03*
X1475610Y0862750D03*
X1475610Y0852750D03*
X1475610Y0842750D03*
X1445610Y0842750D03*
X1445610Y0852750D03*
X1445610Y0862750D03*
X1445610Y0872750D03*
X1445610Y0882750D03*
X1434360Y0829000D03*
X1434360Y0799000D03*
X1430610Y0787750D03*
X1440610Y0787750D03*
X1450610Y0787750D03*
X1450610Y0757750D03*
X1440610Y0757750D03*
X1430610Y0757750D03*
X1405610Y0762750D03*
X1395610Y0757750D03*
X1385610Y0757750D03*
X1375610Y0757750D03*
X1345610Y0762750D03*
X1335610Y0762750D03*
X1335610Y0782750D03*
X1345610Y0782750D03*
X1375610Y0787750D03*
X1385610Y0787750D03*
X1395610Y0787750D03*
X1405610Y0782750D03*
X1355610Y0827750D03*
X1355610Y0837750D03*
X1355610Y0847750D03*
X1325610Y0847750D03*
X1325610Y0837750D03*
X1325610Y0827750D03*
X1329360Y0902750D03*
X1320610Y0902750D03*
X1320610Y0932750D03*
X1329360Y0932750D03*
X1495610Y0775250D03*
X1500610Y0767750D03*
X1490610Y0767750D03*
X1495610Y0750250D03*
X1500610Y0742750D03*
X1490610Y0742750D03*
D45*
X1475610Y0802750D03*
X1450610Y0817750D03*
X1370610Y0802750D03*
X1340610Y0802750D03*
X1370610Y0832750D03*
X1370610Y0862750D03*
X1340610Y0862750D03*
D62*
X1340610Y0872750D03*
X1370610Y0872750D03*
X1370610Y0842750D03*
X1370610Y0812750D03*
X1340610Y0812750D03*
X1450610Y0827750D03*
X1475610Y0812750D03*
D13*
X1425610Y0862750D03*
X1425610Y0872750D03*
X1425610Y0882750D03*
X1425610Y0892750D03*
X1395610Y0892750D03*
X1395610Y0882750D03*
X1395610Y0872750D03*
X1395610Y0862750D03*
D10*
X1420610Y0795250D03*
X1420610Y0750250D03*
X1360610Y0750250D03*
X1360610Y0795250D03*
D40*
X1415610Y0932560D03*
X1434110Y0944370D03*
X1415610Y0956190D03*
D21*
X1464360Y0776500D03*
X1474360Y0776500D03*
X1474360Y0766500D03*
X1464360Y0766500D03*
X1464360Y0756500D03*
X1474360Y0756500D03*
X1474360Y0746500D03*
X1464360Y0746500D03*
X1464360Y0736500D03*
X1474360Y0736500D03*
D11*
X1551230Y0743380D03*
X1551230Y0727440D03*
X1575920Y0727440D03*
X1575610Y0743370D03*
X1600920Y0743370D03*
X1600920Y0727440D03*
X1600920Y0663370D03*
X1575610Y0663370D03*
X1551230Y0663380D03*
X1551230Y0807440D03*
X1551230Y0823380D03*
X1575610Y0823370D03*
X1575920Y0807440D03*
X1600920Y0807440D03*
X1600920Y0823370D03*
X1600920Y0887440D03*
X1575920Y0887440D03*
X1551230Y0887440D03*
X1269980Y0887120D03*
X1245610Y0887130D03*
X1220290Y0887130D03*
X1220290Y0823060D03*
X1220290Y0807130D03*
X1245610Y0807130D03*
X1245290Y0823060D03*
X1269980Y0823060D03*
X1269980Y0807120D03*
X1269980Y0743060D03*
X1245290Y0743060D03*
X1220290Y0743060D03*
D96*
X1314360Y0736500D03*
D55*
X1306180Y0962230D03*
X1339050Y0962230D03*
D94*
X1331370Y0949930D02*
X1331370Y0945560D01*
X1313850Y0945560D02*
X1313850Y0949930D01*
D13*
X1515610Y0780350D02*
X1515610Y0775150D01*
X1515610Y0740350D02*
X1515610Y0735150D01*
D14*
X1425610Y0807750D03*
X1395610Y0807750D03*
X1395610Y0847750D03*
X1425610Y0847750D03*
M02*
