<?xml version="1.0" encoding="UTF-8" standalone="no"?>
<svg
   xmlns:dc="http://purl.org/dc/elements/1.1/"
   xmlns:cc="http://creativecommons.org/ns#"
   xmlns:rdf="http://www.w3.org/1999/02/22-rdf-syntax-ns#"
   xmlns:svg="http://www.w3.org/2000/svg"
   xmlns="http://www.w3.org/2000/svg"
   xmlns:sodipodi="http://sodipodi.sourceforge.net/DTD/sodipodi-0.dtd"
   xmlns:inkscape="http://www.inkscape.org/namespaces/inkscape"
   version="1.1"
   width="210mm"
   height="297mm"
   viewBox="0 0 210 297"
   id="svg2"
   inkscape:version="0.48.4 r9939"
   sodipodi:docname="Prism.svg">
  <metadata
     id="metadata175">
    <rdf:RDF>
      <cc:Work
         rdf:about="">
        <dc:format>image/svg+xml</dc:format>
        <dc:type
           rdf:resource="http://purl.org/dc/dcmitype/StillImage" />
      </cc:Work>
    </rdf:RDF>
  </metadata>
  <sodipodi:namedview
     pagecolor="#ffffff"
     bordercolor="#666666"
     borderopacity="1"
     objecttolerance="10"
     gridtolerance="10"
     guidetolerance="10"
     inkscape:pageopacity="0"
     inkscape:pageshadow="2"
     inkscape:window-width="1280"
     inkscape:window-height="974"
     id="namedview173"
     showgrid="false"
     inkscape:zoom="1.2685914"
     inkscape:cx="11.805424"
     inkscape:cy="869.23378"
     inkscape:window-x="0"
     inkscape:window-y="0"
     inkscape:window-maximized="1"
     inkscape:current-layer="g53" />
  <defs
     id="defs4">
    <g
       id="potgrading">
      <path
         d="M 22.469177,65.29487 C 12.864593,59.897939 6.3758317,49.616792 6.3758317,37.815007 c 0,-17.395119 14.1022403,-31.4975588 31.4994303,-31.4975588 17.392315,0 31.496992,14.1012398 31.496992,31.4975588 0,11.809085 -6.498509,22.101133 -16.116497,27.493263"
         style="fill:none;stroke:#030303;stroke-width:0.41032487"
         id="path7" />
      <path
         d="m 28.906759,4.4567034 0.78974,2.9366707"
         style="fill:none;stroke:#030303;stroke-width:0.75"
         id="path9" />
      <path
         d="M 19.149856,5.4303268 22.099957,10.54465"
         style="fill:none;stroke:#030303;stroke-width:1.0"
         id="path11" />
      <path
         d="m 13.42878,13.404619 2.150735,2.149652"
         style="fill:none;stroke:#030303;stroke-width:0.75"
         id="path13" />
      <path
         d="m 5.5191934,19.159858 5.0557506,2.91857"
         style="fill:none;stroke:#030303;stroke-width:1.0"
         id="path15" />
      <path
         d="m 4.4968328,28.890192 2.9366973,0.786019"
         style="fill:none;stroke:#030303;stroke-width:0.75"
         id="path17" />
      <path
         d="m 0.49999997,37.829608 5.86364623,0"
         style="fill:none;stroke:#030303;stroke-width:1.0"
         id="path19" />
      <path
         d="M 4.5053627,46.769023 7.44206,45.980604"
         style="fill:none;stroke:#030303;stroke-width:0.75"
         id="path21" />
      <path
         d="M 5.5106636,56.509058 10.590785,53.578387"
         style="fill:none;stroke:#030303;stroke-width:1.0"
         id="path23" />
      <path
         d="m 13.451932,62.247196 2.145861,-2.149452"
         style="fill:none;stroke:#030303;stroke-width:0.75"
         id="path25" />
      <path
         d="m 19.291208,70.009583 2.834339,-4.907218"
         style="fill:none;stroke:#030303;stroke-width:1.0"
         id="path27" />
      <path
         d="m 56.484784,70.043684 -2.861026,-4.95962"
         style="fill:none;stroke:#030303;stroke-width:1.0"
         id="path29" />
      <path
         d="M 62.293717,62.224096 60.144201,60.079444"
         style="fill:none;stroke:#030303;stroke-width:0.75"
         id="path31" />
      <path
         d="m 70.111912,56.418856 -4.965577,-2.86977"
         style="fill:none;stroke:#030303;stroke-width:1.0"
         id="path33" />
      <path
         d="M 71.224445,46.738522 68.290307,45.951403"
         style="fill:none;stroke:#030303;stroke-width:0.75"
         id="path35" />
      <path
         d="m 75.037277,37.799107 -5.678427,0"
         style="fill:none;stroke:#030303;stroke-width:1.0"
         id="path37" />
      <path
         d="M 71.216037,28.859791 68.280436,29.64821"
         style="fill:none;stroke:#030303;stroke-width:0.75"
         id="path39" />
      <path
         d="m 70.076574,19.198959 -4.943643,2.855068"
         style="fill:none;stroke:#030303;stroke-width:1.0"
         id="path41" />
      <path
         d="M 62.27288,13.382718 60.124704,15.53107"
         style="fill:none;stroke:#030303;stroke-width:0.75"
         id="path43" />
      <path
         d="M 56.550707,5.4181265 53.598168,10.52765"
         style="fill:none;stroke:#030303;stroke-width:1.0"
         id="path45" />
      <path
         d="M 46.785274,4.4507032 45.999312,7.386174"
         style="fill:none;stroke:#030303;stroke-width:0.75"
         id="path47" />
      <path
         d="m 37.844676,0.500008 0,5.8162402"
         style="fill:none;stroke:#030303;stroke-width:1.0"
         id="path49" />
      <path
         d="m 69.475831,37.723605 c 0,17.397619 -14.103337,31.501159 -31.500648,31.501159 -17.397312,0 -31.500649,-14.10354 -31.500649,-31.501159 0,-17.397619 14.103337,-31.5012591 31.500649,-31.5012591 17.397311,0 31.500648,14.1036401 31.500648,31.5012591 z"
         style="fill:none"
         id="path51" />
    </g>
  </defs>
  <g
     style="fill:none;stroke-width:0.1;stroke:black"
     id="g53">
    <rect
       x="0.0"
       y="0.0"
       width="30.00"
       height="128.50"
       id="rect55" />
    <circle
       cx="7.5"
       cy="3"
       r="1.6"
       id="circle57" />
    <circle
       cx="7.5"
       cy="125.5"
       r="1.6"
       id="circle59" />
    <rect
       x="3.9300001"
       y="18.440001"
       width="22.139999"
       height="15.42"
       id="rect63"
       style="stroke-width:0.1" />
    <path
       d="m 18.81,42.99 c -2.6220187,0 -4.7546972,2.123364 -4.7546972,4.745368 0,2.143796 1.4261951,3.960351 3.3776012,4.54998 l 0,2.679746 2.642536,0 0,-2.651834 c 2.003484,-0.55658 3.479956,-2.397067 3.479956,-4.577892 0,-2.622004 -2.123369,-4.745368 -4.745396,-4.745368 z"
       style="fill:none;stroke:#000000;stroke-width:0.09990668;"
       inkscape:connector-curvature="0"
       id="path65" />
    <path
       d="m 11.19,62.04 c -2.6220187,0 -4.7546972,2.123364 -4.7546972,4.745368 0,2.143796 1.4261951,3.960351 3.3776012,4.54998 l 0,2.679746 2.642536,0 0,-2.651834 c 2.003484,-0.55658 3.479956,-2.397067 3.479956,-4.577892 0,-2.622004 -2.123369,-4.745368 -4.745396,-4.745368 z"
       style="fill:none;stroke:#000000;stroke-width:0.09990668;"
       inkscape:connector-curvature="0"
       id="path113" />
    <circle
       cx="8.65"
       cy="83.3"
       r="3.25"
       id="circle161" />
    <circle
       cx="21.35"
       cy="83.3"
       r="3.25"
       id="circle163" />
    <circle
       cx="8.65"
       cy="96"
       r="3.25"
       id="circle165" />
    <circle
       cx="21.35"
       cy="96"
       r="3.25"
       id="circle167" />
    <circle
       cx="8.65"
       cy="108.7"
       r="3.25"
       id="circle169" />
    <circle
       cx="21.35"
       cy="108.7"
       r="3.25"
       id="circle171" />
  </g>
</svg>
