<?xml version="1.0"?>
<svg xmlns="http://www.w3.org/2000/svg" xmlns:dc="http://purl.org/dc/elements/1.1/" xmlns:cc="http://creativecommons.org/ns#" xmlns:rdf="http://www.w3.org/1999/02/22-rdf-syntax-ns#" xmlns:xlink="http://www.w3.org/1999/xlink" xmlns:svg="http://www.w3.org/2000/svg" xmlns:sodipodi="http://sodipodi.sourceforge.net/DTD/sodipodi-0.dtd" xmlns:inkscape="http://www.inkscape.org/namespaces/inkscape" xmlns:exslt="http://exslt.org/common" version="1.1" width="210mm" height="297mm" viewBox="0 0 210 297">
  <sodipodi:namedview id="base" inkscape:document-units="mm" units="mm"/>
  <defs>
    <g id="potgrading"/>
  </defs>
  <g style="fill:none;stroke-width:0.05;stroke:#ff0000"><rect x="0.0" y="0.0" width="50.50" height="128.50"/><svg:circle cx="7.5" cy="3" r="1.6"/><svg:circle cx="7.5" cy="125.5" r="1.6"/><svg:circle cx="43.06" cy="3" r="1.6"/><svg:circle cx="43.06" cy="125.5" r="1.6"/>

  
  
  
  
  
  <rect x="6.724" y="13.217" width="37.052" height="19.516" style="fill:none;stroke:#ff0000"/>
  
  

  
  
  
  
  
  <circle cx="44.3" cy="45.2" r="3.25" style="fill:none;stroke:#ff0000"/>
  <circle cx="44.3" cy="57.9" r="3.25" style="fill:none;stroke:#ff0000"/>
  <circle cx="44.3" cy="70.6" r="3.25" style="fill:none;stroke:#ff0000"/>
  <circle cx="44.3" cy="83.3" r="3.25" style="fill:none;stroke:#ff0000"/>
  <circle cx="44.3" cy="96" r="3.25" style="fill:none;stroke:#ff0000"/>
  <circle cx="44.3" cy="108.7" r="3.25" style="fill:none;stroke:#ff0000"/>

  <circle cx="6.200000000000003" cy="45.2" r="3.25" style="fill:none;stroke:#ff0000"/>
  <circle cx="6.200000000000003" cy="57.9" r="3.25" style="fill:none;stroke:#ff0000"/>
  <circle cx="6.200000000000003" cy="70.6" r="3.25" style="fill:none;stroke:#ff0000"/>
  <circle cx="6.200000000000003" cy="83.3" r="3.25" style="fill:none;stroke:#ff0000"/>
  <circle cx="6.200000000000003" cy="96" r="3.25" style="fill:none;stroke:#ff0000"/>
  <circle cx="6.200000000000003" cy="108.7" r="3.25" style="fill:none;stroke:#ff0000"/>

  <circle cx="18.9" cy="85.84" r="3.25" style="fill:none;stroke:#ff0000"/>
  <circle cx="31.6" cy="85.84" r="3.25" style="fill:none;stroke:#ff0000"/>

  
  <circle cx="32.87" cy="59.17" r="2.55" style="fill:none;stroke:#ff0000"/>
  <circle cx="17.63" cy="59.17" r="2.55" style="fill:none;stroke:#ff0000"/>

  
  
  
  <circle cx="25.25" cy="47.74" r="3.75" style="fill:none;stroke:#ff0000"/>
  <circle cx="25.25" cy="70.6" r="3.75" style="fill:none;stroke:#ff0000"/>

  
  <rect x="19.25" y="92.532" width="12" height="11" style="fill:none;stroke:#ff0000"/>

  
  <rect x="17.875" y="107.74" width="14.75" height="7" style="fill:none;stroke:#ff0000"/>

</g>
</svg>
