<?xml version="1.0" encoding="UTF-8" standalone="no"?>
<!-- Created with Inkscape (http://www.inkscape.org/) -->

<svg
   xmlns:dc="http://purl.org/dc/elements/1.1/"
   xmlns:cc="http://creativecommons.org/ns#"
   xmlns:rdf="http://www.w3.org/1999/02/22-rdf-syntax-ns#"
   xmlns:svg="http://www.w3.org/2000/svg"
   xmlns="http://www.w3.org/2000/svg"
   xmlns:xlink="http://www.w3.org/1999/xlink"
   xmlns:sodipodi="http://sodipodi.sourceforge.net/DTD/sodipodi-0.dtd"
   xmlns:inkscape="http://www.inkscape.org/namespaces/inkscape"
   id="svg4373"
   version="1.1"
   inkscape:version="0.48.4 r9939"
   width="744.095"
   height="1052.3625"
   xml:space="preserve"
   sodipodi:docname="Mix04Labels.svg"><sodipodi:namedview
     pagecolor="#ffffff"
     bordercolor="#666666"
     borderopacity="1"
     objecttolerance="10"
     gridtolerance="10"
     guidetolerance="10"
     inkscape:pageopacity="0"
     inkscape:pageshadow="2"
     inkscape:window-width="1680"
     inkscape:window-height="1000"
     id="namedview4375"
     showgrid="false"
     inkscape:zoom="3.132674"
     inkscape:cx="167.63111"
     inkscape:cy="51.250714"
     inkscape:window-x="0"
     inkscape:window-y="0"
     inkscape:window-maximized="1"
     inkscape:current-layer="g4685"
     inkscape:document-units="mm"
     showguides="false"
     inkscape:guide-bbox="true" /><metadata
     id="metadata4379"><rdf:RDF><cc:Work
         rdf:about=""><dc:format>image/svg+xml</dc:format><dc:type
           rdf:resource="http://purl.org/dc/dcmitype/StillImage" /><dc:title /></cc:Work></rdf:RDF></metadata><defs
     id="defs4377"><clipPath
       id="clipPath4387"
       clipPathUnits="userSpaceOnUse"><path
         id="path4389"
         d="m 0,0 595.276,0 0,841.89 L 0,841.89 0,0 z" /></clipPath><clipPath
       id="clipPath4421"
       clipPathUnits="userSpaceOnUse"><path
         id="path4423"
         d="m 0,0 595.276,0 0,841.89 L 0,841.89 0,0 z" /></clipPath><clipPath
       id="clipPath4443"
       clipPathUnits="userSpaceOnUse"><path
         id="path4445"
         d="m 0,0 595.276,0 0,841.89 L 0,841.89 0,0 z" /></clipPath><clipPath
       id="clipPath7941"
       clipPathUnits="userSpaceOnUse"><path
         id="path7943"
         d="m 0,0 595.276,0 0,841.89 L 0,841.89 0,0 z"
         inkscape:connector-curvature="0" /></clipPath><clipPath
       id="clipPath7975"
       clipPathUnits="userSpaceOnUse"><path
         id="path7977"
         d="m 0,0 595.276,0 0,841.89 L 0,841.89 0,0 z"
         inkscape:connector-curvature="0" /></clipPath><clipPath
       id="clipPath7997"
       clipPathUnits="userSpaceOnUse"><path
         id="path7999"
         d="m 0,0 595.276,0 0,841.89 L 0,841.89 0,0 z"
         inkscape:connector-curvature="0" /></clipPath></defs><g
     transform="matrix(1.25,0,0,-1.25,0,1052.3625)"
     inkscape:label="Label Planet LP21 70 Portrait"
     inkscape:groupmode="layer"
     id="g4381"><g
       inkscape:tile-y0="912.55037"
       inkscape:tile-x0="22.281616"
       inkscape:tile-h="129.62935"
       inkscape:tile-w="203.15552"
       inkscape:tile-cy="977.36505"
       inkscape:tile-cx="123.85937"
       transform="matrix(1.0000045,0,0,1,0.22200192,-721.66836)"
       id="g4685"><g
         transform="matrix(0.68631727,0,0,-0.68631727,-31.837369,883.75758)"
         style="font-size:40px;font-style:normal;font-variant:normal;font-weight:normal;font-stretch:normal;text-align:start;line-height:125%;letter-spacing:0px;word-spacing:0px;writing-mode:lr-tb;text-anchor:start;fill:#000000;fill-opacity:1;stroke:none;font-family:More than human;-inkscape-font-specification:More than human"
         id="flowRoot2985"><path
           inkscape:connector-curvature="0"
           d="m 79.5375,81.455617 -2.55,0 0,9.21 2.55,-1.29 0,-7.92 m 1.2,-1.2 0,9.87 -4.95,2.49 0,-12.36 4.95,0 m -7.5,19.920003 -0.63,5.76 -0.57,-5.76 0,-23.670003 12.45,0 0,15.93 -2.97,1.5 2.97,1.56 0,4.680003 -0.63,5.76 -0.57,-5.76 0,-3.960003 -4.38,-2.31 4.38,-2.19 0,-14.01 -10.05,0 0,22.470003 m 3.75,0 -0.63,5.76 -0.57,-5.76 0,-4.890003 4.95,2.58 0,2.310003 -0.63,5.76 -0.57,-5.76 0,-1.590003 -2.52,-1.32 0,2.910003 -0.03,0"
           style="font-size:30px;line-height:125%;font-family:More than human;-inkscape-font-specification:More than human"
           id="path3134" /><path
           inkscape:connector-curvature="0"
           d="m 100.13203,102.57562 -0.629999,5.76 -0.57,-5.76 0,-6.120003 -7.5,0 0,-4.98 7.5,0 0,-2.52 -7.5,0 0,-8.73 4.95,0 0,3.75 2.55,0 0,-6.27 -10.05,0 0,23.070003 -0.63,5.76 -0.57,-5.76 0,-24.270003 12.449999,0 0,8.67 -4.949999,0 0,-3.75 -2.55,0 0,6.33 7.499999,0 0,4.92 -7.499999,0 0,2.58 7.499999,0 0,7.320003"
           style="font-size:30px;line-height:125%;font-family:More than human;-inkscape-font-specification:More than human"
           id="path3136" /><path
           inkscape:connector-curvature="0"
           d="m 110.70937,81.455617 -2.55,0 0,5.46 2.55,-1.29 0,-4.17 m 1.2,-1.2 0,6.12 -4.95,2.49 0,-8.61 4.95,0 m -1.2,14.55 -2.55,-1.29 0,1.71 2.55,0 0,-0.42 m 1.2,-0.75 0,2.37 -4.95,0 0,-4.86 4.95,2.49 m 3.75,5.82 -0.62999,5.760003 -0.57001,-5.760003 0,-7.41 -4.37999,-2.31 4.37999,-2.19 0,-10.26 -10.05,0 0,24.570003 -0.62999,5.76 -0.57001,-5.76 0,-25.770003 12.45,0 0,12.18 -2.97,1.5 2.97,1.56 0,8.13"
           style="font-size:30px;line-height:125%;font-family:More than human;-inkscape-font-specification:More than human"
           id="path3139" /><path
           inkscape:connector-curvature="0"
           d="m 131.30391,102.57562 -0.63,5.76 -0.57,-5.76 0,-6.120003 -7.5,0 0,-4.98 7.5,0 0,-2.52 -7.5,0 0,-8.73 4.95,0 0,3.75 2.55,0 0,-6.27 -10.05,0 0,23.070003 -0.63,5.76 -0.57,-5.76 0,-24.270003 12.45,0 0,8.67 -4.95,0 0,-3.75 -2.55,0 0,6.33 7.5,0 0,4.92 -7.5,0 0,2.58 7.5,0 0,7.320003"
           style="font-size:30px;line-height:125%;font-family:More than human;-inkscape-font-specification:More than human"
           id="path3141" /><path
           inkscape:connector-curvature="0"
           d="m 143.08125,99.575617 -0.63,5.760003 -0.57,-5.760003 0,-3.12 -3.75,0 0,-18.75 -2.55,0 0,24.570003 -0.63,5.76 -0.57,-5.76 0,-25.770003 4.95,0 0,18.75 3.75,0 0,4.32"
           style="font-size:30px;line-height:125%;font-family:More than human;-inkscape-font-specification:More than human"
           id="path3143" /><path
           inkscape:connector-curvature="0"
           d="m 169.38984,100.17562 -0.63,5.76 -0.57,-5.76 0,-19.950003 3.75,0 0,-2.52 -10.05,0 0,2.52 3.75,0 0,19.950003 -0.63,5.76 -0.57,-5.76 0,-18.750003 -3.75,0 0,-4.92 12.45,0 0,4.92 -3.75,0 0,18.750003"
           style="font-size:30px;line-height:125%;font-family:More than human;-inkscape-font-specification:More than human"
           id="path3145" /><path
           inkscape:connector-curvature="0"
           d="m 188.37422,102.57562 -0.63,5.76 -0.57,-5.76 0,-6.120003 -7.5,0 0,-4.98 7.5,0 0,-2.52 -7.5,0 0,-8.73 4.95,0 0,3.75 2.55,0 0,-6.27 -10.05,0 0,23.070003 -0.63,5.76 -0.57,-5.76 0,-24.270003 12.45,0 0,8.67 -4.95,0 0,-3.75 -2.55,0 0,6.33 7.5,0 0,4.92 -7.5,0 0,2.58 7.5,0 0,7.320003"
           style="font-size:30px;line-height:125%;font-family:More than human;-inkscape-font-specification:More than human"
           id="path3147" /><path
           inkscape:connector-curvature="0"
           d="m 203.90156,102.27562 -0.63,5.76 -0.57,-5.76 0,-9.570003 -2.55,0 0,3.75 -4.95,0 0,-16.23 4.95,0 0,3.75 2.55,0 0,-6.27 -10.05,0 0,22.17 -0.63,5.760003 -0.57,-5.760003 0,-23.37 12.45,0 0,8.67 -4.95,0 0,-3.75 -2.55,0 0,13.83 2.55,0 0,-3.75 4.95,0 0,10.770003"
           style="font-size:30px;line-height:125%;font-family:More than human;-inkscape-font-specification:More than human"
           id="path3149" /><path
           inkscape:connector-curvature="0"
           d="m 219.37031,100.77562 -0.63,5.76 -0.57,-5.76 0,-23.070003 -2.55,0 0,15 -4.95,0 0,-15 -2.55,0 0,22.17 -0.63,5.760003 -0.57,-5.760003 0,-23.37 4.95,0 0,15 2.55,0 0,-15 4.95,0 0,24.270003 m -3.75,-1.500003 -0.63,5.760003 -0.57,-5.760003 0,-2.85 -2.55,0 0,7.050003 -0.63,5.76 -0.57,-5.76 0,-8.250003 4.95,0 0,4.05"
           style="font-size:30px;line-height:125%;font-family:More than human;-inkscape-font-specification:More than human"
           id="path3151" /><path
           inkscape:connector-curvature="0"
           d="m 231.44484,100.17562 -0.63,5.76 -0.57,-5.76 -2.7,-7.890003 0,7.29 -0.63,5.760003 -0.57,-5.760003 -0.03,0 0.03,-14.43 5.1,15.030003 m 3.57,0.9 -0.63,5.76 -0.57,-5.76 0,-23.370003 -2.58,0 0,13.83 -4.77,-13.83 -2.7,0 0,25.770003 -0.63,5.76 -0.57,-5.76 0,-26.970003 4.77,0 2.7,7.89 0,-7.89 4.98,0 0,24.570003"
           style="font-size:30px;line-height:125%;font-family:More than human;-inkscape-font-specification:More than human"
           id="path3153" /><path
           inkscape:connector-curvature="0"
           d="m 245.70937,81.455617 -2.55,0 0,13.77 2.55,0 0,-13.77 m 1.2,-1.2 0,16.17 -4.95,0 0,-16.17 4.95,0 m 3.75,19.62 -0.63,5.760003 -0.57,-5.760003 0,-22.17 -10.05,0 0,25.470003 -0.63,5.76 -0.57,-5.76 0,-26.670003 12.45,0 0,23.37"
           style="font-size:30px;line-height:125%;font-family:More than human;-inkscape-font-specification:More than human"
           id="path3155" /><path
           inkscape:connector-curvature="0"
           d="m 262.55391,99.575617 -0.63,5.760003 -0.57,-5.760003 0,-3.12 -3.75,0 0,-18.75 -2.55,0 0,24.570003 -0.63,5.76 -0.57,-5.76 0,-25.770003 4.95,0 0,18.75 3.75,0 0,4.32"
           style="font-size:30px;line-height:125%;font-family:More than human;-inkscape-font-specification:More than human"
           id="path3157" /><path
           inkscape:connector-curvature="0"
           d="m 272.6625,81.455617 -2.55,0 0,13.77 2.55,0 0,-13.77 m 1.2,-1.2 0,16.17 -4.95,0 0,-16.17 4.95,0 m 3.75,19.62 -0.63,5.760003 -0.57,-5.760003 0,-22.17 -10.05,0 0,25.470003 -0.63,5.76 -0.57,-5.76 0,-26.670003 12.45,0 0,23.37"
           style="font-size:30px;line-height:125%;font-family:More than human;-inkscape-font-specification:More than human"
           id="path3159" /><path
           inkscape:connector-curvature="0"
           d="m 293.25703,101.97562 -0.63,5.76 -0.57,-5.76 0,-13.020003 -2.55,0 0,7.5 -4.95,0 0,-16.23 4.95,0 0,3.75 2.55,0 0,-6.27 -10.05,0 0,21.87 -0.63,5.760003 -0.57,-5.760003 0,-23.07 12.45,0 0,8.67 -4.95,0 0,-3.75 -2.55,0 0,13.83 2.55,0 0,-7.5 4.95,0 0,14.220003"
           style="font-size:30px;line-height:125%;font-family:More than human;-inkscape-font-specification:More than human"
           id="path3161" /><path
           inkscape:connector-curvature="0"
           d="m 308.84297,99.575617 -0.63,5.760003 -0.57,-5.760003 0,-21.87 -2.55,0 0,11.25 -4.95,0 0,-11.25 -2.55,0 0,13.77 7.5,0 0,4.98 -7.5,0 0,7.320003 -0.63,5.76 -0.57,-5.76 0,-8.520003 7.5,0 0,-2.58 -7.5,0 0,-16.17 4.95,0 0,11.25 2.55,0 0,-11.25 4.95,0 0,23.07"
           style="font-size:30px;line-height:125%;font-family:More than human;-inkscape-font-specification:More than human"
           id="path3163" /></g><g
         transform="matrix(0.68631727,0,0,-0.68631727,5.38946,925.0153)"
         style="font-size:12px;font-style:normal;font-variant:normal;font-weight:normal;font-stretch:normal;text-align:start;line-height:125%;letter-spacing:0px;word-spacing:0px;writing-mode:lr-tb;text-anchor:start;fill:#000000;fill-opacity:1;stroke:none;font-family:Sans;-inkscape-font-specification:Sans"
         id="flowRoot3001"><path
           inkscape:connector-curvature="0"
           d="m 23.72145,250.23669 c 0.21159,0.0716 0.41666,0.22462 0.61524,0.45899 0.20181,0.23437 0.40364,0.55664 0.60547,0.96679 l 1.00097,1.99219 -1.05957,0 -0.93261,-1.87012 c -0.24089,-0.48827 -0.47527,-0.81217 -0.70313,-0.97168 -0.22461,-0.1595 -0.53223,-0.23925 -0.92285,-0.23925 l -1.07422,0 0,3.08105 -0.98633,0 0,-7.29004 2.22656,0 c 0.83333,1e-5 1.45508,0.17416 1.86524,0.52246 0.41015,0.34832 0.61523,0.87403 0.61523,1.57715 0,0.45899 -0.10742,0.83985 -0.32226,1.14258 -0.2116,0.30274 -0.52084,0.5127 -0.92774,0.62988 m -2.4707,-3.06152 0,2.58789 1.24023,0 c 0.47526,0 0.83333,-0.10905 1.07422,-0.32715 0.24414,-0.22135 0.36621,-0.54524 0.36621,-0.97168 0,-0.42642 -0.12207,-0.74706 -0.36621,-0.96191 -0.24089,-0.21809 -0.59896,-0.32714 -1.07422,-0.32715 l -1.24023,0"
           style="font-size:10px;line-height:125%;font-family:Sans;-inkscape-font-specification:Sans"
           id="path3213" /><path
           inkscape:connector-curvature="0"
           d="m 31.407,250.69568 0,0.43945 -4.13086,0 c 0.0391,0.61849 0.22461,1.0905 0.55664,1.41602 0.33529,0.32226 0.80078,0.4834 1.39649,0.48339 0.34504,1e-5 0.6787,-0.0423 1.00097,-0.12695 0.32552,-0.0846 0.64778,-0.21159 0.9668,-0.38086 l 0,0.84961 c -0.32227,0.13672 -0.65268,0.24089 -0.99121,0.3125 -0.33855,0.0716 -0.68197,0.10742 -1.03028,0.10742 -0.87239,0 -1.56413,-0.2539 -2.07519,-0.76172 -0.50781,-0.50781 -0.76172,-1.19466 -0.76172,-2.06054 0,-0.89518 0.24088,-1.60482 0.72266,-2.12891 0.48502,-0.52734 1.13769,-0.79101 1.958,-0.79101 0.73568,0 1.31673,0.23763 1.74317,0.71289 0.42968,0.47201 0.64452,1.11491 0.64453,1.92871 m -0.89844,-0.26367 c -0.007,-0.49154 -0.14486,-0.88379 -0.41504,-1.17676 -0.26693,-0.29297 -0.62175,-0.43945 -1.06445,-0.43946 -0.5013,1e-5 -0.90332,0.14161 -1.20605,0.42481 -0.29949,0.28321 -0.47201,0.68197 -0.51758,1.19629 l 3.20312,-0.005"
           style="font-size:10px;line-height:125%;font-family:Sans;-inkscape-font-specification:Sans"
           id="path3215" /><path
           inkscape:connector-curvature="0"
           d="m 36.80739,250.92517 c 0,-0.6608 -0.13672,-1.17838 -0.41016,-1.55273 -0.27018,-0.3776 -0.6429,-0.56641 -1.11816,-0.56641 -0.47526,0 -0.84961,0.18881 -1.12305,0.56641 -0.27018,0.37435 -0.40527,0.89193 -0.40527,1.55273 0,0.66081 0.13509,1.18001 0.40527,1.55762 0.27344,0.37435 0.64779,0.56152 1.12305,0.56152 0.47526,0 0.84798,-0.18717 1.11816,-0.56152 0.27344,-0.37761 0.41016,-0.89681 0.41016,-1.55762 m -3.05664,-1.90918 c 0.1888,-0.32552 0.42643,-0.5664 0.71289,-0.72266 0.28971,-0.1595 0.63476,-0.23925 1.03516,-0.23925 0.66405,0 1.20279,0.26367 1.61621,0.79101 0.41666,0.52735 0.62499,1.22071 0.625,2.08008 -10e-6,0.85938 -0.20834,1.55273 -0.625,2.08008 -0.41342,0.52734 -0.95216,0.79101 -1.61621,0.79101 -0.4004,0 -0.74545,-0.0781 -1.03516,-0.23437 -0.28646,-0.15951 -0.52409,-0.40202 -0.71289,-0.72754 l 0,0.82031 -0.90332,0 0,-7.59765 0.90332,0 0,2.95898"
           style="font-size:10px;line-height:125%;font-family:Sans;-inkscape-font-specification:Sans"
           id="path3217" /><path
           inkscape:connector-curvature="0"
           d="m 43.907,250.69568 0,0.43945 -4.13086,0 c 0.0391,0.61849 0.22461,1.0905 0.55664,1.41602 0.33529,0.32226 0.80078,0.4834 1.39649,0.48339 0.34504,1e-5 0.6787,-0.0423 1.00097,-0.12695 0.32552,-0.0846 0.64778,-0.21159 0.9668,-0.38086 l 0,0.84961 c -0.32227,0.13672 -0.65268,0.24089 -0.99121,0.3125 -0.33855,0.0716 -0.68197,0.10742 -1.03028,0.10742 -0.87239,0 -1.56413,-0.2539 -2.07519,-0.76172 -0.50781,-0.50781 -0.76172,-1.19466 -0.76172,-2.06054 0,-0.89518 0.24088,-1.60482 0.72266,-2.12891 0.48502,-0.52734 1.13769,-0.79101 1.958,-0.79101 0.73568,0 1.31673,0.23763 1.74317,0.71289 0.42968,0.47201 0.64452,1.11491 0.64453,1.92871 m -0.89844,-0.26367 c -0.007,-0.49154 -0.14486,-0.88379 -0.41504,-1.17676 -0.26693,-0.29297 -0.62175,-0.43945 -1.06445,-0.43946 -0.5013,1e-5 -0.90332,0.14161 -1.20605,0.42481 -0.29949,0.28321 -0.47201,0.68197 -0.51758,1.19629 l 3.20312,-0.005"
           style="font-size:10px;line-height:125%;font-family:Sans;-inkscape-font-specification:Sans"
           id="path3219" /><path
           inkscape:connector-curvature="0"
           d="m 45.38161,246.05701 0.89844,0 0,7.59765 -0.89844,0 0,-7.59765"
           style="font-size:10px;line-height:125%;font-family:Sans;-inkscape-font-specification:Sans"
           id="path3221" /><path
           inkscape:connector-curvature="0"
           d="m 50.36696,246.36462 6.16699,0 0,0.83008 -2.58789,0 0,6.45996 -0.99121,0 0,-6.45996 -2.58789,0 0,-0.83008"
           style="font-size:10px;line-height:125%;font-family:Sans;-inkscape-font-specification:Sans"
           id="path3223" /><path
           inkscape:connector-curvature="0"
           d="m 60.43044,250.69568 0,0.43945 -4.13086,0 c 0.0391,0.61849 0.22461,1.0905 0.55664,1.41602 0.33528,0.32226 0.80078,0.4834 1.39648,0.48339 0.34505,1e-5 0.67871,-0.0423 1.00098,-0.12695 0.32552,-0.0846 0.64778,-0.21159 0.9668,-0.38086 l 0,0.84961 c -0.32227,0.13672 -0.65268,0.24089 -0.99121,0.3125 -0.33855,0.0716 -0.68197,0.10742 -1.03028,0.10742 -0.8724,0 -1.56413,-0.2539 -2.07519,-0.76172 -0.50782,-0.50781 -0.76172,-1.19466 -0.76172,-2.06054 0,-0.89518 0.24088,-1.60482 0.72265,-2.12891 0.48503,-0.52734 1.1377,-0.79101 1.95801,-0.79101 0.73567,0 1.31673,0.23763 1.74317,0.71289 0.42968,0.47201 0.64452,1.11491 0.64453,1.92871 M 59.532,250.43201 c -0.007,-0.49154 -0.14486,-0.88379 -0.41504,-1.17676 -0.26693,-0.29297 -0.62175,-0.43945 -1.06445,-0.43946 -0.50131,1e-5 -0.90333,0.14161 -1.20606,0.42481 -0.29948,0.28321 -0.472,0.68197 -0.51758,1.19629 l 3.20313,-0.005"
           style="font-size:10px;line-height:125%;font-family:Sans;-inkscape-font-specification:Sans"
           id="path3225" /><path
           inkscape:connector-curvature="0"
           d="m 65.84059,248.39587 0,0.83985 c -0.25391,-0.13997 -0.50944,-0.24414 -0.7666,-0.3125 -0.25391,-0.0716 -0.51107,-0.10742 -0.77148,-0.10743 -0.58269,1e-5 -1.03516,0.18556 -1.35742,0.55665 -0.32227,0.36784 -0.4834,0.88542 -0.4834,1.55273 0,0.66732 0.16113,1.18652 0.4834,1.55762 0.32226,0.36784 0.77473,0.55176 1.35742,0.55175 0.26041,1e-5 0.51757,-0.0342 0.77148,-0.10253 0.25716,-0.0716 0.51269,-0.17741 0.7666,-0.31739 l 0,0.83008 c -0.25065,0.11719 -0.51107,0.20508 -0.78125,0.26367 -0.26693,0.0586 -0.55176,0.0879 -0.85449,0.0879 -0.82357,0 -1.47787,-0.25879 -1.96289,-0.77636 -0.48503,-0.51758 -0.72754,-1.21582 -0.72754,-2.09473 0,-0.89192 0.24414,-1.59342 0.73242,-2.10449 0.49154,-0.51107 1.16374,-0.7666 2.0166,-0.7666 0.27669,0 0.54688,0.0293 0.81055,0.0879 0.26367,0.0553 0.5192,0.13998 0.7666,0.2539"
           style="font-size:10px;line-height:125%;font-family:Sans;-inkscape-font-specification:Sans"
           id="path3227" /><path
           inkscape:connector-curvature="0"
           d="m 71.95876,250.35388 0,3.30078 -0.89844,0 0,-3.27148 c 0,-0.51758 -0.10092,-0.90495 -0.30273,-1.16211 -0.20183,-0.25716 -0.50457,-0.38574 -0.90821,-0.38574 -0.48503,0 -0.86751,0.15462 -1.14746,0.46386 -0.27995,0.30925 -0.41992,0.7308 -0.41992,1.26465 l 0,3.09082 -0.90332,0 0,-7.59765 0.90332,0 0,2.97851 c 0.21484,-0.32877 0.46712,-0.57454 0.75684,-0.7373 0.29296,-0.16276 0.62988,-0.24414 1.01074,-0.24414 0.62825,0 1.10351,0.19531 1.42578,0.58593 0.32226,0.38738 0.48339,0.95867 0.4834,1.71387"
           style="font-size:10px;line-height:125%;font-family:Sans;-inkscape-font-specification:Sans"
           id="path3229" /><path
           inkscape:connector-curvature="0"
           d="m 78.30641,250.35388 0,3.30078 -0.89843,0 0,-3.27148 c -10e-6,-0.51758 -0.10092,-0.90495 -0.30274,-1.16211 -0.20183,-0.25716 -0.50456,-0.38574 -0.9082,-0.38574 -0.48503,0 -0.86752,0.15462 -1.14746,0.46386 -0.27995,0.30925 -0.41993,0.7308 -0.41992,1.26465 l 0,3.09082 -0.90332,0 0,-5.46875 0.90332,0 0,0.84961 c 0.21484,-0.32877 0.46712,-0.57454 0.75683,-0.7373 0.29297,-0.16276 0.62988,-0.24414 1.01074,-0.24414 0.62826,0 1.10352,0.19531 1.42579,0.58593 0.32226,0.38738 0.48339,0.95867 0.48339,1.71387"
           style="font-size:10px;line-height:125%;font-family:Sans;-inkscape-font-specification:Sans"
           id="path3231" /><path
           inkscape:connector-curvature="0"
           d="m 82.22731,248.81579 c -0.48177,1e-5 -0.86263,0.18881 -1.14258,0.56641 -0.27995,0.37435 -0.41992,0.88868 -0.41992,1.54297 0,0.6543 0.13835,1.17025 0.41504,1.54785 0.27995,0.37435 0.66243,0.56153 1.14746,0.56152 0.47851,1e-5 0.85775,-0.1888 1.1377,-0.5664 0.27994,-0.3776 0.41991,-0.89193 0.41992,-1.54297 -1e-5,-0.64778 -0.13998,-1.16048 -0.41992,-1.53809 -0.27995,-0.38085 -0.65919,-0.57128 -1.1377,-0.57129 m 0,-0.76171 c 0.78125,0 1.39485,0.25391 1.84082,0.76171 0.44596,0.50782 0.66894,1.21095 0.66895,2.10938 -1e-5,0.89518 -0.22299,1.59831 -0.66895,2.10937 -0.44597,0.50782 -1.05957,0.76172 -1.84082,0.76172 -0.78451,0 -1.39974,-0.2539 -1.8457,-0.76172 -0.44271,-0.51106 -0.66406,-1.21419 -0.66406,-2.10937 0,-0.89843 0.22135,-1.60156 0.66406,-2.10938 0.44596,-0.5078 1.06119,-0.76171 1.8457,-0.76171"
           style="font-size:10px;line-height:125%;font-family:Sans;-inkscape-font-specification:Sans"
           id="path3233" /><path
           inkscape:connector-curvature="0"
           d="m 86.22145,246.05701 0.89844,0 0,7.59765 -0.89844,0 0,-7.59765"
           style="font-size:10px;line-height:125%;font-family:Sans;-inkscape-font-specification:Sans"
           id="path3235" /><path
           inkscape:connector-curvature="0"
           d="m 91.11403,248.81579 c -0.48177,1e-5 -0.86263,0.18881 -1.14258,0.56641 -0.27995,0.37435 -0.41992,0.88868 -0.41992,1.54297 0,0.6543 0.13835,1.17025 0.41504,1.54785 0.27995,0.37435 0.66243,0.56153 1.14746,0.56152 0.47851,1e-5 0.85774,-0.1888 1.1377,-0.5664 0.27994,-0.3776 0.41991,-0.89193 0.41992,-1.54297 -1e-5,-0.64778 -0.13998,-1.16048 -0.41992,-1.53809 -0.27996,-0.38085 -0.65919,-0.57128 -1.1377,-0.57129 m 0,-0.76171 c 0.78125,0 1.39485,0.25391 1.84082,0.76171 0.44596,0.50782 0.66894,1.21095 0.66895,2.10938 -1e-5,0.89518 -0.22299,1.59831 -0.66895,2.10937 -0.44597,0.50782 -1.05957,0.76172 -1.84082,0.76172 -0.78451,0 -1.39974,-0.2539 -1.8457,-0.76172 -0.44271,-0.51106 -0.66407,-1.21419 -0.66406,-2.10937 -1e-5,-0.89843 0.22135,-1.60156 0.66406,-2.10938 0.44596,-0.5078 1.06119,-0.76171 1.8457,-0.76171"
           style="font-size:10px;line-height:125%;font-family:Sans;-inkscape-font-specification:Sans"
           id="path3237" /><path
           inkscape:connector-curvature="0"
           d="m 98.7068,250.85681 c 0,-0.65104 -0.13509,-1.15559 -0.40527,-1.51367 -0.26693,-0.35807 -0.64291,-0.53711 -1.12793,-0.53711 -0.48177,0 -0.85775,0.17904 -1.12793,0.53711 -0.26693,0.35808 -0.40039,0.86263 -0.40039,1.51367 0,0.64779 0.13346,1.15072 0.40039,1.50879 0.27018,0.35807 0.64616,0.53711 1.12793,0.53711 0.48502,0 0.861,-0.17904 1.12793,-0.53711 0.27018,-0.35807 0.40527,-0.861 0.40527,-1.50879 m 0.89844,2.11914 c 0,0.93099 -0.20671,1.62272 -0.62012,2.0752 -0.41341,0.45572 -1.04655,0.68359 -1.89941,0.68359 -0.31576,0 -0.61361,-0.0244 -0.89355,-0.0732 -0.27995,-0.0456 -0.55176,-0.11719 -0.81543,-0.21485 l 0,-0.87402 c 0.26367,0.14323 0.52408,0.24902 0.78125,0.31738 0.25716,0.0684 0.5192,0.10254 0.78613,0.10254 0.58919,0 1.03027,-0.15462 1.32324,-0.46386 0.29297,-0.306 0.43945,-0.76986 0.43945,-1.39161 l 0,-0.44433 c -0.18555,0.32226 -0.42318,0.56315 -0.71289,0.72265 -0.28971,0.15951 -0.63639,0.23926 -1.04004,0.23926 -0.67057,0 -1.21093,-0.25553 -1.62109,-0.7666 -0.41016,-0.51107 -0.61523,-1.18815 -0.61523,-2.03125 0,-0.84635 0.20507,-1.52506 0.61523,-2.03613 0.41016,-0.51107 0.95052,-0.7666 1.62109,-0.7666 0.40365,0 0.75033,0.0797 1.04004,0.23925 0.28971,0.15951 0.52734,0.4004 0.71289,0.72266 l 0,-0.83008 0.89844,0 0,4.79004"
           style="font-size:10px;line-height:125%;font-family:Sans;-inkscape-font-specification:Sans"
           id="path3239" /><path
           inkscape:connector-curvature="0"
           d="m 103.73122,254.16247 c -0.25391,0.65104 -0.50131,1.07585 -0.74219,1.27442 -0.24089,0.19856 -0.56315,0.29785 -0.9668,0.29785 l -0.71777,0 0,-0.75195 0.52734,0 c 0.2474,0 0.43946,-0.0586 0.57618,-0.17578 0.13671,-0.11719 0.28808,-0.39389 0.4541,-0.83008 l 0.16113,-0.41016 -2.21191,-5.38086 0.95214,0 1.70899,4.27735 1.70898,-4.27735 0.95215,0 -2.40234,5.97656"
           style="font-size:10px;line-height:125%;font-family:Sans;-inkscape-font-specification:Sans"
           id="path3241" /><text
           sodipodi:linespacing="125%"
           id="text6700"
           y="269.83456"
           x="19.715643"
           style="font-size:9.94596863px;font-style:normal;font-weight:normal;line-height:125%;letter-spacing:0px;word-spacing:0px;fill:#000000;fill-opacity:1;stroke:none;font-family:Sans"
           xml:space="preserve"><tspan
             y="269.83456"
             x="19.715643"
             id="tspan6702"
             sodipodi:role="line">mix-04</tspan></text>
<g
           style="fill:#000000"
           id="barcode0"
           transform="translate(-2.4481161,-743.01695)"><rect
             id="barcode0_bar1"
             height="30"
             width="1"
             y="985"
             x="160" /><rect
             id="barcode0_bar3"
             height="30"
             width="1"
             y="985"
             x="162" /><rect
             id="barcode0_bar5"
             height="25"
             width="2"
             y="985"
             x="166" /><rect
             id="barcode0_bar7"
             height="25"
             width="1"
             y="985"
             x="169" /><rect
             id="barcode0_bar9"
             height="25"
             width="1"
             y="985"
             x="174" /><rect
             id="barcode0_bar11"
             height="25"
             width="1"
             y="985"
             x="176" /><rect
             id="barcode0_bar13"
             height="25"
             width="1"
             y="985"
             x="178" /><rect
             id="barcode0_bar15"
             height="25"
             width="3"
             y="985"
             x="181" /><rect
             id="barcode0_bar17"
             height="25"
             width="2"
             y="985"
             x="185" /><rect
             id="barcode0_bar19"
             height="25"
             width="1"
             y="985"
             x="190" /><rect
             id="barcode0_bar21"
             height="25"
             width="1"
             y="985"
             x="193" /><rect
             id="barcode0_bar23"
             height="25"
             width="2"
             y="985"
             x="196" /><rect
             id="barcode0_bar25"
             height="25"
             width="1"
             y="985"
             x="199" /><rect
             id="barcode0_bar27"
             height="25"
             width="3"
             y="985"
             x="202" /><rect
             id="barcode0_bar29"
             height="30"
             width="1"
             y="985"
             x="206" /><rect
             id="barcode0_bar31"
             height="30"
             width="1"
             y="985"
             x="208" /><rect
             id="barcode0_bar33"
             height="25"
             width="1"
             y="985"
             x="210" /><rect
             id="barcode0_bar35"
             height="25"
             width="1"
             y="985"
             x="215" /><rect
             id="barcode0_bar37"
             height="25"
             width="2"
             y="985"
             x="217" /><rect
             id="barcode0_bar39"
             height="25"
             width="2"
             y="985"
             x="221" /><rect
             id="barcode0_bar41"
             height="25"
             width="3"
             y="985"
             x="224" /><rect
             id="barcode0_bar43"
             height="25"
             width="1"
             y="985"
             x="229" /><rect
             id="barcode0_bar45"
             height="25"
             width="2"
             y="985"
             x="231" /><rect
             id="barcode0_bar47"
             height="25"
             width="2"
             y="985"
             x="235" /><rect
             id="barcode0_bar49"
             height="25"
             width="1"
             y="985"
             x="238" /><rect
             id="barcode0_bar51"
             height="25"
             width="1"
             y="985"
             x="243" /><rect
             id="barcode0_bar53"
             height="25"
             width="1"
             y="985"
             x="245" /><rect
             id="barcode0_bar55"
             height="25"
             width="1"
             y="985"
             x="248" /><rect
             id="barcode0_bar57"
             height="30"
             width="1"
             y="985"
             x="252" /><rect
             id="barcode0_bar59"
             height="30"
             width="1"
             y="985"
             x="254" /><text
             id="barcode0_bottomtext"
             xml:space="preserve"
             style="font-size:9px;text-align:center;text-anchor:middle"
             y="1020"
             x="207">5    060520    310138       </text>
</g></g><g
         transform="matrix(2.3122473,0,0,-2.3122578,-585.70964,1381.1118)"
         id="g13167"><path
           inkscape:connector-curvature="0"
           d="m 270.306,250.6 5.238,9.065 5.229,-9.065 h 0.898 l -0.035,0.061 v 13.885 h -0.784 v -12.525 l -5.309,9.187 -5.316,-9.187 v 12.525 h -0.785 v -13.885 l -0.034,-0.061 h 0.898 z"
           id="path13169" /><path
           inkscape:connector-curvature="0"
           d="m 285.245,250.6 v 13.946 H 284.46 V 250.6 h 0.785 z"
           id="path13171" /><path
           inkscape:connector-curvature="0"
           d="m 287.162,264.545 4.419,-7.661 -3.626,-6.285 h 0.898 l 3.173,5.509 3.189,-5.509 h 0.897 l -3.643,6.285 4.437,7.661 h -0.898 l -3.982,-6.886 -3.975,6.886 h -0.889 z"
           id="path13173" /><path
           inkscape:connector-curvature="0"
           d="m 313.746,260.004 c 0,1.319 -0.466,2.446 -1.398,3.382 -0.932,0.936 -2.062,1.403 -3.387,1.403 -1.319,0 -2.446,-0.468 -3.382,-1.403 -0.936,-0.935 -1.403,-2.063 -1.403,-3.382 v -4.62 c 0,-1.319 0.468,-2.446 1.403,-3.382 0.935,-0.936 2.062,-1.403 3.382,-1.403 1.325,0 2.454,0.468 3.387,1.403 0.933,0.935 1.398,2.063 1.398,3.382 v 4.62 z m -0.828,-4.619 c 0,-1.092 -0.386,-2.023 -1.159,-2.793 -0.772,-0.77 -1.705,-1.155 -2.798,-1.155 -1.092,0 -2.024,0.385 -2.798,1.155 -0.772,0.77 -1.159,1.701 -1.159,2.793 v 4.62 c 0,1.092 0.387,2.023 1.159,2.793 0.773,0.77 1.706,1.155 2.798,1.155 1.093,0 2.025,-0.385 2.798,-1.155 0.773,-0.77 1.159,-1.701 1.159,-2.793 v -4.62 z"
           id="path13175" /><path
           inkscape:connector-curvature="0"
           d="m 321.669,250.6 h 0.784 v 9.082 h 1.334 v 0.785 h -1.334 v 4.079 h -0.784 v -4.079 h -5.753 l 5.753,-9.867 z m 0,1.691 -4.402,7.391 h 4.402 v -7.391 z"
           id="path13177" /></g></g><use
       id="use8245"
       transform="translate(0,119.90715)"
       xlink:href="#g4685"
       inkscape:tiled-clone-of="#g4685"
       y="0"
       x="0" /><use
       id="use8247"
       transform="translate(0,239.8143)"
       xlink:href="#g4685"
       inkscape:tiled-clone-of="#g4685"
       y="0"
       x="0" /><use
       id="use8249"
       transform="translate(0,359.72145)"
       xlink:href="#g4685"
       inkscape:tiled-clone-of="#g4685"
       y="0"
       x="0" /><use
       id="use8251"
       transform="translate(0,479.6286)"
       xlink:href="#g4685"
       inkscape:tiled-clone-of="#g4685"
       y="0"
       x="0" /><use
       id="use8253"
       transform="translate(0,599.53575)"
       xlink:href="#g4685"
       inkscape:tiled-clone-of="#g4685"
       y="0"
       x="0" /><use
       id="use8255"
       transform="translate(0,719.44289)"
       xlink:href="#g4685"
       inkscape:tiled-clone-of="#g4685"
       y="0"
       x="0" /><use
       id="use8257"
       transform="translate(199.09241,0)"
       xlink:href="#g4685"
       inkscape:tiled-clone-of="#g4685"
       y="0"
       x="0" /><use
       id="use8259"
       transform="translate(199.09241,119.90715)"
       xlink:href="#g4685"
       inkscape:tiled-clone-of="#g4685"
       y="0"
       x="0" /><use
       id="use8261"
       transform="translate(199.09241,239.8143)"
       xlink:href="#g4685"
       inkscape:tiled-clone-of="#g4685"
       y="0"
       x="0" /><use
       id="use8263"
       transform="translate(199.09241,359.72145)"
       xlink:href="#g4685"
       inkscape:tiled-clone-of="#g4685"
       y="0"
       x="0" /><use
       id="use8265"
       transform="translate(199.09241,479.6286)"
       xlink:href="#g4685"
       inkscape:tiled-clone-of="#g4685"
       y="0"
       x="0" /><use
       id="use8267"
       transform="translate(199.09241,599.53575)"
       xlink:href="#g4685"
       inkscape:tiled-clone-of="#g4685"
       y="0"
       x="0" /><use
       id="use8269"
       transform="translate(199.09241,719.44289)"
       xlink:href="#g4685"
       inkscape:tiled-clone-of="#g4685"
       y="0"
       x="0" /><use
       id="use8271"
       transform="translate(398.18482,0)"
       xlink:href="#g4685"
       inkscape:tiled-clone-of="#g4685"
       y="0"
       x="0" /><use
       id="use8273"
       transform="translate(398.18482,119.90715)"
       xlink:href="#g4685"
       inkscape:tiled-clone-of="#g4685"
       y="0"
       x="0" /><use
       id="use8275"
       transform="translate(398.18482,239.8143)"
       xlink:href="#g4685"
       inkscape:tiled-clone-of="#g4685"
       y="0"
       x="0" /><use
       id="use8277"
       transform="translate(398.18482,359.72145)"
       xlink:href="#g4685"
       inkscape:tiled-clone-of="#g4685"
       y="0"
       x="0" /><use
       id="use8279"
       transform="translate(398.18482,479.6286)"
       xlink:href="#g4685"
       inkscape:tiled-clone-of="#g4685"
       y="0"
       x="0" /><use
       id="use8281"
       transform="translate(398.18482,599.53575)"
       xlink:href="#g4685"
       inkscape:tiled-clone-of="#g4685"
       y="0"
       x="0" /><use
       id="use8283"
       transform="translate(398.18482,719.44289)"
       xlink:href="#g4685"
       inkscape:tiled-clone-of="#g4685"
       y="0"
       x="0" /><g
       style="fill: black;"
       id="barcode"><rect
         id="barcode_bar1"
         height="30"
         width="1"
         y="909"
         x="27" /><rect
         id="barcode_bar3"
         height="30"
         width="1"
         y="909"
         x="29" /><rect
         id="barcode_bar5"
         height="25"
         width="2"
         y="909"
         x="33" /><rect
         id="barcode_bar7"
         height="25"
         width="1"
         y="909"
         x="36" /><rect
         id="barcode_bar9"
         height="25"
         width="1"
         y="909"
         x="41" /><rect
         id="barcode_bar11"
         height="25"
         width="1"
         y="909"
         x="43" /><rect
         id="barcode_bar13"
         height="25"
         width="1"
         y="909"
         x="45" /><rect
         id="barcode_bar15"
         height="25"
         width="3"
         y="909"
         x="48" /><rect
         id="barcode_bar17"
         height="25"
         width="2"
         y="909"
         x="52" /><rect
         id="barcode_bar19"
         height="25"
         width="1"
         y="909"
         x="57" /><rect
         id="barcode_bar21"
         height="25"
         width="1"
         y="909"
         x="60" /><rect
         id="barcode_bar23"
         height="25"
         width="2"
         y="909"
         x="63" /><rect
         id="barcode_bar25"
         height="25"
         width="1"
         y="909"
         x="66" /><rect
         id="barcode_bar27"
         height="25"
         width="3"
         y="909"
         x="69" /><rect
         id="barcode_bar29"
         height="30"
         width="1"
         y="909"
         x="73" /><rect
         id="barcode_bar31"
         height="30"
         width="1"
         y="909"
         x="75" /><rect
         id="barcode_bar33"
         height="25"
         width="1"
         y="909"
         x="77" /><rect
         id="barcode_bar35"
         height="25"
         width="1"
         y="909"
         x="82" /><rect
         id="barcode_bar37"
         height="25"
         width="2"
         y="909"
         x="84" /><rect
         id="barcode_bar39"
         height="25"
         width="2"
         y="909"
         x="88" /><rect
         id="barcode_bar41"
         height="25"
         width="3"
         y="909"
         x="91" /><rect
         id="barcode_bar43"
         height="25"
         width="1"
         y="909"
         x="96" /><rect
         id="barcode_bar45"
         height="25"
         width="3"
         y="909"
         x="98" /><rect
         id="barcode_bar47"
         height="25"
         width="1"
         y="909"
         x="103" /><rect
         id="barcode_bar49"
         height="25"
         width="1"
         y="909"
         x="105" /><rect
         id="barcode_bar51"
         height="25"
         width="1"
         y="909"
         x="110" /><rect
         id="barcode_bar53"
         height="25"
         width="3"
         y="909"
         x="112" /><rect
         id="barcode_bar55"
         height="25"
         width="1"
         y="909"
         x="116" /><rect
         id="barcode_bar57"
         height="30"
         width="1"
         y="909"
         x="119" /><rect
         id="barcode_bar59"
         height="30"
         width="1"
         y="909"
         x="121" /><text
         id="barcode_bottomtext"
         xml:space="preserve"
         style="font-size:9px;text-align:center;text-anchor:middle;"
         y="944"
         x="74">5    060520    310039       </text>
</g></g></svg>