<?xml version="1.0" encoding="UTF-8" standalone="no"?>
<!-- Created with Inkscape (http://www.inkscape.org/) -->

<svg
   xmlns:dc="http://purl.org/dc/elements/1.1/"
   xmlns:cc="http://creativecommons.org/ns#"
   xmlns:rdf="http://www.w3.org/1999/02/22-rdf-syntax-ns#"
   xmlns:svg="http://www.w3.org/2000/svg"
   xmlns="http://www.w3.org/2000/svg"
   xmlns:xlink="http://www.w3.org/1999/xlink"
   xmlns:sodipodi="http://sodipodi.sourceforge.net/DTD/sodipodi-0.dtd"
   xmlns:inkscape="http://www.inkscape.org/namespaces/inkscape"
   id="svg4373"
   version="1.1"
   inkscape:version="0.48.4 r9939"
   width="744.095"
   height="1052.3625"
   xml:space="preserve"
   sodipodi:docname="Mix03Labels.svg"><metadata
     id="metadata4379"><rdf:RDF><cc:Work
         rdf:about=""><dc:format>image/svg+xml</dc:format><dc:type
           rdf:resource="http://purl.org/dc/dcmitype/StillImage" /><dc:title></dc:title></cc:Work></rdf:RDF></metadata><defs
     id="defs4377"><clipPath
       clipPathUnits="userSpaceOnUse"
       id="clipPath4387"><path
         d="m 0,0 595.276,0 0,841.89 L 0,841.89 0,0 z"
         id="path4389" /></clipPath><clipPath
       clipPathUnits="userSpaceOnUse"
       id="clipPath4421"><path
         d="m 0,0 595.276,0 0,841.89 L 0,841.89 0,0 z"
         id="path4423" /></clipPath><clipPath
       clipPathUnits="userSpaceOnUse"
       id="clipPath4443"><path
         d="m 0,0 595.276,0 0,841.89 L 0,841.89 0,0 z"
         id="path4445" /></clipPath><clipPath
       clipPathUnits="userSpaceOnUse"
       id="clipPath7941"><path
         inkscape:connector-curvature="0"
         d="m 0,0 595.276,0 0,841.89 L 0,841.89 0,0 z"
         id="path7943" /></clipPath><clipPath
       clipPathUnits="userSpaceOnUse"
       id="clipPath7975"><path
         inkscape:connector-curvature="0"
         d="m 0,0 595.276,0 0,841.89 L 0,841.89 0,0 z"
         id="path7977" /></clipPath><clipPath
       clipPathUnits="userSpaceOnUse"
       id="clipPath7997"><path
         inkscape:connector-curvature="0"
         d="m 0,0 595.276,0 0,841.89 L 0,841.89 0,0 z"
         id="path7999" /></clipPath></defs><sodipodi:namedview
     pagecolor="#ffffff"
     bordercolor="#666666"
     borderopacity="1"
     objecttolerance="10"
     gridtolerance="10"
     guidetolerance="10"
     inkscape:pageopacity="0"
     inkscape:pageshadow="2"
     inkscape:window-width="1680"
     inkscape:window-height="1000"
     id="namedview4375"
     showgrid="false"
     inkscape:zoom="1.1075675"
     inkscape:cx="249.78995"
     inkscape:cy="730.63581"
     inkscape:window-x="0"
     inkscape:window-y="0"
     inkscape:window-maximized="1"
     inkscape:current-layer="g4381"
     inkscape:document-units="mm"
     showguides="false"
     inkscape:guide-bbox="true" /><g
     id="g4381"
     inkscape:groupmode="layer"
     inkscape:label="Label Planet LP21 70 Portrait"
     transform="matrix(1.25,0,0,-1.25,0,1052.3625)"><g
       id="g4685"
       transform="matrix(1.0000045,0,0,1,0.22200192,-721.66836)"
       inkscape:tile-cx="123.85937"
       inkscape:tile-cy="977.36505"
       inkscape:tile-w="203.15552"
       inkscape:tile-h="129.62935"
       inkscape:tile-x0="22.281616"
       inkscape:tile-y0="912.55037"><g
         id="flowRoot2985"
         style="font-size:40px;font-style:normal;font-variant:normal;font-weight:normal;font-stretch:normal;text-align:start;line-height:125%;letter-spacing:0px;word-spacing:0px;writing-mode:lr-tb;text-anchor:start;fill:#000000;fill-opacity:1;stroke:none;font-family:More than human;-inkscape-font-specification:More than human"
         transform="matrix(0.68631727,0,0,-0.68631727,-31.837369,883.75758)"><path
           id="path3134"
           style="font-size:30px;line-height:125%;font-family:More than human;-inkscape-font-specification:More than human"
           d="m 79.5375,81.455617 -2.55,0 0,9.21 2.55,-1.29 0,-7.92 m 1.2,-1.2 0,9.87 -4.95,2.49 0,-12.36 4.95,0 m -7.5,19.920003 -0.63,5.76 -0.57,-5.76 0,-23.670003 12.45,0 0,15.93 -2.97,1.5 2.97,1.56 0,4.680003 -0.63,5.76 -0.57,-5.76 0,-3.960003 -4.38,-2.31 4.38,-2.19 0,-14.01 -10.05,0 0,22.470003 m 3.75,0 -0.63,5.76 -0.57,-5.76 0,-4.890003 4.95,2.58 0,2.310003 -0.63,5.76 -0.57,-5.76 0,-1.590003 -2.52,-1.32 0,2.910003 -0.03,0"
           inkscape:connector-curvature="0" /><path
           id="path3136"
           style="font-size:30px;line-height:125%;font-family:More than human;-inkscape-font-specification:More than human"
           d="m 100.13203,102.57562 -0.629999,5.76 -0.57,-5.76 0,-6.120003 -7.5,0 0,-4.98 7.5,0 0,-2.52 -7.5,0 0,-8.73 4.95,0 0,3.75 2.55,0 0,-6.27 -10.05,0 0,23.070003 -0.63,5.76 -0.57,-5.76 0,-24.270003 12.449999,0 0,8.67 -4.949999,0 0,-3.75 -2.55,0 0,6.33 7.499999,0 0,4.92 -7.499999,0 0,2.58 7.499999,0 0,7.320003"
           inkscape:connector-curvature="0" /><path
           id="path3139"
           style="font-size:30px;line-height:125%;font-family:More than human;-inkscape-font-specification:More than human"
           d="m 110.70937,81.455617 -2.55,0 0,5.46 2.55,-1.29 0,-4.17 m 1.2,-1.2 0,6.12 -4.95,2.49 0,-8.61 4.95,0 m -1.2,14.55 -2.55,-1.29 0,1.71 2.55,0 0,-0.42 m 1.2,-0.75 0,2.37 -4.95,0 0,-4.86 4.95,2.49 m 3.75,5.82 -0.62999,5.760003 -0.57001,-5.760003 0,-7.41 -4.37999,-2.31 4.37999,-2.19 0,-10.26 -10.05,0 0,24.570003 -0.62999,5.76 -0.57001,-5.76 0,-25.770003 12.45,0 0,12.18 -2.97,1.5 2.97,1.56 0,8.13"
           inkscape:connector-curvature="0" /><path
           id="path3141"
           style="font-size:30px;line-height:125%;font-family:More than human;-inkscape-font-specification:More than human"
           d="m 131.30391,102.57562 -0.63,5.76 -0.57,-5.76 0,-6.120003 -7.5,0 0,-4.98 7.5,0 0,-2.52 -7.5,0 0,-8.73 4.95,0 0,3.75 2.55,0 0,-6.27 -10.05,0 0,23.070003 -0.63,5.76 -0.57,-5.76 0,-24.270003 12.45,0 0,8.67 -4.95,0 0,-3.75 -2.55,0 0,6.33 7.5,0 0,4.92 -7.5,0 0,2.58 7.5,0 0,7.320003"
           inkscape:connector-curvature="0" /><path
           id="path3143"
           style="font-size:30px;line-height:125%;font-family:More than human;-inkscape-font-specification:More than human"
           d="m 143.08125,99.575617 -0.63,5.760003 -0.57,-5.760003 0,-3.12 -3.75,0 0,-18.75 -2.55,0 0,24.570003 -0.63,5.76 -0.57,-5.76 0,-25.770003 4.95,0 0,18.75 3.75,0 0,4.32"
           inkscape:connector-curvature="0" /><path
           id="path3145"
           style="font-size:30px;line-height:125%;font-family:More than human;-inkscape-font-specification:More than human"
           d="m 169.38984,100.17562 -0.63,5.76 -0.57,-5.76 0,-19.950003 3.75,0 0,-2.52 -10.05,0 0,2.52 3.75,0 0,19.950003 -0.63,5.76 -0.57,-5.76 0,-18.750003 -3.75,0 0,-4.92 12.45,0 0,4.92 -3.75,0 0,18.750003"
           inkscape:connector-curvature="0" /><path
           id="path3147"
           style="font-size:30px;line-height:125%;font-family:More than human;-inkscape-font-specification:More than human"
           d="m 188.37422,102.57562 -0.63,5.76 -0.57,-5.76 0,-6.120003 -7.5,0 0,-4.98 7.5,0 0,-2.52 -7.5,0 0,-8.73 4.95,0 0,3.75 2.55,0 0,-6.27 -10.05,0 0,23.070003 -0.63,5.76 -0.57,-5.76 0,-24.270003 12.45,0 0,8.67 -4.95,0 0,-3.75 -2.55,0 0,6.33 7.5,0 0,4.92 -7.5,0 0,2.58 7.5,0 0,7.320003"
           inkscape:connector-curvature="0" /><path
           id="path3149"
           style="font-size:30px;line-height:125%;font-family:More than human;-inkscape-font-specification:More than human"
           d="m 203.90156,102.27562 -0.63,5.76 -0.57,-5.76 0,-9.570003 -2.55,0 0,3.75 -4.95,0 0,-16.23 4.95,0 0,3.75 2.55,0 0,-6.27 -10.05,0 0,22.17 -0.63,5.760003 -0.57,-5.760003 0,-23.37 12.45,0 0,8.67 -4.95,0 0,-3.75 -2.55,0 0,13.83 2.55,0 0,-3.75 4.95,0 0,10.770003"
           inkscape:connector-curvature="0" /><path
           id="path3151"
           style="font-size:30px;line-height:125%;font-family:More than human;-inkscape-font-specification:More than human"
           d="m 219.37031,100.77562 -0.63,5.76 -0.57,-5.76 0,-23.070003 -2.55,0 0,15 -4.95,0 0,-15 -2.55,0 0,22.17 -0.63,5.760003 -0.57,-5.760003 0,-23.37 4.95,0 0,15 2.55,0 0,-15 4.95,0 0,24.270003 m -3.75,-1.500003 -0.63,5.760003 -0.57,-5.760003 0,-2.85 -2.55,0 0,7.050003 -0.63,5.76 -0.57,-5.76 0,-8.250003 4.95,0 0,4.05"
           inkscape:connector-curvature="0" /><path
           id="path3153"
           style="font-size:30px;line-height:125%;font-family:More than human;-inkscape-font-specification:More than human"
           d="m 231.44484,100.17562 -0.63,5.76 -0.57,-5.76 -2.7,-7.890003 0,7.29 -0.63,5.760003 -0.57,-5.760003 -0.03,0 0.03,-14.43 5.1,15.030003 m 3.57,0.9 -0.63,5.76 -0.57,-5.76 0,-23.370003 -2.58,0 0,13.83 -4.77,-13.83 -2.7,0 0,25.770003 -0.63,5.76 -0.57,-5.76 0,-26.970003 4.77,0 2.7,7.89 0,-7.89 4.98,0 0,24.570003"
           inkscape:connector-curvature="0" /><path
           id="path3155"
           style="font-size:30px;line-height:125%;font-family:More than human;-inkscape-font-specification:More than human"
           d="m 245.70937,81.455617 -2.55,0 0,13.77 2.55,0 0,-13.77 m 1.2,-1.2 0,16.17 -4.95,0 0,-16.17 4.95,0 m 3.75,19.62 -0.63,5.760003 -0.57,-5.760003 0,-22.17 -10.05,0 0,25.470003 -0.63,5.76 -0.57,-5.76 0,-26.670003 12.45,0 0,23.37"
           inkscape:connector-curvature="0" /><path
           id="path3157"
           style="font-size:30px;line-height:125%;font-family:More than human;-inkscape-font-specification:More than human"
           d="m 262.55391,99.575617 -0.63,5.760003 -0.57,-5.760003 0,-3.12 -3.75,0 0,-18.75 -2.55,0 0,24.570003 -0.63,5.76 -0.57,-5.76 0,-25.770003 4.95,0 0,18.75 3.75,0 0,4.32"
           inkscape:connector-curvature="0" /><path
           id="path3159"
           style="font-size:30px;line-height:125%;font-family:More than human;-inkscape-font-specification:More than human"
           d="m 272.6625,81.455617 -2.55,0 0,13.77 2.55,0 0,-13.77 m 1.2,-1.2 0,16.17 -4.95,0 0,-16.17 4.95,0 m 3.75,19.62 -0.63,5.760003 -0.57,-5.760003 0,-22.17 -10.05,0 0,25.470003 -0.63,5.76 -0.57,-5.76 0,-26.670003 12.45,0 0,23.37"
           inkscape:connector-curvature="0" /><path
           id="path3161"
           style="font-size:30px;line-height:125%;font-family:More than human;-inkscape-font-specification:More than human"
           d="m 293.25703,101.97562 -0.63,5.76 -0.57,-5.76 0,-13.020003 -2.55,0 0,7.5 -4.95,0 0,-16.23 4.95,0 0,3.75 2.55,0 0,-6.27 -10.05,0 0,21.87 -0.63,5.760003 -0.57,-5.760003 0,-23.07 12.45,0 0,8.67 -4.95,0 0,-3.75 -2.55,0 0,13.83 2.55,0 0,-7.5 4.95,0 0,14.220003"
           inkscape:connector-curvature="0" /><path
           id="path3163"
           style="font-size:30px;line-height:125%;font-family:More than human;-inkscape-font-specification:More than human"
           d="m 308.84297,99.575617 -0.63,5.760003 -0.57,-5.760003 0,-21.87 -2.55,0 0,11.25 -4.95,0 0,-11.25 -2.55,0 0,13.77 7.5,0 0,4.98 -7.5,0 0,7.320003 -0.63,5.76 -0.57,-5.76 0,-8.520003 7.5,0 0,-2.58 -7.5,0 0,-16.17 4.95,0 0,11.25 2.55,0 0,-11.25 4.95,0 0,23.07"
           inkscape:connector-curvature="0" /></g><g
         id="flowRoot3001"
         style="font-size:12px;font-style:normal;font-variant:normal;font-weight:normal;font-stretch:normal;text-align:start;line-height:125%;letter-spacing:0px;word-spacing:0px;writing-mode:lr-tb;text-anchor:start;fill:#000000;fill-opacity:1;stroke:none;font-family:Sans;-inkscape-font-specification:Sans"
         transform="matrix(0.68631727,0,0,-0.68631727,5.38946,925.0153)"><path
           id="path3166"
           style="font-size:10px;line-height:125%;font-family:Sans;-inkscape-font-specification:Sans"
           d="m 24.632812,257.41671 0,0.96191 c -0.374353,-0.17903 -0.727543,-0.31249 -1.05957,-0.40039 -0.332035,-0.0879 -0.652673,-0.13183 -0.961914,-0.13183 -0.537112,0 -0.952151,0.10417 -1.245117,0.3125 -0.289715,0.20834 -0.434572,0.50456 -0.43457,0.88867 -2e-6,0.32227 0.09603,0.56641 0.288086,0.73242 0.19531,0.16277 0.563148,0.2946 1.103515,0.39551 l 0.595703,0.12207 c 0.735673,0.13998 1.277665,0.38737 1.625977,0.74219 0.351557,0.35156 0.527338,0.82357 0.527344,1.41601 -6e-6,0.70638 -0.237636,1.24187 -0.712891,1.60645 -0.47201,0.36458 -1.165368,0.54687 -2.080078,0.54687 -0.345055,0 -0.712893,-0.0391 -1.103516,-0.11718 -0.387371,-0.0781 -0.789389,-0.19369 -1.206054,-0.34668 l 0,-1.01563 c 0.400389,0.22461 0.792641,0.39388 1.176757,0.50781 0.384113,0.11394 0.761716,0.1709 1.132813,0.1709 0.563147,0 0.997717,-0.11067 1.303711,-0.33203 0.305985,-0.22135 0.458979,-0.53711 0.458984,-0.94726 -5e-6,-0.35808 -0.110682,-0.63802 -0.332031,-0.83985 -0.218103,-0.20182 -0.577803,-0.35319 -1.079102,-0.4541 l -0.600586,-0.11719 c -0.735679,-0.14648 -1.267905,-0.37597 -1.596679,-0.68847 -0.328777,-0.3125 -0.493165,-0.74707 -0.493164,-1.30372 -10e-7,-0.64452 0.226236,-1.15233 0.678711,-1.52343 0.455727,-0.37109 1.082354,-0.55664 1.879882,-0.55664 0.341794,0 0.690101,0.0309 1.044922,0.0928 0.354813,0.0619 0.717769,0.15463 1.088867,0.27832"
           inkscape:connector-curvature="0" /><path
           id="path3169"
           style="font-size:10px;line-height:125%;font-family:Sans;-inkscape-font-specification:Sans"
           d="m 26.610352,257.17745 0.986328,0 0,3.08106 3.271484,-3.08106 1.269531,0 -3.618164,3.39844 3.876953,3.8916 -1.298828,0 -3.500976,-3.51074 0,3.51074 -0.986328,0 0,-7.29004"
           inkscape:connector-curvature="0" /><path
           id="path3171"
           style="font-size:10px;line-height:125%;font-family:Sans;-inkscape-font-specification:Sans"
           d="m 32.787109,257.17745 0.991211,0 0,4.42871 c -2e-6,0.78126 0.1416,1.34441 0.424805,1.68946 0.283201,0.34179 0.742184,0.51269 1.376953,0.51269 0.631506,0 1.088863,-0.1709 1.37207,-0.51269 0.283198,-0.34505 0.4248,-0.9082 0.424805,-1.68946 l 0,-4.42871 0.991211,0 0,4.55078 c -6e-6,0.95053 -0.236009,1.6683 -0.708008,2.15332 -0.468755,0.48503 -1.162114,0.72754 -2.080078,0.72754 -0.921227,0 -1.61784,-0.24251 -2.089844,-0.72754 -0.468751,-0.48502 -0.703125,-1.20279 -0.703125,-2.15332 l 0,-4.55078"
           inkscape:connector-curvature="0" /><path
           id="path3173"
           style="font-size:10px;line-height:125%;font-family:Sans;-inkscape-font-specification:Sans"
           d="m 40.414062,263.22726 1.030274,0 0,1.24023 -1.030274,0 0,-1.24023 m 0,-3.93067 1.030274,0 0,1.24024 -1.030274,0 0,-1.24024"
           inkscape:connector-curvature="0" /><path
           id="path3187"
           style="font-size:10px;line-height:125%;font-family:Sans;-inkscape-font-specification:Sans"
           d="m 20.262695,269.67745 1.469727,0 1.860351,4.96094 1.870118,-4.96094 1.469726,0 0,7.29004 -0.961914,0 0,-6.40137 -1.879883,5 -0.991211,0 -1.879882,-5 0,6.40137 -0.957032,0 0,-7.29004"
           inkscape:connector-curvature="0" /><path
           id="path3189"
           style="font-size:10px;line-height:125%;font-family:Sans;-inkscape-font-specification:Sans"
           d="m 31.341797,274.21847 c -0.725914,0 -1.228843,0.083 -1.508789,0.24902 -0.27995,0.16602 -0.419924,0.44922 -0.419922,0.84961 -2e-6,0.31901 0.104165,0.57292 0.3125,0.76172 0.211586,0.18555 0.498045,0.27832 0.859375,0.27832 0.498044,0 0.896806,-0.17578 1.196289,-0.52734 0.30273,-0.35482 0.454097,-0.8252 0.454102,-1.41114 l 0,-0.20019 -0.893555,0 m 1.791992,-0.3711 0,3.12012 -0.898437,0 0,-0.83008 c -0.205083,0.33204 -0.460616,0.5778 -0.766602,0.73731 -0.305993,0.15625 -0.680341,0.23437 -1.123047,0.23437 -0.559898,0 -1.005861,-0.15625 -1.337891,-0.46875 -0.328776,-0.31575 -0.493164,-0.7373 -0.493164,-1.26465 0,-0.61523 0.205078,-1.07909 0.615235,-1.3916 0.41341,-0.31249 1.028643,-0.46874 1.845703,-0.46875 l 1.259766,0 0,-0.0879 c -5e-6,-0.4134 -0.136723,-0.73242 -0.410157,-0.95703 -0.270186,-0.22786 -0.651045,-0.34179 -1.142578,-0.3418 -0.312502,1e-5 -0.616864,0.0374 -0.913086,0.11231 -0.296225,0.0749 -0.581056,0.18718 -0.854492,0.33691 l 0,-0.83007 c 0.328775,-0.12695 0.647785,-0.22135 0.957031,-0.28321 0.309243,-0.0651 0.610349,-0.0976 0.903321,-0.0976 0.791012,0 1.381831,0.20508 1.772461,0.61523 0.39062,0.41016 0.585932,1.03191 0.585937,1.86523"
           inkscape:connector-curvature="0" /><path
           id="path3191"
           style="font-size:10px;line-height:125%;font-family:Sans;-inkscape-font-specification:Sans"
           d="m 39.535156,273.66671 0,3.30078 -0.898437,0 0,-3.27148 c -5e-6,-0.51758 -0.100916,-0.90495 -0.302735,-1.16211 -0.201827,-0.25716 -0.504561,-0.38574 -0.908203,-0.38574 -0.485029,0 -0.867515,0.15462 -1.147461,0.46386 -0.27995,0.30925 -0.419923,0.7308 -0.419922,1.26465 l 0,3.09082 -0.90332,0 0,-5.46875 0.90332,0 0,0.84961 c 0.214842,-0.32877 0.467121,-0.57454 0.756836,-0.7373 0.292966,-0.16276 0.62988,-0.24414 1.010743,-0.24414 0.628251,0 1.103511,0.19531 1.425781,0.58593 0.32226,0.38738 0.483393,0.95867 0.483398,1.71387"
           inkscape:connector-curvature="0" /><path
           id="path3193"
           style="font-size:10px;line-height:125%;font-family:Sans;-inkscape-font-specification:Sans"
           d="m 41.244141,274.80929 0,-3.31055 0.898437,0 0,3.27637 c -2e-6,0.51758 0.10091,0.90658 0.302734,1.16699 0.201821,0.25716 0.504555,0.38574 0.908204,0.38574 0.485022,0 0.867509,-0.15462 1.147461,-0.46386 0.283198,-0.30925 0.4248,-0.7308 0.424804,-1.26465 l 0,-3.10059 0.898438,0 0,5.46875 -0.898438,0 0,-0.83984 c -0.218103,0.33203 -0.472009,0.57943 -0.761719,0.74219 -0.286461,0.1595 -0.62012,0.23925 -1.000976,0.23925 -0.628257,0 -1.105145,-0.19531 -1.430664,-0.58593 -0.325522,-0.39063 -0.488282,-0.96192 -0.488281,-1.71387 m 2.260742,-3.44238 0,0"
           inkscape:connector-curvature="0" /><path
           id="path3195"
           style="font-size:10px;line-height:125%;font-family:Sans;-inkscape-font-specification:Sans"
           d="m 50.453125,269.36984 0,0.74707 -0.859375,0 c -0.322268,0 -0.546877,0.0651 -0.673828,0.19531 -0.1237,0.13021 -0.185549,0.36459 -0.185547,0.70312 l 0,0.4834 1.479492,0 0,0.69824 -1.479492,0 0,4.77051 -0.90332,0 0,-4.77051 -0.859375,0 0,-0.69824 0.859375,0 0,-0.38086 c -10e-7,-0.60872 0.1416,-1.05142 0.424804,-1.32812 0.283202,-0.27994 0.73242,-0.41992 1.347657,-0.41992 l 0.849609,0"
           inkscape:connector-curvature="0" /><path
           id="path3197"
           style="font-size:10px;line-height:125%;font-family:Sans;-inkscape-font-specification:Sans"
           d="m 53.685547,274.21847 c -0.725914,0 -1.228843,0.083 -1.508789,0.24902 -0.27995,0.16602 -0.419924,0.44922 -0.419922,0.84961 -2e-6,0.31901 0.104165,0.57292 0.3125,0.76172 0.211586,0.18555 0.498045,0.27832 0.859375,0.27832 0.498044,0 0.896806,-0.17578 1.196289,-0.52734 0.30273,-0.35482 0.454097,-0.8252 0.454102,-1.41114 l 0,-0.20019 -0.893555,0 m 1.791992,-0.3711 0,3.12012 -0.898437,0 0,-0.83008 c -0.205083,0.33204 -0.460616,0.5778 -0.766602,0.73731 -0.305993,0.15625 -0.680341,0.23437 -1.123047,0.23437 -0.559898,0 -1.005861,-0.15625 -1.337891,-0.46875 -0.328776,-0.31575 -0.493164,-0.7373 -0.493164,-1.26465 0,-0.61523 0.205078,-1.07909 0.615235,-1.3916 0.41341,-0.31249 1.028643,-0.46874 1.845703,-0.46875 l 1.259766,0 0,-0.0879 c -5e-6,-0.4134 -0.136723,-0.73242 -0.410157,-0.95703 -0.270186,-0.22786 -0.651045,-0.34179 -1.142578,-0.3418 -0.312502,1e-5 -0.616864,0.0374 -0.913086,0.11231 -0.296225,0.0749 -0.581056,0.18718 -0.854492,0.33691 l 0,-0.83007 c 0.328775,-0.12695 0.647785,-0.22135 0.957031,-0.28321 0.309243,-0.0651 0.610349,-0.0976 0.903321,-0.0976 0.791012,0 1.381831,0.20508 1.772461,0.61523 0.39062,0.41016 0.585932,1.03191 0.585937,1.86523"
           inkscape:connector-curvature="0" /><path
           id="path3199"
           style="font-size:10px;line-height:125%;font-family:Sans;-inkscape-font-specification:Sans"
           d="m 61.268555,271.7087 0,0.83985 c -0.253911,-0.13997 -0.509445,-0.24414 -0.766602,-0.3125 -0.25391,-0.0716 -0.511071,-0.10742 -0.771484,-0.10743 -0.582685,10e-6 -1.035159,0.18556 -1.357422,0.55665 -0.322267,0.36784 -0.4834,0.88542 -0.483399,1.55273 -1e-6,0.66732 0.161132,1.18652 0.483399,1.55762 0.322263,0.36784 0.774737,0.55176 1.357422,0.55175 0.260413,10e-6 0.517574,-0.0342 0.771484,-0.10253 0.257157,-0.0716 0.512691,-0.17741 0.766602,-0.31739 l 0,0.83008 c -0.250656,0.11719 -0.511072,0.20508 -0.78125,0.26367 -0.266931,0.0586 -0.551762,0.0879 -0.854493,0.0879 -0.82357,0 -1.477866,-0.25879 -1.96289,-0.77636 -0.485027,-0.51758 -0.72754,-1.21582 -0.727539,-2.09473 -10e-7,-0.89192 0.24414,-1.59342 0.732422,-2.10449 0.491534,-0.51107 1.163734,-0.7666 2.016601,-0.7666 0.276689,0 0.546871,0.0293 0.810547,0.0879 0.263668,0.0553 0.519201,0.13998 0.766602,0.2539"
           inkscape:connector-curvature="0" /><path
           id="path3201"
           style="font-size:10px;line-height:125%;font-family:Sans;-inkscape-font-specification:Sans"
           d="m 63.729492,269.94601 0,1.55273 1.850586,0 0,0.69824 -1.850586,0 0,2.96875 c -2e-6,0.44597 0.06022,0.73243 0.180664,0.85938 0.123696,0.12695 0.372719,0.19043 0.747071,0.19043 l 0.922851,0 0,0.75195 -0.922851,0 c -0.693362,0 -1.171877,-0.12858 -1.435547,-0.38574 -0.263673,-0.26042 -0.395509,-0.73242 -0.395508,-1.41602 l 0,-2.96875 -0.65918,0 0,-0.69824 0.65918,0 0,-1.55273 0.90332,0"
           inkscape:connector-curvature="0" /><path
           id="path3203"
           style="font-size:10px;line-height:125%;font-family:Sans;-inkscape-font-specification:Sans"
           d="m 66.673828,274.80929 0,-3.31055 0.898438,0 0,3.27637 c -2e-6,0.51758 0.100909,0.90658 0.302734,1.16699 0.201821,0.25716 0.504555,0.38574 0.908203,0.38574 0.485023,0 0.867509,-0.15462 1.147461,-0.46386 0.283199,-0.30925 0.4248,-0.7308 0.424805,-1.26465 l 0,-3.10059 0.898437,0 0,5.46875 -0.898437,0 0,-0.83984 c -0.218104,0.33203 -0.47201,0.57943 -0.761719,0.74219 -0.286462,0.1595 -0.62012,0.23925 -1.000977,0.23925 -0.628257,0 -1.105144,-0.19531 -1.430664,-0.58593 -0.325521,-0.39063 -0.488282,-0.96192 -0.488281,-1.71387 m 2.260742,-3.44238 0,0"
           inkscape:connector-curvature="0" /><path
           id="path3205"
           style="font-size:10px;line-height:125%;font-family:Sans;-inkscape-font-specification:Sans"
           d="m 76.283203,272.33859 c -0.100915,-0.0586 -0.211592,-0.10091 -0.332031,-0.12696 -0.117191,-0.0293 -0.247399,-0.0439 -0.390625,-0.0439 -0.507816,0 -0.89844,0.16602 -1.171875,0.49804 -0.270184,0.32878 -0.405275,0.80242 -0.405274,1.4209 l 0,2.88086 -0.90332,0 0,-5.46875 0.90332,0 0,0.84961 c 0.188801,-0.33203 0.434569,-0.57779 0.737305,-0.7373 0.302732,-0.16276 0.67057,-0.24414 1.103516,-0.24414 0.06185,0 0.130204,0.005 0.205078,0.0146 0.07487,0.007 0.157873,0.0179 0.249023,0.0342 l 0.0049,0.92286"
           inkscape:connector-curvature="0" /><path
           id="path3207"
           style="font-size:10px;line-height:125%;font-family:Sans;-inkscape-font-specification:Sans"
           d="m 81.698242,274.00851 0,0.43945 -4.130859,0 c 0.03906,0.61849 0.224607,1.0905 0.55664,1.41602 0.335285,0.32226 0.800779,0.4834 1.396485,0.48339 0.345048,10e-6 0.678707,-0.0423 1.000976,-0.12695 0.325516,-0.0846 0.647782,-0.21159 0.966797,-0.38086 l 0,0.84961 c -0.32227,0.13672 -0.652674,0.24089 -0.991211,0.3125 -0.338545,0.0716 -0.68197,0.10742 -1.030273,0.10742 -0.872398,0 -1.56413,-0.2539 -2.075195,-0.76172 -0.507814,-0.50781 -0.76172,-1.19466 -0.761719,-2.06054 -1e-6,-0.89518 0.240884,-1.60482 0.722656,-2.12891 0.485024,-0.52734 1.137693,-0.79101 1.958008,-0.79101 0.735673,0 1.316727,0.23763 1.743164,0.71289 0.429682,0.47201 0.644526,1.11491 0.644531,1.92871 m -0.898437,-0.26367 c -0.0065,-0.49154 -0.144862,-0.88379 -0.415039,-1.17676 -0.266931,-0.29297 -0.621749,-0.43945 -1.064454,-0.43946 -0.501304,10e-6 -0.903322,0.14161 -1.206054,0.42481 -0.299481,0.28321 -0.472007,0.68197 -0.517578,1.19629 l 3.203125,-0.005"
           inkscape:connector-curvature="0" /><path
           id="path3209"
           style="font-size:10px;line-height:125%;font-family:Sans;-inkscape-font-specification:Sans"
           d="m 86.341797,272.33859 c -0.100916,-0.0586 -0.211593,-0.10091 -0.332031,-0.12696 -0.117192,-0.0293 -0.2474,-0.0439 -0.390625,-0.0439 -0.507816,0 -0.89844,0.16602 -1.171875,0.49804 -0.270185,0.32878 -0.405276,0.80242 -0.405274,1.4209 l 0,2.88086 -0.90332,0 0,-5.46875 0.90332,0 0,0.84961 c 0.1888,-0.33203 0.434568,-0.57779 0.737305,-0.7373 0.302731,-0.16276 0.67057,-0.24414 1.103515,-0.24414 0.06185,0 0.130205,0.005 0.205079,0.0146 0.07487,0.007 0.157873,0.0179 0.249023,0.0342 l 0.0049,0.92286"
           inkscape:connector-curvature="0" /><path
           id="path3211"
           style="font-size:10px;line-height:125%;font-family:Sans;-inkscape-font-specification:Sans"
           d="m 87.347656,275.72726 1.030274,0 0,1.24023 -1.030274,0 0,-1.24023 m 0,-3.93067 1.030274,0 0,1.24024 -1.030274,0 0,-1.24024"
           inkscape:connector-curvature="0" /><path
           id="path3213"
           style="font-size:10px;line-height:125%;font-family:Sans;-inkscape-font-specification:Sans"
           d="m 109.91113,273.54952 c 0.21159,0.0716 0.41666,0.22462 0.61524,0.45899 0.20181,0.23437 0.40364,0.55664 0.60547,0.96679 l 1.00097,1.99219 -1.05957,0 -0.93261,-1.87012 c -0.24089,-0.48827 -0.47527,-0.81217 -0.70313,-0.97168 -0.22461,-0.1595 -0.53223,-0.23925 -0.92285,-0.23925 l -1.07422,0 0,3.08105 -0.98633,0 0,-7.29004 2.22656,0 c 0.83333,10e-6 1.45508,0.17416 1.86524,0.52246 0.41015,0.34832 0.61523,0.87403 0.61523,1.57715 0,0.45899 -0.10742,0.83985 -0.32226,1.14258 -0.2116,0.30274 -0.52084,0.5127 -0.92774,0.62988 m -2.4707,-3.06152 0,2.58789 1.24023,0 c 0.47526,0 0.83333,-0.10905 1.07422,-0.32715 0.24414,-0.22135 0.36621,-0.54524 0.36621,-0.97168 0,-0.42642 -0.12207,-0.74706 -0.36621,-0.96191 -0.24089,-0.21809 -0.59896,-0.32714 -1.07422,-0.32715 l -1.24023,0"
           inkscape:connector-curvature="0" /><path
           id="path3215"
           style="font-size:10px;line-height:125%;font-family:Sans;-inkscape-font-specification:Sans"
           d="m 117.59668,274.00851 0,0.43945 -4.13086,0 c 0.0391,0.61849 0.22461,1.0905 0.55664,1.41602 0.33529,0.32226 0.80078,0.4834 1.39649,0.48339 0.34504,10e-6 0.6787,-0.0423 1.00097,-0.12695 0.32552,-0.0846 0.64778,-0.21159 0.9668,-0.38086 l 0,0.84961 c -0.32227,0.13672 -0.65268,0.24089 -0.99121,0.3125 -0.33855,0.0716 -0.68197,0.10742 -1.03028,0.10742 -0.87239,0 -1.56413,-0.2539 -2.07519,-0.76172 -0.50781,-0.50781 -0.76172,-1.19466 -0.76172,-2.06054 0,-0.89518 0.24088,-1.60482 0.72266,-2.12891 0.48502,-0.52734 1.13769,-0.79101 1.958,-0.79101 0.73568,0 1.31673,0.23763 1.74317,0.71289 0.42968,0.47201 0.64452,1.11491 0.64453,1.92871 m -0.89844,-0.26367 c -0.007,-0.49154 -0.14486,-0.88379 -0.41504,-1.17676 -0.26693,-0.29297 -0.62175,-0.43945 -1.06445,-0.43946 -0.5013,10e-6 -0.90332,0.14161 -1.20605,0.42481 -0.29949,0.28321 -0.47201,0.68197 -0.51758,1.19629 l 3.20312,-0.005"
           inkscape:connector-curvature="0" /><path
           id="path3217"
           style="font-size:10px;line-height:125%;font-family:Sans;-inkscape-font-specification:Sans"
           d="m 122.99707,274.238 c 0,-0.6608 -0.13672,-1.17838 -0.41016,-1.55273 -0.27018,-0.3776 -0.6429,-0.56641 -1.11816,-0.56641 -0.47526,0 -0.84961,0.18881 -1.12305,0.56641 -0.27018,0.37435 -0.40527,0.89193 -0.40527,1.55273 0,0.66081 0.13509,1.18001 0.40527,1.55762 0.27344,0.37435 0.64779,0.56152 1.12305,0.56152 0.47526,0 0.84798,-0.18717 1.11816,-0.56152 0.27344,-0.37761 0.41016,-0.89681 0.41016,-1.55762 m -3.05664,-1.90918 c 0.1888,-0.32552 0.42643,-0.5664 0.71289,-0.72266 0.28971,-0.1595 0.63476,-0.23925 1.03516,-0.23925 0.66405,0 1.20279,0.26367 1.61621,0.79101 0.41666,0.52735 0.62499,1.22071 0.625,2.08008 -10e-6,0.85938 -0.20834,1.55273 -0.625,2.08008 -0.41342,0.52734 -0.95216,0.79101 -1.61621,0.79101 -0.4004,0 -0.74545,-0.0781 -1.03516,-0.23437 -0.28646,-0.15951 -0.52409,-0.40202 -0.71289,-0.72754 l 0,0.82031 -0.90332,0 0,-7.59765 0.90332,0 0,2.95898"
           inkscape:connector-curvature="0" /><path
           id="path3219"
           style="font-size:10px;line-height:125%;font-family:Sans;-inkscape-font-specification:Sans"
           d="m 130.09668,274.00851 0,0.43945 -4.13086,0 c 0.0391,0.61849 0.22461,1.0905 0.55664,1.41602 0.33529,0.32226 0.80078,0.4834 1.39649,0.48339 0.34504,10e-6 0.6787,-0.0423 1.00097,-0.12695 0.32552,-0.0846 0.64778,-0.21159 0.9668,-0.38086 l 0,0.84961 c -0.32227,0.13672 -0.65268,0.24089 -0.99121,0.3125 -0.33855,0.0716 -0.68197,0.10742 -1.03028,0.10742 -0.87239,0 -1.56413,-0.2539 -2.07519,-0.76172 -0.50781,-0.50781 -0.76172,-1.19466 -0.76172,-2.06054 0,-0.89518 0.24088,-1.60482 0.72266,-2.12891 0.48502,-0.52734 1.13769,-0.79101 1.958,-0.79101 0.73568,0 1.31673,0.23763 1.74317,0.71289 0.42968,0.47201 0.64452,1.11491 0.64453,1.92871 m -0.89844,-0.26367 c -0.007,-0.49154 -0.14486,-0.88379 -0.41504,-1.17676 -0.26693,-0.29297 -0.62175,-0.43945 -1.06445,-0.43946 -0.5013,10e-6 -0.90332,0.14161 -1.20605,0.42481 -0.29949,0.28321 -0.47201,0.68197 -0.51758,1.19629 l 3.20312,-0.005"
           inkscape:connector-curvature="0" /><path
           id="path3221"
           style="font-size:10px;line-height:125%;font-family:Sans;-inkscape-font-specification:Sans"
           d="m 131.57129,269.36984 0.89844,0 0,7.59765 -0.89844,0 0,-7.59765"
           inkscape:connector-curvature="0" /><path
           id="path3223"
           style="font-size:10px;line-height:125%;font-family:Sans;-inkscape-font-specification:Sans"
           d="m 136.55664,269.67745 6.16699,0 0,0.83008 -2.58789,0 0,6.45996 -0.99121,0 0,-6.45996 -2.58789,0 0,-0.83008"
           inkscape:connector-curvature="0" /><path
           id="path3225"
           style="font-size:10px;line-height:125%;font-family:Sans;-inkscape-font-specification:Sans"
           d="m 146.62012,274.00851 0,0.43945 -4.13086,0 c 0.0391,0.61849 0.22461,1.0905 0.55664,1.41602 0.33528,0.32226 0.80078,0.4834 1.39648,0.48339 0.34505,10e-6 0.67871,-0.0423 1.00098,-0.12695 0.32552,-0.0846 0.64778,-0.21159 0.9668,-0.38086 l 0,0.84961 c -0.32227,0.13672 -0.65268,0.24089 -0.99121,0.3125 -0.33855,0.0716 -0.68197,0.10742 -1.03028,0.10742 -0.8724,0 -1.56413,-0.2539 -2.07519,-0.76172 -0.50782,-0.50781 -0.76172,-1.19466 -0.76172,-2.06054 0,-0.89518 0.24088,-1.60482 0.72265,-2.12891 0.48503,-0.52734 1.1377,-0.79101 1.95801,-0.79101 0.73567,0 1.31673,0.23763 1.74317,0.71289 0.42968,0.47201 0.64452,1.11491 0.64453,1.92871 m -0.89844,-0.26367 c -0.007,-0.49154 -0.14486,-0.88379 -0.41504,-1.17676 -0.26693,-0.29297 -0.62175,-0.43945 -1.06445,-0.43946 -0.50131,10e-6 -0.90333,0.14161 -1.20606,0.42481 -0.29948,0.28321 -0.472,0.68197 -0.51758,1.19629 l 3.20313,-0.005"
           inkscape:connector-curvature="0" /><path
           id="path3227"
           style="font-size:10px;line-height:125%;font-family:Sans;-inkscape-font-specification:Sans"
           d="m 152.03027,271.7087 0,0.83985 c -0.25391,-0.13997 -0.50944,-0.24414 -0.7666,-0.3125 -0.25391,-0.0716 -0.51107,-0.10742 -0.77148,-0.10743 -0.58269,10e-6 -1.03516,0.18556 -1.35742,0.55665 -0.32227,0.36784 -0.4834,0.88542 -0.4834,1.55273 0,0.66732 0.16113,1.18652 0.4834,1.55762 0.32226,0.36784 0.77473,0.55176 1.35742,0.55175 0.26041,10e-6 0.51757,-0.0342 0.77148,-0.10253 0.25716,-0.0716 0.51269,-0.17741 0.7666,-0.31739 l 0,0.83008 c -0.25065,0.11719 -0.51107,0.20508 -0.78125,0.26367 -0.26693,0.0586 -0.55176,0.0879 -0.85449,0.0879 -0.82357,0 -1.47787,-0.25879 -1.96289,-0.77636 -0.48503,-0.51758 -0.72754,-1.21582 -0.72754,-2.09473 0,-0.89192 0.24414,-1.59342 0.73242,-2.10449 0.49154,-0.51107 1.16374,-0.7666 2.0166,-0.7666 0.27669,0 0.54688,0.0293 0.81055,0.0879 0.26367,0.0553 0.5192,0.13998 0.7666,0.2539"
           inkscape:connector-curvature="0" /><path
           id="path3229"
           style="font-size:10px;line-height:125%;font-family:Sans;-inkscape-font-specification:Sans"
           d="m 158.14844,273.66671 0,3.30078 -0.89844,0 0,-3.27148 c 0,-0.51758 -0.10092,-0.90495 -0.30273,-1.16211 -0.20183,-0.25716 -0.50457,-0.38574 -0.90821,-0.38574 -0.48503,0 -0.86751,0.15462 -1.14746,0.46386 -0.27995,0.30925 -0.41992,0.7308 -0.41992,1.26465 l 0,3.09082 -0.90332,0 0,-7.59765 0.90332,0 0,2.97851 c 0.21484,-0.32877 0.46712,-0.57454 0.75684,-0.7373 0.29296,-0.16276 0.62988,-0.24414 1.01074,-0.24414 0.62825,0 1.10351,0.19531 1.42578,0.58593 0.32226,0.38738 0.48339,0.95867 0.4834,1.71387"
           inkscape:connector-curvature="0" /><path
           id="path3231"
           style="font-size:10px;line-height:125%;font-family:Sans;-inkscape-font-specification:Sans"
           d="m 164.49609,273.66671 0,3.30078 -0.89843,0 0,-3.27148 c -1e-5,-0.51758 -0.10092,-0.90495 -0.30274,-1.16211 -0.20183,-0.25716 -0.50456,-0.38574 -0.9082,-0.38574 -0.48503,0 -0.86752,0.15462 -1.14746,0.46386 -0.27995,0.30925 -0.41993,0.7308 -0.41992,1.26465 l 0,3.09082 -0.90332,0 0,-5.46875 0.90332,0 0,0.84961 c 0.21484,-0.32877 0.46712,-0.57454 0.75683,-0.7373 0.29297,-0.16276 0.62988,-0.24414 1.01074,-0.24414 0.62826,0 1.10352,0.19531 1.42579,0.58593 0.32226,0.38738 0.48339,0.95867 0.48339,1.71387"
           inkscape:connector-curvature="0" /><path
           id="path3233"
           style="font-size:10px;line-height:125%;font-family:Sans;-inkscape-font-specification:Sans"
           d="m 168.41699,272.12862 c -0.48177,10e-6 -0.86263,0.18881 -1.14258,0.56641 -0.27995,0.37435 -0.41992,0.88868 -0.41992,1.54297 0,0.6543 0.13835,1.17025 0.41504,1.54785 0.27995,0.37435 0.66243,0.56153 1.14746,0.56152 0.47851,10e-6 0.85775,-0.1888 1.1377,-0.5664 0.27994,-0.3776 0.41991,-0.89193 0.41992,-1.54297 -1e-5,-0.64778 -0.13998,-1.16048 -0.41992,-1.53809 -0.27995,-0.38085 -0.65919,-0.57128 -1.1377,-0.57129 m 0,-0.76171 c 0.78125,0 1.39485,0.25391 1.84082,0.76171 0.44596,0.50782 0.66894,1.21095 0.66895,2.10938 -1e-5,0.89518 -0.22299,1.59831 -0.66895,2.10937 -0.44597,0.50782 -1.05957,0.76172 -1.84082,0.76172 -0.78451,0 -1.39974,-0.2539 -1.8457,-0.76172 -0.44271,-0.51106 -0.66406,-1.21419 -0.66406,-2.10937 0,-0.89843 0.22135,-1.60156 0.66406,-2.10938 0.44596,-0.5078 1.06119,-0.76171 1.8457,-0.76171"
           inkscape:connector-curvature="0" /><path
           id="path3235"
           style="font-size:10px;line-height:125%;font-family:Sans;-inkscape-font-specification:Sans"
           d="m 172.41113,269.36984 0.89844,0 0,7.59765 -0.89844,0 0,-7.59765"
           inkscape:connector-curvature="0" /><path
           id="path3237"
           style="font-size:10px;line-height:125%;font-family:Sans;-inkscape-font-specification:Sans"
           d="m 177.30371,272.12862 c -0.48177,10e-6 -0.86263,0.18881 -1.14258,0.56641 -0.27995,0.37435 -0.41992,0.88868 -0.41992,1.54297 0,0.6543 0.13835,1.17025 0.41504,1.54785 0.27995,0.37435 0.66243,0.56153 1.14746,0.56152 0.47851,10e-6 0.85774,-0.1888 1.1377,-0.5664 0.27994,-0.3776 0.41991,-0.89193 0.41992,-1.54297 -1e-5,-0.64778 -0.13998,-1.16048 -0.41992,-1.53809 -0.27996,-0.38085 -0.65919,-0.57128 -1.1377,-0.57129 m 0,-0.76171 c 0.78125,0 1.39485,0.25391 1.84082,0.76171 0.44596,0.50782 0.66894,1.21095 0.66895,2.10938 -1e-5,0.89518 -0.22299,1.59831 -0.66895,2.10937 -0.44597,0.50782 -1.05957,0.76172 -1.84082,0.76172 -0.78451,0 -1.39974,-0.2539 -1.8457,-0.76172 -0.44271,-0.51106 -0.66407,-1.21419 -0.66406,-2.10937 -1e-5,-0.89843 0.22135,-1.60156 0.66406,-2.10938 0.44596,-0.5078 1.06119,-0.76171 1.8457,-0.76171"
           inkscape:connector-curvature="0" /><path
           id="path3239"
           style="font-size:10px;line-height:125%;font-family:Sans;-inkscape-font-specification:Sans"
           d="m 184.89648,274.16964 c 0,-0.65104 -0.13509,-1.15559 -0.40527,-1.51367 -0.26693,-0.35807 -0.64291,-0.53711 -1.12793,-0.53711 -0.48177,0 -0.85775,0.17904 -1.12793,0.53711 -0.26693,0.35808 -0.40039,0.86263 -0.40039,1.51367 0,0.64779 0.13346,1.15072 0.40039,1.50879 0.27018,0.35807 0.64616,0.53711 1.12793,0.53711 0.48502,0 0.861,-0.17904 1.12793,-0.53711 0.27018,-0.35807 0.40527,-0.861 0.40527,-1.50879 m 0.89844,2.11914 c 0,0.93099 -0.20671,1.62272 -0.62012,2.0752 -0.41341,0.45572 -1.04655,0.68359 -1.89941,0.68359 -0.31576,0 -0.61361,-0.0244 -0.89355,-0.0732 -0.27995,-0.0456 -0.55176,-0.11719 -0.81543,-0.21485 l 0,-0.87402 c 0.26367,0.14323 0.52408,0.24902 0.78125,0.31738 0.25716,0.0684 0.5192,0.10254 0.78613,0.10254 0.58919,0 1.03027,-0.15462 1.32324,-0.46386 0.29297,-0.306 0.43945,-0.76986 0.43945,-1.39161 l 0,-0.44433 c -0.18555,0.32226 -0.42318,0.56315 -0.71289,0.72265 -0.28971,0.15951 -0.63639,0.23926 -1.04004,0.23926 -0.67057,0 -1.21093,-0.25553 -1.62109,-0.7666 -0.41016,-0.51107 -0.61523,-1.18815 -0.61523,-2.03125 0,-0.84635 0.20507,-1.52506 0.61523,-2.03613 0.41016,-0.51107 0.95052,-0.7666 1.62109,-0.7666 0.40365,0 0.75033,0.0797 1.04004,0.23925 0.28971,0.15951 0.52734,0.4004 0.71289,0.72266 l 0,-0.83008 0.89844,0 0,4.79004"
           inkscape:connector-curvature="0" /><path
           id="path3241"
           style="font-size:10px;line-height:125%;font-family:Sans;-inkscape-font-specification:Sans"
           d="m 189.9209,277.4753 c -0.25391,0.65104 -0.50131,1.07585 -0.74219,1.27442 -0.24089,0.19856 -0.56315,0.29785 -0.9668,0.29785 l -0.71777,0 0,-0.75195 0.52734,0 c 0.2474,0 0.43946,-0.0586 0.57618,-0.17578 0.13671,-0.11719 0.28808,-0.39389 0.4541,-0.83008 l 0.16113,-0.41016 -2.21191,-5.38086 0.95214,0 1.70899,4.27735 1.70898,-4.27735 0.95215,0 -2.40234,5.97656"
           inkscape:connector-curvature="0" /><text
           xml:space="preserve"
           style="font-size:9.94596863px;font-style:normal;font-weight:normal;line-height:125%;letter-spacing:0px;word-spacing:0px;fill:#000000;fill-opacity:1;stroke:none;font-family:Sans"
           x="105.51527"
           y="264.32703"
           id="text6700"
           sodipodi:linespacing="125%"><tspan
             sodipodi:role="line"
             id="tspan6702"
             x="105.51527"
             y="264.32703">mix-03</tspan></text>
</g><g
         id="g6976"
         transform="matrix(2.4062261,0,0,-2.406237,-255.28049,1401.9257)"><path
           d="m 122.636,250.868 5.238,9.065 5.229,-9.065 h 0.898 l -0.035,0.061 v 13.885 h -0.784 v -12.525 l -5.309,9.187 -5.316,-9.187 v 12.525 h -0.785 v -13.885 l -0.034,-0.061 h 0.898 z"
           id="path6978"
           inkscape:connector-curvature="0" /><path
           d="m 137.576,250.868 v 13.946 h -0.785 v -13.946 h 0.785 z"
           id="path6980"
           inkscape:connector-curvature="0" /><path
           d="m 139.493,264.813 4.419,-7.661 -3.626,-6.285 h 0.898 l 3.173,5.509 3.189,-5.509 h 0.897 l -3.643,6.285 4.437,7.661 h -0.898 l -3.982,-6.886 -3.975,6.886 h -0.889 z"
           id="path6982"
           inkscape:connector-curvature="0" /><path
           d="m 161.077,260.272 c 0,1.319 -0.466,2.446 -1.398,3.382 -0.932,0.936 -2.062,1.403 -3.387,1.403 -1.319,0 -2.446,-0.468 -3.382,-1.403 -0.936,-0.935 -1.403,-2.063 -1.403,-3.382 v -4.62 c 0,-1.319 0.468,-2.446 1.403,-3.382 0.935,-0.936 2.062,-1.403 3.382,-1.403 1.325,0 2.454,0.468 3.387,1.403 0.933,0.935 1.398,2.063 1.398,3.382 v 4.62 z m -0.829,-4.619 c 0,-1.092 -0.386,-2.023 -1.159,-2.793 -0.772,-0.77 -1.705,-1.155 -2.798,-1.155 -1.092,0 -2.024,0.385 -2.798,1.155 -0.772,0.77 -1.159,1.701 -1.159,2.793 v 4.62 c 0,1.092 0.387,2.023 1.159,2.793 0.773,0.77 1.706,1.155 2.798,1.155 1.093,0 2.025,-0.385 2.798,-1.155 0.773,-0.77 1.159,-1.701 1.159,-2.793 v -4.62 z"
           id="path6984"
           inkscape:connector-curvature="0" /><path
           d="m 166.698,257.03 -0.653,-0.018 v -0.785 c 0.54,-0.005 0.983,-0.075 1.329,-0.209 0.346,-0.134 0.721,-0.416 1.124,-0.846 0.404,-0.43 0.606,-0.941 0.606,-1.534 0,-0.599 -0.209,-1.105 -0.628,-1.521 -0.418,-0.416 -0.924,-0.623 -1.517,-0.623 -0.587,0 -1.093,0.206 -1.517,0.619 -0.232,0.238 -0.403,0.505 -0.514,0.802 l -0.75,-0.296 c 0.128,-0.407 0.352,-0.764 0.671,-1.072 0.587,-0.581 1.29,-0.872 2.109,-0.872 0.831,0 1.535,0.292 2.114,0.876 0.578,0.584 0.867,1.28 0.867,2.087 0,0.825 -0.222,1.475 -0.663,1.948 -0.441,0.474 -0.854,0.789 -1.237,0.946 0.837,0.279 1.531,0.715 2.083,1.308 0.796,0.854 1.194,1.854 1.194,2.998 0,1.15 -0.405,2.133 -1.216,2.946 -0.811,0.813 -1.791,1.22 -2.942,1.22 -1.145,0 -2.123,-0.41 -2.937,-1.229 -0.646,-0.651 -1.034,-1.412 -1.168,-2.284 l 0.793,-0.288 c 0.081,0.773 0.4,1.438 0.959,1.996 0.656,0.651 1.44,0.976 2.353,0.976 0.925,0 1.712,-0.325 2.362,-0.976 0.651,-0.651 0.977,-1.438 0.977,-2.362 0,-0.918 -0.317,-1.723 -0.95,-2.414 -0.633,-0.69 -1.582,-1.154 -2.849,-1.393 z"
           id="path6986"
           inkscape:connector-curvature="0" /></g></g><use
       x="0"
       y="0"
       inkscape:tiled-clone-of="#g4685"
       xlink:href="#g4685"
       transform="translate(0,119.90715)"
       id="use8245" /><use
       x="0"
       y="0"
       inkscape:tiled-clone-of="#g4685"
       xlink:href="#g4685"
       transform="translate(0,239.8143)"
       id="use8247" /><use
       x="0"
       y="0"
       inkscape:tiled-clone-of="#g4685"
       xlink:href="#g4685"
       transform="translate(0,359.72145)"
       id="use8249" /><use
       x="0"
       y="0"
       inkscape:tiled-clone-of="#g4685"
       xlink:href="#g4685"
       transform="translate(0,479.6286)"
       id="use8251" /><use
       x="0"
       y="0"
       inkscape:tiled-clone-of="#g4685"
       xlink:href="#g4685"
       transform="translate(0,599.53575)"
       id="use8253" /><use
       x="0"
       y="0"
       inkscape:tiled-clone-of="#g4685"
       xlink:href="#g4685"
       transform="translate(0,719.44289)"
       id="use8255" /><use
       x="0"
       y="0"
       inkscape:tiled-clone-of="#g4685"
       xlink:href="#g4685"
       transform="translate(199.09241,0)"
       id="use8257" /><use
       x="0"
       y="0"
       inkscape:tiled-clone-of="#g4685"
       xlink:href="#g4685"
       transform="translate(199.09241,119.90715)"
       id="use8259" /><use
       x="0"
       y="0"
       inkscape:tiled-clone-of="#g4685"
       xlink:href="#g4685"
       transform="translate(199.09241,239.8143)"
       id="use8261" /><use
       x="0"
       y="0"
       inkscape:tiled-clone-of="#g4685"
       xlink:href="#g4685"
       transform="translate(199.09241,359.72145)"
       id="use8263" /><use
       x="0"
       y="0"
       inkscape:tiled-clone-of="#g4685"
       xlink:href="#g4685"
       transform="translate(199.09241,479.6286)"
       id="use8265" /><use
       x="0"
       y="0"
       inkscape:tiled-clone-of="#g4685"
       xlink:href="#g4685"
       transform="translate(199.09241,599.53575)"
       id="use8267" /><use
       x="0"
       y="0"
       inkscape:tiled-clone-of="#g4685"
       xlink:href="#g4685"
       transform="translate(199.09241,719.44289)"
       id="use8269" /><use
       x="0"
       y="0"
       inkscape:tiled-clone-of="#g4685"
       xlink:href="#g4685"
       transform="translate(398.18482,0)"
       id="use8271" /><use
       x="0"
       y="0"
       inkscape:tiled-clone-of="#g4685"
       xlink:href="#g4685"
       transform="translate(398.18482,119.90715)"
       id="use8273" /><use
       x="0"
       y="0"
       inkscape:tiled-clone-of="#g4685"
       xlink:href="#g4685"
       transform="translate(398.18482,239.8143)"
       id="use8275" /><use
       x="0"
       y="0"
       inkscape:tiled-clone-of="#g4685"
       xlink:href="#g4685"
       transform="translate(398.18482,359.72145)"
       id="use8277" /><use
       x="0"
       y="0"
       inkscape:tiled-clone-of="#g4685"
       xlink:href="#g4685"
       transform="translate(398.18482,479.6286)"
       id="use8279" /><use
       x="0"
       y="0"
       inkscape:tiled-clone-of="#g4685"
       xlink:href="#g4685"
       transform="translate(398.18482,599.53575)"
       id="use8281" /><use
       x="0"
       y="0"
       inkscape:tiled-clone-of="#g4685"
       xlink:href="#g4685"
       transform="translate(398.18482,719.44289)"
       id="use8283" /></g></svg>