<?xml version="1.0" encoding="UTF-8" standalone="no"?>
<!-- Created with Inkscape (http://www.inkscape.org/) -->

<svg
   xmlns:dc="http://purl.org/dc/elements/1.1/"
   xmlns:cc="http://creativecommons.org/ns#"
   xmlns:rdf="http://www.w3.org/1999/02/22-rdf-syntax-ns#"
   xmlns:svg="http://www.w3.org/2000/svg"
   xmlns="http://www.w3.org/2000/svg"
   xmlns:xlink="http://www.w3.org/1999/xlink"
   xmlns:sodipodi="http://sodipodi.sourceforge.net/DTD/sodipodi-0.dtd"
   xmlns:inkscape="http://www.inkscape.org/namespaces/inkscape"
   id="svg4373"
   version="1.1"
   inkscape:version="0.92.4 (5da689c313, 2019-01-14)"
   width="210mm"
   height="297mm"
   xml:space="preserve"
   sodipodi:docname="Mix03Labels.svg"><sodipodi:namedview
     pagecolor="#ffffff"
     bordercolor="#666666"
     borderopacity="1"
     objecttolerance="10"
     gridtolerance="10"
     guidetolerance="10"
     inkscape:pageopacity="0"
     inkscape:pageshadow="2"
     inkscape:window-width="1920"
     inkscape:window-height="1016"
     id="namedview4375"
     showgrid="false"
     inkscape:zoom="0.57202014"
     inkscape:cx="5.2400799"
     inkscape:cy="520.21249"
     inkscape:window-x="0"
     inkscape:window-y="27"
     inkscape:window-maximized="1"
     inkscape:current-layer="g4381"
     inkscape:document-units="mm"
     showguides="false"
     inkscape:guide-bbox="true"
     units="mm" /><metadata
     id="metadata4379"><rdf:RDF><cc:Work
         rdf:about=""><dc:format>image/svg+xml</dc:format><dc:type
           rdf:resource="http://purl.org/dc/dcmitype/StillImage" /><dc:title></dc:title></cc:Work></rdf:RDF></metadata><defs
     id="defs4377"><clipPath
       id="clipPath4387"
       clipPathUnits="userSpaceOnUse"><path
         id="path4389"
         d="M 0,0 H 595.276 V 841.89 H 0 Z"
         inkscape:connector-curvature="0" /></clipPath><clipPath
       id="clipPath4421"
       clipPathUnits="userSpaceOnUse"><path
         id="path4423"
         d="M 0,0 H 595.276 V 841.89 H 0 Z"
         inkscape:connector-curvature="0" /></clipPath><clipPath
       id="clipPath4443"
       clipPathUnits="userSpaceOnUse"><path
         id="path4445"
         d="M 0,0 H 595.276 V 841.89 H 0 Z"
         inkscape:connector-curvature="0" /></clipPath><clipPath
       id="clipPath7941"
       clipPathUnits="userSpaceOnUse"><path
         id="path7943"
         d="M 0,0 H 595.276 V 841.89 H 0 Z"
         inkscape:connector-curvature="0" /></clipPath><clipPath
       id="clipPath7975"
       clipPathUnits="userSpaceOnUse"><path
         id="path7977"
         d="M 0,0 H 595.276 V 841.89 H 0 Z"
         inkscape:connector-curvature="0" /></clipPath><clipPath
       id="clipPath7997"
       clipPathUnits="userSpaceOnUse"><path
         id="path7999"
         d="M 0,0 H 595.276 V 841.89 H 0 Z"
         inkscape:connector-curvature="0" /></clipPath></defs><g
     transform="matrix(1.25,0,0,-1.25,0,1122.5197)"
     inkscape:label="Label Planet LP21 70 Portrait"
     inkscape:groupmode="layer"
     id="g4381"><g
       inkscape:tile-y0="912.55037"
       inkscape:tile-x0="22.281616"
       inkscape:tile-h="129.62935"
       inkscape:tile-w="203.15552"
       inkscape:tile-cy="977.36505"
       inkscape:tile-cx="123.85937"
       transform="matrix(1.0000045,0,0,1,0.22200192,-721.66836)"
       id="g4685"><g
   transform="matrix(0.68631727,0,0,-0.68631727,-29.93227,885.93552)"
   style="font-style:normal;font-variant:normal;font-weight:normal;font-stretch:normal;font-size:40px;line-height:125%;font-family:'More than human';-inkscape-font-specification:'More than human';text-align:start;letter-spacing:0px;word-spacing:0px;writing-mode:lr-tb;text-anchor:start;fill:#000000;fill-opacity:1;stroke:none"
   id="flowRoot2985"><path
     inkscape:connector-curvature="0"
     d="m 79.5375,81.455617 h -2.55 v 9.21 l 2.55,-1.29 v -7.92 m 1.2,-1.2 v 9.87 l -4.95,2.49 v -12.36 h 4.95 m -7.5,19.920003 -0.63,5.76 -0.57,-5.76 V 76.505617 h 12.45 v 15.93 l -2.97,1.5 2.97,1.56 v 4.680003 l -0.63,5.76 -0.57,-5.76 v -3.960003 l -4.38,-2.31 4.38,-2.19 v -14.01 h -10.05 v 22.470003 m 3.75,0 -0.63,5.76 -0.57,-5.76 v -4.890003 l 4.95,2.58 v 2.310003 l -0.63,5.76 -0.57,-5.76 v -1.590003 l -2.52,-1.32 v 2.910003 h -0.03"
     style="font-size:30px;line-height:125%;font-family:'More than human';-inkscape-font-specification:'More than human'"
     id="path3134" /><path
     inkscape:connector-curvature="0"
     d="m 100.13203,102.57562 -0.629999,5.76 -0.57,-5.76 v -6.120003 h -7.5 v -4.98 h 7.5 v -2.52 h -7.5 v -8.73 h 4.95 v 3.75 h 2.55 v -6.27 h -10.05 v 23.070003 l -0.63,5.76 -0.57,-5.76 V 76.505617 h 12.449999 v 8.67 h -4.949999 v -3.75 h -2.55 v 6.33 h 7.499999 v 4.92 h -7.499999 v 2.58 h 7.499999 v 7.320003"
     style="font-size:30px;line-height:125%;font-family:'More than human';-inkscape-font-specification:'More than human'"
     id="path3136" /><path
     inkscape:connector-curvature="0"
     d="m 110.70937,81.455617 h -2.55 v 5.46 l 2.55,-1.29 v -4.17 m 1.2,-1.2 v 6.12 l -4.95,2.49 v -8.61 h 4.95 m -1.2,14.55 -2.55,-1.29 v 1.71 h 2.55 v -0.42 m 1.2,-0.75 v 2.37 h -4.95 v -4.86 l 4.95,2.49 m 3.75,5.82 -0.62999,5.760003 -0.57001,-5.760003 v -7.41 l -4.37999,-2.31 4.37999,-2.19 v -10.26 h -10.05 v 24.570003 l -0.62999,5.76 -0.57001,-5.76 V 76.505617 h 12.45 v 12.18 l -2.97,1.5 2.97,1.56 v 8.13"
     style="font-size:30px;line-height:125%;font-family:'More than human';-inkscape-font-specification:'More than human'"
     id="path3139" /><path
     inkscape:connector-curvature="0"
     d="m 131.30391,102.57562 -0.63,5.76 -0.57,-5.76 v -6.120003 h -7.5 v -4.98 h 7.5 v -2.52 h -7.5 v -8.73 h 4.95 v 3.75 h 2.55 v -6.27 h -10.05 v 23.070003 l -0.63,5.76 -0.57,-5.76 V 76.505617 h 12.45 v 8.67 h -4.95 v -3.75 h -2.55 v 6.33 h 7.5 v 4.92 h -7.5 v 2.58 h 7.5 v 7.320003"
     style="font-size:30px;line-height:125%;font-family:'More than human';-inkscape-font-specification:'More than human'"
     id="path3141" /><path
     inkscape:connector-curvature="0"
     d="m 143.08125,99.575617 -0.63,5.760003 -0.57,-5.760003 v -3.12 h -3.75 v -18.75 h -2.55 v 24.570003 l -0.63,5.76 -0.57,-5.76 V 76.505617 h 4.95 v 18.75 h 3.75 v 4.32"
     style="font-size:30px;line-height:125%;font-family:'More than human';-inkscape-font-specification:'More than human'"
     id="path3143" /><path
     inkscape:connector-curvature="0"
     d="m 169.38984,100.17562 -0.63,5.76 -0.57,-5.76 V 80.225617 h 3.75 v -2.52 h -10.05 v 2.52 h 3.75 v 19.950003 l -0.63,5.76 -0.57,-5.76 V 81.425617 h -3.75 v -4.92 h 12.45 v 4.92 h -3.75 v 18.750003"
     style="font-size:30px;line-height:125%;font-family:'More than human';-inkscape-font-specification:'More than human'"
     id="path3145" /><path
     inkscape:connector-curvature="0"
     d="m 188.37422,102.57562 -0.63,5.76 -0.57,-5.76 v -6.120003 h -7.5 v -4.98 h 7.5 v -2.52 h -7.5 v -8.73 h 4.95 v 3.75 h 2.55 v -6.27 h -10.05 v 23.070003 l -0.63,5.76 -0.57,-5.76 V 76.505617 h 12.45 v 8.67 h -4.95 v -3.75 h -2.55 v 6.33 h 7.5 v 4.92 h -7.5 v 2.58 h 7.5 v 7.320003"
     style="font-size:30px;line-height:125%;font-family:'More than human';-inkscape-font-specification:'More than human'"
     id="path3147" /><path
     inkscape:connector-curvature="0"
     d="m 203.90156,102.27562 -0.63,5.76 -0.57,-5.76 v -9.570003 h -2.55 v 3.75 h -4.95 v -16.23 h 4.95 v 3.75 h 2.55 v -6.27 h -10.05 v 22.17 l -0.63,5.760003 -0.57,-5.760003 v -23.37 h 12.45 v 8.67 h -4.95 v -3.75 h -2.55 v 13.83 h 2.55 v -3.75 h 4.95 v 10.770003"
     style="font-size:30px;line-height:125%;font-family:'More than human';-inkscape-font-specification:'More than human'"
     id="path3149" /><path
     inkscape:connector-curvature="0"
     d="m 219.37031,100.77562 -0.63,5.76 -0.57,-5.76 V 77.705617 h -2.55 v 15 h -4.95 v -15 h -2.55 v 22.17 l -0.63,5.760003 -0.57,-5.760003 v -23.37 h 4.95 v 15 h 2.55 v -15 h 4.95 v 24.270003 m -3.75,-1.500003 -0.63,5.760003 -0.57,-5.760003 v -2.85 h -2.55 v 7.050003 l -0.63,5.76 -0.57,-5.76 v -8.250003 h 4.95 v 4.05"
     style="font-size:30px;line-height:125%;font-family:'More than human';-inkscape-font-specification:'More than human'"
     id="path3151" /><path
     inkscape:connector-curvature="0"
     d="m 231.44484,100.17562 -0.63,5.76 -0.57,-5.76 -2.7,-7.890003 v 7.29 l -0.63,5.760003 -0.57,-5.760003 h -0.03 l 0.03,-14.43 5.1,15.030003 m 3.57,0.9 -0.63,5.76 -0.57,-5.76 V 77.705617 h -2.58 v 13.83 l -4.77,-13.83 h -2.7 v 25.770003 l -0.63,5.76 -0.57,-5.76 V 76.505617 h 4.77 l 2.7,7.89 v -7.89 h 4.98 v 24.570003"
     style="font-size:30px;line-height:125%;font-family:'More than human';-inkscape-font-specification:'More than human'"
     id="path3153" /><path
     inkscape:connector-curvature="0"
     d="m 245.70937,81.455617 h -2.55 v 13.77 h 2.55 v -13.77 m 1.2,-1.2 v 16.17 h -4.95 v -16.17 h 4.95 m 3.75,19.62 -0.63,5.760003 -0.57,-5.760003 v -22.17 h -10.05 v 25.470003 l -0.63,5.76 -0.57,-5.76 V 76.505617 h 12.45 v 23.37"
     style="font-size:30px;line-height:125%;font-family:'More than human';-inkscape-font-specification:'More than human'"
     id="path3155" /><path
     inkscape:connector-curvature="0"
     d="m 262.55391,99.575617 -0.63,5.760003 -0.57,-5.760003 v -3.12 h -3.75 v -18.75 h -2.55 v 24.570003 l -0.63,5.76 -0.57,-5.76 V 76.505617 h 4.95 v 18.75 h 3.75 v 4.32"
     style="font-size:30px;line-height:125%;font-family:'More than human';-inkscape-font-specification:'More than human'"
     id="path3157" /><path
     inkscape:connector-curvature="0"
     d="m 272.6625,81.455617 h -2.55 v 13.77 h 2.55 v -13.77 m 1.2,-1.2 v 16.17 h -4.95 v -16.17 h 4.95 m 3.75,19.62 -0.63,5.760003 -0.57,-5.760003 v -22.17 h -10.05 v 25.470003 l -0.63,5.76 -0.57,-5.76 V 76.505617 h 12.45 v 23.37"
     style="font-size:30px;line-height:125%;font-family:'More than human';-inkscape-font-specification:'More than human'"
     id="path3159" /><path
     inkscape:connector-curvature="0"
     d="m 293.25703,101.97562 -0.63,5.76 -0.57,-5.76 V 88.955617 h -2.55 v 7.5 h -4.95 v -16.23 h 4.95 v 3.75 h 2.55 v -6.27 h -10.05 v 21.87 l -0.63,5.760003 -0.57,-5.760003 v -23.07 h 12.45 v 8.67 h -4.95 v -3.75 h -2.55 v 13.83 h 2.55 v -7.5 h 4.95 v 14.220003"
     style="font-size:30px;line-height:125%;font-family:'More than human';-inkscape-font-specification:'More than human'"
     id="path3161" /><path
     inkscape:connector-curvature="0"
     d="m 308.84297,99.575617 -0.63,5.760003 -0.57,-5.760003 v -21.87 h -2.55 v 11.25 h -4.95 v -11.25 h -2.55 v 13.77 h 7.5 v 4.98 h -7.5 v 7.320003 l -0.63,5.76 -0.57,-5.76 v -8.520003 h 7.5 v -2.58 h -7.5 v -16.17 h 4.95 v 11.25 h 2.55 v -11.25 h 4.95 v 23.07"
     style="font-size:30px;line-height:125%;font-family:'More than human';-inkscape-font-specification:'More than human'"
     id="path3163" /></g><g
   transform="matrix(2.4062261,0,0,-2.406237,-253.37539,1404.1036)"
   id="g6976"><path
     inkscape:connector-curvature="0"
     id="path6978"
     d="m 122.636,250.868 5.238,9.065 5.229,-9.065 h 0.898 l -0.035,0.061 v 13.885 h -0.784 v -12.525 l -5.309,9.187 -5.316,-9.187 v 12.525 h -0.785 v -13.885 l -0.034,-0.061 z" /><path
     inkscape:connector-curvature="0"
     id="path6980"
     d="m 137.576,250.868 v 13.946 h -0.785 v -13.946 z" /><path
     inkscape:connector-curvature="0"
     id="path6982"
     d="m 139.493,264.813 4.419,-7.661 -3.626,-6.285 h 0.898 l 3.173,5.509 3.189,-5.509 h 0.897 l -3.643,6.285 4.437,7.661 h -0.898 l -3.982,-6.886 -3.975,6.886 z" /><path
     inkscape:connector-curvature="0"
     id="path6984"
     d="m 161.077,260.272 c 0,1.319 -0.466,2.446 -1.398,3.382 -0.932,0.936 -2.062,1.403 -3.387,1.403 -1.319,0 -2.446,-0.468 -3.382,-1.403 -0.936,-0.935 -1.403,-2.063 -1.403,-3.382 v -4.62 c 0,-1.319 0.468,-2.446 1.403,-3.382 0.935,-0.936 2.062,-1.403 3.382,-1.403 1.325,0 2.454,0.468 3.387,1.403 0.933,0.935 1.398,2.063 1.398,3.382 z m -0.829,-4.619 c 0,-1.092 -0.386,-2.023 -1.159,-2.793 -0.772,-0.77 -1.705,-1.155 -2.798,-1.155 -1.092,0 -2.024,0.385 -2.798,1.155 -0.772,0.77 -1.159,1.701 -1.159,2.793 v 4.62 c 0,1.092 0.387,2.023 1.159,2.793 0.773,0.77 1.706,1.155 2.798,1.155 1.093,0 2.025,-0.385 2.798,-1.155 0.773,-0.77 1.159,-1.701 1.159,-2.793 z" /><path
     inkscape:connector-curvature="0"
     id="path6986"
     d="m 166.698,257.03 -0.653,-0.018 v -0.785 c 0.54,-0.005 0.983,-0.075 1.329,-0.209 0.346,-0.134 0.721,-0.416 1.124,-0.846 0.404,-0.43 0.606,-0.941 0.606,-1.534 0,-0.599 -0.209,-1.105 -0.628,-1.521 -0.418,-0.416 -0.924,-0.623 -1.517,-0.623 -0.587,0 -1.093,0.206 -1.517,0.619 -0.232,0.238 -0.403,0.505 -0.514,0.802 l -0.75,-0.296 c 0.128,-0.407 0.352,-0.764 0.671,-1.072 0.587,-0.581 1.29,-0.872 2.109,-0.872 0.831,0 1.535,0.292 2.114,0.876 0.578,0.584 0.867,1.28 0.867,2.087 0,0.825 -0.222,1.475 -0.663,1.948 -0.441,0.474 -0.854,0.789 -1.237,0.946 0.837,0.279 1.531,0.715 2.083,1.308 0.796,0.854 1.194,1.854 1.194,2.998 0,1.15 -0.405,2.133 -1.216,2.946 -0.811,0.813 -1.791,1.22 -2.942,1.22 -1.145,0 -2.123,-0.41 -2.937,-1.229 -0.646,-0.651 -1.034,-1.412 -1.168,-2.284 l 0.793,-0.288 c 0.081,0.773 0.4,1.438 0.959,1.996 0.656,0.651 1.44,0.976 2.353,0.976 0.925,0 1.712,-0.325 2.362,-0.976 0.651,-0.651 0.977,-1.438 0.977,-2.362 0,-0.918 -0.317,-1.723 -0.95,-2.414 -0.633,-0.69 -1.582,-1.154 -2.849,-1.393 z" /></g><text
   xml:space="preserve"
   style="font-style:normal;font-variant:normal;font-weight:normal;font-stretch:normal;line-height:0%;font-family:sans-serif;-inkscape-font-specification:Sans;text-align:start;letter-spacing:0px;word-spacing:0px;writing-mode:lr-tb;text-anchor:start;fill:#000000;fill-opacity:1;stroke:none"
   x="20.826212"
   y="-742.00104"
   id="text6700"
   transform="scale(0.99999999,-1)"><tspan
     sodipodi:role="line"
     id="tspan6702"
     x="20.826212"
     y="-742.00104"
     style="font-size:6.82608986px;line-height:1.25;font-family:sans-serif">mix-03</tspan></text>

<text
   id="text3207"
   y="-753.09662"
   x="20.826212"
   style="font-style:normal;font-variant:normal;font-weight:normal;font-stretch:normal;line-height:0%;font-family:sans-serif;-inkscape-font-specification:Sans;text-align:start;letter-spacing:0px;word-spacing:0px;writing-mode:lr-tb;text-anchor:start;fill:#000000;fill-opacity:1;stroke:none"
   xml:space="preserve"
   transform="scale(0.99999999,-1)"><tspan
     y="-753.09662"
     x="20.826212"
     id="tspan3209"
     sodipodi:role="line"
     style="font-size:6.82608986px;line-height:1.25;font-family:sans-serif">Rebel Technology</tspan></text>

<g
   style="fill:#000000"
   id="barcode"
   transform="matrix(0.6863186,0,0,-0.68631988,-85.666199,1268.9929)"><rect
   id="barcode_bar1"
   height="30"
   width="1"
   y="740"
   x="293" /><rect
   id="barcode_bar3"
   height="30"
   width="1"
   y="740"
   x="295" /><rect
   id="barcode_bar5"
   height="25"
   width="2"
   y="740"
   x="299" /><rect
   id="barcode_bar7"
   height="25"
   width="1"
   y="740"
   x="302" /><rect
   id="barcode_bar9"
   height="25"
   width="1"
   y="740"
   x="307" /><rect
   id="barcode_bar11"
   height="25"
   width="1"
   y="740"
   x="309" /><rect
   id="barcode_bar13"
   height="25"
   width="1"
   y="740"
   x="311" /><rect
   id="barcode_bar15"
   height="25"
   width="3"
   y="740"
   x="314" /><rect
   id="barcode_bar17"
   height="25"
   width="2"
   y="740"
   x="318" /><rect
   id="barcode_bar19"
   height="25"
   width="1"
   y="740"
   x="323" /><rect
   id="barcode_bar21"
   height="25"
   width="1"
   y="740"
   x="326" /><rect
   id="barcode_bar23"
   height="25"
   width="2"
   y="740"
   x="329" /><rect
   id="barcode_bar25"
   height="25"
   width="1"
   y="740"
   x="332" /><rect
   id="barcode_bar27"
   height="25"
   width="3"
   y="740"
   x="335" /><rect
   id="barcode_bar29"
   height="30"
   width="1"
   y="740"
   x="339" /><rect
   id="barcode_bar31"
   height="30"
   width="1"
   y="740"
   x="341" /><rect
   id="barcode_bar33"
   height="25"
   width="1"
   y="740"
   x="343" /><rect
   id="barcode_bar35"
   height="25"
   width="1"
   y="740"
   x="348" /><rect
   id="barcode_bar37"
   height="25"
   width="2"
   y="740"
   x="350" /><rect
   id="barcode_bar39"
   height="25"
   width="2"
   y="740"
   x="354" /><rect
   id="barcode_bar41"
   height="25"
   width="3"
   y="740"
   x="357" /><rect
   id="barcode_bar43"
   height="25"
   width="1"
   y="740"
   x="362" /><rect
   id="barcode_bar45"
   height="25"
   width="2"
   y="740"
   x="364" /><rect
   id="barcode_bar47"
   height="25"
   width="2"
   y="740"
   x="368" /><rect
   id="barcode_bar49"
   height="25"
   width="2"
   y="740"
   x="371" /><rect
   id="barcode_bar51"
   height="25"
   width="2"
   y="740"
   x="374" /><rect
   id="barcode_bar53"
   height="25"
   width="2"
   y="740"
   x="378" /><rect
   id="barcode_bar55"
   height="25"
   width="2"
   y="740"
   x="382" /><rect
   id="barcode_bar57"
   height="30"
   width="1"
   y="740"
   x="385" /><rect
   id="barcode_bar59"
   height="30"
   width="1"
   y="740"
   x="387" /><text
   id="barcode_bottomtext"
   xml:space="preserve"
   style="font-size:9px;line-height:0%;text-align:center;text-anchor:middle"
   y="775"
   x="340">5    060520    310121       </text>

</g></g><use
       id="use8245"
       transform="translate(0,127.90084)"
       xlink:href="#g4685"
       inkscape:tiled-clone-of="#g4685"
       y="0"
       x="0"
       width="100%"
       height="100%" /><use
       id="use8247"
       transform="translate(0,255.80084)"
       xlink:href="#g4685"
       inkscape:tiled-clone-of="#g4685"
       y="0"
       x="0"
       width="100%"
       height="100%" /><use
       id="use8249"
       transform="translate(0,383.70084)"
       xlink:href="#g4685"
       inkscape:tiled-clone-of="#g4685"
       y="0"
       x="0"
       width="100%"
       height="100%" /><use
       id="use8251"
       transform="translate(0,511.60084)"
       xlink:href="#g4685"
       inkscape:tiled-clone-of="#g4685"
       y="0"
       x="0"
       width="100%"
       height="100%" /><use
       id="use8253"
       transform="translate(0,639.50084)"
       xlink:href="#g4685"
       inkscape:tiled-clone-of="#g4685"
       y="0"
       x="0"
       width="100%"
       height="100%" /><use
       id="use8255"
       transform="translate(0,767.40164)"
       xlink:href="#g4685"
       inkscape:tiled-clone-of="#g4685"
       y="0"
       x="0"
       width="100%"
       height="100%" /><use
       id="use8257"
       transform="translate(214.26911,2.1776445)"
       xlink:href="#g4685"
       inkscape:tiled-clone-of="#g4685"
       y="0"
       x="0"
       width="100%"
       height="100%" /><use
       id="use8259"
       transform="translate(212.364,127.90054)"
       xlink:href="#g4685"
       inkscape:tiled-clone-of="#g4685"
       y="0"
       x="0"
       width="100%"
       height="100%" /><use
       id="use8261"
       transform="translate(212.364,255.80054)"
       xlink:href="#g4685"
       inkscape:tiled-clone-of="#g4685"
       y="0"
       x="0"
       width="100%"
       height="100%" /><use
       id="use8263"
       transform="translate(212.364,383.70054)"
       xlink:href="#g4685"
       inkscape:tiled-clone-of="#g4685"
       y="0"
       x="0"
       width="100%"
       height="100%" /><use
       id="use8265"
       transform="translate(212.364,511.60054)"
       xlink:href="#g4685"
       inkscape:tiled-clone-of="#g4685"
       y="0"
       x="0"
       width="100%"
       height="100%" /><use
       id="use8267"
       transform="translate(212.364,639.50054)"
       xlink:href="#g4685"
       inkscape:tiled-clone-of="#g4685"
       y="0"
       x="0"
       width="100%"
       height="100%" /><use
       id="use8269"
       transform="translate(212.364,767.40134)"
       xlink:href="#g4685"
       inkscape:tiled-clone-of="#g4685"
       y="0"
       x="0"
       width="100%"
       height="100%" /><use
       id="use8271"
       transform="translate(426.63311,2.1776445)"
       xlink:href="#g4685"
       inkscape:tiled-clone-of="#g4685"
       y="0"
       x="0"
       width="100%"
       height="100%" /><use
       id="use8273"
       transform="translate(424.728,127.90054)"
       xlink:href="#g4685"
       inkscape:tiled-clone-of="#g4685"
       y="0"
       x="0"
       width="100%"
       height="100%" /><use
       id="use8275"
       transform="translate(424.728,255.80054)"
       xlink:href="#g4685"
       inkscape:tiled-clone-of="#g4685"
       y="0"
       x="0"
       width="100%"
       height="100%" /><use
       id="use8277"
       transform="translate(424.728,383.70054)"
       xlink:href="#g4685"
       inkscape:tiled-clone-of="#g4685"
       y="0"
       x="0"
       width="100%"
       height="100%" /><use
       id="use8279"
       transform="translate(424.728,511.60054)"
       xlink:href="#g4685"
       inkscape:tiled-clone-of="#g4685"
       y="0"
       x="0"
       width="100%"
       height="100%" /><use
       id="use8281"
       transform="translate(424.728,639.50054)"
       xlink:href="#g4685"
       inkscape:tiled-clone-of="#g4685"
       y="0"
       x="0"
       width="100%"
       height="100%" /><use
       id="use8283"
       transform="translate(424.728,767.40134)"
       xlink:href="#g4685"
       inkscape:tiled-clone-of="#g4685"
       y="0"
       x="0"
       width="100%"
       height="100%" /></g></svg>