<?xml version="1.0" encoding="UTF-8" standalone="no"?>
<!-- Created with Inkscape (http://www.inkscape.org/) -->

<svg
   xmlns:dc="http://purl.org/dc/elements/1.1/"
   xmlns:cc="http://creativecommons.org/ns#"
   xmlns:rdf="http://www.w3.org/1999/02/22-rdf-syntax-ns#"
   xmlns:svg="http://www.w3.org/2000/svg"
   xmlns="http://www.w3.org/2000/svg"
   xmlns:xlink="http://www.w3.org/1999/xlink"
   xmlns:sodipodi="http://sodipodi.sourceforge.net/DTD/sodipodi-0.dtd"
   xmlns:inkscape="http://www.inkscape.org/namespaces/inkscape"
   id="svg4373"
   version="1.1"
   inkscape:version="0.48.4 r9939"
   width="744.095"
   height="1052.3625"
   xml:space="preserve"
   sodipodi:docname="Mix03Labels.svg"><sodipodi:namedview
     pagecolor="#ffffff"
     bordercolor="#666666"
     borderopacity="1"
     objecttolerance="10"
     gridtolerance="10"
     guidetolerance="10"
     inkscape:pageopacity="0"
     inkscape:pageshadow="2"
     inkscape:window-width="1680"
     inkscape:window-height="1000"
     id="namedview4375"
     showgrid="false"
     inkscape:zoom="0.78444474"
     inkscape:cx="375.83703"
     inkscape:cy="526.36646"
     inkscape:window-x="0"
     inkscape:window-y="0"
     inkscape:window-maximized="1"
     inkscape:current-layer="g4685"
     inkscape:document-units="mm"
     showguides="false"
     inkscape:guide-bbox="true" /><metadata
     id="metadata4379"><rdf:RDF><cc:Work
         rdf:about=""><dc:format>image/svg+xml</dc:format><dc:type
           rdf:resource="http://purl.org/dc/dcmitype/StillImage" /><dc:title /></cc:Work></rdf:RDF></metadata><defs
     id="defs4377"><clipPath
       id="clipPath4387"
       clipPathUnits="userSpaceOnUse"><path
         id="path4389"
         d="m 0,0 595.276,0 0,841.89 L 0,841.89 0,0 z" /></clipPath><clipPath
       id="clipPath4421"
       clipPathUnits="userSpaceOnUse"><path
         id="path4423"
         d="m 0,0 595.276,0 0,841.89 L 0,841.89 0,0 z" /></clipPath><clipPath
       id="clipPath4443"
       clipPathUnits="userSpaceOnUse"><path
         id="path4445"
         d="m 0,0 595.276,0 0,841.89 L 0,841.89 0,0 z" /></clipPath><clipPath
       id="clipPath7941"
       clipPathUnits="userSpaceOnUse"><path
         id="path7943"
         d="m 0,0 595.276,0 0,841.89 L 0,841.89 0,0 z"
         inkscape:connector-curvature="0" /></clipPath><clipPath
       id="clipPath7975"
       clipPathUnits="userSpaceOnUse"><path
         id="path7977"
         d="m 0,0 595.276,0 0,841.89 L 0,841.89 0,0 z"
         inkscape:connector-curvature="0" /></clipPath><clipPath
       id="clipPath7997"
       clipPathUnits="userSpaceOnUse"><path
         id="path7999"
         d="m 0,0 595.276,0 0,841.89 L 0,841.89 0,0 z"
         inkscape:connector-curvature="0" /></clipPath></defs><g
     transform="matrix(1.25,0,0,-1.25,0,1052.3625)"
     inkscape:label="Label Planet LP21 70 Portrait"
     inkscape:groupmode="layer"
     id="g4381"><g
       inkscape:tile-y0="912.55037"
       inkscape:tile-x0="22.281616"
       inkscape:tile-h="129.62935"
       inkscape:tile-w="203.15552"
       inkscape:tile-cy="977.36505"
       inkscape:tile-cx="123.85937"
       transform="matrix(1.0000045,0,0,1,0.22200192,-721.66836)"
       id="g4685"><g
         transform="matrix(0.68631727,0,0,-0.68631727,-31.837369,883.75758)"
         style="font-size:40px;font-style:normal;font-variant:normal;font-weight:normal;font-stretch:normal;text-align:start;line-height:125%;letter-spacing:0px;word-spacing:0px;writing-mode:lr-tb;text-anchor:start;fill:#000000;fill-opacity:1;stroke:none;font-family:More than human;-inkscape-font-specification:More than human"
         id="flowRoot2985"><path
           inkscape:connector-curvature="0"
           d="m 79.5375,81.455617 -2.55,0 0,9.21 2.55,-1.29 0,-7.92 m 1.2,-1.2 0,9.87 -4.95,2.49 0,-12.36 4.95,0 m -7.5,19.920003 -0.63,5.76 -0.57,-5.76 0,-23.670003 12.45,0 0,15.93 -2.97,1.5 2.97,1.56 0,4.680003 -0.63,5.76 -0.57,-5.76 0,-3.960003 -4.38,-2.31 4.38,-2.19 0,-14.01 -10.05,0 0,22.470003 m 3.75,0 -0.63,5.76 -0.57,-5.76 0,-4.890003 4.95,2.58 0,2.310003 -0.63,5.76 -0.57,-5.76 0,-1.590003 -2.52,-1.32 0,2.910003 -0.03,0"
           style="font-size:30px;line-height:125%;font-family:More than human;-inkscape-font-specification:More than human"
           id="path3134" /><path
           inkscape:connector-curvature="0"
           d="m 100.13203,102.57562 -0.629999,5.76 -0.57,-5.76 0,-6.120003 -7.5,0 0,-4.98 7.5,0 0,-2.52 -7.5,0 0,-8.73 4.95,0 0,3.75 2.55,0 0,-6.27 -10.05,0 0,23.070003 -0.63,5.76 -0.57,-5.76 0,-24.270003 12.449999,0 0,8.67 -4.949999,0 0,-3.75 -2.55,0 0,6.33 7.499999,0 0,4.92 -7.499999,0 0,2.58 7.499999,0 0,7.320003"
           style="font-size:30px;line-height:125%;font-family:More than human;-inkscape-font-specification:More than human"
           id="path3136" /><path
           inkscape:connector-curvature="0"
           d="m 110.70937,81.455617 -2.55,0 0,5.46 2.55,-1.29 0,-4.17 m 1.2,-1.2 0,6.12 -4.95,2.49 0,-8.61 4.95,0 m -1.2,14.55 -2.55,-1.29 0,1.71 2.55,0 0,-0.42 m 1.2,-0.75 0,2.37 -4.95,0 0,-4.86 4.95,2.49 m 3.75,5.82 -0.62999,5.760003 -0.57001,-5.760003 0,-7.41 -4.37999,-2.31 4.37999,-2.19 0,-10.26 -10.05,0 0,24.570003 -0.62999,5.76 -0.57001,-5.76 0,-25.770003 12.45,0 0,12.18 -2.97,1.5 2.97,1.56 0,8.13"
           style="font-size:30px;line-height:125%;font-family:More than human;-inkscape-font-specification:More than human"
           id="path3139" /><path
           inkscape:connector-curvature="0"
           d="m 131.30391,102.57562 -0.63,5.76 -0.57,-5.76 0,-6.120003 -7.5,0 0,-4.98 7.5,0 0,-2.52 -7.5,0 0,-8.73 4.95,0 0,3.75 2.55,0 0,-6.27 -10.05,0 0,23.070003 -0.63,5.76 -0.57,-5.76 0,-24.270003 12.45,0 0,8.67 -4.95,0 0,-3.75 -2.55,0 0,6.33 7.5,0 0,4.92 -7.5,0 0,2.58 7.5,0 0,7.320003"
           style="font-size:30px;line-height:125%;font-family:More than human;-inkscape-font-specification:More than human"
           id="path3141" /><path
           inkscape:connector-curvature="0"
           d="m 143.08125,99.575617 -0.63,5.760003 -0.57,-5.760003 0,-3.12 -3.75,0 0,-18.75 -2.55,0 0,24.570003 -0.63,5.76 -0.57,-5.76 0,-25.770003 4.95,0 0,18.75 3.75,0 0,4.32"
           style="font-size:30px;line-height:125%;font-family:More than human;-inkscape-font-specification:More than human"
           id="path3143" /><path
           inkscape:connector-curvature="0"
           d="m 169.38984,100.17562 -0.63,5.76 -0.57,-5.76 0,-19.950003 3.75,0 0,-2.52 -10.05,0 0,2.52 3.75,0 0,19.950003 -0.63,5.76 -0.57,-5.76 0,-18.750003 -3.75,0 0,-4.92 12.45,0 0,4.92 -3.75,0 0,18.750003"
           style="font-size:30px;line-height:125%;font-family:More than human;-inkscape-font-specification:More than human"
           id="path3145" /><path
           inkscape:connector-curvature="0"
           d="m 188.37422,102.57562 -0.63,5.76 -0.57,-5.76 0,-6.120003 -7.5,0 0,-4.98 7.5,0 0,-2.52 -7.5,0 0,-8.73 4.95,0 0,3.75 2.55,0 0,-6.27 -10.05,0 0,23.070003 -0.63,5.76 -0.57,-5.76 0,-24.270003 12.45,0 0,8.67 -4.95,0 0,-3.75 -2.55,0 0,6.33 7.5,0 0,4.92 -7.5,0 0,2.58 7.5,0 0,7.320003"
           style="font-size:30px;line-height:125%;font-family:More than human;-inkscape-font-specification:More than human"
           id="path3147" /><path
           inkscape:connector-curvature="0"
           d="m 203.90156,102.27562 -0.63,5.76 -0.57,-5.76 0,-9.570003 -2.55,0 0,3.75 -4.95,0 0,-16.23 4.95,0 0,3.75 2.55,0 0,-6.27 -10.05,0 0,22.17 -0.63,5.760003 -0.57,-5.760003 0,-23.37 12.45,0 0,8.67 -4.95,0 0,-3.75 -2.55,0 0,13.83 2.55,0 0,-3.75 4.95,0 0,10.770003"
           style="font-size:30px;line-height:125%;font-family:More than human;-inkscape-font-specification:More than human"
           id="path3149" /><path
           inkscape:connector-curvature="0"
           d="m 219.37031,100.77562 -0.63,5.76 -0.57,-5.76 0,-23.070003 -2.55,0 0,15 -4.95,0 0,-15 -2.55,0 0,22.17 -0.63,5.760003 -0.57,-5.760003 0,-23.37 4.95,0 0,15 2.55,0 0,-15 4.95,0 0,24.270003 m -3.75,-1.500003 -0.63,5.760003 -0.57,-5.760003 0,-2.85 -2.55,0 0,7.050003 -0.63,5.76 -0.57,-5.76 0,-8.250003 4.95,0 0,4.05"
           style="font-size:30px;line-height:125%;font-family:More than human;-inkscape-font-specification:More than human"
           id="path3151" /><path
           inkscape:connector-curvature="0"
           d="m 231.44484,100.17562 -0.63,5.76 -0.57,-5.76 -2.7,-7.890003 0,7.29 -0.63,5.760003 -0.57,-5.760003 -0.03,0 0.03,-14.43 5.1,15.030003 m 3.57,0.9 -0.63,5.76 -0.57,-5.76 0,-23.370003 -2.58,0 0,13.83 -4.77,-13.83 -2.7,0 0,25.770003 -0.63,5.76 -0.57,-5.76 0,-26.970003 4.77,0 2.7,7.89 0,-7.89 4.98,0 0,24.570003"
           style="font-size:30px;line-height:125%;font-family:More than human;-inkscape-font-specification:More than human"
           id="path3153" /><path
           inkscape:connector-curvature="0"
           d="m 245.70937,81.455617 -2.55,0 0,13.77 2.55,0 0,-13.77 m 1.2,-1.2 0,16.17 -4.95,0 0,-16.17 4.95,0 m 3.75,19.62 -0.63,5.760003 -0.57,-5.760003 0,-22.17 -10.05,0 0,25.470003 -0.63,5.76 -0.57,-5.76 0,-26.670003 12.45,0 0,23.37"
           style="font-size:30px;line-height:125%;font-family:More than human;-inkscape-font-specification:More than human"
           id="path3155" /><path
           inkscape:connector-curvature="0"
           d="m 262.55391,99.575617 -0.63,5.760003 -0.57,-5.760003 0,-3.12 -3.75,0 0,-18.75 -2.55,0 0,24.570003 -0.63,5.76 -0.57,-5.76 0,-25.770003 4.95,0 0,18.75 3.75,0 0,4.32"
           style="font-size:30px;line-height:125%;font-family:More than human;-inkscape-font-specification:More than human"
           id="path3157" /><path
           inkscape:connector-curvature="0"
           d="m 272.6625,81.455617 -2.55,0 0,13.77 2.55,0 0,-13.77 m 1.2,-1.2 0,16.17 -4.95,0 0,-16.17 4.95,0 m 3.75,19.62 -0.63,5.760003 -0.57,-5.760003 0,-22.17 -10.05,0 0,25.470003 -0.63,5.76 -0.57,-5.76 0,-26.670003 12.45,0 0,23.37"
           style="font-size:30px;line-height:125%;font-family:More than human;-inkscape-font-specification:More than human"
           id="path3159" /><path
           inkscape:connector-curvature="0"
           d="m 293.25703,101.97562 -0.63,5.76 -0.57,-5.76 0,-13.020003 -2.55,0 0,7.5 -4.95,0 0,-16.23 4.95,0 0,3.75 2.55,0 0,-6.27 -10.05,0 0,21.87 -0.63,5.760003 -0.57,-5.760003 0,-23.07 12.45,0 0,8.67 -4.95,0 0,-3.75 -2.55,0 0,13.83 2.55,0 0,-7.5 4.95,0 0,14.220003"
           style="font-size:30px;line-height:125%;font-family:More than human;-inkscape-font-specification:More than human"
           id="path3161" /><path
           inkscape:connector-curvature="0"
           d="m 308.84297,99.575617 -0.63,5.760003 -0.57,-5.760003 0,-21.87 -2.55,0 0,11.25 -4.95,0 0,-11.25 -2.55,0 0,13.77 7.5,0 0,4.98 -7.5,0 0,7.320003 -0.63,5.76 -0.57,-5.76 0,-8.520003 7.5,0 0,-2.58 -7.5,0 0,-16.17 4.95,0 0,11.25 2.55,0 0,-11.25 4.95,0 0,23.07"
           style="font-size:30px;line-height:125%;font-family:More than human;-inkscape-font-specification:More than human"
           id="path3163" /></g><g
         transform="matrix(2.4062261,0,0,-2.406237,-255.28049,1401.9257)"
         id="g6976"><path
           inkscape:connector-curvature="0"
           id="path6978"
           d="m 122.636,250.868 5.238,9.065 5.229,-9.065 h 0.898 l -0.035,0.061 v 13.885 h -0.784 v -12.525 l -5.309,9.187 -5.316,-9.187 v 12.525 h -0.785 v -13.885 l -0.034,-0.061 h 0.898 z" /><path
           inkscape:connector-curvature="0"
           id="path6980"
           d="m 137.576,250.868 v 13.946 h -0.785 v -13.946 h 0.785 z" /><path
           inkscape:connector-curvature="0"
           id="path6982"
           d="m 139.493,264.813 4.419,-7.661 -3.626,-6.285 h 0.898 l 3.173,5.509 3.189,-5.509 h 0.897 l -3.643,6.285 4.437,7.661 h -0.898 l -3.982,-6.886 -3.975,6.886 h -0.889 z" /><path
           inkscape:connector-curvature="0"
           id="path6984"
           d="m 161.077,260.272 c 0,1.319 -0.466,2.446 -1.398,3.382 -0.932,0.936 -2.062,1.403 -3.387,1.403 -1.319,0 -2.446,-0.468 -3.382,-1.403 -0.936,-0.935 -1.403,-2.063 -1.403,-3.382 v -4.62 c 0,-1.319 0.468,-2.446 1.403,-3.382 0.935,-0.936 2.062,-1.403 3.382,-1.403 1.325,0 2.454,0.468 3.387,1.403 0.933,0.935 1.398,2.063 1.398,3.382 v 4.62 z m -0.829,-4.619 c 0,-1.092 -0.386,-2.023 -1.159,-2.793 -0.772,-0.77 -1.705,-1.155 -2.798,-1.155 -1.092,0 -2.024,0.385 -2.798,1.155 -0.772,0.77 -1.159,1.701 -1.159,2.793 v 4.62 c 0,1.092 0.387,2.023 1.159,2.793 0.773,0.77 1.706,1.155 2.798,1.155 1.093,0 2.025,-0.385 2.798,-1.155 0.773,-0.77 1.159,-1.701 1.159,-2.793 v -4.62 z" /><path
           inkscape:connector-curvature="0"
           id="path6986"
           d="m 166.698,257.03 -0.653,-0.018 v -0.785 c 0.54,-0.005 0.983,-0.075 1.329,-0.209 0.346,-0.134 0.721,-0.416 1.124,-0.846 0.404,-0.43 0.606,-0.941 0.606,-1.534 0,-0.599 -0.209,-1.105 -0.628,-1.521 -0.418,-0.416 -0.924,-0.623 -1.517,-0.623 -0.587,0 -1.093,0.206 -1.517,0.619 -0.232,0.238 -0.403,0.505 -0.514,0.802 l -0.75,-0.296 c 0.128,-0.407 0.352,-0.764 0.671,-1.072 0.587,-0.581 1.29,-0.872 2.109,-0.872 0.831,0 1.535,0.292 2.114,0.876 0.578,0.584 0.867,1.28 0.867,2.087 0,0.825 -0.222,1.475 -0.663,1.948 -0.441,0.474 -0.854,0.789 -1.237,0.946 0.837,0.279 1.531,0.715 2.083,1.308 0.796,0.854 1.194,1.854 1.194,2.998 0,1.15 -0.405,2.133 -1.216,2.946 -0.811,0.813 -1.791,1.22 -2.942,1.22 -1.145,0 -2.123,-0.41 -2.937,-1.229 -0.646,-0.651 -1.034,-1.412 -1.168,-2.284 l 0.793,-0.288 c 0.081,0.773 0.4,1.438 0.959,1.996 0.656,0.651 1.44,0.976 2.353,0.976 0.925,0 1.712,-0.325 2.362,-0.976 0.651,-0.651 0.977,-1.438 0.977,-2.362 0,-0.918 -0.317,-1.723 -0.95,-2.414 -0.633,-0.69 -1.582,-1.154 -2.849,-1.393 z" /></g><text
         xml:space="preserve"
         style="font-size:6.82608986px;font-style:normal;font-variant:normal;font-weight:normal;font-stretch:normal;text-align:start;line-height:125%;letter-spacing:0px;word-spacing:0px;writing-mode:lr-tb;text-anchor:start;fill:#000000;fill-opacity:1;stroke:none;font-family:Sans;-inkscape-font-specification:Sans"
         x="18.921112"
         y="-739.82312"
         id="text6700"
         sodipodi:linespacing="125%"
         transform="scale(0.99999999,-1)"><tspan
           sodipodi:role="line"
           id="tspan6702"
           x="18.921112"
           y="-739.82312">mix-03</tspan></text>
<text
         sodipodi:linespacing="125%"
         id="text3207"
         y="-750.9187"
         x="18.921112"
         style="font-size:6.82608986px;font-style:normal;font-variant:normal;font-weight:normal;font-stretch:normal;text-align:start;line-height:125%;letter-spacing:0px;word-spacing:0px;writing-mode:lr-tb;text-anchor:start;fill:#000000;fill-opacity:1;stroke:none;font-family:Sans;-inkscape-font-specification:Sans"
         xml:space="preserve"
         transform="scale(0.99999999,-1)"><tspan
           y="-750.9187"
           x="18.921112"
           id="tspan3209"
           sodipodi:role="line">Rebel Technology</tspan></text>
<g
         style="fill:#000000"
         id="barcode"
         transform="matrix(0.6863186,0,0,-0.68631988,-87.571298,1266.815)"><rect
           id="barcode_bar1"
           height="30"
           width="1"
           y="740"
           x="293" /><rect
           id="barcode_bar3"
           height="30"
           width="1"
           y="740"
           x="295" /><rect
           id="barcode_bar5"
           height="25"
           width="2"
           y="740"
           x="299" /><rect
           id="barcode_bar7"
           height="25"
           width="1"
           y="740"
           x="302" /><rect
           id="barcode_bar9"
           height="25"
           width="1"
           y="740"
           x="307" /><rect
           id="barcode_bar11"
           height="25"
           width="1"
           y="740"
           x="309" /><rect
           id="barcode_bar13"
           height="25"
           width="1"
           y="740"
           x="311" /><rect
           id="barcode_bar15"
           height="25"
           width="3"
           y="740"
           x="314" /><rect
           id="barcode_bar17"
           height="25"
           width="2"
           y="740"
           x="318" /><rect
           id="barcode_bar19"
           height="25"
           width="1"
           y="740"
           x="323" /><rect
           id="barcode_bar21"
           height="25"
           width="1"
           y="740"
           x="326" /><rect
           id="barcode_bar23"
           height="25"
           width="2"
           y="740"
           x="329" /><rect
           id="barcode_bar25"
           height="25"
           width="1"
           y="740"
           x="332" /><rect
           id="barcode_bar27"
           height="25"
           width="3"
           y="740"
           x="335" /><rect
           id="barcode_bar29"
           height="30"
           width="1"
           y="740"
           x="339" /><rect
           id="barcode_bar31"
           height="30"
           width="1"
           y="740"
           x="341" /><rect
           id="barcode_bar33"
           height="25"
           width="1"
           y="740"
           x="343" /><rect
           id="barcode_bar35"
           height="25"
           width="1"
           y="740"
           x="348" /><rect
           id="barcode_bar37"
           height="25"
           width="2"
           y="740"
           x="350" /><rect
           id="barcode_bar39"
           height="25"
           width="2"
           y="740"
           x="354" /><rect
           id="barcode_bar41"
           height="25"
           width="3"
           y="740"
           x="357" /><rect
           id="barcode_bar43"
           height="25"
           width="1"
           y="740"
           x="362" /><rect
           id="barcode_bar45"
           height="25"
           width="2"
           y="740"
           x="364" /><rect
           id="barcode_bar47"
           height="25"
           width="2"
           y="740"
           x="368" /><rect
           id="barcode_bar49"
           height="25"
           width="2"
           y="740"
           x="371" /><rect
           id="barcode_bar51"
           height="25"
           width="2"
           y="740"
           x="374" /><rect
           id="barcode_bar53"
           height="25"
           width="2"
           y="740"
           x="378" /><rect
           id="barcode_bar55"
           height="25"
           width="2"
           y="740"
           x="382" /><rect
           id="barcode_bar57"
           height="30"
           width="1"
           y="740"
           x="385" /><rect
           id="barcode_bar59"
           height="30"
           width="1"
           y="740"
           x="387" /><text
           id="barcode_bottomtext"
           xml:space="preserve"
           style="font-size:9px;text-align:center;text-anchor:middle"
           y="775"
           x="340">5    060520    310121       </text>
</g></g><use
       id="use8245"
       transform="translate(0,119.90715)"
       xlink:href="#g4685"
       inkscape:tiled-clone-of="#g4685"
       y="0"
       x="0" /><use
       id="use8247"
       transform="translate(0,239.8143)"
       xlink:href="#g4685"
       inkscape:tiled-clone-of="#g4685"
       y="0"
       x="0" /><use
       id="use8249"
       transform="translate(0,359.72145)"
       xlink:href="#g4685"
       inkscape:tiled-clone-of="#g4685"
       y="0"
       x="0" /><use
       id="use8251"
       transform="translate(0,479.6286)"
       xlink:href="#g4685"
       inkscape:tiled-clone-of="#g4685"
       y="0"
       x="0" /><use
       id="use8253"
       transform="translate(0,599.53575)"
       xlink:href="#g4685"
       inkscape:tiled-clone-of="#g4685"
       y="0"
       x="0" /><use
       id="use8255"
       transform="translate(0,719.44289)"
       xlink:href="#g4685"
       inkscape:tiled-clone-of="#g4685"
       y="0"
       x="0" /><use
       id="use8257"
       transform="translate(199.09241,0)"
       xlink:href="#g4685"
       inkscape:tiled-clone-of="#g4685"
       y="0"
       x="0" /><use
       id="use8259"
       transform="translate(199.09241,119.90715)"
       xlink:href="#g4685"
       inkscape:tiled-clone-of="#g4685"
       y="0"
       x="0" /><use
       id="use8261"
       transform="translate(199.09241,239.8143)"
       xlink:href="#g4685"
       inkscape:tiled-clone-of="#g4685"
       y="0"
       x="0" /><use
       id="use8263"
       transform="translate(199.09241,359.72145)"
       xlink:href="#g4685"
       inkscape:tiled-clone-of="#g4685"
       y="0"
       x="0" /><use
       id="use8265"
       transform="translate(199.09241,479.6286)"
       xlink:href="#g4685"
       inkscape:tiled-clone-of="#g4685"
       y="0"
       x="0" /><use
       id="use8267"
       transform="translate(199.09241,599.53575)"
       xlink:href="#g4685"
       inkscape:tiled-clone-of="#g4685"
       y="0"
       x="0" /><use
       id="use8269"
       transform="translate(199.09241,719.44289)"
       xlink:href="#g4685"
       inkscape:tiled-clone-of="#g4685"
       y="0"
       x="0" /><use
       id="use8271"
       transform="translate(398.18482,0)"
       xlink:href="#g4685"
       inkscape:tiled-clone-of="#g4685"
       y="0"
       x="0" /><use
       id="use8273"
       transform="translate(398.18482,119.90715)"
       xlink:href="#g4685"
       inkscape:tiled-clone-of="#g4685"
       y="0"
       x="0" /><use
       id="use8275"
       transform="translate(398.18482,239.8143)"
       xlink:href="#g4685"
       inkscape:tiled-clone-of="#g4685"
       y="0"
       x="0" /><use
       id="use8277"
       transform="translate(398.18482,359.72145)"
       xlink:href="#g4685"
       inkscape:tiled-clone-of="#g4685"
       y="0"
       x="0" /><use
       id="use8279"
       transform="translate(398.18482,479.6286)"
       xlink:href="#g4685"
       inkscape:tiled-clone-of="#g4685"
       y="0"
       x="0" /><use
       id="use8281"
       transform="translate(398.18482,599.53575)"
       xlink:href="#g4685"
       inkscape:tiled-clone-of="#g4685"
       y="0"
       x="0" /><use
       id="use8283"
       transform="translate(398.18482,719.44289)"
       xlink:href="#g4685"
       inkscape:tiled-clone-of="#g4685"
       y="0"
       x="0" /></g></svg>