<?xml version="1.0" encoding="UTF-8" standalone="no"?>
<svg
   xmlns:dc="http://purl.org/dc/elements/1.1/"
   xmlns:cc="http://creativecommons.org/ns#"
   xmlns:rdf="http://www.w3.org/1999/02/22-rdf-syntax-ns#"
   xmlns:svg="http://www.w3.org/2000/svg"
   xmlns="http://www.w3.org/2000/svg"
   xmlns:sodipodi="http://sodipodi.sourceforge.net/DTD/sodipodi-0.dtd"
   xmlns:inkscape="http://www.inkscape.org/namespaces/inkscape"
   version="1.1"
   width="210mm"
   height="297mm"
   viewBox="0 0 210 297"
   id="svg3322"
   inkscape:version="0.48.4 r9939"
   sodipodi:docname="MonoMixer.svg">
  <metadata
     id="metadata3584">
    <rdf:RDF>
      <cc:Work
         rdf:about="">
        <dc:format>image/svg+xml</dc:format>
        <dc:type
           rdf:resource="http://purl.org/dc/dcmitype/StillImage" />
        <dc:title></dc:title>
      </cc:Work>
    </rdf:RDF>
  </metadata>
  <sodipodi:namedview
     id="base"
     inkscape:document-units="mm"
     units="mm"
     showgrid="false"
     inkscape:zoom="1.7556593"
     inkscape:cx="53.14961"
     inkscape:cy="824.70471"
     inkscape:window-width="1680"
     inkscape:window-height="1000"
     inkscape:window-x="0"
     inkscape:window-y="0"
     inkscape:window-maximized="1"
     inkscape:current-layer="svg3322" />
  <defs
     id="defs3325">
    <g
       id="potgrading">
      <path
         d="M 22.469177,65.29487 C 12.864593,59.897939 6.3758317,49.616792 6.3758317,37.815007 c 0,-17.395119 14.1022403,-31.4975588 31.4994303,-31.4975588 17.392315,0 31.496992,14.1012398 31.496992,31.4975588 0,11.809085 -6.498509,22.101133 -16.116497,27.493263"
         style="fill:none;stroke:#030303;stroke-width:0.41032487"
         id="path3328" />
      <path
         d="m 28.906759,4.4567034 0.78974,2.9366707"
         style="fill:none;stroke:#030303;stroke-width:0.75"
         id="path3330" />
      <path
         d="M 19.149856,5.4303268 22.099957,10.54465"
         style="fill:none;stroke:#030303;stroke-width:1.0"
         id="path3332" />
      <path
         d="m 13.42878,13.404619 2.150735,2.149652"
         style="fill:none;stroke:#030303;stroke-width:0.75"
         id="path3334" />
      <path
         d="m 5.5191934,19.159858 5.0557506,2.91857"
         style="fill:none;stroke:#030303;stroke-width:1.0"
         id="path3336" />
      <path
         d="m 4.4968328,28.890192 2.9366973,0.786019"
         style="fill:none;stroke:#030303;stroke-width:0.75"
         id="path3338" />
      <path
         d="m 0.49999997,37.829608 5.86364623,0"
         style="fill:none;stroke:#030303;stroke-width:1.0"
         id="path3340" />
      <path
         d="M 4.5053627,46.769023 7.44206,45.980604"
         style="fill:none;stroke:#030303;stroke-width:0.75"
         id="path3342" />
      <path
         d="M 5.5106636,56.509058 10.590785,53.578387"
         style="fill:none;stroke:#030303;stroke-width:1.0"
         id="path3344" />
      <path
         d="m 13.451932,62.247196 2.145861,-2.149452"
         style="fill:none;stroke:#030303;stroke-width:0.75"
         id="path3346" />
      <path
         d="m 19.291208,70.009583 2.834339,-4.907218"
         style="fill:none;stroke:#030303;stroke-width:1.0"
         id="path3348" />
      <path
         d="m 56.484784,70.043684 -2.861026,-4.95962"
         style="fill:none;stroke:#030303;stroke-width:1.0"
         id="path3350" />
      <path
         d="M 62.293717,62.224096 60.144201,60.079444"
         style="fill:none;stroke:#030303;stroke-width:0.75"
         id="path3352" />
      <path
         d="m 70.111912,56.418856 -4.965577,-2.86977"
         style="fill:none;stroke:#030303;stroke-width:1.0"
         id="path3354" />
      <path
         d="M 71.224445,46.738522 68.290307,45.951403"
         style="fill:none;stroke:#030303;stroke-width:0.75"
         id="path3356" />
      <path
         d="m 75.037277,37.799107 -5.678427,0"
         style="fill:none;stroke:#030303;stroke-width:1.0"
         id="path3358" />
      <path
         d="M 71.216037,28.859791 68.280436,29.64821"
         style="fill:none;stroke:#030303;stroke-width:0.75"
         id="path3360" />
      <path
         d="m 70.076574,19.198959 -4.943643,2.855068"
         style="fill:none;stroke:#030303;stroke-width:1.0"
         id="path3362" />
      <path
         d="M 62.27288,13.382718 60.124704,15.53107"
         style="fill:none;stroke:#030303;stroke-width:0.75"
         id="path3364" />
      <path
         d="M 56.550707,5.4181265 53.598168,10.52765"
         style="fill:none;stroke:#030303;stroke-width:1.0"
         id="path3366" />
      <path
         d="M 46.785274,4.4507032 45.999312,7.386174"
         style="fill:none;stroke:#030303;stroke-width:0.75"
         id="path3368" />
      <path
         d="m 37.844676,0.500008 0,5.8162402"
         style="fill:none;stroke:#030303;stroke-width:1.0"
         id="path3370" />
      <path
         d="m 69.475831,37.723605 c 0,17.397619 -14.103337,31.501159 -31.500648,31.501159 -17.397312,0 -31.500649,-14.10354 -31.500649,-31.501159 0,-17.397619 14.103337,-31.5012591 31.500649,-31.5012591 17.397311,0 31.500648,14.1036401 31.500648,31.5012591 z"
         style="fill:none"
         id="path3372" />
    </g>
  </defs>
  <g
     style="fill:none;stroke-width:0.1;stroke:black"
     id="g3374">
    <rect
       x="0.0"
       y="0.0"
       width="30.00"
       height="128.50"
       id="rect3376" />
    <circle
       cx="7.5"
       cy="3"
       r="1.6"
       id="circle3378" />
    <circle
       cx="7.5"
       cy="125.5"
       r="1.6"
       id="circle3380" />
    <path
       d="m 15,15.05 c -2.6220187,0 -4.7546972,2.123364 -4.7546972,4.745368 0,2.143796 1.4261951,3.960351 3.3776012,4.54998 l 0,2.679746 2.642536,0 0,-2.651834 c 2.003484,-0.55658 3.479956,-2.397067 3.479956,-4.577892 0,-2.622004 -2.123369,-4.745368 -4.745396,-4.745368 z"
       style="fill:none;stroke:#000000;stroke-width:0.09990668;"
       inkscape:connector-curvature="0"
       id="path3382" />
    <g
       transform="translate(15,19.8)"
       style="fill:none;stroke:#000000;stroke-width:0.237;stroke-miterlimit:4;stroke-opacity:1;stroke-dasharray:none"
       id="g3384">
      <path
         d="M -4.2037748,7.5814929 C -6.8346316,6.1114925 -8.6120123,3.3014922 -8.6120123,0.07148931 c 0,-4.75000381 3.8628404,-8.61000481 8.6282233,-8.61000481 4.764047,0 8.627555,3.8600011 8.627555,8.61000481 0,3.23000299 -1.780051,6.04000329 -4.414579,7.52000359"
         style="fill:none;stroke:#030303;stroke-width:0.1411"
         id="path3386" />
      <path
         style="fill:none;stroke:#030303;stroke-width:0.2117"
         d="m -2.440413,-9.0485165 0.216323,0.810001"
         id="path3388" />
      <path
         style="fill:none;stroke:#030303;stroke-width:0.2832"
         d="m -5.1129926,-8.7785155 0.8080822,1.4000001"
         id="path3390" />
      <path
         style="fill:none;stroke:#030303;stroke-width:0.2117"
         d="m -6.6800914,-6.5985155 0.5891225,0.59"
         id="path3392" />
      <path
         style="fill:none;stroke:#030303;stroke-width:0.2832"
         d="m -8.8466601,-5.0285155 1.3848552,0.8000013"
         id="path3394" />
      <path
         style="fill:none;stroke:#030303;stroke-width:0.2117"
         d="m -9.1267017,-2.3685125 0.8044106,0.2200004"
         id="path3396" />
      <path
         style="fill:none;stroke:#030303;stroke-width:0.2832"
         d="m -10.221501,0.08148931 1.6061507,0"
         id="path3398" />
      <path
         style="fill:none;stroke:#030303;stroke-width:0.2117"
         d="M -9.1243652,2.5214918 -8.3199546,2.3014913"
         id="path3400" />
      <path
         style="fill:none;stroke:#030303;stroke-width:0.2832"
         d="M -8.8489964,5.181492 -7.4574658,4.3814921"
         id="path3402" />
      <path
         style="fill:none;stroke:#030303;stroke-width:0.2117"
         d="m -6.6737496,6.7514925 0.5877873,-0.59"
         id="path3404" />
      <path
         style="fill:none;stroke:#030303;stroke-width:0.2832"
         d="m -5.0742739,8.871494 0.776373,-1.3400011"
         id="path3406" />
      <path
         style="fill:none;stroke:#030303;stroke-width:0.2832"
         d="M 5.113671,8.8814939 4.329988,7.5214929"
         id="path3408" />
      <path
         style="fill:none;stroke:#030303;stroke-width:0.2117"
         d="m 6.704836,6.7414925 -0.588789,-0.58"
         id="path3410" />
      <path
         style="fill:none;stroke:#030303;stroke-width:0.2832"
         d="m 8.846371,5.1614921 -1.360155,-0.79"
         id="path3412" />
      <path
         style="fill:none;stroke:#030303;stroke-width:0.2117"
         d="M 9.151112,2.5114918 8.347402,2.2914913"
         id="path3414" />
      <path
         style="fill:none;stroke:#030303;stroke-width:0.2832"
         d="m 10.195511,0.07148931 -1.555417,0"
         id="path3416" />
      <path
         style="fill:none;stroke:#030303;stroke-width:0.2117"
         d="M 9.148809,-2.3785126 8.344698,-2.1585121"
         id="path3418" />
      <path
         style="fill:none;stroke:#030303;stroke-width:0.2832"
         d="M 8.836691,-5.0185155 7.482544,-4.2385142"
         id="path3420" />
      <path
         style="fill:none;stroke:#030303;stroke-width:0.2117"
         d="m 6.699128,-6.6085155 -0.588421,0.59"
         id="path3422" />
      <path
         style="fill:none;stroke:#030303;stroke-width:0.2832"
         d="m 5.131729,-8.7785155 -0.80875,1.39"
         id="path3424" />
      <path
         style="fill:none;stroke:#030303;stroke-width:0.2117"
         d="m 2.456813,-9.0485165 -0.215288,0.800001"
         id="path3426" />
      <path
         style="fill:none;stroke:#030303;stroke-width:0.2832"
         d="m 0.007833,-10.128517 0,1.5900015"
         id="path3428" />
    </g>
    <path
       d="m 15,34.1 c -2.6220187,0 -4.7546972,2.123364 -4.7546972,4.745368 0,2.143796 1.4261951,3.960351 3.3776012,4.54998 l 0,2.679746 2.642536,0 0,-2.651834 c 2.003484,-0.55658 3.479956,-2.397067 3.479956,-4.577892 0,-2.622004 -2.123369,-4.745368 -4.745396,-4.745368 z"
       style="fill:none;stroke:#000000;stroke-width:0.09990668;"
       inkscape:connector-curvature="0"
       id="path3430" />
    <g
       transform="translate(15,38.85)"
       style="fill:none;stroke:#000000;stroke-width:0.237;stroke-miterlimit:4;stroke-opacity:1;stroke-dasharray:none"
       id="g3432">
      <path
         d="M -4.2037748,7.5814929 C -6.8346316,6.1114925 -8.6120123,3.3014922 -8.6120123,0.07148931 c 0,-4.75000381 3.8628404,-8.61000481 8.6282233,-8.61000481 4.764047,0 8.627555,3.8600011 8.627555,8.61000481 0,3.23000299 -1.780051,6.04000329 -4.414579,7.52000359"
         style="fill:none;stroke:#030303;stroke-width:0.1411"
         id="path3434" />
      <path
         style="fill:none;stroke:#030303;stroke-width:0.2117"
         d="m -2.440413,-9.0485165 0.216323,0.810001"
         id="path3436" />
      <path
         style="fill:none;stroke:#030303;stroke-width:0.2832"
         d="m -5.1129926,-8.7785155 0.8080822,1.4000001"
         id="path3438" />
      <path
         style="fill:none;stroke:#030303;stroke-width:0.2117"
         d="m -6.6800914,-6.5985155 0.5891225,0.59"
         id="path3440" />
      <path
         style="fill:none;stroke:#030303;stroke-width:0.2832"
         d="m -8.8466601,-5.0285155 1.3848552,0.8000013"
         id="path3442" />
      <path
         style="fill:none;stroke:#030303;stroke-width:0.2117"
         d="m -9.1267017,-2.3685125 0.8044106,0.2200004"
         id="path3444" />
      <path
         style="fill:none;stroke:#030303;stroke-width:0.2832"
         d="m -10.221501,0.08148931 1.6061507,0"
         id="path3446" />
      <path
         style="fill:none;stroke:#030303;stroke-width:0.2117"
         d="M -9.1243652,2.5214918 -8.3199546,2.3014913"
         id="path3448" />
      <path
         style="fill:none;stroke:#030303;stroke-width:0.2832"
         d="M -8.8489964,5.181492 -7.4574658,4.3814921"
         id="path3450" />
      <path
         style="fill:none;stroke:#030303;stroke-width:0.2117"
         d="m -6.6737496,6.7514925 0.5877873,-0.59"
         id="path3452" />
      <path
         style="fill:none;stroke:#030303;stroke-width:0.2832"
         d="m -5.0742739,8.871494 0.776373,-1.3400011"
         id="path3454" />
      <path
         style="fill:none;stroke:#030303;stroke-width:0.2832"
         d="M 5.113671,8.8814939 4.329988,7.5214929"
         id="path3456" />
      <path
         style="fill:none;stroke:#030303;stroke-width:0.2117"
         d="m 6.704836,6.7414925 -0.588789,-0.58"
         id="path3458" />
      <path
         style="fill:none;stroke:#030303;stroke-width:0.2832"
         d="m 8.846371,5.1614921 -1.360155,-0.79"
         id="path3460" />
      <path
         style="fill:none;stroke:#030303;stroke-width:0.2117"
         d="M 9.151112,2.5114918 8.347402,2.2914913"
         id="path3462" />
      <path
         style="fill:none;stroke:#030303;stroke-width:0.2832"
         d="m 10.195511,0.07148931 -1.555417,0"
         id="path3464" />
      <path
         style="fill:none;stroke:#030303;stroke-width:0.2117"
         d="M 9.148809,-2.3785126 8.344698,-2.1585121"
         id="path3466" />
      <path
         style="fill:none;stroke:#030303;stroke-width:0.2832"
         d="M 8.836691,-5.0185155 7.482544,-4.2385142"
         id="path3468" />
      <path
         style="fill:none;stroke:#030303;stroke-width:0.2117"
         d="m 6.699128,-6.6085155 -0.588421,0.59"
         id="path3470" />
      <path
         style="fill:none;stroke:#030303;stroke-width:0.2832"
         d="m 5.131729,-8.7785155 -0.80875,1.39"
         id="path3472" />
      <path
         style="fill:none;stroke:#030303;stroke-width:0.2117"
         d="m 2.456813,-9.0485165 -0.215288,0.800001"
         id="path3474" />
      <path
         style="fill:none;stroke:#030303;stroke-width:0.2832"
         d="m 0.007833,-10.128517 0,1.5900015"
         id="path3476" />
    </g>
    <path
       d="m 15,53.15 c -2.6220187,0 -4.7546972,2.123364 -4.7546972,4.745368 0,2.143796 1.4261951,3.960351 3.3776012,4.54998 l 0,2.679746 2.642536,0 0,-2.651834 c 2.003484,-0.55658 3.479956,-2.397067 3.479956,-4.577892 0,-2.622004 -2.123369,-4.745368 -4.745396,-4.745368 z"
       style="fill:none;stroke:#000000;stroke-width:0.09990668;"
       inkscape:connector-curvature="0"
       id="path3478" />
    <g
       transform="translate(15,57.9)"
       style="fill:none;stroke:#000000;stroke-width:0.237;stroke-miterlimit:4;stroke-opacity:1;stroke-dasharray:none"
       id="g3480">
      <path
         d="M -4.2037748,7.5814929 C -6.8346316,6.1114925 -8.6120123,3.3014922 -8.6120123,0.07148931 c 0,-4.75000381 3.8628404,-8.61000481 8.6282233,-8.61000481 4.764047,0 8.627555,3.8600011 8.627555,8.61000481 0,3.23000299 -1.780051,6.04000329 -4.414579,7.52000359"
         style="fill:none;stroke:#030303;stroke-width:0.1411"
         id="path3482" />
      <path
         style="fill:none;stroke:#030303;stroke-width:0.2117"
         d="m -2.440413,-9.0485165 0.216323,0.810001"
         id="path3484" />
      <path
         style="fill:none;stroke:#030303;stroke-width:0.2832"
         d="m -5.1129926,-8.7785155 0.8080822,1.4000001"
         id="path3486" />
      <path
         style="fill:none;stroke:#030303;stroke-width:0.2117"
         d="m -6.6800914,-6.5985155 0.5891225,0.59"
         id="path3488" />
      <path
         style="fill:none;stroke:#030303;stroke-width:0.2832"
         d="m -8.8466601,-5.0285155 1.3848552,0.8000013"
         id="path3490" />
      <path
         style="fill:none;stroke:#030303;stroke-width:0.2117"
         d="m -9.1267017,-2.3685125 0.8044106,0.2200004"
         id="path3492" />
      <path
         style="fill:none;stroke:#030303;stroke-width:0.2832"
         d="m -10.221501,0.08148931 1.6061507,0"
         id="path3494" />
      <path
         style="fill:none;stroke:#030303;stroke-width:0.2117"
         d="M -9.1243652,2.5214918 -8.3199546,2.3014913"
         id="path3496" />
      <path
         style="fill:none;stroke:#030303;stroke-width:0.2832"
         d="M -8.8489964,5.181492 -7.4574658,4.3814921"
         id="path3498" />
      <path
         style="fill:none;stroke:#030303;stroke-width:0.2117"
         d="m -6.6737496,6.7514925 0.5877873,-0.59"
         id="path3500" />
      <path
         style="fill:none;stroke:#030303;stroke-width:0.2832"
         d="m -5.0742739,8.871494 0.776373,-1.3400011"
         id="path3502" />
      <path
         style="fill:none;stroke:#030303;stroke-width:0.2832"
         d="M 5.113671,8.8814939 4.329988,7.5214929"
         id="path3504" />
      <path
         style="fill:none;stroke:#030303;stroke-width:0.2117"
         d="m 6.704836,6.7414925 -0.588789,-0.58"
         id="path3506" />
      <path
         style="fill:none;stroke:#030303;stroke-width:0.2832"
         d="m 8.846371,5.1614921 -1.360155,-0.79"
         id="path3508" />
      <path
         style="fill:none;stroke:#030303;stroke-width:0.2117"
         d="M 9.151112,2.5114918 8.347402,2.2914913"
         id="path3510" />
      <path
         style="fill:none;stroke:#030303;stroke-width:0.2832"
         d="m 10.195511,0.07148931 -1.555417,0"
         id="path3512" />
      <path
         style="fill:none;stroke:#030303;stroke-width:0.2117"
         d="M 9.148809,-2.3785126 8.344698,-2.1585121"
         id="path3514" />
      <path
         style="fill:none;stroke:#030303;stroke-width:0.2832"
         d="M 8.836691,-5.0185155 7.482544,-4.2385142"
         id="path3516" />
      <path
         style="fill:none;stroke:#030303;stroke-width:0.2117"
         d="m 6.699128,-6.6085155 -0.588421,0.59"
         id="path3518" />
      <path
         style="fill:none;stroke:#030303;stroke-width:0.2832"
         d="m 5.131729,-8.7785155 -0.80875,1.39"
         id="path3520" />
      <path
         style="fill:none;stroke:#030303;stroke-width:0.2117"
         d="m 2.456813,-9.0485165 -0.215288,0.800001"
         id="path3522" />
      <path
         style="fill:none;stroke:#030303;stroke-width:0.2832"
         d="m 0.007833,-10.128517 0,1.5900015"
         id="path3524" />
    </g>
    <path
       d="m 15,72.2 c -2.6220187,0 -4.7546972,2.123364 -4.7546972,4.745368 0,2.143796 1.4261951,3.960351 3.3776012,4.54998 l 0,2.679746 2.642536,0 0,-2.651834 c 2.003484,-0.55658 3.479956,-2.397067 3.479956,-4.577892 0,-2.622004 -2.123369,-4.745368 -4.745396,-4.745368 z"
       style="fill:none;stroke:#000000;stroke-width:0.09990668;"
       inkscape:connector-curvature="0"
       id="path3526" />
    <g
       transform="translate(15,76.95)"
       style="fill:none;stroke:#000000;stroke-width:0.237;stroke-miterlimit:4;stroke-opacity:1;stroke-dasharray:none"
       id="g3528">
      <path
         d="M -4.2037748,7.5814929 C -6.8346316,6.1114925 -8.6120123,3.3014922 -8.6120123,0.07148931 c 0,-4.75000381 3.8628404,-8.61000481 8.6282233,-8.61000481 4.764047,0 8.627555,3.8600011 8.627555,8.61000481 0,3.23000299 -1.780051,6.04000329 -4.414579,7.52000359"
         style="fill:none;stroke:#030303;stroke-width:0.1411"
         id="path3530" />
      <path
         style="fill:none;stroke:#030303;stroke-width:0.2117"
         d="m -2.440413,-9.0485165 0.216323,0.810001"
         id="path3532" />
      <path
         style="fill:none;stroke:#030303;stroke-width:0.2832"
         d="m -5.1129926,-8.7785155 0.8080822,1.4000001"
         id="path3534" />
      <path
         style="fill:none;stroke:#030303;stroke-width:0.2117"
         d="m -6.6800914,-6.5985155 0.5891225,0.59"
         id="path3536" />
      <path
         style="fill:none;stroke:#030303;stroke-width:0.2832"
         d="m -8.8466601,-5.0285155 1.3848552,0.8000013"
         id="path3538" />
      <path
         style="fill:none;stroke:#030303;stroke-width:0.2117"
         d="m -9.1267017,-2.3685125 0.8044106,0.2200004"
         id="path3540" />
      <path
         style="fill:none;stroke:#030303;stroke-width:0.2832"
         d="m -10.221501,0.08148931 1.6061507,0"
         id="path3542" />
      <path
         style="fill:none;stroke:#030303;stroke-width:0.2117"
         d="M -9.1243652,2.5214918 -8.3199546,2.3014913"
         id="path3544" />
      <path
         style="fill:none;stroke:#030303;stroke-width:0.2832"
         d="M -8.8489964,5.181492 -7.4574658,4.3814921"
         id="path3546" />
      <path
         style="fill:none;stroke:#030303;stroke-width:0.2117"
         d="m -6.6737496,6.7514925 0.5877873,-0.59"
         id="path3548" />
      <path
         style="fill:none;stroke:#030303;stroke-width:0.2832"
         d="m -5.0742739,8.871494 0.776373,-1.3400011"
         id="path3550" />
      <path
         style="fill:none;stroke:#030303;stroke-width:0.2832"
         d="M 5.113671,8.8814939 4.329988,7.5214929"
         id="path3552" />
      <path
         style="fill:none;stroke:#030303;stroke-width:0.2117"
         d="m 6.704836,6.7414925 -0.588789,-0.58"
         id="path3554" />
      <path
         style="fill:none;stroke:#030303;stroke-width:0.2832"
         d="m 8.846371,5.1614921 -1.360155,-0.79"
         id="path3556" />
      <path
         style="fill:none;stroke:#030303;stroke-width:0.2117"
         d="M 9.151112,2.5114918 8.347402,2.2914913"
         id="path3558" />
      <path
         style="fill:none;stroke:#030303;stroke-width:0.2832"
         d="m 10.195511,0.07148931 -1.555417,0"
         id="path3560" />
      <path
         style="fill:none;stroke:#030303;stroke-width:0.2117"
         d="M 9.148809,-2.3785126 8.344698,-2.1585121"
         id="path3562" />
      <path
         style="fill:none;stroke:#030303;stroke-width:0.2832"
         d="M 8.836691,-5.0185155 7.482544,-4.2385142"
         id="path3564" />
      <path
         style="fill:none;stroke:#030303;stroke-width:0.2117"
         d="m 6.699128,-6.6085155 -0.588421,0.59"
         id="path3566" />
      <path
         style="fill:none;stroke:#030303;stroke-width:0.2832"
         d="m 5.131729,-8.7785155 -0.80875,1.39"
         id="path3568" />
      <path
         style="fill:none;stroke:#030303;stroke-width:0.2117"
         d="m 2.456813,-9.0485165 -0.215288,0.800001"
         id="path3570" />
      <path
         style="fill:none;stroke:#030303;stroke-width:0.2832"
         d="m 0.007833,-10.128517 0,1.5900015"
         id="path3572" />
    </g>
    <circle
       cx="8.65"
       cy="89.65"
       r="3.25"
       id="circle3574" />
    <circle
       cx="21.35"
       cy="89.65"
       r="3.25"
       id="circle3576" />
    <circle
       cx="15"
       cy="99.175"
       r="3.25"
       id="circle3578" />
    <circle
       cx="8.65"
       cy="108.7"
       r="3.25"
       id="circle3580" />
    <circle
       cx="21.35"
       cy="108.7"
       r="3.25"
       id="circle3582" />
  </g>
  <text
     xml:space="preserve"
     style="font-size:2.82222223px;font-style:normal;font-weight:normal;line-height:125%;letter-spacing:0px;word-spacing:0px;fill:#000000;fill-opacity:1;stroke:none;font-family:Sans"
     x="7.3086653"
     y="95.583992"
     id="text3586"
     sodipodi:linespacing="125%"><tspan
       sodipodi:role="line"
       x="7.3086653"
       y="95.583992"
       id="tspan3590">1</tspan></text>
  <text
     xml:space="preserve"
     style="font-size:2.82222223px;font-style:normal;font-weight:normal;line-height:125%;letter-spacing:0px;word-spacing:0px;fill:#000000;fill-opacity:1;stroke:none;font-family:Sans"
     x="20.815306"
     y="95.662437"
     id="text3594"
     sodipodi:linespacing="125%"><tspan
       sodipodi:role="line"
       id="tspan3596"
       x="20.815306"
       y="95.662437">2</tspan></text>
  <text
     xml:space="preserve"
     style="font-size:2.82222223px;font-style:normal;font-weight:normal;line-height:125%;letter-spacing:0px;word-spacing:0px;fill:#000000;fill-opacity:1;stroke:none;font-family:Sans"
     x="7.5770249"
     y="115.19175"
     id="text3598"
     sodipodi:linespacing="125%"><tspan
       sodipodi:role="line"
       id="tspan3600"
       x="7.5770249"
       y="115.19175">3</tspan></text>
  <text
     xml:space="preserve"
     style="font-size:2.82222223px;font-style:normal;font-weight:normal;line-height:125%;letter-spacing:0px;word-spacing:0px;fill:#000000;fill-opacity:1;stroke:none;font-family:Sans"
     x="20.415249"
     y="115.27"
     id="text3602"
     sodipodi:linespacing="125%"><tspan
       sodipodi:role="line"
       id="tspan3604"
       x="20.415249"
       y="115.27">4</tspan></text>
  <text
     xml:space="preserve"
     style="font-size:10px;font-style:normal;font-weight:normal;line-height:125%;letter-spacing:0px;word-spacing:0px;fill:#000000;fill-opacity:1;stroke:none;font-family:Sans"
     x="45.566929"
     y="372.84537"
     id="text3606"
     sodipodi:linespacing="125%"
     transform="matrix(0.28222223,0,0,0.28222223,-1.3919578e-6,0)"><tspan
       sodipodi:role="line"
       id="tspan3608"
       x="45.566929"
       y="372.84537">OUT</tspan></text>
  <text
     xml:space="preserve"
     style="font-size:10px;font-style:normal;font-weight:normal;line-height:125%;letter-spacing:0px;word-spacing:0px;fill:#000000;fill-opacity:1;stroke:none;font-family:Sans"
     x="19.935532"
     y="101.15256"
     id="text3610"
     sodipodi:linespacing="125%"
     transform="matrix(0.28222223,0,0,0.28222223,-1.3919578e-6,0)"><tspan
       sodipodi:role="line"
       id="tspan3612"
       x="19.935532"
       y="101.15256">1</tspan></text>
  <text
     xml:space="preserve"
     style="font-size:10px;font-style:normal;font-weight:normal;line-height:125%;letter-spacing:0px;word-spacing:0px;fill:#000000;fill-opacity:1;stroke:none;font-family:Sans"
     x="23.35305"
     y="171.21172"
     id="text3614"
     sodipodi:linespacing="125%"
     transform="matrix(0.28222223,0,0,0.28222223,-1.3919578e-6,0)"><tspan
       sodipodi:role="line"
       id="tspan3616"
       x="23.35305"
       y="171.21172">2</tspan></text>
  <text
     xml:space="preserve"
     style="font-size:10px;font-style:normal;font-weight:normal;line-height:125%;letter-spacing:0px;word-spacing:0px;fill:#000000;fill-opacity:1;stroke:none;font-family:Sans"
     x="21.644291"
     y="237.85333"
     id="text3618"
     sodipodi:linespacing="125%"
     transform="matrix(0.28222223,0,0,0.28222223,-1.3919578e-6,0)"><tspan
       sodipodi:role="line"
       id="tspan3620"
       x="21.644291"
       y="237.85333">3</tspan></text>
  <text
     xml:space="preserve"
     style="font-size:2.82222223px;font-style:normal;font-weight:normal;line-height:125%;letter-spacing:0px;word-spacing:0px;fill:#000000;fill-opacity:1;stroke:none;font-family:Sans"
     x="5.1439986"
     y="85.048996"
     id="text3622"
     sodipodi:linespacing="125%"><tspan
       sodipodi:role="line"
       id="tspan3624"
       x="5.1439986"
       y="85.048996">4</tspan></text>
</svg>
